<svg xmlns="http://www.w3.org/2000/svg" width="614.4" viewBox="0 0 614.4 607.7" height="607.7" xml:space="preserve"><path d="M142.4 465.3v142.4h164.7c169.5 0 307.2-136.2 307.2-303.9S476.7 0 307.2 0C137.6 0 0 136.2 0 303.9v161.4h142.4zM0 465.3l142.4 142.4H0V465.3zm376.6-267c22.8 0 41.3 18.5 41.3 41.3 0 22.8-18.5 41.3-41.3 41.3-22.8 0-41.3-18.5-41.3-41.3 0-22.8 18.5-41.3 41.3-41.3zm-69.8 267c90.2-.3 163.3-72.8 163.3-162v-162H306.3c-90.4 0-163.8 72.6-163.8 162v162h164.3z" fill-rule="evenodd" clip-rule="evenodd"></path></svg>