<svg xmlns="http://www.w3.org/2000/svg" width="445.4" viewBox="0 0 445.4 587.2" height="587.2"><path d="M223.1 2.1c-71.2 0-134.6 33.7-175.3 85.8V0H0v587.2h47.8V360.9c40.7 52.2 104.1 85.8 175.3 85.8 122.6 0 222.3-99.7 222.3-222.3 0-122.6-99.7-222.3-222.3-222.3zm0 396.9c-96.3 0-174.6-78.3-174.6-174.6S126.8 49.8 223.1 49.8s174.6 78.3 174.6 174.6S319.3 399 223.1 399z"></path><path d="M314.5 152v48.5H247v-67.6h48.5l-72.4-72.4-72.4 72.4h48.5v67.6h-67.6V152l-72.4 72.4 72.4 72.4v-48.5h67.6v67.6h-48.5l72.4 72.4 72.4-72.4H247v-67.6h67.5v48.5l72.5-72.4z"></path></svg>