<svg data-name="Layer 1" xmlns="http://www.w3.org/2000/svg" viewBox="0 0 631.02 631.02"><path d="M293.1 212.16c3.33-.72 6.73-1.26 10.17-1.66V0H293.1v212.16ZM310.42 210c1.68-.08 3.34-.26 5.05-.26s3.41.18 5.12.26V0h-10.17v210ZM327.74 210.52c3.44.4 6.84.95 10.17 1.67V0h-10.17v210.52ZM462.68 36.16l-8.81-5.09-106.09 183.74c3.29 1.06 6.52 2.26 9.66 3.63L462.68 36.16ZM372.69 226.65 477.68 44.82l-8.82-5.09-104.98 181.82c3.03 1.56 5.96 3.26 8.81 5.1ZM386.52 237.33 492.68 53.48l-8.82-5.09-105.3 182.37c2.76 2.06 5.42 4.24 7.96 6.56ZM400.25 252.47l182.38-105.29-5.1-8.82L393.68 244.5c2.32 2.55 4.5 5.2 6.56 7.97ZM409.46 267.15 591.3 162.19l-5.1-8.82-181.84 104.96c1.84 2.85 3.53 5.79 5.1 8.82ZM416.2 283.26l183.77-106.08-5.1-8.82-182.29 105.23c1.36 3.15 2.57 6.37 3.62 9.66ZM418.82 293.11c.72 3.33 1.27 6.73 1.67 10.17l210.53.02v-10.17l-212.2-.02ZM421.25 315.53c0 1.71-.18 3.38-.26 5.08l210.02.02v-10.17l-210.02-.02c.08 1.7.26 3.37.26 5.09ZM418.82 337.93l212.19.02v-10.17l-210.53-.02c-.4 3.44-.95 6.84-1.66 10.17ZM412.58 357.44 594.84 462.7l5.1-8.82L416.2 347.77c-1.05 3.3-2.26 6.52-3.62 9.67ZM404.37 372.71l181.8 105 5.1-8.82-181.8-105c-1.56 3.03-3.26 5.97-5.1 8.82ZM393.7 386.55l183.82 106.16 5.1-8.82-182.35-105.31c-2.06 2.77-4.24 5.42-6.56 7.97ZM378.56 400.29l105.25 182.36 8.82-5.09-106.11-183.84c-2.55 2.32-5.2 4.5-7.96 6.56ZM363.89 409.51l104.92 181.8 8.82-5.09L372.7 404.4c-2.85 1.84-5.78 3.54-8.81 5.1ZM347.76 416.25 453.8 599.98l8.81-5.09-105.2-182.27c-3.14 1.36-6.37 2.57-9.66 3.63ZM327.69 631.02h10.17l.04-212.14c-3.33.72-6.73 1.27-10.17 1.67l-.04 210.47ZM310.4 421.05l-.04 209.96h10.17l.04-209.96c-1.7.08-3.38.26-5.11.26s-3.38-.17-5.06-.26ZM293.03 631.01h10.17l.05-210.46c-3.44-.4-6.84-.95-10.17-1.66l-.04 212.12ZM168.28 594.83l8.82 5.09 106.1-183.66c-3.29-1.06-6.52-2.26-9.66-3.62l-105.26 182.2ZM258.26 404.42 153.28 586.16l8.82 5.09 104.98-181.73c-3.03-1.56-5.96-3.26-8.81-5.1ZM244.43 393.74 138.28 577.5l8.82 5.09 105.3-182.28c-2.76-2.06-5.42-4.25-7.96-6.56ZM230.68 378.59 48.35 483.79l5.09 8.82 183.8-106.06c-2.31-2.55-4.5-5.2-6.55-7.96ZM221.46 363.89 39.68 468.78l5.1 8.81L226.56 372.7c-1.84-2.85-3.53-5.79-5.1-8.82ZM214.73 347.78l-183.7 106 5.07 8.82 182.25-105.15c-1.36-3.15-2.57-6.37-3.62-9.66ZM210.44 327.72 0 327.66v10.17l212.1.06c-.72-3.34-1.27-6.73-1.66-10.17ZM209.68 315.53c0-1.73.18-3.42.26-5.13L0 310.33v10.17l209.94.06c-.08-1.68-.25-3.34-.25-5.04ZM212.13 293.07 0 293.01v10.17l210.46.06c.4-3.45.95-6.84 1.67-10.17ZM218.39 273.53 36.2 168.26l-5.1 8.82 183.66 106.11c1.06-3.29 2.27-6.52 3.63-9.66ZM226.61 258.26l-181.74-105-5.1 8.82 181.73 105c1.56-3.03 3.27-5.96 5.1-8.81ZM237.3 244.43 53.54 138.26l-5.1 8.82L230.73 252.4c2.06-2.76 4.25-5.42 6.57-7.97ZM252.46 230.7 147.25 48.33l-8.82 5.09 106.06 183.84c2.55-2.31 5.2-4.5 7.97-6.55ZM267.15 221.5 162.26 39.68l-8.82 5.09L258.33 226.6c2.85-1.83 5.78-3.53 8.81-5.09ZM168.44 36.1 273.6 218.39c3.15-1.36 6.37-2.56 9.66-3.62l-106-183.75-8.82 5.09Z"></path></svg>