<svg xmlns="http://www.w3.org/2000/svg" width="642" viewBox="0 0 642 567.05" height="567.05" data-name="Layer 1"><path d="M358.48 462.64v104.41L642 283.53 358.48 0v104.41l142.2 142.2h-77.93c-15.11-41.63-54.9-71.42-101.75-71.42s-86.63 29.79-101.75 71.42h-77.93l142.2-142.2V0L0 283.52l283.52 283.52V462.63L141.3 320.43h77.95c15.11 41.63 54.9 71.42 101.75 71.42s86.63-29.79 101.75-71.42h77.95l-142.22 142.2ZM321 337.29c-29.69 0-53.77-24.07-53.77-53.77s24.07-53.77 53.77-53.77 53.77 24.07 53.77 53.77-24.07 53.77-53.77 53.77Z" style="stroke-width:0"></path></svg>