<svg xmlns="http://www.w3.org/2000/svg" width="642" viewBox="0 0 642 346.6" height="346.6" style="overflow:visible;enable-background:new 0 0 642 346.6" xml:space="preserve"><path d="M285.6 22.5c0-6.6-5.4-12-12-12s-12 5.4-12 12 5.4 12 12 12 12-5.4 12-12zM314.4 0c13 0 20.6 14.6 13.1 25.2l-49.4 70.6c-3 4.3-7.9 6.8-13.1 6.8h-91.7c-41.7 0-75 36.2-70.1 78.8 3.6 31.6 28.9 57.5 60.4 61.7 27.4 3.7 52.2-8.4 66.8-28.4L346.8 48.9C368.4 19.3 403.3 0 442.8 0s74.5 19.3 96.1 48.9l79.8 108.6c57.6 78.4 1.7 189.1-95.7 189.1H391.5c-29.5 0-53.2-24.9-51.2-54.8 1.8-27.3 25.6-47.9 53-47.9h129.8c13.2 0 20.7-15 12.9-25.5l-80-108.8c-6.5-8.8-19.7-8.7-26 .3L313.5 275.1c-32.8 45.1-86.8 73.7-147.4 71.3C78.3 342.9 5.8 272.1.3 184.4-5.9 83.6 73.9 0 173.3 0h141.1z"></path></svg>