<svg xmlns="http://www.w3.org/2000/svg" width="613.6" viewBox="0 0 613.6 598.2" height="598.2" xml:space="preserve"><path d="M443.4 0H170.3L1.2 212 0 213.5l60.8 266.2 246 118.5 246-118.5 60.8-266.2L443.4 0zm102.7 474.4L306.8 589.6 67.5 474.4l-59.1-259L174 7.8h265.6l165.6 207.6-59.1 259z"></path><path d="M68.4 160v275.3l236.5 136.5 1.9 1.1 238.4-137.7V160L306.8 22.3 68.4 160zm469 270.8L306.8 563.9 76.2 430.8V164.5L306.8 31.3l230.6 133.2v266.3z"></path><path d="m83.8 384.6-.9 2.7L306.8 550l223.9-162.7-85.5-263.2H168.4L83.8 384.6zm355.7-252.7 82 252.5-214.8 156-214.8-156 82-252.5h265.6z"></path><path d="m306.8 532.6 195.9-195.8-195.9-195.9L111 336.7l195.8 195.9zm184.9-195.9L306.8 521.5 122 336.7l184.8-184.8 184.9 184.8z"></path><path d="M306.8 516.4 436.9 291H176.7l130.1 225.4zm0-15.6-116.6-202h233.2l-116.6 202z"></path></svg>