<svg id="Layer_1" data-name="Layer 1" xmlns="http://www.w3.org/2000/svg" viewBox="0 0 606.47 606.47">   <path d="M303.24,0C136.03,0,0,136.03,0,303.23s136.03,303.24,303.24,303.24,303.23-136.03,303.23-303.24S470.44,0,303.24,0Zm236.27,303.23c0,130.28-105.99,236.27-236.27,236.27s-236.27-105.99-236.27-236.27S172.95,66.96,303.24,66.96s236.27,105.99,236.27,236.27Z"></path>   <path d="M136.41,292.63h133.43l.18-.53c3.48-10.36,11.73-18.61,22.08-22.08l.53-.18V136.41H136.41v156.22Z"></path>   <path d="M270.02,314.37l-.18-.53H136.41v156.22h156.22v-133.43l-.53-.18c-10.35-3.47-18.6-11.72-22.08-22.08Z"></path>   <path d="M313.84,269.84l.53,.18c10.35,3.47,18.6,11.72,22.08,22.08l.18,.53h133.43V136.41h-156.22v133.43Z"></path>   <path d="M336.45,314.37c-3.48,10.36-11.73,18.61-22.08,22.08l-.53,.18v133.43h156.22v-156.22h-133.43l-.18,.53Z"></path> </svg>