<svg xmlns="http://www.w3.org/2000/svg" width="626.05" viewBox="0 0 626.05 642" height="642" data-name="Layer 1"><path d="M21.36 384.88c.39 1.73.77 3.47 1.16 5.14-2.44.39-4.94.9-7.45 1.48L3 394.26c-1.35.32-2.63-.51-2.95-1.8-.26-1.35.51-2.63 1.86-2.95l12.07-2.7c2.5-.58 4.94-1.22 7.38-1.93ZM15.07 250.51c2.5.58 5.01 1.09 7.45 1.48-.39 1.67-.77 3.4-1.16 5.14-2.44-.71-4.88-1.35-7.38-1.93l-12.07-2.7c-1.35-.32-2.12-1.6-1.86-2.95a2.454 2.454 0 0 1 2.95-1.8l12.07 2.76ZM77.99 505.06c1.03 1.35 2.18 2.76 3.34 4.11-2.05 1.48-4.11 3.02-6.16 4.62l-9.69 7.7c-1.03.9-2.57.71-3.4-.39-.83-1.03-.71-2.57.39-3.4l9.69-7.7c1.99-1.6 3.98-3.27 5.84-4.94ZM75.16 128.21c2.05 1.6 4.11 3.15 6.16 4.62a92.676 92.676 0 0 0-3.34 4.11c-1.86-1.67-3.85-3.34-5.84-4.94l-9.69-7.7c-1.09-.83-1.22-2.38-.39-3.4.83-1.09 2.38-1.28 3.4-.39l9.69 7.7ZM181.09 588.84c1.61.83 3.15 1.54 4.75 2.31-1.22 2.18-2.38 4.43-3.47 6.74l-5.39 11.17c-.58 1.22-1.99 1.73-3.21 1.16s-1.73-2.05-1.16-3.27l5.39-11.17c1.09-2.31 2.12-4.62 3.08-6.93ZM182.38 44.11c1.09 2.31 2.25 4.56 3.47 6.74-1.6.77-3.15 1.48-4.75 2.31-.96-2.31-1.99-4.62-3.08-6.93l-5.39-11.17c-.58-1.22-.06-2.7 1.16-3.27 1.22-.58 2.63-.06 3.21 1.16l5.39 11.17ZM315.59 619.47c-.13 2.57-.19 5.14-.19 7.7l.06 12.39c0 1.35-1.09 2.44-2.44 2.44s-2.44-1.09-2.44-2.44v-12.39c0-2.57-.06-5.14-.19-7.7.9.06 1.73.06 2.63.06.83 0 1.73 0 2.57-.06ZM315.46 14.83c0 2.57.06 5.14.19 7.7-.9-.06-1.73-.06-2.63-.06s-1.73 0-2.63.06c.13-2.57.19-5.14.19-7.7V2.44c0-1.35 1.09-2.44 2.44-2.44s2.44 1.09 2.44 2.44v12.39ZM453.43 606.95c.58 1.22.06 2.7-1.16 3.27s-2.63.06-3.21-1.16l-5.39-11.17c-1.09-2.31-2.25-4.56-3.47-6.74 1.6-.77 3.15-1.48 4.75-2.31.96 2.31 1.99 4.62 3.08 6.93l5.39 11.17ZM453.43 35.05l-5.39 11.17c-1.09 2.31-2.12 4.62-3.08 6.93-1.6-.83-3.15-1.54-4.75-2.31 1.22-2.18 2.38-4.43 3.47-6.74l5.39-11.17a2.4 2.4 0 0 1 3.21-1.16c1.22.58 1.73 2.05 1.16 3.27ZM563.6 517.71c1.09.83 1.22 2.38.39 3.4-.83 1.09-2.38 1.28-3.4.39l-9.69-7.7c-2.05-1.6-4.11-3.15-6.16-4.62 1.16-1.35 2.31-2.76 3.34-4.11 1.86 1.67 3.85 3.34 5.84 4.94l9.69 7.7ZM563.98 120.89c.83 1.03.71 2.57-.39 3.4l-9.69 7.7c-1.99 1.6-3.98 3.27-5.84 4.94a92.676 92.676 0 0 0-3.34-4.11c2.05-1.48 4.11-3.02 6.16-4.62l9.69-7.7c1.03-.9 2.57-.71 3.4.39ZM626 392.45a2.45 2.45 0 0 1-2.95 1.8l-12.07-2.76c-2.5-.58-5.01-1.09-7.45-1.48.39-1.67.77-3.4 1.16-5.14 2.44.71 4.88 1.35 7.38 1.93l12.07 2.7c1.35.32 2.12 1.61 1.86 2.95ZM604.68 257.12c-.39-1.73-.77-3.47-1.16-5.14 2.44-.39 4.94-.9 7.45-1.48l12.07-2.76c1.35-.32 2.63.51 2.95 1.8.26 1.35-.51 2.63-1.86 2.95l-12.07 2.7c-2.5.58-4.94 1.22-7.38 1.93Z"></path><path d="M477.31 358.49c-5.01 21.89 6.36 43.72 26.07 52.64 18.17-12.07 39.23-19.84 61.38-22.34 12.65-1.35 25.68-1.03 38.78 1.22-10.08 42.63-29.28 81.66-55.47 115.05-9.89-8.8-18.3-18.81-25.04-29.53-11.94-18.87-18.94-40.19-20.86-61.95-19.26-9.82-43.4-5.01-57.39 12.52-13.93 17.53-13.23 42.12.58 58.74 21.64-3.02 43.98-.96 65.03 6.48 11.94 4.17 23.56 10.14 34.35 17.85a298.49 298.49 0 0 1-99.77 79.67 138.53 138.53 0 0 1-9.82-37.49c-2.5-22.21.39-44.43 8.15-64.84-13.1-17.21-36.85-23.43-57.14-13.67-20.22 9.76-30.17 32.16-24.97 53.16 20.8 6.68 39.93 18.17 55.66 34.09 9.05 8.92 16.95 19.39 23.37 31.07-37.88 17.85-80.06 27.99-124.61 28.31.77-13.23 3.34-26 7.58-38.01 7.25-21.06 19.58-39.8 35.37-54.89-4.37-21.12-23.11-37.04-45.52-37.04s-41.15 15.92-45.52 37.04c15.79 15.09 28.06 33.83 35.31 54.89a136 136 0 0 1 7.58 38.01c-44.55-.32-86.73-10.46-124.55-28.31 6.42-11.68 14.32-22.15 23.37-31.07 15.73-15.92 34.86-27.41 55.66-34.09 5.2-20.99-4.75-43.4-24.97-53.16-20.29-9.76-44.04-3.53-57.14 13.67 7.77 20.42 10.66 42.63 8.15 64.84a139.265 139.265 0 0 1-9.82 37.49 298.713 298.713 0 0 1-99.77-79.67c10.79-7.7 22.41-13.67 34.35-17.85 21.06-7.45 43.4-9.5 65.03-6.48 13.8-16.63 14.51-41.22.58-58.74-14-17.53-38.13-22.34-57.39-12.52-1.93 21.76-8.92 43.08-20.86 61.95a137.537 137.537 0 0 1-25.04 29.53c-26.19-33.38-45.39-72.42-55.47-115.05 13.1-2.25 26.13-2.57 38.78-1.22 22.15 2.5 43.21 10.27 61.38 22.34 19.71-8.92 31.07-30.75 26.07-52.64-5.01-21.89-24.65-36.59-46.29-36.14-11.17 18.81-26.71 34.92-45.65 46.67-10.79 6.87-22.66 12.2-35.44 15.86-4.49-20.54-6.87-41.92-6.87-63.88s2.38-43.34 6.87-63.88c12.78 3.66 24.65 8.99 35.44 15.86 18.94 11.75 34.48 27.86 45.65 46.67 21.64.45 41.28-14.25 46.29-36.14 5.01-21.89-6.36-43.72-26.07-52.64-18.17 12.07-39.23 19.84-61.38 22.34a140.662 140.662 0 0 1-38.78-1.22c10.08-42.63 29.28-81.66 55.47-115.05 9.89 8.8 18.3 18.81 25.04 29.53 11.94 18.87 18.94 40.19 20.86 61.95 19.26 9.82 43.4 5.01 57.39-12.52 13.93-17.53 13.23-42.12-.58-58.74-21.64 3.02-43.98.96-65.03-6.48-11.94-4.17-23.56-10.14-34.35-17.85a298.49 298.49 0 0 1 99.77-79.67 138.53 138.53 0 0 1 9.82 37.49c2.5 22.21-.39 44.43-8.15 64.84 13.1 17.21 36.85 23.43 57.14 13.67 20.22-9.76 30.17-32.16 24.97-53.16-20.8-6.68-39.93-18.17-55.66-34.09-9.05-8.92-16.95-19.39-23.37-31.07 37.81-17.85 79.99-27.99 124.55-28.31a136 136 0 0 1-7.58 38.01c-7.25 21.06-19.52 39.8-35.31 54.89 4.37 21.12 23.11 37.04 45.52 37.04s41.15-15.92 45.52-37.04c-15.79-15.09-28.06-33.83-35.31-54.89a136 136 0 0 1-7.58-38.01c44.55.32 86.73 10.46 124.55 28.31-6.42 11.68-14.32 22.15-23.37 31.07-15.73 15.92-34.86 27.41-55.66 34.09-5.2 20.99 4.75 43.4 24.97 53.16 20.29 9.76 44.04 3.53 57.14-13.67-7.77-20.42-10.66-42.63-8.15-64.84 1.48-12.58 4.69-25.23 9.82-37.49a298.713 298.713 0 0 1 99.77 79.67c-10.79 7.7-22.41 13.67-34.35 17.85-21.06 7.45-43.4 9.5-65.03 6.48-13.8 16.63-14.51 41.22-.58 58.74 14 17.53 38.13 22.34 57.39 12.52 1.93-21.76 8.92-43.08 20.86-61.95a137.537 137.537 0 0 1 25.04-29.53c26.19 33.38 45.39 72.42 55.47 115.05-13.1 2.25-26.13 2.57-38.78 1.22-22.15-2.5-43.21-10.27-61.38-22.34-19.71 8.92-31.07 30.75-26.07 52.64 5.01 21.89 24.65 36.59 46.29 36.14 11.17-18.81 26.71-34.92 45.65-46.67 10.79-6.87 22.66-12.2 35.44-15.86 4.49 20.54 6.87 41.92 6.87 63.88s-2.38 43.33-6.87 63.88c-12.78-3.66-24.65-8.99-35.44-15.86-18.94-11.75-34.48-27.86-45.65-46.67-21.64-.45-41.28 14.25-46.29 36.14Zm-15.22-69.66c-16.11 1.67-28.7 15.34-28.7 31.91s12.65 30.3 28.83 31.91c2.12-10.21 3.27-20.8 3.27-31.65s-1.16-21.76-3.4-32.16Zm-28.76-61.5c-13.8 8.54-19.13 26.26-12.01 41.22 7.19 14.89 24.52 21.76 39.8 16.24-5.14-21.25-14.77-40.77-27.8-57.46Zm-52.52-42.95c-8.8 13.67-5.91 31.97 7.06 42.31 13.03 10.4 31.52 9.05 42.89-2.63a153.457 153.457 0 0 0-49.95-39.68Zm-66.06-15.79c-1.86 16.11 8.67 31.33 24.78 34.99 16.18 3.72 32.36-5.59 37.49-20.99-18.94-8.8-40.06-13.8-62.27-14Zm-4.11 0c-22.21.32-43.21 5.39-62.15 14.25 5.2 15.34 21.25 24.52 37.49 20.86 16.18-3.72 26.64-19 24.65-35.12Zm-65.87 16.05c-19.32 9.63-36.27 23.3-49.82 39.87 11.3 11.56 29.85 12.9 42.82 2.57 12.97-10.34 15.79-28.76 7-42.44Zm-52.39 43.14c-13.03 16.76-22.6 36.34-27.61 57.59 15.28 5.39 32.49-1.41 39.68-16.37 7.19-14.96 1.73-32.68-12.07-41.22Zm-28.57 61.57c-2.12 10.21-3.27 20.8-3.27 31.65s1.16 21.76 3.4 32.16c16.11-1.67 28.7-15.34 28.7-31.91s-12.65-30.3-28.83-31.91Zm40.9 84.1c-7.19-14.89-24.52-21.76-39.8-16.24 5.14 21.25 14.77 40.77 27.8 57.46 13.8-8.54 19.13-26.26 12.01-41.22Zm33.45 41.86c-13.03-10.4-31.52-9.05-42.89 2.63a153.457 153.457 0 0 0 49.95 39.68c8.8-13.67 5.91-31.97-7.06-42.31Zm48.34 23.11c-16.18-3.72-32.36 5.59-37.49 20.99 18.94 8.8 40.06 13.8 62.27 14 1.86-16.11-8.67-31.33-24.78-34.99Zm53.54-.13c-16.18 3.72-26.64 19-24.65 35.12 22.21-.32 43.21-5.39 62.15-14.25-5.2-15.34-21.25-24.52-37.49-20.86Zm48.21-23.37c-12.97 10.34-15.79 28.76-7 42.44 19.32-9.63 36.27-23.3 49.82-39.87-11.3-11.56-29.85-12.9-42.82-2.57ZM421.57 373c-7.19 14.96-1.73 32.68 12.07 41.22 13.03-16.76 22.6-36.34 27.61-57.59-15.28-5.39-32.49 1.41-39.68 16.37ZM313.01 216.67c-57.62 0-104.32 46.71-104.32 104.33s46.71 104.33 104.32 104.33S417.33 378.62 417.33 321s-46.71-104.33-104.32-104.33Z"></path><circle cx="313.02" cy="321" r="80.25"></circle></svg>