<svg width="642" viewBox="0 0 642 428" height="428" xmlns="http://www.w3.org/2000/svg"><path d="m321.001.884 308.269 207.92A28.92 28.92 0 0 1 642 232.754v195.06h-62.6V230.73c0-11.73-5.833-22.709-15.56-29.27L293.731 19.273l27.27-18.39Zm-104.763 70.66L428.642 214.81a28.92 28.92 0 0 1 12.73 23.95V427.81H313.115V233.122a35.303 35.303 0 0 0-15.56-29.27L158.828 110.26l57.41-38.716Zm-77.497 52.27 135.951 91.709a28.874 28.874 0 0 1 12.742 23.95v188.334H.004V232.759a28.878 28.878 0 0 1 12.73-23.95l126.007-84.994Zm134.9-90.99 267.355 180.325a28.92 28.92 0 0 1 12.731 23.95v190.707h-86.67V232.399a35.32 35.32 0 0 0-15.571-29.282L236.329 57.992l37.312-25.168Z"></path></svg>