<svg xmlns="http://www.w3.org/2000/svg" width="582.13" viewBox="0 0 582.13 642" height="642" data-name="Layer_1"><path d="M0 539.28V102.72C0 45.99 45.99 0 102.72 0h376.69c56.73 0 102.72 45.99 102.72 102.72v436.56c0 56.73-45.99 102.72-102.72 102.72H102.72C45.99 642 0 596.01 0 539.28Zm378.84-243.11c-3.97 7.15-11.6 11.99-20.36 11.99h-23.19 1.19l32.31 32.35c10.49 10.5 10.48 27.51-.01 38.01l-46.45 46.45c-3.94 3.94-9.72 6.02-15.94 4.84-6.91-1.31-12.56-6.96-13.87-13.87-1.18-6.22.91-12 4.84-15.94l38.78-38.78-53.06-53.06H14.77c-4.11 0-6.4 4.88-3.69 7.98 16.77 19.21 41.43 31.34 68.94 31.34 24.27 0 46.33-9.45 62.71-24.88h29.04c-17.4 12.53-28.74 32.95-28.74 56.04 0 16.59 5.85 31.81 15.6 43.71 9.85 11.93 15.76 27.22 15.76 43.9 0 13.79-4.05 26.64-11.02 37.43l92.08 92.09c4.65 4.65 11.49 7.12 18.84 5.72 8.17-1.55 14.85-8.23 16.39-16.39 1.39-7.35-1.07-14.19-5.72-18.84l-63.93-63.93c21.57-11.02 36.34-33.46 36.34-59.34h111.25l-81.55 81.55c-4.65 4.65-7.11 11.49-5.72 18.84 1.55 8.17 8.23 14.84 16.39 16.39 7.35 1.39 14.19-1.07 18.84-5.72l78.82-78.82V487l-73.33 73.33c-4.65 4.65-7.12 11.49-5.72 18.84 1.55 8.17 8.23 14.84 16.39 16.39 7.35 1.39 14.19-1.07 18.84-5.72l76.39-76.39a31.299 31.299 0 0 0 9.17-22.13v-53.65c22.68-9.91 38.52-32.54 38.52-58.87V260.03h34.35c3.63 6.65 11.22 10.82 19.6 9.33 7.32-1.3 13.34-7.24 14.72-14.54 1.23-6.5-.95-12.55-5.06-16.66l-63.61-63.61v-20.61c-19.68 13.37-35.96 31.35-47.27 52.41l-49.53 89.85Zm145.27-242.5-30.43-21.31c-4.75-3.27-11.24-2.12-14.57 2.57-3.27 4.75-2.12 11.23 2.57 14.57l8.86 6.23-141.05 197.86c-.9 1.22-1.41 2.76-1.41 4.43 0 4.17 3.4 7.64 7.58 7.64 2.57 0 4.82-1.28 6.23-3.21L503.13 64.46l9.05 6.36c1.8 1.28 3.85 1.86 5.97 1.86 3.27 0 6.48-1.54 8.54-4.43 3.27-4.75 2.18-11.24-2.57-14.57ZM284.19 154.48c1.95 13.83 13.85 24.48 28.22 24.48s26.26-10.64 28.21-24.48h-56.43Zm48.37-24.16a28.386 28.386 0 0 0-20.14-8.34c-14.37 0-26.26 10.64-28.21 24.48h54.8a4.01 4.01 0 0 0 2.83-6.85l-9.29-9.28ZM253.92 232.5c-5.81 5.81-9.4 13.83-9.4 22.7 0 17.73 14.37 32.1 32.1 32.1h51.36c7.09 0 12.84-5.75 12.84-12.84s-5.75-12.84-12.84-12.84h-51.36c-3.55 0-6.42-2.87-6.42-6.42s2.87-6.42 6.42-6.42h55.85c4.88 0 8.83-3.95 8.83-8.83v-25.08c0-15.96-12.94-28.89-28.89-28.89-8.43 0-16.02 3.61-21.3 9.38l-37.18 37.14Z"></path></svg>