<svg xmlns="http://www.w3.org/2000/svg" width="642" viewBox="0 0 642 642" height="642" style="overflow:visible;enable-background:new 0 0 642 642" xml:space="preserve"><circle cx="302.9" cy="62.6" r="17.7"></circle><circle cx="252.9" cy="71.1" r="17.7"></circle><circle cx="205.4" cy="89.2" r="17.7"></circle><circle cx="162.4" cy="116.2" r="17.7"></circle><circle cx="125.5" cy="151.1" r="17.7"></circle><circle cx="96.1" cy="192.5" r="17.7"></circle><circle cx="75.4" cy="238.8" r="17.7"></circle><circle cx="64.1" cy="288.3" r="17.7"></circle><circle cx="62.6" cy="339.1" r="17.7"></circle><circle cx="71.1" cy="389.1" r="17.7"></circle><circle cx="89.2" cy="436.6" r="17.7"></circle><circle cx="116.2" cy="479.6" r="17.7"></circle><circle cx="151.1" cy="516.5" r="17.7"></circle><circle cx="192.5" cy="545.9" r="17.7"></circle><circle cx="238.8" cy="566.6" r="17.7"></circle><circle cx="288.3" cy="577.9" r="17.7"></circle><circle cx="339.1" cy="579.4" r="17.7"></circle><circle cx="389.1" cy="570.9" r="17.7"></circle><circle cx="436.6" cy="552.8" r="17.7"></circle><circle cx="479.6" cy="525.8" r="17.7"></circle><circle cx="516.5" cy="490.9" r="17.7"></circle><circle cx="545.9" cy="449.5" r="17.7"></circle><circle cx="566.6" cy="403.2" r="17.7"></circle><circle cx="577.9" cy="353.7" r="17.7"></circle><circle cx="579.4" cy="302.9" r="17.7"></circle><circle cx="570.9" cy="252.9" r="17.7"></circle><circle cx="552.8" cy="205.4" r="17.7"></circle><circle cx="525.8" cy="162.4" r="17.7"></circle><circle cx="490.9" cy="125.5" r="17.7"></circle><circle cx="449.5" cy="96.1" r="17.7"></circle><circle cx="403.2" cy="75.4" r="17.7"></circle><circle cx="353.7" cy="64.1" r="17.7"></circle><circle cx="299.8" cy="17.7" r="17.7"></circle><circle cx="252.6" cy="24.7" r="17.7"></circle><circle cx="207.1" cy="39.1" r="17.7"></circle><circle cx="164.4" cy="60.4" r="17.7"></circle><circle cx="125.6" cy="88.1" r="17.7"></circle><circle cx="91.5" cy="121.5" r="17.7"></circle><circle cx="63.2" cy="159.9" r="17.7"></circle><circle cx="41.1" cy="202.2" r="17.7"></circle><circle cx="26" cy="247.4" r="17.7"></circle><circle cx="18.1" cy="294.5" r="17.7"></circle><circle cx="17.7" cy="342.2" r="17.7"></circle><circle cx="24.7" cy="389.4" r="17.7"></circle><circle cx="39.1" cy="434.9" r="17.7"></circle><circle cx="60.4" cy="477.6" r="17.7"></circle><circle cx="88.1" cy="516.4" r="17.7"></circle><circle cx="121.5" cy="550.5" r="17.7"></circle><circle cx="159.9" cy="578.8" r="17.7"></circle><circle cx="202.2" cy="600.9" r="17.7"></circle><circle cx="247.4" cy="616" r="17.7"></circle><circle cx="294.5" cy="623.9" r="17.7"></circle><circle cx="342.2" cy="624.3" r="17.7"></circle><circle cx="389.4" cy="617.3" r="17.7"></circle><circle cx="434.9" cy="602.9" r="17.7"></circle><circle cx="477.6" cy="581.6" r="17.7"></circle><circle cx="516.4" cy="553.9" r="17.7"></circle><circle cx="550.5" cy="520.5" r="17.7"></circle><circle cx="578.8" cy="482.1" r="17.7"></circle><circle cx="600.9" cy="439.8" r="17.7"></circle><circle cx="616" cy="394.6" r="17.7"></circle><circle cx="623.9" cy="347.5" r="17.7"></circle><circle cx="624.3" cy="299.8" r="17.7"></circle><circle cx="617.3" cy="252.6" r="17.7"></circle><circle cx="602.9" cy="207.1" r="17.7"></circle><circle cx="581.6" cy="164.4" r="17.7"></circle><circle cx="553.9" cy="125.6" r="17.7"></circle><circle cx="520.5" cy="91.5" r="17.7"></circle><circle cx="482.1" cy="63.2" r="17.7"></circle><circle cx="439.8" cy="41.1" r="17.7"></circle><circle cx="394.6" cy="26" r="17.7"></circle><circle cx="347.5" cy="18.1" r="17.7"></circle><circle cx="297.5" cy="153.7" r="17.7"></circle><circle cx="247" cy="169.2" r="17.7"></circle><circle cx="203.7" cy="199.5" r="17.7"></circle><circle cx="171.9" cy="241.7" r="17.7"></circle><circle cx="154.7" cy="291.7" r="17.7"></circle><circle cx="153.7" cy="344.5" r="17.7"></circle><circle cx="169.2" cy="395" r="17.7"></circle><circle cx="199.5" cy="438.3" r="17.7"></circle><circle cx="241.7" cy="470.1" r="17.7"></circle><circle cx="291.7" cy="487.3" r="17.7"></circle><circle cx="344.5" cy="488.3" r="17.7"></circle><circle cx="395" cy="472.8" r="17.7"></circle><circle cx="438.3" cy="442.5" r="17.7"></circle><circle cx="470.1" cy="400.3" r="17.7"></circle><circle cx="487.3" cy="350.3" r="17.7"></circle><circle cx="488.3" cy="297.5" r="17.7"></circle><circle cx="472.8" cy="247" r="17.7"></circle><circle cx="442.5" cy="203.7" r="17.7"></circle><circle cx="400.3" cy="171.9" r="17.7"></circle><circle cx="350.3" cy="154.7" r="17.7"></circle><circle cx="298.6" cy="108.2" r="17.7"></circle><circle cx="251.8" cy="118.5" r="17.7"></circle><circle cx="208.5" cy="139" r="17.7"></circle><circle cx="170.8" cy="168.6" r="17.7"></circle><circle cx="140.7" cy="205.8" r="17.7"></circle><circle cx="119.6" cy="248.8" r="17.7"></circle><circle cx="108.6" cy="295.5" r="17.7"></circle><circle cx="108.2" cy="343.4" r="17.7"></circle><circle cx="118.5" cy="390.2" r="17.7"></circle><circle cx="139" cy="433.5" r="17.7"></circle><circle cx="168.6" cy="471.2" r="17.7"></circle><circle cx="205.8" cy="501.3" r="17.7"></circle><circle cx="248.8" cy="522.4" r="17.7"></circle><circle cx="295.5" cy="533.4" r="17.7"></circle><circle cx="343.4" cy="533.8" r="17.7"></circle><circle cx="390.2" cy="523.5" r="17.7"></circle><circle cx="433.5" cy="503" r="17.7"></circle><circle cx="471.2" cy="473.4" r="17.7"></circle><circle cx="501.3" cy="436.2" r="17.7"></circle><circle cx="522.4" cy="393.2" r="17.7"></circle><circle cx="533.4" cy="346.5" r="17.7"></circle><circle cx="533.8" cy="298.6" r="17.7"></circle><circle cx="523.5" cy="251.8" r="17.7"></circle><circle cx="503" cy="208.5" r="17.7"></circle><circle cx="473.4" cy="170.8" r="17.7"></circle><circle cx="436.2" cy="140.7" r="17.7"></circle><circle cx="393.2" cy="119.6" r="17.7"></circle><circle cx="346.5" cy="108.6" r="17.7"></circle></svg>