<svg data-name="Layer 1" xmlns="http://www.w3.org/2000/svg" viewBox="0 0 476.94 604.51"><path d="M0 285.63v318.88h476.94V285.63L238.47 47.16 0 285.63Zm162.78-130.55 59.58 59.58-59.58 59.58-59.58-59.58 59.58-59.58Zm151.38 270.53-59.57-59.58 59.57-59.58 59.58 59.58-59.58 59.58Zm75.69-43.46 59.57 59.58-59.57 59.58-59.58-59.58 59.58-59.58ZM103.2 366.03l59.58-59.58 59.58 59.58-59.58 59.58-59.58-59.58Zm43.46 75.69L87.08 501.3 27.5 441.72l59.58-59.58 59.58 59.58Zm91.81-59.58 59.57 59.58-59.57 59.57-59.58-59.57 59.58-59.58Zm0-32.23-59.58-59.57 59.58-59.58 59.57 59.58-59.57 59.57ZM87.08 230.77l29.79 29.79 29.79 29.79-59.58 59.57-59.58-59.57 59.57-59.58Zm-64.29 87.09 48.18 48.18-48.18 48.18v-96.36Zm0 151.38 48.18 48.18-48.18 48.19v-96.36Zm16.12 112.48 48.18-48.18 48.19 48.18H38.91Zm64.3-64.3 59.58-59.58 59.58 59.58L162.79 577l-59.58-59.58Zm87.08 64.3 48.18-48.19 48.18 48.19h-96.37Zm64.3-64.3 59.57-59.58 59.58 59.58L314.16 577l-59.57-59.58Zm87.08 64.3 48.19-48.18 48.18 48.18h-96.37Zm112.48-16.12-48.18-48.19 48.18-48.18v96.36Zm0-151.38-48.18-48.18 48.18-48.18v96.36Zm-4.72-123.87-59.57 59.57-59.58-59.57 59.58-59.58 59.57 59.58Zm-75.69-75.69-59.58 59.58-59.57-59.58 59.57-59.58 59.58 59.58Zm-135.27-16.12-59.58-59.58 59.58-59.58 59.57 59.58-59.57 59.58Z"></path><path d="M429.25 190.78v-47.7h-47.7V95.39h-47.69v-47.7h-47.7V0h-95.38v47.69h-47.7v47.7H95.39v47.69h-47.7v47.7H0v69.83L238.47 22.14l238.47 238.47v-69.83h-47.69z"></path></svg>