<svg data-name="Layer 1" xmlns="http://www.w3.org/2000/svg" viewBox="0 0 618.45 618.45"><path d="M309.22 63.58c-135.45 0-245.65 110.2-245.65 245.65s110.2 245.64 245.65 245.64 245.65-110.19 245.65-245.64S444.67 63.58 309.22 63.58Zm-37.79 411.43c-75.64-17.23-132.29-85-132.29-165.79s56.64-148.55 132.29-165.79v331.58Zm75.57 0V143.44c75.64 17.24 132.29 85 132.29 165.79S422.65 457.78 347 475.02Z"></path><path d="M559.67 0H58.78C26.37 0 0 26.37 0 58.78v500.89c0 32.41 26.37 58.78 58.78 58.78h500.89c32.41 0 58.78-26.37 58.78-58.78V58.78C618.45 26.37 592.08 0 559.67 0Zm53.18 559.67c0 29.32-23.86 53.18-53.18 53.18H58.78c-29.32 0-53.18-23.86-53.18-53.18V58.78C5.6 29.46 29.46 5.6 58.78 5.6h500.89c29.32 0 53.18 23.86 53.18 53.18v500.89Z"></path></svg>