<svg xmlns="http://www.w3.org/2000/svg" width="602.2" viewBox="0 0 602.2 605.6" height="605.6" xml:space="preserve"><path d="M228.7 0h68.6v68.6h-68.6zM304.9 0h68.6v68.6h-68.6zM381.2 0h68.6v68.6h-68.6zM457.4 0H526v68.6h-68.6zM533.6 0h68.6v68.6h-68.6zM152.5 76.7h68.6v68.6h-68.6zM228.7 76.7h68.6v68.6h-68.6zM304.9 76.7h68.6v68.6h-68.6zM381.2 76.7h68.6v68.6h-68.6zM457.4 76.7H526v68.6h-68.6z"></path><g><path d="M76.2 153.4h68.6V222H76.2zM152.5 153.4h68.6V222h-68.6zM228.7 153.4h68.6V222h-68.6zM304.9 153.4h68.6V222h-68.6zM381.2 153.4h68.6V222h-68.6z"></path></g><g><path d="M0 230.1h68.6v68.6H0zM76.2 230.1h68.6v68.6H76.2zM152.5 230.1h68.6v68.6h-68.6zM228.7 230.1h68.6v68.6h-68.6zM304.9 230.1h68.6v68.6h-68.6z"></path></g><g><path d="M0 306.8h68.6v68.6H0zM76.2 306.8h68.6v68.6H76.2zM152.5 306.8h68.6v68.6h-68.6zM228.7 306.8h68.6v68.6h-68.6zM304.9 306.8h68.6v68.6h-68.6z"></path></g><g><path d="M76.2 383.5h68.6v68.6H76.2zM152.5 383.5h68.6v68.6h-68.6zM228.7 383.5h68.6v68.6h-68.6zM304.9 383.5h68.6v68.6h-68.6zM381.2 383.5h68.6v68.6h-68.6z"></path></g><g><path d="M152.5 460.2h68.6v68.6h-68.6zM228.7 460.2h68.6v68.6h-68.6zM304.9 460.2h68.6v68.6h-68.6zM381.2 460.2h68.6v68.6h-68.6zM457.4 460.2H526v68.6h-68.6z"></path></g><g><path d="M228.7 536.9h68.6v68.6h-68.6zM304.9 536.9h68.6v68.6h-68.6zM381.2 536.9h68.6v68.6h-68.6zM457.4 536.9H526v68.6h-68.6zM533.6 536.9h68.6v68.6h-68.6z"></path></g></svg>