<svg xmlns="http://www.w3.org/2000/svg" width="619.3" viewBox="0 0 619.3 627" height="627" xml:space="preserve" style="enable-background:new 0 0 619.3 627"><path d="M242.9 49.8c0 24.5 21.4 44.9 49.9 49.8V0c-28.5 4.8-49.9 25.3-49.9 49.8zM159.7 49.8c0 24.5 21.4 44.9 49.9 49.8V0c-28.5 4.8-49.9 25.3-49.9 49.8zM201 124.6c-23.2 0-42 18.8-42 42V292c0 23.2 18.8 42 42 42h.7V183.7h32v376.7c0 34.4 25.8 62.7 59.2 66.7V124.6H201zM83.9 49.8c0 24.5 21.4 44.9 49.9 49.8V0c-28.5 4.8-49.9 25.3-49.9 49.8zM42 124.6c-23.2 0-42 18.8-42 42V292c0 23.2 18.8 42 42 42h.7V183.7h32v376.7c0 34.4 25.8 62.7 59.2 66.7V124.6H42zM368.6 49.8c0-24.5-21.4-44.9-49.9-49.8v99.5c28.5-4.8 49.9-25.3 49.9-49.7zM452.8 49.8c0-24.5-21.4-44.9-49.9-49.8v99.5c28.4-4.8 49.9-25.3 49.9-49.7zM410.1 124.6h-91.3V627c33.3-4 59.2-32.3 59.2-66.7V183.7h31.5V334h.7c23.2 0 42-18.8 42-42V166.6c-.2-23.2-19-42-42.1-42z"></path><g><path d="M536 49.8c0-24.5-21.5-45-50-49.8v99.5c28.5-4.8 50-25.3 50-49.7zM577.4 124.6H486V627c33.3-4 59.2-32.3 59.2-66.7V183.7h31.5V334h.7c23.2 0 42-18.8 42-42V166.6c-.1-23.2-18.8-42-42-42z"></path></g></svg>