<svg data-name="Layer 1" xmlns="http://www.w3.org/2000/svg" viewBox="0 0 605.52 604.06"><path d="M302.76 153.66c68.1 0 136.19 44.08 147.58 132.31h154.82C589.33 95.37 446.05.01 302.76 0 159.47.01 16.19 95.37.36 285.96h154.82c11.38-88.23 79.48-132.31 147.58-132.31ZM605.4 295.61H.12C-4.64 462.73 135.4 605.52 302.76 604.05c167.36 1.47 307.4-141.32 302.64-308.44Zm-302.64 281.3c-43.84-.02-87.7-10.19-126.44-30.54h252.87c-38.74 20.35-82.6 30.52-126.44 30.54Zm143.69-40.19H159.07a285.878 285.878 0 0 1-39.04-28.93h365.46a286.494 286.494 0 0 1-39.04 28.93Zm49.41-38.58H109.67c-9.21-9.03-17.78-18.7-25.63-28.93h437.45a273.886 273.886 0 0 1-25.63 28.93Zm32.71-38.58H76.96c-6.5-9.28-12.45-18.94-17.8-28.93h171c21.74 12.59 47.17 18.89 72.6 18.89 25.43 0 50.86-6.3 72.6-18.89h171.01a283.72 283.72 0 0 1-17.8 28.93Zm22.74-38.58H390.35c4.12-3.02 8.09-6.23 11.87-9.64H203.31c3.78 3.42 7.75 6.63 11.87 9.64H54.21c-4.48-9.42-8.45-19.08-11.91-28.93h143.17c2.58 3.33 5.28 6.55 8.13 9.64h218.33c2.85-3.09 5.55-6.32 8.13-9.64h143.16c-3.46 9.85-7.43 19.52-11.91 28.93Zm15.12-38.58H426.94c2.05-3.14 4.01-6.35 5.82-9.64h-260c1.82 3.3 3.77 6.51 5.82 9.64H39.09c-2.89-9.5-5.24-19.17-7.15-28.93h131.94c1.23 3.27 2.59 6.49 4.04 9.64H437.6c1.45-3.16 2.81-6.37 4.04-9.64h131.94c-1.91 9.76-4.26 19.43-7.15 28.93Zm8.87-38.58H444.89c.95-3.17 1.78-6.39 2.52-9.64h-289.3c.74 3.26 1.57 6.47 2.52 9.64H30.22c-1.4-9.59-2.37-19.24-2.93-28.93h127.77c.3 3.24.68 6.46 1.18 9.64h293.05c.5-3.18.89-6.4 1.18-9.64h127.77c-.56 9.69-1.54 19.35-2.93 28.93Z"></path></svg>