<svg data-name="Layer 1" xmlns="http://www.w3.org/2000/svg" viewBox="0 0 610.52 542.87"><path d="M226.45 15.49c4.69-6.44.09-15.49-7.88-15.49H50.31C22.52 0 0 22.52 0 50.31v209.51h48.61L226.45 15.49ZM610.21 259.82V50.31C610.21 22.52 587.69 0 559.9 0H405.74c-16.65 0-32.78 5.84-45.57 16.51L68.37 259.82h541.84ZM.31 283.05v23.6h65.78l-17.17-23.6H.31zM68.68 283.05l28.29 23.6h513.55v-23.6H68.68zM.31 330.24v23.59h100.12l-17.17-23.59H.31zM153.56 353.83h456.96v-23.59H125.27l28.29 23.59zM.31 377.42v23.64h134.5l-17.2-23.64H.31zM210.2 401.06h400.32v-23.64H181.85l28.35 23.64zM.31 448.33h168.91l-17.21-23.64H.31v23.64zM266.89 448.33h343.63v-23.64H238.55l28.34 23.64zM186.42 471.96H.31v20.6c0 1.02.09 2.02.15 3.03h203.16l-17.2-23.64ZM323.59 495.6h286.78c.06-1.01.15-2.01.15-3.03v-20.6H295.24l28.35 23.64ZM220.82 519.24H8.02c8.9 14.18 24.63 23.64 42.6 23.64h168.26c7.97 0 12.57-9.04 7.88-15.49l-5.93-8.15ZM360.48 526.37c12.79 10.67 28.91 16.51 45.56 16.51h154.17c17.97 0 33.7-9.46 42.59-23.64H351.92l8.55 7.13Z"></path></svg>