<svg data-name="Layer 1" xmlns="http://www.w3.org/2000/svg" viewBox="0 0 611.91 625.17"><path d="m611.91 369.98-84.6-84.6c33.77-15.22 57.35-49.17 57.35-88.55 0-27.48-11.57-53.48-31.87-71.9.94-5.1 1.42-10.25 1.42-15.38 0-46.63-37.94-84.57-84.57-84.57-10.09 0-19.91 1.76-29.28 5.23C427.95 11.45 406.9 0 384.22 0c-30.6 0-57.24 20.95-64.99 49.89a53.485 53.485 0 0 0-19.91-3.86c-29.65 0-53.77 24.12-53.77 53.77 0 7.17 1.4 14.13 4.06 20.57L0 369.98h611.91ZM299.32 58.01c7.41 0 14.74 2.01 21.18 5.82l7.72 4.56 1.25-8.88c3.81-27.1 27.35-47.53 54.75-47.53 20.12 0 38.68 10.96 48.43 28.59l2.65 4.79 5.01-2.22c9.29-4.11 19.15-6.19 29.34-6.19 40.03 0 72.6 32.57 72.6 72.6 0 5.42-.62 10.88-1.85 16.25l-.82 3.56 2.79 2.35c19.27 16.24 30.32 39.97 30.32 65.12 0 36.15-22.66 67.09-54.52 79.41L356.71 114.78l-50.76 50.76-36.48-36.48c-7.71-7.86-11.96-18.22-11.96-29.25 0-23.05 18.75-41.8 41.8-41.8ZM39.6 409.57h532.71l7.65-7.65H31.94l7.66 7.65zM255.19 625.17l50.76-50.76 50.76 50.76 70.75-70.75H184.44l70.75 70.75zM81.55 451.53h448.8l15.32-15.32H66.24l15.31 15.32zM134.53 504.5h342.85L508 473.88H103.91l30.62 30.62zM178.47 548.45h254.96L467.88 514H144.02l34.45 34.45z"></path></svg>