<svg xmlns="http://www.w3.org/2000/svg" width="616.2" viewBox="0 0 616.2 569.9" height="569.9" style="enable-background:new 0 0 616.2 569.9" xml:space="preserve"><path d="m424.2 262.5 73-190.3c.2.2.4.4.6.5 10.4 10.4 20 21.8 28.6 33.8l-59.9 155.9h-42.3zm-92.2 0L364.2 0c13.3 2.8 26.2 6.6 38.6 11.3L372 262.5h-40zm-87.9 0L213.3 11.3C225.8 6.6 238.7 2.8 252 0l32.2 262.5h-40.1zm4.4 261.6v-53L39.8 262.5c0 74.1 30 141.2 78.6 189.7 35.1 35.1 79.9 60.6 130.1 71.9zm39.7-69.4v115.2c-77.2-4.9-146.6-38.2-198-89.6C34.5 424.5 0 347.5 0 262.5h96l192.2 192.2zm79.5 69.4v-53l208.7-208.7c0 74.1-30 141.2-78.6 189.7-35.1 35.2-79.9 60.7-130.1 72zM328 454.7v115.2c77.2-4.9 146.6-38.2 198-89.6 55.8-55.8 90.2-132.8 90.2-217.9h-96L328 454.7zM149.6 262.5l-59.9-156c8.6-12 18.2-23.4 28.6-33.8.2-.2.4-.4.6-.5l73 190.3h-42.3z"></path></svg>