<svg data-name="Layer 1" xmlns="http://www.w3.org/2000/svg" viewBox="0 0 622.28 591.82"><path d="m506.43 365.76 115.85-84.16-47.24-145.42h-143.2L387.59 0H234.68l-44.25 136.18H47.24L0 281.61l115.84 84.16-44.26 136.18 123.71 89.87 9.26-6.73 106.58-77.43 115.83 84.16 123.7-89.87-44.24-136.18Zm45.7-198.06 33.1 101.86-89.04 64.69-12.29-37.82 56.85-41.31-16.12-49.59H273.95l34.01-104.66h6.34l21.69 66.76 216.14.07Zm-241 215.28-76.72-55.74 29.31-90.19h94.83l29.31 90.19-76.72 55.75Zm87.55-246.82-39.78-.04-21.69-66.78h-52.14L207.6 307.75l-89.03-64.68 1.96-6.03h70.28l66.77-205.52h107.11l34 104.64ZM70.14 167.7h110.05l-12.29 37.82H97.63l-16.12 49.59 202.81 147.35-89.03 64.69-5.13-3.73 21.72-66.84L37.05 269.56l33.1-101.86Zm72.5 217.55 32.18 23.38-21.72 66.84 42.19 30.65L398.1 358.77l34.01 104.66-5.13 3.73-56.85-41.31L195.3 552.87l-86.65-62.95 34-104.66Zm195.3 102.93 32.18-23.38 56.85 41.31 42.19-30.65-77.47-238.42h110.04l1.96 6.03-56.84 41.3 66.76 205.52-86.65 62.95-89.02-64.68Z"></path></svg>