<svg data-name="Layer 1" xmlns="http://www.w3.org/2000/svg" viewBox="0 0 628 628"><path d="M628 314C628 140.58 487.42 0 314 0S0 140.58 0 314c0 159.46 118.89 291.06 272.85 311.23V427.31L73.78 261.12l1.09-.23 81.93-14.69 148.38 123.87.16 257.71c2.89.08 5.76.22 8.67.22s5.78-.14 8.67-.22l.16-257.71L471.22 246.2l81.93 14.69 1.09.23-199.07 166.19v197.92C509.13 605.06 628.02 473.46 628.02 314ZM255.49 435.59l-83.02 14.92-109.76-91.63-.17-83.24.03-1.11 192.92 161.05Zm49.86-88.12-64.66-53.88v-163.3l63.79-53.48.87-.69v271.36Zm82.14-53.88-64.66 53.43V76.13l.87.69 63.79 53.48v163.3Zm-14.97 142 192.92-161.05.03 1.11-.17 83.24-109.76 91.63-83.02-14.92Z"></path></svg>