<svg xmlns="http://www.w3.org/2000/svg" width="612.3" viewBox="0 0 612.3 608.6" height="608.6" xml:space="preserve"><path d="M239.2 292.5c-10.7 0-19.5 8.8-19.5 19.5v287.8c12.7 3.7 25.7 6.7 39 8.8V312c0-10.7-8.8-19.5-19.5-19.5z"></path><path d="M612.3 306.1C612.3 137.1 475.2 0 306.1 0 137.1 0 0 137.1 0 306.1c0 105.8 53.7 199.1 135.3 254.1V292.9c0-47.5 38.9-86.3 86.3-86.3s86.3 38.9 86.3 86.3c0-47.5 38.9-86.3 86.3-86.3s86.3 38.9 86.3 86.3v264.7c79.7-55.3 131.8-147.3 131.8-251.5zM219.7 188.3c-37.1 0-67.2-30.1-67.2-67.2s30.1-67.2 67.2-67.2 67.2 30.1 67.2 67.2-30.1 67.2-67.2 67.2zm174.6 0c-37.1 0-67.2-30.1-67.2-67.2s30.1-67.2 67.2-67.2 67.2 30.1 67.2 67.2-30 67.2-67.2 67.2z"></path><path d="M376.8 292.5c-10.7 0-19.5 8.8-19.5 19.5v295.9c13.3-2.2 26.3-5.3 39-9.2V312c0-10.7-8.7-19.5-19.5-19.5z"></path></svg>