<svg xmlns="http://www.w3.org/2000/svg" width="566.2" viewBox="0 0 566.2 614.3" height="614.3" xml:space="preserve"><path d="M188.6 531.1c28 33.4 62.2 61.7 100.8 83 .9.5 1.9.3 2.6-.5.6-.7.7-1.8.1-2.6-1.9-2.6-4.2-5.9-6.8-9.8-11.6-17.8-29.1-49-46.2-92.1-17.9 5.4-34.8 12.8-50.5 22zm241.8 0c-28 33.4-62.2 61.7-100.8 83-.9.5-1.9.3-2.6-.5-.6-.7-.7-1.8-.1-2.6 1.9-2.6 4.2-5.9 6.8-9.8 11.6-17.8 29.1-49 46.2-92.1 17.9 5.4 34.8 12.8 50.5 22zm-125.6-32.4c-20 .3-39.4 3.1-57.9 8.1 16.8 43 37.1 79.1 56.5 106.5.2.3.5.4.9.3.3-.1.5-.4.5-.7V498.7zm9.3 0c20 .3 39.4 3.1 57.9 8.1-16.8 43-37.1 79.1-56.5 106.5-.2.3-.5.4-.9.3-.3-.1-.5-.4-.5-.7V498.7zm-45.3 114.5c.6.1 1.2-.3 1.4-.9.2-.6 0-1.2-.6-1.5-33.6-19.9-63.5-45.4-88.7-75.1-14.2 9-27.3 19.4-39.2 31 13.5 9.2 32.9 18.9 53.6 27.1 13.2 5.2 27.2 9.6 39.1 12.4 14.7 3.7 27.2 5.9 34.4 7zm81.4 0c-.6.1-1.2-.3-1.4-.9-.2-.6 0-1.2.6-1.5 33.6-19.9 63.5-45.4 88.7-75.1 14.2 9 27.3 19.4 39.2 31-13.5 9.2-32.9 18.9-53.6 27.1-13.2 5.2-27.2 9.6-39.1 12.4-14.7 3.7-27.2 5.9-34.4 7zm-215.2-51c12.3-12.4 25.9-23.5 40.6-33-24.2-30.1-43.6-64.4-57-101.5-23.9 14.7-46 32.2-65.8 51.9 21.9 32.4 49.9 60.5 82.2 82.6zm349 0c-12.3-12.4-25.9-23.5-40.6-33 24.2-30.1 43.6-64.4 57-101.5 23.9 14.7 46 32.2 65.8 51.9-21.9 32.4-49.9 60.5-82.2 82.6zm-300.8-37.7c16.4-9.8 34.1-17.8 52.7-23.6-12.4-33.9-22.6-71.9-28.8-112.5-28.4 8.3-55.3 19.9-80.4 34.5 13.1 37 32.3 71.3 56.5 101.6zm252.6 0c-16.4-9.8-34.1-17.8-52.7-23.6 12.4-33.9 22.6-71.9 28.8-112.5 28.4 8.3 55.3 19.9 80.4 34.5-13.1 37-32.3 71.3-56.5 101.6zm-192-26c19.5-5.4 39.9-8.4 61-8.7V373.9c-31.1.3-61.2 4.6-90 12.3 6.1 40.8 16.4 78.6 29 112.3zm131.4 0c-19.5-5.4-39.9-8.4-61-8.7V373.9c31.1.3 61.2 4.6 90 12.3-6.1 40.8-16.5 78.6-29 112.3zM47.9 472.2a378.8 378.8 0 0 1 67.7-53c-11.2-33.9-17.5-70.2-17.9-107.8H-.1c1 59 18.4 114.1 48 160.8zm76-57.8c25.6-14.7 53-26.5 82-34.8-3-22.1-4.7-44.9-4.9-68.2h-93.9c.4 35.8 6.2 70.4 16.8 103zm89.8-37.1c29.2-7.7 59.7-12 91.2-12.3v-53.7h-95.7c.1 22.8 1.7 44.8 4.5 66zm0-140.3c29.2 7.7 59.7 12 91.2 12.3V303h-95.7c.1-22.8 1.7-44.8 4.5-66zM47.9 142.2a378.8 378.8 0 0 0 67.7 53c-11.2 33.9-17.5 70.2-17.9 107.8H0c.9-59.1 18.3-114.2 47.9-160.8zm76 57.8c25.6 14.7 53 26.5 82 34.8-3 22.1-4.7 44.9-4.9 68.2h-93.9c.4-35.9 6.2-70.5 16.8-103zm119.9-84.2c19.5 5.4 39.9 8.4 61 8.7v115.9c-31.1-.3-61.2-4.6-90-12.3 6.1-40.8 16.4-78.5 29-112.3zm131.4 0c-19.5 5.4-39.9 8.4-61 8.7v115.9c31.1-.3 61.2-4.6 90-12.3-6.1-40.8-16.5-78.5-29-112.3zm-192-25.9c16.4 9.8 34.1 17.8 52.7 23.6-12.4 33.9-22.6 71.9-28.8 112.5-28.4-8.3-55.3-19.9-80.4-34.5 13.1-37.1 32.3-71.4 56.5-101.6zm252.6 0c-16.4 9.8-34.1 17.8-52.7 23.6 12.4 33.9 22.6 71.9 28.8 112.5 28.4-8.3 55.3-19.9 80.4-34.5-13.1-37.1-32.3-71.4-56.5-101.6zM135 52.1c12.3 12.4 25.9 23.5 40.6 33-24.2 30.1-43.6 64.4-57 101.5-23.9-14.7-46-32.2-65.8-51.9 21.9-32.4 49.9-60.5 82.2-82.6zm349 0c-12.3 12.4-25.9 23.5-40.6 33 24.2 30.1 43.6 64.4 57 101.5 23.9-14.7 46-32.2 65.8-51.9-21.9-32.4-49.9-60.5-82.2-82.6zm-179.2 63.6c-20-.3-39.4-3.1-57.9-8.1 16.8-43 37.1-79.1 56.5-106.5.2-.3.5-.4.9-.3.3.1.5.4.5.7v114.2zm9.3 0c20-.3 39.4-3.1 57.9-8.1-16.8-43-37.1-79.1-56.5-106.5-.2-.3-.5-.4-.9-.3-.3.1-.5.4-.5.7v114.2zM188.6 83.3c28-33.4 62.2-61.7 100.8-83 .9-.5 1.9-.3 2.6.5.6.7.7 1.8.1 2.6-1.9 2.6-4.2 5.9-6.8 9.8-11.6 17.8-29.1 49-46.2 92.1-17.9-5.4-34.8-12.9-50.5-22zm241.8 0c-28-33.4-62.2-61.7-100.8-83-.9-.5-1.9-.3-2.6.5-.6.7-.7 1.8-.1 2.6 1.9 2.6 4.2 5.9 6.8 9.8 11.6 17.8 29.1 49 46.2 92.1 17.9-5.4 34.8-12.9 50.5-22zM268.8 1.1c.6-.1 1.2.3 1.4.9.2.6 0 1.2-.6 1.5-33.6 19.9-63.5 45.4-88.7 75.1-14.2-9-27.3-19.4-39.2-31 13.5-9.2 32.9-18.9 53.6-27.1 13.2-5.2 27.2-9.6 39.1-12.4 14.7-3.6 27.2-5.8 34.4-7zm81.4 0c-.6-.1-1.2.3-1.4.9-.2.6 0 1.2.6 1.5 33.6 19.9 63.5 45.4 88.7 75.1 14.2-9 27.3-19.4 39.2-31-13.5-9.2-32.9-18.9-53.6-27.1-13.2-5.2-27.2-9.6-39.1-12.4-14.7-3.6-27.2-5.8-34.4-7z" fill-rule="evenodd" clip-rule="evenodd"></path></svg>