<svg data-name="Layer 1" xmlns="http://www.w3.org/2000/svg" viewBox="0 0 585.61 584.98"><path d="M0 584.35h66.84L0 517.51v66.84z"></path><path d="m.63 518.14 66.84 66.84h.08L.63 518.06v.08zM0 448.33l67.83 67.83v-69.02L0 379.31v69.02zM68.82 517.15l67.83 67.83h69.02l-67.83-67.83H68.82zM207.02 517.15l67.83 67.83h69.02l-67.83-67.83h-69.02zM68.46 309.49.63 241.66V310.76l67.83 67.83v-69.1zM413.61 516.52h-69.02l.63.63h-.08l67.82 67.83h.09l-.63-.63h69.01l-67.82-67.83zM68.46 171.37l1.31 1.32v-.09l-1.31-1.31L.63 103.46V172.56l67.83 67.83v-69.02zM517.79 517.15H483.34l67.82 67.83h34.45v-34.65l-67.82-67.83v34.65zM517.79 413.32l67.82 67.83v-69.02l-67.82-67.83v69.02zM172.29 67.83h69.1L173.56 0H104.38l67.83 67.83h.08zM517.79 275.12v.09l67.82 67.82v-69.1l-67.82-67.82v69.01zM310.49 67.83h69.1L311.76 0H242.58l67.83 67.83h.08zM449.96 0H380.78l67.82 67.83H517.7l.09.08V137.01l67.82 67.82V135.65l-67.82-67.82L449.96 0zM519.06 0h-.08l66.63 66.64V0h-66.55zM69.77 379.99v-.09l-1.31-1.31v.08l1.31 1.32zM69.77 103.59v-.08l-1.31-1.32V67.83h34.65l1.31 1.31h.08l-1.31-1.31L35.36 0H.63V34.45l67.83 67.82 1.31 1.32z"></path></svg>