<svg xmlns="http://www.w3.org/2000/svg" width="611.2" viewBox="0 0 611.2 401.7" height="401.7" xml:space="preserve"><path d="M546.5 0H0v80.1h536.9c7.4 0 13.5 6.1 13.5 13.5s-6.1 13.5-13.5 13.5H64.7C29.1 107.2 0 136.3 0 171.9v57.9c0 35.6 29.1 64.7 64.7 64.7h472.2c7.4 0 13.5 6.1 13.5 13.5s-6.1 13.5-13.5 13.5H0v80.1h546.5c35.6 0 64.7-29.1 64.7-64.7V64.7c0-35.6-29.1-64.7-64.7-64.7zm-9.6 214.4H76c-7.4 0-13.5-6.1-13.5-13.5s6.1-13.5 13.5-13.5h460.8c7.4 0 13.5 6.1 13.5 13.5.1 7.4-6 13.5-13.4 13.5z"></path></svg>