<svg xmlns="http://www.w3.org/2000/svg" width="598.3" viewBox="0 0 598.3 598.5" height="598.5"><path d="M276.7 38.5c2.1 0 4.2-.3 6.1-1l10.5 10.8 6 6 16.3-16.8c1.9.6 4 1 6.1 1 10.6 0 19.2-8.7 19.2-19.3 0-10.6-8.7-19.2-19.3-19.2-10.6 0-19.2 8.7-19.2 19.3 0 2.3.4 4.5 1.2 6.6l-4.4 4.5-4.4-4.5c.8-2.1 1.2-4.3 1.2-6.6C296 8.7 287.4 0 276.8 0s-19.3 8.6-19.3 19.2 8.6 19.2 19.2 19.3z"></path><path d="M240.3 44.2c1.3-.2 2.5-.5 3.7-.9l44.4 44.4 10.7 10.8 55.2-55.2c1.2.4 2.4.7 3.7.9 10.5 1.5 20.2-5.9 21.7-16.4s-5.9-20.2-16.4-21.7C352.7 4.6 343 12 341.6 22.5c-.4 3.1-.1 6.2.9 9l-43.3 43.3-43.3-43.3c1-2.8 1.3-5.8.9-9C255.3 12 245.6 4.6 235 6.1c-10.5 1.5-17.9 11.2-16.4 21.7s11.2 17.9 21.7 16.4z"></path><path d="M205.1 55c.4-.1.7-.2 1-.4l81.7 81.7 11.2 11.3 93-93c.3.1.7.3 1 .4 10.2 2.9 20.9-3 23.8-13.2 2.9-10.2-3-20.9-13.2-23.8-10.2-2.9-20.9 3-23.8 13.2-1.1 4-.9 8 .3 11.6l-81 81.2L218 42.8c1.3-3.6 1.5-7.7.3-11.6-2.9-10.2-13.6-16.1-23.8-13.2-10.2 2.9-16.1 13.6-13.2 23.8 3 10.2 13.6 16.1 23.8 13.2zM45.1 416.8c8.9-4.3 13-14.6 9.8-23.7l93.9-93.9-93.9-93.9c3.2-9.1-.9-19.4-9.8-23.7-9.6-4.6-21.1-.6-25.7 9-4.6 9.6-.6 21.1 9 25.7 4.8 2.3 10 2.4 14.7.8l82 82-82 82c-4.6-1.6-9.9-1.5-14.7.8-9.6 4.6-13.6 16.1-9 25.7 4.6 9.7 16.1 13.8 25.7 9.2z"></path><path d="M31.1 380c10.1-3.2 15.7-14 12.5-24.1-.1-.2-.1-.3-.2-.5l56.1-56.1-56.1-56.1c.1-.2.1-.3.2-.5 3.2-10.1-2.4-20.9-12.5-24.1-10.1-3.3-20.9 2.3-24.2 12.4-3.2 10.1 2.4 20.9 12.5 24.1 4.1 1.3 8.3 1.1 12.1-.2l44.2 44.2-44.2 44.2c-3.8-1.3-8-1.5-12.1-.2-10.1 3.2-15.7 14-12.5 24.1 3.3 10.4 14.1 16 24.2 12.8z"></path><path d="M22.4 341.5c10.5-1.8 17.5-11.7 15.8-22.1-.2-1.1-.5-2.1-.8-3.1l17-17-17-17c.4-1 .6-2.1.8-3.1 1.8-10.5-5.3-20.4-15.8-22.1C11.9 255.3 2 262.4.3 272.9c-1.8 10.5 5.3 20.4 15.8 22.1 3.3.6 6.6.2 9.5-.8l5.2 5.2-5.2 5.2c-3-1-6.2-1.4-9.5-.8C5.6 305.6-1.4 315.5.3 325.9c1.7 10.3 11.6 17.4 22.1 15.6zM321.6 560c-2.1 0-4.2.3-6.1 1L305 550.2l-6-6-16.2 16.8c-1.9-.6-4-1-6.1-1-10.6 0-19.2 8.7-19.2 19.3 0 10.6 8.7 19.2 19.3 19.2 10.6 0 19.2-8.7 19.2-19.3 0-2.3-.4-4.5-1.2-6.6l4.4-4.5 4.4 4.5c-.8 2.1-1.2 4.3-1.2 6.6 0 10.6 8.6 19.3 19.2 19.3s19.3-8.6 19.3-19.2c-.1-10.6-8.7-19.3-19.3-19.3z"></path><path d="M358 554.3c-1.3.2-2.5.5-3.7.9l-44.4-44.4-10.7-10.8-55.2 55.2c-1.2-.4-2.4-.7-3.7-.9-10.5-1.5-20.2 5.9-21.7 16.4-1.5 10.5 5.9 20.2 16.4 21.7 10.5 1.5 20.2-5.9 21.7-16.4.4-3.1.1-6.2-.9-9l43.3-43.3 43.3 43.3c-1 2.8-1.3 5.8-.9 9 1.5 10.5 11.2 17.9 21.7 16.4s17.9-11.2 16.4-21.7c-1.4-10.5-11.1-17.9-21.6-16.4z"></path><path d="M393.2 543.5c-.4.1-.7.2-1 .4l-81.7-81.7-11.2-11.3-93 93c-.3-.1-.7-.3-1-.4-10.2-2.9-20.9 3-23.8 13.2-2.9 10.2 3 20.9 13.2 23.8 10.2 2.9 20.9-3 23.8-13.2 1.1-4 .9-8-.3-11.6l81.2-81.2 81.2 81.2c-1.3 3.6-1.5 7.7-.3 11.6 2.9 10.2 13.6 16.1 23.8 13.2 10.2-2.9 16.1-13.6 13.2-23.8-3.3-10.2-13.9-16.1-24.1-13.2z"></path><path d="M555.6 419.3c-5.2-3.5-11.5-4.1-17-2.1l-117.9-118 117.9-117.9c5.5 1.9 11.8 1.3 17-2.1 8.8-5.9 11.2-17.8 5.3-26.7-5.9-8.8-17.8-11.2-26.7-5.3-7.5 5-10.3 14.2-7.5 22.3L414.6 281.7c-1.3-8.5-3.5-16.7-6.5-24.5l109-109c6.4 2.2 13.8 1 19.2-3.8 7.9-7.1 8.6-19.2 1.5-27.2-7.1-7.9-19.2-8.6-27.2-1.5-6 5.3-7.8 13.6-5.3 20.7L400.5 241.2c-3.8-6.7-8.3-13-13.4-18.7l104-104c7.3 2.5 15.7.5 21-5.7 6.9-8.1 5.8-20.3-2.3-27.1-8.1-6.9-20.3-5.8-27.1 2.3-4.5 5.4-5.6 12.5-3.4 18.7l-104.1 104c-5.8-5-12.1-9.4-18.9-13.2L461.2 92.6c8.3 2.9 17.8-.2 22.6-7.9 5.6-9 2.9-20.9-6.1-26.5-9-5.6-20.9-2.9-26.5 6.1-3.2 5.1-3.7 11.2-1.9 16.6l-109 109c-7.9-3-16.1-5.1-24.7-6.3L428 71.2c9.3 3.3 19.8-1.1 23.9-10.3 4.3-9.7 0-21.1-9.7-25.4-9.7-4.3-21.1 0-25.4 9.7-2.1 4.7-2.1 9.7-.6 14.2l-117.1 117-117-117c1.6-4.5 1.5-9.5-.6-14.2-4.3-9.7-15.7-14.1-25.4-9.7-9.7 4.3-14.1 15.7-9.7 25.4 4.1 9.2 14.6 13.6 23.9 10.3l112.4 112.4c-8.6 1.2-16.8 3.3-24.7 6.3L148.9 80.8c1.9-5.3 1.4-11.4-1.9-16.6-5.6-9-17.5-11.7-26.5-6.1s-11.7 17.5-6.1 26.5c4.9 7.8 14.3 10.8 22.6 7.9l104.8 104.8c-6.7 3.8-13 8.2-18.9 13.2l-104-104c2.2-6.2 1.1-13.3-3.4-18.7-6.9-8.1-19-9.1-27.1-2.3-8.1 6.9-9.1 19-2.3 27.1 5.3 6.3 13.7 8.3 21 5.7l104 104c-5 5.8-9.5 12-13.4 18.7L93.1 136.4c2.5-7.1.6-15.3-5.3-20.7-7.9-7.1-20.1-6.4-27.2 1.5-7.1 7.9-6.4 20.1 1.5 27.2 5.4 4.8 12.8 6 19.2 3.8l108.9 108.9c-3 7.8-5.2 16-6.5 24.5L71.5 169.5c2.8-8.1 0-17.4-7.5-22.3-8.8-5.9-20.8-3.5-26.7 5.3-5.9 8.8-3.5 20.8 5.3 26.7 5.2 3.5 11.5 4.1 17 2.1l117.9 117.9L59.7 417.1c-5.5-1.9-11.8-1.3-17 2.1-8.8 5.9-11.2 17.8-5.3 26.7 5.9 8.8 17.8 11.2 26.7 5.3 7.5-5 10.3-14.2 7.5-22.3l112.1-112.1c1.3 8.5 3.5 16.7 6.5 24.5L81.3 450.2c-6.4-2.2-13.8-1-19.2 3.8-7.9 7.1-8.6 19.2-1.5 27.2 7.1 7.9 19.2 8.6 27.2 1.5 6-5.3 7.8-13.6 5.3-20.7l104.8-104.8c3.8 6.7 8.3 13 13.4 18.7l-104 104c-7.3-2.5-15.7-.5-21 5.7-6.9 8.1-5.8 20.3 2.3 27.1 8.1 6.9 20.3 5.8 27.1-2.3 4.5-5.4 5.6-12.5 3.4-18.7l104-104c5.8 5 12.1 9.4 18.9 13.2l-104.9 105c-8.3-2.9-17.8.2-22.6 7.9-5.6 9-2.9 20.9 6.1 26.5 9 5.6 20.9 2.9 26.5-6.1 3.2-5.1 3.7-11.2 1.9-16.6l109-109c7.9 3 16.1 5.1 24.7 6.3L170.3 527.3c-9.3-3.3-19.8 1.1-23.9 10.3-4.3 9.7 0 21.1 9.7 25.4 9.7 4.3 21.1 0 25.4-9.7 2.1-4.7 2.1-9.7.6-14.2L299.2 422l117.1 117.1c-1.6 4.5-1.5 9.5.6 14.2 4.3 9.7 15.7 14.1 25.4 9.7 9.7-4.3 14.1-15.7 9.7-25.4-4.1-9.2-14.6-13.6-23.9-10.3L315.6 414.8c8.6-1.2 16.8-3.3 24.7-6.3l109.1 109.1c-1.9 5.3-1.4 11.4 1.9 16.6 5.6 9 17.5 11.7 26.5 6.1s11.7-17.5 6.1-26.5c-4.9-7.8-14.3-10.8-22.6-7.9L356.4 401c6.7-3.8 13-8.2 18.9-13.2l104.1 104.1c-2.2 6.2-1.1 13.3 3.4 18.7 6.9 8.1 19 9.1 27.1 2.3 8.1-6.9 9.1-19 2.3-27.1-5.3-6.3-13.7-8.3-21-5.7l-104-104c5-5.8 9.5-12 13.4-18.7L505.2 462c-2.5 7.1-.6 15.3 5.3 20.7 7.9 7.1 20.1 6.4 27.2-1.5 7.1-7.9 6.4-20.1-1.5-27.2-5.4-4.8-12.8-6-19.2-3.8l-109-109c3-7.8 5.2-16 6.5-24.5l112.1 112.1c-2.8 8.1 0 17.4 7.5 22.3 8.8 5.9 20.8 3.5 26.7-5.3 6-8.7 3.6-20.6-5.2-26.5z"></path><path d="M569.9 382.1c-4.8-2.3-10-2.4-14.7-.8l-82-82 82-82c4.6 1.6 9.9 1.5 14.7-.8 9.6-4.6 13.6-16.1 9-25.7-4.6-9.6-16.1-13.6-25.7-9-8.9 4.3-13 14.6-9.8 23.7l-93.9 93.9 93.9 93.9c-3.2 9.1.9 19.4 9.8 23.7 9.6 4.6 21.1.6 25.7-9 4.6-9.8.6-21.3-9-25.9z"></path><path d="M578.8 343.3c-4.1-1.3-8.3-1.1-12.1.2l-44.2-44.2 44.2-44.2c3.8 1.3 8 1.5 12.1.2 10.1-3.2 15.7-14 12.5-24.1-3.2-10.1-14-15.7-24.1-12.5-10.1 3.2-15.7 14-12.5 24.1.1.2.1.3.2.5l-56.1 56.1 56.1 56.1c-.1.2-.1.3-.2.5-3.2 10.1 2.4 20.9 12.5 24.1 10.1 3.2 20.9-2.4 24.1-12.5 3.3-10.3-2.4-21.1-12.5-24.3z"></path><path d="M582.2 303.6c-3.3-.6-6.6-.2-9.5.8l-5.2-5.2 5.2-5.2c3 1 6.2 1.4 9.5.8 10.5-1.8 17.5-11.7 15.8-22.1-1.8-10.5-11.7-17.5-22.1-15.8-10.5 1.8-17.5 11.7-15.8 22.1.2 1.1.5 2.1.8 3.1l-17 17 17 17c-.4 1-.6 2.1-.8 3.1-1.8 10.5 5.3 20.4 15.8 22.1 10.5 1.8 20.4-5.3 22.1-15.8 1.8-10.2-5.3-20.1-15.8-21.9z"></path></svg>