<svg data-name="Layer 1" xmlns="http://www.w3.org/2000/svg" viewBox="0 0 603.16 603.95"><path d="M113.43 482.69H60.44c.52.7 1.08 1.36 1.61 2.06h49.32l2.06-2.06ZM491.78 484.75h49.32c.53-.69 1.09-1.36 1.61-2.06h-52.99l2.06 2.06ZM555.67 139.23H47.49c-4.96 7.74-9.56 15.71-13.81 23.92h535.8c-4.25-8.2-8.86-16.18-13.81-23.92ZM595.37 233.61H7.79c-1.17 5.06-2.2 10.17-3.11 15.33h593.8a307.95 307.95 0 0 0-3.11-15.33ZM603.04 297.06H303.85l10.66 10.64h288.5c.04-2.04.15-4.07.15-6.12 0-1.52-.09-3.01-.11-4.52ZM299.31 297.06H.11c-.02 1.51-.11 3.01-.11 4.52 0 2.05.11 4.08.15 6.12h288.5l10.66-10.64ZM144.41 451.75H40.09c.54.95 1.08 1.9 1.63 2.84h99.84l2.84-2.84ZM461.59 454.59h99.85c.55-.94 1.09-1.89 1.63-2.84H458.75l2.84 2.84ZM601.01 266.11H2.15c-.47 4.04-.85 8.11-1.16 12.21h601.19c-.31-4.09-.69-8.16-1.16-12.21ZM586.48 202.68H16.68c-2.11 6.06-4.02 12.21-5.74 18.45h581.28c-1.72-6.23-3.64-12.38-5.74-18.45ZM573.47 170.95H29.68c-3.26 6.78-6.2 13.74-8.96 20.79h561.72c-2.76-7.05-5.7-14.01-8.96-20.79ZM268.33 327.99H1.22c.26 3.04.57 6.07.93 9.08h257.08l9.1-9.08ZM343.92 337.08H601c.35-3.02.66-6.04.93-9.08h-267.1l9.1 9.08ZM533.03 108.29H70.12c-7 8.38-13.56 17.14-19.64 26.25h502.18a299.784 299.784 0 0 0-19.64-26.25ZM237.35 358.93H5.52c.49 2.52 1.01 5.02 1.56 7.52h222.74l7.53-7.52ZM373.34 366.46h222.74c.55-2.5 1.07-5 1.56-7.52H365.81l7.53 7.52ZM402.75 395.83h185.3c.65-1.98 1.33-3.96 1.94-5.96h-193.2l5.97 5.96ZM206.37 389.87H13.17c.61 2 1.29 3.97 1.94 5.96H200.4l5.97-5.96ZM301.58 0c-76.67 0-146.62 28.66-199.83 75.79h399.66C448.2 28.66 378.25 0 301.58 0ZM175.39 420.81H24.53c.64 1.48 1.33 2.93 1.99 4.4h144.47l4.41-4.4ZM432.17 425.21h144.46c.66-1.47 1.35-2.92 1.99-4.4H427.76l4.41 4.4ZM503.21 77.35H99.95c-9.64 8.67-18.67 17.98-27.12 27.82h457.5c-8.45-9.83-17.48-19.15-27.12-27.82ZM94.51 521.51c11.25 10.63 23.29 20.42 36.07 29.24l149.36-149.17V603.1c7.16.51 14.35.86 21.64.86s14.48-.35 21.64-.86V401.58l149.36 149.17c12.78-8.81 24.82-18.61 36.07-29.24L301.58 314.7 94.51 521.51Z"></path></svg>