<svg data-name="Layer 1" xmlns="http://www.w3.org/2000/svg" viewBox="0 0 533.3 605.17"><path d="M56.91 236.66c31.41 0 56.91-25.46 56.91-56.91s-25.46-56.91-56.91-56.91S0 148.3 0 179.75s25.46 56.91 56.91 56.91ZM56.91 359.5c31.41 0 56.91-25.46 56.91-56.91s-25.46-56.91-56.91-56.91S0 271.13 0 302.58s25.46 56.91 56.91 56.91ZM56.91 368.5C25.51 368.5 0 393.97 0 425.42s25.46 56.91 56.91 56.91 56.91-25.46 56.91-56.91-25.46-56.91-56.91-56.91ZM266.65 122.88c-31.41 0-56.91 25.46-56.91 56.91s25.46 56.91 56.91 56.91 56.91-25.46 56.91-56.91-25.46-56.91-56.91-56.91Zm0 100.25c-23.91 0-43.38-19.47-43.38-43.38s19.47-43.38 43.38-43.38 43.38 19.47 43.38 43.38-19.47 43.38-43.38 43.38ZM266.65 113.83c31.41 0 56.91-25.46 56.91-56.91S298.1 0 266.65 0s-56.91 25.46-56.91 56.91 25.46 56.91 56.91 56.91ZM209.74 302.58c0 31.41 25.46 56.91 56.91 56.91s56.91-25.46 56.91-56.91-25.46-56.91-56.91-56.91-56.91 25.46-56.91 56.91ZM266.65 482.29c31.41 0 56.91-25.46 56.91-56.91s-25.46-56.91-56.91-56.91-56.91 25.46-56.91 56.91 25.46 56.91 56.91 56.91ZM266.65 491.34c-31.41 0-56.91 25.46-56.91 56.91s25.46 56.91 56.91 56.91 56.91-25.46 56.91-56.91-25.46-56.91-56.91-56.91ZM161.83 184.27c-31.41 0-56.91 25.46-56.91 56.91s25.46 56.91 56.91 56.91 56.91-25.46 56.91-56.91-25.46-56.91-56.91-56.91Zm0 100.25c-23.91 0-43.38-19.47-43.38-43.38s19.47-43.38 43.38-43.38 43.38 19.47 43.38 43.38-19.47 43.38-43.38 43.38ZM161.83 175.27c31.41 0 56.91-25.46 56.91-56.91s-25.46-56.91-56.91-56.91-56.91 25.46-56.91 56.91 25.46 56.91 56.91 56.91ZM161.83 420.89c31.41 0 56.91-25.46 56.91-56.91s-25.46-56.91-56.91-56.91-56.91 25.46-56.91 56.91 25.46 56.91 56.91 56.91Zm0-100.25c23.91 0 43.38 19.47 43.38 43.38s-19.47 43.38-43.38 43.38-43.38-19.47-43.38-43.38 19.47-43.38 43.38-43.38ZM161.83 429.9c-31.41 0-56.91 25.46-56.91 56.91s25.46 56.91 56.91 56.91 56.91-25.46 56.91-56.91-25.46-56.91-56.91-56.91Zm0 100.25c-23.91 0-43.38-19.47-43.38-43.38s19.47-43.38 43.38-43.38 43.38 19.47 43.38 43.38-19.47 43.38-43.38 43.38ZM476.39 368.5c-31.41 0-56.91 25.46-56.91 56.91s25.46 56.91 56.91 56.91 56.91-25.46 56.91-56.91-25.46-56.91-56.91-56.91ZM476.39 245.67c-31.41 0-56.91 25.46-56.91 56.91s25.46 56.91 56.91 56.91 56.91-25.46 56.91-56.91-25.46-56.91-56.91-56.91ZM476.39 236.66c31.41 0 56.91-25.46 56.91-56.91s-25.46-56.91-56.91-56.91-56.91 25.46-56.91 56.91 25.46 56.91 56.91 56.91ZM371.48 420.89c31.41 0 56.91-25.46 56.91-56.91s-25.46-56.91-56.91-56.91-56.91 25.46-56.91 56.91 25.46 56.91 56.91 56.91Zm0-100.25c23.91 0 43.38 19.47 43.38 43.38s-19.47 43.38-43.38 43.38-43.38-19.47-43.38-43.38 19.47-43.38 43.38-43.38ZM371.48 429.9c-31.41 0-56.91 25.46-56.91 56.91s25.46 56.91 56.91 56.91 56.91-25.46 56.91-56.91-25.46-56.91-56.91-56.91Zm0 100.25c-23.91 0-43.38-19.47-43.38-43.38s19.47-43.38 43.38-43.38 43.38 19.47 43.38 43.38-19.47 43.38-43.38 43.38ZM371.48 184.27c-31.41 0-56.91 25.46-56.91 56.91s25.46 56.91 56.91 56.91 56.91-25.46 56.91-56.91-25.46-56.91-56.91-56.91Zm0 100.25c-23.91 0-43.38-19.47-43.38-43.38s19.47-43.38 43.38-43.38 43.38 19.47 43.38 43.38-19.47 43.38-43.38 43.38ZM371.48 175.27c31.41 0 56.91-25.46 56.91-56.91s-25.46-56.91-56.91-56.91-56.91 25.46-56.91 56.91 25.46 56.91 56.91 56.91Z"></path></svg>