<svg data-name="Layer 1" xmlns="http://www.w3.org/2000/svg" viewBox="0 0 624.97 624.97"><path d="M624.97 0H467.65l-61.49 61.49V0H218.81v61.49L157.32 0H0v157.32l61.49 61.49H0v187.35h61.49L0 467.65v157.32h157.32l61.49-61.49v61.49h187.35v-61.49l61.49 61.49h157.32V467.65l-61.49-61.49h61.49V218.81h-61.49l61.49-61.49V0ZM226.5 539.18H85.79V398.47H226.5v140.71Zm0-156.34H85.79V242.13H226.5v140.71Zm0-156.34H85.79V85.79H226.5V226.5Zm156.34 312.68H242.13V398.47h140.71v140.71Zm0-156.34H242.13V242.13h140.71v140.71Zm0-156.34H242.13V85.79h140.71V226.5Zm156.34 312.68H398.47V398.47h140.71v140.71Zm0-156.34H398.47V242.13h140.71v140.71Zm0-156.34H398.47V85.79h140.71V226.5Z"></path></svg>