<svg width="642" viewBox="0 0 642 630" height="630" xml:space="preserve" style="enable-background:new 0 0 582.8 582.8"><path d="M524 596.225c-46.866 0-85-38.134-85-85.065V372.283c26.803-3.762 50.698-16.454 68.565-35.066v83.646c-13.938 6.285-23.657 20.274-23.657 36.562 0 22.162 17.963 40.125 40.125 40.125 22.161 0 40.125-17.963 40.125-40.125 0-16.288-9.72-30.277-23.658-36.562v-83.64c17.886 18.631 41.8 31.33 68.63 35.08V511.16c0 46.93-38.2 85.065-85.13 85.065Zm-203 0c-46.93 0-85.065-38.134-85.065-85.065V372.283c26.823-3.75 50.737-16.454 68.617-35.085v83.659c-13.95 6.285-23.677 20.274-23.677 36.568 0 22.162 17.963 40.125 40.125 40.125s40.125-17.963 40.125-40.125c0-16.294-9.726-30.283-23.67-36.568v-83.66c17.873 18.632 41.787 31.337 68.61 35.086V511.16c0 46.93-38.135 85.065-85.065 85.065Zm-203 0c-46.93 0-85.13-38.134-85.13-85.065V372.302c26.83-3.75 50.744-16.448 68.63-35.079v83.64c-13.938 6.285-23.657 20.274-23.657 36.562 0 22.162 17.963 40.125 40.124 40.125 22.162 0 40.126-17.963 40.126-40.125 0-16.288-9.72-30.277-23.658-36.562v-83.646c17.88 18.624 41.794 31.323 68.623 35.072L203 511.16c0 46.93-38.134 85.065-85 85.065Zm16.435-479.381c26.823-3.71 50.737-16.525 68.597-35.175v83.588c-13.944 6.285-23.67 20.281-23.67 36.575 0 22.155 17.963 40.125 40.125 40.125 22.155 0 40.125-17.97 40.125-40.125 0-16.294-9.733-30.29-23.677-36.575V81.662c17.867 18.638 41.781 31.433 68.617 35.182v138.755c0 46.905-38.167 85.065-85.065 85.065-46.795 0-84.879-37.993-85.052-84.75v-139.07Zm271.63-35.15v83.563c-13.944 6.285-23.67 20.281-23.67 36.575 0 22.155 17.963 40.125 40.124 40.125 22.156 0 40.125-17.97 40.125-40.125 0-16.294-9.732-30.29-23.677-36.575V81.67c17.86 18.65 41.775 31.464 68.598 35.175v139.07c-.173 46.757-38.25 84.75-85.046 84.75-46.904 0-85.065-38.16-85.065-85.065V116.844c26.817-3.743 50.725-16.531 68.611-35.15ZM540.5 255.58V83.46C486.777 93.815 439 52.567 439 0h-32.935c0 46.93-38.135 85.065-85.065 85.065S235.935 46.93 235.935 0H203c0 52.586-47.79 93.809-101.5 83.46v172.12c0 52.734-47.976 93.777-101.5 83.46v172.12c0 65.163 52.837 118 118 118 43.142 0 80.956-23.24 101.436-57.908.012-.02.019-.039.032-.058.013.02.019.038.032.058 20.48 34.668 58.293 57.908 101.5 57.908s81.02-23.24 101.5-57.908c.013-.02.02-.039.032-.058.013.02.02.038.032.058C443.044 605.92 480.858 629.16 524 629.16c65.163 0 118-52.837 118-118V339.04c-53.46 10.304-101.5-30.668-101.5-83.46Z"></path></svg>