<svg data-name="Layer 1" xmlns="http://www.w3.org/2000/svg" viewBox="0 0 595.17 595.17"><path d="M303.29 161.71c-1.91-.08-3.81-.09-5.7-.09-72.52-.05-132.81 57.14-135.87 130.27-.08 1.91-.09 3.81-.09 5.7-.05 72.52 57.14 132.81 130.27 135.87 1.91.08 3.81.09 5.7.09 72.52.05 132.81-57.14 135.87-130.27.08-1.91.09-3.81.09-5.7.05-72.52-57.14-132.81-130.27-135.87Zm22.19 137.04c-.63 15.01-13.01 26.72-27.89 26.71-.39 0-.78.03-1.17 0-15.01-.63-26.72-13.01-26.71-27.89 0-.39-.03-.78 0-1.17.63-15.01 13.01-26.72 27.89-26.71.39 0 .78-.03 1.17 0 15.01.63 26.72 13.01 26.71 27.89 0 .39.03.78 0 1.17Z"></path><path d="m595.17 297.84-.61-.25-147.08-61.5L509.24 88.4l-149.9 61.5L297.84 0l-.25.61-61.5 147.08L88.4 85.93l61.5 149.9L0 297.33l.61.25 147.08 61.5-61.76 147.69 149.9-61.5 61.5 149.9.25-.61 61.5-147.08 147.69 61.76-61.5-149.9 149.9-61.5ZM297.58 451.92c-2.15 0-4.3-.02-6.47-.11-83.01-3.48-147.92-71.91-147.86-154.22 0-2.15.02-4.3.11-6.47 3.48-83.01 71.91-147.92 154.22-147.86 2.15 0 4.3.02 6.47.11 83.01 3.48 147.92 71.91 147.86 154.22 0 2.15-.02 4.3-.11 6.47-3.48 83.01-71.91 147.92-154.22 147.86Z"></path></svg>