<svg data-name="Layer 1" xmlns="http://www.w3.org/2000/svg" viewBox="0 0 605.36 550.98"><path d="M529.1 275.49c0-11.54-.62-25.09-2.13-38.91l78.39-5.72c-1.56-6.66-4.68-15.4-4.68-15.4-17.77-51.61-59.1-93.2-109.94-111.92C438.11 37.68 359.88 0 275.49 0 123.59 0 0 123.58 0 275.49s123.59 275.49 275.49 275.49c84.38 0 162.62-37.68 215.25-103.53 50.84-18.72 92.11-60.02 109.88-111.63 0 0 3.26-9.32 4.74-15.69l-78.39-5.72c1.51-13.82 2.13-27.37 2.13-38.91Zm-25.07 0c0 13.84-.77 26.17-2.01 37.09l-38.56-2.82c-1.05-10.21-1.68-21.63-1.68-34.28s.63-24.07 1.68-34.28l38.56-2.82c1.24 10.92 2.01 23.25 2.01 37.09Zm-6.07 61.93c-3.3 14.85-7.41 25.2-10.88 30.95-1.89 3.14-6.46 3.14-8.35 0-3.64-6.04-7.98-17.13-11.36-33.19l30.59 2.23Zm-333.35-13.81c-17.03-18.97-37.33-35.29-59.8-48.13 22.47-12.84 42.77-29.16 59.8-48.13l-.02 35.67 273.6-19.98c-1.04 11.54-1.49 22.71-1.49 32.43s.45 20.89 1.49 32.43l-273.6-19.98.02 35.67Zm302.76-107.83c3.38-16.06 7.72-27.15 11.36-33.19 1.89-3.14 6.46-3.14 8.35 0 3.47 5.75 7.57 16.1 10.88 30.95l-30.59 2.23Zm102.77 126.9c-17.95 38.35-51.05 68.52-91.09 82.31l-3.53 1.21-2.29 2.94c-47.85 61.49-119.93 96.76-197.75 96.76-136.21 0-247.29-109.33-250.28-244.83-.08-3.73-.08-7.45 0-11.18 3-135.49 114.08-244.82 250.29-244.82 77.82 0 149.9 35.27 197.75 96.76l2.29 2.94 3.53 1.21c40.04 13.79 73.14 43.96 91.09 82.31l-46.94 3.43c-6.34-31.9-18.57-59.39-40.3-59.39-23.07 0-35.43 31-41.4 65.35l-251.82 18.39.03-88.66c-8.93 18.59-20.22 36.03-33.44 51.85C127.26 234 88.85 260.54 46.17 275.5c42.68 14.96 81.09 41.49 110.11 76.24 13.22 15.82 24.5 33.27 33.44 51.85l-.03-88.66 251.82 18.39c5.97 34.36 18.33 65.35 41.4 65.35 21.73 0 33.96-27.49 40.3-59.39l46.94 3.43Z"></path></svg>