<svg xmlns="http://www.w3.org/2000/svg" width="617.4" viewBox="0 0 617.4 603.8" height="603.8" xml:space="preserve" style="enable-background:new 0 0 617.4 603.8"><path d="M438.5 0h-.1c-47.5 0-90.6 20.8-119.9 53.9L259 9.9H0v593.9h159.6c79.7 0 144.3-64.6 144.3-144.3v-49.9c-28.8 28.3-67.6 44.1-107.6 44.1-9.6 0-19.2-.9-28.8-2.8-53.5-10.3-97.7-48.7-115.6-100.3l-.2-.5.4-.4c35.8-41.1 91.2-60.3 144.6-49.9 31.8 6.1 60.3 22.2 81.9 45.1-25.3-28.6-39.9-65.9-39.9-105 0-56.4 30.4-109 79.3-137.3l.5-.3.5.3c48.9 28.3 79.3 80.9 79.3 137.3 0 39.1-14.6 76.4-39.9 105 21.7-22.9 50.2-39 82-45.1 53.4-10.3 108.8 8.8 144.6 49.9l.4.4-.2.5c-17.8 51.5-62.1 89.9-115.5 100.3-9.6 1.9-19.2 2.8-28.8 2.8-40 0-78.9-15.8-107.7-44.2v50.1c0 79.7 64.6 144.3 144.3 144.3h140.2V179C617.4 80.1 537.3 0 438.5 0z"></path></svg>