<svg xmlns="http://www.w3.org/2000/svg" id="a" width="642" viewBox="0 0 642 642" height="642" data-name="Layer 1"><defs></defs><path d="M0 158.09h12.84V483.9H0zM20.06 158.09H32.9V483.9H20.06zM40.12 158.09h12.84V483.9H40.12zM60.19 158.09h12.84V483.9H60.19zM80.25 158.09h12.84V483.9H80.25zM105.93 158.09h12.84V483.9h-12.84zM125.99 158.09h12.84V483.9h-12.84zM146.06 158.09h12.84V483.9h-12.84zM166.12 158.09h12.84V483.9h-12.84zM186.18 158.09h12.84V483.9h-12.84zM211.86 158.09h12.84V483.9h-12.84zM231.92 158.09h12.84V483.9h-12.84zM251.99 158.09h12.84V483.9h-12.84zM272.05 158.09h12.84V483.9h-12.84zM292.11 158.09h12.84V483.9h-12.84zM327.42 158.09h12.84V642h-12.84zM347.48 158.09h12.84V642h-12.84zM367.55 158.09h12.84V642h-12.84zM387.61 158.09h12.84V642h-12.84zM407.67 158.09h12.84V642h-12.84zM433.35 158.09h12.84V483.9h-12.84zM453.41 158.09h12.84V483.9h-12.84zM473.48 158.09h12.84V483.9h-12.84zM493.54 158.09h12.84V483.9h-12.84zM513.6 158.09h12.84V483.9H513.6zM548.91 0h12.84v483.91h-12.84zM568.97 0h12.84v483.91h-12.84zM589.03 0h12.84v483.91h-12.84zM609.1 0h12.84v483.91H609.1zM629.16 0H642v483.91h-12.84z" class="b"></path></svg>