<svg xmlns="http://www.w3.org/2000/svg" width="617.8" viewBox="0 0 617.8 624.1" height="624.1" xml:space="preserve" style="enable-background:new 0 0 617.8 624.1"><path d="M44.1 284.6c20.6 14 43.4 16.5 67.5 15.7h62.1V199c.4-26 2.1-52-21.1-72.8 27.4 3.4 44.1 22.5 44.3 48.7.3 37.3.2 125.4.2 125.4h223.7s-.1-88.1.2-125.4c.2-26.2 16.9-45.3 44.3-48.7C442 147 443.7 173 444.1 199v101.4h62.1c24.1.8 46.9-1.7 67.5-15.7 27.7-18.9 43.2-45.3 43.7-78.1.5-29.5.5-59.1.4-88.7V0H469c-73 .9-130.7 45.3-149.8 115.3-3.3 12-5.3 25.1-5.3 37.2v61.8h-10v-61.8c0-12.1-2-25.2-5.3-37.2C279.5 45.3 221.8.9 148.8 0H.1v117.8c-.1 29.6-.1 59.1.4 88.7.5 32.8 16 59.2 43.6 78.1zM573.6 339.5c-20.6-14-43.4-16.5-67.5-15.7H444v101.3c-.4 26-2.1 52 21.1 72.8-27.4-3.4-44.1-22.5-44.3-48.7-.3-37.3-.2-125.4-.2-125.4H197.1s.1 88.1-.2 125.4c-.2 26.2-16.9 45.3-44.3 48.7 23.2-20.8 21.5-46.8 21.1-72.8V323.8h-62.1c-24.1-.8-46.9 1.6-67.5 15.7C16.5 358.4 1 384.8.4 417.6c-.5 29.6-.5 59.1-.4 88.7v117.8h148.7c73.1-.9 130.7-45.3 149.8-115.3 3.3-12 5.3-25.1 5.3-37.2v-61.8h10v61.8c0 12.1 2 25.2 5.3 37.2 19.2 70 76.8 114.4 149.8 115.3h148.7V506.3c.1-29.6.1-59.1-.4-88.7-.4-32.8-15.9-59.2-43.6-78.1z"></path></svg>