<svg id="Layer_1" data-name="Layer 1" xmlns="http://www.w3.org/2000/svg" viewBox="0 0 614.17 418.09">   <path d="M582.38,7.78c-29.84-16.57-67.44-5.81-84,24.02l-47.74,85.98V61.79c0-28.15-19.03-52.75-46.29-59.81-27.25-7.05-55.83,5.2-69.5,29.81l-47.74,85.98V61.79c0-28.15-19.03-52.75-46.29-59.81-27.25-7.05-55.84,5.2-69.5,29.81L7.78,326.31c-16.56,29.83-5.81,67.44,24.02,84,9.5,5.28,19.79,7.78,29.93,7.78,21.71,0,42.78-11.47,54.07-31.8l47.74-85.98v55.99c0,28.15,19.03,52.75,46.29,59.81,27.26,7.07,55.84-5.2,69.5-29.81l47.74-85.97v55.98c0,28.15,19.03,52.75,46.29,59.81,27.27,7.07,55.84-5.2,69.5-29.81L606.39,91.78c16.56-29.83,5.81-67.44-24.02-84Z"></path> </svg>