<svg data-name="Layer 1" xmlns="http://www.w3.org/2000/svg" viewBox="0 0 624.33 550.82"><path d="M591.89 228.94c-22.89-24.7-54-38.65-87.6-39.29-33.69-.63-65.21 12.1-88.98 35.87l-50.7 50.7-16.5-16.5 50.7-50.7c23.77-23.77 36.5-55.37 35.87-88.98-.64-33.6-14.59-64.71-39.29-87.6-46.67-43.25-119.78-43.25-166.45 0-24.7 22.89-38.65 54-39.29 87.6-.64 33.61 12.1 65.21 35.87 88.98l50.7 50.7-16.5 16.5-50.7-50.7c-23.77-23.77-55.32-36.52-88.98-35.87-33.6.64-64.71 14.59-87.6 39.29-43.25 46.67-43.25 119.78 0 166.45 22.89 24.7 54 38.65 87.6 39.29.8.02 1.6.02 2.41.02 32.71 0 63.38-12.69 86.58-35.89l50.7-50.7 16.5 16.5-121.78 121.78c-10.83 10.83-14.04 26.98-8.18 41.13 5.86 14.15 19.55 23.3 34.87 23.3H443.2c15.32 0 29-9.14 34.87-23.3 5.86-14.15 2.65-30.3-8.18-41.13L348.11 364.61l16.5-16.5 50.7 50.7c23.2 23.2 53.86 35.89 86.58 35.89.8 0 1.6 0 2.41-.02 33.6-.64 64.71-14.59 87.6-39.29 43.25-46.67 43.25-119.78 0-166.45Zm-279.73 66.72 16.5 16.5-16.5 16.5-16.5-16.5 16.5-16.5Zm-71.68-174.65c.37-19.66 8.55-37.87 23.02-51.28 13.65-12.65 31.15-18.97 48.67-18.97s35.02 6.32 48.67 18.97c14.47 13.41 22.64 31.63 23.02 51.28.37 19.67-7.08 38.16-20.99 52.07l-50.7 50.7-50.7-50.7c-13.91-13.91-21.36-32.4-20.99-52.07Zm-67.41 241.86c-13.91 13.91-32.42 21.37-52.07 20.99-19.66-.37-37.87-8.55-51.28-23.02-25.29-27.29-25.29-70.04 0-97.33 13.41-14.47 31.62-22.64 51.28-23.02.47 0 .94-.01 1.41-.01 19.14 0 37.09 7.43 50.66 21l50.7 50.7-50.7 50.7Zm238.51 137.12H212.74l99.42-99.42 99.42 99.42ZM554.6 360.84c-13.41 14.47-31.62 22.65-51.28 23.02-19.71.38-38.16-7.08-52.07-20.99l-50.7-50.7 50.7-50.7c13.91-13.91 32.46-21.38 52.07-20.99 19.66.37 37.87 8.55 51.28 23.02 25.29 27.29 25.29 70.04 0 97.33Z"></path></svg>