<svg id="Layer_1" data-name="Layer 1" xmlns="http://www.w3.org/2000/svg" viewBox="0 0 564.45 564.45">   <path d="M282.23,0C126.36,0,0,126.36,0,282.23L141.11,141.11,282.23,0Z"></path>   <path d="M423.34,423.34V141.11l141.11,141.11C564.45,126.36,438.1,0,282.23,0l141.11,141.11H141.11V423.34H423.34l-141.11,141.11c155.87,0,282.23-126.36,282.23-282.23l-141.11,141.11Zm-141.11-6.84c-74.16,0-134.27-60.12-134.27-134.27s60.11-134.27,134.27-134.27,134.27,60.12,134.27,134.27-60.11,134.27-134.27,134.27Z"></path>   <path d="M0,282.23c0,155.87,126.36,282.23,282.23,282.23l-141.11-141.11L0,282.23Z"></path> </svg>