<svg xmlns="http://www.w3.org/2000/svg" width="381.4" viewBox="0 0 381.4 610.7" height="610.7" xml:space="preserve"><path d="M361.9 488.6H239.5V122.1h122.4c10.7 0 19.5-8.7 19.5-19.5 0-10.7-8.7-19.5-19.5-19.5H303c.8-5.5 5-35.6 7.2-52.2.1-1 .3-2 .5-3.1.4-2.7.9-5.5.9-8.2 0-3-.5-5.7-1.6-8.1-3.2-7-10.3-11.5-17.9-11.5-7.6 0-14.5 4.4-17.7 11.2l-.3.3c-1.1 2.4-1.6 5.1-1.6 8.1 0 2.7.4 5.5.9 8.2.2 1 .3 2 .5 3.1 2.2 16.6 6.5 46.7 7.2 52.2h-58c-10.8 0-19.5 8.8-19.5 19.5 0 8.1 4.9 15 11.9 17.9H166c7-3 11.9-9.9 11.9-17.9 0-10.7-8.7-19.5-19.5-19.5H99.5c.8-5.5 5-35.6 7.2-52.2.1-1 .3-2.1.5-3.1.4-2.7.9-5.5.9-8.2 0-3-.5-5.7-1.6-8.1C103.3 4.5 96.3 0 88.6 0 81 0 74.1 4.4 70.8 11.2l-.3.3c-1.1 2.4-1.6 5.1-1.6 8.1 0 2.7.4 5.5.9 8.2.2 1 .3 2.1.5 3.1 2.2 16.6 6.5 46.7 7.2 52.2h-58C8.7 83.1 0 91.9 0 102.6c0 10.8 8.7 19.5 19.5 19.5h122.4v366.4H19.5C8.7 488.6 0 497.3 0 508.1s8.7 19.5 19.5 19.5h58.9c-.8 5.5-5 35.6-7.2 52.2-.1 1-.3 2.1-.5 3.1-.4 2.7-.9 5.5-.9 8.2 0 3 .5 5.7 1.6 8.1 3.2 7 10.2 11.5 17.9 11.5 7.6 0 14.5-4.4 17.7-11.2l.3-.3c1.1-2.4 1.6-5.1 1.6-8.1 0-2.8-.4-5.5-.9-8.2-.2-1-.3-2-.5-3.1-2.2-16.6-6.5-46.7-7.2-52.2h58c10.8 0 19.5-8.7 19.5-19.5 0-8-4.9-15-11.9-17.9h49.3c-7 3-11.9 9.9-11.9 17.9 0 10.8 8.7 19.5 19.5 19.5h58.9c-.8 5.5-5 35.6-7.2 52.2-.1 1-.3 2.1-.5 3.1-.4 2.7-.9 5.5-.9 8.2 0 3 .5 5.7 1.6 8.1 3.2 7 10.2 11.5 17.9 11.5 7.6 0 14.5-4.4 17.7-11.2l.3-.3c1.1-2.4 1.6-5.1 1.6-8.1 0-2.8-.4-5.5-.9-8.2-.2-1-.3-2-.5-3.1-2.2-16.6-6.5-46.7-7.2-52.2h58c10.7 0 19.5-8.7 19.5-19.5.3-10.8-8.4-19.5-19.2-19.5z"></path></svg>