<svg xmlns="http://www.w3.org/2000/svg" width="623.6" viewBox="0 0 623.6 539.9" height="539.9" style="enable-background:new 0 0 623.6 539.9" xml:space="preserve"><path d="M597.7 285.9h-84.9l72.6-72.6c10.1-10.1 10.1-26.5 0-36.7-10.1-10.1-26.6-10.1-36.7 0l-98.6 98.6-32.5-32.5L532.3 128c10.1-10.1 10.1-26.5 0-36.7-10.1-10.1-26.5-10.1-36.7 0L381 205.9l-32.5-32.5L447 74.9c10.1-10.1 10.1-26.5 0-36.7-10.1-10.1-26.5-10.1-36.7 0l-72.6 72.6V25.9c0-14.3-11.6-25.9-25.9-25.9s-25.9 11.6-25.9 25.9v84.9l-72.6-72.6c-10.1-10.1-26.5-10.1-36.7 0-10.1 10.1-10.1 26.5 0 36.7l98.6 98.6-32.5 32.5L127.9 91.3c-10.1-10.1-26.5-10.1-36.7 0-10.1 10.1-10.1 26.5 0 36.7l114.7 114.7-32.5 32.5-98.6-98.6c-10.1-10.1-26.5-10.1-36.7 0-10.1 10.1-10.1 26.5 0 36.7l72.6 72.6H25.9C11.6 285.9 0 297.5 0 311.8c0 14.3 11.6 25.9 25.9 25.9h84.9l-72.6 72.6c-10.1 10.1-10.1 26.5 0 36.7 5.1 5.1 11.7 7.6 18.3 7.6s13.3-2.5 18.3-7.6l98.6-98.6 32.5 32.5L91.3 495.7c-10.1 10.1-10.1 26.5 0 36.7 5.1 5.1 11.7 7.6 18.3 7.6 6.6 0 13.3-2.5 18.3-7.6l151.2-151.2c-25.5-12.2-43.2-38.2-43.2-68.4 0-41.9 34-75.9 75.9-75.9s75.9 34 75.9 75.9c0 30.2-17.7 56.2-43.2 68.4l151.2 151.2c5.1 5.1 11.7 7.6 18.3 7.6 6.6 0 13.3-2.5 18.3-7.6 10.1-10.1 10.1-26.5 0-36.7L417.7 381l32.5-32.5 98.6 98.6c5.1 5.1 11.7 7.6 18.3 7.6 6.6 0 13.3-2.5 18.3-7.6 10.1-10.1 10.1-26.5 0-36.7l-72.6-72.6h84.9c14.3 0 25.9-11.6 25.9-25.9 0-14.4-11.6-26-25.9-26z"></path></svg>