<svg id="Layer_1" data-name="Layer 1" xmlns="http://www.w3.org/2000/svg" viewBox="0 0 610.63 610.63">   <path d="M610.63,315.22V141.71s-153.7,0-153.7,0L315.21,0H141.71s0,153.71,0,153.71L0,295.42v173.5s153.7,0,153.7,0l141.71,141.71h173.5s0-153.7,0-153.7l141.71-141.71Zm-146.06,1.12l.77-.76v-123.36s94.79,0,94.79,0v102.09s-119.78,119.78-119.78,119.78h-73.76s97.98-97.74,97.98-97.74Zm-159.14-109.71l98.56,98.81-98.8,98.56-98.56-98.8,98.8-98.57ZM192.21,50.5h102.08s119.78,119.78,119.78,119.78v73.76s-97.74-97.98-97.74-97.98l-.76-.76h-123.37V50.5Zm-46.16,243.8l-.76,.76v123.36s-94.79,0-94.79,0v-102.08s119.78-119.78,119.78-119.78h73.75s-97.99,97.75-97.99,97.75Zm272.37,265.83h-102.09s-119.78-119.78-119.78-119.78v-73.76s97.73,97.98,97.73,97.98l.76,.76h123.37v94.79Z"></path> </svg>