<svg xmlns="http://www.w3.org/2000/svg" width="610.9" viewBox="0 0 610.9 500.6" height="500.6" xml:space="preserve"><path d="M456.9 0c-75.3 0-138.2 54.3-151.4 125.9C292.2 54.3 229.3 0 154 0 69.1 0 0 69.1 0 154v192.5c0 84.9 69.1 154 154 154 75.3 0 138.2-54.3 151.4-125.9 13.3 71.5 76.1 125.9 151.4 125.9 84.9 0 154-69.1 154-154V154c.1-84.9-69-154-153.9-154zm0 5.2C539 5.2 605.8 71.9 605.8 154S539 302.9 456.9 302.9C374.8 302.9 308 236.1 308 154S374.8 5.2 456.9 5.2zM154 495.4c-82.1 0-148.9-66.8-148.9-148.9S71.9 197.7 154 197.7s148.9 66.8 148.9 148.9S236.1 495.4 154 495.4zm451.8-148.9c0 82.1-66.8 148.9-148.9 148.9-82.1 0-148.9-66.8-148.9-148.9 0-84.9-69.1-154-154-154-71.2 0-131.3 48.6-148.9 114.4V154C5.2 71.9 71.9 5.2 154 5.2S302.9 71.9 302.9 154c0 84.9 69.1 154 154 154 71.2 0 131.3-48.6 148.9-114.4v152.9z"></path><path d="M456.9 185.6c17.4 0 31.5-14.1 31.5-31.5s-14.1-31.5-31.5-31.5-31.5 14.1-31.5 31.5 14.1 31.5 31.5 31.5zm0-57.9c14.5 0 26.4 11.8 26.4 26.4s-11.8 26.4-26.4 26.4-26.4-11.8-26.4-26.4 11.9-26.4 26.4-26.4z"></path><path d="M456.9 225.6c39.5 0 71.6-32.1 71.6-71.6s-32.1-71.6-71.6-71.6-71.6 32.1-71.6 71.6 32.1 71.6 71.6 71.6zm0-138c36.6 0 66.4 29.8 66.4 66.4 0 36.6-29.8 66.4-66.4 66.4s-66.4-29.8-66.4-66.4c0-36.6 29.8-66.4 66.4-66.4z"></path><path d="M456.9 267.8c62.7 0 113.8-51 113.8-113.8s-51-113.8-113.8-113.8S343.1 91.3 343.1 154s51.1 113.8 113.8 113.8zm0-222.4c59.9 0 108.6 48.7 108.6 108.6s-48.7 108.6-108.6 108.6S348.3 213.9 348.3 154 397 45.4 456.9 45.4zM154 315c-17.4 0-31.5 14.1-31.5 31.5S136.6 378 154 378s31.5-14.1 31.5-31.5c.1-17.4-14.1-31.5-31.5-31.5zm0 57.9c-14.5 0-26.4-11.8-26.4-26.4s11.8-26.4 26.4-26.4 26.4 11.8 26.4 26.4-11.8 26.4-26.4 26.4z"></path><path d="M154 274.9c-39.5 0-71.6 32.1-71.6 71.6s32.1 71.6 71.6 71.6 71.6-32.1 71.6-71.6-32.1-71.6-71.6-71.6zm0 138c-36.6 0-66.4-29.8-66.4-66.4s29.8-66.4 66.4-66.4 66.4 29.8 66.4 66.4-29.8 66.4-66.4 66.4z"></path><path d="M154 232.7c-62.7 0-113.8 51-113.8 113.8s51 113.8 113.8 113.8 113.8-51 113.8-113.8-51-113.8-113.8-113.8zm0 222.4c-59.9 0-108.6-48.7-108.6-108.6S94.1 237.9 154 237.9s108.6 48.7 108.6 108.6S213.9 455.1 154 455.1z"></path></svg>