<svg xmlns="http://www.w3.org/2000/svg" width="642" viewBox="0 0 642 611" height="611" style="overflow:visible;enable-background:new 0 0 642 611" xml:space="preserve"><path d="M642 196.4c0 137.3-105 135.2-105 222.7h-96.8c0-126.5 105-141.7 105-222.6 0-133-231.2-133.2-231.2 0 0 88.9 105 84.9 105 222.6 0 253.5-419 258.1-419 0 0-59.4 27.1-112.5 69.6-147.6 21.6-18 35.4-44.9 35.4-75.1h96.8c0 136.3-105 138.7-105 222.7 0 129.1 225.3 129.1 225.3 0 0-88.4-105-86.2-105-222.7.1-261.8 424.9-262 424.9 0z"></path><path d="M508.7 205.5h-66.5l47.1 47.1-7.4 7.3-47.1-47.1v66.6h-10.3v-66.6l-47.1 47.1-7.4-7.3 47.1-47.1h-66.6v-10.4h66.6L370 148l7.4-7.3 47.1 47.1v-66.6h10.3v66.6l47.1-47.1 7.4 7.3-47.1 47.1h66.5z"></path></svg>