<svg xmlns="http://www.w3.org/2000/svg" width="600" viewBox="0 0 600 376.96" height="376.96" style="overflow:visible;enable-background:new 0 0 600 376.96" xml:space="preserve"><path class="st0" d="M504.71 110.38c-42.39 0-79.79-21.56-101.81-54.3v-.06c-.6-.93-1.22-1.85-1.85-2.76C378.94 21.1 341.9 0 299.96 0c-44 0-82.61 23.23-104.24 58.07v53.81c23.57-31.67 61.28-52.2 103.75-52.2 42.2 0 79.7 20.27 103.29 51.59 0 0 8.61 12.13 14.14 18.31 20.99 24.73 52.3 40.44 87.24 40.44 40.12 0 75.44-19.65 95.86-50.66V64.9c-22.49 27.74-56.83 45.48-95.29 45.48z"></path><path class="st0" d="M504.13 184.81c-45.14 0-84.93-23.08-108.2-58.07-.3-.45-.61-.9-.93-1.34-20.52-30.72-55.51-50.97-95.19-50.97-46.21 0-86.05 27.46-104.09 66.92v45.71c-22.5-31.21-59.16-55.68-100.54-55.68-36 0-65.15 13.25-89.69 36.73-1.29 1.23-3.47 3.81-5.03 5.91v56.2c.13-.15.26-.29.4-.44 22.73-23.96 55.89-39.58 93.63-39.58 45.14 0 85.33 24.81 108.2 60.84.29.46.61.9.93 1.34 20.52 30.72 55.51 50.97 95.19 50.97 46.21 0 86.05-27.46 104.09-66.92V189.1c-21.76 34.2-60.01 56.91-103.52 56.91-40.97 0-79.2-22.34-99.54-52.42-.36-.57-2.57-4.09-3.6-5.72 21.85-33.76 59.83-56.12 103-56.12 40.97 0 77.27 20.14 99.54 51.04.47.75.96 1.49 1.45 2.23.86 1.29 1.74 2.56 2.64 3.81l.03.05v-.01c22.5 31.21 59.16 51.54 100.54 51.54 36 0 68.43-15.39 91.07-39.95 1.9-2.06 3.73-4.19 5.49-6.38V142.5c-.13.15-.27.29-.4.44-23.73 25.73-57.73 41.87-95.47 41.87z"></path><path class="st0" d="M299.15 317.28c-42.2 0-79.7-20.27-103.29-51.59 0 0-8.72-13.67-14.25-19.85-20.99-24.73-51.79-41.66-85.75-41.66-40.12 0-73.97 18.73-95.86 47.9v57.22c22.49-27.74 56.83-44.56 95.29-44.56 42.39 0 78.41 23.4 100.43 56.14v.06c.6.93 1.22 1.85 1.85 2.76 22.11 32.15 59.16 53.25 101.09 53.25 44 0 82.61-23.23 104.24-58.07v-53.81c-23.57 31.69-61.28 52.21-103.75 52.21zM254.68 189.26c0 24.91 20.22 45.13 45.13 45.13 24.91 0 45.13-20.22 45.13-45.13s-20.22-45.13-45.13-45.13c-24.91.01-45.13 20.23-45.13 45.13z"></path></svg>