<svg xmlns="http://www.w3.org/2000/svg" width="600" viewBox="0 0 600 349.51" height="349.51" style="overflow:visible;enable-background:new 0 0 600 349.51" xml:space="preserve"><path d="M.2 0v35.35c30.1 3.84 34.73 12 100.98 115.62L233.46 349.5h65.65V246.4L136.51 0H.2zM343.52 0h-81.79v133.29h38.37v-26.26c0-28.9 7.48-58.16 43.42-67.66V0zM76.24 271.62v-90.88l-36.36-54.52v145.41c0 12.52-12.82 43.42-39.88 50.49v27.39h116.12v-27.89s-39.88-12.03-39.88-50zM518.21 0v39.88c35.95 9.5 43.4 40.29 43.4 69.19v24.23l38.39-.01V0h-81.79zM489.93 257.61V0H373.81v252.57c0 37.36-7.57 58.57-39.38 67.66v29.28H527.3v-28.27c-33.32-11.12-37.37-35.35-37.37-63.63z"></path></svg>