<svg data-name="Layer 1" xmlns="http://www.w3.org/2000/svg" viewBox="0 0 612.76 612.77"><path d="M306.38 0C137.44 0 0 137.44 0 306.38c0 140.6 95.23 262.77 231.59 297.12l2.05.51V532.3l-1.13-.37C134.7 499.82 68.99 409.18 68.99 306.38c0-130.9 106.49-237.39 237.39-237.39s237.4 106.49 237.4 237.39c0 117.84-87.58 218.52-204.03 234.99V393.71l81.37-109.8.32-.44V167.59L306.39 322.85 191.34 167.59v115.88l79.42 107.18v220l1.46.16c11.61 1.29 23.11 1.95 34.16 1.95 168.94 0 306.39-137.44 306.39-306.39S475.32 0 306.38 0Z"></path></svg>