<svg id="Layer_1" data-name="Layer 1" xmlns="http://www.w3.org/2000/svg" viewBox="0 0 610.56 530.85">   <polygon points="246.82 25.03 246.82 89.98 207.82 89.98 207.82 25.03 220.82 25.03 220.82 77.03 233.82 77.03 233.82 25.03 246.82 25.03"></polygon>   <polygon points="298.78 102.98 298.78 115.99 272.78 115.99 272.78 167.94 259.78 167.94 259.78 102.98 298.78 102.98"></polygon>   <path d="M441.69,25.03v52h-13V25.03h-38.95V89.98h51.95v77.96h13v-51.96h25.95v-13h-25.95V38.03h12.95v51.96h13V25.03h-38.95Zm-39,52V38.03h13v39h-13Z"></path>   <path d="M51.95,0V12.08H181.87v12.95h-26V89.98h38.95V12.08h116.96V77.03h-39V38.03h13v13h13V25.03h-39V89.98h77.96v13h-25.95v26h-26v13h26v25.95h38.95v-13h-26v-12.95h26v-13h-26v-13h26v-38.95h-26V38.03h26v-13h-26V12.08h39v25.95h13V12.08h116.91V89.98h13V0H51.95ZM181.87,77.03h-13V38.03h13v39Z"></path>   <rect x="467.65" y="128.99" width="13" viewBox="0 0 13 38.95" height="38.95"></rect>   <path d="M545.6,102.98v51.96h-13v-51.96h-38.95v64.96h64.96v-51.96h13v51.96h13V102.98h-39Zm-38.95,51.96v-38.95h13v38.95h-13Z"></path>   <path d="M51.95,362.81v51.95h-13v-142.87h13v77.91h12.95v-51.95h13v51.95h13v-64.96h-26v-12.95h26v-13H38.95v-13h25.95v-13h-25.95v-38.95h25.95v-13h-25.95v-13h25.95v-51.96h13v51.96h13V102.98H51.95v51.96h-13v-25.95h-13v51.95H12.95V115.99h26v-13H12.95V0H0V453.77H77.91v-13H12.95V193.94h13v233.82h38.95v-51.95h13v51.95h39v-64.96H51.95Zm51.95,51.95h-13v-38.95h13v38.95Z"></path>   <polygon points="168.87 180.94 168.87 193.94 142.86 193.94 142.86 245.9 77.91 245.9 77.91 219.9 51.95 219.9 51.95 206.94 77.91 206.94 77.91 180.94 116.91 180.94 116.91 193.94 90.91 193.94 90.91 206.94 116.91 206.94 116.91 219.9 90.91 219.9 90.91 232.9 129.86 232.9 129.86 180.94 168.87 180.94"></polygon>   <rect x="259.78" y="180.94" width="13" height="64.96"></rect>   <path d="M415.69,180.94v64.96h39v-64.96h-39Zm26,51.96h-13v-38.95h13v38.95Z"></path>   <path d="M467.65,180.94v64.96h26v13h-77.96v13h90.96v-90.96h-39Zm26,51.96h-13v-38.95h13v38.95Z"></path>   <rect x="337.73" y="284.85" width="13" height="64.96"></rect>   <path d="M155.87,284.85v64.96h38.95v-64.96h-38.95Zm26,52h-13v-39h13v39Z"></path>   <polygon points="558.6 310.85 558.6 323.86 532.6 323.86 532.6 349.81 493.65 349.81 493.65 336.86 519.65 336.86 519.65 323.86 493.65 323.86 493.65 310.85 519.65 310.85 519.65 297.85 480.65 297.85 480.65 349.81 441.69 349.81 441.69 336.86 467.65 336.86 467.65 284.85 532.6 284.85 532.6 310.85 558.6 310.85"></polygon>   <rect x="129.86" y="362.81" width="13" height="39"></rect>   <path d="M519.65,440.77v51.96h-39v-12.95h26v-116.96h-13v51.95h-13v-51.95h-38.95v13h25.95v13h-25.95v13h25.95v12.95h-25.95v13h51.95v13h-51.95v51.96h-13v-51.96h-64.96v39h26v12.95h-26v13h38.95v-38.95h-25.95v-13h38.95v51.95h39v-51.95h12.95v51.95h64.96v-51.95h39v38.95h-26v13h26v25.13h13v-90.08h-64.96Zm-39,13h13v13h-13v-13Z"></path>   <polygon points="350.74 362.81 350.74 427.77 311.78 427.77 311.78 414.77 337.73 414.77 337.73 362.81 350.74 362.81"></polygon>   <path d="M415.69,284.85v52h-13V167.94h26V102.98h-51.96V51.03h-13v116.91h13v-51.96h38.95v13h-25.95v103.91h-13v-51.96h-39v51.96h-13v-51.96h-38.95v64.96h13v-51.96h13v51.96h77.96v13H220.82v-64.96h13v51.96h13v-64.96h-26v-13h26V102.98h-64.96v51.96h-39v-12.95h26v-13h-26v-13h26v-13h-51.95v-13h25.95V25.03H77.91v52H38.95V38.03h25.95v-13h-25.95V0h-13V89.98H90.91V38.03h38.95v13h-25.95v116.91h13v-51.96h12.95v51.96h64.96v-51.96h39v38.95h-13v-25.95h-13v51.95h-25.95v51.96h-26v13h38.95v-51.96h13v64.96H103.91v90.91h38.95v-64.96h-25.95v-12.95h90.91v90.91h-25.95v64.96h51.95v52h13v-103.96h38.95v13h-26v13h26v12.95h-26v13h39v-25.95h25.95v-13h-25.95v-26h-64.96v51.95h-39v-12.95h26v-103.96h13v51.95h38.95v-51.95h13v51.95h38.95v-64.96h-12.95v52h-13v-52h-77.96v-12.95h168.92v64.96h-13v-52h-13v64.96h26v13h-26v64.96h64.96v-64.96h-13v51.95h-38.95v-38.95h13v26h12.95v-52h26v-51.95h26v-13h-39Zm-13-142.87h13v12.95h-13v-12.95Zm-38.95,90.91h-13v-38.95h13v38.95ZM116.91,64.03h12.95v13h-12.95v-13Zm12.95,233.82v39h-12.95v-39h12.95Zm77.96,90.96h-13v-13h13v13Zm51.96-90.96v39h-12.95v-39h12.95Z"></path>   <path d="M350.74,518.72v-77.96h-13v77.96h-64.96v-64.96h13v51.95h38.95v-13h-25.95v-12.95h25.95v-39h-64.96v51.96h-25.95v13h25.95v13H116.91v-77.96h-13v90.08h454.69v-12.12h-207.87Zm-51.96-64.96h13v13h-13v-13Z"></path>   <polygon points="168.87 362.81 168.87 505.72 129.86 505.72 129.86 440.77 142.86 440.77 142.86 492.72 155.87 492.72 155.87 427.77 129.86 427.77 129.86 414.77 155.87 414.77 155.87 362.81 168.87 362.81"></polygon>   <path d="M181.87,440.77v64.96h38.95v-64.96h-38.95Zm25.95,51.96h-13v-38.95h13v38.95Z"></path>   <polygon points="610.56 77.03 610.56 530.85 597.56 530.85 597.56 427.77 571.61 427.77 571.61 414.77 597.56 414.77 597.56 349.81 584.61 349.81 584.61 401.81 571.61 401.81 571.61 375.81 558.6 375.81 558.6 427.77 519.65 427.77 519.65 362.81 532.6 362.81 532.6 414.77 545.6 414.77 545.6 362.81 571.61 362.81 571.61 349.81 545.6 349.81 545.6 336.86 571.61 336.86 571.61 297.85 545.6 297.85 545.6 284.85 584.61 284.85 584.61 336.86 597.56 336.86 597.56 271.9 519.65 271.9 519.65 258.9 597.56 258.9 597.56 219.9 558.6 219.9 558.6 232.9 584.61 232.9 584.61 245.9 519.65 245.9 519.65 180.94 532.6 180.94 532.6 232.9 545.6 232.9 545.6 180.94 584.61 180.94 584.61 193.94 558.6 193.94 558.6 206.94 597.56 206.94 597.56 89.98 532.6 89.98 532.6 77.03 610.56 77.03"></polygon> </svg>