<svg xmlns="http://www.w3.org/2000/svg" width="626.6" viewBox="0 0 626.6 458" height="458" xml:space="preserve" style="enable-background:new 0 0 626.6 458"><path d="m562.9 294.6 63.7-63.7-215-215.1-212.8 212.8 64.2 64.2 102.3-102.3v29.9c2.3 37.7-10.9 76.3-39.8 105.1-53.4 53.4-139.9 53.4-193.2.1-53.3-53.3-53.3-139.8.1-193.2 43.6-43.6 109.3-51.6 161-24l67.1-67.1C271.2-21.3 147.1-12.8 67.1 67.1-22.3 156.6-22.4 301.6 67 391c89.4 89.4 234.4 89.3 323.9-.1 45.4-45.4 67.8-105 67.1-164.5v-36.7l104.9 104.9z"></path></svg>