<svg data-name="Layer 1" xmlns="http://www.w3.org/2000/svg" viewBox="0 0 347.68 610.54"><path d="M316.05 22.01c-26.1-10.81-56.12 1.63-66.93 27.72l-62.18 150.11c-9.27 22.38-35.01 33.04-57.39 23.77-22.38-9.27-33.04-35.01-23.77-57.39l39.52-95.41c10.81-26.1-1.63-56.12-27.72-66.93C91.48-6.93 61.46 5.51 50.65 31.6l-39.51 95.43c-30.89 74.57 4.65 160.36 79.22 191.24 13.87 5.74 28.35 9.29 43.15 10.59L74.16 472.15l-1.88 138.39 96.53-99.19L343.78 88.94c10.81-26.1-1.63-56.12-27.72-66.93Zm-3.27 7.89c21.74 9.01 32.11 34.03 23.1 55.77-9.01 21.74-34.03 32.11-55.77 23.1C258.37 99.76 248 74.74 257.01 53c9.01-21.74 34.03-32.11 55.77-23.1ZM114.32 11.79c21.75 9.01 32.11 34.03 23.1 55.77-9.01 21.74-34.03 32.11-55.77 23.1-21.75-9.01-32.11-34.03-23.1-55.77 9-21.74 34.02-32.11 55.77-23.1ZM95.34 574.62l-13.95-5.78 1.21-89.46 75.13 31.12-62.4 64.11Zm67.54-71.23L84 470.72l62.01-149.71-6.08-.28c-15.9-.73-31.48-4.21-46.3-10.35C23.41 281.3-10.05 200.52 19.03 130.3l28.7-69.31c3.19 16.29 14.2 30.74 30.65 37.56s34.45 4.37 48.23-4.89l-28.7 69.3c-11.07 26.72 1.67 57.47 28.39 68.54 26.72 11.07 57.47-1.67 68.54-28.39L246.2 79.1c3.19 16.29 14.2 30.74 30.65 37.56 16.45 6.81 34.45 4.37 48.23-4.89L162.87 503.39Z"></path><path d="M92.59 64.25c7.19 2.98 15.44-.44 18.41-7.63 2.98-7.19-.44-15.44-7.63-18.41-7.19-2.98-15.44.44-18.41 7.63-2.98 7.19.44 15.44 7.63 18.41ZM291.06 82.36c7.19 2.98 15.44-.44 18.41-7.63 2.98-7.19-.44-15.44-7.63-18.41-7.19-2.98-15.44.44-18.41 7.63-2.98 7.19.44 15.44 7.63 18.41Z"></path></svg>