<svg xmlns="http://www.w3.org/2000/svg" width="609.5" viewBox="0 0 609.5 516.5" height="516.5" style="enable-background:new 0 0 609.5 516.5" xml:space="preserve"><path d="M543.8 252.8H466c-25.8-65.8-86.3-113.7-159.7-119.9 4.3-1 8.7-1.5 13.2-1.5h224.3c36.2 0 65.7-29.5 65.7-65.7S580.1 0 543.8 0H319.5c-85 0-155.6 55.5-180.1 132.2H65.7C29.5 132.2 0 161.7 0 197.9s29.5 65.7 65.7 65.7h77.8c25.8 65.8 86.3 113.6 159.7 119.8-4.3 1-8.7 1.5-13.2 1.5H65.7C29.5 385 0 414.5 0 450.7s29.5 65.7 65.7 65.7H290c85 0 155.6-55.5 180.1-132.2h73.7c36.2 0 65.7-29.5 65.7-65.7s-29.4-65.7-65.7-65.7m0 33.9c5.7 0 11 1.5 15.6 4.1 9.7 5.5 16.2 15.8 16.2 27.7 0 17.6-14.2 31.8-31.8 31.8H319.5c-61.5 0-113.5-35.3-138.9-86.7h77.1c16.6 14.3 38.2 23.1 61.8 23.1h224.3zM319.5 97.5c-29.4 0-55.8 13.5-73.1 34.7h-71c22.9-57.6 78.1-98.3 144.1-98.3h224.3c17.6 0 31.8 14.2 31.8 31.8 0 11-5.6 20.7-14 26.4-5.1 3.4-11.2 5.4-17.8 5.4H319.5zM65.7 229.7c-17.6 0-31.8-14.2-31.8-31.8s14.2-31.8 31.8-31.8H290c61.5 0 113.6 35.3 138.9 86.7h-77.1c-2.1-1.8-4.2-3.5-6.4-5.1-15.6-11.3-34.7-17.9-55.3-17.9H65.7zm0 252.8c-17.6 0-31.8-14.2-31.8-31.8s14.2-31.8 31.8-31.8H290c29.4 0 55.8-13.5 73.1-34.7h71c-22.9 57.6-78.1 98.3-144.1 98.3H65.7z"></path></svg>