<svg xmlns="http://www.w3.org/2000/svg" width="519.7" viewBox="0 0 519.7 591.1" height="591.1"><path d="M294.8 414.8l222-202c-3.9-44.8-14-88.3-41.8-124.8-4.4-5.8-9.2-11.3-14.2-16.7L321.6 194.2c-30 26.5-47.2 64.6-47.2 104.6v106.9c0 10.6 12.5 16.2 20.4 9.1zM294.6 179.2L439.4 51.3C405.5 23.5 363.7 6 319.8 1.9 304.8.5 289.5 0 274.4 0v170.1c0 10.5 12.4 16 20.2 9.1zM198.1 194.2L59.1 71.4c-5 5.4-9.8 10.9-14.3 16.8C17 124.7 6.9 168.1 3 212.8l221.9 201.9c7.8 7.1 20.4 1.6 20.4-9V298.9c0-40.1-17.2-78.2-47.2-104.7zM519.6 299.5c-.2-16.2-.3-32.7-.8-49.3L320.7 430.5c-29.5 26.8-46.3 64.8-46.3 104.7v55.7c16.1 0 32.8-1.1 48.9-2.8 53.3-5.7 103.4-31.2 139.6-71.2 52.8-58.4 57.7-141.5 56.7-217.4zM199 430.5L.9 250.3c-.5 16.6-.6 33.2-.8 49.5-1 75.8 3.9 158.9 56.7 217.3 36.5 40.3 87.3 65.9 141.2 71.3 15.5 1.6 31.7 2.7 47.3 2.7v-55.9c0-39.9-16.8-77.9-46.3-104.7zM195 2.5c-42 4.9-82 22.3-114.6 49L225 179.3c7.9 6.9 20.2 1.4 20.2-9.1V.1C228.7 0 211.5.5 195 2.5z"></path></svg>