<svg xmlns="http://www.w3.org/2000/svg" width="483.1" viewBox="0 0 483.1 619.2" height="619.2" xml:space="preserve" style="enable-background:new 0 0 483.1 619.2"><path d="M465.9 42.3v534.5c5.9-3.4 11.6-7.1 17.3-10.9V53.2c-5.7-3.8-11.4-7.4-17.3-10.9zM309.9 597.9c-87.9 0-159.1-71.2-159.1-159.1 0-87.9 71.2-159.1 159.1-159.1 28.7 0 55.6 7.6 78.9 21V10.2C363.5 3.6 336.9 0 309.6 0 138.6 0 0 138.6 0 309.6c0 171 138.6 309.6 309.6 309.6 27.4 0 53.9-3.6 79.2-10.2v-32c-23.3 13.2-50.2 20.9-78.9 20.9z"></path><path d="M390.4 438.2c0 44.5-36.1 80.6-80.6 80.6-44.5 0-80.6-36.1-80.6-80.6 0-44.5 36.1-80.6 80.6-80.6 44.6.1 80.6 36.2 80.6 80.6z"></path></svg>