<svg xmlns="http://www.w3.org/2000/svg" width="474.9" viewBox="0 0 474.9 621.6" height="621.6" xml:space="preserve" style="enable-background:new 0 0 474.9 621.6"><path d="M339.1 322.4 455.5 206l-39.8-39.8-116.5 116.4c-7.2-76-71.4-135.7-149.3-135.7-82.7 0-150 67.3-150 150 0 32.6 10.5 62.9 28.3 87.5-17.6 24.6-28 54.7-28 87.3 0 82.7 67.3 150 150 150 32.6 0 62.8-10.5 87.4-28.2 24.6 17.7 54.8 28.2 87.4 28.2 82.7 0 150-67.3 150-150-.1-77.9-59.8-142.1-135.9-149.3zM231.3 471.7c0-11.7 2.3-22.9 6.2-33.3 4 10.4 6.2 21.5 6.2 33.3 0 11.7-2.3 22.9-6.2 33.3-3.9-10.4-6.2-21.6-6.2-33.3zM150 203.3c51.6 0 93.6 42 93.6 93.6 0 17.6-5 34-13.4 48.1-23.2-14.7-50.6-23.2-80-23.2-29.5 0-57 8.6-80.3 23.4-8.5-14.1-13.5-30.6-13.5-48.2-.1-51.7 41.9-93.7 93.6-93.7zm33.3 180.9c-10.4 4-21.6 6.3-33.4 6.3-11.7 0-22.9-2.3-33.2-6.2 10.4-4 21.6-6.3 33.4-6.3 11.7 0 22.9 2.3 33.2 6.2zM56.5 471.7c0-17.6 5-34 13.4-48.1 23.2 14.7 50.6 23.2 80 23.2 9.4 0 18.6-.9 27.5-2.6-1.6 8.9-2.6 18-2.6 27.4 0 29.5 8.6 56.9 23.3 80.1-14.1 8.5-30.5 13.5-48.1 13.5-51.5.1-93.5-41.9-93.5-93.5zm268.4 93.6c-17.6 0-34.1-5-48.1-13.5 14.7-23.2 23.3-50.7 23.3-80.1s-8.6-56.9-23.3-80.1c14.1-8.5 30.5-13.5 48.1-13.5 51.6 0 93.6 42 93.6 93.6s-42 93.6-93.6 93.6zM103 29.9c8.3 0 15-6.7 15-15s-6.7-15-15-15H47.4c-8.3 0-15 6.7-15 15v101.3c0 8.3 6.7 15 15 15H103c8.3 0 15-6.7 15-15s-6.7-15-15-15H62.3V79.4h35.1c8.3 0 15-6.7 15-15s-6.7-15-15-15H62.3V29.9H103zM225.8 4.2C219.4-1 209.9 0 204.7 6.5l-28.1 34.9-28.1-34.9c-5.2-6.5-14.6-7.5-21-2.3s-7.4 14.6-2.3 21.1l32.2 39.9-32.2 39.9c-5.2 6.4-4.2 15.9 2.3 21.1 2.8 2.2 6.1 3.3 9.4 3.3 4.4 0 8.7-1.9 11.7-5.6l28-34.9 28.1 34.9c3 3.7 7.3 5.6 11.7 5.6 3.3 0 6.6-1.1 9.4-3.3 6.4-5.2 7.4-14.6 2.3-21.1l-32.2-39.9 32.2-39.9c5.1-6.5 4.1-15.9-2.3-21.1zM395.6.9c-28.3 0-52.4 17.9-61.6 43C332.3 19.4 311.9 0 286.9 0h-33.5c-8.3 0-15 6.7-15 15v101.3c0 8.3 6.7 15 15 15s15-6.7 15-15V94.4H287c19.2 0 35.7-11.5 43.1-27.9 0 36.2 29.4 65.6 65.6 65.6 36.2 0 65.6-29.4 65.6-65.6 0-36.2-29.5-65.6-65.7-65.6zM286.9 64.5h-18.6V29.9h18.6c9.5 0 17.3 7.7 17.3 17.3 0 9.5-7.8 17.3-17.3 17.3zm108.7 37.7c-19.7 0-35.7-16-35.7-35.7 0-19.7 16-35.7 35.7-35.7s35.7 16 35.7 35.7c0 19.7-16 35.7-35.7 35.7z"></path></svg>