<svg data-name="Layer 1" xmlns="http://www.w3.org/2000/svg" viewBox="0 0 624.9 624.9"><path d="m523.29 468.81-116.4-116.4H624.9v-79.34H406.89l116.4-116.4-55.2-55.2L322.06 247.5l65.24 65.24-65.24 65.24 146.03 146.03 55.2-55.2z"></path><path d="m100.96 468.81 55.2 55.2 211.27-211.27-211.27-211.27-55.2 55.2 116.4 116.4H0v79.34h217.36l-116.4 116.4z"></path><path d="m440.82 366.46 102.34 102.35-75.07 75.07-155.97-155.97-155.96 155.97-75.08-75.07 102.35-102.35H0v155c0 57.12 46.31 103.43 103.43 103.43h418.04c57.12 0 103.43-46.31 103.43-103.43v-155H440.82ZM183.43 259.02 81.08 156.67l75.08-75.07 155.96 155.97L468.09 81.6l75.07 75.07-102.34 102.35H624.9V103.43C624.9 46.31 578.59 0 521.47 0H103.43C46.31 0 0 46.31 0 103.43v155.59h183.43Z"></path></svg>