<svg data-name="Layer 1" xmlns="http://www.w3.org/2000/svg" viewBox="0 0 630.62 596.9"><path d="M535.47 370.23c66.86-31.07 99.5-85.66 94.68-138.11a2.8 2.8 0 0 0-1.37-2.15c-12.35-7.17-25.2-11.84-42.81-14.36a1.359 1.359 0 0 1-1.01-1.98c8.76-16.32 13.74-23.32 18.15-41.39.23-.93-.03-1.92-.69-2.61-27.67-29.01-84.78-60.52-162.31-26.09-.89.4-1.89-.25-1.9-1.22-.32-54.53-19.83-110.94-88.33-142.09-.87-.39-1.88-.29-2.65.26-4.71 3.38-21.42 16.23-31.93 35.57C304.79 16.72 288.08 3.87 283.37.49c-.77-.55-1.79-.66-2.65-.26-68.5 31.16-88.02 87.56-88.33 142.09 0 .98-1 1.62-1.9 1.22-77.53-34.43-134.64-2.91-162.31 26.09-.66.69-.91 1.68-.69 2.61 4.41 18.07 9.39 25.07 18.15 41.39.45.83-.07 1.85-1.01 1.98-17.61 2.51-30.45 7.19-42.81 14.36a2.76 2.76 0 0 0-1.37 2.15c-4.82 52.45 27.82 107.04 94.68 138.11.87.4 1.06 1.54.37 2.21-53.26 51.25-61.66 111.99-41.78 162.17.24.61.8 1.06 1.45 1.17 18.64 3.16 32.82 1.86 45.86.05.78-.11 1.42.59 1.25 1.36-3.05 13.85-3.91 27.56-2.66 45.64.07 1.07.75 2.01 1.74 2.41 98 39.57 193.8-26.85 207.68-119.08.16-1.05-.79-1.95-1.83-1.73-29.7 6.1-89.9 18.51-102.85 21.27-1.15.24-2.14-.84-1.78-1.97l10.26-32.17c1.37-4.29-.02-8.98-3.5-11.83l-92.76-76.17a2.162 2.162 0 0 1 .05-3.38l21.58-16.74a5.203 5.203 0 0 0 1.79-5.61l-21.66-71.71c-.5-1.65.85-3.28 2.57-3.08l57.76 6.54c1.66.17 3.24-.72 3.95-2.23l13.84-29.52a1.648 1.648 0 0 1 2.81-.29l37.5 50.32c9.65 12.83 15.65 10.33 13.34-5.56L233 164.63c-.16-1.1 1.02-1.89 1.97-1.33l33.36 19.64c3.57 2.1 8.18.79 10.1-2.88l36.83-70.17 36.83 70.17a7.254 7.254 0 0 0 10.1 2.88l33.36-19.64c.95-.56 2.13.23 1.97 1.33L380.41 282.3c-2.31 15.88 3.7 18.38 13.34 5.56l37.5-50.32c.74-1 2.29-.84 2.81.29l13.84 29.52a3.901 3.901 0 0 0 3.95 2.23l57.76-6.54c1.71-.19 3.07 1.43 2.57 3.08l-21.66 71.71c-.62 2.06.09 4.29 1.79 5.61l21.58 16.74c1.1.85 1.12 2.5.05 3.38l-92.76 76.17a10.999 10.999 0 0 0-3.5 11.83l10.26 32.17c.36 1.12-.63 2.21-1.78 1.97-12.95-2.76-73.14-15.16-102.84-21.26-1.05-.21-1.99.68-1.84 1.74 13.88 92.23 109.68 158.65 207.68 119.08.99-.4 1.67-1.34 1.74-2.41 1.25-18.09.39-31.79-2.66-45.64-.17-.77.47-1.47 1.25-1.36 13.04 1.81 27.22 3.11 45.86-.05a1.91 1.91 0 0 0 1.45-1.17c19.87-50.18 11.48-110.91-41.78-162.17-.69-.66-.5-1.8.37-2.21Z"></path></svg>