<svg xmlns="http://www.w3.org/2000/svg" width="485.8" viewBox="0 0 485.8 622.4" height="622.4" xml:space="preserve" style="enable-background:new 0 0 485.8 622.4"><path d="M485.8 242.9C485.8 108.7 377 0 242.9 0 108.7 0 0 108.7 0 242.9c0 122.3 90.5 223.5 208.1 240.4v139.2h69.5V483.3c117.7-16.9 208.2-118.1 208.2-240.4zM242.9 68.6c84.4 0 154.7 59.9 170.8 139.5H72.1c16.1-79.6 86.4-139.5 170.8-139.5zm-170.8 209h136.1v136.1C139.7 399.9 85.9 346 72.1 277.6zm205.5 136.1V277.6h136.1C399.9 346 346 399.9 277.6 413.7z"></path><path d="M242.9 188c25.5 0 46.1-20.6 46.1-46.1s-20.6-46.1-46.1-46.1-46.1 20.6-46.1 46.1c0 25.4 20.6 46.1 46.1 46.1z"></path></svg>