<svg xmlns="http://www.w3.org/2000/svg" width="632.9" viewBox="0 0 632.9 624.2" height="624.2" xml:space="preserve" style="enable-background:new 0 0 632.9 624.2"><path d="m584.6 231.1-31.7-33.5-69.8 69.8 31.7 31.8c12.5 12.5 21.2 30.9 21.2 48.6 0 17.7-8.7 36.1-21.2 48.6-25.8 25.8-69.6 25.8-95.4 0-12.6-12.6-20.3-32.7-20.3-52 0-38.4 41.8-60.8 59.8-93.3 16-28.8 22.8-56.3 22.8-85.7 0-44.2-17.2-85.7-48.4-116.9C402.1 17.2 360.6 0 316.5 0c-44.1 0-85.7 17.2-116.9 48.4-31.2 31.2-48.4 72.7-48.4 116.9 0 29.4 6.8 56.8 22.8 85.7 18 32.5 58 54.9 58 93.3 0 19.3-7.7 37.6-20.3 50.2-25.8 25.8-67.8 25.8-93.6 0-12.5-12.5-19.4-29.1-19.4-46.8 0-17.7 6.9-34.3 19.4-46.8l33.5-33.5-69.8-69.8-33.5 33.5C17.2 262.2 0 303.6 0 347.7c0 44 17.2 87.3 48.3 118.4 32.2 32.1 74.4 48.2 116.6 48.2 35.8 0 71.6-11.6 101.3-34.7v144.7h100.6V479.6c29.7 23.1 65.5 34.7 101.3 34.7 42.2 0 86.3-16.1 118.4-48.2C617.6 435 633 391.7 633 347.7c-.1-44.1-17.2-85.5-48.4-116.6zm-210.4-30.3c-2.4 4.2-5.4 8-8.6 11.7-3.6 4.2-49.1 50.4-49.1 50.4s-45.5-46.2-49.1-50.4c-3.2-3.7-6.2-7.5-8.6-11.7-6.2-10.5-8.8-22.8-8.8-35.6 0-17.8 6.9-34.5 19.5-47.1 12.6-12.6 29.3-17.7 47-17.7 17.8 0 34.5 5.1 47.1 17.7 12.6 12.6 19.5 29.3 19.5 47.1-.1 12.9-2.7 25.1-8.9 35.6z"></path></svg>