<svg xmlns="http://www.w3.org/2000/svg" id="a" width="642" viewBox="0 0 642 642" height="642" data-name="Layer 1"><defs></defs><path d="M569.77 77.87v61.82c-71.39 8.28-138.03 31.84-196.64 67.47-15.22-13.29-31.14-25.81-47.7-37.43 71.33-48.6 154.59-81.02 244.35-91.87Z" class="b"></path><path d="M569.77 144.64v58.87c-96.75 11.3-183.48 55.4-248.77 120.95a413.467 413.467 0 0 0-41.41-36.4c75.56-77.68 176.94-130.2 290.18-143.42Z" class="b"></path><path d="M569.77 208.39v56.82c-81.92 10.02-155.24 47.83-210.25 103.75-10.79-14.38-22.47-28.06-35.05-40.9 64.46-64.71 149.97-108.37 245.31-119.67Z" class="b"></path><path d="M569.77 269.96v58.87C439.96 342.12 336.6 444.97 322.66 574.59h-3.34c-3.66-34.09-13.48-66.38-28.44-95.59 48.73-111.64 153.69-193.37 278.88-209.04Z" class="b"></path><path d="M569.77 333.71v57.52c-96.62 10.4-173.66 86.99-184.77 183.36h-57.52c14-126.73 115.3-227.59 242.29-240.88Z" class="b"></path><path d="M569.77 396.05v55.6c-64.2 7.45-115.05 58.61-121.98 122.94h-57.97c11.04-93.92 85.84-168.2 179.95-178.54Z" class="b"></path><path d="M569.77 456.53v57.46c-31.91 3.34-57.27 28.7-60.6 60.6h-56.43c6.87-61.57 55.6-110.68 117.04-118.06Z" class="b"></path><path d="M569.77 518.8v55.79h-55.79c3.34-29.15 26.58-52.45 55.79-55.79ZM368.57 209.93c-16.56 10.27-32.42 21.57-47.57 33.7-69.59-55.79-154.85-92.9-248.07-103.81V77.93c112.29 13.74 214.36 61.25 295.64 132Z" class="b"></path><path d="M316.96 246.91c-14.51 11.88-28.38 24.59-41.41 38.07-57.78-43.53-127.12-72.42-202.62-81.34V144.7c91.61 10.85 175.39 47.38 244.02 102.21Z" class="b"></path><path d="M355.99 372.62A352.523 352.523 0 0 0 321 415.18c-56.43-80.76-145.48-137.13-248.07-149.97v-56.75c115.5 13.93 216.55 75.37 283.06 164.16Z" class="b"></path><path d="M317.98 419.55c-11.49 17.01-21.57 34.99-30.05 53.86-42.37-78.77-121.85-134.69-215.01-144.45v-58.94c101.37 12.97 189.45 69.21 245.05 149.52Z" class="b"></path><path d="M314.52 574.59H257c-11.04-96.17-87.76-172.63-184.06-183.29v-57.52c126.67 13.61 227.59 114.28 241.58 240.81Z" class="b"></path><path d="M252.18 574.59h-58.04c-6.93-64.14-57.33-115.11-121.21-122.81v-55.66c93.8 10.66 168.2 84.81 179.25 178.48Z" class="b"></path><path d="M189.26 574.59h-56.43c-3.34-31.65-28.31-56.88-59.9-60.54v-57.46c61.12 7.7 109.46 56.69 116.33 118Z" class="b"></path><path d="M128.01 574.59H72.93v-55.66c28.89 3.6 51.81 26.71 55.08 55.66Z" class="b"></path><path d="M569.77 73C478.22 83.91 393.41 116.98 321 166.73 248.77 117.1 164.22 84.1 72.93 73.13c-1.6-.26-3.21-.45-4.81-.58v506.86h506.47V72.48l-4.82.51ZM642 0v642H0V0c117.81 0 227.78 33.38 321 91.23C414.22 33.38 524.19 0 642 0Z" class="b"></path></svg>