<svg data-name="Layer 1" xmlns="http://www.w3.org/2000/svg" viewBox="0 0 622.02 622.02"><path d="M314.14 116.06c41.68 55.43 37.32 134.49-13.13 184.95-50.45 50.45-129.52 54.81-184.95 13.13-29.09 53.64-20.99 122.11 24.36 167.46 45.35 45.35 113.82 53.45 167.46 24.36-41.68-55.43-37.32-134.49 13.13-184.95 50.45-50.45 129.51-54.81 184.95-13.13 29.09-53.64 20.99-122.11-24.36-167.46-45.35-45.35-113.82-53.45-167.46-24.36Z"></path><path d="M530.93 91.09c-121.46-121.46-318.38-121.46-439.84 0-121.46 121.46-121.46 318.38 0 439.84 121.46 121.46 318.38 121.46 439.84 0 121.46-121.46 121.46-318.38 0-439.84Zm-9.8 430.03c-46.04 46.04-115.89 53.68-169.88 23.01-76.6 51.6-181.41 43.56-249.17-24.2-67.76-67.76-75.8-172.57-24.2-249.17-30.67-53.99-23.02-123.84 23.01-169.88 46.04-46.04 115.89-53.68 169.88-23.01 76.6-51.6 181.41-43.56 249.17 24.2 67.76 67.76 75.8 172.57 24.2 249.17 30.67 53.99 23.02 123.84-23.01 169.88Z"></path></svg>