<svg xmlns="http://www.w3.org/2000/svg" width="608.2" viewBox="0 0 608.2 608.2" height="608.2" xml:space="preserve"><path d="M304.1 0C136.1 0 0 136.1 0 304.1 0 472 136.1 608.2 304.1 608.2c167.9 0 304.1-136.1 304.1-304.1C608.2 136.1 472 0 304.1 0zm0 489.5c-102.4 0-185.4-83-185.4-185.4s83-185.4 185.4-185.4 185.4 83 185.4 185.4-83 185.4-185.4 185.4z"></path><path d="M304.1 236.4c-37.4 0-67.7 30.3-67.7 67.7 0 37.4 30.3 67.7 67.7 67.7 37.4 0 67.7-30.3 67.7-67.7 0-37.4-30.3-67.7-67.7-67.7z"></path></svg>