<svg xmlns="http://www.w3.org/2000/svg" id="a" width="442.98" viewBox="0 0 442.98 642" height="642" data-name="Layer 1"><defs></defs><circle cx="136.83" cy="419.79" r="35.71" class="b"></circle><circle cx="306.15" cy="419.79" r="35.71" class="b"></circle><path d="M442.98 503.46v3.34c0 74.66-60.54 135.21-135.21 135.21-32.81 0-62.85-11.68-86.28-31.07-23.43 19.39-53.48 31.07-86.28 31.07C60.54 642 0 581.46 0 506.79v-3.34l48.15-48.15v51.49c0 48.02 39.03 87.06 87.06 87.06 20.99 0 40.25-7.45 55.28-19.84 11.49-9.5 20.54-21.83 26-35.89-17.33-2.44-30.69-17.4-30.69-35.37 0-19.71 15.99-35.7 35.7-35.7s35.7 15.99 35.7 35.7c0 17.98-13.35 32.93-30.69 35.37 5.46 14.12 14.51 26.45 26 35.95 15.09 12.33 34.35 19.77 55.28 19.77 48.02 0 87.06-39.03 87.06-87.06v-51.49L443 503.44ZM0 221.49 221.49 0l221.49 221.49v220.69L221.49 220.69 0 442.18V221.49Zm394.83 104.44v-84.5L221.49 68.09 48.15 241.43v84.5l173.34-173.34 173.34 173.34Z" class="b"></path></svg>