<svg data-name="Layer 1" xmlns="http://www.w3.org/2000/svg" viewBox="0 0 582.08 608.12"><path d="M582.08 0h-69.7v291.2c-14.03 19.78-56.68 84.37-78.64 167.06-10.69-32.18-24.24-59.82-38.13-82.91 15.87-28.12 35.36-57.08 59.33-85.84V0h-69.7v291.04s-10.62 13.94-24.78 34.75c-16.68-20.05-30.15-32-34.58-35.75V0h-69.7v290.04c-4.43 3.75-17.9 15.71-34.58 35.75-14.15-20.81-24.78-34.75-24.78-34.75V0h-69.68v289.51c23.97 28.76 43.46 57.72 59.33 85.84-13.89 23.08-27.44 50.73-38.13 82.91-21.96-82.69-64.61-147.28-78.64-167.06V0H0v288.74c117.95 147.82 106.84 319.38 106.84 319.38h69.31c3.01-67.62 21.34-123.21 42.52-165.8 37.81 94.02 37.13 165.8 37.13 165.8h70.46s-.67-71.78 37.13-165.8c21.17 42.59 39.51 98.18 42.52 165.8h69.31s-11.11-171.56 106.84-319.38V0ZM291.04 464.13c-4.04-23.95-18.41-54.42-34.74-83.09 19.45-26.01 34.74-39.45 34.74-39.45s15.3 13.44 34.74 39.45c-16.34 28.68-30.7 59.15-34.74 83.09Z"></path></svg>