<svg xmlns="http://www.w3.org/2000/svg" width="591.4" viewBox="0 0 591.4 451" height="451"><path d="M463.3 316.6l57.9-57.9V130.5c0-34.7-13.6-67.4-38.3-92.2C458.1 13.6 425.4 0 390.7 0H71.1v68.8l57.9 57.9c-34.2.4-66.3 14-90.7 38.3C13.6 189.7 0 222.4 0 257.1v63.3c0 34.7 13.6 67.4 38.3 92.2C63 437.3 95.8 451 130.5 451h395.3l65.6-65.6v-68.8H463.3zm59.7 63.3H133.1c-33.6 0-61-27.3-61-61v-60.4c0-33.6 27.3-61 61-61h193.5l55.6 55.6H130.1v71h448.2L523 379.9zM142.1 71h248c33.6 0 61 27.3 61 61v122.7l-56.5 56.7V126.6H142.1V71zm312.8 187l-.9-.9h.9v.9zm-68.1-74.3l-49.3-49.3h49.3v49.3zm0 132.9h-249V261h249v55.6zm0-122V247L332 192.2v-52.4l54.8 54.8zm13.5 122l55.3-55.6H508l-55.6 55.6h-52.1zm77.1-272.8c23.3 23.3 36.1 54.1 36.1 86.7v122.8h-54.8V132c0-37.9-30.8-68.7-68.7-68.7H139.9L84.2 7.7h306.5c32.7 0 63.5 12.8 86.7 36.1zM78.8 13.1l55.6 55.6v52.4L78.8 65.6V13.1zm-35 394.1c-23.3-23.3-36.1-54.1-36.1-86.7v-63.3c0-32.7 12.8-63.5 36.1-86.7 23.3-23.3 54.1-36.1 86.7-36.1h193.9V190H133.1c-37.9 0-68.7 30.8-68.7 68.7V319c0 37.9 30.8 68.7 68.7 68.7h387.6v55.6H130.5c-32.7-.1-63.5-12.9-86.7-36.1zm484.6 30.3v-52.1l55.3-55.6v52.4l-55.3 55.3z"></path></svg>