<svg id="Layer_1" data-name="Layer 1" xmlns="http://www.w3.org/2000/svg" viewBox="0 0 606.6 470.99">   <path d="M159.36,222.04c12.63,0,24.31-6.74,30.62-17.68L279.35,49.57c10.65-18.44,37.26-18.44,47.91,0l89.36,154.78c6.32,10.94,17.99,17.68,30.62,17.68h159.36C597.6,98.24,465.26,0,303.3,0S9,98.24,0,222.04H159.36Z"></path>   <path d="M444.37,253.93c-12.63,0-24.3,6.74-30.62,17.68l-86.49,149.81c-10.65,18.44-37.26,18.44-47.91,0l-86.49-149.81c-6.32-10.94-17.99-17.68-30.62-17.68H.42c12.13,121.45,143.1,217.06,302.89,217.06s290.76-95.62,302.88-217.06h-161.82Z"></path> </svg>