<svg data-name="Layer 1" xmlns="http://www.w3.org/2000/svg" viewBox="0 0 618.42 566.58"><path d="M431.76 566.58h-55.73V412.42c0-14.75-4.26-29.09-12.31-41.46L178.38 85.56c-20.17-30.22-52.02-33.64-75.04-26.66-23.02 6.97-47.61 27.5-47.61 64.18v198.69H0V123.08C0 67.74 34.22 21.61 87.18 5.56c52.97-16.05 107.03 3.32 137.75 49.36l185.52 285.67c13.94 21.42 21.31 46.26 21.31 71.84v154.16Z"></path><path d="M187.25 111.17c-.36 3.92-.59 7.88-.59 11.91v198.69h55.73v-125.7l-55.14-84.9ZM597.11 340.59 411.59 54.92C380.87 8.88 326.81-10.49 273.84 5.56c-21.21 6.43-39.35 17.74-53.55 32.48 3.57 4.16 6.93 8.58 10.05 13.26l22.6 34.8c9.3-14.16 23.44-23.08 37.06-27.21 23.01-6.98 54.87-3.56 75.04 26.66l185.34 285.41c8.05 12.37 12.31 26.71 12.31 41.46v154.16h55.73V412.42c0-25.57-7.37-50.42-21.31-71.84Z"></path></svg>