<svg data-name="Layer 1" xmlns="http://www.w3.org/2000/svg" viewBox="0 0 619.79 443.51"><path d="M454.98 0c-5.47 0-10.83.34-16.12.94-5.29-.6-10.65-.94-16.12-.94s-10.83.34-16.12.94C401.33.34 395.97 0 390.5 0s-10.83.34-16.12.94C369.09.34 363.73 0 358.26 0s-10.83.34-16.12.94C336.85.34 331.49 0 326.02 0s-10.84.34-16.12.94C304.61.34 299.24 0 293.78 0s-10.83.34-16.12.94C272.37.34 267.01 0 261.54 0s-10.83.34-16.12.94C240.13.34 234.77 0 229.3 0s-10.83.34-16.12.94C207.89.34 202.53 0 197.06 0s-10.83.34-16.12.94C175.65.34 170.29 0 164.82 0 69.31 0 0 93.26 0 221.75S69.31 443.5 164.8 443.5c5.47 0 10.83-.34 16.12-.94 5.29.6 10.65.94 16.12.94s10.83-.34 16.12-.94c5.29.6 10.65.94 16.12.94s10.83-.34 16.12-.94c5.29.6 10.65.94 16.12.94s10.83-.34 16.12-.94c5.29.6 10.65.94 16.12.94s10.84-.34 16.12-.94c5.29.6 10.66.94 16.12.94s10.83-.34 16.12-.94c5.29.6 10.65.94 16.12.94s10.83-.34 16.12-.94c5.29.6 10.65.94 16.12.94s10.83-.34 16.12-.94c5.29.6 10.65.94 16.12.94s10.83-.34 16.12-.94c5.29.6 10.65.94 16.12.94 95.49 0 164.8-93.26 164.8-221.75S550.48 0 454.98 0Zm-16.12 435.51c-.44-.05-.89-.11-1.33-.16C507.9 410.07 555.3 327.98 555.3 221.76S507.9 33.44 437.53 8.16c.44-.06.89-.11 1.33-.16 83 9.97 141.66 96.77 141.66 213.76s-58.66 203.79-141.66 213.76ZM39.26 221.75c0-116.98 58.66-203.79 141.66-213.76.44.05.89.11 1.33.16-70.37 25.28-117.77 107.37-117.77 213.6s47.4 188.31 117.77 213.59c-.44.06-.89.11-1.33.16-83-9.97-141.66-96.77-141.66-213.76Zm64.48 0c0-101.17 43.87-179.78 109.42-205.64 2.96 1.17 5.86 2.46 8.72 3.84-56.45 33.99-92.92 108.61-92.92 201.79s36.47 167.8 92.92 201.79c-2.87 1.38-5.77 2.68-8.72 3.84-65.55-25.85-109.42-104.46-109.42-205.63Zm99.49 209.04c-2.05.62-4.1 1.22-6.19 1.75C122.67 413.94 71.5 331.01 71.5 221.75S122.67 29.57 197.04 10.96c2.09.52 4.14 1.12 6.19 1.75C139.1 42.36 96.72 121.28 96.72 221.75s42.38 179.39 106.51 209.04ZM383.1 19.96c-2.96 1.78-5.88 3.64-8.73 5.64-2.85-2-5.77-3.86-8.73-5.64 2.87-1.38 5.77-2.68 8.73-3.84 2.96 1.17 5.86 2.46 8.72 3.84Zm1.21-7.25c2.05-.62 4.1-1.22 6.19-1.75 2.09.52 4.14 1.12 6.19 1.75-2.09.97-4.15 2.02-6.19 3.09-2.04-1.07-4.1-2.12-6.19-3.09ZM168.23 221.75c0-83.49 29.9-151.56 77.18-187.35 3.79 2.87 7.48 5.94 11.04 9.22-39.07 39.4-62.99 102.68-62.99 178.14s23.92 138.73 62.99 178.14c-3.56 3.28-7.25 6.34-11.04 9.22-47.28-35.79-77.18-103.87-77.18-187.35Zm71.17 191.67c-3.3 2.24-6.66 4.34-10.11 6.28-56.51-31.63-93.3-105.32-93.3-197.94s36.78-166.32 93.3-197.95c3.45 1.93 6.82 4.04 10.11 6.28-47.98 37.43-78.19 106.86-78.19 191.67S191.41 376 239.4 413.43Zm118.86-18.39c-4.06-4.09-7.95-8.45-11.66-13.07 29.8-39.45 47.5-95.33 47.5-160.22s-17.7-120.77-47.5-160.22c3.71-4.62 7.6-8.98 11.66-13.07 37.86 38.1 61.06 99.72 61.06 173.28s-23.2 135.18-61.06 173.28Zm-32.24 0c-4.06-4.09-7.95-8.45-11.66-13.07 4.12-5.46 8.02-11.21 11.66-17.28 3.64 6.07 7.54 11.82 11.66 17.28-3.71 4.62-7.6 8.98-11.66 13.07Zm-32.24 0c-4.06-4.09-7.95-8.45-11.66-13.07 4.12-5.46 8.02-11.21 11.66-17.28 3.64 6.07 7.54 11.82 11.66 17.28-3.71 4.62-7.6 8.98-11.66 13.07Zm-32.24 0c-37.85-38.1-61.06-99.72-61.06-173.28s23.2-135.18 61.06-173.28c4.06 4.09 7.95 8.45 11.66 13.07-29.8 39.45-47.5 95.33-47.5 160.22s17.7 120.77 47.5 160.22c-3.71 4.62-7.6 8.98-11.66 13.07Zm-28.81-173.28c0-62.45 16.72-116.3 44.94-154.45 4.31 5.82 8.32 12.04 12.07 18.57-20.2 36.78-31.78 83.38-31.78 135.88s11.58 99.1 31.78 135.88c-3.75 6.53-7.76 12.75-12.07 18.57-28.21-38.16-44.94-92-44.94-154.45Zm61.06-173.28c4.06 4.09 7.95 8.45 11.66 13.07-4.12 5.46-8.02 11.21-11.66 17.28-3.64-6.07-7.54-11.82-11.66-17.28 3.71-4.62 7.6-8.98 11.66-13.07Zm32.24 0c4.06 4.09 7.95 8.45 11.66 13.07-4.12 5.46-8.02 11.21-11.66 17.28-3.64-6.07-7.54-11.82-11.66-17.28 3.71-4.62 7.6-8.98 11.66-13.07Zm-4.05 37.4c-4.46 8.12-8.48 16.73-12.07 25.76-3.59-9.03-7.61-17.64-12.07-25.76 3.75-6.53 7.76-12.75 12.07-18.57 4.31 5.82 8.32 12.04 12.07 18.57Zm-24.76 135.88c0-32.26 4.49-62.19 12.69-88.88 8.2 26.69 12.69 56.63 12.69 88.88s-4.49 62.19-12.69 88.88c-8.2-26.69-12.69-56.63-12.69-88.88Zm8.95 100.09c-3.6 10-7.73 19.49-12.38 28.4-18.33-35.12-28.81-79.1-28.81-128.49s10.49-93.37 28.81-128.5c4.65 8.91 8.79 18.4 12.38 28.4-10.3 29.6-15.97 63.4-15.97 100.09s5.67 70.49 15.97 100.09Zm23.45-100.09c0-36.69-5.67-70.5-15.97-100.09 3.6-10 7.73-19.49 12.38-28.4 18.33 35.12 28.81 79.11 28.81 128.5s-10.49 93.37-28.81 128.49c-4.65-8.91-8.79-18.4-12.38-28.4 10.3-29.6 15.97-63.4 15.97-100.09Zm-31.78 135.88c4.46-8.12 8.48-16.73 12.07-25.76 3.59 9.03 7.61 17.64 12.07 25.76-3.75 6.53-7.76 12.75-12.07 18.57-4.31-5.82-8.32-12.04-12.07-18.57Zm32.24 0c20.2-36.78 31.78-83.38 31.78-135.88s-11.58-99.1-31.78-135.88c3.75-6.53 7.76-12.75 12.07-18.57 28.21 38.16 44.94 92 44.94 154.45s-16.72 116.3-44.94 154.45c-4.31-5.82-8.32-12.04-12.07-18.57Zm28.19-318.9c-3.28-3.04-6.64-5.94-10.11-8.65 3.3-2.24 6.66-4.34 10.11-6.27 3.45 1.93 6.81 4.04 10.11 6.27-3.47 2.71-6.83 5.61-10.11 8.65Zm-5.08 4.88c-3.82 3.86-7.52 7.92-11.04 12.22-3.52-4.3-7.22-8.36-11.04-12.22 3.56-3.28 7.25-6.34 11.04-9.22 3.79 2.87 7.48 5.94 11.04 9.22Zm-27.16-4.88c-3.28-3.04-6.64-5.94-10.11-8.65 3.3-2.24 6.66-4.34 10.11-6.28 3.45 1.93 6.81 4.04 10.11 6.27-3.47 2.71-6.83 5.61-10.11 8.65Zm-5.08 4.88c-3.82 3.86-7.52 7.92-11.04 12.22-3.52-4.3-7.22-8.36-11.04-12.22 3.56-3.28 7.25-6.34 11.04-9.22 3.79 2.87 7.48 5.94 11.04 9.22Zm-27.16-4.88c-3.28-3.04-6.64-5.94-10.11-8.65 3.3-2.24 6.66-4.34 10.11-6.27 3.45 1.93 6.81 4.04 10.11 6.27-3.47 2.71-6.83 5.61-10.11 8.65Zm-5.08 4.88c-3.82 3.86-7.52 7.92-11.04 12.22-3.52-4.3-7.22-8.36-11.04-12.22 3.56-3.28 7.25-6.34 11.04-9.22 3.79 2.87 7.48 5.94 11.04 9.22Zm-27.16-4.88c-3.28-3.04-6.64-5.94-10.11-8.65 3.3-2.24 6.66-4.34 10.11-6.27 3.45 1.93 6.82 4.04 10.11 6.28-3.47 2.71-6.83 5.61-10.11 8.65Zm0 366.04c3.28 3.04 6.64 5.94 10.11 8.65-3.3 2.24-6.66 4.34-10.11 6.27-3.45-1.93-6.82-4.04-10.11-6.27 3.47-2.71 6.83-5.61 10.11-8.65Zm5.08-4.88c3.82-3.86 7.52-7.92 11.04-12.22 3.52 4.3 7.22 8.36 11.04 12.22-3.56 3.28-7.25 6.34-11.04 9.22-3.79-2.87-7.48-5.94-11.04-9.22Zm27.16 4.88c3.28 3.04 6.64 5.94 10.11 8.65-3.3 2.24-6.66 4.34-10.11 6.27-3.45-1.93-6.81-4.04-10.11-6.27 3.47-2.71 6.83-5.61 10.11-8.65Zm5.08-4.88c3.82-3.86 7.52-7.92 11.04-12.22 3.52 4.3 7.22 8.36 11.04 12.22-3.56 3.28-7.25 6.34-11.04 9.22-3.79-2.87-7.48-5.94-11.04-9.22Zm27.16 4.88c3.28 3.04 6.64 5.94 10.11 8.65-3.3 2.24-6.66 4.34-10.11 6.27-3.45-1.93-6.82-4.04-10.11-6.27 3.47-2.71 6.83-5.61 10.11-8.65Zm5.08-4.88c3.82-3.86 7.52-7.92 11.04-12.22 3.53 4.3 7.22 8.36 11.04 12.22-3.56 3.28-7.25 6.34-11.04 9.22-3.79-2.87-7.48-5.94-11.04-9.22Zm27.16 4.88c3.28 3.04 6.64 5.94 10.11 8.65-3.3 2.24-6.66 4.34-10.11 6.27-3.45-1.93-6.82-4.04-10.11-6.27 3.47-2.71 6.83-5.61 10.11-8.65Zm5.08-4.88c39.07-39.4 63-102.68 63-178.14s-23.92-138.73-63-178.14c3.56-3.28 7.25-6.34 11.04-9.22 47.28 35.79 77.18 103.87 77.18 187.35s-29.9 151.56-77.18 187.35c-3.79-2.87-7.48-5.94-11.04-9.22Zm95.24-178.14c0-84.81-30.2-154.24-78.19-191.67 3.3-2.24 6.66-4.34 10.11-6.28 56.51 31.63 93.3 105.32 93.3 197.94s-36.79 166.31-93.3 197.94c-3.45-1.93-6.82-4.04-10.11-6.28 47.98-37.43 78.19-106.86 78.19-191.67ZM358.26 15.8c-2.04-1.07-4.1-2.12-6.19-3.09 2.05-.62 4.11-1.22 6.19-1.75 2.09.52 4.14 1.12 6.19 1.75-2.09.97-4.15 2.02-6.19 3.09Zm-7.4 4.16c-2.96 1.78-5.88 3.64-8.72 5.64-2.85-2-5.77-3.86-8.73-5.64 2.87-1.38 5.77-2.68 8.73-3.84 2.96 1.17 5.86 2.47 8.72 3.84Zm-24.85-4.16c-2.04-1.07-4.1-2.12-6.19-3.09 2.05-.62 4.1-1.22 6.19-1.75 2.09.52 4.14 1.12 6.19 1.75-2.09.97-4.15 2.02-6.19 3.09Zm-7.4 4.16c-2.96 1.78-5.88 3.64-8.73 5.64-2.85-2-5.77-3.86-8.72-5.64 2.87-1.38 5.77-2.68 8.73-3.84 2.96 1.17 5.86 2.47 8.72 3.84Zm-24.85-4.16c-2.04-1.07-4.1-2.12-6.19-3.09 2.05-.62 4.1-1.22 6.19-1.75 2.09.52 4.14 1.12 6.19 1.75-2.09.97-4.15 2.02-6.19 3.09Zm-7.4 4.16c-2.96 1.78-5.88 3.64-8.72 5.64-2.85-2-5.77-3.86-8.73-5.64 2.87-1.38 5.77-2.68 8.73-3.84 2.96 1.17 5.86 2.47 8.72 3.84Zm-24.85-4.16c-2.05-1.07-4.1-2.12-6.19-3.09 2.05-.62 4.1-1.22 6.19-1.75 2.09.52 4.14 1.12 6.19 1.75-2.09.97-4.15 2.02-6.19 3.09Zm-7.4 4.16c-2.96 1.78-5.88 3.64-8.73 5.64-2.85-2-5.77-3.86-8.73-5.64 2.87-1.38 5.77-2.68 8.72-3.84 2.96 1.17 5.86 2.47 8.73 3.84Zm-24.85-4.16c-2.04-1.07-4.1-2.12-6.19-3.09 2.05-.62 4.1-1.22 6.19-1.75 2.09.52 4.14 1.12 6.19 1.75-2.09.97-4.15 2.02-6.19 3.09Zm0 411.9c2.04 1.07 4.1 2.12 6.19 3.09-2.05.62-4.1 1.22-6.19 1.75-2.09-.52-4.14-1.12-6.19-1.75 2.09-.97 4.15-2.02 6.19-3.09Zm7.4-4.16c2.96-1.78 5.88-3.64 8.73-5.64 2.85 2 5.77 3.86 8.73 5.64-2.87 1.38-5.77 2.68-8.73 3.84-2.96-1.17-5.86-2.46-8.72-3.84Zm24.85 4.16c2.04 1.07 4.1 2.12 6.19 3.09-2.05.62-4.11 1.22-6.19 1.75-2.09-.52-4.14-1.12-6.19-1.75 2.09-.97 4.15-2.02 6.19-3.09Zm7.4-4.16c2.96-1.78 5.88-3.64 8.73-5.64 2.85 2 5.77 3.86 8.72 5.64-2.87 1.38-5.77 2.68-8.72 3.84-2.96-1.17-5.86-2.47-8.73-3.84Zm24.85 4.16c2.04 1.07 4.1 2.12 6.19 3.09-2.05.62-4.1 1.22-6.19 1.75-2.09-.52-4.14-1.12-6.19-1.75 2.09-.97 4.15-2.02 6.19-3.09Zm7.4-4.16c2.96-1.78 5.88-3.64 8.72-5.64 2.85 2 5.77 3.86 8.73 5.64-2.87 1.38-5.77 2.68-8.72 3.84-2.96-1.17-5.86-2.47-8.73-3.84Zm24.85 4.16c2.04 1.07 4.1 2.12 6.19 3.09-2.05.62-4.1 1.22-6.19 1.75-2.09-.52-4.14-1.12-6.19-1.75 2.09-.97 4.15-2.02 6.19-3.09Zm7.4-4.16c2.96-1.78 5.88-3.64 8.73-5.64 2.85 2 5.77 3.86 8.72 5.64-2.87 1.38-5.77 2.68-8.72 3.84-2.96-1.17-5.86-2.47-8.73-3.84Zm24.85 4.16c2.05 1.07 4.1 2.12 6.19 3.09-2.05.62-4.1 1.22-6.19 1.75-2.09-.52-4.14-1.12-6.19-1.75 2.09-.97 4.15-2.02 6.19-3.09Zm7.4-4.16c2.96-1.78 5.88-3.64 8.73-5.64 2.85 2 5.77 3.86 8.73 5.64-2.87 1.38-5.77 2.68-8.72 3.84-2.96-1.17-5.86-2.47-8.73-3.84Zm24.85 4.16c2.04 1.07 4.1 2.12 6.19 3.09-2.05.62-4.1 1.22-6.19 1.75-2.09-.52-4.14-1.12-6.19-1.75 2.09-.97 4.15-2.02 6.19-3.09Zm7.4-4.16c56.45-33.99 92.92-108.61 92.92-201.79s-36.48-167.8-92.94-201.79c2.87-1.38 5.77-2.68 8.72-3.84 65.55 25.85 109.42 104.46 109.42 205.64s-43.87 179.78-109.42 205.63c-2.96-1.17-5.86-2.46-8.72-3.84Zm125.16-201.79c0-100.47-42.38-179.39-106.51-209.04 2.05-.62 4.1-1.22 6.19-1.75 74.37 18.6 125.54 101.53 125.54 210.79s-51.17 192.18-125.54 210.79c-2.09-.52-4.14-1.12-6.19-1.75 64.13-29.65 106.51-108.57 106.51-209.04ZM407.95 8.16c-.44.16-.89.31-1.33.47-.44-.16-.89-.31-1.33-.47.44-.06.89-.11 1.33-.16.44.05.89.11 1.33.16Zm-32.24 0c-.44.16-.89.31-1.33.47-.44-.16-.89-.31-1.33-.47.44-.06.89-.11 1.33-.16.44.05.89.11 1.33.16Zm-32.24 0c-.44.16-.89.31-1.33.47-.44-.16-.89-.31-1.33-.47.44-.06.89-.11 1.33-.16.44.05.89.11 1.33.16Zm-32.24 0c-.44.16-.89.31-1.33.47-.44-.16-.89-.31-1.33-.47.44-.06.89-.11 1.33-.16.44.05.89.11 1.33.16Zm-32.24 0c-.44.16-.89.31-1.33.47-.44-.16-.89-.31-1.33-.47.44-.06.89-.11 1.33-.16.44.05.89.11 1.33.16Zm-32.24 0c-.44.16-.89.31-1.33.47-.44-.16-.89-.31-1.33-.47.44-.06.89-.11 1.33-.16.44.05.89.11 1.33.16Zm-32.24 0c-.44.16-.89.31-1.33.47-.44-.16-.89-.31-1.33-.47.44-.06.89-.11 1.33-.16.44.05.89.11 1.33.16Zm-2.66 427.19c.44-.16.89-.31 1.33-.47.44.16.89.31 1.33.47-.44.06-.89.11-1.33.16-.44-.05-.89-.11-1.33-.16Zm32.24 0c.44-.16.89-.31 1.33-.47.44.16.89.31 1.33.47-.44.06-.89.11-1.33.16-.44-.05-.89-.11-1.33-.16Zm32.24 0c.44-.16.89-.31 1.33-.47.44.16.89.31 1.33.47-.44.06-.89.11-1.33.16-.44-.05-.89-.11-1.33-.16Zm32.24 0c.44-.16.89-.31 1.33-.47.44.16.89.31 1.33.47-.44.06-.89.11-1.33.16-.44-.05-.89-.11-1.33-.16Zm32.24 0c.44-.16.89-.31 1.33-.47.44.16.89.31 1.33.47-.44.06-.89.11-1.33.16-.44-.05-.89-.11-1.33-.16Zm32.24 0c.44-.16.89-.31 1.33-.47.44.16.89.31 1.33.47-.44.06-.89.11-1.33.16-.44-.05-.89-.11-1.33-.16Zm32.24 0c.44-.16.89-.31 1.33-.47.44.16.89.31 1.33.47-.44.06-.89.11-1.33.16-.44-.05-.89-.11-1.33-.16ZM7.02 221.75c0-118.11 59.82-205.43 144.09-213.98C80.13 32.58 32.24 114.97 32.24 221.75s47.89 189.17 118.87 213.99C66.84 427.18 7.02 339.87 7.02 221.75Zm461.65 213.99c70.98-24.81 118.87-107.21 118.87-213.99S539.65 32.58 468.67 7.77c84.28 8.56 144.1 95.87 144.1 213.99s-59.82 205.43-144.1 213.99Z"></path></svg>