<svg xmlns="http://www.w3.org/2000/svg" width="601.2" viewBox="0 0 601.2 443.7" height="443.7"><path d="M244.7 260.8v55.7c31.3 2.8 55.9 29.2 55.9 61.2v66.1h55.5v-66.1c0-62.7-49.5-113.9-111.4-116.9zM0 260.8v55.7c31.3 2.8 55.9 29.2 55.9 61.2v66.1h55.5v-66.1C111.4 315 61.9 263.8 0 260.8zM122.4 377.7v66.1h55.5v-66.1c0-32 24.6-58.3 55.9-61.2v-55.7c-62 3-111.4 54.2-111.4 116.9zM367.2 377.7v66.1h55.5v-66.1c0-32 24.6-58.3 55.9-61.2v-55.7c-61.9 3-111.4 54.2-111.4 116.9zM367.2 64.7v55.7c31.3 2.8 55.9 29.2 55.9 61.2v66.1h55.5v-66.1c0-62.7-49.4-114-111.4-116.9zM122.4 64.7v55.7c31.3 2.8 55.9 29.2 55.9 61.2v66.1h55.5v-66.1c0-62.7-49.5-114-111.4-116.9zM300.2 181.5c0-32 24.6-58.3 55.9-61.2V64.7c-61.9 2.9-111.4 54.2-111.4 116.8v66.1h55.5v-66.1zM489.8 181.5v66.1h55.5v-66.1c0-32 24.6-58.3 55.9-61.2V64.7c-62 2.9-111.4 54.2-111.4 116.8z"></path><circle cx="116.7" cy="247.6" r="51.6"></circle><circle cx="361.5" cy="247.6" r="51.7"></circle><path d="M291.1 51.6C291.1 23.1 268 0 239.5 0s-51.7 23.1-51.7 51.6 23.1 51.7 51.7 51.7c28.5 0 51.6-23.1 51.6-51.7z"></path><ellipse transform="rotate(-9.213 484.205 51.603)" cx="484.2" cy="51.6" rx="51.7" ry="51.6"></ellipse></svg>