<svg xmlns="http://www.w3.org/2000/svg" width="642" viewBox="0 0 642 642" height="642" style="overflow:visible;enable-background:new 0 0 642 642" xml:space="preserve"><path d="M478.7 41.1c-31-4.4-63.7-.9-94.8 12-68.4 28.3-110.2 93.7-112 163.2-3.3 1.5-6.6 3.3-9.7 5.1-.2-75.2 44.2-146.7 118.1-177.2 25.1-10.3 51-14.9 76.5-14.5 7.4 3.5 14.8 7.3 21.9 11.4z"></path><path d="M276.7 49.4c-52.4 52.4-66.1 128.8-41.1 193.8-2.4 2.7-4.8 5.5-7 8.4-29-69.4-15.3-152.5 41.3-209C289 23.4 311.2 9.3 334.9 0c8.3.3 16.5 1 24.7 2-30.4 7.8-59.2 23.6-82.9 47.4z"></path><path d="M176.1 87c-28.3 68.4-11.7 144.2 36.2 194.7-1.3 3.4-2.3 6.9-3.3 10.5-53.3-53-72.4-135-41.8-208.8 10.3-25.1 25.6-46.7 44-64.5 7.7-2.8 15.6-5.2 23.5-7.5C209.6 30.3 189 55.9 176.1 87z"></path><path d="M206.6 337.2C137 308.6 88 240.2 88 160.3c0-27.1 5.7-52.8 15.9-76.2 6-5.5 12.4-10.8 18.8-15.9-15.9 27-25.1 58.4-25.1 92 0 74.1 44.3 137.8 108 166 .2 3.8.5 7.4 1 11z"></path><path d="M221.5 379.8c-75.2.2-146.7-44.2-177.3-118.1-10.3-25.1-14.9-51-14.5-76.5 3.5-7.5 7.3-14.8 11.3-21.9-4.4 31-.8 63.7 12.1 94.8 28.3 68.4 93.7 110.3 163.2 112 1.6 3.3 3.4 6.5 5.2 9.7z"></path><path d="M251.6 413.4c-69.4 29-152.5 15.3-209-41.2C23.5 353 9.4 330.8 0 307.1c.4-8.3 1.1-16.5 2.1-24.6 7.8 30.3 23.6 59.1 47.4 82.8 52.4 52.4 128.8 66.1 193.8 41.1 2.6 2.4 5.3 4.7 8.3 7z"></path><path d="M292.2 432.9c-53 53.3-135 72.4-208.8 41.9-25.1-10.4-46.8-25.6-64.5-44-2.8-7.7-5.2-15.6-7.5-23.5 19 25.2 44.6 45.7 75.7 58.6 68.4 28.3 144.2 11.7 194.7-36.2 3.3 1.2 6.9 2.3 10.4 3.2z"></path><path d="M337.3 435.4C308.7 505 240.2 554 160.3 554c-27.1 0-52.8-5.7-76.2-15.9-5.5-6-10.9-12.3-15.9-18.8 27 15.9 58.5 25.1 92.1 25.1 74.1 0 137.8-44.3 166-108 3.7-.2 7.4-.5 11-1z"></path><path d="M379.8 420.5c.2 75.3-44.2 146.7-118.1 177.3-25.1 10.4-51 14.9-76.5 14.5-7.5-3.5-14.8-7.3-21.9-11.3 31 4.4 63.7.8 94.8-12.1 68.4-28.3 110.2-93.6 112-163.2 3.3-1.6 6.6-3.4 9.7-5.2z"></path><path d="M372.2 599.4c-19.2 19.2-41.3 33.3-65 42.6-8.3-.4-16.5-1.1-24.7-2.1 30.4-7.8 59.1-23.6 82.9-47.4 52.4-52.4 66.1-128.8 41.1-193.7 2.4-2.7 4.8-5.5 7-8.5 28.9 69.6 15.2 152.6-41.3 209.1z"></path><path d="M474.8 558.6c-10.3 25.1-25.6 46.7-44 64.4-7.7 2.8-15.6 5.3-23.5 7.5 25.1-18.8 45.6-44.5 58.5-75.6 28.3-68.4 11.7-144.2-36.2-194.7 1.3-3.4 2.3-6.9 3.3-10.5 53.4 53.1 72.5 135.1 41.9 208.9z"></path><path d="M554 481.6c0 27.1-5.7 52.8-15.9 76.2-6 5.6-12.4 10.9-18.8 15.9 15.9-27 25.1-58.5 25.1-92.1 0-74-44.3-137.7-108-166-.2-3.7-.5-7.3-1-10.9C505 333.3 554 401.8 554 481.6z"></path><path d="M600.9 478.8c4.4-31.1.8-63.7-12.1-94.8-28.3-68.4-93.7-110.3-163.2-112.1-1.5-3.3-3.3-6.6-5.1-9.7 75.3-.2 146.7 44.3 177.3 118.1 10.3 25.1 14.9 51 14.5 76.5-3.6 7.5-7.4 14.8-11.4 22z"></path><path d="M642 334.9c-.4 8.3-1.1 16.5-2.1 24.7-7.8-30.4-23.6-59.1-47.4-82.9-52.4-52.4-128.8-66-193.8-41-2.7-2.5-5.5-4.8-8.4-7 69.4-29.1 152.5-15.3 209 41.2 19.2 19.1 33.3 41.3 42.7 65z"></path><path d="M630.5 234.6C611.6 209.5 586 189 554.9 176c-68.4-28.3-144.2-11.7-194.7 36.2-3.4-1.2-6.9-2.3-10.5-3.2 53-53.4 135-72.5 208.8-41.9 25.1 10.4 46.8 25.6 64.5 44 2.9 7.7 5.2 15.6 7.5 23.5z"></path><path d="M573.8 122.6c-27-15.9-58.5-25.1-92.1-25.1-74.1 0-137.8 44.4-166 108-3.7.2-7.3.5-10.9 1 28.6-69.6 97-118.6 176.9-118.6 27.1 0 52.8 5.7 76.2 15.9 5.4 6.1 10.8 12.4 15.9 18.8z"></path></svg>