<svg xmlns="http://www.w3.org/2000/svg" width="609.8" viewBox="0 0 609.8 369.4" height="369.4" xml:space="preserve"><path d="M541.7 369.4c-17 0-34-6.3-47.3-19.1L252.7 117.1C225.6 91 224.9 47.9 251 20.8c26-27 69.1-27.8 96.2-1.7L589 252.3c27.1 26.1 27.8 69.2 1.7 96.2-13.4 13.9-31.2 20.9-49 20.9zM304.2 369.4c-17.2 0-34.4-6.5-47.6-19.4L135.5 231.4c-26.9-26.3-27.3-69.4-1-96.3 26.3-26.9 69.4-27.3 96.2-1l121.1 118.6c26.9 26.3 27.3 69.4 1 96.3-13.3 13.6-31 20.4-48.6 20.4zM135.9 301.5c0 37.5-30.4 67.9-67.9 67.9-37.6 0-68-30.4-68-67.9 0-37.5 30.4-67.9 67.9-67.9 37.5-.1 68 30.4 68 67.9z"></path></svg>