<svg data-name="Layer 1" xmlns="http://www.w3.org/2000/svg" viewBox="0 0 630.3 630.3"><path d="M468.03 255.21c-8.3-3.01-17.08-4.24-25.91-4.13-36.2.47-57.21 19.72-78.01 60.77-.2.4-.77.32-.83-.12-4.36-30.51-24.12-53.57-48-53.63-23.8.06-43.56 23.12-47.92 53.63-.06.44-.63.52-.83.13-21.07-41.58-42.35-60.79-79.39-60.79-19.19 0-37.89 7.64-51.59 21.07-14.35 14.07-22 33.97-21.65 53.99.17 9.87 2.26 19.71 6.21 28.76 14.21 32.59 50.8 51.05 85.11 51.05 50.23 0 92.85-24.44 109.7-80.03.13-.43.71-.43.84 0 16.84 55.58 59.47 80.03 109.7 80.03 15.15 0 30.3-3.33 43.93-9.97 27.46-13.38 47.15-40.6 47.06-71.59-.08-29.08-16.64-57.66-48.4-69.17Z"></path><path d="M601.3 244.85 385.45 29c-38.67-38.67-101.94-38.67-140.6 0L29 244.85c-38.67 38.66-38.67 101.94 0 140.61l215.85 215.85c38.67 38.66 101.94 38.66 140.6 0L601.3 385.46c38.67-38.67 38.67-101.94 0-140.61ZM482.39 409.31v.12l-67.65 14.13c-48.87 10.23-83.88 53.32-83.88 103.25v47.12h-31.42v-47.12c0-49.93-35.01-93.02-83.88-103.25l-67.66-14.13v-.12c-47.15-10.43-81.09-53.52-78.05-102.95 3.36-54.75 50.76-96.39 105.87-93 35.6 2.19 65.62 22.68 81.56 51.64.42.77 1.5.55 1.6-.32 1.66-13.52 6-25.78 12.19-35.92v-81.3c-11.01-3.18-18.71-14.18-16.34-26.68 1.66-8.73 8.54-15.98 17.2-17.98 15.18-3.51 28.66 7.93 28.66 22.51 0 10.55-7.11 19.36-16.77 22.14v65.83c7.31-6.48 15.8-10.73 24.94-12.1v-92.24c-14.38-3.36-24.53-17.72-20.89-33.77 2.3-10.13 10.51-18.38 20.64-20.7 18.36-4.21 34.65 9.62 34.65 27.25 0 13.27-9.25 24.33-21.64 27.22v92.25c9.15 1.37 17.63 5.62 24.94 12.09v-65.83c-11.01-3.18-18.71-14.18-16.33-26.68 1.66-8.73 8.54-15.98 17.2-17.98 15.18-3.51 28.66 7.93 28.66 22.51 0 10.55-7.11 19.36-16.77 22.14v81.3c6.19 10.14 10.53 22.41 12.19 35.92.11.87 1.18 1.09 1.6.32 15.94-28.96 45.96-49.46 81.56-51.64 55.11-3.38 102.51 38.25 105.87 93 3.04 49.43-30.9 92.52-78.06 102.95Z"></path></svg>