<svg xmlns="http://www.w3.org/2000/svg" width="575.8" viewBox="0 0 575.8 350.6" height="350.6"><path d="M428.6 143.8c0-14.6 9.9-26.9 23.3-30.7C426.8 47 362.8 0 287.9 0c-96.8 0-175.3 78.5-175.3 175.3v.6c1-.1 1.9-.1 2.9-.1 17.6 0 31.9 14.3 31.9 31.9 0 14.6-9.8 26.8-23.1 30.6 25.3 65.7 89 112.3 163.6 112.3 96.7 0 175.1-78.3 175.3-175-.9.1-1.8.1-2.7.1-17.7 0-31.9-14.3-31.9-31.9zm-223.7 95.8c-17.6 0-31.9-14.3-31.9-31.9 0-17.6 14.3-31.9 31.9-31.9s31.9 14.3 31.9 31.9c0 17.6-14.3 31.9-31.9 31.9zm83-32.4c-17.6 0-31.9-14.3-31.9-31.9s14.3-31.9 31.9-31.9 31.9 14.3 31.9 31.9-14.3 31.9-31.9 31.9zm83.5-31.5c-17.6 0-31.9-14.3-31.9-31.9s14.3-31.9 31.9-31.9 31.9 14.3 31.9 31.9-14.3 31.9-31.9 31.9z"></path><circle transform="rotate(-13.286 31.882 175.27)" cx="31.9" cy="175.3" r="31.9"></circle><path d="M83.6 207.7c0 17.6 14.3 31.9 31.9 31.9 3 0 6-.5 8.8-1.3-7.5-19.4-11.6-40.4-11.7-62.4-16.3 1.5-29 15.1-29 31.8zM460.5 111.9c-3 0-5.9.4-8.6 1.2 7.3 19.3 11.4 40.3 11.4 62.2v.3c16.3-1.4 29.2-15.1 29.2-31.8-.1-17.6-14.4-31.9-32-31.9z"></path><circle transform="rotate(-45.001 543.889 175.312)" cx="543.9" cy="175.3" r="31.9"></circle></svg>