<svg xmlns="http://www.w3.org/2000/svg" width="607" viewBox="0 0 607 606.7" height="606.7" xml:space="preserve"><path d="M604.1 340.6c-4.4-16-13.9-29.8-26.8-39.7 11.8-9.7 20.6-22.9 24.8-38.1 3.6-13.3 3.5-28 1-41.5-6-31.9-28.1-52.5-61.9-52.5h-103V68.5c-.7-9.6-2.8-19.2-6.8-28-15.1-33.4-56.1-47-90.4-37.6-16 4.4-29.8 13.9-39.7 26.8-9.7-11.9-22.9-20.7-38.1-24.8-13.3-3.6-28-3.5-41.5-1-31.9 6-52.5 28.1-52.5 61.9v103h-.4v-.4H68.5c-9.6.7-19.2 2.8-28 6.8-33.5 15.1-47 56.1-37.6 90.4 4.4 16 13.9 29.8 26.8 39.7-11.9 9.7-20.7 23-24.8 38.1-3.6 13.3-3.5 28-1 41.5 6 31.9 28.1 52.5 61.9 52.5h103V495h.4v43.1c.7 9.6 2.8 19.2 6.8 28 15.1 33.5 56.1 47 90.4 37.6 16-4.4 29.8-13.9 39.7-26.8 9.7 11.8 22.9 20.6 38.1 24.8 13.3 3.6 28 3.5 41.5 1 31.9-6 52.5-28.1 52.5-61.9v-103h100.4c9.6-.7 19.2-2.8 28-6.8 33.3-15.1 46.9-56.1 37.5-90.4zm-275.5-255c0-15.3 12.5-25.5 27.9-25.5s27.9 12.5 27.9 27.9v80.9h-55.8V85.6zM88 222.3l80.8.4V278H85.6c-15.3 0-25.5-12.5-25.5-27.9s12.5-27.8 27.9-27.8zm190.7 298.8c0 15.3-12.5 25.5-27.9 25.5S223 534 223 518.7v-80.8h55.8v83.2zM519.1 384h-80.9v-55.8h83.2c15.3 0 25.5 12.5 25.5 27.9S534.4 384 519.1 384zm27.8-136.7c0 15.3-12.5 27.9-27.9 27.9l-131.4-.2v246c0 15.3-12.5 25.5-27.9 25.5-15.3 0-27.9-12.5-27.9-27.9V386.9H85.6c-15.3 0-25.5-12.5-25.5-27.9 0-15.3 12.5-27.9 27.9-27.9l129.9.1h1.8V85.6c0-15.3 12.5-25.5 27.9-25.5 15.3 0 27.9 12.5 27.9 27.9l-.1 131.4h246c15.3 0 25.5 12.5 25.5 27.9z"></path></svg>