<svg xmlns="http://www.w3.org/2000/svg" width="627.5" viewBox="0 0 627.5 627.5" height="627.5" style="enable-background:new 0 0 627.5 627.5" xml:space="preserve"><path d="M486.5 0H140.9C63.2 0 0 63.2 0 140.9v345.6c0 77.7 63.2 140.9 140.9 140.9h345.6c77.5 0 140.5-63.2 140.5-140.9h.4V140.9C627.5 63.2 564.2 0 486.5 0zm85.7 140.9V375c-23.7-18.4-53.4-29.5-85.7-29.5h-85.7V140.9c0-47.2 38.4-85.7 85.7-85.7s85.7 38.5 85.7 85.7zm-290.3 141h63.7v63.7h-63.7v-63.7zm-141-226.6h233.9c-18.3 23.8-29.3 53.4-29.3 85.7v85.7H140.9c-47.2 0-85.7-38.4-85.7-85.7.1-47.3 38.5-85.7 85.7-85.7zM55.3 486.5V252.6c23.8 18.3 53.4 29.3 85.7 29.3h85.7v204.6c0 47.2-38.4 85.7-85.7 85.7s-85.7-38.4-85.7-85.7zm431.2 85.7H252.6c18.3-23.8 29.3-53.4 29.3-85.7v-85.7h204.6c47 0 85.2 38.4 85.2 85.7s-38.2 85.7-85.2 85.7z"></path></svg>