<svg data-name="Layer 1" xmlns="http://www.w3.org/2000/svg" viewBox="0 0 580.33 610.2"><path d="M275.23 610.2H0V0h275.23c168.23 0 305.1 136.87 305.1 305.1s-136.87 305.1-305.1 305.1ZM41.62 568.58h233.61c145.28 0 263.48-118.2 263.48-263.48S420.51 41.62 275.23 41.62H41.62v526.96Z"></path><path d="M280.68 511.41c-113.76 0-206.3-92.55-206.3-206.31s92.54-206.31 206.3-206.31 206.31 92.55 206.31 206.31-92.55 206.31-206.31 206.31Zm0-350.18c-79.33 0-143.87 64.54-143.87 143.87s64.54 143.88 143.87 143.88 143.88-64.54 143.88-143.88-64.54-143.87-143.88-143.87Z"></path></svg>