<svg data-name="Layer 1" xmlns="http://www.w3.org/2000/svg" viewBox="0 0 615.8 617.48"><path d="M0 176.66 176.66 0H0v176.66zM176.66 0h87.49v87.49h-87.49zM176.66 176.66H0v176.67l176.66-176.67zM176.66 176.66h87.49v87.49h-87.49zM176.66 353.33H0v176.66l176.66-176.66z"></path><path d="M176.66 353.33h87.49v87.49h-87.49zM0 529.99h264.15v87.49H0zM615.8 617.48V440.82L439.14 617.48H615.8zM351.65 529.99h87.49v87.49h-87.49zM615.8 440.82V264.15L439.14 440.82H615.8zM351.65 353.33h87.49v87.49h-87.49zM615.8 264.15V87.49L439.14 264.15H615.8zM351.65 176.66v87.49h87.49v-87.49h-87.49zM351.65 0H615.8v87.49H351.65z"></path></svg>