<svg xmlns="http://www.w3.org/2000/svg" viewBox="0 0 591.6 642"><path d="M453.33 296.92H138.27V258.4l157.53-73.46 157.53 73.46v38.52Zm-91.16-38.52-66.37-30.95-66.37 30.95h132.74ZM414.81 326.62h38.52v166.92h-38.52zM345.68 326.62h38.52v166.92h-38.52zM276.54 326.62h38.52v166.92h-38.52zM207.41 326.62h38.52v166.92h-38.52zM138.27 326.62h38.52v166.92h-38.52zM138.27 523.23h315.06v38.52H138.27zM138.27 603.48h315.06V642H138.27zM483.92 208.77c0-10.64 8.62-19.26 19.26-19.26 10.64 0 19.26 8.62 19.26 19.26v352.98h-38.52V208.77Z"></path><path d="M503.2 120.38c-48.86 0-88.4 39.55-88.4 88.4v3.34l38.65 18.04v-21.38c0-27.48 22.28-49.76 49.76-49.76s49.76 22.28 49.76 49.76l.06 352.97h38.58V208.78c0-48.86-39.61-88.4-88.4-88.4ZM107.69 208.77c0-10.64-8.62-19.26-19.26-19.26-10.64 0-19.26 8.62-19.26 19.26v352.98h38.52V208.77Z"></path><path d="M0 208.78v352.97h38.58l.06-352.97c0-27.48 22.28-49.75 49.76-49.75s49.75 22.28 49.75 49.76v21.38l38.65-18.04v-3.34c0-48.86-39.55-88.4-88.4-88.4C39.61 120.37 0 159.92 0 208.78ZM354.48 62.59l16.24 102.33 4.56 28.76-42.12-19.65-17.85-112.54c9.76-5.78 18.81-12.52 27.03-20.22-10.53-2.12-19.07-2.76-30.69-2.76h-44.43c-6.29 0-11.68 4.56-12.65 10.85l-21.64 136.55-35.05 16.37L229.87 0h95.72c9.37 0 17.53 5.39 21.51 13.23 3.02 5.52 8.8 9.24 15.54 9.24h18.23c7.45 0 13.67 5.07 15.54 11.88l10.02 37.49C398.15 66 388 62.6 377.03 62.6H354.5Z"></path></svg>