<svg xmlns="http://www.w3.org/2000/svg" width="604.9" viewBox="0 0 604.9 551.6" height="551.6"><path d="M129.8 340.9c-44.6 0-80.9 36.3-80.9 80.9 0 44.6 36.3 80.9 80.9 80.9 44.6 0 80.9-36.3 80.9-80.9 0-44.6-36.3-80.9-80.9-80.9zm0 136.8c-30.8 0-55.8-25-55.8-55.8 0-30.8 25-55.8 55.8-55.8 30.8 0 55.8 25 55.8 55.8 0 30.7-25.1 55.8-55.8 55.8z"></path><path d="M129.8 383.9c-21 0-38 17-38 38s17 38 38 38 38-17 38-38-17.1-38-38-38zm0 53.4c-8.5 0-15.5-6.9-15.5-15.5 0-8.5 6.9-15.5 15.5-15.5s15.5 6.9 15.5 15.5-7 15.5-15.5 15.5z"></path><path d="M475.1 292.1h-1.4L356.9 36.3c-5.2-11.3-13.5-20.7-24.1-27.2-9.7-6-21-9.1-32.4-9.1h-.1c-11.4 0-22.6 3.1-32.4 9.1-10.6 6.4-18.9 15.8-24.1 27.2L126.3 292.1C56.3 294 0 351.5 0 421.9c0 71.6 58.2 129.8 129.8 129.8s129.8-58.2 129.8-129.8c0-34.9-13.8-66.6-36.3-90l77-167.6 78.2 171.1c-20.5 23-33 53.3-33 86.4 0 71.6 58.2 129.8 129.8 129.8s129.8-58.2 129.8-129.8c-.2-71.5-58.4-129.7-130-129.7zM129.8 522.7c-55.6 0-100.9-45.3-100.9-100.9 0-55.6 45.3-100.9 100.9-100.9s100.9 45.3 100.9 100.9c0 55.7-45.3 100.9-100.9 100.9zm345.3 0c-55.6 0-100.9-45.3-100.9-100.9 0-55.6 45.3-100.9 100.9-100.9S576 366.2 576 421.9c0 55.6-45.2 100.8-100.9 100.8z"></path><path d="M475.1 340.9c-44.6 0-80.9 36.3-80.9 80.9 0 44.6 36.3 80.9 80.9 80.9 44.6 0 80.9-36.3 80.9-80.9.1-44.6-36.2-80.9-80.9-80.9zm0 136.8c-30.8 0-55.8-25-55.8-55.8 0-30.8 25-55.8 55.8-55.8 30.8 0 55.8 25 55.8 55.8 0 30.7-25 55.8-55.8 55.8z"></path><path d="M475.1 383.9c-21 0-38 17-38 38s17 38 38 38 38-17 38-38-17-38-38-38zm0 53.4c-8.5 0-15.5-6.9-15.5-15.5 0-8.5 6.9-15.5 15.5-15.5 8.5 0 15.5 6.9 15.5 15.5s-6.9 15.5-15.5 15.5z"></path></svg>