<svg xmlns="http://www.w3.org/2000/svg" width="599.5" viewBox="0 0 599.5 588.5" height="588.5" xml:space="preserve"><path d="M540 483.2h-80.2c-25.4 0-46-20.7-46-46V155.6c0-15.9-6.2-30.7-17.5-41.8-11.4-11.1-26.3-17.1-42.2-16.8-15.1.3-28.8 6.4-39.1 16.2V58.7C315 26.3 288.6 0 256.3 0c-32.4 0-58.7 26.3-58.7 58.7v59.4c-10.5-9.9-24.6-15.9-40.1-15.9-32.4 0-58.7 26.3-58.7 58.7v53.3c-10.5-9.9-24.6-15.9-40.1-15.9C26.3 198.2 0 224.5 0 256.9v331.7h18.6V256.9c0-22.1 18-40.1 40.1-40.1s40.1 18 40.1 40.1v235.6h18.6V160.9c0-22.1 18-40.1 40.1-40.1s40.1 18 40.1 40.1v331.7h18.6V58.7c0-22.1 18-40.1 40.1-40.1s40.1 18 40.1 40.1V492.6H315V156.5c0-22.2 17.7-40.6 39.4-40.9 10.8-.2 21.1 3.9 28.8 11.5 7.7 7.6 12 17.8 12 28.6v281.6c0 35.6 29 64.6 64.6 64.6H540c22.6 0 40.9 18.4 40.9 40.9v45.8h18.6v-45.8c0-32.9-26.7-59.6-59.5-59.6"></path></svg>