<svg data-name="Layer 1" xmlns="http://www.w3.org/2000/svg" viewBox="0 0 618.95 568.07"><path d="M235.2 217.62v137.49c17.23-17.79 56.2-55.8 109.72-94.37 42.93-30.91 86.66-56.2 130.09-75.11 48.65-21.18 97-34.36 143.93-39.28V41.96c-51.85 4.97-105.06 19.26-158.47 42.52-45.76 19.92-91.83 46.52-136.83 78.96-19.21 13.84-36.59 27.57-51.85 40.39V55.6L.1 292.72v130.25l235.2-205.25-.1-.1Z"></path><path d="M351.46 269.87C279.44 321.77 234.24 372.5 233.78 373l-9.83 11.1V242.35L0 437.82v130.25l187.46-163.59v157.77s234.8-300.02 431.43-300.02V157.78c-108.05 11.71-204.39 66.74-267.44 112.2v-.1Z"></path><circle cx="356.78" cy="52.3" r="52.3"></circle></svg>