<svg xmlns="http://www.w3.org/2000/svg" width="589.4" viewBox="0 0 589.4 615.9" height="615.9" xml:space="preserve"><path d="M0 0v615.9h589.4V0H0zm219.4 410.9h-24.5c-19.3 0-28 10.9-28 28V592h-128V436.6c0-85.8 69.6-155.4 155.4-155.4h25.2v129.7zm166.6 181c-85.8 0-155.4-69.6-155.4-155.4V254.3H55.2V136h175.4V22.3h128.1V136h181.1v118.3H358.7v180.8c0 15.2 12.3 27.6 27.6 27.6 15.2 0 27.6-12.3 27.6-27.6 0-15.2-12.3-27.6-27.6-27.6h-16V281.2H386c85.8 0 155.4 69.6 155.4 155.4 0 85.8-69.6 155.3-155.4 155.3z"></path></svg>