<svg data-name="Layer 1" xmlns="http://www.w3.org/2000/svg" viewBox="0 0 611.9 613.59"><path d="m542.17 307.22 46.21-46.21c31.36-31.36 31.36-82.38 0-113.73-31.36-31.36-82.38-31.36-113.74 0L314.69 307.23l159.95 159.95c31.36 31.36 82.38 31.36 113.73 0 31.36-31.36 31.36-82.38 0-113.73l-46.22-46.21Zm-.27 113.46c-5.63 5.63-15.13 5.63-20.76 0L407.68 307.22l113.46-113.46c5.63-5.63 15.14-5.62 20.76 0 5.63 5.63 5.62 15.13 0 20.76l-92.7 92.7 92.7 92.7c5.63 5.63 5.62 15.13 0 20.76ZM306.37 297.2l159.95-159.95c31.36-31.36 31.36-82.38 0-113.73-31.36-31.36-82.38-31.36-113.73 0l-46.22 46.22-46.21-46.21c-31.36-31.36-82.38-31.36-113.73 0-31.36 31.36-31.36 82.38 0 113.74l159.95 159.95ZM192.91 70.01c5.62-5.63 15.13-5.63 20.76 0l92.7 92.7 92.71-92.7c5.63-5.63 15.13-5.63 20.76 0 5.62 5.63 5.63 15.13 0 20.76L306.38 204.23 192.92 90.77c-5.63-5.63-5.62-15.13 0-20.76ZM297.2 306.37 137.25 146.42c-31.36-31.36-82.38-31.36-113.73 0-31.36 31.36-31.36 82.38 0 113.73l46.22 46.22-46.21 46.21c-31.36 31.36-31.36 82.38 0 113.73 31.36 31.36 82.38 31.36 113.74 0l159.95-159.95ZM70 419.83c-5.62-5.62-5.62-15.13 0-20.76l92.7-92.7-92.71-92.7c-5.62-5.63-5.62-15.13 0-20.76 5.62-5.63 15.13-5.63 20.76 0l113.46 113.46L90.75 419.83c-5.63 5.63-15.14 5.62-20.76 0ZM305.53 316.39 145.58 476.34c-31.36 31.36-31.36 82.37 0 113.73s82.38 31.36 113.73 0l46.22-46.22 46.21 46.21c31.36 31.36 82.38 31.36 113.73 0 31.36-31.36 31.36-82.38 0-113.74L305.52 316.37Zm113.46 227.2c-5.63 5.63-15.13 5.62-20.76 0l-92.7-92.7-92.71 92.7c-5.62 5.63-15.13 5.62-20.76 0-5.63-5.63-5.63-15.13 0-20.76l113.46-113.46 113.46 113.46c5.63 5.62 5.62 15.13 0 20.76Z"></path></svg>