<svg data-name="Layer 1" xmlns="http://www.w3.org/2000/svg" viewBox="0 0 595.57 517.87"><path d="M97.21 0C37.48 54.46 0 132.89 0 220.09 0 369.28 109.71 492.83 252.86 514.5V288.37c0-120.6-61.92-226.69-155.65-288.37ZM498.37 0c-93.73 61.68-155.65 167.77-155.65 288.37V514.5c143.14-21.66 252.86-145.22 252.86-294.41 0-87.19-37.48-165.63-97.21-220.09ZM297.79 293.89c-2.17 0-3.94 1.77-3.94 3.94v216.11c0 2.17 1.77 3.94 3.94 3.94s3.94-1.77 3.94-3.94V297.83c0-2.17-1.77-3.94-3.94-3.94Z"></path><circle cx="297.79" cy="104.05" r="53.19" transform="rotate(-67.5 297.787 104.049)"></circle></svg>