<svg xmlns="http://www.w3.org/2000/svg" width="584.7" viewBox="0 0 584.7 584.7" height="584.7"><path d="M0 0v584.7h584.7V0H0zm298.4 133.7l-18.6 56.2h-55.4l18.6-56.2h55.4zm-62.3 0l-18.6 56.2h-25.2l18.6-56.2h25.2zm-33.4 0l-18.6 56.2h-18.6l18.6-56.2h18.6zm-28.1 0L156 189.9h-11.7l18.6-56.2h11.7zm-22.6 0l-18.6 56.2h-7.7l18.6-56.2h7.7zm-24.1 0h3.5l-18.6 56.2h-3.5l18.6-56.2zM23.8 448.4l81.6-246.5h3.5L27.3 448.4h-3.5zm16.4 0l81.6-246.5h7.7L47.9 448.4h-7.7zm18.6 0l81.6-246.5H152L70.5 448.4H58.8zm21.1 0l81.6-246.5h18.6L98.5 448.4H79.9zm26.9 0l81.6-246.5h25.2L132 448.4h-25.2zm32.1 0l81.6-246.5h55.4l-81.6 246.5h-55.4zm81.5 0L302 201.9h3.5l-81.6 246.5h-3.5zm16.4 0l81.6-246.5h7.7l-81.6 246.5h-7.7zm18.6 0L337 201.9h11.7l-81.6 246.5h-11.7zm21.1 0l81.6-246.5h18.6l-81.6 246.5h-18.6zm26.8 0l81.6-246.5h25.2l-81.6 246.5h-25.2zm205.8-90.8l-88.2-.7-30 90.7h-55.4L417 201.2l143.6.7-51.5 155.7z"></path><path d="M486.9 249.2h-24.1L443 309h24.1z"></path></svg>