<svg xmlns="http://www.w3.org/2000/svg" width="608.6" viewBox="0 0 608.6 608.6" height="608.6" xml:space="preserve"><path d="M143.4 304.3c0-88.9 72-160.9 160.9-160.9s160.9 72 160.9 160.9c0 44.5-18.1 84.8-47.2 113.9L304.1 304.3l.2 73.9 120.5 120.5c14.9-9.3 28.7-20.2 41.1-32.6 41.5-41.4 67.1-98.6 67.1-161.9 0-126.4-102.4-228.8-228.8-228.8S75.5 177.9 75.5 304.3c0 126.3 102.4 228.8 228.7 228.8v-67.7l-.1-.1v-.1c-88.8-.1-160.7-72.1-160.7-160.9z"></path><path d="M304.3 0C136.2 0 0 136.2 0 304.3c0 168.1 136.2 304.3 304.3 304.3v-65.1c-132.1 0-239.2-107.1-239.2-239.2S172.2 65.1 304.3 65.1s239.2 107.1 239.2 239.2c0 66.1-26.8 126-70.2 169.3-12.4 12.4-26.1 23.4-40.9 32.8-2.6 1.7-5.3 3.3-7.9 4.8L304.1 390.8v74.4h.2v.2L419.9 581l3.4 3.4c17-7.2 33.2-15.9 48.4-26 2.6-1.7 5.1-3.4 7.6-5.2 78.2-55.1 129.3-146 129.3-248.9C608.6 136.2 472.4 0 304.3 0z"></path></svg>