<svg xmlns="http://www.w3.org/2000/svg" id="a" width="642" viewBox="0 0 642 642" height="642" data-name="Layer 1"><defs></defs><path d="M321 321v160.5H160.5V642H0V160.5h160.5V321H321ZM147.66 629.16v-160.5h160.5V333.84h-160.5v-160.5H12.84v455.82h134.82Zm-131.61-3.21v-449.4h128.4v160.5h160.5v128.4h-160.5v160.5H16.05Zm118.77-9.63v-160.5h160.5V346.68h-160.5v-160.5H25.68v430.14h109.14ZM30.49 611.5V190.99H130v160.5h160.5V451H130v160.5H30.49Zm93.1-6.41v-160.5h160.5v-86.67h-160.5v-160.5H36.91v407.67h86.67Zm-80.26-6.42V203.84h73.83v160.5h160.5v73.83h-160.5v160.5H43.33Zm69.02-4.82v-160.5h160.5v-64.2h-160.5v-160.5h-64.2v385.2h64.2Zm-56.17-8.03V216.68h48.15v160.5h160.5v48.15H104.32v160.5H56.17Zm44.93-3.2v-160.5h160.5v-41.73h-160.5v-160.5H59.38v362.73h41.73Zm-32.09-9.64V229.52h22.47v160.5h160.5v22.47H91.48v160.5H69.01Zm20.86-1.6v-160.5h160.5v-19.26H89.88v-160.5H70.62v340.26h19.26Z" class="b"></path><path d="M12.84 147.66h160.5v160.5h134.82v-160.5h160.5V12.84H12.84v134.82Zm3.21-131.61h449.4v128.4h-160.5v160.5h-128.4v-160.5H16.05V16.05Z" class="b"></path><path d="M25.68 134.82h160.5v160.5h109.14v-160.5h160.5V25.68H25.68v109.14ZM30.49 30.5H451v99.51H290.5v160.5h-99.51v-160.5H30.49V30.5Z" class="b"></path><path d="M36.91 123.59h160.5v160.5h86.67v-160.5h160.5V36.91H36.91v86.67Zm6.42-80.26h394.83v73.83h-160.5v160.5h-73.83v-160.5H43.33V43.33Z" class="b"></path><path d="M48.15 112.35h160.5v160.5h64.2v-160.5h160.5v-64.2H48.15v64.2Zm8.03-56.17h369.15v48.15h-160.5v160.5h-48.15V104.32H56.18V56.17Z" class="b"></path><path d="M59.39 101.11h160.5v160.5h41.73v-160.5h160.5V59.38H59.39v41.73Zm9.63-32.09h343.47v22.47h-160.5v160.5h-22.47V91.48H69.02V69.01Z" class="b"></path><path d="M70.62 89.88h160.5v160.5h19.26V89.88h160.5V70.62H70.62v19.26z" class="b"></path><path d="M321 321V160.5h160.5V0H642v481.5H481.5V321H321ZM494.34 12.84v160.5h-160.5v134.82h160.5v160.5h134.82V12.84H494.34Zm131.61 3.21v449.4h-128.4v-160.5h-160.5v-128.4h160.5V16.05h128.4Zm-118.77 9.63v160.5h-160.5v109.14h160.5v160.5h109.14V25.68H507.18ZM611.5 30.5v420.51h-99.51v-160.5h-160.5V191h160.5V30.5h99.51Zm-93.09 6.41v160.5h-160.5v86.67h160.5v160.5h86.67V36.91h-86.67Zm80.26 6.42v394.83h-73.83v-160.5h-160.5v-73.83h160.5V43.33h73.83Zm-69.02 4.82v160.5h-160.5v64.2h160.5v160.5h64.2V48.15h-64.2Zm56.17 8.03v369.15h-48.15v-160.5h-160.5v-48.15h160.5V56.18h48.15Zm-44.93 3.21v160.5h-160.5v41.73h160.5v160.5h41.73V59.39h-41.73Zm32.09 9.63v343.47h-22.47v-160.5h-160.5v-22.47h160.5V69.02h22.47Zm-20.86 1.6v160.5h-160.5v19.26h160.5v160.5h19.26V70.62h-19.26Z" class="b"></path><path d="M629.16 494.34h-160.5v-160.5H333.84v160.5h-160.5v134.82h455.82V494.34Zm-3.21 131.61h-449.4v-128.4h160.5v-160.5h128.4v160.5h160.5v128.4Z" class="b"></path><path d="M616.32 507.18h-160.5v-160.5H346.68v160.5h-160.5v109.14h430.14V507.18ZM611.5 611.5H190.99v-99.51h160.5v-160.5H451v160.5h160.5v99.51Z" class="b"></path><path d="M605.09 518.41h-160.5v-160.5h-86.67v160.5h-160.5v86.67h407.67v-86.67Zm-6.42 80.26H203.84v-73.83h160.5v-160.5h73.83v160.5h160.5v73.83Z" class="b"></path><path d="M593.85 529.65h-160.5v-160.5h-64.2v160.5h-160.5v64.2h385.2v-64.2Zm-8.03 56.17H216.68v-48.15h160.5v-160.5h48.15v160.5h160.5v48.15Z" class="b"></path><path d="M582.62 540.89h-160.5v-160.5h-41.73v160.5h-160.5v41.73h362.73v-41.73Zm-9.64 32.09H229.52v-22.47h160.5v-160.5h22.47v160.5h160.5v22.47Z" class="b"></path><path d="M571.38 552.12h-160.5v-160.5h-19.26v160.5h-160.5v19.26h340.26v-19.26z" class="b"></path></svg>