<svg id="Layer_1" data-name="Layer 1" xmlns="http://www.w3.org/2000/svg" viewBox="0 0 618.81 618.81">   <circle cx="159.77" cy="159.77" r="85.95" transform="translate(-66.18 159.77) rotate(-45)"></circle>   <circle cx="459.04" cy="459.04" r="85.95" transform="translate(-190.14 459.04) rotate(-45)"></circle>   <path d="M309.4,0H0V618.81H618.81V0H309.4Zm149.63,73.83c47.47,0,85.95,38.48,85.95,85.95s-38.48,85.95-85.95,85.95-85.95-38.48-85.95-85.95,38.48-85.95,85.95-85.95ZM207.27,506.53c-48.38,48.38-108.87,66.34-135.1,40.11-26.23-26.23-8.28-86.72,40.11-135.1,48.38-48.38,108.87-66.34,135.1-40.11,26.23,26.23,8.28,86.72-40.11,135.1Zm401.39,102.13H309.4V309.4H10.14V10.14H309.4V309.4h299.26v299.26Z"></path> </svg>