<svg data-name="Layer 1" xmlns="http://www.w3.org/2000/svg" viewBox="0 0 584 590.77"><path d="m208.66 210.18 165.47 85.15c6.95 3.57 15.21-1.47 15.21-9.28V10.44C389.34 4.68 384.67 0 378.9 0H205.1c-5.76 0-10.44 4.67-10.44 10.44v173.79c0 5.76-4.67 10.44-10.44 10.44H10.44C4.68 194.67 0 199.34 0 205.11V383.4c0 9.3 11.24 13.95 17.82 7.38l178.68-178.7a10.42 10.42 0 0 1 12.15-1.9Z"></path><path d="M566.18 200 387.49 378.69a10.42 10.42 0 0 1-12.15 1.9l-165.47-85.15c-6.95-3.57-15.21 1.47-15.21 9.28v275.61c0 5.76 4.67 10.44 10.44 10.44h173.8c5.76 0 10.44-4.67 10.44-10.44v-173.8c0-5.76 4.67-10.44 10.44-10.44h173.8c5.76 0 10.44-4.67 10.44-10.44V207.38c0-9.3-11.24-13.95-17.82-7.38Z"></path></svg>