<svg xmlns="http://www.w3.org/2000/svg" width="597.4" viewBox="0 0 597.4 597.4" height="597.4" xml:space="preserve"><path d="M0 0v597.4h597.4V0H0zm319.7 277.7V165.3l164.1 112.3H319.7zm66.6-117.8 169-116.5v232.2l-169-115.7zm-66.6-5.3V42.1H483L319.7 154.6zm-42 123.1h-50.2c26.4-24.2 44.6-57.2 50.2-94.2v94.2zm-142.1 42v96.7H42.1v-96.7h93.5zm42.1 0h100v96.7h-100v-96.7zm142 3.4 73.2 93.4h-73.2v-93.4zm-42 135.5v96.7h-100v-96.7h100zm42 0H426l75.9 96.7H319.7v-96.7zm50.9-138.9h184.7v235.5L370.6 319.7zM277.7 42.1v94.2c-5.5-37-23.8-70-50.2-94.2h50.2zm-158.2 0c64.9 0 117.8 52.8 117.8 117.8 0 64.9-52.8 117.8-117.8 117.8H42.1V42.1h77.4zM42.1 458.6h93.5v96.7H42.1v-96.7z"></path></svg>