<svg xmlns="http://www.w3.org/2000/svg" width="600.2" viewBox="0 0 600.2 531.9" height="531.9"><path d="M600.2 266c0-182.7-120-266-300.1-266S0 83.3 0 266s120 266 300.1 266 300.1-83.3 300.1-266zM78 266C78 88 162.1 6.9 300.1 6.9S522.2 88 522.2 266s-84 259.1-222.1 259.1S78 444 78 266z"></path><path d="M516.2 266c0-131.2-86.4-191-216.1-191S84 134.7 84 266s86.4 191 216.1 191 216.1-59.8 216.1-191zm-376 0c0-127.8 60.5-186.1 159.9-186.1S460 138.1 460 266s-60.5 186.1-159.9 186.1S140.2 393.8 140.2 266z"></path><ellipse cx="300.1" cy="266" rx="155.6" ry="137.2"></ellipse></svg>