<svg xmlns="http://www.w3.org/2000/svg" width="617.2" viewBox="0 0 617.2 493.8" height="493.8"><path d="M330 322.1h25.4v171.7H330z"></path><path d="M617.2 301.2c0-29.3-14.3-55.1-36.2-71.2 4.3-10.4 6.8-21.9 6.8-33.9 0-46.5-35.9-84.5-81.5-88-4.8-44.2-42.3-78.7-87.8-78.7-13.4 0-26 3.1-37.4 8.4C365.1 15 338.6 0 308.7 0c-30 0-56.5 15-72.5 37.9v-.1c-11.4-5.3-24-8.4-37.4-8.4-45.5 0-82.9 34.4-87.8 78.7-45.6 3.5-81.5 41.5-81.5 88 0 12 2.4 23.4 6.8 33.9C14.3 246 0 271.9 0 301.2c0 28.9 14 54.5 35.5 70.6-4.3 10.4-6.7 21.7-6.7 33.6 0 48.8 39.5 88.3 88.3 88.3h101.8V322.1H89.2c-11.6 0-20.9-9.4-20.9-20.9 0-11.6 9.4-20.9 20.9-20.9h138.5L110 214.1c-10.1-5.7-13.7-18.4-8-28.5 5.7-10.1 18.4-13.7 28.5-8l120.8 67.9-69.5-117.7c-5.9-10-2.6-22.8 7.4-28.7 10-5.9 22.8-2.6 28.7 7.4l69.9 118.8V87.5c0-11.6 9.4-20.9 20.9-20.9 11.6 0 20.9 9.4 20.9 20.9v137.1l69.7-118c5.9-10 18.7-13.3 28.7-7.4s13.3 18.7 7.4 28.7l-69.5 117.7 120.8-67.9c10.1-5.7 22.8-2.1 28.5 8 5.7 10.1 2.1 22.8-8 28.5l-117.6 66.1H528c11.6 0 20.9 9.4 20.9 20.9 0 11.6-9.4 20.9-20.9 20.9H398.3v171.7h101.8c48.8 0 88.3-39.5 88.3-88.3 0-11.9-2.4-23.3-6.7-33.6 21.5-16.2 35.5-41.8 35.5-70.7z"></path><path d="M261.7 322.1h25.4v171.7h-25.4z"></path></svg>