<svg xmlns="http://www.w3.org/2000/svg" width="629.9" viewBox="0 0 629.9 540.8" height="540.8" xml:space="preserve" style="enable-background:new 0 0 629.9 540.8"><path d="M405.7 0H224.2l-43.3 73.6H269l45.9 80 45.9-80h87.5z"></path><path d="m180.9 73.6-45.8 79.2 45.2 77.3H90l-44.5 76.5h268.1zM178.8 540.8H267l46.1-80.8 45.6 80.8h88.1L313.6 306.6zM448.3 73.6l45.2 76.9-46.6 79.6h93l44.5 76.5H313.6z"></path><path d="m584.4 306.6-45.1 76.5H447l46 78.6-46.6 79.1h85.4l98.1-156.9zM180.2 383.1H89l-43.5-76.5L0 384.5l93.5 156.3h85.3l-44.7-78.5z"></path></svg>