<svg xmlns="http://www.w3.org/2000/svg" width="627.8" viewBox="0 0 627.8 619" height="619" xml:space="preserve" style="enable-background:new 0 0 627.8 619"><path d="M175.4 253.7h340v-15.9H217.7c-19.5 0-37.4-8.1-37.4-28.3V68.2l-47.2 24v115.5c0 28.6 16.1 46 42.3 46z"></path><path d="M109.4 285.6h471.1v-15.9H150c-20.1 0-36.3-16.3-36.3-36.3V102.2l-47 24.4v116.2c0 23.6 19.1 42.8 42.7 42.8z"></path><path d="m235.3 221.9 215.1-.1v-15.9h-181c-12.5 0-22.5-10.1-22.5-22.5V34.2l-47.1 24.1v128c-.1 19.7 15.9 35.6 35.5 35.6z"></path><path d="M309 190h86v-16h-57.5c-13.1 0-23.7-10.6-23.7-23.7V0l-47.1 24.1v123.6c0 23.3 18.9 42.3 42.3 42.3zM452.4 365.3h-340v15.9h297.8c19.5 0 37.4 8.1 37.4 28.3v141.3l47.2-24V411.4c-.1-28.7-16.1-46.1-42.4-46.1z"></path><path d="M518.4 333.4H47.3v15.9h430.5c20.1 0 36.3 16.3 36.3 36.3v131.1l47-24.4V376.2c.1-23.6-19.1-42.8-42.7-42.8z"></path><path d="M591.5 301.6H71.2c-13.3 0-24.1-10.8-24.1-24.1V136.8L0 160.3v120.9c0 20 16.2 36.3 36.3 36.3h520.3c13.3 0 24.1 10.8 24.1 24.1v140.6l47.2-23.4v-121c-.1-20-16.3-36.2-36.4-36.2z"></path><path d="m392.5 397.1-215.1.1v15.9h181.1c12.5 0 22.5 10.1 22.5 22.5v149.1l47.1-24.1v-128c0-19.6-15.9-35.5-35.6-35.5z"></path><path d="M318.9 429.1h-86V445h57.5c13.1 0 23.7 10.6 23.7 23.7V619l47.1-24.1V471.4c0-23.4-19-42.3-42.3-42.3z"></path></svg>