<svg id="Layer_1" data-name="Layer 1" xmlns="http://www.w3.org/2000/svg" viewBox="0 0 606.84 527.64">   <path d="M532.98,277.35c-1.5,6.07-4.59,11.84-9.44,16.6l-90.33,88.62c-25.11,24.63-64.33,27.52-92.78,6.83l-31.41-22.85c54.02-3.22,96.86-47.91,96.86-102.74,0-4.6-.41-9.09-.99-13.53h200.77c-3.47-12.46-10.98-23.96-22.42-32.28L299.25,11.46c-23.66-17.21-56.3-14.81-77.18,5.68L16.88,218.42c-9.22,9.04-14.75,20.22-16.88,31.86H73.86c1.5-6.07,4.59-11.84,9.44-16.6l90.33-88.62c25.11-24.63,64.33-27.52,92.78-6.83l31.33,22.79c-54.53,2.67-97.96,47.6-97.96,102.79,0,4.6,.41,9.09,.99,13.53H1.18c3.47,12.46,10.98,23.96,22.42,32.28l283.99,206.55c23.66,17.21,56.3,14.81,77.19-5.68l205.18-201.28c9.22-9.04,14.75-20.22,16.88-31.86h-73.86Z"></path> </svg>