<svg id="Layer_1" data-name="Layer 1" xmlns="http://www.w3.org/2000/svg" viewBox="0 0 622.47 554.08">   <path d="M613.02,131.6L389.46,2.53c-5.85-3.38-13.05-3.38-18.9,0l-51.54,29.76c-4.82,2.78-10.76,2.78-15.58,0L251.9,2.53c-5.85-3.38-13.05-3.38-18.9,0L9.45,131.6c-5.85,3.38-9.45,9.61-9.45,16.36V406.11c0,6.75,3.6,12.99,9.45,16.36l223.56,129.07c5.85,3.38,13.05,3.38,18.9,0l46.96-27.11c4.82-2.78,7.79-7.93,7.79-13.49v-35.84l-52.46,30.29c-3.62,2.09-7.68,3.14-11.74,3.14s-8.12-1.05-11.74-3.14L50.57,401.38c-7.24-4.18-11.74-11.97-11.74-20.33V173.03c0-8.36,4.5-16.15,11.74-20.33L230.72,48.69c7.24-4.18,16.24-4.18,23.48,0l49.26,28.44c4.82,2.78,10.75,2.78,15.56,0l49.26-28.44c7.24-4.18,16.23-4.18,23.48,0l180.15,104.01c7.24,4.18,11.74,11.97,11.74,20.33v208.02c0,8.36-4.5,16.15-11.74,20.33l-180.15,104.01c-3.62,2.09-7.68,3.14-11.74,3.14s-8.12-1.04-11.74-3.14l-52.46-30.29v35.84c0,5.57,2.97,10.71,7.79,13.49l46.96,27.11c5.85,3.38,13.05,3.38,18.9,0l223.56-129.07c5.85-3.38,9.45-9.61,9.45-16.36V147.96c0-6.75-3.6-12.99-9.45-16.36Z"></path>   <path d="M183.09,231.85l49.92-28.82c5.85-3.38,13.05-3.38,18.9,0l48.62,28.07c6.65,3.84,14.84,3.84,21.49,0l48.56-28.06c5.85-3.38,13.05-3.38,18.9,0l49.92,28.82c5.85,3.38,9.45,9.61,9.45,16.36v57.64c0,6.75-3.6,12.99-9.45,16.36l-49.92,28.82c-5.85,3.38-13.05,3.38-18.9,0l-54.75-31.65v35.88c0,5.57,2.97,10.71,7.79,13.49l49.25,28.44c4.42,2.55,9.9,2.55,14.32,0l93.33-53.88c4.43-2.56,7.16-7.28,7.16-12.4v-107.76c0-5.12-2.73-9.84-7.16-12.4l-93.33-53.88c-2.21-1.27-4.68-1.91-7.16-1.91s-4.95,.64-7.16,1.91l-53.84,31.08c-4.82,2.78-10.75,2.78-15.56,0l-53.84-31.08c-2.21-1.27-4.68-1.91-7.16-1.91s-4.95,.64-7.16,1.91l-93.33,53.88c-4.43,2.56-7.16,7.28-7.16,12.4v107.77c0,5.11,2.73,9.84,7.16,12.4l93.33,53.88c4.42,2.55,9.9,2.55,14.32,0l49.25-28.44c4.82-2.78,7.79-7.93,7.79-13.49v-35.84l-54.75,31.61c-5.85,3.38-13.05,3.38-18.9,0l-49.92-28.82c-5.85-3.38-9.45-9.61-9.45-16.36v-57.64c0-6.75,3.6-12.99,9.45-16.36Z"></path>   <path d="M242.45,408.27c-4.06,0-8.12-1.05-11.74-3.14l-93.33-53.88c-7.24-4.18-11.74-11.97-11.74-20.33v-107.76c0-8.36,4.5-16.15,11.74-20.33l93.33-53.88c7.24-4.18,16.24-4.18,23.48,0l49.26,28.44c4.82,2.78,10.75,2.78,15.56,0l49.26-28.44c7.24-4.18,16.23-4.18,23.48,0l93.33,53.88c7.24,4.18,11.74,11.97,11.74,20.33v107.76c0,8.36-4.5,16.15-11.74,20.33l-93.33,53.88c-3.62,2.09-7.68,3.14-11.74,3.14s-8.12-1.04-11.74-3.14l-52.46-30.29v30.56c0,5.57,2.97,10.71,7.79,13.49l49.25,28.44c4.42,2.55,9.9,2.55,14.32,0l136.74-78.95c4.42-2.55,7.16-7.3,7.16-12.4V198.09c0-5.1-2.74-9.85-7.16-12.4l-136.74-78.94c-2.21-1.27-4.68-1.91-7.16-1.91s-4.95,.64-7.16,1.91l-53.84,31.08c-4.82,2.78-10.75,2.78-15.56,0l-53.84-31.08c-2.21-1.27-4.68-1.91-7.16-1.91s-4.95,.64-7.16,1.91L98.56,185.69c-4.42,2.55-7.16,7.3-7.16,12.4v157.89c0,5.1,2.74,9.85,7.16,12.4l136.74,78.95c4.42,2.55,9.9,2.55,14.32,0l49.25-28.44c4.82-2.78,7.79-7.93,7.79-13.49v-30.56l-52.46,30.29c-3.62,2.09-7.68,3.14-11.74,3.14Z"></path>   <path d="M242.45,458.4c-4.06,0-8.12-1.05-11.74-3.14l-136.74-78.95c-7.24-4.18-11.74-11.97-11.74-20.33V198.09c0-8.36,4.5-16.15,11.74-20.33L230.72,98.82c7.24-4.18,16.23-4.18,23.48,0l49.26,28.44c4.82,2.78,10.75,2.78,15.57,0l49.26-28.44c7.24-4.18,16.23-4.18,23.48,0l136.74,78.94c7.24,4.18,11.74,11.97,11.74,20.33v157.89c0,8.36-4.5,16.15-11.74,20.33l-136.74,78.95c-3.62,2.09-7.68,3.14-11.74,3.14s-8.12-1.04-11.74-3.14l-52.46-30.29v30.56c0,5.57,2.97,10.71,7.79,13.49l49.25,28.44c4.42,2.55,9.9,2.55,14.32,0l180.15-104.01c4.43-2.56,7.16-7.28,7.16-12.4V173.03c0-5.1-2.74-9.85-7.16-12.4L387.17,56.62c-2.21-1.27-4.68-1.91-7.16-1.91s-4.95,.64-7.16,1.91l-53.84,31.08c-4.82,2.78-10.75,2.78-15.56,0l-53.84-31.08c-2.21-1.27-4.68-1.91-7.16-1.91s-4.95,.64-7.16,1.91L55.15,160.63c-4.42,2.55-7.16,7.3-7.16,12.4v208.02c0,5.11,2.73,9.84,7.16,12.4l180.15,104.01c4.42,2.55,9.9,2.55,14.32,0l49.25-28.44c4.82-2.78,7.79-7.93,7.79-13.49v-30.56l-52.46,30.29c-3.62,2.09-7.68,3.14-11.74,3.14Z"></path> </svg>