<svg data-name="Layer 1" xmlns="http://www.w3.org/2000/svg" viewBox="0 0 621.44 621.43"><path d="M80.96 265.69V217.5c-18.82-3.54-33.11-20.07-33.11-39.91 0-22.4 18.23-40.63 40.63-40.63h121.65V89.12H88.48C39.7 89.13 0 128.82 0 177.6c0 46.25 35.69 84.26 80.96 88.09ZM88.47 403.2h129.76v73.16h47.84V355.35H88.47C39.69 355.36 0 395.04 0 443.83c0 46.25 35.68 84.26 80.96 88.09v-48.19c-18.82-3.54-33.11-20.07-33.11-39.91 0-22.4 18.22-40.62 40.63-40.62Z"></path><path d="M145.11 532.3h73.12v.65c0 22.4-18.23 40.63-40.63 40.63s-40.63-18.23-40.63-40.63V411.3H89.13v121.65c0 48.78 39.69 88.47 88.47 88.47s88.47-39.69 88.47-88.47v-.65h81.11v-47.84H145.11v47.84ZM177.61 47.84c22.4 0 40.62 18.22 40.62 40.63v129.76h-73.16v47.84h121.01V88.47C266.08 39.69 226.39 0 177.61 0c-46.25 0-84.26 35.68-88.09 80.96h48.19c3.54-18.82 20.07-33.11 39.91-33.11ZM484.47 210.12h47.84V88.47C532.31 39.69 492.62 0 443.84 0c-46.25 0-84.25 35.69-88.09 80.96h48.19c3.54-18.82 20.07-33.11 39.9-33.11 22.4 0 40.63 18.23 40.63 40.63v.65H274.25v47.84h210.22v73.15ZM484.46 274.24h47.84v202.08h-47.84z"></path><path d="M443.83 573.59c-22.4 0-40.62-18.22-40.62-40.63V403.2h73.16v-47.84H355.36v177.6c0 48.78 39.68 88.47 88.47 88.47 46.25 0 84.26-35.68 88.09-80.96h-48.19c-3.54 18.82-20.07 33.11-39.91 33.11Z"></path><path d="M540.48 355.74v48.19c18.82 3.54 33.11 20.07 33.11 39.9 0 22.4-18.23 40.63-40.63 40.63H411.31v47.84h121.65c48.78 0 88.47-39.69 88.47-88.47 0-46.24-35.68-84.25-80.95-88.09ZM532.96 218.23H403.2v-73.16h-47.84v121.01h177.6c48.78 0 88.47-39.68 88.47-88.47 0-46.25-35.68-84.26-80.96-88.09v48.19c18.82 3.54 33.11 20.07 33.11 39.91 0 22.4-18.22 40.62-40.63 40.62ZM89.13 218.23v128.96h47.85V145.14H89.13v73.09z"></path></svg>