<svg data-name="Layer 1" xmlns="http://www.w3.org/2000/svg" viewBox="0 0 457.97 613.46"><path d="m248.4 262.17-23.76 61.94 23.76 61.93 23.75-61.93-23.75-61.94zM211.02 225.07l-14.17 64.81 53.63-38.54.24-.17 14.18-64.81-53.63 38.53-.25.18zM257.4 426.62l58.18-31.87 21.94-62.6-58.18 31.87-21.94 62.6zM250.26 193.54l-39.85-53.03-65.09-12.79 39.85 53.04 65.09 12.78zM185.75 109.52l48.15 45.63-5.27-65.82-.02-.3-48.15-45.63 5.26 65.82.03.3zM322.78 80.3l-60.64 26.88-27.12 60.54 60.64-26.88 27.12-60.54zM426.64 106.98l-63.46 19.33-34.25 56.82 63.45-19.34 34.26-56.81zM411.54 185.7l-66.2-4.18 46.43 47.38 66.2 4.18-46.43-47.38zM380.3 88.77l-7.18-65.94-38.76 53.83 7.18 65.95 38.76-53.84zM305.92 0l-48.16 45.62-5.3 66.13 48.16-45.63L305.92 0zM275.39 327.41l66.27-3.18 47.14-46.66-66.26 3.17-47.15 46.67zM337.42 266.7l30.73-58.79-61.88 23.06-.28.1-30.73 58.79 61.87-23.05.29-.11zM315.2 214.25l.17-66.33-44.28 48.98-.2.23-.17 66.33L315 214.48l.2-.23zM0 132.87l167.14 266.97v213.62h81.26V399.84L90.72 132.87H0z"></path></svg>