<svg xmlns="http://www.w3.org/2000/svg" width="586.5" viewBox="0 0 586.5 503.4" height="503.4"><path d="M586.5 186.9V90.1C502.9 33.3 402 0 293.2 0S83.6 33.3 0 90.1v201.5c75.5 73.9 178.8 119.6 292.7 119.7h.5c88.1 0 159.5-71.4 159.5-159.5 0-19.5-3.5-38.1-9.9-55.4 57.4 27.4 106.1 70 140.9 122.6-77.1 69-178.9 111-290.5 111C180.3 429.9 77.4 387 0 316.5v96.8c83.6 56.9 184.5 90.1 293.2 90.1s209.7-33.3 293.2-90.1V211.9c-75.6-74-179.1-119.7-293.2-119.7-88.1 0-159.5 71.4-159.5 159.5 0 19.5 3.5 38.1 9.9 55.4-57.4-27.4-106.1-70-140.9-122.6 77.1-69 178.9-111 290.5-111 113 0 215.9 43 293.3 113.4zM293.2 162c49.6 0 89.7 40.2 89.7 89.7 0 49.6-40.2 89.7-89.7 89.7s-89.7-40.2-89.7-89.7 40.2-89.7 89.7-89.7z"></path><circle cx="293.2" cy="251.7" r="68.6"></circle></svg>