<svg data-name="Layer 1" xmlns="http://www.w3.org/2000/svg" viewBox="0 0 609.34 540.37"><path d="m351.91 278.6-117.5 117.5c-19.33 19.33-52.39 5.64-52.39-21.7v-70.46H62.74C28.09 303.94 0 275.85 0 241.2V62.74C0 28.09 28.09 0 62.74 0H373.6l212.42 196.1c30.24 27.92 31.19 75.39 2.09 104.49L348.33 540.37H162.98l252.14-252.14c22.29-22.29 21.57-58.65-1.6-80.04L255.28 62.11h-92.87c-18.63 0-33.73 15.1-33.73 33.73v125.44h53.33v-80.64c0-26.76 31.85-40.7 51.51-22.55l117.34 108.32c15.11 13.95 15.58 37.66 1.04 52.2Z"></path></svg>