<svg xmlns="http://www.w3.org/2000/svg" width="600" viewBox="0 0 600 514.13" height="514.13" style="overflow:visible;enable-background:new 0 0 600 514.13" xml:space="preserve"><path d="M246.91 509.4c3.65.67 7.34 1.24 11.05 1.77v-18.21c-3.74-1.01-7.42-2.14-11.05-3.4v19.84zM322.97 496.84v16.42c3.71-.29 7.4-.62 11.06-1.04v-17.36c-3.65.79-7.33 1.44-11.06 1.98zM284.9 513.75c3.67.18 7.34.32 11.05.37v-15.69c-3.71-.09-7.4-.32-11.05-.66v15.98zM303.9 498.43v15.7c3.72-.05 7.43-.16 11.11-.35v-16.01c-3.67.34-7.38.57-11.11.66zM265.91 512.17c3.66.42 7.34.81 11.05 1.09v-16.41c-3.73-.53-7.41-1.19-11.05-1.98v17.3zM341.92 511.2c3.73-.53 7.42-1.15 11.09-1.81v-19.85c-3.64 1.27-7.34 2.41-11.09 3.42v18.24zM399.02 464.51v32.88c3.76-1.15 7.44-2.35 11.08-3.59v-38.73c-3.55 3.31-7.25 6.46-11.08 9.44zM418.1 490.96c3.71-1.36 7.38-2.75 10.97-4.2v-52.77c-3.43 4.56-7.1 8.91-10.97 13.07v43.9zM437.01 483.42c3.77-1.62 7.47-3.31 11.1-5.02v-77.07c-3.2 7.33-6.9 14.36-11.1 21.08v61.01zM360.96 486.54v21.28c3.73-.8 7.44-1.65 11.1-2.58v-23.73c-3.63 1.81-7.33 3.49-11.1 5.03zM372.06 505.25c.24-.06.48-.13.73-.19-.24.06-.48.11-.73.17v.02zM379.95 503.13c3.75-1.07 7.46-2.19 11.13-3.4v-29.41c-3.61 2.47-7.32 4.8-11.13 6.98v25.83zM410.1 493.81c.01 0 .03-.01.05-.02v-.01c-.02.01-.04.02-.05.02v.01zM551.13 403.85c3.96-4.16 7.66-8.25 11.11-12.24V282.3c-3.45-3.99-7.15-8.08-11.11-12.25v133.8zM162.92 483.39c-.02-.01-.03-.02-.04-.02.01.01.03.01.04.02zM48.87 403.92c-.03-.04-.07-.08-.11-.12v.01c.04.02.08.07.11.11zM227.89 505.24c3.65.93 7.33 1.79 11.05 2.58v-21.28c-3.76-1.53-7.44-3.19-11.05-5v23.7zM37.65 391.52v-.01c-.06-.06-.11-.12-.16-.18l.16.19zM0 336.98s3.4 7.18 10.73 18.64V318.3C3.4 329.75 0 336.93 0 336.93v.05zM18.68 367.37c3.25 4.56 6.91 9.47 11.08 14.67v-90.15c-4.15 5.18-7.84 10.1-11.08 14.66v60.82zM48.87 270l-.11.11.11-.11zM37.65 391.51c3.45 4 7.15 8.11 11.12 12.29V270.11c-3.97 4.18-7.67 8.29-11.12 12.29v109.11zM162.87 483.37h.01-.01zM208.85 470.35v29.35c.02.01.05.02.08.03 3.61 1.2 7.29 2.3 10.99 3.35V477.3c-3.79-2.17-7.48-4.49-11.07-6.95zM189.85 493.76c3.63 1.24 7.3 2.45 11.05 3.6v-32.81c-3.82-2.97-7.5-6.12-11.05-9.41v38.62zM219.92 503.11c.01.01.02.01.02.01v-.03s-.01-.01-.02-.01v.03zM170.86 434.07v52.64c3.6 1.45 7.29 2.85 11.03 4.22v-43.75c-3.9-4.17-7.58-8.54-11.03-13.11zM151.87 401.57v76.82c3.59 1.7 7.25 3.36 11 4.98v-60.94c-4.15-6.65-7.83-13.62-11-20.86zM181.89 490.96s.01.01.02.01v-.02c-.01 0-.02 0-.02-.01v.02zM303.9 175.49c3.73.09 7.44.31 11.11.65v-16.02c-3.68-.18-7.39-.3-11.11-.35v15.72zM341.88 162.71c.01 0 .02 0 .04.01v-.01h-.04zM265.91 179.04c3.64-.78 7.32-1.44 11.05-1.97v-16.42c-3.71.29-7.39.67-11.05 1.09v17.3zM322.97 177.08c3.73.53 7.41 1.19 11.06 1.97V161.7c-3.66-.42-7.35-.76-11.06-1.04v16.42z"></path><path d="M562.23 282.3c0 .01.01.02.02.03v-.01c-.01-.01-.02-.02-.02-.03v.01zM334.32 161.73c-.09-.01-.19-.02-.29-.04v.01l.29.03zM295.95 175.49V159.8c-3.71.05-7.38.18-11.05.37v15.97c3.65-.34 7.34-.56 11.05-.65zM399.02 209.41c3.83 2.97 7.53 6.13 11.08 9.43v-38.75c-3.64-1.24-7.33-2.43-11.08-3.58v32.9zM418.1 226.85c3.87 4.15 7.54 8.52 10.97 13.06v-52.78c-3.59-1.44-7.26-2.83-10.97-4.19v43.91zM379.95 196.61c3.81 2.18 7.52 4.52 11.13 6.98v-29.41c-3.67-1.22-7.38-2.34-11.13-3.41v25.84zM360.96 187.37c3.77 1.54 7.47 3.22 11.1 5.03v-23.75c-3.66-.93-7.37-1.75-11.1-2.54v21.26zM238.94 166.09c-3.72.79-7.4 1.64-11.05 2.57v23.7c3.61-1.79 7.29-3.47 11.05-5v-21.27zM257.96 180.95v-18.2c-3.71.52-7.4 1.11-11.05 1.77v19.83c3.63-1.26 7.31-2.39 11.05-3.4zM353.01 184.37v-19.84c-3.67-.67-7.36-1.29-11.09-1.81v18.23c3.75 1.01 7.45 2.15 11.09 3.42zM486.19 457.34v-.01l-.03.03v.01l.03-.03zM124.85 464.11c-.01-.01-.01-.02-.02-.02v.01c.01 0 .01.01.02.01zM105.9 452.18a.555.555 0 0 1-.08-.06v.01c.02 0 .05.03.08.05zM143.92 199.41c-.02.01-.05.02-.07.03v.01c.02-.01.05-.02.07-.03v-.01zM589.15 355.75c7.4-11.52 10.85-18.77 10.85-18.77v-.05s-3.44-7.24-10.85-18.78v37.6zM570.2 382.03c4.13-5.16 7.78-10.03 11.01-14.55v-61.06a315.23 315.23 0 0 0-11.01-14.53v90.14zM143.92 474.51a.304.304 0 0 0-.07-.05v.01c.02.01.05.02.07.04zM170.86 239.84c3.45-4.57 7.13-8.95 11.03-13.12v-43.75a346.74 346.74 0 0 0-11.03 4.23v52.64zM208.85 174.21v29.35c3.59-2.46 7.28-4.78 11.07-6.94v-25.78c-3.7 1.06-7.38 2.16-10.99 3.36-.03-.01-.06 0-.08.01zM219.92 170.83h.02v-.04c0 .01-.01.01-.02.01v.03zM181.89 182.97s.01 0 .02-.01v-.02c-.01.01-.02.01-.02.01v.02zM189.85 218.77c3.55-3.3 7.23-6.44 11.05-9.41v-32.8c-3.75 1.14-7.42 2.35-11.05 3.59v38.62z"></path><path d="M391.08 14.45C362.95 5.14 332.2 0 300 0c-32.2 0-62.94 5.14-91.07 14.45C56.58 57.25 0 177.19 0 177.19v.05s18.23 38.62 61.83 79.86c-1.7 1.61-3.37 3.22-5 4.83v150.06c3.48 3.42 7.13 6.87 10.96 10.33V262.61c2.62 2.37 5.32 4.73 8.11 7.1v159.7c3.5 2.97 7.14 5.94 10.91 8.88V278.57c2.65 2.07 5.37 4.13 8.16 6.18v159.71c3.52 2.58 7.12 5.14 10.86 7.66V292.4c2.62 1.77 5.29 3.53 8.02 5.27v159.68c3.58 2.28 7.23 4.54 10.99 6.74V304.38c2.61 1.53 5.26 3.05 7.96 4.54v159.69c3.61 1.99 7.29 3.94 11.06 5.85v-95.82a161.788 161.788 0 0 1-3.63-65.75c20.34 10.58 43.17 19.93 68.71 27.1 28.13 9.3 58.86 14.44 91.07 14.44 32.2 0 62.95-5.14 91.08-14.44 25.48-7.16 48.27-16.48 68.58-27.04 1.17 7.83 1.8 15.84 1.8 24 0 14.36-1.89 28.28-5.41 41.55v96c3.78-1.91 7.47-3.86 11.08-5.85V308.97c2.7-1.49 5.34-3 7.95-4.53v159.7c3.79-2.23 7.48-4.5 11.09-6.78V297.67c2.71-1.73 5.38-3.48 7.98-5.24V452.1c3.79-2.56 7.47-5.15 11.03-7.77V284.65c2.72-2 5.37-4.01 7.96-6.03V438.3c3.82-2.98 7.51-5.98 11.05-8.98V269.64c2.73-2.32 5.38-4.64 7.95-6.96v159.65c3.85-3.48 7.55-6.95 11.05-10.39V261.96c-1.63-1.6-3.31-3.22-5.03-4.84 43.61-41.24 61.85-79.88 61.85-79.88v-.05c-.02 0-56.61-119.94-208.94-162.74zM300 338.74c-60.17 0-112.65-32.9-140.44-81.7 1.07-1.88 2.17-3.73 3.31-5.56v-60.94c.01-.01.03-.01.05-.02v-.01c-3.76 1.62-7.44 3.3-11.05 5.01v46.17c-3.23-7.41-5.92-15.11-8.02-23.05v-19.2c-1.21.61-2.39 1.23-3.58 1.85-1.17-7.86-1.79-15.9-1.79-24.08C138.48 88.01 210.8 15.7 300 15.7c89.21 0 161.52 72.31 161.52 161.52 0 8.18-.61 16.23-1.79 24.08-1.22-.64-2.44-1.27-3.68-1.9v19.62c-2.09 7.82-4.75 15.41-7.94 22.72V195.5c-3.63-1.71-7.33-3.4-11.1-5.03v61.02c1.16 1.86 2.28 3.76 3.37 5.67-27.81 48.73-80.25 81.58-140.38 81.58z"></path><path d="M228.67 231.06h45.11v76.7h52.45v-76.7h45.1v-24.63H228.67zM381.86 374.34h-39.74l-34.22 73.78-28.61-73.78h-61.42l42.81 103.98h73.45zM274.25 126.99h39.25l5.57 14.71 60.8.39-41.71-98.94h-76.32l-41.71 98.94 48.87-.39 5.25-14.71zm19.01-53.3 12.1 31.84h-23.44l11.34-31.84z"></path></svg>