<svg xmlns="http://www.w3.org/2000/svg" id="a" width="642" viewBox="0 0 642 642" height="642" data-name="Layer 1"><defs></defs><path d="M598.99 481.43C626.3 434.22 642 379.46 642 321 642 145.63 501.34 3.2 326.7.14l272.29 481.29ZM326.62 481.5l93.84 144.71c75.83-24.7 139.21-76.84 178.49-144.71H326.62Z" class="b"></path><path d="M223.58 626.27V322.6l103.04 158.89V.14C324.74.11 322.89 0 321 0 143.72 0 0 143.72 0 321c0 56.74 14.78 110.01 40.61 156.26l.59-312.01L220.12 481.5H43.05C98.56 577.42 202.2 642 321 642c34.67 0 68.02-5.56 99.29-15.73H223.57Z" class="b"></path></svg>