<svg data-name="Layer 1" xmlns="http://www.w3.org/2000/svg" viewBox="0 0 622.26 623.74"><path d="M187 0 0 187v117.91h160.62v318.84h121.21l184.44-186.53-.24-222.11h62.92l92.77-92.77.54-122.33H187ZM18.14 194.51 91 121.65v80.62l-72.86 72.87v-80.63Zm14.03 92.25 71.65-71.66H237.6l-71.66 71.66H32.17Zm146.59 12.83 71.65-71.66v293.18l-71.65 71.65V299.59Zm94.72 306.01h-81.9l71.66-71.66h80.63l-70.4 71.66Zm101.36-102.62V215.1h73.04l.23 214.59-73.27 73.28Zm141.28-306.02H356.7V515.8h-88.14V196.96H109.14v-88.14h406.98v88.14Zm5.32-106.28H121.98l72.53-72.54h399.46l-72.53 72.54Zm82.23 24.05-69.4 69.4v-80.62l69.85-69.85-.45 81.08Z"></path></svg>