<svg xmlns="http://www.w3.org/2000/svg" width="642" viewBox="0 0 642 642" height="642" style="overflow:visible;enable-background:new 0 0 642 642" xml:space="preserve"><path d="M510.9 150.9V0H354.2c-90.4 0-168.3 53.8-203.3 131.2H0v156.6c0 90.4 53.8 168.3 131.1 203.3V642h156.7c90.4 0 168.3-53.8 203.3-131.1H642V354.3c0-90.5-53.8-168.3-131.1-203.4zm92.6 203.3v46.7c-27-37.9-58.1-72.7-92.6-103.9V194.3c55.3 31.9 92.6 91.6 92.6 159.9zM448.7 247.5c-42.4-29.8-88.5-54.6-137.6-73.4 1.2-1.5 2.4-3 3.8-4.4h104c15.9 0 31.2 2 45.9 5.8-3.9 24.5-9.3 48.6-16.1 72zm-12.6 38.6c-19.6 54-46.8 104.4-80.2 150-54-19.6-104.4-46.7-150-80.1 19.6-54 46.7-104.4 80.1-150 54.1 19.5 104.5 46.7 150.1 80.1zm-266.5-63c0-15.9 2-31.2 5.8-45.9 24.5 3.9 48.6 9.3 72.1 16.1-29.9 42.4-54.6 88.6-73.5 137.6-1.5-1.3-2.9-2.5-4.4-3.8v-104zm23.7 171.5c42.4 29.7 88.5 54.5 137.5 73.4-1.2 1.5-2.4 3-3.8 4.4H223.1c-15.9 0-31.2-2-45.9-5.8 3.9-24.5 9.3-48.5 16.1-72zm279.1 24.3c0 15.8-2 31.2-5.8 45.8-24.5-3.9-48.5-9.2-72-16 29.7-42.4 54.5-88.5 73.4-137.5 1.5 1.2 3 2.4 4.4 3.7v104zm-53.5-287.7h-68.1c36.3-35.8 77.2-67 121.5-92.6v99.1c-17.1-4.3-35-6.5-53.4-6.5zm-64.7-92.7h46.7c-37.9 27-72.8 58.1-103.9 92.6H194.2c31.9-55.3 91.7-92.6 160-92.6zM137.6 169.6c-4.2 17.1-6.5 35.1-6.5 53.5v68.1C95.3 254.8 64.2 214 38.5 169.6h99.1zM38.5 287.8V241c27 37.9 58.1 72.8 92.6 103.9v102.8c-55.3-31.9-92.6-91.6-92.6-159.9zm184.6 223.1h68.1a599.33 599.33 0 0 1-121.5 92.5v-99c17.1 4.3 35 6.5 53.4 6.5zm64.7 92.6H241c37.9-27 72.8-58.1 103.9-92.6h102.8c-31.9 55.3-91.6 92.6-159.9 92.6zm216.6-131.1c4.2-17.1 6.5-35.1 6.5-53.5v-68.1c35.8 36.3 66.9 77.2 92.5 121.5h-99z"></path></svg>