<svg xmlns="http://www.w3.org/2000/svg" width="615.7" viewBox="0 0 615.7 559" height="559" xml:space="preserve" style="enable-background:new 0 0 615.7 559"><path d="M417.9 516.1c-129.6 0-233-103.4-233-233s103.4-233 233-233c25.3 0 49.7 4 72.5 11.5V10.2c0-5.6-4.6-10.2-10.2-10.2h-470C4.6 0 0 4.6 0 10.2v538.5c0 5.6 4.6 10.2 10.2 10.2h470.1c5.6 0 10.2-4.6 10.2-10.2v-42.1c-22.9 7.5-47.3 9.5-72.6 9.5z"></path><path d="M615.7 283.1c0 109.2-88.5 197.7-197.7 197.7-109.2 0-197.7-88.5-197.7-197.7 0-109.2 88.5-197.7 197.7-197.7 109.1-.1 197.7 88.5 197.7 197.7z"></path></svg>