<svg id="Layer_1" data-name="Layer 1" xmlns="http://www.w3.org/2000/svg" viewBox="0 0 612.01 439.17">   <path d="M595.68,180.13L432.64,17.08C421.78,6.21,407.33,.22,391.97,.22s-29.82,5.99-40.67,16.85l-77.03,77.03V55.07c0-22.34-13.33-42.3-33.98-50.85-20.61-8.55-44.19-3.87-59.99,11.93L16.32,180.13c-21.76,21.76-21.76,57.16,0,78.92l163.96,163.96c10.57,10.57,24.58,16.16,38.88,16.16,7.09,0,14.26-1.38,21.11-4.21,20.66-8.55,34-28.51,34-50.86v-39.03l77.02,77.02c10.86,10.87,25.31,16.86,40.68,16.86s29.81-5.99,40.66-16.85l163.05-163.05c21.76-21.76,21.76-57.16,0-78.91Zm-203.72,175.64l-106.69-106.69c-9.73-9.73-22.65-14.89-35.83-14.89-6.55,0-13.17,1.27-19.49,3.89-19.03,7.89-31.33,26.3-31.33,46.91v49.35l-114.75-114.75,114.75-114.76v49.35c0,20.6,12.3,39.02,31.33,46.91,19.07,7.89,40.76,3.57,55.34-11l106.68-106.68,136.19,136.19-136.19,136.19Z"></path> </svg>