<svg xmlns="http://www.w3.org/2000/svg" width="642" viewBox="0 0 642 642" height="642" data-name="Layer 1"><path d="M606.68 309.89 642 274.57v35.32h-35.32zM579.43 309.89h-24.98L642 222.34v24.98l-62.57 62.57zM642 195.1 527.21 309.89h-24.98L642 170.12v24.98zM642 117.9v24.98L474.99 309.89h-24.98L642 117.9zM642 65.68v24.98L422.77 309.89h-24.98L642 65.68zM642 13.46v24.98L370.55 309.89h-24.98L642 13.46zM628.21 0l-296.1 296.1v-24.97L603.24 0h24.97zM575.99 0 332.11 243.88v-24.97L551.02 0h24.97zM523.77 0 332.11 191.66v-24.97L498.8 0h24.97zM471.55 0 332.11 139.44v-24.98L446.58 0h24.97zM419.33 0l-87.22 87.22V62.24L394.35 0h24.98zM367.11 0l-35 35V0h35zM35.07 309.89H0c.32-10.92 1.22-21.71 2.7-32.37l32.37 32.37ZM87.28 309.89H62.3L6.74 254.33c1.41-6.81 3.02-13.49 4.95-20.04l75.59 75.59ZM139.5 309.89h-24.98l-96.28-96.28c2.12-6.1 4.43-12.07 7-17.98L139.5 309.89ZM191.71 309.89h-24.98L33.85 177.01c2.76-5.46 5.72-10.92 8.8-16.18L191.72 309.9ZM243.93 309.89h-24.98l-165.9-165.9c3.28-5.01 6.74-9.89 10.34-14.64l180.54 180.54ZM296.14 309.89h-24.92L75.47 114.13c3.73-4.5 7.71-8.93 11.75-13.17l208.93 208.93ZM309.63 271.1v24.98l-208.8-208.8c4.3-4.05 8.73-7.96 13.23-11.75L309.63 271.1ZM309.63 218.88v24.98L129.29 63.52c4.75-3.66 9.63-7.07 14.64-10.34l165.7 165.7ZM309.63 166.67v24.98L160.76 42.77c5.27-3.08 10.73-5.97 16.18-8.8l132.69 132.69ZM309.63 114.45v24.98L195.57 25.37c5.97-2.5 11.95-4.82 18.05-6.94l96.02 96.02ZM309.63 62.23v24.98L234.3 11.88c6.55-1.93 13.23-3.53 20.04-4.95l55.3 55.3ZM309.63.26v34.75L277.52 2.89C288.05 1.48 298.78.58 309.63.26ZM35.07 332.37H0c.32 10.92 1.22 21.71 2.7 32.37l32.37-32.37ZM87.28 332.37H62.3L6.75 387.93c1.41 6.81 3.02 13.49 4.95 20.04l75.59-75.59ZM139.5 332.37h-24.98l-96.27 96.27c2.12 6.1 4.43 12.07 7 17.98l114.26-114.26ZM191.71 332.37h-24.98L33.85 465.25c2.76 5.46 5.72 10.92 8.8 16.18l149.07-149.07ZM243.93 332.37h-24.98L53.05 498.26c3.28 5.01 6.74 9.89 10.34 14.64l180.54-180.54ZM296.14 332.37h-24.92L75.46 528.13c3.73 4.5 7.71 8.93 11.75 13.17l208.93-208.93ZM309.63 371.16v-24.98l-208.8 208.8c4.3 4.05 8.73 7.96 13.23 11.75l195.57-195.57ZM309.63 423.38V398.4L129.28 578.75c4.75 3.66 9.63 7.07 14.64 10.34l165.7-165.7ZM309.63 475.59v-24.98L160.75 599.49c5.27 3.08 10.73 5.97 16.18 8.8L309.62 475.6ZM309.63 527.81v-24.98L195.57 616.89c5.97 2.5 11.95 4.82 18.05 6.94l96.02-96.02ZM309.63 580.02v-24.98l-75.34 75.34c6.55 1.93 13.23 3.53 20.04 4.95l55.3-55.3ZM309.63 642v-34.75l-32.11 32.11c10.53 1.41 21.26 2.31 32.11 2.63ZM606.68 332.37h35.07c-.32 10.92-1.22 21.71-2.7 32.37l-32.37-32.37ZM554.46 332.37h24.98l55.55 55.56c-1.41 6.81-3.02 13.49-4.95 20.04l-75.59-75.59ZM502.24 332.37h24.98l96.27 96.27a254.24 254.24 0 0 1-7 17.98L502.23 332.36ZM450.03 332.37h24.98l132.88 132.88c-2.76 5.46-5.72 10.92-8.8 16.18L450.02 332.36ZM397.81 332.37h24.98l165.89 165.89c-3.28 5.01-6.74 9.89-10.34 14.64L397.8 332.36ZM345.6 332.37h24.92l195.76 195.76c-3.73 4.5-7.71 8.93-11.75 13.17L345.6 332.37ZM332.11 371.16v-24.98l208.8 208.8c-4.3 4.05-8.73 7.96-13.23 11.75L332.11 371.16ZM332.11 423.38V398.4l180.35 180.35c-4.75 3.66-9.63 7.07-14.64 10.34l-165.7-165.7ZM332.11 475.59v-24.98l148.88 148.88c-5.27 3.08-10.73 5.97-16.18 8.8L332.12 475.6ZM332.11 527.81v-24.98l114.06 114.06c-5.97 2.5-11.95 4.82-18.05 6.94l-96.02-96.02ZM332.11 580.02v-24.98l75.34 75.34c-6.55 1.93-13.23 3.53-20.04 4.95l-55.3-55.3ZM332.11 642v-34.75l32.11 32.11a311.206 311.206 0 0 1-32.11 2.63Z"></path></svg>