<svg xmlns="http://www.w3.org/2000/svg" viewBox="0 0 642 481.5"><path d="M0 134.88c0 3.55 2.87 6.42 6.42 6.42 1.69 0 3.23-.65 4.38-1.72l.05.05c9.36-11.97 23.94-19.66 40.32-19.66 16.37 0 30.95 7.69 40.32 19.66 0 0 73.31 93.84 102.13 130.72 3.75 4.8 11.43 2.12 11.43-3.97v-93.34c0-28.06 22.92-52.98 50.99-53.07 16.44-.05 31.09 7.65 40.49 19.66 0 0 73.31 93.84 102.13 130.72 3.75 4.8 11.43 2.12 11.43-3.97v-93.34c0-28.06 22.92-52.98 50.99-53.07 16.44-.05 31.09 7.65 40.49 19.66l109.72 140.44c3.76 4.81 11.47 2.14 11.47-3.97v-95.68c0-9.85-3.29-19.42-9.36-27.18L509.6 20.44C499.1 7.72 483.11-.3 465.25 0c-30.97.54-55.17 27.21-55.17 58.19v78.63c0 6.11-7.72 8.76-11.48 3.95L304.56 20.43C294.06 7.72 278.07-.3 260.21 0c-30.97.54-55.17 27.21-55.17 58.19v78.63c0 6.11-7.72 8.76-11.48 3.95L99.52 20.44C89.02 7.72 73.03-.3 55.17 0 24.2.55 0 27.22 0 58.2v76.68Z"></path><path d="M642 346.62c0-3.55-2.87-6.42-6.42-6.42-1.69 0-3.23.65-4.38 1.72l-.05-.05c-9.36 11.97-23.94 19.66-40.32 19.66-16.37 0-30.95-7.69-40.32-19.66 0 0-73.31-93.84-102.13-130.72-3.75-4.8-11.43-2.12-11.43 3.97v93.34c0 28.06-22.92 52.98-50.99 53.07-16.44.05-31.09-7.65-40.49-19.66 0 0-73.31-93.84-102.13-130.72-3.75-4.8-11.43-2.12-11.43 3.97v93.34c0 28.06-22.92 52.98-50.99 53.07-16.44.05-31.09-7.65-40.49-19.66L30.71 201.43c-3.76-4.81-11.47-2.14-11.47 3.97v95.68c0 9.85 3.29 19.42 9.36 27.18l103.78 132.81c10.5 12.72 26.49 20.74 44.35 20.43 30.97-.54 55.17-27.21 55.17-58.19v-78.63c0-6.11 7.72-8.76 11.48-3.95l94.04 120.34c10.5 12.72 26.49 20.74 44.35 20.43 30.97-.54 55.17-27.21 55.17-58.19v-78.63c0-6.11 7.72-8.76 11.48-3.95l94.04 120.34c10.5 12.72 26.49 20.74 44.35 20.43 30.97-.54 55.17-27.21 55.17-58.19v-76.68Z"></path></svg>