<svg xmlns="http://www.w3.org/2000/svg" width="622.2" viewBox="0 0 622.2 631.7" height="631.7" xml:space="preserve" style="enable-background:new 0 0 622.2 631.7"><path d="M467.8 109.4C446.1 45.8 384.1 0 311.1 0c-73.1 0-135 45.9-156.7 109.4 21.7 63.5 83.7 109.4 156.7 109.4 73 0 135-45.9 156.7-109.4zm-180.6-52c-19.8 9-33.6 28.9-33.6 52 0 22.6 13.2 42.1 32.3 51.4 1.9.9 1.8 1.8-.2 1.4-33.8-6.8-60.8-26.9-71.6-52.8 11-26.2 38.5-46.4 72.8-53 1.6-.4 1.8.3.3 1zm120.9 52c-11 26.3-38.6 46.5-73.1 53.1-1.6.3-2-.2-.7-.8 20.1-8.9 34.2-28.9 34.2-52.3 0-22.6-13.2-42.1-32.4-51.4-1.9-.9-1.7-1.8.4-1.3 33.8 6.7 60.8 26.8 71.6 52.7zM246.6 223.7H74.9S2 440.6 1.8 441.1c-2.9 8.5-2.2 17.9 1 26.2 18.2 47.1 62.6 80.3 114.4 80.3 51.8 0 96.2-33.2 114.4-80.3 3.2-8.3 3.9-17.7 1-26.2-.1-.3-32.6-97-54.2-161.3h68.2v351.9h56.1V279.8c0-31-25.1-56.1-56.1-56.1zm-72.2 232.9c-9.1 21.5-31.3 36.7-57.2 36.7-25.9 0-48.1-15.2-57.2-36.7-1.6-3.8-1.9-8.1-.5-12 13.2-35.9 12.9-36.6 55.6-158.3.3-.7.5-1.6 1.1-2.1.6-.5 1.4-.5 2 0 .5.5.8 1.3 1 1.9 10.2 29.1 55.6 158.2 55.6 158.4 1.5 4 1.2 8.3-.4 12.1zM620.4 441.1c-.2-.5-73.1-217.4-73.1-217.4H375.6c-31 0-56.1 25.1-56.1 56.1v351.9h56.1V279.8h68.2c-21.6 64.3-54.1 160.9-54.2 161.3-2.8 8.5-2.2 17.9 1 26.2 18.2 47.1 62.6 80.3 114.4 80.3 51.8 0 96.2-33.2 114.4-80.3 3.2-8.3 3.8-17.8 1-26.2zm-58.3 15.5c-9.1 21.5-31.3 36.7-57.2 36.7-25.9 0-48.1-15.2-57.2-36.7-1.6-3.8-1.9-8.1-.5-12 .1-.2 45.4-129.3 55.6-158.4.2-.6.5-1.5 1-1.9.6-.5 1.4-.5 2 0 .6.5.8 1.3 1.1 2.1 42.7 121.6 42.4 122.4 55.6 158.3 1.6 3.8 1.2 8.1-.4 11.9z"></path></svg>