<svg xmlns="http://www.w3.org/2000/svg" width="642" viewBox="0 0 642 530.5" height="530.5" style="overflow:visible;enable-background:new 0 0 642 530.5" xml:space="preserve"><circle cx="388.7" cy="265.2" r="53"></circle><path d="M361.4 475.9h-54.6v-54.6h54.6v-52.2c-46.1-12.1-80.2-54-80.2-103.9 0-54.8 41-100.1 94.2-106.7 38.3-5.8 67.6-38.9 67.6-78.8 0-44-35.7-79.7-79.7-79.7H0v103.1h153.3v54.6H0v54.6h153.3v54.6H0c0 182 208.8 263.6 301.3 263.6h60.2v-54.6zM496.3 220.3c0-34.5 28.1-62.6 62.6-62.6H642c-21.2 12.9-35.3 36.2-35.3 62.9v84.8c0 79.2-63.6 214.7-190.7 224.5v-54h54.6v-54.6H416v-52.1c46.2-12 80.2-54.1 80.2-104v-44.9z"></path></svg>