<svg id="a" data-name="Layer 1" xmlns="http://www.w3.org/2000/svg" width="642" viewBox="0 0 642 596.26" height="596.26">
  <defs>
    <style>
      .b {
        fill-rule: evenodd;
      }
    </style>
  </defs>
  <circle cx="321" cy="96.84" r="96.84"></circle>
  <path class="b" d="M38.09,39.24l129.17,223.74H0v115.24h167.26l-125.88,218.04h121.39l154.75-268.03c.69-1.2,1.99-2.01,3.47-2.01,1.49,0,2.78.81,3.47,2.01l154.75,268.03h121.39s-125.88-218.04-125.88-218.04h167.26s0-115.24,0-115.24h-167.26s129.17-223.74,129.17-223.74h-122.32s-157.11,272.13-157.11,272.13c-.69,1.2-1.99,2.01-3.48,2.01-1.49,0-2.78-.81-3.48-2.01L160.41,39.24H38.09Z"></path>
</svg>