<svg xmlns="http://www.w3.org/2000/svg" width="600" viewBox="0 0 600 239.51" height="239.51" style="overflow:visible;enable-background:new 0 0 600 239.51" xml:space="preserve"><path class="st0" d="M385.87 162.02H111.35c-8.82 0-15.97-7.15-15.97-15.97V94.57c0-8.82 7.15-15.97 15.97-15.97h162.4c8.82 0 15.97 7.15 15.97 15.97v53.86h96.16V51.46C385.87 23.04 362.83 0 334.41 0H51.46C23.04 0 0 23.04 0 51.46v136.59c0 28.42 23.04 51.46 51.46 51.46h282.95c28.42 0 51.46-23.04 51.46-51.46v-26.03zm-192.62 39.1c-9.49 0-17.2-7.71-17.2-17.2s7.71-17.2 17.2-17.2 17.2 7.71 17.2 17.2-7.71 17.2-17.2 17.2zM498.95 0 378.48 239.51h101.68L600 0z"></path></svg>