<svg xmlns="http://www.w3.org/2000/svg" width="628.74" viewBox="0 0 628.74 642" height="642" data-name="Layer_1"><path d="M5.36 356.87c-.12.39-.48.67-.91.67a.95.95 0 0 1-.92-1.19c23.34-85.64 101.68-148.6 194.71-148.6 53.34 0 101.85 20.7 137.93 54.5 1.07 1 2.78-.1 2.25-1.47-26.48-68.95-93.33-117.9-171.61-117.9-72.53 0-135.25 42.02-165.13 103.04-.15.28-.45.48-.79.48a.892.892 0 0 1-.81-1.26c29.11-63.65 93.35-107.87 167.91-107.87 87.04 0 160 60.25 179.46 141.32-37.03-39.64-89.76-64.42-148.28-64.42-91.1 0-168.17 60.04-193.81 142.71ZM489.98 564.92c.4-.09.82.08 1.03.45.26.46.11 1.04-.35 1.3-.07.04-.15.07-.23.09-85.84 22.6-179.53-13.75-226.05-94.33-26.67-46.19-33-98.55-21.77-146.7.33-1.43-1.48-2.35-2.4-1.21-46.47 57.41-55.44 139.78-16.3 207.57 36.27 62.81 104.01 96.12 171.8 91.49.32-.01.64.15.81.45.25.43.1.97-.33 1.22-.12.07-.24.1-.37.12-69.68 6.61-140.09-26.91-177.37-91.48-43.52-75.38-27.82-168.69 32.66-226.07-15.81 51.89-10.9 109.94 18.36 160.63 45.55 78.89 136.08 115.62 220.5 96.49ZM427.85 41.2a.933.933 0 0 1-.12-1.12c.26-.46.84-.61 1.3-.35a.7.7 0 0 1 .19.15c62.49 63.04 77.85 162.35 31.34 242.93-26.67 46.19-68.85 77.86-116.16 92.2-1.4.42-1.3 2.45.15 2.68 72.96 11.54 148.77-21.88 187.91-89.67 36.27-62.81 31.23-138.14-6.67-194.53a.893.893 0 0 1-.02-.92c.25-.43.79-.57 1.22-.33.12.07.21.16.28.26 40.56 57.04 46.74 134.78 9.46 199.35-43.52 75.38-132.18 108.44-212.12 84.75 52.84-12.25 100.67-45.53 129.93-96.21 45.55-78.89 32.09-175.66-26.69-239.2Z"></path><circle cx="307.73" cy="320.99" r="48.14"></circle><path d="M356.52 357.58c2.32-3.09 4.36-6.41 6.06-9.92 14.5-13.26 27.24-28.93 37.58-46.83 54.32-94.08 21.97-214.82-72.12-269.14-26-15.01-54.04-23.4-82.15-25.7 20.02-3.9 40.69-5.95 61.84-5.95 3.24 0 6.47-.1 9.69 0 39.92 0 75.92 16.68 101.48 43.42 58.91 60.94 73.12 155.95 28.68 232.92-21.68 37.55-54.05 65.15-91.07 81.2Z"></path><path d="M213.77 14.01c5.2-.43 10.46-.65 15.76-.65 104.19 0 188.96 84.77 188.96 188.96 0 49.6-19.21 94.8-50.58 128.55.52-3.22.8-6.52.8-9.88 0-2.27-.12-4.51-.37-6.71 6.3-19.1 9.71-39.51 9.71-60.69 0-107.07-87.11-194.18-194.18-194.18-32.35 0-62.88 7.95-89.74 22.01 34.12-30.44 74.79-53.71 119.63-67.41Z"></path><path d="M357.07 285.15C339.91 196.43 261.65 129.22 168 129.22c-71.21 0-133.51 38.85-166.83 96.47 13.59-43.76 36.29-83.5 65.88-117.02 31.94-25.79 72.59-41.23 116.84-41.23 102.81 0 186.15 83.34 186.15 186.15 0 15.57-1.91 30.69-5.51 45.15a60.745 60.745 0 0 0-7.45-13.59Z"></path><path d="M315.02 260.45c-3.84-.46-7.73-.57-11.62-.29-18.74-5.93-38.67-9.13-59.34-9.13-108.64 0-197.02 88.38-197.02 197.02 0 30.02 6.75 58.5 18.81 83.99-13.38-15.37-25.49-32.25-36.07-50.57-1.62-2.81-3.32-5.56-4.85-8.39C4.97 438.51 1.42 399 11.79 363.49c23.32-81.49 98.5-141.3 187.37-141.3 43.35 0 83.45 14.23 115.85 38.27Z"></path><path d="M88.85 555.85c-2.97-4.29-5.79-8.73-8.45-13.33-52.1-90.23-21.07-206.03 69.17-258.12 42.96-24.8 91.71-30.76 136.62-20.47a60.826 60.826 0 0 0-8.95 4.25 61.84 61.84 0 0 0-5.63 3.67c-19.69 4.09-39.07 11.34-57.42 21.94-92.72 53.53-124.61 172.53-71.07 265.25 16.18 28.02 38.33 50.48 63.93 66.71-43.43-14.33-83.91-37.92-118.2-69.9Z"></path><path d="M252.02 296.19c-68.25 59.22-87.33 160.6-40.5 241.7 35.6 61.67 100.4 96.2 166.96 96.25-44.69 10.11-90.46 10.33-134.28 1.46-38.3-14.77-72-42.25-94.12-80.57-51.4-89.04-20.9-202.88 68.14-254.29 13.48-7.78 27.53-13.69 41.85-17.8a60.818 60.818 0 0 0-8.04 13.25Z"></path><path d="M251.65 344.96c1.52 3.56 3.37 6.98 5.56 10.21 4.23 19.19 11.43 38.06 21.76 55.96 54.32 94.08 175.05 126.43 269.14 72.12 26-15.01 47.29-35.1 63.33-58.29-6.62 19.28-15.19 38.2-25.76 56.52-1.62 2.81-3.15 5.65-4.85 8.39-19.96 34.57-52.4 57.41-88.34 66.18-82.23 20.55-171.62-14.65-216.06-91.62-21.68-37.55-29.4-79.38-24.78-119.46Z"></path><path d="M620.56 393.12a190.2 190.2 0 0 1-7.32 13.98c-52.1 90.23-167.89 121.26-258.12 69.16-42.96-24.8-72.5-64.04-86.04-108.08 2.52 2.06 5.24 3.95 8.16 5.63a61.26 61.26 0 0 0 5.99 3.04c13.39 15.01 29.36 28.16 47.7 38.76 92.72 53.53 211.72 21.65 265.25-71.07 16.18-28.02 24.55-58.44 25.81-88.72 9.3 44.77 9.12 91.62-1.43 137.31Z"></path><path d="M314.1 381.65c85.41 29.5 182.74-4.67 229.57-85.78 35.6-61.67 33.11-135.05-.13-192.71 31.1 33.65 54.17 73.18 68.41 115.56 6.36 40.56-.59 83.48-22.72 121.8-51.4 89.04-165.25 119.54-254.29 68.14-13.48-7.78-25.62-17-36.34-27.35 5.17.78 10.37.88 15.49.34Z"></path></svg>