<svg xmlns="http://www.w3.org/2000/svg" width="606.5" viewBox="0 0 606.5 592.9" height="592.9" xml:space="preserve"><path d="M0 0h15.5v592.9H0zM31.1 0h15.5v592.9H31.1zM62.1 0h15.5v592.9H62.1zM93.2 0h15.5v592.9H93.2zM124.2 0h15.5v592.9h-15.5zM155.3 0h15.5v592.9h-15.5zM186.3 0h15.5v592.9h-15.5zM217.4 0h15.5v592.9h-15.5zM248.4 0h15.5v592.9h-15.5zM279.5 0H295v592.9h-15.5zM310.6 0h15.5v282.2h-15.5zM341.6 0h15.5v282.2h-15.5zM372.7 0h15.5v282.2h-15.5zM403.7 0h15.5v282.2h-15.5zM434.8 0h15.5v282.2h-15.5zM465.8 0h15.5v282.2h-15.5zM496.9 0h15.5v282.2h-15.5zM528 0h15.5v282.2H528zM559 0h15.5v282.2H559zM590.1 0h15.5v282.2h-15.5zM310.6 297.8h295.9v15.5H310.6zM310.6 328.9h295.9v15.5H310.6zM310.6 359.9h295.9v15.5H310.6zM310.6 391h295.9v15.5H310.6zM310.6 422.1h295.9v15.5H310.6zM310.6 453.1h295.9v15.5H310.6zM310.6 484.2h295.9v15.5H310.6zM310.6 515.2h295.9v15.5H310.6zM310.6 546.3h295.9v15.5H310.6zM310.6 577.3h295.9v15.5H310.6z"></path></svg>