<svg data-name="Layer 1" xmlns="http://www.w3.org/2000/svg" viewBox="0 0 614.21 257.74"><path d="M485.35 0c-34.53 0-65.9 13.67-89.06 35.86C372.2 12.69 340.77 0 307.1 0s-65.89 13.67-89.05 35.86C193.96 12.69 162.53 0 128.86 0 57.81 0 0 57.81 0 128.87s57.81 128.87 128.86 128.87c33.52 0 65.06-12.74 89.16-35.88 23.16 22.2 54.54 35.88 89.08 35.88s65.06-12.74 89.17-35.88c23.16 22.19 54.54 35.88 89.08 35.88 71.05 0 128.87-57.81 128.87-128.87S556.4 0 485.35 0Zm0 191.32c-27.92 0-55.24 4.52-81.39 13.36-4.01 1.35-8.43.11-11.05-3.22-15.75-20.01-25.17-45.22-25.17-72.59s9.41-52.57 25.15-72.58c2.62-3.33 7.06-4.58 11.08-3.22 26.14 8.83 53.45 13.35 81.37 13.35s55.24-4.52 81.37-13.35c4.02-1.36 8.46-.11 11.08 3.22 15.74 20 25.15 45.21 25.15 72.58s-9.41 52.57-25.15 72.58c-2.62 3.33-7.06 4.58-11.08 3.22-26.14-8.83-53.46-13.35-81.37-13.35Zm-259.61 13.35c-4.02 1.36-8.46.11-11.08-3.23-15.74-20-25.15-45.21-25.15-72.58s9.41-52.57 25.15-72.58c2.62-3.33 7.06-4.58 11.08-3.23 26.14 8.83 53.45 13.35 81.37 13.35 24.6 0 48.73-3.52 72-10.38-14.26 20.73-22.63 45.82-22.63 72.83s8.37 52.09 22.63 72.83c-23.28-6.86-47.4-10.38-72-10.38-27.91 0-55.23 4.52-81.37 13.35ZM557.99 36.45c2.97 2.34 1.99 7.03-1.62 8.13-22.92 7-46.73 10.57-71.03 10.57s-48.12-3.57-71.04-10.57c-3.61-1.1-4.58-5.8-1.62-8.13 20.01-15.77 45.25-25.19 72.65-25.19s52.64 9.42 72.65 25.19Zm-178.19-.02c2.96 2.34 1.99 7.03-1.61 8.14-22.93 7.02-46.77 10.59-71.09 10.59s-48.12-3.57-71.03-10.57c-3.61-1.1-4.58-5.8-1.62-8.13 20.01-15.77 45.25-25.19 72.65-25.19s52.09 8.85 72.7 25.17Zm-178.24 0c2.96 2.34 1.99 7.03-1.61 8.14-22.94 7.02-46.77 10.59-71.09 10.59s-48.12-3.57-71.03-10.57c-3.61-1.1-4.58-5.8-1.62-8.13 20.01-15.77 45.25-25.19 72.65-25.19s52.09 8.85 72.7 25.17ZM36.41 56.29c2.62-3.33 7.06-4.58 11.08-3.22 26.14 8.83 53.45 13.35 81.37 13.35 24.6 0 48.73-3.52 72-10.38-14.26 20.73-22.63 45.82-22.63 72.83s8.37 52.09 22.63 72.83c-23.28-6.86-47.41-10.38-72-10.38-27.92 0-55.23 4.52-81.37 13.35-4.02 1.36-8.45.11-11.08-3.22-15.74-20-25.16-45.21-25.16-72.58S20.66 76.3 36.4 56.29Zm19.8 165c-2.97-2.34-1.99-7.03 1.62-8.13 22.93-7.01 46.74-10.58 71.03-10.58s48.16 3.58 71.1 10.6c3.61 1.1 4.57 5.8 1.61 8.14-20.65 16.31-46 25.16-72.71 25.16s-52.64-9.42-72.65-25.19Zm178.24 0c-2.97-2.34-1.99-7.03 1.62-8.13 22.93-7.01 46.74-10.58 71.03-10.58s48.16 3.58 71.1 10.6c3.61 1.1 4.57 5.8 1.61 8.14-20.65 16.31-46 25.16-72.71 25.16s-52.63-9.42-72.65-25.19Zm178.24 0c-2.97-2.34-1.99-7.03 1.62-8.13 22.93-7.01 46.74-10.58 71.03-10.58s48.11 3.57 71.03 10.58c3.61 1.1 4.58 5.8 1.62 8.13-20.01 15.77-45.25 25.19-72.65 25.19s-52.64-9.42-72.65-25.19Z"></path></svg>