<svg xmlns="http://www.w3.org/2000/svg" width="496.4" viewBox="0 0 496.4 603.5" height="603.5" style="enable-background:new 0 0 496.4 603.5" xml:space="preserve"><path d="M465.4 0v170.7c-71 38.6-146.2 79.5-217.2 118.1V525l31-16.9v93.4c10.6-1.3 20.9-3.2 31-5.8V491.3l31-16.9v111c10.7-4.3 21.1-9.4 31-15.2V457.5l31-16.9V549c11.2-9 21.6-18.9 31-29.6v-95.6l31-16.9v68.6c19.7-35.6 31-76.6 31-120.2V0h-30.8z"></path><path d="M434.4 0h-31.1v136.9l31.1 16.9zM372.3 0h-31v103.2l31 16.9zM310.3 0h-31.1v69.4l31.1 16.9zM217.2 271.9l-31-16.9v236.2l-31-16.9V238.2l-31-16.9v236.2l-31-16.9V204.4l-31-16.9v236.2l-31-16.9V170.7c71-38.6 146.2-79.5 217.2-118.1V0H0v355.3c0 43.6 11.3 84.6 31 120.2 42.5 77.9 128.3 128.7 217.2 128V525l-31-16.9V271.9z"></path></svg>