<svg id="Layer_1" data-name="Layer 1" xmlns="http://www.w3.org/2000/svg" viewBox="0 0 580.38 625.54">   <path d="M390.91,350.07c-14.35,0-28.84-7.06-40.76-14.1-30.48-17.98-48.63-52.88-37.49-95.84,12.79-49.32,65.57-49.52,72.95-49.52l53.41-.51c24.41,0,44.88-21.08,44.88-45.48,0-22.28-15.77-42.91-48.26-42.91,.59-15.99-3.27-43.78-35.58-51.4-.44-.1-.87,.2-.92,.64-.74,6.83-11.51,50.76-58.91,50.76h-42.02s-3.38,13.72-7.29,19.59c1.23,1.11,19.93,40.87-17.65,67.4-28.05,19.8-85.59,15.4-85.75-54.81h56.09c23.38,0,45.48-21.01,45.48-46.24s-20.45-45.53-45.68-45.53H101.73c-17.38,0-59.86,1.55-88.18-36.69-1.93-2.6-3.17-4.18-3.9-5.07-.45-.55-1.04-.46-1.31,.2C-14.29,57.11,21.62,132.84,100.97,133.32c.42,0,.76,.34,.76,.76v11.47c-55.94,0-80.42-31.6-90.26-43.1-.44-.52-1.01-.42-1.27,.21-22.72,56.52,11.41,130.25,90.77,130.72,.42,0,.76,.34,.76,.76v11.69c-55.93,0-80.54-31.58-90.26-43.09-.44-.52-1.02-.43-1.27,.21-22.72,56.52,11.41,130.24,90.77,130.71,.42,0,.76,.34,.76,.76v11.27c-55.93,0-80.54-31.58-90.26-43.09-.44-.52-1.02-.43-1.27,.21-20.52,51.25,7.06,127.61,91.11,128.07,.42,0,.76,.34,.76,.76v11.3c-55.93,0-80.88-29.09-90.6-40.45-.44-.52-1.02-.42-1.27,.21-22.72,56.45,11.41,124.59,90.77,125.03,.42,0,.76,.34,.76,.76v10.72c0,.43-.35,.77-.78,.77-55.44-.28-83.33-30.55-93.19-41.93-.44-.51-1.01-.41-1.26,.21-22.72,56.66,15.32,127.27,95.23,127.27H465.92c.43,0,.78-.35,.77-.78-.42-50.47-41.32-84.12-91.86-84.46-.42,0-.76-.34-.76-.76v-11.93c0-.43,.35-.78,.78-.77,10.17,.18,61.4,3.94,85.87,46.05,.23,.4,.77,.51,1.13,.21,2.35-1.92,9.63-10.34,9.63-41.17,0-36.77-35.77-85.26-85.16-85.26-39.52,0-65.54,.46-84.69,.09-62.94-1.19-115.32-23.77-115.32-111.56h10.21c0,98.38,83.5,98.95,94.26,98.95h100.91c12.52,0,84.48-18.77,84.48-96.61l.14-36.62c0-.41-.31-.75-.72-.77-27.43-1.39-84.68-5.62-84.68,49.9Z"></path>   <path d="M473.44,101.72c-.73,.03-1.02,.96-.43,1.39,2.08,1.52,5.52,4.18,9.18,8.83,17.07,21.66,13.62,50.46-2.67,69.13-19.12,21.91-30.22,19.16-94.43,18.96-54.24-.18-65.77,41.25-65.77,56.89,0,.09-.83,5.69-.09,13.52,1.23,13.05,6,32.61,20.25,45.52,15.71,14.23,37.48,23.08,41.81,24.49,.44,.14,.89-.13,.99-.58,11.22-55.41,62.91-50.08,103.79-50.08,52.09,0,94.31-42.22,94.31-94.31h0c0-39.93-26.65-96.6-106.94-93.75Z"></path>   <path d="M211.99,145.51c-.4,0-.73,.3-.77,.7-1.18,10.3,13.26,33.95,38.97,27.03,22.95-6.18,24.82-30.01,24.92-36,.01-.61-.65-.98-1.17-.66-18.72,11.23-34.24,8.97-61.95,8.94Z"></path> </svg>