<svg xmlns="http://www.w3.org/2000/svg" width="624.8" viewBox="0 0 624.8 624.8" height="624.8" xml:space="preserve"><path d="M368 399.9h.1l-182-182.3L393 10.5C367.3 3.6 340.3 0 312.4 0 265.5 0 221 10.3 181.1 28.8v336.6h-48V56.6C52.6 113.1 0 206.6 0 312.4c0 21.8 2.2 43 6.5 63.5h326.9v48H20.5c28.3 74 84 134.5 154.6 169.1L368 399.9z"></path><path d="M291.2 241.7v-48h310.3c-30-73-86.9-132.1-158.4-165.1l-188.8 189 182.1 182.3-212.1 212.3c28 8.2 57.5 12.6 88.2 12.6 46.2 0 90-10 129.5-28V252.2h48v317.3c81.5-56.4 134.9-150.5 134.9-257.1 0-24.3-2.8-48-8-70.7H291.2z"></path></svg>