<svg data-name="Layer 1" xmlns="http://www.w3.org/2000/svg" viewBox="0 0 601.8 579.21"><path d="M213.66 239.48V7.7L200.31 0l.49 232.06 12.86 7.42zM240.36 23.11l-13.35-7.71v231.79l13.35 7.71V23.11zM267.07 38.51l-13.35-7.7v231.8l13.35 7.71V38.51zM293.77 53.92l-13.35-7.71v231.81l13.35 7.71V53.92zM320.47 69.32l-13.35-7.7v231.82l13.35 7.71V69.32zM347.18 84.73l-13.35-7.7v231.83l13.35 7.71V84.73zM373.88 100.13l-13.35-7.7v231.85l13.35 7.7V100.13zM400.56 115.53l-13.33-7.69v231.85l13.36 7.71-.03-231.87zM400.58 347.4l-12.85 7.43 200.72 115.88L601.8 463 400.58 347.4zM361.02 370.24l200.74 115.9 13.35-7.71-200.73-115.9-13.36 7.71zM334.32 385.66l200.75 115.9 13.34-7.71-200.74-115.9-13.35 7.71zM307.62 401.08l200.75 115.91 13.35-7.72-200.75-115.9-13.35 7.71zM280.91 416.5l200.77 115.91 13.35-7.71-200.77-115.91-13.35 7.71zM254.21 431.91l200.78 115.92 13.34-7.71L267.56 424.2l-13.35 7.71zM227.5 447.33l200.79 115.93 13.35-7.72-200.78-115.92-13.36 7.71zM200.8 462.75l200.82 115.92 13.33-7.7-200.8-115.93-13.35 7.71z"></path><path d="M.08 579.21 200.8 462.76v-14.85L.08 563.8v15.41zM.06 532.97l.01 15.41L200.8 432.49v-15.41L.06 532.97zM.05 502.14l.01 15.42 200.74-115.9v-15.42L.05 502.14zM200.8 355.41.04 471.31l.01 15.42L200.8 370.82v-15.41zM200.8 324.57.03 440.48l.01 15.42L200.8 339.99v-15.42zM200.8 293.74.02 409.66l.01 15.41L200.8 309.15v-15.41zM200.8 262.9.01 378.83l.01 15.41L200.8 278.32V262.9zM200.8 232.07 0 348.02v15.39l200.8-115.93v-15.41z"></path></svg>