<svg xmlns="http://www.w3.org/2000/svg" width="617.8" viewBox="0 0 617.8 617.8" height="617.8"><path d="M617.8 308.8c0-28.3-22.9-51.2-51.2-51.2h-1.5c.6-.2 1.2-.5 1.8-.7 26.1-10.8 38.6-40.8 27.8-66.9-10.8-26.1-40.6-38.5-66.7-27.8 19.3-20.1 19.1-52-.7-71.8-19.5-19.5-50.7-20-70.9-1.6 9.4-25.7-3-54.4-28.5-65-26.1-10.8-56.1 1.6-67 27.7-.4 1-.8 2-1.1 3 .1-1.1.1-2.2.1-3.3C359.9 23 337 0 308.7 0c-27.5 0-50 21.7-51.2 48.9-11.5-24.7-40.6-36.2-66-25.7C165.3 34 152.9 64 163.7 90.1c.3.7.6 1.5 1 2.2-.6-.6-1.1-1.2-1.7-1.8-20-20-52.5-20-72.5 0-19.6 19.6-20 51-1.3 71.1-25.7-9.7-54.7 2.8-65.3 28.4-10.8 26.1 1.6 56.1 27.7 67 .6.3 1.3.5 1.9.7-.7 0-1.4-.1-2.2-.1C23 257.6 0 280.5 0 308.8c0 27.8 22.1 50.3 49.6 51.2-25.2 11.3-37 40.7-26.4 66.3 10.8 26.2 40.8 38.6 67 27.8.5-.2 1.1-.5 1.6-.7-.5.4-.9.9-1.4 1.3-20 20-20 52.5 0 72.5 19.7 19.7 51.3 20 71.4 1-10 25.9 2.4 55.1 28.2 65.8 26.1 10.8 56.1-1.6 67-27.7.2-.5.4-.9.5-1.4v1.7c0 28.3 22.9 51.2 51.2 51.2 27.9 0 50.5-22.3 51.2-50 11.2 25.5 40.7 37.4 66.5 26.8 26.1-10.8 38.6-40.8 27.7-67-.3-.6-.5-1.2-.8-1.8l.8.8c20 20 52.5 20 72.5 0 19.4-19.4 20-50.4 1.9-70.5 25.8 9.9 54.9-2.6 65.6-28.3 10.8-26.1-1.6-56.1-27.7-67-.7-.3-1.5-.6-2.2-.9.8 0 1.7.1 2.5.1 28.1 0 51.1-22.9 51.1-51.2zM438 113.3c17.4 0 33.8 6.7 46.3 18.9 26.1 25.5 26.6 67.5 1.1 93.7-12.6 12.9-29.4 20-47.4 20-17.4 0-33.8-6.7-46.3-18.9-12.7-12.4-19.7-28.9-19.9-46.6-.2-17.7 6.5-34.4 18.9-47.1 12.5-12.9 29.3-20 47.3-20zM308 59.9h.7c36.1 0 65.9 29.4 66.2 65.6.2 17.7-6.5 34.4-18.9 47-12.4 12.6-28.9 19.7-46.6 19.9h-.7c-36.1 0-65.9-29.4-66.2-65.6-.4-36.5 29-66.5 65.5-66.9zm-175.6 73.3c12.6-12.8 29.3-19.8 47.2-19.8 17.5 0 34 6.8 46.4 19 12.6 12.4 19.6 29 19.8 46.7.1 17.7-6.6 34.4-19 47-12.6 12.8-29.3 19.8-47.2 19.8-17.5 0-34-6.8-46.4-19-12.6-12.4-19.6-29-19.8-46.7-.1-17.7 6.6-34.3 19-47zm-72.5 176c-.1-17.7 6.7-34.4 19.1-47 12.4-12.6 29-19.6 46.7-19.7h.5c36.3 0 66 29.5 66.2 65.8.2 36.5-29.3 66.4-65.8 66.7h-.5c-36.2 0-66-29.5-66.2-65.8zm119.6 195c-17.6 0-34.1-6.8-46.6-19.2-12.6-12.4-19.5-29-19.6-46.7-.1-17.7 6.7-34.4 19.2-46.9 12.5-12.7 29.3-19.6 47.1-19.6 17.6 0 34.1 6.8 46.6 19.2 26 25.7 26.2 67.7.5 93.7-12.6 12.6-29.3 19.5-47.2 19.5zm176.1 34.1c-12.5 12.6-29.1 19.5-46.8 19.6h-.2c-36.4 0-66.1-29.6-66.2-66-.1-17.7 6.8-34.3 19.2-46.9 12.5-12.6 29.1-19.5 46.8-19.6h.2c36.4 0 66.1 29.6 66.2 66 .1 17.7-6.7 34.4-19.2 46.9zM485 484.9c-12.5 12.6-29.2 19.5-46.9 19.5-17.6 0-34.3-6.9-46.8-19.3-12.5-12.5-19.4-29.1-19.5-46.8 0-17.7 6.8-34.3 19.3-46.9 12.5-12.6 29.2-19.5 46.9-19.5s34.3 6.9 46.8 19.3c12.5 12.5 19.4 29.1 19.5 46.8.1 17.7-6.8 34.4-19.3 46.9zm6.6-109.9c-36.5 0-66.2-29.7-66.2-66.2s29.7-66.2 66.2-66.2 66.2 29.7 66.2 66.2-29.6 66.2-66.2 66.2z"></path></svg>