<svg data-name="Layer 1" xmlns="http://www.w3.org/2000/svg" viewBox="0 0 610.39 608.4"><path d="M610.39 182.08c0-48.82-18.89-94.6-53.18-128.89-69.2-69.2-180.59-70.81-252.01-5.21-71.43-65.61-182.8-63.99-252.02 5.21C18.89 87.49 0 133.26 0 182.08c0 46.26 16.98 89.77 47.94 123.39-63.41 71.5-61.09 181.18 7.36 249.64 35.53 35.53 82.21 53.3 128.89 53.3 43.35 0 86.58-15.53 121-46.17 34.42 30.65 77.65 46.17 121 46.17 46.68 0 93.36-17.77 128.9-53.31 68.44-68.45 70.76-178.14 7.36-249.64 30.96-33.61 47.94-77.12 47.94-123.38ZM428.32 23.83c40.54 0 81.09 15.44 111.95 46.3 29.77 29.77 46.16 69.53 46.16 111.95 0 39.66-14.49 76.88-40.69 105.9L322.42 64.65c30.03-27.1 67.9-40.82 105.9-40.82ZM529.1 305.21 363.38 470.94V229.23l75.49-14.25 90.23 90.23ZM415.61 191.72h-91.55l-5.78-11.24 3.47-4.14c4.7-5.61 7.28-12.7 7.28-20.02v-11.05c0-10.39-8.42-18.81-18.81-18.81h-10.03c-10.39 0-18.81 8.42-18.81 18.81v11.05c0 7.32 2.58 14.41 7.28 20.02l3.47 4.14-5.78 11.24h-91.56L305.21 81.3l110.42 110.42ZM247.02 470.94 81.29 305.21l90.24-90.24 75.49 14.26v241.71ZM23.95 182.08c0-42.42 16.39-82.18 46.16-111.95 30.87-30.87 71.41-46.3 111.95-46.3 37.98 0 75.87 13.73 105.9 40.83L64.64 287.99c-26.2-29.02-40.68-66.25-40.68-105.91Zm48.29 356.09c-59.07-59.08-61.46-153.5-7.49-215.63l223.1 223.11c-62.12 53.98-156.54 51.59-215.62-7.48Zm202.21-39.8.49-1.04 24.12-128.61h12.28l24.12 128.61.49 1.03-30.75 30.75-30.75-30.75Zm263.71 39.8c-59.07 59.07-153.49 61.48-215.63 7.49l223.1-223.11c53.98 62.13 51.59 156.55-7.48 215.62Z"></path></svg>