<svg data-name="Layer 1" xmlns="http://www.w3.org/2000/svg" viewBox="0 0 620.17 301.09"><path d="M546.22 111.44h-90.75C438.25 47.26 379.7 0 310.09 0c-64.08 0-118.77 40.06-140.5 96.48h79.76c14.9-16.72 36.58-27.27 60.74-27.27 44.92 0 81.33 36.41 81.33 81.33 0 11.66-2.47 22.73-6.88 32.75h127.97l-55.28 117.79h73.95l88.99-189.65h-73.95Z"></path><path d="M310.09 231.87c-44.92 0-81.33-36.41-81.33-81.33 0-11.66 2.47-22.73 6.88-32.75H107.67L162.95 0H88.99L0 189.65h164.71c17.22 64.18 75.77 111.44 145.38 111.44 64.08 0 118.77-40.06 140.5-96.48h-79.76c-14.9 16.72-36.58 27.27-60.74 27.27Z"></path></svg>