<svg xmlns="http://www.w3.org/2000/svg" width="625.5" viewBox="0 0 625.5 577.8" height="577.8" xml:space="preserve"><path d="M621.5 432.3c-8-29.8-27.1-54.7-53.8-70.1-16.4-9.5-35.1-14.8-54.5-15.4h-67.5l-67.7-117 32.8-54.1c11.1-18.1 17-39 17-60.3C427.8 51.8 376.1 0 312.4 0S197 51.8 197 115.4c0 19 4.7 37.8 13.9 54.9l35 60.7-65.3 115.8h-63.2c-22.5-.3-42.9 4.7-60.6 15.2C1.9 394.3-16.4 465.2 16 520c15.7 26.6 40.7 45.4 70.6 53.1 9.6 2.5 19.4 3.7 29.1 3.7 20.3 0 40.4-5.4 58.4-16 16.3-9.6 30.1-23.2 40.2-39.8l33.3-58.9h130.5l30.5 55.2c10.1 18.7 25.3 34.2 43.8 44.9 17.8 10.3 37.5 15.5 57.5 15.5 10.1 0 20.2-1.3 30.1-4 29.8-8 54.7-27.1 70.1-53.8 15.4-26.7 19.4-57.8 11.4-87.6zm-380-279.1c-6.2-11.5-9.4-24.6-9.4-37.8 0-44.3 36-80.3 80.3-80.3s80.3 36 80.3 80.3c0 14.9-4.1 29.4-11.9 42L358 195.2l-25.1-43.4 8.5-15s2.1-3.7 2.5-4.5c2.6-4.9 4.1-10.4 4.1-16.4 0-19.6-16-35.6-35.6-35.6s-35.6 16-35.6 35.6c0 7.7 2.5 14.8 6.7 20.6l121.6 210.2h-51.9L241.5 153.2zm-57.5 350c-6.8 11.2-16.4 20.6-27.8 27.4-38.2 22.4-87.5 9.7-109.9-28.4-22.5-38.1-9.8-87.4 28.4-109.9 12.1-7.1 26.4-10.8 42.4-10.3h43.7l-24.5 43.5H116c-6.3 0-12.6 1.7-18.1 4.9-16.9 10-22.5 31.8-12.5 48.7 6.4 10.8 18.1 17.5 30.7 17.5 6.3 0 12.6-1.7 18.1-4.9 6.5-3.8 11.4-9.5 14.4-16.3l118.5-207.9 25.5 44.2L184 503.2zm395.6-.8c-10.7 18.6-28 31.9-48.7 37.4-20.7 5.5-42.3 2.7-60.9-8-12.9-7.4-23.4-18.2-30.5-31.3l-21.3-38.6 50.6-.1 8.8 15.9.6 1h.1c3.1 5.8 7.7 10.6 13.5 14 5.4 3.1 11.5 4.8 17.8 4.8 12.7 0 24.5-6.8 30.8-17.8 9.8-17 3.9-38.8-13.1-48.6-5.4-3.1-11.6-4.8-17.8-4.8h-242L293 382h219.7c13.3.4 25.9 4 37.5 10.7 18.6 10.7 31.9 28 37.4 48.7 5.5 20.8 2.7 42.4-8 61z"></path></svg>