<svg xmlns="http://www.w3.org/2000/svg" width="610.8" viewBox="0 0 610.8 609.2" height="609.2" xml:space="preserve"><path d="M469.8 309.6h.8V181.3H140.2v128.3h.8l63-63h202.8z"></path><path d="M336.5 0v117.5h134.1l63.8 63.8v129.1h-63.8v128.3h-63.8V567H343V438.6h-75.3v128.3H204V438.6h-63.8V310.3H76.4v-129l63.8-63.8h134.1V0C120.2 15.6 0 145.7 0 303.8c0 168.7 136.7 305.4 305.4 305.4s305.4-136.7 305.4-305.4C610.8 145.7 490.5 15.6 336.5 0z"></path><path d="M204 310.3v127.6h.7l63-63H343l63 63h.8V309.6H204z"></path></svg>