<svg version="1.0" xmlns="http://www.w3.org/2000/svg" width="623" viewBox="0 0 623 623" height="623" xml:space="preserve" style="enable-background:new 0 0 623 623"><path d="M531.8 91.2C472.9 32.4 394.7 0 311.5 0S150.1 32.4 91.2 91.2C32.4 150.1 0 228.3 0 311.5c0 83.2 32.4 161.4 91.2 220.3C150 590.6 228.3 623 311.5 623s161.4-32.4 220.3-91.2C590.6 473 623 394.7 623 311.5c0-83.2-32.4-161.4-91.2-220.3zm-411.4 29.2c51.1-51.1 118.9-79.2 191.1-79.2 72.2 0 140.1 28.1 191.1 79.2 39.4 39.4 65.2 88.9 74.8 142.6-76.8-56.5-169.5-87.2-266-87.2s-189.2 30.7-266 87.2c9.8-53.7 35.5-103.2 75-142.6zm373.5 279c0 100.6-81.8 182.4-182.4 182.4S129.1 500 129.1 399.4 210.9 217 311.5 217s182.4 81.8 182.4 182.4zM41.3 319.3c30.4-26.9 64.4-48.9 100.6-65.4-33.7 39.1-54 90-54 145.6 0 31 6.3 60.5 17.8 87.3-40.1-47-62.6-105.5-64.4-167.5zm476 167.4c11.4-26.8 17.8-56.4 17.8-87.3 0-55.6-20.4-106.4-54-145.6 36.3 16.6 70.2 38.5 100.6 65.4-1.7 62.1-24.3 120.6-64.4 167.5z"></path></svg>