<svg xmlns="http://www.w3.org/2000/svg" width="642" viewBox="0 0 642 474.7" height="474.7" style="overflow:visible;enable-background:new 0 0 642 474.7" xml:space="preserve"><path d="m642 237.2-40.6 72.9C546.5 408.3 441.5 474.7 321 474.7S95.5 408.3 40.6 310.1L0 237.2l40.6-72.9C94.2 68.4 193.9 4.9 306.5 0c3 46.8-25 101.4-76.4 127.5-76.3 35.9-100.5 101.1-107 109.7l11.4 20.5C171.7 324 242.3 367.2 321 367.2S470.3 324 507.4 257.6l11.4-20.5c-6.4-8.6-30.6-73.8-107-109.7-51.3-26-79.2-80.6-76.3-127.4 112.6 4.9 212.2 68.4 265.9 164.2l40.6 73z"></path><path d="M430.1 237.2c0 60.3-48.9 109.1-109.1 109.1s-109.1-48.9-109.1-109.1c0-37.7 19.1-70.9 48.2-90.5 29.8-19.3 51.5-50 58.9-86h4.2c7.4 36 29.1 66.8 58.9 86 29 19.6 48 52.8 48 90.5z"></path></svg>