<svg xmlns="http://www.w3.org/2000/svg" width="593.3" viewBox="0 0 593.3 589.6" height="589.6"><path d="M374.3 125.3c16.8 0 30.6-13.8 30.6-30.6v-78C385.4 9 364.9 3.4 343.6 0v94.6c0 16.9 13.8 30.7 30.7 30.7z"></path><path d="M514.4 91.5v316.8c0 8.9-7.3 16.1-16.1 16.1H478c-8.9 0-16.1-7.3-16.1-16.1V188.5c0-7.1-5.8-12.8-12.8-12.8-7.1 0-12.8 5.8-12.8 12.8v219.7c0 8.9-7.3 16.1-16.1 16.1h-77.6c-8.9 0-16.1-7.3-16.1-16.1V331c0-12.6-10.3-22.9-22.9-22.9-12.6 0-22.9 10.3-22.9 22.9v56.6h-.1v20.7c0 8.9-7.3 16.1-16.1 16.1H87.4c-8.9 0-16.1-7.3-16.1-16.1v-20.7c0-8.9 7.3-16.1 16.1-16.1h119.9c12.4 0 22.6-10.2 22.6-22.6 0-12.4-10.2-22.6-22.6-22.6h-57.2c-8.8 0-16-7.2-16-16s7.2-16 16-16h20.3c12.4 0 22.6-10.2 22.6-22.6 0-12.4-10.2-22.6-22.6-22.6h-77c-8.9 0-16.1-7.3-16.1-16.1V93.3C29.3 146 0 216 0 292.9c0 163.8 132.8 296.7 296.7 296.7s296.7-132.8 296.7-296.7c-.1-77.7-30-148.5-79-201.4z"></path></svg>