<svg xmlns="http://www.w3.org/2000/svg" width="642" viewBox="0 0 642 570.42" height="570.42" data-name="Layer 1"><path d="M223.1 339.08c0 46.12 31.94 84.69 74.87 95.07V244.02c-42.94 10.37-74.87 48.94-74.87 95.07Z"></path><path d="M642 516.33H478.29c-50.4 0-96.09 20.77-128.76 54.09h-5.5l.02-104.87c59.9-10.91 105.35-63.24 105.35-126.28 0-70.88-57.46-128.4-128.4-128.4s-128.4 57.52-128.4 128.4c0 63.04 45.45 115.37 105.35 126.28l.02 104.87h-5.5c-32.68-33.32-78.36-54.09-128.76-54.09H0L321 0l321 516.33Z"></path><path d="M344.03 244.02v190.13c42.94-10.37 74.87-48.94 74.87-95.07s-31.94-84.69-74.87-95.07Z"></path></svg>