<svg data-name="Layer 1" xmlns="http://www.w3.org/2000/svg" viewBox="0 0 614.42 563.46"><path d="M126.62 214.94a89.776 89.776 0 0 1 20.03-51.95c.12-.15-.08-.34-.22-.2L25.38 283.84C10.73 298.98 1.31 319.21.13 341.43c-1.35 25.3 7.77 48.48 23.41 65.59l-.3.17 154.92 156.27 127.4-127.4-155.53-155.53c-15.64-17.12-24.75-40.29-23.41-65.59ZM529.58.14c-47.01-2.59-86.7 30.92-93.9 75.33-.06.34-.47.33-.52-.01C423.39 1.22 332.11-22.88 278.43 30.8L159.11 150.12l.02.02c35.69-29.84 88.89-28.04 122.42 5.49 12.08 12.08 19.99 26.72 23.84 42.18.2.82 1.26.82 1.47 0 4.64-18.62 15.18-36.08 31.81-49.28 33.52-26.61 82.46-25.72 115.04 2.04 36.89 31.44 41.88 84.51 15.18 121.93.08.09.03.03.1.13l121.95-121.95C641.72 95.83 605.07 4.4 529.58.14Z"></path></svg>