<svg xmlns="http://www.w3.org/2000/svg" width="544" viewBox="0 0 544 612.5" height="612.5" xml:space="preserve"><path d="M0 0h99.1v544H0zM198.1 0v186.8c23.8-37 65.3-61.6 112.6-61.6 73.9 0 133.7 59.9 133.7 133.8l.5 285.1H544V0H198.1z"></path><path d="M272 227.9c-40.8 0-73.4 32.7-73.4 73V544c31.5 0 57 25.2 57 56.3v12.2h11.9v-175c-11.3-2.4-19.8-12.4-19.8-24.4 0-13.8 11.2-24.9 24.9-24.9 13.8 0 24.9 11.2 24.9 24.9 0 12-8.4 21.9-19.7 24.4v175h11.7v-12.2c0-31.1 25.2-56.3 56.3-56.3V299c.1-40.3-33-71.1-73.8-71.1z"></path></svg>