<svg xmlns="http://www.w3.org/2000/svg" width="642" viewBox="0 0 642 642" height="642" data-name="Layer 1"><path d="m287.3 268.03 86.66-86.66h-35.31V0h-35.3v181.37h-35.31V0l-35.31 35.31v146.06h-35.31V70.62l-35.31 35.31v75.44H126.8v-40.13L0 268.04l287.3-.01zM373.97 287.3l86.66 86.66v-35.31H642v-35.3H460.63v-35.31H642l-35.31-35.31H460.63v-35.31h110.75l-35.31-35.31h-75.44V126.8h40.13L373.96 0l.01 287.3zM354.7 373.97l-86.66 86.66h35.31V642h35.3V460.63h35.31V642l35.31-35.31V460.63h35.31v110.75l35.31-35.31v-75.44h35.31v40.13L642 373.96l-287.3.01zM268.03 354.7l-86.66-86.66v35.31H0v35.3h181.37v35.31H0l35.31 35.31h146.06v35.31H70.62l35.31 35.31h75.44v35.31h-40.13L268.04 642l-.01-287.3z"></path></svg>