<svg data-name="Layer 1" xmlns="http://www.w3.org/2000/svg" viewBox="0 0 632.47 590.77"><path d="M494.5 228.86c3.63-14.41 5.57-29.48 5.57-45.01C500.08 82.31 417.77 0 316.24 0S132.4 82.31 132.4 183.84c0 8.17.69 16.16 1.73 24.05 15.92-3.97 32.57-6.1 49.72-6.1 113.29 0 205.14 91.84 205.14 205.14 0 55.12-21.78 105.11-57.14 141.97 31.76 26.16 72.44 41.87 116.8 41.87 101.53 0 183.84-82.31 183.84-183.84 0-85.69-58.63-157.69-137.97-178.07ZM6.33 359.13l129.63-129.64C72.91 246.47 23.27 296.06 6.33 359.13ZM146.91 253.2.3 399.81c-.09 2.37-.3 4.72-.3 7.11 0 8.83.66 17.5 1.86 25.99L158.6 276.17c-4.41-7.35-8.32-15.01-11.69-22.98ZM172.76 296.69 8.17 461.27c2.65 8.59 5.92 16.91 9.75 24.91l171.44-171.44c-5.92-5.65-11.49-11.66-16.61-18.05Z"></path><path d="m208.29 330.49-177.8 177.8c4.56 6.89 9.59 13.45 15.02 19.64l184.01-184.01c-7.42-3.98-14.47-8.51-21.23-13.43ZM253.48 354.63 62.84 545.27c6.2 5.43 12.75 10.45 19.65 15.02l198.16-198.16c-9.32-1.83-18.41-4.31-27.17-7.49ZM316.24 365.7c-1.45 0-2.87-.15-4.32-.18L104.59 572.85c8 3.83 16.32 7.1 24.91 9.75l219.93-219.93c-10.77 1.97-21.86 3.03-33.2 3.03ZM367.68 406.93c0-8.82-.68-17.47-1.89-25.96L157.85 588.91c8.49 1.2 17.16 1.86 25.98 1.86 2.35 0 4.67-.09 7-.18L367.5 413.92c.09-2.33.18-4.65.18-7ZM231.64 584.45c31.55-8.48 59.77-25.1 82.2-47.53s39.06-50.64 47.53-82.2L231.64 584.45Z"></path></svg>