<svg data-name="Layer 1" xmlns="http://www.w3.org/2000/svg" viewBox="0 0 614.53 562.1"><g data-name="Harcourt Brace and Company 1957"><path d="M119.9 456.48H79.96V103.43h39.94v150.14h167.37V0H0v562.1h287.28V295.63H119.9v160.85ZM432.04 418.12c57.07 0 68.84-40.07 68.84-64.63 0-21.41-15.74-54.79-60.76-58.39H328.51v123.02h103.52ZM328.52 0v102.1h118.37c29.56 0 49.1 8.39 67.27 25.15 18.18 16.79 27.28 40.34 27.3 70.66 0 26.11-15.7 64.77-51.65 78.13 34.96 13.73 52.68 47.95 52.68 84.19 0 30.34-25.62 95.98-95.59 95.98H328.53v105.9h286.02V0H328.52Zm102.96 256.27c63.48 0 73.13-36.28 73.13-58.14 0-24.56-13.09-57.11-72.57-57.11H328.52v115.25h102.96Z"></path></g></svg>