<svg xmlns="http://www.w3.org/2000/svg" width="458.1" viewBox="0 0 458.1 593.3" height="593.3"><path d="M386.1 197.3h35.4c21.6 0 39-19 36.3-41.1-2.2-18.5-18.6-32.1-37.3-32.1H246.7c26.4-7.6 45.7-31.9 45.7-60.8 0-35-28.3-63.3-63.3-63.3s-63.3 28.3-63.3 63.3c0 28.8 19.3 53.1 45.7 60.8H37.6c-18.7 0-35.1 13.6-37.3 32.1-2.7 22.1 17.2 41.1 38.9 41.1h35.4c11 0 19.2 10.2 16.9 21l-6.6 30.5c6-7.9 15.4-13.1 26-13.1h110.7c-23.7 3.6-41.9 24.1-41.9 48.8 0 22.9 15.6 42.1 36.8 47.7h-56.1c-10.2 0-19.6 4.7-25.6 12.2L142 311c1.1-5.3-2.9-10.3-8.3-10.3h-21.8c-15.5 0-29.3-10.6-32.6-25.4L13.7 579c-1.6 7.3 4 14.2 11.5 14.2h70.4c-7.5 0-13.1-6.9-11.5-14.2l44.8-207.8c3.4 13.6 15.8 23.8 30.4 23.8H173c6.9 0 12 6.3 10.5 13l-36.8 171c-1.6 7.3 4 14.2 11.5 14.2h150.6c6.2 0 10.8-5.7 9.5-11.8l-37.4-173.5c-1.4-6.7 3.6-12.9 10.4-12.9h7.5c16.5 0 30-12.9 31.2-29.1L376 579c1.6 7.3-4 14.2-11.5 14.2h70.8c7.5 0 10.6-6.9 9-14.2l-65.4-303.6c-3.4 14.8-17.1 25.4-32.6 25.4h-19.7c-5.4 0-9.5 5-8.4 10.3l8.1 37.7c-5.5-10-16.5-16.6-28.5-16.6h-56.2c21.2-5.6 36.8-24.8 36.8-47.7 0-24.7-18.2-45.2-41.9-48.8h110.7c10.6 0 20.1 5.2 26 13.1l-4.1-30.5c-2.2-10.8 6-21 17-21zM229 233.5c-29.5 0-53.5-23.9-53.5-53.5 0-29.5 23.9-53.5 53.5-53.5 29.5 0 53.5 23.9 53.5 53.5s-23.9 53.5-53.5 53.5z"></path></svg>