<svg xmlns="http://www.w3.org/2000/svg" width="613.3" viewBox="0 0 613.3 322.1" height="322.1" style="enable-background:new 0 0 613.3 322.1" xml:space="preserve"><path d="M519.8 16.3c-1.7 9.7-5.9 19.1-12.7 27.2-20.5 24.5-57.1 27.7-81.6 7.1l-15.4-12.9C364-1.1 302.4-9.5 249.7 10.4v47c41.5-22.8 94.5-19.2 133 13.1l15.4 12.9c42.6 35.7 106.1 30.2 141.8-12.4 11.8-14 19.1-30.4 22-47.2l1.7-9.9-42.1-7.4-1.7 9.8zm91.8 16.2 1.7-9.9-42.1-7.4-1.7 9.9c-3.2 18.1-11 35.7-23.7 50.8-38.4 45.8-106.7 51.8-152.5 13.3l-15.4-12.9c-37.1-31.2-88.7-33.8-128.1-10.2V124c1.5-2.3 3.1-4.5 4.9-6.6 24.1-28.7 67-32.5 95.7-8.4l15.4 12.9c63.9 53.6 159.1 45.3 212.7-18.6 17.7-21 28.6-45.5 33.1-70.8zM93.5 305.8c1.7-9.7 5.9-19.1 12.7-27.2 20.5-24.5 57.1-27.7 81.6-7.1l15.4 12.9c46.2 38.8 107.8 47.2 160.5 27.3v-47c-41.5 22.8-94.5 19.2-133-13.1l-15.4-12.9c-42.6-35.7-106.1-30.2-141.8 12.4-11.8 14-19.1 30.4-22 47.2l-1.7 9.9 42.1 7.4 1.6-9.8zM1.7 289.6l-1.7 10 42.1 7.4 1.7-9.9c3.2-18.1 11-35.7 23.7-50.8C106 200.5 174.3 194.5 220 233l15.4 12.9c37.1 31.2 88.7 33.8 128.1 10.2v-57.9c-1.5 2.3-3.1 4.5-4.9 6.6-24.1 28.7-67 32.5-95.7 8.4l-15.4-12.9C183.6 146.7 88.4 155 34.8 218.9c-17.7 21-28.6 45.5-33.1 70.7zm347.7-171.2c-11.8-11.8-27.3-17.7-42.7-17.7-15.5 0-30.9 5.9-42.7 17.7-11.8 11.8-17.7 27.3-17.7 42.7 0 15.5 5.9 30.9 17.7 42.7 11.8 11.8 27.3 17.7 42.7 17.7 15.5 0 30.9-5.9 42.7-17.7 11.8-11.8 17.7-27.3 17.7-42.7 0-15.5-5.9-30.9-17.7-42.7z" style="fill-rule:evenodd;clip-rule:evenodd"></path></svg>