<svg data-name="Layer 1" xmlns="http://www.w3.org/2000/svg" viewBox="0 0 616.74 616.74"><path d="M205.58 0h-51.39C69.03 0 0 69.03 0 154.19s69.03 154.19 154.19 154.19h51.39V0Z"></path><path d="M359.77 308.37h51.39V0h-51.39c-85.15 0-154.19 69.03-154.19 154.19s69.03 154.19 154.19 154.19ZM462.56 308.37h-51.39v308.37h51.39c85.15 0 154.19-69.03 154.19-154.19s-69.03-154.19-154.19-154.19Z"></path><path d="M256.98 308.37h-51.39v308.37h51.39c85.15 0 154.19-69.03 154.19-154.19s-69.03-154.19-154.19-154.19Z"></path></svg>