<svg data-name="Layer 1" xmlns="http://www.w3.org/2000/svg" viewBox="0 0 612.2 320.06"><path d="M452.18 0H173.94c-.41 27.31 28.75 40.78 50.51 48.35 21.22 7.25 37.12 15.47 49.86 25.87 29.01 23.52 48.46 65.34 42.18 103.07-9.44 80.89-97.42 133.76-167.28 110.91-28.46-8.87-52.58-33.91-67.77-59.79-13.88-26.1-18.72-60.94-48.64-75.02 6.39-11.64 31.88-18.98 49.36-12.91 17.12 5.5 23.27 16.47 30.14 30.72 10.91 27.72 32.92 51.13 65.1 46.73 36.93-4.08 59.29-44.13 47.23-78.3-7.46-21.16-25.64-31.67-44.63-43.03-37.92-19.93-60.53-49.98-55.25-96.6H0v320.05c112.8-.05 339.43.03 452.18 0 88.38 0 160.02-71.65 160.02-160.03C612.2 71.65 540.56 0 452.18 0Z"></path></svg>