<svg data-name="Layer 1" xmlns="http://www.w3.org/2000/svg" viewBox="0 0 613.17 626.82"><path d="M513.75 316.58c-32.7 0-62.37-12.96-84.36-33.92-7.34-7-13.79-14.9-19.22-23.52-5.43 8.62-11.88 16.52-19.22 23.52-18.52 17.65-42.52 29.52-69.16 32.86V0h-30.41v315.52c-26.64-3.34-50.64-15.21-69.16-32.86-7.34-7-13.79-14.9-19.22-23.52-5.43 8.62-11.88 16.52-19.22 23.52-21.99 20.96-51.66 33.92-84.36 33.92-40.95 0-77.17-20.28-99.42-51.24v42.94c26.63 23.22 61.4 37.33 99.42 37.33 40.04 0 76.47-15.64 103.58-41.1 23.64 22.2 54.36 36.92 88.38 40.33v224.83l-87.86-87.86h-43.01l145.02 145.01 145.02-145.01h-43.01l-85.76 85.76V344.84c34.02-3.41 64.74-18.14 88.38-40.33 27.11 25.46 63.55 41.1 103.58 41.1s72.79-14.11 99.42-37.33v-42.94c-22.25 30.96-58.47 51.24-99.42 51.24Z"></path></svg>