<svg xmlns="http://www.w3.org/2000/svg" width="606.3" viewBox="0 0 606.3 606.3" height="606.3"><path d="M302.7 0L145.6 42.6c-14.9 20-24.4 44.5-25.8 71.3-4 72.6 51.6 134.7 124.2 138.7S378.7 201 382.7 128.4c3-56.9-30.4-107.3-80-128.4z"></path><path d="M606.3 302.6l-42.6-157.1c-20-14.9-44.5-24.3-71.3-25.8-72.6-4-134.7 51.6-138.7 124.2s51.6 134.7 124.2 138.7c56.9 3.1 107.3-30.4 128.4-80z"></path><path d="M303.7 606.3l157.1-42.7c14.9-20 24.3-44.5 25.8-71.3 4-72.6-51.7-134.7-124.3-138.6-72.6-4-134.7 51.7-138.6 124.3-3.1 56.8 30.4 107.2 80 128.3z"></path><path d="M0 303.8l42.7 157.1c20 14.9 44.5 24.3 71.3 25.8 72.6 4 134.6-51.7 138.6-124.3s-51.7-134.6-124.3-138.6c-56.8-3.2-107.2 30.4-128.3 80z"></path></svg>