<svg xmlns="http://www.w3.org/2000/svg" width="617.7" viewBox="0 0 617.7 617.7" height="617.7" xml:space="preserve" style="enable-background:new 0 0 617.7 617.7"><path d="M191.9 403.1c-6.7-23.6-28.4-41-54.1-41-31 0-56.3 25.3-56.3 56.3 0 31 25.3 56.3 56.3 56.3 25.7 0 47.4-17.4 54.1-41h-54.1V403h54.1zM163.4 179.2c-31 0-56.3 25.3-56.3 56.3 0 31 25.3 56.3 56.3 56.3 7.6 0 14.9-1.5 21.5-4.3L151.4 245l24.1-19 33.5 42.5c6.7-9.3 10.7-20.6 10.7-32.9 0-31.1-25.2-56.4-56.3-56.4zM436.5 226.1l24.3 18.7-33 42.9c6.5 2.6 13.5 4 20.8 4 31 0 56.3-25.3 56.3-56.3 0-31-25.3-56.3-56.3-56.3-31 0-56.3 25.3-56.3 56.3 0 12.6 4.2 24.1 11.2 33.5l33-42.8zM479.9 362.1c-25.7 0-47.4 17.4-54.1 41h54.1v30.7h-54.1c6.7 23.6 28.4 41 54.1 41 31 0 56.3-25.3 56.3-56.3 0-31.1-25.3-56.4-56.3-56.4z"></path><path d="M308.9 0C138.3 0 0 138.3 0 308.9c0 170.6 138.3 308.9 308.9 308.9s308.9-138.3 308.9-308.9C617.7 138.3 479.4 0 308.9 0zm171 505.5c-42.7 0-78.3-31-85.6-71.7h-72.6v155.3H291V433.8h-67.6c-7.3 40.7-42.8 71.7-85.6 71.7-48 0-87-39-87-87s39-87 87-87c42.7 0 78.3 31 85.6 71.7h52.8l-71.8-90.9c-12.2 6.6-26.2 10.3-41 10.3-48 0-87-39-87-87s39-87 87-87 87 39 87 87c0 22.1-8.3 42.2-22 57.6l62.5 79.2V200.9c-39.9-7.9-70.1-43.1-70.1-85.3 0-48 39-87 87-87s87 39 87 87c0 43.3-31.8 79.2-73.2 85.8v173.9l62.6-81.4c-14.1-15.5-22.7-35.9-22.7-58.4 0-48 39-87 87-87s87 39 87 87-39 87-87 87c-14.4 0-28-3.6-40-9.8l-69.6 90.4h55.2c7.3-40.7 42.8-71.7 85.6-71.7 48 0 87 39 87 87s-38.8 87.1-86.8 87.1z"></path><path d="M364.2 115.6c0-31-25.3-56.3-56.3-56.3-31 0-56.3 25.3-56.3 56.3 0 25.2 16.6 46.5 39.4 53.7v-54.9h30.7v55.8c24.4-6.3 42.5-28.3 42.5-54.6z"></path></svg>