<svg xmlns="http://www.w3.org/2000/svg" width="407.7" viewBox="0 0 407.7 642" height="642" style="overflow:visible;enable-background:new 0 0 407.7 642" xml:space="preserve"><path d="M407.7 203.8c0 87-54.8 161.4-131.6 190.6v-27.8C338.4 338.9 382 276.4 382 203.8c0-17.3-2.4-34-7.1-49.8L243.7 261c-6.9 5.6-10.9 14.1-10.9 23v358h-24.1V278.7c0-12.8 5.8-25 15.8-33.1l141.8-114.9 20.5-16.6c13.1 26.2 20.9 57.3 20.9 89.7z"></path><path d="M276.1 356.1v-25.4c39.2-22.3 67.2-62.5 72.8-109.4L266.4 288v354h-24.1V282.5c0-5.1 2.3-9.9 6.2-13.1L349 188.1l20.2-16.4C384 245 347 322.3 276.1 356.1zM0 203.8c0 87 54.8 161.4 131.6 190.6v-27.8C69.3 338.9 25.7 276.4 25.7 203.8c0-17.3 2.4-34 7.1-49.8L164 261c6.9 5.6 10.9 14.1 10.9 23v358H199V278.7c0-12.8-5.8-25-15.8-33.1L41.4 130.8l-20.5-16.6C7.8 140.3 0 171.4 0 203.8z"></path><path d="M131.6 356.1v-25.4c-39.2-22.3-67.2-62.5-72.8-109.4l82.4 66.7v354h24.1V282.5c0-5.1-2.3-9.9-6.2-13.1L58.7 188.1l-20.2-16.4C23.7 245 60.7 322.3 131.6 356.1z"></path><g><path d="M203.8 24.1c69.2 0 129.4 39.4 159.4 96.9 6.6-5.4 14.7-11.9 19.1-15.4C347.6 42.7 280.6 0 203.8 0 127.1 0 60.2 42.6 25.4 105.4l19.1 15.4c30-57.4 90.1-96.7 159.3-96.7z"></path><path d="M203.8 33.7c-66.2 0-123.6 38-151.7 93.3l19.2 15.5c23.2-50 73.9-84.8 132.5-84.8 58.7 0 109.4 34.8 132.6 84.9 8.8-7.1 11.8-9.5 19.2-15.5-28.1-55.3-85.5-93.4-151.8-93.4z"></path><path d="M203.8 67.4c-55.7 0-103.6 33.6-124.8 81.5l19.6 15.9c15.9-42.7 57-73.3 105.2-73.3s89.3 30.6 105.2 73.4c9.8-7.9 10.2-8.3 19.6-15.9-21.1-48-69-81.6-124.8-81.6z"></path><path d="M203.8 101.1c-45.2 0-83.6 29.4-97.3 70l20.3 16.5c7.5-35.6 39.1-62.4 76.9-62.4 37.9 0 69.5 26.9 77 62.6 9.5-7.7 10.2-8.3 20.4-16.5-13.6-40.7-52-70.2-97.3-70.2z"></path><path d="M203.8 134.8c-34.9 0-63.8 26.1-68.3 59.8l24.7 20c-.9-3.5-1.4-7.1-1.4-10.8 0-24.8 20.2-44.9 44.9-44.9 24.8 0 44.9 20.2 44.9 44.9 0 3.8-.5 7.5-1.4 11 8.3-6.7 13.8-11.2 24.8-20.1-4.3-33.7-33.2-59.9-68.2-59.9z"></path></g><circle cx="203.8" cy="203.8" r="35.3"></circle></svg>