<svg data-name="Layer 1" xmlns="http://www.w3.org/2000/svg" viewBox="0 0 537.27 594.85"><path d="M470.75 293.05h44.35l22.17-38.41-22.17-38.41h-44.35l-22.17 38.41 22.17 38.41Zm4.55-68.93h35.25l17.62 30.52-17.62 30.53H475.3l-17.62-30.53 17.62-30.52ZM470.75 379.39h44.35l22.17-38.41-22.17-38.41h-44.35l-22.17 38.41 22.17 38.41Zm4.55-68.93h35.25l17.62 30.52-17.62 30.53H475.3l-17.62-30.53 17.62-30.52ZM470.75 465.73h44.35l22.17-38.41-22.17-38.41h-44.35l-22.17 38.41 22.17 38.41Zm4.55-68.93h35.25l17.62 30.52-17.62 30.53H475.3l-17.62-30.53 17.62-30.52ZM395.99 163.54h44.35l22.17-38.41-22.17-38.41h-44.35l-22.17 38.41 22.17 38.41Zm4.55-68.94h35.25l17.62 30.53-17.62 30.53h-35.25l-17.62-30.53 17.62-30.53ZM395.99 173.07l-22.17 38.41 22.17 38.41h44.35l22.17-38.41-22.17-38.41h-44.35Zm39.8 7.88 17.62 30.52L435.79 242h-35.25l-17.62-30.53 17.62-30.52h35.25ZM395.99 259.41l-22.17 38.41 22.17 38.41h44.35l22.17-38.41-22.17-38.41h-44.35Zm39.8 7.88 17.62 30.52-17.62 30.53h-35.25l-17.62-30.53 17.62-30.52h35.25ZM395.99 432.09l-22.17 38.41 22.17 38.41h44.35l22.17-38.41-22.17-38.41h-44.35Zm39.8 7.88 17.62 30.52-17.62 30.53h-35.25l-17.62-30.53 17.62-30.52h35.25ZM321.22 293.05h44.35l22.17-38.41-22.17-38.41h-44.35l-22.17 38.41 22.17 38.41Zm4.55-68.93h35.25l17.62 30.52-17.62 30.53h-35.25l-17.62-30.53 17.62-30.52ZM321.62 465.34h44.35l22.17-38.41-22.17-38.41h-44.35l-22.17 38.41 22.17 38.41Zm4.55-68.94h35.25l17.62 30.53-17.62 30.53h-35.25l-17.62-30.53 17.62-30.53ZM291.99 86.34h-44.35l-22.17 38.41 22.17 38.41h44.35l22.17-38.41-22.17-38.41Zm-4.55 68.93h-35.25l-17.62-30.52 17.62-30.53h35.25l17.62 30.53-17.62 30.52ZM291.99 76.81l22.17-38.41L291.99 0h-44.35l-22.17 38.41 22.17 38.41h44.35Zm-39.8-7.88-17.62-30.52 17.62-30.53h35.25l17.62 30.53-17.62 30.52h-35.25ZM246.85 422.17h44.35l22.17-38.41-22.17-38.41h-44.35l-22.17 38.41 22.17 38.41Zm39.8-68.94 17.62 30.53-17.62 30.53H251.4l-17.62-30.53 17.62-30.53h35.25ZM313.37 556.44l-22.17-38.41h-44.35l-22.17 38.41 22.17 38.41h44.35l22.17-38.41Zm-61.97 30.53-17.62-30.53 17.62-30.52h35.25l17.62 30.52-17.62 30.53H251.4ZM172.88 206.32h44.35l22.17-38.41-22.17-38.41h-44.35l-22.17 38.41 22.17 38.41Zm39.8-68.93 17.62 30.53-17.62 30.52h-35.25l-17.62-30.52 17.62-30.53h35.25ZM172.88 292.66h44.35l22.17-38.41-22.17-38.41h-44.35l-22.17 38.41 22.17 38.41Zm39.8-68.94 17.62 30.53-17.62 30.52h-35.25l-17.62-30.52 17.62-30.53h35.25ZM172.09 379h44.35l22.17-38.41-22.17-38.41h-44.35l-22.17 38.41L172.09 379Zm39.8-68.94 17.62 30.53-17.62 30.53h-35.25l-17.62-30.53 17.62-30.53h35.25ZM172.09 465.34h44.35l22.17-38.41-22.17-38.41h-44.35l-22.17 38.41 22.17 38.41Zm4.55-68.94h35.25l17.62 30.53-17.62 30.53h-35.25l-17.62-30.53 17.62-30.53ZM216.44 474.87h-44.35l-22.17 38.41 22.17 38.41h44.35l22.17-38.41-22.17-38.41Zm-39.8 68.93-17.62-30.53 17.62-30.52h35.25l17.62 30.52-17.62 30.53h-35.25ZM141.68 163.15l22.17-38.41-22.17-38.41H97.33l-22.17 38.41 22.17 38.41h44.35Zm-39.8-7.88-17.62-30.52 17.62-30.53h35.25l17.62 30.53-17.62 30.52h-35.25ZM141.68 335.83l22.17-38.41-22.17-38.41H97.33l-22.17 38.41 22.17 38.41h44.35Zm-39.8-7.88-17.62-30.53 17.62-30.53h35.25l17.62 30.53-17.62 30.53h-35.25ZM141.68 431.7H97.33l-22.17 38.41 22.17 38.41h44.35l22.17-38.41-22.17-38.41Zm-39.8 68.94-17.62-30.53 17.62-30.53h35.25l17.62 30.53-17.62 30.53h-35.25ZM66.91 215.85H22.57L.39 254.26l22.17 38.41h44.35l22.17-38.41-22.17-38.41Zm-4.55 68.93H27.12L9.5 254.26l17.62-30.53h35.24l17.62 30.53-17.62 30.52ZM66.91 302.19H22.57L.39 340.6l22.17 38.41h44.35l22.17-38.41-22.17-38.41Zm-39.8 68.94L9.49 340.6l17.62-30.53h35.25l17.62 30.53-17.62 30.53H27.12ZM470.75 206.71h44.35l22.17-38.4-22.17-38.41h-44.35l-22.18 38.41 22.18 38.4zM395.99 345.75l-22.18 38.41 22.18 38.4h44.34l22.18-38.4-22.18-38.41h-44.34zM321.22 206.71h44.35l22.17-38.4-22.17-38.41h-44.35l-22.17 38.41 22.17 38.4zM321.22 120.37h44.35l22.17-38.4-22.17-38.41h-44.35l-22.17 38.41 22.17 38.4zM321.22 379.39h44.35l22.17-38.4-22.17-38.41h-44.35l-22.17 38.41 22.17 38.4zM321.22 475.26l-22.17 38.41 22.17 38.4h44.35l22.17-38.4-22.17-38.41h-44.35zM246.46 249.88h44.35l22.17-38.4-22.17-38.41h-44.35l-22.17 38.41 22.17 38.4zM246.46 336.22h44.35l22.17-38.4-22.17-38.41h-44.35l-22.17 38.41 22.17 38.4zM246.46 508.9h44.35l22.17-38.4-22.17-38.41h-44.35l-22.17 38.41 22.17 38.4zM216.05 120.37l22.17-38.4-22.17-38.41H171.7l-22.18 38.41 22.18 38.4h44.35zM141.28 249.88l22.18-38.4-22.18-38.41H96.94l-22.18 38.41 22.18 38.4h44.34zM141.28 422.56l22.18-38.4-22.18-38.41H96.94l-22.18 38.41 22.18 38.4h44.34zM66.52 129.9H22.17L0 168.31l22.17 38.4h44.35l22.17-38.4-22.17-38.41zM66.52 388.92H22.17L0 427.33l22.17 38.4h44.35l22.17-38.4-22.17-38.41z"></path></svg>