<svg xmlns="http://www.w3.org/2000/svg" width="581.8" viewBox="0 0 581.8 619.1" height="619.1" xml:space="preserve"><path d="M179.3 293.7c10.5 0 20.2 3.7 27.8 9.9 7.9-47.4 32.7-89.2 68-118.9-27.7-17.5-60.6-27.7-95.8-27.7C80.3 157.1 0 237.3 0 336.4c0 99 80.3 179.3 179.3 179.3 8.5 0 16.9-.6 25.1-1.8V373.6c-7.1 5-15.7 7.9-25.1 7.9-24.2 0-43.9-19.6-43.9-43.9 0-24.2 19.7-43.9 43.9-43.9zM358.6 420.6c-25.7 54.4-75.4 95.4-135.4 109v89.5h135.4V420.6z"></path><path d="M402.5 157.1c-35.2 0-68.1 10.2-95.8 27.7-5.5 3.5-10.9 7.3-16 11.4-41.1 32.9-67.5 83.4-67.5 140.2v173.9c77.7-19.6 135.3-89.9 135.3-173.7h.2c.3-13.2 6.5-25 16.1-32.9 7.6-6.2 17.3-9.9 27.8-9.9 24.2 0 43.9 19.6 43.9 43.9 0 24.2-19.6 43.9-43.9 43.9-9.9 0-19-3.3-26.3-8.8v141.1c8.6 1.3 17.4 1.9 26.3 1.9 99 0 179.3-80.3 179.3-179.3-.1-99.2-80.4-179.4-179.4-179.4zM373.7 82.8c0 45.7-37 82.8-82.8 82.8-45.7 0-82.8-37.1-82.8-82.8 0-45.7 37-82.8 82.8-82.8 45.7 0 82.8 37.1 82.8 82.8z"></path></svg>