<svg xmlns="http://www.w3.org/2000/svg" width="613.38" viewBox="0 0 613.38 613.38" height="613.38" xml:space="preserve" style="enable-background:new 0 0 613.38 613.38"><path d="M306.69 0C137.31 0 0 137.31 0 306.69s137.31 306.69 306.69 306.69 306.69-137.31 306.69-306.69S476.07 0 306.69 0zM150.85 392.91c-25.23-15.16-47.5-36.12-64.6-62.48-60.04-92.56-33.67-216.26 58.89-276.3 1.88-1.22 3.8-2.35 5.71-3.5v342.28zm211.7-3.59c-63.11 40.93-140.68 41.67-202.69 8.68-2.08-67.53 30.15-134.48 90.98-173.93 63.11-40.93 140.68-41.67 202.69-8.68 2.07 67.53-30.16 134.47-90.98 173.93zm105.69 169.93c-1.88 1.22-3.8 2.35-5.71 3.5V220.47c25.23 15.16 47.5 36.12 64.6 62.48 60.04 92.56 33.67 216.27-58.89 276.3z"></path></svg>