<svg data-name="Layer 1" xmlns="http://www.w3.org/2000/svg" viewBox="0 0 607.84 607.84"><path d="M303.92 0C136.34 0 0 136.34 0 303.92s136.34 303.92 303.92 303.92S607.84 471.5 607.84 303.92 471.5 0 303.92 0Zm234.59 432.91L373.87 327.86c-4.33-2.76-2.53-9.45 2.59-9.67l195.11-8.56c-.94 44.6-12.79 86.56-33.06 123.28ZM376.47 289.68c-5.13-.23-6.92-6.92-2.59-9.67l164.69-104.98c20.26 36.72 32.09 78.69 33.01 123.29l-195.1-8.64Zm156.45-124.46-173.29 90.09c-4.55 2.37-9.45-2.53-7.08-7.08l90.13-173.28c36.83 22.4 67.86 53.43 90.25 90.27ZM289.64 376.46l8.52 195.11c-44.6-.95-86.56-12.81-123.27-33.09l105.08-164.62c2.76-4.33 9.45-2.53 9.67 2.6ZM175.17 69.2c36.68-20.2 78.57-31.99 123.1-32.92l-8.6 195c-.23 5.13-6.92 6.92-9.68 2.59L175.17 69.2Zm143.01 162.18-8.6-195.1c44.6.93 86.56 12.77 123.29 33.03L327.86 233.97c-2.76 4.33-9.45 2.53-9.67-2.59Zm114.59 307.21c-36.73 20.25-78.69 32.07-123.3 32.98l8.68-195.1c.23-5.13 6.92-6.92 9.67-2.59l104.95 164.71ZM165.36 74.85l89.98 173.34c2.36 4.55-2.54 9.45-7.09 7.08L75.04 165.04c22.42-36.81 53.47-67.82 90.32-90.19ZM36.27 309.42l195.1 8.72c5.13.23 6.92 6.92 2.59 9.68L69.23 432.73C48.99 396 37.18 354.03 36.27 309.42Zm195.12-19.79-195.11 8.48c.96-44.6 12.82-86.55 33.11-123.26l164.6 105.11c4.32 2.76 2.53 9.45-2.6 9.67ZM74.87 442.53l173.33-90.02c4.55-2.36 9.45 2.53 7.08 7.08l-90.19 173.24c-36.82-22.42-67.83-53.46-90.21-90.3Zm367.7 90.42-90.05-173.31c-2.37-4.55 2.53-9.45 7.08-7.08l173.26 90.16c-22.41 36.82-53.45 67.84-90.29 90.23Z"></path></svg>