<svg data-name="Layer 1" xmlns="http://www.w3.org/2000/svg" viewBox="0 0 621 596.51"><path d="m205.28 231.07 100.05-57.77V57.77L205.28 0 105.22 57.77l100.06 57.76v115.54zM105.22 423.21l100.06 57.77v115.53l100.05-57.77V423.21l-100.05-57.77-100.06 57.77zM415.73 231.07l100.05-57.77V57.77L415.73 0 315.67 57.77l100.06 57.76v115.54zM315.67 423.21l100.06 57.77v115.53l100.05-57.77V423.21l-100.05-57.77-100.06 57.77zM200.11 356.02V240.49l-100.05-57.77L0 240.49l100.06 57.77v115.53l100.05-57.77zM410.56 356.02V240.49L310.5 182.72l-100.05 57.77 100.05 57.77v115.53l100.06-57.77zM520.95 182.72l-100.06 57.77 100.06 57.77v115.53L621 356.02V240.49l-100.05-57.77z"></path></svg>