<svg xmlns="http://www.w3.org/2000/svg" width="619.8" viewBox="0 0 619.8 619.8" height="619.8" style="enable-background:new 0 0 619.8 619.8" xml:space="preserve"><path d="M309.9 0C138.7 0 0 138.7 0 309.9s138.7 309.9 309.9 309.9S619.8 481 619.8 309.9 481 0 309.9 0zM258 161.6l51.9-30 51.9 30v59.9l-51.9 30-51.9-30v-59.9zM99.8 134.7l51.9-30 51.9 30v59.9l-51.9 30-51.9-30v-59.9zm103.8 252.5-51.9 30-51.9-30v-59.9l51.9-30 51.9 30v59.9zm-45.4-96.3V231l51.9-30 51.9 30v59.9l-51.9 30-51.9-30zm203.6 254.5-51.9 30-51.9-30V300.3l51.9-30 51.9 30v245.1zm-4-254.5V231l51.9-30 51.9 30v59.9l-51.9 30-51.9-30zM520 387.2l-51.9 30-51.9-30v-59.9l51.9-30 51.9 30v59.9zm0-192.5-51.9 30-51.9-30v-59.9l51.9-30 51.9 30v59.9z"></path></svg>