<svg xmlns="http://www.w3.org/2000/svg" width="433.6" viewBox="0 0 433.6 623.9" height="623.9" xml:space="preserve"><path d="M225.6 220.7c19.5-17.4 31.8-42.7 31.8-70.8 0-28.2-12.3-53.5-31.8-70.8-19.5 17.4-31.8 42.7-31.8 70.8 0 28.1 12.3 53.4 31.8 70.8zM192.3 192c-14.4-23.3-37.4-38-62.4-42.4-7.3 24.3-4.5 51.5 9.8 74.8 14.4 23.3 37.4 38 62.4 42.4 7.3-24.3 4.6-51.5-9.8-74.8zM90.7 237.5c-.3 24.8 9.5 49.6 29.2 67.6 19.7 18.1 45.3 25.7 69.9 23.2.3-24.8-9.5-49.6-29.2-67.6-19.7-18-45.2-25.7-69.9-23.2z"></path><path d="M387.8 254.1h45.8v-70.8h-45.8c-105.2 0-192.3 79.4-204.5 181.4-65.4-16.1-114-75.2-114-145.5 0-82.6 67.2-149.8 149.8-149.8 63.4 0 117.8 39.6 139.6 95.4h72.8C407.3 70.1 321.3 0 219.2 0 98.3 0 0 98.3 0 219.2 0 326.8 78 416.6 180.4 435v188.9H257V435.1c85.3-14.9 153.9-79.3 174.8-162.5h-72.6c-17.4 45.4-56.3 80.3-104.2 92 11.5-62.7 66.7-110.5 132.8-110.5z"></path></svg>