<svg width="642" viewBox="0 0 642 501" height="501" xml:space="preserve" style="enable-background:new 0 0 582.8 582.8">&gt;<path d="M311 353.05c-14.943 6.048-31.232 9.33-48.29 9.33-57.975 0-107.036-38.095-123.71-90.67 14.943-6.048 31.232-9.33 48.29-9.33 57.975 0 107.036 38.095 123.71 90.67M312 258.643c-12.434 4.987-25.957 7.737-40.185 7.737-53.132 0-97.29-38.557-105.815-89.2 12.434-5.05 25.957-7.8 40.121-7.8 53.196 0 97.355 38.621 105.879 89.263M331 353.05c14.943 6.048 31.232 9.33 48.29 9.33 57.975 0 107.036-38.095 123.71-90.67-14.943-6.048-31.232-9.33-48.29-9.33-57.975 0-107.036 38.095-123.71 90.67M330 258.643c12.434 4.987 25.957 7.737 40.185 7.737 53.132 0 97.29-38.557 105.815-89.2-12.434-5.05-25.957-7.8-40.121-7.8-53.196 0-97.355 38.621-105.879 89.263"></path><path d="M642 301.651c0 63.747-32.1 122.358-81.085 159.078-69.978 54.245-174.238 34.73-218.857-44.617 4.173 7.383 92.833 22.148 151.062-35.82C607.91 266.214 470.714 74.782 321 14.374 171.286 74.783 34.09 266.215 148.88 380.29c58.23 57.969 146.89 43.204 151.062 35.821-44.619 79.347-148.88 98.862-218.857 44.617C32.1 424.009 0 365.398 0 301.65 0 175.635 196.067 47.564 321 .38c124.933 47.184 321 175.255 321 301.271"></path><path d="M320.938 210.38c-25.259-.064-50.453-23.32-46.533-62.979 3.535-39.786 20.567-75.6 46.597-103.021 26.03 27.421 43.062 63.235 46.597 103.021 3.85 38.934-20.619 62.979-46.661 62.979"></path><path d="m340 500.38-19-441-19 441z"></path></svg>