<svg id="Layer_1" data-name="Layer 1" xmlns="http://www.w3.org/2000/svg" viewBox="0 0 615.59 615.6">   <path d="M578.34,0H220.03C199.5,0,182.79,16.71,182.79,37.25V398.63c0,20.54,16.71,37.24,37.24,37.24h132.17c6.74,0,12.23,5.48,12.23,12.23s-5.49,12.23-12.23,12.23H174.34c-8.83,0-16.01-7.18-16.01-16V33.47c0-9.14-3.8-17.99-10.43-24.28C141.18,2.81,132.35-.42,123.08,.04c-17.77,.93-31.69,16.18-31.69,34.72V490.02c0,20.54,16.71,37.24,37.25,37.24h223.57c2.87,0,12.23,.66,12.23,9.16,0,6.74-5.49,12.23-12.23,12.23H82.94c-8.83,0-16-7.18-16-16V33.47c0-9.14-3.8-17.99-10.43-24.28C49.78,2.81,40.94-.42,31.69,.04,13.92,.98,0,16.23,0,34.76V578.35c0,20.54,16.71,37.24,37.24,37.24H395.55c20.54,0,37.24-16.71,37.24-37.24V220.03c0-20.54-16.71-37.24-37.24-37.24h-132.17c-6.74,0-12.23-5.48-12.23-12.23s5.49-12.23,12.23-12.23h177.87c8.83,0,16.01,7.18,16.01,16v407.78c0,9.14,3.8,17.99,10.43,24.28,6.29,5.97,14.4,9.2,23.01,9.2,.6,0,1.21-.02,1.81-.05,17.77-.94,31.68-16.19,31.68-34.72V128.64c0-20.54-16.71-37.24-37.25-37.24h-223.57c-6.74,0-12.23-5.48-12.23-12.23s5.49-12.23,12.23-12.23h269.27c8.83,0,16,7.18,16,16v499.18c0,9.14,3.8,17.99,10.43,24.28,6.72,6.38,15.49,9.58,24.83,9.15,17.76-.94,31.68-16.19,31.68-34.72V37.25C615.59,16.71,598.88,0,578.34,0Zm16,580.83c0,7.11-5.18,13.17-11.55,13.5-3.38,.2-6.63-1-9.09-3.34-2.46-2.34-3.81-5.48-3.81-8.87V82.94c0-20.54-16.71-37.24-37.24-37.24H261.38v.06c-17.53,1.04-31.47,15.62-31.47,33.41s13.94,32.37,31.47,33.41l225.56,.06c8.83,0,16.01,7.18,16.01,16v452.19c0,7.11-5.19,13.17-11.55,13.5-3.37,.2-6.63-1-9.09-3.34-2.46-2.34-3.81-5.48-3.81-8.87V174.34c0-20.54-16.71-37.24-37.25-37.24h-179.87v.06c-17.53,1.04-31.47,15.62-31.47,33.41s13.94,32.37,31.47,33.41l134.17,.06c8.83,0,16,7.18,16,16v358.31c0,8.83-7.18,16-16,16H37.24c-8.83,0-16-7.18-16-16V34.76c0-7.11,5.18-13.17,11.55-13.5,3.41-.16,6.64,1.01,9.09,3.34,2.46,2.34,3.81,5.48,3.81,8.87v499.18c0,20.54,16.71,37.24,37.24,37.24H354.2v-.06c17.53-1.04,31.47-15.62,31.47-33.41s-13.12-29.5-31.47-30.35l-225.56-.05c-8.83,0-16.01-7.18-16.01-16V34.76c0-7.11,5.18-13.17,11.55-13.5,3.39-.2,6.63,1,9.09,3.34,2.46,2.34,3.81,5.48,3.81,8.87V444.33c0,20.54,16.71,37.24,37.25,37.24h179.87v-.06c17.53-1.04,31.47-15.62,31.47-33.41s-13.94-32.37-31.47-33.41l-134.17-.06c-8.83,0-16-7.18-16-16V37.25c0-8.83,7.18-16,16-16h358.31c8.83,0,16,7.18,16,16V580.83Z"></path> </svg>