<svg data-name="Layer 1" xmlns="http://www.w3.org/2000/svg" viewBox="0 0 616.54 560.01"><path d="M489.59 306.12c-11.9 0-23.41 1.67-34.33 4.74l-55.43-96.01c21.91-22.81 35.4-53.77 35.4-87.89C435.22 56.84 378.38 0 308.27 0S181.32 56.84 181.32 126.95c0 34.12 13.49 65.08 35.4 87.89l-55.43 96.01a127.054 127.054 0 0 0-34.33-4.74C56.84 306.12 0 362.95 0 433.07s56.84 126.95 126.95 126.95c59.28 0 109.07-40.64 123.03-95.58h116.57c13.97 54.94 63.75 95.58 123.03 95.58 70.11 0 126.95-56.84 126.95-126.95s-56.84-126.95-126.95-126.95ZM250.25 463.27c-.64.39-1.27.8-1.92 1.17-12.82 7.31-27.63 11.54-43.44 11.54s-30.62-4.23-43.44-11.54c-26.54-15.13-44.47-43.63-44.47-76.37 0-.17.02-.34.03-.51.19-32.1 17.6-60.06 43.45-75.25.64-.37 1.25-.79 1.89-1.15a87.5 87.5 0 0 1 42.55-11c48.55 0 87.91 39.36 87.91 87.91 0 31.93-17.08 59.8-42.55 75.2Zm-29.28-244.2c-.38-3.31-.62-6.65-.62-10.06 0-.17.02-.34.03-.51.19-32.1 17.6-60.06 43.45-75.25 13.05-7.67 28.21-12.15 44.44-12.15s31.39 4.48 44.44 12.15c25.84 15.19 43.26 43.15 43.45 75.25 0 .17.03.34.03.51 0 3.41-.24 6.76-.62 10.06-5 43.81-42.15 77.85-87.3 77.85s-82.3-34.04-87.3-77.85Zm234.12 245.37c-12.82 7.31-27.63 11.54-43.44 11.54s-30.62-4.23-43.44-11.54c-.65-.37-1.28-.78-1.92-1.17-25.47-15.4-42.55-43.27-42.55-75.2 0-48.55 39.36-87.91 87.91-87.91a87.5 87.5 0 0 1 42.55 11c.65.36 1.26.78 1.89 1.15 25.84 15.19 43.26 43.15 43.45 75.25 0 .17.03.34.03.51 0 32.74-17.93 61.24-44.47 76.37Z"></path></svg>