<svg data-name="Layer 1" xmlns="http://www.w3.org/2000/svg" viewBox="0 0 623.18 623.18"><path d="M93.36 397.61c9.97 0 19.16-5.38 24.04-14.08l119.43-212.88c10.51-18.72 33.44-27.09 53.9-18.8 16.58 6.72 26.75 23.64 26.75 41.53v137.53l89.9-160.25c10.51-18.72 33.44-27.09 53.9-18.8 16.58 6.72 26.75 23.64 26.75 41.53v187.43c0 9.07 7.36 16.43 16.43 16.43h106.71c10.68-37.41 14.7-77.61 10.2-119.39C605.17 127.74 481.16 9.43 330.44.56 149.81-10.08 0 133.26 0 311.59c0 29.85 4.29 58.69 12.12 86.02h81.24Z"></path><path d="M452.34 461.26c-15.65 0-28.34-12.69-28.34-28.34V271.85l-94.82 169.02c-20.38 36.33-75.73 21.86-75.73-19.79V271.85l-91.38 162.9c-9.29 16.58-26.88 26.88-45.9 26.88H38.48c53.01 96.29 155.43 161.55 273.11 161.55s220.37-65.43 273.32-161.92H452.34Z"></path></svg>