<svg xmlns="http://www.w3.org/2000/svg" width="609.3" viewBox="0 0 609.3 608.5" height="608.5"><path d="M609.3 0v608.5c-1-.1-2-.2-3-.2H3.1c-1 0-2 .1-3 .2C0 405.7 0 202.8 0 0h609.3zM306.5 361.1c89.3 73.3 178.5 146.4 267.6 219.6.1-.2.3-.3.4-.5-89.3-117.5-178.6-235-268.2-352.9-89.3 117.9-178.5 235.5-267.6 353 .2.1.3.3.5.4 89-73.1 178.1-146.3 267.3-219.6zm-.2-340.8C217 138.1 127.8 255.7 38.7 373.2c.2.1.3.3.5.4 89.1-73.3 178.1-146.5 267.3-219.9 89.3 73.4 178.4 146.6 267.6 219.9.1-.2.3-.3.4-.5-89.3-117.4-178.6-235-268.2-352.8z"></path></svg>