<svg data-name="Layer 1" xmlns="http://www.w3.org/2000/svg" viewBox="0 0 612.37 612.37"><path d="M578.17 185.1h-150.9V34.2c0-18.85-15.34-34.2-34.2-34.2H219.3c-18.86 0-34.2 15.34-34.2 34.2v150.9H34.2C15.34 185.1 0 200.44 0 219.3v173.78c0 18.86 15.34 34.2 34.2 34.2h150.9v150.9c0 18.85 15.34 34.2 34.2 34.2h173.78c18.85 0 34.2-15.34 34.2-34.2v-150.9h150.9c18.85 0 34.2-15.34 34.2-34.2V219.3c0-18.86-15.34-34.2-34.2-34.2ZM248.89 63.79h114.59v229.18l-25.4 25.4v-99.08c0-18.86-15.34-34.2-34.2-34.2h-55V63.79Zm-52.67 218.06c-7.18 7.18-11.13 16.71-11.13 26.85v54.78H63.79V248.89h165.39l-32.96 32.96Zm167.26 266.73H248.89V319.4l25.4-25.4v99.08c0 18.86 15.34 34.2 34.2 34.2h54.99v121.3Zm185.1-185.1H383.19l32.96-32.96c7.17-7.17 11.12-16.71 11.12-26.85v-54.78h121.3v114.59Z"></path></svg>