<svg data-name="Layer 1" xmlns="http://www.w3.org/2000/svg" viewBox="0 0 615.11 530.94"><path d="m89.81 202.93 26.37 19.17 144.72-.13 44.87-137.75-26.23-19.05-44.87 137.76H89.81z"></path><path d="m260.79 51.62-26.23-19.04-44.88 137.76H44.83L71.2 189.5l144.72-.12 44.87-137.76z"></path><path d="M215.96 19.05 189.73 0l-44.87 137.76H0l26.38 19.16 144.71-.12 44.87-137.75zM521.62 240.76l-26.09-18.84-22.01-15.97-128.1.11 5.21 16.04 144.68-.13-117.2 85.17 44.85 137.7 26.58 19.04-45.09-137.73 117.17-85.39z"></path><path d="m568.36 274.37-26.17-18.9-117.33 85.28 44.84 137.69 26.59 19.05-45.1-137.73 117.17-85.39z"></path><path d="m615.11 307.82-26.17-18.9L471.6 374.2l44.84 137.7 26.59 19.04-45.1-137.73 117.18-85.39zM305.8 359.71l-117.2 85.13 21.38 15.32 117.04-85.02-21.22-15.43zM352.49 393.35l-117.2 85.13 21.38 15.32 117.03-85.02-21.21-15.43zM281.97 512.12l21.38 15.32 117.04-85.02-21.22-15.43-117.2 85.13zM399.95 152.56l-22.1-16.04h-54.99l5.21 16.04h71.88zM338.95 186.4h107.63l-22.1-16.04h-90.74l5.21 16.04zM211.58 291.28l-44.64 138.04 21.66 15.52 44.75-137.74-21.77-15.82zM163.15 256.19l-44.64 138.05 21.66 15.51 44.75-137.74-21.77-15.82zM116.18 222.1 71.54 360.14l21.66 15.52 44.75-137.74-21.77-15.82z"></path></svg>