<svg xmlns="http://www.w3.org/2000/svg" width="609.5" viewBox="0 0 609.5 609.5" height="609.5" style="enable-background:new 0 0 609.5 609.5" xml:space="preserve"><path d="M304.8 283.7c4.4 12.8 10.7 24.8 18.5 35.7h-36.9c7.7-10.8 13.9-22.8 18.4-35.7m304.7 21.1c0 168.3-136.5 304.8-304.8 304.8C136.5 609.5 0 473.1 0 304.8S136.5 0 304.8 0s304.7 136.5 304.7 304.8M576 238.2c0-77-62.4-139.4-139.4-139.4-61.1 0-112.9 39.3-131.8 93.9C285.9 138.1 234 98.8 173 98.8c-77 0-139.4 62.4-139.4 139.4S96 377.6 173 377.6c46.4 0 87.6-22.7 112.9-57.6l18.9 39.5 18.9-39.5c25.3 34.9 66.5 57.6 112.9 57.6 77 0 139.4-62.4 139.4-139.4m-369.4-29.1c-21.7 0-39.3 17.6-39.3 39.3 0 21.7 17.6 39.3 39.3 39.3 21.7 0 39.3-17.6 39.3-39.3-.1-21.7-17.6-39.3-39.3-39.3m196.4 0c-21.7 0-39.3 17.6-39.3 39.3 0 21.7 17.6 39.3 39.3 39.3 21.7 0 39.3-17.6 39.3-39.3 0-21.7-17.6-39.3-39.3-39.3"></path></svg>