<svg data-name="Layer 1" xmlns="http://www.w3.org/2000/svg" viewBox="0 0 586.44 585.96"><path d="M295.89 143.49c0-2.2-1.78-3.98-3.99-3.98s-3.98 1.78-3.98 3.98 1.78 3.98 3.98 3.98 3.99-1.78 3.99-3.98ZM154.58 302.21c0 2.2 1.78 3.98 3.99 3.98s3.98-1.78 3.98-3.98-1.78-3.98-3.98-3.98-3.99 1.78-3.99 3.98Z"></path><circle cx="155.87" cy="197.81" r="3.98"></circle><circle cx="427.52" cy="302.21" r="3.99"></circle><circle cx="430.57" cy="197.81" r="3.98"></circle><path d="M291.9 350.42c-2.2 0-3.98 1.78-3.98 3.98a3.986 3.986 0 1 0 3.98-3.98Z"></path><path d="M293.22 0C131.28 0 0 131.28 0 293.22s122.48 284.2 276.77 292.74V418.38L51.1 335.3c-8.54-3.15-12.92-12.62-9.77-21.16 3.14-8.53 12.63-12.91 21.16-9.77l78.27 28.82v-30.55c0-9.05 7.22-16.55 16.27-16.65 4.09-.04 7.18 1.3 10.67 3.89l13.89 10.58c.96.73.44 2.27-.77 2.27h-7.16v25.66l71.11-26.18L51.1 230.9c-8.54-3.15-12.92-12.62-9.77-21.16 3.14-8.54 12.63-12.91 21.16-9.77l78.27 28.82v-30.45h-7.16c-1.21 0-1.73-1.53-.77-2.27l13.89-10.58c3.49-2.59 6.58-3.93 10.67-3.89 9.05.09 16.27 7.6 16.27 16.65v25.76l71.83-26.45-56.29-20.72c-8.54-3.15-12.92-12.62-9.77-21.16 3.15-8.53 12.62-12.91 21.16-9.77l76.19 28.05v-29.92h-7.16c-1.21 0-1.73-1.53-.77-2.27l13.89-10.58c3.49-2.59 6.58-3.93 10.67-3.89 9.05.09 16.27 7.6 16.27 16.65v30.53l77.58-28.56c8.55-3.14 18.02 1.23 21.16 9.77 3.15 8.55-1.23 18.02-9.77 21.16l-57.02 20.99 71.1 26.18v-25.76c0-9.05 7.22-16.55 16.27-16.65 4.09-.04 7.18 1.3 10.67 3.89l13.89 10.58c.96.73.44 2.27-.77 2.27h-7.16v30.45l78.27-28.82c8.55-3.14 18.02 1.23 21.16 9.77 3.15 8.55-1.23 18.02-9.77 21.16l-193.68 71.31 70.75 26.05v-25.53h-7.16c-1.21 0-1.73-1.53-.77-2.27l13.89-10.58c3.49-2.59 6.58-3.93 10.67-3.89 9.05.09 16.27 7.6 16.27 16.65v30.68l78.63-28.95c8.55-3.14 18.02 1.23 21.16 9.77 3.15 8.55-1.23 18.02-9.77 21.16l-225.61 83.06v167.59c154.26-8.57 276.71-136.33 276.71-292.73S455.16 0 293.22 0Z"></path><path d="M276.79 278.86v-29.49c0-9.05 7.22-16.55 16.27-16.65 4.09-.04 7.18 1.3 10.67 3.89l13.89 10.58c.96.73.44 2.27-.77 2.27h-7.16v29.37L388 250l-94.79-34.9-94.79 34.9 78.36 28.85ZM388.01 354.41l-94.79-34.9-94.79 34.9 78.36 28.85v-28.33h-7.16c-1.21 0-1.73-1.53-.77-2.27l13.89-10.58c3.49-2.59 6.58-3.93 10.67-3.89 9.05.09 16.27 7.6 16.27 16.65v28.41L388 354.42Z"></path><path d="M290.61 248.95c0 2.2 1.78 3.98 3.98 3.98s3.98-1.78 3.98-3.98-1.78-3.99-3.98-3.99-3.98 1.78-3.98 3.99Z"></path></svg>