<svg data-name="Layer 1" xmlns="http://www.w3.org/2000/svg" viewBox="0 0 623 622.98"><path d="M224.17 77.45h-69.26c-42.78 0-77.45 34.68-77.45 77.45v146.71h146.71c42.78 0 77.45-34.68 77.45-77.45V0c0 42.78-34.68 77.45-77.45 77.45ZM398.83 301.62H623c-42.78 0-77.45-34.68-77.45-77.45v-69.26c0-42.78-34.68-77.45-77.45-77.45H321.39v146.71c0 42.78 34.68 77.45 77.45 77.45ZM321.37 398.82v224.17c0-42.78 34.68-77.45 77.45-77.45h69.26c42.78 0 77.45-34.68 77.45-77.45V321.38H398.82c-42.78 0-77.45 34.68-77.45 77.45ZM224.17 321.36H0c42.78 0 77.45 34.68 77.45 77.45v69.26c0 42.78 34.68 77.45 77.45 77.45h146.71V398.81c0-42.78-34.68-77.45-77.45-77.45Z"></path></svg>