<svg data-name="Layer 1" xmlns="http://www.w3.org/2000/svg" viewBox="0 0 608.3 608.3"><path d="M605.21 137.76c-6.18-36-21.27-66.22-44.86-89.81-23.59-23.59-53.81-38.68-89.81-44.86-32.8-5.63-69-3.56-107.62 6.15-76.05 19.12-154.53 66.25-220.98 132.7C75.49 208.39 28.37 286.87 9.24 362.92c-9.71 38.62-11.78 74.82-6.15 107.62 6.18 36 21.27 66.22 44.86 89.81 23.59 23.59 53.81 38.68 89.81 44.86 32.8 5.63 69.01 3.55 107.62-6.16 76.05-19.12 154.53-66.25 220.98-132.7 66.45-66.45 113.58-144.93 132.7-220.98 9.71-38.62 11.78-74.82 6.15-107.62Zm-67.34 92.23c-16.38 65.15-57.62 133.25-116.13 191.75-58.5 58.5-126.6 99.74-191.75 116.13-59.41 14.94-108.22 7.08-137.43-22.13-29.21-29.21-37.07-78.02-22.13-137.43 16.38-65.15 57.62-133.25 116.13-191.75 58.5-58.5 126.6-99.74 191.75-116.13 59.41-14.94 108.22-7.08 137.43 22.13 29.21 29.21 37.07 78.02 22.13 137.43Z"></path><circle cx="223.33" cy="304.11" r="69.8" transform="rotate(-9.22 223.25981894 304.03619526)"></circle><circle cx="385.83" cy="304.11" r="69.8" transform="rotate(-45 385.83694411 304.11110488)"></circle></svg>