<svg xmlns="http://www.w3.org/2000/svg" width="602.1" viewBox="0 0 602.1 602" height="602" xml:space="preserve"><path d="M531.1 0H509L387.4 292l-29.7-71.3L449.4 0H424l-79 190.1-31.3-75.2L361.4 0H336l-35 84.3L265.8 0h-25.4l47.9 114.8-29.6 71.3L181 0h-25.4l90.3 216.7-31.3 75.2L93.1 0H71C31.8 0 0 31.8 0 71v460.1c0 39.1 31.8 71 71 71h155.4V324.8l32.2-77.6 32.3 77.6V602h23.5V324.8l30.6-73.7 30.7 73.7V602H531c39.2 0 71-31.8 71-71V71c.1-39.2-31.8-71-70.9-71M202.9 578.6H71c-26.2 0-47.5-21.3-47.5-47.5V71c0-26.2 21.3-47.5 47.5-47.5h6.4l125.5 301.4v253.7zm99.7-286.7-31.3-75.2 29.6-71.3 31.4 75.2-29.7 71.3zm276 239.2c0 26.2-21.3 47.5-47.5 47.5H399.2V324.8L524.7 23.5h6.4c26.2 0 47.5 21.3 47.5 47.5v460.1z"></path></svg>