<svg xmlns="http://www.w3.org/2000/svg" width="606.2" viewBox="0 0 606.2 617.7" height="617.7" xml:space="preserve" style="enable-background:new 0 0 606.2 617.7"><path d="m569.2 190.3-33 24c-2.4 1.8-3.4 4.9-2.5 7.7l12.6 38.8c2.1 6.4-5.2 11.7-10.6 7.7l-33-24a6.75 6.75 0 0 0-8.1 0l-33 24c-5.4 3.9-12.7-1.4-10.7-7.7l12.6-38.8c.9-2.9-.1-6-2.5-7.7l-33-24c-5.4-3.9-2.6-12.5 4.1-12.5h40.8c3 0 5.7-1.9 6.6-4.8l12.6-38.8c2.1-6.4 11.1-6.4 13.2 0l12.6 38.8c.9 2.8 3.6 4.8 6.6 4.8h40.8c6.5-.1 9.3 8.5 3.9 12.5m-79.1 235.4c-30.1 0-54.5-24.4-54.5-54.5s24.4-54.5 54.5-54.5 54.5 24.4 54.5 54.5-24.4 54.5-54.5 54.5m-108-86.7c-30.1 0-54.5-24.4-54.5-54.5S352 230 382.1 230s54.5 24.4 54.5 54.5-24.4 54.5-54.5 54.5m-91.7 91.7c-30.1 0-54.5-24.4-54.5-54.5s24.4-54.5 54.5-54.5 54.5 24.4 54.5 54.5c-.1 30.1-24.4 54.5-54.5 54.5m-90.7-93c-30.1 0-54.5-24.4-54.5-54.5s24.4-54.5 54.5-54.5 54.5 24.4 54.5 54.5c-.1 30.1-24.5 54.5-54.5 54.5M92.6 423.4c-30.1 0-54.5-24.4-54.5-54.5s24.4-54.5 54.5-54.5S147 338.9 147 369c0 30-24.3 54.4-54.4 54.4m-55.3-216c0-30.1 24.4-54.5 54.5-54.5s54.5 24.4 54.5 54.5-24.4 54.5-54.5 54.5c-30.2 0-54.5-24.4-54.5-54.5M210 37.3c30.1 0 54.5 24.4 54.5 54.5s-24.4 54.4-54.5 54.4-54.5-24.4-54.5-54.4c0-30.1 24.4-54.5 54.5-54.5m81.4 103.2c30.1 0 54.5 24.4 54.5 54.5s-24.4 54.5-54.5 54.5-54.5-24.4-54.5-54.5 24.4-54.5 54.5-54.5m81.4-103.2c30.1 0 54.5 24.4 54.5 54.5s-24.4 54.4-54.5 54.4-54.5-24.4-54.5-54.4c0-30.1 24.4-54.5 54.5-54.5m230.9 132.3c-5.9-16.3-22.1-27-39.3-26.9h-21.2l-8.4-23.1c-6-16.6-21.8-26.9-38.5-26.8-13.6 0-26.1 7.1-33.7 17.9C475 54.8 430.4-.7 372.8 0c-35.4 0-66.1 20.1-81.4 49.5C276.1 20.1 245.4 0 210 0c-61.7-1.2-107.5 63.4-86.9 121.2-9.8-3.6-20.4-5.5-31.4-5.5-50.6 0-91.7 41-91.7 91.7 0 35.1 19.7 65.6 48.7 81C20.2 304 .9 334.2.9 369c0 50.7 41.1 91.7 91.7 91.7 17.4 0 33.6-4.9 47.5-13.3 10.7-8.1 23.9-12.8 38.3-12.8 35.1 0 63.6 28.5 63.6 63.6V612c0 3.2 2.6 5.7 5.7 5.7h86c3.2 0 5.7-2.6 5.7-5.7V498.8c0-34.8 28.2-63.1 63.1-63.1 14.6 0 28 5 38.7 13.3v-.1c14.1 8.9 30.9 14.1 48.9 14.1 50.7 0 91.7-41.1 91.7-91.7 0-26.7-11.4-50.8-29.7-67.5 4-1.6 7.7-3.8 11.1-6.7 13.3-11.1 17.8-30 11.8-46.2l-6.1-16.9 22.7-19c13.5-11.4 17.8-29.7 12.1-45.4"></path></svg>