<svg xmlns="http://www.w3.org/2000/svg" width="605.6" viewBox="0 0 605.6 606.2" height="606.2" xml:space="preserve"><path d="M302.5 0H225v362.8h-25.1V.3H179v362.4h-23.6V.3h-20.9v362.4h-23.6V.3H90v362.4H66.4V.3H45.5v362.4H21.9V.3H1v383.4h301.5c44.4 0 80.6-36.2 80.6-80.6 0-44.4-36.1-80.6-80.6-80.6H246v-23.6h56.5c57.4 0 104.2 46.7 104.2 104.2 0 57.4-46.7 104.2-104.2 104.2H0v20.9h302.5c69 0 125.1-56.1 125.1-125.1S371.5 178 302.5 178H246v-23.6h56.5c82 0 148.7 66.7 148.7 148.7 0 82-66.7 148.7-148.7 148.7H0v20.9h302.5c93.5 0 169.6-76.1 169.6-169.6S396 133.5 302.5 133.5H246v-23.6h56.5c106.5 0 193.2 86.7 193.2 193.2 0 106.5-86.7 193.2-193.2 193.2H0v20.9h302.5c118 0 214.1-96 214.1-214.1 0-118-96-214.1-214.1-214.1H246V65.4h56.5c131 0 237.7 106.6 237.7 237.7S433.6 540.8 302.5 540.8H0v20.9h302.5c142.6 0 258.6-116 258.6-258.6 0-142.6-116-258.6-258.6-258.6H246V20.9h56.5c155.6 0 282.2 126.6 282.2 282.2S458.1 585.3 302.5 585.3H0v20.9h302.5c167.1 0 303.1-136 303.1-303.1C605.6 136 469.6 0 302.5 0zm0 243.4c32.9 0 59.7 26.8 59.7 59.7 0 32.9-26.8 59.7-59.7 59.7H246V243.4h56.5z"></path></svg>