<svg xmlns="http://www.w3.org/2000/svg" width="607.8" viewBox="0 0 607.8 381.5" height="381.5"><path d="M596.4 260.3c-25.6-24.4-75.6-36.8-109.6-47.4-37.8-11-80-19.3-117.1-22.1 41.1-3.1 87.1-12.8 128.5-25.2 24.1-7.1 49.1-14.6 71.6-25.9 9.7-4.9 18.8-10.8 26.6-18.4 10.8-10.4 14.1-28.1 9.1-42.3-4.2-12.3-14.6-21.6-26.8-27.5-37.2-18.3-80.1-28.3-120.6-36.3C407.3 5.1 355.6 0 303.9 0c-51.7 0-103.4 5.1-154.2 15.2-40.5 8.1-83.4 18-120.6 36.3-12.2 6-22.6 15.3-26.8 27.6-5 14.2-1.7 31.9 9.1 42.3 7.8 7.6 16.9 13.5 26.6 18.4 22.5 11.3 47.5 18.8 71.6 25.9C151 178 197 187.8 238.1 190.8c-37.1 2.8-79.3 11-117.1 22.1-34 10.6-84 22.9-109.6 47.4-15.7 15.5-15 43.6 1.6 58.7 27 24.3 100.1 40.1 136.7 47.5 101.6 20.1 206.9 20.1 308.5 0 40.3-8 83.5-18.1 120.6-36.3 12.2-5.9 22.6-15.3 26.8-27.5 4.9-14.3 1.6-32.1-9.2-42.4zm-245 78.5c-26.3 22.8-68.8 22.8-95.1 0s-35.8-71 0-106.8l47.6-41.3-47.6-41.3c-50.4-52-13.1-124.8 47.6-123.9 60.7-.9 98 71.9 47.6 123.9l-47.6 41.3 47.6 41.3c35.7 35.8 26.2 84-.1 106.8z"></path></svg>