<svg data-name="Layer 1" xmlns="http://www.w3.org/2000/svg" viewBox="0 0 579.25 519.53"><path d="M59.77 59.77h130.87V0H0v519.53h190.64v-59.77H59.77V349.64h130.87v-59.77H59.77V59.77z"></path><circle cx="292.28" cy="91.39" r="23.54" transform="rotate(-13.28 292.3495819 91.40953577)"></circle><path d="M579.25 519.53 384.84 55.22C370.79 21.67 338.22 0 301.85 0h-90.52l24.63 59.77h67.18c13.32 0 25.24 7.94 30.39 20.22l158.8 379.76h-155.3l71.28-169.89h-58.35c-48.45 0-87.88-39.42-87.88-87.88 0-17.62 3.83-31.57 13.64-46.08 3.86-5.71 9.68-13.88 14.62-18.45l-51.72-58.18h-77.61l54.75 61.52c-9.55 19.83-14.54 41.57-14.54 63.92 0 71.99 51.84 132.06 120.14 144.93l-71.12 169.89h329.01Z"></path></svg>