<svg xmlns="http://www.w3.org/2000/svg" width="614.5" viewBox="0 0 614.5 614.4" height="614.4" style="enable-background:new 0 0 614.5 614.4" xml:space="preserve"><path d="M538 510.2C711.9 314 569.7-.8 307.2 0 44.8-.8-97.4 314 76.4 510.2c56.1 64 137.3 102.2 222.1 104.3V422.7h17.3v191.8c84.9-2.2 166.1-40.3 222.2-104.3zM240 364.1h-54c-29.8 0-54-24.2-54-54 3-71.6 105.1-71.6 108 0v54zm134.5 182.7V422.6h54c62.1 0 112.6-50.5 112.6-112.6-6.2-149.3-219-149.3-225.1 0v54h-17.3v-54c0-62.1-50.5-112.6-112.6-112.6-149.3 6.2-149.3 219 0 225.1h54v124.2c-105-27.8-183.2-130.4-181.6-239.4 13.7-330 483.8-329.9 497.5 0 1.6 108.9-76.7 211.6-181.5 239.5zm0-182.7v-54c0-29.8 24.2-54 54-54 71.6 3 71.6 105.1 0 108h-54z"></path></svg>