<svg xmlns="http://www.w3.org/2000/svg" width="642" viewBox="0 0 642 554.6" height="554.6" style="overflow:visible;enable-background:new 0 0 642 554.6" xml:space="preserve"><path d="M635.1 389.9c-2.1 10.5-11.9 17.8-22.6 17.8h-66.7c-5.7 0-8.6 6.9-4.5 11l47.7 47.7c8.7 8.7 8.7 23 0 31.8-8.8 8.7-23 8.7-31.8 0L430.6 371.7c-3-3-8.1-2.3-10.1 1.5-1 1.8-2 3.7-3.1 5.4-1.5 2.6-1.2 5.8.9 7.9L548 516.2c8.7 8.7 8.7 23 0 31.8-8.8 8.7-23 8.7-31.8 0L321 352.7 125.8 548c-8.7 8.7-23 8.7-31.8 0-8.7-8.8-8.7-23 0-31.8l129.7-129.7c2.1-2.1 2.4-5.4.9-7.9-1.1-1.8-2.1-3.6-3.1-5.4-2-3.8-7.1-4.5-10.1-1.5L84.9 498.1c-8.7 8.7-23 8.7-31.8 0-8.7-8.8-8.7-23 0-31.8l47.7-47.7c4-4 1.2-11-4.5-11H29.5c-10.7 0-20.5-7.2-22.6-17.8-3-14.4 8.1-27.2 22-27.2h125.2c1.7 0 3.3-.7 4.5-1.9l6.4-6.4c4-4 1.2-11-4.5-11H23.1c-10.7 0-20.5-7.2-22.6-17.8-3-14.4 8.1-27.2 22-27.2h138c5.7 0 8.6-6.9 4.5-11l-6.4-6.4c-1.2-1.2-2.8-1.9-4.5-1.9H29.6c-10.7 0-20.5-7.2-22.6-17.8-3-14.4 8.1-27.2 22-27.2h67.4c5.7 0 8.6-6.9 4.5-11l-47.7-47.7c-8.7-8.7-8.7-23 0-31.8 8.8-8.7 23-8.7 31.8 0l126.4 126.4c3 3 8.2 2.3 10.2-1.5 1-1.9 2-3.7 3.1-5.5 1.5-2.6 1.2-5.8-.9-7.9L94 125.8c-8.7-8.7-8.7-23 0-31.8 8.8-8.7 23-8.7 31.8 0l129.7 129.7c2.1 2.1 5.3 2.4 7.9.9 1.8-1.1 3.6-2.1 5.5-3.1 3.8-2 4.6-7.1 1.6-10.1-26.6-26.5-126.6-126.5-126.6-126.5-8.7-8.7-8.7-23 0-31.8 8.8-8.7 23-8.7 31.8 0l47.7 47.7c4 4 11 1.2 11-4.5V29.6c0-10.7 7.2-20.5 17.8-22.6 14.4-3 27.2 8.1 27.2 22v125.2c0 1.7.7 3.3 1.9 4.5l6.4 6.4c4 4 11 1.2 11-4.5V23.2c0-10.7 7.2-20.5 17.8-22.6 14.4-3 27.2 8.1 27.2 22v138c0 5.7 6.9 8.6 11 4.5l6.4-6.4c1.2-1.2 1.9-2.8 1.9-4.5V29.7c0-10.7 7.2-20.5 17.8-22.6 14.4-3 27.2 8.1 27.2 22v67.4c0 5.7 6.9 8.6 11 4.5l47.7-47.7c8.7-8.7 23-8.7 31.8 0 8.7 8.8 8.7 23 0 31.8L371.6 211.4c-3 3-2.3 8.2 1.5 10.2 1.9 1 3.7 2 5.5 3.1 2.6 1.5 5.8 1.2 7.9-.9L516.2 94c8.7-8.7 23-8.7 31.8 0 8.7 8.8 8.7 23 0 31.8L418.3 255.5c-2.1 2.1-2.4 5.3-.9 7.9 1.1 1.8 2.1 3.6 3.1 5.5 2 3.8 7.1 4.6 10.1 1.6L557 144.1c8.7-8.7 23-8.7 31.8 0 8.7 8.8 8.7 23 0 31.8l-47.7 47.7c-4 4-1.2 11 4.5 11h66.7c10.7 0 20.5 7.2 22.6 17.8 3 14.4-8.1 27.2-22 27.2h-125c-1.7 0-3.3.7-4.5 1.9l-6.4 6.4c-4 4-1.2 11 4.5 11h137.4c10.7 0 20.5 7.2 22.6 17.8 3 14.4-8.1 27.2-22 27.2h-138c-5.7 0-8.6 6.9-4.5 11l6.4 6.4c1.2 1.2 2.8 1.9 4.5 1.9h125.2c13.9-.5 25 12.3 22 26.7zm-250.8-37.4c4.1-8.2 6.6-17.3 7.2-26.9 2.4-38.4-27.6-72.7-66-75-41-2.5-75.1 30-75.1 70.5 0 11.3 2.6 22 7.4 31.5l47.4-47.4c8.8-8.8 23-8.8 31.8 0l47.3 47.3z"></path></svg>