<svg data-name="Layer 1" xmlns="http://www.w3.org/2000/svg" viewBox="0 0 394.24 597.33"><path d="M0 0v597.33h394.24V0H0Zm363.13 269.19-12.45 12.45c-5.39-24.81-24.82-44.39-49.52-50.05l61.97-61.97v99.57ZM31.11 169.62l150.46 150.46v99.57L31.11 269.19v-99.57Zm150.46-37.09L80.14 31.11h101.43v101.42Zm31.11-101.42h101.43L212.68 132.53V31.11Zm0 288.97 9.84-9.84c5.66 24.71 25.24 44.14 50.05 49.53l-59.88 59.88v-99.57Zm73.83 10.11c-19.08 0-34.6-15.52-34.6-34.6s15.52-34.6 34.6-34.6 34.6 15.52 34.6 34.6-15.52 34.6-34.6 34.6Zm76.63-204.55L212.68 276.1v-99.57l145.4-145.42h5.05v94.52ZM36.15 31.11l145.41 145.41v99.57L31.11 125.63V31.11h5.05ZM31.1 313.18l150.46 150.46v102.58H31.11V313.17Zm181.56 253.05V463.65l150.46-150.46v253.05H212.67Z"></path></svg>