<svg id="Layer_1" data-name="Layer 1" xmlns="http://www.w3.org/2000/svg" viewBox="0 0 493.5 623.01">   <path d="M469.67,469.51c-10.28-12.51-22.5-23.42-32.22-36.36-8.97-11.94-16.88-24.81-22.65-38.61-2.25-5.38-4.61-14.68-6.12-21.21-.4-1.73-2.86-1.73-3.26,0-1.52,6.53-3.87,15.83-6.12,21.21-5.77,13.8-13.68,26.67-22.65,38.61-9.71,12.94-21.94,23.85-32.22,36.36-5.42,6.59-10.28,13.61-13.93,21.62-6.47,14.18-9.9,29.68-9.9,45.27,0,47.73,38.61,86.42,86.3,86.58v.02c.05,0,.1,0,.15,0s.1,0,.15,0v-.02c47.69-.17,86.3-38.86,86.3-86.58,0-15.59-3.43-31.1-9.9-45.27-3.66-8.01-8.52-15.03-13.93-21.62Z"></path>   <path d="M439.34,166.6c31.73-12.8,54.16-43.83,54.16-80.15C493.5,38.7,454.8,0,407.05,0c-36.32,0-67.35,22.42-80.15,54.16C314.1,22.42,283.07,0,246.75,0s-67.35,22.42-80.15,54.16C153.8,22.42,122.77,0,86.45,0,38.7,0,0,38.7,0,86.45c0,36.32,22.42,67.35,54.16,80.15C22.42,179.4,0,210.43,0,246.75s22.42,67.35,54.16,80.15C22.42,339.7,0,370.74,0,407.05c0,47.74,38.7,86.45,86.45,86.45,36.32,0,67.35-22.42,80.15-54.16,12.8,31.73,43.83,54.16,80.15,54.16,47.74,0,86.45-38.7,86.45-86.45,0-36.32-22.42-67.35-54.16-80.15,21.75-8.77,39.09-26.11,47.86-47.86,12.8,31.73,43.83,54.16,80.15,54.16,47.74,0,86.45-38.7,86.45-86.45,0-36.32-22.42-67.35-54.16-80.15ZM166.6,118.74c8.77,21.75,26.11,39.09,47.86,47.86-21.75,8.77-39.09,26.11-47.86,47.86-8.77-21.75-26.11-39.09-47.86-47.86,21.75-8.77,39.09-26.11,47.86-47.86Zm0,256.02c-8.77-21.75-26.11-39.09-47.86-47.86,21.75-8.77,39.09-26.11,47.86-47.86,8.77,21.75,26.11,39.09,47.86,47.86-21.75,8.77-39.09,26.11-47.86,47.86Zm160.3-160.3c-8.77-21.75-26.11-39.09-47.86-47.86,21.75-8.77,39.09-26.11,47.86-47.86,8.77,21.75,26.11,39.09,47.86,47.86-21.75,8.77-39.09,26.11-47.86,47.86Z"></path> </svg>