<svg xmlns="http://www.w3.org/2000/svg" width="642" viewBox="0 0 642 542.49" height="542.49" data-name="Layer 1"><path d="M179.76 295.32v46.98l46.98-46.98h-46.98zM200.19 362.73l46.98-46.98v46.98h-46.98zM276.06 286.86l28.89-28.89v104.76h-28.89v-75.87zM255.63 266.43l28.89-28.89H179.76v28.89h75.87zM333.84 338.03l28.89-28.89V200.19l-28.89 28.89v108.95zM313.41 208.65l28.89-28.89H233.35l-28.89 28.89h108.95z"></path><path d="M642 0H158.89L0 158.89V383.6l158.89 158.89H383.6L542.49 383.6V179.76H391.62v141.35l-70.51 70.51H150.87V221.38l70.51-70.51H642V0z"></path></svg>