<svg data-name="Layer 1" xmlns="http://www.w3.org/2000/svg" viewBox="0 0 592.83 616.94"><path d="M52.99 336.31v-1.16c0-89.73 73.41-163.14 163.14-163.14h25.7V0H0v616.94h181.73l86.57-117.5h-52.18c-89.73 0-163.14-73.41-163.14-163.14Z"></path><path d="M439.28 0c-2.13 11.8-5.49 23.36-9.98 34.48-10.68 26.43-27.39 49.05-47.69 68.94-21.65 21.22-36.95 32.2-71.1 55.92-49.53 34.4-68.68 103.78-68.68 161.59 0 54.56 17.43 103.63 48.31 143.78l.95 1.19c30.86-40.15 49.21-90.42 49.21-144.97 0-48.39-14.43-93.4-39.23-130.97l171.17-.02c36.42 32.54 59.44 79.8 59.44 132.19 0 97.53-79.79 177.32-177.32 177.32h-37.79v117.5h276.27V0H439.29Z"></path><circle cx="413.33" cy="244.05" r="37.81" transform="rotate(-45 413.33009166 244.0530703)"></circle></svg>