<svg version="1.0" xmlns="http://www.w3.org/2000/svg" width="494.2" viewBox="0 0 494.2 614.9" height="614.9" xml:space="preserve" style="enable-background:new 0 0 494.2 614.9"><path d="M234.1 158.9 0 230.1v307.7s122.9-38.1 125.2-38.9c.1-4.9 1.4-187.2 1.4-195.2 2-2.5 107.5-144.8 107.5-144.8z"></path><path d="m133.5 614.9 109.2-149.5.2-303.8-107.7 145.7zM37.3 74.3v134.4L234.7 150zM235.4 149.8c0-.1 0-.1 0 0zM171.3 0v115.8l68.8 27zM260.1 158.9s105.5 142.3 107.6 144.8c0 7.9 1.3 190.3 1.4 195.2 2.3.8 125.2 38.9 125.2 38.9V230.1l-234.2-71.2z"></path><path d="m251.3 161.6.3 303.8 109.2 149.5-1.8-307.6zM457 208.7V74.3L259.5 150zM258.9 149.8c0-.1 0-.1 0 0zM323 0l-68.9 142.8 68.9-27z"></path></svg>