<svg xmlns="http://www.w3.org/2000/svg" width="609.2" viewBox="0 0 609.2 496.6" height="496.6" xml:space="preserve"><path d="M72 496.6c-39.8 0-72-32.3-72-72 0-22 10.1-42.8 27.3-56.5C80.5 326 194.3 236 213.2 221c.6-.5 1-1.3 1-2.1s-.4-1.6-1-2.1c-13.9-10.9-77.5-60.9-96-75.5-.9-.7-2.2-.9-3.3-.4-1.1.5-1.8 1.6-1.8 2.8v136.2L0 366.6V0h116.6s104.3 82.5 127.5 100.9c.8.7 2 .8 2.9.3 1-.5 1.6-1.4 1.6-2.5V0h158.7c.4 0 .7.1.9.4.2.2.4.6.4.9 0 .8-.5 1.5-1.3 1.7-6.9 1.8-38.5 11.9-38.5 43.5v45.7c0 1.1.6 2 1.6 2.5s2.1.3 2.9-.3C395.6 76.7 492.6 0 492.6 0h116.6v366.6l-112-86.6V143.8c0-1.2-.7-2.3-1.8-2.8s-2.4-.4-3.3.4c-18.6 14.6-82.1 64.5-96 75.5-.7.5-1 1.3-1 2.1s.4 1.6 1 2.1c18.9 15 132.7 105 185.9 147.1 17.3 13.7 27.3 34.4 27.3 56.5 0 39.8-32.2 72-72 72-117.3-.1-348-.1-465.3-.1zm115.7-116.2c-.7.6-1 1.5-.7 2.4.3.9 1.1 1.4 2 1.4h231.1c.9 0 1.7-.6 2-1.4.3-.9 0-1.8-.7-2.4-20.4-16-99.4-78.1-114.4-89.9-1.5-1.1-3.5-1.1-4.9 0-15 11.9-94 73.9-114.4 89.9z" fill-rule="evenodd" clip-rule="evenodd"></path></svg>