<svg xmlns="http://www.w3.org/2000/svg" width="510.2" viewBox="0 0 510.2 604.1" height="604.1"><path d="M292 302.3h61.3L267 526.5V238.3H54.8v64h61.4L0 604.1h99.9l77-202.4v202.4h160.2l77-202.4v202.4h90.1V238.3H292z"></path><circle cx="207.9" cy="154.1" r="67.8"></circle><path d="M374.5 154.1c0 37.5 30.4 67.8 67.8 67.8 37.5 0 67.9-30.4 67.9-67.8 0-37.5-30.4-67.8-67.9-67.8-37.4 0-67.8 30.4-67.8 67.8zM107.1 147c-3.2-.6-6.5-1-9.9-1-28.8 0-52.1 23.3-52.1 52.1 0 11.1 3.5 21.4 9.4 29.9l52.6-81zM109.6 109.8v33.1l79.5-122.4C178.1 8 161.9 0 143.8 0c-33.3 0-60.2 27-60.2 60.2 0 20.6 10.3 38.8 26 49.6zM342.1 147c-3.2-.6-6.5-1-9.9-1-28.8 0-52.1 23.3-52.1 52.1 0 11.1 3.5 21.4 9.4 29.9l52.6-81zM344.7 109.8v33.1l79.5-122.4C413.1 8 396.9 0 378.9 0c-33.3 0-60.2 27-60.2 60.2-.1 20.6 10.2 38.8 26 49.6z"></path></svg>