<svg data-name="Layer 1" xmlns="http://www.w3.org/2000/svg" viewBox="0 0 600.78 461.15"><path d="M413.04 146.49c-20.9-38.8-53.76-70.2-93.59-89.36-1.6-.12-3.19-.28-4.8-.36 18.71 27.3 33.56 57.44 43.55 89.72h54.83ZM417.32 154.84h-56.73c7.68 27.36 11.97 56.11 12.36 85.81h64.8c-.63-30.67-7.86-59.74-20.42-85.81Z"></path><path d="M422.43 146.49h43.06c-26.82-43.66-70.92-75.57-122.78-86.16 33.82 20.83 61.52 50.66 79.72 86.16ZM304.33 56.52v89.97h45.1c-10.34-32.5-25.7-62.76-45.1-89.97ZM364.6 249h-60.27v85.8h47.68c7.85-27.32 12.23-56.08 12.59-85.8ZM351.9 154.84h-47.57v85.81h60.26c-.39-29.73-4.8-58.49-12.69-85.81ZM413.23 343.16h-54.92c-9.99 32.42-24.87 62.69-43.65 90.09 1.61-.08 3.19-.24 4.79-.36 39.95-19.22 72.89-50.76 93.78-89.73Z"></path><path d="M342.71 429.69c52.01-10.63 96.22-42.68 123.02-86.53h-43.11c-18.19 35.66-45.97 65.63-79.91 86.53ZM446.1 240.65h47.07c-.71-31.03-8.86-60.22-22.82-85.81h-43.86c12.05 26.23 19 55.24 19.61 85.81ZM426.66 334.8h43.9c13.89-25.6 21.98-54.79 22.62-85.8h-47.07c-.56 30.55-7.46 59.57-19.45 85.8ZM304.33 343.16v90.34c19.47-27.31 34.88-57.69 45.22-90.34h-45.22ZM417.49 334.8c12.5-26.07 19.68-55.14 20.27-85.8h-64.8c-.35 29.69-4.61 58.44-12.26 85.8h56.8Z"></path><path d="M311.83 29.36 291.89 0 0 27.6v431.86l277.75-26.21 18.95 27.9h304.08V29.36H311.83Zm274.63 417.48H304.29l-19.45-28.64-270.52 25.52V40.63L284.8 15.05l19.43 28.62h282.22v403.16Z"></path></svg>