<svg xmlns="http://www.w3.org/2000/svg" width="610.8" viewBox="0 0 610.8 602.8" height="602.8" xml:space="preserve" style="enable-background:new 0 0 610.8 602.8"><path d="M551.8 181.1c-17.3-13.8-35.8-19.5-52.9-29.6-28.7-17.1-46.5-40.6-59.9-69.5-4.7-10-10.7-21.4-18.1-30.3-16.1-19.4-42-36.1-64.3-43.1-36-11.5-66.6-11.4-102.5-.1-22.9 7.2-49.6 24.6-65.5 44.7-6.9 8.7-11.7 18.9-16.8 28.7-13.4 28.9-31.1 52.5-59.9 69.5C94.8 161.5 76.4 167.3 59 181-1.7 229.3 0 301.7 0 301.7s-1.7 72.4 59 120.6c17.3 13.8 35.8 19.5 52.9 29.6 28.7 17.1 46.5 40.6 59.9 69.5 5.3 10.1 10.2 20.5 17.5 29.5 16 19.7 42.3 36.8 64.9 43.9 13.3 4.2 25.8 6.8 38 8V450.3c-27.5-14.9-44.6-43.7-44.6-75.3V258.5c0-44.9-21.2-88.6-55.7-115.3-.2-.2 0-.6.3-.5 25.2 8.8 46.8 24.2 62.7 44.7 17.3 22.4 27.4 50.6 29.1 81.4 0 .3.2.4.5.4s.5-.2.5-.5v-4.3c0-41.5 6.9-82.3 20.4-121.4.1-.2.4-.2.5 0 13.5 39.1 20.4 79.9 20.4 121.4V268.3c0 .3.2.5.5.5s.5-.2.5-.4c3.3-61.1 36.6-106.6 91.8-125.6.3-.1.5.3.3.5-34.5 26.7-55.7 70.5-55.7 115.3V375c0 31.6-17.1 60.3-44.6 75.3v152.5c12.3-1.1 24.7-3.8 38-8 22.6-7.1 48.9-24.2 64.9-43.9 7.2-8.9 12.1-19.4 17.5-29.5 13.4-28.9 31.1-52.5 59.9-69.5 17.1-10.1 35.5-15.9 52.9-29.6 60.7-48.2 59-120.6 59-120.6s1.2-72.4-59.5-120.6z"></path></svg>