<svg xmlns="http://www.w3.org/2000/svg" width="477.6" viewBox="0 0 477.6 618.3" height="618.3" xml:space="preserve" style="enable-background:new 0 0 477.6 618.3"><path d="M257.5 256.7c-87.4 22.7-151 126.2-111.3 211.9 28.3 66.5 111.4 102.2 178.4 73.5 54.9-20.4 95.6-81.1 83.8-140-9.2-56-69-96.2-124.3-84.3-54.4 9-102.8 72.4-76.8 126.1 10.7 22.4 32.4 38.1 57.2 41 36 4.9 75.2-21.3 78.9-58.4-1.4-18.2-28.1-21.7-33.2-3.4-4.4 13.9-16.4 25.9-31.2 27.7-13.4 1.5-25.3-2.1-34.5-12.1-30.9-36.2 14.2-88.3 54.4-89.3 25.1-2.3 49.7 9.9 64.1 30.4 37.4 52.2-9.6 124.5-66.8 135.3-49.2 12.3-102.4-17.3-120.4-64.1-17-41.1-3.2-89 25.6-121.2 54.1-64.3 161.5-60.4 211.6 6.7 68.9 83.3 11.7 209.6-85.2 239.5-98.6 34.5-210.4-36.1-224-139.2-4.2-29.1.7-57.2 8.1-85.2L152 211.2c12.6-9.4 54.4-38.5 119.6-65.2 7.4 7.3 17.5 11.8 28.7 11.8 22.5 0 40.7-18.2 40.7-40.7s-18.2-40.7-40.7-40.7c-21.5 0-39.1 16.7-40.5 37.9-55.3 22.5-94.6 46.6-115.5 60.9C121 124.9 94.9 84.9 76.7 59.6c3-5.7 4.7-12.1 4.7-18.9C81.4 18.2 63.1 0 40.7 0 18.2 0 0 18.2 0 40.7c0 22.5 18.2 40.7 40.7 40.7 3.2 0 6.2-.4 9.2-1.1 18.8 26.2 46.4 69 69.7 122 0 0-39 135.5-43.3 152.8l-.1.3c-3.8 15.3-6.5 29.9-7.7 44.9-2.9 51.6 14.2 104.4 47.8 143.8 113.3 133.8 329.1 77.4 359.4-95.9 18.3-121.9-99.5-225.9-218.2-191.5z"></path></svg>