<svg data-name="Layer 1" xmlns="http://www.w3.org/2000/svg" viewBox="0 0 625.17 625.17"><path d="M341.68 0v244.38l106.3-106.3c11.32-11.31 29.83-11.31 41.14 0 11.32 11.31 11.32 29.83 0 41.14l-106.3 106.3h150.33c16 0 29.09 13.09 29.09 29.09s-13.09 29.09-29.09 29.09H382.82L489.12 450c11.32 11.32 11.32 29.83 0 41.14-11.31 11.32-29.83 11.32-41.14 0l-106.3-106.3v150.33c0 16-13.09 29.09-29.09 29.09s-29.09-13.09-29.09-29.09V384.84l-106.3 106.3c-11.31 11.32-29.83 11.32-41.14 0-11.31-11.31-11.31-29.83 0-41.14l106.3-106.3H92.02c-16 0-29.09-13.09-29.09-29.09s13.09-29.09 29.09-29.09h150.33l-106.3-106.3c-11.31-11.31-11.31-29.83 0-41.14s29.83-11.31 41.14 0l106.3 106.3V0H0v312.59c0 171.92 140.66 312.59 312.59 312.59 171.92 0 312.59-140.66 312.59-312.59V0h-283.5Z"></path></svg>