<svg xmlns="http://www.w3.org/2000/svg" width="626.8" viewBox="0 0 626.8 532.1" height="532.1" xml:space="preserve" style="enable-background:new 0 0 626.8 532.1"><path d="M261.3 193.6H111l75.2-130.2L149.6 0 0 259.1h299.2zM365.5 193.6h150.3L440.6 63.4 477.2 0l149.6 259.1H327.7zM313.7 130.9 238.1 0h-73.2l148.8 257.7L462.5 0h-73.3zM365.5 338.5h150.3l-75.2 130.2 36.6 63.4 149.6-259H327.7zM261.3 338.5H111l75.2 130.2-36.6 63.4L0 273.1h299.2zM313.1 401.3l75.6 130.8h73.2L313.1 274.4 164.4 532.1h73.2z"></path></svg>