<svg data-name="Layer 1" xmlns="http://www.w3.org/2000/svg" viewBox="0 0 549.88 610.41"><path d="M538.75 175.98C528.06 114.42 509.86 55.44 485.14 0H64.74C40.01 55.44 21.82 114.42 11.13 175.98 3.84 217.96 0 261.14 0 305.21s3.84 87.24 11.13 129.23C21.82 496 40.02 554.98 64.74 610.42h420.4c24.72-55.44 42.92-114.42 53.61-175.98 7.29-41.99 11.13-85.16 11.13-129.23s-3.84-87.24-11.13-129.23ZM249.23 434.44c9.04-41.65 13.84-84.87 13.84-129.23s-4.8-87.58-13.84-129.23h40.93c-9.04 41.65-13.84 84.87-13.84 129.23s4.8 87.58 13.84 129.23h-40.93Z"></path></svg>