<svg xmlns="http://www.w3.org/2000/svg" width="600.5" viewBox="0 0 600.5 539.2" height="539.2" xml:space="preserve"><path d="M210.4 251.2V280h8.3V139.5c-5.9-1.5-10.2-6.8-10.2-13.2 0-7.5 6.1-13.6 13.6-13.6s13.6 6.1 13.6 13.6c0 6.3-4.3 11.7-10.2 13.2V280h8.3v-28.8c.9-94.7 64-113.3 64-113.3L277.5 0H166.9l-20.4 137.8c-.1 0 63 18.7 63.9 113.4z"></path><path d="M271.3 182.6 246.4 197l4.2 7.2L372.1 134c-1.6-5.8.8-12.3 6.3-15.4 6.5-3.8 14.8-1.5 18.6 5 3.8 6.5 1.5 14.8-5 18.6-5.5 3.2-12.3 2.1-16.5-2.3l-121.6 70.3 4.2 7.2L283 203c82.4-46.6 130.2-1.3 130.2-1.3L522.3 115l-41.4-71.6L467 19.3 337.4 70.5s15.4 64-66.1 112.1z"></path><path d="M491.2 202.2S443.5 247.5 361 201l-24.9-14.4-4.2 7.2L453.6 264c4.2-4.3 11-5.4 16.5-2.3 6.5 3.7 8.7 12.1 5 18.6-3.8 6.5-12.1 8.7-18.6 5-5.5-3.2-7.9-9.6-6.3-15.4l-121.7-70.1-4.2 7.2 24.9 14.4c81.6 48 66.3 112 66.3 112l129.6 51.1 41.3-71.7 13.9-24.2-109.1-86.4z"></path><path d="M390.1 288v-28.8h-8.3l.2 140.4c5.9 1.5 10.2 6.8 10.2 13.1 0 7.5-6.1 13.6-13.6 13.6s-13.6-6.1-13.6-13.6c0-6.3 4.3-11.7 10.2-13.2l-.2-140.4h-8.3v28.8c-.8 94.7-63.9 113.4-63.9 113.4l20.6 137.8 82.7-.1H434l20.2-137.9c0 .1-63.1-18.5-64.1-113.1z"></path><path d="m329.3 356.6 24.9-14.4-4.2-7.2-121.5 70.4c1.6 5.8-.8 12.3-6.3 15.4-6.5 3.8-14.8 1.6-18.6-4.9-3.8-6.5-1.5-14.8 5-18.6 5.5-3.2 12.3-2.1 16.5 2.2l121.5-70.4-4.2-7.2-24.9 14.4c-82.4 46.7-130.2 1.5-130.2 1.5l-109 86.8 41.5 71.6 14 24.1 129.5-51.5s-15.4-64 66-112.2z"></path><path d="m239.5 338.3 24.9 14.3 4.2-7.2-121.7-70c-4.2 4.3-11 5.5-16.5 2.3-6.5-3.7-8.8-12.1-5-18.6 3.7-6.5 12.1-8.8 18.6-5 5.5 3.2 7.9 9.6 6.3 15.4l121.7 70 4.2-7.2-25-14.3c-81.6-47.9-66.4-112-66.4-112L55.1 155l-41.2 71.7L0 250.9l109.3 86.4s47.7-45.4 130.2 1z"></path></svg>