<svg xmlns="http://www.w3.org/2000/svg" width="543.46" viewBox="0 0 543.46 642" height="642" data-name="Layer_1"><path d="M2.55 345.3c13.81 8.1 34.18 11.76 60.34 7.24 22.06-3.81 28.4-2.8 37.22-9.72 7.79-6.11 15-18.5 22.77-22.99a7.915 7.915 0 0 1 4.01-1.08 8.03 8.03 0 0 1 4.02 14.98c-11.99 6.3-23.41 9.5-33.39 16.97-29.35 22.01-51.49 62.97-51.54 106.04 0 16.6 3 32.49 8.48 47.17.5 1.48 1.74 2.65 3.29 3.01 0 0 18.39 4 30.45 3.46 42.32-.37 81.77-19.18 105.23-51.55 4.5-6.21 6.18-23.65 12.47-28.06a8.02 8.02 0 0 1 12.62 6.57c0 1.94-.69 3.72-1.83 5.1-2.57 3.06-9.19 7.78-12.16 10.45-38.21 34.36-27.47 109.76 12.54 140.83l56.03 47.02c.82.76 1.91 1.23 3.12 1.23s2.34-.49 3.16-1.28c0 0 40.08-34.02 53.69-45.05 37.14-30.11 50.54-93.48 17.36-134.5-3.99-4.93-13.99-11.31-18.81-17.05a7.987 7.987 0 0 1-1.88-5.16c0-4.43 3.59-8.02 8.03-8.02 1.71 0 3.3.54 4.6 1.45 5.09 3.57 6.45 17.61 10.01 22.71 1.7 2.95 3.76 5.67 6.11 8.1 24.52 25.08 58.64 40.6 96.44 40.61 13.28 0 26.12-1.92 38.24-5.5a4.568 4.568 0 0 0 2.88-2.87c4.02-12.78 6.19-26.38 6.19-40.49 0-37.35-14.92-71.7-43.49-99.17-13.85-13.32-30.58-15.59-45.09-20.81a8.031 8.031 0 0 1-5.28-7.54c0-4.43 3.59-8.02 8.03-8.02 1.46 0 2.9.28 4.01 1.08 12.8 9.17 16.03 21.83 42.05 23.8 32.52 2.46 53.75 5.86 78.7-8.71 1.57-.88 2.52-2.79 2.21-4.66-7.86-57.77-47.49-105.45-100.71-124.83-31.46-11.45-100.14-14.92-131.34-26.28-20.33-7.4-34.85-26.9-34.85-49.78v-23.34c0-14.13-8.16-27.6-21.9-33.72-10.1-4.5-17.14-14.63-17.14-26.4 0-15.96 12.93-28.89 28.89-28.89 13.37 0 24.62 9.08 27.91 21.41 1.26 4.71 6.1 7.51 10.8 6.24 4.71-1.26 7.51-6.11 6.25-10.81-5.31-19.86-23.43-34.5-44.97-34.5-25.71 0-46.54 20.84-46.54 46.55 0 18.77 11.11 34.95 27.12 42.31a18.41 18.41 0 0 1 8.99 15.86v30.91c0 22.89-14.81 42.38-35.14 49.78-25.07 9.12-90.78 15.69-119.49 26.14C46.74 231.41 6.46 280.98.03 340.7c-.23 1.93.91 3.7 2.52 4.6Z"></path></svg>