<svg xmlns="http://www.w3.org/2000/svg" width="547" viewBox="0 0 547 606.3" height="606.3" style="enable-background:new 0 0 547 606.3" xml:space="preserve"><path d="M536 454.7c-22.6 39.1-72.5 52.5-111.6 29.9-34.1-19.7-48.6-60.2-36.8-96.2l-97.3-56.2v112.3c37.1 7.8 64.9 40.6 64.9 80 0 45.1-36.6 81.7-81.7 81.7s-81.7-36.6-81.7-81.7c0-39.4 27.8-72.2 64.9-80V332.3l-97.3 56.2c11.8 36-2.7 76.5-36.8 96.2-39.1 22.6-89.1 9.2-111.6-29.9-22.6-39.1-9.2-89.1 29.9-111.6 34.1-19.7 76.5-12 101.7 16.2l97.3-56.2-97.3-56.2c-25.2 28.2-67.6 35.9-101.7 16.2C1.8 240.6-11.6 190.7 11 151.6c22.6-39.1 72.5-52.5 111.6-29.9 34.1 19.7 48.6 60.2 36.8 96.2l97.3 56.2V161.7c-37.1-7.8-64.9-40.6-64.9-80 0-45.1 36.6-81.7 81.7-81.7s81.7 36.6 81.7 81.7c0 39.4-27.8 72.2-64.9 80V274l97.3-56.2c-11.8-36 2.7-76.5 36.8-96.2 39.1-22.6 89.1-9.2 111.6 29.9 22.6 39.1 9.2 89.1-29.9 111.6-34.1 19.7-76.5 12-101.7-16.2l-97.3 56.2 97.3 56.2c25.2-28.2 67.6-35.9 101.7-16.2 39.1 22.6 52.5 72.5 29.9 111.6"></path></svg>