<svg data-name="Layer 1" xmlns="http://www.w3.org/2000/svg" viewBox="0 0 338.24 614.24"><path d="M169.12 0C75.72 0 0 75.72 0 169.12s75.72 169.12 169.12 169.12 169.12-75.72 169.12-169.12S262.52 0 169.12 0Zm0 285.35c-64.19 0-116.24-52.04-116.24-116.23S104.93 52.88 169.12 52.88s116.23 52.04 116.23 116.23-52.04 116.23-116.23 116.23Z"></path><path d="M169.12 106.15c-34.78 0-62.97 28.19-62.97 62.97s28.19 62.97 62.97 62.97 62.97-28.19 62.97-62.97-28.19-62.97-62.97-62.97ZM258.18 415.67c14.54 0 26.44-11.9 26.44-26.44s-11.9-26.44-26.44-26.44H80.06c-14.54 0-26.44 11.9-26.44 26.44s11.9 26.44 26.44 26.44h44.74v145.68H80.06c-14.54 0-26.44 11.9-26.44 26.44s11.9 26.44 26.44 26.44h178.12c14.54 0 26.44-11.9 26.44-26.44s-11.9-26.44-26.44-26.44h-44.74V415.67h44.74Z"></path></svg>