<svg data-name="Layer 1" xmlns="http://www.w3.org/2000/svg" viewBox="0 0 616.7 602.83"><path d="M573.2 397.19c-18.41 0-36.41-1.86-53.69-5.76l5.45-5.45c49.32-49.32 49.32-129.56 0-178.88-44.82-44.83-115.13-48.76-164.61-12.1-3.32-22.15-5.12-46.31-5.12-72.7v-3.23h72.19L308.35 0 189.28 119.07h72.19v3.23c0 26.4-1.8 50.55-5.12 72.7-49.48-36.66-119.78-32.72-164.61 12.1-49.32 49.32-49.32 129.56 0 178.88l5.44 5.45c-17.28 3.9-35.28 5.75-53.68 5.75H0v90.48h56.85c42.1 0 80.41-7.84 114.2-22.2L308.1 602.82l137.42-137.41c33.82 14.39 72.17 22.25 114.32 22.25h56.85v-90.48h-43.5ZM405.02 266.06c16.8-16.81 44.17-16.83 60.98 0 16.82 16.81 16.82 44.17 0 60.98l-26.16 26.16c-21.06-17.24-39.17-39.93-53.16-68.8l18.33-18.33ZM150.7 327.04c-16.82-16.81-16.82-44.17 0-60.98 16.8-16.82 44.17-16.81 60.97 0l18.34 18.34c-13.99 28.87-32.1 51.56-53.15 68.8l-26.16-26.16Zm157.65 157.65-65.47-65.47c28.07-25.78 50.24-57.85 65.48-94.7 15.24 36.85 37.4 68.92 65.47 94.7l-65.48 65.48Z"></path></svg>