<svg data-name="Layer 1" xmlns="http://www.w3.org/2000/svg" viewBox="0 0 612.62 202.02"><path d="M598.66 0 407.85 190.81v-19.1L579.56 0H565.6L407.85 157.75v-19.09L546.51 0h-13.96l-124.7 124.69V105.6L513.46 0H499.5l-91.64 91.64V72.55L480.41 0h-13.96l-58.59 58.59V39.5L447.35 0h-13.96l-25.54 25.54V0h-7.51l-25.55 25.55V0h-7.51l-25.54 25.54V0h-7.51l-25.54 25.54V0h-7.51l-25.54 25.54V0h-7.51l-25.54 25.54V0h-7.51l-25.54 25.54V0h-7.51L0 202.02h13.96l185.7-185.7v19.09L33.05 202.02h13.96L199.66 49.38v19.09L66.1 202.02h13.96L199.65 82.43v19.09L99.14 202.02h13.96l86.54-86.54v19.09l-67.45 67.45h13.96l53.49-53.49v19.09l-34.4 34.4h13.96l20.44-20.44v20.44h12.62l20.43-20.43v20.43h12.62l20.43-20.43v20.43h12.62l20.43-20.43v20.43h12.62l20.43-20.43v20.43h12.62l20.43-20.43v20.43h12.62l20.44-20.44v20.44h12.62L612.62 0h-13.96ZM397.98 134.57l-23.19 23.19v-19.09l23.19-23.19v19.09Zm-155.4 4.09 23.18-23.18v19.1l-23.18 23.18v-19.1Zm0-33.05 23.18-23.18v19.09l-23.18 23.18v-19.09Zm0-33.05 23.18-23.18v19.09l-23.18 23.18V72.56Zm122.33-4.08-23.18 23.18V72.57l23.18-23.18v19.09Zm0 33.05-23.18 23.18v-19.09l23.18-23.18v19.09Zm-89.28 4.08 23.18-23.18v19.1l-23.18 23.18v-19.1Zm33.05.01 23.18-23.18v19.09l-23.18 23.18v-19.09Zm23.18-37.14-23.18 23.18v-19.1l23.18-23.18v19.1Zm-33.05-.01-23.18 23.18V72.56l23.18-23.18v19.09Zm-23.18 70.21 23.18-23.18v19.09l-23.18 23.18v-19.09Zm33.05 0 23.18-23.18v19.09l-23.18 23.18v-19.09Zm33.05 0 23.18-23.18v19.09l-23.18 23.18v-19.09Zm56.24-37.15-23.19 23.19v-19.09l23.19-23.19v19.09Zm0-33.05-23.19 23.19V72.58l23.19-23.19v19.09Zm0-52.14v19.09l-23.19 23.19V39.53l23.19-23.19Zm-33.06 0v19.1l-23.18 23.18v-19.1l23.18-23.18Zm-33.05 0v19.09l-23.18 23.18V39.52l23.18-23.18Zm-33.05 0v19.09l-23.18 23.18V39.52l23.18-23.18Zm-33.05 0v19.09l-23.18 23.18V39.52l23.18-23.18Zm-56.23 23.18 23.18-23.18v19.09l-23.18 23.18V39.52Zm0 33.05 23.18-23.18v19.09l-23.18 23.18V72.57Zm0 33.05 23.18-23.18v19.09l-23.18 23.18v-19.09Zm0 33.05 23.18-23.18v19.09l-23.18 23.18v-19.09Zm0 52.15v-19.1l23.18-23.18v19.1l-23.18 23.18Zm33.05 0v-19.09l23.18-23.18v19.09l-23.18 23.18Zm33.05 0v-19.09l23.18-23.18v19.09l-23.18 23.18Zm33.05 0v-19.09l23.18-23.18v19.09l-23.18 23.18Zm33.05 0v-19.09l23.18-23.18v19.09l-23.18 23.18Zm33.05 0v-19.09l23.19-23.19v19.09l-23.19 23.19Z"></path></svg>