<svg data-name="Layer 1" xmlns="http://www.w3.org/2000/svg" viewBox="0 0 629.11 629.1"><path d="M471.21 73.72 314.6 230.33v176.23l156.61-156.61V73.72zM169.26 169.03v247.12l135.66 123.94V33.58L169.47 169.03h-.21zM159.58 416.24v-46.87l-46.87 46.87h46.87z"></path><path d="M314.55 0C141.11 0 0 141.11 0 314.55S141.11 629.1 314.55 629.1 629.1 487.99 629.1 314.55 488 0 314.55 0Zm0 620.32c-168.6 0-305.77-137.17-305.77-305.77S145.95 8.78 314.55 8.78s305.77 137.17 305.77 305.77-137.17 305.77-305.77 305.77Z"></path><path d="M314.6 538.78h85.35l122.62-122.63H314.6v122.63z"></path></svg>