<svg xmlns="http://www.w3.org/2000/svg" width="588.8" viewBox="0 0 588.8 412.9" height="412.9"><path d="M483.1 67.1L388.7 0l-94.3 67.1L200.1 0l-94.3 67.1L0 142.3v143.9h188.7v126.7h211.5V286.2h188.7V142.3L483.1 67.1zM188.7 263.4H22.8V154l82.9-59 82.9 59v109.4zM125.4 81.1L200.1 28l74.6 53.1-74.6 53.1-74.7-53.1zm157.6 22v98.7l-71.5 50.9V154l71.5-50.9zm94.3 287H211.5V280.7l82.9-59 82.9 59v109.4zm0-137.4l-71.5-50.9v-98.7l71.5 50.9v98.7zm11.4-118.5l-74.6-53.1L388.7 28l74.6 53.1-74.6 53.1zM566 263.4H400.1V154L483 95l82.9 59v109.4z"></path></svg>