<svg xmlns="http://www.w3.org/2000/svg" width="628.4" viewBox="0 0 628.4 628.6" height="628.6" xml:space="preserve" style="enable-background:new 0 0 628.4 628.6"><path d="M282.9 331.5c-35.3 35.8-54.8 56.9-81.9 76.1-12.3 8.7-31.1 10.8-51.9 11.3L0 419v-70.1s187.9.4 208.1 0c28.8-.6 58.1-4.1 74.8-17.4zM408.3 206.1l-45.6 46.3c-20.9 19.5-39.1 27-58.5 27H0v-70h355.7c25.9 0 43.4 1.1 52.6-3.3zM628.4 209.5v70H403.6c-22.6.8-42.5 5.5-57.1 17.2 0 0 8.4-9.2 15.5-15.9 6-5.6 46.7-47.6 46.7-47.6 12.5-11.8 27-21.7 47.5-23.7h172.2zM628.4 351.2V419l-356.2-.1c-11.2-.2-26.9 0-37.7 1.2-11.3 1.3-20.5 4.6-25.7 14.6 4.1-7.4 9.6-13.8 15.6-19.8 6.1-6 39.5-37.7 51.5-46.7s26.3-15.5 45.9-16.9h306.6zM209.5 0h69.4v200.5h-69.4z" class="st0"></path><path class="st0" d="M349.5 427.9h69.4v200.5h-69.4zM248.4 427.9c-17.3.4-31.1 3.1-36.7 16.9-1.9 4.5-2.3 10.2-2.2 16.2v167.6h69.4V427.9h-30.5zM348.8 0v200.5h31.4c16.7 0 24.5-1.1 31.3-8.9 4.7-5.5 6.7-13.8 6.7-26V0h-69.4z"></path></svg>