<svg data-name="Layer 1" xmlns="http://www.w3.org/2000/svg" viewBox="0 0 630.92 574.95"><path d="M96.55 123.4c0-33.18 23.93-61.17 56.71-70.13L76.42 36.96l-.03.09c-34.25-6.85-67.73 15.32-75 49.8-7.29 34.72 14.72 68.7 49.18 75.99 1.38.29 2.79.46 4.18.64l68.28 14.48c-16.25-13.37-26.48-32.86-26.48-54.55ZM197.43 193.75l73.3 15.55c.07.01.14.03.2.05 34.45 7.26 68.3-14.99 75.61-49.72 7.32-34.68-14.69-68.7-49.17-75.95-.92-.2-1.84-.29-2.77-.44l-65.66-13.92c12.58 10.56 21.49 24.75 24.7 40.81h-52.42c-4.86-9.6-14.71-15.67-25.47-15.68-15.83 0-28.66 12.97-28.66 28.94s12.83 28.96 28.66 28.96c10.73-.02 20.55-6.04 25.43-15.6l52.34.57c-5.67 27.15-27.61 48.94-56.08 56.41ZM302.32 332.22c25.83 0 48.72 11.47 63.16 29.14l-25.44-81.47-.08.04c-10.68-32.85-46.68-51.1-80.75-40.79-34.29 10.4-53.62 45.74-43.17 78.97.42 1.37.95 2.68 1.46 4.01l15.15 48.43c13.38-22.82 39.56-38.33 69.68-38.33ZM406.8 493.12c-.26-.89-.63-1.72-.96-2.58l-30.75-98.42h-47.28c-4.87-9.61-14.72-15.67-25.49-15.7-15.84 0-28.67 12.97-28.67 28.94s12.83 28.96 28.67 28.96c10.73-.01 20.54-6.03 25.42-15.59l52.34.56c-7.06 33.73-39.17 59.23-77.76 59.23-13.54.04-26.88-3.2-38.9-9.44l19.19 61.43c0 .07.03.13.06.19 10.41 33.22 46.65 51.76 80.95 41.36 34.27-10.39 53.62-45.74 43.17-78.95ZM610.5 17.58c-25.85-24.27-66.2-23.3-90.19 2.22-.65.68-1.2 1.42-1.79 2.13l-59.57 63.2h4.42l26.51 31.83 26.54-31.83h47.75v75.35l49.57-52.61s.09-.09.14-.13c23.94-25.51 22.46-65.87-3.4-90.17ZM516.43 145.77l-25.01 31.85-28.04-31.09v59.12h-46.99v-75.37l-50 53.01.11.06c-23.53 25.52-21.91 65.53 3.75 89.67 25.87 24.29 66.24 23.29 90.21-2.19.98-1.07 1.84-2.17 2.78-3.26l58.35-61.92h-5.16v-59.88Z"></path></svg>