<svg id="Layer_1" data-name="Layer 1" xmlns="http://www.w3.org/2000/svg" viewBox="0 0 625.12 625.12">   <defs>        </defs>   <path class="cls-1" d="M439.68,271.26l-107.8-78.32-18.68-13.57,20.31-14.75c12.63-9.17,29.72-9.17,42.35,0l61.28,44.53c16.21,11.77,37.07,15.08,56.12,8.89l104.25-33.87C548.52,75.6,439.4,0,312.56,0h0V178.9l-107.8,78.32-18.68,13.57-7.76-23.88c-4.82-14.84,.46-31.1,13.09-40.28l61.28-44.53c16.21-11.77,25.8-30.6,25.8-50.63V1.88C154.69,15.31,52.63,101.01,15.29,215.94l170.15,55.3,41.16,126.73,7.13,21.96h-25.1c-15.61,0-29.44-10.06-34.26-24.9l-23.4-72.05c-6.19-19.05-21.12-33.99-40.17-40.18L6.5,248.91c-4.25,20.55-6.5,41.84-6.5,63.65,0,103.95,50.79,195.99,128.85,252.81l105.14-144.69h133.24s23.09,.01,23.09,.01l-7.76,23.87c-4.82,14.84-18.66,24.89-34.26,24.89h-75.75c-20.03,0-38.85,9.58-50.63,25.79l-64.42,88.65c45.71,26.18,98.61,41.22,155.06,41.22,68.66,0,132.11-22.2,183.68-59.72l-105.12-144.7,41.18-126.72,7.14-21.96,20.31,14.76c12.63,9.17,17.91,25.43,13.08,40.28l-23.41,72.04c-6.19,19.05-2.89,39.91,8.89,56.12l64.43,88.69c62.9-57.18,102.39-139.65,102.39-231.35,0-33.72-5.4-66.16-15.28-96.58l-170.16,55.28Z"></path> </svg>