<svg data-name="Layer 1" xmlns="http://www.w3.org/2000/svg" viewBox="0 0 612.16 629.79"><path d="M437.31 448.57c-1.08 2.05-4.33 6.82-11.29 6.82H186.14c-6.95 0-10.21-4.77-11.29-6.82-1.07-2.03-3.11-7.31.63-12.96l113.63-156.58V119.46h-51.75v142.77l-104 143.32-.38.54c-13.61 19.8-15.12 45.31-3.93 66.57 11.19 21.26 33.06 34.47 57.08 34.47h239.89c24.03 0 45.9-13.21 57.08-34.47 11.19-21.26 9.68-46.77-3.93-66.57L374.78 262.23V119.46h-51.75v159.57l113.63 156.58c3.75 5.65 1.71 10.93.64 12.96Z"></path><path d="m334.54 18.99-5.89 51.44c129.7 11.47 231.76 120.65 231.76 253.28 0 140.24-114.09 254.34-254.33 254.34S51.75 463.94 51.75 323.7c0-107.4 66.95-199.4 161.28-236.63l-19.07-48.09C80.51 83.82 0 194.5 0 323.7c0 168.78 137.31 306.08 306.08 306.08S612.16 492.47 612.16 323.7c0-159.18-122.15-290.31-277.62-304.71Z"></path><circle cx="265.69" cy="48.43" r="48.43" transform="rotate(-45 265.68 48.431)"></circle></svg>