<svg data-name="Layer 1" xmlns="http://www.w3.org/2000/svg" viewBox="0 0 623.9 623.89"><path d="M178.06 623.89V244.04l184.14-72.01L148.86 88.6v535.29H0V0h623.9v25.91H443.08l3.6 2.62c2.81 2.04 5.6 4.08 8.26 6.31l168.97.33v25.92H479.49l1.61 2.28c1.46 2.06 2.83 4.17 4.17 6.31l138.64.67v25.92H498.55l1.53 4.12c.53 1.37 1.05 2.73 1.49 4.13l.16.51.69.5h121.49v25.91h-116.6l.17 1.6c.15 1.35.22 2.73.29 4.1l.2 3.56H623.9v25.91H507.26l-.08.63c-.34 2.76-.68 4.86-1.04 6.95l-.28 1.69h118.06v25.91H498.71l-.79 2.05c-.74 1.93-1.38 3.58-2.09 5.19l-.89 2.02h128.97v25.91H480.39l-2.36 2.24c-1.18 1.62-2.3 3.18-3.52 4.66l-1.95 2.36h151.35v25.91H444.14c-3.68 2.21-6.84 4.16-11.04 6.56l-4.72 2.7h195.53v25.91H407.07l-.45 2.61.59.2c5.18 1.79 10.41 3.92 15.54 6.31l201.18.14v25.91H462.21l2.67 2.5c2.16 2.05 4.27 4.16 6.33 6.32l152.72.45v25.91H491.65l1.31 2.19c1.24 2.08 2.44 4.19 3.59 6.32l.2.38.63.38h126.54v25.91H507.95l.58 1.87c.66 2.09 1.23 4.2 1.81 6.32l.14.54.7.54h112.75v25.91H515.08l.13 1.56c.17 2.1.32 4.2.4 6.31l.03.69.72.69h107.58v25.91H514.43l-.08.63c-.37 2.74-.71 4.84-1.09 6.94l-.3 1.7h110.97v25.91H505.81l-.18.47c-.97 2.59-1.81 4.7-2.69 6.79l-.86 2.01h121.85v25.91H488.37c-2.17 2.17-3.46 3.87-4.7 5.51l-2.88 3.76h143.14v25.91H455.4l-2.49 1.65c-2.41 1.77-4.65 3.41-6.92 4.99l-3.81 2.63h181.75v25.91H178.06Zm119.76-221.14c-34.11 0-61.85 27.75-61.85 61.86s27.74 61.86 61.85 61.86 61.85-27.75 61.85-61.86-27.74-61.86-61.85-61.86Z"></path></svg>