<svg xmlns="http://www.w3.org/2000/svg" width="619.1" viewBox="0 0 619.1 609.5" height="609.5"><path d="M488.1 454.6c-32-20.3-57.4-50.9-71-65.4-5.5-5.9-13.2-16.2-22.5-28.7-9.6-13.1-21-28.7-33.4-44.7-2.4-3.1-4.8-6.2-7.3-9.2-4.8 3.8-9.3 7.4-13.6 11-7.8 6.5-16.4 15.2-26.4 26.8l-.6.7c2.5 3.1 5 6.3 7.5 9.4 12.8 16.4 24.5 32.6 34.4 46 9.2 12.4 16.8 22.5 22.3 28.4 13.5 14.5 39 45.1 71 65.4 41.1 25.2 79.2 61.9 79.2 61.9l39.7-39.7c-.1 0-38.2-36.7-79.3-61.9M293.9 269.7c3.9-3.3 8-6.6 12.4-10.1-3.1-2.5-6.3-5-9.5-7.5-15.3-12-31.4-23.8-45.9-34.7-15-11.3-28.4-21.7-37.4-30.4-28.7-27.8-27.8-29.2-54.9-65.6-34.6-52.3-56.5-69.6-56.5-69.6L62.5 91.5s22 17.3 56.5 69.6c27.1 36.4 26.1 37.8 54.9 65.6 9.1 8.8 22.6 19.3 37.7 30.7 14.2 10.6 29.8 22.1 44.7 33.7 3.1 2.5 6.2 4.9 9.3 7.4l.1-.1c10.6-12.3 19.8-21.7 28.2-28.7M278.6 498.1c8.8-9.1 19.3-22.6 30.7-37.8 11-14.6 22.9-30.8 34.9-46.2 2.5-3.2 5-6.3 7.6-9.5l-.8-1.1c-1.6-2.2-3.2-4.4-4.9-6.7-8.6-11.7-18.3-24.9-28.8-38.3-2.5 3-5.1 6.1-7.6 9.3-11.9 14.9-23.8 30.9-34.9 45.8-13.4 17.9-25.8 34.2-35.8 44.6-27.8 28.7-29.2 27.8-65.6 54.9-52.3 34.6-69.6 56.5-69.6 56.5l39.7 39.7s17.3-21.9 69.6-56.5c36.3-26.9 37.7-26 65.5-54.7M436.3 506.4c-32-20.3-57.4-50.9-71-65.4-4.6-4.9-10.7-12.8-17.9-22.5-8.4 10.7-16.6 21.8-24.6 32.5-3.2 4.2-6.3 8.4-9.3 12.4l-.9 1.2c5.1 6.7 9.5 12.3 13 16 13.5 14.5 39 45.1 71 65.4 41.1 25.2 79.2 61.9 79.2 61.9l39.7-39.7c0 .1-38.1-36.5-79.2-61.8M174.9 394.4c10.3-10.6 23-27.4 36.7-45.8 10.8-14.5 22.3-29.9 33.8-44.3 2.5-3.1 5-6.1 7.4-9.1-10.6-8.3-21.5-16.4-32-24.3-4.2-3.2-8.4-6.3-12.4-9.3l-.2-.1c-2.4 3-4.9 6-7.3 9.2-11.5 14.7-22.9 30.2-33.5 44.3-12 16-23.1 30.3-32.2 39.8-27.8 28.7-29.2 27.8-65.6 54.9C17.3 444.2 0 466.1 0 466.1l39.7 39.7s17.3-21.9 69.6-56.5c36.4-27.1 37.8-26.1 65.6-54.9"></path><path d="M170.9 301.4c8.4-11.2 17-22.8 25.8-33.9-14.1-10.6-26.5-20.4-35-28.6-28.7-27.8-27.8-29.2-54.9-65.6-34.6-52.3-56.5-69.6-56.5-69.6l-39.7 39.7s21.9 17.3 56.5 69.6c27.1 36.4 26.2 37.8 54.9 65.6 9.7 9.4 24.6 20.8 41.2 33.3 2.5-3.5 5.1-7 7.7-10.5M274.6 405.2c10-13.4 20.4-27.3 31-40.5l.8-1c-2.5-3.1-5-6.3-7.5-9.4-1.4-1.7-2.8-3.5-4.3-5.2-9-10.9-21.7-22.5-35.8-34.1-3-2.5-6.1-4.9-9.2-7.4-10.3 12.9-20.6 26.6-30.4 39.8l-3.3 4.4-.1.2c3.1 2.5 6.1 5 9 7.5 11.8 10 22.3 19.9 30 29.3 3.1 3.7 6.1 7.4 9.1 11.2 2.5 3.2 5 6.4 7.5 9.5l3.2-4.3zM402.2 242c3.5 4.2 7 8.6 10.8 13.4l.1.1c6.6-5 12.1-9.4 15.8-12.8 14.5-13.5 45.1-39 65.4-71 25.2-41.1 61.9-79.2 61.9-79.2l-39.7-39.7s-36.7 38.1-61.9 79.2c-20.3 32-50.9 57.4-65.4 71-3.5 3.2-8.4 7.2-14.5 11.9 6.3 5.4 11.7 10.4 16.5 15.2 4.2 4.1 7.9 8.2 11 11.9M546.1 223.5c25.2-41.1 61.9-79.2 61.9-79.2l-39.7-39.7s-36.7 38.1-61.9 79.1c-20.3 32-50.9 57.4-65.4 71-4.8 4.5-12.4 10.3-21.7 17.3-12.5 9.3-28.2 20.6-44.7 33.2l-9.3 7.2c10.6 13.6 20.3 26.8 28.9 38.6 1.5 2.1 3 4.1 4.5 6.1 3.1-2.4 6.1-4.9 9.2-7.2 15.9-12.4 31.5-23.7 44.5-33.3 12.4-9.1 22.5-16.7 28.3-22.2 14.5-13.4 45.1-38.9 65.4-70.9M540 402.8c-32-20.3-57.4-50.9-71-65.4-3.6-3.8-8.1-9.5-13.4-16.5-2.2 1.6-4.4 3.2-6.7 4.9-11.5 8.4-24.4 18-37.6 28.2l-.1.1c7.3 9.9 13.5 17.9 18.2 22.9 13.5 14.5 39 45.1 71 65.4 41.1 25.2 79.2 61.9 79.2 61.9l39.7-39.7c-.2.1-38.2-36.6-79.3-61.8M442.5 119.9c25.2-41.1 61.9-79.2 61.9-79.2L464.7 1S428 39.1 402.8 80.2c-20.3 32-50.9 57.4-65.4 71-5.5 5.2-14.8 12.2-26.3 20.7-13.4 9.9-29.7 21.7-46.4 34.7-3.2 2.5-6.3 5-9.5 7.5 3.8 2.9 7.7 5.8 11.6 8.7 11 8.2 22.3 16.6 33.3 25.2l1 .8c3.2-2.5 6.4-5 9.6-7.4 17.2-13.1 33.5-24.9 46.3-34.4 8.6-6.4 15.6-11.9 20.1-16.1 14.5-13.6 45.1-39.1 65.4-71"></path><path d="M299.3 174c2.5-1.9 5-3.7 7.4-5.4-16.6-12.5-31.5-23.9-41.3-33.4-28.7-27.8-27.8-29.2-54.9-65.6C176 17.3 154 0 154 0l-39.7 39.7s22 17.3 56.5 69.6c27.1 36.4 26.1 37.8 54.9 65.6 8.4 8.2 20.7 17.8 34.6 28.3l1.1-.9c13.4-10.3 26.4-19.9 37.9-28.3M408.9 258.7c-3.5-4.4-7.1-8.9-10.8-13.3-7.3-8.8-16.9-18-27.7-27.3-3-2.6-6.1-5.1-9.2-7.7l-1.1.8c-4.6 3.4-9.6 7.1-15 11.1-9.2 6.8-19.6 14.4-30.2 22.5 3.2 2.5 6.3 5.1 9.4 7.6 13.4 11.2 25.4 22.3 34.1 32.7 1.9 2.3 3.8 4.6 5.6 6.9 2.5 3.1 4.9 6.1 7.3 9.2 11.1-8.5 21.9-16.4 31.5-23.4 4.7-3.5 9.1-6.7 13.2-9.8-2.2-3.1-4.6-6.2-7.1-9.3M350.6 302.5c3.1-2.5 6.2-4.9 9.3-7.2-1.9-2.3-3.7-4.6-5.5-6.7-2.9-3.5-6.4-7.3-10.4-11.3-6.3-6.3-13.9-13.1-23.1-20.8l-.9-.8c-3.2 2.4-6.3 4.9-9.5 7.4-4.4 3.5-8.9 7.1-13.2 10.7-8.9 7.4-18.2 17.1-27.6 28-2.5 2.9-5 6-7.6 9.1 10.2 8.4 18.5 15.9 25.4 22.8 4.2 4.2 7.9 8.2 11 12 1.2 1.5 2.4 2.9 3.6 4.4 2.6-3.1 5.2-6.2 7.7-9.2 9.2-10.7 18.3-20.2 27-27.4 4.7-3.8 9.2-7.4 13.8-11M226.7 446.3c9.6-9.9 21.2-25.1 33.9-42l-.9-1.1c-3.2-4-6.1-7.6-9-11.1-2.9-3.5-6.4-7.3-10.4-11.3-5.3-5.3-11.5-10.9-18.8-17.1-12.9 17.3-24.8 32.8-34.6 42.9-27.8 28.7-29.2 27.8-65.6 54.9C69.1 496 51.8 518 51.8 518l39.7 39.7s17.3-22 69.6-56.5c36.4-27.1 37.8-26.2 65.6-54.9"></path></svg>