<svg id="Layer_1" data-name="Layer 1" xmlns="http://www.w3.org/2000/svg" viewBox="0 0 614.15 614.15">   <polygon points="472.42 141.73 472.42 0 94.48 0 94.48 94.48 377.94 94.48 377.94 141.73 236.21 141.73 236.21 236.21 377.94 236.21 377.94 377.94 472.42 377.94 472.42 236.21 519.66 236.21 519.66 519.66 614.15 519.66 614.15 141.73 472.42 141.73"></polygon>   <polygon points="236.21 519.66 236.21 472.42 377.94 472.42 377.94 377.94 236.21 377.94 236.21 236.21 141.73 236.21 141.73 377.94 94.48 377.94 94.48 94.48 0 94.48 0 472.42 141.73 472.42 141.73 614.15 519.66 614.15 519.66 519.66 236.21 519.66"></polygon> </svg>