<svg xmlns="http://www.w3.org/2000/svg" width="619.7" viewBox="0 0 619.7 617.4" height="617.4" xml:space="preserve" style="enable-background:new 0 0 619.7 617.4"><path d="M0 292.2c0 179.3 145.9 325.1 325.1 325.1 115.4 0 223-62 282.6-162.9l-129-129-61.6 61.1c-25.3 25.3-58.9 39.2-94.8 39.2-35.8 0-69.5-13.9-94.8-39.2-25.3-25.3-39.2-58.9-39.2-94.7 0-35.8 13.9-69.5 39.2-94.8l63.9-62.2L164.9 8.2C60.3 72.4 0 178.4 0 292.2z"></path><path d="m188.5 0 134 135-78 78.8c-43 43-43 112.7 0 155.8 43 43 112.7 43 155.8 0l77.4-78.3 142.1 143.2V0H188.5z"></path></svg>