<svg xmlns="http://www.w3.org/2000/svg" width="593" viewBox="0 0 593 601.4" height="601.4" xml:space="preserve"><path d="M593 300.7C593 138.6 464.2 6.2 303.6.3 299.9.1 0 0 0 0v601.4h299.9v-.2C462.2 597.2 593 464 593 300.7zm-174.5-85.2c0 69.2-56.3 125.6-125.6 125.6h-203v-80.6h215.9c54.6 0 87.8-27 107.2-74.7 3.5 11.4 5.5 17 5.5 29.7zm-126-125.6c22.1 0 40.1 18.1 40.1 40.3s-18.1 40.3-40.3 40.3H89.9V89.9h202.6zm-.2 421.6H89.9v-80.6h216.5c99.6 0 170.1-61.2 194.7-153.1 1.4 9.7 2.1 12.8 2.1 22.9 0 116.3-94.6 210.8-210.9 210.8z"></path></svg>