<svg xmlns="http://www.w3.org/2000/svg" width="623.6" viewBox="0 0 623.6 521.1" height="521.1" xml:space="preserve" style="enable-background:new 0 0 623.6 521.1"><path d="m553.1 264-34 34c.2-1.3.3-2.6.5-3.8 5.7-59.9-6.2-120.5-38.2-171.8-32.7-52.5-83.8-92.1-142.9-110.5C274.3-8.1 204.3-2.7 144 27.3 90.3 54 46.5 100 22.2 154.9c-28.5 64.2-29.6 138-3 203.1C43 416.2 87.8 465.9 144.3 493.9c60.5 29.9 130.5 35.3 195 15.3 33.1-10.3 63-27.3 89.3-49.8 10.8-9.3 20.8-19.5 30.9-29.6 26.5-26.7 52.9-53.3 79.5-80 15.6-15.6 31.1-31.2 46.7-46.8 6.8-6.8 13.6-13.5 20.4-20.3 3-3 6.1-6 9.1-9 2.8-2.8 7.3-5.9 8.5-9.7h-70.6zm-91.2 52.9c-5.4 19.3-15.6 42.5-21.7 48.8-5-3.3-102.6-101.7-102.6-101.7h-73.5S387.4 386.3 405 405.2l3.7 3.5c-6.6 6-13.6 11.7-20.5 17.3-52.8 42.5-126.3 53.7-190.5 33.4-53.6-17-98.6-54.4-123.8-104.8-28.8-57.5-29.2-128.6-.8-186.4 27.4-55.8 78.3-97.1 139-111.3 62.2-14.6 129.1-.4 179.2 39.5 49.6 39.6 78.1 100.5 78.9 163.8.2 19.2-3.1 38.3-8.3 56.7-5.4 19.3 5.1-17.9 0 0z"></path></svg>