<svg xmlns="http://www.w3.org/2000/svg" width="642" viewBox="0 0 642 642" height="642" data-name="Layer 1"><path d="M321 0C143.74 0 0 143.74 0 321c0 140.15 89.94 259.43 215.2 303.15 28.76 10.02 59.45 16.05 91.29 17.46l56.24-90.01L477.2 368.44c17.72-28.31 27.99-61.76 27.99-97.58 0-29.02-6.68-56.5-18.68-80.89-2.18-4.43-4.49-8.8-7.06-12.97-26.84-45.33-72.55-78.07-126.35-87.5v-.64c114.21 15.66 202.23 113.63 202.23 232.15 0 108.95-74.28 200.5-175.01 226.75l-58.94 94.25c177.06-.19 320.61-143.87 320.61-321S498.26 0 321 0Zm97.52 270.86c0 1.28 0 2.63-.13 3.92-.64 17.46-5.97 33.77-14.7 47.7L262.77 548.01C161.53 522.14 86.67 430.33 86.67 321c0-118.51 88.02-216.48 202.23-232.08v.64c-86.41 15.09-152.09 90.52-152.09 181.3 0 96.69 74.6 176.04 169.36 183.55l61.12-97.84A96.294 96.294 0 0 1 321 368.38c-53.74 0-97.52-43.78-97.52-97.52s43.78-97.52 97.52-97.52 97.52 43.72 97.52 97.52Z" style="stroke-width:0"></path></svg>