<svg xmlns="http://www.w3.org/2000/svg" width="600" viewBox="0 0 600 279.76" height="279.76" style="overflow:visible;enable-background:new 0 0 600 279.76" xml:space="preserve"><path d="M410.1 223.02c-15.12 0-27.37-12.25-27.37-27.37v-.02c0-7.26 2.88-14.22 8.02-19.35a27.37 27.37 0 0 1 19.35-8.02h105.78a84.09 84.09 0 0 0 59.48-24.64A84.13 84.13 0 0 0 600 84.13v-.01a84.09 84.09 0 0 0-24.64-59.48A84.09 84.09 0 0 0 515.88 0H84.12a84.09 84.09 0 0 0-59.48 24.64A84.09 84.09 0 0 0 0 84.12v.01a84.09 84.09 0 0 0 24.64 59.48 84.107 84.107 0 0 0 59.48 24.64H189.9c7.26 0 14.22 2.88 19.35 8.02a27.37 27.37 0 0 1 8.02 19.35v.02c0 15.12-12.25 27.37-27.37 27.37H5.29v56.74h183.5c22.31 0 43.71-8.86 59.48-24.64s24.64-37.17 24.64-59.48v-.01c0-22.31-8.86-43.71-24.64-59.48s-37.17-24.64-59.48-24.64H82.06c-7.26 0-14.22-2.88-19.35-8.02a27.37 27.37 0 0 1-8.02-19.35v-.02c0-7.26 2.88-14.22 8.02-19.35a27.37 27.37 0 0 1 19.35-8.02h435.9c7.26 0 14.22 2.88 19.35 8.02a27.37 27.37 0 0 1 8.02 19.35v.02c0 7.26-2.88 14.22-8.02 19.35a27.388 27.388 0 0 1-19.35 8.02H411.22c-22.31 0-43.71 8.86-59.48 24.64s-24.64 37.17-24.64 59.48v.01c0 22.31 8.86 43.71 24.64 59.48s37.17 24.64 59.48 24.64h183.5v-56.74H410.1z" style="fill-rule:evenodd;clip-rule:evenodd"></path></svg>