<svg xmlns="http://www.w3.org/2000/svg" width="595.3" viewBox="0 0 595.3 595.3" height="595.3"><path d="M476.2 59.5L416.7 0l-119 119.1L178.6 0l-59.5 59.5 59.5 59.5-59.5 59.5L59.6 119 0 178.6l119.1 119.1L0 416.7l59.5 59.5 59.5-59.5 59.5 59.5-59.5 59.5 59.5 59.5 119.1-119.1 119.1 119.1 59.5-59.5-59.5-59.5 59.5-59.5 59.5 59.5 59.5-59.5-119-119 119.1-119.1-59.5-59.5-59.5 59.5-59.5-59.5 59.4-59.6zm-119 357.2l-59.5-59.5-59.5 59.5-59.5-59.5 59.5-59.5-59.5-59.5 59.5-59.5 59.5 59.5 59.5-59.5 59.5 59.5-59.5 59.5 59.5 59.5-59.5 59.5z"></path></svg>