<svg data-name="Layer 1" xmlns="http://www.w3.org/2000/svg" viewBox="0 0 601.28 595.1"><path d="M461.12 0c-10.42 0-20.54 1.23-30.32 3.4v-.12H105.08c-44.21 0-82.79 26.76-98.29 68.17-15.49 41.41-3.96 86.92 29.4 115.95l284.76 247.82v19.72c0 77.29 62.88 140.17 140.17 140.17s140.16-62.88 140.16-140.17V140.17C601.28 62.88 538.41 0 461.12 0Zm-398 156.45C38.46 134.99 37.7 105.9 45.21 85.83c7.51-20.07 27.18-41.52 59.87-41.52h254.05c-23.6 25.1-38.18 58.77-38.18 95.86v240.66L63.12 156.45Zm497.14 298.48c0 54.67-44.47 99.14-99.14 99.14s-99.15-44.47-99.15-99.14V140.17c0-54.67 44.48-99.14 99.15-99.14s99.14 44.47 99.14 99.14v314.76Z"></path><path d="M251.22 84.37c-18.6 0-33.73 15.13-33.73 33.73s15.14 33.73 33.73 33.73 33.73-15.13 33.73-33.73-15.14-33.73-33.73-33.73Zm0 46.76c-7.19 0-13.03-5.85-13.03-13.03s5.84-13.03 13.03-13.03 13.03 5.85 13.03 13.03-5.84 13.03-13.03 13.03Z"></path><path d="M251.22 58.11c-33.08 0-60 26.91-60 59.99s26.92 59.99 60 59.99 60-26.91 60-59.99-26.92-59.99-60-59.99Zm0 104.77c-24.69 0-44.77-20.09-44.77-44.77s20.09-44.77 44.77-44.77 44.77 20.09 44.77 44.77-20.09 44.77-44.77 44.77Z"></path></svg>