<svg xmlns="http://www.w3.org/2000/svg" width="590.7" viewBox="0 0 590.7 427.7" height="427.7"><path d="M366.9 208.1c-24.2-58.2-82.4-99.3-150.3-99.3-58.8 0-110.3 30.7-138.8 76.7H0v165.2h77.6l142.6-142.6h146.7z"></path><path d="M170.2 273.7L83.8 360c29.4 40.9 77.9 67.7 132.7 67.7 68.4 0 126.8-41.5 150.7-100.3H223.9l-53.7-53.7zM513.1 77L370.5 219.7H223.8C248 277.9 306.2 319 374.1 319c58.8 0 110.3-30.7 138.8-76.7h77.8V77h-77.6z"></path><path d="M420.5 154l86.3-86.3C477.5 26.8 429 0 374.1 0c-68.4 0-126.8 41.5-150.8 100.3h143.4l53.8 53.7z"></path></svg>