<svg xmlns="http://www.w3.org/2000/svg" width="588.4" viewBox="0 0 588.4 588.4" height="588.4" xml:space="preserve" style="enable-background:new 0 0 588.4 588.4"><path d="M489.8 0 360.4 97.5 226.9 0 98.6 97.5H0v99.4h98.6l128.3-97.5 133.5 97.5 129.4-97.5h98.6V0z"></path><path d="m360.4 228-133.5-97.5L98.6 228H0v99.4h98.6l128.3-97.5 133.5 97.5 129.4-97.5h98.6v-99.4h-98.6z"></path><path d="m360.4 358.5-133.5-97.6-128.3 97.6H0v99.4h98.6l128.3-97.5 133.5 97.5 129.4-97.5h98.6v-99.5h-98.6z"></path><path d="m360.4 489-133.5-97.6L98.6 489H0v99.4h98.6l128.3-97.6 133.5 97.6 129.4-97.6h98.6v-99.4h-98.6z"></path></svg>