<svg id="Layer_1" data-name="Layer 1" xmlns="http://www.w3.org/2000/svg" viewBox="0 0 620.88 618.18">   <defs>        </defs>   <polygon class="cls-1" points="600.31 361.42 596.77 361.46 620.88 271.72 617.34 271.72 593.22 361.5 589.67 361.53 564.18 456.43 567.72 456.43 559.37 487.51 562.91 487.5 571.26 456.43 574.79 456.43 574.81 456.43 600.33 361.42 600.31 361.42"></polygon>   <polygon class="cls-1" points="225.23 497.29 286.29 269.98 281.44 274.94 288.96 246.94 292.48 246.94 341.07 66.07 338.29 63.29 354.58 2.64 351.05 2.64 335.5 60.51 332.71 57.71 306.21 156.35 306.17 156.49 281.87 246.94 285.42 246.94 276.56 279.91 271.68 284.9 216.83 489.06 219.64 491.81 191.66 595.96 195.2 595.96 222.44 494.56 225.23 497.29"></polygon>   <polygon class="cls-1" points="241 512.75 356.77 81.77 353.99 78.99 373.66 5.75 370.13 5.75 351.2 76.2 348.4 73.41 301.79 246.94 305.34 246.94 304 251.91 299.12 256.89 232.6 504.51 235.41 507.27 209.8 602.6 213.33 602.6 238.21 510.01 241 512.75"></polygon>   <polygon class="cls-1" points="256.76 528.2 372.47 97.47 369.69 94.69 392.43 10.03 388.89 10.03 366.9 91.9 364.1 89.11 248.36 519.97 251.17 522.72 228.25 608.07 231.78 608.07 253.97 525.47 256.76 528.2"></polygon>   <polygon class="cls-1" points="272.53 543.66 320.69 364.35 317.16 364.39 318.13 360.77 322.95 355.95 388.17 113.17 385.39 110.39 410.88 15.48 407.35 15.48 382.6 107.6 379.8 104.81 264.13 535.42 266.94 538.18 246.98 612.45 250.96 612.45 269.74 540.92 272.53 543.66"></polygon>   <polygon class="cls-1" points="288.29 559.11 315.47 457.92 313.99 456.43 315.87 456.43 340.67 364.14 337.13 364.18 345.36 333.54 350.18 328.72 403.86 128.87 401.09 126.09 429.02 22.1 425.48 22.1 398.3 123.3 395.5 120.51 335.67 343.23 340.52 338.38 333.58 364.22 330.02 364.25 279.89 550.88 282.7 553.63 266.08 615.5 269.62 615.5 285.5 556.37 288.29 559.11"></polygon>   <polygon class="cls-1" points="415.46 456.43 440.53 363.1 436.99 363.13 514.67 73.97 511.13 73.97 476.79 201.8 474 199 471.83 207.07 476.68 202.22 433.44 363.17 429.89 363.21 404.85 456.43 408.39 456.43 366.48 612.45 370.02 612.45 411.93 456.43 415.46 456.43"></polygon>   <polygon class="cls-1" points="435.37 456.43 460.5 362.89 456.96 362.92 530.65 88.61 527.11 88.61 453.42 362.96 449.86 363 424.76 456.43 428.31 456.43 387.72 607.52 391.26 607.52 431.85 456.43 435.37 456.43"></polygon>   <polygon class="cls-1" points="455.29 456.43 480.47 362.68 476.94 362.71 546.16 105.01 542.63 105.01 473.39 362.75 469.83 362.79 444.68 456.43 448.23 456.43 409.45 600.78 412.99 600.78 451.76 456.43 455.29 456.43"></polygon>   <polygon class="cls-1" points="475.21 456.43 500.45 362.47 496.91 362.51 561.14 123.4 557.6 123.4 493.36 362.54 489.8 362.58 464.59 456.43 468.14 456.43 431.74 591.95 435.27 591.95 471.68 456.43 475.21 456.43"></polygon>   <polygon class="cls-1" points="495.12 456.43 520.42 362.26 516.88 362.3 575.48 144.16 571.94 144.16 513.33 362.33 509.78 362.37 484.51 456.43 488.06 456.43 454.7 580.61 458.23 580.65 491.6 456.43 495.12 456.43"></polygon>   <polygon class="cls-1" points="515.04 456.43 540.39 362.05 536.85 362.09 589.03 167.85 585.49 167.85 533.31 362.12 529.75 362.16 504.43 456.43 507.97 456.43 477.44 566.26 482.01 566.26 511.51 456.43 515.04 456.43"></polygon>   <polygon class="cls-1" points="534.95 456.43 560.36 361.84 556.83 361.88 601.54 195.42 598 195.42 553.28 361.92 549.72 361.95 524.34 456.43 527.89 456.43 503.36 547.77 506.65 547.96 531.43 456.43 534.95 456.43"></polygon>   <polygon class="cls-1" points="576.8 361.67 612.54 228.63 609 228.63 573.25 361.71 569.69 361.74 544.26 456.43 547.81 456.43 529.87 523.2 533.41 523.2 551.34 456.43 554.87 456.43 580.34 361.63 576.8 361.67"></polygon>   <polygon class="cls-1" points="33.57 246.94 57.87 156.49 54.34 156.49 61.08 131.42 57.54 131.42 50.81 156.49 47.72 156.49 32.16 212.7 22.68 246.94 22.96 246.94 26.51 246.94 0 345.62 3.54 345.62 30.04 246.94 33.57 246.94"></polygon>   <polygon class="cls-1" points="53.49 246.94 77.78 156.49 74.26 156.49 90.65 95.45 87.12 95.46 70.72 156.49 67.17 156.49 42.88 246.94 46.42 246.94 8.28 388.95 11.82 388.95 49.96 246.94 53.49 246.94"></polygon>   <polygon class="cls-1" points="73.4 246.94 97.7 156.49 94.18 156.49 117.2 70.76 113.67 70.76 90.64 156.49 87.09 156.49 62.79 246.94 66.34 246.94 19.24 422.27 22.78 422.27 69.88 246.94 73.4 246.94"></polygon>   <polygon class="cls-1" points="93.32 246.94 117.62 156.49 114.09 156.49 142.11 52.19 138.57 52.19 110.55 156.49 107.01 156.49 82.71 246.94 86.26 246.94 31.73 449.91 35.27 449.91 89.79 246.94 93.32 246.94"></polygon>   <polygon class="cls-1" points="113.24 246.94 137.53 156.49 134.01 156.49 165.91 37.74 162.37 37.74 130.47 156.49 126.92 156.49 102.63 246.94 106.17 246.94 45.27 473.66 48.81 473.66 109.71 246.94 113.24 246.94"></polygon>   <polygon class="cls-1" points="133.15 246.94 157.45 156.49 153.92 156.49 188.87 26.4 185.33 26.4 150.39 156.49 146.84 156.49 122.54 246.94 126.09 246.94 59.66 494.25 63.14 494.46 129.63 246.94 133.15 246.94"></polygon>   <polygon class="cls-1" points="153.07 246.94 177.37 156.49 173.84 156.49 211.17 17.54 207.63 17.53 170.3 156.49 166.76 156.49 142.46 246.94 146.01 246.94 74.57 512.89 78.1 512.89 149.54 246.94 153.07 246.94"></polygon>   <polygon class="cls-1" points="172.98 246.94 197.28 156.49 193.76 156.49 232.9 10.76 229.37 10.76 190.22 156.49 186.67 156.49 162.37 246.94 165.92 246.94 90.07 529.31 93.61 529.31 169.46 246.94 172.98 246.94"></polygon>   <polygon class="cls-1" points="146.41 420.02 149.1 409.99 144.24 414.95 189.37 246.94 192.9 246.94 217.2 156.49 213.67 156.49 254.15 5.8 250.61 5.8 210.14 156.49 206.59 156.49 182.29 246.94 185.84 246.94 106.05 543.98 109.58 543.98 143.62 417.28 146.41 420.02"></polygon>   <polygon class="cls-1" points="162.17 435.47 176.54 381.99 171.68 386.95 209.29 246.94 212.82 246.94 237.12 156.49 233.59 156.49 249 99.13 251.78 101.91 258.44 77.12 253.62 81.94 274.97 2.45 271.43 2.45 248.78 86.78 243.93 91.63 242.71 92.85 243.41 93.55 246.21 96.35 230.05 156.49 226.5 156.49 202.21 246.94 205.75 246.94 166.81 391.92 161.92 396.91 153.77 427.24 156.58 429.99 122.44 557.09 125.98 557.09 159.38 432.74 162.17 435.47"></polygon>   <polygon class="cls-1" points="177.94 450.93 203.98 353.99 199.12 358.94 229.21 246.94 232.73 246.94 257.03 156.49 253.51 156.49 264.7 114.83 267.47 117.61 285.67 49.89 280.85 54.71 295.39 .55 291.86 .55 276.01 59.54 271.16 64.39 259.11 109.25 261.91 112.04 249.97 156.49 246.42 156.49 222.12 246.94 225.67 246.94 194.25 363.92 189.36 368.9 169.54 442.69 172.35 445.45 139.22 568.75 142.76 568.75 175.15 448.19 177.94 450.93"></polygon>   <polygon class="cls-1" points="193.7 466.38 231.42 325.98 226.56 330.94 249.12 246.94 252.65 246.94 276.95 156.49 273.42 156.49 280.39 130.53 283.17 133.31 309.67 34.67 306.89 31.9 315.46 0 311.92 0 303.24 32.31 298.39 37.16 274.81 124.95 277.61 127.74 269.89 156.49 266.34 156.49 242.04 246.94 245.59 246.94 221.69 335.91 216.8 340.9 185.3 458.15 188.11 460.9 156.37 579.08 159.9 579.08 190.91 463.65 193.7 466.38"></polygon>   <polygon class="cls-1" points="209.47 481.84 258.86 297.98 254 302.94 269.04 246.94 272.57 246.94 296.86 156.49 293.34 156.49 296.09 146.23 298.87 149.01 325.37 50.37 322.59 47.59 335.17 .76 332.34 .76 319.8 44.81 317.01 42.01 290.51 140.65 293.31 143.44 289.8 156.49 286.25 156.49 261.96 246.94 265.5 246.94 249.13 307.91 244.24 312.9 201.07 473.6 203.88 476.36 173.85 588.13 177.39 588.13 206.68 479.1 209.47 481.84"></polygon>   <polygon class="cls-1" points="344.09 486.54 352.18 456.43 355.71 456.43 380.61 363.72 377.07 363.76 399.82 279.08 404.64 274.26 435.26 160.27 432.48 157.49 464.33 38.94 460.79 38.94 429.7 154.7 426.9 151.9 390.13 288.77 394.99 283.92 373.53 363.8 369.97 363.83 345.1 456.43 348.64 456.43 341.31 483.75 338.51 480.95 311.42 581.79 314.23 584.54 305.19 618.18 308.73 618.17 318.99 580 323.81 575.18 346.87 489.32 344.09 486.54"></polygon>   <polygon class="cls-1" points="328.39 470.84 332.26 456.43 335.7 456.43 360.55 363.93 357.1 363.97 372.59 306.31 377.29 301.61 419.49 144.5 416.78 141.79 446.84 29.91 443.3 29.91 414 139 411.13 136.13 362.78 316.12 367.75 311.15 353.56 364.01 349.91 364.04 325.09 456.43 328.73 456.43 325.61 468.05 322.74 465.18 295.59 566.26 298.47 569.08 285.48 617.44 289.01 617.44 301.27 571.83 303.98 574.49 331.1 473.54 328.39 470.84"></polygon>   <polygon class="cls-1" points="351.04 547.95 362.57 505.01 359.79 502.24 372.1 456.43 375.62 456.43 400.58 363.51 397.05 363.55 427.05 251.85 431.87 247.03 450.96 175.97 448.18 173.19 481.48 49.25 477.94 49.25 445.4 170.4 442.6 167.6 417.37 261.54 422.22 256.68 393.5 363.59 389.94 363.63 365.01 456.43 368.56 456.43 357 499.45 354.21 496.65 336.53 562.45 341.38 557.6 325.25 617.64 328.79 617.64 346.22 552.77 351.04 547.95"></polygon>   <polygon class="cls-1" points="378.27 520.71 375.49 517.93 392.01 456.43 395.54 456.43 420.56 363.3 417.02 363.34 454.28 224.62 459.11 219.8 466.66 191.67 463.88 188.89 498.27 60.89 494.73 60.89 461.09 186.1 458.3 183.3 444.6 234.3 449.45 229.45 413.47 363.38 409.92 363.42 384.93 456.43 388.48 456.43 372.7 515.15 369.91 512.35 363.76 535.22 368.61 530.37 345.67 615.78 349.21 615.78 373.45 525.54 378.27 520.71"></polygon>   <polygon class="cls-1" points="597.07 421.33 600.61 421.33 618.99 352.88 615.46 352.88 597.07 421.33"></polygon>   <polygon class="cls-1" points="24.43 193.72 20.89 193.72 2.5 262.17 6.04 262.17 24.43 193.72"></polygon> </svg>