<svg id="Layer_1" data-name="Layer 1" xmlns="http://www.w3.org/2000/svg" viewBox="0 0 623.03 592.76">   <path d="M311.52,0C139.47,0,0,139.47,0,311.52c0,74.47,26.16,142.8,69.76,196.4,29.02,35.68,65.75,64.81,107.68,84.84L311.52,200.37l134.08,392.38c41.94-20.03,78.67-49.17,107.68-84.84,43.59-53.59,69.76-121.93,69.76-196.4C623.03,139.47,483.56,0,311.52,0Zm0,110.9L126.68,414.44c-17-30.47-26.73-65.55-26.73-102.92,0-116.84,94.72-211.57,211.57-211.57s211.57,94.72,211.57,211.57c0,37.37-9.73,72.45-26.73,102.92L311.52,110.9Z"></path> </svg>