<svg data-name="Layer 1" xmlns="http://www.w3.org/2000/svg" viewBox="0 0 610.62 610.62"><path d="M542.52 113.16 594.8 0H15.97L70.5 110.2C26.49 163.11 0 231.11 0 305.31c0 168.62 136.69 305.31 305.31 305.31s305.31-136.69 305.31-305.31c0-72.83-25.54-139.67-68.1-192.14ZM582.73 5.81l-71.42 68.38a155.016 155.016 0 0 0-25.05-21.96l96.47-46.42ZM398.2 101.17c41.07 0 74.51 32.29 76.56 72.85-15.85 7.92-33.64 12.49-52.53 12.49-37.16 0-70.32-17.3-91.98-44.23 12.84-24.43 38.43-41.12 67.95-41.12Zm-117.68 41.12c-21.66 26.93-54.82 44.23-91.98 44.23-18.88 0-36.68-4.57-52.53-12.49 2.05-40.57 35.49-72.85 76.56-72.85 29.52 0 55.11 16.68 67.95 41.12ZM28.04 5.81l96.46 46.43C115.38 58.65 106.97 66 99.45 74.2L28.04 5.81Zm184.53 303.24c-72.3 0-131.12-58.82-131.12-131.12 0-33.94 13.07-64.81 34.31-88.12 9.4-10.32 20.37-19.17 32.61-26.08l31.07 14.95c-17.35 5.81-32.65 16.05-44.63 29.37-16.69 18.56-26.95 43.01-26.95 69.88 0 57.74 46.97 104.71 104.71 104.71 13.1 0 25.59-2.52 37.16-6.94l16.96 21.52c-16.52 7.53-34.81 11.83-54.12 11.83Zm0-54.36c-32.05 0-59.47-19.65-70.97-47.55 14.75 5 30.52 7.76 46.94 7.76 38.95 0 74.36-15.31 100.63-40.2.04 1.08.16 2.14.16 3.23 0 42.39-34.37 76.76-76.76 76.76Zm92.74 61.58-37.17-47.16h74.35l-37.17 47.16Zm16.14-138.34c0-1.09.12-2.15.16-3.23 26.26 24.88 61.68 40.2 100.63 40.2 16.42 0 32.19-2.76 46.94-7.76-11.49 27.9-38.92 47.55-70.97 47.55-42.39 0-76.76-34.37-76.76-76.76Zm76.76 131.12c-19.31 0-37.6-4.3-54.12-11.83l16.96-21.52c11.57 4.41 24.06 6.94 37.16 6.94 57.73 0 104.71-46.97 104.71-104.71 0-26.87-10.26-51.32-26.95-69.88-11.98-13.32-27.27-23.56-44.63-29.37l31.07-14.95c12.24 6.91 23.2 15.76 32.61 26.08 21.24 23.31 34.31 54.18 34.31 88.12 0 72.3-58.82 131.12-131.12 131.12Z"></path></svg>