<svg xmlns="http://www.w3.org/2000/svg" width="494.8" viewBox="0 0 494.8 605.9" height="605.9" style="enable-background:new 0 0 494.8 605.9" xml:space="preserve"><path d="m105 194.2 33.5 33.5h217.7l33.6-33.5zM66.3 133.1h362.2c2.6-11 3.5-22.3 2.7-33.5H63.6c-.8 11.2 0 22.5 2.7 33.5zM406.2 38.5c-2-2.4-4.1-4.7-6.3-6.9-42.1-42.1-110.4-42.1-152.5 0l-.1.1-.1-.1c-42.1-42.1-110.4-42.1-152.5 0-2.2 2.2-4.3 4.5-6.3 6.9h317.8zM199.7 288.8l47.7 47.7 47.8-47.7zM78.7 52.2C72.4 62.7 68 74.1 65.6 85.8h363.6c-2.4-11.7-6.8-23-13.1-33.5H78.7zM308.9 275l33.6-33.5H152.3l33.6 33.5zM70.6 146.8c4.7 12.1 11.6 23.5 20.8 33.5h312c9.2-10.1 16.1-21.5 20.8-33.5H70.6z"></path><g><path d="M463.8 206.1c-53.1 11.5-101.5 41.1-136.2 83.3-35.2 42.8-54.7 97-55 152.5v164h50.9V461.7c45.2-14 85.8-41.2 116.1-78 35.2-42.8 54.7-97 55-152.5l.2-31.7-31 6.6zm-63.5 145.3c-19.7 24-44.9 42.8-73.2 54.9 6.1-30.9 19.7-60 39.8-84.5 19.7-24 45-42.8 73.2-54.9-6.1 30.8-19.7 60-39.8 84.5zM0 199.5l.2 31.7c.3 55.5 19.8 109.7 55 152.5 30.3 36.9 70.9 64.1 116.1 78V606h50.9V442c-.3-55.5-19.8-109.7-55-152.5-34.7-42.2-83-71.8-136.2-83.3l-31-6.7zm54.6 67.3c28.2 12.1 53.5 30.9 73.2 54.9 20.1 24.5 33.7 53.7 39.8 84.5-28.2-12.1-53.5-30.9-73.2-54.9-20-24.4-33.7-53.6-39.8-84.5z"></path></g></svg>