<svg data-name="Layer 1" xmlns="http://www.w3.org/2000/svg" viewBox="0 0 624.6 521.79"><path d="M312.3 0C14.9 3.67-84.95 341.68 77.5 521.79h195.15c-87.69-137.21-74.36-326.25 34.12-448.76 1.85-2.16 3.63-4.35 5.53-6.47 1.9 2.12 3.69 4.32 5.53 6.47 108.48 122.51 121.82 311.55 34.12 448.76H547.1C709.55 341.68 609.7 3.67 312.3 0ZM183.12 507.34c-147.76-85.21-142.62-316 10.19-397.28.56-.31 1.19.32.88.88-66.61 118.72-70.88 274.04-11.07 396.41Zm258.36 0c59.81-122.37 55.54-277.7-11.07-396.41-.31-.56.31-1.18.88-.88 152.81 81.28 157.95 312.08 10.19 397.29Z"></path></svg>