<svg xmlns="http://www.w3.org/2000/svg" width="580.9" viewBox="0 0 580.9 522.1" height="522.1" xml:space="preserve"><path d="M458.1 33.5c-49.3 0-89.4 40.1-89.4 89.4s40.1 89.4 89.4 89.4 89.4-40.1 89.4-89.4-40.1-89.4-89.4-89.4zm74 81.8h-19c-1.4-21.8-9.3-42.5-22.7-59.4 22.7 11.1 39 33.2 41.7 59.4zm-81.9-63h.4v63.1h-32.3c1.7-24.5 13-47.1 31.9-63.1zm.4 78.1V192c-18.7-15.7-30.1-37.6-32.3-61.6h32.3zm15 61.6v-61.6h32.3c-2.2 24-13.6 45.9-32.3 61.6zm0-76.7v-63h.4c18.8 16 30.2 38.6 31.9 63.1h-32.3zM425.8 56c-13.4 16.9-21.4 37.5-22.7 59.4h-19c2.6-26.3 19-48.4 41.7-59.4zm-41.7 74.4h19.1c1.7 22.6 10.5 43.6 25 60.6-24-10.6-41.4-33.5-44.1-60.6zM487.9 191c14.5-17 23.3-38 25-60.6H532c-2.7 27.1-20.1 50-44.1 60.6z"></path><path d="M153.1 0 0 94.2h182.1v245.7h245.8v182.2l153-94.2V245.7H335.2V0z"></path></svg>