<svg id="a" data-name="Layer 1" xmlns="http://www.w3.org/2000/svg" width="642" viewBox="0 0 642 518.42" height="518.42">
  <path d="M642,321c0,19.97-16.18,36.14-36.14,36.08-19.9,0-36.08-16.12-36.08-36.08,0-137.39-111.39-248.77-248.77-248.77s-248.77,111.39-248.77,248.77c0,19.97-16.18,36.08-36.14,36.08S0,340.97,0,321C0,143.74,143.74,0,321,0s321,143.74,321,321Z"></path>
  <circle cx="321" cy="321" r="70.62"></circle>
  <path d="M357.08,482.27c.06,19.97-16.11,36.14-36.08,36.14-109.01,0-197.41-88.4-197.41-197.42s88.4-197.41,197.41-197.41c19.97,0,36.14,16.18,36.08,36.14,0,19.9-16.11,36.08-36.08,36.08-69.14,0-125.19,56.05-125.19,125.19s56.05,125.19,125.19,125.19c19.97,0,36.08,16.18,36.08,36.08Z"></path>
</svg>