<svg id="Layer_1" data-name="Layer 1" xmlns="http://www.w3.org/2000/svg" viewBox="0 0 625.67 625.67">
  <path d="M566.5,336.27l58.2,.05c.58-7.76,.97-15.58,.97-23.49s-.39-15.73-.97-23.49l-58.2,.05c-29.8,.03-37.99-40.96-10.46-52.38l53.83-22.34c-4.89-14.81-10.85-29.12-17.8-42.85l-53.81,22.33c-27.52,11.42-50.76-23.31-29.7-44.39l41.14-41.17c-10.12-11.73-21.09-22.69-32.83-32.8l-41.14,41.17c-21.06,21.08-55.82-2.13-44.42-29.66l22.28-53.84c-13.74-6.94-28.06-12.89-42.87-17.77l-22.29,53.85c-11.4,27.53-52.39,19.38-52.39-10.41V.95c-7.67-.56-15.39-.95-23.2-.95s-15.53,.38-23.2,.95V59.15c0,29.8-40.99,37.95-52.39,10.41l-22.29-53.85c-14.81,4.88-29.13,10.83-42.87,17.77l22.28,53.84c11.4,27.53-23.36,50.74-44.42,29.66l-41.14-41.17c-11.74,10.11-22.71,21.07-32.83,32.8l41.14,41.17c21.06,21.08-2.18,55.82-29.7,44.39l-53.81-22.33c-6.95,13.73-12.91,28.04-17.81,42.85l53.83,22.34c27.52,11.42,19.34,52.41-10.46,52.38l-58.2-.05c-.58,7.76-.97,15.58-.97,23.49s.39,15.73,.97,23.49l58.2-.05c29.8-.03,37.99,40.96,10.46,52.38l-53.83,22.34c4.89,14.81,10.86,29.12,17.81,42.85l53.81-22.33c27.52-11.42,50.76,23.31,29.7,44.39l-41.14,41.17c10.12,11.73,21.09,22.69,32.83,32.8l41.14-41.17c21.06-21.08,55.82,2.13,44.42,29.66l-22.28,53.84c13.74,6.94,28.06,12.89,42.87,17.77l22.29-53.85c11.4-27.53,52.39-19.38,52.39,10.41v58.2c7.67,.56,15.39,.95,23.2,.95s15.53-.38,23.2-.95v-58.2c0-29.8,40.99-37.95,52.39-10.41l22.29,53.85c14.81-4.88,29.13-10.83,42.87-17.77l-22.28-53.84c-11.4-27.53,23.36-50.74,44.42-29.66l41.14,41.17c11.74-10.11,22.7-21.07,32.83-32.8l-41.14-41.17c-21.06-21.08,2.18-55.82,29.7-44.39l53.81,22.33c6.95-13.73,12.91-28.04,17.8-42.85l-53.83-22.34c-27.52-11.42-19.34-52.41,10.46-52.38Zm-111.1,44.93c0,12.03-6.39,23.16-16.79,29.23l-108.72,63.42c-10.54,6.15-23.56,6.15-34.1,0l-108.72-63.42c-10.4-6.06-16.79-17.19-16.79-29.23V204.31c0-26.2,21.43-47.63,47.63-47.63s47.63,21.43,47.63,47.63v16.01h94.59v-16.01c0-26.2,21.43-47.63,47.63-47.63s47.63,21.43,47.63,47.63v176.9Z"></path>
  <circle cx="312.83" cy="379.76" r="36.16"></circle>
  <circle cx="376.33" cy="290.67" r="36.16"></circle>
  <circle cx="249.33" cy="290.67" r="36.16" transform="translate(-60.11 65.06) rotate(-13.28)"></circle>
</svg>