<svg xmlns="http://www.w3.org/2000/svg" width="538.7" viewBox="0 0 538.7 609.5" height="609.5"><path d="M12.5 349.1c-.1-8.4-.4-198.2-.4-198.2L235.1 22l39.2 22.2-221 128.1s.2 161 0 176.1c-.1 4.1-1.7 8-4.2 11.1-4.5 5.6-10.5 8.7-17.8 8.3-10-.5-18.7-8-18.8-18.7m36.9 27.6l250.4-145.4V29.8l-13.5 7.3-39.4-22.2V0L0 143.1v210.4c0 10.3 8.3 19.5 17.3 24 8.8 4.3 23.1 3.8 32.1-.8M486.8 427.7l-.4-255.4s-139.6-80.4-152.5-88c-3.5-2.1-6-5.4-7.5-9.2-2.6-6.7-2.3-13.4 1.7-19.6 5.4-8.4 16.2-12.1 25.5-6.8 7.3 4.1 171.8 98.8 171.8 98.8l.1 257.5-38.7 22.7zm51.5-286.9S367.2 42 356.1 35.6c-8.9-5.2-21-2.6-29.4 3-8.3 5.4-15 18.1-15.5 28.2v289.1l175.2 101.2.4-15.3 39-23.1 12.9 7.5-.4-285.4zM441.5 495.7C434.2 500 270 595.1 270 595.1L46.9 466.5l-.4-45L268 548.8s139.4-80.7 152.5-88c3.6-2 7.7-2.5 11.7-1.9 7.1 1.1 12.8 4.8 16.1 11.2 4.6 8.9 2.4 20.1-6.8 25.6m5.4-45.8L195.8 305.7 21.3 406.5l13.1 8 .5 45.3-12.9 7.4 247.4 142.3s171.1-98.8 182.2-105.2c8.9-5.2 12.7-16.9 12.1-27-.7-9.8-8.3-21.9-16.8-27.4"></path></svg>