<svg xmlns="http://www.w3.org/2000/svg" width="524.2" viewBox="0 0 524.2 611" height="611" xml:space="preserve"><path d="m509 404.7-92.2-93.9c-2.8-2.9-4.3-6.7-4.3-10.8V107c0-2.3.4-4.6 1.1-6.9 2-6.2 5.3-18.4 5.3-30.1 0-10.2-2.5-18.9-4.6-24.3-1.1-3-1.7-5.9-1.7-8.7V0h-39.9v36.9c0 3.3.7 6.7 2 10.1 2 5.2 4.4 13.3 4.4 22.9 0 11.1-3.2 22.9-5.1 28.9-.8 2.6-1.2 5.3-1.2 8.1v193c0 14.5 5.5 28.2 15.6 38.6l92.2 93.9c6.2 6.5 3.4 14.7 2.4 17.1-1 2.4-5.1 10.2-14.4 10.2h-120l-37-37.7c-2.8-2.9-4.3-6.7-4.3-10.8v-29.3l42.6-43.4c10-10.4 15.6-24.1 15.6-38.6l.1-193c0-2.7-.4-5.4-1.2-8.1-1.9-6-5.1-17.8-5.1-28.9 0-9.6 2.4-17.8 4.4-22.9 1.3-3.4 2-6.8 2-10.1V0h-39.9v36.9c0 2.8-.6 5.8-1.7 8.7-2.1 5.5-4.6 14.1-4.6 24.3 0 11.6 3.3 23.9 5.3 30.1.7 2.2 1.1 4.5 1.1 6.9v193c0 4.1-1.5 8-4.3 10.8L307.5 325V218.1c0-2.3.4-4.6 1.1-6.9 2-6.2 5.3-18.4 5.3-30.1 0-10.2-2.5-18.9-4.6-24.3-1.1-3-1.7-5.9-1.7-8.7v-36.9h-39.9v36.9c0 3.3.7 6.7 2 10.1 2 5.2 4.4 13.3 4.4 22.9 0 11.1-3.2 22.9-5.1 28.9-.8 2.6-1.2 5.3-1.2 8.1v193c0 14.5 5.5 28.2 15.6 38.6l92.2 93.9c6.2 6.5 3.4 14.7 2.4 17.1-1 2.4-5.1 10.2-14.4 10.2H164.2c-9.3 0-13.4-7.8-14.4-10.2-1-2.4-3.8-10.6 2.4-17.1l92.2-93.9c10-10.4 15.6-24.1 15.6-38.6l.1-193c0-2.7-.4-5.4-1.2-8.1-1.9-6-5.1-17.8-5.1-28.9 0-9.6 2.4-17.8 4.4-22.9 1.3-3.4 2-6.8 2-10.1v-36.9h-39.9v36.9c0 2.8-.6 5.8-1.7 8.7-2.1 5.5-4.6 14.1-4.6 24.3 0 11.6 3.3 23.9 5.3 30.1.7 2.2 1.1 4.5 1.1 6.9V328l-17-17.3c-2.8-2.9-4.3-6.7-4.3-10.8v-193c0-2.3.4-4.6 1.1-6.9 2-6.2 5.3-18.4 5.3-30.1 0-10.2-2.5-18.9-4.6-24.3-1.1-3-1.7-5.9-1.7-8.7V0h-39.9v36.9c0 3.3.7 6.7 2 10.1 2 5.2 4.4 13.3 4.4 22.9 0 11.1-3.2 22.9-5.1 28.9-.8 2.6-1.2 5.3-1.2 8.1v193c0 14.5 5.5 28.2 15.6 38.6l45.6 46.5v26.3c0 4.1-1.5 8-4.3 10.8l-37 37.7H55.8c-9.3 0-13.4-7.8-14.4-10.2-1-2.4-3.8-10.6 2.4-17.1l92.2-93.9c10-10.4 15.6-24.1 15.6-38.6l.1-193c0-2.7-.4-5.4-1.2-8.1-1.9-6-5.1-17.8-5.1-28.9 0-9.6 2.4-17.8 4.4-22.9 1.3-3.4 2-6.8 2-10.1V0h-39.9v36.9c0 2.8-.6 5.8-1.7 8.7-2.1 5.5-4.6 14.1-4.6 24.3 0 11.6 3.3 23.9 5.3 30.1.7 2.2 1.1 4.5 1.1 6.9v193c0 4.1-1.5 8-4.3 10.8l-92.2 93.9C-.2 420.8-4.3 444 4.7 465.2c9 21.3 28.6 34.5 51.1 34.5h83.8l-16 16.3c-15.5 16.1-19.5 39.3-10.5 60.5 9 21.3 28.6 34.5 51.1 34.5H363c22.5 0 42-13.2 51.1-34.5 9-21.2 5-44.4-10.5-60.5l-16-16.3h80.9c22.5 0 42-13.2 51.1-34.5 8.9-21.2 4.9-44.4-10.6-60.5z"></path></svg>