<svg xmlns="http://www.w3.org/2000/svg" width="600.3" viewBox="0 0 600.3 517.3" height="517.3" xml:space="preserve"><path d="M552.6 219.4c-32-34.3-75.3-53.1-122-53.1-35.6 0-55.7 8.7-78.6 24.9V0h-98.6v341.9c-1 44.2-36.3 78.8-80.3 78.8-42.3 0-75.5-34.1-75.5-77.5V181.5H0V343c-.9 46 16.9 91 48.7 123.5 32.1 32.7 76.2 50.7 124.3 50.7 46.9 0 91-18 124.1-50.7 30.1-29.6 48.6-65.4 53.4-103.5.6-5 1.1-10.1 1.6-15 .6-6.1 1.1-12.4 2-18.4 5.8-38.7 37-66.8 74.3-66.8 42.9 0 75.2 32.3 75.2 75.2v166.9h96.6V338c.1-44.8-16-84.7-47.6-118.6z"></path></svg>