<svg data-name="Layer 1" xmlns="http://www.w3.org/2000/svg" viewBox="0 0 613.79 613.79"><path d="M306.9 0C137.68 0 0 137.67 0 306.9s137.68 306.9 306.9 306.9 306.9-137.68 306.9-306.9S476.12 0 306.9 0Zm-71.62 11.82c6.28 18.24 9.77 37.76 9.77 58.11 0 98.81-80.38 179.19-179.19 179.19-19.27 0-37.8-3.16-55.2-8.81C35.91 127.91 123.6 38.93 235.28 11.82ZM6.15 348.65c19.27 4.13 39.22 6.4 59.71 6.4 157.22 0 285.13-127.9 285.13-285.12 0-22.17-2.66-43.71-7.47-64.43 67.94 8.21 129.03 38.9 175.58 84.44-158.36 47.87-274.05 195.02-274.05 368.8 0 53.29 10.95 104.04 30.6 150.24C136.62 594.7 25.16 486.23 6.15 348.65Zm382.9 250.55c-24.14-41.3-38.07-89.27-38.07-140.46 0-138.31 101.05-253.39 233.18-275.47 16.92 37.8 26.41 79.62 26.41 123.64 0 138.98-93.88 256.37-221.53 292.3Z"></path></svg>