<svg data-name="Layer 1" xmlns="http://www.w3.org/2000/svg" viewBox="0 0 627.32 590.02"><path d="M544.56 590.02V153.49c0-37.02-30.12-67.13-67.13-67.13s-67.13 30.12-67.13 67.13v292.73c0 53.98-43.91 97.89-97.89 97.89s-97.89-43.91-97.89-97.89V153.49c0-37.02-30.12-67.13-67.13-67.13s-67.13 30.12-67.13 67.13v436.53h52.01V148.64c0-9.03 7.35-16.38 16.38-16.38s16.38 7.35 16.38 16.38v292.73c0 81.96 66.68 148.64 148.64 148.64s148.64-66.68 148.64-148.64V148.64c0-9.03 7.35-16.38 16.38-16.38s16.38 7.35 16.38 16.38v441.37h49.5Z"></path><path d="M478.68 0c-81.96 0-148.64 66.68-148.64 148.64v292.73c0 9.03-7.35 16.38-16.38 16.38s-16.38-7.35-16.38-16.38V148.64C297.28 66.68 230.6 0 148.64 0S0 66.68 0 148.64v441.37h49.5V153.49c0-53.98 43.91-97.89 97.89-97.89s97.89 43.91 97.89 97.89v292.73c0 37.02 30.12 67.13 67.13 67.13s67.13-30.12 67.13-67.13V153.49c0-53.98 43.91-97.89 97.89-97.89s97.89 43.91 97.89 97.89v436.53h52V148.64C627.32 66.68 560.64 0 478.68 0Z"></path></svg>