<svg xmlns="http://www.w3.org/2000/svg" width="541.4" viewBox="0 0 541.4 622.5" height="622.5" xml:space="preserve" style="enable-background:new 0 0 541.4 622.5"><path d="M524.3 0v190.2h-26.5V0h-28.6v190.2h-26.4V0h-42.4v190.2H374V0h-60.7v190.2H228V0h-17.2v233.8h-26.5V0h-28.6v288.8h-26.4V0H87v357.5H60.7V0H0v622.5h60.7V418.2H87v204.3h42.4V418.2h26.4v204.3h28.6V418.2h26.5v204.3H228V418.2h85.5v204.3h60.7V331.2h26.4v291.4H443V262.5h26.4v360.1H498V207.4h26.5v415.2h17.2V0h-17.4zM400.5 207.4v26.5h-26.4v-26.5h26.4zm-172.5 0h85.5v26.5H228v-26.5zm85.5 55.1v26.4H228v-26.4h85.5zm-129.1 0h26.5v26.4h-26.5v-26.4zm-55 95v-26.4h26.4v26.4h-26.4zm55 0v-26.4h26.5v26.4h-26.5zm129.1 0H228v-26.4h85.5v26.4zm87-68.7h-26.4v-26.4h26.4v26.4zm68.7-55h-26.4v-26.5h26.4v26.5z"></path></svg>