<svg id="Layer_1" data-name="Layer 1" xmlns="http://www.w3.org/2000/svg" viewBox="0 0 600.89 375.94">   <path d="M147.27,151.95V0c-40.14,1.06-72.65,34.19-72.65,74.57v72.17c0,3.91-.31,7.74-.89,11.49-5.57,35.64-36.59,63.13-73.73,63.13v154.58c41.04,0,74.62-33.58,74.62-74.62v-74.79c0-4.76,.47-9.4,1.33-13.92,6.45-33.82,35.91-59.73,71.32-60.66Z"></path>   <path d="M224.75,158.24c-.59-3.75-.89-7.58-.89-11.49V74.57C223.86,34.19,191.34,1.06,151.21,0V151.95c35.41,.93,64.87,26.84,71.32,60.66,.86,4.52,1.33,9.16,1.33,13.92v74.79c0,41.04,33.58,74.62,74.62,74.62V221.36c-37.13,0-68.16-27.49-73.73-63.13Z"></path>   <path d="M149.24,173.16c-29.45,0-53.32,23.87-53.32,53.32s23.87,53.32,53.32,53.32,53.32-23.87,53.32-53.32-23.87-53.32-53.32-53.32Z"></path>   <path d="M449.68,151.95V0c-40.14,1.06-72.65,34.19-72.65,74.57v72.17c0,3.91-.31,7.74-.89,11.49-5.57,35.64-36.59,63.13-73.73,63.13v154.58c41.04,0,74.62-33.58,74.62-74.62v-74.79c0-4.76,.47-9.4,1.33-13.92,6.45-33.82,35.91-59.73,71.32-60.66Z"></path>   <path d="M527.16,158.24c-.59-3.75-.89-7.58-.89-11.49V74.57c0-40.38-32.51-73.51-72.65-74.57V151.95c35.41,.93,64.87,26.84,71.32,60.66,.86,4.52,1.33,9.16,1.33,13.92v74.79c0,41.04,33.58,74.62,74.62,74.62V221.36c-37.13,0-68.16-27.49-73.73-63.13Z"></path>   <path d="M451.65,173.16c-29.45,0-53.32,23.87-53.32,53.32s23.87,53.32,53.32,53.32,53.32-23.87,53.32-53.32-23.87-53.32-53.32-53.32Z"></path>   <circle cx="300.44" cy="146.77" r="53.32"></circle> </svg>