<svg xmlns="http://www.w3.org/2000/svg" width="552.1" viewBox="0 0 552.1 583.2" height="583.2"><path d="M0 313.5V304c1.6-80.5 39.4-157.9 102-208.5 47.6-39 118.1-68.4 180.3-57.1 55.8 10.2 99.5 61.1 99.9 118 1.6 69.8-63.5 123.9-131.8 109.9-46-9.7-78.8-59.6-67.1-105.6 4.2-17.7 13-32.6 27.7-43.6 26.7-20.3 70.4-22.6 93.4 4.3 10.6 12.6 14.3 27.2 11.7 43.3-2.9 22.9-25.9 38.1-48.2 35.9-26.1-1.5-40.7-28.2-35.1-52.3 3.1 15.6 16.7 29.2 33.6 27.4 24.3-2.9 25.9-35.6 4.9-43-21.6-8.5-47.1 2.9-53.8 25.4-2.9 8.3-2.8 16.8-1.4 25.4 5.3 35.1 38.9 53.2 72.1 44.9 31.9-6.3 55.5-34.7 57.2-67 4.7-49.7-37.4-86.7-84.8-89.1-57.7-4-113.1 43.3-116.8 101.3-6.1 68.1 49.9 130.9 117.8 134.3 48.7 2.5 98.2-17 129.1-55.3C453.5 175.9 413.9 61.3 347.3.2c.1-.1.2-.2.3-.4C453.2 47.8 535.6 147 549 264c11.4 77.9-9.7 160-61.1 220.2-61.7 75-164 111.9-259.5 94.6C99.8 557.7 2.1 443.8 0 313.5z"></path></svg>