<svg xmlns="http://www.w3.org/2000/svg" width="568.8" viewBox="0 0 568.8 441.3" height="441.3"><path d="M200.4 220.6c0 46.4 37.6 84.1 84.1 84.1 46.4 0 84.1-37.6 84.1-84.1 0-46.4-37.6-84.1-84.1-84.1-46.5.1-84.1 37.7-84.1 84.1"></path><path d="M284.4 112.3s132.3-5.8 158.4 113h126s-9.3-64.2-52-124.9h-11.6C462.5 48.9 393.5.9 284.4.1c-.9 0-1.7-.1-2.6-.1C171.2 0 102.5 48.5 60.6 100.5H49.1C21.5 141.1 8.9 182.3 3.5 205.1.9 216.4 0 225.4 0 225.4h126c26.1-118.9 158.4-113.1 158.4-113.1M284.4 334.8c-72.6 0-102.7-67-102.7-67H54.9s6.4 162.8 229.5 173.4c223.1-10.6 229.5-173.4 229.5-173.4H387.2s-30.2 67-102.8 67"></path></svg>