<svg xmlns="http://www.w3.org/2000/svg" width="557.47" viewBox="0 0 557.47 642" height="642" data-name="Layer 1"><path d="M554.5 159.19 275.77 320.12v321.86l-87.09-50.27v-192.6c5.02-1.35 8.75-5.86 8.75-11.33 0-6.57-5.28-11.84-11.78-11.84s-11.84 5.28-11.84 11.84c0 5.47 3.8 10.11 8.95 11.39v189.12l-86.71-50.02v-192.6c5.09-1.35 8.88-5.92 8.88-11.39 0-6.57-5.28-11.84-11.84-11.84s-11.84 5.28-11.84 11.84c0 5.47 3.8 10.04 8.88 11.39v189.12L0 482.79V164.34l185.58 107.18 166.79-96.24c2.19 2.12 5.15 3.54 8.43 3.54 6.57 0 11.84-5.34 11.84-11.84s-5.28-11.84-11.84-11.84-11.84 5.28-11.84 11.84c0 1.09.19 2.12.52 3.09l-163.89 94.56L2.96 159.19 278.73 0l90.12 52.01-163.76 94.56c-2.19-2.19-5.15-3.54-8.43-3.54-6.57 0-11.84 5.34-11.84 11.84s5.28 11.84 11.84 11.84 11.84-5.28 11.84-11.84c0-1.09-.19-2.12-.52-3.09l166.85-96.3 179.66 103.7Z"></path><path d="M421.08 404.04v50.26c5.07 1.33 8.83 5.91 8.83 11.4 0 6.53-5.3 11.83-11.83 11.83s-11.83-5.3-11.83-11.83c0-5.5 3.78-10.09 8.87-11.41V350.34c-5.07-1.33-8.83-5.91-8.83-11.4 0-6.53 5.3-11.83 11.83-11.83s11.83 5.3 11.83 11.83c0 5.5-3.78 10.09-8.87 11.41v46.81l136.39-78.75V164.36L281.71 323.57v318.42l275.76-159.21V325.29l-136.39 78.75Z"></path></svg>