<svg data-name="Layer 1" xmlns="http://www.w3.org/2000/svg" viewBox="0 0 609.36 472.51"><path d="M41.3 41.3h47.78v47.78H41.3zM109.73 41.3h47.78v47.78h-47.78zM178.15 41.3h47.78v47.78h-47.78zM383.43 41.3h47.78v47.78h-47.78zM451.86 41.3h47.78v47.78h-47.78zM520.29 41.3h47.78v47.78h-47.78zM41.3 109.73h47.78v47.78H41.3zM109.73 109.73h47.78v47.78h-47.78zM178.15 109.73h47.78v47.78h-47.78zM383.43 109.73h47.78v47.78h-47.78zM451.86 109.73h47.78v47.78h-47.78zM520.29 109.73h47.78v47.78h-47.78zM41.3 178.15h47.78v47.78H41.3zM109.73 178.15h47.78v47.78h-47.78zM178.15 178.15h47.78v47.78h-47.78zM246.58 178.15h47.78v47.78h-47.78zM315.01 178.15h47.78v47.78h-47.78zM383.43 178.15h47.78v47.78h-47.78zM451.86 178.15h47.78v47.78h-47.78zM520.29 178.15h47.78v47.78h-47.78zM41.3 246.58h47.78v47.78H41.3zM109.73 246.58h47.78v47.78h-47.78zM178.15 246.58h47.78v47.78h-47.78zM246.58 246.58h47.78v47.78h-47.78zM315.01 246.58h47.78v47.78h-47.78zM383.43 246.58h47.78v47.78h-47.78zM451.86 246.58h47.78v47.78h-47.78zM520.29 246.58h47.78v47.78h-47.78zM41.3 315.01h47.78v47.78H41.3zM109.73 315.01h47.78v47.78h-47.78zM178.15 315.01h47.78v47.78h-47.78zM383.43 315.01h47.78v47.78h-47.78zM451.86 315.01h47.78v47.78h-47.78zM520.29 315.01h47.78v47.78h-47.78zM41.3 383.43h47.78v47.78H41.3zM109.73 383.43h47.78v47.78h-47.78zM178.15 383.43h47.78v47.78h-47.78zM383.43 383.43h47.78v47.78h-47.78zM451.86 383.43h47.78v47.78h-47.78zM520.29 383.43h47.78v47.78h-47.78z"></path><path d="M342.13 0v136.85h-74.9V0H0v472.51h267.23V335.66h74.9v136.85h267.23V0H342.13Zm246.58 451.86H362.78V315.01h-116.2v136.85H20.65V20.65h225.93V157.5h116.2V20.65h225.93v431.21Z"></path></svg>