<svg xmlns="http://www.w3.org/2000/svg" width="615" viewBox="0 0 615 395.9" height="395.9" xml:space="preserve" style="enable-background:new 0 0 615 395.9"><path d="m558.5 198-14.1-14.1L388.8 28.3l-14.1 14.1L520.2 188H60.6c2.3-31.5 15.5-62.3 39.6-86.4 53.2-53.2 139.6-53.2 192.8 0 3.8 3.8 7.3 7.8 10.6 11.9l14.3-14.3c-3.3-4.1-6.9-8-10.7-11.8C246.1 26.3 147 26.3 86 87.4c-61.1 61.1-61.1 160.1 0 221.2 61.1 61.1 160.1 61.1 221.2 0 3.8-3.8 7.4-7.7 10.7-11.8l-14.3-14.3c-3.3 4.1-6.8 8.1-10.6 11.9-53.2 53.2-139.6 53.2-192.8 0-24.1-24.1-37.3-54.9-39.6-86.4h459.6L374.6 353.5l14.1 14.1 155.5-155.5 14.3-14.1z"></path><path d="M600.9 183.8 417.1 0l-14.2 14.1L586.8 198 402.9 381.8l14.2 14.1 183.8-183.8L615 198zM321.4 322.8c-68.9 68.9-180.7 68.9-249.6 0s-68.9-180.7 0-249.6 180.7-68.9 249.6 0c3.8 3.8 7.4 7.7 10.7 11.7l14.3-14.2c-3.4-4-7-7.9-10.8-11.7-76.8-76.8-201.2-76.8-278 0-76.8 76.8-76.8 201.2 0 278 76.8 76.8 201.2 76.8 278 0 3.8-3.8 7.4-7.7 10.8-11.7L332.1 311c-3.4 4.1-7 8-10.7 11.8z"></path><path d="M471.9 228H84.2v.2c5.1 19.1 15.1 37.1 30.1 52.1 45.4 45.4 119 45.4 164.4 0 3.8-3.8 7.3-7.8 10.5-12l-14.4-14.4c-3.1 4.3-6.5 8.3-10.3 12.2-37.6 37.6-98.5 37.6-136 0-5.6-5.6-10.3-11.6-14.2-18h309.3l-77.3 77.3 14.1 14.1 91.4-91.4 20.1-20.1zM114.4 148c3.9-6.4 8.6-12.5 14.2-18 37.6-37.6 98.5-37.6 136 0 3.8 3.8 7.2 7.9 10.3 12.2l14.4-14.4c-3.2-4.2-6.7-8.2-10.5-12-45.4-45.4-119-45.4-164.4 0-15 15-25 33-30.1 52.1v.1H472l-20-20-91.4-91.4-14.1 14.1 77.3 77.3H114.4z"></path></svg>