<svg data-name="Layer 1" xmlns="http://www.w3.org/2000/svg" viewBox="0 0 610.45 610.45"><path d="M287.92 341.21V145.93c0-31.36 25.42-56.78 56.78-56.78h176.08C465.57 34.06 389.38 0 305.23 0 136.65 0 0 136.66 0 305.23c0 32.35 5.07 63.51 14.4 92.77h216.74c31.36 0 56.78-25.42 56.78-56.78Z"></path><path d="M596.05 212.46H383.56c-31.36 0-56.78 25.42-56.78 56.78v195.29c0 31.36-25.42 56.78-56.78 56.78H89.67c55.21 55.08 131.41 89.14 215.56 89.14 168.57 0 305.23-136.65 305.23-305.23 0-32.35-5.08-63.51-14.4-92.77Z"></path></svg>