<svg data-name="Layer 1" xmlns="http://www.w3.org/2000/svg" viewBox="0 0 615.67 615.66"><path d="M615.67 334.66V281h-207.7l179.19-103.46.68-.39-26.83-46.47-179.87 103.85L484.59 55.34l.39-.68-46.48-26.83L334.66 207.7V0H281v207.69L177.54 28.51l-.39-.68-46.48 26.83 103.85 179.86L55.33 131.08l-.68-.39-26.83 46.47L207.69 281H0v53.66h207.7L28.51 438.12l-.68.39 26.83 46.47 179.86-103.85-103.45 179.19-.39.68 46.47 26.83 103.84-179.87v207.69h53.66v-207.7l103.46 179.19.39.68 46.48-26.83-103.85-179.86 179.19 103.45.68.39 26.83-46.47-179.87-103.84h207.7Zm-1.58-52.1v50.52H405.25l-43.75-25.26 43.75-25.26h208.84Zm-279.43 21.21 2.34 4.05-2.34 4.05v-8.11Zm-1.57 10.82-6.77 11.72-11.72 6.77h-13.53l-11.73-6.77-6.77-11.73v-13.53l6.77-11.73 11.73-6.77h13.53l11.73 6.77 6.76 11.71v13.54Zm1.57-13.97v-6.48l7.68 4.43-4.43 7.67-3.25-5.62Zm-1.57-2.72-4.04-7 4.04 2.33v4.67Zm-5.61-9.72-3.25-5.62h8.86v8.86l-5.61-3.24Zm-2.72-1.57-7.02-4.05h4.68l2.34 4.05Zm-9.73-5.62-5.62-3.24 7.68-4.43 4.43 7.68h-6.49Zm-3.14 0h-8.09l4.05-2.34 4.05 2.34Zm-11.24 0h-6.49l4.43-7.68 7.68 4.43-5.62 3.24Zm-2.72 1.57-7.02 4.05 2.34-4.05h4.68Zm-9.74 5.62-5.62 3.24v-8.87h8.86l-3.25 5.62Zm-1.57 2.72-4.05 7.01v-4.67l4.05-2.34Zm-5.62 9.73-3.24 5.62-4.43-7.67 7.67-4.43v6.49Zm0 3.14v8.09l-2.34-4.04 2.34-4.05Zm0 11.23v6.49l-7.67-4.43 4.43-7.67 3.24 5.62Zm1.57 2.72 4.05 7.01-4.05-2.34v-4.67Zm5.62 9.73 3.25 5.62h-8.87v-8.87l5.62 3.24Zm2.72 1.57 7.01 4.05h-4.68l-2.34-4.05Zm9.73 5.62 5.62 3.24-7.68 4.43-4.43-7.68h6.49Zm3.14 0h8.1l-4.05 2.34-4.05-2.34Zm11.24 0h6.48l-4.43 7.67-7.67-4.43 5.62-3.24Zm2.72-1.57 7.01-4.05-2.34 4.05h-4.67Zm9.73-5.62 5.62-3.24v8.86h-8.86l3.24-5.62Zm1.57-2.72 4.05-7.01v4.67l-4.05 2.34Zm5.62-9.73 3.25-5.62 4.43 7.68-7.68 4.43V315Zm4.15-7.2 4.88-8.46 14.65 8.46-14.65 8.46-4.89-8.46Zm5.67-9.82 8.91-15.44h48.71l-42.18 24.35-15.44-8.91Zm-1.36-.79-8.46-4.89v-9.77h16.92l-8.46 14.65Zm-8.46-16.22v-17.83l42.18-24.36-24.35 42.18h-17.83Zm-1.57 0h-9.77l-4.89-8.46 14.65-8.46v16.92Zm-15.44-9.82-8.92-15.44 24.35-42.18v48.71l-15.44 8.91Zm-1.36.79-8.46 4.89-8.46-4.89 8.46-14.66 8.46 14.66Zm-18.29-.79-15.44-8.91v-48.71l24.36 42.18-8.92 15.44Zm-.79 1.36-4.88 8.46h-9.77v-16.92l14.66 8.46Zm-16.23 8.46h-17.83l-24.36-42.18 42.18 24.35v17.83Zm0 1.57v9.77l-8.46 4.88-8.46-14.66h16.92Zm-9.82 15.44-15.44 8.91-42.18-24.35h48.7l8.92 15.44Zm.79 1.36 4.88 8.46-4.88 8.46-14.65-8.46 14.65-8.46Zm-.79 18.28-8.91 15.44h-48.7l42.18-24.35 15.44 8.91Zm1.36.79 8.46 4.88v9.77h-16.92l8.46-14.66Zm8.46 16.22v17.83l-42.18 24.35 24.36-42.19h17.83Zm1.57 0h9.77l4.89 8.46-14.66 8.46v-16.93Zm15.44 9.82 8.91 15.44-24.36 42.19v-48.71l15.44-8.92Zm1.36-.79 8.46-4.89 8.46 4.88-8.46 14.65-8.46-14.65Zm18.28.78 15.44 8.91v48.7l-24.35-42.18 8.91-15.44Zm.79-1.36 4.88-8.46h9.77v16.92l-14.65-8.46Zm16.22-8.46h17.83l24.36 42.18-42.19-24.36v-17.83Zm0-1.57v-9.77l8.47-4.89 8.46 14.65h-16.93Zm9.83-15.44 15.44-8.91 42.18 24.35h-48.7l-8.91-15.44Zm215.94-184.83 25.26 43.75-180.86 104.43h-50.52l25.26-43.75 180.86-104.42ZM439.08 29.97l43.76 25.26-104.42 180.86-43.75 25.26v-50.52L439.08 29.97ZM282.57 1.57h50.52v208.84l-25.26 43.75-25.26-43.75V1.57ZM132.82 55.24l43.76-25.26 104.43 180.86v50.52l-43.75-25.26L132.82 55.24ZM29.97 176.58l25.26-43.75L236.1 237.25 261.36 281h-50.52L29.97 176.58ZM1.57 333.1v-50.52h208.85l43.75 25.26-43.75 25.26H1.57Zm53.67 149.75L29.98 439.1l180.87-104.43h50.51l-25.26 43.76L55.24 482.84ZM176.58 585.7l-43.75-25.26 104.42-180.86L281 354.32v50.52L176.58 585.7Zm156.51 28.4h-50.52V405.26l25.26-43.76 25.26 43.75V614.1Zm149.76-53.67-43.76 25.26-104.43-180.87V354.3l43.76 25.26 104.43 180.86ZM585.7 439.09l-25.26 43.75-180.86-104.41-25.26-43.75h50.52L585.71 439.1Z"></path></svg>