<svg id="Layer_1" data-name="Layer 1" xmlns="http://www.w3.org/2000/svg" viewBox="0 0 614.19 602.39">   <path d="M605.04,210.67c-22.6-65.25-82.06-107.43-147.03-111.41C432.46,41.66,375.2,1.18,308.49,.07v-.07c-.47,0-.93,.03-1.4,.03-.47,0-.93-.03-1.4-.03V.07c-66.67,1.11-123.91,41.56-149.48,99.11-21.46,1.3-42.68,6.82-62.63,16.51-39.95,19.4-69.93,53.13-84.43,94.99-23.2,67.01-.82,138.93,50.63,181.91-17.96,64.98,5.12,137.24,63.01,178.79,28.39,20.37,61.74,31.02,96.07,31.02,9.05,0,18.18-.74,27.29-2.24,21.99-3.62,42.61-11.43,60.94-22.88,18.33,11.44,38.94,19.26,60.93,22.88,9.12,1.5,18.24,2.24,27.3,2.24,34.33,0,67.69-10.65,96.07-31.02,35.88-25.74,59.59-63.98,66.77-107.66,3.97-24.13,2.6-48.3-3.74-71.15,51.43-42.98,73.8-114.89,50.61-181.89Zm-148.16-44.09v5.91c-3.85,.7-7.68,1.62-11.49,2.88v-11.05c3.8-.75,7.6-1.27,11.4-1.56,.03,1.27,.1,2.54,.1,3.82Zm0,21.54v11.57l-11.49,3.98v-12.08l3.86-1.34c2.53-.88,5.08-1.57,7.63-2.14Zm-1.26-40.69c-3.53,.27-7.05,.7-10.58,1.32-.22-3.26-.54-6.49-.98-9.69,3.39-.33,6.78-.57,10.15-.62,.56,2.97,1.03,5.96,1.41,8.99Zm-5.15-24.35c-3.11,.12-6.23,.37-9.35,.71-.78-3.09-1.68-6.13-2.67-9.13,3.05-.19,6.09-.29,9.12-.3,1.06,2.87,2.01,5.78,2.9,8.72ZM307.1,15.43c58.53,.54,109.2,34.5,133.84,83.69-2.78,.12-5.57,.31-8.37,.57-21.77-47.16-69.07-80.18-124.07-81.27v-.07c-.47,0-.93,.03-1.4,.03-.47,0-.93-.03-1.4-.03v.07c-54.99,1.09-102.27,34.09-124.05,81.23-2.78-.26-5.57-.46-8.36-.58C197.94,49.9,248.59,15.97,307.1,15.43Zm0,58.02c-.47,0-.93-.07-1.4-.07v.14c-26.55,1.25-48.53,20.08-54.54,45.13l-8.44-2.9c10.01-26.04,34.99-44.67,64.38-45.25,29.41,.58,54.4,19.23,64.4,45.3l-8.44,2.93c-5.98-25.08-27.98-43.95-54.56-45.2v-.14c-.47,0-.93,.06-1.4,.07Zm-69.11,125.69v-12.06l11.49,3.96v12.06l-11.49-3.96Zm11.49,20.24v12.07l-11.49-3.96v-12.07l11.49,3.96Zm-11.49-48.59v-12.06l11.49,3.96v12.06l-11.49-3.96Zm0-28.35v-1.51c0-3.49,.34-6.9,.83-10.26l10.66,3.67v12.06l-11.49-3.96Zm126.73,77.12l11.49-3.98v12.08l-11.49,3.98v-12.08Zm0-16.3v-12.08l11.49-3.98v12.08l-11.49,3.98Zm0-28.37v-12.08l11.49-3.99v12.08l-11.49,3.98Zm0-28.37v-12.08l10.67-3.7c.49,3.34,.82,6.73,.82,10.2v1.59l-11.49,3.99Zm-56.22-91.35v-.14c-.47,0-.93,.06-1.4,.07-.47,0-.93-.07-1.4-.07v.14c-35.51,1.15-65.58,23.91-77.53,55.57l-7.71-2.66c15.41-32.63,48.34-55.38,86.64-55.93,38.29,.55,71.22,23.3,86.64,55.93l-7.71,2.67c-11.94-31.67-42.01-54.43-77.53-55.58Zm-97.4,134.7v-12.06l11.49,3.96v12.06l-11.49-3.96Zm11.49,20.24v12.06l-11.49-3.96v-12.06l11.49,3.96Zm-11.49-48.59v-12.05h0s11.49,3.95,11.49,3.95v12.06l-11.49-3.96Zm1.4-27.86c.62-3.8,1.43-7.54,2.48-11.18,.15,.05,.3,.09,.45,.14l8.61,2.96c-.69,3.79-1.09,7.67-1.26,11.62l-10.28-3.54Zm186.29-11.05c.14-.05,.29-.09,.43-.14,1.06,3.65,1.86,7.39,2.49,11.2l-10.28,3.57c-.17-3.95-.57-7.84-1.26-11.64l8.62-2.99Zm-7.18,87.61l11.49-3.98v12.08l-11.49,3.98v-12.07Zm0-16.3v-12.08l11.49-3.99v12.08l-11.49,3.99Zm0-28.38v-12.08l11.49-3.99v12.08l-11.49,3.98ZM308.49,36.83v-.14c-.47,0-.93,.06-1.4,.07-.47,0-.93-.07-1.4-.07v.14c-44.68,1.1-82.95,28.25-100.19,66.86-2.59-.63-5.19-1.21-7.79-1.71,20.34-40.02,61.63-67.63,109.38-68.16,47.77,.54,89.06,28.15,109.39,68.19-2.6,.51-5.2,1.07-7.8,1.71-17.24-38.61-55.51-65.77-100.2-66.87Zm-124.29,143.78v-12.06l11.49,3.96v12.06l-11.49-3.96Zm11.49,20.24v12.06l-11.49-3.96v-12.06l11.49,3.96Zm-8.89-47.68c-.77-.27-1.55-.43-2.32-.68,.17-3.72,.47-7.39,.96-11.02,3.53,.81,7.03,1.82,10.51,2.94-.08,1.7-.26,3.37-.26,5.08v6.74l-8.89-3.06Zm1.64-26.79c.88-3.35,1.89-6.64,3.04-9.87,2.9,.5,5.81,1.06,8.7,1.74-1.01,3.48-1.85,7.02-2.52,10.64-3.07-.91-6.13-1.8-9.23-2.5Zm234.26-9.88c1.15,3.22,2.15,6.5,3.04,9.83-3.09,.69-6.17,1.49-9.24,2.4-.67-3.56-1.51-7.06-2.5-10.49,2.9-.68,5.8-1.24,8.7-1.74Zm6.05,24.95c.49,3.63,.79,7.31,.96,11.04-.77,.25-1.55,.41-2.32,.68l-8.89,3.08v-6.76c0-1.72-.18-3.39-.26-5.08,3.49-1.12,7-2.15,10.51-2.95Zm-10.26,59.46l11.49-3.98v12.08l-11.49,3.98v-12.08Zm0-16.3v-12.08l11.49-3.98v12.08l-11.49,3.98ZM166.61,114.37c3.03,0,6.07,.11,9.12,.3-.99,3.03-1.9,6.09-2.68,9.2-3.1-.34-6.21-.69-9.32-.82,.88-2.93,1.83-5.82,2.88-8.67Zm-6.63,24.06c3.39,.05,6.77,.29,10.15,.62-.44,3.2-.77,6.43-.98,9.7-3.53-.61-7.06-1.05-10.58-1.32,.38-3.03,.85-6.03,1.41-9Zm-2.67,28.15c0-1.28,.06-2.54,.1-3.82,3.8,.29,7.6,.8,11.4,1.55v11.05c-3.81-1.26-7.65-2.18-11.49-2.88v-5.91Zm0,21.54c2.56,.57,5.11,1.27,7.64,2.14l3.85,1.33v12.06l-11.49-3.96v-11.56Zm-92.28,188.65c-14.12-12.8-25.84-28.28-34.43-45.96-17.6-36.25-20.05-77.12-6.9-115.09,19.68-56.83,70.17-94.39,126.35-100.49-.88,2.7-1.69,5.42-2.43,8.17-17.26,1.32-34.32,5.8-50.39,13.6-33.5,16.27-58.65,44.56-70.8,79.66-12.15,35.1-9.89,72.88,6.38,106.39,8.68,17.88,20.87,33.27,35.61,45.69-1.2,2.66-2.34,5.33-3.39,8.04Zm15.98-97.21c5.93,12.22,15.64,21.79,27.69,27.48l-5.73,7.99c-25.93-17.33-38.09-50.55-27.42-81.36,10.04-28.99,37.29-47.16,66.37-47.21v9.09c-11.41-1.57-23.05,.26-33.7,5.43-14.18,6.88-24.81,18.83-29.94,33.63-5.12,14.8-4.16,30.77,2.73,44.94Zm114.87,86.44l-6.92,9.67-9.47-3.28,6.95-9.66,9.44,3.27Zm-.06-16.32l6.95-9.66,9.37,3.25-6.92,9.67-9.4-3.26Zm78.39,130.76l-7.93-11.05,6.97-9.71,7.93,11.05-6.97,9.71Zm6.51,35.47c-2.59,2.84-5.35,5.47-8.22,7.95l-5.74-8c2.51-2.69,4.92-5.49,7.09-8.52l.36-.51,6.51,9.07Zm-11.03,29.26c1.75,2.02,3.53,3.99,5.36,5.92-40.57,22.86-92.41,21.86-132.67-7.03-41.96-30.11-59.33-81.86-47.96-129.24,2.53,1.21,5.11,2.36,7.72,3.45-4.89,16.18-6.16,33.37-3.33,50.57,4.87,29.58,20.92,55.48,45.22,72.91,19.22,13.8,41.81,21.01,65.06,21.01,6.13,0,12.32-.5,18.49-1.52,15.24-2.51,29.47-8.04,42.1-16.08ZM87.9,364.25c1.5-2.71,3.07-5.39,4.75-8.04,3.2,1.89,6.5,3.63,9.9,5.21l-1,1.39c-1.67,2.32-3.09,4.75-4.59,7.13-3.12-1.76-6.12-3.68-9.06-5.7Zm1.57,19.14c-1.41,2.92-2.7,5.88-3.89,8.86-2.67-1.68-5.37-3.33-7.92-5.17,1.05-2.99,2.2-5.95,3.44-8.89,2.74,1.81,5.49,3.58,8.36,5.2Zm49.1,19.49l-3.51,4.88c-1.14,1.59-2.13,3.24-3.15,4.89l-9.87-3.42c1.65-3.47,3.55-6.83,5.63-10.12l10.89,3.77Zm-1.82-16.93l6.91-9.67,11.24,3.89-6.95,9.66-11.21-3.88Zm-15.17-5.25l-4.08-1.41c-2.25-.78-4.39-1.75-6.58-2.64,1.05-1.62,1.99-3.28,3.13-4.86l3.31-4.61,11.13,3.86-6.91,9.67Zm-9.12,13.14l.25,.09c-1.88,3.19-3.59,6.45-5.13,9.78-2.87-1.21-5.7-2.48-8.47-3.85,1.25-3.28,2.62-6.51,4.16-9.71,3.03,1.29,6.04,2.6,9.18,3.69Zm148.87,104.52c-1.18,1.64-2.45,3.2-3.75,4.72l-7.75-10.8,6.97-9.7,7.93,11.05-3.4,4.73Zm-6.12,27.83l4.9,6.83c-10.57,6.49-22.4,10.95-35.03,13.02-25.55,4.2-51.12-1.77-72.08-16.81-20.95-15.04-34.8-37.37-39-62.9-2.39-14.51-1.38-29,2.6-42.69l8.37,2.9c-13.82,35.47-2.63,77.2,29.69,100.4,14.64,10.51,31.85,16,49.56,16,4.67,0,9.38-.38,14.08-1.15,13.61-2.24,26.15-7.64,36.91-15.6Zm-39.41,.4c-18.48,3.04-37.01-1.28-52.17-12.17-26.66-19.13-35.79-53.66-24.12-82.85l8.24,2.85c-13.05,25.41-5.94,57.29,17.95,74.43,10.03,7.2,21.84,10.96,34.01,10.96,3.22,0,6.47-.26,9.71-.8,11.46-1.89,21.83-6.98,30.15-14.61l6.66,9.28c-8.85,6.59-19.21,11.05-30.43,12.9Zm-68.94-108.77c.25-.35,.44-.73,.7-1.08l6.19-8.6,9.58,3.32-6.92,9.67-9.54-3.3Zm16.27-22.73l6.95-9.66,9.51,3.29-6.92,9.67-9.54-3.3Zm17.49-50.68l-11.37-3.94,6.91-9.67,11.41,3.95-6.95,9.66Zm-9.39,13.05l-6.95,9.66-11.29-3.91,6.92-9.67,11.32,3.92Zm-17.15-22.24l-11.05-3.83,6.94-9.67,11.03,3.82-6.92,9.67Zm-9.34,13.07l-6.92,9.67-11.1-3.84,6.94-9.67,11.08,3.84Zm-16.89-22.15l-8.91-3.09c-.75-.26-1.44-.6-2.17-.88l6.87-9.57,11.16,3.87-6.94,9.67Zm-9.37,13.05l-6.73,9.38c-3.54-1.51-6.99-3.17-10.3-5.07l6.08-8.47c2.08,.91,4.18,1.81,6.36,2.57l4.59,1.59Zm-57.51-110.58c-12.95,37.4,1.68,77.7,33,98.91l-5.16,7.19c-10.85-8.83-19.82-19.92-26.12-32.9-11.34-23.35-12.92-49.69-4.44-74.14,12.95-37.4,46.62-61.79,83.74-64.92-.03,1.27-.1,2.54-.1,3.81v4.5c-35.46,.05-68.67,22.2-80.92,57.54Zm-17.28-5.98c-9.82,28.35-7.99,58.86,5.15,85.91,7.47,15.39,18.17,28.49,31.15,38.83-1.55,2.41-3.03,4.86-4.44,7.32-11.89-10.63-21.73-23.58-28.91-38.38-14.47-29.8-16.49-63.41-5.67-94.62,10.81-31.22,33.17-56.38,62.98-70.85,12.86-6.25,26.44-10.03,40.23-11.6-.44,2.64-.81,5.29-1.12,7.97-43.92,2.77-84.08,31.31-99.36,75.43Zm199.95,362.32c-39.65,6.54-79.36-2.75-111.9-26.1-50.75-36.42-71.99-98.87-58.64-156.23,2.42,1.64,4.89,3.22,7.41,4.74-14.7,54.31,4.54,114.5,52.88,149.19,24.45,17.55,52.73,25.98,80.75,25.98,25.4,0,50.57-6.99,72.53-20.35,2.14,1.85,4.32,3.65,6.55,5.38-15.16,8.54-31.87,14.47-49.58,17.38Zm44.62-42.36c-2.13-2.15-4.21-4.37-6.23-6.67,2.74-2.34,5.37-4.82,7.89-7.43,2.01,2.61,4.09,5.14,6.25,7.57-2.57,2.28-5.18,4.5-7.91,6.54Zm2.37-39.26l-6.97-9.71,6.97-9.7,6.97,9.7-6.97,9.71Zm0-45.81l-7.93-11.05,6.97-9.71,7.93,11.05-6.97,9.71Zm-.97-47.16l-7.55-10.52-12.51,8.97,10.59,14.75-6.97,9.71-12.81-17.85-12.51,8.97,15.85,22.08-6.97,9.71-18.08-25.18-12.51,8.97,21.11,29.41-6.97,9.7-23.34-32.52-12.51,8.97,26,36.22c-6.34,6.34-14.48,10.58-23.57,12.08-11.45,1.9-22.9-.78-32.25-7.48-18.23-13.08-23.25-37.8-12.24-56.84l38.9,13.47,5.04-14.55-34.8-12.05,6.92-9.67,31.6,10.95,5.04-14.55-27.29-9.45,6.92-9.67,24.11,8.35,5.04-14.55-19.8-6.86,6.92-9.67,16.6,5.75,5.04-14.55-12.3-4.26,6.92-9.67,9.11,3.16,6.53-18.86-15.43-11.04-6.04,8.43-9.34-3.23,7.3-10.15-12.5-8.99-9.99,13.88-11.45-3.97,11.52-16.12-12.52-8.96-14.17,19.82-11-3.81,15.72-21.9-12.51-8.98-18.39,25.63-11.16-3.87,19.93-27.77-12.51-8.98-22.54,31.41c-10.08-3.99-18.23-11.5-23.04-21.4-5.08-10.48-5.8-22.26-2.02-33.18,3.78-10.92,11.63-19.73,22.11-24.82,8.52-4.13,17.89-5.33,26.97-3.62v46.93h15.4v-42.17l11.49,3.96v38.2h15.4v-32.9l11.49,3.96v28.93h15.4v-23.62l11.49,3.96v19.66h15.4v-14.35l11.49,3.96v10.39h18.94l6.21-18-9.75-3.36v-12.07l10.68,3.68,5.02-14.55-15.7-5.41v-12.07l19.59,6.75,5.02-14.55-24.6-8.48v-12.06l28.32,9.75,5.02-14.56-33.34-11.48v-12.06l36.93,12.71,5-14.56-41.06-14.13c3.96-19.44,20.91-34.17,41.34-34.83,20.48,.66,37.44,15.44,41.36,34.94l-40.65,14.1,5.04,14.55,36.47-12.65v12.08l-32.9,11.41,5.04,14.55,27.86-9.67v12.07l-24.17,8.38,5.04,14.55,19.13-6.63v12.08l-15.26,5.29,5.04,14.55,10.22-3.55v12.07l-9.32,3.23,6.21,17.92h18.51v-10.19l11.49-3.98v14.18h15.4v-19.52l11.49-3.99v23.5h15.4v-28.84l11.49-3.98v32.83h15.4v-38.16l11.49-3.98v42.15h15.4v-46.93c9.08-1.71,18.46-.51,26.97,3.62,10.48,5.09,18.33,13.91,22.11,24.82,3.78,10.92,3.06,22.7-2.03,33.18-4.8,9.89-12.95,17.4-23.03,21.39l-22.54-31.41-12.51,8.98,19.93,27.77-11.17,3.87-18.39-25.63-12.51,8.98,15.72,21.9-11,3.81-14.17-19.82-12.52,8.96,11.52,16.12-11.45,3.97-9.99-13.88-12.5,8.99,7.3,10.15-9.34,3.23-6.03-8.43-15.43,11.04,6.53,18.86,9.11-3.16,6.92,9.67-12.29,4.26,5.04,14.55,16.6-5.75,6.92,9.67-19.8,6.86,5.04,14.55,24.1-8.35,6.92,9.67-27.29,9.45,5.04,14.55,31.6-10.95,6.93,9.68-34.8,12.05,5.04,14.55,38.9-13.48c4.99,8.62,6.83,18.65,5.18,28.68-1.88,11.45-8.07,21.45-17.42,28.16-9.35,6.7-20.82,9.37-32.25,7.48-9.09-1.49-17.23-5.73-23.57-12.08l26-36.22-12.51-8.97-23.34,32.52-6.97-9.7,21.11-29.41-12.51-8.97-18.08,25.18-6.97-9.71,15.85-22.08-12.51-8.97-12.81,17.85-6.97-9.71,10.59-14.75-12.51-8.97-7.55,10.52-7.93-11.05,6.7-9.33-16.18-11.6-16.18,11.6,6.7,9.33-7.94,11.05Zm50.3,96.47l.36,.51c2.18,3.03,4.59,5.83,7.09,8.52l-5.74,8c-2.88-2.48-5.64-5.12-8.23-7.95l6.51-9.08Zm-6.97-36.11l7.93-11.05,6.97,9.71-7.93,11.05-6.97-9.71Zm11.48,74.44c12.63,8.04,26.86,13.57,42.1,16.08,6.18,1.02,12.35,1.52,18.49,1.52,23.25,0,45.84-7.21,65.06-21.01,24.3-17.43,40.36-43.33,45.23-72.91,2.82-17.19,1.55-34.39-3.33-50.57,2.64-1.1,5.23-2.26,7.79-3.48,3.81,15.83,4.48,32.42,1.75,48.99-5.36,32.58-23.03,61.09-49.78,80.28-40.25,28.88-92.09,29.89-132.66,7.03,1.83-1.92,3.62-3.9,5.36-5.92Zm83.26-182.44l6.95,9.66-9.48,3.28-6.92-9.67,9.45-3.27Zm-18.79-9.79l-6.92-9.67,9.38-3.25,6.95,9.66-9.41,3.26Zm126.95-118.32c-5.13-14.8-15.76-26.75-29.94-33.63-10.64-5.17-22.29-7-33.7-5.43v-9.09c29.07,.05,56.32,18.21,66.37,47.21,6.13,17.71,4.99,36.77-3.22,53.67-5.55,11.42-13.91,20.85-24.18,27.7l-5.74-8.01c12.04-5.7,21.75-15.26,27.69-27.48,6.89-14.18,7.85-30.14,2.73-44.94Zm17.28-5.99c-12.24-35.34-45.47-57.49-80.92-57.54v-4.5c0-1.28-.07-2.54-.1-3.81,37.12,3.12,70.79,27.51,83.74,64.91,8.47,24.46,6.89,50.79-4.44,74.14-6.3,12.98-15.27,24.07-26.12,32.9l-5.14-7.17c12.33-8.33,22.37-19.72,29.05-33.49,10.01-20.61,11.4-43.85,3.92-65.44Zm-46.55,106.43l6.07,8.46c-3.3,1.9-6.75,3.55-10.3,5.07l-6.73-9.38,4.59-1.59c2.18-.75,4.28-1.65,6.37-2.56Zm-20.14,64.06c2.08,3.29,3.98,6.65,5.63,10.12l-9.86,3.42c-1.02-1.65-2.01-3.3-3.15-4.9l-3.5-4.87,10.89-3.77Zm-20.28-9.28l-6.95-9.66,11.24-3.89,6.91,9.67-11.2,3.88Zm19.46-18.81l11.13-3.86,3.31,4.61c1.13,1.58,2.09,3.24,3.14,4.86-2.19,.9-4.33,1.86-6.59,2.65l-4.08,1.41-6.91-9.67Zm16.03,22.82c3.15-1.09,6.17-2.41,9.21-3.7,1.55,3.21,2.94,6.47,4.2,9.79-2.77,1.38-5.59,2.68-8.48,3.89-1.55-3.37-3.29-6.67-5.19-9.89l.26-.09Zm-6.48-70.79l-8.92,3.09-6.94-9.67,11.16-3.87,6.87,9.57c-.73,.28-1.43,.62-2.18,.88Zm-14.73,21.4l6.94,9.67-11.1,3.84-6.91-9.67,11.08-3.84Zm-20.42-9.23l-6.92-9.68,11.03-3.82,6.94,9.67-11.05,3.83Zm-5.83,18.31l6.91,9.67-11.28,3.91-6.95-9.66,11.32-3.92Zm-20.71-9.13l-6.95-9.66,11.4-3.95,6.92,9.67-11.37,3.94Zm10.54,41.02l6.95,9.66-9.54,3.3-6.92-9.67,9.51-3.29Zm16.34,22.71l6.18,8.59c.26,.35,.46,.74,.71,1.09l-9.54,3.31-6.92-9.68,9.58-3.32Zm6,26.29l8.24-2.85c11.67,29.19,2.54,63.72-24.12,82.85-15.17,10.88-33.68,15.19-52.17,12.17-11.23-1.85-21.58-6.31-30.43-12.9l6.66-9.28c8.32,7.64,18.7,12.73,30.15,14.61,3.25,.54,6.5,.8,9.72,.8,12.17,0,23.98-3.76,34.01-10.96,12.7-9.11,21.09-22.66,23.64-38.17,2.07-12.6,.01-25.18-5.69-36.26Zm-70.55,107.36c4.7,.77,9.41,1.15,14.08,1.15,17.71,0,34.92-5.5,49.56-16,32.32-23.19,43.51-64.92,29.68-100.4l8.37-2.9c3.98,13.69,4.99,28.19,2.6,42.7-4.19,25.52-18.05,47.86-39,62.9-20.95,15.03-46.52,21.01-72.08,16.81-12.62-2.08-24.46-6.53-35.03-13.02l4.9-6.83c10.76,7.96,23.3,13.36,36.91,15.6Zm-39.28-38.7c-1.3-1.52-2.57-3.08-3.75-4.72l-3.4-4.73,7.93-11.05,6.97,9.7-7.75,10.8Zm160.64-133.15c-1.51-2.39-2.95-4.81-4.61-7.13l-1-1.39c3.4-1.58,6.7-3.32,9.9-5.21,1.68,2.63,3.25,5.32,4.76,8.03-2.93,2.01-5.93,3.93-9.05,5.7Zm15.85,8.24c1.24,2.91,2.4,5.85,3.45,8.83-2.55,1.86-5.19,3.62-7.88,5.32-1.21-3.02-2.49-6.01-3.92-8.95,2.87-1.62,5.62-3.39,8.35-5.2Zm1.08-30.8c12.98-10.34,23.68-23.44,31.15-38.83,13.14-27.06,14.97-57.57,5.15-85.91-15.29-44.11-55.45-72.65-99.36-75.43-.31-2.66-.68-5.31-1.11-7.93,45.9,5.25,87.1,35.92,103.2,82.41,10.81,31.21,8.8,64.82-5.67,94.62-7.19,14.8-17.02,27.76-28.92,38.38-1.42-2.47-2.89-4.91-4.44-7.32Zm-202.7,99.1l-7.93,11.05-6.97-9.71,7.93-11.05,6.97,9.71Zm-24.34,112.19c-2.47-1.78-4.91-3.63-7.28-5.57,2.48-1.93,4.89-3.97,7.25-6.08,2.36,2.12,4.78,4.16,7.26,6.1-2.35,1.93-4.77,3.78-7.23,5.56Zm-.03-78.23l-6.97-9.71,6.97-9.71,6.97,9.71-6.97,9.71Zm6.96,36.04c-2.21,3.03-4.52,5.95-6.95,8.72-2.43-2.77-4.75-5.69-6.96-8.73,.12-.16,.25-.3,.36-.46l6.59-9.18,6.59,9.18c.11,.16,.25,.3,.37,.46Zm-6.95-81.86l-7.93-11.05,7.93-11.05,7.93,11.05-7.93,11.05Zm16.44,49.31l6.97,9.71-6.97,9.71-6.97-9.71,6.97-9.71Zm.71,44.57c2.52,2.62,5.15,5.09,7.9,7.44-2.01,2.3-4.1,4.5-6.24,6.66-2.73-2.04-5.34-4.26-7.91-6.54,2.16-2.43,4.24-4.95,6.25-7.56Zm218.73-67.29c-6.51,39.62-28.02,74.3-60.55,97.65-48.97,35.14-112.08,36.48-161.43,8.68,2.21-1.72,4.37-3.51,6.5-5.34,21.96,13.37,47.13,20.36,72.53,20.35,28.02,0,56.3-8.44,80.75-25.98,30.09-21.59,49.97-53.65,56-90.29,3.29-19.99,2.08-39.98-3.07-58.94,2.53-1.52,5-3.11,7.42-4.75,4.42,18.96,5.11,38.8,1.85,58.62Zm6.2-84.46c-1.06-2.71-2.18-5.39-3.38-8.05,14.72-12.41,26.9-27.8,35.58-45.67,16.26-33.5,18.53-71.28,6.38-106.39-18.71-54.01-67.54-89.17-121.2-93.28-.74-2.75-1.55-5.47-2.42-8.16,56.16,6.1,106.67,43.66,126.35,100.49,20.35,58.75,2.08,121.69-41.31,161.05Z"></path> </svg>