<svg xmlns="http://www.w3.org/2000/svg" width="604.4" viewBox="0 0 604.4 604.4" height="604.4"><path d="M392.7 123.3h-181c-23.6 0-45.8 9.2-62.5 25.9s-25.9 38.9-25.9 62.5v181c0 23.6 9.2 45.8 25.9 62.5 16.7 16.7 38.9 25.9 62.5 25.9h181c23.6 0 45.8-9.2 62.5-25.9 16.7-16.7 25.9-38.9 25.9-62.5v-181c0-23.6-9.2-45.8-25.9-62.5-16.7-16.7-38.9-25.9-62.5-25.9zm-.4 269H212V212h180.3v180.3z"></path><path d="M394.4 0H210C94 0 0 94 0 210v184.5c0 116 94 210 210 210h184.5c116 0 210-94 210-210V210C604.4 94 510.4 0 394.4 0zm118.7 392.7c0 16.2-3.2 32-9.5 46.9-6.1 14.3-14.7 27.2-25.8 38.3-11 11.1-23.9 19.7-38.3 25.8-14.9 6.3-30.6 9.5-46.9 9.5h-181c-16.2 0-32-3.2-46.9-9.5-14.3-6.1-27.2-14.7-38.3-25.8-11.1-11-19.7-23.9-25.8-38.3-6.3-14.9-9.5-30.6-9.5-46.9v-181c0-16.2 3.2-32 9.5-46.9 6.1-14.3 14.7-27.2 25.8-38.3s23.9-19.7 38.3-25.8c14.9-6.3 30.6-9.5 46.9-9.5h181c16.2 0 32 3.2 46.9 9.5 14.3 6.1 27.2 14.7 38.3 25.8 11.1 11.1 19.7 23.9 25.8 38.3 6.3 14.9 9.5 30.6 9.5 46.9v181z"></path><circle cx="302.2" cy="302.2" r="58.3"></circle></svg>