<svg xmlns="http://www.w3.org/2000/svg" width="616.5" viewBox="0 0 616.5 620.3" height="620.3" xml:space="preserve" style="enable-background:new 0 0 616.5 620.3"><path d="M509.6 310.2c0 80.1-69.4 148.1-147.9 148.1s-145.1-67.9-145.1-148.1H106.9v310.1h109.7V505.4c37.5 36.7 91.2 62.5 145.1 62.5 140.5 0 254.8-115.6 254.8-257.7H509.6z"></path><path d="M254.8 162.1c78.5 0 145.1 67.9 145.1 148.1h109.7V0H399.9v114.9c-37.5-36.8-91.2-62.5-145.1-62.5C114.3 52.4 0 168.1 0 310.2h106.9c0-80.2 69.4-148.1 147.9-148.1z"></path></svg>