<svg id="Layer_1" data-name="Layer 1" xmlns="http://www.w3.org/2000/svg" viewBox="0 0 612.28 612.28">   <path d="M487.51,344.09h122.35c1.54-12.44,2.43-25.09,2.43-37.95s-.89-25.5-2.43-37.95h-122.35c13.65-44.78,50.81-79.33,97.02-89.4-11.06-24.14-25.1-46.62-41.76-66.89-79.66,28.6-136.8,104.86-136.8,194.24s57.14,165.64,136.8,194.24c16.66-20.27,30.7-42.76,41.76-66.89-46.21-10.07-83.37-44.62-97.02-89.4Z"></path>   <path d="M306.14,206.33c89.38,0,165.64-57.14,194.24-136.8-20.27-16.66-42.76-30.7-66.89-41.76-10.07,46.21-44.62,83.38-89.4,97.02V2.43c-12.44-1.54-25.09-2.43-37.95-2.43s-25.51,.89-37.95,2.43V124.78c-44.78-13.65-79.33-50.81-89.4-97.02-24.14,11.06-46.62,25.1-66.89,41.76,28.6,79.66,104.86,136.81,194.24,136.81Z"></path>   <path d="M206.33,306.14c0-89.38-57.14-165.64-136.8-194.24-16.66,20.27-30.7,42.76-41.76,66.89,46.21,10.07,83.37,44.62,97.02,89.4H2.43c-1.54,12.44-2.43,25.09-2.43,37.95s.89,25.51,2.43,37.95H124.78c-13.65,44.78-50.81,79.33-97.02,89.4,11.06,24.14,25.1,46.62,41.76,66.89,79.66-28.6,136.8-104.86,136.8-194.24Z"></path>   <path d="M306.14,405.96c-89.38,0-165.64,57.14-194.24,136.81,20.27,16.66,42.76,30.7,66.89,41.76,10.07-46.21,44.62-83.38,89.4-97.02v122.36c12.44,1.54,25.09,2.43,37.95,2.43s25.51-.89,37.95-2.43v-122.36c44.78,13.65,79.33,50.81,89.4,97.02,24.14-11.06,46.62-25.1,66.89-41.76-28.6-79.66-104.86-136.8-194.24-136.8Z"></path>   <circle cx="306.14" cy="306.14" r="81.13"></circle> </svg>