<svg xmlns="http://www.w3.org/2000/svg" width="606.3" viewBox="0 0 606.3 509.3" height="509.3"><path d="M0 230.5c0 56.7 32.5 83.8 75.7 92.2.7.1.7 1 0 1.2C32.5 332.3 0 370.5 0 416.1c0 57.5 43.4 93.2 95.2 93.2h130.5V137.4h-126C47.9 137.4 0 178.7 0 230.5zM270.9 0c-33 0-64.9 11.8-90.1 33.1L58.7 137.4c10-5.9 24.9-9 35.5-9h135.1L357.7 0h-86.8zM530.7 185.6c-.7-.1-.7-1 0-1.2 43.2-8.3 75.7-46.3 75.7-91.7C606.4 35.5 563 0 511.2 0H380.5v370h126.1c51.8 0 99.7-41.2 99.7-92.7 0-56.4-32.5-83.4-75.6-91.7zM377 379L248.6 507.4h86.7c33 0 64.9-11.8 90.1-33.1L547.6 370c-10 5.9-24.9 9-35.5 9H377zM370.6 372.6V0L235.8 134.8V507.4z"></path></svg>