<svg data-name="Layer 1" xmlns="http://www.w3.org/2000/svg" viewBox="0 0 612.01 614.4"><path d="M527.08 498.84c-63.34 0-114.69-51.35-114.69-114.7H194.23c-63.34 0-114.7-51.35-114.7-114.7h229.39c63.34 0 114.69 51.35 114.69 114.7h181.06c3.29-12.75 5.69-25.85 7.33-39.19h-84.93c-63.34 0-114.69-51.35-114.69-114.7H194.23c-63.34 0-114.7-51.35-114.7-114.7h229.39c63.34 0 114.69 51.35 114.69 114.7h181.06C570.53 97.83 450.29 0 307.2 0 137.54 0 0 137.54 0 307.2s137.54 307.2 307.2 307.2c97.16 0 183.72-45.15 240.01-115.56h-20.13Z"></path></svg>