<svg data-name="Layer 1" xmlns="http://www.w3.org/2000/svg" viewBox="0 0 586.9 607.49"><path d="M256.95 125.56c0 20.15 16.33 36.48 36.48 36.48h.04c20.15 0 36.48-16.33 36.48-36.48s-16.33-36.48-36.48-36.48h-.04c-20.15 0-36.48 16.33-36.48 36.48Z"></path><circle cx="396.22" cy="125.56" r="36.48" transform="rotate(-67.5 396.22470907 125.55324946)"></circle><circle cx="550.42" cy="214.67" r="36.48"></circle><circle cx="499.02" cy="303.75" r="36.48"></circle><circle cx="499.02" cy="125.56" r="36.48" transform="rotate(-13.28 499.11580545 125.5791885)"></circle><circle cx="344.83" cy="36.48" r="36.48"></circle><circle cx="396.22" cy="481.94" r="36.48"></circle><circle cx="550.42" cy="392.86" r="36.48" transform="rotate(-45 550.41773655 392.85950855)"></circle><circle cx="447.62" cy="392.86" r="36.48" transform="rotate(-45 447.61814462 392.86049373)"></circle><circle cx="499.02" cy="481.94" r="36.48" transform="rotate(-45 499.02489204 481.93712175)"></circle><circle cx="344.83" cy="571.01" r="36.48"></circle><circle cx="190.68" cy="125.56" r="36.48" transform="rotate(-45 190.67452365 125.5500263)"></circle><circle cx="36.48" cy="214.67" r="36.48"></circle><circle cx="87.88" cy="303.75" r="36.48"></circle><circle cx="87.88" cy="125.56" r="36.48"></circle><circle cx="242.07" cy="36.48" r="36.48" transform="rotate(-13.28 242.10521465 36.49865807)"></circle><circle cx="190.68" cy="481.94" r="36.48" transform="rotate(-45 190.67232947 481.93093516)"></circle><path d="M345.53 481.94c0-16.41-7.65-31.05-19.56-40.6 5.86 2.29 12.2 3.59 18.86 3.59 28.7 0 52.05-23.35 52.05-52.06 0-16.49-7.73-31.19-19.73-40.74 5.91 2.34 12.33 3.67 19.07 3.67 28.71 0 52.06-23.35 52.06-52.06 0-16.43-7.67-31.09-19.6-40.64 5.88 2.31 12.25 3.62 18.94 3.62 28.71 0 52.06-23.35 52.06-52.06s-23.35-52.06-52.06-52.06c-26.02 0-47.58 19.21-51.4 44.18-3.81-24.98-25.37-44.2-51.4-44.2s-47.5 19.15-51.37 44.06c-3.87-24.91-25.4-44.06-51.38-44.06s-47.59 19.22-51.4 44.2c-3.82-24.97-25.38-44.18-51.4-44.18-28.71 0-52.06 23.35-52.06 52.06s23.35 52.06 52.06 52.06c6.69 0 13.06-1.31 18.94-3.62-11.93 9.55-19.6 24.2-19.6 40.64 0 28.7 23.35 52.06 52.06 52.06 6.74 0 13.16-1.33 19.07-3.67-12 9.55-19.73 24.25-19.73 40.74 0 28.7 23.35 52.06 52.05 52.06 6.66 0 13-1.3 18.86-3.59-11.9 9.55-19.56 24.19-19.56 40.6 0 28.7 23.35 52.06 52.06 52.06h.04c28.71 0 52.06-23.35 52.06-52.06Zm-.7-141.14c-6.82 0-13.33 1.36-19.31 3.75 10.21-8.08 17.3-19.89 19.24-33.36 1.94 13.42 8.97 25.2 19.13 33.27-5.91-2.34-12.33-3.67-19.06-3.67Zm-51.38 44.07c-2.04-13.13-8.95-24.65-18.88-32.62 5.82 2.26 12.13 3.55 18.74 3.55s13.33-1.36 19.31-3.76c-10.08 7.97-17.11 19.58-19.16 32.83Zm102.77-162.34c2.01 13.2 8.96 24.77 18.94 32.76-5.88-2.31-12.25-3.62-18.94-3.62s-13.09 1.32-18.98 3.63c10-7.99 16.96-19.57 18.98-32.78Zm-32.41 40.54c-10.11 8.08-17.11 19.83-19.04 33.22-1.94-13.44-9-25.23-19.17-33.31 5.96 2.38 12.44 3.73 19.23 3.73s13.09-1.32 18.98-3.64Zm-70.36-40.42c2.05 13.21 9.05 24.78 19.08 32.75-5.96-2.38-12.43-3.73-19.23-3.73s-12.86 1.28-18.66 3.52c9.89-7.96 16.77-19.45 18.8-32.54Zm-32.72 40.54c-9.79 7.88-16.63 19.22-18.74 32.14-2.12-12.99-9.03-24.38-18.9-32.26 5.89 2.32 12.28 3.63 18.98 3.63s12.86-1.28 18.66-3.52Zm-88.99-7.9c9.98-7.99 16.93-19.57 18.94-32.76 2.02 13.21 8.98 24.79 18.98 32.78-5.89-2.32-12.28-3.63-18.98-3.63s-13.06 1.31-18.94 3.62Zm51.27 89.17c9.91-7.88 16.85-19.29 18.98-32.32 2.12 12.95 8.99 24.31 18.81 32.19-5.82-2.26-12.12-3.54-18.73-3.54s-13.15 1.33-19.06 3.66Zm70.44 56.4c2.04 13.12 8.95 24.64 18.88 32.6-5.86-2.29-12.2-3.59-18.86-3.59h-.04c-6.66 0-13 1.3-18.86 3.59 9.93-7.96 16.84-19.48 18.88-32.6Z"></path><circle cx="36.48" cy="392.86" r="36.48" transform="rotate(-67.5 36.48370491 392.86723292)"></circle><circle cx="139.28" cy="392.86" r="36.48" transform="rotate(-45 139.27765312 392.85930714)"></circle><circle cx="87.88" cy="481.94" r="36.48"></circle><circle cx="242.07" cy="571.01" r="36.48" transform="rotate(-13.28 242.12027242 571.1309864)"></circle></svg>