<svg data-name="Layer 1" xmlns="http://www.w3.org/2000/svg" viewBox="0 0 607.12 588.54"><path d="M381.57 0c26.47 124.65 77.4 240.34 147.51 341.84-3.89-20.76-6.01-42.14-6.01-64.03 0-86.36 31.72-165.26 84.05-225.88V0H381.57Z"></path><path d="M361.19 0H0v63.15s28.06 72.44 95.2 173.36c70.26 105.63 124.06 223.64 150.73 352.03h361.19v-63.15s-41.04-96.57-95.2-173.36C438.81 248.35 387.86 128.38 361.19 0Z"></path><path d="M84.05 310.73c0 86.36-31.72 165.26-84.05 225.88v51.93h225.55C199.08 463.89 148.15 348.2 78.04 246.7c3.89 20.76 6.01 42.14 6.01 64.03Z"></path></svg>