<svg xmlns="http://www.w3.org/2000/svg" width="604.1" viewBox="0 0 604.1 604.1" height="604.1" xml:space="preserve"><path d="M480.9 0H123.2C55.2 0 0 55.2 0 123.2V481c0 67.9 55.2 123.2 123.2 123.2H481c67.9 0 123.2-55.2 123.2-123.2V123.2C604.1 55.2 548.8 0 480.9 0zm69.5 123.2v231.2h-75.9L343.7 53.7h137.2c38.3 0 69.5 31.1 69.5 69.5zM543 511.9 497.8 408h52.6v72.9c0 11.2-2.7 21.7-7.4 31zM328.9 154.1 416 354.3h-87.1V154.1zm-53.7 200.2h-87.1l87.1-200.2v200.2zm-152-300.6h137.2L129.6 354.3H53.7V123.2c0-38.4 31.1-69.5 69.5-69.5zM61.1 511.9c-4.7-9.3-7.4-19.8-7.4-31V408h52.6L61.1 511.9zm42.9 35.8L164.8 408h110.4v142.4h-152c-6.7 0-13.1-1-19.2-2.7zm224.9 2.7V408h110.4l60.8 139.7c-6.1 1.7-12.5 2.7-19.1 2.7H328.9z"></path></svg>