<svg data-name="Layer 1" xmlns="http://www.w3.org/2000/svg" viewBox="0 0 622.34 594.97"><path d="M311.17 199.02c54.96 0 99.51-44.55 99.51-99.51S366.13 0 311.17 0s-99.51 44.55-99.51 99.51 44.55 99.51 99.51 99.51ZM280.8 564.6h60.74l12.68-12.69h-86.1l12.68 12.69zM254.52 538.32h113.29l12.69-12.69H241.84l12.68 12.69z"></path><path d="M466.75 128.26 311.17 283.8 155.58 128.26 0 283.8l18.01 17.96h586.32l18.01-17.96-155.59-155.54zM44.29 328.09h533.76l12.73-12.74H31.55l12.74 12.74zM311.17 594.97l16.77-16.78h-33.55l16.78 16.78zM359.26 354.32h192.51l12.69-12.69H328.61c10.74 2.19 21.19 6.42 30.65 12.69ZM293.68 341.63H57.83l12.69 12.69h192.51c9.46-6.27 19.91-10.5 30.65-12.69ZM384.83 380.6h140.71l12.69-12.69H375.04c3.71 3.99 6.99 8.22 9.79 12.69ZM247.35 367.91H84.16l12.69 12.69h140.71c2.8-4.47 6.08-8.7 9.79-12.69ZM395.76 406.93h103.45l12.69-12.69H391.81c1.66 4.13 2.9 8.41 3.94 12.69ZM230.53 394.24H110.44l12.69 12.69h103.45c1-4.32 2.28-8.56 3.94-12.69ZM224.49 420.52h-87.77l12.69 12.69h75.08c-.29-4.23-.29-8.46 0-12.69ZM397.85 433.2h75.08l12.69-12.69h-87.77c.28 4.23.28 8.46 0 12.69ZM226.58 446.79H163l12.69 12.69h54.84c-1.66-4.13-2.9-8.41-3.94-12.69ZM391.81 459.48h54.84l12.69-12.69h-63.58c-1 4.32-2.28 8.56-3.94 12.69ZM237.51 473.07h-48.23l12.69 12.69h45.34c-3.71-3.99-6.99-8.22-9.79-12.69ZM374.99 485.76h45.34l12.69-12.69h-48.23c-2.8 4.47-6.08 8.7-9.79 12.69ZM263.08 499.35h-47.52l12.69 12.69h65.53c-10.79-2.19-21.24-6.41-30.7-12.69ZM328.51 512.04h65.53l12.69-12.69h-47.52c-9.46 6.32-19.91 10.5-30.7 12.69Z"></path></svg>