<svg xmlns="http://www.w3.org/2000/svg" width="558.9" viewBox="0 0 558.9 611.4" height="611.4" xml:space="preserve"><path d="M542.9 157.3c-28.2-50.8-86.1-74.9-140.1-62.5C388.2 40.3 338.4 0 279.4 0S170.6 40.3 156.1 94.8c-54-12.4-111.9 11.7-140.1 62.5-28.5 51.5-17.6 114.4 22.8 153.5-40.4 41-49.1 105.9-17.4 156.9 29.5 47.5 85.4 68.9 137.2 57 17.1 50.4 64.9 86.8 121 86.8 56.1 0 103.9-36.3 121-86.8 51.7 11.9 107.6-9.4 137.2-57 31.7-51 22.9-115.9-17.4-156.9 40.1-39.2 51-102.1 22.5-153.5zM358.2 357.1c-10.8 17.4-17.8 36-21.1 55.1-17.8-7.2-37.3-11.3-57.6-11.4-20.4.1-39.8 4.2-57.6 11.4-3.4-19-10.3-37.7-21.1-55.1-11.9-19.2-27.4-34.9-45-46.8 17.7-12.9 32.9-29.8 44.2-50.2 10.8-19.5 17-40.4 18.9-61.4 18.4 7.7 38.7 11.9 59.8 11.9h1.6c21.2 0 41.4-4.2 59.8-11.9 1.9 20.9 8.1 41.8 18.9 61.4 11.3 20.4 26.5 37.2 44.2 50.2-17.6 11.9-33.1 27.6-45 46.8zM489.3 187c17.1 30.8 6.9 69.6-22.5 88.2-22.4-7.1-42.3-22.5-54.5-44.6-12.6-22.8-14.9-48.6-8.4-71.9 31.2-14.1 68.6-2.2 85.4 28.3zM279.4 61.2c35.3 0 64.2 27.7 66.3 62.4-17.1 16.1-40.2 26.1-65.5 26.1h-1.6c-25.3 0-48.4-9.9-65.5-26.1 2.1-34.7 31.1-62.4 66.3-62.4zM69.5 187c16.9-30.4 54.3-42.4 85.4-28.3 6.5 23.3 4.2 49.1-8.4 71.9-12.3 22.1-32.1 37.5-54.5 44.6-29.4-18.7-39.6-57.4-22.5-88.2zm3.8 248.4c-18.4-29.5-10.6-68 16.9-88.4 23.5 5.7 44.9 20.2 58.7 42.3 12.7 20.4 16.7 43.8 13.1 65.9l-4.5 5.4c-30 13.8-66.3 3.5-84.2-25.2zm206.1 114.8c-34.7 0-63.3-26.7-66.2-60.7 17-16.9 40.4-27.5 66.2-27.7 25.8.3 49.2 10.8 66.2 27.7-2.9 34-31.5 60.7-66.2 60.7zm206.1-114.8c-17.9 28.7-54.2 39.1-84.2 25.2-1.4-1.8-2.9-3.6-4.5-5.4-3.6-22 .4-45.4 13.1-65.9 13.8-22.1 35.2-36.7 58.7-42.3 27.6 20.3 35.3 58.8 16.9 88.4z"></path></svg>