<svg xmlns="http://www.w3.org/2000/svg" width="619.8" viewBox="0 0 619.8 502" height="502" xml:space="preserve"><path d="M180.6 367.3C111 351 35.5 384.9 0 443.1c35.7-13.8 79.8-14.2 115.8-1.1 47 14.6 149.1 63 198.9 59.8 33 0 64.1-8.1 91.6-22.5 7.3-3.8 12.3-11.5 12.3-20.2 0-12.5-10.2-22.7-22.7-22.7v-3.7c43.9-11.5 76.5-51.7 76.5-99 0-56.3-46.1-102.4-102.4-102.4-22.4 0-43.2 7.3-60.2 19.7 26.5-3 50.4 18.5 50.3 45.1 0 25-20.4 45.4-45.4 45.4-10.5 0-20.3-3.6-28-9.7l-100.6-75C136.9 215.9 73.7 191.3 5 191.3v125.1c64.4 0 124.6 18.7 175.6 50.9zm179.3-119.4c0-3.8 3.1-6.8 6.8-6.8s6.8 3.1 6.8 6.8c0 3.8-3.1 6.8-6.8 6.8s-6.8-3.1-6.8-6.8z"></path><path d="M439.2 134.7c69.6 16.3 145-17.6 180.6-75.8C584.1 72.7 540 73.1 504 60 457 45.4 354.9-3 305.1.1c-33 0-64.1 8.1-91.6 22.5-7.3 3.8-12.3 11.5-12.3 20.2 0 12.5 10.2 22.7 22.7 22.7v3.7c-43.9 11.5-76.5 51.7-76.5 99 0 56.3 46.1 102.4 102.4 102.4 22.4 0 43.2-7.3 60.2-19.7-26.5 3-50.4-18.5-50.3-45.1 0-25 20.4-45.4 45.4-45.4 10.5 0 20.3 3.6 28 9.7l100.6 75c49.3 40.9 112.5 65.6 181.2 65.6V185.6c-64.5.1-124.7-18.6-175.7-50.9zM259.9 254.1c0 3.8-3.1 6.8-6.8 6.8s-6.8-3.1-6.8-6.8c0-3.8 3.1-6.8 6.8-6.8s6.8 3.1 6.8 6.8z"></path></svg>