<svg data-name="Layer 1" xmlns="http://www.w3.org/2000/svg" viewBox="0 0 601.25 601.25"><path d="M601.25 0H0v601.25h601.25V0Zm-45.78 45.78v139.38H416.09V45.78h139.38ZM230.93 230.93h107.01L230.93 337.94V230.93Zm-45.78 139.38h-107L185.16 263.3v107.01ZM370.31 263.3v107.01H263.3L370.31 263.3Zm45.78 0L523.1 370.31H416.09V263.3ZM370.31 45.77v139.39H230.93V45.78h139.38Zm-324.54 0h139.39v139.39H45.78V45.78Zm107.01 185.16L45.77 337.94V230.93h107.01Zm-107 324.54V416.09h139.38v139.38H45.78Zm185.16 0V416.09h139.38v139.38H230.93Zm324.54 0H416.1V416.09h139.38v139.38Zm0-217.53L448.47 230.93h107.01v107.01Z"></path></svg>