<svg data-name="Layer 1" xmlns="http://www.w3.org/2000/svg" viewBox="0 0 611.51 421.22"><path d="M565.98 95.82h-.03.03zM611.51 200.25l-410.82-10.99 407.77-10.25c-.02-.09-367.55-10.67-367.55-10.67L602.3 158.1l-321.17-10.74 311.66-10.11-271.44-10.86 257.95-10.34-217.73-10.63 200.98-9.44-160.76-10.84 139.56-9.04-99.34-10.19 75.59-7.3C462.64 22.34 388.11 0 305.95 0 136.98 0 0 94.29 0 210.61s136.98 210.61 305.95 210.61c82.07 0 156.52-22.28 211.47-58.49l-75.4-7.42 99.22-10.1-139.44-9.13 160.69-10.77-200.92-9.51 217.69-10.57-257.91-10.4 271.41-10.81-311.63-10.16 321.16-10.69-361.38-10.28 367.54-10.64-407.76-10.29 410.82-10.99-451.05-10.36 451.05-10.36Z"></path></svg>