<svg xmlns="http://www.w3.org/2000/svg" width="624.6" viewBox="0 0 624.6 487.1" height="487.1"><path d="M243.4 106h381.3V0H243.4C181.3-.2 120.5 24.1 75.7 66.9-9 145.6-24.8 280.2 39.3 376.2c45.8 71.3 130.3 115.2 215.1 110.6 106.7-3.8 189.7-82.8 264.2-153v139.9h106V144.5H237.8c-51.8 2.8-94 47.8-93.4 99.7-.6 54.4 45.5 100.5 99.9 99.9 52 .5 96.9-41.7 99.7-93.4h108.8c-50.7 45-103.9 103.2-168.7 124.2-48.1 15.3-103.2 1.5-138.3-34.8-85.7-86.2-24.2-234 97.6-234.1zm-5.7 224.9c-11-.8-21.7-3.7-31.4-8.5 7.7-10 19-16.6 31.4-18.3v26.8zm13.3-26.8c12.4 1.7 23.8 8.3 31.4 18.3-9.8 4.8-20.4 7.7-31.4 8.5v-26.8zm-13.3-119.7c-12.4-1.7-23.8-8.3-31.4-18.3 9.8-4.8 20.4-7.7 31.4-8.5v26.8zm0 53.3h-80c.9-12.6 4.6-24.7 10.6-35.6 20.7 13.7 44.5 21.5 69.4 22.7v12.9zm0 13.1V264c-24.9 1.2-48.6 8.9-69.3 22.6-6.1-10.9-9.8-23.1-10.7-35.8h80zm-42.8-78.1c10.1 13.9 25.7 22.9 42.8 24.8v14.1c-22.3-1.2-43.6-8.2-62.2-20.5 5.4-6.9 12.1-13.3 19.4-18.4zm-19.3 124.8c18.6-12.3 39.8-19.2 62-20.4v13.8c-17.1 1.9-32.6 10.9-42.8 24.8-7.1-5-13.8-11.3-19.2-18.2zm118.1 18.2c-10.1-13.9-25.7-22.9-42.8-24.8v-13.8c22.2 1.2 43.5 8.1 62 20.4-5.3 6.9-12 13.2-19.2 18.2zm26.5-29.1c-20.7-13.7-44.5-21.4-69.3-22.6v-13.2h80c-.8 12.3-4.5 24.7-10.7 35.8z"></path></svg>