<svg data-name="Layer 1" xmlns="http://www.w3.org/2000/svg" viewBox="0 0 620.45 620.45"><path d="M620.45 602.72H17.73V585h602.72v-17.73H17.73v-17.73h602.72v-17.73H17.73v-17.72h602.72v-17.73H17.73v-17.73h602.72v-17.72H17.73V390h514.45v-17.73H17.73v-17.73h514.45v-17.72H17.73v-17.73h514.45v-17.73H17.73v-17.73h514.45v-17.72H17.73v-17.73h514.45v-17.73H17.73v-70.91h602.72v-17.72H17.73v-17.73h602.72v-17.73H17.73V88.64h602.72V70.91H17.73V53.18h602.72V35.45H17.73V17.73h602.72V0H0v620.45h620.45v-17.73z"></path></svg>