<svg id="Layer_1" data-name="Layer 1" xmlns="http://www.w3.org/2000/svg" viewBox="0 0 620.95 620.95">   <path d="M453.21,586.17c56.88-29.51,103.44-76.07,132.95-132.95h-132.95v132.95Z"></path>   <path d="M618.51,272.1h-170.58c3.42,12.22,5.28,25.08,5.28,38.38v38.37h165.29c1.55-12.58,2.45-25.37,2.45-38.37s-.89-25.79-2.45-38.38Z"></path>   <path d="M348.85,310.48c0-21.16-17.21-38.38-38.37-38.38s-38.37,17.22-38.37,38.38c0,71.09,57.84,128.93,128.93,128.93h191.86c11.02-24.09,19.04-49.83,23.6-76.76h-215.47c-28.77,0-52.18-23.41-52.18-52.18Z"></path>   <path d="M376.47,183.97c30.28,15.86,54.19,42.27,66.83,74.32h173.21c-4.56-26.93-12.58-52.66-23.6-76.75h-191.86c-8.31,0-16.51,.87-24.57,2.43Z"></path>   <path d="M310.48,167.74c15.83,0,31.06,2.63,45.3,7.41,14.56-4.87,29.76-7.41,45.26-7.41h185.14C534.48,68.11,430.46,0,310.48,0,139.01,0,0,139,0,310.47c0,119.99,68.11,224.01,167.74,275.69V310.48c0-78.71,64.03-142.74,142.74-142.74Z"></path>   <path d="M310.48,258.29c28.77,0,52.18,23.41,52.18,52.18,0,21.16,17.22,38.37,38.38,38.37h38.37v-38.37c0-71.09-57.84-128.93-128.93-128.93s-128.93,57.84-128.93,128.93v282.42c24.09,11.02,49.83,19.04,76.75,23.6V310.48c0-28.77,23.41-52.18,52.18-52.18Z"></path>   <path d="M362.66,447.93v168.57c26.93-4.56,52.66-12.58,76.75-23.6v-139.68h-38.37c-13.3,0-26.16-1.87-38.38-5.28Z"></path>   <path d="M272.1,371.66v246.85c12.58,1.55,25.37,2.45,38.37,2.45s25.79-.89,38.37-2.45v-175.21c-33.74-13.3-61.24-39.07-76.75-71.63Z"></path> </svg>