<svg xmlns="http://www.w3.org/2000/svg" id="a" width="642" viewBox="0 0 642 642" height="642" data-name="Layer 1"><defs></defs><path d="M357.31 372.12a2.411 2.411 0 0 0 1.74 4.08c.58 0 1.11-.2 1.53-.54L642 145.73 358.25 426.04H212.76V280.55L501.19 0 265.26 276.24a2.411 2.411 0 0 0 3.35 3.44L574.8 0 325.1 277.32c-.39.43-.62.99-.62 1.61a2.411 2.411 0 0 0 3.93 1.87L642 5.47 358.09 309.93c-.4.43-.65 1.01-.65 1.64 0 1.33 1.08 2.41 2.41 2.41.54 0 1.05-.18 1.45-.49L641.99 74.72 357.3 372.11Z" class="b"></path><circle cx="169.75" cy="99.43" r="8.84" class="b"></circle><circle cx="89.94" cy="155.32" r="8.84" class="b"></circle><circle cx="34.06" cy="235.13" r="8.84" class="b"></circle><circle cx="8.84" cy="329.24" r="8.84" class="b"></circle><circle cx="17.33" cy="426.3" r="8.84" class="b"></circle><circle cx="58.51" cy="514.6" r="8.84" class="b"></circle><circle cx="127.4" cy="583.49" r="8.84" class="b"></circle><circle cx="215.7" cy="624.67" r="8.84" class="b"></circle><circle cx="312.76" cy="633.16" r="8.84" class="b"></circle><circle cx="406.87" cy="607.94" r="8.84" class="b"></circle><circle cx="486.68" cy="552.06" r="8.84" class="b"></circle><circle cx="542.57" cy="472.25" r="8.84" class="b"></circle><circle cx="567.78" cy="378.14" r="8.84" class="b"></circle><circle cx="559.29" cy="281.08" r="8.84" class="b"></circle><circle cx="360.92" cy="82.71" r="8.84" class="b"></circle><circle cx="263.86" cy="74.22" r="8.84" class="b"></circle></svg>