<svg data-name="Layer 1" xmlns="http://www.w3.org/2000/svg" viewBox="0 0 615.03 615.02"><path d="M144.61 235.04c-15.27 0-27.64 12.38-27.64 27.64v172.16c0 15.27 12.38 27.64 27.64 27.64s27.64-12.38 27.64-27.64V262.68c0-15.27-12.38-27.64-27.64-27.64ZM226.06 156.68c-15.27 0-27.64 12.38-27.64 27.64v250.52c0 15.27 12.38 27.64 27.64 27.64s27.64-12.38 27.64-27.64V184.32c0-15.27-12.38-27.64-27.64-27.64ZM307.51 77.07c-15.27 0-27.64 12.38-27.64 27.64v330.13c0 15.27 12.38 27.64 27.64 27.64s27.64-12.38 27.64-27.64V104.71c0-15.27-12.38-27.64-27.64-27.64ZM388.96 156.68c-15.27 0-27.64 12.38-27.64 27.64v250.52c0 15.27 12.38 27.64 27.64 27.64s27.64-12.38 27.64-27.64V184.32c0-15.27-12.38-27.64-27.64-27.64ZM470.42 235.04c-15.27 0-27.64 12.38-27.64 27.64v172.16c0 15.27 12.38 27.64 27.64 27.64s27.64-12.38 27.64-27.64V262.68c0-15.27-12.38-27.64-27.64-27.64Z"></path><path d="M307.51 0C137.95 0 0 137.95 0 307.51s137.95 307.51 307.51 307.51 307.51-137.95 307.51-307.51S477.08 0 307.51 0Zm0 581.24c-150.93 0-273.73-122.79-273.73-273.73S156.58 33.78 307.51 33.78 581.24 156.57 581.24 307.5 458.45 581.23 307.51 581.23Z"></path></svg>