<svg xmlns="http://www.w3.org/2000/svg" width="642" viewBox="0 0 642 642" height="642" style="overflow:visible;enable-background:new 0 0 642 642" xml:space="preserve"><path d="M642 0H359.6c-25.9 0-47 8.5-63.9 25.3L25.4 295.6C7.5 313.5-1 337.3.1 361.1v280.8h280.8c23.9 1.1 47.6-7.4 65.5-25.3l270.3-270.3c16.8-16.9 25.3-38 25.3-63.9V0zM48 318.3 270.8 95.6c2.6 36.5 33.8 73 77.3 77.3L125.4 395.6c-21.3 21.3-56 21.3-77.3 0s-21.3-56-.1-77.3zm41 291.5L32.2 553V424.4c22 16.7 45.6 22.1 69.3 18-4.3 25.5 3.7 53.9 23.9 74.2 20.3 20.3 48.7 28.2 74.2 23.9-4.1 23.6 1.3 47.3 18 69.3H89zM323.7 594c-21.3 21.2-56 21.2-77.3-.1-21.3-21.3-21.3-56 0-77.3l222.7-222.7c4.3 43.5 40.8 74.7 77.3 77.3L323.7 594zm-5.3-546c11.4-11.4 26.5-16.6 41.3-15.9 61.6 0 250.1-.1 250.1-.1v250.2c3.3 42.8-46.7 74-84.9 48-18-12.3-22.9-35.2-24.2-51v-62.5l-277 277c-20.8 20.8-54.8 20.9-75.6 0-20.9-20.9-20.8-54.8 0-75.6l277-277h-64.4c-50.2.2-77.8-57.6-42.3-93.1"></path></svg>