<svg data-name="Layer 1" xmlns="http://www.w3.org/2000/svg" viewBox="0 0 617.72 593.75"><path d="M439.86 22.52A310.467 310.467 0 0 0 370.26 0l-52.33 296.87 52.33 296.87a310.467 310.467 0 0 0 69.6-22.52c105.08-48.31 177.86-152.98 177.86-274.35S544.94 70.83 439.86 22.52Zm-12.69 468.34-30.64-193.99 30.64-193.99c67.83 39.4 113.4 111.59 113.4 193.99s-45.56 154.59-113.4 193.99ZM0 296.87c0 121.37 72.79 226.04 177.86 274.35a310.467 310.467 0 0 0 69.6 22.52l52.33-296.87L247.46 0a310.467 310.467 0 0 0-69.6 22.52C72.79 70.83 0 175.5 0 296.87Zm77.16 0c0-82.4 45.56-154.59 113.4-193.99l30.64 193.99-30.64 193.99c-67.83-39.4-113.4-111.59-113.4-193.99Z"></path></svg>