<svg data-name="Layer 1" xmlns="http://www.w3.org/2000/svg" viewBox="0 0 613.52 599.58"><path d="M306.76 0C137.61 0 0 137.6 0 306.74 0 436.76 82.37 553.1 204.97 596.21c6.41 2.25 12.99 3.36 19.52 3.36 11.97 0 23.76-3.73 34.04-11.01 16.02-11.36 25.57-29.81 25.57-49.39v-71.25c0-29.67-24.15-53.82-53.82-53.82H148.8c-18.17 0-34-9.62-42.37-25.74-8.37-16.12-7.13-34.61 3.32-49.45l10.37-14.75 35.59 37.47 52.1-50.02 46.36 50.2 52.13-50.33.47.49.47-.49 52.13 50.33 46.36-50.2 52.1 50.02 35.59-37.47 10.37 14.75c10.45 14.84 11.69 33.33 3.32 49.45-8.37 16.12-24.2 25.74-42.37 25.74h-81.48c-29.67 0-53.82 24.15-53.82 53.82v71.25c0 19.58 9.55 38.03 25.57 49.39 10.28 7.28 22.07 11.01 34.04 11.01 6.54 0 13.11-1.11 19.52-3.36 122.6-43.11 204.97-159.45 204.97-289.47C613.52 137.6 475.91 0 306.76 0Zm150.05 318.33L404.4 268l-46.3 50.15-51.34-49.56-51.34 49.56-46.3-50.15-52.41 50.33-18.66-19.65 67.37-95.8 48.75 52.79 52.13-50.33.47.49.47-.49 52.13 50.33 48.75-52.79 67.37 95.8-18.66 19.65ZM223.39 177.32l48.07-68.35c8.29-11.78 21.07-18.6 35.3-19.43 14.23.82 27.01 7.65 35.3 19.43l48.07 68.35-32.02 34.67-51.34-49.56-51.34 49.56-32.02-34.67Zm174.39 388.29c-8.13 2.85-16.89 1.55-24.03-3.52-7.56-5.35-11.9-13.7-11.9-22.91v-71.25c0-11.79 9.6-21.39 21.39-21.39h81.48c30.04 0 57.32-16.56 71.16-43.23 13.85-26.67 11.72-58.49-5.57-83.06L368.59 90.31c-14.24-20.25-37.2-32.52-61.84-33.38-24.64.86-47.6 13.13-61.84 33.38L83.21 320.26c-17.28 24.57-19.42 56.4-5.57 83.06 13.84 26.67 41.12 43.23 71.16 43.23h81.48c11.79 0 21.39 9.6 21.39 21.39v71.25c0 9.21-4.34 17.56-11.9 22.91-7.15 5.07-15.9 6.36-24.03 3.52-109.63-38.56-183.3-142.58-183.3-258.86 0-151.25 123.06-274.31 274.32-274.31s274.32 123.06 274.32 274.31c0 116.28-73.67 220.3-183.3 258.86Z"></path></svg>