<svg xmlns="http://www.w3.org/2000/svg" width="642" viewBox="0 0 642 642" height="642" style="overflow:visible;enable-background:new 0 0 642 642" xml:space="preserve"><path d="M343.5 0v207c0 12.3-3.5 23.8-9.6 33.4-6.1-9.6-9.6-21.1-9.6-33.4V0h19.2zM317.8 0v207c0 12.3-3.5 23.8-9.6 33.4-6.1-9.6-9.6-21.1-9.6-33.4V0h19.2zM54.2 141l179.3 103.5c10.7 6.2 18.8 14.9 24.1 25-11.4.5-23.1-2.2-33.7-8.4L44.6 157.7l9.6-16.7zM41.4 163.3l179.3 103.5c10.7 6.2 18.8 14.9 24.1 25-11.4.5-23.1-2.2-33.7-8.4L31.8 180l9.6-16.7zM31.8 462 211 358.6c10.7-6.2 22.3-8.8 33.7-8.4-5.3 10.1-13.4 18.9-24.1 25L41.4 478.7 31.8 462zM44.6 484.3l179.3-103.5c10.7-6.2 22.3-8.8 33.7-8.4-5.3 10.1-13.4 18.9-24.1 25L54.2 501l-9.6-16.7zM298.5 642V435c0-12.3 3.5-23.8 9.6-33.4 6.1 9.6 9.6 21.1 9.6 33.4v207h-19.2zM324.2 642V435c0-12.3 3.5-23.8 9.6-33.4 6.1 9.6 9.6 21.1 9.6 33.4v207h-19.2zM587.8 501 408.5 397.5c-10.7-6.2-18.8-14.9-24.1-25 11.4-.5 23.1 2.2 33.7 8.4l179.3 103.5-9.6 16.6zM600.6 478.7 421.3 375.2c-10.7-6.2-18.8-14.9-24.1-25 11.4-.5 23.1 2.2 33.7 8.4L610.2 462l-9.6 16.7zM610.2 180 431 283.4c-10.7 6.2-22.3 8.8-33.7 8.4 5.3-10.1 13.4-18.9 24.1-25l179.3-103.5 9.5 16.7zM597.4 157.7 418.1 261.2c-10.7 6.2-22.3 8.8-33.7 8.4 5.3-10.1 13.4-18.9 24.1-25L587.8 141l9.6 16.7zM642 324.2v19.3H366c-6.7-.5-13-3.9-17.3-9.6 4.2-5.7 10.6-9.1 17.3-9.6h276zM642 317.8v-19.3H366c-6.7.5-13 3.9-17.3 9.6 4.2 5.7 10.6 9.1 17.3 9.6h276zM484.3 44.6l16.7 9.6-138 239c-3.8 5.5-9.9 9.3-17 10.1-2.8-6.5-2.6-13.7.3-19.8l138-238.9zM478.7 41.4 462 31.8l-138 239c-2.9 6-3.1 13.2-.3 19.8 7.1-.8 13.2-4.6 17-10.1l138-239.1zM163.3 41.4l16.7-9.6 138 239c2.9 6 3.1 13.2.3 19.8-7.1-.8-13.2-4.6-17-10.1l-138-239.1zM157.7 44.6 141 54.2l138 239c3.8 5.5 9.9 9.3 17 10.1 2.8-6.5 2.6-13.7-.3-19.8l-138-238.9zM0 317.8v-19.3h276c6.7.5 13 3.9 17.3 9.6-4.2 5.7-10.6 9.1-17.3 9.6H0zM0 324.2v19.3h276c6.7-.5 13-3.9 17.3-9.6-4.2-5.7-10.6-9.1-17.3-9.6H0zM157.7 597.4l-16.7-9.6 138-239c3.8-5.5 9.9-9.3 17-10.1 2.8 6.5 2.6 13.7-.3 19.8l-138 238.9zM163.3 600.6l16.7 9.6 138-239c2.9-6 3.1-13.2.3-19.8-7.1.8-13.2 4.6-17 10.1l-138 239.1zM478.7 600.6l-16.7 9.6-138-239c-2.9-6-3.1-13.2-.3-19.8 7.1.8 13.2 4.6 17 10.1l138 239.1zM484.3 597.4l16.7-9.6-138-239c-3.8-5.5-9.9-9.3-17-10.1-2.8 6.5-2.6 13.7.3 19.8l138 238.9z"></path><g><path d="M401 10.1c-.2.7-35.3 131.8-35.1 131.1-2.4 8.7-7.4 16.4-14 22.3-5-10.2-6.3-22.2-2.9-33.7C383 2.7 325.7 217 382.4 5.2l18.6 4.9zM425.8 16.8c-55.9 208.9 2.9-10.7-33.3 124.4-2.8 11.9-10 21.8-19.5 28.1-2.8-8.4-3.1-17.7-.8-26.5 14.2-52.9-7.7 28.5 35.1-130.9l18.5 4.9z"></path></g><g><path d="M234.8 11.7c.2.7 35.3 131.8 35.1 131.1 2.3 8.8 1.8 17.9-1 26.3-9.4-6.3-16.6-16.1-19.4-27.7-33.9-127.1 23.5 87.1-33.3-124.6l18.6-5.1zM259.6 5.1c56 208.8-2.9-10.7 33.3 124.4 3.5 11.7 2.3 23.8-2.9 34.1-6.6-5.9-11.6-13.7-14-22.5-14.2-52.9 7.6 28.5-35.1-130.9l18.7-5.1z"></path></g><g><path d="m91.7 96.3 96 96c6.3 6.5 10.5 14.6 12.3 23.3-11.3-.8-22.4-5.7-30.6-14.4L78.2 110l13.5-13.7zM109.9 78.1l91 91c8.9 8.3 13.9 19.5 14.5 30.9-8.7-1.8-16.9-6.1-23.4-12.5-38.8-38.8 20.8 20.9-95.8-95.8l13.7-13.6z"></path></g><g><path d="M10.1 241c.7.2 131.8 35.3 131.1 35.1 8.7 2.4 16.4 7.4 22.3 14-10.2 5-22.2 6.3-33.7 2.9-127.1-34 87.1 23.3-124.7-33.4l5-18.6zM16.8 216.2c208.9 55.9-10.7-2.9 124.4 33.3 11.9 2.8 21.8 10 28.1 19.5-8.4 2.8-17.7 3.1-26.5.8-52.9-14.2 28.5 7.7-130.9-35.1l4.9-18.5z"></path></g><g><path d="M11.7 407.2c.7-.2 131.8-35.3 131.1-35.1 8.8-2.3 17.9-1.8 26.3 1-6.3 9.4-16.1 16.6-27.7 19.4-127.1 33.9 87.1-23.5-124.6 33.3l-5.1-18.6zM5.1 382.4c208.8-56-10.7 2.9 124.4-33.3 11.7-3.5 23.8-2.3 34.1 2.9-5.9 6.6-13.7 11.6-22.5 14-52.9 14.2 28.5-7.6-130.9 35.1l-5.1-18.7z"></path></g><g><path d="m96.3 550.3 96-96c6.5-6.3 14.6-10.5 23.3-12.3-.8 11.3-5.7 22.4-14.4 30.6L110 563.8l-13.7-13.5zM78.1 532.1l91-91c8.3-8.9 19.5-13.9 30.9-14.5-1.8 8.7-6.1 16.9-12.5 23.4-38.8 38.8 20.9-20.8-95.8 95.8l-13.6-13.7z"></path></g><g><path d="M241 631.9c.2-.7 35.3-131.8 35.1-131.1 2.4-8.7 7.4-16.4 14-22.3 5 10.2 6.3 22.2 2.9 33.7-34 127.1 23.3-87.2-33.4 124.6l-18.6-4.9zM216.2 625.2c55.9-208.9-2.9 10.7 33.3-124.4 2.8-11.9 10-21.8 19.5-28.1 2.8 8.4 3.1 17.7.8 26.5-14.2 52.9 7.7-28.5-35.1 130.9l-18.5-4.9z"></path></g><g><path d="M407.2 630.3c-.2-.7-35.3-131.8-35.1-131.1-2.3-8.8-1.8-17.9 1-26.3 9.4 6.3 16.6 16.1 19.4 27.7 34.1 127.1-23.4-87.2 33.4 124.6l-18.7 5.1zM382.4 636.9c-56-208.8 2.9 10.7-33.3-124.4-3.5-11.7-2.3-23.8 2.9-34.1 6.6 5.9 11.6 13.7 14 22.5 14.2 52.9-7.6-28.5 35.1 130.9l-18.7 5.1z"></path></g><g><path d="m550.3 545.7-96-96c-6.3-6.5-10.5-14.6-12.3-23.3 11.3.8 22.4 5.7 30.6 14.4l91.2 91.2-13.5 13.7zM532.1 563.9l-91-91c-8.9-8.3-13.9-19.5-14.5-30.9 8.7 1.8 16.9 6.1 23.4 12.5 38.8 38.8-20.8-20.9 95.8 95.8l-13.7 13.6z"></path></g><g><path d="M631.9 401c-.7-.2-131.8-35.3-131.1-35.1-8.7-2.4-16.4-7.4-22.3-14 10.2-5 22.2-6.3 33.7-2.9 127.1 34-87.2-23.3 124.6 33.4l-4.9 18.6zM625.2 425.8c-208.9-55.9 10.7 2.9-124.4-33.3-11.9-2.8-21.8-10-28.1-19.5 8.4-2.8 17.7-3.1 26.5-.8 52.9 14.2-28.5-7.7 130.9 35.1l-4.9 18.5z"></path></g><g><path d="M630.3 234.8c-.7.2-131.8 35.3-131.1 35.1-8.8 2.3-17.9 1.8-26.3-1 6.3-9.4 16.1-16.6 27.7-19.4 127.1-34.1-87.2 23.4 124.6-33.4l5.1 18.7zM636.9 259.6c-208.8 56 10.7-2.9-124.4 33.3-11.7 3.5-23.8 2.3-34.1-2.9 5.9-6.6 13.7-11.6 22.5-14 52.9-14.2-28.5 7.6 130.9-35.1l5.1 18.7z"></path></g><g><path d="m545.7 91.7-96 96c-6.5 6.3-14.6 10.5-23.3 12.3.8-11.3 5.7-22.4 14.4-30.6L532 78.2l13.7 13.5zM563.9 109.9l-91 91c-8.3 8.9-19.5 13.9-30.9 14.5 1.8-8.7 6.1-16.9 12.5-23.4 38.8-38.8-20.9 20.8 95.8-95.8l13.6 13.7z"></path></g></svg>