<svg data-name="Layer 1" xmlns="http://www.w3.org/2000/svg" viewBox="0 0 616.05 615.92"><path d="M310.65 0v615.92c168.9-1.42 305.4-138.72 305.4-307.96S479.55 1.42 310.65 0Zm16.33 13.31 69.11 69.11v192.85l69.98-69.98 95.94-.02L326.98 440.3V13.31Zm91.34 454.54 77.25 77.25-103.19-1.07-64.9-64.9v-16.35l257.53-257.51-1.41 97.31-165.27 165.28ZM304.77.02C136.16 1.77 0 138.93 0 307.96S136.16 614.15 304.77 615.9V.02Zm-16.2 479.13-63.18 63.18-101.08-1.05 73.41-73.41L32.46 302.58l-1.41-97.31L288.58 462.8v16.35ZM54.04 205.27h95.92l70.01 70.01V82.42l69.11-69.11V440.3L54.04 205.27Z"></path></svg>