<svg xmlns="http://www.w3.org/2000/svg" width="542.5" viewBox="0 0 542.5 642" height="642" style="overflow:visible;enable-background:new 0 0 542.5 642" xml:space="preserve"><path d="M529.2 404.6 302.9 629c-17.5 17.4-45.8 17.4-63.3 0L13.3 404.6C4.8 396.2 0 384.7 0 372.7V250c0-12.7 5.4-24.8 14.8-33.3l226.3-205c17.1-15.5 43.2-15.5 60.3 0l226.3 205c9.4 8.5 14.8 20.6 14.8 33.3v122.7c0 12-4.8 23.4-13.3 31.9zM65.8 265.9l190.9 184.4c8.1 7.8 20.9 7.8 29 0l190.9-184.4c8.7-8.4 8.5-22.4-.5-30.5L285.2 63.5c-7.9-7.1-20-7.1-27.9 0L66.4 235.4c-9 8.1-9.3 22.1-.6 30.5z"></path><path d="M434.9 240.7V260c0 8.9-7.2 16-16 16h-114c-4.4 0-8 3.6-8 8v99.5c0 8.9-7.2 16-16 16h-19.3c-8.9 0-16-7.2-16-16V284c0-4.4-3.6-8-8-8h-114c-8.9 0-16-7.2-16-16v-19.3c0-8.9 7.2-16 16-16h113.9c4.4 0 8-3.6 8-8v-99.5c0-8.9 7.2-16 16-16h19.3c8.9 0 16 7.2 16 16v99.5c0 4.4 3.6 8 8 8h113.9c9 0 16.2 7.2 16.2 16z"></path></svg>