<svg id="Layer_1" data-name="Layer 1" xmlns="http://www.w3.org/2000/svg" viewBox="0 0 603 602.93">   <path d="M407.91,301.5c0-58.67-47.73-106.4-106.4-106.4s-106.4,47.73-106.4,106.4,47.73,106.4,106.4,106.4,106.4-47.73,106.4-106.4Zm-80.97-38.14c5.69,3.72,10.55,8.59,14.28,14.28h-14.28v-14.28Zm0,67.93h14.28c-3.72,5.69-8.59,10.55-14.28,14.28v-14.28Zm-53.66,14.28c-5.69-3.72-10.55-8.59-14.28-14.28h14.28v14.28Zm0-67.93h-14.28c3.72-5.69,8.59-10.55,14.28-14.28v14.28Z"></path>   <path d="M183.49,301.5c0-65.07,52.94-118.02,118.02-118.02s118.02,52.94,118.02,118.02-49.82,114.83-112.21,117.87v51.52c90.78-3.07,163.69-77.87,163.69-169.39s-76.04-169.5-169.5-169.5-169.5,76.04-169.5,169.5,72.91,166.32,163.69,169.39v-51.52c-62.39-3.04-112.21-54.74-112.21-117.87Z"></path>   <path d="M301.5,0C134.99,0,0,134.99,0,301.5s131.86,298.33,295.7,301.43v-57.29c-131.99-3.1-238.4-111.42-238.4-244.14S166.84,57.29,301.5,57.29s244.21,109.55,244.21,244.21-106.42,241.04-238.4,244.14v57.29c163.83-3.1,295.7-136.86,295.7-301.43S468.02,0,301.5,0Z"></path>   <path d="M534.1,301.5c0-128.25-104.34-232.6-232.6-232.6S68.9,173.25,68.9,301.5s101.21,229.43,226.79,232.52v-51.51c-97.19-3.08-175.31-83.09-175.31-181.01S201.64,120.39,301.5,120.39s181.11,81.25,181.11,181.11-78.12,177.93-175.31,181.01v51.51c125.58-3.09,226.79-106.21,226.79-232.52Z"></path> </svg>