<svg data-name="Layer 1" xmlns="http://www.w3.org/2000/svg" viewBox="0 0 604.31 605.37"><path d="M0 302.68C0 461.7 122.17 592.11 277.76 605.36V138.4H136.82v46.98h93.96v363.63c-106.27-31.48-183.8-129.85-183.8-246.34 0-133.06 101.17-242.49 230.78-255.58V0C122.17 13.25 0 143.66 0 302.68ZM604.31 302.68c0 159.02-122.17 289.43-277.76 302.68V138.4H467.5v46.98h-93.96v363.63c106.27-31.48 183.8-129.85 183.8-246.34 0-133.06-101.17-242.49-230.78-255.58V0c155.59 13.25 277.76 143.66 277.76 302.68Z"></path></svg>