<svg xmlns="http://www.w3.org/2000/svg" width="663.2" viewBox="0 0 663.2 623.9" height="623.9" xml:space="preserve" style="enable-background:new 0 0 663.2 623.9"><path d="M662.3 352.7h.9c-.1-.3-.2-.7-.3-1l-.6 1z" style="fill:red"></path><path d="M0 218.2v75h147.3v-67.1c0-43.5 35.2-78.7 78.7-78.7h71.6V0h-79.5C97.7 0 0 97.7 0 218.2zM147.3 397.8v-76.1H0v84c0 120.5 97.7 218.2 218.2 218.2h79.5V476.5h-71.6c-43.5 0-78.8-35.2-78.8-78.7zM405.7 0h-79.5v147.3h71.6c42.3 0 76.9 33.4 78.6 75.4h147.4v-4.5C623.9 97.7 526.2 0 405.7 0zM326.2 251.2v147.4h150.3c-.4 43.1-35.5 78-78.7 78h-71.6v147.3h79.5c120.5 0 218.2-97.7 218.2-218.2V251.2H326.2z"></path></svg>