<svg data-name="Layer 1" xmlns="http://www.w3.org/2000/svg" viewBox="0 0 619.06 619.06"><path d="M271.15 78.09 349.24 0H0v540.96h347.91l-78.09 78.09h349.24V78.09H271.15Zm77.03 462.61L78.36 270.88 270.88 78.36 540.7 348.18 348.17 540.71Z"></path><path d="M208.51 383.27c22.88 30.24 59.05 49.86 99.9 49.86s77.02-19.63 99.9-49.87c-29.54-16.69-63.61-26.27-99.9-26.27s-70.36 9.58-99.9 26.27Z"></path><path d="M202.72 374.98c31.2-17.82 67.26-28.06 105.69-28.06s74.49 10.24 105.69 28.05c11.75-18.44 18.77-40.13 19.46-63.45H183.25c.69 23.32 7.71 45.01 19.46 63.45ZM208.51 232.31c29.54 16.69 63.62 26.27 99.9 26.27s70.36-9.58 99.9-26.27c-22.88-30.24-59.05-49.87-99.9-49.87s-77.02 19.62-99.9 49.86Z"></path><path d="M202.72 240.6c-11.31 17.76-18.21 38.53-19.33 60.86h250.05c-1.12-22.34-8.02-43.11-19.33-60.86-31.2 17.82-67.26 28.05-105.69 28.05s-74.49-10.24-105.69-28.06Z"></path></svg>