<svg xmlns="http://www.w3.org/2000/svg" width="642" viewBox="0 0 642 642" height="642" style="overflow:visible;enable-background:new 0 0 642 642" xml:space="preserve"><path d="M642 369.1H385.2v-96.3H642zM83.5 0h96.3v256.8H83.5zM272.9 0h96.3v67.4h-96.3zM83.5 385.2h96.3V642H83.5zM0 272.9h256.8v96.3H0zM195.8 83.5h250.4v96.3H195.8zM0 83.5h67.4v96.3H0zM641.99 179.72h-67.4v-96.3h67.4zM558.58 256.8h-96.3V0h96.3zM558.58 642h-96.3V385.2h96.3zM369.1 446.2h-96.3V195.8h96.3zM446.2 558.58H195.8v-96.3h250.4zM369.1 641.99h-96.3v-67.4h96.3zM0 462.2h67.4v96.3H0zM574.6 462.2H642v96.3h-67.4z"></path></svg>