<svg xmlns="http://www.w3.org/2000/svg" width="623" viewBox="0 0 623 622.7" height="622.7" xml:space="preserve" style="enable-background:new 0 0 623 622.7"><path d="M623 287.6h-49l46.4-47.6-138.7-138.8V0H288.9v50.4L241.5 4.2 102.8 142.9H0v192.8h49.7l-45.8 47 138.7 138.7v101.2h192.8v-50L383 619l138.7-138.7H623V287.6zm-70.2-47.2-71.1 73.1V169.3l71.1 71.1zM337 48.1h96.6v239.5H337V191h96.4L337 97.2V48.1zM287.6 191v96h-96.8v-96h96.8zM241.9 71.8l73.1 71.1H170.8l71.1-71.1zM48.1 287.6V191h142.5l-94 96.6H48.1zm23.4 94.7 71.1-73.1v144.2l-71.1-71.1zm215.8 192.3h-96.6V335.7h96.6v96.6h-96.1l96.1 93.6v48.7zm95.3-23.1-73.1-71.1h144.2l-71.1 71.1zm192.3-119.2H335.4v-96.6h98.2v96.1l93.6-96.1h47.7v96.6z"></path></svg>