<svg data-name="Layer 1" xmlns="http://www.w3.org/2000/svg" viewBox="0 0 617.38 617.38"><path d="M151.8 303.61h313.77c83.7 0 151.8-68.1 151.8-151.81S549.28 0 465.57 0 313.76 68.1 313.76 151.81v83.63H303.6v-83.63C303.61 68.1 235.51 0 151.8 0S0 68.1 0 151.81s68.1 151.81 151.8 151.81ZM381.94 151.8c0-46.11 37.52-83.63 83.64-83.63s83.63 37.52 83.63 83.63-37.52 83.63-83.63 83.63h-83.64V151.8ZM151.8 68.17c46.12 0 83.64 37.52 83.64 83.63v83.63H151.8c-46.11 0-83.63-37.52-83.63-83.63s37.52-83.63 83.63-83.63ZM465.57 313.77H151.8C68.1 313.77 0 381.87 0 465.57s68.1 151.8 151.8 151.8 151.81-68.1 151.81-151.8v-83.64h10.16v83.64c0 83.7 68.1 151.8 151.81 151.8s151.8-68.1 151.8-151.8-68.1-151.81-151.8-151.81ZM235.43 465.58c0 46.11-37.52 83.63-83.64 83.63s-83.63-37.52-83.63-83.63 37.52-83.64 83.63-83.64h83.64v83.64Zm230.14 83.63c-46.12 0-83.64-37.52-83.64-83.63v-83.64h83.64c46.11 0 83.63 37.52 83.63 83.64s-37.52 83.63-83.63 83.63Z"></path></svg>