<svg data-name="Layer 1" xmlns="http://www.w3.org/2000/svg" viewBox="0 0 565.3 619.41"><path d="M416.95 603.45c-30.63 0-55.46-24.83-55.46-55.46 0-22.73 13.69-42.24 33.26-50.81l-93.92-67.31L468.51 309.7 300.83 189.53l93.92-67.31c-19.57-8.56-33.26-28.08-33.26-50.81 0-30.63 24.83-55.46 55.46-55.46 29.05 0 52.84 22.35 55.22 50.78L565.3 0H264.47l-45.93 32.92c9.64 9.98 15.59 23.53 15.59 38.5 0 30.63-24.83 55.46-55.46 55.46-21.47 0-40.06-12.23-49.27-30.08L0 189.53l130.17 93.29c9.46-17.04 27.62-28.58 48.5-28.58 30.63 0 55.46 24.83 55.46 55.46s-24.83 55.46-55.46 55.46c-20.87 0-39.03-11.54-48.5-28.58L0 429.87l129.39 92.73c9.22-17.85 27.8-30.08 49.27-30.08 30.63 0 55.46 24.83 55.46 55.46 0 14.97-5.96 28.52-15.59 38.5l45.93 32.92h300.83l-93.13-66.74c-2.38 28.44-26.17 50.78-55.22 50.78ZM178.66 484.31c-30.63 0-55.46-24.83-55.46-55.46s24.83-55.46 55.46-55.46 55.46 24.83 55.46 55.46-24.83 55.46-55.46 55.46Zm0-238.29c-30.63 0-55.46-24.83-55.46-55.46s24.83-55.46 55.46-55.46 55.46 24.83 55.46 55.46-24.83 55.46-55.46 55.46ZM297.81 15.96c30.63 0 55.46 24.83 55.46 55.46s-24.83 55.46-55.46 55.46-55.46-24.83-55.46-55.46 24.83-55.46 55.46-55.46Zm0 238.29c30.63 0 55.46 24.83 55.46 55.46s-24.83 55.46-55.46 55.46-55.46-24.83-55.46-55.46 24.83-55.46 55.46-55.46Zm0 349.21c-30.63 0-55.46-24.83-55.46-55.46s24.83-55.46 55.46-55.46 55.46 24.83 55.46 55.46-24.83 55.46-55.46 55.46Z"></path></svg>