<svg xmlns="http://www.w3.org/2000/svg" width="340" viewBox="0 0 340 602.1" height="602.1" xml:space="preserve"><path d="M143.5 206.7c35.4 0 64.1-28.8 64.1-64.1 0-35.4-28.8-64.1-64.1-64.1s-64.1 28.8-64.1 64.1c-.1 35.3 28.7 64.1 64.1 64.1zm0-83.8c10.8 0 19.6 8.8 19.6 19.6s-8.8 19.6-19.6 19.6-19.6-8.8-19.6-19.6 8.8-19.6 19.6-19.6z"></path><path d="M119.9 285c7.8 1.3 15.8 2 23.6 2 79.1 0 143.5-64.4 143.5-143.5S222.6 0 143.5 0 0 64.4 0 143.5v458.6h44.5V458.4l99.3 143 .5.7h54.2l-154-221.8v-24.1l170.2 245.2.5.7h54.2l-224.9-324v-23.6l240.8 346.9.5.7H340L119.9 285zm23.6-240.5c54.6 0 98.9 44.4 98.9 98.9s-44.4 98.9-98.9 98.9-99-44.3-99-98.8 44.4-99 99-99z"></path></svg>