<svg xmlns="http://www.w3.org/2000/svg" width="603.2" viewBox="0 0 603.2 331.9" height="331.9" xml:space="preserve"><path d="M267 6.6c-.8-3.8-4.1-6.6-8.1-6.6h-79.7c-4 0-7.4 2.9-8.1 6.6h-.2v1.7h.2c.8 3.8 4.1 6.6 8.1 6.6h79.7c4 0 7.4-2.9 8.1-6.6h.2V6.6h-.2zM430.6 38.2H8.3c-4.6 0-8.3 3.7-8.3 8.3v277.1c0 4.6 3.7 8.3 8.3 8.3h422.3c4.6 0 8.3-3.7 8.3-8.3V46.5c0-4.6-3.7-8.3-8.3-8.3zM594.9 38.2H463c-4.6 0-8.3 3.7-8.3 8.3v277.1c0 4.6 3.7 8.3 8.3 8.3h131.9c4.6 0 8.3-3.7 8.3-8.3V46.5c0-4.6-3.7-8.3-8.3-8.3z"></path></svg>