<svg data-name="Layer 1" xmlns="http://www.w3.org/2000/svg" viewBox="0 0 592.36 550.7"><path d="M542.06 0c-27.74 0-50.31 22.57-50.31 50.3v149.31c0 6.06-5.11 11.17-11.17 11.17s-11.17-5.11-11.17-11.17V50.3c0-27.74-22.56-50.3-50.3-50.3S368.8 22.57 368.8 50.3v450.1c0 6.05-5.11 11.17-11.17 11.17s-11.17-5.11-11.17-11.17V50.3c0-27.74-22.56-50.3-50.3-50.3s-50.3 22.57-50.3 50.3v450.1c0 6.05-5.11 11.17-11.17 11.17s-11.17-5.11-11.17-11.17V50.3c0-27.74-22.56-50.3-50.3-50.3s-50.3 22.57-50.3 50.3v149.31c0 6.06-5.11 11.17-11.17 11.17s-11.17-5.11-11.17-11.17V50.3C100.6 22.57 78.04 0 50.3 0S0 22.57 0 50.3v180.05c0 10.8 8.76 19.57 19.57 19.57s19.57-8.76 19.57-19.57V50.3c0-6.06 5.11-11.17 11.17-11.17s11.17 5.11 11.17 11.17v149.31c0 27.74 22.56 50.3 50.3 50.3s50.31-22.57 50.31-50.3V50.3c0-6.06 5.11-11.17 11.17-11.17s11.17 5.11 11.17 11.17v450.1c0 27.74 22.56 50.3 50.3 50.3s50.31-22.56 50.31-50.3V50.3c0-6.06 5.11-11.17 11.17-11.17s11.17 5.11 11.17 11.17v450.1c0 27.74 22.56 50.3 50.3 50.3s50.3-22.56 50.3-50.3V50.3c0-6.06 5.11-11.17 11.17-11.17s11.17 5.11 11.17 11.17v149.31c0 27.74 22.56 50.3 50.3 50.3s50.3-22.57 50.3-50.3V50.3c0-6.06 5.11-11.17 11.17-11.17s11.17 5.11 11.17 11.17v180.05c0 10.8 8.76 19.57 19.57 19.57s19.57-8.76 19.57-19.57V50.3c0-27.74-22.56-50.3-50.3-50.3Z"></path></svg>