<svg data-name="Layer 1" xmlns="http://www.w3.org/2000/svg" viewBox="0 0 453.87 600.03"><path d="M436.01.64C338.83 4.1 259.32 86.49 259.32 183.73v199.32c-11.45 1.05-23.34.99-34.75-.22V183.78C224.58 82.57 142.53.52 41.32.52H0v31.55c17.78 0 32.2 14.41 32.2 32.2v143.16c0 97.98 67.18 180.57 157.9 204.11v188.49h34.48V417.47a213.1 213.1 0 0 0 48.01-1.26c104.68-14.62 181.28-106.52 181.28-212.22V0l-17.85.64ZM190.1 375.68c-71.46-22.53-123.43-89.44-123.43-168.25V62.33c0-8.62-2.12-17.65-5.91-26.08 72.89 9.55 129.34 72.06 129.34 147.52v191.91Zm103.7-191.91c0-59.48 36.33-111.92 87.95-135.52l-87.39 327.89c-.19.06-.37.14-.56.19V183.78Zm41.13 174.02 84.46-316.91v166.55c0 63.58-33.87 119.33-84.46 150.37Z"></path><path d="M118.16 90.85c-13.7 0-24.81 11.11-24.81 24.81s11.11 24.81 24.81 24.81 24.82-11.11 24.82-24.81-11.11-24.81-24.82-24.81Z"></path></svg>