<svg xmlns="http://www.w3.org/2000/svg" width="627.7" viewBox="0 0 627.7 627.7" height="627.7" xml:space="preserve" style="enable-background:new 0 0 627.7 627.7"><path d="M377.6 127.7H251.4c-67.5 0-122.4 54.9-122.4 122.4s54.9 122.4 122.4 122.4h121.2v9.9H251.4C178.4 382.4 119 323 119 250s59.4-132.4 132.4-132.4h126.2c119 0 219.5 80.4 250.1 189.8v-54.2C627.7 113.4 514.2 0 374.3 0h-121C114 0 .9 112.6 0 251.7c.9 137 112.8 248.2 250.1 248.2h126.2c67.5 0 122.4-54.9 122.4-122.4s-54.9-122.4-122.4-122.4H255.1v-9.9h121.2c73 0 132.4 59.4 132.4 132.4S449.3 510 376.3 510H250.1C131.1 510 30.6 429.6 0 320.2v54.2c0 139.9 113.4 253.4 253.4 253.4h121c139.2 0 252.1-112.2 253.3-251.1-.6-137.4-112.7-249-250.1-249z"></path></svg>