<svg data-name="Layer 1" xmlns="http://www.w3.org/2000/svg" viewBox="0 0 620.24 609.03"><path d="M106.86 609.03h105.53V359.85l-105.53 57.96v191.22z"></path><path d="M462.15 169.63c23.79-16.95 39.35-44.7 39.35-76.13.01-51.64-41.85-93.5-93.49-93.5H212.3c-51.64 0-93.5 41.86-93.5 93.5 0 31.42 15.55 59.16 39.32 76.11L0 256.45v110l310.12-170.32 310.12 170.33v-110l-158.09-86.83ZM310.08 182.6c-49.21 0-89.1-39.89-89.1-89.1s39.89-89.1 89.1-89.1 89.1 39.89 89.1 89.1-39.89 89.1-89.1 89.1Z"></path><path d="M407.85 609.03h105.52V417.81l-105.52-57.96v249.18z"></path></svg>