<svg xmlns="http://www.w3.org/2000/svg" width="603.7" viewBox="0 0 603.7 603.7" height="603.7" xml:space="preserve" style="enable-background:new 0 0 603.7 603.7"><path d="M301.6 0c-50.8.3-91.9 41.5-92.1 92.3v.2c.1 51 41.5 92.2 92.5 92.1 51-.1 92.2-41.5 92.1-92.5S352.5-.1 301.6 0zM92 0C41.3.4.3 41.5 0 92.3v.2c.1 51 41.5 92.2 92.5 92 51-.1 92.2-41.5 92-92.5S143-.1 92 0zM511.2 419.2c-50.8.4-91.8 41.5-92 92.3v.2c.1 51 41.5 92.2 92.5 92 51-.1 92.2-41.5 92-92.5-.1-51-41.5-92.2-92.5-92zM427 9.1h167.8v376.6H427zM218 218.4h167.2V595H218zM8.5 218.4h167.2V595H8.5z" class="st0"></path></svg>