<svg xmlns="http://www.w3.org/2000/svg" width="622.7" viewBox="0 0 622.7 642" height="642" style="overflow:visible;enable-background:new 0 0 622.7 642" xml:space="preserve"><path d="M408.7 354.4c-16.5 0-29.9-13.7-29.9-30.5s13.4-30.5 29.9-30.5 29.9 13.7 29.9 30.5V340H475v-17.3c0-46.9-37.4-85.1-83.5-85.1S308 275.8 308 322.7c0 46.9 37.4 85.1 83.5 85.1h231.1v-53.3H408.7z"></path><path d="M351.5 528c-111.2 0-201.4-92.3-201.4-206.2s90.2-206.2 201.4-206.2 201.4 92.3 201.4 206.2v18.1h69.8V321c0-177.3-139.4-321-311.4-321S0 143.7 0 321s139.4 321 311.4 321h311.4V528H351.5z"></path><path d="M384.4 430.1c-57.1 0-103.5-46.8-103.5-104.3s46.4-104.3 103.5-104.3 103.5 46.8 103.5 104.3v14.1h48.5v-16.5c0-99.6-79.9-180.6-178.2-180.6S180 223.8 180 323.4C180.1 423 260 504 358.3 504h264.5v-73.8H384.4z"></path></svg>