<svg data-name="Layer 1" xmlns="http://www.w3.org/2000/svg" viewBox="0 0 624.79 540.08"><path d="M624.79 50.26 537.75 0l-70.57 40.75-61.24-35.36-108.21 62.48-74.61-43.06L0 153.62v257.65l223.12 128.82 223.13-128.82v-86.23l108.18-62.46v-69.21l70.36-40.62V50.26Zm-87.04-23.65 52.44 30.29-47.53 27.45-52.44-30.28 47.52-27.45Zm-94.88 27.28v89.53l-39.35 22.73v153.59L280.97 249V104.7l124.97-72.14 36.93 21.33Zm-168.2 27.3-17.22 9.94v158.19l-34.33 19.83L34.58 160.27 223.12 51.42l51.55 29.77Zm148.52 316.77L223.11 513.47 23.05 397.96V180.24l200.07 115.51 45.91-26.5 136.91 79.05 17.26-9.96v59.61Zm3.38-88.73V179.46l28.98-16.74 75.35 43.51V249l-104.33 60.23Zm104.96-129.26-65.6-37.88V67.2l76.74 44.31 59.07-34.11v62.04l-70.21 40.52Z"></path></svg>