<svg data-name="Layer 1" xmlns="http://www.w3.org/2000/svg" viewBox="0 0 440.06 592.61"><path d="M440.06 592.61 220.03 0l-95.02 255.93L0 592.61h440.06Zm-269.66-5.46h-5.43L67.33 426.9l13.62-36.67 89.45 196.92ZM83.65 382.98l17.07-45.97 81.61 250.15h-5.93L83.66 382.99Zm74.94 204.17h-5.77l-99.4-122.76 11.5-30.98 93.67 153.73Zm-12.79 0h-5.62l-99.07-89.6 10.11-27.22 94.59 116.82Zm-13.76 0h-4.16l-98.83-57.14 10.01-26.95 92.99 84.09Zm-15.06 0h-6.64l.06-.18-91.86-28.65 8.59-23.12 89.86 51.95Zm-24.34 0H7.84l8.8-23.71 76.01 23.71Zm223.75 0h-5.76l91.02-82.31 10.09 27.19-95.35 55.12Zm97.27-49.94 8.67 23.35-85.25 26.59h-9.8l86.38-49.94Zm-111.17 49.94h-6.38l93.31-115.23 10.18 27.42-97.1 87.81Zm-13.4 0h-6.28l92.82-152.34 11.58 31.18-98.12 121.17Zm-12.67 0h-5.82l88.92-195.75 13.7 36.89-96.79 158.86Zm-11.81 0h-6.26l81.31-249.23 17.16 46.23-92.21 203.01Zm-11.99 0h-6.21l66.76-320.6 23.44 63.14-83.99 257.46Zm-11.78 0h-6.06l43.07-415.72 31.75 85.5-68.76 330.21Zm-11.54 0h-6.65V22.75l50.92 137.14-44.27 427.26Zm-12.11 0h-6.39l-44.26-427.24h-.08l50.75-136.63v563.87Zm-11.87 0h-5.79l-68.88-330.79 31.58-85.07 43.08 415.86Zm150.08 0 68.83-21.47 7.97 21.47h-76.8Zm-161.44 0h-5.91l-84.28-258.37 23.32-62.81 66.88 321.18Z"></path></svg>