<svg data-name="Layer 1" xmlns="http://www.w3.org/2000/svg" viewBox="0 0 605.36 605.36"><path d="m300.32 177.61 116.83 61.36h181.43c-2.58-12.04-5.9-23.8-9.87-35.26H417.14L300.31 80.99 183.48 203.71H16.64a299.224 299.224 0 0 0-9.87 35.26h176.71l116.83-61.36Z"></path><path d="M300.32 20.58 417.15 143.3h142.83C506.59 57.3 411.35 0 302.68 0S98.76 57.3 45.38 143.3h138.1L300.32 20.58ZM300.32 362.03l-116.83 33.04H14.41c3.88 12.11 8.51 23.87 13.82 35.26h155.25l116.83-18.88 116.83 18.88h159.97c5.31-11.39 9.94-23.16 13.82-35.26H417.14l-116.83-33.04ZM300.32 471.86l-116.83 18.88H65.61c55.45 69.8 141 114.61 237.07 114.61s181.62-44.81 237.07-114.61h-122.6l-116.83-18.88ZM605.27 299.39H417.15l-116.83-61.36-116.83 61.36H.08c-.01 1.1-.08 2.19-.08 3.29 0 10.8.59 21.46 1.69 31.97h181.79l116.83-33.04 116.83 33.04h186.51c1.1-10.51 1.69-21.17 1.69-31.97 0-1.1-.07-2.19-.08-3.29Z"></path></svg>