<svg data-name="Layer 1" xmlns="http://www.w3.org/2000/svg" viewBox="0 0 599.8 599.8"><path d="M404.06 325.53c-12.01 0-21.74 9.73-21.74 21.74v193.86c0 18.74-22.18 28.64-36.13 16.12L219.43 443.46a39.245 39.245 0 0 1-13.03-29.21v-66.98c0-12.01-9.73-21.74-21.74-21.74H34.63l56.79-56.79h93.24c12.01 0 21.74-9.73 21.74-21.74v-63.26c0-11.15 4.74-21.77 13.03-29.21L346.19 40.74c13.94-12.52 36.13-2.62 36.13 16.12V247c0 12.01 9.73 21.74 21.74 21.74H599.8V151.85C599.8 67.98 531.82 0 447.96 0H151.84C67.98 0 0 67.98 0 151.84v296.12C0 531.82 67.98 599.8 151.84 599.8h296.12c83.86 0 151.84-67.98 151.84-151.84V325.52H404.06Z"></path></svg>