<svg data-name="Layer 1" xmlns="http://www.w3.org/2000/svg" viewBox="0 0 617.76 540"><path d="M586.86 304.17 401.24 118.54v211.38-.02H216.52v.02-211.38L30.89 304.17c-41.19 41.19-41.19 108.59 0 149.78s108.59 41.19 149.78 0l35.58-35.58H401.5l35.58 35.58c41.19 41.19 108.59 41.19 149.78 0s41.19-108.59 0-149.78Zm-370.34 83.58v.02-28.94h184.73v28.94-.02H216.52Z"></path><path d="m308.88 208.31 91.02-91.02-65.24-65.24 43.29-43.29L369.19 0 325.9 43.29l-17.02-17.03-17.03 17.03L248.56 0l-8.75 8.76 43.29 43.28-65.24 65.25 91.02 91.02zM308.88 209.85l-91.02 91.02H399.9l-91.02-91.02zM308.88 540l91.02-91.02H217.86L308.88 540z"></path></svg>