<svg id="Layer_1" data-name="Layer 1" xmlns="http://www.w3.org/2000/svg" viewBox="0 0 621.8 584.98">   <path d="M474.67,237.03c7.31-19.26,11.34-40.12,11.34-61.92C486.01,78.55,407.46,0,310.9,0S135.79,78.55,135.79,175.11c0,21.79,4.03,42.65,11.34,61.92C63.83,250.46,0,322.84,0,409.87c0,96.56,78.56,175.11,175.11,175.11,54.73,0,103.65-25.25,135.79-64.7,32.14,39.45,81.06,64.7,135.79,64.7,96.55,0,175.11-78.55,175.11-175.11,0-87.03-63.83-159.41-147.13-172.85ZM175.11,524.77c-63.35,0-114.89-51.54-114.89-114.9s51.54-114.89,114.89-114.89,114.89,51.54,114.89,114.89-51.54,114.9-114.89,114.9Zm135.79-234.77c-63.35,0-114.89-51.54-114.89-114.89s51.54-114.9,114.89-114.9,114.89,51.54,114.89,114.9-51.54,114.89-114.89,114.89Zm135.79,234.77c-63.35,0-114.89-51.54-114.89-114.9s51.54-114.89,114.89-114.89,114.89,51.54,114.89,114.89-51.54,114.9-114.89,114.9Z"></path>   <path d="M310.6,67.97c-31.01,0-56.14,47.98-56.14,107.15,0,59.17,25.15,107.14,56.16,107.13,31.01,0,56.14-47.98,56.14-107.15,0-59.17-25.15-107.14-56.16-107.13Z"></path>   <ellipse cx="446.69" cy="409.87" rx="56.15" ry="107.14" transform="translate(-131.58 591.89) rotate(-60.01)"></ellipse>   <ellipse cx="175.57" cy="409.88" rx="107.14" ry="56.15" transform="translate(-181.49 142.79) rotate(-30.02)"></ellipse> </svg>