<svg data-name="Layer 1" xmlns="http://www.w3.org/2000/svg" viewBox="0 0 619.62 619.62"><path d="M309.81 0C139.41 0 0 139.41 0 309.81c0 24.77 3.26 48.77 8.82 71.9h84.79v-76.48c0-119.21 97-216.13 216.2-216.14 119.2 0 216.2 96.93 216.2 216.14v76.48h84.79c5.56-23.13 8.82-47.12 8.82-71.9C619.62 139.41 480.2 0 309.81 0Z"></path><path d="M437.53 381.71v-78.45c0-49.02-27.83-95.09-72.95-114.24-18.63-7.91-37.11-11.45-54.78-11.45s-36.15 3.54-54.78 11.45c-45.12 19.16-72.95 65.23-72.95 114.24v78.45c0 48.86-39.61 88.48-88.48 88.48H45.46c54.52 89.3 152.63 149.44 264.35 149.44s209.83-60.13 264.35-149.44h-48.15c-48.86 0-88.48-39.61-88.48-88.48Zm-127.72 21.76c-54.03 0-98.24-44.2-98.24-98.24s44.21-98.24 98.24-98.24 98.24 44.21 98.24 98.24-44.21 98.24-98.24 98.24Z"></path></svg>