<svg data-name="Layer 1" xmlns="http://www.w3.org/2000/svg" viewBox="0 0 553.85 612.87"><path d="M503.44 422.27 345.45 312.74l-60.58 41.91 178.88 124.01c17.78 12.65 23.58 36.33 12.66 51.78-10.94 15.48-35.28 17.9-53.15 5.27L276.99 434.54 130.89 535.5l-.3.21c-17.87 12.63-42.21 10.21-53.15-5.27-10.92-15.45-5.12-39.13 12.66-51.78l186.82-129.52.04.03 60.58-41.91-.02-.02 38.94-26.91.05-.03-.05.03 129.55-89.52.3-.21c49.23-34.79 62.36-101.17 29.29-147.98-16.26-23.01-41.07-37.8-69.86-41.65-27.76-3.71-55.89 3.3-79.25 19.75l-51.13 35.33c-16.5-11.74-36.64-18.68-58.39-18.68s-41.94 6.95-58.44 18.72l-51.18-35.37C144 4.27 115.86-2.74 88.11.97c-28.79 3.85-53.6 18.64-69.86 41.65C-14.83 89.42-1.69 155.8 47.54 190.6l160.75 111.08 60.62-41.94-181.7-125.55c-17.77-12.65-23.56-36.32-12.65-51.77 5.06-7.17 13.12-11.82 22.68-13.1 10.52-1.4 21.34 1.37 30.47 7.83l51.6 35.66c-2.13 8.15-3.27 16.69-3.27 25.5 0 55.66 45.28 100.94 100.94 100.94s100.94-45.28 100.94-100.94c0-8.83-1.15-17.39-3.29-25.56l51.21-35.38.3-.21c9.13-6.45 19.95-9.23 30.47-7.83 9.56 1.28 17.61 5.93 22.68 13.1 10.92 15.45 5.12 39.12-12.65 51.77L276.93 265.29l-.11-.07-60.62 41.94.13.09L50.67 422.09l-.26.18C1.19 457.06-11.95 523.44 21.12 570.25c33.04 46.75 99.89 56.55 149.1 21.9l106.75-73.77 106.65 73.76c19.86 13.98 42.58 20.73 64.8 20.73 32.85 0 64.59-14.74 84.3-42.63 33.08-46.8 19.94-113.18-29.29-147.98ZM276.98 170.29c-17.63 0-31.98-14.34-31.98-31.98s14.34-31.98 31.98-31.98 31.98 14.34 31.98 31.98-14.34 31.98-31.98 31.98Z"></path></svg>