<svg data-name="Layer 1" xmlns="http://www.w3.org/2000/svg" viewBox="0 0 606.4 493"><path d="M212.45 146.04c-4.66 38.78-12.03 76.53-26.37 113.01C154.97 338.12 85.26 403.8 0 418.63V493c75.6-9.94 146.44-51.66 193.76-110.69 36.56-45.61 52.58-100.06 59.03-157.05 5.24-46.24 5.44-91.23 5.44-112.46V0h-38.16c0 36.49-1.87 98.13-7.62 146.04ZM420.33 259.05c-14.35-36.48-21.71-74.23-26.37-113.01C388.2 98.12 386.34 36.49 386.34 0h-38.16v112.8c0 21.23.2 66.22 5.44 112.46 6.45 56.99 22.47 111.45 59.03 157.05C459.98 441.34 530.82 483.06 606.41 493v-74.37c-85.26-14.83-154.97-80.5-186.07-159.58ZM268.11 0h70.17v493h-70.17z"></path></svg>