<svg xmlns="http://www.w3.org/2000/svg" id="a" width="642" viewBox="0 0 642 617.35" height="617.35" data-name="Layer 1"><defs></defs><path d="M642 348.04c0 68.08-55.17 123.26-123.26 123.26-40.66 0-76.69-19.65-99.11-50.03 14.97 20.42 23.76 45.6 23.76 72.84 0 68.08-55.17 123.26-123.19 123.26-61.28 0-112.08-44.7-121.65-103.22 14.9 6.36 31.22 9.89 48.43 9.89 68.08 0 123.26-55.17 123.26-123.26 0-27.49-9.06-52.93-24.28-73.41 22.42 30.7 58.64 50.61 99.62 50.61 68.02 0 123.19-55.17 123.19-123.19 0-6.87-.58-13.55-1.61-20.1 44 18.88 74.83 62.5 74.83 113.36ZM567.17 234.67c-.13-.06-.32-.13-.45-.19l.39-.06c0 .06 0 .19.06.26ZM144.45 469.18c-13.08-19.57-20.7-43.09-20.7-68.39 0-27.19 8.81-52.33 23.73-72.72-22.45 30.29-58.46 49.91-99.06 49.91-17.19 0-33.55-3.52-48.42-9.87 9.58 58.52 60.38 103.17 121.61 103.17 7.8 0 15.44-.73 22.83-2.11ZM491.8 0c1.1 6.61 1.67 13.4 1.67 20.32 0 52.78-33.18 97.8-79.82 115.36 14.29-5.38 31.22-5.08 46.2-3.36 14.39 1.65 28.47 5.86 41.41 12.38 17.53 8.84 32.86 21.9 44.37 37.82 13.29-19.67 21.05-43.38 21.05-68.9 0-51.05-31.04-94.85-75.27-113.56" class="b"></path><path d="M402.41 139.32c-46.76 17.41-80.08 62.53-80.08 115.46 0 27.31 8.94 52.56 23.98 72.99-22.48-30.4-58.59-50.19-99.32-50.19-40.73 0-76.84 19.79-99.32 50.19 15.04-20.43 23.98-45.68 23.98-72.99 0-52.93-33.32-98.05-80.08-115.46 10.26 2.77 21.05 4.25 32.18 4.25 64.89 0 118.06-50.14 122.88-113.79h.71c4.83 63.65 58 113.79 122.88 113.79 11.13 0 21.92-1.48 32.18-4.25Z" class="b"></path></svg>