<svg xmlns="http://www.w3.org/2000/svg" width="583.2" viewBox="0 0 583.2 620.6" height="620.6" xml:space="preserve" style="enable-background:new 0 0 583.2 620.6"><path d="M238.5 288.7h106.7v64.5H238.5zM447.6 288.7H583v64.5H447.6zM363.4 477.8H428v142.8h-64.6zM259.6 373.3h64.6v247.3h-64.6zM259.6 0h64.6v268.4h-64.6zM363.4 267.7H428v106.7h-64.6zM583 249.4s7.7-60.3-76.5-65.2H343.1v65.2H583zM583 393.3s7.7 60.3-76.5 65.2H343.1v-65.2H583zM363.1.1s56.5-6.8 65.2 76.5v90.1h-65.2V.1zM.2 289.4h135.4v64.5H.2zM155.2 477.8h64.6v142.8h-64.6zM155.2 268.4h64.6v106.7h-64.6zM.2 250.1s-7.7-60.3 76.5-65.3h163.5v65.3H.2zM.2 394s-7.7 60.3 76.5 65.3h163.5V394H.2zM220.2.1s-56.6-6.8-65.3 76.5v90.1h65.3V.1z"></path></svg>