<svg xmlns="http://www.w3.org/2000/svg" width="642" viewBox="0 0 642 642" height="642" style="overflow:visible;enable-background:new 0 0 642 642" xml:space="preserve"><path d="M642 321c0 177.3-143.7 321-321 321S0 498.3 0 321 143.7 0 321 0s321 143.7 321 321zm-97.3 135.4 42-298.9c.5-3.5-2.9-6.3-6.3-5.2l-65.8 21.4c-3.1 1-5.5-2.6-3.5-5.1 3.1-3.7 6.7-8 9.3-11.1 2-2.4 1.2-6-1.6-7.4L247.7 17.8c-3.2-1.6-6.9.8-6.9 4.3v69.2c0 3.2-4.2 4.4-5.9 1.7-2.6-4.1-5.5-8.8-7.7-12.3-1.7-2.7-5.4-3-7.5-.8L10 297c-2.5 2.6-1.4 6.8 2 7.9l65.8 21.4c3.1 1 2.9 5.4-.2 6.2-4.7 1.2-10.1 2.5-14.1 3.5-3 .8-4.5 4.2-3.1 6.9l141.7 266.5c1.7 3.1 6.1 3.4 8.1.6l40.7-56c1.9-2.6 6-1.1 5.8 2.1-.3 4.9-.7 10.4-1 14.5-.2 3.1 2.6 5.6 5.6 5.1l297.2-52.4c3.5-.6 5.2-4.7 3.1-7.6l-40.7-56c-1.9-2.6.8-6.1 3.8-4.9 4.5 1.8 9.6 3.9 13.4 5.4 3 1.2 6.2-.7 6.6-3.8z"></path><path d="m321.5 132.3 93 45.4c2.7 1.3 3.5 4.6 1.8 7.1-14.3 20.4-71.8 102.5-89.9 128.4-1.8 2.5-5.7 1.3-5.8-1.7-1.2-33.3-5-143.9-6.1-174.6-.1-3.7 3.7-6.1 7-4.6zM141.7 262.2l71.9-74.5c2.1-2.1 5.5-1.9 7.3.4 15 19.8 75.3 100 94.3 125.2 1.9 2.5-.5 5.8-3.4 5-32-9.2-138.4-39.7-168-48.2-3.4-.9-4.6-5.3-2.1-7.9zM209.7 473.3l-48.6-91.4c-1.4-2.6-.1-5.8 2.7-6.8 23.5-8.1 118.4-40.8 148.2-51 2.9-1 5.4 2.3 3.7 4.8-18.6 27.6-80.5 119.3-97.7 144.8-2.1 3.1-6.6 2.8-8.3-.4zM431.5 473.9l-101.9 18c-2.9.5-5.6-1.7-5.6-4.6-.4-24.8-2.2-125.2-2.7-156.7-.1-3.1 3.8-4.4 5.7-2 20.5 26.3 88.6 113.4 107.6 137.7 2.1 2.8.5 7-3.1 7.6zM500.6 263.2l-14.4 102.5c-.4 2.9-3.3 4.8-6.1 3.9-23.8-7.3-119.7-36.6-149.9-45.8-2.9-.9-3-5-.1-6.1 31.3-11.4 135.3-49.2 164.2-59.8 3.3-1.2 6.8 1.7 6.3 5.3z"></path></svg>