<svg xmlns="http://www.w3.org/2000/svg" width="542.5" viewBox="0 0 542.5 625.3" height="625.3" xml:space="preserve" style="enable-background:new 0 0 542.5 625.3"><path d="m303.1 295.1 239.3 174.6L271.2 0z"></path><path d="m271.2 0 165.9 217.6 105.3 252.1-47.8-285.5z"></path><path d="m271.2 0 238.7 175.4 32.5 294.3V156.6z"></path><g><path d="M239.2 295.1 0 469.7 271.2 0z"></path><path d="M271.2 0 105.3 217.6 0 469.7l47.7-285.5z"></path><path d="M271.2 0 32.5 175.4 0 469.7V156.6z"></path></g><g><path d="M271.9 348.8 542.5 469 .2 468.5zM.2 468.5l271.3 35.1 271-34.6-271.2 101.1z"></path><path d="m.2 468.5 271.1 119.3L542.5 469 271.2 625.3z"></path></g></svg>