<svg xmlns="http://www.w3.org/2000/svg" viewBox="0 0 642 642"><path d="m321 0 103.94 103.94L321 207.88 217.06 103.94 321 0H0v321l103.94-103.94L207.88 321 103.94 424.94 0 321v321h321L217.06 538.06 321 434.12l103.94 103.94L321 642h321V321L538.06 424.94 434.12 321l103.94-103.94L642 321V0H321Zm217.06 144.45L361.51 321l176.55 176.55 52.58-52.58v145.67H444.97l52.58-52.58L321 361.51 144.45 538.06l52.58 52.58H51.36V444.97l52.58 52.58L280.49 321 103.94 144.45l-52.58 52.58V51.36h145.67l-52.58 52.58L321 280.49l176.55-176.55-52.58-52.58h145.67v145.67l-52.58-52.58Z"></path></svg>