<svg xmlns="http://www.w3.org/2000/svg" width="416" viewBox="0 0 416 627.3" height="627.3" xml:space="preserve" style="enable-background:new 0 0 416 627.3"><path d="M0 0h416v86.3H0zM0 541h416v86.3H0zM99.6 303.1c55 0 99.6-44.6 99.6-99.6 0-55-44.6-99.6-99.6-99.6C44.6 104 0 148.5 0 203.5c0 55 44.6 99.6 99.6 99.6zM99.6 523.3c55 0 99.6-44.6 99.6-99.6 0-55-44.6-99.6-99.6-99.6-55 0-99.6 44.6-99.6 99.6 0 55 44.6 99.6 99.6 99.6zM316.4 104c-55 0-99.6 44.6-99.6 99.6 0 55 44.6 99.6 99.6 99.6 55 0 99.6-44.6 99.6-99.6 0-55.1-44.6-99.6-99.6-99.6zM316.4 324.1c-55 0-99.6 44.6-99.6 99.6 0 55 44.6 99.6 99.6 99.6 55 0 99.6-44.6 99.6-99.6 0-55-44.6-99.6-99.6-99.6z"></path></svg>