<svg xmlns="http://www.w3.org/2000/svg" width="641.91" viewBox="0 0 641.91 642" height="642" data-name="Layer 1"><path d="M640.88 295.32H427a95.56 95.56 0 0 0-5.2-15.86l173.06-125.75c7 11.43 13.35 23.37 18.87 35.69h-35.18l-22.15 16.05h64c2.5 6.35 4.75 12.71 6.74 19.26h-97.25l-22.08 16.05h123.95c1.67 6.35 3.08 12.77 4.3 19.26H481.3l-22.08 16.05h179.54c.9 6.35 1.6 12.77 2.12 19.26ZM564.69 112.18 391.65 237.9c-4.25-3.66-8.78-6.95-13.53-9.77l66.1-203.46c12.38 5.13 24.54 11.05 36.25 17.78l-28.46 20.68-8.48 26 51.78-37.62c5.76 3.67 11.31 7.49 16.77 11.62l-78.68 57.16-8.43 25.96 100.28-72.86c5.09 4.16 10 8.52 14.8 13.05l-125.21 90.97-8.43 25.96L551.66 97.84c4.46 4.61 8.81 9.39 13.03 14.33ZM395.4 8.8l-66.09 203.41c-5.59-.47-11.19-.46-16.69.05L246.5 8.81c13.03-3.12 26.35-5.48 39.77-6.92L275.4 35.34l8.42 26.02L303.6.5c6.82-.42 13.56-.59 20.4-.46l-30.05 92.49 8.44 25.96L340.69.61c6.56.38 13.1 1.02 19.64 1.86l-47.82 147.19 8.44 25.96L376.43 4.86c6.32 1.11 12.64 2.42 18.97 3.94ZM197.67 24.67l66.09 203.41c-4.79 2.91-9.32 6.2-13.47 9.84L77.22 112.2c8.7-10.19 18.1-19.92 28.11-28.98l10.87 33.45 22.11 16.1-19.78-60.87c5.27-4.34 10.62-8.45 16.23-12.36l30.05 92.49 22.09 16.04-38.3-117.89c5.53-3.55 11.2-6.88 16.99-10.04l47.82 147.19 22.09 16.04-55.48-170.75c5.77-2.82 11.65-5.47 17.66-7.97ZM47.04 153.72l173.04 125.72c-2.17 5.17-3.9 10.5-5.11 15.88H1.04c1.06-13.34 2.93-26.74 5.71-39.95l28.46 20.68 27.35.03-51.78-37.62c1.71-6.61 3.63-13.07 5.87-19.54l78.68 57.16h27.3L22.34 203.22c2.38-6.12 5.02-12.15 7.84-18.11l125.21 90.97h27.3L37.43 170.55c3.01-5.67 6.21-11.28 9.61-16.82ZM1.03 346.68h213.88a95.56 95.56 0 0 0 5.2 15.86L47.05 488.29c-7-11.43-13.35-23.37-18.87-35.69h35.18l22.15-16.05H21.5c-2.5-6.35-4.75-12.71-6.74-19.26h97.25l22.08-16.05H10.14c-1.67-6.35-3.08-12.77-4.3-19.26H160.6l22.08-16.05H3.15c-.9-6.35-1.6-12.77-2.12-19.26ZM77.22 529.82 250.26 404.1c4.25 3.66 8.78 6.95 13.53 9.77L197.7 617.32c-12.38-5.13-24.54-11.05-36.25-17.78l28.46-20.68 8.48-26-51.78 37.62c-5.76-3.67-11.31-7.49-16.77-11.62l78.68-57.16 8.43-25.96-100.28 72.86c-5.09-4.16-10-8.52-14.8-13.05l125.21-90.97 8.43-25.96L90.26 544.15c-4.46-4.61-8.81-9.39-13.03-14.33ZM246.51 633.2l66.09-203.41c5.59.47 11.19.46 16.69-.05l66.12 203.45c-13.03 3.12-26.35 5.48-39.77 6.92l10.87-33.45-8.42-26.02-19.78 60.87c-6.82.42-13.56.59-20.4.46l30.05-92.49-8.44-25.96-38.3 117.89c-6.56-.38-13.1-1.02-19.64-1.86l47.82-147.19-8.44-25.96-55.48 170.75c-6.32-1.11-12.64-2.42-18.97-3.94ZM444.24 617.33l-66.09-203.41c4.79-2.91 9.32-6.2 13.47-9.84l173.07 125.73c-8.7 10.19-18.1 19.92-28.11 28.98l-10.87-33.45-22.11-16.1 19.78 60.87c-5.27 4.34-10.62 8.45-16.23 12.36l-30.05-92.49-22.09-16.04 38.3 117.89c-5.53 3.55-11.2 6.88-16.99 10.04L428.5 454.68l-22.09-16.04 55.48 170.75c-5.77 2.82-11.65 5.47-17.66 7.97ZM594.87 488.28 421.83 362.56c2.17-5.17 3.9-10.5 5.11-15.88h213.92c-1.06 13.34-2.93 26.74-5.71 39.95l-28.46-20.68-27.35-.03 51.78 37.62c-1.71 6.61-3.63 13.07-5.87 19.54l-78.68-57.16h-27.3l100.28 72.86c-2.38 6.12-5.02 12.15-7.84 18.11L486.5 365.92h-27.3l145.25 105.54c-3.01 5.67-6.21 11.28-9.61 16.82Z"></path><path d="M641.66 330.63c.09-3.21.24-6.4.24-9.63s-.15-6.42-.24-9.63H410.29c-1.35-12.67-5.38-24.52-11.44-35.06l187.3-136.08c-3.62-5.31-7.44-10.47-11.37-15.54L387.5 260.76c-8.29-9.14-18.39-16.58-29.79-21.7l71.55-220.23c-6.02-2.16-12.15-4.1-18.33-5.9l-71.52 220.12c-5.96-1.24-12.13-1.91-18.45-1.91s-12.5.67-18.45 1.91L230.98 12.92c-6.18 1.8-12.31 3.75-18.33 5.9l71.55 220.22c-11.4 5.12-21.51 12.56-29.79 21.7L67.13 124.68c-3.93 5.07-7.75 10.23-11.37 15.54l187.3 136.08c-6.06 10.54-10.09 22.39-11.44 35.06H.24c-.09 3.21-.24 6.4-.24 9.63s.15 6.42.24 9.63h231.37c1.35 12.67 5.38 24.52 11.44 35.06L55.76 501.77c3.63 5.31 7.44 10.47 11.37 15.54l187.28-136.07c8.29 9.14 18.39 16.58 29.79 21.7l-71.55 220.22c6.02 2.16 12.15 4.1 18.33 5.9l71.52-220.12c5.96 1.24 12.13 1.91 18.45 1.91s12.5-.67 18.45-1.91l71.52 220.12c6.18-1.8 12.31-3.75 18.33-5.9L357.7 402.94c11.4-5.12 21.51-12.56 29.79-21.7l187.28 136.07c3.93-5.07 7.75-10.23 11.37-15.54l-187.3-136.08c6.06-10.54 10.09-22.39 11.44-35.06h231.37Z"></path></svg>