<svg xmlns="http://www.w3.org/2000/svg" width="542.5" viewBox="0 0 542.5 642" height="642" style="overflow:visible;enable-background:new 0 0 542.5 642" xml:space="preserve"><path d="M500.8 301.7c-.6 0-1.2 0-1.7.1l-.1-.1H304.6c-2.2 0-4 1.8-4 4 0 1.4.9 2.7 1.8 3.3.1.1.3.2.4.3 12 8.1 19.8 21.8 19.8 37.3 0 15.1-7.4 28.5-18.9 36.6-4.5 3.2-6.2 7.3-6.2 11.5v127.7c0 9.3-7.5 16.9-16.9 16.9H148.5c-9.3 0-16.9-7.5-16.9-16.9v-128c0-3.9-2.6-7-6.2-7.8-.1-.1-.2-.1-.3-.1-19-6-32.4-24.5-30.2-45.9 2.2-22.4 22.1-38.8 44.6-38.8h34.3c5 0 9.1-4.1 9.1-9.1V162.1c0-22.2 18-40.1 40.1-40.1h272c5.8 0 10.4-4.7 10.4-10.4V10.4C505.4 4.6 500.7 0 495 0H108C48.4 0 0 48.4 0 108.1v425.8C0 593.6 48.4 642 108.1 642h399.7c4.4 0 8-3.6 8-8V389.5c0-3.9 1.9-7.3 4.9-9.3h.1c6.7-3.7 9.8-7.5 13-11 .8-1.5 8.8-10.2 8.8-25.7-.1-22.8-18.5-41.8-41.8-41.8z"></path><path d="M275.4 274.4c.7.6 1.2 1.6 1.2 2.7 0 2.1-1.7 3.8-3.9 3.8-1.3 0-2.4-.6-3.1-1.7-6.5-7.5-10.3-17.3-10.3-28.1 0-7.9 2.1-15.2 5.8-21.6 6-11 6.1-24.8-1-36.3-4.2-6.6-6.5-14.5-6.5-22.9 0-6.7 1.9-13.7 2.9-15.6.6-1.3 1.9-2.3 3.5-2.3 2.1 0 3.8 1.7 3.8 3.8 0 .4-.1.9-.3 1.3-.5 1-2.3 6.6-2.3 12.8 0 6.9 2 13.4 5.4 18.9 8.7 14 8.5 30.9 1 44.3-3 5.2-4.6 11.2-4.6 17.6-.1 9 3.1 17 8.4 23.3zM329.7 274.4c.7.6 1.2 1.6 1.2 2.7 0 2.1-1.7 3.8-3.9 3.8-1.3 0-2.4-.6-3.1-1.7-6.5-7.5-10.3-17.3-10.3-28.1 0-7.9 2.1-15.2 5.8-21.6 6-11 6.1-24.8-1-36.3-4.2-6.6-6.5-14.5-6.5-22.9 0-6.7 1.9-13.7 2.9-15.6.6-1.3 1.9-2.3 3.5-2.3 2.1 0 3.8 1.7 3.8 3.8 0 .4-.1.9-.3 1.3-.5 1-2.3 6.6-2.3 12.8 0 6.9 2 13.4 5.4 18.9 8.7 14 8.5 30.9 1 44.3-3 5.2-4.6 11.2-4.6 17.6-.2 9 3 17 8.4 23.3zM383.9 274.4c.7.6 1.2 1.6 1.2 2.7 0 2.1-1.7 3.8-3.9 3.8-1.3 0-2.4-.6-3.1-1.7-6.5-7.5-10.3-17.3-10.3-28.1 0-7.9 2.1-15.2 5.8-21.6 6-11 6.1-24.8-1-36.3-4.2-6.6-6.5-14.5-6.5-22.9 0-6.7 1.9-13.7 2.9-15.6.6-1.3 1.9-2.3 3.5-2.3 2.1 0 3.8 1.7 3.8 3.8 0 .4-.1.9-.3 1.3-.5 1-2.3 6.6-2.3 12.8 0 6.9 2 13.4 5.4 18.9 8.7 14 8.5 30.9 1 44.3-3 5.2-4.6 11.2-4.6 17.6-.1 9 3.1 17 8.4 23.3zM438.2 274.4c.7.6 1.2 1.6 1.2 2.7 0 2.1-1.7 3.8-3.9 3.8-1.3 0-2.4-.6-3.1-1.7-6.5-7.5-10.3-17.3-10.3-28.1 0-7.9 2.1-15.2 5.8-21.6 6-11 6.1-24.8-1-36.3-4.2-6.6-6.5-14.5-6.5-22.9 0-6.7 1.9-13.7 2.9-15.6.6-1.3 1.9-2.3 3.5-2.3 2.1 0 3.8 1.7 3.8 3.8 0 .4-.1.9-.3 1.3-.5 1-2.3 6.6-2.3 12.8 0 6.9 2 13.4 5.4 18.9 8.7 14 8.5 30.9 1 44.3-3 5.2-4.6 11.2-4.6 17.6-.2 9 3 17 8.4 23.3z"></path></svg>