<svg data-name="Layer 1" xmlns="http://www.w3.org/2000/svg" viewBox="0 0 625.48 625.48"><path d="M312.74 0C140.29 0 0 140.3 0 312.74s140.29 312.74 312.74 312.74 312.74-140.3 312.74-312.74S485.19 0 312.74 0Zm268.69 312.74c0 27.8-4.24 54.62-12.12 79.86H407.32c18.26-21.59 29.32-49.44 29.32-79.86V74.44c85.95 44.87 144.78 134.82 144.78 238.3Zm-268.69-79.86c44.04 0 79.86 35.82 79.86 79.86s-35.82 79.86-79.86 79.86-79.86-35.83-79.86-79.86 35.82-79.86 79.86-79.86Zm0-188.83c27.8 0 54.62 4.24 79.86 12.12v161.99c-21.59-18.26-49.44-29.32-79.86-29.32H74.44c44.87-85.95 134.82-144.79 238.3-144.79ZM44.05 312.74c0-27.8 4.24-54.62 12.12-79.86h161.98c-18.26 21.59-29.32 49.44-29.32 79.86v238.3c-85.95-44.87-144.78-134.82-144.78-238.3Zm268.69 268.69c-30.28 0-59.37-5.11-86.54-14.38h6.68V407.33c21.59 18.26 49.44 29.32 79.86 29.32h238.3c-44.87 85.95-134.82 144.78-238.3 144.78Z"></path></svg>