<svg xmlns="http://www.w3.org/2000/svg" width="467.6" viewBox="0 0 467.6 608.2" height="608.2" xml:space="preserve"><path d="M358.1 399.9c7.9-7.2 16.6-13.5 25.8-19V0h-25.8v399.9zM445.6 360.4c3.3-.4 6.6-.6 9.9-.7V0h-9.9v360.4zM321.3 448.5c7.6-15.3 17.5-29.3 29.3-41.4V0h-29.3v448.5zM391.4 376.9c7-3.6 14.2-6.7 21.7-9.2V0h-21.7v376.9zM238.1 608.2h33.8v-269c-10.1 5.6-21.5 9.1-33.8 9.8v259.2zM238.1 192.7c12.2.7 23.7 4.1 33.8 9.8V0h-33.8v192.7zM463 0v359.5h4.5V0H463zM279.3 207.2c19.8 14.2 32.7 37.4 32.7 63.6 0 26.2-12.9 49.4-32.7 63.6v273.8h25.4v-88.7c0-18.6 3.2-36.6 9.2-53.3V0h-34.6v207.2zM420.5 365.3c5.8-1.6 11.6-2.9 17.6-3.9V0h-17.6v365.3zM0 359.6c2-.1 3.9-.1 5.9-.1h1.2c87 0 157.6 72.9 157.6 159.9v88.7h66V348.9c-41.7-1.6-75.1-36-75.1-78.1 0-42.1 33.3-76.5 75.1-78.1V0H0v359.6z"></path></svg>