<svg xmlns="http://www.w3.org/2000/svg" width="619.5" viewBox="0 0 619.5 619.5" height="619.5" xml:space="preserve" style="enable-background:new 0 0 619.5 619.5"><path d="M309.8 0C138.7 0 0 138.7 0 309.8c0 171.1 138.7 309.8 309.8 309.8s309.8-138.7 309.8-309.8C619.5 138.7 480.9 0 309.8 0zm-194 357.4c-6.5 32.6-2.9 43.5-2.9 43.5-15-31.3-18.4-70.2-18.4-70.2-3.4-32.1-.4-66.5 12.7-100.1 14.4-36.9 39.2-69.3 69.6-93.2 20.1-15.8 44-28.5 70.7-36.1 42.6-12.2 89.2-11.1 125.7 16.4 27 20.3 48.6 61.3 42 105.1L309.8 118 177 250.8c-28.1 27.5-51.3 62.6-61.2 106.6zm257.4-46.2-63.5 63.5-63.5-63.5 63.5-63.5 63.5 63.5zm148.4 54c-10.1 39.5-29.7 70.9-54.8 96.6-40.9 42-99.5 67.1-158.3 65.7-20.8-.5-40-8.3-56.5-18.8-15.5-9.9-29.2-26.5-38.5-44.3-9.5-18.2-14.7-43.8-11.2-66.1l107.4 107.3 118.8-118.8c-4.3 4.3 41-37.9 54.9-62.2 10.4-18.2 19.4-39.1 24.3-63.5.9-4.3 1.5-9 2.1-13.5 1.3-15 .2-26.6.2-26.6.5 1.4 1.3 3.1 2.1 5 .7 1.8 1.5 3.5 2.3 5.3 1.6 3.9 2.9 7.9 4.2 11.9 8.7 26.9 11.3 54 9.5 83.2-.8 13.4-3.3 26.2-6.5 38.8z" style="fill-rule:evenodd;clip-rule:evenodd"></path></svg>