<svg data-name="Layer 1" xmlns="http://www.w3.org/2000/svg" viewBox="0 0 614.37 602.34"><path d="M313.2 0v133.06l66.53-66.53L313.2 0zM388.23 75.03l-75.03 75.04V285.9l142.95-142.95-67.92-67.92zM301.17 133.06V0l-66.53 66.53 66.53 66.53zM157.84 143.33l143.33 143.32V150.07l-75.03-75.03-68.3 68.29zM364.78 387.9l168.16-168.16-68.29-68.29L313.2 302.91v70.93l51.58-51.59v65.65zM81.05 220.12 248.83 387.9v-65.65l52.34 52.34v-70.93L149.34 151.83l-68.29 68.29zM246.26 471.53l-66.71-66.71h69.19L72.54 228.63 0 301.17l301.17 301.17v-96.93h-88.8l33.89-33.88zM541.45 228.25 364.87 404.82h69.19l-66.7 66.71 33.88 33.88H313.2v96.93l301.17-301.17-72.92-72.92z"></path></svg>