<svg data-name="Layer 1" xmlns="http://www.w3.org/2000/svg" viewBox="0 0 624.85 594.71"><path d="M543.31 246.2V128.74L414.57 0 312.42 102.15 210.28 0 81.53 128.74V246.2H0v240.38l108.13 108.13 102.15-102.14 102.15 102.14 102.15-102.14 102.15 102.14 108.13-108.13V246.2h-81.53Zm28.34 218.34-54.94 54.94-75.55-75.55V246.2h-53.2v197.73l-75.55 75.55-75.55-75.55V246.2h-53.2v197.73l-75.55 75.55-54.94-54.94V349.19h81.53V150.78l75.55-75.55 75.55 75.55v198.41H339V150.78l75.55-75.55 75.55 75.55v198.41h81.53v115.35Z"></path></svg>