<svg data-name="Layer 1" xmlns="http://www.w3.org/2000/svg" viewBox="0 0 632.16 632.2"><path d="M316.07 63.78 181.62 198.25 316.08 332.7l134.44-134.45L316.07 63.78Zm0 222.15c-16.48-16.55-71.14-71.17-87.71-87.68 16.56-16.5 71.23-71.18 87.71-87.73 16.54 16.55 71.18 71.24 87.72 87.73-16.54 16.52-71.18 71.13-87.72 87.68ZM182.98 507.3l23.36 23.38 109.74-109.75c19.09 19.13 109.74 109.75 109.74 109.75l23.41-23.38-133.15-133.14-133.1 133.14ZM153.53 335.54h314.2v33.08h-314.2z"></path><path d="M316.07 0C141.71 0 0 141.79 0 316.1s141.71 316.1 316.07 316.1 316.09-141.81 316.09-316.1S490.4 0 316.07 0Zm0 599.09c-156.05 0-282.96-126.91-282.96-282.99S160.02 33.01 316.07 33.01 599.1 160.02 599.1 316.1 472.15 599.09 316.07 599.09Z"></path></svg>