<svg xmlns="http://www.w3.org/2000/svg" width="601.4" viewBox="0 0 601.4 601.4" height="601.4" xml:space="preserve"><path d="M598.7 0C268.6 0 0 268.6 0 598.7v2.7h406.9v-2.7c0-105.8 86.1-191.8 191.8-191.8h2.7V0h-2.7zM596 5.4v52.1C299.7 58.9 58.9 299.7 57.4 596.1h-52C6.8 271 271 6.8 596 5.4zM286.9 596.1h-52c1.4-198.5 162.6-359.7 361.2-361.2v52c-169.9 1.4-307.8 139.3-309.2 309.2zM596 292.3v52c-138.2 1.4-250.4 113.6-251.8 251.8h-52c1.5-166.9 136.9-302.4 303.8-303.8zM229.5 596.1h-52C179 365.9 365.9 179 596 177.5v52C394.6 231 231 394.6 229.5 596.1zm-57.4 0h-52c1.5-261.8 214.1-474.5 475.9-475.9v52c-233.1 1.4-422.4 190.7-423.9 423.9zm-57.3 0h-52C64.2 302.6 302.6 64.2 596 62.8v52c-264.7 1.4-479.8 216.5-481.2 481.3zm286.8 0h-52c1.4-135.3 111.2-245 246.4-246.5v52c-106.6 1.4-193 87.9-194.4 194.5z"></path></svg>