<svg data-name="Layer 1" xmlns="http://www.w3.org/2000/svg" viewBox="0 0 617.46 417.96"><path d="m211.07 111.47 19.48 60.33h322.13l64.78-60.33H211.07zM237.43 193.11l13.91 43.1a24.813 24.813 0 0 0 23.68 17.24h190l64.78-60.34H237.43Z"></path><path d="M277.06 356.41c-58.2 0-109.32-37.21-127.2-92.6L64.71 0H0l93.81 290.63c25.84 76.16 97.23 127.34 177.66 127.34H590l-55.31-61.55H277.06Z"></path><path d="M275.02 274.76c-20.05 0-37.81-12.93-43.96-32.01L163.87 34.63C157.21 13.99 138 0 116.3 0H87.1l83.05 257.27c14.98 46.39 58.16 77.84 106.92 77.84h238.48l-54.22-60.34h-186.3Z"></path></svg>