<svg xmlns="http://www.w3.org/2000/svg" width="642" viewBox="0 0 642 642" height="642" style="overflow:visible;enable-background:new 0 0 642 642" xml:space="preserve"><path d="M214 77.2V214H92L0 122h122V0zM428 77.2V214H306l-92-92h122V0zM642 77.2V214H520l-92-92h122V0z"></path><g><path d="M214 291.2V428H92L0 336h122V214zM428 291.2V428H306l-92-92h122V214zM642 291.2V428H520l-92-92h122V214z"></path></g><g><path d="M214 505.3V642H92L0 550h122V428zM428 505.3V642H306l-92-92h122V428zM642 505.3V642H520l-92-92h122V428z"></path></g></svg>