<svg id="Layer_1" data-name="Layer 1" xmlns="http://www.w3.org/2000/svg" viewBox="0 0 532.32 622.02">   <path d="M266.16,173.2c47.75,0,86.6-38.85,86.6-86.6S313.91,0,266.16,0s-86.6,38.85-86.6,86.6,38.85,86.6,86.6,86.6Z"></path>   <path d="M352.76,104.24v45.44c80.43,33.91,137.03,113.55,137.03,206.18,0,123.31-100.32,223.63-223.63,223.63S42.53,479.18,42.53,355.86c0-92.62,56.6-172.27,137.03-206.18v-45.44C75.2,140.26,0,239.41,0,355.86c0,146.76,119.4,266.16,266.16,266.16s266.16-119.4,266.16-266.16c0-116.45-75.2-215.6-179.56-251.62Z"></path>   <path d="M68.52,355.86c0,108.98,88.66,197.65,197.64,197.65s197.65-88.66,197.65-197.65c0-77.94-45.36-145.46-111.04-177.62v48.99c41.3,27.9,68.52,75.15,68.52,128.63,0,85.53-69.59,155.12-155.12,155.12s-155.12-69.59-155.12-155.12c0-53.49,27.21-100.73,68.52-128.63v-48.99c-65.69,32.16-111.04,99.68-111.04,177.62Z"></path>   <path d="M137.03,355.86c0,71.2,57.93,129.13,129.13,129.13s129.13-57.93,129.13-129.13c0-37.91-16.43-72.05-42.53-95.7v95.7c0,47.75-38.85,86.6-86.6,86.6s-86.6-38.85-86.6-86.6v-95.7c-26.1,23.64-42.53,57.79-42.53,95.7Z"></path> </svg>