<svg xmlns="http://www.w3.org/2000/svg" width="619.1" viewBox="0 0 619.1 619.1" height="619.1" xml:space="preserve" style="enable-background:new 0 0 619.1 619.1"><path d="M403.1 0c12.5 18.2 19.8 40.2 19.8 63.9 0 62.6-50.7 113.4-113.4 113.4-62.6 0-113.4-50.7-113.4-113.4 0-23.7 7.3-45.7 19.8-63.9H0v311h40.7c0-62.6 50.8-113.4 113.3-113.4 62.6 0 113.4 50.8 113.4 113.4 0 62.6-50.8 113.4-113.4 113.4v194.7h311V424.3c-62.6 0-113.4-50.8-113.4-113.4 0-62.6 50.8-113.4 113.4-113.4 62.6 0 113.4 50.8 113.4 113.4h40.7V0h-216z"></path></svg>