<svg data-name="Layer 1" xmlns="http://www.w3.org/2000/svg" viewBox="0 0 619.11 619.11"><path d="M442.21 586.41v2.88c78.1-37.1 138.17-105.93 163.6-189.85H504.49l-62.27 186.97ZM361.58 399.44H13.3c38.52 127.12 156.56 219.67 296.25 219.67 33.78 0 66.26-5.49 96.69-15.49V188.83l-44.67 210.61Z"></path><path d="M406.25 15.51v-.02C375.82 5.49 343.33 0 309.56 0 138.59 0 0 138.59 0 309.56c0 18.4 1.7 36.4 4.78 53.92h327.66l73.81-347.97ZM478.56 363.48h135.78c3.08-17.52 4.78-35.52 4.78-53.92 0-123.48-72.32-230.05-176.9-279.73v442.76l36.34-109.11Z"></path></svg>