<svg xmlns="http://www.w3.org/2000/svg" width="617.7" viewBox="0 0 617.7 617.7" height="617.7" style="enable-background:new 0 0 617.7 617.7" xml:space="preserve"><path d="M308.9 0C138.3 0 0 138.3 0 308.9s138.3 308.9 308.9 308.9 308.9-138.3 308.9-308.9S479.4 0 308.9 0zM155.4 458.2c-82.2 0-149-65.5-151.3-147.2h302.6c-2.2 81.6-69.1 147.2-151.3 147.2zm151.3-151.5c-81.6-2.3-147.2-69.1-147.2-151.3 0-82.2 65.5-149 147.2-151.3v302.6zm4.3 306.9V311c81.6 2.3 147.2 69.1 147.2 151.3 0 82.2-65.6 149-147.2 151.3zm0-306.9c2.3-81.6 69.1-147.2 151.3-147.2 82.2 0 149 65.5 151.3 147.2H311z"></path></svg>