<svg id="Layer_1" data-name="Layer 1" xmlns="http://www.w3.org/2000/svg" viewBox="0 0 595.84 325.06">   <path d="M17.63,71.35H122.67c28.66,0,52.23,23.83,52.23,52.49h196.87c-4.12,2.44-12.28,13.73-18.36,23.5-5.92,9.53-16.36,15.3-27.57,15.28l-151.32,.12c-1.64,0-3.13,1.11-3.43,2.72-.34,1.85,.84,3.48,2.51,3.88h170.75c-4.12,2.45-12.28,13.74-18.36,23.52-5.92,9.53-16.36,15.3-27.57,15.28h-114.78c-1.82,0-3.45,1.36-3.54,3.17-.1,1.93,1.44,3.54,3.35,3.54h133.53c-4.12,2.45-12.28,13.74-18.36,23.52-5.92,9.53-16.36,15.3-27.57,15.28l-69.83-.11h0c11.4,28.71,62.59,71.51,139.66,71.51,88.47,0,139.21-54.25,145.99-63.83,6.78-9.58,21.36-35.52,26.89-39.79h-130.88c-2.39,0-3.99-1.93-3.29-4.22,.43-1.42,1.73-2.34,3.14-2.34h115.04c19.7,0,26.29-12.06,30.2-17.19,3.91-5.13,8.82-18.22,13.24-21.78h-130.9c-2.39,0-3.99-1.93-3.29-4.22,.43-1.42,1.73-2.34,3.14-2.34l118.54-.17c11.22,.02,20.72-7.49,26.64-17.02,6.08-9.78,8.82-18.22,13.24-21.78h-130.87c-2.39,0-3.99-1.93-3.29-4.22,.43-1.42,1.73-2.34,3.14-2.34h118.41c11.22,.02,20.72-7.49,26.64-17.02,6.08-9.78,8.82-18.22,13.24-21.78l-233.86-.05c-34.73,0-66.97-18.01-85.18-47.58h0S254.45,0,213.43,0c-62.72,0-67.58,46.76-107.98,46.76l-66.39,.23C8.33,47,.18,68.2,0,80.17c-.02,1.44,1.96,1.89,2.58,.59,2.16-4.55,6.47-9.41,15.05-9.41Zm176.62-30.64c-5.87,0-10.63-5.04-10.63-11.25s4.76-11.25,10.63-11.25,10.63,5.04,10.63,11.25-4.76,11.25-10.63,11.25Z"></path> </svg>