<svg data-name="Layer 1" xmlns="http://www.w3.org/2000/svg" viewBox="0 0 608.27 517.81"><path d="M454.82 247.54h153.46v22.27H454.82zM270.04 157.44V.28c-3.7-.16-7.4-.28-11.13-.28s-7.44.13-11.13.28v157.16c3.66-.4 7.37-.63 11.13-.63s7.47.24 11.13.63ZM336.59 11.87c-7.04-2.21-14.24-4.08-21.53-5.7l-40.71 151.92c7.47 1.14 14.68 3.05 21.52 5.72l40.72-151.94ZM319.18 176.63 397.8 40.46c-6.25-3.98-12.68-7.71-19.28-11.15l-78.6 136.14c6.86 3.02 13.29 6.8 19.26 11.19ZM338.44 194.97 449.59 83.82c-5.02-5.47-10.28-10.72-15.75-15.74L322.67 179.25c5.81 4.66 11.1 9.92 15.77 15.73ZM352.27 217.69l136.13-78.6c-3.45-6.6-7.18-13.02-11.17-19.27l-136.18 78.63c4.4 5.96 8.19 12.38 11.22 19.24ZM359.68 243.25l151.9-40.71c-1.62-7.29-3.5-14.48-5.72-21.52l-151.95 40.72c2.68 6.84 4.61 14.04 5.76 21.51ZM354.06 295.7 506 336.41c2.21-7.05 4.07-14.24 5.68-21.53l-151.94-40.7c-1.12 7.47-3.03 14.68-5.68 21.53ZM341.28 319.05l136.17 78.61c3.98-6.25 7.7-12.68 11.14-19.28l-136.15-78.59c-3.01 6.87-6.78 13.29-11.16 19.27ZM322.95 338.36 434.1 449.49c5.47-5.03 10.72-10.28 15.74-15.75L338.66 322.57c-4.65 5.82-9.9 11.12-15.7 15.8ZM300.19 352.23l78.6 136.13c6.6-3.45 13.01-7.19 19.26-11.18L319.41 341c-5.96 4.4-12.38 8.2-19.23 11.23ZM274.6 359.67l40.71 151.9c7.29-1.62 14.48-3.5 21.52-5.72l-40.72-151.94c-6.84 2.68-14.04 4.61-21.51 5.77ZM258.9 361c-3.7 0-7.35-.22-10.95-.6v157.13c3.64.15 7.28.28 10.95.28s7.57-.12 11.33-.29V360.34c-3.73.41-7.5.66-11.33.66ZM181.35 505.98c7.05 2.21 14.24 4.07 21.53 5.68l40.7-151.93c-7.47-1.13-14.68-3.04-21.53-5.69l-40.7 151.94ZM198.67 341.21l-78.61 136.18c6.25 3.98 12.68 7.7 19.28 11.15l78.59-136.15c-6.86-3.01-13.29-6.8-19.26-11.18ZM179.36 322.83 68.22 433.99c5.02 5.47 10.28 10.72 15.75 15.74l111.16-111.18c-5.81-4.66-11.1-9.93-15.76-15.73ZM165.5 300.03 29.37 378.64c3.45 6.6 7.18 13.02 11.16 19.27l136.17-78.64c-4.39-5.97-8.18-12.39-11.21-19.24ZM158.11 274.4 6.19 315.13c1.62 7.29 3.49 14.48 5.7 21.53l151.94-40.73c-2.67-6.85-4.59-14.05-5.73-21.52ZM156.81 258.9c0-3.77.24-7.48.63-11.14l-157.16.02c-.16 3.69-.28 7.39-.28 11.13s.12 7.44.28 11.14l157.16-.02c-.4-3.66-.63-7.36-.63-11.13ZM163.84 221.88l-151.95-40.7c-2.21 7.04-4.09 14.24-5.7 21.53l151.92 40.69c1.14-7.47 3.06-14.67 5.73-21.52ZM176.7 198.54 40.51 119.93c-3.99 6.25-7.71 12.67-11.16 19.27l136.14 78.58c3.02-6.86 6.81-13.28 11.2-19.25ZM195.08 179.28 83.91 68.13c-5.47 5.02-10.72 10.27-15.75 15.75l111.17 111.14c4.67-5.8 9.95-11.08 15.75-15.74ZM217.85 165.46 139.23 29.34c-6.6 3.45-13.02 7.17-19.27 11.16l78.64 136.16c5.97-4.39 12.39-8.17 19.25-11.19ZM243.43 158.1 202.7 6.19c-7.29 1.61-14.48 3.49-21.53 5.7l40.73 151.94c6.85-2.67 14.05-4.58 21.52-5.72Z"></path></svg>