<svg xmlns="http://www.w3.org/2000/svg" width="642" viewBox="0 0 642 642" height="642" data-name="Layer 1"><path d="M523.51 245.57c13.41-18.32 20.17-41.83 16.29-67.05-5.9-38.44-37.06-69.28-75.55-74.84-23.62-3.41-45.71 2.48-63.38 14.42-1.9 1.28-4.44.01-4.44-2.27V0h-71.42v239.15h-8.03V0h-71.42v115.83c0 2.29-2.55 3.56-4.44 2.27-17.67-11.94-39.76-17.83-63.38-14.42-38.49 5.56-69.64 36.4-75.55 74.84-3.87 25.22 2.88 48.72 16.29 67.05H0v69.02h642v-69.02H523.51Zm-277.94 0h-37.3c-20.61 0-37.3-16.69-37.3-37.3s16.69-37.36 37.3-37.36 37.3 16.76 37.3 37.36v37.3Zm188.17 0h-37.3v-37.3c0-20.61 16.69-37.36 37.3-37.36s37.3 16.76 37.3 37.36-16.69 37.3-37.3 37.3ZM0 396.44h118.49c-13.41 18.32-20.17 41.83-16.29 67.05 5.9 38.44 37.06 69.28 75.55 74.84 23.62 3.41 45.71-2.48 63.38-14.42 1.9-1.28 4.44-.01 4.44 2.27v115.83h71.42V402.86h8.03v239.15h71.42V526.18c0-2.29 2.55-3.56 4.44-2.27 17.67 11.94 39.76 17.83 63.38 14.42 38.49-5.56 69.64-36.4 75.55-74.84 3.87-25.22-2.88-48.72-16.29-67.05h118.49v-69.01H0v69.01Zm396.43 0h37.3c20.61 0 37.3 16.69 37.3 37.3s-16.69 37.36-37.3 37.36-37.3-16.76-37.3-37.36v-37.3Zm-188.17 0h37.3v37.3c0 20.61-16.69 37.36-37.3 37.36s-37.3-16.76-37.3-37.36 16.69-37.3 37.3-37.3Z"></path></svg>