<svg data-name="Layer 1" xmlns="http://www.w3.org/2000/svg" viewBox="0 0 612.38 471.2"><path d="M305.97 198.98h.44c108.31.13 203.37 56.77 257.3 142.03 8.46 13.37 17.93 36.13 23.85 48.73-4.32-28.38-15.15-63.91-27.87-89.45-46.29-93.03-142.31-156.97-253.28-156.97h-.44c-110.97 0-206.99 63.93-253.28 156.97-12.72 25.55-23.54 61.07-27.87 89.45 5.91-12.61 15.39-35.36 23.85-48.73 53.93-85.25 148.99-141.9 257.3-142.03Z"></path><path d="M10.21 440.58c4.7-6.19 9.58-12.23 14.65-18.11 9.57-11.1 20.8-22.12 31.61-32C122.12 330.45 210 294.3 305.96 294.3h.44c95.96 0 183.84 36.15 249.49 96.17 10.81 9.88 22.04 20.91 31.61 32 5.07 5.88 9.95 11.92 14.65 18.11.35.46 1.05.06.8-.46-3.43-7.23-10.69-22.27-15.47-30.48-8.06-13.85-18.13-27.54-28.1-39.98-59.26-73.99-150.82-120.92-252.99-120.92h-.44c-102.17 0-193.73 46.93-252.99 120.92-9.97 12.44-20.03 26.14-28.1 39.98-4.78 8.21-12.04 23.25-15.47 30.48-.25.52.45.92.8.46Z"></path><path d="M53.47 266.3c5.75-15.59 14.32-33.69 15.2-35.53C112.05 146.28 207 79.96 305.76 79.96h.88c98.76 0 193.71 66.33 237.09 150.81.87 1.83 9.45 19.94 15.2 35.53.26.71 1.32.41 1.15-.33-.27-1.21-.55-2.47-.84-3.76-2.12-9.49-6-26.21-6-26.21L494.97 0H117.41L59.15 236.01s-3.88 16.71-6 26.2c-.29 1.3-.57 2.56-.84 3.76-.16.73.89 1.03 1.15.33ZM611.99 468.76c-2.71-2.93-7.09-7.56-9.65-10.18-2.4-2.45-4.75-4.81-6.94-6.98-11.62-11.52-23.94-22.34-36.88-32.4-68.79-53.47-158.24-85.33-252.12-85.33h-.44c-93.88 0-183.32 31.86-252.12 85.33-12.94 10.06-25.25 20.88-36.88 32.4-2.19 2.17-4.54 4.53-6.94 6.98-2.56 2.61-6.94 7.25-9.65 10.18-.87.93-.19 2.44 1.08 2.44h609.46c1.27 0 1.95-1.51 1.08-2.44Zm-22.62-1.95c-17.7-2.87-35.49-5.48-53.36-7.82-75.14-9.83-151.77-11.92-229.6-11.92h-.44c-77.82 0-154.46 2.08-229.6 11.92-17.87 2.34-35.66 4.94-53.36 7.82-4.81.78-9.61 1.62-14.41 2.44 2.63-.73 5.23-1.51 7.87-2.23 16.55-4.46 33.24-8.54 50.09-12.22 75.18-16.45 159.29-25.13 239.41-25.13h.44c80.11 0 164.23 8.67 239.41 25.13 16.85 3.69 33.55 7.76 50.09 12.22 2.64.71 5.24 1.5 7.87 2.23-4.8-.82-9.6-1.66-14.41-2.44Zm7.37-4.79c-14.81-6.85-29.91-13.18-45.28-18.96-74.34-28-160.91-43.36-245.05-43.36h-.44c-84.13 0-170.7 15.36-245.05 43.36-15.37 5.79-30.47 12.11-45.28 18.96-2.85 1.32-5.69 2.68-8.52 4.03 3.7-2.76 7.38-5.44 10.68-7.71 13.22-9.09 26.89-17.56 40.97-25.38 72.34-40.16 158.59-63.06 247.19-63.06h.44c88.6 0 174.86 22.9 247.19 63.06 14.09 7.82 27.76 16.29 40.97 25.38 3.3 2.27 6.98 4.95 10.68 7.71-2.83-1.35-5.67-2.71-8.52-4.03Z"></path></svg>