<svg data-name="Layer 1" xmlns="http://www.w3.org/2000/svg" viewBox="0 0 618.31 426.42"><path d="m239.39 233.69-122.03-88.97L298.9 0H138.59C62.56 0 0 62.56 0 138.59s62.56 138.59 138.59 138.59c3.57 0 7.13-.14 10.66-.41v149.66H298.9V277.18l-59.57-43.41s.04-.05.07-.07ZM479.73 0H319.42l181.53 144.72-122.03 88.97s.04.05.07.07l-59.57 43.41v149.25h149.65V276.76c3.53.27 7.09.41 10.66.41 76.03 0 138.59-62.56 138.59-138.59S555.75 0 479.73 0Z"></path><circle cx="309.79" cy="140.35" r="90.94"></circle></svg>