<svg data-name="Layer 1" xmlns="http://www.w3.org/2000/svg" viewBox="0 0 621.33 621.33"><path d="M151.11 0C67.65 0 0 67.65 0 151.11s67.65 151.11 151.11 151.11h151.11V151.11C302.22 67.65 234.57 0 151.11 0ZM621.33 151.11C621.33 67.65 553.67 0 470.21 0S319.1 67.65 319.1 151.11v151.11h151.11c83.46 0 151.11-67.65 151.11-151.11ZM470.21 319.1H319.1v151.11c0 83.46 67.65 151.11 151.11 151.11s151.11-67.65 151.11-151.11S553.67 319.1 470.21 319.1ZM151.11 319.1H0v151.11c0 83.46 67.65 151.11 151.11 151.11s151.11-67.65 151.11-151.11S234.57 319.1 151.11 319.1Z"></path></svg>