<svg id="Layer_1" data-name="Layer 1" xmlns="http://www.w3.org/2000/svg" viewBox="0 0 615.17 593.18">   <rect x="191.7" y="184.7" width="223.79" viewBox="0 0 223.79 223.79" height="223.79" transform="translate(-120.8 301.55) rotate(-45)"></rect>   <polygon points="615.17 175.5 441.94 175.5 441.94 0 307.59 134.35 469.82 296.59 307.59 458.83 441.94 593.18 441.94 417.69 615.17 417.69 494.08 296.59 615.17 175.5"></polygon>   <polygon points="178.88 579.55 178.88 412.04 13.64 412.04 129.08 296.59 13.64 181.15 178.88 181.15 178.88 13.64 303.59 138.35 307.59 134.35 173.23 0 173.23 175.5 0 175.5 121.09 296.59 0 417.69 173.23 417.69 173.23 593.18 307.59 458.83 303.59 454.84 178.88 579.55"></polygon> </svg>