<svg xmlns="http://www.w3.org/2000/svg" width="639.9" viewBox="0 0 639.9 642" height="642" style="overflow:visible;enable-background:new 0 0 639.9 642" xml:space="preserve"><path class="st0" d="M493.7 605.1c-46.2 23.6-98.6 36.9-154.2 36.9C152 642 0 490 0 302.5 0 170.4 75.4 56.1 185.4 0L222 71.6c-83.9 43-141.5 130.3-141.5 230.9 0 142.8 116.2 259.1 259.1 259.1 42.3 0 82.3-10.2 117.6-28.3l80.3-40.9-117.7-230.8 66-33.6 154.1 302.5-146.2 74.6z"></path><path class="st0" d="m515.8 485.3-65.9 33.6c-33.1 16.9-70.6 26.5-110.3 26.5-134 0-243-109-243-243 0-94.3 53.9-176.2 132.7-216.5l36.6 71.7c-52.7 26.9-88.8 81.7-88.8 144.8 0 89.6 72.9 162.5 162.5 162.5 26.5 0 51.6-6.4 73.8-17.8l-73.8-144.8 66-33.6 110.2 216.6z"></path></svg>