<svg data-name="Layer 1" xmlns="http://www.w3.org/2000/svg" viewBox="0 0 614.2 614.2"><path d="M307.1 0v614.2c169.6 0 307.1-137.49 307.1-307.1S476.7 0 307.1 0ZM245.68 608.04c10.07 2.04 20.31 3.59 30.71 4.62V1.53c-10.4 1.03-20.64 2.58-30.71 4.62v601.89ZM184.26 588.57c9.98 4.36 20.21 8.25 30.71 11.55V14.08c-10.5 3.3-20.73 7.19-30.71 11.55v562.94ZM122.84 552.78c9.79 7.35 20.07 14.07 30.71 20.23V41.19c-10.64 6.16-20.92 12.88-30.71 20.23v491.36ZM61.42 491.36c9.34 12.43 19.63 24.1 30.71 34.97V87.87c-11.08 10.87-21.37 22.54-30.71 34.97v368.52ZM30.71 441.07V173.13C11.05 213.61 0 259.06 0 307.1s11.05 93.48 30.71 133.97Z"></path></svg>