<svg xmlns="http://www.w3.org/2000/svg" width="622" viewBox="0 0 622 576.2" height="576.2" style="enable-background:new 0 0 622 576.2" xml:space="preserve"><path class="st0" d="M320 571V436c0-28.5 7.5-56.2 21.7-80.9 14.2-24.7 34.5-45 59.2-59.3l116.9-67.5 4.5 7.8-116.9 67.5c-23.3 13.4-42.5 32.7-55.9 56-13.4 23.3-20.5 49.6-20.5 76.4v135h-9z"></path><path class="st0" d="M411.8 557.4c67 38.7 152.8 15.7 191.5-51.3 38.7-67 15.7-152.8-51.3-191.5-67-38.7-152.8-15.7-191.5 51.3-38.7 67.1-15.8 152.8 51.3 191.5M508.8 212.8l-116.9 67.5C367.3 294.6 339.5 302 311 302c-28.5 0-56.3-7.4-80.9-21.6l-116.9-67.5 4.5-7.8 116.9 67.5C257.9 286 284.1 293 311 293c26.9 0 53.1-7 76.4-20.4L504.3 205l4.5 7.8z"></path><path class="st0" d="M451.2 140.2C451.2 62.8 388.4 0 311 0c-77.4 0-140.2 62.8-140.2 140.2S233.6 280.3 311 280.3c77.4 0 140.2-62.7 140.2-140.1M104.2 228.4l116.9 67.5c24.7 14.2 45 34.6 59.2 59.3 14.2 24.7 21.7 52.4 21.7 80.9v135h-9v-135c0-26.9-7.1-53.1-20.5-76.4-13.4-23.3-32.6-42.5-55.9-56L99.7 236.2l4.5-7.8z"></path><path class="st0" d="M70.1 314.7c-67 38.7-90 124.4-51.3 191.5 38.7 67 124.4 90 191.5 51.3 67-38.7 90-124.4 51.3-191.5s-124.5-90-191.5-51.3"></path></svg>