<svg id="Layer_1" data-name="Layer 1" xmlns="http://www.w3.org/2000/svg" viewBox="0 0 635.88 635.54">   <path d="M374.15,310.84h155.2c.06-.02,.11-.05,.17-.07l103.25-103.25c-.08-.2-.09-.21-.17-.4h-166.68c-22.2,0-40.19-17.99-40.19-40.19V.24c0-.21-.26-.32-.4-.17l-103.25,103.25c-.02,.06-.05,.11-.07,.17v155.2c0,28.8,23.35,52.15,52.15,52.15Z"></path>   <path d="M442.62,321.66c-9.08,0-17.8,3.61-24.22,10.03l-83.66,83.66c-6.42,6.42-10.03,15.14-10.03,24.22v193.26l103.72-103.72v-103.72h103.72l103.73-103.72h-193.26Z"></path>   <path d="M261.73,324.37H106.43L2.71,428.09s167.26,0,167.26,0c22.2,0,40.19,17.99,40.19,40.19v167.26l103.72-103.72v-155.3c0-28.8-23.35-52.15-52.15-52.15Z"></path>   <path d="M193.26,313.54c9.09,0,17.8-3.61,24.22-10.03l83.66-83.66c6.42-6.42,10.03-15.14,10.03-24.22V2.37s-103.72,103.72-103.72,103.72v103.72H103.72L0,313.54H193.26Z"></path> </svg>