<svg data-name="Layer 1" xmlns="http://www.w3.org/2000/svg" viewBox="0 0 413.13 587.7"><path d="M167.61 4.56c0 89.9-73.14 163.04-163.05 163.04H0v420.1h190.92V0H167.6v4.56Zm14.19 4.56v569.46H9.12V176.67c91.32-2.39 165.16-76.23 167.55-167.55h5.13Z"></path><path d="M148.14 4.56V0H0v148.14h4.56c79.17 0 143.58-64.41 143.58-143.57ZM9.12 9.12h129.82C136.58 79.64 79.65 136.57 9.13 138.93V9.12ZM245.53 4.56V0h-23.32v587.7h190.92V167.6h-4.56c-89.9 0-163.04-73.14-163.04-163.04Zm158.48 574.02H231.33V9.12h5.13c2.38 91.32 76.23 165.16 167.55 167.55v401.91Z"></path><path d="M264.99 0v4.56c0 79.17 64.41 143.57 143.58 143.57h4.56V0H264.99Zm139.02 138.93C333.49 136.57 276.55 79.64 274.2 9.12h129.81v129.81Z"></path></svg>