<svg data-name="Layer 1" xmlns="http://www.w3.org/2000/svg" viewBox="0 0 623.73 623.73"><path d="M337.39 68.57v195.16l130.03-140.66c-36.11-29.79-80.91-49.4-130.03-54.5ZM503.22 159.57 337.39 338.95v216.21c123.1-12.77 219.09-116.81 219.09-243.29 0-57.6-19.96-110.5-53.26-152.3ZM67.24 311.86c0 126.48 95.99 230.52 219.09 243.29V338.97L120.22 159.93c-33.13 41.74-52.98 94.5-52.98 151.93ZM286.34 263.9V68.57c-49.28 5.11-94.21 24.85-130.39 54.8L286.34 263.9Z"></path><path d="M311.86 623.73C139.9 623.73 0 483.83 0 311.86S139.9 0 311.86 0s311.87 139.9 311.87 311.86-139.91 311.86-311.87 311.86Zm0-614.54C144.97 9.19 9.19 144.97 9.19 311.86s135.78 302.67 302.67 302.67 302.67-135.78 302.67-302.67S478.76 9.19 311.86 9.19Z"></path></svg>