<svg data-name="Layer 1" xmlns="http://www.w3.org/2000/svg" viewBox="0 0 590.69 376.33"><path d="M583.12 245.54 367.25 29.68C348.11 10.54 322.57 0 295.35 0s-52.77 10.54-71.91 29.68L7.57 245.54c-10.1 10.1-10.1 26.53 0 36.63l52.99 52.99c26.54 26.54 61.83 41.16 99.37 41.16s72.83-14.62 99.38-41.16l22.95-22.95c6.99-6.99 19.17-7 26.16 0l22.95 22.95c54.79 54.79 143.96 54.79 198.75 0l52.99-52.99c10.1-10.1 10.1-26.53 0-36.63ZM244.41 50.66c13.54-13.54 31.62-20.99 50.93-20.99s37.39 7.45 50.93 20.99l66.98 66.98c28.04 28.09 28.03 73.75-.04 101.82-28.09 28.09-73.79 28.08-101.86 0l-66.94-66.94c-28.08-28.08-28.08-73.78 0-101.86Zm264.74 263.53c-43.24 43.23-113.57 43.23-156.8 0l-22.95-22.94c-9.09-9.1-21.19-14.12-34.06-14.12s-24.96 5.01-34.06 14.11l-22.95 22.95c-20.94 20.94-48.78 32.47-78.4 32.47s-57.46-11.53-78.4-32.47L31.2 263.86l162.51-162.5c-.06 26.12 9.84 52.25 29.73 72.14l66.94 66.94c19.82 19.82 45.87 29.73 71.91 29.73s52.08-9.91 71.91-29.73c19.88-19.88 29.78-46.02 29.72-72.14l95.57 95.56-50.33 50.33Z"></path><path d="M178.96 136.4c-11.41 0-20.67 9.25-20.67 20.67s9.25 20.67 20.67 20.67 20.67-9.25 20.67-20.67-9.25-20.67-20.67-20.67Z"></path></svg>