<svg data-name="Layer 1" xmlns="http://www.w3.org/2000/svg" viewBox="0 0 624.59 620.29"><path d="m482.54 410.17-118.1 210.12c123.18-20.71 221.85-113.46 251.21-233.48l-93.62.21a45.437 45.437 0 0 0-39.49 23.16ZM102.57 387.01l-93.62-.2c29.36 120.02 128.03 212.77 251.21 233.48l-118.1-210.12a45.384 45.384 0 0 0-39.49-23.16Z"></path><path d="M468.58 310.16h156.01C623.41 138.66 484.07 0 312.3 0S1.19 138.66 0 310.16h156.02c19.51 0 37.5 10.52 47.05 27.53L312.3 532.01l109.23-194.32c9.56-17 27.55-27.53 47.05-27.53Zm-156.28 2.82c-60.68 0-109.87-49.19-109.87-109.87S251.62 93.24 312.3 93.24s109.87 49.19 109.87 109.87-49.19 109.87-109.87 109.87Z"></path></svg>