<svg data-name="Layer 1" xmlns="http://www.w3.org/2000/svg" viewBox="0 0 628.94 615.72"><path d="M314.47 0C141.07 0 0 138.11 0 307.86s141.07 307.86 314.47 307.86 314.47-138.11 314.47-307.86S487.87 0 314.47 0Zm101.64 277.73H344.6v-58.44h-60.26v58.44h-71.51L314.47.24l101.64 277.49ZM60.26 307.86c0-104.64 67.02-194.26 161.43-230.45l-84.26 230.38 83.1 230.07c-93.8-36.47-160.27-125.79-160.27-230Zm152.38 30.13h71.69v61.66h60.26v-61.66h71.69L314.45 615.25 212.62 337.99ZM408.4 537.86l83.1-230.07-84.26-230.38c94.4 36.18 161.43 125.8 161.43 230.45s-66.48 193.53-160.27 230Z"></path></svg>