<svg xmlns="http://www.w3.org/2000/svg" width="607.4" viewBox="0 0 607.4 607.4" height="607.4" xml:space="preserve"><path d="M602.6 67.4c2.7 0 4.8-2.1 4.8-4.8 0-2.7-2.2-4.8-4.8-4.8h-19.7V35h19.7c2.7 0 4.8-2.2 4.8-4.8 0-2.7-2.2-4.8-4.8-4.8h-19.7V4.8c0-2.7-2.1-4.8-4.8-4.8-2.7 0-4.8 2.2-4.8 4.8v20.6h-22.8V4.8c0-2.7-2.2-4.8-4.8-4.8s-4.8 2.2-4.8 4.8v20.6h-22.8V4.8c0-2.7-2.2-4.8-4.8-4.8-2.7 0-4.8 2.2-4.8 4.8v20.6h-22.8V4.8c0-2.7-2.2-4.8-4.8-4.8-2.7 0-4.8 2.2-4.8 4.8v20.6h-22.8V4.8c0-2.7-2.2-4.8-4.8-4.8-2.7 0-4.8 2.2-4.8 4.8v20.6H435c-1.7-2.9-4.8-4.8-8.3-4.8H309.4c-3.6 0-6.7 1.9-8.3 4.8h-7.9V4.8c0-2.7-2.2-4.8-4.8-4.8s-4.8 2.2-4.8 4.8v20.6h-22.8V4.8c0-2.7-2.2-4.8-4.8-4.8-2.7 0-4.8 2.2-4.8 4.8v20.6h-22.8V4.8c0-2.7-2.1-4.8-4.8-4.8-2.7 0-4.8 2.2-4.8 4.8v20.6H196V4.8c0-2.7-2.2-4.8-4.8-4.8-2.7 0-4.8 2.2-4.8 4.8v20.6h-22.8V4.8c0-2.7-2.1-4.8-4.8-4.8-2.7 0-4.8 2.2-4.8 4.8v20.6h-20.9c-2.7 0-4.8 2.2-4.8 4.8 0 2.7 2.2 4.8 4.8 4.8H154v22.7h-20.9c-2.7 0-4.8 2.2-4.8 4.8 0 2.7 2.2 4.8 4.8 4.8H154v22.8h-20.9c-2.7 0-4.8 2.2-4.8 4.8 0 2.7 2.2 4.8 4.8 4.8H154v22.8h-20.9c-2.7 0-4.8 2.1-4.8 4.8 0 2.7 2.2 4.8 4.8 4.8H154v22.7h-20.9c-2.7 0-4.8 2.2-4.8 4.8 0 2.7 2.2 4.8 4.8 4.8H154v9.6c-2.9 1.7-4.8 4.8-4.8 8.3v118.2c0 3.6 1.9 6.7 4.8 8.3v9.6h-9.6c-1.7-2.9-4.8-4.8-8.3-4.8H18.8c-3.6 0-6.7 1.9-8.3 4.8H4.8c-2.7 0-4.8 2.2-4.8 4.8 0 2.7 2.2 4.8 4.8 4.8h5.7c1.7 2.9 4.8 4.8 8.3 4.8h117.3c3.6 0 6.7-1.9 8.3-4.8h9.6v23h-9.6c-1.7-2.9-4.8-4.8-8.3-4.8H18.8c-3.6 0-6.7 1.9-8.3 4.8H4.8c-2.7 0-4.8 2.2-4.8 4.8 0 2.7 2.2 4.8 4.8 4.8h5.7c1.7 2.9 4.8 4.8 8.3 4.8h117.3c3.6 0 6.7-1.9 8.3-4.8h9.6v22.8h-9.6c-1.7-2.9-4.8-4.8-8.3-4.8H18.8c-3.6 0-6.7 1.9-8.3 4.8H4.8c-2.7 0-4.8 2.1-4.8 4.8 0 2.7 2.2 4.8 4.8 4.8h5.7c1.7 2.9 4.8 4.8 8.3 4.8h117.3c3.6 0 6.7-1.9 8.3-4.8h9.6v22.7h-9.6c-1.7-2.9-4.8-4.8-8.3-4.8H18.8c-3.6 0-6.7 1.9-8.3 4.8H4.8c-2.7 0-4.8 2.2-4.8 4.8 0 2.7 2.2 4.8 4.8 4.8h5.7c1.7 2.9 4.8 4.8 8.3 4.8h117.3c3.6 0 6.7-1.9 8.3-4.8h9.6V448h-9.6c-1.7-2.9-4.8-4.8-8.3-4.8H18.8c-3.6 0-6.7 1.9-8.3 4.8H4.8c-2.7 0-4.8 2.2-4.8 4.8 0 2.7 2.2 4.8 4.8 4.8h5.7c1.7 2.9 4.8 4.8 8.3 4.8h117.3c3.6 0 6.7-1.9 8.3-4.8h9.6v9.6c-2.9 1.7-4.8 4.8-4.8 8.3v113.8c0 3.6 1.9 6.7 4.8 8.3v4.8c0 2.7 2.2 4.8 4.8 4.8 2.7 0 4.8-2.1 4.8-4.8v-4.8c2.9-1.7 4.8-4.8 4.8-8.3V475.7c0-3.6-1.9-6.7-4.8-8.3v-9.6h22.8v9.6c-2.9 1.7-4.8 4.8-4.8 8.3v113.8c0 3.6 1.9 6.7 4.8 8.3v4.8c0 2.7 2.2 4.8 4.8 4.8 2.7 0 4.8-2.1 4.8-4.8v-4.8c2.9-1.7 4.8-4.8 4.8-8.3V475.7c0-3.6-1.9-6.7-4.8-8.3v-9.6h22.7v9.6c-2.9 1.7-4.8 4.8-4.8 8.3v113.8c0 3.6 1.9 6.7 4.8 8.3v4.8c0 2.7 2.2 4.8 4.8 4.8 2.7 0 4.8-2.1 4.8-4.8v-4.8c2.9-1.7 4.8-4.8 4.8-8.3V475.7c0-3.6-1.9-6.7-4.8-8.3v-9.6h22.8v9.6c-2.9 1.7-4.8 4.8-4.8 8.3v113.8c0 3.6 1.9 6.7 4.8 8.3v4.8c0 2.7 2.2 4.8 4.8 4.8 2.7 0 4.8-2.1 4.8-4.8v-4.8c2.9-1.7 4.8-4.8 4.8-8.3V475.7c0-3.6-1.9-6.7-4.8-8.3v-9.6h22.8v9.6c-2.9 1.7-4.8 4.8-4.8 8.3v113.8c0 3.6 1.9 6.7 4.8 8.3v4.8c0 2.7 2.2 4.8 4.8 4.8s4.8-2.1 4.8-4.8v-4.8c2.9-1.7 4.8-4.8 4.8-8.3V475.7c0-3.6-1.9-6.7-4.8-8.3v-9.6h7.9c1.7 2.9 4.8 4.8 8.3 4.8h117.3c3.6 0 6.7-1.9 8.3-4.8h8.7v19.8c0 2.7 2.2 4.8 4.8 4.8 2.7 0 4.8-2.2 4.8-4.8v-19.8H476v19.8c0 2.7 2.2 4.8 4.8 4.8 2.7 0 4.8-2.2 4.8-4.8v-19.8h22.8v19.8c0 2.7 2.1 4.8 4.8 4.8 2.7 0 4.8-2.2 4.8-4.8v-19.8h22.8v19.8c0 2.7 2.2 4.8 4.8 4.8s4.8-2.2 4.8-4.8v-19.8h22.8v19.8c0 2.7 2.2 4.8 4.8 4.8 2.7 0 4.8-2.2 4.8-4.8v-19.8h19.7c2.7 0 4.8-2.2 4.8-4.8 0-2.7-2.2-4.8-4.8-4.8h-19.7v-22.7h19.7c2.7 0 4.8-2.2 4.8-4.8 0-2.7-2.2-4.8-4.8-4.8h-19.7V393h19.7c2.7 0 4.8-2.2 4.8-4.8 0-2.7-2.2-4.8-4.8-4.8h-19.7v-22.8h19.7c2.7 0 4.8-2.2 4.8-4.8 0-2.7-2.2-4.8-4.8-4.8h-19.7v-22.8h19.7c2.7 0 4.8-2.1 4.8-4.8 0-2.7-2.2-4.8-4.8-4.8h-19.7V309c2.9-1.7 4.8-4.8 4.8-8.3V182.5c0-3.6-1.9-6.7-4.8-8.3v-9.6h19.7c2.7 0 4.8-2.2 4.8-4.8 0-2.7-2.2-4.8-4.8-4.8h-19.7v-22.7h19.7c2.7 0 4.8-2.2 4.8-4.8 0-2.7-2.2-4.8-4.8-4.8h-19.7V99.8h19.7c2.7 0 4.8-2.2 4.8-4.8 0-2.7-2.2-4.8-4.8-4.8h-19.7V67.4h19.8zM573.2 35v22.7h-22.8V35h22.8zm-32.3 0v22.7h-22.8V35h22.8zm0 139.2c-2.9 1.7-4.8 4.8-4.8 8.3v118.2c0 3.6 1.9 6.7 4.8 8.3v9.6h-22.8V309c2.9-1.7 4.8-4.8 4.8-8.3V182.5c0-3.6-1.9-6.7-4.8-8.3v-9.6h22.8v9.6zM435 415.7c-1.7-2.9-4.8-4.8-8.3-4.8H309.4c-3.6 0-6.7 1.9-8.3 4.8h-7.9V393h7.9c1.7 2.9 4.8 4.8 8.3 4.8h117.3c3.6 0 6.7-1.9 8.3-4.8h8.7v22.7H435zM196 309c2.9-1.7 4.8-4.8 4.8-8.3V182.5c0-3.6-1.9-6.7-4.8-8.3v-9.6h22.7v9.6c-2.9 1.7-4.8 4.8-4.8 8.3v118.2c0 3.6 1.9 6.7 4.8 8.3v9.6H196V309zM301 67.4c1.7 2.9 4.8 4.8 8.3 4.8h117.3c3.6 0 6.7-1.9 8.3-4.8h8.7v22.8H435c-1.7-2.9-4.8-4.8-8.3-4.8H309.4c-3.6 0-6.7 1.9-8.3 4.8h-7.9V67.4h7.8zm207.5 106.8c-2.9 1.7-4.8 4.8-4.8 8.3v118.2c0 3.6 1.9 6.7 4.8 8.3v9.6h-22.8V309c2.9-1.7 4.8-4.8 4.8-8.3V182.5c0-3.6-1.9-6.7-4.8-8.3v-9.6h22.8v9.6zM435 383.3c-1.7-2.9-4.8-4.8-8.3-4.8H309.4c-3.6 0-6.7 1.9-8.3 4.8h-7.9v-22.8h7.9c1.7 2.9 4.8 4.8 8.3 4.8h117.3c3.6 0 6.7-1.9 8.3-4.8h8.7v22.8H435zM228.4 309c2.9-1.7 4.8-4.8 4.8-8.3V182.5c0-3.6-1.9-6.7-4.8-8.3v-9.6h22.8v9.6c-2.9 1.7-4.8 4.8-4.8 8.3v118.2c0 3.6 1.9 6.7 4.8 8.3v9.6h-22.8V309zM301 99.8c1.7 2.9 4.8 4.8 8.3 4.8h117.3c3.6 0 6.7-1.9 8.3-4.8h8.7v22.8H435c-1.7-2.9-4.8-4.8-8.3-4.8H309.4c-3.6 0-6.7 1.9-8.3 4.8h-7.9V99.8h7.8zm175.1 74.4c-2.9 1.7-4.8 4.8-4.8 8.3v118.2c0 3.6 1.9 6.7 4.8 8.3v9.6h-22.8V309c2.9-1.7 4.8-4.8 4.8-8.3V182.5c0-3.6-1.9-6.7-4.8-8.3v-9.6h22.8v9.6zM435 351c-1.7-2.9-4.8-4.8-8.3-4.8H309.4c-3.6 0-6.7 1.9-8.3 4.8h-7.9v-22.8h7.9c1.7 2.9 4.8 4.8 8.3 4.8h117.3c3.6 0 6.7-1.9 8.3-4.8h8.7V351H435zm-174.2-42c2.9-1.7 4.8-4.8 4.8-8.3V182.5c0-3.6-1.9-6.7-4.8-8.3v-9.6h22.8v9.6c-2.9 1.7-4.8 4.8-4.8 8.3v118.2c0 3.6 1.9 6.7 4.8 8.3v9.6h-22.8V309zM301 132.2c1.7 2.9 4.8 4.8 8.3 4.8h117.3c3.6 0 6.7-1.9 8.3-4.8h8.7v22.7H435c-1.7-2.9-4.8-4.8-8.3-4.8H309.4c-3.6 0-6.7 1.9-8.3 4.8h-7.9v-22.7h7.8zm142.7 42c-2.9 1.7-4.8 4.8-4.8 8.3v118.2c0 3.6 1.9 6.7 4.8 8.3v9.6H435c-1.7-2.9-4.8-4.8-8.3-4.8H309.4c-3.6 0-6.7 1.9-8.3 4.8h-7.9V309c2.9-1.7 4.8-4.8 4.8-8.3V182.5c0-3.6-1.9-6.7-4.8-8.3v-9.6h7.9c1.7 2.9 4.8 4.8 8.3 4.8h117.3c3.6 0 6.7-1.9 8.3-4.8h8.7v9.6zm-160.1-19.3h-22.8v-22.7h22.8v22.7zm0 173.3V351h-22.8v-22.8h22.8zm169.7 0h22.8V351h-22.8v-22.8zm0-173.3v-22.7h22.8v22.7h-22.8zm0-32.4V99.8h22.8v22.8h-22.8zm-169.7 0h-22.8V99.8h22.8v22.7zm-32.4 0h-22.8V99.8h22.8v22.7zm0 9.7v22.7h-22.8v-22.7h22.8zm0 196V351h-22.8v-22.8h22.8zm0 32.4v22.8h-22.8v-22.8h22.8zm9.6 0h22.8v22.8h-22.8v-22.8zm192.5 0h22.8v22.8h-22.8v-22.8zm32.4 0h22.8v22.8h-22.8v-22.8zm0-9.6v-22.8h22.8V351h-22.8zm0-196.1v-22.7h22.8v22.7h-22.8zm0-32.4V99.8h22.8v22.8h-22.8zm0-32.4V67.4h22.8v22.8h-22.8zm-9.6 0h-22.8V67.4h22.8v22.7zm-192.5 0h-22.8V67.4h22.8v22.7zm-32.4 0h-22.8V67.4h22.8v22.7zm-32.4 0H196V67.4h22.7v22.7zm0 9.7v22.8H196V99.8h22.8zm0 32.4v22.7H196v-22.7h22.8zm0 196V351H196v-22.8h22.8zm0 32.4v22.8H196v-22.8h22.8zm0 32.4v22.7H196V393h22.8zm9.6 0h22.8v22.7h-22.8V393zm32.4 0h22.8v22.7h-22.8V393zm192.5 0h22.8v22.7h-22.8V393zm32.4 0h22.8v22.7h-22.8V393zm32.4 0h22.8v22.7h-22.8V393zm0-9.7v-22.8h22.8v22.8h-22.8zm0-32.3v-22.8h22.8V351h-22.8zm0-196.1v-22.7h22.8v22.7h-22.8zm0-32.4V99.8h22.8v22.8h-22.8zm0-32.4V67.4h22.8v22.8h-22.8zM508.5 35v22.7h-22.8V35h22.8zm-32.4 0v22.7h-22.8V35h22.8zM301 35c1.7 2.9 4.8 4.8 8.3 4.8h117.3c3.6 0 6.7-1.9 8.3-4.8h8.7v22.7H435c-1.7-2.9-4.8-4.8-8.3-4.8H309.4c-3.6 0-6.7 1.9-8.3 4.8h-7.9V35h7.8zm-17.4 0v22.7h-22.8V35h22.8zm-32.4 0v22.7h-22.8V35h22.8zm-32.4 0v22.7H196V35h22.8zm-55.1 0h22.8v22.7h-22.8V35zm0 32.4h22.8v22.8h-22.8V67.4zm0 32.4h22.8v22.8h-22.8V99.8zm0 32.4h22.8v22.7h-22.8v-22.7zm0 176.8c2.9-1.7 4.8-4.8 4.8-8.3V182.5c0-3.6-1.9-6.7-4.8-8.3v-9.6h22.8v9.6c-2.9 1.7-4.8 4.8-4.8 8.3v118.2c0 3.6 1.9 6.7 4.8 8.3v9.6h-22.8V309zm0 19.2h22.8V351h-22.8v-22.8zm0 32.4h22.8v22.8h-22.8v-22.8zm0 32.4h22.8v22.7h-22.8V393zm0 55.1v-22.7h22.8v22.7h-22.8zm32.3 0v-22.7h22.7v22.7H196zm32.4 0v-22.7h22.8v22.7h-22.8zm32.4 0v-22.7h22.8v22.7h-22.8zm174.2 0c-1.7-2.9-4.8-4.8-8.3-4.8H309.4c-3.6 0-6.7 1.9-8.3 4.8h-7.9v-22.7h7.9c1.7 2.9 4.8 4.8 8.3 4.8h117.3c3.6 0 6.7-1.9 8.3-4.8h8.7v22.7H435zm18.3 0v-22.7h22.8v22.7h-22.8zm32.4 0v-22.7h22.8v22.7h-22.8zm32.4 0v-22.7h22.8v22.7h-22.8zm55.1 0h-22.8v-22.7h22.8v22.7zm0-32.4h-22.8V393h22.8v22.7zm0-32.4h-22.8v-22.8h22.8v22.8zm0-32.3h-22.8v-22.8h22.8V351zm0-176.8c-2.9 1.7-4.8 4.8-4.8 8.3v118.2c0 3.6 1.9 6.7 4.8 8.3v9.6h-22.8V309c2.9-1.7 4.8-4.8 4.8-8.3V182.5c0-3.6-1.9-6.7-4.8-8.3v-9.6h22.8v9.6zm0-19.3h-22.8v-22.7h22.8v22.7zm0-32.4h-22.8V99.8h22.8v22.7zm0-32.4h-22.8V67.4h22.8v22.7z"></path></svg>