<svg data-name="Layer 1" xmlns="http://www.w3.org/2000/svg" viewBox="0 0 633.4 554.94"><path d="M628.27 196.94c-18.37-65.16-91.53-100.16-155.49-96.65-43.03-133.78-269.63-133.67-312.58 0-214.73-1.93-212.76 265.27.89 266.68 16.1 49.24 66.74 87.16 128.46 96.24V528c0 14.82 12.12 26.94 26.94 26.94s26.94-12.12 26.94-26.94v-64.79c61.72-9.08 112.37-47 128.46-96.24 95.1 2.82 184.06-71.33 156.37-170.03Zm-182.16-74.49c12.01 37.44-3.03 77.42-33.8 102.51-24.27-14.9-53.77-24.27-85.81-25.87 11.08-50.24 72.62-74.91 119.61-76.63Zm-259.23 0c46.97 1.73 107.72 26.39 118.8 76.63-32.04 1.61-60.74 10.98-85 25.87-30.77-25.08-45.81-65.08-33.8-102.51Zm-30.84 220.56c-24.94-5.25-50-14.84-69.04-32.34-29.22-26.64-43.16-68.79-31.19-106.97 13.63-43.89 55.36-74.34 100.01-79.7-3.28 42.77 18.37 82.17 54.05 108.21-36.41 26.53-58.2 67.16-53.83 110.79Zm160.45 80.76c-51.56-.5-97.81-24.73-119.54-59.89 43.32-7.79 88.36-28.46 119.54-63.27 31.09 34.74 76.29 55.51 119.54 63.27-21.73 35.16-67.98 59.39-119.54 59.89Zm127.92-76.88c-45.97 1.36-100.88-16.35-127.92-56.87-27.06 40.52-81.94 58.23-127.92 56.87-28.11-79.08 50.04-141.3 125.9-140.24.06-3.94-.41-7.2-.51-7.8v-.02c-11.26-55.34-68.08-85.35-119.12-94.68C215.7 67.06 263.2 41.18 316.5 40.66c53.3.51 100.8 26.39 121.66 63.49-51.03 9.32-107.99 39.36-119.23 94.68v.02c-.1.61-.5 3.71-.49 7.8 75.86-1.06 154.11 61.2 125.99 140.24Zm101.57-36.21c-19.04 17.49-44.11 27.09-69.04 32.34 4.37-43.64-17.42-84.26-53.83-110.79 35.68-26.04 57.33-65.45 54.05-108.21 93.82 11.53 141.67 118.2 68.82 186.67Z"></path></svg>