<svg data-name="Layer 1" xmlns="http://www.w3.org/2000/svg" viewBox="0 0 486.84 616.18"><path d="M351.78 461.37c87.03-43.35 144.48-137.2 133.79-243.23C473.83 101.8 378.63 9.35 262.02.69 119.18-9.92 0 102.83 0 243.42c0 95.53 55.06 178.15 135.15 218 2.43 1.21 1.84 4.82-.83 5.31-73.64 13.33-123.79 39.72-123.79 70.11 0 43.82 104.27 79.35 232.89 79.35s232.89-35.52 232.89-79.35c0-30.39-50.15-56.78-123.79-70.11-2.72-.49-3.22-4.12-.75-5.35Zm-108.36 90.41c-47.81 0-86.57-38.76-86.57-86.57s38.76-86.57 86.57-86.57 86.57 38.76 86.57 86.57-38.76 86.57-86.57 86.57Z"></path></svg>