<svg data-name="Layer 1" xmlns="http://www.w3.org/2000/svg" viewBox="0 0 625.89 625.89"><path d="M103.5 193.14c8.39 8.39 11.3 20.12 8.87 30.9l72.67 30.09c.03-.09.07-.17.1-.26l68.73-68.73c.09-.03.17-.07.26-.1l-30.09-72.67c-10.78 2.42-22.51-.48-30.9-8.87-6.3-6.3-9.48-14.5-9.69-22.75l-1.18-71.69c-9.71 4.56-18.84 10.74-26.86 18.76-29.68 29.67-35.6 74.03-17.93 109.65-35.62-17.67-79.98-11.75-109.65 17.93-8.02 8.02-14.2 17.15-18.76 26.86l71.69 1.18c8.25.21 16.45 3.39 22.75 9.69ZM240.29 103.5c-2.03 2.03-4.31 3.64-6.68 5.04l30.07 72.62c9.56-4.52 18.52-10.71 26.44-18.62 10.75-10.75 18.29-23.46 22.83-36.95 4.54 13.49 12.08 26.2 22.83 36.95 7.91 7.91 16.88 14.1 26.44 18.62l30.07-72.62c-2.37-1.4-4.65-3-6.68-5.04-12.74-12.74-12.93-33.18-.74-46.25l47.76-52.56c-32.99-10.73-70.65-3.07-96.86 23.14-10.75 10.75-18.29 23.46-22.83 36.95-4.54-13.49-12.08-26.2-22.83-36.95-26.2-26.21-63.86-33.87-96.85-23.14l47.77 52.56c12.19 13.07 12 33.51-.74 46.25ZM401.84 112.37l-30.09 72.67c.09.03.17.07.25.1l68.73 68.73c.03.09.07.17.1.26l72.67-30.09c-2.42-10.78.48-22.51 8.87-30.9 6.3-6.3 14.5-9.48 22.75-9.69l71.69-1.18c-4.56-9.71-10.74-18.84-18.76-26.86-29.67-29.68-74.03-35.6-109.65-17.93 17.67-35.62 11.75-79.98-17.93-109.65-8.02-8.02-17.15-14.2-26.86-18.76l-1.18 71.69c-.21 8.25-3.39 16.45-9.69 22.75-8.39 8.39-20.12 11.29-30.9 8.87ZM598.06 335.77c-10.75-10.75-23.46-18.29-36.95-22.83 13.5-4.54 26.2-12.08 36.95-22.83 26.21-26.21 33.87-63.87 23.14-96.86l-52.56 47.77c-13.07 12.19-33.51 12-46.25-.74-2.03-2.03-3.64-4.31-5.04-6.68l-72.62 30.07c4.52 9.56 10.71 18.52 18.62 26.44 10.75 10.75 23.46 18.29 36.95 22.83-13.49 4.54-26.2 12.08-36.95 22.83-7.91 7.91-14.1 16.88-18.62 26.44l72.62 30.07c1.4-2.37 3-4.65 5.04-6.68 12.74-12.74 33.18-12.93 46.25-.74l52.56 47.77c10.73-32.99 3.07-70.65-23.14-96.86ZM522.39 432.75c-8.39-8.39-11.29-20.12-8.87-30.9l-72.67-30.09c-.03.09-.07.17-.1.26l-68.73 68.73c-.09.03-.17.07-.26.1l30.09 72.67c10.78-2.42 22.51.48 30.9 8.87 6.3 6.3 9.48 14.5 9.69 22.75l1.18 71.69c9.71-4.56 18.84-10.74 26.86-18.76 29.67-29.67 35.6-74.03 17.93-109.65 35.62 17.67 79.98 11.75 109.65-17.93 8.02-8.02 14.2-17.15 18.76-26.86l-71.69-1.18c-8.25-.21-16.45-3.39-22.75-9.69ZM385.59 522.39c2.03-2.03 4.31-3.64 6.68-5.04l-30.07-72.62c-9.56 4.52-18.52 10.71-26.44 18.62-10.75 10.75-18.29 23.46-22.83 36.95-4.54-13.5-12.08-26.2-22.83-36.95-7.91-7.91-16.88-14.1-26.44-18.62l-30.07 72.62c2.37 1.4 4.65 3 6.68 5.04 12.74 12.74 12.93 33.18.74 46.25l-47.77 52.56c32.99 10.73 70.65 3.07 96.86-23.14 10.75-10.75 18.29-23.46 22.83-36.95 4.54 13.49 12.08 26.2 22.83 36.95 26.21 26.21 63.87 33.87 96.86 23.14l-47.77-52.56c-12.19-13.07-12-33.51.74-46.25ZM224.04 513.51l30.09-72.67c-.09-.03-.17-.07-.26-.1l-68.73-68.73c-.03-.09-.07-.17-.1-.26l-72.67 30.09c2.42 10.78-.48 22.51-8.87 30.9-6.3 6.3-14.5 9.48-22.75 9.69l-71.69 1.18c4.56 9.71 10.74 18.84 18.76 26.86 29.68 29.68 74.03 35.6 109.65 17.93-17.67 35.62-11.75 79.98 17.93 109.65 8.02 8.02 17.15 14.2 26.86 18.76l1.18-71.69c.2-8.25 3.39-16.45 9.69-22.75 8.39-8.39 20.12-11.29 30.9-8.87ZM103.5 385.59c2.03 2.03 3.64 4.31 5.04 6.68l72.62-30.07c-4.52-9.56-10.71-18.52-18.62-26.44-10.75-10.75-23.46-18.29-36.95-22.83 13.5-4.54 26.2-12.08 36.95-22.83 7.91-7.91 14.1-16.88 18.62-26.44l-72.62-30.07c-1.4 2.37-3 4.65-5.04 6.68-12.74 12.74-33.18 12.93-46.25.74L4.69 193.26c-10.73 32.99-3.07 70.65 23.14 96.86 10.75 10.75 23.46 18.29 36.95 22.83-13.49 4.54-26.2 12.08-36.95 22.83-26.21 26.2-33.87 63.86-23.14 96.85l52.56-47.77c13.07-12.19 33.51-12 46.25.74Z"></path></svg>