<svg xmlns="http://www.w3.org/2000/svg" width="446.4" viewBox="0 0 446.4 608.2" height="608.2" xml:space="preserve"><path d="M227.4 0c-46.5 0-92.7 15.2-130.1 42.9C9.2 101.8.8 200.3.1 219.5L0 486.4c0 .3.1.5.3.7 5.4 4.7 53.3 47.8 61.5 120.3 0 .5.4.8.9.8h23.6c.5 0 .9-.4.9-.9v-152c0-.4-.3-.8-.7-.9C70 451.2 58 436.7 58 419.9s12-31.3 28.5-34.5c.4-.1.7-.5.7-.9V223.2C89.6 153 156.4 89 227.4 89c71.7 0 129.9 58.3 129.9 129.9 0 71.7-58.3 129.9-129.9 129.9-10.2 0-20.3-1.2-30.1-3.5-.3-.1-.6 0-.8.2-.2.2-.3.4-.3.7v89.3c0 .5.4.9.9.9h23.5c23.7 0 43.6-.5 65.1-6.4 10-2.8 19.8-6.2 29.3-10.4C394.8 384.8 446.4 306 446.4 219c0-120.8-98.2-219-219-219z"></path><path d="M197 334.1c8.6 2 20.3 3.3 30.5 3.3 65.3 0 118.4-53.1 118.4-118.4 0-65.3-53.1-118.4-118.4-118.4-59.3 0-112.5 45.1-126.4 107.2-2.1 9.5-2.3 19.1-2.3 28.1v148.5c0 .4.3.8.7.9 16.7 3.1 28.8 17.6 28.8 34.5s-12.1 31.5-28.8 34.5c-.4.1-.7.5-.7.9v152c0 .5.4.9.9.9h21.8c.5 0 .8-.3.9-.8 8.1-72.5 56.3-115.6 61.7-120.3.2-.2.3-.4.3-.7l-.1-248.6v-1.4c0-27.2 17.7-46.9 42.2-46.9h1.1c4.3.1 8.2.9 11.8 2.5 10.8 4.7 17.7 15.3 17.7 27 0 16.3-13.2 29.5-29.5 29.5-11.5 0-22.1-6.8-26.8-17.3-.6-1.3-1.5-2-2.6-2-.1 0-.2 0-.3.1-.6.2-1.5 1.3-1.5 6.1l.1 97.9c-.2.4 0 .8.5.9z"></path></svg>