<svg xmlns="http://www.w3.org/2000/svg" width="595.8" viewBox="0 0 595.8 595.8" height="595.8"><circle class="st0" cx="297.8" cy="296.9" r="38.5"></circle><path class="st0" d="M298.3 221.4c-41.6 0-75.5 33.9-75.5 75.5s33.9 75.5 75.5 75.5 75.5-33.9 75.5-75.5-33.9-75.5-75.5-75.5zm69.3 74.8h-27.8v.7c0 30.5-24.9 55.4-55.4 55.4-30.3 0-55-24.5-55.4-54.7h27.8v-.7c0-30.5 24.9-55.4 55.4-55.4 30.3 0 55 24.5 55.4 54.7z"></path><path class="st0" d="M297.9 184.5c-62 0-112.4 50.4-112.4 112.4 0 62 50.4 112.4 112.4 112.4s112.4-50.4 112.4-112.4c0-62-50.4-112.4-112.4-112.4zm106 111.7h-27.1v.7c0 50.9-41.5 92.4-92.4 92.4-50.7 0-92-41.1-92.4-91.7h27.1v-.7c0-50.9 41.5-92.4 92.4-92.4 50.7 0 92 41.1 92.4 91.7z"></path><path class="st0" d="M297.9 147.4c-82.4 0-149.5 67.1-149.5 149.5s67.1 149.5 149.5 149.5 149.5-67.1 149.5-149.5-67.1-149.5-149.5-149.5zm143 148.8h-27.1v.7c0 71.4-58.1 129.5-129.5 129.5-71.2 0-129.1-57.7-129.5-128.8H182v-.7c0-71.4 58.1-129.5 129.5-129.5 71.1 0 129.1 57.7 129.4 128.8z"></path><path class="st0" d="M297.9 110.3c-102.9 0-186.6 83.7-186.6 186.6S195 483.5 297.9 483.5s186.6-83.7 186.6-186.6-83.7-186.6-186.6-186.6zM478 296.2h-27.1v.7c0 91.9-74.7 166.6-166.6 166.6-91.6 0-166.2-74.3-166.6-165.9h27.1v-.7c0-91.9 74.7-166.6 166.6-166.6 91.7 0 166.2 74.3 166.6 165.9z"></path><path class="st0" d="M297.9 73.2c-123.3 0-223.7 100.3-223.7 223.7s100.3 223.7 223.7 223.7c123.3 0 223.7-100.3 223.7-223.7S421.2 73.2 297.9 73.2zm217.2 223H488v.7c0 112.3-91.4 203.7-203.7 203.7-112.1 0-203.3-91-203.7-203h27.1v-.7c0-112.3 91.4-203.7 203.7-203.7 112.1 0 203.3 91 203.7 203z"></path><path class="st0" d="M297.9 36.1c-143.8 0-260.8 117-260.8 260.8s117 260.8 260.8 260.8 260.8-117 260.8-260.8-117-260.8-260.8-260.8zm254.3 260.1h-27.1v.7c0 132.8-108 240.8-240.8 240.8-132.5 0-240.4-107.6-240.8-240h27.1v-.7c0-132.8 108-240.8 240.8-240.8 132.6-.1 240.4 107.5 240.8 240z"></path><path class="st0" d="M595.8 296.9c-.3-79.4-31.4-153.9-87.6-210C452 30.9 377.3 0 297.9 0S143.8 30.9 87.6 86.9C31.4 143 .3 217.5 0 296.9v1c0 164.3 133.6 297.9 297.9 297.9s297.9-133.6 297.9-297.9v-1zm-33.6 1c0 153.2-124.7 277.9-277.9 277.9S6.4 451.1 6.4 297.9v-.2h27.1v-.7c.3-74 29.3-143.6 81.7-195.8C167.7 48.8 237.4 20 311.5 20c74.1 0 143.7 28.8 196.2 81.1 52.3 52.1 81.3 121.4 81.7 195.1h-27.1l-.1 1.7z"></path></svg>