<svg xmlns="http://www.w3.org/2000/svg" width="599.7" viewBox="0 0 599.7 577.5" height="577.5"><path d="M195.1 61.6V49.9l-95.6 55.2v11.7zM99.5 69.9l95.6-55.2V2.9L99.5 58.1zM195.1 38.2V26.4L99.5 81.6v11.7zM195 96.9L99.5 152l.1 11.7 95.4-55.1zM195 85.1V73.4l-95.5 55.1v11.8zM404.5 480.6l95.6-55.2v-11.7l-95.6 55.2zM500 472.4l.1-11.8-95.6 55.2v11.7zM500.1 448.9v-11.7l-95.6 55.1v11.8zM500 507.6l-95.5 55.1.1 11.8 95.4-55.2zM500 495.9v-11.8l-95.5 55.2V551zM404.5 210.6v11.8l95.5-55.2v-11.7zM500 261.1v-11.7l-131.5 75.9 10.2 5.9zM307.6 290.1l10.1 5.8L500 190.7V179zM500 202.4l-172.1 99.4 10.2 5.9L500 214.2zM500 237.7v-11.8l-151.8 87.7 10.2 5.8zM500 96.8V85.1l-95.4 55.1v11.7zM500 272.9l-111.2 64.2 10.2 5.8 101-58.3zM500.1 61.6l-95.5 55.1v11.7l95.5-55.1zM500 143.8V132l-95.5 55.2v11.7zM500 120.3v-11.8l-95.4 55.2-.1 11.7zM195.1 437.2v-11.8l-95.5 55.2v11.7zM99.6 410.1v11.8l95.5-55.2V355zM99.6 386.7v11.7l191.8-110.7-10.2-5.9zM195.1 378.5l-95.5 55.1v11.8l95.5-55.2zM195.1 413.7V402l-95.5 55.1v11.7zM250.7 264.2l-10.1-5.9-141 81.4v11.7zM195.1 448.9L99.6 504v11.8l95.5-55.1zM271.1 276l-10.2-5.9-161.3 93.1v11.7zM200 234.8l-100.3 58v11.7l110.4-63.8zM230.4 252.5l-10.1-5.9-120.6 69.6V328zM254.1 31.5l-10.2-5.9v110.3l10.2 5.8zM274.4 43.2l-10.1-5.9v110.3l10.1 5.9zM203.3 2.1v110.2l10.1 5.9V8zM233.8 19.7l-10.2-5.8v110.2l10.2 5.9zM294.8 55l-10.2-5.9v110.3l10.2 5.8zM304.9 282.6l10.2-5.8V66.7l-10.2-5.9zM396.4 113.7l-10.2-5.9v128l10.2-5.9zM365.9 96.1v151.4l10.2-5.9V101.9zM345.6 259.2l10.1-5.9V90.2l-10.1-5.9zM325.2 270.9l10.2-5.8V78.4l-10.2-5.8zM254.1 319l-10.2 5.8V488l10.2 5.9zM274.4 307.3l-10.1 5.8v186.6l10.1 5.9zM294.8 295.5l-10.2 5.9v210.1l10.2 5.9zM203.3 348.3v116.2l10.1 5.9v-128zM233.8 330.7l-10.2 5.9v139.7l10.2 5.8zM304.9 523.2l10.2 5.9V418.8l-10.2-5.9zM396.4 465.8l-10.2-5.8v110.2l10.2 5.9zM325.2 535l10.2 5.8V430.6l-10.2-5.9zM345.6 546.7l10.1 5.9V442.3l-10.1-5.9zM365.9 448.2v110.3l10.2 5.8V454.1zM538.7 195.8l-10.2-5.8v110.2l10.2 5.9zM518.4 294.4V184.1l-10.2-5.8v110.2zM559 207.6l-10.1-5.9V312l10.1 5.9zM579.4 219.3l-10.2-5.9v110.3l10.2 5.9zM599.7 231l-10.2-5.9v110.4l10.2 5.9zM10.2 353V242.7L0 236.8v110.3zM30.5 254.4l-10.2-5.8v110.2l10.2 5.9zM71.2 277.8L61 272v110.3l10.2 5.9zM91.5 289.6l-10.2-5.9v110.4l10.2 5.8zM50.8 266.1l-10.1-5.8v110.3l10.1 5.9zM328.7 41.1l95.5 55.1 10.2-5.8-95.5-55.2zM414.1 102.1L318.6 47l-10.2 5.9 95.5 55.1zM389.7 5.9l95.5 55.2 10.2-5.9L399.8 0zM369.3 17.6l95.6 55.2 10.2-5.9-95.6-55.2zM349 29.4l95.6 55.1 10.1-5.8-95.5-55.2zM145.8 498.9l95.5 55.1 10.2-5.9L156 493zM125.5 510.6l95.5 55.1 10.2-5.8-95.6-55.2zM210.8 571.6l-95.5-55.1-10.1 5.8 95.4 55.2zM166.1 487.1l95.6 55.2 10.1-5.9-95.5-55.2zM186.4 475.4l95.6 55.1 10.2-5.8-95.6-55.2zM166.2 135.1l130.6 75.4v-11.8l-120.5-69.5zM186.5 123.3L296.8 187v-11.7l-100.1-57.8zM125.5 158.5l171.3 98.9v-11.7l-161.1-93zM145.8 146.8l151 87.1v-11.7L156 140.9zM109.1 278.2l-95.4-55.1-10.2 5.8L99 284zM105.2 170.3l191.6 110.6v-11.8L115.3 164.4zM84.8 182l95.5 55.1 10.2-5.8L95 176.1zM64.5 193.7l95.5 55.2 10.2-5.9-95.5-55.1zM23.8 217.2l95.5 55.1 10.2-5.9L34 211.3zM44.2 205.5l95.5 55.1 10.1-5.9-95.5-55.1zM471.1 311.1l95.5 55.1 10.2-5.8-95.5-55.1zM414.1 454.2L302.8 390v11.7l101.1 58.4zM491.5 299.4l95.4 55.1 10.2-5.9-95.5-55.1zM430.4 334.6l95.5 55.1 10.2-5.9-95.5-55.1zM450.8 322.8l95.5 55.2 10.1-5.9L461 317zM302.8 331.3l162.1 93.6 10.2-5.9-172.3-99.4zM410.1 346.3l95.5 55.1 10.2-5.8-95.5-55.2zM302.8 307.9l182.5 105.3 10.1-5.9-192.6-111.2zM302.8 354.8l141.8 81.8 10.2-5.8-152-87.7zM302.8 378.3l121.5 70.1 10.1-5.9-131.6-76z"></path></svg>