<svg data-name="Layer 1" xmlns="http://www.w3.org/2000/svg" viewBox="0 0 493.17 602.56"><path d="m95.72 331.19 397.45 221.68v-29.39L95.72 301.8v29.39zM95.72 252.11v29.4l397.45 221.68V473.8L95.72 252.11zM142.45 129.13 0 49.68v29.4l116.1 64.75 26.35-14.7zM186.99 104.29 0 0v29.4l160.63 89.59 26.36-14.7zM355.45 132.97v-29.4l-85.08 47.45 26.33 14.71 58.75-32.76zM314.86 175.89l26.33 14.71 14.26-7.95v-29.4l-40.59 22.64zM198.18 288.98l26.36-14.7-128.82-71.85v29.4l102.46 57.15zM269.07 249.44 0 99.36v29.4l242.72 135.38 26.35-14.7zM181.76 428.87l311.41 173.69v-29.4L181.76 399.47v29.4zM440.86 246.31l-89.07 49.68 16.19 20.36 72.88-40.65v-29.39zM440.86 295.99l-61.71 34.42 16.2 20.36 45.51-25.39v-29.39zM440.86 375.07v-29.4l-34.34 19.15 16.19 20.37 18.15-10.12z"></path></svg>