<svg xmlns="http://www.w3.org/2000/svg" width="642" viewBox="0 0 642 642" height="642" data-name="Layer 1"><path d="M613.11 0v597.21l-20.86-32.35V0h-28.89v520.07l-20.86-32.35V0h-28.89v442.93l-20.86-32.35V0h-28.89v365.79L443 333.44V0h-28.89v288.65L227.91 0h-28.89v32.35L178.16 0h-28.89v32.35L128.4 0H99.51v32.35L78.65 0H49.76v32.35L28.89 0H0v642h28.89V44.79l20.86 32.35V642h28.89V121.93l20.86 32.35V642h28.89V199.07l20.86 32.35V642h28.89V276.21L199 308.56V642h28.89V353.35L414.07 642h28.89v-32.35L463.82 642h28.89v-32.35L513.57 642h28.89v-32.35L563.32 642h28.89v-32.35L613.07 642h28.89V0h-28.89ZM513.6 487.72v32.35l-20.86-32.35v-32.35l20.86 32.35Zm-49.76-77.14v32.35l-20.86-32.35v-32.35l20.86 32.35ZM227.91 199.07l186.18 288.65v32.35L227.91 231.42v-32.35Zm-28.89-12.44-20.86-32.35v-32.35l20.86 32.35v32.35Zm28.89-32.35v-32.35l186.18 288.65v32.35L227.91 154.28Zm215.07 301.09 20.86 32.35v32.35l-20.86-32.35v-32.35ZM227.91 44.79l186.18 288.65v32.35L227.91 77.14V44.79Zm-49.75 0 20.86 32.35v32.35l-20.86-32.35V44.79Zm-49.76 0 20.86 32.35v32.35L128.4 77.14V44.79ZM78.65 77.14V44.79l20.86 32.35v32.35L78.65 77.14Zm49.75 77.14v-32.35l20.86 32.35v32.35l-20.86-32.35Zm49.76 77.14v-32.35l20.86 32.35v32.35l-20.86-32.35Zm235.93 365.79L227.91 308.56v-32.35l186.18 288.65v32.35Zm49.75 0-20.86-32.35v-32.35l20.86 32.35v32.35Zm49.76 0-20.86-32.35v-32.35l20.86 32.35v32.35Zm49.75 0-20.86-32.35v-32.35l20.86 32.35v32.35Z"></path></svg>