<svg data-name="Layer 1" xmlns="http://www.w3.org/2000/svg" viewBox="0 0 623.71 623.66"><path d="m0 308.31 102.72 132.4-.1-212.01L0 308.31zM315.93 279.53l25.25 32.55 53.63-205.77-213.2.11 29.54 38.07-103.81 80.55 208.59 54.49zM308.47 623.66l132.4-102.72-212.01.1 79.61 102.62z"></path><path d="m312.19 282.42-205.77-53.63.11 213.19 38.07-29.54 80.55 103.82 54.49-208.6 32.55-25.24zM520.99 182.77l.1 212.02 102.62-79.62-102.72-132.4z"></path><path d="m307.77 343.95-25.24-32.55-53.63 205.77 213.2-.1-29.54-38.08 103.81-80.54-208.6-54.5zM315.37 0l-132.4 102.72 212.01-.1L315.37 0z"></path><path d="m479.1 211.04-80.54-103.81-54.5 208.59-32.55 25.24 205.77 53.64-.11-213.2-38.07 29.54z"></path></svg>