<svg data-name="Layer 1" xmlns="http://www.w3.org/2000/svg" viewBox="0 0 596.6 594.57"><path d="M.12 87.64h66.46v216.44H.12zM203.61 0h66.46v304.08h-66.46zM.12 0h182v66.22H.12zM88.07 204.9h94.05v66.22H88.07zM291.44 0h217.21v66.22H291.44zM291.44 202.77H596.6v66.22H291.44zM530.14 0h66.46v181.36h-66.46zM324.52 87.64h66.46v93.72h-66.46zM530.14 290.49h66.46v216.44h-66.46zM326.65 290.49h66.46v304.08h-66.46zM414.6 528.34h182v66.22h-182zM414.6 323.44h94.05v66.22H414.6zM87.95 528.34h217.2v66.22H87.95zM0 325.57h305.16v66.22H0zM0 413.21h66.46v181.36H0zM205.63 413.21h66.46v93.71h-66.46z"></path></svg>