<svg xmlns="http://www.w3.org/2000/svg" width="575.3" viewBox="0 0 575.3 616.4" height="616.4" xml:space="preserve"><path d="M520.2 317.1c-8.9-4.4-18.2-7.4-27.7-8.9 9.6-1.6 19-4.5 27.8-8.9 48.7-24.2 68.8-83.8 44.9-132.9-24.1-49.4-64.3-91.5-116.4-121.8C398.7 15.4 342.3 0 285.7 0 167.4 0 59.2 65.3 10 166.5c-23.9 49.2-3.7 108.7 45 132.8 8.9 4.4 18.2 7.4 27.7 8.9-9.6 1.6-19 4.5-27.8 8.9C6.3 341.3-13.8 400.9 10.1 450c24.1 49.4 64.3 91.5 116.4 121.8 50.2 29.2 106.6 44.6 163.2 44.6 118.3 0 226.5-65.3 275.7-166.5 23.7-49.1 3.5-108.7-45.2-132.8zm-121 26.6c-2.2 2.8-4.5 5.6-6.7 8.4-16 20.3-32.5 41.3-56.9 53.3-14.1 7-30.6 10.7-47.6 10.7-14.4 0-28.5-2.7-40.8-7.8-29-12.1-48.6-36.5-67.5-60.2l-3.6-4.5c-15.2-18.9-37.6-31.6-61.8-35.4 24.3-3.9 46.7-16.5 61.9-35.5 2.2-2.8 4.5-5.6 6.7-8.4 16-20.3 32.5-41.3 56.9-53.3 14.1-7 30.6-10.7 47.6-10.7 14.4 0 28.5 2.7 40.8 7.8 29 12.1 48.6 36.5 67.5 60.2l3.6 4.5c15.2 18.9 37.6 31.6 61.8 35.4-24.3 3.9-46.7 16.6-61.9 35.5z"></path><ellipse cx="287.6" cy="307.9" rx="99.9" ry="98.3"></ellipse></svg>