<svg data-name="Layer 1" xmlns="http://www.w3.org/2000/svg" viewBox="0 0 544.67 631.04"><path d="M499.9 122.94C451.23 48.93 367.54 0 272.34 0S93.44 48.93 44.77 122.94h164.82v380.97c19.11 8.36 40.2 13.02 62.39 13.02 19.44 0 38.04-3.59 55.21-10.09v-383.9H499.9Z"></path><path d="M116.41 364.99c0-58.7 32.45-109.8 80.37-136.4H36.66C13.39 268.71 0 315.27 0 364.99 0 492.61 87.83 599.6 206.31 629.13V506.16c-53.08-24.87-89.9-78.67-89.9-141.16ZM508.01 228.59H347.89c47.92 26.6 80.37 77.7 80.37 136.4 0 65.54-40.49 121.54-97.78 144.6v121.46C452.94 604.41 544.67 495.44 544.67 365c0-49.72-13.39-96.28-36.66-136.4Z"></path></svg>