<svg data-name="Layer 1" xmlns="http://www.w3.org/2000/svg" viewBox="0 0 609.93 626.39"><path d="M451.49 0 308.07 143.42 164.65 0 .09 164.36v297.28l-.09.09 164.65 164.65 143.42-143.42L451.5 626.39l158.43-158.43V158.44L451.49 0Zm0 42.46 122.2 122.2L451.5 286.85l-122.2-122.2L451.5 42.46ZM30.12 176.96 149.64 57.47V312.1L30.12 431.62V176.96Zm134.53 406.97-122.2-122.2 122.2-122.19 122.2 122.19-122.2 122.2Zm271.83-15L179.66 312.1V57.47L436.48 314.3v254.63Zm30.02 0V314.3l113.4-113.4v254.63l-113.4 113.4Z"></path></svg>