<svg xmlns="http://www.w3.org/2000/svg" width="416.7" viewBox="0 0 416.7 611.3" height="611.3" xml:space="preserve"><path d="M103.2 205.9c56.4 0 102.1 44.5 102.1 99.4 0 54.9-45.7 99.4-102.1 99.4-56.4 0-102.1-44.5-102.1-99.4 0-54.9 45.7-99.4 102.1-99.4z"></path><ellipse cx="313.3" cy="100.8" rx="101.5" ry="99.3"></ellipse><ellipse cx="313.3" cy="510.3" rx="101.5" ry="99.5"></ellipse><path d="M0 407.5v203.8h209.2V407.5H0zm103.8 200c-56.1 0-100-43.9-100-98.1 0-54.2 43.9-98.1 100-98.1s101.5 43.9 101.5 98.1c0 54.2-45.4 98.1-101.5 98.1zM0 0v203.8h209.1V0H0zm103.8 200.8c-56.6 0-100.9-44.3-100.9-98.9C2.9 47.3 47.2 3 103.8 3s102.5 44.3 102.5 98.9c0 54.6-45.9 98.9-102.5 98.9zM209.1 203.7v203.8h207.6V203.7H209.1zm103.8 200c-55.2 0-100-43.1-100-98.1 0-55 44.8-98.1 100-98.1s100 43.1 100 98.1c0 55-44.8 98.1-100 98.1z"></path></svg>