<svg data-name="Layer 1" xmlns="http://www.w3.org/2000/svg" viewBox="0 0 545.25 584.02"><path d="m443.09 0-85.23 85.23L272.62 0l-85.23 85.23L102.16 0 0 102.16v379.7l102.16 102.16 102.16-102.16v-88.03l68.3 68.3 68.3-68.3v88.03l102.16 102.16 102.16-102.16v-379.7L443.09 0ZM33.86 238.08l51.37-51.37v74.01l-51.37 51.37v-74.01Zm0 121.89 51.37-51.37v74.01l-51.37 51.37v-74Zm51.37 70.52v88.72l-44.36-44.36 44.36-44.36Zm33.86 0 44.36 44.36-44.36 44.36v-88.72Zm0-47.88V308.6l51.37 51.37v74l-51.37-51.37Zm0-121.89v-74.01l51.37 51.37v74.01l-51.37-51.37Zm85.23-110.67 51.37 51.37v74.01l-51.37-51.37v-74.01Zm85.23 51.37 51.37-51.37v74.01l-51.37 51.37v-74.01Zm85.23 36.66 51.37-51.37v74.01l-51.37 51.37v-74.01Zm51.37 70.52v74.01l-51.37 51.37v-74l51.37-51.37Zm0 121.89v88.72l-44.36-44.36 44.36-44.36Zm33.86 0 44.36 44.36-44.36 44.36v-88.72Zm0-47.88V308.6l51.37 51.37v74l-51.37-51.37Zm0-121.89v-74.01l51.37 51.37v74.01l-51.37-51.37Zm51.37-70.52-51.37-51.37V64.81l51.37 51.37v74.01ZM426.15 64.82v74.01l-51.37 51.37v-74.02l51.37-51.37ZM272.62 47.89l61.29 61.29-61.29 61.29-61.29-61.29 61.29-61.29Zm-102.16 68.3v74.01l-51.37-51.37V64.81l51.37 51.37ZM85.23 64.82v74.01L33.86 190.2v-74.02l51.37-51.37Zm119.09 207.12 51.37 51.37v74.01l-51.37-51.37v-74.01Zm85.23 125.38v-74.01l51.37-51.37v74.01l-51.37 51.37Z"></path></svg>