<svg xmlns="http://www.w3.org/2000/svg" width="624.9" viewBox="0 0 624.9 335.6" height="335.6" xml:space="preserve" style="enable-background:new 0 0 624.9 335.6"><path d="M304.6 7.6v63.1C274.2 28 224.3 0 167.8 0 75.1 0 0 75.1 0 167.8c0 92.7 75.1 167.8 167.8 167.8 56.5 0 106.4-28 136.8-70.8v63.1h320.3V7.6H304.6zM167.8 305.1c-75.7 0-137.3-61.6-137.3-137.3 0-75.7 61.6-137.3 137.3-137.3 72.2 0 131.5 56 136.8 126.9v20.8C299.3 249 240 305.1 167.8 305.1zm426.6-7.7H335.1V38.1h259.3v259.3z"></path><path d="M167.8 108.7c-32.6 0-59.1 26.5-59.1 59.1s26.5 59.1 59.1 59.1 59.1-26.5 59.1-59.1c0-32.7-26.5-59.1-59.1-59.1zM405.7 108.7h118.2v118.2H405.7z"></path></svg>