<svg xmlns="http://www.w3.org/2000/svg" width="617.9" viewBox="0 0 617.9 626.3" height="626.3" xml:space="preserve" style="enable-background:new 0 0 617.9 626.3"><path d="M459.7 153.1V85.4L308.9 0 158.5 87.3v67.8L309 67.7zM617.9 348.1l-58.7-33.7v187.9l-152 90.3 58.7 33.7 152-90.4zM58.8 315.9 0 349.7v186.2l150.3 90.4 58.7-33.7-150.2-90.3z"></path><g><path d="m459.4 267.5.1 51.3L309 231.7l-53.1 30.7v-49l53.2-30.7 150.3 84.8v-67.6l-150.5-85.1L158.5 202v67.5l38.5-22.3v178.2l53.2 30.7-37 21.5-55-32.6.3-175.6-58.9 33.8v175.5l150.3 90.4 59.1-34.6-37.8-22.4 149.7-86.6v-61.2l38.7 22.5.1 58.3L309 534.6l58.2 34 151.1-89.8V300.5l-58.9-33zm-97.3 124.1-51.7 29.9v-.1l-1.4.8-53-30.6v-61.3l53.1-30.7 53.1 30.7v61.3z"></path></g></svg>