<svg xmlns="http://www.w3.org/2000/svg" width="630.5" viewBox="0 0 630.5 615.3" height="615.3" xml:space="preserve" style="enable-background:new 0 0 630.5 615.3"><path d="M618.5 309.2c-11.9-30.4-28.1-47.5-52.1-66.8-4.2-3.4-10.3-7.2-16.2-10.8-2.8-1.7-4.6-2.8-7.2-4.5l.1-6v-.6c-.3-36.8-9.8-73.4-27.7-105.8-28.6-52.1-75.7-89.7-132.6-106C326.1-7.7 266.4-.7 214.7 28.1c-24.6 13.7-52.4 31.3-72.3 57.2-19.9 26-26.2 48.8-30.4 79.3-.6 4-1 11.4-1.4 22-.1 2.4-.2 4.5-.2 6.3l-4.6 2.2-.6.3c-31.1 19.6-57.3 47-75.7 79.5-60.9 107.5-24.9 244.9 80.3 306.2 24.2 14.1 53.3 29.1 85.6 32.7 4.3.5 8.4.8 12.4.9 25.9.9 46.2-5.4 70.5-16.2 5-2.2 11.1-5.8 17.1-9.4 1.5-.9 2.9-1.7 4.4-2.6 30.8 17.3 65.6 27.1 101.2 28.3 122.2 4.1 225-92.1 229.1-214.4 1-27.9.4-60.8-11.6-91.2zm.5 91.1c-.4 11.4-1.7 22.6-3.8 33.5-2-12.3-6.4-23.8-10.8-34.9-2.2-5.7-4.5-11.5-6.4-17.4-4.7-14.5-6.9-27.7-6.5-39.1 0-.3 1-26.6 8.9-45.5 2.8 5 5.3 10.5 7.7 16.5 11.2 28.4 11.8 59.9 10.9 86.9zm-59.6-149.2c13.8 11.3 25 21.6 34.1 34.5-11.8 21.2-13.1 54.9-13.1 56.4-.4 12.8 1.9 27.2 7 43 .6 1.7 1.1 3.4 1.7 5.1-35.6-.2-68.5 18.5-86.7 48.7-3.5-5.3-7.4-10.5-11.8-15.3-19.9-21.8-46.9-35.1-76.4-37.8-.5-1.2-1.1-2.3-1.6-3.5-4.3-10-9.2-24.9-8.7-39.1l1.9-57.4c1 .1 2 .1 3 .2 46.1 1.6 86.6-25.1 104.7-64.5l16.3 10.3c8.8 5.7 23 14.1 29.6 19.4zM401.4 604c-31.4-1.1-62.2-9.2-89.9-23.6l138.2-80.6-28.8-16.8c5.5-9.8 14.5-33 4.5-69.6-1.5-5.6-3.6-10.9-5.9-16 53 7.9 92.1 53.5 90.3 107.4-1.9 55-45.5 97.3-100.7 99.3-2.6 0-5.1-.1-7.7-.1zm-182-220.6c-7.3-.4-14.2-.7-21-2.2-43.8-9.6-54.6-34.9-55-35.9l-1.2-2.3 144.5-80.6c13.8-7.7 24.9-20.4 31.7-29.7 2.3-3.1 4.4-6.2 6.5-9.2 4.7-6.9 9.1-13.4 14.8-19.1 30.2-30.9 56.1-27.4 57.2-27.3l.4.1h1.2l-5.6 165.4c-.6 16.3 4.9 32.9 9.6 43.9 1.3 3.1 2.7 6 4 8.9 3.2 7 6.3 13.6 8.2 20.8 9 33.2 1 53.3-3.4 61.1L272.1 396c-13.3-7.8-29.3-10.7-40.4-11.8-4.2-.3-8.3-.5-12.3-.8zm312.5-163.8-132.1-83.9-1 30.3h-.7c-4.1-.5-33.9-2.7-66.5 30.6-4.5 4.6-8.3 9.6-11.9 14.6-20.4-49.8-1.4-107 45.6-133.2 23.9-13.3 51.2-16.6 76.9-9.3 26.7 7.7 49.1 25.9 63.2 51.5l.2-.1c16.8 30.5 25.9 64.9 26.3 99.5zM379.7 19.4c30.5 8.7 58 24 81.1 44.4-5-2.3-10.2-4.2-15.6-5.7-28.5-8.2-58.8-4.5-85.3 10.2-16.9 9.4-30.9 22.8-41.1 38.9-34.5 2.3-67.3-15.6-84.1-46.1-.3-.5-.5-1-.8-1.5l1.2-1.5c9.6-12.5 18.7-24.3 31.9-32.2 17-10.2 38.1-14.6 57.8-14.6 18.4.2 36.8 2.9 54.9 8.1zM151.3 92.2c18.7-24.4 45.3-41.1 68.8-54.3 9.9-5.5 20.2-10.2 30.6-14-9.6 8.1-17.1 17.9-24.5 27.4-3.7 4.8-7.6 9.8-11.6 14.5-10 11.5-20.1 20.2-30.1 25.8-.3.1-23.2 12.8-43.4 15.8 3-5.1 6.3-10.1 10.2-15.2zm-28.2 74c2.4-17.7 5.6-32.7 12-47.1 24.2-.8 53.6-17.1 54.9-17.8 11.1-6.2 22.3-15.7 33.1-28.2 1.2-1.3 2.3-2.7 3.4-4.1 17.5 29.8 48.9 48.3 82.9 49.4 1 0 2.1.1 3.1.1-2.8 5.8-5.2 11.8-7 18-8.4 28.4-6 58.5 6.8 85.2-1 1.4-2 2.9-3.1 4.3-6.2 8.4-16.1 19.9-28.1 26.6L231 280.5c-.5-.9-.9-1.8-1.4-2.7-22.1-40.1-66.3-61.2-109-57l.7-19.4h-1.4 1.4c.2-2 .7-26.8 1.8-35.2zm-12.9 39.5-5.4 158.1 27.7-15.4.6 1.2c1.4 3.4 14.8 32 63 42.5 5.2 1.1 10.4 1.7 15.5 2-31.8 43.8-90 57.4-136.2 30.4-49.5-28.9-65.1-92.5-35.5-144.8 17.2-30 41.5-55.6 70.3-74zM14.6 349.3c4 34.6 23.2 66.3 55.2 84.9 16.2 9.5 34.2 14.6 52.6 15.2h1.5c17.4 25.9 16.2 62.8-3.2 97.1-.2.3-.3.6-.4.9-13.8-1.6-26.8-3.7-38.8-10.2-17.4-9.4-31.4-24.8-41.8-42.6-25-43.4-34.1-95.1-25.1-145.3zm182.1 253.6c-30.2-3.4-58-17.7-81.2-31.2-9.9-5.8-19.1-12.3-27.7-19.4 11.8 4.1 24 5.5 35.8 6.9 6 .7 12.2 1.4 18.2 2.5 14.9 2.6 27.4 6.9 37.2 12.6.3.1 22.9 13.5 35.7 29.5-5.6 0-11.6-.2-18-.9zm93.1-23.2c-5.7 3.4-11.5 6.9-15.9 8.8-16.3 7.2-30.5 12.2-46 14.3-13.1-20.5-41.9-37.5-43.2-38.3-11-6.4-24.8-11.1-40.9-14-3.7-.7-7.4-1.2-11.1-1.6l-.5-.5c18.3-34.5 19.8-71.5 4.3-99.5 6.4-.6 12.8-1.7 19.1-3.4 28.4-7.6 52.7-25.5 68.9-50.6 2.1.1 4.1.3 6.2.5 10 1 24.3 3.6 35.9 10.4l48.3 28.2c-.7 1.1-1.3 2.1-1.9 3.2-23 40.6-23.9 93.3 1.7 128.4l-9.8 5.7c-4.5 2.1-9.7 5.2-15.1 8.4zm183.4 14.2c28-19.7 46.4-51.6 47.7-88.8.7-19.4-3.6-38.3-12.1-55.3 15.8-30.9 48.1-50 82.9-48.8.5 0 1.1.1 1.6.1.2.6.5 1.2.7 1.8 5.7 14.7 11.1 28.5 11.1 43.9 0 19.9-6.4 40.2-17.4 57.2-26.2 42.2-66.8 74.4-114.5 89.9z"></path></svg>