<svg data-name="Layer 1" xmlns="http://www.w3.org/2000/svg" viewBox="0 0 523.88 614.48"><path d="M523.88 358.94V255.55H313.86v-.3C431.91 231.23 521.03 126.62 521.03 1.58V0H417.64v1.57c0 67.61-43.39 125.25-103.78 146.61V0H210.47v148.17c-60.39-21.36-103.78-78.99-103.78-146.6V0H3.29v1.57c0 125.04 89.12 229.65 207.17 253.67v.3H0v103.39h210.46v.3C92.41 383.26 3.29 487.87 3.29 612.91v1.57h103.4v-1.57c0-67.61 43.39-125.25 103.78-146.61v148.17h103.39V466.3c60.38 21.36 103.78 79 103.78 146.61v1.57h103.39v-1.57c0-125.04-89.12-229.65-207.17-253.68v-.3h210.02Z"></path></svg>