<svg id="Layer_1" data-name="Layer 1" xmlns="http://www.w3.org/2000/svg" viewBox="0 0 596.77 557.22">   <path d="M347.85,166.33v172.12c0,31.91-26.96,58.87-58.87,58.87s-58.87-26.96-58.87-58.87V86.56L64.5,252.17v80.57c0,123.47,101.02,224.48,224.48,224.48h0c123.47,0,224.48-101.02,224.48-224.48V166.33h-165.61Z"></path>   <polygon points="230.11 86.48 230.11 86.56 286.47 30.2 0 30.2 0 316.67 64.5 252.17 64.5 86.48 230.11 86.48"></polygon>   <polygon points="513.47 86.48 513.47 166.33 596.77 166.33 430.44 0 264.12 166.33 347.85 166.33 347.85 86.48 513.47 86.48"></polygon> </svg>