<svg xmlns="http://www.w3.org/2000/svg" width="624" viewBox="0 0 624 608.9" height="608.9" xml:space="preserve"><path d="M624 608.4 522.2 363.2v-66.6H397.7c-44.2 0-80.8 31.4-85.7 72.4-4.8-41.1-41.5-72.4-85.7-72.4H101.9v66.6L0 608.4h237.3l-100-240.7h92.2c26.3 0 47.8 20.7 47.8 45.9v195.3h69.5V413.6c0-25.2 21.5-45.9 47.8-45.9h92.2l-100 240.7H624zm-403.5-11.2H16.8l95.3-229.5h13.1l95.3 229.5zm278.4-229.5H512l95.3 229.5H403.5l95.4-229.5zM118.6 0h386.7v67.1H118.6z"></path><circle cx="312" cy="192.5" r="90.7"></circle></svg>