<svg id="Layer_1" data-name="Layer 1" xmlns="http://www.w3.org/2000/svg" viewBox="0 0 605.69 605.69">   <path d="M302.85,0C135.59,0,0,135.59,0,302.85s135.59,302.85,302.85,302.85,302.85-135.59,302.85-302.85S470.1,0,302.85,0Zm.64,434.14c-100.66,0-182.55-81.89-182.55-182.55v-97.32c7.43-3.48,15.14-6.73,23.12-9.74v107.05c0,42.35,16.65,82.32,46.87,112.55,30.23,30.23,70.2,46.88,112.55,46.88s82.33-16.65,112.55-46.87c30.23-30.23,46.87-70.2,46.87-112.55v-106.55c7.98,3.05,15.7,6.34,23.12,9.86v96.7c0,100.66-81.89,182.55-182.55,182.55h0Zm-57.22-125.33c15.45,15.45,35.77,23.96,57.22,23.96s41.77-8.51,57.22-23.95c15.45-15.45,23.96-35.77,23.96-57.22V124.36c7.85,1.28,15.56,2.76,23.12,4.41v122.82c0,27.63-10.91,53.75-30.73,73.57-19.81,19.81-45.94,30.73-73.57,30.73s-53.75-10.91-73.57-30.73c-19.81-19.82-30.73-45.94-30.73-73.57v-123.1c7.57-1.63,15.27-3.09,23.12-4.35v127.45c0,21.45,8.51,41.77,23.96,57.22Zm83.27-190.25V251.59c0,7.02-2.55,12.99-7.81,18.24-5.25,5.25-11.22,7.81-18.24,7.81s-12.98-2.55-18.24-7.81c-5.25-5.26-7.81-11.22-7.81-18.24V118.5c8.37-.4,16.84-.61,25.4-.61,9,0,17.9,.23,26.69,.67ZM8.85,302.85c0-45.17,21.16-83.83,56.96-113.96v62.71c0,119.19,88.19,218.15,202.73,235.1C122.34,477.25,8.85,407.48,8.85,302.85Zm330.65,183.7c114.03-17.41,201.67-116.14,201.67-234.95v-61.61c35.02,29.97,55.67,68.25,55.67,112.87,0,104.07-112.27,173.66-257.34,183.7Z"></path> </svg>