<svg id="Layer_1" data-name="Layer 1" xmlns="http://www.w3.org/2000/svg" viewBox="0 0 602.81 602.7">   <path d="M461.29,364.31c-2.4,0-4.96,.09-8.07,.28l-14.29,.88,3.11-13.98c1.68-7.56,2.53-15.3,2.53-23.01,0-67.49-64.06-122.4-142.8-122.4s-142.8,54.9-142.8,122.4c0,7.72,.86,15.48,2.54,23.06l3.13,14.07-14.38-.97c-3.35-.22-6.13-.33-8.74-.33-49.8,0-92.66,28.42-111.23,68.91,19.85,40.75,48.61,76.36,83.76,104.28,20.63-20.47,49.44-33.21,81.29-33.21,48.37,0,89.74,29.36,106.07,70.58,16.33-41.22,57.7-70.58,106.07-70.58,31.85,0,60.66,12.74,81.29,33.21,35.14-27.93,63.91-63.53,83.76-104.28-18.58-40.49-61.44-68.91-111.23-68.91Zm-192.41,153.12c-.65,.63-1.48,.94-2.31,.94s-1.73-.33-2.38-1c-20.78-21.35-46.11-38.05-73.74-48.74-2.04,2.71-5.28,4.47-8.94,4.47-6.19,0-11.2-5.01-11.2-11.2s5.02-11.21,11.2-11.21,11.2,5.02,11.2,11.21c0,.17-.02,.33-.02,.49,28.58,11.03,54.78,28.28,76.26,50.35,1.28,1.31,1.25,3.41-.06,4.69Zm10.13-7.15c-.52,.3-1.09,.44-1.65,.44-1.15,0-2.27-.6-2.88-1.67-15.85-27.65-35.7-52.57-59.06-74.22-1.68,1.01-3.64,1.59-5.74,1.59-6.19,0-11.2-5.02-11.2-11.2s5.02-11.21,11.2-11.21,11.2,5.02,11.2,11.21c0,1.67-.38,3.25-1.03,4.68,23.89,22.12,44.18,47.58,60.39,75.85,.91,1.59,.36,3.61-1.23,4.53Zm11.49-4.34c-.23,.05-.45,.07-.68,.07-1.54,0-2.92-1.08-3.24-2.64-6.83-32.91-18.86-64.25-35.79-93.32-.7,.14-1.43,.21-2.17,.21-6.19,0-11.2-5.02-11.2-11.21s5.02-11.2,11.2-11.2,11.2,5.02,11.2,11.2c0,3.05-1.22,5.81-3.2,7.83,17.23,29.64,29.49,61.59,36.45,95.13,.37,1.79-.78,3.55-2.57,3.92Zm14.22-4.59c0,1.83-1.49,3.32-3.32,3.32s-3.32-1.49-3.32-3.32v-100.56c-4.57-1.41-7.89-5.67-7.89-10.71,0-6.19,5.02-11.2,11.2-11.2s11.2,5.02,11.2,11.2c0,5.04-3.32,9.29-7.89,10.71v100.56Zm8.26,4.66c-.22,0-.45-.02-.68-.07-1.79-.37-2.95-2.13-2.57-3.92,6.96-33.54,19.22-65.49,36.45-95.13-1.98-2.02-3.2-4.78-3.2-7.83,0-6.19,5.02-11.2,11.2-11.2s11.2,5.02,11.2,11.2-5.02,11.21-11.2,11.21c-.74,0-1.47-.07-2.17-.21-16.92,29.07-28.96,60.41-35.79,93.32-.33,1.56-1.71,2.64-3.24,2.64Zm12.46,4.72c-.56,0-1.13-.14-1.65-.44-1.59-.91-2.14-2.94-1.23-4.53,16.2-28.27,36.5-53.73,60.39-75.85-.66-1.43-1.03-3.01-1.03-4.68,0-6.19,5.02-11.21,11.2-11.21s11.2,5.02,11.2,11.21-5.02,11.2-11.2,11.2c-2.1,0-4.06-.59-5.73-1.59-23.37,21.65-43.21,46.56-59.07,74.22-.61,1.07-1.73,1.67-2.88,1.67Zm95.86-37.63c-3.66,0-6.9-1.76-8.94-4.47-27.63,10.68-52.96,27.38-73.74,48.73-.65,.67-1.51,1-2.38,1s-1.67-.31-2.31-.94c-1.31-1.28-1.34-3.38-.06-4.69,21.48-22.08,47.68-39.33,76.26-50.35,0-.16-.02-.32-.02-.49,0-6.19,5.02-11.21,11.2-11.21s11.2,5.02,11.2,11.21-5.02,11.2-11.2,11.2Z"></path>   <path d="M301.41,0C134.94,0,0,134.95,0,301.41c0,37.59,6.9,73.57,19.47,106.75,24.49-38.33,68.43-64.28,118.74-65.37-.54-4.75-.81-9.53-.81-14.3,0-79.38,73.73-143.96,164.36-143.96s164.36,64.58,164.36,143.96c0,4.77-.27,9.56-.81,14.32,50,1.33,93.64,27.21,118.02,65.36,12.57-33.19,19.48-69.16,19.48-106.76C602.81,134.95,467.87,0,301.41,0Z"></path>   <path d="M309.59,602.7c62.26-1.66,119.81-22.2,167.15-56.11-17.82-16.91-42.28-27.37-69.26-27.37-50.43,0-92.1,36.54-97.89,83.48Z"></path>   <path d="M195.34,519.22c-26.97,0-51.44,10.46-69.26,27.37,47.33,33.91,104.88,54.45,167.15,56.11-5.79-46.94-47.46-83.48-97.89-83.48Z"></path> </svg>