<svg data-name="Layer 1" xmlns="http://www.w3.org/2000/svg" viewBox="0 0 578.09 578.09"><circle cx="77.78" cy="77.78" r="41.42"></circle><circle cx="289.05" cy="77.78" r="41.42" transform="rotate(-9.22 288.936 77.784)"></circle><path d="M289.05 155.55c42.89 0 77.78-34.89 77.78-77.78S331.93 0 289.05 0s-77.78 34.89-77.78 77.78 34.89 77.78 77.78 77.78Zm0-144.14c36.59 0 66.37 29.77 66.37 66.37s-29.77 66.37-66.37 66.37-66.37-29.77-66.37-66.37 29.77-66.37 66.37-66.37Z"></path><circle cx="77.78" cy="289.05" r="41.42" transform="rotate(-13.28 77.79 289.104)"></circle><circle cx="289.05" cy="289.05" r="41.42" transform="rotate(-13.28 289.1 289.107)"></circle><circle cx="500.31" cy="77.78" r="41.42"></circle><circle cx="500.31" cy="289.05" r="41.42"></circle><path d="M500.31 211.27c-42.89 0-77.78 34.89-77.78 77.78s34.89 77.78 77.78 77.78 77.78-34.89 77.78-77.78-34.89-77.78-77.78-77.78Zm0 144.14c-36.59 0-66.37-29.77-66.37-66.37s29.77-66.37 66.37-66.37 66.37 29.77 66.37 66.37-29.77 66.37-66.37 66.37Z"></path><circle cx="77.78" cy="500.31" r="41.41"></circle><circle cx="289.05" cy="500.31" r="41.42" transform="rotate(-9.22 288.953 500.189)"></circle><path d="M289.05 422.54c-42.89 0-77.78 34.89-77.78 77.78s34.89 77.78 77.78 77.78 77.78-34.89 77.78-77.78-34.89-77.78-77.78-77.78Zm0 144.14c-36.59 0-66.37-29.77-66.37-66.37s29.77-66.37 66.37-66.37 66.37 29.77 66.37 66.37-29.77 66.37-66.37 66.37Z"></path><circle cx="500.31" cy="500.31" r="41.42"></circle><path d="M500.31 422.54c-16.23 0-31.3 5-43.78 13.53L353.28 332.82c8.53-12.48 13.53-27.56 13.53-43.78s-5-31.29-13.53-43.77l103.25-103.25c12.48 8.53 27.55 13.53 43.77 13.53 42.89 0 77.78-34.89 77.78-77.78S543.2 0 500.31 0s-77.78 34.89-77.78 77.78c0 16.23 5 31.31 13.54 43.79L332.83 224.81a77.288 77.288 0 0 0-43.79-13.54c-37.94 0-69.6 27.31-76.41 63.31h-58.46c-5.92-31.3-30.64-56.02-61.94-61.94v-58.46c35.99-6.8 63.31-38.46 63.31-76.41C155.55 34.89 120.66 0 77.78 0S0 34.89 0 77.78c0 37.94 27.31 69.6 63.31 76.41v58.46C27.31 219.44 0 251.1 0 289.04s27.31 69.6 63.31 76.41v58.46c-36 6.8-63.31 38.46-63.31 76.4 0 42.89 34.89 77.78 77.78 77.78s77.78-34.89 77.78-77.78c0-37.94-27.31-69.6-63.31-76.41v-58.46c31.3-5.92 56.02-30.64 61.94-61.94h58.46c6.8 35.99 38.46 63.31 76.41 63.31 16.23 0 31.3-5 43.78-13.53l103.25 103.25c-8.53 12.48-13.53 27.56-13.53 43.78 0 42.89 34.89 77.78 77.78 77.78s77.78-34.89 77.78-77.78-34.89-77.78-77.78-77.78Zm0-411.13c36.59 0 66.37 29.77 66.37 66.37s-29.77 66.37-66.37 66.37-66.37-29.77-66.37-66.37 29.78-66.37 66.37-66.37ZM11.41 77.78c0-36.6 29.77-66.37 66.37-66.37s66.37 29.77 66.37 66.37-29.77 66.37-66.37 66.37-66.37-29.78-66.37-66.37Zm132.73 422.53c0 36.59-29.77 66.37-66.37 66.37S11.4 536.91 11.4 500.31s29.77-66.37 66.37-66.37 66.37 29.77 66.37 66.37Zm-66.37-144.9c-36.59 0-66.37-29.77-66.37-66.37s29.77-66.37 66.37-66.37 66.37 29.77 66.37 66.37-29.77 66.37-66.37 66.37Zm144.9-66.37c0-36.59 29.77-66.37 66.37-66.37s66.37 29.77 66.37 66.37-29.77 66.37-66.37 66.37-66.37-29.77-66.37-66.37Zm277.64 277.64c-36.59 0-66.37-29.77-66.37-66.37s29.77-66.37 66.37-66.37 66.37 29.77 66.37 66.37-29.77 66.37-66.37 66.37Z"></path></svg>