<svg xmlns="http://www.w3.org/2000/svg" width="597.2" viewBox="0 0 597.2 597.2" height="597.2" xml:space="preserve" style="enable-background:new 0 0 597.2 597.2"><path d="M459.9 472.4c0-11.6-9.4-20.9-20.9-20.9-11.6 0-20.9 9.4-20.9 20.9 0 11.6 9.4 20.9 20.9 20.9 11.6 0 20.9-9.3 20.9-20.9"></path><path d="M342.9 523.4c0-26-9.6-49.8-25.6-67.9-2.3-2.8-2-7 .8-9.3.8-.6 1.6-1.1 2.5-1.4 3.7-1 7.5-1.5 11.4-1.5 4.6 0 9 .6 13.2 1.7 5.7 1.4 11.2 2.3 17.1 2.2 11.8 0 18.7-9 18.7-20.7 0-2.8-.4-5.5-1.5-7.9-3.8-10.9-8.7-21.4-14.2-31.4-.4-.8-.7-1.8-.7-2.8 0-3.1 2.5-5.3 5.6-5.8 27.6-7.7 55.4 5.8 68.5 30.4 2.1 4.4 4.9 5.9 10.1 6.6 38.7 7.4 67.9 41.7 67.9 82.6-.9 18.9-6.6 36.5-15.7 51.8-2.4 5.2-.9 11 3 14.7 8.5 8.5 16.4 17.6 23.5 27.4 40.5-13.7 69.7-52.1 69.7-97.2V102.5C597.2 45.9 551.3 0 494.7 0H178c51.1 39.3 97.6 82.1 138.1 133.8 12.5 16.4 8.8 29.9 5.7 38.1-1.9 5.7.6 11.7 3.3 13.9 14.7 12.7 27.9 27.4 39 43.4 11.3 16 17.4 35.5 17.4 56.6 0 29.1-12.6 55.2-32.6 73.3-1.4 2-5.6 2.6-8 .6-22.6-16.9-34.1-24.5-76.2-37.8-74.9-20.2-153.6-32.5-234.8-32.5-10 0-20.1.2-30 .5v204.8c0 56.6 45.9 102.5 102.5 102.5h240.4l.1-73.8z"></path><path d="M266 167.2c.5-1.8-.3-3.6-1.9-4.5-21.2-12-45-19.5-70.8-20.8-1.7-.1-3.1.9-3.8 2.3-1.7 4.5-2.6 9.3-2.6 14.4 0 22.1 17.9 40 40 40 19.2 0 35.3-13.4 39.1-31.4"></path></svg>