<svg id="Layer_1" data-name="Layer 1" xmlns="http://www.w3.org/2000/svg" viewBox="0 0 428.39 618.03">   <path d="M428.39,208.35V0l-107.1,109.04V0l-107.1,109.04V0L107.1,109.04V0L0,109.04v208.35l107.1-109.04v10.39L0,327.78v69.33l107.1-109.04v18.64L0,415.75v58.39l107.1-109.04v32.01l107.1-109.04v18.64l-107.1,109.04v-9.17L0,515.63v35.58l107.1-109.04v31.98l107.1-109.04v32.01l107.1-109.04v18.64l-107.1,109.04v-9.17l-107.1,109.04v35.58l107.1-109.04v31.98l107.1-109.04v32.01l107.1-109.04v-69.33l-107.1,109.04v-10.39l107.1-109.04ZM107.1,327.78v-10.39l107.1-109.04v10.39l-107.1,109.04Zm107.1,0v-10.39l107.1-109.04v10.39l-107.1,109.04Z"></path>   <polygon points="321.29 551.21 428.39 442.16 428.39 406.58 321.29 515.63 321.29 551.21"></polygon>   <polygon points="321.29 618.03 428.39 508.98 428.39 492.26 321.29 601.3 321.29 618.03"></polygon>   <polygon points="321.29 406.58 214.19 515.63 214.19 551.21 321.29 442.16 321.29 474.14 428.39 365.1 428.39 306.71 321.29 415.75 321.29 406.58"></polygon>   <polygon points="321.29 492.26 214.19 601.3 214.19 618.03 321.29 508.98 321.29 492.26"></polygon>   <polygon points="214.19 492.26 107.1 601.3 107.1 618.03 214.19 508.98 214.19 492.26"></polygon>   <polygon points="107.1 492.26 0 601.3 0 618.03 107.1 508.98 107.1 492.26"></polygon> </svg>