<svg xmlns="http://www.w3.org/2000/svg" width="623.9" viewBox="0 0 623.9 623.9" height="623.9" style="enable-background:new 0 0 623.9 623.9" xml:space="preserve"><path d="M311.9 0C139.9 0 0 139.9 0 311.9s139.9 311.9 311.9 311.9 311.9-139.9 311.9-311.9S483.9 0 311.9 0zm0 604.6c-161.4 0-292.7-131.3-292.7-292.7 0-161.4 131.3-292.7 292.7-292.7 161.4 0 292.7 131.3 292.7 292.7 0 161.4-131.3 292.7-292.7 292.7z"></path><path d="M421.4 235.4c-71.7 0-130 58.3-130 130v211.8h19.2V365.4c0-61.1 49.7-110.8 110.8-110.8s110.8 49.7 110.8 110.8c0 61.1-49.7 110.8-110.8 110.8-19.1 0-38-4.9-54.5-14.3l-9.5 16.7c19.4 11 41.5 16.8 64 16.8 71.7 0 130-58.3 130-130s-58.3-130-130-130z"></path></svg>