<svg data-name="Layer 1" xmlns="http://www.w3.org/2000/svg" viewBox="0 0 620.7 533.59"><path d="M586.34 227.39c-45.73-45.73-120.14-45.73-165.86 0l-35.05 35.05-27.22-27.22 35.05-35.05c45.72-45.73 45.72-120.13 0-165.86-45.73-45.73-120.14-45.73-165.87 0-45.73 45.73-45.73 120.14 0 165.87l35.05 35.05-27.22 27.22-35.05-35.05c-45.73-45.72-120.13-45.73-165.87 0-45.73 45.73-45.72 120.14 0 165.87 22.86 22.86 52.9 34.3 82.93 34.3s60.07-11.44 82.93-34.3l35.05-35.05 27.22 27.22-90.36 90.36c-13.22 13.23-13.22 34.66 0 47.88s34.67 13.23 47.88 0l90.36-90.36 90.35 90.36c6.61 6.61 15.28 9.92 23.94 9.92s17.33-3.31 23.94-9.91c13.23-13.23 13.23-34.66 0-47.88l-90.36-90.36 27.22-27.22 35.05 35.05c22.87 22.87 52.89 34.3 82.93 34.3s60.07-11.44 82.93-34.3c22.15-22.15 34.36-51.61 34.36-82.93s-12.2-60.78-34.36-82.94ZM152.28 345.37c-19.33 19.33-50.78 19.33-70.11 0s-19.32-50.77 0-70.1c9.67-9.66 22.36-14.5 35.05-14.5s25.39 4.84 35.05 14.5l35.05 35.05-35.05 35.05Zm158.04-7.83-27.22-27.22 27.22-27.22 27.22 27.22-27.22 27.22ZM275.27 82.18c9.67-9.66 22.36-14.49 35.05-14.49s25.39 4.83 35.05 14.49c19.33 19.33 19.33 50.78 0 70.1l-35.05 35.05-35.05-35.05c-19.33-19.33-19.33-50.77 0-70.1Zm263.2 263.19c-19.33 19.33-50.78 19.33-70.11 0l-35.05-35.05 35.05-35.05c19.33-19.33 50.77-19.33 70.11 0 9.36 9.36 14.52 21.81 14.52 35.05s-5.16 25.68-14.52 35.04Z"></path></svg>