<svg xmlns="http://www.w3.org/2000/svg" width="598.5" viewBox="0 0 598.5 598.5" height="598.5"><path d="M510.8 87.6C454.3 31.1 379.2 0 299.2 0s-155 31.1-211.6 87.6S0 219.3 0 299.2s31.1 155.1 87.6 211.6c56.5 56.5 131.7 87.6 211.6 87.6s155.1-31.1 211.6-87.6c56.5-56.5 87.6-131.7 87.6-211.6s-31.1-155-87.6-211.6zm-374.9 48.3c43.6-43.6 101.6-67.7 163.3-67.7s119.7 24 163.3 67.7 67.7 101.6 67.7 163.3c0 13.6-1.2 27-3.4 40.1h-47.2v-90.7c0-47.6-38.8-86.4-86.4-86.4-47.6 0-86.4 38.8-86.4 86.4v90.7h-14.9v-90.7c0-47.6-38.8-86.4-86.4-86.4-47.6 0-86.4 38.8-86.4 86.4v90.7H71.7c-2.3-13.1-3.4-26.5-3.4-40.1 0-61.7 24-119.7 67.6-163.3zm163.3 394.3c-61.7 0-119.7-24-163.3-67.7-14.3-14.3-26.4-30.1-36.4-47.1h95.6V248.6c0-5.6 4.6-10.2 10.2-10.2s10.2 4.6 10.2 10.2v166.8h167.2V248.6c0-5.6 4.6-10.2 10.2-10.2s10.2 4.6 10.2 10.2v166.8h95.6c-9.9 17-22.1 32.8-36.4 47.1-43.4 43.7-101.4 67.7-163.1 67.7z"></path></svg>