<svg xmlns="http://www.w3.org/2000/svg" width="597.8" viewBox="0 0 597.8 597.6" height="597.6" xml:space="preserve"><path d="M331.5 0H190.2c-20.7 0-37.4 16.8-37.4 37.4v19.8c0 13.8-11.2 24.9-24.9 24.9H37.4C16.7 82.1 0 98.8 0 119.5V345c0 20.7 16.7 37.4 37.4 37.4h294.1c20.7 0 37.4-12.5 37.4-41.6V37.4c0-20.6-16.7-37.4-37.4-37.4zM222.4 238c0 9.2-7.4 16.6-16.6 16.6h-32.2c-9.2 0-16.6-7.5-16.6-16.6v-9.4c0-9.2 7.4-16.6 16.6-16.6h32.2c9.2 0 16.6 7.5 16.6 16.6v9.4z"></path><path d="M222.9 431.3c0-20.6 16.7-37.4 37.4-37.4h73.3c29.1 0 47.8-19.8 47.8-45.7V243.7c0-20.7 16.8-37.4 37.4-37.4h141.3c20.7 0 37.7 16.8 37.7 37.4v122.7c0 20.7-16.5 37.4-37.1 37.4h-23.4c-29.1 0-47.8 19.7-47.8 45.7v110.7c0 20.7-16.8 37.4-37.4 37.4H259.8c-20.7 0-37.4-16.8-37.4-37.4l.5-128.9z"></path></svg>