<svg xmlns="http://www.w3.org/2000/svg" width="611.6" viewBox="0 0 611.6 438.5" height="438.5" xml:space="preserve"><path d="M195.3 185.2h339.6l-115-115v39.6l45.9 47.3h-202L418.9 0H150.2l-29.3 28.7h229.5z"></path><path d="M427 341.2h41.3l143.3-146.8L419.6 0v43.4l151.7 151z"></path><path d="m519.7 219.3 15.1-15.5H149.3L304.1 48.3H101L72.3 77.7h161.2L91.9 219.3l-15.1 15.4h385.5L307.5 390.2h203.1l28.7-29.4H378.1z"></path><path d="M416.3 253.3H76.7l115 115v-39.6l-45.9-47.3h202L192.7 438.5h268.7l29.3-28.7H261.2z"></path><path d="M184.6 97.3h-41.3L0 244.1l192 194.4v-43.4l-151.7-151z"></path></svg>