<svg data-name="Layer 1" xmlns="http://www.w3.org/2000/svg" viewBox="0 0 590.92 579.01"><path d="M115.2 517.58c49.89 38.48 112.38 61.43 180.26 61.43s126.73-21.59 175.87-58.05c-49.04-40.41-111.83-64.71-180.19-64.71S163.58 479.2 115.2 517.58ZM296.52 416.83c78.28 1.29 149.84 30.57 205.2 78.18 32.5-31.7 57.68-70.82 72.88-114.63-33.85-17.89-72.38-28.08-113.26-28.08-61.31 0-120.25 23.58-164.82 64.53ZM329.33 345.74c-39.39-34.4-90.17-53.77-142.98-53.77-69.65 0-131.7 32.97-171.5 84.09 14.43 43.78 38.76 83.04 70.42 115.09 43.27-35.85 95.9-60.78 153.75-70.2 24.71-31.4 55.62-56.89 90.3-75.22ZM275.68 268.56V205c-14.69-2.44-28.45-7.51-40.82-14.77l-61.48 62.52c4.3-.21 8.62-.33 12.97-.33 30.81 0 61.01 5.62 89.33 16.14ZM386.54 164.81l157.69 160.35c14.17 4.35 27.86 9.81 40.99 16.23 3.71-18.71 5.7-38.04 5.7-57.84 0-12.62-.88-25.02-2.42-37.22L403.78 138.27c-4.59 9.62-10.37 18.54-17.24 26.54ZM105.25 265.61l99.12-100.8c-6.87-8-12.65-16.92-17.24-26.54L2.42 246.34C.89 258.54 0 270.94 0 283.56c0 15.51 1.21 30.73 3.51 45.6 28.14-28.54 62.88-50.57 101.74-63.54ZM461.34 312.75c5.25 0 10.47.17 15.65.45L356.06 190.23a119.004 119.004 0 0 1-40.82 14.76v82.14a256.568 256.568 0 0 1 53.61 41.41c29.47-10.26 60.7-15.79 92.5-15.79ZM212.46 0c-35.92 10.5-68.99 27.62-97.83 49.98l73.03-16.04C193.9 21.19 202.35 9.73 212.47 0ZM175.34 86.64c0-3.24.23-6.43.49-9.61l-113.32 24.9c-21.25 27.21-37.85 58.2-48.58 91.85l162.04-94.8c-.41-4.06-.63-8.17-.63-12.34ZM415.58 86.64c0 4.17-.22 8.28-.63 12.34l162.04 94.79c-10.72-33.64-27.33-64.64-48.58-91.85l-113.32-24.9c.25 3.18.49 6.37.49 9.61ZM403.27 33.94l73.03 16.04C447.46 27.62 414.39 10.5 378.47 0c10.12 9.73 18.56 21.19 24.81 33.94Z"></path></svg>