<svg data-name="Layer 1" xmlns="http://www.w3.org/2000/svg" viewBox="0 0 608.9 608.91"><path d="M317.71 0s-114.1 111.41-114.1 114.1v74.79L385.77 0h-68.06ZM418.53.02s-164.5 161.81-164.5 164.5v74.79L486.59.03h-68.06ZM519.38 0S304.45 212.24 304.45 214.93v74.79L587.45 0h-68.06ZM494.81 203.61h-74.79l188.89 182.16v-68.06s-111.41-114.1-114.1-114.1ZM608.88 418.53s-161.81-164.5-164.5-164.5h-74.79l239.29 232.56v-68.06ZM393.96 304.45h-74.79l289.72 283v-68.06S396.65 304.46 393.96 304.46ZM291.2 608.91s114.1-111.41 114.1-114.1v-74.79L223.14 608.91h68.07ZM354.87 444.39V369.6L122.31 608.88h68.06s164.5-161.81 164.5-164.49ZM304.45 393.97v-74.79L21.46 608.9h68.06s214.93-212.24 214.93-214.93ZM114.1 405.3h74.79L0 223.13v68.07s111.41 114.1 114.1 114.1ZM.02 190.38s161.81 164.5 164.5 164.5h74.79L.02 122.31v68.06ZM214.94 304.45h74.79L0 21.45v68.07s212.24 214.93 214.93 214.93Z"></path></svg>