<svg id="a" data-name="Layer 1" xmlns="http://www.w3.org/2000/svg" width="642" viewBox="0 0 642 247.17" height="247.17">
  <path d="m549.61,247.17l-70.31-121.77c-.65-1.12-1.84-1.81-3.13-1.81h-39.85c-2.78,0-4.52-3.01-3.13-5.42L499.34,3.61C500.27,2.01,499.11,0,497.25,0h-11.12c-.86,0-1.65.46-2.08,1.2l-69.04,119.57c-1,1.74-1,3.88,0,5.62l68.69,118.97c.65,1.12,1.84,1.81,3.13,1.81h62.78Z"></path>
  <path d="m457.22,247.17l-70.31-121.77c-.65-1.12-1.84-1.81-3.13-1.81h-39.85c-2.78,0-4.52-3.01-3.13-5.42L406.95,3.61C407.87,2.01,406.72,0,404.86,0h-11.12c-.86,0-1.65.46-2.08,1.2l-69.04,119.57c-1,1.74-1,3.88,0,5.62l68.69,118.97c.65,1.12,1.84,1.81,3.13,1.81h62.78Z"></path>
  <path d="m642,247.17l-70.31-121.77c-.65-1.12-1.84-1.81-3.13-1.81h-39.85c-2.78,0-4.52-3.01-3.13-5.42L591.73,3.61C592.66,2.01,591.5,0,589.65,0h-11.12c-.86,0-1.65.46-2.08,1.2l-69.04,119.57c-1,1.74-1,3.88,0,5.62l68.69,118.97c.65,1.12,1.84,1.81,3.13,1.81h62.78Z"></path>
  <path d="m158.3,1.81l68.69,118.97c1,1.74,1,3.88,0,5.62l-69.04,119.57c-.43.74-1.22,1.2-2.08,1.2h-11.12c-1.85,0-3.01-2.01-2.08-3.61l66.14-114.56c1.39-2.41-.35-5.42-3.13-5.42h-39.85c-1.29,0-2.48-.69-3.13-1.81L92.39,0h62.78c1.29,0,2.48.69,3.13,1.81Z"></path>
  <path d="m250.69,1.81l68.69,118.97c1,1.74,1,3.88,0,5.62l-69.04,119.57c-.43.74-1.22,1.2-2.08,1.2h-11.12c-1.85,0-3.01-2.01-2.08-3.61l66.14-114.56c1.39-2.41-.35-5.42-3.13-5.42h-39.85c-1.29,0-2.48-.69-3.13-1.81L184.78,0h62.78c1.29,0,2.48.69,3.13,1.81Z"></path>
  <path d="m65.91,1.81l68.69,118.97c1,1.74,1,3.88,0,5.62l-69.04,119.57c-.43.74-1.22,1.2-2.08,1.2h-11.12c-1.85,0-3.01-2.01-2.08-3.61l66.14-114.56c1.39-2.41-.35-5.42-3.13-5.42h-39.85c-1.29,0-2.48-.69-3.13-1.81L0,0h62.78c1.29,0,2.48.69,3.13,1.81Z"></path>
</svg>