<svg data-name="Layer 1" xmlns="http://www.w3.org/2000/svg" viewBox="0 0 617.94 618.09"><path d="m571.14 385.37-74.99-43.25 74.96-43.3c21.58-12.47 37.03-32.65 43.5-56.84 6.47-24.18 3.17-49.39-9.29-70.97-12.46-21.58-32.65-37.02-56.83-43.5-24.17-6.47-49.38-3.18-70.96 9.29l-74.96 43.3V93.55C402.57 41.97 360.6 0 309.01 0s-93.55 41.97-93.55 93.55v86.83l-75.25-43.33c-21.6-12.44-46.82-15.7-70.98-9.19-24.18 6.51-44.34 21.99-56.77 43.58-12.43 21.61-15.69 46.81-9.19 70.99 6.51 24.17 21.99 44.34 43.58 56.77l75.02 43.19-74.93 43.35C2.3 411.58-13 468.92 12.82 513.57c12.48 21.57 32.68 37 56.87 43.46 24.19 6.47 49.4 3.14 70.96-9.34l74.92-43.35.07 113.75 61.18-.04-.13-219.76-166.68 96.44c-7.43 4.3-16.14 5.43-24.54 3.18-8.4-2.24-15.39-7.57-19.68-14.99-8.94-15.45-3.65-35.29 11.8-44.23l166.68-96.44-166.89-96.07c-7.43-4.28-12.77-11.26-15.03-19.65-2.26-8.4-1.15-17.11 3.14-24.55 4.28-7.43 11.26-12.77 19.65-15.03 8.4-2.27 17.12-1.15 24.55 3.13l166.95 96.13V93.55c0-17.85 14.52-32.37 32.37-32.37s32.37 14.52 32.37 32.37v192.56l166.74-96.32c15.44-8.94 35.29-3.61 44.22 11.84 4.29 7.43 5.41 16.14 3.16 24.54-2.24 8.4-7.57 15.39-15 19.68l-166.74 96.32 166.82 96.2c15.46 8.92 20.78 28.75 11.87 44.22-4.28 7.43-11.27 12.76-19.67 15.02-8.39 2.26-17.11 1.14-24.54-3.15l-166.81-96.2.14 219.75 61.18-.04-.07-113.76 75 43.25c21.58 12.45 46.78 15.73 70.97 9.24 24.18-6.49 44.36-21.96 56.81-43.54 25.77-44.68 10.38-102-34.3-127.78Z"></path><path d="M356.56 342.26c0-26.28-21.31-47.59-47.59-47.59s-47.59 21.31-47.59 47.59 21.31 47.59 47.59 47.59 47.59-21.31 47.59-47.59Z"></path></svg>