<svg xmlns="http://www.w3.org/2000/svg" width="604.5" viewBox="0 0 604.5 604.5" height="604.5"><path d="M436.9 309.6l145.2-28.8-147.9-6.3L567 209.1l-144.5 32.2 111.4-97.6-131.3 68.5 82.4-123-109.1 100.1 47.7-140.2-79.4 125 9.7-147.7-44.3 141.2-28.8-145.2-6.3 147.9-65.4-132.8L241.3 182 143.7 70.6l68.5 131.3-123-82.4 100.1 109.1-140.2-47.7 125 79.4-147.7-9.7 141.2 44.3-145.2 28.8 147.9 6.3-132.8 65.4L182 363.2 70.6 460.8l131.3-68.5-82.4 123 109.1-100.1-47.7 140.2 79.4-125-9.7 147.7 44.3-141.2 28.8 145.2 6.3-147.9L395.4 567l-32.2-144.5 97.6 111.4-68.5-131.3 123 82.4-100.1-109.1 140.2 47.7-125-79.4 147.7 9.7z"></path><path d="M302.2 0C135.6 0 0 135.6 0 302.2c0 166.7 135.6 302.2 302.2 302.2 166.7 0 302.2-135.6 302.2-302.2C604.5 135.6 468.9 0 302.2 0zm0 593.8C141.5 593.8 10.7 463 10.7 302.2S141.5 10.7 302.2 10.7s291.5 130.8 291.5 291.5S463 593.8 302.2 593.8z"></path></svg>