<svg id="Layer_1" data-name="Layer 1" xmlns="http://www.w3.org/2000/svg" viewBox="0 0 617.61 546.51">   <path d="M611.66,480.66L346.82,21.95C338.88,8.2,324.67,0,308.8,0c-15.87,0-30.08,8.21-38.01,21.95L5.95,480.66c-7.93,13.74-7.93,30.15,0,43.9,7.93,13.74,22.14,21.95,38.01,21.95H116.14l25.32-43.86-97.34,.05L308.81,44.25l264.83,458.18h-23.96S358.6,171.47,358.6,171.47l-56.92,98.59-55.31-33.41c-10.43-6.29-23.97-2.94-30.25,7.47-6.29,10.42-2.95,23.96,7.47,30.26l56.05,33.85-60.77,105.26-58.11-35.09c-10.42-6.3-23.97-2.94-30.25,7.47-6.29,10.42-2.95,23.96,7.47,30.26l58.85,35.54-54.75,94.83h431.57c15.87,0,30.08-8.2,38.01-21.95,7.93-13.74,7.94-30.15,0-43.9Z"></path> </svg>