<svg xmlns="http://www.w3.org/2000/svg" width="505.5" viewBox="0 0 505.5 611.5" height="611.5" style="enable-background:new 0 0 505.5 611.5" xml:space="preserve"><path d="M473.1 301.7H236.2c-17.9 0-32.4-14.5-32.4-32.4v-31.7c0-17.9 14.5-32.4 32.4-32.4h236.9c17.9 0 32.4-14.5 32.4-32.4V32.4C505.5 14.5 491 0 473.1 0H129.5c-17.9 0-32.4 14.5-32.4 32.4v240.4c0 17.9-14.5 32.4-32.4 32.4H32.4C14.5 305.1 0 319.6 0 337.5v241.7c0 17.9 14.5 32.4 32.4 32.4h139.1c17.9 0 32.4-14.5 32.4-32.4V443.1c0-17.9 14.5-32.4 32.4-32.4h236.9c17.9 0 32.4-14.5 32.4-32.4V334c-.1-17.8-14.6-32.3-32.5-32.3"></path></svg>