<svg data-name="Layer 1" xmlns="http://www.w3.org/2000/svg" viewBox="0 0 602.16 602.16"><path d="M20.12 234.13C9.01 234.13 0 243.14 0 254.25s9.01 20.12 20.12 20.12 20.12-9.01 20.12-20.12-9.01-20.12-20.12-20.12ZM66.95 234.13c-11.11 0-20.12 9.01-20.12 20.12s9.01 20.12 20.12 20.12 20.12-9.01 20.12-20.12-9.01-20.12-20.12-20.12ZM20.12 187.3C9.01 187.3 0 196.31 0 207.42s9.01 20.12 20.12 20.12 20.12-9.01 20.12-20.12-9.01-20.12-20.12-20.12ZM66.95 187.3c-11.11 0-20.12 9.01-20.12 20.12s9.01 20.12 20.12 20.12 20.12-9.01 20.12-20.12-9.01-20.12-20.12-20.12ZM113.78 234.13c-11.11 0-20.12 9.01-20.12 20.12s9.01 20.12 20.12 20.12 20.12-9.01 20.12-20.12-9.01-20.12-20.12-20.12ZM113.78 187.3c-11.11 0-20.12 9.01-20.12 20.12s9.01 20.12 20.12 20.12 20.12-9.01 20.12-20.12-9.01-20.12-20.12-20.12ZM160.6 234.13c-11.11 0-20.12 9.01-20.12 20.12s9.01 20.12 20.12 20.12 20.12-9.01 20.12-20.12-9.01-20.12-20.12-20.12ZM160.6 187.3c-11.11 0-20.12 9.01-20.12 20.12s9.01 20.12 20.12 20.12 20.12-9.01 20.12-20.12-9.01-20.12-20.12-20.12ZM207.43 234.13c-11.11 0-20.12 9.01-20.12 20.12s9.01 20.12 20.12 20.12 20.12-9.01 20.12-20.12-9.01-20.12-20.12-20.12ZM207.43 187.3c-11.11 0-20.12 9.01-20.12 20.12s9.01 20.12 20.12 20.12 20.12-9.01 20.12-20.12-9.01-20.12-20.12-20.12ZM254.25 234.13c-11.11 0-20.12 9.01-20.12 20.12s9.01 20.12 20.12 20.12 20.12-9.01 20.12-20.12-9.01-20.12-20.12-20.12ZM254.25 187.3c-11.11 0-20.12 9.01-20.12 20.12s9.01 20.12 20.12 20.12 20.12-9.01 20.12-20.12-9.01-20.12-20.12-20.12ZM301.08 234.13c-11.11 0-20.12 9.01-20.12 20.12s9.01 20.12 20.12 20.12 20.12-9.01 20.12-20.12-9.01-20.12-20.12-20.12ZM301.08 187.3c-11.11 0-20.12 9.01-20.12 20.12s9.01 20.12 20.12 20.12 20.12-9.01 20.12-20.12-9.01-20.12-20.12-20.12ZM347.91 234.13c-11.11 0-20.12 9.01-20.12 20.12s9.01 20.12 20.12 20.12 20.12-9.01 20.12-20.12-9.01-20.12-20.12-20.12ZM347.91 187.3c-11.11 0-20.12 9.01-20.12 20.12s9.01 20.12 20.12 20.12 20.12-9.01 20.12-20.12-9.01-20.12-20.12-20.12ZM394.73 234.13c-11.11 0-20.12 9.01-20.12 20.12s9.01 20.12 20.12 20.12 20.12-9.01 20.12-20.12-9.01-20.12-20.12-20.12ZM394.73 187.3c-11.11 0-20.12 9.01-20.12 20.12s9.01 20.12 20.12 20.12 20.12-9.01 20.12-20.12-9.01-20.12-20.12-20.12ZM441.56 234.13c-11.11 0-20.12 9.01-20.12 20.12s9.01 20.12 20.12 20.12 20.12-9.01 20.12-20.12-9.01-20.12-20.12-20.12ZM441.56 187.3c-11.11 0-20.12 9.01-20.12 20.12s9.01 20.12 20.12 20.12 20.12-9.01 20.12-20.12-9.01-20.12-20.12-20.12ZM488.38 234.13c-11.11 0-20.12 9.01-20.12 20.12s9.01 20.12 20.12 20.12 20.12-9.01 20.12-20.12-9.01-20.12-20.12-20.12ZM488.38 187.3c-11.11 0-20.12 9.01-20.12 20.12s9.01 20.12 20.12 20.12 20.12-9.01 20.12-20.12-9.01-20.12-20.12-20.12ZM535.21 234.13c-11.11 0-20.12 9.01-20.12 20.12s9.01 20.12 20.12 20.12 20.12-9.01 20.12-20.12-9.01-20.12-20.12-20.12ZM535.21 187.3c-11.11 0-20.12 9.01-20.12 20.12s9.01 20.12 20.12 20.12 20.12-9.01 20.12-20.12-9.01-20.12-20.12-20.12ZM582.04 234.13c-11.11 0-20.12 9.01-20.12 20.12s9.01 20.12 20.12 20.12 20.12-9.01 20.12-20.12-9.01-20.12-20.12-20.12Z"></path><circle cx="20.12" cy="301.08" r="20.12"></circle><circle cx="66.95" cy="301.08" r="20.12"></circle><path d="M113.78 280.96c-11.11 0-20.12 9.01-20.12 20.12s9.01 20.12 20.12 20.12 20.12-9.01 20.12-20.12-9.01-20.12-20.12-20.12ZM160.6 280.96c-11.11 0-20.12 9.01-20.12 20.12s9.01 20.12 20.12 20.12 20.12-9.01 20.12-20.12-9.01-20.12-20.12-20.12ZM207.43 280.96c-11.11 0-20.12 9.01-20.12 20.12s9.01 20.12 20.12 20.12 20.12-9.01 20.12-20.12-9.01-20.12-20.12-20.12Z"></path><circle cx="254.25" cy="301.08" r="20.12"></circle><circle cx="301.08" cy="301.08" r="20.12"></circle><path d="M347.91 280.96c-11.11 0-20.12 9.01-20.12 20.12s9.01 20.12 20.12 20.12 20.12-9.01 20.12-20.12-9.01-20.12-20.12-20.12ZM394.73 280.96c-11.11 0-20.12 9.01-20.12 20.12s9.01 20.12 20.12 20.12 20.12-9.01 20.12-20.12-9.01-20.12-20.12-20.12ZM441.56 280.96c-11.11 0-20.12 9.01-20.12 20.12s9.01 20.12 20.12 20.12 20.12-9.01 20.12-20.12-9.01-20.12-20.12-20.12Z"></path><circle cx="488.38" cy="301.08" r="20.12"></circle><circle cx="535.21" cy="301.08" r="20.12"></circle><circle cx="582.04" cy="301.08" r="20.12"></circle><circle cx="20.12" cy="347.91" r="20.12"></circle><circle cx="66.95" cy="347.91" r="20.12"></circle><path d="M113.78 327.78c-11.11 0-20.12 9.01-20.12 20.12s9.01 20.12 20.12 20.12 20.12-9.01 20.12-20.12-9.01-20.12-20.12-20.12ZM160.6 327.78c-11.11 0-20.12 9.01-20.12 20.12s9.01 20.12 20.12 20.12 20.12-9.01 20.12-20.12-9.01-20.12-20.12-20.12ZM207.43 327.78c-11.11 0-20.12 9.01-20.12 20.12s9.01 20.12 20.12 20.12 20.12-9.01 20.12-20.12-9.01-20.12-20.12-20.12Z"></path><circle cx="254.25" cy="347.91" r="20.12"></circle><circle cx="301.08" cy="347.91" r="20.12"></circle><path d="M347.91 327.78c-11.11 0-20.12 9.01-20.12 20.12s9.01 20.12 20.12 20.12 20.12-9.01 20.12-20.12-9.01-20.12-20.12-20.12ZM394.73 327.78c-11.11 0-20.12 9.01-20.12 20.12s9.01 20.12 20.12 20.12 20.12-9.01 20.12-20.12-9.01-20.12-20.12-20.12ZM441.56 327.78c-11.11 0-20.12 9.01-20.12 20.12s9.01 20.12 20.12 20.12 20.12-9.01 20.12-20.12-9.01-20.12-20.12-20.12Z"></path><circle cx="488.38" cy="347.91" r="20.12"></circle><circle cx="535.21" cy="347.91" r="20.12"></circle><circle cx="582.04" cy="347.91" r="20.12"></circle><path d="M20.12 374.61C9.01 374.61 0 383.62 0 394.73s9.01 20.12 20.12 20.12 20.12-9.01 20.12-20.12-9.01-20.12-20.12-20.12ZM66.95 374.61c-11.11 0-20.12 9.01-20.12 20.12s9.01 20.12 20.12 20.12 20.12-9.01 20.12-20.12-9.01-20.12-20.12-20.12ZM113.78 374.61c-11.11 0-20.12 9.01-20.12 20.12s9.01 20.12 20.12 20.12 20.12-9.01 20.12-20.12-9.01-20.12-20.12-20.12ZM160.6 374.61c-11.11 0-20.12 9.01-20.12 20.12s9.01 20.12 20.12 20.12 20.12-9.01 20.12-20.12-9.01-20.12-20.12-20.12ZM254.25 374.61c-11.11 0-20.12 9.01-20.12 20.12s9.01 20.12 20.12 20.12 20.12-9.01 20.12-20.12-9.01-20.12-20.12-20.12ZM301.08 374.61c-11.11 0-20.12 9.01-20.12 20.12s9.01 20.12 20.12 20.12 20.12-9.01 20.12-20.12-9.01-20.12-20.12-20.12ZM347.91 374.61c-11.11 0-20.12 9.01-20.12 20.12s9.01 20.12 20.12 20.12 20.12-9.01 20.12-20.12-9.01-20.12-20.12-20.12ZM441.56 374.61c-11.11 0-20.12 9.01-20.12 20.12s9.01 20.12 20.12 20.12 20.12-9.01 20.12-20.12-9.01-20.12-20.12-20.12ZM488.38 374.61c-11.11 0-20.12 9.01-20.12 20.12s9.01 20.12 20.12 20.12 20.12-9.01 20.12-20.12-9.01-20.12-20.12-20.12ZM535.21 374.61c-11.11 0-20.12 9.01-20.12 20.12s9.01 20.12 20.12 20.12 20.12-9.01 20.12-20.12-9.01-20.12-20.12-20.12ZM582.04 374.61c-11.11 0-20.12 9.01-20.12 20.12s9.01 20.12 20.12 20.12 20.12-9.01 20.12-20.12-9.01-20.12-20.12-20.12ZM20.12 421.43C9.01 421.43 0 430.44 0 441.55s9.01 20.12 20.12 20.12 20.12-9.01 20.12-20.12-9.01-20.12-20.12-20.12ZM66.95 421.43c-11.11 0-20.12 9.01-20.12 20.12s9.01 20.12 20.12 20.12 20.12-9.01 20.12-20.12-9.01-20.12-20.12-20.12ZM113.78 421.43c-11.11 0-20.12 9.01-20.12 20.12s9.01 20.12 20.12 20.12 20.12-9.01 20.12-20.12-9.01-20.12-20.12-20.12ZM160.6 421.43c-11.11 0-20.12 9.01-20.12 20.12s9.01 20.12 20.12 20.12 20.12-9.01 20.12-20.12-9.01-20.12-20.12-20.12ZM254.25 421.43c-11.11 0-20.12 9.01-20.12 20.12s9.01 20.12 20.12 20.12 20.12-9.01 20.12-20.12-9.01-20.12-20.12-20.12ZM301.08 421.43c-11.11 0-20.12 9.01-20.12 20.12s9.01 20.12 20.12 20.12 20.12-9.01 20.12-20.12-9.01-20.12-20.12-20.12ZM347.91 421.43c-11.11 0-20.12 9.01-20.12 20.12s9.01 20.12 20.12 20.12 20.12-9.01 20.12-20.12-9.01-20.12-20.12-20.12ZM441.56 421.43c-11.11 0-20.12 9.01-20.12 20.12s9.01 20.12 20.12 20.12 20.12-9.01 20.12-20.12-9.01-20.12-20.12-20.12ZM488.38 421.43c-11.11 0-20.12 9.01-20.12 20.12s9.01 20.12 20.12 20.12 20.12-9.01 20.12-20.12-9.01-20.12-20.12-20.12ZM535.21 421.43c-11.11 0-20.12 9.01-20.12 20.12s9.01 20.12 20.12 20.12 20.12-9.01 20.12-20.12-9.01-20.12-20.12-20.12ZM582.04 421.43c-11.11 0-20.12 9.01-20.12 20.12s9.01 20.12 20.12 20.12 20.12-9.01 20.12-20.12-9.01-20.12-20.12-20.12ZM20.12 468.26C9.01 468.26 0 477.27 0 488.38s9.01 20.12 20.12 20.12 20.12-9.01 20.12-20.12-9.01-20.12-20.12-20.12ZM66.95 468.26c-11.11 0-20.12 9.01-20.12 20.12s9.01 20.12 20.12 20.12 20.12-9.01 20.12-20.12-9.01-20.12-20.12-20.12ZM113.78 468.26c-11.11 0-20.12 9.01-20.12 20.12s9.01 20.12 20.12 20.12 20.12-9.01 20.12-20.12-9.01-20.12-20.12-20.12ZM160.6 468.26c-11.11 0-20.12 9.01-20.12 20.12s9.01 20.12 20.12 20.12 20.12-9.01 20.12-20.12-9.01-20.12-20.12-20.12ZM254.25 468.26c-11.11 0-20.12 9.01-20.12 20.12s9.01 20.12 20.12 20.12 20.12-9.01 20.12-20.12-9.01-20.12-20.12-20.12ZM301.08 468.26c-11.11 0-20.12 9.01-20.12 20.12s9.01 20.12 20.12 20.12 20.12-9.01 20.12-20.12-9.01-20.12-20.12-20.12ZM347.91 468.26c-11.11 0-20.12 9.01-20.12 20.12s9.01 20.12 20.12 20.12 20.12-9.01 20.12-20.12-9.01-20.12-20.12-20.12ZM441.56 468.26c-11.11 0-20.12 9.01-20.12 20.12s9.01 20.12 20.12 20.12 20.12-9.01 20.12-20.12-9.01-20.12-20.12-20.12ZM488.38 468.26c-11.11 0-20.12 9.01-20.12 20.12s9.01 20.12 20.12 20.12 20.12-9.01 20.12-20.12-9.01-20.12-20.12-20.12ZM535.21 468.26c-11.11 0-20.12 9.01-20.12 20.12s9.01 20.12 20.12 20.12 20.12-9.01 20.12-20.12-9.01-20.12-20.12-20.12ZM582.04 468.26c-11.11 0-20.12 9.01-20.12 20.12s9.01 20.12 20.12 20.12 20.12-9.01 20.12-20.12-9.01-20.12-20.12-20.12Z"></path><circle cx="20.12" cy="535.21" r="20.12"></circle><circle cx="66.95" cy="535.21" r="20.12"></circle><path d="M113.78 515.08c-11.11 0-20.12 9.01-20.12 20.12s9.01 20.12 20.12 20.12 20.12-9.01 20.12-20.12-9.01-20.12-20.12-20.12Z"></path><circle cx="254.25" cy="535.21" r="20.12"></circle><circle cx="301.08" cy="535.21" r="20.12"></circle><path d="M347.91 515.08c-11.11 0-20.12 9.01-20.12 20.12s9.01 20.12 20.12 20.12 20.12-9.01 20.12-20.12-9.01-20.12-20.12-20.12Z"></path><circle cx="488.38" cy="535.21" r="20.12"></circle><circle cx="535.21" cy="535.21" r="20.12"></circle><circle cx="582.04" cy="535.21" r="20.12"></circle><circle cx="20.12" cy="582.04" r="20.12"></circle><circle cx="66.95" cy="582.04" r="20.12"></circle><circle cx="254.25" cy="582.04" r="20.12"></circle><circle cx="301.08" cy="582.04" r="20.12"></circle><path d="M347.91 561.91c-11.11 0-20.12 9.01-20.12 20.12s9.01 20.12 20.12 20.12 20.12-9.01 20.12-20.12-9.01-20.12-20.12-20.12Z"></path><circle cx="535.21" cy="582.04" r="20.12"></circle><circle cx="582.04" cy="582.04" r="20.12"></circle><path d="M582.04 187.3c-11.11 0-20.12 9.01-20.12 20.12s9.01 20.12 20.12 20.12 20.12-9.01 20.12-20.12-9.01-20.12-20.12-20.12ZM20.12 140.48C9.01 140.48 0 149.49 0 160.6s9.01 20.12 20.12 20.12 20.12-9.01 20.12-20.12-9.01-20.12-20.12-20.12ZM66.95 140.48c-11.11 0-20.12 9.01-20.12 20.12s9.01 20.12 20.12 20.12 20.12-9.01 20.12-20.12-9.01-20.12-20.12-20.12ZM113.78 140.48c-11.11 0-20.12 9.01-20.12 20.12s9.01 20.12 20.12 20.12 20.12-9.01 20.12-20.12-9.01-20.12-20.12-20.12ZM254.25 140.48c-11.11 0-20.12 9.01-20.12 20.12s9.01 20.12 20.12 20.12 20.12-9.01 20.12-20.12-9.01-20.12-20.12-20.12ZM301.08 140.48c-11.11 0-20.12 9.01-20.12 20.12s9.01 20.12 20.12 20.12 20.12-9.01 20.12-20.12-9.01-20.12-20.12-20.12ZM347.91 140.48c-11.11 0-20.12 9.01-20.12 20.12s9.01 20.12 20.12 20.12 20.12-9.01 20.12-20.12-9.01-20.12-20.12-20.12ZM488.38 140.48c-11.11 0-20.12 9.01-20.12 20.12s9.01 20.12 20.12 20.12 20.12-9.01 20.12-20.12-9.01-20.12-20.12-20.12ZM535.21 140.48c-11.11 0-20.12 9.01-20.12 20.12s9.01 20.12 20.12 20.12 20.12-9.01 20.12-20.12-9.01-20.12-20.12-20.12ZM582.04 140.48c-11.11 0-20.12 9.01-20.12 20.12s9.01 20.12 20.12 20.12 20.12-9.01 20.12-20.12-9.01-20.12-20.12-20.12Z"></path><circle cx="20.12" cy="113.78" r="20.12"></circle><circle cx="66.95" cy="113.78" r="20.12"></circle><path d="M113.78 93.65c-11.11 0-20.12 9.01-20.12 20.12s9.01 20.12 20.12 20.12 20.12-9.01 20.12-20.12-9.01-20.12-20.12-20.12Z"></path><circle cx="254.25" cy="113.78" r="20.12"></circle><circle cx="301.08" cy="113.78" r="20.12"></circle><path d="M347.91 93.65c-11.11 0-20.12 9.01-20.12 20.12s9.01 20.12 20.12 20.12 20.12-9.01 20.12-20.12-9.01-20.12-20.12-20.12Z"></path><circle cx="488.38" cy="113.78" r="20.12"></circle><circle cx="535.21" cy="113.78" r="20.12"></circle><circle cx="582.04" cy="113.78" r="20.12"></circle><circle cx="66.95" cy="66.95" r="20.12"></circle><path d="M113.78 46.83c-11.11 0-20.12 9.01-20.12 20.12s9.01 20.12 20.12 20.12 20.12-9.01 20.12-20.12-9.01-20.12-20.12-20.12ZM207.43 46.83c-11.11 0-20.12 9.01-20.12 20.12s9.01 20.12 20.12 20.12 20.12-9.01 20.12-20.12-9.01-20.12-20.12-20.12Z"></path><circle cx="254.25" cy="66.95" r="20.12"></circle><circle cx="301.08" cy="66.95" r="20.12"></circle><path d="M347.91 46.83c-11.11 0-20.12 9.01-20.12 20.12s9.01 20.12 20.12 20.12 20.12-9.01 20.12-20.12-9.01-20.12-20.12-20.12Z"></path><circle cx="488.38" cy="66.95" r="20.12"></circle><circle cx="535.21" cy="66.95" r="20.12"></circle><path d="M207.43 0c-11.11 0-20.12 9.01-20.12 20.12s9.01 20.12 20.12 20.12 20.12-9.01 20.12-20.12S218.54 0 207.43 0Z"></path><circle cx="254.25" cy="20.12" r="20.12"></circle><circle cx="301.08" cy="20.12" r="20.12"></circle><path d="M347.91 0c-11.11 0-20.12 9.01-20.12 20.12s9.01 20.12 20.12 20.12 20.12-9.01 20.12-20.12S359.02 0 347.91 0Z"></path></svg>