<svg data-name="Layer 1" xmlns="http://www.w3.org/2000/svg" viewBox="0 0 617.58 617.58"><path d="M597.22 198.5c-52.91 25.72-108.77 60.81-153.77 97.65-33.08 28.16-64.8 62.55-74.06 105.98-6.24 29.26-4.85 60.61-4.85 90.34l.13 119.97c143.85-26.31 252.91-152.2 252.91-303.65 0-38.87-7.25-76.03-20.36-110.29Z"></path><path d="M365.33 348.04c24.7-54.61 69.33-96.74 113.53-135.79 26.56-23.06 55.07-43.57 84.18-63.26l7.14-4.51c-11.44-18.16-24.72-35.04-39.58-50.39-79.29 68.07-198.1 198.59-198.1 302.94l.11 219.56c5.37-.41 10.7-.95 15.99-1.63V450.38c0-41.91-1.3-64.42 16.73-102.33Z"></path><path d="M484.83 55.15C434.88 20.42 374.24 0 308.79 0S182.7 20.42 132.75 55.15c39.34 44.42 82.44 92.32 113.16 142.98 22.08 35.98 42.31 74.38 50.31 116.19 4.09 23.39 3.75 47.11 4.01 70.79l.68 232.28c2.62.07 5.22.2 7.86.2s5.24-.13 7.86-.2l.68-232.28c.27-23.68-.08-47.4 4.01-70.79 8-41.8 28.23-80.2 50.31-116.19 30.72-50.65 73.82-98.56 113.16-142.98Z"></path><path d="M174.13 296.16c-44.99-36.84-100.86-71.93-153.76-97.65C7.25 232.76 0 269.92 0 308.79c0 151.45 109.06 277.34 252.91 303.65l.13-119.97c0-29.73 1.39-61.08-4.85-90.34-9.26-43.43-40.98-77.82-74.06-105.98Z"></path><path d="M86.98 94.08c-14.86 15.35-28.14 32.23-39.58 50.39l7.14 4.51c29.11 19.69 57.62 40.2 84.19 63.26 44.21 39.05 88.83 81.19 113.53 135.79 18.03 37.91 16.73 60.42 16.73 102.33v164.58c5.29.68 10.62 1.23 15.99 1.63l.11-219.56c0-105.11-118.81-234.87-198.1-302.94Z"></path></svg>