<svg data-name="Layer 1" xmlns="http://www.w3.org/2000/svg" viewBox="0 0 602.34 535.12"><path d="M559.45 45.46C531.58 16.15 494.49 0 455.02 0s-76.56 16.15-104.43 45.42l-49.41 51.71-49.41-51.71C223.89 16.15 186.79 0 147.32 0S70.76 16.15 42.89 45.46c-57.19 60.12-57.19 157.97 0 218.09l258.28 271.58 258.28-271.58c57.19-60.12 57.19-157.97 0-218.09ZM432.88 365.05c-12.36 12.96-28.72 20.14-46.1 20.14s-33.73-7.14-46.1-20.14l-39.51-41.34-39.51 41.34c-12.36 12.96-28.72 20.14-46.1 20.14s-33.73-7.14-46.1-20.14c-25.83-27.15-25.83-71.34 0-98.53l131.71-138.47 131.71 138.47c25.83 27.15 25.83 71.34 0 98.53ZM58.31 60.12c23.79-25.02 55.4-38.83 89.01-38.83s65.22 13.77 89.01 38.83l50.13 52.43-132.42 139.23c-18.61 19.59-26.85 45.97-24.81 71.59L58.31 248.8c-49.5-52.05-49.5-136.68 0-188.73v.04Zm149.47 345.93c2.55.25 5.14.38 7.73.38 23.28 0 45.12-9.52 61.52-26.72l24.09-25.19 24.09 25.19c16.4 17.25 38.24 26.72 61.52 26.72 2.59 0 5.18-.17 7.78-.38l-93.34 98.19-93.34-98.19h-.04Zm336.2-157.2-70.91 74.56c2.04-25.62-6.2-52-24.81-71.59L315.83 112.59l50.13-52.43c23.79-25.02 55.4-38.83 89.01-38.83s65.22 13.77 89.01 38.83c49.5 52.05 49.5 136.68 0 188.73v-.04Z"></path></svg>