<svg xmlns="http://www.w3.org/2000/svg" width="464.9" viewBox="0 0 464.9 574.2" height="574.2"><path d="M52.6 248.7h19.9v50.9H52.6zM87.9 412.2v-19.9H10c-5.5 0-10 4.5-10 10s4.5 10 10 10h77.9zM52.6 334.5h19.9v50.1H52.6zM258.8 0C145.1 0 52.6 92.5 52.6 206.1v7.1h19.9v-7.1c0-102.7 83.5-186.2 186.2-186.2 102.7 0 186.2 83.5 186.2 186.2 0 102.7-83.5 186.2-186.2 186.2h-50.1v19.9h50.1c113.7 0 206.1-92.5 206.1-206.1S372.4 0 258.8 0z"></path><path d="M95.4 291.6h19.9v50.5H95.4zM10 369.5h34.9v-19.9H10c-5.5 0-10 4.5-10 10s4.5 9.9 10 9.9zM80.3 349.6h50.3v19.9H80.3zM138.2 248.7h19.9v50.9h-19.9zM258.8 326.7c66.5 0 120.6-54.1 120.6-120.6S325.3 85.5 258.8 85.5s-120.6 54.1-120.6 120.6v7.1h19.9v-7.1c0-55.5 45.2-100.7 100.7-100.7s100.7 45.2 100.7 100.7-45.2 100.7-100.7 100.7h-50.1v19.9h50.1zM10 326.7h78v-19.9H10c-5.5 0-10 4.5-10 10s4.5 9.9 10 9.9zM123 392.3h50.2v19.9H123zM138.2 334.5h19.9v50.1h-19.9z"></path><path d="M336.6 206.1c0-42.9-34.9-77.8-77.8-77.8S181 163.2 181 206.1v50.5h19.9v-50.5c0-31.9 26-57.9 57.9-57.9s57.9 26 57.9 57.9-26 57.9-57.9 57.9h-7.5v20h7.5c42.9 0 77.8-35 77.8-77.9z"></path><path d="M165.8 264h50.3v19.9h-50.3zM180.9 291.6h19.9v50.5h-19.9zM80.3 264h50.3v19.9H80.3zM10 284h34.9v-20H10c-5.5 0-10 4.5-10 10s4.5 10 10 10zM165.8 349.6h50.3v19.9h-50.3zM258.8 241.2c19.3 0 35.1-15.7 35.1-35.1S278.2 171 258.8 171c-19.3 0-35.1 15.7-35.1 35.1v7.1h19.9v-7.1c0-8.4 6.8-15.2 15.2-15.2 8.4 0 15.2 6.8 15.2 15.2s-6.8 15.2-15.1 15.2l-50.1-.1V241l50 .2zM9.9 240.7l78 .1V221l-77.9-.2c-5.5 0-9.9 4.4-10 9.9 0 5.6 4.4 10 9.9 10zM223.7 438.1h-22.9v-60.8h-19.9v60.8h-22.8v-18h-19.9v18h-22.9v-60.8H95.4v60.8H72.6v-18h-20v154.1h191V420.1h-19.9z"></path><path d="M95.4 256.6h19.9v-50.5c0-79.1 64.4-143.5 143.5-143.5S402.3 127 402.3 206.1s-64.4 143.5-143.5 143.5h-7.5v19.9h7.5c90.1 0 163.4-73.3 163.4-163.4 0-90.1-73.3-163.4-163.4-163.4-90.1 0-163.4 73.3-163.4 163.4v50.5z"></path><path d="M223.7 334.5h19.9v50.1h-19.9zM123 221v19.9l50.2.1v-19.9zM223.7 248.7h19.9v50.9h-19.9zM123 306.8h50.2v19.9H123z"></path></svg>