<svg data-name="Layer 1" xmlns="http://www.w3.org/2000/svg" viewBox="0 0 608.07 607.3"><path d="M0 199.82h290.4v15.26H0zM0 174.85h290.4v15.26H0zM0 149.87h290.4v15.26H0zM0 124.89h290.4v15.26H0zM0 99.91h290.4v15.26H0zM0 74.93h290.4v15.26H0zM0 49.96h290.4v15.26H0zM0 24.98h290.4v15.26H0zM0 0h290.4v15.26H0zM328.59 382.5h279.47v-15.26H356.67c-8.18 6.78-17.69 12.02-28.09 15.26ZM366.51 357.52h241.55v-15.26H376.98c-2.91 5.49-6.45 10.59-10.47 15.26ZM381.3 332.54h226.77v-15.26H385.38c-.88 5.28-2.25 10.37-4.08 15.26ZM226.77 274.76H0v15.26h222.69c.88-5.28 2.25-10.37 4.08-15.26ZM241.55 249.78H0v15.26h231.08c2.91-5.49 6.45-10.59 10.47-15.26ZM279.47 224.8H0v15.26h251.39c8.18-6.78 17.69-12.02 28.09-15.26ZM497.65 0v125.09h-71.28V0H315.95v222.04c35.46 5.14 63.56 32.75 69.43 67.97h40.99v-122.6h71.28v122.6h110.42V0H497.65ZM0 592.04h290.4v15.26H0zM315.95 592.04h292.12v15.26H315.95zM315.95 567.07h292.12v15.26H315.95zM0 567.07h290.4v15.26H0zM0 542.09h290.4v15.26H0zM315.95 542.09h292.12v15.26H315.95zM0 517.11h290.4v15.26H0zM315.95 517.11h292.12v15.26H315.95zM315.95 492.13h292.12v15.26H315.95zM0 492.13h290.4v15.26H0zM0 467.15h290.4v15.26H0zM315.95 467.15h292.12v15.26H315.95zM315.95 442.18h292.12v15.26H315.95zM0 442.18h290.4v15.26H0zM0 417.2h290.4v15.26H0zM315.95 417.2h292.12v15.26H315.95zM0 392.22h290.4v15.26H0zM315.95 392.22h292.12v15.26H315.95zM251.39 367.24H0v15.26h279.47c-10.39-3.23-19.9-8.47-28.09-15.26ZM231.08 342.26H0v15.26h241.55c-4.03-4.67-7.56-9.76-10.47-15.26ZM222.69 317.29H0v15.26h226.77c-1.83-4.89-3.2-9.98-4.08-15.26Z"></path></svg>