<svg data-name="Layer 1" xmlns="http://www.w3.org/2000/svg" viewBox="0 0 594.7 594.7"><path d="M295 141.81c11.64-.17 22.99.96 33.94 3.19 2.7-24.62 13.55-47.44 31.32-65.2 8.3-8.3 17.74-15.03 27.92-20.2C372.92 24.53 338.02 0 297.35 0c-54.69 0-99.03 44.34-99.03 99.03 0 23.77 8.39 45.57 22.34 62.63C242.7 149.38 268 142.2 295 141.8ZM495.67 198.32c-23.46 0-44.98 8.2-61.95 21.83 13.28 22.7 21.1 49.02 21.52 77.2.16 10.95-.83 21.64-2.8 31.99 23.57 3.19 45.37 13.81 62.47 30.91 8.4 8.4 15.08 17.86 20.17 27.93 35.07-15.24 59.62-50.15 59.62-90.83 0-54.69-44.34-99.03-99.03-99.03Z"></path><path d="M450.2 339.45c-4.28 16.47-11.16 31.9-20.17 45.84-5.64 8.71-18.08 10.14-25.41 2.79-9.3-9.34-17.18-20.1-23.29-31.92-9.11-17.63-14.26-37.63-14.26-58.81s5.18-41.15 14.3-58.78a129.678 129.678 0 0 1 22.2-30.82c6.67-6.86 18.1-5.83 23.56 2.03.38.55.76 1.1 1.14 1.66 18.58-14.65 41.96-23.46 67.41-23.46 11.88 0 23.3 1.97 34.01 5.49 15.14-38.41 5.39-84.36-29.36-113-35.77-29.48-88.57-29.79-124.64-.68-21.95 17.71-34.15 42.26-36.64 67.58a157.717 157.717 0 0 1 44.34 19.93c8.64 5.63 9.65 17.81 2.53 25.27a153.282 153.282 0 0 0-22.38 30.12c-12.52 22.06-19.7 47.53-19.7 74.66s7.17 52.59 19.7 74.65a152.904 152.904 0 0 0 24.79 32.57c7.35 7.37 6.63 19.63-1.96 25.51-.37.25-.73.5-1.1.75 13.46 18.14 21.45 40.56 21.45 64.84 0 11.88-1.97 23.29-5.48 34.01 38.35 15.11 84.21 5.42 112.85-29.18 29.29-35.39 30-87.62 1.65-123.77-17.1-21.8-40.84-34.12-65.54-37.28Z"></path><path d="M299.7 457.59c-11.88.18-23.46-1-34.62-3.33-3.37 22.21-13.56 43.57-30.63 60.64-8.3 8.3-17.74 15.03-27.92 20.2 15.25 35.06 50.15 59.6 90.82 59.6 54.69 0 99.03-44.34 99.03-99.03 0-22.3-7.46-42.81-19.9-59.36-22.61 13.14-48.77 20.87-76.78 21.29Z"></path><path d="M255.01 451.86c-16.88-4.69-32.63-12.13-46.74-21.79-8.57-5.87-9.26-18.12-1.92-25.47 9.66-9.67 18.03-20.63 24.82-32.6 12.52-22.06 19.7-47.53 19.7-74.65s-7.18-52.59-19.69-74.65c-6.2-10.93-13.7-21.02-22.31-30.05-7.26-7.62-6.03-19.87 2.8-25.59l.18-.12c-14.89-18.66-23.86-42.23-23.86-67.92 0-11.88 1.97-23.29 5.49-34.01-38.37-15.12-84.26-5.41-112.9 29.24-29.39 35.56-29.92 88.05-1.24 124.18 17.37 21.87 41.47 34.12 66.44 36.99a157.8 157.8 0 0 1 20.93-44.41c5.99-8.81 18.64-9.45 25.94-1.69 8.18 8.7 15.15 18.54 20.69 29.24 9.11 17.63 14.3 37.6 14.3 58.78s-5.15 41.17-14.26 58.8c-6.11 11.83-14 22.6-23.31 31.94-7.3 7.32-19.72 5.96-25.34-2.71l-.34-.53c-18.23 13.69-40.83 21.85-65.35 21.85-11.88 0-23.3-1.97-34.01-5.49-15.11 38.34-5.42 84.2 29.18 112.85 35.17 29.12 87 30.03 123.15 2.14 21.7-16.75 34.13-40.03 37.66-64.35Z"></path><path d="M159.1 375.95c-12.14-21.94-19.25-47.08-19.65-73.9a158.1 158.1 0 0 1 3.71-36.56c-23.91-3.03-46.05-13.72-63.37-31.04-8.4-8.4-15.08-17.86-20.17-27.93C24.55 221.76 0 256.67 0 297.35c0 54.69 44.34 99.03 99.03 99.03 22.62 0 43.4-7.67 60.07-20.43Z"></path></svg>