<svg xmlns="http://www.w3.org/2000/svg" width="606.3" viewBox="0 0 606.3 606.1" height="606.1" xml:space="preserve"><path d="M517.9 89.5C460.5 31.8 384.2 0 303.1 0 222.1 0 146 31.5 88.8 88.8 31.5 146 0 222.1 0 303.1s31.5 157.1 88.8 214.3c57.2 57.2 133.4 88.7 214.3 88.7 6.9 0 13.9-.3 20.8-.7L280 529.9C165.1 518.2 75.1 421 75.1 303.1c0-60.9 23.7-118.2 66.8-161.2C185 98.8 242.2 75.1 303.1 75.1c61 0 118.4 23.9 161.6 67.4 43.2 43.5 66.8 101 66.5 162-.3 51.9-17.6 100.7-50 141.1-25.7 32-59.8 56.7-97.8 71l-58.7-100.9h172.4L302.8 84.5 112.3 415.8h86.6l104.5-181.7 62.5 106.6h-86c-17.6 0-34 9.5-42.8 24.8-8.8 15.3-8.7 34.2.1 49.5l110.2 189.5 27.2-6.6c64.6-15.7 123.3-53 165.1-105.2 20.9-26.1 37.2-55.2 48.5-86.5 11.7-32.4 17.7-66.4 17.9-101.2.6-81.2-30.7-157.7-88.2-215.5z"></path></svg>