<svg xmlns="http://www.w3.org/2000/svg" width="642" viewBox="0 0 642 642" height="642" data-name="Layer 1"><path d="M252.39 247.17c-41 0-74.23 33.23-74.23 74.23s33.23 74.23 74.23 74.23l224.17.03C448.7 453.5 389.44 493.57 321 493.57c-95.14 0-172.57-77.43-172.57-172.57S225.86 148.43 321 148.43c54.06 0 102.4 24.97 134.11 64.01 10.85 13.42 30.56 15.47 43.98 4.62 13.42-10.91 15.54-30.62 4.62-44.04C460.63 119.86 394.76 85.9 321 85.9 191.12 85.9 85.9 191.12 85.9 321S191.12 556.1 321 556.1s228.55-98.8 234.84-223.03l-307.79-.03c-6.43 0-11.64-5.21-11.64-11.64s5.21-11.64 11.64-11.64h331.11c.16 3.73.24 7.47.24 11.24 0 142.71-115.69 258.41-258.41 258.41S62.6 463.71 62.6 321 178.29 62.6 321 62.6c102.07 0 190.27 59.21 232.25 145.13 7.58 15.54 26.31 21.99 41.85 14.41 15.54-7.58 21.99-26.31 14.41-41.85C557.36 73.55 447.8 0 321 0 143.72 0 0 143.72 0 321s143.72 321 321 321 321-143.72 321-321c0-25.41-2.95-50.13-8.53-73.83H252.39Z"></path></svg>