<svg id="Layer_1" data-name="Layer 1" xmlns="http://www.w3.org/2000/svg" viewBox="0 0 544.96 619.8">   <circle cx="272.56" cy="539.44" r="80.36"></circle>   <path d="M80.44,266.96C36.06,266.96,.08,302.94,.08,347.32s35.98,80.36,80.36,80.36,80.36-35.98,80.36-80.36-35.98-80.36-80.36-80.36Z"></path>   <path d="M384.24,347.4c0,44.38,35.98,80.36,80.36,80.36s80.36-35.98,80.36-80.36-35.98-80.36-80.36-80.36-80.36,35.98-80.36,80.36Z"></path>   <circle cx="80.36" cy="539.44" r="80.36" transform="translate(-85.37 19.84) rotate(-9.22)"></circle>   <circle cx="464.11" cy="539.44" r="80.36" transform="translate(-211.88 761.79) rotate(-67.5)"></circle>   <polygon points="228.86 167.01 228.86 347.4 316.1 347.4 316.1 167.01 395.86 246.77 457.56 185.08 272.48 0 87.4 185.08 149.1 246.77 228.86 167.01"></polygon> </svg>