<svg xmlns="http://www.w3.org/2000/svg" width="625.9" viewBox="0 0 625.9 625" height="625" xml:space="preserve" style="enable-background:new 0 0 625.9 625"><path d="M625.9 312.9c0-79.9-30-152.9-79.3-208.2L433.7 217.6c20.7 26.2 33.2 59.3 33.2 95.4 0 54.3-28.1 101.9-70.5 129.3L336.1 382v243h243.3l-69.2-69.1c70.6-57.3 115.7-144.9 115.7-243z"></path><path d="M312.9 0C140.1 0 0 140.1 0 312.9V625h159V312.9c0-85 68.9-153.9 153.9-153.9 41.7 0 79.5 16.6 107.2 43.5L532.6 90.1C476.1 34.4 398.5 0 312.9 0z"></path><path d="M246.7 312.5h-70.3V625H317V382.8c.1-38.8-31.4-70.3-70.3-70.3z"></path></svg>