<svg data-name="Layer 1" xmlns="http://www.w3.org/2000/svg" viewBox="0 0 627.94 444.18"><path d="M618.07 120.69a178.586 178.586 0 0 0-18.53-38.12c-70.2 32.65-182.63 53.8-309.37 53.8C174.42 136.37 70.61 118.72 0 90.8v37.38c84.63 15.35 183.94 24.19 290.17 24.19 122.45 0 235.72-11.75 327.9-31.68"></path><path d="M625.09 211.5c1.87-10.38 2.85-21.08 2.85-32s-.98-21.6-2.84-31.98c-97.49 15.61-212.18 24.62-334.93 24.62-104.44 0-203.04-6.52-290.17-18.08v50.89c87.13-11.56 185.73-18.08 290.17-18.08 122.75 0 237.44 9 334.92 24.62M573.96 51.21C541.6 19.53 497.3 0 448.44 0h-.04L0 .16v46.96c58.69 39.12 166.66 65.36 290.17 65.36s223.86-24.42 283.8-61.27M0 311.9v132.28h314.33v-85.02L448.4 359h.04c48.86 0 93.14-19.53 125.51-51.19-59.94-36.85-164.64-61.26-283.78-61.26S58.69 272.78 0 311.9"></path><path d="M0 230.84v37.38c70.61-27.92 174.42-45.57 290.17-45.57 126.74 0 239.16 21.15 309.36 53.79 7.6-11.83 13.85-24.61 18.53-38.12-92.18-19.93-205.45-31.67-327.9-31.67-106.22 0-205.53 8.84-290.16 24.19"></path></svg>