<svg xmlns="http://www.w3.org/2000/svg" width="589.1" viewBox="0 0 589.1 501.8" height="501.8"><path d="M448.3 0c-37.8 0-73.1 13.6-97.8 38.4-4.9 4.9-1.8 9.7-1.8 9.7l90.2 90.4c1.5-1.4 3.4-2.2 5.6-2.2 4.5 0 8.2 3.7 8.2 8.2s-3.7 8.2-8.2 8.2h-.1c-.1 0-103.7-104.1-103.7-104.1l-1.5-1.5C312.8 19.8 275.8 2.9 234.9 2.9c-64 0-118.3 41.4-137.7 98.9C41.9 122.1 2 174.4.1 236.3c0 .3-.1.5-.1.8v260.4c0 2.4 2 4.4 4.4 4.4H178c2.4 0 4.4-2 4.4-4.4v-80.2c0-2.6 2.1-4.6 4.6-4.6 2.6 0 4.6 2.1 4.6 4.6v80.2c0 2.4 2 4.4 4.4 4.4h173.6c2.4 0 4.4-2 4.4-4.4V323.3c18.1 8.1 38.2 12.6 59.3 12.6 4.3 0 7.2-.2 11.4-.6V286h3.7c70.5 0 140.8-62.9 140.8-142.3C589.1 64.4 527.7 0 448.3 0zm-74.4 152.6c-4.5 0-8.2-3.7-8.2-8.2 0-4.5 3.7-8.2 8.2-8.2 4.5 0 8.2 3.7 8.2 8.2-.1 4.5-3.7 8.2-8.2 8.2z"></path></svg>