<svg xmlns="http://www.w3.org/2000/svg" width="622.3" viewBox="0 0 622.3 616.5" height="616.5" xml:space="preserve"><path d="M0 0h192.9v192.8H0zM311.1 69.6c-42.7 0-79.5-23.2-96.4-59.5v182.7h192.9V10.1c-17 36.3-53.8 59.5-96.5 59.5zM525.8 69.6c-42.7 0-79.5-23.2-96.4-59.5v182.7h192.8V10.1c-16.9 36.3-53.7 59.5-96.4 59.5zM96.4 278.3c-42.7 0-79.5-23.2-96.4-59.5v182.7h192.9V218.9c-17 36.3-53.8 59.4-96.5 59.4zM96.4 493c-42.7 0-79.5-23.2-96.4-59.5v182.7h192.9V433.6c-17 36.3-53.8 59.4-96.5 59.4zM622.3 214.9H214.7v401.6h.6l95.8-94.5 96.5 94.3 214.7.2V406.2l-96.5-95.8 96.5-95.1z"></path></svg>