<svg data-name="Layer 1" xmlns="http://www.w3.org/2000/svg" viewBox="0 0 625.58 625.58"><path d="M624.83 291.37 517.25 183.79c-1.37-1.37-3.57.37-2.53 2.01 23.23 36.8 36.69 80.35 36.69 126.99 0 132.29-108.56 239.82-240.84 238.61-25.47-.23-49.99-4.49-72.97-12.15l178.44-178.44c18.21-18.21 5.31-49.36-20.44-49.36h-30.71l77.23-77.23 49.1 48.63c7.72 7.65 20.78 1.52 19.84-9.3l-12.73-146.79-146.79-12.73c-10.82-.94-16.95 12.12-9.3 19.84l48.96 49.43-150.81 150.81c-18.21 18.21-5.31 49.36 20.44 49.36h30.71L170.68 504.33c-57.95-43.11-95.76-111.86-96.47-189.31C72.99 182.73 180.53 74.18 312.82 74.18c46.64 0 90.19 13.46 126.98 36.69 1.64 1.04 3.39-1.16 2.01-2.53L334.21.75C327.13.27 319.99 0 312.79 0 139.51 0-1.32 141.64 0 315.22c1.3 170.13 140.2 309.04 310.33 310.35 173.59 1.34 315.24-139.49 315.24-312.78 0-7.2-.27-14.34-.75-21.42Z"></path></svg>