<svg data-name="Layer 1" xmlns="http://www.w3.org/2000/svg" viewBox="0 0 603.09 287.4"><path d="M453.77 0H149.32c-.53 0-1.02.3-1.25.76L.16 285.32c-.49.95.19 2.08 1.25 2.08h600.27c1.06 0 1.74-1.14 1.25-2.08L455.02.76c-.23-.45-.72-.76-1.25-.76Zm-77.48 131.05H255.21c-1.06 0-1.74-1.14-1.25-2.08l15.95-30.65c.49-.95-.19-2.08-1.25-2.08h-24.02c-.53 0-1.02.3-1.25.76l-47.93 92.21c-.49.95.19 2.08 1.25 2.08h24.02c.53 0 1.02-.3 1.25-.76l17.39-33.42c.23-.45.72-.76 1.25-.76H361.7c1.06 0 1.74 1.14 1.25 2.08l-57.02 109.68c-.23.45-.72.76-1.25.76H31.08c-1.06 0-1.74-1.14-1.25-2.08L158.49 19.28c.23-.45.72-.76 1.25-.76h273.57c1.06 0 1.74 1.14 1.25 2.08l-57.02 109.68c-.23.45-.72.76-1.25.76Z"></path></svg>