<svg id="Layer_1" data-name="Layer 1" xmlns="http://www.w3.org/2000/svg" viewBox="0 0 606.82 612.06">   <path d="M606.82,306.93c0-15.67-12.7-28.38-28.38-28.38h-88.01l84.97-60.26c12.78-9.06,15.8-26.78,6.73-39.56-9.06-12.78-26.77-15.8-39.56-6.73l-188.21,134.03,188.21,135.82c4.98,3.54,10.72,5.23,16.39,5.23,8.89,0,17.64-4.16,23.17-11.96,9.07-12.78,6.05-30.5-6.73-39.56l-84.97-60.26h88.01c15.67,0,28.38-12.7,28.38-28.38Z"></path>   <path d="M540.58,166.77c5.55-2.55,9.89-6.67,12.72-11.58,4.44-7.7,5.21-17.36,1.22-26.05-6.54-14.24-23.39-20.49-37.63-13.94l-94.66,43.48,43.99-76.23c7.83-13.57,3.18-30.93-10.4-38.76-13.57-7.83-30.93-3.18-38.76,10.39l-43.99,76.23-9.72-103.71c-1.46-15.6-15.3-27.07-30.9-25.6-15.6,1.46-27.06,15.29-25.6,30.9l22.02,230.01,211.71-95.14Z"></path>   <path d="M275.71,.12c-15.61-1.45-29.44,10.02-30.88,25.63l-9.65,103.72-44.04-76.2c-7.84-13.57-25.2-18.21-38.77-10.37-13.57,7.84-18.21,25.2-10.37,38.77l44.04,76.2-94.69-43.42c-14.24-6.53-31.09-.28-37.62,13.97-6.53,14.24-.28,31.08,13.97,37.62l210.23,95.89,23.41-230.92c.57-6.08-.83-11.9-3.67-16.81-4.45-7.7-12.43-13.19-21.95-14.08Z"></path>   <path d="M252.46,306.07L64.16,170.38c-4.99-3.53-10.72-5.22-16.39-5.22-8.89,0-17.64,4.17-23.16,11.98-9.06,12.79-6.03,30.5,6.76,39.56l85.01,60.2-88.01,.06C12.69,276.96-.01,289.68,0,305.35c0,15.67,12.72,28.37,28.39,28.36l88.01-.06-84.93,60.31c-12.78,9.07-15.78,26.79-6.7,39.57,9.07,12.77,26.78,15.78,39.57,6.7l188.12-134.16Z"></path>   <path d="M66.33,445.46c-5.55,2.55-9.88,6.67-12.71,11.59-4.44,7.7-5.2,17.36-1.2,26.05,6.55,14.24,23.4,20.47,37.64,13.92l94.63-43.54-43.94,76.26c-7.82,13.58-3.16,30.93,10.42,38.75,13.58,7.82,30.93,3.16,38.75-10.42l43.94-76.26,9.79,103.71c1.47,15.6,15.31,27.06,30.92,25.58,15.6-1.47,27.05-15.31,25.58-30.92l-22.18-230-211.64,95.28Z"></path>   <path d="M539.23,445.88l-210.29-95.75-23.26,230.93c-.56,6.08,.84,11.89,3.68,16.8,4.45,7.69,12.44,13.18,21.96,14.06,15.61,1.44,29.43-10.04,30.87-25.64l9.58-103.73,44.09,76.17c7.85,13.56,25.21,18.19,38.78,10.34,13.56-7.85,18.19-25.21,10.34-38.77l-44.09-76.17,94.72,43.35c14.25,6.52,31.09,.26,37.61-13.99,6.52-14.25,.26-31.08-13.99-37.61Z"></path> </svg>