<svg data-name="Layer 1" xmlns="http://www.w3.org/2000/svg" viewBox="0 0 616.66 616.66"><path d="M308.33 0C138.32 0 0 138.32 0 308.33s138.32 308.33 308.33 308.33 308.33-138.32 308.33-308.33S478.34 0 308.33 0Zm18.88 226.41 5.78 43.07-24.65 24.65-23.03-23.03 5.78-43.07 17.25 17.25 18.88-18.88Zm34.09-34.09L464.99 88.63c9.43 6.75 18.43 14.06 26.91 21.94L367.08 235.39l-5.78-43.07Zm-110.09 44.69L124.76 110.56c8.48-7.87 17.47-15.19 26.9-21.94l105.32 105.32-5.78 43.07Zm-6.41 47.79-5.78 43.06L78.29 167.13c6.14-9.97 12.93-19.51 20.27-28.57l146.23 146.23Zm34.09 34.09 29.44 29.44 31.06-31.06 5.78 43.06-36.84 36.84-35.21-35.21 5.78-43.06Zm94.59-35.72 144.61-144.61a269.53 269.53 0 0 1 20.27 28.57l-159.1 159.1-5.78-43.06Zm57.86-215.08L308.33 191.1 185.32 68.09c36.92-18.98 78.72-29.77 123.01-29.77s86.09 10.79 123.01 29.77ZM38.32 308.33c0-37.41 7.66-73.07 21.48-105.5l172.82 172.82-24.58 183.3C108.69 519.04 38.33 421.78 38.33 308.33Zm206.79 262.46 21.6-161.05 41.62 41.62 43.24-43.25 21.76 162.26c-20.83 5.17-42.6 7.96-65.01 7.96s-42.93-2.66-63.22-7.55Zm165.27-12.54-24.71-184.23 171.19-171.19c13.82 32.43 21.48 68.09 21.48 105.5 0 112.78-69.53 209.59-167.96 249.93Z"></path></svg>