<svg xmlns="http://www.w3.org/2000/svg" width="608.7" viewBox="0 0 608.7 632.7" height="632.7" xml:space="preserve" style="enable-background:new 0 0 608.7 632.7"><path d="M430.6 310.5v-63.7 63.7zM430.6 454.8l-96.5 55.8V383.3l74.2-41.8v-81.8L264 343.3v288.8l236.7-136.8V206.1L249.9 62.6 0 206.1V493l236.8 139.7V343.3L92.5 259.6v81l74.1 43v127l-96.5-55.8v-208l178.4-104.2 182.1 104.2z"></path><path d="M608.7 143.6 357.8 0l-70.4 40.6 251.2 143.7v289l70.1-40.5zM303.9 244.3c0 29.9-24.2 54.1-54.1 54.1-29.9 0-54.1-24.2-54.1-54.1 0-29.9 24.2-54.1 54.1-54.1 29.9 0 54.1 24.2 54.1 54.1z"></path></svg>