<svg xmlns="http://www.w3.org/2000/svg" width="641.85" viewBox="0 0 641.85 593.71" height="593.71" data-name="Layer 1"><path d="M347.78 80.5 320.92 0h198.34l26.86 80.5H347.78zM355.28 102.96h198.38l26.9 80.51H382.21l-26.93-80.51zM172.3 183.47 233.6 0h87.32l-61.29 183.47H172.3zM148.62 183.47H61.29L122.58 0h87.33l-61.29 183.47zM34.36 264.07l26.93-80.6 160.46 113.38-26.93 80.61L34.36 264.07zM26.93 286.32l160.46 113.39-26.93 80.61L0 366.93l26.93-80.61zM230.96 530.14l-70.5-49.82 160.46-113.39 70.5 49.82-160.46 113.39zM250.42 543.89 410.88 430.5l70.5 49.82-160.46 113.39-70.5-49.82zM420.09 296.85l70.65-49.92 61.29 183.47-70.65 49.92-61.29-183.47zM571.2 416.85l-61.29-183.46 70.65-49.92 61.29 183.46-70.65 49.92z"></path></svg>