<svg xmlns="http://www.w3.org/2000/svg" width="623.6" viewBox="0 0 623.6 602.6" height="602.6" xml:space="preserve" style="enable-background:new 0 0 623.6 602.6"><path d="M618.4 1.4c-3.3-1.9-7.3-1.9-10.5 0l-198 113.8-193.6-111c-3.3-1.9-7.3-1.9-10.5 0-3.3 1.9-5.3 5.4-5.3 9.1l-.1 210.1L15.8 117.9c-3.3-1.9-7.3-1.9-10.5 0C2 119.8 0 123.2 0 127v462.2c0 3.8 2 7.2 5.3 9.1 1.6.9 3.5 1.4 5.3 1.4 1.8 0 3.6-.5 5.3-1.4l194-111.5 197.3 114.5c1.6.9 3.5 1.4 5.3 1.4 1.8 0 3.6-.5 5.3-1.4 3.3-1.9 5.3-5.4 5.3-9.1V376.8L608 483.4c3.3 1.9 7.3 1.9 10.5 0 3.3-1.9 5.3-5.4 5.3-9.1V10.5c-.2-3.7-2.2-7.2-5.4-9.1zm-15.9 27.4v197L431 127.3l171.5-98.5zm-213.8 98.6-167.2 96.1.1-191.9 167.1 95.8zm13.1 19.6v193.4l-170.5-98.2L401.8 147zm-380.7-1.8 168 96.8-168 96.6V145.2zm0 217.8 179.3-103.1-.1 208.6L21.1 570.9V363zm380.7 210.8L221.4 468.5l.1-208.6 180.4 104.8v209.1zm21.1-221.3V147l179.6 103v206L422.9 352.5z"></path></svg>