<svg data-name="Layer 1" xmlns="http://www.w3.org/2000/svg" viewBox="0 0 566.5 597.91"><path d="M0 0v597.91h566.5V0H0Zm469.18 213.12v261.75l-59.25-59.25V150.67l59.25 62.44ZM221.87 342.61V133.8h154.17v261.9l-154.17-53.1ZM97.01 388.92V133.8h90.98v210.35l-90.98 44.77Zm109.06-15.91 108.61 37.4h-184.6l76-37.4Zm-84.32 71.27h268.93l52.98 52.98H171.92l-50.16-52.98ZM439.48 132.6 409.49 101v-.34h30.2v31.94h-.21Zm-217.6-33.15V70.47l83.26 28.98h-83.26Zm-33.89-26.64v26.64l-51.08-.07 51.08-26.57Zm282.95 92.94-30.06-31.67v-.28h30.2v31.95h-.14Zm-30.06-33.15v-31.94h30.2v31.94h-30.2Zm0-33.15V67.5h30.2v31.95h-30.2Zm-1.21 0h-30.2V67.5h30.2v31.95Zm-31.4 0h-.09l-30.11-10.48V67.5h30.2v31.95Zm-31.4-10.9-30.21-10.52V67.5h30.21v21.05Zm-31.42-10.94L316.4 67.5h29.05v10.11ZM95.41 82.77V67.5h29.35L95.41 82.77Zm-1.54 381.34H64.01v-31.54l29.86 31.54Zm.33 1.21v31.94H64v-31.94h30.2Zm1.21.42 29.85 31.52H95.41v-31.52Zm30.2 32.73v31.95h-30.2v-31.95h30.2Zm1.21.44 29.84 31.51h-29.84v-31.51ZM502.41 198.9l-30.12-31.73v-.22h30.2v31.95h-.08Zm-30.12-33.15V133.8h30.2v31.95h-30.2Zm0-33.15v-31.94h30.2v31.94h-30.2Zm0-33.15V67.5h30.2v31.95h-30.2Zm0-33.15V34.35h30.2V66.3h-30.2Zm-1.21 0h-30.2V34.35h30.2V66.3Zm-31.4 0h-30.2V34.35h30.2V66.3Zm-31.4 0h-30.2V34.35h30.2V66.3Zm-31.4 0h-30.21V34.35h30.21V66.3Zm-31.42 0h-30.2V34.35h30.2V66.3Zm-31.4 0h-1.11l-29.09-10.13V34.35h30.2V66.3Zm-31.4-10.55-30.2-10.51V34.35h30.2v21.4Zm-31.4-10.93-30.08-10.47h30.08v10.47Zm-62.81-10.43-30.2 15.71V34.36h30.2v.04Zm-31.4 16.34-29.94 15.58h-.27V34.36h30.21v16.37Zm-31.42 15.58h-30.2V34.36h30.2v31.95Zm-31.4 0h-30.2V34.36h30.2v31.95Zm0 1.21v15.9l-30.2 15.71v-31.6h30.2Zm-31.4 31.95h-30.2V67.52h30.2v31.95Zm0 1.21v31.94h-30.2v-31.94h30.2Zm0 33.15v31.95h-30.2v-31.95h30.2Zm0 33.15v31.95h-30.2v-31.95h30.2Zm0 33.15v31.94h-30.2v-31.94h30.2Zm0 33.15v31.95h-30.2v-31.95h30.2Zm0 33.15v31.94h-30.2v-31.94h30.2Zm0 33.15v31.95h-30.2v-31.95h30.2Zm0 33.15v31.95h-30.2v-31.95h30.2Zm0 33.15v31.94h-30.2v-31.94h30.2Zm0 33.15v31.95h-30.2v-31.95h30.2Zm0 33.15v31.95h-30.2v-31.95h30.2Zm0 33.15v31.94h-30.2v-31.94h30.2Zm0 33.15v31.95h-30.2v-31.95h30.2Zm1.21 0h30.2v31.95h-30.2v-31.95Zm30.2 33.15v31.94h-30.2v-31.94h30.2Zm1.21 0h30.2v31.94h-30.2v-31.94Zm31.4 0h30.21v31.94h-30.21v-31.94Zm31.42 0h30.2v31.94h-30.2v-31.94Zm31.4 0h30.2v31.94h-30.2v-31.94Zm31.4 0h30.2v31.94h-30.2v-31.94Zm31.4 0h30.2v31.94h-30.2v-31.94Zm31.4 0h30.2v31.94h-30.2v-31.94Zm31.4 0h30.2v31.94h-30.2v-31.94Zm31.4 0h30.21v31.94h-30.21v-31.94Zm31.42 0h30.2v31.94h-30.2v-31.94Zm31.4 0h30.2v31.94h-30.2v-31.94Zm31.4 0h30.2v31.94h-30.2v-31.94Zm31.4 0h30.2v31.94h-30.2v-31.94Zm31.4 0h30.2v31.94h-30.2v-31.94Zm0-1.21v-31.95h30.2v31.95h-30.2Zm0-33.15v-31.94h30.2v31.94h-30.2Zm0-33.15v-31.95h30.2v31.95h-30.2Zm0-33.15v-31.95h30.2v31.95h-30.2Zm0-33.15v-31.94h30.2v31.94h-30.2Zm0-33.15v-31.95h30.2v31.95h-30.2Zm0-33.15v-31.95h30.2v31.95h-30.2Zm0-33.15v-31.94h30.2v31.94h-30.2Zm0-33.15v-31.95h30.2v31.95h-30.2Zm0-33.15v-31.94h30.2v31.94h-30.2Zm0-33.15v-31.95h30.2v31.95h-30.2Zm0-33.15v-31.95h30.2v31.95h-30.2Zm0-33.15v-31.94h30.2v31.94h-30.2Zm0-33.15V67.52h30.2v31.95h-30.2Zm0-33.15V34.37h30.2v31.95h-30.2Zm0-33.15V1.21h30.2v31.94h-30.2Zm-1.21 0h-30.2V1.21h30.2v31.94Zm-31.4 0h-30.2V1.21h30.2v31.94Zm-31.4 0h-30.2V1.21h30.2v31.94Zm-31.4 0h-30.2V1.21h30.2v31.94Zm-31.4 0h-30.21V1.21h30.21v31.94Zm-31.42 0h-30.2V1.21h30.2v31.94Zm-31.4 0h-30.2V1.21h30.2v31.94Zm-31.4 0h-30.2V1.21h30.2v31.94Zm-31.4 0h-30.2V1.21h30.2v31.94Zm-31.4 0h-2.14l-16.11-5.61-10.78 5.61h-1.18V1.21h30.2v31.94Zm-31.4 0h-30.2V1.21h30.2v31.94Zm-31.4 0h-30.21V1.21h30.21v31.94Zm-31.42 0h-30.2V1.21h30.2v31.94Zm-31.4 0h-30.2V1.21h30.2v31.94Zm-31.4 0h-30.2V1.21h30.2v31.94Zm0 1.21v31.95h-30.2V34.38h30.2Zm-31.4 31.95H1.21V34.38H31.4v31.95Zm0 1.21v31.95H1.21V67.54H31.4Zm0 33.15v31.94H1.21v-31.94H31.4Zm0 33.15v31.95H1.21v-31.95H31.4Zm0 33.15v31.95H1.21v-31.95H31.4Zm0 33.15v31.94H1.21v-31.94H31.4Zm0 33.15v31.95H1.21v-31.95H31.4Zm0 33.15v31.94H1.21v-31.94H31.4Zm0 33.15v31.95H1.21v-31.95H31.4Zm0 33.15v31.95H1.21v-31.95H31.4Zm0 33.15v31.94H1.21v-31.94H31.4Zm0 33.15v31.95H1.21v-31.95H31.4Zm0 33.15v31.95H1.21v-31.95H31.4Zm0 33.15v31.94H1.21v-31.94H31.4Zm0 33.15v31.95H1.21v-31.95H31.4Zm0 33.15v31.94H1.21v-31.94H31.4Zm1.21 0h30.2v31.94h-30.2v-31.94Zm30.2 33.15v31.95h-30.2v-31.95h30.2Zm1.21 0h30.2v31.95h-30.2v-31.95Zm31.4 0h30.2v31.95h-30.2v-31.95Zm31.4 0h30.21v31.95h-30.21v-31.95Zm31.42 0h30.2v31.95h-30.2v-31.95Zm31.4 0h30.2v31.95h-30.2v-31.95Zm31.4 0h30.2v31.95h-30.2v-31.95Zm31.4 0h30.2v31.95h-30.2v-31.95Zm31.4 0h30.2v31.95h-30.2v-31.95Zm31.4 0h30.2v31.95h-30.2v-31.95Zm31.4 0h30.21v31.95h-30.21v-31.95Zm31.42 0h30.2v31.95h-30.2v-31.95Zm31.4 0h30.2v31.95h-30.2v-31.95Zm31.4 0h30.2v31.95h-30.2v-31.95Zm31.4 0h30.2v31.95h-30.2v-31.95Zm31.4 0h30.2v31.95h-30.2v-31.95Zm31.4 0h30.2v31.95h-30.2v-31.95Zm30.2-1.21h-30.2v-31.94h30.2v31.94Zm0-33.15h-30.2v-31.95h30.2v31.95Zm0-33.15h-30.2v-31.94h30.2v31.94Zm0-33.15h-30.2v-31.95h30.2v31.95Zm0-33.15h-30.2v-31.95h30.2v31.95Zm0-33.15h-30.2v-31.94h30.2v31.94Zm0-33.15h-30.2v-31.95h30.2v31.95Zm0-33.15h-30.2v-31.95h30.2v31.95Zm0-33.15h-30.2v-31.94h30.2v31.94Zm0-33.15h-30.2v-31.95h30.2v31.95Zm0-33.15h-30.2v-31.94h30.2v31.94Zm0-33.15h-30.2v-31.95h30.2v31.95Zm0-33.15h-30.2v-31.95h30.2v31.95Zm0-33.15h-30.2v-31.94h30.2v31.94Zm0-33.15h-30.2V67.53h30.2v31.95Zm0-33.15h-30.2V34.38h30.2v31.95Zm0-33.15h-30.2V1.21h30.2v31.94ZM31.4 1.21v31.94H1.21V1.21H31.4ZM1.21 564.76H31.4v31.95H1.21v-31.95Z"></path></svg>