<svg xmlns="http://www.w3.org/2000/svg" data-name="Layer 1" viewBox="0 0 619.92 619.92"><path d="M573.56 309.96c0 145.35-118.25 263.59-263.59 263.59S46.36 455.31 46.36 309.96s118.25-263.6 263.6-263.6V0C139.05 0 0 139.05 0 309.96s139.05 309.95 309.96 309.95 309.96-139.05 309.96-309.95h-46.36Z"></path><path d="M54.12 309.96c0 141.07 114.77 255.84 255.85 255.84v-46.36c-115.51 0-209.49-93.97-209.49-209.48s93.97-209.48 209.48-209.48 209.48 93.98 209.48 209.49h46.36c0-141.08-114.77-255.85-255.84-255.85S54.12 168.89 54.12 309.96Z"></path><path d="M511.7 309.96c0-111.24-90.5-201.73-201.73-201.73s-201.74 90.5-201.74 201.73h46.36c0-85.67 69.7-155.37 155.37-155.37s155.37 69.7 155.37 155.37-69.7 155.36-155.37 155.36v46.36c111.23 0 201.73-90.49 201.73-201.73Z"></path><path d="M162.35 309.96c0 81.39 66.22 147.61 147.62 147.61s147.62-66.22 147.62-147.61-66.22-147.62-147.62-147.62v46.36c55.83 0 101.25 45.42 101.25 101.25S365.8 411.2 309.97 411.2s-101.25-45.42-101.25-101.25h-46.36Z"></path><path d="M309.96 262.83v-46.36c-51.56 0-93.5 41.94-93.5 93.5s41.94 93.5 93.5 93.5 93.5-41.94 93.5-93.5H357.1c0 25.99-21.15 47.14-47.14 47.14s-47.14-21.15-47.14-47.14 21.15-47.14 47.14-47.14Z"></path></svg>