<svg xmlns="http://www.w3.org/2000/svg" width="420.6" viewBox="0 0 420.6 622.2" height="622.2" xml:space="preserve"><path d="M126.4 622.2H97.9l.1-265.6c0-19.1-15.6-34.7-34.7-34.7s-34.7 15.6-34.7 34.7 15.6 34.7 34.7 34.7v28.6C28.4 419.9 0 391.6 0 356.7s28.4-63.3 63.3-63.3 63.3 28.4 63.3 63.3l-.2 265.5z"></path><path d="M159.1 622.2h-28.6l.1-362.9c0-19.1-15.6-34.7-34.7-34.7s-34.7 15.6-34.7 34.7H32.7c0-34.9 28.4-63.3 63.3-63.3s63.3 28.4 63.3 63.3l-.2 362.9z"></path><path d="M191.8 622.2h-28.6l.1-460.9c0-19.1-15.6-34.7-34.7-34.7V98c34.9 0 63.3 28.4 63.3 63.3l-.1 460.9zM195.9 0h28.6v622.2h-28.6zM294.1 622.2h28.6l-.1-265.6c0-19.1 15.6-34.7 34.7-34.7s34.7 15.6 34.7 34.7-15.6 34.7-34.7 34.7v28.6c34.9 0 63.3-28.4 63.3-63.3s-28.4-63.3-63.3-63.3-63.3 28.4-63.3 63.3l.1 265.6z"></path><path d="M261.5 622.2h28.6l-.1-362.9c0-19.1 15.6-34.7 34.7-34.7s34.7 15.6 34.7 34.7H388c0-34.9-28.4-63.3-63.3-63.3s-63.3 28.4-63.3 63.3l.1 362.9z"></path><path d="M228.8 622.2h28.6l-.1-460.9c0-19.1 15.6-34.7 34.7-34.7V98c-34.9 0-63.3 28.4-63.3 63.3l.1 460.9z"></path></svg>