<svg xmlns="http://www.w3.org/2000/svg" width="577.8" viewBox="0 0 577.8 642" height="642" style="overflow:visible;enable-background:new 0 0 577.8 642" xml:space="preserve"><path d="M132.3 256.8c26.5 0 49.4-18.5 54.9-44.5l29.9-140.7c8.4-39.5 66.1-35.2 68.5 5.1l19.6 321.7c.9 14.1 20.8 16.1 24.4 2.5l30.9-115.3c6.6-24.6 28.8-41.6 54.3-41.6h162.9V0H0v256.8h132.3z"></path><path d="M438.4 382c-27.7 0-51.2 20.1-55.5 47.4l-21.6 137.1c-6.4 40.4-65.2 38.4-68.8-2.3l-28.2-321c-1.2-13.9-20.8-15.6-24.4-2.1l-30.1 112.2c-6.6 24.5-28.8 41.6-54.3 41.6H0V642h577.8V382H438.4z"></path></svg>