<svg xmlns="http://www.w3.org/2000/svg" width="511" viewBox="0 0 511 589.8" height="589.8"><path d="M475.2 517.5h-83c-31.6 0-57.4-25.7-57.4-57.4V349.5c0-2.1-.2-4.2-.6-6.2.4-3.1.6-6.2.6-9.4v-168c0-2.6-.1-5.2-.4-7.8h51.5c29.5 0 53.5 24 53.5 53.5 0 19.8 16.1 35.9 35.9 35.9 19.8 0 35.9-16.1 35.9-35.9 0-68.2-54.9-123.9-122.8-125.1-.4 0-.8-.1-1.2-.1H247.6V35.9c0-19.8-16.1-35.9-35.9-35.9s-35.9 16.1-35.9 35.9v88c0 28.7-23.3 52-52 52s-52-23.3-52-52c0-19.8-16.1-35.9-35.9-35.9S0 104.1 0 123.9c0 68.2 55.5 123.7 123.7 123.7 18.6 0 36.2-4.1 52-11.5v105.7h-48.1C57.2 341.7 0 399.7 0 470.9v83c0 19.8 16.1 35.9 35.9 35.9s35.9-16.1 35.9-35.9v-83c0-31.6 25.1-57.4 55.9-57.4H263v46.6c0 71.2 57.9 129.1 129.1 129.1h83c19.8 0 35.9-16.1 35.9-35.9 0-19.8-16-35.8-35.8-35.8zm-.1-319c6 0 10.9 4.9 10.9 10.9s-4.9 10.9-10.9 10.9-10.9-4.9-10.9-10.9c0-6.1 4.9-10.9 10.9-10.9zm-87.9-87.1c6 0 10.9 4.9 10.9 10.9s-4.9 10.9-10.9 10.9-10.9-4.9-10.9-10.9c.1-6 5-10.9 10.9-10.9zM35.9 133.2c-6 0-10.9-4.9-10.9-10.9s4.9-10.9 10.9-10.9 10.9 4.9 10.9 10.9c-.1 6-4.9 10.9-10.9 10.9zm87.8 86.6c-6 0-10.9-4.9-10.9-10.9s4.9-10.9 10.9-10.9 10.9 4.9 10.9 10.9c0 6.1-4.9 10.9-10.9 10.9zM35.9 564.2c-6 0-10.9-4.9-10.9-10.9s4.9-10.9 10.9-10.9 10.9 4.9 10.9 10.9c-.1 6-4.9 10.9-10.9 10.9zm26.3-149.9c-6 0-10.9-4.9-10.9-10.9s4.9-10.9 10.9-10.9 10.9 4.9 10.9 10.9-4.9 10.9-10.9 10.9zm149.4-25.8c-6 0-10.9-4.9-10.9-10.9s4.9-10.9 10.9-10.9 10.9 4.9 10.9 10.9c-.1 6-4.9 10.9-10.9 10.9zm0-255.3c-6 0-10.9-4.9-10.9-10.9s4.9-10.9 10.9-10.9 10.9 4.9 10.9 10.9c-.1 6-4.9 10.9-10.9 10.9zm0-86.5c-6 0-10.9-4.9-10.9-10.9s4.9-10.9 10.9-10.9 10.9 4.9 10.9 10.9c-.1 6.1-4.9 10.9-10.9 10.9zm87.3 341.8c-6 0-10.9-4.9-10.9-10.9s4.9-10.9 10.9-10.9 10.9 4.9 10.9 10.9c-.1 6-4.9 10.9-10.9 10.9zm0-168.2c-6 0-10.9-4.9-10.9-10.9s4.9-10.9 10.9-10.9 10.9 4.9 10.9 10.9c-.1 6-4.9 10.9-10.9 10.9zm27.4 315.2c-6 0-10.9-4.9-10.9-10.9s4.9-10.9 10.9-10.9 10.9 4.9 10.9 10.9c-.1 6.1-4.9 10.9-10.9 10.9zm148.8 28.7c-6 0-10.9-4.9-10.9-10.9s4.9-10.9 10.9-10.9 10.9 4.9 10.9 10.9c-.1 6-4.9 10.9-10.9 10.9z"></path></svg>