<svg data-name="Layer 1" xmlns="http://www.w3.org/2000/svg" viewBox="0 0 616.89 611.67"><path d="m358.49 137.99-3.76-3.33V72.11l-3.01-5.1v-40.1h-14.61v40.1l-3.01 5.1v62.55l-3.76 3.33v55.54h28.15v-55.54zM402.37 113.55l-3.76-3.33V45.2l-3.01-5.1V0h-14.61v40.1l-3.01 5.1v65.02l-3.76 3.33v104.09h28.15V113.55zM499.26 196.24 532 177.35l-7.3-12.65-32.74 18.89-5.93-.05-39.78 22.97v-68.52l-3.77-3.33V72.11l-3-5.1v-40.1h-14.62v40.1l-3 5.1v62.55l-3.77 3.33v108.59l78.25-45.18 2.92-5.16z"></path><path d="m486.36 96.57-3-5.11V51.37h-14.62v40.09l-3 5.11v76.21l20.62-11.9V96.57zM478.83 265.26l1-4.93L534 229.06l2.92-5.15 34.72-20.05-7.3-12.66-34.73 20.05-5.92-.05-54.17 31.27-4.76-1.6-48.1 27.77 14.07 24.39 48.1-27.77zM512.63 268.25l-4.77-1.59-90.15 52.04 14.08 24.38 90.15-52.04 1-4.93 56.3-32.5 2.92-5.16 34.73-20.05-7.31-12.65-34.72 20.04-5.93-.05-56.3 32.51zM503.15 398.49l-39.78-22.97 59.34-34.26 1-4.93 54.17-31.27 2.92-5.15 34.72-20.05-7.31-12.66-34.72 20.05-5.92-.05-54.17 31.27-4.77-1.6-94.04 54.3 78.25 45.18 5.92-.05 32.73 18.91 7.31-12.66-32.73-18.91-2.92-5.15z"></path><path d="m574.25 337.48-5.93-.05-66 38.1 20.62 11.91 55.69-32.15 2.92-5.16 34.73-20.04-7.31-12.66-34.72 20.05zM380.68 405.34l48.1 27.77 4.76-1.6 54.17 31.28 5.92-.05 34.73 20.05 7.3-12.66-34.72-20.05-2.92-5.15-54.16-31.28-1-4.92-48.1-27.78-14.08 24.39zM499.39 496.38l-56.31-32.51-1-4.93-90.14-52.05-14.08 24.39L428 483.33l4.77-1.6 56.3 32.51 5.93-.05 34.72 20.05 7.31-12.65-34.73-20.05-2.91-5.16zM454.14 520.92l-54.17-31.27-1-4.93-94.03-54.3-.01 90.36 3.01 5.1-.02 37.8h14.62l.01-37.79 3.01-5.11v-45.94l59.34 34.26 4.76-1.59 54.17 31.27 5.92-.04 34.72 20.05 7.31-12.66-34.72-20.05-2.92-5.16z"></path><path d="m411.02 546.69-66-38.11v23.82l55.69 32.15 5.92-.05 34.72 20.05 7.31-12.65-34.72-20.05-2.92-5.16zM258.39 473.68l3.76 3.33v62.55l3 5.1v40.1h14.61l.01-40.1 3-5.1.01-62.55 3.76-3.33.01-55.54h-28.16v55.54zM214.51 498.12l3.76 3.33v65.01l3 5.11v40.09l14.61.01.01-40.1 3-5.1.01-65.02 3.76-3.33.01-104.09-28.15-.01-.01 104.1zM117.62 415.41 84.88 434.3l7.31 12.66 32.74-18.89 5.92.05 39.79-22.97-.01 68.52 3.77 3.33-.01 62.55 3.01 5.1-.01 40.1h14.62v-40.09l3-5.11.01-62.55 3.77-3.33.01-108.58-78.26 45.17-2.92 5.15z"></path><path d="m130.52 515.09 3 5.1v40.1h14.61V520.2l3.01-5.11.01-76.22-20.63 11.91v64.31zM138.06 346.4l-1 4.93-54.17 31.26-2.92 5.16-34.73 20.04 7.31 12.66 34.72-20.05 5.93.05 54.17-31.26 4.76 1.59 48.11-27.76-14.08-24.38-48.1 27.76zM104.27 343.4l4.76 1.6 90.16-52.04-14.08-24.38-90.15 52.03-1 4.93-56.31 32.5-2.92 5.16L0 383.24l7.31 12.66 34.72-20.05 5.93.05 56.31-32.5zM118.14 195.36l-32.72-18.91-7.31 12.65 32.72 18.91 2.92 5.16 39.78 22.97-59.34 34.25-1 4.93-54.17 31.27-2.92 5.15-34.73 20.05 7.31 12.65L43.4 324.4l5.93.05 54.17-31.27 4.77 1.6 94.04-54.28-78.24-45.19-5.93.05z"></path><path d="m42.65 274.17 5.93.05 66-38.1-20.62-11.91-55.69 32.15-2.92 5.15L.62 281.56l7.31 12.66 34.72-20.05zM129.2 148.87l-5.92.05-34.72-20.06-7.31 12.66 34.72 20.05 2.92 5.16 54.16 31.28 1 4.92 48.09 27.78 14.08-24.38-48.09-27.78-4.77 1.6-54.16-31.28zM117.53 115.27l56.3 32.52 1 4.93 90.14 52.06 14.08-24.39-90.14-52.06-4.77 1.6-56.3-32.52-5.92.05L87.2 77.41l-7.31 12.65 34.72 20.06 2.92 5.15zM162.77 90.73l54.17 31.29 1 4.92 94.03 54.31.01-90.36-3-5.1.01-37.8h-14.61l-.02 37.8-3 5.1-.01 45.94-59.33-34.27-4.77 1.6-54.16-31.28-5.93.04-34.72-20.05-7.3 12.66 34.72 20.05 2.91 5.15z"></path><path d="m205.9 64.97 66 38.12V79.27l-55.69-32.16-5.92.05-34.72-20.05-7.31 12.65 34.72 20.05 2.92 5.16z"></path></svg>