<svg id="Layer_1" data-name="Layer 1" xmlns="http://www.w3.org/2000/svg" viewBox="0 0 614.72 614.72">   <rect x="363.67" y="287.02" width="40.53" viewBox="0 0 40.53 40.53" height="40.53"></rect>   <path d="M281.25,155.65c-7.92,0-14.33,6.42-14.33,14.33s6.42,14.33,14.33,14.33,14.33-6.42,14.33-14.33-6.42-14.33-14.33-14.33Z"></path>   <path d="M127.31,155.65c-7.92,0-14.33,6.42-14.33,14.33s6.42,14.33,14.33,14.33,14.33-6.42,14.33-14.33-6.42-14.33-14.33-14.33Z"></path>   <rect x="209.73" y="287.02" width="40.53" height="40.53"></rect>   <rect x="209.73" y="199.5" width="40.53" height="40.53"></rect>   <rect x="363.67" y="199.5" width="40.53" height="40.53"></rect>   <path d="M307.36,0C137.61,0,0,137.61,0,307.36s137.61,307.36,307.36,307.36,307.36-137.61,307.36-307.36S477.11,0,307.36,0Zm228.97,335.5h-18.72v155.89h-31.32c-35.37,0-65.43-22.41-76.97-53.78-11.54,31.36-41.6,53.78-76.97,53.78s-65.43-22.41-76.97-53.78c-11.54,31.36-41.6,53.78-76.97,53.78-45.33,0-82.09-36.75-82.09-82.09v-30.26c-1.62,1.1-3.29,2.15-5.06,3.08-25,13.16-55.94,3.56-69.1-21.45l74.16-39.03v-122.15H48.64l48.86-37.71c5.35-25.73,28.27-45.22,55.53-45.22h0c31.19,0,56.7,25.52,56.7,56.71v20.7l41.71-32.19c5.35-25.73,28.27-45.22,55.53-45.22h0c31.19,0,56.7,25.52,56.7,56.71v20.7l41.71-32.19c5.35-25.73,28.27-45.22,55.52-45.22h0c31.19,0,56.71,25.52,56.71,56.71v111.06h69.88c0,28.26-22.91,51.16-51.16,51.16Z"></path>   <path d="M435.19,155.65c-7.92,0-14.33,6.42-14.33,14.33s6.42,14.33,14.33,14.33,14.33-6.42,14.33-14.33-6.42-14.33-14.33-14.33Z"></path>   <rect x="209.73" y="374.7" width="40.53" height="40.53"></rect>   <rect x="363.67" y="374.7" width="40.53" height="40.53"></rect> </svg>