<svg xmlns="http://www.w3.org/2000/svg" width="481.7" viewBox="0 0 481.7 616.6" height="616.6" xml:space="preserve"><path d="M177.1 362.8 305.4 486l175-183.2 1.3-108.8-176.3 182-128.3-123.2L55.9 381.2 0 328.2v110l55.9 53z"></path><path d="M177.1 378.2 55.9 506.6 0 453.6v110l55.9 53 121.2-128.4 128.3 123.2 175-183.2 1.3-108.8-176.3 182zM301 123.5l-55 57.7 57.3 55.8 55.1-57.7z"></path><path d="m177.1 237.1 128.4 123.2 175-183.3L298.2 0 0 312.5l55.9 53 121.2-128.4zm123.6-128.8 72.7 70.7-69.9 73.2-72.5-70.8 69.7-73.1z"></path></svg>