<svg data-name="Layer 1" xmlns="http://www.w3.org/2000/svg" viewBox="0 0 623.57 582.65"><path d="M531.64 0H365.58c-29.71 0-53.8 24.09-53.8 53.8 0-29.71-24.09-53.8-53.8-53.8H91.93C41.37 0 0 41.37 0 91.93v360.21c0 50.56 41.37 91.93 91.93 91.93h156.38c10.72 0 19.41 8.69 19.41 19.41v19.17h88.13v-19.17c0-10.72 8.69-19.41 19.41-19.41h156.38c50.56 0 91.93-41.37 91.93-91.93V91.93C623.57 41.37 582.2 0 531.64 0Zm20.39 447.73c0 10.68-8.74 19.41-19.41 19.41H366.84c-30.4 0-55.05 24.65-55.05 55.05 0-30.4-24.65-55.05-55.05-55.05H90.96c-10.68 0-19.41-8.74-19.41-19.41V96.35c0-10.68 8.74-19.41 19.41-19.41h155.97c10.68 0 19.41 8.74 19.41 19.41v29.53h90.88V96.35c0-10.68 8.74-19.41 19.41-19.41h155.98c10.68 0 19.41 8.74 19.41 19.41v351.38Z"></path><path d="m167.5 166.05 40.02 120.04h-71.79v70.61h166.82L239 166.05h-71.5z"></path><circle cx="123.87" cy="203.62" r="41.1" transform="rotate(-13.28 123.912 203.663)"></circle><path d="m355.39 166.05 40.01 120.04h-71.78v70.61h166.81l-63.55-190.65h-71.49z"></path><circle cx="311.75" cy="203.62" r="41.1" transform="rotate(-9.22 311.685 203.568)"></circle><circle cx="217.81" cy="409.41" r="41.1" transform="rotate(-45 217.813 409.409)"></circle><circle cx="405.7" cy="409.41" r="41.1" transform="rotate(-13.28 405.774 409.476)"></circle><circle cx="499.64" cy="203.62" r="41.1" transform="rotate(-13.28 499.734 203.663)"></circle></svg>