<svg xmlns="http://www.w3.org/2000/svg" width="616.4" viewBox="0 0 616.4 539.1" height="539.1" xml:space="preserve"><path d="m171.5 144.5 103.4-59.6 53 30.6V59.7L224.6 0 121.2 59.7V179l50.3 29.1zM395.9 144.5l103.4-59.6 53.1 30.6V59.7L449 0 345.6 59.7V179l50.3 29.1zM64.8 340.9l103.3-59.7 53.1 30.6V256l-103.4-59.6L14.4 256v119.4l50.4 29zM289.2 340.9l103.3-59.7 53.1 30.6V256l-103.4-59.6L238.9 256v119.4l50.3 29z"></path><path d="M567.5 55v139l-106.7 62.1v133.4l-113.2 65.7-110.4-64.1-111.6 64.7L0 383.3l49.7 84.6 123.1 71.2 112.6-65.3L397 538.6l112.6-65.5V337.3l106.8-61.5V134.6z"></path></svg>