<svg xmlns="http://www.w3.org/2000/svg" width="622.7" viewBox="0 0 622.7 603.6" height="603.6" style="enable-background:new 0 0 622.7 603.6" xml:space="preserve"><ellipse cx="404.7" cy="70.5" rx="69.6" ry="69.9"></ellipse><ellipse cx="217.3" cy="69.9" rx="70.5" ry="69.9"></ellipse><path d="M622.7 388.9v9.5c0 26-21 47-47 47H461.5v107.8c0 27.8-22.6 50.4-50.4 50.4h-6.9c-29.5 0-53.4-23.9-53.4-53.4V270.6h-78.2v283.8c0 27-22.1 49.2-49.2 49.2h-8.6c-29.7 0-53.7-24-53.7-53.7V270.6H52.2C23.4 270.6 0 247.3 0 218.4v-2.8c0-26.9 21.8-48.7 48.7-48.7H572c27.4 0 49.8 22.4 49.8 49.8v4.7c0 27.1-22.2 49.3-49.3 49.3h-111v69.5h112.4c27 0 48.8 21.8 48.8 48.7z"></path></svg>