<svg xmlns="http://www.w3.org/2000/svg" width="620.2" viewBox="0 0 620.2 620.2" height="620.2" xml:space="preserve" style="enable-background:new 0 0 620.2 620.2"><path d="m94.1 69.9 61.8 61.8c-3.3 2.9-6.5 5.9-9.7 9L84.4 78.9c-.9.9-1.9 1.8-2.8 2.7-.8.8-1.6 1.7-2.4 2.5L141 146c-3.1 3.2-6.1 6.4-9 9.7L70.2 93.8c-1.7 1.9-3.3 3.7-4.9 5.6l455.3 455.3c6.1-5.1 12.1-10.6 17.8-16.3 5.8-5.8 11.2-11.7 16.3-17.8L99.8 65c-1.9 1.6-3.8 3.3-5.7 4.9zM209.6 8.6l61.8 61.8c-4.9 1.2-9.7 2.6-14.5 4.1L195 12.8c-2.6.8-5.3 1.7-7.9 2.6L249 77.2c-4.6 1.6-9.1 3.3-13.6 5.1l-61.8-61.8c-2.5 1-4.9 2.1-7.4 3.1l430.2 430.2c7.3-16.6 13-33.8 16.9-51.4L218 6.6c-2.8.6-5.6 1.3-8.4 2zM146.1 33.5l61.8 61.8c-4 2.2-7.9 4.4-11.9 6.8l-61.8-61.8c-2.2 1.3-4.3 2.7-6.5 4.1l61.8 61.8c-3.7 2.4-7.5 4.9-11.1 7.6L116.6 52c-2 1.5-4.1 2.9-6.1 4.5l453 453c10.1-13.4 18.9-27.4 26.3-42L153 29.9l-6.9 3.6zM538.4 143.5c-13.9-13.9-28.9-26-44.7-36.4l-61.8-61.8c-8.2-5.4-16.6-10.2-25.1-14.6l61.8 61.8c-10.3-5.3-20.9-9.9-31.7-13.9l-61.8-61.8c-5.2-1.9-10.5-3.7-15.7-5.2L421 73.4c-7.9-2.3-15.8-4.3-23.8-6L335.4 5.6c-4.3-.9-8.5-1.6-12.8-2.3l294.3 294.3c-8.9-56.5-35.1-110.7-78.5-154.1zM619.4 320.2 300.5.7c-3.7-.3-7.4-.5-11.1-.6l61.8 61.8c-6.2-.2-12.5-.2-18.7-.1L270.6 0c-3.3.1-6.7.3-10 .5l61.8 61.8c-5.7.4-11.4.9-17 1.6L243.6 2.1c-3.1.4-6.1.8-9.2 1.3l382.2 382.2c3.5-21.6 4.4-43.6 2.8-65.4zM52.2 116.3l61.8 61.8c-2.6 3.6-5.1 7.4-7.6 11.1l-61.8-61.8c-1.4 2.1-2.7 4.3-4.1 6.5l61.8 61.8c-2.4 3.9-4.7 7.8-6.8 11.8l-61.8-61.8c-1.2 2.3-2.5 4.6-3.6 6.9L467.4 590c14.6-7.4 28.6-16.2 42-26.3L56.6 110.3c-1.5 2-3 4-4.4 6zM20.6 173.2 82.5 235c-1.8 4.5-3.5 9-5.1 13.5l-61.9-61.9c-.9 2.6-1.8 5.3-2.6 7.9l61.8 61.8c-1.5 4.8-2.9 9.6-4.2 14.5L8.7 209.1c-.7 2.8-1.4 5.6-2 8.5l395.8 395.8c17.5-3.9 34.7-9.6 51.4-16.9l-430-430.6c-1.2 2.3-2.2 4.8-3.3 7.3zM2.2 243.1 64 304.9c-.7 5.6-1.3 11.3-1.7 17L.5 260c-.2 3.3-.4 6.7-.5 10l61.8 61.8c-.2 6.2-.2 12.5 0 18.7L0 288.7c.1 3.7.3 7.4.6 11.1l319.6 319.6c21.8 1.6 43.8.7 65.5-2.8L3.5 233.9c-.5 3-.9 6.1-1.3 9.2zM5.4 334.6l61.8 61.8c1.7 8.4 3.8 16.7 6.2 24.9l-61.8-61.8c1.6 5.3 3.3 10.6 5.3 15.8l61.8 61.8c4.9 13.5 10.9 26.6 18 39.4l-61.8-61.8c5.6 10 11.8 19.8 18.7 29.3l61.9 61.9c8.4 11.4 17.7 22.3 28 32.6 43.4 43.4 97.7 69.6 154 78.4L3.1 321.8c.7 4.3 1.4 8.6 2.3 12.8z"></path></svg>