<svg xmlns="http://www.w3.org/2000/svg" width="620.7" viewBox="0 0 620.7 540.4" height="540.4"><path d="M156.1 178.9c4.6 0 9.3-1.6 13-5l21.4-19.2c8-7.2 8.7-19.5 1.5-27.6-7.2-8-19.5-8.7-27.6-1.5L143 144.8c-8 7.2-8.7 19.5-1.5 27.6 3.9 4.3 9.2 6.5 14.6 6.5zM147.9 229.3c3.9 4.3 9.2 6.5 14.6 6.5 4.6 0 9.3-1.6 13-5l83.4-74.7c8-7.2 8.7-19.5 1.5-27.6-7.2-8-19.5-8.7-27.6-1.5l-83.4 74.7c-8.1 7.2-8.7 19.6-1.5 27.6zM467 6.5c-7.2-8-19.5-8.7-27.6-1.5L6.5 392c-8 7.2-8.7 19.5-1.5 27.6 3.9 4.3 9.2 6.5 14.6 6.5 4.6 0 9.3-1.6 13-5l432.9-387c8-7.2 8.7-19.5 1.5-27.6zM467 68.7c-7.2-8-19.5-8.7-27.6-1.5L84.2 385.1c-8 7.2-8.7 19.5-1.5 27.6 3.9 4.3 9.2 6.5 14.6 6.5 4.6 0 9.3-1.6 13-5L465.5 96.3c8-7.2 8.7-19.5 1.5-27.6zM442.5 127.8l-81.2 71.7c-8.1 7.1-8.9 19.5-1.7 27.6 3.9 4.4 9.2 6.6 14.6 6.6 4.6 0 9.2-1.6 12.9-4.9l81.2-71.7c8.1-7.1 8.9-19.5 1.7-27.6-7.1-8-19.4-8.8-27.5-1.7zM355.9 293.5c3.9 4.3 9.2 6.5 14.6 6.5 4.6 0 9.3-1.6 13-5l157.8-140.9c8-7.2 8.7-19.5 1.6-27.6-7.2-8-19.5-8.7-27.6-1.6l-157.8 141c-8.1 7.2-8.8 19.6-1.6 27.6zM325.2 294.8l-166.6 149c-8 7.2-8.7 19.5-1.5 27.6 3.9 4.3 9.2 6.5 14.6 6.5 4.6 0 9.3-1.6 13-5l166.6-149c8-7.2 8.7-19.5 1.5-27.6-7.2-8-19.6-8.7-27.6-1.5zM615.7 123.7c-7.2-8-19.5-8.7-27.6-1.5L158.5 506.3c-8 7.2-8.7 19.5-1.5 27.6 3.9 4.3 9.2 6.5 14.6 6.5 4.6 0 9.3-1.6 13-5l429.6-384.2c8-7.2 8.7-19.5 1.5-27.5zM447.8 310.8l-84 73.9c-8.1 7.1-8.9 19.5-1.8 27.6 3.9 4.4 9.3 6.6 14.7 6.6 4.6 0 9.2-1.6 12.9-4.9l84-73.9c8.1-7.1 8.9-19.5 1.8-27.6-7.2-8-19.5-8.8-27.6-1.7zM447.4 372.2L435 383.4c-8 7.2-8.7 19.6-1.5 27.6 3.9 4.3 9.2 6.5 14.5 6.5 4.7 0 9.3-1.7 13.1-5l12.4-11.1c8-7.2 8.7-19.6 1.5-27.6-7.2-8.1-19.6-8.8-27.6-1.6z"></path></svg>