<svg xmlns="http://www.w3.org/2000/svg" width="383.1" viewBox="0 0 383.1 615.8" height="615.8" style="enable-background:new 0 0 383.1 615.8" xml:space="preserve"><path d="M191.5 231.1C86.1 231.1 0 318 0 423.5c0 108.3 85.6 192.3 191.1 192.3s192-86.9 192-192.4c0-105.4-86.1-192.3-191.6-192.3zm-1.2 335.5C110.9 566.6 49 502.9 49 423.5S111.6 281 191 281s143.1 62.4 143.1 141.8-64.4 143.8-143.8 143.8z"></path><path d="M95.8 423.6c0-21 17.5-38.9 38.7-38.9s38.7 18.1 38.7 39.1-17.8 38.7-39.1 38.7-38.3-17.9-38.3-38.9zM208.8 423.6c0-21 17.5-38.9 38.7-38.9 21.2 0 38.7 18.1 38.7 39.1s-17.8 38.7-39.1 38.7-38.3-17.9-38.3-38.9zM96.1 21.1l53.8 54.2c.5.5 1.5.4 1.8-.3L189 1.6c1.1-2.2 4.2-2.1 5.3.1l34.4 73.6c.3.7 1.2.9 1.8.3l54.9-53.3c2-1.9 5.2-.1 4.7 2.5L252.7 218c-.3 1.3-1.6 2.1-2.9 1.7-10.8-3.3-57.3-15.6-118.6 0-1.3.3-2.6-.5-2.8-1.8L92.1 23.2c-.4-2.3 2.4-3.7 4-2.1z"></path></svg>