<svg xmlns="http://www.w3.org/2000/svg" width="616.2" viewBox="0 0 616.2 614" height="614" xml:space="preserve" style="enable-background:new 0 0 616.2 614"><path d="M300.5 14.8c0-4.9-.1-9.9-.2-14.8-15 .3-29.7 1.8-44.1 4.2.1 3.5.1 7.1.1 10.6 0 172.5-95.8 323-236.8 401 5.2 14 11.5 27.6 18.7 40.6 41.9-22.8 80.9-51.8 115.6-86.6C248.4 275 300.5 149 300.5 14.8z"></path><path d="M238.6 16.6c0-3 0-5.9-.1-8.9-15.2 3.5-29.9 8.1-44.2 13.7-1.2 104.4-42.3 202.4-116.1 276.3-22.7 22.7-47.7 42.3-74.4 58.7 2.4 15.5 6 30.5 10.7 45.1 34.3-19.5 66.3-43.8 94.9-72.5 83.3-83.4 129.2-194.4 129.2-312.4z"></path><path d="M178.3 28.4C162.1 35.9 146.6 44.8 132 55c-8.8 74.9-42.2 144.3-96.3 198.5-11 11-22.6 21.1-34.8 30.4-.6 7.9-.9 16-.9 24.1 0 10 .5 19.8 1.4 29.6C24.8 322.7 46.8 305 67 284.9c68.7-69.1 108-159.6 111.3-256.5z"></path><path d="M114.2 68.4C55.9 115.7 15.1 183.9 3.5 261.7c7.3-6.1 14.3-12.6 21.1-19.4 47.8-47.9 78.7-108.4 89.6-173.9zM358.1 13.1c0-3.1.1-6.1.1-9.2C343.8 1.6 329 .2 314 0c-.1 4.4-.2 8.7-.2 13.1 0 134.1 52.1 260.2 146.8 355 35.3 35.3 74.9 64.8 117.6 87.8 7.1-13 13.3-26.6 18.6-40.6-142-77.8-238.7-228.9-238.7-402.2z"></path><path d="M534.5 294.2c-73.3-73.4-114.4-170.5-116.2-274.1-14.3-5.5-29-9.9-44.2-13.2 0 2.1-.1 4.1-.1 6.1 0 118 45.9 229 129.2 312.4 29.8 29.8 63 54.8 98.9 74.7 4.6-14.6 8.1-29.6 10.5-45-28.1-16.8-54.3-37.1-78.1-60.9z"></path><path d="M615.2 283.4c-12.8-9.6-25-20.2-36.5-31.7-54-54-87.3-123.2-96.3-197.9-14.6-10-30.1-18.8-46.3-26.3 3.6 96.5 42.8 186.8 111.3 255.4 20.6 20.7 43.2 38.7 67.4 53.8.9-9.5 1.4-19.2 1.4-28.9 0-8.2-.3-16.3-1-24.4z"></path><path d="M502.3 68.6c11.2 64.8 42 124.5 89.4 171.9 6.7 6.7 13.6 13.1 20.8 19.1-12.2-76.7-52.6-144.1-110.2-191z"></path><path d="M480.5 562.1c-.5.3-.9.6-1.4.9.5-.3.9-.6 1.4-.9z" style="fill:#0f0"></path><path d="M82.2 516.4c9.1 9.8 18.7 19 29 27.5.4.3.7.6 1.1 1 1.3 1.1 2.7 2.1 4.1 3.2 58.1-31.5 123.5-48.2 191.5-48.2s133.4 16.7 191.5 48.2c12.2-9.7 23.6-20.3 34.2-31.7-67.7-39.6-145-60.8-225.7-60.8-80.6 0-158 21.2-225.7 60.8zM485.6 558.7c-.1 0-.1-.1-.2-.1-1.6 1.2-3.2 2.3-4.9 3.5 1.7-1.2 3.4-2.2 5.1-3.4zM130.5 558.6l.1.1-.1-.1z"></path><path d="m130.5 558.6.1.1c14.8 10.3 30.5 19.3 47 26.9 40.8-16.8 84.8-25.6 130.3-25.6 45.5 0 89.7 8.8 130.5 25.6 11.6-5.3 22.7-11.4 33.5-18 2.4-1.5 4.9-3 7.2-4.6.5-.3.9-.6 1.4-.9 1.7-1.1 3.2-2.3 4.9-3.5-54.1-28-114.6-42.9-177.4-42.9-62.9 0-123.4 14.9-177.5 42.9z"></path><path d="M198.8 594.4c34 12.7 70.8 19.7 109.3 19.7 38.4 0 75.2-6.9 109.2-19.6-34.6-12.3-71.5-18.7-109.3-18.7-37.9-.1-74.7 6.3-109.2 18.6zM285.2 395.9c-85.8 3.7-167.8 28.7-239.7 72.2 7.9 12.8 16.6 24.9 26.2 36.4 63-37.5 135.8-60.4 213.5-64.2v-44.4zM329.3 395.8v44.3c78.3 3.6 151.5 26.6 215 64.3 9.6-11.4 18.3-23.6 26.2-36.3-72.5-43.8-154.9-68.8-241.2-72.3z"></path></svg>