<svg xmlns="http://www.w3.org/2000/svg" width="619.6" viewBox="0 0 619.6 421.2" height="421.2" xml:space="preserve" style="enable-background:new 0 0 619.6 421.2"><path d="M91.3 331.3c0 32.6 26.5 59.1 59.1 59.1s59.1-26.5 59.1-59.1-26.5-59.1-59.1-59.1-59.1 26.5-59.1 59.1zm98.6 0c0 21.7-17.7 39.4-39.4 39.4S111 353 111 331.3s17.7-39.4 39.4-39.4 39.5 17.6 39.5 39.4zM469.1 272.1c-32.6 0-59.1 26.5-59.1 59.1s26.5 59.1 59.1 59.1 59.1-26.5 59.1-59.1c.1-32.5-26.5-59.1-59.1-59.1zm0 98.6c-21.7 0-39.4-17.7-39.4-39.4s17.7-39.4 39.4-39.4 39.4 17.7 39.4 39.4c.1 21.7-17.6 39.4-39.4 39.4z"></path><path d="M619.1 330.5 481.3 41.1H320.1V0h-19.7v41.1H138.2L.4 330.6l-.4.7 2.9 5c30.5 52.4 87 85 147.6 85s117.1-32.6 147.6-85l2.9-5-.5-.8L172 60.8h275.5L319.1 330.6l-.4.7 2.9 5c30.5 52.4 87 85 147.6 85 60.5 0 117.1-32.6 147.6-85l2.9-5-.6-.8zm-341.2.8c-27.6 43.5-75.9 70.2-127.5 70.2s-99.9-26.8-127.5-70.2c27.6-43.5 75.9-70.2 127.5-70.2s100 26.7 127.5 70.2zm-25.6-56c-29.1-21.6-64.7-34-101.9-34s-72.9 12.3-101.9 34l101.9-214 101.9 214zm216.8-214 101.9 214c-29.1-21.6-64.7-34-101.9-34s-72.9 12.3-101.9 34l101.9-214zm0 340.2c-51.6 0-99.9-26.8-127.5-70.2 27.6-43.5 75.9-70.2 127.5-70.2s99.9 26.8 127.5 70.2c-27.5 43.4-75.9 70.2-127.5 70.2z"></path></svg>