<svg data-name="Layer 1" xmlns="http://www.w3.org/2000/svg" viewBox="0 0 610.34 610.34"><path d="M305.17 0C136.63 0 0 136.63 0 305.17s136.63 305.17 305.17 305.17 305.17-136.63 305.17-305.17S473.71 0 305.17 0Zm-11.68 425.54c0 59.8-48.48 108.28-108.28 108.28-59.8 0-108.28-48.48-108.28-108.28 0-59.8 48.48-108.28 108.28-108.28h108.28v108.28Zm0-132.47H185.21c-59.8 0-108.28-48.48-108.28-108.28S125.41 76.51 185.21 76.51c59.8 0 108.28 48.48 108.28 108.28v108.28Zm23.37-108.28c0-59.8 48.48-108.28 108.28-108.28s108.28 48.48 108.28 108.28-48.48 108.28-108.28 108.28H316.86V184.79Zm216.55 240.74c0 59.8-48.48 108.28-108.28 108.28s-108.28-48.48-108.28-108.28V317.25h108.28c59.8 0 108.28 48.48 108.28 108.28Z"></path><circle cx="370.39" cy="370.8" r="41.91"></circle><circle cx="370.8" cy="239.95" r="41.91" transform="rotate(-13.28 370.87 239.987)"></circle><circle cx="239.94" cy="239.53" r="41.91"></circle><circle cx="239.53" cy="370.39" r="41.91" transform="rotate(-45 239.532 370.393)"></circle></svg>