<svg id="Layer_1" data-name="Layer 1" xmlns="http://www.w3.org/2000/svg" viewBox="0 0 615.89 615.89">   <path d="M307.95,0C137.87,0,0,137.87,0,307.95s137.87,307.95,307.95,307.95,307.95-137.87,307.95-307.95S478.02,0,307.95,0Zm-10.64,449.97c0,34.62-28.32,62.94-62.94,62.94s-62.94-28.32-62.94-62.94V181.65c0-34.62,28.32-62.94,62.94-62.94,15.01,0,28.83,5.34,39.68,14.2-29.47,26.61-48.03,65.08-48.03,107.81,0,53.09,28.65,99.6,71.29,124.95v84.3Zm73.98-79.78c-71.5,0-129.46-57.96-129.46-129.46s57.96-129.46,129.46-129.46,129.46,57.96,129.46,129.46-57.96,129.46-129.46,129.46Z"></path> </svg>