<svg data-name="Layer 1" xmlns="http://www.w3.org/2000/svg" viewBox="0 0 626.18 444.29"><path d="M404.04 0 181.89 222.15 404.04 444.3l222.15-222.15L404.04 0ZM224.2 222.15 404.04 42.31l179.83 179.83-179.83 179.83L224.2 222.15Z"></path><path d="M385.72 0h-42.31L121.26 222.15l222.15 222.14h42.31L163.57 222.15 385.72 0z"></path><path d="M325.09 0h-42.31L60.63 222.15l222.15 222.14h42.31L102.94 222.15 325.09 0z"></path><path d="M264.46 0h-42.31L0 222.15l222.15 222.14h42.31L42.31 222.15 264.46 0zM479.84 146.34c-41.87-41.87-109.74-41.87-151.61 0-41.87 41.86-41.87 109.74 0 151.61 41.87 41.87 109.74 41.87 151.61 0 41.87-41.86 41.87-109.74 0-151.61Z"></path></svg>