<svg xmlns="http://www.w3.org/2000/svg" width="600" viewBox="0 0 600 450.8" height="450.8" xml:space="preserve" overflow="visible"><path d="M0 0h28.96v450.79H0zM51.62 0h28.96v450.79H51.62zM254.35.01v28.96L318.57.01z"></path><path d="M367.68.01 235.45 64.23V.01H206.5v107.03L425.6.01z"></path><path d="M479.74.01 183.83 143.56V.01h-28.95v187.62L542.71.01zM254.35 450.79h64.22l-64.22-28.96z"></path><path d="M206.5 450.79h28.96v-64.21l132.22 64.21h57.92L206.5 343.77z"></path><path d="M154.88 450.79h28.95V307.24l295.91 143.55h62.95L154.88 263.17z"></path><path d="M599.99 29.89V.91L132.22 225.4V.01h-28.97V450.8h28.97V225.4l467.77 224.49v-28.97L194.39 225.4z"></path><path d="M600 85.42V56.21L247.43 225.4 600 394.6v-29.21L309.6 225.4z"></path><path d="M600 141.87V112.4l-235.47 113L600 338.4v-29.47l-22.05-10.62V152.49L600 141.87zm-145.2 97.07-28.1-13.55 28.1-13.54v27.09zm47.85 23.07-20.39-9.83v-53.57l20.39-9.83v73.23zm47.84 23.06-20.39-9.83v-99.69l20.39-9.83v119.35z"></path></svg>