<svg data-name="Layer 1" xmlns="http://www.w3.org/2000/svg" viewBox="0 0 611.58 369.12"><path d="M458.68 63.33c-84.44-84.44-221.35-84.44-305.79 0L0 216.22l152.89 152.89 152.89-152.89 152.89 152.89 152.89-152.89L458.68 63.33Zm-54.71 248.35c-20.32-20.32-20.32-53.28 0-73.6 20.32-20.32 53.28-20.32 73.6 0 20.32 20.32 20.32 53.28 0 73.6-20.32 20.32-53.28 20.32-73.6 0Zm76.57-76.57c-20.32-20.32-20.32-53.28 0-73.6 20.32-20.32 53.28-20.32 73.6 0 20.32 20.32 20.32 53.28 0 73.6-20.32 20.32-53.28 20.32-73.6 0Z"></path></svg>