<svg xmlns="http://www.w3.org/2000/svg" width="528.2" viewBox="0 0 528.2 505.4" height="505.4"><path d="M47.5 128L0 53.3v452.1h47.5zM211.7 505V385.6L164.2 311v194.4h47.3z"></path><path d="M211.7 505.4v-.4l-.2.4z"></path><path d="M211.7 505.4v-.4l-.2.4zM129.6 256.8l-47.5-74.6v323.2h47.5zM387.2 505.4h53.6l87.4-167.9v-103zM299.4 505.4H353l175.2-336.6v-103zM475 505.4h53.2V403.3zM285.1 299.1l26.6-51L153.6 0h-59zM369.5 136.9l26.6-51L341.4 0h-59.1zM411.8 55.8L440.9 0h-64.7zM242.9 380.2l26.6-51.1L59.8 0H.7zM327.3 218l26.6-51L247.5 0h-59zM211.7 505v.4h53.4L528.2 0h-53.6z"></path></svg>