<svg xmlns="http://www.w3.org/2000/svg" width="622.7" viewBox="0 0 622.7 642" height="642" style="overflow:visible;enable-background:new 0 0 622.7 642" xml:space="preserve"><path d="M622.7 116.5V347L444.8 449.3c-14.3 8.3-31.5 8-45 .1v144.4l-22.5 13V449.4c0-12.4-10-22.5-22.5-22.5-12.4 0-22.5 10.1-22.5 22.5v183.4l-16 9.2-214.4-123.8V329.3c0-16.6 9.1-31.2 22.5-38.9L0 218.5v-25.9s144.3 83.3 144.9 83.7c3.2 1.7 6.8 2.7 10.7 2.7 23 0 31.2-30.7 11-42.1-.7-.7-153.8-88.8-166.6-96.2v-26L199.9 0c150.3 86.8 176.7 102 177.4 102.5a44.85 44.85 0 0 1 22.6 39l133-76.8 22.3 12.9-143.7 83c-20.4 11-12.5 42.2 10.7 42.2 10.8 0 .8 1.7 178-99.3l22.5 13zm-422.1 140c-1.4.8 16.9-9.7 165-95.3 15.7-8.6 15.7-31 0-39.5L199.7 25.9 22.5 127.8 177 217c14.1 7.6 23.6 22.5 23.6 39.5zm131.9 153.9-175-100.9c-14.5-8-33.2 2.5-33.2 19.8l.1 175.9L310 612.3V449.4c0-16.6 9-31.2 22.5-39zm44.8-230.1L178 295.4l199.3 115.1V180.3zm223-50.8s-155.7 89.8-156.6 90.3c-13.4 7.3-30 7.4-43.8-.6l-.1 191.3c0 16.6 17.5 27.4 32.2 20.3.6-.3 168.2-96.8 168.2-96.8V129.5z"></path></svg>