<svg data-name="Layer 1" xmlns="http://www.w3.org/2000/svg" viewBox="0 0 629.03 630.08"><path d="m221.36 465.82 262.18-151.37-262.18-151.37v302.74z"></path><path d="M629.03 339.67h-88.31l-369.8 213.5v-99.59H32.07c51.27 104.52 158.7 176.51 282.98 176.51 165.7 0 301.42-127.95 313.99-290.42ZM170.92 175.32V75.73l369.8 213.51h88.22C615.8 127.33 480.34 0 315.04 0 191.24 0 84.17 71.44 32.67 175.32h138.25ZM170.92 403.15v-177.4h-158C4.56 254.07 0 284.02 0 315.04s4.44 60.14 12.58 88.11h158.34Z"></path></svg>