<svg data-name="Layer 1" xmlns="http://www.w3.org/2000/svg" viewBox="0 0 619.52 619.52"><path d="m433.82 496.88-56.2-23.28-23.27 56.2h46.55l32.92-32.92zM350.95 537.99l-29.52 71.28 71.28-71.28h-41.76zM442.01 500.27l-29.52 29.53h100.8l-71.28-29.53zM468.24 474.04 448.29 494l68.13 28.22-48.18-48.18zM313.86 434.92l81.5-33.76-81.5-81.5v115.26zM313.86 299.87l81.51-81.51-81.51-33.76v115.27zM157.07 468.25l22.36 22.36 59.33-24.58-23.28-56.19-58.41 58.41zM494 448.29l-19.96 19.96 48.18 48.18L494 448.29zM313.86 529.8h31.62l24.57-59.33-56.19-23.28v82.61zM529.79 354.35l-56.19 23.28 23.28 56.19 32.91-32.91v-46.56zM185.7 122.65l56.2 23.28 23.27-56.2h-46.55l-32.92 32.92zM529.79 106.23l-29.52 71.28 29.52 29.53V106.23zM404.3 81.54h115.33C467.38 33.46 398.59 3.13 322.76 0l81.54 81.54ZM298.09 10.26l-71.28 71.28h41.76l29.52-71.28zM529.79 274.05l-59.33-24.58-23.27 56.19h82.6v-31.61zM313.86 172.34l56.19-23.28-24.57-59.33h-31.62v82.61zM529.79 218.62l-32.91-32.92-23.28 56.2 56.19 23.28v-46.56zM529.79 313.86h-82.6l23.27 56.2 59.33-24.58v-31.62zM529.79 412.49l-29.52 29.53 29.52 71.27v-100.8zM313.86 606.13l28.22-68.14h-28.22v68.14zM401.16 395.37l33.76-81.51H319.65l81.51 81.51zM462.45 151.28l-22.36-22.36-59.33 24.58 23.28 56.19 58.41-58.41zM320.47 178.47l74.56 30.88-21.84-52.72-52.72 21.84zM434.92 305.66l-33.76-81.5-81.5 81.5h115.26zM373.19 462.89l21.84-52.72-74.56 30.89 52.72 21.83zM537.99 392.71l71.28-71.28-71.28 29.52v41.76zM537.99 305.66h68.13l-68.13-28.22v28.22zM537.99 226.82v41.75l71.28 29.53-71.28-71.28zM462.45 468.25l-58.41-58.41-23.28 56.19 59.33 24.58 22.36-22.36zM442.01 119.25l71.29-29.52H412.49l29.52 29.52zM313.86 81.54h28.23L313.86 13.4v68.14zM468.25 145.49l48.18-48.19-68.14 28.23 19.96 19.96zM354.35 89.73l23.27 56.2 56.2-23.28-32.92-32.92h-46.55zM350.95 81.54h41.76l-71.28-71.28 29.52 71.28zM490.6 440.1l-24.57-59.34-56.2 23.28 58.42 58.41 22.35-22.35zM410.17 224.5l30.88 74.56 21.84-52.72-52.72-21.84zM522.23 103.09l-48.19 48.19L494 171.24l28.23-68.15zM410.17 395.03l52.72-21.84-21.84-52.72-30.88 74.56zM490.61 179.43l-22.36-22.36-58.42 58.42 56.2 23.27 24.58-59.33zM537.99 342.08l68.14-28.22h-68.14v28.22zM305.66 89.73h-31.62l-24.57 59.33 56.19 23.28V89.73zM305.66 184.6l-81.5 33.76 81.5 81.51V184.6zM215.22 81.54 296.76 0C220.93 3.13 152.14 33.46 99.89 81.54h115.33ZM305.66 319.66l-81.5 81.5 81.5 33.76V319.66zM305.66 13.4l-28.22 68.14h28.22V13.4zM81.53 313.86H13.4l68.13 28.22v-28.22zM299.05 441.06l-74.56-30.89 21.84 52.72 52.72-21.83zM268.57 537.99h-41.75l71.27 71.28-29.52-71.28zM265.17 529.8l-23.27-56.2-56.2 23.28 32.92 32.92h46.55zM305.66 537.99h-28.22l28.22 68.14v-68.14zM537.99 215.23l81.53 81.53c-3.13-75.83-33.46-144.61-81.53-196.86v115.34ZM537.99 404.29v115.33c48.07-52.25 78.4-121.03 81.53-196.86l-81.53 81.53ZM404.29 537.99l-81.53 81.53c75.83-3.13 144.61-33.46 196.86-81.53H404.29ZM177.51 500.27l-71.28 29.53h100.8l-29.52-29.53zM215.23 537.99H99.9c52.25 48.07 121.03 78.39 196.85 81.53l-81.53-81.53ZM81.53 99.9C33.46 152.15 3.13 220.93 0 296.76l81.53-81.53V99.9ZM81.53 226.82 10.25 298.1l71.28-29.53v-41.75zM81.53 277.44 13.4 305.66h68.13v-28.22zM81.53 392.71v-41.76l-71.28-29.52 71.28 71.28zM81.53 404.29 0 322.76c3.13 75.83 33.46 144.61 81.53 196.86V404.29ZM305.66 447.19l-56.19 23.28 24.57 59.33h31.62v-82.61zM177.51 119.25l29.52-29.52H106.22l71.29 29.52zM184.6 313.86l33.76 81.51 81.51-81.51H184.6zM179.43 128.92l-22.36 22.36 58.41 58.41 23.28-56.19-59.33-24.58zM246.33 156.63l-21.84 52.72 74.56-30.88-52.72-21.84zM184.6 305.66h115.26l-81.5-81.5-33.76 81.5zM128.92 440.1l22.35 22.35 58.42-58.41-56.2-23.28-24.57 59.34zM151.27 157.07l-22.35 22.36 24.57 59.33 56.2-23.27-58.42-58.42zM209.35 224.5l-52.72 21.84 21.84 52.72 30.88-74.56zM209.35 395.03l-30.88-74.56-21.84 52.72 52.72 21.84zM89.73 345.48l59.33 24.58 23.27-56.2h-82.6v31.62zM89.73 513.29l29.52-71.27-29.52-29.53v100.8zM89.73 400.91l32.91 32.91 23.28-56.19-56.19-23.28v46.56zM151.28 474.04l-48.18 48.18L171.23 494l-19.95-19.96zM125.52 448.29 97.3 516.43l48.18-48.18-19.96-19.96zM151.27 145.48l19.96-19.95-68.14-28.23 48.18 48.18zM89.73 207.03l29.52-29.52-29.52-71.28v100.8zM125.52 171.24l19.96-19.96-48.18-48.19 28.22 68.15zM89.73 265.18l56.19-23.28-23.28-56.2-32.91 32.92v46.56zM89.73 305.66h82.6l-23.27-56.19-59.33 24.58v31.61z"></path></svg>