<svg xmlns="http://www.w3.org/2000/svg" id="Layer_1" viewBox="0 0 642 642"><defs></defs><path d="M321 65.81c-37.04 0-67.15 30.11-67.15 67.15 0 18.55 7.51 35.31 19.71 47.44l23.24-23.24a33.991 33.991 0 0 1-10.08-24.2c0-18.87 15.41-34.28 34.28-34.28s34.28 15.41 34.28 34.28c0 9.44-3.85 18.04-10.08 24.2l23.24 23.24c12.2-12.13 19.71-28.89 19.71-47.44 0-37.04-30.11-67.15-67.15-67.15ZM132.96 286.72c9.44 0 18.04 3.85 24.2 10.08l23.24-23.24c-12.13-12.2-28.89-19.71-47.44-19.71-37.04 0-67.15 30.11-67.15 67.15s30.11 67.15 67.15 67.15c18.55 0 35.31-7.51 47.44-19.71l-23.24-23.24a33.991 33.991 0 0 1-24.2 10.08c-18.87 0-34.28-15.41-34.28-34.28s15.41-34.28 34.28-34.28ZM345.2 484.84a33.991 33.991 0 0 1 10.08 24.2c0 18.87-15.41 34.28-34.28 34.28s-34.28-15.41-34.28-34.28c0-9.44 3.85-18.04 10.08-24.2l-23.24-23.24c-12.2 12.13-19.71 28.89-19.71 47.44 0 37.04 30.11 67.15 67.15 67.15s67.15-30.11 67.15-67.15c0-18.55-7.51-35.31-19.71-47.44l-23.24 23.24Z" class="cls-1"></path><path d="M509.04 188.04c-34.99 0-66.68 13.63-90.43 35.73l-.39-.39c22.1-23.75 35.73-55.44 35.73-90.43C453.96 59.51 394.44 0 321 0S188.04 59.51 188.04 132.96c0 34.99 13.63 66.68 35.73 90.43l-.39.39c-23.75-22.1-55.44-35.73-90.43-35.73C59.51 188.04 0 247.56 0 321s59.51 132.96 132.96 132.96c34.99 0 66.68-13.63 90.43-35.73l.39.39c-22.11 23.75-35.73 55.44-35.73 90.43 0 73.44 59.51 132.96 132.96 132.96s132.96-59.51 132.96-132.96c0-34.99-13.63-66.68-35.73-90.43l.39-.39c23.75 22.11 55.44 35.73 90.43 35.73 73.44 0 132.96-59.51 132.96-132.96s-59.51-132.96-132.96-132.96Zm0 233.05c-27.54 0-52.58-11.24-70.75-29.34l-46.55 46.55c18.1 18.17 29.34 43.21 29.34 70.75 0 55.15-44.94 100.09-100.09 100.09S220.9 564.2 220.9 509.05c0-27.54 11.24-52.58 29.34-70.75l-46.55-46.55c-18.17 18.1-43.21 29.34-70.75 29.34-55.15 0-100.09-44.94-100.09-100.09s44.94-100.09 100.09-100.09c27.54 0 52.58 11.24 70.75 29.34l46.55-46.55c-18.1-18.17-29.34-43.21-29.34-70.75 0-55.15 44.94-100.09 100.09-100.09S421.08 77.8 421.08 132.95c0 27.54-11.24 52.58-29.34 70.75l46.55 46.55c18.17-18.1 43.21-29.34 70.75-29.34 55.15 0 100.09 44.94 100.09 100.09s-44.94 100.09-100.09 100.09Z" class="cls-1"></path><path d="M509.04 253.85c-18.55 0-35.31 7.51-47.44 19.71l23.24 23.24a33.991 33.991 0 0 1 24.2-10.08c18.87 0 34.28 15.41 34.28 34.28s-15.41 34.28-34.28 34.28c-9.44 0-18.04-3.85-24.2-10.08l-23.24 23.24c12.13 12.2 28.89 19.71 47.44 19.71 37.04 0 67.15-30.11 67.15-67.15s-30.11-67.15-67.15-67.15Z" class="cls-1"></path></svg>