<svg xmlns="http://www.w3.org/2000/svg" width="610.9" viewBox="0 0 610.9 627.8" height="627.8" xml:space="preserve"><path d="M502.4 0H108.6C48.7 0 0 48.7 0 108.6V366c.1 59.8 48.7 108.4 108.6 108.4h32v-82.3h-32c-14.2 0-26.3-12-26.3-26.3V108.5c0-14.2 12.1-26.2 26.3-26.2h393.8c14.2 0 26.3 12 26.3 26.3v410.7c0 14.2-12 26.3-26.3 26.3H257.5c-14.2 0-26.3-12-26.3-26.3V299.8c-49.5 0-82.3 40.3-82.3 88.8v130.7c0 59.9 48.7 108.6 108.6 108.6h244.9c59.9 0 108.6-48.7 108.6-108.6V108.6C610.9 48.7 562.2 0 502.4 0z"></path><path d="M370.9 300h-42.2v79.1h42.2c73 0 132.4-59.4 132.4-132.4s-59.4-132.4-132.4-132.4-132.4 59.4-132.4 132.4v227.7c47.8 0 82.3-47.6 82.3-96.2V246.7c0-27.7 22.5-50.1 50.1-50.1 27.7 0 50.1 22.5 50.1 50.1.1 33.3-22.4 53.3-50.1 53.3z"></path></svg>