<svg xmlns="http://www.w3.org/2000/svg" width="435.3" viewBox="0 0 435.3 603.3" height="603.3" xml:space="preserve"><path d="M160.2 348.1H76.5c-9.6 0-17.9-5.3-22.3-14.1-1.7-3.4-6.4-15.3 2.4-26.9L223.3 85.6V0L15.7 276.1C-2.1 299.4-5 330.4 8.1 356.8c13 26.3 39.2 42.7 68.4 42.7h83.7v186.6l51.4-68.4V203.8h-51.4v144.3zM427.2 246.5c-13-26.3-39.2-42.7-68.4-42.7h-83.7V17.3l-51.4 68.4v313.8h51.4V255.3h83.7c9.6 0 17.9 5.3 22.3 14.1 1.7 3.4 6.4 15.3-2.4 26.9L212 517.8v85.6l207.6-276.1c17.8-23.4 20.7-54.3 7.6-80.8"></path></svg>