<svg data-name="Layer 1" xmlns="http://www.w3.org/2000/svg" viewBox="0 0 614.86 614.76"><path d="M265.75 245.37c-34.39 22.82-43.77 69.15-20.95 103.54 22.82 34.39 69.15 43.77 103.54 20.95 34.39-22.82 43.77-69.15 20.95-103.54-22.82-34.39-69.15-43.77-103.54-20.95ZM528.63 470.06l.1-.05c-5.73-8.65-9.33-18.08-10.99-27.67l-201.08 3.34c-.52 0-.83.63-.57 1.04l84.41 127.3c1.04 1.56 3.13 1.98 4.69.94L537.8 487c1.77-1.2 2.03-3.7.52-5.21-3.54-3.49-6.83-7.4-9.69-11.73ZM333.38 179.51l-.05-.05 88.27 133.08c.36.57 1.25.31 1.25-.37l-3.49-212.08c0-1.62-1.2-2.97-2.81-3.28-18.34-3.54-35.28-14.12-46.38-30.9-10.99-16.57-21.16-31.94-21.16-31.94h-.16c-.73-1.25-1.46-2.45-2.24-3.65-20.68-31.21-62.73-39.7-93.94-19.01l-18.6 12.35c-1.56 1.04-1.98 3.13-.94 4.69l100.25 151.16ZM603.56 252.67v-.05l-12.35-18.65c-1.04-1.56-3.13-1.98-4.69-.94L435.36 333.28l-133.08 88.27c-.57.36-.31 1.25.37 1.25l212.02-2.97c1.62 0 2.97-1.2 3.28-2.82 3.44-18.5 14.07-35.64 31-46.84 16.57-10.99 31.94-21.16 31.94-21.16v-.16c1.25-.73 2.45-1.46 3.65-2.24 31.21-20.69 39.71-62.74 19.02-93.95ZM446.25 299.04v-.05l127.77-84.73c1.56-1.04 1.98-3.13.94-4.69L487 76.96c-1.2-1.77-3.7-2.03-5.21-.52-3.49 3.54-7.4 6.83-11.72 9.69-7.97 5.26-16.57 8.75-25.38 10.53-1.62.31-2.81 1.72-2.76 3.39l3.28 198.42c0 .52.63.83 1.04.57ZM281.43 435.25l.1.05-12.14-18.29-76.18-114.79c-.37-.57-1.25-.31-1.25.37l3.49 212.08c0 1.61 1.2 2.97 2.81 3.28 18.34 3.54 35.28 14.12 46.38 30.9 10.99 16.57 21.16 31.94 21.16 31.94h.16c.73 1.25 1.46 2.45 2.24 3.65 20.69 31.16 62.63 39.71 93.85 19.07l18.71-12.4c1.56-1.04 1.98-3.13.94-4.69L281.45 435.26ZM168.62 315.72v.05L40.85 400.5c-1.56 1.04-1.98 3.13-.94 4.69l87.96 132.61c1.2 1.77 3.7 2.03 5.21.52 3.49-3.54 7.4-6.82 11.72-9.69 8.81-5.84 18.39-9.48 28.19-11.04l-3.34-201.29c0-.52-.63-.83-1.04-.57ZM86.13 144.7v.05c5.84 8.81 9.48 18.39 11.05 28.19l201.29-3.34c.52 0 .83-.63.57-1.04L214.26 40.75c-1.04-1.56-3.13-1.98-4.69-.94L76.96 127.77c-1.77 1.2-2.03 3.75-.52 5.21 3.54 3.49 6.83 7.4 9.69 11.72ZM312.59 193.16v.05c.57-.37.31-1.25-.36-1.25l-212.13 3.49c-1.62 0-2.97 1.2-3.28 2.82-3.54 18.29-14.12 35.22-30.9 46.38-16.57 10.99-31.94 21.15-31.94 21.15v.16c-1.25.73-2.45 1.46-3.65 2.24-31.21 20.69-39.71 62.74-19.02 93.95l12.35 18.6c1.04 1.56 3.13 1.98 4.69.94l151.16-100.25 18.76-12.45 114.32-75.82Z"></path></svg>