<svg data-name="Layer 1" xmlns="http://www.w3.org/2000/svg" viewBox="0 0 609.26 615.89"><path d="M307.95 535.12c-112.43 0-205.72-81.69-223.91-188.94h45.82c17.57 82.23 90.61 143.9 178.09 143.9 75.95 0 141.01-46.5 168.35-112.56h-94.11c-18.58 19.82-44.93 32.27-74.24 32.27-42.72 0-79.23-26.32-94.36-63.61h272.36c2.65-12.34 4.14-25.11 4.14-38.24 0-100.59-81.55-182.14-182.14-182.14-87.47 0-160.51 61.67-178.09 143.9H84.04C102.23 162.45 195.52 80.76 307.95 80.76c103.34 0 190.5 69.02 218.05 163.47h83.26C579.9 104.74 456.17 0 307.95 0 137.87 0 0 137.87 0 307.95S137.87 615.9 307.95 615.9c146.13 0 268.4-101.82 299.96-238.37h-83.68c-29.39 91.42-115.09 157.6-216.28 157.6Zm0-329.03c42.72 0 79.24 26.32 94.36 63.61H213.58c15.13-37.29 51.65-63.61 94.36-63.61Z"></path></svg>