<svg data-name="Layer 1" xmlns="http://www.w3.org/2000/svg" viewBox="0 0 577.25 612.1"><path d="M520.11 355.24c9.38-5.66 18.04-12.66 25.7-20.92 21.42-23.11 32.55-53.18 31.35-84.66-1.17-30.69-14.01-59.31-36.15-80.58-22.09-21.21-51.09-32.9-81.66-32.9-1.51 0-3.03.03-4.54.09-19.42.74-37.57 6.16-53.42 15.13-5.82-19-16.37-36.32-31.04-50.4-22.09-21.21-51.09-32.9-81.66-32.9-1.51 0-3.03.03-4.54.09-19.08.73-37.28 5.95-53.44 15.08-5.82-18.98-16.37-36.28-31.02-50.36C177.6 11.68 148.6 0 118.02 0c-1.5 0-3.03.03-4.54.09C48.48 2.56-2.39 57.45.09 122.45c1.17 30.69 14.01 59.31 36.15 80.58 7.56 7.26 15.95 13.38 24.92 18.32C27.72 242.2 5.42 279.3 5.42 321.52v172.62c0 65.04 52.92 117.96 117.96 117.96 32.83 0 62.57-13.48 83.98-35.2 21.41 21.72 51.14 35.2 83.98 35.2s62.57-13.48 83.98-35.2c21.41 21.72 51.15 35.2 83.98 35.2 65.04 0 117.96-52.92 117.96-117.96v-37.87c0-42.81-22.92-80.36-57.14-101.03Zm-64.02-185.02c46.35-1.76 85.34 34.38 87.11 80.72 1.76 46.35-34.38 85.34-80.72 87.11-46.35 1.76-85.34-34.38-87.11-80.72-1.76-46.35 34.38-85.34 80.72-87.11Zm87.17 323.92c0 46.19-37.79 83.98-83.98 83.98-46.19 0-83.98-37.79-83.98-83.98 0 46.19-37.79 83.98-83.98 83.98-44.62 0-81.39-35.26-83.85-79.29-.01-.2-.25-.2-.26 0-2.45 44.03-39.23 79.29-83.85 79.29-46.19 0-83.98-37.79-83.98-83.98V321.52c0-46.19 37.79-83.98 83.98-83.98 46.19 0 83.98 37.79 83.98 83.98v67.04c0-46.19 37.79-83.98 83.98-83.98 46.19 0 83.98 37.79 83.98 83.98v67.71c0-46.19 37.79-83.98 83.98-83.98 46.19 0 83.98 37.79 83.98 83.98v37.87Z"></path></svg>