<svg xmlns="http://www.w3.org/2000/svg" width="605.4" viewBox="0 0 605.4 326.3" height="326.3"><path d="M168.2 252.6v73.7H44.3c-30.2 0-56.1-26.1-38.8-58.9C23.3 233.9 130.1 44.3 141.2 26 152.3 7.7 157.3.5 176.9 0c19.7-.6 28 9.7 37.6 27.4 9.7 17.7 86.9 152.2 86.9 152.2S384.2 33.5 390 23.5c5.8-10 13.8-23.5 34.9-23.5 21 0 31.3 15.2 35.7 23 4.4 7.8 134.8 236.1 140.3 245.5 5.5 9.4 7.5 28.8-3.9 42.9-11.3 14.1-27.1 15.2-43.2 14.9-16.1-.3-119.2 0-119.2 0v-73.7H509l-83.6-145.4-83 145.4h73.8v73.7H186.7v-73.7H260l-82.5-145.4-83 145.4h73.7"></path></svg>