<svg width="642" viewBox="0 0 642 523" height="523" xmlns="http://www.w3.org/2000/svg"><path d="M547.754 462.532c-45.26 37.685-103.49 60.348-166.984 60.348H202.872v-60.348h344.882ZM304.95.439v152.713H173.918c-1.348 0-2.632-.899-3.018-2.183l-17.462-52.451c-.963-2.954-5.072-2.954-6.035 0l-17.462 52.451c-.385 1.284-1.67 2.183-3.018 2.183H75.371c-3.082 0-4.366 3.916-1.862 5.778l41.28 30.623c1.092.835 1.541 2.311 1.156 3.595l-18.168 54.57c-.963 2.954 2.44 5.457 4.943 3.596l45.775-33.962a3.276 3.276 0 0 1 3.852 0l45.71 33.962c2.504 1.861 5.906-.642 4.943-3.596l-18.168-54.634c-.385-1.284.064-2.76 1.155-3.595l5.714-4.237H304.95l101.95.025v152.745l-236.128.026v184.819H0V.439h304.95Zm313.489 369.709c-10.016 21.892-22.92 42.18-38.328 60.284H202.872v-60.284h415.567Zm23.047-92.448a256.233 256.233 0 0 1-10.85 60.348H439V277.7h202.486Zm-10.85-92.448a256.233 256.233 0 0 1 10.85 60.348H439v-60.348h191.637Zm-50.525-92.384c15.408 18.104 28.312 38.392 38.328 60.284H337.05V92.868h243.061ZM380.771.42c63.493 0 121.722 22.663 166.983 60.348H337.05V.42h43.72Z"></path></svg>