<svg xmlns="http://www.w3.org/2000/svg" width="642" viewBox="0 0 642 606.7" height="606.7" style="overflow:visible;enable-background:new 0 0 642 606.7" xml:space="preserve"><path d="M139.4 123.6H91.5L134 0h47.6zM574.6 414.1c0 69-56.2 125.2-125.2 125.2-45.7 0-85.8-24.7-107.7-61.4-7.3-12.3-12.6-26-15.3-40.5 10.3-81-52.1-154.5-134.1-158l51.4-36c78.1 25.4 134.4 101.1 128.1 191.1 9 34.3 40.4 59.8 77.6 59.8 44.2 0 80.3-36 80.3-80.2s-36-80.2-80.3-80.2h-93.7L342.4 289h107c69-.1 125.2 56.1 125.2 125.1zM256.8 0l-41.5 123.6h-52.5L205.4 0zM327.7 239.4 314.3 194l100.5-70.4H293.4l-15-50.6H548zM540.3 50.5H271.8L256.8 0h266.1z"></path><path d="M186.2 301.7c-13.9 0-27.2 2.4-39.5 6.7l41.1-119.3-38.5-26.2C75.9 381.8 67.4 386.4 67.4 420.5c0 65.5 53.3 118.8 118.8 118.8S305 486 305 420.5s-53.3-118.8-118.8-118.8zm0 192.6c-40.7 0-73.8-33.1-73.8-73.8 0-40.7 33.1-73.8 73.8-73.8s73.8 33.1 73.8 73.8c0 40.7-33.1 73.8-73.8 73.8z"></path><path d="M642 414.1c0 106.4-86.2 192.6-192.6 192.6-51.6 0-98.4-20.2-132.9-53.2-33.6 32.9-79.5 53.2-130.3 53.2C83.3 606.7 0 523.4 0 420.5c0-21.3 3.6-41.6 10.1-60.6l81.3-236.3 38.5 26.3-77.3 224.8c-31.5 90.4 36 187.1 133.5 187.1 57.9 0 107.8-35.1 129.6-85 23.3 49.9 74.7 85 133.7 85 81.4 0 147.7-66.3 147.7-147.7s-66.3-147.7-147.7-147.7H335.7l-.4-1.6L555.8 95.4l15.4 44.9-106.6 81.8c99.3 7.7 177.4 90.7 177.4 192z"></path></svg>