<svg data-name="Layer 1" xmlns="http://www.w3.org/2000/svg" viewBox="0 0 620.5 620.46"><path d="M309.68 188.07v117.27h121.89c-2.57-65.18-56.08-117.27-121.89-117.27ZM309.68 432.34c65.67 0 119.08-51.86 121.87-116.84H309.68v116.84ZM325.4 173.51V0h-30.25v173.51c4.97-.54 10.01-.87 15.13-.87s10.15.33 15.13.87ZM405.24 14.51l-29.22-7.84-44.98 167.7c10.15 1.54 19.94 4.15 29.23 7.78l44.97-167.64ZM391.72 199.52 478.6 49.21l-26.19-15.14-86.83 150.23c9.32 4.1 18.04 9.25 26.14 15.23ZM417.66 224.35l122.81-122.63-21.38-21.41-122.8 122.63c7.89 6.33 15.05 13.51 21.37 21.41ZM436.27 255.08l150.35-86.61-15.1-26.21-150.44 86.66c5.96 8.11 11.11 16.84 15.19 26.16ZM446.14 289.64l167.77-44.73-7.79-29.23-167.71 44.72c3.62 9.3 6.21 19.09 7.74 29.25ZM447 295.28c.53 4.91.84 9.88.84 14.93s-.34 10.29-.9 15.33l173.52.25.04-30.25-173.5-.25ZM438.26 360.41l167.58 45.21 7.88-29.21-167.64-45.22c-1.56 10.15-4.17 19.93-7.82 29.22ZM420.84 391.82l150.19 87.1 15.18-26.17-150.11-87.06c-4.11 9.31-9.28 18.03-15.26 26.12ZM395.97 417.72l122.46 122.99 21.44-21.34-122.44-122.98a138.232 138.232 0 0 1-21.45 21.33ZM365.22 436.3l86.39 150.47 26.24-15.06-86.44-150.57c-8.12 5.95-16.85 11.09-26.18 15.16ZM330.65 446.11l44.49 167.83 29.24-7.75-44.48-167.78c-9.31 3.61-19.1 6.19-29.26 7.7ZM294.75 446.85l-.51 173.53 30.25.09.51-173.49c-4.84.52-9.75.81-14.73.81-5.26 0-10.42-.36-15.52-.93ZM214.44 605.63l29.2 7.92 45.47-167.57c-10.15-1.57-19.93-4.2-29.21-7.86l-45.45 167.5ZM228.5 420.66l-87.32 150.06 26.15 15.22 87.28-149.99c-9.31-4.13-18.02-9.3-26.1-15.29ZM202.64 395.75 79.47 518.03l21.31 21.47 123.15-122.26c-7.87-6.36-14.99-13.58-21.29-21.49ZM184.1 364.98 33.51 451.14l15.02 26.26 150.69-86.22c-5.93-8.13-11.06-16.86-15.13-26.2ZM174.34 330.39 6.45 374.63l7.71 29.25 167.85-44.23c-3.59-9.31-6.17-19.1-7.66-29.27ZM172.7 310.21c0-5.33.37-10.56.96-15.72L.13 293.72 0 323.97l173.48.76c-.5-4.78-.78-9.62-.78-14.53ZM182.42 259.64l-167.43-45.7-7.96 29.19 167.5 45.71c1.59-10.14 4.22-19.92 7.9-29.2ZM199.95 228.28 50.01 140.73l-15.25 26.13 149.87 87.5c4.14-9.3 9.32-18.01 15.33-26.08ZM224.9 202.46 102.8 79.1l-21.5 21.28 122.07 123.33c6.37-7.86 13.61-14.96 21.53-21.25ZM255.69 183.95 169.75 33.24l-26.28 14.99 86 150.81c8.13-5.92 16.87-11.05 26.22-15.09ZM217.03 13.96l43.99 167.92c9.32-3.58 19.11-6.14 29.27-7.63L246.3 6.29l-29.27 7.67Z"></path></svg>