<svg data-name="Layer 1" xmlns="http://www.w3.org/2000/svg" viewBox="0 0 620.62 620.61"><path d="M611.45 611.44h-262.7v9.17h271.87V341.17h-9.17v270.27zM9.17 341.17H0v279.44h271.88v-9.17H9.17V341.17zM348.75 0v9.16h262.7v262.71h9.17V0H348.75zM9.17 9.16h262.71V0H0v271.87h9.17V9.16z"></path><path d="M523.12 271.87h9.16V88.33H348.75v9.16h174.37v174.38zM97.5 271.87V97.49h174.38v-9.16H88.33v183.54h9.17zM523.12 523.11H348.75v9.17h183.53V341.17h-9.16v181.94zM97.5 341.17h-9.17v191.11h183.55v-9.17H97.5V341.17z"></path><path d="M348.75 443.94h95.2V176.67h-95.2v86.04h-76.87v-86.04h-95.2v267.27h95.2v-93.62h76.87v93.62Zm-86.04-102.78v93.61h-76.87V185.83h76.87v86.04h95.2v-86.04h76.87v248.95h-76.87v-93.61h-95.2Z"></path></svg>