<svg data-name="Layer 1" xmlns="http://www.w3.org/2000/svg" viewBox="0 0 594.87 616.79"><path d="M505.66 0c-48.2 0-87.59 38.42-89.16 86.24H178.37C176.8 38.42 137.41 0 89.21 0S0 40.02 0 89.21v438.37c0 49.19 40.02 89.21 89.21 89.21s87.59-38.43 89.16-86.24H416.5c1.57 47.82 40.96 86.24 89.16 86.24s89.21-40.02 89.21-89.21V89.21C594.87 40.02 554.85 0 505.66 0Zm60.35 527.58c0 33.27-27.07 60.35-60.35 60.35s-60.35-27.07-60.35-60.35v-25.9H149.56v25.9c0 33.27-27.07 60.35-60.35 60.35s-60.35-27.07-60.35-60.35V89.21c0-33.28 27.07-60.35 60.35-60.35s60.35 27.07 60.35 60.35v25.89h295.75V89.21c0-33.28 27.07-60.35 60.35-60.35s60.35 27.07 60.35 60.35v438.37Z"></path><circle cx="297.44" cy="308.4" r="160.27" transform="rotate(-45 297.44165376 308.395633)"></circle></svg>