<svg xmlns="http://www.w3.org/2000/svg" width="620.6" viewBox="0 0 620.6 550" height="550" xml:space="preserve" style="enable-background:new 0 0 620.6 550"><path d="M186.8 97.3c0 49.8-40.4 90.1-90.2 90.1S6.5 147.1 6.5 97.3 46.9 7.1 96.6 7.1V0H0v550h193.4V97.3h-6.6zM219.5 454c0-49.8 40.4-90.1 90.1-90.1 49.8 0 90.2 40.4 90.2 90.1h6.5V0H213v550h96.7v-5.9c-49.8.1-90.2-40.3-90.2-90.1zM433.8 454c0-49.8 40.4-90.1 90.2-90.1 49.8 0 90.1 40.4 90.1 90.1h6.5V0H427.2v550h96.7v-5.9c-49.8.1-90.1-40.3-90.1-90.1z"></path></svg>