<svg data-name="Layer 1" xmlns="http://www.w3.org/2000/svg" viewBox="0 0 420.66 529.48"><path d="M417.57 312.43h-56.04c-1.53 0-2.78 1.21-2.87 2.74-4.14 73.45-38.14 130.67-110.17 149.93-2.95.79-5.87-1.37-6.04-4.42-3.35-57.99-9.5-247.37 2.36-293.97.84-3.31 3.65-5.77 7.05-6.05 38.41-3.19 74.48-1.92 108.68 2.62 2.19.29 3.76-1.25 3.57-3.46-1.38-16.19-.22-36.15 2.07-51.81.3-2.04-1.48-3.79-3.51-3.44-19.6 3.35-62.32 3.07-77.69 2.85-2.7-.04-4.49-2.76-3.5-5.27 3.12-7.97 5.5-16.54 5.5-25.48 0-.99-.03-1.98-.06-2.97C285.35 32.72 251.68 0 210.33 0s-75.02 32.72-76.6 73.68c-.03.99-.06 1.98-.06 2.97 0 8.94 2.38 17.51 5.5 25.48.98 2.51-.81 5.23-3.5 5.27-15.37.22-58.09.5-77.69-2.85-2.03-.35-3.81 1.4-3.51 3.44 2.3 15.66 3.46 35.62 2.07 51.81-.19 2.2 1.38 3.75 3.57 3.46 34.2-4.54 70.27-5.81 108.68-2.62 3.4.28 6.21 2.74 7.06 6.05 11.87 46.6 5.71 235.98 2.36 293.97-.18 3.05-3.09 5.21-6.04 4.42C100.14 445.82 66.13 388.61 62 315.15c-.09-1.53-1.34-2.74-2.87-2.74H3.09c-1.8 0-3.23 1.54-3.08 3.33 10.01 119.88 100.36 213.72 210.32 213.72s200.31-93.84 210.32-213.72c.15-1.79-1.28-3.33-3.08-3.33ZM228.18 101.09h-.03c-4.99 3.7-11.14 5.89-17.82 5.89s-12.83-2.19-17.82-5.89h-.03c-7.35-5.45-12.1-14.2-12.1-24.06 0-6.68 2.16-12.83 5.83-17.79h.03c5.42-7.38 14.2-12.16 24.08-12.16s18.66 4.78 24.08 12.16h.03c3.67 4.96 5.83 11.11 5.83 17.79 0 9.86-4.75 18.6-12.1 24.06Z"></path></svg>