<svg xmlns="http://www.w3.org/2000/svg" width="618.3" viewBox="0 0 618.3 617.4" height="617.4" xml:space="preserve"><path d="M309.2 0C138.7 0 0 138.5 0 308.7s138.7 308.7 309.2 308.7c170.4 0 309.1-138.5 309.1-308.7S479.6 0 309.2 0zM335 557.1l-.2-327.9 80 141.3h-65.5l-.9 56.4h164.3L349.4 136.6l-72 124v295.6C154.4 540.5 59 435.6 59 308.7 59 171 171.2 59 309.2 59c137.9 0 250.1 112 250.1 249.7 0 129-98.5 235.4-224.3 248.4z" class="st0"></path><path class="st0" d="M101.7 425.7h64.1l174.6-301.6-30.2-54.3z"></path></svg>