<svg data-name="Layer 1" xmlns="http://www.w3.org/2000/svg" viewBox="0 0 491.89 605.8"><path d="M116.5 411.64h14.71v-35.89h27.65v-33.54H116.5v69.43zM32.36 411.64h14.71v-35.89h27.66v-33.54H32.36v69.43zM116.5 541.08h14.71v-35.89h27.65v-33.54H116.5v69.43zM32.36 541.08h14.71v-35.89h27.66v-33.54H32.36v69.43z"></path><path d="M0 294.78h197.11V605.8l81.2-81.19V213.58H81.2L0 294.78z"></path><path d="M106.79 187.99H303.9v311.02l81.2-81.19V106.79H187.99l-81.2 81.2z"></path><path d="m294.78 0-81.2 81.2h197.11v311.02l81.2-67.43V0H294.78z"></path></svg>