<svg xmlns="http://www.w3.org/2000/svg" width="613.1" viewBox="0 0 613.1 609.3" height="609.3" xml:space="preserve"><path d="M613 404.4c-.6-33.2-9.5-66-25.9-94.9-15.9-28.1-38.6-52.1-65.6-69.8-27.7-18.1-59.8-29.2-92.7-32.2-6.2-.6-12.4-.8-18.6-.8-109.9 0-202.1 89.5-202.8 200.1h-8v-16.5c2.5-30.3 11.6-58.8 25.7-84.1l-2.7-4.9c-14.8-27-22.4-57.4-22.4-90.3V.2C90.1 2 0 92.9 0 204.3v203-.4c-.3 33.3 8 66.6 23.8 95.9 15.3 28.4 37.4 53 64.1 71.2 27.3 18.6 59 30.4 91.8 34.1 40.6 4.6 82.1-3.1 118.3-22.1 2.9-1.5 5.8-3.2 8.6-4.8 4.9-2.4 9.5-5.9 13.9-9 4.5-3.2 8.8-6.5 13.1-10.1 8.7-7.3 16.8-15.3 24.2-24 14.3-16.7 25.8-35.8 33.9-56.3 9.4-23.8 14.2-49.3 14-74.9h10.4c.3 37-9.5 73.8-27.9 105.8-17.3 30-41.9 55.7-71.2 74.2 36.4 18.8 78.3 26 119 20.9 32.7-4.1 64.2-16.3 91.2-35.2 26.4-18.5 48.3-43.3 63.2-71.9 15.5-29.7 23.2-63 22.6-96.3z"></path><path d="M403 197.9c1.9 0 8.7-.1 10.1 0 70 1.4 131.8 36.6 170.5 88 15.3-28.6 23.3-60.9 23.3-93.3V0C517.9 1.4 442 57.1 411 135.5c-12.6-32-33-60.7-59-83.2-26.2-22.7-57.8-38.8-91.5-46.6-16.4-3.8-33.2-5.6-50-5.6V211c0 29.6 6.8 59.2 21.1 85.2 35.6-56.8 97.5-96.5 171.4-98.3zm96.9-38.1c0-4.1 3.9-3.5 3.9-3.5h30.8c1.8 0 3.1 1.9 3.1 2.8-1.4 18.7-16.2 33.9-35.5 36.9-.8.1-2.3.9-2.3-1.8v-34.4zm-44-3.5h30.8s3.9-.6 3.9 3.5v34.4c0 2.6-1.5 1.9-2.3 1.8-19.2-3-34.1-18.2-35.5-36.9 0-1 1.2-2.8 3.1-2.8zm-121.2 3.5c0-4.1 3.9-3.5 3.9-3.5h30.8c1.8 0 3.1 1.9 3 2.8-1.3 18.7-16.2 33.9-35.5 36.9-.8.1-2.3.9-2.3-1.8.1-2.6.1-30.3.1-34.4zm-44-3.5h30.8s3.9-.6 3.9 3.5v34.4c0 2.6-1.6 1.9-2.3 1.8-19.2-3-34.1-18.2-35.5-36.9 0-1 1.3-2.8 3.1-2.8z"></path></svg>