<svg data-name="Layer 1" xmlns="http://www.w3.org/2000/svg" viewBox="0 0 605.86 577.01"><path d="M0 0h28.85v28.85H0zM57.7 0h28.85v28.85H57.7zM115.4 0h28.85v28.85H115.4zM173.1 0h28.85v28.85H173.1zM230.81 0h28.85v28.85h-28.85zM288.51 0h28.85v28.85h-28.85zM346.21 0h28.85v28.85h-28.85zM403.91 0h28.85v28.85h-28.85zM461.61 0h28.85v28.85h-28.85zM519.31 0h28.85v28.85h-28.85zM577.01 0h28.85v28.85h-28.85zM28.85 28.85H57.7V57.7H28.85zM86.55 28.85h28.85V57.7H86.55zM144.25 28.85h28.85V57.7h-28.85zM201.96 28.85h28.85V57.7h-28.85zM259.66 28.85h28.85V57.7h-28.85zM317.36 28.85h28.85V57.7h-28.85zM375.06 28.85h28.85V57.7h-28.85zM432.76 28.85h28.85V57.7h-28.85zM490.46 28.85h28.85V57.7h-28.85zM548.16 28.85h28.85V57.7h-28.85zM0 57.7h28.85v28.85H0zM57.7 57.7h28.85v28.85H57.7zM115.4 57.7h28.85v28.85H115.4zM173.1 57.7h28.85v28.85H173.1zM230.81 57.7h28.85v28.85h-28.85zM288.51 57.7h28.85v28.85h-28.85zM346.21 57.7h28.85v28.85h-28.85zM403.91 57.7h28.85v28.85h-28.85zM461.61 57.7h28.85v28.85h-28.85zM519.31 57.7h28.85v28.85h-28.85zM577.01 57.7h28.85v28.85h-28.85zM28.85 86.55H57.7v28.85H28.85z"></path><path d="M86.55 86.55h28.85v28.85H86.55zM144.25 86.55h28.85v28.85h-28.85zM201.96 86.55h28.85v28.85h-28.85zM259.66 86.55h28.85v28.85h-28.85zM317.36 86.55h28.85v28.85h-28.85zM375.06 86.55h28.85v28.85h-28.85zM432.76 86.55h28.85v28.85h-28.85zM490.46 86.55h28.85v28.85h-28.85zM548.16 86.55h28.85v28.85h-28.85zM0 115.4h28.85v28.85H0zM57.7 115.4h28.85v28.85H57.7zM115.4 115.4h28.85v28.85H115.4zM173.1 115.4h28.85v28.85H173.1zM230.81 115.4h28.85v28.85h-28.85zM288.51 115.4h28.85v28.85h-28.85zM346.21 115.4h28.85v28.85h-28.85zM403.91 115.4h28.85v28.85h-28.85zM461.61 115.4h28.85v28.85h-28.85zM519.31 115.4h28.85v28.85h-28.85zM577.01 115.4h28.85v28.85h-28.85zM28.85 144.25H57.7v28.85H28.85zM86.55 144.25h28.85v28.85H86.55zM144.25 144.25h28.85v28.85h-28.85zM201.96 144.25h28.85v28.85h-28.85zM259.66 144.25h28.85v28.85h-28.85zM317.36 144.25h28.85v28.85h-28.85zM375.06 144.25h28.85v28.85h-28.85zM432.76 144.25h28.85v28.85h-28.85zM490.46 144.25h28.85v28.85h-28.85zM548.16 144.25h28.85v28.85h-28.85zM0 173.1h28.85v28.85H0zM57.7 173.1h28.85v28.85H57.7zM115.4 173.1h28.85v28.85H115.4zM173.1 173.1h28.85v28.85H173.1zM230.81 173.1h28.85v28.85h-28.85zM288.51 173.1h28.85v28.85h-28.85zM346.21 173.1h28.85v28.85h-28.85zM403.91 173.1h28.85v28.85h-28.85zM461.61 173.1h28.85v28.85h-28.85zM519.31 173.1h28.85v28.85h-28.85zM577.01 173.1h28.85v28.85h-28.85zM201.96 201.95h28.85v28.85h-28.85zM259.66 201.95h28.85v28.85h-28.85zM317.36 201.95h28.85v28.85h-28.85zM375.06 201.95h28.85v28.85h-28.85zM230.81 230.81h28.85v28.85h-28.85zM288.51 230.81h28.85v28.85h-28.85zM346.21 230.81h28.85v28.85h-28.85zM201.96 259.66h28.85v28.85h-28.85zM259.66 259.66h28.85v28.85h-28.85zM317.36 259.66h28.85v28.85h-28.85zM375.06 259.66h28.85v28.85h-28.85zM230.81 288.51h28.85v28.85h-28.85z"></path><path d="M288.51 288.51h28.85v28.85h-28.85zM346.21 288.51h28.85v28.85h-28.85zM201.96 317.36h28.85v28.85h-28.85zM259.66 317.36h28.85v28.85h-28.85zM317.36 317.36h28.85v28.85h-28.85zM375.06 317.36h28.85v28.85h-28.85zM230.81 346.21h28.85v28.85h-28.85z"></path><path d="M288.51 346.21h28.85v28.85h-28.85zM346.21 346.21h28.85v28.85h-28.85zM201.96 375.06h28.85v28.85h-28.85zM259.66 375.06h28.85v28.85h-28.85zM317.36 375.06h28.85v28.85h-28.85zM375.06 375.06h28.85v28.85h-28.85zM230.81 403.91h28.85v28.85h-28.85zM288.51 403.91h28.85v28.85h-28.85zM346.21 403.91h28.85v28.85h-28.85zM201.96 432.76h28.85v28.85h-28.85z"></path><path d="M259.66 432.76h28.85v28.85h-28.85zM317.36 432.76h28.85v28.85h-28.85zM375.06 432.76h28.85v28.85h-28.85zM230.81 461.61h28.85v28.85h-28.85zM288.51 461.61h28.85v28.85h-28.85zM346.21 461.61h28.85v28.85h-28.85zM201.96 490.46h28.85v28.85h-28.85z"></path><path d="M259.66 490.46h28.85v28.85h-28.85zM317.36 490.46h28.85v28.85h-28.85zM375.06 490.46h28.85v28.85h-28.85zM230.81 519.31h28.85v28.85h-28.85zM288.51 519.31h28.85v28.85h-28.85zM346.21 519.31h28.85v28.85h-28.85zM201.96 548.16h28.85v28.85h-28.85zM259.66 548.16h28.85v28.85h-28.85zM317.36 548.16h28.85v28.85h-28.85zM375.06 548.16h28.85v28.85h-28.85z"></path></svg>