<svg xmlns="http://www.w3.org/2000/svg" width="618.4" viewBox="0 0 618.4 619.3" height="619.3" xml:space="preserve" style="enable-background:new 0 0 618.4 619.3"><path d="M462.9 334.3c-11.8 74-75.9 130.6-153.3 130.6-85.7 0-155.2-69.5-155.2-155.2s69.5-155.2 155.2-155.2c57.8 0 108.3 31.6 135 78.6h-68.8c-17.7-15.4-40.9-24.7-66.2-24.7-56 0-101.3 45.4-101.3 101.3S253.7 411 309.7 411c47.4 0 87.3-32.6 98.3-76.7h-56c-8.5 14.6-24.3 24.4-42.4 24.4-27.1 0-49-22-49-49s22-49 49-49c17.5 0 32.9 9.2 41.5 23h163.5C502 181.8 415 103 309.7 103 195.5 103 103 195.5 103 309.7c0 114.2 92.5 206.7 206.7 206.7 87.6 0 162.5-54.5 192.6-131.4h53.6c-32.3 105.4-130.3 182-246.2 182-142.2 0-257.4-115.2-257.4-257.3S167.5 52.3 309.7 52.3c133.4 0 243 101.4 256.1 231.4h52.5C605 124.8 471.9 0 309.7 0 138.6 0 0 138.6 0 309.7s138.6 309.7 309.7 309.7c162.7 0 296.1-125.5 308.7-285H462.9z"></path></svg>