<svg xmlns="http://www.w3.org/2000/svg" width="611.4" viewBox="0 0 611.4 611.4" height="611.4" xml:space="preserve" style="enable-background:new 0 0 611.4 611.4"><path d="M0 416.8h90.4v90.4H0zM104.2 416.8h90.4v90.4h-90.4zM208.4 416.8h90.4v90.4h-90.4zM312.6 416.8H403v90.4h-90.4zM416.8 416.8h90.4v90.4h-90.4zM521 416.8h90.4v90.4H521zM0 521h90.4v90.4H0zM104.2 521h90.4v90.4h-90.4zM312.6 521H403v90.4h-90.4zM416.8 521h90.4v90.4h-90.4zM104.2 312.6h90.4V403h-90.4zM208.4 312.6h90.4V403h-90.4zM416.8 312.6h90.4V403h-90.4zM521 312.6h90.4V403H521zM0 208.4h90.4v90.4H0zM104.2 208.4h90.4v90.4h-90.4zM0 104.2h90.4v90.4H0zM104.2 104.2h90.4v90.4h-90.4z"></path><path d="M403 104.2h-90.4v104.2H208.4v90.4h104.2V403H403V298.8h104.2v-90.4H403z"></path><path d="M416.8 104.2h90.4v90.4h-90.4zM521 104.2h90.4v90.4H521zM416.8 0h90.4v90.4h-90.4zM521 0h90.4v90.4H521z"></path></svg>