<svg xmlns="http://www.w3.org/2000/svg" width="593.7" viewBox="0 0 593.7 593.7" height="593.7"><path class="st0" d="M488 402.4l105.7-105.5L488 191.3l-1.9 1.9 102.4 102.2H356.7v2.7h232L486.1 400.5zM107.6 400.6L5.2 298.3H237v-2.7H5l102.6-102.4-1.9-1.9L0 296.9l105.7 105.6z"></path><path class="st0" d="M3.2 5l251.2 251.9 1.9-1.8L5 3.2h232.3V.5H.5v237.1h2.7z"></path><path class="st0" d="M193.1 107.6L295.4 5.2V237h2.7V5l102.4 102.6 1.9-1.9L296.9 0 191.3 105.7z"></path><path class="st0" d="M336.8 254.4l1.9 1.9L590.6 5v232.3h2.6V.5H356.1v2.7h232.6zM400.6 486.1L298.3 588.5V356.7h-2.7v232L193.2 486.1l-1.9 1.9 105.6 105.7L402.5 488z"></path><path class="st0" d="M256.9 338.9l-1.8-1.9L3.2 588.3V356H.5v236.8h237.1v-2.6H5zM590.6 588.3L338.7 337l-1.9 1.9 251.9 251.3H356.1v2.6h237.1V356h-2.6z"></path></svg>