<svg width="642" viewBox="0 0 642 642" height="642" xmlns="http://www.w3.org/2000/svg"><path d="M303.343 363.63 303.337 642h-70.614V534.146l-76.27 76.276-49.947-49.954 196.837-196.838Zm35.317-.001 196.83 196.837-49.927 49.935-76.27-76.263V642H338.66V363.629Zm24.969-24.972 278.371.006v70.614H534.144l76.276 76.27-49.954 49.947-196.837-196.837Zm-85.258.004L81.534 535.49l-49.935-49.928 76.263-76.263H0v-70.64h278.371ZM81.537 106.504l196.837 196.844L.003 303.34v-70.613h107.856l-76.276-76.276 49.954-49.948Zm478.927.005 49.935 49.928-76.263 76.27h107.862v70.633H363.627l196.837-196.83ZM409.274.001v107.856L485.55 31.58l49.94 49.954-196.836 196.837L338.66 0h70.614ZM303.342 0v278.37L106.505 81.536 156.44 31.6l76.263 76.263V.001h70.64Z"></path></svg>