<svg data-name="Layer 1" xmlns="http://www.w3.org/2000/svg" viewBox="0 0 373.31 614.4"><path d="M310.51 76.24c16.61 0 31.19-9.37 31.19-21.47 0-2.49-.69-4.85-1.74-7.08h-.03L317.61 4.44c-1.45-2.95-4.27-4.43-7.1-4.44-2.83 0-5.66 1.48-7.1 4.44l-22.32 43.25h-.03c-1.05 2.23-1.74 4.59-1.74 7.08 0 12.11 14.58 21.47 31.19 21.47ZM370.02 126.81c-.56-.3-1.15-.49-1.75-.6-2.58-.47-5.48.6-7.62 1.91-10.54 6.48-11.95 22.59-11.95 33.59 0 0-.01 172.8-.01 206.32h-245.5l.08 239.21 24.6-28.98V392.64h245.4l.03-255.7c0-3.4.24-8.26-3.28-10.13Z"></path><path d="M333.75 353.12V166.29c0-13.43-10.99-24.41-24.41-24.41s-24.41 10.99-24.41 24.41V304.3H39.49l.07 310.1h48.83V353.15l245.37-.03Z"></path><path d="M270.05 289.42h.07l-.08-127.71c0-11-1.41-27.11-11.95-33.59-2.14-1.31-5.03-2.38-7.62-1.91-.61.11-1.19.31-1.75.6-3.52 1.87-3.28 6.73-3.28 10.13V264.8H0v313.38l24.6 28.98c0-64.8.01-280.2.01-317.74h245.43Z"></path></svg>