<svg data-name="Layer 1" xmlns="http://www.w3.org/2000/svg" viewBox="0 0 615.79 615.79"><path d="M307.9 0C137.85 0 0 137.85 0 307.9s137.85 307.89 307.9 307.89S615.79 477.94 615.79 307.9 477.94 0 307.9 0ZM102.12 311h202.67v96.72H127.87C111.91 379 102.65 346.07 102.13 311Zm0-6.21c.52-35.06 9.79-68 25.75-96.72h176.92v96.72H102.12Zm208.88 0v-96.72h176.92c15.96 28.72 25.23 61.65 25.75 96.72H311Zm173.35-102.93H311v-99.74c73.6 1.09 137.84 40.77 173.35 99.74Zm-179.56-99.74v99.74H131.44c35.51-58.97 99.75-98.65 173.35-99.74ZM131.44 413.93h173.35v99.74c-73.6-1.09-137.84-40.77-173.35-99.74ZM311 513.67v-99.74h173.35c-35.51 58.98-99.75 98.65-173.35 99.74Z"></path></svg>