<svg data-name="Layer 1" xmlns="http://www.w3.org/2000/svg" viewBox="0 0 613.47 613.47"><path d="M433.79 0H179.68L0 179.68v254.11l179.68 179.67h254.1l179.69-179.67V179.68L433.79 0Zm131.6 413.87L413.88 565.38H199.6L48.08 413.87V199.6L199.6 48.08h214.26l151.52 151.51v214.27Z"></path><path d="M419.61 419.61v97.23l97.23-97.23h-97.23zM193.85 96.62l-97.23 97.23h96.44v99.43h98.04v-99.43h-97.25V96.62Zm69.98 153.62c8.71 0 15.77 7.06 15.77 15.77s-7.06 15.77-15.77 15.77-15.77-7.06-15.77-15.77 7.06-15.77 15.77-15.77ZM419.61 96.62v97.23h97.23l-97.23-97.23zM193.06 419.61H96.62l97.23 97.23v-97.23h97.25v-95.07h-98.04v95.07Zm70.77-83.57c8.71 0 15.77 7.06 15.77 15.77s-7.06 15.77-15.77 15.77-15.77-7.06-15.77-15.77 7.06-15.77 15.77-15.77ZM322.36 293.28h96.46v-99.43h-96.46v99.43Zm27.27-43.04c8.71 0 15.77 7.06 15.77 15.77s-7.06 15.77-15.77 15.77-15.77-7.06-15.77-15.77 7.06-15.77 15.77-15.77ZM322.36 419.61h96.46v-95.07h-96.46v95.07Zm27.27-83.57c8.71 0 15.77 7.06 15.77 15.77s-7.06 15.77-15.77 15.77-15.77-7.06-15.77-15.77 7.06-15.77 15.77-15.77Z"></path></svg>