<svg xmlns="http://www.w3.org/2000/svg" width="439.29" viewBox="0 0 439.29 642" height="642" data-name="Layer 1"><path d="M215.63 218.28v100.3c0 3.79-4.45 5.81-7.31 3.33l-47.44-41.24c-19.41-16.92-31.67-41.82-31.67-69.59 0-50.97 41.32-92.29 92.29-92.29 54.52-.07 98.61 44.98 97.4 99.48h117.66C436.56 97.73 338.83 0 218.28 0S0 97.73 0 218.28C1.63 270.36 25.4 317 62.1 348.94l69.03 64.15a4.41 4.41 0 0 1-2.89 7.74v2.89h95.42v-100.3c0-3.79 4.45-5.81 7.31-3.33l47.44 41.24c19.41 16.92 31.67 41.82 31.67 69.59 0 50.97-41.32 92.29-92.29 92.29-54.52.07-98.61-44.98-97.4-99.48H2.73c0 120.55 97.73 218.28 218.28 218.28s218.28-97.73 218.28-218.28c-1.63-52.08-25.4-98.72-62.1-130.66l-69.03-64.15a4.41 4.41 0 0 1 2.89-7.74v-2.89h-95.42Z"></path></svg>