<svg xmlns="http://www.w3.org/2000/svg" width="623.9" viewBox="0 0 623.9 539.9" height="539.9" xml:space="preserve"><path d="M532.3 222.5h-72.4l36.8-63.8L405.1 0H221.8l-91.6 158.7 36.8 63.8H91.6L0 381.2l91.6 158.7h183.3l37.1-64.2 37.1 64.2h183.3L624 381.2l-91.7-158.7zm-81.4 158.7 74.7-129.4 74.7 129.4-74.7 129.4-74.7-129.4zM507 243l-73.9 127.9H287l30.9-53.5h87.2l43-74.4H507zm-194.9 64.8-.3-.2.3-.2v.4zm86.3-19.7-74.7-129.4 74.7-129.4 74.7 129.4-74.7 129.4zM233.7 20.5h146.1l-73.9 127.9H159.8l73.9-127.9zM159.8 169h146.1l73.9 127.9h-61.9l-43-74.4h-84.2L159.8 169zm-56.3 74h146.1l-73.9 127.9H29.6L103.5 243zM29.6 391.4h146.1l73.9 127.9H103.5L29.6 391.4zm238.5 119.2-74.7-129.4 74.7-129.4 32 55.4-42.7 74 42.7 74-32 55.4zM287 391.4h146.1l73.9 128H360.9l-73.9-128z"></path></svg>