<svg data-name="Layer 1" xmlns="http://www.w3.org/2000/svg" viewBox="0 0 619.15 619.89"><path d="M257.7 8.38v86.99c0 4.63 3.75 8.38 8.38 8.38h221.85c15.17 0 27.47 12.3 27.47 27.47v357.45c0 15.17-12.3 27.47-27.47 27.47H131.22c-15.17 0-27.47-12.3-27.47-27.47V8.38C103.75 3.75 100 0 95.37 0H8.38C3.75 0 0 3.75 0 8.38v483.88c0 70.49 57.14 127.63 127.63 127.63h363.89c70.49 0 127.63-57.14 127.63-127.63V127.63C619.15 57.14 562.01 0 491.52 0H266.08c-4.63 0-8.38 3.75-8.38 8.38Z"></path><rect x="128.85" width="103.75" viewBox="0 0 103.75 364.07" height="364.07" rx="8.38" ry="8.38"></rect><rect x="257.7" y="128.37" width="103.75" height="360.31" rx="8.38" ry="8.38"></rect><rect x="386.55" y="128.37" width="103.75" height="360.31" rx="8.38" ry="8.38"></rect></svg>