<svg xmlns="http://www.w3.org/2000/svg" width="608.6" viewBox="0 0 608.6 608.6" height="608.6" xml:space="preserve"><path d="M547.6 121.5 303.5 262.6l-243-140.5c-14 18.7-25.9 39.1-35.3 60.7L269.4 324v282.5c11.5 1.3 23.1 2 34.9 2 11.9 0 23.7-.7 35.3-2.1V322.9L583 182.1c-9.4-21.6-21.4-42-35.4-60.6z"></path><path d="M590.4 200.5 358.2 335v268.8c17.5-3.1 34.4-7.7 50.7-13.7V364.3l195.1-113c-3.1-17.5-7.6-34.5-13.6-50.8z"></path><path d="M607.6 279.3 434 379.4v200.3c11.8-5.6 23.2-11.9 34.1-18.9V399.1l140.2-80.8c.2-4.6.3-9.3.3-14 0-8.4-.4-16.8-1-25z"></path><path d="M499.1 538c6.8-5.6 13.3-11.6 19.5-17.8v-91.5l79.9-46.6c2.2-8.5 4.1-17.1 5.6-25.9l-105 61.2V538z"></path><path d="M552.8 480c10.4-14.6 19.5-30.2 27.1-46.6l-27.1 15.8V480zM535.7 106.7c-11.4-13.4-23.9-25.7-37.5-36.9L304 182.2 109.5 70.6c-13.5 11.3-26 23.7-37.3 37.1l232 133.2 231.5-134.2z"></path><path d="M476.5 53.4a290.4 290.4 0 0 0-33.5-20l-138.5 80.2-139-80.1c-11.6 6-22.8 12.7-33.5 20.1L304.6 153l171.9-99.6z"></path><path d="M407.6 18c-8.3-3-16.7-5.6-25.3-7.9l-77.4 44.8-78.6-44.8c-8.6 2.3-17.1 4.9-25.5 7.9L305 77.4 407.6 18z"></path><path d="M329.8 1.1C321.4.4 312.9 0 304.3 0c-8.1 0-16 .3-23.9.9l25 14.3 24.4-14.1zM4.6 251.1 200 364.3v226c16.3 5.9 33.3 10.5 50.7 13.6V335L18.2 200.3c-5.9 16.3-10.5 33.3-13.6 50.8z"></path><path d="M0 304.3c0 4.6.1 9.2.3 13.8l140.5 81V561c10.9 7 22.3 13.2 34.1 18.8V379.4L1 279.1c-.6 8.3-1 16.7-1 25.2z"></path><path d="m10 382 80.3 46.8v91.8c6.2 6.2 12.8 12.1 19.5 17.7V417.6L4.4 356.1c1.5 8.8 3.4 17.4 5.6 25.9z"></path><path d="M56.2 480.5v-31.4L28.5 433c7.8 16.7 17.1 32.6 27.7 47.5z"></path></svg>