<svg xmlns="http://www.w3.org/2000/svg" width="634.2" viewBox="0 0 634.2 551.2" height="551.2"><path class="st0" d="M438.4 381.2H197.7L186.3 401h439.9l4.9-8.5H431.9zM421.1 411.2H180.4L169 431h439.9l4.9-8.4H414.6zM403.8 441.3H163.1l-11.5 19.8h439.9l4.9-8.5H397.2zM386.4 471.3H145.7l-11.4 19.8h439.9l4.9-8.5H379.9zM369.1 501.3H128.4L117 521.1h439.9l4.8-8.4H362.6zM351.7 531.4H111l-11.4 19.8h439.9l4.9-8.5H345.2z"></path><path class="st0" d="M197.7 381.2l120.2-208.3 120 208.2h22.9L241 0h-9.8l99.5 172.6h-12.8l-11.3-19.7L86.8 534l4.9 8.4 99.5-172.5z"></path><path class="st0" d="M180.4 351.2l120.3-208.5-11.5-19.8L69.4 504l4.9 8.4 99.5-172.5zM163 321.2l120.3-208.6-11.4-19.7-219.8 381 4.9 8.5 99.5-172.6zM145.7 291.1L265.9 82.6l-11.4-19.8L34.7 443.9l4.9 8.5 99.5-172.6zM128.3 261.1L248.6 52.6l-11.4-19.8L17.4 413.9l4.8 8.4 99.6-172.5zM111 231L231.2 22.5 219.8 2.8 0 383.8l4.9 8.5 99.5-172.5zM352.3 172.6l120.3 208.5h22.8L275.7 0h-9.8l99.5 172.6zM387 172.6l120.3 208.5h22.8L310.4 0h-9.8l99.5 172.6zM421.7 172.6L542 381.1l22.8.1L345.1.1h-9.8l99.5 172.5zM456.4 172.6l120.2 208.6h22.9L379.8.1H370l99.5 172.5zM491.1 172.7l120.2 208.5h22.9L414.4.1h-9.7l99.5 172.5z"></path></svg>