<svg id="Layer_1" data-name="Layer 1" xmlns="http://www.w3.org/2000/svg" viewBox="0 0 561.56 600.56">   <path d="M486.03,189.17V114.23L294.6,3.7C290.32,1.23,285.55,0,280.78,0c-4.77,0-9.54,1.23-13.82,3.7L75.53,114.23v74.95c0,6.69-3.63,12.86-9.47,16.12L0,242.06v224.05c0,9.87,5.27,19,13.82,23.93l191.43,110.52,68.81-39.73c4.16-2.4,9.28-2.4,13.44,0l68.81,39.73,191.43-110.52c8.55-4.94,13.82-14.06,13.82-23.93V242.06l-66.05-36.77c-5.85-3.26-9.47-9.42-9.47-16.12ZM219.77,118.17l47.2-27.25s0,0,0,0c4.27-2.47,9.05-3.7,13.82-3.7s9.54,1.23,13.82,3.7c0,0,0,0,0,0l47.2,27.25v79.34l-47.2-27.25c-4.27-2.47-9.05-3.7-13.82-3.7s-9.54,1.23-13.82,3.7l-47.2,27.25V118.17Zm0,173.42c0-4.25,2.27-8.17,5.95-10.3l41.25-23.81s0,0,0,0c4.27-2.47,9.04-3.7,13.81-3.7s9.54,1.23,13.81,3.7c0,0,0,0,0,0l41.25,23.81c3.68,2.12,5.95,6.05,5.95,10.3v56.72c0,4.25-2.27,8.17-5.95,10.3l-49.12,28.36c-1.84,1.06-3.89,1.59-5.94,1.59-2.05,0-4.11-.53-5.94-1.59l-49.12-28.36c-3.68-2.12-5.95-6.05-5.95-10.3v-56.72ZM75.53,216.26c0-7.47,3.02-14.45,8.18-19.54l60.53-34.95v79.34h0s-68.71,39.67-68.71,39.67v-64.52Zm61.01,257.41l-47.2-27.25c-8.55-4.94-13.81-14.06-13.81-23.93v-54.5l68.71-39.67v54.5c0,9.87,5.27,18.99,13.82,23.93l47.2,27.25-68.71,39.67Zm150.18,79.84c-1.84,1.06-3.89,1.59-5.94,1.59s-4.1-.53-5.94-1.59l-62.77-36.24,68.71-39.67h0s0,0,0,0l68.71,39.67-62.77,36.24Zm199.31-131.02c0,9.87-5.27,18.99-13.81,23.93l-47.2,27.25-68.71-39.67,47.2-27.25c8.55-4.94,13.82-14.06,13.82-23.93v-54.5l68.71,39.67v54.5Zm0-141.71l-68.71-39.67h0v-79.35l60.53,34.95c5.25,3.09,8.18,12.07,8.18,19.54v64.52Z"></path> </svg>