<svg xmlns="http://www.w3.org/2000/svg" width="626.3" viewBox="0 0 626.3 642" height="642" style="overflow:visible;enable-background:new 0 0 626.3 642" xml:space="preserve"><path d="M309.7 125.9c-60 19.6-102.9 75.8-102.9 141.6h-57.9c0-91.7 60-169.6 142.8-196.6l18 55z"></path><path d="M332.6 196.7c-29.8 9.7-51.4 37.7-51.4 70.8h-57.9c0-58.7 38.4-108.5 91.4-125.8l17.9 55z"></path><path d="M297.7 267.4h57.9l-17.9-55c-23.2 7.5-40 29.3-40 55zM286.6 55.1c-89.3 29.2-154.3 113.1-154.3 212.3H74.5C74.5 142.8 156.1 36.7 268.7 0l17.9 55.1zM235.2 426.3l-17.9 55.1C130.1 453 74.6 371.8 74.5 284.8h57.9c.1 62.7 40 121.1 102.8 141.5z"></path><path d="m258.2 355.5-17.9 55.1c-55.8-18.2-91.4-70.1-91.4-125.8h57.8c.1 31.3 20.1 60.5 51.5 70.7z"></path><path d="m281.2 284.8-17.9 55c-24.4-7.9-40-30.7-40-55h57.9zM212.2 497.1l-17.9 55.1C75.7 513.6.1 403.2 0 284.8h57.9c0 94 60.1 181.7 154.3 212.3zM442 482.5c-53.9 74.2-148.2 101.9-231.1 75l17.9-55c60 19.4 127.8-.9 166.4-54l46.8 34z"></path><path d="M381.8 438.7c-34.5 47.5-94.9 65.2-147.9 48l17.9-55c29.9 9.7 63.8-.3 83.2-27l46.8 34z"></path><path d="m321.6 395-46.8-34-17.9 55c23.2 7.5 49.5-.2 64.7-21zM502.2 526.2c-73.3 100.9-201.6 138.7-314.3 102.1l17.9-55.1c89.9 29.2 191.7-1.3 249.6-81.1l46.8 34.1zM512.5 512.2l-46.8-34.1c37.4-51.5 38.3-122.3 0-174.9l46.8-34.1c53.9 74.3 51.1 172.6 0 243.1z"></path><path d="m452.2 468.4-46.8-34c18.5-25.3 19.4-60.7 0-87.5l46.8-34c34.6 47.5 32.8 110.4 0 155.5z"></path><path d="m392.1 356.7-46.8 34 46.8 34c14.3-19.7 15.1-47.2 0-68zM572.7 556l-46.9-34.1c55.6-76.6 58-182.7.1-262.5l46.8-34c73.3 100.9 69.6 234.7 0 330.6zM562.4 211.4l-46.8 34c-37.6-51.7-104.9-74.2-166.4-54.1l-17.9-55c87.2-28.3 179.9 4.7 231.1 75.1z"></path><path d="m502.2 255.1-46.8 34c-18.4-25.4-51.7-37.2-83.2-27.1l-17.9-55c55.8-18.1 115.1 3.1 147.9 48.1z"></path><path d="m377.3 277.8 17.9 55 46.8-34c-14.3-19.7-40.2-28.9-64.7-21zM622.7 167.6l-46.8 34.1c-56.2-77.2-156.7-111.3-249.6-81.2l-17.9-55C426.9 27 553 71.8 622.7 167.6z"></path></svg>