<svg id="Layer_1" data-name="Layer 1" xmlns="http://www.w3.org/2000/svg" viewBox="0 0 615.63 585.5">   <polygon points="296.54 167.02 296.54 0 194.53 74.12 197.73 170.11 107.45 137.39 6.97 210.39 165.81 262 296.54 167.02"></polygon>   <polygon points="227.02 450.37 128.84 585.5 256.06 585.5 307.81 509.01 359.57 585.5 486.79 585.5 388.61 450.37 227.02 450.37"></polygon>   <path d="M307.81,186.69l-126.78,92.11,48.42,149.04h156.7l48.42-149.04-126.78-92.11Zm0,195.35c-33.34,0-60.36-27.02-60.36-60.36s27.02-60.36,60.36-60.36,60.36,27.02,60.36,60.36-27.02,60.36-60.36,60.36Z"></path>   <polygon points="158.84 283.44 0 231.83 39.56 353.57 129.65 379.55 72.03 453.51 110.61 572.25 208.78 437.13 158.84 283.44"></polygon>   <polygon points="449.82 262 608.66 210.39 508.27 137.45 417.96 170.15 421.19 74.18 319.09 0 319.09 167.02 449.82 262"></polygon>   <polygon points="576.04 353.68 615.63 231.83 456.79 283.44 406.85 437.13 505.02 572.25 543.57 453.62 485.96 379.62 576.04 353.68"></polygon> </svg>