<svg data-name="Layer 1" xmlns="http://www.w3.org/2000/svg" viewBox="0 0 620.62 594.29"><path d="M533.24 51.85H87.78c-19.71 0-35.74 16.03-35.74 35.74v411.44c0 22.89 17.03 41.91 38.77 43.32 11.62.71 22.73-3.2 31.2-11.14 8.48-7.94 13.15-18.72 13.15-30.33V196.05c0-33.67 27.38-61.05 61.05-61.05h228.6c33.67 0 61.05 27.38 61.05 61.05v304.83c0 11.61 4.67 22.38 13.15 30.33 8.47 7.94 19.59 11.87 31.2 11.14 21.74-1.41 38.77-20.44 38.77-43.32V87.58c0-19.71-16.03-35.74-35.74-35.74Zm9 447.18c0 8.79-6.26 16.35-13.95 16.85-5.4.34-9.18-1.99-11.35-4.02-1.78-1.67-4.76-5.3-4.76-10.97V196.05c0-48.29-39.29-87.58-87.58-87.58H196.01c-48.3 0-87.58 39.29-87.58 87.58v304.83c0 5.67-2.98 9.31-4.76 10.97-2.17 2.03-5.83 4.39-11.35 4.02-7.69-.5-13.95-8.06-13.95-16.85V87.58c0-5.08 4.13-9.21 9.2-9.21h445.46c5.08 0 9.2 4.13 9.2 9.21v411.45Z"></path><path d="M533.04 0H87.58C39.29 0 0 39.29 0 87.58v411.45c0 50.14 38.33 91.89 87.26 95.06 2 .13 4 .19 6 .19 23.66 0 46.71-9.03 64.01-25.25 18.77-17.59 29.53-42.43 29.53-68.16V196.05c0-5.08 4.13-9.2 9.21-9.2h228.6c5.08 0 9.2 4.13 9.2 9.2v304.83c0 25.72 10.76 50.56 29.53 68.16 18.76 17.59 44.25 26.7 70.01 25.05 48.93-3.17 87.27-44.92 87.27-95.06V87.58c0-48.3-39.29-87.58-87.58-87.58Zm61.25 499.03c0 36.19-27.43 66.32-62.45 68.59-1.5.09-3 .15-4.49.15-17.06 0-33.13-6.33-45.66-18.08-13.44-12.6-21.15-30.39-21.15-48.8V196.05c0-19.7-16.03-35.73-35.73-35.73h-228.6c-19.7 0-35.73 16.03-35.73 35.73v304.83c0 18.42-7.71 36.2-21.15 48.8-13.62 12.77-31.38 19.11-50.15 17.93-35.02-2.27-62.45-32.4-62.45-68.59V87.58c0-33.67 27.39-61.05 61.05-61.05h445.46c33.67 0 61.05 27.39 61.05 61.05v411.45Z"></path><path d="M310.31 215.13c-51.47 0-93.34 41.87-93.34 93.34v192.47c0 51.47 41.87 93.34 93.34 93.34s93.34-41.87 93.34-93.34V308.47c0-51.47-41.87-93.34-93.34-93.34Zm67.02 285.82c0 36.84-29.97 66.81-66.81 66.81s-66.81-29.97-66.81-66.81V308.48c0-36.84 29.97-66.81 66.81-66.81s66.81 29.97 66.81 66.81v192.47Z"></path><path d="M310.52 266.97c-22.88 0-41.5 18.62-41.5 41.5v192.47c0 22.88 18.62 41.5 41.5 41.5s41.5-18.62 41.5-41.5V308.47c0-22.88-18.62-41.5-41.5-41.5Zm14.76 233.97c0 8.11-6.85 14.97-14.97 14.97s-14.97-6.85-14.97-14.97V308.47c0-8.11 6.85-14.97 14.97-14.97s14.97 6.85 14.97 14.97v192.47Z"></path></svg>