<svg data-name="Layer 1" xmlns="http://www.w3.org/2000/svg" viewBox="0 0 621.04 621.04"><path d="M444.83 268.61h-92.4v-92.39C352.43 79.05 273.38 0 176.22 0S0 79.05 0 176.22c0 72.49 44.01 134.88 106.71 161.9l69.51-69.51c-50.95 0-92.4-41.45-92.4-92.39s41.45-92.39 92.4-92.39 92.39 41.45 92.39 92.39v92.39h-92.39v83.83h92.39v92.39c0 97.17 79.05 176.22 176.22 176.22S621.04 542 621.04 444.83s-79.05-176.21-176.21-176.21Zm0 268.61c-50.95 0-92.4-41.45-92.4-92.4v-92.39h92.4c50.94 0 92.39 41.45 92.39 92.39s-41.45 92.4-92.39 92.4Z"></path></svg>