<svg xmlns="http://www.w3.org/2000/svg" width="642" viewBox="0 0 642 558.9" height="558.9" style="overflow:visible;enable-background:new 0 0 642 558.9" xml:space="preserve"><path d="M274.5 297.9V337c-11.7-12.3-25.3-22.9-40.1-31.4v-39.1c14.8 8.5 28.3 19.1 40.1 31.4z"></path><path d="M574.6 102.6V64.8c-13.2-.5-26.1 1-39.5 5.3L569.8 0C467.8 15.6 379.1 72 321 152 262.9 72 174.2 15.6 72.2 0L107 70.1c-13.4-4.3-26.3-5.9-39.5-5.3v37.8c-22.6-7-44.6-9.4-67.4-8.2v386.9c19.6-3.4 39.9-5.2 60.5-5.2 57.9 0 107.9 33.9 131.3 82.8h38.3c-29-78.2-109.2-128.4-194.8-116.4V134c10.5-2.3 22.3-.5 32.1 6v277.5h3.1c86.7 0 159.7 60.3 179 141.2h36.2c-17.9-90.3-91.2-160.7-183-174.2V111.8c.6.1 16.3-1 32.1 9.1v240.2c86.6 31.2 152.4 105.9 171.2 197.7h30c18.7-91.8 84.6-166.5 171.2-197.7V120.8c16.1-10.2 31.3-8.9 32.1-9.1v272.8c-91.8 13.5-165.1 83.8-183 174.2h36.2c19.3-80.9 92.3-141.2 179-141.2h3.1V140c9.8-6.5 21.5-8.3 32.1-6v308.5c-85.6-12-165.8 38.2-194.8 116.4h38.3c23.4-48.9 73.4-82.8 131.3-82.8 20.6 0 40.8 1.8 60.5 5.2V94.4c-22.9-1.2-44.9 1.2-67.5 8.2zM170.1 333.8 170 125l-38.9-76.3c31.9 12.1 61.3 29.2 87.2 50.5l.1-.1c30.8 25.9 59.3 54.6 84.9 85.6v283.1c-27.3-58.7-74.6-106.3-133.2-134zm301.8-208.7-.1 208.8c-58.6 27.7-105.9 75.2-133.2 133.9V184.7c25.6-31 54.1-59.6 84.9-85.6l.1.1c25.9-21.3 55.3-38.4 87.2-50.5l-38.9 76.4z"></path><path d="M367.5 297.9V337c11.7-12.3 25.3-22.9 40.1-31.4v-39.1c-14.8 8.5-28.3 19.1-40.1 31.4z"></path></svg>