<svg data-name="Layer 1" xmlns="http://www.w3.org/2000/svg" viewBox="0 0 620.42 620.28"><path d="m439.31 0-181.1 313.67H367.4v108.57l-73.35-69.68c-51.15-48.95-123.4-62.09-188.49-34.27C40.45 346.1 0 407.36 0 478.16v142.12h143.83V478.16c0-17.24 11.42-24.69 18.23-27.6 6.81-2.9 20.09-6 32.74 6.1l172.24 163.62h144.19V313.67h109.19L439.31 0Zm-53.04 238.13 53.04-91.87 53.04 91.87H386.26Z"></path><path d="M143.33 294.96c51.74 0 93.68-41.94 93.68-93.68s-41.94-93.67-93.68-93.67-93.68 41.94-93.68 93.67 41.94 93.68 93.68 93.68Z"></path></svg>