<svg xmlns="http://www.w3.org/2000/svg" id="a" width="642" viewBox="0 0 642 513.6" height="513.6" data-name="Layer 1"><defs></defs><path d="m214.51 50.739 12.75-6.78 90.886 170.93-12.75 6.78zM40.956 214.88 131.87 43.968l12.748 6.781-90.915 170.914zM65 293.71h239.95v14.44H65zM65 376.37h239.95v14.44H65zM65 459.03h239.95v14.44H65z" class="b"></path><path d="M642 212.9c0-9.08-2.31-17.64-6.37-25.11L545.49 24.93C537.5 10.08 521.81-.01 503.77-.01H138.22c-18.1 0-33.83 10.14-41.79 25.1L5.52 196.07C1.99 202.68 0 210.26 0 218.28c0 21.98 15.02 40.46 35.34 45.79-10.77 8.68-17.68 21.96-17.68 36.87 0 17.77 9.8 33.23 24.28 41.33-14.48 8.1-24.28 23.56-24.28 41.33s9.8 33.23 24.28 41.33c-14.48 8.1-24.28 23.56-24.28 41.33 0 26.15 21.2 47.35 47.35 47.35H577c26.15 0 47.35-21.2 47.35-47.35 0-17.77-9.8-33.23-24.28-41.33 14.48-8.1 24.28-23.56 24.28-41.33s-9.8-33.23-24.28-41.33c14.48-8.1 24.28-23.56 24.28-41.33 0-15.49-7.47-29.21-18.98-37.84 21.22-6.82 36.63-26.73 36.63-50.19ZM185.6 47.22c.05-19.41 15.82-35.15 35.31-35.15 13.42 0 25.04 7.45 31.01 18.43l91.04 171.22a35.166 35.166 0 0 1 4.11 16.56c0 19.52-15.79 35.31-35.25 35.31-13.55 0-25.29-7.58-31.2-18.75L189.7 63.94c-2.62-4.92-4.09-10.55-4.1-16.55V47.22ZM12.07 218.28c0-5.97 1.48-11.62 4.11-16.56l91.03-171.23c5.97-10.98 17.59-18.43 31.01-18.43 19.49 0 35.25 15.74 35.31 35.15V47.38c-.01 6.01-1.48 11.63-4.1 16.55l-90.91 170.9c-5.91 11.17-17.65 18.75-31.2 18.75-19.45 0-35.25-15.79-35.25-35.31Zm17.62 82.66c0-19.5 15.81-35.31 35.31-35.31h239.95c19.5 0 35.31 15.81 35.31 35.31s-15.81 35.31-35.31 35.31H65c-19.5 0-35.31-15.81-35.31-35.31Zm0 82.65c0-19.5 15.81-35.31 35.31-35.31h239.95c19.5 0 35.31 15.81 35.31 35.31s-15.81 35.31-35.31 35.31H65c-19.5 0-35.31-15.81-35.31-35.31Zm582.62 0c0 2.48-.26 4.89-.74 7.22H351.69c.36-2.36.62-4.76.62-7.22s-.25-4.86-.62-7.22h259.88c.48 2.33.74 4.75.74 7.22ZM304.95 501.56H65c-19.5 0-35.31-15.81-35.31-35.31S45.5 430.94 65 430.94h239.95c19.5 0 35.31 15.81 35.31 35.31s-15.81 35.31-35.31 35.31ZM577 418.9H336.42c4.31-3.84 7.86-8.48 10.54-13.64h257.88c-6.46 8.29-16.52 13.64-27.84 13.64Zm27.84-56.97H346.96c-2.68-5.16-6.23-9.8-10.54-13.64H577c11.32 0 21.38 5.35 27.84 13.64Zm-15.57-108.34H343.28c9.71-8.68 15.84-21.28 15.84-35.31 0-8.02-1.99-15.6-5.52-22.21L262.7 25.1c-2.65-4.98-6.22-9.35-10.39-13.06h251.46c13.51 0 25.25 7.59 31.18 18.73l90.25 163.04c3.04 5.7 4.77 12.2 4.77 19.1 0 22.44-18.25 40.69-40.69 40.69Z" class="b"></path><circle cx="504.06" cy="43.74" r="15.65" class="b"></circle><circle cx="530.59" cy="88.28" r="15.65" class="b"></circle><circle cx="555.2" cy="132.81" r="15.65" class="b"></circle><circle cx="579.87" cy="177.35" r="15.65" class="b"></circle><circle cx="589.57" cy="221.89" r="15.65" class="b"></circle><circle cx="357.36" cy="43.74" r="15.65" class="b"></circle><circle cx="383.88" cy="88.28" r="15.65" class="b"></circle><circle cx="408.49" cy="132.81" r="15.65" class="b"></circle><circle cx="433.16" cy="177.35" r="15.65" class="b"></circle><circle cx="442.86" cy="221.89" r="15.65" class="b"></circle><circle cx="406.26" cy="43.74" r="15.65" class="b"></circle><circle cx="432.78" cy="88.28" r="15.65" class="b"></circle><circle cx="457.39" cy="132.81" r="15.65" class="b"></circle><circle cx="482.06" cy="177.35" r="15.65" class="b"></circle><circle cx="491.77" cy="221.89" r="15.65" class="b"></circle><circle cx="455.16" cy="43.74" r="15.65" class="b"></circle><circle cx="481.68" cy="88.28" r="15.65" class="b"></circle><circle cx="506.29" cy="132.81" r="15.65" class="b"></circle><circle cx="530.97" cy="177.35" r="15.65" class="b"></circle><circle cx="540.67" cy="221.89" r="15.65" class="b"></circle><circle cx="308.45" cy="43.74" r="15.65" class="b"></circle><circle cx="334.98" cy="88.28" r="15.65" class="b"></circle><circle cx="359.59" cy="132.81" r="15.65" class="b"></circle><circle cx="384.26" cy="177.35" r="15.65" class="b"></circle><circle cx="393.96" cy="221.89" r="15.65" class="b"></circle></svg>