<svg data-name="Layer 1" xmlns="http://www.w3.org/2000/svg" viewBox="0 0 562.67 571.75"><path d="M486.7 203.3c23.46.67 42.33 20.89 42.33 45.61h33.64c0-44.57-33.9-80.82-75.97-81.49V83.24C486.7 37.26 452.8 0 410.95 0v36.29c22.74 1.98 40.63 22.72 39.76 46.96-.56 18.83-12.08 34.83-28.12 41.21 45.3 17.36 33.49 85.37-15.7 85.78-49.38-.42-60.98-68.82-15.4-85.89-11.3-4.62-20.36-14.02-24.8-25.81-13.51 37.98-67.41 38.02-80.97.07v-.04a46.272 46.272 0 0 1-3.06-15.33h-.07c.86-20.98-14.41-39.04-33.9-40.88v61.65c48.89 29.97 80.49 82.75 80.63 143.25v165.18h-5.97V247.27c-.04-72.32-47.47-134.04-114.09-154.56h-.04C107.84 59.89-1.79 140.33.02 247.27c0 88.28 70.79 160.04 158.69 161.6v-34.09C-8.31 364.34-5.72 126.34 161.7 119.72c70.19 0 127.52 57.13 127.55 127.55v165.18h-5.97V247.27c0-67.11-54.4-121.58-121.58-121.59C2.14 131.82-.4 358.86 158.72 368.82v-35.77c-111.63-7.99-109.04-167.44 2.98-171.64 47.33 0 85.85 38.49 85.85 85.86v165.18h-5.97V247.27c0-44.12-35.77-79.89-79.89-79.89-104.09 3.65-106.62 152.3-2.98 159.7v-35.95c-55.89-5.28-53.35-86.25 2.98-87.83 24.24 0 43.97 19.73 43.97 43.97v165.18h-5.97V247.27c0-21-17.01-38-38-38-48.36 1.01-50.89 71.21-2.98 75.9v-36.66h5.97s-.02 165.56.02 166.38c2.54 87.09 72.75 156.87 160.39 156.87s161.6-72.35 161.6-161.64V248.91h36.18c0-21.37-16.07-38.83-36.18-39.5-.41-.04-.82-.04-1.23-.04v-6.12c.41 0 .82 0 1.23.04Z"></path><path d="M366.68 64.97c1.98 5.18 3.06 10.85 3.06 16.78 0 .52 0 1.01.04 1.49.75 21.15 17.19 38.04 37.41 38.04s36.62-16.9 37.37-38.04c.04-.48.04-.97.04-1.49 0-20.48-14.77-37.33-33.64-39.35v40.84h-5.37c0-14.25-3.24-27.67-9.03-39.42-.9-1.86-1.86-3.69-2.95-5.45C380.18 15.29 356.65 0 329.83 0v36.29c16.78 1.45 30.88 12.94 36.85 28.68Z"></path><path d="M285.71 64.9v.04c1.98 5.18 3.06 10.89 3.06 16.82 0 .52 0 1.01.04 1.49.75 21.15 17.19 38.04 37.37 38.04s36.66-16.9 37.41-38.04c.04-.48.04-.97.04-1.49 0-20.51-14.84-37.41-33.79-39.35v40.84h-5.37c0-14.21-3.24-27.64-8.99-39.35-.9-1.86-1.9-3.69-2.95-5.48C299.06 15.29 275.53 0 248.67 0v36.25c16.86 1.38 30.99 12.87 37.03 28.64ZM368.51 165.93c0 21.18 17.19 38.34 38.38 38.34s38.38-17.16 38.38-38.34-17.19-38.38-38.38-38.38-38.38 17.19-38.38 38.38Zm38.38-19.02c10.48 0 18.98 8.5 18.98 19.02s-8.5 18.98-18.98 18.98-18.98-8.5-18.98-18.98 8.5-19.02 18.98-19.02Z"></path></svg>