<svg data-name="Layer 1" xmlns="http://www.w3.org/2000/svg" viewBox="0 0 448.24 612.91"><path d="M448.24 0H333.51v49.81L165.79 217.27l-.02 131.23-25.75 25.75-25.29-25.29v-96.03L280.52 87.09V0H165.79v39.56l-25.53 25.53-25.53-25.53V0H0v87.09l59.16 59.16L0 205.41v201.32l59.16 59.16L0 525.04v87.87h114.73v-50.59l165.78-166.3.01-131.22 27.46-27.45v.3l25.53 25.53v97.18l-73.39 73.44-92.4 92.41v86.7h114.73v-39.18l25.53-25.53 25.53 25.53v39.18h114.73v-86.7l-59.16-59.16 59.16-59.16V205.41l-59.16-59.16 59.16-59.16V0z"></path></svg>