<svg xmlns="http://www.w3.org/2000/svg" width="642" viewBox="0 0 642 558.54" height="558.54" data-name="Layer 1"><path d="M642 178.15c0 49.24-19.9 93.73-52.19 125.96l-138.8 138.8v-86.09l9.12-5.33V136.42c0-23.95-19.39-43.33-43.33-43.33-11.36 0-21.76 4.43-29.53 11.62-19.07 18.62-30.88 44.62-30.94 73.44v136.04c28.95 18.17 48.15 50.4 48.15 87.06 0 0 4.62 157.29-83.46 157.29s-83.46-157.29-83.46-157.29c0-37.69 20.29-70.62 50.53-88.53l.06-204.35c0-8.47-6.87-15.28-15.28-15.28s-15.28 6.81-15.28 15.28v174.11h-31.65V108.37c0-8.47-6.87-15.28-15.28-15.28s-15.22 6.81-15.22 15.28v174.11h-31.71V108.37c0-8.47-6.81-15.28-15.28-15.28s-15.22 6.81-15.22 15.28v205.31c35.76 23.5 59.39 64.01 59.39 110.04 0 6.61-.51 13.1-1.41 19.39L52.19 304.12C19.9 271.89 0 227.4 0 178.15 0 79.74 79.74 0 178.15 0 236.64 0 288.51 28.12 321 71.65 353.49 28.12 405.36 0 463.84 0 562.26 0 642 79.74 642 178.15Z" style="stroke-width:0"></path></svg>