<svg xmlns="http://www.w3.org/2000/svg" width="614.2" viewBox="0 0 614.2 611.7" height="611.7"><path class="st0" d="M328.3 258s16.5-17.1 16.5-47.8V0h-33.1l.1 210.2c0 30.7 16.5 47.8 16.5 47.8zM270 0l.1 210.2c0 30.7 16.6 47.8 16.6 47.8s16.5-17.1 16.5-47.8L303.1 0H270zM393.2 148.5l63.4-111-28.8-16.3-63.4 111c-15.2 26.7-9.2 49.7-9.2 49.7s22.9-6.7 38-33.4zM391.5 202.4s22.8-6.7 38-33.4l63.4-111-28.8-16.3-63.4 111c-15.1 26.7-9.2 49.7-9.2 49.7zM486.4 268.3c-30.7.2-47.6 16.9-47.6 16.9s17.2 16.4 47.9 16.2h127.5v-33.1H486.4zM439.1 327s17.2 16.4 47.9 16.2l127.2-.2v-33.1l-127.5.1c-30.7.3-47.6 17-47.6 17zM338.5 263.8s23 5.8 49.6-9.6l182-105.1-16.5-28.7-182 105.1c-26.6 15.5-33.1 38.3-33.1 38.3zM359.3 299.9s23 5.8 49.6-9.6l182-105.1-16.5-28.7-182 105.1c-26.6 15.5-33.1 38.3-33.1 38.3zM285.9 353.7s-16.5 17.1-16.5 47.8l.1 210.2h33.1l-.1-210.2c-.1-30.7-16.6-47.8-16.6-47.8zM327.6 353.7s-16.5 17.1-16.5 47.8l.1 210.2h33.1l-.1-210.2c-.1-30.8-16.6-47.8-16.6-47.8zM221 463.2l-63.4 111 28.8 16.3 63.4-111c15.2-26.7 9.2-49.7 9.2-49.7s-22.9 6.7-38 33.4zM222.7 409.2s-22.8 6.7-38 33.4l-63.4 111 28.8 16.3 63.4-111c15.1-26.7 9.2-49.7 9.2-49.7zM175.4 326.4s-17.2-16.4-47.9-16.2H0v33.1h127.8c30.7-.2 47.6-16.9 47.6-16.9zM175.1 284.7s-17.2-16.4-47.9-16.2L0 268.7v33.1l127.5-.2c30.7-.2 47.6-16.9 47.6-16.9zM275.7 347.9s-23-5.8-49.6 9.6l-182 105.1 16.5 28.7 182-105.1c26.6-15.5 33.1-38.3 33.1-38.3zM254.9 311.7s-23-5.8-49.6 9.6l-182 105.1L39.7 455l182-105.1c26.7-15.3 33.2-38.2 33.2-38.2zM276.4 263.4s-6.5-22.9-33-38.3L61.5 119.7l-16.6 28.6 181.8 105.4c26.6 15.5 49.7 9.7 49.7 9.7zM255.4 299.5s-6.5-22.9-33-38.3L40.6 155.8 24 184.4l181.8 105.5c26.6 15.4 49.6 9.6 49.6 9.6zM224.1 201.9s5.7-23.1-9.8-49.6L150.1 41.8l-28.6 16.7L185.7 169c15.5 26.6 38.4 32.9 38.4 32.9zM260.1 180.9s5.7-23.1-9.8-49.6L186.1 20.8l-28.6 16.7L221.7 148c15.5 26.5 38.4 32.9 38.4 32.9zM390.8 409.5s-5.6 23.1 10 49.6l63.8 110.4 28.6-16.6-64-110.6c-15.5-26.5-38.4-32.8-38.4-32.8zM354.9 430.7s-5.6 23.1 10 49.6l63.8 110 28.6-16.6-63.9-110.3c-15.6-26.4-38.5-32.7-38.5-32.7zM359.2 312s6.5 22.8 33.1 38.2l182.1 105 16.5-28.7-182.1-105c-26.6-15.4-49.6-9.5-49.6-9.5zM338.4 348.1s6.5 22.8 33.1 38.2l182.1 105 16.5-28.7-182.1-105c-26.6-15.3-49.6-9.5-49.6-9.5z"></path></svg>