<svg id="a" data-name="Layer_1" xmlns="http://www.w3.org/2000/svg" width="486.96" viewBox="0 0 486.96 642" height="642">
  <path d="M445.74,131.61V12.01c-4.24-4.04-9.24-7.19-14.83-9.24-4.75-1.8-9.95-2.76-15.34-2.76h-8.86c-5.39,0-10.59.96-15.34,2.76-5.59,2.05-10.59,5.2-14.83,9.24v119.6c-24.27,10.53-41.22,34.67-41.22,62.79v173.09c-2.62-.27-5.28-.43-7.98-.43s-5.4.16-8.04.44v-173.1c0-28.12-16.95-52.26-41.22-62.79V12.01c-4.24-4.04-9.24-7.19-14.83-9.24-4.75-1.8-9.95-2.76-15.34-2.76h-8.86c-5.39,0-10.59.96-15.34,2.76-5.59,2.05-10.59,5.2-14.83,9.24v119.6c-24.27,10.53-41.22,34.67-41.22,62.79v173.1c-2.64-.28-5.32-.44-8.04-.44s-5.35.15-7.98.43v-173.09c0-28.12-16.95-52.26-41.22-62.79V12.01c-4.24-4.04-9.24-7.19-14.83-9.24-4.75-1.8-9.95-2.76-15.34-2.76h-8.86c-5.39,0-10.59.96-15.34,2.76-5.59,2.05-10.59,5.2-14.83,9.24v119.6C16.95,142.14,0,166.28,0,194.4v196.84c0,41.86,33.9,75.82,75.82,75.82,3.68,0,7.28-.35,10.82-.86l20.47,128.49c2.7,26.58,25.17,47.32,52.52,47.32s49.82-20.74,52.52-47.32l20.48-128.49c3.55.51,7.16.86,10.85.86s7.3-.35,10.85-.87l20.48,128.5c2.7,26.58,25.17,47.32,52.52,47.32s49.82-20.74,52.52-47.32l20.47-128.49c3.54.51,7.14.86,10.82.86,41.86,0,75.82-33.96,75.82-75.82v-196.84c0-28.12-16.95-52.26-41.22-62.79ZM182.49,194.4c0-25.29,17.59-46.55,41.22-52.13V19.2c4.43-2.76,9.69-4.37,15.34-4.37h8.86c5.65,0,10.91,1.61,15.34,4.37v123.07c23.63,5.59,41.22,26.84,41.22,52.13v151.83c-13.74-18.75-35.95-30.88-60.99-30.88s-47.25,12.13-60.99,30.88v-151.83ZM14.83,194.4c0-25.29,17.59-46.55,41.22-52.13V19.2c4.43-2.76,9.69-4.37,15.34-4.37h8.86c5.65,0,10.91,1.61,15.34,4.37v123.07c23.63,5.59,41.22,26.84,41.22,52.13v151.83c-13.74-18.75-35.95-30.88-60.99-30.88s-47.25,12.13-60.99,30.88v-151.83ZM14.83,391.23c0-33.7,27.28-60.99,60.99-60.99,26.83,0,49.61,17.38,57.75,41.51-29.03,10.63-49.79,38.43-49.79,71.15,0,2.94.26,5.81.62,8.65-2.81.4-5.66.67-8.58.67-33.7,0-60.99-27.35-60.99-60.99ZM136.81,391.23c0,25.48-15.71,47.33-37.94,56.44-.12-1.58-.24-3.16-.24-4.77,0-25.52,15.69-47.35,37.94-56.45.12,1.58.24,3.17.24,4.79ZM202.26,558.15l-4.94,34.92-.39,2.76c-3.08,17.78-18.62,31.33-37.3,31.33s-34.22-13.55-37.3-31.33l-.39-2.76-4.94-34.92-8.38-59.24c13.47,12.27,31.33,19.82,50.99,19.82s37.55-7.56,51.03-19.85l-8.38,59.27ZM159.62,503.89c-26.87,0-49.63-17.4-57.76-41.52,29.02-10.64,49.78-38.43,49.78-71.13v-8.74c2.62-.34,5.27-.58,7.98-.58s5.4.24,8.04.59v8.73c0,32.68,20.71,60.47,49.73,71.12-8.13,24.13-30.89,41.54-57.77,41.54ZM220.37,447.66c-22.23-9.12-37.88-30.96-37.88-56.42,0-1.61.12-3.19.24-4.76,22.22,9.11,37.88,30.93,37.88,56.43,0,1.61-.12,3.18-.24,4.76ZM234.86,451.55c.34-2.84.59-5.71.59-8.65,0-32.7-20.73-60.48-49.74-71.13,8.12-24.14,30.88-41.52,57.77-41.52s49.62,17.39,57.76,41.53c-29,10.65-49.74,38.43-49.74,71.13,0,2.93.25,5.8.59,8.64-2.82.4-5.69.68-8.62.68s-5.8-.28-8.62-.68ZM304.47,391.23c0,25.46-15.68,47.29-37.88,56.41-.12-1.57-.24-3.15-.24-4.75,0-25.5,15.66-47.32,37.88-56.43.12,1.58.24,3.15.24,4.76ZM369.95,558.15l-4.94,34.92-.39,2.76c-3.08,17.78-18.62,31.33-37.3,31.33s-34.22-13.55-37.3-31.33l-.39-2.76-4.94-34.92-8.38-59.27c13.48,12.29,31.35,19.85,51.03,19.85s37.52-7.55,50.99-19.82l-8.38,59.24ZM327.34,503.89c-26.88,0-49.64-17.41-57.77-41.55,28.99-10.65,49.73-38.43,49.73-71.11v-8.73c2.64-.35,5.31-.59,8.04-.59s5.36.24,7.98.58v8.74c0,32.71,20.73,60.51,49.78,71.14-8.13,24.12-30.89,41.52-57.76,41.52ZM388.09,447.68c-22.26-9.1-37.94-30.95-37.94-56.45,0-1.62.12-3.2.24-4.79,22.25,9.09,37.94,30.93,37.94,56.45,0,1.61-.12,3.2-.24,4.78ZM411.14,452.22c-2.92,0-5.77-.28-8.58-.67.36-2.84.62-5.72.62-8.65,0-32.72-20.76-60.52-49.8-71.15,8.13-24.13,30.88-41.5,57.76-41.5,33.64,0,60.99,27.28,60.99,60.99s-27.35,60.99-60.99,60.99ZM472.13,346.23c-13.74-18.75-35.95-30.88-60.99-30.88s-47.25,12.13-60.99,30.88v-151.83c0-25.29,17.59-46.55,41.22-52.13V19.2c4.43-2.76,9.69-4.37,15.34-4.37h8.86c5.65,0,10.91,1.61,15.34,4.37v123.07c23.63,5.59,41.22,26.84,41.22,52.13v151.83Z"></path>
</svg>