<svg data-name="Layer 1" xmlns="http://www.w3.org/2000/svg" viewBox="0 0 625.74 614.51"><path d="M414.08 199.44C398.72 82.94 359.2 0 312.87 0s-85.85 82.94-101.2 199.44c-1.97.24-3.92.49-5.87.74C84.61 215.74 0 257.24 0 307.25s87.35 92.85 211.67 107.81c15.36 116.51 54.87 199.44 101.2 199.44s85.85-82.94 101.2-199.44c1.97-.24 3.92-.49 5.87-.74 121.19-15.56 205.8-57.06 205.8-107.08s-87.35-92.85-211.67-107.81Zm.75 209.76L210.92 205.3c-3.95 31.9-6.1 66.21-6.1 101.95s2.15 70.05 6.1 101.95C91.35 394.42 5.62 354.36 5.62 307.25s85.73-87.16 205.3-101.95c31.9-3.95 66.21-6.1 101.95-6.1s70.05 2.15 101.95 6.1c119.58 14.79 205.3 54.84 205.3 101.95s-85.73 87.16-205.3 101.95Z"></path></svg>