<svg width="642" viewBox="0 0 642 282" height="282" xmlns="http://www.w3.org/2000/svg"><path d="M.002 73.545c115.198 0 210.408 85.454 225.548 196.344a3.21 3.21 0 0 0 3.187 2.818 3.204 3.204 0 0 0 3.187-2.818C246.051 161.92 338.523 78.553 450.495 78.553v28.414c-100.154 0-182.39 76.584-191.201 174.308h-61.056c-9.863-100.657-94.85-179.31-198.236-179.31ZM548.688.3c51.135 0 92.58 41.395 92.58 92.46 0 51.065-41.445 92.46-92.58 92.46s-92.58-41.395-92.58-92.46c0-51.065 41.445-92.46 92.58-92.46Zm0 28.42c-35.417 0-64.127 28.67-64.127 64.04 0 35.369 28.71 64.039 64.127 64.039 35.417 0 64.127-28.67 64.127-64.04 0-35.368-28.71-64.039-64.127-64.039Z"></path></svg>