<svg data-name="Layer 1" xmlns="http://www.w3.org/2000/svg" viewBox="0 0 620.2 620.2"><path d="m236.893608 128.51396342 166.2966126-78.67907939 87.31808251 184.55606565-166.29661261 78.67907939zM567.53 175.57c45.92-21.73 65.53-76.57 43.8-122.49-21.73-45.92-76.57-65.53-122.49-43.8L405.7 48.62l78.68 166.29 83.14-39.34ZM307.1394151 324.22863437l184.55606564-87.3180825 78.6790794 166.2966126-184.55606566 87.31808251zM571.58 405.71l-166.29 78.68 39.34 83.14c21.73 45.92 76.57 65.53 122.49 43.8 45.92-21.73 65.53-76.57 43.8-122.49l-39.34-83.14ZM129.68419718 385.84543835l166.29661261-78.67907939 87.31808251 184.55606565L217.0022797 570.401504zM52.66 444.63C6.74 466.36-12.87 521.2 8.86 567.12c21.73 45.92 76.57 65.53 122.49 43.8l83.14-39.34-78.68-166.29-83.14 39.34ZM49.80794016 217.02922356l184.55606565-87.31808251 78.67907939 166.29661261-184.55606565 87.31808251zM48.62 214.49l166.29-78.68-39.34-83.14C153.84 6.74 99-12.87 53.08 8.86 7.16 30.59-12.45 85.43 9.28 131.35l39.34 83.14Z"></path></svg>