<svg data-name="Layer 1" xmlns="http://www.w3.org/2000/svg" viewBox="0 0 591.25 591.25"><path d="m170.02 227.24 205.81-208.9 213.04 205.44c.36.35.93.34 1.29-.01.35-.35.36-.93.01-1.29L375.68 0 158 215.23l12.01 12.01Z"></path><path d="M588.86 255.46c.36.35.93.34 1.29-.01.35-.35.36-.93.01-1.29L375.68 31.68 173.81 231.03l12.01 12.01L375.83 50.02l213.04 205.43Z"></path><path d="m375.83 81.7 213.04 205.43c.36.35.93.34 1.29-.01.35-.35.36-.93.01-1.29L375.68 63.36 189.61 246.84l12.01 12.01L375.83 81.7Z"></path><path d="M590.16 317.51 375.75 94.96 205.41 262.64l12.01 12.01 158.41-161.27 213.03 205.43c.36.35.93.34 1.29-.01.35-.35.36-.93.01-1.29Z"></path><path d="M375.76 126.63 221.22 278.45l12.01 12.01 142.6-145.39L588.86 350.5c.36.35.93.34 1.29-.01.35-.35.36-.93.01-1.29L375.77 126.63Z"></path><path d="m376.02 158-12.01 12.01L572.9 375.82 367.47 588.86c-.35.36-.34.93.01 1.29.35.35.93.36 1.29.01l222.48-214.48L376.02 158Z"></path><path d="m360.21 173.81-12.01 12.01 193.02 190.01-205.43 213.04c-.35.36-.34.93.01 1.29.35.35.93.36 1.29.01l222.47-214.48-199.35-201.87Z"></path><path d="m344.41 189.61-12.01 12.01 177.14 174.2-205.43 213.04c-.35.36-.34.93.01 1.29.35.35.93.36 1.29.01l222.48-214.48-183.48-186.07Z"></path><path d="m328.6 205.42-12.01 12.01 161.27 158.4-205.43 213.03c-.35.36-.34.93.01 1.29.35.35.93.36 1.29.01l222.55-214.41L328.6 205.41Z"></path><path d="M464.62 375.77 312.8 221.22l-12.01 12.01 145.39 142.6-205.43 213.03c-.35.36-.34.93.01 1.29.35.35.93.36 1.29.01l222.56-214.39Z"></path><path d="M421.23 364.01 215.42 572.9 2.38 367.47c-.36-.35-.93-.34-1.29.01s-.36.93-.01 1.29l214.48 222.48 217.68-215.23-12.01-12.01Z"></path><path d="M2.38 335.79c-.36-.35-.93-.34-1.29.01s-.36.93-.01 1.29l214.48 222.47 201.87-199.35-12.01-12.01-190.01 193.02L2.38 335.79Z"></path><path d="M215.42 509.54 2.38 304.11a.924.924 0 0 0-1.29.01c-.35.35-.36.93-.01 1.29l214.48 222.48 186.07-183.48-12.01-12.01-174.2 177.14Z"></path><path d="M215.42 477.86 2.38 272.43a.924.924 0 0 0-1.29.01c-.35.35-.36.93-.01 1.29l214.41 222.55L385.83 328.6l-12.01-12.01-158.4 161.27Z"></path><path d="M215.41 446.18 2.38 240.76c-.36-.35-.93-.34-1.29.01s-.36.93-.01 1.29l214.39 222.56L370.01 312.8 358 300.79 215.4 446.18Z"></path><path d="M227.24 421.23 18.34 215.42 223.78 2.38c.35-.36.34-.93-.01-1.29a.924.924 0 0 0-1.29-.01L0 215.56l215.23 217.68 12.01-12.01Z"></path><path d="m231.03 417.44 12.01-12.01L50.02 215.42 255.46 2.38c.35-.36.34-.93-.01-1.29a.924.924 0 0 0-1.29-.01L31.68 215.57l199.35 201.87Z"></path><path d="m246.84 401.63 12.01-12.01L81.7 215.42 287.14 2.38c.35-.36.34-.93-.01-1.29a.924.924 0 0 0-1.29-.01L63.36 215.56l183.48 186.07Z"></path><path d="m262.64 385.83 12.01-12.01-161.27-158.4L318.81 2.38c.35-.36.34-.93-.01-1.29a.924.924 0 0 0-1.29-.01L94.96 215.49l167.68 170.34Z"></path><path d="m126.63 215.48 151.82 154.55 12.01-12.01-145.4-142.61L350.49 2.38c.35-.36.34-.93-.01-1.29a.924.924 0 0 0-1.29-.01l-222.56 214.4Z"></path></svg>