<svg xmlns="http://www.w3.org/2000/svg" width="619.7" viewBox="0 0 619.7 619.7" height="619.7" xml:space="preserve" style="enable-background:new 0 0 619.7 619.7"><path d="m326.7 281.5-16.9-52.2-16.8 52.2-54.9-.1 44.5 32.1-17.1 52.2 44.3-32.4 44.4 32.4-17.1-52.2 44.5-32.1z"></path><path d="m426 116.2-38.7 38.7 154.9 154.9L271.1 581l38.7 38.7 309.9-309.9z"></path><path d="M367.9 174.3 329.2 213l96.8 96.8-213 213.1 38.7 38.7 251.8-251.8zM77.5 309.8 348.6 38.7 309.8 0 0 309.8l193.7 193.7 38.7-38.7z"></path><path d="m251.7 445.4 38.8-38.7-96.8-96.9 213-213-38.8-38.7-251.7 251.7z"></path></svg>