<svg data-name="Layer 1" xmlns="http://www.w3.org/2000/svg" viewBox="0 0 559.23 559.23"><path d="M538.93 0H301.55c-11.04 0-20 8.95-20 20v237.38c0 11.04 8.95 20 20 20h237.38c11.04 0 20-8.95 20-20V20c0-11.04-8.95-20-20-20Zm-16.69 151.45-10.94 10.94c-4.09 4.09-10.75 3.95-14.67-.29l-48.62-52.67c-3.38-3.67-9.51-1.27-9.51 3.72v126.02c0 5.62-4.56 10.18-10.18 10.18h-16.16c-5.62 0-10.18-4.56-10.18-10.18V113.15c0-4.99-6.12-7.38-9.51-3.72l-48.62 52.67c-3.92 4.25-10.59 4.38-14.67.29l-10.94-10.94c-4.02-4.02-3.97-10.54.11-14.5l95.44-92.59c3.59-3.48 9.3-3.48 12.89 0l95.44 92.59c4.08 3.96 4.13 10.48.11 14.5Z"></path><path d="M212.13 0H20C8.95 0 0 8.95 0 20v519.24c0 11.04 8.95 20 20 20h519.24c11.04 0 20-8.95 20-20V347.1c0-11.04-8.95-20-20-20H252.12c-11.04 0-20-8.95-20-20V20c0-11.04-8.95-20-20-20Z"></path></svg>