<svg data-name="Layer 1" xmlns="http://www.w3.org/2000/svg" viewBox="0 0 608.52 608.52"><path d="M314.53 0c3.85 1.33 7.48 3.42 10.54 6.48 10.81 10.81 10.81 28.49 0 39.3l-55.46 55.46-102.76 24.16L285.77 6.48c3.06-3.06 6.69-5.15 10.54-6.48H0v294.97c1.34-3.04 3.18-5.9 5.66-8.38l118.92-118.92-24.16 102.76-55.46 55.46c-10.81 10.81-28.49 10.81-39.3 0-2.48-2.48-4.32-5.34-5.66-8.38v291.01h608.52V0H314.53Zm18.21 53.45c10.81-10.81 28.49-10.81 39.3 0 10.81 10.81 10.81 28.49 0 39.3l-55.46 55.46-102.76 24.16L332.74 53.45Zm-218.6 109.1c-10.94 10.94-28.67 10.94-39.61 0-10.94-10.94-10.94-28.67 0-39.61 10.94-10.94 28.67-10.94 39.61 0 10.94 10.94 10.94 28.67 0 39.61Zm7.98-47.59c-10.94-10.94-10.94-28.67 0-39.61 10.94-10.94 28.67-10.94 39.61 0 10.94 10.94 10.94 28.67 0 39.61-10.94 10.94-28.67 10.94-39.61 0Zm25.27 202.44-55.46 55.46c-10.81 10.81-28.49 10.81-39.3 0-10.81-10.81-10.81-28.49 0-39.3l118.92-118.92-24.16 102.76Zm214.88 84.16-235.8-235.79 39.3-39.3 235.79 235.79-39.3 39.3Z"></path></svg>