<svg data-name="Layer 1" xmlns="http://www.w3.org/2000/svg" viewBox="0 0 605.71 605.71"><path d="M605.71 302.86c0-7.77-.39-15.44-.96-23.06h-63.71c6.64-18.31 20.7-33.4 39.49-41.13l16.52-6.8-5.26-17.07C562.31 119.18 487.63 44.49 392 15.02l-17.07-5.26-6.8 16.52c-7.89 19.16-23.41 33.39-42.21 39.86V.96C318.3.39 310.63 0 302.86 0s-15.44.39-23.06.96v65.18c-18.8-6.48-34.33-20.71-42.22-39.86l-6.8-16.52-17.07 5.26C118.09 44.49 43.41 119.17 13.93 214.79l-5.26 17.07 16.52 6.8c18.79 7.73 32.85 22.82 39.49 41.13H.96C.39 287.41 0 295.08 0 302.85s.39 15.44.96 23.06h64.47c-6.3 19.28-20.72 35.26-40.24 43.3l-16.52 6.8 5.26 17.07c29.48 95.62 104.16 170.31 199.79 199.79l17.07 5.26 6.8-16.52c7.89-19.16 23.42-33.39 42.22-39.87v63.01c7.62.57 15.29.96 23.06.96s15.44-.39 23.06-.96v-63.01c18.8 6.48 34.33 20.71 42.21 39.87l6.8 16.52 17.07-5.26c95.62-29.48 170.31-104.16 199.79-199.79l5.26-17.07-16.52-6.8c-19.52-8.04-33.94-24.01-40.24-43.3h64.46c.57-7.62.96-15.29.96-23.06ZM431.67 279.8c-3.53-18.86-11.09-36.27-21.78-51.37l45.45-45.44c21.7 27.3 36.22 60.52 40.73 96.82h-64.4ZM302.86 395.93c-50.72 0-91.99-41.27-91.99-91.99s41.27-91.99 91.99-91.99 91.98 41.27 91.98 91.99-41.26 91.99-91.98 91.99Zm93-338.23c70.76 26.68 126.56 82.47 153.24 153.24-9 5.61-17.04 12.44-23.92 20.2-23.15-70.53-78.98-126.36-149.51-149.51 7.76-6.89 14.59-14.93 20.2-23.93Zm26.74 92.81-45.47 45.47c-15.09-10.42-32.47-17.67-51.21-21.02v-64.37c36.19 4.29 69.34 18.53 96.68 39.91ZM279.8 110.6v64.37c-18.74 3.34-36.12 10.6-51.22 21.02l-45.47-45.47c27.34-21.39 60.5-35.63 96.69-39.92Zm-69.95-52.89c5.61 9 12.44 17.04 20.2 23.93-70.53 23.15-126.36 78.98-149.51 149.51-6.89-7.76-14.93-14.59-23.93-20.2 26.68-70.77 82.47-126.56 153.24-153.24ZM150.38 183l45.44 45.44c-10.69 15.1-18.25 32.52-21.78 51.37h-64.39c4.51-36.3 19.03-69.52 40.73-96.82Zm23.33 142.93c3.25 19.15 10.57 36.91 21.18 52.3l-45.47 45.47c-21.6-27.61-35.92-61.16-40.05-97.76h64.34Zm36.14 224.27c-70.76-26.68-126.56-82.47-153.24-153.24 9-5.62 17.04-12.44 23.93-20.21 23.15 70.53 78.98 126.36 149.51 149.51-7.76 6.89-14.59 14.93-20.2 23.93Zm-27.95-93.77 45.44-45.44c15.39 10.89 33.19 18.51 52.46 21.95v64.37c-36.72-4.35-70.33-18.95-97.9-40.87Zm144.02 40.87v-64.37c19.27-3.44 37.06-11.06 52.45-21.94l45.45 45.44c-27.57 21.91-61.17 36.51-97.9 40.87Zm69.94 52.9c-5.61-9-12.44-17.04-20.2-23.93 70.53-23.15 126.36-78.98 149.51-149.51 6.89 7.76 14.92 14.58 23.92 20.2-26.68 70.76-82.47 126.56-153.24 153.24Zm60.43-126.5-45.47-45.47c10.62-15.38 17.93-33.15 21.19-52.3h64.34c-4.13 36.61-18.46 70.15-40.06 97.77Z"></path></svg>