<svg data-name="Layer 1" xmlns="http://www.w3.org/2000/svg" viewBox="0 0 627.57 627.57"><path d="M313.79 219.83c22.41-.67 39.68-20.22 39.68-42.64V1.02c0-1.07-1.46-1.43-1.9-.45-5.04 11.05-19.66 19.02-39.03 19.02s-34-7.97-39.03-19.02c-.45-.98-1.9-.62-1.9.45v177.89c0 23.03 19.01 41.62 42.2 40.92ZM458.95 95.03 363.92.31c-.67-.67-1.81-.19-1.81.75v190.19c0 .95 1.15 1.42 1.82.75l95.03-95.47c.41-.42.41-1.09 0-1.5ZM380.22 247.35c16.32 15.37 42.36 13.76 58.21-2.09L563 120.69c.76-.76-.02-2.04-1.03-1.67-11.37 4.25-27.35-.45-41.05-14.15-13.7-13.7-18.4-29.68-14.15-41.05.38-1.01-.91-1.79-1.67-1.03L379.32 188.57c-16.28 16.28-15.98 42.87.9 58.77ZM435.35 263.13l134.7-.32c.59 0 1.06-.48 1.06-1.06l-.22-134.17c0-.95-1.14-1.42-1.81-.75L434.6 261.31c-.67.67-.19 1.82.75 1.81ZM407.74 313.79c.67 22.41 20.22 39.68 42.64 39.68h176.17c1.07 0 1.43-1.46.45-1.9-11.05-5.04-19.02-19.66-19.02-39.03s7.98-34 19.02-39.03c.98-.44.62-1.9-.45-1.9H448.67c-23.03 0-41.62 19.01-40.92 42.2ZM626.51 362.11H436.32c-.95 0-1.42 1.15-.75 1.82l95.47 95.03c.42.41 1.09.41 1.5 0l94.72-95.03c.67-.67.19-1.81-.75-1.81ZM439 379.32c-16.28-16.28-42.87-15.98-58.77.9-15.37 16.32-13.76 42.36 2.09 58.21L506.89 563c.76.76 2.04-.02 1.67-1.03-4.25-11.37.45-27.35 14.15-41.05 13.7-13.7 29.68-18.4 41.05-14.15 1.01.38 1.79-.91 1.03-1.67L439.01 379.32ZM366.26 434.6c-.67-.67-1.82-.19-1.81.75l.32 134.7c0 .59.48 1.06 1.06 1.06l134.17-.22c.95 0 1.42-1.15.75-1.81L366.27 434.6ZM313.79 407.74c-22.41.67-39.68 20.22-39.68 42.64v176.17c0 1.07 1.46 1.43 1.9.45 5.04-11.05 19.66-19.02 39.03-19.02s34 7.97 39.03 19.02c.44.98 1.9.62 1.9-.45V448.67c0-23.03-19.01-41.62-42.2-40.92ZM263.65 435.57l-95.03 95.47c-.41.42-.41 1.09 0 1.5l95.03 94.72c.67.67 1.81.19 1.81-.75V436.32c0-.95-1.15-1.42-1.82-.75ZM247.35 380.22c-16.32-15.37-42.36-13.76-58.21 2.09L64.57 506.88c-.76.76.02 2.04 1.03 1.67 11.37-4.25 27.35.45 41.05 14.15 13.7 13.7 18.4 29.68 14.15 41.05-.38 1 .91 1.79 1.67 1.03L248.25 439c16.28-16.28 15.98-42.87-.9-58.77ZM192.22 364.44l-134.7.32c-.59 0-1.06.48-1.06 1.06l.22 134.17c0 .95 1.15 1.42 1.81.75l134.48-134.48c.67-.67.19-1.82-.75-1.81ZM219.83 313.79c-.67-22.41-20.22-39.68-42.64-39.68H1.02c-1.07 0-1.43 1.46-.45 1.9 11.05 5.04 19.02 19.66 19.02 39.03s-7.97 34-19.02 39.03c-.98.45-.62 1.9.45 1.9h177.89c23.03 0 41.62-19.01 40.92-42.2ZM1.06 265.46h190.19c.95 0 1.42-1.15.75-1.82l-95.47-95.03c-.42-.41-1.09-.41-1.5 0L.31 263.65c-.67.67-.19 1.81.75 1.81ZM188.57 248.25c16.28 16.28 42.87 15.98 58.77-.9 15.37-16.32 13.76-42.36-2.09-58.21L120.69 64.57c-.76-.76-2.04.02-1.67 1.03 4.25 11.37-.45 27.35-14.15 41.05-13.7 13.7-29.68 18.4-41.05 14.15-1.01-.38-1.79.91-1.03 1.67l125.78 125.78ZM261.31 192.97c.67.67 1.82.19 1.81-.75l-.32-134.7c0-.59-.48-1.06-1.06-1.06l-134.17.22c-.95 0-1.42 1.15-.75 1.81L261.3 192.97Z"></path></svg>