<svg data-name="Layer 1" xmlns="http://www.w3.org/2000/svg" viewBox="0 0 612.3 611.5"><path d="M306.16 0C137.34 0 0 137.34 0 306.15S126.09 600.64 285.11 611.5V508.78l-112.42-93.35v-99.91l133.46 110.82 133.46-110.82v99.91l-112.43 93.35V611.5c159.03-10.85 285.11-143.62 285.11-305.35S474.97 0 306.16 0Zm-17.65 365.81L172.7 269.65v-99.91l115.81 96.17v99.91Zm35.3 0V265.9l115.81-96.17v99.91L323.81 365.8Zm38.68 205.16v-45.62L474.92 432V94.55L306.16 234.68 137.4 94.55v337.46l112.42 93.35v45.62C127.43 544.98 35.3 436.19 35.3 306.16c0-149.35 121.51-270.85 270.86-270.85s270.85 121.5 270.85 270.85c0 130.03-92.13 238.82-214.52 264.82Z"></path></svg>