<svg xmlns="http://www.w3.org/2000/svg" width="616.1" viewBox="0 0 616.1 616.6" height="616.6" xml:space="preserve" style="enable-background:new 0 0 616.1 616.6"><path d="M300.2 382.9V158.4h-49.8l.8-.8 57-57 .2.3 81.3 81.2 50.2-50.3-81.4-81.5L308.2 0 179.5 128.7v100.5h49.8l-.3 82.6h-73.7v51.5l-54.7-54.6.3-.3-.3-.2 78.9-79-50.3-50.3L0 308.2l125.9 126.3h100.6l-.1-51.6z"></path><path d="M616.1 308.4 490.2 182l-100.5.1v51.6H316v224.5h49.8l-.8.8-57 57-.3-.3-81.2-81.2-50.3 50.3 81.5 81.5 50.3 50.3 128.6-128.7V387.3h-49.8l.3-82.5h73.7v-51.5l54.7 54.6-.2.2.2.3-78.9 78.9 50.3 50.3z"></path></svg>