<svg data-name="Layer 1" xmlns="http://www.w3.org/2000/svg" viewBox="0 0 623.51 532.92"><path d="M21.54 187.01h580.43c3.2 0 5.38-3.24 4.18-6.2C563.43 75.49 447.75 0 311.75 0S60.08 75.49 17.36 180.81c-1.2 2.96.98 6.2 4.18 6.2ZM601.95 345.96H21.56c-3.2 0-5.38 3.24-4.18 6.2 42.73 105.29 158.39 180.76 294.37 180.76s251.64-75.47 294.37-180.76c1.2-2.96-.98-6.2-4.18-6.2ZM4.65 261.63c35.9-1.14 261.62-8.27 307.1-8.27s271.19 6.84 307.1 7.94c2.62.08 4.76-2.09 4.64-4.7-.3-6.39-.85-12.72-1.66-18.99-.3-2.33-2.33-4.04-4.67-3.93-33.36 1.53-259.63 11.8-305.41 11.8s-272.04-10.27-305.4-11.8c-2.34-.11-4.38 1.6-4.67 3.93-.82 6.37-1.37 12.82-1.67 19.32-.12 2.62 2.03 4.78 4.65 4.7ZM10.03 223.97c38.09-.72 256.62-4.81 301.72-4.81s263.64 4.09 301.72 4.81c2.91.05 5.12-2.63 4.48-5.47-1.42-6.31-3.09-12.55-5.01-18.7-.62-1.98-2.51-3.3-4.58-3.17-30.46 1.91-250.61 15.56-296.61 15.56S45.61 198.55 15.14 196.64c-2.08-.13-3.96 1.18-4.58 3.17-1.92 6.15-3.59 12.39-5.01 18.7-.64 2.84 1.57 5.52 4.48 5.47ZM618.85 271.35c-35.91 1.14-261.62 8.27-307.1 8.27s-271.19-7.13-307.1-8.27c-2.62-.08-4.77 2.08-4.65 4.7.3 6.5.86 12.94 1.67 19.32.3 2.33 2.33 4.04 4.67 3.93 33.36-1.53 259.62-11.8 305.4-11.8s272.04 10.27 305.4 11.8c2.34.11 4.38-1.6 4.67-3.93.82-6.38 1.38-12.82 1.67-19.32.12-2.62-2.03-4.78-4.65-4.7ZM613.49 308.97c-38.84.54-266.18 3.71-301.74 4.61-35.56-.9-262.9-4.07-301.74-4.61-2.9-.04-5.1 2.64-4.46 5.47 1.42 6.32 3.1 12.57 5.02 18.73.62 1.98 2.51 3.3 4.58 3.16 30.46-1.9 250.6-15.55 296.6-15.55s266.14 13.65 296.6 15.55c2.08.13 3.96-1.18 4.58-3.16 1.92-6.16 3.6-12.4 5.02-18.73.64-2.83-1.56-5.51-4.46-5.47Z"></path></svg>