<svg xmlns="http://www.w3.org/2000/svg" width="599.6" viewBox="0 0 599.6 430.2" height="430.2" xml:space="preserve"><path d="M0 430.2v-79.6h263l58.5-58.5 63.2 63.2-74.8 74.8H0v.1zm392.1-208.7-63.9 63.9 121.7 122.1-22.7 22.7h94v-79.6L392.1 221.5zm133.8 121h73.7v-87.6l-17.4 17.4-50.8-50.8-63.4 63.1 57.9 57.9zM0 342.5v-79.6h210.4l111.1-112.1 64.2 64.2-127.5 127.5H0zm398.5-127.4L525.9 87.6h73.7v87.6l-17.4-17.4-120.5 120.5-63.2-63.2zM0 175.3h204.6l39.8 39.8-39.8 39.8H0v-79.6zm0-87.7v79.6h210.4l40.4 41.5 64.2-64.2-56.8-56.8H0v-.1zM0 0v79.6h263l129.1 129.1 63.2-63.2L309.9 0H0zm449.8 22.7L397.7 75l64 64 59.5-59.5V0h-94l22.6 22.7z" fill-rule="evenodd" clip-rule="evenodd"></path></svg>