<svg xmlns="http://www.w3.org/2000/svg" width="613" viewBox="0 0 613 613.8" height="613.8" xml:space="preserve" style="enable-background:new 0 0 613 613.8"><path d="M613 307.6 510.7 205.3l-39.6 39.6c8-11.8 12.7-26 12.7-41.3 0-40.6-32.9-73.6-73.6-73.6-15.6 0-30.1 4.9-42 13.2l41-41L306.9 0 204.6 102.3l40.3 40.3c-11.8-8-26-12.7-41.3-12.7-40.6 0-73.6 32.9-73.6 73.6 0 15.6 4.9 30.1 13.2 42l-41-41L0 306.9l102.3 102.3 40.3-40.3c-8 11.8-12.7 26-12.7 41.3 0 40.6 32.9 73.6 73.6 73.6 15.6 0 30.1-4.9 42-13.2l-41 41 102.3 102.3 102.3-102.3-40.3-40.3c11.8 8 26 12.7 41.3 12.7 40.6 0 73.6-32.9 73.6-73.6 0-13.8-3.8-26.7-10.4-37.8l37.5 37.5L613 307.6zm-306.1-103 43-43c-8.3 11.9-13.2 26.4-13.2 42 0 16.4 5.4 31.6 14.5 43.9h-88.6c9.2-12.3 14.6-27.5 14.6-44 0-15.3-4.7-29.5-12.7-41.3l42.4 42.4zM162.2 349.3l42.4-42.4-43-43c11.9 8.3 26.4 13.2 42 13.2 16.4 0 31.6-5.4 43.9-14.5v88.6c-12.3-9.2-27.5-14.6-44-14.6-15.3 0-29.5 4.7-41.3 12.7zm144.7 59.9-43 43c8.3-11.9 13.2-26.4 13.2-42 0-16.4-5.4-31.6-14.5-43.9h88.6c-9.2 12.3-14.6 27.5-14.6 44 0 15.3 4.7 29.5 12.7 41.3l-42.4-42.4zm103.3-72.5c-16.4 0-31.6 5.4-43.9 14.5v-88.6c12.3 9.2 27.5 14.6 44 14.6 15.3 0 29.5-4.7 41.3-12.7l-43.1 43.1 39.5 39.5c-11.1-6.6-24-10.4-37.8-10.4z"></path></svg>