<svg id="Layer_1" data-name="Layer 1" xmlns="http://www.w3.org/2000/svg" viewBox="0 0 620.12 407.02">   <path d="M150.29,156.02l47.99-53.25L86.51,2.03,38.52,55.29c-55.41,61.48-50.44,157.11,11.04,212.51h0c20.33,18.32,44.4,30,69.51,35.26-15.85-49.45-5.86-105.88,31.23-147.03Z"></path>   <path d="M570.57,139.22c-20.33-18.32-44.4-30-69.51-35.26,15.85,49.45,5.86,105.88-31.23,147.03l-47.99,53.25,111.78,100.74,47.99-53.25c55.41-61.48,50.44-157.11-11.04-212.51Z"></path>   <path d="M262.07,256.76c-37.08,41.15-92.18,56.94-143.01,46.3,7.83,24.43,21.94,47.16,42.27,65.48h0c20.33,18.32,44.4,30,69.51,35.26,50.82,10.64,105.92-5.15,143.01-46.3l47.99-53.25-111.78-100.74-47.99,53.25Z"></path>   <path d="M358.06,150.26c37.08-41.15,92.18-56.94,143.01-46.3-7.83-24.43-21.94-47.16-42.27-65.48h0c-20.33-18.32-44.4-30-69.51-35.26-50.82-10.64-105.92,5.15-143.01,46.3l-47.99,53.25,111.78,100.74,47.99-53.25Z"></path> </svg>