<svg xmlns="http://www.w3.org/2000/svg" width="642" viewBox="0 0 642 470.43" height="470.43" data-name="Layer 1"><path d="M191.38 176.92 247.68 0h-40.63l-43.94 143.73H25.55l-10.78 33.19h176.61zM97.98 470.43l55.5-174.44L10.53 189.97 0 222.37l115.56 83.46-53.32 164.6h35.74zM543.83 193.28c29.96-18.33 50.02-51.26 50.02-88.95C593.85 46.71 547.14 0 489.52 0H257.89l56.3 176.92h198.12L352.05 295.87l55.55 174.55h92.36c78.45 0 142.04-63.59 142.04-142.04 0-63.13-41.2-116.62-98.17-135.1ZM252.76 410.93l-80.25 59.5h-55.67l135.92-100.85 135.91 100.85h-55.66l-80.25-59.5z"></path></svg>