<svg xmlns="http://www.w3.org/2000/svg" width="626.2" viewBox="0 0 626.2 559.7" height="559.7" xml:space="preserve" style="enable-background:new 0 0 626.2 559.7"><path d="M375.1 480c-19.4 0-38.3-2.5-56.4-7v56.5h-11.2V473c-18 4.6-36.9 7-56.4 7C125 480 22.3 377.3 22.3 251.2 22.3 125 125 22.3 251.2 22.3c21.5 0 42.2 3 61.9 8.5 19.7-5.6 40.5-8.5 62-8.5 126.2 0 228.8 102.7 228.8 228.8 0 126.2-102.6 228.9-228.8 228.9m0-480c-21.4 0-42.1 2.7-62 7.7-19.8-5-40.6-7.7-61.9-7.7C112.5 0 0 112.4 0 251.2c0 138.7 112.5 251.2 251.2 251.2 11.5 0 22.9-.8 34-2.3v59.7H341V500c11.1 1.5 22.5 2.3 34 2.3 138.7 0 251.2-112.5 251.2-251.2S513.8 0 375.1 0"></path><path d="M341 424.7v-97.3l103.6-103.6c1.3 9 1.9 18.1 1.9 27.4 0 75.4-42.8 140.9-105.5 173.5m127.8-173.5c0-24.8-4.2-48.6-11.8-70.8L318.7 318.6V458c87.1-28.4 150.1-110.4 150.1-206.8M55.8 251.2c0-94.7 67.4-173.6 156.8-191.5-54.3 46.1-88.7 114.8-88.7 191.5 0 76.8 34.4 145.5 88.7 191.5-89.4-17.9-156.8-96.8-156.8-191.5m90.4 0c0-97.3 61-180.6 146.8-213.6-13.6-2.6-27.5-4.1-41.9-4.1-120 0-217.7 97.7-217.7 217.7 0 120 97.7 217.7 217.7 217.7 14.3 0 28.3-1.4 41.9-4.1-85.7-33.1-146.8-116.4-146.8-213.6"></path><path d="m181.7 223.7 103.6 103.6v97.4c-62.7-32.5-105.5-98-105.5-173.5-.1-9.4.6-18.5 1.9-27.5m-24.3 27.5c0 96.5 63.1 178.4 150.1 206.9V318.6L169.2 180.3c-7.6 22.2-11.8 46.1-11.8 70.9M413.6 442.7c54.3-46.1 88.7-114.8 88.7-191.5s-34.4-145.5-88.7-191.5c89.4 17.9 156.8 96.8 156.8 191.5S503 424.8 413.6 442.7M375.1 33.5c-14.3 0-28.3 1.4-41.9 4.1C419 70.6 480 153.9 480 251.2s-61 180.6-146.8 213.6c13.6 2.6 27.5 4.1 41.9 4.1 120 0 217.7-97.7 217.7-217.7S495.1 33.5 375.1 33.5M285.2 77.7v171.8L200 164.3c18.5-37.1 48.4-67.5 85.2-86.6m-111.6 91.1 134 134V44.2c-60.8 19.9-109.9 65.9-134 124.6"></path><path d="M341 77.7c36.8 19.1 66.7 49.5 85.2 86.7L341 249.5V77.7zm-22.3-33.5v258.6l134-134c-24.1-58.7-73.2-104.7-134-124.6"></path></svg>