<svg id="Layer_1" data-name="Layer 1" xmlns="http://www.w3.org/2000/svg" viewBox="0 0 613.18 459.68"><defs></defs><path class="cls-1" d="M384.89 231.83c3.85-2.12 17.1-9.8 17.1-9.8 5.94-3.63 7.54-11.17 3.98-16.65-3.56-5.48-11.65-7.14-17.59-3.51l-6.84 4.17c-4.89 2.99-11.17-.53-11.17-6.27v-9.6c0-6.69-5.43-12.12-12.12-12.12s-12.12 5.43-12.12 12.12v9.6c0 5.73-6.27 9.25-11.17 6.27l-6.84-4.17c-5.94-3.63-14.03-1.97-17.59 3.51-3.56 5.48-1.96 13.02 3.98 16.65 0 0 13.25 7.68 17.1 9.8 3.98 2.2 5.62 5.25 4.37 8.15-1.95 4.54-6.39 4.25-11.41 2.67-4.78-1.5-9.93-.55-13.01 4.49l-.08.13c-4.18 6.78-.24 15.17 5.31 18.56l39.99 21.87c.9.49 1.99.49 2.89 0l39.99-21.87c5.55-3.39 9.49-11.78 5.31-18.56l-.08-.13c-3.08-5.04-8.23-5.99-13.01-4.49-5.02 1.57-9.46 1.87-11.41-2.67-1.25-2.9.39-5.96 4.37-8.15ZM442.9 316.73l7.19-3.52c6.25-3.06 9.2-10.78 6.49-16.72-2.71-5.94-9.93-8.65-16.18-5.59 0 0-13.6 7.05-17.46 9.15-3.99 2.18-7.45 1.91-9.22-.7-2.78-4.09-.14-7.68 3.88-11.06 3.84-3.23 5.8-8.08 3.21-13.38l-.06-.13c-3.47-7.16-12.67-8.35-18.51-5.49l-39.94 21.97c-.9.5-1.49 1.42-1.56 2.44l.26 46.93c0 6.48 4.8 14.26 12.7 14.45 5.87.09 9.72-3.72 11.02-8.55 1.37-5.08 3.24-9.48 6.8-9.27 3.45.21 5.18 3.41 5.18 5.89v19.88c-.13 6.96 5.37 12.36 11.9 12.31 6.53-.06 12.28-5.98 12.41-12.95l.16-8.01c.23-4.61 3.8-6.58 7.98-4.43l10.98 3.87c7.1 1.98 13.61.89 16.01-4.78 2.4-5.67-.12-13.12-5.76-16.72l-8.15-4.64c-4.83-3.08-4.5-8.44.65-10.96ZM545.9 316.73l7.19-3.52c6.25-3.06 9.2-10.78 6.49-16.72-2.71-5.94-9.93-8.65-16.18-5.59 0 0-13.6 7.05-17.46 9.15-3.99 2.18-7.45 1.91-9.22-.7-2.78-4.09-.14-7.68 3.88-11.06 3.84-3.23 5.8-8.08 3.21-13.38l-.06-.13c-3.47-7.16-12.67-8.35-18.51-5.49l-39.94 21.97c-.9.5-1.49 1.42-1.56 2.44l.26 46.93c-.13 6.47 4.8 14.26 12.7 14.45 5.87.09 9.72-3.72 11.02-8.55 1.37-5.08 3.24-9.48 6.8-9.27 3.45.21 5.18 3.41 5.18 5.89v19.88c-.13 6.96 5.37 12.36 11.9 12.31 6.53-.06 12.28-5.98 12.41-12.95l.16-8.01c.23-4.61 3.8-6.58 7.98-4.43l10.98 3.87c7.1 1.98 13.61.89 16.01-4.78 2.4-5.67-.12-13.12-5.76-16.72l-8.15-4.64c-4.83-3.08-4.5-8.44.65-10.96ZM373.8 355.08H373.65h.14ZM605.25 245.23l-6.94-4c-4.97-2.86-4.88-10.06.15-12.8l8.42-4.6c5.87-3.21 8.03-10.57 4.82-16.44-3.21-5.87-10.57-8.03-16.44-4.82l-8.42 4.6c-5.03 2.75-11.13-1.07-10.85-6.8l.38-8c.33-6.95-5-13.26-11.51-13.75-6.51-.5-12.36 4.52-12.7 11.48 0 0-.38 15.31-.4 19.71-.02 4.55-1.92 7.45-5.06 7.74-4.92.46-6.79-3.58-7.82-8.73-.98-4.92-4.28-8.98-10.18-9.27h-.15c-7.95-.42-13.43 7.06-13.74 13.55l-.02 45.58c0 1.03.52 1.99 1.39 2.54l38.37 24.61c5.63 3.25 14.89 2.68 18.83-4.24l.07-.13c2.95-5.11 1.31-10.09-2.3-13.57-3.79-3.65-6.17-7.41-3.13-11.3 1.95-2.48 5.41-2.51 9.25-.07 3.71 2.36 16.8 10.31 16.8 10.31 6.03 3.48 13.42 1.26 16.52-4.49 3.1-5.75.68-13.64-5.35-17.12ZM499.45 100.33s-.38 15.31-.4 19.71c-.02 4.55-1.92 7.45-5.06 7.74-4.92.46-6.79-3.58-7.82-8.73-.98-4.92-4.28-8.98-10.18-9.27h-.15c-7.95-.42-13.43 7.06-13.74 13.55l-.02 45.58c0 1.03.52 1.99 1.39 2.54l38.37 24.61c5.63 3.25 14.89 2.68 18.83-4.24l.07-.13c2.95-5.11 1.31-10.09-2.3-13.57-3.79-3.65-6.17-7.41-3.13-11.3 1.95-2.48 5.41-2.51 9.25-.07 3.71 2.36 16.8 10.31 16.8 10.31 6.03 3.48 13.42 1.26 16.52-4.49 3.1-5.75.68-13.64-5.35-17.12l-6.94-4c-4.97-2.86-4.88-10.06.15-12.8l8.42-4.6c5.87-3.21 8.03-10.57 4.82-16.44-3.21-5.87-10.57-8.03-16.44-4.82l-8.42 4.6c-5.03 2.75-11.13-1.07-10.85-6.8l.38-8c.33-6.95-5-13.26-11.51-13.75-6.51-.5-12.37 4.52-12.7 11.48ZM294.32 101.42v9.6c0 5.73-6.27 9.25-11.17 6.27l-6.84-4.17c-5.94-3.63-14.03-1.97-17.59 3.51-3.56 5.48-1.96 13.02 3.98 16.65 0 0 13.25 7.68 17.1 9.8 3.98 2.2 5.62 5.25 4.37 8.15-1.95 4.54-6.39 4.25-11.41 2.67-4.78-1.5-9.93-.55-13.01 4.49l-.08.13c-4.18 6.78-.24 15.17 5.31 18.56l39.99 21.87c.9.49 1.99.49 2.89 0l39.99-21.87c5.55-3.39 9.49-11.78 5.31-18.56l-.08-.13c-3.08-5.04-8.23-5.99-13.01-4.49-5.02 1.57-9.46 1.87-11.41-2.67-1.25-2.9.39-5.96 4.37-8.15 3.85-2.12 17.1-9.8 17.1-9.8 5.94-3.63 7.54-11.17 3.98-16.65-3.56-5.48-11.65-7.14-17.59-3.51l-6.84 4.17c-4.89 2.99-11.17-.53-11.17-6.27v-9.6c0-6.69-5.43-12.12-12.12-12.12s-12.12 5.43-12.12 12.12ZM396.7 101.42v9.6c0 5.73-6.27 9.25-11.17 6.27l-6.84-4.17c-5.94-3.63-14.03-1.97-17.59 3.51-3.56 5.48-1.96 13.02 3.98 16.65 0 0 13.25 7.68 17.1 9.8 3.98 2.2 5.62 5.25 4.37 8.15-1.95 4.54-6.39 4.25-11.41 2.67-4.78-1.5-9.93-.55-13.01 4.49l-.08.13c-4.18 6.78-.24 15.17 5.31 18.56l39.99 21.87c.9.49 1.99.49 2.89 0l39.99-21.87c5.55-3.39 9.49-11.78 5.31-18.56l-.08-.13c-3.08-5.04-8.23-5.99-13.01-4.49-5.02 1.57-9.46 1.87-11.41-2.67-1.25-2.9.39-5.96 4.37-8.15 3.85-2.12 17.1-9.8 17.1-9.8 5.94-3.63 7.54-11.17 3.98-16.65-3.56-5.48-11.65-7.14-17.59-3.51l-6.84 4.17c-4.89 2.99-11.17-.53-11.17-6.27v-9.6c0-6.69-5.43-12.12-12.12-12.12s-12.12 5.43-12.12 12.12Z"></path><path class="cls-1" d="M378.86 453.33c-11.94-.25-22.76-9.9-22.76-21.91l-.05-137.53a2.898 2.898 0 0 0-1.52-2.53l-45.41-24.84a5.265 5.265 0 0 0-5.05 0l-45.41 24.84c-.93.51-1.51 1.48-1.52 2.53l-.05 137.53c0 12-10.82 21.66-22.76 21.91a.47.47 0 0 0-.47.47v5.39c0 .27.22.48.48.48H262c10.63 0 19.28-8.39 19.53-18.96 0-.26.21-.47.47-.47h4.22c.27 0 .48.22.48.48v18.47c0 .27.22.48.48.48h38.79c.27 0 .48-.22.48-.48v-18.47c0-.27.22-.48.48-.48h4.22c.26 0 .47.21.47.47.25 10.57 8.9 18.96 19.53 18.96h27.66c.27 0 .48-.22.48-.48v-5.39a.47.47 0 0 0-.47-.47ZM470.1 281.59l.07-.13c2.95-5.11 1.31-10.09-2.3-13.57-3.79-3.65-6.17-7.41-3.13-11.3 1.95-2.48 5.41-2.51 9.25-.07 3.71 2.36 16.8 10.31 16.8 10.31 6.03 3.48 13.42 1.26 16.52-4.49 3.1-5.75.68-13.64-5.35-17.12l-6.94-4c-4.97-2.86-4.88-10.06.15-12.8l8.42-4.6c5.87-3.21 8.03-10.57 4.82-16.44-3.21-5.87-10.57-8.03-16.44-4.82l-8.42 4.6c-5.03 2.75-11.13-1.07-10.85-6.8l.38-8c.33-6.95-5-13.26-11.51-13.75-6.51-.5-12.37 4.52-12.7 11.48 0 0-.38 15.31-.4 19.71-.02 4.55-1.92 7.45-5.06 7.74-4.92.46-6.79-3.58-7.82-8.73-.98-4.92-4.28-8.98-10.18-9.27h-.15c-7.95-.42-13.43 7.06-13.74 13.55l-.02 45.58c0 1.03.52 1.99 1.39 2.54l38.37 24.61c5.63 3.25 14.89 2.68 18.83-4.24ZM476.8 355.08H476.65h.14ZM313.9 43.97s13.25 7.68 17.1 9.8c3.98 2.2 5.62 5.25 4.37 8.15-1.95 4.54-6.39 4.25-11.41 2.67-4.78-1.5-9.93-.55-13.01 4.49l-.08.13c-4.18 6.78-.24 15.17 5.31 18.56l39.99 21.87c.9.49 1.99.49 2.89 0l39.99-21.87c5.55-3.39 9.49-11.78 5.31-18.56l-.08-.13c-3.08-5.04-8.23-5.99-13.01-4.49-5.02 1.57-9.46 1.87-11.41-2.67-1.25-2.9.39-5.96 4.37-8.15 3.85-2.12 17.1-9.8 17.1-9.8 5.94-3.63 7.54-11.17 3.98-16.65-3.56-5.48-11.65-7.14-17.59-3.51l-6.84 4.17c-4.89 2.99-11.17-.53-11.17-6.27v-9.59c0-6.69-5.43-12.12-12.12-12.12s-12.12 5.43-12.12 12.12v9.6c0 5.73-6.27 9.25-11.17 6.27l-6.84-4.17c-5.94-3.63-14.03-1.97-17.59 3.51-3.56 5.48-1.96 13.02 3.98 16.65ZM416.28 43.97s13.25 7.68 17.1 9.8c3.98 2.2 5.62 5.25 4.37 8.15-1.95 4.54-6.39 4.25-11.41 2.67-4.78-1.5-9.93-.55-13.01 4.49l-.08.13c-4.18 6.78-.24 15.17 5.31 18.56l39.99 21.87c.9.49 1.99.49 2.89 0l39.99-21.87c5.55-3.39 9.49-11.78 5.31-18.56l-.08-.13c-3.08-5.04-8.23-5.99-13.01-4.49-5.02 1.57-9.46 1.87-11.41-2.67-1.25-2.9.39-5.96 4.37-8.15 3.85-2.12 17.1-9.8 17.1-9.8 5.94-3.63 7.54-11.17 3.98-16.65-3.56-5.48-11.65-7.14-17.59-3.51l-6.84 4.17c-4.89 2.99-11.17-.53-11.17-6.27v-9.59c0-6.69-5.43-12.12-12.12-12.12s-12.12 5.43-12.12 12.12v9.6c0 5.73-6.27 9.25-11.17 6.27l-6.84-4.17c-5.94-3.63-14.03-1.97-17.59 3.51-3.56 5.48-1.96 13.02 3.98 16.65ZM281.54 231.83c3.85-2.12 17.1-9.8 17.1-9.8 5.94-3.63 7.54-11.17 3.98-16.65-3.56-5.48-11.65-7.14-17.59-3.51l-6.84 4.17c-4.89 2.99-11.17-.53-11.17-6.27v-9.6c0-6.69-5.43-12.12-12.12-12.12s-12.12 5.43-12.12 12.12v9.6c0 5.73-6.27 9.25-11.17 6.27l-6.84-4.17c-5.94-3.63-14.03-1.97-17.59 3.51-3.56 5.48-1.96 13.02 3.98 16.65 0 0 13.25 7.68 17.1 9.8 3.98 2.2 5.62 5.25 4.37 8.15-1.95 4.54-6.39 4.25-11.41 2.67-4.78-1.5-9.93-.55-13.01 4.49l-.08.13c-4.18 6.78-.24 15.17 5.31 18.56l39.99 21.87c.9.49 1.99.49 2.89 0l39.99-21.87c5.55-3.39 9.49-11.78 5.31-18.56l-.08-.13c-3.08-5.04-8.23-5.99-13.01-4.49-5.02 1.57-9.46 1.87-11.41-2.67-1.25-2.9.39-5.96 4.37-8.15Z"></path><path class="cls-1" d="m252.18 340.63.26-46.93a3.01 3.01 0 0 0-1.56-2.44l-39.94-21.97c-5.84-2.86-15.04-1.67-18.51 5.49l-.06.13c-2.6 5.3-.63 10.16 3.21 13.38 4.02 3.39 6.66 6.97 3.88 11.06-1.77 2.61-5.23 2.87-9.22.7-3.86-2.1-17.46-9.15-17.46-9.15-6.25-3.06-13.47-.36-16.18 5.59-2.71 5.94.24 13.66 6.49 16.72l7.19 3.52c5.15 2.52 5.48 7.88.65 10.96l-8.15 4.64c-5.64 3.6-8.16 11.05-5.76 16.72 2.4 5.67 8.92 6.76 16.01 4.78l10.98-3.87c4.18-2.15 7.75-.18 7.98 4.43l.16 8.01c.13 6.96 5.88 12.89 12.41 12.95 6.53.06 12.03-5.35 11.9-12.31v-19.88c0-2.47 1.74-5.68 5.18-5.89 3.55-.21 5.43 4.19 6.8 9.27 1.3 4.83 5.15 8.64 11.02 8.55 7.9-.18 12.7-7.97 12.7-14.45ZM147.88 291.26l-39.94-21.97c-5.84-2.86-15.04-1.67-18.51 5.49l-.06.13c-2.6 5.3-.63 10.16 3.21 13.38 4.02 3.39 6.66 6.97 3.88 11.06-1.77 2.61-5.23 2.87-9.22.7-3.86-2.1-17.46-9.15-17.46-9.15-6.25-3.06-13.47-.36-16.18 5.59-2.71 5.94.24 13.66 6.49 16.72l7.19 3.52c5.15 2.52 5.48 7.88.65 10.96l-8.15 4.64c-5.64 3.6-8.16 11.05-5.76 16.72 2.4 5.67 8.92 6.76 16.01 4.78l10.98-3.87c4.18-2.15 7.75-.18 7.98 4.43l.16 8.01c.13 6.96 5.88 12.89 12.41 12.95 6.53.06 12.03-5.35 11.9-12.31v-19.88c0-2.47 1.74-5.68 5.18-5.89 3.55-.21 5.43 4.19 6.8 9.27 1.3 4.83 5.15 8.64 11.02 8.55 7.9-.18 12.82-7.97 12.7-14.45l.26-46.93a3.01 3.01 0 0 0-1.56-2.44ZM239.53 355.08H239.38h.14ZM97.01 261.22c.87-.55 1.39-1.51 1.39-2.54l-.02-45.58c-.31-6.49-5.79-13.98-13.74-13.56h-.15c-5.9.29-9.2 4.36-10.18 9.27-1.02 5.16-2.9 9.2-7.82 8.73-3.14-.3-5.04-3.2-5.06-7.74-.02-4.4-.4-19.71-.4-19.71-.33-6.95-6.19-11.97-12.7-11.48-6.51.5-11.85 6.8-11.51 13.75l.38 8c.28 5.73-5.82 9.54-10.85 6.8l-8.42-4.6c-5.87-3.21-13.24-1.05-16.44 4.82-3.21 5.87-1.05 13.24 4.82 16.44l8.42 4.6c5.03 2.75 5.11 9.94.15 12.8l-6.94 4c-6.03 3.48-8.45 11.37-5.35 17.12 3.1 5.75 10.49 7.96 16.52 4.49 0 0 13.09-7.95 16.8-10.31 3.84-2.44 7.3-2.41 9.25.07 3.05 3.89.66 7.65-3.13 11.3-3.61 3.48-5.25 8.46-2.3 13.57l.07.13c3.94 6.91 13.2 7.48 18.83 4.24L97 261.22ZM59.01 134.06l8.42 4.6c5.03 2.75 5.11 9.94.15 12.8l-6.94 4c-6.03 3.48-8.45 11.37-5.35 17.12 3.1 5.75 10.49 7.96 16.52 4.49 0 0 13.09-7.95 16.8-10.31 3.84-2.44 7.3-2.41 9.25.07 3.05 3.89.66 7.65-3.13 11.3-3.61 3.48-5.25 8.46-2.3 13.57l.07.13c3.94 6.91 13.2 7.48 18.83 4.24l38.37-24.61c.87-.55 1.39-1.51 1.39-2.54l-.02-45.58c-.31-6.49-5.79-13.98-13.74-13.56h-.15c-5.9.29-9.2 4.36-10.18 9.27-1.02 5.16-2.9 9.2-7.82 8.73-3.14-.3-5.04-3.2-5.06-7.74-.02-4.4-.4-19.71-.4-19.71-.33-6.95-6.19-11.97-12.7-11.48-6.51.5-11.85 6.8-11.51 13.75l.38 8c.28 5.73-5.82 9.54-10.85 6.8l-8.42-4.6c-5.87-3.21-13.24-1.05-16.44 4.82-3.21 5.87-1.05 13.24 4.82 16.44ZM192.25 101.42v9.6c0 5.73-6.27 9.25-11.17 6.27l-6.84-4.17c-5.94-3.63-14.03-1.97-17.59 3.51-3.56 5.48-1.96 13.02 3.98 16.65 0 0 13.25 7.68 17.1 9.8 3.98 2.2 5.62 5.25 4.37 8.15-1.95 4.54-6.39 4.25-11.41 2.67-4.78-1.5-9.93-.55-13.01 4.49l-.08.13c-4.18 6.78-.24 15.17 5.31 18.56l39.99 21.87c.9.49 1.99.49 2.89 0l39.99-21.87c5.55-3.39 9.49-11.78 5.31-18.56l-.08-.13c-3.08-5.04-8.23-5.99-13.01-4.49-5.02 1.57-9.46 1.87-11.41-2.67-1.25-2.9.39-5.96 4.37-8.15 3.85-2.12 17.1-9.8 17.1-9.8 5.94-3.63 7.54-11.17 3.98-16.65-3.56-5.48-11.65-7.14-17.59-3.51l-6.84 4.17c-4.89 2.99-11.17-.53-11.17-6.27v-9.6c0-6.69-5.43-12.12-12.12-12.12s-12.12 5.43-12.12 12.12ZM200.29 261.22c.87-.55 1.39-1.51 1.39-2.54l-.02-45.58c-.31-6.49-5.79-13.98-13.74-13.56h-.15c-5.9.29-9.2 4.36-10.18 9.27-1.02 5.16-2.9 9.2-7.82 8.73-3.14-.3-5.04-3.2-5.06-7.74-.02-4.4-.4-19.71-.4-19.71-.33-6.95-6.19-11.97-12.7-11.48-6.51.5-11.85 6.8-11.51 13.75l.38 8c.28 5.73-5.82 9.54-10.85 6.8l-8.42-4.6c-5.87-3.21-13.24-1.05-16.44 4.82-3.21 5.87-1.05 13.24 4.82 16.44l8.42 4.6c5.03 2.75 5.11 9.94.15 12.8l-6.94 4c-6.03 3.48-8.45 11.37-5.35 17.12 3.1 5.75 10.49 7.96 16.52 4.49 0 0 13.09-7.95 16.8-10.31 3.84-2.44 7.3-2.41 9.25.07 3.05 3.89.66 7.65-3.13 11.3-3.61 3.48-5.25 8.46-2.3 13.57l.07.13c3.94 6.91 13.2 7.48 18.83 4.24l38.37-24.61ZM136.52 355.08H136.37h.14ZM211.83 43.97s13.25 7.68 17.1 9.8c3.98 2.2 5.62 5.25 4.37 8.15-1.95 4.54-6.39 4.25-11.41 2.67-4.78-1.5-9.93-.55-13.01 4.49l-.08.13c-4.18 6.78-.24 15.17 5.31 18.56l39.99 21.87c.9.49 1.99.49 2.89 0l39.99-21.87c5.55-3.39 9.49-11.78 5.31-18.56l-.08-.13c-3.08-5.04-8.23-5.99-13.01-4.49-5.02 1.57-9.46 1.87-11.41-2.67-1.25-2.9.39-5.96 4.37-8.15 3.85-2.12 17.1-9.8 17.1-9.8 5.94-3.63 7.54-11.17 3.98-16.65-3.56-5.48-11.65-7.14-17.59-3.51l-6.84 4.17c-4.89 2.99-11.17-.54-11.17-6.27v-9.59c0-6.69-5.43-12.12-12.12-12.12S243.4 5.43 243.4 12.12v9.6c0 5.73-6.27 9.25-11.17 6.27l-6.84-4.17c-5.94-3.63-14.03-1.97-17.59 3.51-3.56 5.48-1.96 13.02 3.98 16.65ZM109.46 43.97s13.25 7.68 17.1 9.8c3.98 2.2 5.62 5.25 4.37 8.15-1.95 4.54-6.39 4.25-11.41 2.67-4.78-1.5-9.93-.55-13.01 4.49l-.08.13c-4.18 6.78-.24 15.17 5.31 18.56l39.99 21.87c.9.49 1.99.49 2.89 0l39.99-21.87c5.55-3.39 9.49-11.78 5.31-18.56l-.08-.13c-3.08-5.04-8.23-5.99-13.01-4.49-5.02 1.57-9.46 1.87-11.41-2.67-1.25-2.9.39-5.96 4.37-8.15 3.85-2.12 17.1-9.8 17.1-9.8 5.94-3.63 7.54-11.17 3.98-16.65-3.56-5.48-11.65-7.14-17.59-3.51l-6.84 4.17c-4.89 2.99-11.17-.54-11.17-6.27v-9.59c0-6.69-5.43-12.12-12.12-12.12s-12.12 5.43-12.12 12.12v9.6c0 5.73-6.27 9.25-11.17 6.27l-6.84-4.17c-5.94-3.63-14.03-1.97-17.59 3.51-3.56 5.48-1.96 13.02 3.98 16.65Z"></path></svg>