<svg data-name="Layer 1" xmlns="http://www.w3.org/2000/svg" viewBox="0 0 594.18 460.46"><path d="m125.71 227.93 148.92.06c.04-.94.13-1.86.28-2.77l-143.95-38.65c-3.37 13.24-5.18 27.09-5.25 41.36ZM131.76 183.73l143.88 38.63c.28-.9.57-1.8.96-2.65l-128.98-74.57c-6.78 12.03-12.14 24.97-15.86 38.59ZM149.09 142.58l128.92 74.53c.51-.81 1.11-1.54 1.73-2.27L174.45 109.41c-9.74 9.95-18.26 21.09-25.35 33.17ZM316.28 219.72c.39.85.68 1.75.96 2.65l143.91-38.51c-3.71-13.62-9.06-26.56-15.83-38.6l-129.04 74.45ZM125.74 230.88c.17 14.24 2.06 28.06 5.51 41.25l143.87-38.5c-.2-.88-.27-1.79-.36-2.7l-149.02-.06ZM313.15 214.85c.61.73 1.21 1.47 1.72 2.27l128.98-74.42c-7.08-12.09-15.59-23.24-25.32-33.19L313.15 214.85ZM315.74 238.92l128.96 74.55c6.84-11.96 12.27-24.81 16.08-38.36l-143.91-38.64c-.32.85-.71 1.65-1.13 2.44ZM417.8 348.9c9.75-9.85 18.29-20.88 25.42-32.86l-128.98-74.57c-.51.72-1.09 1.39-1.69 2.04L417.8 348.89ZM277.12 238.9c-.42-.79-.8-1.59-1.12-2.44l-143.94 38.51c3.8 13.55 9.22 26.41 16.05 38.37l129.02-74.44ZM467.12 231.02l-149.02-.06c-.09.91-.16 1.82-.36 2.7l143.84 38.62c3.46-13.2 5.36-27.02 5.54-41.26ZM461.94 186.72l-143.98 38.52c.15.91.24 1.83.28 2.77l148.92.06c-.06-14.26-1.87-28.11-5.22-41.35ZM280.31 243.5c-.6-.65-1.18-1.32-1.69-2.05L149.58 315.9c7.12 11.98 15.66 23.02 25.4 32.88l105.34-105.29Z"></path><path d="M492.94 315.92c-21.65 16.49-49.53 29.83-81.75 39.18 1.51-1.37 3.04-2.71 4.5-4.13L310.4 245.54c-.67.56-1.33 1.13-2.07 1.61l67.03 116.3c-1.03.19-2.05.38-3.09.56l-66.55-115.45c-.78.37-1.59.66-2.42.93l31.83 119.16c-1 .08-1.99.15-2.99.23l-31.68-118.59c-.83.16-1.7.2-2.56.26v119.54c-.65 0-1.28.02-1.93.02-.35 0-.68-.02-1.03-.02V250.55c-.87-.06-1.74-.1-2.57-.26l-31.66 118.13c-1-.09-2-.17-2.99-.27l31.81-118.67c-.83-.28-1.64-.57-2.42-.94L221.06 362.9c-1.03-.2-2.04-.41-3.06-.61l66.51-115.16c-.74-.48-1.39-1.05-2.06-1.61L177.07 350.86c.35.34.73.66 1.08.99-73.61-24.27-122.1-70.56-122.1-125.7 0-21 6.76-40.44 18.98-57.79.06-.09-.05-.19-.13-.11-66.78 68.73-92.89 155.58-62 216.12 53.08 104.03 215.66 95.24 372.97 10.85 41.25-22.13 77.34-50.25 107.61-78.65.4-.38-.11-.99-.54-.65ZM581.23 74.2c-48.59-92.29-211.37-99.73-368.68-15.34-41.25 22.13-77.89 49.36-108.67 78.97-.27.26.14.7.44.47 21.46-16.65 49.21-30.04 81.38-39.34-3.15 2.69-6.24 5.45-9.18 8.36L281.76 212.7c.71-.65 1.44-1.29 2.23-1.84L215.38 91.83c1.02-.2 2.05-.38 3.08-.58l68.1 118.15c.86-.44 1.75-.82 2.67-1.14L256.57 86c.99-.09 2-.16 2.99-.24l32.49 121.63c.94-.19 1.92-.23 2.89-.29V84.21c.51 0 1.01-.02 1.52-.02.48 0 .95.02 1.43.02v122.88c.98.07 1.97.1 2.92.29l32.6-121.61c1 .09 1.98.2 2.98.29l-32.75 122.19c.92.32 1.81.71 2.67 1.15l68.11-117.93c1.02.2 2.05.39 3.07.6l-68.61 118.79c.8.55 1.52 1.19 2.23 1.84l105.34-105.29c-2.75-2.72-5.61-5.31-8.53-7.84 79.29 23.35 133.63 71.12 133.63 128.11 0 19.38-5.23 37.69-16 54.19-.28.43.34.87.67.49 61.44-71.93 84.97-151.24 55.01-208.16Z"></path></svg>