<svg data-name="Layer 1" xmlns="http://www.w3.org/2000/svg" viewBox="0 0 611.9 611.9"><path d="M338.94 0 0 338.94V611.9h1.54c22.31 0 45.03-1.25 67.54-3.74l1.76-.19-.44-1.72c-1.27-4.96-1.92-9.88-1.92-14.64 0-32.35 26.32-58.67 58.67-58.67 28.79 0 53.11 20.63 57.8 49.04l.29 1.75 1.69-.54c18.36-5.85 36.58-12.63 54.16-20.13l1.63-.7-.92-1.51c-2.68-4.4-4.74-8.96-6.12-13.57-9.33-30.97 8.29-63.76 39.27-73.08 27.5-8.28 56.72 4.42 69.43 30.2l.79 1.59 1.46-1c15.85-10.89 31.32-22.62 45.99-34.88l1.36-1.13-1.31-1.19c-3.78-3.41-7.03-7.16-9.66-11.13-8.65-13.07-11.69-28.73-8.56-44.08 3.13-15.36 12.04-28.58 25.11-37.23 23.95-15.85 55.57-12.11 75.17 8.88l1.21 1.29 1.11-1.37c12.03-14.92 23.48-30.59 34.06-46.6l.98-1.48-1.61-.76c-4.61-2.18-8.82-4.84-12.49-7.9-12.05-10.02-19.47-24.13-20.9-39.73-1.43-15.61 3.29-30.83 13.32-42.88 18.41-22.14 49.81-27.64 74.66-13.09l1.53.9.67-1.64c7.21-17.75 13.65-36.09 19.15-54.5l.51-1.7-1.75-.26c-5.09-.76-9.91-2.1-14.33-3.97-14.43-6.13-25.6-17.5-31.47-32.03-5.87-14.53-5.73-30.47.4-44.9 11.23-26.44 39.67-40.79 67.6-34.08l1.73.41.16-1.77c1.75-19 2.64-38.06 2.64-56.65V0H338.94ZM16.24 462.82c-.8-1.81-.89-4.51 1.24-6.64l438.7-438.7c1.28-1.28 2.78-1.76 4.16-1.76.91 0 1.77.21 2.49.53 1.82.8 3.72 2.73 3.59 5.76-5.04 116.43-53.28 226.01-135.84 308.58-82.57 82.56-192.15 130.8-308.57 135.84-2.95.21-4.96-1.76-5.76-3.59ZM194.47 0 94.44 100.03V0H0v329.18L329.18 0H194.47z"></path></svg>