<svg data-name="Layer 1" xmlns="http://www.w3.org/2000/svg" viewBox="0 0 579.15 339.97"><path d="M527.5 40.11c-14.54-12.03-30.59-19.56-52.65-19.56-20.56 0-42.25 6.65-58.25 29.79-14.58 21.09-9.44 36.39-29 44.42-22.56 9.53-54.66-24.57-104.8-24.57s-64.68 15.54-90.26 32.09c-25.57 16.55-35.6 24.57-49.14 24.57s-33.6-13.04-23.07-47.13c10.53-34.1 17.95-51.37 5.04-54.81-8.57-2.29-13.06 8.68-20.59 8.68-10.03 0-9.53-10.53-19.56-10.53-12.54 0-10.53 19.56-24.57 19.56S38.11 24.07 22.56 24.07c-11.03 0-25.52 11.52-17.55 67.69 10.03 70.7 70.28 248.21 284.52 248.21S564.6 147.92 566.11 120.85c0 0-1-.5-7.02-4.01s-3.51-6.02-.5-10.53 6.21-8.73 13.04-18.55c8.02-11.53 5.01-29.08-3.01-47.64H527.5Zm-25.57 34.81c-6.09 0-11.03-4.94-11.03-11.03s4.94-11.03 11.03-11.03 11.03 4.94 11.03 11.03-4.94 11.03-11.03 11.03ZM0 0h579.15v7.52H0z"></path></svg>