<svg xmlns="http://www.w3.org/2000/svg" width="641.76" viewBox="0 0 641.76 642" height="642" data-name="Layer_1"><path d="M503.17 330.63v173.34H137.23V138.03h365.94v173.34h138.59C636.65 138.55 495.05 0 321 0S0 143.72 0 321s143.72 321 321 321 315.65-138.55 320.76-311.37H503.17Z"></path><path d="M321 237.54c-46.02 0-83.46 37.44-83.46 83.46s37.44 83.46 83.46 83.46 83.46-37.44 83.46-83.46-37.44-83.46-83.46-83.46Z"></path><path d="M483.91 157.29H156.49v327.42h327.42V330.63h-60.67c-4.86 52.21-48.75 93.09-102.23 93.09-56.73 0-102.72-45.99-102.72-102.72s45.99-102.72 102.72-102.72c53.48 0 97.37 40.88 102.23 93.09h60.67V157.29Z"></path></svg>