<svg data-name="Layer 1" xmlns="http://www.w3.org/2000/svg" viewBox="0 0 607.84 560.36"><path d="M304.67 524.72c-108.38 0-158.02-109.48-158.02-244.54 0-10.65.34-21.12.96-31.41h116.28l-88.67 131.07h109.54l19.91 143.78 19.91-143.78h109.54l-88.67-131.07h262.39C592.69 90.49 462.75 0 304.67 0 136.4 0 0 100.91 0 280.18s136.4 280.18 304.67 280.18c133.77 0 247.32-64.84 288.29-180.68H452.23c-19.68 85.45-67.62 145.04-147.56 145.04Zm0-489.08c93.29 0 142.73 80.54 154.93 188.65H328.88l-24.21-35.79-24.21 35.79H149.72c12.21-108.11 61.66-188.65 154.95-188.65Z"></path><circle cx="304.67" cy="139.24" r="49.26" transform="rotate(-9.22 304.5793788 139.21011143)"></circle></svg>