<svg xmlns="http://www.w3.org/2000/svg" width="614.7" viewBox="0 0 614.7 614.7" height="614.7" xml:space="preserve"><path d="M349.5 44.7c-7.4-6.7-20-16.4-33.2-18.1-32-4.1-52.9 38.7-28.7 62.9 11.6 11.6 30.4 11.6 41.9 0 5.7-5.7 8.6-13.1 8.7-20.6 18 6.6 48 45.6 42.6 72.1-5.4 26.6-41.5 53.9-41.5 53.9-8 6.4-14.7-1-14.7-1L193.1 63.4C162.8 33.1 165.2 0 165.2 0L83.6 81.6s33.1-2.4 63.4 27.9L279.5 242c30.3 30.3 27.9 63.4 27.9 63.4L458.8 154 349.5 44.7zM44.7 265.2c-6.7 7.4-16.4 20-18.1 33.2-4.1 32 38.7 52.9 62.9 28.7 11.6-11.6 11.6-30.4 0-41.9-5.7-5.7-13.1-8.6-20.6-8.7 6.6-18 45.6-48 72.1-42.6 26.6 5.4 53.9 41.5 53.9 41.5 6.4 8-1 14.7-1 14.7L63.4 421.7C33.1 451.9 0 449.5 0 449.5l81.6 81.6s-2.4-33.1 27.9-63.4L242 335.2c30.3-30.3 63.4-27.9 63.4-27.9L154 155.9 44.7 265.2zM265.2 570c7.4 6.7 20 16.4 33.2 18.1 32 4.1 52.9-38.7 28.7-62.9-11.6-11.6-30.4-11.6-41.9 0-5.7 5.7-8.6 13.1-8.7 20.6-18-6.6-48-45.6-42.6-72.1 5.4-26.6 41.5-53.9 41.5-53.9 8-6.4 14.7 1 14.7 1l131.6 130.6c30.3 30.3 27.9 63.4 27.9 63.4l81.6-81.6s-33.1 2.4-63.4-27.9L335.2 372.7c-30.3-30.3-27.9-63.4-27.9-63.4L155.9 460.7 265.2 570zM570 349.5c6.7-7.4 16.4-20 18.1-33.2 4.1-32-38.7-52.9-62.9-28.7-11.6 11.6-11.6 30.4 0 41.9 5.7 5.7 13.1 8.6 20.6 8.7-6.6 18-45.6 48-72.1 42.6-26.6-5.4-53.9-41.5-53.9-41.5-6.4-8 1-14.7 1-14.7L551.4 193c30.3-30.3 63.4-27.9 63.4-27.9l-81.6-81.6s2.4 33.1-27.9 63.4L372.7 279.5c-30.3 30.3-63.4 27.9-63.4 27.9l151.4 151.4L570 349.5z"></path></svg>