<svg xmlns="http://www.w3.org/2000/svg" width="642" viewBox="0 0 642 463.8" height="463.8" style="overflow:visible;enable-background:new 0 0 642 463.8" xml:space="preserve"><path d="M456.7 407.7H642v56.2H456.7c-71.8 0-130-58.2-130-130s58.2-130 130-130H512c40.8 0 73.8-33.1 73.8-73.8 0-40.8-33.1-73.8-73.8-73.8l-382-.1c-40.8 0-73.8 33.1-73.8 73.9 0 40.8 33.1 73.8 73.8 73.8h55.4c71.8 0 129.9 58.2 129.9 130s-58.2 129.9-129.9 129.9H0v-56.1h185.4c40.8 0 73.8-33.1 73.8-73.8 0-40.8-33.1-73.8-73.8-73.8H130C58.2 260 0 201.8 0 130S58.2 0 130 0h382c71.8 0 130 58.2 130 130s-58.2 130-130 130h-55.3c-40.8 0-73.8 33-73.8 73.8-.1 40.8 32.9 73.9 73.8 73.9z" style="fill-rule:evenodd;clip-rule:evenodd"></path></svg>