<svg xmlns="http://www.w3.org/2000/svg" width="625.1" viewBox="0 0 625.1 624.1" height="624.1" xml:space="preserve" style="enable-background:new 0 0 625.1 624.1"><path d="M312.6 0C139.9 0 0 139.9 0 312.5c0 162.5 123.9 296 282.4 311.1.7.1 2 .4 2-1.4v-88.7c0-1.2-.6-1.7-.9-1.7-50.5-12.2-88.1-57.6-88.1-111.9 0-63.6 51.5-115.1 115.1-115.1S425.7 356.4 425.7 420c0 54.1-37.3 99.4-87.5 111.7-.5.1-1.5.2-1.5 1.9v89.5c0 1 1 1 1.5 1 160.7-13 287-147.5 287-311.5C625.1 139.9 485.2 0 312.6 0zm202 402.2c-9-104.8-96.9-187.1-204-187.1-104.1 0-190.1 77.7-203.1 178.3-.2 1.2-1.4 1.3-1.8.1-9.8-25.1-15.2-52.4-15.2-81 0-122.7 99.5-222.2 222.2-222.2s222.2 99.5 222.2 222.2c0 32-6.8 62.3-18.9 89.8-.5.8-1.4.8-1.4-.1z"></path></svg>