<svg data-name="Layer 1" xmlns="http://www.w3.org/2000/svg" viewBox="0 0 616.02 616.03"><path d="M308.01 0C138.17 0 0 138.17 0 308.01s138.17 308.01 308.01 308.01 308.01-138.17 308.01-308.01S477.85 0 308.01 0Zm232.43 182.67c-19.48-10.5-41.75-16.48-65.4-16.48-12.3 0-24.22 1.64-35.58 4.66 2.13-9.63 3.29-19.62 3.29-29.88 0-25.75-7.1-49.86-19.4-70.53 49.75 24.25 90.81 63.67 117.09 112.22ZM304.47 46.58c52.05 0 94.41 42.35 94.41 94.4s-42.35 94.4-94.41 94.4-94.4-42.35-94.4-94.4 42.35-94.4 94.4-94.4Zm22.51 247.76v27.36c0 2.92-2.37 5.29-5.29 5.29h-27.36c-2.92 0-5.29-2.37-5.29-5.29v-27.36c0-2.92 2.37-5.29 5.29-5.29h27.36c2.92 0 5.29 2.37 5.29 5.29ZM182.66 75.58c-10.5 19.48-16.48 41.75-16.48 65.4 0 12.3 1.64 24.22 4.66 35.59-9.63-2.13-19.62-3.29-29.87-3.29-25.75 0-49.87 7.1-70.53 19.41 24.25-49.76 63.67-90.81 112.22-117.1ZM75.58 433.36c19.48 10.5 41.75 16.48 65.4 16.48 12.3 0 24.22-1.64 35.58-4.66-2.13 9.63-3.29 19.62-3.29 29.87 0 25.75 7.1 49.86 19.4 70.53-49.75-24.25-90.81-63.67-117.09-112.22Zm65.4-27.4c-52.05 0-94.4-42.35-94.4-94.4s42.35-94.4 94.4-94.4 94.4 42.35 94.4 94.4-42.35 94.4-94.4 94.4Zm170.58 163.49c-52.05 0-94.41-42.35-94.41-94.4s42.35-94.4 94.41-94.4 94.4 42.35 94.4 94.4-42.35 94.4-94.4 94.4Zm69.09-264.98c0-52.05 42.35-94.4 94.4-94.4s94.4 42.35 94.4 94.4-42.35 94.41-94.4 94.41-94.4-42.35-94.4-94.41Zm52.71 235.98c10.5-19.48 16.48-41.75 16.48-65.4 0-12.3-1.64-24.22-4.66-35.58 9.63 2.13 19.62 3.29 29.87 3.29 25.75 0 49.86-7.1 70.53-19.4-24.25 49.75-63.67 90.81-112.22 117.09Z"></path></svg>