<svg xmlns="http://www.w3.org/2000/svg" width="616.5" viewBox="0 0 616.5 616.1" height="616.1" style="enable-background:new 0 0 616.5 616.1" xml:space="preserve"><path d="M480.3 136.1C458 113.8 432 96.2 403 84c-30-12.7-61.9-19.1-94.7-19.1-32.9 0-64.7 6.4-94.7 19.1-29 12.3-55 29.8-77.4 52.2s-40 48.3-52.2 77.3c-12.7 30-19.1 61.9-19.1 94.7v189.1c10 12.8 21 24.9 32.9 36V308.2c0-28.4 5.6-56 16.5-81.9 10.6-25.1 25.8-47.6 45.1-66.9 19.3-19.3 41.9-34.5 66.9-45.1 25.9-11 53.5-16.5 81.9-16.5 28.4 0 56 5.6 81.9 16.5 25.1 10.6 47.6 25.8 66.9 45.1 19.3 19.3 34.5 41.9 45.1 66.9 11 25.9 16.5 53.5 16.5 81.9v225.1c11.9-11.1 22.9-23.1 32.9-36V308.2c0-32.9-6.4-64.7-19.1-94.7-12.2-29-29.7-55-52.1-77.4z"></path><path d="M308 129.7c-24.1 0-47.5 4.7-69.5 14-21.3 9-40.4 21.9-56.7 38.3-16.4 16.4-29.3 35.5-38.3 56.7-9.3 22-14 45.4-14 69.5v251.1c10.5 7.5 21.5 14.3 32.9 20.5V308.2c0-38.9 15.2-75.5 42.7-103s64.1-42.7 103-42.7c80.6 0 146.2 65.4 146.2 145.7l-.3 271.7c11.4-6.1 22.4-13 32.9-20.4l.2-251.3c-.1-98.4-80.4-178.5-179.1-178.5z"></path><path d="M308.2 194.5c-30.4 0-58.9 11.8-80.4 33.3-21.5 21.5-33.3 50-33.3 80.4v286.6c10.7 4.2 21.6 7.9 32.9 10.9V308.2c0-44.6 36.3-80.8 80.8-80.8s80.8 36.3 80.8 80.8v297.5c11.2-3 22.2-6.7 32.9-10.9V308.2c0-30.4-11.8-58.9-33.3-80.4-21.4-21.4-50-33.3-80.4-33.3z"></path><path d="M308.2 259.4c-26.9 0-48.9 21.9-48.9 48.9v304.4c10.8 1.7 21.7 2.9 32.9 3.4V308.2c0-8.8 7.2-16 16-16s16 7.2 16 16V616c11.1-.6 22.1-1.7 32.9-3.4V308.2c0-26.9-21.9-48.8-48.9-48.8z"></path><path d="M616.5 308.2c0-41.6-8.2-82-24.2-120-15.5-36.7-37.7-69.7-66.1-98-28.3-28.3-61.3-50.5-98-66.1C390.2 8.2 349.8 0 308.2 0c-41.6 0-82 8.2-120 24.2-36.7 15.5-69.7 37.7-98 66.1s-50.5 61.3-66.1 98C8.2 226.3 0 266.6 0 308.2c0 49.9 11.8 96.9 32.9 138.6V308.2c0-37.2 7.3-73.2 21.6-107.2 13.9-32.8 33.7-62.2 59-87.5 25.3-25.3 54.7-45.2 87.5-59 33.9-14.4 70-21.6 107.2-21.6s73.2 7.3 107.2 21.6c32.8 13.9 62.2 33.7 87.5 59 25.3 25.3 45.2 54.7 59 87.5 14.4 33.9 21.6 70 21.6 107.2v138.6c21.1-41.6 33-88.7 33-138.6z"></path></svg>