<svg data-name="Layer 1" xmlns="http://www.w3.org/2000/svg" viewBox="0 0 616.04 616.04"><path d="M308.02 0C137.91 0 0 137.91 0 308.02c0 80.26 30.72 153.33 81.02 208.15l132.56-229.59c19.71-34.15 55.02-54.53 94.45-54.53s74.73 20.39 94.45 54.53l132.56 229.59c50.3-54.82 81.02-127.89 81.02-208.15C616.04 137.91 478.14 0 308.02 0Zm0 213.25c-53.62 0-97.09-43.47-97.09-97.09s43.47-97.1 97.09-97.1 97.09 43.47 97.09 97.09-43.47 97.09-97.09 97.09Z"></path><path d="m287.23 407.74-104.8 181.52c38.37 17.16 80.84 26.78 125.59 26.78s87.22-9.62 125.59-26.78l-104.8-181.52c-9.24-16-32.34-16-41.58 0Z"></path></svg>