<svg data-name="Layer 1" xmlns="http://www.w3.org/2000/svg" viewBox="0 0 507.29 620.74"><path d="M0 0v620.74h14.49v-45.89a254.6 254.6 0 0 1 14.49-31.28v-96.5c4.64-5.42 9.48-10.66 14.49-15.73V0H0ZM57.98 0v620.74h14.49V485.56c4.66-4.66 9.49-9.14 14.49-13.44v-77.04c4.73-3.24 9.57-6.34 14.49-9.3V0H57.98ZM115.95 0v620.74h14.49V441.97c4.74-2.61 9.57-5.07 14.49-7.38v-70.31c4.77-1.89 9.6-3.65 14.49-5.29V0h-43.48ZM173.93 0v620.74h14.49V418.82c4.78-1.26 9.61-2.38 14.49-3.36v-67.47c4.79-.83 9.63-1.54 14.49-2.14V0h-43.48ZM231.9 0v620.74h14.49v-210.2c2.41-.07 4.82-.1 7.25-.1s4.84.04 7.25.1v-66.79c4.86.12 9.69.35 14.49.7V0H231.9ZM289.88 0v620.74h14.49V415.46c4.88.98 9.72 2.1 14.49 3.36v-67.94c4.88 1.1 9.71 2.32 14.49 3.65V0h-43.48ZM347.86 0v620.74h14.49V434.59c4.92 2.31 9.75 4.77 14.49 7.38v-71.51c4.9 2.25 9.74 4.63 14.49 7.13V0h-43.48ZM405.83 0v620.74h14.49V472.12c5 4.29 9.84 8.78 14.49 13.44v-79.92c4.96 3.85 9.79 7.85 14.49 12V0h-43.48ZM463.81 0v620.74h14.49v-77.18c5.5 10.04 10.35 20.48 14.49 31.28V465.37c5.14 7.06 9.98 14.35 14.49 21.86V0H463.8Z"></path></svg>