<svg xmlns="http://www.w3.org/2000/svg" width="627.2" viewBox="0 0 627.2 490" height="490" xml:space="preserve" style="enable-background:new 0 0 627.2 490"><path d="M74.9 72.7v11.7l139.3 1.7c-.3 5.9-5.2 10.6-11.1 10.6h-24.3c-14 0-25.4 11.4-25.4 25.4h73.3l74.6-35.8V0H147.6c-40.1 0-72.7 32.6-72.7 72.7z"></path><path d="M226.3 146v-11.7L87 132.7c.3-5.9 5.2-10.6 11.1-10.6h24.3c14 0 25.4-11.4 25.4-25.4H74.9L0 132.5v86.3h153.6c40.1 0 72.7-32.6 72.7-72.8zM473.8 122.1c0-14-11.4-25.4-25.4-25.4h-24.3c-6 0-10.8-4.7-11.1-10.6l139.3-1.7V72.7c0-40.2-32.6-72.7-72.7-72.7H326v86.3l74.6 35.8h73.2z"></path><path d="M552.3 96.7h-72.9c0 14 11.4 25.4 25.4 25.4H529c6 0 10.8 4.7 11.1 10.6l-139.3 1.7V146c0 40.2 32.6 72.7 72.7 72.7h153.6v-86.3l-74.8-35.7zM424.1 393.3h24.3c14 0 25.4-11.4 25.4-25.4h-73.3L326 403.7V490h153.6c40.2 0 72.7-32.6 72.7-72.7v-11.7L413 403.9c.3-5.9 5.2-10.6 11.1-10.6z"></path><path d="M400.9 344v11.7l139.3 1.7c-.3 5.9-5.2 10.6-11.1 10.6h-24.3c-14 0-25.4 11.4-25.4 25.4h72.9l74.9-35.8v-86.3H473.6c-40.2-.1-72.7 32.5-72.7 72.7zM153.4 367.9c0 14 11.4 25.4 25.4 25.4h24.3c6 0 10.8 4.7 11.1 10.6l-139.3 1.7v11.7c0 40.2 32.6 72.7 72.7 72.7h153.6v-86.3l-74.6-35.8h-73.2z"></path><path d="M147.8 393.3c0-14-11.4-25.4-25.4-25.4H98.2c-6 0-10.8-4.7-11.1-10.6l139.3-1.7V344c0-40.2-32.6-72.7-72.7-72.7H0v86.3l74.9 35.8h72.9z"></path></svg>