<svg xmlns="http://www.w3.org/2000/svg" width="578.8" viewBox="0 0 578.8 608.2" height="608.2" xml:space="preserve"><path d="M373.8 36.1 341.2 0v249.9h32.6zM138 0v110.3h103.8z"></path><path d="M237.9 392.4v105.8H207V251.6h30.9v106.6h103.3V249.9h-35.4V36.1L273.3 0v249.9h-33.6V143.2H138v107.2h-36V143.2H0l102 108.9v246H69V286.4L33 248v250.3H0l102 110h36v-34.6l33 34.6h36V576l30.9 32.3h36v-32.8l31.3 32.8h36V392.4H237.9zM171 251.6v246.6h-33V251.6h33zM578.8 463.1l-99.6-104.4v-.5h31.7v-29.8l30.9 29.8h35.1V104.7L473.2 0v249.9H440V36.1L407.4 0v249.9h-33.2v108.3h99.9v34.2h-99.9v107.5h-33l102 108.3h34.3V500.8h101.3z"></path></svg>