<svg data-name="Layer 1" xmlns="http://www.w3.org/2000/svg" viewBox="0 0 607.9 607.9"><path d="M303.95 0C136.35 0 0 136.35 0 303.95S136.35 607.9 303.95 607.9 607.9 471.55 607.9 303.95 471.55 0 303.95 0Zm0 569.86c-146.62 0-265.91-119.29-265.91-265.91S157.33 38.04 303.95 38.04s265.91 119.29 265.91 265.91-119.29 265.91-265.91 265.91Z"></path><path d="M408.26 157.25c-40.81 0-77.71 16.67-104.3 43.57-26.59-26.89-63.5-43.57-104.3-43.57-81.02 0-146.7 65.68-146.7 146.7s65.68 146.71 146.7 146.71c40.81 0 77.71-16.67 104.3-43.57 26.59 26.89 63.5 43.57 104.3 43.57 81.02 0 146.7-65.68 146.7-146.71s-65.68-146.7-146.7-146.7Z"></path></svg>