<svg xmlns="http://www.w3.org/2000/svg" width="603.3" viewBox="0 0 603.3 609.1" height="609.1" xml:space="preserve"><path d="M177.9 88.9c0 49.1-39.8 88.9-88.9 88.9-49.2.1-89-39.7-89-88.9C0 39.8 39.8 0 88.9 0c49.2 0 89 39.8 89 88.9zM390.6 88.9c0 49.1-39.8 88.9-88.9 88.9-49.1 0-88.9-39.8-88.9-88.9 0-49.1 39.8-88.9 88.9-88.9 49.1 0 88.9 39.8 88.9 88.9zM0 216.6h603.3v143.1H0zM0 466h603.3v143.1H0zM603.3 88.9c0 49.1-39.8 88.9-88.9 88.9s-88.9-39.8-88.9-88.9c0-49.1 39.8-88.9 88.9-88.9s88.9 39.8 88.9 88.9z"></path></svg>