<svg xmlns="http://www.w3.org/2000/svg" width="596.2" viewBox="0 0 596.2 467.1" height="467.1"><path d="M595.7 446.7c-71.3-.5-138.4-28.6-188.8-79.4-50.5-50.8-78.3-118-78.3-189.4V0h-20.4v177.9c0 76.8 29.9 149.2 84.2 203.8 54.3 54.6 126.5 84.9 203.2 85.4h.5v-20.4h-.4z"></path><path d="M595.7 426.7h.5v-20.4h-.5c-60.5-.4-117.3-24.4-160.1-67.4-42.8-43.1-66.3-100.1-66.3-160.6V0h-20.4v178.2c0 66 25.7 128.1 72.3 175 46.6 46.9 108.6 73 174.5 73.5z"></path><path d="M595.6 386.2h.5v-20.4h-.5c-49.6-.5-96.2-20.2-131.3-55.5-35-35.3-54.3-82.1-54.3-131.8V0h-20.4v178.5c0 55.1 21.4 107 60.3 146.3 39 39.1 90.7 61 145.7 61.4z"></path><path d="M595.6 345.8h.5v-20.4h-.5c-38.7-.5-75.1-15.9-102.5-43.6-27.4-27.7-42.4-64.3-42.4-103.1V0h-20.4v178.8c0 44.2 17.2 86 48.4 117.5s72.7 49 116.9 49.5z"></path><path d="M595.5 305.4h.5V285h-.5c-27.9-.4-54-11.7-73.7-31.6-19.7-19.9-30.5-46.3-30.5-74.3V0H471v179.1c0 33.4 12.9 64.8 36.5 88.6 23.5 23.9 54.7 37.2 88 37.7zM267.5 177.9c0 71.4-27.8 138.7-78.3 189.4C138.8 418 71.7 446.2.4 446.7h-.5v20.4h.5c76.8-.5 148.9-30.8 203.2-85.4 54.3-54.6 84.2-127 84.2-203.8V0h-20.4v177.9z"></path><path d="M174.9 353.2c46.6-46.9 72.3-109.1 72.3-175V0h-20.4v178.2c0 60.5-23.5 117.6-66.3 160.6-42.7 43-99.6 67-160.1 67.4h-.5v20.4h.5c66-.4 127.9-26.5 174.5-73.4z"></path><path d="M.5 365.9H0v20.4h.5c55-.5 106.8-22.3 145.7-61.5 38.9-39.2 60.3-91.2 60.3-146.3V0h-20.4v178.5c0 49.7-19.3 96.5-54.4 131.9-35 35.3-81.6 55-131.2 55.5z"></path><path d="M.5 325.4H0v20.4h.5c44.2-.5 85.7-18 116.9-49.5 31.2-31.5 48.4-73.2 48.4-117.5V0h-20.4v178.8c0 38.8-15.1 75.4-42.4 103.1C75.7 309.5 39.3 325 .5 325.4z"></path><path d="M88.6 267.8c23.5-23.8 36.5-55.3 36.5-88.6V0h-20.4v179.1c0 27.9-10.8 54.3-30.5 74.3C54.5 273.3 28.3 284.5.5 285H0v20.4h.5c33.3-.5 64.6-13.8 88.1-37.6z"></path></svg>