<svg xmlns="http://www.w3.org/2000/svg" width="625.1" viewBox="0 0 625.1 537.5" height="537.5" xml:space="preserve" style="enable-background:new 0 0 625.1 537.5"><path d="M268.3 537.5v-124h-52.9l98.1-97.7 98.1 97.7h-52.9v124h87.2s.1-118.7.1-120.2c0-75.4-59.3-136.5-132.5-136.5S181 341.9 181 417.3v120.2h87.3z"></path><path d="M42.8 154.9 151 215.6l-26 46.2L258.2 224 221.1 90.7l-25.9 46.1L87 76.1 129.7 0s103.6 58 104.9 58.8c65.7 36.9 89.9 118.6 54.1 182.4-35.8 63.8-118.2 85.6-183.9 48.7L0 231l42.8-76.1zM582.4 154.9l-108.2 60.7 25.9 46.1L366.9 224 404 90.7l25.9 46.1L538 76.1 495.4 0S391.8 58 390.5 58.8c-65.7 36.9-89.9 118.6-54.1 182.4 35.8 63.8 118.2 85.6 183.9 48.7L625.1 231l-42.7-76.1z"></path></svg>