<svg xmlns="http://www.w3.org/2000/svg" id="a" width="632.37" viewBox="0 0 632.37 642" height="642" data-name="Layer 1"><defs></defs><path d="M329.4 41.25 316.18 0l-13.21 41.25h26.43zM352.7 113.95l-10.29-32.1h-52.45l-10.29 32.1h73.03zM135.67 563.35l10.29-32.1h104.63l-40.61 32.1h-74.31zM110.47 642l12.19-38.04h35.94L110.47 642zM496.7 563.35l-10.29-32.1H381.78l40.61 32.1h74.31zM521.9 642l-12.19-38.04h-35.94L521.9 642zM427.81 263.06c-20.37 0-39.24-6.47-54.65-17.45-15.04-10.16-33.16-16.09-52.68-16.09h-77.84l11.98-37.4h16.06c20.95 0 40.31 6.84 55.95 18.41 15.78 11.92 35.43 18.99 56.73 18.99h249l-42.44 33.54H427.8ZM125.62 229.51c21.38 0 41.09 7.12 56.9 19.12 15.97 12.46 36.07 19.88 57.89 19.88h112.2c20.68 0 39.81 6.66 55.35 17.96 15.91 12.29 35.86 19.59 57.52 19.59h70.02l-39.56 31.27c-16.37-2.23-31.39-8.69-43.97-18.2a93.263 93.263 0 0 0-26-13.61c-9.5-3.15-19.58-4.88-30.11-4.88l-112.09-.32c-21.25 0-40.85-7.03-56.61-18.9-15.64-11.54-34.97-18.37-55.9-18.37H42.44L0 229.51h125.62ZM219.29 306.07c21.48 0 41.28 7.19 57.12 19.29 15.61 11.49 34.9 18.27 55.76 18.27H444.1c12.47 0 24.36 2.42 35.25 6.82l-31.99 25.28H373.3c-21.14 0-40.78-7.09-56.5-18.84-15.72-11.76-35.23-18.72-56.37-18.72H137.47l-40.61-32.1h122.42ZM331.01 491.13l-14.83-11.72-14.83 11.72H158.8l11.16-34.83h225.08c20.04 0 38.62 6.26 53.89 16.93a94.223 94.223 0 0 0 22.76 12.15l4.04 12.61c-10.91-4.42-22.84-6.85-35.34-6.85h-109.4ZM349.89 413.29c20.63.01 39.72 6.63 55.24 17.89 15.91 12.15 34.74 19.15 55.51 19.64l-10.28-32.07h-33.02c-21.5 0-41.32-7.2-57.17-19.33-15.6-11.46-34.86-18.22-55.7-18.22H194.04l-10.29 32.1h166.13ZM320.6 186.66c-4.02 0-7.8-1-11.12-2.77l-44.62-23.73 1.8-5.6h99.05l10.26 32.1H320.6Z" class="b"></path></svg>