<svg data-name="Layer 1" xmlns="http://www.w3.org/2000/svg" viewBox="0 0 610.34 617.08"><path d="M549.05 383.49C517.04 487.8 419.97 563.63 305.17 563.63S93.3 487.79 61.29 383.49c-6.45-21.03-27.02-34.39-48.78-31.23L0 354.07c22.01 148.81 150.24 263.01 305.17 263.01s283.16-114.2 305.17-263.01l-12.51-1.81c-21.77-3.16-42.33 10.21-48.79 31.23ZM61.29 233.59C93.3 129.29 190.37 53.45 305.17 53.45s211.87 75.84 243.88 180.14c6.45 21.03 27.02 34.39 48.79 31.23l12.51-1.81C588.32 114.2 460.1 0 305.17 0S22.01 114.2 0 263.01l12.51 1.81c21.77 3.16 42.33-10.21 48.78-31.23Z"></path><path d="M508.81 308.75c0-6.13-.32-12.18-.85-18.17H372.98l116.92-67.52a203.157 203.157 0 0 0-18.21-31.45L354.82 259.1l67.48-116.88a203.201 203.201 0 0 0-31.46-18.2l-67.5 116.92V105.96c-5.99-.53-12.04-.85-18.17-.85s-12.18.32-18.17.85v134.98l-67.52-116.92a203.157 203.157 0 0 0-31.45 18.21l67.49 116.87-116.88-67.48a203.201 203.201 0 0 0-18.2 31.46l116.92 67.5H102.38c-.53 5.99-.85 12.04-.85 18.17s.32 12.18.85 18.17h134.98l-116.92 67.52a203.157 203.157 0 0 0 18.21 31.45l116.87-67.49-67.48 116.88c9.88 6.96 20.39 13.06 31.46 18.2L287 376.56v134.96c5.99.53 12.04.85 18.17.85s12.18-.32 18.17-.85V376.54l67.52 116.92a203.157 203.157 0 0 0 31.45-18.21l-67.49-116.87 116.88 67.48c6.96-9.88 13.06-20.39 18.2-31.46l-116.92-67.5h134.96c.53-5.99.85-12.04.85-18.17Z"></path></svg>