<svg xmlns="http://www.w3.org/2000/svg" width="642" viewBox="0 0 642 642" height="642" style="overflow:visible;enable-background:new 0 0 642 642" xml:space="preserve"><path d="m458.6 275.2 91.7 91.7H366.8l-91.7-91.7H91.7L0 183.4v20.4l91.7 91.7v20.4L0 224.2v20.4l91.7 91.7v20.4L0 265v20.4L91.7 377v20.4L0 305.7v20.4l91.7 91.7v20.4L0 346.5v20.4l91.7 91.7h93.2l90.3 90.3v23.3l-91.7-91.7v23.2l91.7 91.7v23.3L183.4 527v23.3l91.7 91.7h183.4v-91.7h91.7v-91.7H642V275.2H458.6zm-183.4 22.9 91.7 91.7v23l-91.7-91.7v-23zm0 45.8 91.7 91.7v22.9l-91.7-91.7v-22.9zm91.6 137.6v22.9l-91.7-91.7v-22.9l91.7 91.7zm-91.6 44-67-67h23.3l43.7 43.7v23.3zm0-66.9V479l-20.4-20.4h20.4v-22.9l91.7 91.7v22.9l-91.7-91.7z"></path><path d="M458.6 91.7v183.5H275.2l-91.8-91.8v-20.3l91.8 91.6v-20.3l-91.8-91.7v-20.4l91.8 91.7v-20.4l-91.8-91.7V81.5l91.8 91.7v-20.3l-91.8-91.8V40.8l91.8 91.6v-20.3l-91.8-91.7V0l91.8 91.7zM68.8 68.8l114.6 114.6h-22.9L68.8 91.7zM68.8 114.6l68.8 68.8h-22.9l-45.9-45.9zM68.8 160.5l22.9 22.9H68.8z"></path></svg>