<svg xmlns="http://www.w3.org/2000/svg" width="632.3" viewBox="0 0 632.3 612.8" height="612.8" xml:space="preserve" style="enable-background:new 0 0 632.3 612.8"><path d="m209.6 180.4.1.1c.1 0 .1 0 .1-.1l54-92.2C277.5 65 294.5 53.7 316 53.7c22.5 0 44.1 14.5 51.3 34.5 6.8 18.6 2.9 39.3-11.5 61.4v.1s0 .1.1.1l45 25.7h.2c15-19.1 23.3-42.9 23.3-67.1C424.4 48.6 375.8 0 316 0c-36.1 0-69.7 17.9-89.9 47.8l-.5.7-57.6 98.4v.1c0 .1 0 .1.1.1 19.4 9.6 38 29.4 41.5 33.3zM101.1 413c.1 0 .1 0 .1-.1 14.9-15.7 39.4-27.5 44.2-29.7.1 0 .1-.1.1-.1v-.1l-71.9-79c-18.1-19.9-23.8-39.6-17.4-60.1 6.7-21.5 27-37.7 48.3-38.7.8 0 1.6-.1 2.5-.1 18.9 0 36.6 9.9 52.6 29.4l.1.1h.1l38-35.3c.1-.1.1-.1 0-.2-13.7-20-33.9-35-57.1-42.2-10.5-3.3-21.4-5-32.3-5-47.7 0-89.3 30.6-103.5 76-10.8 34.4-3.8 71.8 18.7 100l.5.7L101 413h.1zM626.5 226.1a108.16 108.16 0 0 0-74.2-69.6l-.8-.2-111.7-22.8h-.1l-.1.1c-2.7 20.9-14.5 43.6-18.1 50v.2c0 .1.1.1.1.1 6.8 1.4 103.9 21.1 104.7 21.3 26.4 5.4 42.6 17.9 49.5 38.2 7.3 21.3.5 46.4-16.1 59.7-10.1 8.1-22.6 12.3-37.2 12.3-7.6 0-15.8-1.1-24.5-3.4h-.1l-.1.1L488 363c0 .1 0 .2.1.2 11.6 4.1 23.7 6.2 36.1 6.2 11.9 0 23.7-2 34.9-5.8 27.4-9.3 49.5-28.8 62.3-54.8 12.5-26 14.4-55.4 5.1-82.7zM315.5 508.6c0-.1 0-.1-.1-.1h-.2s-97.3 40.9-98.5 41.4c-11.3 4.7-21.3 7-30.8 7-11.5 0-22.2-3.6-31.6-10.7-18-13.5-26.6-38-20.4-58.4 5.8-19 21.2-33.2 46-42.2l.1-.1v-.1l-20.6-47.6c0-.1-.1-.1-.2-.1-23.4 6.2-44.3 20.3-58.8 39.7-35.8 47.8-26.1 115.9 21.7 151.8 18.9 14.2 41.4 21.7 65 21.7 12.1 0 24.1-2 35.5-6l.8-.3 105.1-44.2c.1 0 .1-.1.1-.1v-.1c-9.7-19.4-12.6-46.4-13.1-51.6zM552.7 499.7l-11.4-113.5s0-.1-.1-.1h-.1c-5.2.9-11.1 1.4-17.5 1.4-16.1 0-31.4-2.9-35.7-3.8h-.1l-.1.1c1.2 12.3 10.5 104.4 10.7 106.4 2.7 26.8-4.4 45.9-21.8 58.6-9.4 6.9-21.3 10.7-33.4 10.7-10.5 0-20.4-2.9-28.5-8.3-16.5-11.1-25.5-30.1-26.8-56.4 0 0 0-.1-.1-.1h-.1l-51.5 5.7c-.1 0-.2.1-.2.2-.9 24.2 6.4 48.4 20.7 67.9 20.3 27.9 53.1 44.5 87.8 44.5 23 0 45.1-7.2 63.7-20.7 29.1-21.2 45.8-55.4 44.5-91.5v-1.1z"></path></svg>