<svg id="Layer_1" data-name="Layer 1" xmlns="http://www.w3.org/2000/svg" viewBox="0 0 602.37 610.54">   <path d="M405.5,305.22l196.86,.05V100.29L502.08,0h-200.9V100.29L200.9,0H0V200.9l104.32,104.32,196.86,.05v-104.37l104.32,104.32Zm96.58-104.32h-106.93V93.96h106.93v106.93Zm0-115.48h-115.48v115.48h-8.54V76.88h124.02v8.54Zm0-17.08h-132.56V200.9h-8.54V59.8h141.1v8.54Zm0-17.08h-149.65V200.9h-8.54V42.71h158.19v8.54Zm0-17.08h-166.73V200.9h-8.54V25.63h175.27v8.54ZM309.73,8.54h192.36v8.54h-183.81V200.9h-8.54V8.54Zm-108.83,192.36H93.96V93.96h106.93v106.93Zm0-115.48H85.42v115.48h-8.54V76.88h124.02v8.54Zm0-17.08H68.34V200.9h-8.54V59.8H200.9v8.54Zm0-17.08H51.25V200.9h-8.54V42.71H200.9v8.54Zm0-17.08H34.17V200.9h-8.54V25.63H200.9v8.54Zm0-17.08H17.08V200.9H8.54V8.54H200.9v8.54Z"></path>   <path d="M200.9,305.27H0v200.9l104.32,104.32,196.86,.05v-104.37l104.32,104.32,196.86,.05v-204.98l-100.29-100.29h-200.9v100.29l-100.29-100.29Zm0,200.9H93.96v-106.93h106.93v106.93Zm0-115.48H85.42v115.48h-8.54v-124.02h124.02v8.54Zm0-17.08H68.34v132.56h-8.54v-141.1H200.9v8.54Zm0-17.08H51.25v149.65h-8.54v-158.19H200.9v8.54Zm0-17.08H34.17v166.73h-8.54v-175.27H200.9v8.54Zm0-17.08H17.08v183.81H8.54v-192.36H200.9v8.54Zm301.18,183.81h-106.93v-106.93h106.93v106.93Zm0-115.48h-115.48v115.48h-8.54v-124.02h124.02v8.54Zm0-17.08h-132.56v132.56h-8.54v-141.1h141.1v8.54Zm0-17.08h-149.65v149.65h-8.54v-158.19h158.19v8.54Zm0-17.08h-166.73v166.73h-8.54v-175.27h175.27v8.54Zm-192.36-25.63h192.36v8.54h-183.81v183.81h-8.54v-192.36Z"></path> </svg>