<svg xmlns="http://www.w3.org/2000/svg" width="642" viewBox="0 0 642 642" height="642" data-name="Layer 1"><path d="M321 0C143.72 0 0 143.72 0 321s143.72 321 321 321 321-143.72 321-321S498.28 0 321 0Zm235.77 314.58H390.49l94.31-163.36c43.02 41.54 70.26 99.25 71.96 163.36ZM418.26 105.99 321 274.46l-97.26-168.47C253.41 92.54 286.31 85 321 85s67.6 7.55 97.26 20.99Zm-261.08 45.23 94.31 163.36H85.23c1.7-64.11 28.94-121.82 71.96-163.36ZM96.93 394.83h183.94V553.4c-86.56-14.84-156.98-76.8-183.94-158.57ZM361.12 553.4V394.83h183.94C518.1 476.6 447.69 538.56 361.12 553.4Z" style="fill-rule:evenodd"></path></svg>