<svg data-name="Layer 1" xmlns="http://www.w3.org/2000/svg" viewBox="0 0 620.58 544.98"><path d="M310.29 419.72c-124.24 0-237.95-57.5-310.29-147.23.23.95.47 1.9.71 2.85 39.27 155.81 162.94 269.64 309.58 269.64s270.3-113.84 309.58-269.64c.24-.95.48-1.9.71-2.85-72.34 89.74-186.05 147.23-310.29 147.23ZM310.29 125.26c124.24 0 237.95 57.5 310.29 147.23-.23-.95-.47-1.9-.71-2.85C580.59 113.84 456.92 0 310.29 0S39.99 113.84.71 269.64c-.24.95-.48 1.9-.71 2.85 72.34-89.74 186.05-147.23 310.29-147.23Z"></path><path d="M310.29 213.79c4.54-10.38 15.29-28.13 16.82-46.09 1.53-17.96-16.82-39.11-16.82-39.11s-18.34 21.15-16.82 39.11c1.53 17.96 12.27 35.72 16.82 46.09ZM416.44 257.03c-17.96 1.53-35.72 12.27-46.09 16.82 10.37 4.54 28.13 15.29 46.09 16.82 17.96 1.53 39.11-16.82 39.11-16.82s-21.15-18.34-39.11-16.82ZM310.29 333.9c-4.54 10.38-15.29 28.13-16.82 46.09-1.53 17.96 16.82 39.11 16.82 39.11s18.34-21.15 16.82-39.11c-1.53-17.96-12.27-35.72-16.82-46.09ZM204.14 290.66c17.96-1.53 35.72-12.27 46.09-16.82-10.37-4.54-28.13-15.29-46.09-16.82-17.96-1.53-39.11 16.82-39.11 16.82s21.15 18.34 39.11 16.82ZM397.24 210.68c13.78-11.62 15.76-39.54 15.76-39.54s-27.93 1.99-39.54 15.76c-11.62 13.78-16.58 33.93-20.7 44.48 10.55-4.12 30.71-9.08 44.48-20.7ZM397.24 337.01c-13.78-11.62-33.93-16.58-44.48-20.7 4.12 10.55 9.08 30.71 20.7 44.48 11.62 13.78 39.54 15.76 39.54 15.76s-1.99-27.93-15.76-39.54ZM223.34 337.01c-13.78 11.62-15.76 39.54-15.76 39.54s27.93-1.99 39.54-15.76c11.62-13.78 16.58-33.93 20.7-44.48-10.55 4.12-30.71 9.08-44.48 20.7ZM223.34 210.68c13.78 11.62 33.93 16.58 44.48 20.7-4.12-10.55-9.08-30.71-20.7-44.48-11.62-13.78-39.54-15.76-39.54-15.76s1.99 27.93 15.76 39.54ZM366.76 182.41c8.34-15.98-.43-42.57-.43-42.57s-25.08 12.44-30.6 29.59c-5.52 17.16-2.46 37.69-2.27 49.01 8.19-7.82 24.96-20.06 33.3-36.03ZM414.71 299.29c-17.16-5.52-37.69-2.46-49.01-2.27 7.82 8.19 20.06 24.96 36.03 33.3 15.98 8.34 42.57-.43 42.57-.43s-12.44-25.08-29.59-30.6ZM253.82 365.29c-8.34 15.98.43 42.57.43 42.57s25.08-12.44 30.6-29.59c5.52-17.16 2.46-37.69 2.27-49.01-8.19 7.82-24.96 20.06-33.3 36.03ZM205.87 248.41c17.16 5.52 37.69 2.46 49.01 2.27-7.82-8.19-20.06-24.96-36.03-33.3-15.98-8.34-42.57.43-42.57.43s12.44 25.08 29.59 30.6ZM365.85 251.05c11.32.27 31.83 3.47 49.02-1.93 17.19-5.4 29.8-30.4 29.8-30.4s-26.53-8.94-42.56-.72c-16.04 8.23-28.39 24.91-36.26 33.05ZM333.08 329.41c-.27 11.32-3.47 31.83 1.94 49.02 5.4 17.19 30.4 29.8 30.4 29.8s8.94-26.53.72-42.56c-8.23-16.03-24.91-28.38-33.05-36.26ZM254.73 296.64c-11.32-.27-31.83-3.47-49.02 1.93-17.19 5.4-29.8 30.4-29.8 30.4s26.53 8.94 42.56.72c16.04-8.23 28.39-24.91 36.26-33.05ZM287.5 218.28c.27-11.32 3.47-31.83-1.94-49.02-5.4-17.19-30.4-29.8-30.4-29.8s-8.94 26.53-.72 42.56c8.23 16.03 24.91 28.38 33.05 36.26Z"></path><circle cx="310.29" cy="273.85" r="57.12"></circle></svg>