<svg data-name="Layer 1" xmlns="http://www.w3.org/2000/svg" viewBox="0 0 612.14 472.47"><path d="M612.14 236.23v-.03C612.1 105.96 506.19 0 375.94 0h-87.46L6.53 73.18C2.62 74.33 0 77.84 0 81.91s2.63 7.58 6.7 8.78l281.77 73.06v-2.17l.17.04-.17 2.19h87.46c39.83 0 72.42 32.58 72.44 72.41-.02 39.83-32.61 72.41-72.44 72.41h-87.46l.17 2.19-.17.04v-2.17L6.7 381.77c-4.08 1.2-6.7 4.71-6.7 8.78s2.63 7.58 6.53 8.73l281.94 73.18h87.46c130.25 0 236.16-105.96 236.2-236.2s0-.02 0-.03ZM288.35 9.04v45.57h.07L17.22 79.68 288.35 9.04Zm0 408.82v45.57L17.22 392.79l271.2 25.07h-.07Zm87.59 0h-87.46v-54.6L17.57 388.3l270.78-70.54v45.49h83.86c66.12 0 124-48.97 130.19-114.8.39-4.1.49-8.16.49-12.18v-.06c0-4.03-.11-8.08-.49-12.18-6.2-65.83-64.07-114.8-130.19-114.8H288.34v45.49L17.57 84.16l270.91 25.05v-54.6h87.46c100.14 0 181.36 81.5 181.41 181.63-.05 100.12-81.27 181.63-181.41 181.63Z"></path></svg>