<svg xmlns="http://www.w3.org/2000/svg" id="a" width="593.85" viewBox="0 0 593.85 642" height="642" data-name="Layer 1"><defs></defs><path d="M496.67 289.7c5.1 0 9.23-4.13 9.23-9.23s-4.13-9.23-9.23-9.23H376.93c-5.1 0-9.23 4.13-9.23 9.23s4.13 9.23 9.23 9.23h119.74ZM493.44 326.62c5.1 0 9.23-4.13 9.23-9.23s-4.13-9.23-9.23-9.23h-84.13c-5.1 0-9.23 4.13-9.23 9.23s4.13 9.23 9.23 9.23h84.13ZM490.21 363.53c5.1 0 9.23-4.13 9.23-9.23s-4.13-9.23-9.23-9.23H367.23c-5.1 0-9.23 4.13-9.23 9.23s4.13 9.23 9.23 9.23h122.98ZM486.98 400.45c5.1 0 9.23-4.13 9.23-9.23s-4.13-9.23-9.23-9.23h-87.39c-5.1 0-9.23 4.13-9.23 9.23s4.13 9.23 9.23 9.23h87.39ZM483.75 437.36c5.1 0 9.23-4.13 9.23-9.23s-4.13-9.23-9.23-9.23H357.48c-5.1 0-9.23 4.13-9.23 9.23s4.13 9.23 9.23 9.23h126.27ZM302.46 271.24c-5.1 0-9.23 4.13-9.23 9.23s4.13 9.23 9.23 9.23h18.67c5.1 0 9.23-4.13 9.23-9.23s-4.13-9.23-9.23-9.23h-18.67ZM353.47 326.62c5.1 0 9.23-4.13 9.23-9.23s-4.13-9.23-9.23-9.23h-18.62c-5.1 0-9.23 4.13-9.23 9.23s4.13 9.23 9.23 9.23h18.62ZM343.75 400.45c5.1 0 9.23-4.13 9.23-9.23s-4.13-9.23-9.23-9.23h-18.64c-5.1 0-9.23 4.13-9.23 9.23s4.13 9.23 9.23 9.23h18.64ZM283.05 418.9c-5.1 0-9.23 4.13-9.23 9.23s4.13 9.23 9.23 9.23h18.6c5.1 0 9.23-4.13 9.23-9.23s-4.13-9.23-9.23-9.23h-18.6ZM292.74 345.07c-5.1 0-9.23 4.13-9.23 9.23s4.13 9.23 9.23 9.23h18.62c5.1 0 9.23-4.13 9.23-9.23s-4.13-9.23-9.23-9.23h-18.62ZM279.03 326.62c5.1 0 9.23-4.13 9.23-9.23s-4.13-9.23-9.23-9.23h-18.66c-5.1 0-9.23 4.13-9.23 9.23s4.13 9.23 9.23 9.23h18.66ZM269.27 400.45c5.1 0 9.23-4.13 9.23-9.23s-4.13-9.23-9.23-9.23h-18.62c-5.1 0-9.23 4.13-9.23 9.23s4.13 9.23 9.23 9.23h18.62ZM391.77 309.36c.67-5.05-2.89-9.69-7.95-10.35-5.05-.67-9.69 2.89-10.35 7.95l-2.45 18.46c-.67 5.05 2.89 9.69 7.95 10.35s9.69-2.89 10.35-7.95l2.45-18.46ZM317.3 309.36c.67-5.05-2.89-9.69-7.95-10.35-5.05-.67-9.69 2.89-10.35 7.95l-2.46 18.46c-.67 5.05 2.89 9.69 7.95 10.35s9.69-2.89 10.35-7.95l2.46-18.46ZM254.46 362.33c-.67 5.05 2.89 9.69 7.95 10.35 5.05.67 9.69-2.89 10.35-7.95l2.42-18.46c.67-5.05-2.89-9.69-7.95-10.35-5.05-.67-9.69 2.89-10.35 7.95l-2.42 18.46ZM328.96 362.33c-.67 5.05 2.89 9.69 7.95 10.35 5.05.67 9.69-2.89 10.35-7.95l2.4-18.46c.67-5.05-2.89-9.69-7.95-10.35-5.05-.67-9.69 2.89-10.35 7.95l-2.4 18.46ZM307.57 383.19c.67-5.05-2.89-9.69-7.95-10.35-5.05-.67-9.69 2.89-10.35 7.95l-2.42 18.46c-.67 5.05 2.89 9.69 7.95 10.35 5.05.67 9.69-2.89 10.35-7.95l2.42-18.46ZM363.73 380.79c.67-5.05 5.3-8.61 10.35-7.95 5.05.67 8.61 5.3 7.95 10.35l-2.43 18.46c-.67 5.05-5.3 8.61-10.35 7.95-5.05-.67-8.61-5.3-7.95-10.35l2.43-18.46ZM233.11 383.19c.67-5.05-2.89-9.69-7.95-10.35-5.05-.67-9.69 2.89-10.35 7.95l-2.45 18.46c-.67 5.05 2.89 9.69 7.95 10.35 5.05.67 9.69-2.89 10.35-7.95l2.45-18.46ZM242.82 309.36c.67-5.05-2.89-9.69-7.95-10.35-5.05-.67-9.69 2.89-10.35 7.95l-2.43 18.46c-.67 5.05 2.89 9.69 7.95 10.35 5.05.67 9.69-2.89 10.35-7.95l2.43-18.46Z" class="b"></path><path d="M369.19 480.82C357.33 571.77 279.56 642 185.38 642 83 642 0 559 0 456.62s83-185.38 185.38-185.38h61.24c5.1 0 9.23 4.13 9.23 9.23s-4.13 9.23-9.23 9.23h-61.24c-92.04 0-166.92 74.88-166.92 166.92s74.88 166.92 166.92 166.92c84.66 0 154.8-63.35 165.5-145.13l3.13-23.8c.67-5.05 5.3-8.61 10.35-7.95s8.61 5.3 7.95 10.35l-3.12 23.79Z" class="b"></path><path d="M339.91 420.11c.67-5.05-2.89-9.69-7.95-10.35-5.05-.67-9.69 2.89-10.35 7.95l-7.33 55.89c-8.34 63.7-62.97 113.03-128.9 113.03-71.69 0-130-58.32-130-130.01s58.32-130 130-130h19.14c5.1 0 9.23-4.13 9.23-9.23s-4.13-9.23-9.23-9.23h-19.14c-81.86 0-148.46 66.6-148.46 148.46s66.6 148.46 148.46 148.46c75.29 0 137.68-56.34 147.2-129.08l7.33-55.89Z" class="b"></path><path d="M279.57 454.62c.67-5.05 5.3-8.61 10.35-7.95 5.05.67 8.61 5.3 7.95 10.35l-1.89 14.16c-7.15 54.66-54.03 96.99-110.6 96.99-61.51 0-111.55-50.04-111.55-111.55s50.04-111.55 111.55-111.55h51.55c5.1 0 9.23 4.13 9.23 9.23s-4.13 9.23-9.23 9.23h-51.55c-51.33 0-93.09 41.76-93.09 93.09s41.76 93.09 93.09 93.09c47.21 0 86.33-35.33 92.3-80.94l1.89-14.16Z" class="b"></path><path d="M265.43 420.11c.67-5.05-2.89-9.69-7.95-10.35-5.05-.67-9.69 2.89-10.35 7.95l-6.05 46.25c-3.6 27.53-27.21 48.84-55.7 48.84-30.97 0-56.17-25.2-56.17-56.17s25.2-56.17 56.17-56.17h9.44c5.1 0 9.23-4.13 9.23-9.23s-4.13-9.23-9.23-9.23h-9.44c-41.15 0-74.63 33.48-74.63 74.63s33.48 74.63 74.63 74.63c37.85 0 69.21-28.32 74-64.89l6.05-46.26Z" class="b"></path><path d="M185.38 437.36c-10.62 0-19.26 8.64-19.26 19.26s8.64 19.26 19.26 19.26c9.77 0 17.86-7.31 19.1-16.75l.56-4.52c.67-5.05 5.3-8.61 10.35-7.95 5.05.67 8.61 5.3 7.95 10.35l-.56 4.52c-2.42 18.48-18.27 32.8-37.4 32.8-20.8 0-37.72-16.92-37.72-37.72s16.92-37.72 37.72-37.72h41.8c5.1 0 9.23 4.13 9.23 9.23s-4.13 9.23-9.23 9.23h-41.8ZM231.85 251.58c-.67 5.05 2.89 9.69 7.95 10.35 5.05.67 9.69-2.89 10.35-7.95l4.73-35.9c14.32-112.41 110.59-199.6 226.85-199.6l102.89-.03c5.1 0 9.23-4.13 9.23-9.23s-4.13-9.23-9.23-9.23h-102.9c-91.81 0-171.89 50.08-214.59 124.36-14.77 25.74-25.04 54.51-29.79 85.06l-5.5 42.16Z" class="b"></path><path d="M264.2 288.5c-.67 5.05 2.89 9.69 7.95 10.35 5.05.67 9.69-2.89 10.35-7.95l9.42-71.54C305.4 126.72 385.4 55.33 481.76 55.33l99.63.03c5.1 0 9.23-4.13 9.23-9.23s-4.13-9.23-9.23-9.23h-99.63c-75.56 0-141.95 40.06-179.05 100.09-15.15 24.52-25.42 52.39-29.4 82.18l-9.1 69.32Z" class="b"></path><path d="M578.16 92.29c5.1 0 9.23-4.13 9.23-9.23s-4.13-9.23-9.23-9.23h-96.41c-59.64 0-112.35 30.24-143.55 76.21-14.38 21.19-24.27 45.77-28.06 72.29l-3.85 29.26c-.67 5.05 2.89 9.69 7.95 10.35 5.05.67 9.69-2.89 10.35-7.95l4.42-32.76c12.33-73.12 76.14-128.91 152.73-128.91l96.41-.03Z" class="b"></path><path d="M574.93 129.2c5.1 0 9.23-4.13 9.23-9.23s-4.13-9.23-9.23-9.23h-93.21c-70.53 0-128.73 53.79-135.73 122.5l-7.34 55.26c-.67 5.05 2.89 9.69 7.95 10.35 5.05.67 9.69-2.89 10.35-7.95l7.54-57.1c6.66-58.78 56.69-104.61 117.22-104.61h93.21Z" class="b"></path><path d="M571.7 166.12c5.1 0 9.23-4.13 9.23-9.23s-4.13-9.23-9.23-9.23h-89.98c-50.96 0-93.11 38.51-98.85 87.96l-2.09 15.96c-.67 5.05 2.89 9.69 7.95 10.35 5.05.67 9.69-2.89 10.35-7.95l2.41-18.4c5.63-39.23 39.47-69.48 80.23-69.48h89.98Z" class="b"></path></svg>