<svg xmlns="http://www.w3.org/2000/svg" width="631.4" viewBox="0 0 631.4 631.4" height="631.4" xml:space="preserve" style="enable-background:new 0 0 631.4 631.4"><path class="st0" d="m210.5 253.3 86.3-86.3-86.3-86.3v43.5H60.7v86.3h149.8z"></path><path class="st0" d="M286.2 197.7h121.9v-122l-30.6 30.1L271.7 0l-61.2 60.7L316.3 167z"></path><path class="st0" d="m463.8 296.8 86.9-86.3h-43.5V60.7h-86.3v149.8h-42.8zM420.9 378.1l-86.3 85.7 86.3 86.3v-42.9h150.4v-86.3H420.9zM167 334.6l-86.3 86.3h43.5v149.8h86.3V420.9h42.8z"></path><path class="st0" d="M197.7 346.9v-122H75.2l30.6 30.1L0 361.4l60.7 61.2L167 316.3zM345.8 433.7h-122v122l30.7-30.1 105.7 105.8 61.3-60.7-106.4-106.3zM433.7 285.6v122h122l-30.6-30.1 106.3-106.3-61.2-60.7-105.8 105.8z"></path></svg>