<svg data-name="Layer 1" xmlns="http://www.w3.org/2000/svg" viewBox="0 0 335.36 622.49"><path d="M254.36 311.24c48.55-29.38 81-82.68 81-143.56C335.36 75.07 260.29 0 167.68 0S0 75.07 0 167.68c0 60.88 32.45 114.19 81 143.56C32.45 340.62 0 393.92 0 454.8c0 92.61 75.07 167.68 167.68 167.68s167.68-75.07 167.68-167.68c0-60.88-32.45-114.19-81-143.56Zm-86.68 199.72c-31.02 0-56.16-25.14-56.16-56.16s25.14-56.16 56.16-56.16 56.16 25.14 56.16 56.16-25.14 56.16-56.16 56.16Zm15.46-285.6-15.46 61.75-15.46-61.75-44.26 45.75 17.49-61.21-61.21 17.49 45.75-44.26-61.75-15.46 61.75-15.46-45.75-44.26 61.21 17.49-17.49-61.21 44.26 45.75 15.46-61.75 15.46 61.75 44.26-45.75-17.49 61.21 61.21-17.49-45.75 44.26 61.75 15.46-61.75 15.46 45.75 44.26-61.21-17.49 17.49 61.21-44.26-45.75Z"></path></svg>