<svg xmlns="http://www.w3.org/2000/svg" width="619.62" viewBox="0 0 619.62 619.62" height="619.62" xml:space="preserve" style="enable-background:new 0 0 619.62 619.62"><path d="M309.81 0C138.98 0 0 138.98 0 309.81s138.98 309.81 309.81 309.81 309.81-138.98 309.81-309.81S480.64 0 309.81 0zm0 577.98c-147.87 0-268.17-120.3-268.17-268.17S161.94 41.64 309.81 41.64s268.17 120.3 268.17 268.17-120.3 268.17-268.17 268.17z"></path><path d="M101.35 431.76V338.5c-13.95 29.09-13.87 64.23 0 93.26zM109.54 446.17c3.09 4.59 6.62 9.04 10.51 13.25V310.46l-10.44 13.61-.07 122.1zM267.58 503.23h84.46l7.86-10.55H259.71l7.87 10.55zM281.93 522.09h55.76l7.87-10.55h-71.49l7.86 10.55zM296.28 540.95h27.05l7.86-10.55h-42.78l7.87 10.55zM309.81 558.49l7.03-9.23h-14.06l7.03 9.23zM518.27 338.5v93.25c13.87-29.02 13.95-64.16 0-93.25zM499.58 310.46v148.96c3.88-4.21 7.42-8.66 10.51-13.25l-.06-122.1-10.45-13.61zM518.27 187.86v93.25c13.95-29.08 13.87-64.22 0-93.25zM499.58 309.16l10.44-13.61.06-122.1a110.64 110.64 0 0 0-10.51-13.25v148.96zM352.04 116.39h-84.46l-7.86 10.55h100.19l-7.87-10.55zM337.69 97.53h-55.76l-7.87 10.55h71.49l-7.86-10.55zM323.34 78.67h-27.05l-7.86 10.55h42.78l-7.87-10.55zM309.81 61.13l-7.03 9.23h14.06l-7.03-9.23zM101.35 281.12v-93.25c-13.87 29.02-13.95 64.16 0 93.25zM109.6 295.55l10.44 13.61V160.2c-3.88 4.21-7.42 8.66-10.51 13.25l.07 122.1z"></path><path d="m499.08 309.81-7.75-10.3.12-147.24c-3.45-3.04-7-5.81-10.57-8.25V285.9l-8.24-10.95V138.93c-3.51-1.97-7.02-3.71-10.45-5.19v127.6l-8.24-10.95V130.64c-3.44-1.16-6.95-2.14-10.45-2.94v109.09l-8.25-10.95v-99.72c-3.43-.51-6.94-.86-10.44-1.05v87.15l-8.25-10.95v-76.3c-3.52.08-7.03.32-10.44.72v61.97l-8.25-10.95v-49.74c-3.56.69-7.07 1.56-10.45 2.57v33.55l-8.24-10.95v-19.75c-3.53 1.38-7.88 3.34-11.25 5.09l-1.54-2.25c-28.21-.07-84.97-.07-113.17 0l-1.54 2.25c-3.36-1.73-7.77-3.72-11.26-5.08v19.75l-8.24 10.95v-33.55c-3.38-1.01-6.89-1.88-10.45-2.57v49.74l-8.25 10.95V125.7c-3.42-.4-6.93-.64-10.44-.72v76.3l-8.25 10.95v-87.15c-3.5.19-7.01.53-10.44 1.05v99.72l-8.25 10.95V127.7c-3.49.8-7 1.78-10.45 2.94V250.4l-8.24 10.95v-127.6c-3.43 1.47-6.94 3.22-10.45 5.19v136.02l-8.24 10.95V144.02c-3.57 2.44-7.12 5.21-10.57 8.25l.12 147.24-7.75 10.29 7.75 10.29-.12 147.24c3.45 3.04 7 5.81 10.57 8.25V333.72l8.24 10.95v136.02c3.51 1.97 7.02 3.71 10.45 5.19v-127.6l8.24 10.95v119.76c3.44 1.15 6.95 2.14 10.45 2.94v-109.1l8.25 10.95v99.72c3.43.51 6.94.86 10.44 1.04v-87.15l8.25 10.95v76.3c3.52-.08 7.03-.32 10.44-.72v-61.97l8.25 10.95v49.73c3.56-.69 7.07-1.56 10.45-2.57V456.5l8.24 10.95v19.75c3.44-1.34 7.91-3.36 11.26-5.08l1.54 2.25c28.21.07 84.97.07 113.17 0l1.62-2.36c3.36 1.73 7.68 3.83 11.17 5.19v-19.75l8.24-10.95v33.55c3.38 1.01 6.89 1.88 10.45 2.57v-49.73l8.25-10.95v61.97c3.42.4 6.93.64 10.44.72v-76.3l8.25-10.95v87.15c3.5-.18 7.01-.53 10.44-1.04v-99.72l8.25-10.95v109.09c3.49-.8 7-1.78 10.45-2.94V369.22l8.24-10.95v127.6c3.43-1.47 6.94-3.22 10.45-5.19V344.66l8.24-10.95V475.6c3.57-2.44 7.12-5.22 10.57-8.25l-.12-147.24 7.75-10.3zM309.81 145.79h44.78a119.89 119.89 0 0 0-10.38 8.31c-17.14-.04-51.64-.04-68.78 0-3.3-2.97-6.79-5.74-10.39-8.31h44.77zm0 46.03h-7.04c-1.23-2.86-2.58-5.64-4.02-8.31h22.13c-1.44 2.67-2.79 5.45-4.02 8.31h-7.05zm4.6 8.27c-1.16 3.66-3.1 9.14-4.14 13.4-.12.48-.78.47-.89 0-1.02-4.26-2.84-9.74-4.01-13.4h9.04zm-4.6-27.13H292.2c-2.04-2.9-4.2-5.68-6.45-8.31h48.12c-2.25 2.63-4.41 5.41-6.45 8.31h-17.61zm0 300.87h-44.78c3.59-2.57 7.09-5.35 10.38-8.31 17.14.04 51.64.04 68.78 0 3.3 2.97 6.79 5.74 10.39 8.31h-44.77zm0-46.03h7.04c1.23 2.86 2.58 5.64 4.02 8.31h-22.13c1.44-2.67 2.79-5.45 4.02-8.31h7.05zm-4.59-8.27c1.16-3.66 3.1-9.14 4.14-13.4.12-.48.78-.47.89 0 1.02 4.26 2.84 9.74 4.01 13.39h-9.04zm4.59 27.13h17.61c2.04 2.91 4.2 5.68 6.45 8.31h-48.12c2.25-2.64 4.41-5.41 6.45-8.31h17.61zm97.42-128.06.03.01-.37.39-96.78 80.31c-.17.14-.42.14-.6 0L212.74 319l-.37-.39.02-.01c-39.17-34.88-13.13-101.94 39.42-101.3 28.87 0 52.9 21.07 57.55 48.63.09.54.82.54.91 0 4.64-27.56 28.68-48.63 57.55-48.63 52.55-.64 78.57 66.45 39.41 101.3z"></path></svg>