<svg data-name="Layer 1" xmlns="http://www.w3.org/2000/svg" viewBox="0 0 625.99 625.99"><path d="M312.99 0C140.41 0 0 140.41 0 312.99s140.41 313 312.99 313 313-140.41 313-313S485.58 0 312.99 0ZM212.41 412.36v-5.31h201.16v5.31c0 55.46-45.12 100.58-100.58 100.58s-100.58-45.12-100.58-100.58Zm239.37 0v-43.52H174.2v43.52c0 65.25 45.26 120.09 106.03 134.85-81.14-15.39-142.7-86.79-142.7-172.34 0-96.75 78.71-175.46 175.45-175.46s175.46 78.71 175.46 175.46c0 85.55-61.56 156.95-142.71 172.34 60.77-14.76 106.04-69.6 106.04-134.85ZM350.9 585.1c99.78-17.95 175.76-105.36 175.76-210.23 0-117.82-95.86-213.67-213.67-213.67S99.32 257.05 99.32 374.87c0 104.87 75.97 192.28 175.75 210.23C141.44 566.56 38.21 451.64 38.21 312.99c0-151.51 123.27-274.78 274.78-274.78s274.79 123.27 274.79 274.78c0 138.64-103.24 253.57-236.87 272.11Z"></path></svg>