<svg id="Layer_1" data-name="Layer 1" xmlns="http://www.w3.org/2000/svg" viewBox="0 0 622.43 591.9"><defs></defs><path class="cls-1" d="M367.05 228.03h1.17V0h-1.17c0 30.84-25 55.84-55.84 55.84s-55.84-25-55.84-55.84h-1.17v228.03h1.17c0-30.84 25-55.84 55.84-55.84s55.84 25 55.84 55.84ZM441.04 266.49c9.54 29.33-6.5 60.83-35.83 70.37l.36 1.11 216.85-70.53-.36-1.11c-29.33 9.54-60.83-6.5-70.37-35.83-9.54-29.33 6.5-60.83 35.83-70.37l-.36-1.11-216.85 70.53.36 1.11c29.33-9.54 60.83 6.5 70.37 35.83ZM403.83 341.12c18.14 24.94 12.63 59.86-12.3 78s-59.86 12.63-78-12.3l-.95.69L446.73 591.9l.94-.69c-18.14-24.94-12.63-59.86 12.3-78 24.94-18.14 59.86-12.63 78 12.3l.95-.69-134.15-184.39-.95.69ZM217.21 336.86c-29.33-9.54-45.37-41.05-35.83-70.37 9.54-29.33 41.05-45.37 70.37-35.83l.36-1.11-216.84-70.54-.36 1.11c29.33 9.54 45.37 41.05 35.83 70.37-9.54 29.33-41.05 45.37-70.37 35.83l-.36 1.11 216.85 70.53.36-1.11ZM230.89 419.12c-24.94-18.14-30.44-53.06-12.3-78l-.95-.69L83.49 524.82l.95.69c18.14-24.94 53.07-30.44 78-12.3 24.94 18.14 30.45 53.07 12.3 78l.95.69 134.15-184.39-.95-.69c-18.14 24.94-53.07 30.44-78 12.3Z"></path></svg>