<svg xmlns="http://www.w3.org/2000/svg" width="586.9" viewBox="0 0 586.9 586.9" height="586.9"><path d="M407.3 22.9H179.6c-10.4 4.4-20.4 9.4-30.2 14.9h288c-9.7-5.5-19.7-10.5-30.1-14.9zM452.4 46.8H134.5c-7.2 4.7-14.2 9.6-21 14.9h359.8c-6.7-5.2-13.7-10.2-20.9-14.9zM293.4 0c-31.1 0-61.1 4.9-89.3 13.9h178.6C354.6 4.9 324.6 0 293.4 0zM484.4 70.8h-382c-5.6 4.8-11 9.7-16.2 14.9h414.3c-5.1-5.2-10.5-10.2-16.1-14.9zM509.2 94.7H77.6c-4.4 4.8-8.7 9.8-12.8 14.9H522c-4.1-5.2-8.3-10.1-12.8-14.9zM529.1 118.6H57.8c-3.6 4.8-7 9.8-10.3 14.9h491.9c-3.3-5.1-6.7-10.1-10.3-14.9zM545.1 142.5H41.8c-2.9 4.9-5.7 9.8-8.3 14.9h519.9c-2.6-5.1-5.4-10-8.3-14.9zM558 166.4H28.8c-2.3 4.9-4.5 9.9-6.6 14.9h542.4c-2-5-4.2-10-6.6-14.9zM254.3 195.9h78.3c6.3 2.5 12.2 5.7 17.8 9.3h223c-1.6-5-3.3-10-5.2-14.9H18.7c-1.8 4.9-3.6 9.9-5.2 14.9h223c5.6-3.6 11.5-6.8 17.8-9.3zM390.4 253H584c-.7-5-1.5-10-2.4-14.9H382.8c2.9 4.8 5.5 9.8 7.6 14.9zM204.1 238.2H5.3c-.9 4.9-1.7 9.9-2.4 14.9h193.6c2.1-5.2 4.7-10.2 7.6-14.9zM188.3 293.4c0-2.5.1-5 .3-7.4H.2c-.1 2.5-.2 4.9-.2 7.4s.1 5 .2 7.4h188.4c-.1-2.4-.3-4.9-.3-7.4zM586.7 286H398.2a91.53 91.53 0 010 14.8h188.4c.1-2.5.2-4.9.2-7.4.1-2.5-.1-4.9-.1-7.4zM196.4 333.8H2.8c.7 5 1.5 10 2.4 14.9H204c-2.8-4.7-5.4-9.7-7.6-14.9zM382.8 348.7h198.8c.9-4.9 1.7-9.9 2.4-14.9H390.4c-2.1 5.2-4.7 10.2-7.6 14.9zM332.6 391h-78.3c-6.3-2.5-12.2-5.7-17.8-9.3h-223c1.6 5 3.3 10 5.2 14.9h549.5c1.8-4.9 3.6-9.9 5.2-14.9h-223c-5.6 3.6-11.5 6.7-17.8 9.3zM28.8 420.5H558c2.3-4.9 4.5-9.9 6.6-14.9H22.2c2.1 5 4.3 10 6.6 14.9zM41.8 444.4h503.3c2.9-4.9 5.7-9.8 8.3-14.9H33.5c2.6 5 5.4 10 8.3 14.9zM57.8 468.3h471.3c3.6-4.8 7-9.8 10.3-14.9H47.5c3.3 5.1 6.7 10.1 10.3 14.9zM77.6 492.2h431.6c4.4-4.8 8.7-9.8 12.8-14.9H64.8c4.1 5.1 8.4 10.1 12.8 14.9zM102.5 516.1h382c5.6-4.8 11-9.7 16.2-14.9H86.3c5.2 5.2 10.6 10.1 16.2 14.9zM134.5 540h317.9c7.2-4.7 14.2-9.6 21-14.9H113.5c6.8 5.3 13.8 10.3 21 14.9zM179.6 564h227.7c10.4-4.4 20.4-9.4 30.2-14.9h-288c9.7 5.5 19.7 10.5 30.1 14.9zM293.4 586.9c31.1 0 61.1-4.9 89.3-13.9H204.1c28.2 9 58.2 13.9 89.3 13.9zM376.5 229.1h203.2c-1.1-5-2.4-10-3.7-14.9H10.9c-1.4 4.9-2.6 9.9-3.7 14.9H376.5zM397.2 277h189.1c-.3-5-.7-10-1.2-14.9H1.7C1.2 267 .8 272 .5 277h396.7zM189.6 309.9H.5c.3 5 .7 10 1.2 14.9h583.4c.5-4.9.9-9.9 1.2-14.9H189.6zM210.4 357.7H7.2c1.1 5 2.4 10 3.7 14.9H576c1.4-4.9 2.6-9.9 3.7-14.9H210.4z"></path></svg>