<svg xmlns="http://www.w3.org/2000/svg" width="605.4" viewBox="0 0 605.4 609.3" height="609.3" style="enable-background:new 0 0 605.4 609.3" xml:space="preserve"><path d="M605.4 303.8c0 173.2-135.5 305.5-302.6 305.5C135.7 609.3 0 478 0 304.9 0 125.1 139.7 0 302.7 0 445 0 573.3 106.7 599.5 248.1H445c-20.8-54.3-76.2-98-143.4-98-82.1 0-153.5 65.6-153.5 153.4 0 85.2 71.4 154.3 153.7 154.3 66 0 121.9-41.8 143.6-100.5h-18.9c-20.7 47.5-68.1 81.3-123.7 81.3-74.6 0-134.9-61.7-134.9-135.6 0-12.8 1.8-25.2 5.2-36.9h429.3c1.5 12.5 3 24.9 3 37.7z"></path></svg>