<svg xmlns="http://www.w3.org/2000/svg" width="434.3" viewBox="0 0 434.3 587.4" height="587.4"><path d="M329.8 218.4c0-62.2-50.4-112.6-112.6-112.6-62.2 0-112.6 50.4-112.6 112.6 0 43.1 24.2 80.5 59.8 99.4 29.2-62.3 52.4-110.8 53.7-111.2V331c61.8-.5 111.7-50.7 111.7-112.6"></path><path d="M352.9 50.1c-78.5-66.9-193.7-66.9-272.2 0L0 122.6v464.7h37.8s108.3-233.4 116.4-250.7c-6.9-3.9-13.5-8.5-19.8-13.9L15.1 215.6l119-99.4c47.5-40.5 116.5-40.5 164.1 0l120 102.5-116.3 102.8c-24.3 20.7-54 30.9-83.8 30.9v86.2c48.7 0 97.5-17 137.3-50.9l78.8-70.4V120.6l-81.3-70.5z"></path></svg>