<svg xmlns="http://www.w3.org/2000/svg" width="463.4" viewBox="0 0 463.4 642" height="642" style="overflow:visible;enable-background:new 0 0 463.4 642" xml:space="preserve"><path d="M271.9 184.6 366 0h-63l-29.4 57.7-32-57.7h-55l60.6 109.3-22.9 44.9-95.1-60.7L181 0h-64.2L81.7 63.4 12.4 19.3v66.6l67.5 43-67.5 42.9v56.9l112.2-71.3 74 47.2L4.3 586c-13.1 25.6 5.6 56 34.3 56h270.9c26.6 0 48.1-21.6 48.1-48.2V425.1h67.3c21.3 0 38.5-17.2 38.5-38.5v-80.1L271.9 184.6zM305.4 369v216.7H67.5l178.8-350.8 43.9 28c-13 8.3-18.6 27-5.5 44.1 21.6 16.8 45.8 3.5 48.4-16.7L456.8 369H305.4z"></path></svg>