<svg data-name="Layer 1" xmlns="http://www.w3.org/2000/svg" viewBox="0 0 608.11 633.19"><path d="m386.39 260.66-33.71 33.7-38.94-38.94 33.7-33.7c50.66-50.66 50.66-133.08 0-183.73-50.66-50.66-133.08-50.66-183.73 0-42.63 42.63-49.37 107.76-20.25 157.52H4.79v82.25h214.96l6.75 6.75 29.08 29.08 38.94 38.94-38.77 38.77-34.03-34.03c-50.66-50.66-133.08-50.66-183.73 0-50.66 50.66-50.66 133.08 0 183.73 50.66 50.66 133.08 50.66 183.73 0l33.7-33.7 125.9 125.9 58.16-58.16-125.57-125.57 38.77-38.77 33.71 33.71c50.66 50.66 133.08 50.66 183.73 0 50.66-50.66 50.66-133.08 0-183.73-50.66-50.66-133.08-50.66-183.73 0Zm-164.51-97.1c-18.58-18.58-18.58-48.82 0-67.41 18.58-18.58 48.82-18.58 67.41 0 18.58 18.58 18.58 48.82 0 67.41l-31.95 31.95h-3.51l-31.95-31.95ZM96.15 482.83c-18.58-18.58-18.58-48.82 0-67.41 18.58-18.58 48.82-18.58 67.41 0l33.7 33.7-33.7 33.7c-18.58 18.58-48.82 18.58-67.41 0Zm415.81-96.6c-18.58 18.58-48.82 18.58-67.41 0l-33.71-33.71 33.71-33.7c18.58-18.58 48.82-18.58 67.41 0 18.58 18.58 18.58 48.82 0 67.41Z"></path></svg>