<svg xmlns="http://www.w3.org/2000/svg" width="615.1" viewBox="0 0 615.1 417.8" height="417.8" xml:space="preserve"><path d="M33.7 417.8c16.7 0 32.3-8 42.1-21.5l227-314.6V0L0 417.8h33.7zM105.6 417.8c16.7 0 32.3-8 42.1-21.5l155-214.8V99.8L72 417.8h33.6zM178.4 417.8c16.7 0 32.3-8 42.1-21.5l82.3-115v-81.7L144.7 417.8h33.7zM250.2 417.8c16.7 0 32.3-8 42.1-21.5l10.4-15.3v-81.7l-86.2 118.5h33.7zM312.3 0v81.7l227 314.6c9.8 13.5 25.4 21.5 42.1 21.5h33.7L312.3 0zM312.3 181.5l155 214.8c9.8 13.5 25.4 21.5 42.1 21.5h33.7l-230.8-318v81.7zM312.3 281.2l82.3 115c9.8 13.5 25.4 21.5 42.1 21.5h33.7L312.3 199.5v81.7zM312.3 381l10.4 15.3c9.8 13.5 25.4 21.5 42.1 21.5h33.7l-86.2-118.5V381z"></path></svg>