<svg xmlns="http://www.w3.org/2000/svg" width="595.1" viewBox="0 0 595.1 524.1" height="524.1"><path d="M367 238.4l.1-.1L229.5 0h-36.7l137.5 238.4zM91.6 238.4l92-159.1 9 15.7-82.8 143.4h36.6l64.5-111.7 64.4 111.7H312v-.1L174.3 0h-36.7L0 238.4h36.7L155.9 31.7l9.1 15.7-110.1 191zM421.7 238.4l.1-.1L284.2 0h-36.7L385 238.4z"></path><path d="M238.5 206v.2L101.2 444.7l18.3 31.5 137.3-238.8zM211.2 158.8L73.6 397.4l18.3 31.4 137.6-238.5zM165 492.3l9.1-15.7h220.6l-18.4-31.9H192.5l9-15.7h165.7l-18.4-31.8h-129l64.8-111.5-18.4-31.9-137.7 238.5 18.4 31.8H422l-18.3-31.8z"></path><path d="M274.2 333.9l275.1-.4 18.3-31.4H292.4zM457.5 15.9l-18.3 31.8 119.3 206.7h-18.1l-110.1-191-18.4 31.9 91.9 159.1h-18.1L402.9 111l-18.4 31.8L449 254.5H320.1l-18.3 31.8 275-.2 18.3-31.8zM246.9 381.1h275.2l18.3-31.4H265.2z"></path></svg>