<svg data-name="Layer 1" xmlns="http://www.w3.org/2000/svg" viewBox="0 0 603.59 602.35"><path d="M603.59 302.37c0-61.67-50.18-111.85-111.85-111.85S379.89 240.7 379.89 302.37c0 11.03 1.63 21.67 4.62 31.74-20.9 11.11-37.88 28.65-48.28 49.97-10.85-3.52-22.42-5.44-34.43-5.44s-23.57 1.92-34.42 5.44c-10.4-21.32-27.38-38.86-48.28-49.97 2.99-10.07 4.61-20.72 4.61-31.74 0-61.67-50.18-111.85-111.85-111.85S0 240.7 0 302.37c0 42.78 24.16 80.02 59.53 98.82-2.99 10.07-4.62 20.72-4.62 31.74 0 61.67 50.18 111.85 111.85 111.85 12.01 0 23.57-1.92 34.42-5.44 18.17 37.26 56.43 63 100.6 63s82.43-25.74 100.6-63c10.85 3.52 22.41 5.44 34.42 5.44 61.68 0 111.85-50.18 111.85-111.85 0-11.03-1.63-21.67-4.62-31.74 35.38-18.81 59.53-56.04 59.53-98.82Zm-581.25 0c0-49.36 40.16-89.51 89.51-89.51s89.51 40.16 89.51 89.51c0 8.05-1.08 15.84-3.08 23.26-10-2.94-20.57-4.55-31.51-4.55-42.69 0-79.87 24.05-98.71 59.31-27.26-15.36-45.72-44.57-45.72-78.03Zm167.39 44.05c-15.4 27.12-44.53 45.46-77.88 45.46-7.93 0-15.63-1.05-22.96-3 15.4-27.12 44.53-45.46 77.88-45.46 7.93 0 15.63 1.05 22.96 3Zm3.74 171.96c-8.43 2.64-17.4 4.07-26.69 4.07-49.36 0-89.51-40.16-89.51-89.51 0-8.05 1.08-15.84 3.08-23.26 10 2.94 20.57 4.55 31.51 4.55 42.7 0 79.87-24.05 98.71-59.32 15.6 8.79 28.31 22.12 36.34 38.19-33.96 19.22-56.95 55.66-56.95 97.39 0 9.63 1.22 18.97 3.52 27.89Zm18.82-27.89c0-31.96 16.84-60.04 42.11-75.88 1.24 5.92 1.89 12.05 1.89 18.32 0 31.95-16.84 60.04-42.11 75.88-1.24-5.92-1.89-12.04-1.89-18.32ZM301.8 580c-35.05 0-65.44-20.26-80.12-49.67 33.96-19.22 56.95-55.66 56.95-97.39 0-9.63-1.22-18.97-3.52-27.89 8.43-2.64 17.4-4.07 26.69-4.07s18.26 1.43 26.69 4.07c-2.3 8.92-3.52 18.27-3.52 27.89 0 41.73 22.99 78.17 56.95 97.39-14.69 29.41-45.08 49.67-80.13 49.67Zm87.62-71.19c-25.26-15.84-42.11-43.92-42.11-75.88 0-6.28.66-12.41 1.89-18.32 25.26 15.84 42.11 43.92 42.11 75.88 0 6.28-.66 12.41-1.89 18.32Zm47.4 13.63c-9.29 0-18.26-1.43-26.69-4.07 2.3-8.92 3.52-18.26 3.52-27.89 0-41.73-22.99-78.17-56.95-97.39 8.02-16.07 20.73-29.4 36.33-38.19 18.84 35.26 56.01 59.31 98.71 59.31 10.94 0 21.51-1.61 31.51-4.55 2 7.42 3.08 15.22 3.08 23.26 0 49.35-40.16 89.51-89.51 89.51Zm-22.96-176.03c7.33-1.95 15.02-3 22.96-3 33.35 0 62.48 18.35 77.88 45.46-7.33 1.95-15.02 3-22.96 3-33.35 0-62.48-18.35-77.88-45.46Zm121.67 33.98c-18.84-35.26-56.01-59.31-98.71-59.31-10.94 0-21.51 1.61-31.51 4.55-2-7.42-3.08-15.22-3.08-23.26 0-49.36 40.16-89.51 89.51-89.51s89.51 40.16 89.51 89.51c0 33.46-18.46 62.67-45.72 78.03Z"></path><path d="M519.99 40.85h-96.2L303.24 213.96 182.68 40.85h-96.2L303.24 352.1 519.99 40.85z"></path><circle cx="303.24" cy="67.73" r="67.73" transform="rotate(-67.5 303.2410787 67.73149493)"></circle></svg>