<svg data-name="Layer 1" xmlns="http://www.w3.org/2000/svg" viewBox="0 0 391.22 602.4"><path d="M0 0v602.4h391.22V0H0Zm363.38 27.84v168.99c-20.65 8.55-39.07 21.4-53.99 37.58-27.97-30.32-68.01-49.32-112.51-49.32s-84.54 19-112.51 49.32c-15.54-16.84-34.85-30.09-56.54-38.63V27.84h335.55Zm-279 260.29c37.82 0 71.65 17.03 94.29 43.81 1.24 1.47 2.4 3.01 3.58 4.54-38.59 3.67-73.01 21.64-97.87 48.59-15.54-16.84-34.85-30.09-56.54-38.63V301.9c16.94-8.77 36.14-13.78 56.54-13.78Zm-56.54-18.74v-41.22a123.84 123.84 0 0 1 38.33 30.35c.28.33.52.68.79 1-13.68 1.55-26.78 4.95-39.12 9.87Zm73.97 140.8c.27-.33.52-.68.79-1.01 22.64-26.79 56.47-43.81 94.29-43.81s71.65 17.03 94.29 43.81c.28.33.52.68.79 1.01-37.46 4.25-70.82 22.02-95.08 48.32-24.26-26.3-57.62-44.06-95.08-48.32Zm0-150.66c.27-.33.52-.68.79-1.01 22.64-26.79 56.47-43.81 94.29-43.81s71.65 17.03 94.29 43.81c.28.33.52.68.79 1.01-37.46 4.25-70.82 22.02-95.08 48.32-24.26-26.3-57.62-44.06-95.08-48.32ZM66.17 409.19c.28.33.52.68.79 1-13.68 1.55-26.78 4.95-39.12 9.87v-41.22a123.84 123.84 0 0 1 38.33 30.35Zm18.22 29.61c37.82 0 71.65 17.03 94.29 43.81 1.24 1.47 2.4 3.01 3.58 4.54-38.59 3.67-73.01 21.64-97.87 48.59-15.54-16.84-34.85-30.09-56.54-38.63v-44.54c16.94-8.77 36.14-13.78 56.54-13.78Zm18.22 121.05c22.64-26.79 56.47-43.81 94.29-43.81s71.65 17.03 94.29 43.81c3.91 4.62 7.45 9.55 10.65 14.72H91.95c3.2-5.17 6.74-10.1 10.65-14.72Zm206.8-24.1c-24.86-26.95-59.28-44.92-97.87-48.59 1.17-1.53 2.33-3.07 3.58-4.54 22.64-26.79 56.47-43.81 94.29-43.81 19.38 0 37.68 4.53 53.99 12.5v46.86c-20.65 8.55-39.07 21.4-53.99 37.58Zm17.43-125.55c.27-.33.52-.68.79-1.01a123.88 123.88 0 0 1 35.77-29.03v39c-11.59-4.4-23.82-7.52-36.57-8.97Zm-17.43-25.11c-24.86-26.95-59.28-44.92-97.87-48.59 1.17-1.53 2.33-3.07 3.58-4.54 22.64-26.79 56.47-43.81 94.29-43.81 19.38 0 37.68 4.53 53.99 12.5v46.86c-20.65 8.55-39.07 21.4-53.99 37.58Zm17.43-125.55c.27-.33.52-.68.79-1.01a123.88 123.88 0 0 1 35.77-29.03v39c-11.59-4.4-23.82-7.52-36.57-8.97Zm-299 269.95a123.84 123.84 0 0 1 38.33 30.35c3.91 4.62 7.45 9.55 10.65 14.72H27.84v-45.07Zm289.12 45.07c3.2-5.17 6.74-10.1 10.65-14.72a123.88 123.88 0 0 1 35.77-29.03v43.75h-46.42Z"></path></svg>