<svg data-name="Layer 1" xmlns="http://www.w3.org/2000/svg" viewBox="0 0 619.13 344.09"><path d="M442.07 9.77a273.4 273.4 0 0 1-6.37 3.27l102.18 159.01L435.7 331.06c2.15 1.07 4.29 2.17 6.41 3.29l125.15-162.3L442.07 9.77Z"></path><path d="M424.66 18.25c-2.84 1.26-5.69 2.48-8.58 3.66l77.18 150.14-77.18 150.14c2.88 1.17 5.74 2.39 8.58 3.66l98.83-153.79-98.83-153.81Z"></path><path d="M459.04 0c-2.08 1.29-4.18 2.55-6.29 3.79l129.79 168.25-129.76 168.28c2.1 1.23 4.19 2.49 6.25 3.77l160.09-172.05L459.04 0ZM382.22 33.21c-4.25 1.12-8.53 2.16-12.85 3.09l34.89 135.74-34.89 135.74c4.32.93 8.6 1.97 12.85 3.09l53.53-138.83-53.53-138.83Z"></path><path d="M357.46 38.59c-4.82.82-9.69 1.52-14.59 2.1l17.02 135.92-16.74 126.84c4.81.57 9.58 1.26 14.31 2.06l34.3-133.46-34.3-133.46Z"></path><path d="M330.82 41.84c-5.03.37-10.1.62-15.2.72v258.97c5.19.11 10.35.36 15.48.74l16.59-125.71-16.87-134.72ZM404.7 26.24c-3.57 1.27-7.17 2.48-10.8 3.61l54.82 142.19-54.82 142.19c3.63 1.13 7.23 2.34 10.8 3.61l74.95-145.81L404.7 26.24ZM183.44 13.04c-2.15-1.07-4.29-2.17-6.41-3.29L51.87 172.05l125.19 162.28c2.11-1.12 4.23-2.21 6.37-3.27L81.26 172.05 183.44 13.04Z"></path><path d="M203.05 21.91c-2.88-1.17-5.74-2.39-8.58-3.66l-98.82 153.8 98.83 153.79c2.83-1.26 5.69-2.48 8.58-3.66l-77.19-150.13 77.18-150.14Z"></path><path d="M166.35 3.77c-2.1-1.23-4.19-2.49-6.25-3.77L0 172.05 160.09 344.1c2.08-1.29 4.18-2.55 6.29-3.79L36.59 172.05 166.35 3.77ZM249.76 36.3c-4.32-.93-8.6-1.97-12.85-3.09l-53.53 138.83 53.53 138.83c4.25-1.12 8.53-2.16 12.85-3.09l-34.89-135.74L249.76 36.3Z"></path><path d="M275.98 40.65a291.5 291.5 0 0 1-14.31-2.06l-34.3 133.46 34.3 133.46c4.82-.82 9.69-1.52 14.59-2.1l-17.02-135.92 16.74-126.84Z"></path><path d="m271.44 167.53 16.87 134.72c5.03-.37 10.1-.62 15.2-.72V42.56c-5.19-.11-10.35-.36-15.48-.74l-16.59 125.71ZM225.23 29.86c-3.63-1.13-7.23-2.34-10.8-3.61l-74.95 145.81 74.95 145.81c3.57-1.27 7.17-2.48 10.8-3.61l-54.82-142.19 54.82-142.21Z"></path></svg>