<svg data-name="Layer 1" xmlns="http://www.w3.org/2000/svg" viewBox="0 0 593.07 477.73"><path d="M553.5 0c-9.37 0-17.96 3.26-24.74 8.7a36.446 36.446 0 0 0-20.69-6.41c-9.7 0-18.49 3.79-25.04 9.95-5.75-4.6-13.04-7.37-20.98-7.37-9.8 0-18.6 4.22-24.74 10.91-5.46-5.21-12.84-8.42-20.98-8.42-10.08 0-18.99 4.92-24.53 12.47-4.96-6.24-12.6-10.26-21.19-10.26-10.52 0-19.62 6.02-24.1 14.79-4.04-7.84-12.19-13.21-21.62-13.21-13.43 0-24.32 10.89-24.32 24.32s10.89 24.32 24.32 24.32c8.98 0 16.8-4.88 21.01-12.11 4.22 9.45 13.69 16.05 24.71 16.05 8.09 0 15.34-3.57 20.3-9.2 5.44 8.26 14.79 13.72 25.42 13.72 7.8 0 14.9-2.96 20.28-7.79 6.17 7.14 15.27 11.68 25.44 11.68 7.71 0 14.79-2.62 20.46-6.99 4.26 4.15 9.52 7.26 15.39 8.95a36.52 36.52 0 0 0-14.87 8.49c-5.75-4.6-13.04-7.37-20.98-7.37-9.8 0-18.6 4.22-24.74 10.91-5.46-5.21-12.84-8.42-20.98-8.42-10.08 0-18.99 4.92-24.53 12.47-4.96-6.24-12.6-10.26-21.19-10.26-10.52 0-19.62 6.02-24.1 14.79-4.04-7.84-12.19-13.21-21.62-13.21-13.43 0-24.32 10.89-24.32 24.32s10.89 24.32 24.32 24.32c8.98 0 16.8-4.88 21.01-12.11 4.22 9.45 13.69 16.05 24.71 16.05 8.09 0 15.34-3.57 20.3-9.2 5.44 8.26 14.79 13.72 25.42 13.72 7.8 0 14.9-2.96 20.28-7.79 6.17 7.14 15.27 11.68 25.44 11.68 7.71 0 14.79-2.62 20.46-6.99 6.6 6.43 15.61 10.41 25.55 10.41 20.23 0 36.63-16.4 36.63-36.63 0-16.7-11.18-30.76-26.46-35.17 3.45-1 6.69-2.48 9.64-4.39 6.9 5.88 15.85 9.43 25.63 9.43 21.85 0 39.57-17.71 39.57-39.57S575.36 0 553.5 0Z"></path><circle cx="279.17" cy="34.55" r="21.14"></circle><circle cx="233.44" cy="33.69" r="18.29"></circle><path d="M187.72 16.54c-9.08 0-16.44 7.36-16.44 16.44s7.36 16.44 16.44 16.44 16.44-7.36 16.44-16.44-7.36-16.44-16.44-16.44ZM141.99 18.6c-7.22 0-13.06 5.85-13.06 13.06s5.85 13.06 13.06 13.06 13.06-5.85 13.06-13.06-5.85-13.06-13.06-13.06ZM96.27 19.78c-5.9 0-10.68 4.78-10.68 10.68s4.78 10.67 10.68 10.67 10.67-4.78 10.67-10.67-4.78-10.68-10.67-10.68ZM50.55 21.81a8.03 8.03 0 1 0 0 16.06 8.03 8.03 0 0 0 0-16.06ZM4.83 24.51C2.17 24.51 0 26.67 0 29.34s2.16 4.83 4.83 4.83 4.83-2.16 4.83-4.83-2.16-4.83-4.83-4.83Z"></path><circle cx="279.17" cy="104.89" r="21.14"></circle><circle cx="233.44" cy="104.03" r="18.29"></circle><path d="M187.72 86.88c-9.08 0-16.44 7.36-16.44 16.44s7.36 16.44 16.44 16.44 16.44-7.36 16.44-16.44-7.36-16.44-16.44-16.44ZM141.99 88.94c-7.22 0-13.06 5.85-13.06 13.06s5.85 13.06 13.06 13.06 13.06-5.85 13.06-13.06-5.85-13.06-13.06-13.06ZM96.27 90.12c-5.9 0-10.68 4.78-10.68 10.67s4.78 10.68 10.68 10.68 10.67-4.78 10.67-10.68-4.78-10.67-10.67-10.67ZM50.55 92.15a8.03 8.03 0 1 0 0 16.06 8.03 8.03 0 0 0 0-16.06ZM462.06 145.54c-9.8 0-18.6 4.22-24.74 10.91-5.46-5.21-12.84-8.42-20.98-8.42-10.08 0-18.99 4.92-24.53 12.47-4.96-6.24-12.6-10.26-21.19-10.26-10.52 0-19.62 6.02-24.1 14.79-4.04-7.84-12.19-13.21-21.62-13.21-13.43 0-24.32 10.89-24.32 24.32s10.89 24.32 24.32 24.32c8.98 0 16.8-4.88 21.01-12.11 4.22 9.45 13.69 16.05 24.71 16.05 8.09 0 15.34-3.57 20.3-9.2 5.44 8.26 14.79 13.72 25.42 13.72 7.8 0 14.9-2.96 20.28-7.79 6.17 7.14 15.27 11.68 25.44 11.68 18.57 0 33.63-15.06 33.63-33.63s-15.06-33.63-33.63-33.63Z"></path><circle cx="279.17" cy="175.23" r="21.14"></circle><circle cx="233.44" cy="174.37" r="18.29"></circle><path d="M187.72 157.22c-9.08 0-16.44 7.36-16.44 16.44s7.36 16.44 16.44 16.44 16.44-7.36 16.44-16.44-7.36-16.44-16.44-16.44ZM141.99 159.28c-7.22 0-13.06 5.85-13.06 13.06s5.85 13.06 13.06 13.06 13.06-5.85 13.06-13.06-5.85-13.06-13.06-13.06ZM96.27 160.46c-5.9 0-10.68 4.78-10.68 10.68s4.78 10.67 10.68 10.67 10.67-4.78 10.67-10.67-4.78-10.68-10.67-10.68ZM416.33 218.37c-10.08 0-18.99 4.92-24.53 12.47-4.96-6.24-12.6-10.26-21.19-10.26-10.52 0-19.62 6.02-24.1 14.79-4.04-7.84-12.19-13.21-21.62-13.21-13.43 0-24.32 10.89-24.32 24.32s10.89 24.32 24.32 24.32c8.98 0 16.8-4.88 21.01-12.11 4.22 9.45 13.69 16.05 24.71 16.05 8.09 0 15.34-3.57 20.3-9.2 5.44 8.26 14.79 13.72 25.42 13.72 16.81 0 30.44-13.63 30.44-30.44s-13.63-30.44-30.44-30.44Z"></path><circle cx="279.17" cy="245.57" r="21.14"></circle><circle cx="233.44" cy="244.71" r="18.29"></circle><path d="M187.72 227.56c-9.08 0-16.44 7.36-16.44 16.44s7.36 16.44 16.44 16.44 16.44-7.36 16.44-16.44-7.36-16.44-16.44-16.44ZM141.99 229.62c-7.22 0-13.06 5.85-13.06 13.06s5.85 13.06 13.06 13.06 13.06-5.85 13.06-13.06-5.85-13.06-13.06-13.06ZM370.61 290.93c-10.52 0-19.62 6.02-24.1 14.79-4.04-7.84-12.19-13.21-21.62-13.21-13.43 0-24.32 10.89-24.32 24.32s10.89 24.32 24.32 24.32c8.98 0 16.8-4.88 21.01-12.11 4.22 9.45 13.69 16.05 24.71 16.05 14.95 0 27.07-12.12 27.07-27.07s-12.12-27.07-27.07-27.07Z"></path><circle cx="279.17" cy="315.91" r="21.14"></circle><circle cx="233.44" cy="315.05" r="18.29"></circle><path d="M187.72 297.9c-9.08 0-16.44 7.36-16.44 16.44s7.36 16.44 16.44 16.44 16.44-7.36 16.44-16.44-7.36-16.44-16.44-16.44Z"></path><circle cx="324.89" cy="387.16" r="24.32"></circle><circle cx="279.17" cy="386.25" r="21.14"></circle><circle cx="233.44" cy="385.39" r="18.29"></circle><circle cx="279.17" cy="456.59" r="21.14"></circle></svg>