<svg id="Layer_1" data-name="Layer 1" xmlns="http://www.w3.org/2000/svg" viewBox="0 0 614.9 614.91">   <path d="M242.04,312.81H0v72.31H229.79v229.79h72.31v-242.04c0-33.17-26.89-60.06-60.05-60.06Z"></path>   <path d="M123.67,431.18H0v72.31H111.41v111.41h72.31v-123.67c0-33.17-26.89-60.06-60.05-60.06Z"></path>   <path d="M385.12,0h-72.31V242.04c0,33.17,26.89,60.06,60.06,60.06h242.04v-72.31h-229.79V0Z"></path>   <path d="M503.49,111.41V0h-72.31V123.67c0,33.17,26.89,60.06,60.06,60.06h123.67V111.41h-111.41Z"></path>   <path d="M312.81,372.86v242.04h189.41v-112.69h112.69v-189.41h-242.04c-33.17,0-60.06,26.89-60.06,60.06Zm143.29,11.54h46.12v-46.12h46.12v46.16h46.12v46.12h-46.12v46.17h-46.12v-46.21h-46.12v-46.12Z"></path> </svg>