<svg xmlns="http://www.w3.org/2000/svg" width="613.3" viewBox="0 0 613.3 613.3" height="613.3" xml:space="preserve"><path d="M0 0v613.3h613.3V0H0zm309.1 579.8C158.3 579.8 36 457.5 36 306.6 36 155.8 158.3 33.5 309.1 33.5c131.3 0 241 92.7 267.2 216.2h-88.8c-24.1-75.5-94.8-130.3-178.4-130.3-103.4 0-187.2 83.8-187.2 187.2s83.8 187.2 187.2 187.2c93.3 0 170.6-68.2 184.8-157.5h86.7c-14.8 136.9-130.7 243.5-271.5 243.5zm-.4-190.9c33.4 0 62.2-19.9 75.2-48.4H282.2v-67.1h184.2c2.2 10.6 3.3 21.5 3.3 32.8 0 88.9-72.1 161-161 161s-161-72.1-161-161 72.1-161 161-161c69 0 127.9 43.5 150.8 104.5H369c-15.1-16.1-36.5-26.1-60.3-26.1-45.7 0-82.7 37-82.7 82.7.1 45.6 37.1 82.6 82.7 82.6z"></path></svg>