<svg data-name="Layer 1" xmlns="http://www.w3.org/2000/svg" viewBox="0 0 593.9 579.48"><path d="M449.36 260.86c-53.74 0-97.46 43.72-97.46 97.46v221.16h65.89v-76.63h78.64c53.74 0 97.46-43.72 97.46-97.46V260.85H449.35ZM528 405.4c0 17.4-14.16 31.56-31.56 31.56H417.8v-78.64c0-17.41 14.16-31.56 31.56-31.56H528v78.65ZM144.54 260.86H0V405.4c0 53.74 43.72 97.46 97.46 97.46h78.64v76.63h65.89V358.33c0-53.74-43.72-97.46-97.46-97.46ZM65.9 405.4v-78.64h78.64c17.4 0 31.56 14.16 31.56 31.56v78.65H97.46c-17.4 0-31.56-14.16-31.56-31.56Z"></path><path d="M399.15 240.03c18.18-18.18 28.3-42.29 28.54-67.97.25-26.64-10.82-52.14-29.66-70.98L296.95 0l-102.2 102.2c-38 38-38 99.83 0 137.83l39.32 39.32a102.22 102.22 0 0 1 29.94 72.28v227.86h65.89V351.64c0-27.11 10.77-53.11 29.94-72.28l39.32-39.32Zm-102.2 9.01-55.61-55.61c-12.31-12.31-12.31-32.33 0-44.64l55.61-55.61 55.61 55.61c5.96 5.96 9.24 13.89 9.24 22.32s-3.28 16.36-9.24 22.32l-55.61 55.61Z"></path></svg>