<svg data-name="Layer 1" xmlns="http://www.w3.org/2000/svg" viewBox="0 0 509.33 602.18"><path d="M508.83 199.8c-6.05-65-45.5-122.56-93.73-164.52-11.96-9.98-31.13-25.24-43.35-35.29l6.43 9.68c19.78 28.35 36.81 58.23 49.62 90.37 15.42 39.5 41.23 94.89 3.35 129.35-24.37 21.6-58.75 22.17-89.48 19.79-24.68-1.91-46.83 10.35-46.83 36.92l-15.8 316.07c25.67-.25 52.78-7.36 55.9-37.17 5.8-35.37 39.1-221.39 42.78-241.6 22.99-2.76 50.2-9.24 71.26-18.9 40.92-17.38 64.11-61.24 59.84-104.72ZM.5 199.8c6.05-65 45.51-122.56 93.73-164.51C106.19 25.3 125.36 10.05 137.58 0l-6.43 9.68c-19.78 28.35-36.81 58.23-49.62 90.37-15.42 39.5-41.23 94.89-3.35 129.35 24.37 21.6 58.75 22.17 89.48 19.79 24.68-1.91 46.83 10.35 46.83 36.92l15.8 316.07c-25.67-.25-52.78-7.36-55.9-37.17-5.8-35.37-39.1-221.39-42.78-241.6-22.99-2.76-50.2-9.24-71.26-18.9C19.43 287.13-3.77 243.28.5 199.8Z"></path></svg>