<svg data-name="Layer 1" xmlns="http://www.w3.org/2000/svg" viewBox="0 0 614.9 405.1"><path d="M14.1 0C6.31 0 0 6.31 0 14.1s6.31 14.1 14.1 14.1 14.1-6.31 14.1-14.1S21.89 0 14.1 0ZM51.79 0C44 0 37.69 6.31 37.69 14.1S44 28.2 51.79 28.2s14.1-6.31 14.1-14.1S59.58 0 51.79 0ZM89.48 0c-7.79 0-14.1 6.31-14.1 14.1s6.31 14.1 14.1 14.1 14.1-6.31 14.1-14.1S97.27 0 89.48 0ZM127.17 0c-7.79 0-14.1 6.31-14.1 14.1s6.31 14.1 14.1 14.1 14.1-6.31 14.1-14.1S134.96 0 127.17 0ZM164.86 0c-7.79 0-14.1 6.31-14.1 14.1s6.31 14.1 14.1 14.1 14.1-6.31 14.1-14.1S172.65 0 164.86 0ZM202.55 0c-7.79 0-14.1 6.31-14.1 14.1s6.31 14.1 14.1 14.1 14.1-6.31 14.1-14.1S210.34 0 202.55 0ZM240.24 0c-7.79 0-14.1 6.31-14.1 14.1s6.31 14.1 14.1 14.1 14.1-6.31 14.1-14.1S248.03 0 240.24 0ZM277.93 0c-7.79 0-14.1 6.31-14.1 14.1s6.31 14.1 14.1 14.1 14.1-6.31 14.1-14.1S285.72 0 277.93 0ZM277.93 37.69c-7.79 0-14.1 6.31-14.1 14.1s6.31 14.1 14.1 14.1 14.1-6.31 14.1-14.1-6.31-14.1-14.1-14.1ZM14.1 75.38C6.31 75.38 0 81.69 0 89.48s6.31 14.1 14.1 14.1 14.1-6.31 14.1-14.1-6.31-14.1-14.1-14.1ZM51.79 75.38c-7.79 0-14.1 6.31-14.1 14.1s6.31 14.1 14.1 14.1 14.1-6.31 14.1-14.1-6.31-14.1-14.1-14.1ZM89.48 75.38c-7.79 0-14.1 6.31-14.1 14.1s6.31 14.1 14.1 14.1 14.1-6.31 14.1-14.1-6.31-14.1-14.1-14.1ZM277.93 75.38c-7.79 0-14.1 6.31-14.1 14.1s6.31 14.1 14.1 14.1 14.1-6.31 14.1-14.1-6.31-14.1-14.1-14.1ZM89.48 113.07c-7.79 0-14.1 6.31-14.1 14.1s6.31 14.1 14.1 14.1 14.1-6.31 14.1-14.1-6.31-14.1-14.1-14.1ZM277.93 113.07c-7.79 0-14.1 6.31-14.1 14.1s6.31 14.1 14.1 14.1 14.1-6.31 14.1-14.1-6.31-14.1-14.1-14.1ZM14.1 150.76c-7.79 0-14.1 6.31-14.1 14.1s6.31 14.1 14.1 14.1 14.1-6.31 14.1-14.1-6.31-14.1-14.1-14.1ZM51.79 150.76c-7.79 0-14.1 6.31-14.1 14.1s6.31 14.1 14.1 14.1 14.1-6.31 14.1-14.1-6.31-14.1-14.1-14.1ZM89.48 150.76c-7.79 0-14.1 6.31-14.1 14.1s6.31 14.1 14.1 14.1 14.1-6.31 14.1-14.1-6.31-14.1-14.1-14.1ZM277.93 150.76c-7.79 0-14.1 6.31-14.1 14.1s6.31 14.1 14.1 14.1 14.1-6.31 14.1-14.1-6.31-14.1-14.1-14.1ZM202.55 188.45c-7.79 0-14.1 6.31-14.1 14.1s6.31 14.1 14.1 14.1 14.1-6.31 14.1-14.1-6.31-14.1-14.1-14.1ZM240.24 188.45c-7.79 0-14.1 6.31-14.1 14.1s6.31 14.1 14.1 14.1 14.1-6.31 14.1-14.1-6.31-14.1-14.1-14.1ZM277.93 188.45c-7.79 0-14.1 6.31-14.1 14.1s6.31 14.1 14.1 14.1 14.1-6.31 14.1-14.1-6.31-14.1-14.1-14.1ZM14.1 226.14c-7.79 0-14.1 6.31-14.1 14.1s6.31 14.1 14.1 14.1 14.1-6.31 14.1-14.1-6.31-14.1-14.1-14.1ZM51.79 226.14c-7.79 0-14.1 6.31-14.1 14.1s6.31 14.1 14.1 14.1 14.1-6.31 14.1-14.1-6.31-14.1-14.1-14.1ZM89.48 226.14c-7.79 0-14.1 6.31-14.1 14.1s6.31 14.1 14.1 14.1 14.1-6.31 14.1-14.1-6.31-14.1-14.1-14.1ZM277.93 226.14c-7.79 0-14.1 6.31-14.1 14.1s6.31 14.1 14.1 14.1 14.1-6.31 14.1-14.1-6.31-14.1-14.1-14.1ZM89.48 263.83c-7.79 0-14.1 6.31-14.1 14.1s6.31 14.1 14.1 14.1 14.1-6.31 14.1-14.1-6.31-14.1-14.1-14.1ZM277.93 263.83c-7.79 0-14.1 6.31-14.1 14.1s6.31 14.1 14.1 14.1 14.1-6.31 14.1-14.1-6.31-14.1-14.1-14.1ZM14.1 301.52c-7.79 0-14.1 6.31-14.1 14.1s6.31 14.1 14.1 14.1 14.1-6.31 14.1-14.1-6.31-14.1-14.1-14.1ZM51.79 301.52c-7.79 0-14.1 6.31-14.1 14.1s6.31 14.1 14.1 14.1 14.1-6.31 14.1-14.1-6.31-14.1-14.1-14.1ZM89.48 301.52c-7.79 0-14.1 6.31-14.1 14.1s6.31 14.1 14.1 14.1 14.1-6.31 14.1-14.1-6.31-14.1-14.1-14.1ZM277.93 301.52c-7.79 0-14.1 6.31-14.1 14.1s6.31 14.1 14.1 14.1 14.1-6.31 14.1-14.1-6.31-14.1-14.1-14.1ZM277.93 339.22c-7.79 0-14.1 6.31-14.1 14.1s6.31 14.1 14.1 14.1 14.1-6.31 14.1-14.1-6.31-14.1-14.1-14.1ZM14.1 376.91c-7.79 0-14.1 6.31-14.1 14.1s6.31 14.1 14.1 14.1 14.1-6.31 14.1-14.1-6.31-14.1-14.1-14.1ZM51.79 376.91c-7.79 0-14.1 6.31-14.1 14.1s6.31 14.1 14.1 14.1 14.1-6.31 14.1-14.1-6.31-14.1-14.1-14.1ZM89.48 376.91c-7.79 0-14.1 6.31-14.1 14.1s6.31 14.1 14.1 14.1 14.1-6.31 14.1-14.1-6.31-14.1-14.1-14.1ZM127.17 376.91c-7.79 0-14.1 6.31-14.1 14.1s6.31 14.1 14.1 14.1 14.1-6.31 14.1-14.1-6.31-14.1-14.1-14.1ZM164.86 376.91c-7.79 0-14.1 6.31-14.1 14.1s6.31 14.1 14.1 14.1 14.1-6.31 14.1-14.1-6.31-14.1-14.1-14.1ZM202.55 376.91c-7.79 0-14.1 6.31-14.1 14.1s6.31 14.1 14.1 14.1 14.1-6.31 14.1-14.1-6.31-14.1-14.1-14.1ZM240.24 376.91c-7.79 0-14.1 6.31-14.1 14.1s6.31 14.1 14.1 14.1 14.1-6.31 14.1-14.1-6.31-14.1-14.1-14.1ZM277.93 376.91c-7.79 0-14.1 6.31-14.1 14.1s6.31 14.1 14.1 14.1 14.1-6.31 14.1-14.1-6.31-14.1-14.1-14.1ZM336.97 0c-7.79 0-14.1 6.31-14.1 14.1s6.31 14.1 14.1 14.1 14.1-6.31 14.1-14.1S344.76 0 336.97 0ZM374.66 0c-7.79 0-14.1 6.31-14.1 14.1s6.31 14.1 14.1 14.1 14.1-6.31 14.1-14.1S382.45 0 374.66 0ZM412.35 0c-7.79 0-14.1 6.31-14.1 14.1s6.31 14.1 14.1 14.1 14.1-6.31 14.1-14.1S420.14 0 412.35 0ZM450.04 0c-7.79 0-14.1 6.31-14.1 14.1s6.31 14.1 14.1 14.1 14.1-6.31 14.1-14.1S457.83 0 450.04 0ZM487.73 0c-7.79 0-14.1 6.31-14.1 14.1s6.31 14.1 14.1 14.1 14.1-6.31 14.1-14.1S495.52 0 487.73 0ZM525.42 0c-7.79 0-14.1 6.31-14.1 14.1s6.31 14.1 14.1 14.1 14.1-6.31 14.1-14.1S533.21 0 525.42 0ZM563.11 0c-7.79 0-14.1 6.31-14.1 14.1s6.31 14.1 14.1 14.1 14.1-6.31 14.1-14.1S570.9 0 563.11 0ZM600.8 28.2c7.79 0 14.1-6.31 14.1-14.1S608.59 0 600.8 0s-14.1 6.31-14.1 14.1 6.31 14.1 14.1 14.1ZM336.97 37.69c-7.79 0-14.1 6.31-14.1 14.1s6.31 14.1 14.1 14.1 14.1-6.31 14.1-14.1-6.31-14.1-14.1-14.1ZM336.97 75.38c-7.79 0-14.1 6.31-14.1 14.1s6.31 14.1 14.1 14.1 14.1-6.31 14.1-14.1-6.31-14.1-14.1-14.1ZM336.97 113.07c-7.79 0-14.1 6.31-14.1 14.1s6.31 14.1 14.1 14.1 14.1-6.31 14.1-14.1-6.31-14.1-14.1-14.1ZM336.97 150.76c-7.79 0-14.1 6.31-14.1 14.1s6.31 14.1 14.1 14.1 14.1-6.31 14.1-14.1-6.31-14.1-14.1-14.1ZM525.42 150.76c-7.79 0-14.1 6.31-14.1 14.1s6.31 14.1 14.1 14.1 14.1-6.31 14.1-14.1-6.31-14.1-14.1-14.1ZM563.11 150.76c-7.79 0-14.1 6.31-14.1 14.1s6.31 14.1 14.1 14.1 14.1-6.31 14.1-14.1-6.31-14.1-14.1-14.1ZM600.8 150.76c-7.79 0-14.1 6.31-14.1 14.1s6.31 14.1 14.1 14.1 14.1-6.31 14.1-14.1-6.31-14.1-14.1-14.1ZM336.97 188.45c-7.79 0-14.1 6.31-14.1 14.1s6.31 14.1 14.1 14.1 14.1-6.31 14.1-14.1-6.31-14.1-14.1-14.1ZM525.42 188.45c-7.79 0-14.1 6.31-14.1 14.1s6.31 14.1 14.1 14.1 14.1-6.31 14.1-14.1-6.31-14.1-14.1-14.1ZM336.97 226.14c-7.79 0-14.1 6.31-14.1 14.1s6.31 14.1 14.1 14.1 14.1-6.31 14.1-14.1-6.31-14.1-14.1-14.1ZM525.42 226.14c-7.79 0-14.1 6.31-14.1 14.1s6.31 14.1 14.1 14.1 14.1-6.31 14.1-14.1-6.31-14.1-14.1-14.1ZM563.11 226.14c-7.79 0-14.1 6.31-14.1 14.1s6.31 14.1 14.1 14.1 14.1-6.31 14.1-14.1-6.31-14.1-14.1-14.1ZM600.8 226.14c-7.79 0-14.1 6.31-14.1 14.1s6.31 14.1 14.1 14.1 14.1-6.31 14.1-14.1-6.31-14.1-14.1-14.1ZM336.97 263.83c-7.79 0-14.1 6.31-14.1 14.1s6.31 14.1 14.1 14.1 14.1-6.31 14.1-14.1-6.31-14.1-14.1-14.1ZM336.97 301.52c-7.79 0-14.1 6.31-14.1 14.1s6.31 14.1 14.1 14.1 14.1-6.31 14.1-14.1-6.31-14.1-14.1-14.1ZM336.97 339.22c-7.79 0-14.1 6.31-14.1 14.1s6.31 14.1 14.1 14.1 14.1-6.31 14.1-14.1-6.31-14.1-14.1-14.1ZM336.97 376.91c-7.79 0-14.1 6.31-14.1 14.1s6.31 14.1 14.1 14.1 14.1-6.31 14.1-14.1-6.31-14.1-14.1-14.1ZM374.66 376.91c-7.79 0-14.1 6.31-14.1 14.1s6.31 14.1 14.1 14.1 14.1-6.31 14.1-14.1-6.31-14.1-14.1-14.1ZM412.35 376.91c-7.79 0-14.1 6.31-14.1 14.1s6.31 14.1 14.1 14.1 14.1-6.31 14.1-14.1-6.31-14.1-14.1-14.1ZM450.04 376.91c-7.79 0-14.1 6.31-14.1 14.1s6.31 14.1 14.1 14.1 14.1-6.31 14.1-14.1-6.31-14.1-14.1-14.1ZM487.73 376.91c-7.79 0-14.1 6.31-14.1 14.1s6.31 14.1 14.1 14.1 14.1-6.31 14.1-14.1-6.31-14.1-14.1-14.1ZM525.42 376.91c-7.79 0-14.1 6.31-14.1 14.1s6.31 14.1 14.1 14.1 14.1-6.31 14.1-14.1-6.31-14.1-14.1-14.1ZM563.11 376.91c-7.79 0-14.1 6.31-14.1 14.1s6.31 14.1 14.1 14.1 14.1-6.31 14.1-14.1-6.31-14.1-14.1-14.1ZM600.8 376.91c-7.79 0-14.1 6.31-14.1 14.1s6.31 14.1 14.1 14.1 14.1-6.31 14.1-14.1-6.31-14.1-14.1-14.1Z"></path></svg>