<svg data-name="Layer 1" xmlns="http://www.w3.org/2000/svg" viewBox="0 0 623.95 623.95"><path d="M311.98 0 0 311.98l311.98 311.98 311.98-311.98L311.98 0Zm0 311.98H191.89c-.7 0-1.3.51-1.42 1.2l-2.09 12.18 120.83 35.61c1.64.48 2.77 1.99 2.77 3.7v162.14c0 18.24-20.03 32.02-39.17 20.44-6.44-3.89-10.22-11.05-10.22-18.57V368.33c0-.93-.59-1.75-1.48-2.04l-84.45-25.68c-2.41-.8-4.44-2.44-5.73-4.62l-10.05-17.03a9.43 9.43 0 0 0-6.97-4.56l-9.71-1.18c-6.73-.82-13.5-1.23-20.27-1.23H12.45L311.98 12.45v299.53Z"></path></svg>