<svg data-name="Layer 1" xmlns="http://www.w3.org/2000/svg" viewBox="0 0 602.78 441.31"><path d="M102.35 125.62c0 47.87 39.16 87.03 87.03 87.03h413.39v-15.66c-25.55-13.57-42.96-40.43-42.96-71.37s17.41-57.8 42.96-71.37V38.59H189.38c-47.87 0-87.03 39.16-87.03 87.03ZM102.35 315.69c0 47.87 39.16 87.03 87.03 87.03h413.39v-15.66c-25.55-13.57-42.96-40.43-42.96-71.37s17.41-57.8 42.96-71.37v-15.66H189.38c-47.87 0-87.03 39.16-87.03 87.03Z"></path><path d="M220.66 0C98.99 0 0 98.98 0 220.65S98.99 441.3 220.66 441.3h382.12v-22.48H220.66c-109.28 0-198.18-88.9-198.18-198.18s88.9-198.16 198.18-198.16h382.12V0H220.66Z"></path></svg>