<svg id="Layer_1" data-name="Layer 1" xmlns="http://www.w3.org/2000/svg" viewBox="0 0 614.9 614.91">   <polygon points="390.02 228.76 502.44 228.76 502.44 114.02 387.69 114.02 387.69 224.89 228.76 224.89 228.76 112.47 114.02 112.47 114.02 227.21 224.89 227.21 224.89 386.14 112.47 386.14 112.47 500.89 227.21 500.89 227.21 390.02 386.14 390.02 386.14 502.44 500.89 502.44 500.89 387.69 390.02 387.69 390.02 228.76"></polygon>   <rect x="87.66" y="251.24" width="112.42" viewBox="0 0 112.42 112.42" height="112.42"></rect>   <rect y="271.16" width="72.59" height="72.59"></rect>   <rect x="251.24" y="87.66" width="112.42" height="112.42"></rect>   <rect x="271.16" width="72.59" height="72.59"></rect>   <rect x="414.83" y="251.24" width="112.42" height="112.42"></rect>   <rect x="542.32" y="271.16" width="72.59" height="72.59"></rect>   <rect x="251.24" y="414.83" width="112.42" height="112.42"></rect>   <rect x="271.16" y="542.32" width="72.59" height="72.59"></rect> </svg>