<svg data-name="Layer 1" xmlns="http://www.w3.org/2000/svg" viewBox="0 0 599.21 617.77"><path d="M92.8 0H0v302.88h293.6v-45.56H92.8V0z"></path><path d="M198.26 0h-92.8v244.66H293.6v-45.55h-95.34V0zM506.4 0v257.32H305.61v45.56h293.6V0H506.4z"></path><path d="M493.75 0h-92.8v199.11h-95.34v45.55h188.14V0zM305.61 360.45H506.4v257.32h92.81V314.89h-293.6v45.56z"></path><path d="M305.61 418.66h95.34v199.11h92.8V373.1H305.61v45.56zM0 617.77h92.8V360.45h200.8v-45.56H0v302.88z"></path><path d="M105.46 617.77h92.8V418.66h95.34V373.1H105.46v244.67z"></path></svg>