<svg data-name="Layer 1" xmlns="http://www.w3.org/2000/svg" viewBox="0 0 575.77 552.63"><path d="M286.23 483.59c109.22 0 199.79-80.35 216.35-184.99h-50.76c-15.9 76.85-84.1 134.79-165.59 134.79-93.25 0-169.1-75.85-169.1-169.1 0-54.07 25.6-102.17 65.22-133.15h-69.98c-28.38 36.97-45.45 83.05-45.45 133.15 0 120.93 98.38 219.31 219.31 219.31Z"></path><path d="M575.77 0h-61.61L299.97 301.25h61.61l24.6-34.59c-1.28 54.07-45.57 97.68-99.94 97.68-42.11 0-78.15-26.18-92.9-63.09h56.05L463.59 0h-61.61l-83.57 117.53c-10.36-2.3-21.12-3.52-32.18-3.52-82.86 0-150.27 67.41-150.27 150.27s67.41 150.27 150.27 150.27S436.5 347.14 436.5 264.28c0-19.08-3.63-37.31-10.18-54.09l56.49-79.45c26.05 38.12 41.56 83.97 41.56 133.54 0 131.31-106.83 238.14-238.14 238.14-119.63 0-218.65-88.76-235.37-203.82H0c17.03 142.87 138.85 254.03 286.23 254.03 159 0 288.35-129.35 288.35-288.35 0-66.65-22.81-128.03-60.93-176.91L575.77 0Zm-290.6 164.27-93.73 131.82c-3.37-10.01-5.27-20.68-5.27-31.81 0-54.82 44.32-99.43 99-100.01Z"></path></svg>