<svg data-name="Layer 1" xmlns="http://www.w3.org/2000/svg" viewBox="0 0 609.03 609.03"><path d="M118.72 250.42H4.79A306.1 306.1 0 0 0 0 304.51v304.52h231.1V362.8c0-62.07-50.31-112.38-112.38-112.38ZM358.61 118.72V4.79A306.85 306.85 0 0 0 304.53 0h-.03C161.64 0 41.78 98.4 8.93 231.1h237.3c62.07 0 112.38-50.31 112.38-112.38ZM377.93 8.93v237.3c0 62.06 50.31 112.38 112.38 112.38h113.93a306.1 306.1 0 0 0 4.79-54.09c0-142.87-98.39-262.73-231.1-295.59ZM250.42 490.31v118.72h54.09c142.86 0 262.73-98.39 295.58-231.1h-237.3c-62.07 0-112.38 50.31-112.38 112.38Z"></path></svg>