<svg data-name="Layer 1" xmlns="http://www.w3.org/2000/svg" viewBox="0 0 620.97 620.97"><path d="M220.4 0c-48.59 0-87.99 39.39-87.99 87.99 0 3.44.2 6.89.6 10.31 2.25 19.27 11.01 37.48 24.59 51.32 8.26 8.42 18.24 15.07 29.15 19.54 5.5 2.25 11.23 3.96 17.06 5.12 6.1 1.21 11.88 1.08 18.04 1.57 13.91 1.11 27.43 4.95 37.24 15.29 8.41 8.86 13.36 20.84 13.36 33.08 0 13.32-5.4 25.38-14.13 34.11s-20.79 14.13-34.11 14.13c-12.24 0-24.22-4.95-33.08-13.36-10.34-9.81-14.18-23.32-15.29-37.24-.49-6.16-.36-11.94-1.57-18.04-1.16-5.83-2.86-11.56-5.12-17.06-4.47-10.91-11.12-20.89-19.54-29.15-13.84-13.58-32.05-22.34-51.32-24.59-3.42-.4-6.86-.6-10.31-.6C39.39 132.41 0 171.81 0 220.4s39.39 87.99 87.99 87.99h220.4V87.99c0-48.6-39.4-87.99-87.99-87.99ZM620.97 220.4c0-48.59-39.39-87.99-87.99-87.99-3.44 0-6.89.2-10.31.6-19.27 2.25-37.48 11.01-51.32 24.59-8.42 8.26-15.07 18.24-19.54 29.15-2.25 5.5-3.96 11.23-5.12 17.06-1.21 6.1-1.08 11.88-1.57 18.04-1.11 13.91-4.95 27.43-15.29 37.24-8.86 8.41-20.84 13.36-33.08 13.36-13.32 0-25.38-5.4-34.11-14.13s-14.13-20.79-14.13-34.11c0-12.24 4.95-24.22 13.36-33.08 9.81-10.34 23.32-14.18 37.24-15.29 6.16-.49 11.94-.36 18.04-1.57 5.83-1.16 11.56-2.86 17.06-5.12 10.91-4.47 20.89-11.12 29.15-19.54 13.58-13.84 22.34-32.05 24.59-51.32.4-3.42.6-6.86.6-10.31C488.56 39.39 449.17 0 400.57 0s-87.99 39.39-87.99 87.99v220.4h220.4c48.59 0 87.99-39.39 87.99-87.99ZM532.99 312.59h-220.4v220.4c0 15.19 3.85 29.47 10.62 41.94 2.71 4.99 5.89 9.68 9.47 14.03 1.79 2.17 3.69 4.26 5.68 6.25 15.92 15.92 37.92 25.77 62.22 25.77 17.79 0 34.31-5.32 48.15-14.39V445.01h-51.97c-16.65 0-31.33-8.44-40-21.27-5.2-7.7-8.24-16.98-8.24-26.97 0-18.32 10.21-34.25 25.25-42.42 6.84-3.71 14.67-5.82 22.99-5.82 1.55 0 3.08.09 4.59.23 10.61 1.07 20.74 5.77 28.49 13.13 6.6 6.26 10.55 14.03 12.84 22.46 1.64 6.05 2.02 12.26 2.43 18.48.52 20.52 7.99 39.31 20.25 54.02.15.19.33.35.48.53 1.67 1.97 3.41 3.89 5.24 5.71.09.09.17.2.27.29 1.76 1.73 3.6 3.38 5.5 4.95.58.48 1.2.9 1.79 1.37 1.44 1.13 2.88 2.25 4.39 3.28 1.05.73 2.15 1.39 3.24 2.07 1.1.69 2.19 1.38 3.32 2.01 1.23.7 2.48 1.34 3.74 1.98 1.07.54 2.15 1.06 3.24 1.56 1.29.59 2.59 1.15 3.91 1.68 1.21.48 2.43.91 3.66 1.34 1.22.43 2.44.87 3.69 1.24 1.88.56 3.8 1.03 5.72 1.47.64.14 1.26.34 1.9.47 2.39.49 4.81.88 7.24 1.16.2.02.4.01.6.03 3.19.35 6.42.56 9.7.56 48.59 0 87.99-39.39 87.99-87.99s-39.39-87.99-87.99-87.99ZM0 400.57c0 48.59 39.39 87.99 87.99 87.99 3.44 0 6.89-.2 10.31-.6 19.27-2.25 37.48-11.01 51.32-24.59 8.42-8.26 15.07-18.24 19.54-29.15 2.25-5.5 3.96-11.23 5.12-17.06 2.16-10.86 1.11-22.09 4.02-32.82 2.28-8.42 6.24-16.2 12.84-22.46 8.86-8.41 20.84-13.36 33.08-13.36 13.32 0 25.38 5.4 34.11 14.13s14.13 20.79 14.13 34.11c0 26.64-21.6 48.24-48.24 48.24h-51.97v161.58c13.84 9.07 30.37 14.39 48.15 14.39 48.59 0 87.99-39.39 87.99-87.99v-220.4H87.99C39.39 312.59 0 351.98 0 400.57Z"></path></svg>