<svg xmlns="http://www.w3.org/2000/svg" width="613.4" viewBox="0 0 613.4 613.4" height="613.4" xml:space="preserve" style="enable-background:new 0 0 613.4 613.4"><path d="M510.5 203.7c-56.9 0-103 46.1-103 103s46.1 103 103 103 103-46.1 103-103c-.1-56.9-46.2-103-103-103zM0 306.7c0 169.4 137.3 306.7 306.7 306.7 31.6 0 62-4.8 90.7-13.6V355.5c-17.4 32.2-51.5 54.2-90.7 54.2-56.9 0-103-46.1-103-103s46.1-103 103-103c39.2 0 73.3 21.9 90.7 54.2V13.6C368.7 4.8 338.3 0 306.7 0 137.3 0 0 137.3 0 306.7z"></path></svg>