<svg xmlns="http://www.w3.org/2000/svg" width="608.7" viewBox="0 0 608.7 608.7" height="608.7" xml:space="preserve"><path d="M0 0v608.7h608.7V0H0zm573.8 306.6L412.7 125.7v58.6l126.2 144.5c36.6 41.8 45.1 99.3 22.1 150s-71.8 82.1-127.4 82.1H175.1c-55.6 0-104.5-31.5-127.4-82.1s-14.5-108.1 22.2-150L196 184.3v-58.6L34.9 306.6V34.9h251.2v183.2l-148.5 170c-19.7 22.5-11 46.6-7.9 53.5 3.1 6.9 15.6 29.3 45.4 29.3h258.5c29.8 0 42.3-22.4 45.4-29.3 3.1-6.9 11.7-31-7.9-53.4l-148.5-170V34.9h251.2v271.7z"></path></svg>