<svg id="Layer_1" data-name="Layer 1" xmlns="http://www.w3.org/2000/svg" viewBox="0 0 614.55 605.37">
  <path d="M509.07,66.67v231.42c0,111.27-90.53,201.79-201.79,201.79s-201.79-90.52-201.79-201.79V66.67C40.91,123.04,0,205.85,0,298.09c0,169.43,137.84,307.28,307.27,307.28s307.27-137.84,307.27-307.28c0-92.24-40.91-175.05-105.48-231.42Z"></path>
  <path d="M307.27,478.06c99.23,0,179.97-80.73,179.97-179.97V49.27C455.97,26.59,420.3,9.65,381.76,0V298.09c0,41.14-33.35,74.49-74.49,74.49s-74.49-33.35-74.49-74.49V0c-38.53,9.66-74.21,26.59-105.48,49.27v248.82c0,99.24,80.73,179.97,179.97,179.97Z"></path>
</svg>