<svg data-name="Layer 1" xmlns="http://www.w3.org/2000/svg" viewBox="0 0 624.35 624.42"><path d="M5.9 253.13c-3.39 0-6.09-2.84-5.89-6.19 1.1-21.61 11.18-93.61 96.65-118.81 42.11-12.42 52.49-35.48 52.49-81.78V5.89c0-3.24 2.64-5.89 5.89-5.89H344.9c3.24 0 5.89 2.64 5.89 5.89v241.35c0 3.24-2.64 5.89-5.89 5.89H5.9ZM371.2 5.94c0-3.39 2.84-6.09 6.19-5.89C399 1.15 471 11.23 496.2 96.7c12.42 42.11 35.48 52.49 81.78 52.49h40.47c3.24 0 5.89 2.64 5.89 5.89v189.86c0 3.24-2.64 5.89-5.89 5.89H377.09c-3.24 0-5.89-2.64-5.89-5.89v-339ZM618.45 371.29c3.39 0 6.09 2.84 5.89 6.19-1.1 21.61-11.18 93.61-96.65 118.81-42.11 12.42-52.49 35.48-52.49 81.78v40.47c0 3.24-2.64 5.89-5.89 5.89H279.45c-3.24 0-5.89-2.64-5.89-5.89V377.18c0-3.24 2.64-5.89 5.89-5.89h339.01ZM253.14 618.49c0 3.39-2.84 6.09-6.19 5.89-21.61-1.1-93.61-11.18-118.81-96.65-12.42-42.11-35.48-52.49-81.78-52.49H5.9c-3.24 0-5.89-2.64-5.89-5.89V279.49c0-3.24 2.64-5.89 5.89-5.89h241.36c3.24 0 5.89 2.64 5.89 5.89V618.5Z"></path></svg>