<svg id="Layer_1" data-name="Layer 1" xmlns="http://www.w3.org/2000/svg" viewBox="0 0 620.19 607.95">   <path d="M371.9,.07c.18,5.56,.46,11.14,.91,16.74,9.81,122.68,85.06,231.75,196.38,284.63,30.73,14.6,43.81,51.34,29.21,82.07-14.6,30.73-51.35,43.81-82.07,29.21C365.36,341.01,263.31,193.06,250.01,26.63c-.71-8.92-1.11-17.79-1.32-26.63C106.84,28.5,0,153.76,0,303.99s106.75,275.39,248.5,303.96V137.18c24.18,76.25,66.66,145.44,123.2,201.48v269.29c141.75-28.57,248.5-153.79,248.5-303.96S513.55,28.72,371.9,.07ZM227.19,327.42c-35.82,34.42-77.28,63.42-123.33,85.3-30.72,14.59-67.47,1.52-82.07-29.21-14.6-30.73-1.52-67.47,29.21-82.07,82.6-39.24,145.31-109.43,176.19-193.15v219.13Z"></path> </svg>