<svg id="Layer_1" data-name="Layer 1" xmlns="http://www.w3.org/2000/svg" viewBox="0 0 480.96 620.15">   <path d="M23.15,65.07c3.06,2.22,4.34,6.17,3.17,9.76l-7.46,22.95c-2.61,8.05,6.59,14.74,13.44,9.76l19.52-14.19c3.06-2.22,7.21-2.22,10.27,0l19.52,14.19c6.84,4.97,16.05-1.72,13.44-9.76l-7.46-22.95c-1.17-3.6,.11-7.54,3.17-9.76l19.52-14.19c6.84-4.97,3.33-15.8-5.13-15.8h-24.13c-3.78,0-7.14-2.44-8.31-6.03l-7.46-22.95c-2.61-8.05-14-8.05-16.61,0l-7.46,22.95c-1.17,3.6-4.52,6.03-8.31,6.03H8.76c-8.46,0-11.98,10.82-5.13,15.8l19.52,14.19Z"></path>   <path d="M227.59,35.09h-24.25c-3.77,0-7.11-2.43-8.28-6.01l-7.49-23.06c-2.61-8.02-13.95-8.02-16.55,0l-7.49,23.06c-1.17,3.59-4.51,6.01-8.28,6.01h-24.25c-8.43,0-11.94,10.79-5.12,15.74l19.62,14.25c3.05,2.22,4.33,6.14,3.16,9.73l-7.49,23.06c-2.61,8.02,6.57,14.69,13.39,9.73l19.62-14.25c3.05-2.22,7.18-2.22,10.23,0l19.62,14.25c6.82,4.96,16-1.71,13.39-9.73l-7.49-23.06c-1.16-3.59,.11-7.51,3.16-9.73l19.62-14.25c6.82-4.96,3.32-15.74-5.12-15.74Z"></path>   <path d="M349.91,35.09h-24.22c-3.77,0-7.12-2.43-8.28-6.02l-7.49-23.04c-2.61-8.02-13.96-8.02-16.56,0l-7.49,23.04c-1.17,3.59-4.51,6.02-8.28,6.02h-24.22c-8.44,0-11.94,10.8-5.12,15.75l19.6,14.24c3.05,2.22,4.33,6.15,3.16,9.74l-7.49,23.04c-2.61,8.02,6.58,14.7,13.4,9.74l19.6-14.24c3.05-2.22,7.19-2.22,10.24,0l19.6,14.24c6.83,4.96,16.01-1.71,13.4-9.74l-7.49-23.04c-1.17-3.59,.11-7.52,3.16-9.74l19.6-14.24c6.83-4.96,3.32-15.75-5.12-15.75Z"></path>   <path d="M390.18,65.08c3.05,2.22,4.33,6.15,3.17,9.74l-7.48,23.02c-2.61,8.03,6.58,14.71,13.41,9.74l19.58-14.22c3.05-2.22,7.19-2.22,10.25,0l19.58,14.22c6.83,4.96,16.02-1.71,13.41-9.74l-7.48-23.02c-1.17-3.59,.11-7.52,3.17-9.74l19.58-14.22c6.83-4.96,3.32-15.77-5.12-15.77h-24.2c-3.78,0-7.12-2.43-8.29-6.02l-7.48-23.02c-2.61-8.03-13.97-8.03-16.58,0l-7.48,23.02c-1.17,3.59-4.51,6.02-8.29,6.02h-24.2c-8.44,0-11.95,10.8-5.12,15.77l19.58,14.22Z"></path>   <path d="M105.17,236.97h-24.14c-3.78,0-7.13-2.44-8.3-6.03l-7.46-22.96c-2.61-8.04-13.99-8.04-16.6,0l-7.46,22.96c-1.17,3.6-4.52,6.03-8.3,6.03H8.75c-8.46,0-11.97,10.82-5.13,15.79l19.53,14.19c3.06,2.22,4.34,6.16,3.17,9.76l-7.46,22.96c-2.61,8.04,6.59,14.73,13.43,9.76l19.53-14.19c3.06-2.22,7.2-2.22,10.26,0l19.53,14.19c6.84,4.97,16.05-1.72,13.43-9.76l-7.46-22.96c-1.17-3.6,.11-7.54,3.17-9.76l19.53-14.19c6.84-4.97,3.33-15.79-5.13-15.79Z"></path>   <path d="M227.51,236.97h-24.14c-3.78,0-7.13-2.44-8.3-6.03l-7.46-22.96c-2.61-8.04-13.99-8.04-16.6,0l-7.46,22.96c-1.17,3.6-4.52,6.03-8.3,6.03h-24.14c-8.46,0-11.97,10.82-5.13,15.79l19.53,14.19c3.06,2.22,4.34,6.16,3.17,9.76l-7.46,22.96c-2.61,8.04,6.59,14.73,13.43,9.76l19.53-14.19c3.06-2.22,7.2-2.22,10.26,0l19.53,14.19c6.84,4.97,16.05-1.72,13.43-9.76l-7.46-22.96c-1.17-3.6,.11-7.54,3.17-9.76l19.53-14.19c6.84-4.97,3.33-15.79-5.13-15.79Z"></path>   <path d="M349.85,236.97h-24.14c-3.78,0-7.13-2.44-8.3-6.03l-7.46-22.96c-2.61-8.04-13.99-8.04-16.6,0l-7.46,22.96c-1.17,3.6-4.52,6.03-8.3,6.03h-24.14c-8.46,0-11.97,10.82-5.13,15.79l19.53,14.19c3.06,2.22,4.34,6.16,3.17,9.76l-7.46,22.96c-2.61,8.04,6.59,14.73,13.43,9.76l19.53-14.19c3.06-2.22,7.2-2.22,10.26,0l19.53,14.19c6.84,4.97,16.05-1.72,13.43-9.76l-7.46-22.96c-1.17-3.6,.11-7.54,3.17-9.76l19.53-14.19c6.84-4.97,3.33-15.79-5.13-15.79Z"></path>   <path d="M472.19,236.97h-24.14c-3.78,0-7.13-2.44-8.3-6.03l-7.46-22.96c-2.61-8.04-13.99-8.04-16.6,0l-7.46,22.96c-1.17,3.6-4.52,6.03-8.3,6.03h-24.14c-8.46,0-11.97,10.82-5.13,15.79l19.53,14.19c3.06,2.22,4.34,6.16,3.17,9.76l-7.46,22.96c-2.61,8.04,6.59,14.73,13.43,9.76l19.53-14.19c3.06-2.22,7.2-2.22,10.26,0l19.53,14.19c6.84,4.97,16.05-1.72,13.43-9.76l-7.46-22.96c-1.17-3.6,.11-7.54,3.17-9.76l19.53-14.19c6.84-4.97,3.33-15.79-5.13-15.79Z"></path>   <path d="M105.17,339.97h-24.14c-3.78,0-7.13-2.44-8.3-6.03l-7.46-22.96c-2.61-8.04-13.99-8.04-16.6,0l-7.46,22.96c-1.17,3.6-4.52,6.03-8.3,6.03H8.75c-8.46,0-11.97,10.82-5.13,15.79l19.53,14.19c3.06,2.22,4.34,6.16,3.17,9.76l-7.46,22.96c-2.61,8.04,6.59,14.73,13.43,9.76l19.53-14.19c3.06-2.22,7.2-2.22,10.26,0l19.53,14.19c6.84,4.97,16.05-1.72,13.43-9.76l-7.46-22.96c-1.17-3.6,.11-7.54,3.17-9.76l19.53-14.19c6.84-4.97,3.33-15.79-5.13-15.79Z"></path>   <path d="M227.51,339.97h-24.14c-3.78,0-7.13-2.44-8.3-6.03l-7.46-22.96c-2.61-8.04-13.99-8.04-16.6,0l-7.46,22.96c-1.17,3.6-4.52,6.03-8.3,6.03h-24.14c-8.46,0-11.97,10.82-5.13,15.79l19.53,14.19c3.06,2.22,4.34,6.16,3.17,9.76l-7.46,22.96c-2.61,8.04,6.59,14.73,13.43,9.76l19.53-14.19c3.06-2.22,7.2-2.22,10.26,0l19.53,14.19c6.84,4.97,16.05-1.72,13.43-9.76l-7.46-22.96c-1.17-3.6,.11-7.54,3.17-9.76l19.53-14.19c6.84-4.97,3.33-15.79-5.13-15.79Z"></path>   <path d="M349.85,339.97h-24.14c-3.78,0-7.13-2.44-8.3-6.03l-7.46-22.96c-2.61-8.04-13.99-8.04-16.6,0l-7.46,22.96c-1.17,3.6-4.52,6.03-8.3,6.03h-24.14c-8.46,0-11.97,10.82-5.13,15.79l19.53,14.19c3.06,2.22,4.34,6.16,3.17,9.76l-7.46,22.96c-2.61,8.04,6.59,14.73,13.43,9.76l19.53-14.19c3.06-2.22,7.2-2.22,10.26,0l19.53,14.19c6.84,4.97,16.05-1.72,13.43-9.76l-7.46-22.96c-1.17-3.6,.11-7.54,3.17-9.76l19.53-14.19c6.84-4.97,3.33-15.79-5.13-15.79Z"></path>   <path d="M105.17,442.98h-24.14c-3.78,0-7.13-2.44-8.3-6.03l-7.46-22.96c-2.61-8.04-13.99-8.04-16.6,0l-7.46,22.96c-1.17,3.6-4.52,6.03-8.3,6.03H8.75c-8.46,0-11.97,10.82-5.13,15.79l19.53,14.19c3.06,2.22,4.34,6.16,3.17,9.76l-7.46,22.96c-2.61,8.04,6.59,14.73,13.43,9.76l19.53-14.19c3.06-2.22,7.2-2.22,10.26,0l19.53,14.19c6.84,4.97,16.05-1.72,13.43-9.76l-7.46-22.96c-1.17-3.6,.11-7.54,3.17-9.76l19.53-14.19c6.84-4.97,3.33-15.79-5.13-15.79Z"></path>   <path d="M227.51,442.98h-24.14c-3.78,0-7.13-2.44-8.3-6.03l-7.46-22.96c-2.61-8.04-13.99-8.04-16.6,0l-7.46,22.96c-1.17,3.6-4.52,6.03-8.3,6.03h-24.14c-8.46,0-11.97,10.82-5.13,15.79l19.53,14.19c3.06,2.22,4.34,6.16,3.17,9.76l-7.46,22.96c-2.61,8.04,6.59,14.73,13.43,9.76l19.53-14.19c3.06-2.22,7.2-2.22,10.26,0l19.53,14.19c6.84,4.97,16.05-1.72,13.43-9.76l-7.46-22.96c-1.17-3.6,.11-7.54,3.17-9.76l19.53-14.19c6.84-4.97,3.33-15.79-5.13-15.79Z"></path>   <path d="M105.17,545.98h-24.14c-3.78,0-7.13-2.44-8.3-6.03l-7.46-22.96c-2.61-8.04-13.99-8.04-16.6,0l-7.46,22.96c-1.17,3.6-4.52,6.03-8.3,6.03H8.75c-8.46,0-11.97,10.82-5.13,15.79l19.53,14.19c3.06,2.22,4.34,6.16,3.17,9.76l-7.46,22.96c-2.61,8.04,6.59,14.73,13.43,9.76l19.53-14.19c3.06-2.22,7.2-2.22,10.26,0l19.53,14.19c6.84,4.97,16.05-1.72,13.43-9.76l-7.46-22.96c-1.17-3.6,.11-7.54,3.17-9.76l19.53-14.19c6.84-4.97,3.33-15.79-5.13-15.79Z"></path> </svg>