<svg id="Layer_1" data-name="Layer 1" xmlns="http://www.w3.org/2000/svg" viewBox="0 0 601.6 602.59">   <path d="M16.51,601.7c.04,1.19,1.81,1.18,1.84-.01L29.29,156.86l16.46,444.85c.04,1.19,1.81,1.18,1.84-.01l10.68-415.68,16.07,415.69c.04,1.19,1.81,1.18,1.84-.01l10.68-387.85,16.07,387.86c.04,1.19,1.81,1.18,1.84-.01l10.68-360.66,16.07,360.67c.04,1.19,1.81,1.18,1.84-.01l10.68-332.84,16.07,332.85c.04,1.19,1.81,1.18,1.84-.01l10.68-305.64,16.07,305.65c.04,1.19,1.81,1.18,1.84-.01l10.98-304.32L0,97.14l16.51,504.56Z"></path>   <path d="M400.08,297.37l10.98,304.32c.03,1.19,1.8,1.2,1.84,.01l16.07-305.65,10.68,305.64c.03,1.19,1.8,1.2,1.84,.01l16.07-332.85,10.68,332.84c.03,1.19,1.8,1.2,1.84,.01l16.07-360.67,10.68,360.66c.03,1.19,1.8,1.2,1.84,.01l16.07-387.86,10.68,387.85c.03,1.19,1.8,1.2,1.84,.01l16.07-415.69,10.68,415.68c.03,1.19,1.8,1.2,1.84,.01l16.46-444.85,10.94,444.83c.03,1.19,1.8,1.2,1.84,.01l16.51-504.56-201.52,200.23Z"></path>   <path d="M303.06,601.7c.04,1.19,1.81,1.18,1.84-.01l5.52-152.93h-14.95l7.6,152.94Z"></path>   <circle cx="302.94" cy="99.68" r="99.68" transform="translate(173.9 391.32) rotate(-84.35)"></circle> </svg>