<svg xmlns="http://www.w3.org/2000/svg" width="612.2" viewBox="0 0 612.2 474.4" height="474.4" xml:space="preserve"><path d="M301.2 0C184.7 0 81.9 16.1 81.9 16.1 20.1 28.4 12.1 43.4 6.6 102.4c0 0-6.6 43.9-6.6 115.4v4.4h98.6C181 222.2 251.8 160.6 286 84c16.8-37.7 16.8-84 16.8-84h-1.6zM301.2 474.4C184.7 474.4 81.9 458 81.9 458c-61.7-12.5-69.8-27.8-75.3-87.9 0 0-6.6-44.8-6.6-117.7v-4.5h98.6c82.4 0 153.2 62.8 187.4 140.9 16.8 38.5 16.8 85.6 16.8 85.6h-1.6zM605.6 104.1c-5.5-59-15.3-74-77-86.2 0 0-94.3-17.9-210.7-17.9v474.4c116.4 0 210.7-17.9 210.7-17.9 61.7-12.2 71.5-27.2 77-86.2 0 0 6.6-59.4 6.6-130.9V235c0-71.5-6.6-130.9-6.6-130.9zM458.2 277.9c-24.2 0-43.8-19.6-43.8-43.8 0-24.2 19.6-43.8 43.8-43.8 24.2 0 43.8 19.6 43.8 43.8 0 24.2-19.6 43.8-43.8 43.8z"></path></svg>