<svg data-name="Layer 1" xmlns="http://www.w3.org/2000/svg" viewBox="0 0 618.48 629.45"><path d="M492.84 285.06c-18.28-10.56-29.55-30.07-29.55-51.18V88.94l-51.35-29.65v204.24c0 21.11 11.26 40.62 29.55 51.18L618.48 416.9v-59.3l-125.64-72.54Z"></path><path d="M334.92 308V14.82L309.24 0l-25.68 14.82v293.17c0 21.12-11.27 40.64-29.56 51.2L0 505.84v29.78l34.13 19.71 248.35-143.38c18.29-10.56 40.82-10.56 59.11 0l245.56 141.77 31.34-18.09v-29.78L364.47 359.19c-18.28-10.56-29.55-30.07-29.55-51.18Z"></path><path d="M282.48 426.77 46.97 562.74l51.35 29.65 184.16-106.32c18.29-10.56 40.82-10.56 59.11 0l181.37 104.71 51.35-29.65-232.72-134.36c-18.29-10.56-40.82-10.56-59.11 0ZM399.11 270.94V51.88l-51.35-29.65v278.36c0 21.11 11.26 40.62 29.55 51.18l241.18 139.25v-59.3l-189.83-109.6c-18.28-10.56-29.55-30.07-29.55-51.18ZM270.73 300.58V22.24l-51.35 29.65v219.04c0 21.12-11.27 40.64-29.56 51.2L0 431.72v59.3l241.17-139.24c18.29-10.56 29.56-30.08 29.56-51.2Z"></path><path d="M206.54 263.52V59.3l-51.35 29.65v144.92c0 21.12-11.27 40.64-29.56 51.2L0 357.6v59.3l176.98-102.18c18.29-10.56 29.56-30.08 29.56-51.2ZM282.48 500.88l-171.33 98.91 51.35 29.65 119.97-69.26c18.29-10.56 40.82-10.56 59.11 0l117.18 67.65 51.35-29.65-168.53-97.3c-18.29-10.56-40.82-10.56-59.11 0Z"></path></svg>