<svg data-name="Layer 1" xmlns="http://www.w3.org/2000/svg" viewBox="0 0 624.81 624.81"><path d="M312.4 0C140.15 0 0 140.15 0 312.41s140.15 312.4 312.4 312.4 312.4-140.15 312.4-312.4S484.66 0 312.4 0Zm0 591.4c-161.96 0-293.73-131.76-293.73-293.73 0-107.25 57.8-201.21 143.86-252.49C83.71 95.05 31.22 182.95 31.22 282.92c0 155.05 126.14 281.19 281.19 281.19S593.6 437.97 593.6 282.92c0-99.98-52.49-187.87-131.32-237.74 86.06 51.28 143.86 145.24 143.86 252.49 0 161.97-131.77 293.73-293.74 293.73Zm0-60.69c-144.76 0-262.52-117.77-262.52-262.53 0-93.15 48.91-174.92 122.26-221.53-66.16 45.03-109.71 120.91-109.71 206.8 0 137.84 112.14 249.98 249.98 249.98s249.98-112.14 249.98-249.98c0-85.89-43.55-161.77-109.71-206.79 73.35 46.61 122.26 128.38 122.26 221.52 0 144.76-117.77 262.53-262.53 262.53Zm0-60.7c-127.55 0-231.31-103.77-231.31-231.31 0-82.4 43.45-154.68 108.5-195.66-57.86 39.41-95.95 105.79-95.95 180.92 0 120.63 98.14 218.77 218.76 218.77s218.77-98.14 218.77-218.77c0-75.13-38.09-141.5-95.94-180.91 65.05 40.98 108.49 113.26 108.49 195.65 0 127.54-103.77 231.31-231.32 231.31Zm0-60.7c-110.34 0-200.1-89.77-200.1-200.1 0-71.67 38-134.48 94.79-169.83-49.6 33.78-82.24 90.68-82.24 155.08 0 103.42 84.14 187.56 187.55 187.56s187.56-84.14 187.56-187.56c0-64.4-32.65-121.3-82.25-155.08 56.79 35.35 94.79 98.16 94.79 169.83 0 110.34-89.77 200.1-200.1 200.1Zm0-60.7c-93.12 0-168.89-75.76-168.89-168.88 0-60.88 32.49-114.18 80.92-143.9-41.24 28.18-68.38 75.54-68.38 129.16 0 86.2 70.13 156.34 156.34 156.34s156.35-70.13 156.35-156.34c0-53.62-27.15-100.99-68.39-129.16 48.45 29.72 80.94 83.02 80.94 143.91 0 93.12-75.76 168.88-168.89 168.88Zm0-60.7c-75.91 0-137.67-61.76-137.67-137.67 0-50.16 27.05-94.02 67.24-118.09-32.99 22.55-54.7 60.45-54.7 103.34 0 69 56.13 125.13 125.13 125.13s125.13-56.13 125.13-125.13c0-42.89-21.71-80.79-54.7-103.34 40.19 24.07 67.24 67.92 67.24 118.08 0 75.91-61.76 137.67-137.68 137.67Zm0-60.69c-58.7 0-106.46-47.76-106.46-106.47 0-39.37 21.53-73.73 53.39-92.15-24.64 16.95-40.84 45.31-40.84 77.41 0 51.79 42.13 93.93 93.92 93.93s93.92-42.14 93.92-93.93c0-32.1-16.21-60.46-40.84-77.4 31.85 18.42 53.39 52.78 53.39 92.15 0 58.71-47.76 106.47-106.47 106.47Zm0-60.7c-41.49 0-75.25-33.76-75.25-75.25 0-28.63 16.08-53.57 39.68-66.29-16.36 11.33-27.13 30.18-27.13 51.54 0 34.58 28.12 62.71 62.7 62.71s62.71-28.12 62.71-62.71c0-21.36-10.78-40.22-27.14-51.54 23.6 12.71 39.69 37.65 39.69 66.29 0 41.49-33.76 75.25-75.26 75.25Zm0-60.7c-24.28 0-44.03-19.75-44.03-44.04 0-17.26 10.06-32.07 24.55-39.29-7.26 5.78-12 14.58-12 24.55 0 17.36 14.13 31.5 31.49 31.5s31.5-14.13 31.5-31.5c0-9.97-4.75-18.77-12-24.54 14.48 7.22 24.55 22.03 24.55 39.29 0 24.29-19.75 44.04-44.04 44.04Z"></path></svg>