<svg xmlns="http://www.w3.org/2000/svg" width="629.8" viewBox="0 0 629.8 600.3" height="600.3" xml:space="preserve" style="enable-background:new 0 0 629.8 600.3"><path d="M614.8 364.6c-2.2-5.3-4.7-10.3-7.4-15l.2-.1L463.3 96.6c-11.4-20.3-22.3-39.6-40-55.7C394.3 14.5 356.7 0 317.4 0c-50.6 0-96.9 23.7-130.3 66.6-7.4 9.5-13.4 19.3-18.3 29.5l-136 239.4C21.4 354.7 9 377.8 3.7 402.6c-8.5 39.5-2.1 80.5 18.2 115.4 32.5 56.2 86.8 74.5 126.6 80 7.4 1 14.5 1.5 21.4 1.5.8 0 1.6-.1 2.4-.1v.6l273.5.3h4.5c22.8 0 44.5-.4 66.8-7.8 38.9-12.8 71.4-39.6 91.5-75.2 25.9-46.1 28.1-100.3 6.2-152.7zM195.1 72.8c31.5-40.4 74.9-62.7 122.4-62.7 36.7 0 71.9 13.6 99.1 38.3 16.5 15 27 33.6 38.1 53.4l118 206.6c-8.4-7.1-17-13.1-24.9-18.3-17.5-11.3-209.9-122.3-217.9-126.9-46.6-29.3-118.4-39.7-163.4-9.4v-2.3c0-10 .9-18.1 2.6-25.5 4.1-18.3 13.1-36.7 26-53.2zm258.6 365.5L254.4 555.9l-14 8.2c-48.8-19.4-76-85.4-74.1-139.3V166.4c40.9-33.1 112.2-23.4 158.2 5.5 1.9 1.1 188.8 108.9 215.6 125.5 8.8 54.1-36.6 113.9-86.4 140.9zM149.8 588c-37.6-5.2-88.8-22.4-119.2-75-19-32.8-25-71.2-17-108.2 5.1-23.4 17-45.5 28-64.2l115.4-203c-.4 4.3-.6 9-.6 14v273.1c-2 54.7 24.9 121.6 73.5 145.8-1.1.7-2.2 1.3-3.2 2-9.7 6-16.6 10.3-29.5 13.7-13.9 3.6-29.8 4.2-47.4 1.8zm449.9-75.7c-18.9 33.5-49.4 58.6-85.9 70.6-22.2 7.3-44.5 7.3-68.3 7.3l-229.4-.2c5.5-2.6 10.4-5.6 15.8-8.9 2.9-1.8 5.9-3.6 9.4-5.7L458.6 447c50.1-27.1 96.1-86.3 92.6-142.3 19.8 13.9 41.7 33.5 54.3 63.7 20.7 49.6 18.6 100.7-5.8 143.9z"></path><path d="M175.4 341.8c0 78.8 63.9 142.7 142.7 142.7s142.7-63.9 142.7-142.7c0-78.8-63.9-142.7-142.7-142.7S175.4 263 175.4 341.8z"></path></svg>