<svg xmlns="http://www.w3.org/2000/svg" width="625.4" viewBox="0 0 625.4 625.4" height="625.4" xml:space="preserve" style="enable-background:new 0 0 625.4 625.4"><path d="M355.5 446.2h-328l5.3.8c35.8 4.2 70.5 23.2 98 50.7 34.2 34.2 50.4 79.5 48.8 124.3l175.9-175.8zM16.7 205.4l3.2 4.3C42.3 238 53.4 276 53.4 314.9c0 48.4-20.6 91.9-53.4 122.4h248.6L16.7 205.4zM179.3 27.5l-.8 5.3c-4.2 35.8-23.2 70.5-50.7 98C93.6 165 48.3 181.2 3.5 179.6l175.8 175.8V27.5zM415.7 19.9c-28.3 22.4-66.3 33.5-105.2 33.5-48.4 0-91.9-20.6-122.4-53.4v248.6L420 16.7l-4.3 3.2zM270 179.3h327.9l-5.3-.8c-35.8-4.2-70.5-23.2-98-50.7-34.2-34.2-50.4-79.5-48.8-124.3L270 179.3zM625.4 188.1H376.8L608.7 420l-3.2-4.3c-22.4-28.3-33.5-66.3-33.5-105.2.1-48.3 20.6-91.9 53.4-122.4zM446.2 597.9l.8-5.3c4.2-35.8 23.2-70.5 50.7-98 34.2-34.2 79.5-50.4 124.3-48.8L446.2 270v327.9zM209.7 605.5C238 583.1 276 572 314.9 572c48.4 0 91.9 20.6 122.4 53.4V376.8L205.4 608.7l4.3-3.2z"></path></svg>