<svg data-name="Layer 1" xmlns="http://www.w3.org/2000/svg" viewBox="0 0 589.27 623.69"><circle cx="294.89" cy="311.85" r="140.36" transform="rotate(-45 294.88096834 311.84630363)"></circle><path d="M294.34 150.7c85.99 0 156.24 67.36 160.89 152.19h134.04c-13.27-7.21-25.79-16.3-37.11-27.38-50.31-49.25-62.85-122.48-37.35-183.73-60.14 25.24-132.14 13.8-181.67-34.68-17.09-16.73-29.79-36.24-38.16-57.09-7.95 19.79-19.81 38.39-35.66 54.58-49.58 50.65-123.46 63.02-184.96 36.83C99.55 151.54 88.1 223.5 39.64 273 27.68 285.22 14.28 295.15 0 302.9h133.45c4.65-84.83 74.9-152.19 160.89-152.19ZM294.34 472.99c-85.99 0-156.24-67.36-160.89-152.19H2.33c12.41 7 24.13 15.68 34.79 26.12 50.84 49.77 63.12 124.02 36.53 185.66 60.43-26.06 133.21-14.86 183.15 34.02 17.09 16.73 29.79 36.24 38.16 57.09 7.95-19.79 19.81-38.39 35.66-54.58 49.62-50.69 123.58-63.04 185.11-36.76-26.2-60.49-15.05-133.4 33.91-183.41 11.07-11.31 23.38-20.66 36.48-28.14H455.23c-4.65 84.83-74.89 152.19-160.89 152.19Z"></path></svg>