<svg xmlns="http://www.w3.org/2000/svg" width="618.6" viewBox="0 0 618.6 553.5" height="553.5" xml:space="preserve" style="enable-background:new 0 0 618.6 553.5"><path d="M618.6 344.7 464.2 2.1l-1-2.1-197.4 89-.3-.2-133.8 60.3v.3L0 208.8l154.5 342.6.9 2.1 197.1-88.9.3.2 133.8-60.3v-.4l129.9-58.5 2.1-.9zm-251-23 111.8 80.5L353.5 459l-111.8-80.5 125.9-56.8zm-2.5-4.6-125.6 56.6 13.8-137.1L378.8 180l-13.7 137.1zM250.8 232 139 151.6l125.9-56.8 111.8 80.4L250.8 232zm-133.2 57.6-110-79.1 123.5-55.7-13.5 134.8zm383.2-25.7L611 343.1l-123.8 55.8 13.6-135z"></path></svg>