<svg xmlns="http://www.w3.org/2000/svg" id="a" width="627.38" viewBox="0 0 627.38 642" height="642" data-name="Layer 1"><defs></defs><path d="m161.21 128.25 16.04-27.78 175.73 101.44V0h32.1v257.51L161.21 128.25zM70.52 356.67l-16.04-27.78L230.2 227.43 55.34 126.47l16.05-27.8L294.4 227.43 70.52 356.67zM223 549.42h-32.08l-.01-202.9L16.05 447.47 0 419.67l223.01-128.75-.01 258.5zM466.16 513.75l-16.03 27.78L274.4 440.09V642h-32.1V384.49l223.86 129.26zM556.86 285.33l16.04 27.78-175.72 101.46 174.86 100.96-16.05 27.8-223.01-128.76 223.88-129.24zM404.38 92.58h32.08l.01 202.9 174.86-100.95 16.05 27.8-223.01 128.75.01-258.5z" class="b"></path></svg>