<svg data-name="Layer 1" xmlns="http://www.w3.org/2000/svg" viewBox="0 0 606.7 583.19"><path d="M462.43 368.87h-30.47c-12.17 0-22.77-8.97-21.87-21.62.75-10.49 9.09-20.04 19.99-20.04h30.71v-19.98H315.72v208.32h146.71c40.44 0 73.35-32.9 73.35-73.34s-32.9-73.35-73.35-73.35Zm0 126.71H335.71V327.22h66.12c-6.71 6.53-10.88 15.65-10.88 25.72 0 19.8 16.11 35.92 35.92 35.92h35.57c29.42 0 53.37 23.94 53.37 53.37s-23.94 53.36-53.37 53.36ZM145.91 327.21h30.71c10.9 0 19.24 9.55 19.99 20.04.9 12.65-9.7 21.62-21.87 21.62h-30.47c-40.44 0-73.35 32.9-73.35 73.35s32.9 73.34 73.35 73.34h146.71V307.24H145.91v19.98Zm125.09 0v168.36H144.28c-29.42 0-53.37-23.93-53.37-53.36s23.94-53.37 53.37-53.37h35.57c19.8 0 35.92-16.11 35.92-35.92 0-10.07-4.18-19.19-10.88-25.72h66.12ZM460.79 104.12c0-5.52-5.53-9.34-10.69-7.38l-146.75 55.75L156.6 96.74c-5.16-1.96-10.69 1.85-10.69 7.38v184.53h314.88V104.12Zm-20.13 164.55H166.04V121.73l137.31 52.16 137.31-52.16v146.95Z"></path><path d="M513.71 0H92.99C41.72 0 0 41.71 0 92.98v355.69c0 74.17 60.34 134.52 134.52 134.52h337.66c74.18 0 134.52-60.34 134.52-134.52V92.98C606.7 41.71 564.98 0 513.71 0Zm73.01 448.67c0 63.15-51.38 114.54-114.54 114.54H134.52c-63.15 0-114.54-51.38-114.54-114.54V92.98c0-40.25 32.75-73 73.01-73h420.73c40.25 0 73.01 32.75 73.01 73v355.69Z"></path></svg>