<svg xmlns="http://www.w3.org/2000/svg" width="611.3" viewBox="0 0 611.3 611.3" height="611.3" xml:space="preserve" style="enable-background:new 0 0 611.3 611.3"><path d="M400.5 305.7c0 28.7-13.2 54.4-33.6 71.4l-5.7 5.3-259.6 229h212l267.9-241v-.4c18.5-17 29.8-41.2 29.8-68.4 0-44.2-30.6-81.2-71.8-90.7H309.1l.8 1.9c50.5 1 90.6 42.2 90.6 92.9"></path><path d="M346.5 304.5c0 21.5-17.8 38.9-38.9 38.9-21.5 0-38.9-17.8-38.9-38.9 0-21.5 17.8-38.9 38.9-38.9 21.5-.4 38.9 17 38.9 38.9"></path><path d="M210.8 305.7c0-28.7 13.2-54.4 33.6-71.4l5.7-5.3L509.7 0h-212L29.8 241v.4C11.3 258.4 0 282.6 0 309.8 0 354 30.6 391 71.8 400.5h230.5l-.8-1.9c-50.6-1.1-90.7-42.3-90.7-92.9"></path></svg>