<svg xmlns="http://www.w3.org/2000/svg" width="617.6" viewBox="0 0 617.6 617.7" height="617.7" xml:space="preserve" style="enable-background:new 0 0 617.6 617.7"><path d="M98.3 407.3h112.1v112.1c0 51.8 40.5 94.6 91.5 98.2V315.4H0c3.4 51.1 46.3 91.9 98.3 91.9zM519.4 210.4H315v91.9h302.7c-3.5-51.2-46.4-91.9-98.3-91.9zM0 302.3h301.8v-91.9H98.3c-52 0-94.9 40.7-98.3 91.9zM315 617.7c51.3-3.2 92.3-46.2 92.3-98.3V407.3h112.1c51.9 0 94.8-40.8 98.3-91.9H315v302.3zM210.3 98.3c0 52 40.3 94.6 91.5 98.2V.1c-51.1 3.6-91.5 46.2-91.5 98.2zM407.3 98.3C407.3 46 366.5 3.2 315 0v196.6c51.5-3.2 92.3-46 92.3-98.3z"></path></svg>