<svg data-name="Layer 1" xmlns="http://www.w3.org/2000/svg" viewBox="0 0 642.01 558.55"><path d="M104.33 184.58c0 44.23 36.02 80.25 80.25 80.25 49.24 0 91.16-20.99 136.43-40.96 40.32-17.72 83.27-34.48 136.42-34.48 101.95 0 184.58 82.63 184.58 184.58s-82.63 184.58-184.58 184.58c-93.03 0-193.24-75.44-293.27-75.44-65.48 0-124.36 29.28-164.16 75.44V423.92c48.02-28.7 104.2-45.13 164.16-45.13 133.34 0 200.18 75.44 293.27 75.44 44.23 0 80.25-36.02 80.25-80.25s-36.02-80.25-80.25-80.25c-49.24 0-91.16 20.99-136.42 40.96-40.32 17.72-83.27 34.48-136.43 34.48C82.63 369.15 0 286.52 0 184.58S82.63 0 184.58 0c93.03 0 193.24 75.44 293.27 75.44 65.48 0 124.36-29.28 164.16-75.44v134.63c-48.02 28.7-104.2 45.13-164.16 45.13-133.34 0-200.18-75.44-293.27-75.44-44.23 0-80.25 36.02-80.25 80.25Z"></path><path d="M457.42 360.27c-6.42 0-11.81 4.5-13.26 10.48H219.88v6.42h224.28c1.45 5.98 6.84 10.43 13.26 10.43 7.52 0 13.64-6.12 13.64-13.64s-6.12-13.69-13.64-13.69Z"></path></svg>