<svg data-name="Layer 1" xmlns="http://www.w3.org/2000/svg" viewBox="0 0 611.43 614.09"><circle cx="240.84" cy="267.64" r="33.43"></circle><circle cx="323.76" cy="268.06" r="33.05" transform="rotate(-45 323.76497988 268.06215431)"></circle><circle cx="282.98" cy="340.69" r="33.43"></circle><circle cx="409.42" cy="267.64" r="33.43"></circle><path d="M485.32 341.78c0-2.65-.39-5.2-.98-7.68-3.06-15.31-16.56-26.85-32.77-26.85-18.47 0-33.43 14.97-33.43 33.43 0 9.56 4.06 18.13 10.49 24.22 6.01 6.13 14.35 9.95 23.61 9.95 18.27 0 33.08-14.81 33.08-33.08Z"></path><circle cx="493.71" cy="267.64" r="33.43"></circle><circle cx="578" cy="267.64" r="33.43"></circle><path d="M514.32 148.73c17.53-5.81 27.02-24.73 21.21-42.26-5.81-17.53-24.73-27.02-42.26-21.21-17.53 5.81-27.02 24.73-21.21 42.26 5.81 17.53 24.73 27.02 42.26 21.21ZM520.79 197.3c5.81 17.53 24.73 27.02 42.26 21.21 17.53-5.81 27.02-24.73 21.21-42.26-5.81-17.53-24.73-27.02-42.26-21.21-17.53 5.81-27.02 24.73-21.21 42.26ZM456.16 90.21c14.69-11.19 17.53-32.17 6.34-46.86-11.19-14.69-32.17-17.53-46.86-6.34-14.69 11.19-17.53 32.17-6.34 46.86 11.19 14.69 32.17 17.53 46.86 6.34ZM337.44 62.08c15.35 10.26 36.11 6.14 46.38-9.22 10.26-15.35 6.14-36.11-9.22-46.38-15.35-10.26-36.11-6.14-46.38 9.22-10.26 15.35-6.13 36.11 9.22 46.38ZM263.36 65.77c17.85 4.72 36.15-5.92 40.87-23.78 4.72-17.85-5.92-36.15-23.78-40.87C262.6-3.6 244.3 7.04 239.58 24.9c-4.72 17.85 5.92 36.15 23.78 40.87Z"></path><circle cx="38.49" cy="247.71" r="33.43" transform="rotate(-25.45 38.47886974 247.68024087)"></circle><path d="M46.37 196.48c14.45 11.5 35.48 9.1 46.98-5.35s9.1-35.48-5.35-46.98-35.48-9.1-46.98 5.35-9.1 35.48 5.35 46.98ZM138.63 131.61c15.56-9.93 20.13-30.61 10.19-46.17-9.93-15.57-30.61-20.13-46.17-10.19-15.57 9.93-20.13 30.61-10.19 46.17 9.94 15.57 30.61 20.13 46.17 10.19ZM199.88 88.67c17.95-4.34 28.98-22.41 24.63-40.36-4.34-17.95-22.41-28.98-40.36-24.63-17.95 4.34-28.98 22.41-24.63 40.36 4.34 17.95 22.41 28.98 40.36 24.63ZM131.55 476.76c-5.81-17.53-24.73-27.02-42.26-21.21-17.53 5.81-27.02 24.73-21.21 42.26 5.81 17.53 24.73 27.02 42.26 21.21 17.53-5.81 27.02-24.73 21.21-42.26Z"></path><circle cx="55.25" cy="416.17" r="33.43" transform="rotate(-63.34 55.26981987 416.18755788)"></circle><circle cx="33.44" cy="332.5" r="33.43" transform="rotate(-63.34 33.45552806 332.50445254)"></circle><path d="M144.14 514.96c-14.69 11.19-17.53 32.17-6.34 46.86 11.19 14.69 32.17 17.53 46.86 6.34 14.69-11.19 17.53-32.17 6.34-46.86-11.19-14.69-32.17-17.53-46.86-6.34ZM260.25 546.11c-15.35-10.26-36.11-6.14-46.38 9.22-10.26 15.35-6.14 36.11 9.22 46.38 15.35 10.26 36.11 6.14 46.38-9.22 10.26-15.35 6.14-36.11-9.22-46.38ZM333.66 548.33c-17.85-4.72-36.15 5.92-40.87 23.78-4.72 17.85 5.92 36.15 23.78 40.87 17.85 4.72 36.15-5.92 40.87-23.78 4.72-17.85-5.92-36.15-23.78-40.87Z"></path><circle cx="535.84" cy="340.69" r="33.43"></circle><path d="M354.91 371.69c4.24 1.98 8.93 3.17 13.92 3.17 18.27 0 33.08-14.81 33.08-33.08 0-9.43-3.99-17.89-10.32-23.92-6.1-6.49-14.7-10.61-24.31-10.61-18.47 0-33.43 14.97-33.43 33.43 0 14.09 8.74 26.08 21.06 31.01Z"></path><circle cx="325.12" cy="413.74" r="33.43"></circle><circle cx="493.7" cy="413.74" r="33.43"></circle><circle cx="451.55" cy="486.76" r="33.43"></circle><path d="M409.42 447.14c.17 0 .33-.05.5-.05.21 0 .4.06.61.06 18.27 0 33.08-14.81 33.08-33.08 0-11.57-5.96-21.72-14.96-27.64-5.45-3.85-12.06-6.16-19.24-6.16-18.46 0-33.43 14.97-33.43 33.43s14.97 33.43 33.43 33.43Z"></path><circle cx="367.26" cy="486.76" r="33.43"></circle><circle cx="409.4" cy="559.85" r="33.43"></circle></svg>