<svg data-name="Layer 1" xmlns="http://www.w3.org/2000/svg" viewBox="0 0 533.81 616.4"><path d="M120.46 444.28c10.76-8.88 22.36-16.76 34.61-23.59-22.93-25.31-55.4-40.02-90.07-40.02-23.89 0-46.18 6.95-65 18.89v55.78c14.62-20.13 38.27-33.3 65-33.3 21 0 40.69 8.1 55.46 22.25Z"></path><path d="M186.78 406.03c13.73-5.1 28.08-8.92 42.89-11.33-36.1-55.46-97.17-89.09-164.67-89.09-22.77 0-44.64 3.93-65 11.08v44.58c19.79-9.15 41.8-14.3 65-14.3 47.83 0 92.37 21.88 121.79 59.06ZM266.91 0 0 154.1v127.2c20.63-6.08 42.43-9.39 65-9.39.8 0 1.59.03 2.39.04 41.21-71.23 116.68-115.06 199.51-115.06s158.31 43.83 199.52 115.06c.8 0 1.59-.04 2.39-.04 22.57 0 44.37 3.32 65 9.39V154.1L266.91 0ZM266.9 575.49c-15.45 0-29.13 7.58-37.62 19.19l37.62 21.72 37.62-21.72c-8.49-11.61-22.17-19.19-37.62-19.19ZM25.8 477.19l44.14 25.48c7.59-12.5 16.31-24.25 26.08-35.04-8.44-7.56-19.38-11.9-31.02-11.9-16.44 0-30.89 8.57-39.2 21.45Z"></path><path d="M266.9 500.42c-43.19 0-81.17 22.63-102.78 56.64l35.85 20.7c14.41-21.66 39.02-35.98 66.92-35.98s52.51 14.32 66.92 35.98l35.85-20.7c-21.61-34.01-59.59-56.64-102.78-56.64ZM353.82 302.33c-22.75-23.22-54.02-36.67-86.92-36.67s-64.17 13.46-86.91 36.68c12.19 6.99 23.7 15.12 34.42 24.27 14.43-12.48 32.97-19.58 52.49-19.58s38.04 7.1 52.5 19.58c10.72-9.15 22.23-17.27 34.42-24.27ZM238.52 350.48c10.75 12.35 20.28 25.96 28.39 40.72 8.11-14.75 17.64-28.36 28.38-40.7-8.07-6.21-18.01-9.78-28.38-9.78s-20.33 3.55-28.39 9.76ZM304.14 394.7c14.81 2.42 29.16 6.23 42.88 11.33 29.42-37.18 73.96-59.06 121.79-59.06 23.2 0 45.21 5.15 65 14.3v-44.58c-20.36-7.15-42.22-11.08-65-11.08-67.5 0-128.57 33.62-164.67 89.09Z"></path><path d="M378.74 420.69c12.26 6.83 23.86 14.72 34.62 23.59 14.77-14.15 34.46-22.25 55.46-22.25 26.73 0 50.38 13.17 65 33.31v-55.78c-18.82-11.94-41.11-18.89-65-18.89-34.67 0-67.15 14.71-90.08 40.02ZM385.6 287.25c13.82-5.3 28.22-9.32 43.07-11.89-36.5-52.81-96.44-84.77-161.77-84.77s-125.26 31.96-161.77 84.77c14.85 2.58 29.25 6.59 43.07 11.89 29.43-34.82 72.82-55.3 118.7-55.3s89.27 20.48 118.7 55.3ZM468.81 455.74c-11.65 0-22.58 4.34-31.02 11.9 9.77 10.79 18.49 22.53 26.1 35.03l44.12-25.47c-8.31-12.88-22.76-21.45-39.19-21.45ZM266.9 425.35c-70.92 0-133.19 37.72-167.82 94.15l35.84 20.69c27.46-44.07 76.34-73.48 131.98-73.48s104.52 29.41 131.98 73.48l35.84-20.69c-34.63-56.43-96.9-94.15-167.82-94.15Z"></path></svg>