<svg xmlns="http://www.w3.org/2000/svg" width="610.8" viewBox="0 0 610.8 610" height="610" xml:space="preserve" style="enable-background:new 0 0 610.8 610"><path d="M305.5 0c-54.5.1-98.8 44.2-99.1 98.7v.3c0 54.7 44.3 99.1 99 99.1s99.1-44.3 99.1-99S360.2 0 305.5 0zM207.9 408.6V610c107.9-3.5 195-92.7 195-201.3V207.3c-107.8 3.5-195 92.7-195 201.3zM415.7 207.3v394.8h194.8c.2-3.3.3-6.6.3-9.9V408.6c0-108.6-87.2-197.9-195.1-201.3zM0 225.1v183.6C0 517.4 87.2 606.6 195.1 610V215.2H.3c-.2 3.3-.3 6.6-.3 9.9z"></path></svg>