<svg data-name="Layer 1" xmlns="http://www.w3.org/2000/svg" viewBox="0 0 613.52 443.96"><path d="M413.18 275c.83-10.41 6.53-19.43 14.87-24.79-9.02-5.8-15.03-15.87-15.03-27.36s6.02-21.56 15.03-27.36c-8.77-5.64-14.65-15.34-14.97-26.43l-49.14 24.47v56.95l49.25 24.53ZM358.71 196.11l-51.95 25.87 51.95 25.88v-51.75z"></path><path d="M474.93 166.79h-56.56c-.02.45-.13.87-.13 1.32 0 15.11 12.25 27.37 27.37 27.37-15.11 0-27.37 12.25-27.37 27.36s12.25 27.36 27.37 27.36c-14.99 0-27.13 12.06-27.33 27h56.66c15.27 0 28.17 12.9 28.17 28.17s-12.9 28.17-28.17 28.17H28.77v110.41h446.16c76.42 0 138.59-62.17 138.59-138.59s-62.17-138.59-138.59-138.59Z"></path><path d="M185.47 193.76c9.02 5.8 15.03 15.87 15.03 27.36s-6.02 21.56-15.03 27.36c8.77 5.64 14.65 15.34 14.97 26.43l49.14-24.47v-56.95l-49.25-24.53c-.83 10.41-6.53 19.43-14.87 24.79ZM254.81 247.85l51.95-25.87-51.95-25.88v51.75z"></path><path d="M138.59 277.17h56.56c.02-.45.13-.87.13-1.32 0-15.11-12.25-27.37-27.36-27.37 15.11 0 27.36-12.25 27.36-27.36s-12.25-27.36-27.36-27.36c14.99 0 27.12-12.06 27.33-27h-56.66c-15.27 0-28.17-12.9-28.17-28.17s12.9-28.17 28.17-28.17h446.16V0H138.59C62.17 0 0 62.17 0 138.59s62.17 138.59 138.59 138.59Z"></path></svg>