<svg xmlns="http://www.w3.org/2000/svg" width="580.5" viewBox="0 0 580.5 488.9" height="488.9"><path d="M563 106.7c-9.7 0-17.5 7.8-17.5 17.5v105.4c0 8.9-7.2 16.1-16.1 16.1-8.9 0-16.1-7.2-16.1-16.1V69.5c0-38.4-31.1-69.5-69.5-69.5s-69.5 31.1-69.5 69.5h-32l32 37.2v279.2c0 56.9 46.1 103.1 103.1 103.1 56.9 0 103.1-46.1 103.1-103.1V124.2c0-9.7-7.9-17.5-17.5-17.5zm-138-3.5c-9.6 0-17.4-7.8-17.4-17.4s7.8-17.4 17.4-17.4 17.4 7.8 17.4 17.4-7.8 17.4-17.4 17.4z"></path><path d="M342.1 120.6V69.5C342.1 31.1 311 0 272.6 0s-69.5 31.1-69.5 69.5h-32l32 37.2v279.2c0 56.9 46.1 103.1 103.1 103.1 23.6 0 45.3-8 62.7-21.3-16.9-22.9-26.9-51.2-26.9-81.8V120.6zm-88.2-17.4c-9.6 0-17.4-7.8-17.4-17.4s7.8-17.4 17.4-17.4 17.4 7.8 17.4 17.4-7.8 17.4-17.4 17.4z"></path><path d="M170.9 120.6V69.5C171 31.1 139.9 0 101.5 0 63.1 0 32 31.1 32 69.5H0l32 37.2v279.2C32 442.8 78.1 489 135.1 489c23.6 0 45.3-8 62.7-21.3-16.9-22.9-26.9-51.2-26.9-81.8V120.6zm-88.2-17.4c-9.6 0-17.4-7.8-17.4-17.4s7.8-17.4 17.4-17.4 17.4 7.8 17.4 17.4-7.8 17.4-17.4 17.4z"></path></svg>