<svg data-name="Layer 1" xmlns="http://www.w3.org/2000/svg" viewBox="0 0 533.12 608.81"><path d="m87.89 96.37-32.25 18.62v306.55l210.93 187.27L87.89 403.16V96.37z"></path><path d="m143.53 64.25-32.25 18.62v306.98l155.29 218.96-123.04-237.34V64.25z"></path><path d="m199.17 32.12-32.26 18.63v307.4l99.66 250.66-67.4-269.04V32.12z"></path><path d="m254.81 0-32.26 18.62v307.83l44.02 282.36-11.76-295.63V0zM32.26 128.49 0 147.11v307.8l266.57 153.9L32.26 434.86V128.49zM477.48 114.99l-32.25-18.62v306.79L266.57 608.81l210.91-187.27V114.99z"></path><path d="m421.85 82.87-32.26-18.62v307.22L266.57 608.81l155.28-218.96V82.87z"></path><path d="m366.21 50.75-32.26-18.63v307.65l-67.38 269.04 99.64-250.66V50.75z"></path><path d="M310.57 18.62 278.31 0v313.18l-11.74 295.63 44-282.36V18.62zM500.87 128.49v306.37l-234.3 173.95 266.55-153.9v-307.8l-32.25-18.62z"></path></svg>