<svg data-name="Layer 1" xmlns="http://www.w3.org/2000/svg" viewBox="0 0 618.93 618.94"><circle cx="309.46" cy="128.99" r="42.73" transform="rotate(-13.28 309.52037112 129.01852686)"></circle><path d="M581.38 218.82c-50.06-50.06-131.22-50.06-181.28 0 50.06-50.06 50.06-131.22 0-181.28s-131.22-50.06-181.28 0L37.54 218.82c-50.06 50.06-50.06 131.22 0 181.28 48.87 48.87 127.36 50 177.64 3.46.06.06.11.12.17.18-21.14 22.86-34.08 53.42-34.08 87.01 0 70.8 57.39 128.19 128.19 128.19 35.56 0 67.72-14.48 90.95-37.86l180.97-180.97c50.06-50.06 50.06-131.22 0-181.28ZM309.46 575.8c-47.2 0-85.46-38.26-85.46-85.46s38.26-85.46 85.46-85.46 85.46 38.26 85.46 85.46-38.26 85.46-85.46 85.46Zm0-361.75c-47.2 0-85.46-38.26-85.46-85.46s38.26-85.46 85.46-85.46 85.46 38.26 85.46 85.46-38.26 85.46-85.46 85.46Z"></path><circle cx="309.46" cy="490.74" r="42.73" transform="rotate(-45 309.46363459 490.7459655)"></circle></svg>