<svg xmlns="http://www.w3.org/2000/svg" width="616.5" viewBox="0 0 616.5 402.5" height="402.5" style="enable-background:new 0 0 616.5 402.5" xml:space="preserve"><path d="M616.5 308.2 308.2 0 0 308.2l94.3 94.3 71.3-71.3 71.3 71.3 71.3-71.3 71.3 71.3 71.3-71.3 71.3 71.3 94.4-94.3zM475 261.1l-24.2 24.2-24.2-24.2-24.2-24.2 24.2-24.2 24.2-24.2 48.3 48.3-24.1 24.3zm-166.8 24.2L284 261.1l-24.2-24.2 24.2-24.2 24.2-24.2 24.2 24.2 24.2 24.2-24.2 24.2-24.2 24.2zm119.7-119.7-24.2 24.2-24.2 24.2-24.2-24.2-24.2-24.2 24.2-24.2 24.2-24.2 48.4 48.4zM308.2 46l48.3 48.3-24.2 24.2-24.2 24.2-24.2-24.2-24.2-24.2L308.2 46zm-71.3 71.3 24.2 24.2 24.2 24.2-24.2 24.2-24.2 24.2-24.2-24.2-24.2-24.2 48.4-48.4zm-71.3 71.3 24.2 24.2L214 237l-24.2 24.2-24.2 24.2-24.2-24.2-24.2-24.2 48.4-48.4zm-71.3 168L46 308.2l48.3-48.3 24.2 24.2 24.2 24.2-48.4 48.3zm142.6 0-48.3-48.3 24.2-24.2 24.2-24.2 24.2 24.2 24.2 24.2-48.5 48.3zm142.7 0-48.3-48.3 24.2-24.2 24.2-24.2 24.2 24.2 24.2 24.2-48.5 48.3zM498 284.1l24.2-24.2 48.3 48.3-48.3 48.3-48.3-48.3 24.1-24.1z"></path></svg>