<svg id="Layer_1" data-name="Layer 1" xmlns="http://www.w3.org/2000/svg" viewBox="0 0 587.56 508.84">   <path d="M213.06,414.62c-9.11-20.43-14.32-43.17-15.38-66.67h-44.88c1.51,24.41,9.24,47.15,21.59,66.67h38.67Z"></path>   <path d="M219.94,428.29h-35.75c20.18,24.8,48.63,42.6,81.24,49.24-18.05-11.41-33.73-28.32-45.49-49.24Z"></path>   <path d="M197.52,334.28c.61-25.06,5.93-49.33,15.66-71.03h-38.53c-13.6,21.32-21.13,45.69-21.98,71.03h44.85Z"></path>   <path d="M220.1,249.59c11.71-20.72,27.28-37.48,45.2-48.84-31.54,6.54-60.18,23.79-80.76,48.84h35.56Z"></path>   <path d="M293.78,0L0,508.84H587.56L293.78,0Zm127.72,427.24l-20.18-20.18c.99-4.22-.12-8.84-3.41-12.13-5.06-5.06-13.27-5.06-18.33,0s-5.06,13.27,0,18.33c3.29,3.29,7.91,4.41,12.13,3.41l21.52,21.52c-1.79,2.17-3.63,4.31-5.55,6.38-2.22,2.4-4.53,4.69-6.88,6.92l-15.25-15.25c.99-4.22-.12-8.84-3.41-12.13-5.06-5.06-13.27-5.06-18.33,0-5.06,5.06-5.06,13.27,0,18.33,3.29,3.29,7.91,4.41,12.13,3.41l14.56,14.56c-11.24,8.9-23.65,16.18-36.83,21.65v-36.73c0-15.04-12.23-27.27-27.26-27.27h-4.07c-2.29-3.69-6.34-6.16-10.99-6.16-7.16,0-12.96,5.8-12.96,12.96s5.8,12.96,12.96,12.96c4.66,0,8.71-2.48,10.99-6.17h4.06c7.54,0,13.67,6.13,13.67,13.67v41.62c-8.25,2.57-16.71,4.46-25.31,5.64v-17.79c3.69-2.29,6.16-6.34,6.16-10.99,0-7.16-5.8-12.96-12.96-12.96s-12.96,5.8-12.96,12.96c0,4.66,2.48,8.71,6.16,10.99v19.03c-4.47,.22-8.96,.29-13.46,.12-82.34-3.21-147.71-70.31-148.82-152.75-.13-4.54,.04-9.11,.37-13.63,.98-13.36,3.7-26.59,8.08-39.25,4.37-12.62,10.4-24.66,17.86-35.73,27.54-40.88,73.34-66.44,122.51-68.36,2.04-.08,4.08-.15,6.14-.15,2.45,0,4.89,.07,7.31,.19v24.45c-3.69,2.29-6.16,6.34-6.16,10.99,0,7.16,5.8,12.96,12.96,12.96s12.96-5.8,12.96-12.96c0-4.66-2.48-8.71-6.16-10.99v-23.18c9.42,1.28,18.56,3.39,27.37,6.29v9.39c-3.69,2.29-6.17,6.34-6.17,10.99,0,7.16,5.8,12.96,12.96,12.96s12.96-5.8,12.96-12.96c0-4.66-2.48-8.71-6.16-10.99v-4.2c17.93,7.84,34.12,18.95,47.76,32.61h-64.75c-15.04,0-27.27,12.23-27.27,27.26v11.54c-3.69,2.29-6.16,6.34-6.16,10.99,0,7.16,5.8,12.96,12.96,12.96s12.96-5.8,12.96-12.96c0-4.66-2.48-8.71-6.16-10.99v-11.54c0-7.54,6.13-13.67,13.67-13.67h76.78c4.63,5.86,8.84,12.06,12.6,18.56h-57.6c-15.03,0-27.26,12.23-27.26,27.26v9.25c-3.69,2.29-6.17,6.34-6.17,10.99,0,7.16,5.8,12.96,12.96,12.96s12.96-5.8,12.96-12.96c0-4.66-2.48-8.71-6.16-10.99v-9.26c0-7.54,6.13-13.67,13.67-13.67h64.58c2.73,6.03,5.11,12.25,7.06,18.66h-40.48c-2.29-3.69-6.34-6.16-10.99-6.16-7.16,0-12.96,5.8-12.96,12.96s5.8,12.96,12.96,12.96c4.66,0,8.71-2.48,10.99-6.16h43.97c1.79,8.65,2.82,17.58,3.1,26.69h-125.87v26.97h-37.2v-13.33h-74.37c1.15,23.75,6.92,46.59,16.85,66.67h57.52v-13.07h77.16v-27.27h81.97c-4.4,18.91-12.28,36.93-23.28,52.97Zm25.83-66.56h-98.11v27.27h-63.56v-13.07h50.79v-26.97h112.11c-.25,4.28-.64,8.54-1.24,12.76Z"></path>   <path d="M285.66,475.26v-46.97h-49.83c12.03,18.92,32.2,38.11,49.83,46.97Z"></path>   <path d="M236.01,249.59h49.65v-46.66c-17.53,8.82-37.64,27.9-49.65,46.66Z"></path>   <path d="M285.66,263.25h-57.38c-10.61,21.33-16.51,45.71-17.17,71.03h74.55v-8.43h16.74c2.29,3.69,6.34,6.16,10.99,6.16,7.16,0,12.96-5.8,12.96-12.96s-5.8-12.96-12.96-12.96c-4.66,0-8.71,2.48-10.99,6.17h-16.73v-49Z"></path> </svg>