<svg data-name="Layer 1" xmlns="http://www.w3.org/2000/svg" viewBox="0 0 620.39 620.39"><path d="M227.45 464.86c-6.11 6.11-9.47 14.23-9.47 22.87s3.37 16.74 9.48 22.86c6.11 6.11 14.23 9.48 22.85 9.48h.01c22.43 0 40.49-25.64 40.58-46.95h38.58c.09 21.31 18.16 46.95 40.58 46.95h.01c8.62 0 16.74-3.37 22.85-9.48 6.12-6.12 9.48-14.23 9.48-22.86s-3.36-16.76-9.47-22.87l-82.74-82.74-82.75 82.74ZM294.13358098 310.19l16.058395-16.058395 16.058395 16.058395-16.058395 16.058395zM132.66 217.98c-8.62 0-16.74 3.37-22.86 9.48-6.11 6.11-9.48 14.23-9.48 22.85 0 22.44 25.64 40.51 46.95 40.6v38.58c-21.31.09-46.95 18.15-46.95 40.58 0 8.63 3.37 16.75 9.48 22.86 6.12 6.12 14.23 9.48 22.86 9.48s16.76-3.36 22.87-9.47l82.74-82.74-82.74-82.75c-6.11-6.11-14.23-9.47-22.87-9.47ZM487.73 217.98c-8.64 0-16.76 3.36-22.87 9.47l-82.74 82.74 82.74 82.75c6.11 6.11 14.23 9.47 22.87 9.47s16.74-3.37 22.86-9.48c6.11-6.11 9.48-14.23 9.48-22.85 0-22.44-25.64-40.51-46.95-40.6V290.9c21.31-.09 46.95-18.15 46.95-40.58 0-8.63-3.37-16.75-9.48-22.86-6.12-6.12-14.23-9.48-22.86-9.48Z"></path><path d="M451.1 169.29V0H169.29v169.29H0V451.1h169.29v169.29H451.1V451.1h169.29V169.29H451.1Zm108.48 200.77c0 39.62-32.23 71.85-71.85 71.85-19.2 0-37.25-7.48-50.81-21.05l-82.74-82.74-16.05 16.05 82.73 82.75c13.58 13.57 21.05 31.61 21.05 50.8 0 39.62-32.24 71.85-71.85 71.85-24.15 0-46.6-12.21-59.87-32.21-13.27 20-35.72 32.21-59.87 32.21-39.62 0-71.85-32.23-71.85-71.85 0-19.2 7.48-37.25 21.05-50.81l82.74-82.74-16.05-16.05-82.75 82.73c-13.57 13.58-31.61 21.05-50.8 21.05-39.61 0-71.85-32.24-71.85-71.85 0-24.15 12.21-46.6 32.21-59.87-20-13.27-32.21-35.72-32.21-59.87 0-39.62 32.23-71.85 71.85-71.85 19.2 0 37.25 7.48 50.81 21.05l82.74 82.74 16.05-16.05-82.73-82.75c-13.57-13.57-21.05-31.61-21.05-50.8 0-39.62 32.24-71.85 71.85-71.85 24.15 0 46.6 12.21 59.87 32.21 13.27-20 35.72-32.21 59.87-32.21 39.62 0 71.85 32.23 71.85 71.85 0 19.2-7.48 37.25-21.05 50.81l-82.74 82.74 16.05 16.05 82.75-82.73c13.57-13.58 31.61-21.05 50.8-21.05 39.62 0 71.85 32.24 71.85 71.85 0 24.15-12.21 46.6-32.21 59.87 20 13.27 32.21 35.72 32.21 59.87Z"></path><path d="M402.41 132.66c0-8.63-3.37-16.74-9.48-22.86-6.11-6.11-14.23-9.48-22.85-9.48h-.01c-22.43 0-40.49 25.64-40.58 46.95h-38.58c-.09-21.31-18.16-46.95-40.58-46.95h-.01c-8.62 0-16.74 3.37-22.85 9.48-6.12 6.12-9.48 14.23-9.48 22.86s3.36 16.76 9.47 22.87l82.74 82.74 82.75-82.74c6.11-6.11 9.47-14.23 9.47-22.87Z"></path></svg>