<svg data-name="Layer 1" xmlns="http://www.w3.org/2000/svg" viewBox="0 0 615.58 618.42"><path d="M64.57.06C42.44.06 20.82 2.45 0 6.88v239.21c11.72-7.57 25.66-12 40.62-12 41.53 0 75.15 33.62 75.15 75.15s-33.62 75.15-75.15 75.15c-14.96 0-28.9-4.44-40.62-12V611.6c20.82 4.44 42.44 6.83 64.57 6.83 98.76 0 186.59-46.36 243.19-118.38-41.3-52.56-65.99-118.78-65.99-190.8s24.69-138.24 65.99-190.74v-.06C251.16 46.36 163.27.06 64.57.06ZM615.58 246.04V6.83C594.76 2.39 573.14 0 551.01 0c-98.76 0-186.59 46.36-243.19 118.38 41.3 52.56 65.99 118.78 65.99 190.74s-24.69 138.24-65.99 190.8C364.42 572 452.31 618.3 551.01 618.3c22.13 0 43.75-2.39 64.57-6.83V372.26c-11.72 7.57-25.66 12-40.62 12-41.53 0-75.15-33.68-75.15-75.15s33.62-75.15 75.15-75.15v.06c14.96 0 28.9 4.44 40.62 12Z"></path></svg>