<svg xmlns="http://www.w3.org/2000/svg" width="612.2" viewBox="0 0 612.2 529.2" height="529.2" xml:space="preserve"><path d="M305.9 352.8H362c21.4-42.9-8.1-90.9-8.1-90.9L254.1 88.8 229.7 131s62.6 109.4 89 156.2c21.9 38.8-3.5 59.6-12.8 65.6zM411.2 352.8h43.3c17.3-56.2-21-128.7-21-128.7L305.4 0 281 42.2l106.8 189c38.8 67.8 27.4 110.9 23.4 121.6z"></path><path d="m361.3 440.3 199-.5-24.4-42.5s-125.8-.1-179.5-.5c-44.6-.3-50-33-50.5-44.1L278 401.9c26.6 40.2 83.3 38.4 83.3 38.4zM587.4 486.8l-216.8-1.3c-78.2-.1-109.8-31.7-117.2-40.5L232 482.8c40.2 43.3 122.1 46.1 122.1 46.1l258.1.3-24.8-42.4z"></path><path d="M305.9 352.8 278 304.1c-47.9 2.8-74.9 52.3-74.9 52.3L102.4 529.2l49-.3s63.7-108.5 91.2-154.6c22.8-38.4 53.5-26.6 63.3-21.5zM253.5 261.4 232 223.8c-57.4 13-101.2 82.2-101.2 82.2L0 528.5l49-.3 110.6-186.1c39.6-67.4 82.6-78.9 93.9-80.7z"></path></svg>