<svg xmlns="http://www.w3.org/2000/svg" id="a" width="642" viewBox="0 0 642 642" height="642" data-name="Layer 1"><defs></defs><path d="M315.95 1.35C314.46.49 312.74 0 310.89 0c-5.58 0-10.11 4.53-10.11 10.11s4.53 10.11 10.11 10.11c1.84 0 3.57-.49 5.06-1.35l15.08-8.76-15.08-8.76ZM626.66 305.72 17.53 322.61h-.71C7.58 322.61 0 315.03 0 305.79s7.58-16.88 16.82-16.88h.71l609.13 16.82ZM54.34 251.96c-.24-.01-.49-.02-.74-.02-9.31 0-16.85 7.55-16.85 16.85s7.55 16.85 16.85 16.85c.25 0 .49 0 .74-.02l534.05-16.84-534.05-16.82ZM91.1 215.01c-.24-.01-.49-.02-.74-.02-9.31 0-16.85 7.55-16.85 16.85s7.55 16.85 16.85 16.85c.25 0 .49 0 .74-.02l460.54-16.84L91.1 214.99ZM127.85 178.05c-.24-.01-.49-.02-.74-.02-9.31 0-16.85 7.55-16.85 16.85s7.55 16.85 16.85 16.85c.25 0 .49 0 .74-.02l387.03-16.84-387.03-16.84ZM164.61 141.1l313.52 16.84-313.52 16.84c-.24.01-.49.02-.74.02-9.31 0-16.85-7.55-16.85-16.85s7.55-16.85 16.85-16.85c.25 0 .49 0 .74.02ZM201.28 104.14c-.22 0-.43-.01-.65-.01-9.31 0-16.85 7.55-16.85 16.85s7.55 16.85 16.85 16.85c.22 0 .44 0 .65-.01l240.1-16.84-240.1-16.84ZM238.03 67.18c-.22 0-.43-.01-.65-.01-9.31 0-16.85 7.55-16.85 16.85s7.55 16.85 16.85 16.85c.22 0 .43 0 .65-.01l166.59-16.84-166.59-16.84ZM276.99 30.86c-.93-.16-1.88-.25-2.86-.25-9.09 0-16.45 7.37-16.45 16.45s7.37 16.45 16.45 16.45c.97 0 1.93-.08 2.86-.25l90.87-16.2-90.87-16.2ZM326.05 640.65c1.49.86 3.21 1.35 5.06 1.35 5.58 0 10.11-4.53 10.11-10.11s-4.53-10.11-10.11-10.11c-1.84 0-3.57.49-5.06 1.35l-15.08 8.76 15.08 8.76ZM15.34 336.28l609.13-16.88h.71c9.24 0 16.82 7.58 16.82 16.82 0 9.31-7.58 16.88-16.82 16.88h-.71L15.34 336.28ZM587.66 390.04c.24.01.49.02.74.02 9.31 0 16.85-7.55 16.85-16.85s-7.55-16.85-16.85-16.85c-.25 0-.49 0-.74.02L53.61 373.22l534.05 16.84ZM550.9 426.99c.24.01.49.02.74.02 9.31 0 16.85-7.55 16.85-16.85 0-9.31-7.55-16.85-16.85-16.85-.25 0-.49 0-.74.02L90.36 410.17l460.54 16.84ZM514.15 463.95c.24.01.49.02.74.02 9.31 0 16.85-7.55 16.85-16.85s-7.55-16.85-16.85-16.85c-.25 0-.49 0-.74.02l-387.03 16.84 387.03 16.84ZM477.39 500.9l-313.52-16.84 313.52-16.84c.24-.01.49-.02.74-.02 9.31 0 16.85 7.55 16.85 16.85s-7.55 16.85-16.85 16.85c-.25 0-.49 0-.74-.02ZM440.72 537.86c.22 0 .43.01.65.01 9.31 0 16.85-7.55 16.85-16.85 0-9.31-7.55-16.85-16.85-16.85-.22 0-.44 0-.65.01l-240.1 16.84 240.1 16.84ZM403.97 574.82c.22 0 .43.01.65.01 9.31 0 16.85-7.55 16.85-16.85 0-9.31-7.55-16.85-16.85-16.85-.22 0-.43 0-.65.01l-166.59 16.84 166.59 16.84ZM365.01 611.14c.93.16 1.88.25 2.86.25 9.09 0 16.45-7.37 16.45-16.45s-7.37-16.45-16.45-16.45c-.97 0-1.93.08-2.86.25l-90.87 16.2 90.87 16.2Z" class="b"></path></svg>