<svg data-name="Layer 1" xmlns="http://www.w3.org/2000/svg" viewBox="0 0 567.02 622.02"><path d="M486.1 311.01c1.28-.31 2.55-.61 3.83-.97 56.17-15.78 88.91-74.1 73.13-130.26-15.78-56.17-74.1-88.91-130.26-73.13-19.01 5.34-35.32 15.56-47.99 28.92.37-1.26.74-2.52 1.07-3.8C400.3 75.24 366.16 17.73 309.63 3.31 253.1-11.11 195.59 23.03 181.17 79.56c-4.87 19.1-4.18 38.3 1.02 55.92-.88-.92-1.76-1.85-2.68-2.75-41.74-40.76-108.62-39.97-149.38 1.77-40.76 41.74-39.97 108.62 1.77 149.38 14.13 13.8 31.14 22.82 49.04 27.11-1.28.31-2.55.61-3.83.97-56.17 15.76-88.92 74.08-73.15 130.24 15.77 56.17 74.08 88.92 130.25 73.15 19.01-5.34 35.33-15.56 48-28.91-.37 1.26-.75 2.52-1.07 3.8-14.43 56.53 19.7 114.05 76.23 128.47 56.53 14.43 114.05-19.7 128.47-76.23 4.88-19.13 4.19-38.37-1.04-56.02.9.95 1.81 1.9 2.75 2.83 41.74 40.76 108.62 39.95 149.38-1.79 40.76-41.74 39.95-108.62-1.79-149.38-14.13-13.79-31.14-22.81-49.04-27.11ZM360.06 178.45c-5.46 18.44-5.98 38.58-.4 58.46.13.46.28.9.42 1.36-13.24-13.97-30.44-24.5-50.47-29.61-.45-.11-.89-.2-1.34-.31 19.76-4.78 37.78-15.2 51.78-29.9Zm-102.65 29.57c.45.11.89.2 1.34.31a106.106 106.106 0 0 0-51.73 29.84c5.72-19.46 5.71-40.22.02-59.66 13.23 13.92 30.39 24.41 50.37 29.51ZM130.44 310.98c18.7-4.49 36.4-14.1 50.83-28.88.33-.34.64-.7.97-1.04-.38 1.27-.75 2.55-1.08 3.85-4.87 19.1-4.18 38.3 1.02 55.92-14.01-14.7-32.02-25.07-51.73-29.85Zm76.51 132.59c5.46-18.44 5.99-38.58.4-58.46-.13-.45-.28-.89-.41-1.33 13.24 13.96 30.43 24.49 50.45 29.6.44.11.89.2 1.33.3-19.76 4.78-37.77 15.2-51.78 29.89Zm102.65-29.55c-.45-.11-.9-.2-1.35-.31a106.068 106.068 0 0 0 51.76-29.88c-5.73 19.5-5.71 40.29.01 59.76-13.24-13.95-30.42-24.47-50.43-29.58Zm76.15-74.1c-.34.35-.65.71-.99 1.06.38-1.28.76-2.55 1.09-3.85 4.87-19.11 4.18-38.33-1.03-55.96a106.024 106.024 0 0 0 51.76 29.86c-18.7 4.49-36.4 14.11-50.83 28.88Z"></path></svg>