<svg data-name="Layer 1" xmlns="http://www.w3.org/2000/svg" viewBox="0 0 613.51 613.51"><path d="M0 0v613.51h613.51V0H0Zm513.17 79.87c9.79 4.43 17.74 12.11 22.65 21.63h-22.65V79.87Zm0 68.36c16.48 7.45 27.96 23.99 27.96 43.25h-27.96v-43.25Zm-89.99-71.81c2.74-.49 5.55-.79 8.43-.79 18.43 0 34.37 10.52 42.24 25.86h-50.67V76.42Zm-66.74-6.22c20.53 0 37.96 13.05 44.59 31.29h-89.18c6.63-18.24 24.06-31.29 44.59-31.29Zm-100.54 0c20.53 0 37.96 13.05 44.59 31.29h-89.18c6.63-18.24 24.06-31.29 44.59-31.29ZM99.77 536.53c-9.79-4.43-17.74-12.11-22.65-21.63h22.65v21.63Zm0-68.36c-16.48-7.45-27.96-23.99-27.96-43.25h27.96v43.25Zm0-64.82c-18.24-6.63-31.29-24.06-31.29-44.59s13.05-37.96 31.29-44.59v89.18Zm0-100.7c-18.24-6.63-31.29-24.06-31.29-44.59s13.05-37.96 31.29-44.59v89.18Zm0-111.16H71.81c0-19.26 11.48-35.8 27.96-43.25v43.25Zm0-89.99H77.12c4.9-9.51 12.86-17.2 22.65-21.63v21.63Zm89.99 438.47c-2.74.49-5.55.79-8.43.79-18.43 0-34.37-10.52-42.24-25.86h50.67v25.07Zm0-68.36c-2.74.49-5.55.79-8.43.79-26.23 0-47.49-21.26-47.49-47.49h55.92v46.69Zm0-66.15c-2.74.49-5.55.79-8.43.79-26.23 0-47.49-21.26-47.49-47.49s21.26-47.49 47.49-47.49c2.88 0 5.69.3 8.43.79v93.39Zm0-100.7c-2.74.49-5.55.79-8.43.79-26.23 0-47.49-21.26-47.49-47.49s21.26-47.49 47.49-47.49c2.88 0 5.69.3 8.43.79v93.39Zm0-113.26h-55.92c0-26.23 21.26-47.49 47.49-47.49 2.88 0 5.69.3 8.43.79v46.69Zm0-89.99h-50.67c7.87-15.34 23.81-25.86 42.24-25.86 2.88 0 5.69.3 8.43.79v25.07Zm66.15 444.69c-20.53 0-37.96-13.05-44.59-31.29h89.18c-6.63 18.24-24.06 31.29-44.59 31.29Zm0-65.36c-26.23 0-47.49-21.26-47.49-47.49 0-2.88.3-5.69.79-8.43h93.39c.49 2.74.79 5.55.79 8.43 0 26.23-21.26 47.49-47.49 47.49Zm0-74.59c-26.23 0-47.49-21.26-47.49-47.49s21.26-47.49 47.49-47.49 47.49 21.26 47.49 47.49-21.26 47.49-47.49 47.49Zm0-100.7c-26.23 0-47.49-21.26-47.49-47.49s21.26-47.49 47.49-47.49 47.49 21.26 47.49 47.49-21.26 47.49-47.49 47.49ZM302.6 191.5h-93.39c-.49-2.74-.79-5.55-.79-8.43 0-26.23 21.26-47.49 47.49-47.49s47.49 21.26 47.49 47.49c0 2.88-.3 5.69-.79 8.43Zm53.84 354.7c-20.53 0-37.96-13.05-44.59-31.29h89.18c-6.63 18.24-24.06 31.29-44.59 31.29Zm0-65.36c-26.23 0-47.49-21.26-47.49-47.49 0-2.88.3-5.69.79-8.43h93.39c.49 2.74.79 5.55.79 8.43 0 26.23-21.26 47.49-47.49 47.49Zm0-74.59c-26.23 0-47.49-21.26-47.49-47.49s21.26-47.49 47.49-47.49 47.49 21.26 47.49 47.49-21.26 47.49-47.49 47.49Zm0-100.7c-26.23 0-47.49-21.26-47.49-47.49s21.26-47.49 47.49-47.49 47.49 21.26 47.49 47.49-21.26 47.49-47.49 47.49Zm46.7-114.05h-93.39c-.49-2.74-.79-5.55-.79-8.43 0-26.23 21.26-47.49 47.49-47.49s47.49 21.26 47.49 47.49c0 2.88-.3 5.69-.79 8.43Zm28.47 349.27c-2.88 0-5.69-.3-8.43-.79v-25.07h50.67c-7.87 15.34-23.81 25.86-42.24 25.86Zm0-68.36c-2.88 0-5.69-.3-8.43-.79v-46.69h55.92c0 26.23-21.26 47.49-47.49 47.49Zm0-66.15c-2.88 0-5.69-.3-8.43-.79v-93.39c2.74-.49 5.55-.79 8.43-.79 26.23 0 47.49 21.26 47.49 47.49s-21.26 47.49-47.49 47.49Zm0-100.7c-2.88 0-5.69-.3-8.43-.79v-93.39c2.74-.49 5.55-.79 8.43-.79 26.23 0 47.49 21.26 47.49 47.49s-21.26 47.49-47.49 47.49Zm-8.43-114.05v-46.69c2.74-.49 5.55-.79 8.43-.79 26.23 0 47.49 21.26 47.49 47.49h-55.92Zm89.99 345.04v-21.63h22.65c-4.9 9.51-12.86 17.2-22.65 21.63Zm0-68.36v-43.25h27.96c0 19.26-11.48 35.8-27.96 43.25Zm0-64.82v-89.18c18.24 6.63 31.29 24.06 31.29 44.59s-13.05 37.96-31.29 44.59Zm0-100.7v-89.18c18.24 6.63 31.29 24.06 31.29 44.59s-13.05 37.96-31.29 44.59Z"></path></svg>