<svg xmlns="http://www.w3.org/2000/svg" id="a" width="642" viewBox="0 0 642 632.37" height="632.37" data-name="Layer 1"><defs></defs><circle cx="621.13" cy="20.87" r="20.87" class="b"></circle><circle cx="571.21" cy="20.87" r="19.59" class="b"></circle><circle cx="521.28" cy="20.87" r="18.32" class="b"></circle><circle cx="471.35" cy="20.87" r="17.05" class="b"></circle><circle cx="421.42" cy="20.87" r="15.78" class="b"></circle><circle cx="371.49" cy="20.87" r="14.51" class="b"></circle><circle cx="321.56" cy="20.87" r="13.24" class="b"></circle><circle cx="271.63" cy="20.87" r="11.97" class="b"></circle><circle cx="221.7" cy="20.87" r="10.7" class="b"></circle><circle cx="171.78" cy="20.87" r="9.43" class="b"></circle><circle cx="121.85" cy="20.87" r="8.16" class="b"></circle><circle cx="71.92" cy="20.87" r="6.89" class="b"></circle><circle cx="21.99" cy="20.87" r="5.62" class="b"></circle><circle cx="20.87" cy="611.51" r="20.87" class="b"></circle><circle cx="70.79" cy="611.51" r="19.59" class="b"></circle><circle cx="120.72" cy="611.51" r="18.32" class="b"></circle><circle cx="170.65" cy="611.51" r="17.05" class="b"></circle><circle cx="220.58" cy="611.51" r="15.78" class="b"></circle><circle cx="270.51" cy="611.51" r="14.51" class="b"></circle><circle cx="320.44" cy="611.51" r="13.24" class="b"></circle><circle cx="370.37" cy="611.51" r="11.97" class="b"></circle><circle cx="420.3" cy="611.51" r="10.7" class="b"></circle><circle cx="470.22" cy="611.51" r="9.43" class="b"></circle><circle cx="520.15" cy="611.51" r="8.16" class="b"></circle><circle cx="570.08" cy="611.51" r="6.89" class="b"></circle><circle cx="620.01" cy="611.51" r="5.62" class="b"></circle><circle cx="220.58" cy="513.07" r="20.87" class="b"></circle><circle cx="270.51" cy="513.07" r="19.59" class="b"></circle><circle cx="170.65" cy="513.07" r="19.59" class="b"></circle><circle cx="320.44" cy="513.07" r="17.05" class="b"></circle><circle cx="370.37" cy="513.07" r="15.78" class="b"></circle><circle cx="70.79" cy="513.07" r="15.78" class="b"></circle><circle cx="420.3" cy="513.07" r="13.24" class="b"></circle><circle cx="20.87" cy="513.07" r="13.24" class="b"></circle><circle cx="470.22" cy="513.07" r="10.7" class="b"></circle><circle cx="520.15" cy="513.07" r="8.16" class="b"></circle><circle cx="570.08" cy="513.07" r="6.89" class="b"></circle><circle cx="620.01" cy="513.07" r="5.62" class="b"></circle><circle cx="120.72" cy="513.07" r="17.05" class="b"></circle><circle cx="320.44" cy="414.63" r="19.59" class="b"></circle><circle cx="220.58" cy="414.63" r="19.59" class="b"></circle><circle cx="370.37" cy="414.63" r="17.05" class="b"></circle><circle cx="170.65" cy="414.63" r="17.05" class="b"></circle><circle cx="420.3" cy="414.63" r="15.78" class="b"></circle><circle cx="120.72" cy="414.63" r="15.78" class="b"></circle><circle cx="470.22" cy="414.63" r="13.24" class="b"></circle><circle cx="70.79" cy="414.63" r="13.24" class="b"></circle><circle cx="520.15" cy="414.63" r="10.7" class="b"></circle><circle cx="570.08" cy="414.63" r="10.7" class="b"></circle><circle cx="620.01" cy="414.63" r="5.62" class="b"></circle><circle cx="270.51" cy="414.63" r="20.87" class="b"></circle><circle cx="20.87" cy="414.63" r="10.7" class="b"></circle><circle cx="370.37" cy="316.19" r="19.59" class="b"></circle><circle cx="270.51" cy="316.19" r="19.59" class="b"></circle><circle cx="420.3" cy="316.19" r="17.05" class="b"></circle><circle cx="220.58" cy="316.19" r="17.05" class="b"></circle><circle cx="470.22" cy="316.19" r="15.78" class="b"></circle><circle cx="170.65" cy="316.19" r="15.78" class="b"></circle><circle cx="520.15" cy="316.19" r="13.24" class="b"></circle><circle cx="120.72" cy="316.19" r="13.24" class="b"></circle><circle cx="570.08" cy="316.19" r="10.7" class="b"></circle><circle cx="620.01" cy="316.18" r="10.7" class="b"></circle><circle cx="20.87" cy="316.19" r="10.7" class="b"></circle><circle cx="320.44" cy="316.19" r="20.87" class="b"></circle><circle cx="70.79" cy="316.19" r="10.7" class="b"></circle><circle cx="321.56" cy="217.75" r="19.59" class="b"></circle><circle cx="421.42" cy="217.75" r="19.59" class="b"></circle><circle cx="271.63" cy="217.75" r="17.05" class="b"></circle><circle cx="471.35" cy="217.75" r="17.05" class="b"></circle><circle cx="221.7" cy="217.75" r="15.78" class="b"></circle><circle cx="521.28" cy="217.75" r="15.78" class="b"></circle><circle cx="171.78" cy="217.75" r="13.24" class="b"></circle><circle cx="571.21" cy="217.75" r="13.24" class="b"></circle><circle cx="121.85" cy="217.75" r="10.7" class="b"></circle><circle cx="71.92" cy="217.75" r="10.7" class="b"></circle><circle cx="21.99" cy="217.75" r="5.62" class="b"></circle><circle cx="371.49" cy="217.75" r="20.87" class="b"></circle><circle cx="621.14" cy="217.75" r="10.7" class="b"></circle><circle cx="195.62" cy="562.29" r="19.59" class="b"></circle><circle cx="245.54" cy="562.29" r="19.59" class="b"></circle><circle cx="95.76" cy="562.29" r="19.59" class="b"></circle><circle cx="295.47" cy="562.29" r="15.78" class="b"></circle><circle cx="345.4" cy="562.29" r="14.51" class="b"></circle><circle cx="445.26" cy="562.29" r="11.97" class="b"></circle><circle cx="495.19" cy="562.29" r="10.7" class="b"></circle><circle cx="545.12" cy="562.29" r="9.43" class="b"></circle><circle cx="595.05" cy="562.29" r="5.62" class="b"></circle><circle cx="395.33" cy="562.29" r="13.24" class="b"></circle><circle cx="145.69" cy="562.29" r="20.87" class="b"></circle><circle cx="45.83" cy="562.29" r="17.05" class="b"></circle><circle cx="195.62" cy="463.85" r="19.59" class="b"></circle><circle cx="295.47" cy="463.85" r="19.59" class="b"></circle><circle cx="395.33" cy="463.85" r="15.78" class="b"></circle><circle cx="95.76" cy="463.85" r="15.78" class="b"></circle><circle cx="495.19" cy="463.85" r="10.7" class="b"></circle><circle cx="545.12" cy="463.85" r="9.43" class="b"></circle><circle cx="595.05" cy="463.85" r="5.62" class="b"></circle><circle cx="445.26" cy="463.85" r="13.24" class="b"></circle><circle cx="45.83" cy="463.85" r="13.24" class="b"></circle><circle cx="345.4" cy="463.85" r="17.05" class="b"></circle><circle cx="145.69" cy="463.85" r="17.05" class="b"></circle><circle cx="245.54" cy="463.85" r="20.87" class="b"></circle><circle cx="345.4" cy="365.41" r="19.59" class="b"></circle><circle cx="245.54" cy="365.41" r="19.59" class="b"></circle><circle cx="445.26" cy="365.41" r="15.78" class="b"></circle><circle cx="145.69" cy="365.41" r="15.78" class="b"></circle><circle cx="545.12" cy="365.41" r="10.7" class="b"></circle><circle cx="45.83" cy="365.41" r="10.7" class="b"></circle><circle cx="595.05" cy="365.41" r="9.43" class="b"></circle><circle cx="495.19" cy="365.41" r="13.24" class="b"></circle><circle cx="95.76" cy="365.41" r="13.24" class="b"></circle><circle cx="395.33" cy="365.41" r="17.05" class="b"></circle><circle cx="195.62" cy="365.41" r="17.05" class="b"></circle><circle cx="295.47" cy="365.41" r="20.87" class="b"></circle><circle cx="296.6" cy="266.97" r="19.59" class="b"></circle><circle cx="396.46" cy="266.97" r="19.59" class="b"></circle><circle cx="196.74" cy="266.97" r="15.78" class="b"></circle><circle cx="496.31" cy="266.97" r="15.78" class="b"></circle><circle cx="96.88" cy="266.97" r="10.7" class="b"></circle><circle cx="596.17" cy="266.97" r="10.7" class="b"></circle><circle cx="46.95" cy="266.97" r="9.43" class="b"></circle><circle cx="146.81" cy="266.97" r="13.24" class="b"></circle><circle cx="546.24" cy="266.97" r="13.24" class="b"></circle><circle cx="246.67" cy="266.97" r="17.05" class="b"></circle><circle cx="446.38" cy="266.97" r="17.05" class="b"></circle><circle cx="346.53" cy="266.97" r="20.87" class="b"></circle><circle cx="446.38" cy="168.53" r="19.59" class="b"></circle><circle cx="346.53" cy="168.53" r="19.59" class="b"></circle><circle cx="246.67" cy="168.53" r="15.78" class="b"></circle><circle cx="546.24" cy="168.53" r="15.78" class="b"></circle><circle cx="146.81" cy="168.53" r="10.7" class="b"></circle><circle cx="96.88" cy="168.53" r="9.43" class="b"></circle><circle cx="46.95" cy="168.53" r="5.62" class="b"></circle><circle cx="196.74" cy="168.53" r="13.24" class="b"></circle><circle cx="596.17" cy="168.53" r="13.24" class="b"></circle><circle cx="296.6" cy="168.53" r="17.05" class="b"></circle><circle cx="496.31" cy="168.53" r="17.05" class="b"></circle><circle cx="396.46" cy="168.53" r="20.87" class="b"></circle><circle cx="421.42" cy="119.31" r="20.87" class="b"></circle><circle cx="371.49" cy="119.31" r="19.59" class="b"></circle><circle cx="471.35" cy="119.31" r="19.59" class="b"></circle><circle cx="321.56" cy="119.31" r="17.05" class="b"></circle><circle cx="271.63" cy="119.31" r="15.78" class="b"></circle><circle cx="571.21" cy="119.31" r="15.78" class="b"></circle><circle cx="221.7" cy="119.31" r="13.24" class="b"></circle><circle cx="621.14" cy="119.31" r="13.24" class="b"></circle><circle cx="171.78" cy="119.31" r="10.7" class="b"></circle><circle cx="121.85" cy="119.31" r="8.16" class="b"></circle><circle cx="71.92" cy="119.31" r="6.89" class="b"></circle><circle cx="21.99" cy="119.31" r="5.62" class="b"></circle><circle cx="521.28" cy="119.31" r="17.05" class="b"></circle><circle cx="446.38" cy="70.09" r="19.59" class="b"></circle><circle cx="396.46" cy="70.09" r="19.59" class="b"></circle><circle cx="546.24" cy="70.09" r="19.59" class="b"></circle><circle cx="346.53" cy="70.09" r="15.78" class="b"></circle><circle cx="296.6" cy="70.09" r="14.51" class="b"></circle><circle cx="196.74" cy="70.09" r="11.97" class="b"></circle><circle cx="146.81" cy="70.09" r="10.7" class="b"></circle><circle cx="96.88" cy="70.09" r="9.43" class="b"></circle><circle cx="46.95" cy="70.09" r="5.62" class="b"></circle><circle cx="246.67" cy="70.09" r="13.24" class="b"></circle><circle cx="496.31" cy="70.09" r="20.87" class="b"></circle><circle cx="596.17" cy="70.08" r="17.05" class="b"></circle></svg>