<svg data-name="Layer 1" xmlns="http://www.w3.org/2000/svg" viewBox="0 0 589.06 617.66"><path d="M308.83 570.83c-144.47 0-262-117.53-262-262s117.53-262 262-262c105.22 0 196.09 62.38 237.73 152.07l42.5-19.65C539.98 73.53 432.86 0 308.83 0 138.54 0 0 138.54 0 308.83s138.54 308.83 308.83 308.83c124.03 0 231.14-73.53 280.23-179.25l-42.5-19.65c-41.64 89.69-132.51 152.07-237.73 152.07Z"></path><path d="M450.83 243.17c-24.9-53.61-79.11-90.96-142-90.96-86.36 0-156.62 70.26-156.62 156.62s70.26 156.62 156.62 156.62c62.89 0 117.1-37.35 142-90.96l-42.46-19.64c-17.45 37.58-55.45 63.76-99.54 63.76-60.54 0-109.79-49.25-109.79-109.79s49.25-109.79 109.79-109.79c44.09 0 82.09 26.18 99.54 63.76l42.46-19.63Z"></path><path d="M97.83 406.4c36.99 79.66 117.54 135.15 211 135.15 128.32 0 232.73-104.4 232.73-232.73S437.16 76.09 308.83 76.09c-93.45 0-174 55.5-211 135.15l42.46 19.64c29.55-63.63 93.89-107.95 168.53-107.95 102.5 0 185.89 83.39 185.89 185.89s-83.39 185.89-185.89 185.89c-74.65 0-138.99-44.33-168.54-107.96l-42.46 19.64Z"></path><circle cx="308.83" cy="308.83" r="80.45" transform="rotate(-9.22 308.75888716 308.7458883)"></circle></svg>