<svg id="Layer_1" data-name="Layer 1" xmlns="http://www.w3.org/2000/svg" viewBox="0 0 605.53 605.53">   <rect width="109.47" viewBox="0 0 109.47 109.47" height="109.47"></rect>   <rect x="124.01" width="109.47" height="109.47"></rect>   <rect x="248.03" width="109.47" height="109.47"></rect>   <rect x="372.04" width="109.47" height="109.47"></rect>   <rect x="496.06" width="109.47" height="109.47"></rect>   <rect y="124.02" width="109.47" height="109.47"></rect>   <rect x="124.01" y="124.02" width="109.47" height="109.47" transform="translate(-33.27 41.09) rotate(-12)"></rect>   <rect x="248.03" y="124.02" width="109.47" height="109.47" transform="translate(-30.56 66.88) rotate(-12)"></rect>   <rect x="372.04" y="124.02" width="109.47" height="109.47" transform="translate(-27.84 92.67) rotate(-12)"></rect>   <rect x="124.01" y="248.03" width="109.47" height="109.47" transform="translate(-59.06 43.8) rotate(-12)"></rect>   <rect x="248.03" y="248.03" width="109.47" height="109.47" transform="translate(-56.35 69.59) rotate(-12)"></rect>   <rect x="372.04" y="248.03" width="109.47" height="109.47" transform="translate(-53.64 95.39) rotate(-12)"></rect>   <rect x="124.01" y="372.04" width="109.47" height="109.47" transform="translate(-84.86 46.51) rotate(-12)"></rect>   <rect x="248.03" y="372.04" width="109.47" height="109.47" transform="translate(-82.14 72.3) rotate(-12)"></rect>   <rect x="372.04" y="372.04" width="109.47" height="109.47" transform="translate(-79.43 98.1) rotate(-12)"></rect>   <rect x="496.06" y="124.02" width="109.47" height="109.47"></rect>   <rect y="248.03" width="109.47" height="109.47"></rect>   <rect x="496.06" y="248.03" width="109.47" height="109.47"></rect>   <rect y="372.05" width="109.47" height="109.47"></rect>   <rect x="496.06" y="372.05" width="109.47" height="109.47"></rect>   <rect y="496.06" width="109.47" height="109.47"></rect>   <rect x="124.01" y="496.06" width="109.47" height="109.47"></rect>   <rect x="248.03" y="496.06" width="109.47" height="109.47"></rect>   <rect x="372.04" y="496.06" width="109.47" height="109.47"></rect>   <rect x="496.06" y="496.06" width="109.47" height="109.47"></rect> </svg>