<svg xmlns="http://www.w3.org/2000/svg" width="613.42" viewBox="0 0 613.42 613.38" height="613.38" xml:space="preserve" style="enable-background:new 0 0 613.42 613.38"><path d="M525.64 90.86H378.27c-25.06 0-45.44 20.39-45.44 45.44s20.39 45.44 45.44 45.44h84.8l-60.71 60.7L250.81 90.89h75.3c25.06 0 45.44-20.39 45.44-45.44S351.17 0 326.11 0H178.74c-48.4 0-87.78 39.38-87.78 87.78v147.37c0 25.06 20.39 45.44 45.44 45.44s45.44-20.39 45.44-45.44V150.48l60.71 60.71L90.89 362.85v-75.41c0-25.06-20.39-45.44-45.44-45.44S0 262.38 0 287.43V434.8c0 48.4 39.38 87.78 87.78 87.78h147.37c25.06 0 45.44-20.39 45.44-45.45s-20.39-45.44-45.44-45.44h-84.57l60.71-60.7 151.5 151.5h-75.24c-25.06 0-45.44 20.39-45.44 45.45 0 25.06 20.39 45.44 45.44 45.44h147.37c48.4 0 87.78-39.38 87.78-87.78V378.24c0-25.06-20.39-45.44-45.44-45.44s-45.44 20.39-45.44 45.44v84.73l-60.71-60.71 151.44-151.44V326c0 25.06 20.39 45.45 45.44 45.45 25.06 0 45.45-20.39 45.45-45.45V178.64c-.02-48.41-39.4-87.78-87.8-87.78zM306.82 337.99l-31.27-31.27 31.28-31.27 31.27 31.27-31.28 31.27z"></path></svg>