<svg data-name="Layer 1" xmlns="http://www.w3.org/2000/svg" viewBox="0 0 581.13 609.28"><path d="M581.13 75.29 450.74 0 343.95 61.65 237.18 0 106.79 75.29v246.48L0 383.42v150.57l130.4 75.28 237.16-136.82v-123.3l213.57-123.3V75.29Zm-237.18 40.9 106.79-61.65 59.55 34.38-166.34 96.03-166.32-96.03 59.55-34.38 106.78 61.65ZM130.4 431.54l-59.58-34.47 59.58-34.4 59.58 34.4-59.58 34.47Zm83.17-198.57v123.18l-59.56-34.38V129.83l166.33 96.04v68.76l-106.78-61.65ZM47.23 438l59.56 34.45v68.66l-59.56-34.38V438Zm273.11 7.19-166.33 95.92v-68.66l106.78-61.77v-95.9l59.56 34.38v96.03Zm47.22-150.57v-68.76l166.35-96.04v68.76l-166.35 96.03Z"></path></svg>