<svg xmlns="http://www.w3.org/2000/svg" id="a" width="642" viewBox="0 0 642 507.98" height="507.98" data-name="Layer 1"><defs></defs><path d="M61.99 404.05c39.84-170.86 176.37-297.03 339-298.23 14.32-14.06 33.96-22.79 55.73-22.79 12.33 0 24.01 2.84 34.47 7.85 20.16 9.45 34.45 29.33 35.92 52.69 21.64 13.07 36.11 36.81 36.11 63.93 0 14-3.88 27.08-10.58 38.27-11.69 22.53-35.23 37.92-62.36 37.92-16.97 0-32.53-6.02-44.67-16.03-10.11-8.04-16.59-20.45-16.59-34.38 0-5.41.98-10.59 2.77-15.38a27.71 27.71 0 0 0-3.43-.21c-14.2 0-25.93 10.53-27.82 24.21-.91 5.98-1.37 12.32-1.37 18.55 0 25.15 7.69 48.5 20.88 67.81 31.52 47.55 79.57 83.19 135.94 98.75C609.36 381.66 642 320.83 642 253.98 642 113.72 498.28 0 321 0S0 113.72 0 253.99c0 56.14 23.02 108.02 61.99 150.06Z" class="b"></path><path d="M192.45 486.8a355.116 355.116 0 0 1-3.06-46.62c0-91.2 34.66-174.31 91.52-236.88 21.46-23.76 50.35-40.68 83.01-47.1-8.39 27.92-12.91 57.52-12.91 88.17 0 95.69 43.96 181.11 112.78 237.17-43.01 16.93-91.49 26.45-142.79 26.45-45.71 0-89.19-7.56-128.55-21.19Z" class="b"></path></svg>