<svg xmlns="http://www.w3.org/2000/svg" width="591.5" viewBox="0 0 591.5 592.5" height="592.5" xml:space="preserve"><path d="M590.8 222.9 367.9.1h-58.1c80.6 85.7 79.1 221.6-4.4 305.4C221.7 389 85.8 390.4.1 309.9V368l224.5 224.5h147.6c60.7.3 115.7-25.1 155.4-64.9 39.7-39.7 64.2-94.7 63.9-155.4l-.7-149.3zM294.3 369.6c14.5-9.9 28.3-21.3 41.2-34.2 12.9-12.9 24.2-26.7 34.2-41.2l.2 75.6-75.6-.2z"></path><path d="M201.4 201.4c28.5-28.5 28.5-74.8 0-103.3L104.2.9H36.4L167.5 132c9.8 9.8 9.8 25.7 0 35.4-9.8 9.8-25.7 9.8-35.4 0L.9 36.4v67.9l97.2 97.2c28.5 28.4 74.8 28.4 103.3-.1z"></path><path d="M271.5 271.5C338 205 338 96.8 271.5 30.3L241.2 0h-67.9l64.2 64.2c23 23 35.7 53.8 35.7 86.7s-12.7 63.7-35.7 86.7c-23 23-53.8 35.7-86.7 35.7-32.9 0-63.7-12.7-86.7-35.7L0 173.4v67.9l30.3 30.3C96.8 338 205 338 271.5 271.5z"></path></svg>