<svg data-name="Layer 1" xmlns="http://www.w3.org/2000/svg" viewBox="0 0 592.08 626.57"><circle cx="296.04" cy="32.29" r="32.29" transform="rotate(-45 296.03789266 32.29708989)"></circle><circle cx="225.08" cy="32.29" r="28.66"></circle><path d="M154.54 8.74c-13.01 0-23.56 10.55-23.56 23.56s10.55 23.56 23.56 23.56S178.1 45.31 178.1 32.3 167.55 8.74 154.54 8.74ZM85.16 13.67c-10.29 0-18.62 8.34-18.62 18.62s8.34 18.62 18.62 18.62 18.62-8.34 18.62-18.62-8.34-18.62-18.62-18.62Z"></path><circle cx="15.33" cy="32.29" r="15.33"></circle><circle cx="367" cy="32.29" r="28.66"></circle><path d="M437.54 8.74c-13.01 0-23.56 10.55-23.56 23.56s10.55 23.56 23.56 23.56S461.1 45.31 461.1 32.3 450.55 8.74 437.54 8.74ZM506.91 13.67c-10.29 0-18.62 8.34-18.62 18.62s8.34 18.62 18.62 18.62 18.62-8.34 18.62-18.62-8.34-18.62-18.62-18.62Z"></path><circle cx="576.75" cy="32.29" r="15.33"></circle><circle cx="296.04" cy="102.54" r="32.29" transform="rotate(-67.5 296.03341043 102.54186341)"></circle><circle cx="225.08" cy="102.54" r="28.66"></circle><circle cx="154.54" cy="102.54" r="23.56"></circle><path d="M85.16 83.92c-10.29 0-18.62 8.34-18.62 18.62s8.34 18.62 18.62 18.62 18.62-8.34 18.62-18.62-8.34-18.62-18.62-18.62Z"></path><circle cx="15.33" cy="102.54" r="15.33"></circle><circle cx="367" cy="102.54" r="28.66"></circle><circle cx="437.54" cy="102.54" r="23.56"></circle><path d="M506.91 83.92c-10.29 0-18.62 8.34-18.62 18.62s8.34 18.62 18.62 18.62 18.62-8.34 18.62-18.62-8.34-18.62-18.62-18.62Z"></path><circle cx="576.75" cy="102.54" r="15.33"></circle><circle cx="296.04" cy="172.79" r="32.29" transform="rotate(-67.5 296.0373064 172.79172041)"></circle><circle cx="225.08" cy="172.79" r="28.66"></circle><circle cx="154.54" cy="172.79" r="23.56"></circle><path d="M85.16 154.17c-10.29 0-18.62 8.34-18.62 18.62s8.34 18.62 18.62 18.62 18.62-8.34 18.62-18.62-8.34-18.62-18.62-18.62Z"></path><circle cx="15.33" cy="172.79" r="15.33"></circle><circle cx="367" cy="172.79" r="28.66"></circle><circle cx="437.54" cy="172.79" r="23.56"></circle><path d="M506.91 154.17c-10.29 0-18.62 8.34-18.62 18.62s8.34 18.62 18.62 18.62 18.62-8.34 18.62-18.62-8.34-18.62-18.62-18.62Z"></path><circle cx="576.75" cy="172.79" r="15.33"></circle><circle cx="296.04" cy="243.04" r="32.29" transform="rotate(-67.5 296.04120236 243.04157741)"></circle><circle cx="225.08" cy="243.04" r="28.66"></circle><circle cx="154.54" cy="243.04" r="23.56"></circle><path d="M85.16 224.42c-10.29 0-18.62 8.34-18.62 18.62s8.34 18.62 18.62 18.62 18.62-8.34 18.62-18.62-8.34-18.62-18.62-18.62Z"></path><circle cx="15.33" cy="243.04" r="15.33"></circle><circle cx="367" cy="243.04" r="28.66"></circle><circle cx="437.54" cy="243.04" r="23.56"></circle><path d="M506.91 224.42c-10.29 0-18.62 8.34-18.62 18.62s8.34 18.62 18.62 18.62 18.62-8.34 18.62-18.62-8.34-18.62-18.62-18.62Z"></path><circle cx="576.75" cy="243.04" r="15.33"></circle><circle cx="296.04" cy="313.29" r="32.29" transform="rotate(-67.5 296.0376153 313.2864344)"></circle><circle cx="225.08" cy="313.29" r="28.66"></circle><circle cx="154.54" cy="313.29" r="23.56"></circle><path d="M85.16 294.66c-10.29 0-18.62 8.34-18.62 18.62s8.34 18.62 18.62 18.62 18.62-8.34 18.62-18.62-8.34-18.62-18.62-18.62Z"></path><circle cx="15.33" cy="313.29" r="15.33"></circle><circle cx="367" cy="313.29" r="28.66"></circle><circle cx="437.54" cy="313.29" r="23.56"></circle><path d="M506.91 294.66c-10.29 0-18.62 8.34-18.62 18.62s8.34 18.62 18.62 18.62 18.62-8.34 18.62-18.62-8.34-18.62-18.62-18.62Z"></path><circle cx="576.75" cy="313.29" r="15.33"></circle><circle cx="296.04" cy="383.54" r="32.29" transform="rotate(-67.5 296.04151126 383.5362914)"></circle><circle cx="225.08" cy="383.54" r="28.66"></circle><circle cx="154.54" cy="383.54" r="23.56"></circle><path d="M85.16 364.91c-10.29 0-18.62 8.34-18.62 18.62s8.34 18.62 18.62 18.62 18.62-8.34 18.62-18.62-8.34-18.62-18.62-18.62Z"></path><circle cx="15.33" cy="383.54" r="15.33"></circle><circle cx="367" cy="383.54" r="28.66"></circle><circle cx="437.54" cy="383.54" r="23.56"></circle><path d="M506.91 364.91c-10.29 0-18.62 8.34-18.62 18.62s8.34 18.62 18.62 18.62 18.62-8.34 18.62-18.62-8.34-18.62-18.62-18.62Z"></path><circle cx="576.75" cy="383.54" r="15.33"></circle><circle cx="296.04" cy="453.78" r="32.29" transform="rotate(-67.5 296.0379242 453.7811484)"></circle><circle cx="225.08" cy="453.78" r="28.66"></circle><circle cx="154.54" cy="453.78" r="23.56"></circle><path d="M85.16 435.16c-10.29 0-18.62 8.34-18.62 18.62s8.34 18.62 18.62 18.62 18.62-8.34 18.62-18.62-8.34-18.62-18.62-18.62Z"></path><circle cx="15.33" cy="453.78" r="15.33"></circle><circle cx="367" cy="453.78" r="28.66"></circle><circle cx="437.54" cy="453.78" r="23.56"></circle><path d="M506.91 435.16c-10.29 0-18.62 8.34-18.62 18.62s8.34 18.62 18.62 18.62 18.62-8.34 18.62-18.62-8.34-18.62-18.62-18.62Z"></path><circle cx="576.75" cy="453.78" r="15.33"></circle><circle cx="296.04" cy="524.03" r="32.29" transform="rotate(-67.5 296.04182016 524.0310054)"></circle><circle cx="225.08" cy="524.03" r="28.66"></circle><circle cx="154.54" cy="524.03" r="23.56"></circle><path d="M85.16 505.41c-10.29 0-18.62 8.34-18.62 18.62s8.34 18.62 18.62 18.62 18.62-8.34 18.62-18.62-8.34-18.62-18.62-18.62Z"></path><circle cx="15.33" cy="524.03" r="15.33"></circle><circle cx="367" cy="524.03" r="28.66"></circle><circle cx="437.54" cy="524.03" r="23.56"></circle><path d="M506.91 505.41c-10.29 0-18.62 8.34-18.62 18.62s8.34 18.62 18.62 18.62 18.62-8.34 18.62-18.62-8.34-18.62-18.62-18.62Z"></path><circle cx="576.75" cy="524.03" r="15.33"></circle><circle cx="296.04" cy="594.28" r="32.29" transform="rotate(-67.5 296.03823309 594.2758624)"></circle><circle cx="225.08" cy="594.28" r="28.66"></circle><circle cx="154.54" cy="594.28" r="23.56"></circle><path d="M85.16 575.66c-10.29 0-18.62 8.34-18.62 18.62s8.34 18.62 18.62 18.62 18.62-8.34 18.62-18.62-8.34-18.62-18.62-18.62Z"></path><circle cx="15.33" cy="594.28" r="15.33"></circle><circle cx="367" cy="594.28" r="28.66"></circle><circle cx="437.54" cy="594.28" r="23.56"></circle><path d="M506.91 575.66c-10.29 0-18.62 8.34-18.62 18.62s8.34 18.62 18.62 18.62 18.62-8.34 18.62-18.62-8.34-18.62-18.62-18.62Z"></path><circle cx="576.75" cy="594.28" r="15.33"></circle></svg>