<svg xmlns="http://www.w3.org/2000/svg" width="642" viewBox="0 0 642 642" height="642" data-name="Layer 1"><path d="M466.81 89.88 376.93 0v49.76h-171.4c-11.52 0-20.87 9.34-20.87 20.87v194.45h80.25V130.02h112.02v49.75l89.88-89.88ZM89.88 175.19 0 265.07h49.76v171.4c0 11.52 9.34 20.87 20.86 20.87h194.45v-80.25H130.01V265.07h49.75l-89.88-89.88ZM175.19 552.12 265.07 642v-49.76h171.4c11.52 0 20.87-9.34 20.87-20.86V376.93h-80.25v135.06H265.07v-49.75l-89.88 89.88ZM552.12 466.81 642 376.93h-49.76v-171.4c0-11.52-9.34-20.87-20.86-20.87H376.93v80.25h135.06v112.02h-49.75l89.88 89.88Z"></path></svg>