<svg xmlns="http://www.w3.org/2000/svg" width="543.7" viewBox="0 0 543.7 627.9" height="627.9" xml:space="preserve" style="enable-background:new 0 0 543.7 627.9"><path d="m271.2 627.9-.2-22.2 253.4-146V168.1L271.8 22.3 19.3 168.1v314.6L0 471.6V157L271.8 0l271.9 157v313.9z"></path><path d="M271.2 568v-35.8l189.4-109.3V205L271.8 96 83.1 205v314.5l-30.9-17.8V187.1L271.8 60.3l219.7 126.8v253.6z"></path><path d="M160.2 564.1 111.7 536V221.2l160.1-92.5L432 221.2V406l-160.8 93.9v-55.8l112.3-65.9v-129l-111.7-64.4-111.6 64.4z"></path><path d="m244 612.2-60-34.5V263.2l87.8-50.7 87.9 50.7v101.6l-88.5 50.5v-69.6l28.5-15.9v-31.9l-27.9-16.1-27.8 16.1z"></path></svg>