<svg xmlns="http://www.w3.org/2000/svg" width="613.4" viewBox="0 0 613.4 438.6" height="438.6" xml:space="preserve" style="enable-background:new 0 0 613.4 438.6"><path d="M514.7 320.9H220.1c-55.6 0-100.8-45.2-100.8-100.8 0-55.6 45.2-100.8 100.8-100.8h202.7l-78.3 78.1H220.1c-12.5 0-22.7 10.2-22.7 22.7s10.2 22.7 22.7 22.7h294.6v78.1z"></path><path d="M514.7 438.6H219.3C98.4 438.6 0 340.2 0 219.3S98.4 0 219.3 0h125.2l78.3 78.1H219.3c-77.8 0-141.2 63.3-141.2 141.2 0 77.8 63.3 141.2 141.2 141.2h295.4v78.1z"></path><path d="M514.7 0H406.4l98.7 98.7-98.7 98.8h108.3l98.7-98.8z"></path></svg>