<svg xmlns="http://www.w3.org/2000/svg" width="182" viewBox="0 0 182 588.5" height="588.5" xml:space="preserve"><path d="M103.4 0C60.1 0 24.8 35.3 24.8 78.6v54.6H0v364.3c0 50.2 40.8 91 91 91s91-40.8 91-91V78.6C182 35.3 146.8 0 103.4 0zm53 497.6c0 36.1-29.3 65.4-65.4 65.4s-65.4-29.3-65.4-65.4v-95.2c4.9 32 32.6 56.5 66 56.5 18.2 0 35.1-7.1 47.6-20.1 9.2-9.5 15.1-21.2 17.3-33.9v92.7zm0-367.9h-24.7v262.9c.4 10.7-3.5 20.8-11 28.5-7.7 7.9-18 12.3-29.2 12.3-22.7 0-41.2-18.5-41.2-41.2V78.6c0-29.3 23.8-53.1 53.1-53.1 29.2 0 53 23.8 53.1 53l-.1 51.2z"></path></svg>