<svg xmlns="http://www.w3.org/2000/svg" width="617.3" viewBox="0 0 617.3 617.3" height="617.3" xml:space="preserve" style="enable-background:new 0 0 617.3 617.3"><path d="m472.3 454.3 145-145-144.9-145-46.5 46.5 66 66H359.2l-31.9 32.5 32.3 33.3h132.3l-66.3 65zM143.7 164.4 0 308.1l145.1 145 45.2-45.2-65.9-66.7H257l31.7-31.7-32.1-32.7H125.1l65.5-65.5zM163 145.1l145.1 145 145-145-45.5-45.5-67.6 67.5V32.9L308.1 0l-33.8 33.8v133.3l-66-67.3zM452.9 473.7l-145-145-143.6 143.7 45.3 45.3 66.7-66.1v132.7l33 33 32.2-32.2-.1-133.5 66.1 67.5z"></path></svg>