<svg data-name="Layer 1" xmlns="http://www.w3.org/2000/svg" viewBox="0 0 615.78 572.99"><path d="M584.3 0H421.12c0 41.34-.09 126.95 3.23 172.68 3.2 44.13 13.62 86.71 29.88 128.04 29.03 73.81 87.76 131.15 161.55 158.48V31.48C615.78 14.16 601.61 0 584.3 0Z"></path><path d="M609.9 556.08c-64.3-18.56-122.48-54.42-164.38-106.69-41.42-51.67-64.98-104.35-72.29-168.92-5.93-52.39-4.36-121.39-4.36-145.45V0H351.7v572.99h255.87c4.54 0 8.22-3.68 8.22-8.22v-.94c0-3.61-2.41-6.75-5.88-7.75ZM161.55 300.71c16.26-41.33 26.68-83.9 29.88-128.04 3.32-45.73 3.23-131.34 3.23-172.68H31.48C14.17 0 0 14.17 0 31.48v427.71c73.8-27.32 132.52-84.67 161.55-158.48Z"></path><path d="M246.92 135.02c0 24.06 1.57 93.07-4.36 145.45-7.31 64.57-30.87 117.25-72.29 168.92-41.9 52.27-100.08 88.13-164.38 106.69-3.47 1-5.88 4.14-5.88 7.75v.94c0 4.54 3.68 8.22 8.22 8.22H264.1V0h-17.17v135.02Z"></path></svg>