<svg data-name="Layer 1" xmlns="http://www.w3.org/2000/svg" viewBox="0 0 622.71 531.7"><path d="M131.19 311.35c0-99.35 80.83-180.17 180.17-180.17S491.53 212 491.53 311.35v117.76h19.58V311.35c0-110.14-89.61-199.75-199.75-199.75s-199.75 89.61-199.75 199.75v117.76h19.58V311.35Z"></path><path d="M168.39 311.35c0-78.83 64.14-142.97 142.97-142.97s142.97 64.13 142.97 142.97v117.76h19.58V311.35c0-89.63-72.92-162.55-162.55-162.55s-162.55 72.92-162.55 162.55v117.76h19.58V311.35Z"></path><path d="M205.59 311.35c0-58.32 47.45-105.76 105.77-105.76s105.77 47.45 105.77 105.76v117.76h19.58V311.35c0-69.11-56.23-125.34-125.35-125.34s-125.35 56.23-125.35 125.34v117.76h19.58V311.35Z"></path><path d="M311.36 0C139.67 0 0 139.67 0 311.35v220.34h300.22v-307.6c-11.64 1-21.91 5.43-26.64 7.69-30.26 14.44-50.37 45.31-50.37 79.57v117.76h19.58V311.35c0-26.14 15.05-49.75 37.85-61.25v262.02H19.58V311.36c0-160.89 130.89-291.78 291.78-291.78s291.78 130.89 291.78 291.77v200.76H342.08V250.1c22.8 11.5 37.85 35.11 37.85 61.25v117.76h19.58V311.35c0-34.27-20.11-65.13-50.37-79.57-4.72-2.25-15-6.69-26.64-7.69v307.6h300.22V311.35C622.71 139.67 483.04 0 311.36 0Z"></path><path d="M548.31 429.11V311.35c0-130.65-106.3-236.95-236.95-236.95S74.4 180.7 74.4 311.35v117.76h19.58V311.35c0-119.86 97.51-217.37 217.37-217.37s217.37 97.51 217.37 217.37v117.76h19.58Z"></path></svg>