<svg xmlns="http://www.w3.org/2000/svg" width="497.1" viewBox="0 0 497.1 614.2" height="614.2" xml:space="preserve" style="enable-background:new 0 0 497.1 614.2"><path d="M497.1 248.5C497.1 111.5 385.6 0 248.5 0S0 111.5 0 248.5c0 122.8 89.6 225.1 206.8 245v120.7h83.5V493.5c117.2-19.9 206.8-122.1 206.8-245zM173.2 398.9l33.6-41.7v54.3c-11.7-3-23-7.3-33.6-12.6zm117.1-41.7 33.6 41.7c-10.6 5.3-21.9 9.6-33.6 12.6v-54.3zm93.2-8.4-51.9-64.3H165.4l-51.9 64.3c-20.9-28-33.3-62.8-33.3-100.3 0-92.8 75.5-168.2 168.2-168.2s168.2 75.5 168.2 168.2c.2 37.6-12.2 72.3-33.1 100.3z"></path><path d="M248.5 139.4c-35.8 0-64.8 29-64.8 64.7 0 35.8 29 64.7 64.8 64.7s64.7-29 64.7-64.7c.1-35.7-28.9-64.7-64.7-64.7z"></path></svg>