<svg xmlns="http://www.w3.org/2000/svg" width="624" viewBox="0 0 624 619.9" height="619.9" xml:space="preserve" style="enable-background:new 0 0 624 619.9"><path d="M561 0H190.3L0 63.1V438l63.2 182h367.5L624 555.8V189.2L561 0zm46.2 354.4h-157v-157h157v157zm-179.3 78.8H268.6l169.3-62H606l-178.1 62zM247 584.2 190.8 435V283.8L247 437.2v147zM173.9 424h-157V258.4H174V424zm259.4-78.3L371.8 178V21.6L433.3 188v157.7zm-174.8 72.9-59.1-161.4L360.8 198 420 359.5l-161.5 59.1zM355 169.8H197.5V16.9H355v152.9zm-162 16.9h148.8l-149.9 54.9H30.2L193 186.7zm410.3-6.2H448.5L388.1 16.9h160.7l54.5 163.6zM180.6 21v152L16.9 228.2v-153L180.6 21zM18.9 440.9H175L236 603H75.2L18.9 440.9zm245 162.1V450.1H421V603H263.9zm343.3-59.4-169.4 56.2V447.7l169.4-59v154.9z"></path></svg>