<svg xmlns="http://www.w3.org/2000/svg" width="606.2" viewBox="0 0 606.2 606.2" height="606.2"><path d="M227.2 384.2l-37.2 3.3 85.4 35.5c.3-.1-48.2-38.8-48.2-38.8zM235.2 453.4l-180.8 23c13.2 18.9 28.5 36.2 45.5 51.5 88-18 182.5-37.3 182.5-37.3l-47.2-37.2z"></path><path d="M604.6 272.4C587.7 105.9 439-15.4 272.4 1.6 105.9 18.5-15.4 167.3 1.6 333.8c2.3 22.2 6.9 43.7 13.6 64.1 35.1-6.6 77.6-14.5 117.8-21.9l-35.3-28.4 58 24.3c14.9-2.7 33.4-5.3 46.2-7.7L89.7 275.6l185.3 81L84.5 206.4l284.8 125.3 96.3-19.4-62 34.1 36 14.4-124.9 12.6 62.6 27.4 96.3-19.4-62 35.5 36 14.4-122 12.7 59.7 26 96.3-19.4-60.6 34.2 34.6 15.8-340.8 40c59.7 47.3 137.2 72.4 219 64C500.3 587.7 621.6 439 604.6 272.4z"></path><path d="M17.9 405.8c7.7 21.5 17.7 41.7 29.8 60.5 53.1-11.4 116.1-24.6 162.2-33l-53-41.8-139 14.3z"></path></svg>