<svg data-name="Layer 1" xmlns="http://www.w3.org/2000/svg" viewBox="0 0 615.66 573.3"><path d="M224.54 391.75c.27 1.57.44 3.17.44 4.82 0 15.78-12.79 28.57-28.57 28.57s-28.57-12.79-28.57-28.57S180.63 368 196.41 368c6.95 0 13.32 2.49 18.27 6.62l59.51-34.38c-26.88-40.07-72.58-66.45-124.45-66.45C67.05 273.8 0 340.84 0 423.55S67.05 573.3 149.75 573.3 299.5 506.25 299.5 423.55c0-23.77-5.56-46.24-15.42-66.2l-59.54 34.4ZM465.91 273.8c-51.87 0-97.57 26.38-124.45 66.45l59.49 34.37c4.95-4.12 11.31-6.61 18.26-6.61 15.78 0 28.56 12.79 28.56 28.57s-12.79 28.57-28.56 28.57-28.57-12.79-28.57-28.57c0-1.65.17-3.26.44-4.84l-59.52-34.38c-9.86 19.96-15.42 42.43-15.42 66.2 0 82.71 67.05 149.75 149.75 149.75s149.75-67.05 149.75-149.75-67.05-149.75-149.75-149.75ZM336.39 203.6c0 12.3-7.79 22.75-18.68 26.77v68.77c78.1-5.09 139.87-70.01 139.87-149.39S390.54 0 307.83 0 158.08 67.05 158.08 149.75s61.78 144.3 139.87 149.39v-68.77c-10.9-4.02-18.68-14.48-18.68-26.77 0-15.78 12.79-28.57 28.57-28.57s28.56 12.79 28.56 28.57Z"></path></svg>