<svg xmlns="http://www.w3.org/2000/svg" width="642" viewBox="0 0 642 642" height="642" data-name="Layer 1"><path d="M0 0v642h642V0H0Zm451.14 297.09C442.07 233.25 387.35 184.1 321 184.1s-121.08 49.15-130.14 112.99H67.15L321 43.24l253.85 253.85H451.14Zm-37.05 38.52v267.87H227.91V335.61h186.18Zm-184.31-38.52c8.63-42.49 46.19-74.47 91.22-74.47s82.59 31.98 91.22 74.47H229.78Zm373.7-25.85L370.75 38.52h232.73v232.72ZM271.24 38.52 38.52 271.24V38.52h232.73ZM38.52 603.48V335.61h59.39v267.87H38.52Zm97.9-267.87h52.97v267.87h-52.97V335.61Zm316.19 267.87V335.61h52.97v267.87h-52.97Zm91.48 0V335.61h59.39v267.87h-59.39Z"></path></svg>