<svg data-name="Layer 1" xmlns="http://www.w3.org/2000/svg" viewBox="0 0 618.04 442.17"><path d="m618.04 133.24-3.03-3.03-175.86 175.86-18.65-18.65 175.86-175.86-3.03-3.03-175.86 175.86-18.65-18.65L574.68 89.88l-3.03-3.03-175.86 175.86-18.65-18.65L553 68.2l-3.03-3.03-175.86 175.86-18.65-18.65L531.34 46.54l-3.03-3.03-175.86 175.86-18.65-18.65L509.66 24.87l-3.03-3.03L330.77 197.7l-18.65-18.65L487.99 3.19 484.96.16 309.1 176.02 133.07 0l-3.03 3.03 176.03 176.03-18.65 18.65L111.4 21.67l-3.03 3.03L284.4 200.73l-18.65 18.65L89.72 43.35l-3.03 3.03 176.03 176.03-18.65 18.65L68.05 65.02l-3.03 3.03 176.03 176.03-18.65 18.65L46.37 86.7l-3.03 3.03 176.03 176.03-18.65 18.65L24.7 108.37l-3.03 3.03L197.7 287.43l-18.65 18.65L3.03 130.04 0 133.07l309.1 309.1 308.94-308.93ZM414.45 287.43l-18.65 18.65-18.65-18.65 18.65-18.65 18.65 18.65ZM306.08 309.1l-18.65 18.65-18.65-18.65 18.65-18.65 18.65 18.65Zm-15.62-21.67 18.65-18.65 18.65 18.65-18.65 18.65-18.65-18.65Zm18.65 24.7 18.65 18.65-18.65 18.65-18.65-18.65 18.65-18.65Zm3.03-3.03 18.65-18.65 18.65 18.65-18.65 18.65-18.65-18.65Zm21.67-21.67 18.65-18.65 18.65 18.65-18.65 18.65-18.65-18.65Zm-3.03-3.03-18.65-18.65 18.65-18.65 18.65 18.65-18.65 18.65Zm-21.67-21.67-18.65-18.65 18.65-18.65 18.65 18.65-18.65 18.65Zm-3.03 3.03-18.65 18.65-18.65-18.65 18.65-18.65 18.65 18.65Zm-21.67 21.67-18.65 18.65-18.65-18.65 18.65-18.65 18.65 18.65Zm-21.68 21.68-18.65 18.65-18.65-18.65 18.65-18.65 18.65 18.65Zm3.03 3.03 18.65 18.65-18.65 18.65-18.65-18.65 18.65-18.65Zm21.67 21.67 18.65 18.65-18.65 18.65-18.65-18.65 18.65-18.65Zm21.68 21.68 18.65 18.65-18.65 18.65-18.65-18.65 18.65-18.65Zm3.03-3.03 18.65-18.65 18.65 18.65-18.65 18.65-18.65-18.65Zm21.68-21.68 18.65-18.65 18.65 18.65-18.65 18.65-18.65-18.65Zm21.67-21.67 18.65-18.65 18.65 18.65-18.65 18.65-18.65-18.65Zm37.3-43.35-18.65 18.65-18.65-18.65 18.65-18.65 18.65 18.65Zm-21.68-21.68-18.65 18.65-18.65-18.65 18.65-18.65 18.65 18.65Zm-21.67-21.67-18.65 18.65-18.65-18.65 18.65-18.65 18.65 18.65Zm-40.32-40.32 18.65 18.65-18.65 18.65-18.65-18.65 18.65-18.65Zm-21.67 21.67 18.65 18.65-18.65 18.65-18.65-18.65 18.65-18.65Zm-21.68 21.68 18.65 18.65-18.65 18.65-18.65-18.65 18.65-18.65Zm-21.67 21.67 18.65 18.65-18.65 18.65-18.65-18.65 18.65-18.65Zm-21.67 21.67 18.65 18.65-18.65 18.65-18.65-18.65 18.65-18.65Zm-40.32 40.32 18.65-18.65 18.65 18.65-18.65 18.65-18.65-18.65Zm21.68 21.68 18.65-18.65 18.65 18.65-18.65 18.65-18.65-18.65Zm21.68 21.68 18.65-18.65 18.65 18.65-18.65 18.65-18.65-18.65Zm21.67 21.67 18.65-18.65 18.65 18.65-18.65 18.65-18.65-18.65Zm21.68 21.68 18.65-18.65 18.65 18.65-18.65 18.65-18.65-18.65Zm40.32 40.32-18.65-18.65 18.65-18.65 18.65 18.65-18.65 18.65Zm21.67-21.67-18.65-18.65 18.65-18.65 18.65 18.65-18.65 18.65Zm21.68-21.68-18.65-18.65 18.65-18.65 18.65 18.65-18.65 18.65Zm21.68-21.68-18.65-18.65 18.65-18.65 18.65 18.65-18.65 18.65Zm21.67-21.67-18.65-18.65 18.65-18.65 18.65 18.65-18.65 18.65Zm21.68-21.68-18.65-18.65 18.65-18.65 18.65 18.65-18.65 18.65Z"></path></svg>