<svg xmlns="http://www.w3.org/2000/svg" id="a" width="642" viewBox="0 0 642 617.32" height="617.32" data-name="Layer 1"><defs></defs><path d="M269.79 256.58c-11.29-5.99-15.6-20-9.61-31.3L333 87.93c5.99-11.3 20-15.59 31.3-9.61 11.29 5.99 15.6 20 9.61 31.3l-72.82 137.35c-5.99 11.29-19.98 15.6-31.3 9.61ZM227.88 364.43c-9.19 8.89-23.84 8.65-32.73-.53L87.02 252.2c-8.89-9.19-8.65-23.84.54-32.74 9.19-8.89 23.84-8.65 32.73.53l108.13 111.7c8.88 9.19 8.66 23.82-.54 32.74ZM316.68 435.49c5.61 11.48.86 25.35-10.62 30.97l-139.65 68.32c-11.49 5.62-25.35.86-30.97-10.63-5.61-11.48-.86-25.35 10.62-30.97l139.65-68.32c11.48-5.61 25.34-.88 30.97 10.63ZM409.57 372.47c12.66-1.79 24.37 7.01 26.17 19.67l21.82 153.93c1.79 12.66-7.02 24.37-19.68 26.17-12.66 1.79-24.37-7.01-26.17-19.67l-21.82-153.93c-1.79-12.65 6.99-24.37 19.68-26.17ZM379.57 260.46c2.21-12.59 14.2-21.01 26.8-18.81l153.13 26.82c12.6 2.21 21.01 14.21 18.81 26.8-2.21 12.59-14.2 21.01-26.8 18.81l-153.13-26.82c-12.59-2.21-21.01-14.18-18.81-26.8ZM225 213.04c-11.29-5.99-15.6-20-9.61-31.29l89.83-169.44c5.99-11.3 20-15.6 31.3-9.61 11.29 5.99 15.6 20 9.61 31.29L256.3 203.43c-6 11.31-20 15.59-31.3 9.61ZM311.48 305.96c-11.29-5.99-15.6-20-9.61-31.29l58.91-111.12c5.99-11.3 20-15.6 31.3-9.61 11.29 5.99 15.6 20 9.61 31.29l-58.91 111.12c-6 11.31-20 15.59-31.3 9.61ZM172.64 393.57c-9.18 8.89-23.84 8.65-32.73-.53L6.52 255.25c-8.89-9.19-8.65-23.84.53-32.74 9.18-8.89 23.84-8.65 32.73.53l133.39 137.79c8.9 9.2 8.65 23.84-.53 32.74ZM287.73 340.04c-9.18 8.89-23.84 8.65-32.73-.53l-87.47-90.36c-8.89-9.19-8.66-23.84.53-32.74 9.18-8.89 23.84-8.65 32.73.53l87.47 90.36c8.9 9.2 8.65 23.84-.53 32.74ZM327.33 497.03c5.62 11.48.86 25.35-10.62 30.97l-172.27 84.28c-11.49 5.62-25.35.86-30.97-10.62-5.62-11.48-.86-25.35 10.62-30.97l172.27-84.28c11.5-5.62 25.35-.86 30.97 10.62ZM311.98 371.03c5.62 11.48.86 25.35-10.62 30.97l-112.97 55.27c-11.49 5.62-25.35.87-30.97-10.62-5.62-11.48-.86-25.35 10.62-30.97l112.97-55.27c11.5-5.62 25.35-.86 30.97 10.62ZM471.39 381.36c12.65-1.79 24.37 7.01 26.17 19.67l26.92 189.88c1.79 12.66-7.01 24.38-19.67 26.17-12.65 1.79-24.37-7.01-26.17-19.67l-26.92-189.88c-1.79-12.68 7.02-24.37 19.67-26.17ZM346.81 357.02c12.65-1.79 24.37 7.01 26.17 19.67l17.65 124.52c1.79 12.66-7.01 24.37-19.67 26.17-12.65 1.79-24.37-7.01-26.17-19.67l-17.65-124.52c-1.79-12.68 7.02-24.37 19.67-26.17ZM407.14 204.42c2.2-12.59 14.2-21.01 26.79-18.81l188.91 33.07c12.6 2.21 21.02 14.2 18.81 26.8-2.2 12.59-14.2 21.01-26.79 18.81l-188.91-33.07c-12.61-2.21-21.01-14.2-18.81-26.8ZM345.49 315.38c2.2-12.59 14.2-21.01 26.79-18.81l123.88 21.69c12.6 2.21 21.01 14.2 18.81 26.8-2.2 12.59-14.2 21.01-26.79 18.81L364.3 342.18c-12.61-2.21-21.01-14.2-18.81-26.8Z" class="b"></path></svg>