<svg xmlns="http://www.w3.org/2000/svg" width="642" viewBox="0 0 642 317.8" height="317.8" style="overflow:visible;enable-background:new 0 0 642 317.8" xml:space="preserve"><path d="m128.1 156.2-27.4-87.1c-.2-.7-1.5-3.9-1.5-9.1 0-15.9 12.9-28.9 28.9-28.9S157 44.1 157 60c0 5.2-1.3 8.4-1.5 9.1l-27.4 87.1zM125.9 157.1 45 114.9c-.6-.4-3.8-1.7-7.4-5.4-11.3-11.3-11.3-29.6 0-40.9s29.6-11.3 40.9 0c3.7 3.7 5 6.9 5.4 7.4l42 81.1zM125 159.3l-87.1 27.4c-.7.2-3.9 1.5-9.1 1.5C13 188.2 0 175.3 0 159.3c0-16 13-28.9 28.9-28.9 5.2 0 8.4 1.3 9.1 1.5l87 27.4zM125.9 161.5l-42.2 80.9c-.4.6-1.7 3.8-5.4 7.4-11.3 11.3-29.6 11.3-40.9 0s-11.3-29.6 0-40.9c3.7-3.7 6.9-5 7.4-5.4l81.1-42zM128.1 162.4l27.4 87.1c.2.7 1.5 3.9 1.5 9.1 0 15.9-12.9 28.9-28.9 28.9s-28.9-13-28.9-28.9c0-5.2 1.3-8.4 1.5-9.1l27.4-87.1zM130.3 161.5l80.9 42.2c.6.4 3.8 1.7 7.4 5.4 11.3 11.3 11.3 29.6 0 40.9-11.3 11.3-29.6 11.3-40.9 0-3.7-3.7-5-6.9-5.4-7.4l-42-81.1zM131.2 159.3l87.1-27.4c.7-.2 3.9-1.5 9.1-1.5 15.9 0 28.9 12.9 28.9 28.9s-13 28.9-28.9 28.9c-5.2 0-8.4-1.3-9.1-1.5l-87.1-27.4zM130.3 157.1l42.2-80.9c.4-.6 1.7-3.8 5.4-7.4 11.3-11.3 29.6-11.3 40.9 0 11.3 11.3 11.3 29.6 0 40.9-3.7 3.7-6.9 5-7.4 5.4l-81.1 42z"></path><path d="M109.1 0v13.6h19c80.4 0 145.7 65.2 145.7 145.7S208.5 305 128.1 305h-19v12.8h388.4V305h-13.6V13.6c80.4 0 145.7 65.2 145.7 145.7H642V0H109.1zm229.3 163.7h8c69.1 0 125.2 56 125.2 125.2v15.5c-73.2-6.2-131-66.4-133.2-140.7zM471.6 28.9c0 69.1-56 125.2-125.2 125.2h-8C341 80.2 398.6 20.3 471.6 14.2v14.7z"></path></svg>