<svg data-name="Layer 1" xmlns="http://www.w3.org/2000/svg" viewBox="0 0 601.21 618.72"><path d="M251.27 350.27c-.62 13.81-2.05 27.4-4.22 40.74 17.04-4.77 34.99-7.37 53.56-7.37s36.52 2.61 53.56 7.37c-2.17-13.35-3.61-26.93-4.23-40.74-16.06 2.65-32.53 4.1-49.34 4.1s-33.28-1.45-49.34-4.1ZM4.89 0C1.74 17.45 0 35.4 0 53.76c0 149.21 108.73 272.96 251.27 296.51.24-5.26.4-10.55.4-15.87C251.67 177.06 147.8 44 4.89 0ZM601.21 53.76c0-18.36-1.73-36.31-4.89-53.76-142.91 44-246.78 177.05-246.78 334.39 0 5.32.17 10.61.4 15.87 142.54-23.55 251.27-147.3 251.27-296.51ZM102.12 582.12c0 12.51 1.21 24.73 3.42 36.6 73.89-53.04 126.26-134.11 141.5-227.71-83.59 23.38-144.92 100.06-144.92 191.11ZM495.67 618.72c2.21-11.87 3.42-24.09 3.42-36.6 0-91.05-61.34-167.73-144.92-191.11 15.23 93.6 67.6 174.67 141.5 227.71Z"></path></svg>