<svg data-name="Layer 1" xmlns="http://www.w3.org/2000/svg" viewBox="0 0 422.49 583.38"><path d="M323.9 192.6c-36.51 0-68.39 19.9-85.58 49.37h-51.27l25.89-43.77C344.41 192.78 344.4 5.44 212.96.01c-74.45-1.03-123.65 83-86.6 147.14l-26.9 45.46C44.7 192.34-.01 236.95 0 291.69c1.1 101.54 133.88 136.11 184.67 49.73h51.27l-25.89 43.77c-131.47 5.42-131.46 192.76-.02 198.19 74.45 1.03 123.65-83 86.6-147.14l26.9-45.46c131.74-4.99 132.05-192.67.37-198.17Zm-185.58-45.51c-38.28-57.46 5.35-137.74 74.64-136.81 48.98 0 88.83 39.85 88.83 88.83.33 51.05-44.27 92.19-94.53 88.54l-27.57 46.6c-15.81-22.12-40.44-37.48-68.75-40.88l27.38-46.28Zm40.24 184.06c-41.82 83.01-167.15 54.58-168.3-39.46 1.21-94.02 126.49-122.29 168.3-39.46h54.49c-10.9 23.91-10.9 55.01 0 78.92h-54.49Zm120.3 153.13c-4.87 117.82-172.79 117.83-177.66 0-.33-51.05 44.27-92.19 94.53-88.54 46.73 2.79 83.27 42.56 83.13 88.54Zm30.9-104.05c-3.94.37-7.98.36-11.92 0-3.78 6.38-23.23 39.27-27.42 46.35-15.88-22.06-40.55-37.36-68.88-40.66 4.38-7.41 23.54-39.78 27.53-46.53-37.68-57.44 5.01-137.04 74.82-136.52 114.24 4.16 119.29 165.89 5.87 177.36Z"></path></svg>