<svg xmlns="http://www.w3.org/2000/svg" width="627.1" viewBox="0 0 627.1 624" height="624" xml:space="preserve" style="enable-background:new 0 0 627.1 624"><path d="M627.1 80.6 546.6 0h-98.2v398.7c0 25.4-20.6 46-46 46H0v100.5L78.9 624v-99.9H441c51.7 0 93.7-41.9 93.7-93.7V80.6h92.4zM78.9 111.2c0-16.9 13.7-30.6 30.7-30.6h154.1L183 0h-72.4C49.5 0 0 49.6 0 110.7v73.8l78.9 80.9V111.2z"></path><path d="M78.9 345.9h233.3c18.8 0 34-15.2 34-34V80.6h102.2L367.8 0H263.6v265.3H0v100.5l78.9 78.9v-98.8z"></path></svg>