<svg width="642" viewBox="0 0 642 569" height="569" xmlns="http://www.w3.org/2000/svg"><path d="M642 .146v568.462H0V.146h642ZM592.473 485.73h-13.005c-4.793 0-8.672 3.942-8.672 8.798v25.594c0 4.856 3.88 8.797 8.672 8.797h13.005c4.787 0 8.672-3.94 8.672-8.797v-25.594c0-4.856-3.885-8.798-8.672-8.798Zm-75.87 0h-13.01c-4.785 0-8.67 3.942-8.67 8.798v25.594c0 4.856 3.885 8.797 8.67 8.797h13.01c4.785 0 8.67-3.94 8.67-8.797v-25.594c0-4.856-3.885-8.798-8.67-8.798Zm-75.875 0h-13.005c-4.793 0-8.672 3.942-8.672 8.798v25.594c0 4.856 3.879 8.797 8.672 8.797h13.005c4.787 0 8.672-3.94 8.672-8.797v-25.594c0-4.856-3.885-8.798-8.672-8.798Zm-75.871 0h-13.009c-4.786 0-8.67 3.942-8.67 8.798v25.594c0 4.856 3.884 8.797 8.67 8.797h13.009c4.786 0 8.67-3.94 8.67-8.797v-25.594c0-4.856-3.884-8.798-8.67-8.798Zm-74.707 0h-13.005c-4.793 0-8.672 3.942-8.672 8.798v25.594c0 4.856 3.879 8.797 8.672 8.797h13.005c4.787 0 8.672-3.94 8.672-8.797v-25.594c0-4.856-3.885-8.798-8.672-8.798Zm-75.871 0H201.27c-4.786 0-8.67 3.942-8.67 8.798v25.594c0 4.856 3.884 8.797 8.67 8.797h13.009c4.786 0 8.67-3.94 8.67-8.797v-25.594c0-4.856-3.884-8.798-8.67-8.798Zm-75.873 0h-13.008c-4.786 0-8.67 3.942-8.67 8.798v25.594c0 4.856 3.884 8.797 8.67 8.797h13.008c4.786 0 8.67-3.94 8.67-8.797v-25.594c0-4.856-3.884-8.798-8.67-8.798Zm-75.873 0H49.525c-4.786 0-8.67 3.942-8.67 8.798v25.594c0 4.856 3.884 8.797 8.67 8.797h13.008c4.786 0 8.67-3.94 8.67-8.797v-25.594c0-4.856-3.884-8.798-8.67-8.798Zm552.62-381.698H28.015v359.52h587.138v-359.52ZM320.997 187.22c53.51 0 96.887 43.367 96.887 96.865s-43.377 96.859-96.887 96.859c-53.504 0-96.88-43.361-96.88-96.859s43.376-96.865 96.88-96.865ZM592.473 39.833h-13.005c-4.793 0-8.672 3.942-8.672 8.798v25.593c0 4.857 3.88 8.798 8.672 8.798h13.005c4.787 0 8.672-3.941 8.672-8.798V48.631c0-4.856-3.885-8.798-8.672-8.798Zm-75.87 0h-13.01c-4.785 0-8.67 3.942-8.67 8.798v25.593c0 4.857 3.885 8.798 8.67 8.798h13.01c4.785 0 8.67-3.941 8.67-8.798V48.631c0-4.856-3.885-8.798-8.67-8.798Zm-75.875 0h-13.005c-4.793 0-8.672 3.942-8.672 8.798v25.593c0 4.857 3.879 8.798 8.672 8.798h13.005c4.787 0 8.672-3.941 8.672-8.798V48.631c0-4.856-3.885-8.798-8.672-8.798Zm-75.871 0h-13.009c-4.786 0-8.67 3.942-8.67 8.798v25.593c0 4.857 3.884 8.798 8.67 8.798h13.009c4.786 0 8.67-3.941 8.67-8.798V48.631c0-4.856-3.884-8.798-8.67-8.798Zm-74.707 0h-13.005c-4.793 0-8.672 3.942-8.672 8.798v25.593c0 4.857 3.879 8.798 8.672 8.798h13.005c4.787 0 8.672-3.941 8.672-8.798V48.631c0-4.856-3.885-8.798-8.672-8.798Zm-75.871 0H201.27c-4.786 0-8.67 3.942-8.67 8.798v25.593c0 4.857 3.884 8.798 8.67 8.798h13.009c4.786 0 8.67-3.941 8.67-8.798V48.631c0-4.856-3.884-8.798-8.67-8.798Zm-75.873 0h-13.008c-4.786 0-8.67 3.942-8.67 8.798v25.593c0 4.857 3.884 8.798 8.67 8.798h13.008c4.786 0 8.67-3.941 8.67-8.798V48.631c0-4.856-3.884-8.798-8.67-8.798Zm-75.873 0H49.525c-4.786 0-8.67 3.942-8.67 8.798v25.593c0 4.857 3.884 8.798 8.67 8.798h13.008c4.786 0 8.67-3.941 8.67-8.798V48.631c0-4.856-3.884-8.798-8.67-8.798Z"></path></svg>