<svg data-name="Layer 1" xmlns="http://www.w3.org/2000/svg" viewBox="0 0 302.17 600.84"><path d="M302.17 154.47H200.02c-1.73 25.53-22.92 45.71-48.89 45.71s-49.06-21.96-49.06-49.06 21.96-49.06 49.06-49.06 47.16 20.19 48.89 45.71h102.15C300.38 65.87 233.47 0 151.13 0S0 67.66 0 151.13c0 75.45 55.3 137.98 127.58 149.29C56.34 311.53 1.61 372.4 0 446.37h102.15c1.73-25.53 22.92-45.71 48.89-45.71s49.06 21.96 49.06 49.06-21.96 49.06-49.06 49.06-47.16-20.19-48.89-45.71H0c1.79 81.91 68.7 147.78 151.04 147.78s151.13-67.66 151.13-151.13c0-75.45-55.3-137.98-127.58-149.29 71.24-11.11 125.96-71.98 127.58-145.95Z"></path></svg>