<svg data-name="Layer 1" xmlns="http://www.w3.org/2000/svg" viewBox="0 0 609.55 622.23"><path d="M549.75 308.85c35.89-34.73 55.73-82.7 54.69-132.91C602.44 78.93 520.08 0 420.82 0H0v622.23h429.82c99.1 0 179.72-80.62 179.72-179.72 0-51.31-21.69-99.54-59.8-133.66ZM420.82 45.92c25 0 48.5 6.75 68.84 18.29L380.78 211.14v-32.79c0-48.37-39.35-87.72-87.71-87.72s-87.72 39.35-87.72 87.72v37.15c0 28.16 11.64 55.51 31.94 75.04l81.35 78.25c11.8 11.35 18.57 27.25 18.57 43.64v37.15c0 24.34-19.8 44.15-44.14 44.15s-44.15-19.81-44.15-44.15v-36.64c0-19.21-11.8-35.5-30.04-41.51-18.24-6-37.41.09-48.82 15.54L45.93 554.92v-509h374.89Zm9.01 530.39H84.33l121.01-163.39v36.64c0 48.37 39.36 87.72 87.72 87.72s87.71-39.35 87.71-87.72v-37.15c0-28.17-11.64-55.52-31.94-75.04l-81.35-78.25c-11.8-11.35-18.57-27.25-18.57-43.63v-37.15c0-24.34 19.8-44.15 44.15-44.15S337.2 154 337.2 178.34v32.79c0 19.21 11.8 35.5 30.04 41.51 18.23 6 37.4-.08 48.82-15.54L523.78 91.37c20.96 22.97 34.07 52.83 34.74 85.51.82 39.46-15.7 77.07-45.3 103.19-8.54 7.54-13.3 18.41-13.07 29.84.22 11.32 5.35 21.89 14.07 28.98 31.38 25.56 49.39 63.32 49.39 103.61 0 73.78-60.02 133.8-133.8 133.8Z"></path></svg>