<svg id="Layer_1" data-name="Layer 1" xmlns="http://www.w3.org/2000/svg" viewBox="0 0 601.67 627.42"><defs></defs><path class="cls-1" d="M594.1 101.22V0H405.33c-59.8 0-108.27 48.48-108.27 108.27v77.2h212.79c46.53 0 84.26-37.72 84.26-84.26ZM421.66 267.4c-55.11 0-104.41 24.8-137.43 63.81 8.08-12.93 12.82-28.15 12.82-44.52V185.47H108.27C48.48 185.47 0 233.95 0 293.75v77.2h212.79c24.21 0 45.96-10.26 61.33-26.61-20.44 29.2-32.47 64.72-32.47 103.07 0 99.42 80.59 180.01 180.01 180.01s180.01-80.59 180.01-180.01S521.08 267.4 421.66 267.4Z"></path></svg>