<svg xmlns="http://www.w3.org/2000/svg" id="a" width="642" viewBox="0 0 642 642" height="642" data-name="Layer 1"><defs></defs><path d="M400.09 48.15a325.887 325.887 0 0 0-79.03 46.42c-23.95-19-50.53-34.73-79.16-46.48C256.67 19.52 286.59 0 321 0s64.33 19.58 79.09 48.15ZM0 321c0 173.53 137.68 315.08 309.77 321v-40.12c0-170.65-139.32-309.06-309.77-309.77V321ZM642 321c0 173.53-137.68 315.08-309.77 321v-40.12c0-170.64 139.31-309.06 309.77-309.76v28.89Z" class="b"></path><path d="M321 473.47c39.97-99.82 125.14-176.66 230.21-205.17 16.51-4.48 28.19-20.32 28.19-38.32v-75.53c-103.46 4.75-195.11 54.74-255.63 130.65a3.527 3.527 0 0 1-5.55 0C257.7 209.19 166.04 159.2 62.59 154.45v75.53c0 18.01 11.68 33.84 28.19 38.32 105.07 28.51 190.25 105.35 230.21 205.17Z" class="b"></path><path d="M321 246.54c38.27-41.19 85.68-73.75 139.03-94.44 14.98-6.33 25.49-21.17 25.49-38.45V50.79c-61.69 8.14-117.56 34.72-161.9 74.02a3.913 3.913 0 0 1-5.22 0c-44.34-39.3-100.21-65.88-161.9-74.02v62.86c0 17.29 10.51 32.12 25.49 38.45 53.34 20.69 100.76 53.26 139.03 94.44Z" class="b"></path></svg>