<svg data-name="Layer 1" xmlns="http://www.w3.org/2000/svg" viewBox="0 0 622.44 426.95"><path d="M506.71 0c-41.08 0-77.21 21.53-97.75 53.89C388.42 21.53 352.3 0 311.22 0s-77.21 21.53-97.75 53.89C192.93 21.53 156.81 0 115.73 0 51.91 0 0 51.91 0 115.73s51.91 115.73 115.73 115.73c30.9 0 58.99-12.2 79.77-32v111.77c0 63.81 51.91 115.73 115.73 115.73s115.73-51.92 115.73-115.73V199.47c20.78 19.8 48.87 32 79.77 32 63.81 0 115.73-51.91 115.73-115.73S570.53 0 506.71 0ZM311.22 35.96c43.98 0 79.76 35.78 79.76 79.77s-35.78 79.77-79.76 79.77-79.77-35.78-79.77-79.77 35.78-79.77 79.77-79.77Zm79.76 163.5v28.03c-5.49-5.23-11.49-9.93-17.92-14.02 6.43-4.08 12.43-8.78 17.92-14.02Zm-159.53 0c5.49 5.24 11.49 9.94 17.93 14.02-6.43 4.08-12.44 8.78-17.93 14.02v-28.04Zm-115.73-3.96c-43.98 0-79.77-35.78-79.77-79.77s35.79-79.77 79.78-79.77 79.77 35.78 79.77 79.77-35.78 79.77-79.77 79.77Zm195.49 195.49c-43.98 0-79.77-35.78-79.77-79.77s35.78-79.77 79.77-79.77 79.76 35.78 79.76 79.77-35.78 79.77-79.76 79.77ZM506.7 195.5c-43.98 0-79.77-35.78-79.77-79.77s35.78-79.77 79.77-79.77 79.77 35.78 79.77 79.77-35.78 79.77-79.77 79.77Z"></path><circle cx="311.22" cy="311.22" r="25.21"></circle><circle cx="311.22" cy="115.73" r="25.21"></circle><circle cx="115.73" cy="115.73" r="25.21"></circle><circle cx="506.71" cy="115.73" r="25.21"></circle></svg>