<svg xmlns="http://www.w3.org/2000/svg" id="a" width="642" viewBox="0 0 642 642" height="642" data-name="Layer 1"><defs></defs><path d="M589.88 449.07c-8.32 99.04-86.6 180.06-185.33 191.48-88.65 10.26-168.21-34.9-208.41-105.28H0v-48.15l176.1.03h26.78c10.66 0 20.56 5.96 25.13 15.59 29.35 61.76 95.45 102.87 169.8 94.95 78.68-8.38 141.73-72.52 148.79-151.33 3.07-34.25-4.18-66.57-19.02-94.35-1.16-2.05-2.25-4.04-3.47-6.03.96-1.61 1.86-3.21 2.76-4.88 14.95-28.07 22.12-60.8 18.77-95.36-7.56-77.91-69.75-141.2-147.54-149.95-101.14-11.37-187.03 67.78-187.03 166.67v50.53h-43.4v-46.32c0-118.11 96.65-217.27 214.74-215.26 114.72 1.95 207.44 95.88 207.44 211.06 0 29.53-6.16 57.72-17.14 83.33 13.77 31.22 20.25 66.31 17.15 103.29Z" class="b"></path><path d="M539.27 432.5c-.84 86.25-76.1 159.52-162.34 158.12-62.11-1-115.73-37.68-141.22-90.4-6.16-12.73-18.71-21.13-32.85-21.13H0v-48.15l219.89-.03h7.24c18.94 0 35.25 12.84 40.31 31.09 14.73 53.14 66.28 91.1 125.29 84.57 53.37-5.9 96.46-48.94 102.47-102.3 4.09-36.39-8.78-70.05-31.86-93.93a59.22 59.22 0 0 0-4.04-4.04c1.61-1.48 3.08-3.02 4.56-4.62 19.45-20.8 31.27-48.66 31.27-79.22 0-64.2-52.19-116.39-116.33-116.39s-116.33 52.19-116.33 116.39v50.53h-43.4v-46.9c0-89.37 73.13-164.86 162.49-163.34 86.82 1.48 156.97 72.54 156.97 159.71 0 30.62-8.73 59.26-23.75 83.59 15.8 25.01 24.83 54.73 24.52 86.46Z" class="b"></path><path d="M642 263.22c0 19.84-2.18 39.23-6.42 57.78h-45.65c5.14-18.68 7.9-38.33 7.9-58.55 0-120.82-98.23-219.11-219.05-219.11s-219.05 98.29-219.05 219.11V321h110.68c32.36 0 58.61-26.26 58.61-58.55 0-27.48 22.34-49.82 49.76-49.82s49.76 22.34 49.76 49.82-21.51 49.76-48.98 49.76c-19 0-34.48 15.41-34.48 34.48s15.47 34.54 34.48 34.54c27.48 0 49.82 22.28 49.82 49.69s-22.34 49.82-49.82 49.82-49.69-22.34-49.69-49.82c0-29.21-23.75-52.97-53.03-52.97H115.56V263.22C115.56 118.06 233.62 0 378.78 0S642 118.06 642 263.22Z" class="b"></path></svg>