<svg data-name="Layer 1" xmlns="http://www.w3.org/2000/svg" viewBox="0 0 629.64 629.64"><path d="m314.82 285.23 83.54-83.54c46.14-46.14 46.14-120.94 0-167.08-46.14-46.14-120.94-46.14-167.08 0-46.14 46.14-46.14 120.94 0 167.08l83.54 83.54ZM595.03 231.28c-46.14-46.14-120.94-46.14-167.08 0l-83.54 83.54 83.54 83.54c46.14 46.14 120.94 46.14 167.08 0s46.14-120.94 0-167.08ZM314.82 344.41l-83.54 83.54c-46.14 46.14-46.14 120.94 0 167.08 46.14 46.14 120.94 46.14 167.08 0 46.14-46.14 46.14-120.94 0-167.08l-83.54-83.54ZM285.23 314.82l-83.54-83.54c-46.14-46.14-120.94-46.14-167.08 0-46.14 46.14-46.14 120.94 0 167.08 46.14 46.14 120.94 46.14 167.08 0l83.54-83.54Z"></path></svg>