<svg data-name="Layer 1" xmlns="http://www.w3.org/2000/svg" viewBox="0 0 599.98 599.97"><path d="M599.8 292.94 320.47 481.08c-57.35 38.63-135.88 23.31-174.5-34.04-14.37-21.34-21.09-45.61-21.12-69.67-.08-1.2-.14-2.46-.14-3.85V248.98H92.27c-9.04 0-16.43-7.4-16.43-16.43s7.39-16.43 16.43-16.43h32.44v-2.95c0-36.7 30.03-66.73 66.73-66.73s66.73 30.03 66.73 66.73v36.72l-43.09 29.02 3.86 5.74L511.67 87.48c-.79-.79-1.61-1.54-2.42-2.3h.02c-.4-.41-.83-.77-1.24-1.16-.5-.47-.99-.95-1.49-1.42h-.02C452.73 31.47 380.07 0 299.99 0 134.31 0 0 134.31 0 299.99s134.31 299.99 299.99 299.99 299.99-134.31 299.99-299.99c0-2.36-.12-4.69-.18-7.04Z"></path><path d="m262.68 345.35 295.11-198.76c-1.18-1.98-2.41-3.94-3.63-5.89L258.65 339.73l4.03 5.62ZM306.65 406.7l281.62-189.67c-.67-2.33-1.3-4.67-2.02-6.98L302.79 400.96l3.86 5.74ZM173.84 213.51c0 9.71 7.87 17.58 17.58 17.58S209 223.22 209 213.51s-7.87-17.58-17.58-17.58-17.58 7.87-17.58 17.58Z"></path></svg>