<svg xmlns="http://www.w3.org/2000/svg" width="623.2" viewBox="0 0 623.2 623.2" height="623.2" xml:space="preserve" style="enable-background:new 0 0 623.2 623.2"><path d="M0 0v623.2h623.2V0H0zm548.9 351.6c-3.4 19.9-9 39-17.4 57.4l-25.3-9.2c-61.5-21.3-125.9-32.1-191.6-32.1-57.9 0-114.8 8.4-169.5 24.9 30.1 61.6 93.5 104.2 166.5 104.2 58.7 0 113.6-27.8 148.5-74.6 16.1 4.5 34.9 10.5 54.6 18.1l-3.7 5.8c-44.9 66.4-119.4 106-199.5 106-132.5.1-240.4-107.8-240.4-240.5C71.1 179 179 71.1 311.6 71.1S552.2 179 552.2 311.7c0 13.4-1.1 26.8-3.3 39.9z"></path><path d="M311.6 126.4c-102.1 0-185.2 83.1-185.2 185.2 0 9.6.7 19 2.1 28.2 60.1-18.2 122.5-27.4 186.1-27.4 61.5 0 122 8.7 180.4 25.8 1.3-8.8 1.9-17.6 1.9-26.5 0-102.2-83.1-185.3-185.3-185.3z"></path></svg>