<svg xmlns="http://www.w3.org/2000/svg" width="625.6" viewBox="0 0 625.6 602" height="602" xml:space="preserve" style="enable-background:new 0 0 625.6 602"><path d="m182.4 57.1.1.2c1 2.3 83.6 143.6 83.6 143.6h95.1S442 61.6 443.1 59l.1-.2c2.2-5 3.5-10.6 3.5-16.5 0-22.5-18.2-40.7-40.7-40.7-16.2 0-30.1 9.5-36.7 23.1l-49 80.7c-1.9 1.9-4.5 3.1-7.4 3.2-3.7 0-6.9-1.9-8.7-4.7L256.3 23c-6.6-13.5-20.6-23-36.7-23-22.5 0-40.7 18.2-40.7 40.7 0 5.9 1.2 11.4 3.5 16.4zM423.7 292.9s161.1.3 163.8 0h.2c5.5-.6 10.9-2.3 16-5.2 19.5-11.2 26.1-36.1 14.9-55.6-8.1-14-23.3-21.3-38.4-20.2l-94.4-2.1c-2.6-.7-5-2.3-6.5-4.9-1.8-3.2-1.8-6.9-.2-9.9l46.1-81.9c8.6-12.5 9.8-29.3 1.7-43.3-11.2-19.5-36.1-26.1-55.6-14.9-5.1 2.9-9.3 6.8-12.5 11.3l-.1.2c-1.5 2-82.5 144.2-82.5 144.2l47.5 82.3zM605.2 315.2c-5.1-2.9-10.5-4.6-16-5.2h-.3c-2.5-.3-166.2.7-166.2.7L375.3 393s80.3 139.6 81.9 141.8l.1.2c3.2 4.4 7.4 8.3 12.5 11.2 19.5 11.2 44.3 4.6 55.6-14.9 8.1-14 6.8-30.8-1.7-43.3l-45.4-82.8c-.7-2.6-.5-5.5 1-8 1.8-3.2 5.1-5 8.5-5.2l94-1.1c15.1 1.1 30.3-6.2 38.4-20.2 11.2-19.4 4.5-44.3-15-55.5zM443.3 544.9l-.1-.2c-1-2.3-83.7-143.6-83.7-143.6h-95.1S183.7 540.5 182.5 543l-.1.2c-2.2 5-3.5 10.6-3.5 16.5 0 22.5 18.2 40.7 40.7 40.7 16.2 0 30.1-9.5 36.7-23.1l49-80.7c1.9-1.9 4.5-3.1 7.4-3.2 3.7 0 6.9 1.9 8.7 4.7l47.9 80.9c6.7 13.6 20.7 23 36.8 23 22.5 0 40.7-18.2 40.7-40.7 0-5.8-1.2-11.4-3.5-16.4zM201.9 309.2s-161.1-.2-163.8.1h-.2c-5.5.6-10.9 2.3-16 5.2C2.5 325.7-4.2 350.6 7.1 370c8.1 14 23.3 21.3 38.4 20.2l94.4 2c2.6.7 5 2.3 6.5 4.9 1.8 3.2 1.8 6.9.3 9.9l-46.1 82c-8.6 12.5-9.8 29.3-1.7 43.3 11.2 19.5 36.1 26.1 55.6 14.9 5.1-2.9 9.3-6.8 12.5-11.3l.1-.2c1.5-2 82.5-144.3 82.5-144.3l-47.7-82.2zM20.4 287c5.1 2.9 10.5 4.6 16 5.2h.3c2.5.3 166.2-.7 166.2-.7l47.5-82.4S170 69.5 168.4 67.3l-.1-.2c-3.2-4.4-7.4-8.3-12.5-11.2-19.5-11.2-44.4-4.5-55.6 14.9-8.1 14-6.8 30.8 1.7 43.3l45.4 82.8c.7 2.6.5 5.5-1 8-1.8 3.2-5.1 5-8.5 5.2l-94 1.1c-15.1-1.1-30.3 6.2-38.4 20.2-11.2 19.5-4.5 44.4 15 55.6z"></path></svg>