<svg data-name="Layer 1" xmlns="http://www.w3.org/2000/svg" viewBox="0 0 623.58 622.04"><path d="M623.58 228.26h-102c-9.68-25.04-23.71-47.92-41.17-67.72 1.69-2.1 2.75-4.69 2.94-7.54h61.71v-4.11H483a13.454 13.454 0 0 0-11.02-10.07V75.81h-4.11v63.01c-2.35.36-4.49 1.33-6.27 2.74a225.282 225.282 0 0 0-68.4-42.04V0h-4.11v97.91c-24.12-8.86-50.16-13.7-77.31-13.7s-53.19 4.84-77.31 13.7V0h-4.11v99.53a225.086 225.086 0 0 0-68.4 42.04 13.376 13.376 0 0 0-6.27-2.74V75.82h-4.11v63.01c-5.4.83-9.72 4.83-11.01 10.07H78.51v4.11h61.71c.19 2.85 1.25 5.44 2.93 7.54-17.46 19.8-31.49 42.68-41.17 67.72H0v4.11h100.41c-8.72 23.95-13.49 49.79-13.49 76.72s4.77 52.77 13.49 76.72H0v4.11h102c10.94 28.29 27.42 53.81 48.13 75.26h-71.6v4.11h73.07v73.07h4.11v-71.61c21.29 20.57 46.62 36.96 74.66 47.9v103.4h4.11V520.28c24.12 8.86 50.16 13.7 77.31 13.7s53.19-4.84 77.31-13.7v101.78h4.11v-103.4a225.168 225.168 0 0 0 67.7-41.44c1.91 1.73 4.3 2.9 6.97 3.31v61.83h4.11v-61.83c5.8-.89 10.35-5.44 11.24-11.24h61.83v-4.11h-61.83a13.39 13.39 0 0 0-3.31-6.97 225.229 225.229 0 0 0 41.67-68.29h102v-4.11H523.18c8.72-23.95 13.49-49.79 13.49-76.72s-4.77-52.77-13.49-76.72h100.41v-4.11Zm-155.7 225.67c-5.8.89-10.35 5.44-11.24 11.24h-63.43v-63.46c5.54-1.3 9.72-6.01 10.28-11.8h64.39v64.01Zm-312.17 11.13v-75.15h74.66v75.26h-74.56l-.11-.11Zm0-299.65c5.8-.89 10.35-5.44 11.24-11.24h63.43v63.11c-5.84.77-10.49 5.22-11.5 10.98h-63.16v-62.84Zm142.02-11.24c.9 5.86 5.54 10.44 11.42 11.26v62.82H245.4c-.98-5.57-5.35-9.94-10.92-10.92v-63.16h63.25Zm91.38 0v63.72c-5.92.48-10.75 4.72-12.05 10.36h-63.8v-62.86c5.72-.96 10.18-5.48 11.06-11.22h64.79Zm0 221.03c-6.03.46-10.97 4.82-12.18 10.61h-63.67v-62.84c5.99-.92 10.63-5.75 11.3-11.83h64.55v64.06Zm-79.96 10.61h-74.67v-74.67h63.37c.67 6.07 5.31 10.9 11.3 11.83v62.84Zm-74.67-141.94c5.76-1.01 10.21-5.66 10.98-11.5h63.69v64.02c-5.61.86-10.09 5.13-11.18 10.66h-63.49v-63.17Zm89.96 63.17c-1.1-5.53-5.57-9.79-11.18-10.66v-64.02h63.53c.53 6.58 5.73 11.78 12.31 12.31v62.36h-64.67Zm-105.63-74.67c.79 6.03 5.53 10.77 11.56 11.56v63.11h-74.66v-74.67h63.1Zm11.56 78.78v74.67h-74.66v-74.67h74.66Zm4.11 78.77h74.67v75.26h-74.67v-75.26Zm78.78 0h63.5c.64 6.49 5.82 11.58 12.35 12.08v63.17h-75.85v-75.26Zm90.08-4.11c-1.08-5.11-5.05-9.13-10.12-10.32v-64.34h63.37c.67 6.07 5.31 10.9 11.3 11.83v62.84h-64.55Zm64.55-89.43c-5.61.86-10.09 5.13-11.18 10.66h-63.49v-62.62c5.65-1.3 9.89-6.13 10.36-12.05h64.31v64.02Zm-64.57-68.12a13.467 13.467 0 0 0-10.1-10.1v-63.98h63.43c.89 5.8 5.44 10.35 11.24 11.24v62.84h-64.57Zm68.67-62.84c1.98-.3 3.83-1 5.43-2.06a221.123 221.123 0 0 1 39.75 64.9h-45.18v-62.84Zm-13.22-20.88c-1.1 1.62-1.82 3.51-2.13 5.53h-63.43v-46.12a221.23 221.23 0 0 1 65.56 40.59Zm-69.66 5.53h-64.79a13.438 13.438 0 0 0-11.06-11.22V88.36c26.66.17 52.21 5.1 75.85 13.97v47.75Zm-79.96-61.68v50.43c-5.88.82-10.52 5.4-11.42 11.26h-63.25v-47.75c23.29-8.74 48.44-13.63 74.67-13.94Zm-78.78 61.68h-63.43c-.31-2.02-1.02-3.91-2.13-5.53a221.181 221.181 0 0 1 65.55-40.59v46.12Zm-84.2 13.28c1.6 1.07 3.45 1.76 5.43 2.06v62.84h-45.17c9.46-23.96 22.99-45.88 39.75-64.9Zm5.43 69.01v74.67H91.08c.24-26.22 5.05-51.37 13.72-74.67h46.8Zm-60.52 78.78h60.52v74.67h-46.8c-8.66-23.3-13.48-48.44-13.72-74.67Zm60.52 78.77v70.84c-19.27-20.35-34.71-44.34-45.18-70.84h45.18Zm8.52 79.36h70.25v44.95c-26.27-10.46-50.05-25.82-70.25-44.95Zm74.36 0h74.67v60.51c-26.23-.31-51.38-5.2-74.67-13.94v-46.57Zm78.78 60.54v-60.54h75.85v46.57c-23.64 8.87-49.19 13.79-75.85 13.97Zm79.96-60.54h63.43c.26 1.71.85 3.3 1.69 4.74a220.843 220.843 0 0 1-65.12 40.21v-44.95Zm83.52-13.66c-1.44-.84-3.03-1.42-4.74-1.69v-64.01h45.18c-9.6 24.3-23.36 46.5-40.44 65.7ZM472 385.8v-62.84c5.99-.92 10.63-5.75 11.3-11.83h49.22c-.24 26.22-5.05 51.37-13.72 74.67H472Zm60.52-78.77h-49.34c-1.1-5.53-5.57-9.79-11.18-10.66v-64.02h46.8c8.66 23.3 13.48 48.45 13.72 74.67Z"></path></svg>