<svg data-name="Layer 1" xmlns="http://www.w3.org/2000/svg" viewBox="0 0 626.82 626.82"><path d="M370.14 503.8h20.6v-20.6h20.6v-20.6h-20.6V442h-20.6v20.6h-20.6v20.6h20.6v20.6z"></path><path d="M313.41 0C140.32 0 0 140.32 0 313.41s140.32 313.41 313.41 313.41S626.82 486.5 626.82 313.41 486.5 0 313.41 0ZM184.23 201.74l98.5 98.5H141.65l-98.5-98.5h141.08ZM43.15 425.09l98.5-98.5h141.08l-98.5 98.5H43.15Zm257.09 60.08-98.5 98.5V442.59l98.5-98.5v141.08Zm0-202.43-98.5-98.5V43.15l98.5 98.5v141.08Zm283.43-81-98.5 98.5H344.09l98.5-98.5h141.08Zm-257.09-60.08 98.5-98.5v141.07l-98.5 98.5V141.65Zm98.5 442.02-98.5-98.5V344.1l98.5 98.5v141.08Zm17.5-158.58-98.5-98.5h141.08l98.5 98.5H442.58Z"></path></svg>