<svg data-name="Layer 1" xmlns="http://www.w3.org/2000/svg" viewBox="0 0 603.47 603.47"><path d="M322.42 97.13h87.12v87.12h-87.12zM290.73 193.93h215.54v87.12H290.73zM419.22 322.42h87.12v87.12h-87.12zM322.42 290.73h87.12v215.54h-87.12zM193.93 419.22h87.12v87.12h-87.12zM97.2 322.42h215.54v87.12H97.2zM97.13 193.93h87.12v87.12H97.13zM193.93 97.2h87.12v215.54h-87.12z"></path><path d="M301.73 0C135.09 0 0 135.09 0 301.73s135.09 301.73 301.73 301.73 301.73-135.09 301.73-301.73S468.38 0 301.73 0Zm0 540.66c-131.96 0-238.93-106.97-238.93-238.93S169.78 62.81 301.73 62.81s238.93 106.97 238.93 238.93-106.97 238.93-238.93 238.93Z"></path></svg>