<svg id="Layer_1" data-name="Layer 1" xmlns="http://www.w3.org/2000/svg" viewBox="0 0 626.28 626.27">   <ellipse cx="179.4" cy="313.14" rx="48" ry="261.02"></ellipse>   <ellipse cx="273.07" cy="313.14" rx="32.62" ry="177.4"></ellipse>   <ellipse cx="341.42" cy="313.14" rx="23.41" ry="127.28"></ellipse>   <path d="M390.57,215.08c-5.04,0-18.03,43.9-18.03,98.05s13,98.05,18.03,98.05,18.03-43.9,18.03-98.05-13-98.05-18.03-98.05Z"></path>   <path d="M313.14,0C140.48,0,0,140.48,0,313.14s140.48,313.14,313.14,313.14,313.14-140.48,313.14-313.14S485.8,0,313.14,0Zm0,618.05c-168.13,0-304.91-136.78-304.91-304.91S145.01,8.23,313.14,8.23s304.91,136.78,304.91,304.91-136.78,304.91-304.91,304.91Z"></path> </svg>