<svg xmlns="http://www.w3.org/2000/svg" width="604.9" viewBox="0 0 604.9 530.5" height="530.5" xml:space="preserve"><path d="M329 206.6c.7-40.2-35.2-93.8-40.7-101.8-.3-.5-1.1-.5-1.4 0-5.5 8-41.4 61.7-40.7 101.8.5 27.6 13.5 44.1 22.8 52.4.7.7 1.9-.3 1.3-1.1-3.4-5.2-6.1-12.4-6.3-22-.4-22.2 18.9-51.7 22.9-57.5.3-.5 1.1-.5 1.4 0 4 5.8 23.3 35.3 22.9 57.5-.2 9.6-3 16.7-6.3 22-.5.8.6 1.8 1.3 1.1 9.4-8.3 22.3-24.8 22.8-52.4z"></path><path d="M221.5 171c-1.2-69.2 58.1-162.2 63.8-171H0v259.2h257.8c-14.6-13.6-35.5-41.2-36.3-88.2zM475.3 0H289.9c5.7 8.8 65 101.8 63.8 171-.8 47-21.6 74.6-36.3 88.3h157.9c71.6 0 129.6-58 129.6-129.6C604.9 58 546.9 0 475.3 0zM0 271.3h237.6s46.8-3.8 46.8 39.2c0 13-3.4 24.5-9.6 35.8-12.9 23.4-36.9 48.6-49.1 80.5-2.8 7.3-4.3 15.2-4.3 23.5 0 36.3 29.4 65.8 65.8 65.8s65.8-29.4 65.8-65.8c0-8.3-1.5-16.2-4.3-23.5-12.2-31.9-36.1-57.1-49.1-80.5-6.3-11.3-9.6-22.8-9.6-35.8 0-43 46.8-39.2 46.8-39.2l138.6-.1c71.6 0 129.6 58 129.6 129.6s-58 129.6-129.6 129.6H0V271.3z"></path></svg>