<svg xmlns="http://www.w3.org/2000/svg" width="642" viewBox="0 0 642 568.17" height="568.17" data-name="Layer_1"><path d="M273.48 562.36a38.134 38.134 0 0 1-20.29 5.81c-15.86 0-29.46-9.64-35.27-23.38l-39.2-94.67c-1.34-3.25-6.18-2.28-6.18 1.23v25.05L25.68 568.17H0V126.55c0-13.21 6.69-24.86 16.88-31.74l138.83-83.46c3.74-2.25 8.12-3.55 12.81-3.55 10.29 0 19.12 6.25 22.91 15.15L326 339.99c1.15 2.71 5.03 2.57 5.99-.21l75.35-218.83a47.598 47.598 0 0 1 21.2-25.72L584.58 5.12c6.88-3.98 15.12-5.88 23.84-4.84C627.86 2.6 642 20.02 642 39.59v439.82l-142.04 88.76h-25.68v-125.5c0-2.52-2.77-4.06-4.91-2.72L273.48 562.36ZM616.32 38.72c0-5.85-3.78-11.29-9.47-12.67-3.38-.82-6.61-.27-9.26 1.21l-123.32 71.2c14.95 5.21 25.68 19.43 25.68 36.15v397.47c0 2.52 2.77 4.06 4.91 2.72l111.45-69.64V38.72ZM474.28 147.94c0-12.62-9.39-23.85-21.97-24.72-10.85-.76-20.28 5.8-23.85 15.23L301.21 508.01c-.98 2.86 2.17 5.37 4.74 3.77l148.88-93.03 19.45-56.5V147.94ZM241.43 534.41c1.82 4.72 6.41 8.08 11.76 8.08s10.21-3.56 11.91-8.5l51.66-150.03L173 45.3c-2.57-6.06-9.91-8.44-15.55-5.06L53 102.94c6.96 2.17 12.61 7.31 15.47 13.94l172.95 417.53ZM50 139.38c-2.12-5.37-7.83-8.94-14.15-7.75-6.04 1.14-10.17 6.85-10.17 13v387.46c0 2.52 2.77 4.06 4.91 2.72l116.27-72.65v-88.95L50 139.38Z"></path></svg>