<svg xmlns="http://www.w3.org/2000/svg" id="a" width="571.38" viewBox="0 0 571.38 642" height="642" data-name="Layer 1"><defs></defs><path d="M131.61 515.53h300.91L306.11 642H0v-84.49c0-30.24 12.13-57.65 31.78-77.62l79.42-79.61H10.08v-31.07c0-28.95 12.2-55.08 31.71-73.51l117.85-117.91.61.51c-13.87 18.96-21.39 43.04-21.39 68.36 0 8.8.96 17.4 2.89 25.68H262.9v-12.49c0-10.91 7.4-20.83 18.1-22.98 14.72-2.97 27.67 8.24 27.67 22.44-.06 7.9-4.11 15.54-11.49 19.77-15.34 8.92-31.39 16.76-47.32 23.56-18.62 7.83-54.83 27.35-54.83 27.35-37.94 21.89-63.43 62.85-63.43 109.78v75.76Z" class="b"></path><path d="M473.35 274.97h87.89v111.77L432.84 515.2V402.34H306.88c1.35-6.81 6.1-12.39 12.39-14.89 28.63-10.98 55.98-26.84 80.83-47.64 24.27-20.8 39.68-51.75 39.68-86.22s-16.5-67.6-42.31-88.4c-30.88-25.17-70.3-40.25-113.25-40.25-37.94 0-74.12 10.55-102.29 31.71l-.51-.57L284.15 53.16C318.43 20.22 364.98 0 416.34 0c36.85 0 71.26 10.46 100.47 28.57 32.81 20.93 54.57 57.65 54.57 99.45 0 32.61-13.23 62.08-34.54 83.46l-63.49 63.49Z" class="b"></path></svg>