<svg id="Layer_1" data-name="Layer 1" xmlns="http://www.w3.org/2000/svg" viewBox="0 0 609.54 527.88">   <path d="M609.52,263.97l.02-.03L458.4,2.15V78.43c0,91.33,64.97,167.77,151.13,185.54Z"></path>   <path d="M562.71,345.05l26.08-45.16c-97.85-26.12-170.16-115.48-170.16-221.45V0h-50.7V78.43c0,124.66,81.94,230.51,194.78,266.62Z"></path>   <path d="M501.1,451.75l26.87-46.54c-133.05-48.95-228.2-176.96-228.2-326.78V0h-50.89V78.42c0,168.84,104.52,313.63,252.22,373.33Z"></path>   <path d="M152.32,78.42V.11L0,263.94l152.38,263.94H434.48C267.64,447.01,152.32,275.94,152.32,78.42Z"></path> </svg>