<svg xmlns="http://www.w3.org/2000/svg" width="609.2" viewBox="0 0 609.2 609.2" height="609.2" xml:space="preserve"><path d="M323.2 234h46c4.3-9.4 6.7-19.6 6.7-30.2 0-19.3-7.5-37.4-21.1-51l-13-13 63.6-63.6C362.6 29.4 301 0 232.6 0v143.4c50 0 90.6 40.6 90.6 90.6z"></path><path d="m367.7 267.8 32.5 32.5c9.7-3.6 18.6-9.1 26.1-16.6 13.6-13.6 21.1-31.7 21.1-51v-18.4h90c2.8-63.3-19.9-127.6-68.3-176L367.7 139.8c35.4 35.3 35.4 92.6 0 128z"></path><path d="M375.3 323.2v46c9.4 4.3 19.6 6.7 30.2 6.7 19.3 0 37.4-7.5 51-21.1l13-13 63.6 63.6c46.8-42.8 76.2-104.3 76.2-172.7H465.8c0 49.9-40.5 90.5-90.5 90.5z"></path><path d="M341.5 367.7 309 400.2c3.6 9.7 9.1 18.6 16.6 26.1 13.6 13.6 31.7 21.1 51 21.1H395v90c63.3 2.8 127.6-19.9 176-68.3L469.5 367.7c-35.4 35.4-92.7 35.4-128 0z"></path><path d="M286.1 375.3h-46c-4.3 9.4-6.7 19.6-6.7 30.2 0 19.3 7.5 37.4 21.1 51l13 13-63.6 63.6c42.8 46.8 104.3 76.2 172.7 76.2V465.8c-50 0-90.5-40.5-90.5-90.5z"></path><path d="M241.5 341.5 209 308.9c-9.7 3.6-18.6 9.1-26.1 16.6-13.6 13.6-21.1 31.7-21.1 51v18.4h-90c-2.8 63.3 19.9 127.6 68.3 176l101.4-101.4c-35.3-35.4-35.3-92.7 0-128z"></path><path d="M234 286.1v-46c-9.4-4.3-19.6-6.7-30.2-6.7-19.3 0-37.4 7.5-51 21.1l-13 13-63.6-63.6C29.4 246.7 0 308.2 0 376.6h143.4c0-50 40.6-90.5 90.6-90.5z"></path><path d="m267.8 241.5 32.5-32.5c-3.6-9.7-9.1-18.6-16.6-26.1-13.6-13.6-31.7-21.1-51-21.1h-18.4v-90C151 69 86.7 91.7 38.3 140.1l101.4 101.4c35.4-35.3 92.7-35.3 128.1 0z"></path></svg>