<svg xmlns="http://www.w3.org/2000/svg" width="601.7" viewBox="0 0 601.7 601.7" height="601.7"><path d="M463 138.8V0H291.2L0 291.2V463h138.8v138.8h171.8l291.2-291.2V138.8H463zm-46.7 277.5h-92.1V310.5l125.1-125.1H522L416.3 291.2v125.1zm-230.9 33l92.1-92.1v72.7L185.4 522v-72.7zm230.9-296.9l-92.1 92.1v-72.7l92.1-92.1v72.7zM310.5 46.7h72.7l-92.1 92.1h-72.7l92.1-92.1zM138.8 218.4v72.7l-92.1 92.1v-72.7l92.1-92.1zM79.7 416.3l105.8-105.8V185.4h92.1v105.8L152.4 416.3H79.7zM291.2 555h-72.7l92.1-92.1h72.7L291.2 555zM463 383.3v-72.7l92.1-92.1v72.7L463 383.3z"></path></svg>