<svg data-name="Layer 1" xmlns="http://www.w3.org/2000/svg" viewBox="0 0 626.89 553.06"><path d="M621.84 257.63 484.01 18.9C477.28 7.24 464.74 0 451.27 0H175.61c-13.46 0-26 7.24-32.74 18.9L5.05 257.63c-6.73 11.66-6.73 26.14 0 37.8l137.83 238.73c6.73 11.66 19.27 18.9 32.74 18.9h275.65c13.46 0 26-7.24 32.74-18.9l137.83-238.73c6.73-11.66 6.73-26.14 0-37.8Zm-37.58 2.1H417.25c-4.19-25.96-17.8-48.79-37.33-64.74L463.4 50.4l120.86 209.34ZM313.45 381.81c13.17 0 25.73-2.54 37.36-6.97l83.5 144.62H192.58l83.5-144.62c11.63 4.44 24.19 6.97 37.36 6.97Zm0-33.6c-39.52 0-71.68-32.16-71.68-71.68s32.16-71.68 71.68-71.68 71.68 32.15 71.68 71.68-32.15 71.68-71.68 71.68Zm0-176.96c-13.17 0-25.73 2.54-37.36 6.97L192.58 33.6H434.3l-83.5 144.63c-11.63-4.44-24.19-6.97-37.36-6.97ZM163.49 50.4l83.48 144.59c-19.53 15.95-33.14 38.79-37.33 64.74H42.63L163.49 50.4ZM42.63 293.33h167c4.19 25.96 17.8 48.8 37.33 64.75l-83.48 144.58L42.63 293.33ZM463.4 502.67l-83.48-144.59c19.53-15.95 33.14-38.79 37.33-64.75h167.01L463.4 502.67Z"></path></svg>