<svg xmlns="http://www.w3.org/2000/svg" width="426.2" viewBox="0 0 426.2 619.4" height="619.4" xml:space="preserve" style="enable-background:new 0 0 426.2 619.4"><path d="M110.5 0h35v70.8h-35zM166.4 0h35v70.8h-35zM222.4 0h35v70.8h-35zM278.3 0h35v70.8h-35zM110.5 91.4h35v70.8h-35zM54.9 91.4h35v70.8h-35zM166.4 91.4h35v70.8h-35zM222.4 91.4h35v70.8h-35zM278.3 91.4h35v70.8h-35zM335.6 91.4h35v70.8h-35zM110.5 182.9h35v70.8h-35zM54.9 182.9h35v70.8h-35zM0 182.9h35v70.8H0zM278.3 182.9h35v70.8h-35zM335.6 182.9h35v70.8h-35zM391.2 182.9h35v70.8h-35z"></path><path d="M54.9 182.9h35v70.8h-35zM110.5 274.3h35v70.8h-35zM54.9 274.3h35v70.8h-35zM0 274.3h35v70.8H0z"></path><path d="M54.9 274.3h35v70.8h-35zM110.5 365.8h35v70.8h-35zM54.9 365.8h35v70.8h-35zM0 365.8h35v70.8H0zM278.3 365.8h35v70.8h-35zM335.6 365.8h35v70.8h-35zM391.2 365.8h35v70.8h-35z"></path><path d="M54.9 365.8h35v70.8h-35zM110.5 457.2h35V528h-35zM166.4 457.2h35V528h-35zM222.4 457.2h35V528h-35zM222.4 548.7h35v70.8h-35zM166.4 548.7h35v70.8h-35zM54.9 457.2h35V528h-35zM278.3 457.2h35V528h-35zM335.6 457.2h35V528h-35z"></path><path d="M54.9 457.2h35V528h-35zM110.5 548.7h35v70.8h-35zM278.3 548.7h35v70.8h-35z"></path></svg>