<svg xmlns="http://www.w3.org/2000/svg" width="611.7" viewBox="0 0 611.7 621.2" height="621.2" xml:space="preserve" style="enable-background:new 0 0 611.7 621.2"><path d="m437.5 60.3 174.1 141.1v-61.3L437.5 0H171.3L0 143.6l171.3 139.7h266.2l174.1 143v-61.2L437.5 223H171.3l-98.6-81.6 98.6-81.1z"></path><path d="M437.5 337.9H171.3L0 194.6v61.3l171.3 142.3h266.2l103.2 80.3-103.2 82.4H171.3L0 419.5v61.3l172.3 140.4h265.2l174.2-143.6zM171.3 169.4l-36.3-28 36.3-29.4h266.2l174.1 141.1v58.3l-174.1-142z"></path><path d="m437.5 450.4 39.2 28-39.2 29.4H169.4L0 366.4V308l172.3 142.4z"></path></svg>