<svg data-name="Layer 1" xmlns="http://www.w3.org/2000/svg" viewBox="0 0 563.98 605.72"><circle cx="300.99" cy="80.29" r="11.62"></circle><path d="M563.98 0H243.55L0 605.72h75.26l121.15-301.29h8.55L83.82 605.72h73.87l59.43-147.48h.1l61.85-153.81h8.56l-63.21 153.81 59.97 147.48h72.97l-59.59-148.19h8.55l59.59 148.19h73.19l-59.33-147.56L563.98 0ZM300.99 143.34c-34.83 0-63.06-28.23-63.06-63.06s28.23-63.06 63.06-63.06 63.06 28.23 63.06 63.06-28.23 63.06-63.06 63.06ZM441.83 17.23c34.83 0 63.06 28.23 63.06 63.06s-28.23 63.06-63.06 63.06-63.06-28.23-63.06-63.06S407 17.23 441.83 17.23Z"></path><circle cx="441.83" cy="80.29" r="11.62"></circle></svg>