<svg data-name="Layer 1" xmlns="http://www.w3.org/2000/svg" viewBox="0 0 609.48 609.47"><path d="M608.96 303.49 305.98.51c-.69-.69-1.8-.69-2.49 0L.51 303.49c-.69.69-.69 1.8 0 2.49l38.91 38.91c.45.45 1.18.4 1.57-.09l28.75-36.12c.33-.42.84-.66 1.37-.66h30.3c1.41 0 2.24 1.57 1.46 2.74l-38.77 57.6c-.28.42-.23.98.13 1.34l31.29 31.29c.5.5 1.34.38 1.68-.25l49.04-91.79c.31-.57.9-.93 1.55-.93h39.42c1.23 0 2.08 1.23 1.64 2.38l-50.59 132.44c-.15.39-.05.83.24 1.12l47.29 47.29c.58.58 1.58.3 1.77-.5l44.15-181.4c.19-.79.9-1.34 1.71-1.34h31.55c1.06 0 1.88.93 1.74 1.98l-30.1 231.49c-.04.32.07.65.3.88l66.58 66.58c.69.69 1.8.69 2.49 0l66.58-66.58c.23-.23.34-.56.3-.88l-30.1-231.49c-.14-1.05.68-1.98 1.74-1.98h31.55c.81 0 1.52.55 1.71 1.34l44.15 181.4c.19.8 1.19 1.08 1.77.5l47.29-47.29c.29-.29.39-.73.24-1.12L420.62 310.4c-.44-1.15.41-2.38 1.64-2.38h39.42c.65 0 1.25.36 1.55.93l49.04 91.79c.33.62 1.18.75 1.68.25l31.29-31.29c.36-.36.41-.92.13-1.34l-38.77-57.6c-.79-1.17.05-2.74 1.46-2.74h30.3c.54 0 1.04.24 1.37.66l28.75 36.12c.39.49 1.13.53 1.57.09l38.91-38.91c.69-.69.69-1.8 0-2.49Z"></path></svg>