<svg xmlns="http://www.w3.org/2000/svg" width="540" viewBox="0 0 540 618.9" height="618.9" xml:space="preserve" style="enable-background:new 0 0 540 618.9"><path d="M0 471.6V156.9l87.9-51.1 261.2 151.8-82.3 47.1L81.5 198.4v226.1z"></path><path d="m262.1 0 272.3 156.2v101.6L271.9 407.4v-94.9l185.6-106.8L262.1 94.1z"></path><path d="M540 460.7 267.9 618.9l-88.4-50.3V266.5l83.4 47.4v215L460 414.3zM90.3 213.6l79.8 46.4-79.8 47.9z"></path><path d="m271.8 418.1 80.8 46.7-80.8 47.5zM358 158.8l81 46.9-81 47.4zM349.1 247.2 97.5 101l79-46.3 172.6 99.8zM281.2 412.9l253.1-143.5.1 91.6-173.2 98.7zM170 271l.5 291-79.9-45-.6-199.3z"></path></svg>