<svg xmlns="http://www.w3.org/2000/svg" width="624.1" viewBox="0 0 624.1 605.5" height="605.5" xml:space="preserve" style="enable-background:new 0 0 624.1 605.5"><path d="m546.8 321.2-33.9 24.6-11.2-34.6 24.8-18c14.8-10.7 20.3-29.5 14.9-45.9-5.4-16.5-20.8-28.4-39.1-28.4h-164l15 46.2h133.3l-39.1 28.4 54.2 166.7c10.2 31.3-.9 65.3-27.5 84.6a75.64 75.64 0 0 1-89 0l-33.9-24.6 29.4-21.4 24.8 18c14.8 10.7 34.3 10.2 48.3 0s20.6-28.6 14.9-45.9l-50.7-156-39.3 28.6 41.2 126.8-39.1-28.4L239 544.8c-26.6 19.3-62.4 19.3-88.9 0-26.6-19.3-37.7-53.3-27.5-84.6l12.9-39.8 29.4 21.4-9.5 29.1c-5.6 17.4.9 35.8 14.9 45.9 14 10.2 33.5 10.7 48.3 0l132.7-96.4-39.3-28.6-107.9 78.4 15-46-141.8-103c-26.6-19.3-37.7-53.3-27.5-84.6 10.2-31.3 39.1-52.3 72-52.3h41.9l-11.2 34.6h-30.6c-18.3 0-33.7 11.9-39.1 28.4-5.4 16.5.2 35.2 14.9 45.9l132.7 96.4 15-46.2L137.5 265h48.4l54.2-166.7C250.3 67 279.2 46 312.1 46s61.8 21 72 52.3l12.9 39.8h-36.4l-9.5-29.1c-5.6-17.4-21.8-28.4-39.1-28.4s-33.4 11-39.1 28.4l-50.7 156h48.6L312 138.2l14.9 46h175.3c32.9 0 61.8 21 72 52.3 10.2 31.4-.8 65.4-27.4 84.7m71.3-98.9c-16.4-50.3-62.9-84.1-115.8-84.1h-56.8l-17.6-54.1C411.5 33.8 365 0 312.1 0s-99.5 33.8-115.8 84.1l-17.6 54.1h-56.8c-53 0-99.5 33.8-115.9 84.2-16.4 50.3 1.4 105 44.2 136.1l46 33.4L78.7 446c-16.4 50.3 1.4 105 44.2 136.2 42.8 31.1 100.3 31.1 143.2 0l46-33.4 46 33.4c42.8 31.1 100.4 31.1 143.2 0C544 551 561.8 496.3 545.4 446l-17.6-54.1 46-33.4c42.9-31.1 60.7-85.8 44.3-136.2"></path></svg>