<svg data-name="Layer 1" xmlns="http://www.w3.org/2000/svg" viewBox="0 0 612.29 486.91"><path d="M553.79 202.39 306.15 0 58.5 202.39c-19.9 16.26-36.28 36.7-46.21 60.39-10.56 25.19-14.6 53.22-11 81.76 9.65 76.43 74.8 135.42 151.79 138.02 60.43 2.04 113.69-29.96 142.13-78.25v71.08c0 5.45 3.72 10.5 9.1 11.37 6.85 1.11 12.77-4.14 12.77-10.78v-71.66c28.44 48.29 81.69 80.28 142.13 78.25 76.99-2.6 142.15-61.58 151.8-138.01 3.6-28.54-.43-56.57-11-81.76-9.94-23.7-26.32-44.14-46.22-60.4Zm-13.91 15.63c5.84 4.74 11.21 9.91 16.11 15.43L327.61 376.69c-6.77-16.19-10.53-33.95-10.53-52.57v-76.77l146.1-91.63 62.27 50.57 14.43 11.73Zm-222.8-71.17V37.05l128.17 104.09-128.17 80.39v-74.69Zm-21.87 0v74.69l-128.16-80.38L295.21 37.05v109.79Zm-222.8 71.16 76.7-62.3 146.09 91.63v76.77c0 18.62-3.75 36.37-10.53 52.57L56.3 233.44c4.9-5.51 10.27-10.68 16.11-15.43Zm86.13 242.77c-75.36 0-136.67-61.31-136.67-136.67 0-26.32 7.5-51.54 21.23-73.15l231.51 145.2c-24.15 38.76-67.13 64.62-116.06 64.62Zm295.21 0c-48.93 0-91.91-25.86-116.06-64.62l231.51-145.2c13.73 21.61 21.23 46.83 21.23 73.15 0 75.36-61.31 136.67-136.67 136.67Z"></path></svg>