<svg xmlns="http://www.w3.org/2000/svg" width="564.5" viewBox="0 0 564.5 557.9" height="557.9"><path d="M380 260.4L564.5 0H0v5.7h450.9l-18.7 26.4H0v5.7h428.2l-18.7 26.4H256.7V41l-16.4 23.1H0v5.7h236.3l-18.7 26.4H0v5.7h213.5l-18.7 26.4H0v5.7h190.8l-18.7 26.4H86.8V136l-17.2 24.3H0v5.7h65.5l-18.7 26.4H0v5.7h42.8l-18.7 26.4H0v5.7h20.1L0 258.4v299.5l175.7-248v238.9l203.1-286.6h1.3v-1.8zm-293.2 1.8H100l-13.2 18.6v-18.6zm169.9 0h12.5l-12.5 17.7v-17.7zm0-5.7v-26.4h35.2l-18.7 26.4h-16.5zm0-32.1V198h58L296 224.4h-39.3zm61.9-32h-62V166h80.7l-18.7 26.4zm22.8-32.1h-84.7v-26.4h103.4l-18.7 26.4zM104 256.5H86.8v-26.4h35.9L104 256.5zm260.1-128.2H256.7v-26.4h126.1l-18.7 26.4zm-237.4 96.1H86.8V198h58.6l-18.7 26.4zM405.5 69.8l-18.7 26.4H256.7V69.8h148.8zM168.1 166l-18.7 26.4H86.8V166h81.3z"></path></svg>