<svg data-name="Layer 1" xmlns="http://www.w3.org/2000/svg" viewBox="0 0 609.65 515.49"><path d="m609.65 200.99-96.91-48.42v-97.1L401.73 0l-96.91 48.43L207.92 0 96.91 55.47v97.09L0 200.99v114.29l96.91 48.42v96.33l111.01 55.47 96.91-48.42 96.91 48.42 111.01-55.47V363.7l96.91-48.42V200.99Zm-222.02 96.32-82.8 41.38-82.8-41.38v-78.89l82.8-41.38 82.8 41.38v78.89Zm96.91-224.4v79.42l-82.8 41.38-82.8-41.38V72.91l82.8-41.38 82.8 41.38Zm-359.42 0 82.8-41.38 82.8 41.38v79.42l-82.8 41.38-82.81-41.38V72.91ZM28.2 218.42l82.8-41.38 82.81 41.38v78.88l-83.34 41.64-82.28-41.11v-79.42Zm96.91 224.17V363.7l82.81-41.38 82.8 41.38v78.89l-82.8 41.38-82.81-41.38Zm276.62 41.38-82.8-41.38V363.7l82.8-41.38 82.8 41.38v78.89l-82.8 41.38Zm179.71-186.13-82.28 41.11-83.33-41.64v-78.89l82.8-41.38 82.81 41.38v79.41Z"></path></svg>