<svg data-name="Layer 1" xmlns="http://www.w3.org/2000/svg" viewBox="0 0 601.76 610.64"><path d="M272.14 494.16c-42.95 42.95-112.83 42.95-155.78 0-18.33-18.33-29.59-42.75-31.71-68.78-2.86-35.12 12.08-70.18 39.96-93.8L384.7 111.29H47.94v84.31h106.79l-84.61 71.66C21.54 308.41-4.44 370.08.62 432.24c3.74 45.93 23.67 89.09 56.12 121.54 37.91 37.91 87.71 56.86 137.5 56.86s98.56-18.56 136.31-55.69l75.58-65.06v112.39h84.31V306.09l-217.2 186.96-1.11 1.11Z"></path><path d="M473.48 0H47.94v84.31h425.54c24.24 0 43.97 19.72 43.97 43.97v474.01h84.31V128.27C601.76 57.54 544.21 0 473.48 0Z"></path><rect x="137.1" y="342.91" width="131.07" viewBox="0 0 131.07 131.07" height="131.07" rx="65.54" ry="65.54"></rect></svg>