<svg xmlns="http://www.w3.org/2000/svg" width="642" viewBox="0 0 642 338.01" height="338.01" data-name="Layer 1"><path d="M22.58 132.67C7.8 102.96 15.37 62.4 38.91 40.18 65.26 13.34 109.55-6.36 146.47 14.1c20.37 11.19 31.71 37.67 25.01 60.95-3.28 12.22-13.65 35.43-17.97 47.33a70.577 70.577 0 0 0-4.24 24.16c0 39 31.62 70.62 70.62 70.62h382.47l-32.65-44.94H217.48c-21.72 0-39.32-17.61-39.32-39.32 0-3.52.46-6.93 1.33-10.18 2.7-10.07 9.49-29.81 12.19-39.89a60.179 60.179 0 0 0 2.04-15.58C193.71 30.08 160.55 0 119.57 0 53.53 0 0 53.53 0 119.57c0 10.71 1.41 21.08 4.05 30.96l50.27 187.49h64.04L22.58 132.67Z"></path><path d="m28.89 131.28 96.42 206.74h78.08L47.72 123.76C17.88 81.68 44.41 30.17 93.49 16.98c16.11-4.23 32.63-1.65 41.61 3.53 16.35 8.68 23.08 32.37 13.21 48.56-6.25 10.82-19.45 32.27-25.74 43.15-9.05 15.64-14.23 33.81-14.23 53.18 0 58.73 47.61 106.33 106.33 106.33H642l-32.65-44.94H217.8c-41.66 0-75.43-33.77-75.43-75.43 0-8.44 1.39-16.56 3.94-24.14 3.42-12.77 15-36.72 19.53-49.15a50.013 50.013 0 0 0 3.01-17.16c0-18.28-9.78-34.28-24.4-43.05-11-6.36-31.37-11.39-51.23-6.48S53.99 31.14 44.98 40.15c-14.59 14.6-23.62 34.76-23.62 57.04 0 12.18 2.7 23.74 7.54 34.09"></path></svg>