<svg data-name="Layer 1" xmlns="http://www.w3.org/2000/svg" viewBox="0 0 596.57 601.17"><path d="M8.14 164.64 0 172.77v253.58l11.84 11.84V185.08l11.44 11.44v253.11l11.84 11.84V208.36l11.45 11.45v253.11l11.83 11.83V231.64l11.45 11.45V496.2l11.83 11.84V254.93l11.45 11.44v253.11l11.84 11.84V278.21l11.45 11.45v253.11l11.83 11.83V301.49l11.45 11.45v253.11l11.84 11.84V324.78l11.44 11.44v253.11l11.84 11.84V348.06L423.56 596.8l8.37-8.37L8.14 164.64zM16.224 156.55l8.372-8.372 423.797 423.797-8.372 8.373zM32.694 140.078l8.372-8.372 423.797 423.797-8.372 8.372zM49.154 123.62l8.372-8.372 423.797 423.797-8.372 8.372zM65.624 107.162l8.372-8.372 423.797 423.797-8.372 8.372zM82.084 90.69l8.372-8.372 423.797 423.797-8.372 8.372zM98.544 74.232l8.372-8.372 423.797 423.797-8.372 8.372zM115.021 57.757l8.372-8.372 423.798 423.797-8.373 8.372zM131.474 41.292l8.372-8.372 423.797 423.797-8.372 8.372zM147.944 24.844l8.372-8.372 423.797 423.797-8.372 8.372zM584.73 163.49v248.47l-11.44-11.44V152.04l-11.84-11.83v248.47L550 377.23V128.76l-11.83-11.84V365.4l-11.45-11.45V105.48l-11.84-11.84v248.47l-11.44-11.45V82.19L491.6 70.36v248.47l-11.45-11.45V58.91l-11.83-11.84v248.48l-11.45-11.45V35.63l-11.84-11.84v248.47l-11.44-11.45V12.34L421.75.51v248.47L172.77 0l-8.37 8.37 423.8 423.8 8.37-8.37V175.33l-11.84-11.84z"></path></svg>