<svg data-name="Layer 1" xmlns="http://www.w3.org/2000/svg" viewBox="0 0 618.81 591.08"><path d="M1.31 90.16h82.64v500.92H1.31zM42.63 0C19.09 0 0 19.09 0 42.63s19.09 42.63 42.63 42.63 42.63-19.09 42.63-42.63S66.18 0 42.63 0ZM90.24 90.16h82.64v500.92H90.24zM131.56 0c-23.55 0-42.63 19.09-42.63 42.63s19.09 42.63 42.63 42.63 42.63-19.09 42.63-42.63S155.1 0 131.56 0ZM179.16 90.16h82.64v500.92h-82.64zM220.48 0c-23.55 0-42.63 19.09-42.63 42.63s19.09 42.63 42.63 42.63 42.63-19.09 42.63-42.63S244.03 0 220.48 0ZM268.08 90.16h82.64v500.92h-82.64zM309.4 0c-23.55 0-42.63 19.09-42.63 42.63s19.09 42.63 42.63 42.63 42.63-19.09 42.63-42.63S332.95 0 309.4 0ZM357.01 90.16h82.64v500.92h-82.64zM398.33 0c-23.55 0-42.63 19.09-42.63 42.63s19.09 42.63 42.63 42.63 42.63-19.09 42.63-42.63S421.87 0 398.33 0ZM445.93 90.16h82.64v500.92h-82.64zM487.25 0c-23.55 0-42.63 19.09-42.63 42.63s19.09 42.63 42.63 42.63 42.63-19.09 42.63-42.63S510.8 0 487.25 0ZM534.85 90.16h82.64v500.92h-82.64zM576.18 85.27c23.55 0 42.63-19.09 42.63-42.63S599.72 0 576.18 0s-42.63 19.09-42.63 42.63 19.09 42.63 42.63 42.63Z"></path></svg>