<svg data-name="Layer 1" xmlns="http://www.w3.org/2000/svg" viewBox="0 0 600.19 599.84"><path d="M166.16 159.97H0v33.96h132.21l33.95-33.96zM60.57 255.31v33.96h102.25l33.96-33.96h-.03l89.12-89.12v-48.02L148.73 255.31H60.57zM166.16 97.52 60.57 0v48.02l57.57 49.5h48.02zM166.16 470.55H0v33.96h132.21l33.95-33.96zM60.57 565.89v33.95h102.25l33.96-33.95h-.03l89.12-89.13v-48.01L148.73 565.89H60.57zM166.16 408.09 60.57 310.58v48.02l57.57 49.49h48.02zM480.48 470.55H314.31v33.96h132.21l33.96-33.96zM600.19 428.75 463.04 565.89h-88.16v33.95h102.26l33.95-33.95h-.03l89.13-89.13v-48.01zM480.48 408.09l-105.6-97.51v48.02l57.58 49.49h48.02z"></path></svg>