<svg xmlns="http://www.w3.org/2000/svg" width="389" viewBox="0 0 389 600.4" height="600.4"><path d="M287.3 211.4h-8.9v.4c-3.2.3-6.4.7-9.6 1.3 35.1-37.6 36.3-95.6 3.5-134.7l.3-.3-6.2-6.2L194.5 0l-78.2 78.2.3.3c-32.8 39-31.6 97 3.5 134.7-3.1-.6-6.3-1-9.6-1.3v-.4H0V322.1h.4c2.7 31.1 19.5 58.3 44 75.1H0V507.8h.4c4.5 51.9 48.2 92.8 101.3 92.8h185.5c53.1 0 96.8-40.9 101.3-92.8h.4V397h-44.4c24.5-16.8 41.2-43.9 44-75.1h.4V211.4H287.3zm21.4 92.8l62.5-62.5v62.5h-62.5zm50-75.1l-62.5 62.5v-62.5h62.5zm-80.3 80.3l-75.1 75.1v-71.4c0-21 7.7-40.1 20.5-54.8l8.6-8.6c12.6-10.9 28.5-18.2 46-20v79.7zm30.3 180.4l62.5-62.5v62.5h-62.5zm-12.5-12.5v-62.5h62.5l-62.5 62.5zm-92.8 92.8v-71.4c0-43.3 32.9-79 75.1-83.5V495l-75.1 75.1zM17.7 427.3l62.5 62.5H17.7v-62.5zm12.6-12.5h62.5v62.5l-62.5-62.5zM203.4 34l44.2 44.2-44.2 44.2V34zm-17.8 0v88.4l-44.2-44.2L185.6 34zm0 407.4c-7.1-10.4-16.2-19.5-26.6-26.6h26.6v26.6zm0 57.3v71.4l-75-75.1v-79.8c42.1 4.5 75 40.2 75 83.5zm17.8-57.3v-26.6H230c-10.5 7.1-19.5 16.1-26.6 26.6zm50.4-238.3l-33.6 33.6c-3.3 2.9-6.4 6-9.2 9.2l-7.6 7.6v-106l56.4-56.4c26.6 32.9 24.6 81.4-6 112zm-118.7 0c-30.6-30.6-32.6-79.2-5.9-112.1l56.4 56.4v106.1L178 246c-2.9-3.3-6-6.4-9.2-9.2l-33.7-33.7zm21.4 46.5l8.6 8.6c12.7 14.7 20.5 33.9 20.5 54.9v71.4l-75.1-75.1v-79.8c17.5 1.9 33.4 9.1 46 20zm-63.7 42.1l-62.5-62.5h62.5v62.5zm-75.1-50l62.5 62.5H17.7v-62.5zm.5 80.3H98l75.1 75.1h-71.4c-43.3-.1-79-33-83.5-75.1zm0 185.6H98l75.1 75.1h-71.4c-43.3-.1-79-33-83.5-75.1zm269.1 75h-71.4l75.1-75.1h79.8c-4.5 42.2-40.2 75.1-83.5 75.1zm0-185.6h-71.4l75.1-75h79.8c-4.5 42.1-40.2 75-83.5 75z"></path></svg>