<svg data-name="Layer 1" xmlns="http://www.w3.org/2000/svg" viewBox="0 0 626.61 626.61"><path d="M313.31 0 0 313.31l313.31 313.31 313.31-313.31L313.31 0Zm142.26 160.14H171.05L313.31 17.88l142.26 142.26Zm-291.48 6.96v141.11c0 1.37.81 2.58 2.08 3.11a3.323 3.323 0 0 0 3.66-.73l145.06-145.06v142.68c0 1.37.81 2.58 2.08 3.11a3.323 3.323 0 0 0 3.66-.73l142.7-142.69 1.78 1.78v287.25l-1.78 1.78-142.7-142.7a3.361 3.361 0 0 0-5.74 2.38v142.68L169.83 316.01c-.96-.96-2.4-1.25-3.66-.73a3.355 3.355 0 0 0-2.08 3.11V459.5L17.88 313.31 164.09 167.1Zm6.96 299.38h284.52L313.31 608.74 171.05 466.48Z"></path></svg>