<svg xmlns="http://www.w3.org/2000/svg" width="619.1" viewBox="0 0 619.1 552.6" height="552.6" xml:space="preserve" style="enable-background:new 0 0 619.1 552.6"><path d="m66.9 84 101.9 176.4L269.6 85.7c.3-.6.6-1.2 1-1.8 1.2-2 1.8-4.2 1.8-6.3 0-2.1-.6-4.2-1.8-6.3h.1l-.1-.1c-1.2-2-2.8-3.6-4.6-4.7v-.1c-1.6-.9-3.8-1.4-6.4-1.4H77.8c-2.2 0-4.1.4-5.6 1l-.7.4c-1.8 1-3.3 2.7-4.6 4.8-1.2 2-1.8 4.2-1.8 6.3 0 2.1.6 4.2 1.8 6.3v.2zM619.1 0 309.4 536.4c-8.9 15.5-28.7 20.8-44.2 11.9-5.3-3-9.4-7.3-12.1-12.3l-84.4-146.1-93.9 162.7H0l131.3-227.5L10.8 116.3h-.1C3.6 104.1.1 90.8.1 77.6c0-13.3 3.5-26.5 10.6-38.8 7-12.2 16.7-21.8 28.2-28.4.8-.4 1.6-.9 2.4-1.2C52.4 3.2 64.8 0 77.8 0h181.8c13.9 0 27.1 3.6 38.7 10.3l.1.1v-.1c11.4 6.6 21.1 16.2 28.2 28.5h.1c7.1 12.3 10.6 25.5 10.6 38.8 0 13.3-3.5 26.5-10.6 38.8-.3.6-.7 1.1-1 1.7l-119.6 207 75.2 130.3L544.3 0h74.8z"></path></svg>