<svg xmlns="http://www.w3.org/2000/svg" width="615.2" viewBox="0 0 615.2 615.3" height="615.3" xml:space="preserve" style="enable-background:new 0 0 615.2 615.3"><path d="M610.6 321.3c-1.6-7.3-4.5-11.3-12.5-9.8-6.9 1-13.9 2.3-20.5 4.6-4.4 1.5-12.3 3.7-13.8 8.8-4.2 14.1-3.6 29.2 0 43.5 3.4 13.4 9.6 26.2 17.2 37 1.7 2.4 3.5 4.8 5.2 7.2 2.2 3 3.8 2.9 6.3.3 23.3-23.8 27.3-60.7 18.1-91.6zM481.5 343.4c1.4-3.8.2-6-2.8-8.1-33.4-24.4-72.8-3.7-85.2 32.5-8.1 21.9-4 46-3.3 68.8.9 15.4 2.4 30.9 3.2 46.3 1.1 22.2 2 44.6-3.5 66.3-2 9-5.1 17.8-10.3 25.6-5.5 8-10.4 16.4-17.9 22.7-3.8 3.8 1.8 4.8 4.8 5.2 9.4 2 18.9 2.2 28.4 1 53.7-7.4 83.6-58.7 90.8-108.4 5.7-35.8-.2-71.5-5.3-107-2.2-15.1-4.3-30.3 1.1-44.9z"></path><path d="M555.5 330.7c1.6-4.2 1.7-7.5-1.2-11.3-7.7-10.1-17.6-15.1-30.2-13.7-28.4 3-38 36-34.7 59.9 2.3 16.3 5.5 32.4 7.8 48.7 3.7 27.1 4.5 54.6 1.7 81.9-1.2 12.4-3.8 24.4-7.7 36.2-.6 1.9-2.3 4.2-.4 5.6 1.3 1 4 .8 5.7.2 20.6-7.7 39.4-18.6 53.9-35.6 16.1-19.4 30.2-48.2 32.5-73.4.1-1.7-.4-3.8-1.3-5.2-19.2-26.5-38.6-59.9-26.1-93.3zM377.9 474.1c-4.8-44.3-11.6-96.5 20.4-132.7 2.6-2.8 2.4-4.3-1.4-5.3-31.6-9.2-60.8 4.1-83.4 29-19.8 21.7-28.3 49.8-40.6 75.7C254 480.4 223.2 512.3 194 544c-7.3 9.9-17.9 24.2-10.8 36.8 9.4 12.1 25.6-.9 34-8 15.1-13.1 26.1-30.6 33.8-48.9 6.4-15.7 12.4-31.6 18.6-47.4.3-.7.8-1.4 1.3-2 .3.1.5.2.8.3-4.9 25.4-11.9 50.7-23.4 74.1-8.1 16.5-18.6 31.2-32.6 43.2-2.8 2.4-2.6 4.6.9 6 35.4 15.6 77.5 25.5 114 7.6 47-23.4 51.9-85.4 47.3-131.6zM127.6 497.2c-13.3-3.6-27.5-4.6-40.7-3.3-3 .3-5.9.7-8.9 1-3.7.4-4.4 1.8-3.4 5.3 9.3 32 39.4 53.7 70.9 60.9 7.1 2.2 12 1.6 14.7-6.1 2.6-6.5 4.8-13.2 6.1-20.1.9-4.6 2.9-12.5-.8-16.4-10.2-10.4-23.6-17.4-37.9-21.3zM55.9 366.6c28.4 22.6 62.3 35.1 95.7 48.2 14 5.7 28.3 11.3 38.3 23.2 2.6 3.1 5.1 3.2 8.4 1.6 37.7-17.1 39.1-61.5 13.7-90.2-15.1-17.9-38-26.1-58.2-36.8-13.9-6.8-28-13.1-41.8-20.1-19.8-9.9-39.7-20.3-55.9-35.7-6.8-6.2-12.9-13.2-17.2-21.6-4.2-8.7-9.2-17.1-10.9-26.7-1.4-5.1-5-.8-6.8 1.6-6.4 7.2-11.2 15.4-14.9 24.2-19.9 50.3 9.9 101.6 49.6 132.3z"></path><path d="M201.8 493.7c11.4-26.2-12.5-50.8-35-59.7-15.3-6-30.9-11.2-46.2-17.2-25.4-10.2-49.8-23-72.1-38.9-10.2-7.1-19.3-15.4-27.6-24.5-1.4-1.5-2.6-4.1-4.7-3.2-1.5.6-2.7 3.1-3 4.9-3.5 21.7-3.3 43.5 4.4 64.5 9 23.6 27 50.1 47.8 64.5 1.4 1 3.5 1.5 5.2 1.4 32.4-3.8 71-4.2 93.9 23.3 2.8 3.4 5.6 5.2 10.4 4.5 12.7-1.8 21.9-8 26.9-19.6zM127.4 283.4c40.9 17.7 89.7 37.5 105.4 83.2 1.2 3.7 2.6 4.2 5.3 1.3 23.6-23 26.4-54.9 15.9-86.9-9.1-27.9-29.4-49.1-45.8-72.7-25.2-36-37.7-78.5-50.9-119.5-5-11.3-12.2-27.6-26.7-27.5-15.2 2.2-11.9 22.7-9.8 33.6 4 19.6 13.7 37.8 25.8 53.5 10.6 13.3 21.4 26.4 32.1 39.5.5.6.8 1.4 1.1 2.1-.2.2-.4.4-.6.5-19.7-16.8-38.2-35.4-52.9-56.9-10.4-15.2-18-31.6-21.5-49.7-.7-3.7-2.7-4.5-5.7-2.2-31.1 23.1-60.4 54.8-62.8 95.4-2.9 52.7 48.6 87.6 91.1 106.3zM177.4 74.6c3.6 3 9.5 8.7 14.7 7.3 14.2-3.7 26.8-11.9 37.3-22.5 9.7-9.8 17.5-21.7 22.8-33.9 1.2-2.7 2.3-5.5 3.5-8.2 1.4-3.4.5-4.7-3-5.5-32.5-7.5-66.1 8-87.9 31.9-5.4 5.1-7.3 9.7-1.9 15.8 4.4 5.4 9.1 10.6 14.5 15.1zM289.4 120.7c-11.8 9.5-23.7 19.1-39 22-4 .8-5.3 2.9-5.5 6.6-3.6 41.2 34.5 64.2 71.9 56.2 23-4.4 41.4-20.3 60.6-32.7 12.8-8.8 25.2-18 38-26.6 18.4-12.4 37.1-24.7 58.5-31.2 8.7-2.9 17.9-4.8 27.2-4.4 9.6.6 19.4.4 28.7 3.6 5.2 1.3 3.2-4 2-6.7-3.2-9.1-7.9-17.3-13.8-24.8-34.1-42.2-93.4-41.3-139.7-21.8-33.6 13.7-61.1 37.1-88.9 59.8z"></path><path d="M201.2 85.9c-4.4.8-7.3 2.4-9.1 6.9-4.7 11.8-3.8 22.9 3.8 33 17.2 22.8 50.5 14 69.2-1.2 12.8-10.4 24.9-21.5 37.7-31.8 21.3-17.2 44.5-32.1 69.3-43.8 11.2-5.4 22.9-9.3 34.9-12.1 2-.5 4.8-.2 5-2.5.2-1.6-1.4-3.9-2.8-5C392.1 15.7 373 5.2 351 1.6c-24.9-3.7-56.9-1-79.7 10.1-1.5.8-3 2.3-3.8 3.8-12.6 30.1-31.2 63.9-66.3 70.4zM415.8 164c-35.5 26.9-76.7 59.8-124.2 51-3.8-.8-4.9.2-3.8 4 8.5 31.8 34.9 50 67.9 56.5 28.8 5.8 57.2-1.5 85.8-4.3 43.7-4.3 86.9 5.6 129.1 14.3 12.3 1.1 30 2.9 37.1-9.8 5.5-14.3-14-21.5-24.4-25-19-6.1-39.7-6.6-59.3-3.7-16.8 2.7-33.5 5.7-50.2 8.6-.8.1-1.6 0-2.4 0-.1-.3-.1-.5-.2-.8 24.3-8.9 49.6-16 75.5-18.2 18.3-1.6 36.3-.2 53.9 5.6 3.5 1.2 5.2-.2 4.7-3.9-4.9-38.4-18.2-79.5-52.3-101.5-44.4-28.4-100.1-.7-137.2 27.2z"></path></svg>