<svg xmlns="http://www.w3.org/2000/svg" width="628.5" viewBox="0 0 628.5 625.3" height="625.3" xml:space="preserve" style="enable-background:new 0 0 628.5 625.3"><path d="m359.6 1.7-38.3 124.2L282.5 0C123.9 15.9 0 149.8 0 312.7c0 162.7 123.7 296.5 282.1 312.6l39.2-127.1 38.6 125.5c151.9-22.1 268.6-152.9 268.6-311 0-158.2-116.8-289.1-268.9-311zm-45.4 493.7c-86.4 0-158.8-60-177.8-140.6l69-28.6c6.7 54.2 52.8 96.1 108.8 96.1 55.4 0 101.2-41.1 108.6-94.4l68.9 28.5c-19.6 79.8-91.6 139-177.5 139zm109.2-192.6c-5-55.9-52-99.8-109.2-99.8-57.8 0-105.1 44.7-109.3 101.5l-69.6-28.9C152.4 192.5 226 130 314.2 130c87.7 0 160.9 61.7 178.6 144.1l-69.4 28.7z"></path></svg>