<svg data-name="Layer 1" xmlns="http://www.w3.org/2000/svg" viewBox="0 0 628.68 612.94"><path d="M621 222.71c-22.25-68.42-87.82-110.86-156.52-106.93C447 49.24 386.33 0 314.38 0S181.65 49.32 164.23 115.95c-27.27-1.62-54.58 4.01-79.56 16.76-36.92 18.86-64.28 50.96-77.04 90.4-12.77 39.44-9.42 81.49 9.44 118.4 12.71 24.89 31.56 45.3 54.51 59.96-24.98 64.16-4.8 139.69 53.47 181.96 26.62 19.31 58.05 29.52 90.89 29.52h.03c36.22 0 70.98-12.75 98.45-35.15 21.09 17.32 46.46 28.81 74.13 33.18 8.13 1.28 16.37 1.93 24.52 1.93 32.77 0 64.23-10.28 90.96-29.72 58.22-42.35 78.31-117.91 53.25-182.03 22.93-14.69 41.75-35.12 54.43-60.02 18.81-36.94 22.11-78.99 9.29-118.41ZM276.69 501.7c-11.71 16.14-29.03 26.76-48.77 29.9-19.71 3.14-39.5-1.57-55.64-13.27-29.56-21.44-38.73-60.63-23.63-92.5 2.17.09 4.33.25 6.5.25 24.71 0 48.7-5.82 70.27-16.76 17.12 17.51 39.31 30.04 64.21 35.08 3.59 19.83-.84 40.6-12.96 57.3Zm37.68-129.06c-27.69 0-50.21-22.52-50.21-50.2s22.53-50.21 50.21-50.21 50.2 22.52 50.2 50.21-22.52 50.2-50.2 50.2Zm21.02-172.74c-6.85-1.17-13.84-1.92-21.02-1.92-18.38 0-35.78 4.11-51.5 11.29-14.61-13.95-23.25-33.4-23.25-54.08 0-41.22 33.53-74.75 74.75-74.75 36.48 0 66.88 26.28 73.41 60.88-22.18 14.7-40.23 34.91-52.39 58.58Zm-131.08 64.61c-9.15 17.32-14.39 37.01-14.39 57.92 0 4.8.34 9.51.87 14.17-17.76 9.58-38.9 11.79-58.55 5.43-19-6.15-34.46-19.33-43.54-37.11-9.09-17.78-10.7-38.04-4.55-57.04 6.15-19 19.33-34.46 37.12-43.54 13.66-6.98 28.77-9.51 43.64-7.54 7.13 25.55 20.73 48.87 39.41 67.71Zm165.13 169.36c22.34-11.09 40.89-28.62 53.17-50.24 20 2.68 38.43 13.36 50.59 30.08 11.72 16.12 16.46 35.87 13.35 55.62-3.12 19.75-13.71 37.08-29.83 48.8-16.13 11.73-35.87 16.46-55.62 13.35-15.08-2.38-28.73-9.15-39.57-19.39 9.29-24.95 12.01-51.92 7.92-78.23Zm170.59-129.24c-6.92 13.6-17.6 24.48-30.71 31.63-20.85-16.56-45.66-27.48-71.94-31.74-3.66-25.24-14.89-48.01-31.36-65.98 8.73-18.24 24.57-32.51 44.27-38.91 39.21-12.74 81.46 8.78 94.21 47.97 6.18 18.99 4.59 39.24-4.47 57.04Z"></path></svg>