<svg xmlns="http://www.w3.org/2000/svg" width="602.1" viewBox="0 0 602.1 601.9" height="601.9" xml:space="preserve"><path d="M602.1 301.8c0 83-67.2 150.1-150.2 150.1 0 83-67.2 150.1-150.2 150.1-83 0-150.6-67.1-150.6-150.1C67.8 451.8 0 384.5 0 301.3s67.6-150.9 150.9-150.9C150.9 67.4 218.3 0 301.3 0s150.5 68.5 150.5 151.5c83 0 150.3 67.3 150.3 150.3zM409.7 150.6c0-59.6-48.3-108-108-108-59.6 0-108 48.3-108 108h86.5v85.9h43v-85.9h86.1m0 301.1h-86.1v-84.9h-43v84.9h-86.5c0 59.6 48.3 108 108 108 59.6 0 108-48.3 108-108M452.8 194.1v86.1h-43.2v-86.8h-43.1v86.2H237v-86.2h-43.1v86.2h-43.1v-85.9c-59.6 0-107.1 48.3-107.1 108 0 59.6 47.5 107.1 107.1 107.1v-85.6h42.9l-.6 86.3H236l.6-86.3h129.6l.8 50v36.5h42.5v-86.5h43.2v86.5c59.6 0 108-48.3 108-108 0-59.6-48.3-108-108-108"></path></svg>