<svg data-name="Layer 1" xmlns="http://www.w3.org/2000/svg" viewBox="0 0 598.14 598.2"><path d="m420.11 335-35.9-35.9 35.9-35.9c47.07 15.69 101.09 4.97 138.5-32.43 52.71-52.71 52.71-138.47 0-191.17-52.7-52.7-138.46-52.7-191.17 0-37.41 37.41-48.12 91.42-32.44 138.49l-64.64 64.64V135.19C270.36 60.64 209.72 0 135.18 0S0 60.64 0 135.18s60.64 135.18 135.18 135.18c4.04 0 8.02-.26 11.97-.61v58.7c-3.95-.35-7.93-.61-11.97-.61C60.64 327.84 0 388.48 0 463.02S60.64 598.2 135.18 598.2s135.18-60.64 135.18-135.18V355.47L335 420.11c-15.69 47.07-4.97 101.09 32.44 138.49 52.7 52.7 138.46 52.7 191.17 0 52.71-52.71 52.71-138.47 0-191.17-37.41-37.41-91.42-48.12-138.49-32.43Zm2.4-240.34c22.34-22.34 58.69-22.34 81.02 0 22.34 22.34 22.34 58.69 0 81.03-22.34 22.34-58.69 22.34-81.03 0-22.34-22.34-22.34-58.68 0-81.02ZM77.89 135.18c0-31.59 25.7-57.29 57.29-57.29s57.29 25.7 57.29 57.29-25.7 57.29-57.29 57.29-57.29-25.7-57.29-57.29Zm57.29 385.14c-31.59 0-57.29-25.7-57.29-57.29s25.7-57.29 57.29-57.29 57.29 25.7 57.29 57.29-25.7 57.29-57.29 57.29Zm368.35-16.78c-22.34 22.34-58.69 22.34-81.02 0-22.34-22.34-22.34-58.69 0-81.03 22.34-22.34 58.69-22.34 81.03 0 22.34 22.34 22.34 58.68 0 81.02Z"></path></svg>