<svg id="Layer_1" data-name="Layer 1" xmlns="http://www.w3.org/2000/svg" viewBox="0 0 497.96 606.68">   <rect y="108.72" width="63.08" viewBox="0 0 63.08 63.08" height="63.08"></rect>   <rect x="108.72" y="108.72" width="63.08" height="63.08"></rect>   <rect x="217.44" width="63.08" height="63.08"></rect>   <rect x="326.16" y="108.72" width="63.08" height="63.08"></rect>   <rect x="434.88" y="108.72" width="63.08" height="63.08"></rect>   <rect y="217.44" width="63.08" height="63.08"></rect>   <rect x="108.72" y="217.44" width="63.08" height="63.08"></rect>   <rect x="326.16" y="217.44" width="63.08" height="63.08"></rect>   <rect x="434.88" y="217.44" width="63.08" height="63.08"></rect>   <rect y="326.16" width="63.08" height="63.08"></rect>   <rect x="108.72" y="326.16" width="63.08" height="63.08"></rect>   <rect x="217.44" y="108.72" width="63.08" height="280.52"></rect>   <rect x="326.16" y="326.16" width="63.08" height="63.08"></rect>   <rect x="434.88" y="326.16" width="63.08" height="63.08"></rect>   <rect y="434.88" width="63.08" height="63.08"></rect>   <rect x="108.72" y="434.88" width="63.08" height="63.08"></rect>   <rect x="217.44" y="434.88" width="63.08" height="63.08"></rect>   <rect x="326.16" y="434.88" width="63.08" height="63.08"></rect>   <rect x="434.88" y="434.88" width="63.08" height="63.08"></rect>   <rect y="543.6" width="63.08" height="63.08"></rect>   <rect x="108.72" y="543.6" width="63.08" height="63.08"></rect>   <rect x="217.44" y="543.6" width="63.08" height="63.08"></rect>   <rect x="326.16" y="543.6" width="63.08" height="63.08"></rect>   <rect x="434.88" y="543.6" width="63.08" height="63.08"></rect> </svg>