<svg data-name="Layer 1" xmlns="http://www.w3.org/2000/svg" viewBox="0 0 608.48 480.51"><path d="m521.21 38.44 34.73-19.22h52.54V0H.49L0 480.51h607.99v-19.22h-52.05l-34.73-19.22H186.65v-19.22h421.34v-19.22H459.67l-34.73-19.22H186.65v-19.22h421.34v-19.22H364.71l-34.73-19.22H186.65v-19.22h421.34v-19.22H265.83l-34.73-19.22h-44.45v-19.22h421.34v-19.23H186.65v-19.22h44.45l34.73-19.22h342.65v-19.22H186.65v-19.22h143.33l34.73-19.22h243.77v-19.22H186.65V96.1h238.29l34.73-19.22h148.81V57.66H186.65V38.44h334.56z"></path></svg>