<svg xmlns="http://www.w3.org/2000/svg" width="574.9" viewBox="0 0 574.9 349.4" height="349.4"><path d="M566.7 195.2C524.4 76.6 415.3 0 288.9 0 155 0 36.4 90.7.5 220.5l-.5 1.7h89.8l.3-.8C123.1 140 203 85.3 288.9 85.3c80.7 0 152.6 44.3 187.8 115.7-19.9 19.9-41.3 34.2-65.2 43.8 1.9-8.8 2.9-17.8 2.9-26.7 0-70.2-57.1-127.3-127.3-127.3s-127.3 57.1-127.3 127.3c0 37.4 15.2 71.8 41.8 94.2 20.6 17.4 57.6 37.2 119.7 37.2 5.3 0 10.9-.1 16.6-.4 47.9-2.6 97.7-16.4 133.4-36.9 31.6-18.2 62.9-44.9 88.1-75.2l15.6-18.7-8.3-23.1zM289 261.3V260h-1.3v.1h-.6c-23.2 0-42-18.8-42-42s18.8-42 42-42 42 18.8 42 42c0 22.5-17.6 40.9-40.1 41.9v1.3z"></path></svg>