<svg xmlns="http://www.w3.org/2000/svg" viewBox="0 0 463.89 642"><path d="M185.28 484.58c1.8 35.25-12.58 69.02-39.29 92.13C104.9 612.28 53.99 635.07 0 642l.06-391.62C.06 112.8 111 1.16 248.26 0c117.49 1.03 212.69 95.14 215.58 212.12 2.25 95.08-76.93 178.79-165.96 177.45-120.9-1.83-136.66-120.86-104.77-174.37 12.17-20.42 41.41-21.19 54.51-1.35 21.11 31.78 62.47 21.72 62.47-9.69 0-49.65-88.45-74.39-123.52-14.32-9.69 16.69-14.83 36.27-13.74 57.01l12.45 237.73ZM316.7 207.49c-3.43 35.76-51.53 44.15-72.29 10.59-11.94-19.26-40.9-16.37-48.79 4.94-12.54 34.03 11.13 71 47.32 73.32 51.83 3.32 85.74-45.49 73.77-88.85Z"></path></svg>