<svg xmlns="http://www.w3.org/2000/svg" width="428.2" viewBox="0 0 428.2 605.3" height="605.3" style="enable-background:new 0 0 428.2 605.3" xml:space="preserve"><path d="M243.7 387.8 219.9 364l-3.8 13.2c-.6 2.2-3.7 2.2-4.3 0l-3.7-13-23.6 23.6c17.3 13.6 41.9 13.6 59.2 0zM208.3 302.4c-8.5 1-16.8 4.3-23.9 9.9l23.9 23.9v-33.8zM166.1 350c0 10.9 3.6 21.2 10.2 29.6L206 350l-29.6-29.6c-6.7 8.4-10.3 18.7-10.3 29.6zM262.1 350c0-10.9-3.6-21.2-10.2-29.6L222.2 350l29.6 29.6c6.7-8.4 10.3-18.7 10.3-29.6z"></path><path d="M219.8 0v290.8c13.3 1.3 26.2 7 36.3 17.1 11.2 11.2 17.4 26.2 17.4 42.1s-6.2 30.8-17.4 42.1c-11.6 11.6-26.8 17.4-42.1 17.4-15.2 0-30.5-5.8-42.1-17.4-11.2-11.2-17.4-26.2-17.4-42.1s6.2-30.8 17.4-42.1c10.1-10.1 23-15.8 36.3-17.1V0C187.4 40.7 110.4 178.2 0 235.2c0 0 68.3 129.7 83.5 370.2h261.1c15.2-240.5 83.5-370.2 83.5-370.2C317.8 178.2 240.8 40.7 219.8 0z"></path><path d="m219.8 336.1 23.9-23.9c-7.1-5.6-15.3-8.8-23.9-9.9v33.8z"></path></svg>