<svg id="Layer_1" data-name="Layer 1" xmlns="http://www.w3.org/2000/svg" viewBox="0 0 450.66 623.69">   <path d="M10.08,607.25c9.44,3.19,19.09,5.94,28.91,8.23,5.09,1.18,10.22,2.24,15.4,3.17l168.07-168.07v-18.57l39.15-39.15,111.51-111.51v-18.57l77.54-77.54v-18.57L10.08,607.25Z"></path>   <path d="M450.66,554.6v-12.83l-25.17,25.17c8.69-3.58,17.05-7.76,25.17-12.34Z"></path>   <path d="M3.24,18.75c-1.09,.4-2.16,.84-3.24,1.25v57.7L75.81,1.9C50.6,4.65,26.28,10.36,3.24,18.75Z"></path>   <path d="M109.97,0c-4.66,0-9.29,.15-13.9,.35L0,96.41v55.71L149.54,2.58c-12.97-1.66-26.16-2.58-39.58-2.58Z"></path>   <path d="M165.77,5.06L0,170.83v55.71L210.03,16.51c-14.32-4.86-29.1-8.69-44.26-11.44Z"></path>   <polygon points="222.46 22.79 0 245.25 0 300.96 222.46 78.5 222.46 22.79"></polygon>   <path d="M70.62,621.13c12.9,1.63,26.01,2.56,39.35,2.56,4.74,0,9.45-.12,14.13-.33l98.36-98.36v-18.57l150.66-150.66v-18.57l77.54-77.54v-18.57L70.62,621.13Z"></path>   <path d="M145.31,621.61c25.03-2.85,49.14-8.66,72.02-17.06,1.71-.63,3.44-1.2,5.13-1.85v-21.09l150.66-150.66v-18.57l77.54-77.54v-18.57L145.31,621.61Z"></path>   <path d="M222.46,134.34l62.92-62.92c-5.84-.49-11.73-.8-17.68-.89-1.43-.02-2.85-.12-4.29-.12-4.9,0-9.76,.16-14.59,.42L0,319.67v55.71L222.46,152.91v-18.57Z"></path>   <path d="M222.46,208.76l124.67-124.67c-4.69-1.58-9.44-3.01-14.25-4.32-4.93-1.35-9.92-2.54-14.96-3.61L0,394.08v55.71L222.46,227.33v-18.57Z"></path>   <path d="M222.46,376.16v-18.57l150.66-150.66v-17.42l38.98-40.13c-4.69-1.58-9.45-3.02-14.28-4.29L0,542.92v55.71l222.46-222.46Z"></path>   <polygon points="222.46 283.18 373.12 132.51 373.12 113.95 373.12 95.38 0 468.5 0 524.21 222.46 301.75 222.46 283.18"></polygon>   <path d="M246.38,595.71c5.64,.36,11.3,.61,17.03,.61,.32,0,.64-.03,.96-.03,6.54-.02,13-.36,19.42-.85l89.33-89.33v-18.57l77.54-77.54v-18.57l-204.27,204.27Z"></path>   <path d="M450.66,466.6l-121.22,121.22c4.89-1.27,9.72-2.66,14.5-4.2,0,0,6.4-2.17,12.76-4.48,5.56-2.11,11.06-4.34,16.43-6.81v-9.62l77.54-77.54v-18.57Z"></path> </svg>