<svg data-name="Layer 1" xmlns="http://www.w3.org/2000/svg" viewBox="0 0 622.48 622.48"><circle cx="138.69" cy="138.69" r="111.47" transform="rotate(-45 138.68863948 138.69328458)"></circle><circle cx="483.79" cy="138.69" r="111.47" transform="rotate(-13.28 483.8762123 138.69346106)"></circle><circle cx="138.69" cy="483.79" r="111.47" transform="rotate(-45 138.69299293 483.79148132)"></circle><circle cx="483.79" cy="483.79" r="111.47" transform="rotate(-13.28 483.87506778 483.86764853)"></circle><path d="M483.79 345.09c-50.76 0-95.22 27.43-119.39 68.23L154.8 311.23l209.6-102.09c24.17 40.8 68.63 68.23 119.39 68.23 76.47 0 138.7-62.22 138.7-138.69S560.26 0 483.79 0 345.1 62.22 345.1 138.69c0 20.69 4.59 40.32 12.74 57.97l-212.1 103.3v-22.75c73.21-3.68 131.64-64.4 131.64-138.51S215.16 0 138.69 0 0 62.22 0 138.69 58.43 273.52 131.64 277.2v68.07C58.43 348.96 0 409.68 0 483.79s62.21 138.69 138.69 138.69 138.7-62.21 138.7-138.69-58.43-134.83-131.64-138.52v-22.76l212.1 103.3c-8.16 17.65-12.74 37.28-12.74 57.97 0 76.47 62.21 138.69 138.69 138.69s138.7-62.21 138.7-138.69-62.22-138.7-138.7-138.7Zm0-330.99c68.7 0 124.59 55.89 124.59 124.59s-55.89 124.59-124.59 124.59-124.58-55.89-124.58-124.59S415.09 14.1 483.79 14.1ZM14.1 138.69c0-68.7 55.89-124.59 124.59-124.59s124.59 55.89 124.59 124.59-55.89 124.59-124.59 124.59S14.1 207.39 14.1 138.69Zm249.18 345.1c0 68.7-55.89 124.58-124.59 124.58S14.1 552.49 14.1 483.79 69.99 359.2 138.68 359.2s124.59 55.89 124.59 124.59Zm220.51 124.58c-68.7 0-124.58-55.89-124.58-124.58S415.1 359.2 483.79 359.2s124.59 55.89 124.59 124.59-55.89 124.58-124.59 124.58Z"></path></svg>