<svg id="Layer_1" data-name="Layer 1" xmlns="http://www.w3.org/2000/svg" viewBox="0 0 628.88 628.44">   <path d="M449.81,0c-54.03,0-102.5,24.08-135.36,62.04C281.58,24.08,233.1,0,179.07,0,80.33,0,0,80.33,0,179.07H0V449.37c0,98.74,80.33,179.07,179.07,179.07,54.03,0,102.51-24.08,135.37-62.04,32.86,37.96,81.34,62.04,135.36,62.04,98.74,0,179.07-80.33,179.07-179.07h0V179.07C628.88,80.33,548.55,0,449.81,0Zm0,87.42c50.54,0,91.65,41.11,91.65,91.65v116.53c-26.83-16.05-58.18-25.31-91.65-25.31s-64.82,9.26-91.65,25.31v-116.53c0-50.54,41.11-91.65,91.65-91.65Zm-270.73,0c50.54,0,91.66,41.12,91.66,91.66s-41.12,91.65-91.66,91.65-91.65-41.11-91.65-91.65,41.11-91.66,91.65-91.66Zm0,453.61c-50.54,0-91.65-41.11-91.65-91.65v-106.53c26.83,16.05,58.18,25.31,91.65,25.31s64.83-9.26,91.66-25.31v106.53c0,50.54-41.12,91.65-91.66,91.65Zm270.73,0c-50.54,0-91.65-41.12-91.65-91.66s41.11-91.65,91.65-91.65,91.65,41.11,91.65,91.65-41.11,91.66-91.65,91.66Z"></path> </svg>