<svg xmlns="http://www.w3.org/2000/svg" width="619.9" viewBox="0 0 619.9 620.3" height="620.3" xml:space="preserve" style="enable-background:new 0 0 619.9 620.3"><path d="M40.9 348.1s26.6 2.4 47.3-23.3l126.4-135.9s25.9-28.3 67.3-28.3c21.7 0 47.9 12.3 59.6 30.4 8.5 13.3 10.6 27.6 10.6 43V344.4c0 4.2 2.4 7.4 7.2 7.1 2.8-.2 3.9-1.4 5.9-3.4l104.4-113.3c12-12.5 22.9-26.6 37.4-36.4 10.3-6.9 26.7-14.8 48.3-14.8h37.4C544.5 75.3 436 0 310 0 138.8 0 0 138.9 0 310.1c0 12.8.8 25.5 2.3 37.9h38.6z"></path><path d="M575.5 273.2s-26.6-2.4-47.3 23.3L401.7 432.4S379.2 460 334.4 460c-21.7 0-47.9-12.3-59.6-30.4-8.5-13.3-10.6-26.9-10.6-42.2V275.6c0-4.2-2.4-7.4-7.2-7.1-2.8.2-3.9 1.4-5.9 3.4L146.7 385.1c-12 12.5-22.9 26.6-37.4 36.4-10.3 6.9-26.7 14.8-48.3 14.8l-33.7 1c48.5 107.9 156.9 183 282.8 183 171.2 0 310-138.9 310-310.1 0-12.5-.7-24.8-2.2-36.9h-42.4z"></path></svg>