<svg xmlns="http://www.w3.org/2000/svg" width="457.6" viewBox="0 0 457.6 623.2" height="623.2" xml:space="preserve" style="enable-background:new 0 0 457.6 623.2"><path d="M342.5 196.7c-28.2 0-56.5 7.6-82.6 17.5-53 20.1-102.3 55-161 55-65.2 0-98.9-64.4-98.9-64.4v106.4c66.3 65.4 144.9 44.4 220.3 10.4 41.2-18.6 82.9-40.3 129.2-40.3 67.5 0 108.1 64.4 108.1 64.4v-105c-51.3-49.8-115.1-44-115.1-44z"></path><path d="M190.1 0h77.4v202.4h-77.4zM0 451.9h190.1v72.4H133l95.8 98.9 95.8-98.9h-57.1v-72.4h190.1v-83.6H0z"></path></svg>