<svg data-name="Layer 1" xmlns="http://www.w3.org/2000/svg" viewBox="0 0 567.18 642.01"><path d="m557.36 495.75-44.45 25.66c-6.54 3.77-14.71-.95-14.71-8.5l.02-41.58c0-13.26-7.07-25.52-18.55-32.15l-48.97-28.27c-6.07-3.5-9.81-9.98-9.81-16.99V284.58c0-7.01 3.74-13.48 9.81-16.99l121.77-70.3c6.54-3.77 14.71.94 14.71 8.49v54.1c0 3.51-1.87 6.75-4.91 8.5l-61.8 35.61c-11.5 6.62-18.58 18.88-18.58 32.15v8.11c0 13.27 7.08 25.53 18.58 32.15l56.88 32.76c6.08 3.5 9.82 9.98 9.82 17v52.6c0 7.01-3.74 13.48-9.81 16.99Z"></path><circle cx="154.47" cy="288.54" r="37.1" transform="rotate(-85.93 154.4933583 288.54585397)"></circle><path d="m172.39 339.93 88.29-51.35c6.54-3.8 14.74.91 14.74 8.48v62.06c0 7.01-3.74 13.48-9.81 16.99l-21.25 12.27c-6.07 3.5-9.81 9.98-9.81 16.99v44.14c0 7.01 3.74 13.48 9.81 16.99l21.25 12.27c6.07 3.5 9.81 9.98 9.81 16.99v136.43c0 7.54-8.15 12.26-14.68 8.51L215 614.49c-6.1-3.5-9.86-9.99-9.86-17.02v-47.51c0-13.25-7.07-25.5-18.55-32.13l-14.14-8.16c-6.07-3.5-9.81-9.98-9.81-16.99V356.9c0-6.98 3.71-13.44 9.75-16.95v-.02Z"></path><path d="M320.69 427.43c0 13.74-7.47 25.74-18.58 32.15-5.63 3.25-12.03 4.96-18.53 4.95-20.49 0-37.1-16.61-37.1-37.1s16.61-37.1 37.1-37.1 37.1 16.61 37.1 37.1ZM131.58 566.05l-27.71-16c-11.48-6.63-18.55-18.88-18.55-32.13V407.8c0-13.26-7.07-25.5-18.55-32.13L9.81 342.78c-6.06-3.5-9.8-9.97-9.8-16.98v-48.22c0-7.56 8.2-12.28 14.74-8.48l121.79 70.84c6.04 3.51 9.75 9.97 9.75 16.95v200.67c0 7.55-8.17 12.27-14.71 8.49Zm169.99-87.29 48.14-27.79 40.12-23.16c6.54-3.77 14.71.94 14.71 8.49v37.54c0 7.01-3.74 13.48-9.81 16.99l-14.14 8.16c-11.48 6.63-18.55 18.88-18.55 32.13v66.37c0 7.03-3.76 13.53-9.87 17.02l-45.73 26.19c-6.54 3.74-14.68-.98-14.68-8.51V495.75c0-7.01 3.74-13.48 9.81-16.99Z"></path><path d="m388.19 513.43 78.94-45.58c6.54-3.77 14.71.94 14.71 8.49v51.68c0 7.01-3.74 13.48-9.81 16.99l-78.94 45.57c-6.54 3.77-14.71-.94-14.71-8.49v-51.66c0-7.01 3.74-13.48 9.81-16.99Z"></path><circle cx="283.59" cy="37.1" r="37.1"></circle><path d="M291.76 142.95v-37.56c0-7.01 3.74-13.48 9.81-16.99l58.12-33.56c6.05-3.49 13.5-3.5 19.56-.03l32.68 18.73c6.56 3.76 6.58 13.22.03 17l-105.48 60.9c-6.54 3.77-14.71-.94-14.71-8.49ZM150.6 93.75l35.99 20.79c11.47 6.63 18.54 18.88 18.54 32.13v138.28c0 7.56 8.2 12.28 14.74 8.48l45.79-26.63c6.04-3.51 9.75-9.97 9.75-16.95V105.39c0-7.01-3.74-13.48-9.81-16.99l-57.78-33.36c-6.07-3.5-13.54-3.5-19.61 0l-37.62 21.72c-6.54 3.77-6.54 13.21 0 16.98Zm244.13 312.42-47.4 27.37c-6.54 3.78-14.71-.94-14.71-8.49v-81.33c0-13.26-7.07-25.5-18.55-32.13l-12.5-7.22c-6.07-3.5-9.81-9.98-9.81-16.99v-61.69c0-7.55 8.17-12.27 14.71-8.49l88.26 50.96c6.07 3.5 9.81 9.98 9.81 16.99V389.2c0 7.01-3.74 13.48-9.81 16.99v-.02Z"></path><circle cx="412.71" cy="216.79" r="37.1"></circle><path d="m508 318.6 44.46-25.67c6.54-3.77 14.71.94 14.71 8.49v77.57c0 7.55-8.17 12.27-14.71 8.49L508 361.81c-6.07-3.5-9.81-9.98-9.81-16.99v-9.25c0-7.01 3.74-13.48 9.81-16.99v.02ZM387.99 123.25l49.65-28.67c3.04-1.75 6.77-1.75 9.81 0l110.42 63.74c6.54 3.77 6.54 13.21 0 16.99l-49.67 28.68c-3.04 1.75-6.77 1.75-9.81 0l-110.4-63.75c-6.54-3.77-6.54-13.21 0-16.99Z"></path><path d="m102.03 201.88-14.53 8.39c-11.48 6.63-18.55 18.88-18.55 32.13v22.3c0 7.56-8.2 12.28-14.74 8.48L9.76 247.31C3.72 243.8 0 237.34.01 230.36v-47.82c0-11.67 6.22-22.45 16.33-28.28 10.1-5.83 16.15-9.32 32.65 0l53.04 30.63c6.54 3.77 6.54 13.21 0 16.99Z" style="fill-rule:evenodd"></path><path d="M188.79 199.12v-52.79c0-6.98-3.71-13.44-9.75-16.95l-49.74-28.93c-6.08-3.53-13.58-3.55-19.67-.03l-45.9 26.5c-6.54 3.77-6.54 13.21 0 16.99l110.36 63.71c6.54 3.77 14.71-.94 14.71-8.49ZM54.27 521.41 9.81 495.75C3.74 492.25 0 485.77 0 478.76v-105.8c0-7.55 8.17-12.27 14.71-8.49l44.46 25.68c6.07 3.5 9.8 9.98 9.8 16.98v105.78c0 7.55-8.17 12.27-14.71 8.49Z"></path></svg>