<svg xmlns="http://www.w3.org/2000/svg" width="642" viewBox="0 0 642 553.8" height="553.8" style="overflow:visible;enable-background:new 0 0 642 553.8" xml:space="preserve"><path d="M439.8 0 269.6.1H99.5C44.6.1 0 44.6 0 99.6c0 9.5 1.3 18.7 3.9 27.4L99 502.5c8.5 29.6 35.7 51.2 67.9 51.2s59.4-21.6 67.9-51.2l14.8-53.2c2.4-8.7 10.5-15.1 20-15.1s17.6 6.4 20.1 15.1l14.7 53.2c8.5 29.6 35.7 51.2 67.9 51.2s59.4-21.6 67.9-51.2L535.4 127c2.5-8.7 3.9-17.9 3.9-27.5 0-54.9-44.6-99.5-99.5-99.5zm46.3 112.8L391 488.4c-2.3 8.1-9.8 14.1-18.6 14.1s-16.2-6-18.6-14.1l-14.7-53.2c-8.7-30.2-36.5-52.3-69.5-52.3s-60.8 22.1-69.5 52.3l-14.7 53.2c-2.3 8.1-9.8 14.1-18.6 14.1s-16.2-6-18.6-14.1l-95-375.6c-1.2-4.2-1.9-8.7-1.9-13.2 0-26.6 21.6-48.2 48.2-48.2h170.1l170.1-.1c26.6 0 48.2 21.6 48.2 48.2 0 4.6-.6 9.1-1.8 13.3z"></path><path d="M264.8 149.4c-4.6-4.5-11-7.3-17.9-7.3-14.2 0-25.7 11.5-25.7 25.7 0 7.2 3 13.7 7.8 18.4l369.5 360.3c4.6 4.5 11 7.3 17.9 7.3 14.2 0 25.7-11.5 25.7-25.7 0-7.2-3-13.7-7.7-18.4L264.8 149.4zM170.7 232.2v17.9h18.4l48.1-46.9-18.4-18zM198.4 258.9v18h18.4l47.9-46.8-18.3-18zM226.1 285.7v17.9h18.4l47.8-46.6-18.4-18zM253.8 312.5v17.9h18.4l47.7-46.5-18.4-18zM281.6 339.2v18h18.3l47.6-46.4-18.4-17.9z"></path></svg>