<svg data-name="Layer 1" xmlns="http://www.w3.org/2000/svg" viewBox="0 0 614.91 614.91"><path d="M467.48 307.46c0-88.38-71.64-160.02-160.02-160.02s-160.02 71.64-160.02 160.02 71.64 160.02 160.02 160.02 160.02-71.64 160.02-160.02Zm-160.02 71.1c-39.27 0-71.1-31.83-71.1-71.1s31.83-71.1 71.1-71.1 71.1 31.83 71.1 71.1-31.83 71.1-71.1 71.1Z"></path><path d="M454.9 88.92c39.27 0 71.1 31.83 71.1 71.1 0 32.85-22.39 60.22-52.66 68.38l43.86 79.06c57.43-24.29 97.72-81.16 97.72-147.44C614.91 71.64 543.27 0 454.9 0c-66.28 0-123.14 40.29-147.44 97.72l79.06 43.86c8.16-30.27 35.53-52.66 68.38-52.66ZM517.19 307.46l-43.86 79.06c30.27 8.16 52.66 35.53 52.66 68.38 0 39.27-31.83 71.1-71.1 71.1-32.85 0-60.22-22.39-68.38-52.66l-79.06 43.86c24.29 57.43 81.16 97.72 147.44 97.72 88.38 0 160.02-71.64 160.02-160.02 0-66.28-40.29-123.14-97.72-147.44Z"></path><path d="M160.02 525.99c-39.27 0-71.1-31.83-71.1-71.1 0-32.85 22.39-60.22 52.66-68.38l-43.86-79.06C40.29 331.75 0 388.62 0 454.9c0 88.38 71.64 160.02 160.02 160.02 66.28 0 123.14-40.29 147.44-97.72l-79.06-43.86c-8.16 30.27-35.53 52.66-68.38 52.66Z"></path><path d="m97.72 307.46 43.86-79.06c-30.27-8.16-52.66-35.53-52.66-68.38 0-39.27 31.83-71.1 71.1-71.1 32.85 0 60.22 22.39 68.38 52.66l79.06-43.86C283.16 40.29 226.3 0 160.02 0 71.64 0 0 71.64 0 160.02c0 66.28 40.29 123.14 97.72 147.44Z"></path></svg>