<svg id="Layer_1" data-name="Layer 1" xmlns="http://www.w3.org/2000/svg" viewBox="0 0 622.71 622.71">
  <path d="M311.36,0C139.4,0,0,139.4,0,311.36s139.4,311.36,311.36,311.36,311.36-139.4,311.36-311.36S483.31,0,311.36,0Zm42.69,311.36c0,23.81-19.3,43.12-43.12,43.12s-43.12-19.3-43.12-43.12h86.23Zm-132.55,0h35.02c0,30.01,24.41,54.42,54.42,54.42s54.42-24.41,54.42-54.42h0s35.02,0,35.02,0h0c0,49.31-40.12,89.44-89.44,89.44s-89.43-40.12-89.43-89.43h0Zm-44.51,0h29.08c0,57.82,47.04,104.86,104.86,104.86s104.87-47.04,104.87-104.86h0s29.08,0,29.08,0h0c0,73.86-60.09,133.94-133.95,133.94s-133.94-60.09-133.94-133.94h0Zm-44.8,0h23.74c0,85.47,69.54,155.01,155.01,155.01s155.01-69.54,155.01-155.01h0s23.74,0,23.74,0h0c0,98.56-80.19,178.75-178.75,178.75s-178.75-80.18-178.75-178.75h0Zm-45.99,0h20.77c0,112.47,91.5,203.97,203.97,203.97s203.97-91.5,203.97-203.97h0s20.77,0,20.77,0h0c0,123.92-100.82,224.74-224.74,224.74s-224.74-100.82-224.74-224.74h0Zm224.74,271.32c-149.61,0-271.32-121.71-271.32-271.32h0s18.99,0,18.99,0h0c0,139.14,113.2,252.34,252.33,252.34s252.34-113.2,252.34-252.33h0s18.99,0,18.99,0h0c0,149.61-121.71,271.32-271.33,271.32Z"></path>
</svg>