<svg data-name="Layer 1" xmlns="http://www.w3.org/2000/svg" viewBox="0 0 608.5 555.81"><path d="M556.53 51.96C523.02 18.46 478.29 0 430.56 0S338.1 18.46 304.59 51.96l-.28.28-.28-.28C270.53 18.46 225.79 0 178.06 0S85.6 18.46 52.09 51.96c-69.46 69.46-69.46 182.48 0 251.95l128.42 128.41c.28.28.73.28 1.02 0l14.75-14.75c.13-.14.21-.32.21-.51V191.85c0-10.87 7.66-20.02 17.81-21.27 8.95-1.12 17.45 3.7 21.14 11.99.14.31.47.47.8.41.33-.07.57-.36.57-.7V122.4c0-12.37 10.07-22.44 22.44-22.44 8.49 0 16.16 4.8 20.02 12.54.15.3.48.45.81.38.32-.08.55-.37.55-.7V96.55c0-6.65 2.85-13.04 7.82-17.54 5.03-4.54 11.52-6.69 18.26-5.99 11.9 1.21 21.23 12.05 21.23 24.68v32.51c0 .36.27.66.62.71.34.06.69-.18.79-.52 3.18-11.6 14.53-19.04 26.37-17.19 11.4 1.73 19.99 12.25 19.99 24.47v195.37c0 4.22 2.43 7.85 6.33 9.47 3.91 1.61 8.18.76 11.17-2.22l35.45-35.46c10.49-10.5 27.56-10.49 38.06 0l13.98 13.98-206.34 206.34c-.13.14-.21.32-.21.51s.08.38.21.51l29.41 29.41c.14.14.32.21.51.21s.37-.07.51-.21L556.5 303.9c33.51-33.51 51.96-78.25 51.96-125.98S590 85.46 556.5 51.95Z"></path></svg>