<svg xmlns="http://www.w3.org/2000/svg" width="611.6" viewBox="0 0 611.6 622.1" height="622.1" xml:space="preserve"><path d="M604.2 153.7 465.7 8.3c-5-5.3-12-8.3-19.3-8.3H169.5c-7.1 0-14.1 2.9-19.1 8L7.6 153.6c-4.9 5-7.6 11.7-7.6 18.7v277.6c0 7 2.7 13.7 7.6 18.7l142.8 145.6c5 5.1 11.9 8 19.1 8h276.9c7.3 0 14.3-3 19.3-8.3l138.5-145.4c4.8-5 7.4-11.5 7.4-18.4v-278c0-6.9-2.6-13.4-7.4-18.4zM461.3 304.1 322.8 165.6h126.6l138.5 138.5H461.3zm-309.4 12.3 139.2 139.2H162.9L23.8 316.4h128.1zM288.2 433 182.4 327.2c-9.8-9.8-9.8-25.7 0-35.5L288 186.1c9.8-9.8 25.7-9.8 35.5 0l105.7 105.7c9.8 9.8 9.8 25.6 0 35.4L323.4 433c-9.7 9.7-25.5 9.7-35.2 0zM455.7 17.9l138.5 145.4c2.3 2.4 3.5 5.5 3.5 8.8v122.1L463.2 159.7c-5.2-5.2-12.2-8.1-19.5-8.1H314.2c-7.3 0-14.4 2.9-19.6 8.1L151.9 302.5h-138V172.3c0-2.5.7-4.9 2-6.9h131.2c7.4 0 14.5-3 19.7-8.2l142-143.3h137.6c3.5 0 6.9 1.5 9.3 4zm-295.3-.2c2.4-2.4 5.7-3.8 9.1-3.8h119.7L152.9 151.5H29.2L160.4 17.7zm0 586.6L17.6 458.8c-2.3-2.4-3.7-5.6-3.7-8.9V326.3l137.2 137.3c3.9 3.9 9.1 6 14.5 6h128.7c7.3 0 14.4-2.9 19.6-8.1L458.1 318h139.6c0 .7-.6 135.5-.6 135.5H464.3c-7.3 0-14.3 2.9-19.5 8.1L299.4 608.2h-130c-3.4 0-6.6-1.4-9-3.9zm295.3-.1c-2.4 2.5-5.8 4-9.2 4H319l139.7-140.8h127.2L455.7 604.2z"></path></svg>