<svg xmlns="http://www.w3.org/2000/svg" width="642" viewBox="0 0 642 642" height="642" data-name="Layer 1"><path d="M588.46 346.68h52.52C627.95 511.93 489.6 642 321.01 642 143.74 642 0 498.26 0 321h208.2c0-62.27 50.53-112.8 112.8-112.8 57.91 0 105.67 43.72 112.03 99.96h.19C426.74 208.65 343.92 130 242.8 130S66.06 201.97 53.54 295.32H1.03C14.06 130.07 152.41 0 321 0c177.26 0 321 143.74 321 321H433.8c0 62.27-50.53 112.8-112.8 112.8-57.91 0-105.67-43.72-112.03-99.96h-.19C215.26 433.35 298.08 512 399.2 512s176.74-71.97 189.26-165.32Z"></path></svg>