<svg data-name="Layer 1" xmlns="http://www.w3.org/2000/svg" viewBox="0 0 607.73 491.14"><path d="M580.05 4.6v121.75l-52.64-71.28h-51.95l-28.19 38.18-28.19-38.18h-51.95l-28.19 38.18-28.19-38.18H258.8l-51.66 69.95V4.6h-27.68v351.84c-21.1-15.9-52.07-24.04-85.35-19.94-56.97 7.03-98.9 47.1-93.67 89.51 5.23 42.41 55.64 71.09 112.6 64.07 53.75-6.63 94.08-42.7 94.04-82.39h.05V258.98h164.39l-60-91.53 27.4-37.11 40.29 54.56v73.79h27.76V184.9l40.29-54.56 27.42 37.13-59.99 91.51h165.35v97.47c-21.1-15.9-52.07-24.04-85.35-19.94-56.95 7.03-98.88 47.1-93.65 89.51 5.23 42.41 55.64 71.09 112.6 64.07 53.75-6.63 94.08-42.7 94.04-82.39h.05V4.6h-27.68ZM207.13 162.11l63.75-86.33v72.01l-63.75 97.25V162.1Zm91.52-14.31V75.78l26.59 36.01-26.59 36Zm53.98-36 26.59-36.01v72.03l-26.59-36.01Zm54.36 36.01V75.78l26.59 36.01-26.59 36.01Zm80.58-72.03v72.03l-26.59-36.01 26.59-36.01Zm27.76 71.97V75.78l64.73 87.66v83.07l-64.73-98.75Z"></path><path d="M284.76 44.48c12.28 0 22.24-9.96 22.24-22.24S297.05 0 284.76 0s-22.24 9.96-22.24 22.24 9.96 22.24 22.24 22.24ZM393.1 44.48c12.28 0 22.24-9.96 22.24-22.24S405.38 0 393.1 0s-22.24 9.96-22.24 22.24 9.96 22.24 22.24 22.24ZM501.46 44.48c12.28 0 22.24-9.96 22.24-22.24S513.74 0 501.46 0s-22.24 9.96-22.24 22.24 9.96 22.24 22.24 22.24Z"></path></svg>