<svg xmlns="http://www.w3.org/2000/svg" width="642" viewBox="0 0 642 642" height="642" style="overflow:visible;enable-background:new 0 0 642 642" xml:space="preserve"><path d="M642 321c0 177.3-143.7 321-321 321S0 498.3 0 321 143.7 0 321 0s321 143.7 321 321zm-574.4-5.6c2.9-47.9 42.6-85.8 91.3-85.8 38.7 0 71.8 24 85.1 58l.1-.1c5.8 19.4 23.8 33.6 45.1 33.6 26.1 0 47.1-21.1 47.1-47.1 0-8.9-2.3-16.7-6.5-24-.1-.1-.1-.1-.1-.2-25-44.6-72.7-74.7-127.4-74.7-78.8 0-143 62.4-145.9 140.4 0 3.1 2.5 5.6 5.6 5.6 3.1-.1 5.6-2.6 5.6-5.7zm285.8-38c7.2 24.9 29.2 43.7 56.3 43.7 41.7 0 69.5-42.6 53.5-80.4h.1c-32.3-83-113-142-207.3-142-120.7 0-219.2 96.7-222.3 216.6 0 3.1 2.6 5.6 5.6 5.6 3.1 0 5.6-2.5 5.6-5.6 3-84.1 72.3-151.6 157.2-151.6 71.8 0 132.4 48.1 151.3 113.7zm263.7-47.6c-39-126.4-157-218.5-296.1-218.5-168.9 0-306.7 135.9-309.7 304.2 0 3.1 2.4 5.6 5.6 5.6s5.6-2.6 5.6-5.6c3-126.2 106.6-228 233.5-228 109.9 0 202.4 76.4 227 178.9.4.6 11.6 54.7 67.9 54.7 47.7-.1 80.9-46.8 66.2-91.3z"></path></svg>