<svg xmlns="http://www.w3.org/2000/svg" viewBox="0 0 642 506.72"><path d="M236.62 372.72c-58.19-7.51-103.14-57.24-103.14-117.47 0-65.42 53.03-118.45 118.45-118.45s118.45 53.03 118.45 118.45h133.48c0-139.14-112.79-251.93-251.93-251.93S0 116.11 0 255.25s104.61 243.56 236.62 251.47v-134Z"></path><path d="M363.85 255.25v26.67c0 40.4 32.87 73.27 73.27 73.27s73.27-32.87 73.27-73.27V0H642v291.31c0 116.12-94.13 210.25-210.25 210.25s-210.26-94.13-210.26-210.25c0-12.29 1.06-24.34 3.08-36.06h139.28Z"></path></svg>