<svg data-name="Layer 1" xmlns="http://www.w3.org/2000/svg" viewBox="0 0 605.29 605.29"><path d="M336.27 304.12c0-19.85-16.01-36.01-35.8-36.3-1.6.01-3.17.14-4.75.24-18.04 2.1-32.1 17.46-32.1 36.06 0 20.03 16.3 36.32 36.33 36.32s36.32-16.29 36.32-36.32Z"></path><path d="M346.29 222.5c-13.07 0-25.68 2.03-37.54 5.77 62.48 4.03 112.11 55.99 112.11 119.47s-49.64 115.45-112.12 119.47c11.86 3.74 24.47 5.77 37.55 5.77 69.06 0 125.24-56.18 125.24-125.24S415.35 222.5 346.29 222.5Z"></path><path d="M135.37 301.98c0-114.03 90.97-207.15 204.13-210.75-11.98-2.08-24.29-3.23-36.86-3.23-118.36 0-214.65 96.29-214.65 214.65S184.28 517.3 302.64 517.3c14.84 0 29.33-1.52 43.33-4.4-2.74 0-5.47-.07-8.17-.21-112.38-4.48-202.43-97.25-202.43-210.71Z"></path><path d="M225.69 321.17c-2.95 8.33-4.64 17.25-4.64 26.57 0 44.08 35.86 79.94 79.94 79.94s79.94-35.86 79.94-79.94c0-10.71-2.15-20.92-5.99-30.26-6.34 35.69-37.52 62.89-75 62.89s-66.48-25.34-74.26-59.19Z"></path><path d="M346.29 130.98c-94.29 0-171 76.71-171 171 0 15.35 2.07 30.22 5.88 44.39.75-90.44 74.51-163.78 165.12-163.78s164.38 73.35 165.13 163.78c3.78-14.06 5.84-28.82 5.87-44.05 0-3.17-.1-6.32-.24-9.45-4.76-90.07-79.53-161.88-170.76-161.88Z"></path><path d="M0 0v605.29h605.29V0H0Zm557.22 302.64c0 140.37-114.2 254.57-254.57 254.57S48.07 443.02 48.07 302.64 162.27 48.07 302.64 48.07 550.7 155.91 556.91 290.8c.19 3.7.3 7.42.3 11.17v.66Z"></path></svg>