<svg data-name="Layer 1" xmlns="http://www.w3.org/2000/svg" viewBox="0 0 621.19 456.05"><path d="M498.75 0H122.43L0 130.38v38.26h62.15v287.41H97.7v-228.1c0-32.71 26.61-59.31 59.32-59.31s59.13 26.44 59.3 59v228.23h.02v.18h35.55v-228.1c0-.1-.02-.21-.02-.31.07-32.65 26.65-59.19 59.31-59.19s59.31 26.61 59.31 59.31v68.12c-14.97-31.75-47.18-53.77-84.61-53.77-1.42 0-2.8.15-4.21.21 4.29 46.15 42.08 82.49 88.82 84.64v46.32c-15.46-36.15-51.31-61.53-93.2-61.53-1.54 0-3.04.16-4.56.23 4.7 50.38 46.42 89.95 97.76 91.54v52.33h35.55v-.05h.01v-52.28c51.34-1.59 93.06-41.16 97.76-91.54-1.52-.07-3.02-.23-4.56-.23-41.89 0-77.74 25.38-93.2 61.53v-46.32c46.74-2.16 84.53-38.49 88.82-84.64-1.41-.06-2.79-.21-4.21-.21-37.43 0-69.64 22.01-84.61 53.77v-68.17c0-32.71 26.61-59.31 59.32-59.31s59.31 26.61 59.31 59.31v228.1h35.55V168.64h60.95v-38.26L498.75 0ZM46.23 133.09l91.59-97.54h345.55l91.59 97.53H46.23Z"></path></svg>