<svg xmlns="http://www.w3.org/2000/svg" width="600" viewBox="0 0 600 467.77" height="467.77" style="overflow:visible;enable-background:new 0 0 600 467.77" xml:space="preserve"><path d="M418.32 0c-26.09 0-47.27 21.18-47.27 47.26 0 26.09 21.18 47.27 47.27 47.27 26.09 0 47.26-21.18 47.26-47.27C465.59 21.18 444.41 0 418.32 0zM181.68 0c26.09 0 47.27 21.18 47.27 47.26 0 26.09-21.18 47.27-47.27 47.27-26.09 0-47.26-21.18-47.26-47.27C134.41 21.18 155.59 0 181.68 0zM300 116.09c25.45 0 46.12 20.67 46.12 46.12s-20.67 46.12-46.12 46.12c-25.45 0-46.12-20.67-46.12-46.12s20.67-46.12 46.12-46.12zm0-38.93-84.73 84.74L300 245.11l84.73-83.21L300 77.16zm-32.14 390.61V278.78l-52.91-52.08v241.07h-64.27V163.5h-.18l.12-.12L0 15.11h65.79l117.61 115.5L300 14l116.6 116.6L534.21 15.1H600L449.37 163.38l.12.12h-.18v304.27h-64.27V226.7l-52.91 52.08v188.99h-64.27z" style="fill-rule:evenodd;clip-rule:evenodd"></path></svg>