<svg data-name="Layer 1" xmlns="http://www.w3.org/2000/svg" viewBox="0 0 615.85 387.72"><path d="M125.85 387.72h138.16l-69.08-112.49-69.08 112.49z"></path><circle cx="194.93" cy="234.95" r="40.28" transform="rotate(-67.5 194.9307158 234.94833771)"></circle><path d="M340.88 387.72h160.48l-80.24-194.16-80.24 194.16z"></path><circle cx="421.12" cy="153.28" r="40.28"></circle><path d="M419.12 0c-41.4.38-79.75 13.73-111.19 36.17C276.49 13.73 238.13.38 196.73 0 88.53-.98 0 89.89 0 198.09v189.02h81.83V194.93c0-62.2 50.89-113.1 113.1-113.1 55.56 0 102.31 40.67 111.65 93.67.28 1.59 2.53 1.59 2.8 0 9.29-53.03 55.96-93.67 111.54-93.67 62.2 0 113.1 50.89 113.1 113.1v192.19h81.83V198.09C615.85 89.89 527.32-.98 419.12 0Z"></path></svg>