<svg xmlns="http://www.w3.org/2000/svg" width="588.1" viewBox="0 0 588.1 593.2" height="593.2" xml:space="preserve"><path d="M14.5 282.7h-.2c-7.8 0-14.2 6.4-14.2 14.2s6.4 14.2 14.2 14.2h.2c7.8 0 14.2-6.4 14.2-14.2s-6.4-14.2-14.2-14.2zM45.6 282.7h-.2c-7.8 0-14.2 6.4-14.2 14.2s6.4 14.2 14.2 14.2h.2c7.8 0 14.2-6.4 14.2-14.2s-6.4-14.2-14.2-14.2zM76.6 282.7h-.2c-7.8 0-14.2 6.4-14.2 14.2s6.4 14.2 14.2 14.2h.2c7.8 0 14.2-6.4 14.2-14.2s-6.3-14.2-14.2-14.2zM107.7 282.7h-.2c-7.8 0-14.2 6.4-14.2 14.2s6.4 14.2 14.2 14.2h.2c7.8 0 14.2-6.4 14.2-14.2s-6.4-14.2-14.2-14.2zM138.8 282.7h-.2c-7.8 0-14.2 6.4-14.2 14.2s6.4 14.2 14.2 14.2h.2c7.8 0 14.2-6.4 14.2-14.2s-6.4-14.2-14.2-14.2zM169.9 282.7h-.2c-7.8 0-14.2 6.4-14.2 14.2s6.4 14.2 14.2 14.2h.2c7.8 0 14.2-6.4 14.2-14.2s-6.4-14.2-14.2-14.2zM200.9 282.7h-.2c-7.8 0-14.2 6.4-14.2 14.2s6.4 14.2 14.2 14.2h.2c7.8 0 14.2-6.4 14.2-14.2s-6.3-14.2-14.2-14.2zM232 282.7h-.2c-7.8 0-14.2 6.4-14.2 14.2s6.4 14.2 14.2 14.2h.2c7.8 0 14.2-6.4 14.2-14.2s-6.4-14.2-14.2-14.2zM294.2 282.7h-.2c-7.8 0-14.2 6.4-14.2 14.2s6.4 14.2 14.2 14.2h.2c7.8 0 14.2-6.4 14.2-14.2s-6.4-14.2-14.2-14.2zM263.1 282.7h-.2c-7.8 0-14.2 6.4-14.2 14.2s6.4 14.2 14.2 14.2h.2c7.8 0 14.2-6.4 14.2-14.2s-6.4-14.2-14.2-14.2zM14.5 313.5h-.2c-7.8 0-14.2 6.4-14.2 14.2 0 7.8 6.4 14.2 14.2 14.2h.2c7.8 0 14.2-6.4 14.2-14.2 0-7.8-6.4-14.2-14.2-14.2zM45.6 313.5h-.2c-7.8 0-14.2 6.4-14.2 14.2 0 7.8 6.4 14.2 14.2 14.2h.2c7.8 0 14.2-6.4 14.2-14.2 0-7.8-6.4-14.2-14.2-14.2zM76.6 313.5h-.2c-7.8 0-14.2 6.4-14.2 14.2 0 7.8 6.4 14.2 14.2 14.2h.2c7.8 0 14.2-6.4 14.2-14.2.1-7.8-6.3-14.2-14.2-14.2zM107.7 313.5h-.2c-7.8 0-14.2 6.4-14.2 14.2 0 7.8 6.4 14.2 14.2 14.2h.2c7.8 0 14.2-6.4 14.2-14.2 0-7.8-6.4-14.2-14.2-14.2zM138.8 313.5h-.2c-7.8 0-14.2 6.4-14.2 14.2 0 7.8 6.4 14.2 14.2 14.2h.2c7.8 0 14.2-6.4 14.2-14.2 0-7.8-6.4-14.2-14.2-14.2zM169.9 313.5h-.2c-7.8 0-14.2 6.4-14.2 14.2 0 7.8 6.4 14.2 14.2 14.2h.2c7.8 0 14.2-6.4 14.2-14.2 0-7.8-6.4-14.2-14.2-14.2zM200.9 313.5h-.2c-7.8 0-14.2 6.4-14.2 14.2 0 7.8 6.4 14.2 14.2 14.2h.2c7.8 0 14.2-6.4 14.2-14.2.1-7.8-6.3-14.2-14.2-14.2zM232 313.5h-.2c-7.8 0-14.2 6.4-14.2 14.2 0 7.8 6.4 14.2 14.2 14.2h.2c7.8 0 14.2-6.4 14.2-14.2 0-7.8-6.4-14.2-14.2-14.2zM294.2 313.5h-.2c-7.8 0-14.2 6.4-14.2 14.2 0 7.8 6.4 14.2 14.2 14.2h.2c7.8 0 14.2-6.4 14.2-14.2 0-7.8-6.4-14.2-14.2-14.2zM263.1 313.5h-.2c-7.8 0-14.2 6.4-14.2 14.2 0 7.8 6.4 14.2 14.2 14.2h.2c7.8 0 14.2-6.4 14.2-14.2 0-7.8-6.4-14.2-14.2-14.2zM14.5 344.9h-.2c-7.8 0-14.2 6.4-14.2 14.2s6.4 14.2 14.2 14.2h.2c7.8 0 14.2-6.4 14.2-14.2s-6.4-14.2-14.2-14.2zM45.6 344.9h-.2c-7.8 0-14.2 6.4-14.2 14.2s6.4 14.2 14.2 14.2h.2c7.8 0 14.2-6.4 14.2-14.2s-6.4-14.2-14.2-14.2zM76.6 344.9h-.2c-7.8 0-14.2 6.4-14.2 14.2s6.4 14.2 14.2 14.2h.2c7.8 0 14.2-6.4 14.2-14.2s-6.3-14.2-14.2-14.2zM107.7 344.9h-.2c-7.8 0-14.2 6.4-14.2 14.2s6.4 14.2 14.2 14.2h.2c7.8 0 14.2-6.4 14.2-14.2s-6.4-14.2-14.2-14.2zM138.8 344.9h-.2c-7.8 0-14.2 6.4-14.2 14.2s6.4 14.2 14.2 14.2h.2c7.8 0 14.2-6.4 14.2-14.2s-6.4-14.2-14.2-14.2zM169.9 344.9h-.2c-7.8 0-14.2 6.4-14.2 14.2s6.4 14.2 14.2 14.2h.2c7.8 0 14.2-6.4 14.2-14.2s-6.4-14.2-14.2-14.2zM200.9 344.9h-.2c-7.8 0-14.2 6.4-14.2 14.2s6.4 14.2 14.2 14.2h.2c7.8 0 14.2-6.4 14.2-14.2s-6.3-14.2-14.2-14.2zM232 344.9h-.2c-7.8 0-14.2 6.4-14.2 14.2s6.4 14.2 14.2 14.2h.2c7.8 0 14.2-6.4 14.2-14.2s-6.4-14.2-14.2-14.2zM294.2 344.9h-.2c-7.8 0-14.2 6.4-14.2 14.2s6.4 14.2 14.2 14.2h.2c7.8 0 14.2-6.4 14.2-14.2s-6.4-14.2-14.2-14.2zM263.1 344.9h-.2c-7.8 0-14.2 6.4-14.2 14.2s6.4 14.2 14.2 14.2h.2c7.8 0 14.2-6.4 14.2-14.2s-6.4-14.2-14.2-14.2zM14.5 376.3h-.2c-7.8 0-14.2 6.4-14.2 14.2s6.4 14.2 14.2 14.2h.2c7.8 0 14.2-6.4 14.2-14.2s-6.4-14.2-14.2-14.2zM45.6 376.3h-.2c-7.8 0-14.2 6.4-14.2 14.2s6.4 14.2 14.2 14.2h.2c7.8 0 14.2-6.4 14.2-14.2s-6.4-14.2-14.2-14.2zM76.6 376.3h-.2c-7.8 0-14.2 6.4-14.2 14.2s6.4 14.2 14.2 14.2h.2c7.8 0 14.2-6.4 14.2-14.2s-6.3-14.2-14.2-14.2zM107.7 376.3h-.2c-7.8 0-14.2 6.4-14.2 14.2s6.4 14.2 14.2 14.2h.2c7.8 0 14.2-6.4 14.2-14.2s-6.4-14.2-14.2-14.2zM138.8 376.3h-.2c-7.8 0-14.2 6.4-14.2 14.2s6.4 14.2 14.2 14.2h.2c7.8 0 14.2-6.4 14.2-14.2s-6.4-14.2-14.2-14.2zM169.9 376.3h-.2c-7.8 0-14.2 6.4-14.2 14.2s6.4 14.2 14.2 14.2h.2c7.8 0 14.2-6.4 14.2-14.2s-6.4-14.2-14.2-14.2zM200.9 376.3h-.2c-7.8 0-14.2 6.4-14.2 14.2s6.4 14.2 14.2 14.2h.2c7.8 0 14.2-6.4 14.2-14.2s-6.3-14.2-14.2-14.2zM232 376.3h-.2c-7.8 0-14.2 6.4-14.2 14.2s6.4 14.2 14.2 14.2h.2c7.8 0 14.2-6.4 14.2-14.2s-6.4-14.2-14.2-14.2zM294.2 376.3h-.2c-7.8 0-14.2 6.4-14.2 14.2s6.4 14.2 14.2 14.2h.2c7.8 0 14.2-6.4 14.2-14.2s-6.4-14.2-14.2-14.2zM263.1 376.3h-.2c-7.8 0-14.2 6.4-14.2 14.2s6.4 14.2 14.2 14.2h.2c7.8 0 14.2-6.4 14.2-14.2s-6.4-14.2-14.2-14.2zM14.5 407.7h-.2c-7.8 0-14.2 6.4-14.2 14.2 0 7.8 6.4 14.2 14.2 14.2h.2c7.8 0 14.2-6.4 14.2-14.2 0-7.8-6.4-14.2-14.2-14.2zM45.6 407.7h-.2c-7.8 0-14.2 6.4-14.2 14.2 0 7.8 6.4 14.2 14.2 14.2h.2c7.8 0 14.2-6.4 14.2-14.2 0-7.8-6.4-14.2-14.2-14.2zM76.6 407.7h-.2c-7.8 0-14.2 6.4-14.2 14.2 0 7.8 6.4 14.2 14.2 14.2h.2c7.8 0 14.2-6.4 14.2-14.2.1-7.8-6.3-14.2-14.2-14.2zM107.7 407.7h-.2c-7.8 0-14.2 6.4-14.2 14.2 0 7.8 6.4 14.2 14.2 14.2h.2c7.8 0 14.2-6.4 14.2-14.2 0-7.8-6.4-14.2-14.2-14.2zM138.8 407.7h-.2c-7.8 0-14.2 6.4-14.2 14.2 0 7.8 6.4 14.2 14.2 14.2h.2c7.8 0 14.2-6.4 14.2-14.2 0-7.8-6.4-14.2-14.2-14.2zM169.9 407.7h-.2c-7.8 0-14.2 6.4-14.2 14.2 0 7.8 6.4 14.2 14.2 14.2h.2c7.8 0 14.2-6.4 14.2-14.2 0-7.8-6.4-14.2-14.2-14.2zM200.9 407.7h-.2c-7.8 0-14.2 6.4-14.2 14.2 0 7.8 6.4 14.2 14.2 14.2h.2c7.8 0 14.2-6.4 14.2-14.2.1-7.8-6.3-14.2-14.2-14.2zM232 407.7h-.2c-7.8 0-14.2 6.4-14.2 14.2 0 7.8 6.4 14.2 14.2 14.2h.2c7.8 0 14.2-6.4 14.2-14.2 0-7.8-6.4-14.2-14.2-14.2zM294.2 407.7h-.2c-7.8 0-14.2 6.4-14.2 14.2 0 7.8 6.4 14.2 14.2 14.2h.2c7.8 0 14.2-6.4 14.2-14.2 0-7.8-6.4-14.2-14.2-14.2zM263.1 407.7h-.2c-7.8 0-14.2 6.4-14.2 14.2 0 7.8 6.4 14.2 14.2 14.2h.2c7.8 0 14.2-6.4 14.2-14.2 0-7.8-6.4-14.2-14.2-14.2zM449.6 282.7h-.2c-7.8 0-14.2 6.4-14.2 14.2s6.4 14.2 14.2 14.2h.2c7.8 0 14.2-6.4 14.2-14.2s-6.4-14.2-14.2-14.2zM480.6 282.7h-.2c-7.8 0-14.2 6.4-14.2 14.2s6.4 14.2 14.2 14.2h.2c7.8 0 14.2-6.4 14.2-14.2s-6.3-14.2-14.2-14.2zM511.7 282.7h-.2c-7.8 0-14.2 6.4-14.2 14.2s6.4 14.2 14.2 14.2h.2c7.8 0 14.2-6.4 14.2-14.2s-6.4-14.2-14.2-14.2zM542.8 282.7h-.2c-7.8 0-14.2 6.4-14.2 14.2s6.4 14.2 14.2 14.2h.2c7.8 0 14.2-6.4 14.2-14.2s-6.4-14.2-14.2-14.2zM573.9 282.7h-.2c-7.8 0-14.2 6.4-14.2 14.2s6.4 14.2 14.2 14.2h.2c7.8 0 14.2-6.4 14.2-14.2s-6.4-14.2-14.2-14.2zM45.6 251.3h-.2c-7.8 0-14.2 6.4-14.2 14.2 0 7.8 6.4 14.2 14.2 14.2h.2c7.8 0 14.2-6.4 14.2-14.2 0-7.8-6.4-14.2-14.2-14.2zM76.6 251.3h-.2c-7.8 0-14.2 6.4-14.2 14.2 0 7.8 6.4 14.2 14.2 14.2h.2c7.8 0 14.2-6.4 14.2-14.2.1-7.8-6.3-14.2-14.2-14.2zM107.7 251.3h-.2c-7.8 0-14.2 6.4-14.2 14.2 0 7.8 6.4 14.2 14.2 14.2h.2c7.8 0 14.2-6.4 14.2-14.2 0-7.8-6.4-14.2-14.2-14.2zM138.8 251.3h-.2c-7.8 0-14.2 6.4-14.2 14.2 0 7.8 6.4 14.2 14.2 14.2h.2c7.8 0 14.2-6.4 14.2-14.2 0-7.8-6.4-14.2-14.2-14.2zM76.6 219.8h-.2c-7.8 0-14.2 6.4-14.2 14.2s6.4 14.2 14.2 14.2h.2c7.8 0 14.2-6.4 14.2-14.2s-6.3-14.2-14.2-14.2zM107.7 219.8h-.2c-7.8 0-14.2 6.4-14.2 14.2s6.4 14.2 14.2 14.2h.2c7.8 0 14.2-6.4 14.2-14.2s-6.4-14.2-14.2-14.2zM138.8 219.8h-.2c-7.8 0-14.2 6.4-14.2 14.2s6.4 14.2 14.2 14.2h.2c7.8 0 14.2-6.4 14.2-14.2s-6.4-14.2-14.2-14.2zM107.7 188.4h-.2c-7.8 0-14.2 6.4-14.2 14.2s6.4 14.2 14.2 14.2h.2c7.8 0 14.2-6.4 14.2-14.2s-6.4-14.2-14.2-14.2zM138.8 188.4h-.2c-7.8 0-14.2 6.4-14.2 14.2s6.4 14.2 14.2 14.2h.2c7.8 0 14.2-6.4 14.2-14.2s-6.4-14.2-14.2-14.2zM138.8 157h-.2c-7.8 0-14.2 6.4-14.2 14.2 0 7.8 6.4 14.2 14.2 14.2h.2c7.8 0 14.2-6.4 14.2-14.2 0-7.8-6.4-14.2-14.2-14.2zM169.9 125.6h-.2c-7.8 0-14.2 6.4-14.2 14.2 0 7.8 6.4 14.2 14.2 14.2h.2c7.8 0 14.2-6.4 14.2-14.2 0-7.8-6.4-14.2-14.2-14.2zM200.9 125.6h-.2c-7.8 0-14.2 6.4-14.2 14.2 0 7.8 6.4 14.2 14.2 14.2h.2c7.8 0 14.2-6.4 14.2-14.2.1-7.8-6.3-14.2-14.2-14.2zM232 125.6h-.2c-7.8 0-14.2 6.4-14.2 14.2 0 7.8 6.4 14.2 14.2 14.2h.2c7.8 0 14.2-6.4 14.2-14.2 0-7.8-6.4-14.2-14.2-14.2zM294.2 125.6h-.2c-7.8 0-14.2 6.4-14.2 14.2 0 7.8 6.4 14.2 14.2 14.2h.2c7.8 0 14.2-6.4 14.2-14.2 0-7.8-6.4-14.2-14.2-14.2zM263.1 125.6h-.2c-7.8 0-14.2 6.4-14.2 14.2 0 7.8 6.4 14.2 14.2 14.2h.2c7.8 0 14.2-6.4 14.2-14.2 0-7.8-6.4-14.2-14.2-14.2zM200.9 94.2h-.2c-7.8 0-14.2 6.4-14.2 14.2s6.4 14.2 14.2 14.2h.2c7.8 0 14.2-6.4 14.2-14.2s-6.3-14.2-14.2-14.2zM232 94.2h-.2c-7.8 0-14.2 6.4-14.2 14.2s6.4 14.2 14.2 14.2h.2c7.8 0 14.2-6.4 14.2-14.2s-6.4-14.2-14.2-14.2zM294.2 94.2h-.2c-7.8 0-14.2 6.4-14.2 14.2s6.4 14.2 14.2 14.2h.2c7.8 0 14.2-6.4 14.2-14.2s-6.4-14.2-14.2-14.2zM263.1 94.2h-.2c-7.8 0-14.2 6.4-14.2 14.2s6.4 14.2 14.2 14.2h.2c7.8 0 14.2-6.4 14.2-14.2s-6.4-14.2-14.2-14.2zM232 62.8h-.2c-7.8 0-14.2 6.4-14.2 14.2s6.4 14.2 14.2 14.2h.2c7.8 0 14.2-6.4 14.2-14.2s-6.4-14.2-14.2-14.2zM294.2 62.8h-.2c-7.8 0-14.2 6.4-14.2 14.2s6.4 14.2 14.2 14.2h.2c7.8 0 14.2-6.4 14.2-14.2s-6.4-14.2-14.2-14.2zM263.1 62.8h-.2c-7.8 0-14.2 6.4-14.2 14.2s6.4 14.2 14.2 14.2h.2c7.8 0 14.2-6.4 14.2-14.2s-6.4-14.2-14.2-14.2zM294.2 31.4h-.2c-7.8 0-14.2 6.4-14.2 14.2 0 7.8 6.4 14.2 14.2 14.2h.2c7.8 0 14.2-6.4 14.2-14.2 0-7.8-6.4-14.2-14.2-14.2zM263.1 31.4h-.2c-7.8 0-14.2 6.4-14.2 14.2 0 7.8 6.4 14.2 14.2 14.2h.2c7.8 0 14.2-6.4 14.2-14.2 0-7.8-6.4-14.2-14.2-14.2zM294.2 0h-.2c-7.8 0-14.2 6.4-14.2 14.2s6.4 14.2 14.2 14.2h.2c7.8 0 14.2-6.4 14.2-14.2S302 0 294.2 0zM542.8 313.5h-.2c-7.8 0-14.2 6.4-14.2 14.2 0 7.8 6.4 14.2 14.2 14.2h.2c7.8 0 14.2-6.4 14.2-14.2 0-7.8-6.4-14.2-14.2-14.2zM511.7 313.5h-.2c-7.8 0-14.2 6.4-14.2 14.2 0 7.8 6.4 14.2 14.2 14.2h.2c7.8 0 14.2-6.4 14.2-14.2 0-7.8-6.4-14.2-14.2-14.2zM480.6 313.5h-.2c-7.8 0-14.2 6.4-14.2 14.2 0 7.8 6.4 14.2 14.2 14.2h.2c7.8 0 14.2-6.4 14.2-14.2.1-7.8-6.3-14.2-14.2-14.2zM449.6 313.5h-.2c-7.8 0-14.2 6.4-14.2 14.2 0 7.8 6.4 14.2 14.2 14.2h.2c7.8 0 14.2-6.4 14.2-14.2 0-7.8-6.4-14.2-14.2-14.2zM511.7 344.9h-.2c-7.8 0-14.2 6.4-14.2 14.2s6.4 14.2 14.2 14.2h.2c7.8 0 14.2-6.4 14.2-14.2s-6.4-14.2-14.2-14.2zM480.6 344.9h-.2c-7.8 0-14.2 6.4-14.2 14.2s6.4 14.2 14.2 14.2h.2c7.8 0 14.2-6.4 14.2-14.2s-6.3-14.2-14.2-14.2zM449.6 344.9h-.2c-7.8 0-14.2 6.4-14.2 14.2s6.4 14.2 14.2 14.2h.2c7.8 0 14.2-6.4 14.2-14.2s-6.4-14.2-14.2-14.2zM480.6 376.3h-.2c-7.8 0-14.2 6.4-14.2 14.2s6.4 14.2 14.2 14.2h.2c7.8 0 14.2-6.4 14.2-14.2s-6.3-14.2-14.2-14.2zM449.6 376.3h-.2c-7.8 0-14.2 6.4-14.2 14.2s6.4 14.2 14.2 14.2h.2c7.8 0 14.2-6.4 14.2-14.2s-6.4-14.2-14.2-14.2zM449.6 407.7h-.2c-7.8 0-14.2 6.4-14.2 14.2 0 7.8 6.4 14.2 14.2 14.2h.2c7.8 0 14.2-6.4 14.2-14.2 0-7.8-6.4-14.2-14.2-14.2zM418.5 439.1h-.2c-7.8 0-14.2 6.4-14.2 14.2 0 7.8 6.4 14.2 14.2 14.2h.2c7.8 0 14.2-6.4 14.2-14.2 0-7.8-6.4-14.2-14.2-14.2zM387.4 439.1h-.2c-7.8 0-14.2 6.4-14.2 14.2 0 7.8 6.4 14.2 14.2 14.2h.2c7.8 0 14.2-6.4 14.2-14.2 0-7.8-6.4-14.2-14.2-14.2zM356.3 439.1h-.2c-7.8 0-14.2 6.4-14.2 14.2 0 7.8 6.4 14.2 14.2 14.2h.2c7.8 0 14.2-6.4 14.2-14.2.1-7.8-6.4-14.2-14.2-14.2zM294.2 439.1h-.2c-7.8 0-14.2 6.4-14.2 14.2 0 7.8 6.4 14.2 14.2 14.2h.2c7.8 0 14.2-6.4 14.2-14.2 0-7.8-6.4-14.2-14.2-14.2zM325.2 439.1h-.2c-7.8 0-14.2 6.4-14.2 14.2 0 7.8 6.4 14.2 14.2 14.2h.2c7.8 0 14.2-6.4 14.2-14.2.1-7.8-6.3-14.2-14.2-14.2zM387.4 470.5h-.2c-7.8 0-14.2 6.4-14.2 14.2s6.4 14.2 14.2 14.2h.2c7.8 0 14.2-6.4 14.2-14.2s-6.4-14.2-14.2-14.2zM356.3 470.5h-.2c-7.8 0-14.2 6.4-14.2 14.2s6.4 14.2 14.2 14.2h.2c7.8 0 14.2-6.4 14.2-14.2s-6.4-14.2-14.2-14.2zM294.2 470.5h-.2c-7.8 0-14.2 6.4-14.2 14.2s6.4 14.2 14.2 14.2h.2c7.8 0 14.2-6.4 14.2-14.2s-6.4-14.2-14.2-14.2zM325.2 470.5h-.2c-7.8 0-14.2 6.4-14.2 14.2S317.2 499 325 499h.2c7.8 0 14.2-6.4 14.2-14.2s-6.3-14.3-14.2-14.3zM356.3 501.9h-.2c-7.8 0-14.2 6.4-14.2 14.2 0 7.8 6.4 14.2 14.2 14.2h.2c7.8 0 14.2-6.4 14.2-14.2.1-7.8-6.4-14.2-14.2-14.2zM294.2 501.9h-.2c-7.8 0-14.2 6.4-14.2 14.2 0 7.8 6.4 14.2 14.2 14.2h.2c7.8 0 14.2-6.4 14.2-14.2 0-7.8-6.4-14.2-14.2-14.2zM325.2 501.9h-.2c-7.8 0-14.2 6.4-14.2 14.2 0 7.8 6.4 14.2 14.2 14.2h.2c7.8 0 14.2-6.4 14.2-14.2.1-7.8-6.3-14.2-14.2-14.2zM294.2 533.4h-.2c-7.8 0-14.2 6.4-14.2 14.2 0 7.8 6.4 14.2 14.2 14.2h.2c7.8 0 14.2-6.4 14.2-14.2 0-7.8-6.4-14.2-14.2-14.2zM325.2 533.4h-.2c-7.8 0-14.2 6.4-14.2 14.2 0 7.8 6.4 14.2 14.2 14.2h.2c7.8 0 14.2-6.4 14.2-14.2.1-7.8-6.3-14.2-14.2-14.2zM294.2 564.8h-.2c-7.8 0-14.2 6.4-14.2 14.2 0 7.8 6.4 14.2 14.2 14.2h.2c7.8 0 14.2-6.4 14.2-14.2 0-7.8-6.4-14.2-14.2-14.2zM263.1 439.1h-.2c-7.8 0-14.2 6.4-14.2 14.2 0 7.8 6.4 14.2 14.2 14.2h.2c7.8 0 14.2-6.4 14.2-14.2 0-7.8-6.4-14.2-14.2-14.2zM263.1 470.5h-.2c-7.8 0-14.2 6.4-14.2 14.2S255 499 262.8 499h.2c7.8 0 14.2-6.4 14.2-14.2s-6.3-14.3-14.1-14.3zM263.1 501.9h-.2c-7.8 0-14.2 6.4-14.2 14.2 0 7.8 6.4 14.2 14.2 14.2h.2c7.8 0 14.2-6.4 14.2-14.2 0-7.8-6.4-14.2-14.2-14.2zM263.1 533.4h-.2c-7.8 0-14.2 6.4-14.2 14.2 0 7.8 6.4 14.2 14.2 14.2h.2c7.8 0 14.2-6.4 14.2-14.2 0-7.8-6.4-14.2-14.2-14.2zM263.1 564.8h-.2c-7.8 0-14.2 6.4-14.2 14.2 0 7.8 6.4 14.2 14.2 14.2h.2c7.8 0 14.2-6.4 14.2-14.2 0-7.8-6.4-14.2-14.2-14.2zM232 439.1h-.2c-7.8 0-14.2 6.4-14.2 14.2 0 7.8 6.4 14.2 14.2 14.2h.2c7.8 0 14.2-6.4 14.2-14.2 0-7.8-6.4-14.2-14.2-14.2zM232 470.5h-.2c-7.8 0-14.2 6.4-14.2 14.2s6.4 14.2 14.2 14.2h.2c7.8 0 14.2-6.4 14.2-14.2s-6.4-14.2-14.2-14.2zM232 501.9h-.2c-7.8 0-14.2 6.4-14.2 14.2 0 7.8 6.4 14.2 14.2 14.2h.2c7.8 0 14.2-6.4 14.2-14.2 0-7.8-6.4-14.2-14.2-14.2zM232 533.4h-.2c-7.8 0-14.2 6.4-14.2 14.2 0 7.8 6.4 14.2 14.2 14.2h.2c7.8 0 14.2-6.4 14.2-14.2 0-7.8-6.4-14.2-14.2-14.2zM232 564.8h-.2c-7.8 0-14.2 6.4-14.2 14.2 0 7.8 6.4 14.2 14.2 14.2h.2c7.8 0 14.2-6.4 14.2-14.2 0-7.8-6.4-14.2-14.2-14.2zM200.9 439.1h-.2c-7.8 0-14.2 6.4-14.2 14.2 0 7.8 6.4 14.2 14.2 14.2h.2c7.8 0 14.2-6.4 14.2-14.2.1-7.8-6.3-14.2-14.2-14.2zM200.9 470.5h-.2c-7.8 0-14.2 6.4-14.2 14.2s6.4 14.2 14.2 14.2h.2c7.8 0 14.2-6.4 14.2-14.2s-6.3-14.2-14.2-14.2zM200.9 501.9h-.2c-7.8 0-14.2 6.4-14.2 14.2 0 7.8 6.4 14.2 14.2 14.2h.2c7.8 0 14.2-6.4 14.2-14.2.1-7.8-6.3-14.2-14.2-14.2zM200.9 533.4h-.2c-7.8 0-14.2 6.4-14.2 14.2 0 7.8 6.4 14.2 14.2 14.2h.2c7.8 0 14.2-6.4 14.2-14.2.1-7.8-6.3-14.2-14.2-14.2zM200.9 564.8h-.2c-7.8 0-14.2 6.4-14.2 14.2 0 7.8 6.4 14.2 14.2 14.2h.2c7.8 0 14.2-6.4 14.2-14.2.1-7.8-6.3-14.2-14.2-14.2zM169.9 439.1h-.2c-7.8 0-14.2 6.4-14.2 14.2 0 7.8 6.4 14.2 14.2 14.2h.2c7.8 0 14.2-6.4 14.2-14.2 0-7.8-6.4-14.2-14.2-14.2zM169.9 470.5h-.2c-7.8 0-14.2 6.4-14.2 14.2s6.4 14.2 14.2 14.2h.2c7.8 0 14.2-6.4 14.2-14.2s-6.4-14.2-14.2-14.2zM169.9 501.9h-.2c-7.8 0-14.2 6.4-14.2 14.2 0 7.8 6.4 14.2 14.2 14.2h.2c7.8 0 14.2-6.4 14.2-14.2 0-7.8-6.4-14.2-14.2-14.2zM169.9 533.4h-.2c-7.8 0-14.2 6.4-14.2 14.2 0 7.8 6.4 14.2 14.2 14.2h.2c7.8 0 14.2-6.4 14.2-14.2 0-7.8-6.4-14.2-14.2-14.2zM169.9 564.8h-.2c-7.8 0-14.2 6.4-14.2 14.2 0 7.8 6.4 14.2 14.2 14.2h.2c7.8 0 14.2-6.4 14.2-14.2 0-7.8-6.4-14.2-14.2-14.2z"></path></svg>