<svg data-name="Layer 1" xmlns="http://www.w3.org/2000/svg" viewBox="0 0 623.73 623.73"><path d="m125.75 57.53 86.05 86.05a194.428 194.428 0 0 1 54.51-22.15V0c-52.06 7.54-99.99 27.8-140.56 57.53ZM59.13 123.56C29.03 163.89 8.36 211.67.38 263.63h121.71c4.91-19.38 12.71-37.6 22.92-54.19l-85.88-85.88ZM500.17 59.13C459.84 29.03 412.06 8.36 360.1.38v121.71c19.38 4.91 37.6 12.71 54.19 22.92l85.88-85.88ZM566.19 125.75l-86.05 86.05a194.379 194.379 0 0 1 21.49 51.83h121.71c-7.84-51.03-27.93-98.01-57.15-137.88ZM500.17 564.59l-85.88-85.88c-16.59 10.2-34.81 18.01-54.19 22.92v121.71c51.96-7.98 99.74-28.65 140.07-58.75ZM566.19 497.98c29.73-40.56 50-88.5 57.53-140.56H502.28a194.705 194.705 0 0 1-22.14 54.51l86.05 86.05ZM59.13 500.17l85.88-85.88a194.745 194.745 0 0 1-23.57-56.87H0c7.67 53 28.52 101.73 59.13 142.75ZM125.75 566.19c40.56 29.73 88.5 50 140.56 57.53V502.28a194.428 194.428 0 0 1-54.51-22.15l-86.05 86.05Z"></path><path d="M501.63 263.63H360.09v93.79h142.19c3.48-14.62 5.34-29.87 5.34-45.56 0-16.65-2.08-32.8-5.99-48.24ZM122.09 263.63c-3.91 15.43-5.99 31.59-5.99 48.24 0 15.69 1.86 30.94 5.34 45.56h144.87v-93.79H122.09ZM266.31 502.29c14.62 3.48 29.87 5.34 45.56 5.34 16.65 0 32.8-2.08 48.24-5.99V357.42h-93.79v144.87Z"></path><path d="M360.1 122.09c-15.43-3.91-31.59-5.99-48.24-5.99-15.69 0-30.94 1.86-45.56 5.34v142.19h93.79V122.09Z"></path></svg>