<svg data-name="Layer 1" xmlns="http://www.w3.org/2000/svg" viewBox="0 0 609.14 436.74"><path d="M591.26 96.74H17.88C8.05 96.74 0 104.79 0 114.62s8.05 17.88 17.88 17.88h96.85L19.22 270.73l64.94 44.87-40.96 59.27c-12.34 17.86-7.82 42.57 10.04 54.91 17.86 12.34 42.57 7.82 54.91-10.04l99.8-144.45 32.12 22.19-53.81 77.38c-12.34 17.86-7.82 42.57 10.04 54.91 17.86 12.34 42.57 7.82 54.91-10.04l99.8-144.45 32.07 22.16-53.77 77.42c-12.34 17.86-7.82 42.57 10.04 54.91 17.86 12.34 42.57 7.82 54.91-10.04l99.8-144.45-64.94-44.87 67.66-97.93h94.48c9.83 0 17.88-8.05 17.88-17.88s-8.05-17.88-17.88-17.88ZM174.9 252.45l-31.88-22.03 67.66-97.93h47.1L174.9 252.45Zm143.05 0-31.88-22.03 67.66-97.93h47.1l-82.88 119.96Z"></path><circle cx="219.85" cy="40.45" r="40.45" transform="rotate(-45 219.856 40.453)"></circle><circle cx="364.08" cy="40.45" r="40.45" transform="rotate(-13.28 364.15 40.432)"></circle><circle cx="508.3" cy="40.45" r="40.45" transform="rotate(-13.28 508.414 40.466)"></circle></svg>