<svg data-name="Layer 1" xmlns="http://www.w3.org/2000/svg" viewBox="0 0 603.87 393.99"><path d="m315.03 14.2-304.24 305c2.74 6.55 5.98 12.82 9.75 18.74L332.58 25.11c-5.56-4.15-11.4-7.82-17.55-10.91ZM210.39 5.05 5.89 210.07c-2.86 11.54-4.75 22.99-5.68 34.2L243.49.38c-10.84.55-21.91 2.12-33.1 4.67ZM271.03 1.29 0 273c.63 8.49 1.9 16.74 3.79 24.71L294.61 6.15c-7.59-2.28-15.47-3.89-23.58-4.87ZM72.82 88.93c-22.04 24.08-39.21 50.35-51.4 77.07L167.6 19.45c-33.48 14.96-66.31 38.37-94.78 69.48ZM563.05 32.35C510.81-15.46 425.73-8.76 351.18 42.43c-18.58 12.76-36.51 28.23-53.1 46.36-.03.03-.05.06-.08.09l-.29-.29-264.84 265.5c2.38 2.61 4.84 5.16 7.47 7.57 2.35 2.15 4.79 4.16 7.28 6.09l195.84-196.42L260.74 154l14.24 14.24-46.46 46.6L64.96 378.89c6.4 3.37 13.1 6.16 20.06 8.39L223 248.89l66.22-66.42 14.24 14.24-80.44 80.68-114.8 115.14c8.78 1.22 17.83 1.66 27.08 1.36l91.74-92.02 90.66-90.93 14.24 14.24-97.62 97.92-66.7 66.9c13.71-2.85 27.61-7.24 41.42-13.03l35.45-35.56 101.69-102 5.85 5.85 8.39 8.39-50.06 50.21-21.17 21.23-31.9 32c1.47 1.5 2.94 3 4.5 4.43 65.26 59.73 185.61 34.46 268.8-56.44s97.73-213 32.47-272.73Z"></path></svg>