<svg xmlns="http://www.w3.org/2000/svg" width="613.7" viewBox="0 0 613.7 617.5" height="617.5"><path d="M613.7 310.5l-101-101v65.6h-74l69.4-69.4-100.9-100.9v72.4h-80.8l76.2-76.2-101-101v77.6H270c-148.9 0-270 121.1-270 270s121.1 270 270 270c31.4 0 62.2-5.4 91.2-15.8 31.3-11.2 60.5-28.2 86-50.4 38.2-32.7 61.6-75.6 61.6-123.9 0-33.8-10.1-65.1-30.7-92h34.7v76.1l100.9-101.1zm-451.5 77.6c0-83.1 67.6-150.7 150.7-150.7h94.3v37.8h-50.6c-84.4 0-153 68.6-153 153 0 30.8 9.1 60.3 26.3 85.7-42.5-28.2-67.7-74.9-67.7-125.8zm-16.6 128.2C92 476.7 60.2 414.1 60.2 347.6c0-115.7 94.1-209.7 209.7-209.7h31.7v39.6c-111.1 5.8-199.6 98-199.6 210.6 0 46.2 15.4 91.5 43.6 128.2zm210.9-181c51.2 0 92 40.9 92 92 0 13.9-3.1 27.5-9 39.8-7.5 15.8-19.8 28.5-33.4 39.2-14.9 9.4-32 14.4-49.6 14.4-51.2 0-92.8-41.6-92.8-92.8.1-50.9 41.7-92.6 92.8-92.6z"></path></svg>