<svg xmlns="http://www.w3.org/2000/svg" width="513.9" viewBox="0 0 513.9 619.7" height="619.7" xml:space="preserve" style="enable-background:new 0 0 513.9 619.7"><path d="M513.9 313.5V204.2H411.7v-94.9h102.2V0H405.5L304.6 102.1H203.8l-103 104.2V305H0v109.2h100.8v96.1H0v109.4h106l100.9-102.1h101.9l103-104.2v-99.9h102.1zM408.5 7.3h98.1v94.8H314.9l93.6-94.8zm-.4 200.6zm-98.3-98.5h94.6v97l-47.3 47.3-47.3-47.3v-97zm42.1 149.5-47.3 47.3H210v-94.7h94.5l47.4 47.4zm-145-149.5h95.6v94.8H113.2l93.7-94.8zm-98.8 102.1h94.6v95.7l-47.6 47.6-47-47.6v-95.7zm-3.6 97.2zM7.3 407v-94.6H103l47 47.6-47 47H7.3zm98.4 4.8h-1.2v-1.2l1.2 1.2zm-2.8 200.6H7.3v-94.8h189.3l-93.7 94.8zm99.9-102.1h-94.6v-98.2l47-47 47.6 48.3v96.9zM160.3 360l46.5-46.5h95.7v94.8h-94.6L160.3 360zm145.4 150.3H210v-94.8h189.3l-93.6 94.8zm98.7-102h-94.6v-96.9l47.3-47.3 47.3 47.3v96.9zm5.2-102.1-47.3-47.3 47.3-47.3h97v94.6h-97z"></path></svg>