<svg data-name="Layer 1" xmlns="http://www.w3.org/2000/svg" viewBox="0 0 611.92 458.94"><path d="M127.48 76.49v-25.5H76.49v25.5H127.48zM509.93 76.49h25.5v-25.5h-51v25.5h25.5zM50.99 76.49h25.5v25.5h-25.5zM305.96 101.99h25.49v-25.5H280.46v25.5h25.5zM535.43 76.49h25.5v25.5h-25.5zM0 127.48h25.5v25.5H0z"></path><path d="M560.92 127.48h-25.5v-25.5h-25.5v25.5h-25.5v25.5h-25.5v25.5h-25.5v50.99H331.43v-25.5h76.49v-25.5h-25.5v-50.99h25.5v-25.5h-25.5v-25.5h25.5v25.5h25.5v25.5h-25.5v50.99h25.5v-25.5h25.5v-50.99h25.5v-25.5h-50.99v-25.5h50.99V25.5h-76.49V51h-25.5V25.5h-25.5V0H254.94v25.5h-25.5V51h-25.5V25.5h-76.46V51h50.99v25.5h-50.99V102h25.5v50.99h25.5v25.5h25.5V127.5h-25.5V102h25.5V76.5h25.5V102h-25.5v25.5h25.5v50.99h-25.5v25.5h76.49v25.5H178.48V178.5h-25.5V153h-25.5v-25.5h-25.5V102h-25.5v25.5h-25.5V153H25.5v25.5H51V204h25.5v-25.5h50.99V204h25.5v25.5h-25.5V255h76.49v50.99h50.99v50.99h101.99v-50.99h50.99V255h76.49v-25.5h-25.5V204h25.5v-25.5h50.99V204h25.5v-25.5h25.5V153h-25.5v-25.5Zm-229.47 50.99h-50.99v-25.5h50.99v25.5Zm-76.49-76.49v-25.5h25.5v-25.5h50.99v25.5h25.5v25.5h-25.5v25.5h-50.99v-25.5h-25.5Zm101.99 178.47H254.96v-25.5h101.99v25.5ZM586.42 127.48h25.5v25.5h-25.5z"></path><path d="M101.98 203.97h25.5v25.5h-25.5zM484.43 203.97h25.5v25.5h-25.5zM101.98 280.46h50.99v50.99h-50.99zM509.93 331.46v-51H458.94v51H509.93zM254.96 407.94v-50.99h-50.99v-25.49h-50.99v76.48h50.99v51h203.97v-51h51v-76.48h-51v25.49h-50.99v50.99H254.96z"></path></svg>