<svg xmlns="http://www.w3.org/2000/svg" width="378.8" viewBox="0 0 378.8 604.8" height="604.8" xml:space="preserve" style="enable-background:new 0 0 378.8 604.8"><path d="M377.4 250.2c-4.5-34.2-18.3-59.2-19.6-61.6-.6-1.4-6.9-14.9-21.5-34.2-8.9-11.7-19-23-30.1-33.8-13.8-13.4-29.2-25.9-45.8-37.1-15-10.1-27.9-20.5-38.3-30.7-8.5-8.4-15.4-16.7-20.6-24.8-8.9-14.1-9.9-23.4-10-25.9 0-.2 0-.3-.1-.5-.1-.4-.4-.8-.7-1.1-.2-.1-.3-.2-.5-.3-.2-.1-.5-.2-.7-.2-.3 0-.5 0-.8.1-.3.1-.5.3-.7.4-.3.3-.5.6-.6 1 0 .2-.1.3-.1.5-.1 2.5-1.1 11.8-10.1 25.9-5.2 8.1-12.1 16.5-20.6 24.8-10.4 10.2-23.3 20.6-38.3 30.7-16.5 11.2-31.9 23.6-45.8 37.1-11.1 10.7-21.2 22.1-30.1 33.8-14.7 19.3-20.9 32.8-21.5 34.2-1.2 2.5-15 27.5-19.5 61.7-2.7 20.6-1.5 40.3 3.6 58.6 6.3 22.9 18.7 43.7 36.8 61.8l145.6 146.5v87.7h4.3V517l145.5-146.4c18.1-18.1 30.5-38.9 36.8-61.8 4.9-18.3 6.1-38 3.4-58.6zM191.6 46.4l10.3-10.3c1 1.3 2 2.7 3.1 4.1l-13.4 13.4v-7.2zm0 51.4 34.9-34.9c1.2 1.1 2.5 2.2 3.8 3.3l-38.7 38.7v-7.1zm-4.3-79.4v28.3l-10.5-10.5c5-6.8 8.3-12.8 10.5-17.8zm-13.1 21.3 13.1 13.1v45.3L152.2 63c9.4-8.5 16.6-16.2 22-23.3zm-25.3 26.1 38.4 38.4v45.3l-64-64c9.9-6.9 18.4-13.5 25.6-19.7zm-29.2 22.1 66 66-22.6 22.6-69.2-69.2c8.2-6.8 16.8-13.3 25.8-19.4zm67.6 70.6v150.2l-23.1 23.1-75.1-75.1 98.2-98.2zM75.7 123.6c4.8-4.6 9.7-9.1 14.8-13.5l69.5 69.5-22.6 22.6-70.1-70.1c2.7-2.8 5.5-5.7 8.4-8.5zm-29.6 33.3c5.6-7.4 11.7-14.6 18.2-21.6l70 70-22.6 22.7-68-68c.8-1 1.6-2.1 2.4-3.1zm37.2 249.5-38.5-38.8C27.3 350.1 15.3 330 9.2 308c-2.4-8.7-3.9-17.6-4.5-26.9l78.6 78.6.1-.1v46.8zm0-52.7-79-79c-.2-7.7.2-15.5 1.3-23.5.8-6.1 1.9-11.9 3.1-17.4l74.5 74.5.1-.1v45.5zm0-51.4L10 228.9c4-15.2 9.1-26.9 12.1-33.1L83.3 257v45.3zM24.2 191.8c.4-.7.6-1 .6-1.1l.1-.1.1-.1c.1-.1 4.9-10.9 16.3-26.9l67.5 67.5L86 253.6l-61.8-61.8zM187.3 511 87.6 410.7V261.3l99.7 99.7v150zm186.8-229.1-76.3 76.3V404l-5 5.1V261.6L193.4 361 167 334.6l26.2-26.2 22.8 22.8 74.5-74.5-98.9-98.9v-8.7l63.8-63.8c.9.6 1.7 1.2 2.6 1.8.5.4 1.1.7 1.6 1.1l-65.3 65.3 22.1 22.1 68.3-68.3 3.9 3.3-68.6 68.6 22.1 22.1 69.3-69.3c1.2 1.2 2.3 2.4 3.5 3.7l-69.2 69.2 22.1 22.1 67.1-67.1c1 1.4 2 2.8 3 4.1l-66.5 66.5 22.7 22.7 60.9-60.9c.6 1.1 1.4 2.7 2.4 4.7l-59.5 59.5v43.2l71-71c.5 1.9 1 3.8 1.4 5.7l-72.4 72.4V351l76.7-76.7c-.2 2.6-.3 5.1-.5 7.6z"></path></svg>