<svg xmlns="http://www.w3.org/2000/svg" width="620.1" viewBox="0 0 620.1 619.7" height="619.7" xml:space="preserve" style="enable-background:new 0 0 620.1 619.7"><path d="M253.1 144c0-30.9 25.1-56 56-56s56 25.1 56 56c0 22.8-13.7 42.4-33.3 51.1h172.5C504.3 87.4 416.9 0 309.2 0 201.4 0 114 87.4 114 195.2h172.5c-19.7-8.8-33.4-28.3-33.4-51.2M453.9 258.8c-19.1 0-36.1-8.4-47.9-21.4-11.9 13.1-28.9 21.4-47.9 21.4-19.1 0-36.1-8.4-47.9-21.4-11.9 13.1-28.9 21.4-47.9 21.4-19.1 0-36.1-8.4-47.9-21.4-11.9 13.1-28.9 21.4-47.9 21.4-18.7 0-35.4-8-47.2-20.6 19.6 87.1 97.2 152.1 190.2 152.1 92.1 0 169-63.8 189.5-149.6-12 11.2-27.7 18.1-45.1 18.1"></path><path d="M620.1 310.1c0-2.4-.3-4.7-.4-7.1-167.2 4.7-301.3 141.3-301.3 309.6 0 2.4.3 4.7.4 7.1C486 615 620.1 478.4 620.1 310.1M0 310.1c0-2.4.3-4.7.4-7.1 167.2 4.7 301.3 141.3 301.3 309.6 0 2.4-.3 4.7-.4 7.1C134.1 615 0 478.4 0 310.1"></path></svg>