<svg xmlns="http://www.w3.org/2000/svg" width="642" viewBox="0 0 642 477.7" height="477.7" style="overflow:visible;enable-background:new 0 0 642 477.7" xml:space="preserve"><path d="M642 0 385.2 463.3c-4.8 8.9-14.1 14.4-24.1 14.4h-12.6l-.5-1c5.9-1.7 11-5.7 13.9-11.3.4-.6 17.8-32.1 18.9-34.2L619.9 0H642zM597.8 0 341 463.3c-4.8 8.9-14.1 14.4-24.1 14.4h-12.6l-.5-1c5.8-1.8 10.9-5.8 13.9-11.3.3-.6 17.8-32.1 18.9-34.2L575.7 0h22.1zM553.6 0l-235 423.8-21.9 39.5c-.1.1-.1.3-.2.3-4.8 8.7-14 14-23.9 14h-12.5l-.6-1c5.9-1.7 11-5.7 13.9-11.2.3-.4 6.7-12.1 12-21.7 3.5-6.2 6.4-11.7 6.9-12.5l15.2-27.4L531.5 0h22.1zM509.4 0 296.6 383.9l-22.1 39.9-21.9 39.5c-.1.1-.1.3-.2.3-4.9 8.7-14 14-23.9 14H216l-.6-1c5.9-1.7 10.9-5.7 13.9-11.2.2-.4 6.6-12.1 12-21.7 3.5-6.2 6.4-11.7 6.9-12.5l15.2-27.4 22.1-39.9L487.3 0h22.1zM465.1 0 274.5 344l-22.1 39.8-22.1 39.9-22 39.6c-.1.1-.1.2-.1.3-4.8 8.8-14.1 14.1-24 14.1h-12.4l-.6-1c5.8-1.7 10.9-5.7 13.8-11.2.3-.4 6.8-12.2 12.1-21.8 3.5-6.2 6.4-11.6 6.8-12.4l15.2-27.4v-.1l22.1-39.9 22.1-39.8v-.1L443 0h22.1zM313.5 40.3v20.1H139.4l-11.2-20.1zM313.5 80.5v20.2H161.7l-11.2-20.2zM313.5 120.8v20.1H184l-11.1-20.1zM313.5 161v20.2H206.3L195.2 161zM313.5 0v20.2H117C118.6 8.8 128.3 0 140.1 0h173.4zM252.4 304.2l-11 20C207 262.3 159 175.5 91.7 54.1 85.6 42 89.3 28 99 20.3c-.3 2.1.2 7.3 2.6 11.9.2.5-4.3-7.8 150.8 272zM230.3 344.1l-11 19.9L69.9 94.6c-.3-.6-3.8-5.6-3.8-13.8 0-8.6 4.1-16.5 10.3-21.4-.3 2.1.2 7.4 2.7 12 .3.5-3.1-5.7 151.2 272.7zM208.2 383.9l-11 20L47.4 133.7c-7.1-13-1.7-28.5 7-34.4-.4 1.8.1 7.3 2.8 12.2l19.9 35.9 131.1 236.5zM186.1 423.8 175 443.7C26.1 175.1 25.6 173.7 25 173.1c-6.2-11.7-3.1-26.3 7.1-34.3-.3 2.1.2 7.4 2.8 12.1 0 .1 99.7 179.8 151.2 272.9zM160.6 457.5c-2.4.8-5 1.3-7.6 1.3-8.7 0-16.3-4.8-20.3-11.9-.1-.2-.3-.4-.4-.6L3.3 213.5c-6.1-11.1-3.7-26 7-34.4-.3 1.7.1 7.1 2.5 11.8 3.7 7.5 79.9 144.5 125.4 226.4 8.9 16 16.6 29.9 22.4 40.2z"></path></svg>