<svg xmlns="http://www.w3.org/2000/svg" width="605.1" viewBox="0 0 605.1 537.7" height="537.7" xml:space="preserve"><path d="M602.8 10c-3.4-6.2-9.8-10-16.9-10H384.4c-7.1 0-13.6 3.9-16.9 10-3.4 6.2-3 13.7.8 19.6 13.7 20.8 21.1 36.2 23.2 61.8v52L322 77c-9.3-9.3-10.3-18.5-7.5-29 2.4-9.2 8.3-15.9 8.3-15.9 5.1-5.6 4.4-13.7 1.4-20.6C321 4.5 314.1 0 306.5 0H114.3c-7.1 0-13.5 3.9-16.9 10-3.4 6.2-3 13.7.8 19.6 13.7 20.8 21.1 36.2 23.2 61.8 0 115.1 0 115.1.1 116.2 0 .2.1.4.1.6 0 30.9-14.7 47.8-39.3 72.5-2.7 2.8-5.5 5.5-8.2 8.1-25.4 25.2-51.7 51.3-66.1 90-14.1 37.8-9.4 79.2 12.6 110.6 21 30.1 54.4 47.3 91.7 47.3h205.3c32.3 0 61.6-10.4 81.4-44 .7-1.3 3-3 4.8-.3 5.2 10.2 12 18.7 20.5 25.6 14.8 12 34.1 19.7 53.3 19.7 64.1 0 101.3-26.5 101.3-98.4h-.1c.1-8.3.1-56.4.1-362.1 1.4-16.8 4.5-21.2 13.5-33.8 2.8-3.9 6-8.4 9.6-13.9 3.8-5.8 4.1-13.3.8-19.5zm-62.4 65.1c0 .5-.1 1-.1 1.5v356.5c0 26.7-6.2 45.3-18.5 55.3-9 7.3-21.2 10.4-33.5 10.3H481c-12.3.1-24.5-3-33.5-10.3-12.3-10-18.5-28.6-18.5-55.3v-5.6c.5-20.8-.3-40-7.2-58.7-14.6-39.1-39.8-62.4-66.6-87-2.7-2.5-5.5-5-8.2-7.6-5-4.7-9.8-8.9-13.9-12.7-26-23.4-65-58.8-65-58.8-6.7 45.9 11.6 62.4 39.2 87.2 4.2 3.8 8.6 7.8 13.4 12.2 2.8 2.6 5.6 5.2 8.4 7.7 25.3 23.3 45.2 41.7 56.6 72.2 10.4 27.9 6.2 60.3-10.8 84.7-14.1 20.2-35 31.7-57.4 31.7H112.2c-24.5 0-46.4-11.3-60.1-30.9-15-21.5-18-49-8.1-75.4 11.5-30.8 32.7-51.8 57.2-76.2 2.8-2.7 5.5-5.5 8.3-8.3C132 285 165 256.3 161.8 204.1V90.6c0-.5 0-1-.1-1.5-1.6-20.1-5.9-36.1-12.6-50.9h126c-5.1 19.5-2.7 43.5 19.8 65.9l.3.3 134.4 125.2c.2-1.1 0-139 0-139 0-.5.1-1 0-1.5-1.5-20.1-5.7-36.1-12.4-50.9h132.7c-4.8 9.2-8.2 19.8-9.5 36.9z"></path><path d="M602.8 10c-3.4-6.2-9.8-10-16.9-10H384.4c-7.1 0-13.6 3.9-16.9 10-3.4 6.2-3 13.7.8 19.6 13.7 20.8 21.1 36.2 23.2 61.8v52L322 77c-9.3-9.3-10.3-18.5-7.5-29 2.4-9.2 8.3-15.9 8.3-15.9 5.1-5.6 4.4-13.7 1.4-20.6C321 4.5 314.1 0 306.5 0H114.3c-7.1 0-13.5 3.9-16.9 10-3.4 6.2-3 13.7.8 19.6 13.7 20.8 21.1 36.2 23.2 61.8 0 115.1 0 115.1.1 116.2 0 .2.1.4.1.6 0 30.9-14.7 47.8-39.3 72.5-2.7 2.8-5.5 5.5-8.2 8.1-25.4 25.2-51.7 51.3-66.1 90-14.1 37.8-9.4 79.2 12.6 110.6 21 30.1 54.4 47.3 91.7 47.3h205.3c32.3 0 61.6-10.4 81.4-44 .7-1.3 3-3 4.8-.3 5.2 10.2 12 18.7 20.5 25.6 14.8 12 34.1 19.7 53.3 19.7 64.1 0 101.3-26.5 101.3-98.4h-.1c.1-8.3.1-56.4.1-362.1 1.4-16.8 4.5-21.2 13.5-33.8 2.8-3.9 6-8.4 9.6-13.9 3.8-5.8 4.1-13.3.8-19.5zm-62.4 65.1c0 .5-.1 1-.1 1.5v356.5c0 26.7-6.2 45.3-18.5 55.3-9 7.3-21.2 10.4-33.5 10.3H481c-12.3.1-24.5-3-33.5-10.3-12.3-10-18.5-28.6-18.5-55.3v-5.6c.5-20.8-.3-40-7.2-58.7-14.6-39.1-39.8-62.4-66.6-87-2.7-2.5-5.5-5-8.2-7.6-5-4.7-9.8-8.9-13.9-12.7-26-23.4-65-58.8-65-58.8-6.7 45.9 11.6 62.4 39.2 87.2 4.2 3.8 8.6 7.8 13.4 12.2 2.8 2.6 5.6 5.2 8.4 7.7 25.3 23.3 45.2 41.7 56.6 72.2 10.4 27.9 6.2 60.3-10.8 84.7-14.1 20.2-35 31.7-57.4 31.7H112.2c-24.5 0-46.4-11.3-60.1-30.9-15-21.5-18-49-8.1-75.4 11.5-30.8 32.7-51.8 57.2-76.2 2.8-2.7 5.5-5.5 8.3-8.3C132 285 165 256.3 161.8 204.1V90.6c0-.5 0-1-.1-1.5-1.6-20.1-5.9-36.1-12.6-50.9h126c-5.1 19.5-2.7 43.5 19.8 65.9l.3.3 134.4 125.2c.2-1.1 0-139 0-139 0-.5.1-1 0-1.5-1.5-20.1-5.7-36.1-12.4-50.9h132.7c-4.8 9.2-8.2 19.8-9.5 36.9z"></path></svg>