<svg id="Layer_1" data-name="Layer 1" xmlns="http://www.w3.org/2000/svg" viewBox="0 0 626.42 558.96">   <defs>        </defs>   <circle class="cls-1" cx="386" cy="321.45" r="76.77"></circle>   <path class="cls-1" d="M229.11,319.99c0,86.51,70.38,156.89,156.89,156.89s156.89-70.38,156.89-156.89-70.38-156.89-156.89-156.89-156.89,70.38-156.89,156.89Zm240.5,1.46c0,46.1-37.5,83.61-83.61,83.61s-83.61-37.5-83.61-83.61,37.5-83.61,83.61-83.61,83.61,37.5,83.61,83.61Z"></path>   <path class="cls-1" d="M626.42,0H0V558.96l393.79-.2c129.17-4.12,232.63-110.06,232.63-240.23,0-123.12-92.57-224.57-211.9-238.68h211.9V0ZM207.09,479.11H79.85V79.85H357.47c-119.33,14.12-211.9,115.56-211.9,238.68,0,61.73,23.28,118,61.52,160.57Zm342.63-159.11c0,90.28-73.45,163.73-163.72,163.73s-163.73-73.45-163.73-163.73,73.45-163.72,163.73-163.72,163.72,73.45,163.72,163.72Z"></path> </svg>