<svg data-name="Layer 1" xmlns="http://www.w3.org/2000/svg" viewBox="0 0 599.97 599.97"><path d="M583.71 16.25c-37.96-37.96-134.42-7.22-243.07 69.46 18.79 28.88 29.75 63.33 29.75 100.36 0 101.8-82.53 184.33-184.33 184.33-37.03 0-71.48-10.96-100.36-29.75C9.03 449.3-21.71 545.75 16.25 583.71c53.67 53.67 224.21-29.86 380.91-186.56 156.7-156.7 240.22-327.23 186.55-380.9Z"></path><path d="M132.72 279.49c15.73 9 33.91 14.22 53.34 14.22 59.45 0 107.65-48.2 107.65-107.65 0-19.43-5.22-37.61-14.22-53.34-25.56 21.27-51.3 44.7-76.68 70.08-25.38 25.38-48.81 51.13-70.08 76.68Z"></path><path d="M78.41 186.06c0-59.45 48.2-107.65 107.65-107.65 40.03 0 74.88 21.89 93.43 54.31 20.61-17.16 41.08-32.86 61.15-47.02-32.87-50.53-89.8-83.96-154.58-83.96C84.26 1.74 1.74 84.26 1.74 186.06c0 64.77 33.44 121.7 83.97 154.58 14.16-20.07 29.86-40.54 47.02-61.15-32.42-18.55-54.31-53.4-54.31-93.43Z"></path></svg>