<svg id="Layer_1" data-name="Layer 1" xmlns="http://www.w3.org/2000/svg" viewBox="0 0 620.15 620.02">
  <path d="M606.31,220.41c-2.72-8.97-15.72-7.29-15.96,2.08-.09,3.59-.3,7.21-.64,10.85-6.92,73.97-67.3,133.36-141.37,139.15-95.14,7.43-173.92-71.39-166.41-166.54,5.86-94.94,105.93-163.92,196.51-135.96-57.53-8-110.13,38.33-109.68,96.41,0,53.73,43.55,97.28,97.28,97.28,75.17,.99,123.1-85.24,82.66-148.51-25.89-41.61-75.51-72.48-119.76-90.95C240.6-57.44,17.21,77.14,1.27,281.79c-16.87,189.2,136.51,347.12,324.24,337.84,196.64-6.53,341.05-212.47,280.81-399.22Z"></path>
</svg>