<svg xmlns="http://www.w3.org/2000/svg" width="496" viewBox="0 0 496 623.1" height="623.1" style="enable-background:new 0 0 496 623.1" xml:space="preserve"><path d="m33.8 381.8 12.3-5.1c2.4-1 3.9-3.2 3.9-5.9v-11.7c0-1.1-.5-2-1.4-2.6-.9-.6-2-.7-3-.3l-12.3 5.1c-2.4 1-3.9 3.2-3.9 5.9v11.7c0 1.1.5 2 1.4 2.6.9.6 2 .7 3 .3m0 41.3 12.3-5.1c2.4-1 3.9-3.2 3.9-5.9v-11.7c0-1.1-.5-2-1.4-2.6-.9-.6-2-.7-3-.3l-12.3 5.1c-2.4 1-3.9 3.2-3.9 5.9v11.7c0 1.1.5 2 1.4 2.6.9.7 2 .8 3 .3zm0 41.4 12.3-5.1c2.4-1 3.9-3.2 3.9-5.9v-11.7c0-1.1-.5-2-1.4-2.6-.9-.6-2-.7-3-.3L33.3 444c-2.4 1-3.9 3.2-3.9 5.9v11.7c0 1.1.5 2 1.4 2.6.9.6 2 .7 3 .3zm0 41.3 12.3-5.1c2.4-1 3.9-3.2 3.9-5.9v-11.7c0-1.1-.5-2-1.4-2.6-.9-.6-2-.7-3-.3l-12.3 5.1c-2.4 1-3.9 3.2-3.9 5.9v11.7c0 1.1.5 2 1.4 2.6.9.6 2 .7 3 .3zm0 41.3 12.3-5.1c2.4-1 3.9-3.2 3.9-5.9v-11.7c0-1.1-.5-2-1.4-2.6-.9-.6-2-.7-3-.3l-12.3 5.1c-2.4 1-3.9 3.2-3.9 5.9v11.7c0 1.1.5 2 1.4 2.6.9.7 2 .8 3 .3zm0 41.4 12.3-5.1c2.4-1 3.9-3.2 3.9-5.9v-11.7c0-1.1-.5-2-1.4-2.6-.9-.6-2-.7-3-.3L33.3 568c-2.4 1-3.9 3.2-3.9 5.9v11.7c0 1.1.5 2 1.4 2.6.9.6 2 .7 3 .3zm0-248 12.3-5.1c2.4-1 3.9-3.2 3.9-5.9v-11.7c0-1.1-.5-2-1.4-2.6-.9-.6-2-.7-3-.3L33.3 320c-2.4 1-3.9 3.2-3.9 5.9v11.7c0 1.1.5 2 1.4 2.6.9.6 2 .7 3 .3zM0 623.1V168.5c0-46.3 19-88.5 49.5-119S122.2 0 168.5 0h159c46.3 0 88.5 19 119 49.5s49.5 72.7 49.5 119v380.9l-19.1 7.9V168.5c0-41.1-16.8-78.4-43.9-105.5-12.9-12.9-28.1-23.5-45-31h-1.8c7.3 5.3 14.2 11.2 20.6 17.5 30.5 30.5 49.5 72.7 49.5 119v397.3l-19.1 7.9V168.5c0-41.1-16.8-78.4-43.9-105.5-12.9-12.9-28.1-23.5-45-31h-1.8c7.3 5.3 14.2 11.2 20.6 17.5 30.5 30.5 49.5 72.7 49.5 119v413.8l-19.1 7.9V168.5c0-41.1-16.8-78.4-43.9-105.5-12.9-12.9-28.1-23.5-45-31h-1.8c7.3 5.3 14.2 11.2 20.6 17.5 30.5 30.5 49.5 72.7 49.5 119v430.3l-19.1 7.9V168.5c0-41.1-16.8-78.4-43.9-105.5-12.9-12.9-28.1-23.5-45-31H267c7.3 5.3 14.2 11.2 20.6 17.5C318 80 337 122.2 337 168.5v446.7l-19.1 7.9V168.5c0-41.1-16.8-78.4-43.9-105.5-7.9-7.9-16.6-14.9-26-20.8-9.4 6-18.2 13-26 20.8-27.2 27.1-44 64.4-44 105.5v380.9L0 623.1z" style="fill-rule:evenodd;clip-rule:evenodd"></path></svg>