<svg data-name="Layer 1" xmlns="http://www.w3.org/2000/svg" viewBox="0 0 619.98 619.98"><path d="M309.99 0C138.79 0 0 138.79 0 309.99s138.79 309.99 309.99 309.99 309.99-138.79 309.99-309.99S481.2 0 309.99 0Zm-83.88 443.84c-28.95 0-52.42-23.47-52.42-52.42S197.16 339 226.11 339s52.42 23.47 52.42 52.42-23.47 52.42-52.42 52.42Zm0-162.87c-28.95 0-52.42-23.47-52.42-52.42s23.47-52.42 52.42-52.42 52.42 23.47 52.42 52.42-23.47 52.42-52.42 52.42Zm167.76 162.87c-28.95 0-52.42-23.47-52.42-52.42S364.92 339 393.87 339s52.42 23.47 52.42 52.42-23.47 52.42-52.42 52.42Zm0-162.87c-28.95 0-52.42-23.47-52.42-52.42s23.47-52.42 52.42-52.42 52.42 23.47 52.42 52.42-23.47 52.42-52.42 52.42Z"></path></svg>