<svg data-name="Layer 1" xmlns="http://www.w3.org/2000/svg" viewBox="0 0 613.42 507.7"><path d="M449.93 507.6c-89.45 0-146.82-38.28-179.83-91.27-28.87 36.46-73.81 60.63-117.39 60.63-81.21 0-142.63-47.82-142.63-145.14 0-84.28 67.47-135.22 113.62-135.22s81.35 30.03 81.35 97.88-55.78 95.6-80.98 70.41c-31.71-31.71 14.62-65.75.47-79.86-11.41-11.41-36.37 19.05-36.37 54.16 0 31.38 22.91 58.81 62.12 58.81 53.41 0 78.28-61 77.53-114.13-.88-63.28-42.56-111.71-101.74-111.71-67.57 0-88.89 62.02-117.72 33.2-29.52-29.52 20.3-116.37 132.1-116.37 40.14 0 79.67 18.77 109.29 51.97C285.32 55.88 359.45 0 453.19 0c131.92 0 172.52 81.95 144.12 110.41-25.89 25.89-38.74-33.57-126.94-33.57-77.9 0-166.05 52.43-166.05 190.45 0 111.24 83.44 169.4 150.03 169.4 62.12 0 85.21-25.42 76.41-34.18-8.99-8.99-18.16 11.36-71.52 11.36-63.1 0-130.43-54.29-130.43-146.59 0-113.48 71.43-168.24 144.03-168.24s123.82 50.06 123.82 119.3c0 73.85-53.41 105.94-94.95 105.94s-70.83-19.65-70.83-69.2c0-52.29 44.61-71.48 63.42-52.66 23.93 23.93-6.61 41.82 4 52.43 10.94 10.94 27.52-10.66 27.52-32.13 0-23.52-13.46-49.08-50.66-49.08-45.82 0-66.82 47.64-66.82 87.68 0 44.24 23.65 86.19 78.18 86.19 48.24 0 82.98-29.38 114.55 2.19 41.07 41.07-23.19 157.99-151.15 157.99v-.09Z"></path></svg>