<svg data-name="Layer 1" xmlns="http://www.w3.org/2000/svg" viewBox="0 0 612.05 612.05"><path d="M415.22 63.68h72.95l60.2 60.2v72.95l-227.9 227.9 31.67 31.68 241.02-241.03.01-110.06-86.44-86.43H396.67l-87.38 87.37 31.68 31.68 74.25-74.26zM196.83 548.37h-72.95l-60.2-60.2v-72.95l227.9-227.9-31.67-31.67L18.89 396.67v110.06l86.43 86.44 110.06-.01 87.38-87.37-31.68-31.68-74.25 74.26z"></path><path d="m474.11 340.97 74.26 74.25v72.95l-60.2 60.2h-72.95l-227.9-227.9-31.67 31.67 241.02 241.03 110.06-.01 86.43-86.43.01-110.06-87.38-87.38-31.68 31.68zM137.94 271.09l-74.26-74.26v-72.95l60.2-60.2h72.95l227.9 227.9 31.68-31.67L215.38 18.89H105.32l-86.43 86.43v110.06l87.37 87.38 31.68-31.67zM132.34 527.95h56.03l68.27-68.27-104.26-104.26-68.27 68.27v56.03l48.23 48.23Zm-36.82-99.54 56.86-56.86 88.12 88.12-56.86 56.86h-46.58l-41.55-41.55V428.4ZM479.71 84.1h-56.03l-68.27 68.27 104.26 104.26 68.27-68.27v-56.03L479.71 84.1Zm36.82 99.54-56.86 56.86-88.12-88.12 56.86-56.86h46.58l41.55 41.55v46.58Z"></path><path d="m479.71 527.94 48.23-48.23v-56.03l-68.27-68.27-104.26 104.26 68.27 68.27h56.03Zm-20.04-156.4 56.86 56.86v46.58l-41.55 41.55H428.4l-56.86-56.86 88.12-88.12ZM132.34 84.11l-48.23 48.23v56.03l68.27 68.27 104.26-104.26-68.27-68.27h-56.03Zm20.04 156.4-56.86-56.86v-46.58l41.55-41.55h46.58l56.86 56.86-88.12 88.12ZM201.76 306.03l104.26 104.26 104.26-104.26-104.26-104.26-104.27 104.26Zm104.26 88.12-88.12-88.12 88.12-88.12 88.12 88.12-88.12 88.12Z"></path><path d="m529.23 306.02 82.82-82.82V97.5L514.55 0H388.84l-82.82 82.82L223.21 0H97.5L0 97.5v125.71l82.82 82.82L0 388.84v125.71l97.49 97.5H223.2l82.82-82.82 82.82 82.82h125.71l97.49-97.5V388.84l-82.82-82.82Zm68.55 202.62-89.14 89.14H394.75l-88.73-88.73-88.73 88.73H103.41l-89.15-89.14V394.75l88.73-88.73-88.73-88.72V103.41l89.15-89.14H217.3L306.03 103l88.72-88.73h113.89l89.14 89.14V217.3l-88.73 88.73 88.73 88.73v113.89Z"></path></svg>