<svg id="Layer_1" data-name="Layer 1" xmlns="http://www.w3.org/2000/svg" viewBox="0 0 616.13 500.45">   <path d="M47.39,290.21H568.74c38.76,0,56.26-48.52,26.41-73.25L352.82,16.14c-25.96-21.51-63.56-21.51-89.52,0L20.98,216.95c-29.85,24.74-12.36,73.25,26.41,73.25Z"></path>   <path d="M41.39,305.04h112.63c22.84,0,41.39,18.54,41.39,41.39v112.63c0,22.84-18.54,41.39-41.39,41.39H41.39c-22.84,0-41.39-18.54-41.39-41.39v-112.63c0-22.84,18.54-41.39,41.39-41.39Z"></path>   <path d="M364.38,305.04h-112.63c-22.86,0-41.39,18.53-41.39,41.39v112.63c0,22.86,18.53,41.39,41.39,41.39h112.63c22.86,0,41.39-18.53,41.39-41.39v-112.63c0-22.86-18.53-41.39-41.39-41.39Zm20.45,154.01c0,11.28-9.18,20.45-20.45,20.45h-112.63c-11.28,0-20.45-9.18-20.45-20.45v-112.63c0-11.28,9.17-20.45,20.45-20.45h112.63c11.27,0,20.45,9.17,20.45,20.45v112.63Z"></path>   <rect x="420.73" y="305.04" width="195.4" viewBox="0 0 195.4 195.4" height="195.4" rx="41.39" ry="41.39"></rect> </svg>