<svg id="Layer_1" data-name="Layer 1" xmlns="http://www.w3.org/2000/svg" viewBox="0 0 539.33 626.16"><defs></defs><path class="cls-1" d="M354.67 279.61 161.04 85.98l-7.26 7.27 193.63 193.63c14.82 14.82 14.82 38.95 0 53.77l-193.7 193.7 7.26 7.26 193.7-193.69c18.83-18.84 18.83-49.49 0-68.32Z"></path><path class="cls-1" d="M439.3 223.17 231.58 15.45l-7.26 7.27 207.71 207.71c14.83 14.83 14.83 38.95 0 53.78L167.8 548.45l7.26 7.26L439.3 291.49c18.83-18.84 18.83-49.49 0-68.32Z"></path><path class="cls-1" d="M525.2 278.15 247.04 0l-7.27 7.26 278.16 278.16c14.82 14.83 14.82 38.95 0 53.79L238.24 618.9l7.27 7.26L525.2 346.47c18.83-18.83 18.83-49.48 0-68.32ZM100.31 226.56l-39.92-39.92-7.26 7.27 39.92 39.92c14.82 14.82 14.82 38.95 0 53.77L0 380.65l7.26 7.26 93.05-93.03c18.83-18.84 18.83-49.49 0-68.32Z"></path><path class="cls-1" d="M186.59 281.17 76.23 170.81l-8.03 8.03L178.56 289.2c14.62 14.61 14.62 38.41 0 53.02L70.07 450.72l8.02 8.03 108.5-108.5c19.04-19.04 19.04-50.04 0-69.08Z"></path><path class="cls-1" d="M268.78 224.62 145.59 101.43l-7.26 7.27 123.19 123.19c14.82 14.82 14.82 38.95 0 53.77L83.26 463.92l7.27 7.26 178.24-178.24c18.83-18.84 18.83-49.49 0-68.32Z"></path></svg>