<svg id="Layer_1" data-name="Layer 1" xmlns="http://www.w3.org/2000/svg" viewBox="0 0 624.56 624.56">   <path d="M475.53,128.12H0v30.18H402.67L96.61,464.36v-43.36l232.03-232.03H0v30.18H255.79L96.61,378.31v-43.36l85.15-85.15H0v278.89c0,52.95,42.92,95.87,95.87,95.87h432.81c52.95,0,95.87-42.92,95.87-95.87v-.05H75.01L475.53,128.12Z"></path>   <path d="M149.03,497.97h475.53v-30.18H221.97L527.95,160.89v43.43l-232.11,232.81h328.72v-30.18h-255.79l159.18-159.18v43.36l-85.15,85.15h181.76V95.87c0-52.95-42.92-95.87-95.87-95.87H95.87C42.92,0,0,42.92,0,95.87v1.58H549.55L149.03,497.97Z"></path> </svg>