<svg xmlns="http://www.w3.org/2000/svg" width="619.44" viewBox="0 0 619.44 538.07" height="538.07" xml:space="preserve" style="enable-background:new 0 0 619.44 538.07"><path d="M439.68 412.55c-40.77-13.49-84.47-20.85-129.96-20.85-45.49 0-89.19 7.37-129.96 20.85-16.4 5.43-20.22 26.81-6.65 37.49 42.66 33.6 88.53 62.98 136.63 88.02 48.07-25.08 93.93-54.43 136.59-88.02 13.57-10.68 9.75-32.06-6.65-37.49zM53.97 80.67c69.4 55.43 158.55 88.87 255.75 88.87 97.19 0 186.34-33.44 255.74-88.86 11.76-9.39 12.91-27.05 1.98-37.38C492-28 363.16-9.8 314.04 87.26a4.709 4.709 0 0 1-8.6 0C256.29-9.8 127.4-27.98 52 43.29c-10.94 10.34-9.78 27.99 1.97 37.38z" class="st0"></path><path d="M610.27 111.85c-4.59-14.17-22.16-19.05-33.79-9.75-149.69 119.68-383.87 119.65-533.52 0-11.63-9.3-29.2-4.41-33.79 9.76-32.4 100 25.98 208.03 98.12 280.25 10.27 10.28 25.63 13.16 39.07 7.64 100.27-41.15 226.45-41.15 326.72 0 13.45 5.52 28.8 2.65 39.07-7.63 72.13-72.2 130.53-180.29 98.12-280.27z" class="st0"></path></svg>