<svg xmlns="http://www.w3.org/2000/svg" width="595.1" viewBox="0 0 595.1 543.6" height="543.6" xml:space="preserve"><path d="m595.1 461.6-45.7-44.5h45.7v-82L424.2 168.8H260.1L91.3 0H0v81.7l45.7 44.5H0v82l174.6 170.1h164.2l165.3 165.3H595v-82zm-3 77L425.3 376.1v-75.7l166.8 162.4v75.8zm0-202.3V412L447.6 271.4l-22.4-21.8v-75.7l166.9 162.4zm-169.8-87.5H176.7v-76.9h245.6v76.9zM3 4.7l21.5 20.9L173.7 171v75.7L3 80.4V4.7zm0 202.2v-75.7l170.7 166.3v75.7L3 206.9zm173.7 91.5h245.6v76.9H176.7v-76.9z"></path></svg>