<svg xmlns="http://www.w3.org/2000/svg" viewBox="0 0 642 583.42"><path d="M325.12 413.69c3.37-30.71 15.22-58.84 33.16-82.02 53.47-69.1 45.05-171.57-37.28-171.57-82.35 0-90.77 102.43-37.28 171.57 17.94 23.18 29.78 51.32 33.16 82.02h8.24ZM499.16.02v117.13h-23.3c-28.61 0-47.78 28.98-37.24 55.15l93.86 232.4c14.88 36.4 50.2 61.57 91.29 61.57H642v117.15H339.14v-4.36c30.21-8.01 52.48-35.54 52.48-68.27 0-39-31.62-70.62-70.62-70.62s-70.62 31.62-70.62 70.62c0 32.73 22.27 60.26 52.48 68.27v4.36H0V466.27h18.23c41.09 0 76.41-25.17 91.29-61.57l93.86-232.4c10.54-26.17-8.63-55.15-37.24-55.15h-23.3V.02h117.97c27.83 0 51.24 18.89 58.13 44.54l4.11-.02C329.94 18.89 353.36 0 381.19 0l117.97.02Z"></path></svg>