<svg data-name="Layer 1" xmlns="http://www.w3.org/2000/svg" viewBox="0 0 605.7 607.84"><path d="M389.25 465.16c-23.08 23.08-53.76 35.79-86.39 35.79s-63.32-12.71-86.39-35.78L0 245.74v362.1h605.7V245.79L389.24 465.16Z"></path><path d="M235.06 446.56c37.44 37.44 98.15 37.44 135.59 0l201.32-201.32c42.54-42.54 42.54-111.5 0-154.04-42.54-42.54-111.5-42.54-154.04 0l-23.73 23.73V64.99c11.45-5.53 19.36-17.22 19.36-30.78C413.56 15.32 398.25 0 379.35 0s-34.21 15.31-34.21 34.21c0 13.56 7.92 25.25 19.36 30.78v79.63l-46.81 46.81V64.99c11.45-5.53 19.36-17.22 19.36-30.78C337.05 15.32 321.74 0 302.84 0s-34.21 15.31-34.21 34.21c0 13.56 7.92 25.25 19.36 30.78v126.44l-46.81-46.81V64.99c11.45-5.53 19.36-17.22 19.36-30.78C260.54 15.32 245.23 0 226.33 0s-34.21 15.31-34.21 34.21c0 13.56 7.92 25.25 19.36 30.78v49.94L187.75 91.2c-42.54-42.54-111.5-42.54-154.04 0-42.54 42.54-42.54 111.5 0 154.04l201.32 201.32Z"></path></svg>