<svg data-name="Layer 1" xmlns="http://www.w3.org/2000/svg" viewBox="0 0 609.08 609.09"><path d="M304.54 0C136.62 0 0 136.62 0 304.54s136.62 304.54 304.54 304.54 304.54-136.62 304.54-304.54S472.47 0 304.54 0Zm0 505.23c-110.66 0-200.69-90.03-200.69-200.69s90.03-200.69 200.69-200.69 200.69 90.03 200.69 200.69-90.03 200.69-200.69 200.69Z"></path><path d="M401.25 237.76c-16.76-36.72-53.71-62.29-96.71-62.29s-79.95 25.56-96.71 62.29c-1.93 4.22-5.99 7.1-10.61 7.54-45.98 4.4-81.2 45.64-75.77 93.87 4.26 37.81 34.34 68.69 72.04 73.86 27.17 3.73 52.18-5.56 69.95-22.4v.1c10.69-10.12 25.13-16.32 41.02-16.32h.18c15.89 0 30.33 6.2 41.03 16.32v-.1c17.76 16.85 42.78 26.13 69.94 22.4 37.7-5.17 67.78-36.05 72.04-73.86 5.43-48.23-29.8-89.47-75.77-93.87-4.62-.44-8.68-3.32-10.61-7.54Z"></path></svg>