<svg data-name="Layer 1" xmlns="http://www.w3.org/2000/svg" viewBox="0 0 576.02 608.71"><path d="M97.74 518.72c0-38.63 23.61-71.72 57.18-85.69V162.5c19.12-17.05 31.23-41.79 31.23-69.42C186.15 41.67 144.48 0 93.08 0S0 41.67 0 93.08c0 27.63 12.11 52.37 31.23 69.42v446.21h136.98c-40.45-10.01-70.47-46.45-70.47-89.99ZM72.41 92.1c0-11.41 9.25-20.67 20.66-20.67s20.66 9.25 20.66 20.67-9.25 20.66-20.66 20.66-20.66-9.25-20.66-20.66ZM482.95 0c-51.4 0-93.08 41.67-93.08 93.08 0 27.63 12.11 52.37 31.23 69.42v270.53c33.57 13.97 57.18 47.07 57.18 85.69 0 43.54-30.03 79.97-70.47 89.99h136.98V162.5c19.12-17.05 31.23-41.79 31.23-69.42 0-51.4-41.67-93.08-93.08-93.08Zm0 112.76c-11.41 0-20.66-9.25-20.66-20.66s9.25-20.67 20.66-20.67 20.66 9.25 20.66 20.67-9.25 20.66-20.66 20.66ZM292.67 518.72c0-38.63 23.62-71.72 57.18-85.69v-76.82H226.16v76.82c33.57 13.97 57.18 47.07 57.18 85.69 0 43.54-30.03 79.97-70.47 89.99h150.27c-40.44-10.01-70.47-46.45-70.47-89.99ZM226.17 162.5v122.46h123.69V162.5c19.12-17.05 31.23-41.79 31.23-69.42C381.09 41.67 339.42 0 288.01 0s-93.08 41.67-93.08 93.08c0 27.63 12.11 52.37 31.23 69.42Zm61.84-91.06c11.41 0 20.66 9.25 20.66 20.67s-9.25 20.66-20.66 20.66-20.66-9.25-20.66-20.66 9.25-20.67 20.66-20.67Z"></path><path d="M190.54 495.05c-13.08 0-23.67 10.6-23.67 23.67s10.6 23.68 23.67 23.68 23.67-10.6 23.67-23.68-10.6-23.67-23.67-23.67ZM385.48 495.05c-13.08 0-23.68 10.6-23.68 23.67s10.6 23.68 23.68 23.68 23.67-10.6 23.67-23.68-10.6-23.67-23.67-23.67Z"></path></svg>