<svg data-name="Layer 1" xmlns="http://www.w3.org/2000/svg" viewBox="0 0 597.53 597.54"><path d="M597.53 268.93H417.66l177.25-22.25-1.84-14.61-212.04 26.62L531.12 108.6l-42.19-42.19L361.74 193.6l109.6-141.07-11.63-9.03L328.6 212.26V0h-59.67v179.88L246.68 2.63l-14.61 1.83 26.62 212.04L108.6 66.41 66.41 108.6 193.6 235.79 52.53 126.2l-9.03 11.62 168.76 131.11H0v59.67h179.88L2.63 350.86l1.83 14.6 212.04-26.62L66.41 488.93l42.19 42.19 127.19-127.19L126.2 545l11.62 9.04L262.47 393.6V262.14h66.13v6.46h-59.67v328.94h59.67V417.66l22.26 177.25 14.6-1.84-26.62-212.04 150.09 150.09 42.19-42.19-127.19-127.19L545 471.34l9.04-11.63L385.27 328.6h212.26v-59.67z"></path></svg>