<svg xmlns="http://www.w3.org/2000/svg" width="641.42" viewBox="0 0 641.42 642" height="642" data-name="Layer 1"><path d="M17.37 215.41c-4.33 12.44-7.95 25.22-10.74 38.31L123.17 321 6.64 388.29c2.79 13.09 6.4 25.86 10.74 38.31l182.89-105.59-182.9-105.6Z"></path><path d="M3.81 268.78C1.94 280.22.63 291.85 0 303.67l30.03 17.34L0 338.34c.63 11.81 1.94 23.44 3.81 34.89l90.46-52.22-90.46-52.23ZM260.48 5.54c-13.15 2.5-26.01 5.78-38.54 9.82v134.58L105.43 82.67c-9.84 8.9-19.08 18.44-27.76 28.48L260.48 216.7V5.54Z"></path><path d="M207.49 20.41c-11.01 4.15-21.72 8.92-32.12 14.2v34.66l-30-17.32c-9.82 6.41-19.31 13.3-28.35 20.72l90.46 52.23V20.41Z"></path><path d="M313.48 0c-13.05.29-25.92 1.32-38.54 3.12v238.61L68.34 122.45c-7.97 10.12-15.41 20.67-22.14 31.72l267.28 154.31V0ZM563.74 111.15c-8.68-10.04-17.91-19.58-27.76-28.48l-116.51 67.27V15.36a317.017 317.017 0 0 0-38.54-9.82V216.7l182.81-105.55Z"></path><path d="M524.39 72.67c-9.04-7.42-18.52-14.31-28.35-20.72l-30 17.32V34.61c-10.4-5.29-21.1-10.05-32.12-14.2v104.5l90.46-52.23Z"></path><path d="M595.21 154.17c-6.73-11.05-14.17-21.6-22.14-31.72L366.48 241.73V3.12C353.86 1.32 340.99.29 327.94 0v308.49l267.28-154.31ZM634.78 253.72c-2.79-13.09-6.4-25.86-10.74-38.31L441.15 321l182.89 105.59c4.33-12.44 7.95-25.22 10.74-38.31L518.24 321l116.54-67.28Z"></path><path d="M637.6 373.23c1.87-11.44 3.18-23.07 3.81-34.89L611.38 321l30.03-17.34c-.63-11.81-1.94-23.44-3.81-34.89l-90.46 52.22 90.46 52.22ZM313.51 325.18V642c-13.1-.26-25.95-1.28-38.54-3.08V346.25L38.96 475.3c-6.17-11.24-11.63-22.93-16.44-35.01L229.17 321 22.52 201.72c4.82-12.08 10.28-23.77 16.44-35.01l236.01 136.25 38.54 22.23Z"></path><path d="M412.25 321.01 618.9 440.3c-4.82 12.08-10.28 23.77-16.44 35.01L366.45 346.26v292.67c-12.59 1.8-25.44 2.83-38.54 3.08V325.19l38.54-22.23 236.01-136.25c6.17 11.24 11.63 22.93 16.44 35.01L412.25 321.01Z"></path></svg>