<svg data-name="Layer 1" xmlns="http://www.w3.org/2000/svg" viewBox="0 0 621.74 621.74"><path d="M621.74 278.76H442.46l100.01-100.01 21.76-115.02-200.51 200.51-46.63 46.63 46.63 46.63 200.51 200.51-21.76-115.02-100.01-100.01h179.28v-64.22zM310.87 304.65l46.63-46.63L558.01 57.51 442.99 79.27l-100 100.01L342.98 0h-64.22v179.28L178.75 79.27 63.73 57.51l200.51 200.51 46.63 46.63zM57.51 558.01 258.02 357.5l46.63-46.63-46.63-46.63L57.51 63.73l21.76 115.02 100.01 100.01H0v64.22l179.28.01-100.01 100-21.76 115.02zM310.87 317.09l-46.63 46.63L63.73 564.23l115.02-21.76 100.01-100.01v179.28h64.22V442.46l100.01 100.01 115.02 21.76L357.5 363.72l-46.63-46.63z"></path></svg>