<svg data-name="Layer 1" xmlns="http://www.w3.org/2000/svg" viewBox="0 0 617.06 611.61"><path d="M233.08 79.22c0 43.75 35.47 79.21 79.22 79.21s79.21-35.46 79.21-79.21S356.04 0 312.29 0s-79.22 35.46-79.22 79.22ZM452 431.75c-43.75 0-79.22 35.46-79.22 79.21s35.47 79.22 79.22 79.22 79.22-35.46 79.22-79.22-35.47-79.21-79.22-79.21ZM251.75 509.25c0-43.75-35.47-79.21-79.22-79.21s-79.21 35.46-79.21 79.21 35.47 79.22 79.21 79.22 79.22-35.47 79.22-79.22ZM86.19 322.71c43.75 0 79.22-35.47 79.22-79.22s-35.47-79.21-79.22-79.21-79.21 35.46-79.21 79.21 35.47 79.22 79.22 79.22ZM358.83 252.83l-46.54-71.75-46.59 71.75-82.6 22.11 53.81 66.49-4.47 85.41 79.85-30.66 79.81 30.66-4.48-85.41 53.86-66.49-82.65-22.11z"></path><path d="M154.65 202.71c4.96 6.44 10.57 12.38 16.81 17.64 19.51 16.46 44.72 26.39 72.29 26.39 5.7 0 11.3-.44 16.76-1.23h-.1l51.89-77.99c-27.67 0-52.43-12.83-68.65-32.83-12.29-15.18-19.66-34.45-19.66-55.48 0-17.3 5.01-33.42 13.61-47.03 2.11-3.34 4.42-6.54 6.98-9.53 6.49-7.76 14.3-14.4 23.05-19.56L152.2 69.92c-3.29 4.62-6.19 9.48-8.75 14.54-7.57 15.09-11.84 32.14-11.84 50.22 0 13.07 2.21 25.56 6.34 37.2 3.93 11.2 9.63 21.57 16.71 30.81ZM537.85 165.8c-43.75 0-79.22 35.47-79.22 79.22s35.47 79.21 79.22 79.21 79.22-35.46 79.22-79.21-35.47-79.22-79.22-79.22Z"></path><path d="M585.27 407.13c-2.75-16.71-9.39-32.97-20-47.57-7.67-10.56-16.86-19.36-27.03-26.34-9.78-6.73-20.49-11.79-31.65-15.09-7.76-2.31-15.82-3.73-23.93-4.33-25.5-1.82-51.7 5.01-73.96 21.23-4.62 3.39-8.89 7.03-12.83 10.91l4.08 93.61c22.36-16.31 49.93-20.54 74.79-13.91 18.87 5.01 36.17 16.27 48.55 33.22 10.17 14.01 15.63 29.98 16.71 46.05.29 3.93.29 7.86 0 11.79-.62 9.86-2.95 19.53-6.8 28.65l53.58-121.33c-.1-5.65-.59-11.3-1.52-16.9ZM532.93 546.1c.1-.24.18-.49.28-.73l-.28.64v.1ZM372.14 131.65c-4.62 6.68-8.5 13.86-11.55 21.43-9.63 23.64-11.3 50.72-2.8 76.91 1.77 5.41 3.88 10.62 6.39 15.58v-.05l90.22 25.26c-8.55-26.34-4.03-53.86 10.02-75.43 10.61-16.36 26.73-29.34 46.68-35.82 16.41-5.36 33.32-5.6 48.94-1.57 3.83.98 7.57 2.21 11.2 3.68 9.39 3.78 18.08 9.14 25.7 15.87l-99.22-89.14s-10.91-2.95-16.56-3.83c-16.71-2.56-34.25-1.33-51.4 4.22-12.43 4.03-23.64 10.03-33.47 17.5-9.43 7.22-17.54 15.82-24.18 25.4ZM154.89 431.6c7.67-2.7 15.04-6.24 21.97-10.52 21.72-13.46 38.92-34.4 47.47-60.54 1.77-5.4 3.1-10.86 3.98-16.31v-.05l-58.13-73.47c-8.55 26.34-28.4 45.9-52.43 55.13-18.23 7.03-38.87 8.06-58.82 1.57-16.41-5.36-30.22-15.09-40.54-27.47-2.51-3.05-4.82-6.24-6.93-9.58-5.41-8.55-9.29-18.03-11.45-27.96l27.91 130.42c3.34 4.52 7.08 8.8 11.11 12.83 12.04 11.89 26.93 21.23 44.08 26.78 12.43 4.03 25.01 5.8 37.35 5.5 11.84-.3 23.49-2.46 34.45-6.34ZM369.74 479.12c-5.95-24.86-20.34-47.76-42.56-64.13-4.57-3.39-9.34-6.34-14.25-8.94l-88.01 32.09c22.31 16.41 34.64 41.43 35.82 67.13.93 19.51-4.62 39.41-17.05 56.32-10.22 13.91-23.83 23.93-38.82 29.83-3.69 1.42-7.42 2.6-11.25 3.54-9.83 2.41-20.05 3.14-30.12 2.06l132.58 14.59c5.36-1.77 10.61-3.93 15.68-6.54 15.09-7.67 28.6-18.87 39.31-33.42 7.72-10.51 13.37-21.92 16.95-33.71 3.49-11.35 5.06-23.05 4.82-34.69-.15-8.16-1.18-16.22-3.1-24.13Z"></path></svg>