<svg xmlns="http://www.w3.org/2000/svg" width="642" viewBox="0 0 642 630.7" height="630.7" style="overflow:visible;enable-background:new 0 0 642 630.7" xml:space="preserve"><path d="M642 630.7c-25.2-24.4-59.8-39.5-97.6-39.5H111c-25.1 0-46.5-16.2-54.1-38.8-11.5-40.4-16.4-57.8-16.2-56.9 11.9 10.9 26.9 16.3 42.2 16.3h463.7c33.1 0 62.5 21.2 73.1 52.6 5.9 17.2 22.3 66.3 22.3 66.3zM560 385.6c5.7 17.2-7 34.9-25.1 34.9H57c-31.5 0-57-25.6-57-57v-21.7c0-6 .7-11.9 2-17.6 3.3-14.6 10.8-27.7 21.1-38l161.2-181.7c.6-.5.9-1.3.9-2.1 0-1.7-1.3-3-3-3-.8 0-1.6.3-2.1.8L128.4 152c-.5.5-1.2.8-2 .8-1.5 0-2.8-1.3-2.8-2.8 0-.8.3-1.5.8-2 1.2-1.5 2.2-3.1 3-4.9 1.9-3.7 2.9-7.9 2.9-12.3 0-4.9-1.2-9.4-3.4-13.4 0 0-6.9-11.9-12.2-21.2-11.3-19.4-10.6-44.7 3.5-63.9C132.8 13.1 156.8 0 183.7 0c45.7 0 82.7 37 82.7 82.6 0 19.2-6.5 36.9-17.5 50.9L162 244.7h304.2c16.4 0 30.9-8 39.8-20.3 2.4 7.1-8.7-25.9 23.4 69.8.8 2.3 1.2 4.8 1.2 7.4 0 12.4-10 22.5-22.5 22.5H98.5c-1.7 0-3 1.3-3 3 0 1.6 1.3 3 3 3h409.7c11.8 0 22.9-7.5 26.8-19.1l25 74.6z"></path><path d="M610 535.1c-15.3-17.9-37.9-29.3-63.2-29.3H85.7c-25.7 0-47.1-17.1-53.9-41.9l-14.7-51.8c10.8 9 24.8 14.3 39.9 14.3h488c17.5 0 32.4 11.4 37.6 27.1l27.4 81.6z"></path></svg>