<svg xmlns="http://www.w3.org/2000/svg" width="612.8" viewBox="0 0 612.8 612.8" height="612.8" xml:space="preserve" style="enable-background:new 0 0 612.8 612.8"><path d="M334.38 1.25C143.49-15.78-15.77 143.48 1.25 334.37 14.3 480.69 132.12 598.52 278.44 611.56c190.87 17.01 350.11-142.23 333.11-333.1C598.52 132.14 480.69 14.3 334.38 1.25zM227.41 478.07c-14.47 0-26.24-12.65-26.24-28.21V143.34l193.68 334.73H227.41zm0 43.41h230.13c-44.45 31.39-96.51 47.92-151.15 47.92-145.01 0-262.99-117.98-262.99-263 0-86.89 42.64-167.5 114.37-216.79v360.26c0 39.48 31.24 71.61 69.64 71.61zM342.27 45.9c129.91 17.74 227.12 128.67 227.12 260.5 0 18.14-1.93 36.45-5.74 54.45h-31.88c-4.88 0-9.38-2.6-11.82-6.83L342.27 45.9zm208.18 358.35c-10.82 26.9-25.96 51.71-45.06 73.82h-28.98c-20.76 0-40.36-11.6-51.15-30.28l-94.19-164.37V113.38L488 385.48c6.68 11.57 19.04 18.77 32.25 18.77h30.2zM205.17 63.72c26.28-11.01 53.99-17.59 82.5-19.61v163.57l-82.5-143.96z"></path></svg>