<svg xmlns="http://www.w3.org/2000/svg" width="622.1" viewBox="0 0 622.1 471.2" height="471.2" xml:space="preserve" style="enable-background:new 0 0 622.1 471.2"><path d="M363.9 381.9h-53.7V359h53.7c67.8 0 123-55.2 123-123s-55.2-123-123-123h-45.2V90h45.2c80.5 0 145.9 65.5 145.9 145.9s-65.4 146-145.9 146z"></path><path d="M386.5 471.2H0v-22.9h386.5c117.3 0 212.7-95.4 212.7-212.7 0-117.3-95.4-212.7-212.7-212.7h-67.7V0h67.7c129.9 0 235.6 105.7 235.6 235.6 0 129.9-105.7 235.6-235.6 235.6z"></path><path d="M210.8 381.9h-22.9V90h79.7V22.9H23.4v69.9h80.1v289.1H0V359h80.6V115.7H.5V0h289.9v112.9h-79.6z"></path></svg>