<svg xmlns="http://www.w3.org/2000/svg" width="618.4" viewBox="0 0 618.4 526.5" height="526.5" xml:space="preserve"><path d="M612.3 32.5C602.4 12.4 582.4 0 560.1 0H140.3c-16.6 0-32.1 6.5-43.7 18.3-11.6 11.8-17.8 27.4-17.5 44 .6 33.2 28.5 60.2 62.2 60.2h256.6c6.2 0 11.5 3.3 14.2 8.8 2.7 5.5 2.1 11.8-1.6 16.7L229.8 383.9a61.869 61.869 0 0 1-45.6 20.1c-33.5 0-61.1-27.2-61.7-60.7-.3-16.3 6-31.9 17.7-43.8 11.9-12.1 28.3-19 45.1-19h53.8c16.6 0 32.1-6.5 43.7-18.3 11.6-11.8 17.8-27.4 17.6-44-.6-33.2-28.5-60.2-62.2-60.2h-51.9C84.1 158.1.6 240.2 0 341.2c-.3 49.3 18.8 95.8 53.6 130.9 34.9 35.1 81.3 54.4 130.6 54.4 53.4 0 104.1-23.1 139.2-63.5l1.3-1.5L606.4 93.7c13.5-17.7 15.8-41.2 5.9-61.2z"></path></svg>