<svg data-name="Layer 1" xmlns="http://www.w3.org/2000/svg" viewBox="0 0 621.7 621.7"><path d="M441.32 171.98h147.34c-31.55-62.65-83.65-113.31-147.34-143.02v143.02ZM390.42 171.98V10.44C364.99 3.66 338.33 0 310.85 0 189.73 0 84.27 70.25 33.04 171.98h357.38ZM611.28 390.36c6.77-25.41 10.42-52.05 10.42-79.51 0-30.53-4.53-60.04-12.83-87.97H456.78l154.5 167.48ZM12.83 222.88C4.53 250.81 0 280.32 0 310.85c0 79.05 29.95 151.42 79 206.42l294.39-294.39H12.83ZM415.28 252.97 115.85 552.4c53.43 43.26 121.31 69.3 195 69.3 123.39 0 230.56-72.87 280.67-177.69L415.29 252.97Z"></path></svg>