<svg xmlns="http://www.w3.org/2000/svg" width="536.3" viewBox="0 0 536.3 616.3" height="616.3" xml:space="preserve"><path d="M285.1 281.1c3.4-23.7-12.7-34.8-31.1-34.7-13.9 0-28.5 6.8-35.7 16.3-24 31.8-4.5 77.9 21.9 101.4 27.8 24.7 73.3 35.5 117.5 32.6 26.5-1.8 52.4-9.9 73.7-18.8 53.6-22.3 93.6-75.6 102.5-138.2 8.6-59.9-7.2-106.6-32.3-141.7-36.2-51-90.8-93-168.1-98H0V616.2h489v-2.3c-54 .1-94.3-14-134.8-27.6-79-26.7-147.2-77.5-187.8-144-20.7-34-37.2-82-33.4-132.5 4.6-60.2 38.4-112.6 94.5-125.6 16.6-3.9 35.6-5.3 54.1 0 30.2 8.6 61.4 39.5 57.6 79.5-2 21-12.6 38.2-31.1 44.9-13.5 4.9-42.4 7.6-48.4-6.9 15.5-.4 23.7-9 25.4-20.6z"></path></svg>