<svg xmlns="http://www.w3.org/2000/svg" width="574.3" viewBox="0 0 574.3 598.7" height="598.7"><path d="M287.5 87.7c45.8 30.7 74.1 2.2 76.7 0V68.6c-2.6 2.2-31 30.7-76.7 0-43.1-28.9-77.4 0-77.4 0v19.1s34.2-28.9 77.4 0z"></path><path d="M287.5 54.8c45.8 30.7 74.1 2.2 76.7 0V40.2c-2.6 2.2-31 30.7-76.7 0-43.1-28.9-77.4 0-77.4 0v14.6s34.2-28.9 77.4 0z"></path><path d="M287.5 20c45.8 30.7 74.1 2.2 76.7 0v-7.1c-2.6 2.2-31 30.7-76.7 0-43.1-28.9-77.4 0-77.4 0V20s34.2-29 77.4 0zM286.8 511c-45.8-30.7-74.1-2.2-76.7 0v19.1c2.6-2.2 31-30.7 76.7 0 43.1 28.9 77.4 0 77.4 0V511s-34.3 28.9-77.4 0z"></path><path d="M286.8 543.9c-45.8-30.7-74.1-2.2-76.7 0v14.6c2.6-2.2 31-30.7 76.7 0 43.1 28.9 77.4 0 77.4 0v-14.6s-34.3 28.9-77.4 0z"></path><path d="M286.8 578.8c-45.8-30.7-74.1-2.2-76.7 0v7.1c2.6-2.2 31-30.7 76.7 0 43.1 28.9 77.4 0 77.4 0v-7.1s-34.3 28.9-77.4 0zM470.6 193.9c-3.7 55 35.1 65.3 38.4 66.5l16.5-9.5c-3.2-1.1-42.1-11.5-38.4-66.5 3.5-51.8-38.7-67.1-38.7-67.1l-16.5 9.5s42.2 15.3 38.7 67.1z"></path><path d="M499.1 177.4c-3.7 55 35.1 65.3 38.4 66.5l12.7-7.3c-3.2-1.1-42.1-11.5-38.4-66.5 3.5-51.8-38.7-67.1-38.7-67.1l-12.7 7.3c0 .1 42.2 15.3 38.7 67.1z"></path><path d="M529.3 160c-3.7 55 35.1 65.3 38.4 66.5l6.2-3.6c-3.2-1.1-42.1-11.5-38.4-66.5 3.5-51.8-38.7-67.1-38.7-67.1l-6.2 3.6c0 .1 42.2 15.3 38.7 67.1zM103.7 404.9c3.7-55-35.1-65.3-38.4-66.5l-16.5 9.5c3.2 1.1 42.1 11.5 38.4 66.5-3.5 51.8 38.7 67.1 38.7 67.1l16.5-9.5c0-.1-42.2-15.3-38.7-67.1z"></path><path d="M75.2 421.3c3.7-55-35.1-65.3-38.4-66.5l-12.7 7.3c3.2 1.1 42.1 11.5 38.4 66.5-3.5 51.8 38.7 67.1 38.7 67.1l12.7-7.3s-42.2-15.3-38.7-67.1z"></path><path d="M45 438.7c3.7-55-35.1-65.3-38.4-66.5l-6.2 3.6c3.2 1.1 42.1 11.5 38.4 66.5-3.5 51.8 38.7 67.1 38.7 67.1l6.2-3.6S41.5 490.6 45 438.7zM486.8 415.1c46.6-22.9 38.7-67 38.7-67l-16.5-9.6s7.9 44.2-38.7 67c-49.5 24.3-39 63.1-38.4 66.4l16.5 9.6c-.7-3.3-11.1-42.1 38.4-66.4z"></path><path d="M511.3 429.3c46.6-22.9 38.7-67 38.7-67l-12.6-7.3s7.9 44.2-38.7 67c-49.5 24.3-39 63.1-38.4 66.4l12.6 7.3c-.6-3.3-11-42.1 38.4-66.4z"></path><path d="M573.8 376l-6.2-3.6s7.9 44.2-38.7 67c-49.5 24.3-39 63.1-38.4 66.4l6.2 3.6c-.6-3.4-11.1-42.2 38.4-66.4 46.6-22.9 38.7-67 38.7-67zM87.5 183.6c-46.6 22.9-38.7 67-38.7 67l16.5 9.6s-7.9-44.2 38.7-67c49.5-24.3 39-63.1 38.4-66.4l-16.5-9.6c.7 3.4 11.1 42.2-38.4 66.4z"></path><path d="M62.9 169.4c-46.6 22.9-38.7 67-38.7 67l12.6 7.3s-7.9-44.2 38.7-67c49.5-24.3 39-63.1 38.4-66.4l-12.6-7.3c.7 3.4 11.1 42.2-38.4 66.4z"></path><path d="M6.7 226.3s-7.9-44.2 38.7-67c49.5-24.3 39-63.1 38.4-66.4l-6.2-3.6c.6 3.4 11.1 42.2-38.4 66.4-46.6 22.9-38.7 67-38.7 67l6.2 3.6zM460.2 399.8c46.6-22.9 38.7-67 38.7-67l-57.4-33.2-.2-.1.2-.1 57.4-33.1s-41.9-14.6-38.4-66.5c3.5-51.8-38.7-67.1-38.7-67.1l-57.4 33.1-.2.1V99.3s-33.6 28.9-76.7 0-77.4 0-77.4 0v66.5l-.2-.1-57.4-33.2s8.2 43.6-38.4 66.4c-46.6 22.9-38.7 67-38.7 67l57.4 33.2.2.1-.3.1-57.4 33.1s41.9 14.6 38.4 66.5c-3.5 51.8 38.7 67.1 38.7 67.1l57.4-33.1.2-.1v66.6s33.6-28.9 76.7 0 77.4 0 77.4 0v-66.5l.2.1 57.4 33.2c.1 0-8.2-43.6 38.5-66.4z"></path></svg>