<svg data-name="Layer 1" xmlns="http://www.w3.org/2000/svg" viewBox="0 0 623.38 549.21"><path d="M623.38 201.39 517.64 18.24H327.75L317.23 0H105.74L0 183.15l94.88 164.33-10.73 18.58 105.73 183.15h211.49l95.07-164.67h21.2l105.74-183.15ZM506.19 38.08l94.29 163.31-94.22 163.2-94.02-162.85 10.73-18.59-83.76-145.07h166.98Zm-189.23 1.14 82.97 143.7H233.99l82.97-143.7Zm71.79 163.54-82.32 142.57-82.32-142.57h164.63Zm-187.47.12 82.9 143.59H118.37l82.9-143.59Zm199.51 18.71 82.64 143.12H318.16l82.63-143.12ZM22.9 183.15l94.3-163.31h188.04l-94.15 163.08h-21.2l-83.55 144.73-83.44-144.5Zm367.01 346.22H201.34L107.19 366.3h188.44l10.53 18.24h167.38l-83.63 144.84Z"></path></svg>