<svg id="Layer_1" data-name="Layer 1" xmlns="http://www.w3.org/2000/svg" viewBox="0 0 617.69 617.69">   <path d="M617.69,308.84c0-34.82-28.23-63.05-63.05-63.05s-63.05,28.23-63.05,63.05c0,32.71,24.91,59.6,56.8,62.74v120.31c-29.83,2.94-53.56,26.66-56.49,56.49h-120.31c-2.94-29.83-26.66-53.56-56.49-56.49v-120.31c31.89-3.14,56.8-30.03,56.8-62.74s-24.91-59.6-56.8-62.74V125.79c29.83-2.94,53.56-26.66,56.49-56.49h120.31c3.14,31.89,30.03,56.8,62.74,56.8,34.82,0,63.05-28.23,63.05-63.05S589.46,0,554.64,0c-32.71,0-59.6,24.92-62.74,56.8h-120.31c-3.14-31.89-30.03-56.8-62.74-56.8s-59.6,24.92-62.74,56.8H125.79C122.65,24.92,95.76,0,63.05,0,28.23,0,0,28.23,0,63.05c0,32.71,24.91,59.6,56.8,62.74v120.31c-31.89,3.14-56.8,30.03-56.8,62.74s24.91,59.6,56.8,62.74v120.31c-31.89,3.14-56.8,30.03-56.8,62.74,0,34.82,28.23,63.05,63.05,63.05s63.05-28.23,63.05-63.05c0-32.71-24.91-59.6-56.8-62.74v-120.31c29.83-2.94,53.56-26.66,56.49-56.49h120.31c2.94,29.83,26.66,53.56,56.49,56.49v120.31c-31.89,3.14-56.8,30.03-56.8,62.74,0,34.82,28.23,63.05,63.05,63.05,32.71,0,59.6-24.91,62.74-56.8h120.31c3.14,31.89,30.03,56.8,62.74,56.8,34.82,0,63.05-28.23,63.05-63.05,0-32.71-24.91-59.6-56.8-62.74v-120.31c31.89-3.14,56.8-30.03,56.8-62.74ZM69.3,246.1V125.79c29.83-2.94,53.56-26.66,56.49-56.49h120.31c2.94,29.83,26.66,53.56,56.49,56.49v120.31c-29.83,2.94-53.56,26.66-56.49,56.49H125.79c-2.93-29.83-26.66-53.56-56.49-56.49Z"></path> </svg>