<svg xmlns="http://www.w3.org/2000/svg" width="642" viewBox="0 0 642 477.9" height="477.9" style="overflow:visible;enable-background:new 0 0 642 477.9" xml:space="preserve"><path class="st0" d="M410.6 0c-64.2 0-125.4 26.6-169 73.5L82.3 244.3l-.4.6c-3.8-2-8.2-3-13-2.7-10.9.7-20.3 9.2-22.1 20-1.4 8.5 1.7 16.4 7.3 21.6v.1l-19 20.3c-6.4 6.9-9.9 15.8-9.9 25.2v31.2c0 5.6-1.2 11.2-3.6 16.3L.8 421.6c-2 4.2 0 9.1 4.2 10.8l18.3 7.5c12.3 4.9 26.2 3.3 37.1-4.2l147.3-103.2v74.7c0 3-1.2 5.8-3.1 8L171.1 451c-9.6 10.3-2.3 27 11.7 27h136c-37.6-25.7-62.2-68.9-62.2-117.9 0-72.1 53.4-131.7 122.9-141.4l17.4-2.5c1-8.9 8.5-15.7 17.6-15.7 7.9 0 14.6 5.3 16.9 12.5.3 1.5 1.4 2.7 2.9 3.1 11.7 2.5 14.8 3.1 15.5 3.3 5.2 1 9.2 4.9 10.6 10 1.2 4 4.2 7.4 8.2 8.9 1.3.6 14.4 6.5 14.4 6.5 1.2.5 2.2 1 2.8 2.1.3.6.5 1.2.5 1.9 0 .5-.1 1.1-.3 1.5-5.5 18.7-22.5 32.5-42.8 33.2-.8 0-11.9-.4-13-.4-36.8 0-66.6 29.8-66.6 66.5-.7 46.8 1.6 48.1-2.1 52 0 0-18.6 19.9-46 49.3-9.6 10.3-2.1 26.9 11.7 26.9h165.4c2.2 0 4.3-.9 5.8-2.6l81.1-86.9C717.2 240.8 612.5 0 410.6 0zM56.8 343.4c-3 0-5.6-1.2-7.6-3.1L64 324.6c2.2 1.9 3.7 4.8 3.7 8 0 5.9-4.9 10.8-10.9 10.8z"></path><path class="st0" d="M453.2 238.4c0 .8-.1 1.6-.3 2.4H435c-.2-.8-.3-1.5-.3-2.4 0-5.1 4.2-9.3 9.2-9.3 5.1 0 9.3 4.2 9.3 9.3z"></path></svg>