<svg data-name="Layer 1" xmlns="http://www.w3.org/2000/svg" viewBox="0 0 606.53 303.02"><path d="M587.82 73.1v111.23l-22-17.78V90.17h-57.59V0h-18.72v90.17H432.6v76.26l-22 17.92V73.1h-18.72v111.23l-22-17.77V90.17h-57.59V0h-18.72v90.17h-56.91v76.26l-22 17.93V73.1h-18.72v111.23l-22-17.77V90.17h-57.59V0H97.63v90.17H40.72v76.26l-22 17.92V73.1H0v229.01h18.72V192.02l88.24 111 88.98-110.98v110.08h18.72v-110.1l88.24 111 88.98-110.98v110.08h18.72V192.03l88.24 111 88.98-110.98v110.08h18.72V73.1h-18.72Zm-432.6 35.79v42.55l-38.87-31.4v-11.15h38.87Zm-95.79 0h38.19v11.18l-38.19 31.12v-42.3Zm38.19 35.32v117L41.17 190.2l56.45-45.99Zm18.72 117.18V144.11l57.07 46.1-57.07 71.18Zm234.82-152.5v42.55l-38.87-31.4v-11.15h38.87Zm-95.78 0h38.19v11.18l-38.19 31.12V108.9Zm38.19 35.32v117l-56.45-71.01 56.45-45.99Zm18.72 117.18V144.11l57.07 46.1-57.07 71.18Zm234.81-152.5v42.55l-38.87-31.4v-11.15h38.87Zm-95.78 0h38.19v11.18l-38.19 31.12v-42.3Zm38.19 35.32v117l-56.45-71.01 56.45-45.99Zm18.72 117.18V144.11l57.07 46.1-57.07 71.18Z"></path></svg>