<svg xmlns="http://www.w3.org/2000/svg" width="609.8" viewBox="0 0 609.8 609.8" height="609.8" xml:space="preserve"><path d="M394.8 297.4c-4.1-45.8-42.9-81.8-90-81.8-49.8 0-90.4 40.3-90.4 89.9s40.5 89.9 90.4 89.9c47 0 85.7-35.9 90-81.5h-62.2V379c0 1.8-2 2.8-3.5 1.8l-96.7-68.5c-4.6-3.2-4.6-9.9.1-13l96.7-66.7c1.5-1 3.5 0 3.5 1.8v63.2h62.1z"></path><path d="M304.9 90.6c57.6 0 111.8 22.4 152.5 63.1 38.7 38.7 60.9 89.5 62.9 143.8h89.5C605.8 132.5 470.9 0 304.9 0 136.5 0 0 136.5 0 304.9v304.9h89.4V305.6c0-57.4 22.4-111.4 63.1-152 40.7-40.6 94.8-63 152.4-63z"></path><path d="M106.5 307.7c.5 52.2 21.1 101.3 58.2 138.3 37.5 37.4 87.3 58 140.3 58 53 0 102.8-20.6 140.3-58 35.6-35.5 56-82.2 58-132.1h-91.6c-4.3 54.7-50.6 98-106.9 98-59.1 0-107.2-47.7-107.2-106.3 0-58.6 48.1-106.3 107.2-106.3 56.4 0 102.7 43.4 106.9 98.2h91.6c-2-49.9-22.4-96.6-58-132.1-37.5-37.4-87.3-58-140.3-58s-102.8 20.6-140.3 58c-37.5 37.5-58.2 87.3-58.2 140.3v2z"></path><path d="M457.4 457.7c-40.7 40.7-94.9 63.1-152.5 63.1-57.6 0-111.7-22.4-152.4-63.1-19.8-19.8-35.3-42.8-46-67.8V536.6c53.3 45.7 122.6 73.3 198.4 73.3 165.4 0 300.2-131.7 304.9-295.9h-89.4c-2.1 54.2-24.3 105-63 143.7z"></path></svg>