<svg data-name="Layer 1" xmlns="http://www.w3.org/2000/svg" viewBox="0 0 615.97 616.77"><path d="M274.86 308.38c0-122.61 62.48-230.89 157.27-294.7A313.643 313.643 0 0 0 388 0c-91.4 71.84-150.21 183.37-150.21 308.38S296.6 544.92 388 616.76c15.15-3.5 29.89-8.09 44.13-13.68-94.79-63.81-157.27-172.09-157.27-294.7ZM0 308.38C0 431.04 69.78 537.4 171.81 589.94c30.82-88.21 47.59-182.96 47.59-281.56s-16.77-193.34-47.59-281.55C69.78 79.36 0 185.72 0 308.38Z"></path><path d="M337.72 308.38c0-113.22 64.74-211.6 159.14-260.08a316.693 316.693 0 0 0-36.63-21.97c-95.55 57.68-159.58 162.52-159.58 282.04s64.03 224.36 159.58 282.04a316.693 316.693 0 0 0 36.63-21.97c-94.4-48.47-159.14-146.85-159.14-260.08Z"></path><path d="M400.58 308.38c0-98.02 61.83-181.85 148.53-214.59a319.69 319.69 0 0 0-29.3-27.95c-92.11 41.96-156.3 134.89-156.3 242.54s64.19 200.57 156.3 242.54a318.346 318.346 0 0 0 29.3-27.95c-86.7-32.74-148.53-116.57-148.53-214.59Z"></path><path d="M463.44 308.38c0-77.61 53.4-142.98 125.39-161.3a317.817 317.817 0 0 0-21.9-32.21c-81.5 26.57-140.56 103.27-140.56 193.52s59.06 166.95 140.56 193.52a317.29 317.29 0 0 0 21.9-32.21c-71.99-18.32-125.39-83.69-125.39-161.3Z"></path><path d="M526.3 308.38c0-52.4 39.12-95.8 89.68-102.61a316.244 316.244 0 0 0-14.46-35.15c-64 13.16-112.28 69.93-112.28 137.76s48.28 124.6 112.28 137.76c5.5-11.35 10.33-23.09 14.46-35.15-50.56-6.81-89.68-50.21-89.68-102.61Z"></path></svg>