<svg xmlns="http://www.w3.org/2000/svg" id="a" width="642" viewBox="0 0 642 483.59" height="483.59" data-name="form"><defs></defs><path d="M611.12 174.54C555.08 85.59 455.98 26.48 343.07 26.48c-174.85 0-316.59 141.74-316.59 316.59v140.52H0V343.07C0 153.6 153.6 0 343.07 0 471.3 0 583.1 70.35 641.97 174.56l-30.85-.02Z" class="b"></path><path d="M572.49 174.54C520.67 104.12 437.21 58.42 343.07 58.42c-157.21 0-284.65 127.44-284.65 284.65v140.52H32.74V343.07c0-171.39 138.94-310.33 310.33-310.33 109.26 0 205.33 56.46 260.62 141.8h-31.2Z" class="b"></path><path d="M538.86 174.54c-47.37-54.99-117.52-89.8-195.79-89.8-142.67 0-258.32 115.66-258.32 258.32v140.52H64.69V343.06c0-153.75 124.64-278.39 278.39-278.39 90.41 0 170.75 43.09 221.6 109.86h-25.81Z" class="b"></path><path d="M642 183.55c-32.71 24.84-53.84 64.15-53.84 108.4v106.8c0 22.05-16.75 41.36-38.77 42.49-22.77 1.17-41.73-16.28-43.02-38.46 0-2.04-1.65-3.69-3.69-3.69s-3.69 1.65-3.69 3.69v71.98c0 4.88-3.95 8.83-8.83 8.83H156.89c-4.88 0-8.83-3.95-8.83-8.83V349.01c0-107.26 84.1-197.93 191.32-200.87 111.25-3.05 202.39 86.22 202.39 196.78v50.76c0 3.92 3.18 7.1 7.1 7.1s7.1-3.18 7.1-7.1v-85.54c0-20.15-4.36-39.28-12.22-56.48-12.71-28.48-31.31-53.77-54.24-74.3h152.5v4.19ZM476.62 366.82c-16.65 28.78-47.76 48.15-83.4 48.15-53.19 0-96.3-43.11-96.3-96.3s43.11-96.3 96.3-96.3c46.32 0 84.98 32.7 94.2 76.28.45 2.1 2.51 3.44 4.62 3s3.44-2.51 3-4.62c-9.96-47.1-51.75-82.44-101.81-82.44-57.48 0-104.08 46.6-104.08 104.08s46.6 104.08 104.08 104.08c38.52 0 72.14-20.94 90.14-52.04 1.07-1.86.44-4.24-1.42-5.32a3.902 3.902 0 0 0-5.32 1.42Zm42.28-35.31c-4.43 0-8.02 3.59-8.02 8.02s3.59 8.02 8.02 8.02 8.02-3.59 8.02-8.02-3.59-8.02-8.02-8.02Z" class="b"></path><path d="M483.94 174.54c-38.13-31.91-87.26-51.12-140.87-51.12-121.31 0-219.64 98.34-219.64 219.64v140.52h-9.63V343.06c0-126.62 102.65-229.27 229.27-229.27 59.99 0 114.59 23.04 155.46 60.75h-14.58Z" class="b"></path><path d="M507.61 174.54c-42.46-41.46-100.52-67.01-164.55-67.01-130.08 0-235.53 105.45-235.53 235.53v140.52H91V343.06C91 203.85 203.85 90.99 343.07 90.99c74.42 0 141.31 32.25 187.45 83.54h-22.9Z" class="b"></path></svg>