<svg data-name="Layer 1" xmlns="http://www.w3.org/2000/svg" viewBox="0 0 613.59 610.96"><path d="m454.23 507.8-79.25-135.27c-10.04-17.12-27.85-27.75-46.54-27.75h-.14c-18.89.05-35.85 9.78-45.37 26.03L142.24 610.96h105.94l80.27-137.02 67.6 115.4c7.81 13.34 22.3 21.62 37.8 21.62h179.73v-91.11H475.29c-8.64 0-16.72-4.62-21.07-12.06ZM267.33 326.9c-.05-18.81-9.83-35.7-26.14-45.17L2.29 142.96 0 141.63v105.49l137.61 79.93L21.7 394.37C8.32 402.15 0 416.56 0 431.99v178.97h91.5v-137.7c0-8.6 4.64-16.64 12.11-20.98l135.85-78.91c17.24-10.01 27.92-27.82 27.87-46.47ZM159.37 103.16l79.25 135.27c10.03 17.12 27.85 27.75 46.54 27.75h.14c18.89-.05 35.85-9.78 45.37-26.03L471.35 0H365.41l-80.27 137.02-67.61-115.4C209.72 8.28 195.24 0 179.73 0H0v91.11h138.29c8.64 0 16.72 4.62 21.07 12.06ZM613.59 178.96V0h-91.5v137.7c0 8.6-4.64 16.64-12.1 20.98l-135.86 78.91c-17.24 10.01-27.92 27.82-27.87 46.48.05 18.8 9.82 35.69 26.14 45.17L611.29 468l2.29 1.33V363.84l-137.61-79.93 115.9-67.32c13.39-7.78 21.71-22.19 21.71-37.63Z"></path></svg>