<svg id="Layer_1" data-name="Layer 1" xmlns="http://www.w3.org/2000/svg" viewBox="0 0 617.36 618.88">   <path d="M548.31,308.13l69.05-205.79L515.95,0l-206.75,68.68L105.46,.51,1.4,102.95l67.7,206.9L0,515.92l102.83,102.83,204.86-67.29,205.42,67.42,103.26-103.53-68.07-207.23Zm-106.59-177.06l48.11,48.54L179.94,75.56l-47.86-48.22,309.64,103.73ZM73.38,442.6l-48.25,48.19L125.85,186.61l49.66-49.22L73.38,442.6Zm107.25,48.97l-48.46-48.38,306.43,100.57,47.64,48.04-305.61-100.22Zm305.51-49.67l-47.99,48.39,104.92-313.4,47.77-47.94-104.69,312.94Z"></path> </svg>