<svg xmlns="http://www.w3.org/2000/svg" width="554.6" viewBox="0 0 554.6 633.6" height="633.6" xml:space="preserve" style="enable-background:new 0 0 554.6 633.6"><path d="M271.9 421.5v-167H104.8c2.8 90.8 76.2 164.2 167.1 167zM282.8 65.5c96.9 2.9 175.1 81.1 178 178h93.9V15.2c0-8.4-6.8-15.2-15.2-15.2H282.8v65.5zM104.8 243.5h167.1v-167c-90.9 2.8-164.3 76.2-167.1 167zM449.9 254.5H282.8v167.1c90.8-2.9 164.2-76.3 167.1-167.1z"></path><path d="M460.8 254.5c-2.9 96.9-81.1 175.1-178 178v73.6h-10.9v-73.6c-96.9-2.9-175.1-81.1-178-178H0v183.8c0 8.4 6.8 15.2 15.2 15.2h135.1v165c0 8.4 6.8 15.2 15.2 15.2h223.7c8.4 0 15.2-6.8 15.2-15.2v-165h135.1c8.4 0 15.2-6.8 15.2-15.2V254.5h-93.9zM282.8 76.5v167.1h167.1C447 152.7 373.6 79.3 282.8 76.5zM93.9 243.5c2.9-96.9 81.1-175.1 178-178V0H15.2C6.8 0 0 6.8 0 15.2v228.3h93.9z"></path></svg>