<svg data-name="Layer 1" xmlns="http://www.w3.org/2000/svg" viewBox="0 0 619.93 622.17"><path d="M608.82 269.67c-14.8-14.81-38.83-14.82-53.64 0l-245.21 245.2-245.21-245.2c-14.82-14.81-38.83-14.81-53.65 0-14.82 14.82-14.82 38.83 0 53.65l298.86 298.85 298.85-298.85c14.82-14.82 14.82-38.83 0-53.65Z"></path><path d="m309.97 301.3 138.42-138.42c14.82-14.82 14.82-38.83 0-53.65-14.8-14.81-38.82-14.8-53.65 0L309.97 194l-84.77-84.77c-14.82-14.81-38.83-14.82-53.65 0s-14.82 38.83 0 53.65L309.97 301.3Z"></path><path d="M309.96 461.74 528.6 243.11c14.82-14.82 14.82-38.83 0-53.65-14.81-14.81-38.84-14.82-53.65 0l-165 164.99-164.97-165c-14.82-14.81-38.83-14.81-53.65 0-14.82 14.82-14.82 38.83 0 53.65l218.63 218.63Z"></path><circle cx="309.97" cy="69.49" r="69.49" transform="rotate(-13.28 310.009 69.478)"></circle></svg>