<svg data-name="Layer 1" xmlns="http://www.w3.org/2000/svg" viewBox="0 0 619 619"><path d="M470.46 0H317.59v152.87c0 82.03 66.5 148.54 148.54 148.54H619V148.54C619 66.5 552.5 0 470.46 0ZM0 148.54v152.87h152.87c82.03 0 148.54-66.5 148.54-148.54V0H148.54C66.5 0 0 66.5 0 148.54ZM152.87 317.6H0v152.87c0 82.03 66.5 148.54 148.54 148.54h152.87V466.14c0-82.03-66.5-148.54-148.54-148.54ZM317.6 466.13V619h152.87c82.03 0 148.54-66.5 148.54-148.54V317.59H466.14c-82.03 0-148.54 66.5-148.54 148.54Z"></path></svg>