<svg data-name="Layer 1" xmlns="http://www.w3.org/2000/svg" viewBox="0 0 612.55 612.55"><path d="M194.26 194.26c44.44-44.44 44.44-116.49 0-160.93-44.44-44.44-116.49-44.44-160.93 0-44.44 44.44-44.44 116.49 0 160.93 44.44 44.44 116.49 44.44 160.93 0ZM209.12 214.26l-.06.06C55.62 367.76-25.84 535.08 27.11 588.03c52.95 52.95 220.27-28.51 373.71-181.95l.06-.06H209.12V214.26ZM582.77 32.37C530.42-19.98 366.3 59.05 214.3 209.13h191.71v191.71C556.08 248.85 635.12 84.72 582.77 32.38ZM406.16 406.16h206.4v206.4h-206.4z"></path></svg>