<svg xmlns="http://www.w3.org/2000/svg" width="617.8" viewBox="0 0 617.8 468.9" height="468.9" xml:space="preserve" style="enable-background:new 0 0 617.8 468.9"><path d="M617.8 148.9V0H463.3C379.9 0 311.9 66.2 309 148.9l-.1 5.5v314.4h147.4V308.7c2.4.1 161.5.2 161.5.2V160H463.3v-11h154.5z"></path><path d="M617.6 148.9V0H463.1c-83.5 0-151.4 66.2-154.3 148.9v1.2C306.5 66.8 238.3 0 154.4 0H0v148.9h156.8v11H0v148.9h26.7l103.5 160H456V308.7c2.4.1 161.5.2 161.5.2V160H463.1v-11h154.5zM200.8 301.8c61.1-19.2 105.7-75.4 107.9-142.3v309L200.8 301.8z"></path></svg>