<svg data-name="Layer 1" xmlns="http://www.w3.org/2000/svg" viewBox="0 0 517.66 597.74"><path d="m259.7.5-.87-.5L.86 148.93l-.86.5v298.88l257.96 148.93.87.5 257.96-148.93.86-.5V149.43L259.7.5Zm171.23 303.1 81.48 45.37-81.48 47.04V303.6Zm83.26 42.39-81.48-45.37 81.48-47.04v92.41ZM343.83 542.72l-83.27-46.36v-96.34l83.27-48.07v190.77ZM3.47 153.44l166.9 96.36v292.87l-81.72-47.18V298.77L3.47 249.58v-96.14Zm257.1 44.29v-94.36l83.27 48.07v94.36l-83.27-48.07Zm-3.47 198.29-83.27-48.07v-96.14l83.27 48.07v96.14ZM5.2 150.44l83.26-48.07 166.91 96.36-83.26 48.07L5.2 150.44Zm168.63 201.51 83.27 48.07v96.34l-83.27 46.36V351.95Zm85-55.08-83.26-48.07 83.26-48.07 83.26 48.07-83.26 48.07Zm86.72-148.45-83.25-48.06 81.72-47.18 81.76 47.21-80.23 48.03Zm85.38-45.06 81.52 47.07-81.52 47.07v-94.13Zm-90.39-52.19-83.45 48.18v96.36L91.93 100.36 258.83 4l81.72 47.18ZM3.47 253.59l81.72 47.18v192.72L3.47 446.31V253.59ZM175.62 545.7l83.22-46.33 83.22 46.33-83.22 48.05-83.22-48.05Zm171.68-3.03V345.95l-86.73 50.07v-96.14l86.73-50.08v-98.38l80.17-48v100.09l86.73-50.07v96.14l-86.73 50.07v102.37l86.73-50.07v94.36l-166.9 96.36Z"></path></svg>