<svg xmlns="http://www.w3.org/2000/svg" width="619.8" viewBox="0 0 619.8 589.4" height="589.4" xml:space="preserve" style="enable-background:new 0 0 619.8 589.4"><path d="M619.8 225.1H410.1l112.2-81.5H356.5L309.9 0l-46.7 143.6H100.3l111.2 81.5H0l191.5 139.1-73.2 225.1 191.5-139.1 191.5 139.1-73.2-225.1 191.7-139.1zm-199 116.2-30.3-93.1h158.4l-128.1 93.1zm-110.9 80.5-85.2-61.9 85.7-62.3 84.9 62.2-85.4 62zm58.7-166.5 24.1 74.2-62.9-46.1 38.8-28.1zm-58.2 13.8-28.6-21h57.4l-28.8 21zm-49.5-44 19-58.5h59.9l19 58.5h-97.9zm29.9 58.2-63.9 46.4 24.5-75.3 39.4 28.9zm160.7-116.7L380.7 218 364 166.6h87.5zM309.9 74.5l22.5 69.1h-44.9l22.4-69.1zm-54.2 92.1L239.4 217l-68.8-50.4h85.1zM70.9 248.2h158.4L199 341.3 70.9 248.2zm140.2 130.3 79.2 57.5-128.1 93.1 48.9-150.6zm246.5 150.6L329.5 436l79.2-57.5 48.9 150.6z"></path></svg>