<svg xmlns="http://www.w3.org/2000/svg" width="385.2" viewBox="0 0 385.2 642" height="642" data-name="Layer 1"><path d="m237.54 0 22.07 113.53L281.68 0H385.2l-44.83 230.64H44.83L0 0h103.52l22.07 113.53L147.66 0h89.88zM339.46 352.3c0 9.36-5.94 17.34-14.25 20.36 0 0-36.68 8.91-51.49 17.46-27.1 15.68-45.33 44.98-45.33 78.54 0 23.48 12.36 69.61 12.36 93.09 0 22.17-6.61 42.8-17.97 60.02a49.939 49.939 0 0 1-24.8 19.25 15.242 15.242 0 0 1-10.76 0 49.939 49.939 0 0 1-24.8-19.25c-11.36-17.22-17.97-37.85-17.97-60.02 0-23.48 12.36-69.61 12.36-93.09 0-33.56-18.23-62.86-45.33-78.54-14.8-8.55-51.49-17.46-51.49-17.46-8.31-3.03-14.25-11-14.25-20.36v-60.67h293.72v60.67ZM192.6 558.54c-7.53 0-13.64 6.11-13.64 13.64s6.11 13.64 13.64 13.64 13.64-6.11 13.64-13.64-6.11-13.64-13.64-13.64Z"></path></svg>