<svg data-name="Layer 1" xmlns="http://www.w3.org/2000/svg" viewBox="0 0 598.89 598.89"><path d="M299.45 0v22.4l263.04 263.04-277.05 277.05L22.4 299.45H0l299.45 299.44 299.44-299.44L299.45 0z"></path><path d="M536.73 299.45 299.45 62.16v22.4l200.88 200.88-214.89 214.89L84.56 299.45h-22.4l237.29 237.28 237.28-237.28z"></path><path d="M474.56 299.45 299.45 124.33v22.4l138.71 138.71-152.72 152.72-138.71-138.71h-22.41l175.13 175.12 175.11-175.12z"></path><path d="M412.4 299.45 299.45 186.49v22.4L376 285.44l-19.88 19.89-56.67-56.68-.01 50.79-50.79.01 56.68 56.67L285.44 376l-76.55-76.55h-22.4L299.45 412.4 412.4 299.45z"></path></svg>