<svg id="Layer_1" data-name="Layer 1" xmlns="http://www.w3.org/2000/svg" viewBox="0 0 525.27 607.36"><defs></defs><path class="cls-1" d="M515.5 0H411.84a121.61 121.61 0 0 0-81.95 31.75l-67.26 61.33-67.25-61.33A121.628 121.628 0 0 0 113.43 0H9.77C4.37 0 0 4.37 0 9.77v348.1c0 67.04 54.34 121.38 121.38 121.38h63.11c33.05 0 59.84 26.79 59.84 59.84v.04c0 2.75 1.99 4.98 4.45 4.98s4.45-2.23 4.45-4.98v-118.9c0-34.9-28.29-63.2-63.2-63.2H14.24c-2.14 0-3.21-2.58-1.7-4.1L120.57 244.9c2.29-2.29 3.56-5.41 3.51-8.65l-1.53-106.47c-.03-2.16 2.58-3.26 4.1-1.73l79.17 79.69c2.25 2.27 5.32 3.54 8.51 3.54h96.59c3.19 0 6.26-1.27 8.51-3.54l79.17-79.69c1.52-1.53 4.13-.43 4.1 1.73l-1.53 106.47c-.05 3.24 1.22 6.36 3.51 8.65l108.03 108.03c1.51 1.51.44 4.1-1.7 4.1h-175.8c-34.9 0-63.2 28.29-63.2 63.2v118.9c0 2.75 1.99 4.98 4.45 4.98s4.45-2.23 4.45-4.98v-.04c0-33.05 26.79-59.84 59.84-59.84h63.11c67.04 0 121.38-54.34 121.38-121.38V9.77c0-5.4-4.37-9.77-9.77-9.77ZM192.06 394.26c10.89 2.07 19.68 10.85 21.74 21.74a27.716 27.716 0 0 1-32.58 32.57c-10.89-2.07-19.68-10.85-21.74-21.74-3.7-19.5 13.08-36.27 32.58-32.57Zm173.73 32.57c-2.06 10.89-10.85 19.68-21.74 21.74-19.49 3.7-36.27-13.08-32.58-32.57 2.06-10.89 10.85-19.68 21.74-21.74 19.5-3.7 36.27 13.08 32.58 32.57Z"></path><circle class="cls-1" cx="262.63" cy="576.86" r="30.5"></circle></svg>