<svg xmlns="http://www.w3.org/2000/svg" width="614.8" viewBox="0 0 614.8 614.8" height="614.8"><path d="M85 576.6v-46.8H38.2c12.9 18 28.7 33.8 46.8 46.8zM0 203.7v81.5h329.6v329.6H411c7.4 0 14.7-.4 21.9-1.2V181.8H1.2C.4 189 0 196.3 0 203.7z"></path><path d="M25 508.8h81v81c11.2 6.2 23.1 11.3 35.5 15.3V473.3H9.7c4 12.4 9.1 24.3 15.3 35.5zM411 0H203.7C105.9 0 24.2 68.9 4.5 160.8h449.4v449.4c91.9-19.7 160.8-101.4 160.8-199.2V203.7C614.8 91.2 523.6 0 411 0z"></path><path d="M0 411c0 14.1 1.4 27.9 4.2 41.2h158.3v158.3c13.3 2.7 27.1 4.2 41.2 4.2h5.8V405.2H0v5.8z"></path><path d="M0 384.2h230.5v230.6h78.1V306.2H0z"></path></svg>