<svg xmlns="http://www.w3.org/2000/svg" width="607" viewBox="0 0 607 312.5" height="312.5" xml:space="preserve"><path d="M325.2 312.5v-78.7l7.7-3.4c26.4-11.7 43.5-37.9 43.5-66.8 0-40.3-32.8-73-73-73s-73 32.8-73 73c0 28.9 17.1 55.1 43.5 66.8l7.7 3.4v78.7l-14.2-1.4c-52.5-5-102.2-20.8-148-46.8C75 239 36.7 205.3 5.9 164.2L0 156.4l5.9-7.8c34-45.1 78.4-82.5 128.6-108.2 25.6-13.1 52.8-23.2 80.7-29.9C243.9 3.5 273.6 0 303.5 0c29.8 0 59.5 3.5 88.3 10.5 27.9 6.8 55.1 16.9 80.7 29.9 50.2 25.6 94.7 63 128.6 108.2l5.9 7.8-5.9 7.8c-30.9 41-69.1 74.7-113.7 100.1-45.7 26-95.5 41.8-148 46.8l-14.2 1.4zm26-62.2v33.3c43.6-6 85-20 123.4-41.9 38.6-22 72.1-50.6 99.7-85.3-30.8-38.5-69.9-70.5-113.6-92.8-49-25-101.9-37.6-157.2-37.6S195.3 38.6 146.3 63.6c-43.8 22.3-82.9 54.3-113.6 92.8 27.6 34.7 61.1 63.3 99.7 85.3 38.4 21.9 79.8 35.9 123.4 41.9v-33.3c-31.4-17.3-51.3-50.5-51.3-86.7 0-54.6 44.4-99 99-99s99 44.4 99 99c0 36.3-19.9 69.4-51.3 86.7z"></path></svg>