<svg xmlns="http://www.w3.org/2000/svg" width="596.8" viewBox="0 0 596.8 596.8" height="596.8"><path d="M298.4 0C133.6 0 0 133.6 0 298.4s133.6 298.4 298.4 298.4 298.4-133.6 298.4-298.4S463.2 0 298.4 0zm255.4 371.3c-1.5 0-3-.1-4.5-.3-2.1-.3-53.2-6.7-112.8-35.1-37.5-17.9-70.3-40.7-97.8-67.6 15.7 46.7 40.6 86.1 73.9 117.4 25.4 23.8 51.5 38.2 85.6 51.9 12.1 4.8 20.5 15 23.5 26.8l.1.2c5.6 22.3-10.7 46-33.5 48.6h-.1c-.6.1-1.2.1-1.8.2-.2 0-.5 0-.7.1h-.4c-.6 0-1.2.1-1.8.1-4.9 0-9.8-.9-14.6-2.8-43.3-17.3-77.6-37-110.2-67.5-8.1-7.6-15.7-15.5-23-23.7v135.8c-.1 14.8-8.1 27.6-20.6 33.8-5 2.5-10.7 4-16.7 4s-11.7-1.4-16.7-4c-12.5-6.1-20.6-18.9-20.6-33.8V419.6c-7.3 8.3-15 16.2-23 23.7-32.6 30.5-66.9 50.2-110.2 67.5-4.8 1.9-9.8 2.8-14.6 2.8-.6 0-1.2 0-1.8-.1h-.4c-.2 0-.5 0-.7-.1-.6 0-1.2-.1-1.8-.2h-.1c-22.8-2.6-39.1-26.3-33.5-48.6l.1-.2c3-11.7 11.4-21.9 23.5-26.8 34.2-13.7 60.2-28.1 85.6-51.9 33.3-31.2 58.2-70.7 73.9-117.4-27.5 26.9-60.3 49.6-97.8 67.6-59.6 28.5-110.6 34.9-112.8 35.1-1.5.2-3 .3-4.5.3-20.5 0-37.1-16.7-37.1-37.2 0-1.8.1-3.6.4-5.3.1-.4.1-.7.2-1.1 2.8-15.7 17.1-28.6 33.8-30.6 12.6-1.9 94.2-16.3 159-75.2 30.3-27.6 51.6-61.6 68.6-98.5 11.2-24.4 21.3-54.9 30.6-88.6 9.3 33.7 19.4 64.2 30.6 88.6 16.9 36.8 38.3 70.9 68.6 98.5 64.8 58.9 146.3 73.3 159 75.2 16.6 2 31 15 33.8 30.6.1.4.1.7.2 1.1.3 1.8.4 3.5.4 5.3-.2 20.5-16.8 37.2-37.3 37.2z"></path></svg>