<svg data-name="Layer 1" xmlns="http://www.w3.org/2000/svg" viewBox="0 0 615.13 606.71"><path d="M445.33 242.02 611.08 0H182.6C82.17 0 0 82.17 0 182.6c0 97.67 77.72 178.04 174.37 182.39L8.82 606.71h423.71c100.43 0 182.6-82.17 182.6-182.6 0-96.12-75.29-175.46-169.79-182.09ZM309.39 34.55c37.13 0 67.22 30.1 67.22 67.22s-30.1 67.22-67.22 67.22-67.22-30.1-67.22-67.22 30.1-67.22 67.22-67.22Zm1.12 537.61c-37.13 0-67.22-30.1-67.22-67.22s30.1-67.22 67.22-67.22 67.22 30.1 67.22 67.22-30.1 67.22-67.22 67.22Zm-15.2-206.97h-.09L157.25 566.56h-55.36L462.65 40.15h55.36L295.31 365.2Z"></path></svg>