<svg xmlns="http://www.w3.org/2000/svg" width="642" viewBox="0 0 642 605.7" height="605.7" style="overflow:visible;enable-background:new 0 0 642 605.7" xml:space="preserve"><path class="st0" d="m158.7 463.7-16.5-28.5L288.1 351l-58-33.5c-22.5-12.7-48.5-20-76.1-20-85 0-154 69-154 154.1s69 154.1 154.1 154.1c73.8 0 135.4-51.9 150.5-121.1v-105l-145.9 84.1zM483.3 463.7l16.5-28.5L353.9 351l58-33.5c22.5-12.7 48.5-20 76.1-20 85.1 0 154.1 69 154.1 154.1s-69 154.1-154.1 154.1c-73.8 0-135.4-51.9-150.5-121.1v-105l145.8 84.1z"></path><path d="M321 0c-85.1 0-154.1 69-154.1 154.1 0 57 31 106.8 77.1 133.4l60.5 35V154.1h32.9v168.4l60.5-35C444 260.9 475 211.1 475 154.1 475.1 69 406.1 0 321 0z"></path></svg>