<svg data-name="Layer 1" xmlns="http://www.w3.org/2000/svg" viewBox="0 0 618.93 558.2"><path d="M309.47 0C138.55 0 0 124.96 0 279.1s138.55 279.1 309.47 279.1 309.47-124.96 309.47-279.1S480.38 0 309.47 0ZM166.54 74.62l40.99 40.99 40.99-40.99 40.99 40.99 40.99-40.99 40.99 40.99 40.99-40.99 82.2 82.2-42.27 42.27-40.99-40.99-40.99 40.99-40.99-40.99-40.99 40.99-40.99-40.99-40.99 40.99-82.2-82.2 42.27-42.27Zm285.85 408.96-40.99-40.99-40.99 40.99-40.99-40.99-40.99 40.99-40.99-40.99-40.99 40.99-82.2-82.2 42.27-42.27 40.99 40.99 40.99-40.99 40.99 40.99 40.99-40.99 40.99 40.99 40.99-40.99 82.2 82.2-42.27 42.27Zm81.95-142.25-40.97-40.97-40.97 40.97-40.99-40.99-40.99 40.99-40.99-40.99-40.99 40.99-40.99-40.99-40.99 40.99-40.97-40.97-40.97 40.97-82.2-82.2 42.27-42.27 40.97 40.97 40.97-40.97 40.99 40.99 40.99-40.99 40.99 40.99 40.99-40.99 40.99 40.99 40.99-40.99 40.97 40.97 40.97-40.97 82.2 82.2-42.27 42.27Z"></path></svg>