<svg xmlns="http://www.w3.org/2000/svg" width="596.7" viewBox="0 0 596.7 620.8" height="620.8" xml:space="preserve"><path d="M540.1 310.1c40.8-28.3 56.6-63.8 56.6-111.3S578.6 115 560.5 90.1c-18.1-24.9-39.6-47.6-90.6-70.2-21.7-9.6-45.4-14.8-65.5-17.5-29.5-4-58-3.2-87.1 2.9-23.4 4.9-53.1 13.7-77.3 29.3-29.6 19-50 39.4-61.1 52V13.2H0V226c0 38.7 24.6 71.7 59 84.1-34.4 12.4-59 45.4-59 84.1v212.9h178.8v-73.5c11.2 12.7 29.3 34.1 58.9 53.1 58 37.3 108.4 33.3 118.9 34 0 0 62.3 2.3 113.2-20.4 51-22.6 75.9-45.3 94-70.2 18.1-24.9 32.8-61.1 32.8-108.7s-15.7-83-56.5-111.3zm-130.6 71.7c-6.4 35.9-38.9 60-78.9 60-45.7 0-80-40-106.4-72.5-32.5-39.4-66.2-55.7-75-59.2 8.8-3.6 44.7-19.8 77.2-59.2 0 0 36.2-44.2 56.6-56.6 42.7-26.1 115.1-12.9 125.3 44.2 5 28.1-11.5 56.6-35.4 70.9 0 0-1.8.5-1.3.8-.5.3 1.3.8 1.3.8 24 14.2 41.6 42.7 36.6 70.8z"></path></svg>