<svg data-name="Layer 1" xmlns="http://www.w3.org/2000/svg" viewBox="0 0 465.16 613.55"><path d="M21.27 221.18c6.09-112.17 98.91-200.04 211.31-200.04s205.22 87.87 211.31 200.04l.08 1.54h21.17l-.09-1.71C458.86 97.08 356.74 0 232.58 0S6.3 97.08.1 221.01l-.09 1.71h21.18l.08-1.54Z"></path><path d="M413.02 222.71h21.18l-.1-1.72c-6.17-106.6-94.69-190.1-201.52-190.1s-195.34 83.5-201.51 190.1l-.1 1.72h21.18l.1-1.52c6.03-94.86 85.24-169.16 180.33-169.16s174.3 74.3 180.34 169.16l.1 1.52Z"></path><path d="m381.95 221.22.12 1.5h21.18l-.12-1.74c-6.12-89.26-81.03-159.19-170.54-159.19S68.17 131.71 62.04 220.97l-.12 1.74H83.1l.11-1.5c5.96-77.55 71.57-138.29 149.37-138.29s143.41 60.74 149.37 138.29Z"></path><path d="M131.48 232.65c0 55.75 45.35 101.11 101.11 101.11s101.1-45.35 101.1-101.11-45.35-101.11-101.1-101.11-101.11 45.35-101.11 101.11Zm194.08 0c0 51.27-41.71 92.98-92.97 92.98s-92.98-41.71-92.98-92.98 41.71-92.98 92.98-92.98 92.97 41.71 92.97 92.98Z"></path><path d="m382.11 242.11-.11 1.51c-5.6 77.96-71.24 139.02-149.42 139.02S88.76 321.57 83.16 243.62l-.11-1.51H0l.08 1.7c4.08 86.96 55.78 163.62 135.01 200.3v169.44h194.99V444.11c79.23-36.69 130.93-113.35 135-200.3l.08-1.7h-83.05Zm-55.45 194.63-4.71 2.18v166.51H143.22V438.92l-4.71-2.18C64.14 402.3 14.87 331.26 8.63 250.24H75.6c8.77 79.29 76.58 140.54 156.98 140.54s148.21-61.25 156.98-140.54h66.98c-6.24 81.02-55.51 152.06-129.88 186.5Z"></path></svg>