<svg xmlns="http://www.w3.org/2000/svg" width="611.5" viewBox="0 0 611.5 267.2" height="267.2" xml:space="preserve" style="enable-background:new 0 0 611.5 267.2"><path class="st0" d="M155.4 0h-2.7L0 267.2h18.8L163.5 14zM170.1 25.7C124 106.4 78 186.8 32.3 267.2h18.5c43-75 85.8-149.8 128.5-224.8l-9.2-16.7zM185.9 54.1c-40.7 71.1-81 142.3-121.7 213.1h18.5c37.7-65.5 75-130.9 112.4-196.7l-9.2-16.4zM201.8 82.5c-35.3 61.6-70.2 123.1-105.5 184.7h18.8c32-55.9 64-112.1 95.9-168.3l-9.2-16.4zM217.6 110.6c-29.6 52.3-59.5 104.6-89.4 156.6H147c26.6-46.6 53.2-93.3 80.1-140.2l-9.5-16.4zM233.7 139c-24.5 42.7-49 85.5-73.5 128.2H179c21.2-37.1 42.7-74.4 64-111.8l-9.3-16.4zM249.6 167.1c-19.1 33.5-38.3 67-57.1 100.1H211c15.8-27.8 32-55.6 47.8-83.4l-9.2-16.7zM265.4 195.5c-13.7 23.9-27.2 47.8-40.9 71.7H243c10.8-18.2 21.2-36.8 31.7-55.3l-9.3-16.4zM281.3 223.9c-8.4 14.4-16.4 29-24.8 43.3h18.8c5.1-9 10.2-17.9 15.2-26.9l-9.2-16.4zM288.4 267.2h17.4l-8.7-15.2zM461.2 0h-2.7l-7.4 12.9c-2.4-4.3-4.9-8.6-7.3-12.9H425c5.6 9.7 11.2 19.5 16.7 29.3l-6.6 11.6c-7.8-13.6-15.6-27.2-23.5-40.9h-18.5c10.7 19.1 21.7 38.2 32.7 57.4L419.1 69C406 45.9 392.7 22.9 379.6 0h-18.5c16.1 28.6 32.3 56.9 48.6 85.4L403.1 97c-18.6-32.4-37-64.6-55.5-97h-18.8c21.6 37.7 43.3 75.5 64.9 113.4l-6.6 11.6c-23.9-41.8-47.7-83.4-71.4-125h-18.8c27 47.3 54 94.3 80.8 141.6l-6.6 11.6C342 102.3 312.9 51.2 283.8 0H265c32.3 56.5 64.4 112.9 96.8 169.6l-6.6 11.6C320.5 120.9 286.1 60.3 251.4 0h-18.5c37.7 65.9 75.1 131.9 112.8 197.6l-6.7 11.7C299.1 139.5 259.1 69.8 219.4 0h-18.5c42.7 75.1 85.7 150.5 128.7 225.6l-6.6 11.6L187.4 0h-18.8l156 267.2L469.3 14l-8.1-14zM475.8 25.7c-46 80.7-92.1 161.1-138.1 241.5h18.8c42.7-75 85.8-149.8 128.5-224.8l-9.2-16.7zM491.7 54.1C451 125.2 410.4 196.4 370 267.2h18.5c37.4-65.5 75-130.9 112.4-196.7l-9.2-16.4zM507.5 82.5c-35.3 61.6-70.2 123.1-105.5 184.7h18.5c32.3-55.9 64.3-112.1 96.2-168.3l-9.2-16.4zM523.4 110.6c-29.9 52.3-59.5 104.6-89.4 156.6h18.8C479.4 220.6 506 174 532.6 127l-9.2-16.4zM539.2 139c-24.2 42.7-48.7 85.5-73.2 128.2h18.8c21.2-37.1 42.4-74.4 64-111.8l-9.6-16.4zM555.4 167.1c-19.1 33.5-38.3 67-57.4 100.1h18.8c15.8-27.8 31.7-55.6 47.8-83.4l-9.2-16.7zM571.2 195.5c-13.7 23.9-27.5 47.8-41 71.7h18.5c10.5-18.2 21.2-36.8 31.7-55.3l-9.2-16.4zM587 223.9c-8.4 14.4-16.7 29-24.8 43.3h18.5c5.4-9 10.5-17.9 15.5-26.9l-9.2-16.4zM602.9 252l-8.7 15.2h17.3z"></path></svg>