<svg xmlns="http://www.w3.org/2000/svg" width="618.3" viewBox="0 0 618.3 597.5" height="597.5" xml:space="preserve"><path d="M583.2 225.9c-47.2-47.8-124.1-48.2-171.9-1.1l-27.4 27 48.6 49.2 42.5-42c29-28.6 75.6-28.3 104.2.6 28.6 29 28.3 75.6-.6 104.2-29 28.6-75.6 28.3-104.2-.6l-117-118.1 37.7-37.7c47.5-47.5 47.5-124.4 0-171.9s-124.4-47.5-171.9 0-47.5 124.4 0 171.9l27.6 27.6 48.5-49.2-42.3-42.2c-28.8-28.8-28.8-75.4 0-104.2 28.8-28.8 75.4-28.8 104.2 0 28.8 28.8 28.8 75.4 0 104.2l-52.1 52.1-113.4 115.1-51.8 52.4c-28.6 29-75.3 29.2-104.2.6-29-28.6-29.2-75.3-.6-104.2 28.6-29 75.3-29.2 104.2-.6l42.5 42 48.5-49.2-27.3-27c-47.8-47.2-124.7-46.7-171.9 1.1-47.2 47.8-46.7 124.7 1.1 171.9 47.8 47.2 124.7 46.7 171.9-1.1l101.1-102 101.1 102c47.2 47.8 124.1 48.2 171.9 1.1 47.7-47.2 48.2-124.2 1-171.9z"></path><circle cx="309.1" cy="479.6" r="117.9"></circle></svg>