<svg data-name="Layer 1" xmlns="http://www.w3.org/2000/svg" viewBox="0 0 626.88 519.46"><path d="M626.88 313.44c0-122.92-70.8-229.26-173.81-280.62 17.22 15.27 21.12 41.23 8.11 61.03l-113.17 172.2c114.47 16.74 202.37 115.29 202.37 234.4 0 6.41-.33 12.73-.83 19.01 48.12-55.1 77.33-127.13 77.33-206.02ZM426.67 21.17C391.54 7.55 353.38 0 313.44 0 261.57 0 212.7 12.67 169.61 34.98c3-.6 6.09-.92 9.26-.92 26.01 0 47.09 21.08 47.09 47.09v199.11L382.48 42.12c9.99-15.19 27.27-22.68 44.19-20.95ZM131.78 348.38V81.15c0-11.89 4.44-22.73 11.72-31.01C57.18 105.96 0 202.99 0 313.44c0 78.9 29.21 150.92 77.33 206.02-.5-6.28-.83-12.61-.83-19.01 0-57.89 20.79-110.91 55.28-152.07Z"></path><circle cx="153.08" cy="412.07" r="22.81"></circle></svg>