<svg data-name="Layer 1" xmlns="http://www.w3.org/2000/svg" viewBox="0 0 613.86 613.86"><path d="M352.64 215.37c4.95 9.52 11.39 18.47 19.38 26.46 41.96 41.96 109.98 41.96 151.94 0s41.96-109.98 0-151.94C494.62 60.55 452.55 51.8 415.54 63.5c5.51 13.58 8.62 28.39 8.62 43.93 0 48.43-29.53 90.09-71.52 107.94Z"></path><path d="M555.86 211.61c-5.7 13.5-13.98 26.17-24.97 37.15-22.14 22.14-51.59 34.33-82.9 34.33-15.34 0-30.21-2.96-44.02-8.55a107.31 107.31 0 0 0-4.99 32.39c0 59.34 48.1 107.44 107.44 107.44s107.44-48.1 107.44-107.44c0-41.5-23.56-77.43-58-95.32Z"></path><path d="M506.42 424.16c-48.43 0-90.1-29.53-107.95-71.52a107.389 107.389 0 0 0-26.45 19.38c-41.96 41.96-41.96 109.98 0 151.94 41.96 41.96 109.98 41.96 151.94 0 29.34-29.34 38.09-71.41 26.39-108.42-13.58 5.51-28.39 8.62-43.93 8.62Z"></path><path d="M339.34 403.99c-10.23-3.23-21.11-5-32.41-5-59.34 0-107.44 48.1-107.44 107.44s48.1 107.44 107.44 107.44c41.46 0 77.38-23.53 95.29-57.92a117.108 117.108 0 0 1-37.12-25.05c-34.24-34.24-42.82-84.58-25.75-126.9Z"></path><path d="M261.22 398.48a107.625 107.625 0 0 0-19.38-26.46c-41.96-41.95-109.98-41.95-151.94 0-41.96 41.96-41.96 109.98 0 151.94 29.34 29.34 71.41 38.09 108.42 26.39-5.51-13.58-8.62-28.39-8.62-43.93 0-48.43 29.53-90.09 71.52-107.94Z"></path><path d="M165.87 330.76c15.34 0 30.21 2.96 44.01 8.55a107.31 107.31 0 0 0 4.99-32.39c0-59.34-48.1-107.44-107.44-107.44S0 247.59 0 306.93c0 41.46 23.53 77.37 57.92 95.29a117.108 117.108 0 0 1 25.05-37.12c22.14-22.14 51.58-34.34 82.9-34.34ZM283.1 165.86c0 15.34-2.96 30.22-8.55 44.02a107.31 107.31 0 0 0 32.39 4.99c59.34 0 107.44-48.1 107.44-107.44S366.26 0 306.93 0c-41.46 0-77.38 23.53-95.29 57.92a117.108 117.108 0 0 1 37.12 25.05c22.14 22.13 34.34 51.58 34.34 82.89Z"></path><path d="M107.44 189.7c48.43 0 90.09 29.53 107.94 71.52 9.52-4.95 18.46-11.39 26.46-19.38 41.96-41.96 41.96-109.98 0-151.94s-109.98-41.96-151.94 0c-29.34 29.34-38.09 71.41-26.39 108.42 13.58-5.51 28.39-8.62 43.93-8.62Z"></path></svg>