<svg xmlns="http://www.w3.org/2000/svg" width="601.5" viewBox="0 0 601.5 601.5" height="601.5" xml:space="preserve"><path d="M597.3 12.1c0-6.7-5.4-12.1-12-12.1h-55c-6.2 0-11.5 4.8-12 11.1l-6.6 78.7c-.5 6.3-5.7 11.1-12 11.1h-4.4c-14.1 0-28.1.7-41.9 2.1-5.9.6-11.4-3.3-12.9-9.1l-18.5-75c-1.6-6.6-8.3-10.5-14.8-8.8l-60.5 16.2c-6.4 1.7-10.2 8.2-8.6 14.6l18 73c1.5 5.9-1.7 12-7.3 14.2-12.4 4.8-24.6 10.2-36.4 16.2-5.3 2.7-11.8 1-15.2-3.9l-43.3-62.6c-3.8-5.5-11.4-6.9-16.9-2.9l-50.9 36.8c-5.3 3.9-6.6 11.3-2.9 16.8l42.1 61c3.5 5 2.7 11.8-1.8 15.9-9.6 8.7-18.8 17.9-27.5 27.5-4.1 4.5-10.8 5.2-15.7 1.8l-60-42c-5.5-3.9-13.1-2.4-16.8 3.2l-35 52.3c-3.7 5.5-2.3 12.9 3.1 16.7l59.4 41.6c4.9 3.4 6.6 10 3.9 15.4-5.4 10.7-10.3 21.7-14.7 33-2.2 5.6-8.1 8.7-13.9 7.3l-71.9-16.7c-6.5-1.5-13.1 2.6-14.5 9.3L6.8 416.3c-1.4 6.5 2.6 12.9 9.1 14.3l70 16.3c5.9 1.4 9.8 6.9 9.2 13-1.2 12.6-1.9 25.4-1.9 38.3v1.4c0 6.3-4.8 11.5-11 12.1l-71.1 6c-6.2.5-11 5.8-11 12.1v52c0 6.3 4.8 11.6 11.1 12.1l66.5 5.3c19.6 1.6 39.2 2.3 58.9 2.3H354c6.6 0 12-5.4 12-12.1V385.1c0-6.7 5.4-12.1 12-12.1h21.6c6.6 0 12 5.4 12 12.1V492c0 6.7 5.4 12.1 12 12.1h165.9c6.6 0 12-5.4 12-12.1V115l-4.2-102.9zm-16.6 230.7c-1.9 19-17.3 34.4-36.3 36.3-25.7 2.5-47.1-18.9-44.6-44.6 1.9-19 17.3-34.4 36.3-36.3 25.8-2.5 47.2 18.9 44.6 44.6z"></path></svg>