<svg data-name="Layer 1" xmlns="http://www.w3.org/2000/svg" viewBox="0 0 535.79 602.62"><path d="M395.14 0c-56.15 0-104.72 33.08-127.25 80.77C245.36 33.08 196.79 0 140.64 0 63.09 0 0 63.09 0 140.64v321.34c0 77.55 63.09 140.64 140.64 140.64 56.15 0 104.72-33.08 127.25-80.77 22.53 47.69 71.1 80.77 127.25 80.77 77.55 0 140.64-63.09 140.64-140.64V140.64C535.79 63.09 472.69 0 395.14 0Zm110.29 461.98c0 60.82-49.48 110.29-110.29 110.29s-110.29-49.48-110.29-110.29v-99.11c0-9.35-7.61-16.96-16.96-16.96s-16.96 7.61-16.96 16.96v99.11c0 60.82-49.48 110.29-110.29 110.29S30.35 522.79 30.35 461.98V140.64c0-60.82 49.48-110.29 110.29-110.29s110.29 49.48 110.29 110.29v99.11c0 9.35 7.61 16.96 16.96 16.96s16.96-7.61 16.96-16.96v-99.11c0-60.82 49.48-110.29 110.29-110.29s110.29 49.48 110.29 110.29v321.34Z"></path><path d="M395.14 60.7c-44.08 0-79.94 35.86-79.94 79.94v99.11c0 26.08-21.22 47.31-47.31 47.31s-47.31-21.22-47.31-47.31v-99.11c0-44.08-35.86-79.94-79.94-79.94S60.7 96.56 60.7 140.64v321.34c0 44.08 35.86 79.94 79.94 79.94s79.94-35.86 79.94-79.94v-99.11c0-26.08 21.22-47.31 47.31-47.31s47.31 21.22 47.31 47.31v99.11c0 44.08 35.86 79.94 79.94 79.94s79.94-35.86 79.94-79.94V140.64c0-44.08-35.86-79.94-79.94-79.94Zm-204.9 302.17v99.11c0 27.35-22.25 49.6-49.6 49.6s-49.59-22.25-49.59-49.6V140.64c0-27.35 22.25-49.6 49.59-49.6s49.6 22.25 49.6 49.6v99.11c0 25.04 11.91 47.34 30.36 61.55-18.45 14.21-30.36 36.52-30.36 61.55Zm254.5 99.11c0 27.35-22.25 49.6-49.6 49.6s-49.6-22.25-49.6-49.6v-99.11c0-25.04-11.91-47.34-30.36-61.55 18.45-14.21 30.36-36.52 30.36-61.55v-99.11c0-27.35 22.25-49.6 49.6-49.6s49.6 22.25 49.6 49.6v321.32Z"></path></svg>