<svg xmlns="http://www.w3.org/2000/svg" width="603.9" viewBox="0 0 603.9 603.9" height="603.9" xml:space="preserve"><path d="m378.4 302.5 24.9-2.6c66.7-7 133-21.2 196.8-42.2l.5-.2-.1-.6c-3.5-23.1-9.6-45.8-18.3-67.4l-.3-.8-.7.5c-53.2 42.6-113.9 71.9-180.3 87.1l-24 5.4 23.2-8c66.3-22.7 123-68.3 159.6-128.3l.3-.3-.3-.3c-13.1-21.4-28.9-41.2-46.9-58.9l-.9-.9-.2 1.3c-12.3 106.3-102.4 186.5-209.6 186.5-53.8 0-105-20.2-144.2-57-36.6-34.3-59.8-80.4-65.4-129.9l-.2-1.3-1 .9c-18.1 17.6-33.9 37.4-47.1 58.9l-.2.4.2.3C82 207 140.6 253.3 209.4 275.5l23.4 7.5-24.1-5C140 263.7 77.2 234.3 22.1 190.6l-.7-.6-.3.8C12.7 212 6.8 234 3.4 256.5l-.1.6.5.2C68 278.5 134.7 292.9 202 299.9l24.9 2.6H0v.6c.1 32.1 5.3 63.7 15.3 93.9l.3.8.7-.5c56.9-34.9 118.8-58.9 184.2-71.2l16.3-3.1-15.6 5.6C135.7 352.2 79.8 398.2 44 458.2l-.2.3.2.3c13.3 22 29.5 42.3 48 60.2l1 1 .1-1.3c10.5-108.5 100.8-190.3 210-190.3 53.8 0 105 20.3 144.3 57 36.9 34.6 60.2 81.1 65.5 131.2l.2 1.3.9-.9c18.2-17.9 34-38.1 47.2-60l.2-.3-.2-.4c-35.6-58.6-90.6-103.7-154.8-127.1l-15.5-5.7 16.2 3.2c64.2 12.3 125 35.9 180.9 70.1l.7.4.3-.8c9.9-30 14.9-61.4 15-93.2v-.6l-225.6-.1zM301.9 22.8c60.7 0 110.1 49.4 110.1 110 0 60.7-49.4 110.1-110.1 110.1-60.7 0-110.1-49.4-110.1-110.1.1-60.7 49.5-110 110.1-110m0 236.7c88.7 0 160.9-72.2 160.9-160.9 0-20.2-3.8-40-11.2-58.8l-.1-.2-.2-.1C406.1 13.7 354.4 0 301.9 0c-52.4 0-104.1 13.7-149.5 39.5l-.2.1-.1.2c-7.4 18.9-11.2 38.6-11.2 58.8.2 88.8 72.3 160.9 161 160.9m0 321.4c-60.7 0-110.1-49.4-110.1-110.1 0-60.7 49.4-110.1 110.1-110.1 60.7 0 110.1 49.4 110.1 110.1 0 60.7-49.4 110.1-110.1 110.1m0-236.9C213.2 344 141 416.1 141 504.8c0 20.3 3.8 40.2 11.3 59.1l.1.3.2.1c2 1.2 4.2 2.5 6.7 3.8 43.5 23.4 92.8 35.7 142.6 35.7 52.4 0 104-13.6 149.3-39.4l.2-.1.1-.2c7.5-18.9 11.3-38.9 11.3-59.2 0-88.7-72.1-160.9-160.9-160.9"></path></svg>