<svg width="642" viewBox="0 0 642 614" height="614" xmlns="http://www.w3.org/2000/svg"><path d="M385.77 0c10.166 0 18.788 6.627 21.812 15.827l41.498 127.776h130.8c9.65 0 18.657 6.176 21.81 15.827L640.872 280c3.153 9.715-.515 19.945-8.364 25.607l-108.796 79.071 40.469 124.43c2.96 9.2-.129 19.688-8.364 25.671l-102.555 74.504c-8.236 5.984-19.109 5.662-26.894 0l-108.796-79.072-105.9 76.949c-7.785 5.662-18.723 5.983-26.894 0L82.223 532.656c-8.235-5.983-11.323-16.47-8.364-25.67l41.563-127.905L9.457 302.26c-7.785-5.726-11.453-15.956-8.364-25.67L40.21 156.02c3.153-9.652 12.16-15.828 21.81-15.828l134.79-.064 40.404-124.302C240.174 6.627 248.794 0 258.96 0ZM219.908 459.246l-40.018 123.401c-2.574 7.72.064 16.535 7.012 21.553 6.949 5.019 16.085 4.826 22.648 0l104.935-76.24-94.577-68.714Zm226.059 129.745c-1.41 0-.747-.213-12.945 8.647a3.217 3.217 0 0 0 .026 5.076l1.968 1.422c4.208 3.21 10.192 3.436 14.689.167l7.759-5.636c1.77-1.287 1.216-4.053-.881-4.574-6.666-1.576-7.953-5.102-10.616-5.102Zm-25.4-19.218a3.216 3.216 0 0 0-3.778 0l-10.956 7.959a3.215 3.215 0 0 0 0 5.205l7.456 5.417a3.226 3.226 0 0 0 3.783 0l10.95-7.959a3.215 3.215 0 0 0 0-5.205Zm-261.304-7.489c-1.757-1.28-4.253-.476-4.941 1.576l-.689 2.13c-1.814 5.018-.186 10.84 4.343 14.135l7.869 5.713c1.685 1.1 3.982-.09 3.982-2.155a19.301 19.301 0 0 1 .836-7.637l.637-1.982a3.213 3.213 0 0 0-1.08-3.834Zm234.01-12.34a3.205 3.205 0 0 0-3.782 0l-10.957 7.959c-1.763 1.28-1.763 3.918 0 5.205l7.457 5.417a3.226 3.226 0 0 0 3.783 0l10.957-7.959c1.769-1.287 1.769-3.924 0-5.205Zm126.786-12.752a3.223 3.223 0 0 0-3.816-.02l-10.943 7.96a3.226 3.226 0 0 0-.715 4.497c.476.643 1.017.933 2.6 2.078 4.207 3.204 10.19 3.435 14.688.167l7.766-5.642c1.808-1.313 1.19-4.157-.991-4.6-3.976-.953-6.048-2.593-8.59-4.44Zm-350.367-7.006c-1.77-1.28-4.272-.47-4.948 1.608l-2.85 8.77a3.212 3.212 0 0 0 1.171 3.596l10.95 7.952a3.21 3.21 0 0 0 4.948-1.608l2.85-8.763a3.209 3.209 0 0 0-1.17-3.597Zm196.296-.078a3.225 3.225 0 0 0-3.79 0l-10.944 7.985a3.219 3.219 0 0 0 .007 5.205l7.463 5.417a3.215 3.215 0 0 0 3.783 0l10.944-7.984a3.219 3.219 0 0 0-.006-5.205Zm126.746-12.764a3.205 3.205 0 0 0-3.783 0L478 525.296c-1.77 1.287-1.77 3.925 0 5.205l7.457 5.417a3.205 3.205 0 0 0 3.783 0l10.95-7.952c1.77-1.287 1.77-3.925 0-5.205Zm27.89-130.414-94.576 68.713 104.935 76.177a19.31 19.31 0 0 0 22.712 0c6.948-5.019 9.522-13.833 7.013-21.553L520.624 386.93ZM87.004 509.778a3.214 3.214 0 0 0-4.786 1.48l-.637 1.968c-1.995 5.083-.386 11.13 4.246 14.476l7.72 5.598c1.628 1.177 4.118.328 4.118-2.38-.444-5.676 1.712-8.892 1.712-10.52 0-1.062-.515-2.001-1.306-2.587Zm251.679.501a3.226 3.226 0 0 0-3.783 0l-10.95 7.959a3.215 3.215 0 0 0 0 5.205l7.45 5.417a3.226 3.226 0 0 0 3.783 0l10.957-7.958a3.215 3.215 0 0 0 0-5.205ZM180.114 498.1c-1.763-1.287-4.272-.47-4.948 1.609l-2.85 8.762a3.219 3.219 0 0 0 1.17 3.597l10.951 7.959c1.77 1.286 4.279.47 4.954-1.609l2.844-8.763a3.216 3.216 0 0 0-1.164-3.596Zm285.327-.592a3.226 3.226 0 0 0-3.783 0l-10.957 7.959c-1.763 1.287-1.763 3.918 0 5.205l7.457 5.417a3.205 3.205 0 0 0 3.783 0l10.95-7.959c1.77-1.28 1.77-3.918 0-5.204ZM311.39 490.45a3.205 3.205 0 0 0-3.784 0l-10.956 7.959c-1.77 1.28-1.77 3.918 0 5.205l7.456 5.417a3.226 3.226 0 0 0 3.784 0l10.95-7.958c1.77-1.287 1.77-3.925 0-5.205ZM97.523 477.756c-1.77-1.286-4.272-.47-4.948 1.609l-2.85 8.763a3.209 3.209 0 0 0 1.17 3.596l10.951 7.959c1.77 1.287 4.279.47 4.954-1.609l2.844-8.762a3.216 3.216 0 0 0-1.164-3.597Zm340.62-.077a3.226 3.226 0 0 0-3.784 0l-10.95 7.959c-1.77 1.28-1.77 3.918 0 5.205l7.457 5.417a3.226 3.226 0 0 0 3.783 0l10.95-7.959a3.215 3.215 0 0 0 0-5.205Zm-154.052-7.064a3.226 3.226 0 0 0-3.783 0l-10.95 7.959c-1.77 1.286-1.77 3.924 0 5.204l7.45 5.418a3.205 3.205 0 0 0 3.783 0l10.957-7.959c1.769-1.28 1.769-3.918 0-5.205Zm-93.548-4.6c-1.77-1.287-4.278-.47-4.954 1.608l-2.844 8.763a3.216 3.216 0 0 0 1.165 3.597l10.957 7.958c1.769 1.28 4.272.47 4.947-1.608l2.85-8.77a3.222 3.222 0 0 0-1.17-3.596Zm220.307-8.165a3.205 3.205 0 0 0-3.783 0l-10.957 7.952c-1.763 1.287-1.763 3.925 0 5.205l7.457 5.418a3.205 3.205 0 0 0 3.783 0l10.957-7.959c1.763-1.28 1.763-3.918 0-5.205Zm-154.051-7.064a3.226 3.226 0 0 0-3.784 0l-10.944 7.952a3.213 3.213 0 0 0 0 5.199l7.444 5.423a3.215 3.215 0 0 0 3.784.007l10.95-7.959a3.215 3.215 0 0 0 0-5.205Zm-148.847-5.121c-1.77-1.28-4.278-.47-4.954 1.608l-2.85 8.77a3.232 3.232 0 0 0 1.17 3.596l10.958 7.958c1.769 1.287 4.272.47 4.947-1.608l2.85-8.763a3.219 3.219 0 0 0-1.17-3.596Zm275.6-7.65a3.226 3.226 0 0 0-3.784 0l-10.95 7.958a3.215 3.215 0 0 0 0 5.205l7.457 5.418a3.226 3.226 0 0 0 3.783 0l10.95-7.96c1.77-1.28 1.77-3.917 0-5.204Zm-182.586-4.092c-1.763-1.28-4.272-.47-4.948 1.608l-2.85 8.77a3.222 3.222 0 0 0 1.171 3.596l10.95 7.959c1.77 1.28 4.279.47 4.954-1.609l2.844-8.77a3.219 3.219 0 0 0-1.164-3.596Zm119.502-284.594-37.252 114.908-120.699.064 97.601 70.837-37.187 114.844 97.537-70.965 97.408 70.707-37.06-114.522 97.473-70.9H357.72l-37.251-114.973Zm35.791 268.857a3.226 3.226 0 0 0-3.783 0l-10.95 7.958c-1.77 1.28-1.77 3.918 0 5.205l7.45 5.418a3.226 3.226 0 0 0 3.783 0l10.95-7.96a3.215 3.215 0 0 0 0-5.204Zm85.563-4.086c-.675-2.078-3.178-2.889-4.947-1.608l-7.457 5.417a3.219 3.219 0 0 0-1.171 3.597l4.182 12.86c.676 2.079 3.178 2.896 4.948 1.616l7.456-5.405a3.209 3.209 0 0 0 1.171-3.603Zm-323.466-.521c-1.77-1.28-4.266-.463-4.942 1.608l-2.863 8.763a3.228 3.228 0 0 0 1.165 3.603l10.995 7.985c1.77 1.286 4.279.476 4.954-1.609l2.863-8.808a3.212 3.212 0 0 0-1.177-3.596Zm93.039-11.742c-1.77-1.28-4.272-.47-4.948 1.609l-2.85 8.763a3.216 3.216 0 0 0 1.165 3.596l10.957 7.959c1.769 1.287 4.272.47 4.947-1.609l2.85-8.763a3.219 3.219 0 0 0-1.17-3.596Zm117.565-3.48a3.205 3.205 0 0 0-3.783 0l-10.95 7.952c-1.77 1.287-1.77 3.924 0 5.205l7.457 5.417a3.205 3.205 0 0 0 3.783 0l10.95-7.952c1.77-1.287 1.77-3.925 0-5.205Zm140.161-4.086c-.675-2.078-3.185-2.895-4.954-1.608l-7.457 5.417a3.216 3.216 0 0 0-1.164 3.596l4.182 12.875c.675 2.078 3.184 2.895 4.954 1.608l7.45-5.417a3.209 3.209 0 0 0 1.171-3.597Zm-340.343-12.784c-1.763-1.287-4.272-.47-4.947 1.602l-2.857 8.757a3.228 3.228 0 0 0 1.165 3.603l11.001 7.99c1.77 1.287 4.272.47 4.948-1.602l2.857-8.756a3.218 3.218 0 0 0-1.165-3.603Zm367.635-7.045c-.675-2.078-3.178-2.895-4.947-1.608l-7.457 5.417a3.219 3.219 0 0 0-1.171 3.596l4.188 12.874c.676 2.079 3.179 2.896 4.948 1.609l7.457-5.417a3.228 3.228 0 0 0 1.17-3.597Zm-274.595-4.69c-1.763-1.287-4.272-.47-4.948 1.608l-2.85 8.763a3.219 3.219 0 0 0 1.171 3.597l10.95 7.958c1.77 1.287 4.279.47 4.954-1.608l2.844-8.763a3.216 3.216 0 0 0-1.164-3.597Zm301.894-15.145c-.675-2.079-3.185-2.89-4.954-1.609l-7.457 5.417a3.219 3.219 0 0 0-1.164 3.597l4.182 12.88c.675 2.079 3.184 2.89 4.954 1.609l7.45-5.417a3.209 3.209 0 0 0 1.171-3.597ZM152.738 264.3l-129.835.065c-8.106 0-15.698 5.211-18.336 13.382-2.638 8.107.45 16.792 7.013 21.553l105 76.177L152.738 264.3Zm-13.518 85.094c-1.769-1.287-4.285-.463-4.954 1.622l-2.818 8.795a3.219 3.219 0 0 0 1.171 3.59l10.944 7.939c1.77 1.28 4.272.47 4.948-1.608l2.856-8.757a3.218 3.218 0 0 0-1.164-3.603Zm93.027-11.729c-1.77-1.286-4.278-.47-4.954 1.609l-2.844 8.763a3.209 3.209 0 0 0 1.171 3.596l10.95 7.959c1.77 1.28 4.273.47 4.948-1.609l2.85-8.769a3.222 3.222 0 0 0-1.17-3.596Zm318.757-2.888c-.675-2.079-3.184-2.896-4.947-1.609l-7.457 5.417a3.219 3.219 0 0 0-1.171 3.597l4.188 12.874a3.21 3.21 0 0 0 4.948 1.608l7.457-5.41a3.219 3.219 0 0 0 1.164-3.597Zm-136.744-5.514c-.676-2.078-3.185-2.889-4.954-1.609l-7.45 5.418a3.212 3.212 0 0 0-1.171 3.596l4.182 12.874c.675 2.085 3.184 2.895 4.954 1.609l7.45-5.418a3.209 3.209 0 0 0 1.17-3.596Zm-264.61-11.948c-1.763-1.28-4.272-.47-4.948 1.609l-2.85 8.769a3.222 3.222 0 0 0 1.17 3.596l10.958 7.96c1.762 1.28 4.272.469 4.947-1.61l2.85-8.769a3.222 3.222 0 0 0-1.17-3.596Zm428.653-2.367c-.675-2.079-3.185-2.896-4.954-1.609l-7.457 5.417a3.216 3.216 0 0 0-1.164 3.597l4.182 12.874c.675 2.078 3.184 2.895 4.947 1.608l7.457-5.417a3.209 3.209 0 0 0 1.171-3.596Zm-136.75-5.514c-.676-2.078-3.18-2.895-4.948-1.609l-7.457 5.418a3.228 3.228 0 0 0-1.171 3.596l4.188 12.874c.676 2.078 3.179 2.895 4.948 1.609l7.457-5.418a3.219 3.219 0 0 0 1.17-3.596Zm164.042-14.322c-.675-2.078-3.184-2.889-4.947-1.608l-7.457 5.417a3.222 3.222 0 0 0-1.171 3.596l4.182 12.88c.676 2.079 3.185 2.89 4.954 1.61l7.457-5.418a3.216 3.216 0 0 0 1.164-3.596Zm-136.744-5.507c-.676-2.078-3.185-2.896-4.954-1.609l-7.45 5.418a3.209 3.209 0 0 0-1.171 3.596l4.182 12.874c.675 2.078 3.184 2.889 4.954 1.609l7.45-5.418a3.209 3.209 0 0 0 1.17-3.596Zm-308.74-4.375c-1.763-1.28-4.272-.47-4.948 1.608l-2.856 8.763a3.225 3.225 0 0 0 1.158 3.597l10.937 7.977c1.77 1.287 4.279.477 4.954-1.608l2.863-8.801a3.219 3.219 0 0 0-1.17-3.597Zm471.96-12.47c-.682-2.116-3.558-2.405-4.665-.5-2.162 3.512-4.407 4.985-6.865 6.793a3.214 3.214 0 0 0-1.197 3.719l4.176 12.868c.727 2.078 3.3 2.83 5.031 1.467l2.014-1.467c4.195-3.05 6.157-8.564 4.472-13.762Zm-135.928-2.99c-.675-2.079-3.178-2.89-4.947-1.61l-7.457 5.418a3.219 3.219 0 0 0-1.171 3.597l4.188 12.88c.676 2.078 3.179 2.889 4.948 1.609l7.457-5.418a3.232 3.232 0 0 0 1.17-3.596Zm27.299-19.83c-.676-2.078-3.185-2.895-4.954-1.608l-7.45 5.417a3.209 3.209 0 0 0-1.171 3.596l4.182 12.875c.675 2.078 3.184 2.895 4.954 1.608l7.45-5.417a3.209 3.209 0 0 0 1.17-3.597Zm56.437-102.735H450.238l36.158 111.176 104.807-76.24c6.627-4.761 9.715-13.383 7.013-21.554a19.265 19.265 0 0 0-18.337-13.382ZM32.908 234.198c0 .005-1.822.006-2.369.006h-.153c-5.244-.07-10.166 3.25-11.87 8.5l-2.96 9.11c-.695 2.103 1.428 4.04 3.461 3.171 3.86-1.602 6.53-1.473 9.632-1.473a3.237 3.237 0 0 0 3.062-2.226l4.182-12.874c.663-2.046-.83-4.156-2.985-4.214Zm33.662.006h-9.22c-1.39 0-2.625.9-3.056 2.226l-4.182 12.874c-.676 2.078.875 4.208 3.056 4.208l9.22.006c1.39 0 2.625-.9 3.056-2.226l4.182-12.874c.675-2.078-.869-4.214-3.056-4.214Zm33.739 0h-9.214c-1.396 0-2.631.9-3.062 2.226l-4.182 12.874c-.676 2.078.875 4.208 3.056 4.208l9.22.006c1.39 0 2.625-.9 3.056-2.226l4.182-12.874c.675-2.078-.869-4.214-3.056-4.214Zm67.478 0h-9.22c-1.39 0-2.625.9-3.056 2.226l-4.182 12.874c-.676 2.078.868 4.214 3.056 4.214h9.22c1.39 0 2.625-.9 3.056-2.226l4.182-12.874c.675-2.078-.869-4.214-3.056-4.214Zm67.478 0h-9.22c-1.39 0-2.625.9-3.056 2.226l-4.182 12.874a3.212 3.212 0 0 0 3.056 4.208l9.213.006c1.396 0 2.632-.9 3.063-2.226l4.182-12.874c.675-2.078-.875-4.214-3.056-4.214Zm33.738 0-9.22.006c-1.389 0-2.624.895-3.055 2.22l-4.182 12.874c-.676 2.078.868 4.214 3.056 4.214h9.22c1.39 0 2.624-.9 3.056-2.226l4.182-12.874c.675-2.078-.875-4.214-3.057-4.214Zm-67.477 0h-9.22c-1.39 0-2.625.9-3.056 2.226l-4.182 12.874c-.676 2.078.875 4.208 3.056 4.208h9.22c1.39 0 2.625-.894 3.056-2.22l4.182-12.874c.675-2.078-.875-4.208-3.056-4.214Zm-67.478 0h-9.22c-1.39 0-2.625.9-3.056 2.226l-4.182 12.874c-.676 2.078.875 4.208 3.056 4.208h9.22c1.39 0 2.625-.894 3.056-2.22l4.182-12.874c.675-2.078-.869-4.214-3.056-4.214Zm416.686-4.092c-.675-2.078-3.178-2.895-4.947-1.608l-7.457 5.417a3.219 3.219 0 0 0-1.171 3.596l4.188 12.875c.67 2.078 3.179 2.895 4.948 1.608l7.457-5.417a3.228 3.228 0 0 0 1.17-3.597Zm-85.422.598h-13.536c-2.182 0-3.732 2.13-3.057 4.208l2.844 8.77a3.216 3.216 0 0 0 3.063 2.22h13.524c2.18 0 3.731-2.13 3.062-4.209l-2.837-8.762a3.222 3.222 0 0 0-3.063-2.227Zm-89.198 0h-13.537c-2.187 0-3.738 2.13-3.062 4.208l2.85 8.77a3.214 3.214 0 0 0 3.056 2.22h13.543c2.181 0 3.732-2.13 3.056-4.209l-2.85-8.769a3.214 3.214 0 0 0-3.056-2.22Zm201.919-20.433c-.676-2.078-3.185-2.89-4.954-1.609l-7.457 5.417a3.219 3.219 0 0 0-1.164 3.597l4.182 12.88c.675 2.079 3.184 2.89 4.947 1.603l7.457-5.418a3.219 3.219 0 0 0 1.17-3.596ZM454.89 198.625h-13.537c-2.188 0-3.738 2.13-3.063 4.208l2.85 8.763a3.22 3.22 0 0 0 3.056 2.226h13.544c2.187 0 3.731-2.136 3.056-4.214l-2.844-8.763a3.216 3.216 0 0 0-3.062-2.22Zm-89.212-.013h-13.51a3.213 3.213 0 0 0-3.063 4.201l2.818 8.75a3.205 3.205 0 0 0 3.056 2.233h13.556c2.187 0 3.738-2.136 3.056-4.214l-2.85-8.75a3.216 3.216 0 0 0-3.063-2.22Zm238.76-10.899c-.818-1.936-3.481-2.13-4.569-.34a19.406 19.406 0 0 1-4.741 5.281l-2.188 1.59a3.215 3.215 0 0 0-1.19 3.609l4.188 12.874c.682 2.085 3.204 2.889 4.967 1.596l2.316-1.68c4.04-3.081 5.907-8.499 4.253-13.6Zm-249.183-21.206h-13.517c-2.181 0-3.732 2.124-3.063 4.202l2.825 8.814a3.213 3.213 0 0 0 3.062 2.233h13.556c2.188 0 3.738-2.13 3.063-4.208l-2.87-8.815a3.208 3.208 0 0 0-3.056-2.226Zm89.212.026h-13.543c-2.182 0-3.732 2.136-3.057 4.214l2.844 8.763a3.222 3.222 0 0 0 3.063 2.226h13.536c2.188 0 3.739-2.136 3.063-4.214l-2.85-8.763a3.22 3.22 0 0 0-3.056-2.226Zm-384.055-17.14h-3.216c-4.954.258-9.522 3.475-11.13 8.493l-2.96 9.072c-.708 2.226 1.589 4.092 3.474 3.152 3.95-1.537 6.53-1.415 9.65-1.415 1.287 0 2.445-.837 2.96-1.995.219-.643 4.44-13.305 4.44-14.09 0-1.801-1.48-3.217-3.218-3.217Zm202.415-.025h-9.213c-1.396 0-2.632.9-3.063 2.226l-4.182 12.874c-.675 2.078.875 4.214 3.056 4.214h9.22c1.396 0 2.625-.9 3.056-2.226l4.189-12.874c.675-2.078-.875-4.214-3.063-4.214Zm-33.739 0h-9.213c-1.396 0-2.632.9-3.063 2.226l-4.182 12.874c-.675 2.078.875 4.214 3.063 4.214h9.213c1.396 0 2.631-.9 3.056-2.226l4.189-12.874c.675-2.078-.875-4.214-3.063-4.214Zm58.265.006a3.208 3.208 0 0 0-3.063 2.22l-4.182 12.874c-.675 2.078.875 4.214 3.056 4.214h9.22c1.39 0 2.625-.9 3.056-2.226l4.182-12.861c.676-2.078-.875-4.208-3.056-4.214Zm-125.743-.006h-9.213c-1.396 0-2.632.9-3.063 2.226l-4.182 12.874c-.675 2.078.875 4.214 3.063 4.214h9.213c1.396 0 2.632-.9 3.063-2.226l4.182-12.874c.675-2.078-.875-4.214-3.063-4.214Zm-33.739 0h-9.213c-1.396 0-2.632.9-3.063 2.226l-4.182 12.874c-.675 2.078.875 4.214 3.063 4.214h9.213c1.396 0 2.632-.9 3.063-2.226l4.182-12.874c.675-2.078-.875-4.214-3.063-4.214Zm-33.739 0H84.92c-1.396 0-2.632.9-3.063 2.226l-4.182 12.874c-.675 2.078.875 4.214 3.063 4.214h9.213c1.396 0 2.632-.9 3.063-2.226l4.182-12.874c.675-2.078-.875-4.214-3.063-4.214Zm101.217 0h-9.213c-1.396 0-2.632.9-3.063 2.226l-4.182 12.874c-.675 2.078.875 4.214 3.063 4.214h9.213c1.396 0 2.632-.9 3.056-2.226l4.189-12.874c.675-2.078-.875-4.214-3.063-4.214Zm149.484-14.901H331.27c-2.187 0-3.738 2.136-3.056 4.214l2.857 8.75a3.214 3.214 0 0 0 3.056 2.22h13.562c2.188 0 3.738-2.136 3.056-4.214l-2.85-8.75a3.216 3.216 0 0 0-3.062-2.22Zm89.204-.02h-13.536c-2.188 0-3.738 2.13-3.063 4.208l2.85 8.77a3.214 3.214 0 0 0 3.056 2.22h13.544c2.187 0 3.738-2.13 3.062-4.208l-2.85-8.77a3.216 3.216 0 0 0-3.063-2.22ZM258.96 3.604c-8.621 0-15.956 5.726-18.4 13.575l-39.954 122.95 116.71-.064L277.36 16.921a19.324 19.324 0 0 0-18.4-13.318Zm164.655 98.76H410.07c-2.18 0-3.731 2.129-3.056 4.207l2.844 8.763a3.222 3.222 0 0 0 3.063 2.226h13.543c2.18 0 3.731-2.136 3.056-4.214l-2.85-8.763a3.208 3.208 0 0 0-3.056-2.22Zm-89.205 0h-13.563c-2.187 0-3.731 2.135-3.056 4.213l2.857 8.75a3.214 3.214 0 0 0 3.056 2.22h13.562c2.188 0 3.738-2.136 3.056-4.214l-2.85-8.75a3.216 3.216 0 0 0-3.062-2.22Zm78.775-32.093H399.65c-2.188 0-3.738 2.136-3.063 4.214l2.85 8.763a3.22 3.22 0 0 0 3.056 2.226h13.544c2.187 0 3.738-2.136 3.062-4.214l-2.85-8.763a3.222 3.222 0 0 0-3.063-2.226Zm-89.198-.013h-13.563c-2.187 0-3.731 2.136-3.056 4.215l2.857 8.75a3.214 3.214 0 0 0 3.056 2.22h13.563c2.187 0 3.738-2.137 3.056-4.215l-2.85-8.75a3.216 3.216 0 0 0-3.063-2.22Zm78.75-32.04h-13.498c-2.188 0-3.732 2.136-3.056 4.214l2.856 8.75a3.214 3.214 0 0 0 3.056 2.22h13.499c2.187 0 3.738-2.136 3.056-4.214l-2.85-8.75a3.216 3.216 0 0 0-3.063-2.22Zm-89.173 0h-13.562c-2.188 0-3.738 2.136-3.056 4.214l2.856 8.75a3.214 3.214 0 0 0 3.056 2.22h13.563c2.187 0 3.738-2.136 3.056-4.214l-2.85-8.75a3.216 3.216 0 0 0-3.063-2.22Zm72.143-32.105h-9.587a2.581 2.581 0 0 0-2.573 2.574c0 2.058 2.316 2.316 4.375 8.235.096.296.701 2.232.836 2.51.515 1.093 1.609 1.865 2.895 1.865h13.511a3.186 3.186 0 0 0 3.217-3.217c0-.65-.045-.624-.9-3.281-1.609-4.89-5.92-8.686-11.774-8.686Zm-89.173 0h-9.587c-2.123 0-3.41 2.51-1.93 4.246 2.439 2.844 3.288 5.34 4.247 8.364.386 1.609 1.672 2.574 3.152 2.574h13.576c1.737 0 3.216-1.415 3.216-3.217 0-.663-.07-.74-.9-3.217-1.48-5.083-6.241-8.75-11.774-8.75Z"></path></svg>