<svg data-name="Layer 1" xmlns="http://www.w3.org/2000/svg" viewBox="0 0 605.17 615.56"><path d="m420.48 0-29.47 32.54L361.54 0l-29.47 32.54L302.59 0l-29.48 32.54L243.64 0l-29.47 32.54L184.69 0 0 203.88v207.8l184.69 203.88 29.47-32.54 29.47 32.54 29.48-32.54 29.48 32.54 29.47-32.54 29.47 32.54L391 583.02l29.47 32.54 184.69-203.88v-207.8L420.48 0Zm-58.95 26.24 17.59 19.42-17.59 19.42-17.59-19.42 17.59-19.42ZM231.75 537.37l-17.59 19.42-137.6-151.9V210.67l137.61-151.9 17.59 19.42L117.9 203.88v207.8l113.86 125.69ZM135.5 404.89V210.67L243.63 91.31l17.59 19.42-84.38 93.15v207.8l84.38 93.15-17.59 19.42L135.5 404.89Zm184.68-294.16-17.59 19.42L285 110.73l17.59-19.42 17.59 19.42Zm-5.71-32.54 17.59-19.42 17.59 19.42-17.59 19.42-17.59-19.42Zm-23.77 394.1-17.59 19.42-78.65-86.82V210.67l78.65-86.82 17.59 19.42-54.91 60.61v207.8l54.91 60.62Zm-37.3-67.41V210.67l49.18-54.29 49.18 54.29v194.22l-49.18 54.29-49.18-54.29Zm115.97 6.79V203.88l-54.91-60.61 17.59-19.42 78.66 86.83V404.9l-78.66 86.83-17.59-19.42 54.91-60.62ZM273.11 97.61l-17.59-19.42 17.59-19.42 17.59 19.42-17.59 19.42Zm0 420.34 17.59 19.42-17.59 19.42-17.59-19.42 17.59-19.42Zm11.88-13.12 17.59-19.42 17.59 19.42-17.59 19.42-17.59-19.42Zm47.06 13.12 17.59 19.42-17.59 19.42-17.59-19.42 17.59-19.42Zm11.88-13.12 84.39-93.15v-207.8l-84.39-93.15 17.59-19.42 108.13 119.36v194.22L361.52 524.25l-17.59-19.42Zm143.33-93.15v-207.8L373.4 78.19l17.59-19.42 137.6 151.9v194.22l-137.6 151.9-17.59-19.42 113.86-125.69ZM302.59 26.24l17.59 19.42-17.59 19.42L285 45.66l17.59-19.42Zm-58.95 0 17.59 19.42-17.59 19.42-17.59-19.42 17.59-19.42Zm-58.95 563.08L17.61 404.89V210.67L184.69 26.24l17.59 19.42L58.95 203.88v207.8l143.33 158.23-17.59 19.42Zm58.95 0-17.59-19.42 17.59-19.42 17.59 19.42-17.59 19.42Zm58.95 0L285 569.9l17.59-19.42 17.59 19.42-17.59 19.42Zm58.95 0-17.59-19.42 17.59-19.42 17.59 19.42-17.59 19.42Zm226.02-184.43L420.48 589.32l-17.59-19.42 143.33-158.23V203.88L402.89 45.65l17.59-19.42 167.08 184.43v194.22Z"></path></svg>