<svg xmlns="http://www.w3.org/2000/svg" width="616.5" viewBox="0 0 616.5 616.5" height="616.5" style="enable-background:new 0 0 616.5 616.5" xml:space="preserve"><path d="M77.1 154.1c42.5 0 77.1-34.6 77.1-77.1S119.6 0 77.1 0C34.6 0 0 34.6 0 77.1s34.6 77 77.1 77zm-.8-143.8v133.5c-36.5-.4-66-30.2-66-66.8s29.5-66.3 66-66.7z"></path><path d="M231.2 154.1c42.5 0 77.1-34.6 77.1-77.1 0-42.5-34.6-77.1-77.1-77.1S154.1 34.5 154.1 77c0 42.6 34.6 77.1 77.1 77.1zm0-143.8c36.6 0 66.4 29.6 66.8 66H164.4c.4-36.5 30.2-66 66.8-66z"></path><path d="M385.3 154.1c42.5 0 77.1-34.6 77.1-77.1S427.8 0 385.3 0c-42.5 0-77.1 34.6-77.1 77.1s34.6 77 77.1 77zm.7-143.8c36.5.4 66 30.2 66 66.8s-29.6 66.4-66 66.8V10.3z"></path><path d="M539.4 154.1c42.5 0 77.1-34.6 77.1-77.1 0-42.5-34.6-77.1-77.1-77.1-42.5 0-77.1 34.6-77.1 77.1.1 42.6 34.6 77.1 77.1 77.1zm66.8-76.3c-.4 36.5-30.2 66-66.8 66-36.6 0-66.4-29.6-66.8-66h133.6zM77.1 154.1C34.6 154.1 0 188.7 0 231.2c0 42.5 34.6 77.1 77.1 77.1s77.1-34.6 77.1-77.1c-.1-42.5-34.6-77.1-77.1-77.1zm0 143.9c-36.6 0-66.4-29.6-66.8-66h133.5c-.4 36.4-30.2 66-66.7 66z"></path><path d="M231.2 154.1c-42.5 0-77.1 34.6-77.1 77.1s34.6 77.1 77.1 77.1c42.5 0 77.1-34.6 77.1-77.1s-34.6-77.1-77.1-77.1zm-.8 143.9c-36.5-.4-66-30.2-66-66.8 0-36.6 29.6-66.4 66-66.8V298z"></path><path d="M385.3 308.2c42.5 0 77.1-34.6 77.1-77.1 0-42.5-34.6-77.1-77.1-77.1s-77.1 34.6-77.1 77.1c0 42.6 34.6 77.1 77.1 77.1zm0-143.8c36.6 0 66.4 29.6 66.8 66H318.5c.4-36.4 30.2-66 66.8-66z"></path><path d="M539.4 154.1c-42.5 0-77.1 34.6-77.1 77.1s34.6 77.1 77.1 77.1c42.5 0 77.1-34.6 77.1-77.1s-34.6-77.1-77.1-77.1zm.8 143.9V164.4c36.5.4 66 30.2 66 66.8 0 36.6-29.6 66.4-66 66.8zM77.1 462.4c42.5 0 77.1-34.6 77.1-77.1s-34.6-77.1-77.1-77.1C34.6 308.2 0 342.8 0 385.3s34.6 77.1 77.1 77.1zm.7-143.9c36.5.4 66 30.2 66 66.8 0 36.6-29.6 66.4-66 66.8V318.5z"></path><path d="M231.2 308.2c-42.5 0-77.1 34.6-77.1 77.1 0 42.5 34.6 77.1 77.1 77.1s77.1-34.6 77.1-77.1c-.1-42.5-34.6-77.1-77.1-77.1zm0 143.9c-36.6 0-66.4-29.6-66.8-66H298c-.4 36.4-30.2 66-66.8 66z"></path><path d="M385.3 462.4c42.5 0 77.1-34.6 77.1-77.1s-34.6-77.1-77.1-77.1c-42.5 0-77.1 34.6-77.1 77.1s34.6 77.1 77.1 77.1zm-.7-143.9V452c-36.5-.4-66-30.2-66-66.8-.1-36.5 29.5-66.3 66-66.7z"></path><path d="M539.4 308.2c-42.5 0-77.1 34.6-77.1 77.1 0 42.5 34.6 77.1 77.1 77.1 42.5 0 77.1-34.6 77.1-77.1 0-42.5-34.6-77.1-77.1-77.1zm-66.7 76.4c.4-36.5 30.2-66 66.8-66 36.6 0 66.4 29.6 66.8 66H472.7zM77.1 462.4c-42.5 0-77.1 34.5-77.1 77s34.6 77.1 77.1 77.1 77.1-34.6 77.1-77.1c-.1-42.5-34.6-77-77.1-77zm-66.8 76.3c.4-36.5 30.2-66 66.8-66 36.6 0 66.4 29.6 66.8 66H10.3z"></path><path d="M231.2 462.4c-42.5 0-77.1 34.6-77.1 77.1s34.6 77.1 77.1 77.1c42.5 0 77.1-34.6 77.1-77.1s-34.6-77.1-77.1-77.1zm.7 143.8V472.7c36.5.4 66 30.2 66 66.8.1 36.5-29.5 66.3-66 66.7z"></path><path d="M385.3 462.4c-42.5 0-77.1 34.6-77.1 77.1 0 42.5 34.6 77.1 77.1 77.1s77.1-34.6 77.1-77.1c0-42.6-34.6-77.1-77.1-77.1zm0 143.8c-36.6 0-66.4-29.6-66.8-66H452c-.3 36.4-30.1 66-66.7 66z"></path><path d="M539.4 462.4c-42.5 0-77.1 34.6-77.1 77.1s34.6 77.1 77.1 77.1c42.5 0 77.1-34.6 77.1-77.1s-34.6-77.1-77.1-77.1zm-.7 143.8c-36.5-.4-66-30.2-66-66.8 0-36.6 29.6-66.4 66-66.8v133.6z"></path></svg>