<svg data-name="Layer 1" xmlns="http://www.w3.org/2000/svg" viewBox="0 0 577.25 611.27"><path d="M346.06 154.5c-8.35-1.76-12.05 8.38-15.05 12.46-3.01 4.08-5.93 5.59-10.1 5.59s-10.85-7.41-12.46-22.88c-1.61-15.47-6.16-47.65-17.05-47.65s-6.62 19.43-16.13 19.43-13.78-15.71-19.99-27.29c-6.2-11.58-19.43-32.12-33.22-38.18-13.78-6.06-21.5-2.76-29.36-1.93-7.86.83-12.41-3.58-12.54-8.13-.14-4.55 5.51-4.14 8.96-3.31 3.45.83 14.33.75 24.53-.66 10.2-1.41 23.57-7.61 31.98-13.81S284.09 2.09 302.56.44c18.47-1.65 19.71 1.65 19.57 5.65-.14 4-6.34 6.34-6.48 10.61-.14 4.27 3.58 5.65 10.61 5.65s25.64-.69 43.56 2.62 36.66 12.82 36.39 21.36c-.28 8.55-7.72 8.82-12.41 9.51-4.69.69-7.44 3.72-6.89 6.48.55 2.76 2.89 4.96 11.03 8.96 8.13 4 31.15 19.99 35.15 31.43 4 11.44.83 19.02-8.13 18.88-8.96-.14-12.41-1.1-15.02 2.76-5.97 8.79 20.54 27.68 20.54 44.8 0 7.86-6.34 8.68-9.92 8.55-3.58-.14-6.89-1.1-8.41 2.34-1.52 3.45 3.05 30.5-11.02 32.2-14.07 1.71-12.28-21.04-19.72-21.73-7.44-.69-7.58 7.31-15.71 7.72-19.46.99-3.9-40.42-19.63-43.73ZM186.45 180.33c-5.7 6.35 1.23 14.62 3.27 19.27 2.03 4.65 1.87 7.93-.21 11.54-2.08 3.61-11.85 5.69-26.05-.65-14.2-6.34-44.34-18.49-49.79-9.06-5.44 9.43 13.52 15.45 8.77 23.68-4.76 8.24-20.5 4.08-33.63 3.66-13.13-.42-37.53.77-49.67 9.68C27 247.35 26 255.69 22.79 262.91c-3.21 7.22-9.31 8.95-13.31 6.8-4.01-2.15-.82-6.84 1.61-9.41 2.44-2.57 7.82-12.04 11.7-21.58 3.88-9.54 5.19-24.22 4.03-34.6-1.17-10.38-3.33-46.33 4.47-63.15s11.29-16.24 14.68-14.12c3.39 2.12 2.32 8.66 5.95 10.92 3.63 2.26 6.69-.28 10.2-6.37 3.51-6.09 12.22-22.55 24.05-36.41 11.82-13.86 29.43-25.34 36.7-20.83 7.26 4.51 3.78 11.1 2.03 15.5s-.5 8.31 2.16 9.21c2.66.9 5.74-.03 13.27-5.07 7.53-5.04 32.88-16.98 44.79-14.73 11.91 2.26 16.89 8.79 12.29 16.48-4.6 7.69-7.16 10.19-5.12 14.39 4.63 9.56 34.24-3.95 49.06 4.61 6.8 3.93 4.35 9.83 2.44 12.87-1.91 3.03-4.4 5.42-2.17 8.45 2.23 3.04 27.93 12.61 22.38 25.64-5.56 13.04-24.36.11-28.67 6.21-4.32 6.1 2.54 10.22-1.17 17.47-8.87 17.34-36.95-16.83-47.68-4.87ZM129.02 331.47c2.65 8.11 13.28 6.24 18.32 6.81 5.04.56 7.81 2.35 9.89 5.95 2.08 3.61-.99 13.1-13.59 22.23-12.59 9.13-38.18 29.16-32.74 38.59 5.44 9.43 20.14-3.99 24.89 4.25 4.76 8.24-6.72 19.79-13.64 30.95-6.93 11.16-18.1 32.89-16.46 47.86 1.64 14.97 8.36 20 13.01 26.39 4.64 6.39 3.1 12.54-.77 14.93-3.87 2.39-6.34-2.71-7.34-6.1-1.01-3.4-6.52-12.79-12.84-20.92-6.32-8.13-18.38-16.61-27.95-20.79-9.58-4.18-41.79-20.28-52.46-35.45-10.67-15.17-8.42-17.9-4.89-19.78 3.53-1.88 8.66 2.32 12.43.3 3.77-2.02 3.1-5.93-.41-12.02-3.51-6.09-13.42-21.86-19.51-39.03-6.09-17.17-7.23-38.16.31-42.2 7.54-4.03 11.5 2.27 14.44 5.99 2.94 3.71 6.94 4.59 9.06 2.73 2.11-1.86 2.85-4.99 2.25-14.03s1.73-36.97 9.64-46.15 16.06-10.23 20.42-2.4c4.36 7.83 5.25 11.29 9.9 11.63 10.6.77 13.7-31.63 28.53-40.18 6.8-3.93 10.69 1.15 12.36 4.32 1.67 3.17 2.49 6.52 6.23 6.11 3.74-.41 24.89-17.89 33.4-6.56 8.51 11.33-12.08 21.15-8.96 27.94 3.12 6.79 10.12 2.91 14.54 9.75 10.58 16.35-33.05 23.59-28.06 38.86ZM231.19 456.77c8.35 1.76 12.05-8.38 15.05-12.46 3.01-4.08 5.93-5.59 10.1-5.59 4.16 0 10.85 7.41 12.46 22.88 1.61 15.47 6.16 47.65 17.05 47.65s6.62-19.43 16.13-19.43c9.51 0 13.78 15.71 19.99 27.29 6.2 11.58 19.43 32.12 33.22 38.18 13.78 6.06 21.5 2.76 29.36 1.93 7.86-.83 12.41 3.58 12.54 8.13.14 4.55-5.51 4.14-8.96 3.31-3.45-.83-14.33-.75-24.53.66-10.2 1.41-23.57 7.61-31.98 13.81s-38.46 26.05-56.93 27.7c-18.47 1.65-19.71-1.65-19.57-5.65.14-4 6.34-6.34 6.48-10.61.14-4.27-3.58-5.65-10.61-5.65s-25.64.69-43.56-2.62-36.66-12.82-36.39-21.36c.28-8.55 7.72-8.82 12.41-9.51 4.69-.69 7.44-3.72 6.89-6.48-.55-2.76-2.89-4.96-11.03-8.96-8.13-4-31.15-19.99-35.15-31.43-4-11.44-.83-19.02 8.13-18.88 8.96.14 12.41 1.1 15.02-2.76 5.97-8.79-20.54-27.68-20.54-44.8 0-7.86 6.34-8.68 9.92-8.55 3.58.14 6.89 1.1 8.41-2.34 1.52-3.45-3.05-30.5 11.02-32.2 14.07-1.71 12.28 21.04 19.72 21.73 7.44.69 7.58-7.31 15.71-7.72 19.46-.99 3.9 40.42 19.63 43.73ZM390.8 430.94c5.7-6.35-1.23-14.62-3.27-19.27-2.03-4.65-1.87-7.93.21-11.54 2.08-3.61 11.85-5.69 26.05.65 14.2 6.34 44.34 18.49 49.79 9.06 5.44-9.43-13.52-15.45-8.77-23.68 4.76-8.24 20.5-4.08 33.63-3.66 13.13.42 37.53-.77 49.67-9.68 12.14-8.9 13.14-17.24 16.35-24.46 3.21-7.22 9.31-8.95 13.31-6.8 4.01 2.15.82 6.84-1.61 9.41-2.44 2.57-7.82 12.04-11.7 21.58-3.88 9.54-5.19 24.22-4.03 34.6 1.17 10.38 3.33 46.33-4.47 63.15s-11.29 16.24-14.68 14.12c-3.39-2.12-2.32-8.66-5.95-10.92-3.63-2.26-6.69.28-10.2 6.37-3.51 6.09-12.22 22.55-24.05 36.41-11.82 13.86-29.43 25.34-36.7 20.83-7.26-4.51-3.78-11.1-2.03-15.5s.5-8.31-2.16-9.21c-2.66-.9-5.74.03-13.27 5.07-7.53 5.04-32.88 16.98-44.79 14.73-11.91-2.26-16.89-8.79-12.29-16.48 4.6-7.69 7.16-10.19 5.12-14.39-4.63-9.56-34.24 3.95-49.06-4.61-6.8-3.93-4.35-9.83-2.44-12.87 1.91-3.03 4.4-5.42 2.17-8.45-2.23-3.04-27.93-12.61-22.38-25.64 5.56-13.04 24.36-.11 28.67-6.21 4.32-6.1-2.54-10.22 1.17-17.47 8.87-17.34 36.95 16.83 47.68 4.87ZM448.23 279.81c-2.65-8.11-13.28-6.24-18.32-6.81-5.04-.56-7.81-2.35-9.89-5.95-2.08-3.61.99-13.1 13.59-22.23 12.59-9.13 38.18-29.16 32.74-38.59-5.44-9.43-20.14 3.99-24.89-4.25-4.76-8.24 6.72-19.79 13.64-30.95 6.93-11.16 18.1-32.89 16.46-47.86-1.64-14.97-8.36-20-13.01-26.39-4.64-6.39-3.1-12.54.77-14.93 3.87-2.39 6.34 2.71 7.34 6.1 1.01 3.4 6.52 12.79 12.84 20.92 6.32 8.13 18.38 16.61 27.95 20.79 9.58 4.18 41.79 20.28 52.46 35.45 10.67 15.17 8.42 17.9 4.89 19.78-3.53 1.88-8.66-2.32-12.43-.3-3.77 2.02-3.1 5.93.41 12.02 3.51 6.09 13.42 21.86 19.51 39.03 6.09 17.17 7.23 38.16-.31 42.2-7.54 4.03-11.5-2.27-14.44-5.99-2.94-3.71-6.94-4.59-9.06-2.73-2.11 1.86-2.85 4.99-2.25 14.03.6 9.04-1.73 36.97-9.64 46.15s-16.06 10.23-20.42 2.4c-4.36-7.83-5.25-11.29-9.9-11.63-10.6-.77-13.7 31.63-28.53 40.18-6.8 3.93-10.69-1.15-12.36-4.32-1.67-3.17-2.49-6.52-6.23-6.11-3.74.41-24.89 17.89-33.4 6.56-8.51-11.33 12.08-21.15 8.96-27.94-3.12-6.79-10.12-2.91-14.54-9.75-10.58-16.35 33.05-23.59 28.06-38.86Z"></path></svg>