<svg xmlns="http://www.w3.org/2000/svg" id="a" width="642" viewBox="0 0 642 625.92" height="625.92" data-name="Layer 1"><defs></defs><path d="m642 312.92-14.4-14.4-182.53 12.76-3.61 1.68 3.61 1.68 182.53 12.77 14.4-14.45v-.04zM610.19 173.65l-19.22-6.73-158.92 90.7-2.52 3.08 3.98-.05 169.99-67.7 6.71-19.27-.02-.03zM521.11 61.97l-20.24 2.28-103.83 150.66-.93 3.87 3.56-1.77L523.45 82.26l-2.31-20.27-.03-.02zM392.39 0l-17.25 10.84-28.17 180.79.84 3.89 2.44-3.14 53.06-175.12L392.43 0h-.04zM249.53.02l-10.84 17.24 53.06 175.12 2.44 3.14.84-3.89-28.17-180.79L249.57 0l-.04.02zM120.83 62.02l-2.28 20.24 123.78 134.75 3.56 1.77-.93-3.87L141.13 64.25l-20.27-2.26-.03.03zM31.77 173.72l6.73 19.23 169.99 67.7 3.98.05-2.52-3.08-158.92-90.7-19.24 6.76-.02.04zM0 313.01l14.4 14.4 182.53-12.77 3.61-1.68-3.61-1.68L14.4 298.52 0 312.96v.05zM31.81 452.28 51.03 459l158.92-90.69 2.52-3.08-3.98.05-169.99 67.7-6.71 19.26.02.04zM120.89 563.96l20.24-2.28 103.83-150.67.93-3.87-3.56 1.77-123.78 134.75 2.31 20.27.03.03zM249.61 625.92l17.25-10.83 28.17-180.8-.84-3.89-2.44 3.14-53.06 175.12 10.88 17.25.04.01zM392.47 625.9l10.84-17.24-53.06-175.12-2.44-3.14-.84 3.89 28.17 180.8 17.29 10.82.04-.01zM521.17 563.9l2.28-20.24-123.78-134.75-3.56-1.77.93 3.87 103.83 150.67 20.27 2.25.03-.03zM610.23 452.2l-6.73-19.22-169.99-67.7-3.98-.05 2.52 3.08L590.97 459l19.24-6.76.02-.04zM321 589.34l9.95-9.95-8.55-93.09-1.4-2.75-1.4 2.75-8.55 93.09 9.95 9.95zM440.92 561.97l4.65-13.28-48.1-80.16-2.45-1.87-.07 3.08 32.68 87.58 13.29 4.65zM537.08 485.28l-1.57-13.98-78.11-51.36-3.02-.62 1.27 2.81 67.45 64.73 13.98-1.58zM590.45 374.46l-7.49-11.91-92.65-12.38-2.99.75 2.36 1.98 88.86 29.05 11.91-7.49zM590.45 251.46l-11.91-7.49-88.86 29.06-2.36 1.97 2.99.75 92.65-12.37 7.49-11.92zM537.08 140.64l-13.98-1.57-67.45 64.72-1.27 2.81 3.02-.62 78.11-51.35 1.57-13.99zM440.92 63.95l-13.29 4.65-32.68 87.58.07 3.08 2.45-1.87 48.1-80.16-4.65-13.28zM321 36.58l-9.95 9.95 8.55 93.09 1.4 2.75 1.4-2.75 8.55-93.09-9.95-9.95zM201.08 63.95l-4.65 13.28 48.1 80.16 2.45 1.87.07-3.08-32.68-87.58-13.29-4.65zM104.92 140.64l1.57 13.99 78.11 51.35 3.02.62-1.27-2.81-67.45-64.72-13.98 1.57zM51.55 251.46l7.49 11.92 92.65 12.37 2.99-.75-2.36-1.97-88.86-29.06-11.91 7.49zM51.55 374.46l11.91 7.49 88.86-29.05 2.36-1.98-2.99-.75-92.65 12.38-7.49 11.91zM104.92 485.28l13.98 1.58 67.45-64.73 1.27-2.81-3.02.62-78.11 51.36-1.57 13.98zM201.08 561.97l13.29-4.65 32.68-87.58-.07-3.08-2.45 1.87-48.1 80.16 4.65 13.28zM321 397.45l1.22 2.18 5.91 68.05-7.13 7.19-7.13-7.19 5.91-68.05 1.22-2.18zM357.66 389.08l2.04 1.44 34.85 58.75-3.3 9.57-9.54-3.39-24.2-63.87.15-2.5zM387.05 365.64l2.47.41 56.89 37.81 1.18 10.05-10.07 1.09L388 367.95l-.95-2.31zM403.37 331.76l2.4-.7 67.66 9.38 5.42 8.55-8.59 5.35-65.03-20.9-1.86-1.68zM403.37 294.16l1.86-1.67 65.03-20.9 8.59 5.34-5.42 8.55-67.66 9.38-2.4-.7zM387.05 260.28l.95-2.31 49.52-47.05 10.07 1.09-1.18 10.06-56.89 37.81-2.47.4zM357.66 236.84l-.15-2.49 24.2-63.88 9.54-3.39 3.3 9.57-34.85 58.75-2.04 1.44zM321 228.47l-1.22-2.18-5.91-68.05 7.13-7.19 7.13 7.19-5.91 68.05-1.22 2.18zM284.34 236.84l-2.04-1.44-34.85-58.75 3.3-9.57 9.54 3.39 24.2 63.88-.15 2.49zM254.95 260.28l-2.47-.4-56.89-37.81-1.18-10.06 10.07-1.09L254 257.97l.95 2.31zM238.63 294.16l-2.4.7-67.66-9.38-5.42-8.55 8.59-5.34 65.03 20.9 1.86 1.67zM238.63 331.76l-1.86 1.68-65.03 20.9-8.59-5.35 5.42-8.55 67.66-9.38 2.4.7zM254.95 365.64l-.95 2.31L204.48 415l-10.07-1.09 1.18-10.05 56.89-37.81 2.47-.41zM284.34 389.08l.15 2.5-24.2 63.87-9.54 3.39-3.3-9.57 34.85-58.75 2.04-1.44zM433.03 312.96l-6.1 6.1-71.58-5.01-1.29-1.09 1.29-1.09 71.58-5.01 6.1 6.1zM421.93 264.35l-2.84 8.15-66.67 26.54-1.63-.42.68-1.54 62.32-35.57 8.14 2.84zM390.85 225.37l.96 8.57-48.54 52.85-1.66.32-.05-1.68 40.72-59.09 8.57-.97zM345.93 203.74l4.59 7.3-20.81 68.68-1.35 1.01-.78-1.5 11.05-70.9 7.3-4.59zM296.07 203.74l7.3 4.59 11.05 70.9-.78 1.5-1.35-1.01-20.81-68.68 4.59-7.3zM251.15 225.37l8.57.97 40.72 59.09-.05 1.68-1.66-.32-48.54-52.85.96-8.57zM220.07 264.35l8.14-2.84 62.32 35.57.68 1.54-1.63.42-66.67-26.54-2.84-8.15zM208.97 312.96l6.1-6.1 71.58 5.01 1.29 1.09-1.29 1.09-71.58 5.01-6.1-6.1zM220.07 361.57l2.84-8.14 66.67-26.55 1.63.43-.68 1.54-62.32 35.57-8.14-2.85zM251.15 400.55l-.96-8.57 48.54-52.85 1.66-.32.05 1.69-40.72 59.08-8.57.97zM296.07 422.18l-4.59-7.3 20.81-68.68 1.35-1 .78 1.49-11.05 70.9-7.3 4.59zM345.93 422.18l-7.3-4.59-11.05-70.9.78-1.49 1.35 1 20.81 68.68-4.59 7.3zM390.85 400.55l-8.57-.97-40.72-59.08.05-1.69 1.66.32 48.54 52.85-.96 8.57zM421.93 361.57l-8.14 2.85-62.32-35.57-.68-1.54 1.63-.43 66.67 26.55 2.84 8.14z" class="b"></path></svg>