<svg id="Layer_1" data-name="Layer 1" xmlns="http://www.w3.org/2000/svg" viewBox="0 0 621.64 595.8">   <path d="M357.74,0h-104.64V213.87c0,20.64,7.92,39.38,20.79,53.52-27.65-17.66-60.48-27.93-95.72-27.93C79.77,239.46,0,319.23,0,417.63s79.77,178.17,178.17,178.17,178.17-79.77,178.17-178.17c0-52.67-22.87-99.98-59.2-132.6,10.72,5.37,22.78,8.47,35.59,8.47h104.64V79.63C437.37,35.65,401.72,0,357.74,0Z"></path>   <path d="M542.01,293.5h-104.64v213.87c0,43.98,35.65,79.63,79.63,79.63h104.64v-213.87c0-43.98-35.65-79.63-79.63-79.63Z"></path> </svg>