<svg xmlns="http://www.w3.org/2000/svg" width="614.1" viewBox="0 0 614.1 590.7" height="590.7" xml:space="preserve"><path d="M313.5 359c20.6 13.7 43.9 23.5 68.8 28.3v-77.7c-46.9-14.7-81.1-59.4-81.1-112 .4-37.8-20.3-74.8-52.8-94-57.7 109.2 7.2 215.2 57.3 250 2.5 1.8 5.1 3.7 7.8 5.4z"></path><path d="M614.1 195.9c.5-153.7-170.8-249.3-300-163.9 21.8 16.5 40.1 37.3 53.9 61.1C425.4 61.7 502.9 91 526 152c12.5 30.3 11.2 65.9-3.4 95.2-5.8 22.1-215.5 229-215.5 229L115.3 280.7c-49.3-49.9-47-135 8.4-176.2 58.6-47.5 148.9-20.6 177.2 47.9 6.3 14.5 9.7 30.3 9.7 46.2-.4 37.3 20 73.7 51.8 93.1 33.6-59.2 32.9-135.7-1.6-194.3.2.3.4.7.6 1C245.8-93.4-37 18.8 4 236.8c6.3 30 19.8 58.5 39.1 82.4 37.2 40.9 264 271.5 264 271.5l247.3-253.5-.1-.1c36.9-35.7 59.8-85.8 59.8-141.2z"></path><path d="M246.5 298.9c-5.3 2.7-11.6 5.3-17.3 7.2v82.6c25.6-4.7 50.2-14.8 71.3-28.6-21.4-16.9-39.8-37.6-54-61.2z"></path></svg>