<svg xmlns="http://www.w3.org/2000/svg" width="614.8" viewBox="0 0 614.8 611.6" height="611.6" xml:space="preserve"><path d="M446.9 289.5c-2.6 2.3 9.1 6.5-17.9 33.5l-98.3 98.3c-4.9 4.8-12.9 5.4-17.7.5-2.2-2.2-4.1-4.9-4.4-7.8v-70.7c0-20.9-17-37.9-37.9-37.9l-2.4.3h-64.9c-8.5 0-15.3-6.9-15.3-15.3 0-3.8 1.4-7.3 3.6-9.9l98.5-98.5c14.9-14.8 14.9-14.6 41.1-14.8h83.6c17.6 0 31.9 14.3 31.9 31.9v90.4h.1zM19.7 469.9c-10.1 0-18.2-8.2-18.2-18.2 0-4.5 1.6-8.6 4.3-11.8L122.7 323c8.8-8.8 17.2-10.9 17-43.2v-77.5c0-20.9-17-37.9-37.9-37.9H18.2c-10 0-18.2-8.1-18.2-18.2 0-4.5 1.7-8.6 4.4-11.8L121.2 17.5C138.9 0 138.9.2 170 0h99.3c20.9 0 37.8 17 37.8 37.9v70.7c.2 2.8 2.2 5.6 4.4 7.8 4.8 4.8 12.8 4.3 17.7-.5l98.3-98.3C445.1 0 445.1.2 476.2 0h99.2c20.9 0 37.8 17 37.8 37.9v112.8c0 18-9.6 27.9-24.5 42.7l-87.1 87.1c-2.3 2.7-3.7 6.1-3.7 9.9 0 8.5 6.9 15.3 15.3 15.3l67.4-.3H577c20.9 0 37.9 16.9 37.9 37.9v98.3c-.2 31.1 0 31.1-17.5 48.8l-117 116.9c-3.2 2.7-7.3 4.3-11.8 4.3-10 0-18.2-8.1-18.2-18.2v-83.6c0-20.9-16.9-37.9-37.9-37.9H335c-32.3-.3-34.4 8.2-43.2 17L175 605.8c-3.2 2.7-7.3 4.3-11.8 4.3-10 0-18.2-8.1-18.2-18.2v-83.6c0-20.9-17-37.9-37.9-37.9l-87.4-.5z" fill-rule="evenodd" clip-rule="evenodd"></path></svg>