<svg xmlns="http://www.w3.org/2000/svg" width="567.6" viewBox="0 0 567.6 608.4" height="608.4" xml:space="preserve"><path d="M567.6 443.8V244.4c0-34.5-28.1-62.5-62.6-62.5-10.9 0-21.4 2.8-30.7 8.1 0 0-.1.1-.3.2-.5.3-6.8 3.9-11.5 6.7l-13.7-8.2c-6.5-3.8-11.2-9.9-13.2-17.2-2-7.3-1-14.9 2.8-21.5 7.8-13.5 25.2-18.2 38.7-10.4l12.5 7.2 17.1-29.6L318.2 8.4C303.7.1 286.9-2.2 270.7 2.2c-5.6 1.5-10.9 3.7-15.8 6.7L78.1 110c-14.5 8.3-24.8 21.8-29.1 38-4.3 16.1-2.1 33 6.3 47.4 7.9 13.7 20.5 23.7 35.7 28.4v17c0 15.6-12.7 28.3-28.3 28.3-15.6 0-28.3-12.7-28.3-28.3v-14.4H0v217.4c0 21.1 10.4 40.4 27.9 52l-.2.3 180.6 103.1c9.5 5.5 20.3 8.4 31.1 8.4 5.5 0 10.9-.7 16.3-2.2 16.1-4.3 29.6-14.7 38-29.1 4.6-7.9 7.3-16.5 8.1-25.5h.2v-2.4c.1-2.3.1-4.5 0-6.7v-11.6l18.6-10.7c13.1-5.6 28.4-.5 35.6 11.9 7.8 13.5 3.2 30.8-10.3 38.6l-15.1 8.6 17.1 29.6 188.4-108.7c20-11.2 31.9-32.5 31.3-55.6zm-476.7.1c0 15.6-12.7 28.3-28.3 28.3-15.6 0-28.3-12.7-28.3-28.3V296.6c8.8 4.5 18.5 6.8 28.3 6.8 9.9 0 19.6-2.3 28.3-6.8v147.3zM505 216.1c15.6 0 28.3 12.7 28.3 28.3v145.5c-8.9-4.5-18.6-6.7-28.3-6.7-9.6 0-19.2 2.2-28 6.6l-.3-145.3c0-15.7 12.7-28.4 28.3-28.4zM262.4 48.4c3.8-6.5 9.9-11.2 17.2-13.2 7.3-2 14.9-1 21.5 2.8l127.7 73.7c-8.2 5.3-15.1 12.6-20.1 21.1-5 8.7-7.8 18.4-8.3 28.3L272.8 87c-6.6-3.8-11.2-9.9-13.2-17.2-1.9-7.2-.9-14.9 2.8-21.4zM84.9 178.3c-3.8-6.5-4.8-14.2-2.8-21.5 2-7.3 6.6-13.4 13.2-17.2l129.2-74.4c.2 4.5.9 9.1 2.1 13.5 4 14.7 13 27.3 25.6 35.7l-128.6 74.2c-6.5 3.8-14.2 4.8-21.5 2.8-7.4-1.9-13.5-6.6-17.2-13.1zm179.2 381c-3.8 6.5-9.9 11.2-17.2 13.2-7.3 2-14.9 1-21.5-2.8L96.7 496.2c16.9-11 27.5-29.6 28.3-49.8l128.6 74.2c6.5 3.8 11.2 9.9 13.2 17.2 2 7.4 1 15-2.7 21.5zm4.3-69.7L125.1 407V243.9L268.4 327v162.6zM143.7 216l142-81.5 141.5 81c-55.2 32-139.5 81.6-141.7 82.9L143.7 216zm158.9 273.7V327l139.8-81.4v163.9l-139.8 80.2zm216.6-19.6-125.1 72.2c-.5-9.8-3.3-19.4-8.3-27.9-4.9-8.5-11.7-15.7-19.9-21l125-72.3c6.6-3.8 14.2-4.8 21.5-2.8 7.3 2 13.4 6.6 17.2 13.2 7.8 13.4 3.1 30.8-10.4 38.6z"></path></svg>