<svg xmlns="http://www.w3.org/2000/svg" width="612.7" viewBox="0 0 612.7 403.6" height="403.6" xml:space="preserve"><path d="M612.7 158 529.4 3.2 368.7 90.8 305.9 70V0L37.6 127.6v38.8H0v183.4l82.2.2 30.6 53.7h269.9l167.6-183.8v-27.7l62.4-34.2zm-241.8-43.4 149.6-81.5L583 149.2 550.4 167v-14.6H281.2L187 218.9l-46.7-16.7 156-112.3 74.6 24.7zM22 327.8V188.3h37.6v-46.9L283.9 34.8v36.9L93.5 208.8l96.9 34.6 97.9-69h240.2v36.5H307v22h201.6l-29.5 32.3H305.9L287.5 233 58.4 308.3 69.6 328l-47.6-.2zm296.5-40.6h140.6l-32.5 35.6h-87.9l-20.2-35.6zm-146 6.7 48.9 87.7h-35.6l-43.2-77.9 29.9-9.8zm21.3-7 31.2-10.3 58.4 105h-36.8l-52.8-94.7zM90.9 320.7l30.5-10 39.3 70.9h-35.1l-34.7-60.9zm217.7 60.9-62.3-112 31-10.2L347 381.6h-38.4zm64.5 0h-.7l-21-36.8h55.3l-33.6 36.8z"></path></svg>