<svg xmlns="http://www.w3.org/2000/svg" viewBox="0 0 611.56 642"><path d="M577.27 441.91 356.38 213.12V37.76c0-18.24 14.7-32.94 32.88-32.94V0H239.64v229.3L34.29 441.91C13.1 463.1 0 492.45 0 524.81 0 589.54 52.46 642 117.12 642h377.25c64.73 0 117.19-52.46 117.19-117.19 0-32.36-13.1-61.71-34.29-82.9Zm-110.83 16.18-122.13 67.74v-30.82l102.74-56.96 19.39 20.03Zm-27.48-28.38-94.65 52.46v-30.82l75.26-41.74 19.39 20.1Zm-28.57-29.67-66.07 36.6v-30.82L391 379.94l19.39 20.1Zm-189.81-20.1 46.68 25.88v30.82l-66.07-36.6 19.39-20.1Zm-28.57 29.67 75.26 41.74v30.82l-94.65-52.46 19.39-20.1Zm75.26 116.23L145.14 458.1l19.39-20.03 102.74 56.96v30.82Zm212.22 20.23H300.4v-34.55l-33.13-18.36-101.58-56.31 5.78-5.97 95.81 53.1 33.13 18.43v-34.55l-33.13-18.36-74.1-41.1 6.87-7.13 100.36 55.61v-34.55l-78.66-43.54 73.07-75.71c2.83-2.89 6.49-4.37 10.21-4.56v71.15l-37.76 20.93v.58l38.53 21.32 38.53-21.32v-.58l-37.69-20.93v-71.15c3.72.19 7.32 1.67 10.15 4.56l73.07 75.71-78.66 43.54v34.55l100.36-55.61 6.87 7.13-74.1 41.1-33.13 18.36v34.55l33.13-18.43 95.81-53.1 5.78 5.97-101.58 56.31-33.13 18.36v34.55l156.42-86.75 33.84 35.06c18.69 19.33 4.94 51.69-21.96 51.69Zm-179.09 0H132.09c-26.91 0-40.65-32.36-21.96-51.69l33.84-35.06 156.42 86.75Z"></path></svg>