<svg data-name="Layer 1" xmlns="http://www.w3.org/2000/svg" viewBox="0 0 603.06 484.47"><path d="M565.41 0H37.65C16.86 0 0 16.86 0 37.65v409.17c0 20.79 16.86 37.65 37.65 37.65h527.76c20.79 0 37.65-16.86 37.65-37.65V37.65C603.06 16.86 586.2 0 565.41 0Zm-76.56 166.66c0 20.79-16.86 37.65-37.65 37.65h-74.09c-.3 0-.59-.04-.88-.04v75.95c.3 0 .59-.04.88-.04h74.09c20.79 0 37.65 16.86 37.65 37.65v74.09c0 20.79-16.86 37.65-37.65 37.65h-74.09c-20.79 0-37.65-16.86-37.65-37.65v-74.09c0-.3.04-.59.04-.88h-75.95c0 .3.04.59.04.88v74.09c0 20.79-16.86 37.65-37.65 37.65h-74.09c-20.79 0-37.65-16.86-37.65-37.65v-74.09c0-20.79 16.86-37.65 37.65-37.65h74.09c.3 0 .59.04.88.04v-75.95c-.3 0-.59.04-.88.04h-74.09c-20.79 0-37.65-16.86-37.65-37.65V92.57c0-20.79 16.86-37.65 37.65-37.65h74.09c20.79 0 37.65 16.86 37.65 37.65v74.09c0 .3-.04.59-.04.88h75.95c0-.3-.04-.59-.04-.88V92.57c0-20.79 16.86-37.65 37.65-37.65h74.09c20.79 0 37.65 16.86 37.65 37.65v74.09Z"></path></svg>