<svg data-name="Layer 1" xmlns="http://www.w3.org/2000/svg" viewBox="0 0 574.47 608.86"><path d="M421.52 132.83h-59.06v248.11H212.01V209.25h-57.78v171.69h-1.28c-52.47 0-95.17-42.69-95.17-95.17s42.69-95.17 95.17-95.17h59.06v-57.78h-59.06C68.61 132.83 0 201.44 0 285.78s68.61 152.95 152.95 152.95h1.28v170.14h57.78V438.73h150.44v170.14h57.78V438.73h1.28c84.34 0 152.95-68.61 152.95-152.95s-68.61-152.95-152.95-152.95Zm0 248.11h-1.28V190.61h1.28c52.47 0 95.17 42.69 95.17 95.17s-42.69 95.17-95.17 95.17ZM420.24 0h-57.79v56.41h-46.32V0h-57.79v56.41h-46.33V0h-57.78v114.19h266.01V0z"></path></svg>