<svg xmlns="http://www.w3.org/2000/svg" width="435.4" viewBox="0 0 435.4 622.4" height="622.4" xml:space="preserve" style="enable-background:new 0 0 435.4 622.4"><path d="M217.7 0C145.3 0 86.4 56.1 86.4 125.1s58.9 125.1 131.3 125.1S349 194.1 349 125.1 290.1 0 217.7 0zm0 185.6c-33.4 0-60.5-27.2-60.5-60.5s27.2-60.5 60.5-60.5 60.5 27.2 60.5 60.5-27.1 60.5-60.5 60.5zM386.1 293.7c-3.7-24.9-25.5-43.3-51.1-43.3h-32.3l-85.1 219.9-85.1-219.9h-32.3c-25.6 0-47.4 18.4-51.1 43.3L0 622.4h75.5L109.1 398l87.2 224.4H239L326.3 398 360 622.4h75.5l-49.4-328.7z"></path></svg>