<svg xmlns="http://www.w3.org/2000/svg" width="623.4" viewBox="0 0 623.4 642" height="642" style="overflow:visible;enable-background:new 0 0 623.4 642" xml:space="preserve"><path d="M291.7 443.2c-10.7 33.8-42.2 58.4-79.6 58.4-47.5 0-105.2-50.2-112.8-120.6l-10.7 1.7c12.1 88.9 79.5 160.1 166.3 178l-7.8 23.8c-42.9-11.2-80.5-35.3-108.6-67.9-25.1 23.9-65.5 29.5-99 4.4-15.3-12.8-13-36.7 4-46.4l12.3-7.3c7.4-4.4 7.4-15.1 0-19.5l-37.5-23.2c-28.4-16.6-22.8-59.1 8.9-67.7l11-2.8c14.1-3.8 19.3-21 9.6-32.2C30.2 302.4 21 276.4 21 264.2c0-18.7 17.2-32.9 35.8-29.2l13 3.2c7.8 1.5 14.7-3.1 16.8-9.9 5.7-19.2 16.4-36.2 30.7-49.6 17.8-18 49.4-5.6 49.4 20.4 0 6.9-4.8 23-4.8 27.9 0 9.3 9.6 15.3 17.7 11.9 7.7-3.2 11.7-6.9 20.1-6.9 17.5 0 29.6 17.8 23 34.2-14.1 29.9-16.4 30.8-16.4 36.5 0 11.3 12.6 17.7 21.8 11.7 20.5-13.8 48.8.7 48.8 25.9 0 20.6-17 27.2-31.2 42.8-8 8-1.6 22.4 10.8 20.4 23.1-4.6 42.7 17.1 35.2 39.7zM429.4 314.2c34.6-7.7 71.7 7.4 90.3 39.8 23.7 41.1 9.1 116.1-48 158l6.8 8.5c70.9-54.9 98.9-148.9 70.9-233l24.5-5.2c11.8 42.7 9.7 87.4-4.5 128 33.2 9.8 58.3 41.9 53.3 83.5-3.4 19.7-25.3 29.6-42.2 19.8l-12.5-7c-7.6-4.2-16.8 1.1-16.9 9.8l-1.4 44.1c-.2 32.8-39.8 49.3-63.1 26.1l-7.9-8.2c-10.3-10.3-27.8-6.2-32.6 7.8-8.1 25-26 45.9-36.6 52-16.2 9.4-37.1 1.6-43.2-16.4l-3.7-12.9c-2.6-7.6-10-11.2-17-9.6-19.5 4.6-39.6 3.9-58.3-1.8-24.5-6.4-29.6-39.9-7.1-52.9 6-3.5 22.3-7.3 26.6-9.8 8.1-4.7 8.5-16 1.5-21.2-6.6-5.1-11.8-6.7-16.1-13.9-8.8-15.2.6-34.5 18.1-37.1 32.9-2.7 34.9-1.2 39.8-4.1 9.8-5.6 9-19.7-.7-24.7-22.2-10.8-23.8-42.6-1.9-55.2 17.9-10.3 32 1.1 52.6 5.6 10.9 2.9 20.2-9.8 12.2-19.6-15.3-17.8-6.3-45.6 17.1-50.4zM246.7 259c-24-26.1-29.4-65.8-10.7-98.1 23.7-41.1 96-66 160.8-37.4l3.9-10.1c-83-33.9-178.4-11.2-237.3 55.1l-16.7-18.6c31.1-31.6 70.8-52.1 113.1-60.1-8.1-33.7 7.2-71.5 45.7-87.9C324.3-5 343.8 9 343.7 28.6l.2 14.3c.1 8.7 9.3 14 16.9 9.8l38.9-20.8c28.5-16.3 62.6 9.8 54.1 41.6l-3.1 10.9c-3.8 14.1 8.5 27.2 23.1 24.4 25.6-5.5 52.8-.4 63.4 5.7 16.2 9.4 19.9 31.4 7.4 45.6l-9.3 9.7c-5.3 6-4.7 14.3.2 19.5 13.8 14.5 23.1 32.3 27.6 51.4 6.7 24.5-19.8 45.6-42.3 32.6-6-3.5-17.5-15.7-21.8-18.1-8.1-4.7-18.1.7-19.1 9.4-1.1 8.3.2 13.6-4 20.9-8.8 15.2-30.2 16.7-41.2 2.9-18.8-27.2-18.5-29.6-23.5-32.4-9.8-5.6-21.6 2.1-21.1 13 1.7 24.6-25 41.9-46.9 29.3-17.9-10.3-15.1-28.3-21.4-48.4-2.9-10.9-18.6-12.6-23-.8-7.7 21.6-36.3 27.7-52.1 9.9z"></path></svg>