<svg data-name="Layer 1" xmlns="http://www.w3.org/2000/svg" viewBox="0 0 628.82 628.82"><path d="m437.08 437.01-61.67-67.06c-31.75-34.54-90.25-34.54-122 0l-61.67 67.07c-34.09 37.09-81.76 59.01-131.88 61.43 57.13 78.87 149.72 130.37 254.54 130.37s197.41-51.5 254.54-130.37c-50.14-2.43-97.79-24.34-131.87-61.44Z"></path><path d="M517.08 386.5 408.82 235.87c-22.12-30.78-56.52-48.43-94.41-48.43s-72.3 17.65-94.42 48.43L111.73 386.52c-18.49 25.73-48.46 41.1-80.16 41.1H21.34c.72 1.87 1.31 3.8 2.07 5.65h27.3c35.13 0 68.91-14.84 92.68-40.69l61.67-67.07c28.05-30.51 67.91-48.01 109.36-48.01s81.3 17.5 109.36 48.01l61.67 67.07c23.76 25.87 57.55 40.69 92.68 40.69h27.29c.76-1.85 1.35-3.78 2.07-5.65h-10.23c-31.7 0-61.68-15.37-80.17-41.11Z"></path><path d="M314.41 0C140.77 0 0 140.77 0 314.41c0 16.2 1.61 31.99 3.97 47.53h27.61c10.61 0 20.63-5.15 26.82-13.76l108.26-150.66c34.6-48.15 88.46-75.76 147.76-75.76s113.14 27.62 147.75 75.76l108.26 150.64c6.19 8.62 16.22 13.77 26.83 13.77h27.6c2.36-15.54 3.97-31.33 3.97-47.53C628.82 140.77 488.05 0 314.41 0Z"></path></svg>