<svg data-name="Layer 1" xmlns="http://www.w3.org/2000/svg" viewBox="0 0 511.71 610.96"><path d="M498.48 281.44h-79.42c13.12-13.08 79.91-79.69 80.71-80.72 2.36-3.04 3.61-6.66 3.61-10.49V57.91c0-9.43-7.67-17.11-17.11-17.11H417.9c-7.49 0-14.53 2.92-19.83 8.21l-59.75 59.75h-47.06l92.69-92.68c2.75-2.75 3.53-6.68 2.04-10.27-1.49-3.59-4.82-5.82-8.7-5.82H142.63c-5.7 0-11.23 2.05-15.58 5.79-.88.76-104.84 104.82-116.69 116.68C3.68 129.14 0 138.02 0 147.46v242.9c0 14.03 11.41 25.44 25.44 25.44h13.74L7.72 447.26C2.74 452.24 0 458.85 0 465.89v128.23c0 9.27 7.54 16.81 16.81 16.81H136.9c10.61 0 20.59-4.13 28.1-11.64l26.37-26.37v8.32c0 16.37 13.32 29.69 29.69 29.69l181.92-.24c9.65-.01 18.72-3.78 25.54-10.6l78.17-78.18c3.19-2.53 5.02-6.31 5.02-10.36V294.64c0-7.29-5.93-13.23-13.23-13.23ZM206.21 542.66c0 7.97-6.49 14.46-14.46 14.46H74.2c-7.97 0-14.46-6.49-14.46-14.46V407.88c0-5.72 2.23-11.09 6.27-15.14l69.73-69.73c4.04-4.04 9.42-6.27 15.14-6.27h40.88c7.97 0 14.46 6.49 14.46 14.46v211.45Zm-73.49-279.08c-1.27 1.27-2.93 1.97-4.66 1.97-.88 0-1.75-.18-2.59-.52-2.53-1.05-4.11-3.41-4.11-6.15V23.93c0-11.74 9.55-21.28 21.28-21.28H377.3c2.79 0 5.19 1.6 6.26 4.18 1.07 2.58.51 5.41-1.47 7.38L132.72 263.58Zm123.37-63.01c-1.05-2.53-.5-5.31 1.44-7.25L399.96 50.89c4.8-4.8 11.17-7.44 17.95-7.44h68.37c7.97 0 14.46 6.48 14.46 14.46v132.31c0 7.97-6.49 14.46-14.46 14.46H262.23c-2.74 0-5.1-1.57-6.15-4.11Zm252.98 311c0 5.83-4.75 10.58-10.58 10.58H285.37c-5.83 0-10.58-4.75-10.58-10.58V294.66c0-5.83 4.75-10.58 10.58-10.58h213.12c5.83 0 10.58 4.74 10.58 10.58v216.91Z"></path></svg>