<svg data-name="Layer 1" xmlns="http://www.w3.org/2000/svg" viewBox="0 0 623.79 623.79"><path d="M311.89 0C139.64 0 0 139.64 0 311.89s139.64 311.89 311.89 311.89 311.89-139.64 311.89-311.89S484.15 0 311.89 0Zm-90.84 462.7v24.84h-24.84l-17.56 17.56-17.56-17.56h-24.84V462.7l-17.56-17.56 17.56-17.56v-24.84h24.84l17.56-17.56 17.56 17.56h24.84v24.84l17.56 17.56-17.56 17.56Zm133.24-133.24v24.84h-24.84l-17.56 17.56-17.56-17.56h-24.84v-24.84l-17.56-17.56 17.56-17.56V269.5h24.84l17.56-17.56 17.56 17.56h24.84v24.84l17.56 17.56-17.56 17.56Zm133.24-133.24v24.84h-24.84l-17.56 17.56-17.56-17.56h-24.84v-24.84l-17.56-17.56 17.56-17.56v-24.84h24.84l17.56-17.56 17.56 17.56h24.84v24.84l17.56 17.56-17.56 17.56Z"></path></svg>