<svg data-name="Layer 1" xmlns="http://www.w3.org/2000/svg" viewBox="0 0 611.23 578.66"><path d="M492.65 190.65c-59.56 0-108.72 43.96-117.16 101.17-27.55-8.54-50.15-28.5-61.99-55.05 61.8-4.08 110.69-55.35 110.69-118.18S371.1 0 305.61 0 187.03 53.09 187.03 118.58s48.9 114.1 110.69 118.18c-11.83 26.55-34.44 46.51-61.99 55.05-8.44-57.21-57.6-101.17-117.16-101.17C53.09 190.65 0 243.74 0 309.23s53.09 118.58 118.58 118.58 116.49-51.18 118.4-115.01c27.85 18.4 45.42 49.92 45.42 84.14 0 55.63-45.26 100.89-100.89 100.89-18.54 0-36.77-5.18-52.71-14.99l-6.98-4.3 25.22 100.11 3.4-1.12c50.18-16.54 102.68-24.81 155.18-24.81s104.99 8.27 155.18 24.81l3.4 1.12 25.22-100.11-6.98 4.3c-15.95 9.81-34.17 14.99-52.71 14.99-55.63 0-100.89-45.26-100.89-100.89 0-34.22 17.58-65.74 45.42-84.14 1.91 63.82 54.12 115.01 118.4 115.01s118.58-53.09 118.58-118.58-53.09-118.58-118.58-118.58Z"></path></svg>