<svg xmlns="http://www.w3.org/2000/svg" width="622.5" viewBox="0 0 622.5 414.8" height="414.8" xml:space="preserve"><path d="M414.9 81.5c8.3 0 16.6-.2 24.8.8 64.3 8.5 111.7 76.2 100.4 140.2-.3 1.7-.6 3.3-.9 4.9C525.4 291.6 476 322.1 447 331c-13 4-29.7 5.6-43 5.6H250c-21.1 0-16-18.5-13.2-26.7.7-2.2 7.6-23.1 7.6-23.1 5.4-16-4.9-29.6-21.8-29.6H4l10-7 79.8-62.7h218.7c8.7 0 16.4-.2 21.7 7.9 2.6 4 4.2 9.5 1.8 16.6 0 0-8.8 26.4-9.7 29.3-3 8.5-6.4 25.4 13.6 25.4h68.9c6.5 0 12.1-.2 18.3-2.1 13.3-4.1 37.4-15.9 44-48.1.2-.8.3-1.5.4-2.3 5.6-31.8-20.3-65.6-53.6-64.7H220.5l25.9-68.1 168.5.1z"></path><path d="m278 0 149 .1C540.6 0 621.5 105.7 622.5 200.3c.5 51.8-17.7 106.8-53.5 144.9-23.2 24.7-51.2 44.7-83.4 56-25.5 9-51.8 13.6-78.8 13.6H156.2c-33.1 0-21.7-30-21.7-30l9.5-26.1c2.4-7.1 2.9-12.9-.1-16.6-5.3-6.3-14.6-6.2-23.3-6.2l-81.8-.1L0 266.4h209.4c13.8 0 29.4 1.4 23.4 19.4 0 0-8.1 24.4-8.1 24.5-8.3 24.9-1 34.5 19.5 36h167.5c26.5 0 52.6-6.6 74.5-21.5 19-13 35.9-29.7 47.7-49.7 8.5-14.4 14.1-30.9 17.5-47.3.4-1.7.7-5.2 1-7 11.6-65.5-43.3-150-125.5-150H250.2L278 0z"></path></svg>