<svg xmlns="http://www.w3.org/2000/svg" id="a" width="642" viewBox="0 0 642 532.36" height="532.36" data-name="Layer 1"><defs></defs><path d="M642 13.35v6.42H509.62c-22.41 0-44.12 3.27-64.6 9.32-9.27 2.74-18.88 4.09-28.54 4.09H0V0h416.49c9.64 0 19.23 1.35 28.47 4.07 20.5 6.05 42.22 9.28 64.66 9.28H642ZM642 63.25v6.42h-86.95c-22.41 0-44.12 3.27-64.6 9.32-9.27 2.74-18.88 4.09-28.54 4.09H0V49.89h461.92c9.64 0 19.23 1.35 28.47 4.07 20.5 6.05 42.22 9.28 64.66 9.28H642ZM642 362.75v6.42H499.04c-22.41 0-44.12 3.27-64.6 9.32-9.27 2.74-18.88 4.09-28.54 4.09H0v-33.19h405.92c9.64 0 19.23 1.35 28.47 4.07 20.5 6.05 42.22 9.28 64.66 9.28h142.96ZM642 412.66v6.42H330.49c-22.41 0-44.12 3.27-64.6 9.32-9.27 2.74-18.88 4.09-28.54 4.09H0V399.3h237.37c9.64 0 19.23 1.35 28.47 4.07 20.5 6.05 42.22 9.28 64.66 9.28h311.51ZM642 462.58V469H330.49c-22.41 0-44.12 3.27-64.6 9.32-9.27 2.74-18.88 4.09-28.54 4.09H0v-33.19h237.37c9.64 0 19.23 1.35 28.47 4.07 20.5 6.05 42.22 9.28 64.66 9.28h311.51ZM642 512.53v6.42H330.49c-22.41 0-44.12 3.27-64.6 9.32-9.27 2.74-18.88 4.09-28.54 4.09H0v-33.19h237.37c9.64 0 19.23 1.35 28.47 4.07 20.5 6.05 42.22 9.28 64.66 9.28h311.51ZM642 312.83v6.42h-49.64c-22.41 0-44.12 3.27-64.6 9.32-9.27 2.74-18.88 4.09-28.54 4.09H0v-33.19h499.23c9.64 0 19.23 1.35 28.47 4.07 20.5 6.05 42.22 9.28 64.66 9.28H642ZM642 113.17v6.42h-38.77c-22.41 0-44.12 3.27-64.6 9.32-9.27 2.74-18.88 4.09-28.54 4.09H0V99.81h510.1c9.64 0 19.23 1.35 28.47 4.07 20.5 6.05 42.22 9.28 64.66 9.28H642ZM642 262.92v6.42h-21.15c-22.41 0-44.12 3.27-64.6 9.32-9.27 2.74-18.88 4.09-28.54 4.09H0v-33.19h527.73c9.64 0 19.23 1.35 28.47 4.07 20.5 6.05 42.22 9.28 64.66 9.28h21.15ZM0 199.66h218.28v33.19H0zM642 213.02v6.42c-22.41 0-44.17 3.27-64.65 9.31-9.31 2.76-18.87 4.11-28.57 4.11H317.34c8.92-8.73 15.02-20.29 16.88-33.19h214.56c9.63 0 19.26 1.35 28.5 4.04 20.48 6.03 42.24 9.31 64.71 9.31ZM0 149.71h218.28v33.19H0zM642 163.07v6.42c-22.41 0-44.23 3.27-64.78 9.31-9.24 2.76-18.87 4.11-28.5 4.11H334.23c-1.86-12.9-7.96-24.46-16.88-33.19h231.38c9.63 0 19.26 1.35 28.5 4.11 20.48 6.03 42.37 9.24 64.78 9.24Z" class="b"></path></svg>