<svg data-name="Layer 1" xmlns="http://www.w3.org/2000/svg" viewBox="0 0 624.46 624.46"><path d="m312.22 406.5-97.14 97.14-179.7-180.37c-47.18 47.18-47.18 123.67 0 170.85l94.28 94.94c47.18 47.18 123.67 47.18 170.85 0l97.14-97.14-85.42-85.42Z"></path><path d="m491.93 226.81-85.42 85.42-94.27-94.27 97.14-97.14 179.7 180.37c47.18-47.18 47.18-123.67 0-170.85L494.8 35.4c-47.18-47.18-123.67-47.18-170.85 0l-97.14 97.14 85.42 85.42-94.27 94.27-97.14-97.14L301.19 35.38c-47.18-47.18-123.67-47.18-170.85 0L35.4 129.66c-47.18 47.18-47.18 123.67 0 170.85l97.14 97.14 85.42-85.42 94.28 94.28 94.27-94.27 97.14 97.14-180.37 179.7c47.18 47.18 123.67 47.18 170.85 0l94.94-94.28c47.18-47.18 47.18-123.67 0-170.85l-97.14-97.14Z"></path></svg>