<svg xmlns="http://www.w3.org/2000/svg" width="292.6" viewBox="0 0 292.6 610.2" height="610.2" xml:space="preserve" style="enable-background:new 0 0 292.6 610.2"><path d="M292.6 0 152.3 106.7v185.7l52.4 33.9h-52.4v20.6h52.4l-52.4 33.8v41.4l78.1-35.2v20.2l-78.1 35.1v30.3l78.1-35.1v20.1l-78.1 35.2v24.7l78.1-35.2v20.2l-78.1 35.1v50.3l27.7 22.4v-46.4l112.6-57.3zM0 0l140.3 106.7v185.7l-52.4 33.9h52.4v20.6H87.9l52.4 33.8v41.4l-78.1-35.2v20.2l78.1 35.1v30.3l-78.1-35.1v20.1l78.1 35.2v24.7l-78.1-35.2v20.2l78.1 35.1v50.3l-27.7 22.4v-46.4L0 506.5z"></path></svg>