<svg data-name="Layer 1" xmlns="http://www.w3.org/2000/svg" viewBox="0 0 448.69 617.29"><circle cx="93.77" cy="92.73" r="59"></circle><circle cx="224.35" cy="92.73" r="59"></circle><circle cx="354.92" cy="92.73" r="59"></circle><circle cx="93.77" cy="221.2" r="59"></circle><circle cx="354.92" cy="221.2" r="59"></circle><circle cx="93.77" cy="349.66" r="59"></circle><circle cx="224.35" cy="349.66" r="59"></circle><circle cx="354.92" cy="349.66" r="59"></circle><path d="M357.17.78 91.54 0C41.07 0 0 41.07 0 91.54v258.54c0 50.48 41.07 91.55 91.52 91.55l124.13.36v89.58c-15.97-37.09-52.75-63.1-95.69-63.1-17.62 0-34.2 4.41-48.75 12.13 9.52 47.76 51.66 83.77 102.22 83.77 15.04 0 29.31-3.24 42.23-8.98v61.92l17.38-12.84V442.05l124.09.36h.02c50.48 0 91.54-41.07 91.54-91.54V92.32c0-50.48-41.07-91.54-91.52-91.54Zm74.13 350.08c0 40.89-33.27 74.16-74.16 74.16l-265.61-.77c-40.89 0-74.16-33.27-74.16-74.16V91.54c0-40.89 33.27-74.16 74.13-74.16l265.63.78c40.89 0 74.16 33.27 74.16 74.16v258.53Z"></path></svg>