<svg xmlns="http://www.w3.org/2000/svg" width="616.8" viewBox="0 0 616.8 598" height="598" xml:space="preserve"><path d="M421 326.5c-46.4-.5-87.5 21.9-112.6 56.4-25.1-34.6-66.3-56.9-112.6-56.4-74 .8-134.4 60.5-135.5 133.8C59.3 536.2 121 598 197.2 598c31.8 0 61-10.7 84.3-28.7 15.7-12.2 38-12.2 53.8 0 23.2 18 52.5 28.7 84.3 28.7 76.3 0 138-61.8 136.9-137.7-1.1-73.3-61.6-133-135.5-133.8z"></path><path d="M481 126.2c-30.4 0-58.4 10-81 26.8-13.6 10.1-26.5 24-36.9 37.7-54.5 71.9-49.7 171.1-49.7 171.1 13.7-14.9 30.3-26.6 48.6-34.6 54.5-24 119.3-11.7 161.4 30.3 7.7 7.7 14.4 16 20.1 25 43.5-22.6 73.3-68.1 73.3-120.5 0-75.1-60.8-135.8-135.8-135.8zM93.4 357.5c42.1-42 106.9-54.3 161.4-30.3 18.3 8 34.9 19.8 48.6 34.6 0 0 4.8-99.2-49.7-171.1-10.4-13.8-23.4-27.6-36.9-37.7-22.6-16.9-50.7-26.8-81-26.8C60.8 126.2 0 186.9 0 261.9c0 52.4 29.7 97.9 73.3 120.5 5.7-8.9 12.4-17.3 20.1-24.9z"></path><path d="M261.7 184.1c20.8 27.4 33.3 58.4 40.8 86.8V154.4c-5.7-2.3-9.8-7.9-9.8-14.4 0-8.6 7-15.6 15.6-15.6s15.6 7 15.6 15.6c0 6.5-4 12.1-9.8 14.4v116.5c7.5-28.3 20-59.3 40.8-86.8 8.5-11.2 22.2-27.2 38.9-39.7 14.9-11.1 31.5-19.1 49.1-23.8C435.6 52.7 378.2 0 308.4 0S181.2 52.7 173.7 120.5c17.6 4.7 34.2 12.7 49.1 23.8 16.8 12.5 30.4 28.6 38.9 39.8z"></path></svg>