<svg xmlns="http://www.w3.org/2000/svg" width="494.2" viewBox="0 0 494.2 614.9" height="614.9" xml:space="preserve" style="enable-background:new 0 0 494.2 614.9"><path d="M245.6 0c61.9 0 112.1 50.2 112.1 112.1 0 61.9-50.2 112.1-112.1 112.1-61.9 0-112.1-50.2-112.1-112.1C133.6 50.2 183.8 0 245.6 0M0 384c0-30 24.3-54.4 54.4-54.4 30 0 54.3 24.4 54.3 54.4s-24.3 54.4-54.3 54.4C24.3 438.4 0 414 0 384"></path><path d="M245.6 614.9 54.4 557.5V453.7c39.1 0 70.7-29.3 70.7-68.3s-31.7-70.9-70.7-70.9c-2.8-41 0-95.8 0-95.8l191.3 60.1 194.1-60.1.6 95.5c-39.1 0-72.1 29.2-72.1 68.2s32 71 71.1 71c0 43.7.4 104.1.4 104.1l-194.2 57.4z"></path><path d="M439.9 438.4c-30 0-54.3-24.3-54.3-54.3 0-30.1 24.3-54.4 54.3-54.4 30 0 54.4 24.3 54.4 54.4-.1 30-24.4 54.3-54.4 54.3"></path></svg>