<svg xmlns="http://www.w3.org/2000/svg" width="518.8" viewBox="0 0 518.8 583.5" height="583.5"><path d="M472.8 283.3h39.8l-2.7-3h-39.6c.9.9 1.7 1.9 2.5 3M478.3 290.3c.4.5.4 2.5 0 3h40.5v-3h-40.5zM470.4 303.4h39.4l2.7-3h-39.7l-2.4 3M296.2 370.7c43.6 0 78.9-35.3 78.9-78.9 0-43.6-35.3-78.9-78.9-78.9-43.6 0-78.9 35.3-78.9 78.9-.1 43.5 35.3 78.9 78.9 78.9M343.2 202.8h97.7l-2.7-3H331.8c3.9 1 7.8 2 11.4 3M260.5 11.8h10.1L268 8.7h-7.5zM260.5 21.8h19.1l-2.7-3h-16.4zM260.5 31.9h28.1l-2.7-3h-25.4zM260.5 41.9h37l-2.7-3h-34.3zM260.5 52h46l-2.7-3h-43.3zM260.5 62h54.9l-2.6-3h-52.3zM260.5 72.1h63.9l-2.7-3h-61.2zM260.5 82.1h72.9l-2.7-3h-70.2zM260.5 92.2h81.8l-2.6-3h-79.2zM260.5 102.3h90.8l-2.7-3.1h-88.1zM260.5 112.3h99.8l-2.7-3h-97.1zM260.5 122.4h108.7l-2.7-3h-106zM260.5 132.4h117.7l-2.7-3h-115zM260.5 142.5h126.7l-2.7-3h-124zM260.5 152.5h135.6l-2.7-3H260.5zM260.5 162.6h144.6l-2.7-3H260.5zM260.5 172.6H414l-2.6-3H260.5zM260.5 182.7H423l-2.7-3H260.5zM260.5 192.8H432l-2.7-3.1H260.5zM375 212.9h74.9l-2.7-3h-80.9c2.9.9 5.9 1.9 8.7 3M398.1 222.9h60.8l-2.7-3h-64.3c2 1 4.1 2 6.2 3M415.9 233h51.9l-2.7-3H411c1.7.9 3.3 2 4.9 3M430.8 243h46l-2.7-3h-47.5l4.2 3M443.5 253.1h42.2l-2.7-3h-43.3c1.4 1 2.6 2 3.8 3M454.5 263.1h40.2l-2.7-3h-40.7c1.1 1 2.2 2 3.2 3M464.2 273.2h39.5l-2.7-3h-39.6c1 1 1.9 2 2.8 3M461.4 313.4h39.4l2.7-3h-39.3c-.9 1-1.8 2-2.8 3M451.3 323.5h40.6l2.7-3h-40.1c-1 1-2.1 2-3.2 3M439.8 333.5h43.1l2.7-3h-42.1c-1.2 1.1-2.5 2-3.7 3M426.6 343.6H474l2.7-3h-45.9l-4.2 3M411.1 353.6H465l2.7-3h-51.8c-1.6 1-3.2 2.1-4.8 3M366.3 373.7h80.8l2.7-3H375c-2.8 1.1-5.8 2.1-8.7 3M330.2 383.8h108l2.7-3H343c-4.2 1.1-8.5 2.1-12.8 3M258.4 393.9h170.8l2.6-3H258.4zM258.4 403.9h161.8l2.7-3H258.4zM258.4 414h152.8l2.7-3H258.4zM258.4 424h143.9l2.7-3H258.4zM258.4 434.1h134.9l2.7-3H258.4zM258.4 444.1h125.9l2.7-3H258.4zM258.4 454.2h117l2.7-3H258.4zM258.4 464.2h108l2.7-3H258.4zM258.4 474.3h99.1l2.6-3H258.4zM258.4 484.4h90.1l2.7-3h-92.8zM258.4 494.4h81.1l2.7-3h-83.8zM258.4 504.5h72.2l2.6-3h-74.8zM258.4 514.5h63.2l2.7-3h-65.9zM258.4 524.6h54.2l2.7-3h-56.9zM258.4 534.6h45.3l2.7-3h-48zM258.4 544.7h36.3l2.7-3h-39zM258.4 554.7h27.4l2.6-3h-30zM258.4 564.8h18.4l2.7-3h-21.1zM258.4 574.9h9.4l2.7-3h-12.1zM226.1 209.9H83v3h134.4c2.8-1.1 5.8-2.1 8.7-3M83 222.9h111.3c2.1-1 4.1-2 6.2-3H83v3zM83 233h93.5c1.6-1 3.2-2 4.9-3H83v3zM83 243h78.6l4.2-3H83v3zM83 253.1h65.9c1.2-1 2.5-2 3.7-3H83v3zM83 263.1h54.9c1.1-1 2.1-2 3.2-3H83v3zM83 273.2h45.2c.9-1 1.8-2 2.8-3H83v3zM83 283.3h36.6c.8-1 1.6-2 2.5-3H83v3zM83 293.3h31.1c-.4-.5-.4-2.5 0-3H83v3zM83 303.4h39c-.8-1-1.6-2-2.5-3H83v3zM83 313.4h48c-.9-1-1.9-2-2.8-3H83v3zM83 323.5h58.1c-1.1-1-2.2-2-3.2-3H83v3zM83 333.5h69.6c-1.2-1-2.5-2-3.7-3H83v3zM83 343.6h82.8l-4.2-3H83v3zM83 353.6h98.3c-1.6-1-3.2-2-4.9-3H83v3zM83 363.7h117.6c-2.1-1-4.2-2-6.2-3H83v3zM83 373.7h143.1c-2.9-1-5.8-1.9-8.7-3H83v3zM393.9 362.7c-.7.3-1.4.7-2.1 1H456l2.7-3H398c-1.3.7-2.7 1.3-4.1 2"></path><path d="M259.4 383.8c-3.9-.9-7.8-1.9-11.6-3H83v2L1.8 291.7 83 200.6v2.2h166.3c4.2-1.1 8.5-2.1 12.9-3H83.7L261 .9l-1-.9L.4 291.3l-.4.4 260 291.7 1-.9L83.8 383.8h175.6z"></path></svg>