<svg data-name="Layer 1" xmlns="http://www.w3.org/2000/svg" viewBox="0 0 611.85 612.23"><path d="M611.85 306.12c0-144.28-100.36-265.48-234.91-297.67s0 0-.01 0c-5.45-1.3-10.95-2.45-16.51-3.46-.55-.1-1.09-.2-1.64-.29-4.92-.86-9.88-1.61-14.88-2.23-1.04-.13-2.07-.28-3.11-.4-4.59-.53-9.22-.93-13.87-1.25-1.27-.09-2.53-.22-3.81-.29C317.36.2 311.58 0 305.75 0h-.02c-.29 0-.58.02-.87.02-.23 0-.46-.02-.7-.02C146.94 0 17.1 119.13 0 271.84c.53.02 1.06.02 1.58.04 1.6-14.33 4.2-28.36 7.71-42.02a304.328 304.328 0 0 0-7.71 41.98c5.03.2 10.06.38 15.14.38 109.18 0 207.48-46.37 276.43-120.43 4.15-.34 8.34-.56 12.57-.56 85.4 0 154.87 69.48 154.87 154.88s-69.47 154.87-154.87 154.87c-4.24 0-8.42-.22-12.57-.56C224.2 386.36 125.9 339.99 16.72 339.99c-.26 0-.51.02-.76.02-.28 0-.55-.02-.83-.02-4.55 0-9.05.17-13.56.34 1.6 14.33 4.2 28.36 7.71 42.02.15.6.35 1.19.5 1.79 1.04 3.93 2.12 7.85 3.31 11.71.37 1.2.8 2.37 1.18 3.56 1.04 3.25 2.08 6.5 3.23 9.7.48 1.33 1.03 2.64 1.52 3.96 1.13 3.02 2.25 6.04 3.47 9.01.68 1.65 1.44 3.26 2.14 4.9 1.12 2.6 2.22 5.22 3.41 7.79.88 1.89 1.84 3.72 2.75 5.59 1.11 2.27 2.19 4.56 3.35 6.79 1.08 2.08 2.25 4.1 3.38 6.15 1.08 1.97 2.13 3.96 3.25 5.91 1.35 2.33 2.8 4.61 4.21 6.9.98 1.6 1.92 3.23 2.94 4.81 1.65 2.58 3.39 5.09 5.12 7.61.85 1.24 1.66 2.52 2.53 3.75 1.91 2.71 3.91 5.35 5.91 7.99.75 1 1.47 2.02 2.23 3.01 2.15 2.77 4.38 5.47 6.62 8.17.67.81 1.31 1.65 1.99 2.45 2.4 2.83 4.88 5.58 7.38 8.32.57.63 1.11 1.28 1.69 1.9 2.72 2.93 5.52 5.79 8.35 8.61.39.39.76.8 1.15 1.18 2.99 2.95 6.04 5.82 9.15 8.64.26.24.51.49.78.73 3.26 2.95 6.6 5.82 9.98 8.62.12.1.23.2.35.3 3.51 2.9 7.08 5.71 10.71 8.45 0 0 .01 0 .02.01 51.21 38.61 114.88 61.53 183.82 61.54h.02c5.83 0 11.61-.2 17.36-.52 1.27-.07 2.53-.2 3.81-.29 4.65-.32 9.28-.73 13.87-1.25 1.04-.12 2.07-.26 3.11-.4 5-.62 9.96-1.37 14.88-2.23.55-.1 1.1-.19 1.64-.29 5.56-1.01 11.06-2.15 16.51-3.46h.01c134.55-32.19 234.91-153.39 234.91-297.66ZM111.17 70c-.13.11-.25.22-.38.33.13-.11.25-.22.38-.33Zm-10.33 8.92c-.27.24-.52.5-.79.74.27-.24.52-.5.79-.74Zm-9.92 9.37c-.43.43-.84.88-1.27 1.31.43-.43.84-.88 1.27-1.31ZM13.91 213.95c1.15-3.64 2.33-7.27 3.61-10.86-1.28 3.58-2.46 7.21-3.61 10.86Zm-4.17 14.36c1.06-4.02 2.16-8.02 3.38-11.97-1.21 3.95-2.32 7.95-3.38 11.97ZM81.41 98.1c-.52.56-1.01 1.15-1.53 1.72.52-.57 1.01-1.15 1.53-1.72Zm-9.06 10.21c-.65.77-1.26 1.58-1.91 2.35.65-.78 1.26-1.58 1.91-2.35Zm-8.6 10.61c-.83 1.07-1.61 2.19-2.43 3.27.82-1.08 1.59-2.2 2.43-3.27Zm-8.14 11c-.92 1.3-1.77 2.65-2.67 3.96.9-1.31 1.75-2.66 2.67-3.96Zm-7.65 11.37c-.98 1.53-1.89 3.11-2.85 4.66.96-1.55 1.87-3.13 2.85-4.66Zm-7.15 11.72c-1.09 1.87-2.09 3.79-3.13 5.69 1.05-1.9 2.05-3.82 3.13-5.69Zm-6.63 12.05c-1.14 2.19-2.2 4.44-3.29 6.67 1.09-2.22 2.15-4.47 3.29-6.67Zm-6.11 12.38c-1.17 2.52-2.25 5.1-3.35 7.66 1.11-2.56 2.18-5.14 3.35-7.66Zm-5.55 12.68c-1.22 2.97-2.34 6-3.47 9.01 1.13-3.02 2.25-6.04 3.47-9.01Zm468.35 116c0-97.76-76.19-178-172.3-184.62 6.87-9.12 13.34-18.55 19.37-28.28 103.53 15.59 183.18 105.09 183.18 212.9s-79.65 197.3-183.18 212.9c-6.03-9.73-12.5-19.17-19.37-28.28 96.11-6.61 172.3-86.85 172.3-184.61Zm-124.28 269a373.64 373.64 0 0 0-12.9-28.17c112.55-22.37 197.68-121.81 197.68-240.83S466.24 87.65 353.69 65.28c4.66-9.18 8.98-18.57 12.9-28.17 122.92 27.79 215.03 137.8 215.03 269.01s-92.1 241.21-215.03 269Z"></path><path d="M305.74 430.74c68.72 0 124.63-55.91 124.63-124.63s-55.91-124.63-124.63-124.63v30.25c52.04 0 94.38 42.34 94.38 94.38s-42.34 94.38-94.38 94.38v30.25Z"></path><path d="M305.74 340v30.25c35.36 0 64.13-28.77 64.13-64.13s-28.77-64.13-64.13-64.13v30.25c18.71 0 33.89 15.17 33.89 33.89s-15.17 33.89-33.89 33.89Z"></path></svg>