<svg data-name="Layer 1" xmlns="http://www.w3.org/2000/svg" viewBox="0 0 610.95 610.95"><path d="M550.46 244.99h-98.97L521.48 175c23.58-23.58 23.58-61.95 0-85.54-23.59-23.58-61.95-23.58-85.54 0l-69.98 69.98V60.48C365.96 27.13 338.82 0 305.48 0 272.13 0 245 27.13 245 60.48v98.97l-69.98-69.98c-23.59-23.58-61.95-23.58-85.54 0-23.58 23.58-23.58 61.95 0 85.54L159.47 245H60.49C27.14 245 0 272.13 0 305.48s27.14 60.49 60.49 60.49h98.96l-69.98 69.98c-23.58 23.58-23.58 61.95 0 85.54 11.79 11.79 27.28 17.68 42.77 17.68s30.98-5.89 42.77-17.68l69.98-69.98v98.97c0 33.35 27.13 60.48 60.48 60.49 33.35 0 60.48-27.14 60.48-60.49v-98.97l69.98 69.98c11.79 11.79 27.28 17.68 42.77 17.68s30.98-5.89 42.77-17.68c23.58-23.59 23.58-61.95 0-85.54l-69.98-69.98h98.96c33.35 0 60.49-27.14 60.49-60.49S583.8 245 550.45 245Zm-35.32 11.49c-8.68 6.27-15.64 14.76-20.01 24.66h-31.04c-4.37-9.9-11.33-18.39-20.01-24.66h71.06Zm14.69 61.85h-26.6c-1.12-4.1-1.77-8.4-1.77-12.85s.65-8.75 1.77-12.85h26.6c-2.34 3.74-3.71 8.13-3.71 12.85s1.37 9.12 3.71 12.85Zm-38.45 0h-23.54c.9-4.15 1.41-8.44 1.41-12.85s-.5-8.71-1.41-12.85h23.54c-.9 4.15-1.41 8.44-1.41 12.85s.5 8.71 1.41 12.85Zm-76.04-37.19 17.99-17.99c7.43 4.33 13.61 10.53 17.9 17.99h-35.88Zm6.27 24.34c0 7.09-5.76 12.85-12.85 12.85s-12.85-5.77-12.85-12.85 5.76-12.85 12.85-12.85 12.85 5.77 12.85 12.85Zm-30-17.26c-4.44 4.41-7.2 10.52-7.2 17.26s2.76 12.85 7.2 17.26 30.05 29.95 30.05 29.95c-4.12 1.13-8.43 1.78-12.91 1.78-27.02 0-49-21.98-49-49s21.98-49 49-49c4.47 0 8.79.65 12.91 1.78l-30.06 29.96Zm23.73 41.6h35.88c-4.29 7.45-10.47 13.66-17.89 17.99l-17.98-17.99Zm14.05-11.49c2.34-3.74 3.71-8.13 3.71-12.85s-1.37-9.12-3.71-12.85h26.6c1.12 4.1 1.77 8.4 1.77 12.85s-.65 8.75-1.77 12.85h-26.6Zm5.59-73.34h-26.22c-3.13 0-6.17.31-9.17.77l57.19-57.19c7.03 2.72 14.47 4.12 21.91 4.12 3.21 0 6.41-.31 9.58-.82l-53.29 53.12Zm38.2-89.07-18.8 18.8c-3.69-2.11-7.19-4.69-10.34-7.84-3.13-3.13-5.7-6.61-7.8-10.28l18.77-18.82c1.02 4.38 3.21 8.41 6.47 11.66 3.26 3.27 7.3 5.47 11.69 6.48Zm-7.34-23.69c0-3.43 1.34-6.66 3.77-9.08 2.43-2.43 5.65-3.77 9.09-3.77s6.66 1.34 9.08 3.77c2.43 2.43 3.77 5.65 3.77 9.08s-1.34 6.66-3.77 9.09c-4.86 4.85-13.32 4.85-18.17 0-2.43-2.43-3.77-5.65-3.77-9.09Zm-21.8-34.65c19.1-19.1 50.19-19.1 69.29 0 19.1 19.1 19.1 50.19 0 69.29-12.84 12.84-31.08 17.01-47.47 12.59l30.01-30.01.02-.02c4.6-4.6 7.13-10.71 7.13-17.21s-2.53-12.61-7.13-17.21c-4.6-4.6-10.71-7.13-17.21-7.13s-12.62 2.53-17.21 7.13-30.03 30.03-30.03 30.03c-4.41-16.39-.25-34.63 12.59-47.46Zm-78.11 104.59v-26.23l53.12-53.29c-1.68 10.54-.6 21.43 3.3 31.49l-57.19 57.19c.46-3 .77-6.04.77-9.17ZM305.47 11.49c27.01 0 48.99 21.98 48.99 49 0 18.15-9.95 34-24.65 42.46V60.48c0-13.42-10.92-24.33-24.34-24.34-13.42 0-24.34 10.92-24.34 24.34v42.46c-14.71-8.47-24.65-24.31-24.65-42.46 0-27.02 21.98-49 48.99-49Zm24.34 135.37v-31.04c9.9-4.37 18.38-11.33 24.65-20v71.05c-6.27-8.67-14.76-15.63-24.65-20Zm17.98 30.76-17.98 17.98v-35.88c7.45 4.29 13.66 10.47 17.98 17.9Zm-42.32 37.42c-7.08 0-12.85-5.76-12.85-12.85s5.76-12.85 12.85-12.85c7.08 0 12.85 5.77 12.85 12.85s-5.76 12.85-12.85 12.85Zm0-37.19c-4.72 0-9.11 1.37-12.85 3.71v-26.6c4.1-1.12 8.4-1.77 12.85-1.77s8.75.65 12.85 1.77v26.6c-3.73-2.33-8.13-3.71-12.85-3.71Zm0-36.15c-4.41 0-8.7.5-12.85 1.41v-23.54c4.14.9 8.44 1.4 12.85 1.4s8.7-.5 12.85-1.41v23.54c-4.14-.9-8.44-1.4-12.85-1.41Zm0-32.22c-4.45 0-8.75-.65-12.85-1.77v-26.6c3.73 2.33 8.13 3.71 12.85 3.71 4.72 0 9.11-1.37 12.85-3.71v26.6c-4.1 1.12-8.4 1.77-12.85 1.77Zm0-36.14c-7.08 0-12.85-5.77-12.85-12.85s5.76-12.85 12.85-12.85c7.08 0 12.85 5.76 12.85 12.85s-5.76 12.85-12.85 12.85Zm-48.99 22.47c6.27 8.67 14.76 15.63 24.65 20v31.04c-9.9 4.37-18.38 11.33-24.65 20V95.81Zm24.65 63.91v35.88l-17.98-17.98c4.33-7.43 10.53-13.61 17.98-17.9Zm-22.87 29.55 30.41 30.51v-.03c4.37 4.18 10.28 6.77 16.79 6.77s12.43-2.59 16.8-6.77v.03l30.41-30.51c1.13 4.12 1.78 8.44 1.78 12.91 0 27.02-21.98 49-48.99 49s-48.99-21.98-48.99-49c0-4.48.65-8.79 1.78-12.91Zm-66.39-66.6 53.12 53.29v26.23c0 3.12.31 6.17.77 9.17l-57.19-57.19c3.9-10.06 4.98-20.95 3.3-31.49ZM97.59 97.6c19.1-19.1 50.2-19.1 69.29 0 12.83 12.84 17 31.08 12.59 47.46l-30.03-30.03c-4.6-4.6-10.71-7.13-17.21-7.13s-12.61 2.53-17.21 7.13c-4.6 4.6-7.13 10.71-7.13 17.21s2.53 12.61 7.13 17.21l.02.02 30.01 30.01c-16.39 4.42-34.63.25-47.47-12.59-19.1-19.1-19.1-50.19 0-69.29Zm47.5 34.65c0 3.43-1.34 6.66-3.77 9.09-4.85 4.85-13.31 4.86-18.17 0-2.43-2.43-3.77-5.66-3.77-9.09s1.34-6.66 3.77-9.08c2.43-2.43 5.65-3.77 9.08-3.77s6.66 1.34 9.09 3.76c2.43 2.43 3.77 5.66 3.77 9.09Zm4.36 17.21c3.26-3.26 5.45-7.28 6.47-11.66l18.77 18.82c-2.1 3.67-4.67 7.15-7.8 10.28-3.15 3.15-6.64 5.73-10.34 7.84l-18.8-18.8c4.39-1.01 8.43-3.21 11.69-6.48Zm-26.79 42.43c3.17.51 6.37.82 9.58.82 7.44 0 14.88-1.4 21.91-4.12l57.19 57.19c-3-.46-6.05-.77-9.17-.77h-26.22l-53.29-53.12Zm37.05 89.26c4.29-7.45 10.47-13.66 17.9-17.99l17.99 17.99h-35.88Zm42.46 11.49c7.09 0 12.85 5.77 12.85 12.85s-5.76 12.85-12.85 12.85-12.85-5.77-12.85-12.85 5.76-12.85 12.85-12.85Zm-20.63 0c-2.34 3.74-3.71 8.13-3.71 12.85s1.37 9.12 3.71 12.85h-26.6c-1.12-4.1-1.77-8.4-1.77-12.85s.65-8.75 1.77-12.85h26.6Zm14.05 37.19-17.98 17.99c-7.42-4.33-13.61-10.53-17.89-17.99h35.88Zm23.73-7.08c4.44-4.41 7.2-10.52 7.2-17.26s-2.76-12.85-7.2-17.26-30.06-29.96-30.06-29.96c4.12-1.13 8.43-1.78 12.91-1.78 27.02 0 49 21.98 49 49s-21.98 49-49 49c-4.47 0-8.79-.65-12.91-1.78l30.05-29.96Zm-52.47-66.25c-8.68 6.27-15.64 14.76-20.01 24.66H115.8c-4.37-9.9-11.33-18.39-20.01-24.66h71.06Zm-23.76 61.85h-23.54c.9-4.15 1.41-8.44 1.41-12.85s-.5-8.71-1.41-12.85h23.54c-.9 4.15-1.41 8.44-1.41 12.85s.5 8.71 1.41 12.85ZM81.1 292.64h26.6c1.12 4.1 1.77 8.4 1.77 12.85s-.65 8.75-1.77 12.85H81.1c2.34-3.74 3.71-8.13 3.71-12.85s-1.37-9.12-3.71-12.85Zm-20.63 61.85c-27.02 0-49-21.98-49-49s21.98-49 49-49c18.15 0 34 9.95 42.46 24.66H60.49c-13.42 0-24.34 10.92-24.34 24.34s10.92 24.34 24.34 24.34h42.46c-8.46 14.71-24.31 24.66-42.46 24.66Zm12.85-49c0 7.09-5.76 12.85-12.85 12.85s-12.85-5.77-12.85-12.85 5.76-12.85 12.85-12.85 12.85 5.77 12.85 12.85Zm22.47 49c8.67-6.27 15.63-14.76 20-24.66h31.04c4.37 9.9 11.33 18.39 20 24.66H95.81Zm80.15 11.49h26.22c3.12 0 6.17-.31 9.16-.77l-57.19 57.19c-10.06-3.9-20.95-4.98-31.49-3.3l53.29-53.12Zm-38.16 89.07 18.82-18.77c3.67 2.11 7.15 4.67 10.28 7.8 3.13 3.13 5.69 6.6 7.8 10.27l-18.77 18.82c-1.02-4.38-3.21-8.4-6.47-11.66-3.25-3.26-7.28-5.45-11.66-6.47Zm7.3 23.68c0 3.43-1.34 6.66-3.77 9.09-5.01 5.01-13.16 5-18.17 0-2.43-2.43-3.77-5.66-3.77-9.09s1.34-6.66 3.76-9.09l.02-.02c2.42-2.41 5.64-3.74 9.06-3.74s6.66 1.34 9.09 3.76c2.43 2.43 3.77 5.66 3.77 9.09Zm21.8 34.64c-19.1 19.11-50.2 19.11-69.29 0-19.1-19.1-19.1-50.19 0-69.29 9.55-9.55 22.1-14.33 34.64-14.33 4.32 0 8.62.61 12.82 1.74l-30.03 30.03c-4.6 4.6-7.13 10.71-7.13 17.21s2.53 12.61 7.13 17.21c4.6 4.6 10.71 7.13 17.21 7.13s12.62-2.53 17.21-7.13l30.03-30.03c4.42 16.39.25 34.62-12.59 47.46Zm78.11-104.58v26.23l-53.12 53.28c1.68-10.54.6-21.43-3.3-31.49l57.19-57.19c-.46 3-.77 6.04-.77 9.16Zm60.48 190.69c-27.01 0-48.99-21.98-48.99-49 0-18.15 9.95-33.99 24.65-42.46v42.46c0 13.42 10.92 24.34 24.34 24.34s24.34-10.92 24.34-24.34v-42.46c14.71 8.46 24.65 24.31 24.65 42.46 0 27.02-21.98 49-48.99 49Zm-24.34-135.36v31.04c-9.9 4.37-18.38 11.33-24.65 20v-71.05c6.27 8.67 14.76 15.63 24.65 20Zm-17.98-30.76 17.98-17.98v35.88c-7.45-4.29-13.66-10.47-17.98-17.89Zm42.32-37.42c7.08 0 12.85 5.76 12.85 12.85s-5.76 12.85-12.85 12.85c-7.08 0-12.85-5.76-12.85-12.85s5.76-12.85 12.85-12.85Zm0 37.19c4.72 0 9.11-1.37 12.85-3.71v26.59c-4.1 1.12-8.4 1.77-12.85 1.77s-8.75-.65-12.85-1.77v-26.59c3.73 2.33 8.13 3.71 12.85 3.71Zm0 36.14c4.41 0 8.7-.5 12.85-1.41v23.54c-4.14-.9-8.44-1.4-12.85-1.41-4.41 0-8.7.5-12.85 1.41v-23.54c4.14.9 8.44 1.4 12.85 1.41Zm0 32.22c4.45 0 8.75.65 12.85 1.77v26.59c-3.73-2.33-8.13-3.71-12.85-3.71-4.72 0-9.11 1.37-12.85 3.71v-26.59c4.1-1.12 8.4-1.77 12.85-1.77Zm0 36.14c7.08 0 12.85 5.76 12.85 12.85s-5.76 12.85-12.85 12.85c-7.08 0-12.85-5.76-12.85-12.85s5.76-12.85 12.85-12.85Zm48.99-22.47c-6.27-8.67-14.76-15.63-24.65-20v-31.04c9.9-4.37 18.38-11.33 24.65-20v71.05Zm-24.65-63.91v-35.88l17.98 17.98c-4.33 7.42-10.53 13.61-17.98 17.89Zm22.87-29.54-30.56-30.66v.04c-4.35-4.11-10.2-6.64-16.64-6.64-6.44 0-12.3 2.54-16.65 6.64v-.04l-30.55 30.66c-1.13-4.12-1.79-8.44-1.79-12.92 0-27.02 21.98-49 48.99-49s48.99 21.98 48.99 49c0 4.48-.65 8.8-1.79 12.92Zm66.39 66.6-53.12-53.28V408.8c0-3.12-.31-6.17-.77-9.16l57.19 57.19c-3.9 10.06-4.98 20.95-3.3 31.49Zm-70.2-121.55c-11-11.36-26.37-18.45-43.39-18.45s-32.39 7.1-43.39 18.45l-79.02 79.2c-2.28-3.54-4.95-6.9-8.04-10-3.1-3.1-6.46-5.76-10.01-8.05l80.93-80.7-.12.05c10.41-10.87 16.85-25.57 16.85-41.78 0-18.65-8.5-35.35-21.81-46.45l-75.92-75.92c3.57-2.29 6.96-4.97 10.08-8.09 3.1-3.1 5.77-6.47 8.05-10.01l81.11 81.33-.07-.15c10.83 10.19 25.36 16.48 41.37 16.48 16 0 30.54-6.3 41.37-16.48l-.07.15 81.11-81.33c2.28 3.54 4.95 6.91 8.05 10.01 3.12 3.12 6.51 5.8 10.08 8.09l-75.92 75.92c-13.31 11.1-21.81 27.8-21.81 46.45 0 16.2 6.44 30.91 16.85 41.78l-.12-.05 80.93 80.7c-3.54 2.28-6.91 4.95-10.01 8.05-3.1 3.1-5.76 6.46-8.04 10l-79.02-79.2Zm112.63 94.76c-3.26 3.26-5.46 7.28-6.47 11.66l-18.77-18.82c2.1-3.67 4.67-7.14 7.8-10.27s6.61-5.7 10.28-7.8l18.82 18.77c-4.38 1.02-8.4 3.21-11.66 6.47Zm17.21 4.36c3.42 0 6.64 1.33 9.06 3.74l.02.02c2.43 2.43 3.76 5.65 3.76 9.09s-1.34 6.66-3.77 9.09c-5 5-13.16 5.01-18.17 0-2.43-2.43-3.77-5.66-3.77-9.09s1.34-6.66 3.77-9.09c2.43-2.43 5.65-3.76 9.09-3.76Zm34.64 47.5c-19.1 19.11-50.19 19.11-69.29 0-12.84-12.84-17.01-31.08-12.59-47.46l30.03 30.03c4.6 4.6 10.71 7.13 17.21 7.13s12.61-2.53 17.21-7.13c4.6-4.6 7.13-10.71 7.13-17.21s-2.53-12.61-7.13-17.21l-30.03-30.03c4.19-1.13 8.5-1.74 12.82-1.74 12.55 0 25.09 4.78 34.64 14.33 19.1 19.1 19.1 50.18 0 69.29Zm-25.07-94.28c-10.54-1.68-21.42-.59-31.49 3.3l-57.19-57.19c3 .46 6.04.77 9.16.77h26.22l53.29 53.12Zm-44.19-64.61c8.67-6.27 15.63-14.76 20-24.66h31.04c4.37 9.9 11.33 18.39 20 24.66h-71.05Zm106.37 0c-18.15 0-34-9.95-42.46-24.66h42.46c13.42 0 24.34-10.92 24.34-24.34s-10.92-24.34-24.34-24.34H508c8.46-14.71 24.31-24.66 42.46-24.66 27.02 0 49 21.98 49 49s-21.98 49-49 49Zm-12.85-49c0-7.09 5.76-12.85 12.85-12.85s12.85 5.77 12.85 12.85-5.76 12.85-12.85 12.85-12.85-5.77-12.85-12.85Z"></path></svg>