<svg xmlns="http://www.w3.org/2000/svg" width="595.4" viewBox="0 0 595.4 642" height="642" style="overflow:visible;enable-background:new 0 0 595.4 642" xml:space="preserve"><path d="M438.3 383.6 333.7 428l107.5 84h70v35.3H292.9V512h80.5l-83.6-65.4-90 38.2V512h69v35.3H84.3V512h65.8V383.6H84.3v-35.3h184.5v35.3h-69v69.8l107.9-45.7 56.7-24.1h-71.5v-35.3h218.3v35.3z"></path><path d="M202.4 39.5 0 241.9V642h595.4V241.9L393.1 39.5c-52.7-52.7-138.1-52.7-190.7 0zM40.9 601V294.6h513.6V601H40.9zm5.3-347.4L231.3 68.5c36.7-36.7 96.1-36.7 132.8 0l185.1 185.1h-503z"></path></svg>