<svg xmlns="http://www.w3.org/2000/svg" width="618" viewBox="0 0 618 618" height="618" xml:space="preserve"><path d="m132.6 112.1-87.4 87.4c-60.2 60.2-60.2 158.8 0 219l87.4 87.4c1.1 1.1 3 .3 3-1.2V113.3c0-1.6-1.9-2.3-3-1.2z"></path><ellipse cx="396.9" cy="309.4" rx="221.1" ry="181"></ellipse><path d="M177.9 429.7v121.6l21.6 21.6c60.2 60.2 158.8 60.2 219 0l45.8-45.8c1.9-1.9.2-5-2.4-4.4-20.8 4.3-42.6 6.5-65 6.5-94.3 0-172.1-40-215.9-100.5-.9-1.4-3.1-.7-3.1 1zM396.9 91.5c23.6 0 46.5 2.5 68.2 7.2 2.6.6 4.3-2.6 2.4-4.4l-49.1-49.1c-60.2-60.2-158.8-60.2-219 0l-21.6 21.6v124.1c0 1.7 2.2 2.4 3.2 1 43.9-60.4 121.6-100.4 215.9-100.4z"></path></svg>