<svg xmlns="http://www.w3.org/2000/svg" width="580.1" viewBox="0 0 580.1 625.2" height="625.2" xml:space="preserve" style="enable-background:new 0 0 580.1 625.2"><path d="M312.4 299.7 447.3 66.6 425 53.7 290 286.9 155.1 53.7l-22.3 12.9 134.9 233.1H0v25.8h267.7L132.8 558.6l22.3 12.9L290 338.3l135 233.2 22.3-12.9-134.9-233.1h267.7v-25.8z"></path><circle transform="rotate(-13.286 289.975 76.26)" cx="290" cy="76.3" r="76.3"></circle><circle transform="rotate(-45.001 290.031 548.916)" cx="290" cy="548.9" r="76.3"></circle><path d="M420 194.4c0 42.1 34.1 76.3 76.3 76.3 42.1 0 76.3-34.1 76.3-76.3 0-42.1-34.1-76.3-76.3-76.3-42.1.1-76.3 34.2-76.3 76.3zM84.9 270.7c42.1 0 76.3-34.1 76.3-76.3 0-42.1-34.1-76.3-76.3-76.3-42.1 0-76.3 34.1-76.3 76.3 0 42.2 34.1 76.3 76.3 76.3zM161.1 427.5c0-42.1-34.1-76.3-76.3-76.3-42.1 0-76.3 34.1-76.3 76.3 0 42.1 34.1 76.3 76.3 76.3 42.2 0 76.3-34.2 76.3-76.3zM496.3 351.3c-42.1 0-76.3 34.1-76.3 76.3 0 42.1 34.1 76.3 76.3 76.3 42.1 0 76.3-34.1 76.3-76.3-.1-42.2-34.2-76.3-76.3-76.3z"></path></svg>