<svg xmlns="http://www.w3.org/2000/svg" width="608.1" viewBox="0 0 608.1 594.6" height="594.6"><path d="M332 62.4h41.3l156.8.2-.1-.2h.5L519.6 29H373.1l-51.9-.1zM341.7 92.2l10.8 33.5h20.8l177.3.2v-.2h.5l-10.9-33.5H373.3zM362.1 155.5l11 33.4 198.1.3-.1-.3h.7l-10.9-33.4H373.2zM547.2 207.6l-28.4 20.6 60.8 188.9 28.5-20.7zM465 267.2l60.9 189 28.4-20.7-60.9-188.9zM411.3 306.4l60.9 188.9 28.4-20.7-61-189zM257.9 573.8l28.3 20.8L447 478.8 418.7 458zM365.2 418.6L204.3 534.5l28.3 20.8 160.9-115.9zM328.5 391.5l-17-12.1-160.8 115.8L179 516l161-116zM171 433.1L10.8 316.4 0 349.9l160.2 116.7zM191.6 369.9L31.3 253.1l-10.9 33.5 160.3 116.7zM205.7 326.4l6.2-19.9L51.7 189.8l-10.8 33.5 160.3 116.8zM179.1.1L143.9 0l-62 188.4 35.1.2zM183.4 188.9L245.5.3 210.3.2l-62 188.5zM249.8 189L311.9.5 276.8.4 214.7 189z"></path></svg>