<svg xmlns="http://www.w3.org/2000/svg" width="617.1" viewBox="0 0 617.1 617.1" height="617.1" xml:space="preserve" style="enable-background:new 0 0 617.1 617.1"><path d="M269.4 269.4h78.3v78.3h-78.3zM269.4 359.2h78.3v78.3h-78.3zM269.4 179.6h78.3v78.3h-78.3zM179.6 269.4h78.3v78.3h-78.3zM359.1 269.4h78.3v78.3h-78.3zM359.2 89.8v168.1h81.6L609 89.8zM449 266v81.7h168.1V97.9zM527.3 359.2H359.2v81.6L527.3 609zM269.4 449v168.1h249.8L351.1 449zM168.1 269.4H0v249.8L168.1 351zM257.9 527.3V359.2h-81.7L8.1 527.3zM89.8 257.9h168.1v-81.7L89.8 8.1zM347.7 168.1V0H97.9L266 168.1z"></path></svg>