<svg xmlns="http://www.w3.org/2000/svg" width="357.4" viewBox="0 0 357.4 611.7" height="611.7" xml:space="preserve" style="enable-background:new 0 0 357.4 611.7"><path d="M177.1 611.7C77.7 611.7 0 532.4 0 432V148.1C0 67.8 61.5 0 141 0s144.2 65.3 144.2 145.7v285c0 58.8-47.4 106.6-105.6 106.6-58.2 0-108.3-47.8-108.3-106.6V139.1h53v291.5c0 29.5 26.2 53.5 55.2 53.5 29 0 52.6-24 52.6-53.5v-285c0-51.1-40.9-92.6-91.2-92.6-50.3 0-88 44-88 95.1V432c0 71.2 53.9 126.6 124.1 126.6 70.2 0 127.2-57.9 127.2-129.1V139.1h53v290.4c.2 100.5-80.7 182.2-180.1 182.2z"></path></svg>