<svg data-name="Layer 1" xmlns="http://www.w3.org/2000/svg" viewBox="0 0 599.73 492.71"><path d="M239.89 98.54 299.86 0l59.98 98.54H239.89zM179.92 197.08l59.97-98.54 59.97 98.54H179.92z"></path><path d="m119.94 295.62 59.98-98.54 59.97 98.54H119.94zM59.97 394.17l59.97-98.55 59.98 98.55H59.97z"></path><path d="m0 492.71 59.97-98.54 59.97 98.54H0zM299.86 197.08l59.98-98.54 59.97 98.54H299.86z"></path><path d="m239.89 295.62 59.97-98.54 59.98 98.54H239.89zM179.92 394.17l59.97-98.55 59.97 98.55H179.92z"></path><path d="m119.94 492.71 59.98-98.54 59.97 98.54H119.94zM359.84 295.62l59.97-98.54 59.98 98.54H359.84zM299.86 394.17l59.98-98.55 59.97 98.55H299.86z"></path><path d="m239.89 492.71 59.97-98.54 59.98 98.54H239.89zM419.81 394.17l59.97-98.55 59.96 98.55H419.81z"></path><path d="m359.84 492.71 59.97-98.54 59.97 98.54H359.84zM479.79 492.71l59.97-98.54 59.97 98.54H479.79z"></path></svg>