<svg data-name="Layer 1" xmlns="http://www.w3.org/2000/svg" viewBox="0 0 630.33 492.72"><path d="M69.69 97.71H120c-8.69 15.63-13.68 33.6-13.68 52.75 0 60.08 48.71 108.79 108.79 108.79S323.9 210.54 323.9 150.46 275.19 41.67 215.11 41.67H69.69V0L0 69.69l69.69 69.69V97.71Zm145.42 0c29.14 0 52.75 23.62 52.75 52.75s-23.62 52.75-52.75 52.75-52.75-23.62-52.75-52.75 23.62-52.75 52.75-52.75ZM215.11 275.14H69.69v-41.67L0 303.16l69.69 69.69v-41.67H120c-8.69 15.63-13.68 33.6-13.68 52.75 0 60.09 48.71 108.79 108.79 108.79S323.9 444.01 323.9 383.93s-48.71-108.79-108.79-108.79Zm0 161.54c-29.14 0-52.75-23.62-52.75-52.75s23.62-52.75 52.75-52.75 52.75 23.62 52.75 52.75-23.62 52.75-52.75 52.75ZM376.12 97.71h50.31c-8.69 15.63-13.68 33.6-13.68 52.75 0 60.08 48.71 108.79 108.79 108.79s108.79-48.71 108.79-108.79S581.62 41.67 521.54 41.67H376.12V0l-69.69 69.69 69.69 69.69V97.71Zm145.42 0c29.13 0 52.75 23.62 52.75 52.75s-23.62 52.75-52.75 52.75-52.75-23.62-52.75-52.75 23.62-52.75 52.75-52.75ZM521.54 275.14H376.12v-41.67l-69.69 69.69 69.69 69.69v-41.67h50.31c-8.69 15.63-13.68 33.6-13.68 52.75 0 60.09 48.71 108.79 108.79 108.79s108.79-48.71 108.79-108.79-48.71-108.79-108.79-108.79Zm0 161.54c-29.14 0-52.75-23.62-52.75-52.75s23.62-52.75 52.75-52.75 52.75 23.62 52.75 52.75-23.62 52.75-52.75 52.75Z"></path></svg>