<svg xmlns="http://www.w3.org/2000/svg" width="619" viewBox="0 0 619 619" height="619" xml:space="preserve"><path d="M358.7 128c10.6 20.4 7.3 46.2-9.8 63.4-21.2 21.2-55.6 21.2-76.7 0-18.6-18.6-20.8-47.4-6.8-68.5l-24.7 24.7-78.8-78.8-14.5 14.5 78.8 78.8-24.5 24.5c21.1-14.1 49.9-11.8 68.5 6.8 21.2 21.2 21.2 55.6 0 76.7-21.2 21.2-55.6 21.2-76.7 0-18.6-18.6-20.8-47.4-6.8-68.5L163 225.3l-78.8-78.8L69.7 161l78.8 78.8-25.6 25.6c21.1-14.1 49.9-11.8 68.5 6.8 21.2 21.2 21.2 55.6 0 76.7-17.1 17.1-42.9 20.4-63.4 9.8l19.6 19.6-78.8 78.8 14.5 14.5 78.8-78.8 20.4 20.4c-10.6-20.4-7.3-46.2 9.8-63.4 21.1-21.2 55.6-21.2 76.7 0 21.2 21.2 21.2 55.6 0 76.7-17.1 17.1-42.9 20.4-63.4 9.8l19.6 19.6-78.8 78.8 14.5 14.6 78.8-78.8 20.4 20.4c-10.6-20.4-7.3-46.2 9.8-63.4 21.2-21.2 55.6-21.2 76.7 0 18.6 18.6 20.8 47.4 6.8 68.5l25.6-25.6 78.8 78.8 14.5-14.5-78.6-78.7 23.7-23.7c-21.1 14.1-49.9 11.8-68.5-6.8-21.2-21.2-21.2-55.6 0-76.7 21.2-21.2 55.6-21.2 76.7 0 18.6 18.6 20.8 47.4 6.8 68.5l24.5-24.5 78.8 78.8 14.5-14.5-78.8-78.8 24.7-24.7c-21.1 14.1-49.9 11.8-68.5-6.8-21.2-21.2-21.2-55.6 0-76.7 17.1-17.1 42.9-20.4 63.4-9.8l-20.4-20.4 78.8-78.8-14.5-14.5-78.9 78.7-19.6-19.6c10.6 20.4 7.3 46.2-9.8 63.4-21.2 21.2-55.6 21.2-76.7 0s-21.2-55.6 0-76.7c17.1-17.1 42.9-20.4 63.4-9.8l-20.4-20.4 78.8-78.8-14.5-14.5-78.8 78.8-19.7-19.7zm-10.8 219.9c-21.2 21.2-55.6 21.2-76.7 0-21.2-21.2-21.2-55.6 0-76.7 21.2-21.2 55.6-21.2 76.7 0 21.1 21.1 21.1 55.5 0 76.7z"></path><path d="M514.2 283.5c9 17.4 8 38.6-3 55.1l14.5-14.5 78.8 78.8 14.6-14.5-78.8-78.8 78.8-78.8-14.6-14.5-78.8 78.7-11.5-11.5zM104.8 335.5c-9-17.4-8-38.6 3.1-55.1L93.3 295l-78.8-78.8L0 230.7l78.8 78.8L0 388.3l14.5 14.5L93.3 324l11.5 11.5zM283.4 514.2l11.5 11.5-78.8 78.8 14.5 14.5 78.8-78.8 78.8 78.8 14.5-14.5-78.7-78.8 14.5-14.5c-16.4 10.9-37.7 12-55.1 3zM309.5 78.8 230.7 0l-14.5 14.5L295 93.3l-14.5 14.5c16.5-11 37.7-12 55.1-3L324 93.3l78.8-78.8L388.3 0l-78.8 78.8z"></path></svg>