<svg xmlns="http://www.w3.org/2000/svg" width="620.6" viewBox="0 0 620.6 568.2" height="568.2" xml:space="preserve" style="enable-background:new 0 0 620.6 568.2"><path d="m620.5 526.4-89.6-75.2c-.1-.1-.1-.1-.2 0-.1 0-.1.1-.1.2l3.1 35.8-28.5-24.2c2.7-3.4 5.2-6.9 7.6-10.5 34.7-47.1 55.3-105.2 55.4-168C568.4 127.8 441.1.2 284.5 0 127.8-.2.2 127.1 0 283.7-.2 440.4 127.1 568 283.7 568.2c77.7.1 148.3-31.2 199.7-81.9l77.9 65.1h.1c.1 0 .2-.1.2-.2v-.1l-2-53.6 60.6 29.1c.1.1.2 0 .3-.1.1.1.1-.1 0-.1zM35.4 282.2c.2-136.4 110.9-246.9 247.3-246.7 64.5.1 123.2 24.9 167.1 65.4-39.4-26.5-86.8-41.9-137.7-42-137-.1-248.1 110.7-248.3 247.6-.1 67.8 27.1 129.3 71.2 174.1-60.5-45-99.7-117.2-99.6-198.4zm63.6 23c.1-116.5 94.7-210.9 211.3-210.7 59.2.1 112.7 24.6 151 63.9-34.1-24-75.7-38.1-120.5-38.1-116.3-.1-210.6 94-210.8 210.2-.1 59.1 24.3 112.6 63.5 150.9-57-37.9-94.6-102.7-94.5-176.2zm65.8 23.7c.1-96 78.1-173.8 174.1-173.6 48 .1 91.4 19.6 122.8 51-27-17.1-58.9-27.1-93.3-27.1-96.4-.1-174.6 77.9-174.7 174.3-.1 46.1 17.8 88.1 47 119.3-45.9-31.3-76-84.1-75.9-143.9zm64.1 23.3c.1-76 61.8-137.5 137.8-137.4 39.4.1 74.9 16.6 99.9 43.2-20.6-12.3-44.7-19.3-70.4-19.3-76.4-.1-138.4 61.7-138.5 138.1 0 35.1 13 67.1 34.5 91.5-38.1-24.6-63.3-67.4-63.3-116.1zM454 461.4c-16.6 11.6-36.9 18.3-58.7 18.3-56.9 0-103-46.1-103-103s46.1-103 103-103 103 46.1 103 103c0 23.5-7.9 45.2-21.1 62.5l-28.8-24.4h-.1l-49.9-.1 55.6 46.7z"></path></svg>