<svg data-name="Layer 1" xmlns="http://www.w3.org/2000/svg" viewBox="0 0 627.75 627.75"><path d="M313.88 0C140.8 0 0 140.81 0 313.88s140.8 313.87 313.88 313.87 313.87-140.8 313.87-313.87S486.94 0 313.88 0Zm0 614.46c-165.75 0-300.59-134.84-300.59-300.59S148.13 13.29 313.88 13.29s300.58 134.84 300.58 300.58-134.84 300.59-300.58 300.59Z"></path><path d="m320.52 310.04 123.8 71.54 2.96-5.13V166.16c0-73.37-60.03-133.41-133.41-133.41-69.19 0-126.5 53.4-132.81 121.01h139.45v156.28Z"></path><path d="M307.23 310.04V167.06l-126.77 70.87-61.21 34.22C55.7 308.82 33.7 390.82 70.37 454.38c34.58 59.93 109.47 82.88 171.2 54.55l-69.7-120.78 135.36-78.11Z"></path><path d="m518.94 279.01-69.76 120.72-135.31-78.19-123.84 71.47 124.73 74.37L375 503.29c63.53 36.72 145.54 14.79 182.26-48.74 34.63-59.91 17.07-136.25-38.32-175.55Z"></path></svg>