<svg xmlns="http://www.w3.org/2000/svg" width="589.2" viewBox="0 0 589.2 589.2" height="589.2" xml:space="preserve"><path d="M0 0v589.2h589.2V0H0zm548.1 27.7c7.6 0 13.7 6.1 13.7 13.7s-6.1 13.7-13.7 13.7-13.7-6.1-13.7-13.7 6.2-13.7 13.7-13.7zM41 27.7c7.6 0 13.7 6.1 13.7 13.7C54.7 48.9 48.6 55 41 55s-13.7-6.1-13.7-13.7c0-7.5 6.2-13.6 13.7-13.6zm-10.2 78.7 71-71c5.6-5.6 14.8-5.6 20.4 0 5.6 5.6 5.6 14.8 0 20.4l-71 71c-2.8 2.8-6.5 4.2-10.2 4.2-3.7 0-7.4-1.4-10.2-4.2-5.6-5.6-5.6-14.8 0-20.4zm0 73L172.9 37.3c5.6-5.6 14.8-5.6 20.4 0 5.6 5.6 5.6 14.8 0 20.4L51.2 199.8c-2.8 2.8-6.5 4.2-10.2 4.2-3.7 0-7.4-1.4-10.2-4.2-5.6-5.6-5.6-14.8 0-20.4zm0 73L247.2 36c5.6-5.6 14.8-5.6 20.4 0 5.6 5.6 5.6 14.8 0 20.4L51.2 272.8c-2.8 2.8-6.5 4.2-10.2 4.2-3.7 0-7.4-1.4-10.2-4.2-5.6-5.6-5.6-14.8 0-20.4zm527.5 312.4c-2.8 2.8-6.5 4.2-10.2 4.2s-7.4-1.4-10.2-4.2L294.6 321.4 51.2 564.8c-5.6 5.6-14.8 5.6-20.4 0-5.6-5.6-5.6-14.8 0-20.4l253.5-253.5c5.6-5.6 14.8-5.6 20.4 0l253.5 253.5c5.8 5.6 5.8 14.7.1 20.4zm0-73c-2.8 2.8-6.5 4.2-10.2 4.2s-7.4-1.4-10.2-4.2L294.6 248.4 51.2 491.8c-5.6 5.6-14.8 5.6-20.4 0-5.6-5.6-5.6-14.8 0-20.4l253.5-253.5c5.6-5.6 14.8-5.6 20.4 0l253.5 253.5c5.8 5.6 5.8 14.7.1 20.4zm0-73c-2.8 2.8-6.5 4.2-10.2 4.2s-7.4-1.4-10.2-4.2L294.6 175.5 51.2 418.8c-5.6 5.6-14.8 5.6-20.4 0-5.6-5.6-5.6-14.8 0-20.4l253.5-253.5c5.6-5.6 14.8-5.6 20.4 0l253.5 253.5c5.8 5.6 5.8 14.8.1 20.4zm0-73c-2.8 2.8-6.5 4.2-10.2 4.2s-7.4-1.4-10.2-4.2L294.6 102.5 51.2 345.8c-5.6 5.6-14.8 5.6-20.4 0-5.6-5.6-5.6-14.8 0-20.4L284.4 71.8c5.6-5.6 14.8-5.6 20.4 0l253.5 253.5c5.7 5.7 5.7 14.9 0 20.5zm0-73c-2.8 2.8-6.5 4.2-10.2 4.2s-7.4-1.4-10.2-4.2L321.5 56.4c-5.6-5.6-5.6-14.8 0-20.4 5.6-5.6 14.8-5.6 20.4 0l216.4 216.4c5.7 5.6 5.7 14.8 0 20.4zm0-73c-2.8 2.8-6.5 4.2-10.2 4.2s-7.4-1.4-10.2-4.2L395.8 57.7c-5.6-5.6-5.6-14.8 0-20.4 5.6-5.6 14.8-5.6 20.4 0l142.1 142.1c5.7 5.6 5.7 14.8 0 20.4zm0-73c-2.8 2.8-6.5 4.2-10.2 4.2s-7.4-1.4-10.2-4.2l-71-71c-5.6-5.6-5.6-14.8 0-20.4 5.6-5.6 14.8-5.6 20.4 0l71 71c5.7 5.6 5.7 14.8 0 20.4z"></path></svg>