<svg xmlns="http://www.w3.org/2000/svg" width="625.6" viewBox="0 0 625.6 625.6" height="625.6" style="enable-background:new 0 0 625.6 625.6" xml:space="preserve"><path d="M312.8 625.6c153.3 0 280.8-110.2 307.6-255.7H5.2C32 515.4 159.5 625.6 312.8 625.6zm68.7-57.2c0 9.8-8.1 17.9-17.9 17.9H262c-9.8 0-17.9-8.1-17.9-17.9 0-9.8 8.1-17.9 17.9-17.9h101.5c9.9 0 18 8.1 18 17.9zm17.1-35.8H227c-9.8 0-17.9-8.1-17.9-17.9 0-9.8 8.1-17.9 17.9-17.9h171.7c9.8 0 17.9 8.1 17.9 17.9-.1 9.9-8.1 17.9-18 17.9zm70-71.6c0 9.8-8.1 17.9-17.9 17.9H174.8c-9.8 0-17.9-8.1-17.9-17.9 0-9.8 8.1-17.9 17.9-17.9h275.9c9.9 0 17.9 8.1 17.9 17.9zM88.1 389.5h449.3c9.8 0 17.9 8.1 17.9 17.9 0 9.8-8.1 17.9-17.9 17.9H88.1c-9.8 0-17.9-8.1-17.9-17.9 0-9.9 8.1-17.9 17.9-17.9zM255.7 64.9h110.4c27 119.3 131.4 209.3 257.7 214.3C607.1 122.3 474.2 0 312.8 0S18.6 122.2 1.8 279.1c124.6-6.7 227.2-96 253.9-214.2zM.7 334.1h624.2c.4-6.5.7-13 .7-19.6H0c0 6.6.3 13.1.7 19.6z"></path></svg>