<svg data-name="Layer 1" xmlns="http://www.w3.org/2000/svg" viewBox="0 0 620.16 606.09"><path d="M617.43 318.09h-494.8c-1.12 0-2.02.9-2.02 2.02s.9 2.02 2.02 2.02h494.8c1.12 0 2.02-.9 2.02-2.02s-.9-2.02-2.02-2.02ZM617.43 338.37H85.82c-1.12 0-2.02.9-2.02 2.02s.9 2.02 2.02 2.02h531.61c1.12 0 2.02-.9 2.02-2.02s-.9-2.02-2.02-2.02ZM617.43 358.66H61.74c-1.12 0-2.02.9-2.02 2.02s.9 2.02 2.02 2.02h555.69c1.12 0 2.02-.9 2.02-2.02s-.9-2.02-2.02-2.02ZM617.43 378.94H43.22c-1.12 0-2.02.9-2.02 2.02s.9 2.02 2.02 2.02h574.21c1.12 0 2.02-.9 2.02-2.02s-.9-2.02-2.02-2.02ZM617.43 399.22H31.71c-1.12 0-2.02.9-2.02 2.02s.9 2.02 2.02 2.02h585.72c1.12 0 2.02-.9 2.02-2.02s-.9-2.02-2.02-2.02ZM617.43 419.51H21.85c-1.12 0-2.02.9-2.02 2.02s.9 2.02 2.02 2.02h595.58c1.12 0 2.02-.9 2.02-2.02s-.9-2.02-2.02-2.02ZM617.43 439.78H13.14c-1.12 0-2.02.9-2.02 2.02s.9 2.02 2.02 2.02h604.29c1.12 0 2.02-.9 2.02-2.02s-.9-2.02-2.02-2.02ZM617.43 460.07H6.4c-1.12 0-2.02.9-2.02 2.02s.9 2.02 2.02 2.02h611.03c1.12 0 2.02-.9 2.02-2.02s-.9-2.02-2.02-2.02ZM617.43 480.35H5.39c-1.12 0-2.02.9-2.02 2.02s.9 2.02 2.02 2.02h612.04c1.12 0 2.02-.9 2.02-2.02s-.9-2.02-2.02-2.02ZM617.43 500.63H3.39c-1.12 0-2.02.9-2.02 2.02s.9 2.02 2.02 2.02h614.04c1.12 0 2.02-.9 2.02-2.02s-.9-2.02-2.02-2.02ZM2.04 524.95h615.39c1.12 0 2.02-.9 2.02-2.02s-.9-2.02-2.02-2.02H2.04c-1.12 0-2.02.9-2.02 2.02s.9 2.02 2.02 2.02ZM2.04 545.24h615.39c1.12 0 2.02-.9 2.02-2.02s-.9-2.02-2.02-2.02H2.04c-1.12 0-2.02.9-2.02 2.02s.9 2.02 2.02 2.02ZM2.02 565.52h615.41c1.12 0 2.02-.9 2.02-2.02s-.9-2.02-2.02-2.02H2.02c-1.12 0-2.02.9-2.02 2.02s.9 2.02 2.02 2.02ZM620.16 583.78c0-1.12-.9-2.02-2.02-2.02H2.04c-1.12 0-2.02.9-2.02 2.02s.9 2.02 2.02 2.02h616.1c1.12 0 2.02-.9 2.02-2.02ZM618.14 602.04H7.11c-1.12 0-2.02.9-2.02 2.02s.9 2.02 2.02 2.02h611.03c1.12 0 2.02-.9 2.02-2.02s-.9-2.02-2.02-2.02ZM203.93 301.86l415.53.03V.03L.01 0v97.94c0 112.62 91.3 203.92 203.92 203.92Z"></path></svg>