<svg xmlns="http://www.w3.org/2000/svg" width="381.6" viewBox="0 0 381.6 619.5" height="619.5" xml:space="preserve" style="enable-background:new 0 0 381.6 619.5"><path d="m269.5 129.6-69.6 69.6v109.7l122.3-125.8zM181.7 199.2 112 129.6l-52.6 53.5 122.3 125.8z"></path><path d="m355.3 486.4-81.6-83.6v-35.1l86-90.4-50.9-53.5-108.9 108.8v101.8l107.9 109.7H73.7l107.9-109.7V332.6L72.8 223.8l-50.9 53.5 86 90.4v35.1l-81.6 83.6C10.2 500 0 522.2 0 545c0 41.2 33.4 74.6 74.6 74.6H307c41.2 0 74.6-33.4 74.6-74.6 0-22.8-10.3-45-26.3-58.6z"></path><circle cx="190.8" cy="75" r="75"></circle></svg>