<svg xmlns="http://www.w3.org/2000/svg" width="617.9" viewBox="0 0 617.9 616.1" height="616.1" xml:space="preserve"><path d="M356.8 215.7c-30.6.1-52 23.2-67.8 47.9l-40.5 60.2.2.1c16-23.1 42.2-42.3 71.2-42.4h297.9c-1.9-22.8-6.4-44.8-13-65.9-56 .1-247.1.1-248 .1z"></path><path d="M165.9 403.5c11.2-17.4 140.9-217 140.9-217 15.8-24.6 41.9-47.7 72.6-47.8H568C512.7 55.1 417.6 0 309.5 0 138.6 0 0 137.9 0 308c0 49.5 11.8 96.3 32.6 137.8l58.4.6c13-.4 25.5 0 37.6-5.6 16.5-7.6 27.6-22.3 37.3-37.3zM225.4 402.5 125.3 555.6c51.5 38 115.2 60.5 184.2 60.5 154.6 0 282.7-112.8 305.8-260.2H295.6c-35.7 0-54.4 22-70.2 46.6z"></path></svg>