<svg xmlns="http://www.w3.org/2000/svg" width="627.4" viewBox="0 0 627.4 606.7" height="606.7" xml:space="preserve"><path d="M627.3 351.8c-1.3-38.8-14.9-72.6-43.1-100.2-21.1-20.6-47-32.2-74.5-40.7-43.9-13.7-87-19.9-118.8-56.5-21.9-25.2-33.7-55.1-39.1-87.7-3.3-19.9-3.4-38-3.4-57.4V0h-69.3v9.3c0 19.4-.1 37.5-3.4 57.4-5.5 32.6-17.3 62.5-39.1 87.7-31.8 36.6-74.9 42.9-118.8 56.5-27.5 8.5-53.4 20.1-74.5 40.7C15 279.2 1.4 312.9.1 351.8c-1.5 45.6 17.5 93.2 52.6 122.9 24.8 20.9 54.1 30.6 86 32.6 45.9 2.9 96.6-20.4 119.7-61.3 2.7-4.9 5.1-10 7-15.2.3-.9 3-10.2 3-10.2l-.8 186.2h92.3l-.9-186.3s2.7 9.3 3 10.2c1.9 5.3 4.2 10.4 7 15.2 23 40.8 73.8 64.2 119.7 61.3 31.9-2 61.2-11.7 86-32.6 35.1-29.6 54.1-77.3 52.6-122.8zm-358.1 25.6s-2.6-12.3-10.7-25.9c-4.8-8-10.1-12.6-20.7-12.6H163c1.6 1.1 2.8 2.1 4.8 3.5 8.5 5.8 16.2 12.2 20 22.1 7.1 18.5-1.4 39.9-19.5 49.3-28 14.5-63.7-.2-75.2-29.7-12.4-31.8 2.1-68.8 31.1-86.6 15.2-9.3 32-13.3 48.9-17.6 34.2-8.7 75.3-18.5 96.1-50.7v148.2zm265.2 6.7c-11.5 29.5-47.2 44.2-75.2 29.7-18.1-9.4-26.6-30.8-19.5-49.3 3.8-9.9 11.6-16.2 20-22.1 2-1.4 3.2-2.3 4.8-3.4h-74.8c-10.6 0-15.9 4.5-20.7 12.5-8.1 13.6-10.7 25.9-10.7 25.9V229.1c20.8 32.3 61.8 42 96.1 50.7 16.9 4.3 33.8 8.2 48.9 17.6 29 17.9 43.5 54.8 31.1 86.7z"></path></svg>