<svg data-name="Layer 1" xmlns="http://www.w3.org/2000/svg" viewBox="0 0 458.07 591.01"><path d="M280.97 1.6v253.44c-7.83-11.07-19.39-20.33-33.75-25.53l-67.23-25.47c-11.52-4.36-12.21-20.4-1.11-25.74l83.9-40.32c2.08-1 1.37-4.12-.94-4.12H152.48l-37.76-.02s0-.02.01-.03H2.26c-1.57 0-2.7 1.62-2.09 3.07 6.97 16.44 20.86 29.24 38.02 34.7H17.43c-1.62 0-2.76 1.71-2.03 3.16 7.83 15.73 24.01 27.44 43.61 31.1H30.85c-1.59 0-2.73 1.66-2.05 3.1 8.07 17.15 26.3 29.13 47.56 29.13h5.82c1.65-.02 3.14.96 3.8 2.47l121.93 278.8 73.05-69.04v139.11c0 .88.72 1.6 1.6 1.6h173.9c.88 0 1.6-.72 1.6-1.6V1.6c0-.88-.72-1.6-1.6-1.6h-173.9c-.88 0-1.6.72-1.6 1.6ZM116.45 202.93c-3.1 0-6.04-.64-8.78-1.67 8.4-3.2 14.4-11.27 14.4-20.79 0-11.77-9.15-21.31-20.71-22.14 4.2-3.22 9.39-5.22 15.1-5.22 13.76 0 24.91 11.15 24.91 24.91s-11.15 24.91-24.91 24.91Zm121.71 185.05c-11.44-13.55-7.92-34.13 7.37-43.11l21.29-12.97c5.74-3.42 10.41-7.4 14.14-11.77v117.86l-42.81-50.02Zm73.8-264.67c0 1.55-1.26 2.81-2.81 2.81h-10.32c-1.55 0-2.81-1.26-2.81-2.81v-5.49c0-1.55 1.26-2.81 2.81-2.81h10.32c1.55 0 2.81 1.26 2.81 2.81v5.49Zm0-31.81c0 1.55-1.26 2.81-2.81 2.81h-10.32c-1.55 0-2.81-1.26-2.81-2.81v-5.49c0-1.55 1.26-2.81 2.81-2.81h10.32c1.55 0 2.81 1.26 2.81 2.81v5.49Zm0-31.81c0 1.55-1.26 2.81-2.81 2.81h-10.32c-1.55 0-2.81-1.26-2.81-2.81V54.2c0-1.55 1.26-2.81 2.81-2.81h10.32c1.55 0 2.81 1.26 2.81 2.81v5.49Zm0-31.81c0 1.55-1.26 2.81-2.81 2.81h-10.32c-1.55 0-2.81-1.26-2.81-2.81v-5.49c0-1.55 1.26-2.81 2.81-2.81h10.32c1.55 0 2.81 1.26 2.81 2.81v5.49Zm131.07 540.73c0 1.55-1.26 2.81-2.81 2.81H429.9c-1.55 0-2.81-1.26-2.81-2.81v-5.49c0-1.55 1.26-2.81 2.81-2.81h10.32c1.55 0 2.81 1.26 2.81 2.81v5.49Zm0-31.81c0 1.55-1.26 2.81-2.81 2.81H429.9c-1.55 0-2.81-1.26-2.81-2.81v-5.49c0-1.55 1.26-2.81 2.81-2.81h10.32c1.55 0 2.81 1.26 2.81 2.81v5.49Zm0-31.81c0 1.55-1.26 2.81-2.81 2.81H429.9c-1.55 0-2.81-1.26-2.81-2.81v-5.49c0-1.55 1.26-2.81 2.81-2.81h10.32c1.55 0 2.81 1.26 2.81 2.81v5.49Zm0-31.81c0 1.55-1.26 2.81-2.81 2.81H429.9c-1.55 0-2.81-1.26-2.81-2.81v-5.49c0-1.55 1.26-2.81 2.81-2.81h10.32c1.55 0 2.81 1.26 2.81 2.81v5.49Zm0-31.81c0 1.55-1.26 2.81-2.81 2.81H429.9c-1.55 0-2.81-1.26-2.81-2.81v-5.49c0-1.55 1.26-2.81 2.81-2.81h10.32c1.55 0 2.81 1.26 2.81 2.81v5.49Zm0-31.81c0 1.55-1.26 2.81-2.81 2.81H429.9c-1.55 0-2.81-1.26-2.81-2.81v-5.49c0-1.55 1.26-2.81 2.81-2.81h10.32c1.55 0 2.81 1.26 2.81 2.81v5.49Zm0-31.81c0 1.55-1.26 2.81-2.81 2.81H429.9c-1.55 0-2.81-1.26-2.81-2.81v-5.49c0-1.55 1.26-2.81 2.81-2.81h10.32c1.55 0 2.81 1.26 2.81 2.81v5.49Zm0-31.81c0 1.55-1.26 2.81-2.81 2.81H429.9c-1.55 0-2.81-1.26-2.81-2.81v-5.49c0-1.55 1.26-2.81 2.81-2.81h10.32c1.55 0 2.81 1.26 2.81 2.81v5.49Zm0-31.81c0 1.55-1.26 2.81-2.81 2.81H429.9c-1.55 0-2.81-1.26-2.81-2.81v-5.49c0-1.55 1.26-2.81 2.81-2.81h10.32c1.55 0 2.81 1.26 2.81 2.81v5.49Zm0-31.81c0 1.55-1.26 2.81-2.81 2.81H429.9c-1.55 0-2.81-1.26-2.81-2.81v-5.49c0-1.55 1.26-2.81 2.81-2.81h10.32c1.55 0 2.81 1.26 2.81 2.81v5.49Zm0-31.81c0 1.55-1.26 2.81-2.81 2.81H429.9c-1.55 0-2.81-1.26-2.81-2.81v-5.49c0-1.55 1.26-2.81 2.81-2.81h10.32c1.55 0 2.81 1.26 2.81 2.81v5.49Zm0-31.81c0 1.55-1.26 2.81-2.81 2.81H429.9c-1.55 0-2.81-1.26-2.81-2.81v-5.49c0-1.55 1.26-2.81 2.81-2.81h10.32c1.55 0 2.81 1.26 2.81 2.81v5.49Zm0-31.81c0 1.55-1.26 2.81-2.81 2.81H429.9c-1.55 0-2.81-1.26-2.81-2.81v-5.49c0-1.55 1.26-2.81 2.81-2.81h10.32c1.55 0 2.81 1.26 2.81 2.81v5.49Zm0-31.81c0 1.55-1.26 2.81-2.81 2.81H429.9c-1.55 0-2.81-1.26-2.81-2.81v-5.49c0-1.55 1.26-2.81 2.81-2.81h10.32c1.55 0 2.81 1.26 2.81 2.81v5.49Zm0-31.81c0 1.55-1.26 2.81-2.81 2.81H429.9c-1.55 0-2.81-1.26-2.81-2.81v-5.49c0-1.55 1.26-2.81 2.81-2.81h10.32c1.55 0 2.81 1.26 2.81 2.81v5.49Zm0-31.81c0 1.55-1.26 2.81-2.81 2.81H429.9c-1.55 0-2.81-1.26-2.81-2.81v-5.49c0-1.55 1.26-2.81 2.81-2.81h10.32c1.55 0 2.81 1.26 2.81 2.81v5.49Zm0-31.81c0 1.55-1.26 2.81-2.81 2.81H429.9c-1.55 0-2.81-1.26-2.81-2.81v-5.49c0-1.55 1.26-2.81 2.81-2.81h10.32c1.55 0 2.81 1.26 2.81 2.81v5.49Zm0-31.81c0 1.55-1.26 2.81-2.81 2.81H429.9c-1.55 0-2.81-1.26-2.81-2.81v-5.49c0-1.55 1.26-2.81 2.81-2.81h10.32c1.55 0 2.81 1.26 2.81 2.81v5.49Z"></path></svg>