<svg xmlns="http://www.w3.org/2000/svg" width="552.2" viewBox="0 0 552.2 642" height="642" style="overflow:visible;enable-background:new 0 0 552.2 642" xml:space="preserve"><path d="M172.2 402.1c0 13.7 11.1 24.9 24.9 24.9 13.7 0 24.9-11.1 24.9-24.9v-4c0-13.7-11.1-24.9-24.9-24.9-13.7 0-24.9 11.1-24.9 24.9v4z"></path><path d="M445 415.1c26.8-6.1 51-19.1 70.8-36.8 25.9-23 40.6-58.1 35.4-96.3-6.4-47.4-44.4-85.6-91.7-92.3-18.7-2.6-36.7-.5-52.9 5.3-3.2 1.2-5.8-2.6-3.5-5.1 15.7-17.3 27.5-38.2 34.1-61.3C456.2 65.2 408.4 0 340.9 0c-13.4 0-26.3 2.6-38 7.4C207.2 47.2 150 149.1 169.8 254.2c.6 2.9-2.7 5-5.1 3.2l-85.6-66.9-22.4 28.7 23.6 18.5c25.9 20.5 42.5 52.3 42.5 88 0 66.6-57.3 116.4-118.1 112.2L0 473.7l104 9.4-59 153.7 37 5.2 73.3-190.8-57.5-5.1-.2.1c47.3-34.2 70.1-92.3 59-148.9l34.8 27.2c2.8 3 61.6 40.4 79.5 121.3 6.2 27.3 18.2 52.5 34.6 74 19.1 24.6 51.5 38.4 86.2 30.3 37.9-8.8 64.4-43.9 63.9-82.8-.2-17.2-4.8-33.4-12.6-47.4-1.1-2-.1-4.3 2-4.8m18.7-48.5c-71 19.8-150.7 6.7-213.2-42.2l-38-29.6c-1.2-.9-2-2.2-2.3-3.7-6.1-27-8.6-54.5-7.9-78.3 0-76.1 46-141.6 111.6-170.3 8.2-3.9 17.4-6 27-6 45.5 0 76.4 46.4 59.1 88.2-27.8 64.8-81.4 115.8-147.9 140 8.2 12 18.6 22.4 30.6 30.5 41.1-36.3 92.6-61.1 149.4-69.2 43.2-7.4 83.7 26.5 83.7 71.3 0 32.8-22 60.6-52.1 69.3zm-157 71.7c-4.4-20-11.2-39.1-20.3-56.9 31.4 21.4 68.8 34.9 109.1 37.3 14.4 11.8 23.6 29.7 23.6 49.7 0 26.1-21.2 47.3-47.3 47.3-15.9 0-29.9-7.8-38.5-19.8-12.8-17.1-21.8-36.7-26.6-57.6z"></path></svg>