<svg xmlns="http://www.w3.org/2000/svg" width="616" viewBox="0 0 616 616.1" height="616.1" xml:space="preserve"><path d="M308 616.1c47.3 0 92.2-10.7 132.3-29.8H175.8c40 19.1 84.9 29.8 132.2 29.8zM474.9 350.9h-48.3c-14.9 12-30.8 22.5-47.3 31.3h128.8c-11.3-10.6-23.1-21.8-33.2-31.3zM549.7 382.2H607c2.5-10.3 4.6-20.7 6-31.3h-63.4v31.3zM368.4 350.9H248.3c-6.7 11.1-15.9 20.5-26.8 27.4 12.7 2 25.7 3 39.2 3 35.5 0 73-10.9 107.7-30.4zM175.9 358.9c10.2 0 19.7-2.9 27.7-8h-59.8c9.9 5.3 20.9 8 32.1 8zM87.3 350.9H2.9c1.5 10.6 3.5 21.1 6 31.3h123.8c-15.7-8.6-30.9-19.1-45.4-31.3zM67 500h482c7.9-10 15.3-20.4 22-31.3H45.1c6.6 10.8 14 21.3 21.9 31.3zM40.4 460.7h535.3c5.8-10.1 11-20.6 15.6-31.3H24.8c4.6 10.8 9.8 21.2 15.6 31.3zM549.7 421.5h44.8c4-10.2 7.5-20.6 10.5-31.3h-55.3v31.3zM363.4 390.1c-33.6 15.5-68.9 23.9-102.7 23.9-38.3 0-74.4-7.3-107.2-21.6-.6-.3-1.2-.5-1.7-.8h-.4v-.2c-1-.4-2-.9-2.9-1.4H11c2.9 10.7 6.4 21.1 10.5 31.3h528.2s-14.9-14.1-33.2-31.3H363.4zM160.3 578.4h295.5c16.5-9 32.1-19.5 46.6-31.3H113.7c14.5 11.8 30.1 22.3 46.6 31.3zM308 0c-46.7 0-91 10.4-130.6 29h261.3C399 10.4 354.7 0 308 0zM104.4 539.2h407.3c11-9.7 21.3-20.2 30.8-31.3H73.6c9.5 11.1 19.8 21.6 30.8 31.3zM510.8 76.2H105.2c-11.1 9.7-21.4 20.2-31 31.3h467.6c-9.5-11.2-19.9-21.6-31-31.3zM454.4 36.9H161.7c-16.7 9-32.4 19.5-47 31.3h386.7c-14.6-11.8-30.4-22.3-47-31.3zM548.4 115.4H67.6c-8 10-15.4 20.4-22.1 31.3h525c-6.7-10.9-14.1-21.3-22.1-31.3zM575.2 154.7H40.8c-5.8 10.1-11 20.6-15.7 31.3h565.8c-4.6-10.8-9.9-21.2-15.7-31.3zM549.7 311.6V343h64.4c1.2-10.3 1.8-20.8 1.9-31.3h-66.3zM517 311.6h-34.6l34.5 31.4zM66.8 332.1l-11.6-11.6 8.8-8.8H0c.1 10.6.8 21 1.9 31.3h76.3c-3.8-3.5-7.6-7.2-11.4-10.9zM450.8 329.3c-4.8 4.7-9.7 9.3-14.7 13.7h30.5c-7-6.6-12.5-11.8-15.1-14.3l-.7.6zM516.9 272.4l-34.2 31.3H517zM435.7 272.4c5.2 4.5 10.3 9.2 15.2 14.1l.6.6c2.7-2.6 8.3-7.9 15.5-14.7h-31.3zM55.3 295.3l11.6-11.6c3.9-3.9 7.8-7.7 11.8-11.3H2C.8 282.7.1 293.1 0 303.7h63.7l-8.4-8.4zM549.7 303.7H616c-.1-10.6-.8-21-2-31.3h-64.3v31.3zM133.4 233.2H9.1c-2.6 10.3-4.6 20.7-6.1 31.3h84.7c14.6-12.2 29.8-22.7 45.7-31.3zM175.9 256.8c-10.9 0-21.7 2.6-31.4 7.6H203c-7.9-4.8-17.1-7.6-27.1-7.6zM426.2 264.5h49.1c10.1-9.5 21.9-20.7 33.1-31.3H378.7c16.5 8.7 32.4 19.3 47.5 31.3zM549.7 264.5H613c-1.5-10.6-3.5-21.1-6.1-31.3h-57.2v31.3zM221.5 237.4c10.8 6.9 19.9 16.2 26.6 27.1h119.7c-34.5-19.3-71.8-30-107-30-13.6 0-26.6 1-39.3 2.9zM151.3 224.2v-.2h.4c.6-.3 1.2-.5 1.7-.8 32.8-14.3 68.9-21.6 107.2-21.6 33.5 0 68.5 8.3 101.9 23.6h154c18.2-17.3 33.1-31.3 33.1-31.3H21.8c-4.1 10.2-7.6 20.6-10.6 31.3h137.9c.8-.3 1.5-.6 2.2-1zM604.8 225.2c-3-10.7-6.5-21.1-10.6-31.3h-44.5v31.3h55.1zM227.6 311.6h-35.5c-2 11.2-11.8 19.8-23.6 19.8s-21.6-8.5-23.6-19.8h-52c12.3 12 25 22.5 38.3 31.3h82.2c7.9-8.2 13.1-19.1 14.2-31.3zM93.2 303.7h51.6c1.8-11.5 11.7-20.3 23.7-20.3s21.9 8.8 23.7 20.3h35.4c-1.2-12.2-6.5-23.1-14.6-31.3h-81.3c-13.4 8.9-26.2 19.3-38.5 31.3zM421.9 311.6H260.4c-.6 11.2-3.4 21.7-7.9 31.3h129c14.2-9 27.7-19.5 40.4-31.3zM260.4 303.7h161c-12.7-11.8-26.3-22.3-40.5-31.3H252.4c4.5 9.6 7.4 20.2 8 31.3z"></path></svg>