<svg data-name="Layer 1" xmlns="http://www.w3.org/2000/svg" viewBox="0 0 494.45 562.85"><path d="M481.37 131.14 260.3 3.5a26.156 26.156 0 0 0-26.15 0L13.08 131.14A26.151 26.151 0 0 0 0 153.79v255.27c0 9.34 4.98 17.98 13.08 22.65l221.07 127.64a26.156 26.156 0 0 0 26.15 0l221.07-127.64a26.142 26.142 0 0 0 13.07-22.65V153.79c0-9.34-4.98-17.98-13.07-22.65ZM182.51 72.16c2.13-1.23 4.86-.5 6.1 1.63 1.23 2.13.5 4.86-1.63 6.1-2.13 1.23-4.86.5-6.1-1.63a4.475 4.475 0 0 1 1.63-6.1Zm48.07 237.22c-7.97 4.6-18.17 1.87-22.77-6.1-4.6-7.97-1.87-18.17 6.1-22.77 7.97-4.6 18.17-1.87 22.77 6.1 4.6 7.97 1.87 18.17-6.1 22.77Zm8.7 15.07c7.97-4.6 18.17-1.87 22.77 6.1 4.6 7.97 1.87 18.17-6.1 22.77-7.97 4.6-18.17 1.87-22.77-6.1-4.6-7.97-1.87-18.17 6.1-22.77Zm-35.14-60.87c-7.97 4.6-18.17 1.87-22.77-6.1-4.6-7.97-1.87-18.17 6.1-22.77 7.97-4.6 18.17-1.87 22.77 6.1 4.6 7.97 1.87 18.17-6.1 22.77Zm-22.13 38.64c6.61-3.82 15.06-1.55 18.88 5.06 3.82 6.61 1.55 15.06-5.06 18.88-6.61 3.82-15.06 1.55-18.88-5.06-3.82-6.61-1.55-15.06 5.06-18.88Zm-12.63-21.87c-6.61 3.82-15.06 1.55-18.88-5.06-3.82-6.61-1.55-15.06 5.06-18.88 6.61-3.82 15.06-1.55 18.88 5.06 3.82 6.61 1.55 15.06-5.06 18.88Zm8.85-61.65c-7.97 4.6-18.17 1.87-22.77-6.1-4.6-7.97-1.87-18.17 6.1-22.77 7.97-4.6 18.17-1.87 22.77 6.1 4.6 7.97 1.87 18.17-6.1 22.77ZM149.18 91.41c2.13-1.23 4.86-.5 6.1 1.63 1.23 2.13.5 4.86-1.63 6.1-2.13 1.23-4.86.5-6.1-1.63a4.475 4.475 0 0 1 1.63-6.1Zm-8.71 61.88a7.047 7.047 0 0 1 9.62 2.58c1.94 3.37.79 7.67-2.58 9.62a7.047 7.047 0 0 1-9.62-2.58 7.047 7.047 0 0 1 2.58-9.62Zm-10.81 58.25c6.61-3.82 15.06-1.55 18.88 5.06 3.82 6.61 1.55 15.06-5.06 18.88-6.61 3.82-15.06 1.55-18.88-5.06-3.82-6.61-1.55-15.06 5.06-18.88Zm-13.81-100.89c2.13-1.23 4.86-.5 6.1 1.63 1.23 2.13.5 4.86-1.63 6.1-2.13 1.23-4.86.5-6.1-1.63a4.475 4.475 0 0 1 1.63-6.1Zm-7.42 64.12c2.13-1.23 4.86-.5 6.1 1.63 1.23 2.13.5 4.86-1.63 6.1-2.13 1.23-4.86.5-6.1-1.63a4.475 4.475 0 0 1 1.63-6.1Zm-9.84 59.93c4.45-2.57 10.14-1.04 12.7 3.4 2.57 4.45 1.04 10.14-3.4 12.7-4.45 2.57-10.14 1.04-12.7-3.4-2.57-4.45-1.04-10.14 3.4-12.7ZM82.52 129.9c2.13-1.23 4.86-.5 6.1 1.63 1.23 2.13.5 4.86-1.63 6.1-2.13 1.23-4.86.5-6.1-1.63a4.475 4.475 0 0 1 1.63-6.1Zm-7.42 64.12c2.13-1.23 4.86-.5 6.1 1.63 1.23 2.13.5 4.86-1.63 6.1-2.13 1.23-4.86.5-6.1-1.63a4.475 4.475 0 0 1 1.63-6.1Zm-25.91-44.87c2.13-1.23 4.86-.5 6.1 1.63 1.23 2.13.5 4.86-1.63 6.1-2.13 1.23-4.86.5-6.1-1.63a4.475 4.475 0 0 1 1.63-6.1ZM24.6 414.21c-2.13 1.23-4.86.5-6.1-1.63a4.475 4.475 0 0 1 1.63-6.1c2.13-1.23 4.86-.5 6.1 1.63 1.23 2.13.5 4.86-1.63 6.1Zm6.78-64.99c-2.13 1.23-4.86.5-6.1-1.63a4.475 4.475 0 0 1 1.63-6.1c2.13-1.23 4.86-.5 6.1 1.63 1.23 2.13.5 4.86-1.63 6.1Zm7.42-64.12c-2.13 1.23-4.86.5-6.1-1.63a4.475 4.475 0 0 1 1.63-6.1c2.13-1.23 4.86-.5 6.1 1.63 1.23 2.13.5 4.86-1.63 6.1Zm7.42-64.12c-2.13 1.23-4.86.5-6.1-1.63a4.475 4.475 0 0 1 1.63-6.1c2.13-1.23 4.86-.5 6.1 1.63 1.23 2.13.5 4.86-1.63 6.1ZM58.1 395.51a5.02 5.02 0 0 1-6.86-1.84 5.02 5.02 0 0 1 1.84-6.86 5.02 5.02 0 0 1 6.86 1.84 5.02 5.02 0 0 1-1.84 6.86Zm7.89-63.3a7.047 7.047 0 0 1-9.62-2.58 7.047 7.047 0 0 1 2.58-9.62 7.047 7.047 0 0 1 9.62 2.58c1.94 3.37.79 7.67-2.58 9.62Zm6.13-66.35c-2.13 1.23-4.86.5-6.1-1.63a4.475 4.475 0 0 1 1.63-6.1c2.13-1.23 4.86-.5 6.1 1.63 1.23 2.13.5 4.86-1.63 6.1Zm11.06 173.11c-2.13 1.23-4.86.5-6.1-1.63a4.475 4.475 0 0 1 1.63-6.1c2.13-1.23 4.86-.5 6.1 1.63 1.23 2.13.5 4.86-1.63 6.1Zm9.25-60.95a7.047 7.047 0 0 1-9.62-2.58 7.047 7.047 0 0 1 2.58-9.62 7.047 7.047 0 0 1 9.62 2.58c1.94 3.37.79 7.67-2.58 9.62Zm8.02-63.09c-4.45 2.57-10.14 1.04-12.7-3.4-2.57-4.45-1.04-10.14 3.4-12.7 4.45-2.57 10.14-1.04 12.7 3.4 2.57 4.45 1.04 10.14-3.4 12.7Zm17.36 107.04a7.047 7.047 0 0 1-9.62-2.58c-1.94-3.37-.79-7.67 2.58-9.62s7.67-.79 9.62 2.58c1.94 3.37.79 7.67-2.58 9.62Zm9.09-61.23c-4.45 2.57-10.14 1.04-12.7-3.4-2.57-4.45-1.04-10.14 3.4-12.7 4.45-2.57 10.14-1.04 12.7 3.4 2.57 4.45 1.04 10.14-3.4 12.7Zm-8.04-67.17c-3.28-5.68-1.33-12.94 4.35-16.22 5.68-3.28 12.94-1.33 16.22 4.35 3.28 5.68 1.33 12.94-4.35 16.22-5.68 3.28-12.94 1.33-16.22-4.35Zm23.57 171.04c-2.13 1.23-4.86.5-6.1-1.63a4.475 4.475 0 0 1 1.63-6.1c2.13-1.23 4.86-.5 6.1 1.63 1.23 2.13.5 4.86-1.63 6.1Zm9.84-59.93c-4.45 2.57-10.14 1.04-12.7-3.4-2.57-4.45-1.04-10.14 3.4-12.7 4.45-2.57 10.14-1.04 12.7 3.4 2.57 4.45 1.04 10.14-3.4 12.7Zm9.25-60.96c-5.68 3.28-12.94 1.33-16.22-4.35-3.28-5.68-1.33-12.94 4.35-16.22 5.68-3.28 12.94-1.33 16.22 4.35 3.28 5.68 1.33 12.94-4.35 16.22Zm14.24 101.65c-2.13 1.23-4.86.5-6.1-1.63a4.475 4.475 0 0 1 1.63-6.1c2.13-1.23 4.86-.5 6.1 1.63 1.23 2.13.5 4.86-1.63 6.1Zm11.13-57.7c-5.68 3.28-12.94 1.33-16.22-4.35-3.28-5.68-1.33-12.94 4.35-16.22 5.68-3.28 12.94-1.33 16.22 4.35 3.28 5.68 1.33 12.94-4.35 16.22Zm14.78 102.58c-2.13 1.23-4.86.5-6.1-1.63a4.475 4.475 0 0 1 1.63-6.1c2.13-1.23 4.86-.5 6.1 1.63 1.23 2.13.5 4.86-1.63 6.1Zm9.84-59.93c-4.45 2.57-10.14 1.04-12.7-3.4-2.57-4.45-1.04-10.14 3.4-12.7 4.45-2.57 10.14-1.04 12.7 3.4 2.57 4.45 1.04 10.14-3.4 12.7Zm9.68-60.21c-6.61 3.82-15.06 1.55-18.88-5.06-3.82-6.61-1.55-15.06 5.06-18.88s15.06-1.55 18.88 5.06c3.82 6.61 1.55 15.06-5.06 18.88ZM235 471c-2.13 1.23-4.86.5-6.1-1.63a4.475 4.475 0 0 1 1.63-6.1c2.13-1.23 4.86-.5 6.1 1.63 1.23 2.13.5 4.86-1.63 6.1Zm12.1-56.02c-6.61 3.82-15.06 1.55-18.88-5.06-3.82-6.61-1.55-15.06 5.06-18.88 6.61-3.82 15.06-1.55 18.88 5.06 3.82 6.61 1.55 15.06-5.06 18.88Zm13.81 100.89c-2.13 1.23-4.86.5-6.1-1.63a4.475 4.475 0 0 1 1.63-6.1c2.13-1.23 4.86-.5 6.1 1.63 1.23 2.13.5 4.86-1.63 6.1Zm7.42-64.12c-2.13 1.23-4.86.5-6.1-1.63a4.475 4.475 0 0 1 1.63-6.1c2.13-1.23 4.86-.5 6.1 1.63 1.23 2.13.5 4.86-1.63 6.1Zm13.53-53.54c-7.97 4.6-18.17 1.87-22.77-6.1-4.6-7.97-1.87-18.17 6.1-22.77 7.97-4.6 18.17-1.87 22.77 6.1 4.6 7.97 1.87 18.17-6.1 22.77Zm12.38 98.42c-2.13 1.23-4.86.5-6.1-1.63a4.475 4.475 0 0 1 1.63-6.1c2.13-1.23 4.86-.5 6.1 1.63 1.23 2.13.5 4.86-1.63 6.1Zm8.71-61.88a7.047 7.047 0 0 1-9.62-2.58c-1.94-3.37-.79-7.67 2.58-9.62s7.67-.79 9.62 2.58c1.94 3.37.79 7.67-2.58 9.62Zm24.62 42.64c-2.13 1.23-4.86.5-6.1-1.63a4.475 4.475 0 0 1 1.63-6.1c2.13-1.23 4.86-.5 6.1 1.63 1.23 2.13.5 4.86-1.63 6.1Zm33.33-19.24c-2.13 1.23-4.86.5-6.1-1.63a4.475 4.475 0 0 1 1.63-6.1c2.13-1.23 4.86-.5 6.1 1.63 1.23 2.13.5 4.86-1.63 6.1Zm33.33-19.24c-2.13 1.23-4.86.5-6.1-1.63a4.475 4.475 0 0 1 1.63-6.1c2.13-1.23 4.86-.5 6.1 1.63 1.23 2.13.5 4.86-1.63 6.1Zm77.96-18.92c-11.02 6.36-24.64 4.07-33.06-4.74.19 4.96-2.29 9.86-6.89 12.52-6.61 3.82-15.06 1.55-18.88-5.06s-1.55-15.06 5.06-18.88c4.6-2.66 10.09-2.36 14.29.29-2.69-9.2-.28-19.17 6.25-26.11a27.09 27.09 0 0 1-15.9-1.08c-1.56 6.15-5.5 11.7-11.44 15.12-7.65 4.42-16.69 4.2-23.91.25-.67 6.73-4.44 13.05-10.75 16.7-8.29 4.79-18.41 3.48-25.22-2.51 1.17 7.6-2.31 15.49-9.37 19.56-9.19 5.31-20.95 2.16-26.26-7.04-5.31-9.19-2.16-20.95 7.04-26.26 7.06-4.08 15.63-3.15 21.63 1.67-1.78-8.89 2.15-18.31 10.44-23.1 6.31-3.64 13.67-3.74 19.83-.96.19-8.23 4.52-16.17 12.17-20.58 5.93-3.43 12.7-4.06 18.82-2.34.84-5.3 3.25-10.31 7.01-14.31a27.09 27.09 0 0 1-15.9-1.08c-1.56 6.15-5.5 11.7-11.44 15.12-7.65 4.42-16.69 4.2-23.91.25-.67 6.73-4.44 13.05-10.75 16.7-8.29 4.79-18.41 3.48-25.22-2.51 1.17 7.6-2.31 15.49-9.37 19.57-9.19 5.31-20.95 2.16-26.26-7.04-5.31-9.19-2.16-20.95 7.04-26.26 7.06-4.08 15.63-3.15 21.63 1.67-1.78-8.89 2.15-18.31 10.44-23.1 6.31-3.64 13.67-3.74 19.83-.96.19-8.23 4.52-16.17 12.17-20.58 5.93-3.43 12.7-4.06 18.82-2.34.84-5.3 3.25-10.31 7.01-14.31a27.09 27.09 0 0 1-15.9-1.08c-1.56 6.15-5.5 11.7-11.44 15.12-7.65 4.42-16.69 4.2-23.91.25-.67 6.73-4.44 13.06-10.75 16.7-8.29 4.79-18.41 3.48-25.22-2.51 1.17 7.6-2.31 15.49-9.37 19.57-9.19 5.31-20.95 2.16-26.26-7.04-5.31-9.19-2.16-20.95 7.04-26.26 7.06-4.08 15.63-3.15 21.63 1.67-1.78-8.89 2.15-18.31 10.44-23.1 6.31-3.64 13.67-3.74 19.83-.96.19-8.23 4.52-16.17 12.17-20.58 5.93-3.43 12.7-4.06 18.82-2.34.76-4.77 2.8-9.29 5.95-13.07-4.85.84-9.79.34-14.29-1.39-1.56 6.15-5.5 11.7-11.44 15.12-7.65 4.42-16.69 4.2-23.91.25-.67 6.73-4.44 13.05-10.75 16.7-8.29 4.79-18.41 3.48-25.22-2.51 1.17 7.6-2.31 15.49-9.37 19.57-9.19 5.31-20.95 2.16-26.26-7.04-5.31-9.19-2.16-20.95 7.04-26.26 7.06-4.08 15.63-3.15 21.63 1.67-1.78-8.89 2.15-18.31 10.44-23.1 6.31-3.64 13.67-3.74 19.83-.96.19-8.23 4.52-16.17 12.17-20.58 5.93-3.43 12.7-4.06 18.82-2.34.95-5.98 3.9-11.61 8.55-15.82a26.996 26.996 0 0 1-17.97-.5c-1.56 6.15-5.5 11.7-11.44 15.12-7.65 4.42-16.69 4.2-23.91.25-.67 6.73-4.44 13.06-10.75 16.7-8.29 4.79-18.41 3.48-25.22-2.51 1.17 7.6-2.31 15.49-9.37 19.56-9.19 5.31-20.95 2.16-26.26-7.04-5.31-9.19-2.16-20.95 7.04-26.26 7.06-4.08 15.63-3.15 21.63 1.67-1.78-8.89 2.15-18.31 10.44-23.1 6.31-3.64 13.67-3.74 19.83-.96.19-8.23 4.52-16.17 12.17-20.58 5.93-3.43 12.7-4.06 18.82-2.34.84-5.3 3.25-10.31 7.01-14.31a27.09 27.09 0 0 1-15.9-1.08c-1.56 6.15-5.5 11.7-11.44 15.12-7.65 4.42-16.69 4.2-23.91.25-.67 6.73-4.44 13.06-10.75 16.7-8.29 4.79-18.41 3.48-25.22-2.51 1.17 7.6-2.31 15.49-9.37 19.57-9.19 5.31-20.95 2.16-26.26-7.04s-2.16-20.95 7.04-26.26c7.06-4.08 15.63-3.15 21.63 1.67-1.78-8.89 2.15-18.31 10.44-23.1 6.31-3.64 13.67-3.74 19.83-.96.19-8.23 4.52-16.17 12.17-20.58 5.93-3.43 12.7-4.06 18.82-2.34.84-5.3 3.25-10.31 7.01-14.31a27.09 27.09 0 0 1-15.9-1.08c-1.56 6.15-5.5 11.7-11.44 15.12-7.65 4.42-16.69 4.2-23.91.25-.67 6.73-4.44 13.06-10.75 16.7-8.29 4.79-18.41 3.48-25.22-2.51 1.17 7.6-2.31 15.49-9.37 19.56-9.19 5.31-20.95 2.16-26.26-7.04-5.31-9.19-2.16-20.95 7.04-26.26 7.06-4.08 15.63-3.15 21.63 1.67-1.78-8.89 2.15-18.31 10.44-23.1 6.31-3.64 13.67-3.74 19.83-.96.19-8.23 4.52-16.17 12.17-20.58 5.93-3.43 12.7-4.06 18.82-2.34.84-5.3 3.25-10.31 7.01-14.31-9.27 2.19-19.11-.71-25.73-7.64.19 4.96-2.29 9.86-6.89 12.52-6.61 3.82-15.06 1.55-18.88-5.06-3.82-6.61-1.55-15.06 5.06-18.88 4.6-2.66 10.09-2.36 14.29.29-3.42-11.7 1.4-24.64 12.42-31 12.94-7.47 29.49-3.04 36.96 9.9 6.12 10.59 4.25 23.6-3.73 32.07 11.32-2.67 23.52 2.21 29.64 12.8 6.12 10.59 4.25 23.6-3.73 32.07 11.32-2.67 23.52 2.21 29.64 12.8 6.12 10.59 4.25 23.6-3.73 32.07 11.32-2.67 23.52 2.21 29.64 12.8 6.49 11.25 3.99 25.21-5.27 33.58 11.88-3.83 25.22.98 31.72 12.23 5.83 10.1 4.39 22.37-2.66 30.83 10.86-1.87 22.21 3.01 28.03 13.11 6.12 10.59 4.25 23.6-3.73 32.07 11.32-2.67 23.52 2.21 29.64 12.8 6.12 10.59 4.25 23.6-3.73 32.07 11.32-2.67 23.52 2.21 29.64 12.8 6.12 10.59 4.25 23.6-3.73 32.07 11.32-2.67 23.52 2.21 29.64 12.8 7.47 12.94 3.04 29.49-9.9 36.96Z"></path></svg>