<svg data-name="Layer 1" xmlns="http://www.w3.org/2000/svg" viewBox="0 0 614.24 614.24"><path d="M504.95 307.12c63.39-20.3 109.29-79.69 109.29-149.82 0-43.44-17.61-82.77-46.07-111.23L358 256.24l248.74 248.74c4.86-15.15 7.5-31.29 7.5-48.05 0-70.13-45.9-129.51-109.29-149.82ZM504.99 7.5C489.84 2.64 473.7 0 456.94 0c-70.13 0-129.51 45.9-149.82 109.29C286.82 45.9 227.43 0 157.31 0 113.87 0 74.54 17.61 46.07 46.07l210.17 210.17L504.99 7.5ZM109.25 606.74c15.15 4.86 31.29 7.5 48.05 7.5 70.13 0 129.51-45.9 149.82-109.29 20.3 63.39 79.69 109.29 149.82 109.29 43.44 0 82.76-17.61 111.23-46.07L358 358 109.26 606.74ZM7.5 109.25C2.64 124.4 0 140.54 0 157.3c0 70.13 45.9 129.51 109.29 149.82C45.9 327.42 0 386.81 0 456.94c0 43.44 17.61 82.77 46.07 111.23L256.24 358 7.5 109.25Z"></path></svg>