<svg id="Layer_1" data-name="Layer 1" xmlns="http://www.w3.org/2000/svg" viewBox="0 0 595.75 493.91">   <path d="M531.32,182.52h-68.83V64.43C462.49,28.9,433.59,0,398.06,0s-64.43,28.9-64.43,64.43v51.55c0,19.39-15.78,35.16-35.17,35.16s-35.16-15.77-35.16-35.16v-51.55C263.3,28.9,234.4,0,198.87,0s-64.43,28.9-64.43,64.43v118.09H64.43C28.9,182.52,0,211.43,0,246.95s28.9,64.43,64.43,64.43h70.01v118.09c0,35.53,28.9,64.43,64.43,64.43s64.43-28.9,64.43-64.43v-118.09h70.33v118.09c0,35.53,28.9,64.43,64.43,64.43s64.43-28.9,64.43-64.43v-118.09h68.83c35.53,0,64.43-28.9,64.43-64.43s-28.9-64.43-64.43-64.43Zm-396.88,99.6H64.43c-19.39,0-35.16-15.78-35.16-35.17s15.77-35.16,35.16-35.16h70.01v70.33Zm99.6,147.36c0,19.39-15.78,35.17-35.17,35.17s-35.17-15.78-35.17-35.17v-118.09h70.33v118.09Zm0-147.36h-70.33v-70.33h37.4c18.16,0,32.94,14.78,32.94,32.94v37.39Zm199.19,147.36c0,19.39-15.78,35.17-35.17,35.17s-35.16-15.78-35.16-35.17v-118.09h70.33v118.09Zm0-147.36h-70.33v-37.39c0-18.16,14.78-32.94,32.94-32.94h37.39v70.33Zm0-99.6h-37.39c-34.3,0-62.2,27.9-62.2,62.2v37.39h-70.33v-37.39c0-34.3-27.9-62.2-62.2-62.2h-37.4V64.43c0-19.39,15.78-35.17,35.17-35.17s35.17,15.78,35.17,35.17v51.55c0,35.53,28.9,64.43,64.43,64.43s64.43-28.9,64.43-64.43v-51.55c0-19.39,15.77-35.17,35.16-35.17s35.17,15.78,35.17,35.17v118.09Zm98.1,99.6h-68.83v-70.33h68.83c19.39,0,35.17,15.77,35.17,35.16s-15.78,35.17-35.17,35.17Z"></path> </svg>