<svg xmlns="http://www.w3.org/2000/svg" width="584.5" viewBox="0 0 584.5 497.8" height="497.8" xml:space="preserve"><path d="M556 57.5C528.7 21 486.9 0 441.3 0H143.2C97.6 0 55.8 21 28.5 57.5 1.3 94-6.9 140.1 6 183.8l70.4 237.1c13.6 46 56 76.9 105.4 76.9 43.1 0 79.3-23.5 96.9-60 6.4-13.2 9.2-26.7 10.7-41.2 1.1-10.4 2.1-17.9 2.9-38.4.8 20.5 1.9 28 2.9 38.4 1.5 14.5 4.3 28 10.7 41.2 17.6 36.5 53.8 60 96.9 60 49.4 0 91.7-30.9 105.4-76.9l70.4-237.1c12.8-43.7 4.6-89.8-22.6-126.3zm-53.5 103.7-70.4 237.1c-5.6 18.8-23.9 20.2-29.4 20.2s-26-1.5-31.6-20.2l-41.5-128.2c-5.8-18.1-21.7-26.9-37.4-26.5-15.7-.4-31.6 8.5-37.4 26.5l-41.5 128.2c-5.6 18.8-26.1 20.2-31.6 20.2s-23.9-1.5-29.4-20.2L82 161.2c-5.7-19.1-2.3-39.3 9.4-55.4 12.3-17.1 32.7-26.6 53.8-26.6h294.2c21.1 0 41.5 9.4 53.8 26.6 11.6 16.1 15 36.3 9.3 55.4z"></path></svg>