<svg data-name="Layer 1" xmlns="http://www.w3.org/2000/svg" viewBox="0 0 379.73 572.18"><path d="M379.73 123.18 271.4 0H128.35v30.94L105.61 0H0v402.87l80.79 169.32h115.36v-44.34l25.87 44.34h157.71V123.18Zm-6.93-.23-.21.21H224.76L136.19 5.06h132.92l103.69 117.9ZM5.06 5.06h98.21l85.9 118.11H87.4l-2.95-2.05L5.06 5.2v-.15Zm75.7 555.31L5.06 401.72V14.18l75.7 110.56v435.62Zm5.09 6.76v-438.9h105.31v124.24l72.46 53.75v82.83l-72.52 53.83v124.24H85.85Zm288.83 0H224.77V457.01l71.02-52.97V287.28l-71.02-53.42V128.24h149.9v438.89Z"></path></svg>