<svg id="Layer_1" data-name="Layer 1" xmlns="http://www.w3.org/2000/svg" viewBox="0 0 536.73 603.5">   <path d="M268.36,202.9c36.15,0,65.46,29.31,65.46,65.46,0,32.57-23.79,59.57-54.94,64.61v38.32c52.19-5.27,92.93-49.34,92.93-102.93,0-57.14-46.32-103.46-103.46-103.46s-103.46,46.32-103.46,103.46h38c0-36.15,29.31-65.46,65.46-65.46Z"></path>   <path d="M268.36,0C120.15,0,0,120.15,0,268.36H37.99v335.14h126.91V268.36h-36.56c0-77.33,62.69-140.02,140.02-140.02s140.02,62.69,140.02,140.02-62.69,140.02-140.02,140.02c-9.4,0-18.59-.95-27.47-2.72v-137.3h-37.99v260.31c20.95,5.25,42.88,8.06,65.46,8.06,148.21,0,268.36-120.15,268.36-268.37S416.58,0,268.36,0Z"></path> </svg>