<svg xmlns="http://www.w3.org/2000/svg" width="616.2" viewBox="0 0 616.2 483.7" height="483.7" style="enable-background:new 0 0 616.2 483.7" xml:space="preserve"><path d="M530.4 241.9c-21.2 0-40.5-7.6-55.6-20.2-15-12.6-34.4-20.2-55.6-20.2-21.2 0-40.5 7.6-55.6 20.2-15 12.6-34.4 20.2-55.6 20.2v70.3l85.8 85.8-85.8 85.8V433c-21.2 0-40.5-7.6-55.6-20.2-15-12.6-34.4-20.2-55.6-20.2-21.2 0-40.6 7.6-55.6 20.2S106.8 433 85.6 433v-70.3c21.2 0 40.5-7.6 55.6-20.2 15-12.6 34.4-20.2 55.6-20.2 21.2 0 40.5 7.6 55.6 20.2 15 12.6 34.4 20.2 55.6 20.2V312c21.2 0 40.6-7.6 55.6-20.2s34.4-20.2 55.6-20.2c21.2 0 40.5 7.6 55.6 20.2 15 12.6 34.4 20.2 55.6 20.2m0-70.1v-50.7l85.8 85.8-85.8 85.8v-50.7M308.1 120.9v50.7c-21.2 0-40.6 7.6-55.6 20.2S218.1 212 196.9 212c-21.2 0-40.6-7.6-55.6-20.2s-34.4-20.2-55.6-20.2v-50.7L0 206.7l85.8 85.8v-50.7c21.2 0 40.5 7.6 55.6 20.2 15 12.6 34.4 20.2 55.6 20.2 21.2 0 40.5-7.6 55.6-20.2 15-12.6 34.4-20.2 55.6-20.2v-70.3l-85.8-85.8L308.1 0v50.7c21.2 0 40.6 7.6 55.6 20.2s34.4 20.2 55.6 20.2c21.2 0 40.5-7.6 55.6-20.2 15-12.6 34.4-20.2 55.6-20.2V121c-21.2 0-40.5 7.6-55.6 20.2-15 12.6-34.4 20.2-55.6 20.2-21.2 0-40.5-7.6-55.6-20.2-15.1-12.7-34.4-20.3-55.6-20.3z" style="fill-rule:evenodd;clip-rule:evenodd"></path></svg>