<svg data-name="Layer 1" xmlns="http://www.w3.org/2000/svg" viewBox="0 0 620.89 620.89"><path d="M333.16 275.85 447 162.01h-55.55C391.45 72.54 318.92 0 229.44 0v162.01h-55.55l113.84 113.84c12.54 12.54 32.88 12.54 45.43 0Zm-22.71-62.6c14.31 0 25.91 11.6 25.91 25.91s-11.6 25.91-25.91 25.91-25.91-11.6-25.91-25.91 11.6-25.91 25.91-25.91ZM162.01 447l113.84-113.84c12.54-12.54 12.54-32.88 0-45.43L162.01 173.89v55.55C72.54 229.44 0 301.98 0 391.45h162.01V447ZM458.88 162.01zM162.01 458.88zM458.88 229.44v-55.55L345.04 287.73c-12.54 12.54-12.54 32.88 0 45.43L458.88 447v-55.55c89.48 0 162.01-72.54 162.01-162.01H458.88ZM287.73 345.04 173.89 458.88h55.55c0 89.48 72.54 162.01 162.01 162.01V458.88H447L333.16 345.04c-12.54-12.54-32.88-12.54-45.43 0ZM458.88 458.88z"></path></svg>