<svg xmlns="http://www.w3.org/2000/svg" width="629.2" viewBox="0 0 629.2 630.4" height="630.4" xml:space="preserve" style="enable-background:new 0 0 629.2 630.4"><path d="m532.8 89-145.4 62.6 24.9 59.1zM317.5 0v306.3l89.4-90.1zM628.7 312.3l-146.9-60.8-24.8 60.8zM538 92.8 321.3 312.3h128zM539.5 536.7l-61.2-148.4-60.5 25zM629.2 318.4H320.7l91.5 89.5zM317.7 630.4l60.8-147.7-60.8-24.8zM534.2 540.4 317.7 323.8v126.4z"></path><g><path d="m96.4 541.4 145.4-62.6-24.9-59.1zM311.7 630.4V324.1l-89.4 90.1z"></path></g><g><path d="m.5 318.1 147 60.8 24.7-60.8zM91.2 537.6l216.7-219.5h-128z"></path></g><g><path d="m89.7 93.7 61.2 148.4 60.6-25zM0 312h308.5L217 222.5z"></path></g><g><path d="m311.5 0-60.8 147.7 60.8 24.7zM95 90l216.5 216.7V180.2z"></path></g></svg>