<svg xmlns="http://www.w3.org/2000/svg" width="628.9" viewBox="0 0 628.9 628.9" height="628.9" xml:space="preserve" style="enable-background:new 0 0 628.9 628.9"><circle transform="rotate(-9.213 314.464 314.403)" cx="314.5" cy="314.5" r="79.7"></circle><path d="M628.3 158.4v-1.7h-78.8c-21.2 0-40.4-8.6-54.6-22.7-14-14.2-22.6-33.4-22.6-54.6V.6h-1.7V0H158.4v.6h-1.7v78.8c0 21.2-8.7 40.5-22.8 54.7-14.2 14-33.4 22.6-54.5 22.6H.6v1.7H0v312.1h.6v1.7h78.8c21.2 0 40.4 8.6 54.6 22.6 14 14.2 22.7 33.4 22.7 54.6v78.8h1.7v.6h312.1v-.6h1.7v-78.8c0-21.1 8.6-40.3 22.6-54.5 14.2-14.1 33.5-22.8 54.7-22.8h78.8v-1.7h.6v-312h-.6zM408 408.1c-48.6 48.6-82.5 112.7-93.5 184.5-11-71.8-44.9-136-93.6-184.6-48.6-48.7-112.7-82.6-184.5-93.6 71.8-11 135.9-44.9 184.5-93.5 48.7-48.6 82.6-112.7 93.7-184.6 11 71.9 44.9 136 93.6 184.6 48.6 48.7 112.7 82.6 184.6 93.6-72.1 11-136.2 44.9-184.8 93.6z"></path></svg>