<svg data-name="Layer 1" xmlns="http://www.w3.org/2000/svg" viewBox="0 0 620.31 493.22"><path d="M614.77 221.62c-11.4-19.74-36.63-26.52-56.38-15.11l-95.4 55.08-74.76-43.16V132.1l95.4-55.07c19.74-11.4 26.5-36.64 15.11-56.38C487.35.91 462.12-5.86 442.36 5.54l-95.4 55.08-95.4-55.08C231.82-5.85 206.57.92 195.18 20.65c-11.4 19.74-4.63 44.99 15.11 56.38l95.4 55.07v86.33l-74.76 43.16-74.76-43.16v-61.17c0-22.8-18.48-41.27-41.27-41.27s-41.27 18.48-41.27 41.27v61.17l-52.97 30.58c-19.74 11.4-26.5 36.64-15.11 56.38 7.65 13.24 21.52 20.64 35.79 20.64 7 0 14.1-1.78 20.6-5.54l52.97-30.58 74.76 43.16v118.86c0 22.79 18.48 41.27 41.27 41.27s41.27-18.48 41.27-41.27V333.07l74.76-43.16 74.76 43.16v118.86c0 22.79 18.48 41.27 41.27 41.27s41.27-18.48 41.27-41.27V333.07l95.4-55.08c19.74-11.4 26.5-36.64 15.11-56.38Z"></path><path d="M579.03 144.48c22.54 0 40.87-18.33 40.87-40.87s-18.33-40.86-40.87-40.86-40.86 18.33-40.86 40.86 18.33 40.87 40.86 40.87Z"></path></svg>