<svg data-name="Layer 1" xmlns="http://www.w3.org/2000/svg" viewBox="0 0 578.46 589.5"><circle cx="71.61" cy="462.63" r="23.66"></circle><circle cx="125.79" cy="462.63" r="23.66"></circle><path d="M179.98 438.97c-13.07 0-23.66 10.59-23.66 23.66s10.59 23.66 23.66 23.66 23.66-10.59 23.66-23.66-10.59-23.66-23.66-23.66ZM396.71 438.97c-13.07 0-23.66 10.59-23.66 23.66s10.59 23.66 23.66 23.66 23.66-10.59 23.66-23.66-10.59-23.66-23.66-23.66Z"></path><circle cx="450.9" cy="462.63" r="23.66"></circle><circle cx="505.08" cy="462.63" r="23.66"></circle><circle cx="98.34" cy="415.31" r="23.66"></circle><circle cx="152.53" cy="415.31" r="23.66"></circle><circle cx="206.71" cy="415.31" r="23.66"></circle><circle cx="260.9" cy="415.31" r="23.66"></circle><path d="M315.08 438.97c13.07 0 23.66-10.59 23.66-23.66s-10.59-23.66-23.66-23.66-23.66 10.59-23.66 23.66 10.59 23.66 23.66 23.66ZM369.26 438.97c13.07 0 23.66-10.59 23.66-23.66s-10.59-23.66-23.66-23.66-23.66 10.59-23.66 23.66 10.59 23.66 23.66 23.66Z"></path><circle cx="423.45" cy="415.31" r="23.66"></circle><circle cx="477.63" cy="415.31" r="23.66"></circle><circle cx="125.79" cy="367.98" r="23.66"></circle><circle cx="179.98" cy="367.98" r="23.66"></circle><circle cx="234.16" cy="367.98" r="23.66"></circle><circle cx="288.34" cy="367.98" r="23.66"></circle><circle cx="342.53" cy="367.98" r="23.66"></circle><circle cx="396.71" cy="367.98" r="23.66"></circle><circle cx="450.9" cy="367.98" r="23.66"></circle><path d="M152.53 344.32c13.07 0 23.66-10.59 23.66-23.66S165.6 297 152.53 297s-23.66 10.59-23.66 23.66 10.59 23.66 23.66 23.66Z"></path><circle cx="206.71" cy="320.66" r="23.66"></circle><circle cx="260.9" cy="320.66" r="23.66"></circle><path d="M315.08 344.32c13.07 0 23.66-10.59 23.66-23.66S328.15 297 315.08 297s-23.66 10.59-23.66 23.66 10.59 23.66 23.66 23.66ZM369.26 297c-13.07 0-23.66 10.59-23.66 23.66s10.59 23.66 23.66 23.66 23.66-10.59 23.66-23.66S382.33 297 369.26 297Z"></path><circle cx="423.45" cy="320.66" r="23.66"></circle><path d="M179.98 297c13.07 0 23.66-10.59 23.66-23.66s-10.59-23.66-23.66-23.66-23.66 10.59-23.66 23.66S166.91 297 179.98 297Z"></path><circle cx="234.16" cy="273.34" r="23.66"></circle><circle cx="288.34" cy="273.34" r="23.66"></circle><circle cx="342.53" cy="273.34" r="23.66"></circle><path d="M396.71 249.68c-13.07 0-23.66 10.59-23.66 23.66S383.64 297 396.71 297s23.66-10.59 23.66-23.66-10.59-23.66-23.66-23.66ZM206.71 249.68c13.07 0 23.66-10.59 23.66-23.66s-10.59-23.66-23.66-23.66-23.66 10.59-23.66 23.66 10.59 23.66 23.66 23.66ZM237.23 226.01c0 13.07 10.59 23.66 23.66 23.66s23.66-10.59 23.66-23.66-10.59-23.66-23.66-23.66-23.66 10.59-23.66 23.66ZM315.08 202.35c-13.07 0-23.66 10.59-23.66 23.66s10.59 23.66 23.66 23.66 23.66-10.59 23.66-23.66-10.59-23.66-23.66-23.66ZM345.6 226.01c0 13.07 10.59 23.66 23.66 23.66s23.66-10.59 23.66-23.66-10.59-23.66-23.66-23.66-23.66 10.59-23.66 23.66Z"></path><circle cx="234.16" cy="178.69" r="23.66"></circle><circle cx="288.34" cy="178.69" r="23.66"></circle><circle cx="342.53" cy="178.69" r="23.66"></circle><circle cx="260.9" cy="131.37" r="23.66"></circle><circle cx="315.08" cy="131.37" r="23.66"></circle><circle cx="288.34" cy="84.05" r="23.66"></circle><path d="M311.83 465.55v-18.48c-10.07-1.02-18.74-6.76-23.84-14.95-5.04 8.09-13.57 13.78-23.48 14.9v18.53c0 15.89-12.88 28.77-28.77 28.77h-28.85v16.47h162.55v-16.47h-28.85c-15.89 0-28.77-12.88-28.77-28.77Z"></path><path d="M293.73 2.29 289.23 0l-4.5 2.29C109.1 91.66 0 269.5 0 466.4c0 10.21.34 20.92 1 31.85l.31 5 4.2 2.72c84.24 54.64 182.04 83.53 282.84 83.53s200.04-29.31 284.73-84.77l4.18-2.74.29-4.99c.62-10.72.92-20.73.92-30.6 0-196.9-109.11-374.74-284.73-464.12Zm264.28 488.57c-80.49 51.57-173.62 78.8-269.66 78.8s-187.78-26.83-267.83-77.62c-.45-8.79-.68-17.39-.68-25.64-.01-187.71 103.09-357.41 269.39-444.12 166.31 86.71 269.4 256.41 269.4 444.13 0 7.94-.21 15.98-.62 24.46Z"></path></svg>