<svg xmlns="http://www.w3.org/2000/svg" width="619.4" viewBox="0 0 619.4 619.4" height="619.4" xml:space="preserve" style="enable-background:new 0 0 619.4 619.4"><path d="M22.2 345.8c12.1 0 21.9-9.8 21.9-21.9v-13.1s2.1-49.1 18.6-66.7l-1.1 176.6c0 11.2 9.2 20.3 20.3 20.3 11.2 0 20.3-9.2 20.3-20.3v-119c0-.9.7-1.7 1.7-1.7h6c.9 0 1.7.7 1.7 1.7v140.9c0 11.2 9.2 20.3 20.3 20.3s20.3-9.2 20.3-20.3v-140c0-.9.7-1.7 1.7-1.7h6c.9 0 1.7.7 1.7 1.7V431c0 11.2 9.2 20.3 20.3 20.3 11.2 0 20.3-9.2 20.3-20.3V302.5c0-.9.7-1.7 1.7-1.7h6c.9 0 1.7.7 1.7 1.7v103.9c0 11.2 9.2 20.3 20.3 20.3 11.2 0 20.3-9.2 20.3-20.3V261.5h-39.9c-16.4 0-29.7-13.3-29.7-29.7 0-7.8 3.1-15 8-20.3h-3c-16.4 0-29.7-13.3-29.7-29.7 0-8.5 3.6-16.2 9.4-21.6-12.1-3.8-20.9-15.1-20.9-28.4 0-16.4 13.3-29.7 29.7-29.7h.2c-5-5.3-8-12.4-8-20.3 0-16.4 13.3-29.7 29.7-29.7l54.2.3v-47C108.5 32.9 0 159.2 0 310.7c0 5.1.1 10.1.4 15.1 1 11.2 10.3 20 21.8 20z" class="st0"></path><path d="M323.9 575.4h-13.1s-49.1-2.1-66.7-18.6l176.6 1.1c11.2 0 20.3-9.2 20.3-20.3 0-11.2-9.2-20.3-20.3-20.3h-119c-.9 0-1.7-.7-1.7-1.7v-6c0-.9.7-1.7 1.7-1.7h140.9c11.2 0 20.3-9.2 20.3-20.3 0-11.2-9.2-20.3-20.3-20.3h-140c-.9 0-1.7-.7-1.7-1.7v-6c0-.9.7-1.7 1.7-1.7H431c11.2 0 20.3-9.2 20.3-20.3 0-11.2-9.2-20.3-20.3-20.3H302.5c-.9 0-1.7-.7-1.7-1.7v-6c0-.9.7-1.7 1.7-1.7h103.9c11.2 0 20.3-9.2 20.3-20.3 0-11.2-9.2-20.3-20.3-20.3H261.5v39.9c0 16.4-13.3 29.7-29.7 29.7-7.8 0-15-3.1-20.3-8v3c0 16.4-13.3 29.7-29.7 29.7-8.5 0-16.2-3.6-21.6-9.4-3.8 12.1-15.1 20.9-28.4 20.9-16.4 0-29.7-13.3-29.7-29.7v-.2c-5.3 5-12.4 8-20.3 8-16.4 0-29.7-13.3-29.7-29.7l.3-54.2h-47C32.8 510.9 159 619.5 310.6 619.5c5.1 0 10.1-.1 15.1-.4 11.2-1 19.9-10.4 19.9-21.8.2-12.1-9.6-21.9-21.7-21.9z" class="st0"></path><path d="M619.1 293.6c-1-11.2-10.4-19.9-21.8-19.9-12.1 0-21.9 9.8-21.9 21.9v13.1s-2.1 49.1-18.6 66.7l1.1-176.6c0-11.2-9.2-20.3-20.3-20.3-11.2 0-20.3 9.2-20.3 20.3v119c0 .9-.7 1.7-1.7 1.7h-6c-.9 0-1.7-.7-1.7-1.7V176.9c0-11.2-9.2-20.3-20.3-20.3-11.2 0-20.3 9.2-20.3 20.3v140c0 .9-.7 1.7-1.7 1.7h-6c-.9 0-1.7-.7-1.7-1.7V188.5c0-11.2-9.2-20.3-20.3-20.3-11.2 0-20.3 9.2-20.3 20.3V317c0 .9-.7 1.7-1.7 1.7h-6c-.9 0-1.7-.7-1.7-1.7V213.1c0-11.2-9.2-20.3-20.3-20.3-11.2 0-20.3 9.2-20.3 20.3v144.8h39.9c16.4 0 29.7 13.3 29.7 29.7 0 7.8-3.1 15-8 20.3h3c16.4 0 29.7 13.3 29.7 29.7 0 8.5-3.6 16.2-9.4 21.6 12.1 3.8 20.9 15.1 20.9 28.4 0 16.4-13.3 29.7-29.7 29.7h-.2c5 5.3 8 12.4 8 20.3 0 16.4-13.3 29.7-29.7 29.7l-54.2-.3v47c143.6-27.4 252.2-153.6 252.2-305.2-.1-5.2-.2-10.2-.4-15.2z" class="st0"></path><path d="M295.5 44.1h13.1s49.1 2.1 66.7 18.6l-176.6-1.1c-11.2 0-20.3 9.2-20.3 20.3 0 11.2 9.2 20.3 20.3 20.3h119c.9 0 1.7.7 1.7 1.7v6c0 .9-.7 1.7-1.7 1.7H176.9c-11.2 0-20.3 9.2-20.3 20.3 0 11.2 9.2 20.3 20.3 20.3h140c.9 0 1.7.7 1.7 1.7v6c0 .9-.7 1.6-1.7 1.6H188.5c-11.2 0-20.3 9.2-20.3 20.3 0 11.2 9.2 20.3 20.3 20.3H317c.9 0 1.7.7 1.7 1.7v6c0 .9-.7 1.7-1.7 1.7H213.1c-11.2 0-20.3 9.2-20.3 20.3s9.2 20.3 20.3 20.3h144.8v-39.9c0-16.4 13.3-29.7 29.7-29.7 7.8 0 15 3.1 20.3 8v-3c0-16.4 13.3-29.7 29.7-29.7 8.5 0 16.2 3.6 21.6 9.4 3.8-12.1 15.1-20.9 28.4-20.9 16.4 0 29.7 13.3 29.7 29.7v.2c5.3-5 12.4-8 20.3-8 16.4 0 29.7 13.3 29.7 29.7l-.3 54.2h47C586.5 108.5 460.3 0 308.7 0c-5.1 0-10.1.1-15.1.4-11.2 1-19.9 10.4-19.9 21.8-.1 12.1 9.7 21.9 21.8 21.9z" class="st0"></path></svg>