<svg data-name="Layer 1" xmlns="http://www.w3.org/2000/svg" viewBox="0 0 539.56 611.74"><path d="M269.78 389.2 40.09 283.81 0 302.21l269.78 123.78 269.78-123.78-40.09-18.4L269.78 389.2z"></path><path d="M269.78 451.12 40.09 345.73 0 364.12l269.78 123.79 269.78-123.79-40.09-18.39-229.69 105.39z"></path><path d="M269.78 513.03 40.09 407.64 0 426.04l269.78 123.79 269.78-123.79-40.09-18.4-229.69 105.39z"></path><path d="M269.78 574.95 40.09 469.56 0 487.96l269.78 123.78 269.78-123.78-40.09-18.4-229.69 105.39zM539.56 240.29 286.61 124.23c-1.62-24.2-4.52-71.09-4.52-71.09l-3.82-3.13-3.2-47.48c-.23-3.37-5.19-3.37-5.41 0l-3.2 47.48-3.82 3.13s-2.72 43.88-4.36 68.65L0 240.29l269.78 123.79 269.78-123.79Z"></path></svg>