<svg xmlns="http://www.w3.org/2000/svg" width="598.8" viewBox="0 0 598.8 309.2" height="309.2" xml:space="preserve"><path d="M598.1 0H496.7c-29.7 0-57.4 8.5-81 23.1H244.2c-7.9 4.9-15.4 10.5-22.3 16.7H49.3v3.7h549.5V0h-.7zM363.7 76H192.2c-3.2 5.4-6.1 11-8.6 16.7H12.7v3.7h586.1V52.9H380.5c-6.2 7.1-11.9 14.9-16.8 23.1zM353 211.5c3.2 8.1 7.1 15.8 11.6 23.1H193.1c3.6 5.8 7.5 11.4 11.8 16.7H36.3v3.7h562.5v-43.6H353zM418 287.5H246.5c12.4 7.4 28.8 14.3 43 18H133.6v3.7h464.6l.6-.6v-44.2H388.2c8.9 8.9 18.9 16.7 29.8 23.1zM438.8 149.4c1.7-18.3 12-34.2 26.8-43.6H350.1c-2.5 7.5-4.4 15.2-5.8 23.1H172.8c-.9 5.5-1.6 11.1-1.9 16.7H0v3.7h438.8zM463.8 202.2c-14.2-9.7-23.8-25.5-25.1-43.6h-96.6c.2 7.9 1 15.6 2.4 23.1H173c1 5.7 2.4 11.3 4 16.7H7.8v3.7h456z"></path></svg>