<svg xmlns="http://www.w3.org/2000/svg" width="642" viewBox="0 0 642 304.15" height="304.15" data-name="Layer 1"><path d="M127.95 226.67c-5.52 10.98-16.95 18.49-30.05 18.49-18.62 0-33.71-15.09-33.71-33.71s15.09-33.7 33.71-33.7c13.1 0 24.52 7.51 30.05 18.49h176.2V107.9h-176.2c-5.52 10.98-16.95 18.49-30.05 18.49-18.62 0-33.71-15.09-33.71-33.7S79.28 58.98 97.9 58.98c13.1 0 24.52 7.51 30.05 18.49h176.2V0H0v304.15h304.15v-77.47h-176.2ZM337.85 0v304.15h77.46V127.93c-10.98-5.52-18.49-16.95-18.49-30.05 0-18.62 15.09-33.71 33.71-33.71s33.71 15.09 33.71 33.71c0 13.1-7.45 24.46-18.43 29.98v176.28h88.27V127.93c-10.98-5.52-18.49-16.95-18.49-30.05 0-18.62 15.09-33.71 33.71-33.71S583 79.26 583 97.88c0 13.1-7.45 24.46-18.43 29.98v176.28H642V0H337.85Z"></path></svg>