<svg xmlns="http://www.w3.org/2000/svg" width="595.8" viewBox="0 0 595.8 523.3" height="523.3"><path d="M532.2 392.7h33.3v-65.9l-65-65h33v-64.6L336.5.2l-74-.2 98.8 129.4-27.1-.1L205.3.2l-74-.2 98.8 129.4-27.1-.1L74 .2 0 0l98.8 129.4-67.2-.2 98.8 129.4-68.8-.2 205.2 264.9h66.4v-67l-63.6-63.6h25.8L398 523.3h66.4v-67l-63.6-63.6h25.8l102.6 130.6h66.4v-67l-63.4-63.6zM334.3 5.6l191.6 191.6h-58.6L275.6 5.4l58.7.2zm31.6 129.2l191.8 192h-58.6L402.3 230v-32.8l-62.6-62.6 26.2.2zM203 5.6l191.3 191.7h-58.6L144.3 5.4l58.7.2zm31.6 129.2l128 128 1.1 1.1 62.9 62.9h-58.5l-97-97v-32.4l-62.6-62.6h26.1zM71.7 5.6l191.5 191.7h-58.6L13 5.4l58.7.2zm31.6 129.2l191.7 192h-58.6L44.6 134.6l58.7.2zm163.6 321.4L74.6 263.8l58.7.2 192.1 192.3h-58.5zm190.2 0h-58.6l-95.6-95.5v-34L240 263.9l24.6.1 125 124.9 3.7 3.8 63.8 63.5zm72.4 0l-95.3-95.4v-34.1l-62.9-62.9 24.6.1L588 456.2h-58.5z"></path></svg>