<svg xmlns="http://www.w3.org/2000/svg" width="642" viewBox="0 0 642 642" height="642" style="overflow:visible;enable-background:new 0 0 642 642" xml:space="preserve"><path d="M248.5 234.7 364.6 2c-6.3-.8-12.6-1.5-18.9-2L228.9 256.1c5.6-7.9 12.2-15.1 19.6-21.4zM263.9 4.1c-6.3 1.1-12.5 2.4-18.6 3.9l-31.8 279.2c2.9-9.2 7-17.8 12-25.8L263.9 4.1zM211.7 293.9l-43-256.7c-5.6 3-11.1 6.2-16.5 9.5l56.1 275.9c0-.5-.1-1.1-.1-1.6.1-9.3 1.4-18.4 3.5-27.1zM88.5 98.3c-4.4 4.6-8.6 9.3-12.8 14.1l138.6 245c-3.1-9-5-18.5-5.7-28.3L88.5 98.3zM31 180.9c-2.8 5.7-5.3 11.5-7.7 17.4L231 388.7c-5.9-7.8-10.8-16.3-14.5-25.4L31 180.9zM234.7 393.5 2 277.4c-.8 6.3-1.5 12.6-2 18.9L256.1 413c-7.9-5.5-15.1-12.1-21.4-19.5zM4.1 378.1c1.1 6.3 2.4 12.5 3.9 18.6l279.2 31.8c-9.2-2.9-17.8-7-25.8-12L4.1 378.1zM293.9 430.3l-256.7 43c3 5.6 6.2 11.1 9.5 16.5l275.9-56.1c-.5 0-1.1.1-1.6.1-9.3-.1-18.4-1.4-27.1-3.5zM98.3 553.5c4.6 4.4 9.3 8.6 14.1 12.8l245-138.6c-9 3.1-18.5 5-28.3 5.7L98.3 553.5zM180.9 611c5.7 2.8 11.5 5.3 17.4 7.7L388.7 411c-7.8 5.9-16.3 10.8-25.4 14.5L180.9 611zM393.5 407.3 277.4 640c6.3.8 12.6 1.5 18.9 2L413 385.9c-5.5 7.9-12.1 15.1-19.5 21.4zM378.1 637.9c6.3-1.1 12.5-2.4 18.6-3.9l31.8-279.2c-2.9 9.2-7 17.8-12 25.8l-38.4 257.3zM430.3 348.1l43 256.7c5.6-3 11.1-6.2 16.5-9.5l-56.1-275.9c0 .5.1 1.1.1 1.6-.1 9.3-1.4 18.4-3.5 27.1zM553.5 543.7c4.4-4.6 8.6-9.3 12.8-14.1l-138.6-245c3.1 9 5 18.5 5.7 28.3l120.1 230.8zM611 461.1c2.8-5.7 5.3-11.5 7.7-17.4L411 253.3c5.9 7.8 10.8 16.3 14.5 25.4L611 461.1zM407.3 248.5l232.7 116c.8-6.3 1.5-12.6 2-18.9L385.9 228.9c7.9 5.6 15.1 12.2 21.4 19.6zM637.9 263.9c-1.1-6.3-2.4-12.5-3.9-18.6l-279.2-31.8c9.2 2.9 17.8 7 25.8 12l257.3 38.4zM348.1 211.7l256.7-43c-3-5.6-6.2-11.1-9.5-16.5l-275.9 56.1c.5 0 1.1-.1 1.6-.1 9.3.1 18.4 1.4 27.1 3.5zM543.7 88.5c-4.6-4.4-9.3-8.6-14.1-12.8l-245 138.6c9-3.1 18.5-5 28.3-5.7L543.7 88.5zM461.1 31c-5.7-2.8-11.5-5.3-17.4-7.7L253.3 231c7.8-5.9 16.3-10.8 25.4-14.5L461.1 31z"></path></svg>