<svg data-name="Layer 1" xmlns="http://www.w3.org/2000/svg" viewBox="0 0 620.65 540.65"><path d="m618.86 352.11-26.03-43.83c-3.15-5.3-8.86-8.55-15.03-8.55H331.67c-9.65 0-15.7 10.44-10.89 18.81l25.25 43.96c3.12 5.43 8.9 8.77 15.15 8.77h246.77c9.83 0 15.92-10.7 10.9-19.16ZM543.3 392.95c-3.15-5.3-8.86-8.55-15.03-8.55H282.14c-9.65 0-15.7 10.44-10.89 18.81l25.25 43.96c3.12 5.43 8.9 8.77 15.15 8.77h246.77c9.83 0 15.92-10.7 10.9-19.16l-26.03-43.83ZM493.78 477.49c-3.15-5.3-8.86-8.55-15.03-8.55H232.62c-9.65 0-15.7 10.44-10.89 18.81l25.25 43.96c3.12 5.43 8.9 8.77 15.15 8.77H508.9c9.83 0 15.92-10.7 10.9-19.16l-26.03-43.83ZM289.85 299.73l-50.7-.04c-6.26 0-12.04 3.34-15.16 8.76L101 521.48c-4.9 8.52 1.34 19.14 11.17 19l51.61.16c6.17-.08 11.83-3.41 14.91-8.76l122.03-213.34c4.81-8.37-1.22-18.81-10.87-18.82ZM129.06 446.19l122.03-213.34c4.81-8.37-1.22-18.81-10.87-18.82l-50.7-.04c-6.26 0-12.04 3.34-15.16 8.76L51.37 435.78c-4.9 8.52 1.34 19.14 11.17 19l51.61.16c6.17-.08 11.83-3.41 14.91-8.76ZM79.4 360.48l122.03-213.34c4.81-8.37-1.22-18.81-10.87-18.82l-50.7-.04c-6.26 0-12.04 3.34-15.16 8.76L1.71 350.07c-4.9 8.52 1.34 19.14 11.17 19l51.61.16c6.17-.08 11.83-3.41 14.91-8.76ZM299.4 281.38c4.83 8.36 16.89 8.37 21.74.02l25.44-43.85c3.14-5.41 3.15-12.09.02-17.51L222.7 6.35c-4.92-8.51-17.23-8.44-22.04.14l-24.94 44.46c-3.02 5.38-2.98 11.95.11 17.29L299.4 281.39ZM397.68 281.38c4.83 8.36 16.89 8.37 21.73.02l25.44-43.85c3.14-5.41 3.15-12.09.02-17.51L320.99 6.35c-4.92-8.51-17.23-8.44-22.04.14l-24.94 44.46c-3.02 5.38-2.98 11.95.11 17.29l123.57 213.15ZM496.51 281.37c4.83 8.36 16.89 8.37 21.73.02l25.44-43.85c3.14-5.41 3.15-12.09.02-17.51L419.82 6.34c-4.92-8.51-17.23-8.44-22.04.14l-24.94 44.46c-3.02 5.38-2.98 11.95.11 17.29l123.57 213.15Z"></path></svg>