<svg xmlns="http://www.w3.org/2000/svg" width="539.7" viewBox="0 0 539.7 614.6" height="614.6" xml:space="preserve" style="enable-background:new 0 0 539.7 614.6"><path d="M282.2 0h-24.6v188.9l-27.1-15.6V2.1c-8.3 1.2-16.5 2.8-24.6 4.8v152.3l-27.1-15.6V14.9c-8.4 3-16.6 6.4-24.6 10.2v44.5l-38.5-22.2c-7.3 5.1-14.3 10.5-21.1 16.2L154.2 98v31.3L74 83c-5.8 6-11.3 12.4-16.5 18.9l224.6 129.7V0zM498 124.1l-164.1 94.8v-31.3L482.2 102c-5.2-6.6-10.7-13-16.5-19l-131.8 76.1v-31.3l111.3-64.2c-6.8-5.7-13.8-11.2-21.1-16.2l-38.5 22.2V25.1c-8-3.8-16.2-7.2-24.6-10.2v68.9l-27.1 15.6V6.8c-8.1-2-16.3-3.6-24.6-4.8v259.4l201-116.1c-3.8-7.2-7.9-14.4-12.3-21.2M269.9 255.7 29.4 394.6c3.8 7.3 7.9 14.4 12.3 21.3L154.2 351v31.3L57.6 438a248 248 0 0 0 16.5 18.9l80.1-46.3v31.2l-59.6 34.4c6.8 5.7 13.8 11.2 21.1 16.2l38.5-22.2v144.2h24.6V336.8l27.1-15.6v293.4h24.6V306.9l27.1-15.6v323.3h24.6V291.3l27.1 15.6v307.7h24.6V321.1l27.1 15.6v277.8h24.6V470.3l38.5 22.2c7.3-5.1 14.3-10.5 21.1-16.2l-59.6-34.4v-31.3l80.2 46.3c5.8-6 11.3-12.4 16.5-18.9l-96.6-55.8V351L498 415.9c4.4-6.9 8.5-14 12.3-21.3L269.9 255.7zM242.8 240.1 41.7 124c-4.4 6.9-8.5 14-12.3 21.3l164.1 94.8-27.1 15.6-148.3-85.6c-3.1 7.7-5.8 15.7-8.1 23.7L141.9 270l-27.1 15.6L3.5 221.3C1.9 230 .7 238.8 0 247.7L38.5 270 0 292.2c.7 8.9 1.9 17.8 3.5 26.4l59.6-34.4 27.1 15.6L10 346.1c2.4 8.1 5.1 16 8.1 23.7l224.7-129.7zM536.3 318.6c1.6-8.7 2.7-17.5 3.5-26.4L501.2 270l38.5-22.2c-.7-8.9-1.9-17.8-3.5-26.4l-59.6 34.4-27.1-15.6 80.2-46.3c-2.4-8.1-5.1-16-8.1-23.7l-173 99.9 173 99.9c3.1-7.7 5.8-15.7 8.1-23.7L397.9 270l27.1-15.6 111.3 64.2z"></path></svg>