<svg id="Layer_1" data-name="Layer 1" xmlns="http://www.w3.org/2000/svg" viewBox="0 0 629.14 629.14">   <path d="M427.59,325.47c-37.37-73.45-113.65-123.92-201.55-123.92C101.4,201.55,0,302.95,0,427.59H48.97c0-97.64,79.43-177.07,177.07-177.07s177.07,79.43,177.07,177.07h48.97c0-97.64,79.43-177.07,177.07-177.07v-48.97c-87.9,0-164.18,50.47-201.55,123.92Z"></path>   <path d="M226.04,48.97V0C101.4,0,0,101.4,0,226.03H48.97c0-97.63,79.43-177.07,177.07-177.07Z"></path>   <path d="M403.11,226.03h48.97c0-97.63,79.43-177.07,177.07-177.07V0c-124.64,0-226.03,101.4-226.03,226.03Z"></path>   <path d="M0,629.14H48.97c0-97.63,79.43-177.07,177.07-177.07v-48.97C101.4,403.11,0,504.5,0,629.14Z"></path>   <path d="M403.11,629.14h48.97c0-97.63,79.43-177.07,177.07-177.07v-48.97c-124.64,0-226.03,101.4-226.03,226.03Z"></path> </svg>