<svg xmlns="http://www.w3.org/2000/svg" width="406.8" viewBox="0 0 406.8 629.1" height="629.1" xml:space="preserve" style="enable-background:new 0 0 406.8 629.1"><path d="M191.7 120.9H0v508.2h23.8c42.7 0 82.9-15.1 113.2-42.4 32.7-29.5 51.6-70.8 54.7-119.3.2-3.5 0-346.5 0-346.5zM169.6 143v294.4H22.1V143h147.5zm0 322.9C163.4 562.9 89.7 607 23.8 607h-1.7V459.5h147.7c-.1 2.9-.1 5.3-.2 6.4zM238.9 120.9h-21.2v339.2h189.1V275.6c0-82.4-78.4-154.7-167.9-154.7zM384.7 438H239.8V143c38.2.2 74.6 15 102.7 41.7 26.8 25.5 42.2 58.6 42.2 90.9V438zM191.8 0H0v94.9h191.8V0zm-22.1 72.8H22.1V22.1h147.6v50.7z"></path></svg>