<svg data-name="Layer 1" xmlns="http://www.w3.org/2000/svg" viewBox="0 0 607.64 607.64"><path d="M303.82 0C158.4 0 36.91 102.2 7.08 238.67l121.46 14.97c3.28-9.72 29.31-76.42 126.31-76.42 30.03 0 58.27 11.27 84.2 25.55 27 14.86 48.71 36.43 73.25 54.78 24.22 18.12 50.38 33.97 77.69 46.84 35.41 16.69 77.72 23.92 116.68 22.54.57-7.64.96-15.32.96-23.11C607.64 136.03 471.62 0 303.82 0ZM284.12 471.28s-26.75-26.94-63.49-107.11c-10.42-22.73-24.54-38.85-39.39-50.28-20.08-15.45-43.89-23.5-68.71-27.21-5.26-.57-84.98-12.65-110.63-16.54C.68 281.21 0 292.43 0 303.83c0 167.8 136.03 303.82 303.82 303.82 55.29 0 107.08-14.84 151.74-40.65-93.09 7.41-171.44-95.72-171.44-95.72Z"></path><path d="M250.76 249.01c0-10.77-8.73-19.5-19.5-19.5s-19.5 8.73-19.5 19.5 8.73 19.5 19.5 19.5 19.5-8.73 19.5-19.5Z"></path></svg>