<svg xmlns="http://www.w3.org/2000/svg" width="600.1" viewBox="0 0 600.1 600.1" height="600.1"><path d="M600.1 225.6V0H0v225.6h188.3v374.5h227.8V533c-15.4 9.2-33.6 14.5-53.9 14.5-46.5 0-88.8-29.2-87.6-77.8.6-24.4 12.7-42.3 29.6-58-.3-.1-.7-.1-1-.2h-50.6c-7.2 0-13.1-5.8-13.1-13s5.8-13.1 13-13.1h39.7l19.7-14.2s20.2-16.7 32.9-17.5c57.6-3.7 60.1 84.4 2.2 84.3h69.2V225.6h183.9zM376.3 52.3H416l19.7-14.2s20.2-16.7 32.9-17.5c57.6-3.7 60.1 84.4 2.2 84.3H590c.1 62.7-43.2 109.5-104 109.5-46.5 0-88.8-29.2-87.6-77.8.6-24.5 12.7-42.3 29.6-58-.4-.1-.7-.1-1-.2h-50.7c-7.2 0-13.1-5.9-13.1-13.1 0-7.2 5.9-13 13.1-13zm-74.1 282.8c-46.5 0-88.8-29.2-87.6-77.8.6-24.5 12.7-42.3 29.6-58.1-.4-.1-.7-.1-1.1-.2h-50.6c-7.2 0-13-5.9-13-13.1 0-7.2 5.8-12.9 13-13h39.7l19.7-14.2s20.2-16.7 32.8-17.5c57.6-3.7 60.1 84.4 2.2 84.3h119.3c.1 62.8-43.1 109.6-104 109.6zm-25-172.3c-5.4 0-9.9 4.4-9.8 9.9 0 5.4 4.4 9.9 9.9 9.8 5.4 0 9.9-4.4 9.8-9.9-.1-5.3-4.5-9.8-9.9-9.8zm60 212.4c-5.4 0-9.8 4.4-9.8 9.9 0 5.4 4.4 9.8 9.9 9.8 5.4 0 9.8-4.4 9.8-9.8s-4.4-9.9-9.9-9.9zM461 61.8c5.4 0 9.9-4.4 9.8-9.9 0-5.4-4.4-9.9-9.9-9.8-5.4 0-9.8 4.4-9.8 9.9 0 5.4 4.4 9.8 9.9 9.8-.1 0-.1 0 0 0z"></path></svg>