<svg xmlns="http://www.w3.org/2000/svg" width="624.4" viewBox="0 0 624.4 623" height="623" xml:space="preserve" style="enable-background:new 0 0 624.4 623"><path d="M194.1 198.3c4.8-.3 4.8-.3 251.6 0L240.4 405.6H421c120.6 0 203.3-91.2 203.3-203.3v-3.8C619.8 88.1 528.9 0 417.4 0h-209C94.1 0 1.5 92.7 1.5 207v114.8C36.5 251.5 111 201 194.1 198.3z"></path><path d="M425.2 425.6H194.6l205.3-209.2H203.3C91.6 216.4 1 306.4 0 417.8 1 530 91.3 620.9 203.3 622.9l214.2.1c114.3 0 207-92.7 207-207V300.4c-36 73.4-112.5 125.2-199.3 125.2z"></path></svg>