<svg version="1.0" xmlns="http://www.w3.org/2000/svg" width="374.6" viewBox="0 0 374.6 614.9" height="614.9" xml:space="preserve" style="enable-background:new 0 0 374.6 614.9"><path d="M374.6 179.3C370.2 75.9 282.9-4.2 179.6.2S-3.9 91.9.5 195.3c4.3 100.1 86.6 179.1 186.9 179.3h179.5c-5.8-19.2-14.6-37.4-26.2-53.9H186.9C113 320.7 53 260.8 53 186.9S112.9 53 186.8 53s133.9 59.9 133.9 133.8v26.8h53.5v-34.4l.4.1zM318 561.5c-72.7 71.2-189 71.2-261.7 0H318z" class="st0"></path><path d="M294.5 182.2C292 123.1 242 77.2 182.9 79.8s-105 52.5-102.4 111.7C82.9 248.7 130 293.9 187.3 294h130.8c-34.9-34.2-81.9-53.5-130.8-53.6-29.6-.1-53.4-24.2-53.3-53.8.1-29.6 24.2-53.4 53.8-53.3 28.3.1 51.6 22.2 53.2 50.4v29.9h53.5v-31.4zM1.9 401h138.9c-4.6 8.2-7.1 17.4-7.1 26.7.2 9.4 2.8 18.7 7.6 26.8H2c-1.3-8.9-1.9-17.9-2-26.9.1-8.8.7-17.7 1.9-26.6zM7.9 481.3h358.6c-2.9 9.1-6.3 18-10.2 26.7-4.5 9.5-9.8 18.5-15.9 27H33.6c-11.2-16.5-19.9-34.5-25.8-53.5l.1-.2zM372.7 401H233.8c4.6 8.2 7.1 17.4 7.1 26.7-.2 9.4-2.8 18.7-7.6 26.8h139.4c1.3-8.9 1.9-17.9 2-26.9-.1-8.8-.8-17.7-2-26.6z" class="st0"></path></svg>