<svg data-name="Layer 1" xmlns="http://www.w3.org/2000/svg" viewBox="0 0 610.91 583.48"><path d="M610.91 125.97h-104.9L438.57 0l-67.44 125.97H239.78L172.34 0 104.9 125.97H0l135.08 400.92h96.53c8.83 32.55 38.54 56.59 73.85 56.59s65.02-24.04 73.85-56.59h96.53l135.07-400.92ZM172.34 226.89c-35.77 0-64.76-28.99-64.76-64.76 0-10.55 2.58-20.48 7.05-29.28l57.71-107.79 57.71 107.79c4.48 8.8 7.05 18.73 7.05 29.28 0 35.77-28.99 64.76-64.76 64.76Zm133.12 344.77c-35.77 0-64.76-28.99-64.76-64.76 0-10.55 2.58-20.48 7.05-29.28l57.71-107.79 57.71 107.79c4.48 8.8 7.05 18.73 7.05 29.28 0 35.77-28.99 64.76-64.76 64.76Zm68.36-409.53c0-10.55 2.58-20.48 7.05-29.28l57.71-107.79 57.71 107.79c4.48 8.8 7.05 18.73 7.05 29.28 0 35.77-28.99 64.76-64.76 64.76s-64.76-28.99-64.76-64.76Z"></path></svg>