<svg data-name="Layer 1" xmlns="http://www.w3.org/2000/svg" viewBox="0 0 599.8 453.59"><path d="M391.29 58.61c10.2-10.19 6.64-30.28-7.93-44.85C368.78-.82 348.7-4.37 338.51 5.83c-10.19 10.2-6.64 30.28 7.93 44.85 14.58 14.58 34.66 18.13 44.85 7.93ZM522.12 190.39c6.2-6.2 4.04-18.41-4.83-27.28-8.86-8.86-21.08-11.02-27.28-4.83s-4.04 18.41 4.83 27.28c8.86 8.86 21.08 11.02 27.28 4.83ZM505.05 310.76V203.55c-12.54-2.93-25.06-15.44-28.11-27.78-69.82-5.08-131.27 47.22-136.54 115.19-1.18 21.6-.2 59.25-.51 80.78h-17.56c.76-66.14-9.15-118.41 40.88-170.05V80.24c-20.62-4.82-41.2-25.39-46.22-45.68-120.52-8.57-225.9 85.69-225.35 207.51v69.51C35.17 326.6 0 347.65 0 370.98c0 45.62 134.27 82.6 299.9 82.6s299.9-36.98 299.9-82.6c0-23.76-36.45-45.16-94.76-60.23ZM255.08 143.99c-10.19 10.19-30.28 6.64-44.85-7.93-14.58-14.58-18.13-34.66-7.93-44.85 10.19-10.2 30.28-6.64 44.85 7.93 14.58 14.58 18.13 34.66 7.93 44.85Zm184.21 98.32c-15.34 14.27-46.37-16.77-32.1-32.1 15.34-14.27 46.37 16.77 32.1 32.1Z"></path></svg>