<svg data-name="Layer 1" xmlns="http://www.w3.org/2000/svg" viewBox="0 0 597.54 597.54"><path d="M0 0v297.72l21.41 38L0 373.73v12.42l21.41 38-21.41 38v12.42l21.41 38L.02 550.53l-.02-.04V563l.02-.04 19.49 34.58h10.85L49.82 563l19.46 34.54H80.18L99.64 563l19.46 34.54H130L149.46 563l19.46 34.54H179.82L199.28 563l19.46 34.54H229.64L249.1 563l19.46 34.54H279.46L298.92 563l19.46 34.54H329.28L348.74 563l19.46 34.54H379.1L398.56 563l19.46 34.54H428.92L448.38 563l19.46 34.54H478.74L498.2 563l19.46 34.54H528.56L548.02 563l19.46 34.54H578.38l19.11-33.92v-13.68l-21.06-37.37 21.06-37.37v-13.68l-21.06-37.37 21.06-37.38V373.1l-21.06-37.37 21.06-37.38V0H0Zm71.24 424.15-21.41 38-21.41-38 21.41-38.01 21.41 38.01Zm-17.91-44.21 21.41-38.01 21.41 38.01-21.41 38-21.41-38Zm21.41 50.42 21.41 38-21.41 38-21.41-38 21.41-38Zm3.5-6.21 21.41-38.01 21.41 38.01-21.41 38-21.41-38Zm24.91-44.21 21.41-38.01 21.41 38.01-21.41 38-21.41-38Zm21.41 50.42 21.41 38-21.41 38-21.41-38 21.41-38Zm3.5-6.21 21.41-38.01 21.41 38.01-21.41 38-21.41-38Zm24.91-44.21 21.41-38.01 21.41 38.01-21.41 38-21.41-38Zm21.41 50.42 21.41 38-21.41 38-21.41-38 21.41-38Zm3.5-6.21 21.41-38.01 21.41 38.01-21.41 38-21.41-38Zm24.91-44.21 21.41-38.01 21.41 38.01-21.41 38-21.41-38Zm21.41 50.42 21.41 38-21.41 38-21.41-38 21.41-38Zm3.5-6.21 21.41-38.01 21.41 38.01-21.41 38-21.41-38Zm24.91-44.21 21.41-38.01 21.41 38.01-21.41 38-21.41-38Zm21.41 50.42 21.41 38-21.41 38-21.41-38 21.41-38Zm3.5-6.21 21.41-38.01 21.41 38.01-21.41 38-21.41-38Zm24.91-44.21 21.41-38.01 21.41 38.01-21.41 38-21.41-38Zm21.41 50.42 21.41 38-21.41 38-21.41-38 21.41-38Zm3.5-6.21 21.41-38.01 21.41 38.01-21.41 38-21.41-38Zm24.91-44.21 21.41-38.01 21.41 38.01-21.41 38-21.41-38Zm21.41 50.42 21.41 38-21.41 38-21.41-38 21.41-38Zm3.5-6.21 21.41-38.01 21.41 38.01-21.41 38-21.41-38Zm24.91-44.21 21.41-38.01 21.41 38.01-21.41 38-21.41-38Zm21.41 50.42 21.41 38-21.41 38-21.41-38 21.41-38Zm3.5-6.21 21.41-38.01 21.41 38.01-21.41 38-21.41-38Zm24.91-44.21 21.41-38.01 21.41 38.01-21.41 38-21.41-38Zm21.41 50.42 21.41 38-21.41 38-21.41-38 21.41-38Zm3.5-6.21 21.41-38.01 21.41 38.01-21.41 38-21.41-38Zm24.91-44.21 21.41-38.01 21.41 38.01-21.41 38-21.41-38Zm21.41 50.42 21.41 38-21.41 38-21.41-38 21.41-38Zm3.5-6.21 21.41-38.01 21.41 38.01-21.41 38-21.41-38Zm0-88.43 21.41-38 21.41 38-21.41 38-21.41-38Zm14.42-38-17.91 31.79-17.91-31.79h35.83Zm-21.41 38-21.41 38-21.41-38 21.41-38 21.41 38Zm-28.41-38-17.91 31.79-17.91-31.79h35.83Zm-21.41 38-21.41 38-21.41-38 21.41-38 21.41 38Zm-28.41-38-17.91 31.79-17.91-31.79h35.83Zm-21.41 38-21.41 38-21.41-38 21.41-38 21.41 38Zm-28.41-38-17.91 31.79-17.91-31.79h35.83Zm-21.41 38-21.41 38-21.41-38 21.41-38 21.41 38Zm-28.41-38-17.91 31.79-17.91-31.79h35.83Zm-21.41 38-21.41 38-21.41-38 21.41-38 21.41 38Zm-28.41-38-17.91 31.79-17.91-31.79h35.83Zm-21.41 38-21.41 38-21.41-38 21.41-38 21.41 38Zm-28.41-38-17.91 31.79-17.91-31.79h35.83Zm-21.41 38-21.41 38-21.41-38 21.41-38 21.41 38Zm-28.41-38-17.91 31.79-17.91-31.79h35.83Zm-21.41 38-21.41 38-21.41-38 21.41-38 21.41 38Zm-28.41-38-17.91 31.79-17.91-31.79h35.83Zm-21.41 38-21.41 38-21.41-38 21.41-38 21.41 38Zm-28.41-38-17.91 31.79-17.91-31.79h35.83Zm-21.41 38-21.41 38-21.41-38 21.41-38 21.41 38ZM7 297.72h35.83l-17.91 31.79-17.91-31.79Zm-3.5 82.22 21.41-38.01 21.41 38.01-21.41 38-21.41-38Zm0 88.42 21.41-38 21.41 38-21.41 38-21.41-38Zm21.44 126.39-21.41-38 21.39-37.96 21.41 38-21.39 37.96Zm3.47-82.17 21.41-38 21.41 38-21.41 38-21.41-38Zm46.33 82.22-21.41-38 21.41-38 21.41 38-21.41 38Zm3.5-82.22 21.41-38 21.41 38-21.41 38-21.41-38Zm46.33 82.22-21.41-38 21.41-38 21.41 38-21.41 38Zm3.5-82.22 21.41-38 21.41 38-21.41 38-21.41-38Zm46.33 82.22-21.41-38 21.41-38 21.41 38-21.41 38Zm3.5-82.22 21.41-38 21.41 38-21.41 38-21.41-38Zm46.33 82.22-21.41-38 21.41-38 21.41 38-21.41 38Zm3.5-82.22 21.41-38 21.41 38-21.41 38-21.41-38Zm46.33 82.22-21.41-38 21.41-38 21.41 38-21.41 38Zm3.5-82.22 21.41-38 21.41 38-21.41 38-21.41-38Zm46.33 82.22-21.41-38 21.41-38 21.41 38-21.41 38Zm3.5-82.22 21.41-38 21.41 38-21.41 38-21.41-38Zm46.33 82.22-21.41-38 21.41-38 21.41 38-21.41 38Zm3.5-82.22 21.41-38 21.41 38-21.41 38-21.41-38Zm46.33 82.22-21.41-38 21.41-38 21.41 38-21.41 38Zm3.5-82.22 21.41-38 21.41 38-21.41 38-21.41-38Zm46.33 82.22-21.41-38 21.41-38 21.41 38-21.41 38Zm3.5-82.22 21.41-38 21.41 38-21.41 38-21.41-38Zm46.33 82.22-21.41-38 21.41-38 21.41 38-21.41 38Zm3.5-82.22 21.41-38 21.41 38-21.41 38-21.41-38Zm67.74 44.21-21.41 38-21.41-38 21.41-38 21.41 38Zm0-88.42-21.41 38-21.41-38 21.41-38 21.41 38Zm0-88.42-21.41 38-21.41-38 21.41-38.01 21.41 38.01Zm-21.41-50.42-17.91-31.79h35.83l-17.91 31.79Z"></path></svg>