<svg xmlns="http://www.w3.org/2000/svg" width="594.8" viewBox="0 0 594.8 625.2" height="625.2" xml:space="preserve"><path d="M381.3 562.5c-112.4 0-207.8-74.7-239-177 13.6 34.1 36.3 63.5 66.2 85.6 33.9 25 74.3 38.2 116.5 38.2 108.5 0 196.7-88.2 196.7-196.7S433.5 115.9 325 115.9c-42.3 0-82.6 13.2-116.5 38.2-29.9 22-52.6 51.5-66.2 85.6 31.3-102.3 126.6-177 239-177 86.2 0 165.2 43.6 211.4 116.5l2.2-1.2c-25.1-52.5-64.3-96.9-113.3-128.5C431.2 17.1 372.7 0 312.6 0c-83.5 0-162 32.5-221 91.6-59 59-91.6 137.5-91.6 221s32.5 162 91.6 221c59 59 137.5 91.6 221 91.6 60.2 0 118.6-17.1 168.9-49.5 49-31.6 88.2-76 113.3-128.5l-2.2-1.2c-46.1 72.9-125.1 116.5-211.3 116.5zM275 165c81.4 0 147.6 66.2 147.6 147.6 0 81.4-66.2 147.6-147.6 147.6-55 0-105.3-30.7-130.7-78.9 22 32.3 59.1 53.5 101 53.5 67.4 0 122.2-54.8 122.2-122.2s-54.8-122.2-122.2-122.2c-41.9 0-79 21.2-101 53.5C169.7 195.6 220 165 275 165z"></path></svg>