<svg xmlns="http://www.w3.org/2000/svg" width="487.9" viewBox="0 0 487.9 642" height="642" style="overflow:visible;enable-background:new 0 0 487.9 642" xml:space="preserve"><path d="M244 234.8c19-46 64.3-78.3 117.2-78.3 78.1 0 126.8 68.7 126.8 129.3 0 49.8-14.2 96.3-38.8 135.7C396 508 326.1 583.1 244 642 161.8 583.1 91.9 508 38.8 421.5 14.2 382.1 0 335.6 0 285.8c0-60.6 48.7-129.3 126.8-129.3 52.8 0 98.2 32.3 117.2 78.3z"></path><path d="M253.4 154.3s-16.6 5.1-51.5 4.4c-1.1-.3-59.8 2.5-102-31.8C46 83.1 38.4 15.1 38.6 15.7c46.5-12.9 106.9-5.5 154 29.3 31.5 27.1 53.8 65 60.8 109.3zM467 15.7c-10.5 26.9-30 51.2-51.4 70.4-85.8 77.2-166.5 22.8-169.4 22.4 30.5-90 134.9-134.3 220.8-92.8z"></path></svg>