<svg data-name="Layer 1" xmlns="http://www.w3.org/2000/svg" viewBox="0 0 498.66 613.23"><path d="M351.21 294.9c81.43 0 147.45-66.02 147.45-147.45C498.66 66.02 432.65 0 351.21 0h-.73c-81.43 0-147.45 66.02-147.45 147.45v55.6c0 .51-.41.92-.92.92H34c-.51 0-.92.41-.92.92v89.1c0 .51.41.92.92.92h168.11c.51 0 .92.41.92.92v21.59c0 .51-.41.92-.92.92h-54.66C66.02 318.33 0 384.34 0 465.78c0 81.43 66.02 147.45 147.45 147.45h.73c81.43 0 147.45-66.02 147.45-147.45v-55.6c0-.51.41-.92.92-.92h168.11c.51 0 .92-.41.92-.92v-89.1c0-.51-.41-.92-.92-.92H296.41c-.51 0-.92-.41-.92-.92v-21.59c0-.51.41-.92.92-.92h54.8Zm-55.58-147.08c0-33.19 29.29-59.54 63.43-54.62 27.23 3.92 47 28.05 47 55.56 0 30.49-24.72 55.21-55.21 55.21h-54.3c-.51 0-.92-.41-.92-.92v-55.24Zm-92.6 317.59c0 33.19-29.29 59.54-63.43 54.62-27.23-3.92-47-28.05-47-55.56 0-30.49 24.72-55.21 55.21-55.21h54.3c.51 0 .92.41.92.92v55.24Z"></path></svg>