<svg xmlns="http://www.w3.org/2000/svg" width="492.8" viewBox="0 0 492.8 584.2" height="584.2"><circle transform="rotate(-22.5 181.275 311.513)" cx="181.3" cy="311.5" r="51"></circle><circle cx="51" cy="311.5" r="51"></circle><path d="M311.5 260.5c-28.2 0-51 22.9-51 51v272.7h102.1V311.5c0-28.2-22.9-51-51.1-51zM181.3 390.7c-28.2 0-51 22.9-51 51v142.5h102.1V441.8c-.1-28.2-22.9-51.1-51.1-51.1z"></path><circle transform="rotate(-22.5 441.747 311.514)" cx="441.8" cy="311.5" r="51"></circle><circle transform="rotate(-80.781 181.287 181.281)" cx="181.3" cy="181.3" r="51"></circle><circle cx="51" cy="181.3" r="51"></circle><circle transform="rotate(-80.781 311.53 181.28)" cx="311.5" cy="181.3" r="51"></circle><circle transform="rotate(-22.5 441.748 181.278)" cx="441.8" cy="181.3" r="51"></circle><circle transform="rotate(-9.213 181.27 51.021)" cx="181.3" cy="51" r="51"></circle><circle transform="rotate(-9.213 311.498 51.01)" cx="311.5" cy="51" r="51"></circle></svg>