<svg xmlns="http://www.w3.org/2000/svg" width="626.4" viewBox="0 0 626.4 539.8" height="539.8" xml:space="preserve" style="enable-background:new 0 0 626.4 539.8"><path d="M404.3 539.8c-31.5 0-62.6-6.7-91.1-19.4-28.5 12.8-59.6 19.4-91.1 19.4C99.6 539.8 0 440.8 0 319V0h261.9v319c0 42.1 19.2 81.9 51.3 108.5 32.1-26.6 51.3-66.4 51.3-108.5V0h261.9v319c0 121.8-99.6 220.8-222.1 220.8zm-11.2-80c3.7.3 7.5.4 11.3.4 78.5 0 142.5-63.3 142.5-141.2V79.6H444.1V319c0 52-18.6 101.7-51 140.8zM79.6 79.6V319c0 77.9 63.9 141.2 142.5 141.2 3.8 0 7.5-.1 11.3-.4-32.4-39.1-51.1-88.7-51.1-140.7V79.6H79.6z"></path></svg>