<svg data-name="Layer 1" xmlns="http://www.w3.org/2000/svg" viewBox="0 0 534.86 598.46"><path d="M96.81 151.23c-10.67 11.54 6.22 27.7 17.28 16.53 10.67-11.54-6.22-27.7-17.28-16.53ZM267.43 100.11h.03c15.77-.4 15.77-23.51 0-23.91h-.06c-15.77.4-15.77 23.51 0 23.91h.03ZM438.06 151.23c-11.06-11.17-27.95 4.99-17.28 16.53 11.06 11.17 27.95-4.99 17.28-16.53Z"></path><path d="M395.58 419.43c-9.87-31.39-23.06-62.18-39-90.55 67.27-60.5 112.03-138.59 136.89-228.95.29-1.04-.67-2.04-1.72-1.79-57.81 13.5-113.4 34.97-159.73 65.63C322.19 108.11 299.17 52.31 268.64.7c-.27-.45-.73-.67-1.2-.69-.47.02-.93.24-1.2.69-30.54 51.62-53.55 107.41-63.38 163.07-46.33-30.66-101.92-52.13-159.73-65.63-1.05-.25-2.01.75-1.72 1.79 24.86 90.37 69.62 168.45 136.89 228.95-15.94 28.37-29.13 59.16-39 90.55C94.23 430.5 46.82 433.96.02 432.07c9.29 33.79 37.88 60.89 70.62 70.87 3.22 12.97 9.21 25.24 17.14 36.12 10.05 13.12 25.87 27.25 50.55 37.72.22-46.74 5.56-93.77 18.73-138.68 21.11-5.8 41.95-12.76 62.14-21.23 2.13-.89 4.21-1.89 6.33-2.81 7.91 21.78 17.91 42.94 29.1 63.48-23.23 40.36-53.67 77.16-87.58 109.78 40.72 17.14 70.48 13.07 100.4-2.42 29.93 15.49 59.68 19.56 100.4 2.42-33.91-32.62-64.35-69.42-87.58-109.78 11.19-20.54 21.19-41.7 29.1-63.48 2.12.93 4.21 1.92 6.33 2.82 20.18 8.47 41.03 15.42 62.14 21.22 13.17 44.91 18.51 91.94 18.73 138.68 24.68-10.46 40.49-24.6 50.55-37.72 7.94-10.88 13.92-23.14 17.14-36.12 32.74-9.98 61.33-37.08 70.62-70.87-46.8 1.89-94.21-1.58-139.28-12.64ZM117.14 538.65c-15.68-14.03-24.7-33.58-27.34-54.06-20.36-3.54-39.49-13.41-52.82-29.69 32-.57 63.72-4.18 94.73-10.74l-.13.45.45-.11c-7.89 30.85-12.83 62.38-14.89 94.16Zm343.53-409.07c-7.62 22.13-16.57 43.07-26.87 62.93-14.77-10.37-27.88-23.51-38.2-38.36 20.54-9.59 42.13-17.8 65.07-24.57Zm-124.8 58.62c12.71-8.69 25.8-16.72 39.42-23.98 12.58 18.78 28.99 35.25 47.64 47.95-23.63 40.24-53.04 75.53-88.91 106.8 6.59-42.83 7.39-87.82 1.84-130.77ZM267.43 44.97c10.88 21.14 19.92 42.42 27.2 63.93-8.97 1.37-18.1 1.96-27.2 1.78-9.11.18-18.23-.41-27.2-1.78 7.28-21.51 16.32-42.79 27.2-63.93ZM74.19 129.58c22.94 6.77 44.53 14.98 65.07 24.57-10.33 14.84-23.44 27.99-38.2 38.36-10.3-19.86-19.25-40.79-26.87-62.93Zm37.73 82.59c18.66-12.7 35.06-29.17 47.64-47.95 13.62 7.26 26.72 15.29 39.42 23.98-5.55 42.94-4.75 87.94 1.84 130.77-35.87-31.27-65.28-66.56-88.91-106.8Zm98.6 184.04c-14.8 6.18-30.03 11.53-45.39 16.25 9.88-28.24 22.62-55.82 37.67-81.26 3.72 20.84 8.87 41.4 15.35 61.62-2.55 1.13-5.07 2.32-7.64 3.39Zm114.84 179.75c-20.96 1.6-41.27-5.36-57.92-17.6-16.65 12.25-36.95 19.21-57.92 17.61 21.71-23.52 41.03-48.92 57.73-75.86l.19.34v.02-.02l.19-.34c16.69 26.93 36.02 52.34 57.73 75.86Zm-57.92-121.93c-50.48-98.49-64-216.91-33.92-323.5 11.15 1.94 22.54 2.79 33.92 2.57h.01c11.37.22 22.77-.63 33.92-2.57 30.08 106.58 16.56 225.01-33.92 323.5Zm56.92-57.82c-2.56-1.08-5.08-2.27-7.64-3.4 6.49-20.22 11.63-40.78 15.35-61.62 15.05 25.44 27.79 53.03 37.67 81.26-15.35-4.72-30.59-10.06-45.39-16.24Zm120.71 88.37c-2.63 20.49-11.66 40.04-27.34 54.06-2.07-31.78-7-63.32-14.89-94.16l.45.11-.13-.45c31.01 6.57 62.73 10.17 94.73 10.74-13.32 16.28-32.46 26.15-52.82 29.69Z"></path></svg>