<svg xmlns="http://www.w3.org/2000/svg" width="592.4" viewBox="0 0 592.4 578.3" height="578.3"><path d="M581.4 220.9c-118.8 0-216.3 91-226.7 207.1-11.1 4.8-22.9 8.3-35.2 10.3C325.7 307 434.1 202.4 567 202.4c5.9 0 11.8.2 17.6.6-1.7-4.9-3.7-9.7-6-14.5-27-56.3-86.9-86.2-145.6-77.9C420.6 50.9 370 5.1 307.9 0l7.9 438.8c-12.8 1.8-26.4 1.8-39.1 0L284.6 0c-62.1 5.1-112.7 50.9-125.1 110.7-26.5-3.8-54.3-.1-80.2 12.4-34.9 16.7-59.7 46-71.5 79.9 5.6-.4 11.3-.6 17-.6 132.8 0 241.3 104.5 247.5 235.8-12.3-2-24.2-5.6-35.3-10.5-10.5-116-108-206.8-226.7-206.8-2.5 0-5.1 0-7.6.1-5.9 28.9-2.8 59.9 10.9 88.5 13.1 27.3 33.9 48.3 58.5 61.8-20.9 38.2-23.8 85.5-3.5 127.7 10.3 21.5 25.5 39.2 43.5 52.3.7-66.8 28.1-105.2 46.1-123.4 11.4-11.4 27.9-23.5 43.7-19.6 4.8 1.2 8.3 4.1 12.3 6.8 7.4 5 11.5 7.6 19.7 11.2 0 0-80.7 14.8-101.7 137.3 37.3 18.5 82.4 20.3 122.8.9 15.9-7.6 29.7-17.9 41.1-30.1 40.6 43.1 105.9 57.1 162.1 30.1.6-.3 1.1-.6 1.7-.9-21-122.5-102-137.2-102-137.2 8.2-3.6 12.7-6.4 20-11.3 4-2.7 7.4-5.6 12.3-6.8 15.8-3.8 32.3 8.2 43.7 19.6 18.1 18.2 45.4 56.7 46.1 123.5 53.5-38.9 73.3-111.6 43.7-173.4-1.1-2.3-2.3-4.6-3.6-6.9 54.2-29.9 81.3-91.4 69.2-150.2h-7.9z"></path></svg>