<svg xmlns="http://www.w3.org/2000/svg" width="588.2" viewBox="0 0 588.2 559.8" height="559.8"><path d="M526.4 52.4v149.9S397.3 73 347.8 23.8c-31.6-31.5-74-31.7-105.6-.4C182 83.2 52.5 213.6 52.5 213.6h90.9S229 128.3 267.4 90c21.5-21.4 32.8-21.5 54.3-.1 49.5 49.2 159.8 160.3 159.8 160.3H331.2l61.2 60.3h195.8v-197l-61.8-61.1z"></path><path d="M320.8 469.8c-21.5 21.4-32.8 21.5-54.3.1-49.5-49.2-159.8-160.2-159.8-160.2H257l-61.2-60.3H0v196.9l61.8 61.1V357.6s129.1 129.3 178.6 178.5c31.6 31.5 74 31.7 105.6.4 60.2-59.8 189.7-190.2 189.7-190.2h-90.9c0-.1-85.6 85.2-124 123.5z"></path></svg>