<svg data-name="Layer 1" xmlns="http://www.w3.org/2000/svg" viewBox="0 0 603.93 603.93"><path d="M301.96 0C135.19 0 0 135.19 0 301.96s135.19 301.96 301.96 301.96 301.96-135.19 301.96-301.96S468.73 0 301.96 0Zm0 585.89c-156.56 0-283.93-127.37-283.93-283.93S145.4 18.04 301.96 18.04s283.93 127.37 283.93 283.93S458.52 585.9 301.96 585.9Z"></path><path d="m412.66 466.01-55.35 55.35-36.9-36.9v-18.45h18.45v-18.45h18.45v-18.45h18.45v-18.45h18.45v-18.45h18.45v-18.45h18.45v-18.45h18.45v-18.45h18.45v-9.22h27.67v-9.22h27.67v-9.22h27.67v-9.22h25.43a273.49 273.49 0 0 0-16.1-90.61L302.18 467.53l-36.99-36.99v-18.26h18.45v-18.45h18.45v-18.45h18.45v-18.45h18.45v-18.45h18.45v-18.45h18.45v-18.45h18.45v-18.45h18.45v-18.45h18.45v-18.45h18.45v-9.22h27.67v-9.22h27.67v-9.22h27.67v-9.22h27.65a274.087 274.087 0 0 0-38.8-71.97l-164.3 164.3-36.9-36.9v-18.45h18.45v-18.45h18.45v-18.45h18.45v-18.45h18.45v-18.45h18.45v-9.22h27.67v-9.22h27.67v-9.22h27.67v-9.22h24.56c-15.42-20.19-33.54-38.21-53.88-53.45L301.96 246.53l-36.9-36.9v-18.45h18.45v-18.45h18.45v-18.45h18.45v-18.45h18.45v-18.45h18.45v-9.22h27.67v-9.22h27.67v-9.22h27.67V80.5h23.59c-45.44-33.31-101.43-53.05-161.96-53.05S185.43 47.18 139.99 80.5h23.59v9.22h27.67v9.22h27.67v9.22h27.67v9.22h18.45v18.45h18.45v18.45l-36.9 36.9L137.6 82.19c-20.33 15.24-38.45 33.26-53.88 53.45h24.56v9.22h27.67v9.22h27.67v9.22h27.67v9.22h18.45v18.45h18.45v18.45h18.45v18.45h18.45v18.45h18.45v18.45h18.45v18.45h18.45v18.45l18.44.01v18.45l-37.26 37.26L82.38 137.37c-34.11 45.4-54.46 101.67-54.9 162.6h25.43v9.22h27.67v9.22h27.67v9.22h27.67v9.22h18.45v18.45h18.45v18.45h18.45v18.45h18.45v18.45h18.45v18.45h18.45v18.45h18.45V466h18.45v18.45l.06.06v-.11h18.45v18.45h18.45v18.45h-.08l.08.08v-.03h18.45l-.02 18.45H265.3L191.27 466 27.43 302.17c.11 151.29 123.22 274.33 274.53 274.33S576.38 453.45 576.5 302.17L412.66 466.01Zm-165.95-53.8L43.83 209.34H71.5v9.22h27.67v9.22h27.67V237h27.67v9.22h18.45v18.45h18.45v18.45h18.45v18.45h18.45v18.45h18.45v18.45h18.45v18.45h18.45v18.32L246.7 412.2ZM302.02 283.22z"></path><path d="M560.37 209.34h-.02v.02l.02-.02Z"></path></svg>