<svg xmlns="http://www.w3.org/2000/svg" width="583.1" viewBox="0 0 583.1 583.1" height="583.1"><path d="M60.2 113.9c-8.5 11-16.1 22.5-22.8 34.4l98.3 45.8-131.5 48C1.6 257 .2 272 0 287.1l242.3-88.2-182.1-85zM2.4 329.6c1.8 13.6 4.5 27.1 8.2 40.5L112.5 333 53.4 459.9c7 9.9 14.7 19.5 23.2 28.7l5.7 6 109-233.7L2.4 329.6zM194.2 447.5L242.1 579c14.9 2.5 29.9 3.9 45 4.2l-88.2-242.3-84.9 182c11 8.5 22.5 16.1 34.4 22.8l45.8-98.2zM494.5 501L261 392.2l68.6 188.5c13.6-1.8 27.1-4.5 40.5-8.2l-37-101.7 126.6 59.1c10-7.1 19.6-14.8 28.9-23.3 2-1.9 3.9-3.7 5.9-5.6zM340.7 384.4l182.1 84.9c8.5-11 16.1-22.5 22.8-34.4L447.3 389 579 341.1c2.6-14.9 4-29.9 4.2-45l-242.5 88.3zM470.7 250.2l59.1-126.8c-7-9.9-14.8-19.6-23.2-28.8-1.8-2-3.7-4-5.6-5.9L392 322.2l188.7-68.7c-1.8-13.6-4.5-27.1-8.2-40.5l-101.8 37.2zM388.9 136l-48-131.8C326.1 1.6 311 .2 296 0l88.3 242.6 85-182.3c-11-8.5-22.5-16.1-34.4-22.8l-46 98.5zM88.6 82.2L322.1 191 253.4 2.5C239.8 4.2 226.3 7 213 10.7l37 101.7-126.7-59.1c-9.9 7-19.6 14.8-28.8 23.2-2 1.9-3.9 3.8-5.9 5.7z"></path></svg>