<svg xmlns="http://www.w3.org/2000/svg" width="591.2" viewBox="0 0 591.2 601.5" height="601.5" style="enable-background:new 0 0 591.2 601.5" xml:space="preserve"><path d="M321.1 419.2c76.5 0 138.8-62.3 138.8-138.8s-62.3-138.8-138.8-138.8S182.3 204 182.3 280.5s62.3 138.7 138.8 138.7zm0-241.4c56.6 0 102.6 46 102.6 102.6 0 56.6-46 102.6-102.6 102.6-56.6 0-102.6-46-102.6-102.6 0-56.5 46-102.6 102.6-102.6z"></path><path d="M321.1 345.2c35.7 0 64.8-29.1 64.8-64.8s-29.1-64.8-64.8-64.8-64.8 29.1-64.8 64.8 29.1 64.8 64.8 64.8zm0-93.4c15.8 0 28.6 12.8 28.6 28.6S336.9 309 321.1 309s-28.6-12.8-28.6-28.6c-.1-15.7 12.8-28.6 28.6-28.6z"></path><path d="M519 457.1h-79.4c56.8-38.2 94.3-103.1 94.3-176.6 0-117.3-95.4-212.8-212.8-212.8-73.5 0-138.4 37.5-176.6 94.3v-41.8c0-24.8-12.6-46.7-31.7-59.7V14.1c0-7.8-6.3-14.1-14.1-14.1s-14 6.3-14 14.1v35c-4.1-.7-8.2-1.2-12.4-1.2-3.5 0-6.9.3-10.3.8V14.1C61.9 6.3 55.6 0 47.8 0s-14 6.3-14 14.1v45C13.5 71.9 0 94.4 0 120.1v160.3c0 177 144 321.1 321.1 321.1H519c39.8 0 72.2-32.4 72.2-72.2s-32.4-72.2-72.2-72.2zM321.1 103.8c97.4 0 176.6 79.2 176.6 176.6S418.5 457 321.1 457c-97.4 0-176.6-79.2-176.6-176.6s79.2-176.6 176.6-176.6zM519 565.4H321.1c-157.1 0-285-127.8-285-284.9V120.1c0-19.9 16.2-36.1 36.1-36.1s36.1 16.2 36.1 36.1v160.3c0 117.3 95.4 212.8 212.8 212.8H519c19.9 0 36.1 16.2 36.1 36.1 0 19.9-16.2 36.1-36.1 36.1z"></path><path d="M86.8 141.1c-9 3.8-19.4 3.8-28.3 0-4.6-1.9-9.9.2-11.8 4.8-1.9 4.6.2 9.9 4.8 11.8 6.7 2.8 13.9 4.3 21.2 4.3s14.5-1.4 21.2-4.3c4.6-1.9 6.7-7.2 4.8-11.8-2-4.6-7.3-6.8-11.9-4.8z"></path><circle cx="53.3" cy="115.1" r="11.3"></circle><circle cx="91.9" cy="115.1" r="11.3"></circle></svg>