<svg data-name="Layer 1" xmlns="http://www.w3.org/2000/svg" viewBox="0 0 615.89 615.89"><path d="M155.28 165.74 0 321.02v163.69c0 72.45 58.73 131.18 131.18 131.18h163.69l155.28-155.28H155.28V165.74ZM484.71 0H321.02L165.74 155.28h294.87v294.87l155.28-155.28V131.18C615.89 58.73 557.16 0 484.71 0Z"></path><path d="M307.94 164.85c-78.86 0-143.02 64.16-143.02 143.03s64.16 143.03 143.02 143.03 143.03-64.16 143.03-143.03-64.16-143.03-143.03-143.03Zm0 245.3c-56.4 0-102.28-45.88-102.28-102.27S251.54 205.6 307.94 205.6s102.28 45.89 102.28 102.28-45.88 102.27-102.28 102.27Z"></path><path d="M307.94 261.77c-25.42 0-46.11 20.69-46.11 46.11s20.69 46.11 46.11 46.11 46.11-20.68 46.11-46.11-20.69-46.11-46.11-46.11Zm0 54.25c-4.5 0-8.15-3.65-8.15-8.15s3.65-8.14 8.15-8.14 8.15 3.64 8.15 8.14-3.65 8.15-8.15 8.15Z"></path><path d="M307.94 214.3c-51.59 0-93.57 41.98-93.57 93.57s41.98 93.57 93.57 93.57 93.57-41.97 93.57-93.57-41.98-93.57-93.57-93.57Zm0 148.38c-30.23 0-54.81-24.59-54.81-54.81s24.59-54.82 54.81-54.82 54.81 24.59 54.81 54.82-24.59 54.81-54.81 54.81Z"></path></svg>