<svg data-name="Layer 1" xmlns="http://www.w3.org/2000/svg" viewBox="0 0 615.24 615.24"><path d="M378.42 385.63v-78.01h-16.7v78.01c0 8.68 3.39 16.86 9.54 23.02l189.88 189.91H370.45c-7.15 0-12.97-5.83-12.97-12.99s5.82-12.98 12.97-12.98h125.38L351.57 428.33c-11.41-11.39-17.68-26.55-17.68-42.69v-78.01h-16.7v78.01c0 20.6 8.02 39.96 22.58 54.5l115.76 115.77h-85.08c-16.36 0-29.67 13.3-29.67 29.66s13.31 29.68 29.67 29.68h231L383.08 396.86c-3-3-4.65-7-4.65-11.22Z"></path><path d="M585.57 335.42c-16.36 0-29.68 13.3-29.68 29.66v85.09L440.14 334.41c-14.57-14.57-33.92-22.58-54.51-22.58v16.69c16.13 0 31.3 6.29 42.71 17.69L572.6 490.47V365.08c0-7.15 5.82-12.98 12.98-12.98s12.97 5.83 12.97 12.98v190.69L414.24 371.46c-6.01-6.02-14-9.32-22.49-9.32h-5.37v16.69h5.37c3.97 0 7.86 1.62 10.67 4.43l212.82 212.81v-231c0-16.36-13.31-29.66-29.67-29.66ZM175.1 339.77 59.34 455.53v-85.09c0-16.36-13.31-29.66-29.67-29.66S0 354.07 0 370.43v231.01l218.39-218.39c3.01-3 7-4.66 11.22-4.66h78.01V361.7h-78.01c-8.68 0-16.85 3.38-23.02 9.54L16.7 561.14V370.43c0-7.15 5.82-12.98 12.98-12.98s12.97 5.83 12.97 12.98v125.39l144.26-144.26c11.4-11.4 26.57-17.69 42.71-17.69h78.01v-16.69h-78.01c-20.6 0-39.96 8.02-54.51 22.58Z"></path><path d="M269.02 428.33 124.77 572.58h125.38c7.15 0 12.98 5.83 12.98 12.98s-5.82 12.99-12.98 12.99H59.47l184.32-184.33c6-6.01 9.31-14 9.31-22.47v-5.37h-16.7v5.37c0 4.02-1.57 7.81-4.42 10.68L19.15 615.24h231c16.36 0 29.68-13.32 29.68-29.68s-13.32-29.66-29.68-29.66h-85.08l115.75-115.76c14.57-14.55 22.59-33.92 22.59-54.51h-16.7c0 16.14-6.28 31.31-17.69 42.71ZM236.83 229.61v78.01h16.7v-78.01c0-8.68-3.39-16.86-9.54-23.02L54.1 16.69h190.7c7.15 0 12.97 5.83 12.97 12.98s-5.82 12.99-12.97 12.99H119.41L263.67 186.9c11.41 11.41 17.69 26.58 17.69 42.72v78.01h16.7v-78.01c0-20.6-8.02-39.96-22.58-54.51L159.73 59.34h85.07c16.36 0 29.67-13.32 29.67-29.68S261.16 0 244.8 0H13.79l218.39 218.39c3 3 4.65 7 4.65 11.22Z"></path><path d="M29.68 279.82c16.36 0 29.67-13.3 29.67-29.66v-85.09l115.76 115.76c14.55 14.57 33.92 22.58 54.51 22.58v-16.69c-16.14 0-31.31-6.29-42.71-17.69L42.65 124.76v125.39c0 7.15-5.82 12.98-12.97 12.98S16.7 257.3 16.7 250.15V59.45l184.31 184.32c6 6.01 13.98 9.31 22.48 9.31h5.37v-16.69h-5.37c-4.04 0-7.82-1.58-10.67-4.42L0 19.15v231c0 16.36 13.32 29.66 29.68 29.66ZM396.86 232.18c-3.01 3-7 4.66-11.22 4.66h-78.01v16.69h78.01c8.68 0 16.85-3.38 23.02-9.54l189.88-189.9v190.7c0 7.16-5.82 12.99-12.97 12.99s-12.98-5.83-12.98-12.99V119.41L428.33 263.66c-11.41 11.4-26.58 17.69-42.71 17.69H307.6v16.69h78.02c20.59 0 39.95-8.02 54.51-22.58l115.75-115.74v85.07c0 16.36 13.32 29.68 29.68 29.68s29.67-13.32 29.67-29.68v-231L396.84 232.18Z"></path><path d="M346.22 186.89 490.48 42.65H365.1c-7.15 0-12.98-5.83-12.98-12.99s5.82-12.98 12.98-12.98h190.69L371.48 201c-6.01 5.99-9.31 13.98-9.31 22.49v5.37h16.7v-5.37c0-4.04 1.56-7.83 4.42-10.68L596.1 0h-231c-16.36 0-29.68 13.3-29.68 29.66s13.32 29.68 29.68 29.68h85.07L334.42 175.1c-14.56 14.57-22.58 33.93-22.58 54.51h16.7c0-16.13 6.28-31.31 17.69-42.72Z"></path></svg>