<svg data-name="Layer 1" xmlns="http://www.w3.org/2000/svg" viewBox="0 0 601.33 601.33"><path d="M301.01 601.33h.01-.01zM0 300.67c0 166.05 134.61 300.67 300.67 300.67h.34L5.14 245.15A302.19 302.19 0 0 0 0 300.66ZM596.22 245.27 301.01 601.33c165.89-.19 300.32-134.73 300.32-300.66 0-18.93-1.77-37.44-5.11-55.4ZM366.62 298.9l58.96-271.79c-4.58-2.1-9.23-4.08-13.93-5.95l-52.6 275.8c2.54.61 5.06 1.26 7.56 1.94ZM381.53 303.49l70.93-262.4c-4.35-2.55-8.77-5-13.26-7.33l-65.08 267.3c2.49.77 4.96 1.58 7.41 2.42ZM396.07 309l81.71-251.29c-4.08-2.98-8.23-5.85-12.46-8.62l-76.48 257.06c2.43.92 4.84 1.87 7.23 2.87ZM338.49 2.36c-4.99-.63-10.01-1.13-15.07-1.51l-10.81 289.53c2.62.12 5.23.27 7.82.48l18.06-288.5ZM301.02 290.1c1.26 0 2.51.03 3.77.05L308.3.1c-2.54-.06-5.08-.1-7.63-.1s-5.02.03-7.51.1l3.79 290.06c1.36-.02 2.71-.05 4.07-.05ZM351.43 295.24l46.01-279.32c-4.77-1.62-9.59-3.13-14.46-4.51l-39.24 282.38c2.58.45 5.14.93 7.69 1.46ZM336.01 292.57l32.3-284.93c-4.9-1.13-9.85-2.13-14.84-3.02l-25.23 286.97c2.6.28 5.19.61 7.77.98ZM472.66 359.2l111.87-157.82c-1.67-4.78-3.46-9.5-5.36-14.16L467.12 354.04c1.87 1.69 3.72 3.42 5.54 5.16ZM461.41 349.03 573.1 173.34c-2.14-4.58-4.4-9.1-6.76-13.55l-110.8 184.39c1.98 1.58 3.94 3.2 5.87 4.84ZM483.2 369.97l109.87-139.52c-1.18-4.93-2.48-9.81-3.9-14.64L478.02 364.53c1.75 1.79 3.48 3.61 5.18 5.45ZM410.19 315.41l91.13-238.64c-3.76-3.37-7.6-6.64-11.53-9.82l-86.6 245.14c2.36 1.07 4.69 2.18 7 3.32ZM423.85 322.65l98.98-224.57c-3.4-3.73-6.9-7.37-10.49-10.92l-95.26 231.77c2.27 1.21 4.53 2.44 6.77 3.72ZM436.96 330.71l105.13-209.28c-3.01-4.05-6.12-8.03-9.33-11.93L430.48 326.57c2.19 1.34 4.35 2.72 6.49 4.13ZM449.5 339.51l109.4-192.9c-2.59-4.34-5.29-8.61-8.09-12.8L443.3 335.02c2.09 1.47 4.16 2.96 6.2 4.49ZM146.27 344.38 35.05 159.69c-2.37 4.45-4.62 8.96-6.77 13.54L140.4 349.22c1.93-1.65 3.89-3.26 5.87-4.85ZM158.48 335.19 50.59 133.72c-2.8 4.19-5.5 8.46-8.1 12.79l109.8 193.18c2.04-1.53 4.1-3.03 6.19-4.5ZM171.31 326.74 68.65 109.42c-3.21 3.89-6.32 7.87-9.34 11.92l105.51 209.53c2.14-1.41 4.3-2.79 6.48-4.14ZM184.69 319.07l-95.61-232c-3.59 3.55-7.09 7.19-10.49 10.92l99.34 224.8c2.23-1.28 4.49-2.51 6.76-3.72ZM134.69 354.23 22.21 187.11c-1.9 4.66-3.69 9.38-5.37 14.16L129.16 359.4c1.82-1.75 3.66-3.48 5.53-5.17ZM123.81 364.72 12.2 215.69c-1.42 4.83-2.72 9.71-3.91 14.64l110.34 139.85c1.7-1.85 3.43-3.66 5.18-5.46ZM257.99 293.83 218.47 11.38c-4.87 1.38-9.69 2.88-14.46 4.5l46.3 279.42c2.55-.53 5.11-1.02 7.68-1.47ZM242.68 297.03 189.79 21.11c-4.7 1.87-9.35 3.85-13.93 5.95l59.26 271.91c2.5-.69 5.03-1.34 7.56-1.95ZM273.49 291.63 247.98 4.61c-4.99.88-9.94 1.89-14.84 3.01l32.58 285c2.58-.37 5.17-.7 7.77-.98ZM198.57 312.21 111.63 66.87a300.03 300.03 0 0 0-11.53 9.82l91.47 238.85c2.31-1.14 4.64-2.26 7-3.33ZM212.9 306.24 136.1 49.02c-4.23 2.77-8.38 5.65-12.46 8.62l82.04 251.48c2.39-1 4.8-1.95 7.22-2.87ZM289.11 290.39 278.03.85c-5.06.38-10.08.88-15.07 1.5l18.33 288.53c2.6-.2 5.2-.37 7.82-.49ZM227.62 301.15 162.24 33.71c-4.49 2.33-8.91 4.78-13.26 7.33l71.24 262.55c2.45-.85 4.92-1.66 7.4-2.43Z"></path></svg>