<svg data-name="Layer 1" xmlns="http://www.w3.org/2000/svg" viewBox="0 0 584.32 584.32"><path d="M155.32 125.67H532.2C479.43 49.75 391.63 0 292.16 0 162.35 0 52.38 84.69 14.31 201.8c30.34-45.77 82.29-76.13 141.01-76.13ZM17.75 392.66c40.97 111.85 148.37 191.66 274.42 191.66 97.19 0 183.24-47.49 236.35-120.49h-373.2c-56.57 0-106.84-28.18-137.58-71.17Zm561.58-154.27H54.42C24.49 238.39 0 262.88 0 292.8s24.49 54.42 54.42 54.42h524.66c3.41-17.84 5.24-36.23 5.24-55.06s-1.74-36.34-4.99-53.77Z"></path></svg>