<svg data-name="Layer 1" xmlns="http://www.w3.org/2000/svg" viewBox="0 0 599.55 599.55"><path d="M102.45408463 94.86691027 197.3195304.0014645l94.86544577 94.86544577-94.86544577 94.86544576zM307.3708602 299.77702397l94.86544576-94.86544576 197.3181473 197.31814729-94.86544577 94.86544576zM102.4606994 504.68313683l197.31814729-197.31814729 94.86544576 94.86544576-197.31814729 197.3181473zM409.81351463 197.32365973l94.86544576-94.86544576 94.86544577 94.86544576-94.86544577 94.86544577zM-.00271193 197.3202745l94.86544576-94.86544576 197.3181473 197.31814729-94.86544577 94.86544576zM.00733516 402.22634027l94.86544577-94.86544577 94.86544576 94.86544577-94.86544576 94.86544576zM204.90744887 197.3195647 402.22559616.0014174l94.86544576 94.86544577-197.31814729 197.31814729zM307.35676516 504.68308973l94.86544577-94.86544576 94.86544576 94.86544576-94.86544576 94.86544577z"></path></svg>