<svg xmlns="http://www.w3.org/2000/svg" width="619.5" viewBox="0 0 619.5 619.5" height="619.5" xml:space="preserve" style="enable-background:new 0 0 619.5 619.5"><path d="M244.2 0v150.9h131.1V0H244.2zm15.7 139.8h-4.2c-1.5 0-2.6-1.2-2.6-2.6s1.2-2.6 2.6-2.6h4.2c1.5 0 2.6 1.2 2.6 2.6s-1.2 2.6-2.6 2.6zm0-17.6h-4.2c-1.5 0-2.6-1.2-2.6-2.6s1.2-2.6 2.6-2.6h4.2c1.5 0 2.6 1.2 2.6 2.6s-1.2 2.6-2.6 2.6zm0-17.7h-4.2c-1.5 0-2.6-1.2-2.6-2.6 0-1.5 1.2-2.6 2.6-2.6h4.2c1.5 0 2.6 1.2 2.6 2.6 0 1.5-1.2 2.6-2.6 2.6zm2.6-20.2c0 1.5-1.2 2.6-2.6 2.6h-4.2c-1.5 0-2.6-1.2-2.6-2.6 0-1.5 1.2-2.6 2.6-2.6h4.2c1.4-.1 2.6 1.1 2.6 2.6zm-2.6-15h-4.2c-1.5 0-2.6-1.2-2.6-2.6 0-1.5 1.2-2.6 2.6-2.6h4.2c1.5 0 2.6 1.2 2.6 2.6 0 1.4-1.2 2.6-2.6 2.6zm0-17.7h-4.2c-1.5 0-2.6-1.2-2.6-2.6 0-1.5 1.2-2.6 2.6-2.6h4.2c1.5 0 2.6 1.2 2.6 2.6 0 1.5-1.2 2.6-2.6 2.6zm0-17.6h-4.2c-1.5 0-2.6-1.2-2.6-2.6 0-1.5 1.2-2.6 2.6-2.6h4.2c1.5 0 2.6 1.2 2.6 2.6 0 1.4-1.2 2.6-2.6 2.6zm0-17.6h-4.2c-1.5 0-2.6-1.2-2.6-2.6 0-1.5 1.2-2.6 2.6-2.6h4.2c1.5 0 2.6 1.2 2.6 2.6 0 1.4-1.2 2.6-2.6 2.6zm104 123.4h-4.2c-1.5 0-2.6-1.2-2.6-2.6s1.2-2.6 2.6-2.6h4.2c1.5 0 2.6 1.2 2.6 2.6s-1.2 2.6-2.6 2.6zm0-17.6h-4.2c-1.5 0-2.6-1.2-2.6-2.6s1.2-2.6 2.6-2.6h4.2c1.5 0 2.6 1.2 2.6 2.6s-1.2 2.6-2.6 2.6zm0-17.7h-4.2c-1.5 0-2.6-1.2-2.6-2.6 0-1.5 1.2-2.6 2.6-2.6h4.2c1.5 0 2.6 1.2 2.6 2.6 0 1.5-1.2 2.6-2.6 2.6zm2.6-20.2c0 1.5-1.2 2.6-2.6 2.6h-4.2c-1.5 0-2.6-1.2-2.6-2.6 0-1.5 1.2-2.6 2.6-2.6h4.2c1.4-.1 2.6 1.1 2.6 2.6zm-2.6-15h-4.2c-1.5 0-2.6-1.2-2.6-2.6 0-1.5 1.2-2.6 2.6-2.6h4.2c1.5 0 2.6 1.2 2.6 2.6 0 1.4-1.2 2.6-2.6 2.6zm0-17.7h-4.2c-1.5 0-2.6-1.2-2.6-2.6 0-1.5 1.2-2.6 2.6-2.6h4.2c1.5 0 2.6 1.2 2.6 2.6 0 1.5-1.2 2.6-2.6 2.6zm0-17.6h-4.2c-1.5 0-2.6-1.2-2.6-2.6 0-1.5 1.2-2.6 2.6-2.6h4.2c1.5 0 2.6 1.2 2.6 2.6 0 1.4-1.2 2.6-2.6 2.6zm0-17.6h-4.2c-1.5 0-2.6-1.2-2.6-2.6 0-1.5 1.2-2.6 2.6-2.6h4.2c1.5 0 2.6 1.2 2.6 2.6 0 1.4-1.2 2.6-2.6 2.6zM482.5 44.4 375.7 151.1l92.7 92.7 106.7-106.7-92.6-92.7zm-87.8 109.9-3-3c-1-1-1-2.7 0-3.7s2.7-1 3.7 0l3 3c1 1 1 2.7 0 3.7s-2.7 1-3.7 0zm12.5-12.4-3-3c-1-1-1-2.7 0-3.7s2.7-1 3.7 0l3 3c1 1 1 2.7 0 3.7s-2.7 1-3.7 0zm12.4-12.5-3-3c-1-1-1-2.7 0-3.7s2.7-1 3.7 0l3 3c1 1 1 2.7 0 3.7s-2.7 1-3.7 0zm16.2-12.5c-1 1-2.7 1-3.7 0l-3-3c-1-1-1-2.7 0-3.7s2.7-1 3.7 0l3 3c1 1 1 2.7 0 3.7zm8.8-12.5-3-3c-1-1-1-2.7 0-3.7s2.7-1 3.7 0l3 3c1 1 1 2.7 0 3.7-1 1.1-2.7 1.1-3.7 0zM457 92l-3-3c-1-1-1-2.7 0-3.7s2.7-1 3.7 0l3 3c1 1 1 2.7 0 3.7s-2.6 1-3.7 0zm12.5-12.5-3-3c-1-1-1-2.7 0-3.7s2.7-1 3.7 0l3 3c1 1 1 2.7 0 3.7s-2.7 1-3.7 0zM482 67l-3-3c-1-1-1-2.7 0-3.7s2.7-1 3.7 0l3 3c1 1 1 2.7 0 3.7-1 1.1-2.7 1.1-3.7 0zm-13.8 160.8-3-3c-1-1-1-2.7 0-3.7s2.7-1 3.7 0l3 3c1 1 1 2.7 0 3.7-1 1.1-2.7 1.1-3.7 0zm12.5-12.4-3-3c-1-1-1-2.7 0-3.7s2.7-1 3.7 0l3 3c1 1 1 2.7 0 3.7s-2.7 1-3.7 0zm12.4-12.5-3-3c-1-1-1-2.7 0-3.7s2.7-1 3.7 0l3 3c1 1 1 2.7 0 3.7s-2.6 1-3.7 0zm16.2-12.5c-1 1-2.7 1-3.7 0l-3-3c-1-1-1-2.7 0-3.7s2.7-1 3.7 0l3 3c1.1 1 1.1 2.7 0 3.7zm8.8-12.4-3-3c-1-1-1-2.7 0-3.7s2.7-1 3.7 0l3 3c1 1 1 2.7 0 3.7s-2.7 1-3.7 0zm12.4-12.5-3-3c-1-1-1-2.7 0-3.7s2.7-1 3.7 0l3 3c1 1 1 2.7 0 3.7s-2.6 1-3.7 0zM543 153l-3-3c-1-1-1-2.7 0-3.7s2.7-1 3.7 0l3 3c1 1 1 2.7 0 3.7s-2.7 1-3.7 0zm12.5-12.5-3-3c-1-1-1-2.7 0-3.7s2.7-1 3.7 0l3 3c1 1 1 2.7 0 3.7-1 1.1-2.7 1.1-3.7 0zM619.5 244.2H468.6v131.1h150.9V244.2zm-139.8 15.7v-4.2c0-1.5 1.2-2.6 2.6-2.6s2.6 1.2 2.6 2.6v4.2c0 1.5-1.2 2.6-2.6 2.6s-2.6-1.2-2.6-2.6zm17.7 0v-4.2c0-1.5 1.2-2.6 2.6-2.6s2.6 1.2 2.6 2.6v4.2c0 1.5-1.2 2.6-2.6 2.6s-2.6-1.2-2.6-2.6zm17.6 0v-4.2c0-1.5 1.2-2.6 2.6-2.6 1.5 0 2.6 1.2 2.6 2.6v4.2c0 1.5-1.2 2.6-2.6 2.6-1.4 0-2.6-1.2-2.6-2.6zm20.3 2.6c-1.5 0-2.6-1.2-2.6-2.6v-4.2c0-1.5 1.2-2.6 2.6-2.6 1.5 0 2.6 1.2 2.6 2.6v4.2c0 1.4-1.2 2.6-2.6 2.6zm15-2.6v-4.2c0-1.5 1.2-2.6 2.6-2.6 1.5 0 2.6 1.2 2.6 2.6v4.2c0 1.5-1.2 2.6-2.6 2.6-1.4 0-2.6-1.2-2.6-2.6zm17.6 0v-4.2c0-1.5 1.2-2.6 2.6-2.6s2.6 1.2 2.6 2.6v4.2c0 1.5-1.2 2.6-2.6 2.6s-2.6-1.2-2.6-2.6zm17.6 0v-4.2c0-1.5 1.2-2.6 2.6-2.6s2.6 1.2 2.6 2.6v4.2c0 1.5-1.2 2.6-2.6 2.6s-2.6-1.2-2.6-2.6zm17.7 0v-4.2c0-1.5 1.2-2.6 2.6-2.6 1.5 0 2.6 1.2 2.6 2.6v4.2c0 1.5-1.2 2.6-2.6 2.6-1.4 0-2.6-1.2-2.6-2.6zm-123.5 104v-4.2c0-1.5 1.2-2.6 2.6-2.6s2.6 1.2 2.6 2.6v4.2c0 1.5-1.2 2.6-2.6 2.6s-2.6-1.2-2.6-2.6zm17.7 0v-4.2c0-1.5 1.2-2.6 2.6-2.6s2.6 1.2 2.6 2.6v4.2c0 1.5-1.2 2.6-2.6 2.6s-2.6-1.2-2.6-2.6zm17.6 0v-4.2c0-1.5 1.2-2.6 2.6-2.6 1.5 0 2.6 1.2 2.6 2.6v4.2c0 1.5-1.2 2.6-2.6 2.6-1.4 0-2.6-1.2-2.6-2.6zm20.3 2.6c-1.5 0-2.6-1.2-2.6-2.6v-4.2c0-1.5 1.2-2.6 2.6-2.6 1.5 0 2.6 1.2 2.6 2.6v4.2c0 1.4-1.2 2.6-2.6 2.6zm15-2.6v-4.2c0-1.5 1.2-2.6 2.6-2.6 1.5 0 2.6 1.2 2.6 2.6v4.2c0 1.5-1.2 2.6-2.6 2.6-1.4 0-2.6-1.2-2.6-2.6zm17.6 0v-4.2c0-1.5 1.2-2.6 2.6-2.6s2.6 1.2 2.6 2.6v4.2c0 1.5-1.2 2.6-2.6 2.6s-2.6-1.2-2.6-2.6zm17.6 0v-4.2c0-1.5 1.2-2.6 2.6-2.6s2.6 1.2 2.6 2.6v4.2c0 1.5-1.2 2.6-2.6 2.6s-2.6-1.2-2.6-2.6zm17.7 0v-4.2c0-1.5 1.2-2.6 2.6-2.6 1.5 0 2.6 1.2 2.6 2.6v4.2c0 1.5-1.2 2.6-2.6 2.6-1.4 0-2.6-1.2-2.6-2.6zM575.2 482.5 468.5 375.7l-92.7 92.7 106.7 106.7 92.7-92.6zm-110-87.8 3-3c1-1 2.7-1 3.7 0s1 2.7 0 3.7l-3 3c-1 1-2.7 1-3.7 0s-1-2.7 0-3.7zm12.5 12.5 3-3c1-1 2.7-1 3.7 0s1 2.7 0 3.7l-3 3c-1 1-2.7 1-3.7 0s-1-2.7 0-3.7zm12.5 12.4 3-3c1-1 2.7-1 3.7 0s1 2.7 0 3.7l-3 3c-1 1-2.7 1-3.7 0-1.1-1-1.1-2.7 0-3.7zm12.4 16.2c-1-1-1-2.7 0-3.7l3-3c1-1 2.7-1 3.7 0s1 2.7 0 3.7l-3 3c-1 1-2.6 1-3.7 0zm12.5 8.8 3-3c1-1 2.7-1 3.7 0s1 2.7 0 3.7l-3 3c-1 1-2.7 1-3.7 0s-1-2.7 0-3.7zm12.5 12.4 3-3c1-1 2.7-1 3.7 0s1 2.7 0 3.7l-3 3c-1 1-2.7 1-3.7 0s-1.1-2.6 0-3.7zm12.4 12.5 3-3c1-1 2.7-1 3.7 0s1 2.7 0 3.7l-3 3c-1 1-2.7 1-3.7 0s-1-2.7 0-3.7zm12.5 12.5 3-3c1-1 2.7-1 3.7 0s1 2.7 0 3.7l-3 3c-1 1-2.7 1-3.7 0s-1-2.7 0-3.7zm-160.8-13.8 3-3c1-1 2.7-1 3.7 0s1 2.7 0 3.7l-3 3c-1 1-2.7 1-3.7 0s-1-2.7 0-3.7zm12.5 12.5 3-3c1-1 2.7-1 3.7 0s1 2.7 0 3.7l-3 3c-1 1-2.7 1-3.7 0s-1-2.7 0-3.7zm12.5 12.4 3-3c1-1 2.7-1 3.7 0s1 2.7 0 3.7l-3 3c-1 1-2.7 1-3.7 0-1.1-1-1.1-2.6 0-3.7zm12.4 16.2c-1-1-1-2.7 0-3.7l3-3c1-1 2.7-1 3.7 0s1 2.7 0 3.7l-3 3c-1 1.1-2.7 1.1-3.7 0zm12.5 8.8 3-3c1-1 2.7-1 3.7 0s1 2.7 0 3.7l-3 3c-1 1-2.7 1-3.7 0s-1-2.7 0-3.7zm12.5 12.4 3-3c1-1 2.7-1 3.7 0s1 2.7 0 3.7l-3 3c-1 1-2.7 1-3.7 0-1.1-1-1.1-2.6 0-3.7zm12.4 12.5 3-3c1-1 2.7-1 3.7 0s1 2.7 0 3.7l-3 3c-1 1-2.7 1-3.7 0s-1-2.7 0-3.7zm12.5 12.5 3-3c1-1 2.7-1 3.7 0s1 2.7 0 3.7l-3 3c-1 1-2.7 1-3.7 0s-1-2.7 0-3.7zM375.3 619.5V468.6H244.2v150.9h131.1zm-15.6-139.8h4.2c1.5 0 2.6 1.2 2.6 2.6s-1.2 2.6-2.6 2.6h-4.2c-1.5 0-2.6-1.2-2.6-2.6s1.1-2.6 2.6-2.6zm0 17.7h4.2c1.5 0 2.6 1.2 2.6 2.6s-1.2 2.6-2.6 2.6h-4.2c-1.5 0-2.6-1.2-2.6-2.6s1.1-2.6 2.6-2.6zm0 17.6h4.2c1.5 0 2.6 1.2 2.6 2.6 0 1.5-1.2 2.6-2.6 2.6h-4.2c-1.5 0-2.6-1.2-2.6-2.6-.1-1.4 1.1-2.6 2.6-2.6zm-2.7 20.3c0-1.5 1.2-2.6 2.6-2.6h4.2c1.5 0 2.6 1.2 2.6 2.6 0 1.5-1.2 2.6-2.6 2.6h-4.2c-1.4 0-2.6-1.2-2.6-2.6zm2.7 15h4.2c1.5 0 2.6 1.2 2.6 2.6 0 1.5-1.2 2.6-2.6 2.6h-4.2c-1.5 0-2.6-1.2-2.6-2.6-.1-1.4 1.1-2.6 2.6-2.6zm0 17.6h4.2c1.5 0 2.6 1.2 2.6 2.6s-1.2 2.6-2.6 2.6h-4.2c-1.5 0-2.6-1.2-2.6-2.6s1.1-2.6 2.6-2.6zm0 17.6h4.2c1.5 0 2.6 1.2 2.6 2.6s-1.2 2.6-2.6 2.6h-4.2c-1.5 0-2.6-1.2-2.6-2.6s1.1-2.6 2.6-2.6zm0 17.7h4.2c1.5 0 2.6 1.2 2.6 2.6 0 1.5-1.2 2.6-2.6 2.6h-4.2c-1.5 0-2.6-1.2-2.6-2.6-.1-1.4 1.1-2.6 2.6-2.6zm-104-123.5h4.2c1.5 0 2.6 1.2 2.6 2.6s-1.2 2.6-2.6 2.6h-4.2c-1.5 0-2.6-1.2-2.6-2.6s1.1-2.6 2.6-2.6zm0 17.7h4.2c1.5 0 2.6 1.2 2.6 2.6s-1.2 2.6-2.6 2.6h-4.2c-1.5 0-2.6-1.2-2.6-2.6s1.1-2.6 2.6-2.6zm0 17.6h4.2c1.5 0 2.6 1.2 2.6 2.6 0 1.5-1.2 2.6-2.6 2.6h-4.2c-1.5 0-2.6-1.2-2.6-2.6 0-1.4 1.1-2.6 2.6-2.6zm-2.6 20.3c0-1.5 1.2-2.6 2.6-2.6h4.2c1.5 0 2.6 1.2 2.6 2.6 0 1.5-1.2 2.6-2.6 2.6h-4.2c-1.5 0-2.6-1.2-2.6-2.6zm2.6 15h4.2c1.5 0 2.6 1.2 2.6 2.6 0 1.5-1.2 2.6-2.6 2.6h-4.2c-1.5 0-2.6-1.2-2.6-2.6 0-1.4 1.1-2.6 2.6-2.6zm0 17.6h4.2c1.5 0 2.6 1.2 2.6 2.6s-1.2 2.6-2.6 2.6h-4.2c-1.5 0-2.6-1.2-2.6-2.6s1.1-2.6 2.6-2.6zm0 17.6h4.2c1.5 0 2.6 1.2 2.6 2.6s-1.2 2.6-2.6 2.6h-4.2c-1.5 0-2.6-1.2-2.6-2.6s1.1-2.6 2.6-2.6zm0 17.7h4.2c1.5 0 2.6 1.2 2.6 2.6 0 1.5-1.2 2.6-2.6 2.6h-4.2c-1.5 0-2.6-1.2-2.6-2.6 0-1.4 1.1-2.6 2.6-2.6zM137.1 575.2l106.7-106.7-92.7-92.7L44.4 482.5l92.7 92.7zm87.8-110 3 3c1 1 1 2.7 0 3.7s-2.7 1-3.7 0l-3-3c-1-1-1-2.7 0-3.7s2.6-1 3.7 0zm-12.5 12.5 3 3c1 1 1 2.7 0 3.7s-2.7 1-3.7 0l-3-3c-1-1-1-2.7 0-3.7s2.7-1 3.7 0zm-12.5 12.5 3 3c1 1 1 2.7 0 3.7s-2.7 1-3.7 0l-3-3c-1-1-1-2.7 0-3.7 1-1.1 2.7-1.1 3.7 0zm-16.2 12.4c1-1 2.7-1 3.7 0l3 3c1 1 1 2.7 0 3.7s-2.7 1-3.7 0l-3-3c-1-1-1-2.6 0-3.7zm-8.7 12.5 3 3c1 1 1 2.7 0 3.7s-2.7 1-3.7 0l-3-3c-1-1-1-2.7 0-3.7s2.7-1 3.7 0zm-12.5 12.5 3 3c1 1 1 2.7 0 3.7s-2.7 1-3.7 0l-3-3c-1-1-1-2.7 0-3.7 1-1.1 2.7-1.1 3.7 0zM150 540l3 3c1 1 1 2.7 0 3.7s-2.7 1-3.7 0l-3-3c-1-1-1-2.7 0-3.7s2.7-1 3.7 0zm-12.4 12.5 3 3c1 1 1 2.7 0 3.7s-2.7 1-3.7 0l-3-3c-1-1-1-2.7 0-3.7s2.7-1 3.7 0zm13.8-160.8 3 3c1 1 1 2.7 0 3.7s-2.7 1-3.7 0l-3-3c-1-1-1-2.7 0-3.7.9-1 2.6-1 3.7 0zm-12.5 12.5 3 3c1 1 1 2.7 0 3.7s-2.7 1-3.7 0l-3-3c-1-1-1-2.7 0-3.7s2.7-1 3.7 0zm-12.5 12.5 3 3c1 1 1 2.7 0 3.7s-2.7 1-3.7 0l-3-3c-1-1-1-2.7 0-3.7 1-1.1 2.7-1.1 3.7 0zm-16.2 12.4c1-1 2.7-1 3.7 0l3 3c1 1 1 2.7 0 3.7s-2.7 1-3.7 0l-3-3c-1-1-1-2.7 0-3.7zm-8.7 12.5 3 3c1 1 1 2.7 0 3.7s-2.7 1-3.7 0l-3-3c-1-1-1-2.7 0-3.7s2.6-1 3.7 0zM89 454.1l3 3c1 1 1 2.7 0 3.7s-2.7 1-3.7 0l-3-3c-1-1-1-2.7 0-3.7 1-1.1 2.7-1.1 3.7 0zm-12.5 12.4 3 3c1 1 1 2.7 0 3.7s-2.7 1-3.7 0l-3-3c-1-1-1-2.7 0-3.7s2.7-1 3.7 0zM64.1 479l3 3c1 1 1 2.7 0 3.7s-2.7 1-3.7 0l-3-3c-1-1-1-2.7 0-3.7s2.6-1 3.7 0zM0 375.3h150.9V244.2H0v131.1zm139.8-15.6v4.2c0 1.5-1.2 2.6-2.6 2.6s-2.6-1.2-2.6-2.6v-4.2c0-1.5 1.2-2.6 2.6-2.6s2.6 1.1 2.6 2.6zm-17.6 0v4.2c0 1.5-1.2 2.6-2.6 2.6s-2.6-1.2-2.6-2.6v-4.2c0-1.5 1.2-2.6 2.6-2.6s2.6 1.1 2.6 2.6zm-17.7 0v4.2c0 1.5-1.2 2.6-2.6 2.6-1.5 0-2.6-1.2-2.6-2.6v-4.2c0-1.5 1.2-2.6 2.6-2.6 1.5-.1 2.6 1.1 2.6 2.6zM84.3 357c1.5 0 2.6 1.2 2.6 2.6v4.2c0 1.5-1.2 2.6-2.6 2.6-1.5 0-2.6-1.2-2.6-2.6v-4.2c-.1-1.4 1.1-2.6 2.6-2.6zm-15 2.7v4.2c0 1.5-1.2 2.6-2.6 2.6-1.5 0-2.6-1.2-2.6-2.6v-4.2c0-1.5 1.2-2.6 2.6-2.6 1.4-.1 2.6 1.1 2.6 2.6zm-17.7 0v4.2c0 1.5-1.2 2.6-2.6 2.6-1.5 0-2.6-1.2-2.6-2.6v-4.2c0-1.5 1.2-2.6 2.6-2.6 1.5-.1 2.6 1.1 2.6 2.6zm-17.6 0v4.2c0 1.5-1.2 2.6-2.6 2.6-1.5 0-2.6-1.2-2.6-2.6v-4.2c0-1.5 1.2-2.6 2.6-2.6 1.4-.1 2.6 1.1 2.6 2.6zm-17.6 0v4.2c0 1.5-1.2 2.6-2.6 2.6-1.5 0-2.6-1.2-2.6-2.6v-4.2c0-1.5 1.2-2.6 2.6-2.6 1.4-.1 2.6 1.1 2.6 2.6zm123.4-104v4.2c0 1.5-1.2 2.6-2.6 2.6s-2.6-1.2-2.6-2.6v-4.2c0-1.5 1.2-2.6 2.6-2.6s2.6 1.1 2.6 2.6zm-17.6 0v4.2c0 1.5-1.2 2.6-2.6 2.6s-2.6-1.2-2.6-2.6v-4.2c0-1.5 1.2-2.6 2.6-2.6s2.6 1.1 2.6 2.6zm-17.7 0v4.2c0 1.5-1.2 2.6-2.6 2.6-1.5 0-2.6-1.2-2.6-2.6v-4.2c0-1.5 1.2-2.6 2.6-2.6 1.5 0 2.6 1.1 2.6 2.6zm-20.2-2.6c1.5 0 2.6 1.2 2.6 2.6v4.2c0 1.5-1.2 2.6-2.6 2.6-1.5 0-2.6-1.2-2.6-2.6v-4.2c-.1-1.5 1.1-2.6 2.6-2.6zm-15 2.6v4.2c0 1.5-1.2 2.6-2.6 2.6-1.5 0-2.6-1.2-2.6-2.6v-4.2c0-1.5 1.2-2.6 2.6-2.6 1.4 0 2.6 1.1 2.6 2.6zm-17.7 0v4.2c0 1.5-1.2 2.6-2.6 2.6-1.5 0-2.6-1.2-2.6-2.6v-4.2c0-1.5 1.2-2.6 2.6-2.6 1.5 0 2.6 1.1 2.6 2.6zm-17.6 0v4.2c0 1.5-1.2 2.6-2.6 2.6-1.5 0-2.6-1.2-2.6-2.6v-4.2c0-1.5 1.2-2.6 2.6-2.6 1.4 0 2.6 1.1 2.6 2.6zm-17.6 0v4.2c0 1.5-1.2 2.6-2.6 2.6-1.5 0-2.6-1.2-2.6-2.6v-4.2c0-1.5 1.2-2.6 2.6-2.6 1.4 0 2.6 1.1 2.6 2.6zM44.4 137.1l106.7 106.7 92.7-92.7L137.1 44.4l-92.7 92.7zm109.9 87.8-3 3c-1 1-2.7 1-3.7 0s-1-2.7 0-3.7l3-3c1-1 2.7-1 3.7 0s1 2.6 0 3.7zm-12.4-12.5-3 3c-1 1-2.7 1-3.7 0s-1-2.7 0-3.7l3-3c1-1 2.7-1 3.7 0s1 2.7 0 3.7zm-12.5-12.5-3 3c-1 1-2.7 1-3.7 0s-1-2.7 0-3.7l3-3c1-1 2.7-1 3.7 0s1 2.7 0 3.7zm-12.5-16.2c1 1 1 2.7 0 3.7l-3 3c-1 1-2.7 1-3.7 0s-1-2.7 0-3.7l3-3c1-1 2.7-1 3.7 0zm-12.5-8.7-3 3c-1 1-2.7 1-3.7 0s-1-2.7 0-3.7l3-3c1-1 2.7-1 3.7 0 1.1 1 1.1 2.7 0 3.7zM92 162.5l-3 3c-1 1-2.7 1-3.7 0s-1-2.7 0-3.7l3-3c1-1 2.7-1 3.7 0s1 2.7 0 3.7zM79.5 150l-3 3c-1 1-2.7 1-3.7 0s-1-2.7 0-3.7l3-3c1-1 2.7-1 3.7 0s1 2.7 0 3.7zM67 137.6l-3 3c-1 1-2.7 1-3.7 0s-1-2.7 0-3.7l3-3c1-1 2.7-1 3.7 0 1.1 1 1.1 2.7 0 3.7zm160.8 13.8-3 3c-1 1-2.7 1-3.7 0s-1-2.7 0-3.7l3-3c1-1 2.7-1 3.7 0 1.1.9 1.1 2.6 0 3.7zm-12.4-12.5-3 3c-1 1-2.7 1-3.7 0s-1-2.7 0-3.7l3-3c1-1 2.7-1 3.7 0s1 2.7 0 3.7zm-12.5-12.5-3 3c-1 1-2.7 1-3.7 0s-1-2.7 0-3.7l3-3c1-1 2.7-1 3.7 0s1 2.7 0 3.7zm-12.5-16.2c1 1 1 2.7 0 3.7l-3 3c-1 1-2.7 1-3.7 0s-1-2.7 0-3.7l3-3c1-1 2.7-1 3.7 0zm-12.4-8.7-3 3c-1 1-2.7 1-3.7 0s-1-2.7 0-3.7l3-3c1-1 2.7-1 3.7 0s1 2.6 0 3.7zM165.5 89l-3 3c-1 1-2.7 1-3.7 0s-1-2.7 0-3.7l3-3c1-1 2.7-1 3.7 0s1 2.7 0 3.7zM153 76.5l-3 3c-1 1-2.7 1-3.7 0s-1-2.7 0-3.7l3-3c1-1 2.7-1 3.7 0s1 2.7 0 3.7zm-12.5-12.4-3 3c-1 1-2.7 1-3.7 0s-1-2.7 0-3.7l3-3c1-1 2.7-1 3.7 0 1.1 1 1.1 2.6 0 3.7z"></path><path d="m468.6 309.5-66.2-37.7 19.5-74.5-73.5 20.1-38.9-66.5-37.7 66.2-74.5-19.5 20.1 73.5-66.5 38.9 66.2 37.7-19.5 74.5 73.5-20.1 38.9 66.5 37.7-66.2 74.5 19.5-20.1-73.5 66.5-38.9zm-158.8 96.3c-53 0-96-43-96-96s43-96 96-96 96 43 96 96-43 96-96 96z"></path></svg>