<svg data-name="Layer 1" xmlns="http://www.w3.org/2000/svg" viewBox="0 0 528.27 628.81"><path d="M528.27 264.13C528.27 118.49 409.78 0 264.13 0S0 118.49 0 264.13c0 118.41 78.33 218.88 185.89 252.3v34.14c0 43.14 35.1 78.24 78.24 78.24s78.24-35.1 78.24-78.24v-34.14C449.93 483 528.26 382.54 528.26 264.13ZM300.28 550.57c0 19.93-16.22 36.15-36.15 36.15s-36.15-16.22-36.15-36.15v-24.84c11.83 1.63 23.88 2.54 36.15 2.54s24.32-.91 36.15-2.54v24.84Zm42.09-286.44c0-43.14-35.1-78.24-78.24-78.24s-78.24 35.1-78.24 78.24v102.59c-30.88-23.61-50.85-60.8-50.85-102.59 0-71.18 57.91-129.09 129.09-129.09s129.09 57.91 129.09 129.09c0 41.79-19.97 78.98-50.85 102.59V264.13Zm-42.09 0c0 19.93-16.22 36.15-36.15 36.15s-36.15-16.22-36.15-36.15 16.22-36.15 36.15-36.15 36.15 16.22 36.15 36.15Zm-72.29 69.32c10.82 5.67 23.11 8.92 36.15 8.92s25.32-3.25 36.15-8.92v54.58c-11.48 3.35-23.6 5.19-36.15 5.19s-24.67-1.83-36.15-5.19v-54.58Zm36.15 101.86c12.4 0 24.49-1.36 36.15-3.88v51.74c-11.77 1.94-23.84 2.99-36.15 2.99s-24.38-1.05-36.15-2.99v-51.74c11.66 2.52 23.74 3.87 36.15 3.87Zm78.24 36.58v-55.58c55.14-28.46 92.95-85.97 92.95-152.18 0-94.39-76.79-171.19-171.19-171.19S92.95 169.74 92.95 264.13c0 66.21 37.81 123.72 92.95 152.18v55.58C101.97 440.18 42.1 359.03 42.1 264.13c0-122.43 99.61-222.04 222.04-222.04s222.04 99.61 222.04 222.04c0 94.9-59.86 176.05-143.8 207.76Z"></path></svg>