<svg xmlns="http://www.w3.org/2000/svg" width="622.7" viewBox="0 0 622.7 626.9" height="626.9" xml:space="preserve" style="enable-background:new 0 0 622.7 626.9"><path d="M504.5 399.4c-33.2 75.3-108 127.9-195.1 127.9C191.5 527.2 96 431 96 312.4c0-118.7 95.6-214.9 213.4-214.9 115.5 0 209.5 92.4 213.3 207.8H372.2l89.1-71.5L123.5 344h121.7l-44.8 41.4h414.2c5.4-23.1 8.2-47.1 8.2-71.9C622.7 140.3 483.3 0 311.4 0 139.4 0 0 140.3 0 313.4c0 173.1 139.4 313.5 311.4 313.5 142.4 0 262.4-96.2 299.5-227.5H504.5"></path></svg>