<svg xmlns="http://www.w3.org/2000/svg" width="642" viewBox="0 0 642 506.41" height="506.41" data-name="Layer 1"><path d="M95.53 186.37c-21.06 0-38.13 17.08-38.13 38.13 0 6.93 1.86 13.48 5.07 19.07l103.55 186.37a37.931 37.931 0 0 0 33 19.07c21.06 0 38.13-17.08 38.13-38.13V186.37H95.53Zm103.49 224.51L95.53 224.51h103.49v186.37Zm228.68-95.47c-20.99 0-38.07 17.08-38.07 38.07v57.39c0 21.06 17.08 38.13 38.07 38.13h118.77c21.06 0 38.13-17.08 38.13-38.13V315.4H427.7ZM642 224.5v186.37c0 52.76-42.77 95.53-95.53 95.53H427.83c-52.77 0-95.53-42.82-95.53-95.59l.06-57.39c.06-52.71 42.8-95.4 95.51-95.4h118.6v-16.76c0-9.25-7.5-16.75-16.75-16.75H294.55v183.8c0 51.09-39.05 95.12-90.06 97.95-37.65 2.09-70.81-17.58-88.16-47.61L12.78 272.27C4.63 258.21 0 241.9 0 224.51c0-52.71 42.76-95.47 95.53-95.47h103.49V95.53C199.02 42.77 241.79 0 294.55 0h251.92v38.13H294.55c-31.7 0-57.39 25.7-57.39 57.39v71.58H95.53c-31.71 0-57.39 25.74-57.39 57.39 0 10.46 2.76 20.29 7.64 28.7l103.55 186.37c9.9 17.17 28.51 28.74 49.8 28.7 31.53-.06 57.28-27.86 57.28-59.38V186.36h290.06c21.06 0 38.13 17.07 38.13 38.13v71.65H427.7c-31.66 0-57.33 25.67-57.33 57.33v57.39c0 31.71 25.68 57.39 57.33 57.39h118.77c31.7 0 57.39-25.7 57.39-57.39V224.49c0-31.65-25.68-57.39-57.39-57.39H256.41V95.52c0-21.06 17.07-38.13 38.13-38.13h251.92v38.13H311.29c-9.25 0-16.75 7.5-16.75 16.75v16.76h251.92c52.77 0 95.53 42.76 95.53 95.47ZM529.75 353.51c9.25 0 16.75 7.5 16.75 16.75v17.05c0 9.25-7.5 16.75-16.75 16.75h-85.27c-9.25 0-16.75-7.5-16.75-16.75v-17.05c0-9.25 7.5-16.75 16.75-16.75h85.27Z"></path></svg>