<svg data-name="Layer 1" xmlns="http://www.w3.org/2000/svg" viewBox="0 0 625.62 625.62"><path d="M190.48 326.21c.78 7.13 2.16 14.21 4.18 21.15l84.21-27.81-88.39 6.66ZM194.63 278.33c-2.02 6.94-3.4 14.01-4.17 21.15l88.39 6.52-84.22-27.67ZM235.84 408.85c5.69 4.57 11.7 8.55 17.93 11.96l39.87-79.17-57.8 67.21ZM204.92 372.05c3.42 6.23 7.41 12.23 11.99 17.92l67.14-57.9-79.14 39.98ZM216.91 235.64c-4.6 5.71-8.6 11.74-12.04 18l79.27 39.9-67.23-57.9ZM347.37 194.65c-6.92-2.02-13.99-3.4-21.1-4.18l-6.57 88.22 27.67-84.04ZM299.56 190.45c-7.12.77-14.19 2.14-21.12 4.15l27.71 84.09-6.59-88.24ZM278.48 431.02c6.94 2.01 14.01 3.38 21.14 4.15l6.54-88.34-27.68 84.2ZM253.74 204.81c-6.23 3.41-12.23 7.39-17.91 11.95l57.8 67.11-39.88-79.07ZM420.73 253.61c-3.41-6.21-7.38-12.2-11.95-17.87l-66.99 57.71 78.94-39.84ZM435.14 299.37c-.78-7.11-2.16-14.17-4.17-21.09l-83.99 27.69 88.16-6.6ZM332.21 283.87l57.69-67.02c-5.67-4.57-11.66-8.54-17.88-11.96l-39.82 78.98Z"></path><path d="M297.23 56.15 56.15 297.23c-74.87 74.87-74.87 197.37 0 272.24s197.37 74.87 272.24 0l241.08-241.08c74.87-74.87 74.87-197.37 0-272.24s-197.37-74.87-272.24 0Zm102.62 169.61c3.2 3.2 6.16 6.53 8.93 9.97l52.42-45.16c8.28 10.03 15.39 20.71 21.33 31.85l-61.8 31.19c4.34 7.9 7.77 16.17 10.24 24.66l65.71-21.67c3.75 12.3 6.24 24.89 7.47 37.59l-69.01 5.17c.97 8.87.98 17.83.02 26.7l69.01 5.12c-1.21 12.7-3.7 25.3-7.43 37.6l-65.73-21.63c-2.46 8.5-5.87 16.77-10.2 24.68l61.82 31.15c-5.93 11.15-13.03 21.83-21.3 31.88l-52.45-45.13c-2.8 3.48-5.8 6.86-9.03 10.1-3.15 3.15-6.44 6.08-9.83 8.82l45.17 52.4c-10.03 8.3-20.71 15.42-31.84 21.37l-31.2-61.79c-7.9 4.35-16.17 7.79-24.66 10.28l21.68 65.7c-12.31 3.76-24.91 6.27-37.62 7.5l-5.18-69.01c-8.88.98-17.84.99-26.72.04l-5.11 69.01c-12.72-1.21-25.33-3.69-37.65-7.42l21.61-65.74c-8.51-2.46-16.79-5.87-24.71-10.21l-31.14 61.82c-11.16-5.93-21.86-13.04-31.91-21.33l45.12-52.46c-3.48-2.79-6.85-5.78-10.07-9.01-3.16-3.16-6.11-6.47-8.85-9.87l-52.39 45.18c-8.31-10.04-15.43-20.73-21.38-31.88l61.78-31.22c-4.35-7.91-7.79-16.19-10.26-24.69l-65.7 21.7c-3.76-12.32-6.26-24.93-7.49-37.65l69.01-5.2c-.97-8.88-.97-17.85-.01-26.73l-69.02-5.09c1.22-12.72 3.71-25.33 7.45-37.65l65.74 21.6c2.47-8.5 5.9-16.78 10.24-24.69l-61.83-31.12c5.96-11.2 13.11-21.94 21.45-32.02l52.42 45.15c2.75-3.41 5.69-6.71 8.86-9.88 3.22-3.22 6.59-6.21 10.06-9l-45.15-52.43c10.05-8.28 20.74-15.39 31.89-21.33l31.18 61.8c7.91-4.33 16.19-7.75 24.69-10.21l-21.66-65.72c12.31-3.74 24.92-6.23 37.62-7.44l5.15 69.01c8.88-.96 17.83-.95 26.71.02l5.14-69.02c12.7 1.23 25.3 3.72 37.6 7.47l-21.64 65.72c8.49 2.48 16.76 5.91 24.66 10.25l31.16-61.81c11.14 5.94 21.81 13.05 31.85 21.33l-45.14 52.43c3.43 2.76 6.76 5.72 9.94 8.91Z"></path><path d="M326.35 435.12c7.13-.78 14.2-2.17 21.12-4.19l-27.76-84.11 6.63 88.31ZM408.88 389.75c4.56-5.68 8.53-11.68 11.94-17.9l-79-39.81 67.07 57.71ZM372.14 420.65c6.22-3.42 12.21-7.4 17.88-11.98l-57.79-67.04 39.91 79.02ZM431.02 347.17c2.01-6.92 3.38-13.98 4.15-21.1L347 319.52l84.03 27.65Z"></path></svg>