<svg xmlns="http://www.w3.org/2000/svg" width="548.9" viewBox="0 0 548.9 642" height="642" style="overflow:visible;enable-background:new 0 0 548.9 642" xml:space="preserve"><path class="st0" d="M274.5 0c-82.3 0-149.3 67-149.3 149.3 0 7.5.6 14.8 1.6 22l31.8 210.4c8.4 56.4 57.1 99.8 115.9 99.8s107.5-43.4 115.9-99.8l31.8-210.4c1-7.2 1.6-14.5 1.6-22C423.7 67 356.8 0 274.5 0zm0 35.3c62.9 0 114 51.1 114 114 0 6-.4 11.9-1.3 17.7-8.5 54.4-55.8 96.2-112.6 96.2S170.4 221.4 161.8 167c-.9-5.8-1.3-11.7-1.3-17.7 0-62.9 51.1-114 114-114zm80.9 341.1c-5.8 39.4-39.9 69.8-81 69.8s-75.1-30.4-81-69.8l-17.4-115c26.3 23.1 60.7 37.1 98.4 37.1s72.1-14 98.4-37.1l-17.4 115z"></path><path class="st0" d="M548.9 367.5C548.9 519.1 426 642 274.5 642S0 519.1 0 367.5 122.9 93.1 274.5 93.1 548.9 216 548.9 367.5zm-35.3 0c0-131.9-107.3-239.1-239.1-239.1-131.9 0-239.1 107.3-239.1 239.1 0 131.9 107.3 239.1 239.1 239.1 131.8.1 239.1-107.2 239.1-239.1z"></path></svg>