<svg id="Layer_1" data-name="Layer 1" xmlns="http://www.w3.org/2000/svg" viewBox="0 0 610.91 610.22">   <path d="M0,305.11c0,164.11,129.43,297.95,291.78,305.11V0C129.43,7.16,0,141,0,305.11ZM261.39,112.25c21.23,22.01-2.59,79.41-53.19,128.22-50.6,48.8-108.83,70.53-130.05,48.52-21.23-22.01,2.59-79.41,53.19-128.22,50.6-48.8,108.83-70.53,130.06-48.52Z"></path>   <path d="M319.13,0V610.22c162.35-7.16,291.78-141,291.78-305.11S481.48,7.16,319.13,0Zm196.57,340.97c-50.6,48.8-108.83,70.53-130.05,48.52-21.23-22.01,2.59-79.41,53.19-128.22,50.6-48.8,108.83-70.53,130.06-48.52,21.23,22.01-2.59,79.41-53.19,128.22Z"></path> </svg>