<svg xmlns="http://www.w3.org/2000/svg" width="611.2" viewBox="0 0 611.2 611.2" height="611.2" style="enable-background:new 0 0 611.2 611.2" xml:space="preserve"><path d="M502.7 151.8c-27.2 0-47.2 7.1-62 18.6 11.5-14.8 18.6-34.8 18.6-62C459.4 45.9 411.8 0 305.6 0 199.4 0 151.8 45.9 151.8 108.4c0 27.2 7.1 47.2 18.6 62-14.8-11.5-34.8-18.6-62-18.6C45.9 151.8 0 199.4 0 305.6c0 106.2 45.9 153.8 108.4 153.8 27.2 0 47.2-7.1 62-18.6-11.5 14.8-18.6 34.8-18.6 62 0 62.5 47.6 108.4 153.8 108.4 106.2 0 153.8-45.9 153.8-108.4 0-27.2-7.1-47.2-18.6-62 14.8 11.5 34.8 18.6 62 18.6 62.5 0 108.4-47.6 108.4-153.8 0-106.2-45.9-153.8-108.5-153.8m-184.5 73.7c9-15.6 28.9-20.9 44.5-11.9 15.6 9 20.9 28.9 11.9 44.5-9 15.6-28.9 20.9-44.5 11.9-15.5-8.9-20.8-28.9-11.9-44.5m-61.6-11.9c15.6-9 35.5-3.7 44.5 11.9 9 15.6 3.7 35.5-11.9 44.5-15.6 9-35.5 3.7-44.5-11.9-9.1-15.6-3.7-35.5 11.9-44.5m-48.8 108.3c-9-15.6-3.7-35.5 11.9-44.5 15.6-9 35.5-3.7 44.5 11.9 9 15.6 3.7 35.5-11.9 44.5-15.6 9-35.5 3.7-44.5-11.9m81.3 75.7c-15.6 9-35.5 3.7-44.5-11.9-9-15.6-3.7-35.5 11.9-44.5 15.6-9 35.5-3.7 44.5 11.9 9.1 15.5 3.7 35.5-11.9 44.5m-7.7-75.7c-9-15.6-3.7-35.5 11.9-44.5 15.6-9 35.5-3.7 44.5 11.9 9 15.6 3.7 35.5-11.9 44.5-15.5 9-35.5 3.7-44.5-11.9m93.3 63.7c-9 15.6-28.9 20.9-44.5 11.9-15.6-9-20.9-28.9-11.9-44.5 9-15.6 28.9-20.9 44.5-11.9 15.5 9 20.9 28.9 11.9 44.5m24.9-51.8c-15.6 9-35.5 3.7-44.5-11.9-9-15.6-3.7-35.5 11.9-44.5 15.6-9 35.5-3.7 44.5 11.9 9 15.6 3.6 35.5-11.9 44.5"></path></svg>