<svg xmlns="http://www.w3.org/2000/svg" width="555.6" viewBox="0 0 555.6 633.2" height="633.2" xml:space="preserve" style="enable-background:new 0 0 555.6 633.2"><path d="M294.3 0c-.8 11-1.2 22.1-1.2 33.3 0 186.1 106.8 347.3 262.5 425.6v-308L294.3 0zM264.6 34.4c0-11.6-.4-23.1-1.2-34.4L0 152v309.1c156.8-77.9 264.6-239.7 264.6-426.7zM14.8 481.4l263 151.8 263-151.8c-75.4-50-165.8-79.2-263-79.2-97.2 0-187.6 29.2-263 79.2z"></path><path d="M352.7 314c0 41.3-33.5 74.9-74.9 74.9-41.3 0-74.8-33.5-74.8-74.9 0-41.4 33.5-74.9 74.8-74.9 41.3.1 74.9 33.6 74.9 74.9z"></path></svg>