<svg xmlns="http://www.w3.org/2000/svg" width="642" viewBox="0 0 642 642" height="642" style="overflow:visible;enable-background:new 0 0 642 642" xml:space="preserve"><path d="M513.6 128.4v128.4h-57.8V122c0-35.5-28.7-64.2-64.2-64.2H256.8V0h128.4c70.9 0 128.4 57.5 128.4 128.4zM513.6 513.6H385.2v-57.8H520c35.5 0 64.2-28.7 64.2-64.2V256.8H642v128.4c0 70.9-57.5 128.4-128.4 128.4zM128.4 513.6V385.2h57.8V520c0 35.5 28.7 64.2 64.2 64.2h134.8V642H256.8c-70.9 0-128.4-57.5-128.4-128.4zM128.4 128.4h128.4v57.8H122c-35.5 0-64.2 28.7-64.2 64.2v134.8H0V256.8c0-70.9 57.5-128.4 128.4-128.4z"></path><path d="M443 122v134.8h-57.8V128.4H256.8V70.6h134.8c28.4 0 51.4 23 51.4 51.4zM520 443H385.2v-57.8h128.4V256.8h57.8v134.8c0 28.4-23 51.4-51.4 51.4zM199 520V385.2h57.8v128.4h128.4v57.8H250.4c-28.4 0-51.4-23-51.4-51.4zM122 199h134.8v57.8H128.4v128.4H70.6V250.4c0-28.4 23-51.4 51.4-51.4z"></path></svg>