<svg id="Layer_1" data-name="Layer 1" xmlns="http://www.w3.org/2000/svg" viewBox="0 0 239.11 586.22">   <path d="M206.05,7.17C203.27,2.68,198.46,0,193.18,0h0c-1.32,0-2.61,.17-3.85,.49-3.71,.96-6.94,3.31-9.02,6.68h0s0,0,0,0l-23.94,38.7L132.42,7.17c-2.78-4.49-7.59-7.17-12.87-7.17h0c-5.28,0-10.08,2.68-12.86,7.17l-24.1,38.95L58.81,7.17c-2.78-4.49-7.59-7.17-12.87-7.17s-10.09,2.68-12.86,7.17L0,60.62V412.58l92.58,158.17c5.67,9.69,15.76,15.47,26.98,15.47s21.31-5.78,26.98-15.47l92.58-158.17V60.62L206.05,7.17Zm-31.51,488.81H64.57L13.6,408.89V64.49l17.42-28.16h29.83l15.85,25.63H36.01c-5.98,.6-10.83,5.45-10.83,11.43V400.05c0,7.8,13.53,14.13,30.23,14.13s30.23-6.33,33.12-14.13V62.36l16.11-26.04h29.83l15.85,25.63h-40.47c-5.98,.6-10.83,5.45-10.83,11.43V400.05c0,7.8,13.53,14.13,30.23,14.13s30.23-6.33,33.12-14.13V61.99l15.88-25.66h29.83l15.85,25.63h-40.23c-5.98,.6-10.83,5.45-10.83,11.43V400.05c0,7.8,13.53,14.13,30.23,14.13,8.62,0,16.38-1.7,21.88-4.4l-50.46,86.21Z"></path> </svg>