<svg data-name="Layer 1" xmlns="http://www.w3.org/2000/svg" viewBox="0 0 577.89 621.44"><path d="M577.89 152.1C523.71 61.04 424.36 0 310.72 0 139.11 0 0 139.11 0 310.72s139.11 310.72 310.72 310.72c113.64 0 212.99-61.04 267.17-152.1L447.58 310.72 577.89 152.1Zm-351.9 317.91c-102.02 0-188.38-66.94-217.63-159.29 29.24-92.35 115.61-159.29 217.63-159.29s188.38 66.94 217.63 159.29c-29.24 92.35-115.61 159.29-217.63 159.29Z"></path><path d="M113.33 234.56c-42.06 0-76.16 34.1-76.16 76.16s34.1 76.16 76.16 76.16 76.16-34.1 76.16-76.16-34.1-76.16-76.16-76.16Z"></path></svg>