<svg xmlns="http://www.w3.org/2000/svg" width="595.5" viewBox="0 0 595.5 593.7" height="593.7" style="enable-background:new 0 0 595.5 593.7" xml:space="preserve"><path d="M595.5 0H473.6v128.6c-17.9-6-37.1-8.9-57-8.9-20.2 0-41.5 3-59.6 9.2V0H234.7v128.2c-17.6-5.7-36.4-8.5-55.9-8.5-19.6 0-38.4 2.8-56.1 8.6V0H0v593.7h122.7V466.2c17.6 6 37.2 8.9 56.8 8.9 19.5 0 37.5-2.9 55.1-8.8v127.4h124V465.5c18.2 6.3 37.6 11 57.9 11 19.9 0 39-4.7 56.9-10.7v127.8h121.9V0zM179.6 359.6c-34.2 0-61.9-27.7-61.9-61.9s27.7-61.9 61.9-61.9 61.9 27.7 61.9 61.9-27.7 61.9-61.9 61.9zm257.9-3.5c-50.1 16.4-95.8-29.2-79.3-79.4 5.8-17.7 19.9-31.8 37.6-37.6 50.1-16.5 95.8 29.2 79.4 79.4-5.9 17.7-20 31.8-37.7 37.6z"></path></svg>