<svg xmlns="http://www.w3.org/2000/svg" width="440" viewBox="0 0 440 593" height="593"><path d="M426.3 296.5c-10.2-27.5-25.7-52.4-45.4-73.4-40.2 43.1-97.4 70.1-161 70.1s-120.8-27-161-70.1C99.2 180 156.4 153 220 153s120.8 27 161 70.1c20.3-21.8 36.3-47.8 46.5-76.5C397.2 61.2 315.8 0 220 0S42.8 61.2 12.6 146.6C4.4 169.5 0 194.3 0 220c0 26.9 4.8 52.7 13.7 76.5C23.9 324 39.4 348.9 59 370c40.2-43.1 97.4-70.1 161-70.1s120.8 27 161 70.1c-40.2 43.1-97.4 70.1-161 70.1S99.2 413.1 59 370c-20.3 21.8-36.3 47.8-46.5 76.5C42.8 531.9 124.3 593 220 593s177.2-61.2 207.4-146.6c8.1-23 12.6-47.7 12.6-73.4 0-26.9-4.8-52.7-13.7-76.5z"></path><circle transform="rotate(-67.5 101.21 223.073)" cx="101.2" cy="223.1" r="13.6"></circle><circle transform="rotate(-67.5 338.8 369.942)" cx="338.8" cy="370" r="13.6"></circle></svg>