<svg xmlns="http://www.w3.org/2000/svg" width="614" viewBox="0 0 614 589.7" height="589.7" xml:space="preserve" style="enable-background:new 0 0 614 589.7"><path d="m107.2 122.9 72 124.7 72-124.7z"></path><path d="M614 122.9h-57.8C500.5 48.5 409.6 0 306.9 0 137.4 0 0 132 0 294.8s137.4 294.8 306.9 294.8c169.5 0 306.9-132 306.9-294.8 0-44.2-10.2-86.1-28.3-123.7l28.5-48.2zm-36.7 171.9c0 143.4-121.1 259.7-270.4 259.7-149.3 0-270.4-116.3-270.4-259.7S157.6 35.1 306.9 35.1c80.7 0 153 34 202.6 87.8h-1.8l-64.3 113.8-9.9-113.8H332.3l-139.6 241H294l66.7-116.2 13.6 116.2h97.6l90.6-153.7c9.6 26.5 14.8 55 14.8 84.6z"></path></svg>