<svg data-name="Layer 1" xmlns="http://www.w3.org/2000/svg" viewBox="0 0 597.82 597.82"><path d="m289.13 597.58.02.02.27.23-.09-.24c-.06-.17-.13-.34-.19-.51v.5h-.02ZM590.37 365.11 308.69 597.57c137.96-4.45 252.23-102.34 281.68-232.46ZM6.77 364.55l.68.56c-.03-.15-.07-.31-.1-.46-.19-.03-.38-.07-.58-.1Z"></path><path d="M289.13 597.58 7.45 365.11C36.9 495.23 151.17 593.13 289.13 597.57ZM590.48 364.65c4.75-21.16 7.34-43.14 7.34-65.74C597.82 133.83 464 0 298.91 0S0 133.83 0 298.91c0 22.6 2.59 44.58 7.35 65.74 129.34 20.65 239.78 111.6 281.8 232.42V388.54l-43.1-38.22c-3.57-3.17-3.57-8.75 0-11.91l41.85-37.11c3.57-3.17 3.57-8.75 0-11.92l-39.24-34.79c-4.95-4.39-12.41-4.39-17.37 0l-41.89 37.15c-4.95 4.39-12.41 4.39-17.37 0l-41.73-37c-4.95-4.39-12.41-4.39-17.37 0l-41.73 37c-4.95 4.39-12.41 4.39-17.37 0L9.34 252.29c-3.57-3.17-3.57-8.75 0-11.91l44.5-39.46a13.101 13.101 0 0 1 17.37 0l41.73 37c4.95 4.39 12.41 4.39 17.37 0l39.08-34.65c3.57-3.17 3.57-8.75 0-11.92l-41.85-37.11c-3.57-3.17-3.57-8.75 0-11.91l44.5-39.46c4.95-4.39 12.41-4.39 17.37 0l41.89 37.15c4.95 4.39 12.41 4.39 17.37 0l39.24-34.79c3.57-3.17 3.57-8.75 0-11.91l-41.85-37.11c-3.57-3.17-3.57-8.75 0-11.92l44.49-39.46a13.101 13.101 0 0 1 17.37 0l44.5 39.46c3.57 3.17 3.57 8.75 0 11.92l-41.85 37.11c-3.57 3.17-3.57 8.74 0 11.91l38.91 34.51c4.95 4.39 12.41 4.39 17.37 0l41.57-36.86c4.95-4.39 12.41-4.39 17.37 0l44.5 39.46c3.57 3.17 3.57 8.75 0 11.91l-41.85 37.11c-3.57 3.17-3.57 8.75 0 11.92l39.07 34.65a13.101 13.101 0 0 0 17.37 0l41.73-37c4.95-4.39 12.41-4.39 17.37 0l44.5 39.46c3.57 3.17 3.57 8.75 0 11.91l-44.5 39.46c-4.95 4.39-12.41 4.39-17.37 0l-41.73-37c-4.95-4.39-12.41-4.39-17.37 0l-41.73 37a13.101 13.101 0 0 1-17.37 0l-41.57-36.86a13.101 13.101 0 0 0-17.37 0l-38.91 34.51c-3.57 3.17-3.57 8.75 0 11.92l41.85 37.11c3.57 3.17 3.57 8.74 0 11.91l-43.74 38.79v207.95c42.03-120.83 152.46-211.77 281.8-232.42Z"></path><path d="M590.48 364.65c-.04.15-.07.31-.11.46l.68-.56c-.19.03-.38.07-.57.1ZM248.66 156.56c-4.95-4.39-12.41-4.39-17.37 0l-39.24 34.79c-3.57 3.17-3.57 8.75 0 11.92l39.24 34.79c4.95 4.39 12.41 4.39 17.37 0l39.24-34.79c3.57-3.17 3.57-8.75 0-11.92l-39.24-34.79ZM349.49 237.78c4.95 4.39 12.41 4.39 17.37 0l38.91-34.51c3.57-3.17 3.57-8.75 0-11.92l-38.91-34.51a13.101 13.101 0 0 0-17.37 0l-38.91 34.51c-3.57 3.17-3.57 8.75 0 11.92l38.91 34.51ZM308.68 597.07c-.06.17-.13.34-.19.51l-.09.24.27-.23.02-.02h-.02v-.5Z"></path></svg>