<svg xmlns="http://www.w3.org/2000/svg" width="610.6" viewBox="0 0 610.6 613" height="613" xml:space="preserve" style="enable-background:new 0 0 610.6 613"><path d="M462.4 0c-81.7 0-148.2 66.5-148.2 148.2v191.3c43.4 4.5 77.1 41.7 77.1 85.4 0 47.4-38.6 86-86 86s-86-38.6-86-86c0-43.8 33.7-80.9 77.1-85.4V148.2C296.4 66.5 229.9 0 148.2 0 66.5 0 0 66.5 0 148.2v462.4h101.1V147.3c0-25.3 19.8-43.7 47.1-43.7 26 0 47.1 21.1 47.1 47.1v121.7l-.8.6c-48.4 35.3-77.3 92.2-77.3 152 0 103.7 84.4 188.1 188.1 188.1 103.7 0 188.1-84.4 188.1-188.1 0-59.8-28.9-116.6-77.3-152l-.8-.6V150.7c0-26 21.1-47.1 47.1-47.1 27.3 0 47.1 18.4 47.1 43.7v463.3h101.1V148.2C610.6 66.5 544.1 0 462.4 0z"></path></svg>