<svg data-name="Layer 1" xmlns="http://www.w3.org/2000/svg" viewBox="0 0 535.55 618.41"><path d="m372.26 60.32-.22-.12-45.33 26.16V34.02L268 .13l-.23-.13L.23 154.47l-.23.13v155.07l267.78-154.6 57.57 32.53-202.76 117.06-.68.39 47.82 27.02 203.44-117.46 161.71 91.37.67.38V154.6L372.26 60.32z"></path><path d="m209.38 430.81 202.75-117.06.68-.39-47.82-27.02-203.43 117.45L.67 312.89l-.67-.37V463.8l162.88 94.04.22.13 44.92-25.93v51.86l58.93 34.51 268.38-154.47.22-.14V308.26l-268.6 155.07-57.57-32.52z"></path></svg>