<svg xmlns="http://www.w3.org/2000/svg" width="604.9" viewBox="0 0 604.9 604.9" height="604.9" xml:space="preserve"><path d="M138 505.5V139.3h366.2c45 0 81.5-36.5 81.5-81.5V18h-569v569h39.8c45 0 81.5-36.5 81.5-81.5zM588.2 89.4v.3-.3z"></path><path d="M507.4 149.3H148.1l.1 356.8c0 41.2-24 70.8-56.7 80.1-.4.1-.3.7.1.7 70.9-1.8 127.8-57.7 127.8-134.2V220.6h234.5c77.4 0 132.1-56.5 134.2-127 0-.5-.8-.7-.9-.2-9.5 32.3-38.2 55.9-79.8 55.9z"></path><path d="M456.4 230.9H229.5v223.5c0 42.9-10.1 62.6-28.7 86.3-.2.3.2.6.4.4l342.5-341c.2-.2-.1-.5-.3-.3-23.8 18.9-40 31.1-87 31.1z"></path><path d="M0 0v604.9h604.9V0H0zm598.6 598.6H6.4V6.4h592.2v592.2z"></path></svg>