<svg xmlns="http://www.w3.org/2000/svg" width="593.7" viewBox="0 0 593.7 593.6" height="593.6" xml:space="preserve"><path d="M356.6 351.1H5l.6 2.8c4.6 23.7 12.2 46.8 22.4 68.7l.6 1.4h368.3l-40.3-72.9zM547.7 137.9A297.95 297.95 0 0 0 428 30.3l-2-1-48.3 81.8 114.8 208 .7 1.2h99.6l.2-2.2c.5-7.2.8-14.4.8-21.4-.1-56.4-16-111.4-46.1-158.8zM45.5 454.8l2.4 3.7c14.3 21.9 31.4 41.9 50.8 59.3l2.1 1.9 38.3-64.9H45.5zM316.6 214.8l170.8 309.5 2.2-1.9c18.5-15.8 34.9-33.7 49-53.4l.9-1.2-179.9-325.9-43 72.9zM218.5 320.4l178.9-303-2.7-1c-22.8-8-46.6-13.1-70.8-15.3l-1.5-.1-188.5 319.4h84.6zM413.9 454.8h-239L125.2 539l1.8 1.3c50 34.9 108.7 53.4 169.8 53.4 58.6 0 115.3-17.1 163.9-49.3l1.8-1.2-48-87-.6-1.4zM287.3 0l-4.4.2c-25.3 1.2-50.4 5.6-74.4 13l-2.8.9 35.4 64.1L287.3 0zM223 108.9l-46.2-83.8-2 .9C68.6 74 0 180.3 0 296.7c0 7 .3 14.2.8 21.4l.2 2.2h97.2L223 108.9zM298.4 245.6l-44.1 74.8h85.4zM558.1 437.9l2-3.9c13.2-25.2 22.6-52.1 28.1-80.1l.5-2.8h-78.6l48 86.8z"></path></svg>