<svg xmlns="http://www.w3.org/2000/svg" width="614.3" viewBox="0 0 614.3 353.3" height="353.3" xml:space="preserve"><path d="M502.5 205.5c15.9 0 28.8-12.9 28.8-28.8s-12.9-28.8-28.8-28.8-28.8 12.9-28.8 28.8c-.1 15.9 12.8 28.8 28.8 28.8z"></path><path d="M458 4.4h-62.7v83.9H335C304 35.5 246 0 179.6 0 80.4 0 0 79.1 0 176.7s80.4 176.7 179.6 176.7c66.2 0 124-35.2 155.2-87.7h60.6v83.9H458l156.3-119.9V124.4L458 4.4zM179.3 293c-64 0-115.8-51.9-115.8-115.8S115.3 61.4 179.3 61.4c28.8 0 55.1 10.5 75.4 27.9-42.6 6.3-75.4 43-75.4 87.4 0 44.8 33.3 81.7 76.5 87.5-20.4 17.9-47.2 28.8-76.5 28.8zm90.6-87.7c-15.8 0-28.7-12.9-28.7-28.7 0-15.8 12.9-28.7 28.7-28.7 15.8 0 28.7 12.9 28.7 28.7-.1 15.8-12.9 28.7-28.7 28.7zm284.9-4.3L458 272.4v-66.3H356.6c1.6-9.6 2.5-19.4 2.5-29.5 0-9.8-.8-19.4-2.4-28.8H458V81.5l96.8 71.4V201z"></path></svg>