<svg xmlns="http://www.w3.org/2000/svg" width="642" viewBox="0 0 642 594.4" height="594.4" style="overflow:visible;enable-background:new 0 0 642 594.4" xml:space="preserve"><path d="M642 55.3c0 30.5-24.7 55.3-55.3 55.3-30.5 0-55.3-24.8-55.3-55.3 0-19.1 9.7-35.8 24.3-45.8-57.4 39.2-94.8 104.7-94.8 179 .1 45.6 24.7 85.4 61.5 106.8-18.8 103.6-75.3 200.7-173.5 270.8-26.6 18.7-57.3 28-88.5 28.2h-1c-30.1-.6-54.3-25-54.3-55.3 0-30.5 24.7-55.3 55.3-55.3 30.5 0 55.3 24.8 55.3 55.3 0 19.1-9.7 35.8-24.3 45.8 58.1-39.6 94.8-105.7 94.8-179-.1-45.6-24.7-85.4-61.5-106.8 18.8-103.4 75.1-200.6 173.5-270.9 26.3-18.4 57.1-28 89-28.1C617.5.3 642 24.9 642 55.3z"></path><path d="M437 55.3c0 30.5-24.7 55.3-55.3 55.3-30.5 0-55.3-24.8-55.3-55.3 0-19.1 9.7-35.8 24.3-45.8-57.4 39.2-94.8 104.7-94.8 179 .1 45.6 24.7 85.4 61.5 106.8-18.8 103.6-75.3 200.7-173.5 270.8-26.6 18.7-57.3 28-88.5 28.2h-1c-30.3-.5-54.4-25-54.4-55.2 0-30.5 24.7-55.3 55.3-55.3 30.5 0 55.3 24.8 55.3 55.3 0 19.1-9.7 35.8-24.3 45.8 58.1-39.6 94.8-105.7 94.8-179-.1-45.6-24.7-85.4-61.5-106.8 18.8-103.4 75.1-200.6 173.5-270.9C319.5 9.7 350.3.1 382.2 0 412.5.3 437 24.9 437 55.3z"></path></svg>