<svg xmlns="http://www.w3.org/2000/svg" width="569.3" viewBox="0 0 569.3 618.7" height="618.7" xml:space="preserve"><path d="M247.6 223.1v-102c0-12-9.7-21.7-21.7-21.7H121.6c-12 0-21.7 9.7-21.7 21.7v291.3c0 12 9.7 21.7 21.7 21.7h104.3c12 0 21.7-9.7 21.7-21.7V309.9h-24.3v99.9h-99.2V123.7h99.2v99.4h24.3z"></path><path d="M225.7 48.5H119.8c-38 0-71.3 36.2-71.3 77.5v285.1c0 39.3 32 71.3 71.3 71.3h105.9c39.3 0 71.3-32 71.3-71.3V309.3h-24.8V411c0 25.6-20.8 46.5-46.5 46.5H119.8c-25.6 0-46.5-20.8-46.5-46.5V126c0-24.9 19.9-52.7 46.5-52.7h105.9c24.8 0 46.5 23.2 46.5 49.6v100.2H297V122.9c-.1-40.3-32.7-74.4-71.3-74.4z"></path><path d="M442.3 0H127C54.6 0 0 54.6 0 127v275.8c0 73 55.8 130.1 127 130.1h96v85.7h24.8v-88.1c9.1-1.7 17.7-4.4 25.8-8v96h24.8V508.1c9.5-7.3 17.9-15.9 24.9-25.8H448c39.3 0 71.3-32 71.3-71.3V122.9c0-40.3-32.6-74.4-71.3-74.4H321.3c-6.9-9-14.9-17-24-23.8h145.1c58.3 0 102.3 44 102.3 102.3v278.9c0 59.2-41.7 102.3-99.2 102.3h-125v110.5h24.8V533h100.2c70.7 0 123.9-54.6 123.9-127V127C569.3 54.6 514.7 0 442.3 0zm5.7 73.3c24.8 0 46.5 23.2 46.5 49.6v288.2c0 25.6-20.8 46.5-46.5 46.5H337.1c3.1-7.4 5.5-15.3 7.1-23.5h104c12 0 21.7-9.7 21.7-21.7V121.1c0-12-9.7-21.7-21.7-21.7h-104c-1.9-9.1-4.7-17.9-8.3-26.1H448zM322.2 127v96.1H347s0-98.3-.1-99.4h98.7v286.1h-98.7c0-1.3.1-2.6.1-3.9v-96.6h-24.8v96.6c0 59.2-41.7 102.3-99.2 102.3h-96c-57.3 0-102.3-46.3-102.3-105.4V127c0-58.3 44-102.3 102.3-102.3h93c58.3.1 102.2 44 102.2 102.3z"></path></svg>