<svg xmlns="http://www.w3.org/2000/svg" width="606.7" viewBox="0 0 606.7 642" height="642" style="overflow:visible;enable-background:new 0 0 606.7 642" xml:space="preserve"><path d="m401.2 0-97.9 200L205.4 0 0 418.9 109.1 642l96.3-198.3L303.3 642l97.9-198.3L497.5 642l109.1-223.1L401.2 0zm178.6 409.3H418.2l81.6-165.2 80 165.2zM303.3 242.1l81.2 167.2H222.1l81.2-167.2zm-97.9 158-82.6-167.4h164.5l-81.9 167.4zm114-167.4h164.5l-82.6 167.4-81.9-167.4zm165.5-19.2H317.3l84-173 83.6 173zm-195.5 0H121.7l83.7-173 84 173zm-182.5 30.6 81.6 165.2H26.9l80-165.2zM27 428.5h164.5l-82.3 168.1L27 428.5zm192.5 0h167.8l-83.9 169.9-83.9-169.9zm195.7 0h164.5l-82.2 168.1-82.3-168.1z"></path></svg>