<svg xmlns="http://www.w3.org/2000/svg" width="371.3" viewBox="0 0 371.3 608.5" height="608.5" xml:space="preserve"><path d="M300.1 240.9h70.7V0H249.1v46.9c-19.8-7.2-41.2-11.2-63.5-11.2C83.1 35.8 0 118.9 0 221.4c0 59.3 27.8 112.2 71.2 146.2H.5v240.9h121.7v-46.9c19.8 7.2 41.2 11.2 63.5 11.2 102.5 0 185.6-83.1 185.6-185.6 0-59.5-27.9-112.3-71.2-146.3zM185.6 407c6.6 0 13.1-.4 19.5-1v-79.3c25.5 8.2 43.9 32.1 43.9 60.3 0 35-28.4 63.4-63.4 63.4-31.9 0-58.4-23.6-62.8-54.3 19.7 7.1 40.8 10.9 62.8 10.9zm0-205.6c-6.6 0-13.1.3-19.5 1v79.3c-25.5-8.2-43.9-32.1-43.9-60.3 0-35 28.4-63.4 63.4-63.4 31.9 0 58.4 23.6 62.8 54.3-19.6-7-40.7-10.9-62.8-10.9zm-146 20c0-80.7 65.4-146.1 146.1-146.1 40 0 76.2 16.1 102.6 42.1V39.1h43.5v162.8h-45c-9.1-47.5-50.9-83.4-101.1-83.4-56.9 0-103 46.1-103 103 0 50.2 35.9 92 83.4 101.1v43.7c-71.4-9.7-126.5-70.9-126.5-144.9zm146 311.7c-40 0-76.2-16.1-102.6-42.1v78.3H39.6V406.6h45c9.1 47.5 50.9 83.4 101.1 83.4 56.9 0 103-46.1 103-103 0-50.2-35.9-92-83.4-101.1v-43.7c71.4 9.5 126.5 70.7 126.5 144.8-.1 80.8-65.5 146.1-146.2 146.1z"></path></svg>