<svg xmlns="http://www.w3.org/2000/svg" width="587.5" viewBox="0 0 587.5 582.5" height="582.5"><ellipse cx="293.8" cy="270" rx="25.3" ry="85.4"></ellipse><path d="M348.3 0v140.5L428.2 279c-27.5 1.1-55.1 9.4-79.8 25.7-24.3 16-42.7 37.6-54.7 62-11.9-24.4-30.3-46-54.7-62-24.7-16.2-52.2-24.6-79.7-25.7l79.9-138.3V0C103.1 25.5 0 145.1 0 288.7 0 451 131.5 582.5 293.8 582.5S587.5 451 587.5 288.7c0-143.6-103-263.2-239.2-288.7zM104.1 374.8l52.3-90.5c11.9 24.6 30.4 46.5 55 62.6 23.4 15.4 49.3 23.7 75.4 25.4 2.4.2 4.2 2.1 4.2 4.5v75.3c0 1.3-1 2.3-2.3 2.3H150.1c-40.9 0-66.4-44.2-46-79.6zm333.3 79.6H298.9c-1.3 0-2.3-1-2.3-2.3v-75.3c0-2.4 1.9-4.4 4.2-4.5 26-1.8 52-10.1 75.4-25.4 24.6-16.1 43.1-38 55-62.7l52.2 90.4c20.5 35.5-5.1 79.8-46 79.8z"></path></svg>