<svg xmlns="http://www.w3.org/2000/svg" width="619.8" viewBox="0 0 619.8 619.6" height="619.6" xml:space="preserve" style="enable-background:new 0 0 619.8 619.6"><path d="M237.7 0h65.5v303.3h-65.5zM158.5 79H224v224.3h-65.5zM79.2 158.9h65.5v144.4H79.2zM0 237.8h65.5v65.5H0zM316.4 237.8h303.3v65.5H316.4zM316.4 158.6h224.4v65.5H316.4zM316.4 79.3h144.4v65.4H316.4zM316.4 0h65.5v65.5h-65.5zM316.5 316.3H382v303.3h-65.5zM395.8 316.3h65.5v224.4h-65.5zM475.1 316.3h65.5v144.4h-65.5zM554.4 316.3h65.5v65.5h-65.5zM0 316.3h303.3v65.5H0zM79 395.6h224.3v65.5H79zM158.9 474.9h144.4v65.5H158.9zM237.8 554.1h65.5v65.4h-65.5z"></path></svg>