<svg xmlns="http://www.w3.org/2000/svg" width="600.3" viewBox="0 0 600.3 600.3" height="600.3"><path d="M217.4 11.4l-206 206c-24.3 24.3-7.2 66 27.2 66.1l206.9.9c21.5.1 39-17.4 38.9-38.9l-.9-206.9c-.1-34.4-41.7-51.5-66.1-27.2zm-95.8 110.2c11.8-11.8 31.1-11.8 42.9 0 11.8 11.8 11.8 31.1 0 42.9-11.8 11.8-31.1 11.8-42.9 0-11.8-11.8-11.8-31 0-42.9zm149.3 149.3c-12.1 12.1-30.6 13.5-42.8 1.4l-24.6-24.6H75.4c-9.8 0-17.7-7.9-17.7-17.7 0-9.8 7.9-17.7 17.7-17.7h92.9c-11-12.2-10.3-30.8 1.5-42.6s30.4-12.5 42.6-1.5V75.5c0-9.8 7.9-17.7 17.7-17.7 9.8 0 17.7 7.9 17.7 17.7v128.1l24.6 24.6c12 12.1 10.7 30.6-1.5 42.7zM561.6 316.7l-206.9-.9c-21.5-.1-39 17.4-38.9 38.9l.9 206.9c.2 34.4 41.8 51.6 66.1 27.2l206-206c24.4-24.3 7.3-65.9-27.2-66.1zm-82.9 162c-11.8 11.8-31.1 11.8-42.9 0-11.8-11.8-11.8-31.1 0-42.9 11.8-11.8 31.1-11.8 42.9 0 11.8 11.8 11.8 31 0 42.9zm46.1-90.8h-92.9c11 12.2 10.3 30.8-1.5 42.6S400 443 387.8 432v92.9c0 9.8-7.9 17.7-17.7 17.7-9.8 0-17.7-7.9-17.7-17.7V396.8L328 372.2c-12.1-12.1-10.8-30.6 1.4-42.8 12.1-12.1 30.6-13.5 42.8-1.4l24.6 24.6h128.1c9.8 0 17.7 7.9 17.7 17.7-.1 9.7-8 17.6-17.8 17.6zM245.6 315.8l-206.9.9c-34.4.2-51.6 41.8-27.2 66.1l206 206c24.3 24.3 66 7.2 66.1-27.2l.9-206.9c.1-21.5-17.4-39-38.9-38.9zm-81.1 162.9c-11.8 11.8-31.1 11.8-42.9 0-11.8-11.8-11.8-31.1 0-42.9 11.8-11.8 31.1-11.8 42.9 0 11.9 11.8 11.9 31 0 42.9zm107.8-106.5l-24.6 24.6v128.1c0 9.8-7.9 17.7-17.7 17.7-9.8 0-17.7-7.9-17.7-17.7V432c-12.2 11-30.8 10.3-42.6-1.5s-12.5-30.4-1.5-42.6H75.3c-9.8 0-17.7-7.9-17.7-17.7 0-9.8 7.9-17.7 17.7-17.7h128.1l24.6-24.6c12.1-12.1 30.6-10.8 42.8 1.4 12.3 12.2 13.6 30.7 1.5 42.9zM354.7 284.5l206.9-.9c34.4-.2 51.6-41.8 27.2-66.1l-206-206c-24.3-24.3-66-7.2-66.1 27.2l-.9 206.9c-.1 21.5 17.4 39 38.9 38.9zm81.1-162.9c11.8-11.8 31.1-11.8 42.9 0 11.8 11.8 11.8 31.1 0 42.9-11.8 11.8-31.1 11.8-42.9 0-11.9-11.8-11.9-31 0-42.9zM328 228.1l24.6-24.6V75.4c0-9.8 7.9-17.7 17.7-17.7 9.8 0 17.7 7.9 17.7 17.7v92.9c12.2-11 30.8-10.3 42.6 1.5s12.5 30.4 1.5 42.6H525c9.8 0 17.7 7.9 17.7 17.7 0 9.8-7.9 17.7-17.7 17.7H396.9l-24.6 24.6c-12.1 12.1-30.6 10.8-42.8-1.4-12.3-12.2-13.6-30.7-1.5-42.9z"></path></svg>