<svg data-name="Layer 1" xmlns="http://www.w3.org/2000/svg" viewBox="0 0 621.29 621.71"><path d="M582.41 159.9C529.32 64.56 427.5 0 310.64 0S91.97 64.51 38.88 159.9h543.53ZM27.78 181.79C11.26 217.99 1.47 257.87 0 299.91h621.29c-1.47-42.04-11.26-81.98-27.78-118.12H27.78ZM435.19 577.78c-4.89 0-9.79-.26-14.68-.79-52.62-5.79-90.18-32.15-126.49-57.61-42.2-29.62-82.03-57.56-145.54-57.56H38.88c53.09 95.34 154.9 159.9 271.76 159.9 63.56 0 122.7-19.1 171.9-51.83-15.84 5.1-31.52 7.94-47.35 7.94v-.05Z"></path><path d="M469.33 437.92c-49.77-1.58-81.87-28.41-119.44-56.98-50.51-38.41-112.28-59.19-175.74-59.19H0c1.47 42.04 11.26 81.98 27.78 118.12h120.65c70.4 0 114.97 31.25 158.11 61.51 35.62 24.99 69.3 48.62 116.33 53.77 19.57 2.16 39.15-1.1 59.46-8.52 45.62-16.63 82.71-50.72 104.92-93.92 20.31-39.51 32.41-83.92 34.04-131.01 0 0-55.4 119.23-151.95 116.12v.11Z"></path></svg>