<svg data-name="Layer 1" xmlns="http://www.w3.org/2000/svg" viewBox="0 0 602.84 503.24"><path d="M602.72 501.97 302.13.4c-.15-.25-.42-.4-.71-.4s-.56.15-.71.4L.12 501.97a.84.84 0 0 0-.01.84c.15.26.42.42.72.42h203.12c16.85-.04 32.29-4.29 44.66-12.29 20.56-13.34 34.55-37.05 36.49-61.87.97-11.72 1.6-21.43 1.98-30.55.6-17.6.87-37.91.91-47.27 0-.43-.32-.79-.74-.83a.84.84 0 0 0-.9.66c-3.33 15.97-12.15 30.5-24.82 40.92-12.85 10.56-29.1 16.38-45.76 16.38-39.76 0-72.1-32.35-72.1-72.1s32.35-72.11 72.1-72.11c15.34 0 29.99 4.76 42.37 13.76.18.13.4.18.62.15.22-.04.42-.16.54-.34l.13-.19c.26-.37.18-.89-.19-1.15-18.74-13.57-29.93-35.43-29.93-58.48 0-39.76 32.35-72.1 72.1-72.1s72.1 32.35 72.1 72.1c0 23.05-11.2 44.93-29.96 58.51-.36.26-.45.75-.21 1.12l.24.37a.839.839 0 0 0 1.2.22c12.43-9.14 27.18-13.97 42.65-13.97 39.76 0 72.1 32.35 72.1 72.11s-32.35 72.1-72.1 72.1c-17.14 0-33.63-5.7-46.46-16.04a68.834 68.834 0 0 1-24.48-41.23.847.847 0 0 0-.89-.68c-.43.04-.76.4-.76.83 0 9.89.29 28.77.91 46.87.37 9.12 1 18.82 1.97 30.54 1.95 24.83 15.93 48.53 36.5 61.88 12.37 8 27.81 12.25 44.66 12.29l203.12.41c.3 0 .58-.16.72-.42.15-.26.14-.58 0-.84Z"></path></svg>