<svg id="Layer_1" data-name="Layer 1" xmlns="http://www.w3.org/2000/svg" viewBox="0 0 625.98 626">   <path d="M353.61,291.61c2.62,5.05,7.58,8.06,13.28,8.06h258.78c-4.01-95.71-51-180.28-122.17-234.97l-148.84,211.4c-3.28,4.66-3.67,10.45-1.04,15.5Z"></path>   <path d="M366.88,313.56c-10.81,0-20.62-5.97-25.6-15.56-4.98-9.6-4.21-21.05,2.02-29.89L492.29,56.5c-20.19-14.14-42.11-25.93-65.4-35.04l-175.82,249.73c-16.13,22.91-18.05,51.43-5.15,76.3,12.9,24.87,37.33,39.71,65.35,39.71h305.8c5.74-23.62,8.87-48.26,8.91-73.64H366.88Z"></path>   <path d="M233.6,353.88c-15.34-29.56-13.05-63.46,6.12-90.69L413.37,16.54C381.86,5.87,348.12,0,313,0,140.13,0,0,140.13,0,313s140.13,313,313,313c142.27,0,262.28-94.95,300.34-224.91H311.28c-33.3,0-62.34-17.65-77.68-47.21Z"></path> </svg>