<svg data-name="Layer 1" xmlns="http://www.w3.org/2000/svg" viewBox="0 0 436.67 613.38"><path d="M436.18 0H157.67s-.34.1-.39.25L.05 273.06s-.05.15-.05.25v339.58c0 .25.2.49.49.49H279s.34-.1.39-.25l157.23-272.82s.05-.15.05-.25V.49c0-.25-.2-.49-.49-.49ZM101.7 112.54c0-.49.64-.69.88-.25l112.1 188.24c.2.34 0 .74-.39.74h-112.1c-.25 0-.49-.2-.49-.49V112.54Zm112.64 389.97H102.19c-.25 0-.49-.2-.49-.49V313.73c0-.49.64-.64.88-.25l112.15 188.29c.2.29 0 .69-.39.69v.05Zm120.68-1.72c0 .49-.64.64-.88.25L221.99 312.8c-.2-.29 0-.74.39-.74h112.15c.25 0 .49.2.49.49v188.24Zm0-201.29c0 .49-.64.64-.88.25L221.99 111.51c-.2-.29 0-.74.39-.74h112.15c.25 0 .49.2.49.49V299.5Z"></path></svg>