<svg xmlns="http://www.w3.org/2000/svg" width="572.4" viewBox="0 0 572.4 597.1" height="597.1" xml:space="preserve"><path d="M488.5 83.8C434.5 29.8 362.6 0 286.2 0 209.7 0 137.9 29.8 83.8 83.8 29.8 137.9 0 209.7 0 286.2v303.7c0 4 3.3 7.3 7.3 7.3h41.5c4 0 7.3-3.3 7.3-7.3V288.1c0-61 23.4-119.9 66.1-163.3 43.3-44 101.2-68.4 162.9-68.7 60.8-.3 118.9 23.3 162.3 65.9 44.4 43.6 68.9 102 68.9 164.2v12.9c0 4 3.3 7.3 7.3 7.3h41.5c4 0 7.3-3.3 7.3-7.3v-12.9c0-76.5-29.8-148.3-83.9-202.4z"></path><path d="M291.3 119c-95.9-2.9-174.7 75.2-173 170.8 1.6 91.9 77.7 166 169.7 165.1 42.1-.4 80.5-16.4 109.8-42.5V589c0 4 3.3 7.3 7.3 7.3h41.8c4 0 7.3-3.3 7.3-7.3V288.5c0-91-71.9-166.7-162.9-169.5zm106.4 171.6c-1.9 58.4-49.3 105.9-107.8 107.8-64.4 2.1-117.3-50.8-115.2-115.2 1.9-58.4 49.3-105.9 107.8-107.8 64.4-2 117.3 50.8 115.2 115.2z"></path></svg>