<svg xmlns="http://www.w3.org/2000/svg" width="629.4" viewBox="0 0 629.4 597.8" height="597.8" xml:space="preserve" style="enable-background:new 0 0 629.4 597.8"><path d="M330.5 0h-31.6C133.8 0 0 133.8 0 298.9s133.8 298.9 298.9 298.9h31.6c165.1 0 298.9-133.8 298.9-298.9S495.6 0 330.5 0zM16.9 298.9c0-121.4 77-224.9 184.8-264.2C104.1 82.6 37 182.9 37 298.9s67.2 216.3 164.8 264.2C93.9 523.8 16.9 420.4 16.9 298.9zm140.7 1.2c0-61 39.8-112.8 94.8-130.8-44 26.9-73.4 75.4-73.4 130.8s29.4 103.9 73.4 130.8c-55-18.1-94.8-69.8-94.8-130.8zm157.1 132.2c-66.6-7.3-118.4-63.7-118.4-132.2s51.8-124.9 118.4-132.2c66.6 7.3 118.4 63.7 118.4 132.2S381.3 425 314.7 432.3zm135.8-132.2c0-55.4-29.4-103.9-73.4-130.8 55 18 94.8 69.7 94.8 130.8s-39.8 112.8-94.8 130.8c44-27 73.4-75.5 73.4-130.8zm-22.8 263c97.6-47.9 164.8-148.2 164.8-264.2S525.3 82.6 427.7 34.7C535.6 74 612.6 177.5 612.6 298.9c0 121.5-77 224.9-184.9 264.2z"></path></svg>