<svg id="Layer_1" data-name="Layer 1" xmlns="http://www.w3.org/2000/svg" viewBox="0 0 579.15 297.61">   <polygon points="452.85 0 380.05 88.64 307.26 0 271.89 0 199.1 88.64 126.3 0 90.93 0 0 110.73 0 297.61 36.28 297.61 36.28 123.72 90.48 57.71 90.48 297.61 126.76 297.61 126.76 57.71 180.96 123.71 180.96 297.61 217.23 297.61 217.23 123.72 271.44 57.71 271.44 297.61 307.71 297.61 307.71 57.71 361.92 123.71 361.92 297.61 398.19 297.61 398.19 123.72 452.39 57.71 452.39 297.61 488.67 297.61 488.67 57.71 542.87 123.71 542.87 297.61 579.15 297.61 579.15 110.73 488.22 0 452.85 0"></polygon> </svg>