<svg id="Layer_1" data-name="Layer 1" xmlns="http://www.w3.org/2000/svg" viewBox="0 0 629.6 629.6">   <path d="M314.8,0C141.22,0,0,141.22,0,314.8s141.22,314.8,314.8,314.8,314.8-141.22,314.8-314.8S488.38,0,314.8,0Zm54.58,202.63c0,30.14-24.44,54.58-54.58,54.58s-54.58-24.43-54.58-54.58,24.43-54.58,54.58-54.58,54.58,24.43,54.58,54.58Zm-54.58,410.45c-162.63,0-295.19-130.85-298.13-292.79l264.69,264.69v-230.41c0-9.28-4.72-17.92-12.52-22.93L102,224.37,16.66,309.72C19.36,149.29,149.29,19.36,309.72,16.66L142.34,184.04l146.6,94.25c15.75,10.13,35.97,10.13,51.73,0l146.6-94.25L319.88,16.66c160.43,2.71,290.36,132.64,293.06,293.06l-85.35-85.35-166.84,107.26c-7.8,5.02-12.52,13.66-12.52,22.93v230.41l264.7-264.69c-2.94,161.94-135.5,292.8-298.14,292.8Z"></path> </svg>