<svg id="Layer_1" xmlns="http://www.w3.org/2000/svg" viewBox="0 0 642 300.97"><defs></defs><path class="cls-1" d="M615.55 184.06v48.92c15.15 3.6 26.45 17.21 26.45 33.45 0 19.07-15.47 34.54-34.54 34.54-16.24 0-29.92-11.3-33.51-26.51h-47.51c-3.6 15.22-17.27 26.51-33.51 26.51s-29.98-11.3-33.58-26.51h-47.51c-3.6 15.22-17.27 26.51-33.58 26.51-19 0-34.48-15.47-34.48-34.54 0-16.31 11.3-29.92 26.45-33.51v-48.86c-15.15-3.6-26.45-17.27-26.45-33.58s11.3-29.98 26.45-33.58V68.04c-15.15-3.6-26.45-17.21-26.45-33.51 0-19.07 15.47-34.54 34.48-34.54s34.54 15.47 34.54 34.54c0 16.31-11.3 29.92-26.51 33.51v48.86c15.22 3.6 26.51 17.27 26.51 33.58s-11.3 29.98-26.51 33.58v48.86c12.65 2.95 22.53 12.84 25.55 25.49h47.51c3.02-12.58 12.9-22.47 25.49-25.42v-48.92c-15.15-3.66-26.45-17.33-26.45-33.58s11.3-29.92 26.45-33.51V68.06c-15.15-3.66-26.45-17.27-26.45-33.51 0-19.07 15.47-34.54 34.54-34.54s34.48 15.47 34.48 34.54c0 16.31-11.3 29.92-26.51 33.51v48.86c15.22 3.6 26.51 17.27 26.51 33.58s-11.3 29.98-26.51 33.58v48.86c12.58 2.95 22.53 12.84 25.55 25.49h47.51c3.02-12.65 12.97-22.53 25.55-25.49v-48.86c-15.22-3.6-26.51-17.27-26.51-33.58s11.3-29.98 26.51-33.58V68.06C584.29 64.46 573 50.85 573 34.55 573 15.48 588.47.01 607.48.01s34.54 15.47 34.54 34.54c0 16.24-11.3 29.85-26.45 33.51v48.92c15.15 3.6 26.45 17.27 26.45 33.51s-11.3 29.92-26.45 33.58ZM298.21 150.48c0-19.07-15.47-34.54-34.54-34.54-16.24 0-29.92 11.3-33.51 26.51h-47.51c-3.6-15.22-17.27-26.51-33.58-26.51-19 0-34.48 15.47-34.48 34.54s15.47 34.54 34.48 34.54c16.31 0 29.98-11.3 33.58-26.51h47.51c3.02 12.65 12.9 22.53 25.49 25.55v48.86c-12.58 3.02-22.47 12.9-25.49 25.49h-47.51c-3.6-15.22-17.27-26.45-33.58-26.45s-29.92 11.24-33.51 26.45H68.05c-3.02-12.65-12.97-22.53-25.55-25.49v-48.86c15.22-3.6 26.51-17.27 26.51-33.58S57.71 120.5 42.5 116.9V68.04c12.65-2.95 22.53-12.84 25.55-25.49h47.51C119.16 57.77 132.83 69 149.07 69s29.98-11.23 33.58-26.45h47.51C233.76 57.77 247.43 69 263.67 69c19.07 0 34.54-15.41 34.54-34.48S282.74 0 263.67 0c-16.24 0-29.92 11.3-33.51 26.51h-47.51C179.05 11.29 165.38 0 149.07 0s-29.92 11.3-33.51 26.51H68.05C64.46 11.3 50.78 0 34.48 0 15.47 0 0 15.47 0 34.54c0 16.31 11.3 29.92 26.45 33.51v48.86C11.3 120.5 0 134.18 0 150.48s11.3 29.98 26.45 33.58v48.86C11.3 236.52 0 250.13 0 266.43c0 19.07 15.47 34.54 34.48 34.54 16.31 0 29.98-11.3 33.58-26.51h47.51c3.6 15.22 17.27 26.51 33.51 26.51s29.98-11.3 33.58-26.51h47.51c3.6 15.22 17.27 26.51 33.51 26.51 19.07 0 34.54-15.47 34.54-34.54 0-16.31-11.3-29.92-26.51-33.51v-48.86c15.22-3.6 26.51-17.27 26.51-33.58ZM263.73 16.05c10.14 0 18.43 8.28 18.43 18.49s-8.28 18.43-18.43 18.43-18.49-8.23-18.49-18.43 8.31-18.49 18.49-18.49Zm-114.66 0c9.79 0 18.49 7.86 18.49 18.49s-8.29 18.43-18.49 18.43-18.43-8.29-18.43-18.43 8.18-18.49 18.43-18.49ZM16.05 34.54c0-10.21 8.28-18.49 18.49-18.49s18.43 8.4 18.43 18.49-8.25 18.43-18.43 18.43-18.49-8.22-18.49-18.43Zm0 115.95c0-10.25 8.33-18.49 18.49-18.49s18.43 8.57 18.43 18.49-8.02 18.49-18.43 18.49-18.49-8.22-18.49-18.49Zm18.49 134.43c-10.21 0-18.49-8.28-18.49-18.49S24.33 248 34.54 248s18.43 8.22 18.43 18.43-8.28 18.49-18.43 18.49Zm114.53-115.95c-10.14 0-18.43-8.28-18.43-18.49s8.28-18.49 18.43-18.49 18.49 8.28 18.49 18.49-8.28 18.49-18.49 18.49Zm96.17-18.49c0-10.21 8.28-18.49 18.49-18.49s18.43 8.28 18.43 18.49-8.28 18.49-18.43 18.49-18.49-8.28-18.49-18.49Zm-96.17 134.43c-10.21 0-18.43-8.4-18.43-18.49s8.25-18.43 18.43-18.43 18.49 8.23 18.49 18.43-8.69 18.49-18.49 18.49Zm133.09-18.49c0 10.21-8.28 18.49-18.43 18.49s-18.49-8.28-18.49-18.49 8.28-18.43 18.49-18.43 18.43 8.22 18.43 18.43Z"></path></svg>