<svg xmlns="http://www.w3.org/2000/svg" width="465.6" viewBox="0 0 465.6 601.4" height="601.4" style="enable-background:new 0 0 465.6 601.4" xml:space="preserve"><path d="M365.8 199.7V579c0 29.8 99.8 29.8 99.8 0V199.7L351.3 1.7c-.6-1.1-1.7-1.7-2.9-1.7h-5.7c-.8 0-1.4.2-2 .7-22.6 17.2-54.2 17.2-76.9 0-.6-.5-1.3-.7-2-.7h-5.5c-1.2 0-2.3.6-2.9 1.7-.6 1.1-.6 2.3 0 3.3l112.4 194.7zm-252.9 0L.5 5c-.6-1.1-.6-2.3 0-3.3C1.1.6 2.1 0 3.3 0h5.5c.8 0 1.4.2 2 .7C33.4 17.9 65 17.9 87.7.7 88.4.2 89 0 89.8 0h5.7c1.2 0 2.3.6 2.9 1.7l114.3 198V579c0 29.8-99.8 29.8-99.8 0V199.7zm126.4 0L126.9 5c-.6-1.1-.6-2.3 0-3.3.6-1.1 1.7-1.7 2.9-1.7h5.5c.8 0 1.4.2 2 .7 22.6 17.2 54.2 17.2 76.9 0 .6-.5 1.3-.7 2-.7h5.7c1.2 0 2.3.6 2.9 1.7l114.3 198V579c0 14.9-25 22.4-49.9 22.4-25 0-49.9-7.5-49.9-22.4V199.7z" style="fill-rule:evenodd;clip-rule:evenodd"></path></svg>