<svg data-name="Layer 1" xmlns="http://www.w3.org/2000/svg" viewBox="0 0 581.78 619.99"><path d="M529.78 78.58c-6.39-7.52-13.39-14.66-20.91-21.41l-137.48 174.9c7.52 6.76 14.48 13.93 20.87 21.46L529.77 78.58ZM276.99 16.11c-35 14.04-66.92 37.12-91.89 68.9-24.98 31.78-39.86 68.24-45.24 105.56L276.99 16.11ZM563.3 131.96c-4.37-9.82-9.47-19.37-15.29-28.56L410.52 278.33c5.82 9.19 10.9 18.76 15.27 28.59L563.3 131.97ZM444.25 379.43l137.53-174.97c-1.09-13.3-3.33-26.49-6.77-39.4l-137.55 175c3.43 12.9 5.71 26.08 6.79 39.37ZM485.55 38.83c-8.34-5.71-16.93-10.82-25.74-15.26L322.3 198.52c8.82 4.43 17.44 9.5 25.78 15.21l137.47-174.9ZM580.22 254.46 443.09 428.92c35-14.04 66.91-37.12 91.89-68.89 24.98-31.78 39.86-68.24 45.24-105.57ZM431.38 11.73a220.939 220.939 0 0 0-31.36-8.11L262.51 178.57c10.58 1.92 21.07 4.6 31.38 8.08L431.38 11.73ZM227.53 175.05 365.08.05c-13.36-.29-26.71.65-39.88 2.73L187.67 177.75c13.17-2.09 26.51-2.98 39.86-2.7ZM222.53 397.46c-64.74-50.89-93.56-130.48-82.73-206.54-35.13 14.03-67.16 37.15-92.22 69.03-75.94 96.62-59.18 236.51 37.44 312.45s236.51 59.18 312.45-37.44c25.06-31.88 39.96-68.47 45.29-105.91-71.34 28.5-155.49 19.29-220.24-31.59Z"></path></svg>