<svg data-name="Layer 1" xmlns="http://www.w3.org/2000/svg" viewBox="0 0 313.19 619.92"><path d="M168.96 307.26h141.26V0H2.97v307.26h141.26C63.53 313.57 0 381 0 463.32c0 86.48 70.11 156.6 156.6 156.6s156.6-70.11 156.6-156.6-63.53-149.76-144.23-156.07Zm78.15-244.15-90.52 90.52-90.51-90.52h181.03ZM66.08 153.63l90.51 90.51 90.52-90.51v90.51H66.08v-90.51Zm90.51 403.17c-51.55 0-93.48-41.93-93.48-93.48s41.94-93.49 93.48-93.49c39.35 0 73.08 24.46 86.85 58.96h-86.85v63.11h89c-12.11 37.61-47.42 64.9-89 64.9Z"></path></svg>