<svg id="Layer_1" data-name="Layer 1" xmlns="http://www.w3.org/2000/svg" viewBox="0 0 606.37 613.56">   <rect x="361.31" width="245.06" viewBox="0 0 245.06 125.45" height="125.45"></rect>   <rect x="312" width="21.37" height="125.45"></rect>   <rect x="361.31" y="153.39" width="245.06" height="21.37"></rect>   <rect x="262.7" width="21.37" height="125.45"></rect>   <polygon points="333.37 585.62 333.37 585.62 333.37 564.26 312 564.26 284.07 536.32 284.07 514.95 262.7 514.95 234.76 487.02 234.76 252 0 252 0 613.56 361.31 613.56 361.31 613.56 333.37 585.62"></polygon>   <rect x="312" y="252" width="21.37" height="235.02"></rect>   <rect x="312" y="514.95" width="21.37" height="21.37"></rect>   <rect x="262.7" y="153.39" width="21.37" height="21.37"></rect>   <rect x="312" y="153.39" width="21.37" height="21.37"></rect>   <rect x="312" y="202.69" width="21.37" height="21.37"></rect>   <rect x="361.31" y="202.69" width="245.06" height="21.37"></rect>   <rect x="262.7" y="202.69" width="21.37" height="21.37"></rect>   <rect y="202.69" width="234.76" height="21.37"></rect>   <rect width="234.76" height="125.45"></rect>   <rect x="361.31" y="564.26" width="245.06" height="21.37"></rect>   <rect y="153.39" width="234.76" height="21.37"></rect>   <rect x="361.31" y="514.95" width="245.06" height="21.37"></rect>   <rect x="262.7" y="252" width="21.37" height="235.02"></rect>   <rect x="361.31" y="252" width="245.06" height="235.02"></rect> </svg>