<svg xmlns="http://www.w3.org/2000/svg" width="621.8" viewBox="0 0 621.8 621.8" height="621.8" xml:space="preserve" style="enable-background:new 0 0 621.8 621.8"><path d="M330 291.9V0h-19.1C139.5 0 0 139.5 0 310.9s139.5 310.9 310.9 310.9 310.9-139.5 310.9-310.9v-19.1l-291.8.1zm0 0H169.8c-37.2 0-67.4-30.3-67.4-67.4 0-37.2 30.3-67.4 67.4-67.4 15 0 29.3 4.8 41.1 14 2.3 1.7 4.5 4 6.7 6.2L330 291.9zm-19.1 291.7c-150.4 0-272.7-122.3-272.7-272.7 0-144 112.1-262.2 253.6-272.1v159.6l-47-48c-3-3-6.4-6.4-10.6-9.6-18.6-14.4-40.9-22-64.5-22-58.2 0-105.6 47.4-105.6 105.6 0 58.2 47.4 105.6 105.6 105.6l238.8-.1c-9.3 4.6-15.8 14.1-15.8 25.3 0 15.6 12.7 28.3 28.3 28.3 15.6 0 28.3-12.7 28.3-28.3 0-11.1-6.5-20.6-15.8-25.3h149.4c-9.8 141.6-128 253.7-272 253.7z"></path></svg>