<svg id="Layer_1" data-name="Layer 1" xmlns="http://www.w3.org/2000/svg" viewBox="0 0 569.32 604.55">   <rect x="20.24" y="456.62" width="21.92" viewBox="0 0 21.92 60.43" height="60.43"></rect>   <rect x="64.08" y="456.62" width="21.92" height="60.43"></rect>   <rect x="471.35" y="473.04" width="21.92" height="44.01"></rect>   <rect x="515.19" y="473.04" width="21.92" height="44.01"></rect>   <rect y="329.17" width="106.24" height="106.24"></rect>   <polygon points="504.23 343.88 439.14 456.62 569.32 456.62 504.23 343.88"></polygon>   <polygon points="209.4 265.92 124.86 412.34 293.93 412.34 209.4 265.92"></polygon>   <circle cx="53.12" cy="265.92" r="42.61" transform="translate(-41.91 11.94) rotate(-9.22)"></circle>   <circle cx="504.23" cy="280.94" r="42.61"></circle>   <circle cx="364.73" cy="175.31" r="42.61"></circle>   <rect x="156.09" y="435.4" width="42.34" height="81.65"></rect>   <rect x="220.36" y="435.4" width="42.34" height="81.65"></rect>   <rect x="311.43" y="412.34" width="42.34" height="104.72"></rect>   <rect y="562.21" width="568.98" height="42.34"></rect>   <polygon points="568.98 219.9 568.98 166.52 284.49 0 0 166.52 0 219.9 284.49 53.38 568.98 219.9"></polygon>   <rect x="375.69" y="412.34" width="42.34" height="104.72"></rect>   <rect x="293.93" y="240.68" width="149.34" height="149.34"></rect>   <path d="M252.01,198.07c0-23.53-19.08-42.61-42.61-42.61s-42.61,19.08-42.61,42.61v44.43h85.22v-44.43Z"></path> </svg>