<svg data-name="Layer 1" xmlns="http://www.w3.org/2000/svg" viewBox="0 0 617.69 625.2"><path d="M411.54 25.11v26.48c106 41.26 181.35 144.34 181.35 264.76 0 156.63-127.42 284.05-284.04 284.05S24.8 472.97 24.8 316.34c0-119.26 73.91-221.51 178.3-263.55V26.14C84.73 69.41 0 183.17 0 316.34 0 486.65 138.54 625.2 308.84 625.2s308.84-138.55 308.84-308.86c0-134.31-86.2-248.81-206.15-291.23Z"></path><path d="M552.7 316.34c0 134.47-109.4 243.86-243.86 243.86S64.98 450.8 64.98 316.34c0-96.6 56.46-180.26 138.12-219.72V69.39C107.39 110.53 40.18 205.72 40.18 316.34c0 148.15 120.52 268.67 268.66 268.67S577.5 464.48 577.5 316.34c0-111.79-68.64-207.81-165.97-248.23v27.12c83.28 38.84 141.17 123.32 141.17 221.11Z"></path><path d="M512.52 316.34c0 112.31-91.37 203.68-203.68 203.68s-203.68-91.37-203.68-203.68c0-73.61 39.26-138.22 97.93-174.01V113.9C130.21 152.12 80.35 228.5 80.35 316.35c0 125.99 102.49 228.49 228.48 228.49s228.48-102.5 228.48-228.49c0-89.07-51.25-166.34-125.79-204.01v28.23c60.35 35.39 100.98 100.91 100.98 175.78Z"></path><path d="M472.34 316.34c0 90.15-73.34 163.49-163.49 163.49s-163.49-73.34-163.49-163.49c0-49.85 22.46-94.53 57.75-124.55v-31.17c-49.79 33.92-82.56 91.06-82.56 155.72 0 103.83 84.47 188.3 188.3 188.3s188.3-84.47 188.3-188.3c0-65.96-34.12-124.07-85.61-157.71v30.62c37.05 30 60.8 75.81 60.8 127.09Z"></path><circle cx="308.84" cy="89.41" r="89.41"></circle></svg>