<svg xmlns="http://www.w3.org/2000/svg" width="641.99" viewBox="0 0 641.99 642" height="642" data-name="Layer 1"><path d="M236.36 626.42c-12.84-7.7-23.75-17.97-31.45-32.09C147.15 486.5 87.46 378.68 25.84 272.13c0-.64-1.28-.64-1.93-.64-.64.64-.64 1.28-.64 1.93 41.08 105.9 91.14 209.24 149.55 310.64 12.19 21.18 30.81 35.94 51.99 43C94.52 585.99.17 464.68.17 320.91c-1.28-27.6 4.49-58.41 26.31-76.38 13.48-12.19 32.09-19.9 51.35-19.9 127.72 1.93 256.09 3.21 384.45 3.21.64 0 1.28-.64 1.28-1.28s-.64-1.28-1.28-1.28c-127.08-15.4-256.09-23.11-387.02-23.11-11.55 0-22.46 2.57-32.09 7.06-13.48 6.42-25.03 16.69-32.73 29.52 6.42-18.61 21.18-33.37 38.51-41.72 8.99-3.85 19.25-6.42 29.52-6.42 134.78 0 270.21.64 404.99.64.64 0 1.28-.64 1.28-1.28s-.64-1.28-1.28-1.28C353.17 172.64 220.95 164.3 86.17 164.3c-8.34 0-16.05 1.28-23.75 3.85-18.61 6.42-33.37 19.9-41.72 37.23 6.42-22.46 24.39-40.43 46.85-47.5 7.06-2.57 14.12-3.21 21.82-3.21h413.34c.64 0 1.28-.64 1.28-1.28s-.64-1.28-1.28-1.28C371.14 136.71 236.99 129 101.57 129c-7.7 0-14.76 1.28-21.82 3.21-16.05 5.13-30.17 16.05-38.51 30.17 8.99-17.97 24.39-32.73 43.64-39.79 8.34-3.21 17.33-5.13 26.96-5.13 134.14 1.28 268.28 2.57 403.07 2.57.64 0 1.28-.64 1.28-1.28s-.64-1.28-1.28-1.28c-125.16-16.05-252.88-24.39-382.53-24.39-13.48 0-25.67 3.21-37.23 8.34-8.34 3.85-15.4 8.99-22.46 14.76 7.06-8.99 16.05-16.69 25.67-22.46 12.84-7.06 27.6-11.55 43.64-11.55 122.59 3.85 245.18 6.42 368.41 6.42.64 0 1.28-.64 1.28-1.28s-.64-1.28-1.28-1.28C398.09 68.7 283.85 59.72 167.03 59.72c-23.75 0-45.57 8.34-62.26 22.46C162.55 31.45 238.29 0 321.08 0c66.75 0 129.01 20.54 180.35 55.84 1.28.64 2.57 1.93 3.85 2.57 15.4 11.55 25.03 27.6 28.88 45.57 3.85 17.97 1.28 37.23-8.99 54.56-64.82 109.75-129.65 220.15-193.83 331.18-.64.64 0 1.28.64 1.93.64.64 1.28 0 1.93-.64 77.02-102.05 148.26-209.88 213.73-323.48 5.78-9.63 8.99-20.54 9.63-30.81 1.28-14.76-1.93-29.52-8.99-43 12.84 14.76 18.61 35.3 16.69 54.56-1.28 9.63-3.85 19.25-9.63 28.88-68.03 116.17-135.43 232.98-202.82 349.79-.64.64 0 1.28.64 1.28s1.28 0 1.28-.64c78.94-103.98 152.11-214.37 219.5-331.18 3.85-7.06 7.06-14.76 8.34-22.46 3.85-19.25-.64-39.15-11.55-54.56 16.05 16.69 23.11 41.08 17.97 64.18-1.28 7.06-3.85 14.12-7.7 20.54-69.32 119.38-137.99 238.76-207.31 358.14-.64.64 0 1.28.64 1.93.64.64 1.28 0 1.93-.64C455.2 457 529.01 345.32 597.05 227.22c3.85-6.42 6.42-13.48 7.7-20.54 3.85-16.69 1.28-34.02-6.42-48.78 11.55 16.69 16.05 37.23 12.84 57.12-1.28 8.99-4.49 17.33-8.99 25.67-68.68 115.53-136.07 231.06-203.46 347.87-.64.64 0 1.28.64 1.93.64 0 1.28 0 1.93-.64a2991.292 2991.292 0 0 0 212.44-318.99c6.42-11.55 10.27-23.75 11.55-35.94.64-8.99 0-17.97-1.93-26.96 4.49 10.27 6.42 21.82 6.42 34.02 0 14.76-3.85 29.52-11.55 43-66.75 103.98-129.65 209.88-191.26 316.42 0 .64 0 1.28.64 1.93.64.64 1.28 0 1.28-.64 71.24-88.57 136.07-183.56 194.47-284.33 12.19-21.18 15.4-44.93 10.91-66.75 5.13 22.46 7.7 45.57 7.7 69.32 0 127.08-74.45 236.83-181.64 288.82-17.97 8.99-39.79 10.27-58.41 4.49-17.33-5.78-33.37-17.97-43-34.66-62.26-111.68-125.16-223.36-189.34-334.39 0-.64-1.28-.64-1.28-.64-.64 0-.64 1.28-.64 1.28 50.06 117.45 107.83 233.62 173.29 346.59 5.78 9.63 13.48 17.97 21.82 23.75 12.19 8.34 26.96 13.48 41.72 13.48-19.25 3.85-39.79-1.28-55.84-12.84-7.7-5.78-14.76-13.48-19.9-22.46-67.39-116.81-134.78-234.27-202.18-351.08 0-.64-1.28-.64-1.93-.64s-.64 1.28-.64 1.93c51.35 120.66 110.39 239.4 177.79 356.21 3.85 7.06 9.63 13.48 15.4 18.61 14.76 12.84 34.02 19.25 53.27 17.33-22.46 5.13-46.85-.64-64.18-16.69-5.13-4.49-10.27-10.27-14.12-17.33-68.68-118.1-137.35-237.48-206.03-356.85 0-.64-1.28-.64-1.93-.64s-.64 1.28-.64 1.93a3478.125 3478.125 0 0 0 180.99 358.78c3.85 6.42 8.34 12.19 13.48 17.33 12.84 11.55 28.88 17.97 45.57 18.61-19.9 1.28-40.43-4.49-55.84-17.97-7.06-5.78-12.84-12.84-17.97-21.18-65.47-116.81-131.57-232.98-198.97-349.79 0-.64-1.28-.64-1.28-.64-.64 0-.64 1.28-.64 1.93 48.78 116.17 105.26 231.06 170.08 343.38a83.803 83.803 0 0 0 25.67 28.24c7.7 5.13 15.4 8.99 24.39 12.19-11.55-1.93-23.11-5.78-32.73-11.55Z"></path></svg>