<svg xmlns="http://www.w3.org/2000/svg" width="470.3" viewBox="0 0 470.3 642" height="642" style="overflow:visible;enable-background:new 0 0 470.3 642" xml:space="preserve"><path d="M0 0h99.5v227.1h253.3c70.4 42.2 117.4 119.3 117.5 207.4 0 88.1-47.1 165.2-117.6 207.4H118.5C43.2 579.4 0 507 0 430.1M316.1 325H154.2c-32.3 25-53.1 64.3-53.1 108.4 0 42.2 19.1 80 49 105.2H320c30-25.2 49-62.9 49-105.2.1-44.2-20.7-83.4-52.9-108.4z"></path><path d="M173.3 401.2h24.1v61h-24.1zM296.875 462.29h-24.1v-61h24.1z"></path></svg>