<svg id="Layer_1" data-name="Layer 1" xmlns="http://www.w3.org/2000/svg" viewBox="0 0 492.95 611.72">   <path d="M254.1,17.51l5.08,8.64V.32c-1.68-.09-3.39-.08-5.08-.13V17.51Z"></path>   <path d="M264.26,34.8l5.08,8.64V1.09c-1.69-.16-3.39-.26-5.08-.39V34.8Z"></path>   <path d="M264.26,611.72c1.7-.12,3.4-.23,5.08-.39v-245.22h-5.08v245.61Z"></path>   <polygon points="274.43 491.33 274.43 611.53 279.51 611.53 279.51 490.68 279.51 366.11 274.43 366.11 274.43 491.33"></polygon>   <path d="M274.43,52.09l5.08,8.64V2.27c-1.69-.23-3.38-.45-5.08-.65V52.09Z"></path>   <path d="M284.59,69.37l5.08,8.64V3.85c-1.7-.3-3.38-.64-5.08-.91V69.37Z"></path>   <polygon points="284.59 490.01 284.59 611.53 289.67 611.53 289.67 489.1 289.67 366.11 284.59 366.11 284.59 490.01"></polygon>   <path d="M294.75,86.66l5.08,8.64V5.86c-1.69-.37-3.38-.76-5.08-1.1V86.66Z"></path>   <polygon points="294.75 488.19 294.75 611.53 299.84 611.53 299.84 487.09 299.84 366.11 294.75 366.11 294.75 488.19"></polygon>   <path d="M304.92,485.92c1.7-.41,3.4-.83,5.08-1.28v-118.53h-5.08v119.81Z"></path>   <path d="M304.92,103.95l5.08,8.64V8.31c-1.69-.45-3.38-.86-5.08-1.28V103.95Z"></path>   <path d="M315.08,121.23l5.08,8.64V11.21c-1.68-.53-3.39-.97-5.08-1.46V121.23Z"></path>   <path d="M315.08,483.2c1.69-.49,3.4-.94,5.08-1.46v-115.63h-5.08v117.09Z"></path>   <path d="M325.25,480.02c1.69-.57,3.4-1.11,5.08-1.72v-112.19h-5.08v113.91Z"></path>   <path d="M325.25,138.52l5.08,8.64V14.65c-1.68-.61-3.39-1.15-5.08-1.72v125.59Z"></path>   <path d="M335.41,476.34c1.7-.66,3.4-1.31,5.08-2v-108.23h-5.08v110.23Z"></path>   <path d="M335.41,155.81l5.08,8.64V18.61c-1.68-.69-3.38-1.35-5.08-2V155.81Z"></path>   <path d="M345.57,173.1l5.08,8.64V23.09c-1.68-.79-3.38-1.55-5.08-2.3V173.1Z"></path>   <path d="M345.57,472.15c1.7-.75,3.4-1.51,5.08-2.3v-103.75h-5.08v106.04Z"></path>   <path d="M355.74,190.38l5.08,8.64V28.14c-1.68-.88-3.38-1.76-5.08-2.6V190.38Z"></path>   <path d="M355.74,467.41c1.71-.85,3.4-1.72,5.08-2.6v-98.7h-5.08v101.3Z"></path>   <path d="M365.9,462.09c1.71-.95,3.4-1.93,5.08-2.92v-93.05h-5.08v95.98Z"></path>   <path d="M365.9,207.67l5.08,8.64V33.79c-1.68-.99-3.37-1.97-5.08-2.92V207.67Z"></path>   <path d="M376.07,456.12c1.71-1.06,3.4-2.16,5.08-3.26v-86.76h-5.08v90.01Z"></path>   <path d="M376.07,224.96l5.08,8.64V40.08c-1.68-1.1-3.37-2.2-5.08-3.26V224.96Z"></path>   <path d="M386.23,449.47c1.71-1.18,3.4-2.39,5.08-3.61v-79.75h-5.08v83.36Z"></path>   <path d="M386.23,242.24l5.08,8.64V47.09c-1.68-1.22-3.37-2.43-5.08-3.61V242.24Z"></path>   <path d="M396.39,259.53l5.08,8.64V54.88c-1.67-1.36-3.37-2.68-5.08-3.99v208.64Z"></path>   <path d="M396.39,442.06c1.71-1.31,3.41-2.64,5.08-3.99v-71.96h-5.08v75.95Z"></path>   <path d="M406.56,276.82l5.08,8.64V63.54c-1.66-1.5-3.38-2.95-5.08-4.4v217.67Z"></path>   <path d="M406.56,433.81c1.7-1.46,3.42-2.9,5.08-4.4v-63.3h-5.08v67.7Z"></path>   <path d="M416.72,294.1l5.08,8.64V73.29c-1.66-1.68-3.37-3.31-5.08-4.94v225.76Z"></path>   <path d="M416.72,424.61c1.71-1.63,3.42-3.26,5.08-4.94v-53.56h-5.08v58.5Z"></path>   <path d="M426.89,311.39l5.08,8.64V84.27c-1.67-1.91-3.36-3.8-5.08-5.65v232.77Z"></path>   <path d="M426.89,414.34c1.73-1.86,3.41-3.74,5.08-5.65v-42.57h-5.08v48.23Z"></path>   <path d="M437.05,328.68l5.08,8.64V96.65c-1.67-2.18-3.34-4.35-5.08-6.47v238.5Z"></path>   <path d="M437.05,402.77c1.74-2.12,3.41-4.29,5.08-6.47v-30.19h-5.08v36.66Z"></path>   <path d="M447.21,345.96l5.08,8.64V110.91c-1.65-2.49-3.35-4.94-5.08-7.37v242.42Z"></path>   <path d="M447.21,389.41c1.73-2.43,3.44-4.88,5.08-7.37v-15.93h-5.08v23.3Z"></path>   <path d="M457.38,363.25l1.68,2.86h-1.68v7.98c1.76-2.9,3.44-5.86,5.08-8.84V127.7c-1.64-2.98-3.32-5.94-5.08-8.84v244.39Z"></path>   <path d="M467.54,355.49c1.78-3.6,3.48-7.25,5.08-10.95V148.42c-1.61-3.7-3.3-7.35-5.08-10.95v218.03Z"></path>   <path d="M477.71,331.96c1.87-5.06,3.54-10.21,5.08-15.42V176.41c-1.54-5.21-3.21-10.36-5.08-15.42v170.96Z"></path>   <path d="M487.87,196.48v99.99c3.33-16.15,5.08-32.87,5.08-50s-1.75-33.85-5.08-50Z"></path>   <path d="M246.48,4.55l2.54,4.32V.06c-.85,0-1.69-.06-2.54-.06V4.55Z"></path>   <path d="M233.77,26.16l5.08-8.64V.19c-1.69,.05-3.4,.04-5.08,.13V26.16Z"></path>   <path d="M223.61,43.44l5.08-8.64V.71c-1.7,.12-3.4,.23-5.08,.39V43.44Z"></path>   <path d="M223.61,611.33c1.69,.16,3.39,.26,5.08,.39v-245.61h-5.08v245.22Z"></path>   <polygon points="213.44 490.68 213.44 611.53 218.52 611.53 218.52 491.33 218.52 366.11 213.44 366.11 213.44 490.68"></polygon>   <path d="M213.44,60.73l5.08-8.64V1.62c-1.7,.19-3.39,.42-5.08,.65V60.73Z"></path>   <path d="M203.28,78.02l5.08-8.64V2.94c-1.71,.26-3.39,.61-5.08,.91V78.02Z"></path>   <polygon points="203.28 489.1 203.28 611.53 208.36 611.53 208.36 490.01 208.36 366.11 203.28 366.11 203.28 489.1"></polygon>   <path d="M193.11,95.3l5.08-8.64V4.76c-1.7,.34-3.39,.73-5.08,1.1V95.3Z"></path>   <polygon points="193.11 487.09 193.11 611.53 198.2 611.53 198.2 488.19 198.2 366.11 193.11 366.11 193.11 487.09"></polygon>   <path d="M182.95,484.64c1.69,.45,3.38,.86,5.08,1.28v-119.81h-5.08v118.53Z"></path>   <path d="M182.95,112.59l5.08-8.64V7.03c-1.7,.41-3.4,.83-5.08,1.28V112.59Z"></path>   <path d="M172.79,129.88l5.08-8.64V9.75c-1.69,.49-3.4,.94-5.08,1.46v118.66Z"></path>   <path d="M172.79,481.74c1.68,.53,3.39,.97,5.08,1.46v-117.09h-5.08v115.63Z"></path>   <path d="M162.62,478.3c1.68,.61,3.39,1.15,5.08,1.72v-113.91h-5.08v112.19Z"></path>   <path d="M162.62,147.16l5.08-8.64V12.93c-1.69,.57-3.4,1.11-5.08,1.72V147.16Z"></path>   <path d="M152.46,474.34c1.68,.69,3.38,1.35,5.08,2v-110.23h-5.08v108.23Z"></path>   <path d="M152.46,164.45l5.08-8.64V16.61c-1.7,.66-3.4,1.31-5.08,2V164.45Z"></path>   <path d="M142.3,181.74l5.08-8.64V20.8c-1.7,.75-3.4,1.51-5.08,2.3V181.74Z"></path>   <path d="M142.3,469.86c1.68,.79,3.38,1.55,5.08,2.3v-106.04h-5.08v103.75Z"></path>   <path d="M132.13,199.03l5.08-8.64V25.54c-1.71,.85-3.4,1.72-5.08,2.6V199.03Z"></path>   <path d="M132.13,464.81c1.68,.88,3.38,1.76,5.08,2.6v-101.3h-5.08v98.7Z"></path>   <path d="M121.97,459.16c1.68,.99,3.37,1.97,5.08,2.92v-95.98h-5.08v93.05Z"></path>   <path d="M121.97,216.31l5.08-8.64V30.86c-1.71,.95-3.4,1.93-5.08,2.92V216.31Z"></path>   <path d="M111.8,452.87c1.68,1.1,3.37,2.2,5.08,3.26v-90.01h-5.08v86.76Z"></path>   <path d="M111.8,233.6l5.08-8.64V36.83c-1.71,1.06-3.4,2.16-5.08,3.26V233.6Z"></path>   <path d="M101.64,445.86c1.68,1.22,3.37,2.43,5.08,3.61v-83.36h-5.08v79.75Z"></path>   <path d="M101.64,250.89l5.08-8.64V43.48c-1.71,1.18-3.4,2.39-5.08,3.61V250.89Z"></path>   <path d="M91.48,268.17l5.08-8.64V50.89c-1.71,1.31-3.41,2.64-5.08,3.99v213.29Z"></path>   <path d="M91.48,438.07c1.67,1.36,3.37,2.68,5.08,3.99v-75.95h-5.08v71.96Z"></path>   <path d="M81.31,285.46l5.08-8.64V59.14c-1.7,1.46-3.42,2.9-5.08,4.4v221.91Z"></path>   <path d="M81.31,429.41c1.66,1.5,3.38,2.95,5.08,4.4v-67.7h-5.08v63.3Z"></path>   <path d="M71.15,302.75l5.08-8.64V68.34c-1.71,1.63-3.42,3.26-5.08,4.94v229.46Z"></path>   <path d="M71.15,419.67c1.66,1.68,3.37,3.31,5.08,4.94v-58.5h-5.08v53.56Z"></path>   <path d="M60.98,320.03l5.08-8.64V78.62c-1.73,1.86-3.41,3.74-5.08,5.65v235.77Z"></path>   <path d="M60.98,408.68c1.67,1.91,3.36,3.8,5.08,5.65v-48.23h-5.08v42.57Z"></path>   <path d="M50.82,337.32l5.08-8.64V90.18c-1.74,2.12-3.41,4.29-5.08,6.47v240.67Z"></path>   <path d="M50.82,396.3c1.67,2.18,3.34,4.35,5.08,6.47v-36.66h-5.08v30.19Z"></path>   <path d="M40.66,354.61l5.08-8.64V103.54c-1.73,2.43-3.44,4.88-5.08,7.37v243.69Z"></path>   <path d="M40.66,382.04c1.65,2.49,3.35,4.94,5.08,7.37v-23.3h-5.08v15.93Z"></path>   <path d="M30.49,365.25c1.64,2.98,3.32,5.94,5.08,8.84v-7.98h-1.68l1.68-2.86V118.86c-1.76,2.9-3.44,5.86-5.08,8.84v237.56Z"></path>   <path d="M20.33,344.54c1.61,3.7,3.3,7.35,5.08,10.95V137.46c-1.78,3.6-3.48,7.25-5.08,10.95v196.12Z"></path>   <path d="M10.16,316.54c1.54,5.21,3.21,10.36,5.08,15.42V160.99c-1.87,5.06-3.54,10.21-5.08,15.42v140.13Z"></path>   <path d="M5.08,296.47v-99.99C1.76,212.63,0,229.34,0,246.48s1.76,33.85,5.08,50Z"></path>   <path d="M243.93,8.87l2.54-4.32V0c-.85,0-1.69,.06-2.54,.06V8.87Z"></path> </svg>