<svg data-name="Layer 1" xmlns="http://www.w3.org/2000/svg" viewBox="0 0 581.91 570.92"><path d="M393 275.64c-31.94 7.12-54.37 35.53-54.37 67.87v227.41c138-22.48 243.28-140.82 243.28-283.51 0-31.8-5.31-62.37-14.96-90.97-50.96 37.5-109.96 64.92-173.94 79.2ZM290.95 0C197.07 0 113.62 43.97 60.42 112.15c63.1 50.32 143.31 80.5 230.53 80.5s167.43-30.18 230.53-80.5C468.28 43.97 384.84 0 290.95 0ZM243.28 343.5c0-32.45-22.62-60.76-54.65-67.92-63.88-14.29-122.77-41.69-173.66-79.13C5.31 225.05 0 255.61 0 287.41 0 430.1 105.28 548.44 243.28 570.92V343.5Z"></path></svg>