<svg xmlns="http://www.w3.org/2000/svg" width="597.35" viewBox="0 0 597.35 600" height="600" style="overflow:visible;enable-background:new 0 0 597.35 600" xml:space="preserve"><path d="M305.07 475.2c16.51-24.49 25.36-53.67 25.36-83.19 0-43.93-19.84-86.3-53.55-114.45-34.55-28.85-81.28-40.57-125.39-31.59-45.06 9.19-84.15 39.71-104.21 81.07-1.71 3.51-3.27 7.08-4.71 10.71-7.14-47.86-.88-97.32 18.37-141.74 17.06-39.37 43.98-74.24 77.67-100.78 34.16-26.93 74.96-44.99 117.86-52.09 30.25-5 61.35-4.61 91.46 1.12l6.58-39.14C305.48-4.07 254.26-.9 206.79 14.49c-40.93 13.26-78.8 35.5-110.44 64.67-31.5 29.06-56.66 64.85-73.23 104.38C5.44 225.73-2.21 271.83.55 317.46c3.24 53.4 21.03 105.47 51.14 149.7 4.54 6.67 9.37 13.17 14.44 19.47l.07-.07c31.77 38.63 81.81 59 131.53 53.58 43.28-4.7 83.03-28.86 107.34-64.94z"></path><path d="M554.41 146.47c-5.39-8.91-17.44-26.61-26.56-37.23l-.02.02c-32.76-38.18-83.58-57.48-133.43-50.68-43.06 5.88-82.1 31.06-105.45 67.69-23.94 37.57-29.71 85.09-15.57 127.33 13.71 40.93 45.42 74.63 85.44 90.84 42.71 17.29 92.36 13.56 131.97-10 28.94-17.22 51.62-44.24 63.47-75.77 7.88 48.04 2.08 98.05-16.84 142.92-16.66 39.55-43.25 74.68-76.68 101.57-33.85 27.23-74.42 45.71-117.23 53.23-35.08 6.17-71.39 5.07-106.02-3.25l-12.93 37.7c49.94 12.66 103.1 12.19 152.8-1.42 41.61-11.37 80.57-31.91 113.55-59.72 32.72-27.58 59.44-62.15 77.77-100.84 19.02-40.15 28.8-84.39 28.67-128.81-.16-53.94-15.02-107.39-42.94-153.58z"></path></svg>