<svg xmlns="http://www.w3.org/2000/svg" width="422.6" viewBox="0 0 422.6 625.3" height="625.3" xml:space="preserve" style="enable-background:new 0 0 422.6 625.3"><circle transform="rotate(-60.969 211.278 247.017)" cx="211.3" cy="247" r="72"></circle><path d="M422.6 249.2c0-47.4-21.9-91.2-58-119.8C353 56.2 289.2 0 212.4 0c-76 0-139.3 55.1-151.7 127.3C22.9 155.7 0 200.3 0 249.2 0 326.4 57.6 393.5 132.3 404v221.3h71.5V336H159c-47.4 0-85.9-38.3-85.9-85.5 0-35.9 22.3-66.6 53.8-79.3-.3-2.7-.4-5.5-.4-8.3 0-47.2 38.5-85.5 85.9-85.5 47.4 0 85.9 38.3 85.9 85.5 0 3.1-.2 6.2-.5 9.2 30.4 13.2 51.7 43.3 51.7 78.4 0 47.2-38.5 85.5-85.9 85.5h-44.8v289.3h71.5V404c74.6-10.5 132.3-77.6 132.3-154.8z"></path></svg>