<svg xmlns="http://www.w3.org/2000/svg" width="617.9" viewBox="0 0 617.9 458.9" height="458.9" xml:space="preserve"><path d="M343 204.7s85-31.4 89.6-161.6l85.7 86.5s-9.2 97.2-83.1 133.2v196H343V204.7zM278.3 204.7s-85-31.4-89.6-161.6L103 129.6s9.2 97.2 83.1 133.2v196h92.3V204.7z"></path><path d="M467.8 278.9s66.6-42.1 72-126.3l78.1 75.8s1.5 58.2-58.2 103.4v127.1h-91.9v-180zM150.1 278.9s-66.6-42.1-72-126.3L0 228.4s-1.5 58.2 58.2 103.4v127.1h91.9v-180zM379.4 70.4c0 38.9-31.5 70.4-70.4 70.4-38.9 0-70.4-31.5-70.4-70.4C238.5 31.5 270 0 308.9 0s70.5 31.5 70.5 70.4z"></path></svg>