<svg data-name="Layer 1" xmlns="http://www.w3.org/2000/svg" viewBox="0 0 602.01 591.26"><path d="M8.9.05H0v591.21l296.72-.06L8.9 575.95V.05z"></path><path d="M56.73.05H43.32v479.87l253.4 111.28L56.73 464.89V.05z"></path><path d="M104.77.05H86.8v406.81L296.72 591.2 104.77 384.27V.05z"></path><path d="M152.7.05h-22.47v351.11L296.72 591.2 152.7 336.13V.05z"></path><path d="M200.58.05h-26.93v327.77L296.72 591.2l-96.14-274.67V.05z"></path><path d="M248.51.05h-31.48v307.52l79.69 283.63-48.21-283.63V.05z"></path><path d="M296.44.05h-35.99v307.52l36.27 283.63-.28-283.63V.05zM545.28 591.2h13.41V111.34L305.29.05l239.99 126.32V591.2z"></path><path d="M497.24 591.2h17.97V184.4L305.29.05l191.95 206.93V591.2z"></path><path d="M449.31 591.2h22.47V240.1L305.29.05l144.02 255.08V591.2z"></path><path d="M401.43 591.2h26.92V263.44L305.29.05l96.08 274.68.06 316.47z"></path><path d="M353.5 591.2h31.48V283.69L305.29.05l48.21 283.64V591.2z"></path><path d="M305.56 591.2h35.99V283.69L305.29.05l.27 283.64V591.2zM305.29.05 593.1 15.31V591.2h8.91V0L305.29.05z"></path></svg>