<svg data-name="Layer 1" xmlns="http://www.w3.org/2000/svg" viewBox="0 0 590.67 590.67"><path d="M510.59 368.3c-41.46 20.62-86.54 34.84-132.8 38.8-41.62 3.56-83.67-1.07-122.11-17.9-34.99-15.32-66.88-37.71-101.41-53.3-31.19-14.08-63.97-24.47-97.61-30.73-11.38-2.12-22.84-3.74-34.32-5.17l-10.38-1.29c-1.35-.17-1.33-2.14.02-2.28l10.66-1.1c47.54-4.94 81.8-8.35 132.24-40.69 35.07-22.49 72.05-54.48 102.59-82.62 23.87-21.99 48.74-43.41 76.43-60.49 45.67-28.17 102.15-45.44 155.76-38.59C438.09 27.86 370.73.4 296.95 0 134.03-.87.3 131.87 0 294.79c-.3 163.36 132.04 295.88 295.33 295.88s282.1-119.41 294.35-271.26c-7.61 5.41-15.42 10.56-23.11 15.82-17.95 12.2-36.54 23.41-55.98 33.07Z"></path><path d="M333.65 255.43c-14.13 12.91-32.74 29.75-53.36 39.91h310.38c0-43.49-9.4-84.77-26.28-121.95-79.32-12.93-154.35 12.26-230.74 82.04ZM292.09 209.93c-31.99 29.22-68.24 62.34-108.89 83.49-1.25.65-2.51 1.27-3.77 1.91h21.41c36.54-21.56 69.1-51.26 98.17-77.82 78.45-71.66 148.97-99.28 237.77-92.26-2.7-3.83-5.5-7.6-8.38-11.29-32.46-2.07-62.23.51-90.84 8.51-48.89 13.67-95.12 41.46-145.48 87.46Z"></path></svg>