<svg xmlns="http://www.w3.org/2000/svg" width="618.4" viewBox="0 0 618.4 618.4" height="618.4" style="enable-background:new 0 0 618.4 618.4" xml:space="preserve"><path d="M181.7 309.2c0 70.3 57.2 127.5 127.5 127.5s127.5-57.2 127.5-127.5-57.2-127.5-127.5-127.5-127.5 57.2-127.5 127.5zm224 0c0 53.2-43.3 96.5-96.5 96.5s-96.5-43.3-96.5-96.5 43.3-96.5 96.5-96.5 96.5 43.3 96.5 96.5z"></path><path d="M602.9 121.1h-45.1V60.6h-60.6V0H0v497.3h60.6v60.6h60.6v60.6h497.3V121.1h-15.6zm-76-29.5v29.6H309.2c-103.7 0-188.1 84.4-188.1 188.1 0 35.3 9.8 68.3 26.7 96.5H91.6V91.6h435.3zM91.6 526.9v-29.6h217.7c103.7 0 188.1-84.4 188.1-188.1 0-35.3-9.8-68.3-26.7-96.5H527v314.2H91.6zm495.8 60.5H152.1v-29.6h405.7V181.7h-157c29.4 21.2 51.2 52.2 60.5 88.3 3.2 12.5 5 25.7 5 39.2 0 86.6-70.5 157.1-157.1 157.1H31V31h435.3v29.6H60.6v376.1h157c-39.6-28.5-65.5-75-65.5-127.5 0-13.5 1.7-26.7 5-39.2 17.5-67.7 79-117.9 152.1-117.9h278.2v435.3z"></path></svg>