<svg data-name="Layer 1" xmlns="http://www.w3.org/2000/svg" viewBox="0 0 623.89 623.41"><path d="M623.33 267.53c-2.32-22.06-11.06-43.23-24.04-61.15-1.28-1.83-2.62-3.6-4.02-5.48 3.38-3.46 5.48-8.18 5.48-13.4 0-10.6-8.59-19.18-19.18-19.18-6.16 0-11.59 2.96-15.1 7.48l-2.23-1.29c-19.36-11.75-41.91-18.18-64.57-18.12H393.61v.93c0 21.93-4.24 42.91-11.92 62.18 19.38 3.03 35.8 18.5 38.78 38.08 2.17 11.39-.3 23.18-6.85 32.75-3.23 5.16-7.47 9.63-12.45 13.14-8.18 5.51-17.85 8.38-27.71 8.22h-122.6v-3.2c70.2-14.48 123.4-76.97 123.4-151.29v-2.74C374.24 69.5 304.74 0 219.79 0h-65.34C69.5 0 0 69.5 0 154.45v2.74c0 75.17 54.43 138.2 125.81 151.73v314.5h125.03V375.08h123.85v248.34h115.13V499.3h18.68v124.12h115.38V279.99c0-4.36-.25-8.41-.56-12.45Zm-559.8-91.39c-10.39 0-18.81-8.42-18.81-18.81s8.42-18.81 18.81-18.81 18.81 8.42 18.81 18.81-8.42 18.81-18.81 18.81Zm62.61 62.56c-10.39 0-18.81-8.42-18.81-18.81s8.42-18.81 18.81-18.81 18.81 8.42 18.81 18.81-8.42 18.81-18.81 18.81Zm18.81-81.38c0 10.39-8.42 18.81-18.81 18.81s-18.81-8.42-18.81-18.81v-.14c0-10.39 8.42-18.81 18.81-18.81s18.81 8.42 18.81 18.81v.14Zm-18.81-43.88c-10.39 0-18.81-8.42-18.81-18.81s8.42-18.81 18.81-18.81 18.81 8.42 18.81 18.81-8.42 18.81-18.81 18.81Zm62.61 125.39c-10.39 0-18.81-8.42-18.81-18.81s8.42-18.81 18.81-18.81 18.81 8.42 18.81 18.81-8.42 18.81-18.81 18.81Zm18.81-81.51c0 10.39-8.42 18.81-18.81 18.81s-18.81-8.42-18.81-18.81v-.14c0-10.39 8.42-18.81 18.81-18.81s18.81 8.42 18.81 18.81v.14Zm-18.81-43.88c-10.39 0-18.81-8.42-18.81-18.81s8.42-18.81 18.81-18.81 18.81 8.42 18.81 18.81-8.42 18.81-18.81 18.81Zm125.22 24.94c10.39 0 18.81 8.42 18.81 18.81S324.36 176 313.97 176s-18.81-8.42-18.81-18.81 8.42-18.81 18.81-18.81Zm-62.61-62.56c10.39 0 18.81 8.42 18.81 18.81s-8.42 18.81-18.81 18.81-18.81-8.42-18.81-18.81 8.42-18.81 18.81-18.81Zm0 62.56c10.39 0 18.81 8.42 18.81 18.81S261.75 176 251.36 176s-18.81-8.42-18.81-18.81 8.42-18.81 18.81-18.81Zm-.92 100.32c-10.39 0-18.81-8.42-18.81-18.81s8.42-18.81 18.81-18.81 18.81 8.42 18.81 18.81-8.42 18.81-18.81 18.81Zm248.85-39.1c-7.11-.05-12.74-6.13-12.32-13.21 1.04-15.56 23.95-14.5 24.46.76 0 6.76-5.39 12.28-12.14 12.45Z"></path></svg>