<svg xmlns="http://www.w3.org/2000/svg" width="642" viewBox="0 0 642 498.51" height="498.51" data-name="Layer 1"><path d="M537.93 146.05c-47.57 0-88.6 28-107.5 68.42-1.28 2.75-5.21 2.9-6.7.26-23.11-41.06-67.1-68.8-117.58-68.8l-96.7.12c-41.28 0-78.23 18.55-102.96 47.77-1.9 2.24-5.54.89-5.54-2.05V0H0v498.51h100.95V307.03c0-33.68 27.31-60.99 60.99-60.99h133.38c33.68 0 60.99 27.31 60.99 60.99v191.48h100.95v-197.9c0-29.25 23.71-52.96 52.96-52.96h98.28c13.37 0 24.62-9.08 27.91-21.41 0 0 5.58-24.03 5.58-80.19H537.92Z"></path><circle cx="228.63" cy="374.53" r="57.38"></circle><circle cx="584.62" cy="374.53" r="57.38"></circle></svg>