<svg xmlns="http://www.w3.org/2000/svg" width="642" viewBox="0 0 642 483.1" height="483.1" style="overflow:visible;enable-background:new 0 0 642 483.1" xml:space="preserve"><path class="st0" d="M99.9 146c0 25.5 20.7 46.2 46.2 46.2h88.3v-72L321 241.5l-86.7 121.4v-70.8H146C65.4 292.1 0 226.7 0 146 0 65.4 65.4 0 146.1 0h481.5v99.9H146.1c-25.5 0-46.2 20.7-46.2 46.1z"></path><path class="st0" d="M542.1 337.1c0-25.5-20.7-46.2-46.2-46.2h-88.3v72L321 241.6l86.7-121.4V191H496c80.6 0 146.1 65.4 146.1 146.1 0 80.6-65.4 146-146.1 146H14.4v-99.9h481.5c25.5 0 46.2-20.7 46.2-46.1z"></path></svg>