<svg xmlns="http://www.w3.org/2000/svg" id="a" width="642" viewBox="0 0 642 642" height="642" data-name="Layer 1"><defs></defs><path d="M292.99 581.89c0-67.74-36.54-126.94-90.98-158.98-65.49-40.11-109.2-112.3-109.2-194.72 0-58.58 22.08-112.01 58.37-152.42a30.323 30.323 0 0 0 8.01-20.59c0-3.65-.64-7.15-1.82-10.4C63.15 100.72 0 203.48 0 321c0 167.85 128.82 305.61 292.99 319.8v-58.9ZM349.01 581.89c0-67.74 36.54-126.94 90.98-158.98 65.49-40.11 109.2-112.3 109.2-194.72 0-58.58-22.08-112.01-58.37-152.42a30.323 30.323 0 0 1-8.01-20.59c0-3.65.64-7.15 1.82-10.4C578.85 100.71 642 203.48 642 321c0 167.85-128.82 305.61-292.99 319.8v-58.9Z" class="b"></path><path d="m396.4 148.88 66.8-115.69c-4.81-2.38-9.69-4.69-14.64-6.81l-64.69 112c-2.8-2.02-5.68-3.91-8.67-5.65l43.19-117.65c-5.07-1.67-10.21-3.15-15.41-4.49l-41.91 115.17c-2.57-1.03-5.16-2.03-7.83-2.87L374.15 4.42c-5.26-.9-10.59-1.67-15.92-2.25l-20.65 117.19c-2.82-.44-5.67-.79-8.56-1V.13C326.32.07 323.69 0 321 0s-5.33.06-8.02.13v118.24c-2.89.21-5.74.56-8.56 1L283.76 2.18c-5.33.58-10.66 1.35-15.92 2.25l20.91 118.47c-2.67.84-5.26 1.83-7.83 2.87l-41.9-115.18c-5.2 1.35-10.34 2.82-15.41 4.49l43.19 117.65c-2.99 1.75-5.88 3.63-8.67 5.65l-64.7-111.99c-4.94 2.12-9.76 4.37-14.57 6.74l66.77 115.73c-19.84 19.51-32.16 46.63-32.16 76.64 0 55.59 42.19 101.32 96.3 106.94v309.3c3.72.19 7.45.26 11.23.26s7.51-.06 11.23-.26v-309.3c54.11-5.62 96.3-51.35 96.3-106.94 0-30.01-12.32-57.11-32.14-76.62Z" class="b"></path></svg>