<svg data-name="Layer 1" xmlns="http://www.w3.org/2000/svg" viewBox="0 0 567.96 617.84"><path d="M528.37 128.78 323.77 10.66c-24.63-14.22-54.96-14.22-79.59 0L39.37 128.91C15.01 142.97 0 168.97 0 197.1v227.89c0 44.66 36.88 80.71 81.84 79.36 43.46-1.3 76.96-39.22 76.96-82.69V243.32l45.78-26.43v318.22c0 43.48 33.5 81.39 76.96 82.69 44.97 1.35 81.84-34.7 81.84-79.36V216.89l45.78 26.43v178.33c0 43.48 33.5 81.39 76.96 82.69 44.97 1.35 81.84-34.7 81.84-79.36V197.35c0-28.29-15.09-54.42-39.59-68.57ZM79.4 482.53c-31.78 0-57.55-25.76-57.55-57.55s25.76-57.55 57.55-57.55 57.55 25.76 57.55 57.55-25.76 57.55-57.55 57.55Zm0-228.09c-31.78 0-57.55-25.76-57.55-57.55s25.76-57.55 57.55-57.55 57.55 25.76 57.55 57.55-25.76 57.55-57.55 57.55Zm204.58 341.54c-31.78 0-57.55-25.76-57.55-57.55s25.76-57.55 57.55-57.55 57.55 25.76 57.55 57.55-25.76 57.55-57.55 57.55Zm0-459.07c-31.78 0-57.55-25.76-57.55-57.55s25.76-57.55 57.55-57.55 57.55 25.76 57.55 57.55-25.76 57.55-57.55 57.55Zm204.58 345.61c-31.78 0-57.55-25.76-57.55-57.55s25.76-57.55 57.55-57.55 57.55 25.76 57.55 57.55-25.76 57.55-57.55 57.55Zm0-228.09c-31.78 0-57.55-25.76-57.55-57.55s25.76-57.55 57.55-57.55 57.55 25.76 57.55 57.55-25.76 57.55-57.55 57.55Z"></path></svg>