<svg data-name="Layer 1" xmlns="http://www.w3.org/2000/svg" viewBox="0 0 584.8 584.64"><path d="M584.8 292.32C584.8 132.88 457.18 3.26 298.53 0v119.05c92.78 3.24 167.26 79.71 167.26 173.27s-67.7 162.87-154.42 172.35v-38.08c57.83-17.26 99.99-70.83 99.99-134.27h42.34c0-77.39-62.74-140.13-140.13-140.13s-140.13 62.74-140.13 140.13H131.1c0 77.39 62.74 140.13 140.13 140.13 9.34 0 18.47-.93 27.3-2.68v154.87c158.66-3.26 286.27-132.88 286.27-292.32Zm-193.15-56.95c10.69 0 19.35 8.66 19.35 19.35s-8.66 19.35-19.35 19.35-19.35-8.66-19.35-19.35 8.66-19.35 19.35-19.35Z"></path><path d="M119.01 292.32c0-93.36 74.17-169.7 166.67-173.25V0C127.3 3.58 0 133.08 0 292.32s127.3 288.74 285.68 292.31V465.56c-92.51-3.54-166.67-79.89-166.67-173.25Z"></path></svg>