<svg data-name="Layer 1" xmlns="http://www.w3.org/2000/svg" viewBox="0 0 563.05 617.31"><path d="M77.99 107.88c1.84-2.84 5.07-6.06 11.92-10.55l33-20.96c12.32-8.22 18.49-21.39 18.49-34.2V.86c0-.95-1.42-1.2-1.74-.29-1.81 5.08-4.73 13.08-12.31 18.11l-34.9 23.55c-9.69 6.16-16.13 14.15-16.13 24.12v41.09c0 .87 1.19 1.18 1.67.44ZM77.99 171.92c1.84-2.65 5.48-6.76 12.33-10.96 6.24-3.83 20.66-13.95 32.59-20.55 11.52-6.37 18.49-17.51 18.49-29.49v-39.1c0-.89-1.42-1.12-1.74-.27-1.81 4.74-5.16 12.24-14.42 18.27l-34.09 21.6c-12.59 8.11-14.83 13.23-14.83 22.55v37.55c0 .81 1.19 1.1 1.67.41ZM18.49 76.37l33 20.96c6.84 4.49 10.08 7.71 11.92 10.55.48.74 1.67.43 1.67-.44V66.35c0-9.97-6.43-17.96-16.13-24.12l-34.9-23.55C6.47 13.64 3.55 5.64 1.74.56 1.42-.34 0-.1 0 .86v41.3c0 12.81 6.17 25.99 18.49 34.2ZM18.49 140.4c11.93 6.6 26.35 16.72 32.59 20.55 6.84 4.2 10.49 8.31 12.33 10.96.48.69 1.67.4 1.67-.41v-37.55c0-9.32-2.24-14.44-14.83-22.55L16.16 89.8C6.9 83.78 3.55 76.28 1.74 71.53c-.32-.84-1.74-.62-1.74.27v39.1c0 11.98 6.98 23.12 18.49 29.49ZM358.57 16.86c-112.46 0-204.47 92.01-204.47 204.47v191.13c0 33.52 27.18 60.7 60.7 60.7s60.7-27.18 60.7-60.7V221.33c0-45.03 38.04-83.07 83.07-83.07s83.07 38.05 83.07 83.07v309.15c0 33.52 27.18 60.7 60.7 60.7s60.7-27.18 60.7-60.7V221.33c0-112.46-92.01-204.47-204.47-204.47Z"></path><path d="M358.3 161.01c-33.52 0-60.7 27.18-60.7 60.7v191.13c0 45.03-38.04 83.07-83.07 83.07s-83.07-38.05-83.07-83.07l-.09-263.61c-1.19 1-2.47 2-3.93 2.95l-39.21 23.54C79.11 181.6 73.38 188.86 70.7 196c-2.68-7.14-8.41-14.4-17.53-20.28l-39.21-23.54c-1.46-.95-2.74-1.94-3.93-2.95l.02 263.61c0 112.46 92.01 204.47 204.47 204.47s204.47-92.01 204.47-204.47V221.71c0-33.52-27.18-60.7-60.7-60.7Z"></path></svg>