<svg xmlns="http://www.w3.org/2000/svg" width="589.6" viewBox="0 0 589.6 603" height="603"><path d="M568.1 0c7.4 6.7 14.6 13.7 21.5 21V0h-21.5zM21.6 0H0v21C6.9 13.8 14.1 6.7 21.6 0zM0 550.3v16.2c11.7 13 24.1 25.2 37.4 36.5h16.7C34.4 587.2 16.3 569.6 0 550.3zM552.2 0h-34C545 19.8 569 43.1 589.6 69.2V36.4C578 23.4 565.5 11.3 552.2 0zM535.6 603h16.7c13.2-11.3 25.7-23.5 37.4-36.5v-16.2c-16.4 19.3-34.4 37-54.1 52.7zM71.4 0h-34C24.2 11.3 11.7 23.5 0 36.4v32.9C20.6 43.2 44.6 19.9 71.4 0zM480.5 603H500c34.6-23.6 64.9-52.9 89.6-86.7v-18.6C561.2 540.2 524 576.1 480.5 603zM0 497.7v18.6c24.7 33.8 55 63.1 89.6 86.7h19.5C65.6 576.1 28.4 540.2 0 497.7zM500 0h-40.2c53.5 29.4 98.4 72.6 129.8 124.8v-38C564.9 53 534.6 23.6 500 0zM129.8 0H89.7C55 23.6 24.7 53 0 86.9v38C31.4 72.6 76.3 29.4 129.8 0zM409.6 603h26.9c65.5-30.9 119.3-82.5 153.1-146.3v-24.2c-34.8 78.1-99.8 139.9-180 170.5z"></path><path d="M436.6 0h-42v5.9c91.1 30.8 163.4 102.7 195 193.5v-53.2C555.9 82.4 502 30.9 436.6 0zM0 432.4v24.3C33.7 520.5 87.6 572.1 153.1 603H180C99.8 572.4 34.8 510.6 0 432.4zM195 5.9V0h-42C87.6 30.9 33.7 82.5 0 146.3v53.2C31.5 108.7 103.9 36.7 195 5.9z"></path><path d="M394.6 17C363.4 6 329.8 0 294.8 0S226.3 6 195 17C97 51.5 22.1 135.3 0 238.4v126.2C29.1 500.7 150.2 603 294.8 603c144.6 0 265.6-102.3 294.8-238.2V238.2c-22.1-103-97-186.7-195-221.2zm-99.8 564.8C140.2 581.8 14.5 456 14.5 301.5 14.5 182.1 89.6 79.9 195 39.6V28.2c31.1-11.4 64.7-17.6 99.8-17.6 35 0 68.6 6.2 99.8 17.6v11.4C500 79.9 575.2 182.1 575.2 301.5c0 154.6-125.8 280.3-280.4 280.3z"></path><path d="M394.6 51c-30.9-12.3-64.5-19.2-99.8-19.2-35.2 0-68.9 6.9-99.8 19.2C95.5 90.8 25 188 25 301.5c0 148.7 121 269.7 269.8 269.7 148.7 0 269.7-121 269.7-269.7C564.6 188 494.1 90.7 394.6 51zm-99.8 499.1c-137.1 0-248.6-111.5-248.6-248.6 0-101.6 61.3-189.1 148.8-227.6V62.4c30.7-12.9 64.4-20 99.8-20 35.3 0 69 7.1 99.8 20V74c87.5 38.5 148.8 126 148.8 227.6 0 137-111.5 248.5-248.6 248.5z"></path><path d="M394.6 85.5c-30.4-14.1-64.2-22-99.8-22-35.6 0-69.4 7.9-99.8 22-81.5 37.8-138.2 120.4-138.2 216 0 131.2 106.8 238 238 238s238-106.8 238-238c0-95.6-56.7-178.2-138.2-216zm-99.8 432.8C175.3 518.3 78 421.1 78 301.5c0-83.6 47.6-156.2 117-192.4V97.2c30.1-14.8 64-23.1 99.8-23.1s69.6 8.3 99.8 23.1v11.9c69.5 36.2 117 108.8 117 192.4 0 119.6-97.2 216.8-216.8 216.8z"></path><path d="M394.6 121.1C365 104.7 331 95.3 294.8 95.3c-36.2 0-70.2 9.4-99.8 25.8C131.6 156.3 88.6 224 88.6 301.5c0 113.7 92.5 206.2 206.2 206.2 113.7 0 206.2-92.5 206.2-206.2 0-77.5-43-145.2-106.4-180.4zm-99.8 365.5c-102 0-185.1-83-185.1-185 0-65.3 34-122.8 85.3-155.7v-12.5c29.2-17.4 63.4-27.5 99.8-27.5s70.5 10 99.8 27.5v12.5c51.2 32.9 85.3 90.4 85.3 155.7 0 101.9-83 185-185.1 185z"></path><path d="M394.6 158.5c-28.3-19.8-62.7-31.5-99.8-31.5-37.1 0-71.5 11.7-99.8 31.5-45.1 31.6-74.7 83.9-74.7 143 0 96.2 78.3 174.5 174.5 174.5s174.5-78.3 174.5-174.5c0-59.1-29.6-111.4-74.7-143zm-99.8 296.3c-84.5 0-153.3-68.8-153.3-153.3 0-46.4 20.8-88.1 53.5-116.2v-13.6c27.7-21.3 62.3-34 99.8-34s72.1 12.7 99.8 34v13.6c32.7 28.1 53.5 69.8 53.5 116.2 0 84.5-68.7 153.3-153.3 153.3z"></path><path d="M294.8 158.8c-38.8 0-74 15.6-99.8 40.9-26.4 25.9-42.9 62-42.9 101.8 0 78.7 64 142.7 142.7 142.7 78.7 0 142.7-64 142.7-142.7 0-39.9-16.5-75.9-42.9-101.8-25.7-25.3-61-40.9-99.8-40.9zm0 264.2c-67 0-121.5-54.5-121.5-121.5 0-25.7 8.1-49.5 21.7-69.2v-17.1c24.2-28 59.9-45.8 99.8-45.8 39.8 0 75.5 17.8 99.8 45.8v17.1c13.7 19.7 21.7 43.5 21.7 69.2 0 67-54.5 121.5-121.5 121.5z"></path><path d="M294.8 190.6c-61.3 0-110.9 49.7-110.9 110.9 0 61.3 49.7 110.9 110.9 110.9s110.9-49.7 110.9-110.9c.1-61.3-49.6-110.9-110.9-110.9zm0 121.4c-5.8 0-10.5-4.7-10.5-10.5S289 291 294.8 291s10.5 4.7 10.5 10.5-4.7 10.5-10.5 10.5z"></path></svg>