<svg data-name="Layer 1" xmlns="http://www.w3.org/2000/svg" viewBox="0 0 615.68 615.68"><path d="M317.59 418.34h88.93v90.84h-88.93zM197.34 209.17H0v398.15l197.34-197.34V209.17zM305.76 307.34l96.39-98.17H209.16v197.34h96.6v-99.17zM418.72 209.17l-.38.39v94.29h96.18l92.98-94.68H418.72z"></path><path d="M406.51 303.85V221.6l-80.75 82.25h80.75zM430.33 197.35h185.35V8.55l-185.35 188.8zM317.59 315.67h88.93v90.84h-88.93zM418.34 418.34h92.76v90.84h-92.76zM418.34 315.67h92.76v90.84h-92.76zM522.92 406.51h92.76v-188.8l-92.76 94.47v94.33zM209.16 0v197.35h204.59L607.5 0H209.16zM197.34 8.36 8.36 197.35h188.98V8.36zM305.76 418.34H205.7L8.36 615.68h398.15v-94.67H305.76V418.34zM418.34 607.32l86.31-86.31h-86.31v86.31zM522.92 502.74l84.4-84.4h-84.4v84.4z"></path></svg>