<svg data-name="Layer 1" xmlns="http://www.w3.org/2000/svg" viewBox="0 0 612.53 621.96"><path d="M165.84 310.29c36.87-34.17 86.19-55.09 140.43-55.09s103.56 20.92 140.43 55.09c36.87-34.17 86.19-55.09 140.43-55.09 8.61 0 17.08.59 25.42 1.61C586.9 110.88 459.54 0 306.27 0S25.64 110.88 0 256.8c8.33-1.02 16.8-1.61 25.42-1.61 54.23 0 103.56 20.92 140.43 55.09ZM165.84 480.23c36.87-34.17 86.19-55.09 140.43-55.09s103.56 20.92 140.43 55.09c36.87-34.17 86.19-55.09 140.43-55.09 2.82 0 5.62.1 8.42.21 7.09-17.91 12.54-36.64 16.22-56-8.08-.96-16.29-1.48-24.63-1.48-54.23 0-103.56 20.92-140.43 55.09-36.87-34.17-86.19-55.09-140.43-55.09s-103.56 20.92-140.43 55.09c-36.87-34.17-86.19-55.09-140.43-55.09-8.34 0-16.55.52-24.63 1.48 3.68 19.36 9.13 38.09 16.22 56 2.79-.11 5.59-.21 8.42-.21 54.23 0 103.56 20.92 140.43 55.09ZM306.27 522.28c-56.17 0-106.18 26.28-138.49 67.19 41.71 20.78 88.73 32.49 138.49 32.49s96.78-11.71 138.49-32.49c-32.31-40.91-82.32-67.19-138.49-67.19Z"></path></svg>