<svg data-name="Layer 1" xmlns="http://www.w3.org/2000/svg" viewBox="0 0 514.22 627.92"><path d="M210.92 6.33v369.2l14.42 83.76v167.5c3.66.45 7.35.83 11.06 1.12V369.54l14.42-70.23V0c-13.8.47-27.17 2.64-39.9 6.33ZM263.41.05V299.3l14.42 70.23v258.38c3.71-.3 7.4-.67 11.06-1.12v-167.5l14.42-83.76V6.73c-12.72-3.8-26.09-6.1-39.9-6.68ZM93.04 163.3c0 3.4.11 6.77.31 10.12C36.33 220.57 0 291.86 0 371.63c0 116.56 77.57 215.01 183.91 246.54V459.29l14.42-83.76V10.54C136.78 33.97 93.05 93.52 93.05 163.29ZM419.59 172.36c.16-3 .25-6.02.25-9.06 0-69.26-43.1-128.46-103.94-152.23v364.46l14.42 83.76v158.88c106.34-31.53 183.91-129.97 183.91-246.54 0-80.37-36.88-152.12-94.64-199.27Z"></path></svg>