<svg xmlns="http://www.w3.org/2000/svg" id="a" width="642" viewBox="0 0 642 385.2" height="385.2" data-name="Layer 1"><defs></defs><path d="M186.05 174.17h-43.21c0-5.78-4.69-10.46-10.4-10.46s-10.46 4.69-10.46 10.46 4.69 10.4 10.46 10.4c2.76 0 5.33-1.09 7.19-2.89v14.12c-15.98 8.82-38.52-.72-38.52-25.68 0-11.81 5.07-22.34 13.1-29.4 27.97-21.42 70.07-3.02 71.84 33.45Z" class="b"></path><path d="M156.61 179.76c-2.95 13.76-15.18 24.07-29.82 24.07-16.84 0-30.49-13.65-30.49-30.49v-2.78c0-23.93 19.4-43.33 43.33-43.33v-13.46c-37.85-.88-69.01 29.52-69.01 67.39s30.18 67.41 67.41 67.41 68.16-30.83 67.4-68.8h-48.81ZM455.95 174.17h43.21c0-5.78 4.69-10.46 10.4-10.46 5.78 0 10.46 4.69 10.46 10.46 0 5.71-4.69 10.4-10.46 10.4-2.76 0-5.33-1.09-7.19-2.89v14.12c15.98 8.82 38.52-.72 38.52-25.68 0-11.81-5.07-22.34-13.1-29.4-27.97-21.42-70.07-3.02-71.84 33.45Z" class="b"></path><path d="M485.39 179.76c2.95 13.76 15.18 24.07 29.82 24.07 16.84 0 30.5-13.65 30.5-30.49v-2.78c0-23.93-19.4-43.34-43.33-43.34v-13.46c37.85-.88 69.01 29.52 69.01 67.39 0 37.23-30.18 67.41-67.41 67.41-37.58 0-68.16-30.83-67.4-68.8h48.81Z" class="b"></path><path d="m430.94 385.2-.8-204.05c0-40.78 33.05-73.83 73.83-73.83s73.83 33.05 73.83 73.83c0 41.38-34 74.7-75.43 73.81v31.85C577.77 293.35 642 233.96 642 158.89 642 71.14 570.86 0 483.11 0c-87.76 0-158.9 71.14-158.9 158.89v121.98h-6.42V158.89C317.79 71.14 246.65 0 158.89 0S0 71.14 0 158.89c0 75.07 64.23 134.45 139.64 127.92v-31.85c-41.43.88-75.44-32.43-75.44-73.81s33.05-73.83 73.83-73.83 73.83 33.05 73.83 73.83l-.8 204.05h219.88Z" class="b"></path></svg>