<svg xmlns="http://www.w3.org/2000/svg" width="625.1" viewBox="0 0 625.1 587.2" height="587.2" xml:space="preserve"><path d="M625.1 189.5C625.1 83.2 543.6 0 439.5 0c-42.7 0-83.9 14.4-117.3 40.7l50.7 50.7C392.5 78.2 415.6 71 439.5 71c64.3 0 114.6 52.1 114.6 118.5 0 23.2-6.7 43.9-20.3 62.9-3.8 5.4-8.2 10.6-13.1 15.7l-172 177.6V190l113.4 114.6 50.2-50.2L313 54 114 253.3l50.2 50.1L276.3 190v255.6L108.2 268c-4.9-5.1-9.3-10.3-13.1-15.7-13.6-19-24.1-39.7-24.1-62.9C71 123 121.3 71 185.6 71c23.9 0 47 7.2 66.5 20.4l50.7-50.7C269.6 14.4 228.3 0 185.6 0 81.5 0 0 83.2 0 189.5c0 48.3 21.8 91.3 57.1 127.8l258.9 270 255.8-270c35.4-36.5 53.3-79.5 53.3-127.8z"></path></svg>