<svg data-name="Layer 1" xmlns="http://www.w3.org/2000/svg" viewBox="0 0 545.88 621.3"><path d="m524.53 481.06 21.35-33.47-237.19-136.94 189.7-109.52v85.23l39.66-.01V155.32L419.67 86.97l-19.83 34.36 78.71 45.44-189.69 109.52V57.26l76.62 44.23 19.84-34.35L269.03 0 154.48 66.13l19.84 34.36 74.87-43.23v219.03L59.5 166.77l80.47-46.45-19.84-34.35L0 155.32v131.09l39.67-.01v-85.27l189.69 109.52L39.67 420.17v-94.1H0v139.9l116.33 67.16 19.83-34.35-76.66-44.26L249.19 345v219.04l-78.68-45.43-19.83 34.36 118.35 68.33 120.17-69.39-19.84-34.35-80.5 46.48V345l235.67 136.06z"></path></svg>