<svg xmlns="http://www.w3.org/2000/svg" width="604.1" viewBox="0 0 604.1 360.1" height="360.1" xml:space="preserve"><path class="st0" d="m364.9 156.9-42.4 42.4H160.4l-64.1 64.1h268.9z"></path><path d="M578.7 135.8c-13.3-13.3-30.2-21.8-48.8-24.5-16.9-2.5-34.4.1-49.8 7.3l-.1-33.4v-.7c-.1-22.4-8.9-43.6-24.9-59.5l-.2-.2C421.8-8.1 368-8.3 335.1 24.4L195.7 163h82.9l91.7-91.7c11.6-11.6 30.4-11.6 41.9 0 5.5 5.5 8.6 12.9 8.7 20.7l-.1 162.1 74-74c10.9-10.9 28.6-10.9 39.5 0 10.9 10.9 10.9 28.6 0 39.5l-95 94.9H45.1L0 360.1l479.3-1.9 99.4-99.4c33.9-33.9 33.9-89.1 0-123z" class="st0"></path></svg>