<svg xmlns="http://www.w3.org/2000/svg" width="623.2" viewBox="0 0 623.2 618.2" height="618.2" xml:space="preserve" style="enable-background:new 0 0 623.2 618.2"><path d="M5.6 0h191.2v402.5H5.6zM215.7 0h191.2v195.7H215.7zM215.7 419.1h191.2v195.7H215.7zM426.4 213.5h191.2V616H426.4zM210.1 308c0 55.9 45.3 101.2 101.2 101.2 55.9 0 101.2-45.3 101.2-101.2 0-55.9-45.3-101.2-101.2-101.2-55.9 0-101.2 45.3-101.2 101.2z"></path><circle transform="rotate(-67.5 101.173 516.98)" cx="101.2" cy="517" r="101.2"></circle><path d="M420.8 101.2c0 55.9 45.3 101.2 101.2 101.2 55.9 0 101.2-45.3 101.2-101.2S577.9 0 522 0c-55.9 0-101.2 45.3-101.2 101.2z"></path></svg>