<svg data-name="Layer 1" xmlns="http://www.w3.org/2000/svg" viewBox="0 0 613.6 613.6"><path d="M479.59 53.29c-19.12.63-36.57 11.22-45.79 28.09L328.32 274.96l147.71-3.76-62.26 113.98-111.45-61.77-73.52 134.1c-22.26 40.75-64.99 66.1-111.43 66.1H89.72c55.53 55.6 132.28 89.99 217.06 89.99 169.44 0 306.8-137.36 306.8-306.8 0-105.35-53.12-198.27-134.01-253.51Z"></path><path d="m126.18 488.56 101.25-186.05c6.25-11.48-2.06-25.47-15.13-25.47h16.66c7.58 0 14.56-4.14 18.19-10.79l84.02-153.82c22.26-40.75 64.99-66.1 111.43-66.1h26.27C421.84 17 366.32 0 306.8 0 137.36 0 0 137.36 0 306.8c0 81.12 31.53 154.82 82.94 209.68 18.11-1.45 34.44-11.8 43.24-27.92Z"></path></svg>