<svg data-name="Layer 1" xmlns="http://www.w3.org/2000/svg" viewBox="0 0 614.11 614.08"><path d="M562.58 136.77c4.27 21.99 4.83 45.31.46 69.39C548 289.04 478.1 352.7 394.14 359.44c-31.13 2.5-60.8-2.65-87.39-13.72 1.83.06 3.65.14 5.49.14 95.51 0 185.25-58.87 185.25-172.93S407.74 0 312.23 0c-2.21 0-6.35.05-6.22 0C132.85.58-6.55 144.46.24 319.27 6.42 478.3 136.03 607.8 295.06 613.86c175.04 6.66 319.05-133.26 319.05-306.83 0-62.99-19-121.53-51.53-170.26ZM305.85 342.46c-67.02-27.1-114.31-92.79-114.31-169.52S239.33 29.81 306.91 2.98c1.97-.78 4.13.72 4.13 2.83V338.9c0 2.67-2.72 4.55-5.19 3.55Z"></path></svg>