<svg xmlns="http://www.w3.org/2000/svg" width="602.7" viewBox="0 0 602.7 602.7" height="602.7"><path d="M595 380.7l-95.2-95.9h-.6l-.5-.5V88.8l-81-81C412.6 2.7 405.9.1 399.3 0c-6.7.1-13.3 2.7-18.4 7.8L284.8 103v.6l-.5.5H88.8l-81 81C2.7 190.2.1 196.9 0 203.5c.1 6.7 2.7 13.3 7.8 18.4l95.2 95.9h.6l.5.5v195.6l81 81c5.1 5.1 11.8 7.7 18.4 7.8 6.7-.1 13.3-2.7 18.4-7.8l95.9-95.2v-.6l.5-.5h195.6l81-81c5.1-5.1 7.7-11.8 7.8-18.4 0-6.7-2.6-13.4-7.7-18.5zm-101.8-95.9h-11.7L428.3 220l64.9 64.8zm-17.2 0h-15.7l-43.7-72.5 59.4 72.5zm-313.4 33.1l29.2 73.6-44.4-73.6h15.2zm4.5 0h15.2l14.4 74.7-29.6-74.7zm19.5 0h15v77.7l-15-77.7zm19 0h15l-15 77.7v-77.7zm6.8-96.9l72.5 43.7v15.7L212.4 221zm72.4 38.8l-73.6-44.4 73.6 29.2v15.2zm0-19.8l-74.7-29.6 74.7 14.4V240zm-59.9 77.9H240l-29.6 74.7 14.5-74.7zm19.7 0h15.3l-44.4 73.6 29.1-73.6zM220 232.7l64.9 53.2.1 11.8-65-65zm162.8 137.4l-64.9-53.2-.1-11.8 65 65zm-20.1-85.3l29.6-74.7-14.4 74.7h-15.2zm-4.5 0h-15.3l44.4-73.6-29.1 73.6zm-40.3 58.1l73.6 44.4-73.6-29.2v-15.2zm0-4.9v-15.7l72.5 59.4-72.5-43.7zm0 24.7l74.7 29.6-74.7-14.4v-15.2zm64.3-77.9l15-77.7v77.7h-15zm38.3 0l-14.4-74.7 29.6 74.7h-15.2zm-4.3 0h-15v-77.7l15 77.7zm24 0L411 211.2l44.4 73.6h-15.2zM383.6 14.6l1-1c4-4 9.3-6 14.5-6 5.2 0 10.5 1.9 14.5 6l1 1v186L413 199c-3.9-3.9-8.9-5.8-13.9-6-5.1.1-10.1 2.1-13.9 6l-1.6 1.6v-186zm-1.9 197.8L338 284.8h-15.7l59.4-72.4zm-64.8 72.5l-11.9.1 65-65-53.1 64.9zm-2.8 16.5l-12.7 12.7-12.7-12.7 12.7-12.7 12.7 12.7zm-29.3-191.8v11.7L220 174.5l64.8-64.9zm0 17.1v15.7l-72.5 43.7 72.5-59.4zm0 20.6v15.3l-73.6 29.2 73.6-44.5zm0 19.8v15.2l-74.7 14.4 74.7-29.6zm0 19.5v15h-77.7l77.7-15zm0 19v15l-77.7-15h77.7zM14.6 219.1l-1-1c-4-4-6-9.3-6-14.5 0-5.2 1.9-10.5 6-14.5l1-1h186l-1.6 1.6c-3.9 3.9-5.8 8.9-6 13.9.1 5.1 2.1 10.1 6 13.9l1.6 1.6h-186zm95 98.8h11.7l53.2 64.9-64.9-64.9zm17.1 0h15.7l43.7 72.5-59.4-72.5zm92.4 270.3l-1 1c-4 4-9.3 6-14.5 6-5.2 0-10.5-1.9-14.5-6l-1-1v-186l1.6 1.6c3.9 3.9 8.9 5.8 13.9 6 5.1-.1 10.1-2.1 13.9-6l1.6-1.6v186zm1.9-197.8l43.7-72.5h15.7L221 390.4zm64.8-72.5l11.8-.1-65 65 53.2-64.9zm32.1 175.3v-11.7l64.9-53.2-64.9 64.9zm0-17.2v-15.7l72.5-43.7-72.5 59.4zm0-20.6v-15.3l73.6-29.2-73.6 44.5zm0-19.8v-15.2l74.7-14.4-74.7 29.6zm0-19.4v-15h77.7l-77.7 15zm0-19.1v-15l77.7 15h-77.7zm271.3 16.6l-1 1h-186l1.6-1.6c3.9-3.9 5.8-8.9 6-13.9-.1-5.1-2.1-10.1-6-13.9l-1.6-1.6h186l1 1c4 4 6 9.3 6 14.5 0 5.2-2 10.5-6 14.5z"></path></svg>