<svg data-name="Layer 1" xmlns="http://www.w3.org/2000/svg" viewBox="0 0 604.8 604.8"><path d="M604.8 182.69c0-27.93-18.19-51.6-43.36-59.85 25.18-8.25 43.36-31.92 43.36-59.85C604.8 28.2 576.6 0 541.81 0c-27.93 0-51.6 18.19-59.85 43.36C473.71 18.19 450.04 0 422.11 0s-51.6 18.19-59.85 43.36C354 18.19 330.33 0 302.4 0c-34.79 0-62.99 28.2-62.99 62.99 0 27.93 18.19 51.6 43.36 59.85-19 6.23-34.01 21.23-40.23 40.23-8.25-25.17-31.92-43.36-59.85-43.36-34.79 0-62.99 28.2-62.99 62.99 0 27.93 18.19 51.6 43.36 59.85-19 6.23-34.01 21.23-40.23 40.23-8.25-25.17-31.92-43.36-59.85-43.36-34.79 0-62.99 28.2-62.99 62.99 0 27.93 18.19 51.6 43.36 59.85C18.19 370.5 0 394.17 0 422.11s18.19 51.6 43.36 59.85C18.19 490.21 0 513.88 0 541.81c0 34.79 28.2 62.99 62.99 62.99 27.93 0 51.6-18.19 59.85-43.36 8.25 25.17 31.92 43.36 59.85 43.36s51.6-18.19 59.85-43.36c8.25 25.17 31.92 43.36 59.85 43.36 34.79 0 62.99-28.2 62.99-62.99 0-27.93-18.19-51.6-43.36-59.85 19-6.23 34.01-21.23 40.23-40.23 8.25 25.17 31.92 43.36 59.85 43.36 34.79 0 62.99-28.2 62.99-62.99 0-27.93-18.19-51.6-43.36-59.85 19-6.23 34.01-21.23 40.23-40.23 8.25 25.18 31.92 43.36 59.85 43.36 34.79 0 62.99-28.2 62.99-62.99 0-27.93-18.19-51.6-43.36-59.85 25.18-8.25 43.36-31.92 43.36-59.85ZM481.96 82.61c6.23 19 21.23 34.01 40.23 40.23-19 6.23-34.01 21.23-40.23 40.23-6.23-19-21.23-34.01-40.23-40.23 19-6.23 34.01-21.23 40.23-40.23Zm-119.71 0c6.23 19 21.23 34.01 40.23 40.23-19 6.23-34.01 21.23-40.23 40.23-6.23-19-21.23-34.01-40.23-40.23 19-6.23 34.01-21.23 40.23-40.23ZM242.54 202.32c6.23 19 21.23 34.01 40.23 40.23-19 6.23-34.01 21.23-40.23 40.23-6.23-19-21.23-34.01-40.23-40.23 19-6.23 34.01-21.23 40.23-40.23Zm119.71 200.17c-6.23-19-21.23-34.01-40.23-40.23 19-6.23 34.01-21.23 40.23-40.23 6.23 19 21.23 34.01 40.23 40.23-19 6.23-34.01 21.23-40.23 40.23Zm119.71-119.71c-6.23-19-21.23-34.01-40.23-40.23 19-6.23 34.01-21.23 40.23-40.23 6.23 19 21.23 34.01 40.23 40.23-19 6.23-34.01 21.23-40.23 40.23Z"></path></svg>