<svg data-name="Layer 1" xmlns="http://www.w3.org/2000/svg" viewBox="0 0 610.39 610.39"><path d="M97.34 536.04c42.68 4.71 78.8-28.58 78.8-70.3 0-18.15-6.89-34.65-18.13-47.17l47.72-84.47c2.06-3.65 7.63-2.19 7.63 2.01v88.04c0 47.79 35.39 89.62 82.97 94.11 2.99.28 5.93.36 8.86.36 2.93 0 5.88-.08 8.86-.36 47.58-4.48 82.97-46.32 82.97-94.11v-88.04c0-4.19 5.57-5.66 7.63-2.01l47.72 84.47c-10.74 11.97-17.51 27.57-18.09 44.77-1.3 38.61 30.19 72.12 68.81 73.13 39.94 1.04 72.64-31.02 72.64-70.72 0-26.84-14.95-50.19-36.97-62.17l-49.22-87.12c-4.3-7.62-12.38-12.33-21.13-12.33H328.47c-8.16 0-14.78 6.62-14.78 14.78v107.95c0 4.61-3.89 8.52-8.51 8.52s-8.51-3.9-8.51-8.52V318.91c0-8.16-6.62-14.78-14.78-14.78H141.97c-8.75 0-16.83 4.71-21.13 12.33l-49.22 87.12c-23.8 12.95-39.33 39.17-36.68 68.72 2.96 32.98 29.49 60.12 62.4 63.75Z"></path><circle cx="305.2" cy="182.19" r="114.7" transform="rotate(-45 305.1969323 182.19329145)"></circle><path d="M0 0v610.39h610.39V0H0Zm595.3 595.3H15.09V15.09H595.3V595.3Z"></path></svg>