<svg width="642" viewBox="0 0 642 642" height="642" xmlns="http://www.w3.org/2000/svg"><path d="M632.872 397.205C597.896 540.686 468.918 642 320.988 642 173.148 642 44.1 540.763 9.105 397.205c99.914-49.183 224.096-35.842 311.883 43.207 87.839-79.1 212.034-92.365 311.884-43.207"></path><path d="M641.475 338.848c-102.611-51.868-228.2-40.934-320.487 30.238-94.547-72.61-219.846-81.11-320.486-30.238C-.75 315.76.374 294.1 3.519 273.62c99.947-53.318 223.577-46.326 317.534 21.186 94.701-67.923 218.19-74.048 317.404-21.121 3.185 20.672 4.257 42.397 3.018 65.163"></path><path d="M623.05 212.374c-94.708-47.277-211.052-41.198-302.062 22.726-92.993-65.317-209.863-68.899-302.06-22.726a318.41 318.41 0 0 1 47.122-86.35c83.402-28.292 178.264-17.648 254.938 34.604 76.707-52.278 171.569-62.883 254.939-34.603a318.41 318.41 0 0 1 47.122 86.349M509.159 60.99c-63.507-11.794-131.283.398-188.17 38.327-56.856-37.903-124.638-50.12-188.17-38.327C185.718 22.598 250.688 0 320.988 0c70.298 0 135.269 22.598 188.17 60.99"></path></svg>