<svg xmlns="http://www.w3.org/2000/svg" width="617.1" viewBox="0 0 617.1 617.1" height="617.1" style="enable-background:new 0 0 617.1 617.1" xml:space="preserve"><path d="M617.1 202.9c0-53-43.1-96.2-96.2-96.2h-10.5V96.2c0-53-43.1-96.2-96.2-96.2-53 0-96.2 43.1-96.2 96.2V299h202.8c53.1 0 96.3-43.1 96.3-96.1zm-273.7 70.8V96.2c0-39.1 31.8-70.8 70.8-70.8S485 57.2 485 96.2v17.9l-84 84V89.3h-25.3v151.5h.5v.5h151.5V216H419l84-84h17.9c39.1 0 70.8 31.8 70.8 70.8s-31.8 70.8-70.8 70.8l-177.5.1zM96.2 299H299V96.2c0-53-43.1-96.2-96.2-96.2-53 0-96.2 43.1-96.2 96.2v10.5H96.2c-53 0-96.2 43.1-96.2 96.2 0 53 43.1 96.1 96.2 96.1zm0-167h17.9l84 84H89.3v25.3h151.5v-.5h.5V89.3H216v108.8l-84-84V96.2c0-39.1 31.8-70.8 70.8-70.8s70.8 31.8 70.8 70.8v177.5H96.2c-39.1 0-70.8-31.8-70.8-70.8S57.1 132 96.2 132zM0 414.2c0 53 43.1 96.2 96.2 96.2h10.5v10.5c0 53 43.1 96.2 96.2 96.2 53 0 96.2-43.1 96.2-96.2V318.1H96.2C43.1 318.1 0 361.2 0 414.2zm273.7-70.8v177.5c0 39.1-31.8 70.8-70.8 70.8S132 560 132 520.9V503l84-84v108.8h25.3V376.2h-.5v-.5H89.3V401h108.8l-84 84H96.2c-39.1 0-70.8-31.8-70.8-70.8s31.8-70.8 70.8-70.8h177.5zM520.9 318.1H318.1v202.8c0 53 43.1 96.2 96.2 96.2 53 0 96.2-43.1 96.2-96.2v-10.5H521c53 0 96.2-43.1 96.2-96.2-.1-53-43.3-96.1-96.3-96.1zm0 167H503l-84-84h108.8v-25.3H376.2v.5h-.5v151.5H401V419l84 84v17.9c0 39.1-31.8 70.8-70.8 70.8s-70.8-31.8-70.8-70.8V343.4h177.5c39.1 0 70.8 31.8 70.8 70.8s-31.7 70.9-70.8 70.9z"></path></svg>