<svg data-name="Layer 1" xmlns="http://www.w3.org/2000/svg" viewBox="0 0 622.31 350.42"><path d="m510.67 63.58-32.05 32.06 56.9 56.9h-50.68C473.69 66.61 400.08 0 311.15 0S148.62 66.61 137.46 152.54H86.78l56.9-56.9-32.05-32.06L0 175.21l111.63 111.62 32.05-32.05-56.9-56.9h50.68c11.16 85.93 84.77 152.54 173.7 152.54s162.53-66.61 173.69-152.54h50.68l-56.9 56.9 32.05 32.05 111.64-111.62L510.68 63.58ZM439 152.54h-48.37c-2.52-32.82-10.53-64.71-23.66-94.58 37.19 17.78 64.63 52.76 72.02 94.58Zm-161.81 0c3.37-36.84 14.9-72.27 33.95-103.98 19.06 31.72 30.61 67.12 33.97 103.98h-67.93Zm67.93 45.34c-3.36 36.86-14.91 72.25-33.96 103.97-19.06-31.72-30.6-67.1-33.96-103.97h67.93ZM255.35 57.96c-13.13 29.88-21.15 61.78-23.68 94.59H183.3c7.4-41.82 34.84-76.81 72.05-94.59ZM183.3 197.88h48.36c2.52 32.82 10.5 64.7 23.62 94.55-37.17-17.79-64.59-52.75-71.98-94.55Zm183.68 94.57c13.13-29.87 21.13-61.76 23.66-94.57h48.37c-7.39 41.81-34.83 76.79-72.02 94.57Z"></path></svg>