<svg xmlns="http://www.w3.org/2000/svg" width="642" viewBox="0 0 642 642" height="642" data-name="Layer_1"><path d="M296.52 301.74h-12.84V69.22c0-1.88-1.53-3.41-3.41-3.41-.83 0-1.6.3-2.19.8l-4.45 3.46c-.42.35-.96.56-1.54.56-1.33 0-2.41-1.08-2.41-2.41 0-.32.06-.63.18-.9 8.22-20.3 13.96-41.86 16.86-64.32a3.405 3.405 0 0 1 6.76 0c2.9 22.46 8.64 44.02 16.86 64.32.12.28.18.58.18.9 0 1.33-1.08 2.41-2.41 2.41-.59 0-1.12-.21-1.54-.56l-4.45-3.46c-.59-.5-1.36-.8-2.19-.8-1.88 0-3.41 1.53-3.41 3.41v232.52ZM233.33 301.74h-12.84V69.22c0-1.88-1.53-3.41-3.41-3.41-.83 0-1.6.3-2.19.8l-4.45 3.46c-.42.35-.96.56-1.54.56-1.33 0-2.41-1.08-2.41-2.41 0-.32.06-.63.18-.9 8.22-20.3 13.96-41.86 16.86-64.32a3.405 3.405 0 0 1 6.76 0c2.9 22.46 8.64 44.02 16.86 64.32.12.28.18.58.18.9 0 1.33-1.08 2.41-2.41 2.41-.59 0-1.12-.21-1.54-.56l-4.45-3.46c-.59-.5-1.36-.8-2.19-.8-1.88 0-3.41 1.53-3.41 3.41v232.52ZM170.13 301.74h-12.84V69.22c0-1.88-1.53-3.41-3.41-3.41-.83 0-1.6.3-2.19.8l-4.45 3.46c-.42.35-.96.56-1.54.56-1.33 0-2.41-1.08-2.41-2.41 0-.32.06-.63.18-.9 8.22-20.3 13.96-41.86 16.86-64.32a3.405 3.405 0 0 1 6.76 0c2.9 22.46 8.64 44.02 16.86 64.32.12.28.18.58.18.9 0 1.33-1.08 2.41-2.41 2.41-.59 0-1.12-.21-1.54-.56l-4.45-3.46c-.59-.5-1.36-.8-2.19-.8-1.88 0-3.41 1.53-3.41 3.41v232.52ZM106.93 301.74H94.09V69.22c0-1.88-1.53-3.41-3.41-3.41-.83 0-1.6.3-2.19.8l-4.45 3.46c-.42.35-.96.56-1.54.56-1.33 0-2.41-1.08-2.41-2.41 0-.32.06-.63.18-.9C88.49 47.02 94.23 25.46 97.13 3a3.405 3.405 0 0 1 6.76 0c2.9 22.46 8.64 44.02 16.86 64.32.12.28.18.58.18.9 0 1.33-1.08 2.41-2.41 2.41-.59 0-1.12-.21-1.54-.56l-4.45-3.46c-.59-.5-1.36-.8-2.19-.8-1.88 0-3.41 1.53-3.41 3.41v232.52ZM43.74 301.74H30.9V69.22c0-1.88-1.53-3.41-3.41-3.41-.83 0-1.6.3-2.19.8l-4.45 3.46c-.42.35-.96.56-1.54.56-1.33 0-2.41-1.08-2.41-2.41 0-.32.06-.63.18-.9A260.503 260.503 0 0 0 33.93 2.99a3.405 3.405 0 0 1 6.76 0c2.9 22.46 8.64 44.02 16.86 64.32.12.28.18.58.18.9 0 1.33-1.08 2.41-2.41 2.41-.59 0-1.12-.21-1.54-.56l-4.45-3.46c-.59-.5-1.36-.8-2.19-.8-1.88 0-3.41 1.53-3.41 3.41v232.52ZM301.74 345.48v12.84H69.22c-1.88 0-3.41 1.53-3.41 3.41 0 .83.3 1.6.8 2.19l3.46 4.45c.35.42.56.96.56 1.54 0 1.33-1.08 2.41-2.41 2.41-.32 0-.63-.06-.9-.18A259.887 259.887 0 0 0 3 355.28c-1.69-.21-3-1.64-3-3.38s1.31-3.18 2.99-3.38c22.46-2.9 44.02-8.64 64.32-16.86.28-.12.58-.18.9-.18 1.33 0 2.41 1.08 2.41 2.41 0 .59-.21 1.12-.56 1.54l-3.46 4.45c-.5.59-.8 1.36-.8 2.19 0 1.88 1.53 3.41 3.41 3.41h232.52ZM301.74 408.67v12.84H69.22c-1.88 0-3.41 1.53-3.41 3.41 0 .83.3 1.6.8 2.19l3.46 4.45c.35.42.56.96.56 1.54 0 1.33-1.08 2.41-2.41 2.41-.32 0-.63-.06-.9-.18A259.887 259.887 0 0 0 3 418.47a3.406 3.406 0 0 1-.01-6.76c22.46-2.9 44.02-8.64 64.32-16.86.28-.12.58-.18.9-.18 1.33 0 2.41 1.08 2.41 2.41 0 .59-.21 1.12-.56 1.54l-3.46 4.45c-.5.59-.8 1.36-.8 2.19 0 1.88 1.53 3.41 3.41 3.41h232.52ZM301.74 471.87v12.84H69.22c-1.88 0-3.41 1.53-3.41 3.41 0 .83.3 1.6.8 2.19l3.46 4.45c.35.42.56.96.56 1.54 0 1.33-1.08 2.41-2.41 2.41-.32 0-.63-.06-.9-.18A259.887 259.887 0 0 0 3 481.67a3.406 3.406 0 0 1-.01-6.76c22.46-2.9 44.02-8.64 64.32-16.86.28-.12.58-.18.9-.18 1.33 0 2.41 1.08 2.41 2.41 0 .59-.21 1.12-.56 1.54l-3.46 4.45c-.5.59-.8 1.36-.8 2.19 0 1.88 1.53 3.41 3.41 3.41h232.52ZM301.74 535.07v12.84H69.22c-1.88 0-3.41 1.53-3.41 3.41 0 .83.3 1.6.8 2.19l3.46 4.45c.35.42.56.96.56 1.54 0 1.33-1.08 2.41-2.41 2.41-.32 0-.63-.06-.9-.18A259.887 259.887 0 0 0 3 544.87c-1.69-.21-3-1.64-3-3.38s1.31-3.18 2.99-3.38c22.46-2.9 44.02-8.64 64.32-16.86.28-.12.58-.18.9-.18 1.33 0 2.41 1.08 2.41 2.41 0 .59-.21 1.12-.56 1.54l-3.46 4.45c-.5.59-.8 1.36-.8 2.19 0 1.88 1.53 3.41 3.41 3.41h232.52ZM301.74 598.26v12.84H69.22c-1.88 0-3.41 1.53-3.41 3.41 0 .83.3 1.6.8 2.19l3.46 4.45c.35.42.56.96.56 1.54 0 1.33-1.08 2.41-2.41 2.41-.32 0-.63-.06-.9-.18A259.887 259.887 0 0 0 3 608.06a3.406 3.406 0 0 1-.01-6.76c22.46-2.9 44.02-8.64 64.32-16.86.28-.12.58-.18.9-.18 1.33 0 2.41 1.08 2.41 2.41 0 .59-.21 1.12-.56 1.54l-3.46 4.45c-.5.59-.8 1.36-.8 2.19 0 1.88 1.53 3.41 3.41 3.41h232.52ZM345.48 340.26h12.84v232.52c0 1.88 1.53 3.41 3.41 3.41.83 0 1.6-.3 2.19-.8l4.45-3.46c.42-.35.96-.56 1.54-.56 1.33 0 2.41 1.08 2.41 2.41 0 .32-.06.63-.18.9A259.887 259.887 0 0 0 355.28 639a3.405 3.405 0 0 1-6.76 0c-2.9-22.46-8.64-44.02-16.86-64.32a2.26 2.26 0 0 1-.18-.9c0-1.33 1.08-2.41 2.41-2.41.59 0 1.12.21 1.54.56l4.45 3.46c.59.5 1.36.8 2.19.8 1.88 0 3.41-1.53 3.41-3.41V340.26ZM408.67 340.26h12.84v232.52c0 1.88 1.53 3.41 3.41 3.41.83 0 1.6-.3 2.19-.8l4.45-3.46c.42-.35.96-.56 1.54-.56 1.33 0 2.41 1.08 2.41 2.41 0 .32-.06.63-.18.9A259.887 259.887 0 0 0 418.47 639a3.405 3.405 0 0 1-6.76 0c-2.9-22.46-8.64-44.02-16.86-64.32a2.26 2.26 0 0 1-.18-.9c0-1.33 1.08-2.41 2.41-2.41.59 0 1.12.21 1.54.56l4.45 3.46c.59.5 1.36.8 2.19.8 1.88 0 3.41-1.53 3.41-3.41V340.26ZM471.87 340.26h12.84v232.52c0 1.88 1.53 3.41 3.41 3.41.83 0 1.6-.3 2.19-.8l4.45-3.46c.42-.35.96-.56 1.54-.56 1.33 0 2.41 1.08 2.41 2.41 0 .32-.06.63-.18.9A259.887 259.887 0 0 0 481.67 639a3.405 3.405 0 0 1-6.76 0c-2.9-22.46-8.64-44.02-16.86-64.32a2.26 2.26 0 0 1-.18-.9c0-1.33 1.08-2.41 2.41-2.41.59 0 1.12.21 1.54.56l4.45 3.46c.59.5 1.36.8 2.19.8 1.88 0 3.41-1.53 3.41-3.41V340.26ZM535.07 340.26h12.84v232.52c0 1.88 1.53 3.41 3.41 3.41.83 0 1.6-.3 2.19-.8l4.45-3.46c.42-.35.96-.56 1.54-.56 1.33 0 2.41 1.08 2.41 2.41 0 .32-.06.63-.18.9A259.887 259.887 0 0 0 544.87 639a3.405 3.405 0 0 1-6.76 0c-2.9-22.46-8.64-44.02-16.86-64.32a2.26 2.26 0 0 1-.18-.9c0-1.33 1.08-2.41 2.41-2.41.59 0 1.12.21 1.54.56l4.45 3.46c.59.5 1.36.8 2.19.8 1.88 0 3.41-1.53 3.41-3.41V340.26ZM598.26 340.26h12.84v232.52c0 1.88 1.53 3.41 3.41 3.41.83 0 1.6-.3 2.19-.8l4.45-3.46c.42-.35.96-.56 1.54-.56 1.33 0 2.41 1.08 2.41 2.41 0 .32-.06.63-.18.9A259.887 259.887 0 0 0 608.06 639a3.405 3.405 0 0 1-6.76 0c-2.9-22.46-8.64-44.02-16.86-64.32a2.26 2.26 0 0 1-.18-.9c0-1.33 1.08-2.41 2.41-2.41.59 0 1.12.21 1.54.56l4.45 3.46c.59.5 1.36.8 2.19.8 1.88 0 3.41-1.53 3.41-3.41V340.26ZM340.26 296.52v-12.84h232.52c1.88 0 3.41-1.53 3.41-3.41 0-.83-.3-1.6-.8-2.19l-3.46-4.45c-.35-.42-.56-.96-.56-1.54 0-1.33 1.08-2.41 2.41-2.41.32 0 .63.06.9.18 20.3 8.22 41.86 13.96 64.32 16.86a3.405 3.405 0 0 1 0 6.76c-22.46 2.9-44.02 8.64-64.32 16.86-.28.12-.58.18-.9.18-1.33 0-2.41-1.08-2.41-2.41 0-.59.21-1.12.56-1.54l3.46-4.45c.5-.59.8-1.36.8-2.19 0-1.88-1.53-3.41-3.41-3.41H340.26ZM340.26 233.33v-12.84h232.52c1.88 0 3.41-1.53 3.41-3.41 0-.83-.3-1.6-.8-2.19l-3.46-4.45c-.35-.42-.56-.96-.56-1.54 0-1.33 1.08-2.41 2.41-2.41.32 0 .63.06.9.18 20.3 8.22 41.86 13.96 64.32 16.86a3.405 3.405 0 0 1 0 6.76c-22.46 2.9-44.02 8.64-64.32 16.86-.28.12-.58.18-.9.18-1.33 0-2.41-1.08-2.41-2.41 0-.59.21-1.12.56-1.54l3.46-4.45c.5-.59.8-1.36.8-2.19 0-1.88-1.53-3.41-3.41-3.41H340.26ZM340.26 170.13v-12.84h232.52c1.88 0 3.41-1.53 3.41-3.41 0-.83-.3-1.6-.8-2.19l-3.46-4.45c-.35-.42-.56-.96-.56-1.54 0-1.33 1.08-2.41 2.41-2.41.32 0 .63.06.9.18 20.3 8.22 41.86 13.96 64.32 16.86a3.405 3.405 0 0 1 0 6.76c-22.46 2.9-44.02 8.64-64.32 16.86-.28.12-.58.18-.9.18-1.33 0-2.41-1.08-2.41-2.41 0-.59.21-1.12.56-1.54l3.46-4.45c.5-.59.8-1.36.8-2.19 0-1.88-1.53-3.41-3.41-3.41H340.26ZM340.26 106.93V94.09h232.52c1.88 0 3.41-1.53 3.41-3.41 0-.83-.3-1.6-.8-2.19l-3.46-4.45c-.35-.42-.56-.96-.56-1.54 0-1.33 1.08-2.41 2.41-2.41.32 0 .63.06.9.18 20.3 8.22 41.86 13.96 64.32 16.86a3.405 3.405 0 0 1 0 6.76c-22.46 2.9-44.02 8.64-64.32 16.86-.28.12-.58.18-.9.18-1.33 0-2.41-1.08-2.41-2.41 0-.59.21-1.12.56-1.54l3.46-4.45c.5-.59.8-1.36.8-2.19 0-1.88-1.53-3.41-3.41-3.41H340.26ZM340.26 43.74V30.9h232.52c1.88 0 3.41-1.53 3.41-3.41 0-.83-.3-1.6-.8-2.19l-3.46-4.45c-.35-.42-.56-.96-.56-1.54 0-1.33 1.08-2.41 2.41-2.41.32 0 .63.06.9.18 20.3 8.22 41.86 13.96 64.32 16.86a3.405 3.405 0 0 1 0 6.76c-22.46 2.9-44.02 8.64-64.32 16.86-.28.12-.58.18-.9.18-1.33 0-2.41-1.08-2.41-2.41 0-.59.21-1.12.56-1.54l3.46-4.45c.5-.59.8-1.36.8-2.19 0-1.88-1.53-3.41-3.41-3.41H340.26Z"></path></svg>