<svg xmlns="http://www.w3.org/2000/svg" width="642" viewBox="0 0 642 642" height="642" style="overflow:visible;enable-background:new 0 0 642 642" xml:space="preserve"><path class="st0" d="M99.5 321v232.3C38.2 494.9 0 412.4 0 321 0 143.4 144.3 0 321 0c91.4 0 173.9 38.2 232.3 99.5H321C198.5 99.5 99.5 199 99.5 321z"></path><path class="st0" d="M642 321c0 176.9-144.1 321-321 321-70.1 0-134.9-22.5-187.8-60.7v-81c0-19.6 23.3-29.8 37.7-16.5 43.6 40.2 103.3 63.1 168.3 57.9 107.3-8.5 194.1-95.3 202.6-202.6 5.2-65-17.7-124.7-57.9-168.3-13.3-14.4-3.1-37.7 16.5-37.7h81C619.5 186 642 250.9 642 321z"></path></svg>