<svg xmlns="http://www.w3.org/2000/svg" width="597.2" viewBox="0 0 597.2 596.4" height="596.4"><path class="st0" d="M123.2 56.2c-41.1 29-74.3 69-95.9 114.8l63.2 62.7c116.9-114.8 305.5-113.2 420.3 4.2 10.5 11.1 20.5 22.6 29.5 35.3V124.7C444-9.6 257.5-40.2 123.2 56.2z"></path><path class="st0" d="M596.2 273.2H298.6l139 140.1c-43.2 23.2-91.1 34.8-140.1 34.2-77.9 0-152.7-30.5-208-85.3l-62.7 62.7c21.6 45.3 54.8 84.8 95.3 114.3 134.3 97.4 321.8 67.4 418.7-66.9 41.7-57.9 61.2-128.5 55.4-199.1zM9.5 223.2c-12.6 49-12.6 100.6 0 150.1L84.3 298 9.5 223.2zM322.8 248.5c14.2 0 25.3-10.5 25.3-24.8 0-14.2-11.1-25.3-24.8-25.3-14.2 0-25.3 11.1-25.3 25.3.1 13.7 11.2 24.8 24.8 24.8z"></path></svg>