<svg data-name="Layer 1" xmlns="http://www.w3.org/2000/svg" viewBox="0 0 608.67 618.67"><path d="M508.89 198.71v108.12h-5.01V99.77h-94.76v207.06h-5.01V0h-94.77v306.83h-5.01V0H199.55v99.77H99.78v99.78H0v219.57h99.78V311.84h5.01V518.9h94.76V311.84h5.01v306.83h94.77V311.84h5.01v306.83h104.78V518.9h99.77v-99.78h99.78V198.71h-99.78ZM99.78 306.84H5.01V204.56h94.77v102.28Zm99.77-104.78v104.78h-94.77V104.78h94.76v97.27Zm99.78 0v104.78h-94.77V5.01h94.77v197.04Zm104.78 411.61h-94.77V311.84h94.77v301.83Zm99.77-197.04v97.27h-94.76V311.85h94.76v104.78Zm99.78-2.5h-94.77V311.85h94.77v102.28Z"></path></svg>