<svg xmlns="http://www.w3.org/2000/svg" viewBox="0 0 439.77 642"><path d="M439.77 216.29c0-61.8-54.06-110.74-116.92-102.6C328.87 51.74 280.15 0 219.89 0S110.88 51.68 116.93 113.72C53.78 105.54 0 154.77 0 216.28c0 51.62 37.82 94.29 87.24 102.12a149.254 149.254 0 0 0-64.77 41.31V642H417.3V359.71a149.263 149.263 0 0 0-64.69-41.28c50.15-7.98 87.16-51.36 87.16-102.14Zm-103.55-58.61c24.4 0 45.33 14.96 54.12 36.14H282.16c2.74-6.61 6.78-12.72 11.6-17.83.38-.39.78-.77 1.16-1.17 10.61-10.55 25.23-17.15 41.3-17.15Zm36.14 379.5c-18.96-11.56-41.21-18.25-65.03-18.25s-46.02 6.69-64.97 18.25V379.25c17.86-14.29 40.41-22.94 64.97-22.94s47.19 8.57 65.03 22.84v158.03ZM67.41 379.15c17.84-14.27 40.44-22.84 65.03-22.84s47.11 8.65 64.97 22.94v157.93c-18.95-11.56-41.18-18.25-64.97-18.25s-46.07 6.69-65.03 18.25V379.15Zm130.01-119.43v66.63c-16.53-8.02-34.72-13.12-53.99-14.53 23.87-9.98 43.14-28.69 53.99-52.09Zm-64.97 304.15c26.65-.05 50.31 13.09 64.91 33.19H67.48c14.61-20.08 38.27-33.19 64.97-33.19Zm239.85 33.19H242.42c14.6-20.1 38.26-33.24 64.91-33.19 26.7 0 50.36 13.11 64.97 33.19ZM242.36 326.35v-66.52c10.88 23.41 30.24 42.02 54.13 51.98-19.32 1.4-37.56 6.5-54.13 14.54Zm36.08-222.86c0 24.4-14.89 45.33-36.08 54.12V49.43c21.19 8.8 36.08 29.72 36.08 54.06Zm-81.02-54.06v108.18c-21.19-8.8-36.08-29.72-36.08-54.12s14.89-45.26 36.08-54.06Zm-93.89 108.26c16.23 0 30.91 6.65 41.53 17.35.23.24.48.47.72.71 4.99 5.2 9.04 11.31 11.85 18.06H49.43c8.83-21.19 29.74-36.12 54.09-36.12Zm-54.08 81.06h108.16c-8.84 21.18-29.74 36.1-54.08 36.1s-45.25-14.93-54.08-36.1Zm286.77 36.08c-24.33 0-45.2-14.89-54.06-36.08h108.18c-8.86 21.19-29.72 36.08-54.12 36.08Z"></path></svg>