<svg xmlns="http://www.w3.org/2000/svg" width="619.2" viewBox="0 0 619.2 619.2" height="619.2" xml:space="preserve" style="enable-background:new 0 0 619.2 619.2"><path d="M572.1 309.6c29-19.5 47-51.9 47-85.4 0-55.8-46.4-101.1-103.4-101.1-7.2 0-15.8 1.8-22.5 3.3 1.1-5.3 3-15.3 3-23.3 0-57.8-44.4-103-101.2-103-33 0-65.2 18.4-85 48.1C290.1 18.4 257.5 0 224.3 0c-56.9 0-101.6 45.2-101.6 103 0 5.6 1.2 13.3 3.4 23-5.3-1.1-15.1-2.9-23.1-2.9C45.2 123 0 167.4 0 224.2c0 33.4 18.6 66 48.6 86C18.4 330.4.3 361.9.3 395c0 56 46.2 101.6 103 101.6 6.9 0 15.3-1.7 22.6-3.2-2 9.2-3.2 17-3.2 22.7 0 57.8 44.6 103 101.6 103 33.8 0 65.2-17.6 85-47.1 18.9 28.2 53.1 47.1 85.8 47.1 56.8 0 101.2-45.2 101.2-103 0-7.5-1.6-16.6-3-22.7 9.7 2.1 17.4 3.2 23 3.2 56.7 0 103-45.6 103-101.6-.2-33.4-18.2-65.9-47.2-85.4zM292.8 517.2c0 18.2-7.6 36.1-20.6 49.1-8.9 9-24.6 19.7-48.2 19.7-37.9 0-68.8-30.6-68.8-68.3v-.1c0-24.1 11.2-40.4 20.7-49.7 0 0 6.1-6.1 8-8.1 3.6 1.4 8.2 2.7 14.6 2.7 22.9 0 41.5-18.9 41.6-42 0-11.1-4-21.1-11.6-28.8-7.8-7.9-19.1-12.5-30.1-12.6-10.6 0-22.2 4.8-30 12.7-7.6 7.6-11.7 17.7-11.7 29.1v.1c0 6.3 1.8 11.5 2.8 14.2-1.5 1.4-8.1 8.3-8.1 8.3-4.6 4.9-22 21-49.3 21-18.3 0-35.4-7-48.2-19.8-13-13-20.6-30.9-20.6-48.9-.1-18.4 7.1-35.7 20.1-48.8 13-13.1 30.3-20.5 48.8-20.5h159.7c19.7 0 30.8 17.9 30.9 30.3v160.4zm0-255.5c0 19.8-17.5 30.6-29.8 30.6H102.7c-18.2 0-36.1-7.4-49.2-20.3-9-8.9-19.7-24.6-19.7-48.2 0-18.2 7.3-36.1 20.2-49C66.7 162 83.8 155 102 155c24.2 0 40.4 11.3 49.8 20.7 0 0 6.1 6 8.1 8-1.4 3.6-2.7 8.2-2.7 14.6 0 22.9 18.8 41.5 41.9 41.7 11.2 0 21.1-4 28.9-11.7 7.9-7.8 12.6-19.1 12.6-30.1 0-10.6-4.9-22.1-12.6-30-7.7-7.6-17.7-11.7-29.2-11.7-6.2 0-11.4 1.8-14.2 2.8-1.4-1.4-8.2-8-8.2-8h-.1c-4.9-4.6-21-22.1-21.1-49.4v-.2c0-42.3 35.6-68.6 68.6-68.7 18.4 0 35.7 7.1 48.7 20.1 13 13 20.1 30.3 20.2 48.9l.1 159.7zm33.9-159.8c0-18.1 7.1-36.1 20.2-49.2 8.9-9 24.6-19.7 48.2-19.7 18.2 0 36.2 7.4 49 20.3 12.8 12.7 19.8 29.8 19.8 48v.1c0 24.2-11.2 40.4-20.7 49.8l-8 8c-3.6-1.3-8.3-2.7-14.7-2.7-22.8 0-41.4 18.9-41.6 42 0 11.2 4 21.1 11.7 28.8 7.8 7.9 19 12.6 30.1 12.7 10.6 0 22.1-4.9 29.9-12.7 7.6-7.6 11.7-17.6 11.7-29 0-6.2-1.8-11.5-2.7-14.2 1.3-1.4 8-8.3 8-8.3 4.7-5 22-21.1 49.3-21.1 42.4-.1 68.8 35.6 68.9 68.7 0 18.4-7.1 35.7-20.2 48.8-13 13-30.3 20.3-48.8 20.3H357.2c-19.7 0-30.5-17.8-30.5-30.2V101.9zm191.4 362c-24.3 0-40.5-11.3-49.8-20.7 0-.1-6.1-6.1-8-8 1.3-3.6 2.6-8.2 2.6-14.7 0-22.8-18.8-41.5-42-41.6-11.1-.1-21 4-28.7 11.6-7.8 7.9-12.6 19.1-12.6 30.1 0 10.7 4.9 22.1 12.7 30 7.6 7.7 17.7 11.6 29.1 11.6 6.2 0 11.5-1.7 14.2-2.7 1.4 1.3 8.3 8 8.3 8 5 4.7 21 22 21.1 49.4 0 42.5-35.7 68.8-68.7 68.8-18.3.1-35.7-7.1-48.8-20.1-13-13-20.6-30.3-20.6-48.9V357.1c0-19.8 18.2-30.6 30.5-30.6h160.2c33.1 0 68.8 26 68.9 68.5-.1 37.8-30.7 68.8-68.4 68.9z"></path></svg>