<svg id="Layer_1" data-name="Layer 1" xmlns="http://www.w3.org/2000/svg" viewBox="0 0 613.3 594.85">   <path d="M163.53,591.71c8.64,2,17.58,3.13,26.76,3.13s19.02-1.16,28.32-3.44c46.9-11.54,80.33-49.77,88.18-94.54,.47,2.67,.91,5.35,1.56,8.01,13.03,52.98,60.19,89.98,114.67,89.98,8.97,0,17.96-1.07,26.76-3.11l-143.13-197.02-143.12,197Z"></path>   <path d="M523.33,369.81c63.28-15.57,102.09-79.71,86.53-142.99-13.03-52.98-60.19-89.98-114.67-89.98-9.49,0-19.02,1.16-28.32,3.44-21.26,5.23-39.74,15.96-54.34,30.28,7.85-15.8,12.29-33.59,12.29-52.4C424.83,53.02,371.81,0,306.65,0s-118.18,53.02-118.18,118.18c0,18.75,4.41,36.49,12.22,52.25-21.47-20.96-50.66-33.58-82.41-33.58-9.49,0-19.02,1.16-28.32,3.44C26.69,155.86-12.13,220,3.43,283.28c13.03,52.98,60.18,89.98,114.66,89.98,5.97,0,11.95-.51,17.88-1.42-19.12,9.88-35.28,24.75-46.7,43.62-16.34,27.01-21.19,58.76-13.65,89.41,2.88,11.72,7.52,22.6,13.46,32.54l171.64-236.26-142.47-.11c-20.73,.04-39.58-13.97-44.75-34.99-6.07-24.68,9.02-49.62,33.7-55.69,3.71-.91,7.41-1.29,11.06-1.29H495.11c20.7-.01,39.52,13.99,44.69,34.99,6.07,24.68-9.02,49.62-33.7,55.69-3.68,.91-7.37,1.29-11,1.29l-142.51,.12,171.72,236.38c15.55-25.84,21.31-57.59,13.55-89.12-8.33-33.88-30.65-61.16-59.89-76.47,5.58,.81,11.26,1.31,17.04,1.31,9.49,0,19.02-1.16,28.32-3.45Zm-216.68-205.61c-25.42,0-46.03-20.61-46.03-46.03s20.61-46.03,46.03-46.03,46.03,20.61,46.03,46.03-20.61,46.03-46.03,46.03Z"></path> </svg>