<svg xmlns="http://www.w3.org/2000/svg" width="589" viewBox="0 0 589 589" height="589"><path d="M200.7 199.3c-8.3 5.6-15.7 12.3-22.2 19.9-16.1 19-25.8 43.5-25.8 70.3 0 27.2 10 52.1 26.6 71.2 3.2 3.7 6.6 7.1 10.2 10.4 4.5 3.9 9.3 7.5 14.3 10.7 3.8 2.2 34.7 18.3 79.2 14.8-12.9 0-25.4-3-36.8-7.3-14.8-5.5-28-16.3-38.7-27.5-5.5-5.7-10.3-12.1-14.4-18.9-9.3-15.6-14.7-33.9-14.7-53.4 0-19.1 5.2-37.1 14.2-52.5 6.1-10.5 14-19.8 23.2-27.6 18.2-15.3 41.6-24.5 67.2-24.5 3.8 0 7.9.3 11.6.7-10.3-3.2-21.5-5.1-32.9-5.1-22.6.1-43.6 7-61 18.8z"></path><path d="M373.3 209.5c9.2 7.8 17.1 17.1 23.2 27.6 9 15.4 14.2 33.4 14.2 52.5 0 19.5-5.4 37.8-14.7 53.4-4.1 6.9-8.9 13.2-14.4 18.9-10.7 11.2-23.9 21.9-38.7 27.5-11.4 4.3-23.9 7.3-36.8 7.3 44.4 3.5 75.4-12.7 79.2-14.8 5.1-3.2 9.9-6.7 14.3-10.7 3.6-3.2 7.1-6.7 10.2-10.4 16.5-19.1 26.6-44 26.6-71.2 0-26.8-9.7-51.3-25.8-70.3-6.4-7.6-13.9-14.3-22.2-19.9-17.4-11.8-38.4-18.7-61-18.7-11.3 0-22.6 1.8-32.9 5.1 3.7-.4 7.7-.7 11.6-.7 25.6-.1 49 9.1 67.2 24.4zM60.7 282.7c0 52.4 42.4 94.8 94.8 94.8.8 0 1.7 0 2.5-.1-36.9-20.1-61.9-59.2-61.9-104.2 0-31.6 12.4-60.2 32.5-81.5-39.3 11.7-67.9 48-67.9 91z"></path><path d="M294.5 0C131.9 0 0 131.9 0 294.5 0 455.9 129.7 586.9 290.6 589V458.6c0-50.1-38.7-56.1-38.7-56.1S193.4 390 188.7 389h-.1-.1c-10.7-2.4-20.9-6.3-30.3-11.4-15.2 9-32.9 14.2-51.8 14.2-56 0-101.3-45.4-101.3-101.3 0-56 45.4-101.3 101.3-101.3 7.7 0 15.1.9 22.3 2.5 21.6-22.7 52.1-36.9 85.9-36.9 30.8 0 58.8 11.7 79.9 30.9l.1.1c-23.2 15.6-40.8 38.8-49.4 66-3.8 11.9-5.8 24.6-5.8 37.8 0 10.3 1.3 20.3 3.6 29.9 5.3 21.5 16.1 42.8 30.9 58.4 6.2 6.5 13.2 12.4 20.7 17.5-5.1-6.9-9.7-14.3-13.7-21.9-13-24.5-20.4-54.3-20.4-83.9 0-38.9 12.7-74.7 34.1-103.8 21.4 29 34.1 64.9 34.1 103.8 0 29.6-7.4 59.5-20.4 83.9-4 7.6-8.6 15-13.7 21.9 7.5-5.1 14.4-11 20.7-17.5 14.8-15.6 25.7-36.8 30.9-58.4 2.3-9.6 3.6-19.6 3.6-29.9 0-13.2-2-25.9-5.8-37.8-8.6-27.2-26.2-50.4-49.4-66l.1-.1c21.1-19.2 49.1-30.9 79.9-30.9 33.8 0 64.3 14.2 85.9 36.9 7.2-1.6 14.6-2.5 22.3-2.5 56 0 101.3 45.4 101.3 101.3 0 56-45.4 101.3-101.3 101.3-18.9 0-36.6-5.2-51.8-14.2-9.4 5.1-19.5 8.9-30.3 11.4h-.1-.1c-4.7 1-63.2 13.5-63.2 13.5s-38.7 6-38.7 56.1V589C459.3 586.9 589 455.9 589 294.5 589 131.9 457.2 0 294.5 0z"></path><path d="M431 377.4c.8 0 1.7.1 2.5.1 52.4 0 94.8-42.4 94.8-94.8 0-43-28.6-79.3-67.8-90.9 20.1 21.2 32.5 49.9 32.5 81.5 0 44.9-25.1 84-62 104.1z"></path></svg>