<svg data-name="Layer 1" xmlns="http://www.w3.org/2000/svg" viewBox="0 0 606.07 630.95"><path d="m389.06 0-86.03 68.28L217.01 0 0 172.17v286.61l217.01 172.17 86.03-68.28 86.03 68.28 217.01-172.17V172.17L389.06 0ZM217.01 516.73 89.51 415.56V215.44l127.5-101.17 14.04 11.14-58.94 46.75v286.62l58.94 46.75-14.04 11.14v.06Zm299.55-101.17-127.5 101.17-14.04-11.14 58.94-46.75V345.2h-89.51v70.42l-41.48 32.89-41.48-32.89V215.5l41.48-32.89 41.48 32.89v68.39h89.51V172.22l-58.94-46.75 14.04-11.14 127.5 101.17v200.07Z"></path></svg>