<svg data-name="Layer 1" xmlns="http://www.w3.org/2000/svg" viewBox="0 0 593.44 615.67"><path d="M208.59 203.28 0 412.39v203.28h62.75V412.39l208.6-209.11h-62.76z"></path><path d="M314.43 203.28 105.84 412.39v203.28h62.75V412.39l208.59-209.11h-62.75zM168.59 0h-62.75v266.26l62.75-62.88V0zM62.76 0H0v372.31l62.76-62.88V0zM530.69 0v203.28l-208.6 209.11h62.76l208.59-209.11V0h-62.75z"></path><path d="M487.6 0h-62.75v203.28L216.26 412.39h62.75L487.6 203.28V0zM424.85 615.67h62.75V349.41l-62.75 62.88v203.38zM530.69 615.67h62.75V243.36l-62.75 62.88v309.43z"></path></svg>