<svg data-name="Layer 1" xmlns="http://www.w3.org/2000/svg" viewBox="0 0 610.23 465.68"><path d="M364.7 308.01v-66.95c0-28.6-20.76-54.27-49.22-57.15-32.66-3.3-60.47 22.54-60.47 54.56v69.54c0 27.81-22.55 50.36-50.36 50.36H0v107.31h610.23V358.37H415.06c-27.81 0-50.36-22.55-50.36-50.36Z"></path><path d="M526.83 166.88C501.13 70.95 413.68 0 309.75 0S118.37 70.95 92.67 166.88H0v107.3h153.63c25.04 0 45.33-20.3 45.33-45.33 0-55.65 39.34-105.59 94.43-113.51 68.33-9.83 127.16 43.14 127.16 109.61 0 27.19 22.04 49.24 49.24 49.24h140.45v-107.3h-83.39Z"></path></svg>