<svg xmlns="http://www.w3.org/2000/svg" width="447" viewBox="0 0 447 589.7" height="589.7" xml:space="preserve"><path d="m218.4 325.5.4.2c22.6 8.6 47 17.9 72 23.8V0H156.2v301.6c14.1 4.1 27.5 9.7 40.7 15.2 7 2.9 14.3 5.9 21.5 8.7z"></path><path d="M407.9 358.3c-20 11.3-42.9 17.1-67.9 17.4h-1.6c-44.6 0-90-17.3-126.6-31.3l-.4-.2c-7.6-2.9-15-6-22.1-9-28-11.7-54.5-22.7-85.5-19.6-39.7 4-90.4 31.4-98.2 74.4-1.7 9.5-1.3 19.8.8 28.6 7.2 29.8 20.3 57.2 38 81 1.4-2.1 2.9-4.2 4.6-6.2 16.9-21 41.6-33.3 73.3-36.6 36.9-3.8 69.5 11.3 100.9 25.8 10 4.6 19.4 9 29 12.8 31.7 12.6 69.2 15.4 102.9 7.8 32.7-7.4 58.5-24.3 73.6-47.8 11.9-27.3 18.6-57.5 18.6-89.3v-40.5c-12.1 13.7-25.2 24.7-39.4 32.7z"></path><path d="M310.8 0v353.4c9.7 1.5 19.4 2.3 29 2.2 37.8-.4 68.6-15 93.5-44.7 8.9-10.5 13.7-23.9 13.7-37.7V0H310.8zM244.6 514.1c-10.1-4-20.2-8.7-30-13.2-30.4-14-59.1-27.3-90.5-24.1-26.2 2.7-46.3 12.5-59.7 29.2l-.1.1c-4.3 5.3-3.8 13.1 1 17.9 40.5 40.5 96.4 65.6 158.2 65.6 68.3 0 129.4-30.6 170.4-78.9-10.6 5.1-22.2 9.2-34.6 12-37.5 8.6-79.3 5.4-114.7-8.6zM101.7 295.8c12.1-1.2 23.6-.6 34.5 1.2V0H0v359c24.8-37.2 59.8-59 101.7-63.2z"></path></svg>