<svg xmlns="http://www.w3.org/2000/svg" viewBox="0 0 642 544.58"><path d="m642 370.19-.29-113.39H461.54v28.89h151.28v55.61h-52.67v117.17h52.96v57.22H446.19v-57.22h52.97V341.3h-52.97V117.16h52.97V0H277.67v117.16h52.96v55.62H168.52v-55.62h52.97V0H0v117.16h52.97V341.3H0v117.17h221.49V341.3h-52.97v-55.61h162.11v55.61h-52.96v117.17h52.96v57.22H168.52v-42.33h-28.88v71.22h219.88v-115h-52.96v-59.39h52.96V256.8H139.64v113.39h52.96v59.39H28.89v-59.39h52.96V88.27H28.89V28.89H192.6v59.38h-52.96v113.4h219.88V88.27h-52.96V28.89h163.7v59.38H417.3v281.92h52.96v59.39H417.3v115H642v-115h-52.97v-59.39H642z"></path></svg>