<svg xmlns="http://www.w3.org/2000/svg" width="554.4" viewBox="0 0 554.4 554.4" height="554.4"><path d="M554.4 166.8V0H387.7v129.2H296V0H0v554.4h554.4v-296H425.2v-91.7h129.2zM425.2 37.6h91.7v91.7h-91.7V37.6zm-258.4 0h91.7v91.7h-91.7V37.6zm220.9 350.1H296V296h91.7v91.7zM166.8 296h91.7v91.7h-91.7V296zm91.6-37.6h-91.7v-91.7h91.7v91.7zM37.6 37.6h91.7v91.7H37.6V37.6zm0 129.2h91.7v91.7H37.6v-91.7zm0 129.2h91.7v91.7H37.6V296zm91.6 220.9H37.6v-91.7h91.7v91.7zm129.2 0h-91.7v-91.7h91.7v91.7zm129.3 0H296v-91.7h91.7v91.7zm129.2 0h-91.7v-91.7h91.7v91.7zm0-220.9v91.7h-91.7V296h91.7zm-129.2-37.6H296v-91.7h91.7v91.7z"></path></svg>