<svg xmlns="http://www.w3.org/2000/svg" width="615.6" viewBox="0 0 615.6 549.1" height="549.1" xml:space="preserve" style="enable-background:new 0 0 615.6 549.1"><path d="M451.3.5c18.1 19.6 34 40.7 47.4 63.2 13.7-8.4 27-17.7 39.6-27.9C513.6 17 483.8 4.4 451.3.5zM234 360.8c23.9-5.9 48.6-9 73.8-9 25.2 0 50 3.1 73.8 9 6.2-32 9.7-64.6 10.5-97.6H223.5c.8 33 4.3 65.6 10.5 97.6zM381.6 137.6c-24.1 4.5-48.7 6.8-73.8 6.8-25 0-49.7-2.3-73.8-6.8-6.3 32.1-9.8 64.8-10.6 97.9h168.7c-.7-33.1-4.2-65.8-10.5-97.9zM419.8 235.6h103.8c-2.9-47.2-15.1-92.7-35.7-134.2-25.2 12.9-51.8 23-79.3 30.2 6.6 34 10.4 68.8 11.2 104zM408.2 368.8c28.7 10 55.7 24.4 80.4 42.7 22.5-45.9 34.7-96.8 35.6-148.3H419.8c-.8 35.7-4.7 71-11.6 105.6zM103.6 87.9C87.2 78 71.4 66.8 56.4 54.4c-12.3 12.7-22.6 27.1-30.8 43 0 0-36 56.8-22.7 138.2h61.4c3-52.1 16.4-102.1 39.3-147.7zM375.7 387.9c-21.7-5.5-44.5-8.5-67.9-8.5-23.4 0-46.1 2.9-67.9 8.5 7.3 29.6 16.9 58.7 28.9 87 10.8 25.6 23.4 50.2 37.6 73.8.9.3 1.3.5 1.3.5s.5-.2 1.3-.5c14.2-23.6 26.8-48.2 37.6-73.8 12.2-28.4 21.8-57.4 29.1-87zM559.3 54.4c-15 12.4-30.8 23.6-47.2 33.5 22.9 45.6 36.3 95.6 39.2 147.7h61.4C626 154.2 590 97.4 590 97.4c-8.1-15.9-18.5-30.3-30.7-43zM372.2 13.1c12.6 29.8 22.7 60.3 30.4 91.5 24.9-6.6 49.1-15.8 72-27.5-14.6-24.3-32.3-47-52.9-67.6-3.2-3.2-6.5-6.4-9.9-9.5-14.3 1.4-28.2 4.5-41.3 9 .6 1.4 1.2 2.7 1.7 4.1zM243.4 485.6c-12.4-29.2-22.3-59.1-29.9-89.6-28.4 10.4-54.6 25.3-77.8 43.8 48.7 43.7 95.7 72.3 128.2 89.2-7.4-14.1-14.2-28.6-20.5-43.4zM89.1 393.6c-16-41.4-24.6-85.7-25.3-130.4H9.3c8.7 29.7 24.3 61.9 50.3 95.3 9.6 12.4 19.5 24.1 29.5 35.1zM402.1 396c-7.6 30.5-17.5 60.4-29.9 89.6-6.3 14.8-13.1 29.3-20.4 43.4 32.5-16.9 79.4-45.5 128.2-89.2-23.2-18.5-49.5-33.4-77.9-43.8zM606.4 263.2h-54.5c-.7 44.7-9.4 89-25.3 130.4 10-11 19.9-22.7 29.6-35.2 25.9-33.3 41.5-65.5 50.2-95.2zM195.9 235.6c.8-35.2 4.5-69.9 11.2-104-27.5-7.2-54.1-17.3-79.3-30.2-20.7 41.5-32.9 87-35.7 134.2h103.8zM195.9 263.2H91.4c.9 51.5 13.1 102.3 35.6 148.3 24.6-18.3 51.7-32.7 80.4-42.7-6.9-34.6-10.7-69.9-11.5-105.6zM141.1 77.1c22.9 11.7 47.1 20.9 72 27.5 7.6-31.1 17.8-61.7 30.4-91.5.6-1.4 1.2-2.7 1.8-4.1-13.1-4.5-27-7.6-41.3-9-3.3 3.1-6.6 6.3-9.9 9.5-20.7 20.6-38.4 43.3-53 67.6zM77.3 35.8C90 46 103.2 55.3 116.9 63.7c13.4-22.4 29.3-43.6 47.4-63.2-32.4 3.9-62.2 16.5-87 35.3zM240 110.6c22.1 4.1 44.8 6.2 67.8 6.2s45.7-2.1 67.8-6.2c-7.3-29.5-16.9-58.5-28.8-86.8-.5-1.3-1.1-2.5-1.7-3.8-13.6 7.2-26.1 16-37.3 26.3C296.6 36 284 27.2 270.5 20c-.6 1.3-1.1 2.5-1.7 3.8-11.9 28.3-21.5 57.3-28.8 86.8z"></path></svg>