<svg xmlns="http://www.w3.org/2000/svg" width="554.8" viewBox="0 0 554.8 617.7" height="617.7" xml:space="preserve"><path d="M351.7 185.7c10-14.9 15.2-32.2 15.2-50.2 0-49.9-40.6-90.4-90.5-90.4S186 85.7 186 135.5c0 18 5.3 35.2 15.2 50.2h-50.7c-6.4-16-9.6-32.9-9.6-50.2C140.9 60.8 201.7 0 276.5 0 351.2 0 412 60.8 412 135.6c0 17.3-3.2 34.1-9.6 50.2h-50.7zM419.2 198.2h-72.6l47.2 45.1h25.4c49.9 0 90.4 40.6 90.4 90.4 0 49.9-40.6 90.4-90.4 90.4-49.9 0-90.4-40.6-90.4-90.4v-46.9l-45.1-45.1v275.9h45.1v-83l2 1.7c24.6 21.2 56 32.9 88.4 32.9 74.8 0 135.6-60.8 135.6-135.6s-60.9-135.4-135.6-135.4zM226 286.9v46.9c0 49.9-40.6 90.4-90.4 90.4-49.9 0-90.4-40.6-90.4-90.4 0-49.9 40.6-90.4 90.4-90.4h24.7l44.7-45.1h-69.4C60.8 198.2 0 259 0 333.8s60.8 135.6 135.6 135.6c32.4 0 63.8-11.7 88.4-32.9l2-1.8v47.4c0 49.5-39.9 89.8-89.2 90.4v45.1c74.2-.7 134.3-61.2 134.3-135.6V241.8L226 286.9z"></path></svg>