<svg xmlns="http://www.w3.org/2000/svg" width="619.2" viewBox="0 0 619.2 407.7" height="407.7" style="enable-background:new 0 0 619.2 407.7" xml:space="preserve"><path d="M203.9 0C91.3 0 0 91.3 0 203.9c0 112.6 91.3 203.9 203.9 203.9h55l-2.7-143h-52.3c-33.6 0-60.9-27.3-60.9-60.9 0-33.6 27.3-60.9 60.9-60.9s60.9 27.3 60.9 60.9v59.8c0 79.5 63.4 144 143 144V203.8C407.7 91.3 316.4 0 203.9 0zM415.3 203.9v203.9c79.5 0 143-64.5 143-144V204c0-33.6 27.3-60.9 60.9-60.9V0C506.6 0 415.3 91.3 415.3 203.9z"></path></svg>