<svg xmlns="http://www.w3.org/2000/svg" width="608.4" viewBox="0 0 608.4 608.4" height="608.4"><path d="M275.7 104.7V204c0 15.7 12.8 28.5 28.5 28.5s28.5-12.8 28.5-28.5v-99.3l55.9-55.9c5.7-5.7 5.7-14.9 0-20.5-5.7-5.7-14.9-5.7-20.5 0l-63.9 63.9-63.9-63.9c-5.7-5.7-14.9-5.7-20.5 0-5.7 5.7-5.7 14.9 0 20.5l55.9 55.9z"></path><path d="M304.2 62.1c17.2 0 31.1-13.9 31.1-31.1 0-17.2-13.9-31.1-31.1-31.1-17.2 0-31.1 13.9-31.1 31.1.1 17.2 14 31.1 31.1 31.1zM354.9 253.5c11.1 11.1 29.3 11.1 40.4 0l70.2-70.2h79.1c8 0 14.5-6.5 14.5-14.5s-6.5-14.5-14.5-14.5h-90.4V63.8c0-8-6.5-14.5-14.5-14.5s-14.5 6.5-14.5 14.5v79.1L355 213.1c-11.1 11.1-11.1 29.3-.1 40.4z"></path><circle cx="497.4" cy="111.1" r="31.1"></circle><path d="M516.3 304.2l63.9-63.9c5.7-5.7 5.7-14.9 0-20.5-5.7-5.7-14.9-5.7-20.5 0l-55.9 55.9h-99.3c-15.7 0-28.5 12.8-28.5 28.5s12.8 28.5 28.5 28.5h99.3l55.9 55.9c5.7 5.7 14.9 5.7 20.5 0 5.7-5.7 5.7-14.9 0-20.5l-63.9-63.9zM544.6 425.1h-79.1l-70.2-70.2c-11.1-11.1-29.3-11.1-40.4 0-11.1 11.1-11.1 29.3 0 40.4l70.2 70.2v79.1c0 8 6.5 14.5 14.5 14.5s14.5-6.5 14.5-14.5v-90.4h90.4c8 0 14.5-6.5 14.5-14.5.1-8.1-6.4-14.6-14.4-14.6z"></path><path d="M475.4 475.4c-12.1 12.1-12.1 31.8 0 43.9 12.1 12.1 31.8 12.1 43.9 0 12.1-12.1 12.1-31.8 0-43.9-12.1-12.1-31.8-12.1-43.9 0zM332.8 503.8v-99.3c0-15.7-12.8-28.5-28.5-28.5s-28.5 12.8-28.5 28.5v99.3l-55.9 55.9c-5.7 5.7-5.7 14.9 0 20.5 5.7 5.7 14.9 5.7 20.5 0l63.9-63.9 63.9 63.9c5.7 5.7 14.9 5.7 20.5 0 5.7-5.7 5.7-14.9 0-20.5l-55.9-55.9z"></path><path d="M304.2 546.3c-17.2 0-31.1 13.9-31.1 31.1 0 17.2 13.9 31.1 31.1 31.1 17.2 0 31.1-13.9 31.1-31.1 0-17.2-13.9-31.1-31.1-31.1zM253.5 355c-11.1-11.1-29.3-11.1-40.4 0l-70.2 70.2H63.8c-8 0-14.5 6.5-14.5 14.5s6.5 14.5 14.5 14.5h90.4v90.4c0 8 6.5 14.5 14.5 14.5s14.5-6.5 14.5-14.5v-79.1l70.2-70.2c11.2-11.1 11.2-29.3.1-40.3z"></path><path d="M89.1 475.4c-12.1 12.1-12.1 31.8 0 43.9 12.1 12.1 31.8 12.1 43.9 0 12.1-12.1 12.1-31.8 0-43.9-12.1-12.1-31.8-12.1-43.9 0zM203.9 332.8c15.7 0 28.5-12.8 28.5-28.5s-12.8-28.5-28.5-28.5h-99.3l-55.9-55.9c-5.7-5.7-14.9-5.7-20.5 0-5.7 5.7-5.7 14.9 0 20.5l63.9 63.9-63.9 63.9c-5.7 5.7-5.7 14.9 0 20.5 5.7 5.7 14.9 5.7 20.5 0l55.9-55.9h99.3z"></path><path d="M62.1 304.2c0-17.2-13.9-31.1-31.1-31.1-17.1.1-31 14-31 31.1 0 17.2 13.9 31.1 31.1 31.1 17.1 0 31-13.9 31-31.1zM577.4 273.2c-17.2 0-31.1 13.9-31.1 31.1 0 17.2 13.9 31.1 31.1 31.1 17.2 0 31.1-13.9 31.1-31.1-.1-17.2-14-31.1-31.1-31.1zM63.8 183.3h79.1l70.2 70.2c11.1 11.1 29.3 11.1 40.4 0 11.1-11.1 11.1-29.3 0-40.4l-70.2-70.2V63.8c0-8-6.5-14.5-14.5-14.5s-14.5 6.5-14.5 14.5v90.4H63.9c-8 0-14.5 6.5-14.5 14.5-.1 8.1 6.4 14.6 14.4 14.6z"></path><path d="M133 133c12.1-12.1 12.1-31.8 0-43.9-12.1-12.1-31.8-12.1-43.9 0-12.1 12.1-12.1 31.8 0 43.9 12.1 12.2 31.8 12.2 43.9 0z"></path></svg>