<svg xmlns="http://www.w3.org/2000/svg" width="642" viewBox="0 0 642 642" height="642" style="overflow:visible;enable-background:new 0 0 642 642" xml:space="preserve"><path class="st0" d="M464.6 321c0 79.3-64.3 143.6-143.6 143.6S177.4 400.3 177.4 321 241.7 177.4 321 177.4 464.6 241.7 464.6 321zM321 258.4c-34.6 0-62.6 28-62.6 62.6s28 62.6 62.6 62.6 62.6-28 62.6-62.6-28-62.6-62.6-62.6z"></path><path class="st0" d="M317.8 0v166.9c-138.5 1.8-217.6 116.5-230 150.9H0c0-54.1 96-194.2 256.8-225v-6.1H0V0h317.8zM642 317.8H475.1c-1.8-138.5-116.5-217.6-150.9-230V0c54.1 0 194.2 96 225 256.8h6.1V0H642v317.8zM0 324.2h166.9c1.8 138.5 116.5 217.6 150.9 230V642c-54.1 0-194.2-96-225-256.8h-6.1V642H0V324.2zM324.2 642V475.1c138.5-1.8 217.6-116.5 230-150.9H642c0 54.1-96 194.2-256.8 225v6.1H642V642H324.2z"></path></svg>