<svg xmlns="http://www.w3.org/2000/svg" width="642" viewBox="0 0 642 639.95" height="639.95" data-name="Layer 1"><path d="M545.38 550.45c.26-5.84.32-11.68.32-17.59 0-169.1-74.73-320.74-192.99-423.72-2.89-2.5-7.51-.71-7.96 3.15l-60.09 527.66c-5.78-.64-11.56-1.48-17.27-2.44 12.01-53.29 18.3-108.75 18.3-165.64 0-53.86-5.65-106.38-16.37-157.03-.9-4.3-6.74-5.2-8.92-1.35L114.67 566.82C44.55 507.95 0 419.68 0 321 0 143.74 143.74 0 321 0s321 143.74 321 321c0 89.94-36.98 171.22-96.62 229.45Z"></path></svg>