<svg data-name="Layer 1" xmlns="http://www.w3.org/2000/svg" viewBox="0 0 496.85 614.24"><path d="m357.96 435.65-89.25 84.69v93.9l9.19-.22.1-89.82 86.29-81.89-6.33-6.66zM194.92 115.45c-8.23-11.09-13.16-24.76-13.16-39.6 0-36.76 29.9-66.66 66.66-66.66s66.66 29.9 66.66 66.66c0 14.84-4.93 28.51-13.16 39.6l9.42 2.72a75.44 75.44 0 0 0 12.93-42.32C324.28 34.03 290.25 0 248.42 0s-75.85 34.03-75.85 75.85a75.44 75.44 0 0 0 12.93 42.32l9.42-2.72ZM257.45 209.91c0 11.11 2.24 21.7 6.29 31.35l8.9-2.64c-3.84-8.81-6-18.51-6-28.72 0-39.78 32.36-72.14 72.14-72.14s72.13 32.36 72.13 72.14c0 4.92-.5 9.72-1.44 14.36l9.1 1.35c1-5.09 1.54-10.34 1.54-15.71 0-44.85-36.48-81.33-81.33-81.33s-81.33 36.48-81.33 81.33ZM415.52 239.98c-44.84 0-81.33 36.48-81.33 81.33 0 6.35.75 12.51 2.14 18.44l9.08-1.77c-1.28-5.36-2.02-10.93-2.02-16.67 0-39.78 32.36-72.14 72.13-72.14s72.14 32.36 72.14 72.14c0 24.07-11.9 45.38-30.08 58.49l5.18 7.65c20.62-14.77 34.09-38.9 34.09-66.14 0-44.85-36.48-81.33-81.33-81.33ZM283.14 383.59l5.5 7.4c21.37-13.43 35.64-37.15 35.64-64.2 0-41.82-34.03-75.85-75.86-75.85s-75.85 34.03-75.85 75.85c0 27.44 14.69 51.45 36.58 64.77l5.5-7.4c-19.64-11.61-32.88-32.95-32.88-57.37 0-36.75 29.9-66.66 66.66-66.66s66.66 29.9 66.66 66.66c0 24.03-12.82 45.07-31.95 56.8Z"></path><path d="M373.62 350.07c-41.83 0-75.86 34.03-75.86 75.85 0 4.84.5 9.56 1.37 14.15l9.01-1.8c-.75-4.01-1.19-8.13-1.19-12.35 0-36.76 29.9-66.66 66.66-66.66s66.66 29.9 66.66 66.66-29.9 66.66-66.66 66.66c-6.33 0-12.44-.94-18.25-2.6l-2.93 8.73c6.73 1.96 13.82 3.07 21.18 3.07 41.83 0 75.85-34.03 75.85-75.85s-34.03-75.85-75.85-75.85ZM243.83 357.09v257.04h9.19V357.09h-9.19zM132.56 442.31l86.28 81.89.1 89.82 9.19.22v-93.9l-89.24-84.69-6.33 6.66zM87.37 224.27a72.25 72.25 0 0 1-1.44-14.36c0-39.78 32.36-72.14 72.13-72.14s72.14 32.36 72.14 72.14c0 10.21-2.16 19.91-6 28.72l8.9 2.64a80.853 80.853 0 0 0 6.29-31.35c0-44.85-36.48-81.33-81.33-81.33s-81.33 36.48-81.33 81.33c0 5.38.54 10.63 1.54 15.71l9.1-1.35ZM9.19 321.31c0-39.78 32.36-72.14 72.14-72.14s72.13 32.36 72.13 72.14c0 5.75-.75 11.31-2.02 16.67l9.08 1.77c1.38-5.93 2.14-12.1 2.14-18.44 0-44.85-36.48-81.33-81.33-81.33S0 276.46 0 321.31c0 27.24 13.47 51.37 34.09 66.14l5.18-7.65c-18.18-13.11-30.08-34.41-30.08-58.49Z"></path><path d="M123.23 492.58c-36.76 0-66.66-29.9-66.66-66.66s29.9-66.66 66.66-66.66 66.66 29.9 66.66 66.66c0 4.22-.44 8.34-1.19 12.35l9.01 1.8c.87-4.59 1.37-9.31 1.37-14.15 0-41.83-34.03-75.85-75.86-75.85s-75.85 34.03-75.85 75.85 34.03 75.85 75.85 75.85c7.35 0 14.45-1.1 21.18-3.07l-2.93-8.73c-5.81 1.66-11.92 2.6-18.25 2.6Z"></path></svg>