<svg data-name="Layer 1" xmlns="http://www.w3.org/2000/svg" viewBox="0 0 619.06 619.06"><path d="M309.53 0C138.86 0 0 138.85 0 309.53s138.86 309.53 309.53 309.53 309.53-138.85 309.53-309.53S480.21 0 309.53 0Zm9.18 309.53 197.82-197.82v395.64L318.71 309.53Zm-9.18-9.18L111.72 102.54h395.62L309.53 300.35Zm-9.18 9.18L102.54 507.34V111.72l197.81 197.81Zm9.18 9.18 197.82 197.82H111.72l197.82-197.82ZM529.5 110.87c47.57 52.62 76.58 122.31 76.58 198.66s-29.02 146.04-76.58 198.66V110.87Zm-21.31-21.31H110.87C163.49 42 233.18 12.98 309.53 12.98S455.57 42 508.19 89.56ZM89.56 110.87v397.32C42 455.57 12.98 385.88 12.98 309.53S42 163.49 89.56 110.87Zm21.31 418.62h397.32c-52.62 47.57-122.31 76.58-198.66 76.58s-146.04-29.02-198.66-76.58Z"></path></svg>