<svg xmlns="http://www.w3.org/2000/svg" width="620.5" viewBox="0 0 620.5 496.1" height="496.1" xml:space="preserve"><path d="M372.5 0H0c0 97.8 41.3 186 107.4 248.1C41.3 310.1 0 398.3 0 496.1h372.5c137 0 248.1-111.1 248.1-248.1S509.5 0 372.5 0zm-29.4 339.1c-89 0-169.8-34.6-230-91 60.1-56.4 141-91 230-91s169.8 34.6 230 91c-60.1 56.4-141 91-230 91z"></path><path d="M479.2 221.3c-13.9 0-25.2 11.3-25.2 25.2 0 13.9 11.3 25.2 25.2 25.2 13.9 0 25.2-11.3 25.2-25.2 0-13.9-11.3-25.2-25.2-25.2z"></path></svg>