<svg xmlns="http://www.w3.org/2000/svg" width="614.4" viewBox="0 0 614.4 546.7" height="546.7" xml:space="preserve"><circle cx="273.3" cy="273.3" r="115.2"></circle><path d="M614.4 261.1V119H505.9c-4.3 0-8.3-2.1-10.9-5.6C445.1 44.3 363.5-.6 271.5 0 121.5 1-.2 123.8 0 273.7c.2 150.8 122.5 272.9 273.3 272.9 91.7 0 172.9-45.2 222.4-114.5 2.5-3.5 6.6-5.6 10.9-5.6h107.8v-142H428.2c-10.6 0-19.6 7.4-21.9 17.7-13.4 61.9-68.9 108.1-135 107.1-73.3-1.1-133.1-60.8-134.1-134.1-1.1-76.1 60.3-138.1 136.1-138.1 65 0 119.3 45.5 132.9 106.4 2.3 10.2 11.3 17.5 21.8 17.5h186.4z"></path></svg>