<svg data-name="Layer 1" xmlns="http://www.w3.org/2000/svg" viewBox="0 0 606.14 606.14"><path d="M542.61 174.12H434.72V63.53C434.72 28.5 406.22 0 371.19 0H237.13C202.1 0 173.6 28.5 173.6 63.53v110.59H63.53C28.5 174.12 0 202.62 0 237.65v134.06c0 35.03 28.5 63.53 63.53 63.53H178.8c-3.37 7.83-5.2 16.29-5.2 24.99v82.38c0 34.3 27.33 62.26 61.35 63.42v.11h136.24c35.03 0 63.53-28.5 63.53-63.53V435.24h107.89c35.03 0 63.53-28.5 63.53-63.53V237.65c0-35.03-28.5-63.53-63.53-63.53ZM371.19 17.57c25.35 0 45.97 20.62 45.97 45.97v110.59H300.67V63.53c0-18.08-7.63-34.39-19.8-45.97h90.32ZM191.16 63.53c0-25.34 20.62-45.97 45.97-45.97s45.97 20.62 45.97 45.97v110.59h-91.93V63.53ZM63.53 417.68c-25.35 0-45.97-20.62-45.97-45.97V237.65c0-25.34 20.62-45.97 45.97-45.97H542.6c25.35 0 45.97 20.62 45.97 45.97s-20.62 45.96-45.97 45.96H369v.04c-22.88.21-44.68 8.86-61.45 24.47L191.27 416.37l-.41.41c-.27.29-.5.6-.76.89H63.53Zm173.6 170.9c-25.35 0-45.97-20.62-45.97-45.97v-82.38c0-11.59 4.37-22.66 12.31-31.21l106.67-99.3c-1.59 5.55-2.49 11.38-2.49 17.43v195.46c0 18.08 7.63 34.39 19.8 45.97h-90.32Zm180.02-45.97c0 25.34-20.62 45.97-45.97 45.97s-45.97-20.62-45.97-45.97V435.24h91.93v107.37Zm171.42-170.9c0 25.34-20.62 45.97-45.97 45.97H325.21v-70.53c0-25.34 20.62-45.97 45.97-45.97H542.6c18.08 0 34.39-7.63 45.97-19.8v90.32Z"></path></svg>