<svg data-name="Layer 1" xmlns="http://www.w3.org/2000/svg" viewBox="0 0 632.61 593.7"><path d="M563.13 246.86H484l55.95-55.95c27.13-27.13 27.14-71.12 0-98.25-27.13-27.13-71.12-27.13-98.25 0l-55.95 55.95V69.48C385.77 31.11 354.67 0 316.3 0c-38.37 0-69.47 31.11-69.47 69.48v79.13l-55.95-55.95c-27.13-27.13-71.12-27.13-98.25 0-27.13 27.13-27.13 71.12 0 98.25l55.95 55.95H69.47C31.11 246.86 0 277.96 0 316.33s31.11 69.47 69.47 69.47h51.91c37.45 0 68.09 30.64 68.09 68.08v139.81h111.36V478.78c0-51.14-41.84-92.98-92.98-92.98h-13.43c-38.37 0-69.47-31.1-69.47-69.47 0-25.26 13.52-47.3 33.67-59.46 1.99-1.2 4.05-2.31 6.17-3.31-.79-2.21-1.46-4.44-2.02-6.71-5.65-22.85.37-47.99 18.23-65.85 17.86-17.86 43-23.89 65.85-18.24 2.26.56 4.5 1.23 6.71 2.02 1-2.12 2.11-4.17 3.31-6.17 12.16-20.15 34.19-33.67 59.44-33.68 25.25 0 47.29 13.53 59.44 33.68 1.21 2 2.31 4.05 3.31 6.17 2.21-.79 4.44-1.46 6.71-2.02 22.85-5.65 47.99.38 65.85 18.24 17.86 17.86 23.88 43 18.23 65.85-.56 2.26-1.23 4.5-2.02 6.71 2.12 1 4.18 2.11 6.17 3.31 20.15 12.16 33.67 34.2 33.67 59.46 0 38.37-31.1 69.47-69.47 69.47h-13.43c-51.14 0-92.98 41.84-92.98 92.98v114.91h111.36V453.88c0-37.44 30.64-68.08 68.09-68.08h51.91c38.37 0 69.47-31.1 69.47-69.47s-31.1-69.47-69.47-69.47Z"></path></svg>