<svg data-name="Layer 1" xmlns="http://www.w3.org/2000/svg" viewBox="0 0 625.46 623.33"><path d="M417.29 312.67c-15.18 0-29.3-9.67-34.24-24.89-6.15-18.91 4.2-39.23 23.12-45.38l190.88-62.02C552.41 83.09 459.38 12.69 348.74 0v200.68c0 19.89-16.12 36.01-36.01 36.01s-36.01-16.12-36.01-36.01V0C166.08 12.69 73.05 83.09 28.42 180.37l190.88 62.02c18.91 6.15 29.27 26.46 23.12 45.38-4.94 15.22-19.06 24.89-34.24 24.89-3.69 0-7.44-.57-11.14-1.77L6.12 248.87c-4 19.96-6.12 40.6-6.12 61.74 0 91.05 38.93 172.97 101.03 230.13l117.94-162.33c11.69-16.09 34.21-19.66 50.3-7.97 16.1 11.69 19.66 34.21 7.97 50.3L159.29 583.08c45.34 25.59 97.66 40.26 153.44 40.26s108.1-14.67 153.44-40.26L348.22 420.74c-11.69-16.09-8.12-38.61 7.97-50.3 16.09-11.68 38.61-8.12 50.3 7.97l117.94 162.33c62.09-57.15 101.03-139.08 101.03-230.13 0-21.14-2.13-41.78-6.12-61.74L428.42 310.9c-3.7 1.2-7.45 1.77-11.14 1.77Z"></path></svg>