<svg data-name="Layer 1" xmlns="http://www.w3.org/2000/svg" viewBox="0 0 606.49 606.49"><path d="M606.49 205.95h-70.74V70.74H400.38V0H206.11v70.74H70.73v135.21H0v194.26h70.73v135.54h135.38v70.74h194.27v-70.74h135.37V400.21h70.74V205.95Zm-89.15-116.8v116.8H412.22v40.64h-52.33v-52.33h40.48V89.15h116.96Zm0 135.21v22.23h-86.71v-22.23h86.71ZM341.49 412.23H265V341.5h-70.73v-76.49H265v-70.73h76.49v70.73h70.73v76.49h-70.73v70.73Zm18.41-236.37V89.15h22.07v86.71H359.9ZM224.52 18.41h157.45v52.33h-40.48v105.12H265V70.74h-40.48V18.41Zm0 70.74h22.07v86.71h-22.07V89.15Zm-135.38 0h116.97v105.12h40.48v52.33h-52.33v-40.64H89.14V89.15Zm0 135.21h86.72v22.23H89.14v-22.23ZM18.41 381.8V224.36h52.33V265h105.12v76.49H70.73v40.31H18.41Zm157.45-21.9v21.9H89.14v-21.9h86.72ZM89.14 517.34V400.21h105.12V359.9h52.33v52.33h-40.48v105.12H89.14Zm157.45-86.71v86.71h-22.07v-86.71h22.07Zm135.38 157.45H224.52v-52.33H265V430.63h76.49v105.12h40.48v52.33Zm0-70.74H359.9v-86.71h22.07v86.71Zm135.37 0H400.38V412.22H359.9v-52.33h52.33v40.31h105.12v117.13Zm0-135.54h-86.71v-21.9h86.71v21.9Zm70.74 0h-52.33v-40.31H430.63V265h105.12v-40.64h52.33V381.8Z"></path></svg>