<svg xmlns="http://www.w3.org/2000/svg" width="619.9" viewBox="0 0 619.9 400.5" height="400.5" xml:space="preserve" style="enable-background:new 0 0 619.9 400.5"><path d="M419.7 0c-20.3 0-40 3.1-58.5 8.7C342.9 3.2 323.6.2 303.5.2c-21.2 0-41.6 3.3-60.8 9.5-14.9-3.6-30.5-5.6-46.5-5.6C88 4.1 0 92.1 0 200.3s88 196.2 196.2 196.2c16 0 31.6-2 46.5-5.6 19.2 6.1 39.6 9.5 60.8 9.5 20 0 39.4-3 57.7-8.5 18.5 5.7 38.2 8.7 58.5 8.7 110.4 0 200.3-89.8 200.3-200.3S530.1 0 419.7 0zm-33.5 337.7c-13.2-3.2-25.6-8.3-37-14.9 27-33.6 43.2-76.2 43.2-122.6s-16.2-89-43.2-122.6c11.4-6.6 23.9-11.7 37-14.9C432.8 90.9 464 142 464 200.3s-31.2 109.3-77.8 137.4zm-108-137.4c0-44.6 20.7-84.4 53-110.3 24.6 30.1 39.4 68.5 39.4 110.3s-14.8 80.3-39.4 110.3c-32.3-26-53-65.8-53-110.3zM286.4 51c-41.1 36.7-67 90-67 149.3s25.9 112.6 67 149.3c-4.8 2.9-9.7 5.6-14.7 8-73.3-14.8-128.6-79.7-128.6-157.3S198.4 57.8 271.7 43c5 2.4 9.9 5.1 14.7 8zm-90.2 323.7c-96.2 0-174.5-78.3-174.5-174.5S100 25.8 196.2 25.8c3.1 0 6.2.1 9.2.2-60.8 34.4-101.9 99.6-101.9 174.2s41.1 139.9 101.9 174.2c-3 .2-6.1.3-9.2.3zM447.4 339c34.7-36 56.2-84.9 56.2-138.8S482.1 97.5 447.4 61.5c64.8 12.9 113.8 70.2 113.8 138.8s-49 125.8-113.8 138.7z"></path></svg>