<svg xmlns="http://www.w3.org/2000/svg" width="642" viewBox="0 0 642 594.4" height="594.4" style="overflow:visible;enable-background:new 0 0 642 594.4" xml:space="preserve"><path d="M149.1 348.9c0 56.6 32.3 105.7 79.4 130.1-95.1 46.8-208.3-22.8-208.3-130.1V0l128.9 75.3v273.6z"></path><path d="M309.8 348.9c0 45.1-21.1 88.1-58.1 115.9-46.8-17.7-80.2-63-80.2-115.9V0l138.2 79.8.1 269.1zM642 379.4c0 113.9-92.3 206.2-206.2 206.2-21.8 0-42.8-3.4-62.5-9.7 71.3-45.9 118.6-126.1 118.6-217.1V0L642 86.6v292.8z"></path><path d="M332.4 0v348.9c0 92.4-74.9 167.4-167.4 167.4-79.2 0-145.5-55-162.9-128.9H0c14.1 116.6 113.4 207 233.8 207 130.1 0 235.6-105.5 235.6-235.6V79.1L332.4 0z"></path></svg>