<svg data-name="Layer 1" xmlns="http://www.w3.org/2000/svg" viewBox="0 0 608.64 328.24"><path d="M444.52 0h-280.4C73.62 0 0 73.62 0 164.12s73.62 164.12 164.12 164.12c59.3 0 111.36-31.62 140.2-78.88 28.84 47.26 80.9 78.88 140.2 78.88 90.5 0 164.12-73.62 164.12-164.12S535.02 0 444.52 0Zm-280.4 280.4c-64.12 0-116.28-52.16-116.28-116.28S100 47.84 164.12 47.84H280.4v116.28c0 64.12-52.16 116.28-116.28 116.28Zm280.4 0c-64.12 0-116.28-52.16-116.28-116.28V47.84h116.28c64.12 0 116.28 52.16 116.28 116.28S508.64 280.4 444.52 280.4Z"></path><path d="M162.78 69.15c-52.37 0-94.97 42.6-94.97 94.97s42.6 94.97 94.97 94.97 94.97-42.6 94.97-94.97-42.6-94.97-94.97-94.97Zm0 142.1c-25.99 0-47.13-21.14-47.13-47.13s21.14-47.13 47.13-47.13 47.13 21.14 47.13 47.13-21.14 47.13-47.13 47.13Z"></path><path d="M162.78 136.96c-14.98 0-27.16 12.19-27.16 27.16s12.19 27.16 27.16 27.16 27.16-12.19 27.16-27.16-12.19-27.16-27.16-27.16ZM444.52 69.15c-52.37 0-94.97 42.6-94.97 94.97s42.6 94.97 94.97 94.97 94.97-42.6 94.97-94.97-42.6-94.97-94.97-94.97Zm0 142.1c-25.99 0-47.13-21.14-47.13-47.13s21.14-47.13 47.13-47.13 47.13 21.14 47.13 47.13-21.14 47.13-47.13 47.13Z"></path><path d="M444.52 136.96c-14.98 0-27.16 12.19-27.16 27.16s12.19 27.16 27.16 27.16 27.16-12.19 27.16-27.16-12.19-27.16-27.16-27.16Z"></path></svg>