<svg id="Layer_1" data-name="Layer 1" xmlns="http://www.w3.org/2000/svg" viewBox="0 0 601.9 601.9">   <rect x="197.3" y="197.29" width="404.61" viewBox="0 0 404.61 164.35" height="164.35"></rect>   <polygon points="0 0 0 601.9 20.24 601.9 20.24 20.23 601.9 20.23 601.9 0 0 0"></polygon>   <polygon points="38.23 601.9 58.47 601.9 58.47 58.46 601.9 58.46 601.9 38.23 38.23 38.23 38.23 601.9"></polygon>   <polygon points="76.46 601.9 96.7 601.9 96.7 96.69 601.9 96.69 601.9 76.46 76.46 76.46 76.46 601.9"></polygon>   <polygon points="114.7 601.9 134.93 601.9 134.93 134.93 601.9 134.93 601.9 114.7 114.7 114.7 114.7 601.9"></polygon>   <polygon points="152.93 601.9 173.16 601.9 173.16 173.16 601.9 173.16 601.9 152.93 152.93 152.93 152.93 601.9"></polygon> </svg>