<svg data-name="Layer 1" xmlns="http://www.w3.org/2000/svg" viewBox="0 0 472.94 601.32"><path d="M238.57 118.44c-7.2 0-13.04 5.84-13.04 13.04s5.84 13.04 13.04 13.04 13.04-5.84 13.04-13.04-5.84-13.04-13.04-13.04Z"></path><path d="M467.53 146.35c-3.16-40.71-19.51-75.41-49.4-103.37C396.55 22.79 371 10.19 341.86 5.13c-7.48-1.3-15.04-2.39-22.61-2.87C294.63.72 259.33-.1 234.69 0c-24.64-.11-56.38.71-80.99 2.25-7.57.48-15.13 1.57-22.61 2.87-29.14 5.07-54.69 17.67-76.27 37.85-29.9 27.98-46.24 62.67-49.41 103.38C1.45 197.4-.16 249.05.01 300.66c-.17 51.61 1.43 103.26 5.4 154.31 3.16 40.71 19.51 75.41 49.4 103.37 21.58 20.19 47.13 32.79 76.27 37.85 7.48 1.3 15.04 2.39 22.61 2.87 24.62 1.55 56.36 2.36 80.99 2.25 24.64.11 59.93-.71 84.55-2.25 7.57-.48 15.13-1.57 22.61-2.87 29.14-5.07 54.69-17.67 76.27-37.85 29.89-27.96 46.24-62.66 49.4-103.37 3.97-51.04 5.57-102.7 5.4-154.31.17-51.61-1.43-103.26-5.4-154.31ZM340.98 339.4c-11.47-7.67-19.03-20.73-19.03-35.57s7.56-27.9 19.03-35.57v71.14Zm-60.2-147.48c-5.34 0-8.66 5.76-6.04 10.42 63.18 112.31 21.69 160.5 21.69 160.5L148.18 577.17c-1.46 2-4.62.97-4.62-1.5V164l-39.63 39.63c-1.61 1.61-4.36.47-4.36-1.81v-38.98l-40.78 40.78c-1.61 1.61-4.36.47-4.36-1.81v-37.89c0-65.33 53.46-120.03 118.78-118.78 54.83 1.05 100.33 39.73 111.53 91.45l158.65 55.33H280.78Z"></path></svg>