<svg xmlns="http://www.w3.org/2000/svg" width="620.7" viewBox="0 0 620.7 621.6" height="621.6" xml:space="preserve" style="enable-background:new 0 0 620.7 621.6"><path d="m599.1 147.2-129-125.6C458 9.5 452.8 0 412.2 0H202.4c-40.6 0-45.7 9.5-57.8 21.6l-123 129.1C9.5 162.7 0 167.9 0 208.5v209.8c0 40.6 9.5 45.7 21.6 57.8L148.1 600c12.1 12.1 17.3 21.6 57.8 21.6h209.8c40.6 0 45.8-9.4 57.9-21.6l125.6-127.3c12.1-12.1 21.6-17.3 21.6-57.9V205c-.1-40.5-9.6-45.7-21.7-57.8zM191.2 13c6.1-5.2 10.4-6.9 19-6.9h197.7c8.7 0 12.9 1.8 19 6.9l65.6 66.5-57.8-42.3c-6.9-4.3-16.4-6.9-28.5-6.9H211.9c-12.1 0-21.6 2.6-28.5 6.9l-57.9 42.3L191.2 13zm336.5 300.8v68.7c0 6.4-.7 10.2-3.3 14.6-.4 1.5-3.1 4.7-4.4 6.3L475 448l17.7-29.8c1.2-1.9 6.9-10.9 7.4-13.6 2.3-5.7 3.5-13 3.5-21.6V240.5c0-8.7-1.2-15.9-3.5-21.7-.5-2.6-6.1-11.6-7.4-13.5L475 175.4l44.9 44.6c1.3 1.6 4 4.8 4.4 6.3 2.6 4.4 3.3 8.2 3.3 14.6v72.9zm-434.6-9.5v-63.6c0-6.3.7-10.2 3.3-14.6.4-1.5 3.1-4.7 4.4-6.3l44.9-44.6-17.7 30c-1.2 1.9-6.9 10.9-7.4 13.5-2.3 5.8-3.5 13-3.5 21.7v142.5c0 8.7 1.2 15.9 3.5 21.6.4 2.6 6.1 11.6 7.4 13.6l17.7 29.8-44.9-44.6c-1.3-1.6-4-4.8-4.4-6.3-2.6-4.3-3.3-8.2-3.3-14.6v-78.1zm405.5 8.7v60.3c0 5.6-.3 9.3-2.1 13.1-.6 2-2.5 4.7-4.4 6.8l-39.3 39.1 13.6-26.2c1.6-2.5 5.1-8.9 5.7-12.4 1.5-5.4 2.3-11.9 2.3-19.4V249.1c0-7.6-.7-14.1-2.3-19.4-.6-3.5-4.1-9.9-5.7-12.4l-13.6-26.2 39.3 39.1c1.8 2.1 3.8 4.8 4.4 6.8 1.8 3.8 2.1 7.5 2.1 13.1V313zm-376.5-6.9v-56c0-5.6.3-9.3 2.1-13.1.6-2 2.5-4.7 4.3-6.8l39.3-39.1-13.6 26.2c-1.6 2.6-5.1 8.9-5.7 12.4-1.6 5.4-2.3 11.9-2.3 19.4v125.2c0 7.6.7 14.1 2.3 19.4.6 3.5 4.1 9.9 5.7 12.4l13.6 26.2-39.3-39.1c-1.8-2.1-3.8-4.9-4.3-6.8-1.8-3.8-2.1-7.5-2.1-13.1v-67.2zm347.5 6.9v50.9c0 8.7 0 13-5.2 19l-33.7 33.7 9.5-22.5c4.3-6.9 5.2-16.4 5.2-28.5v-108c0-12.1-.9-21.6-5.2-28.5l-9.5-22.4 33.7 33.7c5.2 6.1 5.2 10.4 5.2 19V313zm-289.2-6.1v-33.6c0-17 .3-20.2 10.4-30.2l51.4-52.3c10.1-10.1 13.2-10.3 30.2-10.3h75.1c17 0 20.2.3 30.2 10.3l52.2 54c10.1 10.1 10.4 13.3 10.4 30.2v75.1c0 17-.3 20.1-10.4 30.2l-54 50.5c-10.1 10.1-13.2 10.4-30.2 10.4h-75.1c-17 0-20.1-.3-30.2-10.4l-49.6-52.2c-10.1-10.1-10.4-13.2-10.4-30.3v-41.4zm223.1-152.7c-2.6-1.6-9-5.1-12.5-5.7-5.4-1.5-11.9-2.3-19.4-2.3H246.5c-7.6 0-14.1.7-19.4 2.3-3.4.6-9.8 4.1-12.4 5.7l-26.2 13.6 39.2-39.3c2.1-1.8 4.8-3.8 6.8-4.3 3.8-1.8 7.4-2.2 13.1-2.2h123.1c5.7 0 9.3.3 13.1 2.2 1.9.6 4.7 2.5 6.8 4.3l39.1 39.3-26.2-13.6zM414 190l-22.5-9.5c-6.9-4.3-16.4-5.2-28.5-5.2H255.2c-12.1 0-21.6.9-28.5 5.2l-22.4 9.5 33.7-33.7c6-5.2 10.4-5.2 19-5.2h104.3c8.6 0 12.9 0 19 5.2L414 190zm0 241.7-33.7 33.7c-6 5.2-10.4 5.2-19 5.2H256.9c-8.6 0-13 0-19-5.2l-33.7-33.7 22.4 9.5c6.9 4.3 16.4 5.2 28.5 5.2H363c12.1 0 21.6-.8 28.5-5.2l22.5-9.5zm-199.4 35.7c2.6 1.6 9 5.1 12.4 5.7 5.4 1.6 11.9 2.3 19.4 2.3h125.2c7.6 0 14.1-.7 19.4-2.3 3.5-.6 9.9-4.1 12.5-5.7l26.1-13.6-39.1 39.3c-2.1 1.8-4.9 3.7-6.8 4.3-3.8 1.8-7.5 2.1-13.1 2.1H247.5c-5.6 0-9.3-.3-13.1-2.1-2-.6-4.7-2.5-6.8-4.3l-39.2-39.3 26.2 13.6zm-12 26.1c1.9 1.2 10.9 6.9 13.5 7.4 5.8 2.3 13 3.5 21.7 3.5h142.4c8.7 0 16-1.2 21.7-3.5 2.6-.4 11.6-6.2 13.6-7.4l29.8-17.6-44.6 44.9c-1.6 1.4-4.8 4-6.3 4.4-4.3 2.7-8.2 3.4-14.6 3.4H238c-6.4 0-10.2-.7-14.6-3.4-1.5-.4-4.7-3-6.3-4.4l-44.6-44.9 30.1 17.6zm212.9-365.4c-1.9-1.2-11-6.9-13.6-7.4-5.7-2.2-13-3.4-21.7-3.4H237.7c-8.7 0-15.9 1.2-21.7 3.4-2.6.5-11.6 6.2-13.5 7.4l-29.9 17.7 44.6-44.9c1.6-1.4 4.8-4 6.3-4.4 4.3-2.6 8.2-3.3 14.6-3.3h141.7c6.4 0 10.2.7 14.6 3.3 1.5.4 4.7 3.1 6.3 4.4l44.6 44.9-29.8-17.7zm-225.6 78.7-9.5 22.4c-4.3 6.9-5.2 16.4-5.2 28.5v107.9c0 12.1.9 21.6 5.2 28.5l9.5 22.5-33.7-33.7c-5.2-6.1-5.2-10.4-5.2-19V259.5c0-8.6 0-12.9 5.2-19l33.7-33.7zm.6 312.9c1.3.8 12.9 8.7 14.7 9.1 6.1 2.9 14.1 4.6 24 4.6h159.7c9.8 0 17.8-1.6 24-4.6 1.7-.3 13.4-8.2 14.7-9.1l33.5-21.8-50 50.6c-1 .9-4.8 4.2-5.7 4.5-4.9 3.5-8.9 4.5-16.1 4.5H228.9c-7.2 0-11.1-1-16.1-4.5-1-.3-4.7-3.6-5.7-4.5L157 498l33.5 21.7zm237-417.8c-1.3-.8-12.9-8.7-14.7-9-6.1-2.9-14.2-4.6-24-4.6H229.1c-9.8 0-17.8 1.7-24 4.6-1.7.3-13.4 8.2-14.7 9L157 123.6l50.1-50.5c1.1-.9 4.8-4.3 5.7-4.5 4.9-3.5 8.9-4.5 16.1-4.5h160.4c7.1 0 11.1 1 16.1 4.5.9.2 4.7 3.6 5.7 4.5l50 50.5-33.6-21.7zm12-26.2c-.6-.4-14.9-10.6-15.8-10.7-6.5-3.6-15.3-5.8-26.2-5.8H220.6c-11 0-19.7 2.2-26.2 5.8-.9.2-15.1 10.3-15.8 10.7l-37.2 25.9 55.5-56.2c.5-.5 4.7-4.5 5.2-4.6 5.5-4.3 9.6-5.7 17.5-5.7h179.1c7.9 0 12 1.4 17.5 5.7.5.1 4.7 4.2 5.2 4.6l55.5 56.2-37.4-25.9zm-261 470.2c.7.4 14.9 10.5 15.8 10.7 6.5 3.6 15.3 5.8 26.2 5.8h177c11 0 19.7-2.1 26.2-5.8.9-.2 15.1-10.3 15.8-10.7l37.3-25.8-55.5 56.1c-.5.5-4.7 4.5-5.2 4.6-5.5 4.3-9.6 5.7-17.5 5.7H219.5c-7.9 0-12-1.4-17.5-5.7-.5-.1-4.7-4.2-5.2-4.6l-55.5-56.1 37.2 25.8zM12.9 429.5c-5.2-6-6.9-10.4-6.9-19V212.8c0-8.6 1.7-12.9 6.9-19l66.5-65.6L37.1 186c-4.3 7-6.9 16.4-6.9 28.5v194.2c0 12.1 2.6 21.6 6.9 28.5L79.4 495l-66.5-65.5zm32.5-5.6c-.5-.6-4.5-4.7-4.6-5.2-4.4-5.5-5.7-9.6-5.7-17.5V222.1c0-7.9 1.4-12 5.7-17.5.1-.5 4.1-4.6 4.6-5.2l56.2-55.5-25.9 37.2c-.4.6-10.6 14.9-10.7 15.8-3.6 6.5-5.7 15.3-5.7 26.2v177c0 11 2.1 19.7 5.7 26.2.2.9 10.3 15.2 10.7 15.8l25.9 37.3-56.2-55.5zm27.7-10.2c-.9-1-4.2-4.7-4.6-5.7-3.4-5-4.5-9-4.5-16.1V231.5c0-7.1 1-11.1 4.5-16 .3-1 3.7-4.7 4.6-5.8l50.5-50.1-21.7 33.6c-.8 1.3-8.7 12.9-9 14.7-2.9 6.1-4.6 14.1-4.6 24v159.8c0 9.8 1.6 17.8 4.6 23.9.3 1.7 8.2 13.4 9 14.7l21.7 33.5-50.5-50.1zm353.8 195c-6.1 5.2-10.4 6.9-19 6.9H210.2c-8.6 0-12.9-1.7-19-6.9l-65.6-66.5 57.9 42.3c6.9 4.3 16.4 6.9 28.5 6.9h194.2c12.1 0 21.6-2.6 28.5-6.9l57.8-42.3-65.6 66.5zm92-178.5c.8-1.3 8.7-13 9-14.7 3-6.1 4.6-14.1 4.6-23.9V231.8c0-9.8-1.7-17.8-4.6-24-.3-1.7-8.2-13.4-9-14.7l-21.8-33.6 50.5 50.1c.9 1.1 4.2 4.7 4.5 5.8 3.5 4.9 4.5 8.9 4.5 16v160.4c0 7.1-1 11.1-4.5 16.1-.3 1-3.6 4.7-4.5 5.7l-50.5 50 21.8-33.4zm26.1 12c.4-.6 10.5-14.9 10.7-15.8 3.6-6.5 5.7-15.2 5.7-26.2V223.1c0-10.9-2.1-19.7-5.7-26.2-.1-.9-10.3-15.2-10.7-15.8L519.2 144l56.2 55.5c.5.6 4.4 4.7 4.6 5.2 4.3 5.5 5.7 9.6 5.7 17.5v179.1c0 7.9-1.4 12.1-5.7 17.5-.2.5-4.2 4.6-4.6 5.2l-56.2 55.5 25.8-37.3zm69.7-31.7c0 8.6-1.7 13-6.9 19l-66.5 65.6 42.3-57.8c4.3-6.9 6.9-16.4 6.9-28.5V214.5c0-12.1-2.6-21.6-6.9-28.5l-42.3-57.8 66.5 65.6c5.2 6.1 6.9 10.4 6.9 19v197.7z"></path></svg>