<svg data-name="Layer 1" xmlns="http://www.w3.org/2000/svg" viewBox="0 0 614.93 614.93"><path d="M0 304.17v310.76c82.18 0 148.79-66.62 148.79-148.79V155.38C66.62 155.38 0 221.99 0 304.17ZM155.38 304.17v310.76c82.18 0 148.79-66.62 148.79-148.79V155.38c-82.18 0-148.79 66.62-148.79 148.79ZM310.76 304.17v310.76c82.18 0 148.79-66.62 148.79-148.79V155.38c-82.18 0-148.79 66.62-148.79 148.79ZM466.13 304.17v310.76c82.18 0 148.79-66.62 148.79-148.79V155.38c-82.18 0-148.79 66.62-148.79 148.79ZM148.79 148.79h466.13C614.93 66.62 548.31 0 466.13 0H0c0 82.18 66.62 148.79 148.79 148.79Z"></path></svg>