<svg xmlns="http://www.w3.org/2000/svg" width="591" viewBox="0 0 591 591" height="591"><path d="M459.6 295.5c73.8-8.4 131.4-71.2 131.4-147.2C591 66.5 524.5 0 442.7 0c-76 0-138.9 57.6-147.3 131.4C287.1 57.6 224.3 0 148.2 0 66.5 0 0 66.5 0 148.2c0 76 57.6 138.9 131.4 147.2C57.6 303.9 0 366.7 0 442.7 0 524.5 66.5 591 148.2 591c76 0 138.9-57.6 147.2-131.4 8.4 73.8 71.2 131.4 147.3 131.4 81.7 0 148.2-66.5 148.2-148.2.1-76.1-57.5-138.9-131.3-147.3zm-294.5 0c68.3-7.8 122.7-62.1 130.4-130.4 7.8 68.3 62.1 122.7 130.4 130.4-68.3 7.8-122.7 62.1-130.4 130.4-7.8-68.3-62.1-122.7-130.4-130.4zM442.7 2v292.5c-80.7 0-146.3-65.6-146.3-146.3S362.1 2 442.7 2zM2 148.2C2 67.6 67.6 2 148.2 2v292.5C67.6 294.5 2 228.9 2 148.2zm0 294.5C2 362 67.6 296.4 148.3 296.4V589C67.6 589 2 523.4 2 442.7zm294.5 0c0-80.7 65.6-146.3 146.3-146.3V589c-80.7 0-146.3-65.6-146.3-146.3z"></path></svg>