<svg data-name="Layer 1" xmlns="http://www.w3.org/2000/svg" viewBox="0 0 589.8 589.8"><path d="M294.9 0C132.29 0 0 132.29 0 294.9s132.29 294.9 294.9 294.9 294.9-132.29 294.9-294.9S457.51 0 294.9 0Zm0 7.47c158.49 0 287.43 128.94 287.43 287.43 0 26.55-3.69 52.23-10.46 76.66l-91.49-52.64V207.54H405.7v68.42l-144.46-83.11-250.65 144.2c-2.03-13.76-3.12-27.83-3.12-42.15C7.47 136.41 136.41 7.47 294.9 7.47Zm40.81 340.72-153.63 88.38v-74.84h-64.63l143.79-82.72 281.18 161.77c-3.89 6.57-8.04 12.97-12.43 19.19L335.7 348.2ZM85.89 491.91C63.62 468.3 45.31 440.95 32 410.89l75.41-43.38v112.03L85.9 491.92Zm62.54 50.17 187.28-107.74 142.36 81.9a287.233 287.233 0 0 1-102.15 54.4v-49.69h-74.68v61.23c-2.11.05-4.21.16-6.34.16-53.47 0-103.54-14.72-146.47-40.25Z"></path><path d="M221.9 174.35c34.06 0 61.77-27.71 61.77-61.76s-27.71-61.77-61.77-61.77-61.76 27.71-61.76 61.77 27.71 61.76 61.76 61.76Zm0-116.06c29.94 0 54.3 24.36 54.3 54.3s-24.36 54.3-54.3 54.3-54.3-24.36-54.3-54.3 24.36-54.3 54.3-54.3Z"></path></svg>