<svg xmlns="http://www.w3.org/2000/svg" width="628.8" viewBox="0 0 628.8 624.3" height="624.3" xml:space="preserve"><path d="M366.3 0C339.6 0 318 21.6 318 48.3v54.9H155.9c-26.7 0-48.3 21.6-48.3 48.3 0 26.6 21.6 48.2 48.3 48.2H318v59.6c0 26.7 21.6 48.3 48.3 48.3 26.6 0 48.2-21.6 48.2-48.3v-211C414.6 21.6 392.9 0 366.3 0z"></path><path d="M263.1 210H48.6C21.8 210 0 231.8 0 258.6c0 26.9 21.8 48.7 48.6 48.7h56.2V469c0 26.9 21.8 48.6 48.6 48.6 26.9 0 48.7-21.8 48.7-48.6V307.3h61c26.9 0 48.6-21.8 48.6-48.7.1-26.8-21.7-48.6-48.6-48.6zM580.2 313.8H524V152c0-26.9-21.8-48.6-48.6-48.6s-48.7 21.8-48.7 48.6v161.8h-61c-26.9 0-48.6 21.8-48.6 48.6 0 26.9 21.8 48.7 48.6 48.7h214.5c26.9 0 48.7-21.8 48.7-48.7-.1-26.9-21.9-48.6-48.7-48.6z"></path><path d="M473.5 422.2H311.8v-61c0-26.9-21.8-48.6-48.6-48.6-26.9 0-48.7 21.8-48.7 48.6v214.5c0 26.9 21.8 48.6 48.7 48.6 26.8 0 48.6-21.8 48.6-48.6v-56.2h161.7c26.9 0 48.6-21.8 48.6-48.7.1-26.9-21.7-48.6-48.6-48.6z"></path></svg>