<svg id="Layer_1" data-name="Layer 1" xmlns="http://www.w3.org/2000/svg" viewBox="0 0 619.88 619.88"><defs></defs><path class="cls-1" d="M447.1 304.04c72.36 0 131.23-58.87 131.23-131.23S519.46 41.58 447.1 41.58h-34.34v85.05h34.34c25.46 0 46.18 20.71 46.18 46.18s-20.72 46.18-46.18 46.18-46.18-20.72-46.18-46.18V0h-85.05v172.81c0 72.36 58.87 131.23 131.23 131.23ZM172.81 41.55c-72.36 0-131.23 58.87-131.23 131.23v34.34h85.05v-34.34c0-25.46 20.71-46.18 46.18-46.18s46.18 20.72 46.18 46.18-20.72 46.18-46.18 46.18H0v85.05h172.81c72.36 0 131.23-58.87 131.23-131.23S245.17 41.55 172.81 41.55ZM172.78 315.85c-72.36 0-131.23 58.87-131.23 131.23s58.87 131.23 131.23 131.23h34.34v-85.05h-34.34c-25.46 0-46.18-20.71-46.18-46.18s20.72-46.18 46.18-46.18 46.18 20.72 46.18 46.18v172.81h85.05V447.08c0-72.36-58.87-131.23-131.23-131.23ZM447.07 400.93h172.81v-85.05H447.07c-72.36 0-131.23 58.87-131.23 131.23s58.87 131.23 131.23 131.23S578.3 519.47 578.3 447.11v-34.34h-85.05v34.34c0 25.46-20.71 46.18-46.18 46.18s-46.18-20.72-46.18-46.18 20.72-46.18 46.18-46.18Z"></path></svg>