<svg id="Layer_1" data-name="Layer 1" xmlns="http://www.w3.org/2000/svg" viewBox="0 0 614.17 619.92">   <path d="M614.17,190.27C614.17,85.19,528.99,0,423.9,0H0V141.18H342.71c16.42-27.78,46.58-46.47,81.19-46.47s64.77,18.69,81.19,46.47h-110.13l-27.9,49.09,27.9,49.09h108.63c-2.98,4.69-6.35,9.11-10.08,13.2-17.25,18.9-42.01,30.83-69.61,30.83s-52.36-11.93-69.61-30.83c-3.74-4.09-7.12-8.49-10.09-13.2H0v141.18H343.61c2.95-4.79,6.3-9.28,10.03-13.45,17.27-19.31,42.31-31.53,70.25-31.53s52.98,12.22,70.25,31.53c14.93,16.69,24.09,38.65,24.09,62.81,0,52.1-42.24,94.34-94.34,94.34-34.2,0-64.06-18.26-80.61-45.51H0v141.18H423.9c105.09,0,190.28-85.19,190.28-190.28,0-45.36-15.9-86.99-42.39-119.68,26.49-32.69,42.39-74.33,42.39-119.68Z"></path>   <polygon points="482.13 429.91 454.23 380.81 394.96 380.81 367.06 429.91 394.96 479 454.23 479 482.13 429.91"></polygon> </svg>