<svg data-name="Layer 1" xmlns="http://www.w3.org/2000/svg" viewBox="0 0 606.49 606.49"><path d="m606.49 290.75-256.82.05 222.4-128.44-12.44-21.54-222.4 128.43 128.4-222.41-21.55-12.44-128.4 222.42V0H290.8v256.85L162.32 34.45 140.77 46.9l128.47 222.36L46.81 140.91l-31.26 54.16 165.92 95.76L0 290.86v24.88l181.46-.03L15.59 411.5l23.63 40.93 7.64 13.24 222.4-128.43-128.4 222.41 21.55 12.44L290.8 349.68v256.81h24.88V349.64l128.49 222.4 21.55-12.44-128.48-222.38 222.44 128.36 12.43-21.55-222.43-128.35 256.81-.05v-24.88z"></path></svg>