<svg xmlns="http://www.w3.org/2000/svg" width="618.3" viewBox="0 0 618.3 618.6" height="618.6" xml:space="preserve" style="enable-background:new 0 0 618.3 618.6"><path d="M546.3 362.4c-43.6 3.3-79.8-28.8-105.8-59.5-32.9-38.7-89.6-91-145.4-75.8-47.7 13-69.2 65.9-53.7 110.3.4 1.1.9 3.8 1.8 4.7-27.9-25.5-40.7-60.5-40-107.5.9-63.7 60.4-125.8 125.6-124.4 65.6 1.4 96.3 40.9 126.5 100.6 9.1 18.1 17.6 36.5 26.6 54.6 8 15.9 15.4 32.4 26.3 46.6 12.6 16.5 34.4 27.6 55.1 20.3 19.2-6.7 31.7-26.2 37-45.2 12.7-45.9.3-85-12.1-111C538.5 71.8 432.1 0 309.1 0 138.4 0 0 138.5 0 309.3c0 1.4.1 2.8.1 4.1 15.6-35 41.2-54.9 71.6-57.2 43.6-3.3 79.8 28.8 105.8 59.5 32.8 38.6 89.4 91 145.1 75.9 48.6-13.1 70.6-68.1 53-112.9-.2-.5-.4-1.7-.9-2.1 27.9 25.5 40.7 60.5 40 107.5-.9 63.7-60.4 125.8-125.6 124.4-65.6-1.4-96.3-40.9-126.5-100.6-9.1-18.1-17.6-36.5-26.6-54.6-8-15.9-15.4-32.4-26.3-46.6-12.6-16.5-34.4-27.6-55.1-20.3-19.2 6.7-31.7 26.2-37 45.2-12.4 44.8.5 85.1 11.9 109.9C78 546.7 185.7 618.6 309.1 618.6c170.7 0 309.1-138.5 309.1-309.3 0-1.6-.1-3.2-.1-4.8-15.5 35.5-41.3 55.5-71.8 57.9z"></path></svg>