<svg data-name="Layer 1" xmlns="http://www.w3.org/2000/svg" viewBox="0 0 538.35 614.45"><path d="M265.84 299.79V3.33L137.47 225.67l128.37 74.12zM272.51 3.33v296.46l128.36-74.12L272.51 3.33zM535.02 148.23 278.28 0l128.37 222.34 128.37-74.11zM260.07 0 3.33 148.23l128.37 74.11L260.07 0zM0 153.99v296.46l128.37-222.34L0 153.99zM1.22 461.67l264.62 152.78V307.48l-131.7-76.03L1.22 461.67zM272.51 307.48v306.97l264.62-152.78-132.92-230.22-131.7 76.03zM409.98 228.11l128.37 222.34V153.99l-128.37 74.12z"></path></svg>