<svg data-name="Layer 1" xmlns="http://www.w3.org/2000/svg" viewBox="0 0 613.57 415.84"><path d="M411.75 249c20.06-2.96 35.48-20.19 35.48-41.08s-15.45-38.16-35.55-41.09c-9.81-48.67-36.61-91.25-74-121.21-7.02 2.95-13.81 6.33-20.33 10.13 37.17 26.8 64.11 66.87 73.96 113.19-15.88 5.85-27.22 21.07-27.22 38.98s11.37 33.16 27.28 39c-18 84.75-93.39 148.54-183.43 148.54-103.41 0-187.54-84.13-187.54-187.54S104.51 20.38 207.92 20.38c23.27 0 45.54 4.29 66.12 12.07 6.49-4.89 13.26-9.42 20.28-13.58C267.99 6.79 238.74 0 207.92 0 93.27 0 0 93.27 0 207.92s93.27 207.92 207.92 207.92c100.59 0 184.7-71.81 203.83-166.85Z"></path><path d="M405.65 0C305.06 0 220.94 71.81 201.82 166.85c-20.06 2.96-35.47 20.19-35.47 41.08s15.45 38.16 35.55 41.09c9.81 48.64 36.58 91.21 73.94 121.16 7.02-2.95 13.81-6.33 20.33-10.12-37.14-26.8-64.05-66.85-73.9-113.15 15.88-5.85 27.22-21.07 27.22-38.98s-11.37-33.16-27.28-39c18.01-84.76 93.4-148.55 183.44-148.55 103.41 0 187.54 84.13 187.54 187.54s-84.13 187.54-187.54 187.54c-23.28 0-45.58-4.3-66.17-12.09-6.5 4.88-13.27 9.41-20.3 13.56 26.35 12.1 55.62 18.91 86.47 18.91 114.65 0 207.92-93.27 207.92-207.92S520.3 0 405.65 0Z"></path></svg>