<svg xmlns="http://www.w3.org/2000/svg" width="552.1" viewBox="0 0 552.1 611.9" height="611.9" xml:space="preserve"><path d="M0 230.3v243.6c0 36.6 14.5 71.7 40.4 97.6 25.9 25.9 61 40.4 97.6 40.4 36.6 0 71.7-14.5 97.6-40.4 7.9-7.9 14.7-16.6 20.4-26-16.4-19.7-33.2-44.8-54-77.7-34.8-55.2-52.8-96-66.7-120.7-13.3-23.6-27.4-55.2-64.2-85.4C39.3 235.5 5.7 230.9 0 230.3zM146.3 0c36 0 71.8 14.5 104.8 40.3 33.1 25.8 53.7 55.6 88.3 110.6 34.6 54.9 52.5 95.6 66.4 120.2 13.9 24.6 28.8 57.5 67.1 89s79.1 34.2 79.1 34.2v66.3s6.3 151.3-146.2 151.3h-.4c-35.9-.1-71.5-14.6-104.4-40.3-33.1-25.8-53.7-55.6-88.3-110.6-34.6-54.9-52.5-95.6-66.4-120.2-13.9-24.6-28.8-57.5-67.1-89C40.8 220.4 0 217.7 0 217.7v-66.3S-6.2 0 146.3 0zm344.1 441.3c-53.8-22.3-88.4-60-108.4-89.5-20.1-29.6-54.2-95.2-54.2-95.2s-47.7-95.5-82.3-136.2C213.9 83.2 171.6 53.1 120.6 64 81.4 72.4 61 104.4 61 143.5v26.9l.6.3c53.8 22.3 88.4 60 108.4 89.5 20.1 29.6 54.2 95.2 54.2 95.2s47.7 95.5 82.3 136.2c17.6 20.7 38.5 40.2 63.6 51.3 17.6 7.8 34.6 8.6 53.6 6.3 42.8-5.1 67.3-38.6 67.2-80.8v-26.9l-.5-.2zm-80 70.1c-18.5 0-33.4-15-33.4-33.4 0-18.5 15-33.4 33.4-33.4 18.5 0 33.4 15 33.4 33.4s-14.9 33.4-33.4 33.4zm141.7-129.8V138c0-36.6-14.5-71.7-40.4-97.6C485.8 14.5 450.7 0 414.1 0c-36.6 0-71.7 14.5-97.6 40.4-7.9 7.9-14.7 16.6-20.4 26 16.4 19.7 33.2 44.8 54 77.7 34.8 55.2 52.8 96 66.7 120.7 13.3 23.6 27.4 55.2 64.2 85.4 31.8 26.3 65.4 30.8 71.1 31.4zm-410.4-281c18.5 0 33.4 15 33.4 33.4 0 18.5-15 33.4-33.4 33.4-18.5 0-33.4-15-33.4-33.4 0-18.5 14.9-33.4 33.4-33.4z" fill-rule="evenodd" clip-rule="evenodd"></path></svg>