<svg data-name="Layer 1" xmlns="http://www.w3.org/2000/svg" viewBox="0 0 406.85 607.49"><path d="M298.96 224.53V94.35C298.96 42.33 256.64 0 204.61 0h-2.36c-52.03 0-94.35 42.33-94.35 94.35v130.18C43.75 258.8 0 326.4 0 404.06c0 112.17 91.26 203.43 203.43 203.43s203.43-91.26 203.43-203.43c0-77.65-43.75-145.26-107.89-179.53ZM202.24 53.95h2.36c22.32 0 40.41 18.09 40.41 40.41v38.17h-83.18V94.36c0-22.32 18.09-40.41 40.41-40.41Zm-8.45 499.29C121 548.65 61.13 490.52 54.57 417.88c-4.66-51.64 17.12-98.53 53.32-128.68 13.3-11.08 28.56-19.88 45.16-25.84 5.31-1.9 8.79-7.02 8.79-12.66v-64.23h83.18v64.23c0 5.64 3.48 10.75 8.79 12.66 16.6 5.96 31.86 14.75 45.16 25.84 32.94 27.44 53.94 68.74 53.94 114.86 0 85.61-72.35 154.65-159.11 149.18Z"></path></svg>