<svg data-name="Layer 1" xmlns="http://www.w3.org/2000/svg" viewBox="0 0 626.21 624.74"><path d="M619.19 247.27a310.78 310.78 0 0 0-18.32-57.48L456.9 269.98l29.57-51.21h-61.75l147.03-81.9a315.41 315.41 0 0 0-38.55-46.21C476.6 34.66 398.83 0 313.11 0s-163.5 34.66-220.1 90.66a315.41 315.41 0 0 0-38.55 46.21l147.03 81.9h-61.75l29.57 51.21L25.35 189.8a310.54 310.54 0 0 0-18.32 57.48C2.47 268.52.01 290.53.01 313.11c0 141.67 94.61 261.6 223.94 300.1 19.03 5.66 38.79 9.59 59.13 11.54V467.03l30.03 52.02 30.03-52.02v157.72a310.77 310.77 0 0 0 59.13-11.54c129.33-38.5 223.93-158.43 223.93-300.1 0-22.58-2.46-44.59-7.02-65.83ZM313.11 59.13c63.31 0 121.23 23.34 165.76 61.8l-165.76 92.33-165.76-92.33c44.52-38.46 102.45-61.8 165.76-61.8ZM59.13 313.11c0-12.02.9-23.83 2.52-35.4l162.29 90.4v182.78C127.76 514.7 59.13 421.79 59.13 313.11Zm183.03-35.2h141.88L313.1 400.78l-70.94-122.87Zm160.11 272.97V368.09l162.28-90.39c1.62 11.58 2.52 23.39 2.52 35.4 0 108.67-68.63 201.59-164.8 237.78Z"></path></svg>