<svg xmlns="http://www.w3.org/2000/svg" width="555.3" viewBox="0 0 555.3 625.6" height="625.6" xml:space="preserve" style="enable-background:new 0 0 555.3 625.6"><path d="M523.3 142.5 278.2 0l-245 141.9S.1 157.3.1 208v230.8s-4 46.2 38.8 70.7l171.6 98.6s64.4 39.3 136.2 0l169.9-97.5s38.8-21.1 38.8-64.4V310.1c0-12.4.4-23.7-5.4-35.1-6.2-12.1-18.3-26.9-45.3-40.7L277.6 364.8s33.6 22.8 33.6 63.8v148.2c0 16.4-13.3 29.6-29.6 29.6h-9.1c-16.4 0-29.6-13.3-29.6-29.6V368.2c0-20.4-.5-42.1 11.8-59.6 11.1-15.7 22.9-23.5 42.9-36.2l225.7-129.9z"></path></svg>