<svg id="Layer_1" data-name="Layer 1" xmlns="http://www.w3.org/2000/svg" viewBox="0 0 614.99 473.22">   <path d="M187.64,1.65c.98-.27,.81-1.65-.2-1.65H0V188.23c0,1.01,1.39,1.18,1.66,.21,9.53-34.54,29.04-65.74,55.79-91.18,5.09-4.84,13.04-5.02,18.31-.38,36.91,32.48,60.87,79.29,63.12,131.65,.12,2.69,.22,5.37,.22,8.08s-.11,5.4-.22,8.08c-2.25,52.37-26.21,99.18-63.12,131.66-5.27,4.64-13.22,4.46-18.31-.38-26.75-25.44-46.26-56.64-55.79-91.18-.27-.97-1.66-.81-1.66,.21v188.23H187.43c1.01,0,1.18-1.38,.2-1.65-30.46-8.34-58.34-24.41-82-46.36-4.57-4.23-4.64-11.51,.02-15.63,46.01-40.67,75.68-99.35,77.96-164.89,.09-2.69,.22-5.37,.22-8.08s-.13-5.39-.22-8.08c-2.27-65.54-31.94-124.22-77.96-164.89-4.67-4.12-4.59-11.4-.02-15.63C129.3,26.06,157.18,9.99,187.64,1.65Z"></path>   <path d="M497.73,244.69h-21.82c-2.24,50.47-25.36,96.3-62.14,131.27-5.09,4.84-13.04,5.01-18.31,.37-36.9-32.48-60.86-79.29-63.11-131.65-.12-2.68-.22-5.37-.22-8.08s.11-5.4,.22-8.08c2.25-52.36,26.21-99.17,63.11-131.64,5.27-4.64,13.23-4.47,18.31,.37,36.78,34.97,59.9,80.8,62.14,131.27h21.82c64.05,0,118.44-52.41,117.24-116.45-1.16-62.1-51.87-112.08-114.24-112.08h-216.95c-1.01,0-1.18,1.38-.2,1.65,30.46,8.34,58.34,24.41,82.01,46.36,4.57,4.23,4.64,11.51-.02,15.63-46.01,40.67-75.68,99.35-77.96,164.89-.09,2.69-.22,5.37-.22,8.08s.13,5.39,.22,8.08c2.27,65.55,31.94,124.23,77.96,164.89,4.67,4.12,4.59,11.4,.02,15.63-23.67,21.95-51.55,38.02-82.01,46.36-.98,.27-.81,1.65,.2,1.65h216.95c62.38,0,113.08-49.98,114.24-112.08,1.2-64.04-53.19-116.45-117.24-116.45Z"></path> </svg>