<svg xmlns="http://www.w3.org/2000/svg" width="613.5" viewBox="0 0 613.5 612.6" height="612.6" xml:space="preserve"><path d="m480.8 432-86.2-125.4h87.6L306.8 47.8 131.4 306.4h87.5l-86.2 125.4h166.1v134.3h15.9V415.6h-61.6V223.3c0-29.6 24.1-53.6 53.6-53.6s53.6 24 53.6 53.6v130.2h-45.6V214.8h-15.9V370h61.6v62h120.4z"></path><path d="M253.2 562v-84.6H120.7c-14.5 0-27.8-8-34.7-20.8-6.8-12.8-6-28.3 2.1-40.4l45-64.2h-13.8c-14.5 0-27.7-7.9-34.6-20.7-6.9-12.8-6.1-28.2 1.8-40.3L274.2 14.5c4.4-6.6 10.7-11.6 17.9-14.5C129.5 7.6 0 141.9 0 306.4c0 163.5 128 297.2 289.3 306.2-21-7.3-36.1-27.2-36.1-50.6zM321.4 0c7.3 2.9 13.6 8 18.1 14.7l187.2 276.4c8.1 12.3 8.8 27.7 2 40.5-6.9 12.8-20.1 20.7-34.6 20.7h-13.8l45 64.2c8.1 12.1 8.9 27.5 2.1 40.4-6.8 12.8-20.1 20.8-34.7 20.8H360.4V562c0 23.4-15.1 43.3-36.1 50.6 161.3-9.1 289.2-142.7 289.2-306.2C613.5 141.9 484 7.6 321.4 0z"></path></svg>