<svg xmlns="http://www.w3.org/2000/svg" width="616.9" viewBox="0 0 616.9 616.9" height="616.9" xml:space="preserve" style="enable-background:new 0 0 616.9 616.9"><path d="M193.7 121.3 315 0h121.1l83.6 83.9H347.4l-119 118.9z"></path><path d="M494.8 177.2H326.6L359.7 95h171.5l85.7 85.6-.2 118.5z"></path><path d="m533.1 347.4-119-119 81.6-34.7L616.9 315v121.1l-83.8 83.7z"></path><path d="m317.9 616.7 121.9-121.9V326.6l82.2 33.1v171.5l-85.7 85.7z"></path><path d="m180.8 616.9-83.6-83.8h172.4l118.9-119 34.7 81.6L302 616.9z"></path><path d="M85.7 522 .1 436.3l.2-118.4 121.8 121.9h168.2L257.2 522z"></path><path d="M0 302V180.8l83.9-83.6v172.4l118.9 118.9-81.5 34.7z"></path><path d="M94.9 257.2V85.7L180.6.1 299 .3 177.2 122.1v168.2z"></path></svg>