<svg xmlns="http://www.w3.org/2000/svg" viewBox="0 0 642 619.13"><path d="M107.05 561.58v-87.87l94.22 43.94-94.22 43.93zM318.23 566.16l-104.04-48.51 104.04-48.52v97.03zM107.05 567.6l100.68-46.94 110.5 51.53-100.67 46.94-110.51-51.53zM110.5 469.3l110.51-51.53 97.22 45.34-110.5 51.52-97.23-45.33zM107.05 464.88V222.53L0 272.45V155.21L318.23 0v124.05l-99.95 46.61v242.36l-111.23 51.86z"></path><path d="m223.74 178.55 94.49 44.06v234.47l-94.49-44.06V178.55zM6.46 275.46l95.14-44.36v88.72L6.46 275.46zM534.95 561.58v-87.87l-94.22 43.94 94.22 43.93zM323.77 566.16l104.04-48.51-104.04-48.52v97.03zM534.95 567.6l-100.68-46.94-110.5 51.53 100.67 46.94 110.51-51.53zM531.5 469.3l-110.51-51.53-97.22 45.34 110.5 51.52 97.23-45.33zM534.95 464.88V222.53L642 272.45V155.21L323.77 0v124.05l99.95 46.61v242.36l111.23 51.86z"></path><path d="m418.26 178.55-94.49 44.06v234.47l94.49-44.06V178.55zM416.53 173.32 321 217.88l-95.53-44.56L321 128.77l95.53 44.55zM635.54 275.46 540.4 231.1v88.72l95.14-44.36z"></path></svg>