<svg xmlns="http://www.w3.org/2000/svg" width="642" viewBox="0 0 642 627.07" height="627.07" data-name="Layer 1"><path d="m388.07 0 40.33 124.15L321 46.1l-107.4 78.05L253.93 0H0v627.07h192.86l-45.64-33.17h132.76L321 467.61l41.02 126.29h132.76l-45.64 33.17H642V0H388.07ZM85.23 583.38c0 4.99-4.04 9.03-9.03 9.03H42.9c-4.99 0-9.03-4.04-9.03-9.03v-14.93c0-4.99 4.04-9.03 9.03-9.03h33.3c4.99 0 9.03 4.04 9.03 9.03v14.93Zm0-87.46c0 4.99-4.04 9.03-9.03 9.03H42.9c-4.99 0-9.03-4.04-9.03-9.03v-14.93c0-4.99 4.04-9.03 9.03-9.03h33.3c4.99 0 9.03 4.04 9.03 9.03v14.93Zm0-87.46c0 4.99-4.04 9.03-9.03 9.03H42.9c-4.99 0-9.03-4.04-9.03-9.03v-14.93c0-4.99 4.04-9.03 9.03-9.03h33.3c4.99 0 9.03 4.04 9.03 9.03v14.93Zm0-87.46c0 4.99-4.04 9.03-9.03 9.03H42.9c-4.99 0-9.03-4.04-9.03-9.03v-14.93c0-4.99 4.04-9.03 9.03-9.03h33.3c4.99 0 9.03 4.04 9.03 9.03V321Zm0-87.46c0 4.99-4.04 9.03-9.03 9.03H42.9c-4.99 0-9.03-4.04-9.03-9.03v-14.93c0-4.99 4.04-9.03 9.03-9.03h33.3c4.99 0 9.03 4.04 9.03 9.03v14.93Zm0-87.46c0 4.99-4.04 9.03-9.03 9.03H42.9c-4.99 0-9.03-4.04-9.03-9.03v-14.93c0-4.99 4.04-9.03 9.03-9.03h33.3c4.99 0 9.03 4.04 9.03 9.03v14.93Zm0-87.46c0 4.99-4.04 9.03-9.03 9.03H42.9c-4.99 0-9.03-4.04-9.03-9.03V43.69c0-4.99 4.04-9.03 9.03-9.03h33.3c4.99 0 9.03 4.04 9.03 9.03v14.93Zm302.15 292.34 41.02 126.29L321 399.2l-107.4 78.05 41.02-126.29-107.4-78.05h132.76L321 146.62l41.02 126.29h132.76l-107.4 78.05Zm220.75 232.42c0 4.99-4.04 9.03-9.03 9.03h-33.3c-4.99 0-9.03-4.04-9.03-9.03v-14.93c0-4.99 4.04-9.03 9.03-9.03h33.3c4.99 0 9.03 4.04 9.03 9.03v14.93Zm0-87.46c0 4.99-4.04 9.03-9.03 9.03h-33.3c-4.99 0-9.03-4.04-9.03-9.03v-14.93c0-4.99 4.04-9.03 9.03-9.03h33.3c4.99 0 9.03 4.04 9.03 9.03v14.93Zm0-87.46c0 4.99-4.04 9.03-9.03 9.03h-33.3c-4.99 0-9.03-4.04-9.03-9.03v-14.93c0-4.99 4.04-9.03 9.03-9.03h33.3c4.99 0 9.03 4.04 9.03 9.03v14.93Zm0-87.46c0 4.99-4.04 9.03-9.03 9.03h-33.3c-4.99 0-9.03-4.04-9.03-9.03v-14.93c0-4.99 4.04-9.03 9.03-9.03h33.3c4.99 0 9.03 4.04 9.03 9.03V321Zm0-87.46c0 4.99-4.04 9.03-9.03 9.03h-33.3c-4.99 0-9.03-4.04-9.03-9.03v-14.93c0-4.99 4.04-9.03 9.03-9.03h33.3c4.99 0 9.03 4.04 9.03 9.03v14.93Zm0-87.46c0 4.99-4.04 9.03-9.03 9.03h-33.3c-4.99 0-9.03-4.04-9.03-9.03v-14.93c0-4.99 4.04-9.03 9.03-9.03h33.3c4.99 0 9.03 4.04 9.03 9.03v14.93Zm0-87.46c0 4.99-4.04 9.03-9.03 9.03h-33.3c-4.99 0-9.03-4.04-9.03-9.03V43.69c0-4.99 4.04-9.03 9.03-9.03h33.3c4.99 0 9.03 4.04 9.03 9.03v14.93Z"></path></svg>