<svg id="Layer_1" data-name="Layer 1" xmlns="http://www.w3.org/2000/svg" viewBox="0 0 602.26 615.35">   <path d="M442.91,0c-61.72,0-115.32,35.3-141.78,86.74C274.67,35.3,221.08,0,159.35,0,71.49,0,0,71.48,0,159.35V456c0,87.87,71.49,159.35,159.35,159.35,61.72,0,115.32-35.3,141.78-86.74,26.46,51.45,80.05,86.74,141.78,86.74,87.87,0,159.35-71.49,159.35-159.35V159.35C602.26,71.48,530.77,0,442.91,0Zm124.2,456c0,68.49-55.72,124.2-124.2,124.2s-124.2-55.72-124.2-124.2v-23.6h-35.15v23.6c0,68.49-55.72,124.2-124.2,124.2s-124.2-55.72-124.2-124.2V159.35c0-68.48,55.72-124.2,124.2-124.2s124.2,55.72,124.2,124.2v23.54h35.15v-23.54c0-68.48,55.72-124.2,124.2-124.2s124.2,55.72,124.2,124.2V456Z"></path>   <path d="M442.91,70.3c-49.1,0-89.05,39.94-89.05,89.05v58.69h-105.45v-58.69c0-49.1-39.94-89.05-89.05-89.05s-89.05,39.94-89.05,89.05V456c0,49.1,39.95,89.05,89.05,89.05s89.05-39.95,89.05-89.05v-58.69h105.45v58.69c0,49.1,39.95,89.05,89.05,89.05s89.05-39.95,89.05-89.05V159.35c0-49.1-39.95-89.05-89.05-89.05Zm53.9,385.7c0,29.72-24.18,53.9-53.9,53.9s-53.9-24.18-53.9-53.9v-93.84H213.25v93.84c0,29.72-24.18,53.9-53.9,53.9s-53.9-24.18-53.9-53.9V159.35c0-29.72,24.18-53.9,53.9-53.9s53.9,24.18,53.9,53.9v93.84h175.76v-93.84c0-29.72,24.18-53.9,53.9-53.9s53.9,24.18,53.9,53.9V456Z"></path>   <path d="M442.9,140.6c-10.31,0-18.75,8.44-18.75,18.75v130.75H178.1V159.35c0-10.31-8.44-18.75-18.75-18.75s-18.75,8.44-18.75,18.75V456c0,10.31,8.44,18.75,18.75,18.75s18.75-8.44,18.75-18.75v-130.75h246.06s0,130.75,0,130.75c0,10.31,8.44,18.75,18.75,18.75s18.75-8.44,18.75-18.75V159.35c0-10.31-8.44-18.75-18.75-18.75Z"></path> </svg>