<svg data-name="Layer 1" xmlns="http://www.w3.org/2000/svg" viewBox="0 0 596.6 596.6"><path d="M558.05 151.67 298.3 411.41v-64.66l233.71-233.71c-7.8-9.83-16.19-19.17-25.15-27.93L298.3 293.67v-55.48L477.04 59.46c-8.95-6.71-18.32-12.86-28-18.55L298.31 191.64v-41.18L421.93 26.84c-8.59-3.92-17.4-7.44-26.41-10.55l-97.22 97.22V80.66l71.89-71.88c-6.59-1.63-13.27-3.01-20.02-4.19L298.3 56.46V36.77L333 2.07c-5.09-.59-10.21-1.05-15.38-1.38L298.3 20.01v-11l8.79-8.79c-2.93-.08-5.84-.22-8.78-.22C133.55 0 0 133.55 0 298.3s133.55 298.3 298.3 298.3 298.3-133.55 298.3-298.3c0-53.31-14.05-103.32-38.56-146.63Z"></path></svg>