<svg xmlns="http://www.w3.org/2000/svg" width="507.2" viewBox="0 0 507.2 614.5" height="614.5" xml:space="preserve" style="enable-background:new 0 0 507.2 614.5"><path d="M49 0H.2s0 181.4-.2 230.3c-.2 39.3 25 62.4 25 62.4l147.2 144.1c-6.9-6.8-17.1-24.4-21.2-36.7-4.4-13.3-5.8-32.3-5.9-32.6l-.1-219.9h32.2v125.9c19.6-17 45.2-27.3 73.2-27.3 23.9 0 46 7.5 64.2 20.2L49 0z" class="st0"></path><path d="M506.7 511.7c0 61.8-50.1 102.7-111.9 102.7-29.2 0-55.8-11.2-75.7-29.5L185.4 450.5c18.4 13.4 41.1 21.3 65.7 21.3 61.8 0 111.9-50.1 111.9-111.9V143l144.3 143.4-.6 225.3z" class="st0"></path><path d="M173 359.6c0-43.9 35.6-79.6 79.6-79.6 43.9 0 79.6 35.6 79.6 79.6 0 43.9-35.6 79.6-79.6 79.6-44 0-79.6-35.6-79.6-79.6z" class="st0"></path></svg>