<svg xmlns="http://www.w3.org/2000/svg" width="603.1" viewBox="0 0 603.1 563.6" height="563.6"><path d="M293.3 96.2c-22.9 21.8-41.4 47.4-54.8 75.5 18.1-2.8 36.4-4.4 54.8-4.8V96.2zM133 203.8c26.2-12.2 53.7-21.5 81.9-27.7 11.6-28 27.9-54.1 48.2-77.1-57.9 12.7-105.8 52.2-130.1 104.8zM87.9 399.9c28.3 20.1 58.8 36 90.8 47.5-34.5-26-60.7-62.6-73.6-104.9C66 314.5 29.7 282.4 0 246.3v66.1c24 33.6 53.6 63.1 87.9 87.5zM103.7 226.6c12.9-46.3 41.4-86.1 79.6-113.3-47.7 15.6-92 40.7-130.5 74.3 15.8 14.4 32.9 27.5 50.9 39z"></path><path d="M305.5 489h-2.3c-1.9 0-3.9 0-5.8-.1-79.7-1.6-155.9-26.7-220.8-72.9C47.7 395.5 22 365.2 0 338.4V412c68.5 92 178.1 151.6 301.5 151.6 119.4 0 225.7-55.7 294.5-142.4-8.7-11.2-20.7-25.2-30.6-35.3C493 450.3 402.8 489 305.5 489zM293.3 186.7c-21.5.4-42.9 2.6-63.9 6.6-8.7 23.5-13.9 48.3-15.4 73.6 25.6-5.7 52.1-8.9 79.3-9.4v-70.8z"></path><path d="M293.3 304.4c-27.3-.6-53.9-4.2-79.5-10.2 1.3 25.9 6.4 51.2 15.2 75.2 21 4.4 42.5 7 64.3 7.7v-72.7zM115.9 282c0 16.4 2.1 32.3 6.1 47.4 26.5 14.8 54.8 26.5 84.3 34.6-7.5-24-11.8-49.2-12.4-74.7-26.6-7.8-52.2-18.3-76.4-31.4-1.1 7.9-1.6 15.9-1.6 24.1zM98.8 315.3c-1.8-10.8-2.7-22-2.7-33.3 0-11.9 1-23.5 2.9-34.8-13.4-8.2-26.4-17.3-38.9-27.2-22.2-17.6-44.5-44-60.1-65.4v65.8c27.1 37.7 60.7 69.8 98.8 94.9zM206.8 198.4c-29.1 7.4-57.3 18.4-83.8 32.6-.6 2.1-1.1 4.1-1.6 6.2 23 13 47.4 23.7 72.7 31.5 1.1-24 5.4-47.7 12.7-70.3zM263.1 464.9c-20.6-23.3-37.1-49.9-48.7-78.5-28.8-6.8-56.6-16.9-82.9-29.8 23.6 54.4 72.4 95.4 131.6 108.3zM293.3 467.8V397c-18.7-.6-37.1-2.5-55.2-5.6 13.3 28.4 32 54.4 55.2 76.4zM313 467.8c22.9-21.8 41.4-47.5 54.8-75.6-18.1 2.9-36.4 4.5-54.8 4.9v70.7zM313 377.3c21.5-.4 42.9-2.7 63.9-6.8 9-24.5 14.3-50.3 15.6-76.7-25.6 6.1-52.2 9.7-79.5 10.5v73zM507.5 249.1c1.7 10.7 2.6 21.7 2.6 32.9 0 11.5-1 22.7-2.8 33.7 36.1 22.2 68.4 56.5 95.7 89.1v-64.5c-26-35.7-58.3-66.6-95.5-91.2zM428.6 117.5c34.1 26 59.8 62.4 72.6 104.3 0 0 39.4 24.2 80.6 68.3 7.4 8.2 14.5 16.4 21.2 24.5v-66.3c-43.8-59.7-104.7-105.4-174.4-130.8z"></path><path d="M301.5 0C183.2 0 77.7 54.7 8.8 140.2c9.2 11.8 22.1 26 32.7 36.6C113.8 112.9 203.3 75 300.1 75H303.2c2.8 0 5.7.1 8.5.2 115.1 3.3 220.3 63 291.4 147.6v-71.3C534.6 59.6 425 0 301.5 0z"></path><path d="M313 257.6c27.3.8 53.8 4.4 79.4 10.5-1.4-25.2-6.5-50-15.1-73.4-21.1-4.4-42.6-7-64.3-7.7v70.6zM313 96.2v70.9c18.6.6 37.1 2.5 55.3 5.7-13.4-28.5-32.1-54.5-55.3-76.6zM343.2 464.9c58-12.7 106-52.4 130.2-105.2-26.2 12.3-53.7 21.7-82 27.9-11.6 28.2-27.9 54.3-48.2 77.3zM503 336.2c-12.6 46.6-41.2 86.7-79.4 114.1 47.7-15.8 92-41 130.3-74.9-15.8-14.5-32.9-27.6-50.9-39.2zM485.3 325.5c-23-13-47.4-23.7-73-31.7a278.8 278.8 0 01-12.7 71.6c29.2-7.5 57.3-18.6 83.9-32.8.6-2.3 1.2-4.7 1.8-7.1zM400 200.1c7.3 23.6 11.6 48.2 12.4 73.2 1.6.5 3.1 1 4.7 1.5 1.1.4 2.3.7 3.4 1.1 1.6.5 3.2 1.1 4.9 1.6 1.4.5 2.9 1 4.3 1.5 1.5.5 3 1.1 4.6 1.6.4.2.9.3 1.3.5 18.5 6.7 36.3 14.8 53.4 24.1.9-7.5 1.4-15.2 1.4-23 0-16.3-2.1-32.1-6-47.2-26.7-15.2-55-26.9-84.4-34.9zM343.2 99.1c20.6 23.4 37.1 50 48.7 78.5 28.7 6.8 56.5 16.9 83 29.9-23.7-54.4-72.5-95.5-131.7-108.4z"></path></svg>