<svg xmlns="http://www.w3.org/2000/svg" width="617.3" viewBox="0 0 617.3 617.3" height="617.3" style="enable-background:new 0 0 617.3 617.3" xml:space="preserve"><path d="m597.3 379.7 20.1-20.1-124.5-124.4v-70.6L597.3 269l20.1-20.1-124.5-124.4h-107L490.4 20.1 470.3 0 345.8 124.4h-70.6L379.7 20.1 359.6 0 235.2 124.4h-70.6L269 20.1 248.9 0 124.5 124.4v106.9L20.1 127 0 147.1l124.4 124.4v70.6L20.1 237.7 0 257.7l124.4 124.4v70.6L20.1 348.3 0 368.4l124.4 124.4h106.9L127 597.3l20.1 20.1L271.5 493h70.6L237.7 597.3l20.1 20.1L382.2 493h70.6L348.3 597.3l20.1 20.1 124.4-124.5v-107l104.4 104.4 20.1-20.1-124.4-124.4v-70.6l104.4 104.5zm-331.1 84.8v-84.9h84.9v84.9h-84.9zm84.9-311.6v84.9h-84.9v-84.9h84.9zm-113.3 84.9h-84.9v-84.9h84.9v84.9zm-84.9 28.4h84.9v84.9h-84.9v-84.9zm113.3 0h84.9v84.9h-84.9v-84.9zm113.3 113.3h84.9v84.9h-84.9v-84.9zm85-28.4h-84.9v-84.9h84.9v84.9zm0-113.3h-84.9v-84.9h84.9v84.9zM152.9 379.5h84.9v84.9h-84.9v-84.9z"></path><circle transform="rotate(-13.286 195.298 195.31)" cx="195.3" cy="195.3" r="19.2"></circle><circle cx="308.7" cy="195.3" r="19.2"></circle><circle cx="422" cy="195.3" r="19.2"></circle><circle transform="rotate(-67.5 195.342 308.665)" cx="195.3" cy="308.7" r="19.2"></circle><circle cx="308.7" cy="308.7" r="19.2"></circle><circle cx="422" cy="308.7" r="19.2"></circle><circle transform="rotate(-67.5 195.343 421.99)" cx="195.3" cy="422" r="19.2"></circle><circle cx="308.7" cy="422" r="19.2"></circle><circle cx="422" cy="422" r="19.2"></circle></svg>