<svg data-name="Layer 1" xmlns="http://www.w3.org/2000/svg" viewBox="0 0 605.36 605.36"><path d="M604.6 292.91c-4.73-30.34-32.16-51.98-62.87-51.98H392.57c-15.54 0-28.13-12.6-28.13-28.13V63.63c0-30.71-21.64-58.14-51.98-62.87-38.24-5.96-71.53 23.82-71.53 61v151.03c0 15.54-12.6 28.13-28.13 28.13H63.63c-30.71 0-58.14 21.64-62.87 51.98-5.96 38.24 23.82 71.53 61 71.53h151.03c15.54 0 28.13 12.6 28.13 28.13v151.03c0 33.97 27.79 61.76 61.76 61.76s61.76-27.79 61.76-61.76V392.56c0-15.54 12.6-28.13 28.13-28.13H543.6c37.18 0 66.96-33.29 61-71.53Zm-301.92 83.84c-40.9 0-74.06-33.16-74.06-74.06s33.16-74.06 74.06-74.06 74.06 33.16 74.06 74.06-33.16 74.06-74.06 74.06Z"></path><path d="M302.68 253.94c-26.92 0-48.74 21.82-48.74 48.74s21.82 48.74 48.74 48.74 48.74-21.82 48.74-48.74-21.82-48.74-48.74-48.74Zm0 73.11c-13.46 0-24.37-10.91-24.37-24.37s10.91-24.37 24.37-24.37 24.37 10.91 24.37 24.37-10.91 24.37-24.37 24.37Z"></path></svg>