<svg xmlns="http://www.w3.org/2000/svg" width="642" viewBox="0 0 642 589" height="589" style="overflow:visible;enable-background:new 0 0 642 589" xml:space="preserve"><circle cx="337" cy="219.1" r="26.5"></circle><path d="M0 83.5V589h103.5s-2.8-182.8 36.8-291.3c34.3-94.2 131.4-151.8 230.7-135.4 22.3-38.5 61.5-59.8 102.4-60.5 22.8-.3 42.4 16.5 43.5 39.2 1 20.7-10.9 31.8-24.8 31.8-16.9 0-28.2-16.8-22.7-32-40.4-9.9-81.9 9.9-100.1 45.6.4.7 18.2 16 15.7 42.8l16.9 24.1c-31.3 17.7-52.5 51.2-52.6 89.6v1.4c.3 44.9 34.6 81.7 78.5 85.8 86.9 10 157.1 74.6 175.5 158.7H642V83.5C642 37.4 604.6 0 558.5 0h-475C37.4 0 0 37.4 0 83.5zm603.5 403.3c-40.8-55.5-104.1-93.4-176.2-100.2-22.1-1.9-39.5-20.5-39.5-43.1v-.4c.3-42.1 40-72.5 80.1-62.8l-44.4-63.5c-.8-10-3.2-19.6-7.1-28.5 5.8-4.8 12.8-8.3 20.5-10 10.5 19.8 31.3 33.2 55.3 33.2 32.9 0 62.3-25.3 63.3-65.5 1.3-47.4-39.9-84.5-87.2-82.4-46.7 2-88.1 24.2-115.9 58.1v.1c-111.8-6.7-211.5 61.6-248.3 162.9-26.9 70-35.4 201-37.9 265.9H38.5V83.5c0-24.8 20.1-44.9 44.9-44.9h475.1c24.8 0 44.9 20.1 44.9 44.9v403.3z"></path></svg>