<svg data-name="Layer 1" xmlns="http://www.w3.org/2000/svg" viewBox="0 0 620.46 619.96"><path d="M479.81 171.47h-17.68L389.29 0l-72.84 171.47H140.64C63.09 171.47 0 234.56 0 312.12c0 77.55 63.09 140.64 140.64 140.64h17.68l72.84 167.2L304 452.76h175.81c77.55 0 140.64-63.09 140.64-140.64 0-77.55-63.09-140.64-140.64-140.64Zm0 217.12H260.45l-29.29 69.14-29.29-69.14h-61.23c-42.24 0-76.48-34.24-76.48-76.48s34.24-76.48 76.48-76.48H360l29.29-73.42 29.29 73.42h61.23c42.24 0 76.48 34.24 76.48 76.48s-34.24 76.48-76.48 76.48Z"></path></svg>