<svg xmlns="http://www.w3.org/2000/svg" width="591.3" viewBox="0 0 591.3 559.9" height="559.9"><path d="M574.2 321.4c-29.4-14.2-62-22.1-94.6-24.3l.1.1c-25.2-1.8-50.4 0-74.8 5.1-1.4-14.8-1.3-29.7.2-44.3 18.6 4 37.8 6.1 57.5 6.1 5.9 0 11.8-.2 17.7-.6 0 0 56-1.1 111.1-31.9L486 50.3c-5.2 2.8-10.3 5.9-15.2 9.2-27 18.3-50.2 42.7-68.4 69.7l.1-.1c-14.2 21-25.2 43.6-33 67.3-13.5-6.2-26.3-13.7-38.3-22.3 12.8-14.1 24.2-29.7 34-46.7 3-5.1 5.7-10.3 8.3-15.6 0 0 27-48.8 28-111.9H191.8c-.2 5.9 0 12.1.4 18 2.4 32.5 11.9 64.8 26.2 94.1v-.1c11.1 22.7 25.2 43.7 41.8 62.2-12.1 8.6-25 16-38.5 22-5.8-18.1-13.6-35.8-23.4-52.8-3-5.1-6.1-10.1-9.4-15 0 0-29-47.9-83.1-80.3L1.5 230c5 3.1 10.3 6 15.6 8.5 29.4 14.2 62.1 22.1 94.6 24.3l-.1-.1c25.2 1.8 50.4 0 74.8-5.1 1.4 14.8 1.3 29.7-.2 44.3-18.6-4-37.8-6.1-57.5-6.1-5.9 0-11.8.2-17.7.6 0 0-56 1.2-111.1 31.9l105.3 181.3c5.2-2.8 10.3-5.9 15.2-9.2 27-18.4 50.2-42.7 68.4-69.7l-.1.1c14.2-21 25.2-43.6 33-67.3 13.5 6.2 26.3 13.7 38.3 22.3-12.8 14.1-24.2 29.7-34 46.7-3 5.1-5.7 10.3-8.3 15.6 0 0-27 48.8-27.9 111.9h209.7c.2-5.9 0-12.1-.4-18-2.4-32.5-11.9-64.8-26.2-94.1v.1c-11.1-22.7-25.2-43.7-41.8-62.3 12.1-8.6 25-16 38.5-22 5.8 18.1 13.6 35.8 23.4 52.8 3 5.1 6.1 10.1 9.3 15 0 0 29 47.9 83.1 80.3L589.8 330c-5.1-3.2-10.3-6-15.6-8.6zM471.6 120.9l50.8 87.1c-19.4 5.4-39.4 8.1-59.8 8.1-16.2 0-32.1-1.7-47.4-5.1 11-33.5 30-64.6 56.4-90.1zM245.8 47.6h100.9c-5 19.4-12.7 38.1-22.9 55.8-8.1 14.1-17.6 26.9-28.1 38.5-23.5-26.2-41-58.7-49.9-94.3zM69.9 207.2l50-87.6c14.3 14.1 26.7 30.1 36.9 47.7 8.1 14 14.5 28.6 19.3 43.6-34.5 7.2-70.9 6.3-106.2-3.7zM119.7 439l-50.8-87.1c19.3-5.4 39.4-8.1 59.8-8.1 16.2 0 32.1 1.7 47.4 5-11 33.6-30 64.7-56.4 90.2zm225.8 72.8H244.6c5-19.4 12.7-37.7 22.9-55.4 8.1-14 17.5-26.9 28.1-38.5 23.5 26.4 40.9 58.4 49.9 93.9zm-50.1-159.4c-19.1-14.8-40.1-27.1-62.7-36.4 3.3-23.9 3.4-48.3.2-72.5 22.3-9.1 43.5-21.2 62.9-36.1 19.1 14.8 40.1 27.1 62.7 36.5-3.3 23.9-3.4 48.3-.2 72.5-22.3 9.1-43.5 21.2-62.9 36zm175.9 87.9c-14.3-14.1-26.7-30.1-36.9-47.7-8.1-14-14.5-28.6-19.3-43.6 34.6-7.2 71-6.3 106.3 3.8l-50.1 87.5z"></path></svg>