<svg data-name="Layer 1" xmlns="http://www.w3.org/2000/svg" viewBox="0 0 616.77 602.64"><path d="M464.35 602.64H152.41C68.38 602.64 0 534.27 0 450.23v-297.8C0 68.38 68.38 0 152.41 0h311.94c84.05 0 152.43 68.38 152.43 152.43v125.03H331.39v-81.81H287.9v81.81h-93.89v43.49h93.89v81.81h43.49v-81.81h285.38v129.27c0 84.04-68.38 152.42-152.43 152.42ZM152.41 82.58c-38.51 0-69.83 31.33-69.83 69.84v297.81c0 38.51 31.32 69.83 69.83 69.83h311.94c38.51 0 69.84-31.33 69.84-69.83v-46.69H413.98v81.81H205.32v-81.81h-93.89V194.88h93.89v-81.82h208.66v81.81h120.21v-42.45c0-38.51-31.34-69.84-69.84-69.84H152.41Z"></path></svg>