<svg data-name="Layer 1" xmlns="http://www.w3.org/2000/svg" viewBox="0 0 628.14 599.13"><path d="M620.46 144.93c-14.56-51.24-48.2-93.75-94.73-119.69-66.99-37.35-149.78-32.37-211.75 11.07C281.54 13.47 242.05 0 199.45 0 89.47 0 0 89.47 0 199.44c0 79.52 46.86 150.4 118.35 182.16-2.17 24.07.02 48.57 6.82 72.51 14.56 51.24 48.2 93.75 94.73 119.69 30.11 16.79 63.28 25.34 96.82 25.33 18.3 0 36.72-2.54 54.8-7.68 51.24-14.56 93.75-48.2 119.69-94.73 20.04-35.94 28.38-77.11 24.16-117.71 36.76-17.67 67.16-46.1 87.43-82.45 25.94-46.53 32.21-100.38 17.65-151.62Zm-58.08 129.09c-41.11 73.76-134.56 100.32-208.35 59.19-8.93-4.98-17.37-10.85-25.08-17.44-9.71-8.29-24.31-7.17-32.63 2.56-8.31 9.72-7.16 24.32 2.56 32.63 10.03 8.58 21.01 16.21 32.62 22.68 30.11 16.79 63.28 25.33 96.82 25.33 13.9 0 27.87-1.49 41.72-4.45.91 27.63-5.61 55.21-19.24 79.65-19.92 35.73-52.56 61.57-91.91 72.75-39.37 11.19-80.71 6.36-116.44-13.55-35.73-19.92-61.57-52.56-72.75-91.91-11.18-39.35-6.36-80.7 13.55-116.44 17.77-31.88 46.38-56.4 80.56-69.04 11.99-4.43 18.11-17.75 13.68-29.73-4.44-11.99-17.77-18.11-29.74-13.68-44.53 16.47-81.79 48.4-104.94 89.91-5.87 10.54-10.69 21.47-14.53 32.64-49.88-26.1-82.01-77.95-82.01-135.68 0-84.45 68.71-153.15 153.16-153.15s153.15 68.7 153.15 153.15c0 9.61-.89 19.22-2.66 28.57-2.36 12.56 5.9 24.66 18.46 27.03 12.54 2.38 24.66-5.89 27.03-18.45 2.29-12.17 3.45-24.66 3.45-37.14 0-50.17-18.66-96.04-49.36-131.12 46.41-27.87 105.39-29.56 153.66-2.65 35.73 19.92 61.57 52.56 72.75 91.91 11.18 39.35 6.36 80.7-13.55 116.44Z"></path></svg>