<svg data-name="Layer 1" xmlns="http://www.w3.org/2000/svg" viewBox="0 0 591.36 595.99"><path d="m442.06 218.28-4.02-2.32 4.02-2.33v-29.5l-9.26-5.35 9.26-5.35v-22.4l-15.65-9.05 15.65-9.03v-15.4l-21.92-12.63 21.92-12.67v-8.42L295.68 0 149.3 83.84v8.42l21.91 12.67-21.91 12.63v15.4l15.65 9.03-15.65 9.05v22.4l9.26 5.35-9.26 5.35v29.5l4.02 2.33-4.02 2.32v35.35l146.38 84.51 146.38-84.51v-35.35Zm-12.04-93.02-16.29 9.4-22.5-13.01 16.24-9.39 22.56 13ZM253.33 193l42.35 24.44L338.03 193l16.06 9.27-58.41 33.74-58.41-33.74 16.06-9.27Zm-17.44-24.71-4.2-2.42 22.47-12.97 4.19 2.42-22.46 12.97Zm59.79-34.52-30.99 17.89-4.19-2.42 35.18-20.31 35.18 20.31-4.19 2.42-30.99-17.89Zm29.67 51.91-29.67 17.12-29.67-17.12 29.67-17.13 29.67 17.13Zm7.66-30.36 4.19-2.42 22.47 12.97-4.2 2.42-22.46-12.97Zm23.2-20.74-60.53-34.94-60.53 34.94-9.68-5.6 70.21-40.59 70.21 40.59-9.68 5.6Zm-60.53-68.16-89.22 51.57-16.23-9.38 105.44-60.76 105.44 60.76-16.23 9.38-89.21-51.57Zm-76.54 66.22 9.67 5.6-22.49 12.98-9.67-5.58 22.48-13Zm-.13 40.55 4.2 2.42-16.05 9.27-4.2-2.43 16.05-9.26Zm-.76 40.07 77.43 44.73 77.43-44.73 9.53 5.5-86.97 50.45-86.97-50.45 9.53-5.5Zm149.91-37.65 4.2-2.42 16.05 9.26-4.2 2.43-16.05-9.27Zm16.89-24.39-22.49-12.98 9.67-5.6 22.48 13-9.67 5.58ZM154.71 88.06 295.68 7.31l140.98 80.75-22.86 13.22-118.12-68.07-118.12 68.07-22.86-13.22Zm6.64 37.2 22.55-13 16.24 9.39-22.5 13.01-16.29-9.4Zm22.63 27.71 9.66 5.57-16.04 9.26-9.64-5.57 16.02-9.26Zm-9.51 45.93 9.46-5.46 4.2 2.43-9.47 5.47-4.2-2.43Zm121.21 104.47-116.75-67.41 4.45-2.57 112.3 65.15 112.3-65.15 4.45 2.57-116.75 67.41ZM412.7 201.33l-9.47-5.47 4.2-2.43 9.46 5.46-4.2 2.43Zm1.07-33.53-16.04-9.26 9.66-5.57 16.02 9.26-9.64 5.57ZM584.07 338.26l-21.93 12.64.02-25.29-13.33-7.7-15.65 9.04v-18.08l-19.4-11.2-9.27 5.35v-10.7l-25.54-14.75-4.03 2.32v-4.64l-30.62-17.68-146.39 84.5v169.02l30.6 17.68 4.02-2.32v4.65l25.55 14.75 9.26-5.35v10.7l19.4 11.2 15.66-9.03v18.07l13.33 7.7 21.9-12.66.02 25.32 7.29 4.21 145.8-84.83.59-168.69-7.29-4.21Zm-34.6-6.08-.02 26.03-16.25 9.36v-25.99l16.28-9.4Zm-44.97-7.2 9.64-5.56v18.51l-9.65 5.58v-18.52Zm0 33.17 9.67-5.58v25.97l-9.67 5.58v-25.97Zm-29.56-49.01 4.21-2.42v10.92l-4.21 2.43v-10.93Zm0 32.9 4.2-2.42v18.53l-4.2 2.43v-18.53Zm0 33.18 4.2-2.42v25.94l-4.2 2.42v-25.94Zm-142.7-13.36.26 129.84-4.45 2.57V359.46l116.77-67.4v5.13l-112.58 64.67Zm25.68 154.8v-4.85l9.46-5.47v4.85l-9.46 5.46Zm9.44-134.52v89.42l-9.52 5.5-.2-100.54 87.18-50.08v11.01l-77.46 44.69Zm35.09 149.25-16.03 9.24V529.5l16.04-9.26v11.15Zm0-40.45-16.05 9.27v-4.85l16.05-9.26v4.85Zm0-39.63-16.06 9.27v-67.46l58.42-33.71v18.55l-42.34 24.45v48.9Zm12.67 32.31v-4.85l22.46-12.97v4.84l-22.46 12.97Zm22.49 16.31v11.18l-22.49 12.97v-11.16l22.49-12.99Zm-22.5 64.92v-18.81l22.52-12.98v18.76l-22.52 13.03Zm.02-120.86v-34.25l29.67-17.13v34.26l-29.67 17.12Zm28.8 18.16 30.99-17.89v-35.79l4.2-2.42v40.62l-35.19 20.31v-4.84Zm.02 34.12 60.53-34.95v-69.89l9.7-5.58.04 81.1-70.26 40.5v-11.18Zm.01 33.13 89.28-51.47-.05-103.05 16.24-9.36-.11 121.7-105.35 60.93V529.4Zm140.46-21.91-140.43 81.7-.02-26.4 118.02-68.25.12-136.33 22.88-13.18-.57 162.47ZM116.44 275.19v4.64l-4.03-2.32-25.55 14.74v10.7l-9.27-5.35-19.4 11.19v18.08l-15.66-9.04-13.34 7.7.02 25.29-21.93-12.65-7.29 4.21.55 168.69 145.78 84.87 7.29-4.21.02-25.32 21.89 12.67 13.34-7.7v-18.07l15.66 9.03 19.4-11.19v-10.7l9.27 5.35 25.55-14.74v-4.65l4.03 2.32 30.62-17.67.03-169.02-146.36-84.53-30.62 17.67Zm-4.21 31.49 4.21 2.42v10.93l-4.21-2.43v-10.92Zm0 32.89 4.2 2.43v18.53l-4.2-2.43v-18.53Zm0 33.18 4.2 2.42v25.94l-4.2-2.42v-25.94Zm-35.01-53.39 9.64 5.57v18.52l-9.66-5.58v-18.51Zm-.01 33.15 9.66 5.58v25.97l-9.68-5.58.02-25.97Zm-19.02-10.99-.02 25.99-16.25-9.37-.02-26.03 16.29 9.41Zm89.11 247.64L6.88 507.43l-.53-162.47 22.87 13.19.09 136.33 118 68.28-.02 26.4Zm.04-41.05L42.01 487.16l-.08-121.7 16.24 9.36-.07 103.05 89.26 51.49-.02 18.75Zm.04-40.7-70.25-40.52.06-81.1 9.69 5.59v69.89l60.52 34.96v11.18Zm.03-40.46-35.18-20.32v-40.62l4.2 2.42v35.79l30.98 17.9v4.84Zm28.79 97.87-22.53-13.04.02-18.76 22.52 12.99v18.81Zm0-40.77-22.5-12.98v-11.18l22.5 12.99v11.16Zm0-40.46-22.46-12.98v-4.84l22.46 12.97v4.85Zm0-39.63-29.67-17.13v-34.26l29.67 17.13v34.25Zm28.71 96.65-16.03-9.25v-11.15l16.04 9.26v11.13Zm.01-40.42-16.05-9.27v-4.85l16.05 9.27v4.85Zm.01-39.63-16.06-9.28v-48.9l-42.34-24.46v-18.55l58.42 33.72-.03 67.46Zm28.46 56.08-9.46-5.46v-4.85l9.47 5.47v4.85Zm.08-39.59-9.53-5.51.04-89.42-77.45-44.71V326.4l87.17 50.1-.23 100.54Zm29.78 17.2-4.45-2.57.29-129.84-112.57-64.7v-5.13l116.74 67.42-.02 134.81Z"></path></svg>