<svg xmlns="http://www.w3.org/2000/svg" width="612.7" viewBox="0 0 612.7 533.2" height="533.2" xml:space="preserve"><path d="m611.1 254.5-14-24.4c-3.3-7-11.7-10-18.7-6.7l-172.5 99v154.4h-28.5V306l185.8-106.8c6.5-3.8 8.9-12.1 5.3-18.7l-13.9-24.1c-3.4-7.2-12-10.2-19.2-6.8l-215 123.8v203.4h-28.2V273.4L78.5 150.9c-6.6-4.3-15.3-2.5-19.6 4.1-.3.4-15 25.7-15 25.7-3.5 7.1-.7 15.7 6.2 19.5l185.4 106.5v169.9h-28.7v-154l-171-97.8c-6.3-4.3-14.8-2.7-19.1 3.5-.4.6-15.1 26.3-15.1 26.3-3.6 7.1-1 15.9 6.1 19.8l142 80.8v178h313.4l.3-178 142.1-81.7c6.6-3.8 9.1-12.1 5.6-19z"></path><path d="m135.5 52.2 170.3 98.2L478.1 51c6.3-4 8.6-12.1 5.3-18.8L469.3 7.9C465.9 1 457.6-2 450.7 1.4L306.3 84.5 163.5 2.7c-6.2-4.2-14.7-2.5-18.9 3.8L129.4 33c-3.6 7-.8 15.6 6.1 19.2z"></path><path d="m92.5 126 213.2 122.9 215.1-123.8c6-4 8.2-11.7 5.3-18.3l-14.8-25.3c-3.8-6.8-12.4-9.3-19.2-5.5L305.7 183.1 121.2 76.4c-7-4-16-1.6-20 5.4l-14.4 24.9c-3.5 7-1 15.4 5.7 19.3z"></path></svg>