<svg data-name="Layer 1" xmlns="http://www.w3.org/2000/svg" viewBox="0 0 621.75 498.34"><path d="M621.75 169.92v-19.81c0-9.04-7.33-16.37-16.37-16.37h-39.86c1.48-2.46 2.39-5.31 2.39-8.4v-19.81c0-9.04-7.33-16.37-16.37-16.37h-49.43c-9.04 0-16.37 7.33-16.37 16.37v19.81c0 9.04 7.33 16.37 16.37 16.37h39.86c-1.48 2.46-2.39 5.31-2.39 8.4v19.81c0 3.08.9 5.94 2.39 8.4h-39.86c-9.04 0-16.37 7.33-16.37 16.37v19.81c0 3.08.9 5.94 2.39 8.4h-30.52c1.48-2.46 2.39-5.31 2.39-8.4v-19.81c0-9.04-7.33-16.37-16.37-16.37h-40.08c1.48-2.46 2.39-5.31 2.39-8.4v-19.81c0-9.04-7.33-16.37-16.37-16.37h-39.86c1.48-2.46 2.39-5.31 2.39-8.4v-19.81c0-3.08-.9-5.94-2.39-8.4h39.86c9.04 0 16.37-7.33 16.37-16.37V60.95c0-3.08-.9-5.94-2.39-8.4h39.86c9.04 0 16.37-7.33 16.37-16.37V16.37c0-9.04-7.33-16.37-16.37-16.37h-49.43c-9.04 0-16.37 7.33-16.37 16.37v19.81c0 3.08.9 5.94 2.39 8.4h-30.52c1.48-2.46 2.39-5.31 2.39-8.4V16.37C351.87 7.33 344.54 0 335.5 0h-49.43c-9.04 0-16.37 7.33-16.37 16.37v19.81c0 3.08.9 5.94 2.39 8.4h-30.52c1.48-2.46 2.39-5.31 2.39-8.4V16.37c0-9.04-7.33-16.37-16.37-16.37h-49.43c-9.04 0-16.37 7.33-16.37 16.37v19.81c0 9.04 7.33 16.37 16.37 16.37h40.08c-1.48 2.46-2.39 5.31-2.39 8.4v19.81c0 9.04 7.33 16.37 16.37 16.37h39.86c-1.48 2.46-2.39 5.31-2.39 8.4v19.81c0 3.08.9 5.94 2.39 8.4h-39.86c-9.04 0-16.37 7.33-16.37 16.37v19.81c0 3.08.9 5.94 2.39 8.4h-40.09c-9.04 0-16.37 7.33-16.37 16.37v19.81c0 3.08.9 5.94 2.39 8.4h-30.3c1.48-2.46 2.39-5.31 2.39-8.4v-19.81c0-9.04-7.33-16.37-16.37-16.37H79.8c1.48-2.46 2.39-5.31 2.39-8.4v-19.81c0-3.08-.9-5.94-2.39-8.4h40.08c9.04 0 16.37-7.33 16.37-16.37v-19.81c0-9.04-7.33-16.37-16.37-16.37H70.45c-9.04 0-16.37 7.33-16.37 16.37v19.81c0 3.08.9 5.94 2.39 8.4h-40.1C7.33 133.74 0 141.07 0 150.11v19.81c0 9.04 7.33 16.37 16.37 16.37h40.08c-1.48 2.46-2.39 5.31-2.39 8.4v19.81c0 9.04 7.33 16.37 16.37 16.37h39.86c-1.48 2.46-2.39 5.31-2.39 8.4v19.81c0 3.08.9 5.94 2.39 8.4H70.43c-9.04 0-16.37 7.33-16.37 16.37v19.81c0 3.08.9 5.94 2.39 8.4H16.37C7.33 312.06 0 319.39 0 328.43v19.81c0 9.04 7.33 16.37 16.37 16.37h40.08c-1.48 2.46-2.39 5.31-2.39 8.4v19.81c0 9.04 7.33 16.37 16.37 16.37h49.43c9.04 0 16.37-7.33 16.37-16.37v-19.81c0-9.04-7.33-16.37-16.37-16.37H79.77c1.48-2.46 2.39-5.31 2.39-8.4v-19.81c0-3.08-.9-5.94-2.39-8.4h40.08c9.04 0 16.37-7.33 16.37-16.37v-19.81c0-3.08-.9-5.94-2.39-8.4h30.3c-1.48 2.46-2.39 5.31-2.39 8.4v19.81c0 9.04 7.33 16.37 16.37 16.37h40.08c-1.48 2.46-2.39 5.31-2.39 8.4v19.81c0 9.04 7.33 16.37 16.37 16.37h39.86c-1.48 2.46-2.39 5.31-2.39 8.4v19.81c0 3.08.9 5.94 2.39 8.4h-39.86c-9.04 0-16.37 7.33-16.37 16.37v19.81c0 3.08.9 5.94 2.39 8.4h-39.86c-9.04 0-16.37 7.33-16.37 16.37v19.81c0 9.04 7.33 16.37 16.37 16.37h49.43c9.04 0 16.37-7.33 16.37-16.37v-19.81c0-3.08-.9-5.94-2.39-8.4h30.52c-1.48 2.46-2.39 5.31-2.39 8.4v19.81c0 9.04 7.33 16.37 16.37 16.37h49.43c9.04 0 16.37-7.33 16.37-16.37v-19.81c0-3.08-.9-5.94-2.39-8.4h30.52c-1.48 2.46-2.39 5.31-2.39 8.4v19.81c0 9.04 7.33 16.37 16.37 16.37h49.43c9.04 0 16.37-7.33 16.37-16.37v-19.81c0-9.04-7.33-16.37-16.37-16.37H403.5c1.48-2.46 2.39-5.31 2.39-8.4v-19.81c0-9.04-7.33-16.37-16.37-16.37h-39.86c1.48-2.46 2.39-5.31 2.39-8.4v-19.81c0-3.08-.9-5.94-2.39-8.4h39.86c9.04 0 16.37-7.33 16.37-16.37v-19.81c0-3.08-.9-5.94-2.39-8.4h40.08c9.04 0 16.37-7.33 16.37-16.37v-19.81c0-3.08-.9-5.94-2.39-8.4h30.52c-1.48 2.46-2.39 5.31-2.39 8.4v19.81c0 9.04 7.33 16.37 16.37 16.37h39.86c-1.48 2.46-2.39 5.31-2.39 8.4v19.81c0 3.08.9 5.94 2.39 8.4h-39.86c-9.04 0-16.37 7.33-16.37 16.37v19.81c0 9.04 7.33 16.37 16.37 16.37h49.43c9.04 0 16.37-7.33 16.37-16.37v-19.81c0-3.08-.9-5.94-2.39-8.4h39.86c9.04 0 16.37-7.33 16.37-16.37v-19.81c0-9.04-7.33-16.37-16.37-16.37h-39.86c1.48-2.46 2.39-5.31 2.39-8.4v-19.81c0-9.04-7.33-16.37-16.37-16.37H511.4c1.48-2.46 2.39-5.31 2.39-8.4v-19.81c0-3.08-.9-5.94-2.39-8.4h40.08c9.04 0 16.37-7.33 16.37-16.37v-19.81c0-3.08-.9-5.94-2.39-8.4h39.86c9.04 0 16.37-7.33 16.37-16.37Zm-227.79 97.56c-9.04 0-16.37 7.33-16.37 16.37v19.81c0 3.08.9 5.94 2.39 8.4h-39.86c-9.04 0-16.37 7.33-16.37 16.37v19.81c0 3.08.9 5.94 2.39 8.4h-30.52c1.48-2.46 2.39-5.31 2.39-8.4v-19.81c0-9.04-7.33-16.37-16.37-16.37h-39.86c1.48-2.46 2.39-5.31 2.39-8.4v-19.81c0-9.04-7.33-16.37-16.37-16.37h-40.09c1.48-2.46 2.39-5.31 2.39-8.4v-19.81c0-3.08-.9-5.94-2.39-8.4h40.08c9.04 0 16.37-7.33 16.37-16.37v-19.81c0-3.08-.9-5.94-2.39-8.4h39.86c9.04 0 16.37-7.33 16.37-16.37v-19.81c0-3.08-.9-5.94-2.39-8.4h30.52c-1.48 2.46-2.39 5.31-2.39 8.4v19.81c0 9.04 7.33 16.37 16.37 16.37h39.86c-1.48 2.46-2.39 5.31-2.39 8.4v19.81c0 9.04 7.33 16.37 16.37 16.37h40.08c-1.48 2.46-2.39 5.31-2.39 8.4v19.81c0 3.08.9 5.94 2.39 8.4h-40.09Zm-98.35 141.71h30.52c-1.48 2.46-2.39 5.31-2.39 8.4v19.81c0 3.08.9 5.94 2.39 8.4h-30.52c1.48-2.46 2.39-5.31 2.39-8.4v-19.81c0-3.08-.9-5.94-2.39-8.4Zm30.52-320.02h-30.52c1.48-2.46 2.39-5.31 2.39-8.4V60.96c0-3.08-.9-5.94-2.39-8.4h30.52c-1.48 2.46-2.39 5.31-2.39 8.4v19.81c0 3.08.9 5.94 2.39 8.4Z"></path><path d="M354.82 222.89h-17.67v-17.67c0-9.04-7.33-16.37-16.37-16.37h-19.81c-9.04 0-16.37 7.33-16.37 16.37v17.67h-17.67c-9.04 0-16.37 7.33-16.37 16.37v19.81c0 9.04 7.33 16.37 16.37 16.37h17.67v17.67c0 9.04 7.33 16.37 16.37 16.37h19.81c9.04 0 16.37-7.33 16.37-16.37v-17.67h17.67c9.04 0 16.37-7.33 16.37-16.37v-19.81c0-9.04-7.33-16.37-16.37-16.37Zm-31.18 39.15h-25.75v-25.75h25.75v25.75Z"></path></svg>