<svg xmlns="http://www.w3.org/2000/svg" width="585.5" viewBox="0 0 585.5 451.9" height="451.9"><path class="st0" d="M529.9 305.9c-12.9 0-24.7 4.4-34.2 11.7-13 10.2-58.3 43.8-58.3 43.8s45.3 33.7 58.3 43.8c9.4 7.4 21.3 11.7 34.2 11.7 30.7 0 55.6-24.9 55.6-55.6 0-30.5-24.9-55.4-55.6-55.4zM529.9 170.4c-12.9 0-24.7 4.4-34.2 11.7-13 10.2-58.3 43.8-58.3 43.8s45.3 33.7 58.3 43.8c9.4 7.4 21.3 11.7 34.2 11.7 30.7 0 55.6-24.9 55.6-55.6s-24.9-55.4-55.6-55.4zM495.7 134.2c9.4 7.4 21.3 11.7 34.2 11.7 30.7 0 55.6-24.9 55.6-55.6s-24.9-55.6-55.6-55.6c-12.9 0-24.7 4.4-34.2 11.7-13 10.2-58.3 43.8-58.3 43.8s45.3 33.8 58.3 44z"></path><path class="st0" d="M398.1 373.7c-9.4 0-18.3 2.3-26 6.5l-59.6 30.4c-7.8 4.2-16.7 6.5-26.1 6.5-30.7 0-55.6-24.9-55.6-55.6 0-30.7 24.9-55.6 55.6-55.6 9.5 0 18.4 2.4 26.1 6.5l59.6 30.4c7.8 4.1 16.6 6.5 26 6.5 30.7 0 55.6-24.9 55.6-55.6s-24.9-55.6-55.6-55.6c-9.4 0-18.3 2.3-26 6.5L312.4 275c-7.8 4.2-16.7 6.5-26.1 6.5-30.7 0-55.6-24.9-55.6-55.6s24.9-55.6 55.6-55.6c9.5 0 18.4 2.4 26.1 6.5l59.6 30.4c7.8 4.1 16.6 6.5 26 6.5 30.7 0 55.6-24.9 55.6-55.6s-24.9-55.6-55.6-55.6c-9.4 0-18.3 2.3-26 6.5l-59.6 30.4c-7.8 4.2-16.7 6.5-26.1 6.5-30.7 0-55.6-24.9-55.6-55.6 0-30.7 24.9-55.6 55.6-55.6 9.5 0 18.4 2.4 26.1 6.5l59.5 30.3c7.8 4.2 16.7 6.5 26.2 6.5 30.7 0 55.6-24.9 55.6-55.6 0-8-1.7-15.7-4.8-22.6L0 0v451.9h448.9c3.1-6.9 4.8-14.5 4.8-22.6 0-30.7-24.9-55.6-55.6-55.6zm-251-271.1c12.9 0 24.7 4.4 34.2 11.7 13 10.2 58.3 43.8 58.3 43.8s-45.3 33.7-58.3 43.8c-9.4 7.4-21.3 11.7-34.2 11.7-30.7 0-55.6-24.9-55.6-55.6s24.9-55.4 55.6-55.4zm0 246.7c-30.7 0-55.6-24.9-55.6-55.6s24.9-55.6 55.6-55.6c12.9 0 24.7 4.4 34.2 11.7 13 10.2 58.3 43.8 58.3 43.8s-45.3 33.7-58.3 43.8c-9.5 7.5-21.4 11.9-34.2 11.9z"></path></svg>