<svg data-name="Layer 1" xmlns="http://www.w3.org/2000/svg" viewBox="0 0 626.89 439.52"><path d="M386.38 321.8c-12.89 0-24.43-7.24-30.11-18.9-5.57-11.43-4.27-24.16 3.48-34.06l79.72-101.23c6.71-8.57 7.86-19.53 3.1-29.32-4.77-9.79-14.12-15.63-25.01-15.63H276.05l-91.04 117.72h141.55c11.45 0 17.88 13.19 10.82 22.21l-66.16 84.55c-29.36 37.52-2.63 92.38 45.01 92.38h126.54l90.18-117.72H386.4Z"></path><path d="m369.73 1.51-89.87 116.21h137.69c12.63 0 23.92 7.05 29.45 18.41 5.53 11.36 4.13 24.59-3.65 34.54L363.63 271.9c-6.55 8.37-7.64 19.15-2.92 28.84 4.84 9.94 14.68 16.12 25.66 16.12h150.34l90.18-117.72H474.53c-9.05 0-14.13-10.42-8.55-17.55l69.81-89.21C565.15 54.86 538.42 0 490.78 0H370.2c0 .53-.13 1.06-.48 1.51ZM179.92 238.87l89.87-116.2H73.65c-1.37 0-2.47-1.11-2.47-2.47s1.11-2.47 2.47-2.47h199.96L364.65 0H174.87c-30.37 0-59.03 14.07-77.61 38.09L12.05 148.26c-29.05 37.57-2.28 92.12 45.21 92.12h122.18c0-.53.13-1.06.48-1.51Z"></path></svg>