<svg xmlns="http://www.w3.org/2000/svg" width="616.5" viewBox="0 0 616.5 616.5" height="616.5" style="enable-background:new 0 0 616.5 616.5" xml:space="preserve"><path d="M616.5 483.4v-69.2H481.3v-212h135.2V133c-73.5 0-133-59.6-133-133h-69.2v135.2h-212V0H133c0 73.5-59.6 133-133 133v69.2h135.2v212H0v69.2c73.5 0 133 59.6 133 133h69.2V481.3h212v135.2h69.2c0-73.5 59.6-133.1 133.1-133.1zm-308.3-67.9c-59.2 0-107.2-48-107.2-107.2C201 249 249 201 308.2 201s107.2 48 107.2 107.2c.1 59.3-47.9 107.3-107.2 107.3z"></path></svg>