<svg data-name="Layer 1" xmlns="http://www.w3.org/2000/svg" viewBox="0 0 614.93 614.93"><path d="M308.63 465.21c-40.66 0-73.62-32.96-73.62-73.62s32.96-73.62 73.62-73.62h306.12c.12-3.49.18-6.99.18-10.51C614.93 137.66 477.27 0 307.46 0 195.26 0 97.09 60.11 43.4 149.89h257.97c1.63-.11 3.27-.17 4.93-.17 40.66 0 73.62 32.96 73.62 73.62s-32.96 73.62-73.62 73.62H.18c-.12 3.49-.18 6.99-.18 10.51 0 169.81 137.66 307.46 307.46 307.46 112.21 0 210.37-60.11 264.06-149.89H313.56c-1.63.11-3.27.17-4.93.17Z"></path><path d="M237.8 193.5c5.8 0 10.51-4.7 10.51-10.51s-4.7-10.51-10.51-10.51H31.92c-3.41 6.86-6.56 13.87-9.46 21.01H237.8ZM224.5 235.52c5.8 0 10.51-4.7 10.51-10.51s-4.7-10.51-10.51-10.51H14.81c-2.23 6.9-4.22 13.91-5.96 21.01H224.5ZM237.8 277.54c5.8 0 10.51-4.7 10.51-10.51s-4.7-10.51-10.51-10.51H4.48c-1.19 6.93-2.16 13.93-2.88 21.01h236.2ZM366.62 435.11c0 5.8 4.7 10.51 10.51 10.51h205.88c3.41-6.86 6.56-13.87 9.46-21.01H377.13c-5.8 0-10.51 4.7-10.51 10.51ZM379.92 393.09c0 5.8 4.7 10.51 10.51 10.51h209.69c2.23-6.9 4.22-13.91 5.96-21.01H390.43c-5.8 0-10.51 4.7-10.51 10.51ZM377.13 340.57c-5.8 0-10.51 4.7-10.51 10.51s4.7 10.51 10.51 10.51h233.32c1.19-6.93 2.16-13.93 2.88-21.01h-236.2Z"></path></svg>