<svg data-name="Layer 1" xmlns="http://www.w3.org/2000/svg" viewBox="0 0 616.08 624.04"><path d="M464.81 265.15V90.52L308.03 0 151.25 90.52v174.65L0 352.49v181.03l156.78 90.52 151.26-87.33 151.26 87.33 156.78-90.52V352.49l-151.27-87.34Zm140.22 175.02-64.62 37.31v-74.92l64.62-37.31v74.92ZM11.05 365.25l64.57 37.28v74.92l-64.57-37.28v-74.92Zm448.25 71.37-64.99-37.52 64.8-37.23 64.83 37.43-64.64 37.32Zm-302.52 0L91.79 399.1l64.8-37.23 64.83 37.43-64.64 37.32Zm75.69-43.7-64.8-37.41 64.67-37.15 64.64 37.32-64.51 37.24Zm81.09-46.81V271.9l64.52-37.25v74.21l-64.52 37.25Zm0-86.97v-74.92l64.52-37.25v74.92l-64.52 37.25Zm-11.05 0-64.57-37.28v-74.92l64.57 37.28v74.92Zm0 12.76v74.21l-64.57-37.28v-74.21l64.57 37.28Zm81.23 46.46 64.31 37.13-64.8 37.23-64.15-37.04 64.64-37.32Zm151.25 74.56-64.8-37.41 64.67-37.15 64.65 37.32L535 392.92Zm-75.87-43.8-64.33-37.14 64.51-37.25 64.49 37.23-64.67 37.15Zm-69.99-46.64v-74.21l64.63-37.31v74.21l-64.63 37.31Zm64.63-124.29-64.63 37.31v-74.92l64.63-37.31v74.92Zm-70.04-47.24-64.8-37.41 64.67-37.15 64.65 37.32-64.51 37.25Zm-11.05 6.38-64.64 37.32-64.99-37.52 64.8-37.23 64.83 37.43Zm-140.69-6.59L167.83 93.7l64.64-37.32 64.31 37.13-64.8 37.23Zm-5.1 9.82v74.92l-64.57-37.28v-74.92l64.57 37.28Zm0 87.68v74.21l-64.57-37.28v-74.21l64.57 37.28Zm-5.61 83.73-64.67 37.15-64.33-37.14 64.51-37.24 64.49 37.23Zm-75.75 43.52-64.8 37.23-64.15-37.04 64.64-37.32 64.3 37.13Zm-58.84 53.43 64.58 37.28v74.92l-64.58-37.28v-74.92Zm64.58 124.96v74.21l-64.58-37.28V496.6l64.58 37.28Zm11.05 0 64.52-37.25v74.21l-64.52 37.25v-74.21Zm0-12.76V446.2l64.52-37.25v74.92l-64.52 37.25Zm75.58-118.55 64.62-37.31v74.92l-64.62 37.31v-74.92Zm75.7-37.31 64.57 37.28v74.92l-64.57-37.28v-74.92Zm75.63 43.66 64.57 37.28v74.92l-64.57-37.28v-74.92Zm64.57 124.96v74.21l-64.57-37.28V496.6l64.57 37.28Zm11.05 0 64.53-37.25v74.21l-64.53 37.25v-74.21Zm0-12.76V446.2l64.53-37.25v74.92l-64.53 37.25ZM372.52 49.99l-64.67 37.15L243.52 50l64.51-37.24 64.49 37.23ZM11.05 452.93l64.57 37.28v74.21l-64.57-37.28v-74.21Zm226.83 111.52v-74.21l64.62-37.31v74.21l-64.62 37.31Zm75.7-111.53 64.57 37.28v74.21l-64.57-37.28v-74.21Zm226.83 111.52v-74.21l64.62-37.31v74.21l-64.62 37.31Z"></path></svg>