<svg xmlns="http://www.w3.org/2000/svg" width="604.1" viewBox="0 0 604.1 322.2" height="322.2" xml:space="preserve"><path d="M584.8 122.1c-12-11.7-56.3-49.9-124.1-49.9-29.3 0-58.9 7.4-85.5 21.5l-.8.4c-24.3 12.9-45.2 24-72.3 24-26.8 0-46.4-10.1-71.3-22.9l-1.1-.6c-28.8-14.8-57.8-22.4-86.2-22.4-67.6 0-113 38-125.3 49.6-4.2 3.9-4.3 10.5-.4 14.6 3.9 4.2 10.5 4.3 14.6.4C43.3 126.6 83.5 93 143.5 93c25.1 0 50.9 6.7 76.7 20.1l1.1.6c25.2 13 48.9 25.2 80.8 25.2 32.3 0 56.4-12.8 82-26.4l.8-.4C408.5 99.6 434.7 93 460.6 93c60 0 99.1 33.6 109.7 43.9 2 2 4.6 3 7.2 3 2.7 0 5.4-1 7.4-3.1 4.1-4.1 4-10.7-.1-14.7zM568.3 150.8H32.6c-5.7 0-10.4 4.6-10.4 10.4 0 5.7 4.6 10.4 10.4 10.4h535.7c5.7 0 10.4-4.6 10.4-10.4-.1-5.8-4.7-10.4-10.4-10.4z"></path><path d="M6.7 113.5c5.4 2 11.3-.7 13.3-6.1C29.4 82.2 46.1 60.6 68.2 45c22.6-15.9 49.2-24.4 76.9-24.4 36.1 0 70 14.2 95.3 40L267.8 91l.4.4c7.3 7.3 16.5 15 33.8 15 17.4 0 26.6-7.7 33.8-15L365 59.3c25.2-24.9 58.5-38.6 93.9-38.6 27.7 0 54.3 8.4 76.9 24.4 22.1 15.6 38.7 37.2 48.2 62.4 1.6 4.2 5.5 6.7 9.7 6.7 1.2 0 2.4-.2 3.6-.7 5.4-2 8.1-8 6.1-13.3-10.9-29.1-30.1-54-55.6-72C521.7 9.7 491 0 458.9 0c-41 0-79.6 15.9-108.7 44.8l-.2.2-29 32c-5.3 5.3-9.6 8.8-19 8.8s-13.7-3.5-19-8.8l-27.3-30.4-.3-.3C226.1 16.5 187 0 145.1 0c-32 0-62.8 9.7-88.8 28.1-25.5 18-44.7 42.9-55.6 72-2 5.4.7 11.4 6 13.4zM143.4 250c29.3 0 58.9-7.4 85.5-21.5l.8-.4c24.3-12.9 45.2-23.9 72.3-23.9 26.8 0 46.4 10.1 71.3 22.9l1.1.6c28.8 14.8 57.8 22.4 86.2 22.4 67.6 0 113-38 125.3-49.6 4.2-3.9 4.3-10.5.4-14.6-3.9-4.2-10.5-4.3-14.6-.4-10.9 10.3-51.1 43.9-111 43.9-25.1 0-50.9-6.7-76.7-20.1l-1.1-.6c-25.2-13-48.9-25.2-80.8-25.2-32.3 0-56.4 12.8-82 26.4l-.8.4c-23.6 12.5-49.8 19.1-75.8 19.1-60 0-99.1-33.6-109.7-43.9-4.1-4-10.7-3.9-14.7.2s-3.9 10.7.2 14.7C31.2 211.8 75.6 250 143.4 250z"></path><path d="M597.3 208.7c-5.4-2-11.3.7-13.3 6.1-9.4 25.2-26.1 46.8-48.2 62.4-22.6 15.9-49.2 24.4-76.9 24.4-36.1 0-70-14.2-95.3-40l-27.4-30.4-.4-.4c-7.3-7.3-16.5-15-33.8-15-17.4 0-26.6 7.7-33.8 15L239 262.9c-25.2 24.9-58.5 38.6-93.9 38.6-27.7 0-54.3-8.4-76.9-24.4-22.1-15.6-38.7-37.2-48.2-62.4-2-5.4-8-8.1-13.3-6.1-5.4 2-8.1 8-6.1 13.3 10.9 29.1 30.1 54 55.6 72C82.3 312.3 113 322 145 322c41 0 79.6-15.9 108.7-44.8l.2-.2 29.1-32.1c5.3-5.3 9.6-8.8 19-8.8s13.7 3.5 19 8.8l27.3 30.4.3.3C377.9 305.5 417 322 458.8 322c32 0 62.8-9.7 88.8-28.1 25.5-18 44.7-42.9 55.6-72 2.2-5.2-.5-11.1-5.9-13.2z"></path></svg>