<svg data-name="Layer 1" xmlns="http://www.w3.org/2000/svg" viewBox="0 0 534.18 628.82"><path d="M267.09 0C119.81 0 0 141.04 0 314.41s119.81 314.41 267.09 314.41 267.09-141.04 267.09-314.41S414.37 0 267.09 0Zm0 556.24c-107.25 0-194.5-108.48-194.5-241.83s87.25-241.82 194.5-241.82c77.01 0 143.71 55.94 175.2 136.85-46.31 27.51-180.44 16.75-180.44 16.75v140.46c-7.15-1.43-14.57-2.26-22.24-2.26-53.31 0-90.48 36.51-90.48 81.55s37.17 81.55 90.48 81.55 96.53-36.51 96.53-81.55V317.99c70.1 19.53 107.56-23.49 122.25-47.02 2.07 14.11 3.21 28.61 3.21 43.45 0 133.34-87.25 241.83-194.5 241.83Z"></path></svg>