<svg data-name="Layer 1" xmlns="http://www.w3.org/2000/svg" viewBox="0 0 587.18 485.43"><path d="M0 97.13v383.21h98.44V97.13H0Zm90.55 375.32H7.89V105.01h82.66v367.44ZM270.23 133.13 298.15 0h-98.97L98.44 480.34h98.97l20.41-97.33c-15.32-27.99-24.04-60.11-24.04-94.28 0-63.33 29.96-119.63 76.45-155.61Z"></path><path d="M390.48 92.03c-45.3 0-87 15.36-120.25 41.09L217.82 383c33.39 61.03 98.19 102.42 172.66 102.42 108.63 0 196.7-88.07 196.7-196.7s-88.07-196.7-196.7-196.7Zm0 295.88c-54.78 0-99.18-44.41-99.18-99.18s44.41-99.18 99.18-99.18 99.18 44.41 99.18 99.18-44.41 99.18-99.18 99.18Z"></path></svg>