<svg xmlns="http://www.w3.org/2000/svg" width="605.1" viewBox="0 0 605.1 642" height="642" style="overflow:visible;enable-background:new 0 0 605.1 642" xml:space="preserve"><path d="M605.1 487.9c0 85.1-69 154.1-154 154.1H0V0h451.1c85.1 0 154 69 154 154.1s-69 154.1-154 154.1H341.8c-50.1 0-109.9-24.7-109.9-75.4 0-35.2 30.6-64.2 69-64.2 38.1 0 69 28.8 69 64.2 0 22.2-12.1 41.8-30.5 53.2v7.7c40.7 3.4 85.1-32.4 85.1-82.6 0-45.6-37-82.6-82.7-82.6h-162v385.2h162c45.7 0 82.7-37 82.7-82.6 0-50.2-44.4-86-85.1-82.6v7.7c18.4 11.4 30.5 31 30.5 53.2 0 35.4-30.9 64.2-69 64.2-38.5 0-69-29-69-64.2 0-50.7 59.8-75.4 109.9-75.4H451c85.1-.2 154.1 68.9 154.1 153.9z"></path></svg>