<svg xmlns="http://www.w3.org/2000/svg" width="621.7" viewBox="0 0 621.7 624.5" height="624.5" xml:space="preserve" style="enable-background:new 0 0 621.7 624.5"><path d="M493.2 303.8c11.9 0 21.1-10.6 19.3-22.3-15.5-97.3-100-172-201.6-172s-186.1 74.6-201.6 172c-1.9 11.7 7.4 22.3 19.3 22.3h49.9c9.2 0 17.1-6.4 19-15.4 11-52.5 57.7-92.1 113.5-92.1s102.4 39.6 113.5 92.1c1.9 9 9.8 15.4 19 15.4h49.7zM30.5 411.6h560.7c9.5 0 17.9-6.3 20.5-15.4 4.7-16.7 7.9-34 9.8-51.8 1.3-12.6-8.5-23.5-21.1-23.5h-579c-12.6 0-22.4 11-21.1 23.5 1.8 17.7 5.1 35 9.8 51.8 2.5 9.1 10.9 15.4 20.4 15.4zM31 450.7c10.3 20.8 22.8 40.2 37.3 58.1 4.6 5.6 11.4 9 18.6 9h447.9c7.3 0 14-3.4 18.6-9 14.5-17.8 27-37.3 37.3-58.1 5-10.2-2.3-22.2-13.7-22.2H44.6c-11.4.1-18.7 12.1-13.6 22.2z"></path><path d="M310.8 213.3c-42.5 0-78.8 27-92.8 64.7-4.6 12.5 5.1 25.7 18.4 25.7h148.8c13.3 0 23-13.2 18.4-25.7-13.9-37.7-50.2-64.7-92.8-64.7zM119.6 534.8c-9.9 0-14.5 12.5-6.9 18.8 53.9 44.3 122.9 70.9 198.1 70.9s144.2-26.6 198.1-70.9c7.7-6.3 3.1-18.8-6.9-18.8H119.6z"></path><path d="M72 303.8c10 0 18.1-7.5 19.3-17.4C104.9 177.2 198.1 92.5 310.8 92.5s206 84.7 219.5 193.8c1.2 9.9 9.4 17.4 19.3 17.4h52.6c11.6 0 20.4-10 19.3-21.6C606.4 123.8 473.1 0 310.8 0S15.2 123.8.1 282.2c-1.1 11.5 7.8 21.6 19.3 21.6H72z"></path></svg>