<svg xmlns="http://www.w3.org/2000/svg" width="642" viewBox="0 0 642 642" height="642" style="overflow:visible;enable-background:new 0 0 642 642" xml:space="preserve"><path d="M640.1 166.7c-3.2 20.7-10.1 40.3-20.2 57.8H417.5V22.1c17.5-10.1 37-17 57.8-20.2v164.8h164.8z"></path><path d="M642 81.7v57.7H502.6V0h57.7v81.7z"></path><path d="M642.038 54.362h-54.4v-54.4h54.4z"></path><g><path d="M390.2 584.2h210.3c-30.9 35.4-76.3 57.8-127 57.8H0V168.5c0-50.7 22.4-96.1 57.8-127v210.3H268c-30.9 35.4-76.3 57.8-127 57.8H57.8v233.8l274.6-274.7V168.5c0-50.7 22.4-96.1 57.8-127v210.3h210.3c-30.9 35.4-76.3 57.8-127 57.8H373.3L98.6 584.2h233.8V501c0-50.7 22.4-96.1 57.8-127v210.2z"></path><path d="M640.1 499.2c-3.2 20.7-10.1 40.3-20.2 57.8H417.5V354.6c17.5-10.1 37-17 57.8-20.2v164.8h164.8z"></path><path d="M642 414.1v57.8H502.6V332.4h57.7v81.7z"></path><path d="M642.038 386.817h-54.4v-54.4h54.4z"></path></g><g><path d="M307.6 166.7c-3.2 20.7-10.1 40.3-20.2 57.8H85.1V22.1c17.5-10.1 37-17 57.8-20.2v164.8h164.7z"></path><path d="M309.6 81.7v57.7H170.1V0h57.8v81.7z"></path><path d="M309.583 54.362h-54.4v-54.4h54.4z"></path></g></svg>