<svg xmlns="http://www.w3.org/2000/svg" width="623.75" viewBox="0 0 623.75 623.75" height="623.75" xml:space="preserve" style="enable-background:new 0 0 623.75 623.75"><path d="M311.88 0c-82.35 0-157.2 31.97-212.94 84.11H303.9c45.7 0 86.9 27.13 104.95 69.12l98.28 228.68a54.105 54.105 0 0 0 49.77 32.78h49.42c11.25-32.2 17.43-66.78 17.43-102.82C623.75 139.63 484.12 0 311.88 0zM216.23 474.21 116.1 241.23a58.655 58.655 0 0 0-53.92-35.52H18.56C6.57 238.85 0 274.59 0 311.88c0 172.24 139.63 311.88 311.88 311.88 84.1 0 160.36-33.35 216.46-87.46H310.48a102.524 102.524 0 0 1-94.25-62.09z"></path><path d="m458.1 402.98-98.28-228.67c-9.6-22.35-31.59-36.83-55.92-36.83H53.28c-3.28 4.85-6.38 9.82-9.38 14.86h18.28c44.79 0 85.27 26.67 102.96 67.81l100.13 232.98a49.223 49.223 0 0 0 45.22 29.78h262.14c3.19-4.86 6.24-9.82 9.16-14.86h-24.88c-42.99.01-81.84-25.58-98.81-65.07z"></path></svg>