<svg data-name="Layer 1" xmlns="http://www.w3.org/2000/svg" viewBox="0 0 625.22 625.22"><path d="M0 0h625.22v285.01l-43.96 27.48-268.65-167.91L43.96 312.49 0 285.01V0Zm43.96 312.49L312.61 480.4l268.65-167.91 43.96 27.48v285.25H0V339.97l43.96-27.48ZM583.21 58.88c0-5-4.06-9.06-9.06-9.06h-34.63c-5 0-9.06 4.06-9.06 9.06v20.95c0 5 4.06 9.06 9.06 9.06h34.63c5 0 9.06-4.06 9.06-9.06V58.88Zm-541.2 0c0-5 4.06-9.06 9.06-9.06H85.7c5 0 9.06 4.06 9.06 9.06v20.95c0 5-4.06 9.06-9.06 9.06H51.07c-5 0-9.06-4.06-9.06-9.06V58.88ZM574.15 575.4c5 0 9.06-4.06 9.06-9.06v-20.95c0-5-4.06-9.06-9.06-9.06h-34.63c-5 0-9.06 4.06-9.06 9.06v20.95c0 5 4.06 9.06 9.06 9.06h34.63Zm9.06-438.36c0-5-4.06-9.06-9.06-9.06h-34.63c-5 0-9.06 4.06-9.06 9.06v20.95c0 5 4.06 9.06 9.06 9.06h34.63c5 0 9.06-4.06 9.06-9.06v-20.95Zm-9.06 360.21c5 0 9.06-4.06 9.06-9.06v-20.95c0-5-4.06-9.06-9.06-9.06h-34.63c-5 0-9.06 4.06-9.06 9.06v20.95c0 5 4.06 9.06 9.06 9.06h34.63Zm9.06-282.06c0-5-4.06-9.06-9.06-9.06h-34.63c-5 0-9.06 4.06-9.06 9.06v20.95c0 5 4.06 9.06 9.06 9.06h34.63c5 0 9.06-4.06 9.06-9.06v-20.95Zm-9.06 203.9c5 0 9.06-4.06 9.06-9.06v-20.95c0-5-4.06-9.06-9.06-9.06h-34.63c-5 0-9.06 4.06-9.06 9.06v20.95c0 5 4.06 9.06 9.06 9.06h34.63ZM42.01 137.04c0-5 4.06-9.06 9.06-9.06H85.7c5 0 9.06 4.06 9.06 9.06v20.95c0 5-4.06 9.06-9.06 9.06H51.07c-5 0-9.06-4.06-9.06-9.06v-20.95Zm0 429.3c0 5 4.06 9.06 9.06 9.06H85.7c5 0 9.06-4.06 9.06-9.06v-20.95c0-5-4.06-9.06-9.06-9.06H51.07c-5 0-9.06 4.06-9.06 9.06v20.95Zm9.06-69.09c-5 0-9.06-4.06-9.06-9.06v-20.95c0-5 4.06-9.06 9.06-9.06H85.7c5 0 9.06 4.06 9.06 9.06v20.95c0 5-4.06 9.06-9.06 9.06H51.07Zm-9.06-282.06c0-5 4.06-9.06 9.06-9.06H85.7c5 0 9.06 4.06 9.06 9.06v20.95c0 5-4.06 9.06-9.06 9.06H51.07c-5 0-9.06-4.06-9.06-9.06v-20.95Zm9.06 203.9c-5 0-9.06-4.06-9.06-9.06v-20.95c0-5 4.06-9.06 9.06-9.06H85.7c5 0 9.06 4.06 9.06 9.06v20.95c0 5-4.06 9.06-9.06 9.06H51.07Z" style="fill-rule:evenodd"></path></svg>