<svg xmlns="http://www.w3.org/2000/svg" width="611.8" viewBox="0 0 611.8 611.8" height="611.8" xml:space="preserve" style="enable-background:new 0 0 611.8 611.8"><path d="M611.8 351.5h-242v260.3h21.7V419.2h220.3z"></path><path d="M611.8 272.6h-295V0H295v272.6H0v67.6h295v271.6h21.8V340.2h295z"></path><path d="M611.8 430.5H440.7v181.3h21.7V498.1h149.4zM0 261.3h242.1V1h-21.8v192.6H0z"></path><path d="M0 182.4h171.2V1h-21.8v113.7H0zM0 351.5h242.1v260.3h-21.8V419.2H0z"></path><path d="M0 430.5h171.2v181.3h-21.8V498.1H0zM611.8 261.3h-242V1h21.7v192.6h220.3z"></path><path d="M611.8 182.4H440.7V1h21.7v113.7h149.4z"></path></svg>