<svg xmlns="http://www.w3.org/2000/svg" width="625.6" viewBox="0 0 625.6 625.6" height="625.6" xml:space="preserve" style="enable-background:new 0 0 625.6 625.6"><path d="M157.6 334.3H543.7c.7-7.1 1-14.3 1-21.5 0-129-103.8-233.6-231.9-233.6S80.9 183.8 80.9 312.8s103.8 233.6 231.9 233.6c107.9 0 198.6-74.2 224.5-174.8h-40.1c-24.8 78.8-97.9 136-184.4 136-106.8 0-193.3-87.2-193.3-194.7 0-107.5 86.6-194.7 193.3-194.7 100.4 0 183 77.1 192.4 175.8H157.6v40.3z"></path><path d="M0 0v625.6h625.6V0H0zm583.2 583.2H42.5V42.5h540.7v540.7z"></path></svg>