<svg data-name="Layer 1" xmlns="http://www.w3.org/2000/svg" viewBox="0 0 618.54 618.54"><path d="M309.27 0C138.74 0 0 138.74 0 309.27s138.74 309.27 309.27 309.27S618.54 479.8 618.54 309.27 479.8 0 309.27 0Zm-11.63 595.03c-38.05-1.53-74.21-10.52-107.05-25.56 26.89-31.82 65.51-51.59 107.05-54.72v80.28Zm23.25-80.29c41.67 3.12 80.18 22.86 107.07 54.72-32.85 15.04-69.01 24.04-107.07 25.56v-80.29Zm0-491.23c38.05 1.53 74.21 10.52 107.05 25.56-26.89 31.82-65.51 51.6-107.05 54.73V23.51Zm-23.25 80.29c-41.67-3.12-80.18-22.86-107.07-54.72 32.85-15.04 69.01-24.03 107.07-25.56v80.28Zm0 193.85H23.51c2.23-55.44 20.31-106.87 49.83-149.86 64.51 48.92 143.21 76.69 224.31 79.12v70.74Zm0 23.25v70.74c-81.03 2.43-159.83 30.24-224.3 79.13-29.53-43-47.61-94.43-49.83-149.87h274.13Zm23.25 0h191.99l-28.94 34.07 17.72 15.06 52.2-61.44-52.2-61.44-17.72 15.06 30.12 35.45H320.89v-70.74c81.03-2.43 159.82-30.24 224.3-79.13 31.58 45.99 50.09 101.62 50.09 161.5s-18.51 115.5-50.08 161.49c-64.51-48.91-143.2-76.69-224.31-79.12v-70.74Zm210.37-191.74c-60.47 45.9-134.36 72.06-210.37 74.48v-76.5c50.24-3.29 96.94-27.74 128.31-67.23 31.53 17.76 59.37 41.33 82.06 69.24ZM169.34 59.9c31.38 39.55 77.91 63.98 128.3 67.25v76.49c-76.08-2.42-149.87-28.56-210.38-74.48 22.7-27.92 50.54-51.49 82.08-69.26ZM87.27 489.39c60.47-45.9 134.35-72.06 210.37-74.48v76.49c-50.24 3.29-96.94 27.74-128.31 67.23-31.53-17.76-59.37-41.33-82.06-69.24Zm361.93 69.25c-31.38-39.55-77.91-63.97-128.3-67.24v-76.49c76.08 2.42 149.88 28.56 210.38 74.48-22.7 27.92-50.54 51.49-82.07 69.26Z"></path></svg>