<svg data-name="Layer 1" xmlns="http://www.w3.org/2000/svg" viewBox="0 0 612.02 220.07"><path d="M608.79 73.64c-6.56-24.77-22.37-45.51-44.52-58.4-22.15-12.88-47.99-16.37-72.77-9.81-16.94 4.48-31.92 13.38-43.86 25.59C430.09 12 405.05 0 377.2 0s-52.68 11.9-70.21 30.78C288.83 11.15 263.47 0 236.57 0s-52.7 11.91-70.23 30.8C148.19 11.16 122.94 0 95.94 0 43.04 0 0 43.04 0 95.94s39.36 92.03 89.05 95.59v28.54h12.34v-28.34c24.93-1.39 48.03-12.33 64.95-30.65 16.06 17.31 38.37 28.66 63.34 30.45v28.54h12.34v-28.34c24.93-1.39 48.03-12.33 64.95-30.65 16.06 17.31 38.37 28.66 63.34 30.45v28.54h12.34v-28.46c24.53-1.39 46.64-11.94 62.85-28.4 4.84 5.26 10.41 9.97 16.52 14.14l-24.84 42.72h14.27l21.15-36.37c13.81 7.02 28.61 10.4 43.27 10.4 33.08 0 65.31-17.1 83.1-47.69 12.88-22.15 16.37-48 9.81-72.77ZM78.44 14.22 14.22 78.45c6.86-32.08 32.15-57.37 64.22-64.23Zm10.6 164.97c-5.15-.42-10.15-1.34-15-2.66l15-15v17.66Zm0-35.11L61.22 171.9c-4.08-1.87-8.02-4.01-11.72-6.49l39.54-39.54v18.2Zm0-35.66-49.27 49.27c-3.05-2.78-5.95-5.72-8.56-8.92l57.83-57.83v17.48Zm0-34.94-64.96 64.97c-2.21-3.73-4.16-7.62-5.78-11.7L89.05 56v17.48Zm0-34.93L14.2 113.39c-1.08-5.08-1.66-10.33-1.77-15.71l76.62-76.61v17.48Zm130.03-24.33-64.23 64.23c6.86-32.07 32.15-57.37 64.23-64.23ZM101.39 179.23V12.65c22.02 1.42 42.31 11.34 56.99 27.9-11.13 15.67-17.75 34.76-17.75 55.4s6.62 39.73 17.75 55.4c-14.68 16.55-34.97 26.48-56.99 27.9Zm128.29-.04c-5.15-.42-10.15-1.34-15-2.66l15-15v17.66Zm0-35.11-27.82 27.82c-4.08-1.87-8.02-4.01-11.72-6.49l39.54-39.54v18.21Zm0-35.66-49.27 49.27c-3.05-2.78-5.95-5.72-8.56-8.92l57.83-57.83v17.48Zm0-34.94-64.96 64.96c-2.21-3.73-4.16-7.62-5.78-11.7L229.68 56v17.48Zm0-34.93-74.84 74.84c-1.08-5.08-1.66-10.33-1.77-15.71l76.61-76.61v17.48ZM359.7 14.22l-64.22 64.22c6.86-32.07 32.15-57.36 64.22-64.22ZM242.02 179.24V12.64c21.96 1.42 42.33 11.35 57 27.89-11.14 15.67-17.76 34.76-17.76 55.41s6.62 39.73 17.75 55.4c-14.68 16.55-34.97 26.48-56.99 27.9Zm128.28-.04c-5.15-.42-10.15-1.34-15-2.66l15-15v17.66Zm0-35.11-27.82 27.82c-4.08-1.87-8.02-4.01-11.72-6.49l39.54-39.54v18.2Zm0-35.66-49.27 49.27c-3.05-2.78-5.95-5.72-8.56-8.92l57.83-57.83v17.48Zm0-34.94-64.96 64.96c-2.21-3.73-4.16-7.62-5.78-11.7L370.3 56v17.48Zm0-34.93-74.84 74.84c-1.08-5.08-1.66-10.34-1.77-15.71l76.61-76.62v17.48Zm101.07 75.53c.83-4.3 1.29-8.71 1.52-13.19l39.7-10.51-8.79 15.11-32.44 8.58Zm23.66 6.51-9.15 15.74-25.15 6.66c2.71-4.8 4.98-9.87 6.84-15.13l27.46-7.27Zm-22.28-32.42c-.34-4.18-.9-8.3-1.76-12.32l59.17-15.66-8.79 15.11-48.62 12.87ZM467.56 64c-1.4-3.95-3.03-7.79-4.92-11.48l85.08-22.51-8.79 15.11-71.37 18.89Zm48.62-49.39c8.65 0 17.37 1.36 25.84 4.13l-85.93 22.74c-.2-.29-.43-.56-.63-.84 15.98-16.82 38.11-26.03 60.72-26.03Zm-83.63 84.2c-.04-4.34.23-8.68.88-13.02l25.64-6.78c.83 4.02 1.27 8.18 1.5 12.39l-28.02 7.41Zm27.83 5.4c-.46 4.62-1.37 9.09-2.54 13.46l-21.39 5.66c-1.24-3.94-2.27-7.93-2.92-12.01l26.85-7.11Zm-9.93-48.48c2.01 3.64 3.68 7.48 5.13 11.43l-18.98 5.02c1.62-4.94 3.76-9.77 6.36-14.47l7.48-1.98Zm-67.81 123.54V12.62c22.57 1.46 42.69 11.89 56.87 27.79-2.29 3.05-4.47 6.2-6.42 9.54-19.43 33.41-16.27 73.77 4.63 103.48-14.07 14.8-33.45 24.42-55.09 25.83Zm63.23-35.78c-1.79-2.78-3.46-5.63-4.91-8.59l11.62-3.08c-1.95 4.07-4.16 7.99-6.72 11.67Zm22.35 23.2c-4.24-2.96-8.11-6.26-11.63-9.84l20.51-5.43-8.88 15.27Zm120.08-26.48c-22.25 38.26-70.37 52.2-109.45 32.74l83.79-144.07c16.87 11.31 28.98 28.1 34.22 47.92 5.71 21.59 2.68 44.11-8.55 63.41Z"></path></svg>