<svg data-name="Layer 1" xmlns="http://www.w3.org/2000/svg" viewBox="0 0 631.98 631.01"><path d="M460.46 0C399.84 0 346.5 31.64 315.99 79.25 285.48 31.64 232.14 0 171.52 0 76.94 0 0 76.94 0 171.52v287.97c0 94.58 76.94 171.52 171.52 171.52 60.62 0 113.95-31.64 144.47-79.25 30.51 47.61 83.85 79.25 144.47 79.25 94.58 0 171.52-76.94 171.52-171.52V171.52C631.98 76.94 555.04 0 460.46 0ZM171.52 54.09c64.75 0 117.42 52.68 117.42 117.43v60.43h54.1v-60.43c0-64.75 52.68-117.43 117.42-117.43s117.42 52.68 117.42 117.43v116.94h-90.37V115.19h-54.1v173.27H198.57V115.19h-54.1v173.27H54.1V171.52c0-64.75 52.68-117.43 117.42-117.43Zm288.94 522.82c-64.75 0-117.42-52.68-117.42-117.42v-60.43h-54.1v60.43c0 64.75-52.67 117.42-117.42 117.42S54.1 524.23 54.1 459.49V342.55h90.37v173.27h54.1V342.55h234.84v173.27h54.1V342.55h90.37v116.94c0 64.75-52.68 117.42-117.42 117.42Z"></path></svg>