<svg data-name="Layer 1" xmlns="http://www.w3.org/2000/svg" viewBox="0 0 633.9 632.3"><path d="M561.99 115.93v402.03c44.93-54.7 71.91-124.7 71.91-201.02s-26.98-146.31-71.91-201.02ZM89.74 305.94c6.18-8.88 9.44-19.28 9.44-30.1V86.78C38.14 144.55 0 226.27 0 316.95c0 50.78 12.01 98.73 33.23 141.27l-.11-47.91c-.05-14.97 4.45-29.38 12.99-41.66l43.63-62.71ZM466.7 596.32c27.93-15 53.34-34.06 75.45-56.4V93.97a318.05 318.05 0 0 0-75.45-56.4v558.75ZM223.76 13.95v268.5c0 14.89-4.49 29.21-12.99 41.43l-64.85 93.22c-6.18 8.88-9.45 19.29-9.45 30.1v130.23c31.44 21.83 67.01 38.09 105.32 47.41V464.18c0-14.89 4.49-29.22 12.99-41.43l64.85-93.22c6.17-8.88 9.44-19.29 9.44-30.1V.31C325.04.16 321.01 0 316.94 0c-32.44 0-63.72 4.9-93.19 13.95Z"></path><path d="M203.92 282.45V20.83C173 32.64 144.41 49.15 119.01 69.49v206.35c0 14.89-4.49 29.21-12.99 41.43l-43.63 62.71c-6.21 8.93-9.47 19.4-9.44 30.28l.19 82.37a319.015 319.015 0 0 0 63.48 69.91V447.21c0-14.88 4.49-29.21 13-41.43l64.85-93.22c6.17-8.88 9.44-19.28 9.44-30.1ZM348.91 632.3c34.61-3.47 67.53-12.57 97.95-26.26V27.87c-30.42-13.69-63.34-22.8-97.95-26.26V632.3Z"></path></svg>