<svg xmlns="http://www.w3.org/2000/svg" width="642" viewBox="0 0 642 513.6" height="513.6" data-name="Layer 1"><path d="M317.02 114.15v393.67c-.06 3.21-2.63 5.78-5.78 5.78-1.54 0-3.02-.64-4.04-1.67-16.5-17.72-34.99-33.51-55.21-46.93-48.28-32.1-106.19-50.78-168.52-50.78H0V0c25.74 2.7 52.19 4.11 78.64 4.11h29.72c86.61 0 163.07 43.59 208.65 110.04ZM82.66 61.12V38.65c0-3.55-2.87-6.42-6.42-6.42H39.33c-3.55 0-6.42 2.87-6.42 6.42v22.47c0 3.55 2.87 6.42 6.42 6.42h36.91c3.55 0 6.42-2.87 6.42-6.42Zm0 318.59v-22.47c0-3.55-2.87-6.42-6.42-6.42H39.33c-3.55 0-6.42 2.87-6.42 6.42v22.47c0 3.55 2.87 6.42 6.42 6.42h36.91c3.55 0 6.42-2.87 6.42-6.42Zm0-159.3v-22.47c0-3.55-2.87-6.42-6.42-6.42H39.33c-3.55 0-6.42 2.87-6.42 6.42v22.47c0 3.55 2.87 6.42 6.42 6.42h36.91c3.55 0 6.42-2.87 6.42-6.42Zm0-79.65v-22.47c0-3.55-2.87-6.42-6.42-6.42H39.33c-3.55 0-6.42 2.87-6.42 6.42v22.47c0 3.55 2.87 6.42 6.42 6.42h36.91c3.55 0 6.42-2.87 6.42-6.42Zm0 159.3v-22.47c0-3.55-2.87-6.42-6.42-6.42H39.33c-3.55 0-6.42 2.87-6.42 6.42v22.47c0 3.55 2.87 6.42 6.42 6.42h36.91c3.55 0 6.42-2.87 6.42-6.42ZM533.63 4.11h29.72c26.45 0 52.9-1.41 78.64-4.11v414.22h-83.46c-62.34 0-120.25 18.68-168.52 50.78-20.22 13.42-38.71 29.21-55.21 46.93a5.77 5.77 0 0 1-4.04 1.67c-3.15 0-5.71-2.57-5.78-5.78V114.15C370.56 47.7 447.02 4.11 533.63 4.11Zm75.47 57.01V38.65c0-3.55-2.87-6.42-6.42-6.42h-36.91c-3.55 0-6.42 2.87-6.42 6.42v22.47c0 3.55 2.87 6.42 6.42 6.42h36.91c3.55 0 6.42-2.87 6.42-6.42Zm0 318.59v-22.47c0-3.55-2.87-6.42-6.42-6.42h-36.91c-3.55 0-6.42 2.87-6.42 6.42v22.47c0 3.55 2.87 6.42 6.42 6.42h36.91c3.55 0 6.42-2.87 6.42-6.42Zm0-159.3v-22.47c0-3.55-2.87-6.42-6.42-6.42h-36.91c-3.55 0-6.42 2.87-6.42 6.42v22.47c0 3.55 2.87 6.42 6.42 6.42h36.91c3.55 0 6.42-2.87 6.42-6.42Zm0-79.65v-22.47c0-3.55-2.87-6.42-6.42-6.42h-36.91c-3.55 0-6.42 2.87-6.42 6.42v22.47c0 3.55 2.87 6.42 6.42 6.42h36.91c3.55 0 6.42-2.87 6.42-6.42Zm0 159.3v-22.47c0-3.55-2.87-6.42-6.42-6.42h-36.91c-3.55 0-6.42 2.87-6.42 6.42v22.47c0 3.55 2.87 6.42 6.42 6.42h36.91c3.55 0 6.42-2.87 6.42-6.42Z"></path></svg>