<svg xmlns="http://www.w3.org/2000/svg" width="642" viewBox="0 0 642 552.12" height="552.12" data-name="Layer 1"><path d="M372.36 0v325.01c0 44.41-19.95 84.14-51.36 110.79-31.41-26.64-51.36-66.37-51.36-110.79V0H0v325.01c0 125.43 101.68 227.11 227.11 227.11 33.5 0 65.27-7.31 93.89-20.33 28.63 13.02 60.4 20.33 93.89 20.33C540.32 552.12 642 450.44 642 325.01V0H372.36ZM81.85 325.01V81.85h105.93v243.16c0 54.97 19.54 105.38 52.04 144.67-4.19.36-8.43.59-12.71.59-80.22 0-145.25-65.03-145.25-145.25Zm478.3 0c0 80.22-65.03 145.25-145.25 145.25-4.29 0-8.52-.22-12.71-.59 32.5-39.29 52.04-89.69 52.04-144.67V81.85h105.93v243.16Z" style="stroke-width:0"></path></svg>