<svg xmlns="http://www.w3.org/2000/svg" width="590.2" viewBox="0 0 590.2 590.2" height="590.2"><path d="M295.1 0C132.4 0 0 132.4 0 295.1c0 162.7 132.4 295.1 295.1 295.1 162.7 0 295.1-132.4 295.1-295.1C590.2 132.4 457.8 0 295.1 0zm0 563.3C147.2 563.3 26.9 443 26.9 295.1S147.2 26.9 295.1 26.9s268.2 120.3 268.2 268.2S443 563.3 295.1 563.3z"></path><path d="M435.2 143.4c-25.9 0-46.9 21-46.9 46.9 0 13.8 5.9 26.2 15.4 34.7l-39.6 84.5-42.7-80.4c12.4-8.4 20.6-22.7 20.6-38.8 0-25.9-21-46.9-46.9-46.9s-46.9 21-46.9 46.9c0 16.1 8.2 30.4 20.6 38.8l-42.7 80.4-39.6-84.5c9.5-8.6 15.4-21 15.4-34.7 0-25.9-21-46.9-46.9-46.9s-46.9 21-46.9 46.9 21 46.9 46.9 46.9c2.5 0 4.9-.2 7.3-.6l62.3 133.1L295 237.2h.4l70.4 132.5 62.3-133.1c2.4.4 4.8.6 7.3.6 25.9 0 46.9-21 46.9-46.9s-21.2-46.9-47.1-46.9zM389.7 385.9H200.5c-18.6 0-33.9 15.3-33.9 33.9 0 18.6 15.3 33.9 33.9 33.9h189.1c18.6 0 33.9-15.3 33.9-33.9.1-18.6-15.2-33.9-33.8-33.9z"></path></svg>