<svg xmlns="http://www.w3.org/2000/svg" width="601.6" viewBox="0 0 601.6 593.7" height="593.7" xml:space="preserve"><path d="M515.5 255.2v-2.4c0-56.1-36-103.8-86.2-121.2 0-1.1.1-2.2.1-3.3C429.4 57.4 372 0 301.1 0S172.9 57.4 172.9 128.3v2.8c-50.3 17.3-86.4 65.1-86.4 121.3v2.7C36.2 272.4 0 320.1 0 376.4 0 439 44.8 491 104 502.4v91.4h48.1V457.7c-7.6 2.2-15.6 3.4-23.9 3.4-46.8 0-84.7-37.9-84.7-84.7s37.9-84.7 84.7-84.7c4.1 0 8 .3 12 .9-6.5-12-10.2-25.7-10.2-40.3-.4-51 46.1-91.3 96.5-83.9-6.4-11.9-10.1-25.6-10.1-40.1 0-46.8 37.9-84.7 84.7-84.7 45.5 0 82.6 35.9 84.6 81-70.1.8-126.7 57.9-126.7 128.2v2.3c-50.3 17.3-86.5 65.1-86.5 121.3 0 62.8 45.2 115.1 104.8 126.1v91.2h48V457.3c-7.9 2.4-16.3 3.8-25 3.8-46.8 0-84.7-37.9-84.7-84.7s37.9-84.7 84.7-84.7c4.1 0 8.1.3 12.1.9-6.3-11.9-9.9-25.4-9.9-39.8 0-46.8 37.9-84.7 84.7-84.7 45.2 0 82.1 35.4 84.5 80.1-70.1.8-126.7 57.9-126.7 128.2 0 63 45.5 115.4 105.4 126.2v91.1h47.9v-91.5c58.9-11.6 103.2-63.5 103.2-125.8.1-56.1-35.9-103.8-86-121.2zm-42.1 204.7c-46.1 0-83.5-37.4-83.5-83.5s37.4-83.5 83.5-83.5 83.5 37.4 83.5 83.5-37.4 83.5-83.5 83.5z"></path></svg>