<svg data-name="Layer 1" xmlns="http://www.w3.org/2000/svg" viewBox="0 0 624.65 492.19"><path d="M619.14 20.67c-10.57-18.14-33.27-26.33-51.78-16.4L462.38 65.2l3.53-15.53-.05.03c2.18-9.63.91-20.08-4.46-29.28-11.24-19.3-36.01-25.82-55.3-14.58L303.85 65.42l3.34-16.45-.05.04c1.92-9.39.56-19.48-4.64-28.42-11.24-19.3-36-25.83-55.3-14.58L104.89 88.92c-19.3 11.25-25.83 36.01-14.58 55.3 7.65 13.14 21.57 20.36 35.76 20.08 6.66-.13 13.38-1.91 19.54-5.5l100.24-58.15-2.06 20.63c-.47 7.69 1.24 15.61 5.42 22.77 7.65 13.13 21.57 20.35 35.76 20.08 6.66-.13 13.38-1.91 19.54-5.5l100.38-58.68-3.44 20.36.04-.04c-.76 8.12.87 16.53 5.29 24.11 7.65 13.13 21.57 20.35 35.76 20.08 6.66-.13 13.38-1.91 19.54-5.5l.03-.02s.09-.04.14-.07l142.3-82.92c19.3-11.24 25.83-36 14.58-55.3Z"></path><path d="m522.43 168.26-104.98 60.93 3.53-15.53-.05.03c2.19-9.63.91-20.08-4.46-29.28-11.24-19.3-36.01-25.83-55.3-14.58l-102.25 59.58 3.34-16.45-.05.04c1.91-9.39.56-19.48-4.64-28.42-11.24-19.3-36-25.83-55.3-14.58L59.96 252.9c-19.3 11.25-25.83 36.01-14.58 55.3 7.65 13.14 21.57 20.36 35.76 20.08 6.66-.13 13.38-1.91 19.54-5.5l100.24-58.15-2.06 20.63c-.47 7.69 1.24 15.61 5.42 22.77 7.65 13.13 21.57 20.35 35.76 20.08 6.66-.13 13.38-1.91 19.54-5.5l100.38-58.68-3.44 20.36.04-.04c-.76 8.12.87 16.53 5.29 24.11 7.65 13.13 21.57 20.35 35.76 20.08 6.66-.13 13.38-1.91 19.54-5.5l.03-.02s.09-.04.14-.07l142.3-82.92c19.3-11.24 25.83-36 14.58-55.3-10.57-18.14-33.27-26.33-51.78-16.4Z"></path><path d="m482.55 331.98-104.98 60.93 3.53-15.53-.05.04c2.18-9.63.91-20.08-4.46-29.28-11.24-19.3-36-25.83-55.3-14.58l-102.25 59.58 3.34-16.45-.05.04c1.92-9.39.56-19.48-4.64-28.42-11.24-19.3-36-25.83-55.3-14.58l-142.3 82.9c-19.3 11.25-25.83 36-14.58 55.3 7.65 13.14 21.57 20.36 35.76 20.08 6.66-.13 13.38-1.91 19.54-5.5l100.24-58.15-2.06 20.63h.01c-.47 7.69 1.24 15.61 5.42 22.78 7.65 13.13 21.57 20.35 35.76 20.08 6.66-.13 13.38-1.91 19.54-5.5l100.38-58.68-3.44 20.36.04-.04c-.76 8.12.87 16.53 5.29 24.11 7.65 13.13 21.57 20.35 35.76 20.08 6.66-.13 13.38-1.91 19.54-5.5l.03-.02s.09-.04.14-.07l142.3-82.92c19.3-11.25 25.83-36 14.58-55.3-10.57-18.14-33.27-26.34-51.78-16.4Z"></path></svg>