<svg xmlns="http://www.w3.org/2000/svg" id="a" width="642" viewBox="0 0 642 612.31" height="612.31" data-name="Layer 1"><defs></defs><path d="M595.29 168.12H416.3L361.67 0h68.04L464 105.53h110.96l20.33 62.59z" class="b"></path><path d="m601.03 185.78 20.87 64.36H361.61l-31.33-96.41 31.39-96.61 41.77 128.66h197.59zM67.04 105.53H178L212.29 0h65.82l-55.03 169.1H46.39l20.65-63.57" class="b"></path><path d="m187.97 250.14-87.26-63.39 135.27.03L296.67 0h65l-81.28 250.14h-92.42zM24.74 235.82l21.65-66.72 212.78 154.59-30.13 92.81-87.25 63.39 41.83-128.64L24.74 235.82z" class="b"></path><path d="m54.12 486.8 35.65-109.71L0 311.87l19-58.4 143.84 104.51-54.62 168.12-54.1-39.3zM108.22 526.1 321 371.51l76.96 55.88 33.85 104.18L321 451.06 162.99 565.87l-54.77-39.77" class="b"></path><path d="m463.97 576.76-48.84 35.55L321 543.89l-94.09 68.42-48.88-35.55L321 472.88l142.97 103.88z" class="b"></path><path d="m463.97 576.76-81.14-253.07 76.95-55.9h107.79L458.14 347.3l61.44 189.12-55.61 40.34z" class="b"></path><path d="M478.88 354.05 621.9 250.14l20.1 61.73-89.77 65.22 35.65 109.71-53.28 38.71-55.72-171.46z" class="b"></path></svg>