<svg id="a" data-name="Layer_1" xmlns="http://www.w3.org/2000/svg" width="642" viewBox="0 0 642 197.83" height="197.83">
  <path d="M554.53,12.09s5.57-4.06,22.47-4.06c0,0,2.93,6.26,22.47,6.26C622.11,13.65,638.34,0,613.34,0c-48.04,0-66.92,10.03-66.92,10.03-27.84-6.35-68.8-10.03-113.52-10.03-152.42,0-265.26,35.08-174.5,56.46v1.64c-57.38,0-139.75,13.69-139.75,33.87,0,11.83,39.6,25.43,78.76,27.33l-1.61,3C58.99,122.3,0,139.02,0,159.7c0,58.83,642,50.67,642-32.1,0-36.18-160.3-40.12-247.96-40.12,0,0-130.98,1.23-130.98-12.84,0-5.11,10.16-9.53,24.86-11.6,32.89,4.93,105.28,2.84,140.62,3.25,53.3.04,220.5-24.64,126-54.23"></path>
</svg>