<svg xmlns="http://www.w3.org/2000/svg" width="613.4" viewBox="0 0 613.4 577" height="577" xml:space="preserve"><path d="M271.1 117.4c0 64.8-52.5 117.3-117.3 117.3S36.5 182.2 36.5 117.4C36.4 52.5 89 0 153.8 0s117.3 52.5 117.3 117.4zM213.2 234.7z"></path><path d="M324.9 0H213.2c40.7 20.7 69.3 62 71.9 110.2h87.8c49.3 0 101.6 16.8 137.3 51.6 22.8 22.1 43.2 48.7 55.9 78 2.5 5.7 4.9 11.6 6.7 17.5-2-6.5-35.3-73.5-98.3-109-32.2-18.1-64.6-23.8-101.6-23.8h-87.8c-2.6 48.1-31.1 89.5-71.9 110.2h200c80.1 0 145.1 65 145.1 145.1s-65 145.1-145.1 145.1-145.1-65-145.1-145.1v-50.1h42.8l-149.8-84v84c0 5.3 0 10.8.2 16.3.7 29.7 6.9 58.7 19.7 85.7 13.5 28.5 36.3 60 74.4 87.9 0 0-57.9-26-89.3-93.6-10.2-21.9-16.1-45.3-18-69.4-.7-9-1-18-1-26.8v-84L0 329.6h43.3c8 55.9 28 106.7 63.2 147.4 52.9 61.2 131.1 99.9 218.4 99.9 159.3 0 288.5-129.2 288.5-288.5S484.3 0 324.9 0z"></path></svg>