<svg data-name="Layer 1" xmlns="http://www.w3.org/2000/svg" viewBox="0 0 613.67 533.95"><path d="M447.41 271.67h-72.62v112.3c0 5.13-4.16 9.28-9.29 9.28H248.16c-5.13 0-9.29-4.16-9.29-9.28v-112.3h-72.62c-7.23 0-11.76 7.83-8.14 14.1l140.57 243.48c3.62 6.27 12.66 6.27 16.28 0l140.57-243.48c3.62-6.26-.9-14.1-8.14-14.1ZM298.69 14.1c3.62-6.27-.9-14.1-8.14-14.1H9.41C2.18 0-2.34 7.83 1.27 14.1l140.57 243.48c3.62 6.26 12.66 6.26 16.28 0L298.69 14.1ZM604.26 0H323.11c-7.24 0-11.76 7.83-8.14 14.1l140.57 243.48c3.62 6.26 12.66 6.26 16.28 0L612.4 14.1c3.62-6.27-.9-14.1-8.14-14.1Z"></path></svg>