<svg xmlns="http://www.w3.org/2000/svg" width="612.2" viewBox="0 0 612.2 607.5" height="607.5" xml:space="preserve"><path d="M171.2 195.1h-54.6l-66.5-67.3h54.6zM305.7 228.8h-54.6l-66.5-67.3h54.6zM237.6 228.8h-18.1l-99.8-101h18.2zM287.1 133.2l-38.6-38.6V0l38.6 38.6zM358.5 252.1l-38.7-38.6v-94.6l38.7 38.6zM310.4 203.9l-12.8-12.8V49.2l12.8 12.9zM412.4 173.6v-54.7l67.3-66.4v54.6zM378.7 308.1v-54.6L446 187v54.6zM378.7 240v-18.2l101-99.7v18.2z"></path><g><path d="m479 287.1 38.7-38.6h94.5l-38.6 38.6zM360.1 358.5l38.6-38.7h94.6l-38.6 38.7zM408.3 310.4l12.8-12.8H563l-12.8 12.8z"></path></g><g><path d="M438.7 412.4h54.6l66.5 67.3h-54.6zM304.1 378.7h54.7l66.4 67.3h-54.6zM372.3 378.7h18.1l99.7 101H472z"></path></g><g><path d="m325.1 474.3 38.7 38.6v94.6l-38.7-38.6zM253.8 355.4l38.9 38.6-.6 94.6-38.3-38.6zM301.8 403.6l12.8 12.8v141.8l-12.8-12.8z"></path></g><g><path d="M195.1 441.1v54.6l-67.3 66.5v-54.7zM228.8 306.5v54.6l-67.3 66.5V373zM228.8 374.6v18.2l-101 99.7v-18.1z"></path></g><g><path d="M133.2 320.4 94.6 359H0l38.6-38.6zM252.1 249l-38.6 38.7h-94.6l38.6-38.7zM204 297.1l-12.9 12.8H49.2l12.9-12.8z"></path></g></svg>