<svg xmlns="http://www.w3.org/2000/svg" width="629.8" viewBox="0 0 629.8 535.6" height="535.6" xml:space="preserve" style="enable-background:new 0 0 629.8 535.6"><path d="m629.8 267.8-18.1-31.3h-56.1l27.2-49.9-62.9-108.7H464L492.2 30 474.9 0h-36.1l-29.4 46.6L381.1 0H248.4l-28.3 46.6L190.7 0h-36.1l-17.3 30 28.3 47.9h-55.9l-34.3 59.3L47 186.6l27.2 49.9h-56L0 267.8 18.3 299h56L47 349l62.3 108.7h55.9L137 505.6l17.3 30h36.1l29.4-46.6 28.3 46.6h132.7l28.3-46.6 29.4 46.6h36.1l17.3-30-28.3-47.9h55.9L582.7 349l-27.2-50h56.1l18.2-31.2zm-87.4-130.6L484.8 237h-63l36.3-62.8c-9-13.9-20.1-26.3-32.6-37H542.4zM314.4 379c-61.4 0-111.2-49.8-111.2-111.2 0-61.4 49.8-111.2 111.2-111.2 50.7 0 93.4 34 106.8 80.4H296l-35.6 61.6h160.8C407.8 345 365.1 379 314.4 379zm.4-374.8L374.2 107c-18.6-6.9-38.7-10.8-59.7-10.8-20.7 0-40.5 3.7-58.8 10.4L314.8 4.2zm-111.6 133c-29.7 25.4-50.7 60.7-57.7 100.8L87.3 137.2h115.9zM87.3 398.4l58.2-100.8c7 40.1 28 75.4 57.7 100.8H87.3zm227.1 132.9-59.2-102.5c18.5 6.8 38.4 10.5 59.2 10.5 20.8 0 40.8-3.7 59.2-10.5l-59.2 102.5zm111.5-132.9h-.4c29.5-25.1 50.3-60.1 57.6-99.8h1.7l57.6 99.8H425.9z"></path></svg>