<svg data-name="Layer 1" xmlns="http://www.w3.org/2000/svg" viewBox="0 0 419.01 611.74"><path d="M395.26 106.23C360.42 41.66 289.27.97 209.56 0s-.06 0-.11 0h-.04C129.72.98 58.59 41.67 23.75 106.23 8.21 135.02 0 167.54 0 200.28v78.17c0 7.71 6.28 13.99 13.99 13.99h6.33v4.41c0 4.69 3.8 8.49 8.49 8.49h9.52v288.38h-18v18.01h144.06V444.66h90.23v167.07h144.06v-18.01h-18.01V305.35h9.52c4.69 0 8.49-3.8 8.49-8.49v-4.41h6.34c7.71 0 13.99-6.28 13.99-13.99v-78.17c0-32.74-8.21-65.27-23.75-94.06Zm17.11 172.22c0 4.05-3.29 7.34-7.34 7.34h-6.34v-4.41c0-4.69-3.8-8.49-8.49-8.49h-9.52v-57.33h18.01v-18.01H254.62v144.06h-90.23V197.55H20.33v18.01h18.01v57.33h-9.52c-4.69 0-8.49 3.8-8.49 8.49v4.41H14c-4.05 0-7.34-3.29-7.34-7.34v-78.17c0-31.64 7.94-63.08 22.95-90.9C63.3 46.95 132.23 7.59 209.5 6.65c77.29.94 146.22 40.3 179.91 102.74 15.02 27.82 22.96 59.25 22.96 90.9v78.17Z"></path></svg>