<svg data-name="Layer 1" xmlns="http://www.w3.org/2000/svg" viewBox="0 0 621.4 395.86"><path d="M432.87 87.38c-18.05 0-35.76 4.85-51.3 14.03l-168.7 102.6c-14.36 8.74-30.85 13.36-47.67 13.37l-165.21.11v90.59l190.07-.06c17.06 0 33.8-4.61 48.46-13.34L414.7 189.82c12.61-7.51 27-11.47 41.68-11.48 41.75-.01 165.01-.04 165.01-.04V87.33l-188.53.05Z"></path><path d="m421.7 233.19-100.24 59.86.22 102.81 119.9-72.47c14.91-9.01 32-13.78 49.42-13.79l130.39-.05v-89.23c-33.78 0-112.8.03-153.31.05-16.37 0-32.34 4.44-46.39 12.83ZM199.7 162.67l100.24-59.86L299.72 0l-119.9 72.48c-14.91 9.01-32 13.78-49.42 13.78L.01 86.31v89.23c33.78 0 112.8-.03 153.31-.05 16.37 0 32.34-4.44 46.39-12.83Z"></path></svg>