<svg data-name="Layer 1" xmlns="http://www.w3.org/2000/svg" viewBox="0 0 614.87 614.87"><path d="M307.44 0C137.64 0 0 137.64 0 307.44s137.64 307.44 307.44 307.44 307.44-137.64 307.44-307.44S477.23 0 307.44 0Zm126.14 527.21c-53.81 0-100.71-29.12-126.14-72.38-25.43 43.26-72.33 72.38-126.14 72.38-80.83 0-146.36-65.53-146.36-146.36s65.52-146.37 146.36-146.37c.09 0 .18.01.28.01-12.94-21.83-20.5-47.22-20.5-74.44 0-80.83 65.53-146.36 146.36-146.36S453.8 79.22 453.8 160.05c0 27.22-7.56 52.61-20.5 74.44.09 0 .18-.01.28-.01 80.83 0 146.36 65.53 146.36 146.36S514.41 527.2 433.58 527.2Z"></path><path d="M385.64 261.43h-.17c8.02-13.53 12.71-29.28 12.71-46.15 0-50.12-40.63-90.74-90.74-90.74s-90.74 40.63-90.74 90.74c0 16.87 4.69 32.62 12.71 46.15h-.17c-50.12 0-90.74 40.63-90.74 90.74s40.63 90.74 90.74 90.74c33.36 0 62.44-18.06 78.2-44.88 15.77 26.82 44.84 44.88 78.2 44.88 50.12 0 90.74-40.63 90.74-90.74s-40.63-90.74-90.74-90.74Z"></path></svg>