<svg xmlns="http://www.w3.org/2000/svg" width="642" viewBox="0 0 642 642" height="642" style="overflow:visible;enable-background:new 0 0 642 642" xml:space="preserve"><path d="M321 183.8v-42.3l-51.5-55.2-15.3 25.9zM274.7 77.7l46.3 49.7V85l-31-33.2zM321 362.7v-47.1L174.8 158.9h-43.9zM329 85v42.3l46.3-49.6-15.4-25.9zM321 240.4v-42.5l-71.9-77.1-15.4 25.9zM329 141.5v42.3l66.8-71.6-15.4-25.8zM418.1 158.9 329 254.4v47l133-142.5zM188 158.9l133 142.6v-47l-89.1-95.6zM329 428.6l251.6-269.7h-48.3L329 376.8zM329 197.8v42.5l87.3-93.6-15.4-25.9zM329 315.6v47l190.1-203.7h-43.9zM321 428.6v-51.7l-203.3-218H69.4zM582 425.6l-79.1 84.8h48.3l49.6-53.2zM354.8 43.2 329.1 0h-.1v70.8l25.8-27.6zM295.2 43.2 321 70.9V0h-.2l-25.6 43.2zM265.5 510.4 114.1 348 97 376.7l124.7 133.7zM329 442.7v51.9l313-335.7h-48.3zM44.1 465.9l-26.4 44.5h67.9zM316.2 522.4V642h28.9V538.5l185.7-199.2-17.1-28.7zM564.4 510.4h68l-26.5-44.5zM139.7 305 321 494.6v-51.8L56.3 158.9H0l139.7 146zM208.5 510.4l-116.6-125L73.1 417l87.1 93.4z"></path><path d="M384.4 510.4h43.9L553 376.7 535.9 348zM119.2 339.4l159.5 171h43.9L134.5 313.7zM147 510.4l-79-84.8-18.8 31.7 49.6 53.1zM441.5 510.4h48.3l87.1-93.4-18.8-31.6z"></path></svg>