<svg xmlns="http://www.w3.org/2000/svg" width="620.6" viewBox="0 0 620.6 620.9" height="620.9" xml:space="preserve" style="enable-background:new 0 0 620.6 620.9"><path d="m235.2 413.8 49.1-48.9h-189l49 48.9H79.7L7.5 341.5l75.6-75.7h64.5l-48.9 48.9h287.8l-50 50.2h279.3c3.1-17.7 4.7-35.9 4.7-54.4C620.6 139 481.7 0 310.3 0 175.4 0 60.7 86.1 17.9 206.2h368.3l-49.1 48.9h189l-49-48.9h64.5l72.3 72.3-75.6 75.7h-64.5l48.9-48.9H234.9l50-50.2H4.9c-3.2 18-4.9 36.5-4.9 55.3 0 171.4 138.9 310.4 310.3 310.4 135.1 0 250.1-86.4 292.7-207.1H235.2z"></path></svg>