<svg xmlns="http://www.w3.org/2000/svg" width="641.3" viewBox="0 0 641.3 642" height="642" style="overflow:visible;enable-background:new 0 0 641.3 642" xml:space="preserve"><path d="M509.2 581.3c59.3-55.7 87-126.4 85.3-199-4.1-155.8-192.2-235.2-287.3-136.2-25 26-38.9 60.6-38.9 96.9 0 8-6.5 14.5-14.5 14.5-6.5 0-12-4.2-13.8-10.2-6-21.2-14.2-35.7-27.4-52.7-35.6-44.2-41.3-105.8-13.8-156.5 65.3-121.3 227.3-152 332.6-58.3-2.8 1.6-5.7 3.1-8.5 4.6-9.6 5.3-8.7 19 1.1 23.1 41.1 15.4 74.4 47.3 91.5 87.9 57.9 137.7 16.3 296.1-106.3 385.9zM62.7 128.6c-26.6 35.1-37.6 80-30.4 123.3 1.3 10.5-10.1 18.2-19.5 12.5-2.7-1.8-5.5-3.5-8.2-5.1-28.6 138 79.1 263 216.8 258.8 57.8-1.5 108.2-37.3 128.7-90.2 8.1-19.9 16.6-34.2 31.9-50 4.2-4.6 5.1-11.4 1.9-17-4-6.9-12.8-9.3-19.8-5.3-31.5 18.2-68.4 23.4-103.4 14.8-133.4-33-158.6-235.5-25.7-317 62-37.8 137.1-49.2 215-25.6C310.8-33.5 152.9 9.6 62.7 128.6zm218.4 512.2c43.7 5.5 88.1-7.4 121.9-35.3 8.4-6.4 20.8-.3 20.6 10.6-.2 3.2-.3 6.5-.3 9.7 133.8-44.3 188.2-200 115.8-317.2-30.2-49.3-86.4-75.1-142.4-66.4-21.3 2.9-37.9 2.8-59.3-2.6-6.1-1.3-12.5 1.3-15.7 6.9-4 6.9-1.7 15.7 5.3 19.8 31.5 18.2 54.5 47.5 64.5 82.2 38.2 131.9-124.6 255.1-261.6 180.7C66.1 494.4 18.7 435 .2 355.8c16.5 151.1 132.8 266.3 280.9 285zm-24.8-430.6c-7.4 0-13.4 6-13.4 13.4s6 13.4 13.4 13.4 13.4-6 13.4-13.4-6-13.4-13.4-13.4zm177.1 91.6c-7.4 0-13.4 6-13.4 13.4s6 13.4 13.4 13.4 13.4-6 13.4-13.4-6-13.4-13.4-13.4zM265 407c-7.4 0-13.4 6-13.4 13.4s6 13.4 13.4 13.4 13.4-6 13.4-13.4-6-13.4-13.4-13.4z" style="fill-rule:evenodd;clip-rule:evenodd"></path></svg>