<svg xmlns="http://www.w3.org/2000/svg" width="569.6" viewBox="0 0 569.6 580.2" height="580.2"><path d="M179.5 195.3h15v384.9h178.6V195.3h15.5v384.9h180.8V158.6C569.6 69.9 503.3 0 421.5 0H153.2c-18.5 0-35.7 3-50.5 8.1-35.4 12.2-60 35.5-77 61.4C4.8 101.1-4.5 140 5.7 188.2c0 0 63.8 248.4 75.7 294.6 1.1 4.1-1.3 8.3-5.3 9.6-2.2.7-4.6.5-6.5-.7-2-1.1-3.4-3-4-5.2-6.4-25.6-24.6-99.4-24.6-99.4H0v101.6c0 49.6 40.2 89.8 89.8 89.8 49.6 0 89.8-40.2 89.8-89.8V195.3h-.1zm-87.3-17.6c9.3 0 16.8 7.5 16.8 16.8s-7.5 16.8-16.8 16.8-16.8-7.5-16.8-16.8 7.5-16.8 16.8-16.8z" fill-rule="evenodd" clip-rule="evenodd"></path></svg>