<svg data-name="Layer 1" xmlns="http://www.w3.org/2000/svg" viewBox="0 0 429.98 611"><path d="m101.74 390.68 92.76 55.92 21.05-36.91-91.88-55.39C44.34 306.48 18.71 203.02 66.54 123.68c23.08-38.28 59.84-65.33 103.53-76.15 43.69-10.82 88.82-4.07 127.1 19.01l84.52 51.88 21.44-37.6-84.03-50.66C271.09 1.22 214.54-7.25 159.84 6.3 105.15 19.85 59.1 53.75 30.16 101.75 1.22 149.75-7.25 206.3 6.3 261c13.55 54.69 47.45 100.75 95.45 129.69Z"></path><path d="m351.26 171.76 20.66-36.22-84.99-52.17c-33.7-20.32-73.53-26.27-112.12-16.72-38.57 9.56-71.03 33.42-91.39 67.2s-26.31 73.62-16.76 112.19c9.56 38.57 33.42 71.03 67.2 91.39l91.47 55.14 21.05-36.91-90.59-54.61c-24.06-14.51-41.07-37.67-47.9-65.23s-2.6-55.99 11.9-80.05c14.51-24.06 37.67-41.07 65.23-47.9 27.55-6.82 55.98-2.6 80.04 11.9l86.2 51.97Z"></path><path d="M423.68 350.01c-13.55-54.69-47.45-100.75-95.45-129.69l-92.76-55.92-21.05 36.91 91.88 55.39c79.33 47.83 104.97 151.29 57.14 230.63-23.08 38.28-59.84 65.33-103.53 76.15-43.69 10.82-88.82 4.07-127.1-19.01l-84.52-51.88-21.44 37.6 84.03 50.66c48.01 28.94 104.56 37.41 159.25 23.86 54.69-13.55 100.75-47.45 129.68-95.45 28.94-48 37.41-104.55 23.86-159.25Z"></path><path d="M244.96 503.12c-27.55 6.82-55.98 2.6-80.04-11.9l-86.2-51.97-20.66 36.22 84.99 52.17c33.7 20.32 73.53 26.27 112.12 16.72 38.57-9.56 71.03-33.42 91.39-67.2s26.31-73.62 16.76-112.19c-9.56-38.57-33.42-71.03-67.2-91.39l-91.47-55.14-21.05 36.91 90.59 54.61c24.06 14.51 41.07 37.67 47.9 65.23 6.83 27.56 2.6 55.99-11.9 80.05-14.51 24.06-37.67 41.07-65.23 47.9Z"></path></svg>