<svg xmlns="http://www.w3.org/2000/svg" width="608.4" viewBox="0 0 608.4 442.5" height="442.5" xml:space="preserve"><path d="M255.4 0h-94.7c-14.8 0-24 16.1-16.4 28.9l185.2 311.3c3.6 6 10.1 9.7 17.1 9.7h91.8c14.8 0 24-16.1 16.4-28.9L268.2 7.3c-2.7-4.5-7.5-7.3-12.8-7.3zM406.3 0h-94.7c-14.8 0-24 16.1-16.4 28.9l185.2 311.3c3.6 6 10.1 9.7 17.1 9.7h91.8c14.8 0 24-16.1 16.4-28.9L419.1 7.3c-2.7-4.5-7.6-7.3-12.8-7.3zM303.9 321.5 117 7.3c-2.7-4.5-7.5-7.3-12.8-7.3H19.1C8.6 0 0 8.6 0 19.1v404.3c0 10.6 8.6 19.1 19.1 19.1h80.4c10.6 0 19.1-8.6 19.1-19.1V244.6l59.6 95.7c3.6 6 10.1 9.7 17.1 9.7h92.3c14.7 0 23.7-15.9 16.3-28.5z"></path></svg>