<svg xmlns="http://www.w3.org/2000/svg" width="623.3" viewBox="0 0 623.3 443.2" height="443.2" xml:space="preserve" style="enable-background:new 0 0 623.3 443.2"><path d="m375.1 416.8 102-118h-102v118zm12.4-105.5H450l-62.5 72.3v-72.3zM494.7 416.8l101.9-118H494.7v118zM507 311.3h62.5L507 383.6v-72.3zM248.2 416.8v-118h-102l102 118zm-12.4-33.2-62.5-72.3h62.5v72.3zM128.6 416.8v-118h-102l102 118zm-12.3-33.2-62.5-72.3h62.5v72.3zM375.1 285.6h105.2V157.5H375.1v128.1zm12-115.6h81.1v103.2H387.1V170zM263.4 285.6h96.5V157.5h-96.5v128.1zm12-115.6h73.1v103.2H275.4V170z"></path><path d="M623.3 170v-38.1L510.1 0H468v91.3L389.7 0h-42.1v131.9h-71.8V0h-42.1l-78.4 91.3V0h-42.1L0 131.9V170h116.3v103.2H0v38.1l113.2 131.9h42.1v-91.3l78.4 91.3h42.1V311.3h71.8v131.9h42.1l78.4-91.3v91.3h42.1l113.2-131.9v-38.1H506.8V170h116.5zM611 285.6v21L504.5 430.7h-24.1V318.5L384 430.7h-24.1V298.8h-96.5v131.9h-24.1L143 318.4v112.3h-24.1L12.3 306.6v-21h116.3V157.5H12.3v-21l106.5-124h24.1v112.3l96.3-112.3h24.1v131.9h96.5V12.5H384l96.3 112.3V12.5h24.1L611 136.6v21H494.7v128.1H611z"></path><path d="M142.9 285.6h105.2V157.5H142.9v128.1zm12-115.6h81.8v103.2H154.9V170zM248.2 144.4v-118l-102 118h102zm-12.4-12.5h-62.5l62.5-72.3v72.3zM128.6 144.4v-118l-102 118h102zm-12.3-12.5H53.8l62.5-72.3v72.3zM375.1 26.4v118h102l-102-118zm12.4 33.2 62.5 72.3h-62.5V59.6zM494.7 26.4v118h101.9l-101.9-118zM507 59.6l62.5 72.3H507V59.6z"></path></svg>