<svg xmlns="http://www.w3.org/2000/svg" width="630.8" viewBox="0 0 630.8 630.8" height="630.8" xml:space="preserve" style="enable-background:new 0 0 630.8 630.8"><path d="M315.4 0C141.5 0 0 141.5 0 315.4s141.5 315.4 315.4 315.4 315.4-141.5 315.4-315.4S489.3 0 315.4 0zm291.7 315.4c0 53.3-14.4 103.2-39.4 146.3l-252.9-438h.6c160.8 0 291.7 130.9 291.7 291.7zM315.4 607.1c-107.5 0-201.7-58.5-252.2-145.3h274.2l-138-239L62.3 460.2C37.8 417.5 23.7 368 23.7 315.4 23.7 154.9 154 24.3 314.3 23.7l-84.5 146.4 168.4 291.6h169.5c-50.6 86.9-144.8 145.4-252.3 145.4z"></path></svg>