<svg xmlns="http://www.w3.org/2000/svg" width="467.1" viewBox="0 0 467.1 589.6" height="589.6"><path d="M61.5 235H172v165.2H61.5zM0 235h47.8v165.2H0zM185.7 235h47.8v165.2h-47.8zM124.2 416.2H172v173.5h-47.8zM61.5 416.2h47.8v173.5H61.5z"></path><circle cx="116.8" cy="173.5" r="50.2"></circle><path d="M467.1 235V116.1L233.5 0v235h43.7v165.2h-43.7v189.4H295V416.2h47.8v173.5h14.8V416.2h47.8v173.5h61.5V400.2h-43.7V235h43.9zM350.3 123.4c27.7 0 50.2 22.5 50.2 50.2 0 27.7-22.5 50.2-50.2 50.2-27.7 0-50.2-22.5-50.2-50.2 0-27.8 22.5-50.2 50.2-50.2zm55.3 276.8H295.1V235h110.5v165.2z"></path></svg>