<svg data-name="Layer 1" xmlns="http://www.w3.org/2000/svg" viewBox="0 0 601.47 601.47"><path d="M601.47 300.73C601.47 134.91 466.56 0 300.73 0S0 134.91 0 300.73s129.05 294.7 289.84 300.46c3.61.18 7.24.28 10.89.28s7.28-.09 10.89-.28c160.79-5.76 289.85-138.28 289.85-300.46Zm-543.45 0c0-133.83 108.88-242.71 242.71-242.71S543.45 166.9 543.45 300.73c0 44.89-12.3 86.95-33.63 123.06 1.82-11.14 2.8-22.56 2.8-34.2 0-116.83-95.05-211.88-211.88-211.88S88.86 272.76 88.86 389.59c0 11.65.98 23.07 2.8 34.21-21.34-36.11-33.64-78.17-33.64-123.06Zm242.71 57.15c-67.16 0-121.79 54.64-121.79 121.79 0 1.36.16 2.68.2 4.04-20.2-26.04-32.28-58.69-32.28-94.13 0-84.84 69.02-153.86 153.86-153.86s153.87 69.02 153.87 153.86c0 35.44-12.07 68.09-32.28 94.12.04-1.35.2-2.67.2-4.04 0-67.16-54.64-121.79-121.79-121.79Zm-63.77 121.79c0-35.16 28.6-63.77 63.77-63.77s63.77 28.61 63.77 63.77-28.61 63.77-63.77 63.77-63.77-28.61-63.77-63.77Z"></path></svg>