<svg data-name="Layer 1" xmlns="http://www.w3.org/2000/svg" viewBox="0 0 619.85 619.83"><path d="M131.21 56.5c-12.86 9.08-24.99 19.11-36.3 30v5.68h36.3V56.5ZM187.35 24.97c-12.55 5.41-24.67 11.62-36.3 18.57v48.65h36.3V24.97ZM243.49 6.97c-12.4 2.71-24.51 6.15-36.3 10.29v189.62h-15.38l33.54 43.52 33.54-43.52h-15.38V6.97ZM299.63.02c-12.29.4-24.41 1.44-36.3 3.23v88.93h36.3V.02ZM355.77 3.16C343.88 1.4 331.76.38 319.47 0v92.18h36.3V3.16ZM411.91 17c-11.8-4.11-23.91-7.54-36.3-10.21v85.39h36.3V17ZM468.04 43.1c-11.64-6.91-23.75-13.11-36.3-18.48v67.56h36.3V43.1ZM524.18 85.78c-11.32-10.82-23.45-20.8-36.3-29.82v36.22h36.3v-6.4ZM85.5 523.87h6.69v-36.3H55.75c9 12.85 18.95 24.98 29.75 36.3ZM42.94 467.73h49.25v-36.3H24.5c5.35 12.56 11.55 24.66 18.44 36.3ZM16.91 411.6h75.28v-36.3H6.73c2.66 12.4 6.08 24.5 10.18 36.3ZM3.12 355.46h89.07v-36.3H0c.36 12.29 1.37 24.41 3.12 36.3ZM.03 299.32h92.16v-36.3H3.3C1.5 274.91.45 287.03.04 299.32ZM7.04 243.18h85.15v-36.3H17.37c-4.15 11.79-7.6 23.91-10.32 36.3ZM25.11 187.04h67.08v-36.3H43.72c-6.97 11.63-13.19 23.75-18.61 36.3ZM56.72 130.9h35.47V94.6H86.8c-10.92 11.31-20.97 23.44-30.08 36.3ZM488.63 563.34c12.86-9.08 24.99-19.11 36.3-30v-5.68h-36.3v35.69ZM432.49 594.87c12.55-5.41 24.67-11.62 36.3-18.57v-48.64h-36.3v67.22ZM376.35 612.87c12.4-2.71 24.51-6.15 36.3-10.29v-74.93h-36.3v85.22ZM320.22 619.81c12.29-.4 24.41-1.44 36.3-3.23v-88.93h-36.3v92.16ZM264.08 616.67c11.89 1.76 24.01 2.78 36.3 3.16v-92.18h-36.3v89.03ZM151.8 576.73c11.64 6.91 23.75 13.11 36.3 18.48v-67.56h-36.3v49.08ZM95.66 534.05c11.32 10.82 23.45 20.8 36.3 29.82v-36.22h-36.3v6.4ZM534.34 95.96h-6.69v36.3h36.44c-9-12.85-18.95-24.98-29.75-36.3ZM576.91 152.1h-49.25v36.3h67.69c-5.35-12.56-11.55-24.66-18.44-36.3ZM527.66 300.68h92.19c-.36-12.29-1.37-24.41-3.12-36.3h-89.06v36.3ZM527.66 356.81h88.89c1.8-11.89 2.85-24.01 3.26-36.3h-92.16v36.3ZM527.66 469.09h48.47c6.97-11.63 13.19-23.75 18.61-36.3h-67.08v36.3ZM527.66 525.23h5.39c10.92-11.31 20.97-23.44 30.08-36.3h-35.47v36.3ZM392.66 195.1l-43.52 33.54 43.52 33.54v-17.64h220.46c-2.66-12.4-6.08-24.5-10.18-36.3H392.66v-13.13ZM392.66 361.38l-43.52 33.54 43.52 33.54v-15.49h209.82c4.15-11.79 7.6-23.91 10.32-36.3H392.66V361.4ZM225.34 373.15l-33.54 43.52h16.14v186.16c11.8 4.11 23.91 7.54 36.3 10.21V416.67h14.63l-33.54-43.52Z"></path></svg>