<svg data-name="Layer 1" xmlns="http://www.w3.org/2000/svg" viewBox="0 0 617.04 616.99"><path d="M395.63 0H0v91.83h303.8c50.72 0 91.83-41.11 91.83-91.83Z"></path><path d="M506.34 89.65V0h-88.55v62.69c0 54.13-43.88 98.01-98.01 98.01H0v22.14h413.14c51.47 0 93.2-41.72 93.2-93.2Z"></path><path d="M528.49 0v154.11c0 54.13-43.88 98.01-98.01 98.01H0v22.14h523.84c51.47 0 93.2-41.72 93.2-93.2V88.55C617.04 39.64 577.39 0 528.49 0ZM303.8 525.16H0v91.83h395.63c0-50.72-41.11-91.83-91.83-91.83Z"></path><path d="M413.14 434.15H0v22.14h319.77c54.13 0 98.01 43.88 98.01 98.01v62.69h88.55v-89.65c0-51.47-41.72-93.2-93.2-93.2Z"></path><path d="M523.84 342.73H0v22.14h430.47c54.13 0 98.01 43.88 98.01 98.01v154.11c48.91 0 88.55-39.65 88.55-88.55v-92.52c0-51.47-41.72-93.2-93.2-93.2Z"></path></svg>