<svg data-name="Layer 1" xmlns="http://www.w3.org/2000/svg" viewBox="0 0 600.03 574.29"><path d="M211.14 80.09 107.1 0 0 136.11l103.48 80.81L211.14 80.09zM493.06 216.05 600.03 80.09 495.98 0 388.89 136.11l55.21 43.11-106.67 135.57 55.21 43.12-106.67 135.56 103.48 80.82 107.66-136.83-55.51-42.73 106.97-135.95-55.51-42.73z"></path><path d="m247.16 394.73 106.96-135.95-55.5-42.73L405.58 80.09 301.54 0l-107.1 136.11 55.21 43.11-106.67 135.57 55.21 43.12L91.52 493.47l103.49 80.82 107.65-136.83-55.5-42.73z"></path></svg>