<svg data-name="Layer 1" xmlns="http://www.w3.org/2000/svg" viewBox="0 0 611.15 611.46"><path d="M98.01 530.08c50.91 47.16 117.88 77.23 191.82 80.99 5.25.14 10.46.4 15.74.4s10.5-.26 15.75-.4c73.94-3.75 140.9-33.83 191.82-80.99-64.2 25.87-134.21 40.26-207.56 40.26s-143.37-14.39-207.56-40.26ZM10.32 384.74c6.58 24.69 16.17 48.13 28.36 69.94 77.92 47.28 169.28 74.54 266.89 74.54s188.97-27.26 266.89-74.54c12.19-21.81 21.78-45.25 28.36-69.94-81.13 64.6-183.72 103.35-295.25 103.35S91.45 449.34 10.32 384.74Z"></path><path d="M608.11 263.19c-72.08 87.08-180.94 142.65-302.54 142.65S75.1 350.26 3.03 263.18C1.08 277.14 0 291.38 0 305.88c0 5.1.14 10.16.38 15.2 78.43 77.76 186.29 125.88 305.19 125.88s226.76-48.12 305.19-125.87c.24-5.04.39-10.11.39-15.21 0-14.5-1.08-28.74-3.04-42.7Z"></path><path d="M305.57 364.72c120.56 0 227.11-61.03 290.46-153.79-5.27-16.11-11.83-31.62-19.58-46.43-53.18 94.83-154.64 159.1-270.88 159.1S87.87 259.33 34.7 164.49c-7.74 14.81-14.31 30.32-19.58 46.43 63.35 92.77 169.89 153.79 290.45 153.79Z"></path><path d="M305.57 282.47c109.06 0 203.12-65.21 245.4-158.66-9.24-12.44-19.42-24.14-30.4-35.02-31.29 88.71-115.73 152.56-215 152.56S121.86 177.49 90.58 88.78c-10.99 10.88-21.16 22.58-30.4 35.02 42.28 93.45 136.34 158.67 245.4 158.67Z"></path><path d="M305.57 200.22c87.06 0 160.2-59.88 180.94-140.55-11.74-8.64-24.11-16.47-37.04-23.38-11.09 69.58-71.19 122.81-143.89 122.81s-132.81-53.23-143.9-122.81c-12.93 6.92-25.3 14.74-37.04 23.38 20.74 80.68 93.87 140.56 180.93 140.56Z"></path><path d="M305.57 127.46c35.2 0 63.73-28.53 63.73-63.73S340.77 0 305.57 0s-63.73 28.53-63.73 63.73 28.53 63.73 63.73 63.73Z"></path></svg>