<svg data-name="Layer 1" xmlns="http://www.w3.org/2000/svg" viewBox="0 0 613.28 409.13"><path d="M613.28 57.35V.25H461.02c-28.82 0-52.18 23.36-52.18 52.19v44.68C406.04 43.02 361.43 0 306.65 0s-99.52 43.15-102.21 97.34V52.43c0-28.82-23.36-52.18-52.18-52.18H0v57.14h147.3v16.53H0v57.14h147.3v16.53H0v4.96c0 28.82 23.36 52.18 52.18 52.18h152.26v204.4h204.4V204.69h-97.48c52.6-2.4 94.76-44.36 97.48-96.87v96.87H561.1c28.82 0 52.18-23.36 52.18-52.18v-4.95h-147.3v-16.53h147.3V73.89h-147.3V57.36h147.3Zm-408.84 50.24c2.61 52.62 44.82 94.7 97.49 97.1h-97.49v-97.1Z"></path></svg>