<svg data-name="Layer 1" xmlns="http://www.w3.org/2000/svg" viewBox="0 0 471.16 607.84"><path d="M470.44 0H.72C.32 0 0 .32 0 .72v606.39c0 .4.32.72.72.72h219.81c.4 0 .72-.32.72-.72V464.27c0-.37-.28-.67-.64-.71-84.9-9.08-151.24-81.14-151.24-168.41l-3.05-156.44c-.02-.79-.66-1.42-1.45-1.42H8.55c-.56 0-.9-.6-.63-1.09L79.95 11.46c.28-.48.97-.48 1.25 0l72.03 124.75a.728.728 0 0 1-.63 1.09H96.43c-.81 0-1.46.67-1.45 1.48l3.04 156.1c0 71.64 53.44 130.76 122.4 139.78.44.06.83-.29.83-.73V138.74c0-.8-.65-1.45-1.45-1.45h-56.25c-.56 0-.9-.6-.63-1.09l72.03-124.74c.28-.48.97-.48 1.25 0l72.03 124.75a.728.728 0 0 1-.63 1.09h-56.26c-.8 0-1.45.65-1.45 1.45v295.89c0 .43.37.77.79.73 32.97-2.66 63.17-16.3 86.01-39.13 25.57-25.57 39.65-60.36 39.65-97.95V138.74c0-.8-.65-1.45-1.45-1.45h-56.26c-.56 0-.9-.6-.63-1.09l72.06-124.74c.28-.48.97-.48 1.25 0l72.03 124.75a.728.728 0 0 1-.63 1.09h-56.25c-.8 0-1.45.65-1.45 1.45V298.3c0 89.24-66.94 159.93-154.44 165.81-.38.03-.67.33-.67.71v142.3c0 .4.32.72.72.72h219.81c.4 0 .72-.32.72-.72V.72c0-.4-.32-.72-.72-.72Z"></path><path d="M110.95 99.9c3.46-21.09-14.51-39.06-35.6-35.6-12.77 2.09-23.07 12.39-25.16 25.16-3.46 21.09 14.51 39.06 35.6 35.6 12.77-2.09 23.07-12.39 25.16-25.16ZM265.96 99.91c3.46-21.09-14.51-39.06-35.6-35.6-12.77 2.1-23.07 12.39-25.16 25.16-3.46 21.09 14.51 39.06 35.6 35.6 12.77-2.09 23.07-12.39 25.16-25.16ZM421.07 99.9c3.46-21.09-14.51-39.06-35.6-35.6-12.77 2.09-23.07 12.39-25.16 25.16-3.46 21.09 14.51 39.06 35.6 35.6 12.77-2.09 23.07-12.39 25.16-25.16Z"></path></svg>