<svg data-name="Layer 1" xmlns="http://www.w3.org/2000/svg" viewBox="0 0 618.25 312.71"><path d="M0 155.34c0 85.2 68.6 154.35 153.58 155.3v-63.76c-49.77-.95-89.86-41.53-89.86-91.54s40.09-90.59 89.86-91.54V.05C68.6.99 0 70.14 0 155.34ZM218.5 155.34c0-50.01 40.09-90.59 89.86-91.54V.05C223.39 1 154.78 70.14 154.78 155.34s68.61 154.35 153.58 155.3v-63.76c-49.77-.95-89.86-41.53-89.86-91.54ZM486.584 226.913l44.958-44.958 85.8 85.8-44.957 44.958z"></path><path d="M462.9 0c-85.79 0-155.35 69.55-155.35 155.35s69.47 155.27 155.2 155.34v-63.72c-50.54-.08-91.49-41.07-91.49-91.62s41.02-91.63 91.63-91.63 91.63 41.02 91.63 91.63c0 .43-.07.83-.07 1.26h63.76c0-.42.03-.85.03-1.26C618.25 69.55 548.7 0 462.9 0Z"></path></svg>