<svg id="Layer_1" data-name="Layer 1" xmlns="http://www.w3.org/2000/svg" viewBox="0 0 570.96 395.28">   <polygon points="175.68 0 0 0 0 175.68 43.92 175.68 43.92 43.92 175.68 43.92 175.68 131.76 131.76 131.76 131.76 87.84 87.84 87.84 87.84 175.68 219.6 175.68 219.6 43.92 351.36 43.92 351.36 131.76 307.44 131.76 307.44 87.84 263.52 87.84 263.52 131.76 263.52 175.68 395.28 175.68 395.28 43.92 527.04 43.92 527.04 131.76 483.12 131.76 483.12 87.84 439.2 87.84 439.2 175.68 570.96 175.68 570.96 0 175.68 0"></polygon>   <polygon points="527.04 351.36 395.28 351.36 395.28 263.52 439.2 263.52 439.2 307.44 483.12 307.44 483.12 219.6 263.52 219.6 263.52 307.44 307.44 307.44 307.44 263.52 351.36 263.52 351.36 351.36 219.6 351.36 219.6 219.6 87.84 219.6 87.84 351.36 43.92 351.36 43.92 219.6 0 219.6 0 395.28 395.28 395.28 570.96 395.28 570.96 219.6 527.04 219.6 527.04 351.36"></polygon> </svg>