<svg data-name="Layer 1" xmlns="http://www.w3.org/2000/svg" viewBox="0 0 605.34 475.32"><path d="M572.07 262.16H436.83c-18.37 0-33.27-14.89-33.27-33.27V33.27C403.56 14.9 388.67 0 370.29 0H235.05c-18.37 0-33.27 14.89-33.27 33.27v195.62c0 18.37-14.89 33.27-33.27 33.27H33.27C14.9 262.16 0 277.05 0 295.43v146.62c0 18.37 14.89 33.27 33.27 33.27h135.24c18.37 0 33.27-14.89 33.27-33.27V295.43c0-18.37 14.89-33.27 33.27-33.27h135.24c18.37 0 33.27 14.89 33.27 33.27v146.62c0 18.37 14.89 33.27 33.27 33.27h135.24c18.37 0 33.27-14.89 33.27-33.27V295.43c0-18.37-14.89-33.27-33.27-33.27Z"></path></svg>