<svg width="642" viewBox="0 0 642 521" height="521" xmlns="http://www.w3.org/2000/svg"><path d="M642 199.062c0 125.791-128.657 227.72-287.423 227.72H319.78l37.365-102.506c118.962-8.66 178.54-160.687 80.699-221.626l-37.557 103.02c-2.568 7.12-8.218 12.7-15.28 15.266-17.552 6.389-80.77 1.09-87.633-2.18-5.258-2.451-7.6-8.455-6.034-13.472l47.058-129.19c-34.86 4.746-66.254 20.077-91.1 42.657-21.828 18.795-37.878 50.74-37.878 85.379 0 38.68 19.004 72.87 48.215 93.718L176.55 520.39H0L189.563.003h221.06C538.445.003 642 89.115 642 199.063"></path></svg>