<svg data-name="Layer 1" xmlns="http://www.w3.org/2000/svg" viewBox="0 0 611.61 611.61"><path d="M611.61 305.8C611.61 137.18 474.43 0 305.81 0c-3.82 0-7.62.1-11.39.29C131.06 6.31 0 141 0 305.8s137.18 305.81 305.81 305.81c3.82 0 7.62-.1 11.39-.29C480.55 605.3 611.61 470.6 611.61 305.8Zm-607.02 0c0-136.9 91.83-252.69 217.11-289.18-48.12 19.81-87.78 56.06-111.95 101.75-46.65 48.77-75.39 114.79-75.39 187.44 0 149.68 121.77 271.45 271.45 271.45 3.23 0 6.44-.08 9.63-.24 67.01-2.35 127.91-29.06 174.08-71.59-36.62 58.03-99.91 97.63-172.55 101.32-3.71.14-7.42.28-11.16.28C139.71 607.02 4.59 471.9 4.59 305.8ZM232.8 49.17c-41.21 17.5-74.87 49.37-94.75 89.26-20.45 20.5-37.13 44.74-49.03 71.55 1.71-31.97 10.4-62.1 24.51-88.95 32.29-33.59 73.25-58.75 119.27-71.86Zm146.05 513.24c41.2-17.51 74.85-49.37 94.72-89.26 20.45-20.5 37.13-44.75 49.03-71.57-1.7 31.97-10.39 62.11-24.51 88.96-32.29 33.59-73.24 58.75-119.25 71.86Zm-275.62-250.8c3.09 109.1 92.74 196.93 202.58 196.93 49.54 0 94.96-17.89 130.21-47.5-25.23 46.01-74.13 77.28-130.21 77.28-128.2 0-232.5-104.3-232.5-232.5 0-24.84 3.96-48.77 11.21-71.23 1.57 27.29 8.12 53.25 18.72 77.04Zm4.56-1.04c-.04-1.59-.12-3.16-.12-4.76 0-23.44 4.12-45.93 11.62-66.82 8.76 95.23 89.05 170.06 186.52 170.06v-4.59c-98.38 0-178.81-78.15-182.58-175.62 9.3-21.98 22.5-41.92 38.66-59.02-5.86 16.21-9.07 33.67-9.07 51.88 0 84.36 68.63 152.99 152.99 152.99v-4.59c-81.83 0-148.4-66.57-148.4-148.4 0-21.41 4.6-41.76 12.79-60.17 24.03-22.61 53.66-39.32 86.6-47.73-41 18.7-69.62 59.98-69.62 107.9 0 65.41 53.22 118.63 118.63 118.63v-4.59c-62.89 0-114.04-51.16-114.04-114.04s51.16-114.04 114.04-114.04c103.65 0 188.91 80.02 197.39 181.51-36.76-71.73-111.41-120.96-197.39-120.96v4.58c88.07 0 164 52.73 198.02 128.26.04 1.59.12 3.16.12 4.76 0 23.44-4.12 45.94-11.63 66.83-8.75-95.23-89.05-170.07-186.52-170.07v4.58c98.39 0 178.81 78.15 182.58 175.63-9.3 21.98-22.5 41.91-38.66 59.01 5.86-16.21 9.07-33.67 9.07-51.87 0-84.36-68.63-152.99-152.99-152.99v4.58c81.83 0 148.4 66.58 148.4 148.41 0 21.41-4.6 41.76-12.79 60.16-24.03 22.6-53.65 39.31-86.58 47.72 40.99-18.7 69.6-59.98 69.6-107.89 0-65.41-53.22-118.63-118.63-118.63v4.58c62.89 0 114.04 51.16 114.04 114.05S368.68 503.95 305.8 503.95c-103.65 0-188.9-80.01-197.39-181.5 36.76 71.73 111.41 120.96 197.39 120.96v-4.59c-88.06 0-163.99-52.73-198.02-128.26Zm337.44 142.21c17.74-16.84 32.49-36.81 43.25-59.07-.56 27.48-7.19 53.48-18.65 76.72-28.13 28.03-63.41 48.88-102.8 59.65 34.65-15.19 62.61-42.86 78.2-77.29ZM493 383.6c9.25-22.18 14.63-46.36 15.39-71.68 9.24 23.92 14.39 49.86 14.52 76.97-10.15 26.44-24.98 50.56-43.5 71.35 8.84-21.73 13.75-45.46 13.75-70.33 0-2.12-.09-4.21-.16-6.32Zm15.4-83.59c-3.09-109.11-92.75-196.92-202.58-196.92-49.54 0-94.96 17.89-130.21 47.51 25.23-46.01 74.13-77.29 130.21-77.29 128.2 0 232.5 104.3 232.5 232.5 0 24.83-3.95 48.75-11.2 71.21-1.57-27.28-8.12-53.23-18.72-77.01ZM166.39 158.84c-17.74 16.84-32.49 36.81-43.25 59.08.56-27.48 7.19-53.5 18.65-76.74 28.14-28.04 63.42-48.88 102.83-59.65-34.67 15.19-62.64 42.86-78.23 77.31Zm-47.77 69.19c-9.25 22.18-14.63 46.35-15.38 71.67-9.24-23.93-14.4-49.87-14.52-77 10.15-26.43 24.98-50.55 43.5-71.34-8.84 21.74-13.76 45.47-13.76 70.35 0 2.12.09 4.22.16 6.32Zm-49.9 77.78c0 130.73 106.36 237.09 237.09 237.09 60.22 0 115.24-22.61 157.1-59.74-31.9 53.55-90.37 89.51-157.1 89.51-147.15 0-266.86-119.71-266.86-266.86 0-65.87 24.04-126.19 63.73-172.79-11.91 27.18-18.57 57.16-18.57 88.69v.18c-9.92 26.11-15.39 54.38-15.39 83.92Zm458.79 83.9c9.91-26.1 15.38-54.37 15.38-83.9 0-130.73-106.36-237.08-237.08-237.08-60.22 0-115.23 22.61-157.1 59.73 31.9-53.54 90.37-89.51 157.1-89.51 147.15 0 266.86 119.71 266.86 266.86 0 65.86-24.03 126.17-63.71 172.77 11.91-27.17 18.56-57.15 18.56-88.67v-.2ZM389.96 594.98c48.11-19.82 87.75-56.07 111.92-101.74 46.63-48.77 75.37-114.78 75.37-187.43 0-149.67-121.77-271.44-271.44-271.44-70.79 0-135.32 27.27-183.7 71.82 36.62-58.04 99.9-97.63 172.54-101.33 3.71-.14 7.42-.28 11.16-.28 166.09 0 301.22 135.13 301.22 301.22 0 136.89-91.81 252.66-217.06 289.17Z"></path></svg>