<svg data-name="Layer 1" xmlns="http://www.w3.org/2000/svg" viewBox="0 0 604.15 604.15"><path d="M302.08 0c-.14 0-.28.01-.43.01v209.35L407.61 103.4c8.45-8.44 22.14-8.44 30.59 0 8.44 8.45 8.44 22.14 0 30.59L301.65 270.54v60.37l15.55-15.55c8.45-8.44 22.14-8.44 30.59 0 8.44 8.45 8.44 22.14 0 30.59l-89.59 89.59 102.01 102.01v-206.8c0-17.06 13.83-30.9 30.9-30.9s30.9 13.83 30.9 30.9v206.8l176.33-176.33c3.8-19.13 5.82-38.89 5.82-59.14C604.15 135.25 468.91 0 302.08 0ZM182.97 510.76v68.97c36.55 15.7 76.8 24.43 119.1 24.43 19.83 0 39.19-1.97 57.95-5.61L227.61 466.13l-44.64 44.64Z"></path><path d="m182.97 449.58 84.36-84.36c-15.43-1.72-27.48-14.66-27.48-30.55v-64.13L103.31 133.99c-8.44-8.45-8.44-22.14 0-30.59 8.45-8.44 22.14-8.44 30.59 0l105.96 105.96V6.45C102.88 35.13 0 156.58 0 302.08c0 11.99.78 23.8 2.14 35.43 4.78.49 9.43 2.46 13.08 6.12l105.96 105.96v-206.8c0-17.06 13.83-30.9 30.9-30.9s30.9 13.83 30.9 30.9v206.8ZM121.18 544.02v-33.27L19.61 409.18c20.51 54.07 56.05 100.74 101.58 134.84Z"></path></svg>