<svg data-name="Layer 1" xmlns="http://www.w3.org/2000/svg" viewBox="0 0 594.84 599.36"><path d="M359.76 241.16V6.39C339.84 2.22 319.2 0 298.05 0 143.11 0 15.65 117.58 0 268.37h332.54c14.97 0 27.22-12.25 27.22-27.22Z"></path><path d="M594.84 258.49c-4.18-30.38-12.88-59.31-25.46-86.07H426.5c-14.97 0-27.22 12.25-27.22 27.22l-.27 300.12c0 19.23-15.73 34.96-34.96 34.96h-251.8c51.08 40.43 115.59 64.64 185.79 64.64 40.35 0 78.82-8.03 113.95-22.49V293.46c0-19.23 15.73-34.96 34.96-34.96h147.87Z"></path><path d="m385.74 417.37.27-300.12c0-19.23 15.73-34.96 34.96-34.96h83.22C467.88 47.84 423 22.34 373.02 9.46v314.09c0 19.23-15.73 34.96-34.96 34.96H4.18c6.1 30.64 16.88 59.58 31.55 86.07h322.8c14.97 0 27.22-12.25 27.22-27.22ZM425.26 375.85v195.18c87.73-41.2 152.18-123.66 168.42-222.4h-141.2c-14.97 0-27.22 12.25-27.22 27.22Z"></path></svg>