<svg xmlns="http://www.w3.org/2000/svg" width="642" viewBox="0 0 642 624.8" height="624.8" style="overflow:visible;enable-background:new 0 0 642 624.8" xml:space="preserve"><path d="M219.9 205.4v138.1c0 27.5 14.6 51.5 36.4 64.8 1.6 1 .5 3.5-1.3 2.9-22.5-7.6-43.1-20.3-60.1-37.3L38.5 217.5v-24.1c0-85.5 69.3-154.9 154.9-154.9h410.1v166.9H219.9z"></path><path d="M38.5 419.4h307.7c41.9 0 75.8-34 75.8-75.8V225.9l181.4 181.5v24.1c0 85.5-69.3 154.9-154.9 154.9h-410v-167z"></path><path d="M642 624.8H0V0h642v624.8zm-14.4-14.4v-596H14.4v595.9h613.2z"></path></svg>