<svg xmlns="http://www.w3.org/2000/svg" width="642" viewBox="0 0 642 584.6" height="584.6" style="overflow:visible;enable-background:new 0 0 642 584.6" xml:space="preserve"><path d="m236.6 495.6-51.3 89H288zM185.3 0l51.3 89L288 0zM321 349.5l-51.3 88.9 51.3 88.9 51.3-88.9zM321 57.2l-51.3 88.9 51.3 89 51.3-89zM405.4 495.6 354 584.5v.1h102.7zM354 0v.1L405.4 89l51.3-89zM539.3 263.7l49.5-85.8h-66.1l33.1-57.2H453l53.3-92.2L642 263.7zM539.3 320.9l49.5 85.8h-66.1l33.1 57.1H453l53.3 92.2L642 320.9zM102.7 263.7l-49.5-85.8h66.1l-33.1-57.2H189l-53.3-92.2L0 263.7zM102.7 320.9l-49.5 85.8h66.1l-33.1 57.1H189L135.7 556 0 320.9zM354 0v.1V0zM354 0v.1V0zM354 0v.1V0z"></path><path d="m522.7 177.9-49.5 85.8H370.5l49.6-85.8zM119.3 177.9l49.4 85.8h102.8l-49.6-85.8zM522.7 406.7l-49.5-85.8H370.5l49.6 85.8zM119.3 406.7l49.4-85.8h102.8l-49.6 85.8zM354 584.5v.1zM354 584.5v.1h-66l33-57.3zM354 .1V0h-66l33 57.2z"></path></svg>