<svg data-name="Layer 1" xmlns="http://www.w3.org/2000/svg" viewBox="0 0 611.8 337.34"><path d="M460.97 186.13c-23.7 6.35-47.14 13.95-69.37 24.41-37.75 18.14-78.33 49.13-78.69 94.86-.17 10.64 0 21.3-.08 31.94h11.2c-.2-6.24.18-12.74 4.29-17.75 8.39-11.31 22.97-15.21 35.95-18.71 22.91-5.09 46.01-9.37 68.9-14.55 26.4-6.74 52.04-16.91 75.34-31.11 14.88-9.11 27.69-20.67 39.86-33.05 20.19-19.93 32.21-36.18 63.43-35.22v-11.07c-38.3-.25-108.77-1.48-150.83 10.26ZM548.37 115.18c-12.17-12.38-24.99-23.94-39.86-33.05-23.29-14.21-48.94-24.38-75.34-31.12-22.89-5.19-45.99-9.46-68.9-14.55-12.98-3.5-27.56-7.4-35.95-18.7-4.11-5.01-4.49-11.51-4.29-17.75h-11.2c.09 10.65-.09 21.3.08 31.94.36 45.73 40.94 76.72 78.69 94.86 22.24 10.46 45.67 18.06 69.37 24.41 42.06 11.73 112.53 10.51 150.83 10.26v-11.07c-31.22.96-43.25-15.29-63.43-35.22ZM283.48 18.02c-8.39 11.31-22.97 15.21-35.95 18.71-22.91 5.09-46.01 9.37-68.9 14.55-26.4 6.74-52.04 16.91-75.34 31.12-14.88 9.11-27.69 20.67-39.86 33.05C43.25 135.38 31.22 151.63 0 150.67v11.07c38.3.25 108.77 1.48 150.83-10.26 23.7-6.35 47.14-13.95 69.37-24.41 37.75-18.14 78.33-49.13 78.69-94.86.17-10.64 0-21.3.08-31.94h-11.2c.2 6.24-.18 12.74-4.29 17.75ZM220.21 210.27c-22.24-10.46-45.67-18.06-69.37-24.41C108.78 174.13 38.31 175.35.01 175.6v11.07c31.22-.96 43.25 15.29 63.43 35.22 12.17 12.38 24.99 23.94 39.86 33.05 23.29 14.21 48.94 24.38 75.34 31.12 22.89 5.19 45.99 9.46 68.9 14.55 12.98 3.5 27.56 7.4 35.95 18.7 4.11 5.01 4.49 11.51 4.29 17.75h11.2c-.09-10.65.09-21.3-.08-31.94-.36-45.73-40.94-76.72-78.69-94.86Z"></path></svg>