<svg data-name="Layer 1" xmlns="http://www.w3.org/2000/svg" viewBox="0 0 614.12 614.12"><path d="M0 0v614.12h614.12V0H0Zm307.07 350.68 201.75 201.75H105.31l201.75-201.75Zm-64.58-43.62c0-17.01-13.84-30.85-30.85-30.85H61.69v-170.9L217.78 261.4c5.82 5.82 13.57 9.03 21.81 9.03s15.98-3.21 21.81-9.03c5.83-5.83 9.04-13.57 9.04-21.81s-3.21-15.98-9.04-21.81L105.31 61.69h170.91v149.96c0 17.01 13.84 30.85 30.85 30.85s30.85-13.84 30.85-30.85V61.69h170.91L352.74 217.78c-5.83 5.83-9.04 13.57-9.04 21.81s3.21 15.98 9.04 21.81c5.82 5.82 13.57 9.03 21.81 9.03s15.98-3.21 21.81-9.03l156.09-156.09v170.91H402.5c-17.01 0-30.85 13.84-30.85 30.85s13.84 30.85 30.85 30.85h149.95v170.91L328.89 285.27c-5.82-5.83-13.57-9.04-21.81-9.04s-15.98 3.21-21.81 9.03L61.69 508.81V337.9h149.96c17.01 0 30.85-13.84 30.85-30.85Z"></path></svg>