<svg xmlns="http://www.w3.org/2000/svg" width="614.1" viewBox="0 0 614.1 614.1" height="614.1" style="enable-background:new 0 0 614.1 614.1" xml:space="preserve"><path d="M559.2 252.1c-26.1 0-47.9 18.2-53.5 42.7l-109.6-24.7 60-94.9c21.2 13.3 49.5 10.8 68-7.6 21.4-21.4 21.4-56.2 0-77.6s-56.2-21.4-77.6 0c-18.5 18.5-21 46.8-7.6 68L344 218l-24.7-109.6C343.7 102.8 362 81 362 54.9 361.9 24.6 337.4 0 307 0c-30.3 0-54.9 24.6-54.9 54.9 0 26.1 18.2 47.9 42.7 53.5L270.1 218l-94.9-60c13.3-21.2 10.8-49.5-7.6-68-21.4-21.4-56.2-21.4-77.6 0-21.4 21.4-21.4 56.2 0 77.6 18.5 18.5 46.8 21 68 7.6l60 94.9-109.6 24.7c-5.6-24.4-27.4-42.7-53.5-42.7C24.6 252.1 0 276.7 0 307s24.6 54.9 54.9 54.9c26.1 0 47.9-18.2 53.5-42.7L218 343.9l-60 94.9c-21.2-13.3-49.5-10.8-68 7.6-21.4 21.4-21.4 56.2 0 77.6 21.4 21.4 56.2 21.4 77.6 0 18.5-18.5 21-46.8 7.6-68l94.9-60 24.7 109.6c-24.4 5.6-42.7 27.4-42.7 53.5 0 30.3 24.6 54.9 54.9 54.9 30.3 0 54.9-24.6 54.9-54.9 0-26.1-18.3-47.9-42.7-53.5L343.9 396l94.9 60c-13.3 21.2-10.8 49.5 7.6 68 21.4 21.4 56.2 21.4 77.6 0 21.4-21.4 21.4-56.2 0-77.6-18.5-18.5-46.8-21-68-7.6l-60-94.9 109.6-24.7c5.6 24.4 27.4 42.7 53.5 42.7 30.3 0 54.9-24.6 54.9-54.9.1-30.3-24.5-54.9-54.8-54.9z"></path></svg>