<svg id="Layer_1" data-name="Layer 1" xmlns="http://www.w3.org/2000/svg" viewBox="0 0 619.62 536.61">   <path d="M619.62,268.3l-39.77-68.88L54.61,263.89c19.5-3.48,287.75-68.83,493.65-119.19l-56.17-97.29L18.6,268.09l473.69,220.77,55.75-96.57c-205.87-50.35-473.94-115.65-493.43-119.13l525.01,64.43,40-69.28Z"></path>   <path d="M16.37,268.09c.5-2.99,339.33-200.71,450-265.22l-1.65-2.86h-143.02L6.97,268.09l315.24,268.52h142.5l1.84-3.19C356.08,469.02,16.86,271.08,16.37,268.09Z"></path>   <path d="M257.55,0h-102.64L0,268.3l154.9,268.3h103.06C200.11,475.87,5.24,271.13,4.74,268.09,5.24,265.05,199.17,61.28,257.55,0Z"></path> </svg>