<svg data-name="Layer 1" xmlns="http://www.w3.org/2000/svg" viewBox="0 0 619.06 619.06"><path d="M411.73 345.19c-17.78 0-32.33-14.55-32.33-32.33 0-17.78 14.55-32.33 32.33-32.33h142.68c35.7 0 64.64-28.94 64.64-64.64V64.64c0-35.7-28.94-64.64-64.64-64.64H409.83c-35.7 0-64.64 28.94-64.64 64.64v141.34c0 15.49-10.28 29.76-25.43 32.95-20.75 4.36-39.22-11.57-39.22-31.6V64.64C280.53 28.94 251.59 0 215.89 0H64.64C28.94 0 0 28.94 0 64.64v144.58c0 35.7 28.94 64.64 64.64 64.64h141.34c15.49 0 29.77 10.28 32.95 25.43 4.36 20.75-11.57 39.22-31.6 39.22H64.64C28.94 338.52 0 367.47 0 403.17v151.25c0 35.7 28.94 64.64 64.64 64.64h144.58c35.7 0 64.64-28.94 64.64-64.64V413.09c0-15.49 10.28-29.76 25.43-32.95 20.75-4.36 39.22 11.57 39.22 31.6v142.68c0 35.7 28.94 64.64 64.64 64.64H554.4c35.7 0 64.64-28.94 64.64-64.64V409.84c0-35.7-28.94-64.64-64.64-64.64H411.72Z"></path></svg>