<svg xmlns="http://www.w3.org/2000/svg" width="606.2" viewBox="0 0 606.2 473.8" height="473.8" xml:space="preserve"><path d="M177.3 396.6 368.3.3h140.8l-191 396.3zM391.1 396.9l-38.5 76.9 253.6-142.1-128-113.2-20 41.6h-61.1l-66 136.8zM327.3.4c-42.9 1.3-137.9 12.2-226 77.4-40.8 30.2-70.7 66.5-89.2 114.1C4.8 210.6-.4 231.2 0 251.5c0 0-2 140.8 164.2 145.4l66.1-136.7h-10.7c-10.3-.4-20.8-.8-30.6-3.7-8.9-2.6-17.6-6.9-23.7-13.7C110.2 181.6 178 97.6 230.2 62c32.2-22 67.9-38.6 104-53.1C355.1.5 364.5-.8 327.3.4z"></path></svg>