<svg xmlns="http://www.w3.org/2000/svg" width="606.5" viewBox="0 0 606.5 300" height="300" xml:space="preserve"><path d="M466.1 45 418 56.5 350.4.6l-57.3 13.6v57.3l-32-26.5-48 11.4-68-56.4-57.2 13.6v57.3L56.5 45 0 58.4v126.9L139.6 300l57.2-13.6v-56.9l53 44 48.4-11.5 46 38 57.3-13.6v-56.8l53 43.8 48.6-11.5 46.2 38.1 57.3-13.6V160.5L466.1 45zm119 115.1-32.5 7.2L430.8 67.1l32-7.6 122.3 100.6zm-40.8 17.5v101.1L511 251.3V150.2l33.3 27.4zm-46.6-38.3v101.1L355.3 123V21.9l142.4 117.4zm-347.6-16.9v-101l143 118.7v100.4l-143-118.1zm-7.1 44.9-33.4-27.5 32.2-7.1 33.5 27.5-32.3 7.1zm163.4-16.2 32.9 27.2v100.5l-32.9-27.2V151.1zm39.5 23.4zm1.1-7.1-32.6-26.9 32.5-7.2 32.7 26.9-32.6 7.2zm-4.9-151.2v104.6l-35.7 7.9v-104l35.7-8.5zm-84.4 43.3 35.4 29.3v34.1L225.9 67l31.8-7.5zM136.8 15.6v104.6l-35.7 7.9v-104l35.7-8.5zM87.9 88v33.9L21.2 67.1l32-7.6L87.9 88zM13.3 77.7l121.4 100.2v100.8L13.3 179.1V77.7zm134.6 206.7V179.8l35.7-7.9v104l-35.7 8.5zm49-72.1v-34.2l88.4 73.3-32 7.6-56.4-46.7zm155.6 72.1V179.8l35.7-7.9v104l-35.7 8.5zM457.8 259l-56.4-46.6v-34.2l88.7 73.1-32.3 7.7zm99.8 25.4V179.8l35.7-7.9v104l-35.7 8.5z"></path></svg>