<svg data-name="Layer 1" xmlns="http://www.w3.org/2000/svg" viewBox="0 0 598.14 598.14"><path d="M93.52 456.33c-12.5 0-25 4.77-34.51 14.29-.96.96-1.84 1.97-2.71 3 19.04 26.43 42.27 49.61 68.74 68.59 1.02-.87 2.03-1.75 3-2.72 18.99-19.03 18.95-49.96-.08-68.94-9.5-9.48-21.97-14.22-34.43-14.22ZM56.81 299.38c-.03-26.86-21.9-48.69-48.74-48.69h-.06c-1.38 0-2.74.1-4.1.21C1.37 266.58 0 282.66 0 299.07s1.43 32.99 4.05 48.92c1.33.11 2.66.2 4.02.2h.07c13.02-.02 25.25-5.11 34.45-14.32 9.2-9.22 14.25-21.47 14.23-34.49ZM470.48 470.26c-19 19.02-18.98 49.94.04 68.94.97.96 1.98 1.85 3.01 2.71 26.44-19.02 49.62-42.25 68.62-68.71-.87-1.02-1.76-2.04-2.72-3-19.01-18.99-49.94-18.97-68.94.05ZM594.14 250.39c-1.35-.11-2.69-.2-4.06-.2h-.02c-26.88.01-48.75 21.89-48.73 48.77.01 26.87 21.88 48.73 48.74 48.73h.02c1.38 0 2.74-.09 4.09-.2 2.57-15.77 3.96-31.93 3.96-48.42s-1.41-32.83-4.01-48.68ZM539.28 127.72c.96-.96 1.85-1.97 2.72-3-19.01-26.45-42.22-49.64-68.68-68.65-1.02.87-2.03 1.75-3 2.71-19 19.01-19 49.94.02 68.94 19.01 19 49.94 19 68.94-.02ZM92.99 142.36h.07c13.02-.02 25.25-5.11 34.45-14.33 9.2-9.23 14.25-21.47 14.23-34.5-.02-13.02-5.11-25.26-14.33-34.45-.96-.96-1.98-1.85-3-2.71-26.42 19.05-49.58 42.29-68.55 68.76.87 1.02 1.75 2.03 2.71 2.99C67.77 137.3 80 142.35 93 142.35Z"></path><path d="M501.48 298.98c0-23.66 9.2-45.91 25.92-62.65 15.49-15.5 35.73-24.45 57.43-25.71-5.52-17.85-12.7-34.95-21.29-51.19-16.72 14.85-37.7 22.38-58.74 22.38-22.68 0-45.36-8.63-62.63-25.9-33.29-33.27-34.41-86.61-3.57-121.36-16.25-8.59-33.36-15.76-51.21-21.27-2.72 46.42-41.24 83.38-88.32 83.38s-85.61-36.97-88.32-83.39c-18.01 5.56-35.27 12.81-51.65 21.5 14.45 16.2 22.45 36.81 22.49 58.7.03 23.66-9.15 45.93-25.85 62.68-16.71 16.75-38.94 26-62.6 26.04H93c-21.84 0-42.41-7.93-58.62-22.3-8.57 16.26-15.72 33.37-21.2 51.22 46.42 2.66 83.43 41.13 83.49 88.22.03 23.66-9.16 45.92-25.87 62.68-15.47 15.52-35.7 24.49-57.41 25.77 5.53 17.84 12.73 34.94 21.34 51.17 34.72-30.89 88.05-29.83 121.37 3.41 33.32 33.25 34.49 86.58 3.68 121.36 16.26 8.58 33.37 15.73 51.22 21.23 2.68-46.42 41.16-83.41 88.25-83.45h.08c47.06 0 85.57 36.91 88.32 83.31 17.84-5.52 34.94-12.72 51.18-21.32-14.44-16.21-22.42-36.83-22.43-58.72-.02-23.66 9.18-45.91 25.9-62.65 33.27-33.31 86.59-34.45 121.36-3.62 8.58-16.25 15.75-33.37 21.25-51.22-46.42-2.7-83.4-41.2-83.42-88.29Z"></path><path d="M299.07 56.81c26.88 0 48.74-21.87 48.74-48.75 0-1.38-.09-2.74-.21-4.08C331.8 1.4 315.6 0 299.06 0s-32.74 1.4-48.54 3.98c-.11 1.35-.21 2.71-.21 4.08 0 26.88 21.86 48.75 48.75 48.75ZM299.32 541.32h-.05c-26.88.03-48.73 21.91-48.7 48.79 0 1.38.09 2.74.2 4.09 15.73 2.55 31.85 3.94 48.3 3.94s32.91-1.42 48.8-4.03c.11-1.35.2-2.71.2-4.08-.02-26.86-21.89-48.71-48.75-48.71Z"></path></svg>