<svg xmlns="http://www.w3.org/2000/svg" width="381.67" viewBox="0 0 381.67 642" height="642" data-name="Layer_1"><path d="M190.83 216.68 0 326.85V278.7l107.37-62.06L0 154.65V106.5l149.15 86.11v-24.08L40.77 105.96V81.88l66.6 38.46V72.41l41.78 24.12V0l41.68 24.06v144.47l20.87-12.05V12.02L232.52 0v96.53l41.77-24.12v47.93l66.61-38.46v48.15L232.53 192.6l20.85 12.04 128.29-74.07v24.08l-107.44 62.03 107.44 62.02v48.15L190.83 216.68"></path><path d="M340.9 327.39v24.08l-66.61-38.46v48.15l-41.77-24.12v96.28l-41.69-24.05-41.68 24.05v-96.28l-41.78 24.15v-48.15l-66.6 38.43v-24.08l108.38-62.57v48.15l41.68-24.07 41.69 24.07v-48.15l108.38 62.57zM317.63 475.88c-29.86 0-54.35 22.88-56.96 52.07-2.12-.24-4.26-.39-6.44-.39s-4.32.15-6.44.39c-2.61-29.18-27.1-52.07-56.96-52.07s-54.35 22.88-56.96 52.07c-2.12-.24-4.26-.39-6.44-.39s-4.32.15-6.44.39c-2.61-29.18-27.1-52.07-56.96-52.07-31.6 0-57.22 25.62-57.22 57.22s25.62 57.22 57.22 57.22c2.18 0 4.32-.15 6.44-.39 2.61 29.18 27.1 52.07 56.96 52.07s54.35-22.88 56.96-52.07c2.12.24 4.26.39 6.44.39s4.32-.15 6.44-.39c2.61 29.18 27.1 52.07 56.96 52.07s54.35-22.88 56.96-52.07c2.12.24 4.26.39 6.44.39 31.6 0 57.22-25.62 57.22-57.22s-25.62-57.22-57.22-57.22ZM18.3 533.1c0-25.26 20.48-45.74 45.74-45.74s44.21 19.05 45.61 43.06c-20.91 6.84-36.5 25.38-39.04 47.9-2.15.31-4.33.53-6.57.53-25.26 0-45.74-20.48-45.74-45.74Zm90.35 10.01c-3.16 14.16-12.89 25.83-25.82 31.67 3.16-14.16 12.89-25.83 25.82-31.67Zm18.79 87.41c-24.36 0-44.21-19.05-45.61-43.06 20.91-6.84 36.5-25.38 39.04-47.9 2.15-.31 4.33-.53 6.57-.53s4.42.22 6.57.53c2.54 22.52 18.13 41.06 39.04 47.9-1.4 24.01-21.25 43.06-45.61 43.06Zm18.78-87.41c12.94 5.84 22.66 17.5 25.82 31.67-12.94-5.84-22.66-17.5-25.82-31.67Zm38.05 35.21c-2.54-22.52-18.13-41.06-39.04-47.9 1.4-24.01 21.25-43.06 45.61-43.06s44.21 19.05 45.61 43.06c-20.91 6.84-36.5 25.38-39.04 47.9-2.15.31-4.33.53-6.57.53s-4.42-.22-6.57-.53Zm51.18-35.21c-3.16 14.16-12.89 25.83-25.82 31.67 3.16-14.16 12.89-25.83 25.82-31.67Zm18.78 87.41c-24.36 0-44.21-19.05-45.61-43.06 20.91-6.84 36.5-25.38 39.04-47.9 2.15-.31 4.33-.53 6.57-.53s4.42.22 6.57.53c2.54 22.52 18.13 41.06 39.04 47.9-1.4 24.01-21.25 43.06-45.61 43.06Zm18.79-87.41c12.94 5.84 22.66 17.5 25.82 31.67-12.94-5.84-22.66-17.5-25.82-31.67Zm44.61 35.73c-2.24 0-4.42-.22-6.57-.53-2.54-22.52-18.13-41.06-39.04-47.9 1.4-24.01 21.25-43.06 45.61-43.06s45.74 20.48 45.74 45.74-20.48 45.74-45.74 45.74Z"></path></svg>