<svg xmlns="http://www.w3.org/2000/svg" width="563.9" viewBox="0 0 563.9 615" height="615" xml:space="preserve"><path d="m.4 404.1.4.1 165.1-134.9.1-.1c20.5-17 27.9-44.1 18.9-69.1-9-25-32-41.2-58.6-41.2H.6c-.3 0-.6.3-.6.6v50.9c0 .3.3.6.6.6h125.6c6.2 0 8.7 4.2 9.6 6.7.9 2.5 1.7 7.3-3 11.2L.2 337.3l-.2.2v66c0 .2.1.5.4.6M404.7 359.9l-.4-.1-175 146.4-.6-145.6c0-.2-.1-.4-.4-.6h-.3L.2 546.7l-.2.2v65.9c0 .2.1.5.4.6l.4.1 176.5-145.7v146.5c0 .2.1.5.4.6l.4.1 175-146.4v131.3c0 .3.3.6.6.6h50.9c.3 0 .6-.3.6-.6V360.4c-.1-.2-.2-.4-.5-.5"></path><path d="M563.9 288.2c.1-50.5-28.3-95-74.2-116.1-45.9-21.1-98.2-13.8-136.5 19.2l-4.6 3.9c-6.5-53.3-32.2-102.4-72.5-138.5C235.3 20.1 182.8 0 128.1 0H.6C.3 0 0 .3 0 .6v50.9c0 .3.3.6.6.6h125.7c47 0 91 18.5 123.7 52.2 32.2 33.1 49.3 76.6 48 122.5-1 38.2-14.4 73.9-38.8 103.4-.5.6-.6 1.3-.4 2.1.2.8.8 1.5 1.5 1.8 1.8.8 3.7-.8 4.9-1.8l59.1-49.2v.1l62.8-52.5c23-19.8 53.1-24 80.7-11.3 27.5 12.7 43.9 38.3 43.9 68.7-.2 87.9-.3 158.7-.2 210.4 0 13.3 0 25.9.1 43.1 0 15.3.1 34.2.1 60.5 0 .3.3.6.6.6h50.9c.3 0 .6-.3.6-.6-.1-83.8-.2-165.4.1-313.9"></path></svg>