<svg data-name="Layer 1" xmlns="http://www.w3.org/2000/svg" viewBox="0 0 558.42 606.65"><path d="M558.42 174.62V58.19L457.63 0l-65.84 38.01L325.95 0 225.16 58.19v76.07l-58.54 33.79-65.84-38.01L0 188.24v116.28l65.8 38.05-.04 76.04 100.87 58.24 66.08-38.15 58.26 33.68-.04 76.04 100.87 58.24 100.75-58.16.02-76.02 65.86-37.99V318.06l-65.88-38.04.02-67.4 65.86-37.99ZM145.43 415.83l-37.42-21.6.04-76.03-65.82-38.06V237l103.27 59.62-.07 119.21ZM325.95 48.77l65.84 38.01 65.84-38.01 37.43 21.61L391.79 130l-103.2-59.67 37.35-21.57Zm-58.55 58.19 103.27 59.62-.07 119.05-37.34-21.55v-75.84l-.04-.02v-.05l-65.82-38.06v-43.14Zm-79.65 308.92V296.63l103.21-59.5-.02 42.94-65.77 37.97v76.25l-37.42 21.59Zm328.44-5.8-65.85 37.99-.02 76.03-37.4 21.59V426.44l103.27-59.54v43.17ZM391.8 389.86l-102.99-59.55 37.24-21.48 65.75 37.96 65.98-38.09 37.3 21.53-103.27 59.62Z"></path></svg>