<svg xmlns="http://www.w3.org/2000/svg" width="592" viewBox="0 0 592 423.7" height="423.7"><path d="M462.8 0H334.1v174.5h128.2v-49.3h-79v-76h79.5c44.1 0 79.9 35.9 79.9 79.9v165.4c0 44.1-35.8 79.9-79.9 79.9h-79.5v-76h79v-49.3H334.1v174.5h128.7c71.2 0 129.2-57.9 129.2-129.2V129.2C592 57.9 534.1 0 462.8 0zM0 129.2v165.4c0 71.2 57.9 129.2 129.2 129.2h130.1V249.2H131v49.3h79v76h-80.8c-44.1 0-79.9-35.8-79.9-79.9V129.2c0-44.1 35.9-79.9 79.9-79.9H210v76h-79v49.3h128.2V0h-130C57.9 0 0 57.9 0 129.2z"></path></svg>