<svg xmlns="http://www.w3.org/2000/svg" width="603" viewBox="0 0 603 522.2" height="522.2"><path d="M537.4 136h-25.6l12.8-22.2L458.9.1 144.2 0 78.4 113.9l12.9 22.2H65.7L0 249.7l157.4 272.5h131.5l12.8-21.9 12.6 21.9h131.5L603 249.7 537.4 136zM158 23.7h287.2l52 90.2-12.9 22.1h-25l12.8-22.1-39.5-68.6H170.3L130.7 114l131.1 226.6-12.6 21.4-143.3-248L158 23.7zm248.7 67H196.5L183 113.9l104.7 181.3-12.3 21.5-117.2-202.9 25.9-44.6H419l25.9 44.8-12.9 22-25 .1 12.9-22.2-13.2-23.2zM392 114.6l-12.3 21.5-156.3-.1-12.5-21.4H392zm1.3 317l105-181.8-13.5-23.2-209.3.1-12.4-21.6H497.4l25.9 44.7-117.4 203.3h-51.8l-12.6-22 12.3-21.6 12.7 22 26.8.1zm-25.7-46.1l78-135.4h24.9s-60.4 104.6-90.6 157.1c-3.6-6.3-12.3-21.7-12.3-21.7zM118 226.5l-13.3 23.2 105.1 181.9h26.8l104.5-181.5 24.9.1-117 202.9h-51.9L79.7 249.8l25.9-44.8 25.5.1 12.5 21.5-25.6-.1zm39.3 23.7l78.3 135.2-12.5 21.8-90.7-157h24.9zm132 .2h24.4l-12.2 21.1-12.2-21.1zM275 498.5H171.1S31.6 257 27.6 250c-.1-.2-.1-.3-.1-.3l52.1-90.1h25.3l12.6 21.6H92l-39.5 68.4 131 227.1h79.3L393.5 250h25.1L275 498.5zm157 0H328l-12.8-22.2 12.5-21.5 12.7 22.1h79.1l131.2-227-39.6-68.7-261.7.1-12.4-21.6h286.6l52 90.2L432 498.5z"></path></svg>