<svg xmlns="http://www.w3.org/2000/svg" width="619.3" viewBox="0 0 619.3 619.2" height="619.2" xml:space="preserve" style="enable-background:new 0 0 619.3 619.2"><path d="m231.5 252.1-151.2-151-40.2 40.3 92.9 91.3H38.7v57h178.1l-37.6-37.6zM295 213.7V0h-57.4v131l-65.1-67.3-40.3 40.2 125.9 126v-53.2zM367.2 231.5l151-151.2-40.3-40.2-91.3 92.9V38.7h-57v178.1l37.6-37.6zM405.6 295h213.7v-57.2h-131l67.3-65.3-40.3-40.3-125.9 125.9h53.2zM387.8 367.2l151.2 151 40.2-40.3-92.9-91.3h94.3v-57H402.5l37.6 37.6zM324.3 405.6v213.6h57.2V488.3l65.3 67.3 40.3-40.3-125.9-125.9v53.2zM252.1 387.8 101.1 539l40.3 40.2 91.3-92.9v94.3h57V402.5l-37.6 37.6zM213.7 324.2 0 324.4l.1 56.9 130.9.4-67.3 65.1 40.3 40.3 125.9-125.9h-53.2z"></path></svg>