<svg data-name="Layer 1" xmlns="http://www.w3.org/2000/svg" viewBox="0 0 628.85 615.38"><path d="M314.43 0C142 0 0 133.04 0 305.45s142 309.93 314.43 309.93c75.42 0 154.56-34.66 179.49-91.21 10.92-28.87 20-72.67 8.56-108.5-16.74-52.39-60.36-90.59-156.97-107.94-52.77-9.48-111.57-4.69-126.51-53.33-14.87-48.39 29.96-70.3 39.09-74.2.66.34 1.2.84 1.89 1.14 45.13 19.74 56.07 69.21 56.07 69.21s7.53-46.56 51.45-67.22c43.93-20.65 25.73-128.15 25.73-128.15s-16.49 47.68-79.82 47.68-77.19-47.68-77.19-47.68-12.46 62.48 2.03 100.56c-14.59 2.73-70.5 15.31-103.54 52.55-55.17 62.2-41.57 149.89 10.89 193.24 95.22 78.71 224.96 22.35 283.89 42.51 64.99 22.25 44.27 86.77 44.27 86.77-16.52 51.3-91.12 79.54-157.06 79.54-164.36 0-277.49-140.56-277.49-304.91S150.07 5.61 314.43 5.61s275.19 135.47 275.19 299.84c0 98.42-13.97 182.87-84.24 240.84 67.46-45.68 123.46-143.87 123.46-240.84C628.85 133.04 486.84 0 314.43 0Z"></path></svg>