<svg data-name="Layer 1" xmlns="http://www.w3.org/2000/svg" viewBox="0 0 503.93 627.17"><path d="M362.93 105.99c-77.74 0-141 63.25-141 141v82.62c0 10.8-8.78 19.58-19.58 19.58s-19.57-8.78-19.57-19.58V87.12h19.58c33 0 59.83-26.84 59.83-59.83V0h-39.62v27.29c0 11.14-9.07 20.21-20.21 20.21h-19.58V0h-40.9v47.49h-39.62V0h-40.9v126.74H0v39.62h61.36v163.25c0 77.75 63.25 141 141 141s141-63.25 141-141v-82.62c0-10.79 8.78-19.57 19.57-19.57s19.57 8.78 19.57 19.57v168.57h40.9V246.99c0-33.35-27.13-60.48-60.48-60.48s-60.48 27.13-60.48 60.48v82.62c0 55.2-44.9 100.1-100.1 100.1s-100.09-44.9-100.09-100.1V166.36h39.62v163.25c0 33.35 27.13 60.48 60.48 60.48s60.48-27.14 60.48-60.48v-82.62c0-55.2 44.9-100.1 100.09-100.1s100.09 44.9 100.09 100.1v168.57h40.9V246.99c0-77.75-63.25-141-141-141Zm-260.66 20.75V87.12h39.62v39.62h-39.62ZM176.81 480.55h39.62v146.63h-39.62z"></path></svg>