<svg xmlns="http://www.w3.org/2000/svg" width="621.2" viewBox="0 0 621.2 621.7" height="621.7" xml:space="preserve"><path d="m592.6 310.8 28.6-28.6V167.7h-113l-29 29-54.9-54.9 27.4-27.4-.1-.3V0H339.3l-28.7 28.1L282.5 0H168v113l29 29-55 55-29.3-29.3-.3.1H0v112.3l28.4 30.6L0 339.1v114.5h113l29-29 54.8 54.8-27.3 27.3.1.3v114.2h112.3l28.6-28 28.5 28.5h114.5v-113l-29.4-29.4 54.7-54.7 29.1 29.1.3-.1 113-1.1V340.1l-28.6-29.3zM536.7 199H590v53.2h-53.2V199zM331.9 387l173.6-173.6v50.9L357.3 412.5 331.9 387zm33.6-76.6-55.1 55.1-54.6-54.6 55.1-55.1 54.6 54.6zm54.8-207.6-17.5 17.5-23.7-23.7 41.2-41.2v47.4zm-70.4-71.5h51.4L357.5 75 332 49.5l17.9-18.2zm-66.1 13 174 173.9-23.9 23.8L283.8 91.8V44.3zm128.6 219.2L387 288.9 213.8 115.7h50.9l147.7 147.8zM199.3 31.2h53.2v53.2h-53.2V31.2zm-98.2 167.9 19.5 19.5-23.8 23.7-43.2-43.2h47.5zm-71.5 70.5v-51.4l45.7 45.7-25.5 25.5-20.2-19.8zm54.9 152.8H31.2v-53.2h53.2v53.2zm7.3-84.5H44.3l174.3-174.3 23.8 23.8L91.8 337.9zm23.9 19.1 148.1-148.1 25.4 25.4-173.5 173.6V357zm85.2 161.4 17.4-17.4 23.7 23.7-41.1 41.3v-47.6zm70.5 71.5H220l43.6-43.6 25.5 25.5-17.7 18.1zm66.4-12.5L163.5 403.1l23.8-23.8 150.5 150.5v47.6zm-129-219.5 25.4-25.4L407.7 506h-50.9l-148-148.1zm213.4 232.5H369v-53.2h53.2v53.2zM378.9 434l150.6-150.6H577L402.6 457.8 378.9 434zm140.7-11.8L500.4 403l23.7-23.7 42.9 42.9h-47.4zm71.4-19.1-45.4-45.4 25.5-25.5 19.9 19.5v51.4z"></path></svg>