<svg data-name="Layer 1" xmlns="http://www.w3.org/2000/svg" viewBox="0 0 626.17 626.16"><path d="M206.83 19.22c103.44 0 187.6 84.16 187.6 187.61 0 13.76 11.15 24.92 24.91 24.92s24.91-11.15 24.91-24.91-11.15-24.91-24.91-24.91c-2.49 0-4.84.48-7.11 1.15C400.41 80.18 312.83 0 206.83 0 92.79 0 .01 92.78.01 206.83h19.22c0-103.45 84.16-187.61 187.6-187.61Z"></path><path d="M19.22 419.34c0-103.44 84.16-187.6 187.61-187.6 13.76 0 24.91-11.16 24.91-24.91s-11.15-24.91-24.91-24.91-24.91 11.15-24.91 24.91c0 2.49.48 4.84 1.15 7.11C80.18 225.76 0 313.34 0 419.34c0 114.04 92.78 206.82 206.83 206.82v-19.22c-103.45 0-187.61-84.16-187.61-187.6Z"></path><path d="M64.7 419.34c0-78.37 63.76-142.12 142.13-142.12 38.81 0 70.39-31.58 70.39-70.39s-31.58-70.39-70.39-70.39-70.39 31.58-70.39 70.39h19.22c0-28.22 22.96-51.17 51.17-51.17S258 178.62 258 206.83 235.04 258 206.83 258c-88.97 0-161.35 72.38-161.35 161.34s72.38 161.34 161.35 161.34v-19.22c-78.37 0-142.13-63.76-142.13-142.12Z"></path><path d="M110.17 419.34c0-53.29 43.36-96.65 96.66-96.65s96.65 43.35 96.65 96.65c0 63.89 51.97 115.87 115.87 115.87s115.87-51.97 115.87-115.87H516c0 53.29-43.35 96.65-96.65 96.65s-96.65-43.35-96.65-96.65 43.35-96.65 96.65-96.65c63.89 0 115.87-51.97 115.87-115.87S483.25 90.95 419.35 90.95v19.22c53.29 0 96.65 43.36 96.65 96.65s-43.35 96.65-96.65 96.65-96.65-43.35-96.65-96.65c0-63.89-51.97-115.87-115.87-115.87S90.96 142.93 90.96 206.82h19.22c0-53.29 43.35-96.65 96.65-96.65s96.65 43.36 96.65 96.65-43.35 96.65-96.65 96.65c-63.89 0-115.87 51.97-115.87 115.87s51.98 115.87 115.87 115.87v-19.22c-53.29 0-96.66-43.35-96.66-96.65ZM313.08 252.9c11.7 26.89 33.3 48.48 60.19 60.19-26.89 11.7-48.48 33.3-60.19 60.19-11.7-26.89-33.3-48.48-60.19-60.19 26.89-11.7 48.48-33.3 60.19-60.19Z"></path><path d="M155.65 419.34c0-28.22 22.96-51.17 51.17-51.17s51.17 22.96 51.17 51.17c0 88.97 72.38 161.35 161.34 161.35s161.34-72.38 161.34-161.35h-19.22c0 78.37-63.76 142.13-142.12 142.13s-142.12-63.76-142.12-142.13c0-38.81-31.58-70.39-70.39-70.39s-70.39 31.58-70.39 70.39 31.58 70.39 70.39 70.39v-19.22c-28.22 0-51.17-22.96-51.17-51.17Z"></path><path d="M419.34 606.95c-103.16 0-187.12-83.71-187.58-186.77 0-.28.08-.55.08-.84 0-13.82-11.2-25.02-25.02-25.02s-25.02 11.2-25.02 25.02 11.2 25.02 25.02 25.02c2.49 0 4.85-.48 7.12-1.15 11.88 102.84 99.43 182.95 205.4 182.95 114.04 0 206.82-92.78 206.82-206.82h-19.22c0 103.45-84.16 187.61-187.6 187.61Z"></path><path d="M606.95 206.83c0 103.01-83.47 186.87-186.32 187.57-.43-.02-.84-.13-1.28-.13-13.85 0-25.08 11.23-25.08 25.08s11.23 25.08 25.08 25.08 25.08-11.23 25.08-25.08c0-2.49-.48-4.85-1.15-7.13 102.81-11.9 182.9-99.45 182.9-205.39C626.17 92.79 533.39 0 419.34 0v19.23c103.45 0 187.61 84.16 187.61 187.6Z"></path><path d="M561.48 206.83c0 78.37-63.76 142.12-142.13 142.12-38.81 0-70.39 31.58-70.39 70.39s31.58 70.39 70.39 70.39 70.38-31.58 70.38-70.39h-19.22c0 28.22-22.96 51.17-51.17 51.17s-51.17-22.96-51.17-51.17 22.96-51.17 51.17-51.17c88.97 0 161.35-72.38 161.35-161.34S508.31 45.48 419.34 45.48V64.7c78.37 0 142.13 63.76 142.13 142.12Z"></path><path d="M470.52 206.83c0 28.22-22.96 51.17-51.17 51.17s-51.17-22.96-51.17-51.17c0-88.97-72.38-161.35-161.34-161.35S45.49 117.86 45.49 206.83h19.22c0-78.37 63.76-142.13 142.12-142.13s142.12 63.76 142.12 142.13c0 38.81 31.58 70.39 70.39 70.39s70.39-31.58 70.39-70.39-31.58-70.39-70.39-70.39v19.22c28.22 0 51.17 22.96 51.17 51.17Z"></path></svg>