<svg xmlns="http://www.w3.org/2000/svg" width="523.4" viewBox="0 0 523.4 594.3" height="594.3"><path d="M38.7 251C17.3 251 0 268.4 0 289.7v138.1c0 21.3 17.3 38.7 38.7 38.7s38.7-17.3 38.7-38.7V289.7C77.3 268.4 60 251 38.7 251zM127.9 342.2c-21.3 0-38.7 17.3-38.7 38.7V519c0 21.3 17.3 38.7 38.7 38.7s38.7-17.3 38.7-38.7V380.9c0-21.4-17.4-38.7-38.7-38.7zM217.1 378.8c-21.3 0-38.7 17.3-38.7 38.7v138.1c0 21.3 17.3 38.7 38.7 38.7s38.7-17.3 38.7-38.7V417.5c0-21.3-17.4-38.7-38.7-38.7zM484.7 251.4c-21.3 0-38.7 17.3-38.7 38.7v138.1c0 21.3 17.3 38.7 38.7 38.7 21.3 0 38.7-17.3 38.7-38.7V290.1c0-21.3-17.3-38.7-38.7-38.7zM395.5 342.2c-21.3 0-38.7 17.3-38.7 38.7V519c0 21.3 17.3 38.7 38.7 38.7 21.3 0 38.7-17.3 38.7-38.7V380.9c0-21.4-17.3-38.7-38.7-38.7zM306.3 378.8c-21.3 0-38.7 17.3-38.7 38.7v138.1c0 21.3 17.3 38.7 38.7 38.7 21.3 0 38.7-17.3 38.7-38.7V417.5c0-21.3-17.4-38.7-38.7-38.7zM300.4 256.5v-60.3l70 42.4c6 3.7 13 5.6 20 5.6 13.7 0 26.1-7 33.1-18.7 5.3-8.8 6.9-19.2 4.5-29.3s-8.7-18.5-17.5-23.8L282.5 95c-12.8-7.7-28.8-7.7-41.6 0L113 172.4c-8.8 5.3-15.1 13.8-17.5 23.8-2.5 10-.9 20.4 4.5 29.3 5.3 8.8 13.8 15.1 23.8 17.5 10 2.5 20.4.9 29.3-4.5l70-42.4v60.3c0 21.3 17.3 38.7 38.7 38.7s38.6-17.2 38.6-38.6z"></path><circle cx="261.7" cy="38.7" r="38.7"></circle><circle cx="38.7" cy="205.2" r="38.7"></circle><circle cx="127.9" cy="296.4" r="38.7"></circle><circle cx="217.1" cy="333.4" r="38.7"></circle><circle cx="306.3" cy="333.4" r="38.7"></circle><circle cx="395.5" cy="296.4" r="38.7"></circle><circle cx="484.7" cy="205.2" r="38.7"></circle></svg>