<svg data-name="Layer 1" xmlns="http://www.w3.org/2000/svg" viewBox="0 0 619.16 619.72"><ellipse cx="96.79" cy="309.86" rx="96.79" ry="27.06"></ellipse><path d="M114.57 221.97c46.3 26.72 88.84 39.69 95.03 28.96s-26.32-41.08-72.62-67.8c-46.29-26.72-88.84-39.69-95.03-28.97-6.19 10.72 26.32 41.08 72.61 67.8ZM252.48 208.71c9.22-5.32-4.98-47.16-31.72-93.45-26.74-46.29-55.89-79.49-65.1-74.17-9.22 5.32 4.98 47.16 31.72 93.45 26.74 46.29 55.89 79.49 65.1 74.17ZM309.89 193.57c8.22 0 14.87-43.34 14.85-96.8-.02-53.45-6.7-96.78-14.92-96.78-8.22 0-14.87 43.34-14.85 96.79.02 53.46 6.7 96.78 14.92 96.78ZM368.75 209.58c12.95 7.46 45.09-24.02 71.8-70.33 26.7-46.3 37.86-89.89 24.91-97.36-12.95-7.46-45.09 24.02-71.8 70.33-26.71 46.3-37.86 89.89-24.91 97.36ZM410.99 252.45c7.48 12.94 51.06 1.74 97.33-25.01 46.28-26.76 77.73-58.93 70.25-71.87-7.48-12.94-51.06-1.74-97.33 25.01-46.28 26.75-77.73 58.93-70.25 71.87ZM522.34 260.45c-53.45.03-96.77 22.19-96.75 49.47.02 27.29 43.37 49.38 96.82 49.34 53.45-.04 96.77-22.19 96.75-49.48-.02-27.28-43.37-49.37-96.82-49.33ZM515.62 379.53c-46.31-26.69-93.53-31.53-105.46-10.82s15.94 59.13 62.25 85.82c46.31 26.69 93.53 31.53 105.47 10.82 11.93-20.7-15.94-59.13-62.25-85.82ZM367.3 410.97c-19.21 11.11-13.09 57.63 13.68 103.9 26.77 46.26 64.05 74.76 83.26 63.64 19.21-11.11 13.08-57.63-13.69-103.9-26.77-46.26-64.05-74.76-83.26-63.64ZM309.86 426.15c-19.6 0-35.48 43.33-35.48 96.78s15.89 96.79 35.48 96.79 35.48-43.33 35.48-96.79-15.89-96.78-35.48-96.78ZM251.04 410.18c-16.05-9.24-50.68 20.82-77.35 67.15-26.67 46.32-35.29 91.37-19.24 100.6 16.05 9.24 50.68-20.82 77.35-67.14 26.67-46.33 35.28-91.37 19.24-100.61ZM208.77 367.34c-8.14-14.05-52.24-3.73-98.49 23.05-46.26 26.79-77.16 59.9-69.02 73.95 8.14 14.05 52.24 3.73 98.49-23.06 46.26-26.79 77.16-59.89 69.02-73.95Z"></path></svg>