<svg xmlns="http://www.w3.org/2000/svg" id="a" width="642" viewBox="0 0 642 553.72" height="553.72" data-name="Layer 1"><defs></defs><path d="M300.14 264.83H0l47.72-82.66h204.7l47.72 82.66zM176.9 288.9H0l47.72 82.66h81.47l47.71-82.66zM341.86 288.9H642l-47.72 82.66h-204.7l-47.72-82.66zM465.1 264.83H642l-47.72-82.66h-81.47l-47.71 82.66zM368.72 170.13 270.5 0h-95.45L321 252.79l47.72-82.66zM143.08 158.09l-40.73-70.55 47.73-82.65 88.45 153.2h-95.45zM273.28 383.59l98.22 170.13h95.45L321 300.94l-47.72 82.65zM498.92 395.63l40.73 70.55-47.73 82.66-88.45-153.21h95.45z" class="b"></path><path d="m273.28 383.59 98.22 170.13h95.45L321 300.94l-47.72 82.65zM498.92 395.63l40.73 70.55-47.73 82.66-88.45-153.21h95.45zM368.72 170.13 270.5 0h-95.45L321 252.79l47.72-82.66zM143.08 158.09l-40.73-70.55 47.73-82.65 88.45 153.2h-95.45zM334.9 63.4 371.5 0h95.45l-84.33 146.06L334.9 63.4zM491.92 4.89l47.73 82.65-102.36 177.29h-95.44L491.92 4.89zM307.1 490.33l-36.6 63.39h-95.45l84.33-146.05 47.72 82.66zM150.08 548.84l-47.73-82.66L204.71 288.9h95.44L150.08 548.84z" class="b"></path></svg>