<svg xmlns="http://www.w3.org/2000/svg" width="642" viewBox="0 0 642 642" height="642" style="overflow:visible;enable-background:new 0 0 642 642" xml:space="preserve"><path d="M321 162.2c32.8 0 60.8-20.5 71.9-49.4 19.3-50.2 30.1-78.4 36.2-94.1C395.3 6.6 358.9 0 321 0s-74.3 6.6-108.1 18.7c6 15.7 16.9 43.9 36.2 94.1 11.1 29 39.1 49.4 71.9 49.4zM208.7 208.7c23.2-23.2 28.5-57.5 15.9-85.8-21.8-49.1-34.1-76.7-41-92.1C150.2 46.7 119.9 68.1 94 94s-47.3 56.2-63.2 89.6c15.4 6.8 43 19.1 92.1 41 28.4 12.6 62.6 7.3 85.8-15.9zM162.2 321c0-32.8-20.5-60.8-49.4-71.9-50.2-19.3-78.4-30.1-94.1-36.2C6.6 246.7 0 283.1 0 321s6.6 74.3 18.7 108.1c15.7-6 43.9-16.9 94.1-36.2 29-11.1 49.4-39.1 49.4-71.9zM208.7 433.3c-23.2-23.2-57.5-28.5-85.8-15.9-49.1 21.8-76.7 34.1-92.1 41C46.7 491.8 68.1 522.1 94 548c25.9 25.9 56.2 47.3 89.6 63.2 6.8-15.4 19.1-43 41-92.1 12.6-28.4 7.3-62.6-15.9-85.8zM321 479.8c-32.8 0-60.8 20.5-71.9 49.4-19.3 50.2-30.1 78.4-36.2 94.1C246.7 635.4 283.1 642 321 642s74.3-6.6 108.1-18.7c-6-15.7-16.9-43.9-36.2-94.1-11.1-29-39.1-49.4-71.9-49.4zM433.3 433.3c-23.2 23.2-28.5 57.5-15.9 85.8 21.8 49.1 34.1 76.7 41 92.1 33.5-15.9 63.7-37.3 89.6-63.2 25.9-25.9 47.3-56.2 63.2-89.6-15.4-6.8-43-19.1-92.1-41-28.4-12.6-62.6-7.3-85.8 15.9zM529.2 249.1c-29 11.1-49.4 39.1-49.4 71.9s20.5 60.8 49.4 71.9c50.2 19.3 78.4 30.1 94.1 36.2C635.4 395.3 642 358.9 642 321s-6.6-74.3-18.7-108.1c-15.7 6.1-43.9 16.9-94.1 36.2zM433.3 208.7c23.2 23.2 57.5 28.5 85.8 15.9 49.1-21.8 76.7-34.1 92.1-41-15.9-33.5-37.3-63.8-63.2-89.6s-56.2-47.3-89.6-63.2c-6.8 15.4-19.1 43-41 92.1-12.6 28.4-7.3 62.6 15.9 85.8z"></path><circle cx="321" cy="321" r="59.4"></circle></svg>