<svg xmlns="http://www.w3.org/2000/svg" width="632.3" viewBox="0 0 632.3 615" height="615" xml:space="preserve"><path d="M622.9 284.6c-22.8-64.1-63.9-122-110.5-171C457.9 56.2 392.2 6.2 328.5.4c-7.4-.7-17.8-.5-25.2.4-62.7 7.3-130 56.5-183.5 112.8-46.6 49-87.7 106.9-110.5 171-27.3 76.7 6.5 157.8 83.6 184.2 21.7 7.4 44.9 8.4 67.9 8.3h38.6V615h97.9s-.7-194.4-.7-199.5c.3-25.7-20.5-46.7-46.3-46.7h-69.8s-92.2 2.1-52.5-79c30.1-61.5 108.8-142.2 163.1-162.3 12.1-4.5 36.6-4.7 49.7 0 54.5 19.6 133 100.8 163.1 162.3 39.7 81.1-52.5 79-52.5 79h-69.8c-25.7 0-46.5 21-46.3 46.7 0 5.2-.7 199.5-.7 199.5h97.9V477.1h29.4c26 .3 52.5.1 77.1-8.3 77.4-26.4 111.2-107.5 83.9-184.2"></path></svg>