<svg xmlns="http://www.w3.org/2000/svg" width="353" viewBox="0 0 353 611.4" height="611.4" xml:space="preserve" style="enable-background:new 0 0 353 611.4"><path d="M25.2 116.5.1 131v-29.1L176.5 0l12.6 7.3-12.5 7.2-.1 7.3-157.6 91zM.1 152.8 220.7 25.5l12.5 7.3-56.7 32.8v7.2L63 138.3l6.3 3.7L0 182zM.1 203.8 264.7 51l12.6 7.2-100.8 58.3.1 7.3-69.4 40 6.2 3.6L0 232.9zM.1 254.7 308.8 76.5l12.7 7.2-145 83.7v7.3l-25.3 14.6 6.4 3.6L0 283.8zM.1 305.7 353 101.9v7.3l-170.2 98.3 37.8 21.8-44.1 25.4v-14.5l-145 83.7z"></path><path d="m220.6 229.3 6.3 3.6L353 160.1v-7.3zM264.7 254.8l88.3-51v7.3l-82 47.3zM315.1 283.9l-6.3-3.6 44.2-25.6v7.3zM176.5 611.4l-18.9-11 18.9-10.9v-7.3l151.3-87.3-6.4-3.6 31.6-18.2v36.4zM132.3 585.9 353 458.5v-36.4l-75.7 43.7 6.4 3.6-107.2 61.9v7.3L113.4 575zM88.2 560.4 353 407.6v-36.4l-119.8 69.1 6.3 3.7-63 36.3v7.3L69.4 549.5zM353 320.2v36.5L44.3 534.9l-19.1-10.8 151.3-87.4v-7.3l18.9-10.9-6.3-3.6zM352.9 305.7 0 509.5l.1-14.6 163.8-94.6-31.5-18.2 44.1-25.5v7.3l138.6-80z"></path><path d="M308.8 280.3 271 258.4 176.5 313v-7.3l-88.2 50.9 31.5 18.3 56.7-32.8v14.5zM31.5 323.9 0 342.1l.1 14.5 44.1-25.4zM44.2 331.2l132.3-76.5v7.3l50.4-29.1 37.8 21.9-88.2 50.9v-14.5L75.6 349.4zM75.6 349.4l12.7 7.2-88.3 51v-14.5zM119.8 374.9l12.6 7.2L0 458.5V444z"></path></svg>