<svg xmlns="http://www.w3.org/2000/svg" width="618" viewBox="0 0 618 447.9" height="447.9" xml:space="preserve" style="enable-background:new 0 0 618 447.9"><path d="M127.8 313.1c-14.6 37.3-11.2 75.1 19.7 103.5 57.1-34.7 78.2-90.6 105.3-155.2L357.6-.1H253.3c-18.8 47.5-110.2 271.3-125.5 313.2z" class="st0"></path><path d="M131.7 422.7c-58.4-49.4-25.4-111.6-2-173.5L230.4-.1H125.6L30 235C6.5 292-18.2 351 19.4 404.9c25.4 35 76.9 41.8 112.3 17.8z" class="st0"></path><path d="M299.6 397.3C340.5 363.1 358 316.4 381 262L487.8 0H380.5c-26.3 62.4-112.1 285.3-140.8 339.7-29.4 58.7-63.2 85-122.8 105.1 61.2 9.1 130.9-1.9 182.7-47.5z" class="st0"></path><path d="M510.7 0c-26.3 62.4-112.1 285.3-140.8 339.7-29.4 58.7-63.2 85-122.8 105.1C337.4 459 433.4 424.7 478.3 335 502.9 289.2 595.4 52.9 618 0H510.7z" class="st0"></path></svg>