<svg id="Layer_1" data-name="Layer 1" xmlns="http://www.w3.org/2000/svg" viewBox="0 0 600.45 600.45">   <path d="M301.13,288.94c0,6.81-7.38,11.07-13.28,7.67l-140.03-80.84c-5.9-3.41-5.9-11.93,0-15.33l140.03-80.85c5.9-3.41,13.28,.85,13.28,7.67v60.52h258.89c8.95,0,14.74-9.39,10.86-17.45C516.7,57.62,394.3-16.07,257.16,3,131.22,20.51,28.79,118.67,5.31,243.64c-7.36,39.19-6.81,77.21,.04,113.01,1.7,8.87,9.31,15.38,18.34,15.38H299.32v-60.53c0-6.81,7.37-11.06,13.27-7.66l140.06,80.86c5.9,3.4,5.9,11.91,0,15.32l-140.06,80.86c-5.9,3.4-13.27-.85-13.27-7.66v-60.53H40.36c-8.91,0-14.68,9.35-10.82,17.38,52.07,108.38,167.23,180.7,297.91,169.19,132.38-11.66,243.05-111.73,267.67-242.32,7.4-39.24,6.84-77.29-.01-113.13-1.7-8.87-9.31-15.39-18.34-15.39H301.13v60.52Z"></path> </svg>