<svg xmlns="http://www.w3.org/2000/svg" width="603.2" viewBox="0 0 603.2 614.6" height="614.6" xml:space="preserve"><path d="M603.1 299.2C598.9 133.5 465.2 0 301.6 0 135.3 0 0 137.8 0 307.3 0 474 130.9 610.1 293.5 614.5v.1h309.7l-.1-315.4zm-309.6 0H38.7L293.5 37.8v261.4zm16.2 16.2h277.2c-4.2 154-126.2 278.5-277.2 282.8V315.4zm277.2-16.2H309.7V16.3c151 4.4 273 128.9 277.2 282.9zM291.7 16.4l-274.8 282 .8.8h-1.4C20.5 145.8 141.5 21.7 291.7 16.4zm-275.4 299h277.2v282.8c-151-4.3-273-128.8-277.2-282.8zM587 598.3H398.4c88.3-30.6 158.4-101.7 188.6-191.6v191.6z"></path></svg>