<svg data-name="Layer 1" xmlns="http://www.w3.org/2000/svg" viewBox="0 0 631.83 631.83"><path d="M315.91 0C141.72 0 0 141.72 0 315.92s141.72 315.91 315.91 315.91 315.92-141.72 315.92-315.91S490.11 0 315.91 0Zm218.8 278.9H352.92V97.11c0-10.87 10.24-18.68 20.79-16.09 87.02 21.42 155.66 90.06 177.08 177.08 2.6 10.55-5.22 20.79-16.09 20.79ZM352.92 405.29l91.43 91.43c7.66 7.66 6.01 20.41-3.25 26.04-20.65 12.55-43.31 22.11-67.38 28.04-10.55 2.6-20.8-5.21-20.8-16.08V405.29ZM74.04 315.92c0-113.46 78.52-208.92 184.08-234.9 10.54-2.6 20.78 5.23 20.78 16.09v437.6c0 10.86-10.23 18.69-20.78 16.09C152.57 524.82 74.04 429.37 74.04 315.91Zm422.68 128.45-91.43-91.43h129.44c10.87 0 18.69 10.25 16.08 20.8-5.93 24.07-15.49 46.73-28.05 67.38-5.63 9.26-18.38 10.91-26.04 3.25Z"></path></svg>