<svg data-name="Layer 1" xmlns="http://www.w3.org/2000/svg" viewBox="0 0 625.5 195.32"><path d="M625.5 0H435.08c-23.07 0-44.31 8.15-61.07 21.66C357.25 8.13 335.96 0 312.75 0s-44.5 8.13-61.26 21.66C234.73 8.15 213.49 0 190.42 0H0l21.16 21.7h230.27a98.116 98.116 0 0 0-19.87 21.7h39.93a98.672 98.672 0 0 0-19.94-21.7h122.4c-7.68 6.2-14.42 13.5-19.94 21.7h39.93a98.136 98.136 0 0 0-19.87-21.7h230.27L625.5 0ZM343.16 65.11c2.75-7.71 6.35-15.01 10.85-21.7h-82.52c4.5 6.69 8.1 13.99 10.86 21.7h60.81ZM562.03 65.11l21.16-21.7H393.94c4.48 6.68 8.06 13.99 10.79 21.7h157.3Z"></path><path d="m42.31 43.4 21.16 21.7h157.3c2.73-7.71 6.32-15.02 10.79-21.7H42.31ZM338.07 86.81h71.7c-.83-7.54-2.59-14.78-5.04-21.7h-61.58c-2.47 6.93-4.24 14.17-5.09 21.7ZM282.35 65.11h-61.58c-2.45 6.92-4.21 14.16-5.04 21.7h71.7c-.84-7.53-2.61-14.78-5.08-21.7ZM288.08 97.66c0 3.67-.24 7.28-.65 10.85h50.64c-.4-3.57-.65-7.18-.65-10.85s.25-7.28.65-10.85h-50.64c.4 3.57.65 7.18.65 10.85ZM409.77 108.51h109.94l21.16-21.7h-131.1c.4 3.57.64 7.18.64 10.85s-.24 7.28-.64 10.85ZM215.73 86.81H84.63l21.16 21.7h109.94c-.39-3.57-.63-7.18-.63-10.85s.24-7.29.63-10.85ZM343.16 130.21h61.58c2.45-6.92 4.21-14.16 5.04-21.7h-71.7c.84 7.53 2.61 14.78 5.09 21.7ZM287.43 108.51h-71.7c.84 7.54 2.59 14.78 5.04 21.7h61.58c2.47-6.93 4.24-14.17 5.08-21.7ZM271.49 151.91h82.52c-4.5-6.69-8.1-14-10.85-21.7h-60.81c-2.75 7.71-6.35 15.01-10.86 21.7ZM477.4 151.91l21.16-21.7h-93.82c-2.73 7.71-6.32 15.02-10.79 21.7h83.46ZM126.95 130.21l21.16 21.7h83.46c-4.48-6.68-8.06-13.99-10.79-21.7h-93.83ZM373.95 173.62h-122.4c7.68-6.2 14.42-13.5 19.94-21.7h-39.93c5.49 8.21 12.21 15.51 19.87 21.7h-82.17l21.16 21.7c23.07 0 44.31-8.15 61.07-21.66 16.76 13.53 38.05 21.66 61.26 21.66s44.5-8.13 61.26-21.66c16.76 13.51 38 21.66 61.07 21.66l21.16-21.7h-82.17a98.358 98.358 0 0 0 19.87-21.7h-39.93c5.52 8.2 12.26 15.5 19.94 21.7Z"></path></svg>