<svg data-name="Layer 1" xmlns="http://www.w3.org/2000/svg" viewBox="0 0 594.62 526.19"><path d="M594.62 297.31C594.62 133.11 461.51 0 297.31 0S0 133.11 0 297.31c0 92.06 41.86 174.34 107.57 228.88h.2V365.62H85.62V232.73h136.77v43.74h-70.87v45.4h54.26v89.14h16.61v43.74h-60.35v-89.14h-10.52v116.83h18.27v43.74h85.11V365.61h-22.15V232.73h136.76v43.74h-70.87v45.4h54.26v89.14h16.61v43.74h-60.35v-89.14h-10.52v116.83h18.27v43.74h85.11V365.61h-22.15V232.73h119.6v-25.89c-10.06-1.96-17.72-10.84-17.72-21.45v-7.93h43.74v7.93c0 10.61-7.66 19.49-17.72 21.45v25.89h8.86v43.74h-70.87v45.4h54.26v89.14h16.61v43.74h-60.35v-89.14h-10.52v116.83h18.27v43.74h23.03c65.71-54.53 107.57-136.81 107.57-228.88Zm-476.05-74.08c-25.28 0-45.78-20.49-45.78-45.78s20.49-45.78 45.78-45.78 45.78 20.5 45.78 45.78-20.49 45.78-45.78 45.78Zm147.12 0c-25.28 0-45.78-20.49-45.78-45.78s20.49-45.78 45.78-45.78 45.78 20.5 45.78 45.78-20.49 45.78-45.78 45.78Zm147.12 0c-25.28 0-45.78-20.49-45.78-45.78s20.5-45.78 45.78-45.78 45.78 20.5 45.78 45.78-20.5 45.78-45.78 45.78Z"></path></svg>