<svg xmlns="http://www.w3.org/2000/svg" width="612.7" viewBox="0 0 612.7 612.7" height="612.7" xml:space="preserve"><path d="m434.9 474 67.7 67.7c7.1-5.9 13.9-12.1 20.4-18.7 28.1-28.1 50.2-60.9 65.6-97.4 16-37.8 24.1-77.9 24.1-119.3 0-41.3-8.1-81.5-24.1-119.3-15.4-36.5-37.5-69.2-65.6-97.4S462.1 39.4 425.6 24C387.8 8.1 347.7 0 306.3 0 265 0 224.9 8.1 187.1 24.1c-36.5 15.4-69.2 37.5-97.4 65.6s-50.2 60.9-65.6 97.4C8.1 224.9 0 265 0 306.3s8.1 81.5 24.1 119.3c15.4 36.5 37.5 69.2 65.6 97.4s60.9 50.2 97.4 65.6c37.8 16 77.9 24.1 119.3 24.1h3.3V469l228.5 137.7c1.6.9 3.2-1.1 1.9-2.4L206.2 277v215.4c-17.9-9.7-34.4-22-49.2-36.7-39.9-39.9-61.9-92.9-61.9-149.3s22-109.5 61.9-149.3c39.9-39.9 92.9-61.9 149.3-61.9s109.5 22 149.3 61.9c39.9 39.9 61.9 92.9 61.9 149.3 0 56.4-22 109.5-61.9 149.3-6.5 6.6-13.5 12.7-20.7 18.3z"></path><path d="M254.4 170.8c-34.8-.2-63.9 24.9-69.9 58l82.7 82c32.5-6.2 57.2-34.7 57.4-69 .3-39-31.2-70.8-70.2-71z"></path></svg>