<svg data-name="Layer 1" xmlns="http://www.w3.org/2000/svg" viewBox="0 0 599.59 599.59"><path d="M299.79 599.59h299.8V0l-299.8 599.59zM0 599.59h299.79L0 0v599.59zM299.79 204.45c53.83 0 97.46-43.63 97.46-97.46S353.62 9.53 299.79 9.53s-97.46 43.63-97.46 97.46 43.63 97.46 97.46 97.46Zm21.59-127.41c4.99 0 9.03 4.04 9.03 9.03s-4.04 9.03-9.03 9.03-9.03-4.04-9.03-9.03 4.04-9.03 9.03-9.03Zm0 45.56c4.99 0 9.03 4.04 9.03 9.03s-4.04 9.03-9.03 9.03-9.03-4.04-9.03-9.03 4.04-9.03 9.03-9.03Zm-45.56-45.56c4.99 0 9.03 4.04 9.03 9.03s-4.04 9.03-9.03 9.03-9.03-4.04-9.03-9.03 4.04-9.03 9.03-9.03Zm0 45.56c4.99 0 9.03 4.04 9.03 9.03s-4.04 9.03-9.03 9.03-9.03-4.04-9.03-9.03 4.04-9.03 9.03-9.03Z"></path></svg>