<svg data-name="Layer 1" xmlns="http://www.w3.org/2000/svg" viewBox="0 0 607.46 607.46"><path d="M303.73 0C135.98 0 0 135.99 0 303.73s135.98 303.73 303.73 303.73 303.73-135.99 303.73-303.73S471.48 0 303.73 0Zm0 10.71c50.49 0 91.43 40.93 91.43 91.43s-40.94 91.43-91.43 91.43-91.43-40.93-91.43-91.43 40.94-91.43 91.43-91.43Zm223.72 193.53L364.42 348.18v190.53c0 33.51-27.17 60.68-60.68 60.68s-60.68-27.17-60.68-60.68V348.98L79.11 204.24c-25.12-22.18-27.51-60.53-5.32-85.65 22.18-25.11 60.52-27.51 85.65-5.33l143.84 126.99 143.84-126.99c25.13-22.18 63.47-19.8 85.65 5.33 22.18 25.13 19.8 63.47-5.32 85.65Z"></path></svg>