<svg data-name="Layer 1" xmlns="http://www.w3.org/2000/svg" viewBox="0 0 486.57 603.79"><path d="M486.57 190.55H369.98l82.63-81.99-74.59-74.6-82.45 82.44.45-116.41H190.53V116.5l-81.88-82.6-74.62 74.56 82.4 82.48-116.4-.49L0 295.94l116.59.04-82.66 81.97 74.58 74.61 71.94-71.91-14.11 34.39-.51 188.73 154.87.02V417.63l-15.71-38.6 72.99 73.58 74.6-74.58-82.42-82.45 116.4.46V190.55Zm-334.2 133.9-78.96 33.43L134 297.33l78.22-32.69-59.85 59.81Zm-25.88 25.87L76.08 400.7l-20.39-20.4 70.8-29.98Zm9.69 9.7-30.01 70.78-20.39-20.4 50.41-50.38Zm25.88-25.87 59.77-59.73-32.66 78.11-60.57 60.54 33.47-78.92Zm-25.8-207.71L85.89 76.03l20.4-20.39 29.97 70.79Zm-9.71 9.71-70.76-30.02 20.4-20.38 50.37 50.41Zm25.85 25.87 59.74 59.79-78.11-32.67-60.54-60.59 78.91 33.48Zm51.86-119.93 32.18 79.5v84.52l-32.18-78.35V42.09Zm176.11 13.63 20.4 20.4-50.4 50.39 30-70.79Zm30.09 30.1 20.4 20.4-70.8 30 50.41-50.4Zm-76.27 76.25 78.94-33.45-60.58 60.57-78.21 32.72 59.84-59.84Zm-53.7 74.34 78.31-32.15h85.67l-79.46 32.16h-84.52Zm-30.35-30.22v-84.6l32.17-79.49v85.66l-32.17 78.45Zm0-121.21V13.72h28.84l-28.84 71.27Zm-13.71 0-28.84-71.26h28.85V85ZM206.2 236.39l-84.62-.03-79.46-32.19 85.66.03 78.43 32.19Zm-121.21-.04-71.27-.03v-28.84l71.27 28.87Zm-71.27 13.7 71.27.03-71.28 28.82v-28.85Zm107.83.04 84.52.03-78.32 32.13-85.67-.03 79.47-32.14ZM250.1 452.71l53.68 137.35h-53.7l.02-137.35Zm-13.73 137.34h-53.66l53.68-137.33-.02 137.33Zm88.1-255.85 33.44 78.94-60.55-60.58-32.7-78.2 59.82 59.84Zm25.87 25.88 50.37 50.4-20.39 20.39-29.98-70.78Zm9.71-9.71 70.77 30-20.4 20.39-50.38-50.4Zm-25.85-25.86-59.75-59.77 78.1 32.65 60.56 60.58-78.9-33.45Zm-53.84-74.37h84.62l79.47 32.18H358.8l-78.44-32.18Zm121.21.02h71.28v28.85l-71.27-28.85Zm71.28-13.71h-71.28l71.28-28.85v28.85Zm-114.91-163-33.46 78.94-59.74 59.73L297.37 134l60.57-60.55ZM221.93 212.18l-59.81-59.86-33.42-78.95 60.55 60.6 32.68 78.2Zm14.5 68.17-.02 134.69-56.87 145.49V418.98l56.89-138.64Zm70.56 280.2-56.87-145.5.02-134.58 56.85 138.51v141.56Z"></path></svg>