<svg data-name="Layer 1" xmlns="http://www.w3.org/2000/svg" viewBox="0 0 608.19 455.29"><path d="M586.41 206.82H403.56c-10.49 0-19.86 6.26-23.88 15.95s-1.82 20.75 5.6 28.18l54.42 54.42c-24.86 20.87-53.79 35.76-85.1 43.82V185.04h170.36c22.76 0 41.29-18.52 41.29-41.29v-18.33c0-22.77-18.52-41.29-41.29-41.29H354.6V41.29C354.6 18.52 336.08 0 313.31 0h-18.45c-22.76 0-41.29 18.52-41.29 41.29v42.84H83.22c-22.76 0-41.29 18.52-41.29 41.29v18.33c0 22.77 18.52 41.29 41.29 41.29h170.36V349.2c-31.32-8.06-60.24-22.95-85.11-43.82l54.43-54.43c7.41-7.43 9.61-18.48 5.59-28.17-4.02-9.69-13.39-15.95-23.88-15.95H21.78C9.77 206.83 0 216.6 0 228.61v178.21c0 24.74 29.91 37.13 47.41 19.64l49.89-49.89c57.27 49.85 129.57 77.63 205.91 78.72h1.37c76.65-1.07 149.01-28.86 206.3-78.72l49.9 49.9c17.49 17.49 47.41 5.1 47.41-19.64V228.6c0-12.01-9.77-21.78-21.78-21.78Zm-282.3 206.53c-73.74-1.05-142.94-30.53-194.85-83.01l-12.46-12.6-54.87 54.87V248.75h123.86l-57.21 57.21 16 16c38.08 38.09 86.13 63.06 138.95 72.22 7.94 1.38 16.03-.82 22.21-6.02 6.22-5.23 9.78-12.89 9.78-21V168.28c0-13.88-11.29-25.18-25.18-25.18H83.87v-17.04h186.47c13.88 0 25.18-11.29 25.18-25.18V41.93h17.15v58.96c0 13.88 11.29 25.18 25.18 25.18h186.48v17.04H337.85c-13.88 0-25.18 11.29-25.18 25.18v198.89c0 8.11 3.57 15.77 9.78 21 6.18 5.2 14.27 7.39 22.21 6.02 52.81-9.16 100.85-34.14 138.97-72.25l15.93-16-57.18-57.19h123.86v123.86l-54.88-54.88-12.46 12.6c-51.92 52.49-121.15 81.98-194.8 83.01Z"></path></svg>