<svg xmlns="http://www.w3.org/2000/svg" width="615.2" viewBox="0 0 615.2 582.7" height="582.7" xml:space="preserve"><path d="M613.3 168.5C601.1 84.7 545.2 25.1 460 4.8 407-7.8 352.8 6.9 308.5 34.6 261.1 3.6 205.7-7.2 155.2 4.8 69.9 25.1 14.1 84.7 1.9 168.5c-3.3 22.4-2.4 45.3 2.7 68.1 8.6 38.8 30 75.9 65.5 113.5 29.5 31.2 62.9 59.6 97.3 88.4 7.3 6.1 14.6 12.1 21.8 18 40.6 33.3 79 64.8 107.6 109.5l10.7 16.8 10.7-16.8c28.5-44.6 66.9-76.1 107.6-109.4 7.3-5.9 14.6-11.9 21.9-18.1 34.4-28.8 67.8-57.2 97.3-88.4 35.5-37.6 57-74.7 65.5-113.5 5.1-22.8 6-45.7 2.8-68.1zm-27.6 62.6c-7.5 34.2-26.9 67.3-59.2 101.5-28.6 30.2-61.3 58.1-95.1 86.4-7.3 6.1-14.5 12-21.7 17.9-37.5 30.7-73.1 60-102.1 99.7-29-39.8-64.7-69-102.2-99.7-7.2-5.9-14.4-11.8-21.7-17.9-33.8-28.3-66.5-56.1-95.1-86.4-32.2-34.2-51.6-67.4-59.1-101.5-4.4-19.8-5.1-39.6-2.3-58.9C37.7 99.3 86.5 47.3 161.1 29.6c11.5-2.7 23.4-4.1 35.4-4.1 30.2 0 61.1 8.6 89.4 25.1-15.6 12.3-29.4 26.2-40.8 40.8-24.2-12-50.9-15.8-74.7-10.2-50.9 12-90.7 59.4-92.5 110.2-2 56.4 40.1 101.1 81.6 137.4 14.5 12.7 27.5 23.4 41.3 34.7 27.1 22.3 55.1 45.3 97.9 86.5l8.8 8.5 8.8-8.5c42.4-40.8 70.4-63.7 97.6-85.8 14.1-11.5 27.5-22.4 42.3-35.4 41.5-36.3 83.6-81 81.6-137.4-1.8-51.2-40.4-98.6-89.7-110.2-55.1-13-121 19.1-150.6 56.3-4.4 5.5-3.5 13.5 2 17.9 5.5 4.4 13.5 3.5 17.9-2 9.6-12.1 24.3-23.6 41.3-32.4 2.9 6.8 4.4 14.2 4.4 21.7 0 30.7-25 55.6-55.6 55.6s-55.6-25-55.6-55.6c0-9.8 2.6-19.4 7.4-27.8C311.2 40.9 396.5 16 454 29.7c74.5 17.7 123.4 69.7 133.9 142.6 3 19.2 2.2 39-2.2 58.8zM382.3 110.8c20.1-6.7 41.4-9.3 60.1-4.9 38.5 9.1 68.6 46.2 70.1 86.3 1.6 45.7-36 85-72.9 117.3-14.5 12.7-27.7 23.4-41.6 34.8-25.6 20.9-52 42.4-90.3 78.7-38.7-36.7-65-58.3-90.6-79.3-13.6-11.2-26.5-21.8-40.7-34.2-37-32.4-74.5-71.6-72.9-117.3 1.4-39.7 32.7-76.8 72.9-86.3 17.2-4.1 37.5-1.3 55.7 7.3-3.6 9.3-5.5 19.2-5.5 29.2 0 44.7 36.4 81.1 81.1 81.1s81.1-36.4 81.1-81.1c-.1-10.8-2.3-21.6-6.5-31.6z"></path></svg>