<svg xmlns="http://www.w3.org/2000/svg" data-name="Layer 1" viewBox="0 0 531.05 630.62"><path d="M531.05 191.37v-57.56c-81.17 35.59-170.49 55.32-264.23 55.32S81.85 168.96 0 132.66v57.69c82.63 33.46 172.66 51.87 266.82 51.87s182.3-18.04 264.23-50.85ZM266.82 441.48c93.75 0 183.07 19.74 264.23 55.32v-57.56c-81.93-32.81-171.05-50.85-264.23-50.85S82.63 406.81 0 440.27v57.69c81.85-36.31 172.07-56.48 266.82-56.48ZM0 288.18h531.05v53.08H0z"></path><circle cx="266.81" cy="74.85" r="74.85"></circle><circle cx="266.81" cy="555.76" r="74.85"></circle></svg>