<svg xmlns="http://www.w3.org/2000/svg" width="600" viewBox="0 0 600 611.22" height="611.22" xml:space="preserve" overflow="visible"><path d="M359.43 101.62c28.06 0 50.8-22.75 50.8-50.81 0-28.06-22.74-50.81-50.8-50.81-28.07 0-50.81 22.75-50.81 50.81 0 28.06 22.75 50.81 50.81 50.81zm0-71.88c11.63 0 21.07 9.43 21.07 21.07s-9.44 21.07-21.07 21.07c-11.64 0-21.08-9.43-21.08-21.07s9.44-21.07 21.08-21.07zM527.97 318.84c-32.87 0-60.57 22.02-69.21 52.1-5.48-27.45-22.06-50.9-44.84-65.47 22.79-14.57 39.36-37.99 44.84-65.44 8.65 30.08 36.35 52.09 69.21 52.09 39.78 0 72.03-32.25 72.03-72.03s-32.25-72.03-72.03-72.03c-32.87 0-60.57 22.01-69.21 52.1-9.26-46.4-50.21-81.36-99.32-81.36-39.13 0-73.05 22.19-89.92 54.66-15.71-25.06-43.55-41.74-75.31-41.74-49.05 0-88.83 39.76-88.83 88.83 0 40.28 26.83 74.28 63.58 85.16-36.76 10.87-63.58 44.87-63.58 85.15 0 49.06 39.77 88.83 88.83 88.83 31.85 0 59.75-16.76 75.44-41.94 16.91 32.33 50.77 54.42 89.79 54.42 49.12 0 90.06-34.97 99.32-81.36 8.65 30.08 36.34 52.1 69.21 52.1 39.78 0 72.03-32.26 72.03-72.04 0-39.77-32.25-72.03-72.03-72.03zm0-128.61c16.5 0 29.88 13.38 29.88 29.88s-13.38 29.88-29.88 29.88c-16.51 0-29.89-13.38-29.89-29.88 0-16.51 13.38-29.88 29.89-29.88zm-168.54-12.14c23.2 0 42.02 18.81 42.02 42.02 0 23.21-18.82 42.02-42.02 42.02-23.21 0-42.02-18.81-42.02-42.02 0-23.22 18.81-42.02 42.02-42.02zm-195.1 42.47c0-16.51 13.38-29.89 29.88-29.89s29.88 13.38 29.88 29.89c0 16.5-13.38 29.88-29.88 29.88s-29.88-13.38-29.88-29.88zm29.87 216.97c-25.76 0-46.65-20.88-46.65-46.65 0-25.76 20.89-46.65 46.65-46.65s46.65 20.89 46.65 46.65c0 25.77-20.89 46.65-46.65 46.65zM269.64 344c-11.37-18.23-29.15-32.06-50.2-38.28 21.12-6.25 38.96-20.16 50.32-38.5 8.21 15.62 20.39 28.81 35.2 38.27-14.87 9.51-27.1 22.79-35.32 38.51zm89.79 109.56c-33.21 0-60.13-26.92-60.13-60.13s26.92-60.13 60.13-60.13 60.13 26.92 60.13 60.13-26.92 60.13-60.13 60.13zm168.54-32.8c-16.51 0-29.89-13.38-29.89-29.89 0-16.5 13.38-29.88 29.89-29.88 16.5 0 29.88 13.38 29.88 29.88 0 16.51-13.38 29.89-29.88 29.89zM24.84 195.26C11.12 195.26 0 206.39 0 220.1c0 13.72 11.12 24.84 24.84 24.84s24.84-11.12 24.84-24.84c0-13.71-11.13-24.84-24.84-24.84zM24.84 369.77c-11.66 0-21.11 9.45-21.11 21.11s9.45 21.11 21.11 21.11 21.11-9.45 21.11-21.11-9.45-21.11-21.11-21.11zM194.43 531.33c-16.63 0-30.11 13.48-30.11 30.11s13.48 30.11 30.11 30.11 30.11-13.48 30.11-30.11-13.48-30.11-30.11-30.11zM359.81 510.36c-27.86 0-50.44 22.57-50.44 50.43s22.58 50.43 50.44 50.43 50.43-22.57 50.43-50.43-22.58-50.43-50.43-50.43zm.63 75.91c-14.07 0-25.48-11.41-25.48-25.48s11.42-25.48 25.48-25.48c14.08 0 25.48 11.41 25.48 25.48s-11.4 25.48-25.48 25.48zM193.97 80.92c16.63 0 30.11-13.48 30.11-30.11S210.6 20.7 193.97 20.7s-30.11 13.48-30.11 30.11 13.49 30.11 30.11 30.11z"></path></svg>