<svg xmlns="http://www.w3.org/2000/svg" width="606.7" viewBox="0 0 606.7 417" height="417" xml:space="preserve"><path d="M149.5 266.4V20.1c0-18.3-23.6-28.7-41.9-10.7L33.1 84.8C12.7 106.2 0 106.1 0 152.5v236.9c0 28.4 21.8 34.6 36.9 19.4l92.1-90.1c18.3-18 20.5-34 20.5-52.3zM332 16.4c-15.1 0-24.9 10.5-24.9 10.5L164.6 158.2h141.9v231.2c0 28.4 21.8 34.6 36.9 19.4l85.4-79.1c18.3-18 20.5-34.1 20.5-52.3V16.3l-117.3.1z"></path><path d="M163.7 162.9v103.5c0 18.8-1.9 40.8-25.3 63.8l-29.8 29.1 49.9 49.9c10.4 10.3 27.1 10.3 37.5 0l88.3-88.3c10.3-10.3 10.3-27.1 0-37.5L163.7 162.9zM586.6 16.3h-124v149.3c38-1.5 39.3-13.8 59.3-33l75.4-74.5c18-18.2 7.6-41.8-10.7-41.8z"></path></svg>