<svg xmlns="http://www.w3.org/2000/svg" width="557.16" viewBox="0 0 557.16 608.56" height="608.56" xml:space="preserve" style="enable-background:new 0 0 557.16 608.56"><path d="M0 0v608.56h557.16V0H0zm541.83 15.34V33.1H15.34V15.34h526.49zM15.34 496.53v-50.87h526.49v50.87H15.34zm526.49 15.34v17.76H15.34v-17.76h526.49zM15.34 430.33v-17.77h526.49v17.77H15.34zm0-33.11v-17.76h526.49v17.76H15.34zm0-33.1v-50.87h526.49v50.87H15.34zm0-66.2v-17.76h526.49v17.76H15.34zm0-33.1v-17.77h526.49v17.77H15.34zm0-33.11v-17.76h526.49v17.76H15.34zm0-33.1v-50.87h526.49v50.87H15.34zm0-66.2v-17.77h526.49v17.77H15.34zm0-33.1V81.54h526.49V99.3H15.34zm0-33.11V48.44h526.49V66.2H15.34zm0 527.02v-48.25h526.49v48.25H15.34z"></path></svg>