<svg data-name="Layer 1" xmlns="http://www.w3.org/2000/svg" viewBox="0 0 611.14 611.14"><path d="M305.57 0 0 305.57l305.57 305.57 305.57-305.57L305.57 0ZM56.83 305.57 305.57 56.83l248.75 248.74-248.75 248.74L56.83 305.57Z"></path><path d="M305.57 64.94 64.94 305.57 305.57 546.2l28.41-28.42-212.21-212.21 183.8-183.8 212.21 212.21 28.41-28.41L305.57 64.94z"></path><path d="m129.89 305.57 175.68 175.69 28.41-28.42-147.27-147.27L333.98 158.3l-28.41-28.41-175.68 175.68z"></path><path d="m194.82193099 305.59541556 28.41155046-28.41155047 110.739993 110.739993-28.41155046 28.41155047z"></path></svg>