<svg data-name="Layer 1" xmlns="http://www.w3.org/2000/svg" viewBox="0 0 619.7 619.7"><path d="M355.26 543.7c24.4-4.76 47.46-13.26 68.54-24.91l-68.54-68.54v93.45Z"></path><path d="M139.35 475.21c12.61 13.18 26.73 24.89 42.08 34.87l128.42-128.42 128.42 128.42c15.36-9.98 29.47-21.69 42.09-34.87l-170.5-170.5-170.5 170.5Z"></path><path d="M98.07 416.35c8.27 16.77 18.46 32.42 30.31 46.64l181.47-181.47 181.47 181.47c11.85-14.23 22.03-29.88 30.31-46.64L309.85 204.57 98.07 416.35Z"></path><path d="M309.85 76C179.48 76 73.79 181.69 73.79 312.06c0 1.72.09 3.42.13 5.13L309.85 81.25l235.93 235.93c.04-1.71.13-3.41.13-5.13 0-130.37-105.69-236.06-236.06-236.06ZM264.44 543.7v-93.45l-68.54 68.54c21.09 11.65 44.14 20.15 68.54 24.91Z"></path><path d="M75.36 338.93c2.44 21.48 7.76 42.06 15.56 61.4L309.85 181.4l218.93 218.93c7.8-19.33 13.12-39.92 15.56-61.4L309.85 104.44 75.36 338.93Z"></path><path d="M309.85 0C138.72 0 0 138.72 0 309.85S138.72 619.7 309.85 619.7 619.7 480.98 619.7 309.85 480.98 0 309.85 0Zm29.02 575.57V433.85l-29.02-29.02-29.02 29.02v141.72c-133.98-14.47-238.3-127.9-238.3-265.72 0-147.64 119.68-267.32 267.32-267.32s267.32 119.68 267.32 267.32c0 137.83-104.32 251.26-238.3 265.72Z"></path></svg>