<svg xmlns="http://www.w3.org/2000/svg" width="624.7" viewBox="0 0 624.7 577.3" height="577.3" xml:space="preserve" style="enable-background:new 0 0 624.7 577.3"><path d="M605.5 366.3 432.4 71.1C411.9 33.2 376.7 8 334.8 1.4c-52.5-8.2-111.1 20.3-139.4 67.9 0 0-172.4 290-172.4 290.1-14 23.5-22.9 49.4-23 77-.1 21.8 4.5 43.4 14.2 63 9.3 19 23 35.8 39.8 48.8 16.9 13.1 36.9 22.3 57.9 26.5 9 1.8 18.1 2.7 27.2 2.7h347c23.2 0 46.8-6 68.8-18.5l1.3-.7c66-37.7 88.2-123.8 49.3-191.9zM139.1 484.9c-15.9 0-30.9-8.3-39.4-21.7-9.5-14.9-9.7-35.1-.7-50.2 8.1-13.6 22.8-22.3 38.6-22.8h161.7l54.4 94.7H139.1zm134.7-185.1-109.3-.1 106.4-184.3c12.7-22 41.3-29.6 63.4-17.3 22.3 12.4 31.6 40.4 19.4 63.3-.1.4-79.9 138.4-79.9 138.4zM510.4 478c-10.4 6.2-23.2 8.6-34.8 5.7-12.6-3.2-23-12.1-29.4-23.3l-79.3-137.9 52-91.8s106.4 181.5 106.5 181.5c9.2 15.7 9.8 36.5-.3 51.9-3.8 5.6-8.9 10.4-14.7 13.9z"></path></svg>