<svg xmlns="http://www.w3.org/2000/svg" width="590.1" viewBox="0 0 590.1 572.5" height="572.5"><path d="M501.7 344l-2.9-.7c-.2-.1-.4-.1-.7-.2h-.1c-1.4-.4-4.7-1.2-8.4-2.1-48.2-14-83.5-58.5-83.5-111.3 0-9.1 1-17.9 3-26.4 2-8.7 6-17 9.2-25.5 5.4-14.4 8.3-30 8.3-46.2C426.7 58.9 367.8 0 295.1 0S163.4 58.9 163.4 131.6c0 16.3 3 31.8 8.3 46.2 3.1 8.3 7 16.3 9.1 25.1 2 8.6 3.1 17.5 3.1 26.7 0 52.8-35.2 97.3-83.5 111.3-3.7.9-6.9 1.7-8.4 2.1h-.1c-.2.1-.5.1-.7.2l-2.9.7C37.7 356.3 0 402.1 0 456.6c0 64 51.9 115.9 115.9 115.9 58.9 0 107.5-43.9 114.9-100.7h128.5c7.4 56.8 56 100.7 114.9 100.7 64 0 115.9-51.9 115.9-115.9 0-54.5-37.6-100.3-88.4-112.6zm-136.8 52.4H225.3c-.5-4.4-.8-8.8-.8-13.3 0-47.8 29.1-88.9 70.6-106.4 41.5 17.5 70.6 58.6 70.6 106.4-.1 4.5-.3 8.9-.8 13.3z"></path></svg>