<svg xmlns="http://www.w3.org/2000/svg" width="629.6" viewBox="0 0 629.6 629.6" height="629.6" xml:space="preserve" style="enable-background:new 0 0 629.6 629.6"><path d="M529.7 214.9H314.8c-27.4 0-52.3 11.1-70.3 29.1v-73.4c18.1 18 42.9 29.1 70.3 29.1 55.1 0 99.8-44.8 99.8-99.8S369.8 0 314.8 0 215 44.8 215 99.8v215c0 27.4 11.1 52.3 29.1 70.4h-73.4c18-18.1 29.1-42.9 29.1-70.4 0-55.1-44.8-99.8-99.8-99.8S.2 259.8.2 314.8 45 414.6 100 414.6h215c27.4 0 52.3-11.1 70.4-29.1V459c-18.1-18-42.9-29.1-70.4-29.1-55 0-99.8 44.8-99.8 99.8 0 55.1 44.8 99.8 99.8 99.8 55.1 0 99.8-44.8 99.8-99.8V314.8c0-27.4-11.1-52.3-29.1-70.4H459c-18 18.1-29.1 42.9-29.1 70.4 0 55.1 44.8 99.8 99.8 99.8 55.1 0 99.8-44.8 99.8-99.8s-44.7-99.9-99.8-99.9zM314.8 29.5c38.8 0 70.4 31.5 70.4 70.3s-31.6 70.4-70.4 70.4c-38.8 0-70.3-31.6-70.3-70.4-.1-38.8 31.5-70.3 70.3-70.3zM29.5 314.8c0-38.8 31.6-70.4 70.3-70.4 38.8 0 70.4 31.6 70.4 70.4 0 38.8-31.6 70.4-70.4 70.4-38.8-.1-70.3-31.6-70.3-70.4zm285.3 70.3c-38.8 0-70.3-31.6-70.3-70.4 0-38.8 31.6-70.4 70.3-70.4 38.8 0 70.4 31.6 70.4 70.4-.1 38.9-31.6 70.4-70.4 70.4zm0 215c-38.8 0-70.3-31.6-70.3-70.4 0-38.8 31.6-70.4 70.3-70.4 38.8 0 70.4 31.6 70.4 70.4-.1 38.8-31.6 70.4-70.4 70.4zm214.9-215c-38.8 0-70.4-31.6-70.4-70.4 0-38.8 31.6-70.4 70.4-70.4 38.8 0 70.4 31.6 70.4 70.4 0 38.9-31.6 70.4-70.4 70.4z"></path></svg>