<svg data-name="Layer 1" xmlns="http://www.w3.org/2000/svg" viewBox="0 0 620.66 621.78"><path d="M240.13 333.99c46.29 0 69.47-55.97 36.74-88.7l-44.24-44.24h46.02v-44.48H155.43v123.22h43.97v-46.01l44.03 44.03c4.32 4.32 1.26 11.7-4.85 11.7H85.38l62.5-62.5-31.7-31.7L0 311.49c2.04 2.55 115.61 115.61 115.61 115.61l31.95-31.94-62.17-61.17h154.74Z"></path><path d="M287.85 85.38v154.76c0 46.29 55.97 69.47 88.7 36.74l44.24-44.24v46.02h44.48V155.44H342.05v43.97h46.02l-44.03 44.03c-4.32 4.32-11.7 1.26-11.7-4.85V85.38l62.5 62.5 31.7-31.7L310.35 0c-2.56 2.04-116.72 116.71-116.72 116.71l31.95 31.94 62.27-63.27Z"></path><path d="M503.94 194.77 472 226.71l63.28 62.28H380.53c-46.29 0-69.47 55.96-36.74 88.69l44.24 44.24h-46.02v44.48h123.22V343.18h-43.97v46.02l-44.03-44.03c-4.32-4.32-1.26-11.7 4.85-11.7h153.2l-62.44 62.43 31.7 31.7 116.12-116.12c-2.04-2.56-116.72-116.72-116.72-116.72Z"></path><path d="M332.85 536.39V381.64c0-46.29-55.96-69.47-88.7-36.74l-44.24 44.24v-46.02h-44.48v123.22h123.22v-43.97h-46.02l44.03-44.03c4.32-4.32 11.7-1.26 11.7 4.85v153.2l-63.02-63.02-31.7 31.7 116.71 116.71c2.56-2.05 116.16-116.16 116.16-116.16l-31.95-31.94-61.71 62.71Z"></path></svg>