<svg xmlns="http://www.w3.org/2000/svg" width="611.8" viewBox="0 0 611.8 459.1" height="459.1" xml:space="preserve"><path d="M611.8 54.3c0-30-24.3-54.3-54.3-54.3-18.6 0-34.9 9.3-44.7 23.5H350.6C340.9 9.3 324.5 0 305.9 0S271 9.3 261.2 23.5H99C89.2 9.3 72.8 0 54.3 0 24.3 0 0 24.3 0 54.3c0 25.2 17.2 46.4 40.5 52.5l95.6 266.4c-6.4 8.9-10.2 19.9-10.2 31.7 0 30 24.3 54.3 54.3 54.3 30 0 54.3-24.3 54.3-54.3 0-11.8-3.8-22.8-10.2-31.7l81.8-227.9 81.8 227.9c-6.4 8.9-10.2 19.9-10.2 31.7 0 30 24.3 54.3 54.3 54.3 30 0 54.3-24.3 54.3-54.3 0-11.8-3.8-22.8-10.2-31.7l95.6-266.4c23-6.2 40.1-27.3 40.1-52.5M99 85h162.2c.2.3.4.7.7 1l-81.8 227.9L98.3 86c.2-.3.5-.7.7-1m251.6 0h162.2c.2.3.5.7.7 1l-81.8 227.9L349.9 86c.3-.3.5-.7.7-1"></path></svg>