<svg xmlns="http://www.w3.org/2000/svg" width="606.1" viewBox="0 0 606.1 606.1" height="606.1"><path d="M303 0C135.7 0 0 135.7 0 303s135.7 303 303 303c167.4 0 303-135.7 303-303S470.4 0 303 0zm147.1 509.8c-53.3 0-98.7-33.6-116.4-80.7 55.9-13.7 97.3-64.2 97.3-124.3 0-70.7-57.3-128-128-128s-128 57.3-128 128c0 60.1 41.5 110.5 97.3 124.3-17.6 47.1-63.1 80.7-116.4 80.7-68.6 0-124.2-55.6-124.2-124.2 0-32.1 12.2-61.4 32.2-83.5L303 5.9 542 302c20 22.1 32.2 51.3 32.2 83.5.1 68.7-55.5 124.3-124.1 124.3z"></path></svg>