<svg data-name="Layer 1" xmlns="http://www.w3.org/2000/svg" viewBox="0 0 533.28 615.67"><path d="M189.67038795 76.96598574 266.63896108-.00258739l76.96857314 76.96857313-76.96857314 76.96857314zM189.67694416 538.71254196l76.96857314-76.96857313 76.96857313 76.96857313-76.96857313 76.96857313z"></path><path d="m161.51 489.93 105.13-28.19-28.19-105.14-105.12 28.19 76.95-76.95-76.96-76.97 105.13 28.19 28.19-105.13-105.13-28.19-28.19 105.13-28.19-105.13L0 153.93l28.19 105.13 105.13-28.19-76.97 76.97 76.96 76.95L28.19 356.6 0 461.74l105.13 28.19 28.19-105.13 28.19 105.13zM399.97 384.8l76.96-76.96-76.95-76.95 105.12 28.18 28.18-105.13-105.13-28.19-28.18 105.12-28.19-105.12-105.13 28.19 28.19 105.13 105.11-28.19L323 307.84l76.97 76.96-105.13-28.19-28.19 105.13 105.13 28.19 28.19-105.12 28.18 105.12 105.13-28.19-28.18-105.13-105.13 28.19z"></path></svg>