<svg xmlns="http://www.w3.org/2000/svg" width="616.55" viewBox="0 0 616.55 443.67" height="443.67" xml:space="preserve" style="enable-background:new 0 0 616.55 443.67"><path d="M551.51 221.56c56.65-26.74 80.89-94.34 54.15-150.99-26.74-56.65-94.34-80.89-150.99-54.15a113.423 113.423 0 0 0-47.46 41.97C376.8 3.62 307.75-16.13 252.98 14.28a113.364 113.364 0 0 0-44.11 44.11C175.15 5.65 105.05-9.77 52.3 23.95s-68.16 103.82-34.44 156.57a113.258 113.258 0 0 0 46.27 41.04c-56.39 27.2-80.05 94.96-52.84 151.35s94.96 80.05 151.35 52.84a113.268 113.268 0 0 0 46.01-40.66c30.34 54.85 99.41 74.72 154.26 44.38a113.552 113.552 0 0 0 44.3-44.23c33.96 52.59 104.13 67.7 156.72 33.74s67.7-104.13 33.74-156.72a113.283 113.283 0 0 0-46.16-40.7m-212.2-108.21v214.42c-.02 18.75-15.24 33.93-33.99 33.91a33.941 33.941 0 0 1-25.83-11.97L144.55 195.33v134.94c0 17.33-14.05 31.38-31.38 31.38s-31.38-14.05-31.38-31.38V115.85c-.04-18.71 15.09-33.91 33.8-33.95a33.87 33.87 0 0 1 25.52 11.51l135.37 154.88V113.35c.83-17.35 15.56-30.74 32.91-29.91 16.2.77 29.15 13.72 29.92 29.91"></path></svg>