<svg version="1.0" xmlns="http://www.w3.org/2000/svg" width="589.9" viewBox="0 0 589.9 294.9" height="294.9" xml:space="preserve" style="enable-background:new 0 0 589.9 294.9"><path d="M294.9 0C132.3 0 0 132.3 0 294.9h23.8c0-149.5 121.6-271.1 271.1-271.1C444.4 23.8 566 145.4 566 294.9h23.8C589.9 132.3 457.6 0 294.9 0z"></path><path d="M294.9 47.7C158.5 47.7 47.6 158.6 47.6 295h23.8c0-123.2 100.2-223.5 223.5-223.5 123.2 0 223.5 100.2 223.5 223.5h23.8c0-136.4-110.9-247.3-247.3-247.3z"></path><path d="M294.9 95.3c-110.1 0-199.6 89.6-199.6 199.6h23.8c0-96.9 78.9-175.8 175.8-175.8S470.7 198 470.7 294.9h23.8c.1-110-89.5-199.6-199.6-199.6z"></path><path d="M294.9 143c-83.8 0-152 68.2-152 152h23.8c0-70.6 57.5-128.1 128.1-128.1S422.9 224.4 422.9 295h23.8c.2-83.8-68-152-151.8-152z"></path></svg>