<svg xmlns="http://www.w3.org/2000/svg" width="620.4" viewBox="0 0 620.4 623.7" height="623.7" xml:space="preserve" style="enable-background:new 0 0 620.4 623.7"><path d="M516 0c56.1 0 101.5 45.5 101.5 101.5v163.9c0 56.1-45.5 97.2-101.5 97.2H356v161h264.5v100.1H359.3c-56.1 0-101.5-45.5-101.5-101.5V364.1c0-56.1 45.5-101.5 101.5-101.5h159.5v-161H98.3v423.5h31.9v-293c0-56.1 39.7-98.6 95.7-98.6H487V231H228.5v291.3c0 56.1-45.4 101.5-101.5 101.5h-25.1C45.8 623.7 0 578.2 0 522.2V101.5C0 45.5 45.1 0 101.2 0H516z"></path></svg>