<svg xmlns="http://www.w3.org/2000/svg" width="598.8" viewBox="0 0 598.8 411.8" height="411.8" xml:space="preserve"><path d="M181.4 207.1c0-20.5 5.3-39.7 14.6-56.4L0 342.2v69.6l183.8-181.2c-1.5-7.6-2.4-15.4-2.4-23.5zM322.5 93.9l28-27.6V0l-107 104.4c16.1-8.5 34.5-13.3 53.9-13.3 8.6 0 17 1 25.1 2.8zM186.5 240.9 82.8 342.2v69.6L211.5 285c-11.4-12.6-20-27.5-25-44.1zM433.2 0l-99.3 97c16 5.3 30.5 14 42.6 25.2l56.8-56V0zM217.6 291.3l-52.1 50.9v69.6l95.8-94.4c-16.5-5.4-31.4-14.4-43.7-26.1zM516 66.3V0L383.5 129.4c11.1 12.3 19.6 27 24.7 43.2L516 66.3zM270.9 320.1l-22.6 22.1v69.6l103.8-102.3c-16.3 8.7-34.9 13.7-54.7 13.7-9.1-.1-17.9-1.1-26.5-3.1zM411 183.3c1.6 7.7 2.4 15.6 2.4 23.8 0 20.4-5.3 39.5-14.5 56.1l199.8-197V0L411 183.3z"></path></svg>