<svg xmlns="http://www.w3.org/2000/svg" width="642" viewBox="0 0 642 632.4" height="632.4" style="overflow:visible;enable-background:new 0 0 642 632.4" xml:space="preserve"><path d="M378 178.2h-73v-122L361.1 0v126.8H492l-58.8 53-14.3 125.1-54.7-5.7z"></path><path d="m370.6 242.7-38.2 39.6-89.1-87.6-45 57.5-99.6-77.8c0-.6-8.2-77.7-8.2-77.7l101.9 79.6 80.6-103 5.5 79 92.1 90.4z"></path><path d="m171.9 309.1 125.6-13.2-5.6-53.5-129.7 13.7L95.4 211 124 335 0 365.9l70.8 42.5 117.3-29.2z"></path><path d="m217.6 434.6 66.7-102.7-46-29.8L169 408.5l-82.9 20.7 123.8 55.1-50 112.3 70.6-20.2L281 462.8z"></path><path d="m305.7 362.2-53 18.4 41 119-29.2 72.3 116.9-54.5 53.6 115 27.6-75.7L412 448.2l-66.9 28.5z"></path><path d="m477.7 336.8-16 69.2-118.6-40.9-18.1 53.1L446.2 460l39 67.5 29.1-126L642 431l-41.1-65.8z"></path><path d="m504.5 227.1 79.3 97.9-74-7.8-110.4 67.3-30.6-47L474 269.2 429.3 214l91.6-74.2 80.9 8.5z"></path></svg>