<svg xmlns="http://www.w3.org/2000/svg" width="454.6" viewBox="0 0 454.6 612.2" height="612.2"><path d="M421.4 386.3c-13.6 0-24.7-11.1-24.7-24.7 0-20.7.2-49.3.2-49.3H290.4v14.8c0 17.3-.1 51.9-.1 91.6 0 33.7 27.3 61 61 61h103.3v-93.5c0 .1-19 .1-33.2.1zM394.7 99.9V0H288v100.7h-24.5v78.8h26.9v104.6h106.7l-.2-104.6h57.3l.2-79.6z"></path><path d="M157.7 312.3l.1 73.4c0 12.9-10.6 23.5-23.5 23.5-14.5 0-23.2-11.7-23.2-21 0 0-.1-159.8-.1-171.5v-14.3c0-8.7 8.5-21.5 23.3-21.5 12.9 0 23.5 10.6 23.5 23.5l-.1 81.9h106.5s.2-79.7 0-109.7c-.2-33.6-28-71.2-62.7-78.8-32.6-7.2-56.5 1.1-79 25.8-2 2.2-7.9 8.9-11.4 14.5v-37.8H0v511.9h110.9v-165c3.5 5.7 9.6 12.6 11.6 14.8 22.5 24.7 46.4 33 79 25.8 34.7-7.7 62.5-45.2 62.7-78.8.2-30 0-96.6 0-96.6H157.7z"></path></svg>