<svg id="Layer_1" data-name="Layer 1" xmlns="http://www.w3.org/2000/svg" viewBox="0 0 617.36 617.36">   <path d="M301.64,337.25c9.44,0,17.09-7.65,17.09-17.09s-7.65-17.09-17.09-17.09-17.09,7.65-17.09,17.09,7.65,17.09,17.09,17.09Z"></path>   <path d="M0,0V617.36H617.36V0H0ZM237.25,246.49h52.45c36.55,0,68.79,23.92,79.4,58.89,2.93,7.95,4.34,16.84,8.93,24.1,4.09,6.46,11.12,10.05,17.69,13.48l25.82,13.52c7.06,3.7,4.43,14.38-3.54,14.38H237.25c-12.1,0-22.01,9.9-22.01,22.01s9.9,22.01,22.01,22.01h178.82c94.01,0,170.21,76.21,170.21,170.21H174.02c-73.61,0-137.89-55.55-142.64-129.01-5.21-80.49,58.53-147.41,137.91-147.41-79.37,0-143.12-66.91-137.91-147.41C36.13,87.82,100.41,32.27,174.02,32.27h412.26c0,94.01-76.21,170.21-170.21,170.21H237.25c-12.1,0-22.01,9.9-22.01,22.01s9.9,22.01,22.01,22.01Z"></path> </svg>