<svg xmlns="http://www.w3.org/2000/svg" width="608.8" viewBox="0 0 608.8 571.8" height="571.8"><path d="M604.4 236.8L570.7 143c-7.4-20.7-24-35.8-45.3-41.5-22.8-6.1-47.7-.1-66.6 16l-1 .8-90.9 91.1c-2.5 2.5-6.7.7-6.6-2.8l2.1-139.8v-.5c.1-11.4-2.5-22.8-8.3-32.6-18-30.4-53.1-40.9-82.7-29l-102 40.1-.2.1c-20.2 8.1-35 25.5-39.8 46.5-4.9 21.5 1.2 44.2 16.2 60.6 19.1 20.9 55.8 59.4 99.1 104.4 2.4 2.5.6 6.6-2.8 6.6H0v64.2h236.5c3.5 0 5.2 4.3 2.7 6.7L148.5 420l-.9.9c-14.3 14.7-20.3 36-16 57 4.7 22.9 20.2 41.9 41.5 50.8l90.7 37.8c8.2 3.4 16.9 5.1 25.6 5.1 12.9 0 25.7-3.8 36.8-11.2 18.4-12.3 29.5-32.8 29.6-54.9l1.9-123.9c.1-3.4 4.2-5.1 6.6-2.7l161.4 159.7 44.7-44.4s-78.5-77.5-160.5-160.6c-2.4-2.5-.7-6.6 2.8-6.6h130.1c27 0 51.9-16.5 62-42.7 5.7-15 5.2-32.1-.4-47.5zM291.3 510.2v0zm-5.3-3.8l-88.4-37c-2.6-1.1-3.2-4.5-1.2-6.4l90.3-85.6c2.5-2.4 6.6-.6 6.6 2.9l-1.9 122.6c0 2.7-2.8 4.5-5.4 3.5zm-90.4-402.9l96.9-38.1c2.6-1 5.3.9 5.3 3.7l-1.9 138.6c0 3.5-4.3 5.2-6.7 2.6l-95-100.4c-1.9-2.1-1.1-5.4 1.4-6.4zm215.1 152.9l92.9-93.3c2-2 5.4-1.3 6.4 1.4l33.8 93.3c.9 2.5-1 5.2-3.7 5.2H413.5c-3.5 0-5.2-4.1-2.8-6.6z"></path></svg>