<svg data-name="Layer 1" xmlns="http://www.w3.org/2000/svg" viewBox="0 0 602.33 440.16"><path d="M596.92 132.68 437.82 12.4c-6.01-4.54-14.55-3.35-19.1 2.65-4.54 6.01-3.35 14.55 2.65 19.1l7.02 5.3c2.5 1.89 5 8.74 1.35 13.57s-46.9 62.03-46.9 62.03V37.28c0-6.06 5.84-10.01 9.26-10.01h8.79c7.53 0 13.63-6.1 13.63-13.63S408.42.01 400.89.01H201.44c-7.53 0-13.63 6.1-13.63 13.63s6.1 13.63 13.63 13.63h8.79c3.42 0 9.26 3.96 9.26 10.01v77.78l-46.9-62.04c-3.65-4.83-1.15-11.68 1.35-13.57l7.02-5.3c6.01-4.54 7.19-13.09 2.65-19.1-4.54-6.01-13.09-7.19-19.1-2.65L5.41 132.68c-6.01 4.54-7.19 13.09-2.65 19.1 4.54 6.01 13.09 7.19 19.1 2.65l7.01-5.3c3.46-2.55 9.95-3.02 13.42 2.4l159.25 210.63 34.48 45.61.03-.03c.2.26.42.48.62.74-.33-.42-.61-.87-.93-1.29 14.88 19.97 38.6 32.96 65.42 32.97 26.82 0 50.54-13 65.42-32.97-.32.43-.6.87-.93 1.29.2-.26.42-.48.62-.74l.03.03 34.48-45.61 159.25-210.63c3.48-5.42 9.97-4.95 13.42-2.4l7.01 5.3c6.01 4.54 14.55 3.35 19.1-2.65 4.54-6.01 3.35-14.55-2.65-19.1ZM219.49 340.7 66.06 137.76c-3.65-4.83-13.18-7.34-15.45-5.07l101.58-76.8c-2.52 1.91-3.79 10.35-.14 15.18l67.44 89.19V340.7Zm135.93 20.77c-1.55 28.66-25.21 51.44-54.26 51.44s-52.71-22.78-54.26-51.44c-.68-12.4 2.78-25.09 10.85-35.77l43.4-57.41 43.4 57.41c8.07 10.68 11.54 23.37 10.85 35.77Zm-108.67-66.42v-98.72l37.32 49.36-37.32 49.36Zm108.82 0-37.32-49.36 37.32-49.36v98.72Zm0-254.03v110.1l-54.41 71.96-54.41-71.96V41.02c0-7.86-6.66-12.8-9.26-13.75h127.34c-2.6.95-9.26 5.89-9.26 13.75Zm180.69 96.75L382.83 340.71V160.27l67.44-89.19c3.65-4.83 2.39-13.27-.14-15.18l101.57 76.79c-2.27-2.27-11.79.24-15.45 5.07Z"></path></svg>