<svg id="Layer_1" data-name="Layer 1" xmlns="http://www.w3.org/2000/svg" viewBox="0 0 630.94 613.03">   <polygon points="279.09 545.99 298.44 555.17 298.44 238.64 279.09 251.41 279.09 545.99"></polygon>   <polygon points="315.47 563.26 344.68 577.13 344.68 208.11 315.47 227.39 315.47 563.26"></polygon>   <polygon points="369.35 588.84 413.14 609.63 413.14 162.92 369.35 191.82 369.35 588.84"></polygon>   <path d="M315.47,0C141.24,0,0,141.24,0,315.47c0,137.47,87.96,254.34,210.64,297.56V158.19h209.67v454.84c122.68-43.22,210.64-160.09,210.64-297.56C630.94,141.24,489.7,0,315.47,0Z"></path>   <polygon points="255.89 534.97 267.6 540.53 267.6 258.99 255.89 266.72 255.89 534.97"></polygon> </svg>