<svg xmlns="http://www.w3.org/2000/svg" width="590.5" viewBox="0 0 590.5 545.5" height="545.5"><path d="M254.9 172.9h80.7V80.7h80.7V0H174.1v80.7h80.8zM335.6 358.6v-92.3h80.7v-80.7H174.1v80.7h80.8v92.3z"></path><path d="M80.7 265.1h80.7v-92.2h80.7V92.2H0v80.7h80.7zM242.1 279.1H0v80.7h80.7V452h80.7v-92.2h80.7zM509.8 92.2H348.4v80.7h80.7v92.2h80.7v-92.2h80.7V92.2zM429.1 279.1h-80.7v80.7h80.7V452h80.7v-92.2h80.7v-80.7h-80.7z"></path><path d="M254.9 372.6h-80.8v80.7h80.8v92.2h80.7v-92.2h80.7v-80.7h-80.7z"></path></svg>