<svg xmlns="http://www.w3.org/2000/svg" width="582.1" viewBox="0 0 582.1 582.2" height="582.2"><path d="M582.1 307.8V274l-119.8.1 117.5-23.4-6.6-33.1-117.5 23.5 110.7-46-12.9-31.1-110.7 45.9 99.6-66.6-18.8-28-99.6 66.6 84.7-84.8-23.8-23.8-84.7 84.7 66.5-99.6-28-18.7-66.6 99.6L418 28.6l-31.2-12.9L341 126.4 364.4 8.9l-33.1-6.6-23.4 117.6V0h-33.7v122L250.1 2.4 217 9.1l23.7 117.5-46.1-110.7-31.1 13 46.1 110.6L142.8 40l-28 18.8 66.8 99.5-84.9-84.5-23.8 23.9 84.9 84.5L58 115.8l-18.7 28.1 99.8 66.4-110.8-45.6-12.8 31.1 110.8 45.7L8.7 218.3l-6.5 33.1 122 24-124.2.2v32l274.2-.4.4 275 33.7-.1-.2-119.8 23.5 117.5 33.1-6.6-23.5-117.5 46 110.7 31.1-13-46-110.7 66.7 99.6 28-18.7-66.7-99.6 84.9 84.6 23.8-23.8-84.8-84.7 99.7 66.5 18.7-28-99.7-66.5 110.7 45.7 12.9-31.1-110.8-45.8 117.6 23.3 6.6-33.1-117.6-23.3z"></path><path d="M258.9 320.7L0 321.2v31.9l258.9-.4zM260 366.5L0 367v32l260.1-.5zM260 412.3l-260 .5v32l260.1-.5zM260 458.1l-260 .5v32l260.1-.5zM260 503.9l-260 .5v32l260.1-.5zM0 550.2v32l260.1-.5-.1-32z"></path></svg>