<svg xmlns="http://www.w3.org/2000/svg" width="603.1" viewBox="0 0 603.1 586.9" height="586.9" xml:space="preserve"><path d="M519.3 221.5c7.2 22.9 11 47 11 71.7 0 63.2-24.6 122.6-69.3 167.3-40.4 40.4-92.9 64.4-149.3 68.6V312.7h36.5L394 420.9c2.8 6.7 9.4 11 16.6 11h.2c7.3-.1 13.9-4.6 16.6-11.4l85.8-216.6h89.9v-36.1H500.9c-7.4 0-14.1 4.5-16.8 11.4l-74 187-33.2-78.6c-2.8-6.7-9.4-11-16.6-11h-48.4V57.3c56.4 4.2 108.9 28.2 149.3 68.6 7.7 7.7 14.8 15.8 21.2 24.3h43.8c-11.1-17.9-24.3-34.6-39.5-49.9C439.5 53.1 378 25.3 311.9 21V0h-36.1v21.1c-66.1 4.3-127.6 32-174.8 79.3C53.3 147.9 25.5 210 21.5 276.6H0v36.1h21.7c4.6 65.5 32.3 126.5 79.2 173.4 47.2 47.2 108.7 75 174.8 79.3v21.5h36.1v-21.5c66.1-4.3 127.6-32 174.8-79.3 51.5-51.5 79.9-120 79.9-192.9 0-24.6-3.2-48.6-9.5-71.7h-37.7zM219.7 68.3C202 93 187.4 119.6 176 147.5c-16.9-6-33.4-13.4-49.3-22 26.6-26.4 58.4-45.8 93-57.2zm-117 85.2c19.6 11.2 40.2 20.6 61.3 28.1-9.2 30.6-14.6 62.5-16 95H57.7c3.1-44.8 18.6-87.2 45-123.1zM57.9 312.7h90.3c1.6 31.2 6.8 61.8 15.6 91.3-21.3 7.6-41.9 17-61.6 28.3-25.5-35-40.8-76.1-44.3-119.6zm68.5 147.8-.3-.3c16-8.7 32.5-16.1 49.6-22.2 11.4 28.2 26.1 55.1 44 80-34.8-11.3-66.7-30.8-93.3-57.5zm149.3 68.7c-.2 0-.4 0-.6-.1-27.5-30.2-49.2-64.5-64.5-101.5 21.3-5.2 43.1-8.4 65.2-9.5v111.1zm0-147.2c-26.2 1.2-52.1 5.1-77.3 11.5-7.8-26.1-12.5-53.1-14-80.8h91.3V382zm0-105.4h-91.5c1.4-28.9 6.2-57.2 14.4-84.5 25.1 6.4 50.9 10.2 77 11.4v73.1zm0-109.3c-22-1.1-43.6-4.3-64.8-9.4 15.3-36.6 36.9-70.6 64.2-100.6.2 0 .4 0 .6-.1v110.1z"></path></svg>