<svg xmlns="http://www.w3.org/2000/svg" width="613" viewBox="0 0 613 554.3" height="554.3" xml:space="preserve" style="enable-background:new 0 0 613 554.3"><path d="M124.7 0v209.9l181.8 104.9 181.8-104.9V0H124.7zm272.4 158-90.6 52.3-90.6-52.3V53.4l90.6-52.3 90.6 52.3V158zM504.3 239.5 322.5 344.4v209.9H613V302.2l-108.7-62.7zm90.6 261.4-90.6 52.3-90.6-52.3V396.3l90.6-52.3 90.6 52.3v104.6zM108.7 239.5 0 302.2v252.1h290.5V344.4L108.7 239.5zm90.6 261.4-90.6 52.3-90.6-52.3V396.3l90.6-52.3 90.6 52.3v104.6zM613 0h-91.2v209.9l91.2 52.7zM0 0h91.2v209.9L0 262.6z"></path></svg>