<svg data-name="Layer 1" xmlns="http://www.w3.org/2000/svg" viewBox="0 0 622.62 622.62"><path d="M311.31 0C139.65 0 0 139.65 0 311.31s139.65 311.31 311.31 311.31 311.31-139.65 311.31-311.31S482.96 0 311.31 0Zm.54 311.7-48.14-57.55.2-.23.22.26c33.69-28.6 76.61-44.34 120.87-44.34 103.06 0 186.9 83.85 186.9 186.91 0 54.98-23.94 106.6-65.72 142.23V311.7H311.84ZM102.36 96.33c4.89-4.76 9.94-9.34 15.15-13.76V311.7h193.81l49.71 59.59c-34.21 29.39-77.85 45.6-123.03 45.6-104.2 0-188.97-84.77-188.97-188.97 0-49.57 19.22-96.47 53.34-131.59Zm403.28-13.31C466.2 66.75 423.54 58.1 380.61 58.1c-77.77 0-153.15 27.76-212.23 78.16l2.29 2.69-2.36-2.63-1.8 1.62-47.44-56.71C171.16 37.61 238.21 11.3 311.31 11.3s141.93 27.05 194.33 71.72ZM137.37 555.51c33.52 11.34 68.57 17.11 104.64 17.11 80.54 0 157.73-29.48 217.71-83l43.46 52.1c-52.05 43.42-118.95 69.59-191.87 69.59-64.81 0-124.84-20.73-173.94-55.8Z"></path></svg>