<svg xmlns="http://www.w3.org/2000/svg" width="608.3" viewBox="0 0 608.3 402.9" height="402.9" xml:space="preserve" style="enable-background:new 0 0 608.3 402.9"><path d="M557.6 402.9H364.4c-27.9 0-50.7-22.7-50.7-50.7V205.1c0-27.9 22.7-50.7 50.7-50.7h82.7c11.4 0 20.7-9.3 20.7-20.7v-83c0-11.4-9.3-20.7-20.7-20.7H161.2c-11.4 0-20.7 9.3-20.7 20.7v83.1c0 11.4 9.3 20.7 20.7 20.7h82.7c27.9 0 50.7 22.7 50.7 50.7v147.2c0 27.9-22.7 50.7-50.7 50.7H50.7c-28-.2-50.7-22.9-50.7-50.8v-83.1c0-27.9 22.7-50.6 50.7-50.6h194.5v29.9H50.7c-11.4 0-20.7 9.3-20.7 20.7v83.1c0 11.4 9.3 20.7 20.7 20.7h193.2c11.4 0 20.7-9.3 20.7-20.7V205.1c0-11.4-9.3-20.7-20.7-20.7h-82.7c-27.9 0-50.7-22.7-50.7-50.7v-83c0-27.9 22.7-50.7 50.7-50.7h285.9c27.9 0 50.7 22.7 50.7 50.7v83.1c0 27.9-22.7 50.7-50.7 50.7h-82.7c-11.4 0-20.7 9.3-20.7 20.7v147.2c0 11.4 9.3 20.7 20.7 20.7h193.2c11.4 0 20.7-9.3 20.7-20.7v-83.1c0-11.4-9.3-20.7-20.7-20.7H363v-29.9h194.6c27.9 0 50.7 22.7 50.7 50.6v83.1c0 27.8-22.8 50.5-50.7 50.5z"></path></svg>