<svg xmlns="http://www.w3.org/2000/svg" width="585.4" viewBox="0 0 585.4 585.4" height="585.4"><path d="M292.7 81.2c13.5 0 24.4-10.9 24.4-24.4s-10.9-24.4-24.4-24.4c-13.5 0-24.4 10.9-24.4 24.4s10.9 24.4 24.4 24.4zM443.9 99.1V81.2h-142v206.2l178.5 103.2 71.1-122.9-15.5-9-65.2 97.7-144.1-83.3V106.6zM509.1 389.7c-11.7-6.8-26.6-2.8-33.4 8.9s-2.8 26.6 8.9 33.4c11.7 6.8 26.6 2.8 33.4-8.9 6.8-11.7 2.8-26.7-8.9-33.4zM113.9 406.1l70.8 123.1 15.6-8.9-52-105.4L292.6 332l144.1 83.3-52.2 105.2 15.5 9 71.2-122.9-178.5-103.3zM283.5 287.4V81.2H141.4v17.9l117.3 7.5V273l-144.3 83-64.9-97.9-15.6 8.9 70.9 123.2zM76 389.1c-11.7 6.7-15.7 21.6-9 33.3 6.7 11.7 21.6 15.7 33.3 9 11.7-6.7 15.7-21.6 9-33.3-6.7-11.7-21.6-15.7-33.3-9z"></path><path d="M292.7 0C131.3 0 0 131.3 0 292.7c0 161.4 131.3 292.7 292.7 292.7 161.4 0 292.7-131.3 292.7-292.7C585.4 131.3 454.1 0 292.7 0zm0 583.1C132.6 583.1 2.3 452.8 2.3 292.7S132.6 2.3 292.7 2.3c160.1 0 290.4 130.3 290.4 290.4S452.8 583.1 292.7 583.1z"></path></svg>