<svg xmlns="http://www.w3.org/2000/svg" width="625.7" viewBox="0 0 625.7 627.7" height="627.7" xml:space="preserve" style="enable-background:new 0 0 625.7 627.7"><path d="m263.8 338.7 17.4.1c-7.3-11.8-11.4-25.7-11.4-40.6 0-42.6 34.3-77.1 76.5-77.1h77.3l-11-12.4h-93.1c-42.3 0-76.5 34.5-76.5 77.1 0 5.8.7 11.5 1.9 16.9L0 323.4c.1 4.6.4 9.1.7 13.7l263.1 1.6z"></path><path d="m310.9 386.3 17.4.1c-7.3-11.8-11.4-25.7-11.4-40.6 0-42.6 34.3-77.1 76.5-77.1H465l-10.9-12.4h-87.5c-42.3 0-76.5 34.5-76.5 77.1 0 5.8.7 11.5 1.9 16.9L4.9 370c.9 5 1.9 9.9 3 14.7l303 1.6z"></path><path d="m358.1 433.8 17.4.1c-7.3-11.8-11.4-25.7-11.4-40.6 0-42.6 34.3-77.1 76.5-77.1h65.9l-10.9-12.4h-81.9c-42.3 0-76.5 34.5-76.5 77.1 0 5.8.7 11.5 1.9 16.9L17.5 418c1.7 4.8 3.5 9.5 5.4 14.2l335.2 1.6zM221.3 252.4c0-42.6 34.3-77.1 76.5-77.1h298C544.5 71.4 437.6 0 313.9 0 148.1 0 12.4 128.4.7 291h230.9c-6.6-11.3-10.3-24.6-10.3-38.6z"></path><path d="M461 351.3c-42.3 0-76.5 34.5-76.5 77.1 0 5.8.7 11.5 1.9 16.9l-350 15.3c52.7 99.3 157.2 167 277.6 167 160.8 0 293.3-120.7 311.8-276.3H461z"></path></svg>