<svg xmlns="http://www.w3.org/2000/svg" width="613.4" viewBox="0 0 613.4 613.4" height="613.4" style="enable-background:new 0 0 613.4 613.4" xml:space="preserve"><path d="M497.6 323.7h114.5v-34H497.6c66.1-14.2 115.7-73 115.7-143.2C613.4 65.7 547.6 0 466.9 0c-70.2 0-129 49.7-143.2 115.8V0h-34v115.8C275.5 49.7 216.7 0 146.5 0 65.7 0 0 65.7 0 146.5c0 70.2 49.7 129 115.8 143.2H0v34h115.8C49.7 337.8 0 396.6 0 466.9c0 80.8 65.7 146.5 146.5 146.5 70.2 0 129-49.7 143.2-115.8v115.8h34V497.6c14.2 66.1 73 115.8 143.2 115.8 80.8 0 146.5-65.7 146.5-146.5 0-70.3-49.7-129.1-115.8-143.2zM466.9 34c62 0 112.5 50.5 112.5 112.5S528.9 259 466.9 259s-112.5-50.5-112.5-112.5S404.9 34 466.9 34zm-30.8 255.7H323.7V177.2c12 56.1 56.3 100.4 112.4 112.5zM34 146.5C34 84.5 84.5 34 146.5 34S259 84.5 259 146.5 208.5 259 146.5 259 34 208.5 34 146.5zm255.7 30.7v112.5H177.2c56.2-12.1 100.4-56.4 112.5-112.5zM146.5 579.3c-62 0-112.5-50.5-112.5-112.5s50.5-112.5 112.5-112.5S259 404.8 259 466.8c0 62.1-50.5 112.5-112.5 112.5zm30.7-255.6h112.5v112.5c-12.1-56.2-56.3-100.5-112.5-112.5zm146.5 0h112.5c-56.1 12-100.4 56.3-112.5 112.5V323.7zm143.2 255.6c-62 0-112.5-50.5-112.5-112.5s50.5-112.5 112.5-112.5 112.5 50.5 112.5 112.5c-.1 62.1-50.5 112.5-112.5 112.5z"></path></svg>