<svg xmlns="http://www.w3.org/2000/svg" width="604.9" viewBox="0 0 604.9 406.5" height="406.5" xml:space="preserve"><path d="M78.6 157.2C35.2 157.2 0 122 0 78.6S35.2 0 78.6 0h301.9c22.5 0 44.1 9 60.1 24.9L596 180.3c12 12 12 31.7 0 43.7L438.3 381.6a84.996 84.996 0 0 1-60.1 24.9H78.6C35.2 406.5 0 371.3 0 327.9s35.2-78.6 78.6-78.6h344l-63.3 63.3c-10.8 10.8-10.8 28.4 0 39.2 10.8 10.8 28.4 10.8 39.2 0l148.6-148.6L398.5 54.7c-10.8-10.8-28.4-10.8-39.2 0-10.8 10.8-10.8 28.4 0 39.2l63.3 63.3h-344z"></path></svg>