<svg data-name="Layer 1" xmlns="http://www.w3.org/2000/svg" viewBox="0 0 630.52 602.05"><path d="M268.88 92.19c-12.34.11-22.26 10.2-22.15 22.54.11 12.34 10.2 22.26 22.54 22.15 12.34-.11 22.26-10.2 22.15-22.54-.11-12.34-10.2-22.26-22.54-22.15ZM315.06 44.7c12.34-.11 22.26-10.2 22.15-22.55-.1-12.34-10.2-22.26-22.54-22.15-12.34.11-22.26 10.2-22.15 22.54.11 12.34 10.2 22.26 22.55 22.15ZM315.27 68.24c.11 12.34 10.2 22.26 22.55 22.15 12.34-.11 22.26-10.2 22.15-22.54-.11-12.34-10.2-22.26-22.54-22.15-12.34.11-22.26 10.2-22.15 22.54ZM360.56 136.09c12.34-.11 22.26-10.2 22.15-22.54-.11-12.34-10.2-22.26-22.54-22.15-12.34.11-22.26 10.2-22.15 22.55.11 12.34 10.2 22.26 22.54 22.15ZM405.47 159.24c-.11-12.34-10.2-22.26-22.54-22.15-12.34.11-22.26 10.2-22.15 22.55.11 12.34 10.2 22.26 22.54 22.15 12.34-.11 22.26-10.2 22.15-22.54ZM406.06 227.48c12.34-.11 22.26-10.2 22.15-22.55-.11-12.34-10.2-22.26-22.55-22.15-12.34.11-22.26 10.2-22.15 22.55.11 12.34 10.2 22.26 22.54 22.15ZM513.43 240.92c11.71-3.91 18.02-16.58 14.11-28.28-3.91-11.71-16.58-18.02-28.28-14.11-11.71 3.91-18.02 16.58-14.11 28.28 3.91 11.71 16.58 18.02 28.28 14.11ZM629.36 227.72c-3.91-11.71-16.58-18.02-28.28-14.11-11.71 3.91-18.02 16.58-14.11 28.28 3.91 11.71 16.58 18.02 28.28 14.11 11.71-3.91 18.02-16.58 14.11-28.28ZM564.64 249.36c-11.71 3.91-18.02 16.58-14.11 28.28 3.91 11.71 16.58 18.02 28.28 14.11 11.71-3.91 18.02-16.58 14.11-28.28-3.91-11.71-16.58-18.02-28.28-14.11ZM528.2 285.11c-11.71 3.91-18.02 16.58-14.11 28.28 3.91 11.71 16.58 18.02 28.28 14.11 11.71-3.91 18.02-16.58 14.11-28.28-3.91-11.71-16.58-18.02-28.28-14.11ZM491.76 320.86c-11.71 3.91-18.02 16.58-14.11 28.28 3.91 11.71 16.58 18.02 28.28 14.11 11.71-3.91 18.02-16.58 14.11-28.28-3.91-11.71-16.58-18.02-28.28-14.11ZM469.5 399c11.71-3.91 18.02-16.58 14.11-28.28-3.91-11.71-16.58-18.02-28.28-14.11-11.71 3.91-18.02 16.58-14.11 28.28 3.91 11.71 16.58 18.02 28.28 14.11ZM461.58 491.15c7.34 9.93 21.33 12.02 31.26 4.69 9.93-7.34 12.02-21.33 4.69-31.26-7.34-9.93-21.33-12.02-31.26-4.69-9.93 7.34-12.02 21.33-4.69 31.26ZM483.36 561.4c-9.93 7.34-12.03 21.33-4.69 31.26 7.34 9.93 21.33 12.03 31.26 4.69 9.93-7.34 12.02-21.33 4.69-31.26-7.34-9.93-21.33-12.02-31.26-4.69ZM438.11 537.78c-9.93 7.34-12.02 21.33-4.69 31.26 7.34 9.93 21.33 12.02 31.26 4.69 9.93-7.34 12.02-21.33 4.69-31.26-7.34-9.93-21.33-12.02-31.26-4.69ZM392.86 514.16c-9.93 7.34-12.02 21.33-4.69 31.26 7.34 9.93 21.33 12.02 31.26 4.69 9.93-7.34 12.02-21.33 4.69-31.26-7.34-9.93-21.33-12.03-31.26-4.69ZM347.6 490.54c-9.93 7.34-12.02 21.33-4.69 31.26 7.34 9.93 21.33 12.03 31.26 4.69 9.93-7.34 12.03-21.33 4.69-31.26-7.34-9.93-21.33-12.02-31.26-4.69ZM302.35 466.92c-9.93 7.34-12.02 21.33-4.69 31.26 7.34 9.93 21.33 12.03 31.26 4.69 9.93-7.34 12.02-21.33 4.69-31.26-7.34-9.93-21.33-12.02-31.26-4.69ZM238.75 513.91c-10.04-7.18-24-4.85-31.18 5.19s-4.85 24 5.19 31.18 24 4.85 31.18-5.19 4.85-24-5.19-31.18ZM147.48 561.51c-10.04-7.18-24-4.85-31.18 5.19s-4.85 24 5.19 31.18 24 4.85 31.18-5.19 4.85-24-5.19-31.18ZM155.97 511.18c-10.04-7.18-24-4.85-31.18 5.19s-4.85 24 5.19 31.18 24 4.85 31.18-5.19 4.85-24-5.19-31.18ZM164.46 460.84c-10.04-7.18-24-4.85-31.18 5.19s-4.85 24 5.19 31.18 24 4.85 31.18-5.19 4.85-24-5.19-31.18ZM172.96 410.51c-10.04-7.18-24-4.85-31.18 5.19s-4.85 24 5.19 31.18 24 4.85 31.18-5.19 4.85-24-5.19-31.18ZM181.45 360.17c-10.04-7.18-24-4.85-31.18 5.19s-4.85 24 5.19 31.18 24 4.85 31.18-5.19 4.85-24-5.19-31.18ZM117.12 314.18c3.72-11.77-2.8-24.33-14.57-28.05-11.77-3.72-24.33 2.8-28.05 14.57-3.72 11.77 2.8 24.33 14.57 28.05 11.77 3.72 24.33-2.8 28.05-14.57ZM29.1 214.02c-11.77-3.72-24.33 2.8-28.05 14.57-3.72 11.77 2.8 24.33 14.57 28.05 11.77 3.72 24.33-2.8 28.05-14.57 3.72-11.77-2.8-24.33-14.57-28.05ZM94.16 234.61c3.72-11.77-2.8-24.33-14.57-28.05-11.77-3.72-24.33 2.8-28.05 14.57-3.72 11.77 2.8 24.33 14.57 28.05 11.77 3.72 24.33-2.8 28.05-14.57ZM116.61 241.71c11.77 3.72 24.33-2.8 28.05-14.57 3.72-11.77-2.8-24.33-14.57-28.05-11.77-3.72-24.33 2.8-28.05 14.57-3.72 11.77 2.8 24.33 14.57 28.05ZM180.59 191.63c-11.77-3.72-24.33 2.8-28.05 14.57-3.72 11.77 2.8 24.33 14.57 28.05 11.77 3.72 24.33-2.8 28.05-14.57 3.72-11.77-2.8-24.33-14.57-28.05ZM217.6 226.78c11.77 3.72 24.33-2.8 28.05-14.57 3.72-11.77-2.8-24.33-14.57-28.05-11.77-3.72-24.33 2.8-28.05 14.57-3.72 11.77 2.8 24.33 14.57 28.05Z"></path></svg>