<svg data-name="Layer 1" xmlns="http://www.w3.org/2000/svg" viewBox="0 0 620.26 549.15"><path d="M620.12 233.45c-94.52 5.2-177.7 52.77-231.03 123.98v181.49C522.12 504 620.26 383 620.26 239.01c0-1.87-.11-3.71-.14-5.57ZM.13 233.78c-.03 1.75-.13 3.48-.13 5.23 0 142.84 96.6 263.02 228.02 299.01V359.08C175.55 288.09 93.56 240.24.13 233.78ZM461.44 152.22c0-54.77-28.94-102.77-72.35-129.58V281.8c43.41-26.81 72.35-74.81 72.35-129.58ZM286.93 1.64l17.59 547.39c1.87.04 3.73.12 5.61.12.82 0 1.63-.03 2.45-.04L330.17 1.47C323.32.53 316.33 0 309.22 0c-7.57 0-15.01.57-22.29 1.64ZM346.77 546.9c2.76-.33 5.51-.67 8.25-1.06L380.47 17.7a150.827 150.827 0 0 0-42.44-14.94l8.74 544.14ZM157 152.22c0 54.2 28.35 101.75 71.01 128.72V23.49C185.35 50.46 157 98.01 157 152.21ZM262.06 545.29c2.75.43 5.51.82 8.28 1.18L279.07 3a151.442 151.442 0 0 0-42.41 15.37l25.39 526.91Z"></path></svg>