<svg data-name="Layer 1" xmlns="http://www.w3.org/2000/svg" viewBox="0 0 613.34 594.24"><path d="m308.56 200.55-.05.05 105.01 106.21c1.04 1.04 2.74 1.04 3.78 0l95.59-95.59c1.04-1.04 1.04-2.68 0-3.72L308.56.78c-1.04-1.04-2.74-1.04-3.78 0L.77 308.35c-.49.49-.77 1.15-.77 1.86v281.4c0 1.48 1.2 2.63 2.63 2.63H137.8c1.48 0 2.63-1.2 2.63-2.63v-223.7c0-.71.27-1.37.77-1.86l163.59-165.5c1.04-1.04 2.74-1.04 3.78 0Z"></path><path d="M612.57 308.3v.11l-83.65-84.64c-1.04-1.04-2.74-1.04-3.78 0L295.86 453.05c-.49.49-1.15.77-1.86.77h-63.12c-40.24 0-72.87 32.63-72.87 72.87v64.93c0 1.48 1.2 2.63 2.63 2.63h173.88c.71 0 1.42-.27 1.92-.82l131.94-135.01c1.64-1.7 4.54-.55 4.54 1.86v131.28c0 1.48 1.2 2.63 2.63 2.63h135.17c1.48 0 2.63-1.2 2.63-2.63v-281.4c0-.71-.27-1.37-.77-1.86Z"></path></svg>