<svg id="Layer_1" data-name="Layer 1" xmlns="http://www.w3.org/2000/svg" viewBox="0 0 614.61 605.82">   <path d="M442.19,321.01s-180.57-.17-180.56-.25c-8.63-1.38-15.23-8.83-15.23-17.85s6.6-16.47,15.23-17.85c-.01-.08-.02-.17-.04-.25h180.59c95.22,0,172.41-63.76,172.41-142.4S537.42,0,442.19,0h-183.42c33.24,14.4,56.61,48.49,56.61,88.27,0,52.79-41.16,95.59-91.93,95.59H125.21C56.06,183.86,0,237.16,0,302.91s56.06,119.05,125.21,119.05h98.24c50.77,0,91.93,42.8,91.93,95.59,0,39.78-23.37,73.87-56.61,88.27h183.42c95.22,0,172.41-63.76,172.41-142.4s-77.19-142.4-172.41-142.4Z"></path> </svg>