<svg data-name="Layer 1" xmlns="http://www.w3.org/2000/svg" viewBox="0 0 618.11 614.33"><path d="M309.05 0C138.64 0 0 138.64 0 309.05c0 154.03 113.27 282.07 260.88 305.28V467.32c0-26.56 21.61-48.17 48.17-48.17s48.17 21.61 48.17 48.17v147.01c147.61-23.2 260.88-151.25 260.88-305.28C618.11 138.64 479.46 0 309.05 0Zm48.17 150.79c0 26.56-21.61 48.17-48.17 48.17s-48.17-21.61-48.17-48.17 21.61-48.17 48.17-48.17 48.17 21.61 48.17 48.17Zm101.7 300.04c-8.24-75.41-72.3-134.29-149.87-134.29s-141.62 58.88-149.87 134.29c-35.04-37-56.57-86.91-56.57-141.77s21.55-104.74 56.57-141.75c8.25 75.4 72.3 134.27 149.87 134.27s141.61-58.87 149.87-134.27c35.02 37.01 56.57 86.9 56.57 141.75s-21.53 104.78-56.57 141.77Z"></path></svg>