<svg id="Layer_1" data-name="Layer 1" xmlns="http://www.w3.org/2000/svg" viewBox="0 0 610.9 610.9">   <path d="M56.86,373.25c-16.52,0-32.51,2.26-47.73,6.41,27.3,109.37,113.54,195.35,223.03,222.32,4.06-15.05,6.25-30.86,6.25-47.18,0-100.11-81.44-181.56-181.55-181.56Z"></path>   <path d="M122.14,107.91c-19.44,0-38.23,2.79-56.05,7.9C24.75,167.92,0,233.77,0,305.45c0,12.63,.86,25.05,2.34,37.27,17.43-4.48,35.7-6.87,54.51-6.87,120.73,0,218.95,98.22,218.95,218.96,0,18.58-2.34,36.62-6.72,53.86,11.93,1.42,24.05,2.23,36.36,2.23,6.84,0,13.61-.31,20.34-.75,.01-.83,.06-1.66,.06-2.5V311.62c0-112.33-91.39-203.72-203.72-203.72Z"></path>   <path d="M363.26,554.81c0,17.04,2.41,33.53,6.82,49.18,112.72-24.29,202.33-110.74,231.07-221.74-17.75-5.81-36.68-9-56.35-9-100.11,0-181.55,81.45-181.55,181.56Z"></path>   <path d="M305.45,0C231.06,0,162.9,26.62,109.92,70.82c4.05-.2,8.12-.31,12.22-.31,132.95,0,241.12,108.16,241.12,241.12v120.92c39.38-58.29,106.07-96.69,181.55-96.69,22.05,0,43.34,3.31,63.43,9.4,1.7-13.04,2.67-26.3,2.67-39.8C610.9,136.76,474.15,0,305.45,0Z"></path> </svg>