<svg data-name="Layer 1" xmlns="http://www.w3.org/2000/svg" viewBox="0 0 600.22 619.96"><path d="M27.38 162.4 0 209.81l173.49 100.17L0 410.14 27.06 457l255-146.88L27.38 162.4zM236.8 200.32 63.32 100.15l-26.98 46.73 254.81 147.8V0H236.8v200.32zM536.91 100.17 363.42 200.33V0h-54.35v294.57l255.21-147-27.37-47.4zM600.22 209.83l-26.99-46.74-255.37 147.09 254.75 147.77 27.6-47.79-173.48-100.17 173.49-100.16zM63.31 519.8 236.8 419.64v200.33h54.35v-39.09c-15.02-3.91-26.13-17.53-26.13-33.77s11.11-29.87 26.13-33.78V325.58L36.02 472.52l27.29 47.28ZM309.07 513.4c14.87 4.01 25.83 17.56 25.83 33.7s-10.96 29.68-25.83 33.7v39.17h54.35V419.65L536.9 519.82l26.76-46.34L309.07 325.8v187.61Z"></path></svg>