<svg xmlns="http://www.w3.org/2000/svg" width="612.8" viewBox="0 0 612.8 557.2" height="557.2" xml:space="preserve"><path d="m216.9 100.8 89.3 89.3 89.2-89.3V.6l-89.2 89.2L216.9.6z"></path><path d="M306.2 58.3c16.1 0 29.1-13.1 29.1-29.2S322.2 0 306.2 0C290.1 0 277 13.1 277 29.1c0 16.1 13.1 29.2 29.2 29.2zM146 170.5H19.7l70.9 70.9h126.2V115.1L146 44.3z"></path><path d="M123.7 148.2c11.4-11.4 11.4-29.9 0-41.2-11.4-11.4-29.9-11.4-41.2 0-11.4 11.4-11.4 29.9 0 41.2 11.3 11.4 29.8 11.4 41.2 0zM.6 251l89.2 89.2L.6 429.5h100.2l89.3-89.3-89.3-89.2z"></path><path d="M29.1 369.4c16.1 0 29.1-13.1 29.1-29.1 0-16.1-13.1-29.1-29.1-29.1-16-.1-29.1 13-29.1 29 0 16.1 13.1 29.2 29.1 29.2zM612.2 251H512l-89.3 89.2 89.3 89.3h100.2l-89.3-89.3z"></path><path d="M583.6 311.1c-16.1 0-29.1 13.1-29.1 29.1 0 16.1 13.1 29.1 29.1 29.1 16.1 0 29.1-13.1 29.1-29.1.1-16-13-29.1-29.1-29.1zM592.5 170.5H466.3V44.3l-70.9 70.8v126.3h126.3z"></path><path d="M529.8 148.2c11.4-11.4 11.4-29.9 0-41.2-11.4-11.4-29.9-11.4-41.2 0-11.4 11.4-11.4 29.9 0 41.2 11.4 11.4 29.9 11.4 41.2 0zM216.9 367.7v100.2l89.3 89.3 89.2-89.3V367.7l-89.2 89.2z"></path><path d="M277 396.3c0 16.1 13.1 29.2 29.1 29.2 16.1 0 29.1-13.1 29.1-29.2s-13.1-29.1-29.1-29.1c-16-.1-29.1 13-29.1 29.1z"></path></svg>