<svg xmlns="http://www.w3.org/2000/svg" width="604.5" viewBox="0 0 604.5 453.6" height="453.6" xml:space="preserve"><path d="M315.5 226.8c0 5.6-3.9 10.3-9.2 11.5v61.5h21.8c40.2 0 72.9-32.7 72.9-72.9S368.3 154 328.1 154h-55.2c-39.3 0-71.2 31.9-71.2 71.2v228.3h90.2V226.8c0-6.5 5.3-11.8 11.8-11.8s11.8 5.3 11.8 11.8z" class="st0"></path><path d="M385.5.1V0H227.7C102.8 0 .5 102 0 226.8V453.5h86.4v-229c0-43.1 16.9-83.7 47.5-114.3 30.7-30.7 71.3-47.5 114.3-47.5h104.7c90.6 0 164.3 73.7 164.3 164.3 0 90.6-73.7 164.3-164.3 164.3l-46.8-.1v62.5h71.4c125.2 0 226.8-101.5 226.8-226.8C604.5 104.1 507.1 4.2 385.5.1z" class="st0"></path><path d="M502.9 226.9c0-82.6-67.2-149.8-149.8-149.8H248.3c-39.2 0-76.2 15.4-104.1 43.3-27.9 27.9-43.3 64.9-43.3 104.1v229.1h86.4V225.2c0-47.2 38.4-85.6 85.6-85.6h55.2c48.1 0 87.3 39.2 87.3 87.3s-39.2 87.3-87.3 87.3h-21.8v62.4l46.8.1c82.6 0 149.8-67.2 149.8-149.8z" class="st0"></path></svg>