<svg xmlns="http://www.w3.org/2000/svg" width="642" viewBox="0 0 642 640.3" height="640.3" style="overflow:visible;enable-background:new 0 0 642 640.3" xml:space="preserve"><path d="M0 0v34.5c152.5 63.2 260 213.6 260 388.7v217.2h32.1V423.1C292.1 230.1 170.6 64.8 0 0z"></path><path d="M0 46.7v35.2c128 60.4 216.7 190.7 216.7 341.3v217.2h32.1V423.1C248.8 254.4 146.1 109.2 0 46.7z"></path><path d="M0 94.3v36.2c103.2 56.8 173.3 166.7 173.3 292.6v217.2h32.1V423.1c0-144.2-83.9-269.2-205.4-328.8z"></path><path d="M0 143.4v37.8c78.3 52.1 130 141.1 130 242v217.2h32.1V423.1c0-119.5-65.3-224-162.1-279.7z"></path><path d="M0 194.7v40.6C53 280.7 86.7 348 86.7 423.1v217.2h32.1V423.1c0-94.3-47-177.8-118.8-228.4z"></path><path d="M0 250.4v47.2c27.2 34.6 43.3 78.3 43.3 125.5v217.2h32.1V423.1c0-68.1-29-129.6-75.4-172.7z"></path><path d="M32.1 423.1v217.2H0V316.8c20.3 30.5 32.1 67.1 32.1 106.3z"></path><g><path d="M349.9 423.1v217.2H382V423.1C382 248 489.5 97.6 642 34.4V0C471.4 64.8 349.9 230.1 349.9 423.1z"></path><path d="M393.2 423.1v217.2h32.1V423.1c0-150.6 88.7-280.9 216.7-341.3V46.7c-146.1 62.5-248.8 207.7-248.8 376.4z"></path><path d="M436.6 423.1v217.2h32.1V423.1c0-126 70.1-235.8 173.3-292.6V94.3c-121.5 59.6-205.4 184.6-205.4 328.8z"></path><path d="M479.9 423.1v217.2H512V423.1c0-100.9 51.7-189.9 130-242v-37.8c-96.8 55.8-162.1 160.3-162.1 279.8z"></path><path d="M523.2 423.1v217.2h32.1V423.1c0-75.1 33.6-142.5 86.7-187.8v-40.6c-71.8 50.6-118.8 134.1-118.8 228.4z"></path><path d="M566.6 423.1v217.2h32.1V423.1c0-47.3 16.2-90.9 43.3-125.5v-47.2c-46.4 43.1-75.4 104.6-75.4 172.7z"></path><path d="M642 316.8v323.5h-32.1V423.1c0-39.2 11.8-75.8 32.1-106.3z"></path></g></svg>