<svg id="Layer_1" data-name="Layer 1" xmlns="http://www.w3.org/2000/svg" viewBox="0 0 616.8 616.1">   <polygon points="170.77 308.05 124.88 262.16 170.77 216.28 124.88 170.39 0 170.39 0 445.72 124.88 445.72 170.77 399.83 124.88 353.94 170.77 308.05"></polygon>   <polygon points="446.39 399.83 400.55 353.99 446.44 308.1 446.49 308.05 446.44 308 446.39 308.05 400.55 262.21 446.44 216.32 446.49 216.28 446.44 216.23 446.39 216.28 400.5 170.39 354.56 216.32 400.45 262.21 354.56 308.1 400.45 353.99 354.56 399.88 400.45 445.77 354.56 491.65 308.67 445.77 354.56 399.88 308.67 353.99 354.56 308.1 308.67 262.21 354.56 216.32 308.63 170.39 262.69 216.32 308.58 262.21 262.69 308.1 308.58 353.99 262.69 399.88 308.58 445.77 262.69 491.65 216.8 445.77 262.69 399.88 216.8 353.99 262.69 308.1 216.8 262.21 262.69 216.32 216.75 170.39 170.86 216.28 170.81 216.23 170.77 216.28 170.81 216.32 216.7 262.21 170.86 308.05 170.81 308 170.77 308.05 170.81 308.1 216.7 353.99 170.86 399.83 170.81 399.78 170.77 399.83 170.81 399.88 216.7 445.77 170.81 491.65 170.81 616.1 446.44 616.1 446.44 491.65 400.55 445.77 446.44 399.88 446.49 399.83 446.44 399.78 446.39 399.83"></polygon>   <polygon points="308.63 170.39 354.56 124.45 400.5 170.39 446.44 124.45 446.44 0 170.81 0 170.81 124.45 216.75 170.39 262.69 124.45 308.63 170.39"></polygon>   <polygon points="492.37 170.39 446.49 216.28 492.37 262.16 446.49 308.05 492.37 353.94 446.49 399.83 492.37 445.72 492.35 445.74 616.8 445.74 616.8 170.39 492.37 170.39"></polygon> </svg>