<svg data-name="Layer 1" xmlns="http://www.w3.org/2000/svg" viewBox="0 0 624.54 624.54"><path d="M312.27 0C140.08 0 0 140.09 0 312.27s140.08 312.27 312.27 312.27 312.27-140.08 312.27-312.27S484.46 0 312.27 0Zm115.85 359.86 38.09 117.24c3.97 12.2-.18 24.94-10.55 32.48-10.38 7.54-23.78 7.54-34.17 0l-99.73-72.46c-2.84-2.06-6.17-3.1-9.49-3.1s-6.65 1.03-9.49 3.1l-99.73 72.46c-10.38 7.53-23.78 7.54-34.17 0-10.37-7.54-14.52-20.29-10.55-32.48l38.09-117.24c2.17-6.68-.19-13.93-5.87-18.06l-99.72-72.46c-10.37-7.54-14.52-20.29-10.55-32.49 3.96-12.2 14.81-20.08 27.64-20.08h123.27c7.02 0 13.19-4.48 15.36-11.16l38.1-117.23c3.97-12.2 14.81-20.08 27.64-20.08s23.67 7.88 27.64 20.08l38.09 117.24c2.18 6.68 8.35 11.16 15.36 11.16h123.27c12.82 0 23.67 7.88 27.64 20.08 3.97 12.2-.18 24.95-10.55 32.49l-99.73 72.46c-5.67 4.13-8.03 11.39-5.86 18.06Zm115.89-130.63c-5.68-9.55-15.76-15.48-27.38-15.48H393.36c-5.7 0-10.72-3.65-12.49-9.08L342.78 87.44c-3.55-10.92-12.12-18.61-22.77-21.17 103.26 3.21 190.68 70.26 224 162.95ZM304.53 66.27c-10.65 2.56-19.22 10.25-22.77 21.17l-38.1 117.23c-1.76 5.43-6.78 9.08-12.48 9.08H107.91c-11.62 0-21.7 5.92-27.38 15.47 33.32-92.69 120.75-159.73 224-162.94Zm-238.45 246c0-23.95 3.5-47.09 9.91-68.99-.97 11.03 3.7 21.7 13.07 28.51l99.72 72.46c4.62 3.36 6.53 9.25 4.77 14.68l-38.09 117.24c-3.54 10.88-1.14 22.11 5.92 30.43-57.93-45.08-95.3-115.4-95.3-194.32Zm107.68 203.41c10.17 4.29 21.72 3.14 31.06-3.66l99.73-72.46c4.62-3.36 10.82-3.36 15.44 0l99.73 72.46c5.73 4.17 12.29 6.24 18.85 6.24 4.15 0 8.27-.93 12.21-2.59-39.49 26.98-87.19 42.79-138.51 42.79s-99.02-15.81-138.51-42.78Zm289.41-9.09c7.06-8.32 9.45-19.55 5.92-30.43L431 358.92c-1.76-5.42.15-11.32 4.76-14.68l99.73-72.46c9.37-6.81 14.04-17.48 13.07-28.51 6.41 21.91 9.91 45.04 9.91 68.99 0 78.92-37.37 149.23-95.3 194.32Z"></path></svg>