<svg xmlns="http://www.w3.org/2000/svg" width="609" viewBox="0 0 609 609.1" height="609.1" xml:space="preserve" style="enable-background:new 0 0 609 609.1"><path d="M454 230.6c-43 18.2-82.7 43-117.8 73.9 18.9 21.2 36 44.1 50.8 68.5 60.3-55.3 140.1-88.3 222.1-91.5v-85c-53.6 1.8-105.7 13.3-155.1 34.1zM440.6 502.1c38.2-53.3 99.1-89.4 168.5-94V323c-76.1 3.5-147.5 34.8-201.5 87.6 14 29 25.1 59.6 33 91.5zM304.5 336.2c-21.2 18.9-44.1 36-68.5 50.8 55.3 60.3 88.3 140.1 91.5 222.1h85c-1.8-53.6-13.2-105.7-34.1-155-18.2-43.1-43-82.8-73.9-117.9zM106.9 440.6c53.3 38.2 89.4 99.1 94 168.5H286c-3.5-76.1-34.8-147.5-87.6-201.5-29 14-59.6 25.1-91.5 33zM272.8 304.5c-18.9-21.2-36-44.1-50.8-68.5-60.2 55.3-140.1 88.3-222 91.5v85c53.6-1.8 105.7-13.2 155-34.1 43-18.2 82.8-43 117.8-73.9zM168.5 106.9c-38.2 53.3-99.1 89.4-168.5 94V286c76.1-3.5 147.5-34.8 201.5-87.6-14-29-25.2-59.6-33-91.5zM304.6 272.8c21.2-18.9 44.1-36 68.5-50.8-55.3-60.2-88.3-140.1-91.5-222h-85c1.8 53.6 13.2 105.7 34.1 155 18.2 43 43 82.8 73.9 117.8zM502.2 168.5c-53.3-38.2-89.4-99.1-94-168.5h-85.1c3.5 76.1 34.8 147.5 87.6 201.5 29-14 59.6-25.2 91.5-33z"></path></svg>