<svg data-name="Layer 1" xmlns="http://www.w3.org/2000/svg" viewBox="0 0 620.39 620.26"><path d="M469.01 304.18h151.38l-11.89-11.76H469.01v-11.76h127.72l-11.76-11.76H469.01v-11.76h104.2l-11.76-11.76h-92.43v-11.76h80.67l-11.76-11.76h-68.91V210.1h57.14l-11.76-11.76h-45.38v-11.76h33.61l-11.77-11.76h-21.85v-11.76h10.09l-21.85-21.85v10.09h-11.76v-21.85l-11.77-11.76v33.61h-11.76v-45.38L410.2 94.16v57.14h-11.77V82.35l-11.76-11.76v80.67h-11.76V58.82l-11.76-11.76v104.2h-11.77V35.29l-11.76-11.76v127.72h-11.76V11.76L316.09 0v151.25h-11.76V0l-11.77 11.76v139.49H280.8V23.53l-11.76 11.76v115.96h-11.76V47.06l-11.77 11.76v92.43h-11.76V70.58l-11.76 11.76v68.91h-11.76V94.11l-11.77 11.76v45.38H186.7v-33.61l-11.76 11.76v21.85h-11.77v-10.09l-21.85 21.85h10.09v11.76h-21.85l-11.76 11.76h33.61v11.76h-45.38l-11.76 11.76h57.14v11.76H82.48l-11.77 11.76h80.67v11.76H58.95l-11.76 11.76h104.2v11.76H35.42l-11.77 11.76h127.72v11.76H11.89L0 304.13h151.38v11.76H0l11.76 11.76h139.62v11.76H23.53l11.76 11.76h116.09v11.76H47.06l11.76 11.76h92.56v11.76h-80.8l11.77 11.76h69.03v11.76H94.11l11.76 11.76h45.51v11.76h-33.74l11.76 11.76h21.98v11.76h-10.22l21.98 21.98v-10.22h11.77v21.98l11.76 11.76v-33.74h11.76v45.51l11.76 11.76v-57.27h11.77v69.03l11.76 11.76v-80.8h11.76v92.56l11.77 11.76V468.75h11.76v116.09l11.76 11.76V468.75h11.76v139.62l11.77 11.76V468.75h11.76v151.38l11.77-11.76V468.75h11.76V596.6l11.76-11.76V468.75h11.77v104.33l11.76-11.76v-92.56h11.76v80.8l11.76-11.76v-69.03h11.77v57.27l11.76-11.76v-45.51h11.76v33.74l11.76-11.76v-21.98h11.76v10.22l21.98-21.98h-10.22v-11.76h21.98l11.77-11.76h-33.74v-11.76h45.51l11.76-11.76h-57.27v-11.76h69.04l11.76-11.76h-80.8v-11.76h92.56l11.77-11.76H468.98v-11.76h116.09l11.76-11.76H468.98v-11.76H608.6l11.77-11.76H468.99v-11.76Zm-294.1 152.93h-11.77v-11.76h11.77v11.76Zm0-23.53h-11.77v-11.76h11.77v11.76Zm0-23.53h-11.77v-11.76h11.77v11.76Zm0-23.53h-11.77v-11.76h11.77v11.76Zm0-23.53h-11.77v-11.76h11.77v11.76Zm0-23.53h-11.77V327.7h11.77v11.76Zm0-23.53h-11.77v-11.76h11.77v11.76Zm0-23.53h-11.77v-11.76h11.77v11.76Zm0-23.53h-11.77v-11.76h11.77v11.76Zm0-23.53h-11.77v-11.76h11.77v11.76Zm0-23.53h-11.77v-11.76h11.77v11.76Zm0-23.53h-11.77v-11.76h11.77v11.76Zm0-23.53h-11.77v-11.76h11.77v11.76Zm23.53 282.33h-11.76v-11.76h11.76v11.76Zm0-23.53h-11.76v-11.76h11.76v11.76Zm0-23.53h-11.76v-11.76h11.76v11.76Zm0-23.53h-11.76v-11.76h11.76v11.76Zm0-23.53h-11.76V351.2h11.76v11.76Zm0-23.53h-11.76v-11.76h11.76v11.76Zm0-23.53h-11.76v-11.76h11.76v11.76Zm0-23.53h-11.76v-11.76h11.76v11.76Zm0-23.53h-11.76v-11.76h11.76v11.76Zm0-23.53h-11.76v-11.76h11.76v11.76Zm0-23.53h-11.76v-11.76h11.76v11.76Zm0-23.53h-11.76v-11.76h11.76v11.76Zm0-23.53h-11.76v-11.76h11.76v11.76Zm23.53 282.33h-11.76v-11.76h11.76v11.76Zm0-23.53h-11.76v-11.76h11.76v11.76Zm0-23.53h-11.76v-11.76h11.76v11.76Zm0-23.53h-11.76V374.7h11.76v11.76Zm0-23.53h-11.76v-11.76h11.76v11.76Zm0-23.53h-11.76v-11.76h11.76v11.76Zm0-23.53h-11.76v-11.76h11.76v11.76Zm0-23.53h-11.76v-11.76h11.76v11.76Zm0-23.53h-11.76v-11.76h11.76v11.76Zm0-23.53h-11.76v-11.76h11.76v11.76Zm0-23.53h-11.76v-11.76h11.76v11.76Zm0-23.53h-11.76v-11.76h11.76v11.76Zm0-23.53h-11.76v-11.76h11.76v11.76Zm23.53 282.33h-11.76v-11.76h11.76v11.76Zm0-23.53h-11.76v-11.76h11.76v11.76Zm0-23.53h-11.76V398.2h11.76v11.76Zm0-23.53h-11.76v-11.76h11.76v11.76Zm0-23.53h-11.76v-11.76h11.76v11.76Zm0-23.53h-11.76v-11.76h11.76v11.76Zm0-23.53h-11.76v-11.76h11.76v11.76Zm0-23.53h-11.76v-11.76h11.76v11.76Zm0-23.53h-11.76v-11.76h11.76v11.76Zm0-23.53h-11.76v-11.76h11.76v11.76Zm0-23.53h-11.76v-11.76h11.76v11.76Zm0-23.53h-11.76v-11.76h11.76v11.76Zm0-23.53h-11.76V162.9h11.76v11.76Zm23.53 282.33h-11.76v-11.76h11.76v11.76Zm0-23.53h-11.76V421.7h11.76v11.76Zm0-23.53h-11.76v-11.76h11.76v11.76Zm0-23.53h-11.76v-11.76h11.76v11.76Zm0-23.53h-11.76v-11.76h11.76v11.76Zm0-23.53h-11.76v-11.76h11.76v11.76Zm0-23.53h-11.76v-11.76h11.76v11.76Zm0-23.53h-11.76v-11.76h11.76v11.76Zm0-23.53h-11.76v-11.76h11.76v11.76Zm0-23.53h-11.76v-11.76h11.76v11.76Zm0-23.53h-11.76v-11.76h11.76v11.76Zm0-23.53h-11.76V186.4h11.76v11.76Zm0-23.53h-11.76v-11.76h11.76v11.76Zm23.53 282.33H280.8V445.2h11.76v11.76Zm0-23.53H280.8v-11.76h11.76v11.76Zm0-23.53H280.8v-11.76h11.76v11.76Zm0-23.53H280.8v-11.76h11.76v11.76Zm0-23.53H280.8v-11.76h11.76v11.76Zm0-23.53H280.8v-11.76h11.76v11.76Zm0-23.53H280.8v-11.76h11.76v11.76Zm0-23.53H280.8v-11.76h11.76v11.76Zm0-23.53H280.8v-11.76h11.76v11.76Zm0-23.53H280.8v-11.76h11.76v11.76Zm0-23.53H280.8V209.9h11.76v11.76Zm0-23.53H280.8v-11.76h11.76v11.76Zm0-23.53h-11.77v-11.76h11.77v11.76Zm23.53 282.33h-11.76v-11.76h11.76v11.76Zm0-23.53h-11.76v-11.76h11.76v11.76Zm0-23.53h-11.76v-11.76h11.76v11.76Zm0-23.53h-11.76v-11.76h11.76v11.76Zm0-23.53h-11.76v-11.76h11.76v11.76Zm0-23.53h-11.76v-11.76h11.76v11.76Zm0-23.53h-11.76v-11.76h11.76v11.76Zm0-23.53h-11.76v-11.76h11.76v11.76Zm0-23.53h-11.76v-11.76h11.76v11.76Zm0-23.53h-11.76V233.4h11.76v11.76Zm0-23.53h-11.76v-11.76h11.76v11.76Zm0-23.53h-11.76v-11.76h11.76v11.76Zm0-23.53h-11.76v-11.76h11.76v11.76Zm23.53 282.33h-11.76v-11.76h11.76v11.76Zm0-23.53h-11.76v-11.76h11.76v11.76Zm0-23.53h-11.76v-11.76h11.76v11.76Zm0-23.53h-11.76v-11.76h11.76v11.76Zm0-23.53h-11.76v-11.76h11.76v11.76Zm0-23.53h-11.76v-11.76h11.76v11.76Zm0-23.53h-11.76v-11.76h11.76v11.76Zm0-23.53h-11.76v-11.76h11.76v11.76Zm0-23.53h-11.76V256.9h11.76v11.76Zm0-23.53h-11.76v-11.76h11.76v11.76Zm0-23.53h-11.76v-11.76h11.76v11.76Zm0-23.53h-11.76v-11.76h11.76v11.76Zm0-23.53h-11.76v-11.76h11.76v11.76Zm23.53 282.33h-11.77v-11.76h11.77v11.76Zm0-23.53h-11.77v-11.76h11.77v11.76Zm0-23.53h-11.77v-11.76h11.77v11.76Zm0-23.53h-11.77v-11.76h11.77v11.76Zm0-23.53h-11.77v-11.76h11.77v11.76Zm0-23.53h-11.77v-11.76h11.77v11.76Zm0-23.53h-11.77v-11.76h11.77v11.76Zm0-23.53h-11.77V280.4h11.77v11.76Zm0-23.53h-11.77v-11.76h11.77v11.76Zm0-23.53h-11.77v-11.76h11.77v11.76Zm0-23.53h-11.77v-11.76h11.77v11.76Zm0-23.53h-11.77v-11.76h11.77v11.76Zm0-23.53h-11.77v-11.76h11.77v11.76Zm23.53 282.33h-11.76v-11.76h11.76v11.76Zm0-23.53h-11.76v-11.76h11.76v11.76Zm0-23.53h-11.76v-11.76h11.76v11.76Zm0-23.53h-11.76v-11.76h11.76v11.76Zm0-23.53h-11.76v-11.76h11.76v11.76Zm0-23.53h-11.76v-11.76h11.76v11.76Zm0-23.53h-11.76V303.9h11.76v11.76Zm0-23.53h-11.76v-11.76h11.76v11.76Zm0-23.53h-11.76v-11.76h11.76v11.76Zm0-23.53h-11.76v-11.76h11.76v11.76Zm0-23.53h-11.76v-11.76h11.76v11.76Zm0-23.53h-11.76v-11.76h11.76v11.76Zm0-23.53h-11.76v-11.76h11.76v11.76Zm23.53 282.33h-11.77v-11.76h11.77v11.76Zm0-23.53h-11.77v-11.76h11.77v11.76Zm0-23.53h-11.77v-11.76h11.77v11.76Zm0-23.53h-11.77v-11.76h11.77v11.76Zm0-23.53h-11.77v-11.76h11.77v11.76Zm0-23.53h-11.77V327.4h11.77v11.76Zm0-23.53h-11.77v-11.76h11.77v11.76Zm0-23.53h-11.77v-11.76h11.77v11.76Zm0-23.53h-11.77v-11.76h11.77v11.76Zm0-23.53h-11.77v-11.76h11.77v11.76Zm0-23.53h-11.77v-11.76h11.77v11.76Zm0-23.53h-11.77v-11.76h11.77v11.76Zm0-23.53h-11.77v-11.76h11.77v11.76Zm23.53 282.33h-11.76v-11.76h11.76v11.76Zm0-23.53h-11.76v-11.76h11.76v11.76Zm0-23.53h-11.76v-11.76h11.76v11.76Zm0-23.53h-11.76v-11.76h11.76v11.76Zm0-23.53h-11.76V350.9h11.76v11.76Zm0-23.53h-11.76v-11.76h11.76v11.76Zm0-23.53h-11.76v-11.76h11.76v11.76Zm0-23.53h-11.76v-11.76h11.76v11.76Zm0-23.53h-11.76v-11.76h11.76v11.76Zm0-23.53h-11.76v-11.76h11.76v11.76Zm0-23.53h-11.76v-11.76h11.76v11.76Zm0-23.53h-11.76v-11.76h11.76v11.76Zm0-23.53h-11.76v-11.76h11.76v11.76Zm23.53 282.33h-11.76v-11.76h11.76v11.76Zm0-23.53h-11.76v-11.76h11.76v11.76Zm0-23.53h-11.76v-11.76h11.76v11.76Zm0-23.53h-11.76V374.4h11.76v11.76Zm0-23.53h-11.76v-11.76h11.76v11.76Zm0-23.53h-11.76v-11.76h11.76v11.76Zm0-23.53h-11.76v-11.76h11.76v11.76Zm0-23.53h-11.76v-11.76h11.76v11.76Zm0-23.53h-11.76v-11.76h11.76v11.76Zm0-23.53h-11.76v-11.76h11.76v11.76Zm0-23.53h-11.76v-11.76h11.76v11.76Zm0-23.53h-11.76v-11.76h11.76v11.76Zm0-23.53h-11.76v-11.76h11.76v11.76Z"></path></svg>