<svg id="Layer_1" data-name="Layer 1" xmlns="http://www.w3.org/2000/svg" viewBox="0 0 571.73 558.5"><defs></defs><path class="cls-1" d="M285.86 0H0v12.14h571.73V0H285.86zM342.7 24.28H229.03L207.5 36.42H0v12.15h571.73V36.42h-207.5L342.7 24.28zM411.99 60.71H159.74l-21.52 12.14H0v12.14h571.73V72.85H433.51l-21.52-12.14zM451.59 97.13H120.14l-21.53 12.14H0v12.14h571.73v-12.14h-98.61l-21.53-12.14zM478.08 133.56H93.65L72.12 145.7H0v12.14h571.73V145.7h-72.12l-21.53-12.14zM496.23 169.98H75.5l-21.52 12.14H0v12.14h571.73v-12.14h-53.98l-21.52-12.14zM506.99 206.4H64.74l-21.53 12.14H0v12.15h571.73v-12.15h-43.21l-21.53-12.14zM513.24 242.83H58.49l-21.52 12.14H0v12.14h571.73v-12.14h-36.97l-21.52-12.14zM506.99 315.68H64.74l-21.53 12.14H0v12.14h571.73v-12.14h-43.21l-21.53-12.14zM496.23 352.1H75.5l-21.52 12.14H0v12.14h571.73v-12.14h-53.98l-21.52-12.14zM477.79 388.52H93.93l-21.52 12.15H0v12.14h571.73v-12.14h-72.41l-21.53-12.15zM451.73 424.95H120l-21.53 12.14H0v12.14h571.73v-12.14h-98.47l-21.53-12.14zM411.99 461.37H159.74l-21.52 12.14H0v12.15h571.73v-12.15H433.51l-21.52-12.14zM341.18 497.8H230.55l-21.53 12.14H0v12.14h571.73v-12.14H362.71l-21.53-12.14zM512.57 279.16l-226.71.09-226.7-.09-21.53 12.14-37.63.09v12.14h571.73v-12.14l-37.63-.09-21.53-12.14zM0 546.36v12.14h571.73v-12.14H0z"></path></svg>