<svg data-name="Layer 1" xmlns="http://www.w3.org/2000/svg" viewBox="0 0 492.66 587.21"><path d="M186.78 478.91H121c-46.75 0-84.64-37.9-84.64-84.64V313.2c2.22-47.52 40.32-84.64 86.75-84.64h183.1v-41.43H126.13C56.47 187.13 0 243.6 0 313.26v77.99c0 69.66 56.47 126.13 126.13 126.13h61.21c.79 0 1.43.64 1.43 1.43v68.4h36.36v-69.95c0-21.18-17.17-38.35-38.35-38.35Z"></path><path d="M369.68 434.49H287.3a131.966 131.966 0 0 1 21.11 38.47h63.24c43.39 0 78.69-35.3 78.69-78.69V123.11c0-43.39-35.3-78.69-78.69-78.69H121c-43.39 0-78.69 35.3-78.69 78.69v88.14c10.82-8.9 23.08-16.09 36.36-21.23v-62.83c0-24.43 19.87-44.3 44.3-44.3h246.7c24.43 0 44.3 19.87 44.3 44.3v263c0 24.43-19.87 44.3-44.3 44.3Z"></path><path d="M36.36 123.11c0-46.67 37.97-84.64 84.64-84.64h250.65c46.67 0 84.64 37.97 84.64 84.64v271.16c0 46.67-37.97 84.64-84.64 84.64h-61.33c3.49 11.83 5.39 24.33 5.39 37.28v1.19h50.82c69.55 0 126.13-56.58 126.13-126.13V126.13C492.66 56.58 436.08 0 366.54 0H126.13C56.58 0 0 56.58 0 126.13v147.88c6.95-22.28 19.66-42.02 36.36-57.52v-93.38Z"></path><path d="M369.68 428.53c21.09 0 38.35-17.26 38.35-38.35V127.2c0-21.09-17.26-38.35-38.35-38.35h-246.7c-21.09 0-38.35 17.26-38.35 38.35v60.7a131.06 131.06 0 0 1 36.36-6.58v-52.56c0-.79.64-1.43 1.43-1.43h247.81c.79 0 1.43.64 1.43 1.43v259.87c0 .79-.64 1.43-1.43 1.43h-144.8c-.46 0-.56.63-.12.78 22.21 7.4 41.79 20.57 57.02 37.69h87.35Z"></path><path d="M188.76 434.49h-65.78c-24.43 0-44.3-19.87-44.3-44.3v-72.48c0-24.43 19.87-44.3 44.3-44.3h183.23v-38.89h-183.1c-43.24 0-78.73 34.62-80.8 78.83v80.93c0 43.39 35.3 78.69 78.69 78.69h65.78c24.43 0 44.3 19.87 44.3 44.3v69.95h36.36v-74.03c0-43.39-35.3-78.69-78.69-78.69Z"></path><path d="M183.64 390.06h-62.63v-65.47h185.2v-45.24H122.98c-21.15 0-38.35 17.2-38.35 38.35v72.48c0 21.14 17.2 38.35 38.35 38.35h65.78c46.67 0 84.64 37.97 84.64 84.64v74.03h36.36v-71.02c0-69.55-56.58-126.13-126.13-126.13Z"></path></svg>