<svg data-name="Layer 1" xmlns="http://www.w3.org/2000/svg" viewBox="0 0 627.89 498.52"><path d="M315.19 371.28c-45.17 0-85.4 35.5-101.73 88.9l-13.44-2.84 13.45 41.18 28.94-32.24-12.61-2.66c14.41-45.54 48.04-75.7 85.39-75.7s70.84 30.08 85.31 75.43l-13.91 2.93 28.94 32.24 13.45-41.18-12.14 2.56c-16.37-53.2-56.65-88.62-101.65-88.62Z"></path><path d="M531.02 378.89c-62.13-46.06-138.13-71.27-215.83-71.27S161.5 332.83 99.36 378.89l-7.45-11.37L72.4 406.2l43.25-2.45-7.17-10.94c59.42-44.3 132.24-68.55 206.7-68.55s147.28 24.25 206.71 68.55l-7.17 10.94 43.25 2.45-19.51-38.68-7.45 11.37ZM312.7 127.24c45.17 0 85.41-35.5 101.73-88.89l13.45 2.84L414.42 0l-28.94 32.24 12.6 2.66c-14.4 45.53-48.04 75.7-85.39 75.7s-70.83-30.07-85.3-75.42l13.91-2.93L212.37 0l-13.45 41.18 12.14-2.56c16.37 53.2 56.64 88.62 101.64 88.62ZM590.37 270.92l37.52-21.66-37.52-21.66v13.34H37.52V227.6L0 249.26l37.52 21.66v-13.34h552.85v13.34z"></path><path d="M96.87 119.64C159 165.7 234.99 190.91 312.7 190.91s153.7-25.21 215.84-71.27l7.45 11.37 19.51-38.68-43.25 2.44 7.17 10.94c-59.42 44.3-132.24 68.55-206.71 68.55s-147.28-24.25-206.7-68.55l7.17-10.94-43.25-2.44 19.51 38.68 7.45-11.37Z"></path></svg>