<svg data-name="Layer 1" xmlns="http://www.w3.org/2000/svg" viewBox="0 0 614.47 614.48"><path d="M0 0v614.48h614.47V0H0Zm307.24 309.57c1.29 0 2.33-1.04 2.33-2.33v-60.32c32.24 1.24 58.1 27.78 58.1 60.32s-27.11 60.43-60.43 60.43-60.43-27.11-60.43-60.43 25.87-59.08 58.1-60.32v60.32c0 1.29 1.04 2.33 2.33 2.33Zm-2.33-67.3c-34.81 1.24-62.76 29.87-62.76 64.97s29.2 65.09 65.09 65.09 65.09-29.2 65.09-65.09-27.95-63.73-62.76-64.97v-56.93c66.2 1.26 119.69 55.4 119.69 121.9s-54.74 122.02-122.02 122.02-122.02-54.74-122.02-122.02 53.49-120.65 119.69-121.9v56.93Zm0-61.59c-68.77 1.26-124.35 57.49-124.35 126.56s56.82 126.68 126.67 126.68S433.9 377.09 433.9 307.24s-55.58-125.3-124.35-126.56v-56.99c100.17 1.25 181.28 83.09 181.28 183.55s-82.36 183.61-183.61 183.61-183.61-82.37-183.61-183.61 81.13-182.3 181.3-183.55v56.99Zm0-61.65c-102.73 1.25-185.93 85.18-185.93 188.21s84.46 188.27 188.26 188.27S495.5 411.05 495.5 307.24s-83.2-186.95-185.93-188.21V54.78c138.16 1.26 250.18 114 250.18 252.46S446.47 559.75 307.24 559.75 54.72 446.48 54.72 307.24 166.75 56.04 304.91 54.78v64.25ZM54.72 54.73h77.79c-30.35 21.07-56.73 47.44-77.79 77.79V54.73Zm0 505.03v-77.79c21.06 30.35 47.44 56.73 77.79 77.79H54.72Zm505.03 0h-77.79c30.35-21.06 56.73-47.44 77.79-77.79v77.79ZM481.96 54.73h77.79v77.79c-21.06-30.35-47.44-56.73-77.79-77.79Z"></path></svg>