<svg id="Layer_1" data-name="Layer 1" xmlns="http://www.w3.org/2000/svg" viewBox="0 0 608.51 604.59">   <path d="M498.33,221.48c60.75,0,110.18-49.43,110.18-110.18S559.09,1.12,498.33,1.12s-110.18,49.43-110.18,110.18,49.43,110.18,110.18,110.18Zm0-198.5c48.7,0,88.32,39.62,88.32,88.31s-39.62,88.32-88.32,88.32-88.32-39.62-88.32-88.32,39.62-88.31,88.32-88.31Z"></path>   <path d="M582.72,302.3c0,154.63-125.8,280.43-280.43,280.43S21.86,456.92,21.86,302.3,147.66,21.86,302.29,21.86V0C135.61,0,0,135.61,0,302.3s135.61,302.29,302.29,302.29,302.29-135.61,302.29-302.29h0s-21.86,0-21.86,0h0Z"></path>   <path d="M302.29,43.73c-142.57,0-258.56,115.99-258.56,258.57s115.99,258.56,258.56,258.56,258.56-115.99,258.56-258.56h0s-21.86,0-21.86,0h0c0,130.52-106.18,236.7-236.7,236.7s-236.7-106.18-236.7-236.7S171.78,65.59,302.29,65.59v-21.86Z"></path>   <path d="M302.29,87.46c-118.46,0-214.83,96.38-214.83,214.84s96.37,214.83,214.83,214.83,214.83-96.37,214.83-214.83h0s-21.86,0-21.86,0h0c0,106.41-86.56,192.97-192.97,192.97s-192.97-86.56-192.97-192.97S195.89,109.32,302.29,109.32v-21.86Z"></path>   <path d="M302.29,473.4c94.35,0,171.11-76.76,171.11-171.11h0s-21.86,0-21.86,0h0c0,82.29-66.95,149.24-149.24,149.24s-149.24-66.95-149.24-149.24,66.95-149.24,149.24-149.24v-21.86c-94.35,0-171.11,76.76-171.11,171.11s76.76,171.11,171.11,171.11Z"></path>   <path d="M196.78,302.3c0-58.18,47.33-105.52,105.51-105.52v-21.86c-70.23,0-127.38,57.14-127.38,127.38s57.14,127.38,127.38,127.38,127.38-57.14,127.38-127.38h0s-21.86,0-21.86,0h0c0,58.18-47.33,105.51-105.51,105.51s-105.51-47.33-105.51-105.51Z"></path> </svg>