<svg xmlns="http://www.w3.org/2000/svg" width="520.9" viewBox="0 0 520.9 626.3" height="626.3" xml:space="preserve" style="enable-background:new 0 0 520.9 626.3"><path d="M155.4 430.7c-6.5 0-13-2.7-17.6-8L5.8 271.3c-8.5-9.7-7.5-24.5 2.2-32.9 9.7-8.5 24.5-7.5 32.9 2.2L173 392c8.5 9.7 7.5 24.5-2.2 32.9-4.5 3.9-9.9 5.8-15.4 5.8zM171.4 271.3c8.5-9.7 7.4-24.5-2.3-32.9-9.7-8.5-24.5-7.5-32.9 2.3l-38.9 44.6 31 35.5 43.1-49.5zM5.7 390.4c-8.5 9.7-7.4 24.5 2.3 32.9 4.4 3.9 9.9 5.7 15.3 5.7 6.5 0 13-2.7 17.6-8l38.7-44.4-31-35.5-42.9 49.3zM116.3 222.6c0 14.9-12.1 27-27 27s-27-12.1-27-27 12.1-27 27-27 27 12.1 27 27z"></path><g><path d="M497.6 430.7c-6.5 0-13-2.7-17.6-8L348 271.3c-8.5-9.7-7.5-24.5 2.2-32.9 9.7-8.5 24.5-7.5 32.9 2.2l132 151.4c8.5 9.7 7.5 24.5-2.2 32.9-4.4 3.9-9.9 5.8-15.3 5.8zM513.5 271.3c8.5-9.7 7.4-24.5-2.3-32.9-9.7-8.5-24.5-7.5-32.9 2.3l-38.9 44.6 31 35.5 43.1-49.5zM347.9 390.4c-8.5 9.7-7.5 24.5 2.3 32.9 4.4 3.9 9.9 5.7 15.3 5.7 6.5 0 13-2.7 17.6-8l38.7-44.4-31-35.5-42.9 49.3zM458.5 222.6c0 14.9-12.1 27-27 27s-27-12.1-27-27 12.1-27 27-27 27 12.1 27 27z"></path></g><g><path d="M326.5 235.1c-6.5 0-13-2.7-17.6-8l-132-151.4c-8.5-9.7-7.5-24.5 2.2-32.9 9.7-8.5 24.5-7.5 32.9 2.3l132 151.3c8.5 9.7 7.5 24.5-2.2 32.9-4.4 3.9-9.9 5.8-15.3 5.8zM342.4 75.7c8.5-9.7 7.5-24.5-2.3-32.9-9.7-8.5-24.5-7.5-32.9 2.3l-38.9 44.6 31 35.5 43.1-49.5zM176.8 194.8c-8.5 9.7-7.5 24.5 2.3 32.9 4.4 3.8 9.9 5.7 15.3 5.7 6.5 0 13-2.7 17.6-8l38.7-44.4-31-35.5-42.9 49.3zM287.4 27c0 14.9-12.1 27-27 27s-27-12.1-27-27 12.1-27 27-27c15 0 27 12.1 27 27z"></path><g><path d="M326.5 626.3c-6.5 0-13-2.7-17.6-8L176.9 467c-8.5-9.7-7.5-24.5 2.2-32.9 9.7-8.5 24.5-7.5 32.9 2.2l132 151.4c8.5 9.7 7.5 24.5-2.2 32.9-4.4 3.8-9.9 5.7-15.3 5.7zM342.4 467c8.5-9.7 7.5-24.5-2.3-32.9-9.7-8.5-24.5-7.5-32.9 2.3L268.3 481l31 35.5 43.1-49.5zM176.8 586c-8.5 9.7-7.5 24.5 2.3 32.9 4.4 3.8 9.9 5.7 15.3 5.7 6.5 0 13-2.7 17.6-8l38.7-44.4-31-35.5-42.9 49.3zM287.4 418.2c0 14.9-12.1 27-27 27s-27-12.1-27-27 12.1-27 27-27c15 .1 27 12.1 27 27z"></path></g></g></svg>