<svg data-name="Layer 1" xmlns="http://www.w3.org/2000/svg" viewBox="0 0 611.2 400.24"><path d="M305.77 210.18c-18.19 0-32.99 14.8-32.99 32.99s14.8 33 32.99 33 33-14.8 33-33-14.8-32.99-33-32.99Z"></path><path d="M305.77 86.1c-86.61 0-157.07 70.46-157.07 157.07s70.46 157.07 157.07 157.07 157.07-70.46 157.07-157.07S392.38 86.1 305.77 86.1Zm0 262.07c-57.89 0-104.99-47.1-104.99-104.99s47.1-104.99 104.99-104.99 104.99 47.1 104.99 104.99-47.1 104.99-104.99 104.99Z"></path><path d="M305.77 146.7c-53.2 0-96.47 43.28-96.47 96.47s43.27 96.47 96.47 96.47 96.47-43.28 96.47-96.47-43.28-96.47-96.47-96.47Zm0 137.62c-22.68 0-41.14-18.46-41.14-41.14s18.46-41.14 41.14-41.14 41.14 18.46 41.14 41.14-18.46 41.14-41.14 41.14ZM232.38 94.78c-17.87-9.84-29.98-28.84-29.98-50.67 0-17.69 7.96-33.5 20.48-44.11-52.23 9.67-96.47 53.28-92.16 99.7 2.14 22.99 14.79 42.95 33.81 57.11 16.28-26.53 39.83-48.12 67.85-62.03ZM0 156.81c11.48 33.27 43 57.21 80.17 57.21s68.52-25.62 84.36-57.21H0ZM446.66 156.81c15.84 31.59 47.19 57.21 84.36 57.21s68.69-23.94 80.17-57.21H446.65Z"></path><path d="M480.47 99.7c4.32-46.42-39.93-90.03-92.16-99.7 12.52 10.61 20.48 26.42 20.48 44.11 0 21.84-12.12 40.84-29.98 50.67 28.02 13.91 51.56 35.5 67.85 62.03 19.03-14.16 31.67-34.12 33.81-57.11Z"></path></svg>