<svg data-name="Layer 1" xmlns="http://www.w3.org/2000/svg" viewBox="0 0 601.53 602.95"><path d="M96.44 0C43.67 0 .89 42.78.89 95.55s42.78 95.55 95.55 95.55 95.55-42.78 95.55-95.55S149.21 0 96.44 0Zm34.02 83.35c-12.79 0-23.16-10.37-23.16-23.16s10.37-23.16 23.16-23.16 23.16 10.37 23.16 23.16-10.37 23.16-23.16 23.16ZM301.21 0c-52.77 0-95.55 42.78-95.55 95.55s42.78 95.55 95.55 95.55 95.55-42.78 95.55-95.55S353.98 0 301.21 0Zm34.02 83.35c-12.79 0-23.16-10.37-23.16-23.16s10.37-23.16 23.16-23.16 23.16 10.37 23.16 23.16-10.37 23.16-23.16 23.16ZM505.98 191.1c52.77 0 95.55-42.78 95.55-95.55S558.75 0 505.98 0s-95.55 42.78-95.55 95.55 42.78 95.55 95.55 95.55ZM540 37.04c12.79 0 23.16 10.37 23.16 23.16S552.79 83.36 540 83.36s-23.16-10.37-23.16-23.16S527.21 37.04 540 37.04ZM301.21 205.92c-52.77 0-95.55 42.78-95.55 95.55s42.78 95.55 95.55 95.55 95.55-42.78 95.55-95.55-42.78-95.55-95.55-95.55Zm34.02 83.35c-12.79 0-23.16-10.37-23.16-23.16s10.37-23.16 23.16-23.16 23.16 10.37 23.16 23.16-10.37 23.16-23.16 23.16ZM95.55 205.92C42.78 205.92 0 248.7 0 301.47s42.78 95.55 95.55 95.55 95.55-42.78 95.55-95.55-42.78-95.55-95.55-95.55Zm34.02 83.35c-12.79 0-23.16-10.37-23.16-23.16s10.37-23.16 23.16-23.16 23.16 10.37 23.16 23.16-10.37 23.16-23.16 23.16ZM505.98 205.92c-52.77 0-95.55 42.78-95.55 95.55s42.78 95.55 95.55 95.55 95.55-42.78 95.55-95.55-42.78-95.55-95.55-95.55ZM540 289.27c-12.79 0-23.16-10.37-23.16-23.16s10.37-23.16 23.16-23.16 23.16 10.37 23.16 23.16-10.37 23.16-23.16 23.16ZM301.21 411.84c-52.77 0-95.55 42.78-95.55 95.55s42.78 95.55 95.55 95.55 95.55-42.78 95.55-95.55-42.78-95.55-95.55-95.55Zm34.02 83.35c-12.79 0-23.16-10.37-23.16-23.16s10.37-23.16 23.16-23.16 23.16 10.37 23.16 23.16-10.37 23.16-23.16 23.16ZM505.98 411.84c-52.77 0-95.55 42.78-95.55 95.55s42.78 95.55 95.55 95.55 95.55-42.78 95.55-95.55-42.78-95.55-95.55-95.55ZM540 495.19c-12.79 0-23.16-10.37-23.16-23.16s10.37-23.16 23.16-23.16 23.16 10.37 23.16 23.16-10.37 23.16-23.16 23.16ZM95.55 411.84C42.78 411.84 0 454.62 0 507.4s42.78 95.55 95.55 95.55 95.55-42.78 95.55-95.55-42.78-95.55-95.55-95.55Zm34.02 83.35c-12.79 0-23.16-10.37-23.16-23.16s10.37-23.16 23.16-23.16 23.16 10.37 23.16 23.16-10.37 23.16-23.16 23.16Z"></path></svg>