<svg xmlns="http://www.w3.org/2000/svg" width="627.4" viewBox="0 0 627.4 591.8" height="591.8" xml:space="preserve" style="enable-background:new 0 0 627.4 591.8"><path d="M281.8 236 196 110.2 220.3 0l92.8 66-31.3 22.3zM349.2 91.9v143l84.1-118.8L407.8 0l-62.1 43.2 48.7 34.7-24.3 28.7zM362.2 250.2l91.6-121.8 116.1-11.1-36 108-33.6-24zM520 259.9l-135.1 42.5 146.8 47.2 95.7-60.6-64-43.8-17.5 52-34.7-11zM380.1 321.8 527 370.2l47 107.5H452.5l11.6-34.9zM406.8 477.7 326.1 362v151.6l87.3 78.2 25.9-78.2h-62.9v-35.9zM305.7 362v151.6l-86.2 78.2-38.4-110.9h38.1zM167.2 440.6l84.7-116.9L106 373.8 61.8 479.5h84.8L124.5 421l30.6-11.8zM244.8 304.5 99.2 353.6 0 293.9l95.6-68 8.9 34.3zM131.4 207.4l130.5 39.1-83.4-121.4L60 121.4l26 75.7 50.1-35.7 21.2 27.1z"></path></svg>