<svg xmlns="http://www.w3.org/2000/svg" width="608.1" viewBox="0 0 608.1 499.9" height="499.9" xml:space="preserve"><path d="M358.2 0H221.1L0 167.8v41.3L224.3 38.9h133.9c116.4 0 211 94.7 211 211 0 18.6-2.4 36.6-7 53.8.2-4 .4-8 .4-12.1 0-114.8-93.4-208.2-208.2-208.2l-133.3-.2L0 251.1v41.3l224.3-170.2 130.1.2c93.3 0 169.3 75.9 169.3 169.3 0 2.8-.1 5.5-.2 8.2-15.5-75.8-82.8-133-163-133l-139.5-.3L0 334.4v41.3l224.3-170.2 136.1.3c70.3 0 127.6 57.2 127.6 127.6 0 9.9-1.2 19.5-3.3 28.8-6.4-63-59.7-112.4-124.4-112.4H221.1L0 417.6V459l224.3-170.3h136c47.5 0 86.1 38.6 86.1 86.1 0 42.4-30.8 77.7-71.2 84.8-6.8.8-13.7 1.3-20.8 1.3H0v38.9s366.8.2 370 0c132.3-6.2 238.1-116.1 238.1-249.9C608.1 112.1 496 0 358.2 0z"></path></svg>