<svg data-name="Layer 1" xmlns="http://www.w3.org/2000/svg" viewBox="0 0 602.4 602.39"><path d="M272.72 327.64h-6.78a16.557 16.557 0 0 1-10.47 10.47v6.77c4.95 1.65 8.82 5.52 10.47 10.47h6.78c1.63-4.86 5.39-8.69 10.22-10.39v-6.92c-4.83-1.7-8.6-5.53-10.22-10.4ZM272.72 289.47h-6.78a16.557 16.557 0 0 1-10.47 10.47v6.74c4.95 1.65 8.82 5.53 10.47 10.47h6.78c1.62-4.87 5.39-8.7 10.22-10.39v-6.89c-4.83-1.7-8.6-5.53-10.22-10.39ZM418.79 431.73h6.78c1.65-4.95 5.52-8.82 10.47-10.47v-6.74a16.557 16.557 0 0 1-10.47-10.47h-6.78a16.557 16.557 0 0 1-10.47 10.47v6.74c4.95 1.65 8.82 5.53 10.47 10.47ZM234.5 98.45h-6.78a16.534 16.534 0 0 1-10.47 10.47v6.78c4.95 1.65 8.82 5.53 10.47 10.47h6.78c1.62-4.87 5.39-8.7 10.22-10.4v-6.93c-4.83-1.7-8.6-5.53-10.22-10.39ZM272.72 251.26h-6.78a16.557 16.557 0 0 1-10.47 10.47v6.73c4.95 1.65 8.82 5.53 10.47 10.47h6.78c1.62-4.87 5.39-8.7 10.22-10.39v-6.89c-4.83-1.7-8.6-5.53-10.22-10.39ZM234.5 251.26h-6.78a16.534 16.534 0 0 1-10.47 10.47v6.73c4.95 1.65 8.82 5.53 10.47 10.47h6.78c1.62-4.87 5.39-8.7 10.22-10.39v-6.89c-4.83-1.7-8.6-5.53-10.22-10.39ZM418.79 469.94h6.78c1.65-4.95 5.52-8.82 10.47-10.47v-6.78a16.557 16.557 0 0 1-10.47-10.47h-6.78a16.557 16.557 0 0 1-10.47 10.47v6.78c4.95 1.65 8.82 5.53 10.47 10.47ZM234.5 289.47h-6.78a16.534 16.534 0 0 1-10.47 10.47v6.74c4.95 1.65 8.82 5.53 10.47 10.47h6.78c1.62-4.87 5.39-8.7 10.22-10.39v-6.89c-4.83-1.7-8.6-5.53-10.22-10.39ZM234.5 136.66h-6.78a16.534 16.534 0 0 1-10.47 10.47v6.74c4.95 1.65 8.82 5.53 10.47 10.47h6.78c1.62-4.87 5.39-8.7 10.22-10.39v-6.89c-4.83-1.7-8.6-5.53-10.22-10.39ZM196.29 251.26h-6.78c-1.65 4.95-5.54 8.89-10.47 10.55v6.63c4.94 1.66 8.82 5.59 10.47 10.54h6.77c1.64-4.96 5.52-8.86 10.49-10.51v-6.73a16.557 16.557 0 0 1-10.47-10.47ZM234.5 213.05h-6.78a16.534 16.534 0 0 1-10.47 10.47v6.78c4.95 1.65 8.82 5.53 10.47 10.47h6.78c1.62-4.87 5.39-8.7 10.22-10.39v-6.93c-4.83-1.7-8.6-5.53-10.22-10.39ZM234.5 174.88h-6.78a16.534 16.534 0 0 1-10.47 10.47v6.74c4.95 1.65 8.82 5.53 10.47 10.47h6.78c1.62-4.87 5.39-8.7 10.22-10.4v-6.89c-4.83-1.7-8.6-5.53-10.22-10.39ZM349.14 251.26h-6.78a16.557 16.557 0 0 1-10.47 10.47v6.73c4.95 1.65 8.82 5.53 10.47 10.47h6.78c1.63-4.87 5.39-8.7 10.23-10.39v-6.89c-4.83-1.7-8.6-5.53-10.23-10.39ZM387.36 213.05h-6.78a16.557 16.557 0 0 1-10.47 10.47v6.78c4.95 1.65 8.82 5.53 10.47 10.47h6.78a16.54 16.54 0 0 1 10.22-10.39v-6.93c-4.83-1.7-8.6-5.53-10.22-10.39ZM425.57 213.05h-6.78a16.557 16.557 0 0 1-10.47 10.47v6.78c4.95 1.65 8.82 5.53 10.47 10.47h6.78c1.62-4.87 5.39-8.7 10.22-10.39v-6.93c-4.83-1.7-8.6-5.53-10.22-10.39ZM425.57 251.26h-6.78a16.557 16.557 0 0 1-10.47 10.47v6.73c4.95 1.65 8.82 5.53 10.47 10.47h6.78a16.54 16.54 0 0 1 10.22-10.39v-6.89c-4.83-1.7-8.6-5.53-10.22-10.39Z"></path><path d="M301.2 0C134.85 0 0 134.85 0 301.2s134.85 301.2 301.2 301.2 301.2-134.85 301.2-301.2S467.54 0 301.2 0Zm156.73 169.63c0 7.4-4.86 13.59-11.53 15.76v6.66c6.67 2.17 11.53 8.36 11.53 15.76s-4.86 13.59-11.53 15.76v6.69c6.67 2.17 11.53 8.36 11.53 15.76s-4.86 13.59-11.53 15.76v6.65c6.67 2.17 11.53 8.36 11.53 15.75v.04c0 9.19-7.45 16.64-16.64 16.64-7.35 0-13.51-4.79-15.72-11.39h-6.78c-2.21 6.6-8.37 11.39-15.72 11.39s-13.51-4.79-15.72-11.39h-6.78a16.557 16.557 0 0 1-10.47 10.47v6.74c6.6 2.21 11.4 8.37 11.4 15.72 0 9.19-7.45 16.64-16.64 16.64-7.35 0-13.51-4.79-15.72-11.4h-6.78a16.557 16.557 0 0 1-10.47 10.47v6.77c6.61 2.2 11.4 8.37 11.4 15.71 0 9.19-7.45 16.64-16.64 16.64-7.35 0-13.51-4.79-15.72-11.4h-6.78a16.534 16.534 0 0 1-10.47 10.47v6.72c6.61 2.21 11.4 8.37 11.4 15.72v.04c0 7.35-4.79 13.51-11.4 15.72v6.74c4.95 1.65 8.82 5.53 10.47 10.47h6.78c2.21-6.6 8.37-11.4 15.72-11.4s13.51 4.79 15.72 11.4h6.78c2.21-6.6 8.37-11.4 15.72-11.4s13.51 4.79 15.72 11.4h6.78c1.65-4.95 5.53-8.82 10.47-10.47v-6.74c-6.6-2.21-11.4-8.37-11.4-15.72v-.04c0-9.19 7.45-16.64 16.64-16.64 7.35 0 13.51 4.79 15.72 11.4h6.78c2.21-6.6 8.37-11.4 15.72-11.4 9.19 0 16.64 7.45 16.64 16.64v.04c0 7.35-4.79 13.51-11.4 15.72v6.74c6.61 2.21 11.4 8.37 11.4 15.72s-4.79 13.51-11.4 15.72v6.78c6.61 2.21 11.4 8.37 11.4 15.72 0 9.19-7.45 16.64-16.64 16.64-7.35 0-13.51-4.79-15.72-11.4h-6.78c-2.21 6.6-8.37 11.4-15.72 11.4-9.19 0-16.64-7.45-16.64-16.64 0-7.35 4.79-13.51 11.4-15.72v-6.78a16.557 16.557 0 0 1-10.47-10.47h-6.78c-2.21 6.6-8.37 11.39-15.72 11.39s-13.51-4.79-15.72-11.39h-6.78c-2.21 6.6-8.37 11.39-15.72 11.39s-13.51-4.79-15.72-11.39h-6.78a16.534 16.534 0 0 1-10.47 10.47v6.78c6.61 2.21 11.4 8.37 11.4 15.72s-4.79 13.51-11.4 15.72v6.78c6.61 2.21 11.4 8.37 11.4 15.72 0 9.19-7.45 16.64-16.64 16.64s-16.64-7.45-16.64-16.64c0-7.35 4.79-13.51 11.4-15.72v-6.78c-6.6-2.21-11.4-8.37-11.4-15.72s4.79-13.51 11.4-15.72v-6.78a16.557 16.557 0 0 1-10.47-10.47h-6.78c-2.21 6.6-8.37 11.39-15.72 11.39s-13.51-4.79-15.72-11.39h-6.78c-2.21 6.6-8.37 11.39-15.72 11.39s-13.51-4.79-15.72-11.39h-6.78a16.557 16.557 0 0 1-10.47 10.47v6.78c6.6 2.21 11.4 8.37 11.4 15.72 0 9.19-7.45 16.64-16.64 16.64s-16.64-7.45-16.64-16.64c0-7.35 4.79-13.51 11.4-15.72v-6.78a16.557 16.557 0 0 1-10.47-10.47h-6.78c-2.21 6.6-8.37 11.39-15.72 11.39-9.19 0-16.64-7.45-16.64-16.64s7.45-16.64 16.64-16.64c7.35 0 13.51 4.79 15.72 11.4h6.78c1.65-4.95 5.52-8.82 10.47-10.47v-6.74c-6.61-2.21-11.4-8.37-11.4-15.72 0-9.19 7.45-16.64 16.64-16.64s16.64 7.45 16.64 16.64c0 7.35-4.79 13.51-11.4 15.72v6.74c4.95 1.65 8.82 5.53 10.47 10.47h6.78c2.21-6.6 8.37-11.4 15.72-11.4s13.51 4.79 15.72 11.4h6.78c2.21-6.6 8.37-11.4 15.72-11.4s13.51 4.79 15.72 11.4h6.78c1.65-4.95 5.53-8.82 10.47-10.47v-6.74c-6.6-2.21-11.4-8.37-11.4-15.72v-.04c0-7.26 4.67-13.36 11.15-15.64v-6.88c-4.83-1.7-8.6-5.53-10.22-10.4h-6.78c-2.21 6.61-8.37 11.4-15.72 11.4-9.19 0-16.64-7.45-16.64-16.64 0-7.25 4.67-13.36 11.15-15.64v-6.92c-4.83-1.7-8.6-5.53-10.22-10.4h-6.78c-2.21 6.6-8.37 11.4-15.72 11.4-9.19 0-16.64-7.45-16.64-16.64 0-7.35 4.79-13.51 11.4-15.72v-6.74a16.557 16.557 0 0 1-10.47-10.47h-6.78c-2.21 6.6-8.37 11.39-15.72 11.39-9.19 0-16.64-7.45-16.64-16.64 0-7.35 4.79-13.51 11.4-15.72v-6.78c-6.61-2.21-11.4-8.37-11.4-15.72 0-9.19 7.45-16.64 16.64-16.64 7.35 0 13.51 4.79 15.72 11.39h6.78c1.65-4.95 5.53-8.82 10.47-10.47v-6.78c-6.61-2.21-11.4-8.37-11.4-15.72s4.79-13.51 11.4-15.72v-6.74c-6.61-2.21-11.4-8.37-11.4-15.72v-.04c0-7.35 4.79-13.51 11.4-15.72v-6.74a16.557 16.557 0 0 1-10.47-10.47h-6.78c-2.21 6.6-8.37 11.4-15.72 11.4-9.19 0-16.64-7.45-16.64-16.64s7.45-16.64 16.64-16.64c7.35 0 13.51 4.79 15.72 11.4h6.78c1.65-4.95 5.53-8.82 10.47-10.47v-6.78c-6.61-2.21-11.4-8.37-11.4-15.72 0-9.19 7.45-16.64 16.64-16.64 7.35 0 13.51 4.79 15.72 11.39h6.78c2.21-6.6 8.37-11.39 15.72-11.39 9.19 0 16.64 7.45 16.64 16.64 0 7.35-4.79 13.51-11.4 15.72v6.78c6.61 2.21 11.4 8.37 11.4 15.72s-4.79 13.51-11.4 15.72v6.74c6.61 2.21 11.4 8.37 11.4 15.72v.04c0 7.35-4.79 13.51-11.4 15.72v6.74c6.61 2.21 11.4 8.37 11.4 15.72s-4.79 13.51-11.4 15.72v6.78c4.95 1.65 8.82 5.53 10.47 10.47h6.78c2.21-6.6 8.37-11.4 15.72-11.4s13.51 4.79 15.72 11.4h6.78c2.21-6.6 8.37-11.4 15.72-11.4s13.51 4.79 15.72 11.4h6.78a16.54 16.54 0 0 1 10.22-10.39v-6.93c-6.48-2.28-11.15-8.38-11.15-15.64 0-9.19 7.45-16.64 16.64-16.64 7.35 0 13.51 4.79 15.72 11.4h6.78c1.63-4.87 5.39-8.7 10.22-10.4v-6.89c-6.48-2.28-11.15-8.38-11.15-15.64v-.04c0-9.19 7.45-16.64 16.64-16.64 7.35 0 13.51 4.79 15.72 11.4h6.78c2.21-6.6 8.37-11.4 15.72-11.4 9.19 0 16.64 7.45 16.64 16.64v.04Z"></path><path d="M425.57 174.88h-6.78a16.557 16.557 0 0 1-10.47 10.47v6.74c4.95 1.65 8.82 5.53 10.47 10.47h6.78c1.62-4.87 5.39-8.7 10.22-10.4v-6.89c-4.83-1.7-8.6-5.53-10.22-10.39ZM349.14 289.47h-6.78a16.557 16.557 0 0 1-10.47 10.47v6.74c4.95 1.65 8.82 5.53 10.47 10.47h6.78c1.63-4.87 5.39-8.7 10.23-10.39v-6.89c-4.83-1.7-8.6-5.53-10.22-10.39ZM387.36 251.26h-6.78a16.557 16.557 0 0 1-10.47 10.47v6.73c4.95 1.65 8.82 5.53 10.47 10.47h6.78a16.54 16.54 0 0 1 10.22-10.39v-6.89c-4.83-1.7-8.6-5.53-10.22-10.39ZM310.93 289.47h-6.78a16.534 16.534 0 0 1-10.47 10.47v6.74c4.95 1.65 8.82 5.53 10.47 10.47h6.78a16.54 16.54 0 0 1 10.22-10.39v-6.89c-4.83-1.7-8.6-5.53-10.22-10.39ZM310.93 251.26h-6.78a16.534 16.534 0 0 1-10.47 10.47v6.73c4.95 1.65 8.82 5.53 10.47 10.47h6.78a16.54 16.54 0 0 1 10.22-10.39v-6.89c-4.83-1.7-8.6-5.53-10.22-10.39ZM310.93 327.64h-6.78a16.534 16.534 0 0 1-10.47 10.47v6.77c4.94 1.65 8.82 5.52 10.47 10.47h6.78c1.63-4.86 5.39-8.69 10.22-10.39v-6.92c-4.83-1.7-8.6-5.53-10.22-10.4Z"></path></svg>