<svg data-name="Layer 1" xmlns="http://www.w3.org/2000/svg" viewBox="0 0 615.97 556.68"><path d="M228.33 246.87c0-.16-.01-.31-.01-.46v.93c0-.16.01-.31.01-.46Z"></path><path d="M228.08 246.86c.25-43.98 36.24-79.76 80.21-79.76s79.97 35.79 80.21 79.78v7.34h5.91V86.13C394.42 38.64 355.79 0 308.29 0s-86.13 38.64-86.13 86.13v168.1h5.91v-7.36ZM613.01 448.48c-5.94-22.3-20.12-40.9-39.95-52.39l-145.45-84.27-2.97 5.12 6.37 3.69c37.93 22.27 50.84 71.34 28.8 109.39-14.27 24.63-40.95 39.93-69.63 39.93-13.88 0-27.57-3.64-39.61-10.53l-6.35-3.68-2.97 5.12 145.45 84.28c13.03 7.55 27.87 11.54 42.93 11.54 30.79 0 59.44-16.43 74.77-42.88 11.49-19.82 14.54-43.02 8.6-65.31ZM265.45 459.24c-11.95 6.76-25.53 10.33-39.27 10.33-28.83 0-55.58-15.43-69.82-40.26-21.87-38.16-8.72-87.18 29.33-109.27l6.36-3.65-2.94-5.13-145.83 83.6c-41.2 23.62-55.51 76.35-31.89 117.55 15.29 26.67 44.01 43.23 74.97 43.23 14.92 0 29.64-3.92 42.58-11.34l145.84-83.59-2.94-5.13-6.39 3.66ZM351.46 313.85c-12.44 8.03-27.25 12.72-43.16 12.72s-30.75-4.69-43.19-12.74l-2.79 4.84c13.11 6.75 24.51 17.2 32.44 30.92 8.05 13.93 11.4 29.27 10.57 44.22h5.59c-.79-14.87 2.55-30.14 10.55-44 7.99-13.85 19.52-24.38 32.79-31.13l-2.79-4.82Z"></path></svg>