<svg xmlns="http://www.w3.org/2000/svg" width="591.6" viewBox="0 0 591.6 592.4" height="592.4"><path d="M88.3 506.6c10.8 10.6 22.4 20.5 34.8 29.4l150.5-150.5v206.1c7.3.5 14.8.8 22.3.8 7.8 0 15.5-.3 23.1-.9v-206l150 150.1c12.3-8.9 23.9-18.8 34.7-29.4L296.2 298.6l-207.9 208zM306.1 288.5L513.6 496c10.3-11.2 19.7-23.2 28.2-35.9L338.2 256.4l-32.1 32.1zM348.2 246.4l201.4 201.4c8.2-13.6 15.3-28 21.2-42.9L380.3 214.3l-32.1 32.1zM390.3 204.3l185.9 185.9c5.6-16.7 9.8-34 12.3-51.8L422.4 172.2l-32.1 32.1zM588.7 254.4L464.5 130.2l-32.1 32.1 158.2 158.2c.7-8.1 1-16.3 1-24.6 0-14.2-1-28-2.9-41.5zM461.1 50.5L50.5 461.1c8.5 12.6 18 24.6 28.4 35.8l418-418c-11.2-10.4-23.1-19.9-35.8-28.4zM406.2 21.3L21.3 406.2c6 14.9 13.2 29.2 21.4 42.8L448.9 42.7c-13.6-8.3-27.9-15.4-42.7-21.4zM340 3.3L3.3 340c2.7 17.8 6.9 35 12.6 51.6L391.5 15.8C375 10.2 357.7 5.9 340 3.3zM295.8 0c-13.3 0-26.5.9-39.4 2.6L2.6 256.4C.9 269.3 0 282.4 0 295.8c0 8.8.4 17.6 1.1 26.2L322 1.1C313.4.4 304.6 0 295.8 0zM105.5 69.3l-36.2 36.2c-30.2 35.9-52 79.1-62.4 126.6L232.1 6.9c-47.5 10.4-90.7 32.2-126.6 62.4zM584.2 229.8c-12.4-54.5-39.9-103.2-77.8-141.6l-31.9 31.9 109.7 109.7z"></path></svg>