<svg id="Layer_1" data-name="Layer 1" xmlns="http://www.w3.org/2000/svg" viewBox="0 0 600.31 519.92"><defs></defs><path class="cls-1" d="M303.18 58.61V238.4a178.1 178.1 0 0 1 2.97-4.57V51.59l-2.97 7.02ZM309.12 45.59v183.94c.93-1.31 1.92-2.66 2.97-4.05V40.41a95.94 95.94 0 0 0-2.97 5.18ZM315.05 35.88v185.8c.96-1.19 1.94-2.39 2.97-3.58V31.91a83.59 83.59 0 0 0-2.97 3.97ZM320.99 28.42v186.37c.97-1.04 1.96-2.06 2.97-3.06V25.32a71.716 71.716 0 0 0-2.97 3.09ZM326.92 22.62v186.31c.98-.88 1.97-1.72 2.97-2.53V20.22c-1.02.77-2.01 1.58-2.97 2.4ZM332.86 18.12v186.03c.98-.7 1.97-1.34 2.97-1.94V16.3c-1.01.58-2.01 1.19-2.97 1.82ZM338.79 14.71v185.83c1-.52 1.99-1.02 2.97-1.48V13.34c-1.01.43-2 .89-2.97 1.37ZM344.73 12.18v185.57c1-.42 1.99-.79 2.97-1.14V11.21c-1.01.3-2 .62-2.97.97ZM351.49 10.21c-.28.06-.55.14-.83.21v185.19c1-.31 1.99-.6 2.97-.85V9.78c-.74.14-1.46.28-2.14.43ZM356.6 9.27v184.82c1-.21 1.99-.39 2.97-.54V8.85c-1.02.13-2.01.27-2.97.42ZM362.53 8.5v184.63c1-.11 1.99-.2 2.97-.28V8.19c-1.01.1-2 .2-2.97.31ZM368.46 7.92v184.76c1-.04 1.98-.06 2.97-.07V7.69c-1 .07-1.99.15-2.97.23ZM374.4 7.49v185.16c.99.01 1.98.04 2.97.07V7.3l-2.97.18ZM380.33 7.14V192.8l2.97.12V6.99l-2.97.15ZM386.27 6.85v186.2c.28.01.56.03.85.04.59.02 1.32.03 2.12.04V6.72c-.99.04-1.98.08-2.97.13ZM392.2 6.6v186.52c.93-.01 1.92-.03 2.97-.05V6.49c-.98.04-1.97.07-2.97.11ZM398.14 6.38v186.6c.96-.03 1.95-.06 2.97-.1V6.27c-.98.04-1.97.07-2.97.11ZM404.07 6.12v186.64c.98-.04 1.97-.09 2.97-.14V5.89c-.99.09-1.98.17-2.97.23ZM410.01 5.58v186.88c.99-.06 1.98-.11 2.97-.18V5.2c-.98.14-1.97.27-2.97.38ZM415.94 4.74v187.35c1-.07 1.99-.14 2.97-.22V4.23c-.97.18-1.96.35-2.97.51ZM421.88 3.66v187.96c1.02-.09 2.01-.19 2.97-.29V3.04c-.95.21-1.94.42-2.97.62ZM427.81 2.37v188.62c1.06-.13 2.06-.27 2.97-.41V1.64c-.91.23-1.89.48-2.97.73ZM433.74 190.03c1.25-.29 2.14-.59 2.56-.91L436.71.01l-2.97.85v189.17ZM300.16 239.4c0 1.12-1.46 1.54-2.05.58-5.18-8.44-19.49-30.06-35-38.61-19.47-10.72-34.52-8.85-49.92-8.29-9.06.33-45.68-1.28-49.19-3.98L163.6 0s18.13 5.63 35.01 6.25c16.88.63 38.08 1.27 50.22 3.96 33.06 7.33 45.71 40.75 50.56 54.49.52 1.49.78 3.04.78 4.62V239.4ZM479.76 374.97l-155.7-89.89c.74 1.39 1.57 3.03 2.47 4.86l157.82 91.12-4.59-6.08ZM488.07 386.62l-159.3-91.97c.67 1.46 1.34 3 2.02 4.59l160.28 92.54c-.97-1.79-1.98-3.52-3-5.16ZM493.51 396.62l-160.91-92.9c.55 1.43 1.1 2.88 1.61 4.36l161.25 93.1a78.09 78.09 0 0 0-1.95-4.56ZM497 405.49 335.59 312.3c.42 1.36.8 2.73 1.17 4.1l161.44 93.2c-.36-1.4-.76-2.77-1.19-4.12ZM499.06 413.53l-161.35-93.16c.27 1.29.51 2.56.71 3.84l161.23 93.09c-.16-1.27-.36-2.53-.59-3.77ZM499.99 420.92 338.88 327.9c.11 1.2.18 2.38.2 3.54l161.01 92.96c0-1.17-.02-2.33-.09-3.48ZM499.97 427.76l-160.94-92.92a69.1 69.1 0 0 1-.21 3.31l160.84 92.86c.13-1.09.23-2.18.3-3.25ZM499.2 434.17l-160.71-92.79a71.28 71.28 0 0 1-.49 3.14l160.56 92.7c.25-1.02.46-2.04.64-3.06ZM497.52 441.01c.09-.28.15-.55.23-.82l-160.38-92.6c-.23 1.02-.48 2.02-.75 2.99l160.2 92.49c.25-.71.48-1.4.7-2.07ZM495.78 445.9l-160.06-92.41c-.32.97-.66 1.92-1.01 2.84l159.95 92.35c.39-.95.77-1.88 1.12-2.78ZM493.48 451.42l-159.9-92.32c-.4.92-.82 1.82-1.24 2.71l159.93 92.33c.42-.92.83-1.83 1.22-2.72ZM491.01 456.85 331 364.47c-.46.88-.94 1.75-1.43 2.6l160.15 92.46c.44-.9.86-1.8 1.28-2.69ZM488.43 462.21l-160.36-92.58c-.51.85-1.02 1.7-1.55 2.54l160.58 92.71c.45-.89.89-1.78 1.33-2.66ZM485.76 467.52l-160.79-92.83c-.53.84-1.06 1.67-1.59 2.51l161.03 92.97c.45-.88.91-1.76 1.35-2.65ZM483.04 472.81l-161.26-93.1-.45.72c-.31.5-.69 1.13-1.09 1.82l161.43 93.2c.46-.88.92-1.75 1.37-2.63ZM480.29 478.07l-161.52-93.26c-.45.81-.93 1.67-1.44 2.6l161.58 93.29c.46-.87.92-1.75 1.39-2.63ZM477.51 483.32l-161.6-93.3c-.45.85-.92 1.72-1.4 2.62l161.61 93.3c.46-.86.92-1.74 1.39-2.62ZM474.77 488.59l-161.63-93.32c-.45.87-.91 1.75-1.36 2.64l161.71 93.37c.42-.9.84-1.8 1.28-2.69ZM472.27 494l-161.85-93.44c-.45.89-.89 1.77-1.33 2.66l162.03 93.55c.37-.92.75-1.84 1.15-2.76ZM470.03 499.56l-162.24-93.67c-.44.9-.87 1.8-1.29 2.68l162.49 93.82c.33-.93.68-1.87 1.04-2.83ZM468 505.24l-162.77-93.98c-.43.93-.84 1.84-1.24 2.71l163.06 94.14c.29-.93.61-1.89.94-2.88ZM466.15 511.02 302.8 416.71c-.42.99-.8 1.92-1.13 2.78l163.63 94.47c.26-.91.53-1.88.85-2.94ZM300.67 422.33c-.38 1.23-.56 2.15-.49 2.67l163.57 94.91s.25-1.12.75-3l-163.83-94.59Z"></path><path class="cls-1" d="M324.7 281.96c-.97-.56-.6-2.03.52-2.06 9.89-.26 35.78-1.85 50.93-11.01 19.02-11.5 24.92-25.48 32.14-39.08 4.25-8.01 23.95-38.92 28.04-40.61l163.98 94.2s-13.94 12.89-22.92 27.19c-8.98 14.3-20.14 32.34-28.54 41.51-22.88 24.97-58.15 19.21-72.47 16.54-1.55-.29-3.02-.85-4.39-1.64l-147.3-85.04ZM117.52 369.73l155.7-89.89c-1.57-.06-3.41-.15-5.44-.29l-157.82 91.12 7.56-.94ZM103.28 371.1l159.3-91.97c-1.6-.15-3.27-.33-4.99-.55L97.31 371.12c2.04.05 4.04.05 5.97-.02ZM91.9 370.81l160.91-92.9c-1.51-.24-3.04-.49-4.58-.78l-161.25 93.1c1.65.25 3.3.44 4.92.59ZM82.47 369.4l161.41-93.19c-1.39-.32-2.77-.67-4.13-1.04l-161.44 93.2c1.39.39 2.78.73 4.16 1.02ZM74.48 367.16 235.83 274c-1.25-.41-2.48-.84-3.68-1.3L70.92 365.79c1.18.5 2.37.95 3.56 1.37ZM67.62 364.27l161.11-93.02c-1.09-.5-2.15-1.04-3.17-1.6L64.55 362.61c1.01.59 2.03 1.14 3.06 1.66ZM61.7 360.84l160.94-92.92c-.95-.6-1.88-1.21-2.76-1.83L59.03 358.95c.88.66 1.77 1.29 2.67 1.89ZM56.54 356.97l160.71-92.79c-.86-.66-1.68-1.33-2.48-2l-160.56 92.7c.76.73 1.54 1.42 2.32 2.09ZM51.45 352.09c.19.21.4.41.59.61l160.38-92.6c-.77-.71-1.51-1.42-2.22-2.15l-160.19 92.5c.49.57.97 1.12 1.44 1.64ZM48.09 348.14l160.06-92.41c-.68-.76-1.33-1.53-1.96-2.3L46.24 345.78c.62.82 1.24 1.61 1.85 2.36ZM44.45 343.39l159.9-92.32c-.6-.81-1.17-1.62-1.72-2.43L42.7 340.97c.59.83 1.17 1.63 1.75 2.42ZM40.99 338.53 201 246.15c-.53-.84-1.04-1.69-1.54-2.54L39.3 336.08c.56.83 1.13 1.65 1.69 2.45ZM37.64 333.61 198 241.03c-.48-.87-.96-1.74-1.42-2.61L36 331.13c.55.83 1.1 1.66 1.64 2.48ZM34.37 328.65l160.79-92.83c-.46-.88-.92-1.75-1.38-2.63L32.76 326.15c.54.83 1.07 1.67 1.61 2.5ZM31.15 323.65l161.26-93.1-.39-.75c-.27-.52-.63-1.16-1.03-1.85l-161.43 93.2c.53.83 1.06 1.67 1.59 2.51ZM27.97 318.64l161.52-93.26c-.47-.8-.98-1.65-1.53-2.54L26.39 316.12c.52.83 1.05 1.67 1.58 2.51ZM24.81 313.61l161.6-93.3c-.51-.82-1.03-1.66-1.57-2.52l-161.6 93.3c.52.83 1.05 1.67 1.58 2.52ZM21.62 308.6l161.63-93.32c-.53-.83-1.06-1.66-1.6-2.5L19.94 306.14c.57.81 1.14 1.63 1.68 2.46ZM18.19 303.73l161.85-93.44c-.54-.83-1.09-1.66-1.64-2.48L16.37 301.35c.61.78 1.22 1.57 1.82 2.38ZM14.5 299.01l162.24-93.67c-.56-.83-1.12-1.65-1.68-2.46L12.57 296.69c.64.75 1.28 1.52 1.93 2.31ZM10.59 294.41l162.77-93.98c-.59-.84-1.17-1.65-1.73-2.43L8.57 292.15c.66.72 1.33 1.47 2.02 2.26ZM6.5 289.92l163.35-94.31c-.65-.86-1.26-1.65-1.84-2.37L4.38 287.71c.66.68 1.36 1.4 2.12 2.2ZM166.05 190.95c-.87-.94-1.59-1.56-2.07-1.76L0 283.39s.84.78 2.22 2.14l163.83-94.59ZM275.61 281.95c.97-.56 2.06.5 1.53 1.48-4.72 8.7-16.29 31.91-15.93 49.62.45 22.23 9.6 34.32 17.78 47.38 4.81 7.69 21.73 40.2 21.15 44.59l-163.57 94.91s-4.19-18.51-12.09-33.44c-7.9-14.93-17.94-33.61-21.68-45.47-10.18-32.3 12.44-59.96 21.91-71.03 1.02-1.2 2.25-2.2 3.61-2.98l147.29-85.05Z"></path><circle class="cls-1" cx="300.14" cy="267.92" r="11.03"></circle></svg>