<svg xmlns="http://www.w3.org/2000/svg" width="572.4" viewBox="0 0 572.4 501" height="501"><path d="M277 499.8c8.6.8 17.4 1.3 26.2 1.3C405 501 493.6 444.4 539.3 361c-13.1 2.6-26.6 4-40.4 4-84.7 0-157.3-52-187.6-125.8-35.5 42.8-56.8 97.7-56.8 157.6 0 36.7 8 71.6 22.5 103zm-241.8-244c26.9 43.6 75.1 72.7 130 72.7 29.6 0 57.2-8.4 80.6-23-9.9 28-15.3 58.1-15.3 89.4 0 35.7 7 69.8 19.6 100.9-115.5-23.1-204.4-120.4-214.9-240zm293.1-35.1c24.3 70.9 91.5 121.9 170.6 121.9 18.4 0 36.2-2.8 53-7.9C565 303 572.2 268.3 572.2 232c0-22.5.3-51.1 0-72v.1c-22.4-6.7-46.2-10.3-70.8-10.3-67.4-.1-128.5 27-173.1 70.9zM34.1 0h195.5c37 1.4 66.6 31.9 66.6 69.2V175.5c0 72.3-58.7 131-131 131s-131-58.7-131-131V42.1C34.1 24.5 20.8 10 3.7 8.2 1.6 8 0 6.2 0 4.1V4c0-1 .4-2.1 1.2-2.8C1.9.4 2.9 0 4 0h30.1zm421.5 188.1c-26 0-47 21.1-47 47 0 26 21.1 47 47 47 26 0 47-21.1 47-47s-21-47-47-47zm0 22.3c13.7 0 24.8 11.1 24.8 24.8 0 13.7-11.1 24.8-24.8 24.8-13.7 0-24.8-11.1-24.8-24.8.1-13.7 11.1-24.8 24.8-24.8zM384.9 0c-37 1.4-66.6 31.8-66.6 69.2v126.9l66.6-51.4V0zm187.3 135.8l-19.6-4.7c-17.2-3.5-34.9-5.3-53.1-5.3-20.4 0-40.3 2.3-59.4 6.6l132.1-102v105.4zM130.5 36.5c-26 0-47 21.1-47 47 0 26 21.1 47 47 47 26 0 47-21.1 47-47 .1-25.9-21-47-47-47zM475.2 75V0h-67.6v125.8h1.7L475.2 75zM130.5 58.8c13.7 0 24.8 11.1 24.8 24.8 0 13.7-11.1 24.8-24.8 24.8s-24.8-11.1-24.8-24.8c.1-13.8 11.2-24.8 24.8-24.8zM572.3 0l-74.6 57.6V0h74.6z" fill-rule="evenodd" clip-rule="evenodd"></path></svg>