<svg data-name="Layer 1" xmlns="http://www.w3.org/2000/svg" viewBox="0 0 623.03 623.07"><path d="M401.92 444.68c13.26 64.6-17.17 131.99-76.69 160.39-22.92 10.94-46.31 14.61-68.75 13.06 17.87 3.19 36.23 4.94 55.01 4.94 165.84 0 301.37-129.6 310.94-293.04H378.38l23.53 114.65Z"></path><path d="m297.64 540.82-40.99-199.74a21.568 21.568 0 0 0-20.21-17.21L0 313.19C.78 462.9 107.13 587.63 248.43 616.68c34.15-7.61 56.27-41.45 49.21-75.86ZM375.77 317.3h247.11c.04-1.93.15-3.83.15-5.77 0-2.34-.12-4.64-.18-6.96H373.16l2.61 12.73ZM327.68 82.97l42.87 208.88h251.8C613.57 151.18 511.49 35.86 377.23 7.01c-34.35 7.46-56.62 41.44-49.54 75.96Z"></path><path d="M65.28 297.08c6.39 0 11.76 3.35 15.05 8.27l148.4-8.04c9.86-.53 16.94-9.71 14.95-19.38L223.4 179.1c-13.26-64.6 17.18-131.99 76.69-160.38C324.29 7.17 349 3.78 372.58 6.03A312.887 312.887 0 0 0 311.49 0C140.2 0 1.24 138.26.02 309.27l49.23-2.24c3.09-5.85 8.93-9.95 16.03-9.95Z"></path></svg>