<svg xmlns="http://www.w3.org/2000/svg" width="642" viewBox="0 0 642 641.58" height="641.58" data-name="Layer 1"><path d="M626.59 335.77c-19.71-8.48-42.63-5.86-60.39 7.92-21.83 16.94-51.9 16.98-73.78 0-21.92-17.01-51.81-17.05-73.78 0-21.83 16.94-51.9 16.98-73.78 0-6.9-6.88-16.42-9.86-24.06-11.14v25.18c7.64 1.28 17.16 4.26 24.06 11.14 21.83 16.94 51.9 16.98 73.78 0 21.92-17.01 51.81-17.05 73.78 0 21.83 16.94 51.9 16.98 73.78 0 11.84-9.19 26.01-13.42 39.99-12.69l-285.4 285.4L0 320.79 320.79 0l244.05 244.05c-21.71 15.92-50.99 15.61-72.43-1.02-21.92-17.01-51.81-17.05-73.78 0-21.83 16.94-51.9 16.98-73.78 0-6.9-6.88-16.42-9.86-24.06-11.14v25.18c7.64 1.28 17.16 4.26 24.06 11.14 21.83 16.94 51.9 16.98 73.78 0 21.92-17.01 51.81-17.05 73.78 0 21.83 16.94 51.9 16.98 73.78 0 4.53-3.51 9.39-6.3 14.46-8.36l20.75 20.76c-12.39.35-24.7 4.6-35.21 12.75-21.83 16.94-51.9 16.98-73.78 0-21.92-17.01-51.81-17.05-73.78 0-21.83 16.94-51.9 16.98-73.78 0-6.9-6.88-16.42-9.86-24.06-11.14v25.18c7.64 1.28 17.16 4.26 24.06 11.14 21.83 16.94 51.9 16.98 73.78 0 21.92-17.01 51.81-17.05 73.78 0 21.83 16.94 51.9 16.98 73.78 0 21.12-16.39 52.42-18.28 75.8 1.83l-15.41 15.4Z" style="stroke-width:0"></path></svg>