<svg data-name="Layer 1" xmlns="http://www.w3.org/2000/svg" viewBox="0 0 610.54 610.54"><path d="M529.24 315.28H343.63c-15.59 0-28.35 12.76-28.35 28.35v185.61c0 44.72 36.59 81.3 81.3 81.3 44.72 0 81.3-36.59 81.3-81.3v-51.35h49.16c45.32 0 84.1-37.08 83.49-82.4-.59-44.22-36.95-80.2-81.3-80.2ZM266.91 315.28H81.3c-44.71 0-81.3 36.59-81.3 81.31s36.59 81.3 81.3 81.3h51.35v49.16c0 45.32 37.08 84.1 82.4 83.49 44.22-.59 80.2-36.95 80.2-81.3V343.63c0-15.59-12.76-28.35-28.35-28.35Z"></path><circle cx="304.61" cy="196.83" r="25.96" transform="rotate(-45 304.60843554 196.82705479)"></circle><path d="M371.79 303.37c1.83.59 1.46.45 0-.1v.1ZM529.24 132.65h-51.35V83.49c0-45.32-37.08-84.09-82.4-83.49-44.22.59-80.2 36.95-80.2 81.3v48.26c31.98 5.63 56.51 33.65 56.51 67.19v76.34c0 12.24 9.92 22.16 22.16 22.16h135.29c44.72 0 81.3-36.59 81.3-81.3 0-44.72-36.59-81.3-81.3-81.3ZM81.3 295.26h131.76c12.24 0 22.16-9.92 22.16-22.16v-58.9h-33.85v-17.37h33.85v-.07c0-34.76 26.34-63.62 60.04-67.73V81.31c0-44.72-36.59-81.31-81.3-81.31-44.72 0-81.3 36.59-81.3 81.3v51.35H83.5c-45.33 0-84.1 37.08-83.5 82.4.59 44.22 36.95 80.2 81.3 80.2Z"></path></svg>