<svg data-name="Layer 1" xmlns="http://www.w3.org/2000/svg" viewBox="0 0 624.45 550.54"><path d="M498.89 53.88C446.87 20.04 382.52 0 312.83 0 171.84 0 52.63 81.94 13.4 194.6c87.9 1.3 342.87-7.35 485.49-140.72Z"></path><path d="M582.83 135.9c-11.26-16.82-24.46-32.52-39.39-46.8C408.88 204.57 131.77 217.8 23.32 218.5H6.41c-.9 3.77-1.67 7.59-2.4 11.42h19c109.71 0 395.57-1.81 559.83-94.02Z"></path><path d="M624.45 248.32c-2.52-22.78-8.21-44.74-16.66-65.55-154.85 61.22-377.81 68.91-524.02 70.48H.8c-.35 3.93-.63 7.88-.8 11.86h200.87s309.29 1.38 423.58-16.79ZM200.87 288.07H0c.16 3.98.44 7.93.8 11.86h82.97c146.21 1.57 369.17 9.25 524.02 70.48 8.45-20.81 14.14-42.77 16.66-65.55-114.29-18.17-423.58-16.79-423.58-16.79ZM14.43 358.8c40.24 111.18 158.6 191.74 298.41 191.74 68.87 0 132.51-19.6 184.21-52.72C354.61 366.57 102.84 357.58 14.43 358.8Z"></path><path d="M4.59 323.49c.77 3.83 1.62 7.64 2.57 11.42h16.16c108.02.7 383.35 13.82 518.5 128.03 14.96-14.1 28.27-29.55 39.62-46.17C416.97 325.31 132.41 323.5 23 323.5H4.59Z"></path></svg>