<svg data-name="Layer 1" xmlns="http://www.w3.org/2000/svg" viewBox="0 0 608.23 564"><path d="M446.44 239.14c43.37-13.5 74.32-54.18 74.32-100.82 0-58.27-47.4-105.67-105.67-105.67-31.39 0-60.95 13.84-81.11 37.98l-3.61 4.33v441.06l4.97 4.61c30.13 27.97 69.36 43.38 110.45 43.38 89.56 0 162.43-72.87 162.43-162.43S535.7 239.51 446.44 239.15Zm-.65 293.79c-31.02 0-60.72-10.85-84.35-30.69V86.52c14.04-14.55 33.31-22.8 53.66-22.8 41.14 0 74.6 33.47 74.6 74.6 0 37.08-27.71 68.82-64.46 73.82l-13.44 1.83v59.51l17.47-2.19c5.69-.71 11.25-1.07 16.53-1.07 72.44 0 131.36 58.93 131.36 131.36S518.23 532.94 445.8 532.94ZM193.13 32.65c-58.27 0-105.67 47.4-105.67 105.67 0 46.65 30.95 87.32 74.32 100.82C72.52 239.5 0 312.22 0 401.57S72.87 564 162.43 564c41.09 0 80.32-15.41 110.45-43.38l4.97-4.61V74.95l-3.61-4.33c-20.16-24.14-49.72-37.98-81.11-37.98Zm53.65 469.59c-23.63 19.84-53.33 30.69-84.35 30.69C90 532.93 31.07 474 31.07 401.57S90 270.21 162.43 270.21c5.36 0 10.77.35 16.53 1.07l17.47 2.19v-59.51l-13.44-1.83c-36.75-5-64.46-36.73-64.46-73.82 0-41.14 33.47-74.6 74.6-74.6 20.35 0 39.61 8.25 53.65 22.8v415.72Z"></path><path d="M333.97 29.86C333.97 13.37 320.6 0 304.11 0s-29.86 13.37-29.86 29.86c0 10.79 5.75 20.22 14.33 25.47v506.1h31.07V55.33c8.58-5.25 14.33-14.67 14.33-25.47Z"></path></svg>