<svg xmlns="http://www.w3.org/2000/svg" width="598" viewBox="0 0 598 598" height="598" xml:space="preserve"><path d="M375 0v.2L207.4 167.7l-.2-28.7L0 346.2V375l223.1 223H374c123.7 0 224-100.3 224-224V223.1L375 0zm0 375H265.3l33-33v29l76.6-76.6V375zm0-138.7-49.7 49.4V257L207.4 375h-60.7l92.4-92.3v29.1l135.9-136v60.5zm0-118.6L266.2 226.5l-.2-28.7L88.8 375H29.1l151.1-151.1V253L375 58.1v59.6zM60.1 132.7 192.8 0h-58L87.3 47.5l-.2-28.7-87.1 87v58l60.1-60.1zM119.7 192.3 311.8 0h-57.9L146.8 107.1l-.2-28.8L0 224.9v58l119.7-119.7zM0 0v72.6L72.6 0z"></path></svg>