<svg id="Layer_1" data-name="Layer 1" xmlns="http://www.w3.org/2000/svg" viewBox="0 0 617.78 411.46">   <path d="M617.78,411.46l-141-253.8c52.26-20.6,89.26-71.51,89.26-131.09,0-9.09-.89-17.96-2.54-26.57h-50.94c2.55,8.41,3.95,17.33,3.95,26.57,0,50.46-40.91,91.37-91.37,91.37s-91.37-40.91-91.37-91.37c0-9.25,1.4-18.16,3.95-26.57h-57.69c2.55,8.41,3.95,17.33,3.95,26.57,0,50.46-40.91,91.37-91.37,91.37S101.26,77.03,101.26,26.57c0-9.25,1.4-18.16,3.95-26.57H54.27c-1.64,8.61-2.54,17.48-2.54,26.57,0,59.58,37,110.49,89.26,131.09L0,411.46H52.19l53.95-97.1c23.25-41.85,86.96-25.34,86.96,22.53v74.57h46.48V159.38c28.37-10.03,52.59-28.84,69.32-53.24,16.73,24.39,40.95,43.2,69.32,53.24v252.08h46.48V167.45c.16,0,.31,.01,.46,.01,1.62,0,3.22-.07,4.82-.12l135.62,244.12h52.19Z"></path>   <circle cx="192.63" cy="49.52" r="45.68" transform="translate(-5.45 31.49) rotate(-9.22)"></circle>   <circle cx="425.15" cy="49.52" r="45.68" transform="translate(-2.44 68.74) rotate(-9.22)"></circle> </svg>