<svg xmlns="http://www.w3.org/2000/svg" width="608" viewBox="0 0 608 623" height="623" xml:space="preserve" style="enable-background:new 0 0 608 623"><path d="M302.8 181.4c50 0 90.7-40.7 90.7-90.7S352.8 0 302.8 0s-90.7 40.7-90.7 90.7 40.7 90.7 90.7 90.7zm0-137.9c26 0 47.2 21.2 47.2 47.2s-21.2 47.2-47.2 47.2c-26 0-47.2-21.2-47.2-47.2s21.2-47.2 47.2-47.2zM95 335c50 0 90.7-40.7 90.7-90.7S145 153.6 95 153.6 4.3 194.3 4.3 244.3 45 335 95 335zm0-137.9c26 0 47.2 21.2 47.2 47.2 0 26-21.2 47.2-47.2 47.2-26 0-47.2-21.2-47.2-47.2 0-26.1 21.2-47.2 47.2-47.2zM422.3 244.2c0 50 40.7 90.7 90.7 90.7s90.7-40.7 90.7-90.7-40.7-90.7-90.7-90.7-90.7 40.7-90.7 90.7zm90.7-47.1c26 0 47.2 21.2 47.2 47.2 0 26-21.2 47.2-47.2 47.2-26 0-47.2-21.2-47.2-47.2.1-26.1 21.2-47.2 47.2-47.2zM432.7 398.9c-50 0-90.7 40.7-90.7 90.7s40.7 90.7 90.7 90.7 90.7-40.7 90.7-90.7-40.6-90.7-90.7-90.7zm0 137.9c-26 0-47.2-21.2-47.2-47.2 0-26 21.2-47.2 47.2-47.2 26 0 47.2 21.2 47.2 47.2 0 26-21.1 47.2-47.2 47.2zM173.9 398.9c-50 0-90.7 40.7-90.7 90.7s40.7 90.7 90.7 90.7 90.7-40.7 90.7-90.7-40.7-90.7-90.7-90.7zm0 137.9c-26 0-47.2-21.2-47.2-47.2 0-26 21.2-47.2 47.2-47.2 26 0 47.2 21.2 47.2 47.2 0 26-21.2 47.2-47.2 47.2zM105.36 75.775l35.134-25.82L247.267 195.24l-35.133 25.82zM.028 388.166l173.254-56.391 13.494 41.459-173.254 56.39zM419.118 372.792l13.499-41.46 175.346 57.09-13.499 41.46zM396.6 220.7 501.9 75.9l-35.2-25.6-105.3 144.8zM281.1 441.5h43.5v181.4h-43.5z"></path></svg>