<svg xmlns="http://www.w3.org/2000/svg" width="601.6" viewBox="0 0 601.6 601.6" height="601.6" xml:space="preserve"><path d="M358.9 480.6c33.5 0 60.7-27.2 60.7-60.7V245.8c0-1.8-1.5-3.3-3.3-3.3H306.5c-1.8 0-3.3 1.5-3.3 3.3v110c0 4.5-3.6 8.1-8.1 8.1H184.8c-4.5 0-8.1-3.6-8.1-8.1V181.7c0-36.1 29.4-65.5 65.5-65.5h359.4V0H0v480.6h358.9z"></path><path d="M242.2 121c-33.5 0-60.7 27.2-60.7 60.7v174.1c0 1.8 1.5 3.3 3.3 3.3H295c1.8 0 3.4-1.5 3.4-3.3v-110c0-4.5 3.7-8.1 8.1-8.1h109.8c4.5 0 8.1 3.6 8.1 8.1v174.1c0 36.1-29.4 65.5-65.5 65.5H0v116.2h601.6V121H242.2z"></path></svg>