<svg data-name="Layer 1" xmlns="http://www.w3.org/2000/svg" viewBox="0 0 610.52 610.96"><path d="M305.05 0C197.13 0 102.31 55.95 47.95 140.42c4.13-.39 8.41-.73 12.9-1.02 34.68-2.19 63.63 6.78 91.64 15.45 22.62 7.01 43.98 13.63 67.79 14.13.8.01 1.61.03 2.41.03 28.53 0 61.5-10.58 79.62-17.33v59.66c-22.35 7.02-51.86 14.12-79.79 14.12-1.15 0-2.29-.01-3.44-.04-31.74-.67-59.13-9.16-83.3-16.66-25.24-7.81-47.05-14.58-71.36-13.03-20.9 1.32-36.48 4.09-46.98 6.57a303.301 303.301 0 0 0-14.75 59.49c15.38-4.11 35.18-8.04 58.16-9.49 34.68-2.19 63.63 6.77 91.64 15.45 22.62 7 43.98 13.62 67.79 14.13 27.42.6 61.44-9.62 82.02-17.26v59.62c-22.35 7.01-51.86 14.12-79.79 14.12-1.15 0-2.29-.01-3.44-.04-31.74-.69-59.13-9.17-83.3-16.66-25.24-7.81-47.03-14.56-71.36-13.03-29.93 1.89-53.01 8.93-64.42 13.09.89 16.94 3.17 33.53 6.71 49.63 13.33-3.01 31.29-5.98 54.14-7.43 34.68-2.19 63.63 6.78 91.64 15.45 22.62 7.01 43.98 13.63 67.79 14.15.8.01 1.61.01 2.41.01 28.53 0 61.5-10.58 79.62-17.32v59.65c-22.35 7.02-51.86 14.12-79.79 14.12-1.15 0-2.29-.01-3.44-.03-31.74-.69-59.13-9.17-83.3-16.66-25.24-7.83-47.03-14.58-71.36-13.04-16.92 1.08-30.33 3.08-40.41 5.13 46.62 109.1 154.89 185.56 281.03 185.56 168.71 0 305.48-136.77 305.48-305.49S473.75 0 305.05 0"></path></svg>