<svg xmlns="http://www.w3.org/2000/svg" width="413.03" viewBox="0 0 413.03 581.96" height="581.96" style="enable-background:new 0 0 413.03 581.96" xml:space="preserve"><path d="M370.78 333.89c-22.55-22.72-51.24-37.07-82.35-41.52-1.62-.23-1.64-2.57-.02-2.8 70.15-10.21 124.24-70.65 124.48-143.53C413.15 65.73 346.05.02 265.74.02h-96.18c-23.66 0-43.66 18.55-44.31 42.2-.67 24.54 19.02 44.64 43.41 44.64h97.65c32.84 0 60.29 26.88 59.73 59.72-.55 31.9-26.66 57.68-58.69 57.68h-.04c-47.83 0-86.74 38.91-86.74 86.74s38.91 86.74 86.74 86.74v-.02h.18c15.76 0 30.56 6.16 41.66 17.35 11.1 11.19 17.15 26.03 17.04 41.8-.24 32.12-27.14 58.25-59.98 58.25H101.03c-7.83 0-14.19-6.35-14.19-14.19V44.33C86.84 20.67 68.29.67 44.64.02 20.1-.66 0 19.04 0 43.42v451.4c0 48.12 39.01 87.14 87.14 87.14H266.2c80.37 0 146.23-64.8 146.82-144.45.29-39.09-14.71-75.89-42.24-103.62zM197.92 47.34c-8.96 0-16.21-7.26-16.21-16.21s7.26-16.21 16.21-16.21c8.96 0 16.21 7.26 16.21 16.21s-7.26 16.21-16.21 16.21z"></path></svg>