<svg xmlns="http://www.w3.org/2000/svg" viewBox="0 0 642 642"><path d="m583.96 267.07 54.08 45.41c1.57 1.32 3.96.2 3.96-1.84V188.05l-86.68-86.68c-1.45-1.45-3.92-.54-4.1 1.49l-6.16 70.36-26.9 11.94-61.31-61.31 11.94-26.9 70.36-6.16c2.04-.18 2.94-2.65 1.49-4.1L453.96 0H331.37c-2.05 0-3.16 2.39-1.84 3.96l45.41 54.08-10.59 27.54h-86.67l-10.59-27.54 45.39-54.08c1.32-1.57.2-3.96-1.84-3.96H188.05l-86.68 86.68c-1.45 1.45-.54 3.92 1.49 4.1l70.36 6.16 11.94 26.9-61.31 61.31-26.9-11.94-6.16-70.36c-.18-2.04-2.65-2.94-4.1-1.49L0 188.04v122.59c0 2.05 2.39 3.16 3.96 1.84l54.08-45.41 27.54 10.59v86.67l-27.54 10.59-54.08-45.39c-1.57-1.32-3.96-.2-3.96 1.84v122.59l86.68 86.68c1.45 1.45 3.92.54 4.1-1.49l6.16-70.36 26.9-11.94 61.31 61.31-11.94 26.9-70.36 6.16c-2.04.18-2.94 2.65-1.49 4.1l86.68 86.68h122.59c2.05 0 3.16-2.39 1.84-3.96l-45.41-54.08 10.59-27.54h86.67l10.59 27.54-45.41 54.08c-1.32 1.57-.2 3.96 1.84 3.96h122.59l86.68-86.68c1.45-1.45.54-3.92-1.49-4.1l-70.36-6.16-11.94-26.9 61.31-61.31 26.9 11.94 6.16 70.36c.18 2.04 2.65 2.94 4.1 1.49l86.68-86.68V331.36c0-2.05-2.39-3.16-3.96-1.84l-54.08 45.41-27.54-10.59v-86.67l27.54-10.59Zm-101.5-66.06-69.08 30.82-3.21-3.21 30.82-69.08 41.47 41.47Zm-132.12-79.03-27.09 70.62h-4.49l-27.09-70.62h58.68Zm-149.33 37.56 30.82 69.08-3.21 3.21-69.08-30.82 41.47-41.47Zm-41.47 281.45 69.08-30.82 3.21 3.21-30.82 69.08-41.47-41.47Zm132.12 79.03 27.09-70.62h4.49l27.09 70.62h-58.68Zm149.33-37.56-30.82-69.08 3.21-3.21 69.08 30.82-41.47 41.47Zm-41.34-182.52v42.12l195.36 74.99 29.85 29.79h-42.18l-191.19-85.07-29.72 29.72 85.07 191.19v42.18l-29.79-29.85-74.99-195.36h-42.12l-74.99 195.36-29.79 29.85v-42.18l85.07-191.19-29.72-29.72-191.19 85.07H17.14l29.85-29.79 195.36-74.99v-42.12L46.99 224.96l-29.85-29.79h42.18l191.19 85.07 29.72-29.72-85.06-191.2V17.14l29.79 29.85 74.99 195.36h42.12l74.99-195.36 29.79-29.85v42.18l-85.07 191.19 29.72 29.72 191.19-85.07h42.18l-29.85 29.79-195.36 74.99Zm120.38-8.28v58.68l-70.62-27.09v-4.49l70.62-27.09Zm-398.04 58.68v-58.68l70.62 27.09v4.49l-70.62 27.09Z"></path></svg>