<svg xmlns="http://www.w3.org/2000/svg" width="256.4" viewBox="0 0 256.4 618.5" height="618.5" xml:space="preserve" style="enable-background:new 0 0 256.4 618.5"><path d="M78.9 252.5c-9 0-17.8-.3-24.8 2l102-178.2-1 2.2c4.8-7.6 8.5-18.8 8.5-28.4 0-27.7-22.9-50.2-51.1-50.2C98.8 0 86.4 5.4 77.2 14l-.1.1C75.7 15.5 0 97.6 0 97.6h124.5L14.2 287.9S1.7 310.1 1.7 330.4c0 43.4 35.2 78.5 78.5 78.5 8.3 0 16.2-1.3 23.7-3.7v213.3h16.6V397.6c5.1-3.1 9.8-6.6 14-10.7l.2-.2c2.2-2.1 121.6-134.3 121.6-134.3H78.9zm34.1-184c-9.8 0-17.8-8-17.8-17.8s8-17.8 17.8-17.8 17.8 8 17.8 17.8-7.9 17.8-17.8 17.8z"></path></svg>