<svg xmlns="http://www.w3.org/2000/svg" width="504.9" viewBox="0 0 504.9 611.2" height="611.2" xml:space="preserve"><path d="M504.9 210v-6.5C504.9 91.3 413.7 0 301.5 0c-16.9 0-33.3 2.1-49 6-16-4-32.5-6-49-6C91.3 0 0 91.3 0 203.5v204.3C0 520 91.3 611.3 203.5 611.3c16.6 0 33.1-2 49-6 16 3.9 32.4 6 49 6C413.7 611.3 505 520 505 407.8v-6.6H295.3v6.6c0 32.5-17 61.2-42.6 77.5-26.3-16.8-42.5-46.1-42.5-77.5V204.3c0-32 16.4-60.2 41.3-76.6 27.1 16.6 43.9 46.4 43.9 78.3v6.7l209.5-2.7zM301.5 598c-7.5 0-14.9-.5-22.3-1.3 74.3-29.7 125-100.9 127.6-182.3h84.8C488.1 516.2 404.2 598 301.5 598zm6.8-183.6h85.3C390.7 498.5 332.8 571 250.8 592c-15.4 3.9-31.3 5.9-47.4 5.9-104.8.1-190.2-85.3-190.2-190.2V203.5c0-104.9 85.3-190.2 190.2-190.2 7.5 0 15 .5 22.4 1.3C151 44.6 98 118 98 203.5v204.3h.4c0 57.9 47.1 105 105 105 55.8 0 101.5-43.6 104.9-98.4zM196.8 204.3v203.5c0 33.4 16.1 64.8 42.6 84.5-11.1 4.7-23.2 7.4-36 7.4-50.6 0-91.8-41.2-91.8-91.8h-.4V203.5c0-104.9 85.3-190.2 190.2-190.2 102.7 0 186.7 81.8 190.1 183.7l-84.9 1.1c-3.2-55-49-98.8-104.8-98.8-57.8-.1-105 47.1-105 105zm67.7-83.8c11.4-5.1 24.1-8 37.4-8 48.6 0 88.4 37.9 91.6 85.7l-85.2 1.1c-2-31.5-18.3-60.5-43.8-78.8z"></path></svg>