<svg xmlns="http://www.w3.org/2000/svg" width="618.4" viewBox="0 0 618.4 618.4" height="618.4"><path d="M195.8 308.9l-49-48.9v97.8zM97.9 211L49 259.9h97.8zM146.8 357.9H49l48.9 48.9zM0 308.9l48.9 48.9V260zM154.4 252.3v-97.8l-48.9 48.9zM203.4 105.5l-48.9 48.9h97.8zM301.3 203.4l-49-48.9v97.8zM203.4 301.3l48.9-48.9h-97.8zM357.8 146.8h-97.5V48.9h97.5L308.9 0 211 97.9l97.9 97.9zM406.8 97.9l-48.6-48.6v97.2zM301.6 414.7l-97.9-97.9-48.9 49h97.5v97.9h-97.5l48.9 48.9zM105.8 414.7l48.6 48.6v-97.2zM260.3 357.9v-97.6l-49 48.9 97.9 97.9 97.9-97.9-48.9-48.9v97.6zM309.2 211.3l-48.6 48.6h97.2zM512.6 203.7L464 155.1v97.2zM366.1 154.4h97.2l-48.6-48.6zM366.1 154.5l-49.3 49.2 97.9 97.9 49.3-49.2h-97.9zM260.6 471.6h97.6v97.9h-97.6l48.9 48.9 97.9-97.8-97.9-97.9zM211.7 520.6l48.6 48.6v-97.3zM415.1 317.2l-48.7 48.6h97.3zM464 463.7h-97.9v-97.6l-48.9 49 97.9 97.8 97.8-97.8-48.9-49zM520.5 211.7l-48.2 48.2h96.5zM569.5 260.6v97.3h-97.9v-97.3l-48.9 48.9 97.8 97.9 97.9-97.9z"></path></svg>