<svg data-name="Layer 1" xmlns="http://www.w3.org/2000/svg" viewBox="0 0 599.81 599.81"><path d="m368.38 11.58-68.47 68.47-34.6-34.6c-60.61-60.61-159.24-60.6-219.86.01-60.61 60.61-60.61 159.23 0 219.84l34.6 34.6-34.6 34.6c-60.61 60.61-60.61 159.23 0 219.84 60.62 60.62 159.24 60.62 219.85 0l34.6-34.6 34.59 34.59c60.62 60.62 159.24 60.62 219.85 0 60.61-60.61 60.62-159.24 0-219.86l-34.59-34.59 68.39-68.39V12.68l-219.77-1.1Zm143.14 188.19-45.95 45.95-88.78-88.78-54.19 54.19 177.56 177.56c30.74 30.74 30.74 80.75 0 111.48-30.74 30.74-80.75 30.73-111.48 0l-34.59-34.59 88.78-88.78-54.18-54.18-177.56 177.56c-30.74 30.74-80.75 30.73-111.48 0-30.74-30.74-30.74-80.74 0-111.48l34.6-34.6 88.78 88.78 54.18-54.18L99.64 211.12c-30.74-30.74-30.74-80.74 0-111.48 30.74-30.74 80.74-30.74 111.48 0l34.6 34.6-88.78 88.78 54.18 54.18L399.97 88.36l111.56.57v110.84Z"></path></svg>