<svg xmlns="http://www.w3.org/2000/svg" width="614.6" viewBox="0 0 614.6 599.5" height="599.5" xml:space="preserve" style="enable-background:new 0 0 614.6 599.5"><path d="M368.5 599.5h246.1V353.4c0-30.3-24.5-54.8-54.8-54.8H313.7v246.1c0 30.3 24.5 54.8 54.8 54.8z"></path><path d="M368.5 194.2h191.3c30.3 0 54.8-24.5 54.8-54.8V0H257c-27.9 0-50.5 22.6-50.5 50.5v121.8c0 10.4 2.5 18.9 7.4 27.7.4.8-.4 1.6-1.2 1.2-8.8-4.8-17.3-7.4-27.7-7.4H50.5C22.6 193.8 0 216.5 0 244.4v355.1h205V353.4c0-30.3 24.5-54.8 54.8-54.8h53.9V249c0-30.3 24.5-54.8 54.8-54.8z"></path></svg>