<svg id="Layer_1" data-name="Layer 1" xmlns="http://www.w3.org/2000/svg" viewBox="0 0 387.51 611.96">
  <path d="M328.28,149.22v-29.43c0-23.22-11.04-45.5-29.57-59.74V0h-32.17V72.22c0,3.46,1.86,6.68,4.84,8.42l3.14,1.83c13.31,7.76,21.58,22.06,21.58,37.31v149.67c-12.74-8.98-27.6-13.71-43.14-13.71s-30.39,4.73-43.14,13.71V119.79c0-15.26,8.27-29.56,21.59-37.31l3.15-1.83c2.98-1.74,4.84-4.97,4.84-8.42V0h-32.17V60.04c-5.05,3.89-9.69,8.59-13.82,14-4.13-5.41-8.77-10.11-13.82-14V0h-32.17V72.22c0,3.46,1.86,6.69,4.84,8.42l3.14,1.83c13.31,7.76,21.58,22.06,21.58,37.32v149.67c-12.74-8.98-27.6-13.71-43.13-13.71s-30.4,4.73-43.14,13.71V119.79c0-15.26,8.27-29.56,21.59-37.31l3.14-1.83c2.98-1.74,4.84-4.97,4.84-8.42V0h-32.17V60.04c-18.53,14.25-29.58,36.53-29.58,59.74v29.59C24.55,157.14,0,187.82,0,222.79v211.27c0,37.23,27.41,68.89,64.06,74.4-5.6,13.82-6.96,28.92-3.91,43.79,5.95,28.99,29.37,52.37,58.28,58.16,28.76,5.76,57.28-4.9,74.98-27.85,14.39,18.64,36.29,29.4,59.61,29.4,1.5,0,3-.05,4.51-.13,36.93-2.2,67.92-32.84,70.55-69.75,.83-11.57-.94-22.83-5.26-33.51,37.01-5.24,64.68-36.94,64.68-74.51V222.79c0-35.31-24.83-66.06-59.23-73.57Zm-75.3,138.7c23.78,0,43.14,19.35,43.14,43.14s-19.35,43.14-43.14,43.14-43.14-19.35-43.14-43.14,19.35-43.14,43.14-43.14Zm-119.11,0c23.78,0,43.13,19.35,43.13,43.14s-19.35,43.14-43.13,43.14-43.14-19.35-43.14-43.14,19.35-43.14,43.14-43.14ZM32.17,222.79c0-17.29,10.52-32.98,26.39-39.7v177.71c-9.42,2.17-18.41,6.05-26.39,11.66V222.79Zm43.14,254.4c-23.79,0-43.14-19.35-43.14-43.14s19.35-43.14,43.14-43.14,43.14,19.35,43.14,43.14c0,14.26-7.07,27.58-18.74,35.56-1.93,.99-3.88,2.1-5.63,3.22-5.95,2.89-12.26,4.35-18.76,4.35Zm58.56,102.59c-23.79,0-43.14-19.35-43.14-43.14,0-14.26,7.07-27.58,18.74-35.56,1.92-.99,3.87-2.1,5.63-3.22,5.96-2.89,12.27-4.35,18.77-4.35,23.78,0,43.13,19.35,43.13,43.14s-19.35,43.14-43.13,43.14Zm59.88-102.59c-23.78,0-43.13-19.35-43.13-43.14s19.35-43.14,43.13-43.14,43.14,19.35,43.14,43.14-19.35,43.14-43.14,43.14Zm59.23,102.59c-23.79,0-43.14-19.35-43.14-43.14s19.35-43.14,43.14-43.14,43.14,19.35,43.14,43.14-19.35,43.14-43.14,43.14Zm59.22-102.59c-23.78,0-43.14-19.35-43.14-43.14s19.35-43.14,43.14-43.14,43.14,19.35,43.14,43.14-19.35,43.14-43.14,43.14Zm43.14-104.73c-8.19-5.76-17.41-9.69-27.06-11.81V182.81c16.27,6.55,27.06,22.36,27.06,39.98v149.67Z"></path>
</svg>