<svg xmlns="http://www.w3.org/2000/svg" width="562.4" viewBox="0 0 562.4 620.7" height="620.7" xml:space="preserve" style="enable-background:new 0 0 562.4 620.7"><path d="M562.4 201.6c0-33.1-17.8-63.9-46.4-80.4L327.6 12.4c-28.6-16.5-64.2-16.5-92.8 0l-6.1 3.5L46.5 121.1C17.8 137.7 0 168.5 0 201.6V419c0 33.1 17.8 64 46.5 80.5l181.6 104.9 6.7 3.9c14.3 8.3 30.4 12.4 46.4 12.4s32.1-4.1 46.4-12.4l188.3-108.7c28.7-16.6 46.5-47.4 46.5-80.6 0-1.3 0-2.6-.1-3.9h.1V201.6zm-380.7 315L72.9 453.8c-12.4-7.1-20.1-20.5-20.1-34.8V201.6c0-14.3 7.7-27.6 20.1-34.8l109.4-63.2-.6 413zm53.2-282.4 132.8 78.6-133 74.1.2-152.7zm254.6 219.6L301.2 562.5c-12.3 7.1-27.6 7.1-40 0l-6.7-3.9c-12.4-7.1-20-20.4-20-34.7l.1-76.5 185.7-103.5 70.1 41.5c11.8 7 19.1 19.8 19.1 33.5.1 14.4-7.6 27.7-20 34.9zm20.1-118.4L235 172.8l.1-76.5c0-14.3 7.7-27.6 20-34.7l6.1-3.5c12.3-7.1 27.6-7.1 40 0l188.4 108.8c12.3 7.1 20 20.4 20 34.6v133.9z"></path></svg>