<svg xmlns="http://www.w3.org/2000/svg" width="600.9" viewBox="0 0 600.9 512.6" height="512.6" xml:space="preserve"><path d="M448 177.7c-57.7 0-109.1 27-142.3 69l54.8-159.3C328.8 34.9 273.4 0 210.3 0S97.2 24.8 65.5 77.4L0 254.4c32.4 50.1 89 83.3 153.4 83.3 54.4 0 103.1-23.7 136.5-61.2l-53.6 155.2c31.2 48.6 85.7 80.9 147.7 80.9s116.5-32.3 147.7-80.9L601 261.4c-32.3-50.3-88.7-83.7-153-83.7zM25.5 254.4c15.8-20.5 36.1-36.5 59.1-47.2-9.7 13.2-15.4 29.3-15.4 46.8 0 18.1 6.2 34.8 16.5 48.2-23.4-10.8-44.1-27-60.2-47.8zm357.6-42.3c-10.4 13.7-16.6 30.7-16.6 49.1 0 18.6 6.3 35.8 16.9 49.5-24.5-10.8-46.2-27.6-62.9-49.4 16.7-21.6 38.3-38.4 62.6-49.2zm-273-37c-5.6 1.2-11.2 2.6-16.6 4.3l53-146.5c5.6-2.4 11.4-4.5 17.3-6.2l-53.7 148.4zm67.2-1.3L233.4 22c4.7.8 9.4 1.8 13.9 3l-56 151.5c-4.7-1-9.3-2-14-2.7zM213.4 306c12.2-14 19.6-32.2 19.6-52.1 0-17.3-5.6-33.2-15.1-46.3 22.6 11.6 42.4 28.9 58.7 50-17.3 22.6-38.6 38.7-63.2 48.4zm43.2-98.7c-4.3-3.2-8.7-6.2-13.3-9l56-146.9c4.4 3.4 8.6 6.9 12.6 10.7l-55.3 145.2zm47.2 261.9c-4.8-3-9.4-6.2-13.8-9.7l53.1-147.9c4.5 3.2 9.2 6.2 14 9l-53.3 148.6zm70.9 22.9c-5.3-.4-10.6-1-15.8-1.9l54.2-148.4c5.1 1 10.4 1.7 15.7 2.3l-54.1 148zm81-16.3c-6.3 3.2-12.9 6-19.6 8.3l54.1-144c6.3-1.5 12.5-3.3 18.6-5.5l-53.1 141.2zm56.9-165c10.5-13.7 16.9-30.9 16.9-49.5 0-18.5-6.2-35.5-16.6-49.1 24.4 10.8 46 27.5 62.6 49.3-16.7 21.7-38.4 38.5-62.9 49.3z"></path></svg>