<svg data-name="Layer 1" xmlns="http://www.w3.org/2000/svg" viewBox="0 0 609.26 609.26"><path d="M304.63 0C136.39 0 0 136.39 0 304.63s136.39 304.63 304.63 304.63 304.63-136.39 304.63-304.63S472.87 0 304.63 0ZM79.59 141.48c0-34.58 28.03-62.62 62.62-62.62s62.62 28.03 62.62 62.62-28.03 62.62-62.62 62.62-62.62-28.03-62.62-62.62Zm273.29 426.24c-16.66 44.67-79.84 44.67-96.51 0L124.62 214.55h360.02L352.88 567.72ZM467.05 204.1c-34.58 0-62.62-28.03-62.62-62.62s28.03-62.62 62.62-62.62 62.62 28.03 62.62 62.62-28.03 62.62-62.62 62.62Z"></path><path d="m304.63 447.41 71.77-192.38H232.86l71.77 192.38z"></path></svg>