<svg data-name="Layer 1" xmlns="http://www.w3.org/2000/svg" viewBox="0 0 562.9 623.88"><path d="M62.43 230.14 250.92 336v63.53l-125.64-70.89v71.76l125.64 67.32v73.88l-125.64-69.81v64.2l156.36 87.89L562.9 467.6v-67.19L313.51 539.9l-.22-203.63 62.39-34.9v133.38l61.65-34.98V266.45l62.52-34.1.07 132.04 62.98-33.94V155.92L280.38 0l-62.09 34.38 248.72 139.39-185.42 102.69-66.21-37.88 123.64-68.63-61.01-33.72-123.26 69.25-64.29-33.59 124.9-69-58.65-34.08L0 155.22.56 467.6l61.87 33.56V228.67"></path></svg>