<svg xmlns="http://www.w3.org/2000/svg" width="575.3" viewBox="0 0 575.3 618.8" height="618.8" xml:space="preserve"><path d="M512.3 20.5C439.9 3.2 351.7.4 311.6.1 295.3 0 279 0 262.7.1 222.1.4 134.8 3.3 63 20.5c0 0-37 2.9-47.1 38.4C6 93.7.2 160.4 0 233.3c.2 71.9 3.8 137.5 13.8 171.8 7.6 26.2 49.3 44.9 49.3 44.9l146.4 83.1s12 5.4 18.5-6.5c0 0 6.8-12.6 10.8-31.6v76.7l45.2 45.6s2.4 3 5.2.2c2.8-2.9 46.4-45.8 46.4-45.8v-82.6c3.7 22.3 12 37.5 12 37.5 6.5 12 18.5 6.5 18.5 6.5L512.5 450s41.7-18.7 49.3-44.9c10-34.3 13.5-100 13.8-171.8-.2-72.9-6-139.7-15.9-174.4-10.4-35.5-47.4-38.4-47.4-38.4zm-63 328.2-67.4 38.4c-16.1 8.5-27.5 21.9-34.5 32.1-5.8 8.6-10 18.3-11.9 28.5v.1V240h-96.7v202.4-.1c-1.6-7-4.6-13.5-8.4-19.6-6.6-10.5-18.8-26.1-36.8-35.6l-67.4-38.4s-17.6-101.6-.7-208.1c.2-1.4 1.6-4.8 4.1-5.6 9.4-3.1 41-10.5 131-11.7 16.3-.2 32.6-.2 48.9-.1 94.2.9 126.9 8.6 136.4 11.8 2.5.8 3.9 4.2 4.1 5.6 16.9 106.5-.7 208.1-.7 208.1zM575.3 233.3v4.5-11.7 7.2zM0 237.8v-11.7 11.7z"></path></svg>