<svg xmlns="http://www.w3.org/2000/svg" width="600.1" viewBox="0 0 600.1 502.1" height="502.1" xml:space="preserve"><circle cx="252.2" cy="251" r="100.2"></circle><path d="M251 101.9c-82.2 0-149.2 66.9-149.2 149.2s67 149.1 149.2 149.1S400.2 333.3 400.2 251 333.3 101.9 251 101.9zm0 272c-67.8 0-122.9-55.1-122.9-122.9S183.3 128.2 251 128.2 373.9 183.3 373.9 251 318.8 373.9 251 373.9z"></path><path d="M251 50.3c-110.7 0-200.7 90-200.7 200.7s90 200.7 200.7 200.7c97.5 0 179-69.9 197-162.2h152.1v-26.3L425 263c-6.1 90.6-81.8 162.5-174 162.5-96.2 0-174.4-78.2-174.4-174.4S154.9 76.6 251 76.6c92.1 0 167.7 71.7 174 162.2h175.1v-26.3H448c-18-92.3-99.5-162.2-197-162.2z"></path><path d="M485.8 161.9C473.4 129.1 454 99 428.5 73.5 381.1 26.1 318.1 0 251 0S120.9 26.1 73.5 73.5C26.1 120.9 0 184 0 251s26.1 130.1 73.5 177.5C120.9 475.9 184 502 251 502s130.1-26.1 177.5-73.5c25.5-25.5 44.9-55.6 57.3-88.4h114.3v-26.3l-133.3.2C439.5 407.4 353.1 475.8 251 475.8 127.1 475.8 26.3 374.9 26.3 251S127.1 26.3 251 26.3c102.1 0 188.5 68.5 215.8 161.9h133.3v-26.3H485.8z"></path></svg>