<svg data-name="Layer 1" xmlns="http://www.w3.org/2000/svg" viewBox="0 0 610.18 610.18"><path d="M305.27 285.97c160.13-126.92 0-220.7 0-220.7s-160.13 93.77 0 220.7ZM324.21 304.92c126.92 160.13 220.7 0 220.7 0s-93.77-160.13-220.7 0ZM305.27 323.86c-160.13 126.92 0 220.7 0 220.7s160.13-93.77 0-220.7ZM65.63 304.92s93.77 160.13 220.7 0c-126.92-160.13-220.7 0-220.7 0Z"></path><path d="M202.95 170.56C299.95 38.71 156.42 0 156.42 0S52.43 106.23 202.95 170.56Z"></path><path d="M170.74 202.77C106.41 52.25.18 156.24.18 156.24s38.71 143.53 170.56 46.53ZM439.62 202.95c131.85 97 170.56-46.53 170.56-46.53S503.95 52.43 439.62 202.95Z"></path><path d="M453.94.18s-143.53 38.71-46.53 170.56C557.93 106.41 453.94.18 453.94.18ZM407.23 439.62c-97 131.85 46.53 170.56 46.53 170.56s103.99-106.23-46.53-170.56Z"></path><path d="M439.44 407.41C503.77 557.93 610 453.94 610 453.94s-38.71-143.53-170.56-46.53ZM170.56 407.23C38.71 310.23 0 453.76 0 453.76s106.23 103.99 170.56-46.53Z"></path><path d="M156.24 610s143.53-38.71 46.53-170.56C52.25 503.77 156.24 610 156.24 610Z"></path></svg>