<svg xmlns="http://www.w3.org/2000/svg" width="614" viewBox="0 0 614 582.3" height="582.3" xml:space="preserve" style="enable-background:new 0 0 614 582.3"><path d="M359.4 398.7h-1.9c-33.1 0-54.3-15.6-66.2-28.7-18.4-20.2-27.9-48.2-25.4-74.9 6-64.7 56.6-110.7 123-111.9 36.2-.6 75 15.6 103.4 43.6 8.4 8.3 15.7 17.3 21.7 26.9H330.7c-20.1 0-36.4 16.3-36.4 36.4s16.3 36.4 36.4 36.4h277.9c-.6-57-23.7-110.7-65.2-151.5-42.7-41.9-99.4-65.4-155.7-64.4-103.1 1.9-184.7 76.7-194.1 177.8-4.4 46.8 12.1 95.6 44 130.6 30.6 33.6 72.9 52.2 119.1 52.4 1.4.1 2.8.1 4.3.1 28.3 0 73.1-11 104.2-47.8h45.3c-31.9 53.5-86.6 85.9-154 85.9-110.9 0-201.2-93.8-201.2-209 0-109.6 89.6-227.8 234.4-227.8h188c20.1 0 36.4-16.3 36.4-36.4S597.8 0 577.7 0H36.4C16.3 0 0 16.3 0 36.4s16.3 36.4 36.4 36.4H190c-7.2 6.2-14.2 12.6-21 19.5-54.9 56.3-86.4 132.2-86.4 208.3 0 155.3 122.9 281.7 273.9 281.7 130.7 0 229.9-89.9 252.3-220.6H418.7c-16.4 36.1-52 37.2-59.3 37z"></path></svg>