<svg data-name="Layer 1" xmlns="http://www.w3.org/2000/svg" viewBox="0 0 624.9 404.39"><path d="M309.75 80.04h197.06l46.31-77.43L554.65 0H272.73c-19.14 0-36.88 10.06-46.7 26.49L0 404.39h48.92l159.51-266.87c21.31-35.65 59.79-57.48 101.33-57.48Z"></path><path d="M575.98 0 416.47 266.87c-21.31 35.65-59.79 57.48-101.33 57.48H118.09l-46.31 77.43-1.53 2.61h281.92c19.14 0 36.88-10.06 46.7-26.49L624.9 0h-48.92Z"></path><path d="M208.75 202.19c0 57.18 46.52 103.71 103.7 103.71s103.7-46.52 103.7-103.71-46.52-103.7-103.7-103.7-103.7 46.52-103.7 103.7Zm21.83 10.54h24.88c1.44 21.79 7.52 42.97 17.72 62.13-22.85-12.4-39.15-35.28-42.59-62.13Zm24.92-21.08h-24.92c3.48-27.11 20.09-50.15 43.28-62.46-10.46 19.21-16.77 40.5-18.36 62.46Zm46.41 89.44c-14.65-19.95-23.49-43.67-25.37-68.36h25.37v68.36Zm0-89.44h-25.33c2.04-24.37 10.85-47.72 25.33-67.41v67.41Zm49.82 83.21c10.19-19.16 16.28-40.34 17.71-62.13h24.88c-3.44 26.85-19.74 49.73-42.59 62.13Zm42.59-83.21H369.4c-1.59-21.96-7.9-43.25-18.36-62.46 23.2 12.31 39.81 35.35 43.28 62.46Zm-71.33-67.42c14.47 19.7 23.29 43.05 25.33 67.42h-25.33v-67.42Zm0 88.5h25.38c-1.89 24.69-10.72 48.42-25.38 68.37v-68.37Z"></path></svg>