<svg data-name="Layer 1" xmlns="http://www.w3.org/2000/svg" viewBox="0 0 616.39 533.81"><path d="M308.19 0 0 533.81h616.39L308.19 0ZM127.72 357.1l40.52-70.18 98.32 56.76-31.38 54.35h61.89v113.53h-81.04v-75.69h-46.4l23.64-40.93-65.55-37.84Zm146 18.68 34.48-59.71 34.48 59.71h-68.95Zm34.48-104.21-30.51 52.84-98.32-56.76 40.52-70.19 65.54 37.85 22.77-39.43 22.79 39.47 65.55-37.83 40.52 70.18-98.34 56.73-30.52-52.86Zm11.13 126.46h61.89l-31.37-54.33 98.34-56.73 40.52 70.19-65.56 37.83 23.61 40.89h-46.4v75.69h-81.04V398.04Zm103.29 60.09h62.68l-31.76-55.01 46.29-26.7 78.02 135.14H422.61v-53.44Zm-37.2-279.88-46.29 26.7-30.92-53.56-30.91 53.53-46.28-26.72L308.19 44.5l77.21 133.74ZM116.59 376.37l46.28 26.72-31.78 55.04h62.68v53.44H38.54l78.05-135.19Z"></path></svg>