<svg xmlns="http://www.w3.org/2000/svg" id="Layer_1" viewBox="0 0 642 641.35"><defs></defs><path d="M577.8 128.07c-6.53-8.69-13.51-17.01-20.86-24.99v435.18c7.36-7.97 14.34-16.3 20.86-24.99v-385.2ZM350.77 640.25c19.53-1.8 38.54-5.37 56.9-10.51V11.61a319.781 319.781 0 0 0-56.9-10.51v639.15ZM497.55 52.62c-11.79-7.78-24.1-14.85-36.92-21.05v578.21c12.81-6.2 25.12-13.27 36.92-21.05V52.62ZM202.23 618.89c32.98 13.15 68.62 21 105.93 22.47V0c-37.31 1.47-72.95 9.32-105.93 22.47v596.42ZM624.34 215.69v209.96c11.39-32.91 17.66-68.2 17.66-104.98s-6.27-72.08-17.66-104.98ZM189.39 27.91C77.76 78.18 0 190.31 0 320.68s77.76 242.5 189.39 292.76V27.91Z" class="cls-1"></path></svg>