<svg data-name="Layer 1" xmlns="http://www.w3.org/2000/svg" viewBox="0 0 628 628"><path d="M497.49 183.49c-31.11 0-59.65 10.92-82.07 29.09 18.17-22.42 29.09-50.96 29.09-82.07C444.51 58.43 386.08 0 314 0S183.49 58.43 183.49 130.51c0 31.11 10.92 59.64 29.09 82.07-22.42-18.17-50.96-29.09-82.07-29.09C58.43 183.49 0 241.92 0 314s58.43 130.51 130.51 130.51c31.11 0 59.64-10.92 82.07-29.09-18.17 22.42-29.09 50.96-29.09 82.07C183.49 569.57 241.92 628 314 628s130.51-58.43 130.51-130.51c0-31.11-10.92-59.65-29.09-82.07 22.42 18.17 50.96 29.09 82.07 29.09C569.57 444.51 628 386.08 628 314s-58.43-130.51-130.51-130.51ZM314 495.04 132.96 314 314 132.96 495.04 314 314 495.04Z"></path></svg>