<svg data-name="Layer 1" xmlns="http://www.w3.org/2000/svg" viewBox="0 0 616.88 411.9"><path d="M604.52 102.49H524.8c-5.74 0-10.41-4.67-10.41-10.41V12.36c0-6.82-5.55-12.36-12.36-12.36h-74c-11.29 0-21.9 4.4-29.88 12.38l-88.73 88.73V12.36c0-6.82-5.54-12.36-12.36-12.36h-74c-11.29 0-21.9 4.4-29.88 12.38L13.03 192.52C4.63 200.92 0 212.09 0 223.98v73.08c0 6.82 5.54 12.36 12.36 12.36h79.72c5.74 0 10.41 4.67 10.41 10.41v79.72c0 6.82 5.54 12.36 12.36 12.36h73.08c11.88 0 23.05-4.63 31.46-13.03l88.08-88.08v88.75c0 6.82 5.54 12.36 12.36 12.36h73.08c11.88 0 23.05-4.63 31.45-13.03l179.49-179.49c8.4-8.4 13.03-19.58 13.03-31.46v-73.08c0-6.81-5.54-12.36-12.36-12.36ZM411.91 298.35v-81.01c0-6.45-4.85-11.69-11.18-12.28v-.14h-82.07v.14c-6.34.59-11.19 5.83-11.19 12.28v81.01c0 5.03-4.09 9.12-9.12 9.12h-82.29c-4.77 0-9.12-4.35-9.12-9.12v-82.3c0-5.03 4.09-9.12 9.12-9.12h81.01c6.82 0 12.36-5.54 12.36-12.36v-81.01c0-4.86 4.26-9.12 9.12-9.12h82.33c4.75.01 9.08 4.35 9.1 9.1v81.03c0 6.82 5.54 12.36 12.36 12.36h81c4.77 0 9.12 4.35 9.12 9.12v82.29c0 4.77-4.34 9.12-9.12 9.12h-82.29c-5.03 0-9.12-4.09-9.12-9.12ZM204.98 113.36v82.5c0 4.77-4.35 9.12-9.12 9.12h-82.3c-5.03 0-9.12-4.09-9.12-9.12v-82.3c0-5.03 4.09-9.12 9.12-9.12h82.5c4.58 0 8.92 4.33 8.92 8.92Z"></path></svg>