<svg xmlns="http://www.w3.org/2000/svg" width="613.7" viewBox="0 0 613.7 613.7" height="613.7" xml:space="preserve" style="enable-background:new 0 0 613.7 613.7"><path d="M558.8 0h54.9v150.7h-54.9zM422.2 0h81.6v150.7h-81.6zM222.9 0h158.5v150.7H222.9zM0 0v613.7h197.8V463h-72.2v-80.8h72.2V231.5h-72.2v-80.8h72.2V0zM558.8 231.5h54.9v150.7h-54.9zM222.9 231.5h158.5v150.7H222.9zM422.2 231.5h81.6v150.7h-81.6zM557.2 463h54.9v150.7h-54.9zM222.9 463h158.5v150.7H222.9zM422.2 463h81.6v150.7h-81.6z"></path></svg>