<svg xmlns="http://www.w3.org/2000/svg" width="627.9" viewBox="0 0 627.9 542.3" height="542.3" xml:space="preserve" style="enable-background:new 0 0 627.9 542.3"><path d="m392.9 271.5 38.9 67.3 79.1-132.3 36.9 64.6 40.1-69.4L472.5 0l-40 69.4 40 70zM198 204.1h77.6l38.9-66h-158l40.4-68.7h-80.1L0 267.9h80.1l37.5-63.8z"></path><path d="M236.7 271.5 198 204.1l-78.5 133.1-39.4-69.3L40 337.3l116.5 205 40.1-69.4-37.6-66.2c0 .4 77.7-135.2 77.7-135.2z"></path><path d="M627.9 271.1h-80.1l-39.3 67.8H353l-38.9 67.2-38.1-67.3h-78l77.6 134.1h-79l40 69.4h234.5L431 472.9h-77.8l-38.8-67.3 155.2.5-38.6 66.8h80.1zM275.8 69.4 354 204.1h77.8L353.4 69.4h79.1L392.4 0H156.9l40 69.4z"></path></svg>