<svg id="Layer_1" data-name="Layer 1" xmlns="http://www.w3.org/2000/svg" viewBox="0 0 551.47 259.46">   <path d="M397.03,193.29H154.44c-18.27,0-33.08,14.81-33.08,33.08s14.81,33.08,33.08,33.08h242.59c18.27,0,33.08-14.81,33.08-33.08s-14.81-33.08-33.08-33.08Zm-52.31,57.26H206.75c-13.35,0-24.18-10.83-24.18-24.18s10.83-24.18,24.18-24.18h137.97c13.35,0,24.18,10.83,24.18,24.18s-10.83,24.18-24.18,24.18Z"></path>   <path d="M497.13,69.93h-101.36v10.79h50.64c24.05,0,43.55,19.5,43.55,43.55s-19.5,43.55-43.55,43.55H105.06c-24.05,0-43.55-19.5-43.55-43.55s19.5-43.55,43.55-43.55h50.64v-10.79H54.34C24.33,69.93,0,94.26,0,124.27s24.33,54.34,54.34,54.34H497.13c30.01,0,54.34-24.33,54.34-54.34s-24.33-54.34-54.34-54.34Z"></path>   <path d="M306.42,76.57c0,32-12.19,60.17-30.69,76.57-18.49-16.4-30.69-44.57-30.69-76.57s12.19-60.17,30.69-76.57c18.49,16.4,30.69,44.59,30.69,76.57Z"></path> </svg>