<svg xmlns="http://www.w3.org/2000/svg" width="615.4" viewBox="0 0 615.4 615.4" height="615.4" xml:space="preserve" style="enable-background:new 0 0 615.4 615.4"><path d="M153.8 153.8C153.8 68.9 222.7 0 307.7 0s153.8 68.9 153.8 153.8H153.8M0 307.7c0-85 68.9-153.8 153.8-153.8 0 85 68.9 153.8 153.8 153.8-85 0-153.8 68.9-153.8 153.9C68.9 461.5 0 392.7 0 307.7"></path><path d="M461.5 461.5c0 85-68.9 153.8-153.8 153.8-85 0-153.9-68.9-153.9-153.8h307.7"></path><path d="M461.5 153.8c85 0 153.9 68.9 153.9 153.8 0 85-68.9 153.9-153.9 153.9 0-85-68.9-153.9-153.8-153.9 85 .1 153.8-68.8 153.8-153.8"></path></svg>