<svg data-name="Layer 1" xmlns="http://www.w3.org/2000/svg" viewBox="0 0 617.36 617.36"><path d="M615.49 274.96H431.2V103.07c53.59 32.01 93.64 84.36 109.43 146.41h70.99C584 107.33 458.9 0 308.68 0 138.2 0 0 138.2 0 308.68c0 11.4.66 22.64 1.87 33.72h184.29v171.89c-53.59-32.01-93.64-84.36-109.43-146.41h-71c27.62 142.15 152.72 249.48 302.94 249.48 170.48 0 308.68-138.2 308.68-308.68 0-11.4-.66-22.64-1.87-33.72ZM363.76 75.76v199.2h-26.23v-98.92h-8.62v98.92h-15.92v-98.92h-8.62v98.92h-15.92v-98.92h-8.62v98.92H253.6V75.71c17.68-4.17 36.12-6.38 55.08-6.38s37.39 2.25 55.08 6.42ZM71.75 274.96c10.31-73.1 53.64-135.57 114.41-171.88v171.88H71.75ZM253.6 541.6V342.4h110.16v199.25c-17.68 4.17-36.12 6.38-55.08 6.38s-37.39-2.25-55.08-6.42Zm177.6-27.32V342.4h114.41c-10.31 73.1-53.64 135.58-114.41 171.88Z"></path><circle cx="138.62" cy="227.42" r="27.05"></circle><circle cx="478.74" cy="389.94" r="27.05"></circle><path d="M304.37 342.4h8.62v98.92h-8.62zM279.83 342.4h8.62v98.92h-8.62zM328.91 342.4h8.62v98.92h-8.62z"></path></svg>