<svg data-name="Layer 1" xmlns="http://www.w3.org/2000/svg" viewBox="0 0 518.76 623.89"><path d="M332.31 421.03c0 9.67-7.87 17.54-17.54 17.54s-17.54-7.87-17.54-17.54V203.99c0-51.4-41.82-93.22-93.22-93.22s-93.23 41.82-93.23 93.22v193.84h75.68V203.99c0-9.67 7.87-17.54 17.54-17.54s17.54 7.87 17.54 17.54v217.04c0 51.4 41.82 93.22 93.22 93.22s93.23-41.82 93.23-93.22V227.19h-75.68v193.84Z"></path><circle cx="480.92" cy="148.61" r="37.84"></circle><circle cx="480.92" cy="257.13" r="37.84"></circle><path d="M480.92 328.92c-20.9 0-37.84 16.94-37.84 37.84s16.94 37.84 37.84 37.84 37.84-16.94 37.84-37.84-16.94-37.84-37.84-37.84Z"></path><circle cx="480.92" cy="476.41" r="37.84"></circle><path d="M480.92 75.68c20.9 0 37.84-16.94 37.84-37.84S501.81 0 480.92 0s-37.84 16.94-37.84 37.84 16.94 37.84 37.84 37.84Z"></path><circle cx="370.15" cy="148.61" r="37.84"></circle><path d="M370.15 0c-20.9 0-37.84 16.94-37.84 37.84s16.94 37.84 37.84 37.84 37.84-16.94 37.84-37.84S391.05 0 370.15 0ZM259.38 75.68c20.9 0 37.84-16.94 37.84-37.84S280.28 0 259.38 0s-37.84 16.94-37.84 37.84 16.94 37.84 37.84 37.84ZM148.61 75.68c20.9 0 37.84-16.94 37.84-37.84S169.51 0 148.61 0s-37.84 16.94-37.84 37.84 16.94 37.84 37.84 37.84ZM37.84 0C16.94 0 0 16.94 0 37.84s16.94 37.84 37.84 37.84 37.84-16.94 37.84-37.84S58.74 0 37.84 0ZM480.92 548.21c-20.9 0-37.84 16.94-37.84 37.84s16.94 37.84 37.84 37.84 37.84-16.94 37.84-37.84-16.94-37.84-37.84-37.84ZM370.15 548.21c-20.9 0-37.84 16.94-37.84 37.84s16.94 37.84 37.84 37.84 37.84-16.94 37.84-37.84-16.94-37.84-37.84-37.84ZM259.38 548.21c-20.9 0-37.84 16.94-37.84 37.84s16.94 37.84 37.84 37.84 37.84-16.94 37.84-37.84-16.94-37.84-37.84-37.84ZM148.61 548.21c-20.9 0-37.84 16.94-37.84 37.84s16.94 37.84 37.84 37.84 37.84-16.94 37.84-37.84-16.94-37.84-37.84-37.84ZM37.84 548.21C16.94 548.21 0 565.15 0 586.05s16.94 37.84 37.84 37.84 37.84-16.94 37.84-37.84-16.94-37.84-37.84-37.84Z"></path><circle cx="37.84" cy="148.61" r="37.84"></circle><circle cx="37.84" cy="257.13" r="37.84"></circle><path d="M37.84 328.92C16.94 328.92 0 345.86 0 366.76s16.94 37.84 37.84 37.84 37.84-16.94 37.84-37.84-16.94-37.84-37.84-37.84Z"></path><circle cx="148.61" cy="476.41" r="37.84"></circle><circle cx="37.84" cy="476.41" r="37.84"></circle></svg>