<svg data-name="Layer 1" xmlns="http://www.w3.org/2000/svg" viewBox="0 0 620.33 620.33"><path d="m620.33 310.17-20.24-20.24c.23 6.74.51 13.47.51 20.27s-.29 13.49-.51 20.22l20.24-20.24ZM531.59 221.42c4.81 28.9 7.44 58.52 7.44 88.76 0 30.02-2.59 59.63-7.39 88.68l16.01-16.01c3.14-23.92 4.87-48.15 4.87-72.67 0-24.68-1.79-48.94-4.94-72.77l-15.99-15.99ZM440.4 130.24c22.78 55.55 35.44 116.29 35.44 179.95 0 63.64-12.65 124.35-35.42 179.89l33.02-33.02c14.43-46.43 22.22-95.75 22.22-146.87 0-51.13-7.79-100.47-22.23-146.92l-33.03-33.03ZM310.17 0 292.1 18.07c78.15 78.15 121.19 181.89 121.19 292.11 0 110.21-43.03 213.94-121.18 292.09l18.06 18.06 17.14-17.14c72.52-80.77 112.23-183.89 112.23-293.01 0-112.71-42.68-215.61-112.68-293.49L310.17 0Z"></path><path d="M266.94 43.23 246 64.17c63.03 63.03 102.06 150.05 102.06 246.01 0 92.81-36.25 180.17-102.06 245.99l20.95 20.95c71.41-71.41 110.74-166.21 110.74-266.94 0-104.13-42.36-198.56-110.75-266.95Z"></path><path d="m223.67 86.5-25.6 25.6c50.75 50.75 82.18 120.81 82.18 198.07 0 77.26-31.43 147.32-82.18 198.06l25.59 25.59c57.31-57.3 92.8-136.41 92.8-223.65 0-87.25-35.49-166.37-92.8-223.68Z"></path><path d="m177.89 132.28-28.86 28.86c38.18 38.19 61.83 90.91 61.83 149.05 0 58.13-23.65 110.85-61.83 149.03l28.85 28.85c45.57-45.58 73.8-108.5 73.8-177.89 0-69.4-28.23-132.32-73.81-177.9Z"></path><path d="m132.7 177.46-31.65 31.65c25.89 25.89 41.93 61.65 41.93 101.06s-16.03 75.17-41.92 101.06l31.65 31.65c34-34 55.06-80.94 55.06-132.71 0-51.77-21.06-98.71-55.07-132.71Z"></path><path d="m87.62 222.54-36.3 36.3c13.15 13.15 21.29 31.31 21.29 51.32s-8.14 38.17-21.29 51.32l36.3 36.3c22.45-22.45 36.35-53.44 36.35-87.62 0-34.18-13.91-65.18-36.36-87.63Z"></path><path d="M41.42 268.75 0 310.17l41.43 41.43c10.6-10.6 17.15-25.24 17.15-41.42s-6.56-30.82-17.16-41.43Z"></path></svg>