<svg data-name="Layer 1" xmlns="http://www.w3.org/2000/svg" viewBox="0 0 613.15 355.78"><circle cx="484.93" cy="105.47" r="26.47"></circle><path d="M613.09 119.53C610.26 53.14 555.35 0 488.27 0H380.15v162.84c0 119.65-110.8 124.15-123.29 124.26-88.46 0-136.81-58.28-158.64-95.43l233.19-76.23.75-.26c27.74-9.82 43.63-36.94 38.64-65.94-4.98-29-29.02-49.26-58.44-49.26H0v64.84h277.69L16.38 150.25c5.55 34.11 17.85 60.31 26.54 75.52 34.65 57.66 104.45 126.16 213.95 126.16 1.9 0 47.14-.26 92.41-23.04 43.66-21.96 95.69-68.6 95.69-166.04V64.82h43.3c32.34 0 58.8 25.67 60.07 57.7.63 15.88-6.24 30.77-16.9 42.26-10.67 11.5-24.98 17.8-37.12 27.45-22.95 18.26-38.09 43.51-45.94 71.57-4.12 14.7-6.38 29.87-7.68 45.07-.33 3.92-2.36 46.91-1.62 46.91h64.82c0-62.98 6.13-98.79 39.54-118.86l.34-.2c43.8-24.99 67.68-63.56 69.33-111.79 0 0 .09-5.4-.03-5.4Z"></path></svg>