<svg data-name="Layer 1" xmlns="http://www.w3.org/2000/svg" viewBox="0 0 463.02 605.92"><path d="M463.02 345.26V97.94L231.51 0 0 97.94v44.82l231.51-97.95v15.47L0 158.22v35.77l231.51-97.94v15.47L0 209.47v35.77l231.51-97.94v15.47L0 260.71v247.27l231.51 97.94 231.51-97.94v-44.77l-231.51 97.94v-15.47l231.51-97.94v-35.77l-231.51 97.94v-15.47l231.51-97.94v-35.77l-231.51 97.94V443.2l231.51-97.94ZM2.56 302.96l228.95-96.88 228.95 96.88-228.95 96.88L2.56 302.96Z"></path><circle cx="231.51" cy="302.96" r="75.46"></circle></svg>