<svg xmlns="http://www.w3.org/2000/svg" width="621" viewBox="0 0 621 563.8" height="563.8" xml:space="preserve" style="enable-background:new 0 0 621 563.8"><path d="M288.6 62.5 154.1 284.8h133.3l91.3-150.2H532v-3.2C531.9 59 473 0 400.5 0c-45.5 0-88 23.9-111.9 62.5z"></path><path d="M518.6 371.4 389 146.5l-66.9 112.1L410.6 412l-78.7 131.4 2.7 1.6c20.4 12.2 43.7 18.7 67.4 18.7 46 0 89.2-24.5 112.8-63.9 23.4-39.1 24.7-88 3.6-128.4h.2z"></path><path d="m392.8 414.1-65.2-114.3H145.4L72 164.4l-8.1 5.5C1.7 207.2-18.6 288.1 18.7 350.3c23.5 39.1 64.4 62.8 110 63.7l264.1.1zM381 428.6l-285.6.2v3.2c.3 72.2 59.3 131 131.5 131h.5c46.7-.2 90.2-25.6 113.4-66.2l40.2-68.2zM226.9 559.7zM602.9 213.3c-23.1-39.3-65.6-64-111.3-64.8h-81.9l143.7 246.3 2.7-1.6c62.5-36.7 83.5-117.4 46.8-179.9z"></path><path d="m106.7 194.5 39.5 72.3L292.6 21.6l-2.8-1.6C269.6 8 246.4 1.6 223 1.6c-46.2 0-89.6 24.7-113.2 64.4-23.3 39.2-24.4 88.1-3.1 128.5z"></path></svg>