<svg id="Layer_1" data-name="Layer 1" xmlns="http://www.w3.org/2000/svg" viewBox="0 0 580.63 580.63">   <path d="M546.09,34.53h0c-46.04-46.04-121.39-46.04-167.43,0h0c-46.04,46.04-46.04,121.39,0,167.43h0c46.04,46.04,121.39,46.04,167.43,0h0c46.04-46.04,46.04-121.39,0-167.43Zm-99.53,99.53c-8.7-8.7-8.7-22.93,0-31.63,8.7-8.7,22.93-8.7,31.63,0,8.7,8.7,8.7,22.93,0,31.63-8.7,8.7-22.93,8.7-31.63,0Z"></path>   <path d="M374.03,206.6h0c-46.04-46.04-121.39-46.04-167.43,0h0c-46.04,46.04-46.04,121.39,0,167.43h0c46.04,46.04,121.39,46.04,167.43,0h0c46.04-46.04,46.04-121.39,0-167.43Zm-99.53,99.53c-8.7-8.7-8.7-22.93,0-31.63,8.7-8.7,22.93-8.7,31.63,0,8.7,8.7,8.7,22.93,0,31.63-8.7,8.7-22.93,8.7-31.63,0Z"></path>   <path d="M201.96,378.66h0c-46.04-46.04-121.39-46.04-167.43,0h0c-46.04,46.04-46.04,121.39,0,167.43h0c46.04,46.04,121.39,46.04,167.43,0h0c46.04-46.04,46.04-121.39,0-167.43Zm-99.53,99.53c-8.7-8.7-8.7-22.93,0-31.63,8.7-8.7,22.93-8.7,31.63,0,8.7,8.7,8.7,22.93,0,31.63-8.7,8.7-22.93,8.7-31.63,0Z"></path> </svg>