<svg id="Layer_1" data-name="Layer 1" xmlns="http://www.w3.org/2000/svg" viewBox="0 0 625.66 517.08">
  <path d="M509.58,0h-126.63V126.63h-21.11V0H116.08C51.97,0,0,51.97,0,116.08s51.97,116.08,116.08,116.08h76.92v168.84h0c0,64.11,51.97,116.08,116.08,116.08s116.08-51.97,116.08-116.08V232.16h84.42c64.11,0,116.08-51.97,116.08-116.08S573.69,0,509.58,0Zm-84.42,105.53h84.42c5.83,0,10.55,4.73,10.55,10.55s-4.72,10.55-10.55,10.55h0s-42.21,0-42.21,0h-42.21v-21.11Zm-232.16,21.11H116.08c-5.83,0-10.55-4.72-10.55-10.55s4.72-10.55,10.55-10.55h76.92v21.11ZM116.08,63.32c-29.14,0-52.76,23.62-52.76,52.76s23.62,52.76,52.76,52.76h76.92v21.11H116.08c-40.8,0-73.87-33.07-73.87-73.87S75.28,42.21,116.08,42.21h203.55v21.11H116.08Zm203.55,42.21v21.11h-21.11v-21.11h21.11Zm-21.11,126.63h21.11v168.84h0c0,5.83-4.72,10.55-10.55,10.55s-10.55-4.72-10.55-10.55h0V232.16Zm84.42,168.84h0c0,40.8-33.07,73.87-73.87,73.87s-73.87-33.07-73.87-73.87h0V105.53h21.11V401h0c0,29.14,23.62,52.76,52.76,52.76s52.76-23.62,52.76-52.76V232.16h21.11v168.84Zm126.63-211.05h0s-211.05,0-211.05,0v-21.11h211.05c29.14,0,52.76-23.62,52.76-52.76s-23.62-52.76-52.76-52.76h0s-84.42,0-84.42,0v-21.11h84.42c40.8,0,73.87,33.07,73.87,73.87s-33.07,73.87-73.87,73.87Z"></path>
</svg>