<svg xmlns="http://www.w3.org/2000/svg" width="623.6" viewBox="0 0 623.6 498.5" height="498.5" style="enable-background:new 0 0 623.6 498.5" xml:space="preserve"><path d="M371.9 0c-37.1 0-53.7 17.8-60.1 43.6C305.4 17.8 288.9 0 251.7 0H0v454.9h251.7c23.4 0 42.5 19 42.5 42.5v1.1h35v-1c0-23.5 19.1-42.5 42.5-42.5h251.7V0H371.9zm-77.6 324.6c-40.6-7.3-72.7-39.4-80-80h80v80zm-115.5-80c4.2 32.1 19.8 60.8 42.7 81.6h-13.9c-48.7 0-89.2-35.3-97.5-81.6h68.7zm-68.7-35c8.3-46.3 48.9-81.6 97.5-81.6h13.9c-22.8 20.8-38.4 49.4-42.7 81.6h-68.7zm184.2 0h-80c7.3-40.6 39.4-72.7 80-80v80zm0-132V93h-86.7c-74 0-134.1 60.2-134.1 134.1s60.2 134.1 134.1 134.1h86.7v71.6c-9.6-8.2-23.3-12.9-42.5-12.9H35V35h216.7c23.5 0 42.6 19.1 42.6 42.6zm35 52c40.6 7.3 72.7 39.4 80 80h-80v-80zm115.5 80c-4.2-32.1-19.8-60.8-42.7-81.6H416c48.7 0 89.2 35.3 97.5 81.6h-68.7zm68.7 35c-8.3 46.3-48.9 81.6-97.5 81.6h-13.9c22.8-20.8 38.4-49.4 42.7-81.6h68.7zm-184.2 0h80c-7.3 40.6-39.4 72.7-80 80v-80zm259.3 175.3H371.9c-19.2 0-32.9 4.8-42.5 12.9v-71.6H416c74 0 134.1-60.2 134.1-134.1S490 92.9 416 92.9h-86.7V77.6c0-23.5 19.1-42.5 42.5-42.5h216.7v384.8z"></path></svg>