<svg xmlns="http://www.w3.org/2000/svg" width="620.3" viewBox="0 0 620.3 468.1" height="468.1" xml:space="preserve" style="enable-background:new 0 0 620.3 468.1"><path d="M233.9 142.6c-50.4 0-91.2 40.8-91.2 91.2v.4c0 50.4 40.8 91.2 91.2 91.2 50.4 0 91.2-40.8 91.2-91.2v-.4c0-50.3-40.8-91.2-91.2-91.2z"></path><path d="M386.1.2V0h-59.7v71h-93.1C143.8 71 71 143.8 71 233.3v1.6c0 89.5 72.8 162.3 162.3 162.3h93.1v71h59.7v-.2l234.1-233.9L386.1.2zm0 383.2v-46H233.3c-56.6 0-102.6-46-102.6-102.6v-1.6c0-56.6 46-102.6 102.6-102.6h152.8v-46L535.5 234 386.1 383.4z"></path><path d="M59.7 234.8v-1.6c0-95.7 77.9-173.6 173.6-173.6h81.8V0h-81.8C104.7 0 0 104.7 0 233.3v1.6c0 128.7 104.7 233.3 233.3 233.3h81.8v-59.7h-81.8c-95.7-.1-173.6-78-173.6-173.7z"></path></svg>