<svg xmlns="http://www.w3.org/2000/svg" width="612.16" viewBox="0 0 612.16 530.15" height="530.15" style="enable-background:new 0 0 612.16 530.15" xml:space="preserve"><path d="M306.08 0 0 530.15h612.16L306.08 0zM181.22 438.85c-17.02-24.53-26.99-54.32-26.99-86.43s9.98-61.9 26.99-86.43v172.86zm55.5 48.68a152.125 152.125 0 0 1-27.75-18.38V235.68c8.51-7.09 17.81-13.27 27.75-18.38v270.23zm55.49 16.1c-9.53-.86-18.81-2.6-27.75-5.14V206.34c8.94-2.54 18.22-4.27 27.75-5.14v302.43zm55.49-5.14c-8.94 2.54-18.22 4.27-27.75 5.14V201.2c9.53.86 18.81 2.6 27.75 5.14v292.15zm55.49-29.34a151.783 151.783 0 0 1-27.75 18.38V217.3c9.94 5.11 19.23 11.29 27.75 18.38v233.47zm27.75-203.17c17.02 24.53 26.99 54.32 26.99 86.43s-9.98 61.9-26.99 86.43V265.98z"></path></svg>