<svg data-name="Layer 1" xmlns="http://www.w3.org/2000/svg" viewBox="0 0 618.05 578.66"><path d="M419.98 403.06c15.62-42.79 40.74-78.11 74.68-104.98.64-.51 1.3-1 1.95-1.51 12.35 16.23 31.86 26.72 53.83 26.72 37.34 0 67.6-30.27 67.6-67.6s-30.27-67.6-67.6-67.6-67.6 30.27-67.6 67.6c0 8.25 1.48 16.15 4.19 23.46-1.53 1.16-3.05 2.33-4.56 3.53-36.83 29.16-64.06 67.39-80.94 113.65-14.3 39.18-21.55 85.32-21.55 137.13 0 12.28.82 24.42 2.45 36.4 6.46-1.58 12.84-3.36 19.14-5.34a250.015 250.015 0 0 1-1.94-31.06c0-49.5 6.85-93.37 20.36-130.39Z"></path><path d="M432.02 182.85c8.66 4.04 18.32 6.3 28.51 6.3 37.34 0 67.6-30.27 67.6-67.6s-30.27-67.6-67.6-67.6-67.6 30.27-67.6 67.6c0 20.04 8.73 38.04 22.58 50.42-48.55 96.79-74.01 203.74-74.01 312.48v92.49c6.61-.69 13.17-1.58 19.65-2.68v-89.81c0-104.9 24.37-208.08 70.87-301.6ZM376.65 67.6c0-37.33-30.27-67.6-67.61-67.6s-67.6 30.27-67.6 67.6c0 34 25.1 62.13 57.78 66.88V578.5c3.26.1 6.54.15 9.82.15s6.56-.06 9.82-.16v-444c32.68-4.76 57.78-32.89 57.78-66.88ZM202.54 171.97c13.85-12.38 22.58-30.38 22.58-50.42 0-37.34-30.27-67.6-67.6-67.6s-67.6 30.27-67.6 67.6 30.27 67.6 67.6 67.6c10.19 0 19.84-2.27 28.51-6.3 46.5 93.52 70.87 196.7 70.87 301.6v89.78c6.48 1.1 13.03 2.01 19.65 2.7v-92.48c0-108.75-25.46-215.69-74.01-312.48Z"></path><path d="M216.52 396.32c-16.88-46.26-44.11-84.49-80.94-113.65-1.51-1.19-3.03-2.36-4.56-3.53a67.57 67.57 0 0 0 4.19-23.46c0-37.34-30.27-67.6-67.6-67.6S0 218.36 0 255.69s30.27 67.6 67.6 67.6c21.97 0 41.49-10.49 53.83-26.72.65.5 1.31 1 1.95 1.51 33.94 26.87 59.06 62.19 74.68 104.98 13.51 37.02 20.36 80.89 20.36 130.39 0 10.47-.66 20.83-1.94 31.06 6.29 1.98 12.68 3.75 19.14 5.33 1.63-11.97 2.45-24.11 2.45-36.38 0-51.81-7.25-97.95-21.55-137.13Z"></path></svg>