<svg xmlns="http://www.w3.org/2000/svg" width="618.7" viewBox="0 0 618.7 618.5" height="618.5" style="enable-background:new 0 0 618.7 618.5" xml:space="preserve"><path class="st0" d="M224.9 0v93.9L131 0H27l274 274V0zM76.7 301v-93.9l93.9 93.9h104L.6 27.1V301zM618.7 224.7h-94l94-94v-104l-274 274h274zM317.6 76.4h94l-94 93.9v104l274-274h-274zM393.9 618.5v-94l93.9 94h104l-274-274v274zM542.1 317.4v94l-93.9-94h-104l274 274v-274zM0 393.7h93.9L0 487.6v104l274-274H0zM301 541.9h-93.9L301 448V344L27.1 618H301z"></path></svg>