<svg id="Layer_1" xmlns="http://www.w3.org/2000/svg" viewBox="0 0 642 642"><defs></defs><path class="cls-1" d="m468.66 184.69-19.26 19.26v234.1l19.26 19.26V184.69zM0 630.65l54.57-54.57V65.92L0 11.35v619.3zM203.95 192.6h234.1l19.26-19.26H184.69l19.26 19.26zM173.34 457.31l19.26-19.26v-234.1l-19.26-19.26v272.62zM136.54 516.81h368.92l-32.1-32.1H168.64l-32.1 32.1z"></path><path d="M208.65 208.65h224.7v224.7h-224.7z"></path><path class="cls-1" d="m630.65 642-54.57-54.57H65.92L11.35 642h619.3zM184.69 468.66h272.62l-19.26-19.26h-234.1l-19.26 19.26zM81.97 571.38h478.06l-38.52-38.52H120.49l-38.52 38.52zM120.49 109.14h401.02l38.52-38.52H81.97l38.52 38.52zM587.43 576.08 642 630.65V11.35l-54.57 54.57v510.16zM70.62 560.03l38.52-38.52V120.49L70.62 81.97v478.06zM576.08 54.57 630.65 0H11.35l54.57 54.57h510.16zM125.19 505.46l32.1-32.1V168.64l-32.1-32.1v368.92zM168.64 157.29h304.72l32.1-32.1H136.54l32.1 32.1zM571.38 81.97l-38.52 38.52v401.02l38.52 38.52V81.97zM516.81 136.54l-32.1 32.1v304.72l32.1 32.1V136.54z"></path></svg>