<svg id="Layer_1" data-name="Layer 1" xmlns="http://www.w3.org/2000/svg" viewBox="0 0 622.51 520.49">   <path d="M181.41,129.85c0-36.41,15-69.3,39.14-92.87C197.14,14.11,165.15,0,129.85,0,58.13,0,0,58.13,0,129.85s58.13,129.85,129.85,129.85c35.3,0,67.3-14.11,90.7-36.97-24.14-23.58-39.14-56.47-39.14-92.87Z"></path>   <circle cx="129.85" cy="357.63" r="64.92" transform="translate(-55.61 25.42) rotate(-9.22)"></circle>   <circle cx="129.85" cy="488.03" r="32.46" transform="translate(-76.5 27.1) rotate(-9.22)"></circle>   <path d="M362.82,129.85c0-36.41,15-69.3,39.14-92.87C378.55,14.11,346.56,0,311.25,0s-67.3,14.11-90.7,36.97c24.14,23.58,39.14,56.47,39.14,92.87s-15,69.3-39.14,92.87c23.41,22.86,55.4,36.97,90.7,36.97s67.3-14.11,90.7-36.97c-24.14-23.58-39.14-56.47-39.14-92.87Z"></path>   <circle cx="311.25" cy="357.63" r="64.92"></circle>   <circle cx="311.25" cy="488.03" r="32.46"></circle>   <path d="M492.66,0c-35.3,0-67.3,14.11-90.7,36.97,24.14,23.58,39.14,56.47,39.14,92.87s-15,69.3-39.14,92.87c23.41,22.86,55.4,36.97,90.7,36.97,71.71,0,129.85-58.13,129.85-129.85S564.37,0,492.66,0Z"></path>   <circle cx="492.66" cy="357.63" r="64.92"></circle>   <circle cx="492.66" cy="488.03" r="32.46"></circle> </svg>