<svg data-name="Layer 1" xmlns="http://www.w3.org/2000/svg" viewBox="0 0 616.44 616.44"><path d="m375.2 7.38-41.34 367.97c-1.74 15.47 10.37 29.01 25.93 29.01h241.27c9.93-30.26 15.37-62.56 15.37-96.14 0-147.21-103.24-270.24-241.24-300.84Z"></path><path d="M44.23 423.64 313.61.14c-1.8-.03-3.58-.14-5.39-.14C138 0 0 138 0 308.22s138 308.22 308.22 308.22c114.18 0 213.79-62.14 267.05-154.4H65.31c-19.72 0-31.67-21.76-21.09-38.4Z"></path><path d="M205.92 424.64c-3.75-5.29-4.66-11.83-2.5-17.95L346.11 2.4c-1.03-.13-2.06-.28-3.09-.39L200.55 405.68c-2.5 7.06-1.44 14.61 2.88 20.73 4.32 6.11 11.1 9.62 18.59 9.62h366.67c.46-1.01.93-2.03 1.38-3.05H222.02c-6.49 0-12.35-3.04-16.1-8.33Z"></path></svg>