<svg data-name="Layer 1" xmlns="http://www.w3.org/2000/svg" viewBox="0 0 614.24 497.72"><path d="M510.58 127.78c-38.21-14.28-84.79-24.09-135.26-28.75 12.98-17.18 28.67-32.22 46.52-44.32L366.57 0c-33.34 25.41-60.64 58.34-79.4 96.22-68.84 1.8-133.39 12.82-183.52 31.56C56.37 145.46 0 178.37 0 234.78s56.37 89.32 103.66 107c14.13 5.28 29.42 9.94 45.61 13.97 8.41 79.68 75.99 141.97 157.85 141.97s149.44-62.29 157.85-141.97c16.19-4.03 31.48-8.69 45.61-13.97 47.29-17.68 103.66-50.59 103.66-107s-56.37-89.32-103.66-107ZM307.12 256.8c28.45 0 53.56 14.55 68.31 36.58-21.91 2.27-44.84 3.46-68.31 3.46s-46.41-1.2-68.32-3.46c14.75-22.04 39.86-36.58 68.32-36.58Zm-147.05 22.46c-9.69-2.62-18.9-5.52-27.57-8.69-21.68-7.92-35.35-15.89-43.71-22.32-8.87-6.81-8.87-20.15 0-26.96 8.37-6.43 22.03-14.4 43.71-22.32 35.75-13.06 80.8-21.57 129.89-24.8-.67 4.3-1.24 8.63-1.7 12.99-45.74 14.02-82.73 48.18-100.62 92.1Zm147.05 141.88c-34.43 0-63.93-21.31-76.14-51.41 24.57 2.55 50.11 3.9 76.14 3.9s51.57-1.35 76.14-3.9c-12.21 30.1-41.71 51.41-76.14 51.41Zm218.33-172.88c-8.37 6.43-22.03 14.4-43.71 22.32-8.67 3.17-17.88 6.07-27.57 8.69-19.79-48.56-62.92-85.21-115.41-95.87.57-3.32 1.23-6.6 1.96-9.86 53.4 2.61 102.59 11.4 141.02 25.44 21.68 7.92 35.35 15.89 43.71 22.32 8.87 6.81 8.87 20.15 0 26.97Z"></path></svg>