<svg xmlns="http://www.w3.org/2000/svg" width="622.7" viewBox="0 0 622.7 345.1" height="345.1" xml:space="preserve" style="enable-background:new 0 0 622.7 345.1"><path d="M575.6 0H47.1C21.1 0 0 21.1 0 47.1v251c0 25.9 21.1 47.1 47.1 47.1h575.6V47.1c0-26-21.1-47.1-47.1-47.1zm25.1 323.2h-86.3v-216h-22v216h-84.7v-216h-22v216H47.1c-13.8 0-25.1-11.3-25.1-25.1v-251C22 33.2 33.2 22 47.1 22h528.6c13.8 0 25.1 11.3 25.1 25.1v276.1z"></path><path d="M108.2 129.2h169.4V216H108.2v21.9h191.4V107.2H108.2z"></path></svg>