<svg data-name="Layer 1" xmlns="http://www.w3.org/2000/svg" viewBox="0 0 615.56 511.02"><path d="M615.56 0H487.23L379.61 89.15l20-89.15H271.28L78.26 162.08 49.64 289.64h90.72L28.62 383.47 0 511.02h128.33l106.44-89.38-20.05 89.38h128.33l193.19-162.08 28.62-127.56h-91.33l113.41-93.83L615.56 0ZM300.97 330.4h-84.48l19.09-85.07h84.48l-19.09 85.07Zm26.52-109.02h-68.24l212.9-177.45-15.82 70.49-128.84 106.97ZM285.22 23.95h84.48l-19.09 85.07h-84.48l19.09-85.07ZM99.86 175.21 256.2 43.94l-15.82 70.49L84.04 245.7l15.82-70.49Zm-2.38 90.48 158.05-132.73h71.78L168.87 265.68h-71.4ZM50.22 396.6l156.26-130.89-15.73 70.11L34.39 467.09l15.82-70.49Zm69.4 90.48H47.83l158.06-132.72h71.78L119.61 487.07Zm145.32-90.48 156.51-131.28-15.82 70.49-156.52 131.28 15.82-70.49Zm69.4 90.48h-71.78L420.8 354.36h71.78L334.34 487.08Zm181.53-156.67h-84.48l19.09-85.07h84.48l-19.09 85.07Zm-185.96-19.56 16.64-74.19 124.94-103.7h71.78L329.9 310.85Zm236.66-201.83h-84.48l19.09-85.07h84.48l-19.09 85.07Z"></path></svg>