<svg data-name="Layer 1" xmlns="http://www.w3.org/2000/svg" viewBox="0 0 621.43 516.53"><circle cx="310.83" cy="412.96" r="103.57"></circle><path d="M310.71 0c-38.09 0-71.29 20.62-89.28 51.25h178.56C382 20.62 348.81 0 310.71 0ZM517.86 0c-38.09 0-71.29 20.62-89.28 51.25h178.56C589.15 20.62 555.95 0 517.86 0ZM103.57 0C65.48 0 32.28 20.62 14.29 51.25h178.56C174.86 20.62 141.66 0 103.57 0ZM310.83 154.83c-57.2 0-103.57 46.37-103.57 103.57 0 18.4 4.85 35.65 13.27 50.63l180.39.35c8.54-15.06 13.48-32.43 13.48-50.99 0-57.2-46.37-103.57-103.57-103.57ZM310.83 51.25c-57.2 0-103.57 46.37-103.57 103.57H414.4c0-57.2-46.37-103.57-103.57-103.57Z"></path><path d="M517.86 51.25c-57.2 0-103.57 46.37-103.57 103.57h207.14c0-57.2-46.37-103.57-103.57-103.57ZM103.57 51.25C46.37 51.25 0 97.62 0 154.83h207.14c0-57.2-46.37-103.57-103.57-103.57Z"></path></svg>