<svg data-name="Layer 1" xmlns="http://www.w3.org/2000/svg" viewBox="0 0 492.41 610.45"><path d="M447.99 223.27c-61.36 28.47-129.69 44.46-201.79 44.46s-140.42-15.99-201.78-44.46C16.46 263.21 0 311.8 0 364.25c0 135.97 110.23 246.2 246.2 246.2s246.2-110.23 246.2-246.2c0-52.46-16.46-101.04-44.42-140.99ZM246.2 0C187.09 0 133.8 24.75 96 64.41h300.4C358.61 24.75 305.31 0 246.2 0Z"></path><circle cx="131.88" cy="152.42" r="40.34"></circle><path d="M360.52 112.09c-22.28 0-40.34 18.06-40.34 40.34s18.06 40.34 40.34 40.34 40.34-18.06 40.34-40.34-18.06-40.34-40.34-40.34Z"></path></svg>