<svg xmlns="http://www.w3.org/2000/svg" width="618" viewBox="0 0 618 618" height="618" xml:space="preserve" style="enable-background:new 0 0 618 618"><path d="m4.4 176.6 293.9 121.7L176.6 4.4 138 43l67.2 162.2L43 138zM309 293.9 430.7 0h-54.5L309 162.2 241.8 0h-54.5zM441.4 4.4 319.7 298.3l293.9-121.7L575 138l-162.2 67.2L480 43zM618 187.3 324.1 309 618 430.7v-54.5L455.8 309 618 241.8zM309 324.1 187.3 618h54.5L309 455.8 376.2 618h54.5zM613.6 441.4 319.7 319.7l121.7 293.9L480 575l-67.2-162.2L575 480zM0 430.7 293.9 309 0 187.3v54.5L162.2 309 0 376.2zM176.6 613.6l121.7-293.9L4.4 441.4 43 480l162.2-67.2L138 575z"></path></svg>