<svg xmlns="http://www.w3.org/2000/svg" width="621.9" viewBox="0 0 621.9 621.9" height="621.9" xml:space="preserve" style="enable-background:new 0 0 621.9 621.9"><path d="M530.8 91.1C472.5 32.7 394.9.4 312.4 0h-.4C139.2.8-.8 140.9 0 312.4c.8 171 140.1 309.5 310.9 309.5h1.4c83.1-.4 161-33.1 219.5-92.1 58.5-59 90.4-137.2 90.1-220.3-.4-82.5-32.7-160.1-91.1-218.4zM312 538h-1.1c-124.7 0-226.5-101.2-227-226-.5-110.8 79.7-203.7 185.9-224v281.6l-118-118L92.5 311l217.2 217.2L526.9 311l-59.3-59.3-113.9 113.9V88C458 108.1 537.5 200.1 538 309.9c.6 125.2-100.8 227.5-226 228.1z"></path></svg>