<svg version="1.0" xmlns="http://www.w3.org/2000/svg" width="624" viewBox="0 0 624 623" height="623" xml:space="preserve" style="enable-background:new 0 0 624 623"><circle cx="115.2" cy="586.5" r="36.5"></circle><circle cx="36.5" cy="586.5" r="36.5"></circle><circle cx="36.5" cy="507.8" r="36.5"></circle><circle cx="115.2" cy="507.8" r="36.5"></circle><circle cx="193.9" cy="507.8" r="36.5"></circle><circle cx="272.6" cy="507.8" r="36.5"></circle><circle cx="351.3" cy="507.8" r="36.5"></circle><circle cx="430" cy="507.8" r="36.5"></circle><circle cx="508.7" cy="507.8" r="36.5"></circle><circle cx="587.4" cy="507.8" r="36.5"></circle><circle cx="36.5" cy="429.1" r="36.5"></circle><circle cx="115.2" cy="429.1" r="36.5"></circle><circle cx="193.9" cy="429.1" r="36.5"></circle><circle cx="272.6" cy="429.1" r="36.5"></circle><circle cx="351.3" cy="429.1" r="36.5"></circle><circle cx="430" cy="429.1" r="36.5"></circle><circle cx="508.7" cy="429.1" r="36.5"></circle><circle cx="587.4" cy="429.1" r="36.5"></circle><circle cx="36.5" cy="350.4" r="36.5"></circle><circle cx="115.2" cy="350.4" r="36.5"></circle><circle cx="351.3" cy="350.4" r="36.5"></circle><circle cx="430" cy="350.4" r="36.5"></circle><circle cx="508.7" cy="350.4" r="36.5"></circle><circle cx="587.4" cy="350.4" r="36.5"></circle><circle cx="36.5" cy="271.7" r="36.5"></circle><circle cx="115.2" cy="271.7" r="36.5"></circle><circle cx="351.3" cy="271.7" r="36.5"></circle><circle cx="430" cy="271.7" r="36.5"></circle><circle cx="508.7" cy="271.7" r="36.5"></circle><circle cx="587.4" cy="271.7" r="36.5"></circle><circle cx="36.5" cy="193" r="36.5"></circle><circle cx="115.2" cy="193" r="36.5"></circle><circle cx="193.9" cy="193" r="36.5"></circle><circle cx="272.6" cy="193" r="36.5"></circle><circle cx="351.3" cy="193" r="36.5"></circle><circle cx="430" cy="193" r="36.5"></circle><circle cx="508.7" cy="193" r="36.5"></circle><circle cx="587.4" cy="193" r="36.5"></circle><circle cx="351.3" cy="115.2" r="36.5"></circle><circle cx="430" cy="115.2" r="36.5"></circle><circle cx="508.7" cy="115.2" r="36.5"></circle><circle cx="587.4" cy="115.2" r="36.5"></circle><circle cx="351.3" cy="36.5" r="36.5"></circle><circle cx="430" cy="36.5" r="36.5"></circle><circle cx="508.7" cy="36.5" r="36.5"></circle><circle cx="587.4" cy="36.5" r="36.5"></circle><circle cx="193.9" cy="586.5" r="36.5"></circle><circle cx="272.6" cy="586.5" r="36.5"></circle><circle cx="351.3" cy="586.5" r="36.5"></circle><circle cx="430" cy="586.5" r="36.5"></circle><circle cx="508.7" cy="586.5" r="36.5"></circle><circle cx="587.4" cy="586.5" r="36.5"></circle></svg>