<svg xmlns="http://www.w3.org/2000/svg" width="602.9" viewBox="0 0 602.9 521.4" height="521.4" xml:space="preserve" style="enable-background:new 0 0 602.9 521.4"><path d="M16.4 366.5 0 395l72.8 126.4h204.6l16.8-28.9-204.5.4z"></path><path d="M42.4 321.4 26 349.9l72.8 126.7 204.8-.4 16.6-28.8-204.5.4z"></path><path d="m241.1 385.4 49.1-83.4-16.5-28.6-47.4 83.1h-90.7l16.6 28.9z"></path><path d="M200.3 311.4h-90.8l17 29.4h90.2l47.3-84.2-16-27.7z"></path><path d="M191.4 295.6h.1l46.9-81.6-.1-.1 56.4-95h142.5l-16.7-29.8H276.8L175 266.9H83.9l16.6 28.7z"></path><path d="M241.2 28.1h143.1L368 0H224.3l-101 176.1 16.4 29.1z"></path><path d="m149 221.7 16.5 29.1L266.9 73.4h143.9L394.1 45H250.4z"></path><path d="m337.8 294.9-47-81.4 44.7-78.7h-32.1l-45.6 78.7 47 81.4z"></path><path d="M387.3 134.8h-32.9l-44.7 78.7 47.3 81.4h32l-46.3-81.4zM498 213.5h-32.7L569 391.9l-70.6 123.6 33.3-.1 71.2-123.3z"></path><path d="M445.6 213.5h-33.4l104.9 178.6-70.8 123.4h33.1l69.5-123.4z"></path><path d="m393.3 213.5 44.4-78.7h-31.4l-44.5 78.7 102.6 178.6-71.2 123.4h34l70.7-123.4z"></path><path d="m445.2 392-46.9-81h-94.8l-16.7 28.8h95.8l46.4 80.1z"></path><path d="m403.1 465 16.5-28.7-46.3-80.2h-95.8l-16.8 29.3h96.4z"></path><path d="m393.7 481.2-45.9-79-205.8.1-73.2-126.4-16.5 28.5L125.2 431l205.3-1.2 46.5 80.4z"></path></svg>