<svg xmlns="http://www.w3.org/2000/svg" width="603.48" viewBox="0 0 603.48 642" height="642" data-name="Layer 1"><path d="M420.51 642V335.63c0-33.63 23.21-62.81 55.98-70.37l126.99-29.32v361.12c0 24.82-20.12 44.94-44.94 44.94H420.51Z"></path><path d="M603.48 44.94v133.22H452.55c-58.63 0-110.01 39.24-125.43 95.81L226.78 642.01h-19.26L394.65 0h163.89c24.82 0 44.94 20.12 44.94 44.94ZM0 633.49l161.83-317.61c10.9-21.39-1.2-47.33-24.59-52.73L0 231.47v402.02Z"></path><path d="M0 178.15V44.94C0 20.12 20.12 0 44.94 0h335.58L187.3 642h-19.26l116.3-363.32c15.91-49.71-21.18-100.53-73.37-100.53H0Z"></path></svg>