<svg data-name="Layer 1" xmlns="http://www.w3.org/2000/svg" viewBox="0 0 593.82 605.98"><path d="M593.82 199.08v-71.31C593.82 57.2 536.62 0 466.05 0h-335C58.67 0 0 58.67 0 131.05v158.47l308.8-180.03H196.52V84.34c0-37.4 30.32-67.72 67.72-67.72H330c37.4 0 67.72 30.32 67.72 67.72v50.3c0 37.4-30.32 67.72-67.72 67.72h-44.16c-55.59 0-100.66 45.05-100.69 100.63.03 55.58 45.1 100.63 100.69 100.63H330c37.4 0 67.72 30.32 67.72 67.72v50.3c0 37.4-30.32 67.72-67.72 67.72h-65.76c-37.4 0-67.72-30.32-67.72-67.72v-25.15H308.8L0 316.46v158.47c0 72.38 58.67 131.05 131.05 131.05h335c70.57 0 127.77-57.2 127.77-127.77V406.9c0-57.39-46.52-103.91-103.91-103.91 57.39 0 103.91-46.52 103.91-103.91ZM185.15 303.05v-.12.12Z"></path></svg>