<svg id="Layer_1" data-name="Layer 1" xmlns="http://www.w3.org/2000/svg" viewBox="0 0 571.09 571.09">   <g>     <path d="M371.8,182.52c0-47.57-38.69-86.26-86.26-86.26s-86.26,38.7-86.26,86.26,38.69,86.26,86.26,86.26,86.26-38.7,86.26-86.26Z"></path>     <circle cx="388.17" cy="360.27" r="86.26"></circle>     <circle cx="182.92" cy="360.27" r="86.26"></circle>   </g>   <path d="M531.86,0H39.23C17.56,0,0,17.56,0,39.23v492.63c0,21.67,17.56,39.23,39.23,39.23H243.38v-80.38H121.16c-22.53,0-40.79-18.26-40.79-40.79V121.16c0-22.53,18.26-40.79,40.79-40.79H449.93c22.53,0,40.79,18.26,40.79,40.79V449.93c0,22.53-18.26,40.79-40.79,40.79h-125.42v80.38h207.35c21.67,0,39.23-17.56,39.23-39.23V39.23c0-21.67-17.56-39.23-39.23-39.23Z"></path> </svg>