<svg xmlns="http://www.w3.org/2000/svg" width="623.8" viewBox="0 0 623.8 623.8" height="623.8" style="enable-background:new 0 0 623.8 623.8" xml:space="preserve"><path d="M299.5 122.5v67.8c-6.9 4.2-11.5 11.8-11.5 20.4 0 13.2 10.7 23.9 23.9 23.9s23.9-10.7 23.9-23.9c0-8.7-4.6-16.2-11.5-20.4v-67.8c28.2-5.7 49.5-30.7 49.5-60.6C373.7 27.7 346 0 311.9 0S250 27.7 250 61.9c0 29.9 21.3 54.8 49.5 60.6zM561.9 250c-29.9 0-54.9 21.2-60.6 49.5h-67.8c-4.2-6.9-11.8-11.5-20.4-11.5-13.2 0-23.9 10.7-23.9 23.9s10.7 23.9 23.9 23.9c8.7 0 16.2-4.6 20.4-11.5h67.8c5.7 28.2 30.7 49.5 60.6 49.5 34.2 0 61.9-27.7 61.9-61.9S596.1 250 561.9 250zM324.3 501.3v-67.8c6.9-4.2 11.5-11.8 11.5-20.4 0-13.2-10.7-23.9-23.9-23.9S288 399.9 288 413.1c0 8.7 4.6 16.2 11.5 20.4v67.8C271.3 507 250 532 250 561.9c0 34.2 27.7 61.9 61.9 61.9s61.9-27.7 61.9-61.9c-.1-29.9-21.3-54.9-49.5-60.6zM122.5 324.3h67.8c4.2 6.9 11.8 11.5 20.4 11.5 13.2 0 23.9-10.7 23.9-23.9S223.9 288 210.7 288c-8.7 0-16.2 4.6-20.4 11.5h-67.8c-5.7-28.2-30.7-49.5-60.6-49.5C27.7 250 0 277.7 0 311.9s27.7 61.9 61.9 61.9c29.9-.1 54.8-21.3 60.6-49.5zM64.4 240.4c25.9 15 58.1 9 77.2-12.5l58.7 33.9c.2 8.1 4.4 15.9 11.9 20.2 11.4 6.6 26.1 2.7 32.7-8.8 6.6-11.4 2.7-26.1-8.8-32.7-7.5-4.3-16.4-4.1-23.5-.2L154 206.4c9.1-27.3-1.8-58.2-27.8-73.1-29.6-17.1-67.4-6.9-84.5 22.6-17 29.6-6.9 67.5 22.7 84.5zM395.9 141.6 362 200.4c-8.1.2-15.9 4.4-20.2 11.9-6.6 11.4-2.7 26.1 8.8 32.7 11.4 6.6 26.1 2.7 32.7-8.8 4.3-7.5 4.1-16.4.2-23.5l33.9-58.7c27.3 9.1 58.2-1.8 73.1-27.8 17.1-29.6 6.9-67.4-22.6-84.5s-67.4-6.9-84.5 22.6c-15 26-9.1 58.3 12.5 77.3zM559.3 383.3c-25.9-15-58.1-9-77.2 12.5L423.4 362c-.2-8.1-4.4-15.9-11.9-20.2-11.4-6.6-26.1-2.7-32.7 8.8-6.6 11.4-2.7 26.1 8.8 32.7 7.5 4.3 16.4 4.1 23.5.2l58.7 33.9c-9.1 27.3 1.8 58.2 27.8 73.1 29.6 17.1 67.4 6.9 84.5-22.6 17-29.7 6.8-67.5-22.8-84.6zM227.9 482.1l33.9-58.7c8.1-.2 15.9-4.4 20.2-11.9 6.6-11.4 2.7-26.1-8.8-32.7-11.4-6.6-26.1-2.7-32.7 8.8-4.3 7.5-4.1 16.4-.2 23.5l-33.9 58.7c-27.3-9.1-58.2 1.8-73.1 27.8-17.1 29.6-6.9 67.4 22.6 84.5 29.6 17.1 67.4 6.9 84.5-22.6 15-26.1 9.1-58.3-12.5-77.4zM206.4 154l33.9 58.7c-3.9 7.1-4.1 16 .2 23.5 6.6 11.4 21.2 15.4 32.7 8.8 11.4-6.6 15.4-21.2 8.8-32.7-4.3-7.5-12.1-11.8-20.2-11.9l-33.9-58.7c21.6-19.1 27.5-51.3 12.5-77.2-17.1-29.6-54.9-39.7-84.5-22.6s-39.7 54.9-22.6 84.5c15 25.8 45.8 36.8 73.1 27.6zM469.7 206.4 411 240.3c-7.1-3.9-16-4.1-23.5.2-11.4 6.6-15.4 21.2-8.8 32.7 6.6 11.4 21.2 15.4 32.7 8.8 7.5-4.3 11.8-12.1 11.9-20.2l58.7-33.9c19.1 21.6 51.3 27.5 77.2 12.5 29.6-17.1 39.7-54.9 22.6-84.5s-54.9-39.7-84.5-22.6c-25.7 15-36.7 45.8-27.6 73.1zM417.3 469.7 383.4 411c3.9-7.1 4.1-16-.2-23.5-6.6-11.4-21.2-15.4-32.7-8.8-11.4 6.6-15.4 21.2-8.8 32.7 4.3 7.5 12.1 11.8 20.2 11.9l33.9 58.7c-21.6 19.1-27.5 51.3-12.5 77.2 17.1 29.6 54.9 39.7 84.5 22.6s39.7-54.9 22.6-84.5c-14.9-25.7-45.8-36.7-73.1-27.6zM154 417.3l58.7-33.9c7.1 3.9 16 4.1 23.5-.2 11.4-6.6 15.4-21.2 8.8-32.7-6.6-11.4-21.2-15.4-32.7-8.8-7.5 4.3-11.8 12.1-11.9 20.2l-58.7 33.9c-19.1-21.6-51.3-27.5-77.2-12.5-29.6 17.1-39.7 54.9-22.6 84.5s54.9 39.7 84.5 22.6c25.8-14.9 36.8-45.8 27.6-73.1z"></path></svg>