<svg xmlns="http://www.w3.org/2000/svg" width="642" viewBox="0 0 642 385.2" height="385.2" style="overflow:visible;enable-background:new 0 0 642 385.2" xml:space="preserve"><path d="M642 189.8c0 12.4-3.2 23.5-9.2 34-7.9 13.1-4.7 6.7-117.9 124-23.2 23.9-55.2 37.4-88.5 37.4h-359C30.2 385.2 0 355 0 317.8c0-27.2 16.1-50.7 39.4-61.2C16.1 246 0 222.5 0 195.3c0-15.6 5.9-33.2 19.1-46.9.3-.6 107.4-110.4 108-111C150.4 13.5 182.3 0 215.6 0h358.9C611.8 0 642 30.2 642 67.4c0 27.2-16.1 50.7-39.4 61.2 23.3 10.6 39.4 34.1 39.4 61.2zm-259.5-67.3h192.1c30.4 0 55.1-24.7 55.1-55.1S605 12.3 574.6 12.3H382.5l-123 128H67.4c-30.4 0-55.1 24.7-55.1 55.1s24.7 55.1 55.1 55.1h192.1l123-128zM259.5 238H67.4c-23.5 0-42.7-19.2-42.7-42.7s19.2-42.7 42.7-42.7h192.1l123-127.9h192.1c23.5 0 42.7 19.2 42.7 42.7s-19.2 42.7-42.7 42.7H382.5L259.5 238zm123-140.3h192.1c16.7 0 30.3-13.6 30.3-30.3s-13.6-30.3-30.3-30.3H382.5L259.5 165H67.4c-16.7 0-30.3 13.6-30.3 30.3s13.6 30.3 30.3 30.3h192.1l123-127.9zm-123 115.6H67.4c-9.9 0-18-8.1-18-18s8.1-18 18-18h192.1l123-127.9h192.1c9.9 0 18 8.1 18 18s-8.1 18-18 18H382.5l-123 127.9zm0-12.3 123-128h192.1c3.1 0 5.6-2.5 5.6-5.6 0-3.1-2.5-5.6-5.6-5.6H382.5l-123 127.9H67.4c-3.1 0-5.6 2.5-5.6 5.6 0 3.1 2.5 5.6 5.6 5.6h192.1zm123 43.9h192.1c30.4 0 55.1-24.7 55.1-55.1s-24.7-55.1-55.1-55.1H382.5l-123 128H67.4c-30.4 0-55.1 24.7-55.1 55.1 0 30.4 24.7 55.1 55.1 55.1h192.1l123-128zm-123 115.6H67.4c-23.5 0-42.7-19.2-42.7-42.7s19.2-42.7 42.7-42.7h192.1l122.9-127.9h192.1c23.5 0 42.7 19.2 42.7 42.7s-19.2 42.7-42.7 42.7h-192l-123 127.9zm123-140.3h192.1c16.7 0 30.3-13.6 30.3-30.3s-13.6-30.3-30.3-30.3H382.5l-123 127.9H67.4c-16.7 0-30.3 13.6-30.3 30.3s13.6 30.3 30.3 30.3h192.1l123-127.9zm-123 115.6H67.4c-9.9 0-18-8.1-18-18s8.1-18 18-18h192.1l122.9-127.9h192.1c9.9 0 18 8.1 18 18s-8.1 18-18 18h-192l-123 127.9zm0-12.4 122.9-127.9h192.1c3.1 0 5.6-2.5 5.6-5.6s-2.5-5.6-5.6-5.6h-192l-123 127.9H67.4c-3.1 0-5.6 2.5-5.6 5.6 0 3.1 2.5 5.6 5.6 5.6h192.1z"></path></svg>