<svg xmlns="http://www.w3.org/2000/svg" width="588.9" viewBox="0 0 588.9 588.9" height="588.9"><path d="M446 0H143C64 0 0 64 0 143v303c0 79 64 143 143 143h303c79 0 143-64 143-143V143C588.9 64 524.9 0 446 0zM6.8 446V174C19.6 239.7 77.6 289.6 147 289.6h300V287c-77.4 0-140.3-62.9-140.3-140.3 0-73.8 57.3-134.5 129.7-139.9h9.5c36.4 0 70.5 14.2 96.3 39.9 25.7 25.7 39.9 59.9 39.9 96.3v293.5c-2.7-76.4-65.7-137.7-142.7-137.7h-301v2.5c77.4 0 140.3 62.9 140.3 140.3s-62.9 140.3-140.3 140.3v.1c-34.7-1.1-67.1-15.2-91.7-39.8C21 516.5 6.8 482.3 6.8 446z"></path></svg>