<svg xmlns="http://www.w3.org/2000/svg" width="574.59" viewBox="0 0 574.59 642" height="642" data-name="Layer 1"><path d="M523.4 0c26.2 0 49.21 19.64 51.06 45.77 1.06 15.04-4.62 28.77-14.33 38.48L459.27 185.11c-2.02 2.02-.59 5.48 2.27 5.48h61.86c26.2 0 49.21 19.64 51.06 45.77 1.06 15.04-4.62 28.77-14.33 38.48L459.27 375.7c-2.02 2.02-.59 5.48 2.27 5.48h61.86c26.2 0 49.21 19.64 51.06 45.77 1.06 15.04-4.62 28.77-14.33 38.48L383.57 641.99h-4.43c6-9.13 9.07-20.35 7.89-32.33-2.53-25.68-25.18-44.71-50.98-44.71H46.53c-24.45 0-45.78-18.84-46.51-43.29-.76-25.29 19.52-46.03 44.64-46.03h291.17c26.5 0 49.64-20 51.35-46.44 1.88-28.98-21.07-53.07-49.65-53.07h-291c-24.45 0-45.78-18.84-46.51-43.29-.76-25.29 19.52-46.03 44.64-46.03h297.59c26.5 0 49.64-20 51.35-46.44 1.88-28.98-21.07-53.07-49.65-53.07H27.28c-9.65 0-18.65 2.74-26.28 7.5L195.81 0H523.4Z"></path></svg>