<svg xmlns="http://www.w3.org/2000/svg" width="514.7" viewBox="0 0 514.7 599.2" height="599.2" xml:space="preserve"><path d="M492.6 3.3C383.7 19.8 294.9 95.7 257.4 194.7 219.9 95.7 131.1 19.8 22.1 3.3L0 0v599.2l22.1-3.3c108.9-16.5 197.8-92.4 235.3-191.4 37.5 99 126.3 174.9 235.3 191.4l22.1 3.3V0l-22.2 3.3zm-16.3 42.4v95.6c-20.9-8.8-43.4-13.4-66.4-13.4-31.5 0-61.1 8.6-86.5 23.5 35.8-51.7 89.7-90.3 152.9-105.7zm0 369.4c-20.1 11.6-42.9 17.7-66.4 17.7-73.5 0-133.2-59.8-133.2-133.2 0-73.5 59.8-133.2 133.2-133.2 23.5 0 46.3 6.1 66.4 17.7v231zm-371.4 17.7c-23.5 0-46.3-6.1-66.4-17.7v-231c20.2-11.6 42.9-17.7 66.4-17.7 73.5 0 133.2 59.8 133.2 133.2 0 73.5-59.7 133.2-133.2 133.2zm86.5-281.5c-25.4-14.9-55-23.5-86.5-23.5-23.1 0-45.5 4.7-66.4 13.4V45.7c63.2 15.4 117.1 54 152.9 105.6zM38.5 553.4v-95.6c20.9 8.8 43.4 13.4 66.4 13.4 31.5 0 61.1-8.6 86.5-23.5-35.8 51.8-89.7 90.4-152.9 105.7zm284.9-105.6c25.4 14.9 55 23.5 86.5 23.5 23.1 0 45.5-4.7 66.4-13.4v95.6c-63.2-15.4-117.1-54-152.9-105.7z"></path><circle transform="rotate(-9.213 353.272 299.524)" cx="353.3" cy="299.6" r="70.2"></circle><circle cx="161.5" cy="299.6" r="70.2"></circle></svg>