<svg xmlns="http://www.w3.org/2000/svg" width="608.9" viewBox="0 0 608.9 392.3" height="392.3" xml:space="preserve"><path d="M223 216.8c41.5-17.2 70.5-58.4 69.6-106.3C291.5 48.6 238.8 0 176.9 0H.2C.1 0 0 .1 0 .2v65.4h.5l38.5-45c.8-.9 2.2-.4 2.2.8v15.5c0 3 1.6 3.6 5 5 18.8 7.9 150.2 63.5 150.4 63.6 2.3 1 4.3 2.8 4.3 6.1 0 0 .8 25.3.8 25.4 0 12.5-10.8 7.4-10.8 7.4-8.9-5.3-17.6-3.5-27.1-1.8-65.5 11-81.9 10.8-81.9 10.8-22.3 2-37.2-20.7-40.8-27-.1-.2-.4-.1-.4.1V392c0 .1.1.2.2.2h85.6c.1 0 .2-.1.2-.2V235.7c0-1.9 2.5-2.6 3.5-.9l91.7 157.4c0 .1.1.1.2.1h102.4c.2 0 .3-.2.2-.3L222.9 217.1c-.1-.1 0-.3.1-.3z"></path><path d="M99.9 88.6c.7-6.8-3-13.5-9.6-16.2-6.6-2.8-14-.7-18.3 4.6-.5.6-.2 1.5.5 1.8l25.9 10.8c.6.2 1.4-.2 1.5-1zM507.1 217.1c-.1-.1 0-.3.1-.3 41.5-17.2 70.5-58.4 69.6-106.3C575.7 48.6 523 0 461.1 0H284.4c-.1 0-.2.1-.2.2v65.4h.5l38.5-45c.8-.9 2.2-.4 2.2.8v15.5c0 3 1.6 3.6 5 5 18.8 7.9 150.2 63.5 150.4 63.6 2.3 1 4.3 2.8 4.3 6.1 0 0 .8 25.3.8 25.4 0 12.5-10.8 7.4-10.8 7.4-8.9-5.3-17.6-3.5-27.1-1.8-65.5 11-81.9 10.8-81.9 10.8-22.3 2-37.2-20.7-40.8-27-.1-.2-.4-.1-.4.1V392c0 .1.1.2.2.2h85.6c.1 0 .2-.1.2-.2V235.7c0-1.9 2.5-2.6 3.5-.9l91.7 157.4c0 .1.1.1.2.1h102.4c.2 0 .3-.2.2-.3L507.1 217.1z"></path><path d="M384.1 88.6c.7-6.8-3-13.5-9.6-16.2-6.6-2.8-14-.7-18.3 4.6-.5.6-.2 1.5.5 1.8l25.9 10.8c.6.2 1.4-.2 1.5-1z"></path></svg>