<svg xmlns="http://www.w3.org/2000/svg" width="582.8" viewBox="0 0 582.8 582.8" height="582.8" xml:space="preserve" style="enable-background:new 0 0 582.8 582.8"><path d="M18.7 50.2zM457.8 349.7h125V233.1H349.7l18.2-18.2h82.4l88.3-88.4-82.4-82.4-106.5 106.6-58.3 58.3v-25.8l58.3-58.3V0H233.1v233.1l-18.2-18.2v-82.4l-88.4-88.4-82.4 82.4L209 291.4h-25.8l-58.3-58.3H0v116.6h233.1l-18.2 18.2h-82.4l-88.4 88.3 82.4 82.4 106.6-106.5 58.3-58.3v25.7l-58.3 58.3v125h116.6V349.7l18.2 18.2v82.4l88.3 88.3 82.4-82.4-106.5-106.5-58.3-58.3h25.7z"></path></svg>