<svg data-name="Layer 1" xmlns="http://www.w3.org/2000/svg" viewBox="0 0 610.54 610.54"><path d="M232.22 412.22.04 303.59c0 .56-.04 1.12-.04 1.68C0 465.86 124.03 597.4 281.52 609.53V489.72c0-33.21-19.22-63.42-49.3-77.5Z"></path><path d="M502.14 72.04C448.99 27.12 380.31 0 305.27 0S161.56 27.12 108.4 72.04l167.03 186.1a82.727 82.727 0 0 1 21.16 55.25v296.93c2.89.08 5.77.22 8.68.22s5.79-.14 8.68-.22V313.39c0-20.39 7.54-40.07 21.16-55.25l167.03-186.1Z"></path><path d="M610.5 303.59 378.33 412.23c-30.08 14.07-49.3 44.29-49.3 77.5v119.81c157.48-12.14 281.51-143.67 281.51-304.26 0-.56-.04-1.12-.04-1.68ZM68.66 112.43c-30.3 37.13-52.04 81.52-62.19 130.17l239.89 151.63c23.9 16.88 25.55 37.68 31.59 50.85.88 1.92 3.76 1.16 3.56-.94V330a78.344 78.344 0 0 0-25.92-58.25L68.66 112.43Z"></path><path d="M329.03 329.99v114.14c-.19 2.1 2.69 2.86 3.57.94 6.04-13.17 7.69-33.96 31.59-50.85l239.89-151.63c-10.15-48.65-31.89-93.03-62.19-130.17L354.96 271.73a78.426 78.426 0 0 0-25.93 58.25Z"></path></svg>