<svg xmlns="http://www.w3.org/2000/svg" width="622.3" viewBox="0 0 622.3 620.2" height="620.2" style="enable-background:new 0 0 622.3 620.2" xml:space="preserve"><path d="M311.6 0C72.7 0-75.9 258.2 40.3 461.5c116.3 211.6 426.4 211.6 542.7 0C698.2 259.8 545.6 0 311.6 0zm142.5 145.1c0 46.5-22.4 87.7-57 113.7-44.3-76.9-73.4-163.6-83.3-256C391.4 4 454.1 67.2 454.1 145.1zM309.5 2.8c-9.9 92.5-39 179.2-83.3 256-107.4-80.6-52.6-253.3 83.3-256zM25.8 392.5c-1.7-100.7 107.4-172 198.7-130.8-45.8 78.6-107.5 146.7-180.7 200-11.5-20.4-18-44-18-69.2zm142.4 142.4c-52.3 0-97.8-28.2-122.6-70.2 80.7-35.9 170.1-56.1 264.1-56.3-8 71.2-68.3 126.5-141.5 126.5zm47.4-226.2c0-53.1 43.1-96.2 96.2-96.2s96.2 43.1 96.2 96.2-43.1 96.2-96.2 96.2-96.2-43.1-96.2-96.2zm239.5 226.2c-73.3 0-133.6-55.4-141.5-126.5 94 .3 183.3 20.4 264.1 56.3-24.7 42-70.3 70.2-122.6 70.2zm124.4-73.1c-73.2-53.3-134.9-121.5-180.7-200 124.2-53.5 246.4 82.1 180.7 200z"></path></svg>