<svg xmlns="http://www.w3.org/2000/svg" width="609.2" viewBox="0 0 609.2 375" height="375" xml:space="preserve" style="enable-background:new 0 0 609.2 375"><path d="M217.5 172.4c47.6 0 86.2-38.6 86.2-86.2S265.1 0 217.5 0H0v375h217.5c47.6 0 86.2-38.6 86.2-86.2s-38.6-86.2-86.2-86.2h-57.6v87.2h-30.3v-87.2h-75v-30.3h75.1V85.1H160v87.3h57.5zM492.2 266.4h-.2c-44 0-79.7-35.7-79.7-79.7S448 107 492 107l116.3.1V.5H496C392.6.5 308.7 84.3 308.7 187.8 308.7 290 390.5 373 492.2 375h116.9V266.4H492.2z"></path><path d="M538.3 154.8h25.9c-10.3-13.4-27-23-46.5-25.7 8.7 6.8 15.8 15.6 20.6 25.7zM437.6 182.9h29.7c.3-7.8 1.9-15.3 4.5-22.3h-27.3c-4 6.8-6.5 14.4-6.9 22.3zM509.2 182.9h30.2c-.3-7.9-2.1-15.4-4.9-22.3h-25.3v22.3zM575 188.8h-29.7c-.3 7.8-1.9 15.3-4.5 22.3h27.3c4-6.8 6.4-14.3 6.9-22.3zM509.2 211.1h25.3c2.9-6.9 4.6-14.4 4.9-22.3h-30.2v22.3zM509.2 154.8h22.5c-5.3-10-13.1-18.4-22.5-24.6v24.6zM509.2 241.5c9.4-6.1 17.2-14.6 22.5-24.6h-22.5v24.6zM568.1 160.6h-27.3c2.6 7 4.2 14.5 4.5 22.3H575c-.5-7.9-2.9-15.5-6.9-22.3zM503.3 130.2c-9.4 6.1-17.2 14.6-22.5 24.6h22.5v-24.6zM494.9 129.1c-19.5 2.7-36.2 12.3-46.5 25.7h25.9c4.8-10.1 11.9-18.9 20.6-25.7zM503.3 217h-22.5c5.3 10 13.1 18.4 22.5 24.6V217zM564.2 217h-25.9c-4.8 10.1-11.9 18.9-20.6 25.7 19.5-2.8 36.2-12.4 46.5-25.7zM503.3 188.8h-30.2c.3 7.9 2.1 15.4 4.9 22.3h25.3v-22.3zM494.9 242.6c-8.7-6.8-15.8-15.6-20.6-25.7h-25.9c10.2 13.4 27 23 46.5 25.7zM503.3 160.6H478c-2.9 6.9-4.6 14.4-4.9 22.3h30.2v-22.3zM444.4 211.1h27.3c-2.6-7-4.2-14.5-4.5-22.3h-29.7c.5 8 3 15.5 6.9 22.3z"></path></svg>