<svg id="Layer_1" data-name="Layer 1" xmlns="http://www.w3.org/2000/svg" viewBox="0 0 632.57 576.59">   <path d="M193.14,364.86V228.12h-.01c-.14-33.27-28.95-59.78-63.01-56.05-25.87,2.83-46.91,23.81-49.87,49.66-1.4,12.24,1.14,23.78,6.49,33.58,1.08,1.99-1.16,4.23-3.15,3.14-9.8-5.35-21.34-7.89-33.58-6.49-25.85,2.95-46.83,24-49.66,49.87-3.73,34.06,22.78,62.87,56.05,63.01h0s136.74,.01,136.74,.01Z"></path>   <path d="M170.12,383.46c-33.27,.14-59.78,28.95-56.05,63.01,2.83,25.87,23.81,46.91,49.67,49.86,12.24,1.4,23.78-1.14,33.58-6.49,1.99-1.08,4.23,1.16,3.15,3.15-5.35,9.8-7.89,21.34-6.49,33.58,2.95,25.85,24,46.83,49.86,49.66,34.06,3.73,62.87-22.78,63.01-56.05h.01v-136.74H170.12Z"></path>   <path d="M100.82,96.45l96.69,96.69,96.69-96.69h0c23.43-23.63,21.8-62.75-4.92-84.2-20.29-16.29-50.01-16.33-70.38-.14-9.65,7.67-16.01,17.63-19.16,28.34-.64,2.17-3.81,2.17-4.45,0-3.15-10.71-9.51-20.67-19.16-28.34-20.37-16.19-50.08-16.15-70.38,.14-26.72,21.45-28.35,60.56-4.92,84.19h0Z"></path>   <path d="M632.22,301.84c-2.83-25.87-23.81-46.91-49.66-49.87-12.24-1.4-23.78,1.14-33.58,6.49-1.99,1.08-4.23-1.16-3.15-3.14,5.35-9.8,7.89-21.34,6.49-33.58-2.96-25.85-24-46.83-49.87-49.66-34.06-3.73-62.87,22.78-63.01,56.05h-.01v136.74h136.74c33.27-.15,59.78-28.96,56.05-63.02Z"></path>   <path d="M462.45,383.46h0s-136.74-.01-136.74-.01v136.74h.01c.14,33.27,28.95,59.78,63.01,56.05,25.87-2.83,46.91-23.81,49.87-49.66,1.4-12.24-1.14-23.78-6.49-33.58-1.08-1.99,1.16-4.23,3.15-3.15,9.8,5.35,21.34,7.89,33.58,6.49,25.85-2.95,46.83-24,49.66-49.86,3.73-34.06-22.78-62.87-56.05-63.01Z"></path>   <path d="M338.37,96.45l37.69,37.69v-52.43h26.31v78.74l32.68,32.68,96.69-96.69h0c23.43-23.63,21.8-62.75-4.92-84.2-20.29-16.29-50.01-16.33-70.38-.14-9.65,7.67-16.01,17.63-19.16,28.34-.64,2.17-3.81,2.17-4.45,0-3.15-10.71-9.51-20.67-19.16-28.34-20.37-16.19-50.09-16.15-70.38,.14-26.72,21.45-28.35,60.56-4.92,84.19h0Z"></path>   <rect x="369.14" y="198.04" width="40.16" viewBox="0 0 40.16 40.16" height="40.16"></rect>   <rect x="296.2" y="198.04" width="40.16" height="40.16"></rect>   <rect x="223.27" y="198.04" width="40.16" height="40.16"></rect>   <rect x="369.14" y="262.2" width="40.16" height="40.16"></rect>   <rect x="296.2" y="262.2" width="40.16" height="102.66"></rect>   <rect x="223.27" y="262.2" width="40.16" height="40.16"></rect> </svg>