<svg id="Layer_1" data-name="Layer 1" xmlns="http://www.w3.org/2000/svg" viewBox="0 0 628.03 628.03">   <circle cx="41.43" cy="314.01" r="41.43"></circle>   <circle cx="314.01" cy="41.43" r="41.43"></circle>   <circle cx="586.59" cy="314.01" r="41.43" transform="translate(72 735.79) rotate(-67.5)"></circle>   <path d="M444.05,435.68l121.3,121.3v-153.27l-73.86-73.86c-3.61,40.74-20.99,77.58-47.44,105.83Z"></path>   <path d="M192.35,444.05l-121.3,121.3H224.32l73.86-73.86c-40.74-3.61-77.57-20.99-105.83-47.44Z"></path>   <path d="M292.27,149.11c-35.06,4.6-66.72,20.14-91.41,43.09,13.67,12.41,29.06,22.3,45.59,29.54,10.73-26.47,26.13-51,45.82-72.63Z"></path>   <path d="M329.85,491.49l73.86,73.86h153.27l-121.3-121.3c-28.25,26.45-65.09,43.83-105.83,47.44Z"></path>   <path d="M565.34,224.32V71.05l-121.3,121.3c26.45,28.26,43.83,65.09,47.44,105.83l73.86-73.86Z"></path>   <path d="M298.18,136.54L224.32,62.68H71.05l121.3,121.3c28.25-26.45,65.09-43.83,105.83-47.44Z"></path>   <path d="M136.54,329.85l-73.86,73.86v153.27l121.3-121.3c-26.45-28.26-43.83-65.09-47.44-105.83Z"></path>   <path d="M183.98,192.35L62.68,71.05V224.32l73.86,73.86c3.61-40.74,20.99-77.58,47.44-105.83Z"></path>   <path d="M435.68,183.98l121.3-121.3h-153.27l-73.86,73.86c40.74,3.61,77.57,20.99,105.83,47.44Z"></path>   <path d="M147.8,308.1h80.91c.61-26.05,5.21-51.36,13.56-75.27-18.08-7.84-34.89-18.66-49.78-32.27-26.53,28.4-43.23,66.05-44.69,107.54Z"></path>   <path d="M427.17,192.2c-24.7-22.96-56.35-38.49-91.41-43.09,19.69,21.63,35.09,46.16,45.82,72.63,16.53-7.24,31.92-17.13,45.59-29.54Z"></path>   <path d="M319.93,235.68c17.5-.6,34.55-3.82,50.66-9.55-11.46-28.26-28.53-54.18-50.66-76.49v86.04Z"></path>   <path d="M319.93,380.51c18.95,.61,37.4,4.08,54.82,10.29,7.81-22.53,12.14-46.36,12.74-70.87h-67.56v60.58Z"></path>   <path d="M319.93,478.38c22.13-22.31,39.2-48.23,50.66-76.49-16.11-5.72-33.15-8.95-50.66-9.55v86.04Z"></path>   <path d="M480.23,319.93h-80.91c-.61,26.05-5.22,51.36-13.56,75.26,18.08,7.84,34.89,18.66,49.78,32.27,26.53-28.4,43.23-66.05,44.69-107.53Z"></path>   <path d="M381.58,406.29c-10.73,26.48-26.14,51.01-45.82,72.63,35.07-4.6,66.72-20.14,91.42-43.1-13.67-12.41-29.06-22.3-45.59-29.54Z"></path>   <path d="M319.93,308.1h67.56c-.6-24.52-4.93-48.35-12.74-70.87-17.42,6.21-35.87,9.68-54.82,10.29v60.58Z"></path>   <path d="M308.1,392.34c-17.5,.6-34.55,3.82-50.66,9.55,11.46,28.26,28.53,54.19,50.66,76.49v-86.04Z"></path>   <path d="M246.45,406.29c-16.53,7.24-31.93,17.13-45.59,29.54,24.7,22.96,56.35,38.49,91.41,43.09-19.69-21.63-35.09-46.16-45.82-72.63Z"></path>   <path d="M435.54,200.56c-14.89,13.61-31.7,24.43-49.78,32.27,8.35,23.91,12.95,49.22,13.56,75.27h80.91c-1.46-41.48-18.16-79.14-44.69-107.54Z"></path>   <path d="M192.49,427.46c14.89-13.61,31.7-24.43,49.78-32.27-8.35-23.91-12.95-49.22-13.56-75.27h-80.91c1.46,41.48,18.16,79.14,44.69,107.53Z"></path>   <path d="M308.1,149.64c-22.12,22.31-39.2,48.23-50.66,76.49,16.11,5.72,33.15,8.95,50.66,9.55v-86.04Z"></path>   <path d="M308.1,247.52c-18.95-.61-37.4-4.08-54.82-10.29-7.81,22.53-12.14,46.36-12.74,70.87h67.56v-60.58Z"></path>   <path d="M308.1,319.93h-67.56c.6,24.52,4.93,48.34,12.74,70.87,17.42-6.21,35.87-9.68,54.82-10.29v-60.58Z"></path>   <circle cx="314.01" cy="586.59" r="41.43"></circle> </svg>