<svg xmlns="http://www.w3.org/2000/svg" width="610.3" viewBox="0 0 610.3 549.1" height="549.1" xml:space="preserve"><path d="m577 392-1.5-1.2-1.1-.8c-47.8-35.8-91.5-80.3-123.8-132-36.9-59.2-44.2-104.7-57.4-172.9-.2-1.3-.5-2.5-.7-3.8-2.3-12.5-5.7-32.3-19.9-49.5-34.9-42.2-100-42.4-135.1 0-14.2 17.2-17.7 37.1-19.9 49.5-.2 1.3-.5 2.5-.7 3.8-13.1 68.2-20.5 113.7-57.4 172.9-32.3 51.8-76 96.2-123.8 132l-1.1.8-1.5 1.2C12.4 408.5 0 434.4 0 461.5c0 48.3 38.3 87.7 85.5 87.7 37.5 0 71.5-21.1 107.4-30.4 36.3-9.4 74.7-14.3 112.2-14.6 37.6.3 75.9 5.2 112.2 14.6 36 9.3 69.9 30.4 107.4 30.4 47.1 0 85.5-39.3 85.5-87.7.1-27.1-12.3-53-33.2-69.5zm-62.7 69.3c-67.7-32.2-137.8-45.4-209.2-45.6-71.3.2-141.5 13.3-209.2 45.6L73 470.7l19.2-15.6c51.2-41.4 97.2-84 132.7-140.9 45.6-73.1 74.4-151.9 79.9-246.4h.4c5.5 94.5 34.3 173.3 79.9 246.4 35.5 56.9 81.5 99.6 132.7 140.9l19.2 15.6-22.7-9.4z"></path></svg>