<svg data-name="Layer 1" xmlns="http://www.w3.org/2000/svg" viewBox="0 0 620.05 620.05"><path d="M283.62 531.21v72.69H82.54c-8.61 0-16.81-1.7-24.37-4.69l82.05-82.06 50.34 50.34 30.71-154.23L31.95 602.59c13.99 10.9 31.52 17.46 50.59 17.46h217.23V400.43L212.43 531.2h71.18Zm-88.58-68.86-14.41 72.37-28.98-28.98 43.39-43.39Zm88.58 52.71h-40.98l40.98-61.36v61.36ZM52.55 429.48l50.34 50.34-82.05 82.05c-2.99-7.55-4.69-15.76-4.69-24.36V336.42h72.69v71.19l130.77-87.34H0v217.24c0 19.07 6.56 36.6 17.46 50.59l189.32-189.33-154.23 30.71Zm52.44-93.06h61.36l-61.36 40.99v-40.99Zm-19.66 103 72.37-14.41-43.39 43.39-28.98-28.98ZM429.48 567.49l50.34-50.34 82.05 82.06c-7.55 3-15.76 4.69-24.37 4.69H336.42v-72.69h71.18l-87.34-130.77v219.62h217.23c19.07 0 36.6-6.56 50.59-17.46L398.75 413.27l30.71 154.23Zm-93.05-113.8 40.98 61.36h-40.98v-61.36Zm102.99 81.01-14.41-72.37 43.39 43.39-28.98 28.98ZM531.2 407.61v-71.19h72.69v201.09c0 8.61-1.7 16.81-4.69 24.36l-82.05-82.05 50.34-50.34-154.23-30.71L602.58 588.1c10.9-13.99 17.46-31.52 17.46-50.59V320.27H400.43l130.77 87.34Zm-68.87 17.4 72.37 14.41-28.98 28.98-43.39-43.39Zm52.72-47.6-61.36-40.99h61.36v40.99ZM190.57 52.56l-50.34 50.34-82.06-82.05c7.55-3 15.76-4.69 24.37-4.69h201.08v72.69h-71.18l87.34 130.77V0H82.54c-19.07 0-36.6 6.56-50.59 17.46l189.33 189.33-30.71-154.23Zm93.05 113.8L242.64 105h40.98v61.36ZM180.63 85.35l14.41 72.37-43.39-43.39 28.98-28.98ZM88.84 212.44v71.19H16.15V82.54c0-8.61 1.7-16.81 4.69-24.36l82.05 82.05-50.34 50.34 154.23 30.71L17.46 31.95C6.56 45.94 0 63.47 0 82.54v217.24h219.61L88.84 212.44Zm68.87-17.4-72.37-14.41 28.98-28.98 43.39 43.39Zm-52.72 47.6 61.36 40.99h-61.36v-40.99ZM336.42 88.85v-72.7H537.5c8.61 0 16.81 1.7 24.37 4.69l-82.05 82.06-50.34-50.34-30.71 154.23L588.1 17.46C574.11 6.56 556.58 0 537.51 0H320.28v219.62l87.34-130.77h-71.18ZM425 157.71l14.41-72.37 28.98 28.98L425 157.71ZM336.42 105h40.98l-40.98 61.36V105ZM602.59 31.95 413.26 221.28l154.23-30.71-50.34-50.34 82.05-82.05c2.99 7.55 4.69 15.76 4.69 24.36v201.09H531.2v-71.19l-130.77 87.34h219.61V82.54c0-19.07-6.56-36.6-17.46-50.59Zm-67.88 148.67-72.37 14.41 43.39-43.39 28.98 28.98Zm-19.66 103h-61.36l61.36-40.99v40.99ZM284.58 263.99c0 14.03 11.41 25.44 25.45 25.44s25.44-11.41 25.44-25.44-11.41-25.44-25.44-25.44-25.45 11.41-25.45 25.44Zm25.45-9.29c5.12 0 9.29 4.17 9.29 9.29s-4.17 9.29-9.29 9.29-9.29-4.17-9.29-9.29 4.17-9.29 9.29-9.29ZM381.51 310.03c0-14.03-11.41-25.44-25.44-25.44s-25.45 11.41-25.45 25.44 11.41 25.44 25.45 25.44 25.44-11.41 25.44-25.44Zm-25.44 9.29c-5.13 0-9.29-4.17-9.29-9.29s4.17-9.29 9.29-9.29 9.29 4.17 9.29 9.29-4.17 9.29-9.29 9.29ZM335.47 356.07c0-14.03-11.41-25.44-25.44-25.44s-25.45 11.41-25.45 25.44 11.41 25.44 25.45 25.44 25.44-11.41 25.44-25.44Zm-25.44 9.29c-5.13 0-9.29-4.17-9.29-9.29s4.17-9.29 9.29-9.29 9.29 4.17 9.29 9.29-4.17 9.29-9.29 9.29ZM289.42 310.03c0-14.03-11.41-25.44-25.45-25.44s-25.44 11.41-25.44 25.44 11.41 25.44 25.44 25.44 25.45-11.41 25.45-25.44Zm-25.45 9.29c-5.12 0-9.29-4.17-9.29-9.29s4.17-9.29 9.29-9.29 9.29 4.17 9.29 9.29-4.17 9.29-9.29 9.29ZM395.22 224.83c-9.6-9.61-26.38-9.61-35.98 0-4.81 4.81-7.46 11.2-7.46 17.99s2.65 13.19 7.46 17.99c4.8 4.81 11.2 7.45 17.99 7.45s13.19-2.65 17.99-7.45c9.92-9.92 9.92-26.06 0-35.98Zm-11.42 24.56c-3.51 3.51-9.63 3.52-13.14 0-1.76-1.75-2.72-4.08-2.72-6.57s.96-4.81 2.72-6.57c1.75-1.76 4.09-2.72 6.57-2.72s4.82.96 6.57 2.72c3.63 3.62 3.63 9.52 0 13.14ZM377.23 402.67c6.79 0 13.19-2.65 17.99-7.45 9.92-9.92 9.92-26.06 0-35.98-9.6-9.61-26.38-9.61-35.98 0-4.81 4.81-7.46 11.2-7.46 17.99s2.65 13.18 7.46 17.99c4.81 4.81 11.2 7.45 17.99 7.45Zm-6.57-32.01c1.75-1.76 4.09-2.72 6.57-2.72s4.82.96 6.57 2.72c3.63 3.62 3.63 9.52 0 13.14-3.51 3.51-9.63 3.51-13.14 0-1.76-1.76-2.72-4.09-2.72-6.57s.96-4.81 2.72-6.57ZM224.83 395.22c4.8 4.81 11.2 7.45 17.99 7.45s13.19-2.65 17.99-7.45c4.81-4.81 7.46-11.2 7.46-17.99s-2.65-13.19-7.46-17.99c-9.6-9.61-26.38-9.61-35.98 0-9.92 9.92-9.92 26.06 0 35.98Zm11.42-24.56c1.75-1.76 4.09-2.72 6.57-2.72s4.82.96 6.57 2.72c1.76 1.75 2.72 4.08 2.72 6.57s-.96 4.81-2.72 6.57c-3.51 3.51-9.63 3.51-13.14 0-3.63-3.62-3.63-9.52 0-13.14ZM260.81 260.82c4.81-4.81 7.46-11.2 7.46-17.99s-2.65-13.19-7.46-17.99c-9.62-9.6-26.38-9.61-35.98 0-9.92 9.92-9.92 26.06 0 35.98 4.8 4.81 11.2 7.45 17.99 7.45s13.19-2.65 17.99-7.45Zm-24.56-24.56c1.75-1.76 4.09-2.72 6.57-2.72s4.82.96 6.57 2.72c1.76 1.76 2.72 4.09 2.72 6.57s-.96 4.81-2.72 6.57c-3.51 3.51-9.63 3.51-13.14 0-3.63-3.62-3.63-9.52 0-13.14Z"></path></svg>