<svg data-name="Layer 1" xmlns="http://www.w3.org/2000/svg" viewBox="0 0 606.13 417.05"><path d="M556.48 219.11h-152.9c-22.23 0-41.39 14.48-47.68 36.02-9.18 31.44-27.72 59.58-52.83 80.62-25.11-21.04-43.65-49.18-52.83-80.63-6.3-21.54-25.45-36.01-47.68-36.01H49.65c-16.57 0-31.98 8.22-41.22 21.99-9.23 13.75-10.99 31.09-4.73 46.39 32.22 78.7 107.97 129.56 192.99 129.56 37.74 0 74.22-10.07 106.37-29.2 32.15 19.13 68.63 29.2 106.37 29.2 85.02 0 160.78-50.86 192.99-129.56 6.27-15.31 4.5-32.65-4.73-46.39-9.24-13.77-24.65-21.99-41.22-21.99ZM43.16 271.34c-1.21-2.96-.1-5.33.67-6.47.78-1.16 2.57-3.11 5.82-3.11h152.9c3.11 0 5.82 2.14 6.75 5.33 10.28 35.21 29.87 67.13 56.3 92.36-21.49 9.84-44.88 14.97-68.92 14.97-67.64 0-127.9-40.46-153.53-103.08Zm519.81 0c-25.63 62.62-85.9 103.08-153.54 103.08-24.03 0-47.42-5.12-68.92-14.97 26.44-25.23 46.02-57.15 56.31-92.36.93-3.19 3.64-5.33 6.75-5.33h152.9c3.24 0 5.04 1.95 5.82 3.11.77 1.15 1.88 3.52.67 6.47ZM49.65 197.94h152.9c22.22 0 41.38-14.47 47.68-36.02 9.18-31.45 27.72-59.58 52.83-80.62 25.11 21.04 43.65 49.17 52.83 80.61 6.29 21.55 25.45 36.03 47.68 36.03h152.9c16.57 0 31.98-8.22 41.22-21.99 9.22-13.75 10.99-31.09 4.73-46.39C570.21 50.86 494.45 0 409.43 0c-37.74 0-74.22 10.07-106.37 29.2C270.91 10.07 234.43 0 196.69 0 111.67 0 35.92 50.86 3.7 129.56c-6.26 15.31-4.5 32.65 4.73 46.39 9.24 13.77 24.65 21.99 41.22 21.99Zm513.32-52.22c1.21 2.96.1 5.33-.67 6.47-.78 1.16-2.57 3.11-5.82 3.11h-152.9c-3.11 0-5.82-2.14-6.75-5.34-10.28-35.21-29.87-67.12-56.31-92.36 21.49-9.85 44.89-14.97 68.92-14.97 67.63 0 127.9 40.46 153.54 103.08Zm-519.81 0C68.79 83.1 129.05 42.64 196.69 42.64c24.03 0 47.43 5.12 68.92 14.97-26.43 25.23-46.02 57.15-56.3 92.36-.94 3.19-3.65 5.34-6.75 5.34H49.65c-3.24 0-5.04-1.95-5.82-3.11-.77-1.15-1.88-3.52-.67-6.48Z"></path></svg>