<svg xmlns="http://www.w3.org/2000/svg" width="619.9" viewBox="0 0 619.9 632.7" height="632.7" xml:space="preserve" style="enable-background:new 0 0 619.9 632.7"><path d="M154.7 77.3c0 42.7-34.6 77.3-77.3 77.3C34.6 154.7 0 120.1 0 77.3 0 34.6 34.6 0 77.3 0c42.7 0 77.4 34.6 77.4 77.3zM8.7 172.1h137.2v290.7H8.7zM465.2 555.3c0-42.7 34.6-77.3 77.3-77.3 42.7 0 77.3 34.6 77.3 77.3 0 42.7-34.6 77.3-77.3 77.3-42.7.1-77.3-34.6-77.3-77.3zM473.9 172.1h137.2v290.7H473.9zM313.4 172.1H168v290.7h145.4c80.3 0 145.4-65.1 145.4-145.4 0-80.2-65.1-145.3-145.4-145.3z"></path></svg>