<svg xmlns="http://www.w3.org/2000/svg" width="642" viewBox="0 0 642 523.2" height="523.2" style="overflow:visible;enable-background:new 0 0 642 523.2" xml:space="preserve"><path d="M642 394.8c0 70.9-57.5 128.4-128.4 128.4-1.6 0-3.2 0-4.8-.1V116.8c0-33.4-27.2-60.6-60.6-60.6s-60.5 27.2-60.5 60.6v406.5H254.4V116.8c0-33.4-27.1-60.6-60.5-60.6-33.6 0-60.6 27.4-60.6 60.6v406.5H0V0h133.2v65h.7c25-39.1 69-65 118.9-65 55.4 0 103.4 31.9 126.5 78.4l1.9.1C402.5 32.2 450.2 0 505.6 0 580.9 0 642 59.6 642 133.2c0 63.4-45.3 116.3-105.9 129.9v5.3C596.3 279 642 331.6 642 394.8z"></path></svg>