<svg data-name="Layer 1" xmlns="http://www.w3.org/2000/svg" viewBox="0 0 625.26 625.26"><path d="M625.26 625.26H0V0h625.26v625.26ZM90.33 534.93h444.59V90.33H90.33v444.59Z"></path><path d="M261.52 261.52H102.07v-78.93h80.51v-80.52h78.94v159.45zM523.2 261.56H363.75V102.11h78.93v80.52h80.52v78.93zM442.58 523.18h-78.94V363.73H523.1v78.93h-80.52v80.52zM261.51 523.19h-78.94v-80.52h-80.52v-78.93h159.46v159.45zM312.63 219.86l-92.76 92.76 92.76 92.77 92.76-92.77-92.76-92.76Zm-26.78 92.77 26.78-26.77 26.78 26.77-26.78 26.77-26.78-26.77Z"></path></svg>