<svg data-name="Layer 1" xmlns="http://www.w3.org/2000/svg" viewBox="0 0 627.51 627.7"><path d="M313.66 0C219.83 0 135.67 41.23 78.15 106.51h293.99l-4.94 22.7H59.93c-3.73 5.12-7.29 10.37-10.72 15.71h314.57l-4.94 22.7H35.97c-2.72 5.15-5.28 10.4-7.71 15.71h327.17l-4.94 22.7H18.82c-1.89 5.17-3.63 10.42-5.25 15.71h333.51l-4.94 22.7H7.61c-1.17 5.19-2.22 10.43-3.13 15.71h334.24l-4.94 22.7H1.35c-.51 5.2-.9 10.44-1.15 15.71h330.17l-4.94 22.7H0c.12 5.27.37 10.51.75 15.71h321.27l-4.94 22.7H3.18c.77 5.28 1.67 10.52 2.7 15.71h307.78l-4.94 22.7H11.34c1.47 5.3 3.08 10.53 4.82 15.71h289.15l-4.94 22.7H24.7c2.26 5.32 4.7 10.55 7.24 15.71h265.01l-4.94 22.7H44.29c54.84 91.51 154.93 152.78 269.37 152.78 173.33 0 313.85-140.51 313.85-313.85S487 0 313.66 0Z"></path></svg>