<svg xmlns="http://www.w3.org/2000/svg" width="433.8" viewBox="0 0 433.8 614.4" height="614.4" xml:space="preserve"><path d="M216.9 0C97.3 0 0 97.3 0 216.9v274.8c0 67.6 55 122.7 122.7 122.7 67.6 0 122.7-55 122.7-122.7V432c50-6.6 96-30.3 130.6-67.6 37.3-40.2 57.9-92.6 57.9-147.5C433.8 97.3 336.5 0 216.9 0zm15.6 409.4-10.9.9v81.5c0 54.5-44.4 98.8-98.9 98.8-54.5 0-98.9-44.3-98.9-98.8V216.9c0-106.5 86.6-193.1 193.1-193.1S410 110.4 410 216.9c0 100-78 184.5-177.5 192.5z"></path><path d="M216.9 146.2c-39.6 0-71.7 32.1-71.7 71.7s32.1 71.7 71.7 71.7 71.7-32.1 71.7-71.7-32.1-71.7-71.7-71.7z"></path></svg>