<svg xmlns="http://www.w3.org/2000/svg" width="613.7" viewBox="0 0 613.7 613.7" height="613.7" xml:space="preserve" style="enable-background:new 0 0 613.7 613.7"><path d="M306.9 232.6c-41 0-74.3 33.2-74.3 74.2s33.2 74.3 74.3 74.3c41 0 74.3-33.2 74.3-74.3-.1-40.9-33.3-74.2-74.3-74.2z"></path><path d="M306.9 0c-22.9 0-45.1 2.5-66.6 7.3v126.3c20.7-7.9 43.1-12.4 66.6-12.4 102.5 0 185.6 83.1 185.6 185.6s-83.1 185.6-185.6 185.6-185.6-83.1-185.6-185.6V62.5C47.6 118.6 0 207.2 0 306.9c0 169.5 137.4 306.9 306.9 306.9 169.5 0 306.9-137.4 306.9-306.9C613.7 137.4 476.3 0 306.9 0z"></path></svg>