<svg data-name="Layer 1" xmlns="http://www.w3.org/2000/svg" viewBox="0 0 629.37 629.36"><path d="M492.59 136.77h81.47C517.28 54.24 422.21 0 314.68 0c-60.39 0-116.84 17.13-164.8 46.74v49.28c45.89-34.67 102.98-55.28 164.8-55.28s118.91 20.61 164.8 55.28h-329.6v40.75h342.71ZM40.75 314.68c0-61.82 20.61-118.91 55.28-164.8v329.6h40.75V55.3C54.25 112.08 0 207.15 0 314.68c0 60.39 17.14 116.84 46.75 164.8h49.28c-34.68-45.89-55.28-102.98-55.28-164.8ZM226.89 492.59H55.3c56.79 82.53 151.85 136.77 259.38 136.77 60.39 0 116.83-17.13 164.8-46.74v-49.28c-45.89 34.67-102.98 55.28-164.8 55.28s-118.91-20.61-164.8-55.28h329.6v-40.75H226.89ZM582.62 149.88h-90.03v424.19c82.53-56.78 136.78-151.85 136.78-259.38 0-60.39-17.13-116.84-46.75-164.8Zm-49.28 329.6v-329.6c34.67 45.89 55.28 102.98 55.28 164.8s-20.61 118.91-55.28 164.8Z"></path></svg>