<svg id="Layer_1" data-name="Layer 1" xmlns="http://www.w3.org/2000/svg" viewBox="0 0 608.33 485.16">   <rect y="27.05" width="130.61" viewBox="0 0 130.61 130.61" height="130.61"></rect>   <rect x="150.22" y="27.05" width="130.61" height="130.61"></rect>   <rect y="177.27" width="130.61" height="130.61"></rect>   <path d="M533.22,167.47l75.11-75.11L515.97,0l-84.91,84.91V27.05h-130.61V157.66h57.86l-77.47,77.47v-57.86H150.22v130.61h57.86l-77.47,77.47v-57.86H0v130.61H130.61v-57.86l84.91,84.91,75.11-75.11,75.11,75.11,75.11-75.11,75.11,75.11,92.36-92.36-75.11-75.11,75.11-75.11-75.11-75.11Zm-92.36,92.36l57.86,57.86-57.86,57.86-57.86-57.86,57.86-57.86Zm-9.8-102.16v-57.86l67.67,67.67-57.86,57.86-67.67-67.67h57.86Zm-150.22,150.22v-57.86l67.67,67.67-57.86,57.86-67.67-67.67h57.86Z"></path> </svg>