<svg xmlns="http://www.w3.org/2000/svg" width="625.5" viewBox="0 0 625.5 592.7" height="592.7" xml:space="preserve" style="enable-background:new 0 0 625.5 592.7"><path d="M0 0h199.6v592.7H0zM623.2 294.4V187.8H214.1v404.9h409.1V486H413.7V294.4zM302.3 0c-48.7 0-88.2 39.5-88.2 88.2s39.5 88.2 88.2 88.2 88.2-39.5 88.2-88.2S351 0 302.3 0zm0 107.4c-10.6 0-19.2-8.6-19.2-19.2S291.7 69 302.3 69s19.2 8.6 19.2 19.2-8.6 19.2-19.2 19.2z"></path><path d="M537.3 302.1c-48.7 0-88.2 39.5-88.2 88.2s39.5 88.2 88.2 88.2 88.2-39.5 88.2-88.2c0-48.8-39.5-88.2-88.2-88.2zm0 107.3c-10.6 0-19.2-8.6-19.2-19.2s8.6-19.2 19.2-19.2 19.2 8.6 19.2 19.2c.1 10.6-8.5 19.2-19.2 19.2z"></path></svg>