<svg xmlns="http://www.w3.org/2000/svg" width="616.9" viewBox="0 0 616.9 583.2" height="583.2" style="enable-background:new 0 0 616.9 583.2" xml:space="preserve"><path d="m616.9 278.3-44 26.4V252l44 26.3zm-112-67.1 55.5 33.3v67.6l-55.5 33.3h-25.7c-4.3 17.2-18.7 31-37.4 33.6-14.2 2-27.8-2.9-37.4-12.1L431.7 537h5.9c41.8 0 81.7 6.3 89.1 46.2H404.4c-25.8 0-40.1-5.4-50-18.3-9.9-12.9-12.8-13.7-33.5-42.8-28.1-39.5-41.8-51.8-75.4-51.8-40.1 0-76.8 26.1-96.1 67.1h3.3c38.9 0 81.8 11.9 81.8 45.3l-123.7.5c-28.7 0-57.3-15.7-57.3-62.8 0-32.9 6.6-60.1 10.5-79 3.9-18.9 8.2-42.4 8.2-42.4H42.9L65 345.6H0V211.4h100.5c1.8-101 83.8-183.2 195.9-183.2 16.5 0 32.5.5 46.9 1.1 4-19 19.2-31.9 34-28.9 13 2.7 21.5 16.9 20.7 33.2 31 6.8 40.5 25.1 44.4 52.2h50.9c0 30.5-6.2 43.9-55.4 43.9h-16.3L472 157v2.8c0 7.3-2.7 10.4-13.3 10.4h-42l14 40.9h74.2zM397.6 81.1c0 4.4 3.6 7.9 7.9 7.9s7.9-3.6 7.9-7.9c0-4.4-3.6-7.9-7.9-7.9s-7.9 3.6-7.9 7.9M144.4 206.4c0 66.6 51.3 131.4 103.3 131.4V102.7c14.6 10 57.3 41.3 88.2 41.3 17.7 0 31.2-10.1 31.2-21.3 0-24.4-39.1-45.9-89.8-45.9-66.5 0-132.9 56-132.9 129.6m-11.8 95.3c-6.2-6.8-19.7-31.4-23.9-46.8H42.8v46.8h89.8zM361 346.8h-60c-7.7 11.1-29 28.7-56 28.7s-46.8-9.7-76.8-29.9h-38.6L96.2 528.3c18-28.2 52.8-74.4 90.7-92.6 47.5-22.9 83.4-13.8 118.4-30.6 32.8-15.7 53.1-37.1 55.7-58.3m65.6-1.4-10.5-16-10.5 16h21zm23.8 0-10.5-16-10.5 16h21zm23.9 0-10.5-16-10.5 16h21zm20-90.5H288.8v46.8h205.5c12.9 0 23.4-10.5 23.4-23.4 0-13-10.5-23.4-23.4-23.4"></path></svg>