<svg data-name="Layer 1" xmlns="http://www.w3.org/2000/svg" viewBox="0 0 603.28 609.9"><path d="M301.64 451.51C135.05 451.51 0 486.97 0 530.71s135.05 79.2 301.64 79.2 301.64-35.46 301.64-79.2-135.05-79.19-301.64-79.19Z"></path><ellipse cx="301.82" cy="375.01" rx="213.43" ry="56.04"></ellipse><ellipse cx="301.64" cy="259.65" rx="147.98" ry="38.85"></ellipse><path d="M301.81 200.32c54.96 0 99.51-11.7 99.51-26.12 0-1.3-.36-2.59-1.07-3.84-.07-.13-.15-.26-.23-.38h.02L301.9 0l-98.32 170c-.84 1.37-1.29 2.77-1.29 4.2 0 14.43 44.55 26.12 99.51 26.12Z"></path></svg>