<svg data-name="Layer 1" xmlns="http://www.w3.org/2000/svg" viewBox="0 0 487.46 614.33"><path d="M219.54 0H191.7v64.01h-64.01v27.84h91.85V0zM359.78 64.01h-64.01V0h-27.84v91.85h91.85V64.01zM267.93 128.08v108.57c63.57 11.45 111.95 67.14 111.95 133.95 0 75.07-61.07 136.15-136.15 136.15S107.58 445.67 107.58 370.6c0-66.81 48.39-122.5 111.96-133.95V128.08C96.46 140.26 0 244.37 0 370.6c0 134.39 109.34 243.73 243.73 243.73S487.46 504.99 487.46 370.6c0-126.23-96.46-230.34-219.53-242.52Zm-24.19 458.41c-119.04 0-215.89-96.85-215.89-215.89 0-101.1 69.88-186.12 163.86-209.47v53.97c-64.99 21.8-111.96 83.25-111.96 155.5 0 90.43 73.57 163.99 164 163.99s163.99-73.57 163.99-163.99c0-72.24-46.96-133.69-111.95-155.5v-53.97c93.98 23.35 163.85 108.37 163.85 209.47 0 119.04-96.84 215.89-215.88 215.89Z"></path></svg>