<svg xmlns="http://www.w3.org/2000/svg" width="612.5" viewBox="0 0 612.5 595.8" height="595.8" xml:space="preserve" style="enable-background:new 0 0 612.5 595.8"><path d="M136.6 141.1h164.5C301.1 63.6 230 0 173.1 0H0c0 77.4 72.3 141.1 136.6 141.1z"></path><path d="M310.9 141.1h144.5C455.4 63.6 382.5 0 325.7 0H216c51.2 23.7 94.9 78.2 94.9 141.1zm-5.1-129.7c10.6 0 19.2 8.6 19.2 19.2s-8.6 19.2-19.2 19.2-19.2-8.6-19.2-19.2 8.6-19.2 19.2-19.2zM129.7 291.3h109.7c-51.3-23.7-94.9-78.2-94.9-141.1H0c0 77.5 72.8 141.1 129.7 141.1zM144.5 302.5H0c0 77.4 72.8 141 129.7 141h109.7c-51.2-23.7-94.9-78.1-94.9-141z"></path><path d="M612.5 291.3c0-77.4-74.6-141.1-131.4-141.1H371.4c51.2 23.7 94.9 78.2 94.9 141.1v6h-9.8v-6c0-77.4-69.4-141.1-126.3-141.1H155.4c0 59 44.2 116.7 100 135.2 30.7 10.2 68.7 4.6 100 12 63.8 15.1 111.7 79.3 111.7 142.7v9.5H456.5l-.3-17.5c-4.8-73.7-72.8-129.6-127.7-129.6H155.4c0 77.4 72.3 141 136.6 141h16.6v9.5H156.1c0 77.4 72.3 142.8 136.6 142.8h188.4c56.9 0 131.4-68.8 131.4-146.2h-.1.1V291.3zm-150.6-90c-10.6 0-19.2-8.6-19.2-19.2s8.6-19.2 19.2-19.2 19.2 8.6 19.2 19.2-8.6 19.2-19.2 19.2z"></path></svg>