<svg xmlns="http://www.w3.org/2000/svg" width="585.2" viewBox="0 0 585.2 620.8" height="620.8" xml:space="preserve" style="enable-background:new 0 0 585.2 620.8"><path d="M534.7 319.6H385.8c-27.9 0-50.4 22.6-50.4 50.4 0 27.9 22.6 50.4 50.4 50.4h148.9c27.8 0 50.4-22.6 50.4-50.4.1-27.8-22.5-50.4-50.4-50.4zm-148.9 96c-25.2 0-45.6-20.4-45.6-45.6 0-25.2 20.4-45.6 45.6-45.6 25.2 0 45.6 20.4 45.6 45.6.1 25.2-20.4 45.6-45.6 45.6zM50.4 302.8h148.9c27.9 0 50.4-22.6 50.4-50.4S227.1 202 199.3 202H50.4C22.6 201.9 0 224.5 0 252.3s22.6 50.5 50.4 50.5zm148.9-96.1c25.2 0 45.6 20.4 45.6 45.6 0 25.2-20.4 45.6-45.6 45.6-25.2 0-45.6-20.4-45.6-45.6 0-25.2 20.4-45.6 45.6-45.6zM175.3 76l75.4 128.4c14.1 24 45 32.1 69 18 24-14.1 32.1-45 18-69L262.3 24.9c-14.1-24-45-32.1-69-18-24 14.2-32.1 45.1-18 69.1zm158.2 79.7c12.8 21.7 5.5 49.7-16.2 62.5-21.7 12.8-49.7 5.5-62.5-16.2-12.8-21.7-5.5-49.7 16.2-62.5 21.8-12.8 49.8-5.5 62.5 16.2zM416 98l-73.9 129.2c-13.8 24.2-5.4 55 18.7 68.8 24.2 13.8 55 5.4 68.8-18.7l73.9-129.2c13.8-24.2 5.4-55-18.7-68.8-24.2-13.9-55-5.5-68.8 18.7zm9.5 177c-12.5 21.9-40.4 29.5-62.3 16.9-21.9-12.5-29.5-40.4-17-62.3s40.4-29.5 62.3-17c21.9 12.6 29.5 40.5 17 62.4zM99.6 541.9c24 14.1 54.9 6.1 69-18L244 395.6c14.1-24 6.1-54.9-17.9-69-24-14.1-54.9-6.1-69 18L81.7 472.9c-14.1 24-6.1 54.9 17.9 69zm77.8-132.5c-21.7-12.8-29-40.7-16.2-62.5 12.8-21.7 40.7-29 62.4-16.2 21.7 12.8 29 40.7 16.2 62.4-12.7 21.8-40.6 29-62.4 16.3zM393.4 614.2c24.2-13.8 32.6-44.6 18.7-68.8l-73.9-129.2c-13.8-24.2-44.6-32.6-68.8-18.7-24.2 13.8-32.6 44.6-18.7 68.8l73.9 129.2c13.8 24.1 44.6 32.5 68.8 18.7zm-76.3-133.4c-21.9 12.5-49.8 4.9-62.3-17s-4.9-49.7 17-62.3c21.9-12.5 49.7-4.9 62.3 16.9 12.4 22 4.9 49.9-17 62.4z"></path></svg>