<svg data-name="Layer 1" xmlns="http://www.w3.org/2000/svg" viewBox="0 0 594.83 511.24"><path d="M0 0v13.72h171.16l-8.84 15.31H279.9l-8.84 15.31h52.71l-8.84-15.31h117.58l-8.84-15.31h171.16V0H0zM159.03 482.21h276.64v29.03H159.03zM0 67.3h140.23l-8.84 15.31h117.57l-8.83 15.31h114.58l-8.84-15.31h117.57l-8.83-15.31h140.22V53.58H0V67.3zM0 120.88h109.29l-8.83 15.31h117.57l-8.84 15.31h176.45l-8.84-15.31h117.58l-8.84-15.31h109.29v-13.72H0v13.72zM0 174.46h78.36l-8.84 15.31H187.1l-8.84 15.3H282.9l14.52-25.15 14.52 25.15h104.63l-8.83-15.3h117.57l-8.84-15.31h78.36v-13.72H0v13.72zM342.87 258.65h104.64l-8.84-15.31h117.57l-8.83-15.3h47.42v-13.73H317.27l25.6 44.34zM373.8 312.23h104.64l-8.84-15.31h117.58l-8.84-15.3h16.49v-13.73H348.2l25.6 44.34zM38.59 243.34h117.57l-8.84 15.31h104.64l25.6-44.34H0v13.73h47.43l-8.84 15.3zM7.65 296.92h117.58l-8.84 15.31h104.64l25.6-44.34H0v13.73h16.49l-8.84 15.3zM404.74 365.81h104.64l-8.84-15.31h94.29v-29.03H379.14l25.6 44.34zM435.67 419.39h104.64l-8.84-15.31h63.36v-29.03H410.07l25.6 44.34zM85.46 365.81h104.63l25.6-44.34H0v29.03h94.3l-8.84 15.31zM54.52 419.39h104.64l25.6-44.34H0v29.03h63.36l-8.84 15.31zM351.57 457.66h-96.94v-28.43H0v28.79h159.03v14.95h276.64v-14.95h159.16v-28.79H351.57v28.43z"></path></svg>