<svg xmlns="http://www.w3.org/2000/svg" width="592.18" viewBox="0 0 592.18 592.18" height="592.18" style="enable-background:new 0 0 592.18 592.18" xml:space="preserve"><path d="m296.09 280.85 135.88-135.39c33.18-33.18 33.18-87.17 0-120.36-31.93-31.93-83.29-33.36-116.91-3.25l-.51.46v82.93l2.95 2.95 38.61-38.61c8.65-8.65 22.73-8.65 31.38 0 4.18 4.18 6.49 9.75 6.49 15.69 0 5.93-2.29 11.49-6.45 15.65l-91.35 91.02-91.19-91.19c-8.65-8.65-8.65-22.73 0-31.38 8.65-8.65 22.73-8.65 31.38 0l38.92 38.92 2.44-2.44V21.94l-.51-.46c-33.63-29.91-84.9-28.41-116.73 3.42-33.18 33.18-33.18 87.17 0 120.35l135.6 135.6zM280.85 296.09l-135.59-135.6c-33.18-33.18-87.17-33.18-120.35 0-31.83 31.83-33.33 83.09-3.42 116.71l.46.51h83.93l2.44-2.44-38.92-38.92c-8.65-8.65-8.65-22.73 0-31.38 8.65-8.65 22.73-8.65 31.38 0l91.19 91.19-91.02 91.35c-4.16 4.16-9.72 6.46-15.64 6.46h-.02c-5.93 0-11.51-2.31-15.69-6.49a22.074 22.074 0 0 1-6.49-15.69c0-5.93 2.3-11.51 6.49-15.69l38.61-38.61-2.95-2.95H22.32l-.46.51c-30.11 33.62-28.69 84.98 3.25 116.91 16.59 16.59 38.38 24.89 60.18 24.89 21.79 0 43.59-8.3 60.18-24.89l135.38-135.87zM296.09 311.33 160.21 446.71c-16.05 16.05-24.89 37.42-24.89 60.18 0 22.76 8.84 44.13 24.89 60.18 31.94 31.93 83.29 33.36 116.91 3.25l.51-.46v-82.93l-2.95-2.95-38.61 38.61c-8.65 8.65-22.73 8.65-31.38 0-8.65-8.65-8.67-22.71-.04-31.34L296 400.23l91.19 91.19c4.18 4.18 6.49 9.76 6.49 15.69 0 5.94-2.3 11.51-6.49 15.69-4.18 4.18-9.76 6.49-15.69 6.49-5.94 0-11.51-2.3-15.69-6.49l-38.91-38.92-2.44 2.43v83.94l.51.46c16.14 14.36 36.34 21.48 56.51 21.48 21.84 0 43.65-8.35 60.2-24.9 16.05-16.05 24.89-37.42 24.89-60.18 0-22.76-8.84-44.13-24.89-60.18l-135.59-135.6zM570.7 314.98l-.46-.51H486.3l-2.43 2.44 38.92 38.91c4.18 4.18 6.49 9.76 6.49 15.69s-2.3 11.51-6.49 15.69c-8.65 8.65-22.73 8.65-31.38 0l-91.19-91.19 91.02-91.35c8.63-8.63 22.69-8.61 31.35.04 8.65 8.65 8.65 22.73 0 31.38l-38.61 38.61 2.95 2.95h82.93l.46-.51c30.12-33.62 28.69-84.98-3.25-116.91-16.05-16.05-37.42-24.89-60.18-24.89-22.76 0-44.13 8.84-60.18 24.89L312.41 295l-1.08 1.08 135.59 135.59c16.59 16.59 38.38 24.89 60.18 24.89 21.79 0 43.59-8.3 60.18-24.89 31.82-31.82 33.33-83.08 3.42-116.69z"></path></svg>