<svg xmlns="http://www.w3.org/2000/svg" width="505" viewBox="0 0 505 609.9" height="609.9" style="enable-background:new 0 0 505 609.9" xml:space="preserve"><path d="M251.4 224.6 126.7 609.9H0l132.5-409.4C178 59.8 278.8 0 405.9 0h97.2v120.5h-99.9c-37.4 0-122.2 12.9-151.8 104.1m-53.8 248.5-45.1 136.7h126.7l33.7-102.6c14.9-43.8 46.1-69.6 103.5-69.6h86.7V317.1h-91.9c-83.4 0-176.1 46-213.6 156m219.9-327.8c-86.9 0-126.9 40.5-142.6 89-16.2 49.9-45.4 139.8-45.4 139.8 61.2-68.2 131.5-81.7 183-81.7h16.1c55.8 0 76.5-45.4 76.5-73.3-.1-29.4-15.6-73.8-87.6-73.8"></path></svg>