<svg xmlns="http://www.w3.org/2000/svg" width="591.7" viewBox="0 0 591.7 591.7" height="591.7"><path d="M245 332.9c4.6 6.3 8.7 11.6 15 16 10.5 7.3 22.9 11.2 35.8 11.2 34.6 0 62.8-28.2 62.8-62.8s-28.2-62.8-62.8-62.8c-27.1 0-50.9 17.3-59.5 42.6-4.7-13.4-7-27.5-7-41.9 0-70.4 57.3-127.7 127.7-127.7h167l-2.2-2.6C465.4 38.3 383 0 295.8 0 170.8 0 58.7 79.2 17 197l-.7 2.1h131.2L245 332.9z"></path><path d="M585.4 234.9l-.3-1.2H471.8l.7 2.1c6.9 19.7 10.4 40.5 10.4 61.6 0 50.3-19.6 97.6-55.3 133-35.1 34.9-81.4 54-130.6 54h-1.1c-61.9-.4-119.7-30.9-154.7-81.8l-128-194.1-1 3.2C4.1 239 0 267.4 0 295.8 0 459 132.7 591.7 295.8 591.7c163.1 0 295.8-132.7 295.8-295.8.1-20.5-2-41-6.2-61z"></path></svg>