<svg data-name="Layer 1" xmlns="http://www.w3.org/2000/svg" viewBox="0 0 594 625.59"><path d="M579.27 373.72 405.72 194.59v117.75l94.71 97.75-94.71 97.75v117.75l173.55-179.13c19.64-20.27 19.64-52.46 0-72.73ZM14.73 446.45l173.55 179.13V507.83l-94.71-97.75 94.71-97.75V194.58L14.73 373.72c-19.64 20.27-19.64 52.46 0 72.73ZM297 374.85c-47.23 0-85.51 38.29-85.51 85.51s38.28 85.51 85.51 85.51 85.51-38.28 85.51-85.51-38.28-85.51-85.51-85.51ZM297 0c-47.23 0-85.51 38.28-85.51 85.51s38.28 85.51 85.51 85.51 85.51-38.28 85.51-85.51S344.22 0 297 0Z"></path></svg>