<svg xmlns="http://www.w3.org/2000/svg" width="617.3" viewBox="0 0 617.3 585.5" height="585.5" xml:space="preserve" style="enable-background:new 0 0 617.3 585.5"><path d="M0 0h141.7v141.7H0zM0 159v95.4c27.9 0 50.6 22.7 50.6 50.6S27.9 355.7 0 355.7v229.9h141.7V159H0zM158.5 159v95.4c27.9 0 50.6 22.7 50.6 50.6s-22.7 50.6-50.6 50.6v229.9h141.7V159H158.5zM317.1 159v95.4c27.9 0 50.6 22.7 50.6 50.6s-22.7 50.6-50.6 50.6v229.9h141.7V159H317.1zM475.6 159v95.4c27.9 0 50.6 22.7 50.6 50.6s-22.7 50.6-50.6 50.6v229.9h141.7V159H475.6z"></path></svg>