<svg xmlns="http://www.w3.org/2000/svg" width="412.2" viewBox="0 0 412.2 619.2" height="619.2" xml:space="preserve" style="enable-background:new 0 0 412.2 619.2"><path d="M173.4 412.1h99.4v-67.3h-99.4c-57.2 0-103.8-46.6-103.8-103.8 0-57.2 46.6-103.8 103.8-103.8h137.5v70l101.3-103.6L310.9 0v70H173.4c-94.3 0-171 76.7-171 171-.1 94.3 76.7 171.1 171 171.1z"></path><path d="M238.8 207.2h-99.4v67.3h99.4c57.2 0 103.8 46.6 103.8 103.8 0 57.2-46.6 103.8-103.8 103.8H101.3v-70L0 515.7l101.3 103.6v-70h137.5c94.3 0 171-76.7 171-171 0-94.4-76.7-171.1-171-171.1z"></path></svg>