<svg xmlns="http://www.w3.org/2000/svg" width="615.5" viewBox="0 0 615.5 582.1" height="582.1" style="enable-background:new 0 0 615.5 582.1" xml:space="preserve"><path d="M615.5 317.9V0H0v317.9h155.4V155.1h41.3v204.3H0v222.7h615.5V359.4H418.8V155.1h41.3v162.8h155.4zm-221-187.2v253h196.7v174H24.3v-174H221v-253h-90v162.8H24.3V24.3h566.9v269.2H484.5V130.7h-90zM526.2 90H353.4v335h197.1v91.5H65V425h197.1V90H89.4v159.8H65V65.7h221.4v383.7h-197v42.8h436.8v-42.8H329.1V65.7h221.4v184.1h-24.3V90z"></path></svg>