<svg xmlns="http://www.w3.org/2000/svg" width="618.4" viewBox="0 0 618.4 617.7" height="617.7" style="enable-background:new 0 0 618.4 617.7" xml:space="preserve"><path d="M618.4 83.5c0-45.8-37-83.1-82.7-83.5H375.6v33C360.5 13.1 336.8.3 310 0H149.9v33C134.6 13 110.5 0 83.5 0 37.5 0 0 37.5 0 83.5v158.9h33c-20 15.3-33 39.4-33 66.4v158.9h33C13 483 0 507.1 0 534.1c0 46 37.5 83.5 83.5 83.5h159.3v-33c15.3 20 39.4 33 66.4 33h159.3v-33c15.3 20 39.4 33 66.4 33 46 0 83.5-37.5 83.5-83.5V375.3h-33c20-15.3 33-39.4 33-66.4v-159h-33c20.1-15.2 33-39.3 33-66.4zm-17.1 0c0 36.6-29.8 66.4-66.4 66.4-36.6 0-66.4-29.8-66.4-66.4 0-36.6 29.8-66.4 66.4-66.4 36.6 0 66.4 29.8 66.4 66.4zM392.7 17.1h91.6c-20 15.3-33 39.4-33 66.4v66.4h-91.6c20-15.3 33-39.4 33-66.4V17.1zm0 433.6v-58.3h58.7v58.3h-58.7zm-17.1 32.9c-15.1-19.8-38.9-32.7-65.6-32.9h-67.2v-91.3c15.3 20 39.4 33 66.4 33h66.4v91.2zM225.7 167v58.3H167V167h58.7zm17.1-32.9c15.3 20 39.4 33 66.4 33h66.4v91.3c-15.1-19.8-38.9-32.7-65.6-32.9h-67.2v-91.4zm66.4 241.2c-36.6 0-66.4-29.8-66.4-66.4 0-36.6 29.8-66.4 66.4-66.4 36.6 0 66.4 29.8 66.4 66.4 0 36.6-29.8 66.4-66.4 66.4zM167 242.4h91.6c-20 15.3-33 39.4-33 66.4v66.4l-91.8.1C154 360.1 167 336 167 308.8v-66.4zm58.7 150v58.3H167v-58.2l58.7-.1zm225.7-17.1h-91.6c20-15.3 33-39.4 33-66.4v-66.4h91.6c-20 15.3-33 39.4-33 66.4v66.4zm-58.7-150V167h58.7v58.3h-58.7zM375.6 83.5c0 36.6-29.8 66.4-66.4 66.4-36.6 0-66.4-29.8-66.4-66.4 0-36.6 29.8-66.4 66.4-66.4 36.6 0 66.4 29.8 66.4 66.4zM167 17.1h91.6c-20 15.3-33 39.4-33 66.4v66.4H134c20-15.3 33-39.4 33-66.4V17.1zm-83.5 0c36.6 0 66.4 29.8 66.4 66.4 0 36.6-29.8 66.4-66.4 66.4-36.6 0-66.4-29.8-66.4-66.4 0-36.6 29.8-66.4 66.4-66.4zM17.1 225.3V134c15.3 20 39.4 33 66.4 33h66.4v91.3c-15.3-20-39.4-33-66.4-33H17.1zm66.4 17.1c36.6 0 66.4 29.8 66.4 66.4 0 36.6-29.8 66.4-66.4 66.4-36.6 0-66.4-29.8-66.4-66.4 0-36.6 29.8-66.4 66.4-66.4zM17.1 450.7v-91.3c15.3 20 39.4 33 66.4 33v.2l66.4-.1v91.1c-15.3-20-39.4-33-66.4-33H17.1zm0 83.5c0-36.6 29.8-66.4 66.4-66.4 36.6 0 66.4 29.8 66.4 66.4 0 36.6-29.8 66.4-66.4 66.4-36.6 0-66.4-29.8-66.4-66.4zm208.6 66.4h-91.6c20-15.3 33-39.4 33-66.4v-66.4h91.6c-20 15.3-33 39.4-33 66.4v66.4zm17.1-66.4c0-36.6 29.8-66.4 66.4-66.4 36.6 0 66.4 29.8 66.4 66.4 0 36.6-29.8 66.4-66.4 66.4-36.6 0-66.4-29.8-66.4-66.4zm208.6 66.4h-91.6c20-15.3 33-39.4 33-66.4v-66.4h91.6c-20 15.3-33 39.4-33 66.4v66.4zm83.5 0c-36.6 0-66.4-29.8-66.4-66.4 0-36.6 29.8-66.4 66.4-66.4 36.6 0 66.4 29.8 66.4 66.4 0 36.6-29.8 66.4-66.4 66.4zm66.4-208.2v91.3c-15.1-19.8-38.9-32.7-65.6-32.9h-67.2v-91.3c15.3 20 39.4 33 66.4 33h66.4zm-66.4-17.1c-36.6 0-66.4-29.8-66.4-66.4 0-36.6 29.8-66.4 66.4-66.4 36.6 0 66.4 29.8 66.4 66.4 0 36.6-29.8 66.4-66.4 66.4zM601.3 167v91.3c-15.1-19.8-38.9-32.7-65.6-32.9h-67.2v-91.3c15.3 20 39.4 33 66.4 33h66.4z"></path></svg>