<svg xmlns="http://www.w3.org/2000/svg" width="642" viewBox="0 0 642 518.42" height="518.42" data-name="Layer_1"><path d="M0 0h193.36l65.61 65.6L324.57 0h193.36v248.37H642v145.85H517.93v124.19H372.2V394.22H269.8v124.19H0V0Zm258.97 243.64L480.94 21.67H333.55l-74.58 74.58-74.59-74.58H36.99l221.98 221.98Zm113.23 4.73v-87.32l-87.32 87.32h87.32ZM21.67 496.75h226.47V394.23H124.07V139.39L21.67 36.99v459.76Zm226.46-124.19V263.45l-102.4-102.4v211.51h102.4Zm21.67-102.52v102.52h124.07v124.19h102.4V372.56h124.07V270.04H496.27V36.99l-102.4 102.4v130.65H269.8Z"></path></svg>