<svg xmlns="http://www.w3.org/2000/svg" width="627.6" viewBox="0 0 627.6 617.6" height="617.6" style="enable-background:new 0 0 627.6 617.6" xml:space="preserve"><path class="st0" d="M409.8 386.3c19.1-22.2 30.6-51 30.6-82.5 0-3.5-.2-6.9-.4-10.3 23 31.2 64.3 45.8 103.2 33.2 48.7-15.8 75.3-68.1 59.5-116.7-15.8-48.7-68.1-75.3-116.7-59.5-38.9 12.7-63.7 48.6-64 87.4-17.4-28.4-45.6-49.4-78.9-57.3 36.8-12.3 63.4-47 63.4-87.9C406.5 41.5 365 .1 313.9.1s-92.6 41.5-92.6 92.6c0 40.9 26.6 75.6 63.4 87.9-33.3 7.9-61.6 28.9-78.9 57.3-.3-38.8-25.1-74.8-64-87.4C93.1 134.7 40.9 161.3 25.1 210 9 258.6 35.7 310.8 84.3 326.6c38.9 12.7 80.2-1.9 103.2-33.2-.3 3.4-.4 6.8-.4 10.3 0 31.5 11.5 60.3 30.6 82.5-37-11.8-78.9.7-103 33.8-30.1 41.4-20.9 99.3 20.5 129.4 41.4 30.1 99.3 20.9 129.4-20.5 24.1-33.1 23-76.8.4-108.3 15 6.3 31.5 9.7 48.7 9.7 17.3 0 33.7-3.5 48.7-9.7-22.6 31.6-23.7 75.2.4 108.3 30.1 41.4 88 50.6 129.4 20.5 41.4-30.1 50.6-88 20.5-129.4-24-33-65.9-45.5-102.9-33.7z"></path><path class="st0" d="M627.6 303.8c0-3 0-5.9-.1-8.9-.1.3-.3.6-.4.9-15.3 30-41.4 52.3-73.5 62.7-12.7 4.1-25.8 6.2-39 6.2-5.6 0-11.2-.4-16.6-1.1 16.4 8.9 30.9 21.3 42.1 36.7 20.7 28.5 27.7 62.8 22.3 95.1 40.8-53 65.2-119.4 65.2-191.6zM335.8 548.7c-11.4-15.7-18.7-33.3-22-51.2-3.3 18-10.5 35.5-22 51.2-20 27.5-50.4 45.7-83.7 50.6 33 11.8 68.6 18.3 105.7 18.3s72.7-6.5 105.7-18.3c-33.3-4.9-63.7-23-83.7-50.6zM427.7 147c13.2-12.6 29.4-22.5 47.9-28.5 12.7-4.1 25.8-6.2 39-6.2 20.7 0 40.4 5 57.9 14-40.4-58.7-100.2-103-170.3-123.6C425.5 25.6 440 57.5 440 92.6c0 19.5-4.4 37.9-12.3 54.4zM129.7 363.7c-5.5.7-11 1.1-16.7 1.1-13.2 0-26.4-2.1-39-6.2-32.1-10.4-58.2-32.7-73.4-62.7-.1-.3-.3-.6-.4-.9-.2 2.9-.2 5.9-.2 8.8C0 376 24.4 442.4 65.3 495.5c-5.4-32.3 1.6-66.6 22.3-95.1 11.2-15.4 25.7-27.9 42.1-36.7zM113 112.3c13.2 0 26.3 2.1 39 6.2 18.5 6 34.7 15.9 47.9 28.5-7.9-16.5-12.3-34.9-12.3-54.4 0-35.2 14.5-67 37.8-89.9C155.3 23.3 95.4 67.6 55 126.3c17.5-9 37.3-14 58-14z"></path></svg>