<svg data-name="Layer 1" xmlns="http://www.w3.org/2000/svg" viewBox="0 0 527.83 604.6"><path d="M391.9 169.98c-8.1 14.83-11.19 30.76-12.25 47.08s0 107.94 0 107.94c0 41.42-33.93 75.02-75.23 71.83-35.93-2.77-64.47-33.04-64.47-69.64v-96.54c-.55-15.63-2-31.18-5.57-46.55-4.85-23.32-16.44-42.59-34.57-58.07-16.73-14.63-37.86-22.26-56.1-34.48C113.49 70.79 98.61 36.04 104.27.2c.03-.19-.22-.27-.3-.1L17.86 178.99C3.5 207.85-6.32 242.47 4.79 274.03 15.6 304.5 46.9 317.29 72 333.77c22.28 14.64 43.53 32.91 56.55 56.81 12.25 22.49 12.9 45.82 12.9 70.72v71.19c0 41.05 33.63 74.73 74.59 71.95 22.03-1.49 41.97-13.35 54.07-32.22 4.54-6.8 8.38-14.12 12.4-21.21L527.62 90.47c.9-1.69-1.3-3.5-2.65-2.15-12.76 12.74-24.61 19.64-46.21 24.81-34.38 8.23-69.82 23.89-86.86 56.85Z"></path></svg>