<svg xmlns="http://www.w3.org/2000/svg" width="592.4" viewBox="0 0 592.4 592.4" height="592.4" xml:space="preserve"><path d="m374.3 218.1-49.5-28.6-28.6 106.7z"></path><path d="M374.3 218.1 469 54l-49.5-28.6-94.7 164.1L440.5 46.2z"></path><path d="M402.9 267.6 567 172.9l-28.6-49.6-164.1 94.8 171.8-66.2zM402.9 324.8v-57.2l-106.7 28.6zM592.4 267.6H402.9l181.9 28.6-181.9 28.6h189.5z"></path><path d="M374.3 374.3 538.4 469l28.6-49.5-164.1-94.7 143.2 115.7zM324.8 402.9l49.5-28.6-78.1-78.1z"></path><path d="M324.8 402.9 419.5 567l49.5-28.6-94.7-164.1 66.2 171.8zM267.6 402.9v189.5h57.2V402.9l-28.6 181.9z"></path><path d="m218.1 374.3 49.5 28.6 28.6-106.7z"></path><path d="m218.1 374.3-94.8 164.1 49.6 28.6 94.7-164.1-115.7 143.2zM189.5 324.8 25.4 419.5 54 469l164.1-94.7-171.9 66.2zM189.5 267.6v57.2l106.7-28.6zM189.5 267.6H0v57.2h189.5L7.6 296.2zM218.1 218.1 54 123.3l-28.6 49.6 164.1 94.7L46.2 151.9zM218.1 218.1l78.1 78.1-28.6-106.7z"></path><path d="M267.6 189.5 296.2 7.6l28.6 181.9V0h-57.2v189.5L172.9 25.4 123.3 54l94.8 164.1-66.2-171.9z"></path></svg>