<svg xmlns="http://www.w3.org/2000/svg" width="621.6" viewBox="0 0 621.6 586.6" height="586.6" xml:space="preserve"><path d="M207.2 0 0 207.8v32.5L207.2 32.5zM207.2 69.2 0 277v32.5l207.2-207.7zM207.2 138.5 0 346.3v32.5L207.2 171zM414.4 32.5V0L0 415.5V448zM414.4 101.8V69.2L0 484.7v32.6zM414.4 171v-32.5L0 554v32.5zM207.2 484.7v32.6l414.4-415.4V69.4zM207.2 554v32.5l414.4-415.4v-32.5zM207.2 415.5V448L621.6 32.6V.1zM414.4 448.1l207.2-207.7v-32.6L414.4 415.6zM414.4 517.4l207.2-207.8v-32.5L414.4 484.9zM414.4 586.6l207.2-207.8v-32.5L414.4 554.1z"></path></svg>