<svg data-name="Layer 1" xmlns="http://www.w3.org/2000/svg" viewBox="0 0 608.51 519.82"><path d="M256 192.29c-6.83 0-12.37 5.54-12.37 12.37s5.54 12.37 12.37 12.37 12.37-5.54 12.37-12.37-5.54-12.37-12.37-12.37ZM165.63 204.66c0-6.83-5.54-12.37-12.37-12.37s-12.37 5.54-12.37 12.37 5.54 12.37 12.37 12.37 12.37-5.54 12.37-12.37Z"></path><path d="M403.85 0c-36.12 0-70.07 9.45-99.56 25.94A204.606 204.606 0 0 0 204.65 0C91.81 0 0 91.81 0 204.66c0 71.12 37.59 137.82 98.32 174.84v140.32h10.92V373.28l-2.69-1.58c-58.98-34.72-95.63-98.73-95.63-167.04 0-106.83 86.91-193.74 193.73-193.74 30.97 0 61.44 7.48 88.75 21.58-56.61 36.44-94.21 99.97-94.21 172.16v97.78h51.35v37.65h-97.23v10.92h97.23v49.71h46.98v119.11h10.92V389.8h-46.98v-38.79h46.47v-10.92h-46.47v-48.57h-51.35v-86.86c0-106.82 86.91-193.74 193.73-193.74s193.74 86.91 193.74 193.74c0 68.31-36.64 132.32-95.63 167.04l-2.69 1.58v146.54h10.92V379.5c60.73-37.02 98.32-103.72 98.32-174.84C608.51 91.81 516.7 0 403.85 0Z"></path></svg>