<svg data-name="Layer 1" xmlns="http://www.w3.org/2000/svg" viewBox="0 0 601 601"><path d="M601 158.65V0h-94.6v13.51C486.81 4.85 465.15 0 442.35 0 380.27 0 326.56 35.67 300.5 87.62 274.44 35.67 220.72 0 158.65 0c-22.8 0-44.46 4.85-64.05 13.51V0H0v158.65c0 62.08 35.67 115.79 87.62 141.85C35.67 326.56 0 380.28 0 442.35V601h94.6v-13.51c19.6 8.66 41.25 13.51 64.05 13.51 62.08 0 115.79-35.67 141.85-87.62C326.56 565.33 380.28 601 442.35 601c22.8 0 44.46-4.85 64.05-13.51V601H601V442.35c0-62.08-35.67-115.79-87.62-141.85C565.33 274.44 601 220.72 601 158.65ZM442.35 94.6c35.38 0 64.05 28.68 64.05 64.05s-28.68 64.05-64.05 64.05-64.05-28.68-64.05-64.05 28.68-64.05 64.05-64.05Zm-283.7 0c35.38 0 64.05 28.68 64.05 64.05s-28.68 64.05-64.05 64.05-64.05-28.68-64.05-64.05 28.68-64.05 64.05-64.05Zm0 411.81c-35.38 0-64.05-28.68-64.05-64.05s28.68-64.05 64.05-64.05 64.05 28.68 64.05 64.05-28.68 64.05-64.05 64.05ZM300.5 371.33c-15.34-30.57-40.25-55.48-70.82-70.82 30.57-15.34 55.48-40.25 70.82-70.82 15.34 30.57 40.25 55.48 70.82 70.82-30.57 15.34-55.48 40.25-70.82 70.82Zm141.85 135.08c-35.38 0-64.05-28.68-64.05-64.05s28.68-64.05 64.05-64.05 64.05 28.68 64.05 64.05-28.68 64.05-64.05 64.05Z"></path></svg>