<svg xmlns="http://www.w3.org/2000/svg" viewBox="0 0 642 597.06"><path d="M118.77 119.41H0v-59.7L59.39 0l59.38 59.71v59.7zM118.77 238.82H0v-59.7l59.39-59.71 59.38 59.71v59.7zM118.77 358.24H0v-59.71l59.39-59.71 59.38 59.71v59.71zM118.77 477.65H0v-59.71l59.39-59.7 59.38 59.7v59.71z"></path><path d="M118.77 597.06H0v-59.71l59.39-59.7 59.38 59.7v59.71zM249.58 238.82H130.81v-59.7l59.38-59.71 59.39 59.71v59.7zM249.58 358.24H130.81v-59.71l59.38-59.71 59.39 59.71v59.71zM249.58 477.65H130.81v-59.71l59.38-59.7 59.39 59.7v59.71z"></path><path d="M249.58 597.06H130.81v-59.71l59.38-59.7 59.39 59.7v59.71zM380.39 358.24H261.61v-59.71L321 238.82l59.39 59.71v59.71zM380.39 477.65H261.61v-59.71l59.39-59.7 59.39 59.7v59.71zM511.19 238.82H392.42v-59.7l59.39-59.71 59.38 59.71v59.7zM511.19 358.24H392.42v-59.71l59.39-59.71 59.38 59.71v59.71zM511.19 477.65H392.42v-59.71l59.39-59.7 59.38 59.7v59.71z"></path><path d="M511.19 597.06H392.42v-59.71l59.39-59.7 59.38 59.7v59.71zM642 119.41H523.23v-59.7L582.61 0 642 59.71v59.7zM642 238.82H523.23v-59.7l59.38-59.71L642 179.12v59.7zM642 358.24H523.23v-59.71l59.38-59.71L642 298.53v59.71zM642 477.65H523.23v-59.71l59.38-59.7 59.39 59.7v59.71z"></path><path d="M642 597.06H523.23v-59.71l59.38-59.7 59.39 59.7v59.71z"></path></svg>