<svg id="a" data-name="Layer 1" xmlns="http://www.w3.org/2000/svg" width="642" viewBox="0 0 642 642" height="642">
  <defs>
    <style>
      .b {
        fill-rule: evenodd;
      }
    </style>
  </defs>
  <path class="b" d="m433.25,184.38l-112.25,115.72-112.25-115.72h66.48v-80.43c-78.11,16.39-141.12,73.87-165.29,148.77H6.94C38.38,108.26,167.09,0,321,0c15.56,0,30.79,1.09,45.77,3.28v181.11h66.48Z"></path>
  <path class="b" d="m457.62,433.25l-115.72-112.25,115.72-112.25v66.48s80.43,0,80.43,0c-16.39-78.11-73.87-141.12-148.77-165.29V6.94c144.46,31.44,252.72,160.15,252.72,314.06,0,15.56-1.09,30.79-3.28,45.77h-181.11s0,66.48,0,66.48Z"></path>
  <path class="b" d="m208.75,457.62l112.25-115.72,112.25,115.72h-66.48s0,80.43,0,80.43c78.11-16.39,141.12-73.87,165.29-148.77h102.99c-31.44,144.46-160.15,252.72-314.06,252.72-15.56,0-30.79-1.09-45.77-3.28v-181.11s-66.48,0-66.48,0Z"></path>
  <path class="b" d="m184.38,208.75l115.72,112.25-115.72,112.25v-66.48s-80.43,0-80.43,0c16.39,78.11,73.87,141.12,148.77,165.29v102.99C108.26,603.62,0,474.91,0,321c0-15.56,1.09-30.79,3.28-45.77h181.11s0-66.48,0-66.48Z"></path>
</svg>