<svg xmlns="http://www.w3.org/2000/svg" width="642" viewBox="0 0 642 642" height="642" style="overflow:visible;enable-background:new 0 0 642 642" xml:space="preserve"><path d="M321 0C143.7 0 0 143.7 0 321s143.7 321 321 321 321-143.7 321-321S498.3 0 321 0zm21.4 223.1H179.2c11.8-45.8 37.2-81.2 84.7-81.2 45.3 0 80 37.7 78.5 81.2zM281.9 268h284.4c-.6 0-73.4 147-176.1 142.9-40.1-1.6-78.1-24.9-97.7-59.9-21.5-38.3-12.2-83-10.6-83zm-237 53C44.9 168.8 168.8 44.9 321 44.9c117.7 0 218.5 74.1 258.1 178.2H386.2c.2-66.3-53.8-123.6-123.6-123.6-49.4 0-94.1 29.2-113.9 75.4-33.1 77.2-24.8 160.8 21 226.6 37.2 53.4 108.1 87.7 126.6 127.3 9.8 21 11.3 45.3 4.3 67.4C157.9 585.7 44.9 466.3 44.9 321zm302.2 274.8c2.9-.3 12.3-62.8-26.1-112.1-33.4-43.1-118.8-74.7-142.1-169.2-3.7-15.2-5.6-30.8-5.5-46.4h62.5c-2.1 0-2.5 30.3-2.4 33.2.9 32.3 11.5 62.1 29.4 86.8 40.4 55.9 114.5 82.8 183.4 58.9 78.5-27.3 150.8-132.8 150.4-140.2 7.6 149.1-104.5 275.3-249.6 289z"></path><circle cx="262.4" cy="193.1" r="24.1"></circle></svg>