<svg data-name="Layer 1" xmlns="http://www.w3.org/2000/svg" viewBox="0 0 620.27 621.68"><path d="M310.84 0c-55.35 0-107.28 14.53-152.29 39.89l152.29 80.95v167.71l156.56-84.2 152.87 77.36C605.58 123.71 472.68 0 310.84 0ZM310.84 332.68l-153.6 85.17v-166.7l-129.43-68.8C10 221.53 0 265 0 310.84c0 171.67 139.17 310.84 310.84 310.84 57.11 0 110.58-15.47 156.56-42.35V412.37l-156.56-79.94v.25Zm-20.56 156.15h-45.86v-74.25h45.86v74.25Zm41.13-74.25h45.86v74.25h-45.86v-74.25Z"></path><path d="M487.97 284.27h45.86v74.25h-45.86zM400.98 284.27h45.86v74.25h-45.86zM179.11 121.57h45.86v74.25h-45.86zM92.12 121.57h45.86v74.25H92.12z"></path></svg>