<svg xmlns="http://www.w3.org/2000/svg" id="a" width="642" viewBox="0 0 642 326.94" height="326.94" data-name="Layer 1"><defs></defs><path d="m22.04 223.26 11.22-52.98c.19-1.03.45-2.05.71-3.08 2.63-10.34 8.09-19.71 15.34-27.35 11.49-12.2 27.67-19.97 44.81-19.97h94.05c9.05 0 17.91-7.32 19.84-16.37 1.93-9.05-3.85-16.37-12.9-16.37H50.97L69.46.02h210.96c38.78 0 59.71 45.84 47.44 103.49-12.07 57.2-39.1 103.55-91.48 103.55h-115.3c-4.56 0-8.47 3.15-9.44 7.64l-1.81 8.55H22.04ZM288.16 239.79l-18.52 87.15H0l18.52-87.15h269.64zM401.41 207.04l107.05-.24c9.09 0 14.89 7.37 12.95 16.45-1.93 9.09-10.86 16.45-19.95 16.45H332.31l-18.54 87.23h198.48c60.25 0 95-63.87 103.5-103.68 12.5-59.79 5.39-103.36-47.72-103.36H457.51c-6.12 0-10.69-5.64-9.42-11.63l1.01-4.74h-87.84s-6.65 31.3-8.86 41.74l-3.88 18.21c-4.77 22.44 12.34 43.57 35.27 43.57h17.6ZM364.75 87.15 383.27 0H642l-18.52 87.15H364.75z" class="b"></path></svg>