<svg xmlns="http://www.w3.org/2000/svg" width="641.18" viewBox="0 0 641.18 528.18" height="528.18" data-name="Layer_1"><rect width="51.29" height="36.87" y="18.35" rx="8.01" ry="8.01"></rect><rect width="51.29" height="36.87" y="469.59" rx="8.01" ry="8.01"></rect><rect width="51.29" height="36.87" y="108.6" rx="8.01" ry="8.01"></rect><rect width="51.29" height="36.87" y="379.34" rx="8.01" ry="8.01"></rect><rect width="51.29" height="36.87" y="289.09" rx="8.01" ry="8.01"></rect><rect width="51.29" height="36.87" y="198.85" rx="8.01" ry="8.01"></rect><path d="M465.43 362.92c8.56 12.22-.18 29.01-15.1 29.01H253.27c-20.36 0-36.87-16.51-36.87-36.87V173.12c0-20.36 16.51-36.87 36.87-36.87h56.98c5.38 0 9.78 3.98 10.68 9.28a66.183 66.183 0 0 0 11.58 27.59l132.91 189.79ZM80.15 77.74v372.69c0 42.94 34.81 77.74 77.74 77.74h365.05c62.04 0 115.15-47.79 118.11-109.76 1.28-26.79-6.58-51.69-20.73-71.86l-126.96-181.3c-8.56-12.22.18-29.01 15.1-29.01h119.9V0H157.89c-42.94 0-77.74 34.81-77.74 77.74Z"></path></svg>