<svg xmlns="http://www.w3.org/2000/svg" width="621" viewBox="0 0 621 623" height="623"><path d="M165 168.8c-3.8.8-7 3-9.1 6.3-2.1 3.3-2.7 7.2-1.8 11 7.3 29.6 23.2 56 46.1 76.4 23.3 20.8 52 33.6 83 37.2.5.1 1 .1 1.6.1 3.2 0 6.2-1.1 8.7-3.2 3-2.4 4.8-6 5.1-9.9 2.9-37.2 18.3-73.1 43.3-101.2 25.1-28.1 57.6-47 94-54.5 3.8-.8 7-3 9.1-6.3 2.1-3.3 2.7-7.2 1.8-11-7.3-29.6-23.3-56-46.1-76.4-23.3-20.8-52-33.6-83-37.2-3.7-.4-7.4.7-10.3 3.1-3 2.4-4.8 6-5.1 9.9-2.9 37.1-18.3 73-43.3 101.1-25 28.1-57.5 47-94 54.6z"></path><path d="M155.9 141.6c2.6 2.3 5.8 3.5 9.2 3.5 1.2 0 2.4-.2 3.6-.5 28-7.5 53.1-22.9 72.7-44.4 20-22 33.3-50.6 37.5-80.5.7-4.6-1.1-9.2-4.6-12.3-3.6-3.2-8.4-4.3-13-3.1-28.5 7.7-54 23.6-73.7 45.9s-32.3 49.7-36.3 78.9c-.7 4.7 1 9.4 4.6 12.5zM617.9 307.5c-2.4-3-6-4.8-9.9-5.1-37.2-2.9-73.2-18.4-101.3-43.4-28.1-25-46.9-57.5-54.4-93.9-.8-3.8-3-7-6.3-9.1-3.3-2.1-7.2-2.7-11-1.8-29.6 7.3-56 23.3-76.4 46.1-20.8 23.3-33.6 52-37.1 83-.4 3.7.7 7.4 3.1 10.3 2.4 3 6 4.8 9.9 5.1 37.2 2.9 73.2 18.4 101.3 43.4 28.1 25 46.9 57.5 54.4 93.9.8 3.8 3 7 6.3 9.1 2.3 1.4 4.9 2.2 7.5 2.2 1.2 0 2.3-.1 3.5-.4 29.6-7.3 56-23.3 76.4-46.1 20.8-23.3 33.6-52 37.1-83 .4-3.7-.7-7.4-3.1-10.3z"></path><path d="M520.8 241.4c22 20 50.6 33.3 80.6 37.5.6.1 1.3.1 1.9.1 3.9 0 7.7-1.7 10.4-4.7 3.1-3.6 4.3-8.4 3.1-13-7.7-28.5-23.6-54-46-73.7-22.4-19.7-49.7-32.3-78.9-36.3-4.7-.6-9.4 1.1-12.5 4.7-3.1 3.5-4.2 8.3-3 12.7 7.5 28 22.8 53.1 44.4 72.7zM186 467.7c29.6-7.3 56-23.2 76.4-46.1 20.8-23.3 33.6-52 37.2-83 .4-3.7-.7-7.4-3.1-10.3-2.4-3-6-4.8-9.9-5.1-37.2-2.9-73.2-18.4-101.3-43.4-28.1-25-46.9-57.5-54.4-93.9-.8-3.8-3-7-6.3-9.1-3.3-2.1-7.2-2.7-11-1.8-29.6 7.3-56 23.2-76.4 46.1-20.8 23.3-33.6 52-37.2 83-.4 3.7.7 7.4 3.1 10.3 2.4 3 6 4.8 9.9 5.1 37.2 2.9 73.2 18.4 101.3 43.4 28.1 25 46.9 57.5 54.4 93.9.8 3.8 3 7 6.3 9.1 2.3 1.4 4.9 2.2 7.5 2.2 1.2.1 2.4-.1 3.5-.4z"></path><path d="M100.2 380.6c-22-20-50.6-33.3-80.5-37.5-4.6-.6-9.2 1.1-12.3 4.6-3.2 3.6-4.3 8.4-3.1 13 7.7 28.5 23.6 54 45.9 73.7 22.4 19.7 49.7 32.3 78.9 36.3.6.1 1.3.1 1.9.1 4 0 7.9-1.7 10.6-4.8 3.1-3.5 4.2-8.3 3-12.7-7.5-28-22.8-53.1-44.4-72.7zM457.7 454.7c3.8-.8 7-3 9.1-6.3 2.1-3.3 2.7-7.2 1.8-11-7.2-29.6-23.1-56.1-45.9-76.5-23.2-20.9-51.9-33.8-82.8-37.4-3.7-.4-7.4.6-10.3 3-3 2.4-4.8 6-5.2 9.9-3.1 37.2-18.6 73-43.7 101-25.2 28.1-57.7 46.8-94.2 54.2-3.8.8-7 3-9.1 6.3-2.1 3.3-2.7 7.2-1.8 11 7.2 29.6 23.1 56.1 45.9 76.5 23.2 20.9 51.9 33.8 82.8 37.4.5.1 1.1.1 1.6.1 3.1 0 6.2-1.1 8.7-3.1 3-2.4 4.8-6 5.2-9.9 3.1-37.2 18.6-73.1 43.7-101 25.2-28 57.7-46.7 94.2-54.2z"></path><path d="M454.1 478.4c-28.1 7.4-53.4 22.6-73.1 44.2-20.1 22-33.6 50.7-37.9 80.9-.7 4.6 1 9.2 4.5 12.3 2.6 2.3 6 3.6 9.4 3.6 1.2 0 2.4-.2 3.6-.5 28.7-7.5 54.4-23.4 74.3-45.8s32.5-49.8 36.6-79.2c.6-4.7-1.1-9.4-4.6-12.5-3.6-3-8.3-4.2-12.8-3z"></path></svg>