<svg xmlns="http://www.w3.org/2000/svg" width="614.7" viewBox="0 0 614.7 600.7" height="600.7"><path d="M112.3 181.1l135.3 86.6 48.1-3.5-17-169.7-215.4 22.2L76 236.4z"></path><path d="M307.6 238.2l32.7 35.4 122.1-119L311 0l-85.8 84.4 65.9-6z"></path><path d="M368.1 266.8l-7.4 47.6 169.2 21.5 26.6-214.8-119.4-14.6 45.7 47.9z"></path><path d="M542.8 351.6l-159.5-19.7-41.8 23.9L430 501.5l184.7-112.9-63-102.5z"></path><path d="M341.9 384.4l-44.8-17.9-58.8 160 203.3 74.2 41-113.1-56.9 33.8z"></path><path d="M275.1 384.6l-13.9-46.1L99.3 392l68.5 205.4L281.9 559 220 535.6z"></path><path d="M233.2 332.5l27.5-39.6L118 199.6 0 381.1l101 65.3-20.1-63z"></path></svg>