<svg id="Layer_1" data-name="Layer 1" xmlns="http://www.w3.org/2000/svg" viewBox="0 0 584.42 478.69">   <path d="M106.58,212.9V9.62H0V468.52H106.58v-202.74c12.76,115.67,108.11,206.82,225.63,212.9v-106.85c-49.14-4.61-90.57-36.05-109.51-79.47h109.51v-106.58h-109.28c19.05-43.14,60.35-74.33,109.28-78.93V0C214.69,6.09,119.33,97.24,106.58,212.9Z"></path>   <path d="M357.29,0V106.85c67.53,6.34,120.56,63.33,120.56,132.49s-53.03,126.15-120.56,132.49v106.85c126.35-6.54,227.13-111.39,227.13-239.34S483.64,6.54,357.29,0Z"></path> </svg>