<svg xmlns="http://www.w3.org/2000/svg" width="567.3" viewBox="0 0 567.3 491.3" height="491.3"><path class="st0" d="M436.4 418c-26.5-23.3-63.6-49.2-105.3-73.3-42.2-24.4-83.8-43.8-117.5-55 26.5 23.3 63.6 49.2 105.3 73.3 42.2 24.4 83.8 43.8 117.5 55z"></path><path class="st0" d="M460.3 441.9c-44.6-8.8-110.2-41.4-149.8-64.3-44.1-25.4-83.5-53.1-110.9-77.8-7.4-6.6-13.6-12.8-18.8-18.6h-.2c-1.8-.3-3.5-.5-5.3-.5-5.7-.1-18 1.1-9.9 15 4.6 6.7 12.6 15.9 26.2 28.1 26.6 24 65 50.9 108.1 75.7 43.1 24.9 85.6 44.7 119.6 55.7 20.2 6.6 33.3 8.6 41.2 8.8 14.3-.6 6-13.9 5.4-14.9-1.6-2-3.4-4.5-5.6-7.2zM458.6 383.9c-26.6-24-65-50.9-108.1-75.7s-85.6-44.7-119.6-55.7c-13.2-4.3-23.4-6.7-31-7.8-1.8-.3-3.5-.5-5.3-.5-5.7-.1-18 1.1-9.9 15 1.3 1.9 3 4.1 5 6.5 8 1.6 17 4.1 27.1 7.3 35.1 11.4 78.8 31.7 122.9 57.2 39.1 22.6 99.2 62.4 129.5 96.4 4.2.7 7.8 1 10.6 1.1 14.3-.6 6-13.9 5.4-14.9-4.6-6.9-12.7-16.3-26.6-28.9z"></path><path class="st0" d="M283.7 0L0 491.3h567.3L283.7 0zm0 106.1c19.7 0 35.6 15.9 35.6 35.6s-15.9 35.6-35.6 35.6c-19.7 0-35.6-15.9-35.6-35.6s15.9-35.6 35.6-35.6zM505.2 434c-3.9 6.8-12 9.9-22.8 10.2 5.8 10.1 7.6 19.2 3.4 26.4-4.2 7.2-12.9 10.2-24.5 10.2-42.4 0-124-39.9-170.2-66.6-44.1-25.4-83.5-53.1-110.9-77.8-31.6-28.5-43.2-49-35.3-62.7 3.8-6.6 11.2-10 22.4-10.4-6-10.6-7-19.2-3.1-26.2 7.9-13.7 31.4-13.9 71.9-.8 35.1 11.4 78.8 31.7 122.9 57.2 58.9 34.1 165.4 107.3 146.2 140.5z"></path></svg>