<svg xmlns="http://www.w3.org/2000/svg" width="595.6" viewBox="0 0 595.6 595.6" height="595.6" xml:space="preserve"><path d="M595.6 293.5H460.2c-2.2-86.2-72-155.9-158.2-158.1V0h-8.5v135.4c-86.2 2.2-155.9 71.9-158.2 158.2H0v8.5h135.4c2.2 86.2 71.9 155.9 158.2 158.2v135.4h8.5V460.2c86.1-2.2 155.9-72 158.1-158.2h135.4v-8.5zm-143.9 0h-55.6c-1-64.7-25-120.2-59-144.7 64.6 17.1 112.7 75.2 114.6 144.7zm-158.2 0h-85.6c1.3-80.6 38.8-145.9 85.6-149.6v149.6zm0 8.5v149.6c-46.8-3.7-84.3-69.1-85.6-149.6h85.6zm8.5 0h85.6c-1.3 80.6-38.8 145.9-85.6 149.6V302zm0-8.5V143.9c46.8 3.7 84.3 69.1 85.6 149.6H302zm-43.5-144.7c-34 24.6-58 80-59 144.7h-55.6c1.8-69.5 49.9-127.6 114.6-144.7zM143.8 302h55.6c1 64.7 25 120.2 59 144.7-64.6-17-112.7-75.2-114.6-144.7zm193.3 144.7c34-24.6 58-80 59-144.7h55.6c-1.9 69.5-50 127.7-114.6 144.7z"></path></svg>