<svg id="Layer_1" data-name="Layer 1" xmlns="http://www.w3.org/2000/svg" viewBox="0 0 602.18 602.18">   <path d="M0,0V602.18H602.18V0H0ZM596.68,298.34h-130.98l-14.09-14.09V150.57h-133.68l-14.09-14.09V5.5h292.85V298.34Zm-295.59,162.34l-159.59-159.59,159.59-159.59,159.59,159.59-159.59,159.59Zm145.02-137.25v122.69h-122.69l122.69-122.69Zm-290.05,0l122.69,122.69h-122.69v-122.69Zm0-44.67v-122.69h122.69l-122.69,122.69Zm290.05,0l-122.69-122.69h122.69v122.69ZM298.34,5.5V136.48l-14.09,14.09H150.57v133.68l-14.09,14.09H5.5V5.5H298.34ZM5.5,303.84H136.47l14.09,14.09v133.68h133.68l14.09,14.09v130.98H5.5V303.84Zm298.34,292.84v-130.98l14.09-14.09h133.68v-131.63h-2.05l16.14-16.14h130.98v292.84H303.83Z"></path> </svg>