<svg xmlns="http://www.w3.org/2000/svg" id="a" width="642" viewBox="0 0 642 642" height="642" data-name="Layer 1"><defs></defs><path d="M633.93 12.84C627.45 5 617.66 0 606.69 0H288.3c13.44 3.42 26.51 7.74 39.18 12.84h306.44ZM35.31 0C24.35 0 14.55 5 8.07 12.84h150.56C172.06 7.49 186.01 3.17 200.4 0H35.31ZM4.25 18.5C2.14 22.4.75 26.74.24 31.34h120.7c7.9-4.67 16.05-8.97 24.44-12.84H4.25ZM641.76 31.34c-.52-4.6-1.9-8.95-4.01-12.84H340.71c8.55 3.91 16.87 8.21 24.98 12.84h276.07ZM0 37.01v12.84h93.57c5.88-4.52 11.95-8.8 18.2-12.84H0ZM642 49.85V37.01H375.22a313.26 313.26 0 0 1 19.15 12.84h247.64ZM0 55.51v12.84h71.94c4.67-4.44 9.48-8.74 14.46-12.84H0ZM642 68.35V55.51H401.89c5.32 4.11 10.49 8.4 15.52 12.84h224.58ZM0 74.02v12.84h54.15c3.86-4.42 7.89-8.68 12.02-12.84H0ZM436.7 86.86H642V74.02H423.66c4.47 4.16 8.82 8.43 13.04 12.84ZM215.07 83.46c-12.05 0-23.82 1.19-35.23 3.4h70.46c-11.41-2.21-23.18-3.4-35.23-3.4ZM642 105.36V92.52H442c3.8 4.17 7.46 8.47 11.03 12.84H642ZM272.22 92.52h-114.3c-10.47 3.41-20.54 7.7-30.1 12.84h174.5c-9.56-5.14-19.63-9.43-30.1-12.84ZM0 92.52v12.84h39.39c3.2-4.39 6.55-8.66 10-12.84H0ZM642 123.87v-12.84H457.57c3.26 4.19 6.41 8.48 9.45 12.84H642ZM0 111.03v12.84h27c2.67-4.37 5.47-8.64 8.38-12.84H0ZM312.1 111.03H118.04c-6.32 3.92-12.38 8.21-18.16 12.84h230.39c-5.78-4.63-11.84-8.92-18.16-12.84ZM337.01 129.53H93.13c-4.61 4.06-9.02 8.34-13.2 12.84h270.28c-4.18-4.5-8.59-8.78-13.2-12.84ZM0 129.53v12.84h16.62c2.22-4.36 4.59-8.62 7.03-12.84H0ZM642 142.37v-12.84H470.9c2.81 4.21 5.52 8.49 8.12 12.84H642ZM355.25 148.04H74.89a183.14 183.14 0 0 0-10.05 12.84h300.47c-3.17-4.43-6.52-8.71-10.05-12.84ZM0 148.04v12.84h8.1c1.81-4.34 3.75-8.62 5.78-12.84H0ZM642 160.88v-12.84H482.33c2.41 4.22 4.72 8.5 6.93 12.84H642ZM0 166.54v12.84h1.18c1.45-4.33 2.99-8.61 4.65-12.84H0ZM642 179.38v-12.84H492.09c2.05 4.23 4 8.51 5.86 12.84h144.06ZM369.22 166.54H60.92c-2.75 4.17-5.35 8.44-7.77 12.84h323.82c-2.41-4.4-5.01-8.67-7.77-12.84ZM642 197.89v-12.84H500.34a314 314 0 0 1 4.87 12.84h136.8ZM379.92 185.05H50.22c-2.12 4.19-4.09 8.47-5.88 12.84h341.48c-1.8-4.37-3.77-8.65-5.88-12.84ZM642 216.39v-12.84H507.2c1.42 4.24 2.73 8.52 3.96 12.84H642ZM388.04 203.55H42.1c-1.57 4.21-2.96 8.5-4.23 12.84h354.4c-1.26-4.34-2.66-8.63-4.23-12.84ZM642 234.9v-12.84H512.71c1.13 4.25 2.2 8.52 3.15 12.84H642ZM393.87 222.06H36.27c-1.08 4.22-1.97 8.51-2.75 12.84h363.1c-.79-4.33-1.67-8.62-2.75-12.84ZM397.6 240.56H32.54c-.63 4.23-1.08 8.52-1.41 12.84h367.89c-.34-4.32-.78-8.61-1.41-12.84ZM642 253.4v-12.84H517.15c.94 4.31 1.97 8.59 3.09 12.84H642ZM642 271.91v-12.84H521.78c1.22 4.32 2.54 8.6 3.94 12.84H642ZM399.65 268.03c0-3.01-.08-6-.23-8.97H30.72c-.14 2.97-.23 5.96-.23 8.97 0 1.3.14 2.57.16 3.87h368.86c.03-1.29.12-2.57.12-3.87ZM642 290.41v-12.84H527.64c1.52 4.32 3.14 8.6 4.84 12.84H642ZM399.35 277.57H30.9c.22 4.32.59 8.6 1.1 12.84h366.28c.51-4.24.85-8.52 1.07-12.84ZM397.44 296.08H32.72c.66 4.34 1.51 8.61 2.47 12.84h359.82c.96-4.23 1.77-8.51 2.43-12.84ZM642 308.92v-12.84H534.84c1.84 4.33 3.76 8.61 5.79 12.84H642ZM642 327.42v-12.84h-98.61c2.18 4.34 4.48 8.62 6.85 12.84H642ZM0 314.58v12.84h4.29c-1.49-4.21-2.8-8.5-3.99-12.84H0ZM393.7 314.58H36.42c1.13 4.35 2.47 8.62 3.91 12.84h349.49c1.43-4.22 2.76-8.49 3.89-12.84ZM642 345.92v-12.84h-88.5c2.56 4.34 5.21 8.63 7.97 12.84H642ZM387.8 333.08H42.42c1.64 4.36 3.42 8.65 5.38 12.84h334.64c1.95-4.19 3.72-8.48 5.36-12.84ZM0 333.08v12.84h12c-2.01-4.2-3.89-8.48-5.59-12.84H0ZM0 351.59v12.84h22.17a184.7 184.7 0 0 1-7.37-12.84H0ZM642 364.43v-12.84h-76.67c3 4.36 6.1 8.64 9.31 12.84H642ZM377.76 355.28c.65-1.21 1.22-2.46 1.84-3.69H50.61c2.23 4.39 4.63 8.66 7.2 12.84h314.85c1.72-3.04 3.51-6.04 5.11-9.15ZM642 382.93v-12.84h-62.97c3.51 4.38 7.16 8.65 10.89 12.84h52.07ZM0 370.09v12.84h35.43a187.01 187.01 0 0 1-9.53-12.84H0ZM369.5 370.09H61.29c2.94 4.43 6.1 8.69 9.4 12.84h290.48c2.88-4.2 5.69-8.46 8.32-12.84ZM357.12 388.6H75.49c3.86 4.46 7.89 8.77 12.15 12.84h259.52c3.45-4.17 6.76-8.45 9.95-12.84ZM607.81 401.44H642V388.6h-46.99c4.13 4.42 8.43 8.67 12.8 12.84ZM40.2 388.6H0v12.84h52.59c-4.33-4.08-8.47-8.37-12.39-12.84ZM0 407.1v12.84h75.54c-5.8-3.97-11.35-8.26-16.66-12.84H0ZM627.35 419.94H642V407.1h-28.18c3.32 3 6.69 5.94 10.14 8.8 1.36 1.13 2.46 2.53 3.39 4.04ZM342.29 407.1H93.92c5.24 4.57 10.72 8.88 16.46 12.84h219.83c4.18-4.14 8.2-8.42 12.08-12.84ZM627.06 437.26l-.75 1.19H642v-12.84h-12.5c.15.88.3 1.76.3 2.68 0 3.32-1.01 6.41-2.74 8.97ZM324.39 425.61h-205.2c8.03 4.9 16.45 9.2 25.23 12.84h164.99c5.15-4.1 10.16-8.36 14.98-12.84ZM0 425.61v12.84h109.82c-8.86-3.65-17.39-7.93-25.5-12.84H0ZM608.75 452.2c-1.71 0-3.36-.27-4.9-.76a132.13 132.13 0 0 0-43.45-7.33c-20.35 0-39.6 4.64-56.82 12.84h138.43v-12.84h-19.3l-.58.92c-2.88 4.32-7.79 7.17-13.37 7.17ZM160.08 444.11c2.59.81 5.14 1.71 7.78 2.4a2.81 2.81 0 0 1-.57 5.56h-.17c-14.4-1.08-28.32-3.82-41.63-7.96H0v12.84h282.97c6.58-4 12.95-8.28 19.12-12.84H160.07ZM642 475.46v-12.84H492.9c-6.36 3.78-12.36 8.09-17.97 12.84h167.08ZM0 462.62v12.84h245.91c9.36-3.77 18.48-8.03 27.25-12.84H0ZM230.39 481.12H0v12.84h150.78c27.83 0 54.55-4.6 79.61-12.84ZM456.92 493.96H642v-12.84H468.63c-4.18 4.02-8.09 8.31-11.71 12.84ZM642 512.47v-12.84H452.62c-2.94 4.21-5.66 8.51-8.27 12.84H642ZM642 530.97v-12.84H441.02c-2.38 4.23-4.56 8.52-6.63 12.84H642ZM642 549.48v-12.84H431.74c-1.88 4.24-3.59 8.53-5.19 12.84H642ZM642 567.98v-12.84H424.5c-1.44 4.25-2.71 8.54-3.88 12.84H642ZM642 586.49v-12.84H419.11c-1.04 4.26-1.89 8.55-2.67 12.84h225.55ZM642 604.99v-12.84H415.47a215 215 0 0 0-1.54 12.84h228.08ZM413 623.5h224.75c2.11-3.89 3.5-8.24 4.01-12.84h-228.3c-.28 4.28-.44 8.56-.47 12.84ZM606.69 642c10.96 0 20.76-5 27.24-12.84H413.06c.09 4.29.26 8.57.6 12.84h193.03Z" class="b"></path></svg>