<svg data-name="Layer 1" xmlns="http://www.w3.org/2000/svg" viewBox="0 0 607.26 607.26"><path d="M303.63 234.39c-38.18 0-69.24 31.06-69.24 69.24s31.06 69.23 69.24 69.23 69.24-31.06 69.24-69.23-31.06-69.24-69.24-69.24Z"></path><path d="M303.63 170.61c-73.35 0-133.02 59.67-133.02 133.02s59.67 133.01 133.02 133.01 133.02-59.67 133.02-133.01-59.67-133.02-133.02-133.02Zm0 254.43c-66.95 0-121.42-54.47-121.42-121.42S236.68 182.2 303.63 182.2s121.42 54.47 121.42 121.42-54.47 121.42-121.42 121.42Z"></path><path d="M0 0v607.26h607.26V0H0Zm303.63 552.61c-137.29 0-248.98-111.69-248.98-248.98S166.35 54.65 303.63 54.65c102.87 0 191.37 62.72 229.27 151.92l-48.87 18.54c-30.38-69.54-99.79-118.28-180.41-118.28-108.52 0-196.8 88.28-196.8 196.8s88.28 196.79 196.8 196.79c80.61 0 150.02-48.74 180.41-118.28l48.87 18.54c-37.91 89.2-126.4 151.92-229.27 151.92Zm185.2-248.98c0 102.12-83.08 185.2-185.2 185.2s-185.2-83.08-185.2-185.2 83.08-185.2 185.2-185.2 185.2 83.08 185.2 185.2Z"></path></svg>