<svg xmlns="http://www.w3.org/2000/svg" width="600" viewBox="0 0 600 486.13" height="486.13" style="overflow:visible;enable-background:new 0 0 600 486.13" xml:space="preserve"><path d="M450.14 194.89H149.87c20.36-63.5 79.87-109.48 150.14-109.48 70.26-.01 129.77 45.98 150.13 109.48m-300.27 96.35h300.28c-20.37 63.5-79.88 109.48-150.14 109.48-70.28 0-129.79-45.98-150.14-109.48M600 194.89h-61.73C515.92 83.73 417.75 0 300.01 0S84.08 83.73 61.74 194.89H0v96.35h61.74C84.08 402.4 182.26 486.13 300.01 486.13s215.91-83.73 238.27-194.89H600v-96.35z"></path></svg>