<svg id="Layer_1" data-name="Layer 1" xmlns="http://www.w3.org/2000/svg" width="612.31" viewBox="0 0 612.31 616.33" height="616.33"><defs></defs><path class="cls-1" d="m370.36 209.18-48.88 28.22v97.38l133.22-76.91V86.34L306.16.58 157.61 86.34v171.53l133.22 76.91V237.4l-48.88-28.22v-74.15l64.21-37.07 64.2 37.07v74.15zM463.26 272.69l-133.21 76.92 84.33 48.69 48.88-28.22 64.21 37.07v74.14l-64.21 37.07-64.2-37.07v-56.44l-84.34-48.69v153.83l148.54 85.76 148.55-85.76V358.46l-148.55-85.77zM213.26 481.29l-64.21 37.07-64.21-37.07v-74.14l64.21-37.07 48.88 28.22 84.34-48.69-133.22-76.92L.5 358.46v171.53l148.55 85.76 148.54-85.76V376.16l-84.33 48.69v56.44z"></path></svg>