<svg data-name="Layer 1" xmlns="http://www.w3.org/2000/svg" viewBox="0 0 253.79 625.94"><path d="M252.87 140.72c3.71-28.66-3.95-58.52-19.41-82.77C210.44 21.83 169.28.57 126.9 0 84.51.57 43.36 21.83 20.33 57.95 4.87 82.2-2.78 112.06.92 140.72c1.84 14.26 6.35 28.08 12.27 41.14 4.31 9.5 95.16 163.71 113.4 194.65-68.74.17-124.41 55.92-124.41 124.7S58.02 625.93 126.9 625.93s124.72-55.84 124.72-124.72-55.68-124.54-124.42-124.7c18.24-30.94 109.09-185.16 113.4-194.65 5.93-13.06 10.43-26.88 12.27-41.14ZM184.8 476.41c3.02 6.65 5.31 13.69 6.25 20.95 1.89 14.6-2.01 29.8-9.88 42.15-11.73 18.4-32.68 29.22-54.27 29.51-21.58-.29-42.54-11.11-54.27-29.51-7.87-12.35-11.77-27.55-9.88-42.15.94-7.26 3.23-14.3 6.25-20.95 2.21-4.86 48.94-84.19 57.9-99.38 8.96 15.19 55.69 94.52 57.9 99.38Z"></path></svg>