<svg xmlns="http://www.w3.org/2000/svg" width="642" viewBox="0 0 642 574.6" height="574.6" style="overflow:visible;enable-background:new 0 0 642 574.6" xml:space="preserve"><path d="M421.6 0c-20 6-36.7 19.6-46.9 37.3L126 458.6c-7 12-11 26.1-11 41 0 3.1.2 6.3.6 9.3L10 326c-6.4-11-10-23.8-10-37.5 0-14.1 3.9-27.3 10.7-38.6L133.3 37.5c13-22.4 37.2-37.5 65-37.5h223.3z"></path><path d="M567 363.5c41.4 0 75-33.6 75-75 0-13.7-3.7-26.5-10-37.5L510.5 40.7c-13-22.4-37.2-37.5-65-37.5-27.8 0-52 15.1-65 37.5l-53.9 93.5L459 363.5h108z"></path><path d="M615.7 354.3 510.2 537.1c-13 22.4-37.2 37.5-65 37.5H196.9c-41.4 0-75-33.6-75-75 0-13.7 3.7-26.5 10.1-37.5l52.9-91.7H567c18.2 0 35.1-6 48.7-16.1z"></path></svg>