<svg xmlns="http://www.w3.org/2000/svg" width="592.7" viewBox="0 0 592.7 610.8" height="610.8"><circle transform="rotate(-45.001 279.583 322.188)" cx="279.6" cy="322.2" r="97"></circle><path d="M279.6 510.9v-81.7c-95.8 0-173.7-77.9-173.7-173.7S183.8 81.7 279.6 81.7V0C138.7 0 24.1 114.6 24.1 255.5s114.6 255.4 255.5 255.4z"></path><path d="M465.4 134.6C343.6 64 187 105.7 116.3 227.5l70.7 41c48-82.9 154.6-111.2 237.4-63.2s111.2 154.6 63.2 237.4l70.7 41c70.7-121.8 29-278.4-92.9-349.1z"></path><path d="M372.4 269c47.6 83.1 18.7 189.5-64.4 237.1-83.1 47.6-189.5 18.7-237.1-64.4L0 482.3C70 604.5 226.4 647 348.6 577c122.2-70 164.7-226.4 94.7-348.6L372.4 269z"></path></svg>