<svg data-name="Layer 1" xmlns="http://www.w3.org/2000/svg" viewBox="0 0 635.59 635.59"><path d="M317.8 0C142.28 0 0 142.28 0 317.8c0 20.22 1.97 39.97 5.58 59.14C70.64 272.81 186.23 203.36 317.8 203.36s247.16 69.46 312.22 173.58c3.61-19.17 5.58-38.92 5.58-59.14C635.59 142.28 493.31 0 317.8 0Zm0 182.64c-43.31 0-78.42-35.11-78.42-78.42S274.49 25.8 317.8 25.8s78.42 35.11 78.42 78.42-35.11 78.42-78.42 78.42Z"></path><path d="M371.6 259.44v315.38c0 29.4-24.06 53.46-53.46 53.46s-53.46-24.06-53.46-53.46v-315.5c-107.07 18.1-195.85 89.9-237.62 186.8C76.38 557.7 187.96 635.6 317.8 635.6s241.41-77.9 290.74-189.48c-41.69-96.68-130.18-168.38-236.93-186.68Z"></path></svg>