<svg id="Layer_1" data-name="Layer 1" xmlns="http://www.w3.org/2000/svg" viewBox="0 0 547.15 615.23">   <polygon points="547.15 171.43 470.33 248.25 470.33 367.73 410.6 307.99 171.43 547.15 239.51 615.23 350.86 503.89 350.86 384.41 410.6 444.15 546.24 308.5 547.15 171.43"></polygon>   <polygon points="461.44 85.72 384.62 162.54 384.62 282.01 324.88 222.27 85.72 461.44 153.8 529.52 265.14 418.17 265.14 298.7 324.88 358.43 460.53 222.79 461.44 85.72"></polygon>   <polygon points="375.72 0 298.9 76.82 298.9 196.29 239.16 136.56 0 375.72 68.08 443.8 179.43 332.46 179.43 212.98 239.16 272.72 374.81 137.07 375.72 0"></polygon> </svg>