<svg xmlns="http://www.w3.org/2000/svg" width="642" viewBox="0 0 642 642" height="642" style="overflow:visible;enable-background:new 0 0 642 642" xml:space="preserve"><path d="M173 321 36.4 457.5 0 421.1 100.1 321 0 220.9l36.4-36.4zM321 469l136.5 136.6-36.4 36.4L321 541.9 220.9 642l-36.4-36.4zM469 321l136.6-136.5 36.4 36.4L541.9 321 642 421.1l-36.4 36.4zM321 173 184.5 36.4 220.9 0 321 100.1 421.1 0l36.4 36.4z"></path><g><path d="M100.19 220.891 220.962 100.12l36.416 36.415-120.773 120.773zM150.24 271.008l120.773-120.773 36.345 36.345-120.772 120.773zM50.081 170.813 170.854 50.04l36.415 36.416L86.497 207.23z"></path><g><path d="m384.689 136.61 36.415-36.416 120.773 120.773-36.416 36.415zM334.643 186.59l36.345-36.345 120.773 120.773-36.345 36.345zM434.767 86.502l36.416-36.416L591.955 170.86l-36.415 36.415z"></path></g></g><g><path d="m100.185 421.104 36.416-36.416 120.772 120.773-36.415 36.416zM150.23 370.982l36.345-36.345L307.348 455.41l-36.345 36.345zM50.036 471.143l36.416-36.416L207.224 555.5l-36.415 36.415z"></path><g><path d="m384.684 505.395 120.773-120.773 36.415 36.416L421.1 541.811zM334.633 455.42l120.773-120.773 36.345 36.345-120.773 120.773zM434.722 555.542 555.495 434.77l36.415 36.415-120.773 120.773z"></path></g></g></svg>