<svg xmlns="http://www.w3.org/2000/svg" width="624.1" viewBox="0 0 624.1 523.1" height="523.1" xml:space="preserve" style="enable-background:new 0 0 624.1 523.1"><path d="M624.1 159.9C624.1 71.7 552.7 0 464.9 0H155.6C116 0 76.4 16.7 46.8 45.8 17.1 75.2 0 114.8 0 154.6v214c0 39.7 17.1 79.4 46.8 108.7 29.5 29.1 69.2 45.8 108.8 45.8h309.3c87.8 0 159.1-71.7 159.1-159.9 0-37.7-12.9-73.3-36.3-101.7 23.5-28.3 36.4-63.9 36.4-101.6zM390.4 261.5c-.1.1.3.4 4.4 2.2 11.4 5.1 25.6 16 29.7 19.9 22.3 21 37.4 48.7 37.4 79.6 0 44.6-29.7 82.3-70.1 94.2 19.3-26.4 30.7-59 30.7-94.2 0-37.7-12.9-73.3-36.2-101.7 23.3-28.3 36.2-64 36.2-101.7 0-35.2-11.4-67.8-30.7-94.2 40.5 11.9 70.1 49.6 70.1 94.2 0 30.9-15.2 58.6-37.4 79.6-4.1 3.8-18.1 14.7-29.5 19.7-4.7 2.2-4.7 2.4-4.6 2.4zm-60.8 26.6c19.5 20.4 31.2 46.4 31.2 75.1 0 36.8-20.2 68.9-50 85.7-28.6-16.5-49.2-47.5-49.2-80.4v-214c0-33 20.6-63.9 49.2-80.4 29.8 16.8 50 48.9 50 85.7 0 28.8-11.6 54.8-31.2 75.1-22.1 22.7-57.5 26.5-57.5 26.5s35.4 3.9 57.5 26.7zM161.1 154.6c0-40 30.4-77.1 68.6-88.9-19.1 26.2-29.8 57.5-29.8 88.9v214c0 31.4 10.7 62.7 29.8 88.9-38.2-11.8-68.6-48.9-68.6-88.9v-214zM61.7 368.5v-214c0-39.5 29.6-76.2 67.2-88.5-18.9 26.2-29.5 57.3-29.5 88.5v214c0 31.2 10.5 62.4 29.5 88.5-37.6-12.3-67.2-48.9-67.2-88.5zm429.2-107c-.1.1.3.4 4.4 2.2 11.4 5.1 25.6 16 29.7 19.9 22.2 21 37.4 48.7 37.4 79.6 0 44.3-29.2 81.8-69.3 94 19.2-26.4 30.5-58.9 30.5-94 0-37.7-12.9-73.3-36.2-101.7 23.3-28.3 36.2-64 36.2-101.7 0-35.1-11.3-67.6-30.5-94 40 12.2 69.3 49.7 69.3 94 0 30.9-15.2 58.6-37.4 79.6-4.1 3.8-18.1 14.7-29.5 19.7-4.7 2.2-4.7 2.4-4.6 2.4z"></path></svg>