<svg data-name="Layer 1" xmlns="http://www.w3.org/2000/svg" viewBox="0 0 620.33 620.33"><path d="M3.16 354.95h262.22v262.22c12.86 1.86 25.98 2.93 39.3 3.16V315.65H0c.23 13.32 1.3 26.44 3.16 39.3ZM584.3 164.84H455.5V36.03a307.686 307.686 0 0 0-39.3-17.5v185.61h185.61a309.089 309.089 0 0 0-17.5-39.3Z"></path><path d="M14.79 405.23h200.32v200.32c12.76 4.1 25.88 7.42 39.3 9.85V365.93H4.94c2.44 13.42 5.75 26.54 9.85 39.3ZM466.47 578.19a311.693 311.693 0 0 0 39.3-27.23v-45.19h45.19a311.373 311.373 0 0 0 27.23-39.3H466.47v111.72Z"></path><path d="M315.65 620.33c13.32-.23 26.44-1.3 39.3-3.16V354.95h262.22c1.86-12.86 2.93-25.98 3.16-39.3H315.65v304.68ZM605.55 215.11H405.23V14.79c-12.76-4.1-25.88-7.42-39.3-9.85v249.47H615.4a309.348 309.348 0 0 0-9.85-39.3Z"></path><path d="M617.17 265.38H354.96V3.16A312.138 312.138 0 0 0 315.66 0v304.68h304.68c-.23-13.32-1.3-26.44-3.16-39.3ZM365.92 615.4c13.42-2.44 26.54-5.75 39.3-9.85V405.23h200.32c4.1-12.76 7.42-25.88 9.85-39.3H365.92V615.4Z"></path><path d="M416.2 601.8c13.57-4.94 26.69-10.8 39.3-17.5V455.5h128.8c6.7-12.61 12.57-25.73 17.5-39.3H416.19v185.61ZM204.14 18.53a309.089 309.089 0 0 0-39.3 17.5v128.81H36.03a307.686 307.686 0 0 0-17.5 39.3h185.61V18.53Z"></path><path d="M153.87 42.14a311.693 311.693 0 0 0-39.3 27.23v45.19H69.38a311.373 311.373 0 0 0-27.23 39.3h111.72V42.14Z"></path><path d="M265.38 265.38H3.16A312.138 312.138 0 0 0 0 304.68h304.68V0c-13.32.23-26.44 1.3-39.3 3.16v262.22Z"></path><path d="M254.41 4.94a309.348 309.348 0 0 0-39.3 9.85v200.32H14.79c-4.1 12.76-7.42 25.88-9.85 39.3h249.47V4.94ZM550.96 114.56h-45.19V69.37a311.373 311.373 0 0 0-39.3-27.23v111.72h111.72a311.693 311.693 0 0 0-27.23-39.3ZM36.03 455.5h128.8v128.8c12.61 6.7 25.73 12.57 39.3 17.5V416.19H18.53c4.94 13.57 10.8 26.69 17.5 39.3Z"></path><path d="M69.38 505.77h45.19v45.19a311.373 311.373 0 0 0 39.3 27.23V466.47H42.14a311.693 311.693 0 0 0 27.23 39.3Z"></path></svg>