<svg xmlns="http://www.w3.org/2000/svg" width="624" viewBox="0 0 624 624" height="624" xml:space="preserve" style="enable-background:new 0 0 624 624"><path d="M520.5 312c0-108.2-82.5-197.2-188-207.5v63.1c70.8 9.9 125.4 70.8 125.4 144.4 0 73.6-54.5 134.4-125.4 144.3v105.5c-6.7.5-13.6.8-20.4.8-138.6.1-250.8-112.1-250.8-250.6 0-94.8 52.7-177.3 130.3-220V24.1C79 71.2 0 182.4 0 312c0 172.3 139.7 312 312 312 28 0 55.2-3.7 81-10.6V504.1c74.9-31.6 127.5-105.7 127.5-192.1z"></path><path d="M312 0c-27.5 0-54.2 3.6-79.6 10.3v109C156.8 150.6 103.5 225.1 103.5 312c0 108.2 82.5 197.2 188 207.5v-63.1c-70.8-9.9-125.4-70.8-125.4-144.3 0-73.6 54.5-134.4 125.4-144.4V62.1c6.7-.5 13.6-.8 20.4-.8 138.5 0 250.7 112.3 250.7 250.7 0 94.2-52 176.3-128.9 219.2v68.1C545.6 551.9 624 441.1 624 312 624 139.7 484.3 0 312 0z"></path></svg>