<svg id="Layer_1" data-name="Layer 1" xmlns="http://www.w3.org/2000/svg" viewBox="0 0 610.15 586.77">   <path d="M221.48,586.77h167.2c22.38-6.37,43.72-15.17,63.68-26.2H157.79c19.96,11.03,41.3,19.83,63.68,26.2Z"></path>   <path d="M388.68,0H221.48c-22.38,6.37-43.72,15.17-63.68,26.2H452.36c-19.96-11.03-41.31-19.83-63.68-26.2Z"></path>   <path d="M610.15,293.38c0-7.72-.38-15.35-.95-22.92h-31.36c4.98-14.26,14.53-26.31,26.8-34.65-3.34-17.48-8.16-34.42-14.34-50.7h-52.68c11.4-11.17,24.55-20.55,38.99-27.71h1.54c-6.85-13.73-14.7-26.85-23.46-39.3h-65.08c12.76-11.23,26.77-21.03,41.76-29.3-11.29-12.48-23.63-23.96-36.83-34.44H115.6c-13.19,10.47-25.54,21.96-36.83,34.44,14.99,8.26,29,18.07,41.76,29.3H55.45c-8.76,12.45-16.62,25.57-23.46,39.3h1.54c14.45,7.15,27.59,16.54,38.99,27.71H19.84c-6.18,16.28-11,33.22-14.34,50.7,12.27,8.34,21.82,20.39,26.8,34.65H.95c-.56,7.58-.95,15.2-.95,22.92s.38,15.35,.95,22.92h31.36c-4.98,14.26-14.53,26.31-26.8,34.65,3.34,17.48,8.16,34.42,14.34,50.7h52.67c-11.4,11.17-24.55,20.55-38.99,27.71h-1.53c6.85,13.73,14.7,26.85,23.46,39.3H120.53c-12.76,11.23-26.77,21.03-41.76,29.3,11.29,12.48,23.64,23.97,36.83,34.44H494.55c13.19-10.47,25.54-21.96,36.83-34.44-14.99-8.26-29-18.07-41.76-29.3h65.08c8.76-12.45,16.62-25.57,23.46-39.3h-1.54c-14.45-7.15-27.59-16.54-38.99-27.71h52.67c6.18-16.28,11.01-33.22,14.34-50.7-12.27-8.34-21.82-20.39-26.8-34.65h31.36c.56-7.58,.95-15.2,.95-22.92Zm-97.99-135.98c-8.73,8.45-16.65,17.73-23.64,27.71h-51.65c5.08-9.66,10.81-18.91,17.14-27.71h58.15Zm-56.35,158.91c1.95,16.05,5.91,31.49,11.63,46.05h-46.87c-4.58-14.78-7.71-30.19-9.27-46.05h44.51Zm-44.51-45.85c1.55-15.86,4.69-31.27,9.27-46.05h46.87c-5.72,14.56-9.68,30-11.63,46.05h-44.51Zm56.61-183.34c-11.12,9.49-21.46,19.85-30.92,30.98H173.16c-9.46-11.14-19.8-21.5-30.92-30.98H467.91Zm-231.29,229.19h136.92c1.33,15.77,3.96,31.16,7.88,46.05H228.74c3.92-14.89,6.55-30.29,7.88-46.05Zm-7.88-91.9h152.67c-3.92,14.89-6.55,30.28-7.88,46.05H236.62c-1.33-15.76-3.96-31.16-7.88-46.05Zm-13.7-39.3c-4.17-9.54-8.89-18.78-14.09-27.71h208.25c-5.2,8.93-9.92,18.17-14.09,27.71H215.04Zm0,216.55h180.08c4.17,9.54,8.89,18.78,14.09,27.71H200.95c5.2-8.93,9.92-18.17,14.09-27.71Zm-60.69-131.2c-1.95-16.05-5.91-31.48-11.63-46.05h46.87c4.58,14.78,7.71,30.18,9.27,46.05h-44.51Zm44.51,45.85c-1.55,15.86-4.69,31.27-9.27,46.05h-46.87c5.72-14.57,9.68-30,11.63-46.05h44.51Zm-42.72-158.91c6.33,8.8,12.06,18.05,17.14,27.71h-51.65c-6.99-9.98-14.91-19.26-23.64-27.71h58.15Zm-54.68,67.01c7.29,14.21,12.44,29.69,14.93,46.05h-45c-3.77-17.26-11.67-32.97-22.65-46.05h52.72Zm-52.72,137.95c10.98-13.08,18.88-28.79,22.65-46.05h45c-2.49,16.36-7.64,31.84-14.93,46.05H48.74Zm49.25,67.01c8.73-8.45,16.65-17.73,23.64-27.71h51.65c-5.08,9.66-10.81,18.91-17.14,27.71h-58.15Zm44.25,70.28c11.12-9.49,21.46-19.85,30.92-30.98H436.99c9.46,11.14,19.8,21.5,30.92,30.98H142.24Zm311.77-70.28c-6.33-8.8-12.06-18.05-17.14-27.71h51.65c6.99,9.98,14.91,19.26,23.64,27.71h-58.15Zm54.68-67.01c-7.29-14.21-12.44-29.7-14.93-46.05h45c3.77,17.26,11.67,32.97,22.65,46.05h-52.72Zm30.07-91.9h-45c2.49-16.35,7.64-31.84,14.93-46.05h52.72c-10.98,13.08-18.88,28.79-22.65,46.05Z"></path> </svg>