<svg id="Layer_1" data-name="Layer 1" xmlns="http://www.w3.org/2000/svg" viewBox="0 0 612.98 602.42">   <path d="M466.85,310.16h-173.18c-4.38,32.35-32.03,57.31-65.58,57.31-36.59,0-66.26-29.66-66.26-66.26s29.66-66.26,66.26-66.26c33.55,0,61.2,24.96,65.58,57.31h173.18c80.71,0,146.13-65.42,146.13-146.13S547.56,0,466.85,0H0V602.42H466.85c80.71,0,146.13-65.43,146.13-146.13s-65.42-146.13-146.13-146.13ZM327.1,123.5c36.59,0,66.26,29.66,66.26,66.26s-29.66,66.26-66.26,66.26-66.26-29.66-66.26-66.26,29.66-66.26,66.26-66.26Zm0,355.42c-36.59,0-66.26-29.66-66.26-66.26s29.66-66.26,66.26-66.26,66.26,29.66,66.26,66.26-29.66,66.26-66.26,66.26Z"></path> </svg>