<svg xmlns="http://www.w3.org/2000/svg" width="607" viewBox="0 0 607 461.8" height="461.8" xml:space="preserve"><path d="M346.1 119.1v88.4h-227c-54.8 0-99.4-44.6-99.4-99.4V0H0v108.1c0 65.7 53.4 119.1 119.1 119.1h246.6V119.1c0-17.9 14.6-32.5 32.5-32.5H607V67H398.3c-28.8 0-52.2 23.4-52.2 52.1z"></path><path d="M312.6 119.1V174H119.1c-36.4 0-66-29.6-66-66V0H33.5v108.1c0 47.2 38.4 85.7 85.7 85.7h213.2v-74.6c0-36.4 29.6-66 66-66H607V33.5H398.3c-47.3 0-85.7 38.4-85.7 85.6z"></path><path d="M398.3 0c-65.7 0-119.1 53.4-119.1 119.1v21.4h-160c-17.9 0-32.5-14.6-32.5-32.5V0H67v108.1c0 28.8 23.4 52.2 52.2 52.2h179.7v-41.1c0-54.8 44.6-99.4 99.4-99.4H607V0H398.3zM365.8 342.6V240.2H119.1C53.4 240.2 0 293.7 0 359.4v102.4h19.7V359.4c0-54.8 44.6-99.4 99.4-99.4H346v82.7c0 28.8 23.4 52.2 52.2 52.2H607v-19.7H398.3c-18-.1-32.5-14.7-32.5-32.6z"></path><path d="M332.3 342.6v-68.9H119.1c-47.2 0-85.7 38.4-85.7 85.7v102.4h19.7V359.4c0-36.4 29.6-66 66-66h193.5v49.2c0 47.2 38.4 85.7 85.7 85.7H607v-19.7H398.3c-36.4 0-66-29.6-66-66z"></path><path d="M298.8 342.6v-35.4H119.1c-28.8 0-52.2 23.4-52.2 52.2v102.4h19.7V359.4c0-17.9 14.6-32.5 32.5-32.5h160v15.8c0 65.7 53.4 119.1 119.1 119.1H607v-19.7H398.3c-54.9 0-99.5-44.6-99.5-99.5z"></path></svg>