<svg xmlns="http://www.w3.org/2000/svg" width="564.5" viewBox="0 0 564.5 565" height="565"><path d="M221 40.2c13.7 16.2 20.8 25.3 20.8 25.3 4.4 5.1 4.4 8 4.4 11.1v36.3c0 11.3-.8 18.2-.8 18.2l15.1.2c-.4-5.6-.7-14.7-.7-20.5V78.9c0-9.1 3.6-12 6.8-15.8 1.8-2.1 8.6-10.1 15.8-18.4 11.3 13.5 17.1 20.9 17.1 20.9 4.4 5.1 4.4 8 4.4 11.1V113c0 11.3-.8 18.2-.8 18.2l15.1.2c-.4-5.6-.7-14.7-.7-20.5V79c0-9.1 3.6-12 6.8-15.8 3.2-3.8 22.9-26.6 31.3-36.1 8.4-9.5 15.5-16.2 15.5-16.2s-1.3-.7-2.8-1.5c-1.6-.9-10.1-5.6-10.1-5.6-.7.8-2.4 3.1-4.9 6.1-2.5 3-35.6 41.8-35.6 41.8V25c0-17.5 1.1-25 1.1-25h-15.5c-.4 0-.7.8-2.8 3.5-.3.3-.8.9-1.4 1.7-.9 1.1-2.1 2.6-3.6 4.4-1 1.2-6.5 7.7-13 15.2-2.4-2.9-4.4-5.3-5.7-6.8-1-1.2-2-2.4-3.1-3.6-3.6-4.2-7.1-8.1-8.8-9.9l-2.6-3c-.6-.9-1.2-1.5-2-1.5h-14.9c.5 2.7.6 16.4.6 24.4s.3 26.5.3 26.5-21.2-25.8-27.1-32.9c-6-7.2-11.9-15.3-11.9-15.3l-12.9 6.8s1.9 1.9 4.3 4.5c2.4 2.8 7.8 9 22.3 26.2zm76.9-13.3c2.2-2.4 4.2-4.7 6.1-6.7v4.1c0 8 .3 26.5.3 26.5s-6.5-7.8-13.3-16c2.6-3 5-5.8 6.9-7.9zM260 24.8v-6.6c2.8 3.3 7.2 8.4 14.2 16.6-7.6 8.9-14.2 16.7-14.2 16.7V24.8zM68.1 154.5c21.2 1.8 32.6 3.2 32.6 3.2 6.7.4 8.8 2.5 11 4.7l25.6 25.6c8 8 12.2 13.4 12.2 13.4l10.8-10.6c-4.3-3.7-10.9-9.9-15-14l-22.6-22.6c-6.4-6.4-6-11.1-6.4-16-.2-2.7-1-13.2-1.8-24.2 17.5 1.6 26.9 2.7 26.9 2.7 6.7.4 8.8 2.5 11 4.7L178 147c8 8 12.2 13.4 12.2 13.4l10.8-10.6c-4.3-3.7-10.9-9.9-15-14l-22.6-22.6c-6.4-6.4-6-11.1-6.4-16-.4-4.9-2.6-34.9-3.4-47.6-.8-12.7-.5-22.4-.5-22.4s-1.4.4-3.1.9c-1.7.5-11.1 3.1-11.1 3.1.1 1 .5 3.9.8 7.8.3 3.9 4.4 54.7 4.4 54.7s-6.5-6.5-18.8-18.9c-12-11.9-16.4-17.8-16.4-17.8l-9.7 9.7-.9.9-.3.3c-.3.3.1 1.1.5 4.5 0 .4.1 1.2.2 2.2.2 1.4.4 3.3.6 5.6.1 1.5.8 10 1.6 19.9-3.7-.3-6.8-.6-8.9-.8-1.6-.1-3.2-.3-4.7-.4-5.5-.4-10.7-.7-13.2-.8l-3.9-.2c-1.1-.2-1.9-.2-2.5.3l-1.1 1.1-9.4 9.4c2.3 1.6 12 11.2 17.7 16.8 5.6 5.6 18.9 18.6 18.9 18.6s-33.3-3.1-42.5-4c-9.4-.9-19.2-2.4-19.2-2.4l-4.3 14s2.7 0 6.2.1c3.5.2 11.7.8 34.1 2.7zm47.5-69.8c5.6 5.6 18.9 18.6 18.9 18.6s-10.1-.9-20.8-1.9c-.3-4.1-.5-7.7-.7-10.6-.2-3.2-.3-6.3-.4-9 1.2 1 2.1 2 3 2.9zm-30.8 31.4l-4.7-4.7c4.3.3 11 .8 21.8 1.8.9 11.6 1.7 21.8 1.7 21.8s-6.5-6.6-18.8-18.9zM65.5 322.8c5.1-4.4 8-4.4 11.1-4.4h36.3c11.4 0 18.2.8 18.2.8l.2-15.1c-5.6.4-14.7.7-20.5.7H78.9c-9.1 0-12-3.6-15.8-6.8-2.1-1.8-10.1-8.6-18.4-15.8C58 270.9 65.5 265 65.5 265c5.1-4.4 8-4.4 11.1-4.4h36.3c11.4 0 18.2.8 18.2.8l.2-15.1c-5.6.4-14.7.7-20.5.7H78.9c-9.1 0-12-3.6-15.8-6.8-3.8-3.2-26.6-22.9-36.1-31.3s-16.2-15.5-16.2-15.5-.7 1.3-1.5 2.8c-.9 1.6-5.6 10.1-5.6 10.1.8.7 3.1 2.4 6.1 4.9 3 2.5 41.8 35.6 41.8 35.6H24.9c-17.5 0-24.9-1-24.9-1v15.5c0 .4.8.7 3.5 2.8.3.3.9.8 1.7 1.4 1.1.9 2.6 2.1 4.4 3.6 1.2 1 7.7 6.5 15.2 13-2.9 2.4-5.3 4.4-6.8 5.7-1.2 1-2.4 2-3.6 3.1-4.2 3.6-8.1 7.1-9.9 8.8l-3 2.6c-.9.6-1.5 1.2-1.5 2V319c2.7-.5 16.4-.6 24.4-.6s26.5-.3 26.5-.3-25.8 21.4-32.9 27.3c-7.2 6-15.3 11.9-15.3 11.9l6.8 12.9s1.9-1.9 4.5-4.3c2.7-2.5 8.9-7.8 26.1-22.4 16.3-13.6 25.4-20.7 25.4-20.7zm-45.3-62.2h4.1c8 0 26.5-.3 26.5-.3s-7.8 6.5-16 13.3c-3.1-2.7-5.8-5.1-8-7-2.3-2-4.6-4.1-6.6-6zm4.6 44h-6.6c3.3-2.8 8.4-7.2 16.6-14.2 8.9 7.6 16.7 14.2 16.7 14.2H24.8zM190.4 404.5c-3.7 4.3-9.9 10.9-14 15l-22.6 22.6c-6.4 6.4-11.1 6-16 6.4-2.7.2-13.2 1-24.2 1.8 1.6-17.5 2.7-26.9 2.7-26.9.4-6.7 2.5-8.8 4.7-11l25.6-25.6c8-8 13.4-12.2 13.4-12.2l-10.6-10.8c-3.7 4.3-9.9 10.9-14 15l-22.6 22.6c-6.4 6.4-11.1 6-16 6.4-4.9.4-34.9 2.6-47.6 3.4-12.7.8-22.4.5-22.4.5s.4 1.4.9 3.1c.5 1.7 3.1 11.1 3.1 11.1 1-.1 3.9-.5 7.8-.8 3.9-.3 54.7-4.4 54.7-4.4S87 427 74.6 439.3c-12.3 12.3-18.3 16.8-18.3 16.8l9.7 9.7.9.9.3.3c.3.3 1.1-.1 4.5-.5.4 0 1.2-.1 2.2-.2 1.4-.2 3.3-.4 5.6-.6 1.5-.1 10-.8 19.9-1.6-.3 3.7-.6 6.8-.8 8.9-.1 1.6-.3 3.2-.4 4.7-.4 5.5-.7 10.7-.8 13.2l-.2 3.9c-.2 1.1-.2 1.9.3 2.5l1.1 1.1 9.4 9.4c1.6-2.3 11.2-12 16.8-17.7 5.6-5.6 18.6-18.9 18.6-18.9s-3.1 33.3-4 42.5c-.9 9.4-2.4 19.2-2.4 19.2l14 4.3s0-2.7.1-6.2c.1-3.7.8-11.9 2.7-34.3 1.8-21.2 3.2-32.6 3.2-32.6.4-6.7 2.5-8.8 4.7-11l25.6-25.6c8-8 13.4-12.2 13.4-12.2l-10.3-10.8zm-89.7 46.7c-4.1.3-7.7.5-10.6.7-3.2.2-6.3.3-9 .4 1.1-1 2-2 2.9-2.9 5.6-5.6 18.6-18.9 18.6-18.9s-.9 10-1.9 20.7zm14.8 29l-4.7 4.7c.3-4.3.8-11 1.8-21.8 11.6-.9 21.8-1.7 21.8-1.7s-6.6 6.4-18.9 18.8zM496.4 410.3c-21.2-1.8-32.6-3.2-32.6-3.2-6.7-.4-8.8-2.5-11-4.7l-25.6-25.6c-8-8-12.2-13.4-12.2-13.4L404.2 374c4.3 3.7 10.9 9.9 15 14l22.6 22.6c6.4 6.4 6 11.1 6.4 16 .2 2.7 1 13.2 1.8 24.2-17.5-1.6-26.9-2.7-26.9-2.7-6.7-.4-8.8-2.5-11-4.7l-25.6-25.6c-8-8-12.2-13.4-12.2-13.4L363.5 415c4.3 3.7 10.9 9.9 15 14l22.6 22.6c6.4 6.4 6 11.1 6.4 16 .4 4.9 2.6 34.9 3.4 47.6.8 12.7.5 22.4.5 22.4s1.4-.4 3.1-.9c1.7-.5 11.1-3.1 11.1-3.1-.1-1-.5-3.9-.8-7.8-.3-3.9-4.4-54.7-4.4-54.7s6.5 6.5 18.8 18.9c12.3 12.3 16.8 18.3 16.8 18.3l9.7-9.7.9-.9.3-.3c.3-.3-.1-1.1-.5-4.5 0-.4-.1-1.2-.2-2.2-.2-1.4-.4-3.3-.6-5.6-.1-1.5-.8-10-1.6-19.9 3.7.3 6.8.6 8.9.8 1.6.1 3.2.3 4.7.4 5.5.4 10.7.7 13.2.8l3.9.2c1.1.2 1.9.2 2.5-.3l1.1-1.1 9.4-9.4c-2.3-1.6-12-11.2-17.7-16.8-5.6-5.6-18.9-18.6-18.9-18.6s33.3 3.1 42.5 4c9.4.9 19.2 2.4 19.2 2.4l4.3-14s-2.7 0-6.2-.1c-3.9-.6-12.1-1.3-34.5-3.2zm-47.5 69.9c-5.6-5.6-18.9-18.6-18.9-18.6s10.1.9 20.8 1.9c.3 4.1.5 7.7.7 10.6.2 3.2.3 6.3.4 9-1.1-1.1-2.1-2.1-3-2.9zm30.8-31.4l4.7 4.7c-4.3-.3-11-.8-21.8-1.8-.9-11.6-1.7-21.8-1.7-21.8s6.5 6.5 18.8 18.9zM540.1 246.5c-8 0-26.5.3-26.5.3s25.8-21.4 32.9-27.3c7.2-6 15.3-11.9 15.3-11.9l-6.8-12.9s-1.9 1.9-4.5 4.3c-2.7 2.5-8.9 7.8-26.1 22.4-16.2 13.7-25.3 20.8-25.3 20.8-5.1 4.4-8 4.4-11.1 4.4h-36.3c-11.3 0-18.2-.8-18.2-.8l-.2 15.1c5.6-.4 14.7-.7 20.5-.7h31.9c9.1 0 12 3.6 15.8 6.8 2.1 1.8 10.1 8.6 18.4 15.8-13.4 11.2-20.9 17-20.9 17-5.1 4.4-8 4.4-11.1 4.4h-36.3c-11.3 0-18.2-.8-18.2-.8l-.2 15.1c5.6-.4 14.7-.7 20.5-.7h31.9c9.1 0 12 3.6 15.8 6.8 3.8 3.2 26.6 22.9 36.1 31.3 9.5 8.4 16.2 15.5 16.2 15.5s.7-1.3 1.5-2.8c.9-1.6 5.6-10.1 5.6-10.1-.8-.7-3.1-2.4-6.1-4.9-3-2.5-41.8-35.6-41.8-35.6h26.7c17.5 0 24.8 1.1 24.8 1.1v-15-.5c0-.4-.8-.7-3.5-2.8-.3-.3-.9-.8-1.7-1.4-1.1-.9-2.6-2.1-4.4-3.6-1.2-1-7.7-6.5-15.2-13 2.9-2.4 5.3-4.4 6.8-5.7 1.2-1 2.4-2 3.6-3.1 4.2-3.6 8.1-7.1 9.9-8.8l3-2.6c.9-.6 1.5-1.2 1.5-2v-14.9c-2.6.7-16.3.8-24.3.8zm4.2 57.7h-4.1c-8 0-26.5.3-26.5.3s7.8-6.5 16-13.3c3.1 2.7 5.8 5.1 8 7 2.3 2.1 4.6 4.2 6.6 6zm-14.6-29.8c-8.9-7.6-16.7-14.2-16.7-14.2h33.3c-3.2 2.9-8.3 7.2-16.6 14.2zM374.1 160.3c3.7-4.3 9.9-10.9 14-15l22.6-22.6c6.4-6.4 11.1-6 16-6.4 2.7-.2 13.2-1 24.2-1.8-1.6 17.5-2.7 26.9-2.7 26.9-.4 6.7-2.5 8.8-4.7 11L417.9 178c-8 8-13.4 12.2-13.4 12.2l10.6 10.8c3.7-4.3 9.9-10.9 14-15l22.6-22.6c6.4-6.4 11.1-6 16-6.4 4.9-.4 34.9-2.6 47.6-3.4 12.7-.8 22.4-.5 22.4-.5s-.4-1.4-.9-3.1c-.5-1.7-3.1-11.1-3.1-11.1-1 .1-3.9.5-7.8.8-3.9.3-54.7 4.4-54.7 4.4s6.5-6.5 18.9-18.8c12.3-12.3 18.3-16.8 18.3-16.8l-9.7-9.7-.9-.9-.3-.3c-.3-.3-1.1.1-4.5.5-.4 0-1.2.1-2.2.2-1.4.2-3.3.4-5.6.6-1.5.1-10 .8-19.9 1.6.3-3.7.6-6.8.8-8.9.1-1.6.3-3.2.4-4.7.4-5.5.7-10.7.8-13.2l.2-3.9c.2-1.1.2-1.9-.3-2.5l-1.1-1.1-9.4-9.4c-1.6 2.3-11.2 12-16.8 17.7-5.6 5.6-18.6 18.9-18.6 18.9s3.1-33.3 4-42.5c.9-9.4 2.4-19.2 2.4-19.2l-14-4.3s0 2.7-.1 6.2c-.1 3.7-.8 11.9-2.7 34.3-1.8 21.2-3.2 32.6-3.2 32.6-.4 6.7-2.5 8.8-4.7 11l-25.6 25.6c-8 8-13.4 12.2-13.4 12.2l10.1 11zm89.7-46.6c4.1-.3 7.7-.5 10.6-.7 3.2-.2 6.3-.3 9-.4-1.1 1-2 2-2.9 2.9-5.6 5.6-18.6 18.9-18.6 18.9s.9-10.1 1.9-20.7zm-14.8-29l4.7-4.7c-.3 4.3-.8 11-1.8 21.8-11.6.9-21.8 1.7-21.8 1.7s6.6-6.5 18.9-18.8zM343 524.8c-13.7-16.2-20.8-25.3-20.8-25.3-4.4-5.1-4.4-8-4.4-11.1v-36.3c0-11.3.8-18.2.8-18.2l-15.1-.2c.4 5.6.7 14.7.7 20.5v31.9c0 9.1-3.6 12-6.8 15.8-1.8 2.1-8.6 10.1-15.8 18.4-11.3-13.5-17.1-20.9-17.1-20.9-4.4-5.1-4.4-8-4.4-11.1V452c0-11.3.8-18.2.8-18.2l-15.1-.2c.4 5.6.7 14.7.7 20.5V486c0 9.1-3.6 12-6.8 15.8-3.2 3.8-22.9 26.6-31.3 36.1s-15.5 16.2-15.5 16.2 1.3.7 2.8 1.5c1.6.9 10.1 5.6 10.1 5.6.7-.8 2.4-3.1 4.9-6.1 2.5-3 35.6-41.8 35.6-41.8V540c0 17.5-1.1 24.8-1.1 24.8h15.5c.4 0 .7-.8 2.8-3.5.3-.3.8-.9 1.4-1.7.9-1.1 2.1-2.6 3.6-4.4 1-1.2 6.5-7.7 13-15.2 2.4 2.9 4.4 5.3 5.7 6.8 1 1.2 2 2.4 3.1 3.6 3.6 4.2 7.1 8.1 8.8 9.9l2.6 3c.6.9 1.2 1.5 2 1.5h14.9c-.5-2.7-.6-16.4-.6-24.4s-.3-26.5-.3-26.5 21.4 25.8 27.3 32.9c6 7.2 11.9 15.3 11.9 15.3l12.9-6.8s-1.9-1.9-4.3-4.5c-2.6-2.6-8-8.8-22.5-26zm-76.9 13.3c-2.2 2.4-4.2 4.7-6.1 6.7v-4.1c0-8-.3-26.5-.3-26.5s6.5 7.8 13.3 16c-2.6 3-5 5.7-6.9 7.9zm37.9 2.1v6.6c-2.8-3.3-7.2-8.4-14.2-16.6 7.6-8.9 14.2-16.7 14.2-16.7v26.7z"></path></svg>