<svg xmlns="http://www.w3.org/2000/svg" width="604.4" viewBox="0 0 604.4 604.4" height="604.4" xml:space="preserve"><path d="M195.7 0H0v195.7c0 56.1 45.5 101.6 101.6 101.6h195.7v-65.1H104.6c-21.8 0-39.5-17.7-39.5-39.5V65.1h127.6c21.8 0 39.5 17.7 39.5 39.5v117.9h65.1V101.6C297.3 45.5 251.8 0 195.7 0zM408.7 0c-56.1 0-101.6 45.5-101.6 101.6v195.7h65.1V104.6c0-21.8 17.7-39.5 39.5-39.5h127.6v127.6c0 21.8-17.7 39.5-39.5 39.5H381.9v65.1h120.8c56.1 0 101.6-45.5 101.6-101.6V0H408.7zM502.8 307.1H307.1v65.1h192.8c21.8 0 39.5 17.7 39.5 39.5v127.6H411.6c-21.8 0-39.5-17.7-39.5-39.5V381.9H307v120.8c0 56.1 45.5 101.6 101.6 101.6h195.7V408.7c.1-56.1-45.4-101.6-101.5-101.6zM232.2 499.8c0 21.8-17.7 39.5-39.5 39.5H65.1V411.6c0-21.8 17.7-39.5 39.5-39.5h117.9V307H101.6C45.5 307.1 0 352.6 0 408.7v195.7h195.7c56.1 0 101.6-45.5 101.6-101.6V307.1h-65.1v192.7z"></path></svg>