<svg xmlns="http://www.w3.org/2000/svg" width="603.9" viewBox="0 0 603.9 599.3" height="599.3" xml:space="preserve"><path d="M335.9 33.4c0 18.5-15 33.4-33.4 33.4-18.5 0-33.4-15-33.4-33.4 0-18.5 15-33.4 33.4-33.4 18.5 0 33.4 15 33.4 33.4zM335.9 122.2c0 18.5-15 33.4-33.4 33.4-18.5 0-33.4-15-33.4-33.4 0-18.5 15-33.4 33.4-33.4 18.5-.1 33.4 14.9 33.4 33.4zM335.9 210.9c0 18.5-15 33.4-33.4 33.4-18.5 0-33.4-15-33.4-33.4 0-18.5 15-33.4 33.4-33.4 18.5 0 33.4 14.9 33.4 33.4zM335.9 299.6c0 18.5-15 33.4-33.4 33.4-18.5 0-33.4-15-33.4-33.4 0-18.5 15-33.4 33.4-33.4 18.5 0 33.4 15 33.4 33.4zM335.9 388.4c0 18.5-15 33.4-33.4 33.4-18.5 0-33.4-15-33.4-33.4 0-18.5 15-33.4 33.4-33.4 18.5 0 33.4 14.9 33.4 33.4zM335.9 477.1c0 18.5-15 33.4-33.4 33.4-18.5 0-33.4-15-33.4-33.4 0-18.5 15-33.4 33.4-33.4 18.5 0 33.4 15 33.4 33.4zM335.9 565.9c0 18.5-15 33.4-33.4 33.4-18.5 0-33.4-15-33.4-33.4 0-18.5 15-33.4 33.4-33.4 18.5 0 33.4 14.9 33.4 33.4z"></path><circle cx="391.8" cy="122.2" r="33.4"></circle><circle cx="391.8" cy="210.9" r="33.4"></circle><circle cx="391.8" cy="299.6" r="33.4"></circle><circle cx="391.8" cy="388.4" r="33.4"></circle><circle cx="391.8" cy="477.1" r="33.4"></circle><circle cx="391.8" cy="565.9" r="33.4"></circle><path d="M514.6 210.9c0 18.5-15 33.4-33.4 33.4-18.5 0-33.4-15-33.4-33.4 0-18.5 15-33.4 33.4-33.4s33.4 14.9 33.4 33.4zM514.6 299.6c0 18.5-15 33.4-33.4 33.4-18.5 0-33.4-15-33.4-33.4 0-18.5 15-33.4 33.4-33.4s33.4 15 33.4 33.4zM514.6 388.4c0 18.5-15 33.4-33.4 33.4-18.5 0-33.4-15-33.4-33.4 0-18.5 15-33.4 33.4-33.4s33.4 14.9 33.4 33.4zM514.6 477.1c0 18.5-15 33.4-33.4 33.4-18.5 0-33.4-15-33.4-33.4 0-18.5 15-33.4 33.4-33.4s33.4 15 33.4 33.4zM514.6 565.9c0 18.5-15 33.4-33.4 33.4-18.5 0-33.4-15-33.4-33.4 0-18.5 15-33.4 33.4-33.4s33.4 14.9 33.4 33.4z"></path><circle cx="570.5" cy="299.6" r="33.4"></circle><circle cx="570.5" cy="388.4" r="33.4"></circle><circle cx="570.5" cy="477.1" r="33.4"></circle><circle cx="570.5" cy="565.9" r="33.4"></circle><path d="M178.6 122.2c0 18.5 15 33.4 33.4 33.4s33.4-15 33.4-33.4c0-18.5-15-33.4-33.4-33.4s-33.4 14.9-33.4 33.4zM178.6 210.9c0 18.5 15 33.4 33.4 33.4s33.4-15 33.4-33.4c0-18.5-15-33.4-33.4-33.4s-33.4 14.9-33.4 33.4zM178.6 299.6c0 18.5 15 33.4 33.4 33.4s33.4-15 33.4-33.4c0-18.5-15-33.4-33.4-33.4s-33.4 15-33.4 33.4zM178.6 388.4c0 18.5 15 33.4 33.4 33.4s33.4-15 33.4-33.4c0-18.5-15-33.4-33.4-33.4s-33.4 14.9-33.4 33.4zM178.6 477.1c0 18.5 15 33.4 33.4 33.4s33.4-15 33.4-33.4c0-18.5-15-33.4-33.4-33.4s-33.4 15-33.4 33.4zM178.6 565.9c0 18.5 15 33.4 33.4 33.4s33.4-15 33.4-33.4c0-18.5-15-33.4-33.4-33.4s-33.4 14.9-33.4 33.4zM89.3 210.9c0 18.5 15 33.4 33.4 33.4 18.5 0 33.4-15 33.4-33.4 0-18.5-15-33.4-33.4-33.4s-33.4 14.9-33.4 33.4zM89.3 299.6c0 18.5 15 33.4 33.4 33.4 18.5 0 33.4-15 33.4-33.4 0-18.5-15-33.4-33.4-33.4s-33.4 15-33.4 33.4zM89.3 388.4c0 18.5 15 33.4 33.4 33.4 18.5 0 33.4-15 33.4-33.4 0-18.5-15-33.4-33.4-33.4s-33.4 14.9-33.4 33.4zM89.3 477.1c0 18.5 15 33.4 33.4 33.4 18.5 0 33.4-15 33.4-33.4 0-18.5-15-33.4-33.4-33.4s-33.4 15-33.4 33.4zM89.3 565.9c0 18.5 15 33.4 33.4 33.4 18.5 0 33.4-15 33.4-33.4 0-18.5-15-33.4-33.4-33.4s-33.4 14.9-33.4 33.4z"></path><circle cx="33.4" cy="299.6" r="33.4"></circle><circle cx="33.4" cy="388.4" r="33.4"></circle><circle cx="33.4" cy="477.1" r="33.4"></circle><circle cx="33.4" cy="565.9" r="33.4"></circle></svg>