<svg data-name="Layer 1" xmlns="http://www.w3.org/2000/svg" viewBox="0 0 614.09 460.33"><path d="M614.09 130.3V0H0l125.31 398.78c3.11 11.86 8.75 22.7 16.77 31.91 16.42 18.84 41.95 29.64 70.05 29.64h401.96v-130.3H321.74v-34.71h292.35v-130.3H321.74V130.3h292.35ZM136.44 324.62 67.19 119.19 194.2 266.03c-21.82 13.5-43.96 33.5-57.76 58.59Zm444.81-126.76v64.61H288.9v100.41h292.35v64.61H212.13c-18.6 0-35.11-6.7-45.29-18.38-9.53-10.94-12.8-27.5-10.87-41.55 5.01-36.28 39.04-67.18 70.54-81.72l19.45-8.97L42.71 32.85h538.54v64.6H288.9v100.41h292.35Z"></path></svg>