<svg data-name="Layer 1" xmlns="http://www.w3.org/2000/svg" viewBox="0 0 608.34 608.34"><path d="m83.79 304.17 53.98-53.98V166.4L0 304.17l137.77 137.77v-83.79l-53.98-53.98zM155.23 166.4l.01 83.79 53.98 53.98-53.98 53.99v83.78l137.77-137.77L155.23 166.4zM399.12 304.17l53.98-53.98V166.4L315.34 304.17l137.77 137.77v-83.79l-53.99-53.98zM470.57 166.4v83.79l53.99 53.98-53.99 53.99v83.78l137.77-137.77L470.57 166.4zM304.17 524.56l-53.98-53.99H166.4l137.77 137.77 137.77-137.77h-83.79l-53.98 53.99zM166.4 453.11h83.79l53.98-53.99 53.99 53.98h83.78L304.17 315.34 166.4 453.11zM441.94 155.23l-83.79.01-53.98 53.98-53.98-53.98H166.4l137.77 137.77 137.77-137.78zM304.17 83.79l53.99 53.98h83.78L304.17 0 166.4 137.77h83.79l53.98-53.98z"></path></svg>