<svg xmlns="http://www.w3.org/2000/svg" width="620.4" viewBox="0 0 620.4 580.7" height="580.7" xml:space="preserve"><path d="m511.2 0-46.9 66.5c45 30.4 74.7 82 74.7 140.3 0 93.3-75.9 169.2-169.2 169.2-37.6 0-72.4-12.3-100.5-33.2l-47 66.6c41.4 30.2 92.4 48.1 147.4 48.1 138.2 0 250.7-112.5 250.7-250.7 0-85.7-43.3-161.6-109.2-206.8z"></path><path d="M81.5 378.1c0-93.3 75.9-169.2 169.2-169.2 35 0 67.5 10.7 94.5 28.9l46.9-66.5c-40.3-27.6-89-43.8-141.4-43.8C112.5 127.5 0 239.9 0 378.1c0 83.2 40.7 157 103.2 202.6l47-66.6c-41.7-30.8-68.7-80.3-68.7-136z"></path></svg>