<svg xmlns="http://www.w3.org/2000/svg" width="595.3" viewBox="0 0 595.3 609.9" height="609.9" xml:space="preserve"><path d="M589.5 444.1c-4.8-16.3-10.5-32.5-14.3-49.1-7.7-34-11.3-68.5-11-103.4.4-39.2 6-77.5 16.2-115.3 3.4-12.4 8.4-24.6 9.9-37.3 5.6-45.4-8.6-83.7-44.6-112.9-33.3-27-70.4-32.2-111-19.8-22 6.7-44.3 13-66.9 17.5-39.4 7.8-79.2 9.4-119.3 4.7-3-.4-6.1-.7-9.1-1.1-23-3.1-45.5-7.7-67.6-14.9-11.8-3.9-23.7-8.4-35.9-10.3C108-2.1 81.6 3.4 57.5 18.3 24.8 38.6 6.4 68.6 1.1 106.6c-3.3 23.6 1.4 46.1 9.1 68.5 11.8 34.4 18.1 70 20.1 106.3 3.1 54.1-3.3 107.1-18.4 159.2-4.3 14.9-9.2 30-8 41.3.2 30.6 7.9 54.2 22.3 75.6 18.1 26.9 43.7 42.9 74.9 49.7 19.8 4.3 39.9 3.4 59.1-3.4 25.9-9.2 52.3-16.1 79.4-20.4 2.3-.4 4.6-.7 7-1.1 39.2-5.6 78.6-6.3 117.6.5 30 5.3 59.6 13.2 89.4 19.9 37.4 8.4 70-2 98.6-26.1 18.2-15.3 30.7-34.8 37.7-57.7 7.6-24.9 7-49.8-.4-74.8zM156 592.1c-10 3.5-20.4 5.3-31 5.3-7 0-14.2-.8-21.3-2.4-29-6.4-51.7-21.3-67.2-44.5-13.7-20.4-19.9-41.6-20.1-68.7v-.6l-.1-.6c-.8-7.9 2.9-20.4 6.4-32.5l1.2-4.1c15.6-53.9 22-108.9 18.9-163.4-2.2-38.7-9.2-75.6-20.8-109.5-8.5-24.8-11.1-44.2-8.5-62.8C18.4 73 35 47 64.2 29 81 18.6 99.1 13.3 117.8 13.3c5.3 0 10.8.4 16.3 1.3 8.9 1.4 17.8 4.4 27.2 7.6 2.2.8 4.5 1.5 6.7 2.2 21.3 7 44.8 12.1 71.5 15.7v143l214.9-58.7v150.3L239.5 216v179.8l214.9-58.7v150.3l-214.9-58.7v142.4c-27.7 4-55.8 11.2-83.5 21z"></path></svg>