<svg data-name="Layer 1" xmlns="http://www.w3.org/2000/svg" viewBox="0 0 608.19 486.55"><path d="M121.64 40.55 81.09 0v81.09H0l40.55 40.55h81.09V40.55zM121.64 202.73v-40.55l-40.55-40.54v81.09H0l40.55 40.55h81.09v-40.55z"></path><path d="M121.64 324.37v-40.55l-40.55-40.54v81.09H0l40.55 40.54h81.09v-40.54zM81.09 364.91V446H0l40.55 40.55h81.09v-81.09l-40.55-40.55zM202.73 243.28h40.54v-81.1l-40.54-40.54v81.09h-81.09l40.54 40.55h40.55zM121.64 324.37l40.54 40.54h81.09v-81.09l-40.54-40.54v81.09h-81.09z"></path><path d="M202.73 364.91V446h-81.09l40.54 40.55h81.09v-81.09l-40.54-40.55zM324.37 364.91h40.54v-81.09l-40.54-40.54v81.09h-81.1l40.55 40.54h40.55z"></path><path d="M324.37 364.91V446h-81.1l40.55 40.55h81.09v-81.09l-40.54-40.55zM486.55 202.73v-40.55L446 121.64v81.09h-81.09l40.55 40.55h81.09v-40.55z"></path><path d="M446 364.91h40.55v-81.09L446 243.28v81.09h-81.09l40.55 40.54H446zM446 364.91V446h-81.09l40.55 40.55h81.09v-81.09L446 364.91zM608.19 40.55 567.64 0v81.09h-81.09l40.54 40.55h81.1V40.55z"></path><path d="m486.55 202.73 40.54 40.55h81.1v-81.1l-40.55-40.54v81.09h-81.09zM486.55 324.37l40.54 40.54h81.1v-81.09l-40.55-40.54v81.09h-81.09zM486.55 446l40.54 40.55h81.1v-81.09l-40.55-40.55V446h-81.09z"></path></svg>