<svg xmlns="http://www.w3.org/2000/svg" width="625.7" viewBox="0 0 625.7 589.2" height="589.2" xml:space="preserve"><path d="M450.4 257.3V76.4l-59 38.2L337 0l-54.5 114.6-59-38.2v150l1.5 2.4-97.6-45 10.7 69.8-138.1.2L91.5 352l-60 40.2 152.8 66.1-35 78.6 109.5.4-25.2 51.8h69.7l49.4-107.8-116.6-.2 25.6-56.5-107.3-43.9 31.4-21-48.7-43.6 63.7.7-.4-35.6 81.6 34.5V183.1l27 15.7 28.1-58.4 28.1 58.4 27-15.7v132h142l-21.8 45.5c-31.1 60.7-95.5 64-95.5 64l-25.8 57.3c138.2 0 182-104.5 182-104.5l52.8-120.2H450.4z"></path><path d="M498.6 341.9c0-9.7-7.8-17.5-17.5-17.5s-17.5 7.8-17.5 17.5 7.8 17.5 17.5 17.5 17.5-7.9 17.5-17.5z"></path></svg>