<svg xmlns="http://www.w3.org/2000/svg" width="598.6" viewBox="0 0 598.6 459.5" height="459.5"><path d="M538.3 102.6c-10.2-5.8-19.3-9.4-28.5-11.5-28.7-6.4-48.8-16.1-69.3-33.6C395.6 19.4 348.1 0 299.3 0 250.5 0 203 19.4 158.1 57.5 137.6 75 117.5 84.7 88.8 91.1c-9.2 2.1-18.3 5.7-28.5 11.5C23.1 123.6 0 163.2 0 205.9c0 35.5 15.7 68.9 43.1 91.5 3.4 2.8 6.9 5.6 10.4 8.3 12.2 9.7 24.9 19.6 31.6 30.6 5.1 8.3 8 17.5 11.3 28.2 1.9 6.1 3.9 12.5 6.4 19.1 8.5 22.1 23.3 41 42.8 54.6 20 14 43.4 21.3 67.9 21.3 20.7 0 41.5-5.7 60.2-16.4 6.8-3.9 13.8-7.4 25.6-7.4 11.7 0 18.8 3.5 25.6 7.4 18.7 10.7 39.5 16.4 60.2 16.4 24.4 0 47.9-7.4 67.9-21.3 19.5-13.6 34.3-32.5 42.8-54.6 2.6-6.6 4.5-13 6.4-19.1 3.3-10.7 6.2-19.9 11.3-28.2 6.7-11 19.4-20.9 31.6-30.6 3.4-2.7 7-5.5 10.4-8.3 27.4-22.6 43.1-56 43.1-91.5 0-42.7-23.1-82.3-60.3-103.3zm-11.8 159.7c-3 2.5-6.2 5-9.6 7.7-14.7 11.6-31.3 24.7-42.2 42.5-8.1 13.2-12.2 26.6-15.9 38.4-1.8 5.7-3.4 11-5.4 16.3-5.3 13.6-14.4 25.3-26.4 33.7-12.3 8.6-26.8 13.1-41.8 13.1-12.8 0-25.8-3.6-37.6-10.4-11.6-6.7-26.3-13.5-48.2-13.5-21.9 0-36.6 6.8-48.2 13.5-11.8 6.8-24.8 10.4-37.6 10.4-15.1 0-29.5-4.5-41.8-13.1-12-8.4-21.2-20.1-26.4-33.7-2-5.2-3.7-10.6-5.4-16.3-3.7-11.9-7.9-25.3-15.9-38.4-11-17.9-27.6-31-42.2-42.5-3.4-2.7-6.6-5.2-9.6-7.7-16.9-14-26.6-34.5-26.6-56.4 0-26.3 14.3-50.8 37.2-63.7 6.2-3.5 11.3-5.7 16-6.7 36-8 62.6-21 88.8-43.3 36.5-31 74.1-46.7 111.7-46.7 37.7 0 75.3 15.7 111.7 46.7 26.3 22.3 52.8 35.3 88.8 43.3 4.7 1.1 9.8 3.2 16 6.7 23 13 37.2 37.4 37.2 63.7 0 21.9-9.7 42.4-26.6 56.4z"></path><path d="M180.4 348.3H418V110.7H180.4v237.6zm45.5-192.1h146.7v146.7H225.9V156.2z"></path></svg>