<svg xmlns="http://www.w3.org/2000/svg" width="609" viewBox="0 0 609 613.5" height="613.5" xml:space="preserve"><path d="M554.2 342.7c-16.2-13.9-35.2-23.4-55.5-29.8-3.2-1-6.8-1.6-9.9-2.9-.5-.2-1.2-.5-1.9-.8-2.1-1-2.1-4 0-5 .7-.3 1.4-.6 1.9-.8 3.1-1.2 6.7-1.8 9.9-2.9 20.3-6.3 39.3-15.9 55.5-29.8C589.5 240.3 608.6 202 609 155c.3-30.2-7.5-58.2-23.6-83.7-35.5-56-97.1-80.9-160.4-67.9-31.6 6.5-58.1 22.2-80 46-16.9 18.4-28.2 39.6-34.9 63.2-.3 1.1-.6 2.3-1 3.5-.9 3.5-1.8 7-3.2 10.4-.1.2-.2.5-.3.7-.4 1-1.9 1-2.3 0-.1-.2-.2-.4-.3-.7-1.4-3.4-2.2-6.9-3.2-10.4-.3-1.2-.6-2.3-1-3.5-6.7-23.6-18.1-44.8-34.9-63.2-21.8-23.7-48.3-39.5-80-46-63.4-13-125 11.9-160.4 68.1C7.5 97-.3 124.9 0 155.2c.5 47 19.5 85.3 54.8 115.7 16.2 13.9 35.2 23.4 55.5 29.8 3.2 1 6.8 1.6 9.9 2.9 1 .4 2.1.7 3.4 1.4 1.5.8 1.5 2.9 0 3.7-1.3.7-2.5 1-3.4 1.4-3.1 1.2-6.7 1.8-9.9 2.9-20.3 6.3-39.3 15.9-55.5 29.8C19.5 373 .5 411.3 0 458.3c-.3 30.2 7.5 58.2 23.6 83.7 35.5 56.2 97 81.1 160.4 68.1 31.6-6.5 58.1-22.2 80-46 16.9-18.4 28.2-39.6 34.9-63.2.3-1.1.6-2.3 1-3.5.9-3.5 1.8-7 3.2-10.4.1-.2.2-.5.3-.7.4-1 1.9-1 2.3 0 .1.2.2.4.3.7 1.4 3.4 2.2 6.9 3.2 10.4.3 1.2.6 2.3 1 3.5 6.7 23.6 18.1 44.8 34.9 63.2 21.8 23.7 48.3 39.5 80 46 63.4 13 125-11.9 160.4-68.1 16.1-25.5 24-53.5 23.6-83.7-.6-47-19.6-85.3-54.9-115.6zm11.8 135c-6.3 36.7-25.7 65-59 82.1-25.8 13.3-53.4 14.9-81.5 7.1-19.2-5.3-35.4-15.4-49-29.8-12.8-13.6-21.5-29.7-26.9-47.6-3.7-12-6.4-24.4-15.7-34.1-8.2-8.6-18.8-12.7-29.4-12.9-10.5.1-21.2 4.3-29.4 12.9-9.2 9.7-12 22.1-15.7 34.1-5.4 17.9-14.1 34-26.9 47.6-13.6 14.4-29.8 24.5-49 29.8-28.1 7.8-55.7 6.1-81.5-7.1-33.3-17.1-52.7-45.4-59-82.1-9.6-55.8 25.3-111.3 81.7-125.5 7.5-1.9 15.2-4.2 22.1-7.5 15.4-7.4 23.3-22.7 23.1-37.9.3-15.3-7.7-30.6-23.1-37.9-7-3.4-14.6-5.7-22.1-7.5-56.4-14.2-91.3-69.7-81.7-125.5 6.3-36.7 25.7-65 59-82.1 25.8-13.3 53.4-14.9 81.5-7.1 19.2 5.3 35.4 15.4 49 29.8 12.8 13.6 21.5 29.7 26.9 47.6 3.7 12 6.4 24.4 15.7 34.1 8.2 8.6 18.8 12.7 29.4 12.9 10.5-.1 21.2-4.3 29.4-12.9 9.2-9.7 12-22.1 15.7-34.1 5.4-17.9 14.1-34 26.9-47.6 13.6-14.4 29.8-24.5 49-29.8 28.1-7.8 55.7-6.1 81.5 7.1 33.3 17.1 52.7 45.4 59 82.1 9.6 55.8-25.3 111.3-81.7 125.5-7.5 1.9-15.2 4.2-22.1 7.5-15.4 7.4-23.3 22.7-23.1 37.9-.3 15.3 7.7 30.6 23.1 37.9 7 3.4 14.6 5.7 22.1 7.5 56.4 14.2 91.2 69.7 81.7 125.5z"></path><path d="M488.3 394.4c-9.6-4.3-19.8-7.7-29.9-10.8-30-9.3-48.7-29.4-55.8-59.7-1.4-5.8-2-11.5-2-17.1 0-5.6.6-11.3 2-17.1 7.1-30.3 25.8-50.4 55.8-59.7 10.1-3.1 20.3-6.5 29.9-10.8 41.4-18.6 54.4-74.5 25.9-109.8-16.2-20-36.9-30.2-62.9-28.3-29.3 2.1-54.4 22.5-63.4 50.6-5.1 15.9-10.1 32-20.3 45.7-15.8 21.2-39.5 31.4-63.1 31.5-23.6-.1-47.2-10.3-63.1-31.5-10.2-13.7-15.2-29.8-20.3-45.7-9-28-34-48.4-63.4-50.6-26-1.9-46.7 8.3-62.9 28.3-28.5 35.2-15.5 91.1 25.9 109.8 9.6 4.3 19.8 7.7 29.9 10.8 30 9.3 48.7 29.4 55.8 59.7 1.4 5.8 2 11.5 2 17.1 0 5.6-.6 11.3-2 17.1-7.1 30.3-25.8 50.4-55.8 59.7-10.1 3.1-20.3 6.5-29.9 10.8-41.4 18.6-54.4 74.5-25.9 109.8 16.2 20 36.9 30.2 62.9 28.3 29.3-2.1 54.4-22.5 63.4-50.6 5.1-15.9 10.1-32 20.3-45.7 15.8-21.2 39.5-31.4 63.1-31.5 23.6.1 47.2 10.3 63.1 31.5 10.2 13.7 15.2 29.8 20.3 45.7 9 28 34 48.4 63.4 50.6 26 1.9 46.7-8.3 62.9-28.3 28.5-35.3 15.5-91.1-25.9-109.8zm-1.9 71.5c-2.7 12.2-12.3 21.3-24.3 23.3-13.1 2.1-25.5-3.4-31.9-15.5-4.3-8.2-7.3-17.1-10.3-25.8-6.6-19.6-16.4-37.2-31.6-51.2-23.8-22-52.1-33.2-83.8-33.7-31.8.5-60 11.7-83.8 33.7-15.2 14.1-25 31.7-31.6 51.2-3 8.8-6 17.7-10.3 25.8-6.4 12.2-18.8 17.7-31.9 15.5-12-1.9-21.6-11.1-24.3-23.3-3.4-15.4 5.9-30.5 22.3-36.5 12.8-4.6 26-8.3 38.1-14.3 35.4-17.4 57.1-46.3 64.5-84.7 1.6-8.1 2.4-16 2.5-23.7-.1-7.7-.9-15.6-2.5-23.7-7.4-38.4-29.1-67.3-64.5-84.7-12.1-5.9-25.3-9.7-38.1-14.3-16.4-5.9-25.7-21.1-22.3-36.5 2.7-12.2 12.3-21.3 24.3-23.3 13.1-2.1 25.5 3.4 31.9 15.5 4.3 8.2 7.3 17.1 10.3 25.8 6.6 19.6 16.4 37.2 31.6 51.2 23.8 22 52.1 33.2 83.8 33.7 31.8-.5 60-11.7 83.8-33.7 15.2-14.1 25-31.7 31.6-51.2 3-8.8 6-17.7 10.3-25.8 6.4-12.2 18.8-17.7 31.9-15.5 12 1.9 21.6 11.1 24.3 23.3 3.4 15.4-5.9 30.5-22.3 36.5-12.8 4.6-26 8.3-38.1 14.3-35.4 17.4-57.1 46.3-64.5 84.7-1.6 8.1-2.4 16-2.5 23.7.1 7.7.9 15.6 2.5 23.7 7.4 38.4 29.1 67.3 64.5 84.7 12.1 5.9 25.3 9.7 38.1 14.3 16.5 6 25.8 21.2 22.3 36.5z"></path></svg>