<svg xmlns="http://www.w3.org/2000/svg" width="617.5" viewBox="0 0 617.5 614.5" height="614.5" xml:space="preserve" style="enable-background:new 0 0 617.5 614.5"><path d="M525.4 302.1c97.3-40.7 92-142.2 92-142.2C611-13.5 436.6.3 436.6.3H0v614.2h460.9c84.3 0 155.9-87.1 156.5-164.9 3.2-105.8-92-147.5-92-147.5zM193.5 85.9c51.3 0 83.5 37.9 83.5 84.6 0 46.6-32.2 87.7-83.5 87.7H92V85.9h101.5zm134.9 0h108.2c93 0 88.8 84.6 88.8 84.6-2.1 80.3-88.8 88.8-88.8 88.8H326.4c24-25.1 39.3-55.8 39.3-88.8.1-31.2-14.5-60.3-37.3-84.6zM207.8 351.2c42.9 6.4 69.1 41.4 69.1 83.5 0 46.6-32.2 84.6-83.5 84.6H92V351.2h115.8zm243.6 171.3H328.5c22.8-24.9 37.3-55.2 37.3-87.7 0-30.8-12.5-59.4-32.6-83.5h103.4c88.8 7.4 84.6 83.5 84.6 83.5 0 78.2-69.8 87.7-69.8 87.7z"></path></svg>