<svg version="1.0" xmlns="http://www.w3.org/2000/svg" width="619.2" viewBox="0 0 619.2 618.8" height="618.8" xml:space="preserve" style="enable-background:new 0 0 619.2 618.8"><path d="M150.5 301V150.5h16.8V301H452V150.5h16.8V301c83.1 0 150.5-67.4 150.5-150.5S551.8 0 468.7 0 318.2 67.4 318.2 150.5H301C301 67.4 233.6 0 150.5 0S0 67.4 0 150.5 67.4 301 150.5 301zM468.7 317.8v150.5H452V317.8H167.3v150.5h-16.8V317.8C67.4 317.8 0 385.1 0 468.3s67.4 150.5 150.5 150.5S301 551.4 301 468.3h17.3c0 83.1 67.4 150.5 150.5 150.5s150.5-67.4 150.5-150.5-67.5-150.5-150.6-150.5z"></path></svg>