<svg xmlns="http://www.w3.org/2000/svg" width="600.8" viewBox="0 0 600.8 618.6" height="618.6" xml:space="preserve" style="enable-background:new 0 0 600.8 618.6"><path d="m579.6 426-1-1.6c10.1-18.4 15.4-38.9 15.4-60.3 0-25.1-7.4-49.3-21.3-70.1l-2.4-4c10.4-9.9 18.1-22.5 22.2-36.6 6-20.9 3.4-42.4-7.3-60.7L499 40.5C485.3 16.4 459.4 0 429.7 0c-28.3 0-53.3 14.9-67.3 37.3C348.3 14.9 323.4 0 295.1 0c-28.3 0-53.1 14.8-67.2 37.1C213.8 14.8 189 0 160.7 0c-30.1 0-56.4 16.8-69.8 41.6l-81 148.3c-17.2 31.7-10.4 72.1 13.8 97L15.4 301l-.4.6c-9.8 17.9-15 38.2-15 58.6L.3 498c0 66.1 53.8 119.9 119.9 119.9 40.8 0 76.9-20.5 98.5-51.7 11.1 30.5 40.4 52.4 74.7 52.4 36.2 0 66.8-24.3 76.3-57.5 4.9 7.7 10.7 14.9 17.4 21.5 23.3 22.8 54.5 35.4 87.7 35.4 69.4 0 125.9-55 125.9-122.6.1-24.9-7.2-48.9-21.1-69.4zM45.9 209.5 93.7 122c5.8 9.1 13.5 17 22.4 23.1-11 7.5-19.9 17.6-26.1 29.5l-43.8 74c-6-12-6.7-27.2-.3-39.1zm153.2 288.6c0 43.5-35.4 78.8-78.8 78.8-43.5 0-78.8-35.4-78.8-78.9L41 360.2c0-13.5 3.4-26.8 9.8-38.7L81.3 270v73.6c0 43.8 35.6 79.4 79.4 79.4 13.9 0 27-3.6 38.3-9.9v85zm4.3-155.1c0 23.1-18.8 41.9-41.9 41.9s-41.9-18.8-41.9-41.9V211.8c0-23.1 18.8-41.9 41.9-41.9s41.9 18.8 41.9 41.9V343zm-41.9-219.1c-23.1 0-41.9-18.8-41.9-41.9 0-23.1 18.8-41.9 41.9-41.9s41.9 18.8 41.9 41.9c0 23.1-18.8 41.9-41.9 41.9zm335.9-2.9 52.4 92.6c4.9 8.5 6.1 18.6 3.2 28.4-1.1 3.9-2.9 7.6-5.1 11l-49-81.2c-6-10.7-14.5-19.8-24.6-26.7 9.3-6.3 17.2-14.5 23.1-24.1zm1.1 129.6 39.7 65.8.3.4c9.5 14 14.5 30.4 14.5 47.3 0 6.2-.7 12.3-2 18.2l-54.6-83c-5.8-9-13.3-16.7-22.1-22.7 9.9-6.7 18.2-15.6 24.2-26zM428.7 40c23.1 0 41.9 18.8 41.9 41.9 0 23.1-18.8 41.9-41.9 41.9s-41.9-18.8-41.9-41.9c0-23 18.8-41.9 41.9-41.9zm-134.4 0c23.1 0 41.9 18.8 41.9 41.9 0 23.1-18.8 41.9-41.9 41.9-23.1 0-41.9-18.8-41.9-41.9-.1-23 18.7-41.9 41.9-41.9zm37.6 499.1c0 21.2-17.2 38.4-38.4 38.4s-38.4-17.2-38.4-38.4V410.8c11.8 6.9 25.5 10.9 40.1 10.9 13.3 0 25.8-3.3 36.8-9.1v126.5zm-37.6-154.2c-23.1 0-41.9-18.8-41.9-41.9s18.8-41.9 41.9-41.9c23.1 0 41.9 18.8 41.9 41.9s-18.8 41.9-41.9 41.9zm1.6-131.1c-23.1 0-41.9-18.8-41.9-41.9s18.8-41.9 41.9-41.9h132.8c23.1 0 41.9 18.8 41.9 41.9s-18.8 41.9-41.9 41.9H295.9zm90.9 89.2c0-23.1 18.8-41.9 41.9-41.9s41.9 18.8 41.9 41.9-18.8 41.9-41.9 41.9-41.9-18.8-41.9-41.9zm88.1 233.9c-46.6 0-83.2-35.8-83.2-81.6l-.2-83.3c11.3 6.2 24.3 9.7 38 9.7 30.5 0 57-17.2 70.3-42.5l45.6 69.4.1.2c9.3 13.7 14.2 29.8 14.2 46.5.1 45-38 81.6-84.8 81.6z"></path></svg>