<svg data-name="Layer 1" xmlns="http://www.w3.org/2000/svg" viewBox="0 0 614.95 502.03"><path d="M563.62 6.37C532.44-6.54 496.87.53 472.89 24.51L307.26 191.37 141.95 27.28C118.08 3.41 82.51-3.65 51.33 9.26 20.15 22.18 0 52.33 0 86.08v329.87c0 33.75 20.15 63.91 51.33 76.82 31.18 12.91 66.75 5.84 90.51-17.92l165.42-164.19L473 477.63c15.95 15.95 37.12 24.4 58.71 24.4 10.72 0 21.56-2.08 31.91-6.37 31.18-12.91 51.33-43.07 51.33-76.82V83.19c0-33.75-20.15-63.91-51.33-76.82ZM83.76 414.46V87.56l164.68 163.45L83.76 414.46Zm447.42 2.9L366.07 251.03 531.18 84.71v332.64Z"></path></svg>