<svg xmlns="http://www.w3.org/2000/svg" width="631.1" viewBox="0 0 631.1 631.1" height="631.1" xml:space="preserve" style="enable-background:new 0 0 631.1 631.1"><path d="M315.5 0C141.3 0 0 141.3 0 315.5 0 489.8 141.3 631 315.5 631 489.8 631 631 489.7 631 315.5 631.1 141.3 489.8 0 315.5 0zm228.4 428.9c-22.5 47-58.9 85.9-103.9 111.5-13.9 7.9-28.4 15.4-44.7 16-32 1.2-49.9-26.7-50.2-55.5v-52l52.2 52.2 41.1-41.1-94.2-94.2s-29.2-29.2-58.4 0c-12.9 12.9-93.2 94.2-93.2 94.2l41.1 41.1 52.2-52.2v52c-.3 28.8-18.3 56.6-50.2 55.5-16.3-.6-30.8-8.1-44.7-16-45-25.6-81.5-64.6-103.9-111.5-8.4-17.5-14-38.3-6.1-57.1 7.2-17.1 21.7-26.8 44.6-26.8H186l-52.2 52.2 41.1 41.1 94.2-94.2s29.2-29.2 0-58.4c-12.9-12.9-94.2-93.2-94.2-93.2l-41.1 41.1L186 286h-60.3c-22.9 0-37.4-9.7-44.6-26.8-7.9-18.7-2.3-39.6 6.1-57.1 22.5-46.9 58.9-85.9 103.9-111.5 13.9-7.9 28.4-15.4 44.7-16 31.9-1.2 49.9 26.7 50.2 55.5v54.4l-52.2-52.2-41.1 41.1 94.2 94.2s29.2 29.2 58.5 0c12.9-12.9 93.2-94.2 93.2-94.2l-41.1-41.1-52.2 52.2v-54.4c.3-28.8 18.3-56.6 50.2-55.5 16.3.6 30.8 8.1 44.7 16 45 25.6 81.5 64.6 103.9 111.5 8.4 17.5 14 38.3 6.1 57.1-7.2 17.1-21.7 26.8-44.6 26.8h-59l52.2-52.2-41.1-41.1-94.2 94.2s-29.2 29.2 0 58.5c12.9 12.9 94.2 93.2 94.2 93.2l41.1-41.1-52.2-52.2h59c22.9 0 37.3 9.7 44.6 26.8 7.7 18.5 2.1 39.3-6.3 56.8z"></path></svg>