<svg xmlns="http://www.w3.org/2000/svg" width="617.6" viewBox="0 0 617.6 617.8" height="617.8" xml:space="preserve" style="enable-background:new 0 0 617.6 617.8"><path d="m127.4 353.5 2.8-1.9c-3.3-13.7-5-28-5-42.7 0-101.5 82.2-183.7 183.7-183.7 96.5 0 175.5 74.4 183 169h125.4C609.6 130.4 474.4 0 308.8 0 138.2 0 0 138.3 0 308.9c0 51.8 12.8 100.6 35.3 143.5 23.2-38.9 54.9-73 92.1-98.9z"></path><path d="M617.6 308.9v-3H492.4c0 1 .1 2 .1 3 0 18.1-2.7 35.6-7.6 52.2C435 326.4 374.3 306 308.8 306s-126.1 20.4-176.1 55.1C95 387.3 63.3 421.8 40.5 461.9 63.3 502 95 536.4 132.7 562.7c49.9 34.8 110.6 55.1 176.1 55.1 62 0 119.7-18.3 168-49.8l-.8-2.8c-11.5-39.1-36.6-73.1-70.7-95.7l-3.5-2.3c-27.3 16.1-59.1 25.4-93.1 25.4-37.6 0-72.6-11.3-101.7-30.7 29.1-19.4 64.1-30.7 101.7-30.7 37.6 0 72.6 11.3 101.7 30.7 35.4 23.6 62.1 59.1 74.4 100.8 4.9 16.5 7.6 34.1 7.6 52.2h125.1c0-55.7-14.7-107.9-40.5-153 25.9-45.1 40.6-97.3 40.6-153zM133.7 447.6c-16 0-28.9-12.9-28.9-28.9 0-16 12.9-28.9 28.9-28.9s28.9 12.9 28.9 28.9c0 16-12.9 28.9-28.9 28.9z"></path></svg>