<svg data-name="Layer 1" xmlns="http://www.w3.org/2000/svg" viewBox="0 0 615.02 425.54"><path d="M368.01 122.25H247.16v56.3h120.85c25.96 0 50.23 10.25 68.35 28.86 18.1 18.6 27.68 43.17 26.96 69.19-1.4 51.08-45.31 92.64-97.88 92.64H154.02c-53.88 0-97.72-43.84-97.72-97.72V0H0v271.52c0 84.93 69.09 154.02 154.02 154.02h211.42c82.77 0 151.93-66.12 154.15-147.4 1.13-41.33-14.1-80.39-42.89-109.98-28.8-29.6-67.4-45.9-108.69-45.9Z"></path><path d="M461.01 0H249.59C166.81 0 97.66 66.12 95.43 147.4c-1.14 41.33 14.1 80.39 42.89 109.98 28.8 29.6 67.4 45.91 108.7 45.91h120.85v-56.3H247.02c-25.96 0-50.24-10.25-68.35-28.87-18.1-18.6-27.68-43.17-26.96-69.18 1.4-51.09 45.31-92.65 97.88-92.65h211.42c53.88 0 97.72 43.84 97.72 97.72v271.52h56.3V154.02C615.02 69.09 545.93 0 461.01 0Z"></path></svg>