<svg xmlns="http://www.w3.org/2000/svg" id="a" width="642" viewBox="0 0 642 642" height="642" data-name="Layer 1"><defs></defs><path d="M338.65 269.64H203.83c-74.46 0-134.82-60.36-134.82-134.82S129.38 0 203.83 0s134.82 60.36 134.82 134.82v134.82Zm-65.24-134.82c0-38.43-31.15-69.58-69.58-69.58s-69.58 31.15-69.58 69.58 31.15 69.58 69.58 69.58h69.58v-69.58ZM372.36 338.66V203.84c0-74.46 60.36-134.82 134.82-134.82S642 129.38 642 203.84s-60.36 134.82-134.82 134.82H372.36Zm134.82-65.24c38.43 0 69.58-31.15 69.58-69.58s-31.15-69.58-69.58-69.58-69.58 31.15-69.58 69.58v69.58h69.58ZM303.34 372.36h134.82c74.46 0 134.82 60.36 134.82 134.82S512.62 642 438.16 642s-134.82-60.36-134.82-134.82V372.36Zm65.24 134.82c0 38.43 31.15 69.58 69.58 69.58s69.58-31.15 69.58-69.58-31.15-69.58-69.58-69.58h-69.58v69.58ZM269.64 303.34v134.82c0 74.46-60.36 134.82-134.82 134.82S0 512.62 0 438.17s60.36-134.82 134.82-134.82h134.82Zm-134.82 65.24c-38.43 0-69.58 31.15-69.58 69.58s31.15 69.58 69.58 69.58 69.58-31.15 69.58-69.58v-69.58h-69.58Z" class="b"></path></svg>