<svg data-name="Layer 1" xmlns="http://www.w3.org/2000/svg" viewBox="0 0 593.66 594.07"><path d="M581.31 312.07c-7.84 150.02-132.34 269.67-284.28 269.67S12.34 454.02 12.34 297.05 140.05 12.34 297.03 12.34 571.91 130.56 581.1 279.32h12.37C584.26 123.75 454.85 0 297.03 0S0 133.26 0 297.05s133.25 297.02 297.03 297.02 288.79-125.17 296.64-282h-12.36Z"></path><path d="M565.02 279.32c-9.17-139.9-125.83-250.94-268-250.94S28.37 148.9 28.37 297.05 148.89 565.7 297.02 565.7s260.38-112.46 268.2-253.63h-12.37c-7.81 134.36-119.55 241.29-255.83 241.29S40.71 438.38 40.71 297.05 155.69 40.71 297.03 40.71s246.48 105.51 255.63 238.6h12.37Z"></path><path d="M536.57 279.32C527.46 155.08 423.54 56.76 297.02 56.76S56.75 164.55 56.75 297.05s107.79 240.28 240.28 240.28S529 437.58 536.78 312.07h-12.37c-7.77 118.7-106.75 212.92-227.39 212.92S69.08 422.74 69.08 297.05 171.34 69.09 297.03 69.09s218.09 92.79 227.18 210.23h12.37Z"></path><path d="M508.13 279.32C499.08 170.74 407.9 85.13 297.03 85.13c-116.84 0-211.9 95.07-211.9 211.92s95.06 211.9 211.9 211.9 203.57-87.03 211.31-196.88h-12.37c-7.71 103.04-93.96 184.55-198.94 184.55S97.46 407.1 97.46 297.06 186.98 97.47 297.03 97.47c104.06 0 189.72 80.08 198.73 181.85h12.37Z"></path><path d="M297.03 113.51c-101.2 0-183.53 82.34-183.53 183.54s82.33 183.53 183.53 183.53 183.52-82.33 183.52-183.53-82.33-183.54-183.52-183.54Zm0 354.73c-94.4 0-171.19-76.8-171.19-171.19s76.79-171.21 171.19-171.21 171.19 76.8 171.19 171.21-76.8 171.19-171.19 171.19Z"></path><path d="M297.03 141.88c-85.55 0-155.16 69.61-155.16 155.17s69.6 155.15 155.16 155.15 155.15-69.6 155.15-155.15-69.6-155.17-155.15-155.17Zm0 297.98c-78.75 0-142.82-64.07-142.82-142.82s64.07-142.83 142.82-142.83 142.81 64.07 142.81 142.83-64.07 142.82-142.81 142.82Z"></path><path d="M297.03 170.26c-69.91 0-126.78 56.88-126.78 126.79s56.87 126.78 126.78 126.78 126.78-56.87 126.78-126.78-56.87-126.79-126.78-126.79Zm0 241.23c-63.11 0-114.45-51.34-114.45-114.44S233.92 182.6 297.03 182.6s114.44 51.34 114.44 114.45-51.34 114.44-114.44 114.44Z"></path><path d="M297.03 198.64c-54.27 0-98.41 44.15-98.41 98.41s44.14 98.41 98.41 98.41 98.4-44.14 98.4-98.41-44.14-98.41-98.4-98.41Zm0 184.48c-47.46 0-86.07-38.61-86.07-86.07s38.61-86.08 86.07-86.08 86.07 38.61 86.07 86.08-38.61 86.07-86.07 86.07Z"></path><path d="M297.03 227.01c-38.62 0-70.04 31.42-70.04 70.04s31.42 70.03 70.04 70.03 70.03-31.42 70.03-70.03-31.42-70.04-70.03-70.04Zm0 127.73c-31.81 0-57.7-25.88-57.7-57.7s25.89-57.7 57.7-57.7 57.69 25.88 57.69 57.7-25.88 57.7-57.69 57.7Z"></path><path d="M297.03 255.39c-22.97 0-41.66 18.69-41.66 41.66s18.69 41.66 41.66 41.66 41.66-18.69 41.66-41.66-18.69-41.66-41.66-41.66Zm0 70.98c-16.17 0-29.33-13.15-29.33-29.32s13.16-29.32 29.33-29.32 29.32 13.15 29.32 29.32-13.15 29.32-29.32 29.32Z"></path></svg>