<svg xmlns="http://www.w3.org/2000/svg" width="629.8" viewBox="0 0 629.8 629.8" height="629.8" xml:space="preserve" style="enable-background:new 0 0 629.8 629.8"><path d="M314.9 0 0 314.9l314.9 314.9 314.9-314.9L314.9 0zm243.3 366.1-37.6 37.6-97.3-97.3-10.2 10.2 97.3 97.3-43.1 43.1-142.1-142.1 142.1-142.1 142.1 142.1-41 41-97.3-97.3-10.2 10.2 97.3 97.3zM357.8 63.4l-97.3 97.3 10.2 10.2L368 73.6l37.6 37.6-97.3 97.3 10.2 10.2 97.3-97.3 41.2 41.2-142.1 142.1-142.1-142.1L314.9 20.5l42.9 42.9zM20.5 314.9l142.1-142.1L457 467.3 314.9 609.4 20.5 314.9z"></path></svg>