<svg xmlns="http://www.w3.org/2000/svg" width="618.3" viewBox="0 0 618.3 618.3" height="618.3" xml:space="preserve" style="enable-background:new 0 0 618.3 618.3"><path d="M574.1 547.6c2.4-2.6 4.7-5.4 6.9-8.1 22.7-28.8 38.5-67.8 37.3-113.6-2.5-95.9-78.6-173.4-182.3-167-60.7 3.7-95.1 33.1-129.3 67.3-3.1 3.1-46.4 48-46.4 48l122.3 122.3 57.1-57.1-61.8-61.8c48.7-63.3 146.1-30.9 155.2 39.6 9.3 72.3-61 116.9-122.7 116.9H84.1V207.8c0-61.6 44.6-132 116.9-122.7 70.5 9.1 103 106.5 39.6 155.2l-61.8-61.8-57.1 57.1L244.2 358s44.9-43.3 48-46.4c34.2-34.2 63.6-68.6 67.3-129.3C365.9 78.6 288.4 2.5 192.5 0c-45.8-1.2-84.9 14.6-113.6 37.3-2.8 2.2-5.5 4.5-8.1 6.9-19.2 17.3-35.8 38.8-47 62C10.6 133.5 2.3 165.8 0 202.8v415.5h415.5c37-2.3 69.3-10.6 96.6-23.8 23.2-11.2 44.8-27.7 62-46.9z"></path></svg>