<svg id="Layer_1" data-name="Layer 1" xmlns="http://www.w3.org/2000/svg" viewBox="0 0 619.81 587.89"><defs></defs><path class="cls-1" d="M0 0h619.81v20.63H0zM0 27.01h619.81v20.63H0zM0 54.02h619.81v20.63H0zM0 81.04h619.81v20.63H0zM0 108.05h619.81v20.63H0zM0 135.06h619.81v20.63H0zM0 162.07h619.81v20.63H0zM0 189.09h619.81v20.63H0zM0 216.1h619.81v20.63H0zM0 243.11h619.81v20.63H0zM0 270.12h619.81v20.63H0zM0 297.14h619.81v20.63H0zM0 324.15h619.81v20.63H0zM0 351.16h619.81v20.63H0zM0 378.17h619.81v20.63H0zM0 405.18h619.81v20.63H0zM0 432.2h619.81v20.63H0zM0 459.21h619.81v20.63H0zM0 486.22h619.81v20.63H0zM0 513.23h619.81v20.63H0zM0 540.25h619.81v20.63H0zM0 567.26h619.81v20.63H0z"></path></svg>