<svg xmlns="http://www.w3.org/2000/svg" width="614.9" viewBox="0 0 614.9 616.5" height="616.5" style="enable-background:new 0 0 614.9 616.5" xml:space="preserve"><path d="M614.9 284.3c0-81.9-66.6-148.5-148.5-148.5-54.2 0-101.7 29.2-127.6 72.7v-50s.9-32.8 6.3-48.4c9.5-31.6 31.5-59.1 60-75.7 6.7-3.9 13.9-7.3 21.4-9.5 6.6-2 15.8-4.7 22.5-1.7 0 0-1.6.8-2.8 1.5-14.8 8.1-20.6 26.1-16.4 41.9 6.6 26.5 37 35.7 58.2 19.2 17.7-12.2 22.6-37.7 13.6-56.9C491.8 8 468.5-1.5 446.7.2c-24.1.9-47.5 10.7-66.3 25.6-10.8 8.6-21 18-29.4 29.1-11.4 13.7-19.3 30-25 46.8-4.7 13-7 26.5-7.8 40.2-.2 5.5-.2 11.1-.3 16.6v143.3c29.6 5 52.1 30.7 52.1 61.6 0 31-22.6 56.7-52.1 61.6v95.6c0 52 42.3 94.4 94.4 94.4 34.1 0 64-18.2 80.6-45.3-.9 3.1-1.4 6.5-1.4 9.9 0 20.3 16.5 36.7 36.7 36.7 20.3 0 36.7-16.5 36.7-36.7S548.5 543 528.2 543c-11.7 0-22.1 5.5-28.8 14 4.6-11.1 7.2-23.3 7.2-36.1 0-42.8-28.6-78.9-67.7-90.5 8.9 1.7 18.1 2.5 27.4 2.5 81.9-.1 148.6-66.7 148.6-148.6zM288.9 101.7c-5.7-16.9-13.6-33.1-25-46.8-8.4-11.1-18.6-20.4-29.4-29.1C215.7 10.8 192.4 1 168.2.2c-21.9-1.7-45.1 7.8-54.8 28.6-9.1 19.2-4.1 44.7 13.6 56.9 21.3 16.5 51.6 7.4 58.2-19.2 4.2-15.8-1.6-33.8-16.4-41.9-1.2-.7-2.8-1.5-2.8-1.5 6.7-3 15.9-.3 22.5 1.7 7.5 2.3 14.6 5.6 21.4 9.5 28.5 16.6 50.5 44.1 60 75.7 5.5 15.7 6.3 48.4 6.3 48.4v50c-25.9-43.5-73.4-72.7-127.6-72.7C66.6 135.8 0 202.4 0 284.3s66.6 148.5 148.5 148.5c9.4 0 18.5-.9 27.4-2.5-39.1 11.6-67.7 47.7-67.7 90.5 0 12.8 2.6 25 7.2 36.1-6.7-8.5-17.1-14-28.8-14-20.3 0-36.7 16.5-36.7 36.7s16.5 36.7 36.7 36.7 36.7-16.5 36.7-36.7c0-3.4-.5-6.7-1.4-9.9 16.6 27.2 46.5 45.3 80.6 45.3 52 0 94.4-42.3 94.4-94.4V425c-29.6-5-52.1-30.7-52.1-61.6 0-31 22.6-56.7 52.1-61.6V158.5l-.3-16.6c-.7-13.7-3-27.2-7.7-40.2z"></path></svg>