<svg data-name="Layer 1" xmlns="http://www.w3.org/2000/svg" viewBox="0 0 626.89 626.89"><path d="M413.31 566.06c-61.97 9-124.27-1.11-173.89-41.68-40.2-32.86-63.63-78.6-72.94-129.02-.88-4.77-1.63-9.79-2.31-14.92 12.61 8.28 27.68 13.13 43.89 13.13 2.04 0 4.04-.16 6.05-.31 5.43 31.41 21.53 61.1 43.99 83.42 75.82 75.32 209.24 43.62 283.21-23.56 22.58-19.86 41.19-44.03 55.16-70.63 44.6-84.92 36.89-187.85-1.96-273.61-12.99-28.69-40.64-69.98-58.82-92.6l-81.7-.19c57.35 47.18 101.43 124.29 112.06 197.5 9 61.97-1.11 124.27-41.68 173.89-32.86 40.2-78.6 63.63-129.02 72.94-4.77.88-9.79 1.63-14.92 2.31 8.28-12.61 13.13-27.68 13.13-43.89 0-2.04-.16-4.04-.31-6.05 31.41-5.43 61.1-21.53 83.42-43.99 75.32-75.82 43.62-209.24-23.56-283.21-19.86-22.58-44.03-41.19-70.63-55.16-84.91-44.61-187.83-36.9-273.6 1.95-28.69 12.99-69.59 40.39-92.21 58.57v81.24c47.18-57.35 123.7-100.72 196.91-111.35 61.97-9 124.27 1.11 173.89 41.68 40.2 32.86 63.63 78.6 72.94 129.02.88 4.77 1.63 9.79 2.31 14.92-12.61-8.28-27.68-13.13-43.89-13.13-2.04 0-4.04.16-6.05.31-5.43-31.41-21.53-61.1-43.99-83.42-75.82-75.32-209.24-43.62-283.21 23.56-22.58 19.86-41.19 44.03-55.16 70.63-44.6 84.92-36.89 187.85 1.96 273.61 12.99 28.69 40.18 69.27 58.36 91.89h81.06C114.45 562.73 71.47 486.53 60.84 413.32c-9-61.97 1.11-124.27 41.68-173.89 32.86-40.2 78.6-63.63 129.02-72.94 4.77-.88 9.79-1.63 14.92-2.31-8.28 12.61-13.13 27.68-13.13 43.89 0 2.04.15 4.04.31 6.05-31.41 5.43-61.1 21.53-83.42 43.99-75.32 75.82-43.62 209.24 23.56 283.21 19.86 22.58 44.03 41.19 70.63 55.16 84.92 44.6 187.84 36.89 273.61-1.96 28.69-12.99 69.59-40.39 92.21-58.57l.07-81.34c-47.18 57.35-123.77 100.81-196.98 111.45Zm-67.94-284.58c-4.27 9.8-6.67 20.6-6.67 31.97s2.43 22.14 6.72 31.93c-9.8-4.27-20.6-6.67-31.97-6.67s-22.14 2.43-31.93 6.72c4.27-9.8 6.67-20.6 6.67-31.97s-2.43-22.14-6.72-31.93c9.8 4.27 20.6 6.67 31.97 6.67s22.14-2.43 31.93-6.72Z"></path></svg>