<svg id="Layer_1" data-name="Layer 1" xmlns="http://www.w3.org/2000/svg" viewBox="0 0 602.14 602.14">   <path d="M523.63,0H78.5C35.33,0,0,35.33,0,78.5v445.13c0,43.18,35.33,78.5,78.5,78.5h0c43.18,0,78.5-35.33,78.5-78.5V157.01h366.63c43.18,0,78.5-35.33,78.5-78.5S566.81,0,523.63,0Z"></path>   <path d="M391.68,298.98H246.78c-43.18,0-78.5,35.33-78.5,78.5h0c0,.07,.01,.14,.01,.21l-.43-.21v146.15c0,43.18,35.33,78.5,78.5,78.5s78.5-35.33,78.5-78.5v-67.65h66.81c43.18,0,78.5-35.33,78.5-78.5h0c0-43.18-35.33-78.5-78.5-78.5Z"></path> </svg>