<svg xmlns="http://www.w3.org/2000/svg" width="623.8" viewBox="0 0 623.8 283.3" height="283.3" style="enable-background:new 0 0 623.8 283.3" xml:space="preserve"><path d="M257.4 0h-49.1c-9.9 0-20.4-.1-30.2 2.5-15.6 4.1-41.4 14.8-76 42.5C54.5 83.2 3.5 85 0 85h415.5c9.9 0 20.4.1 30.2-2.5 15.6-4.1 41.4-14.8 76-42.5C569.3 1.9 620.3 0 623.8 0H257.4zM257.4 99.1h-49.1c-9.9 0-20.4-.1-30.2 2.5-15.6 4.1-41.4 14.8-76 42.5-47.6 38.1-98.6 40-102.1 40h415.5c9.9 0 20.4.1 30.2-2.5 15.6-4.1 41.4-14.8 76-42.5 47.6-38.1 98.6-40 102.1-40H257.4zM257.4 198.2h-49.1c-9.9 0-20.4-.1-30.2 2.5-15.6 4.1-41.4 14.8-76 42.5-47.6 38.1-98.6 40-102.1 40h415.5c9.9 0 20.4.1 30.2-2.5 15.6-4.1 41.4-14.8 76-42.5 47.6-38.1 98.6-40 102.1-40H257.4z"></path></svg>