<svg xmlns="http://www.w3.org/2000/svg" width="591.4" viewBox="0 0 591.4 591.4" height="591.4" xml:space="preserve"><path d="M286.9 98.7v39.9c2.9-.2 5.9-.2 8.8-.2 21.2 0 41.9 4.2 61.2 12.4 18.7 7.9 35.6 19.3 50 33.7 14.5 14.5 25.8 31.3 33.7 50 8.2 19.4 12.4 40 12.4 61.2s-4.2 41.9-12.4 61.2c-7.9 18.7-19.3 35.6-33.7 50-14.5 14.5-31.3 25.8-50 33.7-19.4 8.2-40 12.4-61.2 12.4s-41.9-4.2-61.2-12.4c-18.7-7.9-35.6-19.3-50-33.7-14.5-14.5-25.8-31.3-33.7-50-8.2-19.4-12.4-40-12.4-61.2H98.5c0 26.6 5.2 52.4 15.5 76.8 9.9 23.5 24.1 44.6 42.3 62.7 18.1 18.1 39.2 32.3 62.7 42.3 24.3 10.3 50.2 15.5 76.8 15.5s52.4-5.2 76.8-15.5c23.5-9.9 44.6-24.1 62.7-42.3 18.1-18.1 32.3-39.2 42.3-62.7 10.3-24.3 15.5-50.2 15.5-76.8 0-26.6-5.2-52.4-15.5-76.8-9.9-23.5-24.1-44.6-42.3-62.7-18.1-18.1-39.2-32.3-62.7-42.3-24.3-10.3-50.2-15.5-76.8-15.5-3 .1-6 .2-8.9.3z"></path><path d="M551.5 295.7c0 34.5-6.8 68-20.1 99.6-12.9 30.5-31.3 57.8-54.8 81.3-23.5 23.5-50.9 42-81.3 54.8-31.5 13.3-65 20.1-99.6 20.1-34.5 0-68-6.8-99.6-20.1-30.5-12.9-57.8-31.3-81.3-54.8-23.5-23.5-42-50.9-54.8-81.3-13.3-31.5-20.1-65-20.1-99.6s6.8-68 20.1-99.6c12.9-30.5 31.3-57.8 54.8-81.3s50.9-42 81.3-54.8c31.5-13.3 65-20.1 99.6-20.1V0C255.8 0 217 7.8 180.6 23.2c-35.2 14.9-66.8 36.2-94 63.4-27.1 27.1-48.5 58.8-63.4 94C7.8 217 0 255.8 0 295.7s7.8 78.6 23.2 115.1c14.9 35.2 36.2 66.8 63.4 94 27.1 27.1 58.8 48.5 94 63.4 36.5 15.4 75.2 23.2 115.1 23.2s78.6-7.8 115.1-23.2c35.2-14.9 66.8-36.2 94-63.4 27.1-27.1 48.5-58.8 63.4-94 15.4-36.5 23.2-75.2 23.2-115.1h-39.9z"></path></svg>