<svg xmlns="http://www.w3.org/2000/svg" width="608.1" viewBox="0 0 608.1 586.8" height="586.8" xml:space="preserve"><path d="m.4 202.4 173.3 173.3v211.1h8.3V372.3L.4 190.6z"></path><path d="m.4 151.8 209.3 209.4v225.6h8.3V357.7L.4 140.1z"></path><path d="m0 50.3 281.8 281.8v254.7h8.3V328.7L0 38.6z"></path><path d="m0 100.9 245.3 245.3v240.6h8.3V342.7L0 89.2zM217 53.3 163.7 0H152l65 65zM217 205 12 0H.3L217 216.7zM217 154.4 62.6 0H50.8L217 166.2zM217 103.8 113.1 0h-11.7L217 115.6z"></path><path d="m245.8 245.5 8.3 8.3v-214L214.3 0h-11.8l43.3 43.2zM281.8 281.5l8.3 8.3V0h-8.3zM426.1 586.8h8.3V375.7l173.3-173.3v-11.8L426.1 372.3z"></path><path d="M607.7 140.1 390.1 357.7v229.1h8.3V361.2l209.3-209.4z"></path><path d="M318 328.7v258.1h8.3V332.1L608.1 50.3V38.6z"></path><path d="M354.5 586.8h8.3V346.2l245.3-245.3V89.2L354.5 342.7zM391.1 65l65-65h-11.7l-53.3 53.3zM391.1 216.7 607.9 0h-11.8l-205 205zM391.1 166.2 557.3 0h-11.8L391.1 154.4zM391.1 115.6 506.7 0H495L391.1 103.8z"></path><path d="M362.4 43.2 405.6 0h-11.8L354 39.8v214l8.4-8.3zM326.3 0H318v289.8l8.3-8.3z"></path></svg>