<svg xmlns="http://www.w3.org/2000/svg" width="610.8" viewBox="0 0 610.8 610.8" height="610.8" xml:space="preserve"><path d="M407.5 254.9c28.2 0 51-22.8 51-51 0-13-4.9-24.9-12.9-33.9 8.9 7.8 20.6 12.5 33.4 12.5 28.2 0 51-22.8 51-51s-22.8-51-51-51-51 22.8-51 51c0 13 4.9 24.9 12.9 33.9-8.9-7.8-20.6-12.5-33.4-12.5-28.2 0-51 22.8-51 51s22.8 51 51 51z"></path><circle cx="407.5" cy="407" r="51"></circle><circle cx="204.3" cy="407" r="51"></circle><path d="M0 0v610.8h610.8V0H0zm4.4 4.4h295.5c-25 3-44.5 24.4-44.5 50.2v200.3H55c-27.8 0-50.6 22.8-50.6 50.6C4.5 333.2 27.2 356 55 356h200.3v200.3c0 25.8 19.5 47.2 44.5 50.2H4.4V4.4zm602 602H312c25-3 44.5-24.4 44.5-50.2V356h199.3c27.8 0 50.6-22.8 50.6-50.6s-22.8-50.6-50.6-50.6H356.5V54.6c0-25.8-19.5-47.2-44.5-50.2h294.5v602z"></path></svg>