<svg data-name="Layer 1" xmlns="http://www.w3.org/2000/svg" viewBox="0 0 625.07 625.07"><path d="M519.34 78.3v229.87l-71.55 41.51V118.45l70.61-40.96C463.4 29.28 391.41 0 312.54 0 139.93 0 0 139.93 0 312.54c0 93.28 40.92 176.97 105.73 234.23V316.9l19.2-11.14V537l-18.25 10.59c54.99 48.2 126.99 77.48 205.86 77.48 172.61 0 312.53-139.93 312.53-312.54 0-93.28-40.92-176.97-105.73-234.23Zm-299.3 403.52-29.67 17.21V267.79l29.67-17.21v231.24Zm101.22-58.73-45.38 26.33V218.18l45.38-26.32V423.1Zm98.6-57.21-56.72 32.91V167.55l56.72-32.91v231.24Z"></path></svg>