<svg xmlns="http://www.w3.org/2000/svg" width="628.3" viewBox="0 0 628.3 626.7" height="626.7" xml:space="preserve" style="enable-background:new 0 0 628.3 626.7"><path d="m302.8 0-60.7 59v77.1l-55-51.9h-84.5l200.2 200.5zM85 100.9v84l56.7 56.7H61.2L0 302.8h289.2zM441.2 84.2l-55.1 51.9V59L325.5 0v284.7L525.6 84.2zM543.2 100.9 339.1 302.8h289.2l-61.2-61.2h-80.6l56.7-56.7zM325.5 485.9v70h-22.7V324.4H0l61.2 61.2h182v170.7c.3 38.9 31.9 70.4 70.9 70.4s70.6-31.5 70.9-70.4V385.6h182l61.2-61.2H325.5v161.5z"></path></svg>