<svg xmlns="http://www.w3.org/2000/svg" width="611.1" viewBox="0 0 611.1 596" height="596" style="enable-background:new 0 0 611.1 596" xml:space="preserve"><path d="M0 204.9c0 98.7 72.8 180.5 167.6 194.5H0C0 508 88 596 196.6 596V8.3C88 8.3 0 96.3 0 204.9zM443.5 204.9h167.6c0-108.6-88-196.6-196.6-196.6V596c108.6 0 196.6-88 196.6-196.6 0-98.8-72.8-180.5-167.6-194.5zM210.6 206h189.9v390H210.6zM332.7 191.4c38-11.7 66.1-46 68.8-87.2h-35.9c-1.4 32.9-13.5 63.1-32.9 87.2zM332.7 4.2c19.4 24.1 31.5 54.2 32.9 87.2h35.9c-2.7-41.3-30.8-75.5-68.8-87.2zM311.7.2c-.7-.1-1.4-.2-2.1-.2v91.3h43.2c-1.7-35.6-17.1-67.7-41.1-91.1zM295.9 195.4c.3 0 .5 0 .8.1v-91.2h-41.8c1.6 35.6 17 67.6 41 91.1zM296.7 91.3V.1c-.3 0-.5 0-.8.1-23.9 23.4-39.3 55.5-41 91.2h41.8zM274.9 191.4c-19.4-24.1-31.5-54.2-32.9-87.2h-35.9c2.7 41.2 30.8 75.5 68.8 87.2zM352.7 104.2h-43.2v91.3c.7 0 1.5-.1 2.2-.2 24-23.4 39.4-55.4 41-91.1zM274.9 4.2c-38 11.7-66.1 46-68.8 87.2H242c1.4-33 13.5-63.2 32.9-87.2z"></path></svg>