<svg data-name="Layer 1" xmlns="http://www.w3.org/2000/svg" viewBox="0 0 625.83 625.83"><path d="M598.01 208.61H445.03c-15.36 0-27.81 12.45-27.81 27.81v75.16c0 56.73-46.39 105-103.12 105.63-58.55.65-106.13-46.94-105.48-105.48.63-56.73 48.9-103.12 105.63-103.12h75.16c15.36 0 27.81-12.45 27.81-27.81V27.81C417.22 12.45 404.77 0 389.41 0h-76.49c-36.58 0-71.68 6.3-104.3 17.83C87.08 60.79 0 176.67 0 312.91s87.08 252.12 208.61 295.08c32.63 11.53 67.73 17.83 104.3 17.83h76.49c15.36 0 27.81-12.45 27.81-27.81v-76.49c0-57.61 46.7-104.3 104.3-104.3H598c15.36 0 27.81-12.45 27.81-27.81V236.42c0-15.36-12.45-27.81-27.81-27.81Z"></path></svg>