<svg xmlns="http://www.w3.org/2000/svg" width="575.9" viewBox="0 0 575.9 574.9" height="574.9"><path d="M289.1 426.1c-82.1 0-148.7 66.6-148.7 148.7h84.1c0-35.7 28.9-64.6 64.6-64.6 35.7 0 64.6 28.9 64.6 64.6h84.1c0-82.1-66.6-148.7-148.7-148.7z"></path><path d="M289.1 523.7c-28.3 0-51.2 22.9-51.2 51.2h102.3c0-28.3-22.9-51.2-51.1-51.2z"></path><path d="M454.5 0c-43.1 0-83.4 23.9-105.1 62.4-10.9 19.3-13.7 39.4-15.7 54.1L309.9 291c-2.3 17.1-14.7 21.9-22 21.9-7.2 0-19.7-4.8-22-21.9l-23.8-174.5c-2-14.7-4.8-34.7-15.7-54.1C204.8 23.9 164.6 0 121.4 0 54.5 0 0 55.9 0 124.6v450.2h97.3V124.6c0-13.4 11.1-24.8 24.1-24.8 7.1 0 14 3.3 18.4 8.9 4.1 5.2 4.9 11.8 5.6 18.2.1 1.1.3 2.3.4 3.4l23.7 176.5c4.4 32.5 19.2 59.9 43 79.3 21 17.1 47.7 26.5 75.3 26.5 27.6 0 54.4-9.4 75.3-26.5 23.7-19.4 38.6-46.8 43-79.3L430 130.4c.2-1.1.3-2.2.4-3.4.8-6.4 1.5-13 5.6-18.2 4.4-5.6 11.3-8.9 18.4-8.9 13.1 0 24.1 11.3 24.1 24.8v450.2h97.3V124.6C575.9 55.9 521.4 0 454.5 0z"></path></svg>