<svg data-name="Layer 1" xmlns="http://www.w3.org/2000/svg" viewBox="0 0 619.04 604.56"><path d="M309.52 43.41c-142.74 0-258.87 116.13-258.87 258.87s116.13 258.87 258.87 258.87 258.87-116.13 258.87-258.87S452.27 43.41 309.52 43.41ZM145.48 247.66c22.91-68.65 87.79-118.27 164.04-118.27 33.12 0 64.07 9.39 90.38 25.61 4.86 2.99 5.71 9.72 1.69 13.78l-82.15 82.95c-2.88 2.9-7.83.87-7.83-3.22v-54.16c0-23.54-18.14-44.07-41.67-44.78-24.35-.73-44.31 18.79-44.31 42.97v57.89c0 4.88-3.96 8.84-8.84 8.84h-62.92c-6.02 0-10.3-5.92-8.39-11.63ZM399.9 449.55c-26.32 16.22-57.26 25.61-90.38 25.61-76.25 0-141.13-49.62-164.04-118.27-1.91-5.71 2.38-11.62 8.39-11.62h62.92c4.88 0 8.84 3.96 8.84 8.84v56.09c0 23.54 18.14 44.07 41.67 44.78 24.35.73 44.31-18.79 44.31-42.97v-55.96c0-4.09 4.95-6.12 7.83-3.22l82.15 82.95c4.02 4.06 3.17 10.79-1.69 13.78Zm70.49-83.96c-2.32 5.88-10 7.35-14.44 2.86l-59.4-59.98c-3.4-3.43-3.4-8.96 0-12.39l59.4-59.98c4.45-4.49 12.12-3.01 14.44 2.86 7.75 19.62 12.02 40.97 12.02 63.31s-4.27 43.7-12.02 63.31Z"></path><path d="M576.98 0H42.07C18.87 0 0 18.87 0 42.07v520.42c0 23.2 18.87 42.07 42.07 42.07h534.91c23.2 0 42.07-18.87 42.07-42.07V42.07c0-23.2-18.87-42.07-42.07-42.07Zm34.7 562.49c0 19.13-15.57 34.7-34.7 34.7H42.07c-19.13 0-34.7-15.57-34.7-34.7V42.07c0-19.13 15.57-34.7 34.7-34.7h534.91c19.13 0 34.7 15.57 34.7 34.7v520.42Z"></path></svg>