<svg xmlns="http://www.w3.org/2000/svg" width="625.3" viewBox="0 0 625.3 620" height="620" xml:space="preserve" style="enable-background:new 0 0 625.3 620"><path d="M537.7 310c52.1-27.7 87.6-82.5 87.6-145.4C625.3 73.8 551.4 0 460.7 0H0v38.4h107.9c9.5 0 17.2 7.7 17.2 17.1s-7.7 17.2-17.2 17.2H0v38.4h107.9c9.5 0 17.2 7.7 17.2 17.2s-7.7 17.1-17.2 17.1H0v38.4h223.9c29.5 0 53.5 24 53.5 53.5s-24 53.5-53.5 53.5H0v38.4h460.6c69.6 0 126.2 56.6 126.2 126.2s-56.6 126.2-126.2 126.2H0V620h460.7c90.8 0 164.6-73.8 164.6-164.6 0-62.9-35.6-117.7-87.6-145.4zm-377-164.6c1.8-5.4 2.7-11.2 2.7-17.1 0-13.9-5.2-26.6-13.6-36.4 8.5-9.8 13.6-22.4 13.6-36.4 0-6-1-11.8-2.7-17.1h63.2c29.5 0 53.5 24 53.5 53.5s-24 53.5-53.5 53.5h-63.2zm137.9 145.4c10.8-15.1 17.2-33.6 17.2-53.5 0-29.6-14-55.9-35.8-72.7 21.7-16.8 35.8-43.1 35.8-72.7 0-20-6.4-38.4-17.2-53.5h162.1c69.6 0 126.2 56.6 126.2 126.2s-56.6 126.2-126.2 126.2H298.6z"></path></svg>