<svg xmlns="http://www.w3.org/2000/svg" width="524.4" viewBox="0 0 524.4 604.3" height="604.3"><path d="M485.1 296.9c13-48.8 26.1-97.5 39.2-146.4l-146.6-39.2c-13 48.9-26.1 97.6-39.2 146.5l146.6 39.1zM185.6 257.8l-39.2-146.5L0 150.6l39.2 146.3c48.9-12.8 97.6-26 146.4-39.1zM448.4 316.8l-36.7 9.8c-12.1 3.3-24.1 6.5-36.4 9.8-12.3 3.3-24.4 6.5-36.7 9.9l39.2 146.3 146.6-39.3c-13-48.8-26.1-97.5-39.2-146.3l-36.8 9.8zM155.2 497.7l107.2 106.5c35.4-35.5 71-71.3 106.4-106.4L262 391 155.2 497.7zM39.4 307c-1.7 4.4-39 144.5-39 146.4l145.5 39.1c1.2-2 39.2-144.3 39.2-146.4L39.4 307zM368.5 106.5L262 0 155.7 106.3 262 212.9z"></path></svg>