<svg xmlns="http://www.w3.org/2000/svg" width="592.6" viewBox="0 0 592.6 467.3" height="467.3"><path d="M0 24.1h8.6c24.2 0 43.9 19.7 43.9 43.9s-19.7 43.9-43.9 43.9H0v22.7h8.6c24.2 0 43.9 19.7 43.9 43.9s-19.7 43.9-43.9 43.9H0V245h8.6c24.2 0 43.9 19.7 43.9 43.9s-19.7 43.9-43.9 43.9H0v22.7h8.6c24.2 0 43.9 19.7 43.9 43.9s-19.7 43.9-43.9 43.9H0v24.1h260v-68.5l-1.3-.2c-82.4-11-144.5-81.9-144.5-165s62.1-154 144.5-165l1.3-.2V0H0v24.1z"></path><path d="M182.7 233.6c0 44.8 31.7 84.5 75.5 94.3l1.8.4V139l-1.8.4c-43.8 9.8-75.5 49.4-75.5 94.2zM583.9 24.1h8.6V0h-260v68.5l1.3.2c82.4 11 144.5 81.9 144.5 165s-62.1 154-144.5 165l-1.3.2v68.5h260v-24.1h-8.6c-24.2 0-43.9-19.7-43.9-43.9s19.7-43.9 43.9-43.9h8.6v-22.7h-8.6c-24.2 0-43.9-19.7-43.9-43.9s19.7-43.9 43.9-43.9h8.6v-22.7h-8.6c-24.2 0-43.9-19.7-43.9-43.9s19.7-43.9 43.9-43.9h8.6v-22.7h-8.6c-24.2 0-43.9-19.7-43.9-43.9.1-24.1 19.7-43.8 43.9-43.8z"></path><path d="M409.9 233.6c0-44.8-31.7-84.5-75.5-94.3l-1.8-.4v189.4l1.8-.4c43.7-9.8 75.5-49.4 75.5-94.3z"></path></svg>