<svg data-name="Layer 1" xmlns="http://www.w3.org/2000/svg" viewBox="0 0 603.79 612.99"><path d="M0 417.5h93.41v195.49H0zM102.08 417.5h93.41v195.49h-93.41zM0 145.04h195.49v263.8H0zM408.3 417.5h93.41v195.49H408.3zM510.38 417.5h93.41v195.49h-93.41zM408.3 145.04h195.49v263.8H408.3zM204.15 247.11h195.49v93.41H204.15zM204.15 145.04h195.49v93.41H204.15z"></path><circle cx="510.34" cy="68.16" r="68.14" transform="rotate(-34.06 510.27209771 68.18259523)"></circle><path d="M97.74 136.31c37.65 0 68.14-30.5 68.14-68.14S135.39.02 97.74.02 29.6 30.52 29.6 68.17s30.5 68.14 68.14 68.14Zm0-118.84c27.97 0 50.76 22.79 50.76 50.76s-22.79 50.76-50.76 50.76S46.98 96.2 46.98 68.23s22.79-50.76 50.76-50.76Z"></path></svg>