<svg xmlns="http://www.w3.org/2000/svg" width="612" viewBox="0 0 612 574.6" height="574.6" xml:space="preserve"><path d="M481.6 222.5c0-48.9-39.8-88.7-88.7-88.7H266.2v177.5H393c48.8-.1 88.6-39.9 88.6-88.8zm-170.4-43.7h81.7c24.1 0 43.7 19.6 43.7 43.7s-19.6 43.7-43.7 43.7h-81.7v-87.4z"></path><path d="M389.5 0H131v45.1h258.5c97.8 0 177.4 79.6 177.4 177.4 0 97.8-79.6 178.9-177.4 178.9H266.2v173.2h45.1V445h78.3C512.2 445 612 345.2 612 222.5S512.2 0 389.5 0zM0 446.4h131v128.2h45V401.4H0z"></path><path d="M131 266.2H0v45h176V133.8h-45z"></path></svg>