<svg data-name="Layer 1" xmlns="http://www.w3.org/2000/svg" viewBox="0 0 611.58 476.65"><path d="M544.11 202.38v-67.46h-67.46V67.46h-67.46V0H202.38v67.46h-67.46v67.46H67.46v67.46H0v274.27h611.58V202.38h-67.46Zm-4.43-63.04v63.04h-63.03v-63.04h63.03Zm0 265.42h-63.03V337.3h-71.89v67.46h-63.03V206.81h63.03v67.46h71.89v-67.46h63.03v197.95Zm-130.49-63.03h63.03v63.03h-63.03v-63.03ZM71.89 206.81h131.79l66.17 66.16v65.62l-66.17 66.16H71.89V206.81ZM206.81 71.89h63.03v63.03h-63.03V71.89Zm265.42 130.49H409.2v-63.04h63.03v63.04Zm0 67.46H409.2v-63.03h63.03v63.03Zm-134.92 0h-63.03v-63.03h63.03v63.03Zm0 67.46h-63.03v-63.03h63.03v63.03Zm-67.46-70.59-59.9-59.9h59.9v59.9Zm4.43-64.33v-63.04h63.03v63.04h-63.03Zm67.46-63.04h63.03v63.04h-63.03v-63.04Zm63.03-4.43h-63.03V71.88h63.03v63.03Zm-67.46 0h-63.03V71.88h63.03v63.03Zm-67.46 4.43v63.04h-63.03v-63.04h63.03Zm-130.49 0h63.03v63.04h-63.03v-63.04Zm130.49 205.52v59.9h-59.9l59.9-59.9Zm4.43-3.13h63.03v63.03h-63.03v-63.03ZM472.23 71.89v63.03H409.2V71.89h63.03ZM341.73 4.43h63.03v63.03h-63.03V4.43Zm-67.46 0h63.03v63.03h-63.03V4.43Zm-67.46 0h63.03v63.03h-63.03V4.43Zm-67.46 67.46h63.03v63.03h-63.03V71.89Zm-67.46 67.46h63.03v63.04H71.89v-63.04ZM4.43 206.81h63.03v63.03H4.43v-63.03Zm0 67.46h63.03v63.03H4.43v-63.03Zm0 67.46h63.03v63.03H4.43v-63.03Zm63.03 130.49H4.43v-63.03h63.03v63.03Zm67.46 0H71.89v-63.03h63.03v63.03Zm67.46 0h-63.03v-63.03h63.03v63.03Zm67.46 0h-63.03v-63.03h63.03v63.03Zm67.46 0h-63.03v-63.03h63.03v63.03Zm67.46 0h-63.03v-63.03h63.03v63.03Zm67.46 0h-63.03v-63.03h63.03v63.03Zm67.46 0h-63.03v-63.03h63.03v63.03Zm67.46 0h-63.03v-63.03h63.03v63.03Zm0-67.46h-63.03v-63.03h63.03v63.03Zm0-67.46h-63.03v-63.03h63.03v63.03Zm-63.03-67.46v-63.03h63.03v63.03h-63.03Z"></path></svg>