<svg xmlns="http://www.w3.org/2000/svg" width="642" viewBox="0 0 642 642" height="642" style="overflow:visible;enable-background:new 0 0 642 642" xml:space="preserve"><path d="m607.5 241.5-207 .1v-122h8V199c0 19.1 15.5 34.5 34.5 34.5v-191L400.5 0H276.1l-34.5 34.5.1 207h-122v-8H199c19.1 0 34.5-15.4 34.5-34.5h-191L0 241.5v124.4l34.5 34.5 207-.1v122h-8V443c0-19.1-15.5-34.5-34.5-34.5v191l42.5 42.6h124.4l34.5-34.5-.1-207h122v8H443c-19.1 0-34.5 15.5-34.5 34.5h191l42.6-42.6V276.1l-34.6-34.6zm-240 33h113.8v8H359.5V160.7h8v113.8zm-8 85h121.8v8H367.5v113.8h-8V359.5zm-77-77H160.7v-8h113.8V160.7h8v121.8zm0 77v121.8h-8V367.5H160.7v-8h121.8zM325 325v156.3h-8V325H160.7v-8H317V160.7h8V317h156.3v8H325z"></path></svg>