<svg xmlns="http://www.w3.org/2000/svg" id="a" width="642" viewBox="0 0 642 452.61" height="452.61" data-name="Layer 1"><defs></defs><path d="M585.83 0H642v56.18h-56.17zM585.83 66.07H642v56.17h-56.17zM585.83 132.14H642v56.18h-56.17zM390.55 137.5h45.47v45.47h-45.47zM325.46 139.28h41.91v41.91h-41.91zM260.37 141.06h38.34v38.34h-38.34zM195.27 142.84h34.78v34.78h-34.78zM130.18 144.63h31.21v31.21h-31.21zM65.09 146.41h27.64v27.64H65.09zM0 148.19h24.07v24.07H0zM585.83 198.22H642v56.18h-56.17zM455.64 201.78h49.04v49.04h-49.04zM390.55 203.57h45.47v45.47h-45.47zM325.46 205.35h41.91v41.91h-41.91zM260.37 207.13h38.34v38.34h-38.34zM195.27 208.92h34.78v34.78h-34.78zM130.18 210.7h31.21v31.21h-31.21zM585.83 264.29H642v56.17h-56.17zM455.64 267.86h49.04v49.04h-49.04zM390.55 269.64h45.47v45.47h-45.47zM325.46 271.42h41.91v41.91h-41.91zM260.37 273.21h38.34v38.34h-38.34zM195.27 274.99h34.78v34.78h-34.78zM130.18 276.77h31.21v31.21h-31.21zM65.09 278.56h27.64v27.64H65.09zM585.83 330.36H642v56.18h-56.17zM455.64 333.93h49.04v49.04h-49.04zM390.55 335.71h45.47v45.47h-45.47zM325.46 337.5h41.91v41.91h-41.91zM260.37 339.28h38.34v38.34h-38.34zM195.27 341.06h34.78v34.78h-34.78zM585.83 396.44H642v56.17h-56.17zM520.73 398.22h52.61v52.61h-52.61zM455.64 400h49.04v49.04h-49.04zM390.55 401.79h45.47v45.47h-45.47zM325.46 403.57h41.91v41.91h-41.91zM260.37 405.35h38.34v38.34h-38.34zM195.27 407.13h34.78v34.78h-34.78zM130.18 408.92h31.21v31.21h-31.21zM455.64 69.64h49.04v49.04h-49.04zM390.55 71.42h45.47v45.47h-45.47zM325.46 73.21h41.91v41.91h-41.91zM260.37 74.99h38.34v38.34h-38.34zM520.73 1.78h52.61v52.61h-52.61zM455.64 3.57h49.04v49.04h-49.04zM390.55 5.35h45.47v45.47h-45.47zM325.46 7.13h41.91v41.91h-41.91zM260.37 8.92h38.34v38.34h-38.34zM195.27 10.7h34.78v34.78h-34.78zM130.18 12.48h31.21v31.21h-31.21z" class="b"></path></svg>