<svg data-name="Layer 1" xmlns="http://www.w3.org/2000/svg" viewBox="0 0 604.41 604.41"><path d="M0 564.09h40.32v40.32H0zM47.01 517.08h40.32v40.32H47.01zM0 517.08h40.32v40.32H0zM47.01 564.09h40.32v40.32H47.01zM94.01 517.08h40.32v40.32H94.01zM94.01 564.09h40.32v40.32H94.01z"></path><rect x="141.02" y="517.08" width="40.32" viewBox="0 0 40.32 40.32" height="40.32" rx="20.16" ry="20.16"></rect><path d="M141.02 564.09h40.32v40.32h-40.32zM188.03 517.08h40.32v40.32h-40.32zM188.03 564.09h40.32v40.32h-40.32zM376.06 517.08h40.32v40.32h-40.32zM376.06 564.09h40.32v40.32h-40.32zM423.07 517.08h40.32v40.32h-40.32zM423.07 564.09h40.32v40.32h-40.32zM470.07 517.08h40.32v40.32h-40.32zM470.07 564.09h40.32v40.32h-40.32zM537.24 517.08l-20.16 40.33h40.33l-20.17-40.33zM517.08 564.09h40.32v40.32h-40.32zM564.09 517.08h40.32v40.32h-40.32zM47.01 470.07h40.32v40.32H47.01zM0 470.07h40.32v40.32H0zM94.01 470.07h40.32v40.32H94.01zM141.02 470.07h40.32v40.32h-40.32zM228.35 470.07l-40.32 20.17 40.32 20.16v-40.33zM376.06 470.07h40.32v40.32h-40.32zM463.39 470.07h-40.32l20.16 40.33 20.16-40.33zM470.07 470.07h40.32v40.32h-40.32zM517.08 470.07h40.32v40.32h-40.32zM564.09 470.07h40.32v40.32h-40.32zM67.17 423.07l-20.16 40.32h40.32l-20.16-40.32zM0 423.07h40.32v40.32H0zM94.01 423.07h40.32v40.32H94.01zM141.02 423.07h40.32v40.32h-40.32zM188.03 423.07h40.32v40.32h-40.32zM376.06 423.07h40.32v40.32h-40.32zM423.07 423.07h40.32v40.32h-40.32z"></path><rect x="470.07" y="423.07" width="40.32" height="40.32" rx="20.16" ry="20.16"></rect><path d="M517.08 423.07h40.32v40.32h-40.32zM564.09 423.07h40.32v40.32h-40.32zM47.01 376.06h40.32v40.32H47.01zM0 376.06h40.32v40.32H0zM94.01 376.06h40.32v40.32H94.01zM141.02 376.06h40.32v40.32h-40.32zM188.03 376.06h40.32v40.32h-40.32zM416.38 396.22l-40.32-20.16v40.32l40.32-20.16zM423.07 376.06h40.32v40.32h-40.32zM470.07 376.06h40.32v40.32h-40.32zM517.08 376.06h40.32v40.32h-40.32zM564.09 376.06h40.32v40.32h-40.32zM47.01 329.05h40.32v40.32H47.01zM0 329.05h40.32v40.32H0zM134.34 329.05H94.01l20.17 40.33 20.16-40.33zM141.02 329.05h40.32v40.32h-40.32zM188.03 329.05h40.32v40.32h-40.32zM376.06 329.05h40.32v40.32h-40.32zM423.07 329.05h40.32v40.32h-40.32zM470.07 329.05h40.32v40.32h-40.32zM557.41 329.05l-40.33 20.16 40.33 20.17v-40.33zM564.09 329.05h40.32v40.32h-40.32zM47.01 282.04h40.32v40.32H47.01zM0 282.04h40.32v40.32H0zM94.01 282.04h40.32v40.32H94.01zM141.02 282.04h40.32v40.32h-40.32z"></path><rect x="188.03" y="282.04" width="40.32" height="40.32" rx="20.16" ry="20.16"></rect><path d="M235.04 282.04h40.32v40.32h-40.32zM302.21 282.04l-20.17 40.33h40.33l-20.16-40.33zM329.05 282.04h40.32v40.32h-40.32z"></path><rect x="376.06" y="282.04" width="40.32" height="40.32" rx="20.16" ry="20.16"></rect><path d="M423.07 282.04h40.32v40.32h-40.32zM470.07 282.04h40.32v40.32h-40.32zM517.08 282.04h40.32v40.32h-40.32zM564.09 282.04h40.32v40.32h-40.32zM47.01 235.04h40.32v40.32H47.01z"></path><rect x="94.01" y="235.04" width="40.32" height="40.32" rx="20.16" ry="20.16"></rect><path d="M141.02 235.04h40.32v40.32h-40.32zM188.03 235.04h40.32v40.32h-40.32zM235.04 235.04h40.32v40.32h-40.32zM282.04 235.04h40.32v40.32h-40.32zM329.05 235.04h40.32v40.32h-40.32zM376.06 235.04h40.32v40.32h-40.32zM423.07 235.04h40.32v40.32h-40.32zM510.4 235.04h-40.33l20.17 40.32 20.16-40.32zM517.08 235.04h40.32v40.32h-40.32zM94.01 188.03h40.32v40.32H94.01zM181.35 208.19l-40.33-20.16v40.32l40.33-20.16zM188.03 188.03h40.32v40.32h-40.32zM235.04 188.03h40.32v40.32h-40.32zM282.04 188.03h40.32v40.32h-40.32zM349.21 188.03l-20.16 40.32h40.33l-20.17-40.32zM376.06 188.03h40.32v40.32h-40.32zM423.07 188.03h40.32v40.32h-40.32zM470.07 188.03h40.32v40.32h-40.32zM141.02 141.02h40.32v40.32h-40.32z"></path><rect x="188.03" y="141.02" width="40.32" height="40.32" rx="20.16" ry="20.16"></rect><rect x="235.04" y="141.02" width="40.32" height="40.32" rx="20.16" ry="20.16"></rect><rect x="282.04" y="141.02" width="40.32" height="40.32" rx="20.16" ry="20.16"></rect><path d="M329.05 141.02h40.32v40.32h-40.32zM376.06 141.02h40.32v40.32h-40.32zM423.07 141.02h40.32v40.32h-40.32zM188.03 94.01h40.32v40.32h-40.32z"></path><rect x="235.04" y="94.01" width="40.32" height="40.32" rx="20.16" ry="20.16"></rect><path d="M282.04 94.01h40.32v40.32h-40.32zM329.05 94.01h40.32v40.32h-40.32zM376.06 94.01h40.32v40.32h-40.32zM235.04 47.01h40.32v40.32h-40.32zM282.04 47.01h40.32v40.32h-40.32zM329.05 47.01h40.32v40.32h-40.32zM302.21 0l-20.17 40.32h40.33L302.21 0zM564.09 564.09h40.32v40.32h-40.32z"></path></svg>