<svg xmlns="http://www.w3.org/2000/svg" width="626.9" viewBox="0 0 626.9 448.6" height="448.6" xml:space="preserve" style="enable-background:new 0 0 626.9 448.6"><path d="M384.8 223.8c0-44.4 36.1-80.5 80.5-80.5h159.2v-9.8H465.3c-37.4 0-69.6 22.9-83.3 55.4-3.9-24.3-11.7-47.3-22.7-68.3 26.8-27.4 64.2-44.5 105.6-44.5h159.6v-9.8H464.8c-43 0-82 17.3-110.5 45.4-9.4-16.2-20.8-31-33.9-44.3 38.3-35.6 89.6-57.5 146-57.5h158V0h-158c-59.1 0-112.9 23-153 60.4C273.3 23 219.5 0 160.5 0H2.5v9.8h158c56.3 0 107.6 21.8 146 57.5-13.6 13.9-25.5 29.5-35.1 46.5-28.6-28.7-68.1-46.5-111.7-46.5H0v9.8h159.6c42 0 79.9 17.6 106.8 45.8-10.5 20.6-17.9 43.1-21.6 66.7-13.7-32.4-45.9-55.1-83.2-55.1H2.5v9.8h159.2c44.4 0 80.5 36.1 80.5 80.5s-36.1 80.5-80.5 80.5H2.5v9.8h159.2c37.4 0 69.6-22.9 83.3-55.4 3.8 23.6 11.2 46.1 21.8 66.7-26.9 28.4-65 46.2-107.1 46.2H0v9.8h159.6c43.8 0 83.5-18 112.1-46.9 9.6 16.8 21.3 32.2 34.8 45.9-38.3 35.6-89.6 57.5-146 57.5H2.5v9.8h158c59.1 0 112.9-23 153-60.4 40.1 37.5 93.9 60.4 153 60.4h158v-9.8h-158c-56.3 0-107.7-21.8-146-57.5 13.2-13.5 24.7-28.6 34.3-45 28.4 27.8 67.3 45 110.1 45h159.6v-9.8H464.8c-41.1 0-78.4-16.9-105.2-44.1 10.9-21.1 18.7-44.1 22.4-68.4 13.7 32.4 45.9 55.1 83.2 55.1h159.2v-9.8H465.3c-44.4-.1-80.5-36.2-80.5-80.6zM313.4 74.1c13.1 13.4 24.5 28.5 33.8 44.9-16.6 18.6-28.9 41.2-35.2 66.1-6.2-23.9-18-45.7-33.8-63.8 9.6-17.2 21.5-33.1 35.2-47.2zM252 224.3c0-33.5 7.7-65.2 21.5-93.5 20.8 25.2 33.5 57.4 33.9 92.4v2.2c-.1 35.3-12.7 67.7-33.6 93.1-14-28.4-21.8-60.4-21.8-94.2zm60.3 39.2c6.4 24.7 18.7 47 35.3 65.5-9.4 16.7-20.9 32-34.2 45.5-13.6-13.8-25.3-29.5-34.8-46.6 15.9-18.3 27.6-40.3 33.7-64.4zm40.3 56.2c-21.7-25.4-35-58.3-35.4-94.2v-2.2c.1-36.1 13.3-69.3 35.1-94.9 14.5 28.9 22.7 61.5 22.7 96-.1 34.1-8.1 66.5-22.4 95.3z"></path><path d="M64.7 289.8c35.7 0 64.7-29 64.7-64.7s-29-64.7-64.7-64.7C29 160.5 0 189.4 0 225.1c0 35.8 29 64.7 64.7 64.7zM562.2 160.5c-35.7 0-64.7 29-64.7 64.7s28.9 64.7 64.7 64.7c35.7 0 64.7-29 64.7-64.7 0-35.8-29-64.7-64.7-64.7z"></path></svg>