<svg id="Layer_1" data-name="Layer 1" xmlns="http://www.w3.org/2000/svg" viewBox="0 0 539.87 610.98">   <path d="M269.62,65.9c10.18,0,18.44-8.25,18.44-18.44s-8.25-18.44-18.44-18.44-18.44,8.25-18.44,18.44,8.25,18.44,18.44,18.44Z"></path>   <path d="M450.92,114.85h88.95v-5.08h-88.95c-1.13-8.13-7.51-14.51-15.64-15.64v-28.59c8.97-1.25,15.9-8.87,15.9-18.18s-6.93-16.94-15.9-18.18V0h-5.08V29.17c-8.97,1.25-15.9,8.87-15.9,18.18s6.93,16.93,15.9,18.18v28.59c-8.13,1.13-14.51,7.51-15.64,15.64h-28.59c-1.13-8.13-7.51-14.51-15.64-15.64V0h-5.08V94.13c-8.13,1.13-14.51,7.51-15.64,15.64h-28.59c-1.13-8.13-7.51-14.51-15.64-15.64V0h-5.08V94.13c-8.13,1.13-14.51,7.51-15.64,15.64h-28.59c-1.13-8.13-7.51-14.51-15.64-15.64V0h-5.08V94.13c-8.13,1.13-14.51,7.51-15.64,15.64h-28.59c-1.13-8.13-7.51-14.51-15.64-15.64V0h-5.08V94.13c-8.13,1.13-14.51,7.51-15.64,15.64h-28.59c-1.13-8.13-7.51-14.51-15.64-15.64v-28.59c8.97-1.25,15.9-8.87,15.9-18.18s-6.93-16.93-15.9-18.18V0h-5.08V29.17c-8.97,1.25-15.9,8.87-15.9,18.18s6.93,16.93,15.9,18.18v28.59c-8.13,1.13-14.51,7.51-15.64,15.64H0v5.08H89.79c1.13,8.13,7.51,14.51,15.64,15.64v28.59c-8.13,1.13-14.51,7.51-15.64,15.64H0v5.08H89.79c1.13,8.13,7.51,14.51,15.64,15.64v28.59c-8.13,1.13-14.51,7.51-15.64,15.64H0v5.08H89.79c1.13,8.13,7.51,14.51,15.64,15.64v28.59c-8.13,1.13-14.51,7.51-15.64,15.64H0v5.08H89.79c1.13,8.13,7.51,14.51,15.64,15.64v28.59c-8.13,1.13-14.51,7.51-15.64,15.64H0v5.08H89.79c1.13,8.13,7.51,14.51,15.64,15.64v28.59c-8.13,1.13-14.51,7.51-15.64,15.64H0v5.08H89.79c1.13,8.13,7.51,14.51,15.64,15.64v28.59c-8.13,1.13-14.51,7.51-15.64,15.64H0v5.08H89.79c1.13,8.13,7.51,14.51,15.64,15.64v90.77h5.08v-90.77c8.13-1.13,14.51-7.51,15.64-15.64h28.59c1.13,8.13,7.51,14.51,15.64,15.64v90.77h5.08v-90.77c8.13-1.13,14.51-7.51,15.64-15.64h28.59c1.13,8.13,7.51,14.51,15.64,15.64v28.59c-8.97,1.25-15.9,8.87-15.9,18.18s6.93,16.93,15.9,18.18v25.82h5.08v-25.82c8.13-1.13,14.51-7.51,15.64-15.64h28.59c1.13,8.13,7.51,14.51,15.64,15.64v25.82h5.08v-25.82c8.97-1.25,15.9-8.87,15.9-18.18s-6.93-16.93-15.9-18.18v-28.59c8.13-1.13,14.51-7.51,15.64-15.64h28.59c1.13,8.13,7.51,14.51,15.64,15.64v90.77h5.08v-90.77c8.13-1.13,14.51-7.51,15.64-15.64h28.59c1.13,8.13,7.51,14.51,15.64,15.64v90.77h5.08v-90.77c8.13-1.13,14.51-7.51,15.64-15.64h88.95v-5.08h-88.95c-1.13-8.13-7.51-14.51-15.64-15.64v-28.59c8.13-1.13,14.51-7.51,15.64-15.64h88.95v-5.08h-88.95c-1.13-8.13-7.51-14.51-15.64-15.64v-28.59c8.13-1.13,14.51-7.51,15.64-15.64h88.95v-5.08h-88.95c-1.13-8.13-7.51-14.51-15.64-15.64v-28.59c8.13-1.13,14.51-7.51,15.64-15.64h88.95v-5.08h-88.95c-1.13-8.13-7.51-14.51-15.64-15.64v-28.59c8.13-1.13,14.51-7.51,15.64-15.64h88.95v-5.08h-88.95c-1.13-8.13-7.51-14.51-15.64-15.64v-28.59c8.13-1.13,14.51-7.51,15.64-15.64h88.95v-5.08h-88.95c-1.13-8.13-7.51-14.51-15.64-15.64v-28.59c8.13-1.13,14.51-7.51,15.64-15.64Zm-32.84,8.53l-17.82,17.82-17.82-17.82c1.85-2.45,3.08-5.35,3.52-8.53h28.59c.44,3.18,1.67,6.08,3.52,8.53Zm-39.22,363.99c-2.45-1.85-5.35-3.08-8.53-3.52v-28.59c3.18-.44,6.08-1.67,8.53-3.52l17.81,17.81-17.82,17.82Zm-57.84-52.83c-1.13-8.13-7.51-14.51-15.64-15.64v-28.59c8.13-1.13,14.51-7.51,15.64-15.64h28.59c1.13,8.13,7.51,14.51,15.64,15.64v28.59c-8.13,1.13-14.51,7.51-15.64,15.64h-28.59Zm-129.91,0c-1.13-8.13-7.51-14.51-15.64-15.64v-28.59c8.13-1.13,14.51-7.51,15.64-15.64h28.59c1.13,8.13,7.51,14.51,15.64,15.64v28.59c-8.13,1.13-14.51,7.51-15.64,15.64h-28.59Zm-47.07,35.02l17.82-17.82c2.45,1.85,5.35,3.08,8.53,3.52v28.59c-3.18,.44-6.08,1.67-8.53,3.52l-17.82-17.82Zm17.82-342.58c2.45,1.85,5.35,3.08,8.53,3.52v28.59c-3.18,.44-6.08,1.67-8.53,3.52l-17.82-17.82,17.82-17.82Zm39.96,17.82l-17.82,17.82c-2.45-1.85-5.35-3.08-8.53-3.52v-28.59c3.18-.44,6.08-1.67,8.53-3.52l17.82,17.82Zm25-17.82c2.45,1.85,5.35,3.08,8.53,3.52v28.59c-3.18,.44-6.08,1.67-8.53,3.52l-17.82-17.82,17.82-17.82Zm39.96,17.82l-17.82,17.82c-2.45-1.85-5.35-3.08-8.53-3.52v-28.59c3.18-.44,6.08-1.67,8.53-3.52l17.82,17.82Zm25-17.82c2.45,1.85,5.35,3.08,8.53,3.52v28.59c-3.18,.44-6.08,1.67-8.53,3.52l-17.82-17.82,17.82-17.82Zm39.96,17.82l-17.82,17.82c-2.45-1.85-5.35-3.08-8.53-3.52v-28.59c3.18-.44,6.08-1.67,8.53-3.52l17.82,17.82Zm25-17.82c2.45,1.85,5.35,3.08,8.53,3.52v28.59c-3.18,.44-6.08,1.67-8.53,3.52l-17.82-17.82,17.82-17.82Zm-35.7,242.61c-1.13-8.13-7.51-14.51-15.64-15.64v-28.59c8.13-1.13,14.51-7.51,15.64-15.64h28.59c1.13,8.13,7.51,14.51,15.64,15.64v28.59c-8.13,1.13-14.51,7.51-15.64,15.64h-28.59Zm-36.36,129.91h-28.59c-.44-3.18-1.67-6.08-3.52-8.53l17.82-17.82,17.82,17.82c-1.85,2.45-3.08,5.35-3.52,8.53Zm-93.54-129.91c-1.13-8.13-7.51-14.51-15.64-15.64v-28.59c8.13-1.13,14.51-7.51,15.64-15.64h28.59c1.13,8.13,7.51,14.51,15.64,15.64v28.59c-8.13,1.13-14.51,7.51-15.64,15.64h-28.59Zm28.59-189.78c.44,3.18,1.67,6.08,3.52,8.53l-17.82,17.82-17.82-17.82c1.85-2.45,3.08-5.35,3.52-8.53h28.59Zm64.95,0c.44,3.18,1.67,6.08,3.52,8.53l-17.82,17.82-17.82-17.82c1.85-2.45,3.08-5.35,3.52-8.53h28.59Zm64.95,0c.44,3.18,1.67,6.08,3.52,8.53l-17.82,17.82-17.82-17.82c1.85-2.45,3.08-5.35,3.52-8.53h28.59Zm0,124.83h-28.59c-1.13-8.13-7.51-14.51-15.64-15.64v-28.59c8.13-1.13,14.51-7.51,15.64-15.64h28.59c1.13,8.13,7.51,14.51,15.64,15.64v28.59c-8.13,1.13-14.51,7.51-15.64,15.64Zm-64.95,129.91h-28.59c-.44-3.18-1.67-6.08-3.52-8.53l18.2-18.2,17.57,18.03c-1.93,2.48-3.21,5.45-3.67,8.71Zm-93.54-129.91c-1.13-8.13-7.51-14.51-15.64-15.64v-28.59c8.13-1.13,14.51-7.51,15.64-15.64h28.59c1.13,8.13,7.51,14.51,15.64,15.64v28.59c-8.13,1.13-14.51,7.51-15.64,15.64h-28.59Zm10.7-94.89l-17.82,17.82c-2.45-1.85-5.35-3.08-8.53-3.52v-28.59c3.18-.44,6.08-1.67,8.53-3.52l17.82,17.82Zm3.59,3.59l17.82,17.82c-1.85,2.45-3.08,5.35-3.52,8.53h-28.59c-.44-3.18-1.67-6.08-3.52-8.53l17.82-17.82Zm21.41-21.41c2.45,1.85,5.35,3.08,8.53,3.52v28.59c-3.18,.44-6.08,1.67-8.53,3.52l-17.82-17.82,17.82-17.82Zm39.96,17.82l-17.82,17.82c-2.45-1.85-5.35-3.08-8.53-3.52v-28.59c3.18-.44,6.08-1.67,8.53-3.52l17.82,17.82Zm25-17.82c2.45,1.85,5.35,3.08,8.53,3.52v28.59c-3.18,.44-6.08,1.67-8.53,3.52l-17.82-17.82,17.82-17.82Zm39.96,17.82l-17.82,17.82c-2.45-1.85-5.35-3.08-8.53-3.52v-28.59c3.18-.44,6.08-1.67,8.53-3.52l17.82,17.82Zm17.89,29.94h-28.59c-.44-3.18-1.67-6.08-3.52-8.53l17.81-17.81,17.82,17.82c-1.85,2.45-3.08,5.35-3.52,8.53Zm-64.95,129.91h-28.59c-.44-3.18-1.67-6.08-3.52-8.53l17.82-17.82,17.82,17.82c-1.85,2.45-3.08,5.35-3.52,8.53Zm0-124.83c.44,3.18,1.67,6.08,3.52,8.53l-17.82,17.82-17.82-17.82c1.85-2.45,3.08-5.35,3.52-8.53h28.59Zm0,59.87h-28.59c-.44-3.18-1.67-6.08-3.52-8.53l17.82-17.82,17.82,17.82c-1.85,2.45-3.08,5.35-3.52,8.53Zm-17.89-29.94l-17.82,17.82c-2.45-1.85-5.35-3.08-8.53-3.52v-28.59c3.18-.44,6.08-1.67,8.53-3.52l17.82,17.82Zm7.18,0l17.82-17.82c2.45,1.85,5.35,3.08,8.53,3.52v28.59c-3.18,.44-6.08,1.67-8.53,3.52l-17.82-17.82Zm-7.18,64.95l-17.82,17.82c-2.45-1.85-5.35-3.08-8.53-3.52v-28.59c3.18-.44,6.08-1.67,8.53-3.52l17.82,17.82Zm7.18,0l17.82-17.82c2.45,1.85,5.35,3.08,8.53,3.52v28.59c-3.18,.44-6.08,1.67-8.53,3.52l-17.82-17.82Zm-3.59-3.59l-17.81-17.81c1.85-2.45,3.08-5.35,3.52-8.53h28.59c.44,3.18,1.67,6.08,3.52,8.53l-17.82,17.82Zm17.82-104.91c-1.85,2.45-3.08,5.35-3.52,8.53h-28.59c-.44-3.18-1.67-6.08-3.52-8.53l17.81-17.81,17.82,17.82Zm-38.5,155.04l17.53,17.98-18.25,18.25c-2.45-1.85-5.35-3.08-8.53-3.52v-28.59c3.51-.49,6.67-1.95,9.26-4.12Zm24.67,18.02l17.42-17.42c2.45,1.85,5.35,3.08,8.53,3.52v28.59c-3.1,.43-5.94,1.6-8.35,3.37l-17.6-18.06Zm-3.55-3.64l-17.65-18.11c1.55-2.28,2.52-4.95,2.92-7.8h28.59c.44,3.18,1.67,6.08,3.52,8.53l-17.38,17.38Zm85.92-173.02l-17.82-17.82,17.82-17.82c2.45,1.85,5.35,3.08,8.53,3.52v28.59c-3.18,.44-6.08,1.67-8.53,3.52Zm-89.95,242l-17.82,17.82c-2.45-1.85-5.35-3.08-8.53-3.52v-28.59c3.18-.44,6.08-1.67,8.53-3.52l17.81,17.81Zm7.18,0l17.82-17.82c2.45,1.85,5.35,3.08,8.53,3.52v28.59c-3.18,.44-6.08,1.67-8.53,3.52l-17.82-17.82Zm-3.59-3.59l-17.81-17.81c1.85-2.45,3.08-5.35,3.52-8.53h28.59c.44,3.18,1.67,6.08,3.52,8.53l-17.82,17.82Zm82.77-299.77c-1.85,2.45-3.08,5.35-3.52,8.53h-28.59c-.44-3.18-1.67-6.08-3.52-8.53l17.81-17.81,17.82,17.82Zm-64.95,0c-1.85,2.45-3.08,5.35-3.52,8.53h-28.59c-.44-3.18-1.67-6.08-3.52-8.53l17.81-17.81,17.82,17.82Zm-64.95,0c-1.85,2.45-3.08,5.35-3.52,8.53h-28.59c-.44-3.18-1.67-6.08-3.52-8.53l17.82-17.82,17.82,17.82Zm-64.95,0c-1.85,2.45-3.08,5.35-3.52,8.53h-28.59c-.44-3.18-1.67-6.08-3.52-8.53l17.82-17.82,17.82,17.82Zm-32.11,13.61h28.59c.44,3.18,1.67,6.08,3.52,8.53l-17.82,17.82-17.82-17.82c1.85-2.45,3.08-5.35,3.52-8.53Zm35.7,12.12c2.45,1.85,5.35,3.08,8.53,3.52v28.59c-3.18,.44-6.08,1.67-8.53,3.52l-17.82-17.82,17.82-17.82Zm-3.59,39.22c-1.85,2.45-3.08,5.35-3.52,8.53h-28.59c-.44-3.18-1.67-6.08-3.52-8.53l17.82-17.82,17.82,17.82Zm-32.11,13.61h28.59c.44,3.18,1.67,6.08,3.52,8.53l-17.82,17.82-17.82-17.82c1.85-2.45,3.08-5.35,3.52-8.53Zm35.7,12.12c2.45,1.85,5.35,3.08,8.53,3.52v28.59c-3.18,.44-6.08,1.67-8.53,3.52l-17.82-17.82,17.82-17.82Zm-3.59,39.22c-1.85,2.45-3.08,5.35-3.52,8.53h-28.59c-.44-3.18-1.67-6.08-3.52-8.53l17.82-17.82,17.82,17.82Zm-32.11,13.61h28.59c.44,3.18,1.67,6.08,3.52,8.53l-17.82,17.82-17.82-17.82c1.85-2.45,3.08-5.35,3.52-8.53Zm35.7,12.12c2.45,1.85,5.35,3.08,8.53,3.52v28.59c-3.18,.44-6.08,1.67-8.53,3.52l-17.82-17.82,17.82-17.82Zm-3.59,39.22c-1.85,2.45-3.08,5.35-3.52,8.53h-28.59c-.44-3.18-1.67-6.08-3.52-8.53l17.82-17.82,17.82,17.82Zm-32.11,13.61h28.59c.44,3.18,1.67,6.08,3.52,8.53l-17.82,17.82-17.82-17.82c1.85-2.45,3.08-5.35,3.52-8.53Zm35.7,12.12c2.45,1.85,5.35,3.08,8.53,3.52v28.59c-3.18,.44-6.08,1.67-8.53,3.52l-17.82-17.82,17.82-17.82Zm-3.59,39.22c-1.85,2.45-3.08,5.35-3.52,8.53h-28.59c-.44-3.18-1.67-6.08-3.52-8.53l17.82-17.82,17.82,17.82Zm-32.11,13.61h28.59c.44,3.18,1.67,6.08,3.52,8.53l-17.82,17.82-17.82-17.82c1.85-2.45,3.08-5.35,3.52-8.53Zm129.91,64.95h28.59c.44,3.18,1.67,6.08,3.52,8.53l-17.82,17.82-17.81-17.81c1.85-2.45,3.08-5.35,3.52-8.53Zm126.39-56.42c1.85-2.45,3.08-5.35,3.52-8.53h28.59c.44,3.18,1.67,6.08,3.52,8.53l-17.82,17.82-17.81-17.81Zm32.11-13.61h-28.59c-.44-3.18-1.67-6.08-3.52-8.53l17.82-17.82,17.82,17.82c-1.85,2.45-3.08,5.35-3.52,8.53Zm-35.7-12.12c-2.45-1.85-5.35-3.08-8.53-3.52v-28.59c3.18-.44,6.08-1.67,8.53-3.52l17.81,17.81-17.82,17.82Zm3.59-39.22c1.85-2.45,3.08-5.35,3.52-8.53h28.59c.44,3.18,1.67,6.08,3.52,8.53l-17.82,17.82-17.81-17.81Zm32.11-13.61h-28.59c-.49-3.52-1.96-6.69-4.14-9.28l17.98-17.52,18.26,18.26c-1.85,2.45-3.08,5.35-3.52,8.53Zm-36.45-12.74c-2.28-1.54-4.94-2.51-7.78-2.91v-28.59c3.18-.44,6.08-1.67,8.53-3.52l17.37,17.37-18.11,17.65Zm4.34-38.61c1.85-2.45,3.08-5.35,3.52-8.53h28.59c.43,3.1,1.6,5.94,3.37,8.35l-18.06,17.6-17.41-17.41Zm32.11-13.61h-28.59c-.44-3.18-1.67-6.08-3.52-8.53l17.81-17.81,17.82,17.82c-1.85,2.45-3.08,5.35-3.52,8.53Zm-35.7-12.12c-2.45-1.85-5.35-3.08-8.53-3.52v-28.59c3.18-.44,6.08-1.67,8.53-3.52l17.81,17.81-17.81,17.81Zm3.59-39.22c1.85-2.45,3.08-5.35,3.52-8.53h28.59c.44,3.18,1.67,6.08,3.52,8.53l-17.82,17.82-17.81-17.81Zm32.11-13.61h-28.59c-.44-3.18-1.67-6.08-3.52-8.53l17.81-17.81,17.82,17.82c-1.85,2.45-3.08,5.35-3.52,8.53Zm-35.7-12.12c-2.45-1.85-5.35-3.08-8.53-3.52v-28.59c3.18-.44,6.08-1.67,8.53-3.52l17.81,17.81-17.81,17.81Zm3.59-39.22c1.85-2.45,3.08-5.35,3.52-8.53h28.59c.44,3.18,1.67,6.08,3.52,8.53l-17.82,17.82-17.81-17.81Zm32.11-13.61h-28.59c-.44-3.18-1.67-6.08-3.52-8.53l17.81-17.81,17.82,17.82c-1.85,2.45-3.08,5.35-3.52,8.53Zm-35.7-12.12c-2.45-1.85-5.35-3.08-8.53-3.52v-28.59c3.18-.44,6.08-1.67,8.53-3.52l17.82,17.82-17.81,17.81Zm-25.73-39.22l-17.82,17.82-17.82-17.82c1.85-2.45,3.08-5.35,3.52-8.53h28.59c.44,3.18,1.67,6.08,3.52,8.53Zm-64.95,0l-17.82,17.82-17.82-17.82c1.85-2.45,3.08-5.35,3.52-8.53h28.59c.44,3.18,1.67,6.08,3.52,8.53Zm-64.95,0l-17.82,17.82-17.82-17.82c1.85-2.45,3.08-5.35,3.52-8.53h28.59c.44,3.18,1.67,6.08,3.52,8.53Zm-64.95,0l-17.82,17.82-17.82-17.82c1.85-2.45,3.08-5.35,3.52-8.53h28.59c.44,3.18,1.67,6.08,3.52,8.53Zm-39.22,3.59l17.82,17.82-17.82,17.82c-2.45-1.85-5.35-3.08-8.53-3.52v-28.59c3.18-.44,6.08-1.67,8.53-3.52Zm0,64.95l17.82,17.82-17.82,17.82c-2.45-1.85-5.35-3.08-8.53-3.52v-28.59c3.18-.44,6.08-1.67,8.53-3.52Zm0,64.95l17.82,17.82-17.82,17.82c-2.45-1.85-5.35-3.08-8.53-3.52v-28.59c3.18-.44,6.08-1.67,8.53-3.52Zm0,64.95l17.82,17.82-17.82,17.82c-2.45-1.85-5.35-3.08-8.53-3.52v-28.59c3.18-.44,6.08-1.67,8.53-3.52Zm0,64.95l17.82,17.82-17.82,17.82c-2.45-1.85-5.35-3.08-8.53-3.52v-28.59c3.18-.44,6.08-1.67,8.53-3.52Zm0,64.95l17.82,17.82-17.82,17.82c-2.45-1.85-5.35-3.08-8.53-3.52v-28.59c3.18-.44,6.08-1.67,8.53-3.52Zm3.59,39.22l17.82-17.82,17.82,17.82c-1.85,2.45-3.08,5.35-3.52,8.53h-28.59c-.44-3.18-1.67-6.08-3.52-8.53Zm52.83-7.11v-28.59c8.13-1.13,14.51-7.51,15.64-15.64h28.59c1.13,8.13,7.51,14.51,15.64,15.64v28.59c-8.13,1.13-14.51,7.51-15.64,15.64h-28.59c-1.13-8.13-7.51-14.51-15.64-15.64Zm73.48,32.84l17.81,17.81-17.82,17.82c-2.45-1.85-5.35-3.08-8.53-3.52v-28.59c3.18-.44,6.08-1.67,8.53-3.52Zm3.59,39.22l17.82-17.82,17.82,17.82c-1.85,2.45-3.08,5.35-3.52,8.53h-28.59c-.44-3.18-1.67-6.08-3.52-8.53Zm39.22-3.59l-17.82-17.82,17.82-17.82c2.45,1.85,5.35,3.08,8.53,3.52v28.59c-3.18,.44-6.08,1.67-8.53,3.52Zm13.61-68.47v-28.59c8.13-1.13,14.51-7.51,15.64-15.64h28.59c1.13,8.13,7.51,14.51,15.64,15.64v28.59c-8.13,1.13-14.51,7.51-15.64,15.64h-28.59c-1.13-8.13-7.51-14.51-15.64-15.64Zm77.08,7.11l17.82-17.82,17.82,17.82c-1.85,2.45-3.08,5.35-3.52,8.53h-28.59c-.44-3.18-1.67-6.08-3.52-8.53Zm39.22-3.59l-17.82-17.82,17.82-17.82c2.45,1.85,5.35,3.08,8.53,3.52v28.59c-3.18,.44-6.08,1.67-8.53,3.52Zm0-64.95l-17.82-17.82,17.82-17.82c2.45,1.85,5.35,3.08,8.53,3.52v28.59c-3.18,.44-6.08,1.67-8.53,3.52Zm0-64.95l-18.22-18.22,18.03-17.57c2.48,1.93,5.45,3.22,8.72,3.67v28.59c-3.18,.44-6.08,1.67-8.53,3.52Zm0-64.95l-17.82-17.82,17.82-17.82c2.45,1.85,5.35,3.08,8.53,3.52v28.59c-3.18,.44-6.08,1.67-8.53,3.52Zm0-64.95l-17.82-17.82,17.82-17.82c2.45,1.85,5.35,3.08,8.53,3.52v28.59c-3.18,.44-6.08,1.67-8.53,3.52Zm0-64.95l-17.82-17.82,17.82-17.82c2.45,1.85,5.35,3.08,8.53,3.52v28.59c-3.18,.44-6.08,1.67-8.53,3.52Z"></path> </svg>