<svg xmlns="http://www.w3.org/2000/svg" width="587.4" viewBox="0 0 587.4 588.2" height="588.2"><path d="M587.4 278.1c-.6-10.9-1.8-21.6-3.5-32.1H431.7c3.6 10.2 6 21 7.3 32.1h148.4zM431.7 342.2h152.1c1.7-10.5 2.9-21.2 3.5-32.1H439c-1.3 11.2-3.7 21.9-7.3 32.1zM3.5 246C1.8 256.5.6 267.2 0 278.1h148.4c1.2-11.1 3.7-21.9 7.3-32.1H3.5zM0 310.2c.6 10.9 1.8 21.6 3.5 32.1h152.2c-3.6-10.2-6-21-7.3-32.1H0zM171.5 374.3H10.6c3.1 11 6.8 21.7 11.1 32.1H200c-10.9-9.2-20.6-20-28.5-32.1zM200.1 181.8H21.8c-4.3 10.4-8 21.1-11.1 32.1h160.9c7.8-12 17.5-22.8 28.5-32.1zM415.9 213.9h160.9c-3.1-11-6.8-21.7-11.1-32.1H387.3c11 9.3 20.6 20.1 28.6 32.1zM387.3 406.4h178.3c4.3-10.4 8-21.1 11.1-32.1H415.9c-8 12.1-17.6 22.9-28.6 32.1z"></path><path d="M171.5 374.3h244.4c6.5-9.9 11.9-20.7 15.8-32.1h-276c3.9 11.4 9.3 22.2 15.8 32.1zM270.7 438.5H37.4c50.5 89.4 146.3 149.8 256.3 149.8S499.5 527.9 550 438.5H316.7c26.6-4.2 50.8-15.6 70.6-32.1H200.1c19.8 16.5 44 27.9 70.6 32.1zM439.9 294.1c0-5.4-.3-10.8-.9-16H148.4c-.6 5.3-.9 10.6-.9 16s.3 10.8.9 16H439c.5-5.2.9-10.6.9-16zM316.7 149.8H550C499.5 60.4 403.7 0 293.7 0S87.8 60.4 37.4 149.8h233.3c-26.6 4.2-50.8 15.6-70.6 32.1h187.2c-19.8-16.6-44-27.9-70.6-32.1zM415.9 213.9H171.5c-6.5 9.9-11.9 20.7-15.8 32.1h276.1c-4.1-11.4-9.4-22.2-15.9-32.1z"></path></svg>