<svg xmlns="http://www.w3.org/2000/svg" width="620.9" viewBox="0 0 620.9 546.1" height="546.1" xml:space="preserve"><path d="M439.9 462.5h121.8L620.9 354 416.5 0h-43l193.2 334.6h-78.5l-38.4 70.5-118.9-205.6 52.4-90.7L320.4 0H202.3L0 350.3l21.6 37L210.8 59.6l39.7 68.3h78.8l-19.9 34.4-98.8 171.1h-96L51.4 438.2l63.1 107.9h401.7l20.3-37.2H157.7l39.9-70.3-39.7-67.9h228.8l53.2 91.8zm70.4-90.6h58.5l-29.1 53.4h-58.5l29.1-53.4zM125.2 490.7l-30.5-52.2 30.3-50.3 29.1 50.4-28.9 52.1zM272.6 90.6l-31-53.4h58.9L331 90.6h-58.4zm-19 242.8 54.5-94.5 1.2-2.1 55.8 96.6H253.6z"></path></svg>