<svg data-name="Layer 1" xmlns="http://www.w3.org/2000/svg" viewBox="0 0 619.62 391.86"><path d="M100.41 206.5c-5.84-5.84-5.84-15.3 0-21.14l121.5-121.51c14.51-14.51 14.93-38.14.53-52.75-14.52-14.73-38.23-14.8-52.82-.2L10.9 169.62c-14.53 14.53-14.53 38.09 0 52.63l158.72 158.72c14.6 14.6 38.31 14.53 52.82-.2 14.4-14.62 13.98-38.25-.53-52.75l-121.5-121.5Z"></path><circle cx="241.81" cy="196.84" r="89.23"></circle><path d="M472.71 169.62 314 10.9c-14.6-14.6-38.31-14.53-52.82.2-14.4 14.62-13.98 38.25.53 52.75l121.5 121.5c5.84 5.84 5.84 15.3 0 21.14l-121.5 121.5c-14.51 14.51-14.93 38.14-.53 52.75 14.52 14.73 38.23 14.8 52.82.2l158.72-158.72c14.53-14.53 14.53-38.09 0-52.63Z"></path><path d="M608.72 169.62 450 10.9c-14.6-14.6-38.31-14.53-52.82.2-14.4 14.62-13.98 38.25.53 52.75l121.5 121.5c5.84 5.84 5.84 15.3 0 21.14l-121.5 121.5c-14.51 14.51-14.93 38.14-.53 52.75 14.52 14.73 38.23 14.8 52.82.2l158.72-158.72c14.53-14.53 14.53-38.09 0-52.63Z"></path></svg>