<svg xmlns="http://www.w3.org/2000/svg" width="573.6" viewBox="0 0 573.6 525.7" height="525.7"><path d="M570.7 348.6c0-41.3-11.1-81.7-32-118.3 20.9-13.1 34.9-36.4 34.9-62.9 0-40-32.6-71.3-74.2-71.3h-234c-41.6 0-74.2 31.3-74.2 71.3s32.6 71.3 74.2 71.3h47.8c62.3 0 114.9 53.9 114.9 117.7v104.9c-3.9 54.6-67.1 64.2-67.1 64.2 31.3 0 51.3 1.3 67.9-5.3 46.6-18.3 47.7-58.9 47.7-58.9V356.5c0-43.7-16.9-85.1-47.6-116.7-31.1-31.9-72.2-49.5-115.8-49.5h-47.8c-12.8 0-25.7-7.8-25.7-22.8s12.9-22.8 25.7-22.8h57.8c45.2 0 95.4 22.3 134.2 59.7 41.9 40.4 64.9 91.6 64.9 144.3v112.7c-3.9 54.6-67.1 64.2-67.1 64.2 31.3 0 54.1 1.3 70.8-5.3 46.6-18.3 44.8-58.9 44.8-58.9V348.6zm-60-158.1c-6.1-7.3-12.7-14.3-19.7-21.1-9.4-9-19.3-17.3-29.5-24.8h37.9c12.8 0 25.7 7.8 25.7 22.8 0 10.1-5.9 18.9-14.4 23.1z"></path><path d="M0 358.3c0 40 32.6 71.3 74.2 71.3h234c41.6 0 74.2-31.3 74.2-71.3S349.8 287 308.2 287h-47.8c-62.3 0-114.9-53.9-114.9-117.7v-105C149.4 9.7 212.6.1 212.6.1c-31.3 0-51.3-1.3-67.9 5.3C98.1 23.7 97 64.3 97 64.3v104.9c0 43.7 16.9 85.1 47.6 116.7 31.1 31.9 72.2 49.5 115.8 49.5h47.8c12.8 0 25.7 7.8 25.7 22.8S321 381 308.2 381h-57.8c-45.2 0-95.4-22.3-134.2-59.7C74.4 281 51.4 229.7 51.4 177V64.3C55.3 9.7 118.5.1 118.5.1 87.2.1 64.4-1.2 47.7 5.4 1 23.7 2.9 64.3 2.9 64.3V177c0 41.3 11.1 81.7 32 118.3C14 308.5 0 331.8 0 358.3zm62.9-23.1c6.1 7.2 12.7 14.3 19.7 21 9.4 9 19.3 17.3 29.5 24.8H74.2c-12.8 0-25.7-7.8-25.7-22.8 0-10 5.9-18.8 14.4-23z"></path><path d="M191.3 115.6s9.6-60.3 64.2-64.2h253.8c54.6 3.9 64.2 64.2 64.2 64.2 0-31.3 1.3-51.3-5.3-67.9C549.9 1 509.3 0 509.3 0H255.5s-40.6 1-58.9 47.7c-6.6 16.6-5.3 36.6-5.3 67.9zM382.3 410.1s-9.6 60.3-64.2 64.2H64.3C9.7 470.4.1 410.1.1 410.1c0 31.3-1.3 51.3 5.3 67.9 18.3 46.6 58.9 47.7 58.9 47.7h253.8s40.6-1 58.9-47.7c6.6-16.6 5.3-36.6 5.3-67.9z"></path></svg>