<svg xmlns="http://www.w3.org/2000/svg" width="622.3" viewBox="0 0 622.3 622.6" height="622.6" xml:space="preserve" style="enable-background:new 0 0 622.3 622.6"><path d="M622.3 0H125.5L0 125.5v497.1h496.9l125.5-125.5V0zm-140 468L386 371.7V257h96.3v211zm-117-102.4H257V257h108.3v108.6zm-128.9 0h-96.3v-211l96.3 96.3v114.7zm-96.3 35.2 81.7 81.7h-81.7v-81.7zM251 482.6l-96.3-96.3h216.8l96.3 96.3H251zm231.3-260.8L400.5 140h81.8v81.8zm-110.9-81.7 96.3 96.3H251l-96.3-96.3h216.7zM129.8 492.9zm4.2 10.3h348.3V602H35.2l98.8-98.8zm354.3-383.8H140.1V20.6h447.1l-98.9 98.8zM119.4 35.2v453.4l-98.8 98.8V134l98.8-98.8zm383.5 552.2V134l98.8-98.8v453.4l-98.8 98.8z"></path></svg>