<svg xmlns="http://www.w3.org/2000/svg" width="610.5" viewBox="0 0 610.5 596.5" height="596.5" xml:space="preserve"><path d="M603.4 0c-1.9 76.8-32.7 148.8-87.3 203.3-56.3 56.3-131.2 87.4-210.9 87.4s-154.6-31-210.9-87.4C39.8 148.8 9 76.8 7.1 0H0v596.5h7.1C9 519.6 39.8 447.6 94.4 393.1c56.3-56.3 131.2-87.4 210.9-87.4s154.6 31 210.9 87.4c54.6 54.6 85.4 126.6 87.3 203.4h7.1V0h-7.2z"></path><path d="M305.3 261.6c71.9 0 139.5-28 190.3-78.8 49-49 76.8-113.7 78.7-182.7h-538C38.2 69.2 66 133.8 115 182.8c50.8 50.8 118.4 78.8 190.3 78.8zM305.3 334.8c-71.9 0-139.5 28-190.3 78.8-49.1 49.1-76.8 113.7-78.7 182.8h538c-1.9-69.1-29.6-133.8-78.7-182.8-50.9-50.8-118.5-78.8-190.3-78.8z"></path></svg>