<svg xmlns="http://www.w3.org/2000/svg" width="618.7" viewBox="0 0 618.7 619.2" height="619.2" xml:space="preserve" style="enable-background:new 0 0 618.7 619.2"><path d="M535.9 0H82.8C37.1 0 0 37.1 0 82.8v453.7c0 45.7 37.1 82.8 82.8 82.8h453.1c45.7 0 82.8-37.1 82.8-82.8V82.8c0-45.7-37.1-82.8-82.8-82.8zM353 75.4h39.1v121.3H353V75.4zm-126.4 0h39.1v247.3h-39.1V75.4zM75.1 226.9h121.3V266H75.1v-39.1zm190.6 316.8h-39.1v-121h39.1v121zm56.5-151.3H75.1v-39.1h247.1v39.1zm69.9 151.5H353V296.2h39.1v247.7zm150.7-151.5H422.3v-39.1h120.5v39.1zm.8-126.4H295.9v-39.1h247.7V266z"></path></svg>