<svg data-name="Layer 1" xmlns="http://www.w3.org/2000/svg" viewBox="0 0 593.3 396.07"><path d="M228.26 162.55 0 161.81v87.55c0 81.03 65.69 146.72 146.72 146.71 81.02 0 146.71-65.69 146.71-146.71V5.57h-65.17v156.98Zm-81.4 168.24c-90.51 0-81.4-102.79-81.4-102.79h162.8c0 1.15 9.15 102.79-81.4 102.79ZM527.85 168.06h-162.8c0-1.15-9.15-102.79 81.4-102.79 76.39 0 81.82 73.22 81.65 96.06h65.21v-14.62C593.3 65.68 527.61 0 446.58 0c-81.02 0-146.71 65.69-146.71 146.71V390.5h65.17V233.52l228.26.74v-66.4h-65.44c0 .13-.02.21-.02.21Z"></path></svg>