<svg id="Layer_1" data-name="Layer 1" xmlns="http://www.w3.org/2000/svg" viewBox="0 0 607.58 613.15">   <path d="M568.68,347.84c-133.23,0-246.78,84.17-290.43,202.22v-222.69c-66.22,43.22-145.26,68.42-230.22,68.42-12.71,0-25.27-.61-37.69-1.71,37.67,126.67,154.93,219.07,293.83,219.07,154.47,0,282.19-114.26,303.42-262.86-12.75-1.6-25.73-2.45-38.91-2.45Z"></path>   <path d="M330.08,66.14v224.99c67.87-46.63,150.02-73.98,238.6-73.98,9.79,0,19.47,.45,29.09,1.1C559.83,92,442.77,0,304.17,0,147.67,0,18.66,117.28,0,268.73c12.67,1.58,25.56,2.43,38.65,2.43,134.27,0,248.54-85.51,291.43-205.02Zm88.27,16.54c38.73,0,70.14,31.4,70.14,70.14s-31.4,70.14-70.14,70.14-70.14-31.4-70.14-70.14,31.4-70.14,70.14-70.14Z"></path> </svg>