<svg xmlns="http://www.w3.org/2000/svg" width="585.7" viewBox="0 0 585.7 511.6" height="511.6"><path d="M106.5 336.9V0L56.4 47.8V337c0 96.4 78.4 174.6 174.7 174.6 96.4 0 174.6-78.2 174.6-174.6v-.4c0-1.5.6-3 1.7-4.1 1.1-1.1 2.5-1.7 4.1-1.7 1.5 0 3 .6 4.1 1.7 1.1 1.1 1.7 2.5 1.7 4.1v55.5c27.7-3 49.3-26.6 49.3-55.1 0-30.6-24.8-55.4-55.4-55.4-30.6 0-55.4 24.8-55.4 55.4 0 68.8-55.8 124.6-124.6 124.6-68.8-.1-124.7-55.9-124.7-124.7zm69.3 0V47.8L225 0v337c0 2.9 2.3 5.2 5.2 5.2h1c1.4 0 2.7-.6 3.7-1.5 1-1 1.5-2.3 1.5-3.7 0-96.4 78.2-174.6 174.6-174.6 96.4 0 174.6 78.2 174.6 174.6 0 94.3-75 171.3-168.5 174.5v-50.1c65.9-3.2 118.5-57.7 118.5-124.4 0-68.8-55.8-124.6-124.6-124.6S286.4 268.2 286.4 337c0 30.6-24.8 55.4-55.4 55.4-30.5 0-55.2-24.9-55.2-55.5zm-10.1 0c0 36.1 29.3 65.4 65.4 65.4 36.1 0 65.4-29.3 65.4-65.4 0-63.2 51.4-114.5 114.6-114.5S525.7 273.8 525.7 337c0 61.2-48.1 111.2-108.4 114.4v-49.3c33.2-3.1 59.3-31.1 59.3-65.1 0-36.1-29.3-65.4-65.4-65.4-36.1 0-65.5 29.3-65.5 65.3 0 63.2-51.3 114.5-114.5 114.5s-114.5-51.3-114.5-114.5V47.7L165.8 0l-.1 336.9zM46.4 95.2H0l45.7 47.3L0 189.7h46.4V95.2z" fill-rule="evenodd" clip-rule="evenodd"></path></svg>