<svg id="Layer_1" data-name="Layer 1" xmlns="http://www.w3.org/2000/svg" viewBox="0 0 620.73 620.73">   <path d="M444.93,0h-164.49c-38.33,0-75.09,15.23-102.2,42.33L42.33,178.24C15.23,205.34,0,242.11,0,280.44v164.49c0,97.09,78.71,175.8,175.8,175.8h167.29c38.33,0,75.09-15.23,102.2-42.33l133.11-133.11c27.1-27.1,42.33-63.86,42.33-102.2V175.8C620.73,78.71,542.02,0,444.93,0Zm87.08,447.01c0,46.94-38.06,85-85,85H175.12c-46.94,0-85-38.06-85-85V175.12c0-46.94,38.05-85,85-85H447.01c46.94,0,85,38.06,85,85V447.01Z"></path>   <path d="M311.07,229.92c37.98,0,69.62,26.2,78.46,61.45h110.08c-9.86-95.44-90.5-169.87-188.54-169.87-104.7,0-189.57,84.87-189.57,189.57s84.87,189.57,189.57,189.57c98.04,0,178.68-74.43,188.54-169.87h-110.08c-8.84,35.24-40.48,61.45-78.46,61.45-44.82,0-81.15-36.33-81.15-81.15s36.33-81.15,81.15-81.15Z"></path> </svg>