<svg id="Layer_1" data-name="Layer 1" xmlns="http://www.w3.org/2000/svg" viewBox="0 0 613.58 523.52">   <path d="M579.98,116.57h-102.33l1.38-3.65c2.94-7.3,6.95-14.48,12.84-19.75,6.98-6.25,16.61-8.27,25.75-6.52,4.19,.8,3.52,.7,6.26,1.22,0,0,30.82-82.78,30.82-82.78,0,0-105.44-29.61-154.38,54.08l-32.63,57.4h-99.93c-27.04,0-52.49,12.78-68.64,34.47L0,418.38l101.58-.18c31.15-.06,59.97-16.53,75.83-43.34l94.35-159.5h40.73l-169.58,308.16h164.35L437.77,215.36h39.28l-58.13,149.96c-9.9,25.54,8.94,53.06,36.34,53.06h94.3l63.06-260.33c5.12-21.14-10.89-41.49-32.64-41.49ZM497.8,18c7.8,0,14.12,6.32,14.12,14.12s-6.32,14.12-14.12,14.12-14.12-6.32-14.12-14.12,6.32-14.12,14.12-14.12Z"></path> </svg>