<svg data-name="Layer 1" xmlns="http://www.w3.org/2000/svg" viewBox="0 0 612.34 329.39"><circle cx="306.17" cy="83.86" r="83.86"></circle><path d="M495.38 174.73c29.77-35.48 33.16-81.65 7.57-103.12-25.59-21.47-70.47-10.1-100.23 25.38-29.77 35.48-33.15 81.65-7.57 103.12 25.59 21.47 70.47 10.11 100.23-25.38ZM527.52 264.34c43.52-15.85 73.22-44.02 66.34-62.92-6.88-18.9-47.74-21.38-91.26-5.54-43.52 15.85-73.22 44.02-66.34 62.92 6.88 18.9 47.74 21.38 91.26 5.54ZM528.47 282.88c-46.32 0-83.86 10.43-83.86 23.27s37.55 23.25 83.87 23.24c46.32 0 83.86-10.43 83.86-23.27s-37.55-23.25-83.87-23.24ZM109.39 71.61c-25.59 21.47-22.2 67.64 7.57 103.12 29.77 35.48 74.64 46.85 100.23 25.38 25.59-21.47 22.2-67.64-7.57-103.12-29.77-35.48-74.64-46.85-100.23-25.38ZM109.74 195.88c-43.52-15.84-84.38-13.37-91.26 5.54-6.88 18.9 22.82 47.07 66.34 62.92 43.52 15.84 84.38 13.37 91.26-5.54 6.88-18.9-22.82-47.07-66.34-62.92ZM83.87 282.88C37.55 282.87 0 293.27 0 306.12c0 12.84 37.54 23.26 83.86 23.27s83.87-10.4 83.87-23.24c0-12.84-37.54-23.26-83.86-23.27Z"></path></svg>