<svg xmlns="http://www.w3.org/2000/svg" width="624.9" viewBox="0 0 624.9 619.7" height="619.7" xml:space="preserve" style="enable-background:new 0 0 624.9 619.7"><path d="M312.5 0C139.9 0 0 140.4 0 313.6c0 149.6 106.5 274.6 246 306V387.9L397.9 616c132.1-36.5 227-158 227-302.4C624.9 140.4 485 0 312.5 0zm-68.7 313.6c0-38.1 30.8-69 68.7-69 37.9 0 68.7 30.9 68.7 69s-30.8 69-68.7 69c-37.2 0-67.5-29.7-68.6-66.8l-.1-2.2zm219.5 146.3L435.5 432c29.9-31.3 48.3-71.6 48.3-118.4 0-96.2-75.5-172.1-171.4-172.1S141 217.3 141 313.6V434c-22.8-33.7-38.4-76.6-38.4-120.4 0-116.3 93.9-210.6 209.8-210.6s209.8 94.3 209.8 210.6c0 56.9-22.4 108.4-58.9 146.3z"></path></svg>