<svg id="Layer_1" data-name="Layer 1" xmlns="http://www.w3.org/2000/svg" viewBox="0 0 607.95 611.46">   <path d="M249.7,486.66c-6.2,13.23-15.44,25.19-27.08,34.07-56.63,43.13-136.94,10.83-149.84-51.85-2.13-10.21-2.78-20.72-4.27-31.06-3.24-23.19-18.81-45.84-42.02-51.79,6.83-1.17,16.88-3.33,24.6-4.65,2.49-13.81,9.23-26.45,24.59-27.63,32.18-1.41,31.96,41.71,49.88,58.77,36,31.6,83.11-18.31,51.15-52.86-3.39-3.56-7.69-6.28-11.69-9.24-17.51-12.94-20.06-36.7-5.06-52.29,5.13-5.33,11.27-9.85,17.45-13.99,106.74-71.55,214.06-143,320.65-216.01C445.53,25.55,378.63,0,305.73,0,136.88,0,0,136.88,0,305.73s136.88,305.73,305.73,305.73c118.49,0,221.17-67.46,271.92-166.02,0,0-277.23,.03-277.23,.03-34.09,0-41,11.53-50.72,41.2Z"></path>   <path d="M277.48,352.23c-28.91,.92-46.23,16.38-50.95,44.79-.82,4.91-1.69,9.84-2.93,14.65-6.83,26.51-30.47,45.09-57.89,45.75-21.61,.52-39.98-6.77-55.18-22.23-2.53-2.57-9.39-10.98-9.39-10.98-2.75,27.9,15.22,58.48,42.77,67.45,39.02,12.7,73.13-14.08,76.61-47.13,.31-2.95,1.09-5.87,1.83-8.76,5.34-20.73,19.32-31.86,39.87-35.39,4.39-.76,8.94-.87,13.42-.92h321.13c4.91-15.26,8.71-31.02,11.18-47.22H277.48Z"></path> </svg>