<svg data-name="Layer 1" xmlns="http://www.w3.org/2000/svg" viewBox="0 0 606.88 606.88"><path d="M303.44 228.7c28.29 0 51.32-23.02 51.32-51.31s-23.02-51.32-51.32-51.32-51.31 23.02-51.31 51.32 23.02 51.31 51.31 51.31Zm0-73.26c12.1 0 21.95 9.85 21.95 21.94s-9.85 21.94-21.95 21.94-21.94-9.85-21.94-21.94 9.85-21.94 21.94-21.94Z"></path><path d="M478.65 192.07h27.77c6.33 21.16 25.95 36.63 49.15 36.63 28.3 0 51.31-23.02 51.31-51.31 0-23.19-15.47-42.82-36.63-49.15v-27.77c21.16-6.33 36.63-25.96 36.63-49.15 0-28.29-23.02-51.31-51.31-51.31-23.19 0-42.81 15.47-49.15 36.63h-27.77C472.32 15.47 452.7 0 429.5 0c-28.3 0-51.31 23.02-51.31 51.31s23.02 51.31 51.31 51.31c23.19 0 42.81-15.47 49.15-36.63h27.77c4.94 16.5 17.96 29.52 34.46 34.46v27.77c-16.5 4.94-29.52 17.96-34.46 34.47h-27.77c-6.33-21.16-25.95-36.63-49.15-36.63-28.3 0-51.31 23.02-51.31 51.32 0 23.19 15.47 42.81 36.63 49.15v27.76c-16.5 4.94-29.52 17.96-34.46 34.46H352.6c-6.33-21.16-25.96-36.63-49.15-36.63s-42.81 15.47-49.15 36.63h-27.77c-4.94-16.5-17.96-29.52-34.46-34.46v-27.76c21.16-6.33 36.63-25.95 36.63-49.15 0-28.3-23.02-51.32-51.31-51.32-23.19 0-42.81 15.47-49.15 36.63h-27.77c-4.94-16.5-17.96-29.53-34.46-34.47v-27.77c16.5-4.94 29.52-17.96 34.46-34.46h27.77c6.33 21.16 25.96 36.63 49.15 36.63 28.29 0 51.31-23.02 51.31-51.31S205.67 0 177.38 0c-23.19 0-42.81 15.47-49.15 36.63h-27.77C94.13 15.47 74.5 0 51.31 0 23.02 0 0 23.02 0 51.31c0 23.19 15.47 42.81 36.63 49.15v27.77C15.47 134.56 0 154.19 0 177.38c0 28.3 23.02 51.31 51.31 51.31 23.19 0 42.81-15.47 49.15-36.63h27.77c4.94 16.5 17.96 29.52 34.46 34.46v27.76c-21.16 6.33-36.63 25.95-36.63 49.15s15.47 42.81 36.63 49.15v27.77c-16.5 4.94-29.52 17.96-34.46 34.46h-27.77c-6.33-21.16-25.96-36.63-49.15-36.63C23.02 378.18 0 401.2 0 429.49c0 23.19 15.47 42.81 36.63 49.15v27.76C15.47 512.73 0 532.35 0 555.55c0 28.3 23.02 51.31 51.31 51.31 23.19 0 42.81-15.47 49.15-36.63h27.77c6.33 21.16 25.96 36.63 49.15 36.63 28.29 0 51.31-23.02 51.31-51.31s-23.02-51.31-51.31-51.31c-23.19 0-42.81 15.47-49.15 36.63h-27.77c-4.94-16.5-17.96-29.52-34.46-34.46v-27.76c16.5-4.94 29.52-17.96 34.46-34.46h27.77c6.33 21.16 25.96 36.63 49.15 36.63 28.29 0 51.31-23.02 51.31-51.31 0-23.19-15.47-42.81-36.63-49.15v-27.77c16.5-4.94 29.52-17.96 34.46-34.46h27.77c6.33 21.16 25.96 36.63 49.15 36.63s42.82-15.47 49.15-36.63h27.76c4.94 16.5 17.96 29.52 34.46 34.46v27.77c-21.16 6.33-36.63 25.95-36.63 49.15 0 28.3 23.02 51.31 51.31 51.31 23.19 0 42.81-15.47 49.15-36.63h27.77c4.94 16.5 17.96 29.52 34.46 34.46v27.76c-16.5 4.94-29.52 17.96-34.46 34.46h-27.77c-6.33-21.16-25.95-36.63-49.15-36.63-28.3 0-51.31 23.02-51.31 51.31s23.02 51.31 51.31 51.31c23.19 0 42.81-15.47 49.15-36.63h27.77c6.33 21.16 25.95 36.63 49.15 36.63 28.3 0 51.31-23.02 51.31-51.31 0-23.19-15.47-42.81-36.63-49.15v-27.76c21.16-6.33 36.63-25.95 36.63-49.15 0-28.3-23.02-51.31-51.31-51.31-23.19 0-42.81 15.47-49.15 36.63h-27.77c-4.94-16.5-17.96-29.52-34.46-34.46v-27.77c21.16-6.33 36.63-25.95 36.63-49.15s-15.47-42.81-36.63-49.15v-27.76c16.5-4.94 29.52-17.96 34.46-34.46ZM429.5 73.26c-12.1 0-21.94-9.85-21.94-21.94s9.85-21.94 21.94-21.94 21.94 9.85 21.94 21.94-9.85 21.94-21.94 21.94Zm104.12-21.94c0-12.1 9.85-21.94 21.94-21.94s21.94 9.85 21.94 21.94-9.85 21.94-21.94 21.94-21.94-9.85-21.94-21.94Zm21.94 104.12c12.1 0 21.94 9.85 21.94 21.94s-9.85 21.94-21.94 21.94-21.94-9.85-21.94-21.94 9.85-21.94 21.94-21.94ZM177.38 29.37c12.1 0 21.94 9.85 21.94 21.94s-9.85 21.94-21.94 21.94-21.94-9.85-21.94-21.94 9.85-21.94 21.94-21.94ZM29.37 51.31c0-12.1 9.85-21.94 21.94-21.94s21.94 9.85 21.94 21.94-9.85 21.94-21.94 21.94-21.94-9.85-21.94-21.94Zm21.94 148.01c-12.1 0-21.94-9.85-21.94-21.94s9.85-21.94 21.94-21.94 21.94 9.85 21.94 21.94-9.85 21.94-21.94 21.94Zm126.06 334.3c12.1 0 21.94 9.85 21.94 21.94s-9.85 21.94-21.94 21.94-21.94-9.85-21.94-21.94 9.85-21.94 21.94-21.94ZM73.25 555.56c0 12.1-9.85 21.94-21.94 21.94s-21.94-9.85-21.94-21.94 9.85-21.94 21.94-21.94 21.94 9.85 21.94 21.94ZM51.31 451.45c-12.1 0-21.94-9.85-21.94-21.94s9.85-21.94 21.94-21.94 21.94 9.85 21.94 21.94-9.85 21.94-21.94 21.94Zm104.12-274.07c0-12.1 9.85-21.94 21.94-21.94s21.94 9.85 21.94 21.94-9.85 21.94-21.94 21.94-21.94-9.85-21.94-21.94Zm43.89 252.13c0 12.1-9.85 21.94-21.94 21.94s-21.94-9.85-21.94-21.94 9.85-21.94 21.94-21.94 21.94 9.85 21.94 21.94Zm-21.94-104.12c-12.1 0-21.94-9.85-21.94-21.94s9.85-21.94 21.94-21.94 21.94 9.85 21.94 21.94-9.85 21.94-21.94 21.94Zm126.06 0c-12.1 0-21.94-9.85-21.94-21.94s9.85-21.94 21.94-21.94 21.95 9.85 21.95 21.94-9.85 21.94-21.95 21.94ZM429.5 577.52c-12.1 0-21.94-9.85-21.94-21.94s9.85-21.94 21.94-21.94 21.94 9.85 21.94 21.94-9.85 21.94-21.94 21.94Zm148.01-21.94c0 12.1-9.85 21.94-21.94 21.94s-21.94-9.85-21.94-21.94 9.85-21.94 21.94-21.94 21.94 9.85 21.94 21.94Zm-21.94-148c12.1 0 21.94 9.85 21.94 21.94s-9.85 21.94-21.94 21.94-21.94-9.85-21.94-21.94 9.85-21.94 21.94-21.94ZM407.56 177.4c0-12.1 9.85-21.94 21.94-21.94s21.94 9.85 21.94 21.94-9.85 21.94-21.94 21.94-21.94-9.85-21.94-21.94Zm43.89 252.13c0 12.1-9.85 21.94-21.94 21.94s-21.94-9.85-21.94-21.94 9.85-21.94 21.94-21.94 21.94 9.85 21.94 21.94Zm0-126.07c0 12.1-9.85 21.94-21.94 21.94s-21.94-9.85-21.94-21.94 9.85-21.94 21.94-21.94 21.94 9.85 21.94 21.94Z"></path><path d="M303.44 378.19c-28.29 0-51.31 23.02-51.31 51.31s23.02 51.31 51.31 51.31 51.32-23.02 51.32-51.31-23.02-51.31-51.32-51.31Zm0 73.26c-12.1 0-21.94-9.85-21.94-21.94s9.85-21.94 21.94-21.94 21.95 9.85 21.95 21.94-9.85 21.94-21.95 21.94Z"></path></svg>