<svg data-name="Layer 1" xmlns="http://www.w3.org/2000/svg" viewBox="0 0 545.42 593.07"><path d="M247.75 131.52c10.36 8.19 18.68 18.23 25.97 29.19 17.42 26.17 32.22 53.82 46.29 81.87 8.24 16.42 17.7 31.98 29.88 45.87 40.74 46.46 92.26 65.02 153.1 59.07 5.91-.02 58.23-10.24 37.67-19.27-26.69-13.71-47.24-34.01-64.72-58.14-40.73-54.81-65.76-118.84-103.14-175.75-12.97-20.45-28.39-38.72-48.14-53.11C202.35-50.65 34.53 19.91 0 165.24c40.2 16.62 58.68 44.48 57.01 93.98.35 33.99.08 67.95 2.18 101.94 4.79 90.1 53.35 181.93 140.66 214.99 100.13 42.26 226.52 3.11 280.19-92.63 20.07-34.84 34.83-72.95 40.12-113.19H344.99v50.46h34.75c0 6.7-4.43 14.42-8.58 19.92-39.91 47.05-113.49 47.66-154.93 2.97-33.08-34.51-37.09-84.06-37.09-129.42 0-53.81 9.26-123.02-42.9-157.06 18.47-42.65 76.13-54.92 111.52-25.7Z"></path><path d="M164.02 149.22c0 8.55 6.94 15.49 15.49 15.49S195 157.77 195 149.22s-6.94-15.49-15.49-15.49-15.49 6.94-15.49 15.49Z"></path></svg>