<svg data-name="Layer 1" xmlns="http://www.w3.org/2000/svg" viewBox="0 0 609.74 609.74"><path d="M413.48 51.47c-18.13-7.78-37.27-13.63-57.16-17.39v242.21H253.43V34.08c-19.89 3.76-39.03 9.61-57.16 17.39-89.9 38.58-155.15 123.56-165.58 224.82-.97 9.4-1.47 18.93-1.47 28.58s.51 19.19 1.47 28.58h165.57v224.82c18.13 7.78 37.27 13.63 57.16 17.39V333.45h102.89v242.21c19.89-3.76 39.03-9.61 57.16-17.39V333.45h165.57c.97-9.4 1.47-18.93 1.47-28.58s-.51-19.19-1.47-28.58C568.61 175.03 503.36 90.05 413.47 51.47ZM196.26 276.29H89.58c8.98-68.24 49.6-126.47 106.68-159.51v159.51Zm217.22 0V116.78c57.08 33.03 97.7 91.26 106.68 159.51H413.48Z"></path><path d="M539.28 0H70.47C31.71 0 0 31.71 0 70.47v468.81c0 38.76 31.71 70.47 70.47 70.47h468.81c38.76 0 70.47-31.71 70.47-70.47V70.47C609.75 31.71 578.04 0 539.28 0Zm-234.4 598.31c-162.06 0-293.44-131.38-293.44-293.44S142.81 11.43 304.87 11.43s293.44 131.38 293.44 293.44-131.38 293.44-293.44 293.44Z"></path></svg>