<svg xmlns="http://www.w3.org/2000/svg" width="626.2" viewBox="0 0 626.2 253.4" height="253.4" xml:space="preserve" style="enable-background:new 0 0 626.2 253.4"><path d="M579.8 117.3c-2.3 0-4.6.2-6.9.5C568.3 52.1 513.3 0 446.5 0c-24.5 0-47.3 7-66.7 19-19.4-12-42.2-19-66.7-19s-47.3 7-66.7 19C227.1 7 204.2 0 179.8 0 112.9 0 58 52.1 53.4 117.8c-2.3-.3-4.6-.5-6.9-.5-25.7 0-46.5 20.8-46.5 46.4 0 25.6 20.8 46.4 46.4 46.4 11 0 21.4-3.8 29.6-10.7 23.6 33.5 62.5 54 103.8 54 23.9 0 46.9-6.9 66.7-19.1 19.8 12.2 42.8 19.1 66.7 19.1 23.9 0 46.9-6.9 66.7-19.1 19.8 12.2 42.8 19.1 66.7 19.1 41.3 0 80.2-20.5 103.8-54 8.2 6.9 18.6 10.7 29.6 10.7 25.6 0 46.4-20.8 46.4-46.4-.2-25.6-21-46.4-46.6-46.4zM313.1 15.2c19.2 0 37.3 4.9 53.1 13.5-26.2 21.5-43.6 53.3-46.1 89.1-.4-.1-.9-.1-1.3-.2-.5-.1-.9-.1-1.4-.2-1.4-.1-2.8-.2-4.2-.2-1.4 0-2.8.1-4.2.2-.5 0-.9.1-1.4.2-.4.1-.9.1-1.3.2-2.5-35.8-20-67.6-46.2-89.1 15.7-8.6 33.8-13.5 53-13.5zm111.5 111.7v11.9l10.4-4.1c3.7-1.5 7.6-2.2 11.5-2.2 17.2 0 31.2 14 31.2 31.2s-14 31.2-31.2 31.2c-9.8 0-18.8-4.5-24.7-12.3l-6.9-8.9-5.7 9.7c-7.6 12.9-17.7 23.9-29.3 32.6-10.4-7.8-19.5-17.4-26.8-28.6 4.1-6.9 6.6-15 6.6-23.7 0-17.7-9.9-33-24.5-40.9 1.2-34.9 18.5-65.8 44.7-85.4 27.1 20.4 44.7 52.9 44.7 89.5zm-94.4 62.9c-.3.2-.7.4-1 .6-.6.4-1.2.7-1.8 1-.4.2-.9.4-1.3.6-.6.3-1.1.5-1.7.7-.5.2-.9.4-1.4.5-.6.2-1.2.4-1.8.5-.5.1-.9.3-1.4.4-.7.2-1.4.3-2.1.4-.4.1-.8.1-1.2.2-1.1.1-2.3.2-3.4.2s-2.3-.1-3.4-.2c-.4 0-.8-.1-1.2-.2-.7-.1-1.4-.2-2.1-.4-.5-.1-.9-.2-1.4-.4-.6-.2-1.2-.3-1.8-.5-.5-.2-1-.3-1.4-.5-.6-.2-1.1-.5-1.7-.7-.4-.2-.9-.4-1.3-.6-.6-.3-1.2-.7-1.8-1-.3-.2-.7-.4-1-.6-2.9-1.9-5.4-4.3-7.6-7.1-4.1-5.3-6.5-11.8-6.5-19 0-12.8 7.8-23.9 18.9-28.7l.8-.3c.1 0 .2-.1.2-.1.9-.3 1.7-.6 2.6-.9.1 0 .2 0 .3-.1.8-.2 1.7-.4 2.5-.6.3-.1.6-.1 1-.1.6-.1 1.3-.2 1.9-.3 1-.1 2-.2 3-.2s2 .1 3 .2c.7.1 1.3.2 2 .3.3 0 .6.1.9.1.9.2 1.7.4 2.6.6.1 0 .1 0 .2.1l2.7.9h.1l.8.3c11.1 4.8 18.9 15.8 18.9 28.6 0 7.1-2.4 13.7-6.5 19-2.1 3-4.7 5.4-7.6 7.3zM246.4 216c-11.7-8.7-21.7-19.7-29.3-32.6l-5.7-9.7-6.9 8.9c-6 7.8-15 12.3-24.7 12.3-17.2 0-31.2-14-31.2-31.2s14-31.2 31.2-31.2c3.9 0 7.8.7 11.5 2.2l10.5 4.1-.1-11.3v-.9c0-36.5 17.6-68.9 44.8-89.3 26.2 19.6 43.5 50.5 44.7 85.4-14.5 7.8-24.5 23.2-24.5 40.9 0 8.6 2.4 16.7 6.6 23.7-7.3 11.2-16.4 20.9-26.9 28.7zm-66.6 22.2c-39.2 0-76-21-96-54.8l-5.7-9.7-6.9 8.9c-6 7.8-15 12.3-24.7 12.3-17.2 0-31.2-14-31.2-31.2s14-31.2 31.2-31.2c3.9 0 7.8.7 11.5 2.2l10.5 4.2-.1-11.3v-.8c0-61.5 50-111.5 111.5-111.5 19.2 0 37.3 4.9 53.1 13.5-26.2 21.5-43.7 53.2-46.2 89.1-2.3-.3-4.6-.5-6.9-.5-25.6 0-46.4 20.8-46.4 46.4 0 25.6 20.8 46.4 46.4 46.4 11 0 21.4-3.8 29.6-10.7 6.7 9.5 14.6 17.9 23.5 25.2-16.2 8.6-34.4 13.5-53.2 13.5zm133.3 0c-18.8 0-37-4.9-53.1-13.6 8.9-7.2 16.8-15.6 23.5-25.2h.1l.2.2c1.1.9 2.2 1.7 3.3 2.5.1.1.3.2.5.3 1.1.7 2.2 1.4 3.3 2 .2.1.5.2.7.4 1 .6 2.1 1.1 3.2 1.5.3.1.6.3.9.4 1 .4 2.1.8 3.1 1.1.4.1.8.2 1.1.4 1 .3 2 .6 3.1.8.4.1.9.2 1.3.3 1 .2 2.1.4 3.2.5.4.1.8.1 1.3.2 1.5.1 3 .2 4.5.2s3-.1 4.5-.2c.4 0 .8-.1 1.3-.2 1.1-.1 2.1-.3 3.2-.5.4-.1.9-.2 1.3-.3 1-.2 2.1-.5 3.1-.8.4-.1.8-.2 1.1-.4 1.1-.3 2.1-.7 3.1-1.1.3-.1.6-.2.9-.4 1.1-.5 2.2-1 3.2-1.6.2-.1.4-.2.7-.3 1.1-.6 2.2-1.3 3.3-2 .1-.1.3-.2.4-.3 1.2-.8 2.3-1.6 3.4-2.6 0 0 .1 0 .1-.1l.1-.1c6.7 9.5 14.6 17.9 23.5 25.2-16.4 8.8-34.6 13.7-53.4 13.7zm266.7-43.3c-9.8 0-18.8-4.5-24.7-12.3l-6.9-8.9-5.7 9.7c-20 33.8-56.8 54.8-96 54.8-18.8 0-37-4.9-53.1-13.6 8.9-7.2 16.8-15.6 23.5-25.2 8.2 6.9 18.6 10.7 29.6 10.7 25.6 0 46.4-20.8 46.4-46.4 0-25.6-20.8-46.4-46.4-46.4-2.3 0-4.6.2-6.9.5-2.5-35.8-20-67.6-46.2-89.1 15.8-8.6 33.9-13.5 53.1-13.5 61.5 0 111.5 50 111.5 111.7l-.1 12 10.5-4.2c3.7-1.5 7.6-2.2 11.5-2.2 17.2 0 31.2 14 31.2 31.2s-14.1 31.2-31.3 31.2z"></path><ellipse cx="246.4" cy="86.2" rx="13.4" ry="18.6"></ellipse><ellipse cx="379.8" cy="86.2" rx="13.4" ry="18.6"></ellipse><ellipse cx="513.1" cy="86.2" rx="13.4" ry="18.6"></ellipse><ellipse cx="113.1" cy="86.2" rx="13.4" ry="18.6"></ellipse></svg>