<svg data-name="Layer 1" xmlns="http://www.w3.org/2000/svg" viewBox="0 0 623.72 623.72"><path d="m353.29 459.62-39.39-76.13c-.86-1.65-3.22-1.65-4.07 0l-39.39 76.13.03.02c-4.55 8.85-6.41 19.3-4.27 30.34 3.8 19.63 20.51 34.95 40.39 37.14 28.07 3.09 51.82-18.81 51.82-46.26 0-7.65-1.88-14.85-5.15-21.22l.03-.02ZM266.2 223.53c3.8 19.63 20.51 34.95 40.39 37.14 28.07 3.09 51.82-18.81 51.82-46.26 0-7.65-1.88-14.85-5.15-21.22l.03-.02-39.39-76.13c-.86-1.65-3.22-1.65-4.07 0l-39.39 76.13.03.02c-4.55 8.85-6.41 19.3-4.27 30.34ZM305.87 347.64c0-7.65-1.88-14.86-5.15-21.22l.03-.02-39.39-76.13c-.86-1.65-3.22-1.65-4.07 0L217.9 326.4l.03.02c-4.55 8.85-6.41 19.3-4.27 30.34 3.8 19.63 20.51 34.95 40.38 37.14 28.07 3.09 51.83-18.81 51.83-46.25ZM405.82 326.39l-39.39-76.13c-.86-1.65-3.22-1.65-4.07 0l-39.39 76.13.03.02c-4.55 8.85-6.41 19.3-4.27 30.34 3.8 19.63 20.51 34.95 40.39 37.14 28.07 3.09 51.82-18.81 51.82-46.25 0-7.65-1.88-14.86-5.15-21.22l.03-.02ZM195.68 326.39l-41.43-80.07-41.43 80.07.03.02c-3.27 6.37-5.15 13.57-5.15 21.22 0 25.71 20.84 46.55 46.55 46.55s46.54-20.84 46.54-46.55c0-7.65-1.88-14.86-5.15-21.22l.03-.02ZM510.86 326.41l.04-.02-39.39-76.13c-.85-1.65-3.22-1.65-4.07 0l-39.39 76.13.03.02c-4.55 8.85-6.41 19.3-4.27 30.34 3.8 19.63 20.51 34.95 40.38 37.14 28.07 3.09 51.82-18.81 51.82-46.25 0-7.65-1.88-14.86-5.15-21.22ZM253.34 214.41c0-7.65-1.88-14.85-5.15-21.22l.03-.02-39.39-76.13c-.86-1.65-3.22-1.65-4.07 0l-39.39 76.13.03.02c-4.55 8.85-6.41 19.3-4.27 30.34 3.8 19.63 20.51 34.95 40.38 37.14 28.07 3.09 51.83-18.81 51.83-46.26ZM463.48 214.41c0-7.65-1.88-14.85-5.15-21.22l.03-.02-39.39-76.13c-.85-1.65-3.22-1.65-4.07 0l-39.39 76.13.03.02c-4.55 8.85-6.41 19.3-4.27 30.34 3.8 19.63 20.51 34.95 40.39 37.14 28.07 3.09 51.82-18.81 51.82-46.26Z"></path><path d="M311.86 0C139.62 0 0 139.62 0 311.86s139.62 311.86 311.86 311.86S623.72 484.1 623.72 311.86 484.09 0 311.86 0Zm0 540.86c-126.48 0-229.01-102.53-229.01-229.01s102.53-229 229.01-229 229.01 102.53 229.01 229.01-102.53 229.01-229.01 229.01Z"></path></svg>