<svg data-name="Layer 1" xmlns="http://www.w3.org/2000/svg" viewBox="0 0 471.54 604.83"><path d="M415.46 282.13c13-20.26 18.37-44.63 15.12-68.79-6.09-45.17-41.87-80.95-87.02-87-2.85-.38-5.75-.65-8.62-.8 2.18-9.12 3.07-18.56 2.66-28.09C335.28 43.71 289.58 0 235.74 0h-1.28c-55.47.71-100.6 46.43-100.6 101.92 0 8 .93 15.94 2.76 23.62-2.88.15-5.77.41-8.62.8-45.16 6.05-80.94 41.82-87.02 87-3.25 24.17 2.11 48.54 15.12 68.8C17.95 305.8-3.35 348.22.43 393.13c4.84 57.45 51.87 103.96 109.39 108.18 27.9 2.08 55.67-5.85 78.49-22.32v125.84h37.65V334.85c0-5.32 4.5-9.81 9.82-9.81s9.82 4.5 9.82 9.81v257.89h37.65V479.26c20.21 14.65 44.18 22.38 69.49 22.38 3.29 0 6.6-.13 9.84-.4 57.07-4.59 103.73-51.07 108.54-108.11 3.78-44.92-17.52-87.33-55.65-111.01Zm18.14 107.84c-3.28 38.91-35.11 70.62-74.04 73.75-31.14 2.4-60.34-12.54-76.32-39.14v-89.73c0-26.17-21.29-47.46-47.47-47.46s-47.47 21.29-47.47 47.46v89.68c-15.82 26.43-44.79 41.42-75.73 39.24-39.24-2.88-71.32-34.61-74.63-73.8-2.74-32.53 14.09-63.41 42.88-78.67 7.91-4.19 13.54-11.58 15.46-20.27 1.92-8.73-.11-17.85-5.56-25.03-10.33-13.59-14.75-30.51-12.44-47.66 3.76-27.95 26.77-50.96 54.71-54.7 5.26-.71 10.58-.79 15.79-.25 9.45 1 18.51-2.94 24.23-10.6 5.75-7.68 6.99-17.56 3.33-26.43-3.21-7.76-4.83-15.99-4.83-24.46 0-34.99 28.45-63.82 63.43-64.26 34.26-.52 63.56 27.01 65.04 61.42.42 9.5-1.2 18.71-4.79 27.39-3.66 8.8-2.42 18.63 3.3 26.3 5.71 7.65 14.8 11.64 24.29 10.65 5.17-.55 10.48-.46 15.78.25 27.94 3.74 50.94 26.75 54.71 54.7 2.3 17.15-2.11 34.07-12.44 47.66-5.46 7.18-7.49 16.3-5.56 25.03 1.91 8.69 7.55 16.07 15.46 20.27 28.79 15.26 45.61 46.13 42.88 78.66Z"></path><path d="M235.77 238.11c-53.34 0-96.75 43.4-96.75 96.74v54.48c0 10.38 8.44 18.82 18.82 18.82s18.82-8.45 18.82-18.82v-54.48c0-32.58 26.51-59.1 59.1-59.1s59.1 26.51 59.1 59.1v66.61c0 10.38 8.45 18.82 18.82 18.82s18.82-8.45 18.82-18.82v-66.61c0-53.34-43.4-96.74-96.75-96.74ZM235.77 231.5c17.59 0 31.91-14.31 31.91-31.9s-14.31-31.91-31.91-31.91-31.9 14.31-31.9 31.91 14.31 31.9 31.9 31.9Z"></path></svg>