<svg xmlns="http://www.w3.org/2000/svg" width="629.2" viewBox="0 0 629.2 642" height="642" style="overflow:visible;enable-background:new 0 0 629.2 642" xml:space="preserve"><path d="m536.5 317.4-96.6 17.5c-5.3 1-9.6-4.2-7.8-9.3l47.4-130.2c2-5.6-3.4-11-8.9-8.9l-93.2 33.9c-3.6 1.3-7.6-.6-8.9-4.2L321.1 86.4c-2.2-6.1-10.9-6.1-13.1 0l-47.2 129.8c-1.3 3.6-5.3 5.5-8.9 4.2l-93.2-33.9c-5.6-2-11 3.4-8.9 8.9l47.4 130.2c1.8 5.1-2.5 10.2-7.8 9.3l-96.6-17.5c-5.1-.9-9.4 3.8-8 8.8 26 93.6 107.7 164 207.2 173.4 3.8.4 6.6 3.6 6.3 7.3l-5.6 79.2c-.3 4.2 3 7.7 7.2 7.7h29.4c4.2 0 7.5-3.6 7.2-7.7l-5.6-79.2c-.3-3.8 2.6-7 6.3-7.3 99.5-9.4 181.2-79.8 207.2-173.4 1.4-4.9-2.8-9.7-7.9-8.8zM326.4 442.5l-3.4-48.2c-.2-3 1.5-5.7 4.3-6.8 14.1-5.7 23.4-20.6 20.5-37.3-2.3-13.2-12.7-24-25.8-26.8-21.8-4.6-41 11.9-41 32.9 0 14.1 8.8 26.2 21.1 31.2 2.7 1.1 4.4 3.9 4.2 6.8l-3.4 48.2c-.3 4.2-4.3 7.2-8.5 6.3-43.2-9.4-75.3-48.2-74.4-94.4 1-49.2 41-90.3 90.1-92.6 54.4-2.6 99.3 40.7 99.3 94.6 0 45.4-31.9 83.2-74.5 92.4-4.2.8-8.2-2.1-8.5-6.3zM559.3 642H69.8C31.3 642 0 610.7 0 572.2V69.8C0 31.3 31.3 0 69.8 0h489.5c38.6 0 69.8 31.3 69.8 69.8v502.4c.1 38.5-31.2 69.8-69.8 69.8z"></path></svg>