<svg data-name="Layer 1" xmlns="http://www.w3.org/2000/svg" viewBox="0 0 618.05 617.44"><path d="M309.02 0C138.35 0 0 138.35 0 309.02c0 62.67 18.71 120.94 50.76 169.64l87.81-290.96c8.26-27.36 33.46-46.08 62.04-46.08h216.84c28.58 0 53.78 18.72 62.03 46.08l87.81 290.96c32.06-48.7 50.76-106.97 50.76-169.64C618.05 138.35 479.69 0 309.02 0Z"></path><path d="M436.38 395.14c-58.89 0-108.94 37.75-127.35 90.35-41.91-119.27-211.53-119.86-254.36-1.03 120.92 177.33 387.85 177.26 508.71 0-18.7-52.07-68.49-89.33-127-89.33Z"></path></svg>