<svg data-name="Layer 1" xmlns="http://www.w3.org/2000/svg" viewBox="0 0 617.88 535.23"><path d="M309.06 83.43c18.47 0 33.44-14.97 33.44-33.44s-14.97-33.44-33.44-33.44-33.44 14.97-33.44 33.44 14.97 33.44 33.44 33.44Z"></path><path d="M605.83 229.64c-66.1-29.31-144.97-13.39-194.72 38.45l-61-35.22v-70.28c69.92-17.1 123.24-77.48 130.9-149.52L482.4-.01 469.49 2.5c-71.34 13.87-127.04 72.51-137.81 143.93a153.857 153.857 0 0 1-45.45-.04C275.44 75.11 219.84 16.52 148.66 2.56L135.72.02l1.4 13.1c7.66 71.9 60.89 132.24 130.65 149.41v70.34l-61 35.22c-49.75-51.84-128.62-67.76-194.72-38.45L0 234.98l8.66 9.93c47.67 54.67 126.22 73.53 193.35 47.21 9.5 11.94 17.13 25.13 22.75 39.35h.01c-56.47 45.04-79.4 122.6-55.75 191.31l4.28 12.44 10.63-7.74c58.56-42.64 84.2-119.01 64.04-188.12l60.96-35.19-9.72-16.84-57.89 33.42c-2.81-6.69-5.99-13.2-9.58-19.42-3.64-6.3-7.74-12.37-12.17-18.2l57.91-33.43-9.66-16.73h19.37V166.1c7.27.92 14.58 1.44 21.85 1.44s14.41-.51 21.61-1.41v66.84h19.37l-9.66 16.73 57.91 33.43c-4.43 5.83-8.54 11.91-12.17 18.2-3.59 6.22-6.77 12.73-9.58 19.42l-57.89-33.42-9.72 16.84 60.96 35.19c-20.15 69.1 5.48 145.47 64.04 188.12l10.63 7.74 4.28-12.44c23.65-68.72.72-146.28-55.75-191.31h.01a153.535 153.535 0 0 1 22.75-39.35c67.12 26.31 145.67 7.45 193.35-47.21l8.66-9.93-12.05-5.34ZM459.53 24.93c-11.22 55.43-53.06 101.05-107.33 117 11.22-55.43 53.07-101.05 107.33-117ZM158.61 25c54.11 16.02 95.84 61.56 107.07 116.86C211.57 125.84 169.84 80.3 158.61 25ZM33.07 242.32c53.5-17.92 113.81-4.55 154.73 34.3-53.5 17.92-113.81 4.55-154.73-34.3Zm150.39 260.65c-13.32-54.97 5.27-114.02 47.66-151.45 13.32 54.97-5.27 114.02-47.66 151.45Zm250.96 0c-42.4-37.43-60.98-96.48-47.66-151.45 42.39 37.43 60.98 96.48 47.66 151.45Zm-4.34-226.35c40.92-38.86 101.23-52.23 154.73-34.3-40.92 38.85-101.23 52.22-154.73 34.3Z"></path><path d="M504.66 331.16c-15.99-9.23-36.45-3.75-45.68 12.24-9.23 15.99-3.75 36.45 12.24 45.68 15.99 9.23 36.44 3.75 45.68-12.24 9.23-15.99 3.75-36.45-12.24-45.68ZM158.89 343.41c-9.23-15.99-29.68-21.48-45.68-12.24-15.99 9.23-21.47 29.68-12.24 45.68 9.23 15.99 29.68 21.48 45.68 12.24 15.99-9.23 21.48-29.68 12.24-45.68Z"></path></svg>