<svg xmlns="http://www.w3.org/2000/svg" width="618.2" viewBox="0 0 618.2 618.2" height="618.2" style="enable-background:new 0 0 618.2 618.2" xml:space="preserve"><path d="M367 0H251.2C112.7 0 0 112.7 0 251.2V367c0 138.5 112.7 251.2 251.2 251.2H367c138.5 0 251.2-112.7 251.2-251.2V251.2C618.2 112.7 505.5 0 367 0zm240.8 367c0 132.8-108 240.8-240.8 240.8H251.2c-132.8 0-240.8-108-240.8-240.8V251.2c0-132.8 108-240.8 240.8-240.8H367c132.8 0 240.8 108 240.8 240.8V367z"></path><path d="M151.9 278.5c-16.9 0-30.6 13.7-30.6 30.6 0 6.5 2 12.4 5.4 17.4L91.2 362c-2.4-1.4-5-2.5-7.8-3.3v-20c13.2-3.4 23-15.3 23-29.5 0-16.9-13.7-30.6-30.6-30.6s-30.6 13.7-30.6 30.6c0 14.3 9.8 26.1 23 29.5v20c-13.2 3.4-23 15.3-23 29.5 0 16.9 13.7 30.6 30.6 30.6s30.6-13.7 30.6-30.6c0-5.7-1.6-10.9-4.3-15.5l36.3-36.3c4.1 2 8.7 3.3 13.5 3.3 16.9 0 30.6-13.7 30.6-30.6s-13.7-30.6-30.6-30.6zM511.6 301.5H492c-3.4-13.2-15.3-23-29.5-23-16.9 0-30.6 13.7-30.6 30.6s13.7 30.6 30.6 30.6c14.3 0 26.1-9.8 29.5-23h19.6c.7 2.8 1.8 5.4 3.2 7.8l-37.2 37.2c-4.5-2.6-9.6-4.2-15.2-4.2-16.9 0-30.6 13.7-30.6 30.6s13.7 30.6 30.6 30.6c14.3 0 26.3-9.9 29.6-23.2h19.5c3.3 13.3 15.3 23.2 29.6 23.2 16.9 0 30.6-13.7 30.6-30.6s-13.7-30.6-30.6-30.6c-14.2 0-26 9.7-29.5 22.8H492c-.7-2.8-1.9-5.4-3.3-7.9l37.1-37.1c4.6 2.7 9.8 4.3 15.5 4.3 16.9 0 30.6-13.7 30.6-30.6s-13.7-30.6-30.6-30.6c-14.4.1-26.2 9.9-29.7 23.1zM388 278.5c-14.3 0-26.1 9.8-29.5 23h-20c-3.4-13.2-15.3-23-29.5-23-14.3 0-26.1 9.8-29.5 23h-20c-3.4-13.2-15.3-23-29.5-23-16.9 0-30.6 13.7-30.6 30.6s13.7 30.6 30.6 30.6c14.3 0 26.1-9.8 29.5-23h20c2.8 10.7 11.2 19.1 21.9 21.9v20c-13.2 3.4-23 15.3-23 29.5 0 16.9 13.7 30.6 30.6 30.6 16.9 0 30.6-13.7 30.6-30.6 0-14.3-9.8-26.1-23-29.5v-20c10.7-2.8 19.1-11.2 21.9-21.9h20c3.4 13.2 15.3 23 29.5 23 16.9 0 30.6-13.7 30.6-30.6S405 278.5 388 278.5z"></path></svg>