<svg id="Layer_1" data-name="Layer 1" xmlns="http://www.w3.org/2000/svg" viewBox="0 0 609.16 598.4">   <path d="M559.53,299.2c30.69-31.79,49.63-75,49.63-122.57C609.16,79.24,529.92,0,432.53,0c-50.32,0-95.75,21.19-127.95,55.06C272.37,21.18,226.95,0,176.63,0,79.24,0,0,79.24,0,176.63c0,47.57,18.94,90.78,49.63,122.57,2.93-3.03,5.96-5.95,9.09-8.77-3.13,2.81-6.16,5.74-9.09,8.77,.32,.33,.68,.63,1,.96C20.47,331.86,1.89,374.67,1.89,421.77c0,97.39,79.24,176.63,176.63,176.63,49.85,0,94.91-20.79,127.06-54.12,32.13,33.31,77.13,54.12,126.95,54.12,97.39,0,176.63-79.24,176.63-176.63,0-47.57-18.94-90.78-49.63-122.57h0Zm-127,249.11c-39,0-73.86-17.79-97.09-45.62,12.57-24.26,19.71-51.77,19.71-80.93,0-47.57-18.94-90.78-49.63-122.57,0,0,0,0,0,0h-95.47c21.2,5.46,40.24,16.31,55.64,30.96,24.23,23.07,39.38,55.59,39.38,91.6,0,69.77-56.77,126.54-126.54,126.54s-126.54-56.77-126.54-126.54c0-36.01,15.15-68.54,39.38-91.6-.38-.22-.74-.47-1.12-.69,15.26-14.29,34.01-24.9,54.86-30.27-21.2-5.46-40.24-16.31-55.64-30.96-24.23-23.07-39.38-55.59-39.38-91.61,0-69.78,56.77-126.55,126.54-126.55,39.65,0,75.07,18.34,98.29,46.97-12.13,23.93-19.02,50.96-19.02,79.58,0,47.57,18.94,90.78,49.63,122.57,0,0,0,0,0,0h95.47c-21.2-5.46-40.24-16.31-55.64-30.96-24.23-23.07-39.38-55.59-39.38-91.6,0-69.77,56.77-126.54,126.54-126.54s126.54,56.77,126.54,126.54c0,36.01-15.15,68.54-39.38,91.6-15.39,14.65-34.44,25.51-55.64,30.96,21.2,5.46,40.24,16.31,55.64,30.96,24.23,23.07,39.38,55.59,39.38,91.61,0,69.78-56.77,126.55-126.54,126.55Z"></path> </svg>