<svg data-name="Layer 1" xmlns="http://www.w3.org/2000/svg" viewBox="0 0 630.27 545.83"><path d="m497.7 445.39-9 4.17v96.27h141.58l-71.8-124.36c3.55-9.8 5.46-20.26 5.46-30.99 0-44.96-32.58-82.37-75.36-90.06L315.13 0 141.69 300.41c-42.77 7.69-75.36 45.11-75.36 90.06 0 10.73 1.91 21.2 5.46 30.99L0 545.83h141.58v-96.27l-9-4.17c-21.38-9.89-35.2-31.45-35.2-54.92 0-33.39 27.16-60.55 60.55-60.55s60.55 27.16 60.55 60.55c0 23.47-13.82 45.02-35.2 54.92l-9 4.17v96.27H298.8v-96.27l-9-4.17c-21.38-9.89-35.2-31.45-35.2-54.92 0-33.39 27.16-60.55 60.55-60.55s60.55 27.16 60.55 60.55c0 23.47-13.81 45.02-35.2 54.92l-9 4.17v96.27h124.52v-96.27l-9-4.17c-21.38-9.89-35.2-31.45-35.2-54.92 0-33.39 27.16-60.55 60.55-60.55s60.55 27.16 60.55 60.55c0 23.47-13.81 45.02-35.2 54.92Zm-387.16 23.38v46.02H53.76l36.33-62.93a91.305 91.305 0 0 0 20.45 16.9Zm157.21 0v46.02h-62.44v-46.02c12.96-7.86 23.62-18.74 31.22-31.47 7.6 12.72 18.26 23.61 31.22 31.47Zm157.21 0v46.02h-62.44v-46.02c12.96-7.86 23.62-18.74 31.22-31.47 7.6 12.72 18.26 23.61 31.22 31.47Zm-31.22-125.26c-16.02-26.71-45.26-44.63-78.61-44.63s-62.59 17.92-78.61 44.63c-12.84-21.41-34.18-37.14-59.31-42.55L315.13 62.07l137.92 238.88c-25.13 5.41-46.48 21.15-59.31 42.55Zm125.99 125.26a91.8 91.8 0 0 0 20.45-16.9l36.33 62.93h-56.78v-46.02Z"></path></svg>