<svg xmlns="http://www.w3.org/2000/svg" width="642" viewBox="0 0 642 621.5" height="621.5" style="overflow:visible;enable-background:new 0 0 642 621.5" xml:space="preserve"><path d="m321 348.3-74.1 57.9c-28.2 22-46.3 56.3-46.3 94.9 0 66.5 53.9 120.4 120.4 120.4s120.4-53.9 120.4-120.4c0-38.5-18.1-72.8-46.3-94.9L321 348.3zM376.3 306.8l32.2 88.4c12.3 33.6 39.3 61.4 75.9 73.3 63.2 20.5 131.1-14.1 151.7-77.3S622 260.1 558.8 239.6c-36.6-11.9-74.9-5.3-104.5 14.7l-78 52.5zM353.8 240.7h94.9c35.7-1.3 70.5-18.4 93.2-49.6 39.1-53.7 27.2-129-26.6-168.1s-129-27.2-168.1 26.6c-22.6 31.2-28.2 69.6-18.3 103.9l24.9 87.2zM265.7 306.8l-32.2 88.4c-12.3 33.6-39.3 61.4-75.9 73.3-63.2 20.6-131.1-14-151.7-77.3S20 260.1 83.2 239.6c36.6-11.9 74.9-5.3 104.5 14.7l78 52.5zM288.2 240.7h-94.9c-35.7-1.3-70.5-18.4-93.2-49.6C61 137.4 72.9 62.1 126.7 23s129-27.2 168.1 26.6c22.6 31.2 28.2 69.6 18.3 103.9l-24.9 87.2z"></path></svg>