<svg id="Layer_1" data-name="Layer 1" xmlns="http://www.w3.org/2000/svg" viewBox="0 0 607.75 488.7">   <path d="M10.9,454.88c.19-.07,.37-.13,.56-.19v-.03c-.2,.07-.38,.14-.56,.22Z"></path>   <path d="M33.97,477.47c.03-.08,.07-.17,.1-.25h-.02c-.03,.08-.05,.17-.08,.25Z"></path>   <path d="M440.53,0H220.72l35.15,35.14h170.1l146.64,146.64V453.55h-238.12s0-286.33,0-286.33L167.25,0,0,167.25,.24,488.4c63.04-.03,190.82-.04,263.84,.29l.18-35.14-228.67-.44-.38-271.35L167.25,49.7l132.08,132.08V488.69s308.41,0,308.41,0V167.22L440.53,0ZM10.9,454.88c.18-.07,.37-.15,.55-.22v.03c-.18,.06-.37,.12-.55,.19Zm23.07,22.59c.03-.09,.05-.17,.08-.26h.02c-.03,.09-.06,.18-.1,.26Z"></path> </svg>