<svg xmlns="http://www.w3.org/2000/svg" width="591.45" viewBox="0 0 591.45 600" height="600" style="overflow:visible;enable-background:new 0 0 591.45 600" xml:space="preserve"><path d="M583.54 230.89c-12.35-52.16-36.84-97.88-73.49-137.04-21.68-23.17-46.47-42.42-74.27-57.71C397.65 15.17 356.81 3.3 313.36.57c-24.2-1.52-48.23 0-72.09 4.5-42.47 8.02-81.3 24.51-116.31 49.76-42.32 30.52-74.53 69.59-96.75 116.75C7.96 214.59-.87 260.09.07 307.53c.15 7.63.77 15.26 1.52 22.86 2.2 22.08 7.02 43.61 13.85 64.73 14.59 45.1 38.79 84.38 72.07 117.99 23.79 24.02 51.03 43.32 81.6 57.95 27.57 13.2 56.5 21.86 86.71 26.13 29.31 4.13 58.66 3.72 87.89-1.16 35.12-5.86 68.12-17.81 98.78-35.83 53.81-31.63 93.4-76.41 120.32-132.44 19.62-40.83 28.86-84.12 28.64-133.14-.19-19.83-2.51-40.93-7.91-63.73zM312.17 557.47c-93.08 5.58-166.94-32.31-223.52-106.15 7.08-5.01 14.33-7.65 22.26-8.62 20.07-2.44 38.74 1.68 56.93 10.49 27.71 13.42 55.9 12.8 83.44-.6 29.44-14.33 58.49-14.86 88.1-.56 28.37 13.69 56.99 13.35 85.35-.49 16.21-7.93 33.21-11.57 51.31-10.34 8.06.55 15.42 2.79 22.41 6.62.69.37 1.35.82 2.01 1.27.57.38 1.11.8 2.1 1.54-47.93 63.95-110.59 102.06-190.39 106.84zM525.3 412.1c-4.29-1.71-7.9-2.84-11.21-4.52-30.36-15.4-60.66-14.72-91.15-.22-27.54 13.1-55.37 13.17-82.84-.02-29.54-14.18-58.89-14.28-88.28-.09-15.33 7.4-31.35 10.97-48.34 10.04-13.02-.71-25.37-4.03-37.08-9.84-28.04-13.87-56.31-14.03-84.78-1.29-4.16 1.86-8.31 3.75-12.57 5.36-.9.34-2.43.98-2.43.98-5-10.79-9.35-21.45-13.84-33.52 2.34-.63 15.47-2.85 31.2-11.11 25.47-10.79 50.88-11.15 76.32-.22 10.79 4.63 21.46 9.51 33.25 11.23 19.69 2.88 38.69.8 56.69-7.83 12.78-6.13 26-10.63 40.2-11.26 13.76-.62 27.28 1.12 40.16 6.48 11.98 4.99 23.72 10.53 36.84 12.33 18.09 2.48 35.35.1 52.16-6.83 8.82-3.63 17.58-7.83 26.8-10.05 22-5.27 43.34-2.61 63.95 7.15 13.77 7.29 26.33 9.09 28.06 9.46-4.47 13.08-8.59 22.51-13.11 33.77zm24.72-96.31-.01.2c-.01.05-.01.11-.01.16 0 .06-.01.11-.01.17l-.22 3.18c-2.14-.01-3.8-.2-3.8-.2-12.85-1.22-24.94-4.81-36.5-10.58-14.57-7.26-30.14-10.43-46.39-9.56-12.26.65-24.17 3.22-35.32 8.62-14.01 6.8-28.65 11.16-44.33 11.52-16.68.37-32.16-4.11-47.13-11.2-28.02-13.29-56.08-12.35-83.79.94-17.33 8.32-35.4 11.75-54.48 9.67-10.73-1.16-21.01-4.14-30.65-9.05-15.9-8.1-32.71-11.95-50.55-10.93-14.22.82-27.49 5.26-40.24 11.35-10.09 4.82-20.79 7.36-31.81 8.77-.78.11-2 .31-3.47.36-.06-9.56-.38-19.11-.13-28.3.54-19.78 3.26-39.29 8.44-58.4 15.66-57.7 47.34-104.65 95.01-140.73 32.33-24.46 68.59-40.03 108.52-46.88 37.91-6.51 75.36-4.37 112.29 6.59 50.09 14.87 91.92 42.44 125.35 82.4 29.98 35.83 48.46 77.17 56.14 123.27 3.24 19.43 4.3 38.98 3.09 58.63z"></path><path d="M212.28 112.12c.45-.2 2.05-.99 2.05-.99-21.62.12-45.46.24-67.88.36 1.65.78 2.64 1.24 3.61 1.7 7.75 3.68 12.69 9.61 12.72 18.33.07 41.06-.11 82.12-.24 123.18-.03 9.7-4.47 16.74-13.23 21.01-.71.35-1.37.82-2.05 1.23-.14.11-.21.18-.21.18 21.48-.11 43.38.12 65.86 0a57.174 57.174 0 0 1-6.17-3.37c-6.26-3.91-9.52-9.69-10.15-16.92-.29-3.29-.27-6.61-.27-9.92.04-35.36.35-70.71.05-106.06-.12-12.95.14-22.65 15.91-28.73zM443.04 113.2c.98-.46 1.97-.92 3.61-1.7-22.41-.12-46.25-.24-67.88-.36 0 0 1.6.79 2.05.99 15.77 6.07 16.02 15.78 15.91 28.73-.3 35.35.01 70.7.06 106.06 0 3.31.01 6.62-.27 9.92-.63 7.24-3.89 13.01-10.15 16.92-1.71 1.07-3.39 2.05-6.17 3.37 22.48.12 44.38-.11 65.86 0 0 0-.07-.07-.21-.18-.68-.41-1.34-.88-2.05-1.23-8.76-4.27-13.2-11.31-13.23-21.01-.13-41.06-.31-82.12-.24-123.18.02-8.72 4.96-14.65 12.71-18.33zM369.38 253.44h-.01c.05-7.26-.02-14.53-.03-21.8-.01-1.77-.02-3.52-.03-5.97-1.04.87-1.55 1.12-1.82 1.54-13.43 20.07-32.26 29.73-56.34 28.48-18.75-.98-34.12-8.83-44.57-24.74-9.87-15.01-12.02-31.69-9.15-49.2 4.78-28.98 27.77-46.62 55.72-46.49 20.3.09 36.7 8.9 48.26 25.95 1.67 2.46 3.34 4.91 5 7.37.2.26.42.67.6 1.01-.1-18.57-.19-38.38-.29-57.29-4.69 3.4-9.61 5.08-14.81 4.34-6.27-.91-12.55-2.19-18.64-3.99-23.69-6.98-46.85-6.18-68.56 6.03-38.03 21.37-53.82 62.76-40.06 105.49 8.35 25.92 26.14 43.74 52.07 52.85 14.56 5.13 29.61 5.98 44.88 4.3 6.8-.76 13.36-2.12 19.67-4.15l-.02.02s2.89-.82 7.23-2.68c.01 0 .03-.01.04-.02.68-.29 1.41-.6 2.15-.94.57-.26 1.14-.54 1.71-.81.08-.03.15-.08.23-.11.94-.46 1.89-.94 2.83-1.45.11-.05.22-.11.33-.18.55-.3 1.1-.59 1.65-.9.6-.35 1.22-.7 1.83-1.08.12-.07.23-.13.35-.21 2.49-1.5 5.06-3.24 7.6-5.22.8-.64 1.56-1.23 2.27-1.79l-.11-7.8v-.56z"></path></svg>