<svg xmlns="http://www.w3.org/2000/svg" width="436.6" viewBox="0 0 436.6 642" height="642" style="overflow:visible;enable-background:new 0 0 436.6 642" xml:space="preserve"><path d="M436.6 214c0-118-97.8-214-218.2-214S.3 96 .3 214H0v24.7h218.4c13.9 0 25.1-11 25.1-24.7 0-13.5-11.2-24.6-25.1-24.6-13.9 0-25.1 11-25.1 24.6h-23.2c0-26.1 21.6-47.3 48.3-47.3 26.6 0 48.3 21.2 48.3 47.3 0 26.2-21.6 47.4-48.3 47.4H0V286h218.4c40.4 0 73.4-32.3 73.4-72s-32.9-72-73.4-72c-40.4 0-73.4 32.3-73.4 72h-23.1c0-52.2 43.3-94.7 96.5-94.7S315 161.8 315 214c0 52.3-43.3 94.7-96.6 94.7H0v24.7h218.4c53.1.1 96.2 42.5 96.2 94.7s-43.3 94.7-96.5 94.7-96.6-42.5-96.6-94.7h23.2c0 39.7 32.9 72 73.4 72 40.4 0 73.4-32.3 73.4-72s-32.9-72-73.4-72H0v24.6h218.2c26.6 0 48.3 21.2 48.3 47.4 0 26.1-21.6 47.3-48.3 47.3-26.6 0-48.3-21.2-48.3-47.3H193c0 13.5 11.2 24.6 25.1 24.6 13.9 0 25.1-11 25.1-24.6 0-13.6-11.2-24.7-25.1-24.7H0V428c0 118 97.8 214 218.2 214s218.2-96 218.2-214c0-38.9-10.6-75.4-29.1-106.8 18.5-31.5 29.3-68.2 29.3-107.2zm-340 214c0 65.7 54.5 119.3 121.6 119.3S339.8 493.8 339.8 428c0-46.8-27.5-87.4-67.6-107 40.1-19.5 67.8-60.2 67.8-107 0-65.7-54.5-119.3-121.6-119.3S96.8 148.2 96.8 214H73.6c0-78.3 64.9-142 144.8-142s144.8 63.7 144.8 142c0 33.8-12.1 65-32.4 89.4-5.3 6.4-11.1 12.3-17.5 17.7 6.3 5.4 12.1 11.3 17.4 17.7 20.1 24.4 32.2 55.4 32.2 89.2 0 78.3-64.9 142-144.8 142S73.4 506.3 73.4 428h23.2zm314.6 0c0 104.4-86.6 189.4-193 189.4s-193-85-193-189.4h23.2c0 91.9 76.2 166.7 169.9 166.7S388.2 519.9 388.2 428c0-40.6-14.9-77.9-39.6-106.9 24.8-29 39.9-66.4 39.9-107.1 0-91.9-76.2-166.7-169.9-166.7S48.7 122.1 48.7 214H25.4c0-104.4 86.6-189.4 193-189.4s193 85 193 189.4c0 30.2-7.2 58.7-20.1 84-4 8.1-8.7 15.8-13.9 23.2 5.2 7.3 9.8 15.1 13.9 23.2 12.8 25.2 19.9 53.6 19.9 83.6z"></path></svg>