<svg xmlns="http://www.w3.org/2000/svg" id="a" width="642" viewBox="0 0 642 380.38" height="380.38" data-name="Layer 1"><defs></defs><path d="M593.08 0h-96.04v75.63c0 4.49 2.18 8.47 5.52 10.91.06 0 .06 60.28.06 60.28h11.49v142.84h48.02v90.66h30.94c27.03 0 48.92-21.9 48.92-48.93V48.92C641.99 21.89 620.1 0 593.07 0ZM405.04 146.83h11.49V74.35c3.34-1.93 5.59-5.52 5.59-9.69V0h-52.13c-19.82 0-36.85 11.71-44.57 28.58a4.801 4.801 0 0 1-8.82 0C308.88 11.71 291.86 0 272.09 0H48.98C21.89 0 0 21.89 0 48.92V331.4c0 27.03 21.89 48.98 48.92 48.98l223.16-.06c19.77 0 36.79-11.71 44.51-28.57a4.81 4.81 0 0 1 8.83 0c7.72 16.89 24.74 28.64 44.51 28.64h35.12V146.83Zm-174.4 142.84H91.48v-56.18h139.15v56.18ZM321 146.83H91.48V90.65H321v56.18ZM431.75 0v64.65c0 4.17 2.25 7.77 5.59 9.69v72.48h44.43l.06-60.28c3.4-2.44 5.59-6.42 5.59-10.91V0h-55.66Z" class="b"></path></svg>