<svg data-name="Layer 1" xmlns="http://www.w3.org/2000/svg" viewBox="0 0 601.47 601.47"><path d="M194.32 201.89v197.68l-42.24 42.24-1.02 1.02-6.84 6.84C64.27 447.14 0 381.3 0 300.73s64.27-146.4 144.22-148.94l50.1 50.1ZM449.68 144.21l-50.09 50.1H201.88l-50.09-50.09C154.33 64.26 220.16 0 300.73 0s146.41 64.25 148.95 144.21ZM601.47 300.73c0 80.57-64.27 146.4-144.23 148.94l-50.09-50.09v-197.7l50.09-50.09c79.96 2.54 144.23 68.37 144.23 148.94ZM449.68 457.25c-2.54 79.95-68.38 144.21-148.95 144.21s-146.4-64.27-148.94-144.22l50.09-50.09h197.71l50.09 50.1Z"></path></svg>