<svg data-name="Layer 1" xmlns="http://www.w3.org/2000/svg" viewBox="0 0 548.86 629.44"><path d="m548.86 122.37-48.4 8.85V70.68l-62.92 28.13V14.75l-72.58 68.68V0l-90.53 162.54L183.91 0v83.43l-72.59-68.68v84.06L48.4 70.68v60.54L0 122.37v384.71l48.4-8.85v60.54l62.92-28.13v84.05l72.58-68.68v83.43l90.53-162.54 90.53 162.54v-83.43l72.58 68.68v-84.05l62.92 28.13v-60.54l48.4 8.85V122.37Zm-67.73-21.85v34.22l-43.55 7.95v-22.7l43.55-19.47Zm-350.43 65.4 53.21 9.71v278.14l-53.21 9.71V165.92ZM111.33 467.1l-43.55 7.95v-320.6l43.55 7.95v304.7Zm253.68-314.61 53.21-23.8v17.61l-53.21 9.71v-3.52Zm-100.23 37.98v248.59l-61.49 11.23v-271.1l61.49 11.23v.05Zm19.37 248.59V190.47l61.49-11.23v271.1l-61.49-11.23v-.05Zm38.31-288.71 23.23-21.94v11.57l-23.23 10.38Zm-119.18-10.38V128.4l23.23 21.94-23.23-10.38Zm-19.37 16.04-53.21-9.71v-17.61l53.21 23.8v3.52Zm0 317.51v3.52l-53.21 23.8v-17.61l53.21-9.71Zm42.55 5.66-23.23 21.94v-11.57l23.23-10.38Zm119.18 10.38v11.57l-23.23-21.94 23.23 10.38Zm19.37-16.04 53.21 9.71v17.61l-53.21-23.8v-3.52Zm0-19.66V175.72l53.21-9.71v297.61l-53.21-9.71v-.05Zm72.58-291.42 43.55-7.95v320.6l-43.55-7.95v-304.7ZM418.22 59.73v47.79l-53.21 23.8v-21.23l53.21-50.36Zm-72.58 42.03-32.08 30.37 32.08-57.59v27.22ZM203.28 74.54l32.08 57.59-32.08-30.37V74.54Zm-72.58-14.8 53.21 50.36v21.23l-53.21-23.8v-47.8Zm-62.92 40.84 43.55 19.47v22.7l-43.55-7.95v-34.22ZM19.37 483.94V145.59l29.03 5.28v327.7l-29.03 5.33v.05Zm48.4 45.07v-34.22l43.55-7.95v22.7l-43.55 19.47Zm62.92 40.84v-47.79l53.21-23.8v21.23l-53.21 50.36Zm72.58-42.03 32.08-30.37-32.08 57.59v-27.22Zm142.36 27.22-32.08-57.59 32.08 30.37v27.22Zm72.58 14.8L365 519.48v-21.23l53.21 23.8v47.79ZM481.13 529l-43.55-19.47v-22.7l43.55 7.95V529Zm48.4-45.07-29.03-5.33V150.88l29.03-5.28v338.34Z"></path></svg>