<svg data-name="Layer 1" xmlns="http://www.w3.org/2000/svg" viewBox="0 0 610.36 605.23"><path d="M610.36 475.7 482.71 0l-23.05 6.19 118.05 439.92-21.61-19.59L444.4 10.28l-23.05 6.19 102.09 380.46-21.61-19.59L406.1 20.56l-23.05 6.19 86.14 320.99-21.61-19.59-79.79-297.31-23.05 6.19 70.18 261.53-21.61-19.59-63.83-237.85-23.05 6.19 54.22 202.07L176.27 82.23l-23.05 6.19 6.35 23.68-21.61-19.59-23.05 6.19 6.35 23.68-21.61-19.59-23.05 6.19 6.35 23.68-21.61-19.59-23.05 6.19 6.35 23.68-21.61-19.59L0 129.53l127.65 475.7 23.05-6.19L32.65 159.13l21.61 19.59 111.69 416.24 23.05-6.19L86.91 208.31l21.61 19.59 95.74 356.78 23.05-6.19-86.13-320.99 21.61 19.59 79.78 297.31 23.05-6.19-70.18-261.53 21.61 19.59 63.83 237.85 23.05-6.19-54.22-202.07L434.1 523l23.05-6.19-6.35-23.68 21.61 19.59 23.05-6.19-6.35-23.68 21.61 19.59 23.05-6.19-6.35-23.68 21.61 19.59 23.05-6.19-6.35-23.68 21.61 19.59 23.05-6.19Zm-131.57-92.18 6.35 23.68-21.61-19.59-6.35-23.68 21.61 19.59Zm-54.26-49.18 6.35 23.68-21.61-19.59-6.35-23.68 21.61 19.59Zm-206.74-97.4 184.39 167.14 6.35 23.68-184.39-167.14-6.35-23.68Zm-26.3-5.92-21.61-19.59-6.35-23.68 21.61 19.59 6.35 23.68Zm16.7-29.86-6.35-23.68 184.39 167.14 6.35 23.68-184.4-167.14Zm210.69 173.06 21.61 19.59 6.35 23.68-21.61-19.59-6.35-23.68ZM185.87 118.01l184.39 167.14 6.35 23.68-184.38-167.14-6.35-23.68Zm-38.31 10.28 21.61 19.59 6.35 23.68-21.61-19.59-6.35-23.68Zm-38.3 10.28 21.61 19.59 6.35 23.68-21.61-19.59-6.35-23.68Zm-31.95 33.96-6.35-23.68 21.61 19.59 6.35 23.68-21.61-19.59Zm54.26 49.18-6.35-23.68 21.61 19.59 6.35 23.68-21.61-19.59Zm54.26 49.18-6.35-23.68 21.61 19.59 6.35 23.68-21.61-19.59Zm238.65 216.32L240.09 320.07l-6.35-23.68 184.39 167.14 6.35 23.68Zm38.3-10.28-21.61-19.59-6.35-23.68 21.61 19.59 6.35 23.68Zm38.3-10.28-21.61-19.59-6.35-23.68 21.61 19.59 6.35 23.68Zm38.3-10.28-21.61-19.59-6.35-23.68 21.61 19.59 6.35 23.68Z"></path></svg>