<svg data-name="Layer 1" xmlns="http://www.w3.org/2000/svg" viewBox="0 0 621.26 621.79"><path d="M0 0v137.97L149.78 0H0zM0 137.97v140.51h149.78L0 137.97zM278.48 279.01V.53L128.7 138.5l149.78 140.51zM0 338.5v137.97L149.78 338.5H0zM0 616.98h149.78L0 476.47v140.51zM278.48 617.51V339.03L128.7 477l149.78 140.51zM337.97.53V138.5L487.75.53H337.97zM337.97 138.5v140.51h149.78L337.97 138.5zM616.45 279.01V.53L466.67 138.5l149.78 140.51z"></path><circle cx="477.21" cy="477.74" r="144.05" transform="rotate(-45 477.217 477.74)"></circle></svg>