<svg xmlns="http://www.w3.org/2000/svg" width="598.9" viewBox="0 0 598.9 598.9" height="598.9" xml:space="preserve"><path d="M344.3 330.5H0V354h336.5c2.6-7.8 5.2-15.6 7.8-23.5zM354.1 300.1H0v23.5h346.6c2.6-7.8 5.1-15.6 7.5-23.5zM367.5 249c.6-3.1 1.3-6.4 2-9.8H0v23.5h364.5c1.1-4.5 2.1-9.1 3-13.7zM362.8 269.7H0v23.5h356.2c2.4-7.8 4.6-15.6 6.6-23.5zM324.9 391.4H0V415h318.8c1.8-8 3.9-15.8 6.1-23.6zM334.3 361H0v23.5h326.9c2.4-7.9 4.8-15.7 7.4-23.5zM317.2 421.9H0v23.5h314.8c0-7.8.8-15.8 2.4-23.5zM315.1 452.3H0v23.5h319.5c-2.5-7.4-3.9-15.4-4.4-23.5zM375.1 208.8H0v23.5h371c1.4-7.5 2.9-15.5 4.1-23.5zM376.7 164.5c-.8-5.7-1.7-11.3-2.7-16.6H0v23.5h377.4c-.2-2.4-.4-4.7-.7-6.9zM397.2 521.8c-5 1.3-10.1 1.9-15.2 1.9-5.2 0-10.3-.6-15.3-1.9-7.4-1.9-13.9-4.9-19.7-8.6H0v23.5h598.9v-23.5H416.8c-5.7 3.7-12.2 6.6-19.6 8.6zM305.8 26.1H0v23.5h330.2c-8-9.5-16.3-17.2-24.4-23.5zM0 543.6h598.9v23.5H0zM546.9 0c-26.9 0-48.3.8-72.5 15-2.2 1.3-4.4 2.7-6.7 4.2h131.2V0h-52zM366.4 117.4H0V141h372.6a269 269 0 0 0-6.2-23.6zM322 482.8H0v23.5h338.2c-7-6.6-12.4-14.6-16.2-23.5zM354.3 87H0v23.5h364.1c-3-8.4-6.3-16.3-9.8-23.5zM377.6 178.3H0v23.5h376c1-8 1.6-15.9 1.6-23.5zM335.7 56.5H0V80h350.7c-4.7-8.7-9.7-16.5-15-23.5zM387.2 164.5c-.3 2.3-.5 4.6-.7 6.9h212.4v-23.5h-209c-1 5.3-1.9 10.8-2.7 16.6zM391.3 141h207.6v-23.5H397.5c-2.3 7.3-4.4 15.1-6.2 23.5zM399.8 110.5h199.1V87H409.6c-3.5 7.2-6.8 15.1-9.8 23.5zM387.9 201.9h211v-23.5H386.3c0 7.5.6 15.4 1.6 23.5zM413.2 80.1H599V56.5H428.2c-5.2 7-10.3 14.8-15 23.6zM289.5 15C265.3.8 243.9 0 217 0H0v19.2h296.2c-2.3-1.5-4.5-2.9-6.7-4.2zM392.9 232.3h206v-23.5H388.8c1.2 8 2.7 16 4.1 23.5zM0 598.9h598.9v-24.8H0zM433.7 49.6h165.2V26.1H458.1c-8.1 6.3-16.4 14-24.4 23.5zM417.3 323.6h181.6v-23.5H409.8c2.4 7.9 4.9 15.7 7.5 23.5zM445.2 415H599v-23.5H439c2.2 7.7 4.3 15.5 6.2 23.5zM437 384.5h161.9V361H429.7c2.5 7.8 4.9 15.6 7.3 23.5zM449.1 445.4H599v-23.5H446.7c1.6 7.7 2.4 15.7 2.4 23.5zM444.5 475.9H599v-23.5H448.8c-.5 8-1.9 16-4.3 23.5zM396.4 249c.9 4.6 2 9.2 3.1 13.7H599v-23.5H394.3c.7 3.4 1.4 6.7 2.1 9.8zM407.7 293.2H599v-23.5H401.1c2 7.9 4.2 15.7 6.6 23.5zM427.4 354.1h171.5v-23.5H419.6c2.6 7.8 5.2 15.6 7.8 23.5zM425.7 506.3h173.2v-23.5h-157c-3.8 8.9-9.2 16.9-16.2 23.5z"></path></svg>