<svg data-name="Layer 1" xmlns="http://www.w3.org/2000/svg" viewBox="0 0 628.37 573.96"><path d="M0 324.24c.85 26.77 5.05 52.69 12.19 77.36l237.79-78.01L0 324.24ZM18.67 421.43c9.02 24.82 21.09 48.17 35.74 69.63l201.88-147.59-237.62 77.96ZM66.75 507.89c16.16 20.59 34.81 39.13 55.53 55.13l146.34-202.71L66.75 507.89ZM575.86 488.23c14.27-21.39 25.98-44.62 34.7-69.27l-235.48-75.82 200.78 145.09ZM509.25 560.49c20.34-16.13 38.64-34.71 54.45-55.31L362.86 360.05l146.39 200.44ZM208.04 18.16c-24.66 8.85-47.91 20.65-69.27 35.05l146.43 200.5-77.16-235.55ZM490.07 53.54c-21.23-14.36-44.32-26.18-68.82-35.06l-75.57 235.07L490.07 53.54ZM561.57 120.3c-15.93-20.31-34.29-38.6-54.67-54.44l-144.31 199.9L561.57 120.3ZM609.31 205.7c-8.98-24.44-20.92-47.44-35.37-68.61L374.91 282.6l234.4-76.9ZM121.9 65.5c-20.57 15.94-39.1 34.36-55.15 54.84l201.6 145.68L121.9 65.5ZM381.35 323.24l235.5 75.82c6.84-24.42 10.82-50.03 11.52-76.47l-247.02.64ZM54.37 137.14c-14.59 21.38-26.62 44.64-35.63 69.36l237.38 76.43L54.37 137.14ZM628.19 301.73c-1.02-26.37-5.29-51.89-12.42-76.2l-234.22 76.84 246.64-.64ZM12.34 226.35C5.21 250.92 1 276.72.11 303.37l249.43-.65-237.2-76.37ZM261.46 573.45c33.59.1 74.17.22 108.04.32l-54.13-74.1-53.9 73.78Z"></path><path d="M140.1 573.96s70.96-.66 95.58-.59l79.68-109.07 80.02 109.54c6.01.02 11.63.03 16.63.05l81.24.07-177.87-242.49-175.29 242.5ZM325.82.07v247.1L401.39 12.1C377.26 5.15 351.95 1.03 325.82.07ZM304.96 247.17V0c-26.37.83-52.7 4.89-77.04 11.83l76.93 234.85.11.49Z"></path></svg>