<svg data-name="Layer 1" xmlns="http://www.w3.org/2000/svg" viewBox="0 0 539.74 627.92"><path d="m471.84 432.44-.49-.5H310.09l217.85-236.97V69.61L460.88 0H11.8v127.36h269.31L.44 432.48l-.44.47v125.34l65.67 69.62h474.06V501.54l-67.89-69.1Zm64.57 189.75-64.09-65.24V437.66l64.09 65.24v119.29ZM469 500.56H243.76l-61.59-65.3H469v65.3Zm-286.89-68.62 278.1-302.33 63.77 64.75-218.41 237.58H182.1ZM17.48 3.32h441.03V72.8H86.96L17.48 3.32Zm507.14 186.94-62.79-63.75V5.78l62.79 65.17v119.31Zm-509.5-66.23V5.67l69.49 69.48v48.88H15.12Zm72.81-47.91h370.58v50.42L177.09 432.48l-1.05 1.14 66.28 70.27h226.67v52.08H68.05v-53.09L351.9 194.31l-65.79-69.75-.49-.52H87.93V76.13ZM3.32 437.79l61.4 65.1v53.08H3.32V437.79Zm344.03-243.46L66.37 499.79l-62.44-66.2 280.99-305.45 62.44 66.2ZM5.52 559.3h464.44l64.15 65.3h-467L5.52 559.3Z"></path></svg>