<svg id="Layer_1" data-name="Layer 1" xmlns="http://www.w3.org/2000/svg" viewBox="0 0 584.57 583.2">   <path d="M137.62,258.45h.08c70.99,0,133.85-46.74,154.58-114.29,16.96,56.39,63.54,98.53,122.65,110.53,58.7,11.96,117.54-8.56,155.13-53.37-6.23-19.03-14.36-37.17-24.16-54.26-79.26,43.12-189.02,27.44-251.85-36.72l-.26-.28c-.14-.16-.28-.33-.43-.49l-.85-1.09-.2,.2-.09-.09-1.68,1.74c-62.77,64.25-172.55,79.92-251.87,36.73-9.77,17.03-17.88,35.11-24.1,54.07,30.91,36.38,75.35,57.32,123.05,57.32Z"></path>   <path d="M219.03,95.43c35.76-19.74,62.77-54.56,73.23-93.65,7.67,28.57,23.91,54.92,46.26,74.51,26.76,24.79,63.79,37.75,100.67,37.75,24.46,0,48.76-5.86,70.04-17.6C455.75,37.23,378.37,0,292.29,0S128.83,37.22,75.34,96.44c21.06,11.64,45.88,17.62,70.78,17.62s51.43-6.22,72.9-18.63Z"></path>   <path d="M583.62,269.82c-82.39,70.23-214.57,64.72-290.34-12.81l-1-1.02-1,1.02c-36.25,37.1-88.84,59.56-144.28,61.63-54.43,1.88-107.32-15.82-146.06-48.82-.56,7.42-.95,14.9-.95,22.47,0,13.83,1.03,27.41,2.89,40.72,30.3,45.17,80.3,71.65,135.28,71.65,4.98,0,9.99-.22,15.05-.65,63.67-5.54,116.61-45.11,139.07-103.61,22.46,58.51,75.42,98.08,139.08,103.61,60.86,5.23,117.29-21.78,150.33-71.06,1.85-13.3,2.88-26.86,2.88-40.66,0-7.57-.38-15.04-.95-22.46Z"></path>   <path d="M41.93,442.89c46.24,77.65,127.78,131.78,222.5,140.3v-154.64c-34.57,24.94-76.89,39.79-122.77,39.79-36.16,0-70.02-9.37-99.72-25.46Z"></path>   <path d="M320.18,428.56v154.64c94.71-8.53,176.24-62.65,222.48-140.3-29.7,16.09-63.56,25.45-99.71,25.45-45.88,0-88.2-14.86-122.77-39.79Z"></path> </svg>