<svg xmlns="http://www.w3.org/2000/svg" width="642" viewBox="0 0 642 255.1" height="255.1" data-name="Layer 1"><path d="M511.12 178.46H642v20.06H500.76c-46.34-.02-85.27-34.35-113.69-38.57-13.71-2.04-26.62 3.12-38.18 6-29.1 9.52-65.88-25.97-95.62-18.13-29.74 7.84-64.36 50.7-137.72 50.7H0v-20.06h121.98c30.49 0 64.42-15.07 89.35-31.29 26.57-17.28 41.32-25.79 67.14-19.06 30.13 7.86 49.31 23.41 69.1 16.96 12.63-4.12 25.91-8.53 40.97-6.54 29.12 3.86 65.45 39.93 122.59 39.93"></path><path d="M507.18 226.81c-60.99 0-121.98-29.81-178.16-29.81s-142.84 29.81-213.47 29.81H0v-20.06h117.16c85.07 0 139.63-30.62 210.26-30.62s120.38 30.62 166.92 30.62H642v20.06H507.18ZM0 235.03h642v20.06H0zM518.42 121.94c-47.29-3.75-95.57-73.31-130.5-105.71-22.62-24.14-43.71-19.57-65.52 1.95-9.66 8.64-18.83 18.41-28.86 22.29-9.86 3.82-19.34-1.97-30-6.26-19.2-8.31-29.3-5.59-47.49 13.34-27.78 26.78-67.89 74.38-100.48 74.38L.01 121.87v20.06h119.57c37.51 0 96.65-67.11 114.65-85.11 16.81-16.81 26.52 5.03 55.37 5.03 13.45 0 25.17-8.4 49.39-31.01 11.79-11 19-18.85 39.8 4.99 32.97 34.46 89.49 106.57 141.24 106.09h121.98v-20.06"></path><path d="M127.12 150.17c26.74 0 53.39-21.87 71.09-39.12 23.25-22.64 27.68-20.95 53.28-16.41 10.55 1.87 11.87-.52 37.77-14.01 67.46-35.14 149.42 69.25 225.95 69.54h126.8v20.06H505.59c-55.35-1.59-130.66-68.89-176.06-76.04-16.72-2.94-28.36 2.37-45.63 12.05s-29.35 11.28-45.85 6.3c-12.09-3.65-15.99 1.74-37.02 22.77-12.73 12.73-43.46 34.92-74.7 34.92H0v-20.06h127.12Z"></path></svg>