<svg data-name="Layer 1" xmlns="http://www.w3.org/2000/svg" viewBox="0 0 473.56 591.39"><circle cx="71.7" cy="117.57" r="64.97" transform="rotate(-45 71.708 117.568)"></circle><circle cx="228.23" cy="117.57" r="64.97" transform="rotate(-13.28 228.267 117.6)"></circle><circle cx="384.75" cy="117.57" r="64.97"></circle><path d="M317.03 0H200.18v15.17c55.08 1.79 99.22 46.89 99.22 102.4s-44.14 100.62-99.22 102.4v149.52c0 43.64-25.6 81.32-62.51 99.11 14.61-29.96 22.84-63.59 22.84-99.11V0H43.65v15.17c55.08 1.79 99.22 46.89 99.22 102.4s-44.14 100.62-99.22 102.4v149.52c0 35.73-17.19 67.45-43.65 87.57v129.42c60.45-18.54 110.23-61.71 137.6-117.74v122.64c102.4-21.9 179.43-113.06 179.43-221.89V0Z"></path><path d="M356.7 0v15.17c55.08 1.79 99.22 46.89 99.22 102.4s-44.14 100.62-99.22 102.4v149.52c0 43.57-25.5 81.19-62.31 99.02v122.81c102.26-22 179.16-113.09 179.16-221.83V0H356.7Z"></path></svg>