<svg xmlns="http://www.w3.org/2000/svg" width="600" viewBox="0 0 600 564.92" height="564.92" style="overflow:visible;enable-background:new 0 0 600 564.92" xml:space="preserve"><path d="M238.03 258.85v82.24h219.75s-6.04 20.9-19.85 44.49c-25.47 43.48-74.47 79.86-123.71 90.67-12.12 2.66-25.8 4.37-41.12 4.55-35.72.38-67.69-7.77-98.06-26.69-57.23-35.66-94.73-97.55-94.73-170.31 0-115.03 91.02-202.89 208.28-202.89 105.9 0 199.93 76.8 216.37 175.62V97.07S432.17 1.35 281.18 0l.27.21c-3.37-.14-6.72-.21-10.1-.21C121.49 0 0 126.47 0 282.47c0 156 121.49 282.46 271.35 282.46 109.24 0 203.38-67.21 246.41-164.05v154.57H600v-296.6H238.03z"></path><path d="M279.87 140.21c-24.61 0-44.54 20.22-44.54 45.17v8.09c0 24.94 19.93 45.16 44.54 45.16h7.97c24.61 0 44.55-20.22 44.55-45.16v-8.09c0-24.95-19.94-45.17-44.55-45.17h-7.97z"></path></svg>