<svg data-name="Layer 1" xmlns="http://www.w3.org/2000/svg" viewBox="0 0 624.4 624.4"><path d="M443.13 0h20.14v302.13h-20.14zM402.84 0h20.14v302.13h-20.14zM362.56 0h20.14v302.13h-20.14zM322.27 0h20.14v302.13h-20.14zM281.99 0h20.14v140.72h-20.14zM241.7 0h20.14v140.72H241.7zM201.42 0h20.14v140.72h-20.14zM161.14 0h20.14v140.72h-20.14zM322.27 322.27H624.4v20.14H322.27zM322.27 362.56H624.4v20.14H322.27zM322.27 402.84H624.4v20.14H322.27zM322.27 443.13H624.4v20.14H322.27zM483.41 161.14H624.4v20.14H483.41zM483.41 201.42H624.4v20.14H483.41zM483.41 241.7H624.4v20.14H483.41zM483.41 281.99H624.4v20.14H483.41zM281.99 322.27h20.14V624.4h-20.14zM241.7 322.27h20.14V624.4H241.7zM201.42 322.27h20.14V624.4h-20.14zM161.14 322.27h20.14V624.4h-20.14zM443.13 483.41h20.14V624.4h-20.14zM402.84 483.41h20.14V624.4h-20.14zM362.56 483.41h20.14V624.4h-20.14zM322.27 483.41h20.14V624.4h-20.14zM0 281.99h302.13v20.14H0zM0 241.7h302.13v20.14H0zM0 201.42h302.13v20.14H0zM0 161.14h302.13v20.14H0zM0 443.13h140.99v20.14H0zM0 402.84h140.99v20.14H0zM0 362.56h140.99v20.14H0zM0 322.27h140.99v20.14H0z"></path></svg>