<svg xmlns="http://www.w3.org/2000/svg" id="a" width="471.36" viewBox="0 0 471.36 642" height="642" data-name="Layer 1"><defs></defs><path d="M64.59 350.53c0 33 26.84 59.77 59.77 59.77h.83c-13.48-10.98-22.08-27.67-22.08-46.35 0-13.87 4.75-26.64 12.71-36.79L346.89 31.3H297.9L77.3 313.75c-7.96 10.14-12.71 22.92-12.71 36.79ZM406.77 291.47c0-33-26.84-59.77-59.77-59.77h-.83c13.48 10.98 22.08 27.67 22.08 46.35 0 13.87-4.75 26.64-12.71 36.79L124.47 610.71h48.99l220.61-282.45c7.96-10.14 12.71-22.92 12.71-36.79Z" class="b"></path><path d="M280.75 234.25c16.54-18.97 40.78-31.05 67.92-31.05 33.35 0 62.47 18.1 78.08 45 7.71 13.29 12.12 28.73 12.12 45.2 0 20.93-7.13 40.25-19.13 55.53l-83.15 106.44-37.97 48.6L190.8 642h54.7l107.84-138.03h33.2c22.16 0 40.12-17.96 40.12-40.12v-53.73l21.12-27.03c14.77-18.87 23.56-42.69 23.56-68.57 0-36.43-17.6-68.7-44.68-89.02v-47.34c0-22.16-17.96-40.12-40.12-40.12h-30.62l58.94-75.44h-51.68L143.74 343.41c-4.75 6.1-7.58 13.74-7.58 22.02 0 19.77 16.05 35.82 35.82 35.82 7.96 0 15.34-2.63 21.31-7.06-1.03.19-2.12.32-3.21.32-9.31 0-16.82-7.58-16.82-16.82 0-3.92 1.28-7.58 3.53-10.4l103.94-133.04Z" class="b"></path><path d="M335.19 276.57c0 8.28-2.82 15.92-7.58 22.02L108.17 579.4H56.49l58.94-75.44H84.81c-22.15 0-40.12-17.98-40.12-40.12v-47.38C17.59 396.18 0 363.89 0 327.48c0-25.87 8.8-49.69 23.56-68.57l21.12-27.03v-53.74c0-22.15 17.98-40.12 40.12-40.12h33.19L225.86 0h54.7L172.77 138.03l-38.01 48.6-83.14 106.44c-12.01 15.28-19.13 34.6-19.13 55.53a89.98 89.98 0 0 0 12.13 45.2c15.6 26.9 44.75 45 78.07 45 27.16 0 51.36-12.07 67.92-31.07l103.94-133.02c2.25-2.82 3.53-6.48 3.53-10.4 0-9.24-7.51-16.82-16.82-16.82-1.09 0-2.18.13-3.21.32 5.97-4.43 13.35-7.06 21.31-7.06 19.77 0 35.82 16.05 35.82 35.82Z" class="b"></path></svg>