<svg data-name="Layer 1" xmlns="http://www.w3.org/2000/svg" viewBox="0 0 620.73 621.35"><path d="M620.73 310.36C620.73 139.23 481.49 0 310.36 0S0 139.23 0 310.36c0 140.18 93.44 258.88 221.28 297.27 3.31 1.02 6.66 1.94 10.01 2.85.81.21 1.61.44 2.41.64 25.1 6.6 51.39 10.23 78.56 10.23 47.46 0 92.4-10.73 132.59-29.84-.14-.43-.33-.83-.48-1.25 104.22-50.1 176.35-156.73 176.35-279.9ZM167.98 173.1c5.97 34.35 24.11 64.52 49.99 85.71-14.95-5.33-30.99-8.39-47.77-8.39-20.25 0-39.47 4.29-56.91 11.9 28.31-21.31 48.38-52.87 54.69-89.23Zm.05-49.32c-4.24-24.01-14.52-45.9-29.17-64.15 44.8-30.73 98.17-49.82 155.75-52.77-64 6.04-115.58 54.48-126.58 116.92Zm197.02 155.34c-28.31 21.31-48.38 52.87-54.7 89.23-5.97-34.35-24.11-64.52-49.99-85.71 14.95 5.33 30.99 8.39 47.77 8.39 20.25 0 39.48-4.29 56.92-11.91Zm-54.7 138.21c6.15 35.39 25.29 66.25 52.41 87.52-16.32-6.53-34.09-10.2-52.75-10.2s-35.43 3.48-51.37 9.67c26.76-21.26 45.61-51.91 51.71-87Zm187.93-158.51c-14.95-5.33-30.99-8.39-47.77-8.39-20.25 0-39.48 4.29-56.92 11.91 28.32-21.31 48.38-52.87 54.7-89.23 5.97 34.36 24.11 64.52 49.99 85.71Zm-50.02-134.9C437.1 60.24 383.73 11.18 318.01 6.66c59.47 1.48 114.76 20.05 161.07 51.09-15.53 18.66-26.43 41.27-30.82 66.17Zm140.19 167.11c8.54 0 16.83-.95 24.95-2.41.51 7.19.86 14.43.86 21.75 0 47.75-11.1 92.94-30.81 133.18 6.02-15.77 9.46-32.82 9.46-50.71 0-44.43-20.36-84.09-52.24-110.2 14.95 5.33 30.99 8.39 47.77 8.39Zm-581.2-1.71c6.73 1.01 13.55 1.71 20.56 1.71 20.25 0 39.47-4.29 56.91-11.91-34.52 25.99-56.94 67.18-56.94 113.72 0 17.88 3.44 34.93 9.46 50.69-19.7-40.24-30.8-85.43-30.8-133.17 0-7.08.33-14.09.81-21.05Zm55.04 196.31c26.12 30.34 64.72 49.63 107.9 49.63 18.25 0 35.63-3.56 51.67-9.81-19.24 15.26-34.42 35.38-43.75 58.51-46.42-22.53-86.22-56.57-115.81-98.33Zm379.78 98.6c-9.42-23.48-24.87-43.86-44.47-59.23 16.37 6.56 34.19 10.27 52.9 10.27 43.18 0 81.79-19.29 107.9-49.64-29.71 41.93-69.69 76.08-116.34 98.61Z"></path></svg>