<svg xmlns="http://www.w3.org/2000/svg" width="642" viewBox="0 0 642 370" height="370" style="overflow:visible;enable-background:new 0 0 642 370" xml:space="preserve"><circle cx="109.1" cy="54.6" r="54.6"></circle><circle cx="532.9" cy="54.6" r="54.6"></circle><circle cx="391.6" cy="54.6" r="54.6"></circle><circle cx="250.4" cy="54.6" r="54.6"></circle><path d="M642 174.6v-51.4H0v51.4h83.5v75.6L0 333.7 36.3 370l72.8-72.8 70.6 70.6 70.6-70.6 70.6 70.6 70.6-70.6 70.6 70.6 70.6-70.6 72.8 72.8 36.3-36.3-83.5-83.5v-75.6H642zm-507.2 75.6v-75.6h89.9v75.6l-44.9 44.9-45-44.9zm141.3 0v-75.6H366v75.6l-45 44.9-44.9-44.9zm231.1 0-44.9 44.9-44.9-44.9v-75.6h89.9v75.6z"></path></svg>