<svg xmlns="http://www.w3.org/2000/svg" width="512.9" viewBox="0 0 512.9 596.3" height="596.3" xml:space="preserve"><path d="M456.8 419.2c21.9-38.1 15.4-86.5-15.7-117.6-18.5-18.5-43-28.6-69.1-28.6s-50.6 10.2-69.1 28.6c-31.1 31.1-37.6 79.5-15.7 117.6 1 1.8 3.5 6.2 46.5 57h76.6c42.9-50.8 45.5-55.2 46.5-57zm-40.3-23.1zm-80.7-61.6c.7-.7 1.5-1.5 2.3-2.2 14.2-12.6 35.1-16.3 52.7-9.2 7.5 3 14.3 7.8 19.7 13.9 8.2 9.4 12.8 21.8 12.7 34.3-.1 7.6-1.8 15.2-5.5 21.8-2.3 4.1-5.3 7.8-8.3 11.5-12.4 15.1-24.9 30-37.5 44.8-12.2-14.6-24.4-29.1-36.5-43.7-3-3.6-6.3-7.5-8.7-11.7-4.1-7.1-6.1-15.4-6-23.6.1-13.2 5.7-26.4 15.1-35.9zm-8.3 61.5c0 .1 0 .1 0 0 0 .1 0 .1 0 0z"></path><path d="m116.3 550.6 72.3-123.5L80 242.6h167.6L361.7 45.2 335.1 0 221.2 196.9H0l135.6 230.2-98.9 169.2h279.9v-45.7z"></path><path d="m371.2 153 88.7 150.7h53L370.6 62l-112 196H108.9l99.8 169.1-64.8 109.2h172.7v-45.7h-93l38.1-63.5-72.8-123.4h96.2z"></path><path d="M333.7 490.6h76.2v45.7h-76.2z"></path></svg>