<svg data-name="Layer 1" xmlns="http://www.w3.org/2000/svg" viewBox="0 0 604.17 635.82"><path d="M543.27 151.87c2.1-9.04 3.25-18.45 3.25-28.13C546.52 55.4 491.12 0 422.78 0c-32.91 0-62.8 12.87-84.97 33.83-11.73-1.38-23.63-2.18-35.73-2.18C135.25 31.65 0 166.9 0 333.74s135.25 302.08 302.08 302.08 302.08-135.25 302.08-302.08c0-68.29-22.68-131.27-60.9-181.87ZM302.08 515.39c-100.33 0-181.66-81.33-181.66-181.66s81.33-181.66 181.66-181.66h.26c12.82 54.67 61.86 95.39 120.44 95.39 12.57 0 24.7-1.89 36.13-5.37 15.76 26.91 24.83 58.2 24.83 91.63 0 100.33-81.33 181.66-181.66 181.66Z"></path><circle cx="309.05" cy="320.79" r="74.23"></circle><circle cx="239.94" cy="438.49" r="30.08"></circle></svg>