<svg width="642" viewBox="0 0 642 498" height="498" xmlns="http://www.w3.org/2000/svg"><path d="M606.305 260.526C628.518 285.628 642 318.69 642 354.9c0 78.773-63.879 142.652-142.652 142.652H436.56v-.25c9.315-.546 18.374-1.978 27.092-4.244C525.22 477.2 570.674 421.347 570.674 354.9c0-36.21-13.482-69.272-35.695-94.374h71.326ZM356.695 0c0 47.508-23.24 89.559-58.935 115.432L130.133 239.466c-36.08 26.258-58.807 68.566-58.807 115.432 0 66.447 45.454 122.3 107.022 138.158a142.036 142.036 0 0 0 35.601-14.603c-42.621-24.68-71.297-70.776-71.297-123.555 0-47.444 23.177-89.495 58.808-115.432l167.754-124.034C404.845 89.495 428.021 47.444 428.021 0h71.327c0 47.508-23.24 89.559-58.936 115.432L272.786 239.466c-8.451 6.146-16.136 13.25-23.055 21.058H321c22.213 25.102 35.695 58.165 35.695 94.374 0 52.773-28.698 98.861-71.329 123.536A142.015 142.015 0 0 0 321 493.056c61.568-15.857 107.021-71.711 107.021-138.158 0-36.21-13.482-69.272-35.695-94.374h-71.262c6.87-7.833 14.702-14.895 23.176-21.058l167.627-124.034C547.497 89.495 570.674 47.444 570.674 0H642c0 47.508-23.24 89.559-58.936 115.432L415.438 239.466a140.774 140.774 0 0 0-23.048 21.058h71.262c22.214 25.102 35.696 58.165 35.696 94.374 0 78.773-63.88 142.652-142.653 142.652h-73.894a142.72 142.72 0 0 1-33.193-4.488 142.83 142.83 0 0 1-35.63 4.488h-73.83C62.532 496.202 0 432.836 0 354.898c0-46.61 22.534-89.046 58.807-115.432l167.69-124.034C262.13 89.495 285.306 47.444 285.306 0h71.39ZM249.674 260.588c-23.17 26.251-35.695 59.513-35.695 94.31 0 36.304 13.538 69.243 35.679 94.301 22.127-25.058 35.647-57.997 35.647-94.301 0-38.504-16.889-75.176-35.142-93.815l-.49-.495ZM213.979 0c0 47.444-23.112 89.495-58.808 115.432L0 228.167V0h213.979Z"></path></svg>