<svg xmlns="http://www.w3.org/2000/svg" width="625.6" viewBox="0 0 625.6 569.9" height="569.9" style="enable-background:new 0 0 625.6 569.9" xml:space="preserve"><path d="m518.8 130-44.7 127.6L334.3 0l49.5 203.9c-32-68.7-101.7-116.4-182.6-116.4C90.1 87.5 0 177.6 0 288.8c0 106.1 82.2 193.1 186.3 200.7v-62.7c-69.6-7.5-123.9-66.4-123.9-138h66.3V171.1h33.6v117.7h81.6V171.1h33.6v117.7h62.6c0 70.3-52.3 128.5-120.2 137.6v62.9c102.4-9.4 182.6-95.6 182.6-200.4 0-2.9-.1-5.7-.2-8.5l40.2 165.5 48.1-137.4L625.5 570 518.8 130z"></path></svg>