<svg xmlns="http://www.w3.org/2000/svg" width="622.7" viewBox="0 0 622.7 619" height="619" xml:space="preserve" style="enable-background:new 0 0 622.7 619"><path d="M94.8 47.4c0 26.2-21.2 47.4-47.4 47.4S0 73.6 0 47.4 21.2 0 47.4 0s47.4 21.2 47.4 47.4zM200.4 47.4c0 26.2-21.2 47.4-47.4 47.4s-47.4-21.2-47.4-47.4S126.8 0 153 0s47.4 21.2 47.4 47.4zM306 47.4c0 26.2-21.2 47.4-47.4 47.4s-47.4-21.2-47.4-47.4S232.4 0 258.6 0C284.7 0 306 21.2 306 47.4zM411.5 47.4c0 26.2-21.2 47.4-47.4 47.4s-47.4-21.2-47.4-47.4S337.9 0 364.1 0s47.4 21.2 47.4 47.4zM517.1 47.4c0 26.2-21.2 47.4-47.4 47.4s-47.4-21.2-47.4-47.4S443.5 0 469.7 0s47.4 21.2 47.4 47.4zM622.7 47.4c0 26.2-21.2 47.4-47.4 47.4s-47.4-21.2-47.4-47.4C527.8 21.2 549 0 575.2 0c26.2 0 47.5 21.2 47.5 47.4zM306 261.5c0 26.2-21.2 47.4-47.4 47.4s-47.4-21.2-47.4-47.4 21.2-47.4 47.4-47.4c26.1 0 47.4 21.3 47.4 47.4zM411.5 261.5c0 26.2-21.2 47.4-47.4 47.4s-47.4-21.2-47.4-47.4 21.2-47.4 47.4-47.4 47.4 21.3 47.4 47.4zM306 465.1c0 26.2-21.2 47.4-47.4 47.4s-47.4-21.2-47.4-47.4 21.2-47.4 47.4-47.4c26.1 0 47.4 21.2 47.4 47.4zM411.5 465.1c0 26.2-21.2 47.4-47.4 47.4s-47.4-21.2-47.4-47.4 21.2-47.4 47.4-47.4 47.4 21.2 47.4 47.4zM306 571.5c0 26.2-21.2 47.4-47.4 47.4s-47.4-21.2-47.4-47.4 21.2-47.4 47.4-47.4c26.1 0 47.4 21.3 47.4 47.4zM411.5 571.5c0 26.2-21.2 47.4-47.4 47.4s-47.4-21.2-47.4-47.4 21.2-47.4 47.4-47.4 47.4 21.3 47.4 47.4z"></path><g><path d="M94.8 154.5c0 26.2-21.2 47.4-47.4 47.4S0 180.7 0 154.5s21.2-47.4 47.4-47.4 47.4 21.2 47.4 47.4zM200.4 154.5c0 26.2-21.2 47.4-47.4 47.4s-47.4-21.2-47.4-47.4 21.2-47.4 47.4-47.4 47.4 21.2 47.4 47.4z"></path><circle cx="258.5" cy="154.5" r="47.4"></circle><circle cx="364.1" cy="154.5" r="47.4"></circle><circle cx="469.7" cy="154.5" r="47.4"></circle><circle cx="575.2" cy="154.5" r="47.4"></circle></g><path d="M74.6 363.3c0 15.3-12.4 27.8-27.8 27.8-15.3 0-27.8-12.4-27.8-27.8s12.4-27.8 27.8-27.8 27.8 12.4 27.8 27.8zM180.7 363.3c0 15.3-12.4 27.8-27.8 27.8s-27.8-12.4-27.8-27.8 12.4-27.8 27.8-27.8 27.8 12.4 27.8 27.8zM286.1 363.3c0 15.3-12.4 27.8-27.8 27.8-15.3 0-27.8-12.4-27.8-27.8s12.4-27.8 27.8-27.8 27.8 12.4 27.8 27.8zM391.6 363.3c0 15.3-12.4 27.8-27.8 27.8S336 378.7 336 363.3s12.4-27.8 27.8-27.8c15.3 0 27.8 12.4 27.8 27.8zM497 363.3c0 15.3-12.4 27.8-27.8 27.8s-27.8-12.4-27.8-27.8 12.4-27.8 27.8-27.8 27.8 12.4 27.8 27.8zM602.5 363.3c0 15.3-12.4 27.8-27.8 27.8s-27.8-12.4-27.8-27.8 12.4-27.8 27.8-27.8c15.3 0 27.8 12.4 27.8 27.8z"></path></svg>