<svg xmlns="http://www.w3.org/2000/svg" width="612" viewBox="0 0 612 612" height="612" xml:space="preserve" style="enable-background:new 0 0 612 612"><path d="M306 0C137 0 0 137 0 306s137 306 306 306 306-137 306-306S475 0 306 0zM181.9 462c-17.7 0-32-14.3-32-32s14.3-32 32-32 32 14.3 32 32-14.3 32-32 32zm0-82.7c-17.7 0-32-14.3-32-32s14.3-32 32-32 32 14.3 32 32-14.3 32-32 32zm0-82.7c-17.7 0-32-14.3-32-32s14.3-32 32-32 32 14.3 32 32-14.3 32-32 32zm0-82.7c-17.7 0-32-14.3-32-32s14.3-32 32-32 32 14.3 32 32-14.3 32-32 32zM264.6 462c-17.7 0-32-14.3-32-32s14.3-32 32-32 32 14.3 32 32-14.3 32-32 32zm0-82.7c-17.7 0-32-14.3-32-32s14.3-32 32-32 32 14.3 32 32-14.3 32-32 32zm0-82.7c-17.7 0-32-14.3-32-32s14.3-32 32-32 32 14.3 32 32-14.3 32-32 32zm0-82.7c-17.7 0-32-14.3-32-32s14.3-32 32-32 32 14.3 32 32-14.3 32-32 32zM347.4 462c-17.7 0-32-14.3-32-32s14.3-32 32-32 32 14.3 32 32-14.4 32-32 32zm0-82.7c-17.7 0-32-14.3-32-32s14.3-32 32-32 32 14.3 32 32c-.1 17.7-14.4 32-32 32zm0-82.7c-17.7 0-32-14.3-32-32s14.3-32 32-32 32 14.3 32 32c-.1 17.7-14.4 32-32 32zm0-82.7c-17.7 0-32-14.3-32-32s14.3-32 32-32 32 14.3 32 32-14.4 32-32 32zM430.1 462c-17.7 0-32-14.3-32-32s14.3-32 32-32 32 14.3 32 32-14.4 32-32 32zm0-82.7c-17.7 0-32-14.3-32-32s14.3-32 32-32 32 14.3 32 32c-.1 17.7-14.4 32-32 32zm0-82.7c-17.7 0-32-14.3-32-32s14.3-32 32-32 32 14.3 32 32c-.1 17.7-14.4 32-32 32zm0-82.7c-17.7 0-32-14.3-32-32s14.3-32 32-32 32 14.3 32 32-14.4 32-32 32z"></path></svg>