<svg data-name="Layer 1" xmlns="http://www.w3.org/2000/svg" viewBox="0 0 618.14 618.14"><path d="M412.04 292.82v325.32c59.33-30.07 100.02-91.59 100.02-162.66s-40.69-132.59-100.02-162.66ZM370.39 224.77l230.04 230.04c20.69-63.22 5.96-135.49-44.29-185.74s-122.53-64.98-185.74-44.29ZM292.82 206.11h325.32c-30.07-59.33-91.59-100.02-162.66-100.02s-132.59 40.69-162.66 100.02ZM454.81 17.72c-63.22-20.69-135.49-5.96-185.74 44.29s-64.98 122.53-44.29 185.74L454.81 17.72ZM206.11 325.32V0c-59.33 30.07-100.02 91.59-100.02 162.66s40.69 132.59 100.02 162.66ZM247.75 393.37 17.72 163.33c-20.69 63.22-5.96 135.49 44.29 185.74s122.53 64.98 185.74 44.29ZM325.32 412.04H0c30.07 59.33 91.59 100.02 162.66 100.02s132.59-40.69 162.66-100.02ZM163.33 600.43c63.22 20.69 135.49 5.96 185.74-44.29s64.98-122.53 44.29-185.74L163.32 600.44Z"></path></svg>