<svg data-name="Layer 1" xmlns="http://www.w3.org/2000/svg" viewBox="0 0 618.67 617.57"><path d="M516.29 0 413.9 86.58v121.6H204.78V86.58L102.39 0 0 86.58V531l102.39 86.58L204.78 531V409.4H413.9V531l102.39 86.58L618.68 531V86.58L516.29 0Zm-6.47 22.35-.34 272.29-82.69-82.68V92.56l83.03-70.21ZM188.34 89.57l-85.96 72.68-85.95-72.68 85.96-72.68 85.96 72.68ZM12.9 103.46l89.49 75.67 89.5-75.67v117.61h225.79l81.27 81.27H96.33l-.37 292.91-83.06-70.24V103.46Zm95.96 491.75.35-272.28 82.68 82.68V525l-83.03 70.21Zm92.15-198.72-81.27-81.27h402.62l.37-292.91 83.06 70.24v421.54l-89.49-75.67-89.5 75.67V396.48H201Zm229.33 131.5 85.96-72.68 85.95 72.68-85.95 72.68-85.96-72.68Z"></path></svg>