<svg data-name="Layer 1" xmlns="http://www.w3.org/2000/svg" viewBox="0 0 618.12 476.35"><path d="M618.07 55.67V3.35c0-1.85-1.49-3.35-3.35-3.35H421.04c-.98 0-1.96.46-2.57 1.24l-103.51 125.6c-1.39 1.7-3.97 1.6-5.25-.15L216.7 1.39c-.62-.82-1.65-1.34-2.68-1.34H3.35C1.49.05 0 1.54 0 3.4v52.32c0 1.85 1.49 3.35 3.35 3.35h52.11c1.08 0 2.06.51 2.68 1.34l146.05 196.72c.93 1.24.88 2.94-.1 4.12L31.16 470.89c-1.8 2.16-.26 5.46 2.57 5.46h113.14c.98 0 1.96-.46 2.57-1.24l111.29-134.92c1.39-1.7 3.97-1.6 5.25.15l99.96 134.67c.62.82 1.65 1.34 2.68 1.34h194.04c2.73 0 4.33-3.14 2.68-5.36L371.5 209.85c-.93-1.24-.88-2.94.1-4.12l9.53-11.59c.62-.77 1.6-1.24 2.57-1.24h231.07c1.85 0 3.35-1.49 3.35-3.35v-52.32c0-1.85-1.49-3.35-3.35-3.35H437.93c-2.83 0-4.38-3.3-2.57-5.46l4.58-5.56c.62-.77 1.6-1.24 2.57-1.24h172.26c1.85 0 3.35-1.49 3.35-3.35V74.55c0-1.85-1.49-3.35-3.35-3.35H489.63c-2.83 0-4.38-3.3-2.57-5.46l4.58-5.56c.62-.77 1.6-1.24 2.57-1.24h120.56c1.85 0 3.35-1.49 3.35-3.35l-.05.05Z"></path></svg>