<svg xmlns="http://www.w3.org/2000/svg" width="582.1" viewBox="0 0 582.1 585.8" height="585.8"><path class="st0" d="M378.404 156.352l129.18-74.445 74.446 129.18-129.18 74.446zM374.6 423.7L450 293.3l-118.2-32.2zM136.1 300l75.2 130.5 86.9-86.3zM446.1 286l-75.3-130.7-87.1 86.4zM362.3 155.1H211.8L243 273.6zM132.1 292.6l118.2 32.3-42.9-162.6zM371.3 43.8v109.7l129.6-74.6zM216.2 0h149.1v149.1H216.2zM210.2 4.3l-94.6 94.5 94.6 54.7zM.014 211.192l74.61-129.09 129.09 74.61-74.609 129.09zM35.2 347.7l94.7-54.5L.7 218.5zM.25 374.852l129.18-74.445 74.446 129.18-129.18 74.446zM210.6 541.9V432.7L81.4 507.1zM216.7 436.7h149.1v149.1H216.7zM219.6 430.7h150.6L339 312.2zM371.8 581.6l94.7-94.4-94.7-54.7zM378.38 429.298l74.61-129.09 129.09 74.609-74.609 129.09zM581.4 367.5L547 238.3l-94.7 54.6z"></path></svg>