<svg data-name="Layer 1" xmlns="http://www.w3.org/2000/svg" viewBox="0 0 616.83 616.4"><path d="M325.63.07 324.34 0v120.09l278.82 278.82.59-1.96c8.68-28.86 13.08-58.79 13.08-88.96 0-163.68-127.91-298.93-291.2-307.92ZM292.49 0l-1.29.07C127.91 9.06 0 144.31 0 307.98c0 30.17 4.4 60.11 13.09 88.96l.59 1.96 278.81-278.81V0ZM324.34 376.34l35.53 35.53H256.96l35.53-35.53V165.13L25.91 431.71l.34.77C75.62 544.21 186.37 616.4 308.42 616.4s232.79-72.19 282.17-183.92l.34-.77-266.59-266.58v211.21Z"></path></svg>