<svg xmlns="http://www.w3.org/2000/svg" width="585.2" viewBox="0 0 585.2 585.2" height="585.2"><path class="st0" d="M554.8 162.7L292.6 91.5 30.4 162.7C10.9 201.8 0 245.9 0 292.6c0 34.1 5.8 66.8 16.6 97.2l276-222.9 276 222.9c10.7-30.4 16.6-63.1 16.6-97.2 0-46.7-11-90.8-30.4-129.9z"></path><path class="st0" d="M21.6 403c27.3 66.9 78.6 121.5 143.3 152.9L292.6 264l127.7 291.9c64.7-31.4 116-86 143.3-152.9l-271-218.8L21.6 403zM546.1 146.4C495.5 58.9 400.9 0 292.6 0 184.2 0 89.7 58.9 39.1 146.4l253.5-68.8 253.5 68.8z"></path><path class="st0" d="M177.1 561.5c35.4 15.2 74.5 23.7 115.5 23.7s80.1-8.5 115.5-23.7L292.6 297.4 177.1 561.5z"></path></svg>