<svg data-name="Layer 1" xmlns="http://www.w3.org/2000/svg" viewBox="0 0 610.47 610.47"><path d="M521.17 89.3C402.1-29.77 208.37-29.76 89.3 89.3c-119.07 119.07-119.07 312.8 0 431.87 59.54 59.54 137.72 89.3 215.93 89.3s156.41-29.77 215.93-89.3c119.07-119.07 119.07-312.8 0-431.87ZM305.24 75.1c58.95 0 117.93 22.45 162.81 67.33 71.74 71.74 86.14 179.43 43.22 265.62-12.68-9.64-28.49-15.37-45.65-15.37-18.36 0-35.18 6.55-48.27 17.44 56.28-60.11 55.1-154.8-3.55-213.45-41.75-41.75-101.76-54.37-154.56-37.88-13.02-22.72-37.49-38.04-65.56-38.04-15.22 0-29.37 4.52-41.23 12.26 43.45-38.6 98.11-57.9 152.78-57.9ZM249.8 249.8c15.28-15.28 35.36-22.93 55.44-22.93s40.15 7.64 55.44 22.93c10.93 10.93 17.93 24.32 21.05 38.41-7.76-2.69-16.08-4.17-24.75-4.17-41.71 0-75.52 33.81-75.52 75.52 0 7.38 1.08 14.51 3.05 21.25-12.72-3.47-24.74-10.16-34.71-20.13-30.57-30.57-30.57-80.31 0-110.88ZM142.43 468.05c-85.21-85.21-89.53-221.14-12.97-311.51-7.16 11.54-11.3 25.15-11.3 39.73 0 28.7 16.01 53.66 39.59 66.44-14.89 51.95-1.92 110.26 38.92 151.1 29.93 29.93 69.25 44.9 108.57 44.9 36.98 0 73.96-13.24 103.13-39.73-11.38 13.22-18.27 30.41-18.27 49.23 0 16.72 5.44 32.16 14.63 44.67-85.62 40.92-191.48 26-262.3-44.82Z"></path></svg>