<svg data-name="Layer 1" xmlns="http://www.w3.org/2000/svg" viewBox="0 0 447.79 616.61"><path d="M347.01 205.84V0h-50.87v180.85c-14.96-5.12-30.62-8.7-46.8-10.54V0h-50.87v170.31c-16.19 1.84-31.84 5.42-46.8 10.54V0H100.8v205.84C40.12 245.94 0 314.71 0 392.71 0 516.16 100.44 616.6 223.9 616.6s223.89-100.44 223.89-223.89c0-78-40.12-146.77-100.78-186.87ZM223.9 565.73c-95.41 0-173.02-77.62-173.02-173.02 0-47.27 19.07-90.16 49.91-121.42v121.42c0 14.05 11.39 25.44 25.44 25.44s25.44-11.39 25.44-25.44V235.56c14.63-6.75 30.33-11.54 46.8-13.98v268.17c0 14.05 11.39 25.44 25.44 25.44s25.44-11.39 25.44-25.44V221.58c16.47 2.44 32.18 7.23 46.8 13.98v157.15c0 14.05 11.39 25.44 25.44 25.44s25.44-11.39 25.44-25.44V271.3c30.83 31.26 49.9 74.14 49.9 121.41 0 95.4-77.62 173.02-173.02 173.02Z"></path></svg>