<svg data-name="Layer 1" xmlns="http://www.w3.org/2000/svg" viewBox="0 0 515.17 603.46"><path d="M52.36 376.88c0-14.46-11.72-26.18-26.18-26.18S0 362.42 0 376.88s11.72 26.18 26.18 26.18 26.18-11.72 26.18-26.18ZM110.21 376.88c0-14.46-11.72-26.18-26.18-26.18s-26.18 11.72-26.18 26.18 11.72 26.18 26.18 26.18 26.18-11.72 26.18-26.18ZM141.88 350.7c-14.46 0-26.18 11.72-26.18 26.18s11.72 26.18 26.18 26.18 26.18-11.72 26.18-26.18-11.72-26.18-26.18-26.18ZM399.46 376.88c0-14.46-11.72-26.18-26.18-26.18s-26.18 11.72-26.18 26.18 11.72 26.18 26.18 26.18 26.18-11.72 26.18-26.18ZM457.32 376.88c0-14.46-11.72-26.18-26.18-26.18s-26.18 11.72-26.18 26.18 11.72 26.18 26.18 26.18 26.18-11.72 26.18-26.18ZM428.39 326.78c0-14.46-11.72-26.18-26.18-26.18s-26.18 11.72-26.18 26.18 11.72 26.18 26.18 26.18 26.18-11.72 26.18-26.18ZM488.99 350.7c-14.46 0-26.18 11.72-26.18 26.18s11.72 26.18 26.18 26.18 26.18-11.72 26.18-26.18-11.72-26.18-26.18-26.18ZM460.06 352.96c14.46 0 26.18-11.72 26.18-26.18s-11.72-26.18-26.18-26.18-26.18 11.72-26.18 26.18 11.72 26.18 26.18 26.18ZM55.11 400.8c-14.46 0-26.18 11.72-26.18 26.18s11.72 26.18 26.18 26.18 26.18-11.72 26.18-26.18-11.72-26.18-26.18-26.18ZM139.14 426.98c0-14.46-11.72-26.18-26.18-26.18s-26.18 11.72-26.18 26.18 11.72 26.18 26.18 26.18 26.18-11.72 26.18-26.18ZM402.21 400.8c-14.46 0-26.18 11.72-26.18 26.18s11.72 26.18 26.18 26.18 26.18-11.72 26.18-26.18-11.72-26.18-26.18-26.18ZM460.06 400.8c-14.46 0-26.18 11.72-26.18 26.18s11.72 26.18 26.18 26.18 26.18-11.72 26.18-26.18-11.72-26.18-26.18-26.18ZM141.88 503.26c14.46 0 26.18-11.72 26.18-26.18s-11.72-26.18-26.18-26.18-26.18 11.72-26.18 26.18 11.72 26.18 26.18 26.18ZM199.73 503.26c14.46 0 26.18-11.72 26.18-26.18s-11.72-26.18-26.18-26.18-26.18 11.72-26.18 26.18 11.72 26.18 26.18 26.18ZM315.43 450.9c-14.46 0-26.18 11.72-26.18 26.18s11.72 26.18 26.18 26.18 26.18-11.72 26.18-26.18-11.72-26.18-26.18-26.18ZM347.1 477.08c0 14.46 11.72 26.18 26.18 26.18s26.18-11.72 26.18-26.18-11.72-26.18-26.18-26.18-26.18 11.72-26.18 26.18ZM139.14 527.18c0-14.46-11.72-26.18-26.18-26.18s-26.18 11.72-26.18 26.18 11.72 26.18 26.18 26.18 26.18-11.72 26.18-26.18ZM196.99 527.18c0-14.46-11.72-26.18-26.18-26.18s-26.18 11.72-26.18 26.18 11.72 26.18 26.18 26.18 26.18-11.72 26.18-26.18ZM228.66 501c-14.46 0-26.18 11.72-26.18 26.18s11.72 26.18 26.18 26.18 26.18-11.72 26.18-26.18S243.12 501 228.66 501ZM312.69 527.18c0-14.46-11.72-26.18-26.18-26.18s-26.18 11.72-26.18 26.18 11.72 26.18 26.18 26.18 26.18-11.72 26.18-26.18ZM370.54 527.18c0-14.46-11.72-26.18-26.18-26.18s-26.18 11.72-26.18 26.18 11.72 26.18 26.18 26.18 26.18-11.72 26.18-26.18ZM402.21 501c-14.46 0-26.18 11.72-26.18 26.18s11.72 26.18 26.18 26.18 26.18-11.72 26.18-26.18S416.67 501 402.21 501ZM141.88 551.1c-14.46 0-26.18 11.72-26.18 26.18s11.72 26.18 26.18 26.18 26.18-11.72 26.18-26.18-11.72-26.18-26.18-26.18ZM199.73 551.1c-14.46 0-26.18 11.72-26.18 26.18s11.72 26.18 26.18 26.18 26.18-11.72 26.18-26.18-11.72-26.18-26.18-26.18ZM315.43 551.1c-14.46 0-26.18 11.72-26.18 26.18s11.72 26.18 26.18 26.18 26.18-11.72 26.18-26.18-11.72-26.18-26.18-26.18ZM373.29 551.1c-14.46 0-26.18 11.72-26.18 26.18s11.72 26.18 26.18 26.18 26.18-11.72 26.18-26.18-11.72-26.18-26.18-26.18ZM199.73 102.46c14.46 0 26.18-11.72 26.18-26.18S214.19 50.1 199.73 50.1s-26.18 11.72-26.18 26.18 11.72 26.18 26.18 26.18ZM228.66 52.36c14.46 0 26.18-11.72 26.18-26.18S243.12 0 228.66 0s-26.18 11.72-26.18 26.18 11.72 26.18 26.18 26.18ZM170.81 152.56c14.46 0 26.18-11.72 26.18-26.18s-11.72-26.18-26.18-26.18-26.18 11.72-26.18 26.18 11.72 26.18 26.18 26.18ZM254.84 126.38c0-14.46-11.72-26.18-26.18-26.18s-26.18 11.72-26.18 26.18 11.72 26.18 26.18 26.18 26.18-11.72 26.18-26.18ZM141.88 202.66c14.46 0 26.18-11.72 26.18-26.18s-11.72-26.18-26.18-26.18-26.18 11.72-26.18 26.18 11.72 26.18 26.18 26.18ZM173.55 176.48c0 14.46 11.72 26.18 26.18 26.18s26.18-11.72 26.18-26.18-11.72-26.18-26.18-26.18-26.18 11.72-26.18 26.18ZM231.41 176.48c0 14.46 11.72 26.18 26.18 26.18s26.18-11.72 26.18-26.18-11.72-26.18-26.18-26.18-26.18 11.72-26.18 26.18ZM315.43 202.66c14.46 0 26.18-11.72 26.18-26.18s-11.72-26.18-26.18-26.18-26.18 11.72-26.18 26.18 11.72 26.18 26.18 26.18ZM373.29 202.66c14.46 0 26.18-11.72 26.18-26.18s-11.72-26.18-26.18-26.18-26.18 11.72-26.18 26.18 11.72 26.18 26.18 26.18ZM112.96 252.76c14.46 0 26.18-11.72 26.18-26.18s-11.72-26.18-26.18-26.18-26.18 11.72-26.18 26.18 11.72 26.18 26.18 26.18ZM196.99 226.58c0-14.46-11.72-26.18-26.18-26.18s-26.18 11.72-26.18 26.18 11.72 26.18 26.18 26.18 26.18-11.72 26.18-26.18ZM254.84 226.58c0-14.46-11.72-26.18-26.18-26.18s-26.18 11.72-26.18 26.18 11.72 26.18 26.18 26.18 26.18-11.72 26.18-26.18ZM260.33 226.58c0 14.46 11.72 26.18 26.18 26.18s26.18-11.72 26.18-26.18-11.72-26.18-26.18-26.18-26.18 11.72-26.18 26.18ZM318.18 226.58c0 14.46 11.72 26.18 26.18 26.18s26.18-11.72 26.18-26.18-11.72-26.18-26.18-26.18-26.18 11.72-26.18 26.18ZM376.03 226.58c0 14.46 11.72 26.18 26.18 26.18s26.18-11.72 26.18-26.18-11.72-26.18-26.18-26.18-26.18 11.72-26.18 26.18ZM141.88 250.5c-14.46 0-26.18 11.72-26.18 26.18s11.72 26.18 26.18 26.18 26.18-11.72 26.18-26.18-11.72-26.18-26.18-26.18ZM199.73 302.86c14.46 0 26.18-11.72 26.18-26.18s-11.72-26.18-26.18-26.18-26.18 11.72-26.18 26.18 11.72 26.18 26.18 26.18ZM289.25 276.68c0 14.46 11.72 26.18 26.18 26.18s26.18-11.72 26.18-26.18-11.72-26.18-26.18-26.18-26.18 11.72-26.18 26.18ZM373.29 302.86c14.46 0 26.18-11.72 26.18-26.18s-11.72-26.18-26.18-26.18-26.18 11.72-26.18 26.18 11.72 26.18 26.18 26.18ZM55.11 352.96c14.46 0 26.18-11.72 26.18-26.18S69.57 300.6 55.11 300.6s-26.18 11.72-26.18 26.18 11.72 26.18 26.18 26.18ZM112.96 352.96c14.46 0 26.18-11.72 26.18-26.18s-11.72-26.18-26.18-26.18-26.18 11.72-26.18 26.18 11.72 26.18 26.18 26.18ZM338 376.88c0-44.41-36-80.42-80.42-80.42s-80.42 36.01-80.42 80.42 36 80.42 80.42 80.42 80.42-36 80.42-80.42Zm-80.42 13.15c-7.26 0-13.15-5.89-13.15-13.15s5.89-13.15 13.15-13.15 13.15 5.89 13.15 13.15-5.89 13.15-13.15 13.15Z"></path></svg>