<svg xmlns="http://www.w3.org/2000/svg" width="464.6" viewBox="0 0 464.6 609.1" height="609.1" xml:space="preserve" style="enable-background:new 0 0 464.6 609.1"><path d="m387.7 441.4 21.8 68.4h-44.7l22.9-68.4zm-78.2 106.3-48.9-153.6h29v59.1h40.3v-59.1H361l-51.5 153.6zm-99.1-38 22.9-68.4 21.8 68.4h-44.7zm-55.3 38-48.9-153.6h29v59.1h40.3v-59.1h31.2l-51.6 153.6zm-99.1-38 23-68.3 21.8 68.4H56zm100.1-224.2 21.8 68.4h-44.7l22.9-68.4zm56.3-47.3v59.1h40.3v-59.1h31.2l-37.4 111.6-12.1-38-14.1 42-36.8-115.6h28.9zm20.9-108.6 21.8 68.4h-44.7l22.9-68.4zm99 224.2h-44.7l22.9-68.4 21.8 68.4zM464.6 550l-75.9-238.2-14.1 42-63.1-197.9-14.1 42L234.3 0l-65.1 193.9-12.1-38-65 193.9-12.1-38L0 550h58v59.1h40.3V550h114.1v59.1h40.3V550h114.1v59.1H407V550h57.6z"></path></svg>