<svg data-name="Layer 1" xmlns="http://www.w3.org/2000/svg" viewBox="0 0 622.66 622.66"><path d="M164.23 320.99 355.94 512.7c23.3 23.3 24.55 61.46 1.45 84.96-11.68 11.88-27.09 17.82-42.5 17.82s-30.49-5.81-42.13-17.45L22.3 347.56c-20.15-20.15-20.15-52.83 0-72.98L271.67 25.2c23.61-23.61 62.99-24.34 86.15-.29 22.47 23.32 22.2 60.44-.8 83.44L163.7 301.67h458.97V148.46C622.66 66.8 555.86 0 474.21 0H148.46C66.8 0 0 66.8 0 148.46v325.75c0 81.65 66.8 148.46 148.46 148.46h325.75c81.65 0 148.46-66.8 148.46-148.46V320.99H164.23Z"></path></svg>