<svg xmlns="http://www.w3.org/2000/svg" width="613.1" viewBox="0 0 613.1 609.8" height="609.8" xml:space="preserve"><path d="M506.6 190.9H418v-84.4L311.4 0H208.6L96.9 111.6v185.1L0 393.1v110.1l106.6 106.6h102.8l99.4-99.4h201l103.4-102.8V297.5L506.6 190.9zM125.3 385v-65.6h146.8l-66 65.6h-80.8zm71.1 30v52.2L143.8 415h52.6zm96.2-190.2v65.6H145.8l66.1-65.6h80.7zm-71.1-30v-52.2l52.6 52.2h-52.6zm3.5 212 67.1-67.2v141.6H225v-74.4zm96-87.4h67.1v74.4L321 461.1V319.4zM219.3 28.8h80.2l89.7 89.7v86.2L321.4 272v-70.5L219.6 99.7h-71.3l71-70.9zm-93.6 99.7h67.2V203l-67.2 67.3V128.5zm73 452.5h-80.2l-89.7-89.7v-86.2l67.7-67.4v70.5L198.3 510h71.3l-70.9 71zm289.1-99.5H340.7l66.3-65.9h80.7v65.9zm-71.1-95.8v-52.2l52.6 52.2h-52.6zm167.6 9.9-67.7 67.3v-70.5L414.8 290.7h-71.3l71.3-70.9h79.8l89.7 89.7v86.1z"></path></svg>