<svg xmlns="http://www.w3.org/2000/svg" width="600.4" viewBox="0 0 600.4 616.4" height="616.4" xml:space="preserve"><path d="M209.7 450.7h181.1V315c0-8.3 6.8-15.1 15.1-15.1h134.7l-45.5-26.3 36.1-36.1-49.3-13.2 26.1-45.2h-51.2l13.5-50.3L421 142V90.9L375.8 117l-13.2-49.3-36.8 36.8-25.6-44.3-25.6 44.3-36.8-36.8-13.2 49.3-45.2-26.1v51.2l-49.3-13.2 13.5 50.3H92.4l26.1 45.2-49.3 13.2 36.1 36.1L59.8 300h134.8c8.3 0 15.1 6.8 15.1 15.1v135.6zm116.5 96.2 55.3-65.9H218.8l55.3 65.9c7.9-3.8 16.7-5.9 26.1-5.9 9.3 0 18.2 2.1 26 5.9zM52.6 330 0 299.6l56.2-32.5L11 221.9l61.9-16.6L40.4 149h64L87.5 86.2l61.9 16.6v-64l56.3 32.5 16.6-61.9 46 46 32-55.4 32 55.4 46-46 16.6 61.9L451 38.8v64l61.9-16.6-16.9 62.9h64l-32.5 56.3 61.9 16.6-45.3 45.3 56.2 32.5-52.6 30.2H420.9v150.9l-109 129.9c-.6.7-1.3 1.4-2 2-6.4 5.3-15.9 4.5-21.2-1.9l-109.2-130V330H52.6z"></path></svg>