<svg id="Layer_1" data-name="Layer 1" xmlns="http://www.w3.org/2000/svg" viewBox="0 0 543.95 616.15">   <path d="M525.53,411.45c-10.36-5.95-22.39-6.25-32.61-1.92l-43.18-101.73,42.86-101.86c10.23,4.29,22.26,3.96,32.6-2.03,17.54-10.15,23.53-32.6,13.38-50.15-10.15-17.54-32.6-23.53-50.15-13.38-10.34,5.98-16.63,16.25-18,27.26l-109.68-13.58-66.69-88.12c8.84-6.7,14.58-17.28,14.58-29.23C308.64,16.45,292.25,.04,272.01,0h0s-.02,0-.03,0-.02,0-.03,0h0c-20.24,.04-36.63,16.45-36.63,36.7,0,11.95,5.74,22.53,14.58,29.23l-66.69,88.12-109.68,13.58c-1.37-11.01-7.66-21.27-18-27.26-17.54-10.15-39.99-4.16-50.15,13.38-10.15,17.54-4.16,39.99,13.38,50.15,10.34,5.98,22.37,6.32,32.6,2.03l42.86,101.86-43.18,101.73c-10.21-4.33-22.25-4.03-32.61,1.92-17.57,10.1-23.64,32.53-13.54,50.11,10.1,17.57,32.53,23.64,50.1,13.54,10.36-5.95,16.68-16.2,18.08-27.2l109.63,13.93,66.42,88.33c-8.86,6.67-14.63,17.24-14.67,29.19-.06,20.27,16.32,36.75,36.58,36.82,.32,0,.62-.04,.93-.04,.31,0,.62,.05,.93,.04,20.27-.06,36.65-16.55,36.58-36.82-.04-11.95-5.81-22.51-14.67-29.19l66.42-88.33,109.63-13.93c1.41,11,7.72,21.25,18.08,27.2,17.57,10.1,40.01,4.04,50.1-13.54,10.1-17.57,4.04-40.01-13.54-50.11ZM99.24,240.71l60.85,67.19-61.06,66.99,9.01-67.08-8.8-67.1Zm90.41,209.15l-62.49-26,88.63-19.01,27.4,86.41-53.54-41.39Zm26.45-238.74l-88.57-19.29,62.57-25.8,53.67-41.23-27.67,86.32Zm137.75-45.09l62.57,25.8-88.57,19.29-27.67-86.32,53.67,41.23Zm.44,283.83l-53.54,41.39,27.4-86.41,88.63,19.01-62.49,26Zm29.56-141.96l60.85-67.19-8.8,67.1,9.01,67.08-61.06-66.99Z"></path> </svg>