<svg data-name="Layer 1" xmlns="http://www.w3.org/2000/svg" viewBox="0 0 618.45 617.29"><path d="M0 0v617.29h618.45V0H0Zm149.96 598.69H18.6V18.6h131.36v580.09Zm149.96-293H168.56V18.6h131.36v287.09Zm149.96 0H318.52V18.6h131.36v287.09Zm149.96 293H468.48V18.6h131.36v580.09Z"></path><circle cx="113.24" cy="305.69" r="10.84"></circle><path d="M500.91 316.53c5.99 0 10.84-4.85 10.84-10.84s-4.85-10.84-10.84-10.84-10.84 4.85-10.84 10.84 4.85 10.84 10.84 10.84ZM266.62 172.99c5.99 0 10.84-4.85 10.84-10.84s-4.85-10.84-10.84-10.84-10.84 4.85-10.84 10.84 4.85 10.84 10.84 10.84ZM351.83 172.99c5.99 0 10.84-4.85 10.84-10.84s-4.85-10.84-10.84-10.84-10.84 4.85-10.84 10.84 4.85 10.84 10.84 10.84Z"></path></svg>