<svg xmlns="http://www.w3.org/2000/svg" width="559.9" viewBox="0 0 559.9 586.8" height="586.8"><path d="M559.9 0H0v586.8h559.8V0zm-171 413.7L135.8 523.8 6.6 383.5l382.2-142.9.1 173.1zM170.5 236.3l218.2-69.2.1 68.3L13.6 375.7l156.9-139.4zm223-70.7l151.5-48-151.4 114.7-.1-66.7zm0-5l-.1-153.8L552 110.3l-158.5 50.3zm-4.8 1.5l-218.8 69.4L7.6 91.6l381-86.2.1 156.7zm-223 72.1L4.8 377.1V95.5l160.9 138.7zm-34.6 291.6L4.8 580.7V388.6l126.3 137.2zm3.5 3.7l48.3 52.5H13.8l120.8-52.5zm4.6-2l253.1-110c.9-.4 1.4-1.3 1.4-2.2l-.2-172.4 159.9 157.3-364.5 181.3-49.7-54zm255.6-290.2l160.3-121.4v279.2L394.8 237.3zm160.3-130.7L399 4.8h156.1v101.8zM369.5 4.8L4.8 87.3V4.8h364.7zM198.6 582l356.5-177.4V582H198.6z"></path></svg>