<svg xmlns="http://www.w3.org/2000/svg" width="624.6" viewBox="0 0 624.6 522.5" height="522.5" xml:space="preserve" style="enable-background:new 0 0 624.6 522.5"><path d="M398.7 522.5c-34.3 0-62.2-27.9-62.2-62.2V166.4h141.4c34.3 0 62.2 27.9 62.2 62.2 0 34.3-27.9 62.2-62.2 62.2h-44.6c-11.8 0-21.3-9.6-21.3-21.3 0-11.8 9.5-21.3 21.3-21.3h44.6c10.8 0 19.6-8.8 19.6-19.6s-8.8-19.5-19.6-19.5h-98.7v251.3c0 10.8 8.8 19.5 19.6 19.5s19.6-8.8 19.6-19.5v-130h61.9c56.2 0 101.9-45.7 101.9-101.9s-45.7-101.9-101.9-101.9h-184v225.2c-.1 34.5-28.2 62.6-62.8 62.6-34.5 0-62.7-28-62.8-62.6V125.5h-108C28.1 125.5 0 97.4 0 62.8S28.1 0 62.7 0h368C442.5 0 452 9.6 452 21.3c0 11.8-9.6 21.3-21.3 21.3h-368c-11.1 0-20.1 9-20.1 20.1 0 11.1 9 20.1 20.1 20.1h150.7v268.8c0 11.1 9 20.1 20.1 20.1 11.1 0 20.1-9 20.1-20.1V83.9h226.5c79.7 0 144.5 64.8 144.5 144.5s-64.8 144.5-144.5 144.5h-19.3v87.4c.1 34.3-27.8 62.2-62.1 62.2z"></path></svg>