<svg id="Layer_1" data-name="Layer 1" xmlns="http://www.w3.org/2000/svg" viewBox="0 0 610.83 392.39">   <path d="M501.6,218.51V109.28h-109.17V0h-116.4l-57.47,57.47v51.82h-51.82l-57.47,57.47v51.82H57.47L0,276.03v116.36H225.69l57.47-57.47v-51.82h44.58v109.23h225.63l57.47-57.47v-116.35h-109.23Zm47.4,54.58h-94.85l44.75-44.75h94.86l-44.75,44.75ZM228.4,64.42h99.33v99.56h-99.33V64.42Zm109.17,92.49V61.54l45.03-45.03V111.88l-45.03,45.03Zm0,16.79h99.33v99.56h-99.33v-99.56Zm109.17,92.49v-95.37l45.03-45.03v95.37l-45.03,45.03Zm-6.95-102.33h-94.86l44.75-44.75h94.86l-44.75,44.75ZM280.1,9.84h95.26l-44.75,44.75h-95.26l44.75-44.75ZM119.12,173.7h99.33v99.56H119.12v-99.56Zm51.7-54.58h47.63v44.75H126.07l44.75-44.75ZM61.54,228.4h47.63v44.75H16.79l44.75-44.75ZM9.84,382.55v-99.57H109.17v99.57H9.84Zm109.28-99.45h99.33v99.45H119.12v-99.45Zm154.2,47.74l-45.03,45.03v-92.78h45.03v47.74Zm-45.03-57.58v-99.45h99.44v99.45h-99.44Zm208.67,109.23h-99.39v-99.39h99.39v99.39Zm9.84-99.57h99.33v99.57h-99.33v-99.57Zm109.17,92.9v-95.78l45.03-45.03v95.77l-45.03,45.03Z"></path> </svg>