<svg xmlns="http://www.w3.org/2000/svg" width="611.2" viewBox="0 0 611.2 622.8" height="622.8" xml:space="preserve"><path d="m611.2 404.8-7.7-13.4H459.7l-6.6-11.4h143.8l-7.7-13.4H445.4l-6.6-11.4h143.8l-7.7-13.4H431.1l-6.6-11.4h143.8l-7.7-13.4H416.8l-3.3-5.7 3.3-5.7H554l-7.7-13.4H424.5l6.6-11.4h108.5l-7.7-13.4h-93.1l6.6-11.4h79.9l-7.7-13.4h-64.5l6.6-11.4H511l-7.7-13.4h-35.8l71.9-124.5H524l-71.9 124.5h-13.2l71.9-124.5h-15.4l-71.9 124.5h-13.2l71.9-124.5h-15.4l-71.9 124.5h-13.2l71.9-124.5h-15.4l-71.9 124.5h-6.6l-3.3-5.7L425 93.3h-15.4l-60.9 105.4-6.6-11.4 54.3-94H381l-46.6 80.6-6.6-11.4 40-69.2h-15.4l-32.3 55.8-6.6-11.4L339 93.5h-15.4l-17.9 31.1L233.8 0 226 13.4l71.9 124.5-6.6 11.4-71.9-124.5-7.7 13.4 71.9 124.5-6.6 11.4-71.9-124.5-7.7 13.4 71.9 124.5-6.6 11.4-71.9-124.5-7.7 13.4L255 212.2l-3.3 5.7h-6.6L176.5 99.2l-7.7 13.4L229.7 218h-13.2l-54.3-94-7.7 13.4 46.6 80.6h-13.2l-40-69.2-7.7 13.4 32.2 55.8h-13.2l-25.6-44.4-7.7 13.4 17.9 31.1H0l7.7 13.4h143.8l6.6 11.4H14.3l7.7 13.4h143.8l6.6 11.4H28.6l7.7 13.4h143.8l6.6 11.4H42.9l7.7 13.4h143.8l3.3 5.7-3.3 5.7H57.3l7.7 13.4h121.7l-6.6 11.4H71.6l7.7 13.4h93.1l-6.6 11.4H85.9l7.7 13.4H158l-6.6 11.4h-51.3l7.7 13.4h35.8L71.8 529.3h15.4l71.9-124.5h13.2l-71.9 124.5h15.4l71.9-124.5H201l-71.9 124.5h15.4l71.9-124.5h13.2l-71.9 124.5h15.4L245 404.8h6.6l3.3 5.7-68.6 118.8h15.4l60.9-105.4 6.6 11.4-54.3 94h15.4l46.6-80.6 6.6 11.4-40 69.2h15.4l32.3-55.8 6.6 11.4-25.7 44.4h15.4l17.9-31.1 71.9 124.5 7.7-13.4-71.9-124.5 6.6-11.4L391.8 598l7.7-13.4-71.9-124.5 6.6-11.4 71.9 124.5 7.7-13.4-71.9-124.5 6.6-11.4 71.9 124.5 7.7-13.4-71.9-124.5 3.3-5.7h6.6l68.6 118.8 7.7-13.4-60.9-105.4h13.2l54.3 94 7.7-13.4-46.6-80.6h13.2l40 69.2 7.7-13.4-32.2-55.8H452l25.6 44.4 7.7-13.4-17.9-31.1h143.8zM430 366.7h-13.2l-6.6-11.4h13.2l6.6 11.4zm-41.8-99.2-3.3-5.7 3.3-5.7h13.2l-6.6 11.4h-6.6zm-79.3-49.6h-6.6l-3.3-5.7 6.6-11.4 6.6 11.4-3.3 5.7zm-82.6 43.9-3.3 5.7h-6.6l-6.6-11.4H223l3.3 5.7zm-3.3 93.5 3.3 5.7-3.3 5.7h-13.2l6.6-11.4h6.6zm79.3 49.5h6.6l3.3 5.7-6.6 11.4-6.6-11.4 3.3-5.7zm82.6-43.8 3.3-5.7h6.6l6.6 11.4h-13.2l-3.3-5.7zm30.8-19.1h-13.2l-3.3-5.7 3.3-5.7h6.6l6.6 11.4zm-6.6-49.6h-6.6l-3.3-5.7 3.3-5.7h13.2l-6.6 11.4zm14.3-24.8h-13.2l6.6-11.4H430l-6.6 11.4zm20.9-36.2-6.6 11.4h-13.2l6.6-11.4h13.2zm-28.6 0-6.6 11.4h-13.2l6.6-11.4h13.2zm-28.6 0-6.6 11.4h-6.6l-3.3-5.7 3.3-5.7h13.2zm-46.3-19.1-3.3 5.7h-6.6l-3.3-5.7 6.6-11.4 6.6 11.4zm-14.3-24.7-6.6 11.4-6.6-11.4 6.6-11.4 6.6 11.4zm-20.9-36.3 6.6 11.4-6.6 11.4-6.6-11.4 6.6-11.4zM291.3 176l6.6 11.4-6.6 11.4-6.6-11.4 6.6-11.4zM277 200.8l6.6 11.4-3.3 5.7h-6.6l-3.3-5.7 6.6-11.4zm-39.6 30.5 3.3 5.7-3.3 5.7h-6.6l-6.6-11.4h13.2zm-28.7 0 6.6 11.4h-13.2l-6.6-11.4h13.2zm-41.8 0h13.2l6.6 11.4h-13.2l-6.6-11.4zm14.3 24.8h13.2l6.6 11.4h-13.2l-6.6-11.4zm14.3 24.8h13.2l3.3 5.7-3.3 5.7h-6.6l-6.6-11.4zm6.6 49.6h6.6l3.3 5.7-3.3 5.7h-13.2l6.6-11.4zm-14.3 24.8H201l-6.6 11.4h-13.2l6.6-11.4zm-20.9 36.2 6.6-11.4h13.2l-6.6 11.4h-13.2zm28.6 0 6.6-11.4h13.2l-6.6 11.4h-13.2zm28.6 0 6.6-11.4h6.6l3.3 5.7-3.3 5.7h-13.2zm46.3 19 3.3-5.7h6.6l3.3 5.7L277 422l-6.6-11.5zm14.3 24.8 6.6-11.4 6.6 11.4-6.6 11.4-6.6-11.4zm20.9 36.3-6.6-11.4 6.6-11.4 6.6 11.4-6.6 11.4zm14.3-24.8-6.6-11.4 6.6-11.4 6.6 11.4-6.6 11.4zm14.3-24.8-6.6-11.4 3.3-5.7h6.6l3.3 5.7-6.6 11.4zm39.7-30.5-3.3-5.7 3.3-5.7h6.6l6.6 11.4h-13.2zm28.6 0-6.6-11.4h13.2l6.6 11.4h-13.2zm28.6 0-6.6-11.4h13.2l6.6 11.4h-13.2z"></path></svg>