<svg xmlns="http://www.w3.org/2000/svg" width="593.5" viewBox="0 0 593.5 348.8" height="348.8"><path d="M528.2 218.2h-28.4L586 31.3c5.1-11.1.3-24.1-10.8-29.2-11.1-5.1-24.1-.3-29.2 10.8l-84 182.2c-2.2 4.8-9.1 4.8-11.3 0l-84-182.2c-5.1-11.1-18.2-16-29.3-10.9-11.1 5.1-15.9 18.2-10.8 29.2l86.1 186.9h-35.1s-26.7-57.8-30-65.5c-8.8-20.4-18.1-44.3-29.8-64.1-12.3-20.8-30.5-38-52-49.1C218.2 15 158.4 19.8 117.3 54c-27.4 22.7-41.9 54.5-44.1 91.4-2.2 37.2 8.4 71.2 33.4 97.6 22.9 24.1 59.8 38.9 94 38.9 7.3 0 14.6-.7 21.5-2.1 29.2-6 48.5-21.9 58.6-49.2 11.4-30.8 3.9-69.9-22.1-90.4-23.2-18.3-57-22.4-83.8-9.9-11 5.2-15.8 18.3-10.6 29.3 5.2 11 18.3 15.8 29.3 10.6 11.4-5.3 26-3.8 36.2 3.6 12 8.7 17.3 27.6 12.1 41.5-4.8 13-14.2 20.8-28.5 23.7-57.7 11.8-107.7-40.8-100.4-97.8 8.2-63.7 80-98 137.6-60.6 6.9 4.5 13.3 9.6 18.8 15.7 14.7 15.9 28.9 47.9 40.1 73.8 3.5 8.1 42.4 92.1 42.4 92.1h176.5c11.7 0 21.2 9.5 21.2 21.2s-9.5 21.2-21.2 21.2H22c-12.2 0-22 9.9-22 22 0 12.2 9.9 22 22 22h506.2c36 0 65.3-29.3 65.3-65.3 0-35.8-29.3-65.1-65.3-65.1z"></path></svg>