<svg xmlns="http://www.w3.org/2000/svg" width="619.9" viewBox="0 0 619.9 619.9" height="619.9" xml:space="preserve" style="enable-background:new 0 0 619.9 619.9"><path d="M201.1 139.7c-26.1 0-47.2 21.2-47.2 47.2s21.1 47.2 47.2 47.2 47.2-21.1 47.2-47.2-21.1-47.2-47.2-47.2zM308.8 139.7c-26.1 0-47.2 21.2-47.2 47.2s21.1 47.2 47.2 47.2S356 213 356 186.9s-21.1-47.2-47.2-47.2zM418.8 139.7c-26.1 0-47.2 21.2-47.2 47.2s21.2 47.2 47.2 47.2c26.1 0 47.2-21.1 47.2-47.2s-21.1-47.2-47.2-47.2z"></path><path d="M310 0C138.8 0 0 138.8 0 309.9c0 171.2 138.8 310 310 310s310-138.8 310-310C619.9 138.8 481.1 0 310 0zm0 539.2c-60.3 0-115.1-23.3-156-61.4-.4-.4-.6-.6-.1-1 17.5-3.1 33-12.1 44.1-25 13.9 16 34.3 26.2 57.2 26.2 21.6 0 41-9.1 54.8-23.5 13.8 14.5 33.2 23.5 54.8 23.5 22.9 0 43.3-10.2 57.2-26.2 11 12.7 26 22.1 43.2 24.9 1.2.2 1.2.8.8 1.2-41 38-95.8 61.3-156 61.3zm207.1-131.7c-.5.3-1.1.4-1.8.4-25.7 0-49.2-23.5-49.2-49.2V240.3h-92.7v128.8c0 4.8-3.9 8.7-8.7 8.7-4.8 0-8.7-3.9-8.7-8.7V240.3h-92.2v128.8c0 4.8-3.9 8.7-8.7 8.7-4.8 0-8.7-3.9-8.7-8.7V240.3h-92.7v118.4c0 25.7-23.5 49.2-49.2 49.2h-1c-1-.1-1.3-.5-1.7-1.4-13.6-29.3-21.3-62-21.3-96.5C80.7 183.3 183.3 80.7 310 80.7c126.6 0 229.2 102.6 229.2 229.2 0 34.5-7.7 67.2-21.3 96.5-.2.6-.5.9-.8 1.1z"></path></svg>