<svg xmlns="http://www.w3.org/2000/svg" width="592.4" viewBox="0 0 592.4 602.7" height="602.7" xml:space="preserve" style="enable-background:new 0 0 592.4 602.7"><path d="M222.2 273.2H258v56.2h-35.8zM166 217.1h35.8v56.2H166zM278.3 217.1h35.8v56.2h-35.8zM278.3 0h35.8v160.9h-35.8zM390.7 217.1h35.8v56.2h-35.8zM334.5 273.2h35.8v56.2h-35.8zM324.347 283.407v35.8h-56.2v-35.8zM324.307 395.766v35.8h-56.2v-35.8zM324.288 171.048v35.8h-56.2v-35.8zM268.088 227.307v35.8h-56.2v-35.8zM380.447 227.248v35.8h-56.2v-35.8zM166 329.4h35.8v56.2H166zM278.3 329.4h35.8v56.2h-35.8zM390.7 329.4h35.8v56.2h-35.8zM268.147 339.666v35.8h-56.2v-35.8zM380.507 339.607v35.8h-56.2v-35.8zM211.903 283.452v35.8h-212v-35.8zM212 206.8h-64.8l-99.3-75.1 21.6-28.5 89.7 67.9H212z"></path><path d="M201.7 147.4 132 50.8l-29 21 64.2 89.1h34.5zM257.9 217.1h-35.7V156L179.6 23.3l34-10.9 44.3 138zM370.3 217.1h-35.8v-66.7l44.3-138 34 10.9L370.3 156zM445.2 206.8h-64.7v-35.7h52.7l89.7-67.9 21.6 28.5zM592.392 283.462v35.8h-212v-35.8zM155.8 263v-35.1L21.1 182.3 9.6 216.1 148 263zM436.7 265.7l146.2-49.6-11.5-33.8-134.7 45.6z"></path><path d="m460.5 50.8-69.8 96.6v13.5h34.5l64.3-89.1zM278.3 441.8h35.8v160.9h-35.8zM212 395.8h-64.8l-99.3 75.1 21.6 28.5 89.7-67.8H212z"></path><path d="M201.7 455.2 132 551.8l-29-20.9 64.2-89.1h34.5zM257.9 385.6h-35.7v61l-42.6 132.7 34 10.9 44.3-138zM370.3 385.6h-35.8v66.6l44.3 138 34-10.9-42.5-132.7zM445.2 395.8h-64.7v35.8h52.7l89.7 67.8 21.6-28.5zM155.8 339.6v35.1L21.1 420.4 9.6 386.5 148 339.6zM436.7 337l146.2 49.5-11.5 33.9-134.7-45.7z"></path><path d="m460.5 551.8-69.8-96.6v-13.4h34.5l64.3 89.1z"></path></svg>