<svg data-name="Layer 1" xmlns="http://www.w3.org/2000/svg" viewBox="0 0 625.58 625.58"><path d="M312.79 0C140.04 0 0 140.04 0 312.79s140.04 312.79 312.79 312.79 312.79-140.04 312.79-312.79S485.54 0 312.79 0Zm0 526.83c-118.02 0-214.03-96.02-214.03-214.04S194.77 98.75 312.79 98.75s214.04 96.01 214.04 214.03-96.02 214.04-214.04 214.04Z"></path><path d="M312.79 111.44c-111.02 0-201.35 90.33-201.35 201.35s90.33 201.36 201.35 201.36 201.36-90.33 201.36-201.36-90.33-201.35-201.36-201.35Zm0 379.02c-36.3 0-65.72-29.43-65.72-65.72s29.42-65.72 65.72-65.72 65.72 29.43 65.72 65.72-29.42 65.72-65.72 65.72Zm0-223.89c-36.3 0-65.72-29.43-65.72-65.72s29.42-65.72 65.72-65.72 65.72 29.43 65.72 65.72-29.42 65.72-65.72 65.72Z"></path></svg>