<svg xmlns="http://www.w3.org/2000/svg" width="576.2" viewBox="0 0 576.2 642" height="642" style="overflow:visible;enable-background:new 0 0 576.2 642" xml:space="preserve"><path d="M338.6 251.5v136.3c0 20.3-4.4 38.9-12.4 55.8-16.1 34.1-35 43-50.2 59.9-22.4 24.7-35.8 56.1-38.1 89.5-.6 11.4-.3 10.8-.4 49.1H0V321C0 148.6 150 15.4 321 34.7c-.1 15.5-1 29.8-7.8 48.4-131-13.3-243.4 79.3-261.6 202.6h17.8C87.3 174.6 187.9 91.1 305.6 100.2c-8.3 15.7-21.5 30.9-28.8 36.6-84.6 5.1-154.1 67.5-169.9 148.9h18c14-64.7 65.7-115.6 130.8-128.5-11.9 13.9-21.4 30.3-27.7 48.5-31.4 16.4-55.3 45.3-65.1 80h18.5c7.4-22.5 21.8-41.7 40.4-55.3-3.2 18.6-2 180.5-2 180.5 6.1 0 12-.7 17.7-2.1 34-8 59.4-38.5 59.4-75v-25.7c.1-26.5 17.6-49.1 41.7-56.6z"></path><path d="M237.6 390.5V254.2c0-20.3 4.4-38.9 12.4-55.8 16.1-34.1 35-43 50.2-59.9 22.4-24.7 35.8-56.1 38.1-89.5.6-11.4.3-10.8.4-49.1h237.5v321c0 172.4-150 305.6-321 286.3.1-15.5 1-29.8 7.8-48.4 131 13.3 243.4-79.3 261.6-202.6h-17.8C489 467.3 388.3 550.8 270.7 541.7c8.3-15.7 21.5-30.9 28.8-36.6 84.6-5.1 154.1-67.5 169.9-148.9h-18c-14 64.7-65.7 115.6-130.8 128.5 11.9-13.9 21.4-30.3 27.7-48.5 31.4-16.4 55.3-45.3 65.1-80h-18.5c-7.4 22.5-21.8 41.7-40.4 55.3 3.2-18.6 1.5-27.3 2-90.7v-89.9c-6.1 0-12 .7-17.7 2.1-34 8-59.4 38.5-59.4 75v25.7c-.2 26.7-17.7 49.3-41.8 56.8z"></path></svg>