<svg xmlns="http://www.w3.org/2000/svg" width="623.6" viewBox="0 0 623.6 547.6" height="547.6" xml:space="preserve"><path d="M326.2 273.5 475 205.7l148.6 68.5L474.8 342zM147.7 206.7 0 272.6l147.4 66.7 147.7-65.9-147.4-66.7zM73 272.3l73.7-34.5 77.4 35-76.6 33.6L73 272.3z"></path><g><path d="m153.5 0 16 164.2 132.4 96.1-18.6-163.1L153.5 0zm34.9 61.6 68.2 51 9.8 84.7-69.5-51.4-8.5-84.3zM336.6 97.2 318 260.3l132.4-96.1L466.4 0 336.6 97.2zm86.5 48.6-69.5 51.4 9.8-84.7 68.2-51-8.5 84.3zM283.9 450.5l18.6-163.2-132.4 96.1-16 164.2 129.8-97.1zm-86.5-48.7 69.5-51.4-9.8 84.7-68.2 51 8.5-84.3zM466.9 547.6l-16-164.2-132.4-96.1 18.6 163.2 129.8 97.1zm-34.8-61.5-68.2-51-9.8-84.7 69.5 51.4 8.5 84.3z"></path></g></svg>