<svg data-name="Layer 1" xmlns="http://www.w3.org/2000/svg" viewBox="0 0 604.39 604.39"><path d="M418.77 365.61h-73.03L303.67 60.25c-.24-1.72-2.72-1.72-2.96 0l-42.06 305.36h-73.03c14.19 29.26 33.75 55.43 57.36 77.28l-68.58 68.58c3.72.16 7.45.28 11.21.28 41.95 0 81.54-10.04 116.59-27.74 35.05 17.71 74.63 27.74 116.59 27.74 3.76 0 7.49-.13 11.2-.28l-68.58-68.58c23.62-21.85 43.17-48.01 57.36-77.28Z"></path><circle cx="211.08" cy="211.27" r="44.57"></circle><path d="M393.31 166.7c-24.61 0-44.57 19.95-44.57 44.57s19.95 44.57 44.57 44.57 44.57-19.95 44.57-44.57-19.95-44.57-44.57-44.57Z"></path><path d="M302.2 0C135.56 0 0 135.56 0 302.2s135.56 302.2 302.2 302.2 302.2-135.57 302.2-302.2S468.83 0 302.2 0Zm0 572.83c-149.22 0-270.63-121.4-270.63-270.63S152.97 31.57 302.2 31.57s270.63 121.4 270.63 270.63-121.4 270.63-270.63 270.63Z"></path></svg>