<svg xmlns="http://www.w3.org/2000/svg" width="620.2" viewBox="0 0 620.2 620.2" height="620.2" xml:space="preserve" style="enable-background:new 0 0 620.2 620.2"><path d="M456 0H157.4L0 156.9v306.4l157.4 157H456l164.3-164.9V166.7L456 0zM354.3 591.9H311s-84.3-86.1-87.3-89.1-6.1 0-6.1 0l-7.8 7.6s-2.9 3.2 0 6.1c2.9 2.9 73.9 75.4 73.9 75.4H242S192.8 541 189.8 538s-6.1 0-6.1 0l-7.8 7.6s-2.8 3.3 0 6.1 38.9 40.2 38.9 40.2h-45.7L28.5 451.8l134.1-132.9h68.9l70.2 70.2v51.2s-44.5-45-47.3-47.7c-2.7-2.7-6 0-6 0l-7.9 7.6s-3.1 3 0 6.1c3.1 3.1 184 185.7 184 185.7h-42.9S261.9 470.5 258.8 467.4c-3.1-3.1-6.1 0-6.1 0l-7.9 7.6s-3.3 2.8 0 6.1c3.4 3.2 109.5 110.8 109.5 110.8zm34.8-273.3h51.3s-44.5 44.1-47.7 47.3c-3.2 3.2 0 6.1 0 6.1l7.6 7.8s3.4 2.7 6.1 0c2.7-2.7 185.6-183.9 185.6-183.9v42.9S470.5 358.6 467.5 361.5c-3 3 0 6 0 6l7.6 7.9s3 3.1 6.1 0c3.1-3.1 110.8-109.2 110.8-109.2v43.3s-86.2 84.5-89 87.2c-2.7 2.7 0 6.1 0 6.1l7.6 7.8s3.5 2.7 6.1 0c2.6-2.6 75.3-73.8 75.3-73.8v41.8s-50.9 49.2-53.8 52.1c-2.9 2.9 0 6 0 6l7.6 7.9s2.8 3.3 6.1 0c3.4-3.4 40.1-38.9 40.1-38.9v38L448.1 588 318.8 457.5v-68.7l70.3-70.2zM587 173.3 457.6 301.5H389l-70.2-70.2v-51.4s44.2 44.7 47.3 47.7c3 3 6.1 0 6.1 0l7.8-7.6s3.1-3 0-6.1c-3.2-3.2-184-185.6-184-185.6h42.9s119.5 121.3 122.7 124.5c3.2 3.2 6.1 0 6.1 0l7.9-7.6s3.1-3 0-6.1C372.4 136 266.3 28.3 266.3 28.3h43.3s83.8 85.5 87.2 89c3.4 3.4 6 0 6 0l7.8-7.6s3.3-2.8 0-6.1-73.8-75.3-73.8-75.3h41.7s48.7 50.4 52.1 53.8c3.4 3.4 6 0 6 0l7.9-7.6s3.2-2.9 0-6.1c-3.2-3.2-38.9-40.1-38.9-40.1H444l143 145zM168.8 28.5l132.8 134.1v68.7l-70.5 70.5h-51.2l47.7-47.3s2.8-3.2 0-6.1c-2.8-2.8-4.4-4.7-7.6-7.9-3.2-3.1-6.1 0-6.1 0l-185.7 184v-42.9l124.6-122.8s2.9-3.1 0-6.1c-2.9-2.9-4.8-5.1-7.6-7.8-2.8-2.8-6.1 0-6.1 0L28.3 354.3V311l89-87.3s2.9-3.1 0-6.1c-2.9-2.9-4.6-4.9-7.6-7.8-3-3-6.1 0-6.1 0l-75.4 73.9V242L82 189.8s2.8-3.3 0-6.1-4.8-5.1-7.6-7.8c-2.8-2.8-6.1 0-6.1 0l-40.2 38.9v-46.2L168.8 28.5z"></path></svg>