<svg xmlns="http://www.w3.org/2000/svg" width="620.4" viewBox="0 0 620.4 518.3" height="518.3" xml:space="preserve"><path d="M514.5 313.9h-93.4c-.8 0-2.4 0-3.6-2.1-1.2-2.1-.4-3.5 0-4.2l91.3-155.8.1-.1c9.3-15.9 14-34 13.8-52.2-.3-17.1-4.9-34-13.5-48.9-8.6-14.9-20.8-27.4-35.4-36.2C458.1 5 440.1 0 421.7 0H204.8c-18.4 0-36.4 5-52 14.4-14.6 8.8-26.9 21.3-35.4 36.2-8.6 14.9-13.2 31.8-13.5 48.9-.3 18.2 4.5 36.2 13.8 52.2L209 307.6c.4.7 1.2 2.1 0 4.2s-2.8 2.1-3.6 2.1c-174.7.3-203.8.5-204.1.5H.1v103.4l205.5-.1c19.7 0 38.9-5.4 55.6-15.4 15.6-9.4 28.7-22.9 37.9-38.8 8.7-15.2 13.7-32.4 14.3-49.8.7 17.4 5.6 34.6 14.3 49.8 9.1 15.9 22.2 29.4 37.9 38.8 16.6 10.1 35.9 15.4 55.6 15.4h93.5c1.2 0 2.2 1 2.2 2.2v98.5h103.7v-98.5c-.2-58.5-47.7-106-106.1-106zm-215.9-58.6-87.7-149.8c-.3-.5-.1-1 0-1.2.1-.2.4-.6 1.1-.6h202.7c.6 0 .9.4 1.1.6.1.2.3.7 0 1.2L328 255.2l-.1.1c-9 15.4-14 32.7-14.7 50.3-.6-17.6-5.7-34.9-14.6-50.3z"></path></svg>