<svg id="Layer_1" data-name="Layer 1" xmlns="http://www.w3.org/2000/svg" viewBox="0 0 571.61 623.45">
  <path d="M454.69,0h-170.8V113.09L170.8,0H0V506.54l116.92,116.92h170.8v-113.09l113.08,113.09h170.8V116.92L454.69,0Zm1.09,6.37l109.46,109.46h-109.46V6.37Zm-3.73-2.64V115.83h-47.48L290.32,3.73h161.74Zm-164,333.53h-122.12v166.64h-46.38V119.55h46.07v48.71l117.93,117.93h122.12V119.55h46.38V503.9h-46.07v-48.71l-117.93-117.93Zm-115.65,3.73h111.49v111.46l-111.49-111.46Zm115.21,1.1l112,112h-111.9l-.11-112Zm111.59-59.63h-111.49v-111.46l111.49,111.46Zm-115.21-1.1l-112-112h111.9l.11,112Zm3.62-275.06l114.33,112.17v161.46l-114.23-114.19v-.11l-.11-159.32Zm-118.26-2.48l112,112h-112V3.82Zm0,115.73h114.53v46.07h-114.53v-46.07Zm-53.53,497.53L6.37,507.63H115.83v109.46Zm0-113.19H3.73V6.37L115.83,118.47V503.9ZM6.37,3.73H165.63V115.83h-47.16L6.37,3.73ZM119.55,619.73v-112.1h47.48l114.26,112.1H119.55Zm164.44-2.58l-114.33-112.17v-161.46l114.23,114.19v.11l.11,159.32Zm118.26,2.48l-112-112h112v112Zm0-115.73h-114.53v-46.07h114.53v46.07Zm3.73,115.82v-112.1h47.16l112.1,112.1h-159.26Zm161.9-2.63l-112.1-112.1V119.55h112.1v497.53Z"></path>
</svg>