<svg xmlns="http://www.w3.org/2000/svg" id="a" width="642" viewBox="0 0 642 322.6" height="322.6" data-name="Layer 1"><defs></defs><path d="m566.18 322.6-52.97-.06c0-85.39-55.98-157.93-133.21-182.84v182.84h-52.97V77.49c18.17.45 35.95 2.89 52.97 7.13 106.89 26.39 186.18 122.88 186.18 237.99ZM75.82 322.6l52.97-.06c0-85.39 55.98-157.93 133.22-182.84v182.84h52.96V77.49c-18.17.45-35.95 2.89-52.96 7.13C155.12 111.01 75.83 207.5 75.83 322.61Z" class="b"></path><path d="M642 0v322.54h-70.62V70.62H70.62v251.92H0V0h642z" class="b"></path></svg>