<svg xmlns="http://www.w3.org/2000/svg" width="507.5" viewBox="0 0 507.5 600.4" height="600.4"><path d="M424.8 93.3c-.6-.6-1.5-.6-2.1-.1-.6.5-.7 1.4-.2 2.1 29.1 42.2 45.1 94.1 45.1 149.2 0 144.4-117.3 261.6-261.6 261.6l-.1.1v-.1H94.2V360.7c0-33.4-27.1-60.5-60.5-60.5h-.1c-12.5 0-24 3.8-33.6 10.3v289.9h207.3c165.7 0 300.2-134.5 300.2-300.2 0-80.2-31.5-153-82.7-206.9z"></path><path d="M205.8 94.2c83 0 150.3 67.4 150.3 150.4 0 82.9-67.3 150.3-150.3 150.3l-.3.3-.2-84.7c-9.6-6.4-21.2-10.2-33.6-10.2h-.1c-33.4 0-60.5 27.1-60.5 60.5v128.3h94.6v-.1l.1.1c134.9 0 244.5-109.6 244.5-244.5C450.4 109.6 340.8 0 205.9 0H0v94.2h205.8z"></path><path d="M205.8 205.5c52.3.1 94.7 42.5 94.7 94.7v.1c0 17.3-4.7 33.6-12.8 47.6 30.8-24.2 50.6-61.9 50.6-104.1 0-73.1-59.3-132.4-132.4-132.4l-.1.1v-.1H0v94.2l205.8-.1z"></path><path d="M172.4 274.6s-38.3-41.6-58.2-63c-3-3.2-7.1-5.1-11.6-5.1-4.4 0-8.6 1.8-11.6 5-19.9 21.4-58.3 63-58.3 63 20.9 10.9 44.7 17.1 69.9 17.1 19.7 0 38.4-3.8 55.7-10.6l14.1-6.4z"></path></svg>