<svg xmlns="http://www.w3.org/2000/svg" width="625.7" viewBox="0 0 625.7 555" height="555" xml:space="preserve" style="enable-background:new 0 0 625.7 555"><path d="M390.9 0c-27.5 0-53.8 4.8-78.3 13.6C288.2 4.8 261.8 0 234.4 0 105.2 0 0 106.5 0 237.5S105.2 475 234.4 475c18.8 0 37.1-2.3 54.6-6.6V555h47.1v-86.6c17.6 4.3 35.9 6.6 54.7 6.6 129.4 0 234.7-106.5 234.7-237.5C625.7 106.5 520.4 0 390.9 0zM289.1 77.9v42.9L254 107.7c10.4-11.3 22.2-21.3 35.1-29.8zm-63.4 69.7 63.4 23.7V212l-77.8-29.2c3.6-12.3 8.5-24.1 14.4-35.2zm63.4 114.9v39.3l-82.8-31.1a190.4 190.4 0 0 1-2.9-33.1c0-2.4.1-4.7.2-7.1l85.5 32zm0 89.7V397c-26.1-17.2-47.7-40.7-62.7-68.4l62.7 23.6zm47.1 44.8v-44.6l62.4-23.4c-15 27.6-36.5 51-62.4 68zm85.6-159.5c0 11.4-1.1 22.5-3 33.4l-82.6 31v-39.3l85.4-32c.1 2.3.2 4.6.2 6.9zm-85.6-25.3v-40.7l63.4-23.7c5.9 11.1 10.7 22.9 14.3 35.2l-77.7 29.2zm0-91.2V78c12.9 8.5 24.7 18.5 35.1 29.9L336.2 121zM47.1 237.5c0-104.9 84-190.2 187.3-190.2 5.1 0 10.2.3 15.2.7-56.7 43.4-93.4 112.2-93.4 189.5s36.7 146.1 93.4 189.5c-5 .4-10.1.7-15.2.7-103.2 0-187.3-85.3-187.3-190.2zm343.8 190.2c-5.2 0-10.3-.3-15.3-.7 56.6-43.4 93.3-112.2 93.3-189.5S432.2 91.4 375.6 48c5.1-.4 10.2-.7 15.3-.7 103.4 0 187.6 85.3 187.6 190.2 0 104.9-84.1 190.2-187.6 190.2z"></path></svg>