<svg xmlns="http://www.w3.org/2000/svg" width="614.8" viewBox="0 0 614.8 615.9" height="615.9" style="enable-background:new 0 0 614.8 615.9" xml:space="preserve"><path d="M383.9 384.9v154H231v-154H77V231h154V0h-77v154H0v307.9h154v154h306.9v-154h153.9v-77z"></path><circle cx="307.9" cy="307.6" r="84"></circle><path d="M460.9 154v-48.1C460.9 47.4 413.5 0 355 0h-76.8v77h64.5c22.8 0 41.3 18.5 41.3 41.3V231h112.7c22.8 0 41.3 18.5 41.3 41.3v66.5h77v-78.9c0-58.5-47.4-105.9-105.9-105.9h-48.2z"></path></svg>