<svg data-name="Layer 1" xmlns="http://www.w3.org/2000/svg" viewBox="0 0 615.39 615.39"><path d="M323.08 291.28c48.31-7.08 85.33-48.72 85.33-98.97 0-55.18-44.82-100-100-100s-100 44.82-100 100c0 49.74 36.31 90.97 83.9 98.67V184.62h30.77v106.67Zm0 292.92c145.74-8 261.54-128.72 261.54-276.51s-124-276.92-276.93-276.92-276.92 124-276.92 276.92S146.57 576.2 292.31 584.2V322.05c-64.62-8-114.67-63.08-114.67-129.74 0-72.21 58.56-130.77 130.77-130.77s130.77 58.56 130.77 130.77c0 67.28-50.77 122.67-116.1 129.95v261.95Zm-15.38 31.18c169.95 0 307.69-137.74 307.69-307.69S477.64 0 307.69 0 0 137.74 0 307.69s137.74 307.69 307.69 307.69Z" style="fill-rule:evenodd"></path></svg>