<svg xmlns="http://www.w3.org/2000/svg" id="Layer_1" viewBox="0 0 642 413.29"><defs></defs><path d="M396.43 197.01V0h147.06C597.89 0 642 44.1 642 98.51s-44.1 98.51-98.51 98.51H396.43ZM603.77 92.12a6.416 6.416 0 0 0-5.71 7.06 6.416 6.416 0 0 0 7.06 5.71 6.416 6.416 0 0 0 5.71-7.06 6.416 6.416 0 0 0-7.06-5.71ZM581.6 51.37c-2.23 2.76-1.81 6.8.95 9.03 2.76 2.23 6.8 1.81 9.03-.95 2.23-2.76 1.81-6.8-.95-9.03-2.76-2.23-6.8-1.81-9.03.95Zm-44.49-13.14a6.416 6.416 0 0 0 7.06 5.71 6.416 6.416 0 0 0 5.71-7.06 6.416 6.416 0 0 0-7.06-5.71 6.416 6.416 0 0 0-5.71 7.06Zm12.77 120.56a6.416 6.416 0 0 0-7.06-5.71 6.416 6.416 0 0 0-5.71 7.06 6.416 6.416 0 0 0 7.06 5.71 6.416 6.416 0 0 0 5.71-7.06Zm40.75-22.17c-2.76-2.23-6.8-1.81-9.03.95-2.23 2.76-1.81 6.8.95 9.03 2.76 2.23 6.8 1.81 9.03-.95 2.23-2.76 1.81-6.8-.95-9.03Zm-99.4-105.48c-3.55 0-6.42 2.87-6.42 6.42s2.87 6.42 6.42 6.42 6.42-2.87 6.42-6.42-2.87-6.42-6.42-6.42Zm-52.26 0c-3.55 0-6.42 2.87-6.42 6.42s2.87 6.42 6.42 6.42 6.42-2.87 6.42-6.42-2.87-6.42-6.42-6.42Zm58.68 128.32c0-3.55-2.87-6.42-6.42-6.42s-6.42 2.87-6.42 6.42 2.87 6.42 6.42 6.42 6.42-2.87 6.42-6.42Zm-52.26 0c0-3.55-2.87-6.42-6.42-6.42s-6.42 2.87-6.42 6.42 2.87 6.42 6.42 6.42 6.42-2.87 6.42-6.42ZM543.49 216.27c54.4 0 98.51 44.1 98.51 98.51s-44.1 98.51-98.51 98.51H396.43V216.28h147.06Zm67.33 99.18c.37-3.53-2.19-6.69-5.71-7.06s-6.69 2.19-7.06 5.71c-.37 3.53 2.19 6.69 5.71 7.06s6.69-2.19 7.06-5.71Zm-20.2 47.42c2.76-2.23 3.18-6.27.95-9.03-2.23-2.76-6.27-3.18-9.03-.95-2.76 2.23-3.18 6.27-.95 9.03 2.23 2.76 6.27 3.18 9.03.95Zm-47.81 19.25c3.53.37 6.69-2.19 7.06-5.71.37-3.53-2.19-6.69-5.71-7.06-3.53-.37-6.69 2.19-7.06 5.71-.37 3.53 2.19 6.69 5.71 7.06Zm1.34-134.67c-3.53-.37-6.69 2.19-7.06 5.71-.37 3.53 2.19 6.69 5.71 7.06 3.53.37 6.69-2.19 7.06-5.71.37-3.53-2.19-6.69-5.71-7.06Zm47.42 20.2c-2.23-2.76-6.27-3.18-9.03-.95-2.76 2.23-3.18 6.27-.95 9.03 2.23 2.76 6.27 3.18 9.03.95 2.76-2.23 3.18-6.27.95-9.03Zm-93.93 108.09c0-3.55-2.87-6.42-6.42-6.42s-6.42 2.87-6.42 6.42 2.87 6.42 6.42 6.42 6.42-2.87 6.42-6.42Zm-52.26 0c0-3.55-2.87-6.42-6.42-6.42s-6.42 2.87-6.42 6.42 2.87 6.42 6.42 6.42 6.42-2.87 6.42-6.42Zm45.84-128.32c-3.55 0-6.42 2.87-6.42 6.42s2.87 6.42 6.42 6.42 6.42-2.87 6.42-6.42-2.87-6.42-6.42-6.42Zm-52.26 0c-3.55 0-6.42 2.87-6.42 6.42s2.87 6.42 6.42 6.42 6.42-2.87 6.42-6.42-2.87-6.42-6.42-6.42ZM206.64 413.29C92.52 413.29 0 320.77 0 206.64S92.52 0 206.64 0h170.53v413.29H206.64ZM188.29 32.1c-3.53.37-6.08 3.53-5.71 7.06s3.53 6.08 7.06 5.71a6.416 6.416 0 0 0 5.71-7.06 6.416 6.416 0 0 0-7.06-5.71Zm-66.74 21.04c-3.1 1.72-4.22 5.63-2.5 8.73s5.63 4.22 8.73 2.5a6.423 6.423 0 0 0 2.5-8.73 6.423 6.423 0 0 0-8.73-2.5ZM68.34 98.59a6.416 6.416 0 0 0 1.11 9.01 6.416 6.416 0 0 0 9.01-1.11 6.416 6.416 0 0 0-1.11-9.01 6.416 6.416 0 0 0-9.01 1.11Zm-31.23 62.63c-.92 3.42 1.11 6.95 4.54 7.86 3.42.92 6.95-1.11 7.86-4.54.92-3.42-1.11-6.95-4.54-7.86-3.42-.92-6.95 1.11-7.86 4.54Zm-4.27 69.85a6.411 6.411 0 0 0 7.25 5.46 6.411 6.411 0 0 0 5.46-7.25 6.411 6.411 0 0 0-7.25-5.46 6.411 6.411 0 0 0-5.46 7.25Zm23.36 65.97a6.427 6.427 0 0 0 8.81 2.2 6.427 6.427 0 0 0 2.2-8.81 6.427 6.427 0 0 0-8.81-2.2 6.427 6.427 0 0 0-2.2 8.81Zm47.28 51.6a6.426 6.426 0 0 0 8.97-1.42 6.426 6.426 0 0 0-1.42-8.97 6.426 6.426 0 0 0-8.97 1.42 6.426 6.426 0 0 0 1.42 8.97Zm63.68 29.02c3.45.8 6.9-1.36 7.7-4.81.8-3.45-1.36-6.9-4.81-7.7-3.45-.8-6.9 1.36-7.7 4.81s1.36 6.9 4.81 7.7Zm89.67-346.52c-3.55 0-6.42 2.87-6.42 6.42s2.87 6.42 6.42 6.42 6.42-2.87 6.42-6.42-2.87-6.42-6.42-6.42Zm67.86 0c-3.55 0-6.42 2.87-6.42 6.42s2.87 6.42 6.42 6.42 6.42-2.87 6.42-6.42-2.87-6.42-6.42-6.42Zm-13 338.17c-3.55 0-6.42 2.87-6.42 6.42s2.87 6.42 6.42 6.42 6.42-2.87 6.42-6.42-2.87-6.42-6.42-6.42Zm-71.54 0c-3.55 0-6.42 2.87-6.42 6.42s2.87 6.42 6.42 6.42 6.42-2.87 6.42-6.42-2.87-6.42-6.42-6.42Z" class="cls-1"></path></svg>