<svg xmlns="http://www.w3.org/2000/svg" width="437.8" viewBox="0 0 437.8 612.3" height="612.3"><path d="M225.2 106.3v425.1c0 44.6 36.3 80.8 80.8 80.8s80.8-36.3 80.8-80.8v-323c0-30.5-24.8-55.3-55.3-55.3-30.5 0-55.3 24.8-55.3 55.3V480h38.3V208.5c0-9.4 7.6-17 17-17s17 7.6 17 17v323c0 23.5-19.1 42.5-42.5 42.5s-42.5-19.1-42.5-42.5V106.3c0-37.5 30.5-68.1 68.1-68.1s68.1 30.5 68.1 68.1v373.8H438V106.3C437.8 47.7 390.1 0 331.5 0S225.2 47.7 225.2 106.3zM212.7 531.5V106.3C212.7 47.7 165 0 106.3 0S0 47.7 0 106.3v373.8h38.3V106.3c0-37.5 30.5-68.1 68.1-68.1s68.1 30.5 68.1 68.1v425.1c0 23.5-19.1 42.5-42.5 42.5s-42.5-19.1-42.5-42.5v-323c0-9.4 7.6-17 17-17s17 7.6 17 17V480h38.3V208.5c0-30.5-24.8-55.3-55.3-55.3S51.1 178 51.1 208.5v323c0 44.6 36.3 80.8 80.8 80.8s80.8-36.3 80.8-80.8z"></path></svg>