<svg data-name="Layer 1" xmlns="http://www.w3.org/2000/svg" viewBox="0 0 623.38 451.88"><path d="M506.91 109.47c-31.9 0-60.83 12.9-81.88 33.74 2.03-8.59 3.13-17.53 3.13-26.74C428.16 52.25 375.91 0 311.69 0S195.22 52.25 195.22 116.47c0 9.2 1.11 18.15 3.13 26.74-21.06-20.84-49.99-33.74-81.89-33.74C52.25 109.47 0 161.72 0 225.94s52.25 116.47 116.47 116.47c31.9 0 60.83-12.9 81.89-33.74-2.03 8.59-3.13 17.54-3.13 26.74 0 64.22 52.25 116.47 116.47 116.47s116.47-52.25 116.47-116.47c0-9.2-1.11-18.14-3.13-26.74 21.05 20.84 49.99 33.74 81.88 33.74 64.22 0 116.47-52.25 116.47-116.47s-52.25-116.47-116.47-116.47Zm61.31 116.47c0 21.6-17.58 39.17-39.18 39.17s-39.17-17.57-39.17-39.17 17.57-39.17 39.17-39.17 39.18 17.57 39.18 39.17ZM311.69 55.16c21.6 0 39.17 17.57 39.17 39.17s-17.57 39.17-39.17 39.17-39.17-17.57-39.17-39.17 17.57-39.17 39.17-39.17Zm-61.12 20.37c-1.83 5.95-2.83 12.26-2.83 18.8 0 35.26 28.69 63.95 63.95 63.95s63.94-28.69 63.94-63.95c0-6.55-1-12.86-2.83-18.81 7.87 11.71 12.48 25.8 12.48 40.95 0 40.58-33.01 73.59-73.59 73.59s-73.59-33.01-73.59-73.59c0-15.14 4.6-29.22 12.47-40.94Zm143 123.67c-2.03 8.59-3.13 17.53-3.13 26.74s1.11 18.14 3.13 26.74c-11.84-11.72-26.16-20.92-42.11-26.74 15.95-5.81 30.27-15.02 42.11-26.74Zm-121.66 26.74c-15.95 5.81-30.27 15.02-42.11 26.74 2.03-8.59 3.13-17.53 3.13-26.74s-1.11-18.14-3.13-26.74c11.84 11.72 26.16 20.92 42.11 26.74Zm-216.75 0c0-21.6 17.57-39.17 39.17-39.17s39.17 17.57 39.17 39.17-17.57 39.17-39.17 39.17-39.17-17.57-39.17-39.17Zm61.31 73.59c-15.14 0-29.22-4.6-40.93-12.47 5.95 1.83 12.26 2.83 18.8 2.83 35.26 0 63.95-28.69 63.95-63.95s-28.69-63.95-63.95-63.95c-6.54 0-12.85 1-18.8 2.83 11.71-7.87 25.79-12.47 40.93-12.47 40.58 0 73.59 33.01 73.59 73.59s-33.01 73.59-73.59 73.59Zm195.22 97.19c-21.6 0-39.17-17.58-39.17-39.18s17.57-39.17 39.17-39.17 39.17 17.57 39.17 39.17-17.57 39.18-39.17 39.18Zm61.11-20.37c1.83-5.95 2.83-12.26 2.83-18.81 0-35.26-28.68-63.95-63.94-63.95s-63.95 28.69-63.95 63.95c0 6.54 1 12.85 2.83 18.8-7.87-11.71-12.47-25.79-12.47-40.93 0-40.58 33.01-73.59 73.59-73.59s73.59 33.01 73.59 73.59c0 15.14-4.61 29.23-12.48 40.94Zm60.52-150.41c0-40.58 33.01-73.59 73.59-73.59 15.14 0 29.22 4.6 40.93 12.47-5.95-1.83-12.26-2.83-18.8-2.83-35.26 0-63.94 28.69-63.94 63.95s28.68 63.95 63.94 63.95c6.54 0 12.85-1 18.8-2.83-11.71 7.87-25.79 12.47-40.93 12.47-40.58 0-73.59-33.01-73.59-73.59Z"></path></svg>