<svg xmlns="http://www.w3.org/2000/svg" width="601.1" viewBox="0 0 601.1 464.5" height="464.5" xml:space="preserve"><path d="M537.4 200.4v63.7h-73v-63.7h-63.7V0H337v68.3h-73V0h-63.7v63.6h-63.7V132h-73V63.6H0V264h63.7v-68.3h73V264h63.7v200.4h63.7v-68.3h73v68.3h63.7v-63.7h63.7v-73h73v73h63.7V200.4h-63.8zm-273.3 132v-68.3h-63.7v-63.7h63.7V132h73v68.3h63.7V264h-63.7v68.3h-73z"></path><path d="M327.4 232.2c0 14.8-12 26.8-26.8 26.8s-26.8-12-26.8-26.8 12-26.8 26.8-26.8 26.8 12 26.8 26.8z"></path></svg>