<svg xmlns="http://www.w3.org/2000/svg" width="625" viewBox="0 0 625 625" height="625" style="enable-background:new 0 0 625 625" xml:space="preserve"><path d="M524.4 286.7c-26.2 1.4-46 8.7-56.1 13-10.1 4.4-30.9 9.9-30.9 9.9L321 310.7l107.5-44.4s21.3-3 32.4-2.9c11 .1 32.1-1 56.8-9.9 24.7-8.9 94.7-34.2 94.7-34.2L588 161.8s-66.9 32.7-90.5 44.2c-23.6 11.5-39 25.9-46.6 33.9-7.6 8-24.6 21.2-24.6 21.2L320 307.4l82.7-81.2s18.6-10.8 28.9-14.9c10.3-4.1 29.3-12.9 48.9-30.5 19.6-17.5 75-67.3 75-67.3l-44.1-44.1s-49.7 55.4-67.3 75c-17.5 19.6-26.4 38.6-30.5 48.9-4.1 10.3-14.9 28.9-14.9 28.9l-81.5 83 44.6-107.4s13-17.2 20.8-25c7.9-7.7 22-23.4 33.1-47.1 11.2-23.8 42.8-91.2 42.8-91.2l-57.9-23.4s-24.2 70.4-32.7 95.3c-8.5 24.8-9.2 45.9-9 56.9.3 11-2.4 32.4-2.4 32.4L314 303.6l1.1-116s5.6-20.8 9.9-30.9c4.4-10.1 11.6-29.9 13-56.1C339.6 74.4 343.6 0 343.6 0h-62.4s4 74.4 5.4 100.6c1.4 26.2 8.7 46 13 56.1 4.4 10.1 9.9 30.9 9.9 30.9l1.1 116.4-44.4-107.5s-3-21.3-2.9-32.4c.1-11-1-32.1-9.9-56.8-8.9-24.7-34.2-94.7-34.2-94.7L161.8 37s32.7 66.9 44.2 90.5c11.5 23.6 25.9 39 33.9 46.6 8 7.6 21.2 24.6 21.2 24.6L307.4 305l-81.2-82.7s-10.8-18.6-14.9-28.9c-4.1-10.3-12.9-29.3-30.5-48.9-17.5-19.6-67.3-75-67.3-75l-44.1 44.1s55.4 49.7 75 67.3c19.6 17.5 38.6 26.4 48.9 30.5 10.3 4.1 28.9 14.9 28.9 14.9l83 81.5-107.4-44.6s-17.2-13-25-20.8c-7.7-7.9-23.4-22-47.1-33.1-23.8-11.2-91.2-42.8-91.2-42.8l-23.4 57.9s70.4 24.2 95.3 32.7c24.8 8.5 45.9 9.2 56.9 9 11-.3 32.4 2.4 32.4 2.4L303.6 311l-116-1.1s-20.8-5.6-30.9-9.9c-10.1-4.4-29.9-11.6-56.1-13C74.4 285.4 0 281.4 0 281.4v62.4s74.4-4 100.6-5.4c26.2-1.4 46-8.7 56.1-13 10.1-4.4 30.9-9.9 30.9-9.9l116.4-1.1-107.5 44.4s-21.3 3-32.4 2.9c-11-.1-32.1 1-56.8 9.9-24.7 8.9-94.7 34.2-94.7 34.2L37 463.2s66.9-32.7 90.5-44.2c23.6-11.5 39-25.9 46.6-33.9 7.6-8 24.6-21.2 24.6-21.2L305 317.6l-82.7 81.2s-18.6 10.8-28.9 14.9c-10.3 4.1-29.3 12.9-48.9 30.5-19.6 17.5-75 67.3-75 67.3l44.1 44.1s49.7-55.4 67.3-75c17.5-19.6 26.4-38.6 30.5-48.9 4.1-10.3 14.9-28.9 14.9-28.9l81.5-83-44.6 107.4s-13 17.2-20.8 25c-7.9 7.7-22 23.4-33.1 47.1-11.2 23.8-42.8 91.2-42.8 91.2l57.9 23.4s24.2-70.4 32.7-95.3c8.5-24.8 9.2-45.9 9-56.9-.3-11 2.4-32.4 2.4-32.4L311 321.4l-1.1 116s-5.6 20.8-9.9 30.9c-4.4 10.1-11.6 29.9-13 56.1-1.4 26.2-5.4 100.6-5.4 100.6H344s-4-74.4-5.4-100.6c-1.4-26.2-8.7-46-13-56.1-4.4-10.1-9.9-30.9-9.9-30.9L314.3 321l44.4 107.5s3 21.3 2.9 32.4c-.1 11 1 32.1 9.9 56.8 8.9 24.7 34.2 94.7 34.2 94.7l57.5-24.4s-32.7-66.9-44.2-90.5c-11.5-23.6-25.9-39-33.9-46.6-8-7.6-21.2-24.6-21.2-24.6L317.6 320l81.2 82.7s10.8 18.6 14.9 28.9c4.1 10.3 12.9 29.4 30.5 48.9 17.5 19.6 67.3 75 67.3 75l44.1-44.1s-55.4-49.7-75-67.3c-19.6-17.5-38.6-26.4-48.9-30.5-10.3-4.1-28.9-14.9-28.9-14.9l-83-81.5 107.4 44.6s17.2 13 25 20.8c7.7 7.9 23.4 22 47.1 33.1 23.8 11.2 91.2 42.8 91.2 42.8l23.4-57.9s-70.4-24.2-95.3-32.7c-24.8-8.5-45.9-9.2-56.9-9-11 .3-32.4-2.4-32.4-2.4L321.4 314l116 1.1s20.8 5.6 30.9 9.9c10.1 4.4 29.9 11.6 56.1 13 26.2 1.4 100.6 5.4 100.6 5.4V281c0 .2-74.4 4.2-100.6 5.7z"></path></svg>