<svg xmlns="http://www.w3.org/2000/svg" width="608.2" viewBox="0 0 608.2 611.1" height="611.1" xml:space="preserve"><path d="M303.9 308.6c-19.4 0-35.1 15.7-35.1 35.1v132.5H339V343.7c0-19.4-15.7-35.1-35.1-35.1z"></path><path d="M428.5 317.9c0-68.8-55.8-124.6-124.6-124.6s-124.5 55.8-124.5 124.6c0 2.1-.2 189.7-.2 189.7h30.2V361.1c4.1-48.7 44.9-86.9 94.6-86.9 48.7 0 88.7 36.6 94.3 83.8v149.6h30.2V317.9z"></path><path d="M304.1 78.4c-118.4 0-214.4 96-214.4 214.4v266.6H120V342.2C120 240.5 202.4 158 304.1 158c101.7 0 184.2 82.5 184.2 184.2v217.1h30.2V292.8c0-118.4-96-214.4-214.4-214.4z"></path><path d="M0 0v611.1h30.2V316.9C30.2 165.7 152.8 43 304.1 43 455.4 43 578 165.7 578 317v294.2h30.2V0H0z"></path></svg>