<svg xmlns="http://www.w3.org/2000/svg" width="621.2" viewBox="0 0 621.2 300.4" height="300.4" style="enable-background:new 0 0 621.2 300.4" xml:space="preserve"><path d="M0 43.3c0 23.8 19.5 43.3 43.3 43.3h256.9V0H43.3C19.5 0 0 19.5 0 43.3zm0 106.9c0 23.8 19.5 43.3 43.3 43.3h256.9v-86.7H43.3C19.5 106.9 0 126.4 0 150.2zm0 106.9c0 23.8 19.5 43.3 43.3 43.3h256.9v-86.7H43.3C19.5 213.8 0 233.3 0 257.1zM577.9.1c-23.8 0-43.3 19.5-43.3 43.3v256.9h86.7V43.4C621.2 19.6 601.7.1 577.9.1zM471 .1c-23.8 0-43.3 19.5-43.3 43.3v256.9h86.7V43.4C514.3 19.6 494.8.1 471 .1zM364.1.1c-23.8 0-43.3 19.5-43.3 43.3v256.9h86.7V43.4C407.4 19.6 387.9.1 364.1.1z"></path></svg>