<svg xmlns="http://www.w3.org/2000/svg" width="642" viewBox="0 0 642 642" height="642" style="overflow:visible;enable-background:new 0 0 642 642" xml:space="preserve"><path class="st0" d="M642 0v199h-64.2v-89.7L440.2 246.8h89.4V311h-199V112h64.2v91.6L531.3 64.2H443V0zM642 642V443h-64.2v89.7L440.2 395.2h89.4V331h-199v199h64.2v-91.6l136.5 139.4H443V642z"></path><g><path class="st0" d="M0 0v199h64.2v-89.7l137.6 137.5h-89.4V311h199V112h-64.2v91.6L110.7 64.2H199V0zM0 642V443h64.2v89.7l137.6-137.5h-89.4V331h199v199h-64.2v-91.6L110.7 577.8H199V642z"></path></g></svg>