<svg xmlns="http://www.w3.org/2000/svg" width="545.2" viewBox="0 0 545.2 598.2" height="598.2"><path class="st0" d="M538.8 365.1c-7.7-21.5-22.7-40.5-44-52.8-14.9-8.6-31.1-12.9-47.2-13.3 16.1-.4 32.3-4.7 47.1-13.3 20.9-12.1 35.8-30.7 43.6-51.7l-158.6 40.7c17.6 15.3 40 23.8 63 24.3-23.3.6-45.9 9.3-63.7 25l159.8 41.1z"></path><path class="st0" d="M539.6 365.8l-1-.3-160.8-41.3.8-.7a100.2 100.2 0 0155.8-24.6c-20.3-2.2-39.6-10.5-55.1-23.9l-.8-.7 1-.3 159.6-41-.4 1c-8.1 21.9-23.6 40.3-43.8 52-12.1 7-25.5 11.4-39.3 12.9 13.8 1.5 27.2 5.9 39.3 12.8 20.6 11.9 36.3 30.7 44.3 53l.4 1.1zm-159.5-42l157.8 40.5c-8-21.7-23.4-39.9-43.4-51.5-14.3-8.2-30.5-12.8-46.9-13.2v-1.1c16.4-.4 32.6-5 46.9-13.3 19.7-11.4 34.9-29.3 43-50.5l-156.6 40.2c17.2 14.6 39.1 23 61.8 23.5v1.1c-23.1.6-45.3 9.2-62.6 24.3zM344.8 231l-55.9 55.8 68.2-40c-3.6-5.6-7.7-10.9-12.3-15.8z"></path><path class="st0" d="M285.5 289.5l59.3-59.2.4.4c4.6 4.9 8.8 10.2 12.4 16l.3.5-.5.3-71.9 42zm59.3-57.7l-52.5 52.5 64.1-37.5c-3.4-5.4-7.3-10.4-11.6-15zM369.6 277.3l-76.4 19.6H372c-.1-6.8-1-13.3-2.4-19.6z"></path><path class="st0" d="M288.9 297.4l81.1-20.8.1.5c1.5 6.4 2.3 13 2.5 19.7v.6h-83.7zm80.3-19.5l-71.7 18.4h74c-.2-6.2-1-12.4-2.3-18.4zM250.4 202.5l19.5 76.1v-78.5c-6.7.1-13.2.9-19.5 2.4z"></path><path class="st0" d="M270.5 282.8L249.8 202l.5-.1c6.4-1.5 13-2.3 19.6-2.5h.6v83.4zm-19.4-79.9l18.3 71.4v-73.7c-6.2.2-12.3 1-18.3 2.3zM300.1 203.9l-19.5 76.2 39.8-67.9c-6.4-3.5-13.2-6.3-20.3-8.3z"></path><path class="st0" d="M279.1 283.7l20.6-80.5.5.2c7 2 13.9 4.8 20.3 8.4l.5.3-.3.5-41.6 71.1zm21.4-79.2l-18.4 72 37.5-64.1c-6.1-3.3-12.5-5.9-19.1-7.9zM269.9 199.6V.6c-24.9.6-47.5 10.4-64.6 26.1L249 196.8c6.7 1.6 13.7 2.6 20.9 2.8z"></path><path class="st0" d="M270.5 200.1h-.6c-7.1-.2-14.2-1.1-21.1-2.8l-.3-.1-43.8-170.7.2-.2C222.7 10 245.8.7 269.9 0h.6v200.1zm-21.1-3.8c6.5 1.6 13.2 2.5 20 2.7V1.1c-23.5.8-46 9.9-63.4 25.8l43.4 169.4zM339.9 26.7C322.8 11 300.2 1.2 275.3.6v199c7.2-.2 14.2-1.2 21-2.8l43.6-170.1z"></path><path class="st0" d="M274.8 200.1V0h.6c24.1.7 47.2 10 64.9 26.3l.2.2-43.8 170.6-.3.1c-6.9 1.7-14 2.6-21.1 2.8l-.5.1zm1.1-199V199c6.7-.2 13.5-1.1 20-2.7l43.5-169.4c-17.5-15.9-40-25-63.5-25.8z"></path><path class="st0" d="M275.3 200v78.5l19.5-76.1c-6.3-1.3-12.8-2.2-19.5-2.4z"></path><path class="st0" d="M274.7 282.8v-83.4h.6c6.6.2 13.2 1 19.6 2.5l.5.1-.1.5-20.6 80.3zm1.1-82.2v73.7l18.3-71.4c-5.9-1.3-12.1-2.1-18.3-2.3zM369.6 321.7c1.4-6.3 2.3-12.9 2.4-19.6h-78.8l76.4 19.6z"></path><path class="st0" d="M370 322.3l-.5-.1-80.6-20.7 83.7.1v.6c-.2 6.6-1 13.2-2.5 19.7l-.1.4zm-72.5-19.7l71.7 18.4c1.3-6 2.1-12.2 2.3-18.4h-74zM279.2 398.8c5.3-.4 10.5-1.1 15.6-2.3l-19.6-76.2.1 277.3c24.8-.6 47.4-10.3 64.5-25.9l-43.7-170.4c-5.5-1.2-11.1-2.1-16.9-2.5z"></path><path class="st0" d="M274.8 598.2l-.1-282.2 20.8 80.9-.5.1c-3.3.8-6.6 1.3-10 1.8 3.8.5 7.5 1.1 11.2 2l.3.1 43.9 171-.2.2c-17.8 16.2-40.8 25.5-64.8 26.1h-.6zm1-273.6l.1 272.5c23.4-.7 45.9-9.8 63.3-25.6l-43.6-169.7c-5.4-1.3-11-2.1-16.5-2.5v-1.1c5-.3 10-1.1 15-2.2l-18.3-71.4zM359.8 251.6l-68.2 39.9 76.6-19.6c-2-7.1-4.9-13.9-8.4-20.3z"></path><path class="st0" d="M288.1 293l72-42.2.3.5c3.6 6.5 6.4 13.3 8.4 20.4l.2.5-.5.1-80.4 20.7zm71.5-40.6l-64.4 37.7 72.3-18.5c-1.9-6.7-4.6-13.1-7.9-19.2zM266.1 398.9c-5.8.4-11.5 1.3-17 2.6l-43.6 170.1c17.1 15.7 39.6 25.4 64.4 26.1l.1-277.3-19.6 76.2c5.1 1.1 10.3 1.9 15.7 2.3z"></path><path class="st0" d="M270.4 598.2h-.6c-24-.7-47-10-64.8-26.3l-.2-.2L248.7 401l.3-.1c3.7-.9 7.5-1.6 11.4-2.1-3.4-.4-6.8-1-10.1-1.8l-.5-.1.1-.5 20.6-80.4-.1 282.2zm-64.3-26.8c17.4 15.8 39.8 25 63.3 25.8l.1-272.5-18.5 71.5c5 1.1 10.1 1.8 15.1 2.2v1.1c-5.6.4-11.1 1.2-16.6 2.5l-43.4 169.4zM540.8 371.2l-166.5-42.7c-4.9 4.9-9.3 10.4-13.1 16.5 2.9-5.7 5.3-11.7 7.1-18l-76.6-19.6 239.9 140.5c13.7-24.3 16.3-51.8 9.2-76.7z"></path><path class="st0" d="M531.7 448.6l-.5-.3-243.1-142.4 80.9 20.7-.2.5c-1.2 4.1-2.6 8.1-4.3 12 2.9-3.9 6-7.6 9.4-11l.2-.2.3.1 166.8 42.8.1.3c7.4 26.1 4.1 53.4-9.3 77l-.3.5zM295.3 308.8L531.4 447c13-23.1 16.2-49.9 9-75.4l-165.9-42.5c-4.8 4.9-9.2 10.4-12.9 16.2l-.9-.5c2.8-5.5 5.2-11.4 6.9-17.4l-72.3-18.6zM344.9 367.9c4.3-4.6 8.3-9.6 11.7-14.9-3.2 6.2-5.7 12.6-7.5 19.2l122.4 122.3c22.8-6.3 43.5-20.7 57.2-42L288.9 312l56 55.9z"></path><path class="st0" d="M471.3 495.1l-.2-.2-122.6-122.6.1-.3c1.2-4.5 2.8-8.9 4.6-13.1-2.4 3.3-5.1 6.5-7.9 9.5l-.4.4-.4-.4-58.9-58.9 243.9 142.9-.3.5c-13.3 20.7-33.7 35.6-57.5 42.2h-.4zM349.7 372l122 121.9c23.2-6.5 43.1-21.1 56.2-41.2L292.3 314.6l52.6 52.5c4.2-4.5 8-9.3 11.2-14.5l.9.5c-3 6.1-5.5 12.4-7.3 18.9zM189 353.6c3.3 5.1 7.1 9.9 11.3 14.4l56-55.9L16.5 452.5c13.6 21.3 34.2 35.7 57 42.1L196.2 372c-1.8-6.2-4.1-12.4-7.2-18.4z"></path><path class="st0" d="M73.7 495.3l-.3-.1c-23.7-6.6-44.1-21.6-57.3-42.3l-.3-.5.5-.3 243.4-142.6-59.4 59.3-.4-.4c-2.8-2.9-5.3-6-7.7-9.2 1.8 4.1 3.3 8.4 4.5 12.8l.1.3-123.1 123zm-56.4-42.6c13.1 20.1 33 34.8 56.1 41.3l122.2-122.1c-1.8-6.2-4.1-12.3-7.1-18.1l.9-.5c3.2 4.9 6.8 9.6 10.9 13.9l52.6-52.6L17.3 452.7zM374.9 270.2l165.5-42.4c7.4-24.9 5.1-52.5-8.5-76.9L360.1 251.5c4.2 6.9 9.2 13.2 14.8 18.7z"></path><path class="st0" d="M374.7 270.8l-.2-.2a97.1 97.1 0 01-14.9-18.8l-.3-.5.5-.3L532 150.2l.3.5c13.3 23.7 16.3 51.2 8.6 77.3l-.1.3-.3.1-165.8 42.4zm-13.9-19.1c4 6.5 8.8 12.6 14.2 17.9l164.9-42.3c7.5-25.6 4.5-52.4-8.3-75.7L360.8 251.7zM357.3 246.8L529 146.2c-13.5-21.4-34-36-56.8-42.4l-123 122.9c1.9 6.8 4.6 13.6 8.1 20.1z"></path><path class="st0" d="M357.1 247.5l-.3-.5c-3.5-6.4-6.2-13.2-8.2-20.2l-.1-.3L472 103.1l.3.1c23.7 6.7 44 21.9 57.1 42.7l.3.5-.5.3-172.1 100.8zm-7.3-20.7c1.9 6.6 4.5 13.1 7.8 19.2l170.7-100c-13-20.2-32.8-35-55.9-41.6L349.8 226.8zM170.4 270.2c5.5-5.5 10.5-11.8 14.7-18.7L13.4 150.9c-13.7 24.3-16.1 51.9-8.8 76.8l165.8 42.5z"></path><path class="st0" d="M170.6 270.8l-.3-.1L4.2 228.2l-.1-.3c-7.6-26.1-4.5-53.5 8.8-77.2l.3-.5.5.3 172.2 100.8-.3.5c-4.2 6.9-9.2 13.2-14.8 18.8l-.2.2zM5 227.3l165.2 42.4c5.3-5.4 10.1-11.4 14.1-18l-170.8-100C.7 174.9-2.4 201.7 5 227.3zM325.1 214.9l-39.8 67.9 55.7-55.7c-4.9-4.5-10.3-8.6-15.9-12.2z"></path><path class="st0" d="M282.7 286.2l42.2-72 .5.3c5.7 3.6 11.1 7.7 15.9 12.3l.4.4-59 59zm42.5-70.5l-37.4 63.8 52.3-52.3c-4.5-4.3-9.5-8.2-14.9-11.5z"></path><g><path class="st0" d="M357.1 152.6c-11 20.6-14.5 44.7-9.5 67.9l118.2-118.3c-23.3-5-48.4-1.7-70.7 11.1-14.6 8.5-26.3 20.1-34.7 33.5 7.4-13.9 11.6-29.8 11.6-46.7 0-26.7-10.5-51-27.7-68.9l-42 163.9c23-7.3 42.4-22.5 54.8-42.5z"></path><path class="st0" d="M347.3 221.5l-.2-1c-4.4-20.6-2.2-42.1 6.3-61.4-12.6 17.2-30.4 30-50.8 36.4l-.9.3.2-.9 42.3-164.8.7.7c18 18.7 27.9 43.3 27.9 69.3 0 13.8-2.9 27.6-8.4 40.2 8.2-11.1 18.6-20.5 30.6-27.4 21.5-12.4 46.8-16.4 71.1-11.2l1 .2-119.8 119.6zm9.4-69.2l.9.5c-10.9 20.4-14.3 44-9.7 66.5l116.8-116.9c-23.7-4.9-48.3-.9-69.3 11.3-14 8.1-25.9 19.6-34.5 33.3l-.9-.5c7.6-14.2 11.6-30.3 11.6-46.5 0-25.3-9.5-49.4-26.9-67.8l-41.5 162c22.1-7.2 41.1-22 53.5-41.9z"></path></g><g><path class="st0" d="M341 371.8L285.3 316l39.9 68c5.6-3.5 10.9-7.6 15.8-12.2z"></path><path class="st0" d="M324.9 384.8l-.3-.5-42-71.7 59.1 59.2-.4.4c-4.9 4.6-10.3 8.8-16 12.3l-.4.3zm-37-65.4l37.5 63.9c5.3-3.3 10.3-7.2 14.9-11.5l-52.4-52.4z"></path></g><g><path class="st0" d="M264.6 318.8l-40 68c6.4 3.5 13.2 6.4 20.4 8.4l19.6-76.4z"></path><path class="st0" d="M245.4 395.9l-.5-.2c-7.1-2-14-4.9-20.5-8.5l-.5-.3 42.2-71.8-20.7 80.8zm-20-9.3c6.1 3.3 12.6 6 19.2 7.9l18.5-72.1-37.7 64.2z"></path></g><g><path class="st0" d="M242.8 195.1l-42-164C183.6 49 173 73.3 173 100.1c0 44.6 29.4 82.3 69.8 95z"></path><path class="st0" d="M243.6 195.9l-.9-.3c-42-13.1-70.2-51.5-70.2-95.5 0-26 9.9-50.6 27.9-69.3l.7-.7 42.5 165.8zM200.5 32.2c-17.4 18.4-26.9 42.5-26.9 67.9 0 43.2 27.5 81 68.5 94.2L200.5 32.2z"></path></g><g><path class="st0" d="M300.2 395.2c7.1-2 13.9-4.9 20.2-8.4l-39.8-68 19.6 76.4z"></path><path class="st0" d="M299.8 395.9l-.1-.5-20.5-80.1 42.1 71.8-.5.3c-6.5 3.6-13.3 6.4-20.4 8.4l-.6.1zm-17.7-73.5l18.5 72.1c6.6-1.9 13-4.6 19.1-7.9l-37.6-64.2z"></path></g><g><path class="st0" d="M357.7 446.3c-12.5-20.4-32.2-36-55.5-43.2l42.1 164.3c17.3-17.9 28-42.3 28-69.2 0-17.2-4.4-33.4-12.1-47.5 8.4 13.7 20.2 25.6 35.1 34.2 22 12.7 46.7 16 69.8 11.3L347.6 378.4c-4.9 23.3-1.1 47.4 10.1 67.9z"></path><path class="st0" d="M344 568.4l-42.6-166.2.9.3c20.6 6.4 38.6 19.2 51.2 36.6-8.5-19.1-10.8-40.4-6.6-60.9l.2-1 119 119-1 .2c-24 5-48.9.9-70.2-11.3-12.1-7-22.6-16.4-30.8-27.6 5.6 12.7 8.6 26.5 8.6 40.5 0 26.1-10 50.8-28.1 69.6l-.6.8zm-41-164.5l41.6 162.4c17.5-18.5 27.2-42.6 27.2-68.2 0-16.5-4.2-32.8-12-47.3l.9-.5c8.6 14 20.6 25.7 34.9 34 20.7 11.9 45 16 68.4 11.4L347.9 379.5c-4.4 22.6-.8 46.2 10.3 66.6l-.9.5c-12.5-20.3-31.7-35.5-54.3-42.7z"></path></g><g><path class="st0" d="M149.8 113.5c-22.1-12.8-47.1-16-70.3-11.2l118 118c8.7-41-9.3-84.7-47.7-106.8z"></path><path class="st0" d="M197.8 221.5L78.5 102l1-.2c24.1-5.1 49.3-1.1 70.7 11.2 37.7 21.7 57 64.9 47.9 107.5l-.3 1zM80.7 102.7l116.5 116.6c8.4-41.8-10.6-84-47.6-105.3-20.9-12.1-45.3-16.1-68.9-11.3z"></path></g><g><path class="st0" d="M187.7 446.4c11.2-20.6 14.9-44.8 10-68.1L79.9 496.2c23.1 4.8 48.1 1.5 70.2-11.3 14.9-8.6 26.7-20.5 35.1-34.2-7.7 14.1-12 30.3-12 47.5 0 26.7 10.6 51 27.8 68.9l42-164c-23.3 7.3-42.9 22.9-55.3 43.3z"></path><path class="st0" d="M201.2 568.2l-.7-.7c-18-18.7-27.9-43.3-27.9-69.3 0-13.9 2.9-27.8 8.5-40.5-8.2 11.2-18.7 20.7-30.8 27.7-21.4 12.3-46.4 16.4-70.6 11.3l-1-.2L198 377.2l.2 1c4.3 20.5 2 41.9-6.4 61.1 12.6-17.3 30.5-30.2 51-36.6l.9-.3-.2.9-42.3 164.9zm-16.4-117.8l.9.5c-7.8 14.4-12 30.8-11.9 47.2 0 25.3 9.6 49.4 26.9 67.8L242.2 404a99.27 99.27 0 00-54.1 42.7l-.9-.5c11.1-20.4 14.7-44.1 10.2-66.8L81 495.9c23.6 4.7 48 .7 68.8-11.4 14.3-8.3 26.4-20.1 35-34.1z"></path></g><g><path class="st0" d="M196 226.6L73.2 103.9c-22.8 6.4-43.4 20.9-57 42.3l171.6 100.6c3.6-6.6 6.3-13.3 8.2-20.2z"></path><path class="st0" d="M188.1 247.5l-.5-.3L15.5 146.4l.3-.5c13.2-20.7 33.6-35.8 57.3-42.5l.3-.1.2.2 123 122.9-.1.3c-2 7-4.7 13.8-8.2 20.3l-.2.5zM17 146l170.7 100c3.3-6.1 5.9-12.6 7.7-19.2L73 104.5c-23.1 6.6-43 21.3-56 41.5z"></path></g><g><path class="st0" d="M175.5 277.2c-1.4 6.3-2.3 12.9-2.5 19.6h78.9l-76.4-19.6z"></path><path class="st0" d="M256.3 297.4l-83.8-.1v-.6c.2-6.7 1-13.3 2.5-19.7l.1-.5.5.1 80.7 20.8zm-82.7-1.1h74.1L176 277.9c-1.4 6-2.2 12.2-2.4 18.4z"></path></g><g><path class="st0" d="M200.4 231c-4.6 4.9-8.7 10.2-12.3 15.9l68.2 40-55.9-55.9z"></path><path class="st0" d="M259.7 289.5l-72.3-42.4.3-.5c3.6-5.7 7.7-11.1 12.4-16l.4-.4 59.2 59.3zm-70.9-42.8l64.1 37.6-52.5-52.5c-4.3 4.6-8.2 9.6-11.6 14.9z"></path></g><g><path class="st0" d="M185.3 251.6c-3.5 6.4-6.3 13.2-8.4 20.3l76.6 19.6-68.2-39.9z"></path><path class="st0" d="M257.1 293l-80.9-20.7.2-.5c2-7.1 4.9-14 8.4-20.4l.3-.5.5.3 71.5 41.8zm-79.5-21.5l72.3 18.5-64.4-37.7c-3.3 6.1-5.9 12.6-7.9 19.2z"></path></g><g><path class="st0" d="M219.9 384l40-68-55.8 55.8c4.9 4.6 10.2 8.7 15.8 12.2z"></path><path class="st0" d="M220.1 384.8l-.5-.3c-5.7-3.5-11-7.6-15.8-12.2l-.4-.4 59.2-59.2-42.5 72.1zm-15.1-13c4.6 4.3 9.5 8.1 14.8 11.4l37.6-63.8-52.4 52.4z"></path></g><g><path class="st0" d="M220.1 214.9c-5.7 3.5-11 7.6-15.9 12.2l55.7 55.7-39.8-67.9z"></path><path class="st0" d="M262.6 286.2l-59.1-59.1.4-.4c4.9-4.6 10.3-8.7 16-12.3l.5-.3.3.5 41.9 71.6zM205 227.1l52.3 52.3-37.3-63.7c-5.4 3.3-10.4 7.2-15 11.4z"></path></g><g><path class="st0" d="M6.7 365l159.5-40.9c-17.7-15.6-40.3-24.3-63.6-24.8 23-.6 45.5-9.1 63.1-24.5L6.7 234c7.7 21.2 22.7 39.9 43.8 52.1 14.9 8.6 31.1 12.9 47.2 13.3-16.1.4-32.3 4.7-47.1 13.3-21.3 12.1-36.3 31-43.9 52.3z"></path><path class="st0" d="M5.8 365.8l.3-1c8-22.2 23.6-40.9 44-52.7 12.1-7 25.5-11.4 39.3-12.9-13.8-1.5-27.2-5.9-39.3-12.8-20.3-11.7-36-30.3-44-52.4l-.4-1 1 .3 160 41.1-.8.7c-15.5 13.5-34.8 21.9-55.2 24.1 20.6 2.2 40.1 10.7 55.7 24.4l.8.7L5.8 365.8zm1.7-131.1c8.1 21.4 23.4 39.4 43.2 50.8 14.3 8.2 30.5 12.8 46.9 13.2v1.1c-16.4.4-32.6 5-46.9 13.3a98.766 98.766 0 00-43.2 51.2L165 323.8c-17.3-15-39.5-23.5-62.4-24v-1.1c22.8-.6 44.7-9 62-23.7L7.5 234.7z"></path></g><g><path class="st0" d="M176.9 327c1.8 6.1 4.1 12 6.9 17.6-3.8-5.9-8.2-11.2-12.9-16L4.7 371.2c-7.2 24.8-4.7 52.4 9 76.6l239.9-140.5-76.7 19.7z"></path><path class="st0" d="M13.5 448.6l-.3-.5c-13.4-23.6-16.6-51-9.1-77.1l.1-.3.3-.1L171 328l.2.2c3.4 3.4 6.5 7 9.4 10.9-1.7-3.9-3.1-7.8-4.2-11.9l-.2-.5.5-.1 80.4-20.6L13.5 448.6zm-8.4-77c-7.3 25.5-4.2 52.3 8.8 75.5L250 308.9l-72.4 18.6c1.7 5.8 4 11.5 6.7 17l-.9.5c-3.7-5.7-7.9-10.9-12.6-15.7L5.1 371.6z"></path></g><g><path class="st0" d="M175.5 321.7L252 302h-78.9c.1 6.8 1 13.4 2.4 19.7z"></path><path class="st0" d="M175.1 322.3l-.1-.5c-1.5-6.5-2.3-13.1-2.5-19.7v-.6l83.8-.1-81.2 20.9zm-1.5-19.7c.2 6.2 1 12.3 2.3 18.4l71.8-18.4h-74.1z"></path></g><g><path class="st0" d="M245.1 203.8c-7.1 2-13.9 4.8-20.2 8.3l39.8 67.9-19.6-76.2z"></path><path class="st0" d="M266.1 283.7l-42-71.7.5-.3c6.4-3.5 13.3-6.3 20.3-8.4l.5-.2.1.5 20.6 80.1zm-40.5-71.3l37.5 64.1-18.5-72c-6.5 2-12.9 4.6-19 7.9z"></path></g></svg>