<svg data-name="Layer 1" xmlns="http://www.w3.org/2000/svg" viewBox="0 0 598.45 607.49"><path d="M299.26 607.49c160.17-.04 290.92-126.86 298.8-285.08h-47.93c-81.08.58-156.56 28-212.9 78.85V297.53h261.21V110.68H76.16V76.1h522.29V0H0v297.52h261.21v103.73c-56.34-50.85-131.82-78.27-212.9-78.85H.38c7.88 158.25 138.68 285.09 298.88 285.08ZM100.43 404c75.94 15.69 137.02 63.33 155.96 121.89-68.15-13.95-126.15-59.46-155.96-121.89Zm397.59 0c-29.81 62.43-87.82 107.94-155.96 121.89C361 467.33 422.09 419.69 498.02 404Zm24.27-217.16v34.58H76.16v-34.58h446.13Z"></path></svg>