<svg xmlns="http://www.w3.org/2000/svg" width="642" viewBox="0 0 642 636.4" height="636.4" style="overflow:visible;enable-background:new 0 0 642 636.4" xml:space="preserve"><path d="M595.9 312c-3 3.5-3 8.8 0 12.3 32.2 37.1 50.2 87 45.3 141-8.2 90.3-81.5 163-171.8 170.4-54.7 4.5-105-14.4-142.1-47.8-3.6-3.2-9-3.2-12.6 0-37 33.4-87.3 52.3-142.1 47.8C82.3 628.3 9 555.6.8 465.3c-4.9-54 13.1-103.9 45.3-141 3-3.5 3-8.8 0-12.3C13.9 274.9-4.1 225 .8 171 9 80.8 82.3 8.1 172.7.7c54.7-4.5 105 14.4 142.1 47.8 3.6 3.2 9 3.2 12.6 0 37-33.3 87.3-52.2 142.1-47.8C559.7 8.1 633 80.8 641.2 171c4.9 54.1-13.1 103.9-45.3 141zm-171.5-97.2c-29.3 20.6-64.9 32.7-103.4 32.7s-74.1-12.1-103.4-32.7c20.6 29.3 32.7 64.9 32.7 103.4s-12.1 74.1-32.7 103.4c29.3-20.6 64.9-32.7 103.4-32.7s74.1 12.1 103.4 32.7c-20.6-29.3-32.7-64.9-32.7-103.4s12.1-74.1 32.7-103.4zM142.3 87.3c0-.3-.1-.7-.1-1.1-2.9-23.5-23-41.7-47.3-41.7-26.4 0-47.7 21.4-47.7 47.7 0 24.1 17.9 44.1 41.3 47.1.8.1 1.5.2 2.3.3 30.8 3.4 59.1 14.6 83.2 31.6-17.2-24.3-28.4-52.9-31.7-83.9zM468 171.2c24.1-17 52.5-28.2 83.2-31.6.8-.1 1.5-.2 2.3-.3 23.4-3 41.3-23 41.3-47.1 0-26.3-21.3-47.7-47.7-47.7-24.3 0-44.4 18.2-47.3 41.7-.1.4-.1.8-.1 1.1-3.3 31-14.5 59.6-31.7 83.9zm-294 294c-24.1 17-52.5 28.2-83.2 31.6-.8.1-1.5.2-2.3.3-23.4 3-41.3 23-41.3 47.1 0 26.3 21.3 47.7 47.7 47.7 24.3 0 44.4-18.2 47.3-41.7.1-.4.1-.8.1-1.1 3.3-31 14.5-59.6 31.7-83.9zm325.7 83.9c0 .3.1.7.1 1.1 2.9 23.5 23 41.7 47.3 41.7 26.4 0 47.7-21.4 47.7-47.7 0-24.1-17.9-44.1-41.3-47.1-.8-.1-1.5-.2-2.3-.3-30.8-3.4-59.1-14.6-83.2-31.6 17.2 24.3 28.4 52.9 31.7 83.9z" style="fill-rule:evenodd;clip-rule:evenodd"></path></svg>