<svg data-name="Layer 1" xmlns="http://www.w3.org/2000/svg" viewBox="0 0 587.88 608.81"><path d="M49.68 500.06 73.32 0H26.04l23.64 500.06zM98.63 417.06 122.26 0H74.99l23.64 417.06zM.73 584.92 24.37 0H0l.73 584.92zM147.46 333.29 171.09 0h-47.27l23.64 333.29zM196.28 249.65 219.92 0h-47.27l23.63 249.65zM245.11 166.25 268.75 0h-47.27l23.63 166.25zM293.94 82.85 317.58 0h-47.27l23.63 82.85zM270.31 608.81h47.27l-23.64-500.06-23.63 500.06zM221.36 608.81h47.27l-23.64-417.06-23.63 417.06zM172.53 608.81h47.27l-23.63-333.29-23.64 333.29zM123.7 608.81h47.27l-23.63-249.65-23.64 249.65zM74.87 608.81h47.27L98.51 442.56 74.87 608.81zM26.04 608.81h47.28l-23.64-82.85-23.64 82.85zM538.21 500.06 561.84 0h-47.27l23.64 500.06zM512.89 0h-47.27l23.64 417.06L512.89 0zM563.52 0l23.63 584.92L587.88 0h-24.36zM464.07 0h-47.28l23.64 333.29L464.07 0zM415.24 0h-47.28l23.64 249.65L415.24 0zM366.41 0h-47.28l23.64 166.25L366.41 0zM319.25 608.81h47.28l-23.64-417.06-23.64 417.06zM368.08 608.81h47.28l-23.64-333.29-23.64 333.29zM416.91 608.81h47.28l-23.64-249.65-23.64 249.65zM465.74 608.81h47.27l-23.63-166.25-23.64 166.25zM514.57 608.81h47.27l-23.63-82.85-23.64 82.85z"></path></svg>