<svg data-name="Layer 1" xmlns="http://www.w3.org/2000/svg" viewBox="0 0 617.27 617.29"><path d="M613.86 0H497.68v88.84h27.35L613.86 0zM611.23 124.42H497.68v56.52h22.79l90.76-56.52zM522.8 267.88v81.52l94.47 18.52V249.37l-94.47 18.51zM434.78 349.33l58.07 18.24V249.72l-58.07 18.22v81.39zM351.86 119.59h16.57V21.26l-16.57 80.41v17.92zM436.33 244.02h56.52V127.84l-56.52 56.51v59.67zM489.44 124.42H373.26v56.52h59.66l56.52-56.52zM436.33 119.59h56.52V5.78l-56.52 87.51v26.3zM490.82 0H373.26v88.84h60.19L490.82 0zM351.86 244.02h16.57V137.6l-16.57 52.18v54.24zM252.25 248.85l16.57 16.57h79.62l16.58-16.57H252.25zM265.41 268.83l-16.57-16.57v112.76l16.57-16.57v-79.62zM348.45 351.87h-79.63l-16.57 16.57h112.77l-16.57-16.57zM351.86 348.45l16.57 16.58V252.26l-16.57 16.57v79.62zM479.51 248.85H373.26v16.57h53.45l52.8-16.57zM267.88 89.69h81.52L367.88 0H249.39l18.48 89.69h.01zM479.51 368.44l-52.79-16.57h-53.46v16.57h106.25zM594.79 368.44l-84.56-16.57h-12.55v16.57h97.11zM525.05 244.02h92.22V126.36l-92.22 57.43v60.23zM528.44 92.26v27.33h88.83V3.41l-88.83 88.85zM92.25 88.84h27.34V0H3.41l88.84 88.84zM96.8 180.94h22.79v-56.52H6.04l90.76 56.52zM182.49 267.94l-58.07-18.22v117.85l58.07-18.24v-81.39zM265.41 119.59v-17.92l-16.57-80.41v98.33h16.57zM180.94 184.35l-56.52-56.51v116.18h56.52v-59.67zM184.36 180.94h59.65v-56.52H127.84l56.52 56.52zM180.94 93.29 124.42 5.78v113.81h56.52v-26.3zM183.82 88.84h60.19V0H126.45l57.37 88.84zM249.73 124.42l18.22 57.38H349.33l18.22-57.38H249.73zM265.41 244.02v-54.24l-16.57-52.18v106.42h16.57zM190.56 265.42h53.45v-16.57H137.77l52.79 16.57zM137.76 368.44h106.25v-16.57h-53.46l-52.79 16.57zM22.48 368.44h97.11v-16.57h-12.54l-84.57 16.57zM92.22 183.79 0 126.36v117.66h92.22v-60.23zM88.84 92.26 0 3.41v116.18h88.84V92.26zM3.41 617.29h116.18v-88.84H92.25L3.41 617.29zM6.04 492.86h113.55v-56.52H96.8L6.04 492.86zM94.47 349.4v-81.52L0 249.37v118.55l94.47-18.52zM265.41 497.69h-16.57v98.34l16.57-80.41v-17.93zM180.94 373.27h-56.52v116.18l56.52-56.52v-59.66zM127.84 492.86h116.17v-56.52h-59.65l-56.52 56.52zM180.94 497.69h-56.52V611.5l56.52-87.51v-26.3zM126.45 617.29h117.56v-88.84h-60.19l-57.37 88.84zM265.41 373.27h-16.57v106.42l16.57-52.18v-54.24zM349.4 527.6h-81.53l-18.48 89.69h118.49L349.4 527.6zM22.48 248.85l84.57 16.57h12.54v-16.57H22.48zM92.22 373.27H0v117.66l92.22-57.43v-60.23zM88.84 497.69H0v116.18l88.84-88.84v-27.34zM497.68 528.45v88.84h116.18l-88.83-88.84h-27.35zM520.47 436.34h-22.79v56.52h113.55l-90.76-56.52zM351.86 497.69v17.93l16.57 80.41v-98.34h-16.57zM436.33 432.93l56.52 56.52V373.27h-56.52v59.66zM432.92 436.34h-59.66v56.52h116.18l-56.52-56.52zM436.33 523.99l56.52 87.51V497.69h-56.52v26.3zM373.26 528.45v88.84h117.56l-57.37-88.84h-60.19zM267.95 435.49l-18.22 57.37h117.82l-18.22-57.37H267.95zM351.86 373.27v54.24l16.57 52.18V373.27h-16.57zM594.79 248.85h-97.11v16.57h12.55l84.56-16.57zM525.05 433.5l92.22 57.43V373.27h-92.22v60.23zM528.44 525.03l88.83 88.84V497.69h-88.83v27.34z"></path></svg>