<svg xmlns="http://www.w3.org/2000/svg" width="607.5" viewBox="0 0 607.5 607.5" height="607.5" style="enable-background:new 0 0 607.5 607.5" xml:space="preserve"><path d="M471.1 128.1H135.7c-4.2 0-7.6 3.4-7.6 7.6v336.1c0 4.2 3.4 7.6 7.6 7.6h336.1c4.2 0 7.6-3.4 7.6-7.6V136.5c0-4.6-3.7-8.4-8.3-8.4zM431 431H176.5V176.5H431V431z"></path><path d="M303.8 0C136.3 0 0 136.3 0 303.8s136.3 303.8 303.8 303.8 303.8-136.3 303.8-303.8S471.3 0 303.8 0zm0 559.2C163 559.2 48.4 444.6 48.4 303.8S162.9 48.4 303.8 48.4c140.8 0 255.4 114.6 255.4 255.4S444.6 559.2 303.8 559.2z"></path></svg>