<svg xmlns="http://www.w3.org/2000/svg" width="609.8" viewBox="0 0 609.8 610.8" height="610.8" xml:space="preserve" style="enable-background:new 0 0 609.8 610.8"><path d="M528.3 135.8 392 0l-89.8 91L438 226.5v-90.7h90.3zM152.7 26.5"></path><path d="M280.4 91.1 345 26.5H152.7V156l192-.6zM474 528.3 609.8 392l-91-89.8-135.5 135.7H474v90.4zM583.3 152.7"></path><path d="m518.7 280.4 64.6 64.6V152.7H453.8l.6 192z"></path><g><path d="m81.5 474 137.3 136.8 88.9-92-135.9-135.6.1 90.8H81.5zM457.1 583.3"></path><path d="m329.4 518.7-64.6 64.6h192.3V453.8l-192 .6z"></path></g><g><path d="M135.8 81.5 0 217.8l91 89.8 135.6-135.9h-90.7l-.1-90.2zM26.5 457.1"></path><path d="m91.1 329.4-64.6-64.6v192.3H156l-.6-192z"></path></g></svg>