<svg xmlns="http://www.w3.org/2000/svg" width="608.3" viewBox="0 0 608.3 546.3" height="546.3" xml:space="preserve"><path d="M0 0v546.3h608.3V307.5h-47.2v190.2H44.5V263h41.8v126.3c0 35.8 29 64.7 64.7 64.7h302.1c35.8 0 64.7-29 64.7-64.7v-81.8h-45.9v80.9c0 11.9-9.7 21.6-21.6 21.6H152c-11.9 0-21.6-9.7-21.6-21.6V263h477.9V0H0zm130.4 215.8v-58.9c0-11.9 9.7-21.6 21.6-21.6h298.5c11.9 0 21.6 9.7 21.6 21.6v58.9H130.4zm387.6 0V156c0-35.8-29-64.8-64.7-64.8H151.1c-35.8 0-64.7 29-64.7 64.8v59.8H44.5V47.2h516.6v168.6H518z"></path></svg>