<svg xmlns="http://www.w3.org/2000/svg" width="620.6" viewBox="0 0 620.6 399.3" height="399.3" xml:space="preserve"><path d="M95.2 128.7c0-28.9 23.5-52.5 52.5-52.5 6.7 0 13.1 1.3 19 3.6.6.2 1-.5.6-.9L75.3 0C30.4 25.4 0 73.5 0 128.7c0 42.2 17.5 84.7 49.1 112.7l184.1 157.5c.6.5 1.4.4 1.9-.1l61.1-71.3-183.5-159.8c-11.1-9.9-17.5-24.1-17.5-39z"></path><path d="M257.4 128.7c0-28.9 23.5-52.5 52.5-52.5 6.7 0 13.1 1.3 19 3.6.6.2 1-.5.6-.9L237.5 0c-44.9 25.4-75.3 73.5-75.3 128.7 0 42.2 17.5 84.7 49.1 112.7l184.1 157.5c.6.5 1.4.4 1.9-.1l61.1-71.3-183.5-159.8c-11.1-9.9-17.5-24.1-17.5-39z"></path><path d="M437.1 167.7c-11.1-10-17.4-24.2-17.4-39.1 0-28.9 23.5-52.5 52.5-52.5 6.7 0 13.1 1.3 19 3.6.6.2 1-.5.6-.9L399.7 0c-44.9 25.4-75.3 73.5-75.3 128.7 0 42.2 17.5 84.7 49.1 112.7l184.1 157.5c.6.5 1.4.4 1.9-.1l61.1-71.3-183.5-159.8z"></path></svg>