<svg xmlns="http://www.w3.org/2000/svg" width="586.9" viewBox="0 0 586.9 543.4" height="543.4"><path d="M552.3 310.8h-13.6l5.2-44.5L391.7.3 319.2 0l-134 116.2 6.6 11.2-36.9 15.4L0 408.8l35.2 63.4 164.5 55.5 7-11.1 35.4 26.9h307.6l37.1-62.3-34.5-170.4zM540 325.9l29.7 146.3H283.5l-29.6-146.3H309l35.5 60.1 185.5-.2 7-60h3zM242.4 524.7l-76.4-58 75.1-127.6 28.2 139.3-26.9 46.3zm231.8-248.9l53.5-.3-11.1 95.3-148 .1 105.6-95.1zm48.9-15.4l-47.5.3L335 15.2l47.8.2 140.3 245zm-318.5-141L320 19.3l141.7 247.5-111 99.9-28.6-48.4 35-60.3L266 96.4l-60.1 25.1-1.3-2.1zm-7.1 79.5L171 152.5l88.5-37 72.7 129-134.7-45.6zm-37.4-35l23.5 41.2-143 245.5L17.4 409l142.7-245.1zm33.2 345.7L51.6 461.7l144.1-247.4 141.4 47.8-28.1 48.7h-68.6l-94.1 159.8 48.5 36.8-1.5 2.2zm347.9 18.7H257.8l23.8-41h284l-24.4 41z"></path></svg>