<svg data-name="Layer 1" xmlns="http://www.w3.org/2000/svg" viewBox="0 0 296.45 588.54"><path d="M184.01 292.09c64.57-16.01 112.43-74.35 112.43-143.87C296.45 66.36 230.08 0 148.22 0S0 66.36 0 148.22c0 69.52 47.86 127.86 112.43 143.87H0v296.45h296.45V292.09H184.02Zm108.08 112.43c-13.17-53.11-54.97-94.91-108.08-108.08h108.08v108.08ZM4.35 440.31c0-19.42 3.8-38.26 11.3-56 3.61-8.52 8.07-16.75 13.26-24.44 5.15-7.62 11.06-14.78 17.57-21.3 6.51-6.51 13.68-12.42 21.3-17.57 7.69-5.2 15.91-9.66 24.44-13.26 17.73-7.5 36.58-11.3 56-11.3s38.27 3.8 56 11.3c8.52 3.61 16.75 8.07 24.44 13.26 7.62 5.15 14.78 11.06 21.3 17.57 6.51 6.51 12.42 13.68 17.57 21.3 5.2 7.69 9.66 15.91 13.26 24.44 7.5 17.73 11.3 36.58 11.3 56s-3.8 38.27-11.3 56c-3.61 8.52-8.07 16.75-13.26 24.44a145.622 145.622 0 0 1-17.57 21.3 145.096 145.096 0 0 1-21.3 17.57c-7.69 5.2-15.91 9.66-24.44 13.26-17.73 7.5-36.58 11.3-56 11.3s-38.27-3.8-56-11.3c-8.52-3.61-16.75-8.07-24.44-13.26a145.622 145.622 0 0 1-21.3-17.57 145.096 145.096 0 0 1-17.57-21.3c-5.2-7.69-9.66-15.91-13.26-24.44-7.5-17.73-11.3-36.57-11.3-56Zm63.43-172.79a145.622 145.622 0 0 1-21.3-17.57 145.096 145.096 0 0 1-17.57-21.3c-5.2-7.69-9.66-15.91-13.26-24.44-7.5-17.73-11.3-36.58-11.3-56s3.8-38.27 11.3-56c3.61-8.52 8.07-16.75 13.26-24.44 5.15-7.62 11.06-14.78 17.57-21.3 6.51-6.51 13.68-12.42 21.3-17.57 7.69-5.2 15.91-9.66 24.44-13.26 17.73-7.5 36.58-11.3 56-11.3s38.27 3.8 56 11.3c8.52 3.61 16.75 8.07 24.44 13.26 7.62 5.15 14.78 11.06 21.3 17.57 6.51 6.51 12.42 13.68 17.57 21.3 5.2 7.69 9.66 15.91 13.26 24.44 7.5 17.73 11.3 36.58 11.3 56s-3.8 38.27-11.3 56c-3.61 8.52-8.07 16.75-13.26 24.44a145.622 145.622 0 0 1-17.57 21.3 145.096 145.096 0 0 1-21.3 17.57c-7.69 5.2-15.91 9.66-24.44 13.26-17.73 7.5-36.58 11.3-56 11.3s-38.27-3.8-56-11.3c-8.52-3.61-16.75-8.07-24.44-13.26ZM4.35 296.44h108.08C59.32 309.61 17.52 351.41 4.35 404.52V296.44Zm0 287.74V476.1c13.17 53.11 54.97 94.91 108.08 108.08H4.35Zm179.66 0c53.11-13.17 94.91-54.97 108.08-108.08v108.08H184.01Z"></path></svg>