<svg data-name="Layer 1" xmlns="http://www.w3.org/2000/svg" viewBox="0 0 625.15 625.15"><path d="M312.57 0C139.94 0 0 139.94 0 312.57s139.94 312.57 312.57 312.57S625.14 485.2 625.14 312.57 485.2 0 312.57 0Zm-5.67 508.45L204.26 405.81 101.62 508.45V189.93l99.39-99.39v218.53c-10.6 1.58-18.75 10.63-18.75 21.67 0 12.15 9.85 21.99 21.99 21.99s21.99-9.85 21.99-21.99c0-11.04-8.16-20.09-18.75-21.67V90.53l99.4 99.4v318.52Zm216.62 0L420.88 405.81 318.24 508.45V189.93l99.39-99.39v218.53c-10.6 1.58-18.75 10.63-18.75 21.67 0 12.15 9.85 21.99 21.99 21.99s21.99-9.85 21.99-21.99c0-11.04-8.16-20.09-18.75-21.67V90.53l99.4 99.4v318.52Z"></path></svg>