<svg id="Layer_1" data-name="Layer 1" xmlns="http://www.w3.org/2000/svg" viewBox="0 0 563.63 625.52">   <path d="M508.81,.33c-35.45,0-77.56-4.41-107.37,18.98-36.78,28.85-22.58,73.65-8.81,110.76,14.15,38.14,28,80.53,4.93,118.51-23.41,38.54-72.64,54.13-115.74,52.48-43.11,1.65-92.33-13.94-115.74-52.48-23.07-37.98-9.22-80.37,4.93-118.51,13.77-37.12,27.97-81.91-8.81-110.76C132.38-4.08,90.28,.33,54.82,.33H0V625.52H168.32v-182.75h226.99v182.75h168.32V.33h-54.82Z"></path>   <rect x="224.59" y="0" width="27.41" viewBox="0 0 27.41 269.64" height="269.64"></rect>   <rect x="268.11" y="0" width="27.41" height="269.64"></rect>   <rect x="311.63" y="0" width="27.41" height="269.64"></rect> </svg>