<svg xmlns="http://www.w3.org/2000/svg" width="587.5" viewBox="0 0 587.5 398.1" height="398.1"><path d="M366.5 0H166.8v398.1h199.7L167.5 199z"></path><path d="M484.4 0h-14.7L270.6 199l199.1 199.1h14.7L285.4 199z"></path><path d="M513.9 0h-14.8l-199 199 199 199.1h14.8L314.8 199z"></path><path d="M454.9 0h-14.7L241.1 199l199.1 199.1h14.7L255.9 199z"></path><path d="M425.5 0h-14.8l-199 199 199 199.1h14.8L226.4 199z"></path><path d="M543.3 0h-14.7l-199 199 199 199.1h14.7L344.3 199z"></path><path d="M388.5 199l199 199.1V0z"></path><path d="M572.8 0h-14.7L359 199l199.1 199.1h14.7L373.8 199zM146 .5h10.4v397.6H146zM125.1.5h10.4v397.6h-10.4zM104.3.5h10.4v397.6h-10.4zM83.4.5h10.4v397.6H83.4zM62.6.5H73v397.6H62.6zM41.7.5h10.4v397.6H41.7zM20.9.5h10.4v397.6H20.9zM0 .5h10.4v397.6H0z"></path><path d="M396 0h-14.8l-199 199 199 199.1H396L196.9 199z"></path></svg>