<svg id="Layer_1" data-name="Layer 1" xmlns="http://www.w3.org/2000/svg" viewBox="0 0 476.62 626.95">   <polygon points="238.31 0 0 139.79 0 222.92 238.31 83.13 476.62 222.92 476.62 139.79 238.31 0"></polygon>   <polygon points="0 294.09 0 552.37 0 626.95 143.41 626.95 143.41 555.24 71.7 555.24 71.7 335.16 238.31 237.42 404.92 335.16 404.92 555.24 274.16 555.24 274.16 412.55 343.71 453.34 343.71 370.21 238.31 308.39 132.91 370.21 132.91 453.34 202.46 412.55 202.46 555.24 202.46 626.95 274.16 626.95 476.62 626.95 476.62 529.29 476.62 294.09 238.31 154.29 0 294.09"></polygon> </svg>