<svg data-name="Layer 1" xmlns="http://www.w3.org/2000/svg" viewBox="0 0 612.85 511.77"><path d="M402.28 226.63h210.57L386.23 0v210.57L175.66 0v347.54c-1.64-2.12-3.42-4.15-5.34-6.08-32-32-91.65-24.23-133.24 17.36s-49.36 101.24-17.36 133.24c32 32 91.65 24.23 133.24-17.36 25.62-25.62 38.38-58.09 36.94-86.73V226.63h196.33v120.91c-1.64-2.12-3.42-4.15-5.34-6.08-32-32-91.65-24.23-133.24 17.36s-49.36 101.24-17.36 133.24c32 32 91.65 24.23 133.24-17.36 25.62-25.62 38.38-58.09 36.94-86.73V226.63h1.82Z"></path></svg>