<svg xmlns="http://www.w3.org/2000/svg" width="619.8" viewBox="0 0 619.8 619.8" height="619.8" xml:space="preserve"><path d="M126.5 559.7c10.2 7.5 20.8 14.3 31.9 20.6V152.8h303v427.4c11.1-6.2 21.7-13.1 31.9-20.6V120.9H126.5v438.8z"></path><path d="M250.3 614c9.8 1.9 19.9 3.4 30 4.3V274.7h59.6v343.6c10-1 19.9-2.4 29.6-4.3V244.7H250.3V614z"></path><path d="M188.4 595c10.3 4.4 21 8.3 31.9 11.6V214.7h179.2v391.9c10.9-3.3 21.5-7.1 31.9-11.6V182.8h-243V595z"></path><path d="M309.9 0C138.7 0 0 138.7 0 309.9c0 88.4 37.1 168.2 96.5 224.7V90.9h426.8v443.7c59.4-56.5 96.5-136.2 96.5-224.7C619.8 138.7 481 0 309.9 0z"></path><circle cx="309.9" cy="590.8" r="29"></circle></svg>