<svg xmlns="http://www.w3.org/2000/svg" width="626.2" viewBox="0 0 626.2 626.2" height="626.2"><path d="M313.1 0L0 313.1l313.1 313.1 313.1-313.1L313.1 0zM44 313.1l269-269 269 269-269 269-269-269z"></path><path d="M313.1 268.2c-12 0-23.3 4.7-31.7 13.1-17.5 17.5-17.5 46 0 63.5 8.7 8.7 20.2 13.1 31.7 13.1s23-4.4 31.7-13.1c17.5-17.5 17.5-46 0-63.5-8.5-8.4-19.7-13.1-31.7-13.1zm9.7 54.6c-5.4 5.4-14.1 5.4-19.4 0-2.6-2.6-4-6-4-9.7 0-3.7 1.4-7.1 4-9.7 2.6-2.6 6-4 9.7-4s7.1 1.4 9.7 4c5.4 5.3 5.4 14 0 19.4z"></path><path d="M376 250.1c-34.7-34.7-91.2-34.7-125.9 0L187.2 313l62.9 62.9c16.8 16.8 39.2 26.1 62.9 26.1 23.8 0 46.1-9.3 62.9-26.1 34.8-34.6 34.8-91.1.1-125.8zM354 354c-10.9 10.9-25.5 17-40.9 17s-30-6-40.9-17l-40.9-40.9 40.9-40.9c22.6-22.6 59.3-22.6 81.8 0 22.6 22.5 22.6 59.2 0 81.8z"></path><path d="M407.2 218.9c-25.1-25.1-58.6-39-94.1-39s-69 13.8-94.1 39L124.9 313l94.1 94.1c26 26 60 38.9 94.1 38.9s68.2-13 94.1-38.9l94.1-94.1-94.1-94.1zm-22 166.3c-39.8 39.8-104.5 39.8-144.2 0l-72.1-72.1L241 241c19.3-19.3 44.9-29.9 72.1-29.9 27.2 0 52.9 10.6 72.1 29.9l72.1 72.1-72.1 72.1z"></path><path d="M313.1 62.4L62.4 313.1l125.3 125.3c34.6 34.6 79.9 51.8 125.3 51.8 45.4 0 90.8-17.3 125.3-51.8l125.3-125.3L313.1 62.4zm103.3 354c-27.6 27.6-64.3 42.8-103.3 42.8s-75.7-15.2-103.3-42.8L106.4 313.1 313 106.5l206.6 206.6-103.2 103.3z"></path></svg>