<svg xmlns="http://www.w3.org/2000/svg" width="610.4" viewBox="0 0 610.4 610.4" height="610.4"><path d="M610.4 303.5l-136.3.2 116.6-113.6h-172l97.9-104.7-1.1-1.1c-28-26.8-60.3-47.6-96.1-62.1l-.6-.2C383 7.6 345.3.2 306.6 0h-3.1l.2 136.3L190.1 19.8v171.6L86.5 94.8l-1.1-1-1.1 1.1c-26.7 28-47.6 60.3-62.1 96.1l-.2.6C7.6 227.3.2 265.1 0 303.7v3.1l136.3-.2L19.8 420.2h171.1l-96 103.6-1 1.1L95 526c28 26.7 60.3 47.6 96.1 62.1l.6.2c35.8 14.4 73.5 21.8 112.2 22h3.1l-.2-136.3 113.6 116.6V419.5l103.6 96 1.1 1 1.1-1.1c26.8-28 47.6-60.4 62.1-96.1l.2-.6c14.4-35.8 21.8-73.6 22-112.2v-3zM420.4 26c34 14.1 64.9 34.1 91.9 59.6l-91.9 98.2V26zm49.8 277.1L356.8 193.2H583L470.2 303.1zm-54.7-279L306.8 136.3V3.1c37.4.2 74 7.3 108.7 21zm-222.3 3.3l109.9 112.8-109.9 113.4V27.4zM85.5 98.1l98.6 91.9H26c14.1-34.1 34.1-64.9 59.5-91.9zm-61.4 96.7l112.3 108.7H3.1c.2-37.3 7.3-73.9 21-108.7zm116 112.5l113.5 109.9H27.4l112.7-109.9zM190 584.4c-34.1-14.1-64.9-34.1-91.9-59.6l91.9-99.1v158.7zm4.8 1.9L303.6 474v133.2c-37.5-.2-74-7.2-108.8-20.9zm222.4-3.3L307.3 470.2l109.9-113.5V583zm-224.1.7V420.2h68.2L26.7 193.1h163.5v68.1L417.3 26.7v163.5h-68.1l234.6 227.2H420.2v-68.2L193.1 583.7zm331.7-71.5l-99.1-91.9h158.7c-14.1 34.1-34.1 65-59.6 91.9zm61.5-96.7L474 306.8h133.2c-.2 37.4-7.2 74-20.9 108.7z"></path></svg>