<svg xmlns="http://www.w3.org/2000/svg" width="614.3" viewBox="0 0 614.3 468.8" height="468.8" xml:space="preserve" style="enable-background:new 0 0 614.3 468.8"><circle transform="rotate(-45.001 379.87 234.4)" cx="379.9" cy="234.4" r="90.5"></circle><path d="M379.9 0C250.4 0 145.5 104.9 145.5 234.4c0 32.1 6.4 62.6 18.1 90.5H291c-23.4-23-38-55-38-90.5 0-70.1 56.8-126.8 126.8-126.8s126.8 56.8 126.8 126.8c0 70.1-56.8 126.8-126.8 126.8H82L37.7 237.7H0l82.9 231.1h297c129.5 0 234.4-104.9 234.4-234.4S509.3 0 379.9 0z"></path></svg>