<svg xmlns="http://www.w3.org/2000/svg" width="463.2" viewBox="0 0 463.2 618.3" height="618.3" xml:space="preserve"><path d="m463.2 231.6-80.4-80.4-70.8 70.7V80.4L231.6 0l-80.4 80.4v141.5l-70.8-70.8L0 231.6v155.2l231.6 231.6 231.6-231.6V231.6zM9.7 245.2l63.9 63.9-63.9 64V245.2zm65.9 203.5-63.9-63.9 63.9-63.9v127.8zm9.6 0V320.8l63.9 63.9-63.9 64zm66-75.6-63.9-63.9 63.9-63.9v127.8zm9.6-279 63.9 63.9-63.9 63.9V94.1zm0 151.1 63.9 63.9-63.9 63.9V245.2zm66 203.5-63.9-63.9 63.9-63.9v127.8zm0-151.2-63.9-63.9 63.9-63.9v127.8zm9.6-127.8 63.9 63.9-63.9 63.9V169.7zm0 279V320.8l63.9 63.9-63.9 64zm65.9-75.6-63.9-63.9 63.9-63.9v127.8zm0-151.2L238.4 158l63.9-63.9v127.8zm9.7 151.2V245.2l63.9 63.9-63.9 64zm65.9 75.6-63.9-64 63.9-63.9v127.9zm9.7 0V320.8l63.9 63.9-63.9 64zm65.9-75.6-63.9-63.9 63.9-63.9v127.8z"></path></svg>