<svg xmlns="http://www.w3.org/2000/svg" width="614.4" viewBox="0 0 614.4 614.4" height="614.4" xml:space="preserve" style="enable-background:new 0 0 614.4 614.4"><path d="m42.4 132.9 110.2 110.2H0v126.6h114.6l171.8-171.8L131.9 43.4zM481.5 42.4 371.3 152.6V0H244.7v114.6l171.8 171.8L571 131.9zM132.9 572l110.2-110.2v152.6h126.6V499.8L197.9 328 43.4 482.5zM572 481.5 461.8 371.3h152.6V244.7H499.8L328 416.5 482.5 571zM263.5 350.9c24.5 24.5 64.1 24.4 88.5 0 24.5-24.5 24.5-64.1 0-88.5-24.5-24.4-64.1-24.4-88.5 0-24.5 24.4-24.5 64.1 0 88.5z"></path></svg>