<svg data-name="Layer 1" xmlns="http://www.w3.org/2000/svg" viewBox="0 0 622.24 622.24"><path d="M0 0v622.24h622.24V0H0Zm442.3 96.28c45.86 0 83.17 37.31 83.17 83.17s-37.31 83.18-83.17 83.18V96.28Zm-16.43-47.61c-60.64 7.58-108.62 56.45-114.75 117.52-6.13-61.07-54.11-109.94-114.75-117.52h229.49ZM179.95 96.28c45.86 0 83.18 37.31 83.18 83.17s-37.31 83.18-83.18 83.18V96.28ZM48.67 48.67H163.5C102.47 56.3 54.28 105.78 48.67 167.41V48.67Zm524.9 524.9H48.67V191.5c6.11 67.07 62.63 119.8 131.27 119.8s124.51-52.09 131.18-118.59c6.67 66.5 62.95 118.59 131.18 118.59s125.16-52.73 131.27-119.8v382.07Zm0-406.16c-5.61-61.63-53.8-111.11-114.83-118.74h114.83v118.74Z"></path></svg>