<svg id="Layer_1" data-name="Layer 1" xmlns="http://www.w3.org/2000/svg" viewBox="0 0 628.24 548.07">   <path d="M215.5,261.03c9.58,.93,18.99,3.14,28.12,6.18l47.88,15.93-27.61-17.73c-11.68-7.5-25.27-11.49-39.15-11.49l-159-.02L0,367.75l160.9-92.87c20.23-11.68,28.41-16.4,54.6-13.85Z"></path>   <path d="M285.77,197.61c3.98,8.76,6.77,18.02,8.7,27.44l10.14,49.43,1.55-32.78c.66-13.87-2.68-27.63-9.62-39.65L196.12,28.06l-43.35,75.08,93.7,54.11c20.23,11.68,28.41,16.41,39.29,40.36Z"></path>   <path d="M334.7,200.11c-.93,9.58-3.15,18.99-6.18,28.12l-15.93,47.87,17.72-27.6c7.5-11.68,11.49-25.27,11.49-39.15V0h-104.93l83.98,145.52c11.68,20.23,16.4,28.41,13.85,54.6Z"></path>   <path d="M242.14,219.9c7.83,5.6,14.87,12.22,21.26,19.41l33.5,37.73-15.05-29.16c-6.36-12.34-16.14-22.58-28.16-29.53l-125.57-72.52-33.92,58.75h93.72c23.36,.01,32.81,.02,54.21,15.32Z"></path>   <path d="M375.81,226.74c-5.6,7.83-12.22,14.87-19.41,21.26l-37.73,33.5,29.16-15.05c12.33-6.37,22.58-16.14,29.52-28.16l89.64-155.26L419.05,0h-27.94V172.53c0,23.36,0,32.81-15.3,54.21Z"></path>   <path d="M395.61,319.3c-9.58-.93-18.99-3.14-28.12-6.18l-47.88-15.92,27.61,17.73c11.68,7.5,25.27,11.49,39.15,11.49h221.14s-48.41-83.83-48.41-83.83l-108.9,62.87c-20.23,11.68-28.41,16.4-54.6,13.86Z"></path>   <path d="M398.11,270.37c-8.76,3.98-18.02,6.77-27.44,8.71l-49.43,10.15,32.78,1.55c13.87,.65,27.63-2.69,39.65-9.63l140.78-81.27-38.98-67.52-57,98.72c-11.68,20.23-16.4,28.41-40.35,39.3Z"></path>   <path d="M212.99,309.96c8.76-3.98,18.02-6.77,27.44-8.71l49.43-10.15-32.78-1.55c-13.87-.66-27.63,2.69-39.65,9.62L23.54,411.1c21.29,36.87,34.93,60.5,56.68,98.18l92.41-160.02c11.68-20.23,16.41-28.41,40.36-39.3Z"></path>   <path d="M325.35,382.73c-3.98-8.76-6.77-18.02-8.71-27.44l-10.15-49.43-1.55,32.78c-.65,13.87,2.69,27.63,9.63,39.65l98.01,169.78h116.17c4.7-8.15,9.03-15.64,13.09-22.67l-177.19-102.31c-20.23-11.68-28.41-16.4-39.3-40.35Z"></path>   <path d="M276.42,380.23c.93-9.58,3.14-18.99,6.18-28.12l15.93-47.88-17.73,27.61c-7.5,11.68-11.49,25.27-11.49,39.15l-.02,177.08h86.35l-65.37-113.25c-11.68-20.23-16.4-28.41-13.85-54.6Z"></path>   <path d="M423.19,375.73c-23.36,0-32.81,0-54.21-15.3-7.83-5.6-14.87-12.22-21.26-19.41l-33.5-37.73,15.05,29.16c6.37,12.34,16.14,22.58,28.16,29.52l209.07,120.72c19.18-33.21,34.03-58.94,61.75-106.95h-205.06Z"></path>   <path d="M235.29,353.59c5.6-7.83,12.22-14.87,19.41-21.26l37.73-33.5-29.16,15.05c-12.34,6.37-22.58,16.14-29.52,28.16l-118.98,206.03h105.21v-140.27c.01-23.36,.01-32.81,15.31-54.21Z"></path> </svg>