<svg xmlns="http://www.w3.org/2000/svg" width="569.2" viewBox="0 0 569.2 611.1" height="611.1" xml:space="preserve" style="enable-background:new 0 0 569.2 611.1"><path d="M556.9 474.5 345.7 108.9c-8.6-14.9-8.6-33.2 0-48.1L380.8 0h-94.6l-24.7 42.9c-14.9 25.9-14.9 58 0 83.8L486 515.4c2.2 3.8 1.2 7.1 0 9.2-1.2 2.1-3.6 4.6-8 4.6H91.3c-4.4 0-6.8-2.5-8-4.6-1.2-2.1-2.2-5.4 0-9.3l140.3-243 135 233.9h94.5L223.6 108.6 12.4 474.4c-16.5 28.5-16.5 62.6 0 91.1 16.5 28.5 46 45.6 78.9 45.6h385.2c33 0 64-17.1 80.4-45.7 16.4-28.4 16.4-62.4 0-90.9z"></path><circle transform="rotate(-13.286 223.502 444.102)" cx="223.6" cy="444.2" r="75.5"></circle></svg>