<svg data-name="Layer 1" xmlns="http://www.w3.org/2000/svg" viewBox="0 0 618.85 602.59"><path d="m559.71 147.98-12.64-9.18-116.45 35.9 16.51 11.99c49.07 35.65 69.6 98.84 50.86 156.52l-4.11 12.66 113.92-35.12 4.02-12.39c19.21-59.11-1.84-123.86-52.11-160.39ZM142.03 408.36l-5.87-18.06-70.41 98.8 4.67 14.37c19.21 59.11 74.29 99.12 136.43 99.12h13.52l69.48-97.49h-14.68c-60.65 0-114.4-39.05-133.14-96.74ZM120.86 343.21c-18.74-57.68 1.79-120.87 50.86-156.52l16.51-11.99-116.45-35.9-12.64 9.18C8.87 184.5-12.17 249.26 7.03 308.36l4.02 12.39 113.92 35.12-4.11-12.66ZM405.32 156.31V35.8l-11.57-8.4c-50.28-36.53-118.36-36.53-168.64 0l-11.57 8.4v120.51l13.6-9.89c49.07-35.65 115.51-35.65 164.58 0l13.6 9.88ZM476.82 408.36c-18.74 57.68-72.49 96.74-133.14 96.74H329l69.48 97.49H412c62.15 0 117.23-40.02 136.43-99.12l4.67-14.37-70.41-98.8-5.87 18.06Z"></path></svg>