<svg data-name="Layer 1" xmlns="http://www.w3.org/2000/svg" viewBox="0 0 595.13 565.85"><path d="M439.42 281.82v51.41h-.46c-25.22 0-37.49 6.42-50.51 13.16-.32.14-.61.32-.93.46v-51.37c.32-.18.61-.32.93-.5 13.02-6.78 25.29-13.16 50.51-13.16h.46Z"></path><path d="M491.32 347.35v51.44c-.61-.32-1.25-.64-1.86-.96-12.95-6.74-25.15-13.09-50.05-13.16v-51.44c24.9.07 37.1 6.46 50.05 13.16.61.32 1.25.64 1.86.96ZM543.23 308.68v51.44h-.93c-25.22 0-38.56-6.35-50.98-12.77v-51.37c12.41 6.39 25.76 12.7 50.98 12.7h.93ZM491.32 450.23v51.44c-.61-.36-1.25-.68-1.86-1-12.95-6.71-25.15-13.09-50.05-13.16V436.1c24.9.07 37.1 6.42 50.05 13.16.61.32 1.25.64 1.86.96ZM543.23 514.41v51.44h-.93c-25.22 0-38.56-6.35-50.98-12.74v-51.44c12.41 6.39 25.76 12.74 50.98 12.74h.93Z"></path><path d="M439.42 487.51v51.44h-.46c-25.22 0-37.49 6.39-50.51 13.16-.32.18-.61.32-.93.5v-51.44c.32-.18.61-.32.93-.5 13.02-6.74 25.29-13.16 50.51-13.16h.46ZM595.13 346.39v51.44c-12.84 6.67-26.08 13.56-51.91 13.73v-51.44c25.83-.18 39.06-7.06 51.91-13.73Z"></path><path d="M543.23 411.56v51.41h-.93c-25.22 0-38.56-6.31-50.98-12.74v-51.44c12.41 6.42 25.76 12.77 50.98 12.77h.93Z"></path><path d="M595.13 449.27v51.41c-12.84 6.67-26.08 13.56-51.91 13.73v-51.44c25.83-.18 39.06-7.03 51.91-13.7ZM387.51 346.85v51.44c-12.66 6.6-26.08 13.27-51.91 13.27v-51.44c25.83 0 39.24-6.67 51.91-13.27ZM439.42 384.66v51.44h-.46c-25.22 0-37.49 6.39-50.51 13.16-.32.14-.61.32-.93.46v-51.44c.32-.14.61-.32.93-.46 13.02-6.78 25.29-13.16 50.51-13.16h.46ZM387.51 449.73v51.44c-12.66 6.56-26.08 13.24-51.91 13.24v-51.44c25.83 0 39.24-6.64 51.91-13.24Z"></path><path d="M282.92 514.41c-127.85 0-231.48-103.64-231.48-231.48 0-127.85 103.64-231.48 231.48-231.48h312.21V0H282.92C126.67 0 0 126.67 0 282.92c0 156.26 126.67 282.93 282.92 282.93h52.68v-51.44h-52.68Z"></path><path d="M282.93 411.54c-71.03 0-128.61-57.58-128.61-128.61 0-71.03 57.58-128.61 128.61-128.61h312.2v-51.44h-312.2c-99.44 0-180.05 80.61-180.05 180.05 0 99.43 80.61 180.04 180.04 180.05h52.69v-51.43h-52.67Z"></path><path d="M282.96 308.65c-14.21 0-25.72-11.52-25.72-25.72 0-14.21 11.52-25.72 25.72-25.72h312.18v-51.44H282.96c-42.62 0-77.16 34.55-77.16 77.16s34.55 77.16 77.16 77.16h52.65v-51.44h-52.65Z"></path></svg>