<svg xmlns="http://www.w3.org/2000/svg" width="642" viewBox="0 0 642 500.76" height="500.76" data-name="Layer 1"><path d="m0 500.54 34.87-107.31 142.7 107.53L0 500.54zM289.7 131.35h-76.47c-59.71 0-108.11 48.4-108.11 108.11 0 33.58 15.31 63.59 39.34 83.42l93.93 74.47c12.22 10.08 20 25.34 20 42.42 0 25.44-17.28 46.84-40.74 53.11l-29.46 7.88h74.21c64.27 0 116.36-46.71 116.36-104.32 0-30.86-14.94-58.58-38.69-77.68-24.43-24.43-88.71-58.63-105.99-88.55-7.96-10.12-12.61-22.32-12.61-35.45 0-33.39 30.06-60.75 68.21-63.22v-.18ZM538.06 208.78l40.45 128.27-106.25-79.16L366 337.05l40.45-128.27-103.94-77.43h128.34L472.26 0l41.4 131.35H642l-103.94 77.43z"></path></svg>