<svg data-name="Layer 1" xmlns="http://www.w3.org/2000/svg" viewBox="0 0 623.36 553.94"><path d="M311.68 182.7c50.37 0 91.35-40.98 91.35-91.35S362.05 0 311.68 0s-91.35 40.98-91.35 91.36 40.98 91.35 91.35 91.35Z"></path><circle cx="425.22" cy="276.97" r="91.35"></circle><circle cx="198.2" cy="276.97" r="91.35"></circle><path d="M532.01 371.23c-50.37 0-91.35 40.98-91.35 91.35s40.98 91.36 91.35 91.36 91.35-40.98 91.35-91.36-40.98-91.35-91.35-91.35ZM311.68 371.23c-50.37 0-91.35 40.98-91.35 91.35s40.98 91.36 91.35 91.36 91.35-40.98 91.35-91.36-40.98-91.35-91.35-91.35ZM91.36 371.23C40.98 371.23 0 412.21 0 462.58s40.98 91.36 91.36 91.36 91.35-40.98 91.35-91.36-40.98-91.35-91.35-91.35Z"></path></svg>