<svg data-name="Layer 1" xmlns="http://www.w3.org/2000/svg" viewBox="0 0 629.36 629.36"><path d="m628.66 307.77-22.3-109.19c-.9-4.43-2.63-8.59-5.16-12.34l-59.72-88.93c-2.52-3.74-5.68-6.91-9.42-9.41l-88.95-59.74c-3.75-2.52-7.89-4.25-12.3-5.15L321.57.7c-4.58-.93-9.2-.93-13.78 0L198.55 23.01c-4.41.9-8.55 2.63-12.3 5.15L97.28 87.91c-3.74 2.51-6.89 5.66-9.39 9.39l-59.74 88.95c-2.51 3.74-4.24 7.88-5.15 12.3L.7 307.8c-.94 4.57-.94 9.2 0 13.78L23 430.79c.9 4.44 2.64 8.6 5.16 12.34l59.72 88.94c2.52 3.75 5.69 6.91 9.42 9.41l88.93 59.73c3.76 2.52 7.91 4.26 12.34 5.16l109.2 22.3c2.3.47 4.6.7 6.91.7s4.61-.23 6.91-.7l109.2-22.3c4.43-.91 8.58-2.64 12.34-5.16l88.93-59.73c3.75-2.52 6.91-5.68 9.41-9.41l59.73-88.94c2.52-3.75 4.26-7.9 5.17-12.34l22.29-109.2c.94-4.58.94-9.23 0-13.82Zm-1.53.32c.39 1.93.54 3.87.59 5.81h-137.6l113.29-119.65c.55 1.52 1.1 3.04 1.43 4.64l22.3 109.2Zm-486.84-64.8v69.43L28.32 194.46l111.97 48.82Zm-111.43-50.3h160.89l-48.85 48.85-112.04-48.85Zm112.03 194.54 48.86 48.86H28.85l112.04-48.86ZM28.31 434.92l111.98-118.26v69.43L28.31 434.92Zm113.54-48.64V243.1l49.56-49.56v242.29l-49.56-49.56Zm244.41-244.41 49.56 49.56H193.54l49.56-49.56h143.18Zm-69.62-1.57L434.91 28.32 386.09 140.3h-69.43Zm-3.08 174.39L192.98 435.27V194.1l120.58 120.58ZM194.09 193h241.17L314.68 313.58 194.1 193Zm120.58 122.81L435.26 436.4H194.1l120.58-120.59Zm1.11-1.11 120.58-120.58v241.16L315.78 314.7Zm-72.52-174.39-48.8-111.99L312.72 140.3h-69.43Zm-1.44.6-48.85 48.85V28.86l48.85 112.04Zm-48.85 298.72 48.85 48.85-48.85 112.04V439.63Zm50.29 49.45h69.43L194.43 601.06l48.82-111.98Zm-.19-1.57-49.56-49.56H435.8l-49.56 49.56H243.09Zm142.99 1.57 48.82 111.98-118.26-111.98h69.43Zm1.44-.6 48.85-48.85v160.89L387.5 488.48Zm48.85-298.72-48.85-48.85 48.85-112.04v160.88Zm1.57 3.79 49.56 49.56v143.17l-49.56 49.56v-242.3Zm1.67-.55h160.89l-112.03 48.85L439.6 193Zm48.85 194.54 112.04 48.86h-160.9l48.86-48.86Zm.6-1.44v-69.43l111.98 118.26-111.98-48.83Zm0-142.8 111.97-48.82-111.97 118.25V243.3Zm110.83-56.18c.92 1.37 1.62 2.84 2.32 4.31H439.02l97.57-97.57c1.28 1.35 2.5 2.76 3.56 4.33l59.72 88.93ZM531.16 89.2c1.56 1.05 2.97 2.27 4.32 3.55l-97.57 97.57V27.14c1.47.7 2.93 1.4 4.3 2.31l88.95 59.74ZM430.49 24.54c1.59.32 3.11.87 4.62 1.42L315.46 139.25V1.65c1.93.05 3.87.19 5.79.59l109.24 22.31Zm-231.62 0 109.24-22.3c1.92-.39 3.85-.54 5.79-.59v137.61L194.25 25.96c1.51-.55 3.03-1.09 4.62-1.42ZM98.16 89.2l88.96-59.74c1.37-.92 2.83-1.62 4.3-2.31v163.16L93.85 92.74c1.34-1.28 2.75-2.49 4.31-3.54Zm-68.71 97.93L89.2 98.16c1.04-1.56 2.26-2.97 3.54-4.31l97.57 97.57H27.14c.69-1.47 1.4-2.93 2.31-4.29Zm-4.92 11.74c.33-1.59.87-3.11 1.42-4.62L139.24 313.9H1.65c.05-1.93.2-3.87.59-5.79l22.3-109.25ZM2.23 321.26c-.39-1.92-.54-3.85-.59-5.79h137.61L25.96 435.11c-.55-1.52-1.1-3.04-1.43-4.64L2.23 321.26Zm27.23 121c-.92-1.37-1.62-2.84-2.32-4.31h163.17l-97.57 97.57c-1.28-1.34-2.5-2.76-3.55-4.32l-59.72-88.94Zm68.71 97.92c-1.56-1.05-2.97-2.26-4.32-3.55l97.57-97.57v163.16c-1.47-.7-2.95-1.4-4.32-2.32l-88.93-59.73Zm100.72 64.66c-1.6-.33-3.12-.88-4.64-1.43L313.9 490.12v137.6c-1.94-.05-3.88-.19-5.8-.58l-109.2-22.3Zm231.58 0-109.2 22.3c-1.93.39-3.87.54-5.8.58v-137.6l119.65 113.29c-1.52.55-3.04 1.1-4.64 1.43Zm100.72-64.66-88.93 59.73c-1.37.92-2.84 1.62-4.32 2.32V439.06l97.57 97.57c-1.35 1.28-2.76 2.5-4.32 3.56Zm68.71-97.92-59.73 88.94c-1.05 1.56-2.27 2.97-3.55 4.31l-97.56-97.56h163.16c-.7 1.47-1.41 2.94-2.32 4.31Zm4.94-11.79c-.33 1.6-.88 3.13-1.43 4.64L490.12 315.46h137.6c-.05 1.94-.2 3.88-.59 5.8l-22.29 109.2Z"></path></svg>