<svg xmlns="http://www.w3.org/2000/svg" width="615.1" viewBox="0 0 615.1 616.2" height="616.2" xml:space="preserve" style="enable-background:new 0 0 615.1 616.2"><path d="M591.1 0H307.5c-13.2 0-23.9 10.7-23.9 23.9v84L182.7 7c-9.4-9.4-24.5-9.4-33.9 0L7 148.8c-4.5 4.5-7 10.6-7 16.9v426.5c0 13.2 10.7 23.9 23.9 23.9h283.6c13.2 0 23.9-10.7 23.9-23.9v-84l100.9 100.9c4.7 4.7 10.8 7 16.9 7 6.1 0 12.3-2.3 16.9-7l141.8-141.8c4.5-4.5 7-10.6 7-16.9V23.9C615.1 10.7 604.4 0 591.1 0zM425.4 534.4l-93.9-93.9V223.1l93.9 93.9v217.4zM189.7 81.7l93.9 93.9V393l-93.9-93.9V81.7zm-47.9 0V299l-93.9 94V175.7l93.9-94zm141.8 486.6H47.9V460.7l117.9-117.9 117.9 117.9v107.6zm189.7-33.9V317l93.9-93.9v217.5l-93.9 93.8zm93.9-379.1L449.3 273.2 331.5 155.3V47.9h235.7v107.4z"></path></svg>