<svg id="Layer_1" data-name="Layer 1" xmlns="http://www.w3.org/2000/svg" viewBox="0 0 608.22 608.22">   <path d="M352.3,0h-63.16V96.38h-96.38v96.38H96.38v96.38H0v319.09H319.09v-96.38h33.21c141.12,0,255.92-114.8,255.92-255.92S493.41,0,352.3,0ZM222.71,126.33h66.42v66.43h-66.42V126.33Zm-96.38,192.75h66.43v66.42H126.33v-66.42Zm96.38-96.38h66.42v66.42h-66.42v-66.42Zm96.38,0h33.21c18.32,0,33.22,14.9,33.22,33.21s-14.9,33.21-33.22,33.21h-33.21v-66.42Zm-29.95,96.38v66.42h-66.42v-66.42h66.42Zm-66.42,96.38h66.42v66.43h-66.42v-66.43Zm96.38-96.38h33.21c34.83,0,63.17-28.34,63.17-63.16s-28.34-63.16-63.17-63.16h-33.21V126.33h33.21c71.46,0,129.59,58.14,129.59,129.59s-58.13,129.59-129.59,129.59h-33.21v-66.42ZM126.33,222.71h66.43v66.42H126.33v-66.42ZM29.95,578.26V319.09H96.38v96.38h96.38v96.38h96.38v66.42H29.95Zm322.34-96.38h-33.21v-66.43h33.21c87.97,0,159.55-71.57,159.55-159.54s-71.57-159.54-159.55-159.54h-33.21V29.95h33.21c124.6,0,225.97,101.37,225.97,225.97s-101.37,225.97-225.97,225.97Z"></path> </svg>