<svg xmlns="http://www.w3.org/2000/svg" width="612.4" viewBox="0 0 612.4 612.4" height="612.4" style="enable-background:new 0 0 612.4 612.4" xml:space="preserve"><path d="M218.7 542V277l-29.2-29.2v364.5l29.2-29.2 87.5-87.5 116.6 116.6V571l-96-96-20.6-20.6-87.5 87.6zm175-471.6v264.9l29.2 29.2V0l-29.2 29.2-87.5 87.5L189.5 0v41.2l96 96 20.6 20.6 87.6-87.4zM542 393.7H277l-29.2 29.2h364.5l-29.2-29.2-87.5-87.5 116.6-116.6H571l-96 96-20.6 20.6 87.6 87.5zm-471.6-175h264.9l29.2-29.2H0l29.2 29.2 87.5 87.5L0 422.8h41.2l96-96 20.6-20.6-87.4-87.5zm294.1 87.5c0-32.2-26.1-58.3-58.3-58.3-32.2 0-58.3 26.1-58.3 58.3s26.1 58.3 58.3 58.3c32.2 0 58.3-26.1 58.3-58.3" style="fill-rule:evenodd;clip-rule:evenodd"></path></svg>