<svg xmlns="http://www.w3.org/2000/svg" width="594.1" viewBox="0 0 594.1 534.2" height="534.2" xml:space="preserve"><path d="M567.1 186.5c-36-68-114.4-160-255-183.3C296.2.5 279.3 0 264 0H53C23.7 0 0 23.7 0 53v178.4c0 7.9 6.4 14.3 14.3 14.3h100.9c7.9 0 14.3-6.4 14.3-14.3v-84.6c0-11.2 8.2-18.3 20.4-18.3H260c19.6 0 36.7 1.6 55.5 7.8 38.8 12.8 106.1 46 139.2 129.8-33.1 83.9-96.3 117-135.1 129.9-18.8 6.2-35.9 7.8-55.5 7.8H149.9c-12.2 0-20.4-7.1-20.4-18.4v-86.7c0-7.9-6.4-14.3-14.3-14.3H14.3c-7.9 0-14.3 6.4-14.3 14.3v182.5c0 29.3 23.7 53 53 53h211c15.3 0 32.2-.5 48.1-3.2 140.6-23.3 219-115.4 255-183.3 11.5-21.7 18.7-41.3 23.1-55.8 5.9-19.7 4.9-34.2-1.2-53.6-4.5-14-11.4-32-21.9-51.8z"></path></svg>