<svg xmlns="http://www.w3.org/2000/svg" width="642" viewBox="0 0 642 642" height="642" data-name="Layer 1"><path d="m241.4 58.48 79.6 218.7 79.6-218.7c-25.19-7.63-51.92-11.73-79.6-11.73s-54.41 4.1-79.6 11.73ZM102.29 155.4l192.95 130.15S231.09 61.83 231.09 61.82c-24.87 8.64-48.9 21.03-71.29 37.3-22.4 16.27-41.61 35.3-57.5 56.28ZM46.73 315.58l232.6-8.12S95.93 164.17 95.92 164.17c-15.04 21.6-27.2 45.75-35.75 72.08s-12.91 53.01-13.44 79.33ZM95.92 477.83l183.4-143.29-232.6-8.12c.53 26.32 4.89 53 13.44 79.33s20.71 50.48 35.76 72.08ZM231.09 580.17l64.15-223.72S102.29 486.59 102.29 486.6c15.9 20.98 35.11 40.01 57.5 56.28 22.4 16.27 46.43 28.66 71.29 37.3ZM400.6 583.52 321 364.82l-79.6 218.7c25.19 7.63 51.92 11.73 79.6 11.73s54.41-4.1 79.6-11.73ZM539.71 486.6 346.76 356.45l64.15 223.72c24.87-8.64 48.9-21.03 71.29-37.3 22.4-16.27 41.61-35.3 57.5-56.28ZM595.27 326.42l-232.6 8.12 183.4 143.29c15.04-21.6 27.2-45.75 35.75-72.08s12.91-53.01 13.44-79.33ZM546.08 164.17l-183.4 143.29 232.6 8.12c-.53-26.32-4.89-53-13.44-79.33s-20.71-50.48-35.76-72.08ZM410.91 61.83l-64.15 223.72S539.71 155.41 539.71 155.4c-15.9-20.98-35.11-40.01-57.5-56.28-22.4-16.27-46.43-28.66-71.29-37.3Z"></path><path d="M642 321c0 177.28-143.72 321-321 321S0 498.28 0 321 143.72 0 321 0s321 143.72 321 321ZM321 22.63C156.22 22.63 22.63 156.22 22.63 321S156.21 619.37 321 619.37 619.37 485.79 619.37 321 485.78 22.63 321 22.63Z"></path></svg>