<svg xmlns="http://www.w3.org/2000/svg" width="611" viewBox="0 0 611 611" height="611" xml:space="preserve"><path d="M294 153.1V0H140.9C63.1 0 0 63.1 0 140.9V294h153.1c77.8 0 140.9-63.1 140.9-140.9zM470.1 0H317v153.1c0 77.8 63.1 140.9 140.9 140.9H611V140.9C611 63.1 547.9 0 470.1 0zM294 464c0-81.2-65.8-147-147-147H0v147c0 81.2 65.8 147 147 147s147-65.8 147-147z"></path><path d="m317 457.9-.1.1c0 .9.1 1.8.1 2.6v3.3c0 62.7-34 117.5-84.5 147H470c77.8 0 140.9-63.1 140.9-140.9V317h-153C380.1 317 317 380.1 317 457.9z"></path></svg>