<svg xmlns="http://www.w3.org/2000/svg" width="605" viewBox="0 0 605 619.9" height="619.9" xml:space="preserve" style="enable-background:new 0 0 605 619.9"><path d="M605 619.9 295.7 63.5h.1c.7 0 1.5-.1 2.2-.1 81.2 0 156.2 45.3 195.7 118.2l2.6 4.8 32.6-62.2-1-1.5C474.9 45.9 388.9 0 297.9 0 142.2 0 15.5 131.5 15.5 293c0 68.5 22.8 131.6 60.9 181.6L0 619.9h64.1L119 519.6c48.7 41.5 111.1 66.4 178.9 66.4 67 0 130-24 180.2-67.2l58.4 101.1H605zm-307.1-97.3c-57 0-109.1-22-148.6-58.2L294.1 200l152.7 264.5c-40.4 37.1-92.9 58.1-148.9 58.1zM108.1 414.4C86.6 379.1 74.2 337.6 74.2 293c0-123.9 97.8-226.5 218.3-229.4L108.1 414.4z"></path></svg>