<svg xmlns="http://www.w3.org/2000/svg" width="642" viewBox="0 0 642 642" height="642" style="overflow:visible;enable-background:new 0 0 642 642" xml:space="preserve"><path d="m640.8 451.2-11.3-11.3c-1.3-1.3-1.3-3.3 0-4.5l11.3-11.3c.3-.3.8-.6 1.2-.7V217.6c-.4-.2-.8-.4-1.2-.7l-11.3-11.3c-1.3-1.3-1.3-3.3 0-4.5l11.3-11.3c.3-.3.8-.6 1.2-.7v-28.4L481.5 0h-29.4c-.1.2-.2.4-.4.6l-11.3 11.3c-1.3 1.3-3.3 1.3-4.5 0L424.5.6c-.2-.2-.3-.4-.4-.6H217.9c-.1.2-.2.4-.4.6l-11.3 11.3c-1.3 1.3-3.3 1.3-4.5 0L190.3.6c-.2-.2-.3-.4-.4-.6h-29.4L0 160.5v28.4c.4.2.8.4 1.2.7L12.5 201c1.3 1.3 1.3 3.3 0 4.5L1.2 216.9c-.3.3-.8.6-1.2.7v205.5c.4.2.8.4 1.2.7l11.3 11.3c1.3 1.3 1.3 3.3 0 4.5L1.2 451.2c-.3.3-.8.6-1.2.7v29.6L160.5 642h28.9c.1-.6.3-1.3.8-1.8l11.3-11.3c1.3-1.3 3.3-1.3 4.5 0l11.3 11.3c.5.5.7 1.1.8 1.8h205.3c.1-.6.3-1.3.8-1.8l11.3-11.3c1.3-1.3 3.3-1.3 4.5 0l11.3 11.3c.5.5.7 1.1.8 1.8H481l161-160.5v-29.6c-.4-.2-.8-.4-1.2-.7zm-40.6-279.5 11.3-11.3c1.3-1.3 3.3-1.3 4.5 0l11.3 11.3c1.3 1.3 1.3 3.3 0 4.5L616 187.5c-1.3 1.3-3.3 1.3-4.5 0l-11.3-11.3c-1.3-1.2-1.3-3.2 0-4.5zM481 264.1l-11.3 11.3c-1.3 1.3-3.3 1.3-4.5 0l-11.3-11.3c-1.3-1.3-1.3-3.3 0-4.5l11.3-11.3c1.3-1.3 3.3-1.3 4.5 0l11.3 11.3c1.3 1.2 1.3 3.3 0 4.5zm.5 56.9L321 481.5 160.5 321 321 160.5 481.5 321zm-57-90.7 11.3-11.3c1.3-1.3 3.3-1.3 4.5 0l11.3 11.3c1.3 1.3 1.3 3.3 0 4.5l-11.3 11.3c-1.3 1.3-3.3 1.3-4.5 0l-11.3-11.3c-1.3-1.2-1.3-3.2 0-4.5zm-29.3-205L406.6 14c1.3-1.3 3.3-1.3 4.5 0l11.3 11.3c1.3 1.3 1.3 3.3 0 4.5l-11.3 11.3c-1.3 1.3-3.3 1.3-4.5 0l-11.3-11.3c-1.3-1.2-1.3-3.2-.1-4.5zm0 175.7 11.3-11.3c1.3-1.3 3.3-1.3 4.5 0l11.3 11.3c1.3 1.3 1.3 3.3 0 4.5L411 216.8c-1.3 1.3-3.3 1.3-4.5 0l-11.3-11.3c-1.2-1.2-1.2-3.2 0-4.5zM365.9 54.6l11.3-11.3c1.3-1.3 3.3-1.3 4.5 0L393 54.6c1.3 1.3 1.3 3.3 0 4.5l-11.3 11.3c-1.3 1.3-3.3 1.3-4.5 0l-11.3-11.3c-1.2-1.2-1.2-3.2 0-4.5zm0 117.1 11.3-11.3c1.3-1.3 3.3-1.3 4.5 0l11.3 11.3c1.3 1.3 1.3 3.3 0 4.5l-11.3 11.3c-1.3 1.3-3.3 1.3-4.5 0l-11.3-11.3c-1.2-1.2-1.2-3.2 0-4.5zm-29.2-87.8L348 72.5c1.3-1.3 3.3-1.3 4.5 0l11.3 11.3c1.3 1.3 1.3 3.3 0 4.5l-11.3 11.3c-1.3 1.3-3.3 1.3-4.5 0l-11.3-11.3c-1.3-1.1-1.3-3.2 0-4.4zm0 58.6 11.3-11.3c1.3-1.3 3.3-1.3 4.5 0l11.3 11.3c1.3 1.3 1.3 3.3 0 4.5l-11.3 11.3c-1.3 1.3-3.3 1.3-4.5 0L336.7 147c-1.3-1.3-1.3-3.3 0-4.5zm-29.3-29.3 11.3-11.3c1.3-1.3 3.3-1.3 4.5 0l11.3 11.3c1.3 1.3 1.3 3.3 0 4.5L323.2 129c-1.3 1.3-3.3 1.3-4.5 0l-11.3-11.3c-1.3-1.2-1.3-3.3 0-4.5zm-29.3 29.3 11.3-11.3c1.3-1.3 3.3-1.3 4.5 0l11.3 11.3c1.3 1.3 1.3 3.3 0 4.5L294 158.3c-1.3 1.3-3.3 1.3-4.5 0L278.1 147c-1.3-1.3-1.3-3.3 0-4.5zm-29.3 29.2 11.3-11.3c1.3-1.3 3.3-1.3 4.5 0l11.3 11.3c1.3 1.3 1.3 3.3 0 4.5l-11.3 11.3c-1.3 1.3-3.3 1.3-4.5 0l-11.3-11.3c-1.2-1.2-1.2-3.2 0-4.5zM219.5 201l11.3-11.3c1.3-1.3 3.3-1.3 4.5 0l11.3 11.3c1.3 1.3 1.3 3.3 0 4.5l-11.3 11.3c-1.3 1.3-3.3 1.3-4.5 0l-11.3-11.3c-1.2-1.2-1.2-3.2 0-4.5zm-29.2 29.3 11.3-11.3c1.3-1.3 3.3-1.3 4.5 0l11.3 11.3c1.3 1.3 1.3 3.3 0 4.5l-11.3 11.3c-1.3 1.3-3.3 1.3-4.5 0l-11.3-11.3c-1.3-1.2-1.3-3.2 0-4.5zm-2.1 33.8-11.3 11.3c-1.3 1.3-3.3 1.3-4.5 0L161 264.1c-1.3-1.3-1.3-3.3 0-4.5l11.3-11.3c1.3-1.3 3.3-1.3 4.5 0l11.3 11.3c1.4 1.2 1.4 3.3.1 4.5zM161 25.3 172.3 14c1.3-1.3 3.3-1.3 4.5 0l11.3 11.3c1.3 1.3 1.3 3.3 0 4.5l-11.3 11.3c-1.3 1.3-3.3 1.3-4.5 0L161 29.9c-1.3-1.3-1.3-3.3 0-4.6zm-29.3 29.3L143 43.3c1.3-1.3 3.3-1.3 4.5 0l11.3 11.3c1.3 1.3 1.3 3.3 0 4.5l-11.3 11.3c-1.3 1.3-3.3 1.3-4.5 0l-11.3-11.3c-1.3-1.2-1.3-3.2 0-4.5zm0 234.3 11.3-11.3c1.3-1.3 3.3-1.3 4.5 0l11.3 11.3c1.3 1.3 1.3 3.3 0 4.5l-11.3 11.3c-1.3 1.3-3.3 1.3-4.5 0l-11.3-11.3c-1.3-1.3-1.3-3.3 0-4.5zm-29.3-205 11.3-11.3c1.3-1.3 3.3-1.3 4.5 0l11.3 11.3c1.3 1.3 1.3 3.3 0 4.5l-11.3 11.3c-1.3 1.3-3.3 1.3-4.5 0l-11.3-11.3c-1.2-1.2-1.2-3.2 0-4.5zM41.8 469.1l-11.3 11.3c-1.3 1.3-3.3 1.3-4.5 0l-11.3-11.3c-1.3-1.3-1.3-3.3 0-4.5L26 453.3c1.3-1.3 3.3-1.3 4.5 0l11.3 11.3c1.3 1.2 1.3 3.2 0 4.5zm0-234.3-11.3 11.3c-1.3 1.3-3.3 1.3-4.5 0l-11.3-11.3c-1.3-1.3-1.3-3.3 0-4.5L25.9 219c1.3-1.3 3.3-1.3 4.5 0l11.3 11.3c1.4 1.3 1.4 3.3.1 4.5zm0-58.5-11.3 11.3c-1.3 1.3-3.3 1.3-4.5 0l-11.3-11.3c-1.3-1.3-1.3-3.3 0-4.5L26 160.5c1.3-1.3 3.3-1.3 4.5 0l11.3 11.3c1.3 1.2 1.3 3.2 0 4.5zm29.3 322.1-11.3 11.3c-1.3 1.3-3.3 1.3-4.5 0L44 498.4c-1.3-1.3-1.3-3.3 0-4.5l11.3-11.3c1.3-1.3 3.3-1.3 4.5 0l11.3 11.3c1.2 1.2 1.2 3.2 0 4.5zm0-234.3-11.3 11.3c-1.3 1.3-3.3 1.3-4.5 0L44 264.1c-1.3-1.3-1.3-3.3 0-4.5l11.3-11.3c1.3-1.3 3.3-1.3 4.5 0l11.3 11.3c1.2 1.2 1.2 3.3 0 4.5zm0-117.1-11.3 11.3c-1.3 1.3-3.3 1.3-4.5 0L43.9 147c-1.3-1.3-1.3-3.3 0-4.5l11.3-11.3c1.3-1.3 3.3-1.3 4.5 0L71 142.5c1.3 1.2 1.3 3.2.1 4.5zm2-33.8 11.3-11.3c1.3-1.3 3.3-1.3 4.5 0l11.3 11.3c1.3 1.3 1.3 3.3 0 4.5L89 129.1c-1.3 1.3-3.3 1.3-4.5 0l-11.3-11.3c-1.3-1.3-1.3-3.4-.1-4.6zm27.3 180.2L89 304.7c-1.3 1.3-3.3 1.3-4.5 0l-11.3-11.3c-1.3-1.3-1.3-3.3 0-4.5l11.3-11.3c1.3-1.3 3.3-1.3 4.5 0l11.3 11.3c1.3 1.2 1.3 3.2.1 4.5zm0 234.2L89 539c-1.3 1.3-3.3 1.3-4.5 0l-11.3-11.3c-1.3-1.3-1.3-3.3 0-4.5l11.3-11.3c1.3-1.3 3.3-1.3 4.5 0l11.3 11.3c1.3 1.2 1.3 3.2.1 4.4zm29.3 29.3-11.3 11.3c-1.3 1.3-3.3 1.3-4.5 0l-11.3-11.3c-1.3-1.3-1.3-3.3 0-4.5l11.3-11.3c1.3-1.3 3.3-1.3 4.5 0l11.3 11.3c1.2 1.2 1.2 3.3 0 4.5zm0-234.2L118.3 334c-1.3 1.3-3.3 1.3-4.5 0l-11.3-11.3c-1.3-1.3-1.3-3.3 0-4.5l11.3-11.3c1.3-1.3 3.3-1.3 4.5 0l11.3 11.3c1.3 1.2 1.3 3.2.1 4.5zm2 24.7 11.3-11.3c1.3-1.3 3.3-1.3 4.5 0l11.3 11.3c1.3 1.3 1.3 3.3 0 4.5l-11.3 11.3c-1.3 1.3-3.3 1.3-4.5 0L131.7 352c-1.3-1.3-1.3-3.3 0-4.6zm27.2 238.8-11.3 11.3c-1.3 1.3-3.3 1.3-4.5 0l-11.3-11.3c-1.3-1.3-1.3-3.3 0-4.5l11.3-11.3c1.3-1.3 3.3-1.3 4.5 0l11.3 11.3c1.3 1.2 1.3 3.3 0 4.5zm2.1-209.5 11.3-11.3c1.3-1.3 3.3-1.3 4.5 0l11.3 11.3c1.3 1.3 1.3 3.3 0 4.5l-11.3 11.3c-1.3 1.3-3.3 1.3-4.5 0L161 381.2c-1.3-1.2-1.3-3.2 0-4.5zm27.2 238.8-11.3 11.3c-1.3 1.3-3.3 1.3-4.5 0L161 615.5c-1.3-1.3-1.3-3.3 0-4.5l11.3-11.3c1.3-1.3 3.3-1.3 4.5 0l11.3 11.3c1.4 1.2 1.4 3.2.1 4.5zm29.3-205-11.3 11.3c-1.3 1.3-3.3 1.3-4.5 0l-11.3-11.3c-1.3-1.3-1.3-3.3 0-4.5l11.3-11.3c1.3-1.3 3.3-1.3 4.5 0l11.3 11.3c1.3 1.2 1.3 3.3 0 4.5zm2 24.8 11.3-11.3c1.3-1.3 3.3-1.3 4.5 0l11.3 11.3c1.3 1.3 1.3 3.3 0 4.5l-11.3 11.3c-1.3 1.3-3.3 1.3-4.5 0l-11.3-11.3c-1.2-1.3-1.2-3.3 0-4.5zm27.3 180.2-11.3 11.3c-1.3 1.3-3.3 1.3-4.5 0l-11.3-11.3c-1.3-1.3-1.3-3.3 0-4.5l11.3-11.3c1.3-1.3 3.3-1.3 4.5 0l11.3 11.3c1.2 1.2 1.2 3.2 0 4.5zm2-151 11.3-11.3c1.3-1.3 3.3-1.3 4.5 0l11.3 11.3c1.3 1.3 1.3 3.3 0 4.5l-11.3 11.3c-1.3 1.3-3.3 1.3-4.5 0L248.8 469c-1.2-1.2-1.2-3.2 0-4.5zm27.3 121.7-11.3 11.3c-1.3 1.3-3.3 1.3-4.5 0L249 586.2c-1.3-1.3-1.3-3.3 0-4.5l11.3-11.3c1.3-1.3 3.3-1.3 4.5 0l11.3 11.3c1.2 1.2 1.2 3.3 0 4.5zm2-92.4 11.3-11.3c1.3-1.3 3.3-1.3 4.5 0l11.3 11.3c1.3 1.3 1.3 3.3 0 4.5L294 509.7c-1.3 1.3-3.3 1.3-4.5 0l-11.3-11.3c-1.4-1.3-1.4-3.3-.1-4.6zm27.2 63.1L294 568.3c-1.3 1.3-3.3 1.3-4.5 0L278.2 557c-1.3-1.3-1.3-3.3 0-4.5l11.3-11.3c1.3-1.3 3.3-1.3 4.5 0l11.3 11.3c1.3 1.1 1.3 3.2 0 4.4zm29.3-29.3L323.3 539c-1.3 1.3-3.3 1.3-4.5 0l-11.3-11.3c-1.3-1.3-1.3-3.3 0-4.5l11.3-11.3c1.3-1.3 3.3-1.3 4.5 0l11.3 11.3c1.3 1.2 1.3 3.2 0 4.4zm29.3-29.2-11.3 11.3c-1.3 1.3-3.3 1.3-4.5 0l-11.3-11.3c-1.3-1.3-1.3-3.3 0-4.5l11.3-11.3c1.3-1.3 3.3-1.3 4.5 0l11.3 11.3c1.3 1.2 1.3 3.2 0 4.5zm29.3-29.3-11.3 11.3c-1.3 1.3-3.3 1.3-4.5 0l-11.3-11.3c-1.3-1.3-1.3-3.3 0-4.5l11.3-11.3c1.3-1.3 3.3-1.3 4.5 0l11.3 11.3c1.2 1.2 1.2 3.2 0 4.5zm29.3-29.3-11.3 11.3c-1.3 1.3-3.3 1.3-4.5 0l-11.3-11.3c-1.3-1.3-1.3-3.3 0-4.5l11.3-11.3c1.3-1.3 3.3-1.3 4.5 0l11.3 11.3c1.2 1.2 1.2 3.3 0 4.5zm29.2-29.3-11.3 11.3c-1.3 1.3-3.3 1.3-4.5 0l-11.3-11.3c-1.3-1.3-1.3-3.3 0-4.5l11.3-11.3c1.3-1.3 3.3-1.3 4.5 0l11.3 11.3c1.3 1.2 1.3 3.3 0 4.5zm29.3 205-11.3 11.3c-1.3 1.3-3.3 1.3-4.5 0l-11.3-11.3c-1.3-1.3-1.3-3.3 0-4.5l11.3-11.3c1.3-1.3 3.3-1.3 4.5 0L481 611c1.3 1.2 1.3 3.2 0 4.5zm0-234.3-11.3 11.3c-1.3 1.3-3.3 1.3-4.5 0l-11.3-11.3c-1.3-1.3-1.3-3.3 0-4.5l11.3-11.3c1.3-1.3 3.3-1.3 4.5 0l11.3 11.3c1.3 1.3 1.3 3.3 0 4.5zm0-351.3-11.3 11.3c-1.3 1.3-3.3 1.3-4.5 0l-11.3-11.3c-1.3-1.3-1.3-3.3 0-4.5L465.1 14c1.3-1.3 3.3-1.3 4.5 0L481 25.3c1.3 1.3 1.3 3.3 0 4.6zm29.3 556.3L499 597.6c-1.3 1.3-3.3 1.3-4.5 0l-11.3-11.3c-1.3-1.3-1.3-3.3 0-4.5l11.3-11.3c1.3-1.3 3.3-1.3 4.5 0l11.3 11.3c1.3 1.1 1.3 3.2 0 4.4zm0-234.2L499 363.3c-1.3 1.3-3.3 1.3-4.5 0L483.1 352c-1.3-1.3-1.3-3.3 0-4.5l11.3-11.3c1.3-1.3 3.3-1.3 4.5 0l11.3 11.3c1.4 1.2 1.4 3.2.1 4.5zm-27.2-63.1 11.3-11.3c1.3-1.3 3.3-1.3 4.5 0l11.3 11.3c1.3 1.3 1.3 3.3 0 4.5L499 304.7c-1.3 1.3-3.3 1.3-4.5 0l-11.3-11.3c-1.4-1.3-1.4-3.3-.1-4.5zm27.2-229.7L499 70.5c-1.3 1.3-3.3 1.3-4.5 0l-11.3-11.3c-1.3-1.3-1.3-3.3 0-4.5l11.3-11.3c1.3-1.3 3.3-1.3 4.5 0l11.3 11.3c1.3 1.2 1.3 3.2 0 4.5zm29.3 497.7-11.3 11.3c-1.3 1.3-3.3 1.3-4.5 0l-11.3-11.3c-1.3-1.3-1.3-3.3 0-4.5l11.3-11.3c1.3-1.3 3.3-1.3 4.5 0l11.3 11.3c1.2 1.2 1.2 3.3 0 4.5zm0-234.2L528.2 334c-1.3 1.3-3.3 1.3-4.5 0l-11.3-11.3c-1.3-1.3-1.3-3.3 0-4.5l11.3-11.3c1.3-1.3 3.3-1.3 4.5 0l11.3 11.3c1.3 1.2 1.3 3.2.1 4.5zm0-234.3-11.3 11.3c-1.3 1.3-3.3 1.3-4.5 0l-11.3-11.3c-1.3-1.3-1.3-3.3 0-4.5l11.3-11.3c1.3-1.3 3.3-1.3 4.5 0l11.3 11.3c1.2 1.2 1.2 3.3 0 4.5zm29.3 439.2L557.5 539c-1.3 1.3-3.3 1.3-4.5 0l-11.3-11.3c-1.3-1.3-1.3-3.3 0-4.5l11.3-11.3c1.3-1.3 3.3-1.3 4.5 0l11.3 11.3c1.3 1.2 1.3 3.2.1 4.4zm0-234.2-11.3 11.3c-1.3 1.3-3.3 1.3-4.5 0l-11.3-11.3c-1.3-1.3-1.3-3.3 0-4.5l11.3-11.3c1.3-1.3 3.3-1.3 4.5 0l11.3 11.3c1.2 1.2 1.2 3.2 0 4.5zm0-175.7L557.6 129c-1.3 1.3-3.3 1.3-4.5 0l-11.3-11.3c-1.3-1.3-1.3-3.3 0-4.5l11.3-11.3c1.3-1.3 3.3-1.3 4.5 0l11.3 11.3c1.2 1.2 1.2 3.3 0 4.5zm29.2 380.7-11.3 11.3c-1.3 1.3-3.3 1.3-4.5 0L571 498.4c-1.3-1.3-1.3-3.3 0-4.5l11.3-11.3c1.3-1.3 3.3-1.3 4.5 0l11.3 11.3c1.3 1.2 1.3 3.2 0 4.5zm0-234.3-11.3 11.3c-1.3 1.3-3.3 1.3-4.5 0L571 264.1c-1.3-1.3-1.3-3.3 0-4.5l11.3-11.3c1.3-1.3 3.3-1.3 4.5 0l11.3 11.3c1.3 1.2 1.3 3.3 0 4.5zm0-117.1-11.3 11.3c-1.3 1.3-3.3 1.3-4.5 0L570.9 147c-1.3-1.3-1.3-3.3 0-4.5l11.3-11.3c1.3-1.3 3.3-1.3 4.5 0l11.3 11.3c1.4 1.2 1.4 3.2.1 4.5zm29.3 322.1-11.3 11.3c-1.3 1.3-3.3 1.3-4.5 0l-11.3-11.3c-1.3-1.3-1.3-3.3 0-4.5l11.3-11.3c1.3-1.3 3.3-1.3 4.5 0l11.3 11.3c1.3 1.2 1.3 3.2 0 4.5zm0-234.3-11.3 11.3c-1.3 1.3-3.3 1.3-4.5 0l-11.3-11.3c-1.3-1.3-1.3-3.3 0-4.5l11.3-11.3c1.3-1.3 3.3-1.3 4.5 0l11.3 11.3c1.3 1.3 1.3 3.3 0 4.5z"></path></svg>