<svg xmlns="http://www.w3.org/2000/svg" width="606.7" viewBox="0 0 606.7 341.1" height="341.1" style="enable-background:new 0 0 606.7 341.1" xml:space="preserve"><path d="M419.8 312.7h186.9V302H419.8c.1 1.8.1 3.5.1 5.3 0 1.8-.1 3.6-.1 5.4zM162.9 30.5l-36.6 21.9 100.5 168c10.6-9.4 23-16.9 36.6-22L162.9 30.5zM460.9 46.9l-21.8-12-90.8 165.2c7.7 3.2 15 7.3 21.8 12l90.8-165.2zM568 160.8l-9.1-15.3-160.2 95c3.4 4.8 6.5 9.9 9.1 15.3l160.2-95zM50.5 133.5l-24 41.6 166.9 96.3c5.1-15.6 13.3-29.7 24-41.6L50.5 133.5zM324.1 193V0h-37.3v192.5c5.6-.8 11.2-1.3 17-1.3 6.9 0 13.7.7 20.3 1.8zM187.7 307.3c0-11.8 1.8-23.1 5-33.8H1.9C.7 284.6 0 295.9 0 307.3c0 11.4.7 22.7 1.9 33.8h190.8c-3.2-10.7-5-22-5-33.8z"></path></svg>