<svg xmlns="http://www.w3.org/2000/svg" width="590.7" viewBox="0 0 590.7 509.5" height="509.5"><path d="M423.2 0h-4.9v206.7h-5.1v94.5h4.9v-.1h.2v208.4h4.9v-98.3h4.7v-94.6h-4.7V191.3h4.7V96.7h-4.7zM439.7 0h-4.9v206.7h-5v94.5h4.9v-.1h.1v208.4h4.9v-98.3h4.8v-94.6h-4.8V191.3h4.8V96.7h-4.8zM451.4 500.5l9.3-9.2V19.8l-9.3-9.3zM501.2 236.1l9.3-9.3V69.5l-9.3-9.3zM501.2 450.8l9.3-9.3V281.1l-9.3-9.3zM517.7 219.5l9.3-9.3V86.1l-9.3-9.3zM517.7 434.2l9.3-9.3V297.7l-9.3-9.3zM534.3 203l9.3-9.3v-91l-9.3-9.3zM534.3 417.7l9.3-9.3v-94.1l-9.3-9.3zM550.9 401.1l9.3-9.3v-61l-9.3-9.3zM550.9 186.4l9.3-9.3v-57.8l-9.3-9.3zM567.5 169.8l9.3-9.3v-24.6l-9.3-9.4zM567.5 384.5l9.3-9.3v-27.8l-9.3-9.3zM484.6 467.4l9.3-9.3V264.5l-9.3-9.3zM484.6 252.7l9.3-9.3V53l-9.3-9.3zM468 484l9.3-9.3V36.4l-9.3-9.3zM406.6 0h-4.9v206.7h-5v94.5h4.9v-.1h.1v208.4h4.9v-98.3h4.8v-94.6h-4.8V191.3h4.8V96.7h-4.8zM390 0h-4.9v206.7h-5v94.5h4.9v-.1h.1v208.4h4.9v-98.3h4.8v-94.6H390V191.3h4.8V96.7H390zM373.4 0h-4.9v206.7h-5v94.5h4.9v-.1h.1v208.4h4.9v-98.3h4.8v-94.6h-4.8V191.3h4.9V96.7h-4.9zM356.9 0H352v206.7h-5.1v94.5h4.9v-.1h.2v208.4h4.9v-98.3h4.7v-94.6h-4.7V191.3h4.7V96.7h-4.7zM340.3 0h-4.9v206.7h-5.1v94.5h4.9v-.1h.2v208.4h4.9v-98.3h4.7v-94.6h-4.7V191.3h4.7V96.7h-4.7zM323.7 0h-4.9v206.7h-5v94.5h4.9v-.1h.1v208.4h4.9v-98.3h4.7v-94.6h-4.7V191.3h4.7V96.7h-4.7zM307.1 0h-4.9v206.7h-5v94.5h4.9v-.1h.1v208.4h4.9v-98.3h4.8v-94.6h-4.8V191.3h4.8V96.7h-4.8zM290.6 0h-4.9v206.8l-5.1-.1v94.5H285.7v208.3h4.9v-98.3h4.7v-94.6h-4.7V191.3h4.7V96.7h-4.7zM274 0h-4.9v206.7H264v94.5h4.9v-.1h.2v208.4h4.9v-98.3h4.7v-94.6H274V191.3h4.7V96.7H274zM257.4 0h-4.9v206.7h-5.1v94.5h4.9v-.1h.2v208.4h4.9v-98.3h4.7v-94.6h-4.7V191.3h4.7V96.7h-4.7zM240.8 0h-4.9v206.7h-5v94.5h4.9v-.1h.1v208.4h4.9v-98.3h4.7v-94.6h-4.7V191.3h4.7V96.7h-4.7zM224.2 0h-4.8v206.7h-5.1v94.5h4.9v-.1h.2v208.4h4.8v-98.3h4.8v-94.6h-4.8V191.3h4.8V96.7h-4.8zM207.7 0h-4.9v206.7h-5.1v94.5h4.9v-.1h.2v208.4h4.9v-98.3h4.7v-94.6h-4.7V191.3h4.7V96.7h-4.7zM191.1 0h-4.9v206.7h-5.1v94.5h4.9v-.1h.2v208.4h4.9v-98.3h4.7v-94.6h-4.7V191.3h4.7V96.7h-4.7zM174.5 0h-4.9v206.7H164.5v94.5H169.6v208.3h4.9v-98.3h4.7v-94.6h-4.7V191.3h4.7V96.7h-4.7zM157.9 0H153v206.7h-4.7v94.5h4.7v208.3h4.9v-98.3h4.7v-94.6h-4.7V191.3h4.7V96.7h-4.7zM136.8 117.2L132 122v261.3l4.8 4.6v121.6h4.9V0h-4.9zM120.5 133.5l-4.8 4.8v229l4.8 4.7v137.5h4.9V0h-4.9zM104.2 149.8l-4.8 4.8v196.7l4.8 4.7v153.5h4.9V0h-4.9zM87.9 166.1l-4.8 4.8v164.5l4.8 4.6v169.5h4.9V0h-4.9zM71.6 182.4l-4.8 4.8v132.2l4.8 4.7v185.4h4.9V0h-4.9zM55.3 198.7l-4.8 4.8v99.9l4.8 4.7v201.4h4.9V0h-4.9zM39 215l-4.8 4.7v67.8l4.8 4.7v217.3h4.9V0H39zM22.7 231.3l-4.8 4.7v35.5l4.8 4.7v233.3h4.9V0h-4.9zM6.4 0v247.6L0 254l6.4 6.2v249.3h4.9V0zM589.1 148.2l-5.1-5.1v10.1l4.9-4.9zM584 354.7v13.2l6.7-6.6z"></path></svg>