<svg data-name="Layer 1" xmlns="http://www.w3.org/2000/svg" viewBox="0 0 615.55 607.51"><path d="M307.78 0C138.07 0 0 138.07 0 307.78c0 74.65 26.74 143.17 71.11 196.52a310.668 310.668 0 0 0 42.46 42.04l194.21-336.38 194.2 336.37a310.097 310.097 0 0 0 42.46-42.04c44.37-53.35 71.11-121.86 71.11-196.52C615.55 138.07 477.48 0 307.78 0Zm0 94.38L77.25 493.65c-41.1-50.87-65.78-115.53-65.78-185.87 0-163.39 132.92-296.31 296.31-296.31s296.3 132.92 296.3 296.31c0 70.34-24.68 135-65.78 185.87L307.78 94.38Z"></path><path d="M307.78 232.87 122.67 553.48a308.117 308.117 0 0 0 49.21 30.35l135.9-235.38 135.9 235.38a308.117 308.117 0 0 0 49.21-30.35L307.78 232.87Z"></path><path d="M307.78 371.36 182.3 588.7a305.12 305.12 0 0 0 55.87 18.81l69.61-120.57 69.61 120.57a305.12 305.12 0 0 0 55.87-18.81L307.78 371.36Z"></path></svg>