<svg data-name="Layer 1" xmlns="http://www.w3.org/2000/svg" viewBox="0 0 604.15 630.81"><path d="M488.45 207.8V74.2L359.93 0 231.41 74.2V193l-102.89-59.4L0 207.8v148.4L115.7 423v133.6l128.52 74.2 128.52-74.2V437.8l102.89 59.4L604.15 423V274.6l-115.7-66.8ZM462.81 193l-77.25-44.6 77.25-44.6V193Zm-128.52 89-77.25 44.6v-89.2l77.25 44.6Zm-64.43-66.8 77.25-44.6v89.2l-77.25-44.6Zm0 133.6 77.25-44.6v89.2l-77.25-44.6Zm102.88-44.6 77.25 44.6-77.25 44.6v-89.2Zm12.82-22.2 77.25-44.6v89.2L385.56 282Zm64.43-66.8-77.25 44.6v-89.2l77.25 44.6ZM231.4 326.6 154.15 282l77.25-44.6v89.2Zm-12.82 22.2-77.25 44.6v-89.2l77.25 44.6ZM231.4 371v89.2l-77.25-44.6L231.4 371Zm25.64 0 77.25 44.6-77.25 44.6V371Zm231.41-133.6L565.7 282l-77.25 44.6v-89.2ZM372.74 126.2V37l77.25 44.6-77.25 44.6Zm-25.64 0-77.25-44.6L347.1 37v89.2Zm-12.82 22.2L257.03 193v-89.2l77.25 44.6ZM141.33 259.8v-89.2l77.25 44.6-77.25 44.6Zm-25.64 0-77.25-44.6 77.25-44.6v89.2ZM102.87 282l-77.25 44.6v-89.2l77.25 44.6Zm12.82 22.2v89.2l-77.25-44.6 77.25-44.6Zm102.89 178.2L141.33 527v-89.2l77.25 44.6Zm12.82 22.2v89.21l-77.25-44.61 77.25-44.6Zm25.64 0 77.25 44.6-77.25 44.61v-89.2Zm12.81-22.2 77.25-44.6V527l-77.25-44.6ZM462.81 371v89.2l-77.25-44.6 77.25-44.6Zm25.64 0 77.25 44.6-77.25 44.6V371Zm12.81-22.2 77.25-44.6v89.2l-77.25-44.6Z"></path></svg>