<svg xmlns="http://www.w3.org/2000/svg" width="606.9" viewBox="0 0 606.9 274.9" height="274.9" xml:space="preserve"><path d="M303.4 229.1c-50.6 0-91.7-41.1-91.7-91.7s41.1-91.7 91.7-91.7 91.7 41.1 91.7 91.7-41 91.7-91.7 91.7M603.7 93.9c-6.4-11-20.2-14.9-31.4-9.1L481 137.5c-9.9 5.7-22.5 2.1-27.9-7.9l-33.2-61.8C396.3 27.2 353 0 303.4 0c-14.9 0-29.3 2.5-42.7 7.1-11 3.7-21 9.7-31.1 15.5L18.3 144.8s-4.2 2.5-6.4 3.7c-11.3 6.6-15.2 21.1-8.7 32.4 6.4 11 20.3 14.9 31.5 9.1l91.3-52.7c9.9-5.7 22.5-2.1 27.9 7.9l33.2 61.8c23.5 40.6 66.8 67.8 116.3 67.8 14.2 0 27.8-2.2 40.6-6.3 10.9-3.5 20.5-8.7 30.4-14.4C425.3 225 595 126.4 595 126.4c11.4-6.6 15.2-21.1 8.7-32.5"></path><path d="M303.4 94.7c-23.6 0-42.7 19.1-42.7 42.7s19.1 42.7 42.7 42.7 42.7-19.1 42.7-42.7-19.1-42.7-42.7-42.7"></path></svg>