<svg id="Layer_1" data-name="Layer 1" xmlns="http://www.w3.org/2000/svg" viewBox="0 0 614.04 415.48">   <path d="M600.08,193.38l-185.55-5.29c.61,6.47,.95,13.02,.95,19.66s-.34,13.18-.95,19.66l185.55-5.29c18.61-.54,18.61-28.19,0-28.73Zm-18.59,21.95h-9.79c-4.17,0-7.58-3.41-7.58-7.58s3.41-7.58,7.58-7.58h9.79c4.17,0,7.58,3.41,7.58,7.58s-3.41,7.58-7.58,7.58Z"></path>   <path d="M278.53,286.46s-58.33,3.52-120.18,14.76V114.27c61.85,11.25,120.18,14.76,120.18,14.76,10.54,27.41,37.95,56.23,37.95,56.23l98.05,2.83C404.63,82.58,315.84,0,207.74,0,93.01,0,0,93.01,0,207.74s93.01,207.74,207.74,207.74c108.1,0,196.88-82.58,206.79-188.08l-98.05,2.83s-27.41,28.82-37.95,56.23Z"></path> </svg>