<svg data-name="Layer 1" xmlns="http://www.w3.org/2000/svg" viewBox="0 0 619.32 541.4"><path d="M192.04 275.76H0l30.02 51.89 76.68.05-44.36 56.03 25.61 44.36 70.69-10.31-38.35 66.32 30.16 52.24 96.02-166.31-54.43-94.27zM364.08 166.31 460.1 0h-60.11l-38.34 66.41L335.27 0h-51.23l-26.37 66.41L219.33 0h-60.12l96.02 166.31h108.85zM427.28 265.64h192.04l-30.04-52.02-76.69-.01 44.33-56.04.02.04-25.64-44.41-70.69 10.35 38.34-66.38-30.08-52.11-96.02 166.31 54.43 94.27zM372.85 370.03l96.02 166.31 30.01-51.98-38.34-66.44 70.7 10.38 25.62-44.36-44.3-56.05 76.65.02 30.1-52.15H427.28l-54.43 94.27zM255.23 375.09 159.21 541.4l59.99-.04 38.37-66.39 26.35 66.43h51.23l26.4-66.38 38.28 66.38h60.27l-96.02-166.31H255.23zM246.47 171.37 150.45 5.06l-29.89 51.92 38.28 66.43-70.71-10.42-25.61 44.37 44.26 56.06-76.59-.06L0 265.64h192.04l54.43-94.27z"></path></svg>