<svg xmlns="http://www.w3.org/2000/svg" id="a" width="642" viewBox="0 0 642 609.9" height="609.9" data-name="Layer 1"><defs></defs><path d="M0 186.18h311.37c14.18 0 27.02-5.75 36.32-15.04 0 0 27.88-28.45 27.88-65.21s-27.88-65.21-27.88-65.21c-9.29-9.29-22.13-15.04-36.32-15.04H0V0h336.25s241.82 169.33 241.82 169.32c30.37 20.11 50.39 54.59 50.39 93.73 0 42.75-23.88 79.92-59.02 98.91-9.54 5.15-21.22 4.3-30.1-1.92L328.72 212.57a12.849 12.849 0 0 0-7.36-2.32H0" class="b"></path><path d="M247.17 609.9 0 436.83v-27.39h311.37c14.18 0 27.02-5.75 36.32-15.04 0 0 27.88-28.45 27.88-65.21s-27.88-65.21-27.88-65.21c-9.29-9.29-22.13-15.04-36.32-15.04H0v-27.45h315.02c2.64 0 5.21.81 7.36 2.32l274.1 191.93c28.51 20 46.8 53.58 45.44 91.36-2.08 57.88-51.65 102.81-109.57 102.81H247.17Z" class="b"></path><path d="M337.18 267.52H0v-8.99h311.37c9.76 0 18.68 3.4 25.81 8.99ZM349.57 284.09H0v-8.99h343.98l5.59 8.99zM357.21 300.58H0v-8.99h353.42c1.35 2.76 2.63 5.78 3.79 8.99ZM361.7 317.15H0v-8.99h359.65c.83 2.89 1.54 5.91 2.05 8.99ZM362.73 329.15c0 1.54-.06 3.08-.19 4.56H0v-9.05h362.54c.13 1.48.19 2.95.19 4.49ZM361.7 341.22c-.51 3.08-1.22 6.1-2.05 8.99H0v-8.99h361.7ZM357.21 357.79c-1.16 3.15-2.44 6.16-3.72 8.92H0v-8.92h357.21ZM349.57 374.29l-5.59 8.98H0v-8.98h349.57zM337.18 390.79c-7.13 5.65-16.05 8.99-25.81 8.99H0v-8.99h337.18ZM337.18 44.3H0v-8.99h311.37c9.76 0 18.68 3.4 25.81 8.99ZM349.57 60.86H0v-8.99h343.98l5.59 8.99zM357.21 77.36H0v-8.99h353.42c1.35 2.76 2.63 5.78 3.79 8.99ZM361.7 93.92H0v-8.99h359.65c.83 2.89 1.54 5.91 2.05 8.99ZM362.73 105.93c0 1.54-.06 3.08-.19 4.56H0v-9.05h362.54c.13 1.48.19 2.95.19 4.49ZM361.7 118c-.51 3.08-1.22 6.1-2.05 8.99H0V118h361.7ZM357.21 134.56c-1.16 3.15-2.44 6.16-3.72 8.92H0v-8.92h357.21ZM349.57 151.06l-5.59 8.99H0v-8.99h349.57zM337.18 167.56c-7.13 5.65-16.05 8.99-25.81 8.99H0v-8.99h337.18Z" class="b"></path></svg>