<svg data-name="Layer 1" xmlns="http://www.w3.org/2000/svg" viewBox="0 0 621.53 621.53"><path d="M377.42 334.56c74.65 32.13 140.91 80.06 194.52 139.62h-142.6c-92.33-103-226.35-167.86-375.56-167.86-13.56 0-26.95.69-40.23 1.74a558.468 558.468 0 0 1 143.56-18.73c16.09 0 32.01.7 47.76 2.04C285.23 195.42 387 118.02 502.73 66.48 449.87 24.88 383.24 0 310.77 0 139.14 0 0 139.14 0 310.77s139.14 310.77 310.77 310.77S621.54 482.4 621.54 310.77c0-40.91-7.98-79.94-22.35-115.71a670.107 670.107 0 0 0-221.76 139.5Z"></path><path d="M242.57 295.88c11.85 1.82 23.58 3.98 35.17 6.54 75.49-81.53 168.55-146.52 273.08-189.01-6.87-8.35-14.2-16.31-21.89-23.89-110.4 46.73-208.12 117.73-286.35 206.37ZM585.86 166.21c-4.81-9.13-10.05-18-15.71-26.57-97.85 38.5-185.47 97.48-257.49 171.71 10.98 3.18 21.82 6.67 32.5 10.5 68.09-67.25 149.87-120.63 240.7-155.64Z"></path></svg>