<svg data-name="Layer 1" xmlns="http://www.w3.org/2000/svg" viewBox="0 0 620.05 620.05"><path d="M310.02 0C138.8 0 0 138.8 0 310.02s138.8 310.02 310.02 310.02 310.02-138.8 310.02-310.02S481.25 0 310.02 0Zm228.22 407.07c-17.12-21.63-43.55-35.56-73.27-35.56-32.24 0-60.67 16.33-77.47 41.17-16.8-24.84-45.23-41.17-77.47-41.17s-60.67 16.33-77.47 41.17c-16.8-24.84-45.23-41.17-77.47-41.17-29.73 0-56.16 13.93-73.27 35.56 1.17-5.9 1.81-11.98 1.81-18.22 0-33.17-17.33-62.24-43.39-78.82 26.05-16.59 43.39-45.65 43.39-78.82 0-6.24-.64-12.33-1.81-18.22 17.12 21.63 43.55 35.56 73.27 35.56 32.24 0 60.67-16.33 77.47-41.17 16.8 24.84 45.23 41.17 77.47 41.17s60.67-16.33 77.47-41.17c16.8 24.84 45.23 41.17 77.47 41.17 29.73 0 56.16-13.93 73.27-35.56-1.17 5.9-1.81 11.98-1.81 18.22 0 33.17 17.33 62.24 43.39 78.82-26.05 16.59-43.39 45.65-43.39 78.82 0 6.24.64 12.33 1.81 18.22Z"></path></svg>