<svg xmlns="http://www.w3.org/2000/svg" width="629.1" viewBox="0 0 629.1 629.1" height="629.1" xml:space="preserve" style="enable-background:new 0 0 629.1 629.1"><path d="M314.5 0C140.8 0 0 140.8 0 314.6c0 173.7 140.8 314.5 314.5 314.5S629 488.3 629 314.6C629.1 140.8 488.3 0 314.5 0zm182.1 496-1.4-.6c-34-10.7-78.5-21.6-114-28.8-34.8-7.1-67.3-9.9-89.8-9-41.3 1.6-58.9 10.8-58.9 10.8-43.6 20.6-34.7 80.8-34.7 80.8-64.6-33.1-115.1-89.3-137.1-166 23.6-20.7 46.5-42.3 67.9-65.3 24.8-26.6 48-54.7 67-85.9 16.3-26.7 34.8-65.8 21.9-97.1-7.2-17.6-23-29.1-39.4-37.7l-1.9-1c39-25.2 85.4-39.8 135.2-39.8 25.8 0 50.7 3.9 74.1 11.2l.6.3s23.8 102.9 38 136.1c0 0 5.3 14.9 17.2 35.9 9.3 16.4 19.3 33.1 31.3 47.7 8.5 10.3 18.1 20.1 29.4 27.3 8 5 17 7.8 28 6.6 10.8-1.3 18.6-3.8 35.5-13.6l5.2-3.4c.4 5.5.6 9.6.4 15.1-2.6 68.3-29.5 132.1-74.5 176.4z"></path><path d="M312.7 280c-21.8 0-39.4 17.6-39.4 39.4 0 21.8 17.7 39.4 39.4 39.4 21.8 0 39.4-17.6 39.4-39.4 0-21.7-17.7-39.4-39.4-39.4z"></path></svg>