<svg xmlns="http://www.w3.org/2000/svg" width="439.77" viewBox="0 0 439.77 642" height="642" data-name="Layer 1"><circle cx="321" cy="321" r="118.77"></circle><path d="M192.6 321c0 70.94 57.46 128.4 128.4 128.4 22.08 0 42.82-5.59 60.99-15.41v54.38c-19 7-39.55 10.79-60.99 10.79-98.42 0-178.16-79.74-178.16-178.16S222.58 142.84 321 142.84c21.44 0 41.99 3.79 60.99 10.79v54.38c-18.17-9.82-38.91-15.41-60.99-15.41-70.94 0-128.4 57.46-128.4 128.4Z"></path><path d="M133.22 321c0 103.68 84.1 187.79 187.78 187.79V642C143.74 642 0 498.26 0 321S143.74 0 321 0v133.22c-103.68 0-187.78 84.1-187.78 187.78Z"></path></svg>