<svg xmlns="http://www.w3.org/2000/svg" viewBox="0 0 642 547.79"><circle cx="44.14" cy="44.14" r="44.14"></circle><circle cx="597.86" cy="44.14" r="44.14"></circle><g><path d="M642 503.66c0 24.33-19.77 44.11-44.17 44.11-19.84 0-36.66-13.16-42.18-31.27H455.5c-5.52 18.1-22.34 31.27-42.18 31.27-24.4 0-44.17-19.77-44.17-44.11s19.77-44.17 44.17-44.17c5.84 0 11.36 1.16 16.44 3.21l131.67-163.9c-2.5-3.66-4.49-7.7-5.78-12.07H455.5c-5.46 18.1-22.28 31.33-42.18 31.33-24.4 0-44.17-19.77-44.17-44.17 0-9.24 2.82-17.78 7.7-24.85L321 179.45l-55.85 69.59c4.88 7.06 7.7 15.6 7.7 24.85 0 31.39-31.83 52.61-60.6 40.96L80.57 478.76c4.88 7.13 7.7 15.66 7.7 24.91 0 24.33-19.77 44.11-44.11 44.11S0 528 0 503.66c0-31.39 31.83-52.61 60.6-40.96l59.71-74.34-59.58-73.57a43.279 43.279 0 0 1-16.56 3.27C19.77 318.06 0 298.29 0 273.89s19.77-44.17 44.17-44.17 44.11 19.77 44.11 44.17c0 9.18-2.76 17.66-7.58 24.72l56.05 69.27 55.53-69.08c-4.88-7.06-7.7-15.66-7.7-24.91 0-24.4 19.77-44.17 44.11-44.17 5.84 0 11.43 1.16 16.5 3.21l59.38-73.96-59.38-73.89a44.011 44.011 0 0 1-16.5 3.21c-24.33 0-44.11-19.77-44.11-44.17S204.35.02 228.68.02s44.17 19.77 44.17 44.11c0 9.24-2.82 17.78-7.7 24.91L321 138.57l55.85-69.53c-4.88-7.13-7.7-15.66-7.7-24.91 0-24.34 19.77-44.11 44.17-44.11s44.11 19.77 44.11 44.11-19.77 44.17-44.11 44.17c-5.84 0-11.43-1.16-16.5-3.21l-59.38 73.96 59.38 73.89c23.97-9.71 51.21 3.35 58.68 28.12h100.15c5.46-18.1 22.28-31.33 42.18-31.33 24.4 0 44.17 19.77 44.17 44.17 0 31.39-31.83 52.61-60.6 40.96l-131.67 163.9c2.57 3.66 4.49 7.77 5.78 12.07h100.15c5.46-18.1 22.28-31.33 42.18-31.33 24.4 0 44.17 19.77 44.17 44.17Z"></path><circle cx="228.71" cy="503.65" r="44.14"></circle></g></svg>