<svg xmlns="http://www.w3.org/2000/svg" width="613.7" viewBox="0 0 613.7 527.9" height="527.9" xml:space="preserve"><path d="M310.7 0 0 527.9h20.7L310.5 35.5l282.6 492.4h20.6z"></path><path d="M42.6 527.9h20.7l247.2-420 240.9 420H572L310.7 72.4z"></path><path d="M483.3 443.4 310.7 145 85.4 527.9h20.7l204.5-347.5 141.8 245.1H246.7l11.2-19.1 164.2.2-111.4-193.4-185.1 314.7h20.7l164.3-279.2 80.7 140H268.4l10.7-18.2H362l-51.3-89-144.9 246.4h20.7l49.7-84.5h247.1zM310.6 317l20.6 35.7h-41.6l21-35.7z"></path></svg>