<svg id="Layer_1" data-name="Layer 1" xmlns="http://www.w3.org/2000/svg" viewBox="0 0 623.37 544.72">   <path d="M311.69,0C139.55,0,0,139.55,0,311.69c0,47.02,10.47,91.57,29.12,131.55,18.12,38.86,44,73.35,75.68,101.49l206.9-233.03,206.9,233.03c31.67-28.14,57.55-62.63,75.68-101.49,18.64-39.98,29.12-84.53,29.12-131.55C623.37,139.55,483.83,0,311.69,0Zm0,124.96L126.3,333.76c-.85-7.25-1.34-14.6-1.34-22.08,0-103.13,83.6-186.72,186.72-186.72s186.72,83.6,186.72,186.72c0,7.47-.49,14.83-1.34,22.08L311.69,124.96Z"></path> </svg>