<svg xmlns="http://www.w3.org/2000/svg" width="599" viewBox="0 0 599 580.1" height="580.1"><circle cx="299.5" cy="265.4" r="66.4"></circle><path d="M203.9 394.1l-88 142.1c23.7 18.4 50.1 33.3 78.7 44l29-46.9c34.9-56.3 116.8-56.3 151.7 0l29 46.9c28.5-10.7 55-25.6 78.7-44l-88-142.1c-43.9-71-147.1-71-191.1 0zm95.6 77.6c-30.7 0-55.6-24.9-55.6-55.6 0-30.7 24.9-55.6 55.6-55.6 30.7 0 55.6 24.9 55.6 55.6 0 30.7-24.9 55.6-55.6 55.6z"></path><path d="M299.5 0C134.1 0 0 134.1 0 299.5c0 66.7 21.8 128.4 58.7 178.1l145.2-234.5c44-71 147.2-71 191.2 0l145.2 234.5c36.9-49.8 58.7-111.4 58.7-178.1C599 134.1 464.9 0 299.5 0zm0 165.5c-39 0-70.6-31.6-70.6-70.6 0-39 31.6-70.6 70.6-70.6 39 0 70.6 31.6 70.6 70.6 0 39-31.6 70.6-70.6 70.6z"></path></svg>