<svg data-name="Layer 1" xmlns="http://www.w3.org/2000/svg" viewBox="0 0 619.7 619.7"><path d="M309.85 0C138.72 0 0 138.72 0 309.85c0 128.17 77.83 238.16 188.8 285.3V440.99l62.29 9.04v164.04c19.03 3.65 38.66 5.64 58.76 5.64s39.72-1.98 58.76-5.64V441l62.29 9.04v145.12c110.97-47.14 188.8-157.13 188.8-285.3C619.7 138.72 480.97 0 309.85 0Zm209.96 426.09H99.89l-5.91-63.64h431.75l-5.91 63.64Zm17.74-78.54H82.15l-5.91-63.64h467.23l-5.91 63.64ZM64.41 269.02l-5.91-63.64h502.7l-5.91 63.64H64.41Z"></path></svg>