<svg xmlns="http://www.w3.org/2000/svg" viewBox="0 0 642 642"><path d="M27.45 208.65h266.1c5.61-9.36 15.75-15.69 27.45-15.69s21.85 6.33 27.45 15.69h266.09c5.61-9.36 15.75-15.69 27.45-15.69v-8.38H0v8.38c11.71 0 21.85 6.33 27.45 15.69ZM241.87 243.96c0-8.76 3.53-16.68 9.21-22.47H69.91c5.69 5.79 9.21 13.71 9.21 22.47 0 .55-.13 1.06-.16 1.6h163.08c-.03-.54-.16-1.06-.16-1.6ZM562.87 243.96c0-8.76 3.53-16.68 9.21-22.47H390.91c5.69 5.79 9.21 13.71 9.21 22.47 0 .55-.13 1.06-.16 1.6h163.07c-.03-.54-.16-1.06-.16-1.6ZM132.95 258.4c4.85 5.62 7.89 12.86 7.89 20.86 0 1.1-.22 2.14-.32 3.21h39.97c-.11-1.07-.32-2.11-.32-3.21 0-8.01 3.04-15.24 7.89-20.86h-55.1ZM501.48 282.48c-.11-1.07-.32-2.11-.32-3.21 0-8.01 3.04-15.24 7.89-20.86h-55.1c4.85 5.62 7.89 12.86 7.89 20.86 0 1.1-.22 2.14-.32 3.21h39.97ZM423.72 521.1 321 449.17 218.28 521.1V642h205.44V521.1zM0 0h642v24.07H0zM0 36.91h642v24.07H0zM0 73.83h642V97.9H0zM0 110.74h642v24.07H0zM0 147.66h642v24.07H0zM205.44 521.1l-102.72-71.93L0 521.1V642h205.44V521.1zM642 521.1l-102.72-71.93-102.72 71.93V642H642V521.1zM423.72 354.38v150.48l-96.3-67.43V286.97l96.3 67.41zM436.56 354.38v150.48l96.3-67.43V286.97l-96.3 67.41zM642 354.38v150.48l-96.3-67.43V286.97l96.3 67.41z"></path><g><path d="M205.44 354.38v150.48l-96.3-67.43V286.97l96.3 67.41zM0 354.38v150.48l96.3-67.43V286.97L0 354.38z"></path></g><path d="M218.28 354.38v150.48l96.3-67.43V286.97l-96.3 67.41z"></path></svg>