<svg xmlns="http://www.w3.org/2000/svg" width="623.1" viewBox="0 0 623.1 597.7" height="597.7" xml:space="preserve" style="enable-background:new 0 0 623.1 597.7"><path d="M533.1 90C475 32 397 0 313.3 0 140.5 0 0 140.5 0 313.3c0 55.1 15.2 106.9 45.1 154 11.7 18.4 25.6 35.7 41.3 51.8 41.7 42.5 92.7 78.2 154.4 78.2h31.8v-70.7h-31.8c-47 0-84.8-33.4-84.8-81.3 0-43.3 38.8-81.3 83-81.3 43.8 0 79.5 35.7 79.5 79.5v154.1h70.7v-154c0-82.8-67.4-150.2-150.2-150.2-52.3 0-99.5 27.4-127.4 68.2 8.9-81.2 78.6-144.5 163-144.5 44.2 0 85.1 16.9 115.3 47.6 29.8 30.3 45.8 70.8 45.1 114v218.9h70.7v-218c.9-62.2-22.3-120.6-65.4-164.4-43.6-44.3-102.5-68.7-165.7-68.7-62.7 0-121.6 24-165.8 67.7-11.3 11.2-21.4 23.4-30 36.3C106.7 147 201.2 70.7 313.3 70.7c134.1 0 239.1 105 239.1 239.1v287.9h70.7V309.8c0-83.7-32-161.8-90-219.8z"></path></svg>