<svg data-name="Layer 1" xmlns="http://www.w3.org/2000/svg" viewBox="0 0 618.85 383.49"><path d="m581.79 14.32-.14-.27C579.06 9.82 567.01 0 511.4 0s-67.66 9.82-70.43 14.32c-.95 1.77-16.1 29.74-26.74 80.25H392.4c-38.47 0-65.7 10.32-83.03 31.56-17.32-21.19-44.61-31.56-83.03-31.56h-21.78c-10.59-50.52-25.78-78.48-26.74-80.25l-.14-.27C175.09 9.82 163.04 0 107.43 0S39.74 9.82 37.01 14.32C35.51 17.05 0 82.39 0 197.16s35.51 180.11 37.01 182.83l1.96 3.5h136.95l1.96-3.5c.73-1.27 8.91-16.64 17.41-44.2 10.05 3.09 20.46 4.77 31.1 4.77 32.69 0 58.47-10.46 83.03-33.78 23.33 21.83 52.61 33.78 83.03 33.78 10.64 0 21.05-1.68 31.1-4.77 8.5 27.6 16.73 42.92 17.41 44.2l1.96 3.5h136.96l1.96-3.5c1.5-2.73 37.01-68.07 37.01-182.83S583.34 17.05 581.84 14.33h-.05ZM571.7 369.89H451.07c-3.18-6.59-10.14-22.37-16.91-46.29l-13.23 3.59c-9.18 2.82-18.78 4.27-28.51 4.27-29.37 0-57.75-12.14-79.85-34.24l-3.18-3.18-3.18 3.18c-24.01 24.01-47.88 34.24-79.85 34.24-9.73 0-19.28-1.46-28.51-4.27l-13.23-3.59c-6.78 23.92-13.73 39.7-16.91 46.29H47.06c-7.14-14.87-33.56-76.3-33.56-172.74 0-105.3 31.47-168.87 34.88-175.42 1.91-1.32 13.82-8.14 59.02-8.14s57.02 6.73 58.97 8.14c2.59 5.05 16.55 33.83 26.01 81.94h33.97c38.1 0 64.07 10.64 79.3 32.56l3.73 5.32 3.73-5.32c15.23-21.92 41.2-32.56 79.3-32.56h20.05c-.77 4.05-1.46 8.18-2.18 12.5h-17.87c-34.38 0-64.75 17.28-83.03 43.56-18.28-26.28-48.65-43.56-83.03-43.56H32.37c-4.18 21.42-7.32 51.24-7.32 81.53 0 93.53 29.6 159.83 29.6 159.83h105.49s29.6-66.3 29.6-159.83c0-15.6-.82-31.06-2.23-45.33h38.83c35.83 0 64.93 29.15 64.93 64.93s-29.15 64.93-64.93 64.93c-7.5 0-14.82-1.27-21.78-3.73l-.09.23-9.41-2.55c-2.14 13-4.59 24.87-7.23 35.47l12.6 3.41s.32.09.45.14h.18c8.23 2.14 16.69 3.23 25.33 3.23 34.38 0 64.75-17.28 83.03-43.56 18.28 26.28 48.65 43.56 83.03 43.56 8.59 0 17.1-1.09 25.33-3.23l.32-.09 12.87-3.5c-2.64-10.59-5.14-22.46-7.28-35.51l-9.46 2.55v-.18c-7.05 2.5-14.37 3.73-21.87 3.73-35.78 0-64.93-29.15-64.93-64.93s29.15-64.93 64.93-64.93h38.83c-1.36 14.28-2.23 29.74-2.23 45.33 0 93.53 29.6 159.83 29.6 159.83h105.49s29.6-66.3 29.6-159.83c0-30.28-3.14-60.11-7.32-81.53H424.09c9.41-56.38 25.83-89.76 28.19-94.4 1.91-1.32 13.82-8.14 59.02-8.14s57.02 6.73 58.97 8.14c4 7.78 34.92 71.16 34.92 175.47 0 96.44-26.42 157.92-33.56 172.74l.05-.05Z"></path><path d="M206.57 266.32c.73.27 1.46.36 2.18.59l1.41.36c4.55 1.23 9.18 2.05 13.96 2.05 28.83 0 52.29-23.46 52.29-52.29s-23.46-52.29-52.29-52.29H200.2c.68 10.37 1.14 21.01 1.14 32.37 0 24.55-1.73 46.74-4.41 66.52l9.69 2.64-.05.05Zm60.79-49.24c0 23.83-19.42 43.24-43.24 43.24-4.41 0-8.73-.77-12.87-2.05 2.18-18.46 3.59-38.74 3.59-61.07 0-8.09-.27-15.82-.64-23.37h9.87c23.83 0 43.24 19.42 43.24 43.24h.05ZM418.55 164.78h-23.87c-28.83 0-52.29 23.46-52.29 52.29s23.46 52.29 52.29 52.29c6.05 0 11.91-1 17.55-3v-.09l9.69-2.64c-2.68-19.78-4.41-41.92-4.41-66.43 0-11.32.41-22.05 1.09-32.37l-.05-.05Zm-67.16 52.29c0-23.83 19.42-43.24 43.24-43.24h9.87c-.36 7.55-.64 15.28-.64 23.37 0 22.33 1.41 42.61 3.64 61.07-4.14 1.32-8.46 2.05-12.87 2.05-23.87 0-43.24-19.42-43.24-43.24Z"></path></svg>