<svg data-name="Layer 1" xmlns="http://www.w3.org/2000/svg" viewBox="0 0 612.6 539.22"><path d="M608.16 490.1 334.66 16.37c-12.6-21.83-44.11-21.83-56.71 0L4.44 490.1c-12.6 21.83 3.15 49.11 28.36 49.11h547.01c25.2 0 40.96-27.29 28.36-49.11ZM306.3 50.2c18.67 0 33.8 15.13 33.8 33.8s-15.13 33.8-33.8 33.8-33.8-15.13-33.8-33.8 15.13-33.8 33.8-33.8Zm-20.06 79.91c23.88 0 43.25 19.36 43.25 43.25s-19.36 43.25-43.25 43.25-43.25-19.36-43.25-43.25 19.36-43.25 43.25-43.25Zm-42.92 164.27c0-35.42 28.72-64.14 64.14-64.14s64.14 28.72 64.14 64.14-28.72 64.14-64.14 64.14-64.14-28.71-64.14-64.14Zm189.24 216.73c-50.95 0-92.25-41.3-92.25-92.25s41.3-92.25 92.25-92.25 92.25 41.3 92.25 92.25-41.3 92.25-92.25 92.25Z"></path></svg>