<svg xmlns="http://www.w3.org/2000/svg" width="518.1" viewBox="0 0 518.1 620.4" height="620.4" xml:space="preserve"><path d="M259 0C116 0 0 115.3 0 257.6c0 63.3 23 121.3 61.1 166.1 19.6 23.1 43.3 42.7 69.9 57.8v139h66.7V372.2c17.9 9.7 38.5 15.2 60.4 15.2 70.2 0 127-56.9 127-127s-56.9-127-127-127c-69.4 0-125.8 55.8-127 124.9h-.1V394c-35.8-33.8-58.3-81.4-58.3-134.3 0-102.3 83.4-185.3 186.3-185.3s186.3 83 186.3 185.3c0 100.6-80.6 176.8-181.1 179.5v64.6C404.8 501 518 425.8 518 257.6 518.1 115.3 402.1 0 259 0zm-1 197.9c33.3 0 60.4 27 60.4 60.4 0 33.3-27 60.4-60.4 60.4-33.3 0-60.4-27-60.4-60.4s27-60.4 60.4-60.4z"></path></svg>