<svg xmlns="http://www.w3.org/2000/svg" width="512" viewBox="0 0 512 607.5" height="607.5" xml:space="preserve" style="enable-background:new 0 0 512 607.5"><path d="M218.1 128.3 163 0S68 233.7 28.6 333.7C14.7 369 0 406.1 0 444.6c0 90 73 163 163 163s163-73 163-163c0-45-18.2-85.7-47.7-115.2-13.4-13.5-29.9-23.1-44.6-35-18.4-14.9-42.7-38.3-46.6-60.8-7.2-41 34.2-60.9 68.1-60.9h202.4s54.5 1.3 54.5-44.3h-294z"></path><path d="M269.9 248.4H427s42.8-5.7 54.5-44.3H250.8l19.1 44.3zM302.8 324.1h79.7s42.2-4.6 54.5-44.3H283.7l19.1 44.3z"></path></svg>