<svg id="Layer_1" data-name="Layer 1" xmlns="http://www.w3.org/2000/svg" viewBox="0 0 585.94 625.49">   <path d="M374.34,252.51h85.35c69.62,0,126.25-56.64,126.25-126.25S529.31,0,459.69,0s-126.25,56.64-126.25,126.25v85.36H0v40.9H333.44v19.01H197.34c-97.59,0-176.99,79.4-176.99,176.99s79.4,176.99,176.99,176.99,176.99-79.4,176.99-176.99v-136.09h209.27v-40.9h-209.27v-19.01Zm-40.9,196c0,75.04-61.05,136.09-136.1,136.09s-136.09-61.05-136.09-136.09,61.05-136.09,136.09-136.09h136.1v136.09Zm40.9-322.25c0-47.07,38.29-85.36,85.35-85.36s85.35,38.29,85.35,85.36-38.29,85.36-85.35,85.36h-85.35V126.25Z"></path> </svg>