<svg xmlns="http://www.w3.org/2000/svg" width="631.1" viewBox="0 0 631.1 432.3" height="432.3" xml:space="preserve" style="enable-background:new 0 0 631.1 432.3"><path d="M415 0c-35.9 0-69.6 8.8-99.4 24.2C285.8 8.8 252 0 216.2 0 96.8 0 0 96.8 0 216.2c0 119.4 96.8 216.2 216.2 216.2 35.9 0 69.6-8.8 99.4-24.2 29.8 15.4 63.6 24.2 99.4 24.2 119.4 0 216.2-96.8 216.2-216.2C631.1 96.8 534.4 0 415 0zm-99.4 408.1c-106 0-191.9-85.9-191.9-191.9S209.6 24.3 315.6 24.3s191.9 85.9 191.9 191.9-85.9 191.9-191.9 191.9z"></path></svg>