<svg xmlns="http://www.w3.org/2000/svg" width="593.7" viewBox="0 0 593.7 593.7" height="593.7"><path d="M297.2 536.4C156 536.4 37 441.5.4 312.1 8.3 469 138 593.7 296.9 593.7c158.2 0 287.4-123.7 296.4-279.7-37.2 128.5-155.7 222.4-296.1 222.4z"></path><path d="M589.7 247.8c-40.7 122.6-156.3 211-292.6 211-136.6 0-252.4-88.8-292.9-211.9-2.8 16.2-4.2 32.9-4.2 50v.3C36.1 427.4 155.4 523 297.1 523c141 0 260-94.7 296.6-224v-2.1c0-16.8-1.4-33.2-4-49.1z"></path><path d="M297.2 444c134.3 0 248.6-86 290.8-205.9-2.5-12.6-5.9-24.9-9.9-36.9-48.4 106.8-156 181.1-280.9 181.1C172 382.3 64.3 307.7 16 200.6c-4.1 11.9-7.4 24.1-10 36.6C48 357.6 162.5 444 297.2 444z"></path><path d="M297.2 360.7c121.2 0 226.1-70 276.4-171.7-4.7-12-10.2-23.7-16.3-34.9-54.7 85.8-150.8 142.8-260.1 142.8-109.5 0-205.7-57.1-260.3-143.1-6.2 11.2-11.6 22.8-16.3 34.7 50.1 102 155.1 172.2 276.6 172.2z"></path><path d="M297.2 256.6c101 0 190.6-48.6 246.9-123.6-22.8-33.6-52.3-64.4-87.7-84.1C393.6 16.4 308.5 25.3 254.9 71l.2.2c50.2-37.1 123.4-.4 123.1 62.7 0 26.2-13.6 51.1-35.7 65.2-56.6 35.6-132.3-12.2-135.6-76.2C203.5 70 241.8 15.2 292.6 0h.1c-.6 0-1.1 0-1.7.1-62.2 1.7-123.6 24.5-173.4 60.2-26.4 20.1-49.4 44.4-67.8 72.1 56.2 75.3 146.1 124.2 247.4 124.2z"></path></svg>