<svg xmlns="http://www.w3.org/2000/svg" width="618.8" viewBox="0 0 618.8 577.6" height="577.6" style="enable-background:new 0 0 618.8 577.6" xml:space="preserve"><path d="M206.3 350.7c0-57 46.2-103.1 103.1-103.1 57 0 103.1 46.2 103.1 103.1v185.7h-41.3V330.1H247.5v206.3h-41.3V350.7zm31.2-243.6c29.8 7.8 55.3 26.4 71.9 51.4 16.6-25 42.1-43.6 71.9-51.4-3.2-36.9-34.2-65.9-71.9-65.9-37.7.1-68.7 29-71.9 65.9zM41.3 577.6H0V113.5C0 50.8 50.8 0 113.5 0c41.8 0 78.3 22.6 98 56.2C231.1 22.6 267.6 0 309.4 0c41.8 0 78.3 22.6 98 56.2C427.1 22.6 463.6 0 505.4 0 568 0 618.8 50.8 618.8 113.5v464.1h-41.3V113.5c0-39.9-32.3-72.2-72.2-72.2-37 0-67.5 27.8-71.7 63.7 58.3 10 102.6 60.8 102.6 122v350.7h-41.3V226.9c0-45.6-36.9-82.5-82.5-82.5-39.1 0-71.8 27.2-80.4 63.7 68.9 10.9 121.6 70.6 121.6 142.6v226.9H330.1V371.3h-41.3v206.3H165V350.7c0-72 52.7-131.7 121.6-142.6-8.5-36.5-41.3-63.7-80.4-63.7-45.6 0-82.5 36.9-82.5 82.5v350.7H82.5V226.9c0-61.2 44.4-111.9 102.6-122-4.2-35.9-34.7-63.7-71.7-63.7-39.9 0-72.2 32.3-72.2 72.2v464.2z" style="fill-rule:evenodd;clip-rule:evenodd"></path></svg>