<svg data-name="Layer 1" xmlns="http://www.w3.org/2000/svg" viewBox="0 0 615.53 585.43"><path d="m497.9 0-21.21 202.25-26.34-80.99-32.51 44.76 35.1 108.03 52.96 17.19-26.07-80.11 135.69 150.62-198.88 42.34 68.88-50.08-52.61-17.07-91.96 66.79v55.65l68.14-49.5-101.35 175.55-101.67-176.1 68.89 50.05v-55.33l-91.9-66.76-52.92 17.2 68.13 49.5L0 361.87l136.04-151.13-26.29 80.99 52.62-17.1 35.1-108.03-32.73-45.03-26.03 80.11L117.51.09l185.77 82.68h-85.14l32.52 44.76h113.58l32.72-45.05-84.23.02L497.9 0Zm-30.03 118.58 9.47-90.27-82.35 36.68h36.27l-58.1 80.02H241.75l-57.94-79.72H221l-82.93-36.92 9.44 89.65 11.21-34.5 58.14 80-40.61 124.98-93.74 30.47 11.5-35.39-60.74 67.48 88.18 18.72-29.36-21.32 94.06-30.56 106.31 77.25v98.56l-30.09-21.86 45.39 78.61 45.07-78.07-29.35 21.32v-98.88l106.37-77.28 93.73 30.41-30.08 21.87 88.77-18.89-60.33-66.97 11.21 34.48-94.08-30.53-40.61-124.98 57.91-79.73 11.5 35.37Z"></path></svg>