<svg data-name="Layer 1" xmlns="http://www.w3.org/2000/svg" viewBox="0 0 507.85 617.46"><path d="M507.85 142.2s-24.33-11.18-53.32-38.23c-28.98-27.05-43.77-56.58-43.77-56.58s-13.45 13.55-31.16 21.07-38.73 11.62-38.78 11.67v361.64c0 4.7-3.81 8.46-8.46 8.46s-8.46-3.81-8.46-8.46V0s-31.6 14.69-69.99 14.69S183.99.05 183.94 0v441.77c0 4.7-3.81 8.46-8.46 8.46s-8.46-3.81-8.46-8.46V80.12s-21.07-4.15-38.78-11.67-31.16-21.07-31.16-21.07-14.79 29.53-43.77 56.58C24.33 131.02 0 142.2 0 142.2s58.66 93.68 55.3 190.22C51.93 428.96 0 494.25 0 494.25s33.83 12.41 60.93 39.52c27.1 27.1 41.74 57.57 41.74 57.57s43.03-37.19 81.26-33.83c51.93 4.5 69.99 59.95 69.99 59.95s18.05-55.44 69.99-59.95c38.23-3.31 81.26 33.83 81.26 33.83s14.69-30.47 41.74-57.57c27.1-27.1 60.93-39.52 60.93-39.52s-51.93-65.29-55.3-161.83c-3.36-96.55 55.3-190.22 55.3-190.22Z"></path></svg>