<svg data-name="Layer 1" xmlns="http://www.w3.org/2000/svg" viewBox="0 0 605.46 524.34"><path d="M532.81 398.52 406.99 524.34h198.47l-72.65-125.82zM304.82 489.29v-22.68l-57.72 57.73h87.3c.1 0 .1-.12 0-.13-16.78-2.79-29.58-17.34-29.58-34.92Z"></path><path d="M427.34 396.46h104.28L302.73 0 0 524.34h176.07c.14 0 .14-.17.01-.19-16.98-2.97-29.9-17.74-29.9-35.57v-191c0-17.1 13.87-30.97 30.97-30.97h104.64l-35.08 35.08v114.14l58.12-58.12-25.65-25.65h95.22c17.1 0 30.97 13.86 30.97 30.97v55.42l21.99-21.99Z"></path><path d="M219.36 281.79c-7.26 0-13.15 5.89-13.15 13.15s5.89 13.15 13.15 13.15 13.15-5.89 13.15-13.15-5.89-13.15-13.15-13.15Z"></path><circle cx="331.91" cy="357.96" r="11.17"></circle></svg>