<svg data-name="Layer 1" xmlns="http://www.w3.org/2000/svg" viewBox="0 0 617.2 547.07"><path d="M517.73 321.89c-23.89 0-45.5-14.16-55.05-36.06L395.77 132.3C360.77 51.95 281.46 0 193.82 0H0v225.18h165.91c23.89 0 45.5 14.16 55.05 36.06l10.99 25.22h-89.46v118.12h118.12v-52.34l27.25 62.53c35.01 80.35 114.32 132.3 201.97 132.3H617.2V321.89h-99.46Z"></path><path d="M0 286.46h118.12v118.12H0zM0 497.44c0 27.41 22.22 49.63 49.63 49.63h68.49V428.95H0v68.49ZM142.49 428.94h118.12v118.12H142.49z"></path></svg>