<svg data-name="Layer 1" xmlns="http://www.w3.org/2000/svg" viewBox="0 0 614.95 423.55"><path d="M614.95 191.39c0-58.4-47.51-105.92-105.91-105.92H406.29L279.45 0H158.13L0 169.04l158.13 169.04h121.32l126.84 85.48h102.75c58.4 0 105.91-47.52 105.91-105.92 0-23.63-7.79-45.48-20.92-63.12 13.13-17.64 20.92-39.49 20.92-63.12ZM509.04 337.97H406.29l-126.84-85.48h-84.19l-38.03-40.66h122.22l126.84 85.48h102.75c11.21 0 20.33 9.12 20.33 20.33s-9.12 20.33-20.33 20.33Zm0-126.25H406.29l-126.84-85.48H157.23l38.04-40.66h84.19l126.84 85.48h102.75c11.21 0 20.33 9.12 20.33 20.33s-9.12 20.33-20.33 20.33Z"></path></svg>