<svg data-name="Layer 1" xmlns="http://www.w3.org/2000/svg" viewBox="0 0 595.04 594.79"><path d="m121.44 104.87 134.64 107.01c.2.16.49.02.49-.24V39.66c0-18.4 12.16-33.92 28.87-39.05.34-.1.24-.61-.11-.6-85.05 3.42-160.9 42.56-212.99 102.82-.23.27.11.65.4.45 14.43-10 34.24-9.89 48.69 1.59ZM37.5 314.76l167.41-38.46c.25-.06.32-.37.12-.53L70.56 168.9c-14.5-11.52-19.06-30.88-12.49-47.23.13-.33-.32-.58-.53-.29C21.36 170.64 0 231.46 0 297.26c0 19.01 1.79 37.6 5.2 55.62.07.35.59.31.6-.05.77-17.93 13.35-33.86 31.69-38.08ZM338.36 39.66v171.77c0 .25.29.39.49.24l134.27-107.14c14.51-11.58 34.47-11.67 48.94-1.53.29.2.64-.18.4-.45C470.36 42.42 394.56 3.39 309.57 0c-.35-.01-.44.5-.11.6 16.72 5.13 28.89 20.65 28.89 39.06ZM524.12 168.46 389.85 275.6c-.2.16-.13.48.12.53l167.49 38.13c18.56 4.23 31.23 20.46 31.76 38.64.01.36.53.41.6.05 3.42-18.04 5.21-36.65 5.21-55.69 0-66.14-21.59-127.23-58.09-176.63-.21-.28-.66-.03-.53.3 6.76 16.39 2.26 35.91-12.3 47.53ZM149.2 511.28l74.36-154.84c.11-.23-.09-.48-.34-.43L55.81 394.46c-3.08.71-6.16 1.05-9.19 1.05-15.09 0-28.99-8.42-36.04-21.67-.17-.32-.65-.12-.56.22 21.64 81.23 76.8 148.79 149.76 186.97.32.17.61-.28.33-.51-14.22-11.68-19.22-31.92-10.9-49.24ZM548.43 395.03c-3.01 0-6.06-.33-9.11-1.03l-167.49-38.13c-.25-.06-.45.2-.34.43L446.15 511c8.39 17.38 3.35 37.73-10.99 49.41-.28.23 0 .68.33.51 73.11-38.33 128.3-106.18 149.76-187.71.09-.35-.4-.54-.57-.21-6.99 13.46-21.02 22.03-36.25 22.03ZM409.35 569.67c-15.21 0-29.81-8.52-36.86-23.13l-74.66-154.7c-.11-.23-.44-.23-.55 0l-74.36 154.84c-7.03 14.65-21.66 23.2-36.89 23.2-3.91 0-7.86-.58-11.74-1.75 37.55 17.11 79.27 26.65 123.22 26.65s86.21-9.67 123.94-26.98c-4 1.25-8.08 1.87-12.12 1.87Z"></path></svg>