<svg xmlns="http://www.w3.org/2000/svg" width="606.1" viewBox="0 0 606.1 548.3" height="548.3" xml:space="preserve"><path d="M418.9 0C375.2 0 335 15 303.1 40.2 271.2 15 230.9 0 187.3 0 84 0 0 84 0 187.3v361h263.9v-361c0-39.4 14.8-75.5 39.1-102.8 24.3 27.4 39.1 63.4 39.1 102.8v361H606v-361C606.1 84 522.1 0 418.9 0zM231.6 187.3V516H32.3V187.3c0-85.4 69.5-154.9 154.9-154.9 34.4 0 66.2 11.3 92 30.3-29.6 33.1-47.6 76.7-47.6 124.6zM573.8 516H374.5V187.3c0-47.8-18-91.5-47.6-124.6 25.7-19 57.6-30.3 92-30.3 85.4 0 154.9 69.5 154.9 154.9V516z"></path></svg>