<svg xmlns="http://www.w3.org/2000/svg" id="a" width="642" viewBox="0 0 642 642" height="642" data-name="Layer 1"><defs></defs><path d="M469.43 148.43c0 4.49-.19 8.86-.64 13.23-21.25 3.27-41.15 10.72-58.81 21.44 4.24-10.72 6.55-22.41 6.55-34.67 0-52.71-42.76-95.47-95.53-95.47s-95.53 42.76-95.53 95.47c0 33.83 17.59 63.56 44.17 80.51v-56.11h43.33v140.15H172.82v-43.33h62.4c-37.94-26.9-62.66-71.13-62.66-121.21C172.57 66.45 239.02 0 321 0s148.43 66.45 148.43 148.43Z" class="b"></path><path d="M148.43 172.57c4.49 0 8.86.19 13.23.64 3.27 21.25 10.72 41.15 21.44 58.81-10.72-4.24-22.41-6.55-34.67-6.55-52.71 0-95.47 42.76-95.47 95.53s42.76 95.53 95.47 95.53c33.83 0 63.56-17.59 80.51-44.17h-56.11v-43.34h140.15v140.15h-43.33v-62.4c-26.9 37.94-71.13 62.66-121.21 62.66C66.45 469.43 0 402.98 0 321s66.45-148.43 148.43-148.43Z" class="b"></path><path d="M172.57 493.57c0-4.49.19-8.86.64-13.23 21.25-3.27 41.15-10.72 58.81-21.44-4.24 10.72-6.55 22.41-6.55 34.67 0 52.71 42.76 95.47 95.53 95.47s95.53-42.76 95.53-95.47c0-33.83-17.59-63.56-44.17-80.51v56.11h-43.34V329.02h140.15v43.34h-62.4c37.94 26.9 62.66 71.13 62.66 121.21C469.43 575.55 402.98 642 321 642s-148.43-66.45-148.43-148.43Z" class="b"></path><path d="M493.57 469.43c-4.49 0-8.86-.19-13.23-.64-3.27-21.25-10.72-41.15-21.44-58.81 10.72 4.24 22.41 6.55 34.67 6.55 52.71 0 95.47-42.76 95.47-95.53s-42.76-95.53-95.47-95.53c-33.83 0-63.56 17.59-80.51 44.17h56.11v43.33H329.02V172.82h43.34v62.4c26.9-37.94 71.13-62.66 121.21-62.66 81.98 0 148.43 66.45 148.43 148.43s-66.45 148.43-148.43 148.43Z" class="b"></path></svg>