<svg data-name="Layer 1" xmlns="http://www.w3.org/2000/svg" viewBox="0 0 625.83 568.58"><path d="M211.74 0h33.87v363.26h-33.87zM295.98 0h33.87v363.26h-33.87zM380.23 0h33.87v363.26h-33.87z"></path><path d="M462.75 162.34v34.75c74.18 18.86 129.21 86.2 129.21 166.17 0 94.54-76.91 171.45-171.45 171.45h-215.2c-94.54 0-171.45-76.91-171.45-171.45 0-79.97 55.03-147.31 129.21-166.17v-34.75C70.06 181.87 0 264.53 0 363.26c0 113.21 92.1 205.32 205.31 205.32h215.2c113.21 0 205.31-92.1 205.31-205.32 0-98.73-70.06-181.39-163.08-200.92Z"></path></svg>