<svg xmlns="http://www.w3.org/2000/svg" width="628.1" viewBox="0 0 628.1 572.5" height="572.5" xml:space="preserve" style="enable-background:new 0 0 628.1 572.5"><path d="M404.3 0c-17 0-30.8 13.8-30.8 30.8v170c0 4.7.1 9.5 1.1 14.2 1.1 5.1 3.7 9.2 6.2 13.7l144.6 257.6s.8 1.4 1.6.1c.5-.8 94.2-170.6 94.2-170.6s15.4-27 0-57.8l-127-224.6S477.5 0 432.6 0h-28.3zM223.8 0c17 0 30.8 13.8 30.8 30.8v170c0 4.7-.1 9.5-1.1 14.2-1.1 5.1-3.7 9.2-6.2 13.7L102.6 486.4s-.8 1.4-1.6.1c-.5-.8-94.2-170.6-94.2-170.6s-15.4-27 0-57.8L133.9 33.4S150.6 0 195.5 0h28.3zM504.3 496.3c-1.4-8.3-4.6-16-8.8-23.2l-58.2-98.3H190.8l-58.2 98.3c-4.3 7.2-7.4 15-8.8 23.2-3.3 19.6-2.2 53.7 38 71.3 9.1 4 17.7 4.9 27.6 4.9h249.4c9.8 0 18.5-.9 27.6-4.9 40.1-17.6 41.2-51.7 37.9-71.3z"></path></svg>