<svg data-name="Layer 1" xmlns="http://www.w3.org/2000/svg" viewBox="0 0 382.15 598.13"><rect x="113.99" y="493.46" width="64.33" viewBox="0 0 64.33 104.67" height="104.67" rx="32.16" ry="32.16"></rect><path d="M236 493.46c-17.69 0-32.16 14.47-32.16 32.16v40.34c0 17.69 14.47 32.16 32.16 32.16s32.16-14.47 32.16-32.16v-40.34c0-17.69-14.47-32.16-32.16-32.16Z"></path><path d="M278.45 176.71H103.69C46.43 176.71 0 223.14 0 280.41v248.56c0 23.49 19.05 42.53 42.54 42.53H60.1c18.88 0 34.33-15.46 34.33-34.34 0-19.98-16.35-36.32-36.32-36.32h-3.63V337.77c3.79-.2 7.61-.31 11.45-.31 46.75 0 89.97 15.06 125.15 40.53 35.18-25.47 78.39-40.53 125.15-40.53 3.84 0 7.66.11 11.45.31v163.07h-5.59c-18.88 0-34.33 15.45-34.33 34.33 0 19.98 16.35 36.32 36.32 36.32h15.55c23.49 0 42.53-19.04 42.53-42.53V280.4c0-57.27-46.43-103.69-103.69-103.69Zm-87.38 163.66c-34 0-61.57-27.56-61.57-61.57s27.57-61.57 61.57-61.57 61.57 27.56 61.57 61.57-27.57 61.57-61.57 61.57Z"></path><circle cx="191.07" cy="76.75" r="76.75"></circle></svg>