<svg xmlns="http://www.w3.org/2000/svg" width="611.1" viewBox="0 0 611.1 563.6" height="563.6" xml:space="preserve" style="enable-background:new 0 0 611.1 563.6"><path d="M503.9 240.7V0L402.6 156.3c6.4-13.7 10.1-28.9 10.1-45.1 0-59.1-48-107.1-107.1-107.1s-107.1 48-107.1 107.1c0 16.1 3.7 31.4 10.1 45.1L108.4 1.9 107.2 0v240.7L1.1 135.9 0 134.8v166.5c0 83.4 67.9 151.3 151.3 151.3h125.5v-.3h5.6v111.3h17.9V297.9l-75.6-116.6c19.7 22.6 48.6 37 80.8 37 32.3 0 61.1-14.4 80.8-37l-74.1 114.3-1.4 2.2v265.8h17.9V452.4h5.6v.3h125.5c83.4 0 151.3-67.9 151.3-151.3V134.8L503.9 240.7zm-17.9 43v22c0 71-57.8 128.8-128.7 128.8h-23.8L486 283.7zm107.2-106v123.6c0 73.6-59.9 133.4-133.4 133.4h-32.9c47.6-25.8 77-75 77-129.1v-39.7l89.3-88.2zM486 60.6v197.8L328.7 413.9V303.2L486 60.6zm-91.3 50.6c0 49.2-40 89.2-89.2 89.2s-89.2-40-89.2-89.2 40-89.2 89.2-89.2 89.2 40 89.2 89.2zM184.2 434.7h-32.9c-73.6 0-133.4-59.8-133.4-133.4V177.7l89.3 88.2v39.7c0 54.2 29.4 103.4 77 129.1zm-59.1-129v-22l152.6 150.8h-23.8c-71-.1-128.8-57.8-128.8-128.8zm0-47.2V60.6l157.3 242.6v110.7L125.1 258.5z"></path></svg>