<svg xmlns="http://www.w3.org/2000/svg" width="616.7" viewBox="0 0 616.7 604.2" height="604.2" xml:space="preserve" style="enable-background:new 0 0 616.7 604.2"><path d="M551.9 210.7c0 17 13.8 30.8 30.8 30.8s30.8-13.8 30.8-30.8-13.8-30.8-30.8-30.8-30.8 13.8-30.8 30.8zM577.6 301.4c-17 0-30.8 13.8-30.8 30.8s13.8 30.8 30.8 30.8 30.8-13.8 30.8-30.8c-.1-17-13.8-30.8-30.8-30.8zM354 346c0 17 13.8 30.8 30.8 30.8s30.8-13.8 30.8-30.8-13.8-30.8-30.8-30.8c-17 .1-30.8 13.8-30.8 30.8zM382 454.6c-17 0-30.8 13.8-30.8 30.8s13.8 30.8 30.8 30.8 30.8-13.8 30.8-30.8c0-17.1-13.8-30.8-30.8-30.8zM495 421.9c-17 0-30.8 13.8-30.8 30.8s13.8 30.8 30.8 30.8 30.8-13.8 30.8-30.8c0-17.1-13.8-30.8-30.8-30.8zM367.7 246.5c17 0 30.8-13.8 30.8-30.8s-13.8-30.8-30.8-30.8-30.8 13.8-30.8 30.8c0 17.1 13.8 30.8 30.8 30.8zM451.5 293.2c0 17 13.8 30.8 30.8 30.8s30.8-13.8 30.8-30.8-13.8-30.8-30.8-30.8-30.8 13.8-30.8 30.8zM395.4 126.9c0 17 13.8 30.8 30.8 30.8s30.8-13.8 30.8-30.8-13.8-30.8-30.8-30.8-30.8 13.8-30.8 30.8zM531.7 140.5c17 0 30.8-13.8 30.8-30.8s-13.8-30.8-30.8-30.8-30.8 13.8-30.8 30.8 13.8 30.8 30.8 30.8zM363.1 63c17 0 30.8-13.8 30.8-30.8S380.1 1.4 363.1 1.4s-30.8 13.8-30.8 30.8c0 17.1 13.8 30.8 30.8 30.8z"></path><path d="M612.9 285.5 493.6 216l91.8-65.3c4-2.6 5.1-8 2.4-12-2.6-4-8-5.1-12-2.4L495.2 186 479.6 42.7c-.2-3.4-3.1-6.1-6.5-5.9-3.4.2-6.1 3.1-5.9 6.5l-.6 160.2-15.3 9.4-72.6-64.9c-2.8-2.8-7.4-2.8-10.3 0-2.8 2.8-2.8 7.4 0 10.3l60.9 68.2-100.7 62-4-119.2 119-132.7c2.9-3 2.9-7.7 0-10.7-3-3-7.7-3-10.7 0l-109.7 98.4L319.4 11c0-6.1-5-11.1-11.1-11.1s-11.1 5-11.1 11.1l-3.8 113.3L183.8 26c-2.9-3-7.7-3-10.7 0-3 3-3 7.7 0 10.7L292 169.3l-4 119.2-100.7-62 60.9-68.2c2.8-2.8 2.8-7.4 0-10.3-2.8-2.8-7.4-2.8-10.3 0l-72.5 65-15.3-9.4-.6-160.2c.2-3.4-2.5-6.4-5.9-6.5-3.4-.2-6.4 2.5-6.5 5.9L121.5 186l-80.7-49.6c-4-2.6-9.4-1.5-12 2.4-2.6 4-1.5 9.4 2.4 12l91.8 65.3L3.8 285.5c-3.4 1.7-4.8 5.9-3 9.4 1.7 3.4 5.9 4.8 9.4 3l140.8-62 48.5 34.5-54.7 91.8c-2.2 3.2-1.3 7.5 1.9 9.7 3.2 2.2 7.5 1.3 9.7-1.9l64.2-84.6 66.1 47-2 61L126.5 382l-43.2-91.7c-1.4-3.6-5.5-5.3-9.1-3.8-3.6 1.4-5.3 5.5-3.8 9.1L99.2 380l-76.9-5.5c-4.8-.5-9 3-9.5 7.7s3 9 7.7 9.5l174.1 24.2-43.5 79.1c-2 3.3-1 7.6 2.2 9.6 3.3 2 7.6 1 9.6-2.2l58.4-82.8 62.1 8.6-5.8 176h61.5l-5.8-176 62.1-8.6 58.4 82.8c2 3.3 6.3 4.3 9.6 2.2 3.3-2 4.3-6.3 2.2-9.6l-43.5-79.1 174.1-24.2c4.8-.5 8.2-4.8 7.7-9.5-.5-4.8-4.8-8.2-9.5-7.7l-76.9 5.5 28.8-84.6c1.4-3.6-.3-7.6-3.8-9.1-3.6-1.4-7.6.3-9.1 3.8L490.2 382l-158.1 11.3-2-61 66.1-47 64.2 84.6c2.2 3.2 6.5 4 9.7 1.9 3.2-2.2 4-6.5 1.9-9.7l-54.7-91.8 48.5-34.5L606.6 298c3.4 1.7 7.6.4 9.4-3 1.7-3.5.4-7.7-3.1-9.5z"></path><path d="M262.7 346c0-17-13.8-30.8-30.8-30.8S201.1 329 201.1 346s13.8 30.8 30.8 30.8c17.1 0 30.8-13.8 30.8-30.8zM234.7 454.6c-17 0-30.8 13.8-30.8 30.8s13.8 30.8 30.8 30.8 30.8-13.8 30.8-30.8c0-17.1-13.8-30.8-30.8-30.8zM121.7 421.9c-17 0-30.8 13.8-30.8 30.8s13.8 30.8 30.8 30.8 30.8-13.8 30.8-30.8c0-17.1-13.8-30.8-30.8-30.8zM218.3 215.8c0 17 13.8 30.8 30.8 30.8s30.8-13.8 30.8-30.8-13.8-30.8-30.8-30.8-30.8 13.8-30.8 30.8zM165.2 293.2c0-17-13.8-30.8-30.8-30.8s-30.8 13.8-30.8 30.8 13.8 30.8 30.8 30.8 30.8-13.8 30.8-30.8zM190.5 157.7c17 0 30.8-13.8 30.8-30.8s-13.8-30.8-30.8-30.8-30.8 13.8-30.8 30.8c.1 17 13.9 30.8 30.8 30.8zM85 140.5c17 0 30.8-13.8 30.8-30.8S102 78.9 85 78.9s-30.8 13.8-30.8 30.8c.1 17 13.8 30.8 30.8 30.8zM34.1 241.5c17 0 30.8-13.8 30.8-30.8s-13.8-30.8-30.8-30.8-30.8 13.8-30.8 30.8 13.8 30.8 30.8 30.8zM39.2 363c17 0 30.8-13.8 30.8-30.8s-13.8-30.8-30.8-30.8-30.8 13.8-30.8 30.8S22.2 363 39.2 363zM253.6 63c17 0 30.8-13.8 30.8-30.8S270.6 1.4 253.6 1.4s-30.8 13.8-30.8 30.8c.1 17.1 13.8 30.8 30.8 30.8z"></path></svg>