<svg xmlns="http://www.w3.org/2000/svg" width="620.6" viewBox="0 0 620.6 624.1" height="624.1" xml:space="preserve" style="enable-background:new 0 0 620.6 624.1"><path d="M434 26.2C394.8 9.2 352.3 0 309.6 0s-85.2 9.2-124.4 26.2c-14.3 6.2-90.9 40.3-51.3 62l16.1 9.4 79.1 46.5c24.1 14.2 23.5 35 23.5 35V266c0 19 15.3 34.4 34.2 34.4h45.8c18.9 0 34.2-15.4 34.2-34.4v-86.9s-.7-20.9 23.5-35l79.1-46.5 16.1-9.4c39.3-21.7-37.3-55.8-51.5-62zM185.2 597.9c39.2 17 81.7 26.2 124.4 26.2s85.2-9.2 124.4-26.2c14.3-6.2 90.9-40.3 51.3-62l-16.1-9.4-79.1-46.5c-24.1-14.2-23.5-35-23.5-35v-87c0-19-15.3-34.4-34.2-34.4h-45.8c-18.9 0-34.2 15.4-34.2 34.4v86.9s.7 20.9-23.5 35L150 526.4l-16.1 9.4c-39.5 21.8 37.1 55.9 51.3 62.1zM620.6 313.4c0-89.8-37.8-170.4-97.6-228-2.7-2.6-12.8-9.1-12.8 3.8v94c0 12.5-.5 21.7-10.2 30.9-4.3 4.1-9.4 7.1-14.7 10-3.4 1.9-74.6 46.7-92.6 57.4-2.5 1.5-5 2.9-7.3 4.7-8.3 6.7-13.7 15.5-13.7 27.1 0 11.6 5.3 20.4 13.7 27.1 2.3 1.8 4.8 3.3 7.3 4.7 18 10.7 89.2 55.6 92.6 57.4 5.2 2.9 10.4 6 14.7 10 9.7 9.1 10.2 18.4 10.2 30.9v94c0 13 10.1 6.4 12.8 3.8 59.8-57.4 97.6-138.1 97.6-227.8zM0 313.4c0 89.8 37.8 170.4 97.6 228 2.7 2.6 12.8 9.1 12.8-3.8v-94c0-12.5.5-21.7 10.2-30.9 4.3-4.1 9.4-7.1 14.7-10 3.4-1.9 74.6-46.8 92.6-57.4 2.5-1.5 5-2.9 7.3-4.7 8.3-6.7 13.7-15.5 13.7-27.1 0-11.6-5.3-20.3-13.7-27.1-2.3-1.8-4.8-3.3-7.3-4.7-18-10.7-89.2-55.6-92.6-57.4-5.2-2.9-10.4-5.9-14.7-10-9.7-9.1-10.2-18.4-10.2-30.9v-94c0-13-10.1-6.4-12.8-3.8C37.8 143 0 223.6 0 313.4z"></path></svg>