<svg id="Layer_1" data-name="Layer 1" xmlns="http://www.w3.org/2000/svg" viewBox="0 0 622.77 549.51">   <path d="M84,256.66L204.93,105.98c9.6-11.96,28.91-5.17,28.91,10.17v120.19c0,17.3,14.02,31.32,31.32,31.32h92.45c17.3,0,31.32-14.02,31.32-31.32V116.15c0-15.34,19.31-22.13,28.91-10.17l120.94,150.68c5.58,6.96,14.02,11,22.94,11h29.74c17.3,0,31.32-14.02,31.32-31.32V31.32c0-17.3-14.02-31.32-31.32-31.32H31.32C14.02,0,0,14.02,0,31.32V236.34c0,17.3,14.02,31.32,31.32,31.32h29.74c8.92,0,17.36-4.05,22.94-11Z"></path>   <path d="M538.78,299.33l-120.94,150.68c-9.6,11.96-28.91,5.17-28.91-10.17v-120.2c0-17.3-14.02-31.32-31.32-31.32h-92.45c-17.3,0-31.32,14.02-31.32,31.32v120.2c0,15.34-19.31,22.13-28.91,10.17l-120.94-150.68c-5.58-6.96-14.02-11-22.94-11H31.32c-17.3,0-31.32,14.02-31.32,31.32v198.54c0,17.3,14.02,31.32,31.32,31.32H591.45c17.3,0,31.32-14.02,31.32-31.32v-198.54c0-17.3-14.02-31.32-31.32-31.32h-29.74c-8.92,0-17.36,4.05-22.94,11Z"></path> </svg>