<svg data-name="Layer 1" xmlns="http://www.w3.org/2000/svg" viewBox="0 0 609.94 550.64"><path d="M480.38 123.97h-46.02C431.45 55.02 374.64 0 304.97 0S178.49 55.02 175.58 123.97h-46.02C58 123.97 0 181.98 0 253.53s58 129.56 129.56 129.56c40.2 0 76.11-18.31 99.88-47.04s.02-.02.02-.02c1.53-1.85 75.52-97.07 75.52-97.07s73.99 95.22 75.52 97.07l.02.02c23.76 28.73 59.68 47.03 99.88 47.03 71.55 0 129.56-58 129.56-129.56s-58-129.56-129.56-129.56Z"></path><path d="M208 356.7h193.94v193.94H208z"></path></svg>