<svg data-name="Layer 1" xmlns="http://www.w3.org/2000/svg" viewBox="0 0 625.2 625.2"><path d="M312.6 0C139.96 0 0 139.96 0 312.6s139.96 312.6 312.6 312.6 312.6-139.96 312.6-312.6S485.25 0 312.6 0Zm-56.29 564.61c-110.44 0-203.9-71.19-237.9-170.08 30.83 65.55 97.3 111.03 174.54 111.03 106.57 0 192.95-86.39 192.95-192.95s-86.38-192.96-192.95-192.96c-77.24 0-143.71 45.47-174.54 111.03 34-98.9 127.46-170.08 237.9-170.08 139.18 0 252.01 112.83 252.01 252.01S395.49 564.62 256.31 564.62ZM127.43 312.6c0-70.12 56.85-126.97 126.97-126.97s126.97 56.85 126.97 126.97-56.85 126.97-126.97 126.97-126.97-56.85-126.97-126.97Z"></path></svg>