<svg xmlns="http://www.w3.org/2000/svg" width="597.1" viewBox="0 0 597.1 618" height="618" xml:space="preserve"><path d="M202 425.1c0 24.4 19.8 44.2 44.2 44.2s44.2-19.8 44.2-44.2V318.4l-75.9 75.9c-8.1 8.1-12.5 19.1-12.5 30.8zm44.2-33.2c18.3 0 33.2 14.9 33.2 33.2s-14.9 33.2-33.2 33.2-33.2-14.9-33.2-33.2 14.9-33.2 33.2-33.2zM214.9 140.9c-17.2 17.2-17.2 45.3 0 62.5l75.5 75.5V171.4c-.1-11.4-4.7-22.3-13-30.6-17.2-17.2-45.3-17.2-62.5.1zm54.7 54.7c-6.5 6.5-15 9.7-23.5 9.7s-17-3.2-23.5-9.7c-12.9-12.9-12.9-34 0-47 12.9-12.9 34-12.9 47 0 6.3 6.3 9.7 14.6 9.7 23.5.1 8.9-3.4 17.2-9.7 23.5z"></path><path d="M258.1 160.2c-3.3-3.3-7.6-4.9-11.9-4.9s-8.6 1.6-11.9 4.9c-6.6 6.6-6.6 17.2 0 23.8 6.6 6.6 17.2 6.6 23.8 0 3.2-3.2 4.9-7.4 4.9-11.9s-1.8-8.7-4.9-11.9zM436.9 258.1c6.6-6.6 6.6-17.2 0-23.8-3.3-3.3-7.6-4.9-11.9-4.9-4.3 0-8.6 1.6-11.9 4.9-6.6 6.6-6.6 17.2 0 23.8 6.6 6.5 17.3 6.5 23.8 0zM350.9 155.3c-9.3 0-16.8 7.5-16.8 16.8s7.5 16.8 16.8 16.8 16.8-7.5 16.8-16.8-7.5-16.8-16.8-16.8z"></path><path d="M318.3 290.4h107.4c11.4-.1 22.3-4.7 30.6-13 17.2-17.2 17.2-45.3 0-62.5-17.2-17.2-45.3-17.2-62.5 0l-75.5 75.5zm130.2-67.7c12.9 12.9 12.9 34 0 47-6.5 6.5-15 9.7-23.5 9.7s-17-3.2-23.5-9.7c-12.9-12.9-12.9-34 0-47 13-13 34.1-13 47 0zM278.8 290.4l-75.9-75.9c-8.2-8-19.1-12.4-30.8-12.4-24.4 0-44.2 19.8-44.2 44.2s19.8 44.2 44.2 44.2h106.7zm-139.9-44.2c0-18.3 14.9-33.2 33.2-33.2 18.3 0 33.2 14.9 33.2 33.2s-14.9 33.2-33.2 33.2c-18.3 0-33.2-14.9-33.2-33.2z"></path><path d="M188.9 246.2c0-9.3-7.5-16.8-16.8-16.8s-16.8 7.5-16.8 16.8 7.5 16.8 16.8 16.8 16.8-7.5 16.8-16.8zM160.2 339.1c-6.6 6.6-6.6 17.2 0 23.8 6.6 6.6 17.2 6.6 23.8 0 6.6-6.6 6.6-17.2 0-23.8-6.6-6.6-17.2-6.6-23.8 0z"></path><path d="M278.8 306.8H171.4c-11.4.1-22.3 4.7-30.6 13-17.2 17.2-17.2 45.3 0 62.5 8.3 8.3 19.4 12.9 31.2 12.9s22.9-4.6 31.2-12.9l75.6-75.5zm-106.7 77.4c-8.5 0-17-3.2-23.5-9.7-12.9-12.9-12.9-34 0-47 12.9-12.9 34-12.9 47 0 12.9 12.9 12.9 34 0 47-6.5 6.4-15 9.7-23.5 9.7z"></path><circle cx="246.2" cy="425.1" r="16.8"></circle><path d="m382.2 393.8-75.5-75.5v107.4c.1 11.4 4.7 22.3 13 30.6s19.4 12.9 31.2 12.9 22.9-4.6 31.2-12.9 12.9-19.4 12.9-31.2-4.4-22.9-12.8-31.3zm-7.7 54.7c-6.5 6.5-15 9.7-23.5 9.7s-17-3.2-23.5-9.7c-12.9-12.9-12.9-34 0-47 12.9-12.9 34-12.9 47 0 12.9 13 12.9 34.1 0 47z"></path><circle cx="425.1" cy="351" r="16.8"></circle><path d="M425.1 306.8H318.3l75.8 75.8.1.1c8.2 8 19.1 12.4 30.8 12.4 24.4 0 44.2-19.8 44.2-44.2s-19.8-44.1-44.1-44.1zm0 77.4c-18.3 0-33.2-14.9-33.2-33.2s14.9-33.2 33.2-33.2 33.2 14.9 33.2 33.2-14.9 33.2-33.2 33.2z"></path><path d="M298.6 0C133.7 0 0 133.7 0 298.6c0 112.3 62 210.1 153.7 261.1 31.7-42 81.2-69.8 137.2-72.1V618h16.4V487.6c55.7 2.6 104.7 30.3 136.2 72.1 91.6-51 153.7-148.8 153.7-261.1C597.1 133.7 463.5 0 298.6 0zm126.5 411.5c-5.3 0-10.5-.7-15.5-2 1.3 5 2 10.2 2 15.5 0 16.2-6.3 31.4-17.7 42.8-11.4 11.4-26.6 17.7-42.8 17.7s-31.4-6.3-42.8-17.7c-3.8-3.8-7-8-9.6-12.4-10.5 18-30 30.2-52.4 30.2-33.4 0-60.6-27.2-60.6-60.6 0-5.3.7-10.5 2-15.5-5 1.3-10.2 2-15.5 2-16.2 0-31.4-6.3-42.8-17.7-23.6-23.6-23.6-62 0-85.7 3.8-3.8 8-7 12.4-9.6-18-10.5-30.2-30-30.2-52.4 0-33.4 27.2-60.6 60.6-60.6 5.3 0 10.6.7 15.6 2-5.3-20.2-.1-42.6 15.7-58.4 23.6-23.6 62-23.6 85.7 0 3.8 3.8 7 8 9.6 12.4 10.5-18 30-30.2 52.4-30.2 33.4 0 60.6 27.2 60.6 60.6 0 5.3-.7 10.6-2 15.6 20.2-5.3 42.6-.1 58.4 15.7 23.6 23.6 23.6 62 0 85.7-3.8 3.8-8 7-12.4 9.6 18 10.5 30.2 30 30.2 52.4-.4 33.4-27.5 60.6-60.9 60.6z"></path><path d="m382.2 203.3.3-.3.1-.1c8-8.2 12.4-19.1 12.4-30.8 0-24.4-19.8-44.2-44.2-44.2-24.4 0-44.2 19.8-44.2 44.2v106.7l75.6-75.5zm-31.3 2c-18.3 0-33.2-14.9-33.2-33.2s14.9-33.2 33.2-33.2c18.3 0 33.2 14.9 33.2 33.2s-14.8 33.2-33.2 33.2zM351 408.2c-4.3 0-8.6 1.6-11.9 4.9-6.6 6.6-6.6 17.2 0 23.8 6.6 6.6 17.2 6.6 23.8 0 6.6-6.6 6.6-17.2 0-23.8-3.3-3.2-7.6-4.9-11.9-4.9z"></path></svg>