<svg xmlns="http://www.w3.org/2000/svg" width="460.8" viewBox="0 0 460.8 601.4" height="601.4" xml:space="preserve"><path d="m196.6 198.5 89.1-89.1-.5-.2c-24.8-10.6-52.1-13.7-78.8-8.8-27.3 5-52.2 18.1-71.9 37.7-53.3 53.3-53.3 140.1 0 193.4l31.6 31.6 61.3-61.3-30.9-30.9c-19.9-19.9-19.9-52.4.1-72.4zM109.6 307.8l-.3-.6-.3.6c-12.2 24.3-16.9 52.7-13.3 79.7 1.7 12.3 4.9 24.3 9.8 35.6l.2.5 56.9-56.9-31.7-31.7c-8.1-8.2-15.3-17.3-21.3-27.2z"></path><path d="M228.8 173.4 200.2 202c-18 18-18 47.3 0 65.3l65.3 65.3c20 20 20 52.5 0 72.5l-89.3 89.3.5.2c24.9 10.8 52.2 13.9 79 9.1 27.4-5 52.4-18 72.1-37.8 53.3-53.3 53.3-140.1 0-193.4l-99-99.1zM356.8 180.4l-.2-.5-57 57 32 32c8.2 8.2 15.4 17.4 21.3 27.2l.3.6.3-.6c12.2-24.3 16.9-52.7 13.3-79.7-1.7-12.5-5.1-24.6-10-36z"></path><path d="M442.6 140.7c-11.6-27.4-28.3-52-49.4-73.1-21.2-21.2-45.8-37.8-73.1-49.4C291.7 6.1 261.7 0 230.8 0h-.8c-30.9 0-61 6.1-89.3 18.2-27.4 11.6-52 28.3-73.1 49.4-21.2 21.2-37.8 45.8-49.4 73.1C6.1 169.1 0 199.1 0 230v141.3c0 30.9 6.1 61 18.2 89.3 11.6 27.4 28.3 52 49.4 73.1 21.2 21.2 45.8 37.8 73.1 49.4 28.4 12 58.4 18.2 89.3 18.2h.7c30.9 0 61-6.1 89.3-18.2 27.4-11.6 52-28.3 73.1-49.4 21.2-21.2 37.8-45.8 49.4-73.1 12-28.4 18.2-58.4 18.2-89.3V230c.1-30.9-6-60.9-18.1-89.3zM455 371.4c0 30.1-6 59.4-17.7 87.1-5.2 12.2-11.3 23.7-18.5 34.7L358.6 433l-.2.4c-6.8 13.3-15.7 25.5-26.5 36.3-9.9 9.9-21.2 18.3-33.5 25l-.4.2 60.6 60.6c-12.7 8.9-26.3 16.4-40.7 22.5-27.6 11.7-56.9 17.7-87.1 17.7h-.8c-30.1 0-59.4-6-87.1-17.7-13.1-5.6-25.5-12.3-37.3-20.2l156.2-156.2c18-18 18-47.3 0-65.3l-30.9-30.9L42.5 494c-7.4-11.2-13.7-23.1-19-35.5-11.7-27.6-17.7-56.9-17.7-87.1V230c0-30.1 6-59.4 17.7-87.1 5.1-12 11.2-23.4 18.2-34.2l62.2 62.4.2-.4c6.8-13.3 15.7-25.5 26.4-36.2 9.9-9.9 21.2-18.3 33.6-25l.4-.2-62.7-62.9c12.9-9 26.6-16.7 41.2-22.9 27.6-11.8 56.9-17.7 87-17.7h.7c30.1 0 59.4 6 87.1 17.7 13.9 5.9 27 13.1 39.4 21.6L232.4 169.8l63.5 63.5 123.8-123.8c6.8 10.6 12.7 21.7 17.6 33.4C449 170.5 455 199.8 455 230v141.4z"></path></svg>