<svg data-name="Layer 1" xmlns="http://www.w3.org/2000/svg" viewBox="0 0 617.33 395.28"><path d="M538 199.42h79.33c-8.31-61.7-61.15-109.29-125.14-109.29-21.36 0-41.49 5.34-59.11 14.7C422.87 45.3 371.08 0 308.66 0S194.42 45.3 184.25 104.84c-17.63-9.37-37.76-14.7-59.11-14.7C61.15 90.13 8.31 137.72 0 199.42h79.33l-16.19 90.13h123.53c-1.36 5.09-2.42 10.3-3.14 15.59h79.33l-16.19 90.13h123.95l-16.19-90.13h79.33c-.72-5.34-1.78-10.51-3.14-15.59h123.52l-16.19-90.13h.04Zm-112.68-90.13c-28.35 17.76-49.16 46.44-56.49 80.17l-14.41-80.17h70.89Zm-162.47 0-14.41 80.17c-7.33-33.73-28.14-62.42-56.49-80.17h70.89Zm-75.94 179.29-16.02-89.16h107.93c-44.54 10.81-79.79 45.17-91.91 89.16Zm151.58-89.16h107.93l-16.02 89.16c-12.12-43.99-47.38-78.39-91.91-89.16Z" style="fill-rule:evenodd"></path></svg>