<svg xmlns="http://www.w3.org/2000/svg" width="605.5" viewBox="0 0 605.5 540.9" height="540.9" xml:space="preserve"><path d="M265.7 186.9c-47 0-85.3-38.3-85.3-85.3s38.3-85.3 85.3-85.3h202.7l-16.9 24.8c-9.7 14.1-25.6 22.6-42.8 22.6H342l.6 1.1c5.5 11.5 8.3 23.9 8.3 36.7 0 47.2-38.2 85.4-85.2 85.4zm0-123.1c-20.9 0-37.9 17-37.9 37.9s17 37.9 37.9 37.9 37.9-17 37.9-37.9-17-37.9-37.9-37.9zM136.6 523.9l16.9-24.8c9.6-14.1 25.6-22.6 42.8-22.6H263l-.6-1.1c-5.5-11.5-8.3-23.9-8.3-36.7 0-47 38.3-85.3 85.3-85.3s85.3 38.3 85.3 85.3-38.3 85.3-85.3 85.3H136.6zm202.8-123.1c-20.9 0-37.9 17-37.9 37.9s17 37.9 37.9 37.9 37.9-17 37.9-37.9-17-37.9-37.9-37.9z"></path><path d="M175.3 471.8c-30.5 0-58.8-16.3-74-42.6L0 253.6l29.9 2.3c17.1 1.3 32.4 10.9 40.9 25.7l33.3 57.7.7-1.1c7.2-10.6 16.5-19.2 27.7-25.6 12.9-7.5 27.6-11.4 42.5-11.4 30.5 0 58.8 16.3 74 42.6 11.4 19.7 14.4 42.7 8.5 64.7s-20 40.4-39.7 51.8c-12.9 7.5-27.6 11.5-42.5 11.5zm-.2-123.1c-6.6 0-13.1 1.8-18.9 5.1-18.1 10.5-24.3 33.7-13.9 51.8 6.7 11.7 19.3 18.9 32.9 18.9 6.6 0 13.1-1.8 18.9-5.1 8.8-5.1 15-13.2 17.6-23 2.6-9.8 1.3-20-3.8-28.8-6.6-11.7-19.2-18.9-32.8-18.9z"></path><path d="M138.2 303.4c-14.9 0-29.6-3.9-42.5-11.4C55 268.5 41 216.3 64.5 175.6L165.9 0l13 27c7.4 15.4 6.7 33.5-1.8 48.3L143.8 133l1.3.1c12.8 1 24.9 4.7 36 11.2 40.7 23.5 54.7 75.8 31.2 116.5-15.3 26.3-43.6 42.6-74.1 42.6zm.2-123.1c-13.5 0-26.1 7.3-32.9 18.9-10.4 18.1-4.2 41.3 13.9 51.8 5.7 3.3 12.3 5.1 18.9 5.1 13.5 0 26.1-7.3 32.9-18.9 10.4-18.1 4.2-41.3-13.9-51.8-5.7-3.3-12.3-5.1-18.9-5.1zM575.5 284.6c-17.1-1.3-32.4-10.9-40.9-25.7l-33.3-57.7-.7 1.1c-7.2 10.6-16.5 19.2-27.7 25.6-12.9 7.5-27.6 11.4-42.5 11.4-30.5 0-58.8-16.3-74-42.6C345 177 342 154 347.9 132s20-40.4 39.7-51.8c12.9-7.5 27.6-11.4 42.5-11.4 30.5 0 58.8 16.3 74 42.6L605.5 287l-30-2.4zM430.2 116c-6.6 0-13.1 1.8-18.9 5.1-8.7 5.1-15 13.2-17.6 23-2.6 9.8-1.3 20 3.8 28.8 6.7 11.7 19.3 18.9 32.9 18.9 6.6 0 13.1-1.8 18.9-5.1 8.8-5.1 15-13.2 17.6-23 2.6-9.8 1.3-20-3.8-28.8-6.8-11.6-19.4-18.9-32.9-18.9z"></path><path d="M426.3 513.8c-7.4-15.4-6.7-33.5 1.8-48.3l33.3-57.7-1.3-.1c-12.8-1-24.9-4.7-36-11.2C383.5 373 369.5 320.8 393 280c15.2-26.3 43.5-42.6 74-42.6 14.9 0 29.6 3.9 42.5 11.4 19.7 11.4 33.8 29.8 39.7 51.8s2.9 45-8.5 64.7L439.3 540.9l-13-27.1zm40.6-229c-13.5 0-26.1 7.3-32.9 18.9-5.1 8.8-6.4 19-3.8 28.8 2.6 9.8 8.9 18 17.6 23 5.7 3.3 12.3 5.1 18.9 5.1 13.5 0 26.1-7.3 32.9-18.9 5.1-8.8 6.4-19 3.8-28.8-2.6-9.8-8.9-18-17.6-23-5.8-3.4-12.3-5.1-18.9-5.1z"></path></svg>