<svg xmlns="http://www.w3.org/2000/svg" width="617.8" viewBox="0 0 617.8 617.8" height="617.8" style="enable-background:new 0 0 617.8 617.8" xml:space="preserve"><path d="M299.9 446.9h-129v-129l-.3-.3L67.8 420.3l129.7 129.6 102.7-102.7zM587.2 234.7l-28.5-28.5-102.8 102.7 102.7 102.7 28.5-28.5c40.9-40.8 40.9-107.6.1-148.4zM170.9 299.9v-129h129l.3-.3L197.5 67.8 67.8 197.5l102.8 102.7zM317.9 170.9h129v129l.3.3 102.7-102.7L420.3 67.8 317.6 170.6zM59.1 206.2l-28.5 28.5c-40.8 40.8-40.8 107.6 0 148.4l28.5 28.5 102.7-102.7L59.1 206.2zM206.2 558.6l28.5 28.5c40.8 40.8 107.6 40.8 148.4 0l28.5-28.5-102.7-102.7-102.7 102.7zM411.6 59.1l-28.5-28.5c-40.8-40.8-107.6-40.8-148.4 0l-28.5 28.5 102.7 102.7L411.6 59.1zM446.9 317.9v129h-129l-.3.3 102.7 102.7 129.6-129.6-102.7-102.7zM179.218 308.89 308.83 179.277 438.44 308.889 308.83 438.501z"></path></svg>