<svg data-name="Layer 1" xmlns="http://www.w3.org/2000/svg" viewBox="0 0 538.65 397.05"><path d="M278.3.05v122.78l107.68-96.26C353.18 10.68 316.72 1.33 278.3.05ZM262.47 0c-38.65.98-75.36 10.15-108.4 25.93l108.4 96.9V0ZM174.51 317.74 16.52 176.52C6.11 204.71.35 235.09.06 266.73l115.76 103.48 58.69-52.46ZM103.16 381.53h1.57l-.78-.71-.79.71zM245.07 254.67 65.29 93.95c-17.23 20.03-31.59 42.58-42.4 67.02l163.5 146.16 58.69-52.46ZM262.47 239.11v-95.05L139.03 33.72c-23.37 13.02-44.6 29.43-63.08 48.54l180.99 161.8 5.52-4.94ZM463.67 83.27c-18.36-19.19-39.49-35.68-62.77-48.81l-122.61 109.6v95.05l5.52 4.94L463.67 83.27ZM354.38 307.13l161.99-144.81c-10.69-24.53-24.94-47.17-42.09-67.3L295.69 254.67l58.69 52.46ZM424.95 370.21l113.69-101.63c-.07-31.76-5.72-62.28-16-90.62L366.27 317.75l58.69 52.46ZM0 380.82h103.95L0 287.9v92.92zM436.82 380.82h101.83V289.8l-101.83 91.02zM232.35 346.22h29.95v50.83h-29.95zM277.06 346.22h29.95v50.83h-29.95z"></path><path d="M113.16 397.05h44.94l112.28-100.38 112.29 100.38h44.93L270.38 256.5 113.16 397.05z"></path></svg>