<svg data-name="Layer 1" xmlns="http://www.w3.org/2000/svg" viewBox="0 0 573.35 613.42"><circle cx="219.35" cy="185.31" r="43.17" transform="rotate(-67.5 219.34942853 185.31424315)"></circle><path d="M421.06 347.57c31.87-8.8 55.3-37.92 55.3-72.59V75.37C476.36 33.75 442.61 0 400.98 0H0v613.42h212.69v-334.6c0-2.64-3.04-4.28-5.13-2.67-8.35 6.43-19.41 9.5-31.2 7.1-14.43-2.93-26.12-14.5-29.25-28.89-2.08-9.55-.54-18.61 3.46-26.19 1.12-2.12-.28-4.62-2.68-4.72-15.19-.62-29.62-10.27-34.97-26.77-4.5-13.87-.28-29.58 10.51-39.39 7.25-6.6 15.9-9.8 24.49-10.11 2.37-.09 3.78-2.57 2.67-4.67-7.07-13.47-5.93-30.79 5.69-43.68 9.76-10.83 25.48-15.03 39.37-10.6 9.31 2.97 16.4 8.84 20.97 16.09 1.28 2.03 4.14 2.06 5.43.03 8.13-12.85 23.7-20.52 40.68-16.9 14.26 3.04 25.75 14.55 28.86 28.8 2.08 9.55.54 18.62-3.45 26.2-1.12 2.12.29 4.62 2.68 4.72 15.19.62 29.62 10.27 34.97 26.78 4.5 13.87.27 29.58-10.51 39.4-7.25 6.6-15.9 9.8-24.49 10.11-2.37.09-3.78 2.57-2.67 4.67 7.07 13.47 5.93 30.79-5.69 43.68-9.44 10.48-23.42 14.79-37.08 11.26-5.39-1.39-10.09-3.72-14.06-6.72-2.18-1.65-5.28-.25-5.28 2.49v148.79l106.44 185.81h240.91L421.07 347.59Z"></path></svg>