<svg xmlns="http://www.w3.org/2000/svg" width="611.6" viewBox="0 0 611.6 482.3" height="482.3" xml:space="preserve"><path d="M64.4 32.2C28.9 32.2 0 61.1 0 96.7v385.7h128.3l.6-385.7c0-35.6-28.9-64.5-64.5-64.5z"></path><path d="M193.3 0H82.8c-.3 0-.4.5-.1.6 44.6 8.6 78.4 49.1 78.4 96.1v249.1c0 35.4 28.1 64.9 63.4 65.4 36 .5 65.4-28.6 65.4-64.4v-250C290 43.3 246.7 0 193.3 0zM386.7 32.2c-35.5 0-64.4 28.9-64.4 64.4v385.7h128.3l.6-385.7c-.1-35.5-29-64.4-64.5-64.4z"></path><path d="M514.9 0H404.4c-.3 0-.4.5-.1.6 44.6 8.6 78.4 49.1 78.4 96.1v385.7h128.9V96.7c0-53.4-43.3-96.7-96.7-96.7z"></path></svg>