<svg xmlns="http://www.w3.org/2000/svg" width="555.2" viewBox="0 0 555.2 629.8" height="629.8" xml:space="preserve" style="enable-background:new 0 0 555.2 629.8"><path d="M447.7 629.8H113.8C51.1 629.8 0 578.7 0 516V215c0-62.8 51.1-113.8 113.8-113.8h280c38 0 68.9 30.9 68.9 68.9 0 38-30.9 68.9-68.9 68.9h-230c-16 0-28.5 11.9-28.5 27.2 0 15.7 12.8 28.5 28.5 28.5h230.1c38 0 68.9 30.9 68.9 68.9 0 38-30.9 68.9-68.9 68.9H163.8c-15.7 0-28.5 12.8-28.5 28.5s12.8 28.5 28.5 28.5h277.6c40.4 0 73.4-32.9 73.4-73.3V113.8c0-40.4-32.9-73.4-73.4-73.4H107.5V0h333.9c62.8 0 113.8 51.1 113.8 113.8v302.3c0 62.8-51.1 113.8-113.8 113.8H163.8c-38 0-68.9-30.9-68.9-68.9s30.9-68.9 68.9-68.9h230.1c15.7 0 28.5-12.8 28.5-28.5s-12.8-28.5-28.5-28.5H163.8c-38 0-68.9-30.9-68.9-68.9 0-37.9 30.3-67.7 68.9-67.7h230.1c15.7 0 28.5-12.8 28.5-28.5s-12.8-28.5-28.5-28.5h-280c-40.4 0-73.4 32.9-73.4 73.3v301c0 40.4 32.9 73.4 73.4 73.4h333.9v40.6z"></path></svg>