<svg data-name="Layer 1" xmlns="http://www.w3.org/2000/svg" viewBox="0 0 623.28 590.17"><path d="M386.59 380.26v209.91h42.83V395.25c0-20.11 16.3-36.41 36.41-36.41h157.45v-42.83H450.84c-35.48 0-64.24 28.76-64.24 64.24Z"></path><path d="M450.83 401.67v188.49h42.83V433.79c0-5.91 4.79-10.71 10.71-10.71h118.91v-42.83H472.25c-11.83 0-21.41 9.59-21.41 21.41Z"></path><path d="M450.83 42.83h172.44V0H440.12c-65.05 0-117.78 52.73-117.78 117.78v472.39h42.83V380.26c0-47.31 38.35-85.66 85.66-85.66h172.44v-42.83H493.65v-69.74c0-5.91 4.79-10.71 10.71-10.71h118.91v-42.83H472.24c-11.83 0-21.41 9.59-21.41 21.41v101.87h-21.42V143.48c0-20.11 16.3-36.4 36.41-36.4h157.45V64.25H450.83c-35.48 0-64.24 28.76-64.24 64.24v136.24c-7.64 3.91-14.86 8.55-21.42 13.97V128.49c0-47.31 38.35-85.66 85.66-85.66ZM172.44 316.01H0v42.83h157.45c20.11 0 36.4 16.3 36.4 36.41v194.92h42.83V380.26c0-35.48-28.76-64.24-64.24-64.24Z"></path><path d="M151.03 380.26H0v42.83h118.91c5.91 0 10.71 4.79 10.71 10.71v156.37h42.82V401.68c0-11.83-9.59-21.41-21.41-21.41Z"></path><path d="M183.15 0H0v42.83h172.44c47.31 0 85.66 38.35 85.66 85.66V278.7c-6.56-5.42-13.77-10.05-21.42-13.97V128.49c0-35.48-28.76-64.24-64.24-64.24H0v42.83h157.45c20.11 0 36.4 16.3 36.4 36.4v108.29h-21.42V149.9c0-11.83-9.59-21.41-21.41-21.41H0v42.83h118.91c5.91 0 10.71 4.79 10.71 10.71v69.74H0v42.83h172.44c47.31 0 85.66 38.35 85.66 85.66v209.91h42.83V117.78C300.93 52.73 248.2 0 183.15 0Z"></path></svg>