<svg data-name="Layer 1" xmlns="http://www.w3.org/2000/svg" viewBox="0 0 601.74 601.74"><path d="M548.92 210.89c.03 1.31.09 2.62.09 3.94 0 91.89-74.49 166.38-166.38 166.38s-166.38-74.49-166.38-166.38S290.74 48.46 382.63 48.46h.05C365.71 19.48 334.26 0 298.25 0c-54.02 0-97.81 43.79-97.81 97.81h-.17v96.7h-99.75C45 194.51 0 239.51 0 295.03s45 100.52 100.52 100.52v.17h99.75v105.51h.17c0 55.51 45 100.52 100.52 100.52s100.52-45 100.52-100.52V395.72h102.46v-.17c54.02 0 97.81-43.79 97.81-97.81 0-37.79-21.45-70.56-52.83-86.84Z"></path><path d="m378.34 61.71-1.39 83.49-.82.06-15.86-81.98-4.23.75-4.23.75 13.13 82.44c-.27.07-.53.15-.79.22L334.3 69.47l-4.03 1.47-4.03 1.47 27.25 78.92c-.25.11-.5.22-.75.34L309.8 80.08l-3.72 2.15-3.72 2.15 40.54 72.99c-.22.16-.45.32-.67.48L287.5 94.79l-3.29 2.76-3.29 2.76 52.6 64.85-.58.58-64.84-52.6-2.76 3.29-2.76 3.29 63.06 54.73c-.16.22-.32.44-.48.67l-72.99-40.54-2.15 3.72-2.15 3.72 71.59 42.94c-.12.25-.22.5-.34.75l-78.92-27.25-1.47 4.03-1.47 4.03 77.97 29.86c-.07.27-.16.53-.22.79l-82.44-13.13-.75 4.23-.75 4.23 81.98 15.86-.06.82-83.49 1.39v8.58l83.49 1.39.06.82-81.98 15.86.75 4.23.75 4.23 82.44-13.13c.07.27.15.53.22.79l-77.97 29.86 1.47 4.03 1.47 4.03 78.92-27.25c.11.25.22.5.34.75l-71.59 42.94 2.15 3.72 2.15 3.72 72.99-40.54c.16.22.32.45.48.67L262.58 310l2.76 3.29 2.76 3.29 64.84-52.6.58.58-52.6 64.85 3.29 2.76 3.29 2.76 54.73-63.06c.22.16.44.32.67.48l-40.54 72.99 3.72 2.15 3.72 2.15 42.94-71.59c.25.12.5.22.75.34l-27.25 78.92 4.03 1.47 4.03 1.47 29.85-77.97c.27.07.53.16.79.22l-13.13 82.44 4.23.75 4.23.75 15.86-81.98.82.06 1.39 83.49h8.59l1.39-83.49.82-.06L405 366.44l4.23-.75 4.23-.75-13.13-82.44c.27-.07.53-.15.79-.22l29.85 77.97 4.03-1.47 4.03-1.47-27.25-78.92c.25-.11.5-.22.75-.34l42.94 71.59 3.72-2.15 3.72-2.15-40.54-72.99c.22-.16.45-.32.67-.48l54.73 63.06 3.29-2.76 3.29-2.76-52.6-64.85.58-.58 64.85 52.6 2.76-3.29 2.76-3.29-63.06-54.73c.16-.22.32-.44.48-.67l72.99 40.54 2.15-3.72 2.15-3.72-71.59-42.94c.12-.25.22-.5.34-.75l78.92 27.25 1.47-4.03 1.47-4.03-77.97-29.86c.07-.27.16-.53.22-.79l82.44 13.13.75-4.23.75-4.23-81.98-15.86.06-.82 83.49-1.39v-8.58l-146.04-2.36-2.79-146.47h-8.59Z"></path></svg>