<svg data-name="Layer 1" xmlns="http://www.w3.org/2000/svg" viewBox="0 0 620.49 545.04"><path d="M0 321.16v223.89h231.98V321.16L115.99 189.85 0 321.16Zm182 173.9H49.98V340.07l66-74.72 66.01 74.72v154.99ZM504.51 189.85 388.52 321.16v223.89H620.5V321.16L504.51 189.85Zm66 305.21H438.5V340.07l66.01-74.72 66 74.72v154.99Z"></path><path d="m470.01 150.8-33.34-37.75-101.43 114.82v-83.93l64.36-72.86-33.35-37.75-31.01 35.11V0h-49.98v68.44l-31.02-35.11-33.34 37.75 64.36 72.86v83.93L183.83 113.05l-33.35 37.75 134.78 152.58v241.66h49.98V303.38L470.01 150.8z"></path></svg>