<svg xmlns="http://www.w3.org/2000/svg" width="549.9" viewBox="0 0 549.9 617" height="617" xml:space="preserve"><path d="m509 350.7-73-43.1 72.7-41.2c38.9-22 52.6-71.6 30.5-110.5-10.6-18.8-28-32.3-48.9-38-20.9-5.8-42.8-3.1-61.5 7.5l-72.9 41.3V81c0-44.7-36.3-81-81-81s-81 36.4-81 81v85.7L121 125.4c-18.7-10.6-40.6-13.3-61.5-7.5-20.9 5.8-38.3 19.3-48.9 38C-.1 174.7-2.8 196.5 3 217.4c5.8 20.9 19.3 38.3 38 48.9l74.7 42.3.1.1-74.2 43.5C23 363.1 9.8 380.7 4.3 401.7c-5.5 21-2.5 42.8 8.4 61.4 10.2 17.4 26.4 30.3 45.8 36.3 8 2.5 16.2 3.7 24.4 3.7 11.5 0 22.9-2.4 33.5-7.3l.4-.2V305.4c0-58.2 31.5-109.1 78.3-136.8l.2.1v-.2c23.6-13.9 51-21.8 80.3-21.8 27.9 0 55.4 7.4 79.5 21.4l.2.1c48.7 28.4 79 80.9 79 137.2v.9l-116.4-68.9-1.9-1.1c-12.5-7.2-26.6-11-40.9-11-45.6 0-82.8 37.1-82.8 82.8v226c0 45.6 37.1 82.8 82.8 82.8s82.8-37.1 82.8-82.8v-80.3l67.7 39.6c39.4 23.1 90.2 9.8 113.2-29.6 22.8-39.2 9.5-90-29.8-113.1zm-234.1 29.5c-40.1 0-72.6-32.5-72.6-72.6s32.5-72.6 72.6-72.6 72.6 32.5 72.6 72.6-32.6 72.6-72.6 72.6z"></path></svg>