<svg data-name="Layer 1" xmlns="http://www.w3.org/2000/svg" viewBox="0 0 601.52 601.52"><path d="M300.76 0C134.66 0 0 134.66 0 300.76c0 150.86 111.07 275.75 255.9 297.42v-142.7c-35.53-16.83-60.13-52.96-60.13-94.88 0-57.99 47.01-104.99 104.99-104.99s104.99 47.01 104.99 104.99c0 48.61-33.04 89.49-77.89 101.44V325c0-15.97-13.06-29.03-29.03-29.03S269.8 309.03 269.8 325v2.47h-61.24c-.79 2.2-1.52 4.43-2.16 6.7h63.39v265.77c10.18 1.04 20.5 1.58 30.95 1.58 166.11 0 300.76-134.66 300.76-300.76S466.87 0 300.76 0Zm-1.93 333.74c-4.33 0-7.83-3.51-7.83-7.83s3.51-7.83 7.83-7.83 7.83 3.51 7.83 7.83-3.51 7.83-7.83 7.83Z"></path></svg>