<svg xmlns="http://www.w3.org/2000/svg" width="600" viewBox="0 0 600 599.98" height="599.98" style="overflow:visible;enable-background:new 0 0 600 599.98" xml:space="preserve"><path d="M304.88 48.99c-20.58 11.91-41.34 23.49-61.6 35.93-23.16 14.23-34.68 34.36-34.56 62.7.64 146.73.29 293.48.29 440.23v11.89h181.12V.32c-3.44 1.79-6.16 3.07-8.75 4.57-25.51 14.68-51.02 29.37-76.5 44.1zM140.48 81.28c-26.1-15.9-52.83-30.78-79.31-46.04C41.13 23.69 21.09 12.14 0 0v409.73h180.09c.2-2.1.46-3.48.46-4.85.04-88.98.06-177.96.08-266.92 0-13.31-4.14-25.49-13.29-34.88-8.02-8.22-17.09-15.84-26.86-21.8zM599.95 385.39c-.01-3.09-.44-6.21-1.09-9.23-4.78-22.42-20.42-35.91-39.02-46.69-44.29-25.7-88.71-51.2-133.09-76.76-2.08-1.21-4.33-2.12-7.09-3.47v350.74h180.03c.13-2.27.3-3.91.3-5.55.02-69.69.02-139.37-.04-209.04z"></path></svg>