<svg xmlns="http://www.w3.org/2000/svg" width="618.1" viewBox="0 0 618.1 618" height="618" xml:space="preserve" style="enable-background:new 0 0 618.1 618"><path d="M497.6 372.6v124.9h-377v-377h377v124.9h120.5V119.8C618.1 53.6 564.4 0 498.3 0H119.8C53.6 0 0 53.6 0 119.8v378.5C0 564.4 53.6 618 119.8 618h378.5c66.2 0 119.8-53.6 119.8-119.8V372.6H497.6z"></path><path d="M375.2 131.2H242.8c-61.6 0-111.6 50-111.6 111.6v132.4c0 61.6 50 111.6 111.6 111.6h132.4c61.6 0 111.6-50 111.6-111.6V242.8c0-61.6-49.9-111.6-111.6-111.6zm-2.9 241.1H245.8V245.8h126.5v126.5z"></path></svg>