<svg id="Layer_1" data-name="Layer 1" xmlns="http://www.w3.org/2000/svg" viewBox="0 0 605.79 605.79">   <polygon points="0 605.79 298.23 605.79 298.23 493.74 0 553.5 0 605.79"></polygon>   <polygon points="307.57 605.79 605.79 605.79 605.79 553.5 307.57 493.74 307.57 605.79"></polygon>   <polygon points="605.79 543.98 605.79 432.11 326.66 488.04 605.79 543.98"></polygon>   <path d="M0,0V422.59l298.23,59.76v-73.4c-189.54-.95-195.65-98.63-195.65-155.39v-15.27h-29.07l32.93-72.07H36.11l66.46-30.15-66.46-30.16H108.72l52.45-68.75V103.67l53.46-66.51V103.67l53.46-66.51V105.91h-35.04v65.02c0,27.69,9.57,50.14,69.63,50.14s69.63-22.45,69.63-50.14V105.91h197.4l-114.69,50.1h114.69l-114.69,50.1h114.69l-108.62,47.45h38.26c0,56.36-6.09,153.05-191.76,155.33v73.46l298.23-59.76V0H0Z"></path>   <polygon points="0 432.11 0 543.98 279.14 488.04 0 432.11"></polygon> </svg>