<svg data-name="Layer 1" xmlns="http://www.w3.org/2000/svg" viewBox="0 0 573.17 608.5"><path d="M408.71 300.47c-38.97 0-70.85-31.88-70.85-70.84v-1.02c0-38.96 31.88-70.85 70.85-70.85H554.2C502.44 63.73 402.43 0 287.51 0S75.01 62.25 22.73 154.45h143.59c38.97 0 70.85 31.88 70.85 70.84v1.02c0 38.96-31.88 70.84-70.85 70.84H0v10.87h166.32c38.97 0 70.85 31.88 70.85 70.84v1.02c0 38.96-31.88 70.84-70.85 70.84H20.83c51.76 94.03 151.77 157.76 266.68 157.76s212.51-62.25 264.78-154.45H408.7c-38.97 0-70.85-31.88-70.85-70.85v-1.02c0-38.96 31.88-70.84 70.85-70.84h164.46v-10.87H408.7Z"></path></svg>