<svg data-name="Layer 1" xmlns="http://www.w3.org/2000/svg" viewBox="0 0 610.67 595.2"><path d="M610.67 287.63H374.31L583.6 166.78l-9.96-17.26-206.53 119.26L489.72 56.42l-17.27-9.96-116.74 202.21V0h-19.93v595.2h19.93V347.64l116.74 202.21 17.27-9.97-122.6-212.35 206.52 119.26 9.96-17.26-211.21-121.97h238.28v-19.93zM254.96 248.67 138.21 46.46l-17.26 9.96 122.6 212.36L37.04 149.52l-9.97 17.26 209.29 120.85H0v19.93h238.27L27.07 429.53l9.97 17.26 206.51-119.26-122.6 212.35 17.26 9.97 116.75-202.21V595.2h19.93V0h-19.93v248.67z"></path></svg>