<svg data-name="Layer 1" xmlns="http://www.w3.org/2000/svg" viewBox="0 0 615.88 615.88"><path d="M307.94 0C138.14 0 0 138.14 0 307.94s138.14 307.94 307.94 307.94 307.94-138.14 307.94-307.94S477.74 0 307.94 0ZM412.9 90.9c-6.32 7.62-13.36 14.5-21.01 20.57a352.792 352.792 0 0 0-29.68-38.41c17.71 4.09 34.7 10.08 50.69 17.84ZM287.78 255.79c-6.79 7.01-13.42 14.84-19.69 23.42-3.28 4.5-6.28 9.03-9.12 13.56 12.95-31.55 13.3-59.21-1.61-70.11-9.91-7.24-24.85-5.73-41.41 2.47 5.23-19.01 12.12-37.47 20.76-55.08a182.322 182.322 0 0 0 51.07 11.84v73.89Zm-53.53 80.53c3.28-4.5 6.28-9.03 9.12-13.56-12.95 31.55-13.3 59.21 1.61 70.11 10.19 7.44 25.68 5.64 42.8-3.18v45.3c-17.29 2.33-33.93 7.05-49.51 13.95a313.53 313.53 0 0 1-28.44-84.52c8.43-8.15 16.71-17.54 24.42-28.1Zm93.85 21.76a223.41 223.41 0 0 0 18.15-21.76c3.28-4.5 6.28-9.03 9.12-13.56-12.95 31.55-13.3 59.21 1.61 70.11 10.29 7.52 26 5.61 43.33-3.45-5.26 19.49-12.26 38.41-21.11 56.44-16.2-6.31-33.37-10.37-51.09-11.85v-75.92Zm51.99-78.87c-3.28 4.5-6.28 9.03-9.12 13.56 12.95-31.55 13.3-59.21-1.61-70.11-9.88-7.22-24.76-5.75-41.26 2.39v-44.14c17.31-2.34 33.97-7.07 49.58-13.98 13.14 26.05 22.62 53.96 28.09 82.95-8.87 8.42-17.58 18.24-25.68 29.32ZM307.95 75.56a313.398 313.398 0 0 1 49.03 56.25c-16.76 6.78-34.94 10.49-53.81 10.49-15.95 0-31.47-2.68-46.09-7.66a313.563 313.563 0 0 1 50.87-59.08Zm-54.19-2.51a354.753 354.753 0 0 0-32.84 43.18c-8.95-6.3-17.16-13.67-24.51-21.95a239.102 239.102 0 0 1 57.34-21.23Zm-85.73 431.09c-41.82-29.92-73.72-72.84-89.75-122.8-22.36 15.66-43.65 20.92-56.5 11.53C.2 377.1 10.55 326.21 44.89 279.21c9.46-12.95 19.76-24.17 30.17-33.43 13.99-52.29 45.07-97.67 86.98-129.62 11.3 13.67 24.44 25.5 38.94 35.26a353.549 353.549 0 0 0-34.06 114.21c-3.69 4.31-7.31 8.81-10.81 13.59-2.52 3.45-4.87 6.92-7.13 10.4 11.69-30.22 11.58-56.42-2.83-66.94-15.63-11.43-43.74-1.21-71.1 23.12-5.31 19.85-8.23 40.66-8.23 62.17 0 25.59 4.03 50.24 11.46 73.38 15.19-10.63 30.87-26.01 44.76-45.02 2.52-3.45 4.87-6.92 7.13-10.4-11.69 30.22-11.58 56.42 2.83 66.94 9.86 7.21 24.71 5.75 41.18-2.35 6.61 27.43 16.45 53.9 29.26 78.84a182.135 182.135 0 0 0-35.4 34.78ZM202.99 525c6.34-7.64 13.4-14.53 21.06-20.61 8.99 13.45 18.9 26.31 29.71 38.48-17.74-4.09-34.76-10.09-50.78-17.86Zm104.96 15.34a313.335 313.335 0 0 1-48.99-56.26c16.75-6.77 34.91-10.48 53.77-10.48 15.95 0 31.49 2.69 46.1 7.67a313.558 313.558 0 0 1-50.88 59.07Zm54.23 2.51c12.06-13.57 23.04-28 32.82-43.16 8.94 6.3 17.14 13.66 24.48 21.93a239.123 239.123 0 0 1-57.31 21.22Zm178.8-173.22c-13.92 52.5-45.08 98.06-87.11 130.12a182.795 182.795 0 0 0-38.92-35.24 353.326 353.326 0 0 0 34.34-116.78c3.05-3.66 6.05-7.42 8.96-11.4 4.27-5.84 8.16-11.74 11.67-17.62-14.62 33.22-15.71 62.81-.17 74.17 15.66 11.44 43.83 1.18 71.23-23.24 5.22-19.7 8.1-40.35 8.1-61.67 0-25.7-4.08-50.45-11.56-73.68-15.16 10.63-30.79 25.98-44.65 44.94-4.27 5.84-8.16 11.74-11.67 17.62 14.62-33.22 15.71-62.81.17-74.17-9.6-7.01-23.9-5.86-39.84 1.67a353.97 353.97 0 0 0-29-77.83c13.2-9.83 25.1-21.48 35.35-34.74 41.74 29.85 73.59 72.67 89.64 122.5 22.4-15.71 43.74-21.01 56.61-11.6 21.58 15.77 11.23 66.66-23.11 113.66-9.42 12.89-19.67 24.08-30.03 33.31Z"></path></svg>