<svg data-name="Layer 1" xmlns="http://www.w3.org/2000/svg" viewBox="0 0 622.1 383.1"><path d="M430.55 0h-5.93v37.44C391.49 12.93 352.31 0 311.05 0s-80.44 12.93-113.57 37.44V0h-5.93C85.93 0 0 85.93 0 191.55S85.93 383.1 191.55 383.1h5.93v-37.44c33.13 24.51 72.31 37.44 113.57 37.44s80.44-12.93 113.57-37.44v37.44h5.93c105.62 0 191.55-85.93 191.55-191.55S536.17 0 430.55 0Zm112.53 191.55c0 61.89-50.64 112.53-112.53 112.53h-7.81v-98.95c-6.71 55.74-54.14 98.95-111.69 98.95s-104.98-43.21-111.69-98.96v98.96h-7.81c-61.89 0-112.53-50.64-112.53-112.53S129.66 79.02 191.55 79.02h7.81v98.96c6.71-55.74 54.14-98.96 111.69-98.96s104.98 43.21 111.69 98.95V79.02h7.81c61.89 0 112.53 50.64 112.53 112.53Z"></path></svg>