<svg xmlns="http://www.w3.org/2000/svg" width="606.9" viewBox="0 0 606.9 606.9" height="606.9" style="enable-background:new 0 0 606.9 606.9" xml:space="preserve"><path class="st0" d="M418.1 84.7c31.5-24 76.5-18 100.5 13.5s18 76.5-13.5 100.5-76.5 18-100.5-13.5c-24-31.4-18-76.4 13.5-100.5M346.7 185.9V43.3c0-23.9-19.4-43.3-43.3-43.3s-43.3 19.4-43.3 43.3v142.6c0 23.9 19.4 43.3 43.3 43.3 24 0 43.3-19.4 43.3-43.3M346.7 563.6V421c0-23.9-19.4-43.3-43.3-43.3s-43.3 19.4-43.3 43.3v142.6c0 23.9 19.4 43.3 43.3 43.3 24 0 43.3-19.4 43.3-43.3M421 346.7h142.6c23.9 0 43.3-19.4 43.3-43.3s-19.4-43.3-43.3-43.3H421c-23.9 0-43.3 19.4-43.3 43.3.1 24 19.4 43.3 43.3 43.3M43.3 346.7h142.6c23.9 0 43.3-19.4 43.3-43.3s-19.4-43.3-43.3-43.3H43.3C19.4 260.2 0 279.6 0 303.5s19.4 43.2 43.3 43.2"></path></svg>