<svg data-name="Layer 1" xmlns="http://www.w3.org/2000/svg" viewBox="0 0 605.31 337.16"><path d="M507.13 172.17c-.04 2.4-.12 4.79-.25 7.17h50.61c-.12 2.4-.27 4.79-.47 7.17h47.66c.17-2.38.31-4.77.41-7.17.1-2.38.17-4.77.21-7.17h-98.18ZM104.64 43.04h84.82a169.73 169.73 0 0 0-7.52 7.17h240.05c-2.43-2.47-4.94-4.86-7.52-7.17-2.77-2.48-5.61-4.88-8.54-7.17-3.19-2.51-6.48-4.9-9.86-7.17H42.79c-1.57 2.37-3.11 4.76-4.6 7.17h71.68c-1.79 2.36-3.53 4.75-5.23 7.17ZM87.52 71.74h76.45c-1.65 2.35-3.24 4.74-4.77 7.17h285.53a170.4 170.4 0 0 0-10.09-14.34c-1.92-2.45-3.92-4.84-5.97-7.17H26.2c-1.18 2.37-2.31 4.77-3.42 7.17h68.47c-1.29 2.37-2.53 4.76-3.74 7.17ZM75.61 100.43h72.12c-1.05 2.36-2.04 4.75-2.98 7.17h314.42c-.94-2.42-1.93-4.81-2.98-7.17-1.07-2.42-2.2-4.81-3.38-7.17-1.21-2.43-2.48-4.82-3.81-7.17H14.07c-.84 2.38-1.65 4.77-2.41 7.17h66.5c-.88 2.38-1.74 4.76-2.54 7.17ZM68.22 129.13h69.82c-.57 2.37-1.09 4.76-1.55 7.17h330.95a168.928 168.928 0 0 0-3.43-14.34c-.69-2.41-1.44-4.81-2.23-7.17H5.86c-.53 2.38-1.02 4.77-1.48 7.17h65.29c-.53 2.38-1 4.77-1.45 7.17ZM64.86 157.82h68.87c-.15 2.38-.26 4.77-.31 7.17h337.07c-.05-2.4-.16-4.79-.31-7.17a168.944 168.944 0 0 0-1.51-14.34H1.24a241.6 241.6 0 0 0-.62 7.17h64.71c-.2 2.38-.35 4.77-.47 7.17ZM65.33 186.51h69c.25 2.41.56 4.8.91 7.17h333.44c.35-2.38.66-4.77.91-7.17.25-2.38.45-4.77.6-7.17.15-2.38.26-4.77.31-7.17H0c.03 2.4.1 4.79.21 7.17h64.65c.12 2.4.27 4.79.47 7.17ZM69.67 215.21h70.25c.69 2.41 1.44 4.81 2.23 7.17h319.62c.8-2.37 1.54-4.76 2.23-7.17.68-2.37 1.3-4.76 1.88-7.17.57-2.37 1.09-4.76 1.55-7.17H2.07c.31 2.4.66 4.79 1.04 7.17h65.11c.45 2.4.92 4.8 1.45 7.17ZM78.16 243.9h72.96c1.21 2.43 2.48 4.82 3.81 7.17H449a167.468 167.468 0 0 0 7.19-14.34c1.05-2.36 2.04-4.75 2.98-7.17H7.56c.61 2.4 1.25 4.8 1.93 7.17h66.12c.8 2.41 1.66 4.8 2.54 7.17ZM486.65 7.17c2.48 2.34 4.92 4.73 7.3 7.17h58.34c-1.85-2.42-3.73-4.81-5.66-7.17-1.98-2.42-3.98-4.82-6.05-7.17h-127.9c3.71 2.27 7.34 4.67 10.89 7.17h63.08ZM449.12 28.69c2.34 2.33 4.62 4.73 6.84 7.17h56.52c1.79 2.36 3.53 4.75 5.23 7.17h53.7a281.564 281.564 0 0 0-8.9-14.34h-113.4ZM472.93 57.39c1.61 2.35 3.16 4.75 4.66 7.17h53.51c1.29 2.37 2.53 4.76 3.74 7.17h50.85c-1.02-2.41-2.07-4.8-3.16-7.17-1.1-2.41-2.24-4.8-3.42-7.17H472.93ZM489.17 86.08c1.09 2.37 2.13 4.76 3.13 7.17h51.9c.88 2.38 1.74 4.76 2.54 7.17h49.09c-.69-2.41-1.42-4.79-2.18-7.17-.77-2.41-1.57-4.8-2.41-7.17H489.17ZM499.76 114.78c.67 2.37 1.29 4.77 1.87 7.17h51.06c.53 2.38 1 4.77 1.45 7.17h48.06a243.995 243.995 0 0 0-2.74-14.34h-99.7ZM505.6 143.47c.3 2.38.55 4.77.76 7.17h50.67c.2 2.38.35 4.77.47 7.17h47.61c-.1-2.4-.24-4.79-.41-7.17-.17-2.4-.38-4.79-.62-7.17H505.6ZM504.54 200.86c-.4 2.4-.82 4.8-1.3 7.17h50.91c-.45 2.4-.92 4.8-1.45 7.17h48.25a243.995 243.995 0 0 0 2.3-14.34h-98.7ZM497.57 229.56c-.78 2.41-1.6 4.81-2.47 7.17h51.64c-.8 2.41-1.66 4.8-2.54 7.17h49.46c.76-2.38 1.49-4.77 2.18-7.17.68-2.38 1.32-4.77 1.93-7.17H497.59ZM485.7 258.25a205.27 205.27 0 0 1-3.86 7.17h53c-1.21 2.41-2.45 4.81-3.74 7.17h51.43c1.09-2.37 2.14-4.77 3.16-7.17 1-2.38 1.97-4.77 2.9-7.17H485.7ZM467.81 286.95c-1.83 2.44-3.7 4.83-5.64 7.17h55.55c-1.7 2.42-3.44 4.82-5.23 7.17h54.63c1.47-2.37 2.91-4.76 4.3-7.17 1.37-2.37 2.71-4.76 4.01-7.17H467.81ZM441.53 315.64c-2.75 2.47-5.57 4.86-8.46 7.17h60.87c-2.38 2.44-4.81 4.83-7.3 7.17h59.98c1.93-2.36 3.82-4.75 5.66-7.17 1.81-2.37 3.59-4.75 5.31-7.17H441.52ZM29.89 286.95c1.29 2.41 2.64 4.8 4.01 7.17h70.74c1.7 2.42 3.44 4.82 5.23 7.17H198c3.19 2.51 6.48 4.9 9.86 7.17h188.22c3.37-2.27 6.66-4.67 9.86-7.17 2.93-2.3 5.77-4.69 8.54-7.17 2.58-2.31 5.09-4.71 7.52-7.17H29.89ZM47.71 315.64c1.72 2.42 3.51 4.81 5.31 7.17h75.39c2.38 2.44 4.81 4.83 7.3 7.17h117.48c15.44 4.66 31.81 7.17 48.77 7.17s33.33-2.51 48.77-7.17c6.64-2 13.1-4.4 19.36-7.17 4.9-2.17 9.68-4.56 14.32-7.17H47.71ZM439.95 265.42c1.65-2.35 3.24-4.74 4.77-7.17h-428c.93 2.41 1.9 4.8 2.9 7.17h67.9c1.21 2.41 2.45 4.81 3.74 7.17h78.03c1.92 2.45 3.92 4.84 5.97 7.17h253.4c2.05-2.34 4.05-4.73 5.97-7.17 1.84-2.34 3.61-4.74 5.32-7.17ZM128.41 14.35h105.42c-4.9 2.17-9.68 4.56-14.32 7.17h164.91c-4.64-2.61-9.42-5-14.32-7.17a167.19 167.19 0 0 0-19.36-7.17C335.3 2.52 318.93.01 301.97.01H64.73c-2.06 2.36-4.07 4.75-6.05 7.17h77.02c-2.48 2.34-4.92 4.73-7.3 7.17Z"></path></svg>