<svg xmlns="http://www.w3.org/2000/svg" width="498.5" viewBox="0 0 498.5 642" height="642" style="overflow:visible;enable-background:new 0 0 498.5 642" xml:space="preserve"><path class="st0" d="m131.6 332.4 11.5 11.5 18.1-18.1c11-39 46.8-67.7 89.4-67.7 7.4 0 14.7.9 21.5 2.6L283.5 152c-11.2-1.5-22.6-2.4-34.2-2.4C111.6 149.6 0 261.2 0 398.8c0 20 2.4 39.5 6.9 58.2l124.7-124.6z"></path><path class="st0" d="M300 295.7c-14.3-9.1-31.3-14.3-49.5-14.3-35.7 0-66.7 20.1-82.2 49.7l9.2 9.2c29.8-38 83-46.3 122.5-21.2v-23.4z"></path><path class="st0" d="M300 342.4c-40.2-25.5-93.4-16-122.2 20.7L162 347.4l-7.7 7.7 27.1 27.1c30.8-34.2 81.1-40.3 118.6-16.5v-23.3z"></path><path class="st0" d="m193.5 394.3 10.7 10.7c31.3-10.6 65.7-9.6 95.7 2.1V389c-32.4-20.6-75.5-19-106.4 5.3zM365.8 575.5v23.4c3.4 4.8 6.3 9.9 9.1 15.2 2.7-1.6 5.4-3.2 8-4.9-4.2-12-9.9-23.3-17.1-33.7z"></path><path class="st0" d="M331.3 163.4v141.7c10.4 18.3 13.8 39.3 11.3 57.4-1.5-12.2-5.5-23.7-11.3-33.9v23.3c9.6 16.8 13.8 36.5 11.3 57.4-1.5-12.3-5.4-23.8-11.3-34.1v23.3c5.9 10.4 9.8 22 11.3 34.4 1.1.9 2.1 1.9 3.2 2.8V459c-38.6-36.2-94-46.8-141.8-30.6L131.6 356 12.1 475.5c1.9 5.9 4 11.6 6.3 17.3l113.2-113.2 72.2 72.2c14.3-4.9 29.6-7.5 45.5-7.5 37.3 0 71.2 14.4 96.5 38v23.3c-25.3-23.5-59.2-38-96.5-38-9.3 0-18.3.9-27.1 2.6-6.4 1.2-12.6 2.8-18.7 5l-72-72L25.7 509.1c2.6 5.2 5.4 10.3 8.3 15.3l97.5-97.5 71.7 71.7c14.4-5 29.9-7.7 46-7.7 37.3 0 71.2 14.4 96.5 38v23.3c-25.3-23.5-59.2-38-96.5-38-9.5 0-18.7.9-27.7 2.7-6.4 1.2-12.5 3-18.6 5l-71.5-71.5L43.1 539c3.2 4.7 6.5 9.2 10 13.6l78.4-78.4 71.3 71.3c14.5-5.1 30.2-7.8 46.4-7.8 37.3 0 71.2 14.4 96.5 38V599c-25.3-23.5-59.2-38-96.5-38-9.6 0-19 1-28.2 2.8-6.3 1.2-12.5 3-18.5 5.1l-71-71-67.6 67.6c3.7 4.1 7.6 8.1 11.6 12l56-56 70.8 70.8c14.7-5.1 30.5-8 47-8 37.3 0 71.2 14.4 96.5 38v6.5c3.8-1.6 7.6-3.3 11.3-5.1V470.8l8.8-11.8.1-.1c15.7 22.8 24.9 50.4 24.9 80.3 0 3.9-.1 7.7-.5 11.5-2.1-25.3-10.8-48.6-24.4-68.4v23.2c15.8 22.8 25 50.4 25 80.3 0 3.9-.1 7.8-.5 11.6-2-25.4-10.7-48.8-24.4-68.6v23.4c10.9 15.8 18.6 34 22.3 53.6C455 561 498.8 485 498.8 398.8c-.3-108.9-70.1-201.4-167.5-235.4z"></path><path class="st0" d="M249.3 630.9c19.4 0 37.9 3.9 54.8 11.1 9.4-2.1 18.6-4.7 27.6-7.9-23.2-16.6-51.6-26.5-82.3-26.5-9.8 0-19.4 1-28.7 3-6.3 1.2-12.5 3-18.5 5.1l-16.3-16.3-54.2-54.2-43.6 43.6c4.3 3.6 8.6 7.2 13.2 10.5l30.5-30.5 70.3 70.3c14.6-5.3 30.5-8.2 47.2-8.2z"></path><path class="st0" d="m176.4 637.3-44.9-44.9-16.5 16.5c19 12 39.5 21.7 61.4 28.4zM324.9 9.6v410c-3.2-2.1-6.4-3.9-9.6-5.6V0l9.6 9.6z"></path></svg>