<svg xmlns="http://www.w3.org/2000/svg" width="608.3" viewBox="0 0 608.3 402.5" height="402.5" xml:space="preserve"><path d="M455.4 402.5H325c-8.3 0-16.2-3.2-22.1-9L194 287.8c-6.7-6.5-15.7-10.1-25-10.1H91.7C41.9 277.7.5 237.9 0 188.1c-.5-50.3 40.3-91.4 90.5-91.4h157.6c8.6 0 16.8 3.3 23 9.3l104.2 101.2c9.4 9.1 22 14.2 35.1 14.2l107.4-.3c3.3 0 6-2.9 5.6-6.3-.4-2.8-2.9-4.9-5.7-4.9H416c-13.6 0-26.7-5.3-36.4-14.8L279 96.7c-7.1-6.9-16.6-10.8-26.6-10.8h-95V0h131.3c9.5 0 18.6 3.7 25.4 10.3L419 113c7.8 7.6 18.3 11.9 29.2 11.9h68.4c49.8 0 91.2 39.8 91.7 89.6.5 50.3-40.3 91.4-90.4 91.4l-152.1.5c-7.7 0-15.1-3-20.7-8.4L236.5 192.6c-7.2-7-16.9-11-27-11H90.7c-2.8 0-5.4 2-5.7 4.9a5.6 5.6 0 0 0 5.6 6.3H205c9.6 0 18.9 3.8 25.8 10.5l108.6 105.5c5.8 5.6 13.6 8.8 21.7 8.8h94.2v84.9z"></path></svg>