<svg data-name="Layer 1" xmlns="http://www.w3.org/2000/svg" viewBox="0 0 608.67 611.12"><path d="M280.93 182.87v96.08h31.1v-96.08h272.16C536.92 75.22 429.44 0 304.34 0S71.75 75.22 24.48 182.87h256.45ZM377.08 375.03h224.79c2.36-10.16 4.21-20.51 5.54-31.03H377.08v31.03Z"></path><path d="M377.08 247.92v31.03h231.6c-.91-10.5-2.34-20.86-4.28-31.03H377.08ZM215.88 247.92H4.28C2.34 258.09.91 268.44 0 278.95h215.88v-31.03ZM215.88 375.03V344H1.27c1.32 10.52 3.17 20.87 5.54 31.03h209.07Z"></path><path d="M312.03 440.08V344h-31.1v96.08H29.95c49.76 101.3 153.91 171.04 274.38 171.04s224.63-69.75 274.38-171.04H312.03Z"></path></svg>