<svg id="Layer_1" data-name="Layer 1" xmlns="http://www.w3.org/2000/svg" viewBox="0 0 462.5 618.88">
  <path d="M411.2,83.91c-15.77-19.51-34.74-36.4-55.89-49.87-21.48-13.67-45.2-23.8-69.96-29.75-7.56-1.82-15.21-3.24-22.92-4.27V424.77c-20.58,3.24-41.78,3.24-62.36,0V0c-6.83,.92-13.57,2.14-20.2,3.64h-.06C129.53,15.08,83.89,43.58,51.3,83.91,18.22,124.84,0,176.43,0,229.15s18.22,104.31,51.3,145.25c29.78,36.84,70.45,63.81,115.6,76.91v167.57h128.7v-167.57c45.15-13.1,85.83-40.06,115.6-76.91,33.08-40.93,51.3-92.52,51.3-145.25s-18.22-104.31-51.3-145.25ZM77.1,353.55c-28.74-35.56-43.93-78.58-43.93-124.4s15.19-88.84,43.93-124.4c23.47-29.05,54.83-50.93,89.8-62.98V416.53c-34.97-12.05-66.33-33.93-89.8-62.98Zm185.33,232.16h-62.36v-127.39c20.63,2.78,41.73,2.78,62.36,0v127.39Zm122.97-232.16c-23.47,29.05-54.83,50.93-89.8,62.98V41.78c34.97,12.05,66.33,33.93,89.8,62.98,28.74,35.56,43.93,78.57,43.93,124.4s-15.19,88.84-43.93,124.4Z"></path>
</svg>