<svg xmlns="http://www.w3.org/2000/svg" width="621.2" viewBox="0 0 621.2 479.5" height="479.5" xml:space="preserve" style="enable-background:new 0 0 621.2 479.5"><path d="M217 187.5h-90.6v-59.7C126.4 54 180.7 0 260.3 0v87.6c-24.7 0-43.3 7.7-43.3 40.2v59.7zM356.5 187.5h-90.6v-59.7C265.8 54 320.2 0 399.7 0v87.6c-24.7 0-43.3 7.7-43.3 40.2v59.7zM495.9 187.5h-90.6v-59.7C405.3 54 459.6 0 539.2 0v87.6c-24.7 0-43.3 7.7-43.3 40.2v59.7zM404.2 296.5h90.6v61.2c0 73.8-54.3 121.8-133.9 121.8v-83.1c24.7 0 43.3-6.2 43.3-38.7v-61.2zM264.8 296.5h90.6v61.2c0 73.8-54.3 121.8-133.9 121.8v-83.1c24.7 0 43.3-6.2 43.3-38.7v-61.2zM125.3 296.5H216v61.2c0 73.8-54.3 121.8-133.9 121.8v-83.1c24.7 0 43.3-6.2 43.3-38.7v-61.2z"></path><ellipse cx="49.8" cy="241.9" rx="49.8" ry="46.3"></ellipse><path d="M221.5 241.9c0 25.6-22.3 46.3-49.8 46.3-27.5 0-49.8-20.7-49.8-46.3 0-25.6 22.3-46.3 49.8-46.3 27.5 0 49.8 20.7 49.8 46.3zM359.9 241.9c0 25.6-22.3 46.3-49.8 46.3-27.5 0-49.8-20.7-49.8-46.3 0-25.6 22.3-46.3 49.8-46.3 27.5 0 49.8 20.7 49.8 46.3z"></path><ellipse cx="449.6" cy="241.9" rx="49.8" ry="46.3"></ellipse><path d="M621.2 241.9c0 25.6-22.3 46.3-49.8 46.3s-49.8-20.7-49.8-46.3c0-25.6 22.3-46.3 49.8-46.3s49.8 20.7 49.8 46.3z"></path></svg>