<svg xmlns="http://www.w3.org/2000/svg" id="a" width="642" viewBox="0 0 642 457.43" height="457.43" data-name="Layer 1"><defs></defs><path d="M362.73 0v174.11H192.92c-50.65 0-91.1 43.85-85.39 95.66 4.37 39.29 36.14 71.13 75.37 75.5 28.76 3.27 55.08-7.64 72.8-26.71h-62.79v-35.31h118c8.22 0 12.65 9.57 7.38 15.79l-32.55 38.84c-25.23 30.05-64.84 47.64-108.11 42.31-55.02-6.74-99.19-51.49-105.16-106.57-8.02-73 49.05-134.82 120.44-134.82h134.5v-36.4h-134.5c-90.39 0-163 76.08-157.29 167.75 4.81 76.72 66 139.83 142.52 146.83 54.38 4.94 103.68-17.78 135.53-55.66l32.04-38.26c5.78-6.93 17.01-2.82 17.01 6.16v128.21h-35.31V398.3c-36.4 35.44-86.73 56.56-142.01 54.51C87.44 449.08 6.49 370.24.39 272.4c-7-112.16 81.85-205.31 192.53-205.31h134.5V0h35.31Z" class="b"></path><circle cx="373.3" cy="272.4" r="35.31"></circle><path d="M642 138.86v35.31H471.87V0h35.31v138.86H642zM642 283.25v35.31H507.18v138.87h-35.31V283.25H642z" class="b"></path></svg>