<svg xmlns="http://www.w3.org/2000/svg" width="642" viewBox="0 0 642 619.53" height="619.53" data-name="Layer 1"><path d="M204.87 0c-44.06 44.58-34.15 129.41 18.21 162.76 76.41 53.81 225.71 94.51 167.49 221.58-.28.6-.43 1.28-.43 1.94l-.1 37.01c-.01 4.3 5.18 6.45 8.22 3.42l76.01-76.01 151.67 151.67h-26.32v117.16h42.37V0H204.87Z"></path><path d="M348.94 619.5c-15.05-5.42-28.44-14.32-39.2-25.71C235.55 514.96 107.1 480.26 0 514.88V133.55c45.36 72.91 106.28 83.6 192.32 119.26 80.22 34.86 155.3 41.04 159.18 132.39v88.28l-28.89 28.89h26.32l.01 117.14ZM390.02 502.37h57.78v117.16h-57.78zM558.54 560.14h-57.78v-57.78h57.78z"></path></svg>