<svg xmlns="http://www.w3.org/2000/svg" width="623.3" viewBox="0 0 623.3 623.3" height="623.3" xml:space="preserve" style="enable-background:new 0 0 623.3 623.3"><path d="M0 0v623.3h623.3V0H0zm553.9 140.6H304.4c-95.7 0-166.2 75.4-166.2 171 0 95.7 70.5 175.9 166.2 175.9H472V347.7H332.1v-79.5h221.8v301.2H304.4c-151.3 0-260.2-115.7-260.2-257.8 0-142.2 112.6-257.8 260.2-257.8h249.5v86.8zM301.3 309.3c0 30-23.9 54.2-53.5 54.2-29.5 0-53.5-24.3-53.5-54.2 0-30 23.9-54.2 53.5-54.2 29.6-.1 53.5 24.2 53.5 54.2z"></path></svg>