<svg xmlns="http://www.w3.org/2000/svg" width="610.9" viewBox="0 0 610.9 613.9" height="613.9" xml:space="preserve" style="enable-background:new 0 0 610.9 613.9"><path d="M0 430c15.9 178.5 159.9 181.4 159.9 181.4V147.1c0-27.5-1.5-52-19-74.4-14-17.8-35.7-30-56.6-38C58 24.6 28.2 20.5 0 21.5V430zM610.9 430C595 608.6 451.1 611.4 451.1 611.4V147.1c0-27.5 1.5-52 19-74.4 14-17.8 35.7-30 56.6-38 26.2-10 56.1-14.1 84.2-13.1V430zM386.3 496.8l-2.5-377c0-98.5 59.9-116.1 59.9-116.1-88.7-5-187.7-5-276.4 0 0 0 59.9 17.6 59.9 116.1l-2.5 377s1.1 81.7-61 114.5c91.2 3.3 192.5 3.3 283.7 0-62.2-32.7-61.1-114.5-61.1-114.5z"></path></svg>