<svg data-name="Layer 1" xmlns="http://www.w3.org/2000/svg" viewBox="0 0 609.19 609.19"><path d="M236.88 80.67v21.12l67.72 67.71 67.71-67.71V80.67l-67.71 67.71-67.72-67.71z"></path><path d="M236.88 122.91v21.12l67.72 67.71 67.71-67.71v-21.12l-67.71 67.71-67.72-67.71z"></path><path d="M236.88 165.15v21.12l67.72 67.72 67.71-67.72v-21.12l-67.71 67.72-67.72-67.72z"></path><path d="M236.88 207.39v21.13l67.72 67.71 67.71-67.71v-21.13l-67.71 67.72-67.72-67.72z"></path><path d="M236.88 249.64v21.12l67.72 67.71 67.71-67.71v-21.12l-67.71 67.71-67.72-67.71zM445.16 239.93l-14.94 14.93v95.76h95.76l14.94-14.93h-95.76v-95.76z"></path><path d="m415.29 269.8-14.94 14.93v95.76h95.76l14.94-14.93h-95.76V269.8zM178.97 254.86l-14.94-14.93v95.76H68.27l14.94 14.93h95.76v-95.76z"></path><path d="M193.9 365.56H98.14l14.94 14.93h95.76v-95.76L193.9 269.8v95.76z"></path><path d="M304.6 0C136.37 0 0 136.37 0 304.6s136.37 304.6 304.6 304.6 304.6-136.37 304.6-304.6S472.82 0 304.6 0Zm230.17 179.39c11.28 20.69 19.78 43.09 25.17 66.68h-25.17v-66.68ZM361.78 48.95l-57.19 57.19-57.19-57.19c5.85-1.3 11.75-2.47 17.75-3.37l39.44 39.44 39.44-39.44c5.99.9 11.89 2.07 17.75 3.37ZM325 43.48l-20.41 20.41-20.41-20.41c6.74-.52 13.53-.87 20.41-.87s13.67.35 20.41.87ZM74.43 246.08H49.26c5.39-23.59 13.89-46 25.16-66.68v66.68Zm164.37 68.96 58.33 58.33v84.85l-58.33-58.33v-84.85Zm73.27 179.24 62.71 62.71c-20.04 5.56-41.04 8.79-62.71 9.4v-72.11Zm-14.93 72.11c-21.67-.61-42.67-3.83-62.71-9.4l62.71-62.71v72.11Zm93.74-14.42-75.71-75.72 65.8-65.8h85.2l14.93-14.93h-95.76v-95.76l-13.02 13.02v-20.77l-67.71 67.71-67.71-67.71v20.77l-13.02-13.02v95.76h-95.76l14.93 14.93h85.2l65.8 65.8-75.71 75.72C117.73 516.88 45.13 422.19 42.78 310.18l10.58 10.58h95.76V225l-14.93-14.93v95.76H42.65c0-.41-.03-.81-.03-1.22 0-4.6.12-9.17.36-13.71h76.25v-95.76l-14.94-14.93v95.76H44.2c.55-5.03 1.26-10 2.09-14.93h43.07v-95.76l-4.01-4.01c34.85-53.19 88.49-92.92 151.53-109.75v8.05l67.71 67.71 67.71-67.71v-8.05c63.03 16.82 116.68 56.56 151.53 109.75l-4.01 4.01v95.76h43.07c.83 4.94 1.54 9.91 2.09 14.93h-60.09v-95.76l-14.94 14.93v95.76h76.25c.23 4.54.36 9.11.36 13.71 0 .41-.03.81-.03 1.22h-91.52v-95.76L460.07 225v95.76h95.76l10.58-10.58c-2.35 112.02-74.95 206.7-175.56 241.79Zm-78.81-93.74v-84.85l58.33-58.33v84.85l-58.33 58.33Z"></path></svg>