<svg data-name="Layer 1" xmlns="http://www.w3.org/2000/svg" viewBox="0 0 502.15 603.12"><path d="M502.15 424.4c0-73.33-59.21-133.1-132.33-133.99L251.07 0 132.33 290.41C59.21 291.3 0 351.06 0 424.4v178.72h41.05L154.23 326.3c45.56 9.38 79.92 49.8 79.92 98.1H268c0-48.29 34.36-88.71 79.92-98.1L461.1 603.12h41.05V424.4ZM33.85 531.28V424.4c0-49.77 36.49-91.18 84.13-98.87L33.85 531.28Zm217.22-172.02c-17.7-31.69-47.9-55.49-83.87-64.7l83.87-205.12 83.87 205.12c-35.97 9.21-66.17 33.01-83.87 64.69Zm133.1-33.73c47.63 7.69 84.12 49.1 84.12 98.87v106.88l-84.12-205.75Z"></path></svg>