<svg data-name="Layer 1" xmlns="http://www.w3.org/2000/svg" viewBox="0 0 614.95 615.98"><path d="M348.02 2.82C334.54 1.02 320.81 0 306.83 0 145.93 0 13.91 123.36 0 280.65h529.43L348.02 2.82ZM500.03 335.58 316.95 615.97c10.5-.34 20.87-1.2 31.08-2.57l181.4-277.83h-29.4Z"></path><path d="M614.95 308.12c0-127.16-77.05-236.31-187-283.37l185.02 283.37-185.02 283.37c109.95-47.06 187-156.2 187-283.37Z"></path><path d="M405.01 335.58 228.37 606.11c8.45 2.22 17.06 4.03 25.78 5.54l180.26-276.07h-29.4ZM0 335.58c9.84 111.31 78.82 205.6 175.37 251.22L339.4 335.58H0Z"></path></svg>