<svg data-name="Layer 1" xmlns="http://www.w3.org/2000/svg" viewBox="0 0 588.99 588.99"><path d="M0 0h49v49H0zM77.14 0h49v49h-49zM462.85 0h49v49h-49zM539.99 0h49v49h-49zM462.85 77.14h49v49h-49zM539.99 77.14h49v49h-49zM462.85 154.28h49v49h-49zM539.99 154.28h49v49h-49zM462.85 231.42h49v49h-49zM539.99 231.42h49v49h-49zM462.85 308.57h49v49h-49zM539.99 308.57h49v49h-49zM462.85 385.71h49v49h-49zM539.99 385.71h49v49h-49zM462.85 462.85h49v49h-49zM539.99 462.85h49v49h-49zM462.85 539.99h49v49h-49zM539.99 539.99h49v49h-49zM0 77.14h49v49H0zM77.14 77.14h49v49h-49zM0 154.28h49v49H0zM77.14 154.28h49v49h-49zM154.28 154.28h49v49h-49zM0 231.42h49v49H0zM77.14 231.42h49v49h-49zM163.63 240.77h30.31v30.31h-30.31zM240.77 317.91h30.31v30.31h-30.31zM317.91 395.05h30.31v30.31h-30.31zM395.05 472.2h30.31v30.3h-30.31zM395.05 317.91h30.31v30.31h-30.31zM317.91 240.77h30.31v30.31h-30.31zM163.63 86.49h30.31v30.31h-30.31zM170.9 16.62h15.77v15.76H170.9zM248.04 16.62h15.76v15.76h-15.76zM325.18 16.62h15.77v15.76h-15.77zM402.32 16.62h15.76v15.76h-15.76zM248.04 93.76h15.76v15.76h-15.76zM325.18 93.76h15.77v15.76h-15.77zM402.32 93.76h15.76v15.76h-15.76zM402.32 170.9h15.76v15.76h-15.76zM248.04 402.33h15.76v15.76h-15.76zM248.04 479.46h15.76v15.77h-15.76zM248.04 556.61h15.76v15.76h-15.76zM325.18 479.46h15.77v15.77h-15.77zM325.18 556.61h15.77v15.76h-15.77zM402.32 556.61h15.76v15.76h-15.76zM170.9 402.33h15.77v15.76H170.9zM170.9 325.18h15.77v15.76H170.9zM170.9 479.46h15.77v15.77H170.9zM170.9 556.61h15.77v15.76H170.9zM325.18 170.9h15.77v15.76h-15.77zM402.32 248.04h15.76v15.76h-15.76zM240.77 163.63h30.31v30.3h-30.31zM231.42 231.42h49v49h-49zM308.57 308.57h49v49h-49zM385.71 385.71h49v49h-49zM0 308.57h49v49H0zM77.14 308.57h49v49h-49zM0 385.71h49v49H0zM77.14 385.71h49v49h-49zM0 462.85h49v49H0zM77.14 462.85h49v49h-49zM0 539.99h49v49H0zM77.14 539.99h49v49h-49z"></path></svg>