<svg data-name="Layer 1" xmlns="http://www.w3.org/2000/svg" viewBox="0 0 621.82 599.07"><path d="M349.79 0 224.22 86.82v136.4l-98.47-68.32L0 241.86v168.47l272.04 188.74 125.56-86.82v-136.4l98.47 68.32 125.76-86.95V188.74L349.79 0Zm245.47 324.86-232.2-161.1V41.54l232.2 161.1v122.22ZM336.49 41.49v122.27l-85.7 59.46V100.75l85.7-59.26Zm24.52 308.97-88.96 61.72L36.61 248.84l89.12-61.62 235.28 163.24ZM26.57 274.21l232.2 161.1v122.23l-232.2-161.1V274.21Zm258.77 283.37V435.3l85.7-59.46v122.47l-85.7 59.26Zm-24.52-308.97 88.96-61.72 235.43 163.34-89.12 61.62-235.28-163.24Z"></path></svg>