<svg xmlns="http://www.w3.org/2000/svg" width="589.7" viewBox="0 0 589.7 371.4" height="371.4"><path d="M589.7 241.7h-78.8v-48.6c44.2-9.3 77.5-48.6 77.5-95.5 0-53.8-43.8-97.6-97.6-97.6s-97.6 43.8-97.6 97.6c0 46.9 33.3 86.2 77.5 95.5v48.6H314.9v-48.6c44.2-9.3 77.5-48.6 77.5-95.5 0-53.8-43.8-97.6-97.6-97.6s-97.6 43.8-97.6 97.6c0 46.9 33.3 86.2 77.5 95.5v48.6H118.9v-48.6c44.2-9.3 77.5-48.6 77.5-95.5C196.4 43.8 152.7 0 98.9 0S1.3 43.8 1.3 97.6c0 46.9 33.3 86.2 77.5 95.5v48.6H0v40.1h78.8v89.6h40.1v-89.6h155.9v89.6h40.1v-89.6h155.9v89.6h40.1v-89.6h78.8v-40.1zM433.4 97.6c0-31.7 25.8-57.5 57.5-57.5s57.5 25.8 57.5 57.5-25.8 57.5-57.5 57.5-57.5-25.8-57.5-57.5zm-196 0c0-31.7 25.8-57.5 57.5-57.5s57.5 25.8 57.5 57.5-25.8 57.5-57.5 57.5-57.5-25.8-57.5-57.5zm-196 0c0-31.7 25.8-57.5 57.5-57.5s57.5 25.8 57.5 57.5-25.8 57.5-57.5 57.5-57.5-25.8-57.5-57.5z"></path></svg>