<svg xmlns="http://www.w3.org/2000/svg" width="642" viewBox="0 0 642 343.5" height="343.5" style="overflow:visible;enable-background:new 0 0 642 343.5" xml:space="preserve"><path d="M195.6 211.4c7.3 8.4 17.9 13.3 29.1 13.3H360L235.2 108.3 359.8 0H197.6L91.8 91.9l103.8 119.5z"></path><path d="M418 97.9c16.7 0 32.7 7.3 43.6 19.9l104.3 120.1 76.1-66.1L515.7 26.5C501.1 9.7 479.9 0 457.6 0h-66L278.9 97.9H418z"></path><path d="M446.4 132c-7.3-8.4-17.9-13.3-29.1-13.3h-140l124.3 116.4-119.8 108.4h162.6l105.7-91.9L446.4 132z"></path><path d="M224 245.6c-16.7 0-32.7-7.3-43.6-19.9L76.1 105.6 0 171.7 126.3 317c14.6 16.8 35.8 26.5 58.1 26.5h66.2l108.6-97.9H224z"></path></svg>