<svg data-name="Layer 1" xmlns="http://www.w3.org/2000/svg" viewBox="0 0 597.25 620.77"><path d="M85.94 210.63c-6.35-10.28-9.72-22.13-9.72-34.21V0H6.8v189.98c0 16.11 4.49 31.91 12.95 45.61l43.62 66.25c6.35 10.28 9.72 22.13 9.72 34.21v215.29H0v69.42h142.51V322.5c0-16.11-4.49-31.91-12.95-45.61l-43.62-66.25ZM524.16 551.35V336.06c0-12.08 3.36-23.93 9.72-34.21l43.62-66.25c8.47-13.71 12.95-29.5 12.95-45.61V0h-69.42v176.42c0 12.08-3.36 23.93-9.72 34.21l-43.62 66.25c-8.47 13.71-12.95 29.5-12.95 45.61v298.27h142.51v-69.42h-73.08ZM384.57 210.63c-6.35-10.28-9.72-22.13-9.72-34.21V0h-69.42v189.98c0 16.11 4.49 31.91 12.95 45.61L362 301.84c6.35 10.28 9.72 22.13 9.72 34.21v215.29H225.54V336.05c0-12.08 3.36-23.93 9.72-34.21l43.62-66.25c8.47-13.71 12.95-29.5 12.95-45.61V0h-69.42v176.42c0 12.08-3.36 23.93-9.72 34.21l-43.62 66.25c-8.47 13.71-12.95 29.5-12.95 45.61v298.27h285.02V322.5c0-16.11-4.49-31.91-12.95-45.61l-43.62-66.25Z"></path></svg>