<svg xmlns="http://www.w3.org/2000/svg" width="467.7" viewBox="0 0 467.7 583.4" height="583.4"><path d="M218 223.7h-98.5v38H218v-38h31.7v-38H299l-27.3-47.3h21.5L268.8 96h20.3L233.9 0l-55.3 96h20.3l-24.4 42.4H196l-27.2 47.3H218z"></path><path d="M348.2 223.7h-98.5v38h98.5v-38h31.7v-38h49.2l-27.2-47.3h21.5L399 96h20.3L364 0l-55.2 96h20.3l-24.4 42.4h21.5L299 185.7h49.2z"></path><path d="M433.9 223.7h-54v38h49.3L401.9 309h21.5L399 351.4h20.3l-55.3 96-55.3-96H329L304.7 309h21.5L299 261.7 271.7 309h21.5l-24.4 42.4h20.3l-55.3 96-55.3-96h20.3L174.5 309H196l-27.2-47.3-27.3 47.3H163l-24.4 42.4h20.3l-55.3 96-55.3-96h20.3L44.3 309h21.5l-27.2-47.3h49.3v-38h31.7v-38h49.3l-27.2-47.3H163L138.6 96h20.3L103.7 0 48.4 96h20.3l-24.4 42.4h21.5l-27.2 47.3h49.3v38h-54C15.2 223.7 0 238.9 0 257.6v292c0 18.6 15.2 33.9 33.9 33.9h400c18.6 0 33.9-15.2 33.9-33.9v-292c-.1-18.7-15.3-33.9-33.9-33.9z"></path></svg>