<svg xmlns="http://www.w3.org/2000/svg" width="624.9" viewBox="0 0 624.9 594.9" height="594.9" xml:space="preserve" style="enable-background:new 0 0 624.9 594.9"><path d="m259.4 224.2 52.8-162.3 12.5 38.6 118.9-.4L411 0H215.4l-72.9 224.2z"></path><path d="M364.8 224.2h170.7L502.7 248l37 113.1 85.2-62L564.4 113H328.7z"></path><path d="m397.4 324.5 52.8 162.3-32.8-23.9-96 70.2 85.2 61.8 158.3-115L492 255.8z"></path><path d="m312.1 386.5-138 100.3 12.5-38.6-96.4-69.6-32.4 100.2L216 593.7l190.7-138.5z"></path><path d="m226.8 324.5-138-100.3h40.5L165.7 111l-105.3.1L0 297.2l190.7 138.5z"></path></svg>