<svg data-name="Layer 1" xmlns="http://www.w3.org/2000/svg" viewBox="0 0 628.45 628.45"><path d="M314.22 0C140.68 0 0 140.68 0 314.22s140.68 314.22 314.22 314.22 314.22-140.68 314.22-314.22S487.76 0 314.22 0Zm185.59 378.87v-48.14H353.58l160.44 160.44-57.14 57.14-57.14-57.14 34.04-34.04-103.4-103.4v226.89h-80.81v-80.81h48.14V353.58L137.27 514.02l-57.14-57.14 57.14-57.14 34.04 34.04 103.4-103.4H47.82v-80.81h80.81v48.14h146.23L114.42 137.28l57.14-57.14 57.14 57.14-34.04 34.04 103.4 103.4V47.82h80.81v80.81h-48.14v146.23l160.44-160.44 57.14 57.14-57.14 57.14-34.04-34.04-103.4 103.4h226.89v80.81h-80.81Z"></path></svg>