<svg xmlns="http://www.w3.org/2000/svg" width="600" viewBox="0 0 600 602.79" height="602.79" style="overflow:visible;enable-background:new 0 0 600 602.79" xml:space="preserve"><path d="M570.92 233.86c-20.65-22.15-49.94-34.75-80.14-34.49-58.27.46-107.49 50.93-107.49 110.22v32.94l-73.64-43.55V0h-22v285.98l-73.68-43.58V0h-21.99v229.39l-14.51-8.58-19.1-12.13c-15.71-9.99-33.37-15.3-51.11-15.37h-.35c-29.52 0-58.02 12.38-78.17 33.98C8.31 249.18-1.8 277.76.26 307.78c3.61 52.38 45.51 94.68 97.7 98.96v-22.08c-40.6-4.21-72.94-37.41-75.76-78.39-1.64-23.87 6.38-46.59 22.61-63.97 16.25-17.4 38.3-26.99 62.09-26.99h.32c13.54.05 27.15 4.18 39.36 11.93l19.23 12.23 26.16 15.47v39.19l-.15 5.81-.01.28c0 23.79-9.58 45.84-26.98 62.08-14.5 13.54-32.73 21.34-52.21 22.61v22.04c25.09-1.29 48.58-11.18 67.22-28.57 21.56-20.12 33.94-48.56 33.98-78.02l.15-5.82v-26.59l73.68 43.57v265.67c0 14.12 11.49 25.6 25.59 25.6h92.03v-221.7l13.07 7.73 19.04 11.53c17.74 10.75 37.46 16.15 57 15.69 1.44-.03 2.89-.1 4.35-.19 53.36-3.41 96.73-46.15 100.91-99.42 2.42-30.78-7.78-60.1-28.72-82.57M383.29 580.8h-70.04c-1.98 0-3.6-1.61-3.6-3.6V324.53l73.64 43.55V580.8zm194.44-266.09c-3.33 42.43-37.88 76.47-80.39 79.19-1.16.08-2.32.13-3.49.15-15.32.42-30.92-3.94-45.07-12.51l-19.13-11.59-24.37-14.41v-45.95c0-47.46 39.23-87.86 85.67-88.23 24.07-.17 47.42 9.83 63.88 27.49 16.69 17.91 24.82 41.3 22.9 65.86"></path></svg>