<svg xmlns="http://www.w3.org/2000/svg" width="585.4" viewBox="0 0 585.4 595.3" height="595.3"><path d="M405.9 488.6c-24.2 0-43.9 19.6-43.9 43.9 0 24.2 19.7 43.9 43.9 43.9s43.9-19.7 43.9-43.9-19.7-43.9-43.9-43.9M485.8 181.3c24.2 0 43.9-19.7 43.9-43.9S510 93.5 485.8 93.5s-43.9 19.7-43.9 43.9 19.7 43.9 43.9 43.9M541.5 306.1c-24.2 0-43.9 19.7-43.9 43.9s19.7 43.9 43.9 43.9 43.9-19.7 43.9-43.9c0-24.3-19.7-43.9-43.9-43.9"></path><path d="M335.8 532.5c0-38.8 31.3-70.2 70.1-70.2 24.7.7 43.4 16 63.8 27.2 20.7 12.6 47.4 8.4 61-11.7 13.6-20.1 8.4-47.4-11.7-61-32-21.7-64.3-34.2-95.8-36.9-7.5-.7-15-.8-22.3-.4 39.3-50.9 89.8-85.3 150.5-102.7 23.3-6.7 36.8-31 30.2-54.3-6.7-23.3-31-36.8-54.3-30.1-59.8 17.1-113 47.9-157.4 90.6 18.6-83.6 41.8-149.2 68-191.8 12.7-20.6 6.3-47.7-14.4-60.4-20.6-12.7-47.7-6.3-60.4 14.4-30.6 49.7-53.4 115.8-70.3 182.5-17-66.7-39.9-132.9-70.4-182.5-12.7-20.7-39.8-27.1-60.4-14.4-20.6 12.7-27.1 39.8-14.4 60.4 26.2 42.6 49.4 108.2 68 191.8-44.4-42.8-97.6-73.5-157.4-90.6-23.3-6.7-47.6 6.8-54.3 30.1-6.7 23.3 6.8 47.6 30.2 54.3 60.7 17.3 111.2 51.8 150.5 102.7-7.3-.4-14.8-.3-22.3.4-31.5 2.8-63.8 15.2-95.8 36.9-20.1 13.6-25.3 40.9-11.7 61 13.6 20.1 40.2 24.3 61 11.7 20.3-11.1 39-26.5 63.8-27.2 38.8 0 70.1 31.4 70.1 70.2v62.8h86.2v-62.8z"></path><path d="M179.5 488.6c-24.2 0-43.9 19.6-43.9 43.9 0 24.2 19.7 43.9 43.9 43.9s43.9-19.7 43.9-43.9-19.6-43.9-43.9-43.9M99.6 181.3c24.2 0 43.9-19.7 43.9-43.9s-19.7-43.9-43.9-43.9-43.9 19.7-43.9 43.9 19.6 43.9 43.9 43.9M87.8 350c0-24.2-19.7-43.9-43.9-43.9S0 325.7 0 350c0 24.2 19.7 43.9 43.9 43.9 24.3 0 43.9-19.7 43.9-43.9M292.7 87.8c24.2 0 43.9-19.7 43.9-43.9S316.9 0 292.7 0s-43.9 19.7-43.9 43.9c0 24.3 19.7 43.9 43.9 43.9"></path></svg>