<svg id="Layer_1" data-name="Layer 1" xmlns="http://www.w3.org/2000/svg" viewBox="0 0 627.53 627.38">
  <path d="M1.92,348.45H625.61c.73-6.56,1.25-13.19,1.56-19.87H.36c.31,6.68,.84,13.3,1.56,19.87Z"></path>
  <path d="M7.78,383.32H619.75c1.49-6.55,2.76-13.17,3.83-19.87H3.94c1.07,6.7,2.35,13.32,3.83,19.87Z"></path>
  <path d="M17.85,418.18H609.68c2.31-6.53,4.4-13.15,6.28-19.87H11.57c1.88,6.72,3.97,13.34,6.28,19.87Z"></path>
  <path d="M32.61,453.05H594.92c3.23-6.5,6.23-13.12,9.02-19.87H23.59c2.78,6.74,5.79,13.37,9.02,19.87Z"></path>
  <path d="M52.84,487.91H574.69c4.32-6.46,8.41-13.08,12.25-19.87H40.58c3.84,6.78,7.93,13.41,12.25,19.87Z"></path>
  <path d="M79.89,522.78h467.74c5.72-6.39,11.18-13.02,16.37-19.87H63.52c5.19,6.85,10.65,13.48,16.37,19.87Z"></path>
  <path d="M116.53,557.64H511c7.75-6.27,15.19-12.9,22.31-19.87H94.23c7.11,6.97,14.56,13.6,22.31,19.87Z"></path>
  <path d="M169.88,592.51H457.65c11.51-5.95,22.6-12.59,33.22-19.87H136.66c10.62,7.28,21.72,13.92,33.22,19.87Z"></path>
  <path d="M313.76,627.38c38.74,0,75.84-7.03,110.1-19.87H203.66c34.26,12.84,71.36,19.87,110.1,19.87Z"></path>
  <path d="M342.9,1.19c-6.42-.59-12.89-.99-19.41-1.19l-4.36,140.7c3.6,.11,7.16,.33,10.7,.66L342.9,1.19Z"></path>
  <path d="M351.01,144.64L381.32,7.14c-6.3-1.38-12.68-2.58-19.11-3.57l-21.73,139.1c3.55,.55,7.06,1.22,10.54,1.98Z"></path>
  <path d="M371.61,150.53L418.68,17.82c-6.09-2.16-12.26-4.14-18.51-5.92l-38.76,135.36c3.45,.99,6.85,2.08,10.2,3.27Z"></path>
  <path d="M391.3,158.93l63.1-125.87c-5.77-2.9-11.65-5.63-17.62-8.17l-55.19,129.53c3.29,1.4,6.53,2.91,9.71,4.51Z"></path>
  <path d="M409.79,169.69l78.13-117.11c-5.37-3.59-10.86-7.02-16.45-10.28l-70.75,121.72c3.09,1.8,6.11,3.69,9.07,5.67Z"></path>
  <path d="M426.78,182.63l91.96-106.58c-4.89-4.22-9.9-8.29-15.05-12.2l-85.22,112.06c2.83,2.16,5.61,4.4,8.3,6.72Z"></path>
  <path d="M442.04,197.53l104.38-94.45c-4.33-4.78-8.8-9.43-13.42-13.94l-98.36,100.71c2.54,2.48,5.02,5.04,7.4,7.68Z"></path>
  <path d="M455.34,214.17l115.2-80.92c-3.71-5.27-7.58-10.42-11.59-15.45l-110,87.85c2.22,2.77,4.35,5.61,6.39,8.51Z"></path>
  <path d="M466.48,232.27l124.27-66.19c-3.03-5.68-6.23-11.26-9.6-16.72l-119.96,73.69c1.85,3.01,3.62,6.09,5.29,9.22Z"></path>
  <path d="M475.3,251.58l131.45-50.48c-2.31-6.01-4.8-11.92-7.45-17.74l-128.1,58.44c1.47,3.21,2.83,6.47,4.11,9.78Z"></path>
  <path d="M481.66,271.78l136.63-34.04c-1.55-6.24-3.29-12.4-5.2-18.49l-134.29,42.34c1.06,3.35,2.01,6.76,2.86,10.2Z"></path>
  <path d="M485.49,292.56l139.74-17.13c-.77-6.38-1.74-12.69-2.89-18.95l-138.44,25.63c.63,3.45,1.17,6.93,1.59,10.45Z"></path>
  <path d="M486.77,313.61h140.76c0-6.42-.2-12.79-.58-19.11l-140.52,8.58c.21,3.49,.33,7,.33,10.54Z"></path>
  <path d="M308.4,140.7L304.04,0c-6.52,.2-13,.59-19.41,1.19l13.07,140.17c3.54-.33,7.11-.55,10.7-.66Z"></path>
  <path d="M287.06,142.66L265.33,3.57c-6.44,1-12.81,2.19-19.11,3.57l30.31,137.5c3.48-.76,6.99-1.43,10.54-1.98Z"></path>
  <path d="M266.12,147.26L227.36,11.9c-6.25,1.79-12.43,3.76-18.51,5.92l47.07,132.71c3.36-1.19,6.76-2.29,10.2-3.27Z"></path>
  <path d="M245.94,154.42L190.75,24.88c-5.97,2.55-11.84,5.27-17.62,8.17l63.1,125.87c3.18-1.6,6.42-3.11,9.71-4.51Z"></path>
  <path d="M226.82,164.03L156.06,42.31c-5.6,3.26-11.08,6.69-16.45,10.28l78.13,117.11c2.96-1.98,5.99-3.87,9.07-5.67Z"></path>
  <path d="M209.05,175.91L123.83,63.85c-5.14,3.92-10.16,7.99-15.05,12.2l91.96,106.58c2.69-2.33,5.47-4.56,8.3-6.72Z"></path>
  <path d="M192.89,189.86L94.53,89.15c-4.61,4.51-9.09,9.16-13.42,13.94l104.38,94.45c2.39-2.64,4.86-5.19,7.4-7.68Z"></path>
  <path d="M178.59,205.65L68.59,117.8c-4.02,5.02-7.88,10.18-11.59,15.45l115.2,80.92c2.04-2.91,4.18-5.74,6.39-8.51Z"></path>
  <path d="M166.34,223.05L46.38,149.37c-3.36,5.47-6.57,11.04-9.6,16.72l124.27,66.19c1.67-3.13,3.44-6.21,5.29-9.22Z"></path>
  <path d="M156.34,241.79L28.24,183.35c-2.66,5.82-5.15,11.74-7.45,17.74l131.45,50.48c1.27-3.31,2.64-6.57,4.11-9.78Z"></path>
  <path d="M148.73,261.58L14.44,219.25c-1.92,6.08-3.65,12.25-5.2,18.49l136.63,34.04c.85-3.44,1.81-6.84,2.86-10.2Z"></path>
  <path d="M143.63,282.12L5.19,256.49c-1.15,6.25-2.11,12.57-2.89,18.95l139.74,17.13c.43-3.52,.96-7,1.59-10.45Z"></path>
  <path d="M141.09,303.07L.58,294.5c-.38,6.32-.58,12.69-.58,19.11H140.76c0-3.54,.12-7.05,.33-10.54Z"></path>
</svg>