<svg data-name="Layer 1" xmlns="http://www.w3.org/2000/svg" viewBox="0 0 500.75 590.16"><path d="M347.1 358.26v-.21h-39.7l.03.54c2.42 46.18 21.82 89.67 54.62 122.46a187.109 187.109 0 0 0 117.74 54.27v-39.86c-33.86-3.39-65.56-18.22-89.74-42.41-25.39-25.38-40.64-59.04-42.94-94.79Z"></path><path d="M401.91 358.16v-.11h-39.73l.04.6c2.37 31.57 16.02 61.32 38.46 83.75 21.36 21.37 49.26 34.61 79.1 37.94V440.5a93.003 93.003 0 0 1-51.09-26.1c-15.32-15.32-24.58-34.76-26.77-56.23Z"></path><path d="M428.39 358.05h-11.28l.1.75c2.25 17.18 9.9 32.72 22.12 44.95 11.12 11.12 25.23 18.48 40.45 21.4v-15.71c0-28.38-23.01-51.39-51.39-51.39Z"></path><path d="M326.48 174.27c-94.75 94.74-97.25 248.57-5.58 342.91 42.16 43.39 98.59 69.3 158.88 72.97v-39.73c-49.5-3.6-95.76-25.12-130.48-60.85-35.7-36.74-55.53-85.56-56-137.74h130.48c42.45 0 76.98-34.53 76.98-76.98V0L326.49 174.27Zm134.67 100.59c0 20.61-16.77 37.38-37.38 37.38H296.71c7.66-41.83 27.59-79.79 57.76-109.97L461.14 95.6v179.27ZM21.91 535.32c44.42-3.48 86.12-22.65 117.74-54.27 32.79-32.79 52.19-76.28 54.62-122.46l.03-.54h-39.69v.21c-2.32 35.75-17.57 69.41-42.96 94.79-24.18 24.19-55.88 39.02-89.74 42.41v39.86Z"></path><path d="M21.91 480.33c29.84-3.33 57.73-16.56 79.1-37.94 22.44-22.43 36.09-52.17 38.46-83.75l.04-.6H99.79v.11c-2.2 21.47-11.46 40.91-26.79 56.23a92.972 92.972 0 0 1-51.09 26.1v39.84Z"></path><path d="M84.58 358.05H73.3c-28.38 0-51.39 23.01-51.39 51.39v15.71c15.23-2.93 29.34-10.29 40.45-21.4 12.22-12.22 19.87-27.77 22.12-44.95l.1-.75Z"></path><path d="M0 0v274.86c0 42.45 34.53 76.98 76.98 76.98h130.48c-.47 52.18-20.3 101-56 137.74-34.72 35.73-80.98 57.25-130.48 60.85v39.73c60.29-3.67 116.71-29.58 158.88-72.97 91.67-94.34 89.17-248.17-5.58-342.91L0 0Zm76.98 312.24c-20.61 0-37.38-16.77-37.38-37.38V95.6l106.67 106.67c30.17 30.18 50.1 68.14 57.76 109.97H76.98Z"></path></svg>