<svg xmlns="http://www.w3.org/2000/svg" width="352.7" viewBox="0 0 352.7 594.5" height="594.5"><path d="M352.7 275.7l-78.1-78.1 11.9-11.9V77l-77-77L0 209.4v108.7l77 77 55.4-55.4v177.7l77 77 77-77v-67l66.2-66.2V275.7zm-21.7 78l-44.6-44.6V240l44.6 44.6v69.1zm-110.7 88.6v-69.1l44.6 44.6v69.1l-44.6-44.6zM87.9 152.2l44.6-44.6v69.1l-44.6 44.6v-69.1zm55.3 44.3l50.9 50.9-50.9 50.9-50.9-50.9 50.9-50.9zm15.3-15.3l50.9-50.9 50.9 50.9-50.9 50.9-50.9-50.9zm40.1-70.7L154 155.1V86l44.6-44.6v69.1zM77 262.7l50.9 50.9L77 364.5l-50.9-50.9L77 262.7zm143.3 10.8l44.6 44.6v69.1l-44.6-44.6v-69.1zm44.5-55.1v69.1l-40.1-40.1 34.5-34.5 5.6 5.5zm0-63.3l-44.6-44.6V41.4L264.8 86v69.1zM66.2 173.8v69.1l-44.6 44.6v-69.1l44.6-44.6zm87.9 144.3l4.5-4.5 40.1-40.1v69.1l-44.6 44.6v-69.1zm0 99.7l44.6-44.6v69.1l-44.6 44.6v-69.1zm4.4 95.2l50.9-50.9 50.9 50.9-50.9 50.9-50.9-50.9zm128-99.7v-73.6l40.1 40.1-40.1 40.1v-6.6z"></path></svg>