<svg xmlns="http://www.w3.org/2000/svg" width="538" viewBox="0 0 538 537.9" height="537.9"><path d="M475.2 178.2V94.1l-64.4 26.7V28.9l-65.2 63.5V0L269 154.1 192.3 0v92.4l-65.2-63.5v91.9L62.7 94.1v84.1H0v359.6h538V178.2h-62.8zM444.6 140v291.3l-139.9 59.4 106.1-97.1V154l33.8-14zm-64.4-38.4v278.5l-84.1 77 49.5-93.6V135.2l34.6-33.6zM315 355.9l-30.7 57.9V192.1l30.7-61.7v225.5zm-92-225.4l30.7 61.7v221.7l-30.7-58V130.5zm-65.2-28.9l34.6 33.7v228.2l49.5 93.6-84.1-77V101.6zM93.4 140l33.7 14v239.6l106.1 97.1-139.8-59.4V140zm-62.7 68.9h32.1v242.8l130.9 55.6h-163V208.9zm476.6 298.3h-163l130.9-55.6V208.9h32.1v298.3z"></path></svg>