<svg xmlns="http://www.w3.org/2000/svg" width="642" viewBox="0 0 642 642" height="642" data-name="Layer 1"><path d="M379.55 150.87h74.58c4.61 0 6.61-5.89 2.94-8.69-40.88-31.19-92.78-48.63-148.86-45.53-111.97 6.2-203.47 96.22-211.34 208.09C87.62 436.19 191.52 545.7 321 545.7c97.07 0 179.76-61.5 211.15-147.72l90.59 32.87c-46.92 128.8-173.89 219.08-320.78 210.6C142.77 632.27 12.89 504.83.94 345.82-13.24 157.36 135.54 0 321 0c80.42 0 153.95 29.57 210.26 78.45 3.14 2.73 8.02.59 8.02-3.58V0H642v197.42l-89.88 56.18H379.55V150.88Z"></path></svg>