<svg id="Layer_1" data-name="Layer 1" xmlns="http://www.w3.org/2000/svg" viewBox="0 0 630.24 631.67">   <path d="M315.83,572.5c-141.52,0-256.66-115.14-256.66-256.66S174.31,59.17,315.83,59.17c131.51,0,240.18,99.45,254.91,227.08h59.5C615.27,125.93,480.01,0,315.83,0,141.68,0,0,141.68,0,315.84s141.68,315.83,315.83,315.83c164.17,0,299.43-125.92,314.41-286.25h-59.5c-14.72,127.63-123.39,227.08-254.91,227.08Z"></path>   <path d="M123.5,345.42h447.24c1.12-9.72,1.76-19.57,1.76-29.58s-.64-19.87-1.76-29.58H123.5v59.17Z"></path> </svg>