<svg data-name="Layer 1" xmlns="http://www.w3.org/2000/svg" viewBox="0 0 615.18 615.18"><g data-name="Final Redrawn Shapes"><path d="M458.07 108.86c14.81.02 29.56 1.67 44.01 4.92 14.46 59.29-3.01 124.92-47.33 174.55l-17.13 19.18 17.23 19.14a205.002 205.002 0 0 1 33.71 51.06c8.89-3.63 17.52-7.86 25.84-12.65a234.174 234.174 0 0 0-38.14-57.62c54.03-60.63 73.71-144.21 48.83-217.37a233.399 233.399 0 0 0-67.02-9.97c-17.94 0-35.82 2.2-53.23 6.53 4.6 8.61 8.59 17.53 11.96 26.69 13.55-2.98 27.39-4.48 41.27-4.48ZM528.43 404.79c-6.28 3.43-12.73 6.54-19.33 9.31-3.11 1.23-5.48 2.19-7.38 2.92 6.13 28.04 6.01 57.09-.33 85.08a175.149 175.149 0 0 1-41.49 4.92c-48.08 0-95.34-18.55-133.06-52.23l-19.18-17.13-19.14 17.23a205.647 205.647 0 0 1-51.05 33.75c3.82 8.78 8.1 17.37 12.8 25.71 20.93-9.81 40.3-22.66 57.47-38.14 43.06 38.5 97.86 59.54 152.2 59.54 22.15.04 44.16-3.55 65.15-10.63a226.776 226.776 0 0 0 3.36-120.33Z"></path><path d="M307.15 582.18c-50.09-30.51-83.44-86.37-89.35-149-8.99.43-21.36.22-28.84 0 6.52 78.64 51.15 148.71 118.63 181.99 36.11-19.45 66.37-47.55 87.47-82.52-8.07-2.63-20.17-7.49-27.28-10.41a195.578 195.578 0 0 1-60.63 59.93ZM532.39 219.99c-1.62 5.08-3.69 11.66-4.66 14.4-.97 2.73-3.42 8.61-5.39 13.08a195.496 195.496 0 0 1 59.83 60.57c-30.5 50.08-86.32 83.41-148.87 89.34.65 10.22.37 21.8.07 28.84 78.46-6.56 148.59-51.17 181.81-118.62-19.49-36.2-47.69-66.5-82.79-87.6ZM404.69 313.86c-6.21 10.2-10.14 17.23-19.16 29.04a192.282 192.282 0 0 1 13.1 69.93c.12 24.75-4.16 49.33-12.64 72.59 8.92 3.53 18.05 6.54 27.33 8.99a237.25 237.25 0 0 0 14.04-81.57c.2-34.3-7.56-68.19-22.68-98.98ZM412.83 187.81c-34.22.04-67.98 7.92-98.69 23.02 10.13 5.55 19.87 11.8 29.12 18.71 22.2-8.55 45.78-12.96 69.56-13 24.64-.11 49.11 4.13 72.27 12.53 1.81-4.31 4.06-9.73 4.92-11.64.9-2.14 3.01-9.68 4.58-15.51a237.203 237.203 0 0 0-81.77-14.1ZM272.97 237.29a226.12 226.12 0 0 0-83.8 154.68c9.65.42 19.31.25 28.94-.5 6.56-56.24 37.97-108.64 83.66-139.6a217.248 217.248 0 0 0-28.8-14.58Z"></path><path d="M272.55 385.46a194.463 194.463 0 0 1-70.2 13.18c-24.75.12-49.33-4.15-72.59-12.61-3.67 8.86-6.74 17.97-9.17 27.25a237.47 237.47 0 0 0 81.7 14.09c34.3-.02 68.14-7.92 98.91-23.09-6.11-3.73-16.29-10.14-28.64-18.81ZM397.06 223.77c-6.58 56.24-37.98 108.6-83.66 139.55 9.32 5.45 19 10.26 28.96 14.41a226.123 226.123 0 0 0 83.66-154.53c-9.66-.33-19.33-.14-28.96.58Z"></path><path d="M157.1 506.33c-14.81-.02-29.56-1.67-44.01-4.92-14.44-59.28 3.03-124.92 47.33-174.53l17.13-19.18-17.23-19.14a205.189 205.189 0 0 1-33.75-51.1c-8.81 3.72-17.39 7.96-25.69 12.72a234.12 234.12 0 0 0 38.14 57.56C84.88 368.36 65.2 451.94 90.08 525.1c21.74 6.57 44.31 9.92 67.02 9.97 17.98 0 35.9-2.21 53.35-6.57-4.61-8.74-9.36-19.89-12.11-26.65a191.887 191.887 0 0 1-41.24 4.49ZM365.01 100.78a234.21 234.21 0 0 0-57.57 38.25c-43.06-38.5-97.86-59.54-152.21-59.54-22.15-.04-44.16 3.55-65.15 10.63a226.753 226.753 0 0 0-3.33 120.27c8.86-4.7 20.02-9.42 26.69-12.12-6.15-28.08-6.04-57.16.32-85.19 13.58-3.29 27.5-4.94 41.48-4.92 48.08 0 95.34 18.55 133.06 52.24l19.18 17.13 19.14-17.23a206.054 206.054 0 0 1 50.99-33.8c-3.66-8.83-7.87-17.42-12.6-25.73ZM391.66 397.09c-56.36-6.52-108.87-37.98-139.85-83.74-5.36 9.4-10.15 19.1-14.35 29.07A226.133 226.133 0 0 0 391.92 426c.69-9.63.61-19.3-.26-28.91Z"></path><path d="M33 307.15c30.5-50 86.35-83.39 148.87-89.37-.5-9.61-.5-19.23 0-28.84C103.35 195.54 33.22 240.15 0 307.59c19.48 36.16 47.63 66.44 82.67 87.54 2.94-9.3 6.35-18.44 10.22-27.39A195.354 195.354 0 0 1 33 307.14ZM223.21 189.14c-.41 9.65-.25 19.32.5 28.95 56.24 6.57 108.64 38.01 139.58 83.66a217.68 217.68 0 0 0 14.59-28.73 226.005 226.005 0 0 0-154.68-83.89Z"></path><path d="M229.12 129.91c-8.89-3.62-17.99-6.67-27.26-9.15a237.108 237.108 0 0 0-14.05 81.6 224 224 0 0 0 22.98 98.7 214.456 214.456 0 0 1 18.78-28.94c-8.58-22.26-13-45.91-13.02-69.77-.12-24.7 4.14-49.22 12.57-72.43ZM307.59 0c-36.12 19.46-66.44 47.58-87.49 82.57 9.29 2.96 18.42 6.39 27.36 10.27A195.42 195.42 0 0 1 308.03 33c50.06 30.5 83.41 86.35 89.37 148.87 9.61-.49 19.23-.49 28.84 0C419.65 103.35 375.03 33.22 307.58 0Z"></path></g></svg>