<svg data-name="Layer 1" xmlns="http://www.w3.org/2000/svg" viewBox="0 0 299.25 596.88"><path d="M68.99 73.58c6.27 0 11.81-3.06 15.24-7.76a18.8 18.8 0 0 0-3.62 11.1c0 10.41 8.44 18.86 18.86 18.86s18.86-8.44 18.86-18.86c0-4.06-1.29-7.82-3.47-10.89 0 0 0-.02.02-.03 3.44 4.6 8.93 7.57 15.11 7.57 10.41 0 18.86-8.44 18.86-18.86s-8.44-18.86-18.86-18.86c-1.93 0-3.79.29-5.54.83 7.41-2.54 12.75-9.56 12.75-17.84 0-10.41-8.44-18.86-18.86-18.86S99.48 8.42 99.48 18.84c0 .17 0 .34.01.51h-.03c0-.17.01-.34.01-.51 0-10.41-8.44-18.86-18.86-18.86S61.75 8.42 61.75 18.84c0 8.23 5.27 15.22 12.61 17.79-1.71-.51-3.51-.79-5.39-.79-10.41 0-18.86 8.44-18.86 18.86s8.44 18.86 18.86 18.86Zm25.72-35.33 4.77-14.68 4.77 14.68h15.44l-12.49 9.07L111.97 62l-12.49-9.07L86.99 62l4.77-14.68-12.49-9.07H94.7Z"></path><path d="M99.48 50.41c3.09 0 5.6-2.51 5.6-5.6s-2.51-5.6-5.6-5.6-5.6 2.51-5.6 5.6 2.51 5.6 5.6 5.6ZM169.26 73.58c6.27 0 11.81-3.06 15.24-7.76a18.8 18.8 0 0 0-3.62 11.1c0 10.41 8.44 18.86 18.86 18.86s18.86-8.44 18.86-18.86c0-4.06-1.29-7.82-3.47-10.89 0 0 0-.02.02-.03 3.44 4.6 8.93 7.57 15.11 7.57 10.41 0 18.86-8.44 18.86-18.86s-8.44-18.86-18.86-18.86c-1.93 0-3.79.29-5.54.83 7.41-2.54 12.75-9.56 12.75-17.84 0-10.41-8.44-18.86-18.86-18.86s-18.86 8.44-18.86 18.86c0 .17 0 .34.01.51h-.03c0-.17.01-.34.01-.51 0-10.41-8.44-18.86-18.86-18.86s-18.86 8.44-18.86 18.86c0 8.23 5.27 15.22 12.61 17.79-1.71-.51-3.51-.79-5.39-.79-10.41 0-18.86 8.44-18.86 18.86s8.44 18.86 18.86 18.86Zm25.72-35.33 4.77-14.68 4.77 14.68h15.44l-12.49 9.07L212.24 62l-12.49-9.07L187.26 62l4.77-14.68-12.49-9.07h15.43Z"></path><path d="M199.75 50.41c3.09 0 5.6-2.51 5.6-5.6s-2.51-5.6-5.6-5.6-5.6 2.51-5.6 5.6 2.51 5.6 5.6 5.6ZM130.76 89.81c-10.41 0-18.86 8.44-18.86 18.86 0 8.23 5.27 15.22 12.61 17.79-1.71-.51-3.51-.79-5.39-.79-10.41 0-18.86 8.44-18.86 18.86s8.44 18.86 18.86 18.86c6.27 0 11.81-3.06 15.24-7.76a18.8 18.8 0 0 0-3.62 11.1c0 10.41 8.44 18.86 18.86 18.86s18.86-8.44 18.86-18.86c0-4.06-1.29-7.82-3.47-10.89 0 0 0-.02.02-.03 3.44 4.6 8.93 7.57 15.11 7.57 10.41 0 18.86-8.44 18.86-18.86s-8.44-18.86-18.86-18.86c-1.93 0-3.79.29-5.54.83 7.41-2.54 12.75-9.56 12.75-17.84 0-10.41-8.44-18.86-18.86-18.86s-18.86 8.44-18.86 18.86c0 .17 0 .34.01.51h-.03c0-.17.01-.34.01-.51 0-10.41-8.44-18.86-18.86-18.86Zm18.86 23.57 4.77 14.68h15.44l-12.49 9.07 4.77 14.68-12.49-9.07-12.49 9.07 4.77-14.68-12.49-9.07h15.43l4.77-14.68Z"></path><circle cx="149.61" cy="134.62" r="5.6"></circle><path d="M231.03 89.81c-10.41 0-18.86 8.44-18.86 18.86 0 8.23 5.27 15.22 12.61 17.79-1.71-.51-3.51-.79-5.39-.79-10.41 0-18.86 8.44-18.86 18.86s8.44 18.86 18.86 18.86c6.27 0 11.81-3.06 15.24-7.76a18.8 18.8 0 0 0-3.62 11.1c0 10.41 8.44 18.86 18.86 18.86s18.86-8.44 18.86-18.86c0-4.06-1.29-7.82-3.47-10.89 0 0 0-.02.02-.03 3.44 4.6 8.93 7.57 15.11 7.57 10.41 0 18.86-8.44 18.86-18.86s-8.44-18.86-18.86-18.86c-1.93 0-3.79.29-5.54.83 7.41-2.54 12.75-9.56 12.75-17.84 0-10.41-8.44-18.86-18.86-18.86s-18.86 8.44-18.86 18.86c0 .17 0 .34.01.51h-.03c0-.17.01-.34.01-.51 0-10.41-8.44-18.86-18.86-18.86Zm18.86 23.57 4.77 14.68h15.44l-12.49 9.07 4.77 14.68-12.49-9.07-12.49 9.07 4.77-14.68-12.49-9.07h15.43l4.77-14.68Z"></path><circle cx="249.88" cy="134.62" r="5.6"></circle><path d="M18.86 163.39c6.27 0 11.81-3.06 15.24-7.76a18.8 18.8 0 0 0-3.62 11.1c0 10.41 8.44 18.86 18.86 18.86s18.86-8.44 18.86-18.86c0-4.06-1.29-7.82-3.47-10.89 0 0 0-.02.02-.03 3.44 4.6 8.93 7.57 15.11 7.57 10.41 0 18.86-8.44 18.86-18.86s-8.44-18.86-18.86-18.86c-1.93 0-3.79.29-5.54.83 7.41-2.54 12.75-9.56 12.75-17.84 0-10.41-8.44-18.86-18.86-18.86s-18.86 8.44-18.86 18.86c0 .17 0 .34.01.51h-.03c0-.17.01-.34.01-.51 0-10.41-8.44-18.86-18.86-18.86s-18.86 8.44-18.86 18.86c0 8.23 5.27 15.22 12.61 17.79-1.71-.51-3.51-.79-5.39-.79-10.41 0-18.86 8.44-18.86 18.86s8.44 18.86 18.86 18.86Zm25.72-35.33 4.77-14.68 4.77 14.68h15.44l-12.49 9.07 4.77 14.68-12.49-9.07-12.49 9.07 4.77-14.68-12.49-9.07h15.43Z"></path><circle cx="49.34" cy="134.62" r="5.6"></circle><path d="M270.13 395.16v57.08c0 66.55-53.51 121.38-120.06 121.57h-.88c-66.55-.19-120.06-55.01-120.06-121.57v-57.08c0-12.74-10.33-23.07-23.07-23.07v80.08c0 78.87 64.53 144.67 143.4 144.71h.36c78.87-.04 143.4-65.84 143.4-144.71v-80.08c-12.74 0-23.07 10.33-23.07 23.07Z"></path><path d="M182.95 394.12v59.29c0 14.3-9.09 26.52-21.79 31.19V241.88c25.09-5.32 43.97-27.64 43.97-54.29v-11.83h-16.78v11.83c0 17.34-11.45 32.05-27.19 36.97v-31.13h-23.07v31.13c-15.74-4.92-27.19-19.63-27.19-36.97v-11.83H94.12v11.83c0 26.65 18.88 48.97 43.97 54.29V484.6c-12.7-4.67-21.79-16.89-21.79-31.19v-59.29c0-31.54-11.83-60.46-33.3-81.44-21.01-20.52-49.41-31.82-79.95-31.82v23.07c51.42 0 90.19 38.77 90.19 90.19v59.29c0 31.04 25.25 56.29 56.29 56.29h.22c31.04 0 56.29-25.25 56.29-56.29v-59.29c0-51.42 38.77-90.19 90.19-90.19v-23.07c-30.55 0-58.94 11.3-79.95 31.82-21.48 20.97-33.3 49.9-33.3 81.44Z"></path><path d="M226.54 394.12v58c0 20.6-8.03 40.14-22.61 55.01-14.6 14.89-33.85 23.09-54.2 23.09h-.2c-20.36 0-39.61-8.2-54.2-23.09-14.58-14.87-22.61-34.41-22.61-55.01v-58c0-38.41-31.25-69.67-69.67-69.67v23.07c25.69 0 46.6 20.9 46.6 46.6v58c0 26.68 10.37 51.95 29.2 71.16 18.97 19.35 44.07 30.01 70.68 30.01h.22c26.61 0 51.71-10.66 70.68-30.01 18.83-19.21 29.2-44.48 29.2-71.16v-58c0-25.69 20.9-46.6 46.6-46.6v-23.07c-38.41 0-69.67 31.25-69.67 69.67Z"></path></svg>