<svg xmlns="http://www.w3.org/2000/svg" width="642" viewBox="0 0 642 642" height="642" style="overflow:visible;enable-background:new 0 0 642 642" xml:space="preserve"><path d="M321 0C143.7 0 0 143.7 0 321s143.7 321 321 321 321-143.7 321-321S498.3 0 321 0zM57.8 321c0-89.2 44.4-168 112.4-215.6v122.5c0 72.3 50.9 132.7 118.8 147.4v206.9C158.7 566.4 57.8 455.5 57.8 321zm295.3 261.2V375.3c67.9-14.7 118.8-75.1 118.8-147.4V105.4C539.8 153 584.2 231.8 584.2 321c0 134.5-100.9 245.4-231.1 261.2zm61-500.6v146.3c0 51.4-41.7 93.1-93.1 93.1s-93.1-41.7-93.1-93.1V81.6h186.2z" style="fill-rule:evenodd;clip-rule:evenodd"></path></svg>