<svg xmlns="http://www.w3.org/2000/svg" width="619.4" viewBox="0 0 619.4 224.9" height="224.9" xml:space="preserve"><path class="st0" d="m531.8.2-44.4 114h-90.3l1.9 4.7h-86.1l4.4 11.2h86.1l1.4 3.5h90.3l1.3 3.4h-90.3l1.9 4.7h-86.1l4.4 11.2h86.1l1.4 3.5h90.3l1.4 3.4h-90.4l1.9 4.8h-86.1l4.5 11.1h86l1.3 3.5h90.5l1.3 3.5h-90.4l1.9 4.7h-86.1l4.5 11.2h86l1.3 3.5h90.5l1.4 3.4h-90.5l1.8 4.7H349l4.4 11.2h85.9l1.4 3.5h90.5L619.4 0zM175.2 8.4H82.7L81.3 12h95.3zM184.2 31.4H73.7L72.3 35h113.3zM193.3 54.4H64.7l-1.4 3.5h131.4zM202.3 77.4H55.6l-1.4 3.5h149.5zM211.3 100.3H46.6l-1.4 3.6h167.5zM36.1 126.9h87.3l1.4-3.6H37.5zM27.1 149.8h87.2l1.4-3.5H28.5zM18.1 172.8h87.2l1.4-3.5H19.5zM9 195.8h87.2l1.4-3.6H10.4zM0 218.7h87.2l1.4-3.5H1.4zM216.4 123.3h-80.7l1.4 3.6H215l-1.3 3.2h88.5l4.4-11.2h-88.5zM207.3 146.3h-62.5l1.4 3.5h59.7l-1.2 3.1h88.5l4.4-11.2h-88.5zM198.3 169.3h-44.5l1.6 3.5h41.5l-1.2 2.9h88.5l4.4-11.1h-88.5zM189.3 192.2h-25.5l1.5 3.6h22.6l-1.1 2.8h88.4l4.4-11.2h-88.4zM180.2 215.2h-6.5l1.5 3.3h3.7l-1.1 2.9-.1.2h88.4l.1-.2 4.4-11.2h-88.4zM359.9 19.4H450L442.5.2 352.2 0l1.9 4.8H263l-4.4 11.1h99.9z"></path><path class="st0" d="M368.8 42.2H459l-7.6-19.4h-90.2l1.9 4.8H254l-4.4 11.2h117.9zM377.8 65.1H468l-7.7-19.4h-90.1l1.9 4.7h-127l-4.4 11.2h135.8zM386.8 87.9H477l-7.7-19.4h-90.1l1.8 4.8H236.1l-4.4 11.1h153.7zM395.8 110.7h90.1l-7.6-19.4h-90.1l1.8 4.8H227.1l-4.4 11.2h171.7z"></path></svg>