<svg xmlns="http://www.w3.org/2000/svg" width="642" viewBox="0 0 642 630" height="630" style="overflow:visible;enable-background:new 0 0 642 630" xml:space="preserve"><path d="M642 159.7c0 39.1-14.1 74.9-37.4 102.7L321 630 37.4 262.3C14.1 234.6 0 198.8 0 159.7 0 71.5 71.5 0 159.7 0c88.1 0 159.7 71.5 159.7 159.7 0 29.1-7.8 56.4-21.4 79.9l-78.5 129.2c-10 17.3-15.7 37.3-15.7 58.6 0 64.7 52.5 117.2 117.2 117.2S438.2 492 438.2 427.3c0-21.3-5.7-41.3-15.7-58.6L344 239.5c-13.6-23.5-21.4-50.8-21.4-79.9C322.6 71.5 394.1 0 482.3 0 570.5 0 642 71.5 642 159.7z"></path></svg>