<svg id="Layer_1" data-name="Layer 1" xmlns="http://www.w3.org/2000/svg" viewBox="0 0 548.49 623.69">   <rect width="483.03" viewBox="0 0 483.03 54.07" height="54.07"></rect>   <rect y="569.62" width="483.03" height="54.07"></rect>   <polygon points="76.74 551.05 174.17 311.85 76.74 72.64 21.79 72.64 119.22 311.85 21.79 551.05 76.74 551.05"></polygon>   <polygon points="267.75 311.85 170.32 72.64 115.38 72.64 212.8 311.85 115.38 551.05 170.32 551.05 267.75 311.85"></polygon>   <polygon points="361.33 311.85 263.9 72.64 208.96 72.64 306.38 311.85 208.96 551.05 263.9 551.05 361.33 311.85"></polygon>   <polygon points="454.91 311.85 357.48 72.64 302.54 72.64 399.96 311.85 302.54 551.05 357.48 551.05 454.91 311.85"></polygon>   <polygon points="548.49 311.84 451.06 72.64 396.11 72.64 493.54 311.84 396.11 551.05 451.06 551.05 548.49 311.84"></polygon> </svg>