<svg xmlns="http://www.w3.org/2000/svg" width="608" viewBox="0 0 608 539.4" height="539.4" xml:space="preserve"><path d="m127.5 0 36 10L53.2 201.6l112.7 97.6v240.2H130v-226L0 201.6z"></path><path d="m189.5 15 29.7 6.2-79.3 180.4 85.5 74.1v263.7h-35.9V289.9L86.7 201.6z"></path><path d="m242.7 25 37.2 5-57 171.6 61.9 50.6v287.2h-33.4v-274l-75.6-63.8zM480.5 0l-35.9 10 110.2 191.6-112.7 97.6v240.2H478v-226l130-111.8z"></path><path d="m418.6 15-27.2 6.2 76.7 180.4-85.4 74.1v263.7h35.9V289.9l102.8-88.3z"></path><path d="m365.3 25-37.1 5 56.9 171.6-61.9 50.6v287.2h33.4v-274l75.6-63.8z"></path></svg>