<svg xmlns="http://www.w3.org/2000/svg" width="608.7" viewBox="0 0 608.7 206.7" height="206.7"><path d="M0 0v206.7h608.7V0H0zm201 201H5.6V5.6H201V201zm357.2-100.5V56.2h44.6v44.3h-44.6zm-5.7 0h-44.3V56.2h44.3v44.3zm-44.3 6h44.3v44.6h-44.3v-44.6zm50 0h44.6v44.6h-44.6v-44.6zm44.6-55.9h-44.6v-45h44.6v45zm-50.3 0h-44.3v-45h44.3v45zm-50.2 0h-44.6v-45h44.6v45zm0 5.6v44.3h-44.6V56.2h44.6zM452 100.5h-44.3V56.2H452v44.3zm0 6v44.6h-44.3v-44.6H452zm5.6 0h44.6v44.6h-44.6v-44.6zm44.7 50.2V201h-44.6v-44.3h44.6zm5.9 0h44.3V201h-44.3v-44.3zm50 0h44.6V201h-44.6v-44.3zM452 5.6v44.9h-44.3V5.6H452zm-49.9 94.9h-94.9V5.6h94.9v94.9zM301.6 5.6v94.9h-94.9V5.6h94.9zm-94.9 100.5h94.9V201h-94.9v-94.9zM307.2 201v-94.9h94.9V201h-94.9zm100.5-44.3H452V201h-44.3v-44.3z"></path></svg>