<svg xmlns="http://www.w3.org/2000/svg" width="624" viewBox="0 0 624 623.7" height="623.7" xml:space="preserve" style="enable-background:new 0 0 624 623.7"><path d="M302.4 0H0v311.7c0 171.8 140.2 312 311.7 312H624V320.6l-202 .2c-65.7-.2-119.5-53.6-119.5-119.5V0h-.1"></path><path d="M412.9 0h-91.8v201.5c0 55.4 45.4 100.4 100.9 100.7h202v-91.9H495.8c-45.7-.2-82.9-37.1-82.9-82.6V0m18.6 0v127.9c0 35.2 28.9 63.6 64.1 63.9H624v-81.3h-60.9c-26.8 0-48.4-22-48.8-49.3V0h-82.8zm101.4 0v61.1c.2 17 13.6 30.7 30 30.7H624V0h-91.3"></path></svg>