<svg data-name="Layer 1" xmlns="http://www.w3.org/2000/svg" viewBox="0 0 610.67 610.67"><path d="M0 180.78h180.77V0H0v180.78Zm16.28-164.5h148.21V164.5H16.28V16.28ZM0 610.67h180.77V429.9H0v180.77Zm16.28-164.49h148.21v148.21H16.28V446.18ZM0 395.73h180.77V214.95H0v180.78Zm16.28-164.5h148.21v148.22H16.28V231.23ZM214.95 395.73h180.77V214.95H214.95v180.78Zm16.28-164.5h148.21v148.22H231.23V231.23ZM429.89 0v180.78h180.78V0H429.89Zm164.5 164.5H446.17V16.28h148.22V164.5ZM429.89 610.67h180.78V429.9H429.89v180.77Zm16.28-164.49h148.22v148.21H446.17V446.18ZM429.89 395.73h180.78V214.95H429.89v180.78Zm16.28-164.5h148.22v148.22H446.17V231.23Z"></path></svg>