<svg data-name="Layer 1" xmlns="http://www.w3.org/2000/svg" viewBox="0 0 629.35 605.55"><path d="M339.03 10.09c-13.46-13.46-35.27-13.46-48.73 0L156.93 144.76H473.7L339.03 10.09ZM317.05 300.41h312.3L473.87 144.93l-21.23 21.05-331.71 15.56-9.28 9.49h315.72l-21.56 21.38-330.3 15.54-9.14 9.35H380.7l-23.84 23.15-325.39 12.52-9.25 9.45h312.49l-17.66 17.99zM290.32 595.45c13.46 13.46 35.27 13.46 48.73 0l133.38-134.67H155.65l134.67 134.67ZM312.3 305.14H0l155.48 155.48 21.23-21.05 331.71-15.56 9.29-9.49H201.98l21.57-21.39 330.29-15.54 9.15-9.35H248.65l23.84-23.15 325.4-12.51 9.25-9.45h-312.5l17.66-17.99z"></path></svg>