<svg xmlns="http://www.w3.org/2000/svg" width="603.5" viewBox="0 0 603.5 642" height="642" style="overflow:visible;enable-background:new 0 0 603.5 642" xml:space="preserve"><path class="st0" d="M603.5 318.7v119.4c-80.1-45.6-179.8-43.7-258.1 6.2C240.4 511.2 101 506.8.1 424.8v-126c88.6 98.4 236.1 109 336 33.2 79.7-56.4 184.4-60.3 267.4-13.3z"></path><circle cx="186.2" cy="245.4" r="115.6"></circle><path class="st0" d="M603.5 470.2V579c-83.5-47.3-187.6-42.9-267.3 13.2-30.1 21.4-60.6 37.2-102 45.2C148.9 653.9 60 625.6 0 559V456.8c98.8 80.3 237.9 88 345.3 19.5 76.8-48.7 176.5-52.6 258.2-6.1zM603.5 52.6v119.5c-82.8 46.9-189.6 44.6-273.3-17.5C226.8 81.8 84.9 97.8 0 192.1V66c99.1-80.6 238.8-87.8 345.3-19.5 77.2 49.5 177 52.5 258.2 6.1z"></path></svg>