<svg xmlns="http://www.w3.org/2000/svg" width="611.4" viewBox="0 0 611.4 611.9" height="611.9" xml:space="preserve"><path d="M234.3 318.4c-20.8 0-37.8-16.9-37.8-37.8 0-20.8 16.9-37.8 37.8-37.8 20.8 0 37.8 16.9 37.8 37.8 0 20.8-17 37.8-37.8 37.8zM316.5 318.4c-20.8 0-37.8-16.9-37.8-37.8 0-20.8 16.9-37.8 37.8-37.8 20.8 0 37.8 16.9 37.8 37.8-.1 20.8-17 37.8-37.8 37.8zM398.6 318.4c-20.8 0-37.8-16.9-37.8-37.8 0-20.8 16.9-37.8 37.8-37.8 20.8 0 37.8 16.9 37.8 37.8 0 20.8-16.9 37.8-37.8 37.8zM358.4 245.8c-22.5 0-40.8-18.3-40.8-40.8 0-22.5 18.3-40.8 40.8-40.8 22.5 0 40.8 18.3 40.8 40.8.1 22.5-18.3 40.8-40.8 40.8z"></path><path d="M480.8 327.3c-17.7 0-33.2-9.9-41.1-24.5-7.9 14.6-23.4 24.5-41.1 24.5-17.7 0-33.2-9.9-41.1-24.5-7.9 14.6-23.4 24.5-41.1 24.5-17.7 0-33.2-9.9-41.1-24.5-7.9 14.6-23.3 24.5-41.1 24.5-15 0-28.3-7.1-36.9-18.2v78.3h322.9v-82.1c-8.1 13.2-22.7 22-39.4 22z"></path><path d="M480.8 318.4c-20.8 0-37.8-16.9-37.8-37.8 0-20.8 16.9-37.8 37.8-37.8 20.8 0 37.8 16.9 37.8 37.8 0 20.8-17 37.8-37.8 37.8z"></path><path d="M572.8 325.4c-10 112.3-102.6 197-215.5 197-119.3 0-216.4-97.1-216.4-216.4s97-216.5 216.4-216.5c112.9 0 205.5 84.7 215.5 197l.1 1.2h38.5l-.1-1.4C601.1 125.8 467 0 306 0 137.3 0 0 137.3 0 306s137.3 306 306 306c161 0 295.2-125.8 305.3-286.3l.1-1.4h-38.5l-.1 1.1z"></path></svg>