<svg xmlns="http://www.w3.org/2000/svg" width="607" viewBox="0 0 607 542.5" height="542.5"><path d="M269.6 134.5l-67.3 67.3v67.3l67.3-67.3h135v-67.3z"></path><path d="M471.9 201.8H607v-67.3H471.9l-67.3 67.3v67.3zM67.3 134.5L0 201.8v67.3l67.3-67.3h135v-67.3zM404.6 67.3V0h-135l-67.3 67.3v67.2l67.3-67.2z"></path><path d="M471.9 67.3H607V0H471.9l-67.3 67.3v67.2zM67.3 0L0 67.3v67.2l67.3-67.2h135V0zM202.3 475.2v67.3l67.3-67.3h135v-67.3h-135z"></path><path d="M471.9 475.2H607v-67.3H471.9l-67.3 67.3v67.3zM67.3 407.9L0 475.2v67.3l67.3-67.3h135v-67.3zM404.6 340.7v-67.3h-135l-67.3 67.3v67.2l67.3-67.2zM404.6 340.7v67.2l67.3-67.2H607v-67.3H471.9zM67.3 273.4L0 340.7v67.2l67.3-67.2h135v-67.3z"></path></svg>