<svg data-name="Layer 1" xmlns="http://www.w3.org/2000/svg" viewBox="0 0 593.19 590.91"><path d="M560.84 339.21c17.86 0 32.34-14.48 32.34-32.34s-14.48-32.34-32.34-32.34H352V432.9h86.72l-142.13 80.61-142.13-80.61h86.72V274.53H169.6c-57.85 0-104.92-47.06-104.92-104.92S111.74 64.69 169.6 64.69h391.24c17.86 0 32.34-14.48 32.34-32.34S578.7 0 560.84 0H169.6C76.08 0 0 76.08 0 169.61s76.08 169.6 169.6 169.6h4.99v27.09H33.49c-15.06 0-28.34 10.14-32.31 24.67-3.97 14.52 2.27 29.99 15.21 37.63l280.2 162.32 280.13-162.28c12.97-7.66 19.25-23.15 15.28-37.67-3.97-14.52-17.25-24.67-32.31-24.67h-141.1v-27.09h142.24Z"></path><path d="M169.6 156.37h391.24c17.86 0 32.34-14.48 32.34-32.34s-14.48-32.34-32.34-32.34H169.6c-42.24 0-77.92 35.68-77.92 77.92s35.68 77.92 77.92 77.92h391.24c17.86 0 32.34-14.48 32.34-32.34s-14.48-32.34-32.34-32.34H169.6c-6.8 0-13.23-6.43-13.23-13.23s6.43-13.23 13.23-13.23Z"></path></svg>