<svg xmlns="http://www.w3.org/2000/svg" width="473.3" viewBox="0 0 473.3 605" height="605" xml:space="preserve"><path d="M236.6 104.2c-20.6 0-37.4 16.7-37.4 37.4 0 20.6 16.7 37.4 37.4 37.4 20.6 0 37.4-16.7 37.4-37.4 0-20.6-16.7-37.4-37.4-37.4"></path><path d="M406.1 537v-78.6c0-59-28.1-106-83.3-130.8-62.3-28.1-140.9-17.9-186.7 34.7V265h268.4v-96.1C404.5 76 330.9 0 238 0S69.1 76 69.1 168.9V197H0v68h68v340h69.7V486.6c0-58.7 45.8-101.9 101.9-101.9s98 27.4 99.5 101.9V605h134.3v-68h-67.3zm-270-366.9c0-56 45.9-101.9 101.9-101.9s99.5 45.9 99.5 101.9V197H136.1v-26.9z"></path></svg>