<svg data-name="Layer 1" xmlns="http://www.w3.org/2000/svg" viewBox="0 0 619.43 616.73"><path d="M151.37 302.68c83.22 0 151.31-68.09 151.31-151.31V91.35h-78.34V.07H78.4v91.28H.06v60.02c0 83.22 68.09 151.31 151.31 151.31ZM619.43 0H473.68v152.73h7.07c18.69 0 33.98 15.29 33.98 33.98s-15.29 33.98-33.98 33.98h-7.07v82.05h145.75V0ZM323.76 220.69h-7.07v82.05h145.75V0H316.69v152.73h7.07c18.69 0 33.98 15.29 33.98 33.98s-15.29 33.98-33.98 33.98ZM468.06 616.66c83.22 0 151.31-68.09 151.31-151.31v-60.02h-78.34v-91.28H395.1v91.28h-78.34v60.02c0 83.22 68.09 151.31 151.31 151.31ZM302.74 313.99H156.99v152.73h7.07c18.69 0 33.98 15.29 33.98 33.98s-15.29 33.98-33.98 33.98h-7.07v82.05h145.75V313.99ZM7.07 534.68H0v82.05h145.75V313.99H0v152.73h7.07c18.69 0 33.98 15.29 33.98 33.98s-15.29 33.98-33.98 33.98Z"></path></svg>