<svg data-name="Layer 1" xmlns="http://www.w3.org/2000/svg" viewBox="0 0 621 622.11"><path d="M494.11 454.28h-43.17V334.81H333.41v-43.17h117.53V172.18h43.17v119.46H621l-.76-8.6c-6.88-77.06-42.15-148.45-99.31-201.01C463.43 29.13 388.69 0 310.5 0S157.58 29.13 100.07 82.02C42.92 134.59 7.65 205.98.76 283.04l-.76 8.6h247.27v43.17H.23l.91 8.71c16.47 158.83 149.47 278.59 309.37 278.59s292.88-119.77 309.36-278.59l.91-8.71H494.12v119.47ZM509.9 350.6h93.23C583.62 497 459.33 606.32 310.5 606.32S37.37 497 17.87 350.6h245.19v-74.75H17.38C34.94 126.98 159.46 15.79 310.5 15.79s275.56 111.19 293.12 260.06h-93.73V156.39h-74.75v119.46H317.61v74.75h117.53v119.47h74.75V350.6Z"></path></svg>