<svg data-name="Layer 1" xmlns="http://www.w3.org/2000/svg" viewBox="0 0 596.39 600.63"><path d="m395.89 0-97.7 97.7L200.5 0 0 200.5v199.62l200.5 200.51 97.7-97.7 97.7 97.7 200.5-200.51V200.5L395.89 0Zm-5.1 19.54V200.5L205.6 385.68V204.73L390.79 19.54Zm-195.4 561.54L10.21 395.89V214.94l185.18 185.18v180.95Zm0-380.58v185.18L12.33 202.62 200.5 14.44l90.48 90.48-95.58 95.58Zm10.21 380.58V400.13l185.19-185.18V395.9L205.6 581.09Zm190.29 5.1-90.48-90.48 95.58-95.58V214.94l183.07 183.07-188.17 188.17Zm190.29-200.5L400.99 200.5V19.54l185.19 185.19v180.95Z"></path></svg>