<svg xmlns="http://www.w3.org/2000/svg" width="590.6" viewBox="0 0 590.6 590.6" height="590.6" xml:space="preserve"><path d="M0 0v590.6h590.6V0H0zm254.7 209.4c12 65.6 65.1 117 131.5 126.5H254.7V209.4zm307.2-41.5H410.7v28.6h124.5c-7.6 63.1-62 112.5-126.9 112.5-70.5 0-127.8-57.3-127.8-127.8S337.8 53.4 408.3 53.4c57.9 0 109 39.7 123.6 95.2h29.2l-.2-.9c-13.1-60-61.1-106.2-119.6-119h120.6v139.2zm0 41.6v126.3H430.7c32.8-4.7 63.2-19.6 87.2-43.3 23.2-22.7 38.3-51.6 44-83zM375.1 28.7C313.9 42 266 91.2 254.7 153.1V28.7h120.4zm186.8 533.2H28.6V28.7h108.2v425h425v108.2zm0-136.9H165.6V28.7H226v335.9h335.9V425z"></path></svg>