<svg data-name="Layer 1" xmlns="http://www.w3.org/2000/svg" viewBox="0 0 444.15 613.27"><path d="M443.26 378.01C429.29 241.64 267.9 173.66 158.08 253.19c-89.24 63.13-108.83 205.35-3.19 262.51 41.59 22.51 92.66 22.21 134.48.32 43.94-23 76.22-73.71 73.88-123.91-1.8-38.54-25.12-71.63-61.05-85.87-39.52-16.72-88.46-3.79-115.16 29.55-14.31 18.29-37.51 65.93-8.49 80.15 8.25 3.75 16.29 2.26 22.93-3.37 5.65-4.78 7.93-11.65 8.08-19.19.53-25.84 19.68-45.77 43.72-50.59 17.37-3.48 34.87.71 48.49 12.26 42.48 36 5.97 103.86-33.87 124.43-9.28 4.79-19.36 8.01-29.72 9.34-46.06 7.9-93.57-20.46-107.58-65.21-19.76-55.59 14.46-118.24 63.64-145.78 66.81-38.74 157.33-14.11 193.79 54.38 45.22 85.34-11.81 198.23-99.54 228.92-103.95 40.93-228.16-26.42-245.71-137.79-7.65-42.9 5.82-85.42 26.81-123.81l107.6-178.06c-.01.13-.06 76.4-.09 76.51-.06 28.23 37.15 39.11 52.48 15.89l91.26-144.65C358.3 56.01 349.59.59 309.36.01c-26.11-.69-44.06 29.31-31.53 51.97l-54.77 89.55V64.8C251.35 45.51 237.58-.08 202.82.01c-25.6-.63-43.59 28.22-32.06 50.87-14.79 24.26-102.84 168.4-112.04 183.4C26.78 283.7-2.19 338.49.13 398.99c.94 134.37 126.12 231.55 256.58 211.71 110.87-15.16 197.24-120.65 186.55-232.68Z"></path></svg>