<svg data-name="Layer 1" xmlns="http://www.w3.org/2000/svg" viewBox="0 0 623.28 623.31"><path d="M612.39 394.56h-.25s0 .02-.01.03l.26-.03ZM623.28 316.69h-.04v.01l.04-.01zM311.65 0C193.18 0 90.15 66.11 37.43 163.44h548.44C533.15 66.11 430.12 0 311.65 0ZM33.25 171.48a309.37 309.37 0 0 0-29.88 94.29l611.28-26.94-581.4-67.35ZM623.24 316.69 2.72 270.4C.93 283.9 0 297.66 0 311.65c0 17.45 1.46 34.55 4.21 51.22l619.03-46.18ZM311.65 623.31c114.33 0 214.26-61.58 268.49-153.36H43.16c54.23 91.79 154.16 153.36 268.49 153.36Z"></path><path d="M612.14 394.54 5.04 367.7a309.507 309.507 0 0 0 33.19 93.61l573.9-66.72s0-.03.01-.04Z"></path></svg>