<svg xmlns="http://www.w3.org/2000/svg" id="a" width="635.69" viewBox="0 0 635.69 642" height="642" data-name="Layer 1"><defs></defs><circle cx="317.85" cy="186.42" r="32.66" class="b"></circle><circle cx="245.09" cy="207.78" r="32.66" class="b"></circle><circle cx="195.43" cy="265.09" r="32.66" class="b"></circle><circle cx="184.64" cy="340.15" r="32.66" class="b"></circle><circle cx="216.14" cy="409.13" r="32.66" class="b"></circle><circle cx="279.93" cy="450.13" r="32.66" class="b"></circle><circle cx="355.76" cy="450.13" r="32.66" class="b"></circle><circle cx="419.56" cy="409.13" r="32.66" class="b"></circle><circle cx="451.06" cy="340.15" r="32.66" class="b"></circle><circle cx="440.26" cy="265.09" r="32.66" class="b"></circle><circle cx="390.61" cy="207.78" r="32.66" class="b"></circle><circle cx="317.85" cy="11.23" r="11.23" class="b"></circle><circle cx="317.85" cy="53.77" r="15.25" class="b"></circle><circle cx="317.85" cy="111.39" r="21.11" class="b"></circle><circle cx="230.58" cy="23.78" r="11.23" class="b"></circle><circle cx="242.56" cy="64.59" r="15.25" class="b"></circle><circle cx="258.79" cy="119.88" r="21.11" class="b"></circle><circle cx="150.38" cy="60.41" r="11.23" class="b"></circle><circle cx="173.37" cy="96.19" r="15.25" class="b"></circle><circle cx="204.52" cy="144.66" r="21.11" class="b"></circle><circle cx="83.74" cy="118.15" r="11.23" class="b"></circle><circle cx="115.89" cy="146" r="15.25" class="b"></circle><circle cx="159.43" cy="183.73" r="21.11" class="b"></circle><circle cx="36.08" cy="192.32" r="11.23" class="b"></circle><circle cx="74.76" cy="209.99" r="15.25" class="b"></circle><circle cx="127.18" cy="233.92" r="21.11" class="b"></circle><circle cx="11.24" cy="276.92" r="11.23" class="b"></circle><circle cx="53.34" cy="282.97" r="15.25" class="b"></circle><circle cx="110.37" cy="291.17" r="21.11" class="b"></circle><circle cx="11.24" cy="365.08" r="11.23" class="b"></circle><circle cx="53.34" cy="359.03" r="15.25" class="b"></circle><circle cx="110.37" cy="350.83" r="21.11" class="b"></circle><circle cx="36.08" cy="449.68" r="11.23" class="b"></circle><circle cx="74.76" cy="432.01" r="15.25" class="b"></circle><circle cx="127.18" cy="408.08" r="21.11" class="b"></circle><circle cx="83.74" cy="523.85" r="11.23" class="b"></circle><circle cx="115.89" cy="496" r="15.25" class="b"></circle><circle cx="159.43" cy="458.27" r="21.11" class="b"></circle><circle cx="150.38" cy="581.59" r="11.23" class="b"></circle><circle cx="173.37" cy="545.81" r="15.25" class="b"></circle><circle cx="204.52" cy="497.34" r="21.11" class="b"></circle><circle cx="230.58" cy="618.22" r="11.23" class="b"></circle><circle cx="242.56" cy="577.41" r="15.25" class="b"></circle><circle cx="258.79" cy="522.12" r="21.11" class="b"></circle><circle cx="317.85" cy="630.77" r="11.23" class="b"></circle><circle cx="317.85" cy="588.23" r="15.25" class="b"></circle><circle cx="317.85" cy="530.61" r="21.11" class="b"></circle><circle cx="405.12" cy="618.22" r="11.23" class="b"></circle><circle cx="393.14" cy="577.41" r="15.25" class="b"></circle><circle cx="376.9" cy="522.12" r="21.11" class="b"></circle><circle cx="485.32" cy="581.59" r="11.23" class="b"></circle><circle cx="462.32" cy="545.81" r="15.25" class="b"></circle><circle cx="431.17" cy="497.34" r="21.11" class="b"></circle><circle cx="551.95" cy="523.85" r="11.23" class="b"></circle><circle cx="519.81" cy="496" r="15.25" class="b"></circle><circle cx="476.26" cy="458.27" r="21.11" class="b"></circle><circle cx="599.62" cy="449.68" r="11.23" class="b"></circle><circle cx="560.93" cy="432.01" r="15.25" class="b"></circle><circle cx="508.52" cy="408.08" r="21.11" class="b"></circle><circle cx="624.46" cy="365.08" r="11.23" class="b"></circle><circle cx="582.36" cy="359.03" r="15.25" class="b"></circle><circle cx="525.33" cy="350.83" r="21.11" class="b"></circle><circle cx="624.46" cy="276.92" r="11.23" class="b"></circle><circle cx="582.36" cy="282.97" r="15.25" class="b"></circle><circle cx="525.33" cy="291.17" r="21.11" class="b"></circle><circle cx="599.62" cy="192.32" r="11.23" class="b"></circle><circle cx="560.93" cy="209.99" r="15.25" class="b"></circle><circle cx="508.52" cy="233.92" r="21.11" class="b"></circle><circle cx="551.95" cy="118.15" r="11.23" class="b"></circle><circle cx="519.81" cy="146" r="15.25" class="b"></circle><circle cx="476.26" cy="183.73" r="21.11" class="b"></circle><circle cx="485.32" cy="60.41" r="11.23" class="b"></circle><circle cx="462.32" cy="96.19" r="15.25" class="b"></circle><circle cx="431.17" cy="144.66" r="21.11" class="b"></circle><circle cx="405.12" cy="23.78" r="11.23" class="b"></circle><circle cx="393.14" cy="64.59" r="15.25" class="b"></circle><circle cx="376.9" cy="119.88" r="21.11" class="b"></circle></svg>