<svg data-name="Layer 1" xmlns="http://www.w3.org/2000/svg" viewBox="0 0 619.26 619.26"><path d="M309.63 0C138.9 0 0 138.9 0 309.63s138.9 309.63 309.63 309.63 309.63-138.9 309.63-309.63S480.36 0 309.63 0ZM60.26 309.63c0-137.09 111.19-248.69 248.12-249.37L114.95 465.3c-35.3-44.07-54.69-99.21-54.69-155.67ZM309.63 559c-54.15 0-105.63-17.13-148.99-49.56l148.99-311.98 148.99 311.99c-43.36 32.43-94.84 49.56-148.99 49.56Zm194.68-93.7L310.89 60.26c136.93.68 248.12 112.29 248.12 249.37 0 56.45-19.4 111.6-54.7 155.67Z"></path><circle cx="309.63" cy="357" r="49.75" transform="rotate(-67.5 309.63299425 357.00712661)"></circle></svg>