<svg xmlns="http://www.w3.org/2000/svg" width="623.4" viewBox="0 0 623.4 623.4" height="623.4" xml:space="preserve" style="enable-background:new 0 0 623.4 623.4"><path d="m91.5 533.4 297.8-210.8c57.5-40.7 70.8-120.1 29.6-176.9l-1-1.4C376.8 87.4 296.5 74.3 239 115l-2.6 1.9.2 35.5 19.5-13.8c44.4-31.4 106.3-21.3 138 22.6l1 1.4c31.8 43.9 21.5 105.1-22.9 136.5L71.7 511.8c6.3 7.5 12.9 14.7 19.8 21.6z"></path><path d="m493.9 92.5-1-1.4C433.8 9.4 327.5-20.2 236 14l.1 31.3c81.1-35.6 179.3-11.3 233 62.8l1 1.4c61.4 84.8 41.6 203.1-44.2 263.8L142.3 574c9.1 5.8 18.4 11.1 27.9 15.9L443 396.7c98.8-70 121.7-206.4 50.9-304.2z"></path><path d="M596.4 189.4c10.4 97.2-30.8 197.1-116.7 257.9L242 615.6c84 19 175.5 3.7 251.1-49.8C615.7 479 655.7 320.5 596.4 189.4zM335.6 248.3c16.1-11.4 19.8-33.7 8.3-49.6l-1-1.4c-11.5-15.9-34-19.6-50.2-8.2l-55.8 39.5.4 86.1-70.3.3-1.1-272.4c-12.2 6.4-24.1 13.7-35.6 21.8C1.6 155.6-36 325.6 36.6 460.1l299-211.8z"></path></svg>