<svg data-name="Layer 1" xmlns="http://www.w3.org/2000/svg" viewBox="0 0 596.77 400.57"><path d="M595.62 390.85 322.89 9.03C318.79 3.29 312.4 0 305.35 0s-13.44 3.29-17.54 9.03L86.84 290.38c-6.77 9.47-17.75 15.13-29.4 15.13h-9.91C21.32 305.51 0 326.83 0 353.04s21.32 47.53 47.53 47.53h187.35c3.39 0 6.15-2.75 6.15-6.15s-2.75-6.15-6.15-6.15h-27.45c-19.43 0-35.24-15.81-35.24-35.24S188 317.8 207.43 317.8h10.21c15.26 0 29.8-7.32 38.89-19.57l44.57-60.08a5.04 5.04 0 0 1 4.09-2.06h.05c1.65.01 3.14.79 4.1 2.13l114.13 159.77a6.142 6.142 0 0 0 5 2.58c1.24 0 2.48-.37 3.57-1.15a6.148 6.148 0 0 0 1.43-8.57L319.34 231.08c-3.27-4.58-8.37-7.23-13.99-7.28h-.16c-5.56 0-10.64 2.55-13.95 7.02l-44.57 60.08c-6.78 9.14-17.63 14.6-29.01 14.6h-10.21c-26.21 0-47.53 21.32-47.53 47.53 0 13.98 6.11 26.53 15.75 35.24H127.5c-19.43 0-35.23-15.81-35.23-35.24s15.8-35.23 35.23-35.23h11.05c15.61 0 30.33-7.58 39.4-20.28L300.26 126.3c2.39-3.35 7.84-3.35 10.24 0l194.06 271.69a6.142 6.142 0 0 0 5 2.58c1.24 0 2.48-.37 3.57-1.15a6.148 6.148 0 0 0 1.43-8.57L320.47 119.16c-3.48-4.87-9.13-7.78-15.12-7.78s-11.64 2.91-15.12 7.78L167.92 290.38c-6.76 9.47-17.75 15.13-29.4 15.13h-11.05c-26.21 0-47.53 21.32-47.53 47.53 0 13.98 6.1 26.53 15.75 35.24H47.53c-19.43 0-35.24-15.81-35.24-35.24s15.81-35.23 35.24-35.23h9.91c15.6 0 30.33-7.58 39.4-20.28L297.81 16.17c1.76-2.47 4.51-3.88 7.54-3.88s5.78 1.41 7.54 3.88l272.73 381.82a6.142 6.142 0 0 0 5 2.58c1.24 0 2.48-.37 3.57-1.15a6.148 6.148 0 0 0 1.43-8.57Z"></path></svg>