<svg data-name="Layer 1" xmlns="http://www.w3.org/2000/svg" viewBox="0 0 599.4 599.4"><path d="M299.7 0C134.44 0 0 134.44 0 299.7s134.44 299.7 299.7 299.7 299.7-134.44 299.7-299.7S464.96 0 299.7 0ZM10.66 299.7c0-127.23 82.67-235.44 197.08-273.95v144.2l27.98-43.87c8.53-13.38 26.29-17.3 39.67-8.77 13.38 8.53 17.31 26.29 8.78 39.67l-76.42 119.83v156.98l25.13-39.41c8.53-13.37 26.29-17.3 39.67-8.78 13.38 8.53 17.31 26.29 8.77 39.67l-58.45 91.65 76.61 71.82C140.21 588.62 10.66 459.01 10.66 299.7Zm289.39 289.03 73.55-68.04c-1.59.27-3.19.45-4.8.45-5.29 0-10.63-1.46-15.42-4.51-13.38-8.53-17.31-26.29-8.78-39.67l48.41-75.91V246.06l-23.67 37.12c-5.48 8.59-14.76 13.28-24.25 13.28-5.29 0-10.63-1.46-15.42-4.51-13.38-8.53-17.31-26.29-8.77-39.67l72.11-113.08V26.21C506.72 65.12 588.73 172.98 588.73 299.7c0 159.26-129.47 288.84-288.69 289.03Z"></path></svg>