<svg xmlns="http://www.w3.org/2000/svg" width="541.5" viewBox="0 0 541.5 619.6" height="619.6" xml:space="preserve"><path d="M0 0v619.6h541.5V0H0zm32.6 113.3c24.3-14 49.7-25.7 75.9-35.1-20 30.5-31.3 66.8-31.3 104.8 0 68.1 35.8 128 89.6 161.9-47-10.3-92.3-27.7-134.2-51.8V113.3zm394.5 69.8c0 87.5-71.2 158.6-158.6 158.6s-158.6-71.2-158.6-158.6c0-47.7 21.3-91.9 56.7-121.5 33.3-7.3 67.5-11.1 102-11.1s68.6 3.7 101.8 11c35.1 29.6 56.7 73.9 56.7 121.6zm32.6 0c0-37.6-10.8-73.7-31.3-104.9 27.9 10 54.9 22.6 80.6 37.8v174.4c-43.2 25.5-90.1 43.9-138.9 54.6 53.7-33.9 89.6-93.8 89.6-161.9zm49.2-104.5c-37.6-20.3-77.6-35.8-118.9-46h118.9v46zm-362-46c-39.6 9.8-78 24.4-114.3 43.5V32.6h114.3zM32.6 587V330.3c72.4 38.2 153.3 58.2 235.8 58.2 84.4 0 166.9-20.9 240.5-60.7V587H32.6z"></path></svg>