<svg xmlns="http://www.w3.org/2000/svg" width="619.4" viewBox="0 0 619.4 617.6" height="617.6" xml:space="preserve" style="enable-background:new 0 0 619.4 617.6"><path d="M0 0v45.3h411.3V17.9h208.1V0zM0 63.7V109h411.3V81.6h208.1v-18H0zM0 127.5v45.3h411.3v-27.6h208.1v-18H0zM0 191.2v45.3h207.5v-27.7h411.9v-17.9H0zM0 445.4v45.4h411.3v-27.5h208.1v-17.9H0zM0 508.8v45h411.3v-26.9h208.1v-18.1zM0 572.5v45.1h411.3v-27.1h208.1v-18zM0 254.3V299.6h207.5v-27.2h411.9v-17.9zM0 318V363.3h207.5V336h411.9v-17.9zM0 381.7V427h207.5v-27.3h411.9v-18z"></path></svg>