<svg xmlns="http://www.w3.org/2000/svg" width="627.1" viewBox="0 0 627.1 533.7" height="533.7" xml:space="preserve" style="enable-background:new 0 0 627.1 533.7"><path d="M478.3 533.7H148.9c-40 0-72.5-32.7-72.5-72.9 0-19.8 8.2-39 22.4-52.7l131.6-131.3 1.2-.8c1.3-1.1 8-7.4 8.7-14.7.6-7.2-5-15.3-9.9-20.8L79.5 66c-1.2-1.1-3.4-2.7-6.7-2.7-5.3 0-9.6 4.3-9.6 9.6v460.7H0V73C0 32.7 32.7 0 72.9 0c20 0 39.4 8.4 53.1 23l.8.9 151.3 174.9c23.9 27.3 26.8 52.8 25 69.4-3.3 30.7-24 50.4-31.3 56.6L142.7 453.7c-1.1 1.1-3 3.4-3 7.1 0 5.3 4.1 9.6 9.2 9.6h329.4c5.1 0 9.2-4.3 9.2-9.6 0-3.7-1.9-6-3-7.1l-.6-.6-128.6-128.3c-7.4-6.1-28-25.9-31.3-56.6-1.8-16.6 1.2-42.1 25.2-69.5L500.7 23.5l.4-.5c13.7-14.6 33.1-23 53.1-23 40.2 0 72.9 32.7 72.9 73v460.3h-63.3V73c0-5.3-4.3-9.6-9.6-9.6-3.3 0-5.5 1.6-6.7 2.7L396.9 240.3c-5 5.8-10.8 14-10 21.2.8 7.7 8.4 14.3 8.4 14.3l1.8 1.4 131.2 130.9c14.2 13.7 22.4 32.9 22.4 52.7.1 40.2-32.5 72.9-72.4 72.9z"></path></svg>