<svg data-name="Layer 1" xmlns="http://www.w3.org/2000/svg" viewBox="0 0 621.7 622.6"><path d="M310.85 0c-38.38 0-75.12 6.96-109.06 19.68h218.12C385.97 6.96 349.22 0 310.85 0ZM460.7 38.68H161a311.275 311.275 0 0 0-29.9 18.77h359.5c-9.58-6.8-19.56-13.07-29.9-18.77ZM514.49 76.22H107.21A316.318 316.318 0 0 0 87.4 94.99h446.89c-6.33-6.54-12.93-12.8-19.81-18.77ZM551.04 113.76H70.65a314.3 314.3 0 0 0-14.28 18.77h508.95a314.3 314.3 0 0 0-14.28-18.77ZM577.53 151.3H44.16c-3.68 6.12-7.15 12.38-10.41 18.77h554.19c-3.26-6.39-6.73-12.65-10.41-18.77ZM596.73 188.84H24.96c-2.64 6.16-5.08 12.42-7.33 18.77h586.43c-2.24-6.35-4.69-12.61-7.33-18.77ZM621.54 301.46H400.01l-3.15-3.99h-67.63c2.78 3.78 4.42 8.44 4.42 13.5s-1.72 9.93-4.62 13.75h67.73l3.2-4.49h221.58c.09-3.04.14-6.09.14-9.15 0-3.22-.05-6.43-.15-9.62ZM224.92 324.72h67.73c-2.9-3.82-4.62-8.59-4.62-13.75s1.65-9.72 4.42-13.5h-67.62l-3.12 3.99H.15c-.1 3.2-.15 6.4-.15 9.62s.05 6.11.14 9.15h221.57l3.2 4.49ZM24.76 432.85h572.18c2.62-6.16 5.06-12.42 7.29-18.77H17.47c2.23 6.35 4.66 12.61 7.29 18.77ZM43.88 470.39h533.94c3.66-6.12 7.12-12.38 10.36-18.77H33.51c3.24 6.39 6.7 12.65 10.36 18.77ZM70.26 507.93h481.17a313.51 313.51 0 0 0 14.23-18.77H56.04c4.51 6.44 9.25 12.7 14.23 18.77ZM106.67 545.47h408.36a309.38 309.38 0 0 0 19.72-18.77H86.94c6.3 6.54 12.88 12.8 19.72 18.77ZM160.13 583.01h301.44a312.205 312.205 0 0 0 29.7-18.77H130.43c9.52 6.79 19.43 13.06 29.7 18.77ZM392.97 335.02H228.73L225.6 339H1.24c.56 6.31 1.32 12.57 2.25 18.77H233.4l3.21 4.49h148.47l3.21-4.49h229.92c.93-6.2 1.69-12.46 2.25-18.77H396.1l-3.13-3.98ZM376.6 376.54l-3.11-3.98H248.2l-3.11 3.98H6.91c1.36 6.33 2.91 12.59 4.64 18.77h598.6c1.74-6.18 3.29-12.44 4.64-18.77H376.61ZM228.81 287.17h164.08l3.2-4.48h224.33c-.57-6.31-1.33-12.57-2.27-18.77H388.3l-3.13-4H237.08l-3.24 4H3.56c-.94 6.2-1.7 12.46-2.27 18.77h224.32l3.2 4.48ZM249.62 249.63h122.45l3.97-4.47h238.65c-1.37-6.33-2.93-12.59-4.67-18.77H11.68a300.81 300.81 0 0 0-4.67 18.77h238.65l3.97 4.47ZM308.41 622.6c38.38 0 75.12-6.96 109.06-19.68H199.35c33.94 12.72 70.68 19.68 109.06 19.68Z"></path></svg>