<svg id="Layer_1" data-name="Layer 1" xmlns="http://www.w3.org/2000/svg" viewBox="0 0 606.88 542.1">   <path d="M335.83,0H0V72.45H84.94c18.88,0,34.18,15.3,34.18,34.18v112.03c0,9.64,7.81,17.45,17.45,17.45h87.46c9.64,0,17.45-7.81,17.45-17.45V99.18c0-32.2,37.28-50.07,62.38-29.91l207.29,166.49c22.56,18.12,22.56,52.46,0,70.58l-207.29,166.49c-25.1,20.16-62.38,2.29-62.38-29.91v-119.49c0-9.64-7.81-17.45-17.45-17.45h-87.46c-9.64,0-17.45,7.81-17.45,17.45v112.03c0,18.88-15.3,34.18-34.18,34.18H0v72.45H335.83c149.08,0,271.05-121.97,271.05-271.05h0C606.88,121.97,484.9,0,335.83,0Z"></path> </svg>