<svg id="Layer_1" data-name="Layer 1" xmlns="http://www.w3.org/2000/svg" viewBox="0 0 623.89 623.89"><defs></defs><path class="cls-1" d="M311.95 576.54c-34.5 30.35-78.83 47.17-124.78 47.35C83.91 623.62.27 539.98 0 436.72V318.18h124.78v119.66c.09 34.46 28.09 62.32 62.55 62.23 34.46-.09 62.32-28.09 62.23-62.55V318.17h125.4v119.16c-3.06 70.75-33.63 110.18-63.14 139.19h.12ZM623.89 186.23C623.38 83.23 539.73 0 436.72 0c-45.98.27-90.31 17.18-124.78 47.6C277.48 17.16 233.15.25 187.17 0 83.91.27.27 83.91 0 187.17v118.54h124.78V186.17c0-34.46 27.93-62.39 62.39-62.39s62.39 27.93 62.39 62.39v119.54h125.4V186.55c0-34.46 27.93-62.39 62.39-62.39s62.39 27.93 62.39 62.39v119.16h124.15V186.23ZM623.89 318.18v118.23H387.44V318.18h236.45z"></path></svg>