<svg xmlns="http://www.w3.org/2000/svg" width="627.1" viewBox="0 0 627.1 500.5" height="500.5" xml:space="preserve"><path d="M627.1 500.5 313.5 0 0 500.5h209.2V241c0-61.9 46.8-98.4 46.8-98.4s46.8 36.5 46.8 98.4v259.5h21.7V241c0-61.9 46.8-98.4 46.8-98.4s46.8 36.5 46.8 98.4v259.5h209z"></path><path d="M217.9 325.3v41.6l57.8 69-19.8 23-38-44v41.6l38 44 37.5-43.4.5.6V414.4l-58.5-67.9 20.5-23.7 38 44.1v-41.6l-38-44.1zM333.1 325.3v41.6l57.9 69-19.8 23-38.1-44v41.6l38.1 44 37.4-43.4.6.6V414.4l-58.5-67.9 20.5-23.7 38 44.1v-41.6l-38-44.1z"></path></svg>