<svg data-name="Layer 1" xmlns="http://www.w3.org/2000/svg" viewBox="0 0 615.53 530.88"><path d="M417.81 229.14c.62-6.5.94-13.1.94-19.76C418.75 88.71 316.68-8.12 194.16.54 89.99 7.89 6.22 92.98.34 197.26c-5.36 95.25 52.99 177.6 136.33 208.46 12.05 4.46 24.82-4.78 24.82-17.63V152.23c0-16.4 17.65-26.75 31.96-18.73l196.64 110.1c11.74 6.57 26.43-1.06 27.71-14.46Z"></path><path d="M478.86 125.17c-12.05-4.46-24.82 4.78-24.82 17.63v235.85c0 16.4-17.65 26.75-31.96 18.74l-196.64-110.1c-11.74-6.57-26.43 1.06-27.71 14.46-.62 6.5-.94 13.09-.94 19.76 0 120.66 102.07 217.49 224.58 208.84 104.18-7.36 187.95-92.45 193.82-196.72 5.37-95.25-52.98-177.59-136.33-208.46Z"></path></svg>