<svg id="Layer_1" data-name="Layer 1" xmlns="http://www.w3.org/2000/svg" viewBox="0 0 621.93 624.1">   <defs>        </defs>   <path class="cls-1" d="M0,312.05c0,163.12,124.63,296.94,283.5,310.91v-188.33c0-19.85-7.96-38.88-22.11-52.82L80.11,200.17c-13.32-13.44-20.79-31.59-20.79-50.52v-18.42l208.56,209.01c17.02,16.77,26.6,39.66,26.6,63.55v219.99c3.64,.19,7.31,.24,10.99,.3V343.78c-15.79-2.65-27.94-16.42-27.94-32.94V89.71c0-16.51,12.15-30.29,27.94-32.94V0C136.27,2.95,0,141.48,0,312.05Z"></path>   <path class="cls-1" d="M316.45,0V56.77c15.79,2.64,27.94,16.42,27.94,32.94v221.14c0,16.51-12.15,30.29-27.94,32.94v280.31c3.67-.07,7.35-.11,10.99-.3v-219.99c0-23.89,9.58-46.79,26.6-63.55l208.56-209.01v18.42c0,18.92-7.47,37.08-20.79,50.52l-181.28,181.64c-14.15,13.94-22.11,32.96-22.11,52.82v188.33c158.86-13.97,283.5-147.79,283.5-310.91S485.65,2.95,316.45,0Z"></path> </svg>