<svg xmlns="http://www.w3.org/2000/svg" width="488.4" viewBox="0 0 488.4 607.2" height="607.2" xml:space="preserve"><path d="M227.3 150.4v165.5l71.1-165.5h89.7V0h-83.4c-22.5 0-42.4 14.6-49.2 36l-28.2 99.2V0h-83.4c-22.5 0-42.4 14.6-49.2 36l-28.2 99.2v180.7l71.1-165.5h89.7z"></path><path d="M321.7 456.9V291.4l-71.1 165.5h-89.7V291.4L89.7 456.9H0v150.4h83.4c22.5 0 42.4-14.6 49.2-36l28.2-99.2v135.2h83.4c22.5 0 42.4-14.6 49.2-36l28.2-99.2v135.2H405c22.5 0 42.4-14.6 49.2-36l34-114.3H321.7z"></path></svg>