<svg xmlns="http://www.w3.org/2000/svg" width="566.8" viewBox="0 0 566.8 474.4" height="474.4"><path d="M531.5 260.3c-12-11.9-26.8-20-43.1-25.8 16.2-7 29.8-15.1 41.9-26.9 43.9-43.3 46.5-113.5 10.6-160.9-14.1-18.6-34.4-32-56.4-39.5-27.3-9.3-57.2-9-85-1.8-15.2 4-29.9 9.9-43.5 17.9L0 232.1l363.5 223.3c7.8 4.2 16 7.7 24.3 10.5 11.6 3.9 23.5 6 35.6 7.5 45.8 5.6 92.4-14.9 117.5-45.8 37.3-46.1 34.5-124-9.4-167.3zm-194.6 94L140.7 232.1l196.1-113.4v235.6zM406.2 79c2.7-1.9 5.1-3 5.8-3.3 4.9-2.4 10.2-4 15.6-4.8 19.8-2.9 44.4 6.3 55.3 23.6 15.5 24.4 14.4 60.6-4.6 82.9-10.9 12.8-26.8 19.8-43.4 22.3-7.8 1.1-21.5 1.1-28.6-.1-.1 0-.1-120.6-.1-120.6zm76.7 300.8c-11 17.3-35.6 28.3-55.4 25.4-5.4-.8-10.7-2.4-15.6-4.8-.6-.3-3.2-1.5-5.8-3.3-.1 0 0-122.4 0-122.4 14.3-1.9 26.9-.4 28.6-.1 16.6 2.3 32.5 9.5 43.4 22.3 19.2 22.2 20.3 58.5 4.8 82.9z"></path></svg>