<svg version="1.0" xmlns="http://www.w3.org/2000/svg" width="530.7" viewBox="0 0 530.7 623" height="623" xml:space="preserve" style="enable-background:new 0 0 530.7 623"><path d="M503.2 248.3 265.3 0 27.5 248.3C-9.7 287.2-9.1 348.6 29 386.7L265.3 623l236.4-236.4c38-38 38.7-99.4 1.5-138.3zM263.1 408.7l-38-93.1v129.7H195V311.5h-4.4v133.9h-30.2V311.5H156v133.9h-30.2V311.5h-4.4v133.9h-30V186.3h129l42.7 125.2v97.2zm176.2-97.2v133.9h-30.2V311.5h-4.4v133.9h-30.2V311.5h-4.4v133.9h-30.2V311.5h-4.4v133.9h-30.2V315.7l-38 93.1v-97.2L310 186.4h129v125.1z"></path></svg>