<svg xmlns="http://www.w3.org/2000/svg" width="642" viewBox="0 0 642 363" height="363" style="overflow:visible;enable-background:new 0 0 642 363" xml:space="preserve"><path d="M513.4 329.6 490.9 363l-199-295c-1.9-2.8-6.1-2.8-8 0l-199 295H0L231.9 19.1c17.2-25.5 54.8-25.5 72 0l209.5 310.5z"></path><path d="m577.7 234.3-22.5 33.4-135-200c-1.9-2.8-6.1-2.8-8 0L213 363h-84.4l232-343.9c17.2-25.5 54.8-25.5 72 0l145.1 215.2z"></path><path d="m642 139-22.5 33.4-70.6-104.7c-1.9-2.8-6.1-2.8-8 0L341.7 363h-84.4L489.2 19.1c17.2-25.5 54.8-25.5 72 0L642 139z"></path></svg>