<svg xmlns="http://www.w3.org/2000/svg" width="494.3" viewBox="0 0 494.3 642" height="642" style="overflow:visible;enable-background:new 0 0 494.3 642" xml:space="preserve"><path d="M428.5 145.5c1.3 28.2-12.2 53.3-33.4 68.2l-357.2 250c-8.7 6.1-20.7 4-26.8-4.8-6.1-8.7-3.9-20.7 4.8-26.8L373 182c11.2-7.8 18.2-21.2 17-36.1-1.7-21.2-20.5-36.9-41.7-36.9H38.5v226.2l259.3-181.6c8.7-6.1 20.7-4 26.8 4.7 6.1 8.7 4 20.7-4.7 26.8l-289.6 203c-12.8 9-30.3-.2-30.3-15.8V109.1c0-21.3 17.2-38.5 38.5-38.5h308.9c42.4 0 79.1 32.5 81.1 74.9zM494.3 450.5C492 557.6 401.7 642 294.5 642h-256C17.2 642 0 624.8 0 603.5v-69.3c0-6.3 3.1-12.2 8.2-15.8l365.7-256c8.7-6.1 20.7-4 26.8 4.7 6.1 8.7 4 20.7-4.7 26.8L38.5 544.1v59.4h256.3c86.5 0 161-70.7 161-157.3 0-34.5-11.1-66.3-30-92.3L110.1 575c-8.7 6.1-20.7 4-26.8-4.7-6.1-8.7-4-20.7 4.7-26.8l311.3-218 19.2-13.4c8-5.6 19-4.3 25.5 3 4.8 5.3 9.2 10.9 13.4 16.7 24 33.2 37.8 74.3 36.9 118.7zM0 0h423.7v38.5H0z"></path></svg>