<svg data-name="Layer 1" xmlns="http://www.w3.org/2000/svg" viewBox="0 0 542.49 601.65"><path d="M0 0v601.65h31.34c8.82-32.23 23.94-61.82 43.98-87.41V87.41C55.29 61.82 40.16 32.23 31.34 0H0ZM90.53 496.58c15.05-15.91 32.14-29.87 50.91-41.37V146.44c-18.77-11.51-35.86-25.46-50.91-41.37v391.51ZM167.92 441.15c9.11-4.17 18.49-7.83 28.14-10.89V171.39c-9.66-3.06-19.04-6.73-28.14-10.89v280.65ZM231.54 421.85c5.1-.82 10.24-1.49 15.43-2V181.79c-5.2-.5-10.34-1.18-15.43-2v242.06ZM511.14 0c-8.82 32.23-23.94 61.82-43.98 87.41v426.82c20.04 25.59 35.17 55.19 43.98 87.41h31.34V0h-31.34ZM401.05 455.2c18.77 11.51 35.86 25.46 50.91 41.37v-391.5c-15.05 15.91-32.14 29.87-50.91 41.37V455.2ZM346.42 430.25c9.66 3.06 19.04 6.73 28.14 10.89V160.5c-9.11 4.17-18.49 7.83-28.14 10.89v258.86ZM295.51 419.86c5.2.5 10.34 1.18 15.43 2V179.79c-5.1.82-10.24 1.49-15.43 2v238.07Z"></path></svg>