<svg xmlns="http://www.w3.org/2000/svg" width="621.7" viewBox="0 0 621.7 539" height="539" xml:space="preserve" style="enable-background:new 0 0 621.7 539"><path d="M473.4 242.4h-34.9V138.8h82L381.7 0 260.3 121.4 138.8 0 0 138.8h82.3v259.5h.2c4 78.4 68.7 140.7 148.1 140.7 50.2 0 94.6-25 121.4-63.2C378.8 514 423.2 539 473.4 539c81.9 0 148.3-66.4 148.3-148.3s-66.4-148.3-148.3-148.3zM325.2 138.8v103.6H195.6V138.8h129.6zm-94.6 297.9c-25.4 0-46-20.6-46-46s20.6-46 46-46 46 20.6 46 46-20.6 46-46 46zm242.8 0c-25.4 0-46-20.6-46-46s20.6-46 46-46 46.1 20.6 46.1 46-20.6 46-46.1 46z"></path></svg>