<svg xmlns="http://www.w3.org/2000/svg" width="600" viewBox="0 0 600 600" height="600" style="overflow:visible;enable-background:new 0 0 600 600" xml:space="preserve"><path d="M340.77 190.74c30.64 11.47 54.9 35.31 66.99 65.63 5.44 20.01 23.73 34.74 45.47 34.74l99.64.01c26.02 0 47.13-21.1 47.13-47.13 0-26.02-21.1-47.13-47.13-47.13l-83.69.01 30.17-30.16 84.71-84.72c18.4-18.4 18.4-48.23 0-66.64s-48.25-18.4-66.65 0L402.56 130.22l.01-83.08c0-26.02-21.1-47.13-47.13-47.13-26.02 0-47.13 21.09-47.13 47.13v98.82c.01 20.9 13.61 38.62 32.46 44.78zM.01 244.56c0 26.02 21.09 47.13 47.13 47.13h98.82c20.9 0 38.62-13.61 44.79-32.46 11.47-30.64 35.31-54.9 65.63-66.98 20.01-5.44 34.74-23.73 34.74-45.47l.01-99.64C291.12 21.1 270.01 0 243.99 0s-47.13 21.1-47.13 47.13l.01 83.69-30.16-30.17-84.7-84.71c-18.4-18.4-48.23-18.4-66.64 0-18.4 18.4-18.4 48.25 0 66.65l114.85 114.86-83.08-.01C21.11 197.43.01 218.54.01 244.56zM259.23 409.26c-30.64-11.47-54.9-35.31-66.99-65.63-5.44-20.01-23.73-34.74-45.47-34.74l-99.64-.01C21.1 308.88 0 329.99 0 356.01c0 26.02 21.1 47.13 47.13 47.13l83.69-.01-30.17 30.16-84.71 84.72c-18.4 18.4-18.4 48.23 0 66.64s48.25 18.4 66.65 0L197.45 469.8l-.01 83.08c0 26.02 21.1 47.13 47.13 47.13 26.02 0 47.13-21.09 47.13-47.11v-98.83c-.02-20.93-13.62-38.65-32.47-44.81zM599.99 355.44c0-26.02-21.09-47.13-47.13-47.13h-98.82c-20.9 0-38.62 13.61-44.79 32.46-11.47 30.64-35.31 54.9-65.63 66.98-20.01 5.44-34.74 23.73-34.74 45.47l-.01 99.64c0 26.02 21.1 47.13 47.13 47.13s47.13-21.1 47.13-47.13l-.01-83.69 30.16 30.17 84.71 84.72c18.4 18.4 48.23 18.4 66.64 0 18.4-18.4 18.4-48.25 0-66.65L469.78 402.56l83.08.01c26.03 0 47.13-21.11 47.13-47.13z"></path></svg>