<svg data-name="Layer 1" xmlns="http://www.w3.org/2000/svg" viewBox="0 0 617.6 617.95"><path d="M590.24 0h27.36v617.52h-27.36zM.21 0h27.36v617.95H.21zM390.75 0h-27.36v79.65c9.34 2.22 18.48 4.95 27.36 8.24V0ZM345.38 0h-27.36v73.45c9.26.36 18.4 1.22 27.36 2.62V0ZM317.59 617.95h27.36l.43-75.71c-8.96 1.4-18.1 2.26-27.36 2.62l-.43 73.1ZM272.22 617.95h27.36l.43-73.08c-9.26-.34-18.4-1.15-27.36-2.52l-.43 75.6ZM300.01 0h-27.36v75.95c8.96-1.37 18.1-2.18 27.36-2.52V0ZM254.64 0h-27.36v87.64c8.87-3.26 18.02-5.95 27.36-8.14V0Z"></path><path d="M507.56 209.4c16.41 3.25 17.92 6.51 19.3 9.84V0H499.5v170.42c2.76 3.79 5.41 7.67 7.95 11.63H109.98c2.73-4.26 5.57-8.44 8.55-12.5V0H91.17v217.66c1.18-2.8 2.49-5.52 3.77-8.26h412.62Z"></path><path d="M481.49 148.06V0h-27.36v123.43c5.33 4.18 10.44 8.63 15.4 13.24H147.92c5.14-4.79 10.43-9.41 15.98-13.73V0h-27.36v148.28c-4.78 5.06-9.44 10.25-13.73 15.75h372.41c-4.32-5.55-8.94-10.84-13.73-15.98Z"></path><path d="M436.12 110.11V0h-27.36v95.07c-2.74-1.28-5.46-2.59-8.26-3.77H217.52c-2.8 1.18-5.52 2.49-8.26 3.77V0H181.9v110.11c-4.26 2.73-8.44 5.57-12.5 8.55h279.22c-4.06-2.99-8.25-5.82-12.5-8.55Z"></path><path d="M318.02 389.35v1.53h212.25c3.29-8.88 6.02-18.02 8.24-27.36H368.43c4.92-5.41 9.14-11.44 12.49-18.01h163.95v272.01h27.36V0h-27.36v272.78H380.96c-3.32-6.55-7.46-12.61-12.33-18.01h170.03c-2.19-9.34-4.88-18.49-8.14-27.36h-212.5v161.94Zm71.2-89.21h155.65v18.01H389.2c.33-2.96.54-5.96.54-9.01s-.18-6.05-.51-9Zm-43.84-63.04c6.57 3.43 12.64 7.68 18.01 12.69v118.95c-5.39 4.9-11.46 9.02-18.01 12.35V237.11ZM362.96 617.95h27.36l.43-87.54c-8.88 3.29-18.02 6.02-27.36 8.24l-.43 79.3Z"></path><path d="M254.64 538.79c-9.34-2.19-18.49-4.88-27.36-8.14l-.07 14.35H73.16v-18.01h325.76c3.32-1.37 6.57-2.88 9.81-4.4l-.4 95.35h27.36l.41-110.35c3.96-2.54 7.85-5.19 11.65-7.96H73.16v-18.01h396.36c-4.95 4.61-10.06 9.06-15.39 13.24l-.43 123.08h27.36l.43-148.21s-.03.03-.05.04v-.33c4.62-4.89 9.13-9.89 13.29-15.19H73.16v-18.01h434.28c-2.54 3.96-5.18 7.83-7.95 11.62l-.43 170.07h27.36l.43-218.89c-1.37 3.33-2.89 6.59-4.41 9.84H73.16v-18.01h226.85V227.41H87.51c-3.26 8.87-5.95 18.02-8.14 27.36h169.37c-4.89 5.38-8.98 11.47-12.3 18.01H73.16V0H45.8v617.52l208.41.43.43-79.16Zm0-283.77v-5.88c5.4-4.94 11.44-9.16 18.01-12.52v144.47c-6.55-3.32-12.62-7.45-18.01-12.35V255.02ZM73.16 300.14h155.02c-.33 2.96-.51 5.96-.51 9s.18 6.05.51 9.01H73.16v-18.01Zm0 45.37h163.28c3.32 6.54 7.41 12.63 12.3 18.01H73.16v-18.01Zm153.83 244.86H73.16v-18.01h153.91l-.09 18.01Z"></path></svg>