<svg xmlns="http://www.w3.org/2000/svg" width="613.7" viewBox="0 0 613.7 610.5" height="610.5"><path d="M147.2 172l65 112.5h60.2l-34.5-59.8 83-143.9h-60.8L207.5 172zM259.2 508.8l71.7-123-24.1-41.7-35.2 60.5H104l30.4 53h95z"></path><path d="M113.3 191.4l-30.1 52 46.1 79.9-24.3 42.9h143.9l24.7-42.7h-84zM466.7 438.7l-66.5-115.2h-60.1l35.9 62.2-83.7 143.8h61.5l52.7-90.8z"></path><path d="M500.5 419l30.2-51.9-47.1-81.6 23.7-41.3H364.5l-23.3 40.3h81.7z"></path><path d="M354.4 101L283 224.7l23.8 41.2 35.1-60.7v-.1H508l-30.3-52.7h-93.5zM160.8 91.5H78.2l-41.3 71.7 26.3 45.6 41.4-71.7h82.6zM41.3 314.5L0 386l41.4 71.6H94L52.7 386l41.2-71.5zM183.3 539l41.2 71.5h82.8l26.3-45.6h-82.7l-41.3-71.5zM453.1 518.9h82.6l41.4-71.6-26.4-45.6-41.3 71.6h-82.6zM572.4 295.5l41.3-71.5-41.4-71.6h-52.7L561 224l-41.3 71.5zM430.8 71.5L389.5 0h-82.8l-26.3 45.6h82.8l41.3 71.5z"></path></svg>