<svg xmlns="http://www.w3.org/2000/svg" width="622.5" viewBox="0 0 622.5 622.5" height="622.5" xml:space="preserve" style="enable-background:new 0 0 622.5 622.5"><path d="M280.1 254.2c3.3 0 6-2.7 6-6s-2.7-6-6-6-6 2.7-6 6 2.7 6 6 6z" class="st0"></path><path d="M311.2 0C139.3 0 0 139.3 0 311.2s139.3 311.2 311.2 311.2 311.2-139.3 311.2-311.2S483.1 0 311.2 0zm36.5 379c0 2.9-2.3 5.2-5.2 5.2-2.9 0-5.2-2.3-5.2-5.2s2.3-5.2 5.2-5.2c2.9 0 5.2 2.3 5.2 5.2zM167 335.3c9.5-26.5 14.2-37.9 22.4-55.8 9.7-21.3 23.2-39.1 45.3-48.9 20-8.9 43.7-10.8 63.3-.9 23.4 11.9 29.4 12.7 29.4 12.7-2 3-3.9 6-5.5 9.2-9.4 18.1-11.8 38.6-11.5 58.7.3 20.2 4.3 41.5-4.4 60.6-1.9 4.2-5.2 10.1-9.4 12.3 0 0 7.4.1 16.2 4.9 9.7 5.2 20.3 10.2 20.3 10.2 28.9 13.6 62.3 1.8 83.2-20.4 10.5-11.2 16.4-26.2 22-40.3l17.8-44.7s94.9 18.3 133.9 131c-14.9 36.6-37.1 70.2-65.9 98.9-56.7 56.7-132.1 87.9-212.3 87.9s-155.6-31.2-212.3-87.9c-56.7-56.7-87.9-132.1-87.9-212.3 0-39.2 7.5-77.3 21.8-112.6C65.9 311.6 167 335.3 167 335.3z" class="st0"></path></svg>