<svg data-name="Layer 1" xmlns="http://www.w3.org/2000/svg" viewBox="0 0 630.52 533.21"><path d="M280.63 385.73c-89.41 0-162.96-67.85-171.99-154.86-1.2 10.18-1.89 20.52-1.89 31.03 0 144.64 117.25 261.89 261.89 261.89 30.94 0 60.6-5.4 88.16-15.25L322.68 380.56a173.379 173.379 0 0 1-42.04 5.17ZM630.52 261.89C630.52 117.25 513.27 0 368.63 0c-61.55 0-118.09 21.29-162.79 56.82 22.63-10.87 48-16.97 74.79-16.97 95.51 0 172.94 77.43 172.94 172.94 0 49.85-21.14 94.73-54.9 126.29L141.84 160.57c-1.47-4.02-4.62-11.03-4.62-11.03l-21.04-20.01H97.16L0 61.98l89.88 85.76 7.31 14.94 17.09 15.04h7.02L493.85 533.2h8.56l-2.1-2.1c-11.53-11.53-11.53-30.41 0-41.94 1.02-1.02 2.12-1.92 3.25-2.76a.304.304 0 0 0-.05-.07c76.08-45.82 127.02-129.15 127.02-224.44Z"></path></svg>