<svg id="Layer_1" data-name="Layer 1" xmlns="http://www.w3.org/2000/svg" viewBox="0 0 625.1 625.1">   <path d="M301.69,301.69V102.22C301.69,45.76,255.93,0,199.48,0h0V199.48c0,56.45,45.76,102.22,102.22,102.22Z"></path>   <path d="M426.02,102.73C426.02,46,380.03,0,323.29,0V205.47c56.74,0,102.73-46,102.73-102.73Z"></path>   <path d="M425.62,199.48c-56.45,0-102.22,45.76-102.22,102.22h199.48c56.45,0,102.22-45.76,102.22-102.22h0s-199.48,0-199.48,0Z"></path>   <path d="M522.37,426.02c56.74,0,102.73-46,102.73-102.73h-205.47c0,56.74,46,102.73,102.73,102.73Z"></path>   <path d="M323.41,323.41h0v199.48c0,56.45,45.76,102.22,102.22,102.22h0v-199.48c0-56.45-45.76-102.22-102.22-102.22Z"></path>   <path d="M199.08,522.37c0,56.74,46,102.73,102.73,102.73v-205.47c-56.74,0-102.73,46-102.73,102.73Z"></path>   <path d="M301.69,323.41h0s-199.48,0-199.48,0C45.76,323.41,0,369.17,0,425.62H0s199.48,0,199.48,0c56.45,0,102.22-45.76,102.22-102.22Z"></path>   <path d="M102.73,199.08C46,199.08,0,245.07,0,301.81H205.47c0-56.74-46-102.73-102.73-102.73Z"></path> </svg>