<svg xmlns="http://www.w3.org/2000/svg" width="586.4" viewBox="0 0 586.4 642" height="642" style="overflow:visible;enable-background:new 0 0 586.4 642" xml:space="preserve"><path d="m511.3 449.4 75.1-168.7-30.9-13.7 29.8-77.6-63.9 23.3-29.8-59.8-68.4 39.4-4.4-126.7-74.3 10.5L293.2 0l-51.3 76.1-74.3-10.5-4.4 126.7-68.4-39.4L65 212.7 1.1 189.4 30.9 267 0 280.7l75.1 168.7-54.4 6.6.5.4-.4-.3c21.4 73.3 89.2 126.8 169.4 126.8 32.3 0 62.6-8.7 88.6-23.8V642h28.9v-82.9c26 15.2 56.3 23.8 88.6 23.8 80.2 0 148-53.5 169.4-126.8l-.4.3.5-.4-54.5-6.6zm-94.7-219.9 62.8-36.3 20.8 41.7L448 249l-15.9-17-23.4 12.5 7.9-15zM195.4 98.7l62.5 8.8 35.4-52.6 35.4 52.6 62.5-8.8 1.7 49.9-22.6 19-16-11.6-14.6 16.8v-49.9h-20.2l-26.3-39.2-26.3 39.2h-20.2v50L232.1 156l-15.9 11.6-22.6-19 1.8-49.9zM107 193.2l62.8 36.3 7.9 15-23.4-12.5-15.9 17-52.2-14 20.8-41.8zM63.4 480l53.9-6.6-79.2-178 29.5-13.2-16.5-42.9 27.5 11 6.7-13.4 18.7 48.7-18.4 19.1 68.8 88H95.3c6.9 30.4 24.3 56.8 48.1 75.3 16.9 13.2 37 22.3 58.9 26.1 26.3 4.4 49.8 16.9 68.2 34.9-69.2 45.5-164.2 24.6-207.1-49zm229.9 30.6-.1.1s-.1 0-.1-.1h-.1c-20.3-21.6-51.4-39.2-85.8-45.1v-.1c-27-4.6-50.4-19.7-66-40.8h74.9l-92.3-118.1 10.6-10.9-14.7-28.4 32.9 8.8 9.9-10.6 77.3 41.1-47.4-89 10.7-5.7-11.4-31.3 25.9 21.7 10-7.3 44.7 51.4v-97.9h8.2l12.6-18.7 12.6 18.7h8.2v97.9l44.7-51.4 10 7.3 25.9-21.7-11.4 31.3 10.7 5.7-47.4 89 77.3-41.1 9.9 10.6 32.9-8.8-14.5 28.4 10.6 10.9-92.3 118.1h74.9c-15.6 21.1-39 36.2-66 40.8v.1c-34.4 5.9-65.6 23.6-85.9 45.1zM396.2 553c-29.6 0-57.3-8.9-80.3-24.1 18.4-17.9 41.9-30.4 68.2-34.9 52.1-9 95-48.7 107-101.4H432l68.8-88-18.4-19.1 18.7-48.7 6.7 13.4 27.5-11-16.5 42.9 29.5 13.2-79.2 178L523 480c-25.5 43.6-72.8 73-126.8 73z"></path></svg>