<svg data-name="Layer 1" xmlns="http://www.w3.org/2000/svg" viewBox="0 0 546.5 631.04"><path d="M273.25 0 .77 157.32l-.77.44v315.52l273.25 157.76L546.5 473.28V157.76L273.25 0Zm219.43 362.11v80.1L300.15 553.37v-80.09l192.53-111.17Zm0-173.29v111.16L273.13 426.74l-69.28-40.09 218.71-126.27.77-.44V148.78l69.36 40.05Zm-192.53-31.07V77.67l69.36 40.04v80.09l-69.36-40.04ZM53.81 268.92v-80.09L246.35 77.67v80.09L53.81 268.92Zm0 62.14 219.44-126.7 69.36 40.05L123.17 371.1v111.17l-69.36-40.05V331.06Zm192.54 142.36v79.96l-69.37-40.05v-80.04l69.37 40.13Z"></path></svg>