<svg xmlns="http://www.w3.org/2000/svg" width="545.8" viewBox="0 0 545.8 614.5" height="614.5" xml:space="preserve"><path d="M470.4 104.1c3.5 0 6.4 2.9 6.4 6.4v71.7c17.8-1.5 34.5-9.2 47.1-21.8 29.1-29.2 29.4-76.8.5-106.3l-.7-.7L470.4 0l-53.5 53.4c-14.3 14.3-22.1 33.3-22.1 53.4 0 20.2 7.9 39.2 22.1 53.4 12.6 12.6 29.2 20.3 47.1 21.8v-71.7c0-3.3 2.8-6.2 6.4-6.2zM0 293.3v251.6c0 45.1 35 68.7 69.5 68.7v.8-.8h388.1c33.6 0 69.5-18.1 69.5-68.7V293.3L476.9 243v297.7c0 12.2-10 22.2-22.2 22.2H73.5c-12.5 0-23.1-10.2-23.1-22.2V318.4l214.9-214.9 148.6 148.6v141.3c0 12.3-9.9 22.3-22.2 22.3H160c-4 0-7.3 1.3-9.6 3.8-2 2.2-3.1 5.1-3.1 8.4 0 6.4 4.2 12.9 12.3 12.9h49v44.6h56.8c16.8 0 23.3-6 28.6-10.8 3.3-3 6.1-5.5 10.4-6.3h109.5v32h-299V348l151.2-151.2 83.9 83.9v69.7h-41.3c-6.7 0-10.2-3.3-14.3-7-5.5-5.2-11.8-11-28.9-11h-56.9V380h-49.8c-8.8 0-13.5 5.8-13.5 11.5 0 3 1.2 5.8 3.5 7.8 2.6 2.4 6.3 3.6 10.8 3.6h232.2c2.6 0 5-1 6.7-2.8 1.7-1.7 2.7-4.1 2.7-6.5V257.4L265.3 121.6 64 323.7v216.9c0 5.2 4.3 9.4 9.5 9.4h381.2c5.2 0 9.4-4.2 9.4-9.4V230.2L265.2 28.5 0 293.3z"></path></svg>