<svg xmlns="http://www.w3.org/2000/svg" width="565.3" viewBox="0 0 565.3 593.6" height="593.6" xml:space="preserve"><path d="M565.3 233.6 397.3 0H0v593.6h397.3l168-233.6-44.2-63.2 44.2-63.2zM363.7 528H65.6V65.6h298.1l121.2 168.5-43.8 62.6 43.8 62.7L363.7 528z"></path><path d="m460.8 234.3-107.2-149H85.3v423.1h268.4l107.2-149-43.7-62.5 43.6-62.6zM320 442.7H150.9V150.9H320l60.4 84-43.3 61.9 43.3 62-60.4 83.9z"></path><path d="m358.5 235-46.4-64.5H172.7v252.6H312.1l46.4-64.5-43.2-61.8 43.2-61.8zM238.3 412.3V302l39.4 55.5-39.4 54.8zm0-120.6V179.8l40.5 56.3-40.5 55.6z"></path></svg>