<svg xmlns="http://www.w3.org/2000/svg" width="599.8" viewBox="0 0 599.8 577.9" height="577.9" xml:space="preserve"><path d="M253.5 252.8c44.8 37 111.1 30.6 148.1-14.2C402.9 236.9 599.8 0 599.8 0H328.2l-90.1 106c-35.7 44.8-29 110.2 15.4 146.8zM49.2 259.2c5.3 3.3 10.8 6.2 16.6 8.5V0H49.2v259.2zM121.8 274c5.7-.9 11.3-2.3 16.6-4V0h-16.6v274z"></path><path d="M194.3 226.1c9.4-14.9 15.1-32.2 16-50.9h.1V0h-16.1v226.1zM145.9 267.1c5.8-2.4 11.4-5.4 16.6-8.8V0h-16.6v267.1zM73.4 270.4c5.4 1.7 10.9 3 16.6 3.8V0H73.4v270.4zM.2 164c-.1 2-.2 4.1-.2 6.1 0 21.5 6.4 41.4 17.5 58V0H.2v164zM97.6 275c2.5.2 5.1.3 7.6.3 3 0 6-.1 9-.4V0H97.6v275zM170.1 252.9c6.1-4.8 11.7-10.3 16.6-16.3V0h-16.6v252.9zM25 238.2c5 5.8 10.5 11.1 16.6 15.8V0H25v238.2zM144.6 577.9h16.6V297.1c-5.3-3.3-10.8-6.2-16.6-8.5v289.3zM72 577.9h16.6V282.2c-5.7.9-11.3 2.3-16.6 4v291.7zM0 381.1v196.8h16.1V330.2C6.7 345.1 1 362.4.1 381.1H0zM47.8 577.9h16.6V289.1c-5.8 2.5-11.4 5.4-16.6 8.8v280zM120.4 577.9H137v-292c-5.4-1.7-10.9-3-16.6-3.8v295.8zM193 577.9h17.3V392.3c.1-2 .2-4.1.2-6.1 0-21.5-6.4-41.4-17.5-58v249.7zM96.2 281.3v296.6h16.6V281.2c-2.5-.2-5.1-.3-7.6-.3-3 0-6 .2-9 .4zM23.6 319.7v258.2h16.6V303.4c-6 4.8-11.6 10.3-16.6 16.3zM168.8 302.3v275.6h16.6V318.1c-5-5.9-10.5-11.2-16.6-15.8zM292.4 284.7l224.2 292.6h21L310.7 281.4c-6.1.5-12.3 1.6-18.3 3.3zM233.3 327l191.8 250.3h21l-202-263.6c-4 4.1-7.6 8.6-10.8 13.3zM233.8 446l100.5 131.3h20.3l-139-181.4c1.6 17.4 7.6 34.7 18.2 50.1zM221.2 350.9l173.5 226.4h21L229.1 333.8c-3.2 5.5-5.8 11.2-7.9 17.1zM269.2 294.2l216.9 283.1h21L284.7 287.1c-5.3 1.9-10.5 4.3-15.5 7.1zM403.9 322.2c-13-17-30.3-29-49.1-35.5l222.7 290.6h21.8L407.5 327.2c-1.1-1.7-2.3-3.4-3.6-5zM256.4 302.6c-2.4 1.8-4.7 3.8-6.9 5.8l206.1 269h21L262.7 298.2c-2.1 1.3-4.2 2.8-6.3 4.4zM215.2 382.9l149 194.4h21L218.5 359.8c-1.9 7.6-3 15.3-3.3 23.1zM319.9 280.9 547 577.3h21l-225.3-294c-7.5-1.6-15.1-2.4-22.8-2.4z"></path></svg>