<svg xmlns="http://www.w3.org/2000/svg" width="642" viewBox="0 0 642 642" height="642" style="overflow:visible;enable-background:new 0 0 642 642" xml:space="preserve"><path d="M642 321c0 177.3-143.7 321-321 321S0 498.3 0 321 143.7 0 321 0s321 143.7 321 321zM477.2 471.8H164.8v38.5h312.5v-38.5zM374.8 217.4c-26.7-40.2-45.4-86.2-53.8-135.7-8.4 49.5-27.1 95.5-53.8 135.7-18.6 27.5-27.4 58.9-27.4 89.8 0 38.3 19.3 72.7 49.4 93.2h.1a96.47 96.47 0 0 1 31.7 41.5c6.6-16.6 17.7-30.9 31.7-41.5h.1c30.2-20.5 49.4-54.9 49.4-93.2 0-30.9-8.8-62.2-27.4-89.8z"></path></svg>