<svg data-name="Layer 1" xmlns="http://www.w3.org/2000/svg" viewBox="0 0 603.69 600.79"><path d="M175.16 260.27c-2.17 0-4.3.17-6.43.33 13.42 43.72 47.82 78.34 91.4 92.05l.36.12c.06.02.12.03.18.05-.1-2.4-.18-4.81-.18-7.23 0-47.05-38.28-85.33-85.33-85.33ZM603.69 301.84c0-145.63-103.15-267.12-240.36-295.52-.16-.03-.22.19-.06.24 88.64 25.57 154.66 105 160.13 200.42 44.15 30.31 73.19 81.13 73.19 138.62 0 14.36-5.22 41.61-5.22 41.61s12.32-55.71 12.32-85.36ZM169.14 177.7c2-.07 4-.15 6.01-.15 31.13 0 60.3 8.54 85.33 23.36V86.86c-43.31 13.5-77.6 47.64-91.34 90.84ZM89.83 345.6c0 47.05 38.28 85.32 85.33 85.32 13.1 0 25.46-3.05 36.56-8.35-50.51-22.54-91.1-63.38-113.28-114.07-5.46 11.24-8.6 23.79-8.6 37.09ZM21 412.44C60.28 512.1 151 585.78 260.48 600.8V490.3c-25.03 14.81-54.19 23.36-85.33 23.36-68.92 0-128.26-41.72-154.16-101.22ZM80.28 206.98c5.47-95.42 71.49-174.85 160.14-200.42.16-.04.1-.27-.06-.24C103.15 34.72 0 156.21 0 301.84c0 29.65 4.35 58.27 12.32 85.34-3.4-13.31-5.22-27.24-5.22-41.59 0-57.49 29.03-108.3 73.18-138.62ZM428.54 513.65c-31.13 0-60.3-8.54-85.33-23.36v110.5c109.49-15.01 200.21-88.71 239.48-188.37-25.89 59.5-85.23 101.23-154.16 101.23ZM428.54 177.55c2.02 0 4.01.08 6.01.15-13.74-43.21-48.03-77.34-91.34-90.84v114.05c25.03-14.81 54.2-23.36 85.33-23.36ZM428.54 430.92c47.05 0 85.32-38.27 85.32-85.32 0-13.31-3.15-25.86-8.6-37.09-22.19 50.7-62.78 91.53-113.28 114.07 11.1 5.3 23.47 8.35 36.56 8.35ZM343.57 352.65c43.58-13.72 77.98-48.34 91.4-92.05-2.13-.16-4.26-.33-6.43-.33-47.05 0-85.33 38.28-85.33 85.33 0 2.42-.08 4.83-.18 7.23.06-.02.12-.03.18-.05l.36-.12ZM343.21 2.89C329.68 1.04 315.89 0 301.85 0s-27.83 1.04-41.36 2.89v83.97c13.07-4.07 26.97-6.27 41.36-6.27s28.29 2.2 41.36 6.27V2.89Z"></path></svg>