<svg id="Layer_1" data-name="Layer 1" xmlns="http://www.w3.org/2000/svg" viewBox="0 0 594.23 565.18">   <polygon points="283.56 0 225.72 0 225.65 190.89 153.74 167.5 201.88 132.53 201.91 62.71 87.37 145.92 44.14 131.86 26.26 186.88 283.56 270.6 283.56 0"></polygon>   <polygon points="137.95 531.04 184.83 565.1 297.07 410.71 341.52 471.91 281.99 471.91 240.94 528.38 382.53 528.38 409.25 565.18 456.09 531.14 297.07 312.18 137.95 531.04"></polygon>   <polygon points="507.21 416.54 550.97 281.85 594.23 267.81 576.32 212.7 318.93 296.31 477.95 515.26 524.78 481.24 412.63 326.76 484.6 303.4 466.19 360.04 507.21 416.54"></polygon>   <polygon points="550.09 131.97 368.5 190.9 368.52 115.24 416.7 150.24 483.1 128.69 368.54 45.46 368.55 0 310.58 0 310.58 270.6 567.97 187 550.09 131.97"></polygon>   <polygon points="17.91 212.58 0 267.7 181.51 326.74 137.05 387.9 118.67 331.32 52.27 309.73 96.02 444.35 69.28 481.14 116.09 515.16 275.21 296.29 17.91 212.58"></polygon> </svg>