<svg data-name="Layer 1" xmlns="http://www.w3.org/2000/svg" viewBox="0 0 618.15 618.15"><path d="M148.8 489.13c0 53.72 43.71 97.43 97.43 97.43s97.43-43.71 97.43-97.43V343.67H400l-.17 239.1h69.19l.17-239.1h118.26v-69.19H469.24l.1-145.46c0-53.72-43.71-97.43-97.43-97.43s-97.43 43.71-97.43 97.43v145.46h-56.5V35.46h-69.19v239.02H30.7v69.19h118.1v145.46Zm194.87-360.1c0-15.57 12.67-28.25 28.24-28.25s28.25 12.67 28.25 28.25l-.1 145.46h-56.39V129.03Zm-69.19 214.64v145.46c0 15.57-12.67 28.24-28.25 28.24s-28.25-12.67-28.25-28.24V343.67h56.5Z"></path><path d="M0 0v618.15h618.15V0H0Zm615.01 615H3.14V3.14h611.87V615Z"></path></svg>