<svg data-name="Layer 1" xmlns="http://www.w3.org/2000/svg" viewBox="0 0 609.88 609.88"><path d="M304.94 305.35c94.41 0 182.94 25.59 259.06 70.18 16.87 9.88 38.43-.5 41.67-19.78 3.2-19.09 4.63-38.77 4.11-58.89C605.51 131.95 468.39-.8 303.42 0 135.71.82 0 137.03 0 304.94c0 17.33 1.45 34.33 4.23 50.87 3.24 19.25 24.81 29.58 41.66 19.72 76.12-44.59 164.65-70.18 259.05-70.18Z"></path><path d="M304.94 346.36c-92.8 0-179.44 26.87-252.57 73.22-13.59 8.61-18.25 26.48-10.06 40.33 53.07 89.76 150.81 149.97 262.63 149.97s209.56-60.21 262.63-149.97c8.19-13.85 3.53-31.72-10.06-40.33-73.13-46.35-159.77-73.22-252.57-73.22Z"></path></svg>