<svg data-name="Layer 1" xmlns="http://www.w3.org/2000/svg" viewBox="0 0 611.58 612.34"><path d="M552.37 400.64c-38.08 98.9-134.05 169.29-246.2 169.29-145.43 0-263.75-118.32-263.75-263.77S160.73 42.41 306.16 42.41c112.19 0 208.18 70.44 246.24 169.38 30.01 13.48 52.49 40.84 59.17 73.87C600.98 126.38 468.09 0 306.16 0S0 137.35 0 306.17s137.34 306.18 306.16 306.18 294.74-126.3 305.4-285.53c-6.7 33.02-29.19 60.36-59.2 73.83Z"></path><path d="M510 202.74h.16c9.82 0 19.31 1.4 28.32 3.97-38.7-90.05-128.25-153.28-232.32-153.28-139.36 0-252.73 113.38-252.73 252.74s113.38 252.74 252.73 252.74c104.03 0 193.56-63.19 232.28-153.2-8.99 2.56-18.47 3.96-28.28 3.96H510c-6.75 0-13.35-.67-19.75-1.91-35.89 64.77-104.94 108.74-184.09 108.74-115.97 0-210.32-94.35-210.32-210.33S190.19 95.84 306.16 95.84c79.18 0 148.25 43.99 184.13 108.81 6.38-1.24 12.97-1.9 19.7-1.9Z"></path><path d="M479.19 207.43c-34.38-60.02-99.04-100.57-173.02-100.57-109.9 0-199.3 89.41-199.3 199.31s89.41 199.31 199.3 199.31c73.96 0 138.59-40.52 172.98-100.5-13.79-4.32-26.33-11.47-36.98-20.74-27.12 47.06-77.91 78.83-136.01 78.83-86.51 0-156.89-70.39-156.89-156.9s70.38-156.89 156.89-156.89c58.12 0 108.93 31.79 136.04 78.88 10.65-9.26 23.19-16.41 36.98-20.72Z"></path><path d="M306.16 202.7c51.02 0 93.51 37.13 101.92 85.79 3.47-20.03 12.71-38.1 25.95-52.44-24.84-45.12-72.84-75.76-127.88-75.76-80.43 0-145.87 65.44-145.87 145.88s65.44 145.88 145.87 145.88c55.02 0 103-30.62 127.85-75.71-13.24-14.34-22.47-32.41-25.93-52.45-8.43 48.64-50.91 85.75-101.92 85.75-57.05 0-103.46-46.41-103.46-103.47s46.41-103.46 103.46-103.46Z"></path></svg>