<svg xmlns="http://www.w3.org/2000/svg" width="607.2" viewBox="0 0 607.2 545.1" height="545.1" xml:space="preserve"><path d="M586.6 344.5c2.5-4.7 4.9-9.5 7.3-14.3l1.8-3.7-7.4-3.6-1.8 3.7c-2 4.2-4.1 8.4-6.3 12.4-47.5-40.3-91.9-66.9-132.1-84 6.6-18.2 10.5-37.5 11.3-56.9 2.3-53.9-17.4-101.9-56.9-138.9-45.7-42.8-114-64.9-178.3-57.9C164.6 7.8 108 37 69 81.3c-44.5 50.6-69 113-69 175.6.1 59.9 20.3 120.3 57.1 170.2 18.8 25.5 41.7 48.1 68 67.2 45.7 33.2 100.3 50.7 158.3 50.7 2.4 0 4.8 0 7.2-.1 57.9-1.4 115.2-19.7 165.8-52.9 49.8-32.6 91.4-78.3 123.9-136.1 4.6 2.8 9.2 5.7 13.8 8.6.5.3 1.8 1.1 4 2.4 1.6 1 3.7 2.2 4.1 2.5l5-6.4c-6.9-6.4-13.8-12.6-20.6-18.5zm-128.2-75.9c36 16.9 72.3 40.3 108.1 69.7-49.5-28.5-95.6-47.7-128.9-59.6 2.8-5.2 5.3-10.6 7.5-16 4.5 1.8 8.9 3.8 13.3 5.9zm-223.1-12.7c17.1 28.3 49.4 47.3 80.5 47.3 27.8 0 53.3-12.1 70.3-32.2 5.6 1.5 19.7 5.3 39.6 12.2-12.7 21.1-29.5 38.3-49 50.2-23.3 14.2-51.2 22.2-78.4 22.3-28.7.1-55.3-8.1-76.9-23.9-21.5-15.6-37.2-41.2-43.1-70.3-6-29.6-.7-58.6 14.5-79.6 14.8-20.3 37.5-28.1 63.4-22-10.5 6.7-18.8 15.5-24.3 25.8-11.7 22.1-10.5 47.1 3.4 70.2zm23.9-12.5c11.6 18.7 32.4 30.3 55.2 30.3 24.2 0 46.1-13 57.1-33.5 7 1.3 14.1 2.8 21.2 4.6-13 30.5-42.9 50.2-76.8 50.2-27.9 0-58.1-17.8-73.5-43.3l-1.2-2.1c3.8-1.6 9.9-3.9 18-6.2zm8.4-2.1c18.5-4.3 44.6-7.6 77-4.8 6 .5 12.1 1.3 18.2 2.2-10 16.5-28.3 26.8-48.4 26.8-19 0-36.4-9.2-46.8-24.2zm123.9 22.6c3.6-5.3 6.7-10.9 9.2-17 12.2 3.4 24.6 7.6 36.9 12.6-2.2 5.3-4.6 10.5-7.3 15.5-.2.3-.3.6-.5.9-17.7-6.1-31-10-38.3-12zm60.4 221.4c-49.3 32.3-105.2 50.1-161.5 51.5-58.9 1.4-114.4-15.5-160.5-49.1C104.3 469 82 447 63.7 422.2 28 373.8 8.3 315.1 8.2 256.9c0-60.6 23.7-121.1 66.9-170.2 37.7-42.8 92.4-71 150-77.3 62-6.8 127.8 14.6 171.8 55.7 26.3 24.6 57.1 67.6 54.3 132.5-.8 18.5-4.4 36.8-10.7 54.1-107.9-43.4-183.4-18-203.1-9.6-7.6-17.7-7.1-36.2 1.7-52.8 6.1-11.6 16.3-20.9 29.4-27.1l9-4.3-9.4-3.3c-32.8-11.6-63.4-3.3-82 22.2-16.6 22.8-22.4 54.2-15.9 86.1 6.3 31 23.2 58.5 46.3 75.3 45.7 33.3 111.8 34.1 164.4 2 21-12.8 39.1-31.6 52.6-54.4 35.4 12.6 85.9 33.7 139.8 65.8-31.8 56.9-72.6 101.7-121.4 133.7z" class="st0"></path><circle cx="225.5" cy="171.7" r="6" class="st0"></circle></svg>