<svg id="Layer_1" data-name="Layer 1" xmlns="http://www.w3.org/2000/svg" viewBox="0 0 619.95 469.41">   <path d="M65.33,149.87c-14.95-14.95-39.18-14.95-54.12,0-14.95,14.95-14.95,39.18,0,54.12,14.95,14.95,39.18,14.95,54.12,0l27.06-27.06-27.06-27.06Z"></path>   <path d="M106.73,162.59l27.06-27.06c14.95-14.95,14.95-39.18,0-54.12-14.95-14.95-39.18-14.95-54.12,0-14.95,14.95-14.95,39.18,0,54.12l27.06,27.06Z"></path>   <path d="M148.13,203.99c14.95,14.95,39.18,14.95,54.12,0,14.95-14.95,14.95-39.18,0-54.12-14.95-14.95-39.18-14.95-54.12,0l-27.06,27.06,27.06,27.06Z"></path>   <path d="M266.31,133.79l27.06-27.06-27.06-27.06c-14.95-14.95-39.18-14.95-54.12,0-14.95,14.95-14.95,39.18,0,54.12,14.95,14.95,39.18,14.95,54.12,0Z"></path>   <path d="M307.71,92.39l27.06-27.06c14.95-14.95,14.95-39.18,0-54.12-14.95-14.95-39.18-14.95-54.12,0-14.95,14.95-14.95,39.18,0,54.12l27.06,27.06Z"></path>   <path d="M349.11,133.79c14.95,14.95,39.18,14.95,54.12,0,14.95-14.95,14.95-39.18,0-54.12-14.95-14.95-39.18-14.95-54.12,0l-27.06,27.06,27.06,27.06Z"></path>   <path d="M608.75,149.87c-14.95-14.95-39.18-14.95-54.12,0l-27.06,27.06,27.06,27.06c14.95,14.95,39.18,14.95,54.12,0,14.95-14.95,14.95-39.18,0-54.12Z"></path>   <path d="M513.23,162.59l27.06-27.06c14.95-14.95,14.95-39.18,0-54.12-14.95-14.95-39.18-14.95-54.12,0-14.95,14.95-14.95,39.18,0,54.12l27.06,27.06Z"></path>   <path d="M417.7,203.99c14.95,14.95,39.18,14.95,54.12,0l27.06-27.06-27.06-27.06c-14.95-14.95-39.18-14.95-54.12,0-14.95,14.95-14.95,39.18,0,54.12Z"></path>   <path d="M474.58,229.91v106.73c0,9.59-8.86,16.73-18.22,14.63-28.99-6.48-58.68-11.1-88.94-13.74-12.48-1.09-22.07-11.5-22.07-24.03l-.51-155.3-37.13-37.13-37.39,37.39-.25,155.05c0,12.51-9.55,22.94-22.01,24.02-28.76,2.51-56.99,6.8-84.61,12.78-9.31,2.02-18.08-5.14-18.08-14.67v-105.73l-38.64-38.64-36.64,36.64v239.51c72.81-31.69,153.15-49.3,237.62-49.3s168.16,18.34,242.15,51.28V227.91l-36.64-36.64-38.64,38.64Z"></path> </svg>