<svg data-name="Layer 1" xmlns="http://www.w3.org/2000/svg" viewBox="0 0 616.61 616.61"><path d="M293.11 572.67v-52.62c-63.57-7.55-113.06-61.7-113.06-127.27V77.09C98.75 122.24 43.7 208.94 43.7 308.53c0 141.03 110.35 256.26 249.41 264.14ZM572.9 308.53c0-99.59-55.05-186.29-136.35-231.44v315.69c0 65.57-49.48 119.72-113.05 127.27v52.62c139.06-7.88 249.41-123.1 249.41-264.14Z"></path><path d="M323.5 520.05v-29.56c43.57-7.28 76.92-45.15 76.92-90.76V60.44c-9.23-3.43-18.72-6.34-28.4-8.73v144.74c0 .9-.53 1.72-1.35 2.1l-8.01 3.64c-1.52.69-3.25-.42-3.25-2.1V48.91c-8.42-1.65-16.97-2.91-25.66-3.73v96.12c0 1.09-1.25 1.71-2.12 1.06l-9.48-7.14a2.558 2.558 0 0 1-1.02-2.04V44.26c-4.25-.2-8.53-.32-12.83-.32s-8.58.12-12.83.32v89.36c0 .52-.24 1-.65 1.31l-9.84 7.42c-.87.66-2.12.03-2.12-1.06V45.18c-8.68.83-17.24 2.09-25.66 3.73V200.1c0 1.67-1.73 2.79-3.25 2.1l-8.01-3.64a2.3 2.3 0 0 1-1.35-2.1V51.71c-9.68 2.39-19.16 5.3-28.4 8.73v339.29c0 45.61 33.35 83.48 76.92 90.76v29.56c4.99.59 10.05.98 15.2.98s10.2-.39 15.19-.98Zm.96-52.3c-1.68.41-3.44-.73-3.74-2.44-.67-3.8-1.04-7.7-1.04-11.69 0-32.06 22.15-58.92 51.98-66.17 1.68-.41 3.44.73 3.74 2.44.67 3.8 1.04 7.7 1.04 11.69 0 32.06-22.15 58.92-51.98 66.17Zm0-77.4c-1.68.41-3.44-.73-3.74-2.44-.67-3.8-1.04-7.7-1.04-11.69 0-32.06 22.15-58.92 51.98-66.17 1.68-.41 3.44.73 3.74 2.44.67 3.8 1.04 7.7 1.04 11.69 0 32.06-22.15 58.92-51.98 66.17Zm47.2-161.96c1.68-.41 3.44.73 3.74 2.44.67 3.8 1.04 7.7 1.04 11.69 0 32.06-22.15 58.92-51.98 66.17-1.68.41-3.44-.73-3.74-2.44-.67-3.8-1.04-7.7-1.04-11.69 0-32.06 22.15-58.92 51.98-66.17ZM295.9 465.32c-.3 1.71-2.05 2.85-3.74 2.44-29.83-7.25-51.98-34.11-51.98-66.17 0-3.99.37-7.89 1.04-11.69.3-1.71 2.05-2.85 3.74-2.44 29.83 7.25 51.98 34.11 51.98 66.17 0 3.99-.37 7.89-1.04 11.69Zm0-77.4c-.3 1.71-2.05 2.85-3.74 2.44-29.83-7.25-51.98-34.11-51.98-66.17 0-3.99.37-7.89 1.04-11.69.3-1.71 2.05-2.85 3.74-2.44 29.83 7.25 51.98 34.11 51.98 66.17 0 3.99-.37 7.89-1.04 11.69Zm0-81.66c-.3 1.71-2.05 2.85-3.74 2.44-29.83-7.25-51.98-34.11-51.98-66.17 0-3.99.37-7.89 1.04-11.69.3-1.71 2.05-2.85 3.74-2.44 29.83 7.25 51.98 34.11 51.98 66.17 0 3.99-.37 7.89-1.04 11.69Zm9.97-51.47c-11.08-12.12-17.84-28.24-17.84-45.95s6.76-33.84 17.84-45.95c1.19-1.3 3.33-1.3 4.52 0 11.08 12.12 17.84 28.24 17.84 45.95s-6.76 33.84-17.84 45.95c-1.19 1.3-3.33 1.3-4.52 0Z"></path><path d="M0 0v616.61h616.61V0H0Zm602.28 602.27H14.33V14.33h587.95v587.94Z"></path></svg>