<svg data-name="Layer 1" xmlns="http://www.w3.org/2000/svg" viewBox="0 0 616.06 616.06"><path d="M313.09 6.04h30.42v296.93h-30.42zM346.05 6.04h28v296.93h-28zM379.12 6.04h25.35v296.93h-25.35zM411.92 6.04h22.82v296.93h-22.82zM444.7 6.04h20.24v296.93H444.7zM477.43 6.04h17.75v296.93h-17.75zM608.72 104.08v99.74l7.34-11.6v-76.6l-7.34-11.54zM555.62 33.53c-4.27-3.09-8.52-5.86-12.68-8.32v258.58c4.16-2.46 8.41-5.23 12.68-8.32V33.53ZM585.84 62.27c-3.27-4.1-6.66-7.91-10.14-11.46v207.38c3.48-3.55 6.87-7.36 10.14-11.46V62.27ZM525.4 16.13c-5.65-2.53-10.82-4.49-15.21-5.96v288.67c4.4-1.48 9.56-3.44 15.21-5.96V16.13ZM313.09 313.09h296.93v30.42H313.09zM313.09 346.05h296.93v28H313.09zM313.09 379.12h296.93v25.35H313.09zM313.09 411.92h296.93v22.82H313.09zM313.09 444.7h296.93v20.24H313.09zM313.09 477.43h296.93v17.75H313.09zM423.83 616.06h76.61l11.54-7.34h-99.75l11.6 7.34zM340.59 555.62h241.94c3.09-4.27 5.86-8.52 8.32-12.68H332.26c2.46 4.16 5.23 8.41 8.32 12.68ZM369.33 585.84h184.46c4.1-3.27 7.91-6.67 11.46-10.14H357.87c3.55 3.48 7.36 6.87 11.46 10.14ZM323.18 525.4h276.75c2.53-5.65 4.49-10.82 5.96-15.21H317.22c1.48 4.4 3.44 9.56 5.96 15.21ZM272.54 313.09h30.42v296.93h-30.42zM242 313.09h28v296.93h-28zM211.58 313.09h25.35v296.93h-25.35zM181.32 313.09h22.82v296.93h-22.82zM151.12 313.09h20.24v296.93h-20.24zM120.88 313.09h17.75v296.93h-17.75zM0 500.44l7.34 11.54v-99.75L0 423.83v76.61zM60.44 582.53c4.27 3.09 8.52 5.86 12.68 8.32V332.26c-4.16 2.46-8.41 5.23-12.68 8.32v241.94ZM30.22 553.78c3.27 4.1 6.66 7.91 10.14 11.46V357.86c-3.48 3.55-6.87 7.36-10.14 11.46v184.46ZM90.66 599.93c5.65 2.53 10.82 4.49 15.21 5.96V317.22c-4.4 1.48-9.56 3.44-15.21 5.96v276.75ZM6.04 272.54h296.93v30.42H6.04zM6.04 242h296.93v28H6.04zM6.04 211.58h296.93v25.35H6.04zM6.04 181.32h296.93v22.82H6.04zM6.04 151.12h296.93v20.24H6.04zM6.04 120.88h296.93v17.75H6.04zM192.22 0h-76.6l-11.54 7.34h99.74L192.22 0zM275.47 60.44H33.53c-3.09 4.27-5.86 8.52-8.32 12.68h258.58c-2.46-4.16-5.23-8.41-8.32-12.68ZM246.73 30.22H62.27c-4.1 3.27-7.91 6.66-11.46 10.14h207.38c-3.55-3.48-7.36-6.87-11.46-10.14ZM292.87 90.66H16.13c-2.53 5.65-4.49 10.81-5.96 15.21h288.67c-1.48-4.4-3.44-9.56-5.96-15.21Z"></path></svg>