<svg data-name="Layer 1" xmlns="http://www.w3.org/2000/svg" viewBox="0 0 614.47 574.36"><path d="M614.47 0 402.71 115.63H211.76L0 0v282.91l164.78 95.02 64.65 37.28 15.82 9.12c8.07 4.65 13.52 12.77 14.79 21.99l1.54 11.26-78.43-45.22 2.53 18.45 78.43 45.22 2.33 17.05-78.43-45.22 2.53 18.45 78.43 45.22 2.14 15.65-78.27-44.1 2.51 18.31 78.27 44.1 3.95 28.86h59.33l3.95-28.86 78.27-44.1 2.51-18.31-78.27 44.1 2.14-15.65 78.43-45.22 2.53-18.45-78.43 45.22 2.33-17.05 78.43-45.22 2.53-18.45-78.43 45.22 1.54-11.26c1.26-9.22 6.72-17.34 14.79-21.99l15.82-9.12 64.65-37.28 164.78-95.02V0ZM21.79 36.73l176.63 96.45c-71.61 23.87-133.8 71.2-176.63 136.44V36.73Zm153.88 322.32L40.38 281.04c8.13-12.32 17.01-23.94 26.53-34.85l130.55 75.28c-12.63 7.94-21.16 21.72-21.79 37.59Zm46.87 23.62c-12.19 0-22.07-9.88-22.07-22.07s9.88-22.07 22.07-22.07 22.07 9.88 22.07 22.07-9.88 22.07-22.07 22.07Zm124.95-46.27-28.1 205.18-1.51 10.99h-21.3l-1.51-10.99-28.1-205.18L82.21 229.86c59.08-58.82 139.04-92.44 225.02-92.44s165.94 33.62 225.02 92.44L347.48 336.4Zm44.45 46.27c-12.19 0-22.07-9.88-22.07-22.07s9.88-22.07 22.07-22.07 22.07 9.88 22.07 22.07-9.88 22.07-22.07 22.07Zm46.87-23.62c-.62-15.87-9.16-29.65-21.79-37.59l130.55-75.28c9.53 10.91 18.41 22.53 26.53 34.85l-135.3 78.01Zm153.88-89.43c-42.84-65.25-105.02-112.57-176.63-136.44l176.63-96.45v232.89Z"></path><circle cx="391.93" cy="360.6" r="8.53"></circle><path d="M222.54 352.06c-4.71 0-8.53 3.82-8.53 8.53s3.82 8.53 8.53 8.53 8.53-3.82 8.53-8.53-3.82-8.53-8.53-8.53Z"></path></svg>