<svg xmlns="http://www.w3.org/2000/svg" width="616.6" viewBox="0 0 616.6 616.6" height="616.6" xml:space="preserve" style="enable-background:new 0 0 616.6 616.6"><path d="m247.9 358.4-24.7-24.7 24.1-24.7 24.7 24.7 25.1-25.4L0 10.7v49.8l24.9 24.9L0 110v198.3l149 149.1 98.9-99zm-48.7-98.8 23.3 23.7-24.1 24.1-23.2-23.8 24-24zM49.8 159l-23.6-23.4 24.4-24.7 23.3 24L49.8 159zm49.8 48.9-23.8-23 24-24.2 23.4 23.3-23.6 23.9zm49.4 2.9 23.6 23.4-23.6 23.6-23.5-23.6 23.5-23.4zM282.8 223.2l24.7 24.1-24.7 24.7 25.4 25.1L605.8 0H556l-24.9 24.9L506.6 0H308.3L159.2 149l98.9 98.9 24.7-24.7zM481 26.2l24.7 24.4-24 23.3-24.1-24.1L481 26.2zm-49.3 49.6 24.2 24-23.3 23.4-23.9-23.6 23-23.8zm-49.4 49.7 23.4 23.5-23.4 23.6-23.6-23.6 23.6-23.5zM333 175.3l24 23.9-23.7 23.3-24.1-24.1 23.8-23.1zM616.6 308.3l-149-149.1-98.9 98.9 24.7 24.7-24.1 24.7-24.7-24.7-25.1 25.4 297.1 297.6V556l-24.9-24.9 24.9-24.5V308.3zM417.3 357 394 333.2l24.1-24.1 23.2 23.8-24 24.1zm50.3 48.7L444 382.3l23.6-23.6 23.5 23.6-23.5 23.4zm49.2 50.1-23.4-23.3 23.6-23.9 23.8 23-24 24.2zm49.2 49.9-23.3-24 24.1-24.1 23.6 23.4-24.4 24.7zM333.8 393.3l-24.7-24.1 24.7-24.7-25.4-25.1L10.7 616.6h49.8l24.9-24.9 24.5 24.9h198.3l149.1-149-98.9-98.9-24.6 24.6zM135.6 590.4 110.9 566l24-23.3 24.1 24.1-23.4 23.6zm49.3-49.6-24.2-24 23.3-23.4 23.9 23.6-23 23.8zm49.4-49.7-23.4-23.5 23.4-23.6 23.6 23.6-23.6 23.5zm49.3-49.8-24-23.9 23.7-23.3 24.1 24.1-23.8 23.1z"></path></svg>