<svg id="Layer_1" data-name="Layer 1" xmlns="http://www.w3.org/2000/svg" viewBox="0 0 614.15 299.86">   <path d="M156.04,149.93c0-52.59,26.68-100.5,71.39-128.31C204.81,7.93,178.3,0,149.93,0,67.13,0,0,67.13,0,149.93s67.13,149.93,149.93,149.93c28.37,0,54.87-7.93,77.49-21.62-44.7-27.8-71.39-75.72-71.39-128.31Z"></path>   <path d="M313.18,149.93c0-52.59,26.68-100.51,71.39-128.31C361.95,7.93,335.45,0,307.07,0s-54.88,7.93-77.5,21.62c44.71,27.8,71.39,75.71,71.39,128.31s-26.68,100.5-71.39,128.31c22.62,13.69,49.12,21.62,77.5,21.62s54.87-7.93,77.5-21.62c-44.71-27.81-71.39-75.72-71.39-128.31Z"></path>   <path d="M464.21,0c-28.37,0-54.87,7.93-77.5,21.62,44.71,27.8,71.39,75.72,71.39,128.31s-26.68,100.5-71.39,128.31c22.62,13.69,49.12,21.62,77.49,21.62,82.8,0,149.93-67.13,149.93-149.93S547.02,0,464.21,0Z"></path> </svg>