<svg data-name="Layer 1" xmlns="http://www.w3.org/2000/svg" viewBox="0 0 599.82 519.46"><path d="M373.79 250.11c-5.68 0-10.28 4.6-10.28 10.28s4.61 10.28 10.28 10.28 10.29-4.6 10.29-10.28-4.61-10.28-10.29-10.28Z"></path><path d="M299.91 0 0 519.46h599.82L299.91 0ZM24.81 505.14l275.1-476.49 115.2 199.54c-60.03-17.82-120.96 29.14-141.76 47.48h-82.5l-8.93 14.38h157.36c24.88 0 54.43 2.97 62.19 26.2 4.15 12.44-.78 27.82-4.85 38.3-1.76 4.53-3.58 8.81-5.35 12.98-9.08 21.38-17.66 41.58-9.89 76.81 3.28 14.88 13.46 35.44 24.77 51.88h17.8c-12.28-15.43-25.13-39.52-28.54-54.97-6.78-30.75.22-47.23 9.09-68.1 1.82-4.3 3.7-8.72 5.52-13.4 4.88-12.56 10.71-31.2 5.08-48.06-12.03-36.02-58.37-36.02-75.82-36.02H296c28.46-21.77 82.51-53.37 130.89-27.07L575 505.14H24.81Z"></path></svg>