<svg data-name="Layer 1" xmlns="http://www.w3.org/2000/svg" viewBox="0 0 626.84 622.98"><path d="M436.75 308.26 399.2 11.64l-.07-.55-22.05-4.59c-41.46-8.62-85.32-8.66-126.84-.11l-22.07 4.55-37.95 297.32H0l3.49 34.71C19.53 502.6 152.77 622.98 313.42 622.98S607.3 502.6 623.34 342.97l3.4-33.84.09-.86H436.74Zm-182.93 0 31.09-243.58c19.04-2.18 38.33-2.16 57.41.05l30.83 243.53H253.82Zm190.92 63.1h109.88c-24.9 101.76-110.15 175.32-212.71 186.92 61.88-13.15 108.44-68.21 108.44-133.94 0-5.2-.29-10.45-.88-15.62l-4.73-37.35Zm-267.29 36.87-.06.42c-.6 5.21-.9 10.48-.9 15.68 0 65.73 46.56 120.8 108.44 133.94-102.56-11.6-187.81-85.16-212.71-186.92h109.93l-4.71 36.87Zm62.15 16.11c0-2.72.16-5.55.47-8.38l5.7-44.59h135.37l5.63 44.49c.32 2.78.48 5.63.48 8.49 0 40.71-33.11 73.82-73.82 73.82s-73.83-33.11-73.83-73.82Z"></path></svg>