<svg xmlns="http://www.w3.org/2000/svg" width="610.1" viewBox="0 0 610.1 316.1" height="316.1" xml:space="preserve" style="enable-background:new 0 0 610.1 316.1"><path d="M532.4 0H77.7C34.9 0 0 34.9 0 77.7v160.7c0 42.8 34.9 77.7 77.7 77.7h454.7c42.8 0 77.7-34.9 77.7-77.7V77.7c0-42.8-34.8-77.7-77.7-77.7zm30.7 238.4c0 16.9-13.7 30.6-30.6 30.6H77.7c-16.9 0-30.6-13.7-30.6-30.6V77.7c0-16.9 13.7-30.6 30.6-30.6h454.7c16.9 0 30.6 13.7 30.6 30.6v160.7z"></path><path d="M157.2 72.1c-47.4 0-86 38.6-86 86s38.6 86 86 86 86-38.6 86-86c0-47.5-38.6-86-86-86zm0 124.9c-21.5 0-38.9-17.5-38.9-38.9 0-21.5 17.5-38.9 38.9-38.9s38.9 17.5 38.9 38.9-17.4 38.9-38.9 38.9z"></path></svg>