<svg data-name="Layer 1" xmlns="http://www.w3.org/2000/svg" viewBox="0 0 499.19 618.92"><path d="m304.97 320.57-110.74 63.94v172.26l-90.1 52.02V173.55l-93.6-54.05 90.09-52.01 97.55 56.32 7.02-4.05-104.57-60.38L0 117.48v443.35l100.62 58.09 100.62-58.09V388.56l103.72-59.88v-8.11ZM97.11 608.79 7.02 556.77V125.58l90.09 52.01v431.19Z"></path><path d="M398.57 0 297.95 58.1v154.64l-103.72 59.88v8.11l110.74-63.94V62.15l90.09-52.01v434.71l93.6 54.04-90.09 52.02-97.09-56.06-7.02 4.05 104.11 60.11 100.62-58.1V58.1L398.57 0Zm93.61 492.81-90.1-52.02V10.14l90.1 52.02v430.65Z"></path></svg>