<svg xmlns="http://www.w3.org/2000/svg" width="642" viewBox="0 0 642 642" height="642" style="overflow:visible;enable-background:new 0 0 642 642" xml:space="preserve"><circle class="st0" cx="277.7" cy="278.5" r="40.1"></circle><circle class="st0" cx="277.7" cy="363.5" r="40.1"></circle><circle class="st0" cx="277.7" cy="190.5" r="28.9"></circle><circle class="st0" cx="277.7" cy="451.5" r="28.9"></circle><circle class="st0" cx="189.9" cy="278.5" r="28.9"></circle><circle class="st0" cx="452.1" cy="278.5" r="28.9"></circle><circle class="st0" cx="452.1" cy="363.5" r="28.9"></circle><circle class="st0" cx="364.3" cy="451.5" r="28.9"></circle><circle class="st0" cx="364.3" cy="190.5" r="28.9"></circle><circle class="st0" cx="189.9" cy="363.5" r="28.9"></circle><circle class="st0" cx="277.7" cy="102.5" r="19.3"></circle><circle class="st0" cx="277.7" cy="14.4" r="14.4"></circle><circle class="st0" cx="364.3" cy="539.5" r="19.3"></circle><circle class="st0" cx="364.3" cy="627.6" r="14.4"></circle><circle class="st0" cx="14.4" cy="363.5" r="14.4"></circle><circle class="st0" cx="627.6" cy="278.5" r="14.4"></circle><circle class="st0" cx="102.2" cy="363.5" r="19.3"></circle><circle class="st0" cx="539.8" cy="278.5" r="19.3"></circle><circle class="st0" cx="364.3" cy="278.5" r="40.1"></circle><circle class="st0" cx="364.3" cy="363.5" r="40.1"></circle></svg>