<svg data-name="Layer 1" xmlns="http://www.w3.org/2000/svg" viewBox="0 0 525.34 578.92"><path d="m448.64 328.34 46.98 46.98 29.72-29.71L423 243.27c4.06 1.52 8.43 2.39 13.02 2.39 20.58 0 37.26-16.68 37.26-37.26s-16.68-37.26-37.26-37.26-37.26 16.68-37.26 37.26c0 4.59.87 8.96 2.39 13.02L264.28 84.55c22.62-.85 40.7-19.41 40.7-42.23S286.04 0 262.67 0s-42.31 18.94-42.31 42.31 18.08 41.38 40.7 42.23L124.19 221.4c1.52-4.06 2.39-8.43 2.39-13.02 0-20.58-16.68-37.26-37.26-37.26s-37.26 16.68-37.26 37.26 16.68 37.26 37.26 37.26c4.59 0 8.96-.87 13.02-2.39L0 345.6l29.72 29.71 46.98-46.98v80.46L0 485.49l29.72 29.71 77.9-77.9 143.54 141.62V342.85h23.02v236.07L417.72 437.3l77.9 77.9 29.72-29.71-76.7-76.7v-80.46ZM209.13 478.42l-70.8-69.84V266.7l70.8-70.8v282.52ZM387 408.58l-70.8 69.84V195.9l70.8 70.8v141.88Z"></path></svg>