<svg data-name="Layer 1" xmlns="http://www.w3.org/2000/svg" viewBox="0 0 621.19 621.2"><path d="M439.25 0h-257.3L0 181.95v257.3L181.95 621.2h257.3l181.94-181.95v-257.3L439.25 0Zm35.5 85L425.3 268.81l-93.82-113.6L428.45 38.7l46.29 46.29Zm-74.77 208.11h-71.89v-87.05l71.89 87.05ZM190.71 40.74 286 155.23l-91.01 110.21L146.45 85l44.27-44.27ZM34.99 196.44l82.89-82.88 48.3 179.55H34.99v-96.66Zm131.23 359.54L68.34 458.1h97.88v97.88ZM293.1 586.2h-91.88V458.1h91.88v128.1Zm0-163.09H34.99V328.1H293.1v95.01Zm0-130.01h-75.58l75.58-91.52v91.52ZM231.47 35h154.55l-77.27 92.85L231.47 35Zm188.52 551.21H328.1v-128.1h91.89v128.1Zm34.99-30.22v-97.88h97.88l-97.88 97.88ZM586.2 423.12H328.09v-95.01H586.2v95.01Zm0-130.01H455.01l48.3-179.55 82.89 82.89v96.66Z"></path><circle cx="266.25" cy="559.36" r="20.36"></circle><path d="M354.94 579.72c11.24 0 20.36-9.12 20.36-20.36S366.18 539 354.94 539s-20.36 9.12-20.36 20.36 9.12 20.36 20.36 20.36Z"></path></svg>