<svg id="Layer_1" data-name="Layer 1" xmlns="http://www.w3.org/2000/svg" viewBox="0 0 622.96 520.93">   <path d="M495.44,0h0c-46.94,0-88.07,25.78-110.21,63.81C363.1,25.78,321.97,0,275.02,0h0c-70.14,0-127.52,57.39-127.52,127.52v230.97c-15.52-12.29-35.1-19.68-56.44-19.68C40.77,338.81,0,379.58,0,429.87s40.77,91.06,91.06,91.06,91.06-40.77,91.06-91.06V206.57c0-51.09,41.8-92.9,92.9-92.9h0c51.09,0,92.9,41.8,92.9,92.9v151.92c-15.52-12.29-35.1-19.68-56.44-19.68-50.29,0-91.06,40.77-91.06,91.06s40.77,91.06,91.06,91.06,91.06-40.77,91.06-91.06V206.57c0-51.09,41.8-92.9,92.9-92.9h0c51.09,0,92.9,41.8,92.9,92.9v151.92c-15.52-12.29-35.1-19.68-56.44-19.68-50.29,0-91.06,40.77-91.06,91.06s40.77,91.06,91.06,91.06,91.06-40.77,91.06-91.06V127.52c0-70.14-57.39-127.52-127.52-127.52Z"></path> </svg>