<svg data-name="Layer 1" xmlns="http://www.w3.org/2000/svg" viewBox="0 0 492.44 614.46"><path d="M198.51 365.37H0v17.72h198.51c53.73 0 97.44 43.71 97.44 97.44v133.94h17.72V480.53c0-63.5-51.66-115.16-115.16-115.16Z"></path><path d="M198.51 392.99H0v17.72h198.51c38.5 0 69.82 31.32 69.82 69.82v133.94h17.72V480.53c0-48.26-39.27-87.53-87.53-87.53Z"></path><path d="M198.51 420.61H0v17.72h198.51c23.27 0 42.19 18.93 42.19 42.2v133.94h17.72V480.53c0-33.04-26.88-59.91-59.91-59.91ZM164.51 241.33c0 28.75 20.42 53.8 48.55 59.55 1.85.38 5.43.84 11.1 1.55 3.99.5 8.97 1.12 10.51 1.44 83.52 17.07 144.14 91.36 144.14 176.66v133.94h17.72V480.53c0-93.67-66.57-175.27-158.31-194.01-2.06-.42-5.85-.91-11.86-1.66-4.14-.52-8.2-1.01-9.75-1.32-19.92-4.08-34.38-21.83-34.38-42.2 0-23.75 19.32-43.08 43.07-43.08h267.14v-17.72H225.31c-33.52 0-60.79 27.27-60.79 60.79Z"></path><path d="M136.73 241.49c0 44.32 33.09 82.08 76.97 87.82.95.12 2.67.32 4.73.56 4.15.48 12.78 1.48 14.64 1.91 69.55 16.15 118.12 77.32 118.12 148.74v133.94h17.72V480.52c0-79.7-54.21-147.96-131.83-165.99-2.63-.61-8.8-1.35-16.61-2.25-1.95-.23-3.57-.42-4.47-.53-35.09-4.59-61.56-34.8-61.56-70.26 0-39.07 31.79-70.86 70.86-70.86h267.14v-17.72H225.3c-48.84 0-88.57 39.74-88.57 88.57Z"></path><path d="M108.87 241.73c0 59.98 44.94 109.78 104.54 115.83l3.11.3c6.04.58 12.27 1.19 17.52 2.74 52.71 15.65 89.52 64.96 89.52 119.92v133.94h17.72V480.52c0-62.74-42.03-119.04-102.2-136.9-6.88-2.04-14.31-2.76-20.86-3.39l-3.03-.3c-50.52-5.13-88.61-47.35-88.61-98.2 0-54.43 44.29-98.71 98.72-98.71h267.14V125.3H225.3c-64.2 0-116.43 52.23-116.43 116.43Z"></path><path d="M192.21 241.33c0 15.66 11.09 29.29 26.36 32.41 1.31.25 4.14.6 7.35 1l1.68.21c6.21.78 10.14 1.28 12.62 1.78C318.11 292.65 380.3 352.22 400 429.21V208.23H225.3c-18.25 0-33.1 14.85-33.1 33.1ZM100.05 241.73H0v114.02h173.49c-43.69-19.74-73.44-63.46-73.44-114.02ZM225.3 115.33h267.14V0H226.38c-69.77 0-126.33 56.56-126.33 126.33l.54 94.8c9.87-59.93 62.03-105.8 124.72-105.8Z"></path></svg>