<svg data-name="Layer 1" xmlns="http://www.w3.org/2000/svg" viewBox="0 0 605.62 536.87"><path d="M341.19 191.64c0-26.13-14.74-44.77-44.77-44.77H157.1c-21.74 0-39.37-17.63-39.37-39.37V75.34c0-27.87 3.63-28.48 4.05-29.8a.784.784 0 0 0-.95-1l-90 24.23C12.65 73.64 0 90.12 0 108.95v83.76c0 21.84 17.7 39.54 39.54 39.54H195.7c15.33 0 27.76 12.43 27.76 27.76v210.44c0 20.73-16.8 37.53-37.53 37.53h-30.67c-20.73 0-37.53-16.8-37.53-37.53V329.59c0-19.14 4.3-23.12 13.65-32.84.79-.82.01-2.18-1.09-1.89l-96.25 25.77C13.96 326 0 344.19 0 364.97V492.1c0 24.73 20.04 44.77 44.77 44.77h251.66c24.72 0 44.77-20.04 44.77-44.77V191.64Z"></path><path d="M473.41 131.52c0-32.58-26.41-58.98-58.98-58.98H222.99c-21.02 0-40.01-25.6-27.58-46.47.37-.62-.17-1.37-.86-1.18l-43.06 11.6c-11.37 3.04-19.28 13.35-19.28 25.12v43.05c0 15.32 12.42 27.74 27.74 27.74h143.4c28.9 0 52.32 23.43 52.32 52.32v301c0 22.49-4.43 37.33-19.39 50.16-.4.34-.18.99.35.99h76.35c33.37 0 60.43-27.05 60.43-60.42V131.52Z"></path><path d="M529.86 31.22H299.24c-15.64 0-21.58-17.61-10.87-29.91.51-.58-.04-1.47-.79-1.27l-66.96 17.52a20.607 20.607 0 0 0-15 23.27c1.63 10.08 10.79 17.24 21 17.24H415.7c39.87 0 72.19 32.32 72.19 72.19v348.15c0 26.09-9.66 40.92-28.88 57.05-.57.48-.25 1.41.49 1.41h70.25c41.9 0 75.87-33.97 75.87-75.87V106.98c0-41.84-33.92-75.76-75.76-75.76Z"></path></svg>