<svg data-name="Layer 1" xmlns="http://www.w3.org/2000/svg" viewBox="0 0 584.81 584.81"><path d="M0 0h64.84v64.84H0zM86.66 0h64.84v64.84H86.66zM0 86.66h64.84v64.84H0zM86.66 86.66h64.84v64.84H86.66zM173.32 86.66h64.84v64.84h-64.84zM433.31 86.66h64.84v64.84h-64.84zM519.98 86.66h64.84v64.84h-64.84zM0 173.32h64.84v64.84H0zM86.66 173.32h64.84v64.84H86.66zM173.32 173.32h64.84v64.84h-64.84zM259.99 173.32h64.84v64.84h-64.84zM433.31 173.32h64.84v64.84h-64.84zM519.98 173.32h64.84v64.84h-64.84zM0 259.99h64.84v64.84H0zM86.66 259.99h64.84v64.84H86.66zM173.32 259.99h64.84v64.84h-64.84zM259.99 259.99h64.84v64.84h-64.84zM346.65 259.99h64.84v64.84h-64.84zM433.31 259.99h64.84v64.84h-64.84zM519.98 259.99h64.84v64.84h-64.84zM0 346.65h64.84v64.84H0zM86.66 346.65h64.84v64.84H86.66zM259.99 346.65h64.84v64.84h-64.84zM346.65 346.65h64.84v64.84h-64.84zM433.31 346.65h64.84v64.84h-64.84zM519.98 346.65h64.84v64.84h-64.84zM0 433.31h64.84v64.84H0zM86.66 433.31h64.84v64.84H86.66zM346.65 433.31h64.84v64.84h-64.84zM433.31 433.31h64.84v64.84h-64.84zM519.98 433.31h64.84v64.84h-64.84zM433.31 519.98h64.84v64.84h-64.84zM519.98 519.98h64.84v64.84h-64.84z"></path></svg>