<svg id="Layer_1" data-name="Layer 1" xmlns="http://www.w3.org/2000/svg" viewBox="0 0 609.36 609.36"><defs></defs><path class="cls-1" d="M204.73 178.42h199.91v38.43H204.73zM204.73 249.78h199.91v38.43H204.73zM204.73 321.15h199.91v38.43H204.73zM204.73 392.52h199.91v38.43H204.73zM0 0h199.91v38.43H0zM0 71.37h199.91v38.43H0zM0 142.73h199.91v38.43H0zM0 214.1h199.91v38.43H0zM0 285.47h199.91v38.43H0zM0 356.83h199.91v38.43H0zM0 428.2h199.91v38.43H0zM0 499.57h199.91V538H0zM0 570.93h199.91v38.43H0zM409.45 0h199.91v38.43H409.45zM409.45 71.37h199.91v38.43H409.45zM409.45 142.73h199.91v38.43H409.45zM409.45 214.1h199.91v38.43H409.45zM409.45 285.47h199.91v38.43H409.45zM409.45 356.83h199.91v38.43H409.45zM409.45 428.2h199.91v38.43H409.45zM409.45 499.57h199.91V538H409.45zM409.45 570.93h199.91v38.43H409.45z"></path></svg>