<svg id="Layer_1" data-name="Layer 1" xmlns="http://www.w3.org/2000/svg" viewBox="0 0 619.22 574.18">   <polygon points="521.54 413.32 619.22 311.91 345.75 311.91 521.54 413.32"></polygon>   <polygon points="549.31 292.99 583.43 156.38 346.37 292.72 549.31 292.99"></polygon>   <polygon points="513.39 174.84 474.87 39.41 337.33 275.77 513.39 174.84"></polygon>   <polygon points="437.18 503.98 572.47 464.98 335.61 328.28 437.18 503.98"></polygon>   <polygon points="318.78 540.33 455.46 574.18 318.65 337.39 318.78 540.33"></polygon>   <polygon points="273.47 311.91 0 311.91 97.68 413.32 273.47 311.91"></polygon>   <polygon points="272.86 292.72 35.79 156.38 69.92 292.99 272.86 292.72"></polygon>   <polygon points="144.35 39.41 105.84 174.84 281.9 275.77 144.35 39.41"></polygon>   <polygon points="283.61 328.28 46.76 464.98 182.05 503.98 283.61 328.28"></polygon>   <polygon points="300.44 540.33 300.58 337.39 163.77 574.18 300.44 540.33"></polygon>   <circle cx="310.12" cy="65.47" r="65.47" transform="translate(130.96 326.93) rotate(-67.5)"></circle> </svg>