<svg data-name="Layer 1" xmlns="http://www.w3.org/2000/svg" viewBox="0 0 619.17 474.42"><path d="M363.11 30.9C351.21 10.3 330.4 0 309.59 0s-41.63 10.3-53.52 30.9L0 474.42h94.56c13.31 0 25.61-7.1 32.26-18.63l46.25-80.11c4.56-7.9 2.95-17.59-3.22-24.32-6.8-7.42-10.95-17.3-10.95-28.17 0-21.44 16.15-39.08 36.94-41.49-3.56-6.88-5.6-14.67-5.6-22.94 0-27.65 22.42-50.07 50.07-50.07.82 0 1.62.08 2.43.12a28.755 28.755 0 0 1-2.22-11.08c0-15.91 12.9-28.82 28.82-28.82.48 0 .93.12 1.41.14-.92-4.61-1.07-9.51-.2-14.56 3.22-18.7 20.1-32.82 39.04-32.84 18.94.02 35.82 14.14 39.04 32.84.87 5.05.72 9.95-.2 14.56.48-.02.93-.14 1.41-.14 15.91 0 28.82 12.9 28.82 28.82 0 3.93-.8 7.67-2.22 11.08.81-.04 1.61-.12 2.43-.12 27.65 0 50.07 22.42 50.07 50.07 0 8.28-2.04 16.06-5.6 22.94 20.79 2.41 36.94 20.05 36.94 41.49 0 10.86-4.15 20.74-10.95 28.17-6.16 6.72-7.78 16.42-3.22 24.32l46.25 80.11a37.238 37.238 0 0 0 32.26 18.63h94.56L363.11 30.9Z"></path><path d="M309.59 192.51c-12.82 0-25.65 6.35-32.98 19.04L124.84 474.42h133.33c11.14-.21 21.67-6.1 27.62-15.55 5.38-8.55 8.28-23.84 1.31-32.34-3.58-4.37-9.67-5.33-14.75-3.18-3.15 1.33-6.36 2.76-9.67 3.66-2.35.48-4.78.83-7.3.83-17.93 0-32.47-14.54-32.47-32.47 0-15.82 11.32-28.96 26.29-31.85a31.711 31.711 0 0 1-5.53-17.91c0-17.59 14.26-31.85 31.85-31.85 1.93 0 3.8.24 5.64.57-.27-1.6-.49-3.23-.49-4.91 0-16.04 12.92-29.03 28.91-29.21 16 .18 28.91 13.18 28.91 29.21 0 1.68-.22 3.3-.49 4.91 1.84-.33 3.71-.57 5.64-.57 17.59 0 31.85 14.26 31.85 31.85 0 6.65-2.05 12.81-5.53 17.91 14.97 2.89 26.29 16.03 26.29 31.85 0 17.93-14.54 32.47-32.47 32.47-2.52 0-4.95-.35-7.3-.83-3.3-.9-6.52-2.33-9.67-3.66-5.08-2.15-11.16-1.19-14.75 3.18-6.97 8.5-4.08 23.79 1.31 32.34 5.95 9.44 16.48 15.34 27.62 15.55h133.33L342.56 211.54c-7.33-12.69-20.15-19.04-32.98-19.04Z"></path></svg>