<svg data-name="Layer 1" xmlns="http://www.w3.org/2000/svg" viewBox="0 0 614.01 326.91"><path d="M78.01 0c-4.6 0-8.33 3.73-8.33 8.33s3.73 8.33 8.33 8.33 8.33-3.73 8.33-8.33S82.6 0 78.01 0ZM95.95 0c-4.6 0-8.33 3.73-8.33 8.33s3.73 8.33 8.33 8.33 8.33-3.73 8.33-8.33S100.55 0 95.95 0ZM113.89 0c-4.6 0-8.33 3.73-8.33 8.33s3.73 8.33 8.33 8.33 8.33-3.73 8.33-8.33S118.49 0 113.89 0ZM131.84 0c-4.6 0-8.33 3.73-8.33 8.33s3.73 8.33 8.33 8.33 8.33-3.73 8.33-8.33S136.44 0 131.84 0ZM149.78 0c-4.6 0-8.33 3.73-8.33 8.33s3.73 8.33 8.33 8.33 8.33-3.73 8.33-8.33S154.38 0 149.78 0ZM167.73 0c-4.6 0-8.33 3.73-8.33 8.33s3.73 8.33 8.33 8.33 8.33-3.73 8.33-8.33S172.33 0 167.73 0ZM185.67 0c-4.6 0-8.33 3.73-8.33 8.33s3.73 8.33 8.33 8.33S194 12.93 194 8.33 190.27 0 185.67 0ZM203.62 0c-4.6 0-8.33 3.73-8.33 8.33s3.73 8.33 8.33 8.33 8.33-3.73 8.33-8.33S208.22 0 203.62 0ZM221.56 0c-4.6 0-8.33 3.73-8.33 8.33s3.73 8.33 8.33 8.33 8.33-3.73 8.33-8.33S226.16 0 221.56 0ZM239.51 0c-4.6 0-8.33 3.73-8.33 8.33s3.73 8.33 8.33 8.33 8.33-3.73 8.33-8.33S244.11 0 239.51 0ZM257.45 0c-4.6 0-8.33 3.73-8.33 8.33s3.73 8.33 8.33 8.33 8.33-3.73 8.33-8.33S262.05 0 257.45 0ZM275.4 0c-4.6 0-8.33 3.73-8.33 8.33s3.73 8.33 8.33 8.33 8.33-3.73 8.33-8.33S280 0 275.4 0ZM293.34 0c-4.6 0-8.33 3.73-8.33 8.33s3.73 8.33 8.33 8.33 8.33-3.73 8.33-8.33S297.94 0 293.34 0ZM78.01 23.87c-4.6 0-8.33 3.73-8.33 8.33s3.73 8.33 8.33 8.33 8.33-3.73 8.33-8.33-3.73-8.33-8.33-8.33ZM60.06 23.87c-4.6 0-8.33 3.73-8.33 8.33s3.73 8.33 8.33 8.33 8.33-3.73 8.33-8.33-3.73-8.33-8.33-8.33ZM95.95 23.87c-4.6 0-8.33 3.73-8.33 8.33s3.73 8.33 8.33 8.33 8.33-3.73 8.33-8.33-3.73-8.33-8.33-8.33ZM113.89 23.87c-4.6 0-8.33 3.73-8.33 8.33s3.73 8.33 8.33 8.33 8.33-3.73 8.33-8.33-3.73-8.33-8.33-8.33ZM131.84 23.87c-4.6 0-8.33 3.73-8.33 8.33s3.73 8.33 8.33 8.33 8.33-3.73 8.33-8.33-3.73-8.33-8.33-8.33ZM149.78 23.87c-4.6 0-8.33 3.73-8.33 8.33s3.73 8.33 8.33 8.33 8.33-3.73 8.33-8.33-3.73-8.33-8.33-8.33ZM167.73 23.87c-4.6 0-8.33 3.73-8.33 8.33s3.73 8.33 8.33 8.33 8.33-3.73 8.33-8.33-3.73-8.33-8.33-8.33ZM185.67 23.87c-4.6 0-8.33 3.73-8.33 8.33s3.73 8.33 8.33 8.33S194 36.8 194 32.2s-3.73-8.33-8.33-8.33ZM203.62 23.87c-4.6 0-8.33 3.73-8.33 8.33s3.73 8.33 8.33 8.33 8.33-3.73 8.33-8.33-3.73-8.33-8.33-8.33ZM221.56 23.87c-4.6 0-8.33 3.73-8.33 8.33s3.73 8.33 8.33 8.33 8.33-3.73 8.33-8.33-3.73-8.33-8.33-8.33ZM239.51 23.87c-4.6 0-8.33 3.73-8.33 8.33s3.73 8.33 8.33 8.33 8.33-3.73 8.33-8.33-3.73-8.33-8.33-8.33ZM257.45 23.87c-4.6 0-8.33 3.73-8.33 8.33s3.73 8.33 8.33 8.33 8.33-3.73 8.33-8.33-3.73-8.33-8.33-8.33ZM275.4 23.87c-4.6 0-8.33 3.73-8.33 8.33s3.73 8.33 8.33 8.33 8.33-3.73 8.33-8.33-3.73-8.33-8.33-8.33ZM293.34 23.87c-4.6 0-8.33 3.73-8.33 8.33s3.73 8.33 8.33 8.33 8.33-3.73 8.33-8.33-3.73-8.33-8.33-8.33ZM78.01 47.73c-4.6 0-8.33 3.73-8.33 8.33s3.73 8.33 8.33 8.33 8.33-3.73 8.33-8.33-3.73-8.33-8.33-8.33ZM60.06 47.73c-4.6 0-8.33 3.73-8.33 8.33s3.73 8.33 8.33 8.33 8.33-3.73 8.33-8.33-3.73-8.33-8.33-8.33ZM42.12 47.73c-4.6 0-8.33 3.73-8.33 8.33s3.73 8.33 8.33 8.33 8.33-3.73 8.33-8.33-3.73-8.33-8.33-8.33ZM95.95 47.73c-4.6 0-8.33 3.73-8.33 8.33s3.73 8.33 8.33 8.33 8.33-3.73 8.33-8.33-3.73-8.33-8.33-8.33ZM113.89 47.73c-4.6 0-8.33 3.73-8.33 8.33s3.73 8.33 8.33 8.33 8.33-3.73 8.33-8.33-3.73-8.33-8.33-8.33ZM131.84 47.73c-4.6 0-8.33 3.73-8.33 8.33s3.73 8.33 8.33 8.33 8.33-3.73 8.33-8.33-3.73-8.33-8.33-8.33ZM149.78 47.73c-4.6 0-8.33 3.73-8.33 8.33s3.73 8.33 8.33 8.33 8.33-3.73 8.33-8.33-3.73-8.33-8.33-8.33ZM167.73 47.73c-4.6 0-8.33 3.73-8.33 8.33s3.73 8.33 8.33 8.33 8.33-3.73 8.33-8.33-3.73-8.33-8.33-8.33ZM185.67 47.73c-4.6 0-8.33 3.73-8.33 8.33s3.73 8.33 8.33 8.33 8.33-3.73 8.33-8.33-3.73-8.33-8.33-8.33ZM203.62 47.73c-4.6 0-8.33 3.73-8.33 8.33s3.73 8.33 8.33 8.33 8.33-3.73 8.33-8.33-3.73-8.33-8.33-8.33ZM221.56 47.73c-4.6 0-8.33 3.73-8.33 8.33s3.73 8.33 8.33 8.33 8.33-3.73 8.33-8.33-3.73-8.33-8.33-8.33ZM239.51 47.73c-4.6 0-8.33 3.73-8.33 8.33s3.73 8.33 8.33 8.33 8.33-3.73 8.33-8.33-3.73-8.33-8.33-8.33ZM257.45 47.73c-4.6 0-8.33 3.73-8.33 8.33s3.73 8.33 8.33 8.33 8.33-3.73 8.33-8.33-3.73-8.33-8.33-8.33ZM275.4 47.73c-4.6 0-8.33 3.73-8.33 8.33s3.73 8.33 8.33 8.33 8.33-3.73 8.33-8.33-3.73-8.33-8.33-8.33ZM293.34 47.73c-4.6 0-8.33 3.73-8.33 8.33s3.73 8.33 8.33 8.33 8.33-3.73 8.33-8.33-3.73-8.33-8.33-8.33ZM78.01 71.6c-4.6 0-8.33 3.73-8.33 8.33s3.73 8.33 8.33 8.33 8.33-3.73 8.33-8.33-3.73-8.33-8.33-8.33ZM95.95 71.6c-4.6 0-8.33 3.73-8.33 8.33s3.73 8.33 8.33 8.33 8.33-3.73 8.33-8.33-3.73-8.33-8.33-8.33ZM60.06 71.6c-4.6 0-8.33 3.73-8.33 8.33s3.73 8.33 8.33 8.33 8.33-3.73 8.33-8.33-3.73-8.33-8.33-8.33ZM42.12 71.6c-4.6 0-8.33 3.73-8.33 8.33s3.73 8.33 8.33 8.33 8.33-3.73 8.33-8.33-3.73-8.33-8.33-8.33ZM24.17 71.6c-4.6 0-8.33 3.73-8.33 8.33s3.73 8.33 8.33 8.33 8.33-3.73 8.33-8.33-3.73-8.33-8.33-8.33ZM113.89 71.6c-4.6 0-8.33 3.73-8.33 8.33s3.73 8.33 8.33 8.33 8.33-3.73 8.33-8.33-3.73-8.33-8.33-8.33ZM131.84 71.6c-4.6 0-8.33 3.73-8.33 8.33s3.73 8.33 8.33 8.33 8.33-3.73 8.33-8.33-3.73-8.33-8.33-8.33ZM149.78 71.6c-4.6 0-8.33 3.73-8.33 8.33s3.73 8.33 8.33 8.33 8.33-3.73 8.33-8.33-3.73-8.33-8.33-8.33ZM167.73 71.6c-4.6 0-8.33 3.73-8.33 8.33s3.73 8.33 8.33 8.33 8.33-3.73 8.33-8.33-3.73-8.33-8.33-8.33ZM185.67 71.6c-4.6 0-8.33 3.73-8.33 8.33s3.73 8.33 8.33 8.33 8.33-3.73 8.33-8.33-3.73-8.33-8.33-8.33ZM203.62 71.6c-4.6 0-8.33 3.73-8.33 8.33s3.73 8.33 8.33 8.33 8.33-3.73 8.33-8.33-3.73-8.33-8.33-8.33ZM221.56 71.6c-4.6 0-8.33 3.73-8.33 8.33s3.73 8.33 8.33 8.33 8.33-3.73 8.33-8.33-3.73-8.33-8.33-8.33ZM239.51 71.6c-4.6 0-8.33 3.73-8.33 8.33s3.73 8.33 8.33 8.33 8.33-3.73 8.33-8.33-3.73-8.33-8.33-8.33ZM257.45 71.6c-4.6 0-8.33 3.73-8.33 8.33s3.73 8.33 8.33 8.33 8.33-3.73 8.33-8.33-3.73-8.33-8.33-8.33ZM275.4 71.6c-4.6 0-8.33 3.73-8.33 8.33s3.73 8.33 8.33 8.33 8.33-3.73 8.33-8.33-3.73-8.33-8.33-8.33ZM293.34 71.6c-4.6 0-8.33 3.73-8.33 8.33s3.73 8.33 8.33 8.33 8.33-3.73 8.33-8.33-3.73-8.33-8.33-8.33ZM203.62 97.57c-3.44 0-6.23 2.79-6.23 6.23s2.79 6.23 6.23 6.23 6.23-2.79 6.23-6.23-2.79-6.23-6.23-6.23Z"></path><circle cx="185.67" cy="103.79" r="6.23"></circle><circle cx="167.73" cy="103.79" r="6.23"></circle><circle cx="149.78" cy="103.79" r="6.23"></circle><circle cx="131.84" cy="103.79" r="6.23"></circle><circle cx="113.89" cy="103.79" r="6.23"></circle><circle cx="95.95" cy="103.79" r="6.23"></circle><path d="M78.01 97.57c-3.44 0-6.23 2.79-6.23 6.23s2.79 6.23 6.23 6.23 6.23-2.79 6.23-6.23-2.79-6.23-6.23-6.23ZM60.06 97.57c-3.44 0-6.23 2.79-6.23 6.23s2.79 6.23 6.23 6.23 6.23-2.79 6.23-6.23-2.79-6.23-6.23-6.23ZM42.12 97.57c-3.44 0-6.23 2.79-6.23 6.23s2.79 6.23 6.23 6.23 6.23-2.79 6.23-6.23-2.79-6.23-6.23-6.23Z"></path><circle cx="24.17" cy="103.79" r="6.23"></circle><circle cx="6.23" cy="103.79" r="6.23"></circle><path d="M203.62 121.43c-3.44 0-6.23 2.79-6.23 6.23s2.79 6.23 6.23 6.23 6.23-2.79 6.23-6.23-2.79-6.23-6.23-6.23Z"></path><circle cx="185.67" cy="127.66" r="6.23"></circle><circle cx="167.73" cy="127.66" r="6.23"></circle><circle cx="149.78" cy="127.66" r="6.23"></circle><circle cx="131.84" cy="127.66" r="6.23"></circle><circle cx="113.89" cy="127.66" r="6.23"></circle><circle cx="95.95" cy="127.66" r="6.23"></circle><path d="M78.01 121.43c-3.44 0-6.23 2.79-6.23 6.23s2.79 6.23 6.23 6.23 6.23-2.79 6.23-6.23-2.79-6.23-6.23-6.23ZM60.06 121.43c-3.44 0-6.23 2.79-6.23 6.23s2.79 6.23 6.23 6.23 6.23-2.79 6.23-6.23-2.79-6.23-6.23-6.23ZM42.12 121.43c-3.44 0-6.23 2.79-6.23 6.23s2.79 6.23 6.23 6.23 6.23-2.79 6.23-6.23-2.79-6.23-6.23-6.23Z"></path><circle cx="24.17" cy="127.66" r="6.23"></circle><circle cx="6.23" cy="127.66" r="6.23"></circle><path d="M203.62 145.3c-3.44 0-6.23 2.79-6.23 6.23s2.79 6.23 6.23 6.23 6.23-2.79 6.23-6.23-2.79-6.23-6.23-6.23Z"></path><circle cx="185.67" cy="151.52" r="6.23"></circle><circle cx="167.73" cy="151.52" r="6.23"></circle><circle cx="149.78" cy="151.52" r="6.23"></circle><circle cx="131.84" cy="151.52" r="6.23"></circle><circle cx="113.89" cy="151.52" r="6.23"></circle><circle cx="95.95" cy="151.52" r="6.23"></circle><path d="M78.01 145.3c-3.44 0-6.23 2.79-6.23 6.23s2.79 6.23 6.23 6.23 6.23-2.79 6.23-6.23-2.79-6.23-6.23-6.23ZM60.06 145.3c-3.44 0-6.23 2.79-6.23 6.23s2.79 6.23 6.23 6.23 6.23-2.79 6.23-6.23-2.79-6.23-6.23-6.23ZM42.12 145.3c-3.44 0-6.23 2.79-6.23 6.23s2.79 6.23 6.23 6.23 6.23-2.79 6.23-6.23-2.79-6.23-6.23-6.23Z"></path><circle cx="24.17" cy="151.52" r="6.23"></circle><circle cx="6.23" cy="151.52" r="6.23"></circle><path d="M203.62 169.16c-3.44 0-6.23 2.79-6.23 6.23s2.79 6.23 6.23 6.23 6.23-2.79 6.23-6.23-2.79-6.23-6.23-6.23Z"></path><circle cx="185.67" cy="175.39" r="6.23"></circle><circle cx="167.73" cy="175.39" r="6.23"></circle><circle cx="149.78" cy="175.39" r="6.23"></circle><circle cx="131.84" cy="175.39" r="6.23"></circle><circle cx="113.89" cy="175.39" r="6.23"></circle><circle cx="95.95" cy="175.39" r="6.23"></circle><path d="M78.01 169.16c-3.44 0-6.23 2.79-6.23 6.23s2.79 6.23 6.23 6.23 6.23-2.79 6.23-6.23-2.79-6.23-6.23-6.23ZM60.06 169.16c-3.44 0-6.23 2.79-6.23 6.23s2.79 6.23 6.23 6.23 6.23-2.79 6.23-6.23-2.79-6.23-6.23-6.23ZM42.12 169.16c-3.44 0-6.23 2.79-6.23 6.23s2.79 6.23 6.23 6.23 6.23-2.79 6.23-6.23-2.79-6.23-6.23-6.23Z"></path><circle cx="24.17" cy="175.39" r="6.23"></circle><circle cx="6.23" cy="175.39" r="6.23"></circle><path d="M203.62 193.03c-3.44 0-6.23 2.79-6.23 6.23s2.79 6.23 6.23 6.23 6.23-2.79 6.23-6.23-2.79-6.23-6.23-6.23Z"></path><circle cx="185.67" cy="199.26" r="6.23"></circle><circle cx="167.73" cy="199.26" r="6.23"></circle><circle cx="149.78" cy="199.26" r="6.23"></circle><circle cx="131.84" cy="199.26" r="6.23"></circle><circle cx="113.89" cy="199.26" r="6.23"></circle><circle cx="95.95" cy="199.26" r="6.23"></circle><path d="M78.01 193.03c-3.44 0-6.23 2.79-6.23 6.23s2.79 6.23 6.23 6.23 6.23-2.79 6.23-6.23-2.79-6.23-6.23-6.23ZM60.06 193.03c-3.44 0-6.23 2.79-6.23 6.23s2.79 6.23 6.23 6.23 6.23-2.79 6.23-6.23-2.79-6.23-6.23-6.23ZM42.12 193.03c-3.44 0-6.23 2.79-6.23 6.23s2.79 6.23 6.23 6.23 6.23-2.79 6.23-6.23-2.79-6.23-6.23-6.23Z"></path><circle cx="24.17" cy="199.26" r="6.23"></circle><circle cx="6.23" cy="199.26" r="6.23"></circle><path d="M203.62 216.9c-3.44 0-6.23 2.79-6.23 6.23s2.79 6.23 6.23 6.23 6.23-2.79 6.23-6.23-2.79-6.23-6.23-6.23Z"></path><circle cx="185.67" cy="223.12" r="6.23"></circle><circle cx="167.73" cy="223.12" r="6.23"></circle><circle cx="149.78" cy="223.12" r="6.23"></circle><circle cx="131.84" cy="223.12" r="6.23"></circle><circle cx="113.89" cy="223.12" r="6.23"></circle><circle cx="95.95" cy="223.12" r="6.23"></circle><path d="M78.01 216.9c-3.44 0-6.23 2.79-6.23 6.23s2.79 6.23 6.23 6.23 6.23-2.79 6.23-6.23-2.79-6.23-6.23-6.23ZM60.06 216.9c-3.44 0-6.23 2.79-6.23 6.23s2.79 6.23 6.23 6.23 6.23-2.79 6.23-6.23-2.79-6.23-6.23-6.23ZM42.12 216.9c-3.44 0-6.23 2.79-6.23 6.23s2.79 6.23 6.23 6.23 6.23-2.79 6.23-6.23-2.79-6.23-6.23-6.23Z"></path><circle cx="24.17" cy="223.12" r="6.23"></circle><circle cx="6.23" cy="223.12" r="6.23"></circle><path d="M203.62 240.76c-3.44 0-6.23 2.79-6.23 6.23s2.79 6.23 6.23 6.23 6.23-2.79 6.23-6.23-2.79-6.23-6.23-6.23Z"></path><circle cx="185.67" cy="246.99" r="6.23"></circle><circle cx="167.73" cy="246.99" r="6.23"></circle><circle cx="149.78" cy="246.99" r="6.23"></circle><circle cx="131.84" cy="246.99" r="6.23"></circle><circle cx="113.89" cy="246.99" r="6.23"></circle><circle cx="95.95" cy="246.99" r="6.23"></circle><path d="M78.01 240.76c-3.44 0-6.23 2.79-6.23 6.23s2.79 6.23 6.23 6.23 6.23-2.79 6.23-6.23-2.79-6.23-6.23-6.23ZM60.06 240.76c-3.44 0-6.23 2.79-6.23 6.23s2.79 6.23 6.23 6.23 6.23-2.79 6.23-6.23-2.79-6.23-6.23-6.23ZM42.12 240.76c-3.44 0-6.23 2.79-6.23 6.23s2.79 6.23 6.23 6.23 6.23-2.79 6.23-6.23-2.79-6.23-6.23-6.23Z"></path><circle cx="24.17" cy="246.99" r="6.23"></circle><circle cx="6.23" cy="246.99" r="6.23"></circle><path d="M203.62 264.63c-3.44 0-6.23 2.79-6.23 6.23s2.79 6.23 6.23 6.23 6.23-2.79 6.23-6.23-2.79-6.23-6.23-6.23ZM185.67 264.63c-3.44 0-6.23 2.79-6.23 6.23s2.79 6.23 6.23 6.23 6.23-2.79 6.23-6.23-2.79-6.23-6.23-6.23ZM167.73 264.63c-3.44 0-6.23 2.79-6.23 6.23s2.79 6.23 6.23 6.23 6.23-2.79 6.23-6.23-2.79-6.23-6.23-6.23ZM149.78 264.63c-3.44 0-6.23 2.79-6.23 6.23s2.79 6.23 6.23 6.23 6.23-2.79 6.23-6.23-2.79-6.23-6.23-6.23ZM131.84 264.63c-3.44 0-6.23 2.79-6.23 6.23s2.79 6.23 6.23 6.23 6.23-2.79 6.23-6.23-2.79-6.23-6.23-6.23ZM113.89 264.63c-3.44 0-6.23 2.79-6.23 6.23s2.79 6.23 6.23 6.23 6.23-2.79 6.23-6.23-2.79-6.23-6.23-6.23ZM95.95 264.63c-3.44 0-6.23 2.79-6.23 6.23s2.79 6.23 6.23 6.23 6.23-2.79 6.23-6.23-2.79-6.23-6.23-6.23ZM78.01 264.63c-3.44 0-6.23 2.79-6.23 6.23s2.79 6.23 6.23 6.23 6.23-2.79 6.23-6.23-2.79-6.23-6.23-6.23ZM60.06 264.63c-3.44 0-6.23 2.79-6.23 6.23s2.79 6.23 6.23 6.23 6.23-2.79 6.23-6.23-2.79-6.23-6.23-6.23ZM42.12 264.63c-3.44 0-6.23 2.79-6.23 6.23s2.79 6.23 6.23 6.23 6.23-2.79 6.23-6.23-2.79-6.23-6.23-6.23ZM24.17 264.63c-3.44 0-6.23 2.79-6.23 6.23s2.79 6.23 6.23 6.23 6.23-2.79 6.23-6.23-2.79-6.23-6.23-6.23ZM6.23 264.63c-3.44 0-6.23 2.79-6.23 6.23s2.79 6.23 6.23 6.23 6.23-2.79 6.23-6.23-2.79-6.23-6.23-6.23ZM203.62 288.49c-3.44 0-6.23 2.79-6.23 6.23s2.79 6.23 6.23 6.23 6.23-2.79 6.23-6.23-2.79-6.23-6.23-6.23ZM185.67 288.49c-3.44 0-6.23 2.79-6.23 6.23s2.79 6.23 6.23 6.23 6.23-2.79 6.23-6.23-2.79-6.23-6.23-6.23ZM167.73 288.49c-3.44 0-6.23 2.79-6.23 6.23s2.79 6.23 6.23 6.23 6.23-2.79 6.23-6.23-2.79-6.23-6.23-6.23ZM149.78 288.49c-3.44 0-6.23 2.79-6.23 6.23s2.79 6.23 6.23 6.23 6.23-2.79 6.23-6.23-2.79-6.23-6.23-6.23ZM131.84 288.49c-3.44 0-6.23 2.79-6.23 6.23s2.79 6.23 6.23 6.23 6.23-2.79 6.23-6.23-2.79-6.23-6.23-6.23ZM113.89 288.49c-3.44 0-6.23 2.79-6.23 6.23s2.79 6.23 6.23 6.23 6.23-2.79 6.23-6.23-2.79-6.23-6.23-6.23ZM95.95 288.49c-3.44 0-6.23 2.79-6.23 6.23s2.79 6.23 6.23 6.23 6.23-2.79 6.23-6.23-2.79-6.23-6.23-6.23ZM78.01 288.49c-3.44 0-6.23 2.79-6.23 6.23s2.79 6.23 6.23 6.23 6.23-2.79 6.23-6.23-2.79-6.23-6.23-6.23ZM60.06 288.49c-3.44 0-6.23 2.79-6.23 6.23s2.79 6.23 6.23 6.23 6.23-2.79 6.23-6.23-2.79-6.23-6.23-6.23ZM42.12 288.49c-3.44 0-6.23 2.79-6.23 6.23s2.79 6.23 6.23 6.23 6.23-2.79 6.23-6.23-2.79-6.23-6.23-6.23ZM24.17 288.49c-3.44 0-6.23 2.79-6.23 6.23s2.79 6.23 6.23 6.23 6.23-2.79 6.23-6.23-2.79-6.23-6.23-6.23ZM6.23 288.49c-3.44 0-6.23 2.79-6.23 6.23s2.79 6.23 6.23 6.23 6.23-2.79 6.23-6.23-2.79-6.23-6.23-6.23ZM203.62 312.36c-3.44 0-6.23 2.79-6.23 6.23s2.79 6.23 6.23 6.23 6.23-2.79 6.23-6.23-2.79-6.23-6.23-6.23ZM185.67 312.36c-3.44 0-6.23 2.79-6.23 6.23s2.79 6.23 6.23 6.23 6.23-2.79 6.23-6.23-2.79-6.23-6.23-6.23ZM167.73 312.36c-3.44 0-6.23 2.79-6.23 6.23s2.79 6.23 6.23 6.23 6.23-2.79 6.23-6.23-2.79-6.23-6.23-6.23ZM149.78 312.36c-3.44 0-6.23 2.79-6.23 6.23s2.79 6.23 6.23 6.23 6.23-2.79 6.23-6.23-2.79-6.23-6.23-6.23ZM131.84 312.36c-3.44 0-6.23 2.79-6.23 6.23s2.79 6.23 6.23 6.23 6.23-2.79 6.23-6.23-2.79-6.23-6.23-6.23ZM113.89 312.36c-3.44 0-6.23 2.79-6.23 6.23s2.79 6.23 6.23 6.23 6.23-2.79 6.23-6.23-2.79-6.23-6.23-6.23ZM95.95 312.36c-3.44 0-6.23 2.79-6.23 6.23s2.79 6.23 6.23 6.23 6.23-2.79 6.23-6.23-2.79-6.23-6.23-6.23ZM78.01 312.36c-3.44 0-6.23 2.79-6.23 6.23s2.79 6.23 6.23 6.23 6.23-2.79 6.23-6.23-2.79-6.23-6.23-6.23ZM60.06 312.36c-3.44 0-6.23 2.79-6.23 6.23s2.79 6.23 6.23 6.23 6.23-2.79 6.23-6.23-2.79-6.23-6.23-6.23ZM42.12 312.36c-3.44 0-6.23 2.79-6.23 6.23s2.79 6.23 6.23 6.23 6.23-2.79 6.23-6.23-2.79-6.23-6.23-6.23ZM24.17 312.36c-3.44 0-6.23 2.79-6.23 6.23s2.79 6.23 6.23 6.23 6.23-2.79 6.23-6.23-2.79-6.23-6.23-6.23ZM6.23 312.36c-3.44 0-6.23 2.79-6.23 6.23s2.79 6.23 6.23 6.23 6.23-2.79 6.23-6.23-2.79-6.23-6.23-6.23ZM221.56 95.46c-4.6 0-8.33 3.73-8.33 8.33s3.73 8.33 8.33 8.33 8.33-3.73 8.33-8.33-3.73-8.33-8.33-8.33ZM239.51 95.46c-4.6 0-8.33 3.73-8.33 8.33s3.73 8.33 8.33 8.33 8.33-3.73 8.33-8.33-3.73-8.33-8.33-8.33ZM257.45 95.46c-4.6 0-8.33 3.73-8.33 8.33s3.73 8.33 8.33 8.33 8.33-3.73 8.33-8.33-3.73-8.33-8.33-8.33ZM275.4 95.46c-4.6 0-8.33 3.73-8.33 8.33s3.73 8.33 8.33 8.33 8.33-3.73 8.33-8.33-3.73-8.33-8.33-8.33ZM293.34 95.46c-4.6 0-8.33 3.73-8.33 8.33s3.73 8.33 8.33 8.33 8.33-3.73 8.33-8.33-3.73-8.33-8.33-8.33ZM221.56 119.33c-4.6 0-8.33 3.73-8.33 8.33s3.73 8.33 8.33 8.33 8.33-3.73 8.33-8.33-3.73-8.33-8.33-8.33ZM239.51 119.33c-4.6 0-8.33 3.73-8.33 8.33s3.73 8.33 8.33 8.33 8.33-3.73 8.33-8.33-3.73-8.33-8.33-8.33ZM257.45 119.33c-4.6 0-8.33 3.73-8.33 8.33s3.73 8.33 8.33 8.33 8.33-3.73 8.33-8.33-3.73-8.33-8.33-8.33ZM275.4 119.33c-4.6 0-8.33 3.73-8.33 8.33s3.73 8.33 8.33 8.33 8.33-3.73 8.33-8.33-3.73-8.33-8.33-8.33ZM293.34 119.33c-4.6 0-8.33 3.73-8.33 8.33s3.73 8.33 8.33 8.33 8.33-3.73 8.33-8.33-3.73-8.33-8.33-8.33ZM221.56 143.19c-4.6 0-8.33 3.73-8.33 8.33s3.73 8.33 8.33 8.33 8.33-3.73 8.33-8.33-3.73-8.33-8.33-8.33Z"></path><circle cx="239.51" cy="151.52" r="8.33"></circle><circle cx="257.45" cy="151.52" r="8.33"></circle><circle cx="275.4" cy="151.52" r="8.33"></circle><circle cx="293.34" cy="151.52" r="8.33"></circle><path d="M221.56 167.06c-4.6 0-8.33 3.73-8.33 8.33s3.73 8.33 8.33 8.33 8.33-3.73 8.33-8.33-3.73-8.33-8.33-8.33Z"></path><circle cx="239.51" cy="175.39" r="8.33"></circle><circle cx="257.45" cy="175.39" r="8.33"></circle><circle cx="275.4" cy="175.39" r="8.33"></circle><circle cx="293.34" cy="175.39" r="8.33"></circle><path d="M221.56 190.93c-4.6 0-8.33 3.73-8.33 8.33s3.73 8.33 8.33 8.33 8.33-3.73 8.33-8.33-3.73-8.33-8.33-8.33Z"></path><circle cx="239.51" cy="199.26" r="8.33"></circle><circle cx="257.45" cy="199.26" r="8.33"></circle><circle cx="275.4" cy="199.26" r="8.33"></circle><circle cx="293.34" cy="199.26" r="8.33"></circle><path d="M221.56 214.79c-4.6 0-8.33 3.73-8.33 8.33s3.73 8.33 8.33 8.33 8.33-3.73 8.33-8.33-3.73-8.33-8.33-8.33ZM239.51 214.79c-4.6 0-8.33 3.73-8.33 8.33s3.73 8.33 8.33 8.33 8.33-3.73 8.33-8.33-3.73-8.33-8.33-8.33ZM257.45 214.79c-4.6 0-8.33 3.73-8.33 8.33s3.73 8.33 8.33 8.33 8.33-3.73 8.33-8.33-3.73-8.33-8.33-8.33ZM275.4 214.79c-4.6 0-8.33 3.73-8.33 8.33s3.73 8.33 8.33 8.33 8.33-3.73 8.33-8.33-3.73-8.33-8.33-8.33ZM293.34 214.79c-4.6 0-8.33 3.73-8.33 8.33s3.73 8.33 8.33 8.33 8.33-3.73 8.33-8.33-3.73-8.33-8.33-8.33ZM221.56 238.66c-4.6 0-8.33 3.73-8.33 8.33s3.73 8.33 8.33 8.33 8.33-3.73 8.33-8.33-3.73-8.33-8.33-8.33ZM239.51 238.66c-4.6 0-8.33 3.73-8.33 8.33s3.73 8.33 8.33 8.33 8.33-3.73 8.33-8.33-3.73-8.33-8.33-8.33ZM257.45 238.66c-4.6 0-8.33 3.73-8.33 8.33s3.73 8.33 8.33 8.33 8.33-3.73 8.33-8.33-3.73-8.33-8.33-8.33ZM275.4 238.66c-4.6 0-8.33 3.73-8.33 8.33s3.73 8.33 8.33 8.33 8.33-3.73 8.33-8.33-3.73-8.33-8.33-8.33ZM221.56 262.53c-4.6 0-8.33 3.73-8.33 8.33s3.73 8.33 8.33 8.33 8.33-3.73 8.33-8.33-3.73-8.33-8.33-8.33ZM239.51 262.53c-4.6 0-8.33 3.73-8.33 8.33s3.73 8.33 8.33 8.33 8.33-3.73 8.33-8.33-3.73-8.33-8.33-8.33ZM257.45 262.53c-4.6 0-8.33 3.73-8.33 8.33s3.73 8.33 8.33 8.33 8.33-3.73 8.33-8.33-3.73-8.33-8.33-8.33ZM221.56 286.39c-4.6 0-8.33 3.73-8.33 8.33s3.73 8.33 8.33 8.33 8.33-3.73 8.33-8.33-3.73-8.33-8.33-8.33ZM239.51 286.39c-4.6 0-8.33 3.73-8.33 8.33s3.73 8.33 8.33 8.33 8.33-3.73 8.33-8.33-3.73-8.33-8.33-8.33ZM221.56 310.26c-4.6 0-8.33 3.73-8.33 8.33s3.73 8.33 8.33 8.33 8.33-3.73 8.33-8.33-3.73-8.33-8.33-8.33ZM536 0c-4.6 0-8.33 3.73-8.33 8.33s3.73 8.33 8.33 8.33 8.33-3.73 8.33-8.33S540.6 0 536 0ZM518.06 0c-4.6 0-8.33 3.73-8.33 8.33s3.73 8.33 8.33 8.33 8.33-3.73 8.33-8.33S522.66 0 518.06 0ZM500.11 0c-4.6 0-8.33 3.73-8.33 8.33s3.73 8.33 8.33 8.33 8.33-3.73 8.33-8.33S504.71 0 500.11 0ZM482.17 0c-4.6 0-8.33 3.73-8.33 8.33s3.73 8.33 8.33 8.33 8.33-3.73 8.33-8.33S486.77 0 482.17 0ZM464.22 0c-4.6 0-8.33 3.73-8.33 8.33s3.73 8.33 8.33 8.33 8.33-3.73 8.33-8.33S468.82 0 464.22 0ZM446.28 0c-4.6 0-8.33 3.73-8.33 8.33s3.73 8.33 8.33 8.33 8.33-3.73 8.33-8.33S450.88 0 446.28 0ZM428.33 0c-4.6 0-8.33 3.73-8.33 8.33s3.73 8.33 8.33 8.33 8.33-3.73 8.33-8.33S432.93 0 428.33 0ZM410.39 0c-4.6 0-8.33 3.73-8.33 8.33s3.73 8.33 8.33 8.33 8.33-3.73 8.33-8.33S414.99 0 410.39 0ZM392.44 0c-4.6 0-8.33 3.73-8.33 8.33s3.73 8.33 8.33 8.33 8.33-3.73 8.33-8.33S397.04 0 392.44 0ZM374.5 0c-4.6 0-8.33 3.73-8.33 8.33s3.73 8.33 8.33 8.33 8.33-3.73 8.33-8.33S379.1 0 374.5 0ZM356.55 0c-4.6 0-8.33 3.73-8.33 8.33s3.73 8.33 8.33 8.33 8.33-3.73 8.33-8.33S361.15 0 356.55 0ZM338.61 0c-4.6 0-8.33 3.73-8.33 8.33s3.73 8.33 8.33 8.33 8.33-3.73 8.33-8.33S343.21 0 338.61 0ZM320.67 0c-4.6 0-8.33 3.73-8.33 8.33s3.73 8.33 8.33 8.33S329 12.93 329 8.33 325.27 0 320.67 0ZM536 23.87c-4.6 0-8.33 3.73-8.33 8.33s3.73 8.33 8.33 8.33 8.33-3.73 8.33-8.33-3.73-8.33-8.33-8.33ZM553.95 23.87c-4.6 0-8.33 3.73-8.33 8.33s3.73 8.33 8.33 8.33 8.33-3.73 8.33-8.33-3.73-8.33-8.33-8.33ZM518.06 23.87c-4.6 0-8.33 3.73-8.33 8.33s3.73 8.33 8.33 8.33 8.33-3.73 8.33-8.33-3.73-8.33-8.33-8.33ZM500.11 23.87c-4.6 0-8.33 3.73-8.33 8.33s3.73 8.33 8.33 8.33 8.33-3.73 8.33-8.33-3.73-8.33-8.33-8.33ZM482.17 23.87c-4.6 0-8.33 3.73-8.33 8.33s3.73 8.33 8.33 8.33 8.33-3.73 8.33-8.33-3.73-8.33-8.33-8.33ZM464.22 23.87c-4.6 0-8.33 3.73-8.33 8.33s3.73 8.33 8.33 8.33 8.33-3.73 8.33-8.33-3.73-8.33-8.33-8.33ZM446.28 23.87c-4.6 0-8.33 3.73-8.33 8.33s3.73 8.33 8.33 8.33 8.33-3.73 8.33-8.33-3.73-8.33-8.33-8.33ZM428.33 23.87c-4.6 0-8.33 3.73-8.33 8.33s3.73 8.33 8.33 8.33 8.33-3.73 8.33-8.33-3.73-8.33-8.33-8.33ZM410.39 23.87c-4.6 0-8.33 3.73-8.33 8.33s3.73 8.33 8.33 8.33 8.33-3.73 8.33-8.33-3.73-8.33-8.33-8.33ZM392.44 23.87c-4.6 0-8.33 3.73-8.33 8.33s3.73 8.33 8.33 8.33 8.33-3.73 8.33-8.33-3.73-8.33-8.33-8.33ZM374.5 23.87c-4.6 0-8.33 3.73-8.33 8.33s3.73 8.33 8.33 8.33 8.33-3.73 8.33-8.33-3.73-8.33-8.33-8.33ZM356.55 23.87c-4.6 0-8.33 3.73-8.33 8.33s3.73 8.33 8.33 8.33 8.33-3.73 8.33-8.33-3.73-8.33-8.33-8.33ZM338.61 23.87c-4.6 0-8.33 3.73-8.33 8.33s3.73 8.33 8.33 8.33 8.33-3.73 8.33-8.33-3.73-8.33-8.33-8.33ZM320.67 23.87c-4.6 0-8.33 3.73-8.33 8.33s3.73 8.33 8.33 8.33S329 36.8 329 32.2s-3.73-8.33-8.33-8.33ZM536 47.73c-4.6 0-8.33 3.73-8.33 8.33s3.73 8.33 8.33 8.33 8.33-3.73 8.33-8.33-3.73-8.33-8.33-8.33ZM553.95 47.73c-4.6 0-8.33 3.73-8.33 8.33s3.73 8.33 8.33 8.33 8.33-3.73 8.33-8.33-3.73-8.33-8.33-8.33ZM571.89 47.73c-4.6 0-8.33 3.73-8.33 8.33s3.73 8.33 8.33 8.33 8.33-3.73 8.33-8.33-3.73-8.33-8.33-8.33ZM518.06 47.73c-4.6 0-8.33 3.73-8.33 8.33s3.73 8.33 8.33 8.33 8.33-3.73 8.33-8.33-3.73-8.33-8.33-8.33ZM500.11 47.73c-4.6 0-8.33 3.73-8.33 8.33s3.73 8.33 8.33 8.33 8.33-3.73 8.33-8.33-3.73-8.33-8.33-8.33ZM482.17 47.73c-4.6 0-8.33 3.73-8.33 8.33s3.73 8.33 8.33 8.33 8.33-3.73 8.33-8.33-3.73-8.33-8.33-8.33ZM464.22 47.73c-4.6 0-8.33 3.73-8.33 8.33s3.73 8.33 8.33 8.33 8.33-3.73 8.33-8.33-3.73-8.33-8.33-8.33ZM446.28 47.73c-4.6 0-8.33 3.73-8.33 8.33s3.73 8.33 8.33 8.33 8.33-3.73 8.33-8.33-3.73-8.33-8.33-8.33ZM428.33 47.73c-4.6 0-8.33 3.73-8.33 8.33s3.73 8.33 8.33 8.33 8.33-3.73 8.33-8.33-3.73-8.33-8.33-8.33ZM410.39 47.73c-4.6 0-8.33 3.73-8.33 8.33s3.73 8.33 8.33 8.33 8.33-3.73 8.33-8.33-3.73-8.33-8.33-8.33ZM392.44 47.73c-4.6 0-8.33 3.73-8.33 8.33s3.73 8.33 8.33 8.33 8.33-3.73 8.33-8.33-3.73-8.33-8.33-8.33ZM374.5 47.73c-4.6 0-8.33 3.73-8.33 8.33s3.73 8.33 8.33 8.33 8.33-3.73 8.33-8.33-3.73-8.33-8.33-8.33ZM356.55 47.73c-4.6 0-8.33 3.73-8.33 8.33s3.73 8.33 8.33 8.33 8.33-3.73 8.33-8.33-3.73-8.33-8.33-8.33ZM338.61 47.73c-4.6 0-8.33 3.73-8.33 8.33s3.73 8.33 8.33 8.33 8.33-3.73 8.33-8.33-3.73-8.33-8.33-8.33ZM320.67 47.73c-4.6 0-8.33 3.73-8.33 8.33s3.73 8.33 8.33 8.33 8.33-3.73 8.33-8.33-3.73-8.33-8.33-8.33ZM536 71.6c-4.6 0-8.33 3.73-8.33 8.33s3.73 8.33 8.33 8.33 8.33-3.73 8.33-8.33-3.73-8.33-8.33-8.33ZM518.06 71.6c-4.6 0-8.33 3.73-8.33 8.33s3.73 8.33 8.33 8.33 8.33-3.73 8.33-8.33-3.73-8.33-8.33-8.33ZM553.95 71.6c-4.6 0-8.33 3.73-8.33 8.33s3.73 8.33 8.33 8.33 8.33-3.73 8.33-8.33-3.73-8.33-8.33-8.33ZM571.89 71.6c-4.6 0-8.33 3.73-8.33 8.33s3.73 8.33 8.33 8.33 8.33-3.73 8.33-8.33-3.73-8.33-8.33-8.33ZM589.84 71.6c-4.6 0-8.33 3.73-8.33 8.33s3.73 8.33 8.33 8.33 8.33-3.73 8.33-8.33-3.73-8.33-8.33-8.33ZM500.11 71.6c-4.6 0-8.33 3.73-8.33 8.33s3.73 8.33 8.33 8.33 8.33-3.73 8.33-8.33-3.73-8.33-8.33-8.33ZM482.17 71.6c-4.6 0-8.33 3.73-8.33 8.33s3.73 8.33 8.33 8.33 8.33-3.73 8.33-8.33-3.73-8.33-8.33-8.33ZM464.22 71.6c-4.6 0-8.33 3.73-8.33 8.33s3.73 8.33 8.33 8.33 8.33-3.73 8.33-8.33-3.73-8.33-8.33-8.33ZM446.28 71.6c-4.6 0-8.33 3.73-8.33 8.33s3.73 8.33 8.33 8.33 8.33-3.73 8.33-8.33-3.73-8.33-8.33-8.33ZM428.33 71.6c-4.6 0-8.33 3.73-8.33 8.33s3.73 8.33 8.33 8.33 8.33-3.73 8.33-8.33-3.73-8.33-8.33-8.33ZM410.39 71.6c-4.6 0-8.33 3.73-8.33 8.33s3.73 8.33 8.33 8.33 8.33-3.73 8.33-8.33-3.73-8.33-8.33-8.33ZM392.44 71.6c-4.6 0-8.33 3.73-8.33 8.33s3.73 8.33 8.33 8.33 8.33-3.73 8.33-8.33-3.73-8.33-8.33-8.33ZM374.5 71.6c-4.6 0-8.33 3.73-8.33 8.33s3.73 8.33 8.33 8.33 8.33-3.73 8.33-8.33-3.73-8.33-8.33-8.33ZM356.55 71.6c-4.6 0-8.33 3.73-8.33 8.33s3.73 8.33 8.33 8.33 8.33-3.73 8.33-8.33-3.73-8.33-8.33-8.33ZM338.61 71.6c-4.6 0-8.33 3.73-8.33 8.33s3.73 8.33 8.33 8.33 8.33-3.73 8.33-8.33-3.73-8.33-8.33-8.33ZM320.67 71.6c-4.6 0-8.33 3.73-8.33 8.33s3.73 8.33 8.33 8.33 8.33-3.73 8.33-8.33-3.73-8.33-8.33-8.33Z"></path><circle cx="410.39" cy="103.79" r="6.23"></circle><circle cx="428.33" cy="103.79" r="6.23"></circle><path d="M446.28 97.57c-3.44 0-6.23 2.79-6.23 6.23s2.79 6.23 6.23 6.23 6.23-2.79 6.23-6.23-2.79-6.23-6.23-6.23ZM464.22 97.57c-3.44 0-6.23 2.79-6.23 6.23s2.79 6.23 6.23 6.23 6.23-2.79 6.23-6.23-2.79-6.23-6.23-6.23ZM482.17 97.57c-3.44 0-6.23 2.79-6.23 6.23s2.79 6.23 6.23 6.23 6.23-2.79 6.23-6.23-2.79-6.23-6.23-6.23Z"></path><circle cx="500.11" cy="103.79" r="6.23"></circle><circle cx="518.06" cy="103.79" r="6.23"></circle><circle cx="536" cy="103.79" r="6.23"></circle><circle cx="553.95" cy="103.79" r="6.23"></circle><circle cx="571.89" cy="103.79" r="6.23"></circle><circle cx="589.84" cy="103.79" r="6.23"></circle><path d="M607.78 110.02c3.44 0 6.23-2.79 6.23-6.23s-2.79-6.23-6.23-6.23-6.23 2.79-6.23 6.23 2.79 6.23 6.23 6.23Z"></path><circle cx="410.39" cy="127.66" r="6.23"></circle><circle cx="428.33" cy="127.66" r="6.23"></circle><path d="M446.28 121.43c-3.44 0-6.23 2.79-6.23 6.23s2.79 6.23 6.23 6.23 6.23-2.79 6.23-6.23-2.79-6.23-6.23-6.23ZM464.22 121.43c-3.44 0-6.23 2.79-6.23 6.23s2.79 6.23 6.23 6.23 6.23-2.79 6.23-6.23-2.79-6.23-6.23-6.23ZM482.17 121.43c-3.44 0-6.23 2.79-6.23 6.23s2.79 6.23 6.23 6.23 6.23-2.79 6.23-6.23-2.79-6.23-6.23-6.23Z"></path><circle cx="500.11" cy="127.66" r="6.23"></circle><circle cx="518.06" cy="127.66" r="6.23"></circle><circle cx="536" cy="127.66" r="6.23"></circle><circle cx="553.95" cy="127.66" r="6.23"></circle><circle cx="571.89" cy="127.66" r="6.23"></circle><circle cx="589.84" cy="127.66" r="6.23"></circle><path d="M607.78 121.43c-3.44 0-6.23 2.79-6.23 6.23s2.79 6.23 6.23 6.23 6.23-2.79 6.23-6.23-2.79-6.23-6.23-6.23Z"></path><circle cx="410.39" cy="151.52" r="6.23"></circle><circle cx="428.33" cy="151.52" r="6.23"></circle><path d="M446.28 145.3c-3.44 0-6.23 2.79-6.23 6.23s2.79 6.23 6.23 6.23 6.23-2.79 6.23-6.23-2.79-6.23-6.23-6.23ZM464.22 145.3c-3.44 0-6.23 2.79-6.23 6.23s2.79 6.23 6.23 6.23 6.23-2.79 6.23-6.23-2.79-6.23-6.23-6.23ZM482.17 145.3c-3.44 0-6.23 2.79-6.23 6.23s2.79 6.23 6.23 6.23 6.23-2.79 6.23-6.23-2.79-6.23-6.23-6.23Z"></path><circle cx="500.11" cy="151.52" r="6.23"></circle><circle cx="518.06" cy="151.52" r="6.23"></circle><circle cx="536" cy="151.52" r="6.23"></circle><circle cx="553.95" cy="151.52" r="6.23"></circle><circle cx="571.89" cy="151.52" r="6.23"></circle><circle cx="589.84" cy="151.52" r="6.23"></circle><path d="M607.78 145.3c-3.44 0-6.23 2.79-6.23 6.23s2.79 6.23 6.23 6.23 6.23-2.79 6.23-6.23-2.79-6.23-6.23-6.23Z"></path><circle cx="410.39" cy="175.39" r="6.23"></circle><circle cx="428.33" cy="175.39" r="6.23"></circle><path d="M446.28 169.16c-3.44 0-6.23 2.79-6.23 6.23s2.79 6.23 6.23 6.23 6.23-2.79 6.23-6.23-2.79-6.23-6.23-6.23ZM464.22 169.16c-3.44 0-6.23 2.79-6.23 6.23s2.79 6.23 6.23 6.23 6.23-2.79 6.23-6.23-2.79-6.23-6.23-6.23ZM482.17 169.16c-3.44 0-6.23 2.79-6.23 6.23s2.79 6.23 6.23 6.23 6.23-2.79 6.23-6.23-2.79-6.23-6.23-6.23Z"></path><circle cx="500.11" cy="175.39" r="6.23"></circle><circle cx="518.06" cy="175.39" r="6.23"></circle><circle cx="536" cy="175.39" r="6.23"></circle><circle cx="553.95" cy="175.39" r="6.23"></circle><circle cx="571.89" cy="175.39" r="6.23"></circle><circle cx="589.84" cy="175.39" r="6.23"></circle><path d="M607.78 169.16c-3.44 0-6.23 2.79-6.23 6.23s2.79 6.23 6.23 6.23 6.23-2.79 6.23-6.23-2.79-6.23-6.23-6.23Z"></path><circle cx="410.39" cy="199.26" r="6.23"></circle><circle cx="428.33" cy="199.26" r="6.23"></circle><path d="M446.28 193.03c-3.44 0-6.23 2.79-6.23 6.23s2.79 6.23 6.23 6.23 6.23-2.79 6.23-6.23-2.79-6.23-6.23-6.23ZM464.22 193.03c-3.44 0-6.23 2.79-6.23 6.23s2.79 6.23 6.23 6.23 6.23-2.79 6.23-6.23-2.79-6.23-6.23-6.23ZM482.17 193.03c-3.44 0-6.23 2.79-6.23 6.23s2.79 6.23 6.23 6.23 6.23-2.79 6.23-6.23-2.79-6.23-6.23-6.23Z"></path><circle cx="500.11" cy="199.26" r="6.23"></circle><circle cx="518.06" cy="199.26" r="6.23"></circle><circle cx="536" cy="199.26" r="6.23"></circle><circle cx="553.95" cy="199.26" r="6.23"></circle><circle cx="571.89" cy="199.26" r="6.23"></circle><circle cx="589.84" cy="199.26" r="6.23"></circle><path d="M607.78 193.03c-3.44 0-6.23 2.79-6.23 6.23s2.79 6.23 6.23 6.23 6.23-2.79 6.23-6.23-2.79-6.23-6.23-6.23Z"></path><circle cx="410.39" cy="223.12" r="6.23"></circle><circle cx="428.33" cy="223.12" r="6.23"></circle><path d="M446.28 216.9c-3.44 0-6.23 2.79-6.23 6.23s2.79 6.23 6.23 6.23 6.23-2.79 6.23-6.23-2.79-6.23-6.23-6.23ZM464.22 216.9c-3.44 0-6.23 2.79-6.23 6.23s2.79 6.23 6.23 6.23 6.23-2.79 6.23-6.23-2.79-6.23-6.23-6.23ZM482.17 216.9c-3.44 0-6.23 2.79-6.23 6.23s2.79 6.23 6.23 6.23 6.23-2.79 6.23-6.23-2.79-6.23-6.23-6.23Z"></path><circle cx="500.11" cy="223.12" r="6.23"></circle><circle cx="518.06" cy="223.12" r="6.23"></circle><circle cx="536" cy="223.12" r="6.23"></circle><circle cx="553.95" cy="223.12" r="6.23"></circle><circle cx="571.89" cy="223.12" r="6.23"></circle><circle cx="589.84" cy="223.12" r="6.23"></circle><path d="M607.78 216.9c-3.44 0-6.23 2.79-6.23 6.23s2.79 6.23 6.23 6.23 6.23-2.79 6.23-6.23-2.79-6.23-6.23-6.23Z"></path><circle cx="410.39" cy="246.99" r="6.23"></circle><circle cx="428.33" cy="246.99" r="6.23"></circle><path d="M446.28 240.76c-3.44 0-6.23 2.79-6.23 6.23s2.79 6.23 6.23 6.23 6.23-2.79 6.23-6.23-2.79-6.23-6.23-6.23ZM464.22 240.76c-3.44 0-6.23 2.79-6.23 6.23s2.79 6.23 6.23 6.23 6.23-2.79 6.23-6.23-2.79-6.23-6.23-6.23ZM482.17 240.76c-3.44 0-6.23 2.79-6.23 6.23s2.79 6.23 6.23 6.23 6.23-2.79 6.23-6.23-2.79-6.23-6.23-6.23Z"></path><circle cx="500.11" cy="246.99" r="6.23"></circle><circle cx="518.06" cy="246.99" r="6.23"></circle><circle cx="536" cy="246.99" r="6.23"></circle><circle cx="553.95" cy="246.99" r="6.23"></circle><circle cx="571.89" cy="246.99" r="6.23"></circle><circle cx="589.84" cy="246.99" r="6.23"></circle><path d="M607.78 240.76c-3.44 0-6.23 2.79-6.23 6.23s2.79 6.23 6.23 6.23 6.23-2.79 6.23-6.23-2.79-6.23-6.23-6.23ZM410.39 264.63c-3.44 0-6.23 2.79-6.23 6.23s2.79 6.23 6.23 6.23 6.23-2.79 6.23-6.23-2.79-6.23-6.23-6.23ZM428.33 264.63c-3.44 0-6.23 2.79-6.23 6.23s2.79 6.23 6.23 6.23 6.23-2.79 6.23-6.23-2.79-6.23-6.23-6.23ZM446.28 264.63c-3.44 0-6.23 2.79-6.23 6.23s2.79 6.23 6.23 6.23 6.23-2.79 6.23-6.23-2.79-6.23-6.23-6.23ZM464.22 264.63c-3.44 0-6.23 2.79-6.23 6.23s2.79 6.23 6.23 6.23 6.23-2.79 6.23-6.23-2.79-6.23-6.23-6.23ZM482.17 264.63c-3.44 0-6.23 2.79-6.23 6.23s2.79 6.23 6.23 6.23 6.23-2.79 6.23-6.23-2.79-6.23-6.23-6.23ZM500.11 264.63c-3.44 0-6.23 2.79-6.23 6.23s2.79 6.23 6.23 6.23 6.23-2.79 6.23-6.23-2.79-6.23-6.23-6.23ZM518.06 264.63c-3.44 0-6.23 2.79-6.23 6.23s2.79 6.23 6.23 6.23 6.23-2.79 6.23-6.23-2.79-6.23-6.23-6.23ZM536 264.63c-3.44 0-6.23 2.79-6.23 6.23s2.79 6.23 6.23 6.23 6.23-2.79 6.23-6.23-2.79-6.23-6.23-6.23ZM553.95 264.63c-3.44 0-6.23 2.79-6.23 6.23s2.79 6.23 6.23 6.23 6.23-2.79 6.23-6.23-2.79-6.23-6.23-6.23ZM571.89 264.63c-3.44 0-6.23 2.79-6.23 6.23s2.79 6.23 6.23 6.23 6.23-2.79 6.23-6.23-2.79-6.23-6.23-6.23ZM589.84 264.63c-3.44 0-6.23 2.79-6.23 6.23s2.79 6.23 6.23 6.23 6.23-2.79 6.23-6.23-2.79-6.23-6.23-6.23ZM607.78 264.63c-3.44 0-6.23 2.79-6.23 6.23s2.79 6.23 6.23 6.23 6.23-2.79 6.23-6.23-2.79-6.23-6.23-6.23ZM410.39 288.49c-3.44 0-6.23 2.79-6.23 6.23s2.79 6.23 6.23 6.23 6.23-2.79 6.23-6.23-2.79-6.23-6.23-6.23ZM428.33 288.49c-3.44 0-6.23 2.79-6.23 6.23s2.79 6.23 6.23 6.23 6.23-2.79 6.23-6.23-2.79-6.23-6.23-6.23ZM446.28 288.49c-3.44 0-6.23 2.79-6.23 6.23s2.79 6.23 6.23 6.23 6.23-2.79 6.23-6.23-2.79-6.23-6.23-6.23ZM464.22 288.49c-3.44 0-6.23 2.79-6.23 6.23s2.79 6.23 6.23 6.23 6.23-2.79 6.23-6.23-2.79-6.23-6.23-6.23ZM482.17 288.49c-3.44 0-6.23 2.79-6.23 6.23s2.79 6.23 6.23 6.23 6.23-2.79 6.23-6.23-2.79-6.23-6.23-6.23ZM500.11 288.49c-3.44 0-6.23 2.79-6.23 6.23s2.79 6.23 6.23 6.23 6.23-2.79 6.23-6.23-2.79-6.23-6.23-6.23ZM518.06 288.49c-3.44 0-6.23 2.79-6.23 6.23s2.79 6.23 6.23 6.23 6.23-2.79 6.23-6.23-2.79-6.23-6.23-6.23ZM536 288.49c-3.44 0-6.23 2.79-6.23 6.23s2.79 6.23 6.23 6.23 6.23-2.79 6.23-6.23-2.79-6.23-6.23-6.23ZM553.95 288.49c-3.44 0-6.23 2.79-6.23 6.23s2.79 6.23 6.23 6.23 6.23-2.79 6.23-6.23-2.79-6.23-6.23-6.23ZM571.89 288.49c-3.44 0-6.23 2.79-6.23 6.23s2.79 6.23 6.23 6.23 6.23-2.79 6.23-6.23-2.79-6.23-6.23-6.23ZM589.84 288.49c-3.44 0-6.23 2.79-6.23 6.23s2.79 6.23 6.23 6.23 6.23-2.79 6.23-6.23-2.79-6.23-6.23-6.23ZM607.78 288.49c-3.44 0-6.23 2.79-6.23 6.23s2.79 6.23 6.23 6.23 6.23-2.79 6.23-6.23-2.79-6.23-6.23-6.23ZM410.39 312.36c-3.44 0-6.23 2.79-6.23 6.23s2.79 6.23 6.23 6.23 6.23-2.79 6.23-6.23-2.79-6.23-6.23-6.23ZM428.33 312.36c-3.44 0-6.23 2.79-6.23 6.23s2.79 6.23 6.23 6.23 6.23-2.79 6.23-6.23-2.79-6.23-6.23-6.23ZM446.28 312.36c-3.44 0-6.23 2.79-6.23 6.23s2.79 6.23 6.23 6.23 6.23-2.79 6.23-6.23-2.79-6.23-6.23-6.23ZM464.22 312.36c-3.44 0-6.23 2.79-6.23 6.23s2.79 6.23 6.23 6.23 6.23-2.79 6.23-6.23-2.79-6.23-6.23-6.23ZM482.17 312.36c-3.44 0-6.23 2.79-6.23 6.23s2.79 6.23 6.23 6.23 6.23-2.79 6.23-6.23-2.79-6.23-6.23-6.23ZM500.11 312.36c-3.44 0-6.23 2.79-6.23 6.23s2.79 6.23 6.23 6.23 6.23-2.79 6.23-6.23-2.79-6.23-6.23-6.23ZM518.06 312.36c-3.44 0-6.23 2.79-6.23 6.23s2.79 6.23 6.23 6.23 6.23-2.79 6.23-6.23-2.79-6.23-6.23-6.23ZM536 312.36c-3.44 0-6.23 2.79-6.23 6.23s2.79 6.23 6.23 6.23 6.23-2.79 6.23-6.23-2.79-6.23-6.23-6.23ZM553.95 312.36c-3.44 0-6.23 2.79-6.23 6.23s2.79 6.23 6.23 6.23 6.23-2.79 6.23-6.23-2.79-6.23-6.23-6.23ZM571.89 312.36c-3.44 0-6.23 2.79-6.23 6.23s2.79 6.23 6.23 6.23 6.23-2.79 6.23-6.23-2.79-6.23-6.23-6.23ZM589.84 312.36c-3.44 0-6.23 2.79-6.23 6.23s2.79 6.23 6.23 6.23 6.23-2.79 6.23-6.23-2.79-6.23-6.23-6.23ZM607.78 312.36c-3.44 0-6.23 2.79-6.23 6.23s2.79 6.23 6.23 6.23 6.23-2.79 6.23-6.23-2.79-6.23-6.23-6.23ZM392.44 95.46c-4.6 0-8.33 3.73-8.33 8.33s3.73 8.33 8.33 8.33 8.33-3.73 8.33-8.33-3.73-8.33-8.33-8.33ZM374.5 95.46c-4.6 0-8.33 3.73-8.33 8.33s3.73 8.33 8.33 8.33 8.33-3.73 8.33-8.33-3.73-8.33-8.33-8.33ZM356.55 95.46c-4.6 0-8.33 3.73-8.33 8.33s3.73 8.33 8.33 8.33 8.33-3.73 8.33-8.33-3.73-8.33-8.33-8.33ZM338.61 95.46c-4.6 0-8.33 3.73-8.33 8.33s3.73 8.33 8.33 8.33 8.33-3.73 8.33-8.33-3.73-8.33-8.33-8.33ZM320.67 95.46c-4.6 0-8.33 3.73-8.33 8.33s3.73 8.33 8.33 8.33 8.33-3.73 8.33-8.33-3.73-8.33-8.33-8.33ZM392.44 119.33c-4.6 0-8.33 3.73-8.33 8.33s3.73 8.33 8.33 8.33 8.33-3.73 8.33-8.33-3.73-8.33-8.33-8.33ZM374.5 119.33c-4.6 0-8.33 3.73-8.33 8.33s3.73 8.33 8.33 8.33 8.33-3.73 8.33-8.33-3.73-8.33-8.33-8.33ZM356.55 119.33c-4.6 0-8.33 3.73-8.33 8.33s3.73 8.33 8.33 8.33 8.33-3.73 8.33-8.33-3.73-8.33-8.33-8.33ZM338.61 119.33c-4.6 0-8.33 3.73-8.33 8.33s3.73 8.33 8.33 8.33 8.33-3.73 8.33-8.33-3.73-8.33-8.33-8.33ZM320.67 119.33c-4.6 0-8.33 3.73-8.33 8.33s3.73 8.33 8.33 8.33 8.33-3.73 8.33-8.33-3.73-8.33-8.33-8.33Z"></path><circle cx="392.44" cy="151.52" r="8.33"></circle><circle cx="374.5" cy="151.52" r="8.33"></circle><circle cx="356.55" cy="151.52" r="8.33"></circle><circle cx="338.61" cy="151.52" r="8.33"></circle><circle cx="320.67" cy="151.52" r="8.33"></circle><circle cx="392.44" cy="175.39" r="8.33"></circle><circle cx="374.5" cy="175.39" r="8.33"></circle><circle cx="356.55" cy="175.39" r="8.33"></circle><circle cx="338.61" cy="175.39" r="8.33"></circle><circle cx="320.67" cy="175.39" r="8.33"></circle><circle cx="392.44" cy="199.26" r="8.33"></circle><circle cx="374.5" cy="199.26" r="8.33"></circle><circle cx="356.55" cy="199.26" r="8.33"></circle><circle cx="338.61" cy="199.26" r="8.33"></circle><circle cx="320.67" cy="199.26" r="8.33"></circle><path d="M392.44 214.79c-4.6 0-8.33 3.73-8.33 8.33s3.73 8.33 8.33 8.33 8.33-3.73 8.33-8.33-3.73-8.33-8.33-8.33ZM374.5 214.79c-4.6 0-8.33 3.73-8.33 8.33s3.73 8.33 8.33 8.33 8.33-3.73 8.33-8.33-3.73-8.33-8.33-8.33ZM356.55 214.79c-4.6 0-8.33 3.73-8.33 8.33s3.73 8.33 8.33 8.33 8.33-3.73 8.33-8.33-3.73-8.33-8.33-8.33ZM338.61 214.79c-4.6 0-8.33 3.73-8.33 8.33s3.73 8.33 8.33 8.33 8.33-3.73 8.33-8.33-3.73-8.33-8.33-8.33ZM320.67 214.79c-4.6 0-8.33 3.73-8.33 8.33s3.73 8.33 8.33 8.33 8.33-3.73 8.33-8.33-3.73-8.33-8.33-8.33ZM392.44 238.66c-4.6 0-8.33 3.73-8.33 8.33s3.73 8.33 8.33 8.33 8.33-3.73 8.33-8.33-3.73-8.33-8.33-8.33ZM374.5 238.66c-4.6 0-8.33 3.73-8.33 8.33s3.73 8.33 8.33 8.33 8.33-3.73 8.33-8.33-3.73-8.33-8.33-8.33ZM356.55 238.66c-4.6 0-8.33 3.73-8.33 8.33s3.73 8.33 8.33 8.33 8.33-3.73 8.33-8.33-3.73-8.33-8.33-8.33ZM338.61 238.66c-4.6 0-8.33 3.73-8.33 8.33s3.73 8.33 8.33 8.33 8.33-3.73 8.33-8.33-3.73-8.33-8.33-8.33ZM392.44 262.53c-4.6 0-8.33 3.73-8.33 8.33s3.73 8.33 8.33 8.33 8.33-3.73 8.33-8.33-3.73-8.33-8.33-8.33ZM374.5 262.53c-4.6 0-8.33 3.73-8.33 8.33s3.73 8.33 8.33 8.33 8.33-3.73 8.33-8.33-3.73-8.33-8.33-8.33ZM356.55 262.53c-4.6 0-8.33 3.73-8.33 8.33s3.73 8.33 8.33 8.33 8.33-3.73 8.33-8.33-3.73-8.33-8.33-8.33ZM392.44 286.39c-4.6 0-8.33 3.73-8.33 8.33s3.73 8.33 8.33 8.33 8.33-3.73 8.33-8.33-3.73-8.33-8.33-8.33ZM374.5 286.39c-4.6 0-8.33 3.73-8.33 8.33s3.73 8.33 8.33 8.33 8.33-3.73 8.33-8.33-3.73-8.33-8.33-8.33ZM392.44 310.26c-4.6 0-8.33 3.73-8.33 8.33s3.73 8.33 8.33 8.33 8.33-3.73 8.33-8.33-3.73-8.33-8.33-8.33Z"></path></svg>