<svg data-name="Layer 1" xmlns="http://www.w3.org/2000/svg" viewBox="0 0 406.86 623.16"><path d="M203.43 0C91.26 0 0 91.26 0 203.43v216.31c0 112.17 91.26 203.43 203.43 203.43s203.43-91.26 203.43-203.43V203.43C406.86 91.26 315.6 0 203.43 0ZM41.41 203.43c0-89.34 72.68-162.02 162.02-162.02 19.12 0 37.47 3.35 54.52 9.46L41.41 267.41v-63.99Zm0 122.55L296.48 70.91c41.67 29.35 68.97 77.79 68.97 132.52v43.9l-90.82 90.82V232.08L168.57 338.14V232.08L41.41 359.24v-33.26Zm324.04 11.62v14.97l-90.82 90.82v-14.97l90.82-90.81Zm-90.82 53.17V375.8l90.82-90.82v14.97l-90.82 90.81Zm-26.62-79.44-79.44 79.44V375.8l79.44-79.44v14.97Zm0 37.64v14.97l-79.44 79.44v-14.97l79.44-79.44Zm0 52.61v45.56h-45.56l45.56-45.56ZM96.39 447.14l45.56-45.56v45.56H96.39Zm45.56-83.2-83.2 83.2H43.78l98.17-98.17v14.97Zm166.57 83.2 56.93-56.93v29.53c0 9.34-.86 18.48-2.39 27.4h-54.54ZM41.41 396.88l100.53-100.53v14.97L41.41 411.85v-14.97Zm162.02 184.88c-64.22 0-119.84-37.56-146.03-91.87h292.06c-26.19 54.31-81.81 91.87-146.03 91.87Z"></path></svg>