<svg xmlns="http://www.w3.org/2000/svg" width="628.5" viewBox="0 0 628.5 628.5" height="628.5" xml:space="preserve" style="enable-background:new 0 0 628.5 628.5"><path d="M360.5 430h-94.3v194.9c15.6 2.4 31.7 3.6 48 3.6 15.7 0 31.2-1.2 46.3-3.4V430zM209 610.4V372.7h45.2l-72.8-185.2-72.8 185.2H152v210.8c17.9 10.8 37 19.8 57 26.9zM474.9 584.5V372.7h45.2l-72.8-185.2-72.8 185.2H418v238.4c19.9-7 38.9-16 56.9-26.6z"></path><path d="M314.3 0C140.7 0 0 140.7 0 314.3 0 402.4 36.3 482 94.7 539V430H26.2L181.3 35.6l132.9 338 132.9-338L602.4 430h-70.2v110.7c59.4-57.2 96.4-137.5 96.4-226.4C628.5 140.7 487.8 0 314.3 0z"></path></svg>