<svg xmlns="http://www.w3.org/2000/svg" width="617" viewBox="0 0 617 619.6" height="619.6" xml:space="preserve" style="enable-background:new 0 0 617 619.6"><path d="M308.5 0C138.4 0 0 139 0 309.8s138.4 309.8 308.5 309.8S617 480.6 617 309.8 478.6 0 308.5 0zm181.9 171.6c-36.9 48.3-90.8 79.5-150.9 87.4 36.5-12.8 62.6-47.5 62.6-88.4 0-40.3-25.4-74.6-61.1-87.9 60.8 8.8 113.9 41.8 149.4 88.9zM276 82.8c-35.7 13.2-61.1 47.6-61.1 87.9 0 40.3 25.5 74.7 61.3 87.9-58.9-8.7-112.7-40.3-148.9-87.7 35.4-46.8 88.2-79.4 148.7-88.1zm32.5 456.4c-125.8 0-228.1-102.9-228.1-229.4 0-21.3 2.9-41.8 8.4-61.4 57.4 58.3 136.9 92.7 220.3 92.7 84.2 0 162.3-33.3 219.5-91.4 5.2 19.2 8 39.3 8 60.1 0 126.5-102.4 229.4-228.1 229.4z"></path></svg>