<svg data-name="Layer 1" xmlns="http://www.w3.org/2000/svg" viewBox="0 0 437.98 621.78"><path d="M0 0v416.01h.44C7.3 530.62 102.68 621.78 218.99 621.78s211.69-91.15 218.55-205.77h.44V0H0Zm26.94 389.57c6.52-95.66 83.18-172.31 178.83-178.83v178.83H26.94Zm205.27-178.83c95.66 6.52 172.31 83.18 178.83 178.83H232.21V210.74ZM26.43 26.43h179.34v157.81c-77.46 4.64-144.2 49.68-179.34 114.32V26.43Zm192.56 568.91c-101.73 0-185.23-79.31-192.05-179.33h384.1c-6.82 100.02-90.32 179.33-192.05 179.33Zm13.22-411.1V26.43h179.34v272.13c-35.13-64.64-101.88-109.69-179.34-114.32Z"></path></svg>