<svg xmlns="http://www.w3.org/2000/svg" width="535.4" viewBox="0 0 535.4 608.3" height="608.3" xml:space="preserve" style="enable-background:new 0 0 535.4 608.3"><path d="M7 428.5C39.6 532 135.9 607.2 249.8 608.3c142.7 1.3 258.6-112.4 259.7-255.2.5-69.2-26.3-132.1-70.2-178.6l51-94.7c1.7.2 3.3.3 5.1.3 23 0 41.5-19.5 39.9-42.9C533.9 17.5 518 1.5 498.2.1 474.8-1.5 455.4 17 455.4 40c0 8.8 2.8 16.9 7.6 23.5L341.7 288.7V76.3c14.6-6.8 24.4-22.2 22.9-39.7-1.6-19.5-17.5-35.1-37-36.5C304.2-1.5 284.7 17 284.7 40c0 17.3 11 32 26.4 37.6v308.1c0 84-68.8 152.8-152.8 152.8h-2c-38.3 0-73-14.7-99.8-38.4-.6-.5.1-1.4.8-1 23.6 17.5 52.9 27.9 84.6 27.8 76.8-.2 139.8-62.6 140.9-139.3 1.1-79-62.6-143.4-141.4-143.4C63.3 244.2 0 307.5 0 385.6c0 14.8 2.7 29.5 7 42.9z"></path></svg>