<svg xmlns="http://www.w3.org/2000/svg" width="609.2" viewBox="0 0 609.2 609.2" height="609.2" xml:space="preserve" style="enable-background:new 0 0 609.2 609.2"><path d="M99.5 529.8h410.1c61.1-55.7 99.5-136 99.5-225.2C609.2 136.4 472.8 0 304.6 0S0 136.4 0 304.6c0 89.2 38.4 169.5 99.5 225.2zm130.3-438h149.5c8.1 48.6 20.4 95.7 36.4 141.1H193.4c16.1-45.3 28.4-92.5 36.4-141.1zm-41.1 154h231.7c6.1 16.3 12.6 32.3 19.7 48.1H169c7.1-15.8 13.6-31.8 19.7-48.1zm-30.1 70.5h292c6.3 13 12.9 25.8 19.8 38.5H138.8c6.9-12.6 13.5-25.4 19.8-38.5zm-38.4 70.6h368.7c6.3 10.3 12.8 20.5 19.5 30.5H100.7c6.8-10 13.3-20.2 19.5-30.5zm-48 70.5h464.7c5.3 7 10.7 13.9 16.2 20.7h-497c5.5-6.8 10.8-13.7 16.1-20.7zM109.3 538.3c52.9 44.2 120.9 70.8 195.2 70.8s142.4-26.6 195.2-70.8H109.3z"></path></svg>