<svg xmlns="http://www.w3.org/2000/svg" width="609.1" viewBox="0 0 609.1 572" height="572"><path d="M579.4 130.8L448.6 0l-62.5 62.5L528 204.4l-19.1 19.1L367 81.6l-62.5 62.5 142 141.9-141.9 141.8 62.5 62.5 242-242v-45.8c0-26.9-10.7-52.7-29.7-71.7zM448.7 571.9l126.5-126.5c21.7-21.7 33.9-51.2 33.9-81.9v-76.9L386.2 509.4l62.5 62.5zM304.5 144.1L242 81.7 0 323.7v45.8c0 26.9 10.7 52.7 29.7 71.7L160.5 572l62.5-62.5L81 367.6l19.1-19.1L242 490.4l62.5-62.5L162.6 286l141.9-141.9zM160.4.1L33.9 126.6C12.2 148.3 0 177.7 0 208.4v76.9L222.9 62.5 160.4.1z"></path></svg>