<svg xmlns="http://www.w3.org/2000/svg" width="642" viewBox="0 0 642 642" height="642" style="overflow:visible;enable-background:new 0 0 642 642" xml:space="preserve"><path d="M641.4 301.5C631.3 133.3 491.7 0 321 0S10.7 133.3.6 301.5C.2 308 0 314.5 0 321c0 6.4.2 12.8.6 19.1 11.1 0 21.7-.8 32-1.9C75.8 333.3 114 321 160.5 321c57.8 0 102.7 19.1 160.5 19.1S423.7 321 481.5 321c46.5 0 84.7 12.3 127.9 17.2 10.3 1.1 20.9 1.9 32 1.9.4-6.3.6-12.6.6-19.1 0-6.5-.2-13-.6-19.5zm-159.9-19c-57.8 0-102.7 19.1-160.5 19.1s-102.7-19.1-160.5-19.1c-46.4 0-84.5 12.3-127.6 17.1C43.8 150 168.7 32.1 321 32.1S598.2 150 609.1 299.6c-43-4.9-81.2-17.1-127.6-17.1z"></path><path d="M0 340.1V321c0 6.4.2 12.8.6 19.1H0zM.6 301.5C.2 308 0 314.5 0 321v-19.5h.6zM642 301.5V321c0-6.5-.2-13-.6-19.5h.6zM641.4 340.1c.4-6.3.6-12.6.6-19.1v19.1h-.6zM640.2 354.6c-1.3 13.1-3.5 25.9-6.4 38.5-11.2-.3-21.9-1.3-32.4-2.7-40-5.4-76.3-16.2-120-16.2-57.8 0-102.7 19.1-160.5 19.1s-102.7-19.1-160.5-19.1c-43.7 0-79.9 10.8-120 16.2-10.5 1.3-21.2 2.4-32.4 2.7-2.9-12.5-5.1-25.4-6.4-38.4v-.1c11.1 0 21.7-.8 32-2 42.8-4.9 80.6-17 126.7-17 57.8 0 102.7 19.1 160.5 19.1s102.7-19.1 160.5-19.1c46 0 84 12.1 126.7 17 10.5 1.3 21.1 2 32.2 2z"></path><path d="M630.1 407.5c-3.5 12.9-7.9 25.4-13 37.6-11.4-1-22.3-2.6-33.1-4.4-33.4-5.6-65.3-13.5-102.5-13.5-57.8 0-102.7 19.1-160.5 19.1s-102.7-19.1-160.5-19.1c-37.2 0-69 7.9-102.5 13.5-10.8 1.9-21.8 3.5-33.1 4.4-5.1-12.2-9.5-24.7-13-37.6 11.2-.5 22-1.7 32.5-3.1 38.5-5.5 73.9-15.7 116.1-15.7 57.8 0 102.7 19.1 160.5 19.1s102.7-19.1 160.5-19.1c42.2 0 77.6 10.2 116.1 15.7 10.6 1.5 21.4 2.6 32.5 3.1z"></path><path d="M610.7 459.2c-5.9 12.4-12.6 24.4-20 35.8-11.7-1.9-23.1-4-34.6-6.1-23.8-4.4-47.8-8.5-74.6-8.5-57.8 0-102.7 19.1-160.5 19.1s-102.7-19.1-160.5-19.1c-26.8 0-50.8 4.1-74.6 8.5-11.5 2.1-22.9 4.3-34.6 6.1-7.4-11.4-14.1-23.4-20-35.8 11.4-1.2 22.4-3 33.3-4.9 31.1-5.5 61.2-12.4 95.9-12.4 57.8 0 102.7 19.1 160.5 19.1s102.7-19.1 160.5-19.1c34.7 0 64.9 6.9 95.9 12.4 10.9 1.9 22 3.7 33.3 4.9z"></path><path d="M581.7 508.2c-8.5 11.8-17.7 23-27.7 33.5-13-2.4-26-4.7-39.5-6.2-10.7-1.2-21.6-1.9-33-1.9-57.8 0-102.7 19.1-160.5 19.1s-102.7-19.1-160.5-19.1c-11.4 0-22.3.8-33 1.9-13.5 1.5-26.6 3.8-39.5 6.2-10-10.5-19.2-21.7-27.7-33.5 11.9-2.1 23.6-4.4 35.4-6.4 20.7-3.7 41.7-6.7 64.8-6.7 57.8 0 102.7 19.1 160.5 19.1S423.7 495 481.5 495c23.1 0 44.2 3 64.8 6.7 11.9 2.1 23.6 4.5 35.4 6.5z"></path><path d="M541.7 554c-12.8 12.2-26.7 23.3-41.5 33.3-6.1-.4-12.3-.7-18.7-.7-22.5 0-43.1 2.9-63.3 6.4l-.1.1c-31.5 5.5-61.9 12.6-97.1 12.6s-65.6-7.1-97.1-12.6c0 0-.1 0-.1-.1-20.2-3.5-40.8-6.4-63.3-6.4-6.4 0-12.6.3-18.7.7-14.8-10-28.6-21.1-41.5-33.3 13.9-2.4 28-4.4 42.9-5.3 5.6-.4 11.4-.6 17.3-.6 57.8 0 102.7 19.1 160.5 19.1s102.7-19.1 160.5-19.1c5.9 0 11.6.2 17.3.6 14.9.9 29 3 42.9 5.3z"></path><path d="M477.3 601.4C431 627.2 377.7 642 321 642s-110-14.8-156.3-40.6c55.8.8 99.9 19 156.3 19s100.5-18.2 156.3-19z"></path></svg>