<svg xmlns="http://www.w3.org/2000/svg" width="642" viewBox="0 0 642 630.8" height="630.8" style="overflow:visible;enable-background:new 0 0 642 630.8" xml:space="preserve"><path d="M249.1 0h50.4l27.7 90.7-45.4 139.8h-50.6l45.5-140.3zM180.5 230.5l45.7-140.7L198.8 0h-50.4l27.4 89.4-45.9 141zM35.1 230.5l94.8-.1 123.8 86.4-15.5 47.9-123.4-86.1-91.4.1zM0 374.9l11.7-48.1 88-.1 122.9 85.9-15.5 47.9-122.5-85.6zM180.5 542.4l26.6-81.9 120.1-90.3 40.1 30.1-119.1 89.5-26.6 82zM303.7 630.8l26.7-82.3 117-88-40-30.1-118.1 88.7-26.6 82.2zM373.6 230.5l-16.1-46.6h150.6l70.4-54.2 15.8 47.1-69.8 53.7zM327.2 90.7h148.2L547 35.5l15.7 47.1-71 54.7H342.3zM400.7 316.9 442 288l46.1 142 72 49.3-41 30.3-71.7-49.1zM524.5 230.5l-41.2 28.7 45.5 140.3L601 449l41-30.3-72.4-49.6z"></path></svg>