<svg data-name="Layer 1" xmlns="http://www.w3.org/2000/svg" viewBox="0 0 615.69 466.69"><path d="M456.28 396.18h146.48c1.64-5.47 3.1-11.01 4.44-16.6H429.14l27.15 16.6ZM615.62 305.38H325.63c.06.6.18 1.18.18 1.79v9.2l26.18 16.02h262.62c.64-8.11 1.06-16.28 1.06-24.55 0-.82-.06-1.64-.06-2.46ZM611.73 258.66H3.96C2 270.89.78 283.36.3 296.03h293.58c3.3-4.12 8.31-6.82 13.97-6.82s10.66 2.7 13.97 6.82H615.4c-.48-12.67-1.7-25.14-3.66-37.37ZM509.44 428.69h81.59c2.12-4.95 4.13-9.96 5.99-15.04H484.84l24.6 15.04ZM403.63 363.97h206.86c1.16-6.3 2.13-12.67 2.9-19.1H372.4l31.23 19.1ZM510.44 76.17H105.25a309.154 309.154 0 0 0-54.99 63.17h515.16a309.38 309.38 0 0 0-54.99-63.17ZM307.84 0c-75.89 0-145.32 27.52-198.99 73.05h397.99C453.17 27.52 383.74 0 307.84 0ZM568.42 144.01H47.26a306.043 306.043 0 0 0-26.92 53.78h575.01a306.734 306.734 0 0 0-26.92-53.78ZM571.56 466.69c3.79-6.27 7.3-12.73 10.64-19.28h-42.16l31.52 19.28ZM597.69 204.03H17.99c-5.41 15.09-9.63 30.74-12.64 46.82h604.98c-3.01-16.08-7.23-31.73-12.64-46.82ZM12.93 396.18h146.48l27.15-16.6H8.49c1.34 5.59 2.8 11.13 4.44 16.6ZM44.12 466.69l31.52-19.28H33.48c3.34 6.56 6.85 13.01 10.64 19.28ZM5.2 363.97h206.86l31.23-19.1H2.3c.77 6.43 1.74 12.8 2.9 19.1ZM0 307.84c0 8.27.42 16.44 1.06 24.55h262.63l26.18-16.01v-9.2c0-.61.12-1.2.18-1.79H.06c0 .82-.06 1.63-.06 2.46ZM24.65 428.69h81.6l24.6-15.04H18.67c1.86 5.08 3.87 10.09 5.99 15.04Z"></path></svg>