<svg data-name="Layer 1" xmlns="http://www.w3.org/2000/svg" viewBox="0 0 620.08 597.35"><path d="M239.6 214.56c0-91.49 74.43-165.92 165.92-165.92s165.92 74.43 165.92 165.92c0 20.43-3.7 40.32-10.92 59.2h51.25c5.5-19.16 8.32-38.98 8.32-59.2C620.08 96.25 523.83 0 405.52 0S190.95 96.25 190.95 214.56c0 20.22 2.82 40.04 8.32 59.2h51.25c-7.22-18.88-10.92-38.77-10.92-59.2Z"></path><path d="M405.41 56.6c-87.04 0-157.86 70.82-157.86 157.86 0 20.48 3.87 40.39 11.49 59.2h54.61c-3.64-5.65-6.85-11.65-9.45-18.05-5.31-13.03-8-26.88-8-41.14 0-60.22 48.99-109.22 109.22-109.22s109.22 48.99 109.22 109.22c0 14.27-2.69 28.11-8.01 41.15-2.6 6.4-5.82 12.39-9.45 18.05h54.61c7.62-18.81 11.49-38.72 11.49-59.2 0-87.04-70.82-157.86-157.86-157.86Z"></path><path d="M297.48 364.09c-79.23 45.74-180.91 18.5-226.65-60.73-45.74-79.23-18.5-180.91 60.73-226.65 17.69-10.22 36.77-16.95 56.73-20.14l-25.62-44.38a214.139 214.139 0 0 0-55.43 22.39C4.78 93.74-30.45 225.22 28.7 327.68c59.16 102.46 190.64 137.69 293.1 78.53a214.036 214.036 0 0 0 47.11-36.8l-25.62-44.38c-12.74 15.69-28.11 28.84-45.81 39.06Z"></path><path d="M77.73 299.4c43.52 75.38 140.26 101.3 215.64 57.78 17.73-10.24 33.04-23.55 45.52-39.55l-27.31-47.3c-3.08 5.98-6.67 11.76-10.91 17.21-8.63 11.12-19.28 20.37-31.63 27.5-52.16 30.11-119.08 12.18-149.2-39.98-30.11-52.16-12.18-119.08 39.98-149.2 12.35-7.13 25.69-11.72 39.64-13.64 6.84-.94 13.64-1.16 20.35-.84l-27.31-47.3c-20.1 2.81-39.28 9.41-57.01 19.65-75.38 43.52-101.3 140.26-57.78 215.64Z"></path><path d="M398.01 239.14c79.23 45.74 106.47 147.42 60.73 226.65-45.74 79.23-147.42 106.47-226.65 60.73-17.69-10.22-33.07-23.37-45.81-39.06l-25.62 44.38a214.036 214.036 0 0 0 47.11 36.8c102.46 59.16 233.94 23.92 293.1-78.53 59.16-102.46 23.92-233.94-78.53-293.1a213.787 213.787 0 0 0-55.43-22.39L341.29 219c19.96 3.19 39.04 9.92 56.73 20.14Z"></path><path d="M451.89 461.79c43.52-75.38 17.6-172.12-57.78-215.64-17.73-10.24-36.91-16.84-57.01-19.65l-27.31 47.3c6.71-.32 13.52-.1 20.36.84 13.94 1.92 27.28 6.51 39.63 13.64 52.16 30.11 70.09 97.04 39.98 149.2-30.11 52.16-97.04 70.09-149.2 39.98-12.35-7.13-23-16.39-31.64-27.51-4.24-5.45-7.83-11.23-10.9-17.21l-27.31 47.3c12.48 16 27.79 29.31 45.52 39.55 75.38 43.52 172.12 17.6 215.64-57.78Z"></path></svg>