<svg data-name="Layer 1" xmlns="http://www.w3.org/2000/svg" viewBox="0 0 621.77 538.89"><path d="M465.62 0H156.15c-.49 0-.99.25-1.24.69L.19 268.73c-.25.45-.25.99 0 1.44L154.92 538.2c.25.45.74.69 1.24.69h309.46c.5 0 .99-.25 1.24-.69l154.73-268.03c.25-.45.25-.99 0-1.44L466.85.69c-.25-.45-.74-.69-1.24-.69ZM141.6 270.56l99.74-173.99c.54-.94-.15-2.13-1.24-2.13h-32.22c-.49-.05-.99.2-1.24.64L105.02 272.33c-.25.45-.69.69-1.24.69l-62.47.79c-1.09 0-1.83-1.19-1.24-2.13L150.76 78.6l24.25-42.27c.25-.45.74-.74 1.24-.74l263.33.49c1.09 0 1.78 1.19 1.24 2.13l-32.37 56.48-100.53 175.42c-.25.45-.69.69-1.24.69l-62.42.74c-1.09 0-1.78-1.19-1.24-2.13l99-172.7c.54-.94-.15-2.13-1.24-2.13h-32.12c-.49-.05-.99.2-1.24.64L206.49 271.33c-.25.45-.74.69-1.24.69l-62.32.59c-1.09 0-1.78-1.19-1.24-2.13l-.1.05Zm388.51 90.73-31.48 53.8c-.25.45-.74.69-1.24.69H294.4c-.49 0-.99.3-1.24.74l-15.94 27.92c-.54.94.15 2.13 1.24 2.13h199.08c1.09 0 1.78 1.19 1.24 2.13l-31.68 53.8c-.25.45-.74.69-1.24.69H178.58c-1.09 0-1.78-1.19-1.24-2.13l130.53-228.68c.25-.45.74-.74 1.24-.74h271.3c1.09 0 1.78 1.19 1.24 2.18l-31.78 53.8c-.25.45-.74.69-1.24.69H344.3c-.49 0-.99.3-1.24.74l-15.99 27.97c-.54.94.15 2.13 1.24 2.13h200.52c1.09 0 1.78 1.19 1.24 2.13h.05Z"></path></svg>