<svg xmlns="http://www.w3.org/2000/svg" width="591.26" viewBox="0 0 591.26 589.9" height="589.9" xml:space="preserve" style="enable-background:new 0 0 591.26 589.9"><circle transform="rotate(-16.843 530.538 58.668)" cx="530.56" cy="58.69" class="st0" r="58.69"></circle><circle transform="rotate(-16.843 353.693 58.674)" cx="353.71" cy="58.69" class="st0" r="58.69"></circle><circle cx="176.85" cy="58.69" r="58.69" class="st0"></circle><circle transform="rotate(-4.052 441.156 147.94)" cx="441.19" cy="148.06" class="st0" r="58.69"></circle><circle transform="rotate(-22.5 264.323 148.057)" cx="264.34" cy="148.06" class="st0" r="58.69"></circle><circle transform="rotate(-80.781 87.484 148.061)" cx="87.48" cy="148.06" class="st0" r="58.69"></circle><circle cx="529.62" cy="236.49" r="58.69" class="st0"></circle><circle transform="rotate(-22.5 352.746 236.48)" cx="352.76" cy="236.49" class="st0" r="58.69"></circle><circle transform="rotate(-22.5 175.9 236.48)" cx="175.91" cy="236.49" class="st0" r="58.69"></circle><circle transform="rotate(-5.653 443.021 323.378)" cx="442.84" cy="323.26" class="st0" r="58.69"></circle><circle transform="rotate(-5.653 266.098 323.381)" cx="265.99" cy="323.26" class="st0" r="58.69"></circle><circle transform="rotate(-80.781 89.142 323.26)" cx="89.14" cy="323.26" class="st0" r="58.69"></circle><circle cx="532.57" cy="412.99" r="58.69" class="st0"></circle><circle cx="355.72" cy="412.99" r="58.69" class="st0"></circle><circle transform="rotate(-31.714 178.886 413.012)" cx="178.86" cy="412.99" class="st0" r="58.69"></circle><circle transform="rotate(-5.653 443.852 502.075)" cx="443.67" cy="501.89" class="st0" r="58.69"></circle><circle transform="rotate(-4.052 266.893 501.755)" cx="266.82" cy="501.89" class="st0" r="58.69"></circle><circle transform="rotate(-22.5 89.958 501.867)" cx="89.96" cy="501.89" class="st0" r="58.69"></circle><path d="M531.69 531.21c-32.41 0-58.69 26.28-58.69 58.69h117.38c0-32.41-26.28-58.69-58.69-58.69zM354.83 531.21c-32.41 0-58.69 26.28-58.69 58.69h117.38c0-32.41-26.28-58.69-58.69-58.69zM177.98 531.21c-32.41 0-58.69 26.28-58.69 58.69h117.38c0-32.41-26.28-58.69-58.69-58.69zM58.69 58.69C58.69 26.28 32.41 0 0 0v117.38c32.41 0 58.69-26.28 58.69-58.69zM57.74 236.49c0-32.1-25.77-58.16-57.74-58.67v117.33c31.98-.5 57.74-26.56 57.74-58.66zM60.7 412.99c0-32.41-26.28-58.69-58.69-58.69-.67 0-1.34.03-2.01.05v117.28c.67.02 1.34.05 2.01.05 32.41 0 58.69-26.28 58.69-58.69zM1.12 531.21c-.38 0-.75.02-1.12.03v58.66h59.81c0-32.41-26.27-58.69-58.69-58.69z" class="st0"></path></svg>