<svg data-name="Layer 1" xmlns="http://www.w3.org/2000/svg" viewBox="0 0 601.42 558.16"><path d="M300.71 131.63C291.2 57.39 227.82 0 151 0c-8.46 0-16.75.73-24.83 2.07-.05 2.01-.13 4.01-.13 6.03 0 107.91 72.29 196.45 163.33 203.3 5.61-12.85 9.5-26.62 11.35-41.04 1.85 14.42 5.73 28.19 11.34 41.04 91.05-6.85 163.34-95.39 163.34-203.3 0-2.02-.08-4.02-.13-6.03C467.19.73 458.9 0 450.44 0c-76.83 0-140.21 57.39-149.72 131.63Z"></path><path d="M270.03 270.99C159.7 254.83 73.13 152.75 65.31 26.68 25.87 53.92 0 99.43 0 150.99c0 83.39 67.6 151 151 151 20.53 0 40.09-4.11 57.93-11.53-59.41 45.39-77.35 128.88-38.97 195.35 22.4 38.8 59.42 63.86 100.08 72.32V270.99ZM601.42 150.99c0-51.57-25.87-97.07-65.31-124.31-7.82 126.07-94.39 228.15-204.72 244.31v287.16c15.36-3.19 30.49-8.81 44.82-17.08 72.22-41.7 96.96-134.04 55.27-206.26-10.23-17.72-23.52-32.56-38.81-44.28 17.79 7.37 37.29 11.46 57.75 11.46 83.39 0 151-67.6 151-151Z"></path></svg>