<svg xmlns="http://www.w3.org/2000/svg" width="613.8" viewBox="0 0 613.8 538.3" height="538.3" xml:space="preserve"><path d="M448 382.1 350.5 154c-9.1-23.3-16.5-27.1-45.8-27.1v-8.3h72.2c27.4 0 48.9 4.3 64.6 41L537 375.9c7.1 16.2 26.3 28.6 43.6 28.6 10.6 0 33.4-.3 33.4-24.1V87.6C614 39.3 574.8.1 526.5.1L228.9 0H85.1l2.5.1C39.2.1 0 39.2 0 87.6v31h116.5c27.4 0 39.5-2 56.7 40.5l94.2 216.8c7.1 16.2 10.6 31.4 41.5 31.4v8.1H236c-24.3 0-41.5-2-55.7-33.4L85.1 164.1c-12-25.8-24.3-34.2-52.7-34.4C20.2 129.7 0 138 0 155.2v295.5c0 48.3 39.2 87.5 87.5 87.5h438.7c48.3 0 87.5-39.2 87.5-87.5v-35.4H505.4c-24.3 0-43.3-1.8-57.4-33.2zm-4.9 33.2h-72.4c-24.3 0-43.6-4.1-57.7-35.5L215.7 154c-9.1-23.3-19.2-27.3-48.6-27.3v-8.1h84.1c27.3 0 39.5-2 56.7 40.5l93.2 216.8c7.1 16.2 9.6 31.4 42 31.4v8z"></path></svg>