<svg xmlns="http://www.w3.org/2000/svg" width="611.7" viewBox="0 0 611.7 611.7" height="611.7" xml:space="preserve" style="enable-background:new 0 0 611.7 611.7"><path d="M611.7 167.8V0H0v19.8h56.3V148H0v167.8h56.3V444H0v167.8h554.7v-148h57.1V296h-57.1V167.8h57zm-153.1-148h57.1V148h-57.1V19.8zm76.6 148V296h-57.1V167.8h57.1zm-76.6 0V296H401.5V167.8h57.1zM382 19.8h57.1V148H382V19.8zm0 148V296h-57V167.8h57zm-76.5-148h57.1V148h-57.1V19.8zm0 148V296h-57.1V167.8h57.1zm-76.6-148H286V148h-57.1V19.8zm0 148V296h-57.1V167.8h57.1zm-76.6-148h57.1V148h-57.1V19.8zm0 148V296h-57V167.8h57zm-76.5-148h57.1V148H75.8V19.8zM19.5 296V167.8h56.3V296H19.5zm56.4 295.9H19.5V463.8h56.3l.1 128.1zM75.8 444V315.8h57.1V444H75.8zm76.5 147.9h-57V463.8h57v128.1zm0-147.9V315.8h57.1V444h-57.1zm76.5 147.9h-56.9V463.8h56.9v128.1zm.1-147.9V315.8H286V444h-57.1zm76.6 147.9h-57.2V463.8h57.2v128.1zm0-147.9V315.8h57.1V444h-57.1zM382 591.9h-57V463.8h57v128.1zm0-147.9V315.8h57.1V444H382zm76.6 147.9h-57.1V463.8h57.1v128.1zm0-147.9V315.8h57.1V444h-57.1zm76.6 147.9h-57.1V463.8h57.1v128.1zm57-276.1V444h-57.1V315.8h57.1zm-57-167.8V19.8h57.1V148h-57.1z"></path></svg>