<svg xmlns="http://www.w3.org/2000/svg" viewBox="0 0 642 634.8"><path d="M642 399.64c0 129.88-105.29 235.16-235.11 235.16H261.02V349.95l119.93-110.88v275.94h25.94c63.56 0 115.31-51.75 115.31-115.37 0-33.96-14.77-64.52-38.2-85.65l-93.25-84.03 89.46-82.73 83.98 77.64C611.96 267.95 642 330.29 642 399.63Z"></path><path d="m233.67 515.01-97.84 97.84c-152.7-71.21-183.16-275.12-58.04-387.97L320.99 0l91.55 84.67L157.98 314c-23.43 21.12-38.2 51.68-38.2 85.65 0 63.17 50.98 114.6 113.9 115.37Z"></path></svg>