<svg data-name="Layer 1" xmlns="http://www.w3.org/2000/svg" viewBox="0 0 619.06 619.06"><path d="m619.06 309.75-62.87-62.87h-94.78l67.15-67.15V90.82h-88.92l-67.02 67.02V62.88L309.75 0l-62.87 62.88v94.78l-67.16-67.15H90.81v88.91l67.02 67.02H62.87L0 309.32l62.87 62.87h94.78L90.5 439.34v88.91h88.91l67.02-67.02v94.96l62.87 62.87 62.87-62.87v-94.78l67.15 67.15h88.91v-88.91l-67.02-67.02h94.96l62.87-62.87Zm-183.97-62.87h-49.45l124.31-124.31v49.45l-74.86 74.86Zm-81.08-70.44-34.96 34.96V35.62l34.96 34.96v105.86Zm-107.13 7.52v49.45l-124.31-124.3h49.45l74.86 74.85Zm-176.3 81.08h105.86L211.4 300H35.61l34.96-34.96Zm113.39 107.14h49.45l-124.3 124.3v-49.45l74.85-74.85Zm81.08 70.44 34.96-34.96v175.79l-34.96-34.96V442.63Zm107.14-7.52v-49.45l124.3 124.3h-49.45l-74.85-74.86Zm137.45 61.7L353.58 340.73v207.76l-34.96 34.96V362.74l-146.9 146.9h-49.45l156.06-156.06H70.58l-34.96-34.96h220.71l-146.91-146.9v-49.45l156.07 156.06V70.58l34.96-34.96v220.7l146.89-146.9h49.45L340.72 265.49h207.75l34.96 34.96H362.72l146.9 146.9v49.45Zm-67.02-142.78-34.96-34.96h175.79l-34.96 34.96H442.63Z"></path></svg>