<svg data-name="Layer 1" xmlns="http://www.w3.org/2000/svg" viewBox="0 0 611.45 584.84"><path d="M328.23 164.11C328.23 98.43 381.67 45 447.34 45s119.12 53.44 119.12 119.11h45C611.45 73.62 537.83 0 447.34 0c-60.31 0-113.09 32.72-141.61 81.33C277.21 32.72 224.42 0 164.11 0 73.62 0 0 73.62 0 164.11h45C45 98.43 98.44 45 164.11 45s119.12 53.44 119.12 119.11h45ZM558.72 212.38c-16.99 45.07-60.44 77.27-111.38 77.27s-94.38-32.2-111.38-77.27h-52.73v372.46h45V283.25c29.93 31.62 72.24 51.4 119.11 51.4 76.04 0 140.14-51.98 158.69-122.27h-47.31Z"></path></svg>