<svg xmlns="http://www.w3.org/2000/svg" width="609.3" viewBox="0 0 609.3 578.3" height="578.3" xml:space="preserve"><path d="m582.3 309.1-7.2-11.5-10.8 8.2c-30.7 23.1-48.3 58.4-48.3 96.8s17.6 73.7 48.3 96.8l10.8 8.2 7.2-11.5c17.6-28 27-60.3 27-93.5s-9.3-65.5-27-93.5zm-13.9 161c-17.7-17.9-27.6-41.8-27.6-67.4 0-25.6 9.9-49.6 27.6-67.4 10.5 20.9 15.9 43.9 15.9 67.4.1 23.5-5.4 46.5-15.9 67.4z"></path><path d="M487.4 402.6c0-45.8 20.5-88.7 56.3-117.5l12-9.7-12-9.7c-31.1-25-70.2-38.8-110.1-38.8-37.4 0-74 12.1-104.1 34.2 14.5-26 22.1-55.3 22.1-85.3 0-33.2-9.3-65.5-27-93.6l-7.2-11.5-10.8 8.2c-30.7 23.2-48.3 58.5-48.3 96.9 0 38.4 17.6 73.7 48.3 96.9 7.8 5.9 16.1 11.4 23.4 18 31.8 28.6 49.8 69 49.8 112 0 45.8-20.5 88.7-56.3 117.5l-12 9.7 12 9.7c31.1 25 70.2 38.8 110.1 38.8 39.9 0 79-13.8 110.1-38.8l12-9.7-12-9.7c-35.8-28.9-56.3-71.7-56.3-117.6zM310.8 243.3c-17.7-17.9-27.6-41.8-27.6-67.5 0-25.7 9.9-49.6 27.6-67.5 10.5 20.9 15.9 43.9 15.9 67.5s-5.5 46.6-15.9 67.5zm122.8 310.1c-29.7 0-57.9-8.4-82.4-24.5 34.2-33 53.5-78.2 53.5-126.3s-19.3-93.2-53.5-126.3c24.5-16.1 52.7-24.5 82.4-24.5 29.7 0 57.9 8.4 82.4 24.5-34.2 33-53.5 78.2-53.5 126.3s19.3 93.2 53.5 126.3c-24.5 16.1-52.7 24.5-82.4 24.5z"></path><path d="M349.1 402.6c0-36.6-16.1-70.6-44.4-93.7-15.1-12.3-30.5-24.3-42.7-39.7-10.9-13.7-19.3-29.3-24.8-46-5.1-15.3-7.6-31.4-7.6-47.5 0-45.9 20.5-88.7 56.3-117.6l12.1-9.7-12-9.6C254.9 13.8 215.8 0 175.8 0 135.9 0 96.7 13.8 65.6 38.8l-12.1 9.7 12.1 9.7c35.8 28.8 56.3 71.7 56.3 117.6s-20.5 88.7-56.3 117.6l-12.1 9.7 12.1 9.7c31.1 25 70.2 38.8 110.2 38.8 37.4 0 74.1-12.1 104.1-34.2-14.4 26-22.1 55.3-22.1 85.2 0 32.7 9.1 64.6 26.2 92.3l7.3 11.8 10.9-8.5c29.9-23.1 46.9-58 46.9-95.6zm-173.3-75.9c-29.8 0-58-8.4-82.5-24.5 34.2-33.1 53.6-78.3 53.6-126.3S127.6 82.5 93.3 49.5C117.8 33.4 146 25 175.8 25s58 8.4 82.5 24.5c-34.2 33.1-53.6 78.3-53.6 126.3s19.3 93.3 53.6 126.3c-24.5 16.2-52.7 24.6-82.5 24.6zM298 468.6c-10-20.5-15.2-43-15.2-66s5.2-45.5 15.2-66c16.8 17.8 26.2 41.1 26.2 66s-9.4 48.3-26.2 66z"></path><path d="M91.3 175.8c0-37.6-17.1-72.5-46.8-95.7l-11-8.5-7.3 11.8C9.1 111.1 0 143.1 0 175.8s9.1 64.7 26.2 92.4l7.3 11.8 11-8.5c29.8-23.2 46.8-58.1 46.8-95.7zm-51.1 66.1c-10-20.5-15.2-43.1-15.2-66.1s5.2-45.6 15.2-66.1c16.8 17.8 26.2 41.2 26.2 66.1s-9.4 48.3-26.2 66.1z"></path></svg>