<svg xmlns="http://www.w3.org/2000/svg" width="494.8" viewBox="0 0 494.8 621.7" height="621.7"><path d="M488 231.1L263.7 6.8c-9-9-23.6-9-32.6 0L6.8 231.1C2.4 235.4 0 241.3 0 247.4v127.2c0 6.1 2.4 12 6.8 16.3L231.3 615c4.5 4.5 10.4 6.7 16.3 6.7s11.8-2.3 16.3-6.8L488 390.8c4.3-4.3 6.8-10.2 6.8-16.3V247.4c0-6.1-2.5-12-6.8-16.3zM247.4 55.7l198.7 198.7L270.4 430v-43.6l119.9-119.9c9-9 9-23.6 0-32.6s-23.6-9-32.6 0l-87.3 87.3v-43.6l65.2-65.2c9-9 9-23.6 0-32.6s-23.6-9-32.6 0l-32.6 32.6v-88.5c0-12.7-10.3-23.1-23.1-23.1-12.7 0-23.1 10.3-23.1 23.1v88.5l-32.6-32.6c-9-9-23.6-9-32.6 0s-9 23.6 0 32.6l65.2 65.2v43.6L137 233.9c-9-9-23.6-9-32.6 0s-9 23.6 0 32.6l119.9 119.9V430L48.7 254.4 247.4 55.7z"></path></svg>