<svg xmlns="http://www.w3.org/2000/svg" width="609.4" viewBox="0 0 609.4 609.4" height="609.4" style="enable-background:new 0 0 609.4 609.4" xml:space="preserve"><path d="M304.7 0C136.4 0 0 136.4 0 304.7c0 34.6 5.8 67.8 16.4 98.8 22.7-21.9 53.6-35.4 87.6-35.4 69.7 0 126.2 56.5 126.2 126.2 0 36.6-15.6 69.5-40.5 92.6 35.5 14.5 74.3 22.5 115 22.5 168.3 0 304.7-136.4 304.7-304.7S473 0 304.7 0zm0 430.9c-69.7 0-126.2-56.5-126.2-126.2S235 178.5 304.7 178.5 430.9 235 430.9 304.7s-56.5 126.2-126.2 126.2z"></path></svg>