<svg id="Layer_1" data-name="Layer 1" xmlns="http://www.w3.org/2000/svg" viewBox="0 0 549.11 605.74">   <path d="M246.24,0C110.46,0,0,110.46,0,246.24s110.46,246.24,246.24,246.24c113.8,0,209.78-77.61,237.88-182.67-3.69,128.06-108.94,231.11-237.88,231.11-17.89,0-32.4,14.51-32.4,32.41s14.51,32.41,32.4,32.41c167,0,302.87-135.87,302.87-302.87S413.24,0,246.24,0Zm0,427.67c-56.75,0-102.92-46.17-102.92-102.92s46.17-102.92,102.92-102.92,102.92,46.17,102.92,102.92-46.17,102.92-102.92,102.92Zm167.5-111.75c-2.2-42.21-20.09-80.32-47.92-108.64l-.48-50.66c-.11-12.26-14.88-18.39-23.65-9.81l-25.91,25.36c-21.21-9.7-44.74-15.16-69.55-15.16s-48.34,5.46-69.55,15.16l-25.91-25.36c-8.76-8.58-23.53-2.45-23.65,9.81l-.48,50.66c-27.83,28.32-45.72,66.43-47.92,108.63-8.96-21.47-13.94-45-13.94-69.68,0-100.04,81.39-181.43,181.43-181.43s181.43,81.39,181.43,181.43c0,24.68-4.97,48.22-13.94,69.69Z"></path>   <path d="M256.83,374.81h-21.18c-7.5,0-12.18,8.11-8.44,14.61l10.59,18.34c3.75,6.49,13.12,6.49,16.87,0l10.59-18.34c3.75-6.49-.94-14.61-8.43-14.61Z"></path> </svg>