<svg xmlns="http://www.w3.org/2000/svg" width="607.4" viewBox="0 0 607.4 538" height="538" xml:space="preserve"><path d="M225.8 73.5H74.7C34.9 73.5 2.5 41.1 2.5 1.3 2.5.6 1.9 0 1.3 0 .6 0 0 .6 0 1.3v156.1c0 41.2 33.5 74.7 74.7 74.7h82.6c39.8 0 72.2 32.4 72.2 72.2V538h71V146.1c0-41.2-33.5-72.6-74.7-72.6zM606.1 0c-.7 0-1.3.6-1.3 1.3 0 39.8-32.4 72.2-72.2 72.2h-151c-41.2 0-74.7 31.4-74.7 72.6V538h71V304.3c0-39.8 32.4-72.2 72.2-72.2h82.6c41.2 0 74.7-33.5 74.7-74.7V1.3c0-.7-.6-1.3-1.3-1.3z"></path></svg>