<svg xmlns="http://www.w3.org/2000/svg" width="621.2" viewBox="0 0 621.2 619.5" height="619.5" xml:space="preserve" style="enable-background:new 0 0 621.2 619.5"><path d="M562.2 0H59C26.4 0 0 26.4 0 59v501.4c0 32.6 26.4 59 59 59h503.1c32.6 0 59-26.4 59-59V59c.1-32.6-26.3-59-58.9-59zm-24.3 272v209.2c-1.6.1-3.2.1-4.9.1-41.5 0-77.4-24-94.7-58.8-27.5 35.7-70.8 58.8-119.4 58.8-2 0-4-.1-6-.2v.2H197.4v113c-26.3 0-48.3-18-54.6-42.3-6.3 24.3-28.3 42.3-54.6 42.3v-113c0-124.2 100.7-224.9 224.9-224.9V144.1c-63.9 0-113-49.1-113-109.7 0-1.6.1-3.2.1-4.8h109.6v.1c1.2 0 2.3-.1 3.5-.1C437.4 29.6 538 130.2 538 254.3V272z"></path><path d="M297.7 41.7c-8.4 0-15.2 6.8-15.2 15.1S289.3 72 297.7 72c8.4 0 15.1-6.8 15.1-15.1s-6.8-15.2-15.1-15.2z"></path></svg>