<svg data-name="Layer 1" xmlns="http://www.w3.org/2000/svg" viewBox="0 0 619.51 477.12"><path d="M311.95 50.84c23.24 0 42.08-18.84 42.08-42.08 0-1.71-.13-3.39-.33-5.04C340.14 1.32 326.2 0 311.95 0s-28.19 1.32-41.75 3.72c-.2 1.66-.33 3.33-.33 5.04 0 23.24 18.84 42.08 42.08 42.08Z"></path><path d="M311.94 121.78c58.53 0 109.99-30.75 139.16-76.92a237.676 237.676 0 0 0-50.7-27.84c-19.22 28.36-51.7 47.03-88.46 47.03s-69.24-18.67-88.45-47.03a237.749 237.749 0 0 0-50.71 27.84c29.17 46.17 80.62 76.92 139.16 76.92Z"></path><path d="M530.18 142.2a238.559 238.559 0 0 0-29.66-49.68c-56.72 28.69-120.78 44.88-188.57 44.88S180.1 121.21 123.38 92.52a238.818 238.818 0 0 0-29.66 49.68c65.43 33.82 139.64 52.94 218.23 52.94s152.8-19.12 218.23-52.94ZM311.95 426.28c-23.24 0-42.08 18.84-42.08 42.08 0 1.71.13 3.39.33 5.04 13.56 2.4 27.5 3.72 41.75 3.72s28.19-1.32 41.75-3.72c.2-1.66.33-3.33.33-5.04 0-23.24-18.84-42.08-42.08-42.08Z"></path><path d="M311.94 355.34c-58.53 0-109.99 30.75-139.16 76.92 15.6 11.23 32.6 20.61 50.7 27.84 19.22-28.36 51.7-47.03 88.45-47.03s69.24 18.67 88.46 47.03c18.1-7.23 35.1-16.61 50.7-27.84-29.17-46.17-80.63-76.93-139.16-76.93Z"></path><path d="M93.72 334.92a238.3 238.3 0 0 0 29.66 49.68c56.71-28.69 120.78-44.88 188.57-44.88s131.85 16.19 188.57 44.89a238.818 238.818 0 0 0 29.66-49.68c-65.43-33.82-139.64-52.94-218.23-52.94s-152.8 19.12-218.23 52.94ZM0 209.69h619.51v57.74H0z"></path></svg>