<svg xmlns="http://www.w3.org/2000/svg" width="618" viewBox="0 0 618 618" height="618" xml:space="preserve" style="enable-background:new 0 0 618 618"><path d="M132.5 305.8c0 10.3 8.4 18.7 18.7 18.7h149.3v-37.4H151.2c-10.3 0-18.7 8.4-18.7 18.7z"></path><path d="M0 618h300.5V511.4H151.2c-30.9 0-56.1-25.1-56.1-56.1s25.1-56.1 56.1-56.1h149.3v-37.4H151.2c-24.5 0-45.1-15.9-53-37.8-1.2-3.3-4.9-3.7-4.9-3.7H79c-7.6 0-13.7-6.1-13.7-13.7s6.1-13.7 13.7-13.7h13.9s3.8-.8 4.8-3.7c7.6-22.7 28.4-39.5 53.6-39.5h149.3v-37.4H151.2c-30.9 0-56.1-25.2-56.1-56.1 0-30.9 25.1-56.1 56.1-56.1h149.3V0H0v618z"></path><path d="M132.5 455.3c0 10.3 8.4 18.7 18.7 18.7h149.3v-37.4H151.2c-10.3 0-18.7 8.4-18.7 18.7zM132.5 156.3c0 10.3 8.4 18.7 18.7 18.7h149.3v-37.4H151.2c-10.3 0-18.7 8.4-18.7 18.7zM490 231c0-10.3-8.4-18.7-18.7-18.7H320v37.4h151.3c10.4 0 18.7-8.4 18.7-18.7zM490 380.5c0-10.3-8.4-18.7-18.7-18.7H320v37.4h151.3c10.4 0 18.7-8.3 18.7-18.7z"></path><path d="M320 0v100.2h136.9l8.2-4.1s4-2 7.4-2h56.6v49.5h-51.6c-3.4 0-9.9-2-9.9-2l-8.2-4.1H320V175h151.3c30.9 0 56.1 25.2 56.1 56.1 0 30.9-25.2 56.1-56.1 56.1H320v37.4h151.3c30.9 0 56.1 25.1 56.1 56.1 0 30.9-25.2 56.1-56.1 56.1H320V474h136.9l8.2-4.1s4-2 7.4-2h56.6v49.5h-51.6c-3.4 0-9.9-2-9.9-2l-8.2-4.1H320V618h298V0H320z"></path></svg>