<svg xmlns="http://www.w3.org/2000/svg" width="618.7" viewBox="0 0 618.7 618.7" height="618.7" xml:space="preserve" style="enable-background:new 0 0 618.7 618.7"><path d="M577.5 209.9c-26.6-26.6-61.9-41.2-99.5-41.2-10.8 0-21.4 1.2-31.6 3.6 10.4-45.7-2.1-95.5-37.6-131C382.2 14.6 346.9 0 309.3 0s-72.9 14.6-99.5 41.2c-35.5 35.5-48 85.4-37.6 131-10.3-2.3-20.9-3.6-31.6-3.6-37.6 0-72.9 14.6-99.5 41.2C14.6 236.4 0 271.8 0 309.3c0 37.6 14.6 72.9 41.2 99.5 26.6 26.6 61.9 41.2 99.5 41.2 10.8 0 21.4-1.2 31.6-3.6-10.4 45.7 2.1 95.5 37.6 131 26.6 26.6 61.9 41.2 99.5 41.2s72.9-14.6 99.5-41.2c35.5-35.5 48-85.4 37.6-131 10.3 2.3 20.9 3.6 31.6 3.6 37.6 0 72.9-14.6 99.5-41.2 26.6-26.6 41.2-61.9 41.2-99.5-.1-37.5-14.7-72.9-41.3-99.4zM240.1 71.5c18.5-18.5 43.1-28.7 69.2-28.7S360 53 378.5 71.5c38.2 38.2 38.2 100.3 0 138.4l-69.2 69.2-69.2-69.2c-38.1-38.2-38.1-100.3 0-138.4zm-99.4 335.7c-26.1 0-50.7-10.2-69.2-28.7s-28.7-43.1-28.7-69.2 10.2-50.7 28.7-69.2 43.1-28.7 69.2-28.7 50.7 10.2 69.2 28.7l69.2 69.2-69.2 69.2c-18.5 18.5-43.1 28.7-69.2 28.7zm237.9 140c-18.5 18.5-43.1 28.7-69.2 28.7s-50.7-10.2-69.2-28.7c-38.2-38.2-38.2-100.3 0-138.4l69.2-69.2 69.2 69.2c38.1 38.2 38.1 100.3 0 138.4zm168.6-168.6c-18.5 18.5-43.1 28.7-69.2 28.7s-50.7-10.2-69.2-28.7l-69.2-69.2 69.2-69.2c18.5-18.5 43.1-28.7 69.2-28.7s50.7 10.2 69.2 28.7 28.7 43.1 28.7 69.2-10.2 50.7-28.7 69.2z"></path></svg>