<svg xmlns="http://www.w3.org/2000/svg" width="467.4" viewBox="0 0 467.4 608.5" height="608.5" xml:space="preserve"><path d="M377.8 2.8V0C311 1.4 257.2 56 257.2 123.2v2.8c66.9-1.4 120.6-56 120.6-123.2zM252 126v-2.7C252 56.1 198.3 1.5 131.4.1v2.7C131.4 70 185.1 124.6 252 126zM387.6 416.2c-35.9 0-66.2 23.7-76.3 56.3-14.5-14.6-34.5-23.6-56.6-23.6-21 0-40.1 8.1-54.3 21.3-8.6-25.3-29.6-44.9-55.7-51.6 9.4-13.1 14.9-29.1 14.9-46.4 0-16.2-4.8-31.3-13.1-43.9 25.3-7.1 45.5-26.4 53.9-51.1 14.2 13.2 33.3 21.3 54.3 21.3 22.1 0 42.2-9 56.6-23.6 10 32.6 40.4 56.3 76.3 56.3 44.1 0 79.8-35.7 79.8-79.8s-35.7-79.8-79.8-79.8c-22.1 0-42.2 9-56.6 23.6-10-32.6-40.4-56.3-76.3-56.3-35.1 0-64.8 22.6-75.5 54.1-14.2-13.2-33.3-21.3-54.3-21.3-44.1 0-79.8 35.7-79.8 79.8 0 16.2 4.8 31.3 13.1 43.9C24.6 304.8 0 335.6 0 372.2c0 37.2 25.5 68.5 60 77.3-9.4 13.1-14.9 29.1-14.9 46.4 0 44.1 35.7 79.8 79.8 79.8 21 0 40.1-8.1 54.3-21.3 10.7 31.4 40.5 54.1 75.5 54.1 35.9 0 66.2-23.7 76.3-56.3 14.5 14.6 34.5 23.6 56.6 23.6 44.1 0 79.8-35.7 79.8-79.8s-35.8-79.8-79.8-79.8z"></path></svg>