<svg xmlns="http://www.w3.org/2000/svg" width="420" viewBox="0 0 420 642" height="642" style="overflow:visible;enable-background:new 0 0 420 642" xml:space="preserve"><path d="M175.7 642V450.8c-24.7 8.3-59.5 24.9-85.5 56.4-27.4-33.3-64.7-49.8-89.5-57.7C-9 552.5 71.8 642 175.7 642M420 137.7c0 5.9-6.2 9.4-30.9 24.2 0 .1-.1.1-.1.1-22.4 14-53.9 34.8-78.6 61.6-40.3-43.9-99.6-71.7-107.5-80.6-4.8-5.8-.7-12.6 5.3-12.6h23V.6c76.3 4.8 139.4 58.3 158.4 129.7h23c4.1 0 7.4 3.3 7.4 7.4z"></path><path d="M397.7 466.3c0 101.5-85.7 180.5-183.3 175.5 59.1-38.3 67.2-120.7 18-170C42.8 282.1 60.5 300.1 54.4 293.4c-28.1-31-45.2-72.8-45.2-117.7C9.2 74 95.3-4.9 192.4.2c-58.4 38.1-67.3 120.4-17.9 170 82.2 82.2 172.7 172.6 171.8 171.8 31.8 31.9 51.4 75.7 51.4 124.3z"></path></svg>