<svg id="Layer_1" data-name="Layer 1" xmlns="http://www.w3.org/2000/svg" viewBox="0 0 613.17 448.64">   <path d="M610.27,409.07L416.74,19.44c-5.92-11.91-18.07-19.44-31.37-19.44h-67.85c-5.69,0-8.74,6.61-5.08,10.98,36.47,43.55,58.46,99.62,58.46,160.87s-20.82,114.27-55.53,157.3c-3.92,4.86-4.5,11.61-1.73,17.2l45.52,91.64c3.25,6.54,9.91,10.67,17.21,10.67h209.37c20.33,0,33.57-21.37,24.53-39.57Z"></path>   <path d="M242.27,171.84c0-61.24,21.99-117.32,58.46-160.87,3.65-4.36,.61-10.98-5.08-10.98h-67.85c-13.3,0-25.45,7.53-31.37,19.44L2.89,409.07c-9.04,18.21,4.2,39.57,24.53,39.57H236.79c7.3,0,13.97-4.13,17.21-10.67l45.52-91.64c2.78-5.59,2.19-12.34-1.73-17.2-34.71-43.02-55.53-97.71-55.53-157.3Z"></path>   <circle cx="306.58" cy="68.14" r="20.56"></circle> </svg>