<svg data-name="Layer 1" xmlns="http://www.w3.org/2000/svg" viewBox="0 0 610.82 610.82"><path d="M496.51 254.99c-26.29 0-47.88 20.04-50.36 45.68h-46.74c-2.26-21.5-19.14-38.77-40.44-41.72l49.42-49.42c19.88 16.39 49.33 15.3 67.92-3.29 19.76-19.76 19.76-51.8 0-71.56-19.76-19.76-51.8-19.76-71.56 0-18.59 18.59-19.68 48.04-3.29 67.92l-49.39 49.39c-2.88-21.38-20.2-38.35-41.76-40.6v-46.55c25.65-2.47 45.7-24.06 45.7-50.36 0-27.95-22.66-50.6-50.6-50.6s-50.6 22.66-50.6 50.6c0 26.29 20.06 47.89 45.7 50.36v46.55c-21.57 2.26-38.88 19.22-41.76 40.6l-49.39-49.39c16.39-19.88 15.3-49.33-3.29-67.92-19.76-19.76-51.8-19.76-71.56 0-19.76 19.76-19.76 51.8 0 71.56 18.59 18.59 48.05 19.68 67.92 3.29l49.42 49.42c-21.3 2.95-38.18 20.22-40.44 41.72h-46.74c-2.48-25.64-24.07-45.68-50.36-45.68-27.95 0-50.6 22.66-50.6 50.6s22.66 50.6 50.6 50.6c26.3 0 47.9-20.07 50.36-45.72h46.73c2.46 23.65 22.6 42.26 46.88 42.26v147.06c0 25.93 21.21 47.14 47.14 47.14s47.14-21.21 47.14-47.14V352.73c24.28 0 44.42-18.6 46.88-42.26h46.73c2.46 25.66 24.06 45.72 50.36 45.72 27.95 0 50.6-22.66 50.6-50.6s-22.66-50.6-50.6-50.6Z"></path><path d="M305.41 0C137 0 0 137 0 305.41s137 305.41 305.41 305.41 305.41-137.01 305.41-305.41S473.81 0 305.41 0Zm0 592.84c-158.49 0-287.43-128.94-287.43-287.43S146.92 17.98 305.41 17.98s287.43 128.94 287.43 287.43S463.9 592.84 305.41 592.84Z"></path></svg>