<svg data-name="Layer 1" xmlns="http://www.w3.org/2000/svg" viewBox="0 0 615.2 615.2"><circle cx="307.6" cy="84.24" r="84.24" transform="rotate(-67.5 307.60194568 84.24017912)"></circle><path d="M615.2 307.6c0-42.21-31.08-77.07-71.58-83.19v-56.98c40.5-6.12 71.58-40.98 71.58-83.19C615.2 37.72 577.48 0 530.96 0s-84.24 37.72-84.24 84.24c0 42.21 31.08 77.07 71.59 83.19v56.98c-40.5 6.12-71.59 40.98-71.59 83.19s31.08 77.07 71.59 83.19v56.98c-13.8 2.08-26.47 7.49-37.22 15.41L375.38 357.47c10.3-13.97 16.46-31.19 16.46-49.88 0-46.52-37.72-84.24-84.24-84.24-18.69 0-35.9 6.16-49.88 16.46L152.01 134.1c10.3-13.97 16.46-31.19 16.46-49.88C168.48 37.72 130.76 0 84.24 0S0 37.72 0 84.24c0 42.21 31.08 77.07 71.59 83.19v56.98C31.08 230.53 0 265.39 0 307.6s31.08 77.07 71.59 83.19v56.98C31.08 453.89 0 488.75 0 530.96c0 46.52 37.72 84.24 84.24 84.24s84.24-37.72 84.24-84.24c0-42.21-31.08-77.07-71.58-83.19v-56.98c40.5-6.12 71.58-40.98 71.58-83.19s-31.08-77.07-71.58-83.19v-56.98c13.8-2.08 26.47-7.49 37.22-15.41l105.71 105.71c-10.3 13.97-16.47 31.19-16.47 49.88 0 46.52 37.72 84.24 84.24 84.24 18.69 0 35.91-6.16 49.88-16.47l105.71 105.71c-10.3 13.97-16.47 31.19-16.47 49.88 0 46.52 37.72 84.24 84.24 84.24s84.24-37.72 84.24-84.24c0-42.21-31.08-77.07-71.58-83.19V390.8c40.5-6.12 71.58-40.98 71.58-83.19Z"></path><circle cx="307.6" cy="530.96" r="84.24" transform="rotate(-13.28 307.68884642 531.05159247)"></circle></svg>