<svg id="Layer_1" data-name="Layer 1" xmlns="http://www.w3.org/2000/svg" viewBox="0 0 554.86 554.86">   <path d="M230.54,392.7c0-89.56,72.6-162.16,162.16-162.16,27.89,0,54.14,7.05,77.06,19.45,74.57-103.57,104.69-197.09,67.89-233.89-39.85-39.85-146.24-1.23-259.87,87.37v174.32H103.85C16.26,390.73-21.72,496.19,17.92,535.83c36.56,36.56,129.11,7.08,231.88-66.44-12.28-22.84-19.26-48.95-19.26-76.69h0Z"></path>   <path d="M277.78,103.46V0H0V277.78H103.85c23.98-30.92,51.66-62.4,82.5-93.25,30.24-30.24,61.09-57.42,91.43-81.07Z"></path>   <path d="M469.76,249.99c-27.75,38.55-61.62,78.48-100.55,117.4-39.6,39.6-80.25,73.99-119.41,102,27.36,50.88,81.09,85.47,142.9,85.47,89.56,0,162.16-72.6,162.16-162.16h0c0-61.67-34.43-115.29-85.11-142.71Z"></path> </svg>