<svg xmlns="http://www.w3.org/2000/svg" width="589.1" viewBox="0 0 589.1 589.1" height="589.1"><path d="M502.9 86.3C447.2 30.6 373.2 0 294.6 0 215.9 0 141.9 30.6 86.3 86.3 30.6 141.9 0 215.9 0 294.6s30.6 152.7 86.3 208.3c55.6 55.6 129.6 86.3 208.3 86.3 78.7 0 152.7-30.6 208.3-86.3 55.6-55.6 86.3-129.6 86.3-208.3s-30.7-152.7-86.3-208.3zM115.6 455.7c-10.5 0-21.2-2.8-30.9-8.5C55.8 430 46.4 392.8 63.5 364L243.2 61.7c17.1-28.8 54.3-38.3 83.2-21.1 28.8 17.1 38.3 54.3 21.1 83.2L167.8 426c-11.4 19.1-31.5 29.7-52.2 29.7zm159.5 2.9c-10.5 0-21.2-2.7-30.9-8.5-28.8-17.1-38.3-54.3-21.2-83.1l97.8-164.7c17.1-28.8 54.3-38.3 83.1-21.2 28.8 17.1 38.3 54.3 21.2 83.1l-97.8 164.7c-11.4 19.1-31.5 29.7-52.2 29.7zm178.8 1.6c-38.2 0-69.1-31-69.1-69.1s31-69.1 69.1-69.1 69.1 31 69.1 69.1-30.9 69.1-69.1 69.1z"></path></svg>