<svg xmlns="http://www.w3.org/2000/svg" width="600" viewBox="0 0 600 407.69" height="407.69" style="overflow:visible;enable-background:new 0 0 600 407.69" xml:space="preserve"><path class="st0" d="M0 226.49h600v73.5H0zM600 0H0v208.55h600V0zM217.09 139.31H64.95V60.68h152.14v78.63zm331.63 0H283.76V60.68h264.96v78.63zM511.11 317.1c-73.8-6.36-119.62 21.51-181.2 25.63-61.81 4.14-120.84-20.49-182.91-27.35-58.39-6.46-105.42 9.31-147 30.77v61.54c28.2-11.12 64.81-26.07 104.27-29.05 61.43-4.67 104.73 14.83 153.85 22.21 40.51 6.09 76.7 8.1 120.23-2.85 39.07-9.83 68.72-17.37 100.56-17.67 38.27-.36 78.16 9 121.08 27.36v-64.96c-27.37-13.02-58.13-22.99-88.88-25.63z"></path></svg>