<svg width="348" viewBox="0 0 348 642" height="642" xmlns="http://www.w3.org/2000/svg"><path d="M177.287 162.105c19.767 0 35.792-16.024 35.792-35.791V68.213h-78.645v93.892h42.853Zm109.012 32.228c0 1.42.764 2.543 2.568 3.146 23.304 6.163 40.574 27.478 40.574 52.773v74.921l-116.395 31.201v-91.87c0-19.774-15.985-35.824-35.759-35.824h-42.821v148.752L18.07 408.633V0h311.37v125.19c0 29.018-16.756 54.185-41.152 66.19-1.156.514-1.99 1.67-1.99 2.953ZM318.12 358.703l24.763 14.259c4.975 2.87 6.156 9.533 2.465 13.931l-25.732 30.662-284.341 76.141-32.466-18.74c-3.024-1.74-3.737-5.797-1.496-8.474l29.018-34.61 278.063-74.447c3.281-.88 6.78-.417 9.727 1.278M313.52 445.74l29.378 16.969c4.97 2.87 6.137 9.533 2.446 13.925l-25.725 30.61L35.277 583.45 2.811 564.71c-3.024-1.747-3.743-5.798-1.496-8.475l29.019-34.61 283.186-75.884ZM345.348 566.332l-25.732 30.662-168.01 45.004-74.666-43.142 236.577-63.366 29.366 16.91c4.975 2.87 6.156 9.534 2.465 13.932"></path></svg>