<svg data-name="Layer 1" xmlns="http://www.w3.org/2000/svg" viewBox="0 0 615.69 585.05"><path d="m72.04 423.12-4.88 16.68 69.59-22.61-40.82 125.62 19.77-14.42 43.4-133.55-87.06 28.28zM153.19 584.8l107.13-77.83v72.54l14.35-9.79v-90.91l-113.91 82.75-7.57 23.24zM543.16 423.08l-86.91-28.25 43.27 133.19 19.77 14.4-40.69-125.23 69.44 22.56-4.88-16.67zM340.67 478.8v90.92l14.35 9.79v-72.55l107.48 78.09-7.6-23.26-114.23-82.99zM188.86 475.04l-.21.63.13-.09.21-.64-.13.1zM432.95 83.28l-5.85-16.36-43.05 59.26L343.05 0l-7.53 23.27 43.59 134.13 53.84-74.12zM279.83 23.27 272.3 0l-41 126.19-42.97-59.15-5.85 16.36 53.76 74 43.59-134.13zM52.24 360.15l86.46-28.09-114.26-83.02L0 249.03l107.48 78.09-68.98 22.41 13.74 10.62zM42.34 196.2h140.5l-54.03-74.38-17.37.5 43.24 59.53H22.51l19.83 14.35zM572.62 196.2l19.8-14.35H460.66l43.16-59.4-17.36-.52-53.96 74.27h140.12zM615.69 248.78l-24.47.04-114.58 83.24 86.59 28.14 13.76-10.62-69.13-22.46 107.83-78.34z"></path><path d="m448.55 336.51 120.66-87.66-69.38.1 54.97-39.84H407.16l72.66-100.01-24.5-.73-8.12-22.73-72.55 99.85-45.9-141.28-21.08 65.16-21.07-65.15-45.91 141.27-72.47-99.74-8.06 22.52-24.71.72 72.74 100.12h-148l55.28 40-69.04-.05 120.36 87.45-116.71 37.92 18.81 14.54-6.99 23.87 117.31-38.11-45.71 140.68 55.36-40.37 45.26-139.28-119.03-86.47h147.12l45.46-139.92 45.47 139.92h147.12l-119.02 86.47 45.46 139.91-119.03-86.46-118.89 86.37-21.2 65.07 120-87.19v122.73l20.09-13.71 20.09 13.71V453.46l120.3 87.4-21.57-66.01 55.25 40.23-45.6-140.36 117.18 38.08-6.92-23.67 19-14.65-116.85-37.97z"></path></svg>