<svg data-name="Layer 1" xmlns="http://www.w3.org/2000/svg" viewBox="0 0 577.34 477.32"><path d="M577.34 209.17c0-64.77-52.69-117.47-117.46-117.47-16.08 0-31.4 3.26-45.37 9.13C397.94 42.7 344.38 0 281.01 0c-76.55 0-138.83 62.28-138.83 138.83 0 1.48.07 2.95.11 4.42C62.48 151.35 0 218.93 0 300.83c0 87.34 71.06 158.39 158.39 158.39 34.19 0 65.85-10.92 91.77-29.42 11.42 27.84 38.79 47.52 70.7 47.52 28.42 0 53.21-15.62 66.37-38.7 15.6 11.02 34.57 17.56 55.08 17.56 52.8 0 95.75-42.95 95.75-95.75 0-19.2-5.74-37.07-15.51-52.07 32.87-20.84 54.79-57.46 54.79-99.18Zm-423.99-70.34c0-70.39 57.27-127.65 127.65-127.65 58.94 0 108.66 40.16 123.28 94.56-36.8 19.86-61.87 58.77-61.87 103.44 0 13.23 2.3 25.9 6.35 37.78a126.938 126.938 0 0 1-36.67 15.7c-17.13-68.94-79.53-120.2-153.7-120.2-1.66 0-3.3.07-4.94.13-.04-1.24-.09-2.48-.09-3.73Zm255.31 0c0 41.36-19.79 78.18-50.38 101.52-3.03-9.87-4.69-20.33-4.69-31.18 0-39.26 21.45-73.54 53.2-91.94 1.2 7.03 1.87 14.24 1.87 21.6Zm-55.71 118.7c5.73 12.63 13.58 24.08 23.17 33.86-11.26 10.8-19.9 24.29-24.84 39.46a75.901 75.901 0 0 0-30.43-6.36c-1.99 0-3.94.15-5.89.3 1.19-7.82 1.81-15.82 1.81-23.96 0-9.29-.85-18.38-2.39-27.24 13.78-3.41 26.76-8.86 38.57-16.05Zm-51.82 7.35c-6.56 1.04-13.28 1.6-20.13 1.6-65.35 0-119.35-49.37-126.76-112.76 1.38-.04 2.75-.11 4.14-.11 68.77 0 126.66 47.41 142.75 111.26ZM158.38 448.03c-81.17 0-147.21-66.04-147.21-147.21 0-76 57.89-138.72 131.89-146.41 7.77 69.24 66.66 123.25 137.94 123.25 7.63 0 15.12-.65 22.42-1.84 1.4 8.13 2.17 16.47 2.17 25s-.82 17.4-2.31 25.78c-33.68 7.97-58.85 38.22-58.85 74.3 0 6.1.8 12.01 2.15 17.7-24.6 18.47-55.15 29.43-88.21 29.43Zm97.23-47.13c0-28.88 18.88-53.4 44.94-61.96-7.52 28.03-23.12 52.78-44.15 71.59-.47-3.15-.79-6.35-.79-9.63Zm65.24 65.24c-28.32 0-52.42-18.17-61.42-43.45 26.3-21.85 45.4-52.04 53.29-86.46 2.67-.33 5.37-.56 8.12-.56 9.85 0 19.16 2.26 27.54 6.18a95.466 95.466 0 0 0-1.84 18.57c0 28.23 12.35 53.57 31.86 71.11-10.99 20.57-32.66 34.6-57.56 34.6Zm62.16-45.5c-15.59-15.35-25.28-36.66-25.28-60.21 0-4.26.42-8.41 1.03-12.5 16.51 11.85 27.32 31.16 27.32 52.98 0 6.88-1.09 13.5-3.07 19.73Zm143.86-60.21c0 46.63-37.94 84.57-84.57 84.57-18.81 0-36.15-6.25-50.21-16.68 3.29-8.52 5.17-17.74 5.17-27.41 0-27.27-14.4-51.18-35.95-64.71 4.31-14.39 12.38-27.14 23.03-37.2 20.44 17.21 46.78 27.63 75.53 27.63 19.07 0 37.03-4.66 52.96-12.76 8.85 13.36 14.03 29.35 14.03 46.55Zm-133.76-68.66c13.88-9.97 30.83-15.91 49.19-15.91 25.35 0 48.06 11.26 63.58 28.98-13.94 6.73-29.51 10.62-46.01 10.62-25.28 0-48.5-8.9-66.76-23.69Zm122.82 7.54c-17.58-21.14-44.05-34.63-73.63-34.63-21.66 0-41.6 7.32-57.67 19.49-9.37-9.4-16.97-20.56-22.32-32.91 34.81-25.25 57.52-66.23 57.52-112.42 0-9.21-.92-18.21-2.64-26.93 13.08-5.76 27.5-9.02 42.69-9.02 58.6 0 106.28 47.68 106.28 106.29 0 38.02-20.13 71.34-50.22 90.13Z"></path></svg>