<svg xmlns="http://www.w3.org/2000/svg" width="619.1" viewBox="0 0 619.1 619.2" height="619.2" xml:space="preserve" style="enable-background:new 0 0 619.1 619.2"><path d="m320.8.2-.3-.2v157.5c79.2 5.6 141.6 71.5 141.6 152.1 0 58-32.4 108.4-80 134.2v-27.2c34.2-23.2 56.7-62.5 56.7-107 0-71.4-57.9-129.2-129.2-129.2s-129.2 57.9-129.2 129.2c0 44.5 22.5 83.7 56.7 107v27.2c-47.7-25.8-80-76.2-80-134.2 0-80.6 62.5-146.5 141.6-152.1V0l-.6.2C132.4 6.3 0 142.4 0 309.6c0 171 138.6 309.6 309.6 309.6s309.6-138.6 309.6-309.6C619.1 142.4 486.6 6.1 320.8.2zm-11.2 553.6c-134.9 0-244.2-109.3-244.2-244.2 0-109.6 72.2-202.3 171.7-233.2v26.1C151.5 132.4 90.2 213.8 90.2 309.6c0 117.5 92.4 213.5 208.5 219.1V368.6c-28-5.1-49.2-29.6-49.2-59.1 0-33.2 26.9-60.1 60.1-60.1s60.1 26.9 60.1 60.1c0 29.5-21.2 54-49.2 59.1v160.1C436.6 523 529 427.1 529 309.6c0-95.8-61.4-177.2-146.9-207.1V76.3c99.5 30.9 171.7 123.6 171.7 233.2 0 134.9-109.4 244.3-244.2 244.3z"></path></svg>