<svg xmlns="http://www.w3.org/2000/svg" width="625.8" viewBox="0 0 625.8 500.7" height="500.7" xml:space="preserve" style="enable-background:new 0 0 625.8 500.7"><path d="m485.4 397.8 140.4 62.1-187.4-142 8.9 73.5-63.9-48.2c27.4-35.9 43.8-80.8 43.8-129.5C427.1 95.6 331.5 0 213.6 0 95.6 0 0 95.6 0 213.6s95.6 213.6 213.6 213.6c48.5 0 93.1-16.2 128.9-43.4l155.7 116.9-12.8-102.9zm-271.8-32.7C129.9 365.1 62 297.3 62 213.6S129.9 62 213.6 62c83.7 0 151.6 67.9 151.6 151.6 0 34.7-11.7 66.6-31.3 92.2l-66.6-50.3h-95.6l118.4 88.9c-22.5 13.2-48.6 20.7-76.5 20.7z"></path></svg>