<svg id="Layer_1" data-name="Layer 1" xmlns="http://www.w3.org/2000/svg" viewBox="0 0 610.57 614.42">   <polygon points="425.42 0 425.42 192.21 505.99 192.21 505.99 339.81 317.28 339.81 317.28 168.21 236.71 168.21 236.71 24 373.86 24 373.86 167.95 397.86 167.95 397.86 0 212.71 0 212.71 192.21 293.28 192.21 293.28 339.81 104.57 339.81 104.57 168.21 24 168.21 24 24 161.15 24 161.15 167.95 185.15 167.95 185.15 0 0 0 0 192.21 80.57 192.21 80.57 363.81 293.28 363.81 293.28 455.7 373.86 455.7 373.86 590.43 236.71 590.43 236.71 455.95 212.71 455.95 212.71 614.42 397.86 614.42 397.86 431.7 317.28 431.7 317.28 363.81 529.99 363.81 529.99 168.21 449.42 168.21 449.42 24 586.57 24 586.57 167.95 610.57 167.95 610.57 0 425.42 0"></polygon> </svg>