<svg xmlns="http://www.w3.org/2000/svg" id="a" width="642" viewBox="0 0 642 607.49" height="607.49" data-name="Layer 1"><defs></defs><path d="M105.53 0C88.48 0 72.34 4.06 58.1 11.24h154.16c1.55 0 2.81-1.26 2.81-2.81s1.26-2.81 2.81-2.81h97.9c1.55 0 2.81 1.26 2.81 2.81s1.26 2.81 2.81 2.81h158.51l.19-1.16c.53-2.41 2.68-4.21 5.25-4.21s4.71 1.8 5.25 4.2l.19 1.18h93.11C569.65 4.04 553.53 0 536.46 0H105.53ZM616.58 36.95H497.42c-1.54 0-2.82-1.28-2.82-2.82s-1.28-2.82-2.82-2.82h-12.84c-1.54 0-2.82 1.28-2.82 2.82s-1.22 2.82-2.76 2.82H321.4c-1.54 0-2.82-1.28-2.82-2.82s-1.22-2.82-2.76-2.82h-97.91c-1.54 0-2.82 1.28-2.82 2.82s-1.28 2.82-2.82 2.82H25.42c3.4-4.04 7.19-7.83 11.23-11.3h568.68c4.04 3.47 7.83 7.25 11.23 11.3ZM632.88 62.63H501.72c-1.41 0-2.63-1.09-2.76-2.44l-.19-.83a2.775 2.775 0 0 0-2.76-2.38H474.7c-1.41 0-2.57 1.03-2.76 2.38l-.19.83c-.13 1.35-1.35 2.44-2.76 2.44h-147.6c-1.54 0-2.82-1.28-2.82-2.82s-1.22-2.82-2.76-2.82H217.9c-1.54 0-2.82 1.28-2.82 2.82s-1.28 2.82-2.82 2.82H9.12c1.73-3.92 3.66-7.7 5.84-11.3h612.08c2.18 3.6 4.11 7.38 5.84 11.3ZM640.59 88.31H506.03c-1.41 0-2.57-1.03-2.76-2.31l-.19-1.03c-.26-1.28-1.41-2.31-2.76-2.31H470.4c-1.35 0-2.5 1.03-2.76 2.31l-.19 1.03c-.19 1.28-1.35 2.31-2.76 2.31H321.4c-1.54 0-2.82-1.28-2.82-2.82s-1.22-2.82-2.76-2.82h-97.91c-1.54 0-2.82 1.28-2.82 2.82s-1.28 2.82-2.82 2.82H1.41c.64-3.85 1.48-7.64 2.5-11.3h634.17c1.03 3.66 1.86 7.45 2.5 11.3ZM642 102.72H0v11.23h103.12c1.55 0 2.81-1.26 2.81-2.81s1.26-2.81 2.81-2.81h97.9c1.55 0 2.81 1.26 2.81 2.81s1.26 2.81 2.81 2.81 2.81-1.26 2.81-2.81 1.26-2.81 2.81-2.81h97.9c1.55 0 2.81 1.26 2.81 2.81s1.26 2.81 2.81 2.81 2.81-1.26 2.81-2.81 1.26-2.81 2.81-2.81h97.91c1.55 0 2.81 1.26 2.81 2.81s1.26 2.81 2.81 2.81h29.9c1.36 0 2.49-.97 2.75-2.25l.19-1.09c.25-1.3 1.39-2.27 2.76-2.27h38.42c1.37 0 2.51.98 2.76 2.27l.19 1.09a2.81 2.81 0 0 0 2.75 2.25h27.09c1.55 0 2.81-1.26 2.81-2.81s1.26-2.81 2.81-2.81h99.03v-5.62ZM642 128.4H0v11.24h103.12c1.55 0 2.81-1.26 2.81-2.81s1.26-2.81 2.81-2.81h97.9c1.55 0 2.81 1.26 2.81 2.81s1.26 2.81 2.81 2.81 2.81-1.26 2.81-2.81 1.26-2.81 2.81-2.81h97.9c1.55 0 2.81 1.26 2.81 2.81s1.26 2.81 2.81 2.81 2.81-1.26 2.81-2.81 1.26-2.81 2.81-2.81h97.91c1.55 0 2.81 1.26 2.81 2.81s1.26 2.81 2.81 2.81h25.63c1.37 0 2.51-.98 2.76-2.28l.21-1.24c.32-1.21 1.41-2.1 2.72-2.1h47c1.31 0 2.4.89 2.72 2.1l.21 1.24c.25 1.3 1.39 2.28 2.76 2.28h22.82c1.55 0 2.81-1.26 2.81-2.81s1.26-2.81 2.81-2.81h99.03v-5.62ZM0 154.08v11.24h103.12c1.55 0 2.81-1.26 2.81-2.81s1.26-2.81 2.81-2.81h97.9c1.55 0 2.81 1.26 2.81 2.81s1.26 2.81 2.81 2.81 2.81-1.26 2.81-2.81 1.26-2.81 2.81-2.81h97.9c1.55 0 2.81 1.26 2.81 2.81s1.26 2.81 2.81 2.81 2.81-1.26 2.81-2.81 1.26-2.81 2.81-2.81h97.91c1.55 0 2.81 1.26 2.81 2.81s1.26 2.81 2.81 2.81h21.36c1.4 0 2.56-1.03 2.78-2.37l.19-1.13a2.81 2.81 0 0 1 2.72-2.12h55.54c1.31 0 2.41.9 2.72 2.12l.19 1.13a2.81 2.81 0 0 0 2.78 2.37h18.55c1.55 0 2.81-1.26 2.81-2.81s1.26-2.81 2.81-2.81h99.03v-5.62H0Z" class="c"></path><path d="M0 179.76v11.23h103.12c1.55 0 2.81-1.26 2.81-2.81s1.26-2.81 2.81-2.81h97.9c1.55 0 2.81 1.26 2.81 2.81s1.26 2.81 2.81 2.81 2.81-1.26 2.81-2.81 1.26-2.81 2.81-2.81h97.9c1.55 0 2.81 1.26 2.81 2.81s1.26 2.81 2.81 2.81 2.81-1.26 2.81-2.81 1.26-2.81 2.81-2.81h97.91c1.55 0 2.81 1.26 2.81 2.81s1.26 2.81 2.81 2.81h17.08c1.38 0 2.53-1 2.77-2.32l.17-1.01c.25-1.3 1.39-2.28 2.76-2.28h64.06c1.37 0 2.51.98 2.76 2.28l.17 1.01a2.806 2.806 0 0 0 2.77 2.32h14.27c1.55 0 2.81-1.26 2.81-2.81s1.26-2.81 2.81-2.81h99.03v-5.62H0ZM0 205.44v5.62h97.5c1.55 0 2.81 1.26 2.81 2.81s1.26 2.81 2.81 2.81 2.81-1.26 2.81-2.81 1.26-2.81 2.81-2.81h97.9c1.55 0 2.81 1.26 2.81 2.81s1.26 2.81 2.81 2.81 2.81-1.26 2.81-2.81 1.26-2.81 2.81-2.81h97.9c1.55 0 2.81 1.26 2.81 2.81s1.26 2.81 2.81 2.81 2.81-1.26 2.81-2.81 1.26-2.81 2.81-2.81h97.91c1.55 0 2.81 1.26 2.81 2.81s1.26 2.81 2.81 2.81h12.81a2.81 2.81 0 0 0 2.79-2.46l.17-1c.3-1.24 1.41-2.15 2.73-2.15h72.62c1.33 0 2.44.92 2.73 2.15l.17 1a2.803 2.803 0 0 0 2.79 2.46h10.01c1.55 0 2.81-1.26 2.81-2.81s1.26-2.81 2.81-2.81h99.03v-5.62H0Z" class="b"></path><path d="M0 231.12v5.62h97.5c1.55 0 2.81 1.26 2.81 2.81s1.26 2.81 2.81 2.81 2.81-1.26 2.81-2.81 1.26-2.81 2.81-2.81h97.9c1.55 0 2.81 1.26 2.81 2.81s1.26 2.81 2.81 2.81 2.81-1.26 2.81-2.81 1.26-2.81 2.81-2.81h97.9c1.55 0 2.81 1.26 2.81 2.81s1.26 2.81 2.81 2.81 2.81-1.26 2.81-2.81 1.26-2.81 2.81-2.81h97.91c1.55 0 2.81 1.26 2.81 2.81s1.26 2.81 2.81 2.81h8.54c1.36 0 2.49-.97 2.75-2.25l.18-1.05a2.806 2.806 0 0 1 2.77-2.32h81.15c1.38 0 2.53 1 2.77 2.32l.18 1.05a2.802 2.802 0 0 0 2.75 2.24h5.73c1.55 0 2.81-1.26 2.81-2.81s1.26-2.81 2.81-2.81h99.03v-5.62H0ZM0 256.8v5.62h97.5c1.55 0 2.81 1.26 2.81 2.81s1.26 2.81 2.81 2.81 2.81-1.26 2.81-2.81 1.26-2.81 2.81-2.81h97.9c1.55 0 2.81 1.26 2.81 2.81s1.26 2.81 2.81 2.81 2.81-1.26 2.81-2.81 1.26-2.81 2.81-2.81h97.9c1.55 0 2.81 1.26 2.81 2.81s1.26 2.81 2.81 2.81 2.81-1.26 2.81-2.81 1.26-2.81 2.81-2.81h97.91c1.55 0 2.81 1.26 2.81 2.81a3.54 3.54 0 0 0 3.54 3.54h2.81a3.53 3.53 0 0 0 3.44-2.73l.23-1.35a2.804 2.804 0 0 1 2.76-2.26h89.69c1.36 0 2.5.97 2.76 2.26l.23 1.35a3.528 3.528 0 0 0 3.44 2.73 3.54 3.54 0 0 0 3.54-3.54c0-1.55 1.26-2.81 2.81-2.81h99.03v-5.62H0ZM0 282.48v5.62h97.5c1.55 0 2.81 1.26 2.81 2.81s1.26 2.81 2.81 2.81 2.81-1.26 2.81-2.81 1.26-2.81 2.81-2.81h97.9c1.55 0 2.81 1.26 2.81 2.81s1.26 2.81 2.81 2.81 2.81-1.26 2.81-2.81 1.26-2.81 2.81-2.81h97.9c1.55 0 2.81 1.26 2.81 2.81s1.26 2.81 2.81 2.81 2.81-1.26 2.81-2.81 1.26-2.81 2.81-2.81h97.91c1.55 0 2.81 1.26 2.81 2.81s1.26 2.81 2.81 2.81c1.45 0 2.64-1.09 2.79-2.5l.14-.84c.25-1.3 1.39-2.28 2.76-2.28h96.23c1.55 0 2.81 1.26 2.81 2.81v2.45c0 1.35 1.1 2.45 2.45 2.45s2.45-1.1 2.45-2.45v-2.45c0-1.55 1.26-2.81 2.81-2.81h99.03v-5.62H0ZM0 308.16v16.85h192.76c1.19 0 2.23-.65 2.78-1.61l3.72-7.45a5.39 5.39 0 0 1 4.81-2.98c2.97 0 5.38 2.41 5.38 5.38v3.45c0 1.77 1.44 3.21 3.21 3.21H522l3.88-7.78c.88-1.76 2.7-2.98 4.81-2.98 2.97 0 5.38 2.41 5.38 5.38v5.38H642v-16.85H0ZM0 333.84v16.85h179.95c1.21 0 2.27-.67 2.82-1.67l4.61-9.24a3.227 3.227 0 0 1 2.87-1.78h15.99c1.77 0 3.21 1.44 3.21 3.21v6.26c0 1.77 1.44 3.21 3.21 3.21h294.55c1.25 0 2.33-.71 2.86-1.76l3.33-6.67c.5-1.12 1.63-1.9 2.93-1.9l16.53.03c1.77 0 3.21 1.44 3.21 3.21v3.88c0 1.77 1.44 3.21 3.21 3.21H642v-16.85H0ZM0 359.52v16.85h167.16c1.19 0 2.23-.65 2.79-1.62l4.47-8.97a3.207 3.207 0 0 1 2.87-1.77h28.95c1.77 0 3.21 1.44 3.21 3.21v5.94c0 1.77 1.44 3.21 3.21 3.21h281.76c1.18 0 2.21-.63 2.76-1.58l4.31-8.66c.58-.85 1.55-1.4 2.65-1.4h28.71c1.77 0 3.21 1.44 3.21 3.21v5.22c0 1.77 1.44 3.21 3.21 3.21h102.72v-16.85H0ZM0 385.2v16.85h154.35c1.22 0 2.29-.68 2.83-1.69l4.1-8.24a3.209 3.209 0 0 1 2.84-1.71h42.12c1.77 0 3.21 1.44 3.21 3.21v5.22c0 1.77 1.44 3.21 3.21 3.21h268.95c1.19 0 2.23-.65 2.79-1.61l4.14-8.31a3.218 3.218 0 0 1 2.84-1.72h41.48c1.77 0 3.21 1.44 3.21 3.21v5.22c0 1.77 1.44 3.21 3.21 3.21H642V385.2H0ZM0 410.88v16.85h141.58c1.25 0 2.33-.78 2.86-1.82l4.04-8.1a3.218 3.218 0 0 1 2.84-1.72h54.92c1.77 0 3.21 1.44 3.21 3.21v5.22c0 1.77 1.44 3.21 3.21 3.21h200.2l4.23-8.38a5.382 5.382 0 0 1 9.84 3.01v5.38h41.88c1.17 0 2.2-.63 2.76-1.57l4.18-8.39c.54-1 1.6-1.68 2.82-1.68h54.28c1.77 0 3.21 1.44 3.21 3.21v5.22c0 1.77 1.44 3.21 3.21 3.21h102.72v-16.85H0ZM0 436.56v16.85h128.75c1.21 0 2.27-.67 2.81-1.66l4.17-8.38c.56-.96 1.59-1.6 2.78-1.6h67.73c1.77 0 3.21 1.44 3.21 3.21v5.22c0 1.77 1.44 3.21 3.21 3.21h185.41c1.25 0 2.33-.71 2.86-1.75l4.1-8.22a3.21 3.21 0 0 1 2.81-1.66h15.88c1.77 0 3.21 1.44 3.21 3.21v5.22c0 1.77 1.44 3.21 3.21 3.21h25.87c1.16 0 2.18-.62 2.75-1.55l4.19-8.41c.54-1 1.6-1.68 2.82-1.68h67.09c1.77 0 3.21 1.44 3.21 3.21v5.22c0 1.77 1.44 3.21 3.21 3.21H642v-16.85H0ZM0 462.24v16.85h115.94c1.2 0 2.24-.66 2.79-1.63l4.12-8.25a3.212 3.212 0 0 1 2.86-1.76h80.53c1.77 0 3.21 1.44 3.21 3.21v5.22c0 1.77 1.44 3.21 3.21 3.21h172.61c1.22 0 2.28-.68 2.82-1.68l4.09-8.2a3.212 3.212 0 0 1 2.86-1.76h28.67c1.77 0 3.21 1.44 3.21 3.21v5.22c0 1.77 1.44 3.21 3.21 3.21h13.06c1.19 0 2.23-.65 2.78-1.61l4.12-8.27a3.212 3.212 0 0 1 2.86-1.76h79.89c1.77 0 3.21 1.44 3.21 3.21v5.22c0 1.77 1.44 3.21 3.21 3.21h102.72v-16.85H0ZM0 487.92v16.85h103.13c1.2 0 2.24-.66 2.79-1.63l4.14-8.3a3.209 3.209 0 0 1 2.84-1.71h93.33c1.77 0 3.21 1.44 3.21 3.21v5.22c0 1.77 1.44 3.21 3.21 3.21h159.8c1.25 0 2.34-.72 2.87-1.76l4.23-8.46a3.21 3.21 0 0 1 2.66-1.41h41.49c1.77 0 3.21 1.44 3.21 3.21v5.72c0 1.17.65 2.14 1.58 2.7h3.32c.44-.28.83-.65 1.09-1.1l4.39-8.79a3.195 3.195 0 0 1 2.86-1.74h92.69c1.77 0 3.21 1.44 3.21 3.21v5.22c0 1.77 1.44 3.21 3.21 3.21h102.72v-16.85H0ZM641.36 513.57c-.64 5.78-1.73 11.43-3.27 16.88H430.15c-1.8 0-3.21-1.41-3.21-3.21v-5.2c0-1.8-1.41-3.21-3.21-3.21h-54.31c-1.16 0-2.18.64-2.76 1.61l-4.24 8.41c-.51.96-1.54 1.6-2.76 1.6H3.92c-1.54-5.46-2.63-11.11-3.27-16.88h640.72ZM635.19 539.25c-2.18 5.91-4.94 11.56-8.15 16.88h-196.9c-1.8 0-3.21-1.41-3.21-3.21v-5.2c0-1.8-1.41-3.21-3.21-3.21h-67.09c-1.22 0-2.25.64-2.82 1.67l-4.17 8.35c-.51.96-1.6 1.6-2.76 1.6H14.96c-3.21-5.33-5.97-10.98-8.15-16.88H635.2ZM621.14 564.93c-4.56 6.16-9.89 11.88-15.73 16.88H430.14c-1.8 0-3.21-1.41-3.21-3.21v-5.2c0-1.8-1.41-3.21-3.21-3.21h-79.86c-1.28 0-2.38.71-2.89 1.73l-4.04 8.15c-.58 1.03-1.6 1.73-2.89 1.73H36.59a103.468 103.468 0 0 1-15.73-16.88h600.27ZM593.66 590.61c-16.44 10.72-36.08 16.88-57.2 16.88H430.14c-1.8 0-3.21-1.41-3.21-3.21v-5.2c0-1.8-1.41-3.21-3.21-3.21h-92.7c-1.22 0-2.25.64-2.82 1.67l-4.11 8.28c-.58.96-1.6 1.67-2.82 1.67H105.54c-21.12 0-40.77-6.16-57.2-16.88h545.31Z" class="c"></path></svg>