<svg xmlns="http://www.w3.org/2000/svg" width="618.5" viewBox="0 0 618.5 244.7" height="244.7" style="enable-background:new 0 0 618.5 244.7" xml:space="preserve"><path d="M613.8 147.2C632.3 80.6 580 0 496.6 0c-39.5 0-72 18.1-93.3 44.2C381.9 18.1 349.4 0 310 0c-39.9 0-72.7 18.5-94 45-21.3-26.6-54.1-45-94-45C38.6 0-13.8 80.6 4.8 147.2c-6.8 11.4-6.3 16.8 1 19.3s10.3 3.9 5.4 12.4c-3.7 6.3-1.2 10.9 11.2 13.7 6.4 1.4 17.6 3.1 10.3 11.7-3.7 4.3-2.3 8.2 2.2 10.4 4.3 2.2 11.5 3.3 20.7 4.4 4.7.6 12.9 2 18.9 3 7.5 1.2 7 5.6-4.1 6.9-6.4.7-10.9 3.1-10.8 5.8 0 1.9 2 3.9 7.7 5.5 8.7 2.5 25.7 4.3 54.6 4.3s45.9-1.8 54.6-4.3c5.7-1.6 7.7-3.7 7.7-5.5 0-2.7-4.5-5.1-10.8-5.8-11.1-1.3-11.5-5.7-4.1-6.9 6-1 14.3-2.4 18.9-3 9.2-1.2 16.5-2.3 20.7-4.4 4.5-2.3 5.8-6.1 2.2-10.4-5.4-6.4-.7-8.9 4.7-10.4 5.4 1.5 10.1 4.1 4.7 10.4-3.7 4.3-2.3 8.2 2.2 10.4 4.3 2.2 11.5 3.3 20.7 4.4 4.7.6 12.9 2 18.9 3 7.5 1.2 7 5.6-4.1 6.9-6.4.7-10.9 3.1-10.8 5.8 0 1.9 2 3.9 7.7 5.5 8.7 2.5 25.7 4.3 54.6 4.3 28.9 0 45.9-1.8 54.6-4.3 5.7-1.6 7.7-3.7 7.7-5.5 0-2.7-4.5-5.1-10.8-5.8-11.1-1.3-11.5-5.7-4.1-6.9 6-1 14.3-2.4 18.9-3 9.2-1.2 16.5-2.3 20.7-4.4 4.5-2.3 5.8-6.1 2.2-10.4-5.2-6.1-1.1-8.7 4-10.2 5.1 1.5 9.2 4.1 4 10.2-3.7 4.3-2.3 8.2 2.2 10.4 4.3 2.2 11.5 3.3 20.7 4.4 4.7.6 12.9 2 18.9 3 7.4 1.2 7 5.6-4.1 6.9-6.4.7-10.9 3.1-10.8 5.8 0 1.9 2 3.9 7.7 5.5 8.7 2.5 25.7 4.3 54.6 4.3s45.9-1.8 54.6-4.3c5.7-1.6 7.7-3.7 7.7-5.5 0-2.7-4.5-5.1-10.8-5.8-11.1-1.3-11.5-5.7-4.1-6.9 6-1 14.3-2.4 18.9-3 9.2-1.2 16.5-2.3 20.7-4.4 4.5-2.3 5.8-6.1 2.2-10.4-7.3-8.6 3.9-10.3 10.3-11.7 12.5-2.8 14.9-7.4 11.2-13.7-5-8.5-1.9-9.8 5.4-12.4 7.8-2.5 8.3-7.9 1.6-19.3zm-421 0c-6.8 11.4-6.3 16.8 1 19.3s10.3 3.9 5.4 12.4c-2.6 4.5-2.1 8.1 2.9 10.8-2.4.5-5.1.9-8.1 1.2-5.3.6-11.8 1.5-16.1 3.2-6.2 2.5-8.1 6.3 2.2 10.6 5 2.1 9.1 2.8 7.1 6-3.4 5.1-28.4 9.2-65.1 9.2s-61.8-4.1-65.1-9.2c-2.1-3.1 2-3.8 7.1-6 10.3-4.3 8.4-8.1 2.2-10.6-4.3-1.7-10.8-2.7-16.1-3.2-14.4-1.6-22.3-5-14.9-12.2 8.7-8.5-.6-10.2-5.3-11.9-11-4.2-10.2-5.5-2.9-19.6C11 98.5 43.9 21.8 121.9 21.8c37.9 0 65.2 18.1 81.4 42.3-13.7 25.7-18.2 55.6-10.5 83.1zm186.6 0c-6.8 11.4-6.3 16.8 1 19.3s10.3 3.9 5.4 12.4c-2.7 4.6-2.1 8.3 3.3 11-2.1.4-4.5.8-7.1 1-5.3.6-11.8 1.5-16.1 3.2-6.2 2.5-8.1 6.3 2.2 10.6 5 2.1 9.1 2.8 7.1 6-3.4 5.1-28.4 9.2-65.1 9.2-36.7 0-61.8-4.1-65.1-9.2-2.1-3.1 2-3.8 7.1-6 10.3-4.3 8.4-8.1 2.2-10.6-4.3-1.7-10.8-2.7-16.1-3.2-3-.3-5.7-.7-8.1-1.2 5-2.7 5.5-6.4 2.9-10.8-5-8.5-1.9-9.8 5.4-12.4 7.2-2.5 7.7-7.9 1-19.3 7.7-27.5 3.2-57.5-10.5-83.1C244.8 39.9 272 21.8 310 21.8c37.3 0 64.3 17.5 80.6 41.2-14.3 25.9-18.9 56.3-11.2 84.2zm209.4 19.6c-4.6 1.8-14 3.4-5.3 11.9 7.4 7.3-.5 10.7-14.9 12.2-5.3.6-11.8 1.5-16.1 3.2-6.2 2.5-8.1 6.3 2.2 10.6 5 2.1 9.1 2.8 7.1 6-3.4 5.1-28.4 9.2-65.1 9.2s-61.8-4.1-65.1-9.2c-2.1-3.1 2-3.8 7.1-6 10.3-4.3 8.4-8.1 2.2-10.6-4.3-1.7-10.8-2.7-16.1-3.2-2.6-.3-5-.6-7.1-1 5.4-2.8 6-6.5 3.3-11-5-8.5-1.9-9.8 5.4-12.4 7.2-2.5 7.7-7.9 1-19.3 7.8-27.9 3.1-58.3-11.1-84.2 16.3-23.6 43.3-41.2 80.6-41.2 78.1 0 110.9 76.6 95.1 125.4 7 14.1 7.8 15.4-3.2 19.6z"></path></svg>