<svg id="Layer_1" data-name="Layer 1" xmlns="http://www.w3.org/2000/svg" viewBox="0 0 617.36 485.4"><defs></defs><path class="cls-1" d="M617.36 194.82C617.36 85.58 481.78 0 308.68 0S0 85.58 0 194.82c0 89.36 90.75 162.86 218.52 186.66V485.4h59.73v-96.67c10 .59 20.14.91 30.43.91s20.43-.32 30.43-.91v96.67h59.73V381.48c127.77-23.8 218.52-97.3 218.52-186.66Zm-557.63 0c0-3.54.35-7.04.87-10.52h22.08c74.9 0 135.84 60.94 135.84 135.84v.19c-91.91-20.07-158.79-69.44-158.79-125.51Zm248.95 135.09c-10.28 0-20.43-.4-30.43-1.1v-8.67c0-103.13-80.25-187.81-181.57-195.02 44.28-38.86 123.64-65.39 212-65.39s167.72 26.52 212 65.39c-101.32 7.21-181.57 91.89-181.57 195.02v8.67c-10 .7-20.14 1.1-30.43 1.1Zm90.16-9.57v-.19c0-74.9 60.94-135.84 135.84-135.84h22.08c.52 3.48.87 6.98.87 10.52 0 56.07-66.88 105.44-158.79 125.51Z"></path><circle class="cls-1" cx="308.68" cy="149.57" r="67.23" transform="rotate(-45 308.684 149.57)"></circle></svg>