<svg xmlns="http://www.w3.org/2000/svg" width="619.9" viewBox="0 0 619.9 516.5" height="516.5" xml:space="preserve" style="enable-background:new 0 0 619.9 516.5"><path d="M473.4 0H220.2C139.4 0 73.6 65.7 73.6 146.5v166.1c-13.9 4.2-28.7 6.5-43.9 6.5-10 0-20-1-29.7-3v30.3c9.8 1.6 19.7 2.5 29.7 2.5 15.1 0 29.8-1.9 43.9-5.4v105.3c0 37.3 30.4 67.7 67.7 67.7 37.3 0 67.7-30.4 67.7-67.7v-77.6h-29.8v77.6c0 20.9-17 37.9-37.9 37.9s-37.9-17-37.9-37.9V333.3c8.2-3.7 16.1-7.9 23.6-12.8v140.1h29.8V296.5c26.8-26.7 45.2-61.8 50.9-101.6h-30.2c-7.9 45.5-35.8 83.4-74.1 105V146.5c0-64.4 52.4-116.7 116.7-116.7h1.2v267.7c-.8 0-1.6.1-2.4.1-13.5 0-26.8-1.6-39.8-4.7v30.5c13 2.7 26.4 4 39.8 4 .8 0 1.6-.1 2.4-.1v184.2h176.3V401h45.9v110.5h176.3v-365C619.9 65.7 554.2 0 473.4 0zM251.2 29.8h104.6c20.2 28.7 33.3 62.3 33.3 97.7 0 82.8-59.4 151.9-137.9 167V29.8zm338.9 451.9h-43.5V371.2h-29.8v110.5h-43.5V371.2H367.9v110.5h-43.5V371.2h-29.8v110.5h-43.5v-157c94.9-15.5 167.7-98 167.7-197.3 0-34.7-11.2-68-27.9-97.7h82.5c64.4 0 116.7 52.4 116.7 116.7v335.3z"></path><path d="M160.6 129.1h47.2v29.8h-47.2z"></path></svg>