<svg id="Layer_1" data-name="Layer 1" xmlns="http://www.w3.org/2000/svg" viewBox="0 0 604.3 604.94">   <path d="M553.22,251.7h-127.73l90.32-90.32c19.95-19.95,19.95-52.3,0-72.25-19.96-19.95-52.3-19.95-72.25,0l-141.4,141.4L160.75,89.13c-19.96-19.95-52.3-19.95-72.25,0-19.95,19.95-19.95,52.3,0,72.25l90.32,90.32H51.09c-28.22,0-51.09,22.87-51.09,51.09s22.87,51.09,51.09,51.09h127.73l-90.32,90.32c-19.95,19.95-19.95,52.3,0,72.25,9.98,9.97,23.05,14.96,36.13,14.96s26.15-4.99,36.13-14.96l90.32-90.32v127.73c0,28.22,22.87,51.09,51.09,51.09s51.09-22.87,51.09-51.09v-127.73l90.32,90.32c9.98,9.97,23.05,14.96,36.13,14.96s26.15-4.99,36.13-14.96c19.95-19.95,19.95-52.3,0-72.25l-90.32-90.32h127.72c28.22,0,51.09-22.87,51.09-51.09s-22.87-51.09-51.09-51.09Z"></path>   <circle cx="302.15" cy="67.18" r="67.18" transform="translate(124.46 320.62) rotate(-67.5)"></circle> </svg>