<svg id="Layer_1" data-name="Layer 1" xmlns="http://www.w3.org/2000/svg" viewBox="0 0 616.86 616.86">
  <path d="M291.06,308.43c0,9.6,7.78,17.37,17.37,17.37,9.6,0,17.37-7.78,17.37-17.37s-7.78-17.37-17.37-17.37-17.37,7.78-17.37,17.37Z"></path>
  <path d="M289.71,308.55L146.15,165.37c-16.27-16.21-37.91-25.09-60.89-24.99C38.76,140.61,.67,178.32,0,224.83c-.49,34.32,19.32,64.16,48.16,78.26,4.47,2.19,4.47,8.5,0,10.69C19.33,327.88-.48,357.71,0,392.03c.66,46.5,38.74,84.22,85.25,84.44,22.98,.11,44.62-8.77,60.89-24.98l143.56-142.94ZM85.68,463.86c-40.29,0-73.06-32.78-73.06-73.06,0-26.7,14.4-50.1,35.84-62.85h0s12.15-8.72,37.22-11.84v-15.39c-22.51-2.8-34.6-10.11-36.84-11.58-21.65-12.69-36.23-36.21-36.23-63.07,0-40.29,32.78-73.06,73.06-73.06,19.46,0,37.78,7.57,51.54,21.28l134.66,134.21-134.63,134.06c-13.79,13.74-32.1,21.31-51.57,21.31Z"></path>
  <path d="M308.32,289.71l143.17-143.56c16.21-16.27,25.09-37.91,24.99-60.89C476.25,38.76,438.54,.67,392.04,0c-34.32-.49-64.16,19.32-78.26,48.16-2.19,4.47-8.5,4.47-10.69,0C288.98,19.33,259.15-.48,224.83,0c-46.5,.66-84.22,38.74-84.44,85.25-.11,22.98,8.77,44.62,24.98,60.89l142.94,143.56ZM226.07,12.61c26.7,0,50.1,14.4,62.85,35.84h0s8.72,12.15,11.84,37.22h15.39c2.8-22.51,10.11-34.6,11.58-36.84,12.69-21.65,36.21-36.23,63.07-36.23,40.29,0,73.06,32.78,73.06,73.06,0,19.46-7.57,37.78-21.28,51.54l-134.21,134.66L174.31,137.25c-13.74-13.79-21.31-32.1-21.31-51.57,0-40.29,32.78-73.06,73.06-73.06Z"></path>
  <path d="M568.69,313.78c-4.47-2.19-4.47-8.5,0-10.69,28.84-14.1,48.64-43.94,48.16-78.26-.66-46.5-38.74-84.22-85.25-84.44-22.98-.11-44.62,8.77-60.89,24.98l-143.56,142.94,143.56,143.17c16.27,16.21,37.91,25.09,60.89,24.99,46.51-.22,84.59-37.94,85.25-84.44,.49-34.32-19.32-64.16-48.16-78.26Zm-37.51,150.08c-19.46,0-37.78-7.57-51.54-21.28l-134.66-134.21,134.63-134.06c13.79-13.74,32.1-21.31,51.57-21.31,40.29,0,73.06,32.78,73.06,73.06,0,26.7-14.4,50.1-35.84,62.85h0s-12.15,8.72-37.22,11.84v15.39c22.51,2.8,34.6,10.11,36.84,11.58,21.65,12.69,36.23,36.21,36.23,63.07,0,40.29-32.78,73.06-73.06,73.06Z"></path>
  <path d="M308.55,327.16l-143.17,143.56c-16.21,16.27-25.09,37.91-24.99,60.89,.22,46.51,37.93,84.59,84.44,85.25,34.32,.49,64.16-19.32,78.26-48.16,2.19-4.47,8.5-4.47,10.69,0,14.1,28.84,43.94,48.64,78.26,48.16,46.5-.66,84.22-38.74,84.44-85.25,.11-22.98-8.77-44.62-24.98-60.89l-142.94-143.56Zm82.25,277.09c-26.7,0-50.1-14.4-62.85-35.84h0s-8.72-12.15-11.84-37.22h-15.39c-2.8,22.51-10.11,34.6-11.58,36.84-12.69,21.65-36.21,36.23-63.07,36.23-40.29,0-73.06-32.78-73.06-73.06,0-19.46,7.57-37.78,21.28-51.54l134.21-134.66,134.06,134.63c13.74,13.79,21.31,32.1,21.31,51.57,0,40.29-32.78,73.06-73.06,73.06Z"></path>
</svg>