<svg version="1.0" xmlns="http://www.w3.org/2000/svg" width="465.8" viewBox="0 0 465.8 617.1" height="617.1" xml:space="preserve" style="enable-background:new 0 0 465.8 617.1"><path d="M0 0v465.8h465.8V0H0zm78.6 308.6c-41.5 0-75.1-33.6-75.1-75.1 0-41.5 33.6-75.1 75.1-75.1 41.5 0 75.1 33.6 75.1 75.1 0 41.4-33.6 75.1-75.1 75.1zm154.3 154.2c-41.5 0-75.1-33.6-75.1-75.1 0-41.5 33.6-75.1 75.1-75.1 41.5 0 75.1 33.6 75.1 75.1 0 41.5-33.6 75.1-75.1 75.1zm0-154.2c-41.5 0-75.1-33.6-75.1-75.1 0-41.5 33.6-75.1 75.1-75.1 41.5 0 75.1 33.6 75.1 75.1 0 41.4-33.6 75.1-75.1 75.1zm154.2 0c-41.5 0-75.1-33.6-75.1-75.1 0-41.5 33.6-75.1 75.1-75.1s75.1 33.6 75.1 75.1c.1 41.4-33.6 75.1-75.1 75.1z"></path><circle cx="232.9" cy="542" r="75.1"></circle></svg>