<svg xmlns="http://www.w3.org/2000/svg" viewBox="0 0 633.02 642"><path d="m255.78 310.87 54.74-54.74c.6-.6 1.04-1.31 1.32-2.09.21-.6.32-1.23.32-1.88v-55.72c0-.44-.05-.85-.13-1.25-.3-1.39-1.11-2.52-2.16-3.29-1.33-.96-3.06-1.34-4.7-.93-.93.23-1.82.72-2.6 1.49l-82.6 82.6s-.06.06-.08.09c-.19.2-.36.4-.52.62-.31.43-.55.89-.72 1.38-.27.77-.38 1.59-.3 2.39a5.635 5.635 0 0 0 1.62 3.47s27.86 27.86 27.86 27.86l.1.1c.19.18.38.34.58.49.43.31.89.55 1.37.73.76.28 1.58.38 2.38.32s1.6-.3 2.32-.72c.43-.24.83-.55 1.19-.91ZM255.78 331.13l54.74 54.74c.69.69 1.18 1.53 1.44 2.45.11.38.17.78.2 1.18 0 .11.01.23.01.34v55.72c0 .44-.05.85-.13 1.25-.3 1.39-1.11 2.52-2.16 3.29-1.33.96-3.06 1.34-4.7.93-.93-.23-1.82-.72-2.6-1.49l-82.6-82.6-.09-.09a5.61 5.61 0 0 1-1.23-1.99c-.27-.76-.37-1.57-.3-2.37a5.616 5.616 0 0 1 1.63-3.5l27.86-27.86.11-.11a5.458 5.458 0 0 1 1.94-1.2c.73-.26 1.49-.37 2.26-.33.85.05 1.69.29 2.45.73.42.24.82.55 1.19.91ZM223.5 343.15l18.17-18.17.09-.09a5.61 5.61 0 0 0 1.23-1.99c.27-.76.37-1.57.3-2.37a5.616 5.616 0 0 0-1.63-3.5s-18.17-18.17-18.17-18.17c-.3-.3-.62-.56-.95-.77a5.457 5.457 0 0 0-3.78-.83c-1.65.24-3.18 1.19-4.07 2.66-.5.82-.8 1.81-.8 2.92v36.35c0 .44.05.85.13 1.25.3 1.39 1.11 2.52 2.16 3.29 1.33.96 3.06 1.34 4.7.93.93-.23 1.82-.72 2.6-1.49ZM41.87 310.87l54.74-54.74c.6-.6 1.04-1.31 1.32-2.09.21-.6.32-1.23.32-1.88v-55.72c0-.52-.07-1.02-.19-1.49a5.522 5.522 0 0 0-1.51-2.56c-1.53-1.46-3.85-2.02-5.91-1.23-.66.25-1.3.65-1.88 1.2-.04.03-.07.07-.11.1l-82.59 82.6-.09.09c-.17.18-.33.37-.48.57a5.56 5.56 0 0 0-1.07 3.68c.06.98.38 1.94.95 2.78a6.43 6.43 0 0 0 .68.84l27.86 27.86s.07.07.11.1c.16.15.33.3.5.43a5.59 5.59 0 0 0 3.7 1.1c.95-.06 1.89-.35 2.72-.89.33-.21.63-.46.92-.75ZM41.87 331.13l54.74 54.74c.6.6 1.04 1.31 1.32 2.09.21.6.32 1.23.32 1.88v55.71c0 .52-.06 1.01-.18 1.47a5.476 5.476 0 0 1-1.6 2.66c-1.52 1.39-3.78 1.92-5.79 1.16-.67-.25-1.32-.65-1.9-1.2-.04-.03-.07-.07-.11-.11L6.06 366.94a5.628 5.628 0 0 1 0-7.95l.03-.03 27.83-27.83.09-.09a5.61 5.61 0 0 1 1.99-1.23c.76-.27 1.57-.37 2.37-.3a5.616 5.616 0 0 1 3.5 1.63ZM9.59 343.15l18.17-18.17.09-.09a5.61 5.61 0 0 0 1.23-1.99c.27-.76.37-1.57.3-2.37a5.616 5.616 0 0 0-1.63-3.5S9.58 298.86 9.58 298.86a5.476 5.476 0 0 0-4.62-1.62c-1.64.2-3.17 1.11-4.08 2.53-.55.85-.89 1.89-.89 3.06v36.35c0 .44.05.85.13 1.25.3 1.39 1.11 2.52 2.16 3.29 1.33.96 3.06 1.34 4.7.93.93-.23 1.82-.72 2.6-1.49ZM163.34 310.87l-54.74-54.74a5.625 5.625 0 0 1-1.65-3.97v-55.72c0-.44.05-.85.13-1.25.3-1.39 1.11-2.52 2.16-3.29 1.33-.96 3.06-1.34 4.7-.93.93.23 1.82.72 2.6 1.49s82.6 82.6 82.6 82.6l.1.1a5.384 5.384 0 0 1 1.22 1.98c.24.67.34 1.38.32 2.08a5.632 5.632 0 0 1-.98 2.99c-.16.23-.34.45-.53.66-.04.04-.08.09-.13.13l-27.86 27.86-.09.09a5.708 5.708 0 0 1-1.99 1.23c-.75.27-1.55.37-2.34.31-.91-.07-1.81-.37-2.6-.88-.32-.2-.61-.44-.89-.72l-.03-.03ZM163.34 331.13l-54.74 54.74a5.622 5.622 0 0 0-1.65 3.98V445.58c0 .44.05.85.13 1.25.3 1.39 1.11 2.52 2.16 3.29 1.33.96 3.06 1.34 4.7.93.93-.23 1.82-.72 2.6-1.49l82.6-82.6.09-.09a5.61 5.61 0 0 0 1.23-1.99c.27-.76.37-1.57.3-2.37a5.616 5.616 0 0 0-1.63-3.5l-27.86-27.86-.11-.11a5.56 5.56 0 0 0-1.97-1.21c-.7-.25-1.43-.35-2.16-.32-.96.05-1.92.34-2.76.88-.33.21-.65.47-.94.76ZM157.18 324.97l-50.61 50.61-.09.09a5.61 5.61 0 0 1-1.99 1.23c-.76.27-1.57.37-2.37.3a5.616 5.616 0 0 1-3.5-1.63l-50.61-50.61-.09-.09a5.61 5.61 0 0 1-1.23-1.99c-.27-.76-.37-1.57-.3-2.37a5.616 5.616 0 0 1 1.63-3.5s50.61-50.61 50.61-50.61l.09-.09a5.61 5.61 0 0 1 1.99-1.23c.76-.27 1.57-.37 2.37-.3a5.616 5.616 0 0 1 3.5 1.63l50.61 50.61.09.09a5.61 5.61 0 0 1 1.23 1.99c.27.76.37 1.57.3 2.37a5.616 5.616 0 0 1-1.63 3.5ZM195.61 343.15l-18.17-18.17-.09-.09a5.61 5.61 0 0 1-1.23-1.99c-.27-.76-.37-1.57-.3-2.37a5.616 5.616 0 0 1 1.63-3.5l18.17-18.17c.37-.38.76-.68 1.18-.92.96-.56 2.01-.79 3.03-.74 2 .1 3.91 1.27 4.82 3.13.33.68.54 1.46.56 2.31v36.54c0 .35-.03.68-.09 1.01a5.466 5.466 0 0 1-2.3 3.58c-1.04.72-2.31 1.09-3.58 1.02s-2.56-.59-3.62-1.65ZM270.29 120.06l-54.74-54.74-.02-.02c-.59-.6-1.04-1.32-1.31-2.1a5.84 5.84 0 0 1-.32-1.81V5.63c0-.46.05-.9.15-1.31.3-1.33 1.06-2.41 2.06-3.16 1.32-1 3.07-1.4 4.72-1.01.95.23 1.87.72 2.67 1.51s82.6 82.6 82.6 82.6l.09.09a5.61 5.61 0 0 1 1.23 1.99c.27.76.37 1.57.3 2.37a5.616 5.616 0 0 1-1.63 3.5l-27.86 27.86-.11.11a5.585 5.585 0 0 1-1.95 1.2 5.632 5.632 0 0 1-4.76-.43c-.4-.24-.78-.53-1.13-.87ZM270.29 140.32l-54.74 54.74c-.6.6-1.04 1.31-1.32 2.09-.21.6-.32 1.23-.32 1.88v55.72c0 .44.05.85.13 1.25.3 1.39 1.11 2.52 2.16 3.29 1.33.96 3.06 1.34 4.7.93.93-.23 1.82-.72 2.6-1.49l82.6-82.6c.16-.16.31-.32.44-.5.45-.56.77-1.19.97-1.85a5.643 5.643 0 0 0 .2-2.31 5.396 5.396 0 0 0-.72-2.15c-.04-.06-.08-.13-.12-.19a5.79 5.79 0 0 0-.77-.96s-27.86-27.86-27.86-27.86l-.1-.1a5.57 5.57 0 0 0-1.93-1.2c-.78-.29-1.6-.39-2.42-.33-.72.06-1.43.26-2.08.59-.51.26-.99.61-1.42 1.03ZM302.57 152.34l-18.17-18.17-.09-.09c-.18-.19-.35-.39-.5-.6a5.79 5.79 0 0 1-.73-1.39c-.27-.76-.37-1.57-.3-2.37a5.616 5.616 0 0 1 1.63-3.5l18.17-18.17c.3-.3.62-.56.95-.77a5.457 5.457 0 0 1 3.78-.83c1.65.24 3.18 1.19 4.07 2.66.5.82.8 1.81.8 2.92v36.35c0 .44-.05.85-.13 1.25-.3 1.39-1.11 2.52-2.16 3.29-1.33.96-3.06 1.34-4.7.93-.93-.23-1.82-.72-2.6-1.49ZM148.82 120.06l54.74-54.74c.07-.07.14-.14.2-.21.39-.44.72-.93.95-1.46.32-.72.49-1.5.49-2.3V5.63c0-.45-.05-.88-.14-1.28a5.403 5.403 0 0 0-2.09-3.2c-1.28-.95-2.94-1.36-4.54-1.03-1.01.21-1.99.71-2.83 1.55L113 84.27s-.05.06-.08.08c-.19.2-.37.41-.52.63-.3.42-.54.88-.71 1.36-.28.78-.38 1.61-.31 2.42s.34 1.67.8 2.41c.23.37.5.72.82 1.04l27.86 27.86s.07.06.1.1c.19.18.38.34.59.49.42.31.88.55 1.35.72.77.28 1.59.39 2.4.32.76-.06 1.51-.28 2.19-.65.47-.25.92-.58 1.31-.98ZM148.82 140.32l54.73 54.73c.37.38.67.79.92 1.23.47.83.72 1.78.72 2.76v55.72c0 .5-.06.98-.18 1.43a5.46 5.46 0 0 1-1.73 2.8c-1.51 1.3-3.68 1.78-5.63 1.07-.69-.25-1.35-.65-1.95-1.22-.04-.03-.07-.07-.11-.11l-82.6-82.6-.09-.09c-.18-.19-.35-.39-.5-.6a5.79 5.79 0 0 1-.73-1.39c-.27-.76-.37-1.57-.31-2.36.08-.89.36-1.77.86-2.55.21-.34.47-.65.76-.95l27.86-27.86.11-.11a5.604 5.604 0 0 1 1.95-1.2c.72-.26 1.48-.37 2.23-.33a5.612 5.612 0 0 1 3.65 1.64ZM154.98 134.17l50.61 50.61.09.09a5.61 5.61 0 0 0 1.99 1.23c.76.27 1.57.37 2.37.3a5.616 5.616 0 0 0 3.5-1.63l50.61-50.61.09-.09a5.61 5.61 0 0 0 1.23-1.99c.27-.76.37-1.57.3-2.37a5.616 5.616 0 0 0-1.63-3.5L213.53 75.6l-.09-.09c-.18-.17-.37-.33-.57-.48-.44-.33-.93-.58-1.43-.76-.73-.26-1.49-.36-2.26-.31-.97.06-1.93.38-2.77.94-.26.17-.5.37-.73.59-.04.03-.07.07-.11.11l-50.61 50.61-.09.09a5.61 5.61 0 0 0-1.23 1.99c-.27.76-.37 1.57-.3 2.37a5.616 5.616 0 0 0 1.63 3.5ZM116.55 152.34l18.17-18.17.09-.09a5.61 5.61 0 0 0 1.23-1.99c.27-.76.37-1.57.3-2.37a5.616 5.616 0 0 0-1.63-3.5s-18.17-18.17-18.17-18.17c-.3-.3-.62-.56-.95-.77a5.457 5.457 0 0 0-3.78-.83c-1.65.24-3.18 1.19-4.07 2.66-.5.82-.8 1.81-.8 2.92v36.35c0 .44.05.85.13 1.25.3 1.39 1.11 2.52 2.16 3.29 1.33.96 3.06 1.34 4.7.93.93-.23 1.82-.72 2.6-1.49ZM270.29 521.94l-54.74 54.74c-.94.94-1.51 2.17-1.62 3.47-.01.17-.02.33-.02.5v55.72c0 .44.05.85.13 1.25.3 1.39 1.11 2.52 2.16 3.29 1.33.96 3.06 1.34 4.7.93.93-.23 1.82-.72 2.6-1.49l82.6-82.6.09-.09c.18-.19.35-.39.5-.6.31-.44.56-.91.73-1.39.27-.76.37-1.57.3-2.37a5.616 5.616 0 0 0-1.63-3.5l-27.86-27.86c-.02-.02-.04-.03-.05-.05-.01-.01-.03-.02-.04-.04-.2-.19-.41-.37-.63-.52-.01-.01-.03-.02-.04-.03-.4-.28-.82-.5-1.27-.66a5.691 5.691 0 0 0-1.74-.34c-.27 0-.54 0-.81.03-.29.03-.58.09-.87.16-.45.12-.88.3-1.29.53l-.15.09c-.38.23-.73.51-1.05.83ZM270.29 501.68l-54.74-54.74c-.27-.27-.5-.56-.71-.87-.61-.91-.94-1.99-.94-3.11v-55.72c0-.44.05-.85.13-1.25.3-1.39 1.11-2.52 2.16-3.29 1.33-.96 3.06-1.34 4.7-.93.93.23 1.82.72 2.6 1.49l82.6 82.6.11.11c.14.14.26.29.38.45.36.47.64.99.84 1.54.23.65.34 1.33.32 2a5.576 5.576 0 0 1-1.57 3.77l-.08.08-27.86 27.86-.09.09c-.19.18-.39.35-.6.5-.44.31-.91.56-1.39.73-.76.27-1.57.37-2.37.3a5.616 5.616 0 0 1-3.5-1.63ZM302.57 489.66l-18.17 18.17-.09.09c-.18.18-.34.38-.48.58-.07.09-.13.19-.19.28-.23.36-.41.74-.55 1.13-.06.18-.12.36-.16.54-.11.44-.16.89-.16 1.35 0 .15 0 .3.02.45.02.26.06.52.12.77.14.63.39 1.24.74 1.8.22.34.47.66.77.95s18.17 18.17 18.17 18.17c.3.3.62.56.95.77 1.18.77 2.52 1.01 3.78.83 1.65-.24 3.18-1.19 4.07-2.66.5-.82.8-1.81.8-2.92v-36.35c0-.44-.05-.85-.13-1.25-.3-1.39-1.11-2.52-2.16-3.29-1.33-.96-3.06-1.34-4.7-.93-.93.23-1.82.72-2.6 1.49ZM148.82 521.94l54.73 54.73c.5.51.9 1.1 1.18 1.74.3.7.47 1.46.47 2.24v55.72c0 .44-.05.85-.13 1.25-.3 1.39-1.11 2.52-2.16 3.29-1.33.96-3.06 1.34-4.7.93-.93-.23-1.82-.72-2.6-1.49l-82.6-82.6-.09-.09a5.61 5.61 0 0 1-1.23-1.99c-.27-.76-.37-1.57-.3-2.37a5.616 5.616 0 0 1 1.63-3.5l27.86-27.86.1-.1a5.63 5.63 0 0 1 4.29-1.53c.84.06 1.67.31 2.42.75.4.24.78.53 1.13.88ZM148.82 501.68l54.74-54.74c.61-.61 1.06-1.35 1.34-2.15.2-.57.3-1.18.31-1.79v-55.75c0-.44-.05-.85-.13-1.25-.3-1.39-1.11-2.52-2.16-3.29-1.33-.96-3.06-1.34-4.7-.93-.93.23-1.82.72-2.6 1.49l-82.6 82.6-.04.04c-.22.23-.43.47-.6.73a5.617 5.617 0 0 0-.96 3.82 5.626 5.626 0 0 0 1.62 3.36s27.86 27.86 27.86 27.86l.11.11c.16.15.32.29.49.42.46.34.95.61 1.47.79.72.26 1.48.36 2.24.32.91-.05 1.81-.33 2.61-.82.37-.23.71-.5 1.03-.81ZM154.98 507.83l50.61-50.61.06-.06a5.527 5.527 0 0 1 1.99-1.24c.81-.29 1.67-.39 2.51-.31s1.63.35 2.36.8c.37.23.71.5 1.03.81s50.61 50.61 50.61 50.61l.09.09c.17.18.33.37.48.57.33.44.58.93.76 1.43.26.72.36 1.49.31 2.24a5.616 5.616 0 0 1-1.52 3.5l-.12.12-50.61 50.61-.09.09c-.19.18-.39.35-.6.5-.44.31-.91.56-1.39.73-.76.27-1.57.37-2.37.3a5.616 5.616 0 0 1-3.5-1.63l-50.61-50.61-.09-.09a5.61 5.61 0 0 1-1.23-1.99c-.27-.76-.37-1.57-.3-2.37a5.616 5.616 0 0 1 1.63-3.5ZM116.55 489.66l18.17 18.17.09.09c.18.19.35.39.5.6.31.43.56.9.73 1.39.27.75.37 1.56.31 2.35-.07.89-.36 1.77-.85 2.56-.22.34-.47.66-.77.96l-.01.01-18.17 18.17c-.3.3-.62.56-.95.77a5.457 5.457 0 0 1-3.78.83c-1.65-.24-3.18-1.19-4.07-2.66-.5-.82-.8-1.81-.8-2.92v-36.35c0-.44.05-.85.13-1.25.3-1.39 1.11-2.52 2.16-3.29 1.33-.96 3.06-1.34 4.7-.93.93.23 1.82.72 2.6 1.49Z"></path><rect width="82.83" viewBox="0 0 82.83 82.83" height="82.83" x="275.1" y="279.58" rx="5.62" ry="5.62" transform="rotate(-45 316.515 321.005)"></rect><path d="m377.25 310.87-54.74-54.74c-.6-.6-1.04-1.31-1.32-2.09-.21-.6-.32-1.23-.32-1.88v-55.72c0-.44.05-.85.13-1.25.3-1.39 1.11-2.52 2.16-3.29 1.33-.96 3.06-1.34 4.7-.93.93.23 1.82.72 2.6 1.49l82.6 82.6s.06.06.08.09c.19.2.36.4.52.62.31.43.55.89.72 1.38.27.77.38 1.59.3 2.39a5.635 5.635 0 0 1-1.62 3.47s-27.86 27.86-27.86 27.86l-.1.1c-.19.18-.38.34-.58.49-.43.31-.89.55-1.37.73-.76.28-1.58.38-2.38.32s-1.6-.3-2.32-.72c-.43-.24-.83-.55-1.19-.91ZM377.25 331.13l-54.74 54.74c-.69.69-1.18 1.53-1.44 2.45-.11.38-.17.78-.2 1.18 0 .11-.01.23-.01.34v55.72c0 .44.05.85.13 1.25.3 1.39 1.11 2.52 2.16 3.29 1.33.96 3.06 1.34 4.7.93.93-.23 1.82-.72 2.6-1.49l82.6-82.6.09-.09a5.61 5.61 0 0 0 1.23-1.99c.27-.76.37-1.57.3-2.37a5.616 5.616 0 0 0-1.63-3.5l-27.86-27.86-.11-.11a5.458 5.458 0 0 0-1.94-1.2c-.73-.26-1.49-.37-2.26-.33-.85.05-1.69.29-2.45.73-.42.24-.82.55-1.19.91ZM409.52 343.15l-18.17-18.17-.09-.09a5.61 5.61 0 0 1-1.23-1.99c-.27-.76-.37-1.57-.3-2.37a5.616 5.616 0 0 1 1.63-3.5s18.17-18.17 18.17-18.17c.3-.3.62-.56.95-.77a5.457 5.457 0 0 1 3.78-.83c1.65.24 3.18 1.19 4.07 2.66.5.82.8 1.81.8 2.92v36.35c0 .44-.05.85-.13 1.25-.3 1.39-1.11 2.52-2.16 3.29-1.33.96-3.06 1.34-4.7.93-.93-.23-1.82-.72-2.6-1.49ZM591.16 310.87l-54.74-54.74c-.6-.6-1.04-1.31-1.32-2.09-.21-.6-.32-1.23-.32-1.88v-55.72c0-.52.07-1.02.19-1.49.27-1.02.81-1.88 1.51-2.56 1.53-1.46 3.85-2.02 5.91-1.23.66.25 1.3.65 1.88 1.2.04.03.07.07.11.1l82.6 82.6.09.09c.17.18.33.37.48.57a5.56 5.56 0 0 1 1.07 3.68c-.06.98-.38 1.94-.95 2.78-.17.25-.36.49-.57.72-.04.04-.08.08-.11.12l-27.86 27.86s-.07.07-.11.1c-.16.15-.33.3-.5.43a5.59 5.59 0 0 1-3.7 1.1c-.95-.06-1.89-.35-2.72-.89-.33-.21-.63-.46-.92-.75ZM591.16 331.13l-54.74 54.74c-.6.6-1.04 1.31-1.32 2.09-.21.6-.32 1.23-.32 1.88v55.71c0 .52.06 1.01.18 1.47.28 1.07.85 1.97 1.6 2.66 1.52 1.39 3.78 1.92 5.79 1.16.67-.25 1.32-.65 1.9-1.2.04-.03.07-.07.11-.11l82.6-82.6a5.628 5.628 0 0 0 0-7.95l-.03-.03-27.83-27.83-.09-.09a5.61 5.61 0 0 0-1.99-1.23c-.76-.27-1.57-.37-2.37-.3a5.616 5.616 0 0 0-3.5 1.63ZM623.43 343.15l-18.17-18.17-.09-.09a5.61 5.61 0 0 1-1.23-1.99c-.27-.76-.37-1.57-.3-2.37a5.616 5.616 0 0 1 1.63-3.5s18.17-18.17 18.17-18.17a5.476 5.476 0 0 1 4.62-1.62c1.64.2 3.17 1.11 4.08 2.53.55.85.89 1.89.89 3.06v36.35c0 .44-.05.85-.13 1.25-.3 1.39-1.11 2.52-2.16 3.29-1.33.96-3.06 1.34-4.7.93-.93-.23-1.82-.72-2.6-1.49ZM469.69 310.87l54.74-54.74a5.625 5.625 0 0 0 1.65-3.97v-55.72c0-.44-.05-.85-.13-1.25-.3-1.39-1.11-2.52-2.16-3.29-1.33-.96-3.06-1.34-4.7-.93-.93.23-1.82.72-2.6 1.49s-82.6 82.6-82.6 82.6l-.1.1a5.384 5.384 0 0 0-1.22 1.98c-.24.67-.34 1.38-.32 2.08.04 1.05.36 2.09.98 2.99.16.23.34.45.53.66.04.04.08.09.13.13l27.86 27.86.09.09a5.708 5.708 0 0 0 1.99 1.23c.75.27 1.55.37 2.34.31.91-.07 1.81-.37 2.6-.88.32-.2.61-.44.89-.72l.03-.03ZM469.69 331.13l54.74 54.74a5.622 5.622 0 0 1 1.65 3.98V445.58c0 .44-.05.85-.13 1.25-.3 1.39-1.11 2.52-2.16 3.29-1.33.96-3.06 1.34-4.7.93-.93-.23-1.82-.72-2.6-1.49l-82.6-82.6-.09-.09a5.61 5.61 0 0 1-1.23-1.99c-.27-.76-.37-1.57-.3-2.37a5.616 5.616 0 0 1 1.63-3.5l27.86-27.86.11-.11a5.56 5.56 0 0 1 1.97-1.21c.7-.25 1.43-.35 2.16-.32.96.05 1.92.34 2.76.88.33.21.65.47.94.76ZM475.84 324.97l50.61 50.61.09.09a5.61 5.61 0 0 0 1.99 1.23c.76.27 1.57.37 2.37.3a5.616 5.616 0 0 0 3.5-1.63l50.61-50.61.09-.09a5.61 5.61 0 0 0 1.23-1.99c.27-.76.37-1.57.3-2.37a5.616 5.616 0 0 0-1.63-3.5s-50.61-50.61-50.61-50.61l-.09-.09a5.61 5.61 0 0 0-1.99-1.23c-.76-.27-1.57-.37-2.37-.3a5.616 5.616 0 0 0-3.5 1.63l-50.61 50.61-.09.09a5.61 5.61 0 0 0-1.23 1.99c-.27.76-.37 1.57-.3 2.37a5.616 5.616 0 0 0 1.63 3.5ZM437.41 343.15l18.17-18.17.09-.09a5.61 5.61 0 0 0 1.23-1.99c.27-.76.37-1.57.3-2.37a5.616 5.616 0 0 0-1.63-3.5l-18.17-18.17a5.31 5.31 0 0 0-1.18-.92c-.96-.56-2.01-.79-3.03-.74-2 .1-3.91 1.27-4.82 3.13-.33.68-.54 1.46-.56 2.31v36.54c0 .35.03.68.09 1.01a5.466 5.466 0 0 0 2.3 3.58c1.04.72 2.31 1.09 3.58 1.02 1.28-.07 2.56-.59 3.62-1.65ZM362.73 120.06l54.74-54.74.02-.02c.59-.6 1.04-1.32 1.31-2.1.2-.58.31-1.19.32-1.81V5.63c0-.46-.05-.89-.15-1.31a5.419 5.419 0 0 0-2.06-3.16c-1.32-1-3.07-1.4-4.72-1.01-.95.23-1.87.72-2.67 1.51s-82.6 82.6-82.6 82.6l-.09.09a5.61 5.61 0 0 0-1.23 1.99c-.27.76-.37 1.57-.3 2.37a5.616 5.616 0 0 0 1.63 3.5l27.86 27.86.11.11a5.585 5.585 0 0 0 1.95 1.2 5.632 5.632 0 0 0 4.76-.43c.4-.24.78-.53 1.13-.87ZM362.73 140.32l54.74 54.74c.6.6 1.04 1.31 1.32 2.09.21.6.32 1.23.32 1.88v55.72c0 .44-.05.85-.13 1.25-.3 1.39-1.11 2.52-2.16 3.29-1.33.96-3.06 1.34-4.7.93-.93-.23-1.82-.72-2.6-1.49l-82.6-82.6c-.16-.16-.31-.32-.44-.5a5.48 5.48 0 0 1-.97-1.85 5.643 5.643 0 0 1-.2-2.31 5.396 5.396 0 0 1 .72-2.15c.04-.06.08-.13.12-.19.22-.34.47-.66.77-.96l27.86-27.86.1-.1a5.57 5.57 0 0 1 1.93-1.2c.78-.29 1.6-.39 2.42-.33.72.06 1.43.26 2.08.59.51.26.99.61 1.42 1.03ZM330.46 152.34l18.17-18.17.09-.09c.18-.19.35-.39.5-.6.31-.44.56-.91.73-1.39.27-.76.37-1.57.3-2.37a5.616 5.616 0 0 0-1.63-3.5l-18.17-18.17c-.3-.3-.62-.56-.95-.77a5.457 5.457 0 0 0-3.78-.83c-1.65.24-3.18 1.19-4.07 2.66-.5.82-.8 1.81-.8 2.92v36.35c0 .44.05.85.13 1.25.3 1.39 1.11 2.52 2.16 3.29 1.33.96 3.06 1.34 4.7.93.93-.23 1.82-.72 2.6-1.49ZM484.2 120.06l-54.74-54.74c-.07-.07-.14-.14-.2-.21-.39-.44-.72-.93-.95-1.46-.32-.72-.49-1.5-.49-2.3V5.63a6 6 0 0 1 .14-1.29c.3-1.35 1.07-2.45 2.09-3.2 1.28-.95 2.94-1.36 4.54-1.03 1.01.21 1.99.71 2.83 1.55l82.6 82.6s.05.06.08.08c.19.2.37.41.52.63.3.42.54.88.71 1.36.28.78.38 1.61.31 2.42s-.34 1.67-.8 2.41c-.23.37-.5.72-.82 1.04l-27.86 27.86s-.07.06-.1.1c-.19.18-.38.34-.59.49-.42.31-.88.55-1.35.72-.77.28-1.59.39-2.4.32-.76-.06-1.51-.28-2.19-.65a5.34 5.34 0 0 1-1.31-.98ZM484.2 140.32l-54.73 54.73c-.37.38-.67.79-.92 1.23-.47.83-.72 1.78-.72 2.76v55.72c0 .5.06.98.18 1.43a5.46 5.46 0 0 0 1.73 2.8c1.51 1.3 3.68 1.78 5.63 1.07.69-.25 1.35-.65 1.95-1.22.04-.03.07-.07.11-.11l82.6-82.6.09-.09c.18-.19.35-.39.5-.6.31-.44.56-.91.73-1.39.27-.76.37-1.57.31-2.36-.08-.89-.36-1.77-.86-2.55-.21-.34-.47-.65-.76-.95l-27.86-27.86-.11-.11a5.604 5.604 0 0 0-1.95-1.2c-.72-.26-1.48-.37-2.23-.33a5.612 5.612 0 0 0-3.65 1.64ZM478.05 134.17l-50.61 50.61-.09.09a5.61 5.61 0 0 1-1.99 1.23c-.76.27-1.57.37-2.37.3a5.616 5.616 0 0 1-3.5-1.63l-50.61-50.61-.09-.09a5.61 5.61 0 0 1-1.23-1.99c-.27-.76-.37-1.57-.3-2.37a5.616 5.616 0 0 1 1.63-3.5L419.5 75.6l.09-.09c.18-.17.37-.33.57-.48.44-.33.93-.58 1.43-.76.73-.26 1.49-.36 2.26-.31.97.06 1.93.38 2.77.94.26.17.5.37.73.59.04.03.07.07.11.11l50.61 50.61.09.09a5.61 5.61 0 0 1 1.23 1.99c.27.76.37 1.57.3 2.37a5.616 5.616 0 0 1-1.63 3.5ZM516.48 152.34l-18.17-18.17-.09-.09a5.61 5.61 0 0 1-1.23-1.99c-.27-.76-.37-1.57-.3-2.37a5.616 5.616 0 0 1 1.63-3.5s18.17-18.17 18.17-18.17c.3-.3.62-.56.95-.77a5.457 5.457 0 0 1 3.78-.83c1.65.24 3.18 1.19 4.07 2.66.5.82.8 1.81.8 2.92v36.35c0 .44-.05.85-.13 1.25-.3 1.39-1.11 2.52-2.16 3.29-1.33.96-3.06 1.34-4.7.93-.93-.23-1.82-.72-2.6-1.49ZM362.73 521.94l54.74 54.74c.94.94 1.51 2.17 1.62 3.47.01.17.02.33.02.5v55.72c0 .44-.05.85-.13 1.25-.3 1.39-1.11 2.52-2.16 3.29-1.33.96-3.06 1.34-4.7.93-.93-.23-1.82-.72-2.6-1.49l-82.6-82.6-.09-.09c-.18-.19-.35-.39-.5-.6a5.79 5.79 0 0 1-.73-1.39c-.27-.76-.37-1.57-.3-2.37a5.616 5.616 0 0 1 1.63-3.5l27.86-27.86c.02-.02.04-.03.05-.05.01-.01.03-.02.04-.04.2-.19.41-.37.63-.52.01-.01.03-.02.04-.03.4-.28.82-.5 1.27-.66a5.691 5.691 0 0 1 1.74-.34c.27 0 .54 0 .81.03.29.03.58.09.87.16.45.12.88.3 1.29.53l.15.09c.38.23.73.51 1.05.83ZM362.73 501.68l54.74-54.74c.27-.27.5-.56.71-.87.61-.91.94-1.99.94-3.11v-55.72c0-.44-.05-.85-.13-1.25-.3-1.39-1.11-2.52-2.16-3.29-1.33-.96-3.06-1.34-4.7-.93-.93.23-1.82.72-2.6 1.49l-82.6 82.6-.11.11c-.14.14-.26.29-.38.45-.36.47-.64.99-.84 1.54-.23.65-.34 1.33-.32 2a5.576 5.576 0 0 0 1.57 3.77l.08.08 27.86 27.86.09.09c.19.18.39.35.6.5.44.31.91.56 1.39.73.76.27 1.57.37 2.37.3a5.616 5.616 0 0 0 3.5-1.63ZM330.46 489.66l18.17 18.17.09.09c.18.18.34.38.48.58.07.09.13.19.19.28.23.36.41.74.55 1.13.06.18.12.36.16.54.11.44.16.89.16 1.35 0 .15 0 .3-.02.45-.02.26-.06.52-.12.77-.14.63-.39 1.24-.74 1.8-.22.34-.47.66-.77.95s-18.17 18.17-18.17 18.17c-.3.3-.62.56-.95.77a5.457 5.457 0 0 1-3.78.83c-1.65-.24-3.18-1.19-4.07-2.66-.5-.82-.8-1.81-.8-2.92v-36.35c0-.44.05-.85.13-1.25.3-1.39 1.11-2.52 2.16-3.29 1.33-.96 3.06-1.34 4.7-.93.93.23 1.82.72 2.6 1.49ZM484.2 521.94l-54.73 54.73c-.5.51-.9 1.1-1.18 1.74-.3.7-.47 1.46-.47 2.24v55.72c0 .44.05.85.13 1.25.3 1.39 1.11 2.52 2.16 3.29 1.33.96 3.06 1.34 4.7.93.93-.23 1.82-.72 2.6-1.49l82.6-82.6.09-.09a5.61 5.61 0 0 0 1.23-1.99c.27-.76.37-1.57.3-2.37a5.616 5.616 0 0 0-1.63-3.5l-27.86-27.86-.1-.1a5.63 5.63 0 0 0-4.29-1.53c-.84.06-1.67.31-2.42.75-.4.24-.78.53-1.13.88ZM484.2 501.68l-54.74-54.74a5.693 5.693 0 0 1-1.34-2.15c-.2-.57-.3-1.18-.31-1.79v-55.75c0-.44.05-.85.13-1.25.3-1.39 1.11-2.52 2.16-3.29 1.33-.96 3.06-1.34 4.7-.93.93.23 1.82.72 2.6 1.49l82.6 82.6.04.04c.22.23.43.47.6.73a5.617 5.617 0 0 1 .96 3.82 5.626 5.626 0 0 1-1.62 3.36s-27.86 27.86-27.86 27.86l-.11.11c-.16.15-.32.29-.49.42-.46.34-.95.61-1.47.79-.72.26-1.48.36-2.24.32-.91-.05-1.81-.33-2.61-.82-.37-.23-.71-.5-1.03-.81ZM478.05 507.83l-50.61-50.61-.06-.06a5.527 5.527 0 0 0-1.99-1.24c-.81-.29-1.67-.39-2.51-.31s-1.63.35-2.36.8c-.37.23-.71.5-1.03.81s-50.61 50.61-50.61 50.61l-.09.09c-.17.18-.33.37-.48.57-.33.44-.58.93-.76 1.43-.26.72-.36 1.49-.31 2.24a5.616 5.616 0 0 0 1.52 3.5l.12.12 50.61 50.61.09.09c.19.18.39.35.6.5.44.31.91.56 1.39.73.76.27 1.57.37 2.37.3a5.616 5.616 0 0 0 3.5-1.63l50.61-50.61.09-.09a5.61 5.61 0 0 0 1.23-1.99c.27-.76.37-1.57.3-2.37a5.616 5.616 0 0 0-1.63-3.5ZM516.48 489.66l-18.17 18.17-.09.09c-.18.19-.35.39-.5.6-.31.43-.56.9-.73 1.39-.27.75-.37 1.56-.31 2.35.07.89.36 1.77.85 2.56.22.34.47.66.77.96l.01.01 18.17 18.17c.3.3.62.56.95.77 1.18.77 2.52 1.01 3.78.83 1.65-.24 3.18-1.19 4.07-2.66.5-.82.8-1.81.8-2.92v-36.35c0-.44-.05-.85-.13-1.25-.3-1.39-1.11-2.52-2.16-3.29-1.33-.96-3.06-1.34-4.7-.93-.93.23-1.82.72-2.6 1.49Z"></path></svg>