<svg data-name="Layer 1" xmlns="http://www.w3.org/2000/svg" viewBox="0 0 619.51 619.51"><path d="M619.34 184.35C615.84 84.34 535.17 3.68 435.16.17V0h-61.95v184.35h-32.48V0h-61.95v184.35H246.3V0h-61.95v.17C84.34 3.68 3.68 84.34.17 184.35H0v61.95h619.51v-61.95h-.17Zm-557.22 0c3.42-65.85 56.37-118.81 122.22-122.22v122.22H62.12Zm373.04 0V62.12c65.85 3.42 118.81 56.37 122.22 122.22H435.16ZM0 278.78h619.51v61.95H0zM0 373.22v61.95h.17c3.5 100 84.17 180.67 184.18 184.18v.17h61.95V435.17h32.48v184.35h61.95V435.17h32.48v184.35h61.95v-.17c100.01-3.5 180.67-84.17 184.18-184.18h.17v-61.95H0Zm184.35 184.17c-65.85-3.42-118.81-56.37-122.22-122.22h122.22v122.22Zm373.04-122.22c-3.41 65.85-56.37 118.81-122.22 122.22V435.17h122.22Z"></path></svg>