<svg data-name="Layer 1" xmlns="http://www.w3.org/2000/svg" viewBox="0 0 581.86 622.6"><path d="M457.49 0c-68.41 0-124.37 55.97-124.37 124.37v106.92h-84.37V124.37C248.75 55.97 192.78 0 124.37 0 55.97 0 0 55.97 0 124.37v373.85c0 68.41 55.97 124.37 124.37 124.37 68.41 0 124.37-55.97 124.37-124.37V394.21h84.37v104.01c0 68.41 55.97 124.37 124.37 124.37s124.37-55.97 124.37-124.37V124.37C581.85 55.96 525.88 0 457.48 0Zm80.25 498.22c0 44.32-35.93 80.25-80.25 80.25s-80.25-35.93-80.25-80.25V311.35c0-44.32 35.93-80.25 80.25-80.25s80.25 35.93 80.25 80.25v186.87Zm-80.25-293.48c-44.39 0-80.37-35.98-80.37-80.37S413.1 44 457.49 44s80.37 35.98 80.37 80.37-35.98 80.37-80.37 80.37Z"></path></svg>