<svg xmlns="http://www.w3.org/2000/svg" width="501.9" viewBox="0 0 501.9 621.2" height="621.2" xml:space="preserve" style="enable-background:new 0 0 501.9 621.2"><path d="M501.8 71.2C499.6 31.3 466.4 0 426.4 0c-25.6 0-49.2 12.8-63.3 34.2-.6.9-107.5 172.4-112.1 179.7l-.1.2-.1-.2c-4.5-7.3-111.5-178.8-112-179.7C124.7 12.8 101 0 75.5 0 35.4 0 2.3 31.3 0 71.2v218.3h84.6V98.1l100.9 163.5c14.2 22.1 38.2 35.3 64.4 35.3h1.8c26.3 0 50.3-13.2 64.4-35.3L417.2 98.1v191.4h84.6v-.9c0-8.8.1-215.9 0-217.4zM0 549.9c2.3 40 35.4 71.2 75.5 71.2 25.6 0 49.2-12.8 63.3-34.2.6-.9 107.5-172.4 112-179.7l.1-.2.1.2c4.6 7.3 111.5 178.8 112.1 179.7 14.1 21.5 37.7 34.2 63.3 34.2 40.1 0 73.2-31.3 75.5-71.2.1-1.4 0-208.5 0-217.3v-.9h-84.6v191.4l-101-163.5c-14.2-22.1-38.2-35.3-64.4-35.3H250c-26.3 0-50.3 13.2-64.4 35.3L84.7 523.1V331.7H0V549.9z"></path></svg>