<svg xmlns="http://www.w3.org/2000/svg" width="617.6" viewBox="0 0 617.6 496.6" height="496.6" xml:space="preserve" style="enable-background:new 0 0 617.6 496.6"><path class="st0" d="m190.4 138.4 73.5-54.2L235.6 0l71.8 52 72.3-50.3-26.6 83.6 73.5 53.7h-91.5l-24.9 78.5-31.1-79.1h-88.7zM383.1 272.3l71.7-48.5-28.2-84.8 71.7 52 72.9-50.3-26.5 80.8 72.9 50.8H530l-28.8 84.2-30.5-84.2h-87.6zM0 273.5l71.8-49.2-28.3-83.6 71.8 51.4 74-52-27.7 82.5 72.9 50.9h-87.6l-28.8 84.2-30-84.2H0zM355.4 359.4l26.6-83.7 27.1 83.7 90.4-.6-69.5 51.4 23.1 86.4-64.9-52.5-79.1 52.5 31-85.8-27.6-19.2-30.6 18.6 23.8 86.4-65-52.5-79.7 52.5 31.1-85.8-71.7-50.3 86.4.5 27.7-85.3 26.5 83.7h94.4z"></path></svg>