<svg xmlns="http://www.w3.org/2000/svg" width="589.8" viewBox="0 0 589.8 589.8" height="589.8"><path d="M71 589.8h447.9l-224-294.9zM563.7 354l10.5 13.8V0h-10.5zM579.4 0v374.6l10.4 13.7V0zM532.4 312.7l10.5 13.8V0h-10.5zM548 333.3l10.5 13.8V0H548zM511.6 0h-10.5v271.5l10.5 13.8zM516.7 292.1l10.5 13.8V0h-10.5zM480.2 0h-10.5v230.2l10.5 13.8zM495.9 0h-10.5v250.9l10.5 13.8zM448.9 0h-10.5v189l10.5 13.8zM464.6 0h-10.5v209.6l10.5 13.8zM417.6 0h-10.5v147.8l10.5 13.8zM433.3 0h-10.5v168.4l10.5 13.8zM386.3 0h-10.5v106.5l10.5 13.8zM401.9 0h-10.4v127.1l10.4 13.8zM355 0h-10.5v65.3L355 79.1zM370.6 0h-10.5v85.9l10.5 13.8zM323.7 0h-10.5v24l10.5 13.8zM339.3 0h-10.5v44.6l10.5 13.9zM292.3 0h-10.5v17.2l10.5-13.8zM308 0h-10.5v3.4L308 17.2zM261 0h-10.5v58.5L261 44.6zM276.7 0h-10.5v37.8L276.7 24zM229.7 0h-10.5v99.7l10.5-13.8zM245.4 0h-10.5v79.1l10.5-13.8zM198.4 0h-10.5v140.9l10.5-13.8zM214 0h-10.4v120.3l10.4-13.8zM167.1 0h-10.5v182.2l10.5-13.8zM182.7 0h-10.5v161.6l10.5-13.8zM135.8 0h-10.5v223.4l10.5-13.8zM120.1 0h-10.5v244l10.5-13.8zM151.4 0h-10.5v202.8l10.5-13.8zM104.4 0H93.9v264.7l10.5-13.8zM73.1 0H62.6v305.9l10.5-13.8zM88.8 0H78.3v285.3l10.5-13.8zM31.3 347.2l10.5-13.9V0H31.3zM15.7 367.8L26.1 354V0H15.7zM47 326.5l10.5-13.8V0H47zM0 388.3l10.5-13.7V0H0z"></path></svg>