<svg xmlns="http://www.w3.org/2000/svg" width="642" viewBox="0 0 642 585.02" height="585.02" data-name="Layer 1"><path d="M189.39 490.33c0 52.3-42.4 94.69-94.69 94.69S0 542.66 0 490.31c0-37.24 30.17-67.41 67.41-67.41s67.41 30.17 67.41 67.41c0 9.1-1.73 14.41-1.73 15.54 0 4.45 6.18 5.65 7.77 1.41 3.34-8.73 5.2-18.23 5.2-28.18 0-43.4-35.18-78.65-78.65-78.65h-4.82V168.92h126.8v321.4Z"></path><circle cx="125.99" cy="77.04" r="77.04"></circle><path d="M628.36 490.33c0 52.3-42.4 94.69-94.69 94.69s-94.7-42.36-94.7-94.71c0-37.24 30.17-67.41 67.41-67.41s67.41 30.17 67.41 67.41c0 9.1-1.73 14.41-1.73 15.54 0 4.45 6.18 5.65 7.77 1.41 3.34-8.73 5.2-18.23 5.2-28.18 0-43.4-35.18-78.65-78.65-78.65h-4.81V168.92h126.8v321.4Z"></path><circle cx="564.96" cy="77.04" r="77.04"></circle><path d="M408.87 490.33c0 52.3-42.4 94.69-94.69 94.69s-94.69-42.36-94.69-94.71c0-37.24 30.17-67.41 67.41-67.41s67.41 30.17 67.41 67.41c0 9.1-1.73 14.41-1.73 15.54 0 4.45 6.18 5.65 7.77 1.41 3.34-8.73 5.2-18.23 5.2-28.18 0-43.4-35.18-78.65-78.65-78.65h-4.81V168.92h126.79v321.4Z"></path><circle cx="345.48" cy="77.04" r="77.04"></circle></svg>