<svg data-name="Layer 1" xmlns="http://www.w3.org/2000/svg" viewBox="0 0 621.45 621.45"><path d="M573.81 47.64c-59.57-59.57-159.73-61.69-263.09-15.23C207.37-14.05 107.2-11.92 47.64 47.64c-59.56 59.57-61.69 159.73-15.23 263.09-46.46 103.36-44.34 203.52 15.23 263.08 59.56 59.56 159.72 61.69 263.08 15.23 103.36 46.46 203.52 44.34 263.09-15.23 59.56-59.56 61.69-159.72 15.23-263.08 46.46-103.36 44.34-203.52-15.23-263.09Zm8.54 277.28c40.32 95.33 37.25 186.1-17.05 240.39s-145.07 57.37-240.39 17.04c-4.72-2-9.45-4.1-14.19-6.31-4.74 2.21-9.47 4.31-14.19 6.31-95.33 40.32-186.1 37.25-240.39-17.04C1.85 511.01-1.23 420.24 39.1 324.92c2-4.72 4.1-9.45 6.31-14.19-2.21-4.74-4.31-9.47-6.31-14.19-40.33-95.33-37.25-186.1 17.04-240.4C110.44 1.85 201.21-1.22 296.53 39.1c4.72 2 9.45 4.1 14.19 6.31 4.74-2.21 9.47-4.31 14.19-6.31C420.24-1.22 511.01 1.85 565.3 56.14c54.29 54.29 57.37 145.07 17.04 240.39-2 4.72-4.1 9.45-6.31 14.19 2.21 4.74 4.31 9.47 6.31 14.19Z"></path><ellipse cx="310.72" cy="310.72" rx="335.98" ry="194.63" transform="rotate(-45 310.71721905 310.7267138)"></ellipse><path d="M156.09 156.09c40.16-40.16 83.24-72.49 126.36-96.3-84.37-34.33-163.52-32.41-209.3 13.36-45.78 45.78-47.7 124.92-13.36 209.3 23.81-43.12 56.14-86.21 96.3-126.37ZM465.36 465.36c-40.16 40.16-83.25 72.49-126.36 96.3 84.37 34.33 163.52 32.41 209.3-13.37 45.78-45.78 47.7-124.92 13.36-209.3-23.8 43.12-56.14 86.2-96.3 126.36Z"></path></svg>