<svg xmlns="http://www.w3.org/2000/svg" width="624.7" viewBox="0 0 624.7 625.2" height="625.2" xml:space="preserve" style="enable-background:new 0 0 624.7 625.2"><path d="M298.9 208.2H18.7c-2.5 6.9-4.7 13.7-6.7 20.9h238.3c14.3-10.5 31-17.2 48.5-19.6l.1-1.3zM220.5 264H4.1c1.2-7.1 2.6-14.3 4.2-21.1h227.1c-5.8 6.4-10.8 13.5-14.9 21.1zm-11.2 34.6H.4c.4-7.1 1.1-14.1 1.7-20.9h212.4c-2.2 6.8-3.9 13.8-5 20.9h-.2zm1 34.9H.7c-.4-7.1-.7-14.1-.7-21.2h208.3c.2 7 .9 14 2.1 21l-.1.2zm4.1 13.9H2.1c.7 6.9 1.9 13.8 3.1 20.9H225c-4-6.6-7.4-13.6-10.1-20.9h-.5zm46.8 55.6H13.7c-2.1-6.9-4.1-14-5.6-20.9h227.1c7.6 8.1 16.4 15.2 26 20.9zm-243 13.8c57.4 162.7 235.8 248 398.5 190.6 89.1-31.4 159.1-101.5 190.6-190.6H18.2zM363.9 403h247.6c2.1-6.9 4.1-14 5.6-20.9H389.9c-7.6 8.1-16.4 15.2-26 20.9zm46.4-55.6h212.4c-.7 6.9-1.9 13.8-3.1 20.9H400.2c4-6.7 7.4-13.7 10.1-20.9zm4-13.9h209.6c.4-7.1.7-14.1.7-21H416.4c-.2 7-.9 14.1-2.1 21zm1-34.9h208.9c-.4-7.1-1.1-14.1-1.7-20.9H410.1c2.2 6.8 3.9 13.8 5 20.9h.2zM404.2 264h216.4c-1.2-7.1-2.6-14.3-4.2-21.1H389.2c5.8 6.4 10.9 13.5 15 21.1zm-77.8-55.8h280c2.5 6.9 4.7 13.7 6.7 20.9H374.8c-14.3-10.5-31-17.2-48.5-19.6v-1.3h.1zm274.8-13.8H24c3.1-7.2 6.2-14.1 9.7-20.9h557.9c3.4 6.6 6.2 13.9 9.4 20.9h.2zm-16.6-34.7H41.2c4-7.1 8.2-14.2 12.8-21.1h517.6c4.6 6.9 8.8 14 12.8 21.1h.2zm-22.9-34.8h-498c5.4-7.2 11.1-14.2 17.1-20.9h463.9c6.2 6.6 11.7 13.8 17 20.9zm-30.1-34.8H93.7c7.5-7.3 15.3-14.4 23.2-20.9h391.4c8.1 6.3 15.9 13.8 23.3 20.9zm-41.8-34.8H135.5c11.1-7.6 22.7-14.6 34.7-20.9h285.1c11.9 6.3 23.4 13.2 34.5 20.9zm-65.6-34.7a311.7 311.7 0 0 0-223 0h223z" class="st0"></path><path d="M210.3 333.5H.7c-.4-7.1-.7-14.1-.7-21.2h208.3c.2 7 .9 14 2.1 21v.2zM414.3 333.5h209.6c.4-7.1.7-14.1.7-21H416.4c-.2 7-.9 14.1-2.1 21z" class="st0"></path></svg>