<svg xmlns="http://www.w3.org/2000/svg" width="558.4" viewBox="0 0 558.4 610.2" height="610.2"><path d="M472 420.5c-40.6-38.8-91-64-145.3-73.3V263c54.3-9.3 104.7-34.5 145.3-73.3 52.1-49.7 82.7-116.5 86.3-188l.1-1.8h-95.1l-.1 1.5c-3.5 46.2-24.2 89.2-58.3 121-22.4 20.9-49.3 35.7-78.3 43.4V0h-94.9v165.9c-29-7.7-55.8-22.5-78.3-43.4-34.1-31.8-54.8-74.8-58.3-121V0H0l.1 1.8c3.6 71.5 34.2 138.3 86.3 188 40.6 38.8 91 64 145.3 73.3v84.2c-54.3 9.3-104.7 34.5-145.3 73.3C34.3 470.2 3.7 537 .1 608.5l-.1 1.7h95.1l.1-1.5c3.5-46.2 24.2-89.2 58.3-121 22.4-20.9 49.3-35.7 78.3-43.4v165.9h94.9V444.3c29 7.7 55.8 22.5 78.3 43.4 34.1 31.8 54.8 74.8 58.3 121l.1 1.5h95.1l-.1-1.8c-3.7-71.4-34.3-138.2-86.4-187.9z"></path></svg>