<svg data-name="Layer 1" xmlns="http://www.w3.org/2000/svg" viewBox="0 0 504.77 605.56"><path d="M483 379.22c-2.63 9.73-9.52 18.7-18.81 22.9-17.15 7.74-34.64-1.3-44.68-15.8-7.98-11.52-16.33-22.55-28.93-28.05 16.81-3.8 32.81-14.38 43.15-27.94 6.03-7.9 9.91-17.38 11.78-27.11.21-1.09 1.67-12.68 1.26-12.68h-21.7c-2.63 9.73-9.52 18.7-18.81 22.9-17.15 7.74-34.64-1.3-44.68-15.8-7.98-11.52-16.33-22.55-28.93-28.05 16.81-3.8 32.81-14.38 43.15-27.94.23-.3.4-.64.62-.94a77.15 77.15 0 0 0 13.42 13.67c15.13 11.99 35.12 19.12 54.49 16.1 18.3-2.85 36.11-14.15 47.31-28.83 6.03-7.9 9.91-17.38 11.78-27.11.21-1.09 1.67-12.68 1.26-12.68h-21.7c-2.63 9.73-9.52 18.7-18.81 22.9-17.15 7.74-34.64-1.3-44.68-15.8-7.98-11.52-16.33-22.55-28.93-28.05 16.81-3.8 32.81-14.38 43.15-27.94 6.03-7.9 9.91-17.38 11.78-27.11.21-1.09 1.67-12.68 1.26-12.68h-21.7c-2.63 9.73-9.52 18.7-18.81 22.9-17.15 7.74-34.64-1.3-44.68-15.8-7.98-11.52-16.33-22.55-28.93-28.05 16.81-3.8 32.81-14.38 43.15-27.94 6.03-7.9 9.91-17.38 11.78-27.11.21-1.09 1.67-12.68 1.26-12.68h-21.7c-2.63 9.73-9.52 18.71-18.81 22.9-17.15 7.74-34.64-1.3-44.68-15.8C293.99 17.67 283.9 4.34 266.29.8c-10.13-2.04-20.63.02-29.79 4.59-.76.38-4.81 2.75-4.81 2.75 4.34-.55 7.76 3.59 9.87 6.81 3.62 5.54 4.22 12.12 5.44 18.46.04.2.1.38.14.58-3.51 5.78-8.56 10.65-14.69 13.41-17.15 7.74-34.64-1.3-44.68-15.8-9.64-13.93-19.73-27.26-37.34-30.8-10.13-2.04-20.63.02-29.79 4.59-.76.38-4.81 2.75-4.81 2.75 4.34-.55 7.76 3.59 9.87 6.81 3.62 5.54 4.22 12.12 5.44 18.46 3.33 17.36 13.18 32.69 26.97 43.62 8.05 6.38 17.49 11.31 27.47 14.15-2.41.8-4.76 1.77-7.02 2.9-.76.38-4.81 2.75-4.81 2.75 4.34-.55 7.76 3.59 9.87 6.81 3.62 5.54 4.22 12.12 5.44 18.46.04.2.1.38.14.58-3.51 5.78-8.56 10.65-14.69 13.41-17.15 7.74-34.64-1.3-44.68-15.8-9.64-13.93-19.73-27.26-37.34-30.8-10.13-2.04-20.63.02-29.79 4.59-.76.38-4.81 2.75-4.81 2.75 4.34-.55 7.76 3.59 9.87 6.81 3.62 5.54 4.22 12.12 5.44 18.46 3.33 17.36 13.18 32.69 26.97 43.62 8.05 6.38 17.49 11.31 27.47 14.15-2.41.8-4.76 1.77-7.02 2.9-.76.38-4.81 2.75-4.81 2.75 4.34-.55 7.76 3.58 9.87 6.81 3.62 5.54 4.22 12.12 5.44 18.46.04.2.1.38.14.58-3.51 5.78-8.56 10.65-14.69 13.41-17.15 7.74-34.64-1.3-44.68-15.8-9.64-13.93-19.73-27.26-37.34-30.8-10.13-2.04-20.63.02-29.79 4.59-.76.38-4.81 2.75-4.81 2.75 4.34-.55 7.76 3.58 9.87 6.81 3.62 5.54 4.22 12.12 5.44 18.46 3.33 17.36 13.18 32.69 26.97 43.62 8.05 6.38 17.49 11.31 27.47 14.15-2.41.8-4.76 1.77-7.02 2.9-.76.38-4.81 2.75-4.81 2.75 4.34-.55 7.76 3.58 9.87 6.81 3.62 5.54 4.22 12.12 5.44 18.46 3.33 17.36 13.18 32.69 26.97 43.62 8.05 6.38 17.49 11.31 27.47 14.15-2.41.8-4.76 1.77-7.02 2.9-.76.38-4.81 2.75-4.81 2.75 4.34-.55 7.76 3.58 9.87 6.81 3.62 5.54 4.22 12.12 5.44 18.46.04.2.1.38.14.58-3.51 5.78-8.56 10.65-14.69 13.41-17.15 7.74-34.64-1.3-44.68-15.8-9.64-13.93-19.73-27.26-37.34-30.8-10.13-2.04-20.63.02-29.79 4.59-.76.38-4.81 2.75-4.81 2.75 4.34-.55 7.76 3.58 9.87 6.81 3.62 5.54 4.22 12.12 5.44 18.46 3.33 17.36 13.18 32.69 26.97 43.62 8.05 6.38 17.49 11.31 27.47 14.15-2.41.8-4.76 1.77-7.02 2.9-.76.38-4.81 2.75-4.81 2.75 4.34-.55 7.76 3.58 9.87 6.81 3.62 5.54 4.22 12.12 5.44 18.46 3.33 17.36 13.18 32.69 26.97 43.62 15.13 11.99 35.12 19.12 54.49 16.1 18.3-2.85 36.11-14.15 47.31-28.83.23-.3.4-.64.62-.94a77.15 77.15 0 0 0 13.42 13.67c4.39 3.48 9.22 6.48 14.3 9.01v76.12h44.03v-69.85c16.92-3.73 33.06-14.36 43.47-28.01.23-.3.4-.64.62-.94a77.15 77.15 0 0 0 13.42 13.67c15.13 11.99 35.12 19.12 54.49 16.1 18.3-2.85 36.11-14.15 47.31-28.83 6.03-7.9 9.91-17.38 11.78-27.11.21-1.09 1.67-12.68 1.26-12.68h-21.7c-2.63 9.73-9.52 18.7-18.81 22.9-17.15 7.74-34.64-1.3-44.68-15.8-7.98-11.52-16.33-22.55-28.93-28.05 16.81-3.8 32.81-14.38 43.15-27.94.23-.3.4-.64.62-.94a77.15 77.15 0 0 0 13.42 13.67c15.13 11.99 35.12 19.12 54.49 16.1 18.3-2.85 36.11-14.15 47.31-28.83 6.03-7.9 9.91-17.38 11.78-27.11.21-1.09 1.67-12.68 1.26-12.68h-21.7ZM140.48 11.27c-1.34 0-2.43-1.09-2.43-2.43s1.09-2.43 2.43-2.43 2.43 1.09 2.43 2.43-1.09 2.43-2.43 2.43ZM82.55 99.95c-1.34 0-2.43-1.09-2.43-2.43s1.09-2.43 2.43-2.43 2.43 1.09 2.43 2.43-1.09 2.43-2.43 2.43Zm-57.93 88.68c-1.34 0-2.43-1.09-2.43-2.43s1.09-2.43 2.43-2.43 2.43 1.09 2.43 2.43-1.09 2.43-2.43 2.43Zm0 177.37c-1.34 0-2.43-1.09-2.43-2.43s1.09-2.43 2.43-2.43 2.43 1.09 2.43 2.43-1.09 2.43-2.43 2.43Zm350-2.43c0 1.34-1.09 2.43-2.43 2.43s-2.43-1.09-2.43-2.43 1.09-2.43 2.43-2.43 2.43 1.09 2.43 2.43Zm-173.78 88.68c0 1.34-1.09 2.43-2.43 2.43s-2.43-1.09-2.43-2.43 1.09-2.43 2.43-2.43 2.43 1.09 2.43 2.43Zm-13.04-65.93c-7.98-11.52-16.33-22.55-28.93-28.05 16.81-3.8 32.81-14.38 43.15-27.94.23-.3.4-.64.62-.94a77.15 77.15 0 0 0 13.42 13.67c8.05 6.38 17.49 11.31 27.47 14.15-2.41.8-4.76 1.77-7.02 2.9-.76.38-4.81 2.75-4.81 2.75 4.34-.55 7.76 3.58 9.87 6.81 3.62 5.54 4.22 12.12 5.44 18.46.04.2.1.38.14.58-3.51 5.78-8.56 10.65-14.69 13.41-17.15 7.74-34.64-1.3-44.68-15.8Zm-49.75-22.75c0-1.34 1.09-2.43 2.43-2.43s2.43 1.09 2.43 2.43-1.09 2.43-2.43 2.43-2.43-1.09-2.43-2.43Zm57.93-88.68c0-1.34 1.09-2.43 2.43-2.43s2.43 1.09 2.43 2.43-1.09 2.43-2.43 2.43-2.43-1.09-2.43-2.43Zm62.79 88.68c0 1.34-1.09 2.43-2.43 2.43s-2.43-1.09-2.43-2.43 1.09-2.43 2.43-2.43 2.43 1.09 2.43 2.43Zm-13.04-65.93c-7.98-11.52-16.33-22.55-28.93-28.05 16.81-3.8 32.81-14.38 43.15-27.94.23-.3.4-.64.62-.94a77.15 77.15 0 0 0 13.42 13.67c8.05 6.38 17.49 11.31 27.47 14.15-2.41.8-4.76 1.77-7.02 2.9-.76.38-4.81 2.75-4.81 2.75 4.34-.55 7.76 3.58 9.87 6.81 3.62 5.54 4.22 12.12 5.44 18.46.04.2.1.38.14.58-3.51 5.78-8.56 10.65-14.69 13.41-17.15 7.74-34.64-1.3-44.68-15.8Zm8.18-111.44c0-1.34 1.09-2.43 2.43-2.43s2.43 1.09 2.43 2.43-1.09 2.43-2.43 2.43-2.43-1.09-2.43-2.43Zm62.79 88.68c0 1.34-1.09 2.43-2.43 2.43s-2.43-1.09-2.43-2.43 1.09-2.43 2.43-2.43 2.43 1.09 2.43 2.43Zm53.06-88.68c0-1.34 1.09-2.43 2.43-2.43s2.43 1.09 2.43 2.43-1.09 2.43-2.43 2.43-2.43-1.09-2.43-2.43Zm-10.36-6.36c-2.41.8-4.76 1.77-7.02 2.9-.76.38-4.81 2.75-4.81 2.75 4.34-.55 7.76 3.58 9.87 6.81 3.62 5.54 4.22 12.12 5.44 18.46.04.2.1.38.14.58-3.51 5.78-8.56 10.65-14.69 13.41-17.15 7.74-34.64-1.3-44.68-15.8-7.98-11.52-16.33-22.55-28.93-28.05 16.81-3.8 32.81-14.38 43.15-27.94.23-.3.4-.64.62-.94a77.15 77.15 0 0 0 13.42 13.67c8.05 6.38 17.49 11.31 27.47 14.15Zm-47.57-82.32c0-1.34 1.09-2.43 2.43-2.43s2.43 1.09 2.43 2.43-1.09 2.43-2.43 2.43-2.43-1.09-2.43-2.43ZM256.33 6.4c1.34 0 2.43 1.09 2.43 2.43s-1.09 2.43-2.43 2.43-2.43-1.09-2.43-2.43 1.09-2.43 2.43-2.43Zm3.61 57.88c.23-.3.4-.64.62-.94a77.15 77.15 0 0 0 13.42 13.67c8.05 6.38 17.49 11.31 27.47 14.15-2.41.8-4.76 1.77-7.02 2.9-.76.38-4.81 2.75-4.81 2.75 4.34-.55 7.76 3.59 9.87 6.81 3.62 5.54 4.22 12.12 5.44 18.46.04.2.1.38.14.58-3.51 5.78-8.56 10.65-14.69 13.41-17.15 7.74-34.64-1.3-44.68-15.8-7.98-11.52-16.33-22.55-28.93-28.05 16.81-3.8 32.81-14.38 43.15-27.94Zm-63.98 33.24c0-1.34 1.09-2.43 2.43-2.43s2.43 1.09 2.43 2.43-1.09 2.43-2.43 2.43-2.43-1.09-2.43-2.43Zm6.05 55.44c.23-.3.4-.64.62-.94a77.15 77.15 0 0 0 13.42 13.67c8.05 6.38 17.49 11.31 27.47 14.15-2.41.8-4.76 1.77-7.02 2.9-.76.38-4.81 2.75-4.81 2.75 4.34-.55 7.76 3.58 9.87 6.81 3.62 5.54 4.22 12.12 5.44 18.46.04.2.1.38.14.58-3.51 5.78-8.56 10.65-14.69 13.41-17.15 7.74-34.64-1.3-44.68-15.8-7.98-11.52-16.33-22.55-28.93-28.05 16.81-3.8 32.81-14.38 43.15-27.94Zm-63.98 33.24c0-1.34 1.09-2.43 2.43-2.43s2.43 1.09 2.43 2.43-1.09 2.43-2.43 2.43-2.43-1.09-2.43-2.43Zm-55.49 91.12c-1.34 0-2.43-1.09-2.43-2.43s1.09-2.43 2.43-2.43 2.43 1.09 2.43 2.43-1.09 2.43-2.43 2.43Zm18.39-7.73c16.81-3.8 32.81-14.38 43.15-27.94.23-.3.4-.64.62-.94a77.15 77.15 0 0 0 13.42 13.67c8.05 6.38 17.49 11.31 27.47 14.15-2.41.8-4.76 1.77-7.02 2.9-.76.38-4.81 2.75-4.81 2.75 4.34-.55 7.76 3.58 9.87 6.81 3.62 5.54 4.22 12.12 5.44 18.46.04.2.1.38.14.58-3.51 5.78-8.56 10.65-14.69 13.41-17.15 7.74-34.64-1.3-44.68-15.8-7.98-11.52-16.33-22.55-28.93-28.05ZM82.54 454.68c-1.34 0-2.43-1.09-2.43-2.43s1.09-2.43 2.43-2.43 2.43 1.09 2.43 2.43-1.09 2.43-2.43 2.43Zm92 36.12c-17.15 7.74-34.64-1.3-44.68-15.8-7.98-11.52-16.33-22.55-28.93-28.05 16.81-3.8 32.81-14.38 43.15-27.94.23-.3.4-.64.62-.94a77.15 77.15 0 0 0 13.42 13.67c8.05 6.38 17.49 11.31 27.47 14.15-2.41.8-4.76 1.77-7.02 2.9-.76.38-4.81 2.75-4.81 2.75 4.34-.55 7.76 3.58 9.87 6.81 3.62 5.54 4.22 12.12 5.44 18.46.04.2.1.38.14.58-3.51 5.78-8.56 10.65-14.69 13.41Zm115.86 0c-17.15 7.74-34.64-1.3-44.68-15.8-7.98-11.52-16.33-22.55-28.93-28.05 16.81-3.8 32.81-14.38 43.15-27.94.23-.3.4-.64.62-.94a77.15 77.15 0 0 0 13.42 13.67c8.05 6.38 17.49 11.31 27.47 14.15-2.41.8-4.76 1.77-7.02 2.9-.76.38-4.81 2.75-4.81 2.75 4.34-.55 7.76 3.58 9.87 6.81 3.62 5.54 4.22 12.12 5.44 18.46.04.2.1.38.14.58-3.51 5.78-8.56 10.65-14.69 13.41Zm26.29-38.55c0 1.34-1.09 2.43-2.43 2.43s-2.43-1.09-2.43-2.43 1.09-2.43 2.43-2.43 2.43 1.09 2.43 2.43Zm31.64-50.13c-17.15 7.74-34.64-1.3-44.68-15.8-7.98-11.52-16.33-22.55-28.93-28.05 16.81-3.8 32.81-14.38 43.15-27.94.23-.3.4-.64.62-.94a77.15 77.15 0 0 0 13.42 13.67c8.05 6.38 17.49 11.31 27.47 14.15-2.41.8-4.76 1.77-7.02 2.9-.76.38-4.81 2.75-4.81 2.75 4.34-.55 7.76 3.58 9.87 6.81 3.62 5.54 4.22 12.12 5.44 18.46.04.2.1.38.14.58-3.51 5.78-8.56 10.65-14.69 13.41Z"></path></svg>