<svg xmlns="http://www.w3.org/2000/svg" width="527.1" viewBox="0 0 527.1 618" height="618" xml:space="preserve" style="enable-background:new 0 0 527.1 618"><path class="st0" d="M.2 304.7v-157L254.6 1l-.1 156.5L.2 304.7zM272.7 0v157l254.4 146.8V147.2L272.7 0zM254.4 618V461L0 314.2v156.6L254.4 618zM272.7 618V461l254.4-146.8v156.6L272.7 618z"></path><path d="M264.3 181.4c70.7.1 127.9 57.4 127.8 128.1-.1 70.7-57.4 127.9-128.1 127.8-70.6-.1-127.8-57.3-127.8-128s57.3-128 128-128l.1.1z" class="st0"></path></svg>