<svg data-name="Layer 1" xmlns="http://www.w3.org/2000/svg" viewBox="0 0 535.61 592.76"><path d="M267.81 326.27c-65.17 0-118.18 53.01-118.18 118.18s53.01 118.18 118.18 118.18 118.18-53.01 118.18-118.18-53.01-118.18-118.18-118.18Zm0 222.98c-57.78 0-104.79-47.01-104.79-104.79s47.01-104.79 104.79-104.79S372.6 386.68 372.6 444.46s-47.01 104.79-104.79 104.79Z"></path><path d="M267.81 356.4c-48.56 0-88.05 39.5-88.05 88.05s39.5 88.05 88.05 88.05 88.05-39.5 88.05-88.05-39.5-88.05-88.05-88.05Zm0 162.72c-41.17 0-74.66-33.5-74.66-74.66s33.5-74.66 74.66-74.66 74.66 33.5 74.66 74.66-33.49 74.66-74.66 74.66Z"></path><path d="M267.81 386.53c-31.94 0-57.92 25.98-57.92 57.92s25.98 57.92 57.92 57.92 57.92-25.98 57.92-57.92-25.98-57.92-57.92-57.92Zm0 102.46c-24.56 0-44.53-19.98-44.53-44.53s19.98-44.53 44.53-44.53 44.53 19.98 44.53 44.53-19.98 44.53-44.53 44.53Z"></path><path d="M267.81 416.66c-15.33 0-27.8 12.47-27.8 27.8s12.47 27.8 27.8 27.8 27.79-12.47 27.79-27.8-12.47-27.8-27.79-27.8Zm0 42.2c-7.94 0-14.4-6.46-14.4-14.4s6.46-14.4 14.4-14.4 14.4 6.46 14.4 14.4-6.46 14.4-14.4 14.4Z"></path><path d="m329.02 0-61.21 149.48h-.01L206.58 0H0l119.49 288.04v156.41c0 81.78 66.54 148.31 148.31 148.31s148.31-66.54 148.31-148.31V288.04L535.61 0H329.03ZM267.8 579.37c-74.4 0-134.92-60.53-134.92-134.92s60.53-134.92 134.92-134.92 134.92 60.53 134.92 134.92S342.2 579.37 267.8 579.37Z"></path></svg>