<svg id="Layer_1" data-name="Layer 1" xmlns="http://www.w3.org/2000/svg" viewBox="0 0 612.09 615.52">   <path d="M447.9,164.18V24.39c0-13.47-10.92-24.39-24.39-24.39h-158.5c-6.47,0-12.67,2.57-17.24,7.14L24.02,230.9C8.53,246.39,0,266.98,0,288.88v248.01c0,43.42,35.2,78.62,78.62,78.62h241.15c21.9,0,42.49-8.53,57.98-24.02l227.19-227.19c4.57-4.57,7.14-10.78,7.14-17.24V188.57c0-13.47-10.92-24.39-24.39-24.39h-139.8Zm123.45,40.73v123.45h-57.01v-66.44h-66.44v-57.01h123.45Zm-74.47,123.45h-48.98v-48.98h48.98v48.98Zm-89.71,0h-57.01v-66.44h-66.44v-57.01h123.45v123.45Zm-74.47,0h-48.98v-48.98h48.98v48.98Zm0-164.18h-48.98v-48.98h48.98v48.98Zm-89.71,176.11l-45.37,45.37v-106.57l45.37-45.37v106.57Zm28.81,28.81h106.57l-45.37,45.37h-106.57l45.37-45.37Zm135.38-204.92h-57.01V97.74h-66.44V40.73h123.45v123.45Zm-58.21,398.51c-7.8,7.79-18.16,12.09-29.18,12.09H78.62c-20.92,0-37.89-16.96-37.89-37.89v-248.01c0-11.02,4.29-21.38,12.09-29.18L242.99,69.54v106.58l-86.11,86.11v171.31c0,11.97,9.7,21.68,21.68,21.68h171.31l86.11-86.11h106.58l-193.59,193.59Z"></path> </svg>