<svg xmlns="http://www.w3.org/2000/svg" width="615.2" viewBox="0 0 615.2 615.2" height="615.2" xml:space="preserve" style="enable-background:new 0 0 615.2 615.2"><path d="M307.6 0C137.7 0 0 137.7 0 307.6c0 169.9 137.7 307.6 307.6 307.6 11.3 0 22.5-.6 33.5-1.8 154.1-16.7 274.1-147.2 274.1-305.8C615.2 137.7 477.5 0 307.6 0zm33.5 555.3V430.7l90.6 72.2 44.8-51.7L341 343.4v-42.2l91.5 72.9 43.9-52.4-135.6-107.9v-42.2l93 74 42.5-53.5L308.9 58.9 141.4 192l42.5 53.5 93-74v42.2L141.3 321.6l43.9 52.4 91.5-72.9v42.2L141.2 451.1l44.8 51.7 90.6-72.2v125C152.8 540.3 57 434.8 57 306.9 57 168.5 169.2 56.3 307.6 56.3c138.4 0 250.6 112.2 250.6 250.6 0 127-94.5 232-217.1 248.4z"></path></svg>