<svg data-name="Layer 1" xmlns="http://www.w3.org/2000/svg" viewBox="0 0 435.87 616.02"><path d="M180.16 0h75.56v75.56h-75.56zM270.24 0h75.56v75.56h-75.56zM360.32 0h75.56v75.56h-75.56zM180.16 90.08h75.56v75.56h-75.56zM270.24 90.08h75.56v75.56h-75.56zM180.16 180.16h75.56v75.56h-75.56zM180.16 270.23h75.56v75.56h-75.56zM270.24 270.23h75.56v75.56h-75.56zM360.32 270.23h75.56v75.56h-75.56zM180.16 360.31h75.56v75.56h-75.56zM270.24 360.31h75.56v75.56h-75.56zM360.32 360.31h75.56v75.56h-75.56zM180.16 450.39h75.56v75.56h-75.56zM270.24 450.39h75.56v75.56h-75.56zM180.16 540.47h75.56v75.56h-75.56zM90.08 90.08h75.56v75.56H90.08zM0 180.16h75.56v75.56H0zM90.08 180.16h75.56v75.56H90.08zM0 270.23h75.56v75.56H0zM90.08 270.23h75.56v75.56H90.08zM90.08 450.39h75.56v75.56H90.08zM0 540.47h75.56v75.56H0zM90.08 540.47h75.56v75.56H90.08z"></path></svg>