<svg data-name="Layer 1" xmlns="http://www.w3.org/2000/svg" viewBox="0 0 611.87 613.1"><path d="M208.39 405.88c5.08 0 10.03.52 14.89 1.29 2.76-27.44 25.98-48.93 54.13-48.93 12.27 0 22.22-9.95 22.22-22.22s-9.95-22.22-22.22-22.22c-54.5 0-98.85 44.34-98.85 98.85v178.22c0 12.27 9.95 22.22 22.22 22.22S223 603.14 223 590.87V446.54c-4.67-1.28-9.55-2.02-14.61-2.02-10.68 0-19.33-8.65-19.33-19.33s8.65-19.33 19.33-19.33Z"></path><path d="M228.13 408.18v40.08c20.88 7.98 35.79 28.15 35.79 51.81v93.71c0 10.68 8.65 19.33 19.33 19.33s19.33-8.65 19.33-19.33v-93.71c0-45.15-31.99-82.78-74.45-91.89ZM204.95 321.63c0-16.43-13.32-29.75-29.75-29.75s-29.75 13.32-29.75 29.75 13.32 29.75 29.75 29.75 29.75-13.32 29.75-29.75Z"></path><circle cx="305.93" cy="409.28" r="28.19"></circle><path d="M73 358.25c30 0 54.41 24.4 54.41 54.41v178.22c0 12.27 9.95 22.22 22.22 22.22s22.22-9.95 22.22-22.22V412.66c0-39.67-23.54-73.86-57.34-89.59l-42.15 35.11c.22 0 .42.06.64.06ZM334.46 313.81c-12.27 0-22.22 9.95-22.22 22.22s9.95 22.22 22.22 22.22c28.15 0 51.37 21.49 54.13 48.93 4.86-.78 9.81-1.29 14.89-1.29 10.68 0 19.33 8.65 19.33 19.33s-8.65 19.33-19.33 19.33c-5.06 0-9.95.74-14.61 2.02V590.9c0 12.27 9.95 22.22 22.22 22.22s22.22-9.95 22.22-22.22V412.68c0-54.5-44.34-98.85-98.85-98.85Z"></path><path d="M309.29 500.07v93.71c0 10.68 8.65 19.33 19.33 19.33s19.33-8.65 19.33-19.33v-93.71c0-23.65 14.9-43.83 35.79-51.81v-40.08c-42.46 9.11-74.45 46.74-74.45 91.89ZM466.41 321.63c0-16.43-13.32-29.75-29.75-29.75s-29.75 13.32-29.75 29.75 13.32 29.75 29.75 29.75 29.75-13.32 29.75-29.75ZM440.02 412.66v178.22c0 12.27 9.95 22.22 22.22 22.22s22.22-9.95 22.22-22.22V412.66c0-30 24.41-54.41 54.41-54.41.22 0 .43-.06.64-.06l-42.15-35.11c-33.8 15.73-57.34 49.92-57.34 89.59Z"></path><path d="M305.93 0 0 254.87v163.6l72.36-60.28c-11.96-.35-21.58-10.1-21.58-22.15s9.95-22.22 22.22-22.22c14.84 0 28.86 3.38 41.51 9.26l191.43-159.47 191.43 159.47c12.64-5.88 26.67-9.26 41.51-9.26 12.27 0 22.22 9.95 22.22 22.22s-9.61 21.81-21.58 22.15l72.36 60.28v-163.6L305.93 0Z"></path></svg>