<svg xmlns="http://www.w3.org/2000/svg" width="612.8" viewBox="0 0 612.8 472.7" height="472.7" style="enable-background:new 0 0 612.8 472.7" xml:space="preserve"><circle transform="rotate(-67.5 139.542 236.184)" cx="139.5" cy="236.2" r="60.2"></circle><path d="M531.1 96.9H415.5l-39.2 39.2-.5-91.3c0-24.7-20.1-44.9-44.9-44.9L178.4 0 0 178.4V294l81.7 81.7h115.6l39.2-39.2.5 91.3c0 24.7 20.1 44.9 44.9 44.9h152.5l178.4-178.4V178.7l-81.7-81.8zm-197.8 31.2.3 50.7-54.5 54.5v-51l54.2-54.2zm-23.2-37.6L250.7 150l-24.9-24.9 59.4-59.4 24.9 24.8zM196.2 42.9h51l-53.7 53.7h-51l53.7-53.7zm-16.6 289.9h-80L43 276.2v-80l56.6-56.6h80l56.6 56.6v80l-56.6 56.6zm100 11.8-.3-50.7 54.5-54.5v51l-54.2 54.2zm23.2 37.5 59.4-59.4 24.9 24.9-59.5 59.4-24.8-24.9zm113.8 47.6h-51l53.7-53.7h51l-53.7 53.7zm96.7-96.6h-80l-56.6-56.6v-80l56.6-56.6h80l56.6 56.6v80l-56.6 56.6z"></path><circle transform="rotate(-45.001 473.282 236.49)" cx="473.3" cy="236.5" r="60.2"></circle></svg>