<svg data-name="Layer 1" xmlns="http://www.w3.org/2000/svg" viewBox="0 0 623.02 623.01"><path d="M623.02 0H156.81l-8.69 8.69H8.7v139.42l-8.7 8.7v167.01h8.7v290.49h140.9v8.7h167.01l8.7-8.7h289.01v-438.6l8.69-8.69V0ZM174.23 580.95V464.72h116.23L174.23 580.95Zm124.96-90.12v107.54H191.65l107.54-107.54Zm165.54-349.96V24.64h116.23L464.73 140.87Zm133.65-98.81V149.6H490.84L598.38 42.06ZM457.49 148.11l-1.48 1.48H315.14V24.64H457.5v123.47Zm-8.7 175.71v124.96H323.83V323.82h124.96ZM297.72 457.47H174.24V316.6l1.48-1.48H299.2v140.87l-1.48 1.48ZM165.54 175.71l1.48-1.48h114.75L165.53 290.47V175.72Zm-7.25 122-1.48 1.48H42.06l116.23-116.23v114.75Zm140.9-106.06v116.23H182.96l116.23-116.23Zm149.59 107.54H341.24l107.54-107.54v107.54Zm-124.96-17.42V174.23h107.54L323.82 281.77ZM307.88 149.6H174.23V24.64h133.65V149.6ZM24.64 174.23h107.54L24.64 281.77V174.23Zm17.42-24.64L149.6 42.06V149.6H42.06Zm389.3 323.83L323.82 580.96V473.42h107.54Zm43.54-158.29h132.18v142.35H473.42V316.61l1.48-1.48Zm106.06-140.9L473.42 281.77V174.23h107.54ZM15.94 15.94h124.93L15.94 140.87V15.94ZM149.6 323.82v133.65H15.94V323.82H149.6ZM15.94 607.07V464.72H149.6v142.35H15.94Zm441.54-124.93v124.93H332.55l124.93-124.93Zm7.25 124.93V474.89l8.69-8.69v-1.48h133.66v142.35H464.73Zm142.35-299.19H482.15l124.93-124.93v124.93Z"></path></svg>