<svg xmlns="http://www.w3.org/2000/svg" width="569.29" viewBox="0 0 569.29 642" height="642" data-name="Layer_1"><path d="M288.24 642V90.91c0-11.55 4.81-21.93 12.42-29.42 1-.99 2.68-1 3.69-.02 7.7 7.4 12.39 17.9 12.39 29.45v551.09h7.22v-168.9c0-13.07 10.6-23.67 23.67-23.67h175.79c2.07-28.6 20.44-52.68 45.86-63.01-25.42-10.33-43.79-34.41-45.86-63.01h-99.56l86.97-86.03c-18.61-21.67-22.6-51.59-11.96-76.79l.02.02c-25.28 10.67-55.29 6.63-76.98-12.13l-74.27 74.27V60.38c-29.19-9.29-52.51-31.74-63-60.38-10.49 28.64-33.81 51.09-63 60.38v162.38l-74.27-74.27c-21.69 18.76-51.7 22.8-76.98 12.13l.02-.02c10.64 25.2 6.65 55.12-11.96 76.79l86.97 86.03H45.86C43.79 352.02 25.42 376.1 0 386.43c25.42 10.33 43.79 34.41 45.86 63.01h175.79c13.07 0 23.67 10.6 23.67 23.67v168.9h7.22V90.91c0-11.55 4.69-22.05 12.39-29.45 1.01-.97 2.69-.96 3.69.02 7.61 7.49 12.42 17.87 12.42 29.42v551.09h7.19Z"></path></svg>