<svg data-name="Layer 1" xmlns="http://www.w3.org/2000/svg" viewBox="0 0 605.18 604.6"><path d="M174.13 232.63h18.54c14.34 0 26-11.66 26-26V86.11c0-42.03 30.37-78.37 70.63-84.53.41-.07.69-.43.65-.84-.04-.41-.39-.67-.8-.7-77.97 3.41-150.73 36.36-204.9 92.79C29.92 149.42 0 223.82 0 302.3s29.92 152.87 84.25 209.47c54.16 56.42 126.93 89.37 204.9 92.78h.04c.4 0 .73-.3.77-.7.04-.4-.24-.77-.65-.84-40.27-6.15-70.63-42.49-70.63-84.53V397.95c0-14.33-11.66-25.99-26-25.99h-20.74c-19.55 0-38.35-8.37-51.58-22.97-13.38-14.76-19.69-33.81-17.75-53.64 3.45-35.17 34.87-62.73 71.53-62.73ZM520.36 92.25C465.8 35.74 392.61 2.98 314.26 0h-.03a.774.774 0 0 0-.12 1.54c40.63 5.98 71.27 41.39 71.27 82.35v63.5c0 56.49 28.88 99.25 85.82 127.09 40 19.55 83.11 25.91 101.28 27.82-18.17 1.92-61.29 8.28-101.28 27.82-56.95 27.85-85.82 70.61-85.82 127.1v63.49c0 40.95-30.64 76.36-71.27 82.35a.774.774 0 0 0 .12 1.54h.03c78.35-2.98 151.55-35.74 206.1-92.25 54.7-56.66 84.82-131.26 84.82-210.05s-30.12-153.38-84.82-210.05Z"></path></svg>