<svg id="Layer_1" data-name="Layer 1" xmlns="http://www.w3.org/2000/svg" viewBox="0 0 608.45 473.92">   <path d="M479.64,136.73h-75.18v-59.35L304.23,0l-100.24,77.38v59.35h-75.18L0,236.96l128.81,100.24h75.18v59.35l100.24,77.38,100.24-77.38v-59.35h75.18l128.81-100.24-128.81-100.24Zm-175.41,221.94c-83.99,0-156.27-49.93-188.92-121.7,32.65-71.77,104.93-121.7,188.92-121.7s156.27,49.93,188.92,121.7c-32.65,71.77-104.93,121.7-188.92,121.7Z"></path>   <path d="M299.95,120.99c0-.06,0-.12,0-.17-62.18,2.26-111.91,53.32-111.96,116.04,62.19-2.11,111.97-53.16,111.97-115.87Z"></path>   <path d="M420.47,237.06c-62.19,2.11-111.97,53.16-111.97,115.87,0,.06,0,.12,0,.17,62.18-2.26,111.91-53.32,111.96-116.04Z"></path>   <path d="M420.38,233.12c-2.03-62.42-53.24-112.41-116.15-112.41v112.41h116.15Z"></path>   <path d="M188.08,241.01c2.14,62.33,53.3,112.21,116.15,112.21v-112.21h-116.15Z"></path> </svg>