<svg data-name="Layer 1" xmlns="http://www.w3.org/2000/svg" viewBox="0 0 612.83 612.68"><path d="M582.86 29.97c-60.6-60.6-185.81-26.78-291.25 78.66-5.3 5.3-10.38 10.66-15.31 16.05-10.25-1.31-20.68-2.07-31.28-2.07C109.92 122.62 0 232.54 0 367.65s109.92 245.03 245.03 245.03 245.03-109.92 245.03-245.03c0-10.51-.74-20.85-2.03-31.01 5.43-4.97 10.84-10.07 16.18-15.41C609.65 215.79 643.47 90.58 582.87 29.97ZM468.85 268.13c-2.84 3.02-5.73 6.03-8.72 9.01-13.38 13.38-27.1 25.26-40.82 35.69-68.95 52.43-137.78 67.46-162.28 42.96-23.06-23.06-11.1-85.42 34.13-150.18a167.746 167.746 0 0 0-46.14-6.48c-8.57 0-16.99.66-25.22 1.91-45.19 78.76-50.28 155.4-6.85 198.84 20.27 20.27 47.75 29.97 79.32 29.97 40.43 0 87.54-16.01 134.69-46.08-8.19 93.21-86.64 166.57-181.94 166.57-100.74 0-182.69-81.96-182.69-182.7s81.96-182.7 182.69-182.7c76.31 0 141.8 47.04 169.1 113.63a336.26 336.26 0 0 0 36.13-31.32c4.19-4.19 8.2-8.42 12.05-12.68-25.52-48.84-67-88.04-117.51-110.65 57.17-53.79 119.06-81.35 159.36-81.35 14.97 0 26.98 3.8 34.63 11.46 28.28 28.29 3.9 115.66-69.93 194.09Z"></path></svg>