<svg xmlns="http://www.w3.org/2000/svg" width="632.37" viewBox="0 0 632.37 642" height="642" data-name="Layer 1"><path d="M370.56 0h71.89c1.37 0 2.71.25 3.97.72 1.04.39 2.01.94 2.9 1.62.4.31.78.65 1.14 1.01s175.45 178.13 175.45 178.13a22.47 22.47 0 0 1 6.46 15.77v152.59c0 5.9-2.32 11.56-6.46 15.77L425.87 568.7c-4.22 4.29-9.99 6.7-16.01 6.7h-93.85a22.47 22.47 0 0 1-16.01-6.7L139.68 405.94a22.47 22.47 0 0 1-6.46-15.77v-43.4c0-5.9 2.32-11.56 6.46-15.77l121.76-123.62c4.4-4.47 11.61-4.47 16.01 0l22.45 22.8c4.31 4.37 4.31 11.39 0 15.76L194.88 352.7c-8.61 8.75-8.6 22.78.01 31.53l127.95 129.9c4.22 4.29 9.99 6.7 16.01 6.7h48.16c6.02 0 11.79-2.41 16.01-6.7l168.31-170.88a22.47 22.47 0 0 0 6.46-15.77V219.62c0-5.9-2.32-11.56-6.46-15.77L370.56 0Z"></path><path d="M632.37 376.2v73.16c0 2.95-1.16 5.78-3.23 7.88L453.76 635.3c-4.22 4.29-9.99 6.7-16.01 6.7H288.12a22.47 22.47 0 0 1-16.01-6.7L73.07 433.23a22.47 22.47 0 0 1-6.46-15.77v-97.99c0-5.9 2.32-11.56 6.46-15.77l161.32-163.78c4.22-4.29 9.99-6.7 16.01-6.7h38.09c6.02 0 11.79 2.41 16.01 6.7l123.84 125.74c4.31 4.37 4.31 11.39 0 15.77l-22.53 22.87c-4.4 4.47-11.61 4.47-16.01 0L285.45 198.35c-8.8-8.94-23.22-8.94-32.02 0L127.64 326.06a22.47 22.47 0 0 0-6.46 15.77v53.27c0 5.9 2.32 11.56 6.46 15.77l167.32 169.86c4.22 4.29 9.99 6.7 16.01 6.7h103.94c6.02 0 11.79-2.41 16.01-6.7L632.38 376.2Z"></path><path d="M261.82 642h-71.9c-3.01 0-5.89-1.21-8-3.35L6.46 460.52C2.32 456.32 0 450.66 0 444.75V292.16c0-5.9 2.32-11.56 6.46-15.77L206.5 73.31c4.22-4.29 9.99-6.7 16.01-6.7h93.86c6.02 0 11.79 2.41 16.01 6.7L492.7 236.07a22.47 22.47 0 0 1 6.46 15.77v43.4c0 5.9-2.32 11.56-6.46 15.77L370.95 434.62c-4.4 4.47-11.61 4.47-16.01 0l-22.44-22.79c-4.34-4.41-4.3-11.49.09-15.85L439.16 290.1c8.8-8.75 8.85-22.98.1-31.78L309.54 127.81a22.484 22.484 0 0 0-15.94-6.63h-48.23c-6.02 0-11.79 2.41-16.01 6.7L61.03 298.76a22.47 22.47 0 0 0-6.46 15.77v107.86c0 5.9 2.32 11.56 6.46 15.77L261.81 642Z"></path><path d="M0 265.8v-73.16c0-2.95 1.16-5.78 3.23-7.88L178.62 6.7c4.22-4.29 9.99-6.7 16-6.7h149.63c6.02 0 11.79 2.41 16.01 6.7L559.3 208.77a22.47 22.47 0 0 1 6.46 15.77v97.99c0 5.9-2.32 11.56-6.46 15.77L397.98 502.08c-4.22 4.29-9.99 6.7-16.01 6.7h-38.08a22.47 22.47 0 0 1-16.01-6.7L204.03 376.34c-4.31-4.37-4.31-11.39 0-15.77l22.53-22.87c4.4-4.47 11.61-4.47 16.01 0l104.36 105.94c8.8 8.94 23.21 8.94 32.02 0l125.79-127.71a22.47 22.47 0 0 0 6.46-15.77v-53.27c0-5.9-2.32-11.56-6.46-15.77L337.42 61.27c-4.22-4.29-9.99-6.7-16.01-6.7H217.47c-6.02 0-11.79 2.41-16.01 6.7L0 265.8Z"></path></svg>