<svg xmlns="http://www.w3.org/2000/svg" width="596.6" viewBox="0 0 596.6 598.6" height="598.6" xml:space="preserve"><path d="M365.6 47c-71.3 30.2-135.3 73.3-190.3 128.3-55 55-98.1 119-128.3 190.3-31.2 73.8-47 152.2-47 233h109.1c0-66.1 12.9-130.2 38.4-190.5 24.7-58.3 60-110.6 104.9-155.6 31.5-31.5 66.7-58.3 104.9-79.9V107h239.2V0c-80 .3-157.7 16.1-230.9 47z"></path><path d="M126.2 598.6h109.1c0-97 37.8-188.3 106.4-256.9 5.1-5.1 10.3-10 15.7-14.7v-94.2h239.2V126.2c-125.4.5-243.2 49.6-332 138.3-89.2 89.3-138.4 207.9-138.4 334.1z"></path><path d="M252.4 598.6h104.9V354.8h239.2V252.5c-91.7.5-177.8 36.5-242.7 101.4-65.3 65.3-101.4 152.2-101.4 244.7z"></path></svg>