<svg xmlns="http://www.w3.org/2000/svg" width="622.8" viewBox="0 0 622.8 525" height="525" xml:space="preserve" style="enable-background:new 0 0 622.8 525"><path d="M589.2 185.3 424.3 0H195.6l-162 187.4C8.9 216.5-2.3 246.4.4 276.2c3.4 37.7 28.4 62 34.2 67.1l161 181.6h231.5L594 329.5c40-47 38.3-98.2-4.8-144.2zM210.3 32.6h179.8L209.8 238.2l-53.1-59s-39.4-41.1 7.2-94l46.4-52.6zm103 320.7-81.6-90.8 80.8-92.2 82 89.3-81.2 93.7zm-280.5-80c-1.9-20.7 6.8-42.5 25.6-64.7l49.7-57.7c3 22.8 14.3 38.2 24.9 50.5l158.8 176.7-90.4 104.2L58.2 320.9s-22.9-19.7-25.4-47.6zm379.3 219.1H235.7l181-208.6 42.8 46.6c5.2 5.6 49.6 55.9-4.1 111.7l-43.3 50.3zm157.1-183.9-55.6 66c-2.9-28.8-17.5-52.9-30.3-66.2L334.1 145.8 421.6 46 565 207.2l.3.3c31.7 33.7 33 66.7 3.9 101z"></path></svg>