<svg xmlns="http://www.w3.org/2000/svg" width="594.2" viewBox="0 0 594.2 584.3" height="584.3"><path d="M594.2 139.6C594.2 62.5 531.6 0 454.5 0H0v279.3h454.5c77.1 0 139.7-62.6 139.7-139.7zM142.8 264.8c-69.1 0-125.2-56-125.2-125.2 0-69.1 56-125.2 125.2-125.2S268 70.5 268 139.6c0 69.2-56.1 125.2-125.2 125.2z"></path><circle cx="142.8" cy="139.6" r="20.4"></circle><path d="M454.5 305H0v279.3h454.5c77.1 0 139.6-62.5 139.6-139.6S531.6 305 454.5 305zM142.8 569.8c-69.1 0-125.2-56-125.2-125.2 0-69.1 56-125.2 125.2-125.2S268 375.5 268 444.6s-56.1 125.2-125.2 125.2z"></path><circle cx="142.8" cy="444.6" r="20.4"></circle></svg>