<svg id="Layer_1" data-name="Layer 1" xmlns="http://www.w3.org/2000/svg" viewBox="0 0 509.24 595.03">   <path d="M196.55,175.98c-4.87,2.32-9.66,4.7-14.4,7.12v250.15h-29.09V199.11c-20.5,12.09-39.42,25.07-56.42,38.6v114.42h-14.55v-102.31C16.93,306.52-14.91,370.37,6.76,415.96c26.12,54.92,121.82,66.36,230.39,33.55V158.62c-13.47,5.14-27.04,10.91-40.61,17.36Z"></path>   <path d="M502.48,180.21c-24.83-52.21-112.55-65.1-214.41-38.07V431.18c8.19-3.43,16.41-7.08,24.63-10.98,8.73-4.15,17.24-8.48,25.54-12.95V215.7h80v138.21c71.14-58.52,106.9-126.07,84.25-173.69Z"></path>   <rect x="24.54" width="7.27" viewBox="0 0 7.27 268.06" height="268.06"></rect>   <path d="M96.64,53.88h-14.55V249.82c4.68-4.08,9.52-8.12,14.55-12.11V53.88Z"></path>   <path d="M182.15,107.69h-29.09v91.41c9.38-5.53,19.07-10.89,29.09-16.01V107.69Z"></path>   <path d="M237.16,513.03h50.91v-81.86c-17.14,7.16-34.18,13.27-50.91,18.33v63.52Z"></path>   <path d="M338.23,595.03h80v-241.13c-23.18,19.07-50.09,37.19-80,53.34v187.79Z"></path> </svg>