<svg xmlns="http://www.w3.org/2000/svg" width="419.9" viewBox="0 0 419.9 615.8" height="615.8" style="enable-background:new 0 0 419.9 615.8" xml:space="preserve"><path d="M14 251.9H0v363.9h112V349.9c0-53.9-44.1-98-98-98M126 154v461.8h14V251.9c0-77 63-140 140-140h140V0H280c-84.8 0-154 69.3-154 154m28 97.9v363.9h14V349.9c0-61.6 50.4-112 112-112h140V126H280c-69.4 0-126 56.6-126 125.9m265.9 0h-140c-53.9 0-98 44.1-98 98v265.9h14.2c-.1 0-.2-.1-.2-.2V447.8c0-46.2 37.8-84 84-84h139.8c.1 0 .2.1.2.2V251.9zm0 126h-140c-38.5 0-70 31.5-70 70v167.9h14v-70c0-30.8 25.2-56 56-56h140V377.9zM56 293.9c0 7.7-6.3 14-14 14s-14-6.3-14-14 6.3-14 14-14 14 6.3 14 14" style="fill-rule:evenodd;clip-rule:evenodd"></path></svg>