<svg xmlns="http://www.w3.org/2000/svg" width="611.4" viewBox="0 0 611.4 398.7" height="398.7" xml:space="preserve"><path d="M362.1 78.7H199.4v.1c-66.6 0-120.7 54-120.7 120.7 0 66.6 54 120.7 120.7 120.7v-.2h84.1V157.3h-84.1c-23.5 0-42.5 19-42.5 42.5s19 42.5 42.5 42.5h15.7v9.6h-15.7c-28.9 0-52.4-23.5-52.4-52.4s23.5-52.4 52.4-52.4v.1h94.3v251.7h130l31.7-68.4h-93.3V78.7z"></path><path d="m530.7 1.6-86.2 190.3h-3.7V0H199.4C89.3 0 0 89.3 0 199.4c0 110.1 89.3 199.4 199.4 199.4h84.1v-68.4h-84.1c-72.3 0-130.9-58.6-130.9-130.9 0-72.3 58.6-131 130.9-131h173V320H461l31.5-66.7L611.4 1.6h-80.7z"></path></svg>