<svg data-name="Layer 1" xmlns="http://www.w3.org/2000/svg" viewBox="0 0 632.4 632.4"><circle cx="316.99" cy="290.44" r="27.12" transform="rotate(-9.22 316.9188256 290.36821329)"></circle><path d="M567.93 251.73h-83.67c-7.51 0-14.7 1.35-21.4 3.72 6.41-3.07 12.45-7.19 17.76-12.51l59.17-59.16c25.17-25.17 25.17-65.99 0-91.17-25.17-25.17-65.99-25.17-91.17 0l-59.17 59.16c-5.31 5.31-9.44 11.35-12.51 17.76 2.36-6.71 3.71-13.89 3.71-21.4V64.46C380.66 28.86 351.8 0 316.2 0s-64.46 28.86-64.46 64.46v83.67c0 7.51 1.35 14.7 3.72 21.4-3.07-6.41-7.19-12.45-12.51-17.76L183.79 92.6c-25.17-25.17-65.99-25.17-91.17 0-25.17 25.17-25.17 65.99 0 91.17l59.16 59.17c5.31 5.31 11.35 9.44 17.76 12.51-6.71-2.36-13.89-3.71-21.4-3.71H64.46C28.86 251.73 0 280.6 0 316.2s28.86 64.46 64.46 64.46h83.67c7.51 0 14.7-1.35 21.4-3.72-6.41 3.07-12.45 7.19-17.76 12.51L92.6 448.61c-25.17 25.17-25.17 65.99 0 91.17 25.17 25.17 65.99 25.17 91.17 0l59.17-59.16c5.31-5.31 9.44-11.35 12.51-17.76-2.36 6.71-3.71 13.89-3.71 21.4v83.67c0 35.6 28.86 64.46 64.46 64.46s64.46-28.86 64.46-64.46v-83.67c0-7.51-1.35-14.7-3.72-21.4 3.07 6.41 7.19 12.45 12.51 17.76l59.16 59.16c25.17 25.17 65.99 25.18 91.17 0 25.17-25.17 25.17-65.99 0-91.17l-59.16-59.16c-5.31-5.31-11.35-9.44-17.76-12.51 6.71 2.36 13.89 3.71 21.4 3.71h83.67c35.6 0 64.46-28.86 64.46-64.46s-28.86-64.46-64.46-64.46Zm-176.98-98.46c24.35-24.35 63.82-24.35 88.17 0s24.35 63.82 0 88.17-63.82 24.35-88.17 0-24.35-63.82 0-88.17Zm-3.91 136.6c0 24.89-20.37 45.26-45.26 45.26h-25.59v45.53h-62.35V244.62h87.93c24.89 0 45.26 20.37 45.26 45.26ZM253.85 148.14c0-34.43 27.91-62.34 62.35-62.34s62.34 27.91 62.34 62.34-27.91 62.34-62.34 62.34-62.35-27.91-62.35-62.34Zm-100.58 93.31c-24.35-24.35-24.35-63.82 0-88.17s63.82-24.35 88.17 0 24.35 63.82 0 88.17-63.82 24.35-88.17 0Zm-5.14 137.1c-34.43 0-62.34-27.91-62.34-62.35s27.91-62.34 62.34-62.34 62.34 27.91 62.34 62.34-27.91 62.35-62.34 62.35Zm93.31 100.58c-24.35 24.35-63.82 24.35-88.17 0s-24.35-63.82 0-88.17 63.82-24.35 88.17 0 24.35 63.82 0 88.17Zm137.1 5.14c0 34.43-27.91 62.34-62.35 62.34s-62.34-27.91-62.34-62.34 27.91-62.34 62.34-62.34 62.35 27.91 62.35 62.34Zm100.58-93.31c24.35 24.35 24.35 63.82 0 88.17s-63.82 24.35-88.17 0-24.35-63.82 0-88.17 63.82-24.35 88.17 0Zm5.14-12.41c-34.43 0-62.34-27.91-62.34-62.34s27.91-62.35 62.34-62.35 62.34 27.91 62.34 62.35-27.91 62.34-62.34 62.34Z"></path></svg>