<svg xmlns="http://www.w3.org/2000/svg" width="506.3" viewBox="0 0 506.3 603" height="603" xml:space="preserve"><path d="M1.9 0h502.6v85.1H1.9zM504.5 249.3V92.9H1.9v156.3h150.5c13.5 0 24.5 10.9 24.5 24.5v298.7c0 16.9 13.7 30.6 30.6 30.6H299c16.9 0 30.6-13.7 30.6-30.6V273.7c0-13.5 10.9-24.5 24.5-24.5h150.4z"></path><path d="M442.5 432.7h-103V603h165V494.7c0-34.3-27.8-62-62-62zM1.9 494.7V603h165V432.7h-103c-34.3 0-62 27.7-62 62z"></path><circle cx="84.4" cy="341.2" r="84.4"></circle><circle cx="422" cy="341.2" r="84.4"></circle></svg>