<svg xmlns="http://www.w3.org/2000/svg" width="609.5" viewBox="0 0 609.5 609.5" height="609.5" style="enable-background:new 0 0 609.5 609.5" xml:space="preserve"><path d="M304.8 0C136.4 0 0 136.4 0 304.8s136.4 304.8 304.8 304.8 304.8-136.4 304.8-304.8S473.1 0 304.8 0zM198.3 263c-14.8 16.4-36.1 26.7-59.9 26.7-44.6 0-80.8-36.2-80.8-80.8 0-44.6 36.2-80.8 80.8-80.8 44.6 0 80.8 36.2 80.8 80.8 0 8.4-1.3 16.4-3.6 24 5-2.8 10.6-4.6 16.7-4.6 18.8 0 34.1 15.2 34.1 34.1s-15.2 34.1-34.1 34.1c-18.6 0-33.7-14.9-34-33.5zm177.3 274.9c-22.7 38.4-72.2 51.2-110.7 28.5-38.4-22.7-51.2-72.2-28.5-110.7 11.7-19.8 30.6-32.7 51.3-37.5-15.4-9.8-20.4-30.1-11-45.9 9.6-16.2 30.4-21.6 46.6-12 16.2 9.6 21.6 30.4 12 46.6-2.8 4.8-6.7 8.5-11 11.2 7.8 1.8 15.5 4.8 22.7 9.1 38.5 22.7 51.3 72.2 28.6 110.7zm95.6-248.2c-23 0-43.7-9.7-58.4-25.1-.6 18.2-15.5 32.9-33.9 32.9-18.8 0-34.1-15.2-34.1-34.1 0-18.8 15.2-34.1 34.1-34.1 5.5 0 10.7 1.4 15.3 3.8-2.4-7.6-3.7-15.8-3.7-24.2 0-44.6 36.2-80.8 80.8-80.8 44.6 0 80.8 36.2 80.8 80.8-.1 44.7-36.3 80.8-80.9 80.8z"></path></svg>