<svg xmlns="http://www.w3.org/2000/svg" width="609.3" viewBox="0 0 609.3 276.1" height="276.1" xml:space="preserve"><path d="M533 38.9V0h-89.5c-26.5 0-51.3 7.6-72.4 20.6H218c-7.1 4.4-13.7 9.4-19.9 15H44v3.3h489zM533 86.1V47.2H339.8c-5.6 6.4-10.6 13.3-15 20.6H171.6c-2.9 4.8-5.4 9.8-7.7 15H11.4v3.3H533zM325.6 209.5H172.4c3.2 5.2 6.7 10.2 10.5 15H32.4v3.3h512.7l39.4-38.9H315.2c2.9 7.2 6.4 14.1 10.4 20.6zM391.9 133.4c1.5-16.4 10.7-30.6 24-38.9H312.6c-2.2 6.7-4 13.6-5.2 20.6H154.3c-.8 4.9-1.4 9.9-1.7 15H0v3.3h391.9zM414.2 180.6c-12.6-8.7-21.3-22.8-22.4-38.9h-86.2c.2 7 .9 13.9 2.1 20.6H154.5a126 126 0 0 0 3.6 15H6.9v3.3H414.2zM585.9 141l-122.1 1.4 21.2 21.8s-4.1 9.7-13.7 17.2h121.1l16.9-16.9-23.4-23.5zM458 134.2h122.4l-39.8-39.7h-42.8zM373.3 256.8H220.1c11 6.6 25.7 12.7 38.4 16H119.3v3.3h321.3c37.9 0 72.2-15.3 97.2-40H346.6c8 7.9 17 14.9 26.7 20.7z"></path></svg>