<svg xmlns="http://www.w3.org/2000/svg" width="619.9" viewBox="0 0 619.9 388.1" height="388.1" xml:space="preserve"><path d="M497.9 144.2H122c-12.6 0-22.8-10.6-22.2-23.3.6-11.9 10.9-21.1 22.8-21.1h363.6c62 0 114.2-42.4 129.1-99.8H122C54.3 0-.7 55.4 0 123.2.7 190.3 56.4 244 123.5 244h374.4c12.6 0 22.8 10.6 22.2 23.3-.6 11.9-10.9 21.1-22.8 21.1H147.1c-62 0-114.2 42.4-129.1 99.8h478.3c67.1 0 122.9-53.6 123.5-120.8.7-67.9-54.2-123.2-121.9-123.2zM497 15.5c10.2 0 18.4 8.2 18.4 18.4s-8.2 18.4-18.4 18.4-18.4-8.2-18.4-18.4c0-10.1 8.3-18.4 18.4-18.4z"></path></svg>