<svg xmlns="http://www.w3.org/2000/svg" width="626" viewBox="0 0 626 626" height="626" xml:space="preserve" style="enable-background:new 0 0 626 626"><path d="M461.2 37.3C421.9 16.1 377.5 3.1 330.4.5c-.9 0-1.9-.1-2.8-.1-1.7-.1-3.4-.1-5-.2-3.2-.1-6.4-.2-9.6-.2-3.2 0-6.3.1-9.5.2-1.7.1-3.4.1-5 .2-.9 0-1.9.1-2.8.1-47.1 2.6-91.5 15.6-130.8 36.8 46.5-15.9 96.3-24.6 148.2-24.6 51.8 0 101.6 8.6 148.1 24.6zM575.9 143a325.7 325.7 0 0 0-27-35.8C480.3 64.8 399.5 40.3 313 40.3S145.7 64.8 77.2 107.2c-9.8 11.3-18.9 23.2-27 35.8 73.4-54.6 164.3-87 262.9-87 98.4.1 189.4 32.4 262.8 87z"></path><path d="M313 109.3c124.5 0 235.5 57.5 308 147.4-4.2-23.1-10.9-45.4-19.9-66.5C525.3 120.5 424.2 77.8 313 77.8c-111.2 0-212.3 42.7-288 112.5-9 21.1-15.8 43.3-20 66.5 72.5-89.9 183.5-147.5 308-147.5z"></path><path d="M624.5 282.1c-70.6-95.2-183.8-157-311.5-157-127.7 0-240.9 61.7-311.5 157C.5 292.3 0 302.6 0 313c0 28.2 3.7 55.5 10.7 81.5C57.2 272.8 175 186.3 313 186.3s255.9 86.5 302.3 208.2c7-26 10.7-53.3 10.7-81.5 0-10.4-.5-20.7-1.5-30.9z"></path><path d="M313 198.1c-138.8 0-256.3 91-296.1 216.6 20.2 58.8 57.4 109.6 105.7 146.7-4.4-16.5-6.8-33.8-6.8-51.6 0-99.4 73.5-181.6 169.1-195.3-42.4 12.2-73.5 51.3-73.5 97.7 0 41.8 25.3 77.8 61.4 93.4-51.9-10.8-96.3-41.9-124.5-84.7-14.1 26.3-22.1 56.4-22.1 88.3 0 21.9 3.8 43 10.7 62.5C187 606 247.7 626 313 626s126-20 176.2-54.3c6.9-19.6 10.7-40.6 10.7-62.5 0-32-8-62-22.1-88.3-28.2 42.8-72.6 73.9-124.6 84.7 36.1-15.6 61.4-51.5 61.4-93.4 0-46.4-31.1-85.4-73.5-97.7 95.6 13.7 169.1 95.9 169.1 195.3 0 17.9-2.4 35.2-6.8 51.6 48.3-37.1 85.5-88 105.7-146.7C569.3 289.1 451.8 198.1 313 198.1z"></path></svg>