<svg id="Layer_1" data-name="Layer 1" xmlns="http://www.w3.org/2000/svg" viewBox="0 0 615.63 615.63">   <path d="M557.92,0H57.72C25.89,0,0,25.89,0,57.71v500.2c0,31.82,25.89,57.71,57.72,57.71h500.2c31.82,0,57.72-25.89,57.72-57.71V57.71c0-31.82-25.89-57.71-57.72-57.71Zm1.39,57.71V333.06l-55.8,55.8c.88-8.61,1.35-17.3,1.35-26.07,0-67.31-26.21-130.6-73.81-178.19-32.31-32.31-71.31-53.93-112.57-64.99-.37-.08-.72-.22-1.09-.29-29.65-7.81-60.43-10.16-90.77-7.01l52.51-52.51c1.08-1.08,1.96-2.27,2.83-3.47h275.97c.7,0,1.39,.69,1.39,1.39ZM114.48,501.14c-76.29-76.29-76.29-200.43,0-276.72,37.95-37.95,87.74-57.01,137.59-57.2l-97.4,97.39c-54.13,54.13-54.13,142.21,0,196.35,27.06,27.06,62.62,40.59,98.17,40.59s71.1-13.53,98.17-40.59h0s.04-.06,.06-.08l97.42-97.43c-.17,52.01-20.5,100.89-57.29,137.69-76.3,76.3-200.43,76.3-276.73,0ZM391.21,224.42c20.49,20.49,35.86,44.74,45.5,71.18l-46.76,46.76c-4.2-28.46-17.08-55.88-38.94-77.75-21.86-21.86-49.28-34.73-77.74-38.94l46.65-46.65c26.03,9.46,50.45,24.56,71.28,45.4Zm-196.7,196.7c-32.17-32.17-32.17-84.52,0-116.68,16.09-16.09,37.21-24.12,58.34-24.12,10.7,0,21.4,2.08,31.45,6.21l-53.85,53.85c-12.38,12.37-12.38,32.43,0,44.8,6.18,6.19,14.3,9.28,22.4,9.28s16.22-3.09,22.4-9.28l53.85-53.85c12.28,29.88,6.32,65.56-17.91,89.79-32.18,32.15-84.53,32.15-116.68,0ZM57.72,56.33H202.92L74.66,184.59s-.01,.02-.02,.02c-6.55,6.55-12.63,13.4-18.31,20.46V57.71c0-.7,.69-1.39,1.39-1.39Zm500.2,502.97h-147.36c7.07-5.68,13.92-11.77,20.48-18.33l128.26-128.26v145.21c0,.69-.69,1.38-1.39,1.38Z"></path> </svg>