<svg data-name="Layer 1" xmlns="http://www.w3.org/2000/svg" viewBox="0 0 585.9 618.92"><path d="M364.77 301.95h-21.4c-2.07 0-4.01 1.69-4.51 3.71-1.67 6.85-7.86 11.95-15.21 11.95s-13.55-5.1-15.21-11.95c-.52-2.13-2.31-3.71-4.51-3.71h-21.97c-2.2 0-3.99 1.57-4.51 3.71-1.67 6.85-7.85 11.95-15.21 11.95s-13.55-5.1-15.21-11.95c-.52-2.13-2.31-3.71-4.51-3.71h-21.4c-2.55 0-4.62 2.07-4.62 4.62v264.67c0 24 17.64 45.32 41.54 47.48 13.38 1.21 25.67-3.43 34.74-11.59.1-.09.24-.09.33 0 9.07 8.16 21.36 12.8 34.74 11.59 23.9-2.16 41.54-23.48 41.54-47.47V306.57c0-2.55-2.07-4.62-4.62-4.62ZM277.9 453.29c0 7.7-5.17 14.84-12.74 16.22-9.91 1.8-18.57-5.8-18.57-15.39l.34-108.75c0-.18.17-.3.34-.24 4.7 1.64 9.72 2.57 14.97 2.57s10.52-.98 15.31-2.69c.17-.06.34.06.34.24v108.04Zm61.4.83c0 9.59-8.67 17.2-18.58 15.39-7.57-1.38-12.73-8.53-12.73-16.23V345.25c0-.18.17-.3.34-.24 4.79 1.72 9.93 2.69 15.31 2.69s10.51-.98 15.31-2.69c.17-.06.34.06.34.24v108.87ZM579.97 244.36l-82.69-2.72c-1.12-.04-2.03-.68-2.44-1.72-.41-1.04-.19-2.14.61-2.93l33.79-33.79c19.58-19.58 20.69-51.23 2.47-70.56-9.3-9.87-21.88-15.42-35.41-15.62-13.41-.23-26.27 4.96-35.86 14.54L373.3 218.7c-2.23 2.23-2.37 5.78-.33 8.25 15.36 18.58 23.82 42.02 23.82 66s-8.46 47.42-23.82 66c-2.04 2.47-1.9 6.02.33 8.25l87.15 87.14c9.38 9.37 21.85 14.54 35.11 14.54 14.4 0 28.09-6.26 37.57-17.18 16.98-19.54 15.35-49.77-3.7-68.82l-34.02-34.03c-.79-.79-1.02-1.89-.61-2.93.41-1.04 1.33-1.68 2.44-1.72l82.74-2.73c3.32-.11 5.93-2.8 5.93-6.12v-84.87c0-3.33-2.6-6.02-5.93-6.13ZM218.7 212.6c2.23 2.22 5.78 2.37 8.25.33 18.58-15.36 42.02-23.82 66-23.82s47.42 8.46 66 23.82c1.17.96 2.57 1.44 3.97 1.44 1.56 0 3.1-.6 4.28-1.77l87.14-87.14c9.38-9.38 14.54-21.85 14.54-35.11 0-14.39-6.26-28.09-17.18-37.57-19.54-16.96-49.77-15.35-68.82 3.71l-34.02 34.02c-.79.79-1.89 1.02-2.93.61-1.04-.41-1.69-1.33-1.72-2.44l-2.72-82.74c-.11-3.32-2.8-5.93-6.12-5.93H250.5c-3.33 0-6.02 2.6-6.13 5.93l-2.72 82.69c-.04 1.12-.68 2.03-1.72 2.44-1.04.41-2.14.19-2.93-.61l-33.79-33.79c-19.57-19.58-51.23-20.69-70.56-2.47-9.87 9.3-15.42 21.88-15.62 35.41-.2 13.54 4.96 26.28 14.54 35.85l87.14 87.14ZM212.6 218.7l-87.14-87.14c-9.38-9.38-21.85-14.54-35.11-14.54-14.4 0-28.09 6.26-37.57 17.18-16.97 19.54-15.35 49.77 3.7 68.82l34.03 34.02c.79.79 1.02 1.89.61 2.93-.41 1.04-1.33 1.69-2.44 1.72l-82.74 2.72c-3.32.11-5.93 2.8-5.93 6.13v84.87c0 3.33 2.6 6.01 5.93 6.12l82.69 2.72c1.12.04 2.03.68 2.44 1.72s.19 2.14-.61 2.93l-33.79 33.79c-19.58 19.58-20.69 51.22-2.47 70.55 9.3 9.87 21.88 15.42 35.41 15.62h.77c13.26 0 25.69-5.14 35.09-14.54l87.14-87.14c2.23-2.23 2.37-5.78.33-8.25-15.36-18.58-23.82-42.01-23.82-66s8.46-47.42 23.82-66c2.04-2.47 1.9-6.02-.33-8.25Z"></path></svg>