<svg xmlns="http://www.w3.org/2000/svg" width="617.3" viewBox="0 0 617.3 579.8" height="579.8" xml:space="preserve"><path d="M463.2 240.7c15.2 26.2 23.9 56.7 23.9 89.2 0 96.1-76.3 174.5-171.6 178.2v-89.4h147.3l-51.3-88.8 51.5-89.2H360l-51.5-89.2h.1c66.2 0 123.8 36 154.6 89.2 9.9-21.6 15.4-45.6 15.4-70.8C478.6 76.1 402.6 0 308.8 0S138.9 76.1 138.9 169.9c0 25.3 5.6 49.3 15.5 70.8 30.8-53.2 88.4-89.1 154.3-89.2l-51.5 89.2H154.3C67.8 248.7 0 321.3 0 409.9c0 93.8 76.1 169.9 169.9 169.9 57.1 0 108.1-28.2 138.9-71.5 30.8 43.2 81.6 71.5 138.7 71.5 93.8 0 169.9-76.1 169.9-169.9-.1-88.5-67.8-161.2-154.2-169.2zM268.6 97.1c0-22.2 18-40.2 40.2-40.2s40.2 18 40.2 40.2-18 40.2-40.2 40.2-40.2-18-40.2-40.2zM127 480.9c-19.2 11.1-43.8 4.5-54.9-14.8-11.1-19.2-4.5-43.8 14.8-54.9 19.2-11.1 43.8-4.5 54.9 14.8 11.1 19.3 4.4 43.9-14.8 54.9zm3.4-151c0-32.5 8.7-62.9 23.9-89.1l51.4 89.1-51.3 88.8H302v89.4c-95.2-3.8-171.6-82.1-171.6-178.2zm415.1 136.2c-11.1 19.2-35.6 25.9-54.9 14.8-19.2-11.1-25.9-35.7-14.8-54.9 11.1-19.2 35.6-25.9 54.9-14.8 19.2 11.1 25.8 35.6 14.8 54.9z"></path></svg>