<svg xmlns="http://www.w3.org/2000/svg" width="609" viewBox="0 0 609 609" height="609" style="enable-background:new 0 0 609 609" xml:space="preserve"><path d="M395 535c92-36.2 157.2-125.9 157.2-230.5 0-29.7-5.3-58.3-14.9-84.7L414.2 350.2c-12.4 13.1-19.2 30.3-19.2 48.3V535zM0 0v81l61 64.6c48.2-73.7 129-124.2 222-131 7.1-.5 14.3-.9 21.6-.9 7.3 0 14.4.4 21.6.9 92.9 6.8 173.7 57.3 222 131L609 81V0H0z"></path><path d="M595.4 304.5c0 153.4-118.7 278.9-269.3 290-7.1.5-14.3.9-21.6.9-7.3 0-14.4-.4-21.6-.9-150.6-11.1-269.3-136.6-269.3-290 0-42.5 9.2-82.8 25.5-119.2L0 143.8V609h609V143.8l-39.2 41.5c16.4 36.4 25.6 76.7 25.6 119.2z"></path><path d="M326.1 57.8v493.4c8.7-.8 17.3-1.9 25.7-3.6V398.5c0-29.1 11-56.8 31-77.9L517.4 178c-39.8-66.6-110-113.1-191.3-120.2zM56.8 304.5c0 104.7 65.3 194.3 157.2 230.5V398.5c0-18-6.8-35.2-19.2-48.3L71.7 219.8c-9.6 26.5-14.9 55-14.9 84.7z"></path><path d="M282.9 551.2V57.8C201.6 64.9 131.4 111.4 91.7 178l134.6 142.6c20 21.2 31 48.8 31 77.9v149.1c8.3 1.7 16.9 2.9 25.6 3.6z"></path></svg>