<svg xmlns="http://www.w3.org/2000/svg" width="490.5" viewBox="0 0 490.5 612.5" height="612.5" xml:space="preserve"><path d="M304.1 239.6h-63v64.1h63c67.5 0 122.3 54.9 122.3 122.4s-54.9 122.4-122.3 122.4H180.8c-64.3 0-116.7-52.3-116.7-116.7v-251c0-64.3 52.3-116.7 116.7-116.7h265.1V0H180.8C81.1 0 0 81.1 0 180.8v250.9c0 99.7 81.1 180.8 180.8 180.8H304c102.8 0 186.5-83.7 186.5-186.5s-83.6-186.4-186.4-186.4"></path><path d="M445.9 183.1V119H182.7c-34.8 0-62.9 28.2-62.9 62.9v247h.1c1.6 35 30.5 63.9 65.9 63.9h119.7c36.5 0 66-30.6 66-67.1 0-36.5-29.6-66-66-66H183.9V183.1h262z"></path></svg>