<svg data-name="Layer 1" xmlns="http://www.w3.org/2000/svg" viewBox="0 0 610.36 610.4"><path d="M610.27 310.32c.02-1.17.08-2.33.09-3.51-12.87-26.9-39.42-45.93-70.69-48.06 12.8-20.3 33.95-34.73 58.63-38.59C561.47 93 444.23 0 305.2 0S48.93 93 12.1 220.15c24.65 3.85 45.79 18.24 58.6 38.5-30.56 1.36-56.83 18.84-70.64 44.18 0 .79-.06 1.57-.06 2.37 0 1.72.1 3.41.13 5.12 29.73.4 55.72 16.07 70.57 39.54-24.68 1.1-46.56 12.73-61.35 30.51C42.84 512.57 162.58 610.4 305.2 610.4s261.21-96.89 295.36-228.13c-14.4-18.36-36.16-30.63-60.89-32.31 14.83-23.52 40.84-39.23 70.6-39.64Zm-459.2 87.77c-12.86-26.94-39.44-46-70.75-48.13 15.03-23.83 41.52-39.72 71.77-39.72s56.67 15.84 71.71 39.62c-32.16 1.43-59.61 20.71-72.74 48.23Zm0-91.2c-12.86-26.94-39.44-46-70.75-48.13 15.03-23.83 41.52-39.72 71.77-39.72s56.67 15.84 71.71 39.62c-32.16 1.43-59.61 20.71-72.74 48.23Zm153.11 91.2c-12.86-26.94-39.44-46-70.74-48.13 15.03-23.83 41.52-39.72 71.77-39.72s56.67 15.84 71.71 39.62c-32.16 1.43-59.61 20.71-72.74 48.23Zm0-91.2c-12.86-26.94-39.44-46-70.74-48.13 15.03-23.83 41.52-39.72 71.77-39.72s56.67 15.84 71.71 39.62c-32.16 1.43-59.61 20.71-72.74 48.23Zm153.11 91.2c-12.86-26.94-39.44-46-70.74-48.13 15.03-23.83 41.52-39.72 71.77-39.72s56.67 15.84 71.71 39.62c-32.16 1.43-59.61 20.71-72.74 48.23Zm0-91.2c-12.86-26.94-39.44-46-70.74-48.13 15.03-23.83 41.52-39.72 71.77-39.72s56.67 15.84 71.71 39.62c-32.16 1.43-59.61 20.71-72.74 48.23Z"></path></svg>