<svg data-name="Layer 1" xmlns="http://www.w3.org/2000/svg" viewBox="0 0 615.61 615.61"><path d="M319.47 307.81 615.61 11.67V0h-11.66L307.81 296.14 114.46 102.79 11.66 0H0v11.66l296.15 296.15-193.36 193.35L0 603.95v11.66h11.66l296.15-296.14 296.14 296.14h11.66v-11.66L512.82 501.16 319.47 307.81z"></path><path d="M615.61 584.08v-23.32L362.66 307.81 615.61 54.86V31.53L339.34 307.81l276.27 276.27z"></path><path d="M615.61 540.89v-23.32L405.85 307.81 615.61 98.05V74.73L382.53 307.81l233.08 233.08z"></path><path d="M615.61 497.69v-23.32L449.05 307.81l166.56-166.56v-23.33L425.73 307.81l189.88 189.88zM307.81 252.95 54.86 0H31.53l276.28 276.28L584.08 0h-23.32L307.81 252.95z"></path><path d="M307.81 209.76 98.05 0H74.73l233.08 233.08L540.89 0h-23.32L307.81 209.76z"></path><path d="M307.81 166.56 141.25 0h-23.33l189.89 189.89L497.69 0h-23.32L307.81 166.56zM307.81 362.66l252.95 252.95h23.32L307.81 339.34 31.53 615.61h23.33l252.95-252.95z"></path><path d="m307.81 405.85 209.76 209.76h23.32L307.81 382.53 74.73 615.61h23.32l209.76-209.76z"></path><path d="m307.81 449.05 166.56 166.56h23.33L307.81 425.73 117.92 615.61h23.33l166.56-166.56zM252.95 307.81 0 560.76v23.32l276.28-276.27L0 31.53v23.33l252.95 252.95z"></path><path d="M209.76 307.81 0 517.56v23.33l233.08-233.08L0 74.72v23.33l209.76 209.76z"></path><path d="M166.56 307.81 0 474.37v23.32l189.89-189.88L0 117.92v23.32l166.56 166.57z"></path></svg>