<svg data-name="Layer 1" xmlns="http://www.w3.org/2000/svg" viewBox="0 0 616.94 616.94"><path d="M592.69 188.4c-15.54-36.73-37.78-69.72-66.1-98.05-28.33-28.33-61.31-50.57-98.05-66.1C390.51 8.16 350.11 0 308.47 0S226.43 8.16 188.4 24.25c-36.73 15.54-69.72 37.78-98.05 66.1-28.33 28.33-50.57 61.31-66.1 98.05C8.16 226.43 0 266.83 0 308.47s8.16 82.04 24.25 120.07c15.54 36.73 37.78 69.72 66.1 98.05 28.33 28.33 61.31 50.57 98.05 66.1 38.04 16.09 78.44 24.25 120.07 24.25s82.04-8.16 120.07-24.25c36.73-15.54 69.72-37.78 98.05-66.1 28.32-28.32 50.57-61.31 66.1-98.05 16.09-38.04 24.25-78.44 24.25-120.07s-8.16-82.04-24.25-120.07Zm-84.63-79.52c13.79 13.79 25.99 28.8 36.54 44.87-6.5-4.72-14.42-7.34-22.86-7.34H412.41c-3.9 0-7.69.56-11.27 1.62-.87-3.64-2.28-7.2-4.23-10.58l-54.67-94.69c-4.21-7.3-10.42-12.83-17.74-16.11 32.45 1.8 63.96 9.08 93.85 21.73 33.61 14.22 63.8 34.57 89.72 60.5ZM384.98 215.82l-34.49 19.91v-39.82h12.66c3.9 0 7.69-.56 11.27-1.62.87 3.64 2.28 7.2 4.23 10.57l6.33 10.96Zm-276.1-106.94c25.93-25.93 56.11-46.28 89.72-60.5 29.9-12.65 61.41-19.93 93.87-21.73-7.32 3.27-13.53 8.81-17.75 16.11l-54.67 94.69c-1.94 3.36-3.35 6.91-4.22 10.53-3.57-1.06-7.35-1.61-11.23-1.61l-109.33-.03h-.01c-8.46 0-16.38 2.63-22.89 7.37 10.54-16.06 22.73-31.05 36.51-44.82Zm129.47 95.95c1.95-3.37 3.35-6.91 4.23-10.54 3.58 1.06 7.35 1.61 11.24 1.61h12.66v39.79l-34.46-19.91 6.33-10.96ZM26.21 308.47c0-38.11 7.46-75.08 22.18-109.87 2.5-5.91 5.2-11.71 8.08-17.41-.87 8.03.81 16.23 5.05 23.58l54.64 94.7c1.95 3.38 4.33 6.38 7.04 8.95-2.72 2.57-5.1 5.57-7.05 8.95l-54.69 94.67c-4.24 7.33-5.92 15.52-5.07 23.54-2.85-5.65-5.53-11.4-8.01-17.26-14.71-34.79-22.18-71.75-22.18-109.87Zm82.67 199.59c-13.79-13.79-25.99-28.81-36.55-44.89 6.5 4.73 14.42 7.35 22.86 7.35l109.33.02h.01c14.08 0 26.7-7.28 33.74-19.48 7.05-12.2 7.05-26.77 0-38.97l-6.33-10.96 34.5-19.91v206.42c-23.31-3.47-46.02-9.85-67.87-19.09-33.61-14.22-63.8-34.57-89.72-60.5Zm183.8 82.24V361.9c0-5.35-2.88-10.34-7.52-13.02-4.64-2.68-10.4-2.68-15.04 0l-61.62 35.56c-3.29 1.9-5.65 4.97-6.63 8.64-.98 3.67-.48 7.51 1.42 10.8l12.31 21.33c3.32 5.76 1.11 10.84 0 12.76s-4.4 6.38-11.05 6.38l-109.34-.02c-6.65 0-9.94-4.47-11.05-6.38-1.11-1.92-3.32-7 0-12.76l54.69-94.67c3.33-5.76 8.84-6.38 11.05-6.38 2.22 0 7.73.62 11.05 6.38l12.31 21.33c1.9 3.29 4.97 5.65 8.64 6.63 3.68.99 7.52.48 10.81-1.42l61.61-35.55c4.64-2.68 7.52-7.67 7.52-13.02 0-5.36-2.88-10.35-7.52-13.03l-61.59-35.58c-6.8-3.92-15.52-1.59-19.45 5.21l-12.32 21.32c-3.33 5.76-8.83 6.38-11.05 6.38-2.22 0-7.73-.62-11.05-6.38l-54.64-94.7c-3.32-5.76-1.1-10.85 0-12.76 1.11-1.92 4.4-6.38 11.05-6.38l109.33.03c6.65 0 9.94 4.47 11.05 6.38 1.11 1.92 3.32 7 0 12.76l-12.32 21.32c-1.9 3.29-2.41 7.13-1.43 10.8.98 3.67 3.34 6.74 6.63 8.65l61.57 35.57c4.64 2.68 10.4 2.68 15.04 0 4.64-2.68 7.52-7.67 7.52-13.03v-71.11c0-7.85-6.39-14.24-14.24-14.24h-24.63c-6.65 0-9.95-4.46-11.05-6.38-1.11-1.92-3.33-7 0-12.76l54.67-94.69c3.33-5.76 8.84-6.38 11.05-6.38s7.73.62 11.05 6.38l54.67 94.69c3.32 5.76 1.11 10.84 0 12.76s-4.4 6.38-11.05 6.38H338.5c-7.85 0-14.24 6.39-14.24 14.24v71.13c0 5.36 2.88 10.35 7.52 13.02 4.64 2.68 10.4 2.68 15.04 0l61.6-35.56c3.29-1.9 5.65-4.97 6.63-8.65.98-3.67.48-7.51-1.42-10.8l-12.31-21.33c-3.32-5.76-1.11-10.84 0-12.76s4.4-6.38 11.05-6.38H521.7c6.65 0 9.95 4.47 11.05 6.39 1.11 1.92 3.33 7 0 12.76l-54.67 94.68c-3.33 5.76-8.84 6.38-11.05 6.38-2.22 0-7.73-.62-11.05-6.38l-12.31-21.33c-3.92-6.8-12.65-9.14-19.45-5.21l-61.6 35.56c-4.64 2.68-7.52 7.67-7.52 13.02 0 5.36 2.88 10.35 7.52 13.03l61.6 35.57c3.29 1.9 7.13 2.41 10.8 1.42 3.67-.98 6.74-3.34 8.65-6.63l12.31-21.32c3.33-5.76 8.84-6.38 11.05-6.38 2.22 0 7.73.62 11.05 6.38l54.66 94.69c3.32 5.76 1.11 10.85 0 12.76-1.11 1.92-4.4 6.38-11.05 6.38H412.35c-6.65-.01-9.95-4.48-11.05-6.4-1.11-1.92-3.32-7 0-12.76l12.32-21.33c3.92-6.79 1.58-15.52-5.21-19.44l-61.59-35.57c-4.64-2.68-10.4-2.68-15.04 0-4.64 2.68-7.52 7.67-7.52 13.03v228.38c-5.25.29-10.52.44-15.81.44s-10.55-.15-15.79-.44ZM176.61 308.45c2.72-2.57 5.09-5.57 7.05-8.95l6.33-10.96 34.48 19.92-34.49 19.9-6.33-10.96c-1.95-3.38-4.32-6.38-7.04-8.95Zm263.75.05c-2.72 2.57-5.09 5.57-7.04 8.95l-6.33 10.96-34.48-19.92L427 288.58l6.33 10.96c1.95 3.38 4.33 6.38 7.04 8.95Zm67.7 199.56c-25.93 25.93-56.11 46.28-89.72 60.5-21.84 9.24-44.54 15.62-67.84 19.09V381.27l34.47 19.91-6.33 10.96c-7.05 12.2-7.05 26.77 0 38.97 7.04 12.2 19.66 19.49 33.75 19.49h109.33v.01c8.43 0 16.32-2.61 22.82-7.31-10.54 16.04-22.71 31.01-36.48 44.78Zm60.5-89.72c-2.48 5.87-5.17 11.64-8.02 17.3.84-8-.84-16.17-5.07-23.49l-54.66-94.69c-1.95-3.38-4.33-6.38-7.04-8.95 2.72-2.57 5.09-5.57 7.05-8.95l54.67-94.68c4.23-7.33 5.92-15.51 5.07-23.52 2.85 5.65 5.53 11.4 8.01 17.26 14.72 34.79 22.18 71.75 22.18 109.87s-7.46 75.08-22.18 109.87Z"></path></svg>