<svg xmlns="http://www.w3.org/2000/svg" width="615" viewBox="0 0 615 586" height="586" xml:space="preserve" style="enable-background:new 0 0 615 586"><path d="M307.5 266.3c-14.4 0-32.7-8.2-38.7-27.8L236.5 45.3c-1.3-6.1-6.7-11.8-13.8-11.9-9.7-.1-13.8 5.3-15.1 11.9l-36.4 148.2c-8.2 43.5-21 54-42.4 65.4C96.4 276.2 49.3 272.2.2 272.2V137.7C-1.6 60 16.5 15.6 90.8 8.8 171.8 1.5 241.9 0 307.5 0c65.7 0 135.7 1.5 216.7 8.8 74.2 6.7 92.5 51.2 90.7 128.9v134.4c-49.1 0-96.1 4.1-128.6-13.3-21.5-11.4-34.2-21.9-42.5-65.4L407.5 45.3c-1.4-6.6-5.5-12-15.2-11.9-7.1.1-12.4 5.8-13.7 11.9l-32.4 193.1c-5.9 19.6-24.1 27.9-38.7 27.9M307.5 319.7c-14.4 0-32.7 8.3-38.7 27.9l-32.4 193.2c-1.3 6.1-6.7 11.8-13.8 11.9-9.7 0-13.8-5.3-15.1-11.9l-36.4-148.2c-8.2-43.4-21-53.9-42.4-65.3C96.4 310 49.2 314 .1 314v134.3C-1.6 526 16.5 570.4 90.8 577.2c81 7.4 153.6 8.8 216.7 8.8 63 0 135.7-1.4 216.7-8.8 74.2-6.8 92.5-51.2 90.7-128.9V314c-49.1 0-96.1-4-128.6 13.2-21.5 11.4-34.2 21.9-42.5 65.3l-36.4 148.2c-1.4 6.5-5.5 11.9-15.2 11.9-7.1 0-12.4-5.8-13.7-11.9l-32.4-193.2c-5.8-19.5-24-27.8-38.6-27.8"></path></svg>