<svg data-name="Layer 1" xmlns="http://www.w3.org/2000/svg" viewBox="0 0 525.09 609.28"><path d="M484.48 512.58V303.65c.02-23.95 17.63-43.51 40.61-48.85l-.66-6.32c-3.08-29.69-9.19-58.69-16.81-87.51-5.24-19.78-12.21-39.08-19.61-58.15-5.81-14.97-12.27-28.14-12.27-28.14-13.84 3.75-27.56 8.49-40.56 14.58l-.08-.17-.16.08c-.08.03-8.89-17.42-9.73-19-8.11-15.32-17.37-30.15-27.11-44.48-.6-.89-6.87-10.42-7.16-10.28-12.7 6.51-25.17 13.69-37.13 21.7l-.15.11c-8.44-11.52-17.51-22.72-26.93-33.4-11.62 8.24-23.21 17.18-33.78 26.38l-.15.14c-9.69-10.76-19.73-20.8-30.23-30.33-10.5 9.54-20.53 19.57-30.23 30.33l-.15-.14c-10.57-9.2-22.16-18.14-33.78-26.38-9.42 10.67-18.49 21.88-26.93 33.4l-.15-.11c-11.96-8.01-24.43-15.19-37.13-21.7-.29-.15-6.56 9.39-7.16 10.28-9.74 14.33-19 29.16-27.11 44.48-.84 1.58-9.65 19.03-9.73 19l-.16-.08-.08.17c-13-6.09-26.72-10.83-40.56-14.58 0 0-6.46 13.18-12.27 28.14-7.4 19.08-14.38 38.37-19.61 58.15C9.84 189.79 3.74 218.79.66 248.48L0 254.8c22.98 5.35 40.59 24.91 40.61 48.85v208.93c5.04 5.59 10.33 10.95 15.77 16.14-.5-99.57-1.67-258.18 3.92-285.57 14.64 16.65 22.99 37.95 23.13 60.45v248.13c5.14 3.86 10.45 7.51 15.85 11.03-.73-112.84-2.71-297.18 5.96-330.76 13.42 21.27 20.86 45.98 21.02 71.29v275.15c5.15 2.65 10.38 5.15 15.7 7.5V303.27c.06-26.53 2.83-52.92 8.17-78.73 12.24 24.39 18.82 51.24 18.95 78.76v293.08c5.17 1.7 10.4 3.29 15.7 4.71V303.28c.07-28.26 3.57-56.19 10.31-83.33 10.87 26.34 16.7 54.76 16.81 83.34v303.73c5.19.89 10.42 1.65 15.7 2.26v-306c.08-29.17 4.32-57.83 12.47-85.52 9.58 27.46 14.55 56.12 14.65 85.52v212.38h15.7V303.28c.1-29.4 5.07-58.06 14.65-85.52 8.15 27.69 12.39 56.35 12.47 85.52v306c5.28-.62 10.51-1.37 15.7-2.26V303.29c.11-28.58 5.94-57 16.81-83.34 6.74 27.14 10.24 55.07 10.31 83.33v297.81c5.3-1.42 10.52-3.01 15.7-4.71V303.3c.13-27.52 6.7-54.37 18.95-78.76 5.34 25.81 8.11 52.2 8.17 78.73v282.69c5.32-2.35 10.55-4.86 15.7-7.5V303.3c.16-25.31 7.6-50.02 21.02-71.29 8.67 33.58 6.69 217.91 5.96 330.76 5.39-3.53 10.7-7.17 15.85-11.03V303.61c.13-22.49 8.49-43.8 23.13-60.45 5.59 27.39 4.41 186 3.92 285.57 5.44-5.2 10.73-10.55 15.77-16.14Zm23.68-268.47c-10.12 4.41-18.77 11.2-25.36 19.57-.93-11.2-2.24-22.4-3.92-33.54 7.57-5.9 16.28-10.34 25.36-13.41 1.56 9.15 2.87 18.31 3.92 27.38ZM467.09 93.57c3.69 8.3 7.16 16.7 10.38 25.1-8.61 2.7-17.05 5.95-25.25 9.78l-.07-.2-.09.05c-3.23-8.33-6.66-16.62-10.35-24.84 8.24-3.81 16.73-7.12 25.37-9.88Zm-46.03 2.73c-7.89 4.45-15.67 9.14-23.07 14.38l-.09-.2-.09.07c-3.93-8.12-8.03-16.19-12.4-24.07 3.55-2.47 7.18-4.82 10.87-7.1 4-2.49 8.11-4.84 12.26-7.07 4.43 7.95 8.62 15.97 12.51 23.99Zm-35.05-60.5c5.07 7.45 9.97 15.11 14.65 22.88-7.89 4.35-15.6 9.03-23.06 14.08l-.07-.12-.07.05C372.82 65 367.97 57.41 362.9 50c7.51-5.08 15.25-9.84 23.12-14.2Zm-.97 84.71c-7.21 6.03-14.18 12.34-20.76 19.06l-.14-.35-.14.16c-3.83-8.66-7.99-17.12-12.32-25.51 6.63-6.35 13.55-12.38 20.85-18 4.53 8.02 8.69 16.26 12.51 24.63Zm-20.38-38.42c-7.12 5.58-14.16 11.33-20.77 17.49l-.1-.19-.11.11c-4.52-7.76-9.47-15.41-14.46-22.94 3.75-3.36 7.45-6.81 11.41-9.95 3.09-2.52 6.3-4.87 9.48-7.27 5.18 7.36 10.03 14.97 14.55 22.75Zm-32.45 29.01c-2.54 2.8-5.12 5.54-7.61 8.41-3.86 4.29-7.45 8.81-11.07 13.32l-.15-.31-.17.24c-4.54-8.38-9.4-16.6-14.47-24.69 5.97-7.15 12.23-14.07 18.84-20.64 5.19 7.74 10.04 15.62 14.62 23.67Zm-7.96-86.06c5.79 6.91 11.4 14.04 16.76 21.3-7.16 5.46-14.18 11.13-20.9 17.11l-.08-.11-.08.07c-5.35-7.24-10.91-14.37-16.71-21.27 6.7-5.9 13.72-11.62 21-17.1ZM308.4 74.41c-6.42 6.46-12.75 13.04-18.67 19.96l-.1-.16-.11.13c-5.24-7.47-10.91-14.69-16.63-21.81 2.62-2.99 5.33-5.92 8.05-8.8 3.46-3.72 7.06-7.32 10.69-10.82 5.93 6.89 11.54 14.08 16.78 21.49Zm-29.12 32.77c-2.26 3.06-4.57 6.08-6.78 9.18-3.43 4.66-6.59 9.52-9.8 14.34l-.16-.28-.16.28c-3.2-4.82-6.36-9.68-9.8-14.34-2.21-3.1-4.52-6.12-6.78-9.18 5.28-7.69 10.84-15.21 16.74-22.46 5.9 7.25 11.46 14.77 16.74 22.46Zm-16.74-85.67c6.42 6.18 12.72 12.69 18.84 19.45-6.44 6.29-12.74 12.74-18.76 19.46l-.07-.09-.07.09c-6.03-6.72-12.32-13.18-18.76-19.46 6.12-6.76 12.42-13.26 18.84-19.45Zm-29.08 31.41c3.63 3.5 7.23 7.1 10.69 10.82 2.72 2.88 5.43 5.81 8.05 8.8-5.73 7.12-11.39 14.34-16.63 21.81l-.11-.13-.1.16c-5.92-6.91-12.25-13.5-18.67-19.96 5.24-7.41 10.85-14.6 16.78-21.49Zm-7.12 55.16c-5.07 8.08-9.93 16.3-14.47 24.69l-.17-.24-.15.31c-3.62-4.52-7.2-9.04-11.07-13.32-2.49-2.87-5.07-5.61-7.61-8.41 4.58-8.05 9.43-15.94 14.62-23.67 6.61 6.57 12.87 13.5 18.84 20.64Zm-25.5-83.03c7.28 5.48 14.31 11.21 21 17.1-5.8 6.9-11.36 14.03-16.71 21.27l-.08-.07-.08.11c-6.72-5.98-13.75-11.65-20.9-17.11 5.36-7.26 10.97-14.39 16.76-21.3Zm-25.86 34.31c3.18 2.4 6.39 4.75 9.48 7.27 3.96 3.14 7.66 6.59 11.41 9.95-4.99 7.52-9.94 15.17-14.46 22.94l-.11-.11-.1.19c-6.6-6.15-13.65-11.91-20.77-17.49 4.52-7.78 9.37-15.39 14.55-22.75Zm-1.57 54.53c-4.33 8.39-8.49 16.84-12.32 25.51l-.14-.16-.14.35c-6.58-6.72-13.55-13.03-20.76-19.06 3.82-8.37 7.99-16.62 12.51-24.63 7.29 5.62 14.22 11.65 20.85 18Zm-34.33-78.08c7.87 4.37 15.6 9.12 23.12 14.2-5.07 7.4-9.93 15-14.56 22.69l-.07-.05-.07.12c-7.46-5.04-15.17-9.72-23.06-14.08 4.67-7.78 9.58-15.43 14.65-22.88Zm-22.54 36.51c4.15 2.24 8.26 4.58 12.26 7.07 3.69 2.28 7.32 4.63 10.87 7.1-4.37 7.88-8.47 15.96-12.4 24.07l-.09-.07-.09.2c-7.4-5.24-15.17-9.93-23.07-14.38 3.9-8.02 8.08-16.05 12.51-23.99ZM58 93.59c8.65 2.77 17.14 6.07 25.37 9.88-3.69 8.23-7.11 16.51-10.35 24.84l-.09-.05-.07.2c-8.2-3.83-16.63-7.08-25.25-9.78 3.22-8.4 6.69-16.8 10.38-25.1Zm-15.7 170.1c-6.59-8.37-15.24-15.16-25.36-19.57 1.05-9.07 2.36-18.24 3.92-27.38 9.08 3.07 17.79 7.51 25.36 13.41-1.68 11.14-2.99 22.34-3.92 33.54Zm6.83-50.76c-6.25-3.88-12.82-7.23-19.7-9.85-1.87-.71-3.78-1.34-5.66-2.01 1.79-8.86 3.82-17.74 6.08-26.52 8.78 2.58 17.32 6.09 25.31 10.56-2.27 9.14-4.21 18.52-6.03 27.81Zm10.3-43.81-.11-.06-.1.37c-8.08-4.15-16.59-7.3-25.22-10.09 2.53-8.75 5.28-17.39 8.21-25.82 4.55 1.35 9.06 2.86 13.48 4.65 3.99 1.59 7.96 3.31 11.84 5.21-2.94 8.5-5.6 17.11-8.11 25.74Zm26.91 83.96c-5.87-10.95-13.64-20.92-23.09-29.42 1.67-10.04 3.62-19.94 6.08-29.77 8.41 6.11 16.31 12.97 23.05 20.91-2.56 12.66-4.57 25.43-6.04 38.27Zm10.21-56.83c-4.51-4.03-8.9-8.21-13.78-11.81-3.03-2.36-6.22-4.52-9.33-6.78 2.4-8.99 5.13-17.95 8.24-26.74 8.15 4.8 15.84 10.37 23.1 16.41-3 9.57-5.75 19.22-8.23 28.91Zm-.29-54.67c-3.02-1.99-6.12-3.83-9.2-5.72 3.1-8.47 6.6-16.91 10.41-25.19 8.01 4.37 15.69 9.33 23.06 14.71-3.67 8.45-7.01 17.07-10.22 25.71l-.13-.12-.12.37c-4.45-3.46-9.03-6.75-13.8-9.75Zm34.1 104.65c-5.3-12.75-12.35-24.79-21-35.73 2.37-10.59 5.08-21.06 8.22-31.5 7.1 7.25 13.55 15.12 19.37 23.43.53.75 1.06 1.5 1.58 2.26-3.44 13.68-6.16 27.55-8.16 41.54Zm13.58-60.94c-3.99-4.77-7.9-9.63-12.23-14.11-2.81-3-5.78-5.83-8.66-8.75 3.08-9.11 6.52-18.16 10.4-26.98 7.39 6.25 14.33 13.06 20.86 20.22-3.75 9.77-7.22 19.65-10.36 29.61Zm30.48 56.39c-4.74-13.87-11.06-27.21-18.9-39.79 3-10.96 6.45-21.78 10.36-32.49 6.38 8.38 12.23 17.17 17.41 26.34.48.84.97 1.67 1.43 2.52-4.33 14.25-7.76 28.74-10.3 43.42Zm16.94-63.2c-5.81-8.95-12.1-17.58-18.83-25.87 3.84-9.11 7.99-18.17 12.46-26.94 6.69 7.3 12.96 15.08 18.84 23.09-.5 1.05-.93 2.13-1.42 3.18-4.05 8.69-7.61 17.6-11.05 26.54Zm27.1 60.72c-4.19-14.67-9.8-28.94-16.74-42.53 3.63-11.1 7.8-22.03 12.46-32.75 6.23 10 11.82 20.38 16.75 31.07-5.22 14.47-9.38 29.23-12.46 44.21Zm20.35-63.94c-3.13-5.64-6.19-11.32-9.61-16.8-2.31-3.78-4.77-7.45-7.14-11.18 4.52-8.9 9.37-17.64 14.63-26.15 5.98 8.03 11.55 16.41 16.74 24.97-5.26 9.53-10.14 19.26-14.62 29.17Zm23.74 63.01c-3.63-14.91-8.51-29.53-14.62-43.8 4.28-11.01 9.16-21.79 14.62-32.29 5.46 10.5 10.35 21.28 14.62 32.29-6.12 14.27-11 28.89-14.62 43.8Zm9.12-92.17c5.2-8.56 10.76-16.94 16.74-24.97 5.26 8.51 10.11 17.25 14.63 26.15-2.38 3.73-4.84 7.41-7.14 11.18-3.41 5.48-6.47 11.16-9.61 16.8-4.48-9.91-9.36-19.64-14.62-29.17Zm34.97 93.1c-3.08-14.99-7.24-29.75-12.46-44.21 4.93-10.69 10.52-21.08 16.75-31.07 4.66 10.72 8.83 21.65 12.46 32.75-6.95 13.59-12.55 27.86-16.74 42.53Zm27.1-60.72c-3.44-8.94-6.99-17.85-11.05-26.54-.49-1.06-.92-2.13-1.42-3.18 5.87-8 12.15-15.79 18.84-23.09 4.47 8.77 8.62 17.83 12.46 26.94-6.73 8.29-13.02 16.91-18.83 25.87Zm16.94 63.2c-2.54-14.67-5.98-29.16-10.3-43.42.46-.85.96-1.68 1.43-2.52 5.18-9.17 11.03-17.95 17.41-26.34 3.91 10.71 7.36 21.53 10.36 32.49-7.84 12.58-14.16 25.92-18.9 39.79Zm30.48-56.39c-3.15-9.97-6.61-19.84-10.36-29.61 6.53-7.15 13.47-13.97 20.86-20.22 3.87 8.82 7.31 17.87 10.4 26.98-2.88 2.92-5.86 5.75-8.66 8.75-4.33 4.48-8.23 9.34-12.23 14.11Zm13.58 60.94c-2-13.99-4.72-27.86-8.16-41.54.51-.76 1.05-1.51 1.58-2.26 5.83-8.31 12.27-16.18 19.37-23.43 3.14 10.44 5.85 20.91 8.22 31.5-8.65 10.94-15.7 22.97-21 35.73Zm20.3-94.9-.12-.37-.13.12c-3.2-8.64-6.55-17.26-10.22-25.71 7.37-5.37 15.06-10.34 23.06-14.71 3.81 8.27 7.31 16.72 10.41 25.19-3.08 1.89-6.18 3.73-9.2 5.72-4.77 3.01-9.35 6.3-13.8 9.75Zm5.29 16c7.27-6.04 14.96-11.62 23.1-16.41 3.1 8.79 5.84 17.75 8.24 26.74-3.11 2.26-6.3 4.41-9.33 6.78-4.88 3.6-9.27 7.78-13.78 11.81-2.48-9.7-5.23-19.34-8.23-28.91Zm18.43 85.74c-1.46-12.84-3.48-25.62-6.04-38.27 6.74-7.94 14.64-14.8 23.05-20.91 2.46 9.83 4.42 19.73 6.08 29.77-9.45 8.5-17.23 18.47-23.09 29.42Zm27.11-83.65-.1-.37-.11.06c-2.51-8.63-5.17-17.24-8.11-25.74 3.87-1.9 7.85-3.63 11.84-5.21 4.42-1.79 8.93-3.3 13.48-4.65 2.93 8.44 5.68 17.08 8.21 25.82-8.63 2.78-17.14 5.94-25.22 10.09Zm29.38 5.13c2.26 8.78 4.29 17.65 6.08 26.52-1.89.67-3.79 1.3-5.66 2.01-6.88 2.62-13.45 5.97-19.7 9.85-1.82-9.29-3.76-18.67-6.03-27.81 7.99-4.48 16.53-7.99 25.31-10.56Z"></path></svg>