<svg data-name="Layer 1" xmlns="http://www.w3.org/2000/svg" viewBox="0 0 606.53 431.43"><path d="M27.87 0C12.48 0 0 12.49 0 27.89s12.48 27.88 27.87 27.88 27.88-12.49 27.88-27.88S43.28 0 27.87 0ZM119.67 0C104.28 0 91.8 12.49 91.8 27.89s12.48 27.88 27.87 27.88 27.88-12.49 27.88-27.88S135.07 0 119.67 0ZM211.46 0c-15.39 0-27.87 12.49-27.87 27.89s12.48 27.88 27.87 27.88 27.88-12.49 27.88-27.88S226.87 0 211.46 0ZM303.26 0c-15.39 0-27.87 12.49-27.87 27.89s12.48 27.88 27.87 27.88 27.88-12.49 27.88-27.88S318.66 0 303.26 0ZM395.05 0c-15.39 0-27.87 12.49-27.87 27.89s12.48 27.88 27.87 27.88 27.88-12.49 27.88-27.88S410.46 0 395.05 0ZM27.87 93.91C12.48 93.91 0 106.4 0 121.79s12.48 27.88 27.87 27.88 27.88-12.49 27.88-27.88-12.48-27.88-27.88-27.88ZM119.67 93.91c-15.39 0-27.87 12.49-27.87 27.88s12.48 27.88 27.87 27.88 27.88-12.49 27.88-27.88-12.48-27.88-27.88-27.88ZM211.46 93.91c-15.39 0-27.87 12.49-27.87 27.88s12.48 27.88 27.87 27.88 27.88-12.49 27.88-27.88-12.48-27.88-27.88-27.88ZM303.26 93.91c-15.39 0-27.87 12.49-27.87 27.88s12.48 27.88 27.87 27.88 27.88-12.49 27.88-27.88-12.48-27.88-27.88-27.88ZM395.05 93.91c-15.39 0-27.87 12.49-27.87 27.88s12.48 27.88 27.87 27.88 27.88-12.49 27.88-27.88-12.48-27.88-27.88-27.88ZM578.64 93.91c-15.39 0-27.87 12.49-27.87 27.88s12.48 27.88 27.87 27.88 27.88-12.49 27.88-27.88-12.48-27.88-27.88-27.88ZM27.87 187.83C12.48 187.83 0 200.32 0 215.72s12.48 27.88 27.87 27.88 27.88-12.49 27.88-27.88-12.48-27.89-27.88-27.89ZM119.67 187.83c-15.39 0-27.87 12.49-27.87 27.89s12.48 27.88 27.87 27.88 27.88-12.49 27.88-27.88-12.48-27.89-27.88-27.89ZM211.46 187.83c-15.39 0-27.87 12.49-27.87 27.89s12.48 27.88 27.87 27.88 27.88-12.49 27.88-27.88-12.48-27.89-27.88-27.89ZM303.26 187.83c-15.39 0-27.87 12.49-27.87 27.89s12.48 27.88 27.87 27.88 27.88-12.49 27.88-27.88-12.48-27.89-27.88-27.89ZM395.05 187.83c-15.39 0-27.87 12.49-27.87 27.89s12.48 27.88 27.87 27.88 27.88-12.49 27.88-27.88-12.48-27.89-27.88-27.89ZM27.87 281.74C12.48 281.74 0 294.23 0 309.63s12.48 27.88 27.87 27.88 27.88-12.49 27.88-27.88-12.48-27.89-27.88-27.89ZM119.67 281.74c-15.39 0-27.87 12.49-27.87 27.89s12.48 27.88 27.87 27.88 27.88-12.49 27.88-27.88-12.48-27.89-27.88-27.89ZM211.46 281.74c-15.39 0-27.87 12.49-27.87 27.89s12.48 27.88 27.87 27.88 27.88-12.49 27.88-27.88-12.48-27.89-27.88-27.89ZM395.05 281.74c-15.39 0-27.87 12.49-27.87 27.89s12.48 27.88 27.87 27.88 27.88-12.49 27.88-27.88-12.48-27.89-27.88-27.89ZM27.87 375.66C12.48 375.66 0 388.15 0 403.55s12.48 27.88 27.87 27.88 27.88-12.49 27.88-27.88-12.48-27.89-27.88-27.89ZM119.67 375.66c-15.39 0-27.87 12.49-27.87 27.89s12.48 27.88 27.87 27.88 27.88-12.49 27.88-27.88-12.48-27.89-27.88-27.89ZM211.46 375.66c-15.39 0-27.87 12.49-27.87 27.89s12.48 27.88 27.87 27.88 27.88-12.49 27.88-27.88-12.48-27.89-27.88-27.89ZM303.26 375.66c-15.39 0-27.87 12.49-27.87 27.89s12.48 27.88 27.87 27.88 27.88-12.49 27.88-27.88-12.48-27.89-27.88-27.89ZM395.05 375.66c-15.39 0-27.87 12.49-27.87 27.89s12.48 27.88 27.87 27.88 27.88-12.49 27.88-27.88-12.48-27.89-27.88-27.89Z"></path></svg>