<svg xmlns="http://www.w3.org/2000/svg" width="597.5" viewBox="0 0 597.5 618.4" height="618.4" xml:space="preserve" style="enable-background:new 0 0 597.5 618.4"><path d="M449.8 309.2h147.8V96.4c0-53.2-43.2-96.4-96.4-96.4H379.1v118.9c0 44.4-36 80.3-80.3 80.3s-80.3-36-80.3-80.3V0H96.4C43.2 0 0 43.2 0 96.4v212.8h147.8c31.9 0 57.8 25.9 57.8 57.8v5.6c0 31.9-25.9 57.8-57.8 57.8H0V522c0 53.2 43.2 96.4 96.4 96.4h404.8c53.2 0 96.4-43.2 96.4-96.4v-91.6H449.8c-31.9 0-57.8-25.9-57.8-57.8V367c-.1-31.9 25.8-57.8 57.8-57.8z"></path></svg>