<svg data-name="Layer 1" xmlns="http://www.w3.org/2000/svg" viewBox="0 0 620.06 620.08"><path d="M206.68 0h206.7v34.46h-206.7zM137.78 34.46h68.9V68.9h-68.9zM413.38 34.46h68.88V68.9h-68.88zM206.68 68.9h206.7v34.46h-206.7zM551.16 68.9v68.9h-34.44v-34.44h-34.46V68.9h68.9zM137.78 68.9v34.46h-34.44v34.44H68.88V68.9h68.9zM137.78 103.36h68.9v34.44h-68.9zM413.38 103.36h68.88v34.44h-68.88zM241.12 137.8h137.8v34.44h-137.8zM482.26 137.8h34.46v68.9h-34.46zM551.16 137.8h34.46v68.9h-34.46zM34.44 137.8h34.44v68.9H34.44zM103.34 137.8h34.44v68.9h-34.44zM241.12 172.24v34.46h-34.44v34.44h-34.44v-68.9h68.88zM447.82 172.24v68.9h-34.44V206.7h-34.46v-34.46h68.9zM68.88 206.7h34.46v206.68H68.88zM241.12 206.7h137.8v34.44h-137.8z"></path><path d="M516.72 206.7h34.44v206.68h-34.44zM206.68 241.14h34.44v137.8h-34.44zM447.82 241.14h34.44v137.8h-34.44zM137.78 241.14h34.46v137.8h-34.46zM378.92 241.14h34.46v137.8h-34.46zM0 206.7h34.44v206.68H0z"></path><path d="M241.12 413.38v34.46h-68.88v-68.9h34.44v34.44h34.44zM241.12 378.94h137.8v34.44h-137.8zM447.82 378.94v68.9h-68.9v-34.46h34.46v-34.44h34.44zM585.62 206.7h34.44v206.68h-34.44zM34.44 413.38h34.44v68.9H34.44zM482.26 413.38h34.46v68.9h-34.46zM551.16 413.38h34.46v68.9h-34.46zM103.34 413.38h34.44v68.9h-34.44z"></path><path d="M241.12 447.84h137.8v34.44h-137.8zM137.78 516.73v34.45h-68.9v-68.9h34.46v34.45h34.44zM137.78 482.28h68.9v34.46h-68.9zM413.38 482.28h68.88v34.46h-68.88zM551.16 482.28v68.9h-68.9v-34.45h34.46v-34.45h34.44zM206.68 516.73h206.7v34.44h-206.7zM137.78 551.18h68.9v34.46h-68.9zM413.38 551.18h68.88v34.46h-68.88zM206.68 585.63h206.7v34.44h-206.7z"></path></svg>