<svg data-name="Layer 1" xmlns="http://www.w3.org/2000/svg" viewBox="0 0 615.43 613.4"><path d="M307.71 0C137.77 0 0 137.77 0 307.71c0 17.99 1.63 35.58 4.59 52.72 72.04-45.22 303.12-190.26 303.12-190.26l303.12 190.26c2.96-17.14 4.59-34.74 4.59-52.72C615.43 137.77 477.66 0 307.71 0Zm0 123.22L40.29 291.07C48.91 151.05 165.56 39.78 307.71 39.78s258.8 111.27 267.43 251.29L307.71 123.22Z"></path><path d="M27.68 435.24c44.04 96.55 136.53 166.19 246.39 178.16V418.65h67.28V613.4c109.85-11.98 202.35-81.61 246.39-178.16L307.71 259.48S118.47 378.25 27.68 435.24ZM381.13 565.2V378.88H234.3V565.2c-63.59-18.2-118.85-59.68-154.04-116l227.45-142.75 227.46 142.76c-35.19 56.3-90.45 97.79-154.04 115.99Z"></path></svg>