<svg data-name="Layer 1" xmlns="http://www.w3.org/2000/svg" viewBox="0 0 613.23 613.23"><path d="M404.48 40.54c-54.05-54.05-141.73-54.05-195.78 0l-103.3 103.3c-7.88 7.88-13.22 17.97-14.88 28.98-6.85 45.48 7.15 93.56 42.15 128.51l173.94-173.95c38.43-38.43 91.94-52.77 141.63-43.13l-43.72-43.72h-.05ZM480.55 311.9 306.61 485.84c-38.43 38.43-91.94 52.77-141.63 43.13l43.72 43.72c54.05 54.05 141.73 54.05 195.78 0l103.3-103.3c7.88-7.88 13.22-17.97 14.88-28.98 6.85-45.48-7.15-93.56-42.15-128.51h.05Z"></path><path d="m572.69 208.75-103.3-103.3c-7.88-7.88-17.97-13.22-28.98-14.88-45.48-6.85-93.56 7.15-128.51 42.15l173.94 173.94c38.43 38.43 52.77 91.94 43.13 141.63l43.72-43.72c54.05-54.05 54.05-141.73 0-195.78v-.05Zm-226.32-57.47-10.04-10.04c-1.22-1.22-1.22-3.23 0-4.46l16.6-16.6c1.22-1.22 3.23-1.22 4.46 0l10.04 10.04c1.22 1.22 1.22 3.23 0 4.46l-16.6 16.6c-1.22 1.22-3.23 1.22-4.46 0Zm29.03 29.03-9.99-9.99c-1.22-1.22-1.22-3.23 0-4.5l16.55-16.55c1.22-1.22 3.23-1.22 4.5 0l9.99 9.99c1.22 1.22 1.22 3.23 0 4.5l-16.55 16.55c-1.22 1.22-3.23 1.22-4.5 0Zm29.03 29.03-9.99-9.99c-1.22-1.22-1.22-3.23 0-4.5l16.55-16.55c1.22-1.22 3.23-1.22 4.5 0l9.99 9.99c1.22 1.22 1.22 3.23 0 4.5l-16.55 16.55c-1.22 1.22-3.23 1.22-4.5 0Zm29.03 29.03-9.99-9.99c-1.22-1.22-1.22-3.23 0-4.5l16.55-16.55c1.22-1.22 3.23-1.22 4.5 0l9.99 9.99c1.22 1.22 1.22 3.23 0 4.5l-16.55 16.55c-1.22 1.22-3.23 1.22-4.5 0Zm29.03 29.03-9.99-9.99c-1.22-1.22-1.22-3.23 0-4.5l16.55-16.55c1.22-1.22 3.23-1.22 4.5 0l9.99 9.99c1.22 1.22 1.22 3.23 0 4.5l-16.55 16.55c-1.22 1.22-3.23 1.22-4.5 0Zm50.03 12.53-16.5 16.5c-1.27 1.27-3.28 1.27-4.55 0l-9.89-9.89c-1.27-1.27-1.27-3.28 0-4.55l16.5-16.5c1.27-1.27 3.28-1.27 4.55 0l9.89 9.89c1.27 1.27 1.27 3.28 0 4.55ZM127.38 306.61c-38.43-38.43-52.77-91.94-43.13-141.63L40.53 208.7c-54.05 54.05-54.05 141.73 0 195.78l103.3 103.3c7.88 7.88 17.97 13.22 28.98 14.88 45.48 6.85 93.56-7.15 128.51-42.15L127.38 306.56v.05Zm-16.84 41.17-9.89-9.89c-1.27-1.27-1.27-3.33 0-4.55l16.45-16.45c1.27-1.27 3.33-1.27 4.55 0l9.89 9.89c1.27 1.27 1.27 3.33 0 4.55l-16.45 16.45c-1.27 1.27-3.33 1.27-4.55 0Zm33.58 29.03c-1.27 1.27-3.28 1.27-4.55 0l-9.89-9.89c-1.27-1.27-1.27-3.28 0-4.55l16.45-16.45c1.27-1.27 3.28-1.27 4.55 0l9.89 9.89c1.27 1.27 1.27 3.28 0 4.55l-16.45 16.45Zm24.48 29.03-9.89-9.89c-1.27-1.27-1.27-3.28 0-4.55l16.45-16.45c1.27-1.27 3.28-1.27 4.55 0l9.89 9.89c1.27 1.27 1.27 3.28 0 4.55l-16.45 16.45c-1.27 1.27-3.28 1.27-4.55 0Zm29.08 29.08-9.99-9.99c-1.22-1.22-1.22-3.23 0-4.46l16.55-16.55c1.22-1.22 3.23-1.22 4.46 0l9.99 9.99c1.22 1.22 1.22 3.23 0 4.46l-16.55 16.55c-1.22 1.22-3.23 1.22-4.46 0Zm29.03 29.03-9.99-9.99c-1.22-1.22-1.22-3.23 0-4.5l16.55-16.55c1.22-1.22 3.23-1.22 4.5 0l9.99 9.99c1.22 1.22 1.22 3.23 0 4.5l-16.55 16.55c-1.22 1.22-3.23 1.22-4.5 0Zm33.54 29.03c-1.22 1.22-3.23 1.22-4.46 0l-9.99-9.99c-1.22-1.22-1.22-3.23 0-4.46l16.55-16.55c1.22-1.22 3.23-1.22 4.46 0l9.99 9.99c1.22 1.22 1.22 3.23 0 4.46l-16.55 16.55Z"></path><circle cx="309.18" cy="309.18" r="102.66"></circle></svg>