<svg xmlns="http://www.w3.org/2000/svg" width="618.7" viewBox="0 0 618.7 558.1" height="558.1" style="enable-background:new 0 0 618.7 558.1" xml:space="preserve"><path d="m309.3 342.3 219.1 126.5 38.7-22.3v-44.6L348 275.3v-253L309.3 0l-38.7 22.3v253L51.5 401.8v44.6l38.7 22.3 219.1-126.4zm0 119.1 167.6 96.7 38.7-67-206.3-119-206.2 119 38.7 67 167.5-96.7zm141.8-245.6V22.3h-77.3v238.1L580 379.5l38.7-67-167.6-96.7zm-206.2 44.7V22.4h-77.3v193.5L0 312.5l38.7 67 206.2-119z" style="fill-rule:evenodd;clip-rule:evenodd"></path></svg>