<svg xmlns="http://www.w3.org/2000/svg" width="617" viewBox="0 0 617 617" height="617" xml:space="preserve"><path d="M437.3 246.6h-76.9v123.7z"></path><path d="M437.4 28.2v133.2c0 25.4 7.4 46.1 15.1 60.8l52.6-84.7v171.2c0 40.6 24.5 66.2 24.5 66.2H360.4v53.4c0 52.3 31.5 85.2 31.5 85.2H179.6l58-96.6H68.8l196.7-314.8v141L409.4 16.9C377.8 6 343.8 0 308.5 0 138.1 0 0 138.1 0 308.5S138.1 617 308.5 617 617 478.9 617 308.5C617 184.1 543.4 77 437.4 28.2z"></path><path d="m265.3 371.3 74.6-124.7h-74.4z"></path></svg>