<svg width="610" viewBox="0 0 610 642" height="642" xmlns="http://www.w3.org/2000/svg"><path d="M243.125 0c48.022 0 90.009 31.586 103.748 77.04-19.068-18.361-51.553-4.943-51.553 21.956 0 36.145 58.037 43.913 93.026 29.147l82.304-34.925c44.362-18.939 97.713-14.509 139.25 15.665V642h-33.77c0-.321.065-.642.065-.963 0-8.924-5.008-16.05-11.235-16.05h-27.285c-6.227 0-11.235 7.126-11.235 16.05 0 .321.064.642.064.963H83.396c0-.321.064-.642.064-.963 0-8.924-5.008-16.05-11.235-16.05H44.94c-6.227 0-11.235 7.126-11.235 16.05 0 .321.064.642.064.963H0V108.626c42.757 2.761 83.524-12.454 113.89-41.409C145.453 35.74 198.552 0 243.126 0ZM564.96 542.875h-27.285c-6.227 0-11.235 7.126-11.235 16.05 0 8.86 5.008 16.05 11.235 16.05h27.285c6.227 0 11.235-7.19 11.235-16.05 0-8.924-5.008-16.05-11.235-16.05Zm-492.735 0H44.94c-6.227 0-11.235 7.126-11.235 16.05 0 8.86 5.008 16.05 11.235 16.05h27.285c6.227 0 11.235-7.19 11.235-16.05 0-8.924-5.008-16.05-11.235-16.05ZM564.96 460.7h-27.285c-6.227 0-11.235 7.126-11.235 16.05 0 8.86 5.008 16.05 11.235 16.05h27.285c6.227 0 11.235-7.19 11.235-16.05 0-8.924-5.008-16.05-11.235-16.05Zm-492.735 0H44.94c-6.227 0-11.235 7.126-11.235 16.05 0 8.86 5.008 16.05 11.235 16.05h27.285c6.227 0 11.235-7.19 11.235-16.05 0-8.924-5.008-16.05-11.235-16.05Zm492.735-82.112h-27.285c-6.227 0-11.235 7.127-11.235 16.05 0 8.86 5.008 16.05 11.235 16.05h27.285c6.227 0 11.235-7.19 11.235-16.05 0-8.923-5.008-16.05-11.235-16.05Zm-492.735 0H44.94c-6.227 0-11.235 7.127-11.235 16.05 0 8.86 5.008 16.05 11.235 16.05h27.285c6.227 0 11.235-7.19 11.235-16.05 0-8.923-5.008-16.05-11.235-16.05Zm492.735-82.176h-27.285c-6.227 0-11.235 7.127-11.235 16.05 0 8.86 5.008 16.05 11.235 16.05h27.285c6.227 0 11.235-7.19 11.235-16.05 0-8.923-5.008-16.05-11.235-16.05Zm-492.735 0H44.94c-6.227 0-11.235 7.127-11.235 16.05 0 8.86 5.008 16.05 11.235 16.05h27.285c6.227 0 11.235-7.19 11.235-16.05 0-8.923-5.008-16.05-11.235-16.05ZM564.96 214.3h-27.285c-6.227 0-11.235 7.126-11.235 16.05 0 8.86 5.008 16.05 11.235 16.05h27.285c6.227 0 11.235-7.19 11.235-16.05 0-8.924-5.008-16.05-11.235-16.05Zm-492.735 0H44.94c-6.227 0-11.235 7.126-11.235 16.05 0 8.86 5.008 16.05 11.235 16.05h27.285c6.227 0 11.235-7.19 11.235-16.05 0-8.924-5.008-16.05-11.235-16.05Zm492.735-82.176h-27.285c-6.227 0-11.235 7.126-11.235 16.05 0 8.86 5.008 16.05 11.235 16.05h27.285c6.227 0 11.235-7.19 11.235-16.05 0-8.924-5.008-16.05-11.235-16.05Zm-492.735 0H44.94c-6.227 0-11.235 7.126-11.235 16.05 0 8.86 5.008 16.05 11.235 16.05h27.285c6.227 0 11.235-7.19 11.235-16.05 0-8.924-5.008-16.05-11.235-16.05Z"></path></svg>