<svg data-name="Layer 1" xmlns="http://www.w3.org/2000/svg" viewBox="0 0 613.08 538.11"><path d="m407.96 187.08-.02-153.36S407.99-.21 375.91 0c-32.44.2-32.39 33.72-32.39 33.72l.11 153.37c0 19.98-16.19 36.18-36.17 36.18s-36.18-16.2-36.18-36.18l.09-153.37s.07-33.93-32-33.72C206.93.2 207 33.72 207 33.72v153.36c0 55.5 44.98 100.48 100.48 100.48s100.49-44.98 100.49-100.48Z"></path><path d="m150.88 282.38-132.8 76.69s-29.42 16.92-13.2 44.59c16.4 28 45.39 11.18 45.39 11.18l132.77-76.78c17.31-9.99 39.43-4.07 49.42 13.25 9.98 17.3 4.05 39.43-13.25 49.41L86.34 477.33s-29.41 16.9-13.2 44.59c16.41 27.99 45.39 11.17 45.39 11.17l132.82-76.68c48.06-27.76 64.53-89.21 36.78-137.26-27.74-48.06-89.21-64.53-137.26-36.78Z"></path><path d="m595.23 358.94-132.81-76.68c-48.06-27.74-109.52-11.28-137.26 36.78-27.75 48.06-11.28 109.52 36.78 137.27l132.82 76.65s29.36 17.01 45.22-10.87c16.04-28.21-13.02-44.9-13.02-44.9l-132.87-76.6c-17.3-9.98-23.23-32.11-13.23-49.41 9.98-17.31 32.11-23.23 49.41-13.25l132.78 76.76s29.36 17.02 45.22-10.86c16.03-28.21-13.02-44.91-13.02-44.91Z"></path></svg>