<svg data-name="Layer 1" xmlns="http://www.w3.org/2000/svg" viewBox="0 0 621.14 621.14"><path d="M256.54 236.36h-20.18v20.18c0 27.31 22.14 49.46 49.46 49.46H306v-20.18c0-27.32-22.14-49.46-49.46-49.46ZM315.14 285.82V306h20.18c27.32 0 49.46-22.14 49.46-49.46v-20.18H364.6c-27.32 0-49.46 22.14-49.46 49.46ZM335.32 315.14h-20.18v20.18c0 27.31 22.14 49.46 49.46 49.46h20.18V364.6c0-27.31-22.14-49.46-49.46-49.46ZM236.36 364.6v20.18h20.18c27.31 0 49.46-22.14 49.46-49.46v-20.18h-20.18c-27.31 0-49.46 22.14-49.46 49.46ZM177.75 236.36h-20.18v20.18c0 27.31 22.14 49.46 49.46 49.46h20.18v-20.18c0-27.32-22.14-49.46-49.46-49.46ZM157.57 364.6v20.18h20.18c27.31 0 49.46-22.14 49.46-49.46v-20.18h-20.18c-27.31 0-49.46 22.14-49.46 49.46ZM98.97 236.36H78.79v20.18c0 27.31 22.14 49.46 49.46 49.46h20.18v-20.18c0-27.32-22.14-49.46-49.46-49.46ZM78.79 364.6v20.18h20.18c27.32 0 49.46-22.14 49.46-49.46v-20.18h-20.18c-27.31 0-49.46 22.14-49.46 49.46ZM20.18 236.36H0v20.18C0 283.85 22.14 306 49.46 306h20.18v-20.18c0-27.32-22.14-49.46-49.46-49.46ZM0 364.6v20.18h20.18c27.31 0 49.46-22.14 49.46-49.46v-20.18H49.46C22.14 315.14 0 337.28 0 364.6ZM414.47 314.78h-20.18v20.18c0 27.31 22.14 49.46 49.46 49.46h20.18v-20.18c0-27.31-22.14-49.46-49.46-49.46ZM394.29 285.45v20.18h20.18c27.32 0 49.46-22.14 49.46-49.46v-20.18h-20.18c-27.31 0-49.46 22.14-49.46 49.46ZM493.26 314.78h-20.18v20.18c0 27.31 22.14 49.46 49.46 49.46h20.18v-20.18c0-27.31-22.14-49.46-49.46-49.46ZM542.35 256.54v-20.18h-20.18c-27.32 0-49.46 22.14-49.46 49.46V306h20.18c27.32 0 49.46-22.14 49.46-49.46ZM177.75 157.75h-20.18v20.18c0 27.31 22.14 49.46 49.46 49.46h20.18v-20.18c0-27.31-22.14-49.46-49.46-49.46ZM98.97 157.75H78.79v20.18c0 27.31 22.14 49.46 49.46 49.46h20.18v-20.18c0-27.31-22.14-49.46-49.46-49.46ZM394.29 206.85v20.18h20.18c27.32 0 49.46-22.14 49.46-49.46v-20.18h-20.18c-27.31 0-49.46 22.14-49.46 49.46ZM177.75 78.97h-20.18v20.18c0 27.31 22.14 49.46 49.46 49.46h20.18v-20.18c0-27.31-22.14-49.46-49.46-49.46ZM394.29 128.06v20.18h20.18c27.32 0 49.46-22.14 49.46-49.46V78.6h-20.18c-27.31 0-49.46 22.14-49.46 49.46ZM542.35 177.94v-20.18h-20.18c-27.32 0-49.46 22.14-49.46 49.46v20.18h20.18c27.32 0 49.46-22.14 49.46-49.46ZM157.57 443.75v20.18h20.18c27.31 0 49.46-22.14 49.46-49.46v-20.18h-20.18c-27.32 0-49.46 22.14-49.46 49.46ZM157.57 522.54v20.18h20.18c27.31 0 49.46-22.14 49.46-49.46v-20.18h-20.18c-27.31 0-49.46 22.14-49.46 49.46ZM78.79 443.75v20.18h20.18c27.32 0 49.46-22.14 49.46-49.46v-20.18h-20.18c-27.31 0-49.46 22.14-49.46 49.46ZM414.47 472.71h-20.18v20.18c0 27.32 22.14 49.46 49.46 49.46h20.18v-20.18c0-27.31-22.14-49.46-49.46-49.46ZM414.47 393.93h-20.18v20.18c0 27.31 22.14 49.46 49.46 49.46h20.18v-20.18c0-27.31-22.14-49.46-49.46-49.46ZM492.9 394.29h-20.18v20.18c0 27.31 22.14 49.46 49.46 49.46h20.18v-20.18c0-27.31-22.14-49.46-49.46-49.46ZM571.68 315.14H551.5v20.18c0 27.31 22.14 49.46 49.46 49.46h20.18V364.6c0-27.31-22.14-49.46-49.46-49.46ZM600.96 236.36c-27.31 0-49.46 22.14-49.46 49.46V306h20.18c27.31 0 49.46-22.14 49.46-49.46v-20.18h-20.18ZM236.36 443.39v20.18h20.18c27.31 0 49.46-22.14 49.46-49.46v-20.18h-20.18c-27.31 0-49.46 22.14-49.46 49.46ZM335.32 393.93h-20.18v20.18c0 27.31 22.14 49.46 49.46 49.46h20.18v-20.18c0-27.31-22.14-49.46-49.46-49.46ZM236.36 522.17v20.18h20.18c27.31 0 49.46-22.14 49.46-49.46v-20.18h-20.18c-27.31 0-49.46 22.14-49.46 49.46ZM335.32 472.71h-20.18v20.18c0 27.32 22.14 49.46 49.46 49.46h20.18v-20.18c0-27.31-22.14-49.46-49.46-49.46ZM236.36 600.96v20.18h20.18c27.31 0 49.46-22.14 49.46-49.46V551.5h-20.18c-27.31 0-49.46 22.14-49.46 49.46ZM335.32 551.5h-20.18v20.18c0 27.31 22.14 49.46 49.46 49.46h20.18v-20.18c0-27.32-22.14-49.46-49.46-49.46ZM315.14 207.03v20.18h20.18c27.32 0 49.46-22.14 49.46-49.46v-20.18H364.6c-27.32 0-49.46 22.14-49.46 49.46ZM256.54 157.57h-20.18v20.18c0 27.32 22.14 49.46 49.46 49.46H306v-20.18c0-27.31-22.14-49.46-49.46-49.46ZM315.14 128.24v20.18h20.18c27.32 0 49.46-22.14 49.46-49.46V78.78H364.6c-27.32 0-49.46 22.14-49.46 49.46ZM256.54 78.79h-20.18v20.18c0 27.31 22.14 49.46 49.46 49.46H306v-20.18c0-27.31-22.14-49.46-49.46-49.46ZM315.14 49.46v20.18h20.18c27.32 0 49.46-22.14 49.46-49.46V0H364.6c-27.32 0-49.46 22.14-49.46 49.46ZM256.54 0h-20.18v20.18c0 27.31 22.14 49.46 49.46 49.46H306V49.46C306 22.15 283.86 0 256.54 0Z"></path></svg>