<svg xmlns="http://www.w3.org/2000/svg" width="595" viewBox="0 0 595 540.1" height="540.1" xml:space="preserve"><path d="M554.6 76H40.4C18.1 76 0 94.1 0 116.5v383.2c0 22.3 18.1 40.4 40.4 40.4H185v-338c0-6 4.9-11 11-11s11 4.9 11 11V540h181V202.1c0-6 4.9-11 11-11s11 4.9 11 11V540h144.6c22.3 0 40.4-18.1 40.4-40.4V116.5c0-22.4-18.1-40.5-40.4-40.5zM228.3 30.3c0-4.4 3.5-7.9 7.9-7.9H357c4.4 0 7.9 3.5 7.9 7.9v28.1h22.8V7.9c0-4.4-3.5-7.9-7.9-7.9H215.1c-4.4 0-7.9 3.5-7.9 7.9v50.5h21.1V30.3z"></path></svg>