<svg xmlns="http://www.w3.org/2000/svg" width="502.3" viewBox="0 0 502.3 615.1" height="615.1" xml:space="preserve"><path d="M481.1 172 342 32.9C298.1-11 227-11 183.1 32.9L13.9 202.1C5 211 0 223.1 0 235.6v147.3c0 12.6 5 24.6 13.9 33.5l163.4 163.4c47.1 47.1 123.4 47.1 170.5 0l1.8-1.8c4.5-4.5 7-10.5 7-16.9V351.7c0-4.7-5.7-7.1-9-3.7l-74.8 74.8c-5.6 5.6-14.7 5.6-20.3 0L149 319.4c-5.6-5.6-5.6-14.7 0-20.3l103.4-103.4c5.6-5.6 14.7-5.6 20.3 0l92.7 92.7c3.1 3.1 8 3.1 11.1 0l104.6-104.6c3.2-3.3 3.2-8.5 0-11.8z"></path><path d="M379.2 326.2v210.6c0 4.3 5.2 6.4 8.2 3.4l107.9-107.9c4.5-4.5 7-10.6 7-16.9V204.8c0-4.3-5.2-6.4-8.2-3.4L386.2 309.3c-4.5 4.5-7 10.6-7 16.9z"></path></svg>