<svg data-name="Layer 1" xmlns="http://www.w3.org/2000/svg" viewBox="0 0 594.09 594.09"><path d="M345.38 319.58h-94.97c-56.99 0-103.35-46.36-103.35-103.35V65.95c0-10.5-8.51-19.01-19.01-19.01s-19.01 8.51-19.01 19.01v150.28c0 30.09 9.52 57.95 25.61 80.9-16.55 23.64-25.61 51.74-25.61 80.73v150.28c0 10.5 8.51 19.01 19.01 19.01s19.01-8.51 19.01-19.01V377.86c0-18.39 4.99-36.31 14.23-52.03 11.77 9.59 25.17 17.21 39.63 22.65-4.18 7.65-6.59 16.35-6.59 25.5v154.17c0 10.5 8.51 19.01 19.01 19.01s19.01-8.51 19.01-19.01V373.98c0-8.73 7.65-16.38 16.37-16.38.19 0 .37-.05.57-.05.38 0 .75.05 1.13.05h94.97c8.72 0 16.38 7.65 16.38 16.38v154.17c0 10.5 8.51 19.01 19.01 19.01s19.01-8.51 19.01-19.01V373.98c0-29.48-24.91-54.39-54.39-54.39Z"></path><path d="M466.04 46.95c-10.5 0-19.01 8.51-19.01 19.01v150.27c0 18.39-4.99 36.31-14.23 52.03-11.77-9.59-25.16-17.21-39.63-22.65 4.18-7.65 6.59-16.35 6.59-25.49V65.95c0-10.5-8.51-19.01-19.01-19.01s-19.01 8.51-19.01 19.01v154.17c0 8.72-7.65 16.37-16.38 16.37-.19 0-.37.05-.57.06-.38 0-.75-.06-1.13-.06h-94.97c-8.72 0-16.37-7.65-16.37-16.37V65.95c0-10.5-8.51-19.01-19.01-19.01s-19.01 8.51-19.01 19.01v154.17c0 29.48 24.9 54.39 54.39 54.39h94.97c56.99 0 103.35 46.37 103.35 103.35v150.28c0 10.5 8.51 19.01 19.01 19.01s19.01-8.51 19.01-19.01V377.86c0-30.08-9.52-57.95-25.61-80.89 16.54-23.64 25.61-51.74 25.61-80.74V65.95c0-10.5-8.51-19.01-19.01-19.01Z"></path><path d="M452.25 0H141.84C63.63 0 0 63.63 0 141.84v310.41c0 78.22 63.63 141.84 141.84 141.84h310.41c78.21 0 141.85-63.63 141.85-141.84V141.84C594.09 63.63 530.46 0 452.25 0Zm136.66 452.25c0 75.36-61.31 136.66-136.66 136.66H141.84c-75.36 0-136.66-61.3-136.66-136.66V141.84C5.18 66.49 66.49 5.18 141.84 5.18h310.41c75.36 0 136.66 61.3 136.66 136.66v310.41Z"></path></svg>