<svg xmlns="http://www.w3.org/2000/svg" width="593.6" viewBox="0 0 593.6 511.3" height="511.3"><path d="M494 438.5V72.4c0-3.7-1.5-7.2-4.1-9.8-2.6-2.6-6.1-4.1-9.8-4h-91.7c-7.4.1-13.7 6.7-13.7 14.5v366.2c0 8.8-3.4 17.1-9.7 23.3-6.2 6.1-14.3 9.5-23 9.5h-91.2c-18.1 0-32.7-15.4-32.7-33.5V72.4c0-3.7-1.5-7.2-4.1-9.8-2.6-2.6-6.1-4.1-9.8-4h-91.7c-7.4.1-13.7 6.7-13.7 14.5v366.2c0 8.8-3.4 17.1-9.7 23.3-6.2 6.1-14.3 9.5-23 9.5H0v39.3h66c19.3 0 37.4-6.7 51.2-20.3 13.9-13.8 21.6-32.1 21.6-51.7V99H178v339.6c0 40.1 32.6 72.8 72.8 72.8H342c19.3 0 37.4-6.7 51.2-20.3 13.9-13.8 21.6-32.1 21.6-51.7V99H454v339.6c0 40.1 32.6 72.8 72.8 72.8h66.9V472h-66.9c-18.1 0-32.8-15.4-32.8-33.5z"></path><path d="M553 412.3V72.4c0-19.4-7.6-37.7-21.3-51.3C517.9 7.5 499.7 0 480.2 0H388c-39.8.3-72.3 33.1-72.3 73.1v339.2H277V72.4c0-19.4-7.6-37.7-21.3-51.3C241.9 7.5 223.7 0 204.2 0H112C72.2.3 39.8 33.1 39.8 73.1v339.2H0v40.8h65.7c3.8 0 7.3-1.4 10-4 2.6-2.6 4.1-6.1 4.1-9.8V73.1c0-18.3 14.6-33.3 32.5-33.4h91.9c8.6 0 16.8 3.4 23 9.5 6.2 6.2 9.7 14.4 9.7 23.2v366.1c0 7.6 6.2 13.8 13.8 13.8l91 .7c3.8 0 7.3-1.4 10-4 2.6-2.6 4.1-6.1 4.1-9.8V73.1c0-18.3 14.6-33.3 32.5-33.4h91.9c8.6 0 16.8 3.4 23 9.5 6.2 6.2 9.7 14.4 9.7 23.2v366.1c0 7.6 6.2 13.8 13.8 13.8h66.9v-40H553z"></path></svg>