<svg data-name="Layer 1" xmlns="http://www.w3.org/2000/svg" viewBox="0 0 598.39 420.94"><path d="M570.49 261.4c-13.97 0-25.52 10.28-27.55 23.69H440.87c13.05-28.91 20.35-60.98 20.35-94.76 0-10.46-.35-20.92-1.06-31.36L449.47.81c-.07-1.08-1.65-1.08-1.73 0l-11.25 166.48L425.25.81c-.07-1.08-1.65-1.08-1.73 0l-11.25 166.48L401.03.81c-.07-1.08-1.65-1.08-1.73 0l-11.25 166.48L376.8.81c-.07-1.08-1.65-1.08-1.73 0l-11.25 166.48L352.58.81c-.07-1.08-1.65-1.08-1.73 0L339.6 167.29 328.36.81c-.07-1.08-1.65-1.08-1.73 0l-11.25 166.48L304.14.81c-.07-1.08-1.65-1.08-1.73 0l-11.25 166.48L279.92.81c-.07-1.08-1.65-1.08-1.73 0l-11.25 166.48L255.69.81c-.07-1.08-1.65-1.08-1.73 0l-11.25 166.48L231.47.81c-.07-1.08-1.65-1.08-1.73 0l-11.25 166.48L207.25.81c-.07-1.08-1.65-1.08-1.73 0l-11.25 166.48L183.03.81c-.07-1.08-1.65-1.08-1.73 0l-11.25 166.48L158.8.81c-.07-1.08-1.65-1.08-1.73 0l-11.25 166.48L134.58.81c-.07-1.08-1.65-1.08-1.73 0L121.6 167.29 110.36.81c-.07-1.08-1.65-1.08-1.73 0L97.38 167.29 86.14.81c-.07-1.08-1.65-1.08-1.73 0L73.16 167.29 61.92.81c-.07-1.08-1.65-1.08-1.73 0L48.94 167.29 37.69.81c-.07-1.08-1.65-1.08-1.73 0L24.71 167.29 13.47.81c-.07-1.08-1.65-1.08-1.73 0L.91 161.18C.3 170.15 0 179.14 0 188.13 0 315.8 102.81 420.88 230.49 420.94c86.92.04 162.6-48.01 201.95-118.99H146.9l-2.03-8.43h398.08c2.04 13.41 13.58 23.69 27.55 23.69 15.41 0 27.9-12.49 27.9-27.9s-12.49-27.9-27.9-27.9Z"></path></svg>