<svg xmlns="http://www.w3.org/2000/svg" width="619.1" viewBox="0 0 619.1 200" height="200" xml:space="preserve" style="enable-background:new 0 0 619.1 200"><path d="M99.1.6C44.5.6 0 45 0 99.6s44.5 99.1 99.1 99.1h100.2V135H99.8c-19.5 0-35.4-15.9-35.4-35.4s15.9-35.4 35.4-35.4h99.5V.6H99.1z"></path><path d="M70.8 99.6c0 16.4 13.3 29.7 29.7 29.7h98.8V69.9h-98.8c-16.4 0-29.7 13.3-29.7 29.7zM408.8 99.1c0-54.6-44.5-99.1-99.1-99.1-54.6 0-99.1 44.4-99.1 99.1v100.2h63.7V99.8c0-19.5 15.9-35.4 35.4-35.4s35.4 15.9 35.4 35.4v99.5h63.7V99.1z"></path><path d="M309.7 69.8c-16.4 0-29.7 13.3-29.7 29.7v99.7h59.4V99.5c0-16.4-13.3-29.7-29.7-29.7zM420.9 100.9c0 54.6 44.4 99.1 99.1 99.1 54.6 0 99.1-44.4 99.1-99.1V.7h-63.7v99.5c0 19.5-15.9 35.4-35.4 35.4s-35.4-15.9-35.4-35.4V.7h-63.7v100.2z"></path><path d="M520 130.2c16.4 0 29.7-13.3 29.7-29.7V.8h-59.4v99.7c0 16.4 13.3 29.7 29.7 29.7z"></path></svg>