<svg xmlns="http://www.w3.org/2000/svg" width="627.3" viewBox="0 0 627.3 464.6" height="464.6" xml:space="preserve" style="enable-background:new 0 0 627.3 464.6"><path d="M483.5 160.4v143.8h143.8c-4.2-77.5-66.3-139.6-143.8-143.8zM483.5 464.6c76.9-4.1 138.6-65.3 143.7-141.9H483.5v141.9zM323.8 160.4v143.8h143.8c-4.2-77.5-66.3-139.6-143.8-143.8zM323.8 464.6c76.9-4.1 138.6-65.3 143.6-141.9H323.8v141.9zM305.4 304.2V160.4H161.6c4.2 77.5 66.3 139.6 143.8 143.8zM305.3 0c-76.9 4.1-138.6 65.3-143.7 141.9h143.7V0zM143.8 304.2V160.4H0C4.2 237.9 66.3 300 143.8 304.2zM143.8 0C66.9 4.1 5.2 65.3.1 141.9h143.7V0zM465.5 71c0 39.2-31.8 71-71 71s-71-31.8-71-71 31.8-71 71-71c39.3 0 71 31.8 71 71zM304.5 393.6c0 39.2-31.8 71-71 71s-71-31.8-71-71 31.8-71 71-71c39.2.1 71 31.8 71 71z"></path></svg>