<svg data-name="Layer 1" xmlns="http://www.w3.org/2000/svg" viewBox="0 0 558.47 603.87"><path d="m488.5 362.23.14 80.55-69.69 40.15 69.76 40.4 69.76-40.4-.14-80.55-69.83-40.15z"></path><path d="m348.99 524.14-69.75 39.55-1.76-1-67.95-39.39-.05-62.31v-17.95l69.75 39.89 69.76-39.9v-80.55l-69.76 40.27-69.76-40.27v80.55h.01l-.01.01v-.01l-3.09 1.77-66.86 38.13-.16 80.54 69.69 40.4.19-.1.15.08 61.92-35.6 7.93-4.54 70.18 40.16 69.69-40.4-.16-80.54-69.96-39.9v81.11zM418.75 161.1l69.75 40.27.14 80.3-69.68 40.4-.14-80.54-69.83-40.15-69.69 40.4 69.83 40.15.14 80.55 69.69-40.4 69.54 40.15 69.97-40.4-.14-80.55-69.82-40.15v-80.3l-69.76-40.28-69.76 40.28v80.55l69.76-40.28zM139.51 322.08l69.69 40.4.14-80.55 69.83-40.15-69.69-40.4-69.83 40.15-.14 80.54-69.68-40.4.14-80.3 69.75-40.27 69.76 40.28v-80.56l69.75-40.27 69.76 40.28V40.28L279.23 0l-69.76 40.28v80.54l-69.75-40.27-69.75 40.28v80.3L.14 241.28 0 321.83l69.98 40.4 69.53-40.15zM69.97 362.23.14 402.38 0 482.93l69.76 40.4 69.76-40.4-69.69-40.15.14-80.55z"></path></svg>