<svg xmlns="http://www.w3.org/2000/svg" width="616.4" viewBox="0 0 616.4 616.4" height="616.4" xml:space="preserve" style="enable-background:new 0 0 616.4 616.4"><path d="M471 45H0v30.7h448.3c2.9-2.8 5.7-5.8 8.3-8.9h159.7V53.6H466.2c1.7-2.7 3.3-5.6 4.8-8.6zM429.7 90.1H0v30.7h342.5v-9.1h273.9V98.5H413.1c5.8-2.3 11.4-5.1 16.6-8.4zM480.6 225.3H0v30.6h480.6v-9.6h135.8v-13.1H480.6zM480.6 270.3H0V301h480.6v-9.8h135.8v-13.1H480.6zM480.6 315.4H0v30.7h480.6v-10h135.8V323H480.6zM480.6 360.4H0v30.7h480.6V381h135.8v-13.1H480.6zM480.6 405.5H0v30.7h480.6v-10.3h135.8v-13.2H480.6zM480.6 450.5H0v30.7h480.6v-10.4h135.8v-13.2H480.6zM480.6 495.6H0v30.7h480.6v-10.6h135.8v-13.2H480.6zM480.6 540.7H0v30.6h480.6v-10.7h135.8v-13.2H480.6zM480.6 585.7H0v30.7h480.6v-11h135.8v-13.1H480.6zM481.9 8.8c.4-2.9.6-5.8.7-8.8H0v30.7h477c1-2.9 1.8-5.8 2.5-8.8h136.9V8.8H481.9zM342.5 135.2H0v30.6h342.5v-9.2h273.9v-13.2H342.5zM342.5 180.2H0v30.7h342.5v-9.4h273.9v-13.2H342.5z"></path></svg>