<svg id="Layer_1" data-name="Layer 1" xmlns="http://www.w3.org/2000/svg" viewBox="0 0 622.89 584.95">   <path d="M311.45,276.07c-42.87,0-80.37,22.93-100.94,57.19,20.57,34.26,58.07,57.19,100.94,57.19s80.37-22.93,100.94-57.19c-20.57-34.26-58.07-57.19-100.94-57.19Z"></path>   <path d="M603.43,402.5h0s0,0,0,0L311.45,0,19.47,402.49h0s0,0,0,0C7.17,421.08,0,443.34,0,467.29c0,64.98,52.68,117.66,117.66,117.66,59.81,0,109.17-44.65,116.64-102.42-24.81-21.57-40.51-53.34-40.51-88.79,0-22.11,6.11-42.79,16.72-60.47-10.61-17.67-16.72-38.35-16.72-60.47,0-64.98,52.68-117.66,117.66-117.66s117.66,52.68,117.66,117.66c0,22.11-6.11,42.79-16.72,60.47,10.61,17.67,16.72,38.35,16.72,60.47,0,35.46-15.71,67.22-40.51,88.79,7.48,57.78,56.83,102.42,116.64,102.42,64.98,0,117.66-52.68,117.66-117.66,0-23.95-7.17-46.21-19.46-64.79Z"></path> </svg>