<svg id="Layer_1" data-name="Layer 1" xmlns="http://www.w3.org/2000/svg" viewBox="0 0 619.28 415.93">   <path d="M619.28,155.9c0-61.56-50.37-111.93-111.93-111.93H113.86V2.98c0-2.55-2.99-3.91-4.92-2.25L1.04,93.85c-2.09,1.8-.81,5.22,1.94,5.22H496.15c35.99,0,65.44,29.45,65.44,65.44h0c0,31.04-21.9,57.21-51.01,63.83-1.73,.39-1.73,2.83,0,3.23,29.11,6.62,51.01,32.79,51.01,63.82h0c0,35.99-29.45,65.44-65.44,65.44H113.86v-40.99c0-2.55-2.99-3.91-4.92-2.25L1.04,410.71c-2.09,1.8-.81,5.22,1.94,5.22H507.35c61.56,0,111.93-50.37,111.93-111.93v-4.59c0-26.2-9.19-50.33-24.42-69.46,15.23-19.13,24.42-43.25,24.42-69.46v-4.59Z"></path>   <path d="M108.94,106.35L1.04,199.47c-2.09,1.8-.81,5.22,1.94,5.22H488.84v-55.11H113.86v-40.99c0-2.55-2.99-3.91-4.92-2.25Z"></path>   <path d="M2.98,310.31H488.84v-55.11H113.86v-40.99c0-2.55-2.99-3.91-4.92-2.25L1.04,305.09c-2.09,1.8-.81,5.22,1.94,5.22Z"></path> </svg>