<svg id="Layer_1" data-name="Layer 1" xmlns="http://www.w3.org/2000/svg" viewBox="0 0 609.58 550.35"><defs></defs><path class="cls-1" d="M378.95 349.74c0-40.97-33.19-74.19-74.16-74.19s-74.16 33.21-74.16 74.19 33.19 74.19 74.16 74.19 74.16-33.21 74.16-74.19Z"></path><path class="cls-1" d="M609.58 146.62H498.4C476.01 62.29 398.28 0 304.79 0S133.57 62.29 111.18 146.62H0v54.62h41.05C16.4 245.16 2.32 295.8 2.32 349.74h76.9c0-35.18 7.95-68.71 22.25-99.31v27.55h48.45v50.67h30.37v-50.67h50.34v-30.37h-50.34v-46.36H429.3v46.36h-50.34v30.37h50.34v50.67h30.37v-50.67h48.45v-27.55c14.31 30.61 22.25 64.13 22.25 99.31h76.9c0-53.94-14.08-104.58-38.73-148.49h41.05v-54.62ZM149.92 247.61h-47.16c7.92-16.4 17.74-31.9 29.13-46.36h18.04v46.36Zm309.75 0v-46.36h18.04c11.39 14.46 21.2 29.96 29.13 46.36h-47.16ZM304.79 475.67c-69.55 0-127.62-56.38-127.62-125.93l-74.18.5c0 110.52 91.29 200.11 201.81 200.11s201.81-89.59 201.81-200.11l-74.19-.5c0 69.55-58.07 125.93-127.62 125.93Z"></path></svg>