<svg data-name="Layer 1" xmlns="http://www.w3.org/2000/svg" viewBox="0 0 625.63 587.56"><path d="M596.14 528.58H314.01v-.33l283.51-38.71c40.18-5.84 36.06-65.08-4.54-65.31l-278.97-1.42v-.34l283.51-38.71c40.18-5.84 36.06-65.08-4.54-65.31l-278.97-1.42V317l283.51-38.71c40.18-5.84 36.06-65.08-4.54-65.31l-278.97-1.42v-.34l283.51-38.71c40.18-5.84 36.06-65.08-4.54-65.31l-278.97-1.42v-.34l283.51-40.1C637.7 59.51 633.58.27 592.97.04L29.49 0C13.27 0 0 13.27 0 29.49s13.27 29.49 29.49 29.49h282.13v.33L28.11 98.02c-40.18 5.84-36.06 65.08 4.54 65.31l278.97 1.42v.34l-283.51 38.7c-40.18 5.84-36.06 65.08 4.54 65.31l278.97 1.42v.03L28.11 309.27c-40.18 5.84-36.06 65.08 4.54 65.31L311.62 376v.34l-283.51 38.7c-40.18 5.84-36.06 65.08 4.54 65.31l278.97 1.42v.34L28.11 522.07c-40.18 5.84-36.06 65.08 4.54 65.31l563.48.18c16.22 0 29.49-13.27 29.49-29.49s-13.27-29.49-29.49-29.49Z"></path></svg>