<svg xmlns="http://www.w3.org/2000/svg" width="619.8" viewBox="0 0 619.8 619.8" height="619.8" xml:space="preserve" style="enable-background:new 0 0 619.8 619.8"><path d="M195.7 619.8h174l54.4-54.4H250.2l-.1-97.9h32.6l54.4-54.3H206.6V282.7l-54.3 54.4v32.6H54.4v-174L0 250.1v174h97.9V522h97.9v97.8h-.1zm380.6-206.6v-43.5h43.5L467.6 521.9h-43.5v-54.4h-32.6V337.1l54.4-54.4v130.5h130.4zM250.2 43.5h-43.5V174h130.5l-54.4 54.3H152.3v-32.6H97.9v-43.5L250.1 0l.1 43.5zm141.3 184.8V97.9l54.4-54.4V174h130.5L522 228.4H391.5z" style="fill-rule:evenodd;clip-rule:evenodd"></path></svg>