<svg data-name="Layer 1" xmlns="http://www.w3.org/2000/svg" viewBox="0 0 472.77 582.61"><path d="M154.72 41.59H44.94C22.47 41.59 4.25 23.37 4.25.9c0-.58-1.01-.9-2.12-.9S0 .32 0 .9s1.01 120.5 1.01 184.35 47.67 71.23 71.05 72.52c23.38 1.29 49.87 2.26 77.41 2.26 29.17 0 56.11 9.12 56.11 30.05v250.6c0 .19.15.35.35.35h16.95c.19 0 .35-.15.35-.35v-430.6c0-37.83-30.66-68.49-68.49-68.49ZM400.72 322.37c-23.38-1.29-49.87-2.26-77.41-2.26s-60.77-10.49-60.77-30.05 32.76-30.05 60.77-30.05 54.04-.97 77.41-2.26c23.38-1.29 71.05-8.67 71.05-72.52s1-184.33 1-184.33c0-.58-1.01-.9-2.12-.9s-2.12.32-2.12.9c0 22.47-18.22 40.69-40.69 40.69H318.06c-37.83 0-68.49 30.66-68.49 68.49v362.45c0 37.83 30.66 68.49 68.49 68.49h109.78c22.47 0 40.69 18.22 40.69 40.69 0 .65 1.01.9 2.12.9s2.12-.25 2.12-.9-1.01-122.97-1.01-186.82-47.67-71.23-71.05-72.52Z"></path></svg>