<svg xmlns="http://www.w3.org/2000/svg" width="610.3" viewBox="0 0 610.3 558.7" height="558.7" style="enable-background:new 0 0 610.3 558.7" xml:space="preserve"><path d="M172.2 538.1c0-74.1 60.3-134.3 134.3-134.3S440.9 464 440.9 538.1c0 7-.7 13.9-1.8 20.6H497c.7-6.8 1.1-13.7 1.1-20.6 0-105.7-86-191.6-191.6-191.6-105.7 0-191.6 86-191.6 191.6 0 7 .4 13.8 1.1 20.6h58c-1.1-6.7-1.8-13.6-1.8-20.6zM439.5 20.6c0 74.1-60.3 134.3-134.3 134.3S170.8 94.7 170.8 20.6c0-7 .7-13.9 1.8-20.6h-57.9c-.7 6.8-1.1 13.7-1.1 20.6 0 105.7 86 191.6 191.6 191.6 105.7 0 191.6-86 191.6-191.6 0-7-.4-13.8-1.1-20.6h-57.9c1 6.7 1.7 13.6 1.7 20.6z"></path><path d="M221.9 20.6c0 45.9 37.3 83.2 83.2 83.2s83.2-37.3 83.2-83.2c0-7.1-1-14-2.7-20.6h-161c-1.7 6.6-2.7 13.5-2.7 20.6z"></path><path d="M544.9 278.7c36.8-5 65.5-36.8 65.5-74.9V55.2c0-30.4-24.8-55.2-55.2-55.2H547c.6 6.8.9 13.7.9 20.6 0 133.8-108.9 242.7-242.7 242.7-133.8 0-242.7-108.9-242.7-242.7 0-7 .4-13.8.9-20.6h-8.2C24.8 0 0 24.8 0 55.2v148.5c0 38.1 28.6 69.9 65.5 74.9.8.1.8 1.3 0 1.4C28.6 285.1 0 316.8 0 355v148.5c0 30.4 24.8 55.2 55.2 55.2h9.6c-.6-6.8-.9-13.7-.9-20.6 0-133.8 108.9-242.7 242.7-242.7 133.8 0 242.7 108.9 242.7 242.7 0 7-.4 13.8-.9 20.6h6.8c30.4 0 55.2-24.8 55.2-55.2V355c0-38.1-28.6-69.9-65.5-74.9-.9-.2-.9-1.3 0-1.4z"></path><path d="M389.8 538.1c0-45.9-37.3-83.2-83.2-83.2s-83.2 37.3-83.2 83.2c0 7.1 1 14 2.7 20.6h161.1c1.6-6.6 2.6-13.5 2.6-20.6z"></path></svg>