<svg id="Layer_1" data-name="Layer 1" xmlns="http://www.w3.org/2000/svg" viewBox="0 0 379.62 567.25">   <path d="M379.62,190.37L189.24,0,0,189.24v188.77l189.24,189.24,190.38-190.38-93.25-93.25,93.25-93.25ZM189.24,7.75l182.63,182.62-182.63,182.63L6.61,190.37,189.24,7.75ZM5.48,196.98l86.64,86.64L5.48,370.26V196.98Zm366.38,179.89l-182.63,182.62L6.62,376.87l89.38-89.38,93.25,93.25,1.37-1.36,91.88-91.88,89.37,89.37Z"></path>   <path d="M89.12,190.37c0,26.44,10.4,50.44,27.24,68.31l-12.7,12.7,3.87,3.88,12.69-12.69c17.91,17.04,42.06,27.58,68.67,27.58s50.76-10.54,68.67-27.58l12.69,12.69,3.87-3.87-12.7-12.7c16.84-17.87,27.25-41.87,27.25-68.31s-10.54-50.76-27.58-68.67l13.03-13.03-3.87-3.87-13.05,13.05c-17.87-16.84-41.87-27.25-68.31-27.25s-50.44,10.41-68.31,27.25l-13.05-13.05-3.87,3.88,13.03,13.03c-17.04,17.91-27.58,42.06-27.58,68.67Zm5.48,0c0-25.1,9.92-47.88,25.97-64.79l64.45,64.45-64.78,64.78c-15.85-16.88-25.64-39.51-25.64-64.43Zm94.29,94.29c-25.1,0-47.88-9.92-64.8-25.97l64.8-64.8,64.79,64.79c-16.91,16.05-39.7,25.97-64.8,25.97Zm94.29-94.29c0,24.93-9.79,47.56-25.64,64.44l-64.78-64.78,64.45-64.45c16.05,16.91,25.97,39.69,25.97,64.79Zm-94.29-94.29c24.92,0,47.56,9.79,64.43,25.64l-64.43,64.43L124.46,121.72c16.88-15.85,39.51-25.64,64.43-25.64Z"></path> </svg>