<svg xmlns="http://www.w3.org/2000/svg" width="620.4" viewBox="0 0 620.4 483.7" height="483.7" xml:space="preserve"><path d="M183.9 330c15.9 18.9 30.9 33.9 52.2 45.7 27.4 15.3 57.7 21.9 87.5 19.3 30.7-2.7 60.3-15.3 85.6-36.4 9.5-8 18.4-18.3 25-26.4 5.4-6.6 13.2-16.2 21.1-26.4l-49.1-57.4-39.2 46.2c-3.5 4.4-14.9 12.4-18.6 14.5-11.9 6.6-25.1 10.1-38.3 10.1h-1.4c-13.1 0-26.3-3.5-38.3-10.1-3.7-2.1-15.1-10-18.6-14.5l-99.9-116.4 2.2-2.9c6.6-8.6 14.1-18 22.3-28 8.3-10.2 17.4-20.9 29.1-30.4 26.6-21.7 57.6-34.5 89.8-37.1 31.3-2.6 63 4.5 91.7 20.5 22.5 12.5 38 28 54.4 47.4L571 301c27.1-32.4 49.5-59.2 49.5-59.2s-80.8-95.3-121.5-144C452.2 41.9 393 3.9 318.8.3c-3-.1-6-.2-9-.2s-6 .1-9 .2c-74.2 3.6-133.4 41.6-180.1 97.4-17.9 21.4-43.3 51.8-66.2 79.2L183.9 330zM308.5 0h2.6-2.6zM310.2 483.7h-.8.8z"></path><path d="M434.5 153.4c-15.8-18.6-30.6-33.5-51.9-45.3C355.5 93 325.5 86.2 296 88.7c-30.3 2.5-59.7 14.6-84.9 35.1-11 9-19.8 19.3-27.8 29.2-7.2 8.8-13.9 17.2-19.9 25l48.8 57.1 39.6-45.9c3.5-4.4 14.9-12.4 18.6-14.4 12.2-6.8 25.6-10.3 39-10.1 13.4-.2 26.8 3.4 39 10.1 3.7 2.1 15.1 10 18.6 14.4l99.9 116.5-2.2 2.9c-8.7 11.3-17.6 22.3-23.5 29.5-6.9 8.4-16.1 19.1-26.2 27.6-26.7 22.3-58 35.6-90.5 38.4-4.5.4-9 .6-13.5.6-27.2 0-54.3-7.2-79.1-21-14.1-7.8-30.4-19-54.7-47.7L48.7 183.8C21.9 215.8 0 242 0 242s79.1 95.3 119.8 144c46.7 55.8 105.9 93.8 180.1 97.4 3.3.2 6.6.2 9.9.3 3.3 0 6.6-.1 9.9-.3 74.2-3.6 133.4-41.6 180.1-97.4 17.6-21.1 42.7-51 65.4-78.2L434.5 153.4z"></path></svg>