<svg xmlns="http://www.w3.org/2000/svg" width="642" viewBox="0 0 642 584.22" height="584.22" data-name="Layer_1"><path d="M301.39 247.09h91.95c9.14 0 17.34 6.73 18.07 15.84.29 3.67-.56 7.12-2.25 10.03l-1.9 3.64c-4.84 9.24 1.87 20.32 12.3 20.32h108.2L642.01 82.01H540.72l.68-1.26c3.79-7.12 5.79-15.34 5.38-24.06-1.16-25.15-23.18-44.33-48.36-44.33H365.8L372.37 0h-30l-76.31 143.52c-28.77-32.19-72.15-51.04-119.73-46.12-66.47 6.88-119.57 61.3-124.98 127.91C16.53 284.64 48.6 337.03 97.11 362v70.55h-9.37c-11.87 0-22.77 6.55-28.34 17.03L0 561.27h45.2l9.99-18.78h30l24.32-45.74h62.58c3.33 0 5.46 3.55 3.9 6.49l-43.06 80.99h41.82l12.19-22.95h30l34.31-64.52h92.07L323.1 534.8l-26.2 49.43h41.82l12.11-22.95h30.08l34.31-64.52H435c5.32 0 9.63 4.31 9.63 9.63v77.84h36.91v-22.95h26.16V438.02h27.61v-73.03c0-25.71-20.84-46.55-46.55-46.55H275.81c14.53-20.4 23.74-44.86 25.61-71.34ZM597.92 108.5l-86.11 161.94h-71.29l86.1-161.94h71.3ZM351.71 38.84h148.57c11.08 0 20.06 8.98 20.06 20.06 0 3.4-.85 6.61-2.34 9.42L437.03 220.6l-8.71 16.37c-8.02-10.01-20.29-16.37-34.11-16.37H255.07l96.65-181.77Zm-103.2 208.25h26.31c-2.43 27.86-14.89 52.85-33.74 71.34H225.5v-27.54c14.07-5.34 24.07-18.95 24.07-34.9 0-3.07-.37-6.05-1.07-8.91ZM47.72 227.67c4.84-60.44 58.01-106.98 118.6-104.46 35.6 1.48 66.45 18.68 86.27 45.64l-23.82 44.79c-1.79 3.37-6.58 2.98-8.03-.55s-3.12-6.76-5.09-9.88c-11.37-18.04-31.46-30.02-54.35-30.02-29.55 0-54.43 19.96-61.91 47.13C84.12 225 73.02 239.21 73.02 256s10 29.56 24.07 34.9v31.5c0 3.73-4.34 5.78-7.24 3.45-28.17-22.69-45.31-58.52-42.13-98.18Zm317.24 307.12h-12.72l20.23-38.04h12.72l-20.23 38.04Zm143.82-169.81v46.55h-27.61v123.26h-10.11v-28.41c0-19.94-16.17-36.11-36.11-36.11H235.31L201 534.79h-12.72L202.53 508c9.09-17.1-3.3-37.73-22.67-37.74l-86.26-.02-22.8 42.88H55.59l27.17-51.11a5.627 5.627 0 0 1 4.96-2.98h35.85v-192.2h-12.66c-5.4 0-10.4-3.69-11.26-9.01-1.1-6.79 4.11-12.65 10.69-12.65h13.24v-6.2c0-20.65 15.91-38.66 36.56-39.28 21.36-.64 38.88 16.48 38.88 37.7v7.78h12.66c5.4 0 10.4 3.69 11.27 9.01 1.1 6.79-4.11 12.65-10.69 12.65h-13.24v78.08h289.7c11.08 0 20.06 8.98 20.06 20.06Z"></path><path d="m131.77 269.18 21.03 39.54c3.62 6.81 13.38 6.81 17.01 0l21.03-39.54c2.98-5.61-1.08-12.38-7.44-12.38h-44.18c-6.36 0-10.42 6.77-7.44 12.38ZM416.6 58.1h29.99l-12.71 23.92h55.02l-14.08 26.48H419.8l-49.37 92.85h-29.99l49.36-92.85h-53.32l14.08-26.48h53.32L416.6 58.1z"></path></svg>