<svg data-name="Layer 1" xmlns="http://www.w3.org/2000/svg" viewBox="0 0 592.23 577.74"><path d="M377.58 372.11V209.04c-11.73-8.12-19.43-21.66-19.43-37.01 0-24.85 20.15-45 45-45s45 20.15 45 45c0 15.39-7.73 28.96-19.52 37.07v142.99c0 10.3 8.35 18.64 18.64 18.64h37.14V209.04c-11.73-8.12-19.43-21.66-19.43-37.01 0-24.85 20.15-45 45-45s45 20.15 45 45c0 15.39-7.74 28.96-19.52 37.07v161.64h56.79V75.89C592.25 33.98 558.27 0 516.36 0H75.89C33.98 0 0 33.98 0 75.89v294.85h56.79V209.11c-11.78-8.11-19.52-21.68-19.52-37.07 0-24.85 20.15-45 45-45s45 20.15 45 45c0 15.35-7.7 28.89-19.43 37.01v161.7h37.14c10.3 0 18.64-8.35 18.64-18.64V209.1c-11.78-8.11-19.52-21.68-19.52-37.07 0-24.85 20.15-45 45-45s45 20.15 45 45c0 15.35-7.7 28.89-19.43 37.01v163.07c0 27.43-22.24 49.67-49.67 49.67H0v80.06c0 41.91 33.98 75.89 75.89 75.89h194.54V209.04C258.7 200.92 251 187.38 251 172.03c0-24.85 20.15-45 45-45s45 20.15 45 45c0 15.39-7.74 28.96-19.52 37.07v368.63h194.86c41.91 0 75.89-33.98 75.89-75.89v-80.06H427.25c-27.43 0-49.67-22.24-49.67-49.67Z"></path></svg>