<svg data-name="Layer 1" xmlns="http://www.w3.org/2000/svg" viewBox="0 0 621.11 363.45"><path d="M513.55 0H314.27l99.64 172.59L513.55 0zM621.11 177.16 521.47 4.57l-99.65 172.58 199.29.01zM521.45 358.88l99.66-172.58-199.29-.01 99.63 172.59zM314.25 363.43l199.29.02-99.63-172.6-99.66 172.58zM406 186.28l-199.28-.02.01.03h-.25l99.63 172.59.12-.2.11.18L406 186.28zM0 186.29l102.25 177.14 195.95.02-102.23-177.1L0 186.29zM406 177.15 306.39 4.55l-99.67 172.57 199.28.03zM298.22 0H98.93l99.64 172.59L298.22 0z"></path></svg>