<svg id="Layer_1" data-name="Layer 1" xmlns="http://www.w3.org/2000/svg" viewBox="0 0 421.19 615.98">   <defs>        </defs>   <path class="cls-1" d="M225.63,225.01h0c-39.12-39.12-103.13-39.12-142.24,0L0,308.4l142.24,142.24,83.39-83.39c39.12-39.12,39.12-103.12,0-142.24Z"></path>   <path class="cls-1" d="M391.85,225.63h0c39.12-39.12,39.12-103.12,0-142.24L308.46,0,166.22,142.24l83.39,83.39c39.12,39.12,103.12,39.12,142.24,0Z"></path>   <path class="cls-1" d="M390.98,390.35c-39.12-39.12-103.12-39.12-142.24,0l-83.39,83.39,142.24,142.24,83.39-83.39c39.12-39.12,39.12-103.13,0-142.24h0Z"></path> </svg>