<svg xmlns="http://www.w3.org/2000/svg" width="408.7" viewBox="0 0 408.7 601" height="601" xml:space="preserve"><path d="M0 0v601h408.7V0H0zm213.7 225.1 75.4 75.4-75.4 75.4V225.1zM195 375.9l-75-75 75-75v150zm-88.1-88.1-75-75h149.9l-74.9 75zM93.6 301l-75 75V226l75 75zm13.3 13.2 74 74H32.8l74.1-74zm106.8 105.9 162.2 162.2H213.7V420.1zM195 582.3H31.9L195 419.2v163.1zm107.3-268.6 74.5 74.5h-149l74.5-74.5zm13.2-13.2L390 226v149l-74.5-74.5zm-13.2-13.2-74.5-74.5h149l-74.5 74.5zm74.5-268.6L204.4 191.2 31.9 18.7h344.9zM18.7 31.9l162.2 162.2H18.7V31.9zm162.2 375L18.7 569.1V406.9h162.2zM390.1 570 226.9 406.9H390V570zM227.8 194.1 390.1 31.9v162.2H227.8z"></path></svg>