<svg data-name="Layer 1" xmlns="http://www.w3.org/2000/svg" viewBox="0 0 622.63 622.63"><path d="M0 0h61.92v61.92H0zM80.1 0h61.92v61.92H80.1zM160.2 0h61.92v61.92H160.2zM240.31 0h61.92v61.92h-61.92zM320.41 0h61.92v61.92h-61.92zM400.51 0h61.92v61.92h-61.92zM480.61 0h61.92v61.92h-61.92zM560.72 0h61.92v61.92h-61.92zM0 80.1h61.92v61.92H0zM68.76863484 122.39136516l30.96-53.624293 53.624293 30.96-30.96 53.624293zM148.86863484 122.39273031l30.96-53.624293 53.624293 30.96-30.96 53.624293zM228.97363484 122.38543522l30.96-53.624293 53.624293 30.96-30.96 53.624293zM309.07363484 122.38680037l30.96-53.624293 53.624293 30.96-30.96 53.624293zM389.17363484 122.39816553l30.96-53.624293 53.624293 30.96-30.96 53.624293zM469.27363484 122.38953069l30.96-53.624293 53.624293 30.96-30.96 53.624293zM560.72 80.1h61.92v61.92h-61.92zM0 160.2h61.92v61.92H0zM68.76726969 202.49136516l30.96-53.624293 53.624293 30.96-30.96 53.624293zM148.86726969 202.49273031l30.96-53.624293 53.624293 30.96-30.96 53.624293zM228.97226969 202.48543522l30.96-53.624293 53.624293 30.96-30.96 53.624293zM309.07226969 202.48680037l30.96-53.624293 53.624293 30.96-30.96 53.624293zM389.17226969 202.48816553l30.96-53.624293 53.624293 30.96-30.96 53.624293zM469.28226969 202.49953069l30.96-53.624293 53.624293 30.96-30.96 53.624293zM560.72 160.2h61.92v61.92h-61.92zM0 240.31h61.92v61.92H0zM80.1 240.31h61.92v61.92H80.1zM160.2 240.31h61.92v61.92H160.2zM228.97956478 282.59043522l30.96-53.624293 53.624293 30.96-30.96 53.624293zM309.07956478 282.60180037l30.96-53.624293 53.624293 30.96-30.96 53.624293zM400.51 240.31h61.92v61.92h-61.92zM480.61 240.31h61.92v61.92h-61.92zM560.72 240.31h61.92v61.92h-61.92zM0 320.41h61.92v61.92H0zM80.1 320.41h61.92v61.92H80.1zM160.2 320.41h61.92v61.92H160.2zM228.97819963 362.69043522l30.96-53.624293 53.624293 30.96-30.96 53.624293zM309.07819963 362.70180037l30.96-53.624293 53.624293 30.96-30.96 53.624293zM400.51 320.41h61.92v61.92h-61.92zM480.61 320.41h61.92v61.92h-61.92zM560.72 320.41h61.92v61.92h-61.92zM0 400.51h61.92v61.92H0zM80.1 400.51h61.92v61.92H80.1zM160.2 400.51h61.92v61.92H160.2zM228.97683447 442.79043522l30.96-53.624293 53.624293 30.96-30.96 53.624293zM309.07683447 442.80180037l30.96-53.624293 53.624293 30.96-30.96 53.624293zM400.51 400.51h61.92v61.92h-61.92zM480.61 400.51h61.92v61.92h-61.92zM560.72 400.51h61.92v61.92h-61.92zM0 480.61h61.92v61.92H0zM80.1 480.61h61.92v61.92H80.1zM160.2 480.61h61.92v61.92H160.2zM228.97546931 522.90043522l30.96-53.624293 53.624293 30.96-30.96 53.624293zM309.07546931 522.91180037l30.96-53.624293 53.624293 30.96-30.96 53.624293zM400.51 480.61h61.92v61.92h-61.92zM480.61 480.61h61.92v61.92h-61.92zM560.72 480.61h61.92v61.92h-61.92zM0 560.72h61.92v61.92H0zM80.1 560.72h61.92v61.92H80.1zM160.2 560.72h61.92v61.92H160.2zM240.31 560.72h61.92v61.92h-61.92zM320.41 560.72h61.92v61.92h-61.92zM400.51 560.72h61.92v61.92h-61.92zM480.61 560.72h61.92v61.92h-61.92zM560.72 560.72h61.92v61.92h-61.92z"></path></svg>