<svg xmlns="http://www.w3.org/2000/svg" width="600.4" viewBox="0 0 600.4 593.5" height="593.5" xml:space="preserve"><path d="M89.6 275.5h58.1V73.9c0-40.8-33-73.9-73.8-73.9S0 33.1 0 73.9v189.5l89.6 116.1v140.2c0 8.7-7.1 15.7-15.7 15.7-8.7 0-15.7-7-15.7-15.7v-179H0v178.9c0 40.8 33.1 73.9 73.9 73.9 40.8 0 73.9-33.1 73.9-73.9V355.3L58.1 239.1V73.9c0-8.7 7-15.7 15.7-15.7s15.7 7 15.7 15.7v201.6zM240.5 275.5h58.1V73.9c0-40.8-33.1-73.9-73.9-73.9-40.8 0-73.9 33.1-73.9 73.9v189.5l89.6 116.1v140.2c0 8.7-7 15.7-15.7 15.7s-15.7-7-15.7-15.7v-179h-58.1v178.9c0 40.8 33.1 73.9 73.9 73.9 40.8 0 73.9-33.1 73.9-73.9V355.3L209 239.1V73.9c0-8.7 7-15.7 15.7-15.7s15.7 7 15.7 15.7v201.6zM391.4 275.5h58.1V73.9c0-40.8-33.1-73.9-73.9-73.9s-73.9 33.1-73.9 73.9v189.5l89.6 116.1v140.2c0 8.7-7 15.7-15.7 15.7s-15.7-7-15.7-15.7v-179h-58.1v178.9c0 40.8 33.1 73.9 73.9 73.9s73.9-33.1 73.9-73.9V355.3L360 239.2V73.9c0-8.7 7-15.7 15.7-15.7s15.7 7 15.7 15.7v201.6zM542.2 275.5h58.1V73.9c0-40.8-33.1-73.9-73.9-73.9-40.8 0-73.9 33.1-73.9 73.9v189.5l89.6 116.1v140.2c0 8.7-7 15.7-15.7 15.7s-15.7-7-15.7-15.7v-179h-58.1v178.9c0 40.8 33.1 73.9 73.9 73.9 40.8 0 73.9-33.1 73.9-73.9V355.3l-89.6-116.1V73.9c0-8.7 7-15.7 15.7-15.7s15.7 7 15.7 15.7v201.6z"></path></svg>