<svg xmlns="http://www.w3.org/2000/svg" width="624.4" viewBox="0 0 624.4 624.4" height="624.4" style="enable-background:new 0 0 624.4 624.4" xml:space="preserve"><path d="M587.9 224.1c-48.7-48.7-127.6-48.7-176.2 0-7.9 7.9-14.3 16.6-19.7 25.8h97c13 0 23.5 10.5 23.5 23.5S502 296.9 489 296.9H327v-162c0-13 10.5-23.5 23.5-23.5s23.5 10.5 23.5 23.5v97.9c9.4-5.4 18.3-12 26.4-20 48.7-48.7 48.7-127.6 0-176.2-48.7-48.7-127.6-48.7-176.2 0s-48.7 127.6 0 176.2c8 8 17 14.6 26.4 20v-97.9c0-13 10.5-23.5 23.5-23.5s23.5 10.5 23.5 23.5v162h-162c-13 0-23.5-10.5-23.5-23.5s10.5-23.5 23.5-23.5h97c-5.3-9.2-11.8-17.9-19.7-25.8-48.7-48.7-127.6-48.7-176.2 0s-48.7 127.6 0 176.2c48.7 48.7 127.6 48.7 176.2 0 7.9-7.9 14.3-16.6 19.7-25.8h-97c-13 0-23.5-10.5-23.5-23.5s10.5-23.5 23.5-23.5h162v162c0 13-10.5 23.5-23.5 23.5s-23.5-10.5-23.5-23.5v-97.9c-9.4 5.4-18.3 12-26.4 20-48.7 48.7-48.7 127.6 0 176.2 48.7 48.7 127.6 48.7 176.2 0 48.7-48.7 48.7-127.6 0-176.2-8-8-17-14.6-26.4-20v97.9c0 13-10.5 23.5-23.5 23.5S327 502.5 327 489.5v-162h162c13 0 23.5 10.5 23.5 23.5S502 374.5 489 374.5h-97c5.3 9.2 11.8 17.9 19.7 25.8 48.7 48.7 127.6 48.7 176.2 0 48.7-48.6 48.7-127.5 0-176.2z"></path></svg>