<svg id="Layer_1" data-name="Layer 1" xmlns="http://www.w3.org/2000/svg" viewBox="0 0 611.58 610.97">   <path d="M493.55,121.8c-18.81-18.81-24.48-45.75-17.08-69.5C357.61-28.15,194.7-15.81,89.44,89.45-13.89,192.78-27.66,351.69,47.99,469.92c15.27-13.56,35.06-19.25,54.13-16.95-2.45-20.36,4.07-41.59,19.69-57.21,27-27,70.78-27,97.78,0,27,27,27,70.78,0,97.78-15.62,15.62-36.85,22.15-57.21,19.69,2.25,18.63-3.12,37.95-16.01,53.07,117.64,71.89,273.36,57.02,375.15-44.77,103.85-103.85,117.27-263.85,40.33-382.26-23.45,6.84-49.81,1.02-68.31-17.47Zm-167.21,264.99c-27,27-70.78,27-97.78,0-27-27-27-70.78,0-97.78,27-27,70.78-27,97.78,0,27,27,27,70.78,0,97.78Zm126.41-126.41c-27,27-70.78,27-97.78,0-27-27-27-70.78,0-97.78,27-27,70.78-27,97.78,0s27,70.78,0,97.78Z"></path>   <path d="M561.85,139.27c10.79-3.15,20.97-8.96,29.47-17.47,27-27,27-70.78,0-97.78-27-27-70.78-27-97.78,0-8.19,8.19-13.86,17.94-17.08,28.28,15.88,10.75,30.99,23.09,45.05,37.15,15.46,15.46,28.88,32.19,40.33,49.82Z"></path> </svg>