<svg xmlns="http://www.w3.org/2000/svg" width="619" viewBox="0 0 619 362.5" height="362.5" style="enable-background:new 0 0 619 362.5" xml:space="preserve"><path d="m290.7 146.5 37.2-37.2M281.4 62.7 218.7 0h-74.6l100 100zM353.3 227.6l-37.2-37.3-172.2 172.2h74.6zM494 125c-30.2-30.7-81.7-31.2-112.4 0l-9.7 9.7 37.3 37.3 9.7-9.7c17.9-17.7 46.4-3 45.8 19 .6 21.6-27.1 36.3-45 19.7l-82.4-82.4-37.3 37.3c.6.6 81.7 81.8 82.3 82.3 30.8 30.6 81.8 29.9 111.8-.6C525 206.4 525 156.1 494 125z"></path><g><path d="M172.1 190.4 0 362.5h74.5l134.8-134.8zM565.9 53.1C532.4 18.3 485.1.4 437.8.3c-38.7-.1-77.4 11.6-108.6 35.8-14.7 9.7-87.2 85.3-101.4 98.6l37.4 37.3 81.7-81.7c24.3-24.3 56.6-37.7 90.9-37.7 69.1-1.4 130 59.5 128.6 128.6-1.9 122.2-149.9 173.4-229.2 81.1l-37.3 37.3c36.2 41.3 87.1 62.5 137.9 62.7 46.3.2 92.7-17.2 128.2-52.9 35.3-35.4 53-81.7 53-128.1 0-46.4-17.7-92.8-53.1-128.2z"></path><path d="m256 181.2-37.4-37.3L74.7 0H.2l181.1 181.2 37.2 37.3.1-.1 25.5 25.5 37.3-37.3-25.4-25.4z"></path></g></svg>