<svg xmlns="http://www.w3.org/2000/svg" width="616.7" viewBox="0 0 616.7 574.9" height="574.9" style="enable-background:new 0 0 616.7 574.9" xml:space="preserve"><path d="M616.7 0H448.3v21.5h3.4c11.8.3 51 4.2 51 44v452.4c0 31.5 25.5 57 57 57s57-25.5 57-57V0zM168.4 0H0v21.5h3.4c11.8.3 51 4.2 51 44v452.4c0 31.5 25.5 57 57 57s57-25.5 57-57V0zM480.6 487.4 369.2 297.8c-12.1-20.5-18.4-43.9-18.4-67.7V0H182.4v21.5h3.4c11.8.3 51 4.2 51 44v195.6c0 23.8 6.4 47.2 18.4 67.7l128.1 218c16.6 28.2 53.7 36.9 81.2 18.2 25.2-17 31.5-51.5 16.1-77.6z"></path></svg>