<svg xmlns="http://www.w3.org/2000/svg" width="589.8" viewBox="0 0 589.8 466.5" height="466.5" xml:space="preserve"><path d="M258.7 160.3c22.5-13.1 50.4-13.1 72.9 0l258.3 154.2v-46.4L351.8 125.8c-34.9-20.5-78.3-20.5-113.3-.1l-126.7 73.7 39.6 23.2 107.3-62.3z"></path><path d="M235.6 110c36.7-21.4 82.3-21.4 119 .1l235.3 140.8v-46.4L374.8 75.6c-49.1-28.8-110.2-28.9-159.3-.2L57 167.5l39.7 23.2L235.6 110z"></path><path d="m383.4 64 206.4 123.8v-46.4L403.7 29.5c-67-39.2-150.2-39.3-217.2-.3L3 135.9l39.7 23.2 163.9-95.3C261.2 32 329 32.1 383.4 64M331.2 306.2c-22.5 13.1-50.4 13.1-72.9 0L0 151.9v46.4l238.1 142.4c34.9 20.5 78.3 20.5 113.3.1L478 267l-39.6-23.2-107.2 62.4z"></path><path d="M354.3 356.5c-36.7 21.4-82.3 21.4-119-.1L0 215.6V262l215.1 128.9c49.1 28.8 110.2 28.9 159.3.2L532.8 299l-39.7-23.2-138.8 80.7z"></path><path d="M206.4 402.5 0 278.7V325l186.2 112c66.9 39.2 150.2 39.3 217.2.3l183.5-106.7-39.7-23.2-163.9 95.3c-54.7 31.8-122.4 31.7-176.9-.2"></path></svg>