<svg xmlns="http://www.w3.org/2000/svg" width="540.8" viewBox="0 0 540.8 625.6" height="625.6" xml:space="preserve" style="enable-background:new 0 0 540.8 625.6"><path d="m445.1 101.2-76.9 43.4v-88L271.1 0 0 155.8v111.3l76.8 44.6L0 357.1v113.3l270.6 155.3 97.6-56.6v-84.5l73.3 42.5 99.3-57.7V156.7l-95.7-55.5zm.9 19.3 67.9 39.7-67.9 39.2-69.1-39.6 69.1-39.3zM270.4 21.7l64.7 37-86 49.8 176.7 101.9-69.3 40.2-177.3-103L93 197l-64.1-36.2L270.4 21.7zm78.4 48.6v73.5l-64-36.7 64-36.8zm85.8 158.1v78.8l-66.4 38.6v-79.1l66.4-38.3zm-85.8 38.7v80.3L281 307.6v-79.5l67.8 39zm-157.3 0 69.3-38.9V307l-69.3 40.5v-80.4zm-8-16.5L109.3 208l68.9-39.6 74 43.2-68.7 39zm-165.3 6.5v-79.6l65.7 38v79l-65.7-37.4zM84 326.4v69.5l-60.2-34.7L84 326.4zm176.5 270.9L18.2 458.7v-78l83.4 47.3V225.8l71.6 41.2.1 202.4 87.2 50v77.9zm0-99.4-69-40.2v-79.9l69 39.7v80.4zm-57.2-136.3 68.3-39.2 69.1 39.2-68.9 39.2-68.5-39.2zm145.5 196.5-67.4 38.7.1-77.1L349 481l-.2 77.1zm85.2-59.5-57.7-32.9 57.7-32.9v65.8zm87.3-39.6-65.7 38.2v-98.9l-174.1 99.4v-78.8l174.1-99.7v-101l65.7-37.6V459z"></path></svg>