<svg xmlns="http://www.w3.org/2000/svg" id="a" width="642" viewBox="0 0 642 555.99" height="555.99" data-name="Layer 1"><defs></defs><path d="M240.75 139 321 0l80.25 139h-160.5zM481.5 277.99 401.25 139 321 277.99h160.5zM160.5 277.99 240.75 139 321 277.99H160.5zM240.75 416.99l80.25-139 80.25 139h-160.5zM160.5 277.99l80.25 139H80.25l80.25-139zM481.5 277.99l-80.25 139h160.5l-80.25-139zM0 555.99l80.25-139 80.25 139H0zM481.5 555.99l80.25-139 80.25 139H481.5zM321 555.99l80.25-139 80.25 139H321zM160.5 555.99l80.25-139 80.25 139H160.5z" class="b"></path></svg>