<svg xmlns="http://www.w3.org/2000/svg" width="501.5" viewBox="0 0 501.5 624" height="624" xml:space="preserve"><path d="M407.8 624H406c-24.6-.5-47.7-10.4-65-28-17.3-17.6-26.8-40.9-26.8-65.6V358.9c0-4.1-3.4-7.5-7.5-7.5H194.8c-47.5 0-86.2-38.7-86.2-86.2V93.7c0-8.1-6.6-14.8-14.6-14.9-4.7-.1-8.2 2.3-10.3 4.3-3.2 3.1-5 7.4-5 11.7v490c0 21.7-17.6 39.4-39.4 39.4S0 606.4 0 584.7v-490c0-25.3 10.4-50.1 28.6-67.9C46.7 9 70.4-.4 95.5 0c24.6.5 47.7 10.4 65 28 17.3 17.6 26.8 40.9 26.8 65.6v171.5c0 4.1 3.4 7.5 7.5 7.5h111.8c47.5 0 86.2 38.7 86.2 86.2v171.5c0 8.1 6.6 14.8 14.6 14.9 4.8.1 8.2-2.3 10.3-4.3 3.2-3.1 5-7.4 5-11.7v-490c0-21.7 17.6-39.4 39.4-39.4s39.4 17.6 39.4 39.4v490c0 25.4-10.4 50.1-28.6 67.9-17.6 17.5-40.7 26.9-65.1 26.9z"></path></svg>