<svg xmlns="http://www.w3.org/2000/svg" viewBox="0 0 642 432.57"><path d="M466.84 0 366.13 53.59C344.24 65.21 327.67 85.5 321 109.96c-6.68-24.46-23.24-44.75-45.13-56.37L175.16 0h-9.2v264.55l148.78 165.23c3.35 3.72 9.18 3.72 12.52 0l148.78-165.23V0h-9.2ZM317.79 423.58 172.38 262.05V5.83l100.47 53.48c26.71 14.25 44.94 42.37 44.94 74.73v289.54Zm151.83-161.53L324.21 423.58V134.03c0-32.36 18.23-60.48 44.94-74.73L469.62 5.83v256.22ZM499.15 432.55V0H642v432.55H499.15Zm136.42-6.42V6.42h-130v419.71h130ZM0 432.55V0h142.85v432.55H0Zm136.42-6.42V6.42h-130v419.71h130Z"></path></svg>