<svg data-name="Layer 1" xmlns="http://www.w3.org/2000/svg" viewBox="0 0 609.56 482.98"><path d="M300.42 482.98c118.01 0 225.97-42.97 309.14-114.1V264.47C535.77 353 424.69 409.38 300.42 409.38S73.68 357.24 0 274.53v101.62c81.93 66.77 186.49 106.82 300.42 106.82ZM309.14 73.61c119.48 0 226.74 52.14 300.42 134.84V106.82C527.63 40.06 423.07 0 309.14 0S83.16 42.97 0 114.1v104.41c73.79-88.53 184.87-144.9 309.14-144.9Z"></path><path d="M438.28 179.41H311.4v55.46h140.44c-.88-19.75-5.65-38.48-13.56-55.46ZM298.16 94.43c-19.75.88-38.48 5.65-55.46 13.56v126.88h55.46V94.43ZM311.4 388.55c19.75-.88 38.48-5.65 55.46-13.56V248.12H311.4v140.44ZM298.16 388.55v-71.73H178.29c24.63 41.27 68.87 69.47 119.87 71.73ZM157.72 234.87h71.73V114.99c-41.27 24.63-69.47 68.87-71.73 119.87ZM311.4 94.43v71.73h119.87c-24.63-41.27-68.87-69.47-119.87-71.73ZM298.16 248.11H157.72c.88 19.75 5.65 38.48 13.56 55.46h126.88v-55.46ZM451.84 248.11h-71.73v119.87c41.27-24.63 69.47-68.87 71.73-119.87Z"></path></svg>