<svg xmlns="http://www.w3.org/2000/svg" width="612.1" viewBox="0 0 612.1 599.3" height="599.3" xml:space="preserve"><path d="m601.4 475.9-122-206.4 48.4-83c1.2-2.2 1.2-4.8-.1-7s-3.5-3.5-6.1-3.5l-139.2.5c-2.4 0-4.7 1.3-5.8 3.4l-50.9 88.5c-1.1 2-1.1 4.5.1 6.6l92.6 152.6c2.2 3.7 3.3 7.7 3.4 11.9.2 6.7-2.5 13.4-7.2 18.2-4.7 4.8-11 7.4-17.8 7.4H213.6c-9 0-17.1-4.6-21.6-12.4-4.5-7.8-4.6-17.1-.2-24.9l181-320.7c2.7-4.8 4.1-10.2 4.1-15.7l.1-73.3c0-5.6-4.5-10.1-10.1-10.1l-135.4-.1c-5.6 0-10.1 4.5-10.1 10.1v84.5L10.7 476c-14.4 25.5-14.2 57 .5 82.3 14.7 25.3 42.1 41.1 71.4 41.1h446.9c29.3 0 56.7-15.7 71.4-41.1 14.8-25.4 14.9-56.9.5-82.4zm-176.2-19.4 80.6 135h-16l-74.3-124.4c1.6-1.2 3.2-2.5 4.6-3.9 2-2 3.7-4.3 5.1-6.7zm-185 16.5h16L327 591.6h-16L240.2 473zm66.9 118.6h-16L220.3 473h16l70.8 118.6zM260 473h16l70.7 118.6h-16L260 473zm19.9 0h16l70.7 118.6h-16L279.9 473zm19.9 0h16l70.7 118.6h-16L299.8 473zm19.8 0h16l70.7 118.6h-16L319.6 473zm19.9 0h16l70.8 118.6h-16.1L339.5 473zm19.9 0h16l70.8 118.6h-16L359.4 473zm19.9 0h16l70.8 118.6h-16L379.3 473zm19.8-.1c4.9-.3 9.5-1.7 13.6-4l73.2 122.7h-16l-70.8-118.7zm-182.6.1 70.8 118.6h-16l-73.1-122.4c4.7 2.5 10 3.9 15.5 3.9h2.8zM31.1 455.6l7.8-13.8 89.4 149.8h-16l-81.2-136zm77.3 136h-16L21.5 472.7l7.8-13.8 79.1 132.7zM40.8 438.5l7.8-13.8 99.6 166.9h-16L40.8 438.5zm9.6-17.1 7.8-13.8 109.8 184h-16L50.4 421.4zm9.7-17.1 7.8-13.8 120 201.1h-16L60.1 404.3zm9.6-17.1 7.8-13.8 130.3 218.2h-16L69.7 387.2zm9.7-17.1 7.8-13.8 140.5 235.3h-16L79.4 370.1zM89 353l7.8-13.8 150.7 252.4h-16L89 353zm9.7-17.1 7.8-13.8 75.3 126.2c.8 2.9 1.9 5.8 3.5 8.5 1.7 2.9 3.8 5.4 6.1 7.6l75.9 127.2h-16L98.7 335.9zM185 424c-2.8 5-4.3 10.5-4.3 16l-72.4-121.3 7.8-13.8 70 117.2-1.1 1.9zm3-5.1-70-117.2 7.8-13.8 70 117.2-7.8 13.8zm94.7-167.8-7.8 13.8-70-117.2 7.8-13.8 70 117.2zm-68.2-120.6 7.8-13.8 70 117.2-7.8 13.8-70-117.2zM273 268.2l-7.8 13.8-70-117.2L203 151l70 117.2zm-9.7 17.1-7.8 13.8-70-117.2 7.8-13.8 70 117.2zm-9.6 17.1-7.8 13.8-70-117.2 7.8-13.8 70 117.2zm-9.7 17.1-7.8 13.8-70-117.2 7.8-13.8 70 117.2zm-9.6 17.1-7.8 13.8-70-117.2 7.8-13.8 70 117.2zm-9.7 17.1-7.8 13.8-70-117.2 7.8-13.8 70 117.2zm-9.6 17.1-7.8 13.8-70-117.2 7.8-13.8 70 117.2zm-9.7 17.2-7.8 13.8-70-117.2 7.8-13.8 70 117.2zm19.9-276.6 20.1 33.6 49.9 83.6-1.1 2-70-117.2 1.1-2zM11 494.9 67.8 590c-7.6-1.6-15-4.3-21.7-8.1L7.8 517.4c-.1-7.6 1-15.2 3.2-22.5zm6.9 59.5c-5.4-9.3-8.6-19.5-9.7-29.8L40 578.2c-8.9-6.1-16.5-14.2-22.1-23.8zm54.2 36.4-59.7-100c1.4-3.8 3.1-7.4 5.1-11l2.1-3.8 68.9 115.5h-6c-3.5.1-7-.2-10.4-.7zm437.5.8L426.9 453l.9-2.4 84.2 141h-2.4z"></path><path d="M422.4 88c-2.2 6.2-3.3 12.8-3.3 19.7 0 33 26.8 59.8 59.8 59.8s59.8-26.8 59.8-59.8c0-30.1-22.3-55.1-51.3-59.2 0-.8.1-1.6.1-2.5 0-25.4-20.6-46.1-46.1-46.1-25.4 0-46.1 20.6-46.1 46.1 0 18.7 11.1 34.8 27.1 42z"></path><circle cx="529.7" cy="26.1" r="24.2"></circle></svg>