<svg xmlns="http://www.w3.org/2000/svg" width="606.5" viewBox="0 0 606.5 612.2" height="612.2" xml:space="preserve"><path d="M438.9 320.3 254.7 0l-41.9 24.3 197.8 336.8z"></path><path d="M226.7 472.4c-48.3 0-87.6-39.3-87.6-87.6s39.3-87.6 87.6-87.6c17.7 0 36.3 5.4 50.1 14.5l42.2 73.1h52L309.9 278c-23.3-19-50.8-28.6-83.2-28.6-74.7 0-135.4 60.7-135.4 135.4S152 520.2 226.7 520.2h379.8v-47.8H226.7z"></path><path d="M48 384.8c0-95.2 74.1-173 167.8-179.1 3.9-.2 7.8-.4 11.7-.4 15.1 0 29.8 1.9 43.9 5.4L176.6 45.3l-39.9 23.2 53 92C82.1 178.5 0 272 0 384.8c0 125.6 101.8 227.5 227.5 227.5h379.1v-48H227.5C128.3 564.2 48 483.9 48 384.8z"></path></svg>