<svg xmlns="http://www.w3.org/2000/svg" width="572.96" viewBox="0 0 572.96 572.96" height="572.96" style="enable-background:new 0 0 572.96 572.96" xml:space="preserve"><circle transform="rotate(-13.286 193.352 7.22)" cx="193.39" cy="7.22" r="7.22"></circle><circle transform="rotate(-13.286 255.398 7.221)" cx="255.45" cy="7.22" r="7.22"></circle><circle transform="rotate(-13.286 193.35 69.266)" cx="193.39" cy="69.27" r="7.22"></circle><circle transform="rotate(-13.286 255.396 69.267)" cx="255.45" cy="69.27" r="7.22"></circle><circle transform="rotate(-45.001 317.51 7.22)" cx="317.51" cy="7.22" r="7.22"></circle><circle transform="rotate(-45.001 317.51 69.278)" cx="317.51" cy="69.27" r="7.22"></circle><circle transform="rotate(-45.001 379.57 7.22)" cx="379.57" cy="7.22" r="7.22"></circle><circle transform="rotate(-45.001 379.569 69.279)" cx="379.57" cy="69.27" r="7.22"></circle><circle transform="rotate(-13.286 193.349 131.312)" cx="193.39" cy="131.33" r="7.22"></circle><circle transform="rotate(-13.286 255.395 131.314)" cx="255.45" cy="131.33" r="7.22"></circle><circle transform="rotate(-45.001 193.39 193.395)" cx="193.39" cy="193.39" r="7.22"></circle><circle transform="rotate(-45.001 255.45 193.396)" cx="255.45" cy="193.39" r="7.22"></circle><circle transform="rotate(-45.001 317.509 131.337)" cx="317.51" cy="131.33" r="7.22"></circle><circle transform="rotate(-13.286 317.436 193.36)" cx="317.51" cy="193.39" r="7.22"></circle><circle transform="rotate(-45.001 379.568 131.338)" cx="379.57" cy="131.33" r="7.22"></circle><circle transform="rotate(-13.286 379.481 193.362)" cx="379.57" cy="193.39" r="7.22"></circle><circle transform="rotate(-45.001 193.39 255.454)" cx="193.39" cy="255.45" r="7.22"></circle><circle transform="rotate(-45.001 255.449 255.455)" cx="255.45" cy="255.45" r="7.22"></circle><circle transform="rotate(-45.001 193.389 317.513)" cx="193.39" cy="317.51" r="7.22"></circle><circle transform="rotate(-45.001 255.448 317.513)" cx="255.45" cy="317.51" r="7.22"></circle><circle transform="rotate(-13.286 317.434 255.405)" cx="317.51" cy="255.45" r="7.22"></circle><circle transform="rotate(-13.286 317.432 317.45)" cx="317.51" cy="317.51" r="7.22"></circle><circle transform="rotate(-13.286 379.48 255.407)" cx="379.57" cy="255.45" r="7.22"></circle><circle transform="rotate(-13.286 379.477 317.452)" cx="379.57" cy="317.51" r="7.22"></circle><circle transform="rotate(-9.213 193.405 379.513)" cx="193.39" cy="379.57" r="7.22"></circle><circle transform="rotate(-9.213 255.457 379.507)" cx="255.45" cy="379.57" r="7.22"></circle><circle transform="rotate(-13.286 193.34 441.542)" cx="193.39" cy="441.63" r="7.22"></circle><circle transform="rotate(-13.286 255.386 441.544)" cx="255.45" cy="441.63" r="7.22"></circle><circle transform="rotate(-67.5 317.504 379.56)" cx="317.51" cy="379.57" r="7.22"></circle><circle transform="rotate(-45.001 317.506 441.632)" cx="317.51" cy="441.63" r="7.22"></circle><circle transform="rotate(-67.5 379.562 379.559)" cx="379.57" cy="379.57" r="7.22"></circle><circle transform="rotate(-13.286 7.209 193.35)" cx="7.22" cy="193.39" r="7.22"></circle><circle transform="rotate(-45.001 69.273 193.393)" cx="69.27" cy="193.39" r="7.22"></circle><circle transform="rotate(-45.001 131.331 193.394)" cx="131.33" cy="193.39" r="7.22"></circle><circle transform="rotate(-13.286 7.207 255.396)" cx="7.22" cy="255.45" r="7.22"></circle><circle transform="rotate(-45.001 69.272 255.452)" cx="69.27" cy="255.45" r="7.22"></circle><circle transform="rotate(-13.286 7.205 317.441)" cx="7.22" cy="317.51" r="7.22"></circle><circle transform="rotate(-45.001 69.271 317.511)" cx="69.27" cy="317.51" r="7.22"></circle><circle transform="rotate(-45.001 131.33 255.453)" cx="131.33" cy="255.45" r="7.22"></circle><circle transform="rotate(-45.001 131.33 317.512)" cx="131.33" cy="317.51" r="7.22"></circle><circle transform="rotate(-67.5 7.217 379.56)" cx="7.22" cy="379.57" r="7.22"></circle><circle transform="rotate(-9.213 69.3 379.524)" cx="69.27" cy="379.57" r="7.22"></circle><circle transform="rotate(-9.213 131.353 379.518)" cx="131.33" cy="379.57" r="7.22"></circle><circle cx="565.74" cy="193.39" r="7.22"></circle><circle cx="565.74" cy="255.45" r="7.22"></circle><circle cx="565.74" cy="317.51" r="7.22"></circle><circle cx="565.74" cy="379.57" r="7.22"></circle><circle transform="rotate(-13.286 441.527 193.363)" cx="441.63" cy="193.39" r="7.22"></circle><circle transform="rotate(-13.286 503.572 193.365)" cx="503.69" cy="193.39" r="7.22"></circle><circle transform="rotate(-13.286 441.525 255.409)" cx="441.63" cy="255.45" r="7.22"></circle><circle transform="rotate(-13.286 441.523 317.454)" cx="441.63" cy="317.51" r="7.22"></circle><circle transform="rotate(-13.286 503.57 255.41)" cx="503.69" cy="255.45" r="7.22"></circle><circle transform="rotate(-13.286 503.568 317.456)" cx="503.69" cy="317.51" r="7.22"></circle><circle transform="rotate(-67.5 441.62 379.559)" cx="441.63" cy="379.57" r="7.22"></circle><circle transform="rotate(-67.5 503.677 379.558)" cx="503.69" cy="379.57" r="7.22"></circle><circle transform="rotate(-45.001 379.564 441.633)" cx="379.57" cy="441.63" r="7.22"></circle><circle transform="rotate(-13.286 193.339 503.588)" cx="193.39" cy="503.68" r="7.22"></circle><circle transform="rotate(-13.286 255.384 503.59)" cx="255.45" cy="503.68" r="7.22"></circle><circle transform="rotate(-13.286 193.337 565.634)" cx="193.39" cy="565.74" r="7.22"></circle><circle transform="rotate(-13.286 255.383 565.636)" cx="255.45" cy="565.74" r="7.22"></circle><circle transform="rotate(-45.001 317.505 503.691)" cx="317.51" cy="503.68" r="7.22"></circle><circle transform="rotate(-45.001 317.504 565.75)" cx="317.51" cy="565.74" r="7.22"></circle><circle transform="rotate(-45.001 379.564 503.692)" cx="379.57" cy="503.68" r="7.22"></circle><circle transform="rotate(-45.001 379.563 565.75)" cx="379.57" cy="565.74" r="7.22"></circle></svg>