<svg data-name="Layer 1" xmlns="http://www.w3.org/2000/svg" viewBox="0 0 617.09 614.24"><path d="M466.21 155.97H282.68s-116.34-.25-116.44 0c-63.63 0-61.95-55.82-61.95-55.82 2.42-37.29 35.53-54.09 69.27-49.35 21.52 3.02 40.21 14.38 56.64 28.08 22.66 18.9 48.51 34.93 79.05 34.93 66.89 0 112.77-46.35 116.62-106.78h-49.54c1.26 0-5.8 22.32-6.78 24.32-3.41 6.93-8.08 13.21-13.8 18.41-10.91 9.92-25.3 15.57-40.01 16.12-21.31.81-38.62-9.97-53.62-24.03-11.71-10.97-25.02-20.22-39.51-27.13-26.95-12.87-57.44-17.33-86.99-13.27C106.73 5.42 79 17.36 56.34 35.73 33 54.66 15.53 80.26 6.77 109.03 2.14 124.25-.05 140.17 0 156.07c.13 42.78 19.6 85.64 51.05 114.82 23.02 21.35 53.15 31.21 72.39 56.73 24.17 32.05 31.62 73.79 31.62 113.07v173.55h154.69V509.45c0-26.76 21.89-48.65 48.65-48.65h55.07c26.76 0 48.65 21.89 48.65 48.65v104.79h154.97V306.97c0-83.36-67.53-150.91-150.88-151ZM155.53 290.39c-74.66-1.27-134.81-62.15-134.81-137.12 0-4.06.21-8.08.56-12.05 6.04 69.33 63.64 123.81 134.25 125.01v24.15Z"></path></svg>