<svg xmlns="http://www.w3.org/2000/svg" width="523.5" viewBox="0 0 523.5 617.6" height="617.6" xml:space="preserve" style="enable-background:new 0 0 523.5 617.6"><path d="M149.5 490.9v44.3l99.7 48.6v-32.1c0-22.3 4.6-43.4 13.1-62.6 8.7-19.4 21.4-36.6 37.6-50.7 4.9-4.3 10.3-8.4 16.3-12.3 5.8-3.9 11.8-7.3 17.9-10.2l23.8-11.6-96.2-46.9-41.3 20.2c-22.3 10.9-40 26.9-52.1 46.3-12.2 19.3-18.7 42.2-18.8 67M24.8 294.1v111l99.8 48.7v-32.1c0-24.8-6.6-47.8-18.7-67.2C93.8 335 76 319 53.7 308.2l-28.9-14.1zM262.7 344l-.3.7.3-.7zm111.2-138.4v-44.2c0-24.8-6.6-47.8-18.7-67.2-12.1-19.4-29.9-35.4-52.1-46.3l-41.3-20.2-96.2 46.9 23.8 11.6c26.5 13 47.8 32.1 62.4 55.5 14.6 23.4 22.5 50.8 22.5 80.3v54.8c.9-1.3 1.7-2.5 2.6-3.8 14.3-20.1 33.7-36.6 57.4-48.1l39.6-19.3zm.1 287.9v-69.3l-28.9 14.1c-5.5 2.7-10.6 5.6-15.2 8.6s-9.1 6.5-13.6 10.3c-13.5 11.8-24.1 26-31.3 42.1-7.1 15.9-10.9 33.6-10.9 52.5v32.1l99.8-48.7v-41.7zM498.6 405V294l-28.9 14.1c-22.3 10.9-40 26.9-52.1 46.3-12.1 19.4-18.7 42.4-18.7 67.2v32.1l99.7-48.7zm-16-130.9-96.2-46.9-41.3 20.2c-19.9 9.7-36.2 23.5-48 40.1-10.3 14.5-17.4 31.1-20.7 49.3l101.5 49.5c3.7-16.1 10-31.3 18.6-45 14.6-23.4 35.8-42.6 62.4-55.5l23.7-11.7zm-83.7-68.5 124.6 60.8v154.3l-124.7 60.8v69.3l-137.1 66.8-137.1-66.9V491c0-3.2.1-6.3.3-9.4L0 420.6V266.3l124.6-60.8V66.8L261.7 0 314 25.5c26.5 12.9 47.8 32.1 62.4 55.5 14.6 23.4 22.5 50.8 22.5 80.3v44.3zm-152.2 67.5c.9 1.3 1.8 2.5 2.6 3.8v-54.8c0-24.8-6.6-47.8-18.7-67.2-12.1-19.4-29.9-35.4-52.1-46.3l-28.9-14.1v111l39.8 19.4c23.6 11.6 43 28.1 57.3 48.2m.4 63.7c-3.3-18.1-10.4-34.8-20.7-49.2-11.9-16.6-28.1-30.4-48-40.1l-41.3-20.2-96.2 46.9 23.8 11.6c26.5 13 47.8 32.1 62.4 55.5 12.3 19.7 19.9 42.3 21.9 66.5 14.5-22.1 35.1-40.3 60.5-52.7l37.6-18.3z"></path></svg>