<svg data-name="Layer 1" xmlns="http://www.w3.org/2000/svg" viewBox="0 0 614.26 614.26"><path d="M307.13 159.17c8.94-7.06 16.66-15.58 22.81-25.21 10.04-15.71 15.87-34.35 15.87-54.38 0-10.56-1.65-20.72-4.65-30.29-6.18-19.69-18.2-36.8-34.04-49.3-15.8 12.47-27.79 29.52-33.99 49.14-3.03 9.61-4.7 19.82-4.7 30.44 0 20.07 5.86 38.75 15.93 54.48 6.14 9.59 13.84 18.08 22.76 25.11ZM565.07 273.14c-9.6-3.02-19.8-4.69-30.4-4.69-20.06 0-38.73 5.85-54.45 15.91-9.6 6.14-18.1 13.85-25.14 22.77 7.06 8.94 15.58 16.66 25.21 22.82 15.71 10.04 34.35 15.88 54.38 15.88 10.56 0 20.72-1.65 30.29-4.65 19.69-6.18 36.8-18.2 49.3-34.04-12.48-15.81-29.54-27.81-49.19-34.01ZM307.12 455.09c-8.94 7.05-16.66 15.58-22.82 25.2-10.04 15.71-15.88 34.35-15.88 54.38 0 10.56 1.64 20.72 4.65 30.29 6.18 19.69 18.2 36.8 34.04 49.3 15.81-12.48 27.81-29.54 34.01-49.19 3.03-9.6 4.69-19.8 4.69-30.4 0-20.06-5.85-38.73-15.91-54.45-6.14-9.6-13.85-18.1-22.77-25.14Z"></path><path d="M335.05 146.87c2.9 6.1 6.36 11.93 10.4 17.35 6.2-2.67 12.07-6.02 17.63-9.85-2.82-23.85 2.01-48.08 14.32-69.41 7.27-12.59 16.74-23.41 27.79-32.13-2.86-15.41-9.23-29.9-18.51-42.35-14.3 6.15-27.06 15.58-37.26 27.53 5.17 13.04 7.94 27.09 7.94 41.58 0 24.64-7.94 48.04-22.31 67.28Z"></path><path d="M387.4 90.73c-10.03 17.37-14.29 36.45-13.44 55.09.52 11.39 2.95 22.61 7.15 33.17 11.28-1.64 22.23-5.18 32.38-10.45 16.53-8.58 30.91-21.79 40.92-39.13 5.28-9.15 8.94-18.77 11.12-28.55 4.49-20.14 2.64-40.97-4.83-59.71-19.91 2.9-38.74 11.76-53.92 25.65-7.44 6.81-14.07 14.73-19.38 23.93Z"></path><path d="M411.5 182.28c-.55 6.74-.52 13.53.27 20.25 6.7.79 13.47.82 20.19.28 9.48-22.06 25.78-40.63 47.11-52.95 12.39-7.16 26.02-11.83 40.06-13.88 5.25-14.79 7.03-30.54 5.21-45.98-15.45-1.82-31.22-.04-46.03 5.21-2.04 13.88-6.67 27.43-13.91 39.97-12.31 21.32-30.87 37.6-52.91 47.09Z"></path><path d="M484.85 159.86c-17.36 10.02-30.59 24.42-39.17 40.99-5.25 10.13-8.77 21.05-10.41 32.31 10.59 4.22 21.84 6.64 33.25 7.16 18.62.84 37.67-3.43 55.01-13.44 9.17-5.29 17.06-11.89 23.85-19.3 13.93-15.19 22.83-34.05 25.73-54-18.71-7.45-39.49-9.31-59.6-4.85-9.82 2.18-19.49 5.84-28.67 11.14Z"></path><path d="M529.3 236.86c-17.11 9.88-36.56 15.1-56.22 15.1-4.4 0-8.75-.34-13.09-.84-3.87 5.59-7.25 11.5-9.94 17.74 5.4 4.03 11.21 7.49 17.29 10.38 19.26-14.39 42.67-22.34 67.33-22.34 14.52 0 28.6 2.78 41.67 7.98 11.92-10.18 21.33-22.92 27.47-37.18-12.46-9.3-26.99-15.69-42.43-18.54-8.72 11.02-19.51 20.45-32.07 27.7ZM576.25 349.43c-13.04 5.17-27.09 7.94-41.57 7.94-24.64 0-48.05-7.94-67.29-22.31-6.1 2.9-11.93 6.36-17.35 10.4 2.68 6.23 6.05 12.12 9.89 17.7 4.35-.51 8.72-.85 13.13-.85 19.67 0 39.12 5.22 56.23 15.1 12.59 7.27 23.41 16.74 32.13 27.79 15.41-2.86 29.9-9.23 42.35-18.51-6.15-14.3-15.57-27.06-27.53-37.26Z"></path><path d="M523.53 387.41c-17.37-10.03-36.45-14.29-55.09-13.44-11.39.52-22.61 2.94-33.17 7.15 1.64 11.28 5.18 22.24 10.45 32.38 8.58 16.54 21.79 30.91 39.13 40.92 9.15 5.28 18.77 8.94 28.55 11.12 20.14 4.49 40.97 2.64 59.71-4.83-2.9-19.91-11.76-38.74-25.65-53.92-6.81-7.44-14.73-14.07-23.93-19.38Z"></path><path d="M479.06 464.41c-21.32-12.31-37.61-30.86-47.09-52.9-6.74-.55-13.52-.52-20.25.27-.79 6.7-.82 13.47-.28 20.19 22.06 9.48 40.63 25.78 52.95 47.12 7.26 12.57 11.89 26.16 13.93 40.07 14.78 5.23 30.51 7.01 45.93 5.2 1.83-15.47.04-31.25-5.23-46.08-14.01-2.06-27.59-6.73-39.95-13.87Z"></path><path d="M454.39 484.85c-10.02-17.36-24.42-30.59-40.99-39.18-10.13-5.25-21.05-8.77-32.31-10.41-4.22 10.59-6.64 21.84-7.16 33.25-.84 18.62 3.43 37.67 13.44 55.01 5.29 9.17 11.89 17.06 19.3 23.85 15.19 13.94 34.05 22.83 54 25.73 7.46-18.71 9.32-39.49 4.86-59.6-2.18-9.82-5.84-19.49-11.14-28.67Z"></path><path d="M377.38 529.31c-12.31-21.32-17.13-45.53-14.32-69.36-5.57-3.85-11.45-7.21-17.67-9.89-4.03 5.4-7.49 11.21-10.38 17.29 14.39 19.26 22.34 42.67 22.33 67.33 0 14.52-2.78 28.6-7.98 41.67 10.18 11.92 22.92 21.33 37.18 27.47 9.3-12.46 15.69-26.99 18.54-42.43-11.02-8.72-20.45-19.51-27.71-32.07ZM279.2 467.38c-2.9-6.1-6.36-11.93-10.4-17.35-6.2 2.67-12.08 6.02-17.63 9.85 2.82 23.85-2.01 48.07-14.33 69.41-7.27 12.59-16.74 23.4-27.79 32.13 2.86 15.41 9.23 29.9 18.51 42.35 14.3-6.15 27.06-15.57 37.26-27.53-5.17-13.04-7.94-27.09-7.94-41.57 0-24.64 7.95-48.04 22.32-67.29Z"></path><path d="M226.84 523.52c10.03-17.37 14.3-36.45 13.45-55.09-.52-11.39-2.94-22.61-7.15-33.17-11.28 1.64-22.24 5.18-32.38 10.45-16.54 8.58-30.91 21.79-40.92 39.13-5.28 9.14-8.94 18.77-11.12 28.55-4.49 20.14-2.64 40.97 4.82 59.71 19.91-2.9 38.74-11.76 53.92-25.64 7.44-6.81 14.07-14.73 19.38-23.93Z"></path><path d="M202.75 431.97c.55-6.74.52-13.52-.27-20.25-6.7-.79-13.47-.82-20.19-.28-9.48 22.06-25.78 40.63-47.12 52.95-12.4 7.15-26.02 11.82-40.06 13.88-5.25 14.79-7.03 30.54-5.22 45.98 15.45 1.83 31.22.04 46.03-5.21 2.04-13.88 6.67-27.43 13.91-39.97 12.32-21.32 30.87-37.6 52.91-47.09Z"></path><path d="M129.4 454.39c17.36-10.02 30.59-24.42 39.18-40.99 5.25-10.13 8.77-21.05 10.41-32.31-10.59-4.22-21.84-6.64-33.25-7.16-18.62-.84-37.67 3.43-55.01 13.44-9.17 5.29-17.06 11.89-23.85 19.3-13.94 15.19-22.83 34.05-25.73 54 18.71 7.46 39.49 9.32 59.6 4.86 9.82-2.18 19.49-5.84 28.67-11.14Z"></path><path d="M84.95 377.37c17.11-9.87 36.55-15.1 56.22-15.1 4.4 0 8.76.34 13.1.84 3.87-5.58 7.25-11.5 9.93-17.74-5.4-4.03-11.21-7.49-17.29-10.38-19.25 14.38-42.66 22.33-67.31 22.33h-.02c-14.52 0-28.6-2.78-41.67-7.98-11.92 10.18-21.33 22.92-27.47 37.18 12.46 9.3 26.99 15.69 42.43 18.55 8.72-11.02 19.51-20.45 32.07-27.7Z"></path><path d="M79.58 345.79c20.06 0 38.73-5.85 54.45-15.91 9.6-6.14 18.1-13.85 25.14-22.77-7.05-8.94-15.58-16.67-25.2-22.82-15.71-10.04-34.35-15.88-54.38-15.88-10.56 0-20.72 1.64-30.29 4.65-19.69 6.18-36.8 18.2-49.3 34.03 12.47 15.81 29.54 27.82 49.19 34.01 9.59 3.03 19.8 4.69 30.4 4.69Z"></path><path d="M38.02 264.8c13.04-5.17 27.08-7.93 41.56-7.93 24.65 0 48.06 7.94 67.3 22.32 6.1-2.9 11.93-6.36 17.35-10.4-2.68-6.23-6.05-12.12-9.89-17.7-4.34.5-8.71.84-13.12.84-19.68 0-39.13-5.23-56.25-15.11-12.59-7.27-23.41-16.73-32.13-27.78-15.41 2.86-29.9 9.23-42.35 18.5 6.15 14.3 15.57 27.06 27.53 37.26Z"></path><path d="M90.74 226.83c17.37 10.03 36.45 14.3 55.09 13.45 11.39-.52 22.61-2.94 33.17-7.15-1.64-11.28-5.18-22.24-10.44-32.38-8.58-16.54-21.79-30.91-39.12-40.92-9.14-5.28-18.77-8.94-28.55-11.12-20.14-4.49-40.97-2.64-59.71 4.82 2.89 19.91 11.75 38.74 25.64 53.92 6.81 7.44 14.73 14.07 23.93 19.38Z"></path><path d="M135.2 149.84c21.32 12.31 37.6 30.86 47.09 52.91 6.74.55 13.53.52 20.25-.27.79-6.7.82-13.47.28-20.19-22.06-9.49-40.63-25.78-52.94-47.12-7.26-12.57-11.89-26.16-13.93-40.07-14.78-5.24-30.51-7.01-45.93-5.2-1.83 15.47-.04 31.25 5.23 46.08 14 2.07 27.59 6.73 39.95 13.87Z"></path><path d="M159.88 129.39c10.02 17.36 24.42 30.59 40.98 39.18 10.12 5.25 21.05 8.77 32.31 10.41 4.22-10.59 6.64-21.84 7.16-33.25.84-18.62-3.43-37.67-13.43-55.01-5.29-9.17-11.89-17.06-19.3-23.85-15.19-13.94-34.05-22.83-54-25.73-7.46 18.71-9.32 39.49-4.86 59.6 2.18 9.82 5.84 19.49 11.14 28.67Z"></path><path d="M236.89 84.94c12.31 21.32 17.13 45.54 14.32 69.36 5.57 3.85 11.45 7.21 17.67 9.89 4.03-5.4 7.48-11.19 10.37-17.27-14.4-19.26-22.35-42.68-22.35-67.35 0-14.54 2.78-28.63 7.99-41.71-10.18-11.91-22.9-21.3-37.15-27.44-9.3 12.46-15.69 26.99-18.55 42.43 11.02 8.72 20.45 19.51 27.7 32.07Z"></path><circle cx="307.13" cy="307.13" r="138.27"></circle></svg>