<svg data-name="Layer 1" xmlns="http://www.w3.org/2000/svg" viewBox="0 0 530.84 610.81"><path d="M276.43 0c-45.49 0-88.19 12.06-125.18 33.06V7.53H0v603.28h151.25V475.75c36.99 21 79.69 33.06 125.18 33.06 140.28 0 254.41-114.13 254.41-254.41S416.71 0 276.43 0Zm0 410.3c-85.96 0-155.89-69.93-155.89-155.89S190.47 98.52 276.43 98.52s155.89 69.93 155.89 155.89S362.39 410.3 276.43 410.3Z"></path><path d="M291.82 126.33h-30.78v111.53H149.52v30.78h111.52v111.52h30.78V268.64h111.52v-30.78H291.82V126.33z"></path></svg>