<svg xmlns="http://www.w3.org/2000/svg" width="620.3" viewBox="0 0 620.3 590.1" height="590.1" xml:space="preserve" style="enable-background:new 0 0 620.3 590.1"><path d="M620.2 225.2c-.2-.5-.6-1-1.1-1.1l-190.7-60.5L311.6.7c-.6-.9-2.2-.9-2.8 0l-116.6 163-191 60.4c-.5.2-1 .6-1.1 1.1-.2.5-.1 1.1.2 1.5L117.8 389v199.4c0 .5.2 1.1.7 1.4.5.3 1 .4 1.5.2l190.2-59.9 190 59.9c.2.1.4.1.5.1.4 0 .7-.1 1-.3.5-.3.7-.9.7-1.4l.2-199.4L620 226.8c.3-.5.4-1 .2-1.6zm-12.6-1.1-75.2.2 23-16.7 52.2 16.5zm-56.1-17.8-24.8 18-140.7.3 42.1-57.4 123.4 39.1zM360.8 309.2l38-27.6 9 27.6h-47zm43.7 3.4L366 340.5l-9.1-27.9h47.6zm-48.9-3.9-9.2-28.3 48.3-.1-39.1 28.4zM329.5 228h49.6l-34.4 47-15.2-47zm12.3 49h-29.2l14.7-45 14.5 45zm-13.4-52.4-15-46.6 64.2 46.6h-49.2zm-18.3 48.9L295.3 228h29.6l-14.8 45.5zm-2.4 3.5h-29.1l14.5-45 14.6 45zm-15.8-52.4h-49.1L307 178l-15.1 46.6zm-1.1 3.4-15.3 47.3-34.4-47.3h49.7zm-31.1 81.2h-47.1l9-27.7 38.1 27.7zm-34-28.9 47.9.1-9 28.1-38.9-28.2zm37.6 32.3-8.9 27.9-38.6-27.9h47.5zm-53.9-4.6L171 280.2l47.4.1-9 27.7zm-1.1 3.4L193 358.5l-24.1-75.6 39.4 28.5zm2.9 2.1 40.4 29.2-55.9 18.6 15.5-47.8zm27.6 85.6 23.5 16.9-38.1 27.8 14.6-44.7zm-18 43.8-24.6-74.4 39.6 28.5-15 45.9zm16.2-49.3-40.4-29 56-18.6-15.6 47.6zm19.1-47.6 24.1 17.5-39.1 28.4 15-45.9zm1.1-3.4 9.2-28.5 24.7 17.9-9.3 28.4-24.6-17.8zm13-30h27.2l-5.2 16-22-16zm-2.2-3.4 9.2-28.8h30.7l-9.4 28.8H268zm42.1-24.7 8 24.7H302l8.1-24.7zm2.3-4.1h30.5l9.3 28.8h-30.5l-9.3-28.8zm37.8 32.2-22.1 16.1-5.2-16.1h27.3zm3.7 1.6 9.2 28.5-24.6 17.9-9.2-28.4 24.6-18zm10.3 31.9 14.9 45.7-38.9-28.3 24-17.4zm3.6-.1 56 18.6-40.4 29.1-15.6-47.7zm11.8 50.3-23.9 17.2-14.7-45.2 38.6 28zm14.6 50.4h-78.8l39.7-28.5 39.1 28.5zM358.1 416l23.5-16.9 14.6 44.7-38.1-27.8zm26.4-19 39.6-28.5-24.6 74.4-15-45.9zm-15.6-54.2 40.3-29.2 15.5 47.7-55.8-18.5zm33-62.5 47.4-.1L411 308l-9.1-27.7zm-1.1-3.4-15.1-46.4 63.7 46.3-48.6.1zm-3.5 0-49.7.1 34.5-47.1 15.2 47zm-85.1-104.1L337.8 93l41.5 128.6-67.1-48.8zm12.6 51.8h-29.4l14.7-45.5 14.7 45.5zm-83.8-3 41.5-128.7 25.6 79.9-67.1 48.8zm31.5 55.4-49.4-.1 15.2-46.9 34.2 47zm-53-.1-48.6-.1 63.7-46.3-15.1 46.4zm-53.9-.5-67.2-48.7 133.8.3-66.6 48.4zm24.1 83.2L79.9 280.2h84.5l25.3 79.4zm.6 7.1-43.8 133.9-25.3 18.4V389.7l69.1-23zm2.7 2.8 25.9 78.2-67.6 49.4L193 369.5zm29.1 80.6H305l-110.4 81 27.5-81zm4-3.4 39.1-28.5 39.7 28.5h-78.8zm38.5-33.2-23.8-17.1 38.4-27.9-14.6 45zm19-47.5 23.6 17.2-38.3 28 14.7-45.2zm10.4-31.9 13.3 9.7-21.6 15.7 8.3-25.4zm1.1-3.4 5.9-18.1h18.3l5.9 18.2-15 10.9-15.1-11zm31.2 3.6 8.2 25.1-21.3-15.5 13.1-9.6zm10.4 31.8 14.6 45-38.2-27.9 23.6-17.1zm15.5 49.9L312 445v-58.4l40.2 29.4zm46.1 34.1 27.5 81-110.4-81h82.9zm29.1-80.6 41.8 127.6-67.6-49.4 25.8-78.2zm0-11-15.3-47 39.4-28.5-24.1 75.5zm28.5-78.3h84.5l-109.9 79.5 25.4-79.5zm-1.2-3.8L388.1 228l133.8-.3-67.2 48.7zm-29.5-111.3-42 57.4-43.5-135 9.3-28.8 76.2 106.4zM346.4 55.2l-8.6 26.7-22.7-70.3 31.3 43.6zm-36.2-48L336 87.5l-25.9 80.4-25.8-80.5 25.9-80.2zm-5 4.4-22.6 70.2-8.6-26.6 31.2-43.6zm-33.7 47 9.2 28.7-43.6 135.2-41.8-57.5 76.2-106.4zm-79 108.5 41.8 57.4-140.6-.3-24.8-18 123.6-39.1zM64.8 207.6l23 16.7-75.2-.2 52.2-16.5zm27.8 20.1 67.8 49.1H75.2L7 227.5l85.6.2zm-83.3 5.7 60 43.4H40.8L9.3 233.4zm33.9 46.8H74l115.1 83.3-69 23-76.9-106.3zm78 243 23.4-17.1-23.4 71.6v-54.5zm28.2-20.6 68.1-49.7-27.7 81.7-67 49.2 26.6-81.2zm-20.6 81 59-43.3-9.4 27.7-49.6 15.6zm179.7-56.5-126 39.7 10.2-30 115.9-85.1v75.4zm0-82L268.1 416l40.5-29.5v58.6zm1.7-64L286 363.5l24.2-17.6 24.2 17.6-24.2 17.6zm1.8 146v-75.3l115.7 84.9 10.2 30L312 527.1zM441.8 568l-9.4-27.7 59 43.3-49.6-15.6zm-11.3-33.4-27.7-81.7 68.1 49.7 26.6 81.2-67-49.2zm68.6 43.1-23.4-71.6 23.5 17.1-.1 54.5zm.1-58.7-25.3-18.5L430 366.7l69.2 23V519zm1.1-132.6-69.2-23 115.1-83.3h30.9l-76.8 106.3zm79.3-109.6H551l60-43.4-31.4 43.4zm-34.4 0H460l67.8-49.1 85.6-.2-68.2 49.3z"></path></svg>