<svg xmlns="http://www.w3.org/2000/svg" width="478.3" viewBox="0 0 478.3 627.5" height="627.5" xml:space="preserve" style="enable-background:new 0 0 478.3 627.5"><path d="M223.4 0c-30 0-59.8 5.4-87.8 15.6-18 6.6-89.2 53.7-135.6 88.3v433.9l132.7 89.7.2-140.9c28.2 15.8 57.9 27.3 90.6 27.3 141.9 0 254.8-115 254.8-256.9 0-142-113-257-254.9-257zm.4 383.6c-29.5 0-54.3-10.7-78.2-27C145.5 356.5 0 259 0 259s151.8-104.3 155.1-106.4c20.4-13.1 44.4-22.4 68.7-22.4 70 0 126.7 56.7 126.7 126.7s-56.7 126.7-126.7 126.7z"></path><path d="M318.4 256.4c0 52.8-42.8 95.5-95.5 95.5-52.8 0-95.5-42.8-95.5-95.5 0-52.8 42.8-95.5 95.5-95.5s95.5 42.7 95.5 95.5z"></path></svg>