<svg xmlns="http://www.w3.org/2000/svg" width="373" viewBox="0 0 373 559.9" height="559.9"><path d="M186.5 559.9C213.5 391.1 373 397.2 373 397.2V204.8s-159.5-11-186.5 157.8C159.5 193.8 0 204.8 0 204.8v192.4s159.5-6.1 186.5 162.7zM0 132.8c0 34.5 28 62.4 62.4 62.4 34.5 0 62.4-28 62.4-62.4 0-34.5-28-62.4-62.4-62.4C28 70.3 0 98.3 0 132.8z"></path><circle transform="rotate(-12.222 186.483 62.435)" cx="186.5" cy="62.4" r="62.4"></circle><path d="M248.1 132.8c0 34.5 27.9 62.4 62.4 62.4s62.4-28 62.4-62.4c0-34.5-28-62.4-62.4-62.4-34.5-.1-62.4 27.9-62.4 62.4z"></path></svg>