<svg xmlns="http://www.w3.org/2000/svg" width="613.6" viewBox="0 0 613.6 617.9" height="617.9" xml:space="preserve" style="enable-background:new 0 0 613.6 617.9"><path d="M101.9 420.3c-28.7 0-54.4 13.3-71.3 34l32.5 32.5c12-4.8 25.1-7.5 38.8-7.5 39.6 0 74.1 22.1 91.9 54.5v-21.5c0-50.8-41.2-92-91.9-92zM511.7 420.3c-50.7 0-91.9 41.2-91.9 91.9v21.5c17.8-32.5 52.3-54.5 91.9-54.5 13.7 0 26.8 2.7 38.8 7.5l32.5-32.5c-16.9-20.6-42.6-33.9-71.3-33.9zM215.7 617.9h182.2l-91.1-91.1z"></path><path d="M613.5 100.1C611.2 44.4 565.4 0 509.1 0S407 44.4 404.8 100.1h-196C206.6 44.4 160.7 0 104.5 0 48.2 0 2.4 44.4.1 100.1H0v323.6l21.5 21.5c19.2-23 48.1-37.7 80.4-37.7 57.8 0 104.8 47 104.8 104.8l-.1 96.6 90.1-90.1-102.9-103V300.2h-82.6V198.5c53.3 3.3 95.4 47.6 95.4 101.7v110.3l100.1 100.1 100.1-100.1V300.2c0-54.1 42.2-98.3 95.4-101.7v101.7h-82.6v115.6L316.9 518.7l90.1 90.1-.1-96.6c0-57.8 47-104.8 104.8-104.8 32.3 0 61.2 14.7 80.4 37.7l21.5-21.5V100.1h-.1zM98.4 300.2H2.9c0-54.1 42.2-98.3 95.4-101.7v101.7zm416.8 0V198.5c53.3 3.3 95.4 47.6 95.4 101.7h-95.4z"></path><path d="M101.9 492.1c-10.1 0-19.7 1.6-28.8 4.7l120.7 120.7v-35.8c-1.3-49.6-42-89.6-91.9-89.6zM419.8 581.7v35.8l120.7-120.7c-9.1-3-18.7-4.7-28.8-4.7-49.9 0-90.6 40-91.9 89.6z"></path></svg>