<svg data-name="Layer 1" xmlns="http://www.w3.org/2000/svg" viewBox="0 0 499.75 615.95"><path d="M289.03 8.12v233.2c0 19.8-14.22 37.52-33.88 39.91-23.56 2.86-43.58-15.45-43.58-38.44V8.12c0-4.48-3.63-8.12-8.12-8.12H8.12C3.63 0 0 3.63 0 8.12v596.31c0 6.36 5.16 11.52 11.52 11.52h172.61c174.31 0 315.62-141.31 315.62-315.62V8.12c0-4.48-3.63-8.12-8.12-8.12H297.15c-4.48 0-8.12 3.63-8.12 8.12Zm-149.8 392.4c-28.26 6.26-52.88-18.36-46.61-46.61 3.16-14.24 14.65-25.73 28.89-28.89 28.26-6.26 52.88 18.36 46.61 46.61-3.16 14.24-14.65 25.73-28.89 28.89Zm0-119.98c-28.26 6.26-52.88-18.36-46.61-46.61 3.16-14.24 14.65-25.73 28.89-28.89 28.26-6.26 52.88 18.36 46.61 46.61-3.16 14.24-14.65 25.73-28.89 28.89Zm119.93 119.98c-28.26 6.26-52.88-18.36-46.61-46.61 3.16-14.24 14.65-25.73 28.89-28.89 28.26-6.26 52.88 18.36 46.61 46.61-3.16 14.24-14.65 25.73-28.89 28.89Z"></path></svg>