<svg xmlns="http://www.w3.org/2000/svg" width="623.6" viewBox="0 0 623.6 440.7" height="440.7" xml:space="preserve" style="enable-background:new 0 0 623.6 440.7"><path d="M180.9 174.9h-48.1L0 307.8l132.8 132.9h48.1L48 307.8z"></path><path d="M267.3 174.9h-48.1L86.4 307.8l132.8 132.9h48.1L134.4 307.8z"></path><path d="m225.1 307.5 132.6-132.6h-48.1L176.8 307.8zM398 174.9 265.2 307.8l48.3-.3 132.6-132.6z"></path><path d="m446.2 89 89-89h-48.1l-88.9 89 85.9 85.9-132.8 132.9 48.3-.3 132.5-132.6z"></path><path d="M623.6 0h-48.1l-88.9 89 85.9 85.9-132.8 132.9 48.3-.3 132.5-132.6L534.6 89z"></path></svg>