<svg data-name="Layer 1" xmlns="http://www.w3.org/2000/svg" viewBox="0 0 612.77 612.66"><path d="M612.72 225.34c0-40.69-32.98-73.67-73.67-73.67s-73.67 32.98-73.67 73.67c0 65.57-26 126.85-73.11 172.5-26.79 25.89-58.59 44.91-93.2 56v-15.42c88.3-30.56 151.73-114.36 151.73-213.02C450.8 100.91 349.89 0 225.4 0S0 100.91 0 225.4c0 97.08 61.34 179.81 147.4 211.5V225.4c0-43 35.01-78 78-78s78 35.01 78 78-35.01 78-78 78c-26.06 0-49.08-12.89-63.26-32.59v341.84h63.26c101.08 0 196.7-38.66 269.3-108.96 76.09-73.61 118.02-172.5 118.02-278.36Z"></path><path d="M465.94 547.43c4.22 36.69 35.34 65.17 73.16 65.17 40.69 0 73.67-32.98 73.67-73.67V333.51c-18.85 68.04-55.49 130.12-107.78 180.71-12.38 11.99-25.44 22.96-39.06 33.15v.06Z"></path></svg>