<svg xmlns="http://www.w3.org/2000/svg" width="617.2" viewBox="0 0 617.2 617.2" height="617.2" style="enable-background:new 0 0 617.2 617.2" xml:space="preserve"><path d="M152.4 379.5H0V76.2C0 34.1 34.1 0 76.2 0s76.2 34.1 76.2 76.2v303.3zM384.8 379.5H232.4V76.2c0-42.1 34.1-76.2 76.2-76.2s76.2 34.1 76.2 76.2v303.3zM617.2 379.5H464.8V76.2C464.8 34.1 498.9 0 541 0s76.2 34.1 76.2 76.2v303.3zM462.9 534.3c-39.7 0-75.8-15-103.1-39.7-31.4-28.3-51.2-69.4-51.2-115.1 0 44.2-18.5 84-48.1 112.2-27.7 26.3-65 42.5-106.2 42.5C69.1 534.3 0 465 0 379.5v182c41.2 34.7 94.3 55.7 152.4 55.7 61 0 116.5-23.1 158.5-61 42 37.9 97.6 61 158.5 61 55.9 0 107.2-19.5 147.8-51.9V379.5c0 85.5-69.1 154.8-154.3 154.8z"></path></svg>