<svg id="Layer_1" data-name="Layer 1" xmlns="http://www.w3.org/2000/svg" viewBox="0 0 496.3 622.05">   <polygon points="150.9 150.9 0 150.9 0 206.6 206.6 206.6 206.6 0 150.9 0 150.9 150.9"></polygon>   <polygon points="345.4 150.9 345.4 0 289.71 0 289.71 206.6 496.3 206.6 496.3 150.9 345.4 150.9"></polygon>   <polygon points="289.71 622.05 345.4 622.05 345.4 345.4 496.3 345.4 496.3 289.71 289.71 289.71 289.71 622.05"></polygon>   <polygon points="0 345.4 150.9 345.4 150.9 622.05 206.6 622.05 206.6 289.71 0 289.71 0 345.4"></polygon>   <path d="M247.21,131.81c-20.65,0-37.39,16.74-37.39,37.39s16.74,37.39,37.39,37.39,37.39-16.74,37.39-37.39-16.74-37.39-37.39-37.39Z"></path> </svg>