<svg xmlns="http://www.w3.org/2000/svg" width="494.3" viewBox="0 0 494.3 623.9" height="623.9" xml:space="preserve"><path d="M0 123.4v129.2L51.4 304l64.6-64.6zM494.3 500.9V371.7l-51.4-51.4-64.6 64.6zM.8 371.7v129.2l123 123 114.4-114.4-64.6-64.6-49.8 49.8zM295.8 302.4l64.6-64.6L123 .4 10.1 113.3l64.6 64.6 48.3-48.3zM196.2 319.5l-64.7 64.7 239.8 239.7L484.2 511l-64.6-64.6-48.3 48.3z"></path><path d="M171.1 199 8.4 361.7 73 426.3l162.7-162.7zM257.29 360.388l162.704-162.704 64.63 64.63L321.92 425.016z"></path><path d="m255.7 114.4 64.6 64.6 49.8-49.8 121.5 121.4V121.4l-56.9-56.8L370.1 0z"></path></svg>