<svg data-name="Layer 1" xmlns="http://www.w3.org/2000/svg" viewBox="0 0 551.13 540.83"><path d="M322 .08v268.08c0 23.55-19.7 44.14-43.21 45.16-27 1.5-49.34-19.22-49.05-46.26-.01-56.72 0-174.79 0-174.79h-22.4s.17 118.28-.06 175.11c-.12 31.16 21.77 60.49 55.31 67.29 42.05 8.85 82.62-25.2 81.75-68.05.03-87.18.03-266.54.03-266.54L551.1 0s.18 181.43-.23 269.78c-.18 39.57-9.28 77.37-26.32 113.16-46.14 99.91-155.24 165.02-265.13 157.26-107.46-5.19-205.55-77.94-242.17-179.07C4.95 329.12-.02 295.01.06 260.8-.02 175.38 0 0 0 0h92.25s-.32 178.53 0 265.59c.15 42.23 13.46 80.25 39.94 113.32 93.64 119.56 286.92 76.07 321.34-71.57 3.43-13.92 4.9-28.09 4.9-42.42 0-56.13.05-172.65.05-172.65h-22.56s.09 90.12.08 133.36c1.74 47.02-.31 95.74-30.9 134.11-68.51 96.97-222.47 83.7-273.69-23.37-12.42-24.53-17.22-51.42-16.76-78.76-.02-84.14-.02-257.61-.02-257.61L322 .08Z"></path></svg>