<svg xmlns="http://www.w3.org/2000/svg" width="620.4" viewBox="0 0 620.4 503.9" height="503.9" xml:space="preserve" style="enable-background:new 0 0 620.4 503.9"><path d="M495.9 0h-33.3v102.3H496c12.5 0 22.6 10.1 22.6 22.6v.8c0 12.4-10.1 22.5-22.6 22.5h-33.4v100.7h33.3c68.7 0 124.5-55.7 124.5-124.5C620.4 55.7 564.7 0 495.9 0zM337.3 0H304v102.3h33.4c12.5 0 22.6 10.1 22.6 22.6v.8c0 12.4-10.1 22.5-22.6 22.5H304v100.7h33.3c68.7 0 124.5-55.7 124.5-124.5C461.8 55.7 406 0 337.3 0zM178.7 0h-33.3v102.3h33.4c12.4 0 22.5 10.1 22.5 22.6v.8c0 12.4-10.1 22.5-22.5 22.5h-33.4v100.7h33.3c68.7 0 124.4-55.7 124.4-124.5C303.1 55.7 247.4 0 178.7 0zM495.9 255h-33.3v102.3H496c12.5 0 22.6 10.1 22.6 22.5v.8c0 12.5-10.1 22.5-22.6 22.5h-33.4v100.7h33.3c68.7 0 124.5-55.7 124.5-124.5 0-68.6-55.7-124.3-124.5-124.3zM337.3 255H304v102.3h33.4c12.5 0 22.6 10.1 22.6 22.5v.8c0 12.5-10.1 22.5-22.6 22.5H304v100.7h33.3c68.7 0 124.5-55.7 124.5-124.5 0-68.6-55.8-124.3-124.5-124.3zM178.7 255h-33.3v102.3h33.4c12.4 0 22.5 10.1 22.5 22.5v.8c0 12.5-10.1 22.5-22.5 22.5h-33.4v100.7h33.3c68.7 0 124.4-55.7 124.4-124.5 0-68.6-55.7-124.3-124.4-124.3zM0 0h138.4v503.9H0z"></path></svg>