<svg id="Layer_1" data-name="Layer 1" xmlns="http://www.w3.org/2000/svg" viewBox="0 0 623.22 463.83">   <path d="M571.25,163.48l-78.52,134.96-6.04-3.51,76.48-131.45h-47.93s-78.52,134.96-78.52,134.96l-6.04-3.51,76.48-131.45h-51.97s-86.48,148.64-86.48,148.64c-4.22,7.25-14.71,7.24-18.9-.03l-85.8-148.61-39.05,67.58c-59.73,103.45,14.93,232.77,134.39,232.77h0c55.99,0,107.72-29.87,135.71-78.35l44.15-76.47,84.02-145.52h-51.97Zm-302.14,68.35c-4.8,0-8.68-3.89-8.68-8.68s3.89-8.68,8.68-8.68,8.68,3.89,8.68,8.68-3.89,8.68-8.68,8.68Z"></path>   <path d="M273.42,151.74l85.8,148.61,39.05-67.58C458,129.32,383.34,0,263.88,0h0c-55.99,0-107.72,29.87-135.71,78.35l-44.15,76.47L0,300.35H51.97s78.52-134.96,78.52-134.96l6.04,3.51L60.05,300.35h47.93s78.52-134.96,78.52-134.96l6.04,3.51-76.48,131.45h51.97s86.48-148.64,86.48-148.64c4.22-7.25,14.71-7.24,18.9,.03Zm80.69,80.26c4.8,0,8.68,3.89,8.68,8.68s-3.89,8.68-8.68,8.68-8.68-3.89-8.68-8.68,3.89-8.68,8.68-8.68Z"></path> </svg>