<svg data-name="Layer 1" xmlns="http://www.w3.org/2000/svg" viewBox="0 0 628.25 597.49"><path d="m515.05 146-124.68 85.6-26.64 82.01 68.74 49.93 151.62-.91 44.17-133.43-113.2-83.2Zm-109.52 96.93 92.48-63.49-30.3 91.55-79.53 25.36 17.35-53.41Zm-11.68 70.41 79.3-25.29 77.35 56.85-112.27.67-44.39-32.24Zm179.12 25.84-87.64-64.42 34.18-103.26 87.64 64.42-34.18 103.26ZM264.53 313.61l-26.64-82.01L113.21 146 0 229.2l44.17 133.43 151.62.91 68.74-49.93Zm-24.45-17.27-79.53-25.36-30.3-91.55 92.48 63.49 17.35 53.41ZM21.1 235.92l87.64-64.42 34.18 103.26-87.64 64.42L21.1 235.92Zm56.65 108.99 77.35-56.85 79.3 25.29-44.39 32.24-112.27-.67ZM344.73 371.99l-26.25 80.8 47.71 143.92 140.55.78 44.15-133.37-119.94-92.13h-86.22Zm169.1 86.25-96.43-.53-48.69-67.8h56.16l88.96 68.33Zm-159.54-57.68 48.55 67.6-30.17 91.14-35.33-106.56 16.95-52.18ZM493.83 579.5l-108.77-.6 34.18-103.26 108.77.6-34.18 103.26ZM197.3 371.99 77.36 464.12l44.15 133.37 140.55-.78 47.71-143.92-26.25-80.8H197.3Zm6.09 17.92h56.16l-48.69 67.8-96.43.53 88.96-68.33Zm-103.14 86.33 108.77-.6L243.2 578.9l-108.77.6-34.18-103.26Zm155.34 83.06-30.17-91.14 48.55-67.6 16.95 52.18-35.33 106.57ZM427.83 82.61 314.12 0 200.46 82.58l43.68 144.8 70.04 50.3 68.45-50.32 45.2-144.73Zm-25.71 3.47-88 63.93-88-63.93 88-63.93 88 63.93Zm-174.97 22.89 78.02 56.68v83.47l-45.62-32.76-32.4-107.39Zm95.93 139.91v-83.23l77.67-56.43-33.47 107.16-44.2 32.49Z"></path></svg>