<svg data-name="Layer 1" xmlns="http://www.w3.org/2000/svg" viewBox="0 0 442.97 611.05"><path d="M277.4 26.21C263.58 9.55 243.24 0 221.6 0s-41.97 9.55-55.79 26.21L0 226.08l.24 309.46 121.72 75.51h199.27l121.73-75.51V225.79L277.4 26.21Zm-158.56 570.6L10.7 529.72v-248.1l-.22-49.91c3.82-1.2 7.86-1.9 12.1-1.9 17.71 0 32.61 10.91 37.96 27.78l24.45 77.42c5.23 15 18.49 24.95 33.84 26.06V596.8Zm196.29 3.79H128.07V360.79c14.68-2.21 26.65-12.26 31.27-26.83l24.2-76.36c5.35-16.88 20.25-27.79 37.96-27.79s32.61 10.91 37.96 27.79l24.2 76.36c4.64 14.63 16.7 24.69 31.46 26.85V600.6Zm5.47-249.77c-10.01-.14-22.35-5.48-26.96-20.03l-24.2-76.36c-6.76-21.32-25.58-35.09-47.94-35.09s-41.18 13.77-47.94 35.09l-24.2 76.36c-4.61 14.55-16.95 19.89-26.96 20.03-10 .25-22.49-4.84-27.47-19.11l-24.4-77.28c-6.76-21.32-25.58-35.09-47.94-35.09-1.22 0-2.4.12-3.59.22L134.48 80.36h174.25l115.49 139.2c-1.19-.1-2.38-.22-3.6-.22-22.36 0-41.18 13.78-47.93 35.08l-24.56 77.14c-5.02 14.41-17.36 19.49-27.52 19.26Zm111.9 178.9-108.15 67.08V361.04c15.45-1.26 28.43-11.08 33.69-26.16l24.61-77.28c5.35-16.88 20.25-27.79 37.96-27.79 4.17 0 8.14.68 11.9 1.84v298.08Z"></path></svg>