<svg xmlns="http://www.w3.org/2000/svg" width="612.4" viewBox="0 0 612.4 612.4" height="612.4" xml:space="preserve" style="enable-background:new 0 0 612.4 612.4"><path d="M195 153.1 315.9 0h-195L0 153.1v118.7c27 26 63 42 102.6 42 35.5 0 70.1-13.1 97.3-37l4.6-4 4.6 4c27.2 23.9 61.8 37 97.3 37 35.3 0 69.7-13 96.8-36.6l4.6-4 4.6 4c27.1 23.6 61.5 36.6 96.8 36.6 40 0 76.3-16.3 103.4-42.8V153.1H195z"></path><path d="M407.6 291.5c-28.9 23.3-64.6 36.1-101.3 36.1-36.9 0-72.9-13-101.9-36.6-29 23.6-64.9 36.6-101.9 36.6-38.7 0-74.4-13.9-102.6-37.3v168.9h417.3L296.5 612.4h195l120.8-153.1V289.6c-28.3 23.7-64.3 38-103.4 38-36.6 0-72.4-12.8-101.3-36.1z"></path></svg>