<svg data-name="Layer 1" xmlns="http://www.w3.org/2000/svg" viewBox="0 0 583.59 631.85"><path d="m306.425 345.21 33.983-33.983 80.85 80.85-33.983 33.984zM128 226.1c-35.09 35.09-35.09 92.19 0 127.29l165.97 165.97 33.99-33.99L161.99 319.4c-16.35-16.35-16.35-42.96 0-59.32s42.96-16.35 59.32 0l26.01 26.02 33.99-33.99-26.02-26.02c-35.1-35.1-92.2-35.1-127.29 0Z"></path><path d="m259.775 391.854 33.983-33.984 80.85 80.85-33.983 33.984z"></path><path d="M458.09 355.24c34.23-34.23 37.47-89.98 4.97-125.85-34.74-38.35-94.26-39.44-130.41-3.29L213.33 345.42l7.32 7.32c14.73 14.73 38.61 14.73 53.34 0l92.65-92.65c17.64-17.64 47.21-16.25 62.97 4.16 13.03 16.87 10.39 41.12-4.69 56.19l-24.98 24.98 33.99 33.99 24.17-24.17Z"></path><path d="M54.38 328.11c-5.24-105.57 57.94-200.4 157.21-235.98 31.53-11.3 52.72-41.2 52.72-74.39V0h-54.07v17.74c0 10.43-6.79 19.86-16.89 23.48C71.5 84.89-6.06 201.26.37 330.79c6.52 131.33 102.26 241.07 226.87 269.66l28.62-49.56C146.34 534.04 59.98 440.86 54.38 328.11ZM389.94 41.11c-9.92-3.54-16.58-12.92-16.58-23.35V0h-54.07v17.75c0 33.23 21.08 63.08 52.47 74.28 94.36 33.7 157.77 123.68 157.77 223.92 0 65.21-25.88 126.04-72.88 171.28-35.95 34.61-80.61 56.44-128.88 63.7l28.65 49.63c51.37-11.54 98.74-36.83 137.73-74.37C551.83 470.66 583.6 396 583.6 315.95c0-123.04-77.82-233.49-193.66-274.85ZM334.04 598.95l-26.44-45.8c-8.29.54-16.67.67-25.1.36-2.17-.08-4.32-.26-6.47-.4l-29.47 51.04-3.14 5.44-9.73 16.85c7.44 1.38 14.97 2.53 22.59 3.39l20.39-35.32c1.19-2.07 4.35-1.22 4.35 1.17v35.88c3.59.13 7.16.32 10.78.32s7.19-.19 10.78-.32v-35.88c0-2.39 3.16-3.23 4.35-1.17l20.39 35.32c7.62-.85 15.14-2 22.59-3.39l-12.81-22.18-3.06-5.3Z"></path></svg>