<svg data-name="Layer 1" xmlns="http://www.w3.org/2000/svg" viewBox="0 0 625.13 625.05"><path d="M312.56 0C140.22 0 0 140.22 0 312.57s138.5 310.76 309.37 312.48V450.76c0-1.71-.44-3.39-1.29-4.87l-.77-1.36c-.84-1.48-1.29-3.16-1.29-4.87v-42.51c0-3.6 2.94-6.54 6.54-6.54s6.54 2.94 6.54 6.54v42.51c0 1.71-.44 3.39-1.29 4.87l-.77 1.35c-.84 1.48-1.29 3.16-1.29 4.87v174.3c170.88-1.73 309.37-141.21 309.37-312.48S484.91 0 312.56 0Zm0 342.89c-30 0-54.31 24.32-54.31 54.31 0 19.51 10.32 36.57 25.77 46.15-24.26-10.94-41.21-35.29-41.21-63.58 0-38.46 31.29-69.75 69.75-69.75s69.76 31.29 69.76 69.75c0 28.29-16.96 52.65-41.21 63.58 15.45-9.58 25.77-26.63 25.77-46.15 0-30-24.32-54.31-54.31-54.31Zm0-68.03c-57.84 0-104.9 47.06-104.9 104.9 0 54.11 41.17 98.76 93.82 104.31-61.62-5.62-110.07-57.53-110.07-120.59 0-66.8 54.35-121.15 121.15-121.15s121.15 54.35 121.15 121.15c0 63.06-48.45 114.97-110.07 120.59 52.66-5.55 93.83-50.2 93.83-104.31 0-57.84-47.06-104.9-104.91-104.9Zm156.3 88.63c0-86.18-70.11-156.3-156.3-156.3s-156.3 70.11-156.3 156.3 65.41 151.47 147.53 156.04c-91.13-4.58-163.86-80.16-163.86-172.4S217.37 174.5 312.56 174.5s172.63 77.44 172.63 172.63-72.73 167.82-163.86 172.4c82.12-4.57 147.53-72.8 147.53-156.04Zm51.48-16.36c0-114.57-93.21-207.78-207.78-207.78s-207.78 93.21-207.78 207.78 87.08 201.5 196.36 207.45C182.35 548.62 87.53 450.1 87.53 329.85s100.96-225.03 225.03-225.03 225.02 100.95 225.02 225.02-94.81 218.76-213.61 224.73c109.28-5.95 196.37-96.71 196.37-207.45Zm-193.68 242.5c136.93-7.35 246.07-121.05 246.07-259.77S456.02 69.67 312.56 69.67 52.39 186.39 52.39 329.85s109.14 252.42 246.07 259.77C152.02 582.25 35.15 460.8 35.15 312.56S159.59 35.15 312.56 35.15 589.98 159.6 589.98 312.57 473.1 582.26 326.66 589.63Z"></path></svg>