<svg data-name="Layer 1" xmlns="http://www.w3.org/2000/svg" viewBox="0 0 625.71 625.81"><path d="M535.03 401.93h-304.6l-.38-173.72h304.98c28.48 0 51.56-23.08 51.56-51.56s-23.08-51.56-51.56-51.56H178.37c-13.69 0-26.83 5.45-36.5 15.14-9.67 9.69-15.09 22.84-15.06 36.53l.61 276.85c.06 28.43 23.13 51.45 51.56 51.45h356.05c28.48 0 51.56-23.09 51.56-51.56s-23.08-51.56-51.56-51.56Z"></path><path d="M574.14 263.5H312.9c-28.48 0-51.56 23.08-51.56 51.56s23.09 51.56 51.56 51.56h261.24c28.48 0 51.56-23.08 51.56-51.56s-23.08-51.56-51.56-51.56ZM312.9 0C226.86 0 148.95 34.75 92.38 90.95h441.06C476.86 34.75 398.95 0 312.9 0ZM87.65 529.97V95.84C33.42 152.11 0 228.58 0 312.91s33.42 160.8 87.65 217.07ZM312.9 625.81c83.92 0 160.07-33.1 216.26-86.88H96.65c56.19 53.78 132.33 86.88 216.26 86.88Z"></path></svg>