<svg data-name="Layer 1" xmlns="http://www.w3.org/2000/svg" viewBox="0 0 565.9 618.65"><path d="M282.95 261.22c30.39 0 55.03-24.64 55.03-55.03V55.03C337.98 24.64 313.35 0 282.95 0s-55.03 24.64-55.03 55.03v151.16c0 30.39 24.63 55.03 55.03 55.03Z"></path><path d="M347.99 60.38v115.16c63.19 25.76 107.85 87.82 107.85 160.16 0 95.34-77.56 172.9-172.89 172.9s-172.89-77.56-172.89-172.9c0-72.33 44.67-134.4 107.85-160.16V60.38C93.15 89.86 0 202.07 0 335.7c0 156.02 126.93 282.95 282.95 282.95S565.9 491.72 565.9 335.7c0-133.63-93.15-245.85-217.91-275.32Z"></path></svg>