<svg data-name="Layer 1" xmlns="http://www.w3.org/2000/svg" viewBox="0 0 627.43 627.43"><path d="M321.3 97.69V0h-15.17v97.69c2.52-.09 5.04-.19 7.58-.19s5.06.1 7.58.19ZM529.74 306.13c.09 2.52.19 5.04.19 7.58s-.1 5.06-.19 7.58h97.69v-15.17h-97.69ZM306.13 529.74v97.69h15.17v-97.69c-2.52.09-5.04.19-7.58.19s-5.06-.1-7.58-.19ZM0 306.13v15.17h97.69c-.09-2.52-.19-5.04-.19-7.58s.1-5.06.19-7.58H0ZM313.71 205.47c46.37 0 85.81 29.21 101.23 70.18h109.28c-17.53-97.56-101.17-172.14-202.93-175.69V195h-15.17V99.96C194 103.87 103.86 194.01 99.94 306.14h95.04v15.17H99.96c3.91 112.12 94.05 202.26 206.18 206.18v-95.04h15.17v95.04c101.75-3.55 185.39-78.13 202.93-175.69H414.96c-15.42 40.98-54.86 70.18-101.23 70.18-59.78 0-108.25-48.46-108.25-108.25s48.46-108.25 108.25-108.25Z"></path></svg>