<svg xmlns="http://www.w3.org/2000/svg" width="578.9" viewBox="0 0 578.9 578.9" height="578.9"><path d="M274.6 202.7l-1.3-135.3c-.2-16.4-13.7-29.6-30.2-29.4-16.5.2-29.7 13.7-29.5 30.2l.6 46.3c0 3.1-3.7 4.6-5.8 2.5L91.4 0 51.8 39.6l192.9 192.9 29.9-29.8zM114.5 214.1l-46.3-.6c-16.5-.2-30 13-30.2 29.5-.2 16.5 13 30 29.5 30.2l135.3 1.3 29.7-29.9L39.6 51.8 0 91.4l116.9 116.9c2.2 2.2.6 5.9-2.4 5.8zM322 256.9c-18-18-47.1-18-65.1 0-18 18-18 47.1 0 65.1 18 18 47.1 18 65.1 0 18-18 18-47.1 0-65.1zM376.2 274.6l135.3-1.3c16.5-.2 29.7-13.7 29.5-30.2-.2-16.5-13.7-29.7-30.2-29.5l-46.3.6c-3.1 0-4.6-3.7-2.5-5.8l116.9-117-39.6-39.6-192.9 192.9 29.8 29.9zM527.1 39.6L487.5 0 370.6 116.9c-2.2 2.2-5.9.6-5.8-2.5l.6-46.3c.2-16.5-13-30-29.5-30.2-16.5-.2-30 13-30.2 29.5l-1.3 135.3 29.9 29.7L527.1 39.6zM304.3 376.2l1.3 135.3c.2 16.5 13.7 29.7 30.2 29.5 16.5-.2 29.7-13.7 29.5-30.2l-.6-46.3c0-3.1 3.7-4.6 5.8-2.5l116.9 116.9 39.6-39.6-192.8-192.9-29.9 29.8zM464.4 364.8l46.3.6c16.5.2 30-13 30.2-29.5.2-16.5-13-30-29.5-30.2l-135.3-1.3-29.7 29.9 192.9 192.9 39.6-39.6-116.9-117c-2.2-2.2-.6-5.9 2.4-5.8zM202.7 304.3l-135.3 1.3c-16.4.2-29.6 13.7-29.4 30.2.2 16.5 13.7 29.7 30.2 29.5l46.3-.6c3.1 0 4.6 3.7 2.5 5.8L0 487.5l39.6 39.6 192.9-192.9-29.8-29.9zM51.8 539.3l39.6 39.6L208.3 462c2.2-2.2 5.9-.6 5.8 2.5l-.6 46.3c-.2 16.5 13 30 29.5 30.2 16.5.2 30-13 30.2-29.5l1.3-135.3-29.9-29.7L51.8 539.3z"></path></svg>