<svg data-name="Layer 1" xmlns="http://www.w3.org/2000/svg" viewBox="0 0 619.41 619.41"><path d="M0 0v619.41h619.41V0H0Zm264.06 352.08h-84.75v-84.75h84.75v84.75Zm3.27-88.02v-84.75h84.75v84.75h-84.75Zm88.02-88.02V91.29h84.75v84.75h-84.75Zm-3.27 0h-84.75V91.29h84.75v84.75Zm-88.02 0h-84.75V91.29h84.75v84.75Zm0 3.27v84.75h-84.75v-84.75h84.75Zm-88.02 84.75H91.29v-84.75h84.75v84.75Zm0 3.27v84.75H91.29v-84.75h84.75Zm0 88.02v84.75H91.29v-84.75h84.75ZM443.37 88.02V3.27h84.75v84.75h-84.75Zm-3.27 0h-84.75V3.27h84.75v84.75Zm-88.02 0h-84.75V3.27h84.75v84.75Zm-88.02 0h-84.75V3.27h84.75v84.75Zm-88.02 0H91.29V3.27h84.75v84.75Zm0 3.27v84.75H91.29V91.29h84.75Zm-88.02 84.75H3.27V91.29h84.75v84.75Zm0 3.27v84.75H3.27v-84.75h84.75Zm0 88.02v84.75H3.27v-84.75h84.75Zm0 88.02v84.75H3.27v-84.75h84.75Zm0 88.02v84.75H3.27v-84.75h84.75Zm0-440.1v84.75H3.27V3.27h84.75Z"></path></svg>