<svg data-name="Layer 1" xmlns="http://www.w3.org/2000/svg" viewBox="0 0 530.15 588.6"><path d="M458.7 504.27 238.16 0 72.24 509.43A130.057 130.057 0 0 1 0 588.61h139.57c-33.16-9.12-51.94-44.15-41.16-76.81l20.12-61.72c-.02.61-.09 1.21-.09 1.82 0 25.97 21.02 47.13 46.95 47.36v89.35h127.68v-89.35c25.92-.22 46.95-21.38 46.95-47.36 0-2.5-.25-4.93-.63-7.33l28.56 64.86c14.39 32.12-.74 63.89-33.35 77.12l-5.05 2.05h200.61a189.616 189.616 0 0 1-71.45-84.33ZM292.64 492.2H286v89.35H172.44V492.2h-6.64c-22.23 0-40.3-18.08-40.3-40.3s18.08-40.31 40.3-40.31c4.43 0 8.86.76 13.17 2.25l3.96 1.37.67-4.14c3.65-22.49 22.84-38.82 45.62-38.82s41.97 16.32 45.62 38.82l.67 4.14 3.96-1.37c4.31-1.49 8.74-2.25 13.17-2.25 22.23 0 40.3 18.08 40.3 40.31s-18.08 40.3-40.3 40.3Zm0-87.67c-3.9 0-7.79.5-11.63 1.48-5.7-23.88-26.88-40.82-51.8-40.82s-46.1 16.94-51.8 40.82c-3.83-.98-7.73-1.48-11.63-1.48-16.29 0-30.69 8.27-39.22 20.84l86.95-266.62 116.08 263.59c-8.69-10.84-22.01-17.8-36.94-17.8Z"></path></svg>