<svg xmlns="http://www.w3.org/2000/svg" width="620" viewBox="0 0 620 450.9" height="450.9" xml:space="preserve" style="enable-background:new 0 0 620 450.9"><path d="M616.7 284.5c-21.7-7.4-41.3-21-60.2-34.1-13.2-9.2-26.9-18.6-41.2-25.9-44.2-22.5-92.8-25-109.8-25.1l1.4-.8c20.5-11.1 33.3-32.5 33.3-55.9 0-35-28.5-63.5-63.5-63.5-11.1 0-22.1 2.9-31.7 8.5l-122.8 69.7 48.7-50c12.4-13 18.8-30.7 17.4-48.6-2.6-34.9-33.1-61.2-68-58.6-9.2.7-17.9 3.3-25.9 7.7l.8 1.4-.8-1.4-162.9 92.3C12.7 111.4 0 131.9 0 155.3c0 2 .1 4.1.3 6.1l.2 2.4L100.9 107c14.6 11.1 24 28.7 24 48.4 0 17.3-6.4 31.4-20.7 45.7L6 297h216.3c-42.4 0-76.9 34.5-76.9 77 0 42.4 34.5 77 77 77 14.3 0 27.6-3.9 39.1-10.7l144.9-84.9c13.9 9.3 28.8 18.3 46.9 25.5l.7.3 166-95.5-3.3-1.2zm-270-194.1c9.1-5.3 19.5-8 30.1-8 33.3 0 60.3 27.1 60.3 60.3 0 22.2-12.1 42.5-31.7 53.1L269.3 273c10.3-11.3 16.5-26.3 16.5-42.7 0-35-28.5-63.5-63.5-63.5-4.3 0-8.6.4-12.6 1.3l137-77.7zm-96.2 193.3c-8.4 4.5-18 7-28.2 7-33.3 0-60.3-27.1-60.3-60.3 0-7.5 1.4-14.7 3.9-21.4l.2-.1-.1-.1c8.7-22.6 30.7-38.7 56.3-38.7 33.3 0 60.3 27.1 60.3 60.3 0 21.8-11.6 40.9-28.9 51.5l-3.2 1.8zM3.2 158.6c-.1-1.1-.1-2.2-.1-3.3 0-33.6 27.3-60.9 60.9-60.9 12.6 0 24.4 3.9 34.1 10.5L3.2 158.6zm103.2 44.7c14.9-14.9 21.6-29.7 21.6-47.9 0-35.3-28.7-64-64-64-4.4 0-8.6.4-12.7 1.3l144.8-82c7.6-4.2 15.9-6.6 24.6-7.3 33.2-2.5 62.2 22.5 64.6 55.7 1.3 17-4.8 33.8-16.6 46.2L212.5 163l-20.8 11.8c-12.7 7.1-22.7 18.3-28.2 32L19.6 288.1l86.8-84.8zM148.5 374c0-40.7 33.1-73.8 73.8-73.8s73.8 33.1 73.8 73.8-33.1 73.8-73.8 73.8-73.8-33.1-73.8-73.8zm129.8 52.8c13-13.8 21-32.4 21-52.8 0-42.4-34.5-76.9-76.9-77h16.3c.7 0 66.8 1.3 116.8 26.3 14.7 7.4 27.6 16.2 40.2 24.8 2.6 1.8 5.2 3.6 7.9 5.3l-125.3 73.4zm175.4-49.2c-22.2-8.8-39.5-20.7-56.3-32.1-12.6-8.6-25.6-17.5-40.5-25-50.6-25.4-117.5-26.6-118.2-26.6H15.8l146-82.5c-1.9 6-2.9 12.4-2.9 19 0 35 28.5 63.5 63.5 63.5 10.4 0 20.2-2.5 28.9-7l.8-.5 3.3-1.8 144.6-82c5.6-.2 62.8-1.3 114 24.7 14.1 7.2 27.7 16.6 40.8 25.7 18.2 12.6 36.9 25.6 57.8 33.3l-158.9 91.3z"></path></svg>