<svg id="Layer_1" data-name="Layer 1" xmlns="http://www.w3.org/2000/svg" viewBox="0 0 307.26 608">   <rect x="210.56" y="105.73" width="95.72" viewBox="0 0 95.72 18.39" height="18.39"></rect>   <rect x="210.56" y="127.36" width="95.72" height="15.23"></rect>   <rect x="210.56" y="149.6" width="95.72" height="10.47"></rect>   <rect x="210.56" y="170.84" width="95.72" height="7.5"></rect>   <rect x="210.56" y="192.34" width="95.72" height="3.75"></rect>   <circle cx="258.42" cy="48.84" r="48.84" transform="translate(114.41 268.9) rotate(-67.5)"></circle>   <rect x="210.56" y="309.07" width="95.72" height="18.39"></rect>   <rect x="210.56" y="330.71" width="95.72" height="15.23"></rect>   <rect x="210.56" y="352.95" width="95.72" height="10.47"></rect>   <rect x="210.56" y="374.19" width="95.72" height="7.5"></rect>   <rect x="210.56" y="395.68" width="95.72" height="3.75"></rect>   <circle cx="258.42" cy="252.18" r="48.84" transform="translate(-102.63 256.6) rotate(-45)"></circle>   <rect x="105.98" y="209.29" width="95.72" height="18.39"></rect>   <rect x="105.98" y="230.93" width="95.72" height="15.23"></rect>   <rect x="105.98" y="253.17" width="95.72" height="10.47"></rect>   <rect x="105.98" y="274.41" width="95.72" height="7.5"></rect>   <rect x="105.98" y="295.9" width="95.72" height="3.75"></rect>   <circle cx="153.84" cy="152.4" r="48.84" transform="translate(-45.83 236.21) rotate(-67.5)"></circle>   <rect x="105.98" y="412.64" width="95.72" height="18.39"></rect>   <rect x="105.98" y="434.27" width="95.72" height="15.23"></rect>   <rect x="105.98" y="456.51" width="95.72" height="10.47"></rect>   <rect x="105.98" y="477.75" width="95.72" height="7.5"></rect>   <rect x="105.98" y="499.25" width="95.72" height="3.75"></rect>   <circle cx="153.84" cy="355.75" r="48.84" transform="translate(-77.62 44.86) rotate(-13.28)"></circle>   <rect x=".98" y="314.3" width="95.72" height="18.39"></rect>   <rect x=".98" y="335.93" width="95.72" height="15.23"></rect>   <rect x=".98" y="358.17" width="95.72" height="10.47"></rect>   <rect x=".98" y="379.41" width="95.72" height="7.5"></rect>   <rect x=".98" y="400.91" width="95.72" height="3.75"></rect>   <circle cx="48.84" cy="257.41" r="48.84" transform="translate(-40.6 11.15) rotate(-9.22)"></circle>   <rect x=".98" y="517.65" width="95.72" height="18.39"></rect>   <rect x=".98" y="539.28" width="95.72" height="15.23"></rect>   <rect x=".98" y="561.52" width="95.72" height="10.47"></rect>   <rect x=".98" y="582.76" width="95.72" height="7.5"></rect>   <rect x=".98" y="604.26" width="95.72" height="3.75"></rect>   <circle cx="48.84" cy="460.75" r="48.84" transform="translate(-73.17 13.77) rotate(-9.22)"></circle> </svg>