<svg id="Layer_1" data-name="Layer 1" xmlns="http://www.w3.org/2000/svg" viewBox="0 0 616.43 526.45">   <path d="M186.38,410.58H115.87V0C51.88,0,0,51.88,0,115.87H0V410.58H0c0,63.99,51.88,115.87,115.87,115.87h186.38c0-63.99-51.88-115.87-115.87-115.87Z"></path>   <path d="M432,0H115.87c0,63.99,51.88,115.87,115.87,115.87h200.26c37.87,0,68.57,30.7,68.57,68.57s-30.7,68.57-68.57,68.57h-129.75v36.67s.01,236.77,.01,236.77c63.99,0,115.87-51.88,115.87-115.87h0v-41.7h13.87c101.86,0,184.44-82.58,184.44-184.44S533.86,0,432,0Z"></path> </svg>