<svg data-name="Layer 1" xmlns="http://www.w3.org/2000/svg" viewBox="0 0 615.99 569.78"><path d="M396.1 0 270.16 8.04 93.95 351.64 0 347.67 81.8 557.8l145.02 6.63 104.14-174.65 34.5 69-36.74 100.83 131.39 10.17 155.88-130.04L396.1 0Zm185.7 432.6-108.91 90.86 27.66-84.64-207.59-404.8 86.78-5.54L581.8 432.61ZM40.71 376.79l77.25 3.27 63.48 154.89-80.6-3.68L40.7 376.8Zm170.88 159.53-61.83-150.85 61.03 13.65 62.27-125.09 43.29 86.58-104.76 175.72Zm61.42-323.62-77.17 155.02-59.33-13.95-12.46-.86L274.9 58.79l196.09 382.36-32.52 99.5-71.69-5.55 28.43-78.02L273.02 212.7Z"></path></svg>