<svg xmlns="http://www.w3.org/2000/svg" width="599.3" viewBox="0 0 599.3 568.5" height="568.5" xml:space="preserve"><path d="M61.3 568.5c-15.5-.3-29.2-5.3-40.3-16C10.3 542 3 529.2 2.4 514 1.6 494.1.2 72.9 0 62.5-.4 37.4 13.3 15.7 36.2 5.3c15.7-7.1 31.4-7.1 46.9.3 12.9 6.1 23 15.6 30 27.8 10.5 18.3 38.3 70.9 42.2 78.5 2.2 4.3 1.6 5.1-3 5.5-20 1.8-32.5 15.3-32.7 35-.4 26.3 1.5 353.5-.1 365.2-3.4 24.5-23.9 46.6-48.7 49.4-3.2.3-6.3 1-9.5 1.5z"></path><path d="M359.4 408.1c0 6 .2 96.8-.8 109-1 12.1-6.6 22.5-14.7 31.4-13.5 15-30.5 21.8-50.7 19.6-14.8-1.7-27.1-8.5-37.1-19.7-7.4-8.4-122.4-220.1-122.4-220.1s-.9-160.9-.7-176.3c.1-10.8 6.4-18.8 16.4-21 8.6-1.9 18 3.2 22.7 12.1 15.1 28.5 127.6 239.5 136.6 255.6 7.5 13.4 23.7 19.2 38.3 14.3 3.9-1.3 7.6-3 12.4-4.9zM599.2 405.5c0 7.8.5 96.6-.4 109.1-1.8 23.6-20 43.6-41.4 50.8-18.2 6.1-35 3.1-50.5-7.6-11.4-7.9-18.7-19.4-25-31.6-6.6-12.7-110.1-196.1-110.1-196.1s.2-164.6 0-178.1c-.2-13 6.2-22.1 17.5-23.9 8.9-1.5 17.9 3.9 22.1 12.5 5.2 10.7 131.4 245.3 136.8 255.7 5.6 10.9 15.3 14.9 26.8 15.9 6.7.6 12.9-1.1 18.8-4.3 1.4-.8 3-1.3 5.4-2.4z"></path><path d="M395.4 113.5c-2.5.4-3.7.6-5 .7-18.8 1.7-32.6 17.1-32.4 36.1.2 23.4 1.1 214.5 1.1 226.4 0 11-5.6 19.2-14.8 22.4-10.2 3.5-21.4-1.1-26.8-10.9-12.2-22.2-75.8-139.4-78.3-144.7-.4-.9-1.2-175.2-.5-185.9 1-14.6 5.5-27.8 16.2-38.6C266.5 7.2 280.2.5 296.4 0c16.3-.5 32.2 6.7 44.1 17.8 11 10.5 51.5 89 54.9 95.7zM544.8 0c15.8 1 30.8 9.9 42.3 25.4 5.6 7.5 9.1 16.1 10.5 25.1 1.1 6.9 1.1 326 1.1 326-1.1 16.8-17.3 27-32.7 18.4-4.1-2.3-7.5-6.8-10-11.1-2.6-4.4-63.5-120.5-76-140.5V58.9c.5-17.8 7.6-33 21.7-44.4C514.6 4 526.4 0 544.8 0z"></path></svg>