<svg data-name="Layer 1" xmlns="http://www.w3.org/2000/svg" viewBox="0 0 611.56 610.41"><path d="M204.49 386.58c125.81-25.38 260.59-1.85 369.71 64.95 94.57-168.93.6-386.97-180.6-438.77-13.43-4.03-27.22-7.21-41.35-9.37-2.57 157.16 78.61 305.73 202.67 390.21-.02.04-.03.09-.05.13-39.48-19.68-81.59-34.84-125.67-44.78C346.02 254.58 298.7 126.88 301.47 0 93.68.58-57.57 218.65 21.2 415.94c15.42-8.85 21.31-12.45 35.78-22.34C170.24 315.44 248.14 189.49 261.2 45.11h.05c2.84 43.65 10.69 85.95 23.01 126.33-40.92 123.46-127.78 227.4-240.7 290.25 108.3 183.48 371.96 200.64 502.58 32.23-128.01-80.13-308.23-88.16-443.09-20.2a563.824 563.824 0 0 0 101.45-87.15ZM396.37 57.2c115.69 40.49 193.37 167.77 169.76 293.64C473.79 282.22 410.12 177.2 396.37 57.2ZM45.26 350.22C23.59 226.26 99.22 95.87 217.67 56.47 202.56 176.3 137.72 281.39 45.26 350.22Zm260.69-119.81a559.76 559.76 0 0 0 62.18 108.32c-20.42-2.27-41.16-3.47-62.18-3.47s-41.57 1.18-62.18 3.46a559.936 559.936 0 0 0 62.17-108.31Zm0 238.34c61.35 0 119.66 13.12 172.42 36.55-94.53 85.08-250.34 85.05-344.85 0 52.76-23.43 111.08-36.55 172.43-36.55Z"></path></svg>