<svg xmlns="http://www.w3.org/2000/svg" id="a" width="475.08" viewBox="0 0 475.08 642" height="642" data-name="Layer 1"><defs></defs><path d="m122.81 294.49-74.66 43.07v-86.22l74.66 43.15zM130.84 194.27v86.28l-74.67-43.14 74.67-43.14zM221.49 351.5l-82.69 47.76-82.63-47.76 82.63-47.77 82.69 47.77zM229.51 127.95v95.59l-82.62-47.76V80.19l82.62 47.76zM229.51 242.03v95.53l-82.62-47.76v-95.53l82.62 47.76z" class="b"></path><path d="m138.8 417.81 90.71-52.39v109.53C102.08 470.71 0 366 0 237.54S106.38 0 237.54 0l-106.7 61.7v114.08L32.1 232.79v123.33l106.7 61.7Z" class="b"></path><path d="m154.85 66.32 74.66-43.14v86.28l-74.66-43.14zM320.23 66.32l-74.66 43.14V23.18l74.66 43.14zM328.19 80.19v95.59l-82.62 47.76v-95.59l82.62-47.76zM328.19 194.27v95.53l-82.62 47.76v-95.53l82.62-47.76zM418.91 351.5l-82.63 47.76-82.69-47.76 82.69-47.77 82.63 47.77zM418.91 237.41l-74.67 43.14v-86.28l74.67 43.14zM426.93 251.34v86.22l-74.66-43.07 74.66-43.15z" class="b"></path><path d="M475.08 237.54C475.08 366 373 470.71 245.57 474.95V365.42l90.71 52.39 106.7-61.7V232.78l-98.74-57.01V61.7L237.54 0C368.7 0 475.08 106.38 475.08 237.54ZM245.57 474.95V642h-16.05V474.95c2.7.06 5.33.13 8.03.13s5.33-.06 8.03-.13Z" class="b"></path></svg>