<svg xmlns="http://www.w3.org/2000/svg" width="560.6" viewBox="0 0 560.6 632.8" height="632.8" xml:space="preserve" style="enable-background:new 0 0 560.6 632.8"><path d="m418.3 153.6-84.5 47.7-151.9-85.6L266 68.1 145.2 0 0 81.9v160l83 48.3v167.3L0 409.9v140.8l145.6 82.1L285 554.1v-96.3l148.9-82.4v94.7l126.6-71.7V234.3l-142.2-80.7zm-171 282.8-42.9 23.7v-145l-83.7-47.2v-49.1l129.2 73 84.6-47.7 42.6 24-129.8 73.2v95.1zM37.7 103.3l107.6-60.7 46 26-83.7 47.4 188.6 106.5-45.6 25.7L83 153.7v92.9L37.7 221V103.3zm209.6 429.6-101.8 57.4-107.8-60.9v-55.2l83 47.6V311.5l46.1 25.4v186.3l80.6-44.5v54.2zm275.6-155.6-51.3 29v-94L285 415.5v-55l167.9-92-80.9-45.6 46.7-26.4 104.1 59v121.8z"></path></svg>