<svg id="Layer_1" data-name="Layer 1" xmlns="http://www.w3.org/2000/svg" viewBox="0 0 625 624.99">   <path d="M557.88,149.28l-3.79,2.75c-1.01,.74-1.44,2.04-1.05,3.23l19.25,59.23c.87,2.66-2.18,4.88-4.45,3.23l-50.39-36.61c-1.01-.74-2.38-.74-3.4,0l-50.39,36.61c-2.26,1.65-5.31-.57-4.45-3.23l19.25-59.23c.39-1.19-.04-2.5-1.05-3.23l-50.39-36.61c-2.26-1.65-1.1-5.23,1.7-5.23h62.28c1.25,0,2.36-.81,2.75-2l7.22-22.24c-39.03-32.51-86.59-55.07-138.83-63.94l6.87,21.15c.87,2.66-2.18,4.88-4.45,3.23l-38.95-28.3c-4.36-.19-8.73-.33-13.14-.33s-8.78,.14-13.14,.33l-38.95,28.3c-2.26,1.65-5.31-.57-4.45-3.23l6.87-21.15c-52.24,8.87-99.81,31.43-138.83,63.94l7.22,22.23c.39,1.19,1.5,2,2.75,2h62.28c2.8,0,3.96,3.58,1.7,5.23l-50.39,36.61c-1.01,.74-1.44,2.04-1.05,3.23l19.25,59.23c.87,2.66-2.18,4.88-4.45,3.23l-50.39-36.61c-1.01-.74-2.38-.74-3.4,0l-50.39,36.61c-2.26,1.65-5.31-.57-4.45-3.23l19.25-59.23c.39-1.19-.04-2.49-1.05-3.23l-3.79-2.75c-31.15,46.73-49.33,102.84-49.33,163.21,0,50.81,12.86,98.62,35.5,140.34h31.21c1.25,0,2.36-.81,2.75-2l19.25-59.23c.87-2.66,4.63-2.66,5.5,0l19.25,59.23c.39,1.19,1.5,2,2.75,2h62.28c2.8,0,3.96,3.58,1.7,5.23l-50.39,36.61c-1.01,.74-1.44,2.04-1.05,3.23l19.25,59.23c.86,2.66-2.18,4.88-4.45,3.23l-1.34-.79c-17.49-10.29-33.92-22.29-49.05-35.82-1.01-.74-2.38-.74-3.4,0l-.24,.17c49.28,47.83,115.18,78.61,188.23,82.75l14.22-43.76c.87-2.66,4.63-2.66,5.5,0l14.22,43.76c73.06-4.15,138.96-34.92,188.23-82.75l-.24-.17c-1.01-.74-2.38-.74-3.4,0l-4.04,3.52c-14.34,12.5-29.87,23.58-46.35,33.09-2.26,1.65-5.31-.57-4.45-3.23l19.25-59.23c.39-1.19-.04-2.49-1.05-3.23l-50.39-36.61c-2.26-1.65-1.1-5.23,1.7-5.23h62.28c1.25,0,2.36-.81,2.75-2l19.25-59.23c.87-2.66,4.63-2.66,5.5,0l19.25,59.23c.39,1.19,1.5,2,2.75,2h31.21c22.64-41.73,35.5-89.53,35.5-140.34,0-60.37-18.18-116.48-49.33-163.21ZM197.96,286.74l-50.39,36.61c-1.01,.74-1.44,2.04-1.05,3.23l19.25,59.23c.87,2.66-2.18,4.88-4.45,3.23l-50.39-36.61c-1.01-.74-2.38-.74-3.4,0l-50.39,36.61c-2.26,1.65-5.31-.57-4.45-3.23l19.25-59.23c.39-1.19-.04-2.5-1.05-3.23l-50.39-36.61c-2.26-1.65-1.1-5.23,1.7-5.23h62.28c1.25,0,2.36-.81,2.75-2l19.25-59.23c.87-2.66,4.63-2.66,5.5,0l19.25,59.23c.39,1.19,1.5,2,2.75,2h62.28c2.8,0,3.96,3.58,1.7,5.23Zm203.26,171.32l-50.39,36.61c-1.01,.74-1.44,2.04-1.05,3.23l19.25,59.23c.87,2.66-2.18,4.88-4.45,3.23l-50.39-36.61c-1.01-.74-2.38-.74-3.4,0l-50.39,36.61c-2.26,1.65-5.31-.57-4.45-3.23l19.25-59.23c.39-1.19-.04-2.49-1.05-3.23l-50.39-36.61c-2.26-1.65-1.1-5.23,1.7-5.23h62.28c1.25,0,2.36-.81,2.75-2l19.25-59.23c.86-2.66,4.63-2.66,5.5,0l19.25,59.23c.39,1.19,1.5,2,2.75,2h62.28c2.8,0,3.96,3.58,1.7,5.23Zm0-171.32l-50.39,36.61c-1.01,.74-1.44,2.04-1.05,3.23l19.25,59.23c.87,2.66-2.18,4.88-4.45,3.23l-50.39-36.61c-1.01-.74-2.38-.74-3.4,0l-50.39,36.61c-2.26,1.65-5.31-.57-4.45-3.23l19.25-59.23c.39-1.19-.04-2.5-1.05-3.23l-50.39-36.61c-2.26-1.65-1.1-5.23,1.7-5.23h62.28c1.25,0,2.36-.81,2.75-2l19.25-59.23c.86-2.66,4.63-2.66,5.5,0l19.25,59.23c.39,1.19,1.5,2,2.75,2h62.28c2.8,0,3.96,3.58,1.7,5.23Zm0-171.32l-50.39,36.61c-1.01,.74-1.44,2.04-1.05,3.23l19.25,59.23c.87,2.66-2.18,4.88-4.45,3.23l-50.39-36.61c-1.01-.74-2.38-.74-3.4,0l-50.39,36.61c-2.26,1.65-5.31-.57-4.45-3.23l19.25-59.23c.39-1.19-.04-2.49-1.05-3.23l-50.39-36.61c-2.26-1.65-1.1-5.23,1.7-5.23h62.28c1.25,0,2.36-.81,2.75-2l19.25-59.23c.86-2.66,4.63-2.66,5.5,0l19.25,59.23c.39,1.19,1.5,2,2.75,2h62.28c2.8,0,3.96,3.58,1.7,5.23Zm171.07,270.39c.86,2.66-2.18,4.88-4.45,3.23l-50.39-36.61c-1.01-.74-2.38-.74-3.4,0l-50.39,36.61c-2.26,1.65-5.31-.57-4.45-3.23l19.25-59.23c.39-1.19-.04-2.5-1.05-3.23l-50.39-36.61c-2.26-1.65-1.1-5.23,1.7-5.23h62.28c1.25,0,2.36-.81,2.75-2l19.25-59.23c.87-2.66,4.63-2.66,5.5,0l19.25,59.23c.39,1.19,1.5,2,2.75,2h62.28c2.8,0,3.96,3.58,1.7,5.23l-50.39,36.61c-1.01,.74-1.44,2.04-1.05,3.23l19.25,59.23Z"></path>   <path d="M312.5,0C140.19,0,0,140.19,0,312.49s140.19,312.5,312.5,312.5,312.5-140.19,312.5-312.5S484.81,0,312.5,0Zm0,618.39C143.83,618.39,6.61,481.16,6.61,312.49S143.83,6.61,312.5,6.61s305.89,137.22,305.89,305.89-137.22,305.89-305.89,305.89Z"></path> </svg>