<svg id="a" data-name="Layer 1" xmlns="http://www.w3.org/2000/svg" width="642" viewBox="0 0 642 547.31" height="547.31">
  <path d="m642,547.31l-96.78-167.33c-19.29-33.34-55.33-55.76-96.62-55.76-61.61,0-111.55,49.94-111.55,111.55,0,61.61,49.94,111.55,111.55,111.55h193.4Z"></path>
  <path d="m0,547.31l96.78-167.33c19.29-33.34,55.33-55.76,96.62-55.76,61.61,0,111.55,49.94,111.55,111.55s-49.94,111.55-111.55,111.55H0Z"></path>
  <path d="m321,0l96.62,168.92c9.49,16.41,14.93,35.46,14.93,55.78,0,61.61-49.94,111.55-111.55,111.55s-111.55-49.94-111.55-111.55c0-20.32,5.43-39.37,14.93-55.78L321,0Z"></path>
</svg>