<svg id="Layer_1" data-name="Layer 1" xmlns="http://www.w3.org/2000/svg" viewBox="0 0 570.35 623.34">   <rect width="67.46" viewBox="0 0 67.46 390.85" height="390.85"></rect>   <path d="M150.61,338.16V0H83.14V338.16c0,157.25,127.93,285.18,285.17,285.18h49.9v-67.46h-49.9c-120.04,0-217.71-97.67-217.71-217.72Z"></path>   <path d="M502.89,286.24v51.92c0,74.2-60.37,134.57-134.57,134.57s-134.57-60.37-134.57-134.57V0h-67.46V338.16c0,111.4,90.63,202.03,202.03,202.03s202.03-90.63,202.03-202.03v-51.92h-67.46Z"></path>   <path d="M368.32,457.05c65.48,0,118.77-53.21,118.89-118.66v-.23c-.13-65.45-53.41-118.66-118.89-118.66h-31.86v67.46h31.86c28.32,0,51.37,23.01,51.43,51.31-.06,28.3-23.11,51.31-51.43,51.31s-51.42-23.07-51.42-51.43V0h-67.46V338.16c0,65.56,53.33,118.89,118.89,118.89Z"></path> </svg>