<svg xmlns="http://www.w3.org/2000/svg" width="616.3" viewBox="0 0 616.3 502.1" height="502.1" style="enable-background:new 0 0 616.3 502.1" xml:space="preserve"><path d="M71 502.1 212.8 234c15-28.3 23-60.3 23-92.3V0H173v141.7c0 21.9-5.4 43.6-15.7 63L0 502.1h71z"></path><path d="M242.2 0v141.7c0 33.1-8.2 66.1-23.7 95.3L78.3 502.1h71L274 266.4c20.3-38.3 31-81.4 31-124.7V0h-62.8z"></path><g><path d="m545.3 502.1-141.8-268c-15-28.3-23-60.3-23-92.3V0h62.7v141.7c0 21.9 5.4 43.6 15.7 63l157.4 297.4h-71z"></path><path d="M374.1 0v141.7c0 33.1 8.2 66.1 23.7 95.3L538 502.1h-71L342.3 266.5c-20.3-38.3-31-81.4-31-124.7V0h62.8z"></path></g></svg>