<svg id="Layer_1" data-name="Layer 1" xmlns="http://www.w3.org/2000/svg" viewBox="0 0 619.81 562.44">   <rect x="491.02" y="187.71" width="12.37" viewBox="0 0 12.37 187.04" height="187.04"></rect>   <rect x="397.4" y="25.5" width="12.37" height="187.04" transform="translate(98.67 408.97) rotate(-59.99)"></rect>   <rect x="122.78" y="112.78" width="187.04" height="12.37" transform="translate(-30.51 124.01) rotate(-29.98)"></rect>   <rect x="116.4" y="187.6" width="12.37" height="187.04"></rect>   <rect x="209.94" y="349.85" width="12.37" height="187.04" transform="translate(-275.88 408.56) rotate(-59.97)"></rect>   <rect x="309.9" y="437.32" width="187.04" height="12.37" transform="translate(-167.57 260.7) rotate(-29.96)"></rect>   <path d="M356.41,361.72c27.36-15.81,59.35-16.2,86.06-3.99-23.93-17.02-39.59-44.91-39.59-76.51s15.71-59.6,39.72-76.61c-26.73,12.28-58.79,11.92-86.21-3.9-27.42-15.83-43.76-43.41-46.49-72.7-2.73,29.29-19.07,56.87-46.48,72.71-27.42,15.83-59.47,16.2-86.21,3.91,24.01,17.01,39.73,44.95,39.73,76.61,0,31.66-15.71,59.6-39.71,76.62,26.73-12.29,58.79-11.93,86.21,3.89,27.42,15.83,43.76,43.4,46.5,72.69,2.72-29.29,19.06-56.88,46.47-72.71Z"></path>   <path d="M524.19,185.59c-6.81,0-13.44,.74-19.85,2.09,48.32,3.86,86.36,44.21,86.36,93.53s-38.04,89.67-86.36,93.53c6.41,1.35,13.04,2.09,19.85,2.09,52.81,0,95.62-42.81,95.62-95.62s-42.81-95.62-95.62-95.62Z"></path>   <path d="M450.29,38.04c42.71,24.66,58.64,77.77,37.82,121.55,4.38-4.87,8.33-10.25,11.74-16.15,26.4-45.74,10.73-104.22-35.01-130.62-45.74-26.4-104.22-10.73-130.62,35.01-3.4,5.9-6.08,12.01-8.11,18.24,27.5-39.92,81.47-52.69,124.18-28.03Z"></path>   <path d="M131.68,159.61c-20.83-43.78-4.9-96.9,37.81-121.56,42.71-24.66,96.68-11.9,124.18,28.02-2.03-6.23-4.71-12.34-8.12-18.24C259.14,2.1,200.66-13.56,154.93,12.84c-45.73,26.41-61.4,84.89-34.99,130.62,3.41,5.9,7.36,11.27,11.74,16.15Z"></path>   <path d="M29.11,281.25c0-49.32,38.02-89.68,86.35-93.54-6.41-1.35-13.04-2.09-19.85-2.09C42.8,185.63,0,228.44,0,281.25c0,52.81,42.82,95.62,95.63,95.61,6.81,0,13.44-.74,19.85-2.09-48.32-3.85-86.37-44.2-86.37-93.52Z"></path>   <path d="M169.55,524.41c-42.71-24.65-58.65-77.77-37.84-121.55-4.37,4.87-8.33,10.25-11.73,16.15-26.4,45.74-10.72,104.22,35.02,130.61,45.74,26.4,104.22,10.72,130.61-35.02,3.4-5.9,6.08-12.01,8.11-18.24-27.49,39.93-81.46,52.7-124.17,28.05Z"></path>   <path d="M488.14,402.79c20.83,43.77,4.91,96.9-37.79,121.56-42.7,24.67-96.67,11.92-124.18-28,2.03,6.22,4.71,12.34,8.12,18.23,26.41,45.73,84.9,61.39,130.63,34.97s61.39-84.9,34.97-130.63c-3.41-5.9-7.36-11.27-11.74-16.14Z"></path> </svg>