<svg xmlns="http://www.w3.org/2000/svg" width="612.7" viewBox="0 0 612.7 449.6" height="449.6" xml:space="preserve"><path d="M132.1 74.1c-32.7 0-59.3 26.3-59.3 58.7 0 32.4 26.5 59.3 59.3 59.3h59.3v-59.3c-.1-32.4-26.6-58.7-59.3-58.7zM488.3 260h-65.5v57.7c.9 31.9 27.1 57.7 59.4 57.7s58.5-25.8 58.5-57.7c0-31.9-20.1-57.7-52.4-57.7z"></path><path d="M602.9 270.1V8.3H177.4C163.1 3 147.7 0 131.5 0 115.4 0 100 3 85.7 8.2H7.4v77C2.1 99.5 0 114.9 0 131c0 16.1 2.1 31.5 7.4 45.7v261H429.6c16.6 7.6 34.9 11.8 54.3 11.8 19.3 0 36.8-4.3 53.4-11.8h65.5v-68.6c6.9-16.1 9.8-30.8 9.8-49.4.1-18.6-2.8-33.5-9.7-49.6zm-8 107.2c-12.6 24.5-28.7 40.2-50.4 52.7-18.2 9.9-38.5 16.4-60.5 16.4-71 0-128.7-55.1-129.2-126.7v-59.8h-95.5v174.6h-67.9V260h-59.8C60.3 260 3.1 202.1 3.1 131c0-22.2 6-43.1 15.9-61.3 11.9-20.5 28.3-37.3 48.5-49.5 18.9-10.8 40.8-17 64.1-17 71.3 0 129.2 56.7 127.7 127.9v61.1h95.5V11.3h68v180.8H484c66.9 0 125 56.1 125 127.7 0 21.7-4.9 39.5-14.1 57.5z"></path></svg>