<svg xmlns="http://www.w3.org/2000/svg" width="585.8" viewBox="0 0 585.8 642" height="642" style="overflow:visible;enable-background:new 0 0 585.8 642" xml:space="preserve"><path d="m525.5 122.2 23.7-33.8C567 63 560.8 27.9 535.4 10.2 510-7.6 474.9-1.5 457.1 24l-26.2 37.4c-41.2-16.6-88.1-26.1-138-26.1s-96.9 9.4-138 26.1L128.7 24C110.9-1.5 75.9-7.6 50.4 10.2 25 27.9 18.8 63 36.6 88.4l23.7 33.8C22.5 159.5 0 206.2 0 256.8c0 66.8 27.1 127.4 71 171.3 36.1 36.1 136.6 103.9 182.5 104 15.7 0 29.9-6.9 39.4-18 9.6 11 23.7 18 39.4 18 45.9-.1 146.3-67.9 182.5-104 43.9-43.8 71-104.5 71-171.3 0-50.6-22.5-97.3-60.3-134.6zm-29 287.7c-37.2 37.3-131 96.5-164.2 96.5-14.6 0-26.6-11.9-26.6-26.6v-26.7l28.1-43.2h-81.9l28.1 43.2v26.7c0 14.6-11.9 26.6-26.6 26.6-33.3 0-127-59.2-164.2-96.5-39.2-39.2-63.5-93.4-63.5-153.1C25.7 148.8 145.6 61 292.9 61s267.2 87.8 267.2 195.8c0 59.7-24.3 113.9-63.6 153.1z"></path><path d="M414.8 523.2C413.1 589 359.2 642 292.9 642S172.7 589 171 523.2c9.1 4.9 18.2 9.5 27 13.4 7.8 45.3 47.4 79.8 94.9 79.8s87.1-34.5 94.9-79.8c8.9-3.9 17.9-8.5 27-13.4zM240.5 234.3l-87.7-20.2 80.9 58.8M345.4 234.3l87.6-20.2-80.8 58.8"></path><path d="m305.8 232 28 158.8h-81.9l28-158.8-62.8-83.3c23.5-6.8 49.2-10.6 75.8-10.6 26.6 0 52.3 3.8 75.8 10.6L305.8 232z"></path><path d="M534.4 256.8c0 92.1-65.5 169.2-152.5 187.1l-4.1-25.4c74.7-15.9 130.9-82.4 130.9-161.7 0-78.3-98.8-144.4-215.8-144.4S77.1 178.5 77.1 256.8c0 79.3 56.2 145.9 130.9 161.7l-4.1 25.4c-87-17.9-152.5-95-152.5-187.1 0-93.8 108.3-170.1 241.5-170.1S534.4 163 534.4 256.8z"></path><path d="M216.9 367.8c-45.5-10.4-80.6-48.1-87.2-94.9h-26c6.8 59.5 51.2 107.6 108.8 120.2l4.4-25.3zM368.9 367.8c45.5-10.4 80.6-48.1 87.2-94.9h26c-6.8 59.5-51.2 107.6-108.8 120.2l-4.4-25.3z"></path></svg>