<svg xmlns="http://www.w3.org/2000/svg" width="618.9" viewBox="0 0 618.9 480.8" height="480.8" xml:space="preserve" style="enable-background:new 0 0 618.9 480.8"><path d="M477.5 480.8c-6.4 0-11.6-5.2-11.6-11.6V281.8c0-6.8 4.3-12.8 10.7-15l10.3-3.5c43-13.4 72-52.7 72-97.8 0-56.5-46-102.5-102.5-102.5-1.4 0-2.8 0-4.1.1-54 2.1-97.2 46.1-98.3 100.1-1 46.2 28 86.4 72 100.1l8 2.5c8.5 2.1 12.7 7.3 12.5 15.5l.6 188c0 6.4-5.2 11.5-11.5 11.5h-424c-6.4 0-11.6-5.2-11.6-11.6V180c0-3.3 1.5-6.4 4.1-8.5L218 2c1.6-1.3 3.6-2 5.6-2s4 .7 5.6 2l78 62c-11.7 17.2-20.4 36-25.7 56l-49.6-39.4c-2.3-1.9-5.3-2.9-8.3-2.9s-5.9 1-8.3 2.9L66.7 198.3c-4.3 3.4-6.8 8.6-6.8 14.1v193.1c0 8.5 6.9 15.4 15.4 15.4h296.6c8.5 0 15.4-6.9 15.4-15.4v-83.9c0-5.6-3.1-10.7-8.1-13.5-20.6-11.2-38.8-27-52.7-45.5-20.2-26.9-31.3-58.9-32.2-92.6C291.9 81.9 358.7 8.7 446.4 3.4c3.4-.2 6.8-.3 10.1-.3 89.5 0 162.3 72.8 162.3 162.3 0 59.8-32.5 114.6-84.9 142.8-5 2.7-8.1 7.9-8.1 13.5v147.6c0 6.4-5.2 11.6-11.6 11.6h-36.7z"></path></svg>