<svg data-name="Layer 1" xmlns="http://www.w3.org/2000/svg" viewBox="0 0 628.45 628.45"><path d="M314.22 63.23c17.43 0 31.61-14.19 31.61-31.62S331.65 0 314.22 0s-31.61 14.18-31.61 31.61 14.19 31.62 31.61 31.62ZM514.05 145.98c8.1 0 16.19-3.08 22.36-9.24 12.32-12.33 12.32-32.38 0-44.71-12.34-12.33-32.37-12.31-44.71 0-12.32 12.33-12.32 32.38 0 44.71 6.17 6.16 14.27 9.24 22.35 9.24Z"></path><circle cx="596.83" cy="314.22" r="31.61"></circle><path d="M491.7 491.7c-12.32 12.33-12.32 32.38 0 44.71 6.17 6.16 14.27 9.24 22.35 9.24s16.19-3.08 22.36-9.24c12.32-12.33 12.32-32.38 0-44.71-12.34-12.32-32.37-12.31-44.71 0ZM314.22 565.22c-17.43 0-31.61 14.19-31.61 31.62s14.19 31.61 31.61 31.61 31.61-14.18 31.61-31.61-14.19-31.62-31.61-31.62ZM92.03 491.7c-12.32 12.33-12.32 32.38 0 44.71 6.17 6.16 14.27 9.24 22.35 9.24s16.19-3.08 22.36-9.24c12.32-12.33 12.32-32.38 0-44.71-12.35-12.32-32.38-12.31-44.71 0ZM31.62 282.61C14.19 282.61 0 296.79 0 314.22s14.19 31.61 31.62 31.61 31.61-14.18 31.61-31.61-14.18-31.61-31.61-31.61ZM114.38 145.98c8.1 0 16.19-3.08 22.36-9.24 12.32-12.33 12.32-32.38 0-44.71-12.35-12.33-32.38-12.31-44.71 0-12.32 12.33-12.32 32.38 0 44.71 6.17 6.16 14.27 9.24 22.35 9.24Z"></path><path d="M556.49 314.22c0-11.2 4.58-21.65 12.89-29.41l2.35-2.2H390.54l125.85-125.85 2.27-2.28-3.22.11c-.5.02-.99.02-1.48.02-10.81 0-20.85-4.12-28.44-11.71-7.92-7.92-12.07-18.55-11.67-29.92l.12-3.22-128.14 128.13V56.7l-2.2 2.36c-7.75 8.32-18.2 12.9-29.41 12.9s-21.65-4.58-29.42-12.9l-2.19-2.36v181.2L156.76 112.05l-2.28-2.27.12 3.22c.39 11.37-3.76 22-11.68 29.92-7.59 7.58-17.63 11.71-28.44 11.71-.48 0-.98 0-1.48-.02l-3.22-.11L237.9 282.63H56.7l2.36 2.2c8.32 7.76 12.9 18.21 12.9 29.41s-4.58 21.65-12.9 29.41l-2.36 2.2h181.2L112.05 471.7l-2.27 2.28 3.22-.11c.5-.02.99-.02 1.48-.02 10.81 0 20.85 4.12 28.44 11.71 7.92 7.92 12.07 18.54 11.68 29.92l-.12 3.22 128.13-128.12v181.2l2.19-2.36c7.77-8.32 18.22-12.9 29.42-12.9s21.66 4.58 29.41 12.9l2.2 2.36v-181.2l125.86 125.85 2.28 2.28-.12-3.22c-.4-11.37 3.75-21.99 11.67-29.92 7.93-7.92 18.37-12.05 29.92-11.68l3.22.11-128.12-128.13h181.19l-2.35-2.2c-8.32-7.77-12.89-18.21-12.89-29.41Zm-199.82 0c0 23.41-19.04 42.45-42.45 42.45s-42.45-19.04-42.45-42.45 19.04-42.45 42.45-42.45 42.45 19.04 42.45 42.45Z"></path></svg>