<svg xmlns="http://www.w3.org/2000/svg" width="621.7" viewBox="0 0 621.7 599.7" height="599.7" xml:space="preserve" style="enable-background:new 0 0 621.7 599.7"><path d="M525.8 501h-80.1V363.3h-94.5V501H270.7V363.3h-84.3v-76.9h84.3v-90.3c0-26-21.2-47.2-47.2-47.2-26 0-48.5 19.9-48.5 45.9v304.8L96.3 501V196.1c0-70.2 45.5-124.5 124.3-124.5 33.9 0 65.6 16.9 87.3 41.3 24.3-25.9 58.7-41.3 92.6-41.3 75.6 0 122.7 54.3 122.7 124.5v90.3h98.5c-.4-41.3-1.9-88.5-4.3-121-2.4-32.7-6.8-65.1-16.1-95.3-12.9-42.3-43.5-54.7-80.2-60.7C453.4-1.8 380.6.5 312.1 0c-49.5-.3-87.8.7-137.2 3.7-33.4 2-70.1 3.5-102.4 13.2-44.1 13.2-57 44.3-63.3 81.8-5.6 33-6.1 65.2-7.4 98.5-2.9 77.2-2.3 154.9 2.4 232 2 32.1 3.5 67.2 12.9 98.2 12.9 42.3 43.5 54.7 80.2 60.7 69.3 11.5 140.4 11 210.5 11.4 63.1.4 124.7-.7 187.6-7.2 17.7-1.8 35.3-4.5 52.4-9.6 44.1-13.2 57-44.3 63.3-81.8 7.6-44.7 9.8-91.5 10.4-137.7h-95.7V501z"></path><path d="M351.3 196.1v90.3h94.5v-90.3c0-26-21.2-47.2-47.2-47.2-26.1 0-47.3 21.2-47.3 47.2z"></path></svg>