<svg xmlns="http://www.w3.org/2000/svg" width="606.6" viewBox="0 0 606.6 606.6" height="606.6" xml:space="preserve"><path d="M303.3 0C135.8 0 0 135.8 0 303.3s135.8 303.3 303.3 303.3 303.3-135.8 303.3-303.3S470.8 0 303.3 0zm47.3 173.1c19.4 0 35.1 15.7 35.1 35.1s-15.7 35.1-35.1 35.1c-19.4 0-35.1-15.7-35.1-35.1s15.7-35.1 35.1-35.1zm-48.3 374h-72.4V247.3h-114V110.1l72.4-1v71.5h114v366.5zm-32.9-376.3c-19.4 0-35.1-15.7-35.1-35.1s15.7-35.1 35.1-35.1 35.1 15.7 35.1 35.1-15.7 35.1-35.1 35.1zm223.1 145.5H387.3v230.8h-72.4V249.7h105.3v-68.6h72.4v135.2z"></path></svg>