<svg xmlns="http://www.w3.org/2000/svg" width="621.8" viewBox="0 0 621.8 581.9" height="581.9" xml:space="preserve" style="enable-background:new 0 0 621.8 581.9"><path d="M621.8 0H0v271c0 32.8 5.1 64.3 14.5 94h188.1c-18.3 35.9-55.6 60.6-98.7 60.6-31.2 0-59.3-13-79.5-33.8 8.9 21 20.1 40.8 33.1 59.1h145.8c-16.5 33.5-49.3 57.5-88.2 61.5 53.5 43.4 121.6 69.5 195.8 69.5s142.4-26.1 195.8-69.5c-38.8-3.9-71.7-27.9-88.2-61.5h145.8c13.1-18.4 24.2-38.1 33.1-59.1-20.1 20.8-48.2 33.8-79.5 33.8-43.1 0-80.4-24.7-98.7-60.6h188.1c9.4-29.7 14.5-61.2 14.5-94V0zM310.9 513c-43.7 0-81.4-25.4-99.5-62.1h198.9c-18 36.8-55.7 62.1-99.4 62.1zm-98.7-148.1h197.5c-18.3 35.9-55.6 60.6-98.7 60.6s-80.5-24.6-98.8-60.6zm404.1-87.4c-18.5 35.5-55.5 59.7-98.3 59.7-44.6 0-83-26.4-100.6-64.4-1.2-2.5-4.8-2.5-5.9 0-17.6 38-55.9 64.4-100.6 64.4-44.6 0-83-26.4-100.6-64.4-1.2-2.5-4.8-2.5-5.9 0-17.6 38-55.9 64.4-100.6 64.4-42.8 0-79.8-24.3-98.3-59.7-.7-1.4-1.2-2.3-1.2-2.3L225 77.1c48.9-43.9 123-43.9 171.8 0l220.6 198c0 .1-.4 1-1.1 2.4z"></path></svg>