<svg xmlns="http://www.w3.org/2000/svg" width="609.7" viewBox="0 0 609.7 609.7" height="609.7"><path d="M520.4 89.3C462.8 31.7 386.3 0 304.9 0s-158 31.7-215.6 89.3C31.7 146.9 0 223.4 0 304.8s31.7 158 89.3 215.6c57.6 57.6 134.1 89.3 215.6 89.3s158-31.7 215.6-89.3c57.6-57.6 89.3-134.1 89.3-215.6S578 146.9 520.4 89.3zm-20.9 410.2c-52 52-121.1 80.6-194.6 80.6s-142.7-28.6-194.7-80.6c-52-52-80.6-121.1-80.6-194.7s28.6-142.7 80.6-194.6 121.1-80.6 194.7-80.6 142.7 28.6 194.6 80.6c34.4 34.4 58.6 76.3 71 122.1H304.9v29.6h271.9c1.5 9.3 2.4 18.7 2.9 28.2H304.9v29.6h274.9c-.5 9.5-1.5 18.9-2.9 28.2h-272v29.6h265.6c-12.4 45.7-36.6 87.6-71 122z"></path></svg>