<svg data-name="Layer 1" xmlns="http://www.w3.org/2000/svg" viewBox="0 0 623.72 623.72"><path d="m599.35 345.07 24.37-24.37L486 182.98h52.64v-34.46h-245.7l16.47-16.47h229.23V97.59H343.87l37.22-37.22L356.72 36 182.98 209.74v-23.29L345.07 24.37 320.7 0 182.98 137.72V85.08h-34.46v245.7l-16.47-16.47V85.09H97.59v194.77l-37.22-37.22L36 267.01l173.73 173.73h-23.29L24.37 278.65 0 303.01l137.72 137.72H85.08v34.46h245.7l-16.47 16.47H85.09v34.46h194.77l-37.22 37.22 24.37 24.37 173.73-173.73v23.29L278.65 599.36l24.37 24.37 137.72-137.72v52.64h34.46v-245.7l16.47 16.47v229.23h34.46V343.88l37.22 37.22 24.37-24.37L413.99 183h23.29l162.09 162.09ZM440.76 258.5h-.02v106.77h-.02l-75.5 75.49v-.02H258.46l-75.5-75.52h.02V258.45h.01l75.5-75.49v.02h106.76l75.5 75.52Z"></path></svg>