<svg data-name="Layer 1" xmlns="http://www.w3.org/2000/svg" viewBox="0 0 626.81 626.81"><path d="m614.14 225.21-31.1 45.7 43.66 47.02c.02-1.51.11-3 .11-4.52 0-30.64-4.48-60.21-12.67-88.2ZM12.67 225.21C4.48 253.2 0 282.77 0 313.41c0 1.51.09 3.01.11 4.52l43.66-47.02-31.1-45.7ZM194.56 192.39l118.85 78.68 118.85-78.68 104.26 37.25 48.9-71.84C531.38 63.55 429.85 0 313.41 0S95.44 63.55 41.4 157.81l48.9 71.84 104.26-37.25Zm315.87-96.16c28.18 0 51.02 22.84 51.02 51.02s-22.84 51.02-51.02 51.02-51.02-22.84-51.02-51.02 22.84-51.02 51.02-51.02Zm-197.02 32.3c28.18 0 51.02 22.84 51.02 51.02s-22.84 51.02-51.02 51.02-51.02-22.84-51.02-51.02 22.84-51.02 51.02-51.02ZM65.37 147.25c0-28.18 22.84-51.02 51.02-51.02s51.02 22.84 51.02 51.02-22.84 51.02-51.02 51.02-51.02-22.84-51.02-51.02Z"></path><path d="M551.47 475.32c-20.52 18.75-43.28 35.09-67.8 48.62l27.89-237.72-70.99-25.36-84.72 56.08 70.96 232.03c-19.32 6.55-39.34 11.56-60 14.7l-53.39-174.6-53.39 174.6c-20.66-3.13-40.68-8.15-60-14.7l70.96-232.03-84.72-56.08-70.99 25.36 27.89 237.72c-24.53-13.53-47.28-29.87-67.8-48.62L59.98 344.13l-48.7 52.45c36.45 132.7 157.88 230.23 302.16 230.23s265.71-97.53 302.16-230.23l-48.7-52.45-15.39 131.19Z"></path></svg>