<svg data-name="Layer 1" xmlns="http://www.w3.org/2000/svg" viewBox="0 0 623.69 489.31"><path d="M607.86 369.95 425.9 132.62V56.65c0-7.97 6.46-14.44 14.43-14.44h4.29V0H320.24v187.25c0 9.3 6.27 17.43 15.26 19.8l.6.16c41.39 10.9 70.43 48.07 71.26 90.78H216.32c.83-42.71 29.87-79.88 71.26-90.78l.6-.16c8.99-2.37 15.26-10.5 15.26-19.8V0H179.06v42.22h4.29c7.97 0 14.43 6.47 14.43 14.44v75.97L15.83 369.95c-18.64 23.57-21.15 55.89-5.76 82.61 13.41 23.27 39.06 36.75 65.91 36.75H547.7c26.85 0 52.51-13.48 65.91-36.75 15.39-26.72 12.89-59.04-5.76-82.61Zm-200.54-68.01c-.03 1.97-.06 3.95-.23 5.94-3.98 48.08-44.67 86.46-92.89 87.73-.8.02-1.57-.06-2.36-.06s-1.56.08-2.36.06c-48.23-1.27-88.92-39.65-92.89-87.73-.17-1.99-.2-3.97-.23-5.94h190.96Zm170.56 130.23c-5.95 10.23-17.4 16-29.24 16H75.04c-11.83 0-23.29-5.76-29.24-16-7.06-12.14-6.04-26.17 2.48-36.95l187.25-244.2c2.2-2.87 3.4-6.4 3.4-10.02V42.22h7.51c7.97 0 14.43 6.47 14.43 14.44v107.07c0 4.37-2.44 8.46-6.42 10.28-48.52 22.19-80.77 71.06-80.77 125.86 0 76.22 61.96 138.21 138.16 138.34C388.04 438.09 450 376.1 450 299.87c0-54.8-32.25-103.67-80.77-125.86-3.98-1.82-6.42-5.91-6.42-10.28V56.65c0-7.97 6.46-14.44 14.43-14.44h7.51v98.78c0 3.62 1.2 7.15 3.4 10.02l187.24 244.21c8.52 10.78 9.53 24.81 2.48 36.95Z"></path></svg>