<svg xmlns="http://www.w3.org/2000/svg" width="538.1" viewBox="0 0 538.1 627.4" height="627.4" xml:space="preserve"><path d="m477.2 450.9 60.9-80.1-113.2-85.2c-7.4-5.6-11.8-14.3-11.8-23.6V0H362v349.3c0 8.8 4.1 17.1 11.2 22.5l104 79.1zM334.3 255.1V0h-51.1v85.3c0 38.6-44.1 60.6-74.9 37.4l-68-51.1-60.9 80.1 184 138.7c29.2 22 70.9 1.2 70.9-35.3zM60.9 176.6 0 256.7l113.2 85.2c7.4 5.6 11.8 14.3 11.8 23.6v262h51.1V278.1c0-8.8-4.1-17.1-11.2-22.5l-104-79zM203.8 372.3v255.1h51.1v-85.3c0-38.6 44.1-60.6 74.9-37.4l68 51.1 60.9-80.1L274.6 337c-29.1-21.9-70.8-1.2-70.8 35.3z"></path></svg>