<svg xmlns="http://www.w3.org/2000/svg" width="642" viewBox="0 0 642 642" height="642" data-name="Layer 1"><path d="m433.54 381.16 164.62 101.71a319.272 319.272 0 0 0 21.03-43.05l-183.53-62.7-2.12 4.04ZM417.3 404.65l137.85 135.81c10.92-11.65 21-24.1 30.1-37.28l-165-101.99-2.95 3.47ZM396.31 423.98l104.21 163.17c13.27-8.97 25.8-18.92 37.56-29.72L399.84 421.29l-3.53 2.7ZM371.46 438.17l65.31 182.23c15-5.8 29.44-12.7 43.25-20.59L375.57 436.32l-4.11 1.86ZM344.11 446.45l23.16 192.19c16-2.31 31.62-5.8 46.77-10.38l-65.5-182.71-4.43.9ZM315.67 448.44 295.44 640.9c8.44.67 16.95 1.11 25.56 1.11 7.51 0 14.93-.35 22.3-.86l-23.14-192.58-4.49-.13ZM287.42 444.07l-62.59 183.26c15.11 4.74 30.7 8.39 46.68 10.87l20.27-192.97-4.37-1.16ZM260.91 433.48 159.14 598.17a318.488 318.488 0 0 0 43.04 21.02l62.7-183.6-3.98-2.12ZM236.9 416.91 100.45 554.1c11.96 11.32 24.77 21.75 38.37 31.14l102-165.06-3.92-3.27ZM218.02 396.24 54.84 500.51c8.97 13.28 18.94 25.82 29.74 37.58l136.19-138.25-2.76-3.6ZM203.84 371.46 21.61 436.78c5.8 15 12.7 29.44 20.59 43.25l163.49-104.45-1.86-4.11ZM195.55 344.11 3.37 367.27c2.31 16 5.8 31.62 10.38 46.77l182.71-65.5-.9-4.43ZM193.56 315.67 1.11 295.44C.44 303.88 0 312.39 0 321c0 7.51.35 14.93.86 22.3l192.58-23.14.13-4.49ZM197.93 287.42 14.67 224.83c-4.74 15.11-8.39 30.7-10.87 46.68l192.97 20.27 1.16-4.37ZM208.46 260.84 43.83 159.14a319.272 319.272 0 0 0-21.03 43.05l183.6 62.7 2.05-4.04ZM224.7 237.35 86.85 101.54a323.316 323.316 0 0 0-30.1 37.27l165.06 102 2.89-3.47ZM245.69 217.96 141.49 54.85c-13.27 8.97-25.82 18.94-37.58 29.74L242.1 220.72l3.6-2.76ZM270.47 203.77 205.22 21.61c-15 5.8-29.44 12.7-43.25 20.59l104.39 163.43 4.11-1.86ZM297.82 195.49 274.73 3.37c-16.01 2.31-31.62 5.8-46.78 10.38l65.44 182.64 4.43-.9ZM326.33 193.5 346.56 1.11C338.12.44 329.61 0 321 0c-7.51 0-14.93.35-22.3.86l23.14 192.51 4.49.13ZM354.64 197.86l62.53-183.19c-15.11-4.74-30.7-8.39-46.69-10.87l-20.27 192.9 4.43 1.16ZM381.16 208.39l101.7-164.56a318.488 318.488 0 0 0-43.04-21.02l-62.7 183.53 4.04 2.05ZM404.72 224.64 540.46 86.85a322.177 322.177 0 0 0-37.27-30.09L401.25 221.75l3.47 2.89ZM424.04 245.69l163.11-104.21c-8.97-13.27-18.94-25.82-29.74-37.58L421.28 242.09l2.76 3.6ZM438.23 270.47l182.16-65.25c-5.8-15-12.7-29.44-20.59-43.25L436.37 266.36l1.86 4.11ZM446.51 297.82l192.12-23.09c-2.31-16.01-5.8-31.62-10.38-46.78l-182.64 65.44.9 4.43ZM448.5 326.33l192.39 20.24c.67-8.44 1.11-16.95 1.11-25.56 0-7.51-.35-14.93-.86-22.3l-192.51 23.14-.13 4.49ZM444.14 354.64l183.19 62.53c4.74-15.11 8.39-30.7 10.87-46.69l-192.9-20.27"></path></svg>