<svg data-name="Layer 1" xmlns="http://www.w3.org/2000/svg" viewBox="0 0 556.43 623.08"><path d="m488.58 294.7 67.85-60.72V109.46L556.41 0H423.46l-67.82 60.72v48.78H304.9l-67.82 60.72v48.7h-36.32V0H67.82L0 60.72v562.36h132.95l67.82-60.72v-158.2h36.32v109.46h118.56v109.46H488.6l67.82-60.72V328.38H437.89v-33.67h50.69Zm-7.96-20.82h-42.74v-34.14h80.88l-38.15 34.14ZM362.07 492.8h-87.34l38.13-34.14h87.34l-38.13 34.14ZM535.6 218.92h-97.73v-88.64h97.73v88.64Zm-118.57 0H319.3v-88.6h97.73v88.6Zm-159.12 261v-81.51l40.56-36.32v81.51l-40.56 36.32Zm159.12-8.37v81.51l-40.56 36.32v-81.51l40.56-36.32Zm0-33.71H319.3V349.2h97.73v88.64Zm0-109.46h-97.7v-88.6h97.73v88.6h-.03Zm118.56-218.92h-97.73V20.82h97.73v88.64ZM376.47 70.03l40.56-36.32v75.75h-40.56V70.03ZM257.91 179.52l40.56-36.32v75.71h-40.56v-39.4Zm40.59 60.26v88.6h-97.73v-88.64l97.73.04Zm-216.29-.04h97.73v88.64H82.21v-88.64Zm97.73-20.82H82.21v-88.64h97.73v88.64Zm0-109.46H82.21V20.82h97.73v88.64ZM20.82 70.03l40.57-36.32v81.51l-40.56 36.32V70.03Zm0 109.46 40.56-36.32v81.51L20.82 261v-81.51Zm0 109.46 40.56-36.32v81.51l-40.56 36.32v-81.51Zm0 109.46 40.56-36.32v81.51l-40.56 36.32v-81.51Zm40.56 73.14v81.51l-40.56 36.32v-81.51l40.56-36.32Zm63.6 130.71H37.65l38.13-34.14h87.34l-38.13 34.14Zm54.95-54.96H82.21v-88.63h97.73v88.63ZM82.2 437.84V349.2h97.73v88.64H82.21Zm118.56-88.64h80.88l-38.13 34.14h-42.75V349.2Zm279.87 253.06h-87.34l38.13-34.14h87.34l-38.13 34.14Zm54.95-54.96h-97.73v-88.63h97.73v88.63Zm0-198.09v88.64h-97.73v-88.64h97.73Z"></path></svg>