<svg xmlns="http://www.w3.org/2000/svg" width="601.2" viewBox="0 0 601.2 541.3" height="541.3" style="enable-background:new 0 0 601.2 541.3" xml:space="preserve"><path d="M300.6 98.4 102.8 440.9h76.6L300.6 231l121.2 209.9h76.5z"></path><path d="M590.9 425.7 367.3 38.5C353.5 14.7 328.1 0 300.6 0s-52.9 14.7-66.7 38.5L10.3 425.7c-21.3 36.8-8.6 83.9 28.2 105.2 12.1 7 25.4 10.3 38.4 10.3 26.6 0 52.5-13.8 66.8-38.5l23.2-40.2H96.5c-6.5 0-12.3-3.4-15.5-9-3.2-5.6-3.2-12.3 0-17.9L285.1 82.1c3.2-5.6 9-9 15.5-9s12.3 3.4 15.5 9l204.1 353.5c3.2 5.6 3.2 12.3 0 17.9-3.2 5.6-9 9-15.5 9h-70.4l23.2 40.2c21.3 36.8 68.4 49.4 105.2 28.2s49.4-68.3 28.2-105.2z"></path><path d="M300.6 363.6c-45 0-82.2 33.8-87.5 77.4h175c-5.3-43.7-42.5-77.4-87.5-77.4zM300.6 539.9c45 0 82.2-33.8 87.5-77.4h-175c5.3 43.6 42.5 77.4 87.5 77.4z"></path></svg>