<svg xmlns="http://www.w3.org/2000/svg" width="622.4" viewBox="0 0 622.4 571.4" height="571.4" xml:space="preserve" style="enable-background:new 0 0 622.4 571.4"><path d="m622.4 326-66.6-38.4 64.7-37.1-121.9-211-65.7 37.6V0L189.1.3l.1 76.2-67.8-39L0 248.8l66.4 38.3-64.6 37 121.9 211 65.7-37 .1 73.4 243.7-.3-.1-72.9 67.8 39L622.4 326zM427.1 5.8l.1 74.7-118.6 67.9v137.2l-113.4 65.5-.2-269.7-.1-75.4 232.2-.2zM125.9 527.2 9.7 326.2l62.5-35.8 119.9 69.1 3-1.7 116.2-67.1 113.1 65.6-298.5 170.9zm307.3-35.6-.1-137-118.8-68.9V155.1l234.4 135 65.9 38-115.7 201.4-65.7-37.9z"></path></svg>