<svg id="a" data-name="Layer 1" xmlns="http://www.w3.org/2000/svg" width="642" viewBox="0 0 642 642" height="642">
  <path d="m264.82,440.16v22.47h-103.55v-22.47h103.55Zm-103.55-22.47v-22.47h103.55v22.47h-103.55Zm139.76-44.94h-4.53m58.21,267.46c.9-.06,1.86-.13,2.76-.26,160.11-18.1,284.53-154.02,284.53-318.95C642,143.74,498.26,0,321,0S0,143.74,0,321c0,164.93,124.42,300.84,284.53,318.95.9.13,1.86.19,2.76.26v-370.95h22.47v372.49c3.72.19,7.45.26,11.24.26s7.51-.06,11.23-.26v-372.49h22.47v370.95Zm-22.47-393.42v-22.47h22.47v22.47h-22.47Zm44.94,367.42v-129.11h103.55l22.47-22.47v-22.47h22.47l22.47-22.47v-22.47h22.47l22.47-22.47v-103.49l-22.47-22.47h-22.47v-22.47l-22.47-22.47h-22.47v-22.47l-22.47-22.47h-103.55l-22.47,22.47v22.47h-22.47l-22.47,22.47v22.47h-22.47l-22.47,22.47v103.49h-103.55v-103.49h103.55v-22.47h-103.55v-22.47h103.55v-22.47h-103.55v-22.47h103.55v-22.47h-103.55l-22.47,22.47v22.47h-22.47l-22.47,22.47v22.47h-22.47l-22.47,22.47v103.49l22.47,22.47h22.47v22.47l22.47,22.47h22.47v22.47l22.47,22.47h103.55v129.11C126.99,587.88,22.47,466.41,22.47,321,22.47,156.39,156.39,22.47,321,22.47s298.53,133.92,298.53,298.53c0,145.41-104.52,266.88-242.35,293.2Zm103.55-389.89v22.47h-103.55v-22.47h103.55Zm-103.55-22.47v-22.47h103.55v22.47h-103.55Zm103.55,67.41v103.49h-103.55v-103.49h103.55Zm0,125.96v22.47h-103.55v-22.47h103.55Zm0,44.94v22.47h-103.55v-22.47h103.55Zm44.94-170.9v103.49h-22.47v-103.49h22.47Zm-22.47-22.47v-22.47h22.47v22.47h-22.47Zm22.47,148.43v22.47h-22.47v-22.47h22.47Zm22.47-22.47v-103.49h22.47v103.49h-22.47Zm-431.81,0v-103.49h22.47v103.49h-22.47Zm22.47,22.47v22.47h-22.47v-22.47h22.47Zm-22.47-148.43v-22.47h22.47v22.47h-22.47Zm-22.47,22.47v103.49h-22.47v-103.49h22.47Z"></path>
</svg>