<svg xmlns="http://www.w3.org/2000/svg" width="642" viewBox="0 0 642 642" height="642" style="overflow:visible;enable-background:new 0 0 642 642" xml:space="preserve"><path d="M526.4 321c0 113.5-92 205.4-205.4 205.4H115.6v-260h32.1v227.9H321c95.7 0 173.3-77.6 173.3-173.3 0-95.7-77.6-173.3-173.3-173.3H0v-32.1h321c113.5 0 205.4 91.9 205.4 205.4z"></path><path d="M584.2 321c0 145.4-117.8 263.2-263.2 263.2H57.8V266.4h32.1v285.7H321c127.6 0 231.1-103.5 231.1-231.1S448.6 89.9 321 89.9H0V57.8h321c145.4 0 263.2 117.8 263.2 263.2z"></path><path d="M642 321c0 177.3-143.7 321-321 321H0V266.4h32.1v343.5H321c159.6 0 288.9-129.3 288.9-288.9 0-159.6-129.3-288.9-288.9-288.9H0V0h321c177.3 0 321 143.7 321 321z"></path><g><path d="m321 349.9-40.8-70.6a38.39 38.39 0 0 1 0-38.5l40.8-70.6 40.8 70.6c6.9 11.9 6.9 26.6 0 38.5L321 349.9zM167.3 266.4l46.3 80.2c6.9 11.9 19.6 19.3 33.4 19.3h64.8l-46.3-80.2c-6.9-11.9-19.6-19.3-33.4-19.3h-64.8zM474.7 266.4l-46.3 80.2c-6.9 11.9-19.6 19.3-33.4 19.3h-64.8l46.3-80.2c6.9-11.9 19.6-19.3 33.4-19.3h64.8zM340.3 378.8h-32.1l-6.5 88.3h38.6z"></path></g></svg>