<svg xmlns="http://www.w3.org/2000/svg" width="611" viewBox="0 0 611 611" height="611" xml:space="preserve"><path d="m246.7 441.2 41.4-41.5-93.3-93.3 209-209L362.3 56 111.9 306.4z"></path><path d="m0 306.4 190.7 190.7 41.5-41.4L82.8 306.4l265-265L306.4 0z"></path><path d="m364.3 169.8-41.4 41.5 93.3 93.3-209 209 41.5 41.5 250.4-250.5z"></path><path d="M611 304.6 420.3 113.9l-41.5 41.4 149.4 149.3-265 265 41.4 41.4z"></path><path d="m306.3 238.6 15 46.1h48.4l-39.2 28.4 15 46.1-39.2-28.5-39.2 28.5 15-46.1-39.2-28.4h48.5z"></path></svg>