<svg xmlns="http://www.w3.org/2000/svg" width="621.5" viewBox="0 0 621.5 620.1" height="620.1" xml:space="preserve" style="enable-background:new 0 0 621.5 620.1"><path d="M304.6 175.4 158 89.7v75.7l146.6 86zM391.6 43.6l-75.6 44v74.8l139.8-81.7zM304.6 87.4l-75.4-43.9L165 80.6l139.6 81.6zM304.6 0l-64 36.9 64 37.3zM304.6 264.7l-146.6-86v81.9l146.6 84.7zM462.7 178.9l-146.7 86v80.4l146.7-84.7zM316 0v74.4l64.2-37.3zM462.7 89.9 316 175.6v76.1l146.7-86zM316.8 440.3l146.7 86v-76.1l-146.7-85.7zM550.4 318.5l-75.5 43.9v74.8l139.7-81.7zM323.9 355.4 463.5 437v-74.8l-75.4-43.8zM463.5 349v-74.2l-64 37zM316.8 535.4l146.7 84.7v-80.6l-146.7-86zM474.9 539.7v80.4l145.2-83.9 1.4-.8v-81.7l-145.2 85.2zM474.9 274.8v74.4l64.2-37.3zM474.9 450.5v76l146.6-86v-75.8zM0 440.3l146.6 86v-76.1L0 364.5zM158.1 437.2l139.7-81.7-64.1-37-75.6 43.9zM7.1 355.4 146.6 437v-74.8l-75.3-43.8zM146.6 349v-74.2l-64 37zM0 535.4l146.6 84.7v-80.6L0 453.5zM158.1 539.7v80.4l145.2-83.9 1.4-.8v-81.7l-145.2 85.2zM158.1 349.2l64.2-37.3-64.2-37.1zM158.1 526.5l146.6-86v-75.8l-146.6 85.8z"></path></svg>