<svg id="Layer_1" data-name="Layer 1" xmlns="http://www.w3.org/2000/svg" viewBox="0 0 614.12 614.12">   <path d="M307.06,0C137.48,0,0,137.48,0,307.06s137.48,307.06,307.06,307.06,307.06-137.48,307.06-307.06S476.65,0,307.06,0Zm-118.92,435.52l-47.4,51.21c-48.34-44.78-78.67-108.74-78.67-179.67s30.33-134.89,78.67-179.67l47.41,51.21c-34.56,32.02-56.25,77.75-56.25,128.46s21.69,96.44,56.25,128.46Zm285.25,51.21l-47.4-51.21c34.56-32.02,56.25-77.74,56.25-128.46s-21.69-96.44-56.25-128.46l47.4-51.21c48.34,44.78,78.67,108.74,78.67,179.67s-30.33,134.89-78.67,179.67Z"></path> </svg>