<svg data-name="Layer 1" xmlns="http://www.w3.org/2000/svg" viewBox="0 0 589.5 622.47"><path d="M437.59 197.97v15.06c0 11.55-9.36 20.91-20.91 20.91h-42.96c-11.55 0-20.91-9.37-20.91-20.92l.03-42.56c0-11.54 9.37-20.89 20.91-20.89h14.69c18.44 0 27.85-22.13 15.06-35.41L306.25 13.15c-16.89-17.54-44.97-17.54-61.86 0l-97.2 100.99c-12.78 13.28-3.37 35.41 15.06 35.41h14.69c11.55 0 20.91 9.36 20.91 20.91v42.56c-.01 11.54-9.37 20.9-20.92 20.9H18.59c-18.18 0-25.51 23.43-10.58 33.79l24.14 16.76c18.66 12.95 18.66 40.55 0 53.5L8.01 354.73c-14.93 10.37-7.6 33.79 10.58 33.79h158.33c11.54 0 20.9 9.36 20.91 20.9v42.56c.01 11.55-9.35 20.91-20.9 20.91h-14.69c-18.43 0-27.85 22.12-15.06 35.41l97.2 100.99c16.89 17.55 44.97 17.55 61.86 0l97.25-101c12.79-13.28 3.38-35.41-15.06-35.41h-14.69c-11.54 0-20.9-9.35-20.91-20.89l-.03-42.56c0-11.55 9.36-20.92 20.91-20.92h42.96c11.55 0 20.91 9.36 20.91 20.91v15.03c0 18.33 21.91 27.79 35.25 15.21l103.18-97.27c17.98-16.95 17.98-45.55-.01-62.49l-103.17-97.17c-13.34-12.56-35.24-3.11-35.24 15.22Z"></path></svg>