<svg xmlns="http://www.w3.org/2000/svg" width="631.2" viewBox="0 0 631.2 630.6" height="630.6" xml:space="preserve" style="enable-background:new 0 0 631.2 630.6"><path d="M515.2 111.1c-32.7 0-62.3 13.6-83.4 35.5v-30.5C431.7 52.1 379.6 0 315.6 0S199.5 52.1 199.5 116.1v30.5c-21.1-21.9-50.7-35.5-83.5-35.5-63.9 0-116 52.1-116 116.1v187.6c0 58.8 44 107.6 100.8 115.1 7.5 56.8 56.3 100.8 115.1 100.8 42.4 0 79.5-22.8 99.8-56.8 20.3 34 57.4 56.8 99.8 56.8 58.8 0 107.6-44 115.1-100.8 56.8-7.5 100.8-56.3 100.8-115.1V227.2c-.2-64-52.2-116.1-116.2-116.1zM297.3 496.2c-31.3-7.1-56-31.8-63.1-63.1 31.3 7.1 56 31.8 63.1 63.1zm-63.8-96.4c7.1-38.9 41.2-68.5 82.1-68.5 40.9 0 75 29.6 82.1 68.5-34.9 5.3-64.7 26.3-82.1 55.5-17.4-29.2-47.2-50.1-82.1-55.5zM397 433.1c-7.1 31.3-31.8 56-63.1 63.1 7.1-31.3 31.8-56 63.1-63.1zM315.6 32.6c46 0 83.5 37.4 83.5 83.5V334.2c-21.1-21.9-50.7-35.5-83.4-35.5s-62.3 13.6-83.5 35.5V116.1c0-46 37.4-83.5 83.4-83.5zm-283 194.6c0-46 37.4-83.5 83.5-83.5s83.5 37.4 83.5 83.5v107c-21.1-21.9-50.7-35.5-83.5-35.5-32.7 0-62.3 13.6-83.5 35.5v-107zm0 187.6c0-46 37.4-83.5 83.5-83.5 40.9 0 75 29.6 82.1 68.5-49.9 7.6-89.4 47.2-97.1 97.1-38.9-7.1-68.5-41.2-68.5-82.1zm164.9 18.3c-7.1 31.3-31.8 56-63.1 63.1 7.1-31.3 31.8-56 63.1-63.1zM215.9 598c-40.9 0-75-29.6-82.1-68.5 34.9-5.3 64.7-26.3 82.1-55.5 17.4 29.2 47.2 50.1 82.1 55.5-7.1 38.9-41.2 68.5-82.1 68.5zm199.5 0c-40.9 0-75-29.6-82.1-68.5 34.9-5.3 64.7-26.3 82.1-55.5 17.4 29.2 47.2 50.1 82.1 55.5-7.1 38.9-41.2 68.5-82.1 68.5zm18.3-164.9c31.3 7.1 56 31.8 63.1 63.1-31.3-7.1-56-31.8-63.1-63.1zm96.4 63.8c-7.6-49.9-47.2-89.4-97.1-97.1 7.1-38.9 41.2-68.5 82.1-68.5 46 0 83.5 37.4 83.5 83.5 0 40.9-29.6 75-68.5 82.1zm-14.9-198.2c-32.7 0-62.3 13.6-83.4 35.5V226.5c.4-45.7 37.7-82.7 83.4-82.7 46 0 83.5 37.4 83.5 83.5v107c-21.2-22-50.8-35.6-83.5-35.6z"></path></svg>