<svg xmlns="http://www.w3.org/2000/svg" width="412.4" viewBox="0 0 412.4 609.4" height="609.4" style="enable-background:new 0 0 412.4 609.4" xml:space="preserve"><path d="M333.4 0v241c-10.1-8-20.9-14.9-32.2-20.8V0h-78.9v197.7c-5.3-.4-10.7-.6-16.1-.6-5.4 0-10.8.2-16.1.6V0h-78.9v318.8c11.5-13 25.7-23.6 41.6-31v132L79 377.2V199.6H0v203.7c0 55.1 21.4 106.8 60.4 145.8 38.9 38.9 90.7 60.4 145.8 60.4 55.1 0 106.8-21.4 145.8-60.4 38.9-38.9 60.4-90.7 60.4-145.8V0h-79zm-.5 414.7-114.3-66 71.3-41.2c26.6 23.3 43.5 57.6 43.5 95.7 0 3.9-.2 7.7-.5 11.5zM165.2 282.8c12.9-4.4 26.7-6.8 41-6.8 27.2 0 52.5 8.6 73.2 23.3l-112.8 65.1-1.5.8v-82.4zM78.9 391.5l114.8 66.3-71.3 41.2c-26.6-23.3-43.5-57.6-43.5-95.7v-11.8zm54 115.7 114.2-66v82.4c-12.9 4.4-26.7 6.8-41 6.8-27.2.1-52.4-8.5-73.2-23.2zm126.7 11.5v-132L331 428c-8 40.3-35.1 73.8-71.4 90.7z"></path></svg>