<svg xmlns="http://www.w3.org/2000/svg" width="595.3" viewBox="0 0 595.3 622.8" height="622.8" xml:space="preserve" style="enable-background:new 0 0 595.3 622.8"><path d="M446.9 326.1c-81.9 0-148.3 66.4-148.3 148.3 0 2.7.1 5.4.2 8.1h130.4c-1.1-2.5-1.8-5.2-1.8-8.1 0-10.7 8.7-19.5 19.5-19.5s19.5 8.7 19.5 19.5-8.7 18.8-19.5 18.8H185.6l397.6-338.9V0H148.3C66.4 0 0 67.1 0 149s66.4 148.3 148.3 148.3S296.6 230.9 296.6 149c0-2.7-.1-5.4-.2-8.1H166c1.1 2.5 1.8 5.2 1.8 8.1 0 10.8-8.7 19.5-19.5 19.5-10.7 0-19.5-8.7-19.5-19.5 0-10.7 8.7-19.2 19.5-19.2h256L14.8 471.1v151.7H447c81.9 0 148.3-66.4 148.3-148.3s-66.4-148.4-148.4-148.4z"></path></svg>