<svg xmlns="http://www.w3.org/2000/svg" width="598.6" viewBox="0 0 598.6 504.6" height="504.6"><path d="M299.3 28.8C197.8 28.8 97.9 19.2 0 0v60.5c98 18.4 197.9 27.7 299.3 27.7s201.3-9.3 299.3-27.7V0c-97.8 19.2-197.8 28.8-299.3 28.8zM0 100.1h291.7v59.4H0zM306.9 100.1h291.7v59.4H306.9zM0 181.8h291.7v59.4H0zM306.9 181.8h291.7v59.4H306.9zM306.9 263.5h291.7v59.4H306.9zM0 263.5h291.7v59.4H0zM0 345.2h598.6v59.4H0zM0 444.1v60.5c97.9-19.2 197.8-28.8 299.3-28.8s201.4 9.7 299.3 28.8v-60.5c-98-18.4-197.9-27.7-299.3-27.7S98 425.7 0 444.1z"></path></svg>