<svg xmlns="http://www.w3.org/2000/svg" width="623.3" viewBox="0 0 623.3 623.3" height="623.3" xml:space="preserve" style="enable-background:new 0 0 623.3 623.3"><path d="M619.8 358c2.3-15.1 3.4-30.6 3.4-46.4C623.3 139.5 483.7 0 311.6 0 139.5 0 0 139.5 0 311.6c0 172.1 139.5 311.6 311.6 311.6 145.5 0 267.7-99.7 302-234.5h-98.8C483.7 470.7 404.5 529 311.6 529c-104.1 0-191.1-73.2-212.4-171h133.4v-92.3H99.2c21.1-98 108.2-171.4 212.5-171.4s191.4 73.4 212.5 171.4H357.8V124.3h-92.3v374.6h92.3V358h262z"></path></svg>