<svg xmlns="http://www.w3.org/2000/svg" width="609.5" viewBox="0 0 609.5 579.7" height="579.7" xml:space="preserve" style="enable-background:new 0 0 609.5 579.7"><path d="M103.7 579.7V257.8l-73.2 70.6L0 296.8 307.6 0l301.9 296.9-30.9 31.4-73-71.8v323.2H103.7zm44-44.1h313.9v-190l-3 3.1c-41.1 42.4-96.5 65.7-155.9 65.7-56.1 0-111.6-22.7-152-62.2l-3-2.9v186.3zm113.9-335.5c-.7 0-1.4.1-2.3.4-44.7 12.6-83 43.3-105.1 84.2l-.5.9.5.9c24.5 40.6 65.2 69.8 111.7 80 .6.1 1.2.2 1.6.2 2 0 2.4-1.3 2.5-1.7.3-1.3-.6-2.4-2.6-3.4-30.7-14.4-50.6-45.6-50.6-79.5 0-31.7 17.2-61 44.8-76.6 2-1.1 2.8-2.3 2.5-3.6 0-.5-.5-1.8-2.5-1.8zm82.8-1.8c-2.1 0-2.6 1.3-2.7 1.7-.3 1.3.6 2.5 2.6 3.6 29.8 15.1 48.2 45.1 48.2 78.4 0 33.3-18.5 63.3-48.2 78.4-1.8.9-2.6 2-2.3 3.2.2.8.9 1.6 2.3 1.6.5 0 1-.1 1.7-.2 46.6-11.9 86.4-43 109.2-85.3l.5-.9-.5-.9c-23.9-39.6-63.6-68.5-108.7-79.3-.9-.2-1.6-.3-2.1-.3zm-37.8-48.4c42.6 0 84.1 12.5 119.9 36.2 1.1.7 1.9 1 2.7 1 .8 0 1.5-.4 1.9-1 .3-.4.6-1.2.1-2.5-.3-.8-1.2-1.6-1.7-2.1L307.3 61.4 182.6 181.7c-.1.1-1.2 1.1-1.2 2.5 0 .7.3 1.4.7 1.9.5.5 1.2.8 1.9.8s1.4-.2 2.1-.7c35.7-23.8 77.4-36.3 120.5-36.3z"></path></svg>