<svg xmlns="http://www.w3.org/2000/svg" width="610.9" viewBox="0 0 610.9 538" height="538" xml:space="preserve"><path d="M450.7 0 305.4 83.8 160.2 0 0 92.5v353.2L159.9 538l145.5-84L451 538l159.9-92.3V92.5L450.7 0zM145.2 378.8v115.7L30 428V294.9l115.2 66.5v17.4zm0-52L30 260.3V127.2l115.2 66.5v133.1zM45 101.2l115.2-66.5 115.2 66.5-115.2 66.5L45 101.2zM175.2 211l100.2 57.9-100.2 57.9V211zm115.3 217-115.3 66.5v-133l50.1-28.9 65.2-37.6v133zm0-185.1L190.2 185l115.2-66.5L420.7 185l-100.2 57.9-15 8.7-15-8.7zm145.2 251.6L320.4 428V294.9l65.2 37.6 50.1 28.9v133.1zm0-167.7-100.2-57.9L435.7 211v115.8zm15-159.1-115.2-66.5 115.2-66.5 115.2 66.5-115.2 66.5zM580.9 428l-115.2 66.5V361.4l115.2-66.5V428zm0-167.7-115.2 66.5V193.7l115.2-66.5v133.1z"></path></svg>