<svg data-name="Layer 1" xmlns="http://www.w3.org/2000/svg" viewBox="0 0 550.53 558.94"><path d="M175 179.89c19.26 0 34.88-15.62 34.88-34.88 0-5.34-1.23-10.37-3.38-14.9 5.56 2.94 11.88 4.62 18.61 4.62s13.14-1.7 18.72-4.68c-2.16 4.54-3.4 9.59-3.4 14.95 0 19.26 15.62 34.88 34.88 34.88s34.88-15.62 34.88-34.88c0-5.34-1.23-10.37-3.38-14.9 5.56 2.94 11.88 4.62 18.61 4.62s13.05-1.68 18.61-4.62c-2.14 4.52-3.38 9.56-3.38 14.9 0 19.26 15.62 34.88 34.88 34.88s34.88-15.62 34.88-34.88-15.62-34.88-34.88-34.88c-5.34 0-10.37 1.23-14.9 3.38a39.667 39.667 0 0 0 4.62-18.61c0-22-17.83-39.84-39.84-39.84-2.29 0-4.52.24-6.7.61.87-3.49 1.39-7.12 1.39-10.88 0-24.74-20.06-44.79-44.79-44.79s-44.79 20.06-44.79 44.79c0 3.76.52 7.4 1.39 10.89-2.21-.38-4.47-.62-6.79-.62-22 0-39.84 17.83-39.84 39.84 0 6.72 1.68 13.05 4.62 18.61-4.52-2.14-9.56-3.38-14.9-3.38-19.26 0-34.88 15.62-34.88 34.88s15.62 34.88 34.88 34.88ZM286.19 88.2c-.37 2.18-.61 4.41-.61 6.7 0 6.72 1.68 13.05 4.62 18.61-4.52-2.14-9.56-3.38-14.9-3.38s-10.46 1.26-15.01 3.43a39.653 39.653 0 0 0 4.65-18.66c0-2.3-.24-4.53-.61-6.72 3.52.89 7.18 1.41 10.97 1.41s7.39-.51 10.88-1.39Z"></path><circle cx="425.63" cy="195.12" r="32.68"></circle><circle cx="325.42" cy="195.12" r="32.68"></circle><circle cx="225.2" cy="195.12" r="32.68"></circle><circle cx="124.98" cy="195.12" r="32.68"></circle><circle cx="475.74" cy="245.23" r="28.28"></circle><circle cx="375.53" cy="245.23" r="28.28"></circle><circle cx="275.31" cy="245.23" r="28.28"></circle><circle cx="175.09" cy="245.23" r="28.28"></circle><circle cx="74.87" cy="245.23" r="28.28"></circle><circle cx="525.85" cy="295.34" r="24.68"></circle><circle cx="425.63" cy="295.34" r="24.68"></circle><circle cx="325.42" cy="295.34" r="24.68"></circle><circle cx="225.11" cy="295.35" r="24.68"></circle><circle cx="124.89" cy="295.34" r="24.68"></circle><circle cx="24.68" cy="295.34" r="24.68"></circle><circle cx="74.79" cy="345.46" r="20.79"></circle><circle cx="175" cy="345.46" r="20.79"></circle><circle cx="375.44" cy="345.46" r="20.79"></circle><circle cx="475.65" cy="345.46" r="20.79"></circle><circle cx="425.63" cy="395.57" r="16.78"></circle><circle cx="325.42" cy="395.57" r="16.78"></circle><circle cx="225.2" cy="395.57" r="16.78"></circle><circle cx="124.98" cy="395.57" r="16.78" transform="rotate(-9.22 124.953 395.47)"></circle><circle cx="175" cy="445.68" r="13.16"></circle><path d="M225.11 486.37c-5.2 0-9.42 4.22-9.42 9.42s4.22 9.42 9.42 9.42 9.42-4.22 9.42-9.42-4.22-9.42-9.42-9.42ZM325.42 486.37c-5.2 0-9.42 4.22-9.42 9.42s4.22 9.42 9.42 9.42 9.42-4.22 9.42-9.42-4.22-9.42-9.42-9.42Z"></path><circle cx="375.44" cy="445.68" r="13.16"></circle><path d="M275.22 326.65c-9.64 0-17.54 7.89-17.54 17.54v197.22c0 9.64 7.89 17.54 17.54 17.54s17.54-7.89 17.54-17.54V344.19c0-9.64-7.89-17.54-17.54-17.54Z"></path></svg>