<svg xmlns="http://www.w3.org/2000/svg" width="581.9" viewBox="0 0 581.9 626.1" height="626.1" xml:space="preserve" style="enable-background:new 0 0 581.9 626.1"><path d="M581.9 115.1C581.9 51.6 530.3 0 466.8 0c-63.5 0-115.1 51.6-115.1 115.1v39.1c0 33.5-27.2 60.7-60.7 60.7s-60.7-27.2-60.7-60.7v-39.1C230.2 51.6 178.6 0 115.1 0S0 51.6 0 115.1v122.2h14.8C5.4 254 0 273.2 0 293.6v122.2h14.6C5.3 432.4 0 451.5 0 471.8V594h54.4V471.8c0-33.5 27.2-60.7 60.7-60.7s60.7 27.2 60.7 60.7v39.1c0 63.5 51.6 115.1 115.1 115.1 63.5 0 115.1-51.6 115.1-115.1v-39.1c0-33.5 27.2-60.7 60.7-60.7s60.7 27.2 60.7 60.7V594h54.4V471.8c0-20.3-5.3-39.4-14.6-56h14.6V293.6c0-20.5-5.4-39.7-14.8-56.4h14.8V115.1zm-175.8 0c0-33.5 27.2-60.7 60.7-60.7s60.7 27.2 60.7 60.7v80.8c-17.6-11-38.4-17.4-60.7-17.4-27.2 0-52.2 9.5-72 25.4 7.2-15 11.3-31.9 11.3-49.6v-39.2zM291 269.4c27.2 0 52.2-9.5 72-25.4-7.2 15-11.3 31.9-11.3 49.6v39.1c0 33.5-27.2 60.7-60.7 60.7s-60.7-27.2-60.7-60.7v-39.1c0-17.8-4-34.6-11.3-49.6 19.7 15.9 44.7 25.4 72 25.4zm-175.9-215c33.5 0 60.7 27.2 60.7 60.7v39.1c0 17.8 4 34.6 11.3 49.6-19.7-15.9-44.8-25.4-72-25.4-22.3 0-43.1 6.4-60.7 17.4V115c0-33.3 27.2-60.6 60.7-60.6zm0 302.3c-22.3 0-43.1 6.4-60.7 17.4v-80.4c0-33.5 27.2-60.7 60.7-60.7s60.7 27.2 60.7 60.7v39.1c0 17.6 4 34.2 11 49.1-19.6-15.8-44.6-25.2-71.7-25.2zm236.6 154.2c0 33.5-27.2 60.7-60.7 60.7s-60.7-27.2-60.7-60.7v-39.1c0-17.6-4-34.2-11-49.1 19.7 15.7 44.6 25.2 71.7 25.2s52-9.4 71.7-25.2c-7.1 14.9-11 31.6-11 49.1v39.1zm115.1-154.2c-27.1 0-52 9.4-71.7 25.2 7.1-14.9 11-31.6 11-49.1v-39.1c0-33.5 27.2-60.7 60.7-60.7s60.7 27.2 60.7 60.7v80.4c-17.7-11-38.5-17.4-60.7-17.4z"></path></svg>