<svg data-name="Layer 1" xmlns="http://www.w3.org/2000/svg" viewBox="0 0 609.16 551.01"><path d="M514.66 0v456.51H93.05V0H0v454.98c0 53.04 42.99 96.03 96.03 96.03h417.1c53.04 0 96.03-42.99 96.03-96.03V0h-94.5Z"></path><path d="M257.47 440.19c80.15 0 145.36-65.21 145.36-145.37v-74.6h95.1v-74.86C497.93 65.21 432.71 0 352.56 0S207.19 65.21 207.19 145.37v74.6H112.1v74.86c0 80.15 65.21 145.37 145.37 145.37Zm47.66-293.96c0-26.87 21.86-48.72 48.72-48.72s48.72 21.86 48.72 48.72v73.73h-97.44v-73.73Zm-97.68 73.99h97.44v73.73c0 26.86-21.86 48.72-48.72 48.72s-48.72-21.86-48.72-48.72v-73.73Z"></path></svg>