<svg data-name="Layer 1" xmlns="http://www.w3.org/2000/svg" viewBox="0 0 617.78 617.79"><path d="M420.28 617.79h171.13c14.55 0 26.38-11.83 26.38-26.38V416.3H420.28v201.49Zm7.5-194h182.51v167.62c0 10.41-8.47 18.88-18.88 18.88H427.78v-186.5Z"></path><path d="M591.4 0H26.38C11.83 0 0 11.84 0 26.38v565.03c0 14.55 11.83 26.38 26.38 26.38h379.67V416.3H217.9v-14.23h399.88V26.38C617.78 11.83 605.95 0 591.4 0Zm18.88 394.57H210.41v29.22h188.15v186.5H26.38c-10.41 0-18.88-8.47-18.88-18.88V26.38C7.5 15.97 15.97 7.5 26.38 7.5H591.4c10.41 0 18.88 8.47 18.88 18.88v368.19Z"></path><path d="M398.55 381.8h29.22V190.79h-29.22v191.02Zm7.5-183.51h14.23v176.02h-14.23V198.29Z"></path></svg>