<svg id="Layer_1" data-name="Layer 1" xmlns="http://www.w3.org/2000/svg" viewBox="0 0 618.02 618.02">   <path d="M309.01,0C138.62,0,0,138.62,0,309.01s138.62,309.01,309.01,309.01,309.01-138.62,309.01-309.01S479.4,0,309.01,0Zm0,588.33c-154.02,0-279.32-125.3-279.32-279.32S154.99,29.69,309.01,29.69s279.32,125.3,279.32,279.32-125.3,279.32-279.32,279.32Z"></path>   <path d="M309.01,62.34c-136.01,0-246.67,110.65-246.67,246.67s110.65,246.67,246.67,246.67,246.67-110.65,246.67-246.67S445.02,62.34,309.01,62.34Zm0,463.64c-119.64,0-216.98-97.34-216.98-216.98S189.37,92.03,309.01,92.03s216.98,97.34,216.98,216.98-97.34,216.98-216.98,216.98Z"></path>   <path d="M309.01,124.69c-101.64,0-184.32,82.69-184.32,184.32,0,80.3,51.64,148.73,123.43,173.94,9.56,3.36,19.48,5.94,29.69,7.69v-178.01h-60.74v-68.29h183.9v68.29h-60.74v178.01c10.21-1.75,20.12-4.33,29.69-7.69,71.79-25.21,123.43-93.64,123.43-173.94,0-101.64-82.69-184.32-184.32-184.32Zm60.9,326.44v-108.82h60.74v-127.66H187.38v127.66h60.74v108.82c-55.08-23.69-93.74-78.46-93.74-142.12,0-85.27,69.37-154.63,154.63-154.63s154.63,69.37,154.63,154.63c0,63.65-38.67,118.43-93.74,142.12Z"></path> </svg>