<svg data-name="Layer 1" xmlns="http://www.w3.org/2000/svg" viewBox="0 0 529.11 608.35"><path d="m443.2 260.7-51.48 90.27c.4-18.24-3.9-36.7-13.79-53.38 9.07-13.96 13.86-30.1 13.86-46.74 0-29.47-14.87-56.49-39.82-72.48-1.39-37.93-26.47-70.46-62.77-81.51 2.91-100.9-131.57-134.69-176.86-44.53C31.95 60.48-2.85 160.86 54.99 217.16c-5.12 9.46-8.23 19.63-9.23 30.26-88.85 61.05-38.78 199.39 68.5 189.57v171.35h41.29V373.66c-38.81 48.73-116.67 22.3-117.22-40.06-.44-29.36 21.42-56.96 50.04-63.57-11.33-26.39 10.32-56.64 38.84-54.84-10.12-31.82 15.77-66.48 49.09-65.74 27.93 0 50.89 22.73 51.19 50.67l.03.54c.07 12.6-4.65 24.46-12.91 34.01 71.72 14.22 63.72 115.42-9.34 118.04l-1.19-.06c-3.11-.04-6.66-.47-9.97-1.04v256.73h41.29V386.46c74.59-23.36 91.79-123.91 29.28-170.8 4.84-27.53-3.74-55.74-22.8-76.09 42.46-21.52 86.15 25.52 62.24 66.45 52.56-.26 64.16 71.41 14.26 87.87 44.29 26.08 42.09 91.2-3.9 114.16-12.61 6.27-26.62 8.32-40.54 5.86v194.4h41.29V451.98c16.25-4.45 30.45-12.78 42.07-23.68v130.04l85.91-150.64 85.91 150.64V411.33l-85.91-150.64ZM204.46 115.59C154 97.96 97.07 131.68 88.18 184.33c-1.53.81-3.12 1.73-4.81 2.78-41.25-42.88 4.07-111.1 59.62-90.29l-.12-3.1c-1.13-28.86 24.42-54.8 53.25-54.17 29.78-.05 54.13 24.77 53.23 54.58-16.72 2.68-32.2 10.08-44.89 21.44Z"></path><path d="M397.53 508.54h41.14v45.07h-41.14zM446.53 508.54h41.14v45.07h-41.14zM397.53 561.47h41.14v46.88h-41.14zM446.53 561.47h41.14v46.88h-41.14z"></path></svg>