<svg xmlns="http://www.w3.org/2000/svg" width="629.5" viewBox="0 0 629.5 629.7" height="629.7" xml:space="preserve" style="enable-background:new 0 0 629.5 629.7"><path d="M396.3 507.8s-13.6-19.3-81.9-123.8c-68.3 104.6-81.9 123.8-81.9 123.8l-17.8-10.1-76.1 132h351.6l-76.1-132-17.8 10.1zM517.2 340.2s-18.7 2.1-143.4 8.9c56.8 111.7 67.4 133 67.4 133l-17.9 10.3 79.1 137.3h81.2c25.4 0 45.9-20.6 45.9-45.9V319.9H517.2v20.3zM187.6 482s10.6-21.3 67.4-133c-124.8-6.8-143.4-8.9-143.4-8.9v-20.3H0v263.8c0 25.4 20.6 45.9 45.9 45.9h80.4l79.1-137.3-17.8-10.2zM232.7 119.6s13.2 19.8 81.7 125.3c68.5-105.5 81.7-125.3 81.7-125.3l17.9 10.3L489 .1H139.8l75 129.7 17.9-10.2zM111.6 288.7s18.7-1.7 143.5-8.5C197.9 167.1 188 145.5 188 145.5l17.7-10.3L127.5 0 45.9.1C20.5.1 0 20.7 0 46v263.3h111.6v-20.6zM583.6.1h-82.4l-78 135 17.7 10.3s-10 21.6-67.1 134.7c124.8 6.8 143.5 8.5 143.5 8.5v20.7h112.3V46.1c-.1-25.4-20.6-46-46-46z"></path></svg>