<svg xmlns="http://www.w3.org/2000/svg" width="469.9" viewBox="0 0 469.9 642" height="642" style="overflow:visible;enable-background:new 0 0 469.9 642" xml:space="preserve"><circle cx="234.9" cy="149.8" r="18.2"></circle><circle cx="234.9" cy="105.9" r="18.2"></circle><circle cx="190.4" cy="113.8" r="18.2"></circle><circle cx="151.2" cy="136.4" r="18.2"></circle><circle cx="122.2" cy="171" r="18.2"></circle><circle cx="106.7" cy="213.5" r="18.2"></circle><circle cx="106.7" cy="258.7" r="18.2"></circle><circle cx="122.2" cy="301.2" r="18.2"></circle><circle cx="151.2" cy="335.9" r="18.2"></circle><circle cx="190.4" cy="358.5" r="18.2"></circle><circle cx="234.9" cy="366.3" r="18.2"></circle><circle cx="279.5" cy="358.5" r="18.2"></circle><circle cx="318.6" cy="335.9" r="18.2"></circle><circle cx="347.7" cy="301.2" r="18.2"></circle><circle cx="363.1" cy="258.7" r="18.2"></circle><circle cx="363.1" cy="213.5" r="18.2"></circle><circle cx="347.7" cy="171" r="18.2"></circle><circle cx="318.6" cy="136.4" r="18.2"></circle><circle cx="279.5" cy="113.8" r="18.2"></circle><circle cx="234.9" cy="62.1" r="18.2"></circle><circle cx="189.9" cy="68" r="18.2"></circle><circle cx="147.9" cy="85.4" r="18.2"></circle><circle cx="111.9" cy="113.1" r="18.2"></circle><circle cx="84.2" cy="149.1" r="18.2"></circle><circle cx="66.8" cy="191.1" r="18.2"></circle><circle cx="60.9" cy="236.1" r="18.2"></circle><circle cx="66.8" cy="281.2" r="18.2"></circle><circle cx="84.2" cy="323.1" r="18.2"></circle><circle cx="111.9" cy="359.2" r="18.2"></circle><circle cx="147.9" cy="386.8" r="18.2"></circle><circle cx="189.9" cy="404.2" r="18.2"></circle><circle cx="234.9" cy="410.2" r="18.2"></circle><circle cx="280" cy="404.2" r="18.2"></circle><circle cx="322" cy="386.8" r="18.2"></circle><circle cx="358" cy="359.2" r="18.2"></circle><circle cx="385.7" cy="323.1" r="18.2"></circle><circle cx="403" cy="281.2" r="18.2"></circle><circle cx="409" cy="236.1" r="18.2"></circle><circle cx="403" cy="191.1" r="18.2"></circle><circle cx="385.7" cy="149.1" r="18.2"></circle><circle cx="358" cy="113.1" r="18.2"></circle><circle cx="322" cy="85.4" r="18.2"></circle><circle cx="280" cy="68" r="18.2"></circle><circle cx="234.9" cy="18.2" r="18.2"></circle><circle cx="189.6" cy="23" r="18.2"></circle><circle cx="146.3" cy="37.1" r="18.2"></circle><circle cx="106.8" cy="59.8" r="18.2"></circle><circle cx="73" cy="90.3" r="18.2"></circle><circle cx="46.2" cy="127.2" r="18.2"></circle><circle cx="27.7" cy="168.8" r="18.2"></circle><circle cx="18.2" cy="213.3" r="18.2"></circle><circle cx="18.2" cy="258.9" r="18.2"></circle><circle cx="27.7" cy="303.5" r="18.2"></circle><circle cx="46.2" cy="345.1" r="18.2"></circle><circle cx="73" cy="381.9" r="18.2"></circle><circle cx="106.8" cy="412.4" r="18.2"></circle><circle cx="146.3" cy="435.2" r="18.2"></circle><circle cx="234.9" cy="454" r="18.2"></circle><circle cx="234.9" cy="623.8" r="18.2"></circle><circle cx="234.9" cy="581.3" r="18.2"></circle><circle cx="234.9" cy="538.9" r="18.2"></circle><circle cx="234.9" cy="496.5" r="18.2"></circle><circle cx="189.6" cy="449.3" r="18.2"></circle><circle cx="185.2" cy="491.5" r="18.1"></circle><circle cx="180.7" cy="533.8" r="18.1"></circle><circle cx="176.3" cy="576.1" r="18.1"></circle><circle cx="171.9" cy="618.3" r="18.2"></circle><circle cx="298" cy="618.3" r="18.2"></circle><circle cx="293.6" cy="576.1" r="18.1"></circle><circle cx="289.1" cy="533.8" r="18.1"></circle><circle cx="284.7" cy="491.5" r="18.1"></circle><circle cx="280.2" cy="449.3" r="18.2"></circle><circle cx="323.6" cy="435.2" r="18.2"></circle><circle cx="363" cy="412.4" r="18.2"></circle><circle cx="396.9" cy="381.9" r="18.2"></circle><circle cx="423.6" cy="345.1" r="18.2"></circle><circle cx="442.2" cy="303.5" r="18.2"></circle><circle cx="451.6" cy="258.9" r="18.2"></circle><circle cx="451.6" cy="213.3" r="18.2"></circle><circle cx="442.2" cy="168.8" r="18.2"></circle><circle cx="423.6" cy="127.2" r="18.2"></circle><circle cx="396.9" cy="90.3" r="18.2"></circle><circle cx="363" cy="59.8" r="18.2"></circle><circle cx="323.6" cy="37.1" r="18.2"></circle><circle cx="280.2" cy="23" r="18.2"></circle><circle cx="191.8" cy="161.4" r="18.2"></circle><circle cx="160.2" cy="193" r="18.2"></circle><circle cx="148.6" cy="236.1" r="18.2"></circle><circle cx="160.2" cy="279.3" r="18.2"></circle><circle cx="191.8" cy="310.9" r="18.2"></circle><circle cx="234.9" cy="322.5" r="18.2"></circle><circle cx="278.1" cy="310.9" r="18.2"></circle><circle cx="309.7" cy="279.3" r="18.2"></circle><circle cx="321.3" cy="236.1" r="18.2"></circle><circle cx="309.7" cy="193" r="18.2"></circle><circle cx="278.1" cy="161.4" r="18.2"></circle></svg>