<svg data-name="Layer 1" xmlns="http://www.w3.org/2000/svg" viewBox="0 0 613.49 613.49"><path d="M306.74 311.45c-59.83 85.36-138.55 153.44-228.29 200.13 56.16 62.55 137.61 101.92 228.29 101.92s172.13-39.37 228.29-101.92c-89.74-46.68-168.46-114.76-228.29-200.13ZM317.59 231.9c-3.78-6.75-7.42-13.54-10.84-20.25-3.42 6.7-7.05 13.49-10.84 20.26 3.45 6.43 7.09 12.9 10.84 19.31 3.74-6.38 7.37-12.86 10.84-19.31ZM287.38 282.13c-3.76-6.04-7.4-12.11-10.86-18.11-58.08 89.75-137.53 160.09-229.33 206.12 3.36 5.33 6.88 10.54 10.55 15.64 91.24-46.21 170.69-115.62 229.64-203.65ZM258.8 231.09c-3.42-6.82-6.72-13.72-9.86-20.59-53.34 93.55-132.55 167.11-225.62 213.65 2.37 5.72 4.89 11.35 7.59 16.88 92.93-46.37 172.87-118.56 227.89-209.94ZM336.97 264.01c-3.48 6.02-7.11 12.09-10.86 18.11 58.94 88.03 138.39 157.44 229.63 203.65 3.67-5.1 7.19-10.31 10.55-15.64-91.81-46.03-171.25-116.37-229.33-206.12Z"></path><path d="M306.74 0C137.33 0 0 137.33 0 306.74c0 30.19 4.43 59.32 12.56 86.88 93.55-47.57 171.43-124.49 220.76-222.96 5.8-11.58 11.21-23.53 16.1-35.53l2.75-6.78 2.29 6.95c4.09 12.45 8.61 24.83 13.43 36.8 3.19 7.92 6.63 15.94 10.25 23.91 3.9-7.7 7.67-15.59 11.23-23.54 5.96-13.27 10.81-25.08 14.85-36.12l2.52-6.9 2.52 6.9c4.04 11.05 8.9 22.86 14.85 36.12 3.57 7.94 7.34 15.83 11.23 23.53 3.62-7.96 7.07-15.99 10.26-23.92 4.82-11.97 9.35-24.35 13.44-36.8l2.29-6.95 2.76 6.78c4.88 12.01 10.29 23.97 16.08 35.53 49.33 98.47 127.21 175.39 220.76 222.97 8.12-27.55 12.56-56.69 12.56-86.88C613.49 137.33 476.15 0 306.74 0Z"></path><path d="M364.55 210.49c-3.12 6.83-6.42 13.74-9.86 20.59 55.02 91.38 134.95 163.57 227.89 209.94 2.7-5.53 5.22-11.17 7.59-16.88-93.07-46.54-172.29-120.1-225.63-213.65Z"></path></svg>