<svg data-name="Layer 1" xmlns="http://www.w3.org/2000/svg" viewBox="0 0 614.24 602.03"><path d="M307.12 0C137.77 0 0 137.77 0 307.12 0 409.3 50.61 504.5 135.39 561.77c11.98 8.1 28.26 4.95 36.35-7.04 8.1-11.98 4.95-28.26-7.04-36.36-70.34-47.52-112.34-126.5-112.34-211.26 0-62.12 22.38-119.09 59.46-163.35l-10.3-10.24c-9.77-9.72-11.4-25.54-2.65-36.19 10.03-12.22 28.12-12.91 39.07-2.03l11.79 11.72c43.36-34.19 98.02-54.66 157.39-54.66s114.03 20.48 157.39 54.66L476.3 95.3c10.95-10.88 29.03-10.19 39.06 2.03 8.75 10.65 7.12 26.48-2.65 36.19l-10.3 10.24c37.08 44.26 59.46 101.23 59.46 163.35 0 84.76-41.99 163.74-112.34 211.26-11.98 8.1-15.13 24.37-7.04 36.36 5.06 7.49 13.31 11.53 21.72 11.53 5.04 0 10.14-1.46 14.64-4.49 84.78-57.28 135.39-152.47 135.39-254.65C614.24 137.77 476.47 0 307.12 0Z"></path><path d="M464.51 107.03 323.19 247.57v59.18c0 8.84-7.23 16.07-16.07 16.07s-16.07-7.23-16.07-16.07v-59.18L149.73 107.03c-13.86 10.92-26.58 23.22-37.9 36.74L233.54 264.8c3.03 3.01 4.73 7.11 4.73 11.38v98.65L198.8 569.12c-2.32 11.48 2.48 23.62 12.65 29.44 4.24 2.42 8.7 3.46 12.99 3.46 12.3 0 23.31-8.65 25.84-21.17l38.8-191.07c3.99-19.65 32.08-19.65 36.07 0l38.8 191.07c2.53 12.53 13.54 21.17 25.84 21.17 4.29 0 8.75-1.03 12.99-3.46 10.17-5.81 14.97-17.95 12.65-29.44l-39.47-194.29v-98.65c0-4.27 1.7-8.37 4.73-11.38L502.4 143.77c-11.33-13.52-24.05-25.82-37.9-36.74Z"></path><circle cx="307.12" cy="171.41" r="54.3" transform="rotate(-13.28 307.19243648 171.45354551)"></circle></svg>