<svg id="Layer_1" data-name="Layer 1" xmlns="http://www.w3.org/2000/svg" viewBox="0 0 431.15 587.94">   <path d="M274.37,78.39V0h-117.59V78.39H0V352.76H156.78v39.2H0v117.59H156.78v78.39h117.59v-78.39h156.78V235.17h-156.78v-39.2h156.78V78.39h-156.78Zm117.59,78.39H235.17v117.59h156.78v195.98H235.17v78.39h-39.2v-78.39H39.2v-39.2H195.98v-117.59H39.2v-117.59h39.2v78.39h117.59v-117.59H39.2v-39.2H195.98V39.2h39.2V117.59h156.78v39.2Zm-235.17,78.39h-39.2v-39.2h39.2v39.2Z"></path>   <path d="M235.17,431.15h117.59v-117.59h-117.59v117.59Zm78.39-78.39v39.2h-39.2v-39.2h39.2Z"></path> </svg>