<svg data-name="Layer 1" xmlns="http://www.w3.org/2000/svg" viewBox="0 0 392.22 602.28"><path d="M7.99 215.39h1.58L17.56 0H0l7.99 215.39zM31.41 215.39h1.58L40.98 0H23.42l7.99 215.39zM54.82 215.39h1.58L64.39 0H46.83l7.99 215.39zM78.24 215.39h1.58L87.81 0H70.25l7.99 215.39zM101.66 215.39h1.58L111.23 0H93.66l8 215.39zM125.07 215.39h1.58L134.64 0h-17.56l7.99 215.39zM148.49 248.26h1.58L158.06 0H140.5l7.99 248.26zM171.9 297.44h1.59L181.48 0h-17.57l7.99 297.44zM195.32 335.58h1.58L204.89 0h-17.56l7.99 335.58zM218.74 297.44h1.58L228.31 0h-17.56l7.99 297.44zM242.15 248.26h1.58L251.72 0h-17.56l7.99 248.26zM265.57 215.39h1.58L275.14 0h-17.56l7.99 215.39zM288.99 215.39h1.58L298.56 0H281l7.99 215.39zM312.4 215.39h1.58L321.97 0h-17.56l7.99 215.39zM335.82 215.39h1.58L345.39 0h-17.56l7.99 215.39zM359.23 215.39h1.59L368.81 0h-17.57l7.99 215.39zM384.23 215.39 392.22 0h-17.56l7.99 215.39h1.58zM7.99 602.28h1.58l7.99-380.17H0l7.99 380.17zM31.41 602.28h1.58l7.99-380.17H23.42l7.99 380.17zM54.82 602.28h1.58l7.99-380.17H46.83l7.99 380.17zM78.24 602.28h1.58l7.99-380.17H70.25l7.99 380.17zM101.66 602.28h1.58l7.99-380.17H93.66l8 380.17zM125.07 602.28h1.58l7.99-380.17h-17.56l7.99 380.17zM265.57 602.28h1.58l7.99-380.17h-17.56l7.99 380.17zM288.99 602.28h1.58l7.99-380.17H281l7.99 380.17zM312.4 602.28h1.58l7.99-380.17h-17.56l7.99 380.17zM335.82 602.28h1.58l7.99-380.17h-17.56l7.99 380.17zM359.23 602.28h1.59l7.99-380.17h-17.57l7.99 380.17zM382.65 602.28h1.58l7.99-380.17h-17.56l7.99 380.17zM148.49 602.28h1.58l6.92-329.19-16.14-34.11 7.64 363.3zM171.9 602.28h1.59l5.92-281.79-14.05-29.71 6.54 311.5zM218.74 602.28h1.58l6.55-311.5-14.06 29.71 5.93 281.79zM242.15 602.28h1.58l7.64-363.3-16.14 34.11 6.92 329.19zM195.32 602.28h1.58l5.28-251.04h-12.14l5.28 251.04z"></path></svg>