<svg xmlns="http://www.w3.org/2000/svg" width="635.2" viewBox="0 0 635.2 635.2" height="635.2" xml:space="preserve"><path d="M461.2 143.6c-84.4 0-155 60.4-170.7 140.3-42.2-10.4-75.1-44.4-83.9-87.2C274 183.5 327.1 130.3 340.4 63c40 8.2 72.3 37.5 84.9 75.7 11.6-2.3 23.7-3.6 36-3.6 9 0 17.8.7 26.4 1.9-17-78.2-86.8-137-170.1-137-95.9 0-174 78-174 174 0 84.4 60.4 155 140.3 170.7-10.4 42.2-44.4 75.1-87.2 83.9-13.2-67.3-66.4-120.5-133.7-133.8 8.2-40 37.5-72.3 75.7-84.9-2.3-11.6-3.6-23.7-3.6-36 0-9 .7-17.8 1.9-26.4C58.8 164.6 0 234.3 0 317.6c0 95.9 78 174 174 174 84.4 0 155-60.4 170.7-140.3 42.2 10.4 75.1 44.4 83.9 87.2-67.3 13.2-120.5 66.4-133.7 133.7-40-8.2-72.3-37.5-84.9-75.7-11.6 2.3-23.7 3.6-36 3.6-9 0-17.8-.7-26.4-1.9 17 78.3 86.8 137.1 170 137.1 95.9 0 174-78 174-174 0-84.4-60.4-155-140.3-170.7 10.4-42.2 44.4-75.1 87.2-83.9 13.2 67.3 66.4 120.5 133.7 133.7-8.2 40-37.5 72.3-75.7 84.9 2.3 11.6 3.6 23.7 3.6 36 0 9-.7 17.8-1.9 26.4 78.3-17 137.1-86.8 137.1-170-.1-96-78.1-174.1-174.1-174.1zM286 65.3c-11.5 36.6-40.4 65.6-77.1 77.1 10.8-37.1 40-66.3 77.1-77.1zm-220.7 284c36.6 11.5 65.6 40.4 77.1 77.1-37.1-10.9-66.3-40.1-77.1-77.1zm284 220.7c11.5-36.6 40.4-65.6 77.1-77.1-10.9 37-40.1 66.3-77.1 77.1zm143.6-361.1c37 10.8 66.3 40 77.1 77.1-36.7-11.5-65.6-40.5-77.1-77.1z"></path></svg>