<svg data-name="Layer 1" xmlns="http://www.w3.org/2000/svg" viewBox="0 0 625.87 625.77"><path d="M152.41 304.81h152.41v-152.4C304.81 68.26 236.6 0 152.41 0h-48.56v103.84h48.56c26.81 0 48.56 21.75 48.56 48.56v48.56h-48.56c-26.81 0-48.56-21.75-48.56-48.56v-48.56H0v48.56c0 84.15 68.21 152.41 152.41 152.41ZM625.82 152.41v-48.56H521.98v48.51c0 26.81-21.75 48.56-48.56 48.56h-48.56v-48.56c0-26.81 21.75-48.56 48.56-48.56h48.56V0h-48.56c-84.15 0-152.41 68.21-152.41 152.41v152.36h152.41c84.15 0 152.41-68.21 152.41-152.36ZM473.46 320.95H321.05v152.41c0 84.15 68.21 152.41 152.41 152.41h48.56V521.93h-48.56c-26.81 0-48.56-21.75-48.56-48.56v-48.56h48.56c26.81 0 48.56 21.75 48.56 48.56v48.56h103.84v-48.56c0-84.15-68.21-152.41-152.41-152.41ZM.05 473.36v48.56h103.84v-48.51c0-26.81 21.75-48.56 48.56-48.56h48.56v48.56c0 26.81-21.75 48.56-48.56 48.56h-48.56v103.79h48.56c84.15 0 152.41-68.21 152.41-152.41V320.99h-152.4C68.31 321 .05 389.21.05 473.36Z"></path></svg>