<svg xmlns="http://www.w3.org/2000/svg" width="488.2" viewBox="0 0 488.2 619.5" height="619.5" xml:space="preserve" style="enable-background:new 0 0 488.2 619.5"><path d="M455.8 257.5c-37-66.8-103.7-110.6-180.3-118.6-50-5.3-100.2 7.3-126.3 52-18.4 31.4-21.6 70.5-9.9 104.8 12.5 36.6 40.6 62.7 76.6 75.5 38.2 13.6 84.5 2 107.9-32.2 42.5-58.6.6-147.9-73.6-144.6-67.9 4.7-75.2 102.2-9 117.6 41.7 8.9 51.7-51.3 8.9-54.7-4.7-.4-8.6-4.8-5.6-9.3 2.2-3.3 7-4.2 10.6-3.9 42.6 4.1 50.4 64.3 10.7 79.3-23.2 6.3-47.5-3.1-63.7-20.1-27.8-29.4-26-77.7 5.5-103.7 33.5-27.7 81.5-19.1 111.7 9.1 33 30.7 43 78.9 24 120-15.1 32.6-46.1 56.4-82.2 59.3-81 6.6-148.2-66.2-140.1-146.1 1.9-33.2 36.1-89.4 36.1-89.4l35.4-64.7s4.8.7 7.3.7c22.7 0 41.1-18.4 41.1-41.1S222.5 6.1 199.8 6.1s-41.1 18.4-41.1 41.1c0 10.5 4 20.2 10.5 27.4-17.5 31.2-53.6 95.5-53.6 95.5L69 71.4c8.1-7.5 13.3-18.3 13.3-30.2C82.3 18.4 63.8 0 41.1 0 18.4 0 0 18.4 0 41.1s18.4 41.1 41.1 41.1c.9 0 2.6-.1 2.6-.1l52.2 108-6.3 5.3C56 224.8 30.6 262 17.3 304.5c-49.6 157.4 64.2 315.3 231 315 54.2-.1 110.2-20.2 151.6-54.7 43.7-36.4 72.6-84.2 83.7-139.9 11.5-57.3.6-116.2-27.8-167.4z"></path></svg>