<svg data-name="Layer 1" xmlns="http://www.w3.org/2000/svg" viewBox="0 0 616.09 624.65"><path d="M539.5 384.64H315.63v-67.45h112.75c16.45 9 35.32 14.14 55.4 14.14 63.84 0 115.58-51.75 115.58-115.58 0-11.42-1.87-23.71-5.44-34.88-6.75-21.11-20-40.54-33.36-58.02-12.69-16.61-27.05-31.94-42.78-45.71-31.74-27.77-69.07-49.02-109.2-62.01C377.55 5.07 344.95 0 312.32 0 139.83 0 0 139.83 0 312.32s139.83 312.32 312.32 312.32c147.58 0 271.14-102.41 303.77-240.01H539.5ZM315.63 95.67c5.67-.44 11.39-.74 17.18-.74 33.31 0 64.83 7.54 93.07 20.88-19.4 11.27-35.24 27.99-45.38 48.08h-64.87V95.67Zm0 74.36h62.02c-6.07 14.01-9.45 29.46-9.45 45.71 0 7.44.77 14.69 2.11 21.74h-54.68v-67.45Zm0 73.58h56.09c6.9 27.82 23.77 51.69 46.73 67.45H315.62v-67.45ZM309.5 530.8c-52.83-5.6-100-30.04-134.75-66.45H309.5v66.45Zm0-72.58H169.1c-17.39-19.66-31.3-42.46-40.75-67.46H309.5v67.46Zm0-73.58H126.16c-7.3-21.2-11.42-43.87-11.82-67.45H309.5v67.45Zm0-73.58H114.31c.26-23.57 4.26-46.23 11.42-67.45h183.78v67.45Zm0-73.58H127.85c9.26-24.97 22.98-47.75 40.15-67.45h141.5v67.45Zm0-73.58H173.54c34.87-37.11 82.53-62.05 135.96-67.72v67.72Zm23.3 368.15c-5.79 0-11.5-.29-17.18-.74v-66.96h175.27c-39.8 41.7-95.9 67.7-158.09 67.7Zm163.74-73.83H315.62v-67.46h221.62c-9.45 24.99-23.32 47.8-40.7 67.46Z"></path></svg>