<svg id="Layer_1" data-name="Layer 1" xmlns="http://www.w3.org/2000/svg" viewBox="0 0 623.68 623.68">   <rect y="267.29" width="89.1" viewBox="0 0 89.1 89.1" height="89.1"></rect>   <rect x="178.19" y="267.29" width="89.1" height="89.1"></rect>   <rect x="356.39" y="267.29" width="89.1" height="89.1"></rect>   <rect x="178.19" y="445.49" width="89.1" height="89.1"></rect>   <rect x="356.39" y="445.49" width="89.1" height="89.1"></rect>   <rect x="534.58" y="267.29" width="89.1" height="89.1"></rect>   <rect x="89.1" y="178.19" width="89.1" height="89.1"></rect>   <polygon points="311.84 267.29 356.39 178.19 267.29 178.19 311.84 267.29"></polygon>   <polygon points="356.39 445.49 356.39 356.39 311.84 445.49 356.39 445.49"></polygon>   <polygon points="267.29 445.49 311.84 445.49 267.29 356.39 267.29 445.49"></polygon>   <rect x="445.49" y="178.19" width="89.1" height="89.1"></rect>   <rect x="89.1" y="356.39" width="89.1" height="89.1"></rect>   <rect x="445.49" y="356.39" width="89.1" height="89.1"></rect>   <rect x="178.19" y="89.1" width="89.1" height="89.1"></rect>   <rect x="356.39" y="89.1" width="89.1" height="89.1"></rect>   <rect x="267.29" width="89.1" height="89.1"></rect>   <rect x="267.29" y="534.58" width="89.1" height="89.1"></rect> </svg>