<svg id="Layer_1" data-name="Layer 1" xmlns="http://www.w3.org/2000/svg" viewBox="0 0 626.99 471.92">   <path d="M408.28,0l-47.39,27.36L313.5,0l-47.39,27.36L218.71,0,0,126.27v252.54l156.3,90.24v-183.39h124.76v183.42l89.9-51.9v54.73l94.78-54.72v54.73l161.25-93.1V126.27L408.28,0ZM124.56,253.92v160.15l-92.81-53.58V144.6L218.71,36.66l186.96,107.94v215.88l-92.86,53.61V253.92H124.56Zm278.16,144.94l34.71-20.04V126.27L297.85,45.69l15.64-9.03,186.96,107.94v215.88l-97.74,56.43v-18.07Zm192.53-38.37l-97.75,56.44v-18.07l34.71-20.04V126.27L392.64,45.69l15.64-9.03,186.96,107.94v215.88Z"></path>   <path d="M218.71,72.13c-45.17,0-81.91,36.75-81.91,81.91s36.75,81.92,81.91,81.92,81.91-36.75,81.91-81.92-36.75-81.91-81.91-81.91Zm0,132.08c-27.66,0-50.16-22.5-50.16-50.17s22.5-50.16,50.16-50.16,50.16,22.5,50.16,50.16-22.5,50.17-50.16,50.17Z"></path> </svg>