<svg xmlns="http://www.w3.org/2000/svg" width="351.98" viewBox="0 0 351.98 642" height="642" data-name="Layer 1"><path d="M0 0v642h128.54c-32.1-56.24-50.46-121.4-50.46-190.87 0-34.54 4.62-67.99 13.16-99.83 31.27-116.78 79.36-224.57 140.92-321.51v97.13c-39.74 73.96-71.45 153.25-93.86 236.96-7.45 27.86-11.49 57.07-11.49 87.25 0 70.81 21.89 136.62 59.26 190.87h33.45c-10.27-41.67-15.73-85.26-15.73-130.07 0-60.8 10.02-119.28 28.38-173.92 18.36 54.63 28.38 113.12 28.38 173.92 0 44.81-5.46 88.4-15.73 130.07h107.17V0H0Z" style="fill-rule:evenodd;stroke-width:0"></path></svg>