<svg xmlns="http://www.w3.org/2000/svg" width="475.1" viewBox="0 0 475.1 611.4" height="611.4" style="enable-background:new 0 0 475.1 611.4" xml:space="preserve"><path d="M138.1 533.2c-10.8-9.2-20.2-20.3-27.5-33-22.4-38.8-22.4-86.3 0-125.1l108.3-187.6 85.6 148.2L342 291l22.5 39c22.4 38.7 22.4 86.2 0 125.1-22.4 38.8-63.6 62.6-108.3 62.6-29.8 0-57.9-10.5-80.1-29l-.3-.3-37.7 44.8zm230.2-274.4L218.9 0 29.3 328.3c-37.7 65.5-40.5 148.7 0 218.9 13.2 22.8 29.8 42.3 48.8 58.3l7.5-9 7.5-9 7.5-9 7.5-9 7.5-9c39.5 33 89.5 50.8 140.3 50.9 75.6-.1 149-39.3 189.5-109.4 40.5-70.1 37.7-153.4 0-218.9L406 214.2l-.1-.1-37.6 44.7z" style="fill-rule:evenodd;clip-rule:evenodd"></path></svg>