<svg data-name="Layer 1" xmlns="http://www.w3.org/2000/svg" viewBox="0 0 596.12 596.12"><path d="M506.71 85.3c-33.2 17.56-50.92 50.13-47.5 86.56 2.24 19.69 12.94 37.1 28.31 57.19 78.24 93.19 10.92 231.36-117.96 228.61h-10.22v132.12c135.21-28.26 236.78-148.12 236.78-291.72 0-83.35-34.25-158.67-89.4-212.76Z"></path><path d="M193.79 84.15c51.9 0 94.21 41.47 95.77 93h.15v107.64c0 3.51 1.95 6.9 5.21 8.2 1.06.43 2.11.55 3.14.54 1.03 0 2.08-.12 3.14-.54 3.26-1.3 5.21-4.7 5.21-8.2V177.15h.15c1.56-51.53 43.86-93 95.77-93h103.19C451.85 32.1 378.72 0 298.06 0S144.27 32.1 90.61 84.15H193.8Z"></path><path d="M369.56 403.52c44.86 0 97.24-23.65 97.24-90.3 0-15.31-6.87-31.12-22.29-51.28-26.73-32.73-47.89-77.92-37.25-123.65-24.65-2.22-46.86 16.67-46.71 41.78V285.3c0 34.44-28.05 62.37-62.49 62.36-34.45.01-62.49-27.92-62.49-62.36V180.07c.15-25.11-22.06-44-46.71-41.78 10.64 45.74-10.51 90.92-37.25 123.65-15.41 20.16-22.29 35.97-22.29 51.28 0 66.65 52.38 90.3 97.24 90.3h64.38v192.42c2.38.06 4.73.18 7.12.18s4.76-.12 7.14-.18l-.02-192.42h64.38Z"></path><path d="M108.6 229.05c15.37-20.09 26.06-37.5 28.31-57.19 3.42-36.42-14.31-69-47.5-86.56C34.25 139.39 0 214.71 0 298.06c0 143.61 101.58 263.47 236.8 291.73V457.66h-10.24C97.68 460.4 30.36 322.24 108.6 229.05Z"></path></svg>