<svg data-name="Layer 1" xmlns="http://www.w3.org/2000/svg" viewBox="0 0 502.14 609.2"><path d="M502.14 302.72H335.39c5.03 11.39 7.88 23.95 7.88 37.2 0 50.92-41.28 92.19-92.19 92.19s-92.19-41.28-92.19-92.19c0-13.25 2.85-25.82 7.88-37.2H0v306.49h166.76c-5.03-11.39-7.88-23.95-7.88-37.2 0-50.92 41.28-92.19 92.19-92.19s92.19 41.28 92.19 92.19c0 13.25-2.85 25.81-7.88 37.2h166.75V302.72ZM425.35 150.67c6.15 9.82 9.76 21.39 9.76 33.83 0 35.31-28.63 63.94-63.94 63.94s-63.94-28.63-63.94-63.94c0-12.44 3.61-24.01 9.76-33.83H185.15c6.15 9.82 9.76 21.39 9.76 33.83 0 35.31-28.63 63.94-63.94 63.94s-63.94-28.63-63.94-63.94c0-12.44 3.61-24.01 9.76-33.83H0v136.49h502.14V150.67h-76.78Z"></path><circle cx="251.07" cy="73.4" r="73.4"></circle><path d="M10.3 0C6.79 0 3.37.33 0 .81V146c3.37.48 6.79.81 10.3.81 40.54 0 73.4-32.86 73.4-73.4S50.84 0 10.3 0ZM491.84 0c-40.54 0-73.4 32.86-73.4 73.4s32.86 73.4 73.4 73.4c3.51 0 6.93-.33 10.3-.81V.81c-3.37-.48-6.79-.81-10.3-.81Z"></path></svg>