<svg xmlns="http://www.w3.org/2000/svg" width="610.1" viewBox="0 0 610.1 595.2" height="595.2" xml:space="preserve" style="enable-background:new 0 0 610.1 595.2"><path d="M225.4 451.6c-7.6-35.6 11.8-92 22.2-117.4 7.2-18.8 45.4-106.2-31.3-147.9 0 0-86.5-48.2-154.5 61.1 0 0-82.6 129.1 34.2 269.9 0 0 46.2 55.7 128.4 77.8 0 0-150.2-71.3-134.2-228.3 0 0 5-57.3 29-88 0 0 24.7-35.8 51.6-18.7 0 0 26.5 15 12.2 58.1 0 0-.1.1-.1.2v.1s-4.5 13.3-8.7 27.7c-3.8 15-7.7 35.5-8 56.9.8 44.8 15 120 95.7 152.6 43.7 15.9 115.5 26.7 210.9-11.2.1 0-217.6 47.8-247.4-92.9z"></path><path d="M476.3 282.3c-27.1 24.4-85.5 35.8-112.7 39.5-19.9 3.2-114.7 13.7-112.4 101.1 0 0 1.5 99 130.2 103.3 0 0 153.1 7 216.6-164.6 0 0 25.1-67.8 3.1-150.1 0 0 13.3 165.7-130.6 230.3 0 0-52.1 24.4-90.8 18.9 0 0-43.4-3.4-42-35.3 0 0-.3-30.4 44.2-39.6H382.2s13.7-2.7 28.3-6.3c14.9-4.2 34.6-11.1 53.3-21.6 38.4-23.1 96.4-73 84.3-159.2-8.1-45.9-34.7-113.4-115.2-177.2 0 0 150.3 164.7 43.4 260.8z"></path><path d="M204.2 149.5c34.7 11.3 73.7 56.2 90.5 77.9 12.7 15.7 69.2 92.4 143.7 46.8 0 0 85-50.8 24.3-164.4 0 0-70.5-136.1-250.8-105.3 0 0-71.3 12.1-131.6 72.3 0 0 136.9-94.4 264.8-2.1 0 0 47.2 33 61.7 69.2 0 0 18.7 39.3-9.6 54.1 0 0-26.2 15.4-56.4-18.4 0 0-.1-.1-.1-.2h-.1s-9.2-10.5-19.6-21.4c-11.1-10.8-26.9-24.5-45.3-35.3-39.2-21.7-111.4-47-180 6.6C60.2 159.1 15 215.9 0 317.5c0 0 67.5-212.5 204.2-168z"></path></svg>