<svg xmlns="http://www.w3.org/2000/svg" width="614.7" viewBox="0 0 614.7 614.7" height="614.7" xml:space="preserve"><path d="M0 0v614.7h614.7V0H0zm603.2 276.3c-14.8-88.8-92.2-156.7-185.1-156.7h-96.4V11.5h281.5v264.8zm-237.4-47.6-44.2 44.2v-38.5l44.2-44.2v38.5zm-72.7 44.1-44.3-44.3v-38.3l44.3 44.3v38.3zm-20.3 20.3h-38.5l-44.2-44.2h38.5l44.2 44.2zm0 28.5-44.3 44.3h-38.3l44.3-44.3h38.3zM248.9 386l44.2-44.2v38.5l-44.2 44.2V386zm72.7-44.2 44.3 44.3v38.3l-44.3-44.3v-38.3zm20.2-20.2h38.5l44.2 44.2H386l-44.2-44.2zm0-28.5 44.3-44.3h38.3l-44.3 44.3h-38.3zm76.3-144.9c8.9 0 17.6.8 26 2.2l-50.4 50.4v-52.6h24.4zm-96.5 46.6v-46.6h46.6l-46.6 46.6zm-28.5-75.2V195l-72.2-72.2v77.8l-61.8-61.8c21.5-55 72.8-95.3 134-100.7v81.5zm-144.9 77c0-8.9.8-17.6 2.2-26l50.4 50.4h-52.6v-24.4zm0 49.8 46.6 46.6h-46.6v-46.6zm46.8 75.2-72.2 72.2h77.8l-61.8 61.8c-55-21.5-95.3-72.8-100.7-134H195zm26 92.3v52.6h-24.3c-8.9 0-17.6-.8-26-2.2l50.3-50.4zm72.1 6v46.6h-46.6l46.6-46.6zm28.5 75.2v-75.4l72.2 72.2V414l61.8 61.8c-21.5 55-72.8 95.3-134 100.7v-81.4zm144.9-77c0 8.9-.8 17.6-2.2 26l-50.4-50.4h52.6v24.4zm0-49.8-46.6-46.6h46.6v46.6zm-46.8-75.2 72.2-72.2H414l61.8-61.8c55 21.5 95.3 72.8 100.7 134H419.7zM276.3 11.5c-88.8 14.8-156.7 92.2-156.7 185.1V293H11.5V11.5h264.8zM11.5 338.3C26.3 427.1 103.7 495 196.6 495H293v108.1H11.5V338.3zm326.8 264.9C427.1 588.4 495 511 495 418.1v-96.4h108.1v281.5H338.3z"></path></svg>