<svg id="Layer_1" data-name="Layer 1" xmlns="http://www.w3.org/2000/svg" viewBox="0 0 541.21 608.34">   <path d="M541.21,208.46c0-74.09-60.27-134.37-134.37-134.37-5.32,0-10.56,.35-15.72,.95C369.17,30.63,323.41,0,270.61,0s-98.57,30.63-120.52,75.04c-5.16-.6-10.4-.95-15.72-.95C60.27,74.09,0,134.37,0,208.46c0,30.22,10.03,58.14,26.94,80.61C10.03,311.53,0,339.45,0,369.67c0,74.09,60.27,134.37,134.37,134.37h67.72v-158.34h35.79v262.65h65.46V345.69h35.79v158.34h67.72c74.09,0,134.37-60.27,134.37-134.37,0-30.22-10.03-58.14-26.94-80.61,16.9-22.47,26.94-50.39,26.94-80.61Zm-134.37,233.35h-6.48v-182.67H140.84v182.67h-6.48c-41.99,0-76.16-34.17-76.16-76.16,0-30.44,20.3-56.77,47.47-68.95,6.2-2.78,6.58-11.63,.44-14.54-28.35-13.44-47.19-43.79-43.41-77.94,3.89-35.1,32.36-63.52,67.46-67.41,20-2.22,38.63,3.37,53.36,14.04,3.83,2.78,9.1-.27,8.68-4.98-.2-2.27-.31-4.57-.31-6.89,0-37.63,26.57-69.14,61.92-76.86,5.42-1.18,11.02-1.85,16.79-1.85s11.37,.66,16.79,1.85c35.35,7.72,61.92,39.23,61.92,76.86,0,2.32-.11,4.62-.31,6.89-.42,4.71,4.85,7.75,8.68,4.98,14.73-10.68,33.36-16.26,53.36-14.04,35.1,3.89,63.57,32.31,67.46,67.41,3.78,34.15-15.05,64.5-43.41,77.94-6.14,2.91-5.76,11.76,.44,14.54,27.17,12.18,47.47,38.5,47.47,68.95,0,41.99-34.16,76.16-76.16,76.16Z"></path>   <circle cx="270.66" cy="213.66" r="35.12" transform="translate(-41.85 67.9) rotate(-13.28)"></circle>   <circle cx="140.79" cy="213.66" r="35.12" transform="translate(-109.84 162.13) rotate(-45)"></circle>   <circle cx="400.42" cy="213.66" r="35.12" transform="translate(-38.38 97.71) rotate(-13.28)"></circle> </svg>