<svg xmlns="http://www.w3.org/2000/svg" width="613.6" viewBox="0 0 613.6 613.5" height="613.5" xml:space="preserve" style="enable-background:new 0 0 613.6 613.5"><path d="M222.8 172.9h-61.4c1.2 2.6 2.2 4.5 3 6.5 5.6 15.2 6.7 30.9 6.7 47-.2 127.1-.1 252.8-.2 387.1h98.9V220c.1-26-21-47.1-47-47.1zM393.6 172.9h-61.4c1.2 2.6 2.2 4.5 3 6.5 5.6 15.2 6.7 30.9 6.7 47-.2 127.1-.1 260.7-.2 387.1h98.9V220c.1-26-21-47.1-47-47.1zM51.9 172.9H.2v53.5C0 353.5.1 487.1 0 613.5h98.9V220c0-26-21-47.1-47-47.1z" class="st0"></path><path d="M391.3 0H0v101.4h391.8c66.4 0 120.2 53.8 120.2 120.2v392h101.6V222.3C613.6 99.5 514 0 391.3 0z" class="st0"></path></svg>