<svg data-name="Layer 1" xmlns="http://www.w3.org/2000/svg" viewBox="0 0 528.83 610.64"><path d="M264.41 0 0 152.66v305.32l264.41 152.66 264.42-152.66V152.66L264.41 0Zm0 592.43L15.77 448.87V161.76L264.41 18.21l248.65 143.55v135.68h-76.41c-4.14-91.44-79.8-164.56-172.24-164.56-95.08 0-172.44 77.36-172.44 172.44s77.36 172.44 172.44 172.44c92.44 0 168.1-73.12 172.24-164.56h76.41v135.67L264.41 592.43ZM107.86 300.78c2.42-84.29 71.69-152.13 156.56-152.13 82.07 0 149.55 63.44 156.1 143.85L237.15 189.09l-7.75 13.73 191.55 108.03c-2.93 83.84-71.99 151.14-156.53 151.14-81.72 0-148.99-62.9-156.03-142.83l188.23 105.77 7.73-13.74-196.49-110.41Z"></path></svg>