<svg data-name="Layer 1" xmlns="http://www.w3.org/2000/svg" viewBox="0 0 603.85 603.84"><circle cx="301.92" cy="446.79" r="27.59"></circle><path d="M162.67 253.38c13.2 7.62 30.07 3.1 37.69-10.1 7.62-13.2 3.1-30.07-10.1-37.69-13.2-7.62-30.07-3.1-37.69 10.1-7.62 13.2-3.1 30.07 10.1 37.69ZM441.18 253.38c13.2-7.62 17.72-24.49 10.1-37.69-7.62-13.2-24.49-17.72-37.69-10.1-13.2 7.62-17.72 24.49-10.1 37.69 7.62 13.2 24.49 17.72 37.69 10.1Z"></path><path d="M301.92 0C135.44 0 0 135.44 0 301.92s135.44 301.92 301.92 301.92S603.85 468.4 603.85 301.92 468.4 0 301.92 0Zm272.52 301.92c0 48.5-12.79 94.04-35.09 133.53l-.7-7.64c-.36-3.9-9.69-96.14-85.89-140.13-20.92-12.08-45.15-15.62-68.2-9.98-17.89 4.38-33.39 13.9-44.97 27.29l-21.49-12.41v-24.84c40.68-7.89 71.58-44.91 71.58-89.32 0-90.79-75.52-142.52-78.74-144.68l-6.37-4.27c149.05 1.43 269.88 123.07 269.88 272.45Zm-216.3 32.45c7.33-12.7 19.44-21.67 34.11-25.26 14.93-3.64 30.67-1.31 44.33 6.57 47.17 27.24 63.04 79.98 67.9 103.41-22.26 7.73-74.75 20.6-123.3-7.44-13.67-7.89-23.56-20.36-27.86-35.11-4.22-14.49-2.51-29.47 4.82-42.17ZM302.12 67.91c17.83 15.42 55.21 54.44 55.21 110.5 0 32.31-24.86 58.59-55.41 58.59s-55.41-26.28-55.41-58.59c0-54.47 37.75-94.58 55.6-110.5Zm-3.18-38.44-6.35 4.49c-3.2 2.26-78.41 56.46-78.41 144.45 0 44.41 30.9 81.43 71.58 89.32v24.84l-21.51 12.42c-27.17-31.28-74.68-39.54-113.15-17.33-78.62 45.4-85.65 136.67-85.92 140.53l-.51 7.53c-22.4-39.56-35.26-85.2-35.26-133.82 0-149.25 120.63-270.81 269.52-272.43Zm-48.4 347.07c-4.29 14.75-14.19 27.22-27.85 35.11-47.22 27.25-100.87 14.59-123.55 7.08 4.34-23.09 19.27-74.84 68.13-103.05 27.99-16.15 63.17-7.76 78.45 18.69 7.33 12.7 9.05 27.68 4.82 42.17Zm51.39 197.89c-99.58 0-186.82-53.72-234.36-133.67l6.99 3.22c2.27 1.05 37.33 16.83 82.17 16.83 25.62 0 54.44-5.15 82.13-21.15 20.92-12.08 36.1-31.28 42.74-54.07 5.15-17.68 4.66-35.86-1.15-52.6l21.48-12.4L323.42 333c-5.81 16.73-6.3 34.92-1.15 52.6 6.64 22.79 21.82 41.99 42.75 54.07 28.45 16.43 57.41 21.73 82.96 21.73 45.06 0 79.48-16.5 81.7-17.58l6.79-3.33c-47.51 80.11-134.83 133.95-234.53 133.95Z"></path></svg>