<svg data-name="Layer 1" xmlns="http://www.w3.org/2000/svg" viewBox="0 0 626.93 626.93"><path d="M530.6 313.47c56.73-25.88 96.33-83 96.33-149.31C626.93 73.64 553.29 0 462.78 0c-66.31 0-123.43 39.6-149.31 96.33C287.59 39.6 230.47 0 164.16 0 73.64 0 0 73.64 0 164.16c0 66.31 39.6 123.43 96.33 149.31C39.6 339.34 0 396.47 0 462.78c0 90.51 73.64 164.16 164.16 164.16 66.31 0 123.43-39.6 149.31-96.33 25.88 56.73 83 96.33 149.31 96.33 90.51 0 164.16-73.64 164.16-164.16 0-66.31-39.6-123.43-96.33-149.31ZM358.35 419.05c-.85-20.65-15.57-37.7-35.13-42.03 27.71-4.23 49.56-26.07 53.79-53.78 4.33 19.55 21.37 34.28 42.02 35.13-27.31 11.48-49.2 33.38-60.68 60.69Zm104.42-39.8c46.06 0 83.53 37.47 83.53 83.53s-37.47 83.53-83.53 83.53-83.53-37.47-83.53-83.53 37.47-83.53 83.53-83.53Zm0-349.55c74.15 0 134.46 60.32 134.46 134.46S537.2 298.3 463.31 298.6c-6.15-17.52-22.79-30.11-42.41-30.11-21.49 0-39.43 15.08-43.89 35.22-4.23-27.71-26.07-49.56-53.78-53.78 20.14-4.46 35.22-22.4 35.22-43.89 0-19.62-12.59-36.27-30.11-42.41.3-73.9 60.47-133.92 134.44-133.92ZM29.69 164.16c0-74.15 60.32-134.47 134.47-134.47S298.3 89.71 298.6 163.61c-17.53 6.15-30.11 22.79-30.11 42.42 0 21.49 15.08 39.43 35.22 43.89-27.71 4.23-49.56 26.07-53.78 53.78-4.46-20.14-22.4-35.22-43.89-35.22-19.62 0-36.27 12.59-42.41 30.11-73.89-.3-133.92-60.47-133.92-134.44Zm134.46 433.08c-74.15 0-134.46-60.32-134.46-134.46s60.02-134.14 133.92-134.44c6.15 17.53 22.79 30.11 42.42 30.11 21.49 0 39.43-15.08 43.89-35.22 4.23 27.71 26.07 49.56 53.79 53.78-20.14 4.46-35.22 22.4-35.22 43.89 0 19.62 12.59 36.27 30.11 42.42-.3 73.89-60.47 133.92-134.44 133.92Zm298.62 0c-73.96 0-134.14-60.02-134.44-133.92a45.066 45.066 0 0 0 22.64-17.62c-.85 5.58-1.43 11.25-1.43 17.07 0 62.43 50.79 113.22 113.22 113.22s113.22-50.79 113.22-113.22-50.79-113.22-113.22-113.22c-5.82 0-11.48.58-17.07 1.43a45.036 45.036 0 0 0 17.61-22.64c73.9.3 133.92 60.47 133.92 134.44S536.9 597.24 462.76 597.24Z"></path><path d="M462.78 525.07c34.35 0 62.29-27.95 62.29-62.29s-27.95-62.29-62.29-62.29-62.29 27.95-62.29 62.29 27.95 62.29 62.29 62.29Zm0-94.89c17.97 0 32.6 14.63 32.6 32.6s-14.63 32.6-32.6 32.6-32.6-14.63-32.6-32.6 14.63-32.6 32.6-32.6Z"></path></svg>