<svg xmlns="http://www.w3.org/2000/svg" width="619.2" viewBox="0 0 619.2 399.5" height="399.5" style="enable-background:new 0 0 619.2 399.5" xml:space="preserve"><path d="M540 0c-32.6-.1-60.4 19.7-72.7 48.6-.4.9-1.6.9-1.9 0C453.3 19.2 424.7.1 391.4 0h-.7c-42.6-.1-78.2 31.1-80.4 75.8 0 .7-.6 1.2-1.2 1.2-.7 0-1.2-.5-1.2-1.2-1-20.2-9.9-37.8-22.9-51.1C270.5 10 250.7 1 228.8.9 184.4.8 149.4 36 149.3 81.2v197c0 .5-.7.7-1 .3-15-24.7-43.2-41-74.2-39.2C33.2 241.6.5 277.6 0 317.5c-.6 44.2 34.5 81.9 78.6 82 36.1.1 63.8-21 75-50.2.3-.8 1.4-.8 1.8 0 11.8 28.9 39 49.5 72.6 49 69.4-1 78.8-59.7 80.8-74 0-.3.5-.3.6 0 4.1 40.7 38.8 74.5 80.5 74.6h.7c44.4.1 80.5-35.9 80.6-80.4l.4-194.5c0-1 1.3-1.4 1.8-.5 13.9 22.4 38.6 36.9 66.4 37 43.9.1 79.4-34.1 79.5-80C619.3 33.3 583.8.1 540 0zM228.6 142.5c-31.9-.1-60.2-26.1-60.1-61 .1-33.8 27.2-60.5 60.3-60.4 33.2.1 59.9 27.2 59.8 61 0 33.7-26.8 60.5-60 60.4zm160.9 236.8c-31.4-.5-59.8-26.6-59.7-60.2.1-33.7 25.7-60.3 60.2-60.2 34.4.1 61.5 27 61.5 60.7-.2 33.6-27.6 60.3-62 59.7z"></path></svg>