<svg data-name="Layer 1" xmlns="http://www.w3.org/2000/svg" viewBox="0 0 610.37 493.48"><path d="M574.98 152.92c22.56-14.54 35.39-31.11 35.39-48.71C610.37 46.66 473.74 0 305.19 0S0 46.66 0 104.21c0 17.6 12.83 34.17 35.39 48.71 51.21-33 152.79-55.5 269.8-55.5s218.58 22.49 269.8 55.5ZM574.98 152.92c-51.21 33-152.79 55.5-269.8 55.5s-218.58-22.49-269.8-55.5C12.83 167.46 0 184.03 0 201.63c0 45.69 86.15 84.48 205.97 98.55v-45.67H404.4v45.67c119.83-14.06 205.97-52.86 205.97-98.55 0-17.6-12.83-34.17-35.39-48.71Z"></path><path d="M205.97 300.17v193.3H404.4v-193.3c-31.12 3.65-64.47 5.66-99.21 5.66s-68.1-2.01-99.21-5.66Z"></path></svg>