<svg data-name="Layer 1" xmlns="http://www.w3.org/2000/svg" viewBox="0 0 619.53 537.18"><path d="m386.15 402.36 84.69-146.16h142.21L605 242.33H478.69l7.99-13.8 110.33.02-7.84-13.53h-94.54l7.65-13.2 79.32.16-7.72-13.31H509.9l7.87-13.59H566l-7.81-13.47h-32.61l7.77-13.42h17.06l-16.55-28.52-155.72 268.77 8.01 13.92zM323.93 294.2 479.46 25.86 471.42 12 315.94 280.36l7.99 13.84zM347.17 334.61l7.67 13.32L510.46 79.32l-7.71-13.24-155.39 268.2-.19.33zM339.66 321.55l155.57-268.5-7.82-13.48-155.54 268.44 7.79 13.54zM370.3 374.46l.12.55 155.69-268.72-7.79-13.43-155.66 268.66 7.64 12.94zM603.84 267.35l-148.2 255.79 7.79 13.54 156.1-269.33h-15.69z"></path><path d="M588.64 267.35h-16.01L440.09 496.11l7.97 13.87 140.58-242.63zM557.18 267.35h-15.7L424.57 469.14l7.82 13.59 124.79-215.38zM526.16 267.35h-15.57L409.15 442.33l7.79 13.54 109.22-188.52zM393.5 415.14l7.89 13.7 93.57-161.49-15.62-.03-85.84 147.82zM387.85 134.21l-168.92.03-71.31-123.03-7.97 13.91 63.34 109.29h-15.94l-55.32-95.46-7.76 13.57 47.4 81.79h-15.25L116.48 65.6l-7.65 13.36 32.09 55.35-15.7.01-24.19-41.73-7.74 13.51 16.36 28.22H94.14l-8.56-14.75-16.37 28.61 310.62-.06 8.02-13.91zM325.48 242.29H15.32L7.37 256.2l310.15-.06 7.96-13.85zM348.78 201.91l7.69-13.31-310.44.06-7.59 13.31 309.97-.06h.37zM341.26 214.96l-310.32.05-7.74 13.53 310.25-.05 7.81-13.53zM371.67 161.92l.41-.38-310.56.06-7.71 13.48 310.5-.06 7.36-13.1zM457.5 13.53 465.31 0h-311.3l7.87 13.58 295.62-.05z"></path><path d="m449.91 26.68-280.41.05 8.03 13.85 264.39-.05 7.99-13.85zM426.36 67.49l7.84-13.59-248.92.05 7.87 13.58 233.21-.04zM410.9 94.27l7.81-13.53-217.87.04 7.8 13.48 202.26.01zM395.23 121.44l7.9-13.69-186.65.03 7.81 13.53 170.94.13zM154.96 267.56l84.45 146.3-70.92 123.26 16.04-.05 62.99-109.49 7.98 13.81-55.04 95.62 15.64-.05 47.14-81.94 7.63 13.21-39.7 68.67 15.39-.05 31.91-55.46 7.85 13.6-24.06 41.81 15.58-.06 16.26-28.27 7.76 13.44-8.51 14.78 32.97-.12-155.3-269.01h-16.06zM279.74 267.57l155.02 268.64 16.02-.07-155.06-268.6-15.98.03zM233.13 267.56h-15.37l155.2 268.85 15.33-.07-154.97-268.45-.19-.33zM248.18 267.56l155.15 268.75 15.59-.06-155.11-268.69h-15.63zM187.05 267.73l-.54-.17 155.27 268.96 15.53-.05-155.24-268.91-15.02.17zM0 267.55l155.59 269.63 7.83-13.61-147.8-256.02H0z"></path><path d="M30.8 267.56 171 510.4l7.98-13.88L46.8 267.56h-16zM194.52 469.53 77.92 267.56H62.23l124.46 215.58 7.83-13.61zM209.92 442.75 108.85 267.56H93.23l108.93 188.69 7.76-13.5zM225.53 415.68l-85.32-148.12h-15.8l93.31 161.64 7.81-13.52z"></path></svg>