<svg data-name="Layer 1" xmlns="http://www.w3.org/2000/svg" viewBox="0 0 616.17 614.57"><path d="M355.3 498.07h64.91v116.49H355.3zM275.63 498.07h64.91v116.49h-64.91zM195.96 498.07h64.91v116.49h-64.91z"></path><path d="M616.17 260.87c0-31.84-21.79-58.51-51.25-66.13 7.75-11.09 12.34-24.56 12.34-39.11 0-37.77-30.62-68.38-68.38-68.38-7.82 0-15.31 1.38-22.31 3.8 0-.14.02-.28.02-.43 0-37.77-30.62-68.38-68.38-68.38-18.38 0-35.04 7.29-47.33 19.1C360.4 17.02 336.24 0 308.08 0s-52.31 17.02-62.8 41.33c-12.29-11.8-28.94-19.1-47.33-19.1-37.77 0-68.38 30.62-68.38 68.38 0 .14.02.28.02.43-7-2.42-14.49-3.8-22.31-3.8-37.77 0-68.38 30.62-68.38 68.38 0 14.56 4.58 28.02 12.34 39.11C21.79 202.35 0 229.03 0 260.87s22.23 59.06 52.14 66.36c-8.28 11.31-13.23 25.22-13.23 40.31 0 37.77 30.62 68.38 68.38 68.38 7.86 0 15.38-1.39 22.41-3.83 1.25 35.98 30.23 64.85 66.26 65.89V394.74H184c-44.74 0-83.82-30.31-95.02-73.71-.76-2.93-1.39-5.96-1.87-8.97-1.32-8.26 4.31-16.02 12.57-17.34 8.25-1.31 16.03 4.31 17.34 12.57.33 2.07.76 4.15 1.29 6.17 7.75 30.03 34.77 50.99 65.7 50.99h76.87v133.63h14.77V269.64h-12.2c-44.74 0-83.82-30.31-95.02-73.71-.76-2.93-1.39-5.96-1.87-8.97-1.32-8.26 4.31-16.02 12.57-17.34 8.25-1.31 16.03 4.31 17.34 12.57.33 2.07.76 4.15 1.29 6.17 7.75 30.03 34.77 50.99 65.7 50.99h77.11v258.72h14.77V301.56h78.54c30.93 0 57.94-20.97 65.7-50.99.52-2.02.96-4.1 1.29-6.17 1.32-8.26 9.09-13.88 17.34-12.57 8.26 1.32 13.89 9.09 12.57 17.34-.48 3.02-1.11 6.04-1.87 8.97-11.2 43.4-50.28 73.71-95.02 73.71h-13.64v166.13c36.03-1.05 65.01-29.91 66.26-65.89 7.03 2.44 14.55 3.83 22.41 3.83 37.77 0 68.38-30.62 68.38-68.38 0-15.09-4.95-29-13.23-40.31 29.91-7.3 52.14-34.2 52.14-66.36Zm-387.76 17.12c20.79 0 37.64 16.85 37.64 37.64s-16.85 37.64-37.64 37.64-37.64-16.85-37.64-37.64 16.85-37.64 37.64-37.64Zm79.67-49.82c-20.79 0-37.64-16.85-37.64-37.64s16.85-37.64 37.64-37.64 37.64 16.85 37.64 37.64-16.85 37.64-37.64 37.64Zm79.67 62.22c-20.79 0-37.64-16.85-37.64-37.64s16.85-37.64 37.64-37.64 37.64 16.85 37.64 37.64-16.85 37.64-37.64 37.64Z"></path></svg>