<svg xmlns="http://www.w3.org/2000/svg" width="602.3" viewBox="0 0 602.3 614.1" height="614.1"><path d="M508.5 366.7l-26.9-47h59.5l61.1-107.9-33-55-162.2-.1 29.3-48.3L375.8.3 311.6 0 224 144.6l-29.9-52.5h-124l-31.6 55.8L121 293.7l-59.6-.2L0 401.2l32.8 55.1 163.6.6-29.5 49.1 63.3 108h64.2l84.4-145.6 30.5 53.1h124l31.5-56.4-56.3-98.4zM525 510.6l-108-.1h.1l-95.4-167L226 509.2l53.7 92.3h-43.9l-55.5-94.1 97.9-162.8L90 344l-.4-.6L36 437.2l-22.4-37.7 53.6-93.8 190 .7-92.8-164.6.4-.6h-108L78.4 103h108L280 268.3l98.5-161.6h.7l-52.8-94.2 43.9.2L423 107l-98.5 162.5 188-.2.4.6 53.3-94 22.5 37.6-53.3 94-190.7-.1 94.4 164.8 107.3-.4-21.4 38.8z"></path></svg>