<svg data-name="Layer 1" xmlns="http://www.w3.org/2000/svg" viewBox="0 0 576.16 600.67"><path d="M288.07 2.5c15.51 0 28.12 12.61 28.12 28.12s-12.61 28.12-28.12 28.12-28.13-12.61-28.13-28.12S272.56 2.5 288.07 2.5m0-2.5c-16.92 0-30.63 13.72-30.63 30.62s13.71 30.63 30.63 30.63 30.63-13.72 30.63-30.63S304.99 0 288.07 0ZM288.07 69.93c15.51 0 28.12 12.62 28.12 28.12s-12.61 28.12-28.12 28.12-28.13-12.61-28.13-28.12 12.62-28.12 28.13-28.12m0-2.5c-16.92 0-30.63 13.72-30.63 30.62s13.71 30.63 30.63 30.63 30.63-13.72 30.63-30.63-13.71-30.62-30.63-30.62ZM288.07 137.36c15.51 0 28.12 12.61 28.12 28.12s-12.61 28.12-28.12 28.12-28.13-12.61-28.13-28.12 12.62-28.12 28.13-28.12m0-2.5c-16.92 0-30.63 13.72-30.63 30.62s13.71 30.63 30.63 30.63 30.63-13.72 30.63-30.63-13.71-30.62-30.63-30.62ZM288.07 204.78c15.51 0 28.12 12.62 28.12 28.12s-12.61 28.12-28.12 28.12-28.13-12.61-28.13-28.12 12.62-28.12 28.13-28.12m0-2.51c-16.92 0-30.63 13.72-30.63 30.63s13.71 30.62 30.63 30.62 30.63-13.72 30.63-30.62-13.71-30.63-30.63-30.63ZM288.07 272.22c15.51 0 28.12 12.61 28.12 28.12s-12.61 28.12-28.12 28.12-28.13-12.62-28.13-28.12 12.62-28.12 28.13-28.12m0-2.5c-16.92 0-30.63 13.71-30.63 30.62s13.71 30.62 30.63 30.62 30.63-13.71 30.63-30.62-13.71-30.62-30.63-30.62ZM557.78 82.18c8.75 0 15.87 7.12 15.87 15.87s-7.12 15.87-15.87 15.87-15.87-7.11-15.87-15.87 7.13-15.87 15.87-15.87m0-2.5c-10.16 0-18.38 8.23-18.38 18.37s8.22 18.38 18.38 18.38 18.38-8.23 18.38-18.38-8.23-18.37-18.38-18.37ZM557.78 554.18c8.75 0 15.87 7.12 15.87 15.87s-7.12 15.87-15.87 15.87-15.87-7.13-15.87-15.87 7.13-15.87 15.87-15.87m0-2.51c-10.16 0-18.38 8.23-18.38 18.38s8.22 18.38 18.38 18.38 18.38-8.23 18.38-18.38-8.23-18.38-18.38-18.38ZM490.35 79.12c10.44 0 18.93 8.49 18.93 18.93s-8.49 18.93-18.93 18.93-18.94-8.49-18.94-18.93 8.49-18.93 18.94-18.93m0-2.51c-11.84 0-21.44 9.6-21.44 21.44s9.6 21.44 21.44 21.44 21.43-9.6 21.43-21.44-9.58-21.44-21.43-21.44ZM490.35 483.68c10.44 0 18.93 8.49 18.93 18.93s-8.49 18.93-18.93 18.93-18.94-8.49-18.94-18.93 8.49-18.93 18.94-18.93m0-2.51c-11.84 0-21.44 9.61-21.44 21.44s9.6 21.44 21.44 21.44 21.43-9.6 21.43-21.44-9.58-21.44-21.43-21.44ZM422.93 76.05c12.13 0 21.99 9.87 21.99 21.99s-9.86 22-21.99 22-22-9.86-22-22 9.87-21.99 22-21.99m0-2.51c-13.54 0-24.5 10.97-24.5 24.5s10.96 24.5 24.5 24.5 24.5-10.97 24.5-24.5-10.97-24.5-24.5-24.5ZM422.93 413.2c12.13 0 21.99 9.87 21.99 21.99s-9.86 22-21.99 22-22-9.87-22-22 9.87-21.99 22-21.99m0-2.51c-13.54 0-24.5 10.97-24.5 24.5s10.96 24.5 24.5 24.5 24.5-10.96 24.5-24.5-10.97-24.5-24.5-24.5ZM355.49 72.99c13.82 0 25.06 11.24 25.06 25.06s-11.24 25.06-25.06 25.06-25.05-11.24-25.05-25.06 11.24-25.06 25.05-25.06m0-2.5c-15.23 0-27.56 12.35-27.56 27.56s12.34 27.56 27.56 27.56 27.56-12.35 27.56-27.56-12.34-27.56-27.56-27.56ZM355.49 342.7c13.82 0 25.06 11.24 25.06 25.07s-11.24 25.05-25.06 25.05-25.05-11.23-25.05-25.05 11.24-25.07 25.05-25.07m0-2.5c-15.23 0-27.56 12.35-27.56 27.57s12.34 27.56 27.56 27.56 27.56-12.34 27.56-27.56-12.34-27.57-27.56-27.57ZM18.38 554.18c8.75 0 15.88 7.12 15.88 15.87s-7.13 15.87-15.88 15.87-15.87-7.13-15.87-15.87 7.12-15.87 15.87-15.87m0-2.51C8.23 551.67 0 559.9 0 570.05s8.23 18.38 18.38 18.38 18.38-8.23 18.38-18.38-8.23-18.38-18.38-18.38ZM18.38 82.18c8.75 0 15.88 7.12 15.88 15.87s-7.13 15.87-15.88 15.87-15.87-7.11-15.87-15.87 7.12-15.87 15.87-15.87m0-2.5C8.23 79.68 0 87.91 0 98.05s8.23 18.38 18.38 18.38 18.38-8.23 18.38-18.38-8.23-18.37-18.38-18.37ZM85.8 483.68c10.44 0 18.94 8.49 18.94 18.93s-8.49 18.93-18.94 18.93-18.93-8.49-18.93-18.93 8.49-18.93 18.93-18.93m0-2.51c-11.84 0-21.44 9.61-21.44 21.44s9.59 21.44 21.44 21.44 21.44-9.6 21.44-21.44-9.6-21.44-21.44-21.44ZM85.8 79.12c10.44 0 18.94 8.49 18.94 18.93s-8.49 18.93-18.94 18.93-18.93-8.49-18.93-18.93 8.49-18.93 18.93-18.93m0-2.51c-11.84 0-21.44 9.6-21.44 21.44s9.59 21.44 21.44 21.44 21.44-9.6 21.44-21.44-9.6-21.44-21.44-21.44ZM153.24 413.2c12.13 0 21.99 9.87 21.99 21.99s-9.86 22-21.99 22-21.99-9.87-21.99-22 9.87-21.99 21.99-21.99m0-2.51c-13.54 0-24.5 10.97-24.5 24.5s10.96 24.5 24.5 24.5 24.49-10.98 24.49-24.5-10.97-24.5-24.49-24.5ZM153.24 76.05c12.13 0 21.99 9.87 21.99 21.99s-9.86 22-21.99 22-21.99-9.86-21.99-22 9.87-21.99 21.99-21.99m0-2.51c-13.54 0-24.5 10.97-24.5 24.5s10.96 24.5 24.5 24.5 24.49-10.97 24.49-24.5-10.97-24.5-24.49-24.5ZM220.67 342.7c13.81 0 25.05 11.24 25.05 25.07s-11.24 25.05-25.05 25.05-25.06-11.23-25.06-25.05 11.24-25.07 25.06-25.07m0-2.5c-15.23 0-27.57 12.35-27.57 27.57s12.34 27.56 27.57 27.56 27.56-12.34 27.56-27.56-12.34-27.57-27.56-27.57ZM220.67 72.99c13.81 0 25.05 11.24 25.05 25.06s-11.24 25.06-25.05 25.06-25.06-11.24-25.06-25.06 11.24-25.06 25.06-25.06m0-2.5c-15.23 0-27.57 12.35-27.57 27.56s12.34 27.56 27.57 27.56 27.56-12.35 27.56-27.56-12.34-27.56-27.56-27.56ZM318.7 367.77c0 16.91-13.71 30.62-30.63 30.62s-30.63-13.71-30.63-30.62 13.71-30.63 30.63-30.63 30.63 13.71 30.63 30.63ZM318.7 435.19c0 16.91-13.71 30.63-30.63 30.63s-30.63-13.72-30.63-30.63 13.71-30.62 30.63-30.62 30.63 13.72 30.63 30.62ZM318.7 502.61c0 16.92-13.71 30.63-30.63 30.63s-30.63-13.71-30.63-30.63 13.71-30.62 30.63-30.62 30.63 13.72 30.63 30.62ZM318.7 570.05c0 16.91-13.71 30.62-30.63 30.62s-30.63-13.72-30.63-30.62 13.71-30.62 30.63-30.62 30.63 13.71 30.63 30.62ZM576.16 30.62c0 10.15-8.23 18.38-18.38 18.38s-18.38-8.23-18.38-18.38 8.22-18.37 18.38-18.37 18.38 8.23 18.38 18.37ZM576.16 165.48c0 10.15-8.23 18.38-18.38 18.38s-18.38-8.23-18.38-18.38 8.22-18.37 18.38-18.37 18.38 8.23 18.38 18.37ZM576.16 232.9c0 10.15-8.23 18.37-18.38 18.37s-18.38-8.23-18.38-18.37 8.22-18.37 18.38-18.37 18.38 8.23 18.38 18.37ZM576.16 300.34c0 10.15-8.23 18.38-18.38 18.38s-18.38-8.23-18.38-18.38 8.22-18.38 18.38-18.38 18.38 8.23 18.38 18.38ZM576.16 367.77c0 10.14-8.23 18.37-18.38 18.37s-18.38-8.23-18.38-18.37 8.22-18.38 18.38-18.38 18.38 8.24 18.38 18.38ZM576.16 435.19c0 10.15-8.23 18.38-18.38 18.38s-18.38-8.23-18.38-18.38 8.22-18.37 18.38-18.37 18.38 8.22 18.38 18.37ZM576.16 502.61c0 10.15-8.23 18.38-18.38 18.38s-18.38-8.23-18.38-18.38 8.22-18.37 18.38-18.37 18.38 8.24 18.38 18.37ZM511.78 30.62c0 11.84-9.58 21.44-21.43 21.44s-21.44-9.6-21.44-21.44 9.6-21.44 21.44-21.44 21.43 9.6 21.43 21.44ZM511.78 165.48c0 11.84-9.58 21.44-21.43 21.44s-21.44-9.6-21.44-21.44 9.6-21.43 21.44-21.43 21.43 9.6 21.43 21.43ZM511.78 232.9c0 11.84-9.58 21.44-21.43 21.44s-21.44-9.6-21.44-21.44 9.6-21.44 21.44-21.44 21.43 9.6 21.43 21.44ZM511.78 300.34c0 11.84-9.58 21.44-21.43 21.44s-21.44-9.6-21.44-21.44 9.6-21.44 21.44-21.44 21.43 9.6 21.43 21.44ZM511.78 367.77c0 11.83-9.58 21.43-21.43 21.43s-21.44-9.6-21.44-21.43 9.6-21.44 21.44-21.44 21.43 9.61 21.43 21.44ZM511.78 435.19c0 11.84-9.58 21.44-21.43 21.44s-21.44-9.6-21.44-21.44 9.6-21.43 21.44-21.43 21.43 9.6 21.43 21.43ZM511.78 570.05c0 11.84-9.58 21.44-21.43 21.44s-21.44-9.6-21.44-21.44 9.6-21.44 21.44-21.44 21.43 9.6 21.43 21.44ZM447.42 30.62c0 13.52-10.97 24.5-24.5 24.5s-24.5-10.98-24.5-24.5 10.96-24.5 24.5-24.5 24.5 10.97 24.5 24.5ZM447.42 165.48c0 13.52-10.97 24.5-24.5 24.5s-24.5-10.98-24.5-24.5 10.96-24.5 24.5-24.5 24.5 10.98 24.5 24.5ZM447.42 232.9c0 13.53-10.97 24.5-24.5 24.5s-24.5-10.97-24.5-24.5 10.96-24.5 24.5-24.5 24.5 10.97 24.5 24.5ZM447.42 300.34c0 13.53-10.97 24.5-24.5 24.5s-24.5-10.97-24.5-24.5 10.96-24.5 24.5-24.5 24.5 10.97 24.5 24.5ZM447.42 367.77c0 13.52-10.97 24.49-24.5 24.49s-24.5-10.97-24.5-24.49 10.96-24.51 24.5-24.51 24.5 10.98 24.5 24.51ZM447.42 502.61c0 13.54-10.97 24.5-24.5 24.5s-24.5-10.96-24.5-24.5 10.96-24.5 24.5-24.5 24.5 10.98 24.5 24.5ZM447.42 570.05c0 13.52-10.97 24.5-24.5 24.5s-24.5-10.98-24.5-24.5 10.96-24.5 24.5-24.5 24.5 10.97 24.5 24.5ZM383.05 30.62c0 15.23-12.34 27.56-27.56 27.56s-27.56-12.34-27.56-27.56 12.34-27.56 27.56-27.56 27.56 12.35 27.56 27.56ZM383.05 165.48c0 15.22-12.34 27.56-27.56 27.56s-27.56-12.35-27.56-27.56 12.34-27.56 27.56-27.56 27.56 12.35 27.56 27.56ZM383.05 232.9c0 15.21-12.34 27.56-27.56 27.56s-27.56-12.35-27.56-27.56 12.34-27.56 27.56-27.56 27.56 12.35 27.56 27.56ZM383.05 300.34c0 15.21-12.34 27.56-27.56 27.56s-27.56-12.35-27.56-27.56 12.34-27.56 27.56-27.56 27.56 12.34 27.56 27.56ZM383.05 435.19c0 15.22-12.34 27.57-27.56 27.57s-27.56-12.35-27.56-27.57 12.34-27.56 27.56-27.56 27.56 12.34 27.56 27.56ZM383.05 502.61c0 15.23-12.34 27.57-27.56 27.57s-27.56-12.35-27.56-27.57 12.34-27.56 27.56-27.56 27.56 12.35 27.56 27.56ZM383.05 570.05c0 15.23-12.34 27.56-27.56 27.56s-27.56-12.34-27.56-27.56 12.34-27.56 27.56-27.56 27.56 12.35 27.56 27.56ZM0 502.61c0-10.13 8.23-18.37 18.38-18.37s18.38 8.24 18.38 18.37-8.23 18.38-18.38 18.38S0 512.76 0 502.61ZM0 435.19c0-10.15 8.23-18.37 18.38-18.37s18.38 8.22 18.38 18.37-8.23 18.38-18.38 18.38S0 445.34 0 435.19ZM0 367.77c0-10.15 8.23-18.38 18.38-18.38s18.38 8.24 18.38 18.38-8.23 18.37-18.38 18.37S0 377.91 0 367.77ZM0 300.34c0-10.15 8.23-18.38 18.38-18.38s18.38 8.23 18.38 18.38-8.23 18.38-18.38 18.38S0 310.48 0 300.34ZM0 232.9c0-10.15 8.23-18.37 18.38-18.37s18.38 8.23 18.38 18.37-8.23 18.37-18.38 18.37S0 243.05 0 232.9ZM0 165.48c0-10.15 8.23-18.37 18.38-18.37s18.38 8.23 18.38 18.37-8.23 18.38-18.38 18.38S0 175.63 0 165.48ZM0 30.62c0-10.14 8.23-18.37 18.38-18.37s18.38 8.23 18.38 18.37S28.53 49 18.38 49 0 40.77 0 30.62ZM64.36 570.05c0-11.84 9.59-21.44 21.44-21.44s21.44 9.6 21.44 21.44-9.6 21.44-21.44 21.44-21.44-9.6-21.44-21.44ZM64.36 435.19c0-11.83 9.59-21.43 21.44-21.43s21.44 9.6 21.44 21.43-9.6 21.44-21.44 21.44-21.44-9.6-21.44-21.44ZM64.36 367.77c0-11.83 9.59-21.44 21.44-21.44s21.44 9.61 21.44 21.44-9.6 21.43-21.44 21.43-21.44-9.6-21.44-21.43ZM64.36 300.34c0-11.84 9.59-21.44 21.44-21.44s21.44 9.6 21.44 21.44-9.6 21.44-21.44 21.44-21.44-9.6-21.44-21.44ZM64.36 232.9c0-11.84 9.59-21.44 21.44-21.44s21.44 9.6 21.44 21.44-9.6 21.44-21.44 21.44-21.44-9.6-21.44-21.44ZM64.36 165.48c0-11.84 9.59-21.43 21.44-21.43s21.44 9.6 21.44 21.43-9.6 21.44-21.44 21.44-21.44-9.6-21.44-21.44ZM64.36 30.62c0-11.84 9.59-21.44 21.44-21.44s21.44 9.6 21.44 21.44-9.6 21.44-21.44 21.44-21.44-9.6-21.44-21.44ZM128.74 570.05c0-13.52 10.96-24.5 24.5-24.5s24.49 10.98 24.49 24.5-10.97 24.5-24.49 24.5-24.5-10.97-24.5-24.5ZM128.74 502.61c0-13.52 10.96-24.5 24.5-24.5s24.49 10.98 24.49 24.5-10.97 24.5-24.49 24.5-24.5-10.96-24.5-24.5ZM128.74 367.77c0-13.53 10.96-24.51 24.5-24.51s24.49 10.98 24.49 24.51-10.97 24.49-24.49 24.49-24.5-10.97-24.5-24.49ZM128.74 300.34c0-13.53 10.96-24.5 24.5-24.5s24.49 10.97 24.49 24.5-10.97 24.5-24.49 24.5-24.5-10.98-24.5-24.5ZM128.74 232.9c0-13.53 10.96-24.5 24.5-24.5s24.49 10.97 24.49 24.5-10.97 24.5-24.49 24.5-24.5-10.97-24.5-24.5ZM128.74 165.48c0-13.53 10.96-24.5 24.5-24.5s24.49 10.97 24.49 24.5-10.97 24.5-24.49 24.5-24.5-10.98-24.5-24.5ZM128.74 30.62c0-13.52 10.96-24.5 24.5-24.5s24.49 10.98 24.49 24.5-10.97 24.5-24.49 24.5-24.5-10.97-24.5-24.5ZM193.1 570.05c0-15.23 12.34-27.56 27.57-27.56s27.56 12.34 27.56 27.56-12.34 27.56-27.56 27.56-27.57-12.35-27.57-27.56ZM193.1 502.61c0-15.21 12.34-27.56 27.57-27.56s27.56 12.35 27.56 27.56-12.34 27.57-27.56 27.57-27.57-12.35-27.57-27.57ZM193.1 435.19c0-15.21 12.34-27.56 27.57-27.56s27.56 12.35 27.56 27.56-12.34 27.57-27.56 27.57-27.57-12.35-27.57-27.57ZM193.1 300.34c0-15.21 12.34-27.56 27.57-27.56s27.56 12.35 27.56 27.56-12.34 27.56-27.56 27.56-27.57-12.34-27.57-27.56ZM193.1 232.9c0-15.22 12.34-27.56 27.57-27.56s27.56 12.35 27.56 27.56-12.34 27.56-27.56 27.56-27.57-12.35-27.57-27.56ZM193.1 165.48c0-15.21 12.34-27.56 27.57-27.56s27.56 12.35 27.56 27.56-12.34 27.56-27.56 27.56-27.57-12.34-27.57-27.56ZM193.1 30.62c0-15.22 12.34-27.56 27.57-27.56s27.56 12.34 27.56 27.56-12.34 27.56-27.56 27.56-27.57-12.35-27.57-27.56Z"></path></svg>