<svg xmlns="http://www.w3.org/2000/svg" width="555.7" viewBox="0 0 555.7 556.2" height="556.2"><path class="st0" d="M529.5 160.3v230.5h25.3V160.3s-1.5-12.9-14.3-25.7l-24.1-24.1-1.3 1.3s14.2 17.9 14.4 25.8c.2 7.9 0 22.7 0 22.7zM473.6 105.1v285.6h25.3V105.1s-1.5-12.9-14.3-25.7l-24.1-24.1-1.3 1.3s14.2 17.9 14.4 25.8c.2 7.9 0 22.7 0 22.7z"></path><path class="st0" d="M137.2 530.5v-30.4h417.4v-25.3H137.2v-30.4h417.4v-25.3H137.2V137.2h280.9v253.6h25.3V49.5s1-10.3-13.4-24.7l-11.4-11.4C407.2 2.1 393.6.5 393.6.5H161S148.1 2 135.3 14.8l-24.1 24.1 1.3 1.3s17.9-14.2 25.8-14.4c8-.2 22.8 0 22.8 0h257.1v30.3H106s-12.9 1.5-25.7 14.3C67.4 83.2 56 94.5 56 94.5l1.3 1.3s17.9-14.2 25.8-14.4c8-.2 22.8 0 22.8 0h312.2v30.5H49.5s-10.3-1-24.7 13.4l-11.4 11.4C2.1 148 .5 161.7.5 161.7v232.6S2 407.2 14.8 420l24.1 24.1 1.3-1.3S26 424.9 25.8 417c-.2-8 0-22.8 0-22.8v-257h30.3v310.2s1.5 12.9 14.3 25.7l24.1 24.1 1.3-1.3S81.6 478 81.4 470.1c-.2-8 0-22.8 0-22.8V137.2h30.5v369.5s-1 10.3 13.4 24.7l11.4 11.4c11.3 11.3 24.9 12.9 24.9 12.9h393.6v-25.3h-418z"></path></svg>