<svg xmlns="http://www.w3.org/2000/svg" width="617.7" viewBox="0 0 617.7 619.1" height="619.1" xml:space="preserve" style="enable-background:new 0 0 617.7 619.1"><path d="M308.6 422.5c-116.5 0-211.2-94.8-211.2-211.2S192.1 0 308.6 0h93.7v54.5h-93.7c-86.4 0-156.7 70.3-156.7 156.7 0 86.4 70.3 156.7 156.7 156.7v54.6z"></path><path d="M617.7 403.6h-54.5V310c0-86.4-70.3-156.7-156.7-156.7-86.4 0-156.7 70.3-156.7 156.7h-54.5c0-116.5 94.8-211.2 211.2-211.2 116.5 0 211.2 94.8 211.2 211.2v93.6z"></path><path d="M309.3 619.1h-93.7v-54.5h93.7c86.4 0 156.7-70.3 156.7-156.7s-70.3-156.7-156.7-156.7v-54.5c116.5 0 211.2 94.7 211.2 211.2 0 116.4-94.7 211.2-211.2 211.2z"></path><path d="M211.2 521.2C94.7 521.2 0 426.4 0 309.9v-93.7h54.5v93.7c0 86.4 70.3 156.7 156.7 156.7 86.4 0 156.7-70.3 156.7-156.7h54.5c0 116.5-94.7 211.3-211.2 211.3z"></path><circle cx="309.3" cy="309.6" r="46"></circle></svg>