<svg data-name="Layer 1" xmlns="http://www.w3.org/2000/svg" viewBox="0 0 491.89 614.4"><path d="M487.59 216.48C462.66 75.51 330.64-14.76 190.45 1.99v127.15c-254.16 16.49-253.72 377.9 0 394.31v90.95h43.45v-90.89c158.93-.52 282.95-150.62 253.68-307.02Zm-253.68 46.03c51.24-50.48 119.68-83.43 195.31-88.91 7 15.65 12.14 32.04 15.26 48.94-87.86 2.38-165 48.27-210.57 116.95v-76.97Zm35.02-214.55c53.94 9.45 103.63 40.36 136.17 84.42-63.87 8.52-122.56 34.29-171.19 72.46V44c11.46.55 23.09 1.84 35.02 3.97ZM42.37 326.17v-.31c80.36 2.97 145.16 67.69 148.07 147.94h.03v6.21C108.3 477.04 42.36 409.2 42.36 326.18ZM233.9 480.06v-6.26c-2.89-102.1-83.84-184.99-185.24-191.13 18.3-61.9 74.61-107.64 141.79-110.08v174.48c23.79 27.47 40.42 61.25 46.81 98.32 17.89-100.82 105.32-177.87 210.8-179.56-1.85 117.3-96.87 212.33-214.16 214.22Z"></path></svg>