<svg data-name="Layer 1" xmlns="http://www.w3.org/2000/svg" viewBox="0 0 603.04 603.03"><path d="M301.48 603.03c-.26 0 .26 0 0 0ZM301.52 0c-4.91 0-9.79.14-14.64.37l14.6 602.66L316.04.37C311.23.14 306.39 0 301.52 0ZM343.47 600.07c-.52.07.53-.07 0 0ZM328.9 1.29l14.56 598.78L357.93 5.35c-9.53-1.8-19.21-3.17-29.03-4.05ZM384.48 591.39c.66-.19 1.33-.37 1.99-.57l13.21-574.39c-9.34-3.22-18.89-5.98-28.62-8.28l13.41 583.24ZM426.13 576.07c.9-.41 1.81-.81 2.71-1.23l12.43-540.49c-9.04-4.74-18.35-9.02-27.9-12.84l12.75 554.55ZM467.61 553.15c1.27-.84 2.54-1.67 3.8-2.53l11.27-490.13c-8.59-6.47-17.55-12.46-26.82-18l11.74 510.65ZM498.58 73.41l10.28 446.92c1.79-1.7 3.61-3.37 5.37-5.12l9.6-417.36c-7.92-8.64-16.38-16.77-25.24-24.44ZM549.77 472.61c2.66-3.86 5.23-7.78 7.71-11.76l7.05-306.73a302.856 302.856 0 0 0-22.9-34.92l8.13 353.41ZM585.5 200.08l4.36 189.77c8.55-27.94 13.18-57.59 13.18-88.33 0-35.6-6.21-69.74-17.54-101.44ZM13.06 389.45l4.35-188.98C6.17 232.06 0 266.07 0 301.52c0 30.59 4.59 60.11 13.06 87.93ZM45.44 460.65c2.49 3.99 5.06 7.93 7.72 11.79l8.12-353.08a302.41 302.41 0 0 0-22.89 34.96l7.05 306.33ZM79.1 97.98l9.59 417.11c1.75 1.75 3.58 3.42 5.37 5.12l10.27-446.69c-8.87 7.68-17.32 15.81-25.24 24.46ZM131.51 550.53c1.26.86 2.53 1.7 3.8 2.54l11.74-510.5a302.367 302.367 0 0 0-26.81 18.02l11.27 489.95ZM174.07 574.79c.9.42 1.81.82 2.72 1.23l12.75-554.45a300.02 300.02 0 0 0-27.9 12.85l12.43 540.37ZM216.45 590.79l1.99.57L231.86 8.18c-9.73 2.3-19.28 5.07-28.62 8.29l13.21 574.32ZM244.99 5.37l14.47 594.69L274.02 1.3c-9.82.89-19.5 2.26-29.03 4.07ZM259.45 600.06c-.53-.07.52.07 0 0ZM150.88 450.32c0 5.11.26 10.16.76 15.15.92 9.18 2.69 18.1 5.18 26.72l1.87-89.73a149.855 149.855 0 0 0-7.55 39.24c-.16 2.86-.26 5.73-.26 8.62ZM280.45 599.37l6.31-298.88c-4.25.41-8.45 1.03-12.59 1.79l6.28 297.1ZM322.47 599.36l6.28-297.07c-4.14-.76-8.34-1.38-12.59-1.79l6.31 298.87ZM364.5 587l5.98-270.45c-3.93-2.03-7.95-3.91-12.07-5.59l6.1 276.04ZM400.98 337.44l4.62 221.49c.62-.6 1.26-1.18 1.88-1.79l4.36-209.11c-3.44-3.71-7.07-7.24-10.87-10.59ZM444.38 403.13l1.84 88.35c2.73-9.61 4.52-19.61 5.28-29.9.28-3.72.46-7.47.46-11.26 0-1.66-.07-3.3-.12-4.94-.48-14.71-3.06-28.89-7.46-42.24ZM191.21 347.81l4.37 209.53c.61.61 1.25 1.19 1.87 1.78l4.63-221.88c-3.8 3.34-7.43 6.86-10.87 10.56ZM238.56 587.1l6.1-276.22a148.5 148.5 0 0 0-12.08 5.57l5.98 270.65Z"></path></svg>