<svg data-name="Layer 1" xmlns="http://www.w3.org/2000/svg" viewBox="0 0 545.69 605.84"><path d="m347.38 70.59 10.47-43.31 28.73 6.95 4.84-19.99L332.53 0 317.1 63.8c-14.41-2.36-29.19-3.64-44.26-3.64S243 61.44 228.58 63.8L213.15 0l-58.88 14.24 4.84 19.99 28.73-6.95 10.47 43.31C83.99 103.11 0 208.39 0 333c0 150.44 122.4 272.84 272.84 272.84S545.68 483.44 545.68 333c0-124.6-83.99-229.89-198.31-262.41ZM178.92 442.87c-22.46 13.18-51.36 5.65-64.54-16.81-13.18-22.46-5.65-51.36 16.81-64.54 22.46-13.18 51.36-5.65 64.54 16.81 13.18 22.46 5.65 51.36-16.81 64.54Zm-65.97-200.44c12.83-22.67 41.6-30.65 64.27-17.82 22.67 12.83 30.65 41.6 17.82 64.27-12.83 22.67-41.6 30.64-64.27 17.82-22.67-12.83-30.65-41.6-17.82-64.27Zm160.07 43.41c26.04 0 47.16 21.11 47.16 47.16s-21.11 47.16-47.16 47.16-47.16-21.11-47.16-47.16 21.11-47.16 47.16-47.16Zm-47.16-89.6c0-26.04 21.11-47.16 47.16-47.16s47.16 21.11 47.16 47.16-21.11 47.16-47.16 47.16-47.16-21.11-47.16-47.16Zm48.11 320.67c-26.04.14-47.27-20.87-47.4-46.91-.14-26.04 20.87-47.27 46.91-47.4 26.04-.14 47.27 20.87 47.4 46.91.14 26.04-20.87 47.27-46.91 47.4ZM432.6 424.4c-12.94 22.6-41.76 30.43-64.36 17.48-22.6-12.94-30.43-41.76-17.48-64.36 12.94-22.6 41.76-30.43 64.36-17.48 22.6 12.94 30.43 41.76 17.48 64.36Zm-64.93-200.79c22.53-13.06 51.39-5.38 64.45 17.15 13.06 22.53 5.38 51.39-17.15 64.45-22.53 13.06-51.39 5.38-64.45-17.15-13.06-22.53-5.38-51.39 17.15-64.45Zm-264.42-96.22c46.12-38.11 105.23-61.03 169.59-61.03s123.47 22.92 169.59 61.03H103.25Z"></path></svg>