<svg data-name="Layer 1" xmlns="http://www.w3.org/2000/svg" viewBox="0 0 613.91 613.91"><path d="M350.02 103.81c0-40.55-16.46-77.26-43.06-103.81-26.6 26.55-43.06 63.26-43.06 103.81s16.46 77.26 43.06 103.81c26.6-26.55 43.06-63.26 43.06-103.81ZM445.81 152.54c20.28-35.12 24.37-75.14 14.61-111.43-36.31 9.69-68.92 33.26-89.19 68.38-20.27 35.12-24.37 75.14-14.6 111.43 36.31-9.69 68.92-33.26 89.19-68.38ZM392.97 257.27c36.3 9.75 76.31 5.65 111.43-14.63 35.12-20.28 58.67-52.89 68.36-89.21-36.3-9.75-76.31-5.65-111.43 14.63-35.12 20.28-58.67 52.89-68.36 89.21ZM406.29 306.93c26.56 26.6 63.27 43.04 103.82 43.04 40.55-.01 77.25-16.48 103.8-43.09-26.56-26.6-63.27-43.04-103.82-43.04-40.55.01-77.26 16.48-103.8 43.09ZM504.44 371.17c-35.13-20.27-75.15-24.35-111.44-14.58 9.71 36.31 33.28 68.91 68.4 89.17 35.13 20.27 75.15 24.35 111.44 14.58-9.71-36.31-33.28-68.91-68.4-89.17ZM356.66 392.96c-9.75 36.3-5.63 76.31 14.66 111.43 20.29 35.11 52.91 58.66 89.23 68.33 9.75-36.3 5.63-76.32-14.66-111.43-20.29-35.11-52.91-58.66-89.22-68.33ZM264 510.12c.02 40.55 16.5 77.25 43.11 103.79 26.59-26.56 43.03-63.28 43.01-103.83-.02-40.55-16.5-77.25-43.11-103.79-26.59 26.56-43.03 63.28-43.01 103.83ZM168.18 461.43c-20.26 35.13-24.33 75.15-14.54 111.44 36.31-9.71 68.9-33.29 89.16-68.42 20.26-35.13 24.33-75.16 14.54-111.44-36.31 9.71-68.9 33.29-89.16 68.42ZM220.96 356.68c-36.3-9.74-76.32-5.61-111.42 14.69-35.11 20.3-58.64 52.92-68.31 89.24 36.3 9.74 76.32 5.61 111.42-14.69 35.11-20.3 58.64-52.93 68.31-89.24ZM207.62 307.03c-26.57-26.58-63.29-43.01-103.84-42.98-40.55.03-77.25 16.52-103.78 43.14 26.57 26.58 63.29 43.01 103.84 42.98 40.55-.03 77.25-16.52 103.78-43.14ZM109.44 242.84c35.14 20.25 75.16 24.31 111.44 14.52-9.72-36.31-33.31-68.89-68.45-89.14S77.27 143.91 40.98 153.7c9.72 36.31 33.31 68.89 68.45 89.14ZM257.21 220.98c9.73-36.3 5.59-76.32-14.72-111.42-20.31-35.1-52.94-58.63-89.26-68.29-9.73 36.3-5.59 76.32 14.72 111.42 20.31 35.1 52.94 58.63 89.26 68.29ZM224.07 281.28c0 21.13 17.13 38.25 38.25 38.25s38.26-17.13 38.26-38.25-17.13-38.26-38.26-38.26-38.25 17.13-38.25 38.26ZM389.84 281.28c0-21.13-17.13-38.26-38.25-38.26s-38.26 17.13-38.26 38.26 17.13 38.25 38.26 38.25 38.25-17.13 38.25-38.25Z"></path></svg>