<svg xmlns="http://www.w3.org/2000/svg" width="601.6" viewBox="0 0 601.6 503" height="503"><path d="M443.7 166.7c0 108.9-82.1 197.3-197.3 197.3-57.4 0-108.8-50.1-108.8-111.8 0-61.7 49.9-111.8 111.6-111.8 15.8 0 28.6 12.8 28.6 28.6s-12.8 28.6-28.6 28.6h-46v139.8h43.1c95.2 0 169.7-73.5 169.7-168.6C416.1 75.6 339.5 0 246.4 0 115.6 0 0 112.7 0 251.5S111.5 503 248.9 503c183.5 0 332.5-149.6 332.5-335.9l-137.7-.4zm21.1-96.5c22.8 0 41.4 18.5 41.4 41.4 0 22.8-18.5 41.4-41.4 41.4-22.8 0-41.4-18.5-41.4-41.4s18.6-41.4 41.4-41.4zm95.4 0c22.8 0 41.4 18.5 41.4 41.4 0 22.8-18.5 41.4-41.4 41.4-22.8 0-41.4-18.5-41.4-41.4s18.6-41.4 41.4-41.4z" fill-rule="evenodd" clip-rule="evenodd"></path></svg>