<svg xmlns="http://www.w3.org/2000/svg" width="617.5" viewBox="0 0 617.5 567.1" height="567.1" xml:space="preserve"><path d="M429.7 283.4c0-67.4-54.6-122-122-122-10.2 0-20 1.4-29.4 3.7 21.3-18.9 49.6-30.5 80.8-30.5 60.9 0 111.1 44.1 118.6 101h139.8C609.6 104.2 496.9 0 359 0 216 0 100.1 112.1 100.1 250.4h90.2c-3 10.5-4.7 21.6-4.7 33 0 67.4 54.6 122 122 122 9.2 0 18.1-1.1 26.7-3-20.9 18-48.1 28.9-78 28.9-60.4 0-110.2-44.4-117.6-101.9H0C7.8 462 119.6 567.1 256.3 567.1c141.8 0 256.8-113.1 256.8-252.5h-87.6c2.6-10 4.2-20.4 4.2-31.2z"></path></svg>