<svg xmlns="http://www.w3.org/2000/svg" width="614.3" viewBox="0 0 614.3 614.3" height="614.3"><path d="M81.8 365.3l161.1-58.1L81.8 249c-6.3-2.2-13.1-3.4-20.2-3.4-34 0-61.5 27.6-61.5 61.5 0 34 27.6 61.5 61.5 61.5 7 .1 13.8-1.1 20.2-3.3zM63.7 237.7c6.1 3.5 12.6 5.9 19.2 7.2L251.5 275 141 144.1c-4.4-5.1-9.7-9.5-15.8-13.1-29.4-17-67.1-6.9-84.1 22.5-16.9 29.5-6.9 67.2 22.6 84.2zM144.1 141L275 251.5 244.8 82.9c-1.3-6.6-3.6-13.1-7.2-19.2-17-29.4-54.6-39.5-84.1-22.5-29.4 17-39.5 54.6-22.5 84.1 3.6 6.1 8 11.4 13.1 15.7zM249 81.8l58.2 161.1 58.1-161.1c2.2-6.3 3.4-13.1 3.4-20.2 0-34-27.6-61.5-61.5-61.5-34 0-61.5 27.6-61.5 61.5-.1 7 1.1 13.8 3.3 20.2zM470.2 141c5.1-4.4 9.5-9.7 13.1-15.8 17-29.4 6.9-67.1-22.5-84.1s-67.1-6.9-84.1 22.5c-3.5 6.1-5.9 12.6-7.1 19.2l-30.2 168.6L470.2 141zM473.2 144.1L362.8 275l168.6-30.2c6.6-1.3 13.1-3.6 19.2-7.2 29.4-17 39.5-54.6 22.5-84.1S518.5 114 489 131c-6.1 3.6-11.4 8-15.8 13.1zM552.7 245.5c-7.1 0-13.9 1.2-20.2 3.4l-161.1 58.2 161.1 58.1c6.3 2.2 13.1 3.4 20.2 3.4 34 0 61.5-27.6 61.5-61.6.1-33.9-27.5-61.5-61.5-61.5zM550.7 376.6c-6.1-3.5-12.6-5.9-19.2-7.1l-168.6-30.1 110.5 130.8c4.4 5.1 9.7 9.5 15.8 13.1 29.4 17 67.1 6.9 84.1-22.6 16.9-29.5 6.8-67.1-22.6-84.1zM470.2 473.2L339.3 362.8l30.3 168.5c1.3 6.6 3.6 13.1 7.2 19.2 17 29.4 54.6 39.5 84.1 22.5 29.4-17 39.5-54.6 22.5-84.1-3.6-6-8.1-11.3-13.2-15.7zM365.4 532.5l-58.2-161-58.1 161.1c-2.2 6.3-3.4 13.1-3.4 20.2 0 34 27.6 61.5 61.6 61.5s61.5-27.6 61.5-61.6c0-7.1-1.2-13.9-3.4-20.2zM144.2 473.3c-5.1 4.4-9.5 9.7-13.1 15.8-17 29.4-6.9 67.1 22.6 84.1s67.1 6.9 84.1-22.6c3.5-6.1 5.9-12.6 7.1-19.2L275 362.9 144.2 473.3zM141.1 470.3l110.4-130.9-168.6 30.2c-6.6 1.3-13.1 3.6-19.2 7.2-29.4 17-39.5 54.7-22.5 84.1 17 29.4 54.7 39.5 84.1 22.5 6.1-3.6 11.4-8.1 15.8-13.1z"></path></svg>