<svg xmlns="http://www.w3.org/2000/svg" width="608" viewBox="0 0 608 605.4" height="605.4" xml:space="preserve"><path d="M598.6 229.7C558.5 74.1 401.5-25.5 240.7 5.7c-59.2 11.5-111 39.2-151.5 77.5 0 0 510 148.8 509.4 146.5zM604.8 260.4 25.9 169C13.8 193.7 5 220.1 0 247.6l606.1 42.6v.3l1.7.1c-.4-10-1.4-20.1-3-30.2zM.6 356.3c.3 1.6.6 3.1.9 4.7 5.4 26 14 50.6 25.3 73.5l579-91.4c1.2-9.2 1.9-18.4 2.2-27.8l-1.5.1L.6 356.3zM90.1 520.2c70.1 66.5 170.6 99.4 272.7 79.6 121-23.5 210.7-114.6 237.3-225.9l-510 146.3z"></path></svg>