<svg data-name="Layer 1" xmlns="http://www.w3.org/2000/svg" viewBox="0 0 587.09 537.13"><path d="M0 407.03c28.26 47.56 80.15 79.43 139.49 79.43s111.23-31.87 139.49-79.43H0ZM115.28 141.94c-9.07 20.38-14.11 42.95-14.11 66.7 0 32.94 9.7 63.61 26.39 89.32C73.71 302.77 27.1 333.73.85 377.9h278.13l-163.7-235.96ZM278.98 0c-46.95 26.44-79.44 75.48-82.74 132.38-.38-.14-.75-.28-1.14-.4-15.43-4.8-31.83-7.38-48.83-7.38-1.67 0-3.34.03-5 .07L278.98 326.5V0ZM330.54 407.03h-22.43c28.26 47.56 80.15 79.43 139.49 79.43s111.23-31.87 139.49-79.43H330.54ZM586.24 377.89c-26.25-44.17-72.85-75.13-126.71-79.94 16.69-25.71 26.39-56.38 26.39-89.32 0-23.75-5.04-46.32-14.11-66.7l-163.7 235.96h278.13ZM440.82 124.59c-17.01 0-33.41 2.58-48.83 7.38-.39.12-.76.26-1.14.4-3.3-56.9-35.79-105.94-82.74-132.38V326.5l137.72-201.83c-1.66-.05-3.33-.07-5-.07ZM278.98 407.03v130.1h29.13v-130.1h-29.13z"></path></svg>