<svg data-name="Layer 1" xmlns="http://www.w3.org/2000/svg" viewBox="0 0 624.31 624.28"><path d="M312.17 160.31c45.44 0 82.28-36.84 82.28-82.28 0-36.37-23.62-67.17-56.34-78.04 2.28 4.19 3.58 8.99 3.58 14.1 0 16.3-13.22 29.52-29.52 29.52s-29.52-13.22-29.52-29.52c0-5.11 1.3-9.91 3.58-14.1-32.72 10.87-56.34 41.67-56.34 78.04 0 45.44 36.84 82.28 82.28 82.28ZM535.84 204.71c25.71-25.72 30.77-64.21 15.31-95.03a29.449 29.449 0 0 1-7.43 12.51c-11.52 11.53-30.21 11.54-41.74.01-11.53-11.52-11.54-30.21-.01-41.74 3.61-3.61 7.93-6.09 12.5-7.44-30.83-15.44-69.31-10.35-95.01 15.37-32.12 32.14-32.1 84.23.04 116.36 32.14 32.12 84.24 32.1 116.36-.04ZM610.21 341.45c-16.3.01-29.53-13.2-29.54-29.5-.01-16.3 13.2-29.53 29.5-29.54 5.11 0 9.91 1.29 14.1 3.57-10.89-32.71-41.71-56.31-78.08-56.29-45.44.03-82.25 36.89-82.22 82.33.03 45.44 36.89 82.25 82.33 82.22 36.37-.02 67.15-23.67 78-56.39a29.298 29.298 0 0 1-14.1 3.59ZM419.62 419.36c-32.1 32.16-32.05 84.26.11 116.36 25.74 25.69 64.23 30.73 95.03 15.25a29.29 29.29 0 0 1-12.51-7.43c-11.54-11.52-11.56-30.21-.04-41.74 11.52-11.54 30.21-11.56 41.74-.04 3.62 3.61 6.1 7.92 7.45 12.5 15.42-30.84 10.3-69.31-15.44-95-32.16-32.1-84.26-32.05-116.36.11ZM312.37 463.93c-45.44.06-82.23 36.94-82.17 82.38.05 36.37 23.71 67.14 56.44 77.97a29.418 29.418 0 0 1-3.6-14.1c-.02-16.3 13.18-29.54 29.48-29.56 16.3-.02 29.54 13.18 29.56 29.48 0 5.11-1.29 9.91-3.56 14.11 32.7-10.91 56.29-41.74 56.24-78.11-.06-45.44-36.94-82.23-82.38-82.17ZM88.65 419.83c-25.67 25.76-30.69 64.25-15.19 95.04 1.34-4.58 3.81-8.9 7.42-12.52 11.51-11.55 30.2-11.58 41.74-.07 11.55 11.51 11.58 30.2.07 41.74a29.45 29.45 0 0 1-12.49 7.46c30.85 15.4 69.32 10.26 95-15.5 32.08-32.18 31.99-84.28-.19-116.36s-84.28-31.99-116.36.19ZM160.36 312.42c-.09-45.44-37-82.2-82.44-82.12-36.37.07-67.12 23.75-77.93 56.49 4.19-2.29 8.99-3.6 14.09-3.61 16.3-.03 29.54 13.16 29.58 29.46.03 16.3-13.16 29.54-29.46 29.58-5.11 0-9.91-1.28-14.11-3.55 10.94 32.7 41.78 56.26 78.15 56.19 45.44-.09 82.2-37 82.12-82.44ZM204.58 205.02c32.06-32.2 31.94-84.3-.26-116.36-25.77-25.66-64.27-30.64-95.05-15.13 4.58 1.34 8.9 3.81 12.52 7.41 11.55 11.5 11.6 30.19.09 41.74-11.5 11.55-30.19 11.6-41.74.09-3.62-3.6-6.11-7.91-7.47-12.49-15.38 30.86-10.21 69.33 15.56 94.98 32.2 32.06 84.3 31.94 116.35-.26ZM406.21 350.9c2.45-5.92-.36-12.72-6.29-15.17-5.15-2.13-10.94-.28-13.98 4.13l-39.99-16.55c.95-2.82 1.54-5.8 1.75-8.89H391c1.13 5.23 5.77 9.15 11.34 9.15 6.41 0 11.61-5.2 11.61-11.61 0-6.41-5.2-11.61-11.61-11.61-5.57 0-10.21 3.93-11.34 9.16h-43.3c-.21-3.08-.8-6.06-1.75-8.88l39.99-16.57c3.04 4.4 8.84 6.25 13.98 4.12 5.92-2.45 8.74-9.25 6.28-15.17-2.45-5.92-9.25-8.74-15.17-6.28-5.15 2.13-7.93 7.54-6.97 12.81l-39.99 16.57a35.85 35.85 0 0 0-5.03-7.53l30.61-30.62c4.5 2.91 10.56 2.4 14.5-1.54 4.53-4.53 4.53-11.89 0-16.42-4.53-4.53-11.89-4.53-16.42 0-3.94 3.94-4.44 10-1.54 14.5l-30.61 30.62c-2.27-1.98-4.8-3.67-7.53-5.03l16.57-40c5.27.96 10.67-1.83 12.8-6.97 2.45-5.92-.36-12.72-6.28-15.17-5.92-2.45-12.72.36-15.17 6.28-2.13 5.15-.28 10.94 4.12 13.98l-16.56 39.99c-2.82-.95-5.8-1.54-8.89-1.75v-43.3c5.23-1.13 9.16-5.77 9.16-11.34 0-6.41-5.2-11.61-11.61-11.61s-11.61 5.2-11.61 11.61c0 5.57 3.93 10.21 9.16 11.34v43.3c-3.09.21-6.08.8-8.91 1.76l-16.59-39.98c4.4-3.05 6.25-8.84 4.12-13.99-2.46-5.92-9.25-8.73-15.17-6.27-5.92 2.46-8.73 9.25-6.27 15.17 2.14 5.15 7.54 7.93 12.81 6.96l16.59 39.99a35.51 35.51 0 0 0-7.53 5.04l-30.63-30.6c2.9-4.5 2.39-10.56-1.55-14.5-4.54-4.53-11.89-4.53-16.42 0s-4.53 11.89 0 16.42c3.94 3.94 10 4.44 14.5 1.53l30.63 30.6a35.85 35.85 0 0 0-5.03 7.53l-40-16.55c.96-5.27-1.83-10.67-6.98-12.8-5.93-2.45-12.72.37-15.17 6.29-2.45 5.93.37 12.72 6.29 15.17 5.15 2.13 10.94.27 13.98-4.13l39.99 16.54c-.95 2.82-1.53 5.8-1.74 8.89l-43.3.02c-1.13-5.23-5.77-9.16-11.35-9.16-6.41 0-11.61 5.2-11.61 11.62 0 6.41 5.2 11.61 11.62 11.61 5.57 0 10.21-3.93 11.34-9.17l43.3-.02c.21 3.09.8 6.06 1.75 8.89l-39.98 16.58c-3.05-4.4-8.84-6.25-13.98-4.12-5.92 2.46-8.73 9.25-6.28 15.17 2.46 5.92 9.25 8.73 15.17 6.28 5.15-2.13 7.93-7.54 6.97-12.81l39.99-16.58a35.51 35.51 0 0 0 5.04 7.53l-30.6 30.63c-4.5-2.9-10.56-2.39-14.5 1.55-4.53 4.54-4.53 11.89 0 16.42 4.54 4.53 11.89 4.53 16.42 0 3.94-3.94 4.44-10 1.53-14.5l30.6-30.63a35.85 35.85 0 0 0 7.53 5.03l-16.55 40c-5.27-.96-10.67 1.83-12.8 6.98-2.45 5.93.36 12.72 6.29 15.17 5.93 2.45 12.72-.36 15.17-6.29 2.13-5.15.28-10.94-4.13-13.98l16.55-39.99c2.82.95 5.8 1.54 8.89 1.75v43.3c-5.22 1.13-9.15 5.77-9.14 11.34 0 6.41 5.2 11.61 11.61 11.61 6.41 0 11.61-5.2 11.61-11.61 0-5.57-3.93-10.21-9.16-11.34v-43.3c3.07-.21 6.05-.8 8.87-1.75l16.58 39.98c-4.4 3.04-6.25 8.84-4.12 13.98 2.46 5.92 9.25 8.74 15.17 6.28s8.74-9.25 6.28-15.17c-2.13-5.15-7.54-7.93-12.81-6.97l-16.58-39.99a35.51 35.51 0 0 0 7.53-5.04l30.62 30.61c-2.9 4.5-2.4 10.56 1.54 14.5 4.54 4.53 11.89 4.53 16.42 0 4.53-4.54 4.53-11.89 0-16.42-3.94-3.94-10-4.44-14.5-1.54l-30.62-30.61a35.85 35.85 0 0 0 5.03-7.53l40 16.56c-.96 5.27 1.83 10.67 6.97 12.8 5.92 2.45 12.72-.36 15.17-6.29Z"></path></svg>