<svg data-name="Layer 1" xmlns="http://www.w3.org/2000/svg" viewBox="0 0 312.51 612.57"><path d="M312.51 309.15V156.26C312.51 70.1 242.42 0 156.26 0S0 70.1 0 156.26v152.89c0 77.84 57.21 142.55 131.79 154.33v100.15H1.31v48.94h305.48v-48.94H180.73V463.48c74.58-11.78 131.78-76.49 131.78-154.33ZM156.26 48.94c59.17 0 107.31 48.14 107.31 107.32s-48.14 107.32-107.31 107.32S48.94 215.44 48.94 156.26 97.09 48.94 156.26 48.94ZM48.94 309.15v-39.47c28.01 26.52 65.79 42.84 107.32 42.84s79.3-16.32 107.31-42.84v39.47c0 59.18-48.14 107.32-107.31 107.32S48.94 368.33 48.94 309.15Z"></path></svg>