<svg data-name="Layer 1" xmlns="http://www.w3.org/2000/svg" viewBox="0 0 627.21 627.21"><path d="M313.6 0C140.68 0 0 140.68 0 313.61s140.68 313.6 313.6 313.6 313.6-140.68 313.6-313.6S486.53 0 313.6 0Zm44.06 313.61c0 24.3-19.76 44.06-44.06 44.06s-44.06-19.76-44.06-44.06h88.12Zm-98.82 0c0 30.19 24.57 54.76 54.76 54.76s54.76-24.57 54.76-54.76h36.37c0 50.25-40.88 91.13-91.13 91.13s-91.13-40.88-91.13-91.13h36.37Zm-50.64 0c0 58.11 47.28 105.4 105.4 105.4S419 371.73 419 313.61h32.81c0 76.21-62 138.21-138.21 138.21s-138.21-62-138.21-138.21h32.81Zm-50.64 0c0 86.04 70 156.04 156.04 156.04s156.04-70 156.04-156.04h29.25c0 102.17-83.12 185.29-185.29 185.29s-185.29-83.12-185.29-185.29h29.25Zm-50.64 0c0 113.97 92.71 206.68 206.68 206.68s206.68-92.71 206.68-206.68h24.49c0 127.47-103.7 231.17-231.17 231.17S82.43 441.08 82.43 313.61h24.49ZM313.6 587.4c-150.97 0-273.79-122.82-273.79-273.79h15.28c0 142.55 115.96 258.51 258.51 258.51s258.51-115.96 258.51-258.51h15.28c0 150.97-122.82 273.79-273.79 273.79Z"></path></svg>