<svg data-name="Layer 1" xmlns="http://www.w3.org/2000/svg" viewBox="0 0 606.58 525.31"><path d="M313.73 0c-1.31 0-2.23 1.29-1.8 2.53l18.54 53.44c1.33 3.87-1.55 7.9-5.65 7.9h-13.78c-2.14 0-3.68 2.04-3.11 4.1l16.8 60.03c.58 2.06-.97 4.09-3.11 4.09h-15.25c-1.99 0-3.51 1.79-3.18 3.75l12.9 78.35c.25 1.55-1.85 2.26-2.59.88l-46.3-86.93c-1.14-2.15.41-4.74 2.85-4.74h10.75c2.37 0 3.93-2.47 2.91-4.61l-28-59c-1.02-2.14.55-4.61 2.91-4.61h14.09c1.97 0 3.35-1.91 2.69-3.76-3.58-10.09-14.36-40.97-18-51.4H0l303.29 525.29L606.58 0H313.73Z"></path></svg>