<svg xmlns="http://www.w3.org/2000/svg" width="586.2" viewBox="0 0 586.2 607.1" height="607.1" xml:space="preserve"><path d="M22.4.3c-.9 0-.9 0 0 0zM22.4.3h.8-.8zM562.1 184.8c-11.9-29.5-27.9-57.3-47.8-81.7-37.4-45.8-80.4-67.8-109.7-78.1-23.2-8.2-43.1-8.2-67.7-4.8-32.5 4.6-39.2 12.2-39.2 12.2 33.4 6.7 50.6 43.9 53.9 68.7 4.2 31.5-8 65-37.2 78.7-30.1 14.2-70.2 2.7-79.7-32.8-7.7-28.8 13.3-49.1 27-71.5 1.5-2.4 2.9-4.9 4.2-7.5 2.7-5.3 5.6-10.6 7.1-16.4C279.3 27.1 257.3 0 232.3 0 229.7.1 42.6.3 23.2.3 10.2 1.9 0 12.9 0 26.4v554.3C0 595.2 11.8 607 26.3 607h303.1c162.1 0 268.2-164.3 255.8-323.8-2.6-33.4-10.4-66.9-23.1-98.4zM385.9 74.9c-10.4 0-18.8-8.4-18.8-18.8s8.4-18.8 18.8-18.8 18.8 8.4 18.8 18.8c.1 10.4-8.4 18.8-18.8 18.8z" class="st0"></path></svg>