<svg xmlns="http://www.w3.org/2000/svg" width="433.8" viewBox="0 0 433.8 615.5" height="615.5" xml:space="preserve" style="enable-background:new 0 0 433.8 615.5"><path d="M418.4 193.2h-1.3c-3.2 0-6.4.1-9.5.3-94.9 5-169.2 83.4-169.2 178.5v243.5h45.3V423c88.3-30.3 148.5-113.3 149.8-206.9l.3-22.2c-5.1-.4-10.2-.7-15.4-.7zM283.6 373.9v-2c0-60.6 42.6-114.7 101.6-129.5-9.7 57.6-48.4 107.6-101.6 131.5zM26.2 193.5c-3.2-.2-6.3-.3-9.5-.3h-1.3c-5.2 0-10.3.3-15.4.7l.3 22.2C1.6 309.7 61.8 392.7 150.1 423v192.5h45.3V371.9c0-95-74.3-173.4-169.2-178.4zm123.9 180.4C97 350 58.3 300 48.5 242.5c59 14.8 101.6 68.9 101.6 129.5v1.9z"></path><path d="M418.4 150.3c1.6 0 3.2.1 4.9.1C395.2 63.2 313.4 0 216.9 0 120.3 0 38.5 63.2 10.5 150.4c1.6 0 3.2-.1 4.9-.1 86.2.1 165 50.9 201.5 126.9 36.5-75.9 115.3-126.8 201.5-126.9zm-201.5 40.3c-30.7 0-55.6-24.9-55.6-55.6 0-30.7 24.9-55.6 55.6-55.6 30.7 0 55.6 24.9 55.6 55.6-.1 30.7-24.9 55.6-55.6 55.6z"></path></svg>