<svg id="a" data-name="Layer 1" xmlns="http://www.w3.org/2000/svg" width="642" viewBox="0 0 642 616.44" height="616.44">
  <defs>
    <style>
      .b {
        stroke-width: 0px;
      }
    </style>
  </defs>
  <path class="b" d="M91.51,338.64c-9.98-17.69-15.04-38.53-13.33-60.71,4.02-52.36,47.11-94.73,99.52-98.07,43.38-2.77,81.75,20.46,100.84,55.63.76,1.41,2.68,1.4,3.45,0,20-36.84,61.08-60.58,107.02-55.05,48.13,5.79,87.02,44.63,92.75,92.77,4.14,34.75-8.32,66.55-30.5,88.73l-166.12,166.18,92.25,88.32,218.45-218.48c22.73-23.56,38.56-53.83,44.22-87.54,13.52-80.51-44.78-157.22-126.41-158.54-19.25-.31-37.57,3.53-54.11,10.69-1.55.67-3.12-.68-2.69-2.31,3.21-12.13,4.69-24.96,4.14-38.22C457.92,47.65,390.11-6.23,315.97.58c-45.66,4.19-86.62,24.66-117.01,55.55L0,255.12l89.42,85.62,2.09-2.09Z"></path>
</svg>