<svg xmlns="http://www.w3.org/2000/svg" width="615.7" viewBox="0 0 615.7 428.9" height="428.9" xml:space="preserve"><path d="M458.2 341.2H6.5v87.6h451.8c86.9-.1 157.4-70.6 157.4-157.6s-70.5-157.5-157.4-157.6H157.6c-24.2 0-43.9 19.6-43.9 43.9s19.6 43.8 43.9 43.8h300.6c38.6 0 69.9 31.3 69.9 69.9 0 38.7-31.3 70-69.9 70M157.6 87.6H607V0H157.6C70.5 0 0 70.5 0 157.6c0 87 70.5 157.6 157.6 157.6h300.6c24.2 0 43.9-19.6 43.9-43.8 0-24.2-19.6-43.9-43.9-43.9H157.6c-38.6 0-69.9-31.3-69.9-69.9-.1-38.7 31.2-70 69.9-70"></path></svg>