<svg xmlns="http://www.w3.org/2000/svg" width="582.9" viewBox="0 0 582.9 642" height="642" style="overflow:visible;enable-background:new 0 0 582.9 642" xml:space="preserve"><path class="st0" d="m368.9 187.7-39.7-21.1c12.7-23.7 17.9-51.2 16.7-70.2-1.6-28.7-25.4-51.5-54.5-51.5-30.1 0-54.6 24.5-54.6 54.6 0 16.2 3.4 17.6 28.9 76.5 23.4 45.8-10.4 100.2-61.6 100.2-25.5 0-47.8-13.9-59.8-34.5.7-.4 35.6-20.5 33.4-19.3 20.1 34.8 73 4.1 52.7-30.6l-25.3-42.5C167.3 83.7 214.4 0 291.5 0c53.6 0 96.7 42.2 99.4 94.2 1.1 31.1-6.2 64.1-22 93.5z"></path><path class="st0" d="M214.7 187.2 176.6 211c-14.2-22.8-35.4-41.1-52.4-49.5-25.7-13-57.3-3.7-71.8 21.5-15.1 26.1-6.1 59.5 20 74.5 14 8.1 16.9 5.8 80.7 13.2 51.4 2.7 81.5 59.1 56 103.4-12.7 22.1-36 34.5-59.8 34.5v-38.5c40.2-.1 40.1-61.2-.1-60.9l-49.5.7C24 310-25 227.3 13.5 160.6c26.8-46.4 84.9-62.7 131.3-38.9 27.5 14.4 52.3 37.2 69.9 65.5z"></path><path class="st0" d="m137.2 320.6 1.6 44.9c-26.9.9-53.3 10.1-69.1 20.6-24.1 15.7-31.9 47.8-17.3 72.9 15.1 26.1 48.5 35 74.5 20 14-8.1 13.5-11.8 51.8-63.3 28-43.2 91.9-41.1 117.5 3.2 12.7 22.1 11.8 48.4 0 69-.7-.4-35.6-20.6-33.4-19.3 20-34.8-32.9-65.3-52.8-30.4l-24.2 43.2C148 547 52 548.1 13.4 481.4-13.4 435 1.6 376.6 45.3 348.2c26.4-16.4 58.6-26.6 91.9-27.6z"></path><path class="st0" d="m214 454.3 39.7 21.1c-12.7 23.7-17.9 51.2-16.7 70.2 1.6 28.7 25.4 51.5 54.5 51.5 30.1 0 54.6-24.5 54.6-54.6 0-16.2-3.4-17.6-28.9-76.5-23.4-45.8 10.4-100.2 61.6-100.2 25.5 0 47.8 13.9 59.8 34.5-.7.4-35.6 20.5-33.4 19.3-20.1-34.8-73-4.1-52.7 30.6l25.3 42.5c37.9 65.5-9.2 149.3-86.2 149.3-53.6 0-96.7-42.2-99.4-94.2-1.3-31.1 6-64.1 21.8-93.5z"></path><path class="st0" d="m368.2 454.8 38.1-23.8c14.2 22.8 35.4 41.1 52.4 49.5 25.7 13 57.3 3.7 71.8-21.5 15.1-26.1 6.1-59.5-20-74.5-14-8.1-16.9-5.8-80.7-13.2-51.4-2.7-81.5-59.1-56-103.4 12.7-22.1 36-34.5 59.8-34.5v38.5c-40.2.1-40.1 61.2.1 60.9l49.5-.7c75.7-.1 124.7 82.6 86.2 149.3-26.8 46.4-84.9 62.7-131.3 38.9-27.4-14.4-52.3-37.2-69.9-65.5z"></path><path class="st0" d="m445.7 321.4-1.6-44.9c26.9-.9 53.3-10.1 69.1-20.6 24.1-15.7 31.9-47.8 17.3-72.9-15.1-26.1-48.5-35-74.5-20-14 8.1-13.5 11.8-51.8 63.3-28 43.2-91.9 41.1-117.5-3.2-12.7-22.1-11.8-48.4 0-69 .7.4 35.6 20.6 33.4 19.3-20 34.8 32.9 65.3 52.8 30.4l24.2-43.2c37.8-65.6 133.8-66.7 172.4 0 26.8 46.4 11.8 104.8-31.9 133.2-26.4 16.4-58.6 26.6-91.9 27.6z"></path></svg>