<svg xmlns="http://www.w3.org/2000/svg" width="558.3" viewBox="0 0 558.3 631.1" height="631.1" xml:space="preserve" style="enable-background:new 0 0 558.3 631.1"><path d="M250.8 631.1c-5.4 0-10.7-1.4-15.5-4.2-9.6-5.6-15.5-15.8-15.5-26.8V352c0-17.1 13.9-31 31-31s31 13.9 31 31v194.6l183.4-105.5-171.3-98.5c-9.6-5.5-15.5-15.7-15.5-26.8 0-11.1 5.8-21.3 15.4-26.9l171.5-99.7L281.8 84.4v196.3c0 11-5.9 21.3-15.5 26.8s-21.4 5.6-31 .1L62 208.1v235.3c0 17.1-13.9 31-31 31s-31-13.9-31-31V154.6c0-11.1 5.9-21.3 15.5-26.8 9.6-5.6 21.4-5.6 31-.1l173.4 99.4V31c0-11.1 5.9-21.3 15.4-26.8 9.6-5.6 21.3-5.6 30.9-.1l276.5 158c9.6 5.5 15.6 15.7 15.6 26.8 0 11.1-5.8 21.3-15.4 26.9l-171.6 99.7 171.5 98.6c9.6 5.5 15.5 15.8 15.5 26.9 0 11.1-5.9 21.3-15.5 26.9L266.3 627c-4.8 2.7-10.1 4.1-15.5 4.1z"></path></svg>