<svg id="Layer_1" data-name="Layer 1" xmlns="http://www.w3.org/2000/svg" viewBox="0 0 548.96 620.46">   <path d="M548.96,310.23c0-24.65-20.06-44.71-44.71-44.71s-44.71,20.06-44.71,44.71c0,19.78,12.95,37.08,31.75,42.75v47.27c-18.79,5.67-31.75,22.96-31.75,42.75,0,3.49,.42,7,1.26,10.46l-39.32,23.08c-8.29-7.67-18.98-11.87-30.33-11.87s-22.42,4.36-30.77,12.32l-42.82-24.32c.73-3.23,1.11-6.47,1.11-9.66s-.38-6.52-1.13-9.79l42.13-24.33c8.17,7.61,18.72,11.77,29.94,11.77,24.28,0,44.03-19.75,44.03-44.03,0-19.38-12.67-36.38-31.06-42.03v-48.69c18.39-5.65,31.06-22.65,31.06-42.04,0-3.31-.39-6.65-1.17-9.96l41.23-23.81c8.32,7.82,19.09,12.1,30.55,12.1,24.65,0,44.71-20.06,44.71-44.71s-20.06-44.71-44.71-44.71-44.71,20.06-44.71,44.71c0,3.36,.4,6.77,1.2,10.15l-41.31,23.85c-8.16-7.53-18.66-11.65-29.82-11.65-24.28,0-44.03,19.75-44.03,44.03,0,3.18,.37,6.4,1.1,9.62l-41.71,24.08c-5.03-4.69-11.08-8.16-17.69-10.13v-47.82c18.59-5.55,31.4-22.59,31.4-42.14,0-3.15-.36-6.35-1.08-9.55l42.83-24.4c8.35,7.93,19.18,12.28,30.73,12.28,24.65,0,44.71-20.06,44.71-44.71s-20.06-44.71-44.71-44.71-44.71,20.06-44.71,44.71c0,3.27,.38,6.59,1.14,9.9l-42.82,24.4c-4.97-4.67-10.95-8.11-17.49-10.06v-47.87c18.79-5.68,31.74-22.97,31.74-42.75,0-24.65-20.06-44.71-44.71-44.71s-44.71,20.06-44.71,44.71c0,19.78,12.95,37.07,31.75,42.75v48.08c-6.25,1.98-11.98,5.33-16.76,9.8l-43.1-24.89c.68-3.15,1.03-6.29,1.03-9.35,0-24.65-20.06-44.71-44.71-44.71s-44.71,20.06-44.71,44.71c0,19.78,12.95,37.07,31.75,42.75v48.45c-17.48,6.11-29.52,22.92-29.52,41.56,0,24.28,19.75,44.03,44.03,44.03,11.22,0,21.77-4.16,29.94-11.77l41.66,24.05c-.78,3.35-1.18,6.73-1.18,10.06,0,3.56,.44,7.12,1.3,10.62l-41.08,24.19c-8.27-8.05-19.06-12.46-30.63-12.46s-21.74,4.15-29.91,11.74l-41.23-23.88c.8-3.39,1.21-6.81,1.21-10.2,0-19.78-12.95-37.07-31.74-42.75v-47.26c18.79-5.68,31.74-22.97,31.74-42.75,0-24.65-20.06-44.71-44.71-44.71S0,152.82,0,177.47c0,19.78,12.95,37.07,31.75,42.75v47.26c-18.79,5.68-31.75,22.97-31.75,42.75,0,24.65,20.06,44.71,44.71,44.71,11.44,0,22.2-4.27,30.51-12.06l41.24,23.88c-.76,3.28-1.14,6.58-1.14,9.85,0,19.39,12.67,36.38,31.06,42.03v47.5c-6.86,1.81-13.17,5.22-18.47,9.99l-39.7-22.96c.8-3.39,1.2-6.8,1.2-10.18,0-24.65-20.06-44.71-44.71-44.71S0,418.33,0,442.99s20.06,44.71,44.71,44.71c11.45,0,22.22-4.27,30.53-12.08l39.24,22.69c-.92,3.61-1.39,7.33-1.39,11.06,0,24.65,20.06,44.71,44.71,44.71,11.77,0,22.76-4.5,31.16-12.71l41.84,24.19c-.8,3.39-1.2,6.81-1.2,10.18,0,24.65,20.06,44.71,44.71,44.71s44.71-20.05,44.71-44.71c0-19.78-12.95-37.08-31.74-42.75v-47.87c6.51-1.95,12.46-5.36,17.41-9.98l42.9,24.37c-.75,3.29-1.13,6.59-1.13,9.84,0,24.65,20.06,44.71,44.71,44.71s44.71-20.06,44.71-44.71c0-3.49-.42-7-1.26-10.46l39.32-23.08c8.28,7.67,18.97,11.87,30.33,11.87,24.65,0,44.71-20.05,44.71-44.71,0-19.78-12.95-37.08-31.74-42.75v-47.27c18.79-5.67,31.74-22.96,31.74-42.75Zm-202.25,76.17l-42.13,24.33c-4.93-4.57-10.85-7.95-17.31-9.88v-47.81c18.9-5.62,31.92-22.94,31.92-42.8,0-3.4-.41-6.84-1.22-10.24l41.57-24c4.87,4.55,10.71,7.93,17.09,9.9v48.69c-18.39,5.65-31.06,22.65-31.06,42.03,0,3.25,.38,6.53,1.13,9.79Zm-174.39,80.7v-48.45c18.39-5.65,31.06-22.65,31.06-42.04,0-2.89-.31-5.84-.93-8.82l41.81-24.62c4.88,4.47,10.72,7.8,17.08,9.76v48.14c-18.19,5.76-30.72,22.71-30.72,41.93s12.53,36.17,30.72,41.93v48.08c-6.56,1.98-12.57,5.44-17.57,10.12l-42.28-24.44c.68-3.14,1.02-6.26,1.02-9.31,0-19.03-12.32-36.13-30.2-42.27Zm-1.55-265.76v-47.5c6.82-2.06,13.03-5.72,18.15-10.7l42.79,24.71c-.73,3.22-1.1,6.45-1.1,9.62,0,19.22,12.53,36.17,30.72,41.93v48.13c-6.53,2.01-12.5,5.48-17.47,10.14l-41.62-24.03c.75-3.26,1.13-6.55,1.13-9.8,0-19.86-13.59-37.41-32.61-42.51Z"></path> </svg>