<svg xmlns="http://www.w3.org/2000/svg" width="589.5" viewBox="0 0 589.5 588.2" height="588.2"><path d="M260.7 295h-.5l-65.4 277.5c.1 0 .1 0 .2.1 21.2 7.6 43.5 12.9 66.7 15.5.2 0 .3 0 .5.1L284.4 295h-23.7zM206 295L82 499.2c15.5 16.1 32.8 30.5 51.6 42.8.1 0 .1.1.2.1L235.1 295H206zM124.8 295h-.6L15.3 389.1c0 .1.1.2.1.3 6.8 20.2 15.8 39.5 26.6 57.5 0 .1.1.1.1.2L170.8 295h-46zM307.1 295h-1l21.8 293.1c.2 0 .3 0 .5-.1v.1c.2 0 .3 0 .5-.1v-.1c22.8-2.6 44.8-7.9 65.7-15.4.1 0 .1 0 .2-.1L329.3 295h-22.2zM354.4 295l101.3 247.1c.1 0 .1-.1.2-.1 18.8-12.3 36.1-26.7 51.6-42.8L383.4 295h-29zM419.2 295h-.5l128.7 152.1c0-.1.1-.1.1-.2 10.8-18 19.8-37.2 26.6-57.5 0-.1.1-.2.1-.3L465.3 295h-46.1z"></path><path d="M532 295L356.2 185.7c1.9-3.1 3.6-6.3 5-9.6l227.4 95.8v-.3a289.9 289.9 0 00-9.1-53.2c0-.1-.1-.2-.1-.4L365 164.8c.9-3.5 1.5-7.1 1.8-10.7l195.4 16.7c-.1-.1-.1-.2-.2-.4-6.5-14-14.1-27.4-22.6-40-.1-.1-.2-.2-.2-.3L367 142.2c-.3-3.7-.8-7.2-1.6-10.7l148-34.3-.3-.3c-8.5-9.4-17.6-18.2-27.2-26.3l-.3-.3-123.8 50c-1.4-3.4-3-6.6-4.8-9.7l101.3-60.9c-.1-.1-.2-.2-.4-.2-8.6-5.7-17.5-11-26.7-15.8-.1-.1-.3-.1-.4-.2L350 100.9c-2.3-2.8-4.9-5.3-7.6-7.7l62.5-71.7c-.1-.1-.3-.1-.4-.2-8.1-3.3-16.4-6.2-24.8-8.7-.1 0-.3-.1-.4-.1L333 86.1c-2.8-1.7-5.7-3.3-8.8-4.7l.1-.3c-.2-.1-.3-.1-.5-.2-.1-.1-.2-.1-.4-.2l31.8-74.5c-.1 0-.3-.1-.4-.1-7.7-1.6-15.4-2.9-23.3-3.9-.1 0-.3 0-.4-.1L312.2 77c-3.2-.8-6.4-1.3-9.7-1.6h-.5c-.3 0-.6-.1-.9-.1l4.9-75c-3.2-.3-6.4-.3-9.7-.3-4.5 0-9 .1-13.4.3h-.4l6.8 75c-4.1.3-8.1 1-12 1.9l-19-75c-.1 0-.3 0-.4.1-7.9 1-15.6 2.3-23.3 3.9-.1 0-.3.1-.4.1L266.1 81c-3.3 1.4-6.5 3.1-9.6 5l-46.3-73.7c-.1 0-.3.1-.4.1-8.4 2.5-16.7 5.5-24.8 8.7-.1.1-.3.1-.4.2L247 93.1c-2.7 2.4-5.3 5-7.6 7.7l-80.7-67.5c-.1.1-.3.1-.4.2-9.2 4.8-18.1 10.1-26.7 15.8-.1.1-.2.2-.4.2l101.3 60.9c-1.8 3.1-3.5 6.3-4.8 9.7l-123.8-50-.3.3c-9.6 8.2-18.7 17-27.2 26.3l-.3.3 148 34.3c-.8 3.5-1.3 7.1-1.6 10.7L50.3 130.1c-.1.1-.2.2-.2.3-8.5 12.7-16.1 26.1-22.6 40-.1.1-.1.2-.2.4l195.4-16.7c.3 3.7.9 7.2 1.8 10.7L10.2 218c0 .1-.1.2-.1.4-4.6 17.2-7.7 35-9.1 53.2v.3l227.4-95.8c1.4 3.3 3.1 6.6 5 9.6L57.5 295H0c0 11.7.7 23.2 2 34.5v.3L58.1 295h66.1L240 194.9c2.6 3 5.4 5.8 8.5 8.3L170.8 295H206l51.8-85.3c3.2 1.9 6.6 3.6 10.2 5L235.1 295h25.1l18.2-77c3.8.9 7.6 1.4 11.6 1.7l-1.4 20.6-4.1 54.7H306.2l-4.1-54.7-1.4-20.7c3.6-.3 7.1-.8 10.6-1.6l18.2 77h25.1l-32.9-80.3c3.5-1.4 6.9-3.1 10.2-5l51.8 85.3h35.2l-77.7-91.8c3-2.5 5.9-5.3 8.5-8.3L465.3 295h66.1l56.1 34.8v-.3c1.3-11.3 2-22.8 2-34.5H532z"></path></svg>