<svg data-name="Layer 1" xmlns="http://www.w3.org/2000/svg" viewBox="0 0 608.89 501.55"><path d="M602.54 126.97c-21.01-36.39-90.56-39.05-179.48-13.36 11.44 24.82 17.86 52.43 17.86 81.55 0 107.78-87.37 195.16-195.16 195.16-65.97 0-124.26-32.77-159.58-82.89C18.33 372.17-14.84 434.48 6.35 471.18c33.99 58.88 195.01 29.56 359.65-65.5 164.64-95.05 270.54-219.84 236.55-278.72Z"></path><path d="M423.06 113.6C392.17 46.56 324.43 0 245.77 0 137.99 0 50.62 87.37 50.62 195.16c0 41.81 13.19 80.51 35.57 112.27 41.01-39.13 94.69-79.16 156.71-114.96 62.89-36.31 125.22-62.99 180.17-78.86Z"></path></svg>