<svg xmlns="http://www.w3.org/2000/svg" width="613.8" viewBox="0 0 613.8 541" height="541" style="enable-background:new 0 0 613.8 541" xml:space="preserve"><path d="M73.5 443.8c30.8 17.7 65 27.6 100.6 27.6 35.8 0 70.2-10 101.1-27.9l22-12.7c41.5-24 87.7-37.4 135.7-37.4 44.6 0 87.7 11.6 126.9 32.5.6.3.9.9.9 1.5v76c0 .6-.3 1.2-.9 1.5-.5.3-1.2.3-1.7 0L534 491c-.1-.1-.3-.2-.4-.3-30.8-17.7-65-27.6-100.6-27.6-35.8 0-70.2 10-101.1 27.9l-22 12.7c-41.5 24-87.7 37.4-135.7 37.4-42 0-82.8-10.3-120.3-29.1-.6-.3-.9-.9-.9-1.5v-75.6c0-.6.3-1.2.9-1.5.5-.3 1.2-.3 1.7 0l17.6 10.2c.1 0 .2.1.3.2M395.2 53h75.7c.9 0 1.7.8 1.7 1.7v302.7c0 .9-.8 1.7-1.7 1.7h-75.7c-.9 0-1.7-.8-1.7-1.7V54.7c0-1 .7-1.7 1.7-1.7zM143 53h75.7c.9 0 1.7.8 1.7 1.7v302.7c0 .9-.8 1.7-1.7 1.7H143c-.9 0-1.7-.8-1.7-1.7V54.7c-.1-1 .7-1.7 1.7-1.7zM559.1 0c30.1 0 54.7 24.6 54.7 54.7s-24.6 54.7-54.7 54.7-54.7-24.6-54.7-54.7C504.5 24.6 529.1 0 559.1 0zM54.7 0c30.1 0 54.7 24.6 54.7 54.7s-24.6 54.7-54.7 54.7S0 84.8 0 54.7 24.6 0 54.7 0zm252.2 0c30.1 0 54.7 24.6 54.7 54.7s-24.6 54.7-54.7 54.7-54.7-24.6-54.7-54.7S276.8 0 306.9 0z" style="fill-rule:evenodd;clip-rule:evenodd"></path></svg>