<svg xmlns="http://www.w3.org/2000/svg" width="593.5" viewBox="0 0 593.5 581.9" height="581.9"><path d="M242.4 182.8c-25.7-23.1-59.8-37.2-97-37.2C65.2 145.6 0 210.8 0 291s65.2 145.4 145.4 145.4c79.7 0 144.7-64.6 145.3-144.2V0h-48.3v182.8zm-97 205.2c-53.5 0-97-43.5-97-97s43.5-97 97-97 97 43.5 97 97-43.6 97-97 97zM351.1 399.1c25.7 23.1 59.8 37.2 97 37.2 80.1 0 145.4-65.2 145.4-145.4s-65.2-145.4-145.4-145.4c-79.7 0-144.7 64.6-145.3 144.2v292.2h48.3V399.1zm97-205.2c53.5 0 97 43.5 97 97s-43.5 97-97 97-97-43.5-97-97 43.5-97 97-97z"></path></svg>