<svg id="Layer_1" data-name="Layer 1" xmlns="http://www.w3.org/2000/svg" viewBox="0 0 629.65 537.95">   <rect x="393.64" y="182.55" width="124.71" viewBox="0 0 124.71 9.61" height="9.61"></rect>   <rect x="393.64" y="201.77" width="124.71" height="9.61"></rect>   <rect x="393.64" y="220.99" width="124.71" height="9.61"></rect>   <rect x="393.64" y="240.2" width="124.71" height="9.61"></rect>   <rect x="393.64" y="259.42" width="124.71" height="9.61"></rect>   <rect x="393.64" y="278.63" width="124.71" height="9.61"></rect>   <rect x="393.64" y="432.26" width="124.71" height="9.61"></rect>   <rect x="393.64" y="451.48" width="124.71" height="9.61"></rect>   <rect x="393.64" y="470.7" width="124.71" height="9.61"></rect>   <rect x="393.64" y="489.91" width="124.71" height="9.61"></rect>   <rect x="393.64" y="509.13" width="124.71" height="9.61"></rect>   <rect x="393.64" y="528.34" width="124.71" height="9.61"></rect>   <path d="M393.64,297.85h-124.71v115.37c-80.82,0-146.34-68.18-146.34-149S188.1,124.81,268.93,124.81l249.42,.1v-9.61h-124.71v-9.61h124.71v-9.61h-124.71v-9.61h124.71v-9.61h-124.71v-9.61h124.71v-9.61h-124.71v-9.61h124.71v-9.61h-124.71v-9.61h124.71v-9.61h-124.71V9.61h124.71V0h-124.71V.1h-124.71C120.4,.1,0,120.5,0,269.03s120.4,268.93,268.93,268.93c3.22,0,6.41-.13,9.61-.24v-115.15h115.1v.1h236.02v-9.61h-236.02v-105.59l236.02-.1v-9.61l-236.02,.1Z"></path>   <rect x="504.94" y="316.97" width="124.71" height="9.61"></rect>   <rect x="504.94" y="336.18" width="124.71" height="9.61"></rect>   <rect x="504.94" y="355.4" width="124.71" height="9.61"></rect>   <rect x="504.94" y="374.62" width="124.71" height="9.61"></rect>   <rect x="504.94" y="393.83" width="124.71" height="9.61"></rect> </svg>