<svg id="Layer_1" data-name="Layer 1" xmlns="http://www.w3.org/2000/svg" viewBox="0 0 627.25 627.25">   <path d="M536.06,0H91.19C40.83,0,0,40.83,0,91.19v444.87c0,26.22,11.13,49.79,28.86,66.43L253.49,62.11c.61-1.47,2.82-.69,2.37,.84L80.37,626.55c1.69,.2,3.39,.3,5.11,.41L320.29,62.11c.61-1.47,2.82-.69,2.37,.84L146.96,627.25h5.21L387.09,62.11c.61-1.47,2.82-.69,2.37,.84L213.76,627.25h322.3c50.36,0,91.19-40.83,91.19-91.19V91.19c0-50.36-40.83-91.19-91.19-91.19Zm-66.66,244.93c-49.79,0-90.15-40.36-90.15-90.15s40.36-90.15,90.15-90.15,90.15,40.36,90.15,90.15-40.36,90.15-90.15,90.15Z"></path> </svg>