<svg data-name="Layer 1" xmlns="http://www.w3.org/2000/svg" viewBox="0 0 604.64 366.42"><path d="M421.43 0c-45.49 0-87.08 16.62-119.11 44.06v.03l.07-.03 41.67 15.46-41.67 15.46 49.48 19.37-49.48 11.55 76.85 19.37-76.85 11.55 148.93 19.37-145.06 11.55 295.71 15.46-299.58 15.46 148.93 11.55-148.93 19.37 76.85 11.55-76.85 19.37 49.48 11.55-49.48 19.37 41.67 15.46-41.67 15.46-.07-.03v.03c32.03 27.45 73.62 44.06 119.11 44.06 101.18 0 183.21-82.03 183.21-183.21S522.62 0 421.43 0Z"></path><path d="m260.72 306.9 41.6-15.44v-.05l-49.41-19.34 49.41-11.54v-.03l-76.78-19.35 76.78-11.54v-.02l-148.86-19.36 144.99-11.55L2.81 183.21l295.64-15.46-144.99-11.56 148.86-19.36v-.02l-76.78-11.54 76.78-19.35v-.03l-49.41-11.54 49.41-19.34v-.05l-41.6-15.44 41.6-15.44v-.03C270.29 16.62 228.7 0 183.21 0 82.03 0 0 82.03 0 183.21s82.03 183.21 183.21 183.21c45.49 0 87.08-16.62 119.11-44.06v-.03l-41.6-15.44Z"></path></svg>