<svg data-name="Layer 1" xmlns="http://www.w3.org/2000/svg" viewBox="0 0 614.08 613.58"><path d="M0 306.87c0 164.58 129.49 298.87 292.1 306.71v-67.4C166.84 538.45 67.29 434.11 67.29 306.93v-.06c0-103.32 65.71-191.59 157.53-225.21v32.32C149.86 145.96 97.36 220.24 97.36 306.87c0 110.77 85.9 201.46 194.75 209.13V.17C129.44 7.95 0 142.3 0 306.87Zm224.81 116.19c-36.38-25.83-60.18-68.25-60.18-116.19s23.8-90.35 60.18-116.18v232.37ZM321.99 0v67.57C447.25 75.3 546.8 179.64 546.8 306.82c0 103.32-65.71 191.59-157.53 225.2v-32.31c74.96-31.98 127.46-106.26 127.46-192.89 0-110.77-85.9-201.46-194.75-209.13v515.72c162.66-7.78 292.1-142.13 292.1-306.71S484.59 7.84 321.99 0Zm67.29 190.63c36.38 25.83 60.18 68.3 60.18 116.19s-23.8 90.35-60.18 116.18V190.63Z"></path></svg>