<svg xmlns="http://www.w3.org/2000/svg" width="611.5" viewBox="0 0 611.5 567" height="567" xml:space="preserve"><path d="M528.3 242.4h83.3V0h-83.3C417.1 0 326.7 90.4 326.7 201.6v1.5c0 27.8 5.7 55.2 16.7 80.4-11 25.3-16.7 52.7-16.7 80.4v1.5c0 111.2 90.4 201.6 201.6 201.6h83.3V324.6h-83.3c-35.1 0-68.2-15.3-91.1-41.1 22.9-25.8 56-41.1 91.1-41.1zm0 162.3h3.1v82.2h-3.1c-67 0-121.5-54.5-121.5-121.5v-1.5c34.5 26 77 40.8 121.5 40.8zM406.8 203.1v-1.5c0-67 54.5-121.5 121.5-121.5h3.1v82.2h-3.1c-44.5 0-87 14.8-121.5 40.8zM83.3 0H0v242.4h83.3c35.1 0 68.2 15.3 91.1 41.1-22.9 25.8-56 41.1-91.1 41.1H0V567h83.3c111.2 0 201.6-90.4 201.6-201.6v-1.5c0-27.7-5.7-55.2-16.7-80.4 11-25.3 16.7-52.7 16.7-80.4v-1.5C284.9 90.5 194.4 0 83.3 0zm121.5 363.9v1.5c0 67-54.5 121.5-121.5 121.5h-3.1v-82.2h3.1c44.4 0 87-14.8 121.5-40.8zm0-160.8c-34.5-26-77.1-40.8-121.5-40.8h-3.1V80.1h3.1c67 0 121.5 54.5 121.5 121.5v1.5z"></path></svg>