<svg xmlns="http://www.w3.org/2000/svg" width="584.5" viewBox="0 0 584.5 585.1" height="585.1"><path d="M437.8 142.4l-.2-.2c-12-12.8-21.6-28-27.8-44.4L307 273.2l130.8-130.8zM358.6 19.6C339.9 7 317.8.6 295.5 0l-.2 268.2L359 19.9c-.1-.1-.3-.2-.4-.3zM406.9 90c-.1-.2-.1-.3-.2-.5-8-21.8-15.1-39.5-32.7-57.1-3-3-6.2-5.8-9.5-8.4l-63.1 246L406.9 90zM486.7 175.1c-16.4-6.2-31.6-15.7-44.4-27.8l-.2-.2-130.9 130.8 175.5-102.8zM584.5 289.4c-.6-22.2-7-44.4-19.6-63.1-.1-.2-.2-.3-.3-.5l-248.3 63.7 268.2-.1zM560.5 220.3c-2.6-3.3-5.4-6.5-8.4-9.5-17.6-17.5-35.4-24.6-57.1-32.7-.2-.1-.3-.1-.5-.2l-180 105.4 246-63zM174.7 97.7c-6.2 16.4-15.7 31.6-27.8 44.4l-.2.2 130.8 130.9L174.7 97.7zM225.9 19.6c-.2.1-.3.2-.5.3l63.7 248.3L289 0c-22.3.6-44.4 7-63.1 19.6zM219.9 24c-3.3 2.6-6.5 5.4-9.5 8.4-17.5 17.6-24.6 35.4-32.7 57.1-.1.2-.1.3-.2.5l105.4 180-63-246zM142.4 147.1l-.2.2c-12.8 12-28 21.6-44.4 27.8l175.5 102.8-130.9-130.8zM19.9 225.8c-.1.2-.2.3-.3.5C7 245 .6 267.1 0 289.4l268.2.2-248.3-63.8zM90 177.9c-.2.1-.3.1-.5.2-21.8 8-39.5 15.1-57.1 32.7-3 3-5.8 6.2-8.4 9.5l246 63.1L90 177.9zM146.7 442.8l.2.2c12 12.8 21.6 28 27.8 44.4l102.8-175.5-130.8 130.9zM225.9 565.6c18.7 12.6 40.8 19 63.1 19.6l.2-268.2-63.7 248.3c.1 0 .2.2.4.3zM177.5 495.2c.1.2.1.3.2.5 8 21.8 15.1 39.5 32.7 57.1 3 3 6.2 5.8 9.5 8.4l63.1-246-105.5 180zM97.7 410.1c16.4 6.2 31.6 15.7 44.4 27.8l.2.2 130.9-130.8L97.7 410.1zM0 295.8c.6 22.2 7 44.4 19.6 63.1.1.2.2.3.3.5l248.3-63.7-268.2.1zM24 364.9c2.6 3.3 5.4 6.5 8.4 9.5C50 391.9 67.7 399 89.5 407c.2.1.3.1.5.2l180-105.4-246 63.1zM409.8 487.4c6.2-16.4 15.7-31.6 27.8-44.4l.2-.2L307 311.9l102.8 175.5zM295.5 585.1c22.2-.6 44.4-7 63.1-19.6.2-.1.3-.2.5-.3L295.4 317l.1 268.1zM364.6 561.2c3.3-2.6 6.5-5.4 9.5-8.4 17.5-17.6 24.6-35.4 32.7-57.1.1-.2.1-.3.2-.5l-105.4-180 63 246zM442.1 438l.2-.2c12.8-12 28-21.6 44.4-27.8L311.2 307.2 442.1 438zM564.6 359.3c.1-.2.2-.3.3-.5 12.6-18.7 19-40.8 19.6-63.1l-268.2-.2 248.3 63.8zM494.5 407.2c.2-.1.3-.1.5-.2 21.8-8 39.5-15.1 57.1-32.7 3-3 5.8-6.2 8.4-9.5l-246-63.1 180 105.5z"></path></svg>