<svg xmlns="http://www.w3.org/2000/svg" width="612.4" viewBox="0 0 612.4 612.4" height="612.4" style="enable-background:new 0 0 612.4 612.4" xml:space="preserve"><path d="M482.7 221.8c-17.7 0-34.7 3.6-50.1 10.1 29.7-23.9 48.7-60.5 48.7-101.7C481.4 58.3 423.3 0 351.8 0c-28.1 0-54.2 9-75.4 24.3 0 0-216.4 125.9-224.1 131.6C20.5 179.7 0 217.6 0 260.4c0 71.9 58 130.2 129.6 130.2 17.7 0 34.7-3.6 50.1-10.1C150 404.3 131 441 131 482.2c0 71.9 58 130.2 129.6 130.2 28.1 0 54.2-9 75.4-24.3 0 0 216.4-125.9 224.1-131.6 31.7-23.7 52.2-61.7 52.2-104.5.1-71.9-58-130.2-129.6-130.2zM271.8 49.9c21.4-21.4 49.7-33.3 79.9-33.3 30.2 0 58.6 11.8 79.9 33.3s33.1 50 33.1 80.3-11.7 58.8-33 80.3-49.7 33.3-79.9 33.3c-30.2 0-58.6-11.8-79.9-33.3s-33.1-50-33.1-80.3 11.7-58.8 33-80.3zm68.7 512.6c-21.4 21.4-49.7 33.3-79.9 33.3S202 584 180.7 562.5c-21.4-21.4-33.1-50-33.1-80.3 0-30.3 11.8-58.8 33.1-80.3s49.7-33.3 79.9-33.3 58.6 11.8 79.9 33.3 33.1 50 33.1 80.3c.1 30.3-11.7 58.8-33.1 80.3z"></path></svg>