<svg xmlns="http://www.w3.org/2000/svg" width="592.3" viewBox="0 0 592.3 625" height="625" xml:space="preserve"><path d="M443 625c-82.4 0-149.3-67-149.3-149.3v-72.4h-3.1c-56.6 0-110.2 23.3-150.9 65.6-39 40.5-61.4 94-61.4 146.7H0V0h78.2c0 56.5 22.2 109.8 62.5 150.1s93.6 62.5 150.1 62.5h2.8V0h78.2v212.6h210.9v78.2H371.9V325H443c82.4 0 149.3 68.3 149.3 150.6S525.4 625 443 625zm-71.1-221.8v72.4c0 39.2 31.9 71.1 71.1 71.1s71.1-31.9 71.1-71.1-31.9-72.4-71.1-72.4h-71.1zM78.2 198v221.9l5.1-5.4c55.6-57.7 129.2-89.5 207.2-89.5h3.1v-34.2h-2.8c-77.4 0-150.4-30.3-205.4-85.4-2.5-2.4-4.9-4.9-7.2-7.4z"></path></svg>