<svg xmlns="http://www.w3.org/2000/svg" width="623.3" viewBox="0 0 623.3 623.3" height="623.3" xml:space="preserve" style="enable-background:new 0 0 623.3 623.3"><path d="M311.6 0C139.5 0 0 139.5 0 311.6c0 172.1 139.5 311.6 311.6 311.6 172.1 0 311.6-139.5 311.6-311.6C623.3 139.5 483.7 0 311.6 0zM415 310.5 312.8 208.3c56.1.6 101.5 46 102.2 102.2zM310.5 208.3 208.3 310.5c.6-56.2 46-101.6 102.2-102.2zM208.3 312.8 310.5 415c-56.2-.7-101.6-46.1-102.2-102.2zM312.8 415 415 312.8c-.7 56.1-46.1 101.5-102.2 102.2z"></path></svg>