<svg xmlns="http://www.w3.org/2000/svg" width="609.9" viewBox="0 0 609.9 642" height="642" style="overflow:visible;enable-background:new 0 0 609.9 642" xml:space="preserve"><path d="M609.9 305c0 122.9-73.3 234.7-190.8 282.9L345.4 109 317 80.6V642h-4.8V69l37.7 37.7 73 474.1C529.9 535 605.1 428.6 605.1 305 605.1 139.4 470.5 4.8 305 4.8S4.8 139.4 4.8 305C4.8 428.6 80 535 187 580.9l73-474.1L297.7 69v573h-4.8V80.6L264.5 109l-73.7 478.8C73.3 539.7 0 427.9 0 305 0 136.6 136.6 0 305 0s304.9 136.6 304.9 305z"></path></svg>