<svg xmlns="http://www.w3.org/2000/svg" id="a" width="642" viewBox="0 0 642 611.51" height="611.51" data-name="Layer 1"><defs></defs><path d="M323.38 572.18C342.77 413.45 478.02 290.5 642 290.5c0 177.28-143.72 321-321 321-177.28.01-321-143.71-321-320.99 163.97 0 299.23 122.94 318.62 281.68h4.77Z" class="b"></path><path d="M324.79 374.77c10.72-67.47 43.4-127.69 90.46-173.08 47.06-45.39 108.5-75.88 176.87-83.97 2.18 14.77 3.34 29.85 3.34 45.2 0 39.61-7.51 77.55-21.25 112.29-116.72 23.43-211.99 106.06-253.2 215.2-41.22-109.14-136.49-191.77-253.2-215.2-13.74-34.73-21.25-72.67-21.25-112.29 0-15.34 1.16-30.43 3.34-45.2 68.37 8.09 129.81 38.58 176.87 83.97s79.74 105.61 90.46 173.08h7.58Z" class="b"></path><circle cx="321" cy="110.34" r="110.34" class="b"></circle></svg>