<svg xmlns="http://www.w3.org/2000/svg" width="497" viewBox="0 0 497 617.9" height="617.9" style="enable-background:new 0 0 497 617.9" xml:space="preserve"><path d="M248.5 0C111.3 0 0 111.3 0 248.5c0 110.7 72.3 204.4 172.3 236.6v132.8h151.4V485.4C424.2 453.5 497 359.5 497 248.5 497 111.3 385.7 0 248.5 0zM58.2 294.6c-18 0-32.6-14.6-32.6-32.6s14.6-32.6 32.6-32.6S90.8 244 90.8 262s-14.6 32.6-32.6 32.6zm94.4 94.4c-18 0-32.6-14.6-32.6-32.6s14.6-32.6 32.6-32.6 32.6 14.6 32.6 32.6-14.6 32.6-32.6 32.6zm0-94.4c-18 0-32.6-14.6-32.6-32.6s14.6-32.6 32.6-32.6 32.6 14.6 32.6 32.6-14.6 32.6-32.6 32.6zm0-94.4c-18 0-32.6-14.6-32.6-32.6s14.6-32.6 32.6-32.6 32.6 14.6 32.6 32.6-14.6 32.6-32.6 32.6zm123.7 371.1h-56.6V415.4h56.6v155.9zM247 389c-18 0-32.6-14.6-32.6-32.6s14.6-32.6 32.6-32.6 32.6 14.6 32.6 32.6S265 389 247 389zm0-94.4c-18 0-32.6-14.6-32.6-32.6s14.6-32.6 32.6-32.6 32.6 14.6 32.6 32.6-14.6 32.6-32.6 32.6zm0-94.4c-18 0-32.6-14.6-32.6-32.6S229 135 247 135s32.6 14.6 32.6 32.6-14.6 32.6-32.6 32.6zm0-94.4c-18 0-32.6-14.6-32.6-32.6S229 40.6 247 40.6s32.6 14.6 32.6 32.6-14.6 32.6-32.6 32.6zM341.4 389c-18 0-32.6-14.6-32.6-32.6s14.6-32.6 32.6-32.6 32.6 14.6 32.6 32.6-14.6 32.6-32.6 32.6zm0-94.4c-18 0-32.6-14.6-32.6-32.6s14.6-32.6 32.6-32.6S374 244 374 262s-14.6 32.6-32.6 32.6zm0-94.4c-18 0-32.6-14.6-32.6-32.6s14.6-32.6 32.6-32.6 32.6 14.6 32.6 32.6-14.6 32.6-32.6 32.6zm94.4 94.4c-18 0-32.6-14.6-32.6-32.6s14.6-32.6 32.6-32.6 32.6 14.6 32.6 32.6-14.6 32.6-32.6 32.6z"></path></svg>