<svg xmlns="http://www.w3.org/2000/svg" width="615" viewBox="0 0 615 615" height="615" xml:space="preserve" style="enable-background:new 0 0 615 615"><path d="M307.5 0C138 0 0 137.9 0 307.5S138 615 307.5 615 615 477.1 615 307.5 477.1 0 307.5 0zm1.6 73.1c90.1 0 145.1 36.6 185.7 90.2H121.3c41.8-53.8 97.7-90.2 187.8-90.2zM244 467.6v66.8C146.5 506.7 71.7 413.8 71.7 307.5c0-25.3 4.1-49.7 11.6-72.5h276.4C295.6 284.3 245.9 375.4 244 467.6zm75.9 75.1v-71.8c2.7-123.6 94.5-225.6 210.2-240.1 8.5 24.3 13.2 50.3 13.2 77.5 0 125.5-99.2 228.4-223.4 234.4z"></path></svg>