<svg xmlns="http://www.w3.org/2000/svg" width="582.5" viewBox="0 0 582.5 578" height="578"><path d="M568.1 324.3v-35s17.8-17.8 13.9-68.9c-2.1-26.8-11.3-45.5-19.1-56.7-6.1-8.8-12.6-13.8-21.7-19L288.7 0 9.3 160v33.5s5.2-2.7 8.1-4.6c27.2 14.5 2.5 59.3 2.5 59.3l-10.5 5.9v35S-3.1 310.5.9 361.6C3 388.4 11.6 405.8 19.3 417c6.1 8.8 13.1 11.5 22.3 16.8L289.3 578 568 418.5V385s-2.8 1.3-5.7 3.1c-27.2-14.5-2.5-59.3-2.5-59.3l8.3-4.5zM36.8 206c-1.3-8.2-5.1-15.6-12.4-20.8L293.1 32.6c8.7 5.2 9.3 23.2 9.3 24-1.1 30.5-12.7 38-12.2 37.8L29.4 243.1c5.7-10.4 9.4-24.6 7.4-37.1zM9.3 289.3l279.4-160 279.4 160L289.3 451 9.3 289.3zM543 371.2c1.3 8.2 5.1 15.6 12.4 20.8L290.8 543.8c-8.7-5.2-9.3-23.2-9.3-24 1.1-30.5 12.7-38 12.2-37.8l256.8-147.9c-5.9 10.3-9.6 24.6-7.5 37.1z"></path><circle cx="290.6" cy="290.7" r="107.4"></circle></svg>