<svg xmlns="http://www.w3.org/2000/svg" width="611.7" viewBox="0 0 611.7 564.7" height="564.7" style="enable-background:new 0 0 611.7 564.7" xml:space="preserve"><path d="M611.7 97.3c0 53.7-43.5 97.3-97.3 97.3-6.6 0-13-.7-19.2-1.9-85.6 71.5-179.8 248.1-186.2 372h-6.2c-6.4-123.9-100.6-300.5-186.2-372.1-6.2 1.2-12.7 1.9-19.2 1.9C43.5 194.5 0 151 0 97.3 0 43.5 43.5 0 97.3 0s97.3 43.5 97.3 97.3c0 17-4.4 33-12.1 46.9 30.8 61.4 83.3 110.5 123.4 110.5 40.1 0 92.6-49.1 123.4-110.5-7.7-13.9-12.1-29.9-12.1-46.9 0-53.7 43.5-97.3 97.3-97.3 53.7 0 97.2 43.5 97.2 97.3"></path></svg>