<svg data-name="Layer 1" xmlns="http://www.w3.org/2000/svg" viewBox="0 0 618.64 495.35"><path d="M364.12 242.97c.15 1.98.17 3.96.1 5.94l194.22 22.46 13.5-59.16-207.82 30.75ZM263.33 223.61c.85-1.75 1.81-3.45 2.86-5.1L92.01 89.03c-1.6 4.66-2.98 9.47-4.12 14.45l-10.6 46.43 186.04 73.7ZM358.04 222.01l234.9-101.81 25.7-112.57-263.67 209.33a52.72 52.72 0 0 1 3.07 5.05ZM307.11 193.95c1.95-.15 3.91-.17 5.86-.1l15.46-135.52-8.98-10.71c-11.51-13.72-24.77-24.31-39.01-32l26.67 178.33ZM481.43 468.64 340.85 291.02c-1.62 1.1-3.28 2.09-4.98 2.99l86.83 199.52c21.12-3.49 41.38-11.95 58.73-24.88ZM363.33 256.88c-.37 1.95-.84 3.88-1.42 5.78l182.06 72.12 12.68-55.55-193.32-22.36ZM358.98 270.12c-.86 1.78-1.84 3.52-2.9 5.21l171.8 127.71c1.15-3.63 2.18-7.35 3.05-11.17l11.23-49.18-183.18-72.57ZM351.3 281.77c-1.26 1.45-2.6 2.84-4.04 4.17l141.1 177.17c15.77-13.51 28.62-31.02 36.76-52.13L351.3 281.77ZM362.93 235.04l210.93-31.21 16.88-73.93-229.46 99.45c.66 1.88 1.22 3.78 1.66 5.69ZM395.94 138.83l-50.23 67.78c1.48 1.27 2.89 2.64 4.25 4.09l63.78-50.64-17.8-21.23ZM320.93 194.73c1.92.36 3.82.82 5.7 1.39l37.54-95.18-28.64-34.15-14.6 127.94ZM334.1 199.02c1.76.84 3.48 1.8 5.16 2.84l51.39-69.35-20.62-24.58-35.93 91.09ZM270.99 212.08c1.23-1.42 2.55-2.78 3.96-4.08L133.18 29.99c-16.2 13.14-29.54 30.37-38.2 51.25l176.01 130.84ZM293.56 196.78c1.85-.65 3.73-1.2 5.62-1.63L271.7 11.31C251.39 2.26 229.51-1.23 208.09.38l85.47 196.4ZM287.74 294.74c-1.77-.86-3.49-1.84-5.17-2.91l-53.45 72.13 21.3 25.4 37.32-94.62ZM314.86 300c-1.98.14-3.97.16-5.95.08l-15.97 139.97 6.44 7.68c12.48 14.88 27.03 26.09 42.64 33.89l-27.16-181.63ZM328.53 297.2c-1.89.66-3.8 1.21-5.74 1.64l27.92 186.73c20.47 8.4 42.4 11.26 63.74 9.06L328.53 297.2ZM276.15 287.03a54.83 54.83 0 0 1-4.23-4.13l-66.51 52.8 18.41 21.95 52.33-70.61ZM300.95 299.15c-1.94-.38-3.87-.85-5.77-1.44l-38.9 98.64 29.56 35.24 15.11-132.44ZM263.95 271.53 25.99 374.66 0 488.54l266.97-211.95a53.576 53.576 0 0 1-3.02-5.06ZM140.25 24.64l141.1 178.28c1.59-1.07 3.21-2.05 4.87-2.93L199.74 1.27c-21.27 2.93-41.78 10.9-59.49 23.37ZM259.19 258.5 45.28 290.16 28.2 364.97l232.58-100.8c-.64-1.87-1.17-3.76-1.59-5.67ZM258.06 250.56c-.13-1.96-.15-3.91-.06-5.87l-197.13-22.8-13.67 59.87 210.86-31.2ZM258.94 236.74c.37-1.92.84-3.81 1.43-5.68L75.49 157.82l-12.83 56.22 196.28 22.7Z"></path></svg>