<svg xmlns="http://www.w3.org/2000/svg" id="a" width="627.56" viewBox="0 0 627.56 642" height="642" data-name="Layer 1"><defs></defs><path d="M453.48 146.89H340.7c16.72-3.23 32.7-11.21 45.63-24.14 21.64-21.64 29.72-51.81 24.2-79.8l-79.49 79.49c9.4-14.02 14.91-30.86 14.91-49 0-30.69-15.6-57.65-39.35-73.44v112.78c-3.23-16.72-11.21-32.7-24.14-45.63-21.64-21.64-51.81-29.72-79.8-24.2l79.65 79.65c-14.06-9.45-30.95-15-49.15-15-30.69 0-57.65 15.6-73.44 39.29h112.76c-16.7 3.22-32.66 11.19-45.61 24.14-21.64 21.64-29.72 51.81-24.14 79.8L306.6 146.96c-1.29 6.5-1.77 13.11-1.59 19.7l-36.92 36.92V307.2h38.52V181c3.23 16.72 11.21 32.7 24.14 45.63 21.64 21.64 51.75 29.72 79.74 24.2l-79.48-79.52c14.03 9.42 30.88 14.94 49.04 14.94 30.69 0 57.65-15.6 73.44-39.35Z" class="b"></path><path d="M293.78 321.38H181c16.72-3.23 32.7-11.21 45.63-24.14 21.64-21.64 29.72-51.81 24.2-79.8l-79.49 79.49c9.4-14.02 14.91-30.86 14.91-49 0-30.69-15.6-57.65-39.35-73.44v112.78c-3.23-16.72-11.21-32.7-24.14-45.63-21.64-21.64-51.81-29.72-79.8-24.2l79.65 79.65c-14.06-9.45-30.95-15-49.15-15-30.69 0-57.65 15.6-73.44 39.29h112.76c-16.7 3.22-32.66 11.19-45.61 24.14-21.64 21.64-29.72 51.81-24.14 79.8L146.9 321.45c-1.29 6.5-1.77 13.11-1.59 19.7l-36.92 36.92v103.62h38.52v-126.2c3.23 16.72 11.21 32.7 24.14 45.63 21.64 21.64 51.75 29.72 79.74 24.2l-79.48-79.52c14.03 9.42 30.88 14.94 49.04 14.94 30.69 0 57.65-15.6 73.44-39.35ZM627.56 304.06H514.78c16.72-3.23 32.7-11.21 45.63-24.14 21.64-21.64 29.72-51.81 24.2-79.8l-79.49 79.49c9.4-14.02 14.91-30.86 14.91-49 0-30.69-15.6-57.65-39.35-73.44v112.78c-3.23-16.72-11.21-32.7-24.14-45.63-21.64-21.64-51.81-29.72-79.8-24.2l79.65 79.65c-14.06-9.45-30.95-15-49.15-15-30.69 0-57.65 15.6-73.44 39.29h112.76c-16.7 3.22-32.66 11.19-45.61 24.14-21.64 21.64-29.72 51.81-24.14 79.8l103.87-103.87c-1.29 6.5-1.77 13.11-1.59 19.7l-36.92 36.92v103.62h38.52v-126.2c3.23 16.72 11.21 32.7 24.14 45.63 21.64 21.64 51.75 29.72 79.74 24.2l-79.48-79.52c14.03 9.42 30.88 14.94 49.04 14.94 30.69 0 57.65-15.6 73.44-39.35Z" class="b"></path><path d="M468.69 481.69H355.91c16.72-3.23 32.7-11.21 45.63-24.14 21.64-21.64 29.72-51.81 24.2-79.8l-79.49 79.49c9.4-14.02 14.91-30.86 14.91-49 0-30.69-15.6-57.65-39.35-73.44v112.78c-3.23-16.72-11.21-32.7-24.14-45.63-21.64-21.64-51.81-29.72-79.8-24.2l79.65 79.65c-14.06-9.45-30.95-15-49.15-15-30.69 0-57.65 15.6-73.44 39.29h112.76c-16.7 3.22-32.66 11.19-45.61 24.14-21.64 21.64-29.72 51.81-24.14 79.8l103.87-103.87c-1.29 6.5-1.77 13.11-1.59 19.7l-36.92 36.92V642h38.52V515.8c3.23 16.72 11.21 32.7 24.14 45.63 21.64 21.64 51.75 29.72 79.74 24.2l-79.48-79.52c14.03 9.42 30.88 14.94 49.04 14.94 30.69 0 57.65-15.6 73.44-39.35Z" class="b"></path></svg>