<svg data-name="Layer 1" xmlns="http://www.w3.org/2000/svg" viewBox="0 0 609.24 621.99"><path d="M378.36 102.78c4.84 1.72 10.15-.82 11.87-5.66 1.71-4.84-.82-10.15-5.66-11.87-4.84-1.71-10.15.82-11.87 5.66-1.71 4.84.82 10.15 5.66 11.87ZM387.91 75.81c3.41 1.21 7.16-.58 8.37-3.99 1.21-3.41-.58-7.16-3.99-8.37-3.41-1.21-7.16.58-8.37 3.99-1.21 3.41.58 7.16 3.99 8.37ZM397.25 49.45c2.33.82 4.88-.39 5.7-2.72.82-2.33-.39-4.88-2.72-5.7-2.33-.82-4.88.39-5.7 2.72-.82 2.33.39 4.88 2.72 5.7ZM406.31 23.86c1.66.59 3.48-.28 4.07-1.94.59-1.66-.28-3.48-1.94-4.07-1.66-.59-3.49.28-4.07 1.94-.59 1.66.28 3.49 1.94 4.07ZM456.71 137.98c3.23-3.99 2.62-9.85-1.37-13.08-3.99-3.23-9.84-2.62-13.07 1.37-3.23 3.99-2.62 9.84 1.37 13.07 3.99 3.23 9.84 2.62 13.07-1.37ZM470.87 116.14c2.28-2.81 1.85-6.94-.97-9.22-2.81-2.28-6.94-1.85-9.22.97-2.28 2.81-1.84 6.94.97 9.22 2.81 2.28 6.94 1.85 9.22-.97ZM485.53 94.72c1.55-1.92 1.26-4.73-.66-6.28-1.92-1.55-4.73-1.26-6.28.66-1.55 1.92-1.26 4.73.66 6.28 1.92 1.55 4.73 1.26 6.28-.66ZM500.83 73.81c1.11-1.37.9-3.38-.47-4.49-1.37-1.11-3.38-.9-4.49.47s-.9 3.38.47 4.49c1.37 1.11 3.38.9 4.49-.47ZM505.75 198.68c4.38-2.68 5.75-8.41 3.07-12.78-2.68-4.38-8.41-5.75-12.78-3.07-4.38 2.68-5.75 8.41-3.07 12.78 2.68 4.38 8.41 5.75 12.78 3.07ZM526.38 182.82c3.09-1.89 4.06-5.93 2.16-9.02-1.89-3.09-5.93-4.06-9.01-2.16-3.09 1.89-4.06 5.93-2.16 9.01 1.89 3.09 5.93 4.06 9.01 2.17ZM547.36 167.53c2.1-1.29 2.76-4.04 1.48-6.15-1.29-2.1-4.04-2.76-6.14-1.48-2.1 1.29-2.77 4.04-1.48 6.14 1.29 2.11 4.04 2.77 6.14 1.48ZM568.75 152.92c1.5-.92 1.97-2.89 1.05-4.39-.92-1.5-2.88-1.98-4.39-1.06-1.5.92-1.97 2.89-1.05 4.39.92 1.5 2.88 1.98 4.39 1.05ZM520.68 265.1c1.07 5.02 6 8.23 11.03 7.16 5.02-1.07 8.23-6 7.16-11.03-1.07-5.02-6-8.23-11.02-7.16-5.02 1.07-8.23 6-7.16 11.02ZM548.68 259.16c.75 3.54 4.23 5.8 7.77 5.05 3.54-.75 5.8-4.23 5.05-7.77-.75-3.54-4.23-5.8-7.77-5.05-3.54.75-5.8 4.23-5.05 7.77ZM581.33 256.79c2.41-.51 3.96-2.89 3.44-5.3-.51-2.41-2.89-3.96-5.3-3.44-2.41.51-3.96 2.89-3.44 5.3.51 2.41 2.89 3.96 5.3 3.44ZM606.37 250.17c1.72-.37 2.82-2.06 2.46-3.78-.37-1.72-2.06-2.82-3.78-2.46-1.72.37-2.82 2.06-2.46 3.78.37 1.72 2.06 2.83 3.78 2.46ZM230.88 519.21c-4.84-1.72-10.15.82-11.87 5.66-1.71 4.84.82 10.15 5.66 11.87 4.84 1.71 10.15-.82 11.87-5.66 1.71-4.84-.82-10.15-5.66-11.87ZM221.32 546.18c-3.41-1.21-7.16.58-8.37 3.99-1.21 3.41.58 7.16 3.99 8.37 3.41 1.21 7.16-.58 8.37-3.99 1.21-3.41-.58-7.16-3.99-8.37ZM211.99 572.54c-2.33-.82-4.88.39-5.7 2.72-.82 2.33.39 4.88 2.72 5.7 2.33.82 4.88-.39 5.7-2.72.82-2.33-.39-4.88-2.72-5.7ZM202.93 598.14c-1.66-.59-3.49.28-4.07 1.94-.59 1.66.28 3.48 1.94 4.07 1.66.59 3.48-.28 4.07-1.94.59-1.66-.28-3.49-1.94-4.07ZM152.52 484.02c-3.23 3.99-2.62 9.85 1.37 13.08 3.99 3.23 9.84 2.62 13.07-1.37 3.23-3.99 2.62-9.84-1.37-13.07-3.99-3.23-9.84-2.62-13.07 1.37ZM138.37 505.85c-2.28 2.81-1.85 6.94.97 9.22 2.81 2.28 6.94 1.85 9.22-.97 2.28-2.81 1.85-6.94-.97-9.22-2.81-2.28-6.94-1.85-9.22.97ZM123.7 527.27c-1.55 1.92-1.26 4.73.66 6.28 1.92 1.55 4.73 1.26 6.29-.66 1.55-1.92 1.26-4.73-.66-6.28s-4.73-1.26-6.28.66ZM108.41 548.18c-1.11 1.37-.9 3.38.47 4.49 1.37 1.11 3.38.9 4.49-.47s.9-3.38-.47-4.49c-1.37-1.11-3.38-.9-4.49.47ZM103.49 423.32c-4.38 2.68-5.75 8.41-3.07 12.78 2.68 4.38 8.41 5.75 12.78 3.07 4.38-2.68 5.75-8.41 3.07-12.78-2.68-4.38-8.41-5.75-12.78-3.07ZM82.85 439.17c-3.09 1.89-4.06 5.93-2.17 9.02 1.89 3.09 5.93 4.06 9.01 2.16 3.09-1.89 4.06-5.93 2.16-9.01-1.89-3.09-5.93-4.06-9.01-2.17ZM61.88 454.47c-2.1 1.29-2.77 4.04-1.48 6.15 1.29 2.1 4.04 2.76 6.14 1.48 2.1-1.29 2.77-4.04 1.48-6.14-1.29-2.11-4.04-2.77-6.14-1.48ZM40.49 469.08c-1.5.92-1.97 2.89-1.05 4.39.92 1.5 2.89 1.98 4.39 1.05 1.5-.92 1.97-2.88 1.05-4.39-.92-1.5-2.89-1.97-4.39-1.05ZM88.55 356.89c-1.07-5.02-6-8.23-11.02-7.16-5.02 1.07-8.23 6-7.16 11.02 1.07 5.02 6 8.23 11.03 7.16 5.02-1.07 8.23-6 7.16-11.02ZM60.56 362.83c-.75-3.54-4.23-5.8-7.77-5.05-3.54.75-5.8 4.23-5.05 7.77.75 3.54 4.23 5.8 7.77 5.05 3.54-.75 5.8-4.23 5.05-7.77ZM27.91 365.2c-2.41.51-3.96 2.89-3.44 5.3.51 2.41 2.88 3.96 5.3 3.44 2.41-.51 3.96-2.89 3.44-5.3-.51-2.41-2.89-3.96-5.3-3.44ZM2.87 371.83c-1.72.37-2.82 2.06-2.46 3.78.37 1.72 2.06 2.82 3.78 2.46 1.72-.37 2.83-2.06 2.46-3.78-.37-1.72-2.06-2.83-3.78-2.46ZM507.31 339.7c-5.55-1.15-10.88 1.53-13.63 6.14-.61-5.93-4.78-11.08-10.93-12.35-4.24-.88-8.31.4-11.46 2.89-1.95-5.75-6.74-10.37-13.11-11.69-4.14-.86-8.21-.12-11.69 1.69-2.86-5.03-7.71-8.89-13.82-10.16-1.21-.25-2.41-.34-3.6-.37-1.52-1.94-3.26-3.71-5.28-5.17 2.01-1.48 3.74-3.26 5.25-5.2 1.19-.04 2.39-.14 3.6-.39 6.1-1.3 10.93-5.19 13.76-10.23 3.49 1.79 7.56 2.51 11.7 1.63 6.37-1.35 11.14-6 13.05-11.76 3.16 2.48 7.24 3.73 11.47 2.83 6.14-1.3 10.29-6.47 10.87-12.4 2.77 4.6 8.11 7.24 13.66 6.06 6.99-1.49 11.46-8.36 9.97-15.35-1.49-6.99-8.36-11.46-15.35-9.97-5.54 1.18-9.35 5.76-10.01 11.09-2.94-5.19-8.83-8.22-14.97-6.92-4.24.9-7.45 3.7-9.33 7.25-4.09-4.49-10.34-6.8-16.71-5.44-4.14.88-7.57 3.19-10.03 6.24-4.64-3.46-10.63-5.05-16.73-3.75-1.21.26-2.34.66-3.45 1.1-.25-.13-.5-.27-.76-.4.1-.27.19-.54.28-.81 1.11-.44 2.21-.93 3.26-1.57 5.32-3.26 8.57-8.54 9.56-14.24 3.89.52 7.97-.16 11.57-2.37 5.55-3.4 8.49-9.37 8.38-15.45 3.81 1.28 8.06 1.1 11.76-1.16 5.35-3.28 7.54-9.53 6.1-15.32 4.14 3.41 10.06 4.11 14.9 1.15 6.1-3.73 8.01-11.7 4.27-17.8-3.73-6.09-11.7-8.01-17.8-4.27-4.83 2.96-6.89 8.56-5.74 13.8-4.5-3.91-11.07-4.8-16.42-1.52-3.69 2.26-5.79 5.98-6.38 9.95-5.36-2.86-12.01-2.96-17.56.45-3.61 2.21-6.07 5.53-7.37 9.24-5.52-1.71-11.71-1.21-17.02 2.05-1.05.65-1.99 1.4-2.88 2.19-.28-.04-.57-.09-.85-.12v-.86c.9-.78 1.77-1.61 2.55-2.57 3.97-4.9 5.26-11.03 4.22-16.78 3.84-.81 7.49-2.64 10.15-5.93 4.12-5.08 4.68-11.68 2.5-17.38 4.1 0 8.15-1.57 10.93-5 3.95-4.88 3.92-11.5.64-16.48 5.04 1.83 10.86.52 14.43-3.88 4.5-5.55 3.64-13.7-1.91-18.2s-13.7-3.64-18.2 1.91c-3.57 4.4-3.64 10.37-.8 14.92-5.55-2.18-12.03-.83-15.99 4.05-2.78 3.43-3.47 7.73-2.62 11.73-6.03-.94-12.36.98-16.48 6.06-2.66 3.28-3.69 7.24-3.69 11.16-5.84.18-11.57 2.72-15.54 7.61-.78.96-1.41 1.99-1.99 3.03-.28.05-.56.11-.84.17-.09-.27-.19-.54-.29-.81.59-1.04 1.13-2.11 1.54-3.28 2.08-5.88 1.29-12.03-1.53-17.08 3.35-2.04 6.09-5.14 7.5-9.13 2.17-6.14.7-12.63-3.21-17.28 3.76-1.4 6.96-4.22 8.4-8.3 2.1-5.92-.14-12.15-4.9-15.75 5.37.04 10.41-3.14 12.31-8.48 2.39-6.74-1.14-14.13-7.88-16.52-6.74-2.39-14.13 1.14-16.52 7.88-1.89 5.34.03 10.99 4.23 14.33-5.96-.2-11.62 3.23-13.72 9.15-1.45 4.08-.74 8.28 1.31 11.74-5.96 1.15-11.19 5.26-13.37 11.4-1.41 3.99-1.23 8.12.09 11.81-5.37 2.15-9.86 6.43-11.94 12.31-.41 1.16-.66 2.34-.86 3.52-.25.15-.49.29-.73.44-.1-.13-.21-.25-.32-.38-.08-.09-.15-.19-.23-.28.21-1.18.36-2.37.36-3.6 0-6.24-2.8-11.77-7.15-15.59 2.48-3.05 4.02-6.88 4.02-11.11 0-6.51-3.56-12.14-8.79-15.21 3.08-2.58 5.15-6.3 5.15-10.63 0-6.28-4.19-11.41-9.88-13.21 5.07-1.75 8.77-6.43 8.77-12.1 0-7.15-5.79-12.94-12.94-12.94-.11 0-.2.06-.3.06-.1 0-.19-.06-.29-.06-7.15.04-12.91 5.86-12.87 13.01.03 5.67 3.75 10.33 8.83 12.05-5.67 1.83-9.84 6.98-9.8 13.26.02 4.33 2.11 8.04 5.21 10.61-5.22 3.1-8.75 8.75-8.71 15.26.02 4.23 1.59 8.05 4.08 11.09-4.33 3.84-7.1 9.39-7.06 15.63 0 1.23.17 2.43.38 3.6 0 0-.01 0-.01.02-.24.29-.49.57-.72.87-.36-.23-.74-.44-1.11-.66-.2-1.17-.46-2.35-.88-3.51-2.11-5.87-6.62-10.13-12.01-12.24 1.3-3.7 1.46-7.83.02-11.81-2.21-6.13-7.46-10.22-13.43-11.33 2.02-3.47 2.71-7.67 1.24-11.75-2.13-5.91-7.81-9.31-13.77-9.08 4.18-3.37 6.07-9.02 4.15-14.36-2.42-6.72-9.84-10.21-16.56-7.79-6.73 2.42-10.21 9.84-7.79 16.56 1.92 5.33 6.98 8.48 12.35 8.41-4.74 3.62-6.94 9.87-4.82 15.77 1.47 4.07 4.68 6.88 8.45 8.26-3.89 4.67-5.33 11.17-3.12 17.29 1.43 3.98 4.19 7.06 7.55 9.09-2.8 5.06-3.56 11.22-1.44 17.09.42 1.16.97 2.23 1.56 3.27-.1.27-.2.54-.29.81-.28-.06-.56-.11-.84-.17-.59-1.04-1.22-2.06-2-3.02-3.99-4.88-9.74-7.38-15.58-7.53-.01-3.92-1.07-7.87-3.75-11.14-4.14-5.06-10.49-6.94-16.51-5.97.83-4.01.11-8.3-2.68-11.72-3.98-4.86-10.47-6.17-16.01-3.96 2.81-4.57 2.71-10.53-.88-14.92-4.53-5.53-12.68-6.34-18.21-1.81-5.53 4.53-6.34 12.68-1.82 18.21 3.59 4.39 9.42 5.66 14.45 3.81-3.26 4.99-3.25 11.62.73 16.48 2.8 3.42 6.86 4.97 10.96 4.94-2.14 5.71-1.55 12.3 2.6 17.36 2.68 3.27 6.34 5.08 10.19 5.87-1 5.76.32 11.89 4.31 16.76.78.96 1.66 1.78 2.56 2.56v.86c-.28.04-.57.08-.85.12-.9-.78-1.84-1.54-2.89-2.18-5.34-3.23-11.52-3.7-17.04-1.96-1.32-3.7-3.8-7-7.42-9.19-5.57-3.37-12.23-3.24-17.57-.35-.61-3.97-2.73-7.67-6.43-9.91-5.37-3.25-11.93-2.32-16.41 1.61 1.13-5.25-.96-10.83-5.81-13.77-6.11-3.7-14.07-1.74-17.77 4.37-3.7 6.11-1.74 14.07 4.37 17.77 4.85 2.93 10.77 2.2 14.89-1.24-1.4 5.8.81 12.04 6.18 15.29 3.7 2.24 7.96 2.4 11.76 1.1-.08 6.07 2.89 12.03 8.46 15.4 3.62 2.19 7.7 2.85 11.59 2.31 1.01 5.7 4.3 10.96 9.63 14.19 1.06.64 2.16 1.12 3.27 1.56.09.27.18.54.28.81-.26.13-.51.27-.76.4-1.11-.44-2.25-.84-3.46-1.09-6.11-1.26-12.09.36-16.71 3.84-2.48-3.04-5.92-5.33-10.06-6.19-6.38-1.32-12.61 1.02-16.68 5.53-1.9-3.54-5.13-6.32-9.37-7.2-6.15-1.27-12.02 1.8-14.93 7-.69-5.32-4.52-9.89-10.07-11.04-7-1.45-13.85 3.05-15.3 10.05-1.45 7 3.05 13.85 10.05 15.3 5.55 1.15 10.88-1.53 13.63-6.14.61 5.93 4.78 11.07 10.93 12.35 4.24.88 8.31-.4 11.46-2.89 1.95 5.75 6.74 10.37 13.12 11.69 4.14.86 8.21.12 11.69-1.69 2.86 5.03 7.71 8.89 13.81 10.16 1.21.25 2.41.34 3.6.37 1.52 1.94 3.26 3.71 5.28 5.17-2.01 1.48-3.74 3.26-5.25 5.2-1.19.04-2.39.14-3.6.39-6.1 1.3-10.93 5.19-13.76 10.23-3.49-1.79-7.56-2.51-11.7-1.63-6.37 1.35-11.14 6-13.05 11.76-3.16-2.48-7.24-3.73-11.47-2.83-6.14 1.3-10.29 6.47-10.87 12.41-2.77-4.6-8.11-7.24-13.66-6.06-6.99 1.48-11.46 8.36-9.97 15.35 1.48 6.99 8.36 11.46 15.35 9.97 5.54-1.18 9.36-5.76 10.01-11.09 2.94 5.19 8.83 8.22 14.97 6.92 4.24-.9 7.45-3.7 9.33-7.25 4.09 4.48 10.34 6.8 16.71 5.44 4.14-.88 7.57-3.19 10.03-6.24 4.64 3.46 10.63 5.05 16.73 3.75 1.21-.26 2.34-.66 3.45-1.1.25.13.5.27.76.4-.1.27-.19.54-.28.81-1.11.44-2.21.93-3.26 1.57-5.32 3.26-8.57 8.54-9.56 14.24-3.89-.52-7.97.16-11.57 2.37-5.55 3.4-8.49 9.37-8.38 15.44-3.81-1.28-8.07-1.1-11.76 1.16-5.35 3.28-7.54 9.53-6.1 15.32-4.14-3.41-10.07-4.12-14.9-1.16-6.09 3.73-8.01 11.7-4.27 17.8 3.73 6.09 11.7 8.01 17.8 4.27 4.83-2.96 6.89-8.56 5.74-13.8 4.5 3.91 11.07 4.8 16.42 1.52 3.69-2.26 5.79-5.98 6.38-9.95 5.36 2.86 12.01 2.95 17.56-.45 3.61-2.21 6.07-5.53 7.37-9.24 5.52 1.71 11.71 1.21 17.02-2.05 1.05-.65 1.99-1.4 2.88-2.19.28.04.57.09.85.12v.86c-.9.78-1.77 1.61-2.55 2.57-3.97 4.9-5.26 11.03-4.22 16.78-3.84.81-7.49 2.64-10.15 5.93-4.12 5.08-4.68 11.68-2.5 17.38-4.1 0-8.15 1.57-10.93 5-3.95 4.88-3.92 11.5-.64 16.48-5.04-1.83-10.86-.52-14.43 3.88-4.5 5.56-3.64 13.71 1.91 18.2 5.55 4.5 13.7 3.64 18.2-1.91 3.57-4.4 3.64-10.37.8-14.92 5.55 2.18 12.03.83 15.99-4.05 2.78-3.43 3.47-7.73 2.62-11.73 6.03.94 12.36-.98 16.48-6.06 2.66-3.28 3.7-7.24 3.69-11.16 5.84-.18 11.57-2.72 15.54-7.61.78-.96 1.41-1.99 1.99-3.03.28-.05.56-.11.84-.17.09.27.19.54.29.81-.59 1.04-1.13 2.11-1.55 3.28-2.08 5.88-1.29 12.03 1.53 17.08-3.35 2.04-6.09 5.14-7.5 9.13-2.17 6.14-.7 12.63 3.21 17.28-3.76 1.4-6.96 4.22-8.4 8.3-2.1 5.92.14 12.15 4.9 15.75-5.37-.04-10.41 3.14-12.31 8.48-2.39 6.74 1.14 14.13 7.88 16.52 6.74 2.39 14.13-1.14 16.52-7.88 1.89-5.34-.03-10.99-4.23-14.33 5.96.2 11.62-3.23 13.72-9.15 1.45-4.08.74-8.28-1.31-11.74 5.96-1.15 11.19-5.26 13.37-11.4 1.41-3.99 1.23-8.12-.09-11.81 5.37-2.15 9.86-6.43 11.94-12.31.41-1.16.66-2.34.86-3.52.25-.15.49-.29.73-.44.08.11.17.21.26.31.1.12.19.24.29.35-.21 1.17-.36 2.37-.36 3.6 0 6.24 2.8 11.77 7.15 15.59-2.48 3.05-4.02 6.88-4.02 11.11 0 6.51 3.56 12.14 8.79 15.21-3.08 2.58-5.15 6.3-5.15 10.63 0 6.28 4.19 11.41 9.88 13.21-5.07 1.75-8.77 6.43-8.77 12.1 0 7.15 5.79 12.94 12.94 12.94.11 0 .2-.06.3-.06.1 0 .19.06.29.06 7.15-.04 12.91-5.86 12.87-13.01-.03-5.67-3.75-10.33-8.83-12.05 5.67-1.83 9.84-6.98 9.8-13.26-.02-4.33-2.11-8.04-5.21-10.61 5.22-3.1 8.75-8.75 8.71-15.26-.02-4.23-1.59-8.06-4.08-11.09 4.33-3.84 7.1-9.39 7.06-15.63 0-1.23-.17-2.43-.38-3.6.25-.29.5-.58.73-.89.36.23.74.44 1.11.66.2 1.17.46 2.35.88 3.51 2.11 5.87 6.62 10.13 12.01 12.24-1.3 3.7-1.46 7.83-.02 11.81 2.21 6.13 7.46 10.22 13.43 11.33-2.02 3.47-2.71 7.67-1.24 11.75 2.13 5.91 7.81 9.31 13.77 9.08-4.18 3.37-6.07 9.02-4.15 14.36 2.42 6.72 9.84 10.21 16.56 7.79 6.72-2.42 10.21-9.84 7.79-16.56-1.92-5.33-6.98-8.48-12.35-8.41 4.74-3.62 6.94-9.87 4.81-15.77-1.47-4.07-4.68-6.88-8.45-8.26 3.89-4.67 5.33-11.17 3.12-17.29-1.43-3.98-4.19-7.06-7.55-9.09 2.8-5.06 3.56-11.22 1.44-17.09-.42-1.16-.97-2.23-1.56-3.27.1-.27.2-.54.29-.81.28.06.56.11.84.17.59 1.04 1.22 2.06 2 3.02 3.99 4.87 9.74 7.38 15.58 7.53.01 3.92 1.07 7.87 3.75 11.14 4.14 5.06 10.49 6.94 16.51 5.97-.83 4.01-.11 8.3 2.68 11.72 3.98 4.86 10.47 6.17 16.01 3.96-2.81 4.57-2.71 10.53.88 14.92 4.53 5.53 12.68 6.34 18.21 1.81 5.53-4.53 6.34-12.68 1.81-18.21-3.59-4.39-9.42-5.66-14.45-3.81 3.26-4.99 3.25-11.62-.73-16.48-2.8-3.41-6.86-4.97-10.96-4.94 2.14-5.71 1.55-12.3-2.6-17.36-2.68-3.27-6.34-5.08-10.19-5.87 1.01-5.76-.32-11.89-4.31-16.76-.78-.96-1.66-1.78-2.56-2.56v-.86c.28-.04.57-.08.85-.12.9.78 1.84 1.54 2.89 2.18 5.34 3.23 11.52 3.7 17.03 1.96 1.32 3.7 3.8 7 7.42 9.19 5.57 3.37 12.23 3.24 17.57.35.61 3.97 2.73 7.67 6.43 9.91 5.37 3.25 11.93 2.32 16.41-1.61-1.13 5.25.96 10.83 5.81 13.77 6.12 3.7 14.07 1.74 17.77-4.37 3.7-6.11 1.75-14.07-4.37-17.77-4.85-2.93-10.77-2.2-14.89 1.24 1.4-5.79-.81-12.04-6.18-15.29-3.7-2.24-7.96-2.4-11.76-1.1.08-6.07-2.89-12.03-8.46-15.4-3.62-2.19-7.7-2.85-11.59-2.31-1.01-5.7-4.3-10.96-9.63-14.19-1.06-.64-2.16-1.12-3.27-1.56-.09-.27-.18-.54-.28-.81.26-.13.51-.27.76-.4 1.11.44 2.25.84 3.45 1.09 6.11 1.26 12.09-.36 16.71-3.84 2.48 3.04 5.92 5.33 10.06 6.19 6.38 1.32 12.61-1.02 16.68-5.53 1.9 3.54 5.13 6.32 9.37 7.2 6.15 1.27 12.02-1.8 14.93-7 .69 5.32 4.52 9.89 10.07 11.04 7 1.45 13.85-3.05 15.29-10.05 1.45-7-3.05-13.85-10.05-15.3Zm-152.78 32.26c-4.07 3.33-6.84 7.62-8.39 12.26-4.78-1.05-9.89-.88-14.83.9-5.04 1.81-9.16 5.01-12.18 8.96-.66-.43-1.39-.75-2.1-1.12-.68-.36-1.32-.79-2.03-1.09-.92-.39-1.91-.61-2.88-.89-.73-.21-1.41-.51-2.16-.66-.99-.2-2.04-.22-3.07-.31-.76-.07-1.5-.23-2.28-.23h-.14c-1.03 0-2 .2-3 .32-.77.09-1.58.09-2.33.25-1.01.21-1.94.58-2.9.9-.71.24-1.45.39-2.14.68-.9.38-1.71.91-2.56 1.39-.39.22-.81.41-1.19.65-3.03-3.84-7.09-6.94-12.05-8.7-4.95-1.75-10.06-1.9-14.83-.82-1.58-4.63-4.37-8.91-8.45-12.22-4.08-3.31-8.85-5.15-13.71-5.73.06-4.89-1.14-9.86-3.89-14.34-2.74-4.48-6.62-7.81-11.01-9.98 1.69-4.59 2.21-9.67 1.12-14.81-1.44-6.8-5.4-12.37-10.63-16.14 5.21-3.79 9.13-9.39 10.54-16.19 1.06-5.15.51-10.23-1.2-14.81 4.38-2.19 8.23-5.54 10.96-10.03 2.72-4.5 3.9-9.47 3.81-14.36 4.86-.6 9.61-2.47 13.68-5.8 4.06-3.33 6.84-7.62 8.39-12.26 4.78 1.05 9.89.88 14.83-.9 5.04-1.81 9.16-5.01 12.18-8.96.67.43 1.4.76 2.11 1.13.68.36 1.31.78 2.02 1.08.91.38 1.89.6 2.84.88.74.22 1.44.52 2.2.67.97.2 2 .22 3 .3.79.07 1.54.24 2.35.24H304.76c.98 0 1.9-.2 2.85-.3.83-.09 1.68-.1 2.48-.26.98-.2 1.89-.57 2.84-.88.73-.24 1.5-.4 2.2-.7.9-.38 1.71-.91 2.56-1.39.39-.22.81-.4 1.19-.64 3.03 3.84 7.09 6.94 12.05 8.7 4.95 1.75 10.06 1.9 14.83.82 1.58 4.63 4.37 8.91 8.45 12.22 4.08 3.31 8.85 5.15 13.71 5.73-.06 4.89 1.14 9.86 3.89 14.34 2.74 4.48 6.62 7.81 11.01 9.98-1.69 4.59-2.21 9.67-1.12 14.81 1.44 6.8 5.4 12.37 10.63 16.14-5.21 3.79-9.13 9.39-10.54 16.19-1.06 5.15-.51 10.23 1.2 14.81-4.38 2.19-8.24 5.54-10.96 10.03-2.72 4.5-3.9 9.47-3.81 14.36-4.86.6-9.61 2.47-13.68 5.8ZM531.91 348.51c-5.03-1.04-9.95 2.19-10.99 7.22-1.04 5.03 2.19 9.95 7.22 10.99 5.03 1.04 9.95-2.19 10.99-7.22 1.04-5.03-2.19-9.95-7.22-10.99ZM556.7 356.44c-3.54-.73-7.01 1.55-7.75 5.09-.73 3.55 1.55 7.01 5.09 7.75 3.54.73 7.01-1.55 7.75-5.09.73-3.54-1.55-7.01-5.09-7.75ZM581.61 363.72c-2.42-.5-4.78 1.05-5.28 3.47-.5 2.41 1.05 4.78 3.47 5.28s4.78-1.05 5.28-3.47-1.05-4.78-3.47-5.28ZM606.69 370.21c-1.73-.36-3.41.75-3.77 2.48-.36 1.73.75 3.41 2.48 3.77 1.73.36 3.41-.75 3.77-2.48.36-1.73-.75-3.41-2.48-3.77ZM506.35 422.24c-4.39-2.66-10.11-1.25-12.77 3.14-2.66 4.39-1.25 10.11 3.14 12.77 4.39 2.66 10.11 1.25 12.77-3.14 2.66-4.39 1.25-10.11-3.14-12.77ZM527.06 437.99c-3.1-1.88-7.13-.88-9 2.21-1.87 3.1-.88 7.13 2.21 9 3.1 1.87 7.13.88 9-2.21 1.87-3.1.88-7.13-2.21-9ZM548.12 453.17c-2.11-1.28-4.86-.6-6.14 1.51-1.28 2.11-.6 4.86 1.51 6.14 2.11 1.28 4.86.6 6.14-1.51 1.28-2.11.6-4.86-1.51-6.14ZM565.21 468.74c-.91 1.51-.43 3.47 1.08 4.38 1.51.91 3.47.43 4.38-1.08.91-1.51.43-3.47-1.08-4.38-1.51-.91-3.47-.43-4.38 1.08ZM444.55 481.9c-3.97 3.25-4.56 9.11-1.3 13.08 3.25 3.97 9.11 4.56 13.08 1.3 3.97-3.25 4.56-9.11 1.3-13.08-3.25-3.97-9.11-4.56-13.08-1.3ZM462.68 504.04c-2.8 2.29-3.21 6.42-.92 9.22 2.29 2.8 6.42 3.21 9.22.92 2.8-2.29 3.21-6.42.92-9.22-2.29-2.8-6.42-3.21-9.22-.92ZM480.4 525.68c-1.91 1.56-2.19 4.38-.63 6.29 1.56 1.91 4.38 2.19 6.29.63 1.91-1.56 2.19-4.38.63-6.29-1.56-1.91-4.38-2.19-6.29-.63ZM497.6 546.69c-1.36 1.12-1.56 3.13-.45 4.49 1.12 1.36 3.13 1.56 4.49.45 1.36-1.11 1.56-3.13.45-4.49-1.12-1.36-3.13-1.56-4.49-.45ZM391.37 524.41c-1.74-4.83-7.07-7.34-11.9-5.6-4.83 1.74-7.34 7.07-5.6 11.9 1.74 4.83 7.07 7.34 11.9 5.6 4.83-1.74 7.34-7.07 5.6-11.9ZM397.56 549.68c-1.23-3.41-4.98-5.17-8.39-3.94s-5.17 4.98-3.95 8.39c1.23 3.41 4.98 5.17 8.39 3.95 3.41-1.23 5.17-4.98 3.95-8.39ZM398.64 572.04c-2.32.84-3.53 3.4-2.69 5.72.84 2.32 3.4 3.53 5.72 2.69s3.53-3.4 2.69-5.72c-.84-2.32-3.4-3.53-5.72-2.69ZM407.84 597.59c-1.66.6-2.52 2.43-1.92 4.08.6 1.66 2.42 2.52 4.08 1.92 1.66-.6 2.52-2.43 1.92-4.08-.6-1.66-2.42-2.52-4.08-1.92ZM305.23 531.88c-.11 0-.2.06-.31.07-.11 0-.2-.06-.3-.06-5.13 0-9.3 4.16-9.3 9.3s4.16 9.3 9.3 9.3c.13 0 .24-.07.36-.07s.23.07.35.07c5.13-.03 9.27-4.21 9.25-9.35-.03-5.13-4.21-9.27-9.35-9.25ZM305.39 560.5c-.14 0-.25.07-.39.08-.13 0-.25-.08-.38-.08-3.62 0-6.56 2.93-6.56 6.55s2.93 6.56 6.56 6.56c.15 0 .27-.08.42-.09.14 0 .27.08.42.08 3.62-.02 6.54-2.97 6.52-6.59-.02-3.62-2.97-6.54-6.59-6.52ZM305.54 588.46c-.16 0-.3.08-.46.1-.16-.02-.29-.09-.46-.09-2.47 0-4.47 2-4.47 4.47s2 4.47 4.47 4.47c.17 0 .32-.08.49-.1.16.02.31.09.48.09 2.47-.01 4.46-2.02 4.44-4.49-.01-2.47-2.02-4.46-4.49-4.44ZM305.68 615.61c-.21 0-.34.18-.53.22-.2-.04-.32-.22-.53-.22-1.76 0-3.19 1.43-3.19 3.19s1.43 3.19 3.19 3.19c.21 0 .35-.19.55-.23.2.04.33.22.55.22 1.76 0 3.18-1.45 3.17-3.21 0-1.76-1.45-3.18-3.21-3.17ZM77.32 273.48c5.03 1.04 9.95-2.19 10.99-7.22 1.04-5.03-2.19-9.95-7.22-10.99-5.03-1.04-9.95 2.19-10.99 7.22-1.04 5.03 2.19 9.95 7.22 10.99ZM52.54 265.56c3.55.73 7.01-1.55 7.75-5.09.73-3.55-1.55-7.01-5.09-7.75-3.55-.73-7.01 1.55-7.75 5.09-.73 3.54 1.55 7.01 5.09 7.75ZM27.62 258.27c2.42.5 4.78-1.05 5.28-3.47s-1.05-4.78-3.47-5.28-4.78 1.05-5.28 3.47 1.05 4.78 3.47 5.28ZM2.55 251.78c1.73.36 3.41-.75 3.77-2.48.36-1.73-.75-3.41-2.48-3.77-1.73-.36-3.41.75-3.77 2.48-.36 1.73.75 3.41 2.48 3.77ZM102.89 199.75c4.39 2.66 10.11 1.25 12.77-3.14 2.66-4.39 1.25-10.11-3.14-12.77-4.39-2.66-10.11-1.25-12.77 3.14-2.66 4.39-1.25 10.11 3.14 12.77ZM82.17 184.01c3.1 1.87 7.13.88 9-2.21 1.87-3.1.88-7.13-2.21-9-3.1-1.87-7.13-.88-9 2.21-1.87 3.1-.88 7.13 2.21 9ZM61.12 168.83c2.11 1.28 4.86.6 6.14-1.51 1.28-2.11.6-4.86-1.51-6.14-2.11-1.28-4.86-.6-6.14 1.51-1.28 2.11-.6 4.86 1.51 6.14ZM44.03 153.26c.91-1.51.43-3.47-1.08-4.38-1.51-.91-3.47-.43-4.38 1.08-.91 1.51-.43 3.47 1.08 4.38 1.51.91 3.47.43 4.38-1.08ZM164.68 140.09c3.97-3.25 4.56-9.11 1.3-13.08-3.25-3.97-9.11-4.55-13.08-1.3-3.97 3.25-4.56 9.11-1.3 13.08 3.25 3.97 9.11 4.56 13.08 1.3ZM146.55 117.95c2.8-2.29 3.21-6.42.92-9.22-2.29-2.8-6.42-3.21-9.23-.92-2.8 2.29-3.21 6.42-.92 9.22 2.29 2.8 6.42 3.21 9.22.92ZM128.84 96.32c1.91-1.56 2.19-4.38.63-6.29-1.56-1.91-4.38-2.19-6.29-.63-1.91 1.56-2.19 4.38-.63 6.29 1.56 1.91 4.38 2.19 6.29.63ZM111.64 75.31c1.36-1.12 1.56-3.13.45-4.49-1.12-1.36-3.13-1.56-4.49-.45-1.36 1.11-1.56 3.13-.45 4.49 1.12 1.36 3.13 1.56 4.49.45ZM217.87 97.59c1.74 4.83 7.07 7.34 11.9 5.6 4.83-1.74 7.34-7.07 5.6-11.9-1.74-4.83-7.07-7.34-11.9-5.6-4.83 1.74-7.34 7.07-5.6 11.9ZM211.68 72.31c1.23 3.41 4.98 5.17 8.39 3.94s5.17-4.98 3.95-8.39c-1.23-3.41-4.98-5.17-8.39-3.95-3.41 1.23-5.17 4.98-3.95 8.39ZM210.59 49.95c2.32-.84 3.53-3.4 2.69-5.72-.84-2.32-3.4-3.53-5.72-2.69-2.32.84-3.53 3.4-2.69 5.72.84 2.32 3.4 3.53 5.72 2.69ZM201.39 24.41c1.66-.6 2.52-2.43 1.92-4.08-.6-1.66-2.43-2.52-4.08-1.92-1.66.6-2.52 2.43-1.92 4.08.6 1.66 2.43 2.52 4.08 1.92ZM304 90.12c.11 0 .2-.06.31-.07.11 0 .2.06.3.06 5.13 0 9.3-4.16 9.3-9.3s-4.16-9.3-9.3-9.3c-.13 0-.23.07-.36.07-.12 0-.23-.07-.35-.07-5.13.03-9.27 4.21-9.25 9.35.03 5.14 4.21 9.28 9.35 9.25ZM303.85 61.5c.14 0 .25-.07.39-.08.13 0 .25.08.38.08 3.62 0 6.55-2.93 6.55-6.56s-2.93-6.56-6.55-6.56c-.15 0-.28.08-.42.09-.14 0-.27-.08-.42-.08-3.62.02-6.54 2.97-6.52 6.59.02 3.62 2.97 6.54 6.59 6.52ZM303.7 33.54c.16 0 .3-.08.46-.1.16.02.29.09.46.09 2.47 0 4.47-2 4.47-4.47s-2-4.47-4.47-4.47c-.17 0-.32.08-.49.1-.16-.02-.31-.09-.48-.09-2.47.01-4.46 2.02-4.45 4.49.01 2.47 2.02 4.46 4.49 4.44ZM303.56 6.39c.21 0 .34-.18.53-.22.2.04.32.22.53.22 1.76 0 3.19-1.43 3.19-3.19S306.38.01 304.62.01c-.22 0-.35.19-.55.23-.2-.04-.33-.22-.55-.22-1.76 0-3.18 1.45-3.17 3.21 0 1.76 1.45 3.18 3.21 3.17Z"></path></svg>