<svg data-name="Layer 1" xmlns="http://www.w3.org/2000/svg" viewBox="0 0 625.78 625.78"><path d="M311.38 237.78c-12.01-49.42 15.92-100.66 65.07-116.62a98.769 98.769 0 0 1 22.85-4.53c-12.36-35.88-46.33-61.69-86.41-61.69-50.51 0-91.46 40.95-91.46 91.46s40.14 90.57 89.95 91.38Z"></path><path d="M378.56 127.66c-47.53 15.43-73.71 66.08-59.16 113.68 15.48-9.56 33.11-14.59 51.43-14.59 31.42 0 61.18 15.15 79.62 40.54 4.69 6.46 8.37 13.33 11.27 20.41 30.37-22.83 44.47-63.15 32.08-101.31-15.6-48.04-67.19-74.34-115.24-58.74Z"></path><path d="M318.45 250.2c17.92 15.2 29.75 36.02 33.45 59.47 4.09 25.93-2.16 51.91-17.6 73.13a97.849 97.849 0 0 1-15.86 17.07c31.08 21.79 73.76 22.73 106.2-.82 40.88-29.68 49.95-86.87 20.28-127.75-29.37-40.46-85.68-49.7-126.46-21.11Z"></path><path d="M309.85 252.04c-15.08 36.68-50.68 60.84-90.83 60.84-10.31 0-20.56-1.63-30.46-4.85-7.59-2.47-14.6-5.87-21.11-9.89-11.17 36.31 1.12 77.23 33.56 100.83 40.85 29.71 98.05 20.68 127.76-20.17 29.39-40.41 20.82-96.79-18.92-126.76Z"></path><path d="M305.42 244.31c-50.71-3.84-90.82-46.23-90.82-97.91 0-8.01 1.07-15.75 2.88-23.21-37.95.63-73.04 24.94-85.45 63.06-15.64 48.03 10.61 99.64 58.64 115.29 47.54 15.48 98.54-10.12 114.74-57.22Z"></path><path d="M312.89 0C140.09 0 0 140.09 0 312.89s140.09 312.89 312.89 312.89 312.89-140.09 312.89-312.89S485.7 0 312.89 0Zm0 446.59c-111.26 0-201.45-90.19-201.45-201.45S201.64 43.7 312.89 43.7s201.45 90.19 201.45 201.45S424.15 446.6 312.89 446.6Z"></path></svg>