<svg xmlns="http://www.w3.org/2000/svg" width="622.4" viewBox="0 0 622.4 622.4" height="622.4" xml:space="preserve" style="enable-background:new 0 0 622.4 622.4"><path d="M200.8 101.1H91.1v5h114.7zM190.8 91.1H91.1v5h104.7zM381.7 126.9 283 28.2l-3.5 3.5 102.2 102.2zM381.7 84.6 304.1 7l-3.5 3.6 81.1 81zM381.7 98.7l-84.6-84.6-3.5 3.5 88.1 88.1zM381.7 112.8 290 21.1l-3.5 3.6 95.2 95.1zM70.5 240.7 0 311.2l3.5 3.5 74-74zM210.8 111.1H91.1v5h124.7zM230.7 131H91.1v5h144.6zM220.7 121H91.1v5h134.6zM84.6 240.7 7 318.2l3.6 3.5 81-81zM495.5 381.7l98.7-98.7-3.6-3.5-102.2 102.2zM531.2 91.1h-5v104.7l5-5zM523.7 381.7l84.6-84.6-3.6-3.5-88.1 88.1zM509.6 381.7l91.6-91.7-3.5-3.5-95.2 95.2zM381.7 70.5 311.2 0l-3.5 3.5 74 74zM501.3 91.1h-5v134.6l5-5zM521.2 91.1h-4.9v114.7l4.9-5zM491.3 91.1h-5v144.6l5-5zM511.3 91.1h-5v124.7l5-5zM618.8 307.7l-74 74h7.1l70.5-70.5zM421.5 521.2h109.7v-4.9H416.6zM431.5 531.2h99.7v-5H426.5zM240.7 523.7l84.6 84.6 3.5-3.6-88.1-88.1zM411.6 511.3h119.6v-5H406.6zM240.7 495.5l98.7 98.7 3.5-3.6-102.2-102.2zM240.7 509.6l91.6 91.6 3.5-3.5-95.1-95.2z"></path><path d="M481.4 386.7h-49.8v-5h49.8l35.2-35.2 35.2-35.2 35.2-35.2-35.2-35.2h-70.5l3.5 3.5-35.2 35.2-3.5-3.5 35.2-35.2V91.1h-49.8L381.7 141h5v49.8h-5V141l-35.2-35.2-35.2-35.2-35.2-35.2-35.2 35.2V141l3.5-3.5 35.2 35.2-3.5 3.5-35.4-35.2H91.1v49.8l49.8 49.8v-5h49.8v5H141l-35.2 35.2L70.6 311l-35.2 35.2 35.2 35.2H141l-3.5-3.5 35.2-35.2 3.5 3.5-35.2 35.5V531.1h49.8l49.8-49.8h-5v-49.8h5v49.8l35.2 35.2 35.2 35.2 35.2 35.2 35.2-35.2v-70.5l-3.5 3.5-35.2-35.2 3.5-3.5 35.2 35.2H530.8v-49.8L481 381.6v5.1zm66.9-79-35.2 35.2-3.5-3.5 35.2-35.2 3.5 3.5zm-7-7.1L506 335.8l-3.5-3.5 35.2-35.2 3.6 3.5zm-7.1-7L499 328.8l-3.5-3.5 35.2-35.2 3.5 3.5zm-7-7.1L492 321.7l-3.5-3.5 35.2-35.2 3.5 3.5zm-7.1-7-35.2 35.2-3.5-3.5 35.2-35.2 3.5 3.5zm-7-7.1-35.2 35.2-3.5-3.5 35.2-35.2 3.5 3.5zm-7.1-7-35.2 35.2-3.5-3.5 35.2-35.2 3.5 3.5zm-7-7.1-35.2 35.2-3.5-3.5 35.2-35.2 3.5 3.5zm-10.6-10.6 3.5 3.5-35.2 35.2-3.5-3.5 35.2-35.2zm-17-106.7h5v49.8h-5V141zm-10 0h5v49.8h-5V141zm-9.9 0h5v49.8h-5V141zm-10 0h5v49.8h-5V141zm-10 0h5v49.8h-5V141zM74 314.7l35.2-35.2 3.5 3.5-35.2 35.2-3.5-3.5zm7.1 7 35.2-35.2 3.5 3.5-35.2 35.2-3.5-3.5zm7 7.1 35.2-35.2 3.5 3.5-35.2 35.2-3.5-3.5zm7.1 7 35.2-35.2 3.5 3.5-35.2 35.2-3.5-3.5zm7 7.1 35.2-35.2 3.5 3.5-35.2 35.2-3.5-3.5zm7.1 7 35.2-35.2 3.5 3.5-35.2 35.2-3.5-3.5zm7 7.1 35.2-35.2 3.5 3.5-35.2 35.2-3.5-3.5zm7.1 7 35.2-35.2 3.5 3.5-35.2 35.2-3.5-3.5zm10.5 10.6-3.5-3.5 35.2-35.2 3.5 3.5-35.2 35.2zM151 481.4h-5v-49.8h5v49.8zm9.9 0h-5v-49.8h5v49.8zm10 0h-5v-49.8h5v49.8zm10 0h-5v-49.8h5v49.8zm9.9 0h-5v-49.8h5v49.8zM401.6 141h5v49.8h-5V141zm-10 0h5v49.8h-5V141zm-83.9-67 35.2 35.2-3.5 3.5-35.2-35.2 3.5-3.5zm-7.1 7.1 35.2 35.2-3.5 3.5-35.2-35.2 3.5-3.5zm-7 7 35.2 35.2-3.5 3.5L290 91.6l3.6-3.5zm-7.1 7.1 35.2 35.2-3.5 3.5L283 98.7l3.5-3.5zm-7 7 35.2 35.2-3.5 3.5-35.2-35.2 3.5-3.5zm-7.1 7.1 35.2 35.2-3.5 3.5-35.2-35.2 3.5-3.5zm-7 7 35.2 35.2-3.5 3.5-35.2-35.2 3.5-3.5zm-7.1 7.1 35.2 35.2-3.5 3.5-35.2-35.2 3.5-3.5zm-10.6 10.5 3.5-3.5 35.2 35.2-3.5 3.5-35.2-35.2zm-56.9 96.8H141v-5h49.8v5zm0-10H141v-5h49.8v5zm0-9.9H141v-5h49.8v5zm0-10H141v-5h49.8v5zm0-10H141v-5h49.8v5zm0-9.9H141v-5h49.8v5zm0-10H141v-5h49.8v5zm0-10H141v-5h49.8v5zm0-9.9H141v-5h49.8v5zm10 330.4h-5v-49.8h5v49.8zm10 0h-5v-49.8h5v49.8zm9.9 0h-5v-49.8h5v49.8zm10 0h-5v-49.8h5v49.8zm84 66.9-35.2-35.2 3.5-3.5 35.2 35.2-3.5 3.5zm7-7L286.5 506l3.5-3.5 35.2 35.2-3.5 3.6zm7.1-7.1L293.6 499l3.5-3.5 35.2 35.2-3.5 3.5zm7-7L300.6 492l3.5-3.5 35.2 35.2-3.5 3.5zm7.1-7.1-35.2-35.2 3.5-3.5 35.2 35.2-3.5 3.5zm7-7-35.2-35.2 3.5-3.5 35.2 35.2-3.5 3.5zm7.1-7.1-35.2-35.2 3.5-3.5 35.2 35.2-3.5 3.5zm7-7-35.2-35.2 3.5-3.5 35.2 35.2-3.5 3.5zm10.6-10.6-3.5 3.5-35.2-35.2 3.5-3.5 35.2 35.2zm36.3-135.9-58.4 58.4h-82.6l-58.4-58.4v-82.6l58.4-58.4h82.6l58.4 58.4v82.6zm5.7-161.7h-5V141h5v49.8zm9.9 0h-5V141h5v49.8zm54.9 285.6h-49.8v-5h49.8v5zm0-10h-49.8v-5h49.8v5zm0-10h-49.8v-5h49.8v5zm0-9.9h-49.8v-5h49.8v5zm0-10h-49.8v-5h49.8v5zm0-10h-49.8v-5h49.8v5zm0-9.9h-49.8v-5h49.8v5zm0-10h-49.8v-5h49.8v5zm0-10h-49.8v-5h49.8v5z"></path><path d="M401.6 501.3h129.6v-5H396.6zM611.8 300.6l-81.1 81.1h7.1l77.5-77.6zM391.6 491.3h139.6v-5H386.7zM131 531.2h5V386.7l-5 4.9zM126.9 240.7l-98.7 98.7 3.5 3.5 102.2-102.2zM101.1 531.2h5V416.6l-5 4.9zM240.7 537.8l77.5 77.5 3.5-3.5-81-81.1zM112.8 240.7l-91.7 91.6 3.6 3.5 95.1-95.1zM91.1 531.2h5V426.5l-5 5zM98.7 240.7l-84.6 84.6 3.5 3.5 88.1-88.1zM111.1 531.2h5V406.6l-5 5zM240.7 551.9l70.5 70.5 3.5-3.6-74-74zM121.1 531.2h4.9V396.6l-4.9 5z"></path></svg>