<svg xmlns="http://www.w3.org/2000/svg" width="600" viewBox="0 0 600 331.2" height="331.2" style="overflow:visible;enable-background:new 0 0 600 331.2" xml:space="preserve"><path d="M327.27 54.55h22.22c28.89 0 54.83 12.24 75.11 32.84l77.19 78.41H378.83v55.28H600L599.98 0h-55.29v128.93l-78.78-80C435.42 17.92 392.98 0 349.49 0H0v221.07h22.21c28.89 0 59.32-12.24 79.58-32.84l77.2-78.4H54.55V54.55h218.18l-.02 221.07h-55.29V146.7l-78.78 80c-30.5 30.99-72.93 46.03-116.43 46.03H0v58.47h600v-54.84H327.27V54.55z"></path></svg>