<svg xmlns="http://www.w3.org/2000/svg" width="618.8" viewBox="0 0 618.8 623.1" height="623.1" xml:space="preserve" style="enable-background:new 0 0 618.8 623.1"><path d="M352.3 510.3v112.8C503 601.5 618.8 471.9 618.8 315.3c0-61.9-18.1-119.6-49.3-168.1C440.3 216 352.3 352.8 352.3 510.3zM266.4 510.3v112.8C115.8 601.5 0 471.9 0 315.3c0-61.9 18.1-119.6 49.3-168.1C178.4 216 266.4 352.8 266.4 510.3zM431.2 122.5c0 67.6-54.8 122.5-122.5 122.5s-122.5-54.8-122.5-122.5S241.1 0 308.7 0s122.5 54.8 122.5 122.5z"></path></svg>