<svg data-name="Layer 1" xmlns="http://www.w3.org/2000/svg" viewBox="0 0 624.44 624.44"><path d="M444.84 487.4c-20.56-9.37-43.51-6.7-60.66 6.86 4.5-20.5-.55-41.98-14.08-59.41-14.17-18.25-34.91-28.66-57.01-28.66h-1.72c-22.12 0-42.87 10.41-57.04 28.66-13.53 17.43-18.58 38.91-14.08 59.41-17.15-13.56-40.09-16.23-60.66-6.86-21.56 9.82-34.85 30.35-34.67 53.55-.18 24.63 16.09 47.34 40.44 56.47 40.17 17.93 82.84 27.03 126.84 27.03s86.67-9.09 126.78-27c24.41-9.16 40.68-31.86 40.5-56.48.18-23.22-13.1-43.74-34.67-53.56Z"></path><path d="M483.95 354.4h-.02c-21.41 0-42.21 7.35-58.85 20.75 1.1-29.54-10.18-58.97-31.15-81.08-21.55-22.71-50.24-35.19-80.87-35.19h-.82c-30.97-.21-59.97 12.27-81.72 35.19-20.97 22.11-32.25 51.54-31.15 81.07-16.64-13.4-37.44-20.75-58.87-20.75-32.22.56-60.54 15.55-77.7 41.11-17.17 25.58-20.78 57.91-9.65 86.49 8.4 21.57 25.46 38.29 40.51 53.05 8.6 8.43 17.82 16.48 27.41 23.93l1.37-1.61c-5.59-5.18-11.55-13.05-18.7-24.69-19.9-38.68-4.1-74.97 20.38-93.77 24.36-18.71 63.35-24.54 95.54 4.63l2.19 1.98-.44-2.92c-3.07-20.58 1.31-42.58 12.02-60.36 16.51-27.58 46.71-44.7 78.8-44.7s62.28 17.13 78.8 44.7c10.71 17.78 15.1 39.77 12.03 60.36l-.44 2.92 2.19-1.98c32.18-29.16 71.17-23.33 95.53-4.63 24.48 18.8 40.28 55.08 20.42 93.7-7.19 11.71-13.14 19.58-18.73 24.76l1.37 1.61c9.59-7.45 18.81-15.5 27.41-23.93 15.06-14.76 32.12-31.49 40.51-53.05 11.12-28.58 7.51-60.91-9.66-86.49-17.16-25.56-45.47-40.55-77.7-41.11Z"></path><path d="M312.22 0C140.06 0 0 140.06 0 312.22c0 42.92 8.63 84.59 25.66 123.86l1.96-.78c-20.5-56.1 5.62-103.25 40.6-125.09 31.49-19.66 83.49-26.81 126.37 17.78l3.43 3.57-1.67-4.65c-13.09-36.4-6.81-77.79 16.81-110.72 23.5-32.77 60.57-51.95 99.09-51.17 38.52-.78 75.55 18.4 99.05 51.17 23.62 32.93 29.9 74.32 16.81 110.72l-1.67 4.65 3.43-3.57c42.87-44.59 94.87-37.45 126.37-17.78 34.98 21.84 61.1 68.99 40.6 125.09l1.96.78c17.02-39.26 25.66-80.94 25.66-123.86C624.44 140.06 484.38 0 312.22 0Z"></path></svg>