<svg data-name="Layer 1" xmlns="http://www.w3.org/2000/svg" viewBox="0 0 593.75 593.75"><path d="M592.27 327.28C610.48 129.81 457.57 0 296.87 0 196.81 0 80.84 56.07 30.4 166.59c39.36 66.74 81.92 108.18 131.24 130.36-23.62 12.65-50.33 32.96-87.46 65.69-10.91-35.23-11.81-67.55-8.83-96.17H1.48c-18.21 197.48 134.69 327.28 295.39 327.28 100.07 0 216.04-56.07 266.47-166.59-39.36-66.74-81.92-108.18-131.24-130.36 23.62-12.65 50.33-32.96 87.46-65.69 10.91 35.23 11.81 67.55 8.83 96.17h63.87ZM489.74 427.99S430.45 529.1 296.88 529.1c-93.32 0-155.89-46.06-191.58-101.11 0 0 61.35-100.9 191.58-100.9s192.86 100.9 192.86 100.9ZM296.88 266.64c-127.88 0-192.86-100.9-192.86-100.9S163.31 64.63 296.88 64.63c93.32 0 155.89 46.06 191.58 101.11 0 0-61.35 100.9-191.58 100.9Z"></path><circle cx="164.92" cy="165.75" r="37.37"></circle><circle cx="428.83" cy="428" r="37.37"></circle></svg>