<svg xmlns="http://www.w3.org/2000/svg" width="401.2" viewBox="0 0 401.2 606.8" height="606.8" xml:space="preserve" style="enable-background:new 0 0 401.2 606.8"><path d="M313.9 88.5C257.4 31.4 181.2 0 99.2 0 61.5 0 29.5 4.6 1.3 13.9L0 15.7v258.8s-.1 2 1.6 2c1.7 0 2.1-1.4 2.1-1.4 11.7-41 49.4-69.6 91.8-69.6 52.7 0 95.5 43.1 95.5 96.1 0 53-42.9 96.1-95.5 96.1-42.4 0-80.2-28.6-91.8-69.6 0 0-.2-1.1-2.1-1.1-2 0-1.6 1.6-1.6 1.6v262.6l1.3 1.8c28.1 9.4 60.2 13.9 97.9 13.9 81.9 0 158.2-31.4 214.7-88.5 56.3-56.8 87.3-133.2 87.3-214.9s-31-158.2-87.3-215z"></path><path d="M106.5 301.3c0-6.9-5.6-12.5-12.5-12.5s-12.5 5.6-12.5 12.5 5.6 12.5 12.5 12.5 12.5-5.6 12.5-12.5z"></path></svg>