<svg data-name="Layer 1" xmlns="http://www.w3.org/2000/svg" viewBox="0 0 610.77 581.74"><path d="M547.74 137.11h-35.21l.65-74.08C513.18 28.27 484.9 0 450.15 0H161.4c-34.76 0-63.03 28.27-63.03 62.9l-.65 74.21H63.03C28.28 137.11 0 165.38 0 200.14v318.58c0 34.76 28.28 63.03 63.03 63.03h42.12c34.75 0 63.03-28.27 63.03-63.03v-91.34c10.01 6.7 22.03 10.62 34.95 10.62h204.51c12.92 0 24.94-3.92 34.94-10.61v91.34c0 34.76 28.28 63.03 63.03 63.03h42.12c34.76 0 63.03-28.27 63.03-63.03V200.14c0-34.76-28.28-63.03-63.03-63.03ZM161.4 28.08h288.75c19.27 0 34.94 15.68 34.94 34.83l-.69 77.95c-24.34 8.73-41.83 31.97-41.83 59.28v80.28c-10.01-6.7-22.03-10.61-34.94-10.61h-204.5c-12.92 0-24.94 3.92-34.95 10.62v-80.28c0-27.53-17.77-50.93-42.41-59.49l.68-77.62c0-19.27 15.68-34.95 34.95-34.95Zm-21.3 490.64c0 19.27-15.68 34.95-34.94 34.95H63.03c-19.27 0-34.95-15.68-34.95-34.95V200.14c0-19.27 15.68-34.95 34.95-34.95h42.12c19.27 0 34.94 15.68 34.94 34.95v318.58Zm267.54-108.8H203.13c-19.27 0-34.95-15.68-34.95-34.95v-42.13c0-19.27 15.68-34.95 34.95-34.95h204.51c19.27 0 34.94 15.68 34.94 34.95v42.13c0 19.27-15.68 34.95-34.94 34.95Zm175.05 108.8c0 19.27-15.68 34.95-34.95 34.95h-42.12c-19.27 0-34.95-15.68-34.95-34.95V200.14c0-19.27 15.68-34.95 34.95-34.95h42.12c19.27 0 34.95 15.68 34.95 34.95v318.58Z"></path></svg>