<svg xmlns="http://www.w3.org/2000/svg" viewBox="0 0 548.95 642"><path d="M439.53 498.06c-13.8 6.16-29.92-.06-36.02-13.8-10.54-23.66-27.42-43.92-48.5-58.6-4.5-3.13-10.69.19-10.69 5.67v138.51c0 38.46-30.1 71.45-68.56 72.15-39.18.71-71.14-30.82-71.14-69.84V431.33c0-5.48-6.19-8.8-10.69-5.67-21.08 14.68-37.97 34.93-48.5 58.6-6.1 13.74-22.21 19.97-36.02 13.8-13.74-6.1-19.97-22.28-13.8-36.02 30.43-68.44 99.12-116.14 178.86-116.14s148.43 47.7 178.86 116.14c6.16 13.74-.06 29.92-13.8 36.02Z"></path><path d="M517.21 381.48c-13.8 0-25.55-8.86-29.92-21.19-30.82-87.83-114.47-150.81-212.82-150.81S92.46 272.46 61.65 360.29c-4.37 12.33-16.11 21.19-29.92 21.19-21.94 0-37.14-21.72-29.92-42.18 39.48-112.54 146.63-193.24 272.66-193.24s233.17 80.7 272.66 193.24c7.22 20.44-7.96 42.18-29.92 42.18Z"></path><circle cx="274.47" cy="67.41" r="67.41"></circle><circle cx="274.47" cy="278.87" r="58.98"></circle></svg>