<svg data-name="Layer 1" xmlns="http://www.w3.org/2000/svg" viewBox="0 0 573.32 600.71"><path d="M403.61 6.18v65.19h104.52v242.67c0 122.12-99.35 221.47-221.47 221.47-24.76 0-48.92-4.06-72.07-12.08 105.35-6.61 189.02-94.42 189.02-201.41V201.8C403.61 90.53 313.08 0 201.81 0 121.06 0 48.25 48.05 16.3 122.42l-2.17 5.05h73.11l1.08-1.6c25.51-38 67.93-60.68 113.49-60.68 63.02 0 118.25 44.43 132.73 105-36.84-32.3-83.55-49.96-132.73-49.96C94.25 120.22 6.43 203.48.37 310.42H0v3.62c0 .77.03 1.54.05 2.3l.05 1.63-.04 1.61c-.03.81-.06 1.62-.06 2.44 0 14.22 1.53 28.53 4.53 42.41C28.92 501.33 147.58 600.7 286.66 600.7c158.06 0 286.66-128.6 286.66-286.66V6.18H403.61Zm-201.8 179.23c75.33 0 136.62 61.28 136.62 136.62s-61.28 136.62-136.62 136.62c-63.93 0-120.08-45.38-133.49-107.74-1.74-10.35-2.74-20.99-2.99-31.48 1.4-73.9 62.63-134.02 136.48-134.02Z"></path></svg>