<svg id="Layer_1" data-name="Layer 1" xmlns="http://www.w3.org/2000/svg" viewBox="0 0 540.19 613.87">   <path d="M270.09,0c-26.81,0-50.54,12.99-65.38,32.97-2.31,3.11-3.61,6.86-3.61,10.74V119.29c0,3.88,1.3,7.63,3.61,10.74,14.84,19.99,38.57,32.97,65.38,32.97s50.54-12.99,65.38-32.97c2.31-3.11,3.61-6.86,3.61-10.74V43.71c0-3.88-1.3-7.63-3.61-10.74C320.63,12.99,296.9,0,270.09,0Z"></path>   <path d="M389.97,317.02l150.22-182.79-261.54,43.63c-5.66,.94-11.45,.94-17.11,0L0,134.23l150.22,182.79c3.52,4.28,4.8,9.99,3.45,15.37l-70.6,281.49,180.4-178.31c3.67-3.63,9.58-3.63,13.25,0l180.4,178.31-70.6-281.49c-1.35-5.38-.07-11.08,3.45-15.37Z"></path> </svg>