<svg data-name="Layer 1" xmlns="http://www.w3.org/2000/svg" viewBox="0 0 586.04 586.04"><path d="M586.04 0H0v586.04h586.04V0ZM20.05 20.05h545.94v360.38c-18.99-26.06-49.66-43.1-84.31-43.1s-65.66 17.22-84.63 43.53c-3.38-54.52-48.68-97.87-104.03-97.87s-100.66 43.35-104.03 97.87c-18.97-26.31-49.79-43.53-84.63-43.53s-65.31 17.04-84.31 43.1V20.05Zm357.27 545.94h-168.6V387.35c0-46.49 37.81-84.3 84.3-84.3s84.3 37.81 84.3 84.3v178.64ZM20.05 441.69c0-46.49 37.81-84.3 84.3-84.3s84.3 37.81 84.3 84.3v124.3H20.05v-124.3Zm545.94 124.3h-168.6v-124.3c0-46.49 37.81-84.3 84.3-84.3s84.3 37.81 84.3 84.3v124.3Z"></path><path d="M293.02 252.31c53.54 0 97.08-43.56 97.08-97.1s-43.55-97.08-97.08-97.08-97.08 43.55-97.08 97.08 43.55 97.1 97.08 97.1Z"></path></svg>