<svg xmlns="http://www.w3.org/2000/svg" width="444.1" viewBox="0 0 444.1 614.8" height="614.8"><path d="M77.1 405.6l137.7-114.2c2.1-1.7 4.7-2.4 7.3-2.2 2.6-.2 5.2.5 7.3 2.2L367 405.6c21.1 17.5 48.2 18.7 65.7-2.4 17.5-21.1 14.6-60.6-6.5-78.1L229.3 162.5c-2.1-1.7-4.7-2.4-7.3-2.2-2.6-.2-5.2.5-7.3 2.2L17.9 325.1c-21.1 17.5-24 57-6.5 78.1 17.5 21.1 44.7 19.9 65.7 2.4z"></path><path d="M77.1 259.1l137.7-114.2c2.1-1.7 4.7-2.4 7.3-2.2 2.6-.2 5.2.5 7.3 2.2L367 259.1c21.1 17.5 48.2 18.7 65.7-2.4 7.6-9.1 10.9-21.7 10.6-34.5V49.6c0-27.4-22.2-49.6-49.6-49.6-27.4 0-49.6 22.2-49.6 49.6v62.2L229.3 16c-2.1-1.7-4.7-2.4-7.3-2.2-2.6-.2-5.2.5-7.3 2.2L20 178.6c-21.1 17.5-26.1 57-8.6 78.1 17.5 21.1 44.7 19.8 65.7 2.4zM426.2 469.5L229.3 309c-2.1-1.7-4.7-2.4-7.3-2.2-2.6-.2-5.2.5-7.3 2.2L17.9 469.5c-21.1 17.5-24 59.1-6.5 80.2s44.6 19.9 65.7 2.4l94.4-78.3v91.4c0 27.4 22.2 49.6 49.6 49.6h1.8c27.4 0 49.6-22.2 49.6-49.6v-91.4l94.4 78.3c21.1 17.5 48.2 18.7 65.7-2.4 17.6-21.1 14.7-62.7-6.4-80.2z"></path></svg>