<svg id="Layer_1" data-name="Layer 1" xmlns="http://www.w3.org/2000/svg" viewBox="0 0 609.6 492.25">   <path d="M247.24,38.87c-10.69,0-19.38,8.7-19.38,19.38s8.7,19.38,19.38,19.38,19.38-8.7,19.38-19.38-8.7-19.38-19.38-19.38Z"></path>   <path d="M381.75,58.26c0-10.69-8.7-19.38-19.38-19.38s-19.38,8.7-19.38,19.38,8.7,19.38,19.38,19.38,19.38-8.7,19.38-19.38Z"></path>   <path d="M592.92,482.59c-25.73,0-46.59-20.86-46.59-46.59V56.31c0-25.73,20.86-46.59,46.59-46.59h16.69V.06L0,0V9.66l16.74,.06c25.73,0,46.59,20.86,46.59,46.59l-.06,379.69c0,25.73-20.86,46.59-46.59,46.59H0v9.66H258.98v-9.66h-16.68c-25.73,0-46.59-20.86-46.59-46.59l.06-200.27h218.14v200.27c0,25.73-20.86,46.59-46.59,46.59h-16.69v9.66h258.98v-9.66h-16.69ZM247.24,106.8c-26.76,0-48.54-21.78-48.54-48.54s21.78-48.54,48.54-48.54,48.54,21.78,48.54,48.54-21.78,48.54-48.54,48.54Zm57.56-40.39c2.19,15.51,10.49,29.04,22.4,38.12h-44.8c11.92-9.08,20.21-22.61,22.4-38.12Zm9.02-8.15c0-26.76,21.78-48.54,48.54-48.54s48.54,21.78,48.54,48.54-21.78,48.54-48.54,48.54-48.54-21.78-48.54-48.54Zm16.5-48.54c-13.59,9-23.15,23.55-25.52,40.39-2.38-16.84-11.93-31.39-25.52-40.39h51.05ZM195.76,226.07V85.33c9.76,18.48,29.16,31.13,51.48,31.13,11.27,0,21.77-3.27,30.69-8.84l26.87,43.16,26.87-43.16c8.92,5.57,19.42,8.84,30.69,8.84,22.37,0,41.8-12.7,51.54-31.25V226.07H195.76Z"></path> </svg>