<svg data-name="Layer 1" xmlns="http://www.w3.org/2000/svg" viewBox="0 0 620.01 620.01"><path d="M226.14 211.81 310 258.96l-.55-75.83 6.97 17.15 45.45-86.62 213.09.18-10.21-25.13H351.64l-42.29 80.58-.26-35.28 33.95-64.7 213.9.17-10.21-25.12H332.81l-24.04 45.81-.26-35.15 15.78-30.07 214.63.18L528.71 0H314.06L294.2 37.85 224 .26l2.14 211.55zM243.67 285.96l-85.66-44.95.18-213.98-25.12 10.21v214.01l85.55 44.89 25.05-10.18z"></path><path d="m288.89 267.59-83.86-46.82-2.48-211.76-25.13 10.21v213.2l86.42 45.35 25.05-10.18zM323.87 218.62l10.18 25.05L379 158.01l213.98.18-10.21-25.13H368.76l-44.89 85.56z"></path><path d="m342.24 263.84 10.18 25.06 46.82-83.87L611 202.55l-10.21-25.13h-213.2l-45.35 86.42zM393.87 408.2 310 361.05l.56 75.83-6.97-17.15-45.45 86.62-213.09-.18 10.21 25.13h213.11l42.29-80.58.26 35.28-33.95 64.7-213.9-.17 10.21 25.12H287.2l24.04-45.81.26 35.15-15.78 30.07-214.63-.18 10.21 25.13h214.65l19.86-37.85 70.2 37.59-2.14-211.55z"></path><path d="m582.16 294.2 37.58-70.2-211.54 2.14L361.05 310l75.83-.55-17.15 6.97 86.62 45.45-.18 213.09 25.13-10.21V351.64l-80.58-42.29 35.28-.26 64.71 33.95-.18 213.9 25.12-10.21V332.81l-45.81-24.04 35.15-.26 30.07 15.78-.18 214.63 25.13-10.21V314.06l-37.85-19.86z"></path><path d="M376.34 334.05 462 379l-.18 213.98 25.12-10.21V368.76l-85.55-44.89-25.05 10.18z"></path><path d="m331.11 352.42 83.87 46.82L417.46 611l25.13-10.21v-213.2l-86.42-45.35-25.06 10.18zM211.81 393.87 258.96 310l-75.84.56 17.16-6.97-86.62-45.45.18-213.09-25.13 10.21v213.11l80.58 42.29-35.28.26-64.71-33.95.18-213.9-25.12 10.21V287.2l45.81 24.04-35.15.26-30.07-15.78.18-214.63L0 91.3v214.65l37.85 19.86-37.58 70.2 211.54-2.14zM296.14 401.39l-10.18-25.05L241.01 462l-213.98-.18 10.21 25.12h214.01l44.89-85.55z"></path><path d="m277.77 356.17-10.18-25.06-46.82 83.87-211.76 2.48 10.21 25.13h213.2l45.35-86.42z"></path></svg>