<svg xmlns="http://www.w3.org/2000/svg" width="613.7" viewBox="0 0 613.7 546.3" height="546.3" xml:space="preserve"><path d="M557.8 182.3c-30.8 0-55.9 25-55.9 55.9v124.2L339.8 202.8c-21.7-21.7-58.5-21.8-80.3-.3L16.6 446.2c-16.1 15.9-21 40-12.4 61s29 35.5 51.7 35.5h245.3c30.7 0 56.3-25.2 56.7-55.9.4-31.2-24.8-56.6-55.8-56.6H184.7l92.7-93.5c12.8-13 33.8-12.8 46.5.4 0 0 193.1 191.9 194.3 192.8 10.1 10.2 24.1 16.5 39.6 16.5 30.8 0 55.9-25 55.9-55.9V238.2c0-30.9-25-55.9-55.9-55.9z"></path><circle cx="557.8" cy="55.9" r="55.9"></circle></svg>