<svg data-name="Layer 1" xmlns="http://www.w3.org/2000/svg" viewBox="0 0 618.7 563.45"><path d="M618.7 536.45 309.35 0 0 536.16 309.35 39.94 618.7 536.45z"></path><path d="m22.75 541.23 286.6-414.18 287.31 414.31L309.35 83.59 22.75 541.23z"></path><path d="m43.78 545.92 265.57-331.46 265.77 331.7-265.77-375.49L43.78 545.92z"></path><path d="m62.54 550.1 246.81-248.39 246.78 248.68-246.78-292.31L62.54 550.1z"></path><path d="m83.99 554.87 225.36-165.92 225.62 166.16-225.62-209.78L83.99 554.87z"></path><path d="m100.79 558.62 208.56-82.42 208.57 82.7-208.57-126.32-208.56 126.04z"></path><path d="M122.48 563.45h373.74l-186.87-43.63-186.87 43.63z"></path></svg>