<svg xmlns="http://www.w3.org/2000/svg" width="485.9" viewBox="0 0 485.9 606.2" height="606.2" xml:space="preserve"><path d="M479.7 255.6c-4-14.9-9.9-29.3-17.6-42.8-15.1-26.6-36.8-49.1-62.8-65.2l-.3-.2-95.5 95.5V127.3h-.4c-23.7 0-46.8 4.6-68.4 13.8-20.9 8.9-39.7 21.5-55.9 37.7s-28.8 35-37.7 55.9c-9.2 21.7-13.8 44.7-13.8 68.4 0 30.8 8.1 61 23.3 87.5 14.8 25.7 36 47.5 61.4 62.9l.3.2 90.4-90.4v121.8c-33.8-.1-66.7-9.5-95.3-27.2-25.9-16-47.5-38.5-62.5-64.9-7.6-13.4-13.5-27.7-17.5-42.6-4.1-15.3-6.2-31.2-6.2-47.2 0-24.6 4.8-48.4 14.3-70.8 9.2-21.7 22.3-41.1 39-57.8 16.7-16.7 36.2-29.8 57.8-39 22.4-9.5 46.3-14.3 70.8-14.3h.4V0h-.4c-40.9 0-80.6 8-118 23.8-36.1 15.3-68.5 37.1-96.3 65-27.8 27.8-49.7 60.2-65 96.3C8 222.5 0 262.2 0 303.1c0 24.2 2.9 48.4 8.5 71.7 5.5 22.7 13.7 44.7 24.3 65.5 10.4 20.5 23.2 39.8 38 57.4 14.7 17.5 31.4 33.4 49.7 47.2 25.8 19.5 54.2 34.6 84.7 45 31.5 10.7 64.4 16.2 98 16.2h.4V485.9c24.5-.1 48.3-4.9 70.7-14.4 21.8-9.2 41.3-22.4 58.1-39.2 16.8-16.8 30-36.3 39.2-58.1 9.5-22.5 14.4-46.5 14.4-71.2-.1-16-2.2-32-6.3-47.4zm-235.3 47.5c0-32.4 26.3-58.7 58.7-58.7 32.4 0 58.7 26.3 58.7 58.7s-26.3 58.7-58.7 58.7c-32.4 0-58.7-26.3-58.7-58.7z"></path></svg>