<svg xmlns="http://www.w3.org/2000/svg" width="593.1" viewBox="0 0 593.1 273.7" height="273.7"><circle cx="40.7" cy="233" r="40.7"></circle><path d="M464.8 88.8c0 22.5-18.2 40.7-40.7 40.7-22.5 0-40.7-18.2-40.7-40.7H0v96.1h127.8c0-22.5 18.2-40.7 40.7-40.7s40.7 18.2 40.7 40.7h383.9V88.8H464.8zm-168.5 88.7c-22.5 0-40.7-18.2-40.7-40.7s18.2-40.7 40.7-40.7c22.5 0 40.7 18.2 40.7 40.7s-18.2 40.7-40.7 40.7zM168.5 225.6c22.5 0 40.7-18.2 40.7-40.7h-81.4c0 22.5 18.2 40.7 40.7 40.7z"></path><path d="M424.1 48.1c-22.5 0-40.7 18.2-40.7 40.7h81.4c0-22.5-18.3-40.7-40.7-40.7z"></path><circle cx="551.9" cy="40.7" r="40.7"></circle></svg>