<svg data-name="Layer 1" xmlns="http://www.w3.org/2000/svg" viewBox="0 0 634.79 634.79"><path d="M509.51 60.65H304.67l-114.1 114.11v75.46l70-70h.04v-.01h.12l63.67-63.67 169.77.07L572 194.45v-71.31l-62.49-62.49z"></path><path d="M574.13 509.51V305.06c0-.25-.1-.49-.27-.66L460.03 190.57h-75.46l70 70v.16l63.67 63.67-.07 169.77L440.34 572h71.31l62.49-62.49Z"></path><path d="M454.46 275.1v189.27l-120.09 120-110.08-.01 50.42 50.43h88.38l144.84-144.85V328.57l-53.47-53.47z"></path><path d="M634.79 271.7 489.94 126.85H328.57l-53.36 53.36 189.16.11 119.99 120.1v110.07l50.42-50.42V271.7Zm-49.02 27.41ZM125.27 574.13h204.85l114.1-114.1v-75.46L310.38 518.25l-169.77-.08-77.83-77.83v71.3l62.49 62.49z"></path><path d="M126.85 144.85v161.36l53.36 53.36v-99l.03-.03.08-.08v-90.05l120.1-119.99h110.07L360.07 0H271.7L126.85 144.85z"></path><path d="M60.65 125.27v204.84l114.11 114.11h75.46L116.54 310.38l.07-169.77 77.84-77.83h-71.31l-62.49 62.49z"></path><path d="m260.58 454.57-.04-.03-.08-.08h-90.05L50.42 334.36V224.29L0 274.71v88.38l144.84 144.84h161.37l53.47-53.47-99.1.11zM585.76 299.11v-.01.01z"></path></svg>