<svg data-name="Layer 1" xmlns="http://www.w3.org/2000/svg" viewBox="0 0 621.13 567.05"><path d="M621.13 104.78C621.13 47.44 574.48.8 517.15.8c-53.3 0-97.31 40.33-103.24 92.06C408.15 40.94 364.03.41 310.6.41s-97.45 40.45-103.28 92.3C201.68 40.66 157.5 0 103.98 0 46.64 0 0 46.64 0 103.98s46.64 103.98 103.98 103.98c15.62 0 30.4-3.56 43.7-9.76-12.34 8.63-22.81 19.84-30.54 33.29-13.84 24.08-17.48 52.11-10.25 78.92 7.24 26.82 24.48 49.2 48.56 63.05 15.99 9.19 33.71 13.89 51.66 13.89 9.09 0 18.25-1.2 27.26-3.64 6.19-1.67 12.12-3.93 17.79-6.63-12.87 8.73-23.76 20.25-31.75 34.13-13.84 24.07-17.48 52.1-10.25 78.92 7.24 26.82 24.48 49.21 48.56 63.05 15.99 9.19 33.71 13.89 51.66 13.89 9.09 0 18.25-1.2 27.26-3.64 26.82-7.24 49.21-24.48 63.05-48.56 13.84-24.08 17.48-52.11 10.25-78.92-6.35-23.5-20.38-43.6-39.96-57.53 13.53 6.15 28.02 9.33 42.67 9.33 9.09 0 18.25-1.2 27.26-3.64 26.82-7.24 49.21-24.48 63.05-48.56 13.84-24.08 17.48-52.11 10.25-78.92-6.23-23.07-19.89-42.82-38.91-56.71 12.81 5.66 26.95 8.86 41.83 8.86 57.33 0 103.98-46.64 103.98-103.98ZM307.68 256.23c-6.23-23.07-19.89-42.82-38.91-56.72 12.81 5.66 26.95 8.86 41.83 8.86s30.18-3.51 43.42-9.62c-12.25 8.61-22.64 19.77-30.32 33.14-7.2 12.52-11.57 26.1-13.16 40.03-.59-5.25-1.46-10.49-2.86-15.68Zm79.07-72.9c-5.7 1.54-11.14 3.62-16.4 6.03 23.64-16.67 40.04-42.9 43.5-73.05 3.29 29.68 19.16 55.56 42.11 72.35-21.74-9.68-45.93-11.61-69.2-5.34Zm-179.49-67.67c3.23 29.79 19.13 55.76 42.15 72.6-21.74-9.68-45.93-11.61-69.21-5.34-5.77 1.56-11.29 3.67-16.61 6.12 23.78-16.71 40.26-43.08 43.67-73.38Zm90.17 219.48c7.2-12.51 11.57-26.1 13.16-40.03.59 5.25 1.46 10.49 2.86 15.68 6.32 23.41 20.27 43.45 39.73 57.37-21.86-9.87-46.25-11.86-69.71-5.54-6.19 1.67-12.11 3.93-17.78 6.63 12.87-8.73 23.76-20.24 31.74-34.12Z"></path></svg>