<svg xmlns="http://www.w3.org/2000/svg" width="618.3" viewBox="0 0 618.3 618.3" height="618.3" xml:space="preserve" style="enable-background:new 0 0 618.3 618.3"><path d="M431.3 431.4H187V218.3H13.6C4.8 247 0 277.5 0 309.2c0 170.7 138.4 309.1 309.2 309.1 43.4 0 84.7-9 122.1-25.1V431.4zM187 187h244.4v215.6h172.5c9.3-29.5 14.4-60.8 14.4-93.4C618.3 138.4 479.9 0 309.2 0 265.7 0 224.4 9 187 25.1V187z"></path><path d="M403.1 309.1c0 51.9-42.1 94-94 94s-94-42.1-94-94 42.1-94 94-94c52 0 94 42.1 94 94z"></path></svg>