<svg xmlns="http://www.w3.org/2000/svg" width="609.2" viewBox="0 0 609.2 609.2" height="609.2" style="enable-background:new 0 0 609.2 609.2" xml:space="preserve"><path d="m60.9 445.3 76.2-131.9h162.5l149.7 259.4c95.3-51.5 160-152.3 160-268.1 0-60.2-17.5-116.4-47.7-163.7l-94.5 163.7 81.2 140.7H396l-81.2-140.7L464.5 45.3C418 16.6 363.3 0 304.6 0 187.1 0 85.2 66.5 34.4 163.9h189l81.2-140.7 76.2 131.9-81.2 140.7H.1c-.1 2.9-.1 5.9-.1 8.8 0 168.2 136.4 304.6 304.6 304.6 4.4 0 8.9-.1 13.2-.3l-94.5-163.6H60.9z" style="fill-rule:evenodd;clip-rule:evenodd"></path></svg>