<svg id="Layer_1" data-name="Layer 1" xmlns="http://www.w3.org/2000/svg" viewBox="0 0 544.48 612.17"><defs></defs><path class="cls-1" d="M211.64 147.17c5.7 0 10.97-3.02 13.85-7.94l59.97-102.38c3.98-6.79 11.26-10.96 19.13-10.96h31.48C319.55 9.87 297.06 0 272.24 0c-50.65 0-91.71 41.06-91.71 91.71 0 20.85 6.97 40.06 18.68 55.46h12.42Z"></path><path class="cls-1" d="M392.17 458.22c5.7 0 10.97-3.02 13.85-7.94l59.97-102.38c3.98-6.79 11.26-10.96 19.13-10.96h31.48c-16.51-16.01-39.01-25.89-63.83-25.89-10.35 0-20.29 1.74-29.57 4.9 19.01-16.8 31.01-41.35 31.01-68.72 0-23.46-8.82-44.85-23.31-61.07h-1.33c-5.7 0-10.97 3.02-13.85 7.94l-59.97 102.38c-3.98 6.79-11.26 10.96-19.13 10.96h-43.26c2.65 3.04 5.51 5.87 8.53 8.54-9.3-3.18-19.27-4.93-29.66-4.93s-20.29 1.74-29.57 4.9c15.19-13.43 25.88-31.8 29.57-52.61 2.59 14.6 8.61 28.01 17.24 39.35h12.42c5.7 0 10.97-3.02 13.85-7.94l59.97-102.38c3.98-6.79 11.26-10.96 19.13-10.96h31.48c-16.51-16.01-39.01-25.89-63.83-25.89-10.35 0-20.29 1.74-29.57 4.9 19.01-16.8 31.01-41.35 31.01-68.72 0-23.46-8.82-44.85-23.31-61.07h-1.33c-5.7 0-10.97 3.02-13.85 7.94l-59.97 102.38c-3.98 6.79-11.26 10.96-19.13 10.96h-43.26c2.65 3.04 5.51 5.87 8.53 8.54-9.3-3.18-19.27-4.93-29.66-4.93-50.65 0-91.71 41.06-91.71 91.71 0 20.85 6.97 40.06 18.68 55.46h12.42c5.7 0 10.97-3.02 13.85-7.94l59.97-102.38c3.98-6.79 11.26-10.96 19.13-10.96h31.48c-1.01-.98-2.04-1.93-3.1-2.87 9.27 3.16 19.2 4.87 29.54 4.87s20.29-1.74 29.57-4.9c-15.18 13.42-25.87 31.78-29.56 52.57-3.04-17.07-10.79-32.51-21.87-44.92h-1.33c-5.7 0-10.97 3.02-13.85 7.94L175.2 296.48c-3.98 6.79-11.26 10.96-19.13 10.96h-43.26c2.65 3.04 5.51 5.87 8.53 8.54-9.3-3.18-19.27-4.93-29.66-4.93C41.06 311.06 0 352.12 0 402.76c0 20.85 6.97 40.06 18.68 55.46H31.1c5.7 0 10.97-3.02 13.85-7.94l59.97-102.38c3.98-6.79 11.26-10.96 19.13-10.96h31.48c-1.01-.98-2.04-1.93-3.1-2.87 9.27 3.16 19.2 4.87 29.54 4.87s20.29-1.74 29.57-4.9c-15.18 13.42-25.87 31.78-29.56 52.57-3.04-17.07-10.79-32.51-21.87-44.92h-1.33c-5.7 0-10.97 3.02-13.85 7.94L84.96 452.01c-3.98 6.79-11.26 10.96-19.13 10.96H22.57c13.09 15.02 30.99 25.71 51.3 29.72v119.47h32.79V493.23c38.28-6.28 68.56-36.25 75.32-74.36 2.59 14.6 8.61 28.01 17.24 39.35h12.42c5.7 0 10.97-3.02 13.85-7.94l59.97-102.38c3.98-6.79 11.26-10.96 19.13-10.96h31.48c-1.01-.98-2.04-1.93-3.1-2.87 9.27 3.16 19.2 4.87 29.54 4.87s20.29-1.74 29.57-4.9c-15.18 13.42-25.87 31.78-29.56 52.57-3.04-17.07-10.79-32.51-21.87-44.92h-1.33c-5.7 0-10.97 3.02-13.85 7.94L265.5 452.01c-3.98 6.79-11.26 10.96-19.13 10.96h-43.26c13.71 15.73 32.69 26.74 54.19 30.27v118.92h32.79V492.71c36.91-7.28 65.84-36.69 72.43-73.85 2.59 14.6 8.61 28.01 17.24 39.35h12.42Z"></path><path class="cls-1" d="M544.48 402.76c0-23.46-8.82-44.85-23.31-61.07h-1.33c-5.7 0-10.97 3.02-13.85 7.94l-59.97 102.38c-3.98 6.79-11.26 10.96-19.13 10.96h-43.26c13.12 15.06 31.08 25.76 51.45 29.75v119.44h32.79V493.2c43.46-7.2 76.6-44.95 76.6-90.45Z"></path></svg>