<svg xmlns="http://www.w3.org/2000/svg" width="507.7" viewBox="0 0 507.7 608.2" height="608.2" xml:space="preserve"><path d="M253.9 93.6c-31.7 0-57.3 25.7-57.3 57.3 0 31.7 25.7 57.3 57.3 57.3 31.7 0 57.3-25.7 57.3-57.3 0-31.6-25.7-57.3-57.3-57.3z"></path><path d="M507.7 252.6C507.7 113.9 393.2 0 253.9 0 114.5 0 0 113.9 0 252.6c0 11.6.8 23 2.3 34.2h168.2l-147 321.4h81.8l58.5-126.7c22.6 8.5 46.8 13.8 72.1 15.5h33.9c25.4-1.7 49.8-7.1 72.6-15.7l58 127h80.4L335.2 286.8h170.1c1.6-11.2 2.4-22.6 2.4-34.2zM252.9 424.9c-20.5 0-40.1-3.4-58.4-9.7l59.2-128.3L312.2 415c-18.6 6.4-38.6 9.9-59.3 9.9zM79.7 213.6c18.2-79.8 88.4-138 174.2-138s156 58.1 174.2 138H79.7z"></path></svg>