<svg xmlns="http://www.w3.org/2000/svg" width="591.6" viewBox="0 0 591.6 580.4" height="580.4" xml:space="preserve"><path d="M7.3 498.7c-4.6 7.8-7.3 17-7.3 26.8 0 29.2 23.7 52.9 52.9 52.9s52.9-23.7 52.9-52.9c0-9.3-2.4-18-6.6-25.5l-30.6-52.5c-14.5-24.9-6.1-56.8 18.8-71.3s56.8-6.1 71.3 18.8l93.6 159.6c14.5 24.9 46.4 33.3 71.3 18.8 24.9-14.5 33.3-46.4 18.8-71.3L188.9 237.9c-14.5-24.9-6.1-56.8 18.8-71.3s56.8-6.1 71.3 18.8l133.5 228.9 81.9 140.3c14.5 24.9 46.4 33.3 71.3 18.8 24.9-14.5 33.3-46.4 18.8-71.3L295.8 0 7.3 498.7z"></path></svg>