<svg data-name="Layer 1" xmlns="http://www.w3.org/2000/svg" viewBox="0 0 623.81 607.71"><path d="M228.59 303.85c0-87.12-166.8-141.84-197.78-141.84C11.05 204.44 5.06 226.58 0 261.48c31.34 0 172.49 15.58 172.49 42.37S31.34 346.22 0 346.22c5.06 34.9 11.05 57.04 30.81 99.47 30.93 0 197.78-54.72 197.78-141.84Z"></path><path d="M96.82 73.95c9.66 8.38 148.89 69.06 148.89 229.91S106.53 525.39 96.82 533.77c35.89 31.67 75.18 58.66 134.82 73.95 5.82-5.84 68.24-143.06 68.24-303.85S237.46 5.84 231.64 0c-59.65 15.29-98.93 42.27-134.82 73.95ZM378.11 303.85c0-160.8 139.24-221.53 148.89-229.91C491.1 42.27 451.82 15.29 392.17 0c-5.82 5.84-68.24 143.06-68.24 303.85s62.42 298.02 68.24 303.85c59.65-15.29 98.93-42.27 134.82-73.95-9.65-8.38-148.89-69.11-148.89-229.91Z"></path><path d="M451.33 303.85c0-26.79 141.14-42.37 172.49-42.37-5.06-34.9-11.05-57.04-30.81-99.47-30.93 0-197.78 54.72-197.78 141.84s166.85 141.84 197.78 141.84c19.76-42.43 25.75-64.57 30.81-99.47-31.34 0-172.49-15.58-172.49-42.37Z"></path></svg>