<svg data-name="Layer 1" xmlns="http://www.w3.org/2000/svg" viewBox="0 0 616.78 616.78"><path d="M526.45 90.32C468.21 32.08 390.77 0 308.39 0S148.57 32.08 90.32 90.32C32.08 148.57 0 226.02 0 308.39s32.08 159.82 90.32 218.06c58.25 58.25 135.69 90.33 218.07 90.33s159.82-32.08 218.06-90.33c58.24-58.24 90.33-135.69 90.33-218.06S584.7 148.57 526.45 90.32ZM119.06 510.15l163.17-163.17c13.01-13 34.16-13 47.16 0s13 34.15 0 47.15l-88.98 88.98c-6.18 6.18-6.18 16.19 0 22.37 6.17 6.18 16.19 6.18 22.37 0l88.98-88.98c6.26-6.26 14.64-9.71 23.58-9.71s17.31 3.45 23.57 9.71c6.26 6.26 9.71 14.64 9.71 23.58s-3.45 17.32-9.71 23.58l-88.98 88.98c-6.18 6.17-6.18 16.19 0 22.37 3.09 3.09 7.13 4.63 11.18 4.63s8.09-1.54 11.18-4.63l88.98-88.98c13-13.01 34.15-13 47.15 0 6.26 6.26 9.71 14.64 9.71 23.57s-3.45 17.32-9.71 23.58c-.72.72-1.34 1.51-1.9 2.32-46.06 32.22-100.75 49.64-158.14 49.64-70.98 0-137.84-26.61-189.34-75Zm389.8-11.07c-2.16-13.37-8.34-25.69-18.06-35.42-12.23-12.23-28.55-18.97-45.94-18.97-1.62 0-3.21.12-4.81.23 1.35-18.21-4.87-36.89-18.77-50.79-13.88-13.88-32.54-20.11-50.75-18.77 1.34-18.2-4.88-36.87-18.77-50.75-24.38-24.39-63.46-25.23-88.95-2.66v-42.24c61.08-6.18 111.84-47.29 131.86-103.12-1.18-.03-2.35-.09-3.53-.09-64.7 0-120.17 39.17-144.22 95.05-24.05-55.88-79.52-95.05-144.22-95.05-1.19 0-2.35.06-3.53.09 20.04 55.88 70.86 97.01 132.01 103.14v73.57L97.25 487.23C54.82 437.3 31.64 374.65 31.64 308.39c0-73.92 28.79-143.42 81.06-195.7 52.27-52.27 121.77-81.06 195.69-81.06s143.42 28.79 195.69 81.06c52.27 52.28 81.06 121.78 81.06 195.7s-27.09 139.02-76.29 190.69Z"></path></svg>