<svg data-name="Layer 1" xmlns="http://www.w3.org/2000/svg" viewBox="0 0 625.35 520.45"><path d="M562.58 198.97V0C449.62 19.95 361.65 112.14 348.1 227.18h186.27c15.58 0 28.22-12.63 28.22-28.22ZM598.71 487.94V296.32c0-28.97-23.49-52.46-52.46-52.46H346.61c-.26 4.74-.4 9.52-.4 14.33 0 144.85 117.42 262.27 262.27 262.27 5.67 0 11.29-.24 16.87-.6-15.09-2.8-26.64-16.05-26.64-31.92ZM90.98 227.18h186.27C263.69 112.14 175.73 19.95 62.77 0v198.97c0 15.58 12.63 28.22 28.22 28.22ZM79.1 243.86c-28.97 0-52.46 23.49-52.46 52.46v191.62c0 15.87-11.54 29.12-26.64 31.92 5.58.35 11.2.6 16.87.6 144.85 0 262.27-117.42 262.27-262.27 0-4.81-.15-9.58-.4-14.33H79.1ZM297.44 330.08c0 31.88 5.7 62.43 16.12 90.7 10.42-28.27 16.12-58.81 16.12-90.7v-86.22h-32.24v86.22Z"></path><circle cx="313.55" cy="210.17" r="19.14"></circle></svg>