<svg id="a" data-name="Layer 1" xmlns="http://www.w3.org/2000/svg" width="642" viewBox="0 0 642 642" height="642">
  <defs>
    <style>
      .b, .c {
      }

      .c {
        fill-rule: evenodd;
      }
    </style>
  </defs>
  <path class="c" d="M170.88,407.67c-14.35-24.85-5.83-56.62,19.02-70.97,14.37-8.29,31.05-8.95,45.34-3.22.96.37,2.01.58,3.11.58,4.74,0,8.59-3.84,8.59-8.59v-8.94c0-4.74-3.84-8.59-8.59-8.59-1.1,0-2.15.21-3.11.58-14.29,5.73-30.97,5.07-45.34-3.22-24.85-14.35-33.36-46.12-19.02-70.97,14.35-24.85,46.12-33.36,70.97-19.02,14.37,8.29,23.27,22.41,25.46,37.65.16,1.02.5,2.03,1.05,2.98,2.37,4.11,7.62,5.51,11.73,3.14l7.75-4.47c4.11-2.37,5.51-7.62,3.14-11.73-.55-.95-1.26-1.76-2.06-2.4-12.1-9.51-19.88-24.28-19.88-40.87,0-28.69,23.26-51.95,51.95-51.95,28.69,0,51.95,23.26,51.95,51.95,0,16.59-7.77,31.36-19.88,40.87-.8.64-1.51,1.45-2.06,2.4-2.37,4.11-.96,9.36,3.14,11.73l7.75,4.47c4.11,2.37,9.36.96,11.73-3.14.55-.95.89-1.97,1.05-2.98,2.19-15.24,11.09-29.36,25.46-37.65,24.85-14.35,56.62-5.83,70.97,19.02,14.35,24.85,5.83,56.62-19.02,70.97-14.37,8.29-31.05,8.95-45.34,3.22-.96-.37-2.01-.58-3.11-.58-4.74,0-8.59,3.84-8.59,8.59v8.94c0,4.74,3.84,8.59,8.59,8.59,1.1,0,2.15-.21,3.11-.58,14.29-5.73,30.97-5.07,45.34,3.22,24.85,14.35,33.36,46.12,19.02,70.97-14.35,24.85-46.12,33.36-70.97,19.02-14.37-8.29-23.27-22.41-25.46-37.65-.16-1.02-.5-2.03-1.05-2.98-2.37-4.11-7.62-5.51-11.73-3.14l-7.75,4.47c-4.11,2.37-5.51,7.62-3.14,11.73.55.95,1.26,1.76,2.06,2.4,12.1,9.51,19.88,24.28,19.88,40.87,0,28.69-23.26,51.95-51.95,51.95-28.69,0-51.95-23.26-51.95-51.95,0-16.59,7.77-31.36,19.88-40.87.8-.64,1.51-1.45,2.06-2.4,2.37-4.11.96-9.36-3.14-11.73l-7.75-4.47c-4.11-2.37-9.36-.96-11.73,3.14-.55.95-.89,1.97-1.05,2.98-2.19,15.24-11.09,29.36-25.46,37.65-24.85,14.35-56.62,5.83-70.97-19.02Z"></path>
  <circle class="b" cx="321" cy="22.47" r="22.47"></circle>
  <circle class="b" cx="243.73" cy="32.64" r="22.47"></circle>
  <circle class="b" cx="171.74" cy="62.47" r="22.47"></circle>
  <circle class="b" cx="109.91" cy="109.91" r="22.47"></circle>
  <circle class="b" cx="62.47" cy="171.73" r="22.47"></circle>
  <circle class="b" cx="32.64" cy="243.73" r="22.47"></circle>
  <circle class="b" cx="22.47" cy="321" r="22.47"></circle>
  <circle class="b" cx="32.64" cy="398.27" r="22.47"></circle>
  <circle class="b" cx="62.47" cy="470.26" r="22.47"></circle>
  <circle class="b" cx="109.91" cy="532.09" r="22.47"></circle>
  <circle class="b" cx="171.73" cy="579.53" r="22.47"></circle>
  <circle class="b" cx="243.73" cy="609.36" r="22.47"></circle>
  <circle class="b" cx="321" cy="619.53" r="22.47"></circle>
  <circle class="b" cx="398.27" cy="609.36" r="22.47"></circle>
  <circle class="b" cx="470.26" cy="579.53" r="22.47"></circle>
  <circle class="b" cx="532.09" cy="532.09" r="22.47"></circle>
  <circle class="b" cx="579.53" cy="470.27" r="22.47"></circle>
  <circle class="b" cx="609.36" cy="398.27" r="22.47"></circle>
  <circle class="b" cx="619.53" cy="321" r="22.47"></circle>
  <circle class="b" cx="609.36" cy="243.73" r="22.47"></circle>
  <circle class="b" cx="579.53" cy="171.74" r="22.47"></circle>
  <circle class="b" cx="532.09" cy="109.91" r="22.47"></circle>
  <circle class="b" cx="470.27" cy="62.47" r="22.47"></circle>
  <circle class="b" cx="398.27" cy="32.64" r="22.47"></circle>
  <circle class="b" cx="321" cy="96.3" r="35.31"></circle>
  <circle class="b" cx="208.65" cy="126.4" r="35.31"></circle>
  <circle class="b" cx="126.4" cy="208.65" r="35.31"></circle>
  <circle class="b" cx="96.3" cy="321" r="35.31"></circle>
  <circle class="b" cx="126.4" cy="433.35" r="35.31"></circle>
  <circle class="b" cx="208.65" cy="515.6" r="35.31"></circle>
  <circle class="b" cx="321" cy="545.7" r="35.31"></circle>
  <circle class="b" cx="433.35" cy="515.6" r="35.31"></circle>
  <circle class="b" cx="515.6" cy="433.35" r="35.31"></circle>
  <circle class="b" cx="545.7" cy="321" r="35.31"></circle>
  <circle class="b" cx="515.6" cy="208.65" r="35.31"></circle>
  <circle class="b" cx="433.35" cy="126.4" r="35.31"></circle>
</svg>