<svg xmlns="http://www.w3.org/2000/svg" width="642" viewBox="0 0 642 641.92" height="641.92" data-name="Layer 1"><path d="M60.27 133.78a320.559 320.559 0 0 0-24.81 40.54l119.32 23.21-94.51-63.75ZM30.32 184.69c-7.48 15.93-13.65 32.57-18.46 49.8L147.4 225 30.32 184.69ZM141.44 54.8c-12.01 8.12-23.4 17.07-34.18 26.69l81.94 71.22-47.76-97.91ZM.25 311.04c-.1 3.29-.25 6.56-.25 9.88 0 20.72 2.04 40.95 5.79 60.57l149-100.5L.25 311.04ZM9.38 243.84C4.58 263.3 1.51 283.43.44 304.1l146.96-50.6-138.02-9.66ZM97.52 90.59a323.606 323.606 0 0 0-29.59 32.97l101.1 49.31-71.51-82.28ZM192.15 26.91c-13.71 6.02-26.93 12.94-39.56 20.74l61.26 90.82-21.7-111.55ZM460.95 31.97c-21.55-10.46-44.47-18.5-68.38-23.95l-70.55 144.69L460.95 31.97Z"></path><path d="M463.5 33.28 342.12 172.87 525.6 83.38 356.37 197.53l200.37-38.91-163.38 56.25c-20.61-14.09-45.51-22.36-72.36-22.36-70.91 0-128.4 57.49-128.4 128.4 0 14.25 2.41 27.9 6.7 40.71L99.71 509.27l89.43-183.48L35.12 459.72l133.92-154.08L6.41 384.96C36.09 531.55 165.65 641.91 321 641.91c177.28 0 321-143.72 321-321 0-126.09-72.73-235.14-178.5-287.64Zm103.83 205.98-139.92 9.8c-5.12-7.56-11.09-14.48-17.66-20.78l157.58 10.98ZM206.36 378.53c4.4 8.73 9.66 16.95 15.86 24.4l-47.34 137.49 31.49-161.89Zm40.43 47.06c5.33 3.79 10.96 7.14 16.86 10.09l-8.07 115.33-8.78-125.42Zm57.71 22.56c4.61.59 9.28.96 14.03 1.05l17.74 91.22-31.77-92.28Zm61.04-6.93c3.59-1.33 7.11-2.81 10.54-4.45l35.37 72.51-45.91-68.07Zm50.22-33.88c2.53-2.77 4.94-5.64 7.22-8.63l53.06 61.02-60.27-52.39Zm28.74-51.69c1.21-4.3 2.18-8.69 2.93-13.16l78.16 52.72-81.09-39.55Zm2.84-56.93c-1.07-6.14-2.53-12.14-4.45-17.96l113.84 39.2-109.39-21.24ZM314.96.07c-18.39.34-36.4 2.21-53.92 5.52l8.79 125.55L314.96.07ZM249.95 7.91a317.6 317.6 0 0 0-46.16 14.19l37.54 109.05 8.62-123.24ZM386.3 6.58C366.24 2.43 345.49.21 324.25 0l-26.94 138.46L386.3 6.58Z"></path></svg>