<svg xmlns="http://www.w3.org/2000/svg" width="604.3" viewBox="0 0 604.3 604.3" height="604.3" style="enable-background:new 0 0 604.3 604.3" xml:space="preserve"><path d="M302.2 118.3c-101.4 0-183.9 82.5-183.9 183.9s82.5 183.9 183.9 183.9 183.9-82.5 183.9-183.9-82.5-183.9-183.9-183.9zm-125.4 77.1c0-10.9 8.8-19.7 19.7-19.7 10.9 0 19.7 8.8 19.7 19.7 0 10.9-8.8 19.7-19.7 19.7-10.9 0-19.7-8.9-19.7-19.7zM302.2 420c-65 0-117.9-52.9-117.9-117.9s52.9-117.9 117.9-117.9 117.8 53 117.8 118S367.2 420 302.2 420zm106.7-204.9c-10.9 0-19.7-8.8-19.7-19.7 0-10.9 8.8-19.7 19.7-19.7 10.9 0 19.7 8.8 19.7 19.7 0 10.8-8.8 19.7-19.7 19.7z"></path><path d="M302.2 221.6c-44.4 0-80.5 36.1-80.5 80.5s36.1 80.5 80.5 80.5 80.5-36.1 80.5-80.5c0-44.3-36.1-80.5-80.5-80.5zm41.2 99.2h-79.8c-10.3 0-18.7-8.4-18.7-18.7 0-10.3 8.4-18.7 18.7-18.7h79.8c10.3 0 18.7 8.4 18.7 18.7 0 10.4-8.4 18.7-18.7 18.7z"></path><path d="M302.2 0C135.3 0 0 135.3 0 302.2s135.3 302.2 302.2 302.2S604.3 469 604.3 302.2 469 0 302.2 0zm125.4 484.3v45.8c0 10.3-8.4 18.7-18.7 18.7-10.3 0-18.7-8.4-18.7-18.7v-25c-27 11.8-56.8 18.3-88.1 18.3-30.9 0-60.3-6.4-87-17.8v24.5c0 10.3-8.4 18.7-18.7 18.7-10.3 0-18.7-8.4-18.7-18.7v-45c-58.5-39.9-96.9-107-96.9-182.9 0-54.6 19.9-104.6 52.8-143.2l-15.3-15.3c-7.3-7.3-7.3-19.1 0-26.4 7.3-7.3 19.1-7.3 26.4 0l15.4 15.4c38.5-32.3 88-51.7 142-51.7 54.3 0 104.1 19.7 142.6 52.2l16-16c7.3-7.3 19.1-7.3 26.4 0s7.3 19.1 0 26.4l-16 16c32.6 38.5 52.2 88.3 52.2 142.6.1 75.4-37.8 142.1-95.7 182.1z"></path></svg>