<svg data-name="Layer 1" xmlns="http://www.w3.org/2000/svg" viewBox="0 0 610.47 610.47"><path d="M0 0v610.47h610.47V0H0Zm584.87 25.59v208.29H279.54l106.42-106.42L284.08 25.59h300.79Zm-4.32 326.26H379.04v-92.38h201.51v92.38Zm-201.51 25.59h201.51v201.51H379.04V377.44Zm-25.59 201.51h-92.38V259.48h92.38v319.48Zm-206.3-451.49 101.3-101.3 101.31 101.3-101.3 101.3-101.31-101.3Zm88.32 337.95H48.01l187.46-187.46v187.46ZM212.82 25.59 110.96 127.46l119.4 119.4L25.59 451.63V25.59h187.23ZM25.59 491h209.88v93.87H25.59V491Z"></path></svg>