<svg xmlns="http://www.w3.org/2000/svg" width="608.5" viewBox="0 0 608.5 608.5" height="608.5" xml:space="preserve" style="enable-background:new 0 0 608.5 608.5"><path d="M544 239.7h-84l59.4-59.4c25.1-25.1 25.1-66.2 0-91.2-25.1-25.1-66.2-25.1-91.2 0l-59.4 59.4v-84c0-35.5-29-64.5-64.5-64.5s-64.5 29-64.5 64.5v84l-59.4-59.4c-25.1-25.1-66.2-25.1-91.2 0s-25.1 66.2 0 91.2l59.4 59.4h-84C29 239.7 0 268.8 0 304.3c0 35.5 29 64.5 64.5 64.5h84l-59.4 59.4c-25.1 25.1-25.1 66.2 0 91.2 25.1 25.1 66.2 25.1 91.2 0l59.4-59.4v84c0 35.5 29 64.5 64.5 64.5s64.5-29 64.5-64.5v-84l59.4 59.4c25.1 25.1 66.2 25.1 91.2 0 25.1-25.1 25.1-66.2 0-91.2L460 368.8h84c35.5 0 64.5-29 64.5-64.5s-29-64.6-64.5-64.6zm-212.1-.4 96.5-63.7c1.5-1 3.1-.6 4 .4.9.9 1.4 2.5.4 4l-64.3 97.3-.7-.7-36.8-36.8.9-.5zm-156-63.2c.9-.9 2.6-1.4 4.1-.4l97.3 64.3-37.5 37.4-.5-.8-63.7-96.5c-1.1-1.5-.6-3.1.3-4zm100.7 193.2L180.1 433c-.6.4-1.2.6-1.8.6-.9 0-1.7-.4-2.2-1-.9-.9-1.4-2.5-.4-4l64.3-97.3.7.7 36.8 36.8-.9.5zm156 63.1c-.6.6-1.4 1-2.2 1-.6 0-1.2-.2-1.8-.6l-97.3-64.3 37.4-37.4.5.8 63.7 96.5c1.1 1.5.7 3.1-.3 4zM483 307.3l-149.3 26.4L307.5 483c-.3 1.8-1.8 2.6-3.1 2.6s-2.8-.8-3.1-2.6l-26.4-149.4-149.4-26.2c-1.8-.3-2.6-1.8-2.6-3.1s.8-2.8 2.6-3.1l149.3-26.4L301 125.5c.3-1.8 1.8-2.6 3.1-2.6s2.8.8 3.1 2.6l26.4 149.4L483 301c1.8.3 2.6 1.8 2.6 3.1.1 1.4-.7 2.8-2.6 3.2z"></path></svg>