<svg xmlns="http://www.w3.org/2000/svg" width="618" viewBox="0 0 618 546.2" height="546.2" xml:space="preserve"><path d="M593 24.4C576.8 8.5 555.5-.2 533 0c-12.9.1-25.2 3.1-36.6 8.8-4.4 2.2-9.4 3.4-14.4 3.4H91.4C40.9 12.2 0 53.1 0 103.4V455c0 50.3 40.9 91.3 91.3 91.3h424c23.8 0 46.5-9.1 64.1-25.7 17.3-16.4 27.2-38.3 27.2-60.2V134.8c0-4.9 1.1-9.7 3.1-13.9 5.6-11.5 8.4-23.8 8.4-36.7-.1-22.6-9-43.8-25.1-59.8zm-22.1 77.7c-4.8 10-7.4 21.3-7.4 32.6v325.6c0 24.5-25.5 42.9-48.2 42.9H323.7v-57.7h142.9V111.9H137.8v333.6h142.9v57.7H91.3C64.7 503.2 43 481.6 43 455V103.4c0-26.6 21.6-48.2 48.2-48.2h390.6c11.6 0 23.3-2.7 33.6-7.9 5.6-2.8 11.6-4.2 17.9-4.3 11-.1 21.4 4.1 29.3 12 7.9 7.8 12.3 18.2 12.3 29.2 0 6.3-1.3 12.3-4 17.9zm-349.2 96.1h161v160.1h-161V198.2zm201.8 160.1h-37V198.2h37v160.1zm0 3.8v40.4h-37v-40.4h37zm0-167.7h-37V155h37v39.4zm-40.8 0h-161V155h161v39.4zm-201.9 3.8h37v160.1h-37V198.2zm0-3.8V155h37v39.4h-37zm0 167.7h37v40.4h-37v-40.4zm40.9 0h161v40.4h-161v-40.4z"></path></svg>