<svg xmlns="http://www.w3.org/2000/svg" width="516.5" viewBox="0 0 516.5 616.8" height="616.8" xml:space="preserve" style="enable-background:new 0 0 516.5 616.8"><path d="M0 0v616.8h516.5V0H0zm460.1 530.3c-9.7 19.9-29.5 32.2-51.6 32.2H108.3c-22.1 0-41.9-12.3-51.6-32.2-9.7-19.9-7.3-43 6.3-60.5l123.5-158.2c2.3-3 3.6-6.7 3.6-10.5V226h52v75.1c0 15.3-5.2 30.4-14.6 42.5L104 501.8c-1.4 1.8-1.6 3.7-.6 5.7s2.6 3 4.8 3h300.2c2.2 0 3.9-1 4.8-3s.8-3.9-.6-5.7L289.3 343.6c-9.4-12.1-14.6-27.2-14.6-42.5V193.5h-84.5l109-147.6 109 147.6h-81.5v107.7c0 3.8 1.3 7.5 3.6 10.5l123.5 158.2c13.5 17.4 16 40.6 6.3 60.4z"></path></svg>