<svg xmlns="http://www.w3.org/2000/svg" width="584.8" viewBox="0 0 584.8 584.8" height="584.8"><path d="M292.4 0C131.2 0 0 131.2 0 292.4s131.2 292.4 292.4 292.4 292.4-131.2 292.4-292.4S453.7 0 292.4 0zm66.1 162c0-34-26.3-62.7-60-65.8V44.7c30.9 24.8 56.7 54.6 76.5 88.8 26.8 46.2 41.5 99.1 42.6 152.9H298.5v-58.5c33.7-3.2 60-31.9 60-65.9zM311.1 39.2c62.4 4.6 120.6 31.9 164.2 77.3 44.3 46 69.4 106.3 70.9 169.8H429.7c-1-56-16.3-111-44.2-159-19.4-33.5-44.5-63.1-74.4-88.1zm-12.6 501V298.5h119.1c-1 53.8-15.7 106.6-42.5 152.7-19.8 34.2-45.6 64.2-76.6 89zm12.6 5.4c30-25 55.1-54.7 74.6-88.3 27.8-48 43.1-102.9 44.1-158.8h116.5c-1.5 63.6-26.7 123.9-70.9 169.8-43.8 45.4-102 72.7-164.3 77.3zM226.3 162c0 34 26.3 62.7 60 65.8v58.5h-119c1-53.8 15.7-106.6 42.5-152.8 19.8-34.2 45.6-64 76.5-88.8v51.5c-33.7 3.1-60 31.8-60 65.8zM38.6 286.3c1.5-63.6 26.7-123.8 70.9-169.8 43.6-45.3 101.8-72.7 164.2-77.3-30 25-55 54.6-74.5 88.1-27.9 48-43.1 103-44.2 159H38.6zm235 259.3c-62.3-4.6-120.5-32-164.1-77.3-44.2-46-69.4-106.2-70.9-169.8h116.5c1.7 96.2 44.8 186 118.5 247.1zm12.7-247.1v241.7c-74-58.9-117.3-146.8-119.1-241.7h119.1z"></path></svg>