<svg data-name="Layer 1" xmlns="http://www.w3.org/2000/svg" viewBox="0 0 523.5 620.32"><path d="M75.86 186.23h186.03L75.86 0v186.23zM447.92 0C345.18 0 261.89 83.38 261.89 186.23h186.03V0ZM271 194.64l176.92 177.11v76.89h75.58v-254H271zM248.51 198.64v-4H0v254.01h75.59v-76.29c95.83 0 172.91-77.78 172.91-173.72Z"></path><path d="M84.95 379.77V619.8c94.76 0 171.57-76.9 171.57-171.77V202.31c-.49 48.25-19.87 93-53.95 127.13-32.44 32.48-74.46 48.63-117.63 50.33ZM266.71 448.03 438.8 620.32V375.01L266.71 202.74v245.29z"></path></svg>