<svg data-name="Layer 1" xmlns="http://www.w3.org/2000/svg" viewBox="0 0 623.24 390.12"><path d="M201.82 91.29H45.12L0 129.91h77.24c16.73 0 30.29 13.56 30.29 30.29v229.93h131.26V128.26c0-20.42-16.55-36.97-36.97-36.97Z"></path><path d="M393.01 45.64H98.82c-.25 0-.49.09-.67.25l-42.7 36.55c-.73.63-.29 1.82.67 1.82h206.91c20.28 0 36.73 16.44 36.73 36.73v268.1c0 .57.46 1.03 1.03 1.03h129.19c.57 0 1.03-.46 1.03-1.03V83.65c0-20.99-17.01-38-38-38Z"></path><path d="M553.56 0h-401.8l-45.12 38.62H449.4c23.52 0 42.58 19.07 42.58 42.58v308.92h131.26V69.69C623.24 31.2 592.04 0 553.55 0Z"></path></svg>