<svg data-name="Layer 1" xmlns="http://www.w3.org/2000/svg" viewBox="0 0 630.99 591.86"><path d="M546.6 276.72c-17.01-9.81-36.03-16.53-56.52-19.96-9.16-1.61-18.05-3.89-26.65-6.74 13.57-24.72 20.85-52.63 20.85-81.22C484.28 75.72 408.56 0 315.48 0S146.67 75.72 146.67 168.8c0 19.49 3.61 39.15 10.73 58.41 3.3 8.93 5.84 17.96 7.71 27.03-28.2.61-56.03 8.26-80.79 22.57C3.73 323.38-23.96 426.83 22.61 507.42c22.55 39.04 58.96 66.96 102.52 78.62 14.53 3.89 29.27 5.81 43.92 5.81 29.26 0 58.15-7.68 84.17-22.71 16.67-9.63 31.74-22.43 44.79-38.06l.09-.11c6.15-7.45 12.8-14.27 19.81-20.53 14.63 24.12 35.16 44.39 59.93 58.68 26.51 15.3 55.49 22.57 84.1 22.57 58.39 0 115.26-30.29 146.48-84.39 46.53-80.61 18.8-184.05-61.82-230.58ZM431.14 168.8c0 20.28-5.35 40.05-15.28 57.42-48.38-33.72-79.21-89.6-79.21-151.91 0-6.36.34-12.71.98-19.02 53.21 10.37 93.51 57.31 93.51 113.51ZM110.91 322.83c17.58-10.16 37.4-15.42 57.43-15.49-4.98 58.75-37.95 113.37-91.98 144.58-5.51 3.18-11.18 6.07-16.96 8.67-17.64-51.26 2.85-109.64 51.51-137.75Zm146.3 174.19c-9.04 10.83-19.34 19.61-30.59 26.11-26.75 15.45-57.92 19.56-87.76 11.58-19.45-5.21-36.8-15.17-50.82-28.87 5.05-2.46 10.03-5.09 14.9-7.9 100.85-58.26 144.72-179.87 104.3-289.15-4.94-13.35-7.44-26.8-7.44-39.98 0-52.91 35.72-97.6 84.3-111.3-.39 5.59-.61 11.2-.61 16.81 0 116.04 83.02 214.79 197.42 234.79l.22.04c14.28 2.37 27.37 6.95 38.9 13.61 45.82 26.45 66.67 79.72 54.26 128.65-4.65-3.13-9.39-6.13-14.26-8.93-101.1-58.35-228.43-35.4-302.82 54.55Zm204.8 41.54c-19.6 0-39.46-4.98-57.62-15.47-17.59-10.15-32.06-24.7-42.14-42.02 53.34-25.07 117.11-23.82 171.21 7.41 5.51 3.18 10.85 6.66 15.99 10.36-22.3 25.64-54.51 39.71-87.44 39.71Z"></path></svg>