<svg data-name="Layer 1" xmlns="http://www.w3.org/2000/svg" viewBox="0 0 586.9 583.91"><path d="M187.77 91.56c15.71-22.77 13.48-54.18-6.78-74.44-22.82-22.82-59.83-22.82-82.65 0-20.26 20.26-22.49 51.67-6.78 74.44-22.77-15.71-54.18-13.48-74.44 6.78-22.82 22.82-22.82 59.83 0 82.65 20.26 20.26 51.67 22.49 74.44 6.78-15.71 22.77-13.48 54.18 6.78 74.44 22.82 22.82 59.83 22.82 82.65 0 20.26-20.26 22.49-51.67 6.78-74.44 22.77 15.71 54.18 13.48 74.44-6.78 22.82-22.82 22.82-59.83 0-82.65-20.26-20.26-51.68-22.49-74.44-6.78Zm-6.78 86.16c-22.82 22.82-59.83 22.82-82.65 0-22.82-22.82-22.82-59.83 0-82.65 22.82-22.82 59.83-22.82 82.65 0 22.82 22.82 22.82 59.83 0 82.65ZM17.71 436.19c13.48 2.8 27.44 4.28 41.75 4.28 25.78 0 50.37-4.92 73.08-13.63v157.07h14.26V420.75c53.19-25.22 93.83-72.6 109.73-130.34-13.48-2.8-27.44-4.28-41.75-4.28-94.07 0-173.25 63.56-197.07 150.05ZM399.13 187.77c-15.71 22.77-13.48 54.18 6.78 74.44 22.82 22.82 59.83 22.82 82.65 0 20.26-20.26 22.49-51.67 6.78-74.44 22.77 15.71 54.18 13.48 74.44-6.78 22.82-22.82 22.82-59.83 0-82.65-20.26-20.26-51.68-22.49-74.44-6.78 15.71-22.77 13.48-54.18-6.78-74.44-22.82-22.82-59.83-22.82-82.65 0-20.26 20.26-22.49 51.67-6.78 74.44-22.77-15.71-54.18-13.48-74.44 6.78-22.82 22.82-22.82 59.83 0 82.65 20.26 20.26 51.67 22.49 74.44 6.78Zm6.78-92.7c22.82-22.82 59.83-22.82 82.65 0 22.82 22.82 22.82 59.83 0 82.65-22.82 22.82-59.83 22.82-82.65 0-22.82-22.82-22.82-59.83 0-82.65ZM342.77 438.98c7.96.95 16.04 1.49 24.25 1.49 94.07 0 173.25-63.56 197.07-150.05-13.48-2.8-27.44-4.28-41.75-4.28-87.38 0-161.84 54.87-191.09 132-18.24-36.58-28.56-77.76-28.56-121.34h-14.26c0 158.31 128.79 287.12 287.11 287.12v-14.26c-98.39 0-184.77-52.36-232.78-130.67Z"></path></svg>