<svg xmlns="http://www.w3.org/2000/svg" width="622.4" viewBox="0 0 622.4 622.4" height="622.4" xml:space="preserve" style="enable-background:new 0 0 622.4 622.4"><path d="M187.8 326.8H0v187.8l107.8 107.8h187.8V434.6L187.8 326.8zm77.8 244.5-69.1-69.1V377.9l69.1 69.1v124.3zm-99-214.5v136.7H29.9V356.8h136.7zM51.1 523.4h124.3l69.1 69.1H120.1l-69-69.1zM295.5 187.8V0H107.8L0 107.8v187.8h187.8l107.7-107.8zM51.1 265.6l69.1-69.1h124.3l-69.1 69.1H51.1zm214.5-99H128.9V29.9h136.7v136.7zM99 51.1v124.3l-69.1 69.1V120.1l69.1-69zM434.6 295.5h187.8V107.8L514.6 0H326.8v187.8l107.8 107.7zM356.8 51.1l69.1 69.1v124.3l-69.1-69.1V51.1zm99 214.5V128.9h136.7v136.7H455.8zM571.3 99H447l-69.1-69.1h124.3L571.3 99zM326.8 434.6v187.8h187.8l107.8-107.8V326.8H434.6L326.8 434.6zm244.5-77.8-69.1 69.1H377.9l69.1-69.1h124.3zm-214.5 99h136.7v136.7H356.8V455.8zm166.6 115.5V447l69.1-69.1v124.3l-69.1 69.1z"></path></svg>