<svg xmlns="http://www.w3.org/2000/svg" width="623" viewBox="0 0 623 566.9" height="566.9" xml:space="preserve" style="enable-background:new 0 0 623 566.9"><path d="M571.2 231c-16.3-9.4-34.2-13.9-51.7-13.9-19.2 0-38.1 5.4-54.4 15.5l-84.4 52c-4.1 2.8-8.9 4.3-14 4.3-6.7 0-13-2.6-17.7-7.3-4.7-4.7-7.3-11-7.3-17.7 0-6.7 2.6-13 7.3-17.7 1.9-1.9 4.1-3.5 6.5-4.7l87.4-47.2c32.4-17.3 54.4-51.6 54.4-91.1C497.3 46.2 451.5 0 395 0c-34.5 0-64.9 17.1-83.5 43.4C292.9 17.1 262.5 0 228 0c-56.5 0-102.4 46.2-102.4 103.1 0 40.2 22.9 75.1 56.2 92.1l86.1 46.5c2.2 1.2 4.3 2.7 6.1 4.5 4.7 4.7 7.3 11 7.3 17.7 0 6.7-2.6 13-7.3 17.7-4.7 4.7-11 7.3-17.7 7.3-5.1 0-9.9-1.5-14-4.3l-84.4-52c-16.3-10.1-35.2-15.5-54.4-15.5-17.6 0-35.4 4.5-51.7 13.9-49.3 28.5-66.4 91.2-38.1 140.2C30.9 401.1 61 418.9 93 421.8c-13.5 29.2-13.1 64.2 4.1 94 18.9 32.7 53.3 51 88.7 51 17.6 0 35.4-4.5 51.7-13.9 34.8-20.1 53.6-57.3 51.6-94.7l-2.8-97.8c-.1-2.5.2-5 .8-7.5 1.7-6.5 5.9-11.9 11.7-15.2 3.9-2.2 8.1-3.4 12.5-3.4 2.2 0 4.4.3 6.5.9 6.5 1.7 11.9 5.9 15.2 11.7 2.4 4.2 3.5 8.9 3.3 13.6l-2.8 97.8c-2 37.4 16.8 74.6 51.6 94.7 16.3 9.4 34.2 13.9 51.7 13.9 35.5 0 69.8-18.3 88.7-51 17.2-29.8 17.6-64.8 4.1-94 32-2.9 62.1-20.7 79.4-50.6 28.6-49 11.5-111.8-37.8-140.3z"></path></svg>