<svg xmlns="http://www.w3.org/2000/svg" width="642" viewBox="0 0 642 526.44" height="526.44" data-name="Layer_1"><path d="M631.56 256.3c-3.75-1.45-6.42-5.1-6.42-9.37s2.53-7.73 6.14-9.26c6.27-2.45 10.72-8.56 10.72-15.7s-4.24-12.97-10.29-15.53a9.627 9.627 0 0 1-1.26-17.31c5.9-2.93 9.95-9 9.95-16.03s-4.21-13.34-10.28-16.2c-3.11-1.49-5.25-4.66-5.25-8.33s2.09-6.77 5.14-8.27c6.99-3.33 11.53-10.99 10.15-19.5-1.2-7.46-7.29-13.62-14.74-14.9-4.13-.71-8.07-.03-11.42 1.66a94.143 94.143 0 0 0-40.27 41.02 274.132 274.132 0 0 0-27.39 99.67c0 4.65-3.77 8.43-8.43 8.43s-8.43-3.77-8.43-8.43V169.3C529.49 75.79 453.7 0 360.2 0H73.83C33.05 0 0 33.05 0 73.83v423.72c0 15.96 12.93 28.89 28.89 28.89h89.88c15.96 0 28.89-12.93 28.89-28.89V166.88c0-12.33 10.32-22.25 22.79-21.6 11.7.61 20.46 11.11 20.46 22.82v329.45c0 15.96 12.93 28.89 28.89 28.89h89.88c15.96 0 28.89-12.93 28.89-28.89V166.88c0-12.33 10.32-22.25 22.79-21.6 11.7.61 20.46 11.11 20.46 22.82v146.48c0 15.26 5.75 29.17 15.21 39.69 6.89 7.29 11.11 17.12 11.11 27.94l-.02 24.15c.96 15.21-11.93 29.51-19.51 41.27a27.723 27.723 0 0 0-5.03 15.97c0 7.69 3.12 14.65 8.16 19.69l35.87 34.99c5.04 5.04 12 8.16 19.69 8.16s14.65-3.12 19.69-8.16l48.65-51.49c8.64-10.28 13.84-23.54 13.84-38.02V322.2c0-4.65 3.77-8.43 8.43-8.43s8.2 3.55 8.42 8.02c2.71 46.72 18.87 89.83 44.65 125.52 5.06 7.49 15.52 11.75 25.49 6.46 5.11-2.71 8.89-7.74 9.93-13.43.99-5.41-.26-10.52-2.99-14.55-19.1-28.27-32.24-60.24-38.4-95.16-.37-2.07-.57-4.2-.57-6.37 0-19.72 15.99-35.71 35.71-35.71 4.98-.14 9.38 1.86 15.99-4.42 3.37-3.2 5.83-7.53 5.85-12.19.02-7.06-4.29-13.12-10.44-15.65Zm-145.85 98.97c-10.48 0-18.98-8.5-18.98-18.98s8.5-18.98 18.98-18.98 18.98 8.5 18.98 18.98-8.5 18.98-18.98 18.98Z"></path></svg>