<svg id="Layer_1" data-name="Layer 1" xmlns="http://www.w3.org/2000/svg" viewBox="0 0 597.51 597.51">   <path d="M149.38,298.75h149.38V149.38c0-60.62,36.13-112.76,88.01-136.18C358.94,4.63,329.39,0,298.75,0,133.76,0,0,133.76,0,298.75c0,30.64,4.63,60.19,13.2,88.01,23.42-51.88,75.56-88.01,136.18-88.01Z"></path>   <path d="M584.31,210.74c-23.42,51.88-75.56,88.01-136.18,88.01h-149.38v149.38c0,60.62-36.13,112.76-88.01,136.18,27.83,8.57,57.37,13.2,88.01,13.2,165,0,298.75-133.76,298.75-298.75,0-30.64-4.63-60.19-13.2-88.01Z"></path>   <path d="M584.31,210.74c8.45-18.73,13.19-39.49,13.19-61.37C597.51,66.88,530.63,0,448.13,0c-21.88,0-42.64,4.74-61.37,13.2,94.21,29,168.54,103.33,197.55,197.55Z"></path>   <path d="M13.2,386.77C4.74,405.49,0,426.25,0,448.13,0,530.63,66.88,597.51,149.38,597.51c21.88,0,42.64-4.74,61.37-13.2-94.21-29-168.54-103.34-197.55-197.55Z"></path> </svg>