<svg xmlns="http://www.w3.org/2000/svg" width="559" viewBox="0 0 559 571.5" height="571.5"><circle cx="273.2" cy="285.8" r="10.5"></circle><circle cx="273.2" cy="204.9" r="43.9"></circle><circle transform="matrix(1 -.0028 .0028 1 -1.023 .765)" cx="273.2" cy="366.7" r="43.9"></circle><circle transform="matrix(1 -.00284 .00284 1 -.81 1.008)" cx="354.5" cy="285.8" r="43.9"></circle><circle transform="rotate(-45.001 192.57 285.768)" cx="192.6" cy="285.8" r="43.9"></circle><path d="M286.7.3h-.6a273.33 273.33 0 00-25.6 0H0v571.2h115.3V285.8c0-87.3 70.7-158 158-158s158 70.7 158 158-70.7 158-158 158c-23.5 0-45.7-5.2-65.8-14.3v142.1h79.2v-.3c151.6-7 272.3-132.1 272.3-285.4S438.3 7.4 286.7.3z"></path></svg>