<svg data-name="Layer 1" xmlns="http://www.w3.org/2000/svg" viewBox="0 0 429.14 617.92"><path d="M429.14 214.57c0-51.5-41.9-93.4-93.4-93.4-5.32 0-10.51.55-15.6 1.41l52.94-52.94-6.79-6.79c-17.64-17.64-41.1-27.36-66.04-27.36s-48.41 9.71-66.05 27.36c-3.76 3.76-7.04 7.82-10.03 12.02V0h-9.61c-51.5 0-93.4 41.9-93.4 93.4 0 5.32.55 10.51 1.41 15.59L69.63 56.05l-6.79 6.79c-17.65 17.64-27.36 41.1-27.36 66.04s9.71 48.4 27.36 66.04c3.73 3.73 7.77 7.02 11.98 10.03H0v9.61c0 51.5 41.9 93.4 93.4 93.4 5.32 0 10.51-.55 15.59-1.41l-52.94 52.94 6.79 6.79c18.21 18.21 42.12 27.31 66.04 27.31s47.84-9.1 66.05-27.31c3.76-3.76 7.04-7.82 10.03-12.02v74.86h9.61c51.5 0 93.4-41.9 93.4-93.4 0-5.32-.55-10.51-1.41-15.59l52.94 52.94 6.79-6.79c17.65-17.64 27.36-41.1 27.36-66.05s-9.71-48.4-27.36-66.04c-3.73-3.73-7.77-7.02-11.98-10.03h74.83v-9.61Zm-102.67-9.61c.27 3.17.49 6.36.49 9.61 0 5.46-.52 10.79-1.27 16.04 10.03 3.66 19.26 9.41 27.03 17.18 14.01 14.01 21.73 32.64 21.73 52.46 0 16.58-5.4 32.33-15.37 45.24l-58.56-58.56c-5.53 6.56-11.84 12.41-18.72 17.56 4.44 9.51 6.97 20.09 6.97 31.25 0 37.65-28.19 68.84-64.58 73.56v-82.84c-3.17.27-6.37.49-9.61.49-5.46 0-10.79-.52-16.05-1.28-3.58 9.87-9.27 19.13-17.17 27.03-26.63 26.62-68.6 28.74-97.68 6.36l58.56-58.56c-6.56-5.53-12.42-11.84-17.57-18.72-9.51 4.44-20.09 6.97-31.26 6.97-37.65 0-68.84-28.2-73.56-64.58h82.82c-.27-3.17-.49-6.36-.49-9.61 0-5.46.52-10.79 1.27-16.04-10.03-3.66-19.25-9.41-27.02-17.18-14.01-14.01-21.73-32.64-21.73-52.46 0-16.58 5.4-32.32 15.37-45.23l58.56 58.56c5.53-6.56 11.84-12.42 18.72-17.57-4.44-9.51-6.97-20.08-6.97-31.25 0-37.65 28.19-68.84 64.58-73.56v82.84c3.17-.27 6.36-.49 9.61-.49 5.47 0 10.8.52 16.05 1.28 3.58-9.86 9.27-19.13 17.17-27.03 14.01-14.01 32.64-21.73 52.46-21.73 16.58 0 32.32 5.4 45.23 15.37l-58.56 58.56c6.56 5.53 12.42 11.84 17.57 18.72 9.51-4.44 20.09-6.97 31.26-6.97 37.65 0 68.84 28.19 73.56 64.58h-82.84ZM224.01 531.36l-1.91 10.45 11.48.26c.63.02 1.27.04 1.91.04 75.27 0 139.69-53.69 153.16-127.66l1.92-10.53-13.4-.23c-75.27 0-139.69 53.69-153.16 127.66Zm20.27-7.64c15.18-56.86 65.13-97.88 124.1-101.61-15.18 56.86-65.13 97.88-124.1 101.61ZM97.71 448.48c-.62-.14-1.24-.27-1.86-.39l-11.26-2.35-.49 10.63c-3.45 75.11 47.3 141.87 120.65 158.74l13.11 2.81.49-10.71c3.45-75.11-47.29-141.87-120.64-158.74Zm4.43 19.9c56.63 16.86 96.11 68.03 98.17 126.84-56.64-16.86-96.11-68.04-98.17-126.84Z"></path></svg>