<svg xmlns="http://www.w3.org/2000/svg" width="599.7" viewBox="0 0 599.7 574.2" height="574.2" xml:space="preserve"><path d="M432.8 0c-54.3 0-102.5 25.9-133 66.1C269.4 25.9 221.1 0 166.8 0 74.7 0 0 74.7 0 166.8v407.4c72.8-11.6 139-76.5 139-149V211.7c0-27.1 21.9-49 49-49s49 21.9 49 49v1.2h55.6L237 249.2v269c0 4.4.1 8.7-.6 13.1-1.6 10.1-7.3 27.5-26.8 41.7 20.2 3.2 158.2-15.7 158.2-174.5V211.7c0-27.1 21.9-49 49-49s49 21.9 49 49v1.2h55.8l-55.8 36.4v267.5c0 8.4-.1 16.3-2.9 24.3-2.5 7.2-6.5 13.9-11.4 19.7-3.8 4.5-8.3 8.5-13 12.1h161.2V166.8C599.7 74.7 525 0 432.8 0z"></path><circle transform="rotate(-45.001 188.039 210.397)" cx="188" cy="210.4" r="16.1"></circle><path d="M416.8 194.2c-8.9 0-16.1 7.2-16.1 16.1 0 8.9 7.2 16.1 16.1 16.1 8.9 0 16.1-7.2 16.1-16.1.1-8.8-7.1-16.1-16.1-16.1z"></path></svg>