<svg xmlns="http://www.w3.org/2000/svg" width="589.4" viewBox="0 0 589.4 620.9" height="620.9" xml:space="preserve"><path d="M550.4 81.8S442.4 11.4 437.9 9c-11.1-5.7-23.6-9-36.9-9-44.3 0-80.3 35.9-80.3 80.3l.1 139c0 31.8-22.3 68.9-52.2 76.4V150.6c0-29.2-15.6-54.8-38.9-68.8 0 0-108-70.4-112.5-72.8-11.1-5.7-23.6-9-36.9-9C35.9 0 0 35.9 0 80.3v390c0 29.2 15.6 54.8 38.9 68.8 0 0 108 70.4 112.5 72.8 11.1 5.7 23.6 9 36.9 9 44.3 0 80.6-35.9 80.6-80.3v-97.8c0-31.7 22.1-69.8 51.8-77.7v105.2c0 29.2 15.6 54.8 38.9 68.8 0 0 108 70.4 112.5 72.8 11.1 5.7 23.6 9 36.9 9 44.3 0 80.3-35.9 80.3-80.3v-390c.1-29.2-15.5-54.8-38.9-68.8zM160.2 382v88.4c0 34-21.2 63.1-51.1 74.7l-.6-394.6c0-34 21.2-63.1 51.1-74.7v111.7c0 27.6 13.9 53.4 36.9 68.6l60.2 39.7h-4.5c-60-.1-92 38.5-92 86.2zm269.6 163.1v-71.7c0-27.6-13.9-53.4-36.9-68.6L333 365.3h4.6c60 0 92-38.6 92-86.3l-.3-128.6c0-34 21.2-63.1 51.1-74.7V77l.6 393.4c-.1 34-21.3 63.1-51.2 74.7z"></path></svg>