<svg xmlns="http://www.w3.org/2000/svg" width="610" viewBox="0 0 610 631.1" height="631.1" xml:space="preserve" style="enable-background:new 0 0 610 631.1"><path d="M581.1 194.7 418.6 97c3.5-5.4 6.2-11.3 7.9-17.7 4.4-16.2 2.2-33.1-6.1-47.7-8.3-14.6-21.8-25-38-29.4-16.2-4.4-33.1-2.2-47.7 6.1l-161.4 93.4c-10.3-18-29.6-30.2-51.8-30.2-32.9 0-59.7 26.8-59.7 59.7v189.9c-20.8.4-40.9 11.1-52.5 30.1C.4 365.8-2.2 382.7 1.8 399c4 16.3 14.1 30.1 28.4 38.8l158.3 97.1c-3.3 5.2-5.7 10.9-7.4 17-4.4 16.2-2.2 33.1 6.1 47.7 11.6 20.2 32.8 31.6 54.6 31.6 10.6 0 21.3-2.7 31.2-8.3l163.6-94.7c9.7 19.9 30.1 33.6 53.6 33.6 32.9 0 59.7-26.8 59.7-59.7V305.6h.5c20.6 0 40-10.7 51-29 17-28.1 7.9-64.9-20.3-81.9zM353 492.6c-4.6-5.9-10.2-10.9-16.7-14.9l-13-8L465 387.6c10.2-5.8 22-7.3 33.3-4.3 11.3 3.1 20.7 10.4 26.5 20.5 5.8 10.2 7.3 22 4.3 33.3-3.1 11.3-10.3 20.7-20.6 26.6l-6 3.6v-59.7l-149.5 85zm-151.8 27.7L135 479.7c12.9-3 24.1-10.1 32.3-20l66.1 40.8-22.9 13.3c-3.4 1.9-6.5 4.1-9.3 6.5zM257.8 137c3.7 4 8 7.6 12.9 10.6l17.8 10.7-142.4 82.5c-20.9 12-47.8 4.7-59.8-16.2-4.3-7.4-6.2-15.7-5.7-24.1v-.7c.2-2.8.7-5.6 1.4-8.4 3.1-11.3 10.3-20.7 20.4-26.5l7.6-4.2v59.6L257.8 137zm176.7 52.1c-2.5 6.6-3.9 13.7-3.9 21.2v11.2l-150-90.3c-19.2-11.6-25.5-36.6-13.9-55.8 11.6-19.2 36.6-25.5 55.8-13.9l14.6 8.8L287 98.1l147.5 91zM304.7 458.4 181 382.5v-140l126.1-73 123.4 74.3v141.8l-125.8 72.8zm-224-210.6c8.4 8.1 18.8 13.6 29.9 16.1l.1 75.8-15.2-9.3c-4.7-2.9-9.7-5-14.8-6.5v-76.1zm49.1 187.8-.2-170.4c8.9-.7 17.8-3.3 26-8l6.4-3.7v168.1c0 22.4-18.3 40.7-40.7 40.7-22.4 0-40.7-18.3-40.7-40.7l-.1-15.7 34 21 15.3 8.7zm47.1 7.7c2.6-6.7 4.1-14 4.1-21.7v-16.8L326.3 494c10 6.1 17.1 15.7 19.8 27 2.8 11.4 1 23.1-5.1 33.1-12.5 20.7-39.6 27.3-60.2 14.8l-12.4-7.6 52.8-28.9-144.3-89.1zM503.3 365c-1.2-.3-2.4-.5-3.6-.8v-79l19.9 11.9c3.6 2.2 7.5 3.8 11.5 5.2V381c-7.7-7.6-17.2-13.1-27.8-16zm-22.7-171.8v169.9c-8.7.9-17.2 3.5-25.1 8l-6 3.5V210.3c0-22.4 18.3-40.7 40.7-40.7 22.4 0 40.7 18.3 40.7 40.7v13.3l-50.3-30.4zM444 172.6l-68.9-42.5 21.9-12.7c3.1-1.8 5.9-3.8 8.6-6l68.8 41.3c-12.1 3.4-22.7 10.4-30.4 19.9zM344.1 24.9c10.2-5.8 22-7.3 33.3-4.3 11.3 3.1 20.7 10.4 26.5 20.5 5.8 10.2 7.3 22 4.3 33.3-3.1 11.3-10.3 20.7-20.5 26.6l-30.8 17.8L324.7 99 375 70.8l-42.7-25.7c-4.2-2.6-8.7-4.4-13.2-5.8l25-14.4zM243.3 83.2c-2.9 12.8-1.4 26.1 3.9 37.9L181 158.3v-27c0-3.9-.4-7.8-1.1-11.5l63.4-36.6zm-122 7.5c22.4 0 40.7 18.3 40.7 40.7V169l-33 18.5v-59.4l-35.9 20c-4.6 2.6-8.8 5.8-12.5 9.4v-26.2c.1-22.4 18.3-40.6 40.7-40.6zm-101 303.8c-2.8-11.4-1-23.1 5.1-33.1C38 340.7 65 334.1 85.6 346.6l25.1 15.4v40.2l-49.3-30.5.2 49.9c0 4.9.6 9.6 1.8 14.2l-23.3-14.3c-10-6.1-17-15.7-19.8-27zm243.2 211.8c-21 12-47.8 4.7-59.8-16.3-5.8-10.2-7.3-22-4.3-33.3 3.1-11.3 10.4-20.7 20.5-26.5l31.8-18.4 31.6 19.5-52.8 29 40.3 24.8c5.4 3.3 11.1 5.6 16.9 7.1l-24.2 14.1zm100.6-58.2c2.8-10.2 3.1-21 .5-31.6-.6-2.5-1.4-4.9-2.3-7.3l68.3-38.9V502c0 2.5.2 4.9.5 7.3l-67 38.8zm126.2-5.4c-22.4 0-40.7-18.3-40.7-40.7v-42.5l33.8-19.3v60.3l34.6-20.4c4.8-2.8 9.1-6.1 12.9-9.9V502c.1 22.5-18.2 40.7-40.6 40.7zm94.9-275.8c-9.3 15.5-27.3 22.9-44.8 18.5-3.9-1-7.6-2.5-11.1-4.6L499.6 263v-36l50.3 30.4v-47c0-4.4-.5-8.8-1.4-12.9l22.7 13.7c19.3 11.4 25.5 36.4 14 55.7z"></path></svg>