<svg xmlns="http://www.w3.org/2000/svg" width="603.1" viewBox="0 0 603.1 603.1" height="603.1" xml:space="preserve"><path d="M301.5 603.1c-80.5 0-156.3-31.4-213.2-88.3S0 382.1 0 301.5C0 221 31.4 145.3 88.3 88.3S221 0 301.5 0h30.7v85.1h-30.7c-119.3 0-216.4 97.1-216.4 216.4 0 119.3 97.1 216.4 216.4 216.4s216.4-97.1 216.4-216.4v-77L468.3 187l-49.7 37.6v244.2c-6.8 5.8-20.5 13.1-20.5 13.1-28.9 15.1-63.8 23-96.6 23-112.5 0-204-91.5-204-204s91.5-204 204-204h30.7V182h-30.7c-65.5 0-118.8 53.3-118.8 118.8s53.3 119 118.8 119c11 0 21.6-1.4 31.9-4.3V182.2l134.8-102 134.8 102v119.3c0 80.5-31.4 156.3-88.3 213.2s-132.6 88.4-213.2 88.4z"></path></svg>