<svg data-name="Layer 1" xmlns="http://www.w3.org/2000/svg" viewBox="0 0 613 271.86"><path d="M601.45 271.86h-157.2c-47.11 0-85.44-38.33-85.44-85.43V93.86h165.73c2.88 0 5.4-2.52 5.4-5.4s1.68-5.4-1.2-5.4H347.99v188.8H88.46C39.68 271.86 0 232.18 0 183.4s39.68-88.45 88.46-88.45h82.67v-9.51c0-1.31-1.07-2.37-2.37-2.37H11.61V0h157.14c47.11 0 85.43 38.33 85.43 85.43V178H88.46c-2.88 0-5.4 2.52-5.4 5.4s2.52 5.4 5.4 5.4h176.48V0h263.81c48.78 0 84.26 39.68 84.26 88.46s-39.68 88.46-88.46 88.46h-82.67v9.51c0 1.31 1.07 2.37 2.38 2.37h157.2v83.06Z"></path></svg>