<svg xmlns="http://www.w3.org/2000/svg" width="596.3" viewBox="0 0 596.3 586.4" height="586.4"><path d="M532.9 293.2c17.4-13.5 32-30.5 42.7-49.7 13.5-24.2 20.7-51.8 20.7-79.7 0-22.1-4.3-43.6-12.9-63.8-8.3-19.5-20.1-37-35.1-52.1-15-15-32.6-26.8-52.1-35.1C476.1 4.3 454.6 0 432.5 0H0v20.1c19.4 0 38.2 3.8 55.9 11.3C73 38.6 88.4 49 101.6 62.2c13.2 13.2 23.6 28.6 30.8 45.7 7.5 17.7 11.3 36.5 11.3 55.9 0 36.6-13.8 71.5-38.8 98.2-8.1 8.7-17.3 16.3-27.3 22.7v16.9c10 6.4 19.2 14.1 27.3 22.7 25 26.7 38.8 61.6 38.8 98.2 0 19.4-3.8 38.2-11.3 55.9-7.2 17.1-17.6 32.5-30.8 45.7C88.4 537.4 73 547.8 55.9 555c-17.7 7.5-36.5 11.3-55.9 11.3v20.1h432.5c22.1 0 43.6-4.3 63.8-12.9 19.5-8.3 37-20.1 52.1-35.1s26.8-32.6 35.1-52.1c8.5-20.2 12.9-41.7 12.9-63.8 0-27.9-7.2-55.5-20.7-79.7-10.8-19.1-25.4-36.1-42.8-49.6zm32 185.3c-7.2 17.1-17.6 32.5-30.8 45.7-13.2 13.2-28.6 23.6-45.7 30.8-17.7 7.5-36.5 11.3-55.9 11.3H78.7c13.6-7.4 26-16.8 37.1-27.8 15-15 26.8-32.6 35.1-52.1 8.5-20.2 12.9-41.7 12.9-63.8 0-41.8-15.7-81.5-44.3-112-5.9-6.3-12.3-12.1-19.1-17.4 6.8-5.3 13.2-11.1 19.1-17.4 28.5-30.5 44.3-70.2 44.3-112 0-22.1-4.3-43.6-12.9-63.8-8.3-19.5-20.1-37-35.1-52.1-11.1-11.1-23.5-20.4-37.1-27.8h353.8c19.4 0 38.2 3.8 55.9 11.3 17.1 7.2 32.5 17.6 45.7 30.8 13.2 13.2 23.6 28.6 30.8 45.7 7.5 17.7 11.3 36.5 11.3 55.9 0 24.5-6.3 48.7-18.1 69.9-11.5 20.6-28.1 38.3-48 51v16.9c19.9 12.8 36.5 30.4 48 51 11.9 21.2 18.1 45.4 18.1 69.9 0 19.5-3.8 38.3-11.3 56z"></path></svg>