<svg data-name="Layer 1" xmlns="http://www.w3.org/2000/svg" viewBox="0 0 610.27 540.64"><path d="M302.2 540.64V270.33L101.16 471.37c53.37 42.54 123.77 68.62 201.04 69.26Z"></path><path d="M505.82 66.71 302.19 270.34h308.08c0-81.22-40.44-154.07-104.45-203.63ZM355.34 537.01c125.02-18.34 224.38-103.99 249.02-213.53H355.34v213.53ZM31.22 151.12 138.46 43.88C92.72 70.35 55.5 107.41 31.21 151.13ZM167.15 29.17 18.24 178.08c-3.6 8.77-6.68 17.76-9.25 26.93L196.26 17.73c-9.96 3.37-19.68 7.19-29.11 11.43ZM216.34 11.64 4.6 223.38c-1.36 6.87-2.42 13.82-3.18 20.86L239.34 6.32c-7.78 1.52-15.46 3.29-23 5.32ZM256.16 3.48.27 259.37c-.16 3.64-.27 7.29-.27 10.97 0 2.3.03 4.6.1 6.89l276-276c-6.71.56-13.36 1.32-19.94 2.26ZM305.14 0c-4.74 0-9.45.11-14.13.3L.84 290.46c.44 5.32 1.07 10.6 1.85 15.83L308.94.04c-1.27-.01-2.53-.04-3.8-.04ZM322.52.44 4.77 318.2c.97 4.82 2.1 9.59 3.36 14.32L338.98 1.66c-5.45-.53-10.93-.94-16.46-1.22ZM351.52 3.1 11.27 343.35c1.4 4.43 2.91 8.8 4.55 13.13L366.78 5.52c-5.04-.92-10.13-1.72-15.26-2.42ZM378.42 7.87 19.86 366.42c1.75 4.08 3.61 8.11 5.58 12.1L392.66 11.31c-4.7-1.24-9.45-2.39-14.24-3.44ZM403.56 14.38 30.2 387.74c2.06 3.78 4.22 7.52 6.48 11.21L416.91 18.71c-4.4-1.53-8.85-2.98-13.35-4.33ZM427.12 22.49 42.14 407.47c2.34 3.52 4.77 6.98 7.28 10.4L439.65 27.64c-4.13-1.8-8.3-3.52-12.53-5.15ZM449.26 32.01 55.48 425.78c2.6 3.27 5.28 6.48 8.04 9.65L461.03 37.92c-3.87-2.04-7.79-4.02-11.77-5.91Z"></path></svg>