<svg xmlns="http://www.w3.org/2000/svg" width="616.9" viewBox="0 0 616.9 616.9" height="616.9" xml:space="preserve" style="enable-background:new 0 0 616.9 616.9"><path d="M300.1 167.5C221.1 156.3 156.8 83.8 152.6 0H0c4.4 172.7 136.3 316.6 300.1 321.2V167.5zM316.9 152.6c79.5 4.2 143.3 67.9 147.5 147.5H617C612.6 136.3 480.6 4.4 316.9 0v152.6zM464.4 316.9c-4.2 79.5-67.9 143.2-147.5 147.5V617c163.7-4.4 295.7-136.3 300.1-300.1H464.4zM300.1 464.4c-79.5-4.2-143.2-67.9-147.5-147.5H0C4.4 480.6 136.3 612.6 300.1 617V464.4z"></path></svg>