<svg xmlns="http://www.w3.org/2000/svg" width="642" viewBox="0 0 642 353.1" height="353.1" data-name="Layer 1"><path d="M164.03 184.58h65.89c10.42 0 18.86 8.44 18.86 18.86v65.4h65.89c10.42 0 18.86 8.44 18.86 18.86v65.4h139.96L231.55 111.18a28.89 28.89 0 0 0-20.43-8.46h-18.2c-15.96 0-28.89 12.93-28.89 28.89v52.96ZM333.52 184.58h64.52c10.42 0 18.86 8.44 18.86 18.86v65.4h64.52c10.42 0 18.86 8.44 18.86 18.86v65.4s110.14-.02 141.72 0L401.82 112.93a43.09 43.09 0 0 0-30.47-12.62h-37.83V28.89C333.52 12.93 320.58 0 304.63 0h-54.58c-14.76 0-28.09 10.51-29.92 25.15-.46 3.69-.23 7.27.59 10.62 4.02-3.01 9.01-4.8 14.42-4.8h13.64v69.34h65.89c10.42 0 18.86 8.44 18.86 18.86v65.4ZM79.29 268.84h65.89c10.42 0 18.86 8.44 18.86 18.86v65.4h140.92L147.3 195.44a28.89 28.89 0 0 0-20.43-8.46h-18.69c-15.96 0-28.89 12.93-28.89 28.89v52.97ZM136.42 353.1l-76.74-76.74a25.673 25.673 0 0 0-18.16-7.52H25.67c-14.18 0-25.68 11.5-25.68 25.68v58.58h136.42Z"></path></svg>