<svg xmlns="http://www.w3.org/2000/svg" width="622.9" viewBox="0 0 622.9 621.7" height="621.7" style="enable-background:new 0 0 622.9 621.7" xml:space="preserve"><path d="m482.5 461.9 14-17.5 70 45.3c19.1-27.2 34-57.6 43.7-90.3l-79-26.8 5-21.8 82.7 10.4c2.7-16.4 4.1-33.3 4.1-50.5 0-16.9-1.4-33.6-4-49.8l-82.7 10.2-5-21.8 79-26.6c-9.6-32.7-24.4-63.1-43.5-90.3l-70.1 45.1-13.9-17.5 59.6-58.2c-22.5-24.8-48.9-46-78.3-62.6l-43.6 71.1-20.2-9.7 28.5-78.4C398.4 9.9 365.5 2.1 331.1 0l-8.4 82.9h-22.4L291.9 0c-33.9 2.1-66.3 9.6-96.4 21.7l28.1 78.6-20.2 9.6-43.3-71.3c-29.5 16.4-56 37.5-78.7 62.2l59.4 58.5-14 17.4L57 131.2c-19.2 27.2-34.2 57.5-43.9 90.2l79 27-5.1 21.8-82.8-10.6C1.5 276.2 0 293.4 0 310.8c0 16.7 1.3 33 3.9 49l82.9-10 4.9 21.8L12.5 398c9.5 32.7 24.3 63.2 43.3 90.5l70.3-45L140 461l-60 58.2c22.4 24.9 48.8 46.2 78.2 62.8l43.8-71 20.1 9.8-28.7 78.4c30.5 12.5 63.3 20.3 97.7 22.5l8.6-83 22.4.1 8.2 83c34.4-2.1 67.3-9.7 97.8-22l-28.3-78.5 20.2-9.7 43.4 71.2c29.4-16.5 55.9-37.6 78.5-62.4l-59.4-58.5zm-79.4-36.1-3.6 68-55.4-39.6-32.7 59.7-32.7-59.7-55.4 39.6-3.6-68-67 11.6 26.2-62.8-65.4-18.6 50.9-45.2-50.9-45.2L179 247l-26.2-62.8 67 11.6 3.6-68 55.4 39.6 32.7-59.7 32.7 59.7 55.4-39.6 3.6 68 67-11.6-26.3 62.8 65.4 18.6-50.9 45.2 50.9 45.2-65.4 18.6 26.2 62.8-67-11.6z"></path></svg>