<svg data-name="Layer 1" xmlns="http://www.w3.org/2000/svg" viewBox="0 0 629.68 629.68"><path d="M314.84 0C140.96 0 0 140.96 0 314.84s140.96 314.84 314.84 314.84 314.84-140.96 314.84-314.84S488.72 0 314.84 0Zm255.03 384.47c-5.12 6.91-10.5 13.6-16.15 20.06L383.4 349.41l129.76 94.01c-6.56 5.26-13.35 10.26-20.32 15L369.28 368.9l82.47 113.14c-7.4 3.55-14.95 6.8-22.65 9.78l-79.27-108.76 39.6 121.16c-7.81 1.88-15.74 3.48-23.76 4.77l-38.78-118.66v122.51c-3.99.15-8 .23-12.03.23s-8.04-.08-12.03-.23V390.56l-38.47 118.49c-8.03-1.28-15.95-2.87-23.76-4.75l39.35-121.18-79 108.83c-7.7-2.97-15.26-6.21-22.66-9.75L260.46 369l-123.24 89.65c-6.98-4.73-13.78-9.7-20.35-14.96l129.42-94.15-169.96 55.37c-5.66-6.45-11.07-13.13-16.2-20.03l178.13-58.03H25.87c-1.8-3.97-3.54-7.97-5.18-12.01 1.65-4.07 3.4-8.08 5.21-12.07h213.43L60.12 244.79c5.13-6.91 10.55-13.59 16.22-20.05l169.82 54.96L116.83 186c6.57-5.26 13.38-10.24 20.36-14.97l123.08 89.17-82.12-112.66c7.4-3.54 14.96-6.79 22.67-9.76l78.9 108.24-39.4-120.57c7.81-1.88 15.74-3.48 23.76-4.77l38.74 118.53V116.84c3.99-.15 8-.23 12.03-.23s8.04.08 12.03.23v121.68l38.29-117.91c8.03 1.28 15.95 2.86 23.77 4.73l-39.16 120.61 78.65-108.34c7.71 2.96 15.27 6.2 22.67 9.73l-81.87 112.77 122.84-89.36c6.99 4.72 13.8 9.69 20.38 14.94l-129.07 93.89 169.6-55.25c5.68 6.45 11.12 13.11 16.27 20.01L389.79 302.8h214.02c1.81 3.98 3.55 7.99 5.2 12.05-1.64 4.06-3.39 8.06-5.2 12.03H391.88l178 57.6Z"></path></svg>