<svg xmlns="http://www.w3.org/2000/svg" width="641.6" viewBox="0 0 641.6 642" height="642" style="overflow:visible;enable-background:new 0 0 641.6 642" xml:space="preserve"><path class="st0" d="M513.6 577.8C459.9 618.1 393.2 642 321 642s-138.9-23.9-192.6-64.2h385.2zM583.5 505.6c-3.8 5.5-7.8 10.8-12 16-14.1 17.7-30.2 33.8-47.7 48.2H118.1c-17.5-14.4-33.5-30.5-47.7-48.2-4.2-5.2-8.2-10.6-12-16h525.1zM621.8 433.4c-2 5.5-4.2 10.8-6.5 16h-69.6v48.1H52.9c-13.2-20-24.2-41.5-32.7-64.2h601.6zM639.5 361.1c-.6 5.4-1.4 10.8-2.5 16H425.3v48.2h-408c-7.1-20.5-12.1-42.1-14.8-64.2h637zM641.6 305H317v48.1H1.6C.6 342.6 0 331.8 0 321s.6-21.6 1.6-32.1h638.8c.6 5.3 1 10.7 1.2 16.1zM629.7 232.7H200.6v48.1H2.5c2.7-22.1 7.8-43.7 14.8-64.2h607.3c1.9 5.4 3.6 10.7 5.1 16.1zM599.1 160.5H84.3v48.1h-64c8.5-22.7 19.5-44.2 32.7-64.2h536.2c3.4 5.3 6.7 10.6 9.9 16.1zM421.4 16H220.6C252.1 5.6 285.9 0 321 0s68.9 5.6 100.4 16zM542 88.3H100c5.9-5.5 12-10.9 18.2-16.1h405.6c6.3 5.2 12.4 10.5 18.2 16.1z"></path></svg>