<svg xmlns="http://www.w3.org/2000/svg" width="595.9" viewBox="0 0 595.9 642" height="642" style="overflow:visible;enable-background:new 0 0 595.9 642" xml:space="preserve"><path d="M181 224.7h414.9V0H86.5C79 0 71.9 3.1 66.8 8.6l-59.6 64C2.6 77.5 0 84.1 0 90.9v142.4c0 7.5 3.1 14.6 8.5 19.7l156 145.5 23.6-22c28.6-26.7 28.6-71.9 0-98.6l-54.7-51c-14.5-13.5-23.3-33.2-22.1-54.7 2-37.5 34.5-66.1 72.1-66.1h97.2c5.8 0 10.4 4.7 10.4 10.4 0 5.8-4.7 10.4-10.4 10.4H181c-27 0-49 21.9-49 49 .1 26.9 22 48.8 49 48.8z"></path><path d="M414.9 417.3H0V642h509.5c7.5 0 14.6-3.1 19.7-8.6l59.6-64c4.6-5 7.2-11.5 7.2-18.3V408.7c0-7.5-3.1-14.6-8.5-19.7l-156-145.5-23.6 22c-28.6 26.7-28.6 71.9 0 98.6l54.7 51c14.5 13.5 23.3 33.2 22.1 54.7-2 37.5-34.5 66.1-72.1 66.1h-97.2c-5.8 0-10.4-4.7-10.4-10.4 0-5.8 4.7-10.4 10.4-10.4H415c27 0 49-21.9 49-49-.2-26.9-22.1-48.8-49.1-48.8z"></path><circle cx="253.8" cy="276.9" r="37.7"></circle><circle cx="342.1" cy="276.9" r="37.7"></circle><circle cx="253.8" cy="365.1" r="37.7"></circle><circle cx="342.1" cy="365.1" r="37.7"></circle></svg>