<svg data-name="Layer 1" xmlns="http://www.w3.org/2000/svg" viewBox="0 0 382.99 601.29"><path d="M382.99.14v328.22c-16.48 39.32-21.73 77.05-26.26 115.93 9.05.45 17.35-.44 26.26 0v137.45c-46.39 21.51-119.03 28.88-178.26 3.38 10.21-24.89 21-52.44 28.89-77.04 2.33-7.07 4.52-17.24 5.98-24.6.44-2.22 1.31-4.86 1.61-7.23 1.45-8.84 2.76-17.23 3.34-26.22.44-5.6.74-14.15.44-19.89-.44-6.63-1.02-13.41-1.9-19.88-.87-5.9-1.74-12.08-3.2-17.69-2.2-7.81-3.95-15.46-6.86-22.68-2.03-4.86-4.09-10.03-6.7-14.74-4.38-7.95-7.74-14.14-13.57-21.06-5.69-6.63-13.42-14.44-21.3-22.39 56.17-36.24 85.48-85.88 107.95-136.42 13.42-30.35 27.14-64.81 37.2-95.89 8.76-27.55 14.88-50.83 21.3-79.4L383 .13Z"></path><path d="M0 .14v328.22c16.48 39.32 21.74 77.05 26.25 115.93-9.04.45-17.35-.44-26.25 0v137.45c46.38 21.51 119.03 28.88 178.25 3.38-10.21-24.89-21.01-52.44-28.88-77.04-2.34-7.07-4.53-17.24-5.98-24.6-.44-2.22-1.32-4.86-1.61-7.23-1.45-8.84-2.78-17.23-3.36-26.22-.44-5.6-.73-14.15-.44-19.89.44-6.63 1.02-13.41 1.9-19.88.88-5.9 1.75-12.08 3.21-17.69 2.2-7.81 3.94-15.46 6.86-22.68 2.03-4.86 4.08-10.03 6.7-14.74 4.38-7.95 7.74-14.14 13.57-21.06 5.68-6.63 13.42-14.44 21.29-22.39-56.16-36.24-85.48-85.88-107.94-136.42-13.42-30.35-27.14-64.81-37.2-95.89C37.63 51.86 31.51 28.58 25.08 0L0 .14Z"></path></svg>