<svg id="Layer_1" data-name="Layer 1" xmlns="http://www.w3.org/2000/svg" viewBox="0 0 593.02 593.02">   <path d="M575.39,327.45l-186.09-186.09-79.43,79.43,228.65,228.64,36.88-36.88c23.5-23.5,23.5-61.61,0-85.11Z"></path>   <path d="M143.59,538.52l36.88,36.88c23.5,23.5,61.61,23.5,85.11,0l186.09-186.09-79.43-79.43-228.64,228.64Z"></path>   <path d="M283.15,372.23L54.5,143.59l-36.88,36.88c-23.5,23.5-23.5,61.61,0,85.11l186.09,186.09,79.43-79.43Z"></path>   <path d="M449.43,54.5l-36.88-36.88c-23.5-23.5-61.61-23.5-85.11,0L141.36,203.72l79.43,79.43L449.43,54.5Z"></path> </svg>