<svg xmlns="http://www.w3.org/2000/svg" width="604.3" viewBox="0 0 604.3 604.3" height="604.3" xml:space="preserve" style="enable-background:new 0 0 604.3 604.3"><path d="M601.4 260.8h-90.7c2.6 13.4 4 27.2 4 41.3 0 117.4-95.2 212.6-212.6 212.6S89.5 419.6 89.5 302.1c0-117.4 95.2-212.6 212.6-212.6 30.6 0 59.7 6.5 86 18.1V12.4C360.9 4.4 332 0 302.1 0 135.3 0 0 135.3 0 302.1 0 469 135.3 604.3 302.1 604.3c166.9 0 302.1-135.3 302.1-302.1.1-14.1-.9-27.9-2.8-41.4z"></path><path d="M257.6 343.4h130.6c-15.4 32-48.1 54.1-86 54.1-52.7 0-95.4-42.7-95.4-95.4s42.7-95.4 95.4-95.4c37.8 0 70.5 22 86 54V139c-25.7-13.6-54.9-21.2-86-21.2-101.8 0-184.3 82.5-184.3 184.3 0 101.8 82.5 184.3 184.3 184.3 101.8 0 184.3-82.5 184.3-184.3 0-14.2-1.6-28-4.7-41.3H257.6v82.6z"></path></svg>