<svg xmlns="http://www.w3.org/2000/svg" width="642" viewBox="0 0 642 571.06" height="571.06" data-name="Layer 1"><path d="M276.06 496.91v48.13l12.27 26.02h3.46L547.13 29.68c.6-1.26 1.87-2.07 3.27-2.07H642V0H449.08v27.61h58.19c2.65 0 4.4 2.76 3.27 5.15l-98.08 207.95c-1.29 2.73-5.15 2.77-6.5.07L302.45 32.83c-1.19-2.4.55-5.22 3.23-5.22h80.8V0H220.84v27.61h27.61v27.61h27.61v27.61h27.61v27.61h-27.61v27.61h27.61v27.61h27.61v27.61h27.61v27.61h-27.61v27.61h-27.61v27.61h27.61v27.61h27.61v27.61h-27.61v27.61h-27.61v27.61h27.61v27.61h-27.61v27.61h-27.61v27.61h27.61v27.61h-27.61ZM55.21 0h27.61v27.61H55.21zM110.42 0h27.61v27.61h-27.61zM165.64 0h27.61v27.61h-27.61zM82.82 27.61h27.61v27.61H82.82zM138.03 27.61h27.61v27.61h-27.61z"></path><path d="M193.24 27.61h27.61v27.61h-27.61z"></path><path d="M165.64 55.21h27.61v27.61h-27.61zM220.85 55.21h27.61v27.61h-27.61zM193.24 82.82h27.61v27.61h-27.61zM248.45 82.82h27.61v27.61h-27.61zM110.42 110.42h27.61v27.61h-27.61z"></path><path d="M165.64 110.42h27.61v27.61h-27.61zM220.85 110.42h27.61v27.61h-27.61zM193.24 138.03h27.61v27.61h-27.61zM248.45 138.03h27.61v27.61h-27.61zM165.64 165.64h27.61v27.61h-27.61zM220.85 165.64h27.61v27.61h-27.61zM276.06 165.64h27.61v27.61h-27.61z"></path><path d="M248.45 193.24h27.61v27.61h-27.61zM303.67 193.24h27.61v27.61h-27.61z"></path><path d="M220.85 220.85h27.61v27.61h-27.61zM276.06 220.85h27.61v27.61h-27.61z"></path><path d="M193.24 248.45h27.61v27.61h-27.61zM248.45 248.45h27.61v27.61h-27.61zM220.85 276.06h27.61v27.61h-27.61zM276.06 276.06h27.61v27.61h-27.61zM248.45 303.67h27.61v27.61h-27.61zM303.67 303.67h27.61v27.61h-27.61z"></path><path d="M220.85 331.27h27.61v27.61h-27.61zM276.06 331.27h27.61v27.61h-27.61zM248.45 358.88h27.61v27.61h-27.61z"></path><path d="M220.85 386.48h27.61v27.61h-27.61zM276.06 386.48h27.61v27.61h-27.61zM0 0h27.61v27.61H0z"></path></svg>