<svg data-name="Layer 1" xmlns="http://www.w3.org/2000/svg" viewBox="0 0 609.31 585.75"><path d="M437 0h-77.52c-1.53 0-2.3 1.86-1.22 2.94l76.71 76.7c.94.94.49 2.51-.8 2.87-10.78 2.98-20.46 8.76-28.15 16.46-.67.67-1.74.69-2.42.02L305.26.61a.857.857 0 0 0-1.22 0l-98.35 98.38c-.67.67-1.74.66-2.42-.02-7.7-7.71-17.39-13.49-28.18-16.47-1.27-.35-1.73-1.89-.8-2.82l76.76-76.76c1.09-1.09.3-2.93-1.23-2.93H172.3C77.14 0 0 77.14 0 172.31v241.17c0 95.14 77.13 172.27 172.27 172.27h80.38c1.07 0 1.61-1.3.85-2.06L98.83 429.01S31 377.48 31 292.08c0-70.48 50.71-120.89 61.49-130.8.9-.83 2.32-.39 2.64.8 2.98 10.92 8.77 20.7 16.55 28.5.67.67.69 1.74.01 2.41l-9.92 9.92c-49.57 49.57-49.57 129.95 0 179.53L304.03 584.7c.34.34.88.34 1.22 0l202.26-202.26c49.58-49.58 49.57-129.95 0-179.53l-9.92-9.92c-.67-.67-.66-1.74.01-2.41 7.78-7.8 13.58-17.57 16.56-28.5.32-1.18 1.74-1.63 2.64-.8 10.78 9.92 61.49 60.33 61.49 130.8 0 85.4-67.83 136.9-67.83 136.93L355.78 583.69c-.76.76-.22 2.06.85 2.06h80.38c95.14 0 172.27-77.13 172.27-172.27V172.31C609.31 77.14 532.17 0 437 0ZM33.76 407.27c20.3 20.69 143.86 144.35 143.87 144.35 1.12 1.12.28 3.03-1.3 2.94-141.42-8.37-146.02-123.1-145.51-146.14.03-1.52 1.87-2.24 2.94-1.15Zm394.15-286.38c7.2-7.18 17.62-11.13 28.91-9.45 15.4 2.28 27.47 15.38 28.6 30.91.75 10.27-3.09 19.69-9.71 26.34-.66.66-1.74.65-2.4-.01l-45.38-45.38c-.66-.66-.68-1.74-.01-2.4ZM304.05 47.02c.34-.34.88-.34 1.22 0l173.39 173.39c.67.67.67 1.76 0 2.44l-68.92 71.3c-.37.36-.55.87-.5 1.39l6.86 69.98c.76 7.82-5.41 14.61-13.26 14.61h-56.22c-26.66 0-26.25-28.66-26.25-28.69 0-29.61 41.12-32.29 48.55-32.53.65-.02 1.15-.55 1.15-1.2v-91.48c0-.65.5-1.18 1.15-1.2 9.36-.35 56.65-5.05 56.65-55.16h-89.56v121.81c0 .67-.54 1.21-1.21 1.21h-64.9c-.67 0-1.21-.54-1.21-1.21V169.87h-89.56c0 50.11 47.29 54.82 56.65 55.16.65.02 1.15.55 1.15 1.2v91.48c0 .65.5 1.18 1.15 1.2 7.44.24 48.55 2.92 48.55 32.53 0 .03.41 28.69-26.25 28.69h-56.22c-7.85 0-14.02-6.79-13.26-14.61l6.86-69.98c.05-.51-.13-1.02-.5-1.39l-68.92-71.3c-.67-.67-.67-1.76 0-2.44L304.05 47.03Zm-.02 346.39c.34-.38.92-.38 1.26 0 8.81 9.99 21.4 17.85 41.19 17.85a16.591 16.591 0 0 1 16.61 16.61 16.591 16.591 0 0 1-16.61 16.61h-83.64a16.591 16.591 0 0 1-16.61-16.61 16.591 16.591 0 0 1 16.61-16.61c19.79 0 32.38-7.86 41.19-17.85ZM181.39 120.88c.67.67.64 1.78-.03 2.44l-45.33 45.33c-.67.67-1.78.7-2.44.03a33.66 33.66 0 0 1-9.79-23.79c0-18.67 15.12-33.83 33.83-33.83 9.27 0 17.67 3.76 23.76 9.82ZM39.06 171.07c-1.73 1.73-3.43 3.5-5.08 5.3-1.06 1.15-2.98.39-2.98-1.17v-2.92C31 94.25 94.25 31 172.27 31h6.86L39.06 171.07Zm461 76.8c.58-.58 1.58-.43 1.95.31 18.64 37 12.56 83.35-18.27 114.18L305.26 540.88c-.34.34-.88.34-1.22 0L125.56 362.35c-30.83-30.83-36.91-77.18-18.27-114.18.37-.74 1.37-.89 1.96-.31l57.12 57.12c.44.44.66 1.06.59 1.69l-6.61 60.61c-2.58 23.46 15.81 43.99 39.44 43.99h14.81c.85 0 1.4.84 1.1 1.63-1.83 4.85-2.83 10.03-2.83 15.39 0 26.01 23.77 48.57 49.81 48.57h83.91c26.04 0 49.81-22.56 49.81-48.57 0-5.35-1-10.54-2.83-15.39-.3-.79.26-1.63 1.11-1.63h14.81c23.63 0 42.03-20.53 39.44-43.99l-6.61-60.61c-.07-.62.15-1.24.59-1.69l57.12-57.12Zm75.27-71.5c-1.65-1.8-3.35-3.57-5.08-5.3L430.18 31h6.86c78.02 0 141.27 63.25 141.27 141.27v2.92c0 1.56-1.92 2.32-2.98 1.17Zm-142.35 378.2c-1.58.09-2.42-1.82-1.3-2.94 0 0 123.57-123.66 143.87-144.35 1.07-1.09 2.91-.37 2.94 1.15.51 23.04-4.09 137.77-145.51 146.14Z"></path></svg>