<svg data-name="Layer 1" xmlns="http://www.w3.org/2000/svg" viewBox="0 0 611.57 611.57"><path d="M80.25 80.25V440h439.34c.36 0 .65.29.65.65v78.95c0 .36-.29.65-.65.65H34.63C15.5 520.25 0 504.74 0 485.62V34.63C0 15.51 15.51 0 34.63 0h576.28c.36 0 .65.29.65.65V79.6c0 .36-.29.65-.65.65H80.25Z"></path><path d="M611.57 125.95v450.98c0 19.13-15.51 34.63-34.63 34.63H.65c-.36 0-.65-.29-.65-.65v-78.95c0-.36.29-.65.65-.65h530.67V171.57H91.97c-.36 0-.65-.29-.65-.65V91.97c0-.36.29-.65.65-.65h484.96c19.13 0 34.63 15.51 34.63 34.63Z"></path></svg>