<svg xmlns="http://www.w3.org/2000/svg" width="624.1" viewBox="0 0 624.1 624.1" height="624.1" xml:space="preserve" style="enable-background:new 0 0 624.1 624.1"><path d="M312 0C140 0 0 140 0 312s140 312 312 312 312-140 312-312S484.1 0 312 0zm212.7 296.6c-37.5-47.1-101.3-74.1-174.9-74.1h-29v179.1h58V282.4c31.1 4 73.3 16.1 100.6 50.4 33.5 42.1 35.7 102.9 8.9 148-36.3 59.2-109.6 85.4-176.2 85.4C171.9 566.1 58 452.1 58 312c0-18.6 2-36.7 5.8-54.2 6.1 25.1 17.3 48.9 33.9 69.6 37 46.4 103.1 74.1 177 74.1h29v-179h-58v119.3c-44-5.5-81.2-23.5-102.7-50.5-17.4-21.8-26.2-48.6-26.7-76.2C121.6 132 180.2 94.2 204 82.2 236.8 66.7 273.4 58 312 58c140.1 0 254.1 114 254.1 254.1 0 19.7-2.3 38.9-6.5 57.3-6.2-26.7-17.9-51.6-34.9-72.8z"></path></svg>