<svg xmlns="http://www.w3.org/2000/svg" width="612.4" viewBox="0 0 612.4 579.7" height="579.7" xml:space="preserve"><path d="m182.8 496.2 108.7-72.8.1 156.3h31.1V423.8l108.3 74 26.7-19.3-150.5-103.9-152.1 102.9zM543.4 146.4H413.9l88.8-128.7L477 0l-88.5 128.4L344.1 5.6h-33.2l62.4 172h179.6zM70.5 146.4H200L111.3 17.7 137 0l88.5 128.4L269.8 5.6h33.3l-62.5 172H60.5z"></path><g><path d="m492.5 453.4-38.8-123.1 149.9 44.3 8.8-29.9-149.5-44.2 102.7-81-9.8-32.1-144.4 114 54.5 171.1zM119.9 453.7l38.9-123L8.8 375 0 345l149.5-44.1-102.7-81.1 10.3-31.6 144 113.6-54.3 170.1z"></path></g></svg>