<svg data-name="Layer 1" xmlns="http://www.w3.org/2000/svg" viewBox="0 0 557.45 589.61"><path d="M31.89 290.66c-24.01-38.97 28.67-115.24 97.88-158.11 49.81-30.85 101.46-45.27 138.87-41.97-48.37 48.27-76.03 108.5-50.58 149.81 4.83 7.83 11.24 14.39 18.78 19.86-6.43 4.62-13.14 9.11-20.13 13.42-3.5 2.15-6.99 4.12-10.49 6.11l9.61 24.62c4.89-2.71 9.76-5.51 14.58-8.49 11.79-7.26 22.83-14.92 33.06-22.87 10.61 3.09 22.38 4.79 35.25 4.79 9.4 0 19.29-.89 29.49-2.54l11.28-28.87c-18.53 4.44-35.81 6.12-50.8 4.88 53.56-51.24 74.92-109.67 50.01-150.11-4.88-7.91-11.39-14.53-19.1-20.01 6.03-4.44 12.23-8.66 18.59-12.6 78.97-48.92 162.67-56.63 186.68-17.66 24.01 38.97-20.65 110.06-99.74 158.78-3.54 2.18-7.08 4.25-10.62 6.26l9.59 24.55c4.94-2.73 9.86-5.57 14.73-8.57 94.32-58.11 140.88-141.83 108.28-194.72C532.3 13.22 503.59 0 466.24 0c-42.54 0-94.23 16.9-141.83 46.38-10.85 6.72-21.36 14.23-31.35 22.3-10.6-3.04-22.35-4.72-35.22-4.72-42.54 0-94.23 16.9-141.83 46.38C37.05 159.25-24.53 248.88 9.65 304.36c14.87 24.15 43.52 37.44 80.66 37.44 9.34 0 19.16-.88 29.29-2.51l11.26-28.84c-45.83 10.93-83.85 4.75-98.96-19.8Zm266.35-192.1c7.69 4.01 13.93 9.4 18.21 16.34 19.35 31.41-5.94 83.7-57.9 128.31-7.7-4.05-13.94-9.5-18.26-16.51-19.09-30.98 10.32-85.53 57.95-128.14Z"></path><path d="M424.08 240.53c-32.21 17.84-65.48 29.85-95.88 34.77l-61.87 158.44-50.5-129.33c-32.33 17.92-65.73 29.98-96.23 34.89L21.85 589.61H327.2l-24.79-63.48H535.6l-111.52-285.6ZM382.93 135.14l-43.45 111.28c23.63-5.66 49.3-15.84 75.01-30.45l-31.56-80.83ZM130.86 310.46c23.73-5.66 49.53-15.98 75.36-30.67l-31.69-81.16-43.67 111.83Z"></path></svg>