<svg data-name="Layer 1" xmlns="http://www.w3.org/2000/svg" viewBox="0 0 620.36 620.4"><path d="M322.55 114.76c5.27 10.18 4.72 21.79.92 30.44l-12.77 27.83c15.39.06 30.16 2.67 43.96 7.39l16.65-33.78c3.39-6.89 3.84-14.86 1.25-22.08l-12.43-34.62c-3.55-9.87-1.17-20.9 6.13-28.44l44.13-45.55c-20.96-7.13-42.9-12.12-65.6-14.63l-33.3 44.35c-10.98 14.47-8.67 35.39 1.04 51.75l10.03 17.34ZM393.83 114.52l2.62 19.86c.97 11.42-3.98 21.94-10.81 28.47l-22.42 20.79c13.89 5.83 26.6 13.89 37.73 23.71l28.33-24.85c5.77-5.06 9.24-12.25 9.61-19.92l1.77-36.74c.5-10.48 6.92-19.76 16.55-23.92l58.14-25.15c-16.8-14.77-35.17-27.78-54.89-38.69l-47.78 28.24c-15.69 9.16-21.56 29.37-18.85 48.21ZM462.38 161.45l-5.18 19.35c-3.48 10.93-12.08 18.74-20.88 22.16l-28.71 10.64c10.48 10.56 19.24 22.82 25.86 36.32l35.64-12.09c7.27-2.47 13.23-7.78 16.5-14.72l15.7-33.26c4.48-9.49 13.96-15.6 24.45-15.76l63.44-.98c-9.98-20.26-22.11-39.26-36.08-56.74l-54.87 7.78c-18 2.46-31.16 18.88-35.87 37.32ZM507.74 231.05l-12.19 15.89c-7.4 8.76-18.33 12.69-27.78 12.48l-30.57-1.17c5.54 13.54 8.99 28.15 9.92 43.45l37.6 2.48c7.66.5 15.2-2.12 20.88-7.28l27.24-24.72c7.77-7.05 18.87-9.07 28.62-5.2l58.9 23.35c-1.44-22.82-5.36-44.96-11.47-66.18l-53.73-13.84c-17.57-4.62-36.02 5.51-47.42 20.74ZM523 312.72l-17.35 10.01c-10.19 5.26-21.79 4.7-30.44.89l-27.82-12.79c-.07 15.39-2.69 30.16-7.43 43.96l33.76 16.67c6.88 3.4 14.85 3.86 22.08 1.27l34.63-12.4c9.88-3.54 20.9-1.15 28.43 6.15l45.51 44.16c7.15-20.95 12.15-42.89 14.68-65.59l-44.31-33.34c-14.46-11-35.38-8.7-51.75 1ZM505.82 394.01l-19.86 2.61c-11.43.96-21.93-4-28.46-10.83l-20.77-22.43c-5.84 13.89-13.91 26.59-23.74 37.71l24.82 28.35c5.06 5.78 12.24 9.25 19.91 9.63l36.74 1.8c10.48.51 19.75 6.94 23.91 16.57l25.11 58.16c14.79-16.79 27.8-35.16 38.73-54.86l-28.2-47.8c-9.15-15.69-29.36-21.58-48.19-18.89ZM458.84 462.52l-19.35-5.2c-10.92-3.49-18.73-12.09-22.14-20.9l-10.61-28.72c-10.57 10.47-22.83 19.22-36.34 25.83l12.06 35.65c2.46 7.27 7.77 13.23 14.71 16.52l33.25 15.73c9.48 4.49 15.59 13.97 15.74 24.46l.93 63.45c20.27-9.96 39.28-22.09 56.77-36.04l-7.73-54.87c-2.44-18-18.86-31.18-37.29-35.9ZM389.2 507.83l-15.88-12.21c-8.75-7.4-12.67-18.34-12.45-27.79l1.19-30.57c-13.54 5.53-28.16 8.97-43.46 9.89l-2.51 37.59c-.51 7.66 2.11 15.2 7.26 20.89l24.69 27.26c7.04 7.77 9.05 18.88 5.18 28.63l-23.4 58.88c22.83-1.42 44.97-5.33 66.19-11.41l13.88-53.71c4.64-17.56-5.48-36.02-20.7-47.44ZM297.52 505.66c-5.25-10.19-4.68-21.8-.87-30.44l12.82-27.81c-15.39-.08-30.16-2.71-43.95-7.46l-16.7 33.75c-3.41 6.88-3.87 14.85-1.29 22.08l12.38 34.64c3.53 9.88 1.13 20.9-6.18 28.43l-44.2 45.48c20.95 7.17 42.88 12.18 65.58 14.74l33.37-44.28c11.01-14.45 8.73-35.37-.96-51.75l-10-17.36ZM226.25 505.77l-2.59-19.86c-.95-11.43 4.02-21.93 10.85-28.45l22.45-20.75c-13.88-5.85-26.58-13.93-37.69-23.77l-28.37 24.8c-5.78 5.05-9.26 12.24-9.64 19.9l-1.83 36.74c-.52 10.48-6.96 19.74-16.59 23.89l-58.18 25.06c16.77 14.8 35.14 27.83 54.84 38.77l47.82-28.15c15.7-9.13 21.61-29.34 18.93-48.18ZM157.77 458.73l5.21-19.34c3.5-10.92 12.11-18.72 20.92-22.13l28.73-10.59c-10.46-10.58-19.21-22.84-25.8-36.36l-35.66 12.03c-7.27 2.45-13.24 7.76-16.53 14.7l-15.76 33.24c-4.49 9.48-13.99 15.58-24.47 15.72l-63.45.88c9.95 20.28 22.06 39.3 36 56.8l54.88-7.69c18-2.43 31.19-18.83 35.93-37.26ZM112.52 389.05l12.22-15.87c7.41-8.75 18.35-12.66 27.8-12.43l30.57 1.22c-5.52-13.55-8.94-28.16-9.86-43.46l-37.59-2.54c-7.66-.52-15.2 2.1-20.89 7.25l-27.28 24.67c-7.78 7.04-18.88 9.03-28.63 5.15L0 329.59c1.4 22.83 5.3 44.97 11.36 66.2l53.7 13.93c17.56 4.65 36.03-5.45 47.46-20.66ZM97.4 307.36l17.37-9.98c10.2-5.24 21.8-4.67 30.44-.84l27.8 12.84c.09-15.38 2.73-30.16 7.5-43.95l-33.73-16.73c-6.88-3.41-14.85-3.88-22.08-1.3l-34.65 12.35c-9.88 3.52-20.9 1.12-28.42-6.2l-45.44-44.24C9 230.25 3.97 252.19 1.4 274.88l44.25 33.41c14.44 11.02 35.37 8.76 51.75-.92ZM114.71 226.11l19.87-2.57c11.43-.94 21.93 4.04 28.44 10.88l20.73 22.46c5.86-13.87 13.96-26.56 23.81-37.66l-24.77-28.39c-5.05-5.78-12.23-9.27-19.9-9.66l-36.74-1.86c-10.48-.53-19.74-6.97-23.88-16.61l-25.01-58.2c-14.82 16.76-27.85 35.12-38.81 54.81l28.11 47.84c9.12 15.71 29.32 21.63 48.16 18.97ZM161.81 157.67l19.34 5.23c10.92 3.51 18.71 12.12 22.11 20.94l10.57 28.74c10.59-10.45 22.86-19.19 36.38-25.78l-12-35.67c-2.45-7.28-7.75-13.25-14.68-16.54l-33.22-15.78c-9.48-4.5-15.57-14-15.7-24.49l-.82-63.46c-20.29 9.93-39.31 22.04-56.83 35.96l7.64 54.88c2.41 18 18.8 31.21 37.23 35.96ZM231.52 112.48l15.86 12.23c8.74 7.42 12.64 18.36 12.41 27.81l-1.24 30.57c13.55-5.51 28.17-8.92 43.47-9.82l2.57-37.58c.52-7.66-2.09-15.2-7.23-20.9l-24.65-27.3c-7.03-7.79-9.02-18.89-5.13-28.63L291.09 0c-22.83 1.39-44.98 5.26-66.22 11.31L210.9 65c-4.67 17.56 5.42 36.03 20.62 47.47Z"></path></svg>