<svg xmlns="http://www.w3.org/2000/svg" width="616.5" viewBox="0 0 616.5 554.4" height="554.4" style="enable-background:new 0 0 616.5 554.4" xml:space="preserve"><path d="M128.2 277.2c0 99.3 80.8 180 180 180 99.3 0 180-80.8 180-180 0-99.3-80.8-180-180-180-99.2-.1-180 80.7-180 180zm327.2 0c0 81.1-66 147.1-147.1 147.1s-147.1-66-147.1-147.1 66-147.1 147.1-147.1 147.1 66 147.1 147.1z"></path><path d="M176.8 277.2c0 72.5 59 131.5 131.5 131.5s131.5-59 131.5-131.5-59-131.5-131.5-131.5c-72.6 0-131.5 59-131.5 131.5zm230 0c0 54.3-44.2 98.6-98.6 98.6-54.3 0-98.6-44.2-98.6-98.6 0-54.3 44.2-98.6 98.6-98.6 54.4 0 98.6 44.2 98.6 98.6z"></path><path d="M225.3 277.2c0 45.7 37.2 82.9 82.9 82.9s82.9-37.2 82.9-82.9-37.2-82.9-82.9-82.9-82.9 37.2-82.9 82.9zm132.9 0c0 27.6-22.4 50-50 50s-50-22.4-50-50 22.4-50 50-50 50 22.4 50 50z"></path><path d="M464.8 48.6C420.2 17.9 366.3 0 308.2 0H0v505.8h151.7c44.6 30.6 98.5 48.6 156.6 48.6h308.2V48.6H464.8zm118.8 32.9v163.6c-7.4-63.5-36.3-120.6-79.2-163.6h79.2zM177.3 32.9C99.2 74.9 43.5 153.3 32.9 245.3V32.9h144.4zm-144.4 440V309.2c7.3 63.5 36.3 120.6 79.2 163.7H32.9zm129.3 0C102.6 428.3 64 357.2 64 277.2 64 142.5 173.5 32.9 308.2 32.9c30.3 0 59.3 5.5 86 15.7h-86c-126.1 0-228.6 102.6-228.6 228.6 0 82.9 44.3 155.6 110.6 195.7h-28zm341.7-195.7c0 107.9-87.8 195.7-195.7 195.7-107.9 0-195.7-87.8-195.7-195.7 0-107.9 87.8-195.7 195.7-195.7 108 0 195.7 87.8 195.7 195.7zM222.2 505.8h86c126.1 0 228.6-102.6 228.6-228.6 0-82.9-44.3-155.6-110.6-195.7h28c59.6 44.6 98.2 115.7 98.2 195.7 0 134.7-109.6 244.3-244.3 244.3-30.1 0-59.1-5.6-85.9-15.7zm216.9 15.7c78.1-42 133.8-120.4 144.4-212.3v212.3H439.1z"></path></svg>