<svg xmlns="http://www.w3.org/2000/svg" width="626.5" viewBox="0 0 626.5 624.9" height="624.9" xml:space="preserve"><path d="M282.5 0C123.9 15.5 0 149.1 0 311.8c0 32 4.8 62.9 13.8 92.1L250.5 30.1c11-20.1 23.8-27.4 32-30.1zM219.6 577.5c1.3-1.7 2.6-3.5 3.8-5.4L392.9 308c13-20.5 18-25.3 23.7-26.4 2.4-.4 10.3-.2 10.3-.2h124.5c5.8 0 7.7 4.9 7.7 4.9s39.7 76.3 56.3 108c7.2-26.3 11-54 11-82.5 0-136.2-86.9-252-208.2-295.2 14.9 29 49.3 96.1 52.4 101.5 3.8 6.9-1.9 7.1-1.9 7.1H340.6c-19.2 0-30.1 19.2-30.1 19.2L152.8 393.1c-11 17-34.1 15.9-34.1 15.9H15.4c15.1 46.2 40.6 87.7 73.8 121.6l229-356.8c16.8-29.7 34.1-26.6 34.1-26.6h128.9c5.8 0 7.7 4.9 7.7 4.9s49.5 94.5 53.3 101.4c3.8 6.9-1.9 7.1-1.9 7.1H416.5c-11.5 0-23.3 4.7-29.4 14.8l-2.9 4.4-152.8 238.7c-11 17-34.1 15.9-34.1 15.9H93c16.3 16.1 34.3 30.4 53.8 42.7 10.3 6.5 22.2 14 34.5 15.9 14 2.1 25.3-4 32-9.2 2.5-1.9 4.5-4 6.3-6.3z"></path><path d="M543.5 401.5H478c-7.4 0-13 2.6-17 5.3-4.1 2.9-6.9 6.8-9.6 10.9l-3.5 5.2-126.6 202c138.1-3.5 254-96.4 292-222.9l-.5-.5h-69.3z"></path></svg>