<svg data-name="Layer 1" xmlns="http://www.w3.org/2000/svg" viewBox="0 0 600.68 627.84"><path d="M31.76 0h537.42c17.39 0 31.5 14.12 31.5 31.5v136.34c0 17.39-14.12 31.5-31.5 31.5H31.76c-17.39 0-31.5-14.12-31.5-31.5V31.5C.26 14.12 14.38 0 31.76 0ZM263.34 209.26H31.74c-17.39 0-31.49 14.09-31.5 31.48L0 596.31c-.01 17.41 14.1 31.52 31.5 31.52h231.6c17.39 0 31.49-14.09 31.5-31.48l.24-355.57c.01-17.41-14.1-31.52-31.5-31.52ZM567.87 209.26h-231.6c-17.39 0-31.49 14.09-31.5 31.48l-.24 355.57c-.01 17.41 14.1 31.52 31.5 31.52h231.6c17.39 0 31.49-14.09 31.5-31.48l.24-355.57c.01-17.41-14.1-31.52-31.5-31.52Z"></path></svg>