<svg xmlns="http://www.w3.org/2000/svg" width="624.2" viewBox="0 0 624.2 465.2" height="465.2" xml:space="preserve" style="enable-background:new 0 0 624.2 465.2"><path d="M552.6 12.3 371.9 116s-11.1 6.9-26.9 12.5c-1.4.5-2.8 1-4.2 1.4-18.6 5.8-38.6 5.8-57.2 0-1.4-.5-2.9-.9-4.2-1.4-15.8-5.5-26.9-12.5-26.9-12.5L71.6 12.3C54.2 2.6-4.6-22.4.3 48.5c0 0 5.7 101.9 56.4 142.4 0 0 19.4 17.5 47.2 7.9l177-63.1c1.8-.7 3.6 1 3.1 2.9l-48.8 175c-11.3 40.6-4.4 84.7 20.7 118.5 13.7 18.5 31.9 33.2 55.2 33.2h2.2c23.4 0 41.7-14.9 55.5-33.6 24.9-33.8 31.7-77.7 20.4-118.1l-48.8-175c-.5-1.9 1.3-3.6 3.1-2.9l177 63.1c27.8 9.6 47.2-7.9 47.2-7.9 50.7-40.5 56.4-142.4 56.4-142.4 4.7-70.9-54.1-45.9-71.5-36.2z"></path><path d="m245.4 173.5-131.5 47c-53 18.9-66.7 87.5-25.2 125.4 41 37.4 107.1 18.5 122.1-35l37.7-134.5c.6-1.9-1.2-3.6-3.1-2.9zM510.3 220.5l-131.5-47c-1.8-.7-3.6 1-3.1 2.9l37.7 134.5c15 53.5 81.1 72.4 122.1 35 41.6-37.9 27.8-106.5-25.2-125.4z"></path></svg>