<svg data-name="Layer 1" xmlns="http://www.w3.org/2000/svg" viewBox="0 0 624.57 445.47"><path d="M240.28 126.45H129.1l55.59 96.28h111.18l-55.59-96.28z"></path><path d="M184.69 222.73H73.51l55.59 96.29h111.18l-55.59-96.29zM116.14 103.6H228.4L168.59 0H56.32L0 97.55l59.71 103.6 56.32-97.55h.11z"></path><path d="M253.36 341.87H140.98l59.82 103.6h112.26l56.32-97.55-59.71-103.6-56.31 97.55zM495.46 126.45H384.29l55.59 96.28h111.17l-55.59-96.28z"></path><path d="M439.88 222.73H328.7l55.59 96.29h111.17l-55.58-96.29zM371.21 103.6h112.37L423.77 0H311.5l-56.32 97.55 59.71 103.6 56.32-97.55z"></path><path d="m564.86 244.32-56.32 97.55H396.17l59.81 103.6h112.27l56.32-97.55-59.71-103.6z"></path></svg>