<svg data-name="Layer 1" xmlns="http://www.w3.org/2000/svg" viewBox="0 0 619.77 622.08"><path d="M618.42 271.3C598.69 116.63 466.05 0 309.89 0S21.08 116.64 1.36 271.32v.06c-.6 4.68-.97 9.42-1.36 14.16h284.38V98.95h51v186.59h284.39c-.39-4.76-.76-9.53-1.36-14.22v-.02Zm-257.78-11.01V73.7h-101.5v186.59H28.58C52.75 125.32 171.22 25.25 309.89 25.25S567.03 125.32 591.2 260.29H360.64ZM619.77 336.55H335.39v186.59h-51V336.55H0c.39 4.74.76 9.49 1.35 14.16v.06c19.73 154.68 152.37 271.32 308.54 271.32s288.8-116.63 308.53-271.31v-.01c.6-4.7.97-9.46 1.36-14.22ZM309.88 596.84c-138.67 0-257.14-100.07-281.3-235.04h230.55v186.59h101.5V361.8h230.56c-24.16 134.98-142.64 235.05-281.31 235.05Z"></path></svg>