<svg xmlns="http://www.w3.org/2000/svg" width="598" viewBox="0 0 598 598" height="598"><path d="M95 281.7C38.8 308.3 0 365.5 0 431.8 0 523.6 74.4 598 166.2 598c66.3 0 123.5-38.8 150.2-95-116-13.4-208-105.4-221.4-221.3zM345.7 0C206.3 0 93.3 113 93.3 252.4c0 9.9.6 19.7 1.7 29.3 21.6-10.2 45.7-16 71.2-16 91.8 0 166.2 74.4 166.2 166.2 0 25.5-5.7 49.6-16 71.2 9.6 1.1 19.4 1.7 29.3 1.7 139.4 0 252.4-113 252.4-252.4S485 0 345.7 0zM404 360.3c-91.8 0-166.2-74.4-166.2-166.2S312.2 27.9 404 27.9c91.8 0 166.2 74.4 166.2 166.2S495.7 360.3 404 360.3z"></path></svg>