<svg data-name="Layer 1" xmlns="http://www.w3.org/2000/svg" viewBox="0 0 607.08 607.07"><path d="M605.84 276.01C592.99 130.41 478.03 14.9 332.51 1.35A313.2 313.2 0 0 0 303.44 0h-2.72c-15.88.16-29.23 11.1-32.47 26.61-3.23 15.48 4.62 30.8 19.09 37.27 44.24 19.77 68.75 67.25 59.62 115.49-7.95 42.01-41.76 74.93-84.12 81.9-34.08 5.6-67.58-5.17-91.37-28.96-19.63-19.63-30.44-45.74-30.44-73.5 0-14.03 2.74-27.62 8.15-40.4 4.33-10.24 3.29-21.83-2.77-30.99-6.12-9.24-16.36-14.76-27.4-14.76-8.27 0-16.22 3.16-22.37 8.89C29.92 143.71-5.09 231.69.6 322.93c9.21 147.68 127.1 269.26 274.23 282.82 9.57.88 19.22 1.33 28.7 1.33h.02c84.91 0 166.52-35.93 223.9-98.59 58.19-63.56 86.03-146.11 78.4-232.46ZM492.18 492.89c-56.33 56.12-134.35 84.1-214.03 76.76-129.5-11.93-233.27-118.97-241.37-248.98-4.7-75.35 22.11-148.18 73.89-202.11-3.9 12.99-5.87 26.46-5.87 40.23 0 41.24 18.05 80.21 49.52 106.92 31.44 26.7 73.16 38.11 114.43 31.31 13-2.14 25.36-6.17 36.9-11.66l-72.54 177.82 8.88 74.59 60.56-148.35 187.69-22.76 60.86-44.04-232.77 28.17 56.58-138.6-.1-.02c3.38-8.33 6.07-17.02 7.78-26.06 11.48-60.61-16.73-120.4-69.21-149.69 5.26.19 10.54.53 15.79 1.02 128.08 11.94 229.28 113.62 240.6 241.77 7.03 79.69-21.24 157.57-77.57 213.7Z"></path><circle cx="272.97" cy="179.23" r="48.19"></circle></svg>