<svg data-name="Layer 1" xmlns="http://www.w3.org/2000/svg" viewBox="0 0 615.82 538.88"><path d="m458.81 34.6-24.72 154.56h-17.98l25.96-162.29c-7.74-3.28-15.68-6.24-23.76-8.96l-27.39 171.25h-17.98l28.23-176.54c-7.29-2.02-14.71-3.77-22.21-5.33l-29.09 181.87h-17.98L361.48 4.15c-7.46-1.15-14.99-2.13-22.62-2.79l-30.04 187.8h-17.98L321.04.29C316.68.13 312.31 0 307.9 0c-3.33 0-6.62.13-9.92.22l-30.22 188.94h-17.98l30.08-188c-7.92.63-15.75 1.53-23.49 2.67l-29.64 185.33h-17.98L237.86 7.09C101.57 34.85 0 141.73 0 269.44 0 370.7 63.87 458.87 158.24 504.9l24.82-155.18h17.98L175 512.54c7.1 2.98 14.38 5.66 21.76 8.17l27.35-170.99h17.98l-28.2 176.32c7.28 2.04 14.7 3.83 22.2 5.4l29.06-181.71h17.98l-29.57 184.89c7.46 1.16 14.98 2.17 22.61 2.85l30.03-187.74h17.98l-30.21 188.85c4.62.18 9.26.31 13.93.31 3.06 0 6.09-.12 9.12-.2l30.22-188.96h17.98l-30.08 188.05c8.67-.67 17.22-1.66 25.66-2.94l29.61-185.11h17.98l-29.08 181.79c135.59-28.2 236.48-134.79 236.48-262.07 0-100.81-63.31-188.64-157.01-234.84Z"></path></svg>