<svg xmlns="http://www.w3.org/2000/svg" width="411.8" viewBox="0 0 411.8 611.7" height="611.7" xml:space="preserve" style="enable-background:new 0 0 411.8 611.7"><path d="M327.6 239.6h68.8v-68.5H213.3v194h68.5v-74c37.6 24.9 61.5 67.4 61.5 114.7 0 75.8-61.6 137.4-137.4 137.4-75.8 0-137.4-61.6-137.4-137.4 0-46.2 23.1-88.2 59.5-113.3v72.6h68.5v-194H13.4v68.5h70.9C32.5 277.5 0 338.7 0 405.8c0 113.5 92.4 205.9 205.9 205.9s205.9-92.4 205.9-205.9c0-67.4-32.5-128.3-84.2-166.2zM203.9 160.7c44.4 0 80.4-36 80.4-80.4 0-44.4-36-80.4-80.4-80.4-44.4 0-80.4 36-80.4 80.4 0 44.5 36 80.4 80.4 80.4z"></path></svg>