<svg data-name="Layer 1" xmlns="http://www.w3.org/2000/svg" viewBox="0 0 570.53 614.72"><path d="M494 275.27V186.9l-76.47-44.15V54.24L323.6 0l-93.93 54.24v88.43l-59.2 34.18-76.53-44.19L0 186.89v108.47l76.53 44.18v88.38l76.53 44.18v88.38l93.93 54.23 93.93-54.23V472.1l59.13-34.14 76.53 44.18 93.93-54.23V319.44l-76.53-44.18Zm41.73 112.47L494 363.65v-48.18l41.73 24.09v48.19ZM306.13 520.3l-41.73-24.09v-48.18l41.73 24.09v48.18Zm76.53-132.56-41.73-24.09v-48.18l41.73 24.09v48.19ZM264.4 182.9l41.73 24.09v48.18l-41.73-24.09V182.9Zm135.66 126.51-59.13-34.14v-68.28l41.73-24.09v68.28l59.13 34.14-41.73 24.09Zm-111.34-24.09-41.73 24.09-59.13-34.14v-68.28l41.73-24.09v68.28l59.13 34.14Zm-100.86 30.14 41.73 24.09v48.19l-41.73-24.09v-48.18Zm76.53 92.37v-68.28l41.73-24.09v68.28l59.13 34.14-41.73 24.09-59.13-34.14Zm194.8-152.65-41.73-24.09v-48.18L459.19 207v48.18Zm-76.47-132.66-41.73-24.09V50.24l41.73 24.09v48.18ZM264.46 74.34l41.73-24.09v68.27l59.13 34.14-41.73 24.09-59.13-34.14V74.33Zm-111.4 180.84-41.73-24.09v-48.18L153.06 207v48.18ZM34.8 207l41.73-24.09v68.28l59.13 34.14-41.73 24.09-59.13-34.14V207Zm76.53 132.56 41.73-24.09v68.28l59.13 34.14-41.73 24.09-59.13-34.14v-68.28Zm76.53 200.84v-68.28l41.73-24.09v68.28l59.13 34.14-41.73 24.09-59.13-34.14Zm229.6-132.57v-68.28l41.73-24.09v68.28l59.13 34.14-41.73 24.09-59.13-34.14Z"></path></svg>