<svg xmlns="http://www.w3.org/2000/svg" width="599.6" viewBox="0 0 599.6 599.6" height="599.6" xml:space="preserve"><circle cx="299.8" cy="299.8" r="145.8"></circle><path d="M0 299.8c0 80.5 65.3 145.8 145.8 145.8V154C65.3 154 0 219.3 0 299.8zM453.8 154v291.7c80.5 0 145.8-65.3 145.8-145.8S534.3 154 453.8 154zM299.8 599.6c80.5 0 145.8-65.3 145.8-145.8H154c0 80.5 65.3 145.8 145.8 145.8zM299.8 0C219.3 0 154 65.3 154 145.8h291.7C445.7 65.3 380.4 0 299.8 0zM453.8 599.6c80.5 0 145.8-65.3 145.8-145.8H453.8v145.8zM145.8 599.6V453.8H0c0 80.5 65.3 145.8 145.8 145.8zM0 145.8h145.8V0C65.3 0 0 65.3 0 145.8zM453.8 0v145.8h145.8C599.6 65.3 534.3 0 453.8 0z"></path></svg>