<svg xmlns="http://www.w3.org/2000/svg" width="642" viewBox="0 0 642 569.4" height="569.4" style="overflow:visible;enable-background:new 0 0 642 569.4" xml:space="preserve"><path d="M420.6 124.7 475 30.4c5.6-9.7 19.5-9.7 25.1 0l128.2 222.1c7.4 12.9-1.9 29-16.7 29H511.2c-5.2 0-10-2.8-12.5-7.2l-78-135.1c-2.7-4.5-2.7-10-.1-14.5zM409 164.1l62.2 107.8c2.5 4.3-.6 9.7-5.6 9.7H341.2c-5 0-8-5.4-5.6-9.7l62.2-107.8c2.5-4.3 8.7-4.3 11.2 0zM642 292.6c0 .4-.1.8-.3 1.2l-51.3 89c-14.4 24.9-40.9 40.3-69.7 40.3H259.5c-5 0-8-5.4-5.6-9.7L314.8 308c2.6-4.5 7.4-7.2 12.5-7.2h275.3c13.1 0 25.4-3.7 35.7-10.2.4-.3.8-.4 1.4-.4 1.2 0 2.3 1.1 2.3 2.4zM557.3 438.9c0 .8-.2 1.9-.8 2.4l-49.6 86c-15 26-42.8 42.1-72.9 42.1H182c-8 0-13.1-8.7-9.1-15.7l62.5-108.2c1.1-2 3.3-3.2 5.6-3.2h279c11.2 0 21.8-2.8 31.1-7.6 3.6-1.1 6.2 1.4 6.2 4.2zM473.8 7.9c-.5.3-.9.5-1.3.7-10.1 5.7-18.5 13.9-24.5 23.6-.6 1-1.2 2.1-1.8 3.1L159.6 531.8c-.6 1-1.1 1.9-1.6 2.8-2.6 4.7-4.6 9.8-6 15.1 0 .1-.1.2-.1.3-1.1 3.9-6.3 4.6-8.4.6L96 468.2c-11.5-19.9-11.5-44.4 0-64.4L310.6 32.2C322.1 12.3 343.3 0 366.3 0h104.9c4 .1 5.9 5.3 2.6 7.9zM309.2 8.6c-9.5 5.3-17.6 12.9-23.5 21.9l-.2.1-1 1.7c-.6 1-1.2 2.1-1.7 3l-35.6 61.5L75.3 394.5c-3.5 5.7-6.2 12.4-6.9 15.6-1.3 2.4-4.3 2.4-5.7.5-.2-.6-12.7-22.1-54.1-93.7-11.5-19.9-11.5-44.5 0-64.4L135.9 32.2C147.3 12.3 168.6 0 191.6 0h116c4.4 0 6.5 6.2 1.6 8.6z"></path></svg>