<svg data-name="Layer 1" xmlns="http://www.w3.org/2000/svg" viewBox="0 0 616.99 598.39"><path d="M125.48 292.62C92.4 262.1 52.43 241.09 9.38 231.05 3.26 255.29 0 280.67 0 306.81 0 441.82 86.74 556.58 207.53 598.4V458.6c0-64.03-34.89-122.47-82.05-165.97Z"></path><path d="M32 169.84c50.88 13.22 98.06 38.79 137.45 75.12 30.5 28.14 56.78 61.27 75.14 97.8 14.68 29.22 23.83 60.89 27.79 93.32 1.76 14.45 3.09 28.99 3.7 43.53V0C168.8 11.2 77.89 77.37 32 169.84ZM607.61 231.06c-43.05 10.04-83.02 31.05-116.1 61.57-47.16 43.5-82.05 101.95-82.05 165.97v139.8c120.79-41.82 207.53-156.57 207.53-291.59 0-26.14-3.26-51.51-9.37-75.75Z"></path><path d="M447.54 244.96c39.38-36.33 86.57-61.9 137.45-75.12C539.1 77.37 448.18 11.2 340.92 0v479.62c.61-14.55 1.93-29.08 3.7-43.53 3.96-32.43 13.11-64.1 27.79-93.32 18.35-36.53 44.64-69.66 75.14-97.8Z"></path></svg>