<svg data-name="Layer 1" xmlns="http://www.w3.org/2000/svg" viewBox="0 0 621.99 621.99"><path d="M305.15 533.95v-89.7c0-70.35-57.24-127.58-127.58-127.58h-78v31.62h78.01c52.91 0 95.94 43.04 95.94 95.95v89.7h-11.87v-89.7c0-46.35-37.72-84.07-84.07-84.07H99.57v31.62h78.02c28.92 0 52.43 23.53 52.43 52.45v89.7h-.05v7.97l80.92 80.07 80.92-80.07v-7.97h-86.66Z"></path><path d="m621.99 310.94-80.07-80.92h-7.97v86.82h-89.7c-70.35 0-127.58 57.24-127.58 127.58v78.01h31.62v-78.01c0-52.91 43.04-95.94 95.95-95.94h89.7v11.87h-89.7c-46.35 0-84.07 37.72-84.07 84.07v78.02h31.62v-78.02c0-28.92 23.53-52.43 52.45-52.43h89.7v.05h7.97l80.07-80.92-.08-.08.08-.08ZM88.04 305.15h89.7c70.35 0 127.58-57.24 127.58-127.58V99.41H273.7v78.17c0 52.91-43.04 95.94-95.95 95.94H88.04v-11.87h89.7c46.35 0 84.07-37.72 84.07-84.07V99.41h-31.62v78.18c0 28.92-23.53 52.43-52.45 52.43l-97.67-.05L0 310.89l80.07 80.92h7.97v-86.66Z"></path><path d="M316.68 88.04v89.7c0 70.35 57.24 127.58 127.58 127.58h77.04V273.7h-77.04c-52.91 0-95.94-43.04-95.94-95.95V88.04h11.87v89.7c0 46.35 37.72 84.07 84.07 84.07h77.05v-31.62h-77.05c-28.92 0-52.43-23.53-52.43-52.45l.05-89.7v-7.97L310.94 0l-80.92 80.07v7.97h86.66Z"></path></svg>