<svg xmlns="http://www.w3.org/2000/svg" width="621.9" viewBox="0 0 621.9 638.2" height="638.2" xml:space="preserve" style="enable-background:new 0 0 621.9 638.2"><path d="M551.1 328.2h-232v181.1c0 21.2-17.2 38.4-38.4 38.4h-74.6c-21.2 0-38.4-17.2-38.4-38.4V126.8c0-21.2 17.2-38.4 38.4-38.4h74.6c21.2 0 38.4 17.2 38.4 38.4v181.1H550c39.1 0 70.9-31.7 70.9-70.9 0-9.8-2.5-19-5.8-28.1C570.4 87 454 0 317.2 0 142 0 0 142.9 0 319.1c0 176.2 142 319.1 317.2 319.1 136.4 0 252.7-86.6 297.5-208.2 3.7-10.1 7.1-20.1 7.1-31 .1-39.1-31.6-70.8-70.7-70.8z"></path></svg>