<svg data-name="Layer 1" xmlns="http://www.w3.org/2000/svg" viewBox="0 0 610.87 610.86"><path d="m327.85.91 43.65 86.53c93.49 28.39 161.74 115.36 161.74 217.99 0 112.37-81.81 205.94-188.98 224.42V220.42c32.24 14.78 54.73 47.28 54.73 85.01 0 26.89-11.47 51.1-29.7 68.18v90.6c62.85-25.37 107.33-86.96 107.33-158.79 0-67.85-39.67-126.6-97.04-154.28L305.44 0 231.3 151.15c-57.37 27.68-97.04 86.43-97.04 154.28 0 71.83 44.49 133.42 107.33 158.79v-90.6c-18.23-17.08-29.7-41.29-29.7-68.18 0-37.73 22.49-70.23 54.73-85.01v309.43C159.44 511.37 77.64 417.81 77.64 305.44c0-102.52 68.08-189.41 161.41-217.9L282.92.92C124.98 12.5 0 144.6 0 305.43s137.02 305.43 305.44 305.43 305.43-137.02 305.43-305.43S485.83 12.44 327.85.91Z"></path></svg>