<svg id="Layer_1" data-name="Layer 1" xmlns="http://www.w3.org/2000/svg" viewBox="0 0 628.65 544.54">   <polygon points="236.21 182.64 236.18 182.52 236.15 182.53 236.21 182.64"></polygon>   <polygon points="208.18 280.22 212.78 272.28 161.83 184.5 263.78 8.51 476.1 8.39 471.13 0 259.35 .32 152.64 184.5 208.18 280.22"></polygon>   <polygon points="276.26 29.7 186.58 184.5 195.76 184.5 280.73 37.83 493.04 37.76 492.74 37.24 492.77 37.24 489.11 30.94 488.46 29.81 488.45 29.81 488.16 29.31 276.26 29.7"></polygon>   <polygon points="267.79 15.02 169.61 184.5 178.79 184.5 272.25 23.17 484.57 23.07 479.99 15.13 479.92 15.13 479.65 14.66 267.79 15.02"></polygon>   <polygon points="267.82 14.98 267.85 14.98 267.82 14.98 267.82 14.98"></polygon>   <polygon points="352.08 161.86 356.66 169.81 475.35 169.81 581.39 354.08 585.99 346.14 479.95 161.86 352.08 161.86"></polygon>   <polygon points="343.61 147.18 348.2 155.13 483.85 155.13 589.89 339.41 594.48 331.48 488.45 147.18 343.61 147.18"></polygon>   <polygon points="335.14 132.49 339.73 140.44 492.35 140.44 598.38 324.74 602.98 316.81 496.95 132.49 335.14 132.49"></polygon>   <polygon points="505.45 117.81 326.68 117.81 331.26 125.76 500.85 125.76 606.87 310.07 607.17 309.56 607.19 309.58 610.82 303.26 611.47 302.13 611.47 302.13 611.76 301.63 505.45 117.81"></polygon>   <polygon points="513.9 103.23 318.21 103.13 322.79 111.07 509.3 111.17 615.37 295.4 619.96 287.47 619.93 287.41 620.2 286.94 513.9 103.23"></polygon>   <polygon points="428.96 249.92 424.36 257.86 483.8 360.31 377.12 544.54 386.3 544.54 492.98 360.31 428.96 249.92"></polygon>   <polygon points="437.45 235.25 432.86 243.19 500.77 360.31 394.08 544.54 403.26 544.54 509.95 360.31 437.45 235.25"></polygon>   <polygon points="445.95 220.58 441.35 228.52 517.73 360.31 411.05 544.54 420.23 544.54 526.91 360.31 445.95 220.58"></polygon>   <polygon points="360.55 176.55 365.13 184.5 466.84 184.5 568.35 360.31 461.94 544.54 471.63 544.54 577.82 360.31 471.44 176.55 360.55 176.55"></polygon>   <polygon points="543.88 360.31 454.44 205.92 449.84 213.85 534.49 360.31 428.01 544.54 437.77 544.54 543.88 360.31"></polygon>   <polygon points="560.84 360.31 462.93 191.24 458.34 199.18 551.42 360.31 444.97 544.54 454.7 544.54 560.84 360.31"></polygon>   <polygon points="391.2 360.31 382.02 360.31 322.47 463.14 110.04 462.84 114.61 470.79 327.04 471.09 391.2 360.31"></polygon>   <polygon points="408.16 360.31 398.98 360.31 330.93 477.83 118.49 477.53 123.07 485.48 335.5 485.78 408.16 360.31"></polygon>   <polygon points="425.13 360.31 415.95 360.31 339.38 492.52 126.95 492.23 131.53 500.18 343.96 500.47 425.13 360.31"></polygon>   <polygon points="420.46 264.59 415.87 272.53 466.84 360.31 364.89 536.36 152.32 536.31 157.05 544.54 369.33 544.54 476.02 360.31 420.46 264.59"></polygon>   <polygon points="352.41 515.16 352.41 515.16 442.09 360.31 432.91 360.31 347.94 507.04 135.41 506.92 140.28 515.37 352.41 515.16"></polygon>   <polygon points="360.87 529.85 459.06 360.31 449.88 360.31 356.41 521.71 143.86 521.61 148.78 530.03 360.87 529.85"></polygon>   <polygon points="276.47 382.94 271.9 374.99 153.22 374.82 47.27 190.7 42.67 198.64 148.62 382.76 276.47 382.94"></polygon>   <polygon points="284.93 397.63 280.35 389.68 144.73 389.49 38.77 205.36 34.18 213.3 140.13 397.42 284.93 397.63"></polygon>   <polygon points="293.38 412.32 288.81 404.37 136.23 404.16 30.28 220.03 25.68 227.97 131.63 412.09 293.38 412.32"></polygon>   <polygon points="374.23 360.31 365.05 360.31 314.01 448.44 111.01 448.16 4.79 264.04 0 272.53 106.12 456.1 318.59 456.39 374.23 360.31"></polygon>   <polygon points="123.13 426.76 301.84 427.01 297.26 419.06 127.94 418.83 21.78 234.7 16.9 243.14 123.13 426.76"></polygon>   <polygon points="114.64 441.43 310.29 441.7 305.72 433.75 119.48 433.5 13.28 249.37 8.45 257.84 114.64 441.43"></polygon>   <polygon points="199.68 294.89 204.28 286.95 144.86 184.5 251.58 .28 242.41 .26 135.68 184.5 199.68 294.89"></polygon>   <polygon points="191.19 309.55 195.78 301.62 127.89 184.5 234.63 .25 225.46 .24 118.71 184.5 191.19 309.55"></polygon>   <polygon points="182.69 324.22 187.29 316.29 110.93 184.5 217.68 .23 208.51 .21 101.74 184.5 182.69 324.22"></polygon>   <polygon points="268.01 368.24 263.44 360.29 161.72 360.15 60.3 184.5 166.83 .15 157.65 .14 157.59 .25 157.08 .25 51.96 182.58 51.94 182.58 51.07 184.09 50.84 184.5 157.12 368.09 268.01 368.24"></polygon>   <polygon points="84.78 184.5 174.19 338.89 178.79 330.95 94.15 184.5 200.73 .2 200.14 .2 200.15 .18 192.86 .19 191.56 .19 191.55 .19 190.98 .19 84.78 184.5"></polygon>   <polygon points="67.81 184.5 165.7 353.56 170.29 345.62 77.27 184.5 77.45 184.13 183.78 .18 174.61 .16 174.57 .22 174.03 .22 67.81 184.5"></polygon>   <polygon points="628.65 272.24 522.4 88.54 522.39 88.55 310.09 88.44 254.43 184.5 263.61 184.5 314.67 96.39 517.52 96.49 623.86 280.73 628.46 272.8 628.39 272.68 628.65 272.24"></polygon>   <polygon points="237.47 184.5 246.65 184.5 306.21 81.7 518.44 81.81 513.86 73.87 301.63 73.76 237.47 184.5"></polygon>   <polygon points="220.51 184.5 229.69 184.5 297.75 67.02 509.98 67.13 505.39 59.18 293.17 59.07 220.51 184.5"></polygon>   <polygon points="203.54 184.5 212.72 184.5 289.29 52.33 501.51 52.44 496.93 44.5 284.71 44.39 203.54 184.5"></polygon> </svg>