<svg xmlns="http://www.w3.org/2000/svg" width="642" viewBox="0 0 642 571.4" height="571.4" style="overflow:visible;enable-background:new 0 0 642 571.4" xml:space="preserve"><path d="M556.3 321.7c-94.9 0-53.6-207.7-126-207.7h-.2c-72.6 0-45.2 211.9-109.1 211.9S284.4 114 211.9 114h-.2c-72.4 0-31 207.7-126 207.7H0V218.8h89.9c92 0 41.4-218.8 121.8-218.8h.3c80.4 0 44.2 217.5 109 217.5S349.6 0 430 0h.3c80.4 0 29.7 218.8 121.8 218.8H642v102.9h-85.7z"></path><path d="M552.1 439.8c-94.7 0-52.2-179.8-122-179.8-70.1 0-37.4 188.6-109.1 188.6S281.9 260 211.9 260c-69.8 0-27.3 179.8-122 179.8H0V336.9h82.6c113.1 0 55.8-189.3 129.3-189.3 73.4 0 34.1 195 109.1 195s35.7-195 109.1-195c73.4 0 16.2 189.3 129.3 189.3H642v102.9h-89.9z"></path><path d="M548.9 557.9c-97.3 0-66.1-159.8-118.8-159.8-52.8 0-33.9 173.3-109.1 173.3S264.6 398 211.9 398c-52.6 0-21.5 159.8-118.8 159.8H0V454.9h93.1c97.3 0 60.5-167.6 118.8-167.6 58.2 0 31.5 178.2 109.1 178.2s50.9-178.2 109.1-178.2c58.2 0 21.5 167.6 118.8 167.6H642v102.9h-93.1z"></path></svg>