<svg xmlns="http://www.w3.org/2000/svg" width="538.1" viewBox="0 0 538.1 621.3" height="621.3" xml:space="preserve"><path d="M269 77.7 134.5 0 0 77.7V233l134.5 77.7L269 233V77.7zm-32.3 136.6-102.2 59-102.2-59v-118l102.2-59 102.2 59v118zM403.6 155.3 269 233v155.3L403.6 466l134.5-77.7V233l-134.5-77.7zm102.1 214.3-102.2 59-102.2-59v-118l102.2-59 102.2 59v118z"></path><path d="M0 388.3v155.3l134.5 77.7L269 543.7V388.3l-134.5-77.7L0 388.3zM236.7 525l-102.2 59-102.1-59V407l102.2-59 102.2 59v118z"></path></svg>