<svg xmlns="http://www.w3.org/2000/svg" width="628.8" viewBox="0 0 628.8 628.8" height="628.8" xml:space="preserve" style="enable-background:new 0 0 628.8 628.8"><path d="M482.9 282.3h145.9L454 179.4V0l-85.8 145.9V0l-85.8 145.8V0l-103 174.8H0l145.9 85.8H0l145.9 85.8H0l174.8 102.9v179.5l85.8-145.9v145.9l85.8-145.9v145.9L449.3 454h179.4l-145.9-85.8h145.9l-145.8-85.9zm-286.4-85.8h64.1v64.2h-64.1v-64.2zm235.8 64.2h-64.1v-64.2h64.1v64.2zm-85.8-64.2v64.2h-64.2v-64.2h64.2zm-64.2 149.9v-64h64.2v64h-64.2zm64.2 21.7v64.2h-64.2v-64.2h64.2zm-150-85.7h64.1v64h-64.1v-64zm0 85.7h64.1v64.2h-64.1v-64.2zm235.8 64.2h-64.1v-64.2h64.1v64.2zm0-85.9h-64.1v-64h64.1v64zm21.7-55.9 95.1 56H454v-56zm0-29.9v-56l95.1 56H454zM432.3 79.7v95.1h-56l56-95.1zm-85.9 0v95.1h-56l56-95.1zm-85.8 0v95.1h-56l56-95.1zm-85.8 116.8v56l-95.1-56h95.1zm0 85.9v56l-95.1-56h95.1zm0 85.8v56l-95.1-56h95.1zm21.7 180.9V454h56l-56 95.1zm85.9 0V454h56l-56 95.1zm85.8 0V454h56l-56 95.1zM454 432.3v-56l95.1 56H454z"></path></svg>