<svg data-name="Layer 1" xmlns="http://www.w3.org/2000/svg" viewBox="0 0 607.43 607.43"><path d="M330.99 8.73c-11.64-11.64-30.5-11.64-42.14 0L8.73 288.85c-11.64 11.64-11.64 30.5 0 42.14s30.5 11.64 42.14 0L330.99 50.86c11.63-11.63 11.63-30.5 0-42.14ZM420.22 97.96c-11.64-11.64-30.5-11.64-42.14 0L97.96 378.09c-11.64 11.64-11.64 30.51 0 42.14 11.64 11.64 30.5 11.64 42.14 0L420.23 140.1c11.64-11.63 11.64-30.5 0-42.14ZM509.47 187.21c-11.64-11.64-30.51-11.64-42.14 0L187.2 467.33c-11.64 11.64-11.64 30.5 0 42.14s30.51 11.64 42.14 0l280.13-280.13c11.64-11.63 11.64-30.5 0-42.14ZM598.7 276.44c-11.64-11.64-30.5-11.64-42.14 0L276.44 556.56c-11.64 11.64-11.64 30.5 0 42.14s30.5 11.64 42.14 0L598.7 318.58c11.63-11.64 11.63-30.5 0-42.14Z"></path></svg>