<svg xmlns="http://www.w3.org/2000/svg" width="642" viewBox="0 0 642 642" height="642" style="overflow:visible;enable-background:new 0 0 642 642" xml:space="preserve"><path d="M642 321c0 177.3-143.7 321-321 321S0 498.3 0 321 143.7 0 321 0s321 143.7 321 321zm-226.4-30.8c-4.4-13.7-18.4-21.7-32.1-18.9-18 3.7-32.6-7.9-34.5-23.6-2.2-16.8-13.8-26.3-28.1-26.3s-25.9 9.6-28.1 26.3c-1.9 15.7-16.5 27.2-34.5 23.6-13.7-2.8-27.7 5.2-32.1 18.9-4.6 13.9 2.8 28.8 15.4 34.4 16.4 7.6 20.9 26.1 13.2 39.5-8.3 14.6-2.8 29.8 7.5 37.3 13 9.5 28.2 5.6 37.4-4.1 5.5-5.8 13.4-9.4 21.1-9.4s15.6 3.6 21.1 9.4c9.2 9.8 24.4 13.6 37.4 4.1 10.3-7.5 15.9-22.7 7.5-37.3-7.6-13.5-3.1-32 13.2-39.5 12.8-5.6 20.2-20.5 15.6-34.4z"></path></svg>