<svg data-name="Layer 1" xmlns="http://www.w3.org/2000/svg" viewBox="0 0 614 620.76"><path d="M530.34 137.24c-12.61 0-24.84 2.82-36.35 8.38l-156.65 88.73c8.72-13.2 13.83-28.99 13.83-45.97 0-31.85-17.9-59.59-44.16-73.72l.02-.03L117.25 7.04C105.52 1.18 95.7 0 83.67 0 37.53 0 0 37.53 0 83.67 0 113.3 15.97 141 41.76 156.02l150.4 85.72c-1.22-.05-2.42-.19-3.65-.19-46.14 0-83.67 37.53-83.67 83.67v211.87c0 46.14 37.53 83.67 83.67 83.67s83.67-37.53 83.67-83.67V363.45c13.91 26.94 41.98 45.44 74.34 45.44 14.93 0 28.92-3.98 41.07-10.85l.04.07L576.64 290.6c23.4-14.55 37.37-40.6 37.37-69.69 0-46.14-37.53-83.67-83.66-83.67ZM328.3 188.38c0 33.52-27.27 60.79-60.79 60.79s-60.79-27.27-60.79-60.79 27.27-60.79 60.79-60.79 60.79 27.27 60.79 60.79ZM22.88 83.67c0-33.52 27.27-60.79 60.79-60.79 10.67 0 16.34 1.13 22.82 4.35l141.08 79.99c-36.52 8.98-63.73 41.91-63.73 81.16 0 8.47 1.29 16.64 3.64 24.35l-134.3-76.54c-18.69-10.88-30.3-31-30.3-52.52Zm165.63 180.76c33.52 0 60.79 27.27 60.79 60.79s-27.27 60.79-60.79 60.79-60.79-27.27-60.79-60.79 27.27-60.79 60.79-60.79Zm0 333.45c-33.52 0-60.79-27.27-60.79-60.79V382.53c15.27 16.18 36.84 26.36 60.79 26.36s45.52-10.17 60.79-26.36v154.56c0 33.52-27.27 60.79-60.79 60.79Zm97.21-272.66c0-33.52 27.27-60.79 60.79-60.79s60.79 27.27 60.79 60.79-27.27 60.79-60.79 60.79-60.79-27.27-60.79-60.79Zm279.22-54.28-138.42 78.73c2.37-7.74 3.66-15.94 3.66-24.45 0-39.21-27.15-72.12-63.62-81.14l137.7-78.02c8.29-3.95 17.06-5.95 26.07-5.95 33.51 0 60.79 27.27 60.79 60.79 0 21.13-9.94 39.91-26.18 50.03Z"></path></svg>