<svg data-name="Layer 1" xmlns="http://www.w3.org/2000/svg" viewBox="0 0 626.53 626.21"><path d="M325.94 156.67c0 91.93 49.18 178.07 128.34 224.81l3.21 1.9c.46.27.91.53 1.36.8l130.43 77c23.75-44.13 37.24-94.59 37.24-148.22C626.53 144.18 493.07 6.66 325.94 0v156.67ZM377.38 351.67c-29.48-31.81-51.43-70.03-64.16-111.48-12.76 41.55-34.81 79.79-64.41 111.64 42.28-9.76 86.27-9.86 128.57-.16ZM444.68 405.24c-81.63-47.55-182.67-47.3-264.08.74L50.2 482.95c55.81 86.18 152.74 143.26 263.06 143.26s207.25-57.08 263.06-143.26l-131.65-77.72ZM167.68 384.17s.03-.02.05-.03l4.51-2.66c79.17-46.73 128.35-132.88 128.35-224.81V0C133.46 6.66 0 144.18 0 312.95c0 53.62 13.5 104.09 37.24 148.22l130.43-76.99Z"></path></svg>