<svg xmlns="http://www.w3.org/2000/svg" width="453" viewBox="0 0 453 578.4" height="578.4"><path d="M0 578.4h453V0H0v578.4zM396.3 56.7v112.1c-59.5-41.5-130-63.9-204-63.9-46.6 0-92.8 9.2-135.7 26.7V56.7h339.7zm-339.6 465V333c15.8 41.2 55.7 70.6 102.4 70.6 60.6 0 109.8-49.3 109.8-109.8 0-60.6-49.3-109.8-109.8-109.8-46.7 0-86.6 29.4-102.4 70.6V194c41.8-21.1 88.4-32.4 135.7-32.4 76.3 0 148.3 28.3 204 79.7v280.5H56.7zm80.4-227.9c0-12.1 9.9-22 22-22s22 9.9 22 22-9.9 22-22 22-22-9.9-22-22"></path></svg>