<svg xmlns="http://www.w3.org/2000/svg" width="622" viewBox="0 0 622 538.5" height="538.5" xml:space="preserve"><path d="m368.4.7-.5-.7H254.2l-56.9 98.5 41.8 72.5h-83.5l-56.9 98.5 41.6 72H56.9L0 440l56.5 97.8.4.7h113.7l41.8-72.3 41.3 71.6.4.7h113.7l41.8-72.3 41.3 71.6.4.7H565l57-98.5L368.4.7zM98.6 440l-34.2 59.2L30.2 440l34.2-59.2L98.6 440zm-11.5 72.3 34.2-59.2h68.4l-34.2 59.2H87.1zm102.6-85.4h-68.4l-34.2-59.2h68.4l34.2 59.2zM295.9 440l-34.2 59.2L129 269.4l34.2-59.2L295.9 440zm-11.6 72.3 34.2-59.2h68.4l-34.2 59.2h-68.4zm102.6-85.4h-68.4L185.9 197.1h68.4l132.6 229.8zM352.8 26.2l231.4 400.7h-68.4L284.4 26.2h68.4zm106.1 473L227.6 98.5l34.2-59.2L493.1 440l-34.2 59.2zm22.7 13.1 34.2-59.2h68.4L550 512.3h-68.4z"></path></svg>