<svg width="642" viewBox="0 0 642 642" height="642" xmlns="http://www.w3.org/2000/svg"><path d="M493.612 78.033c0 20.881-8.333 40.704-22.9 55.132l-22.437-22.437c8.34-8.405 13.568-19.988 13.568-32.761 0-25.614-20.782-46.33-46.33-46.33-20.584 0-37.99 13.37-44.08 31.967l-18.068 57.185c-7.969 31.848-38.19 57.912-75.386 57.912-53.623 0-91.984-53.253-73.2-104.706l29.65 10.789c-11.132 30.928 11.88 62.148 43.484 62.148 20.385 0 37.726-13.171 43.881-31.504l19.591-61.553C351.578 22.57 380.965 0 415.58 0c43.087 0 78.033 34.946 78.033 78.033"></path><path d="M271.252 27.14c14.766 14.767 22.887 34.675 22.795 55.18H262.31c-.046-11.841-4.534-23.728-13.568-32.762-18.115-18.109-47.455-18.062-65.524 0-14.554 14.554-17.407 36.316-8.564 53.776l27.659 53.213c16.884 28.155 13.945 67.952-12.35 94.255-37.925 37.917-102.7 27.387-125.8-22.278l28.593-13.337c13.998 29.737 52.346 35.542 74.69 13.198 14.415-14.416 17.367-35.992 8.757-53.306l-29.671-57.377c-14.932-29.346-10.114-66.086 14.362-90.561 30.472-30.466 79.892-30.466 110.358 0"></path><path d="M78.033 148.388c20.881 0 40.704 8.333 55.132 22.9l-22.437 22.437c-8.405-8.34-19.988-13.568-32.761-13.568-25.614 0-46.33 20.782-46.33 46.33 0 20.584 13.37 37.99 31.967 44.08l57.185 18.068c31.848 7.969 57.912 38.19 57.912 75.386 0 53.623-53.253 91.984-104.706 73.2l10.789-29.65c30.928 11.132 62.148-11.88 62.148-43.484 0-20.385-13.171-37.726-31.504-43.881l-61.553-19.591C22.57 290.422 0 261.035 0 226.42c0-43.087 34.946-78.033 78.033-78.033"></path><path d="M27.14 370.748c14.767-14.766 34.675-22.887 55.18-22.795v31.737c-11.841.046-23.728 4.534-32.762 13.568-18.109 18.115-18.062 47.455 0 65.524 14.554 14.554 36.316 17.407 53.776 8.564l53.213-27.659c28.155-16.884 67.952-13.945 94.255 12.35 37.917 37.925 27.387 102.7-22.278 125.8l-13.337-28.593c29.737-13.998 35.542-52.346 13.198-74.69-14.416-14.415-35.992-17.367-53.306-8.757l-57.377 29.671c-29.346 14.932-66.086 10.114-90.561-14.362-30.466-30.472-30.466-79.892 0-110.358"></path><path d="M148.388 563.967c0-20.881 8.333-40.704 22.9-55.132l22.437 22.437c-8.34 8.405-13.568 19.988-13.568 32.761 0 25.614 20.782 46.33 46.33 46.33 20.584 0 37.99-13.37 44.08-31.967l18.068-57.185c7.969-31.848 38.19-57.912 75.386-57.912 53.623 0 91.984 53.253 73.2 104.706l-29.65-10.789c11.132-30.928-11.88-62.148-43.484-62.148-20.385 0-37.726 13.171-43.881 31.504l-19.591 61.553C290.422 619.43 261.035 642 226.42 642c-43.087 0-78.033-34.946-78.033-78.033"></path><path d="M370.749 614.86c-14.766-14.767-22.887-34.675-22.795-55.18h31.737c.046 11.841 4.533 23.728 13.568 32.762 18.115 18.109 47.455 18.062 65.523 0 14.555-14.554 17.407-36.316 8.565-53.776l-27.66-53.213c-16.883-28.155-13.944-67.952 12.351-94.255 37.924-37.917 102.7-27.387 125.8 22.278l-28.593 13.337c-13.998-29.737-52.346-35.542-74.69-13.198-14.416 14.416-17.368 35.992-8.757 53.306l29.671 57.377c14.932 29.346 10.113 66.086-14.362 90.561-30.472 30.466-79.893 30.466-110.358 0"></path><path d="M563.967 493.612c-20.881 0-40.704-8.333-55.132-22.9l22.437-22.437c8.405 8.34 19.988 13.568 32.761 13.568 25.614 0 46.33-20.782 46.33-46.33 0-20.584-13.37-37.99-31.967-44.08l-57.185-18.068c-31.848-7.969-57.912-38.19-57.912-75.386 0-53.623 53.253-91.984 104.706-73.2l-10.789 29.65c-30.928-11.132-62.148 11.88-62.148 43.484 0 20.385 13.171 37.726 31.504 43.881l61.553 19.591C619.43 351.578 642 380.965 642 415.58c0 43.087-34.946 78.033-78.033 78.033"></path><path d="M614.86 271.251c-14.767 14.766-34.675 22.887-55.18 22.795v-31.737c11.841-.046 23.728-4.533 32.762-13.568 18.109-18.115 18.062-47.455 0-65.523-14.554-14.555-36.316-17.407-53.776-8.565l-53.213 27.66c-28.155 16.883-67.952 13.944-94.255-12.351-37.917-37.924-27.387-102.7 22.278-125.8l13.337 28.593c-29.737 13.998-35.542 52.346-13.198 74.69 14.416 14.416 35.992 17.368 53.306 8.757l57.377-29.671c29.346-14.932 66.086-10.113 90.561 14.362 30.466 30.472 30.466 79.893 0 110.358"></path></svg>