<svg data-name="Layer 1" xmlns="http://www.w3.org/2000/svg" viewBox="0 0 590.8 523.14"><path d="M227.52 259.65c0 37.19 30.15 67.34 67.34 67.34s67.34-30.15 67.34-67.34-30.15-67.34-67.34-67.34-67.34 30.15-67.34 67.34ZM508.01 383.75c-71.55 9.82-140.4 15.04-213.35 16.19-72.95-1.15-141.8-6.37-213.35-16.19-6.62-.99-11.44 6.11-8.1 11.9l69.17 119.88c4.13 7.16 13.22 9.71 20.46 5.72 39.11-21.52 84.02-33.79 131.82-33.79s92.71 12.27 131.82 33.79c7.25 3.99 16.33 1.44 20.46-5.72l69.17-119.88c3.34-5.79-1.49-12.89-8.1-11.9ZM80.66 376.61l3.9-8.85c58.13-132.79 117.92-232.89 204.58-346.88l2.12-2.81c5.61-7.43.31-18.07-9-18.07H152.48c-8.42 0-15.24 6.83-15.23 15.24v.59c0 98.52-52 184.89-130.05 233.18-6.99 4.32-9.27 13.39-5.17 20.51L64.37 377.5c3.74 6.48 13.26 5.96 16.28-.89ZM583.32 248.71c-77.78-48.35-129.57-134.56-129.57-232.88 0-8.74-7.07-15.83-15.81-15.83h-129.2c-9.31 0-14.61 10.64-9 18.07l2.12 2.81c86.66 114 146.45 214.1 204.58 346.89l3.9 8.85c3.02 6.85 12.54 7.37 16.28.89l62.06-107.49c4.27-7.39 1.88-16.8-5.36-21.3Z"></path></svg>