<svg xmlns="http://www.w3.org/2000/svg" width="615.8" viewBox="0 0 615.8 613.5" height="613.5" xml:space="preserve" style="enable-background:new 0 0 615.8 613.5"><path d="M249.4 344.3 257.9 4c-16.3 2.7-32.1 6.6-47.4 11.7l12.3 322.5-124.7 195c15.4 14.4 32.3 27.2 50.5 38.2 24.3-56.3 100.8-227.1 100.8-227.1zM342.4 347.7 356 3.7C340.7 1.3 325 0 309 0l10.9 349.3 25.5 264.2c21.6-2.6 42.5-7.5 62.5-14.3l-65.5-251.5z"></path><path d="M306.8 0c-16 .1-31.7 1.3-47 3.7l13.6 344-65.5 251.4c20 6.9 40.9 11.7 62.5 14.3l25.5-264.2L306.8 0zM159.3 38.2c-16.5 9.1-32.1 19.7-46.6 31.6l13.7 224.1S6.9 352.3 3.6 354.6c2.4 16.1 6.2 31.7 11 46.9l135.8-92.8 8.9-270.5z"></path><path d="m199.4 330.9 9.2-314.6c-16.4 5.6-32.2 12.5-47.2 20.6l12.5 283.6L31.6 443.8c8.1 16.5 17.7 32.2 28.5 46.9l139.3-159.8zM393 338.2l12.3-322.5c-15.3-5.1-31.2-9-47.4-11.7l8.5 340.2S442.9 515 467.2 571.3c18.1-11 35.1-23.8 50.5-38.2L393 338.2zM514.7 274.9l101 35.8v-2.8c0-94.6-42.6-179.2-109.7-235.6l8.7 202.6z"></path><path d="m101.1 274.9 8.7-202.6C42.6 128.7 0 213.3 0 307.9v2.8l101.1-35.8zM441.9 320.6 454.3 37c-15-8.1-30.8-15.1-47.2-20.6l9.2 314.6 139.3 159.7c10.8-14.7 20.4-30.4 28.5-46.9L441.9 320.6z"></path><path d="M612.2 354.6c-3.3-2.3-122.8-60.7-122.8-60.7l13.7-224.1c-14.5-11.9-30.1-22.5-46.6-31.6l9 270.5 135.8 92.8c4.8-15.2 8.5-30.8 10.9-46.9z"></path></svg>