<svg data-name="Layer 1" xmlns="http://www.w3.org/2000/svg" viewBox="0 0 628.68 584.52"><path d="M232.4 0zM139.63 209.87c0 22.81 29.11 20.7 49.41 20.81 18.38.12 38.07-1.65 50.29 1.74 17.21 4.77 21.13 22.15 23.42 42.49 1.38 12.3-.93 46.34 6.94 53.77 6.57 6.24 43.36 5.21 43.36 5.21L238.47 32.97l-78.91 136.14s-19.93 31.28-19.93 40.75Z"></path><path d="M628.68 0H401.49s-72.72 292.66-80.66 333.89c24.3 1.69 62.98-3.57 59.85 26.89-1.74 16.79-23.51 25.39-37.29 32.08-6.71 3.25-52.93 22.42-56.37 34.7-3.74 13.26 14.77 41.27 18.23 60.7 5.09 28.65-27.31 49.08-14.75 76.31 4.01 8.71 12.42 19.91 19.94 19.94h71.09l90.21-308.74v308.74h156.94V0Z"></path><path d="M282.7 492.58c-5.05-30.14-33.95-63.38-9.55-85.87 9.5-8.73 41.43-22.74 49.83-26.63 16.19-7.43 39.54-15.65 36.03-22.79-1.67-3.39-17.15-3.35-25.17-3.46-11.33-.14-22.12.02-27.75 0-18.07-.08-34.79 3.18-48.53-5.21-14.09-8.58-15.31-31.8-16.48-54.63-.69-13.37-.07-31.54-7.8-38.16-8.42-7.21-29.56-4.25-45.08-4.32-16.26-.1-33.59-1.08-44.25-4.35-37.64-11.53-25.33-50.86-10.38-76.32L232.4 0H0v584.52h141.34v-312.2l102.32 312.2h32.07c-7.21-12.07-11.69-18.47-11.26-32.08.77-24.32 22.01-37.09 18.22-59.85Z"></path></svg>