<svg data-name="Layer 1" xmlns="http://www.w3.org/2000/svg" viewBox="0 0 588.04 617.54"><path d="M496.44 150.66v168.75c0 12.73-10.41 23.14-23.14 23.14s-23.14-10.41-23.14-23.14V150.66h-42.61c.8-5.43 1.23-10.98 1.23-16.63V0h-91.61v168.75c0 12.73-10.41 23.14-23.14 23.14s-23.14-10.41-23.14-23.14V0h-91.61v134.04c0 5.65.43 11.19 1.23 16.63H137.9v168.75c0 12.73-10.41 23.14-23.14 23.14s-23.14-10.41-23.14-23.14V150.66H0V284.7c0 55.19 39.49 101.6 91.61 112.39v93.01c0 12.73 10.41 23.14 23.14 23.14s23.14-10.41 23.14-23.14v-93.01c15.07-3.12 29.07-9.22 41.38-17.65v9.57c0 55.19 39.49 101.6 91.61 112.39v93.01c0 12.73 10.41 23.14 23.14 23.14s23.14-10.41 23.14-23.14V501.4c52.12-10.78 91.61-57.2 91.61-112.39v-9.57c12.31 8.43 26.31 14.53 41.38 17.65v93.01c0 12.73 10.41 23.14 23.14 23.14s23.14-10.41 23.14-23.14v-93.01c52.12-10.78 91.61-57.2 91.61-112.39V150.66h-91.61Zm-202.42 296.2c-12.73 0-23.14-10.41-23.14-23.14v-177.3c7.48 1.55 15.22 2.36 23.14 2.36s15.66-.82 23.14-2.36v177.3c0 12.73-10.41 23.14-23.14 23.14Z"></path></svg>