<svg data-name="Layer 1" xmlns="http://www.w3.org/2000/svg" viewBox="0 0 614.36 608.51"><path d="m234.19 536 72.51 72.51 73.35-73.34-72.87-138.86L234.19 536Zm-3.6-230.56L117.11 418.92l108.25 108.26 31.63-221.74h-26.4Zm126.58 0 31.59 221.02L496.62 418.6 383.46 305.44h-26.29ZM302 386.43l-37.18-70.85-27.54 194.72L302 386.43Zm10.35 0 64.78 123.44-27.77-194.27-37.01 70.83Zm-81.76-159.47 65.46.06-185.1 185.09-32.77-32.76 152.4-152.4Zm159.18 71.83 113.34 113.34 32.76-32.76-152.25-152.25-65.59-.07 69.73 69.74c.87.44 1.57 1.15 2.02 2.01Zm-45.45 6.66h-74.46l37.31 71.1 37.15-71.1ZM71.69 372.87l224.42-224.42h-65.53L38.93 340.1l32.76 32.76Zm246.24-224.42 224.42 224.42 32.76-32.76-191.66-191.66h-65.53Zm6.51-71.99L581.6 333.62l32.76-32.76L313.5 0l10.93 76.46Zm-98.36 63.53 63.56-63.57L300.44.74 0 301.17l32.45 32.45 192.2-192.2c.36-.58.85-1.07 1.43-1.43Zm13.67 156.28h56.68l-28.34-28.34-28.34 28.34Zm78.49 0h56.04l-28.02-28.02-28.02 28.02Zm21.46-34.42-32.37 32.37-32.76-32.77 32.36-32.37 32.77 32.77Zm-22.03-43.98 56.76.06-28.41-28.41-28.35 28.35Zm-49.98-28.03-27.95 27.95 55.96.06-28.01-28.01Zm6.48-6.48 32.52 32.52 32.85-32.85-32.52-32.52-32.85 32.85Zm-6.08-72.41-28.34 28.34h56.68l-28.34-28.34Zm50.15 28.34h56.04l-28.02-28.02-28.02 28.02Zm-43.67-34.83 32.76 32.77 32.45-32.45-32.76-32.77-32.45 32.45Zm39.05-38.8-6.6-46.19-6.59 46.16 6.58-6.57 6.61 6.61Z" style="fill-rule:evenodd"></path></svg>