<svg id="Layer_1" data-name="Layer 1" xmlns="http://www.w3.org/2000/svg" viewBox="0 0 468.7 616.42">   <rect width="140.18" viewBox="0 0 140.18 52.39" height="52.39"></rect>   <rect x="164.26" width="140.18" height="52.39"></rect>   <rect x="328.51" width="140.18" height="52.39"></rect>   <rect y="62.67" width="140.18" height="52.39"></rect>   <rect x="164.26" y="62.67" width="140.18" height="52.39"></rect>   <rect x="328.51" y="62.67" width="140.18" height="52.39"></rect>   <rect y="125.34" width="140.18" height="52.39"></rect>   <rect x="164.26" y="125.34" width="140.18" height="52.39"></rect>   <rect x="328.51" y="125.34" width="140.18" height="52.39"></rect>   <rect y="188.01" width="140.18" height="52.39"></rect>   <rect x="164.26" y="188.01" width="140.18" height="52.39"></rect>   <rect x="328.51" y="188.01" width="140.18" height="52.39"></rect>   <rect y="250.68" width="140.18" height="52.39"></rect>   <rect x="164.26" y="250.68" width="140.18" height="52.39"></rect>   <rect x="328.51" y="250.68" width="140.18" height="52.39"></rect>   <rect y="313.35" width="140.18" height="52.39"></rect>   <rect x="164.26" y="313.35" width="140.18" height="52.39"></rect>   <rect x="328.51" y="313.35" width="140.18" height="52.39"></rect>   <rect y="376.02" width="140.18" height="52.39"></rect>   <rect x="164.26" y="376.02" width="140.18" height="52.39"></rect>   <rect x="328.51" y="376.02" width="140.18" height="52.39"></rect>   <rect y="438.69" width="140.18" height="52.39"></rect>   <rect x="164.26" y="438.69" width="140.18" height="52.39"></rect>   <rect x="328.51" y="438.69" width="140.18" height="52.39"></rect>   <rect y="501.35" width="140.18" height="52.39"></rect>   <rect x="164.26" y="501.35" width="140.18" height="52.39"></rect>   <rect x="328.51" y="501.35" width="140.18" height="52.39"></rect>   <rect y="564.02" width="468.7" height="52.39"></rect> </svg>