<svg xmlns="http://www.w3.org/2000/svg" width="617.5" viewBox="0 0 617.5 422.9" height="422.9" xml:space="preserve"><path d="M399.4 5c2.3-.9 4.5-1.8 7.1-2.8-1.3-1.6-2.7-1.2-3.8-1.2-8.5-.1-200.1-.2-202.9.2-18.7 3.2-32 13.3-39.6 30.8C156.6 40.2 0 422.9 0 422.9s175.2.3 186.1-.3c10.2-.5 19.1-4.6 26.9-11.2 7.1-6 11.7-13.5 15.1-22 7.7-19.1 150.3-363 156.4-371.8 3.9-5.5 8.5-10.1 14.9-12.6zM616.9 26.9c-2-9-6.6-16.3-14.2-21.3-6.3-4.1-13.4-5.7-21-5.7-31.5.2-121.1 0-134.3.7-19.8 1.2-34.1 11.2-42.1 29.6-5.6 13-111.6 271.5-111.6 271.5s150.4-.4 179.4-.6c5.9 0 11.5-.9 17.1-2.8 14.3-4.8 24.4-14.4 30.7-27.8 6.5-14 34.3-80.9 42.2-100.1 6.5-15.7 46.9-112.5 51.7-124.2 2.3-6.1 3.5-12.5 2.1-19.3z"></path></svg>