<svg data-name="Layer 1" xmlns="http://www.w3.org/2000/svg" viewBox="0 0 615.82 495.25"><path d="M546.34 303.86H294.91c-4.67 0-9.22.48-13.63 1.36 18.49-12.5 30.67-33.65 30.67-57.6s-12.18-45.1-30.67-57.6c4.41.88 8.97 1.36 13.63 1.36h251.43c38.31 0 69.48-31.16 69.48-69.47s-31.17-69.47-69.48-69.47H487.9C480.28 22.35 453.05 0 420.63 0h-173c-31.81 0-59.58 21.88-67.3 52.44h-58.42c-38.31 0-69.48 31.16-69.48 69.47 0 22.62 10.78 43.3 28.71 56.24H69.47C31.17 178.15 0 209.32 0 247.62s31.17 69.48 69.48 69.48h11.67c-17.92 12.94-28.71 33.62-28.71 56.24 0 38.31 31.17 69.48 69.48 69.48h58.42c7.72 30.51 35.59 52.44 67.3 52.44h173c32.42 0 59.64-22.35 67.27-52.44h58.44c38.31 0 69.48-31.17 69.48-69.48s-31.17-69.48-69.48-69.48Zm-188.08 69.48c0 34.93-28.42 63.35-63.35 63.35s-63.35-28.42-63.35-63.35 28.42-63.35 63.35-63.35 63.35 28.42 63.35 63.35Zm-52.44-125.72c0 34.93-28.42 63.35-63.35 63.35s-63.35-28.42-63.35-63.35 28.42-63.35 63.35-63.35 63.35 28.42 63.35 63.35Zm-74.26-125.71c0-34.93 28.42-63.35 63.35-63.35s63.35 28.42 63.35 63.35-28.42 63.35-63.35 63.35-63.35-28.42-63.35-63.35Zm378.12 0c0 34.93-28.42 63.35-63.35 63.35s-63.35-28.42-63.35-63.35 28.42-63.35 63.35-63.35 63.35 28.42 63.35 63.35Zm-91.73-63.35c-11.86 5.34-22 13.86-29.22 24.53.88-4.41 1.36-8.96 1.36-13.62 0-3.72-.38-7.35-.94-10.91h28.8Zm-33.99 10.91c0 34.93-28.42 63.35-63.35 63.35s-63.35-28.42-63.35-63.35 28.42-63.35 63.35-63.35 63.35 28.42 63.35 63.35ZM247.63 6.13h144.62c-24.19 10.88-41.1 35.15-41.1 63.35 0 4.66.48 9.21 1.36 13.62-12.5-18.48-33.65-30.66-57.6-30.66H186.64c7.55-27.07 32.5-46.31 60.99-46.31ZM58.57 121.91c0-34.93 28.42-63.35 63.35-63.35h144.62c-24.19 10.88-41.1 35.15-41.1 63.35 0 23.95 12.18 45.1 30.67 57.6-4.41-.88-8.97-1.36-13.63-1.36H92.77c-21.12-10.96-34.21-32.43-34.21-56.24ZM6.13 247.62c0-34.93 28.42-63.35 63.35-63.35H214.1c-24.19 10.88-41.1 35.15-41.1 63.35s16.91 52.46 41.09 63.35H69.48c-34.93 0-63.35-28.42-63.35-63.35Zm52.44 125.72c0-23.81 13.09-45.28 34.21-56.24h149.7c4.67 0 9.22-.48 13.63-1.36-18.49 12.5-30.67 33.65-30.67 57.6 0 28.19 16.91 52.46 41.09 63.35H121.91c-34.93 0-63.35-28.42-63.35-63.35Zm189.06 115.78c-28.4 0-53.42-19.27-60.98-46.31h108.26c23.94 0 45.1-12.18 57.6-30.66-.88 4.41-1.36 8.96-1.36 13.62 0 28.19 16.91 52.46 41.09 63.35H247.63Zm173 0c-34.93 0-63.35-28.42-63.35-63.35s28.42-63.35 63.35-63.35 63.35 28.42 63.35 63.35-28.42 63.35-63.35 63.35Zm68.53-52.44c.57-3.56.94-7.19.94-10.91 0-4.66-.48-9.21-1.36-13.62 7.22 10.67 17.35 19.19 29.21 24.53h-28.79Zm57.18 0c-34.93 0-63.35-28.42-63.35-63.35s28.42-63.35 63.35-63.35 63.35 28.42 63.35 63.35-28.42 63.35-63.35 63.35Z"></path></svg>