<svg data-name="Layer 1" xmlns="http://www.w3.org/2000/svg" viewBox="0 0 641.96 642"><path d="M517.63 122.41V0H125.04v122.41H0v397.31h125.04V642h392.59V519.72h124.33V122.41H517.63Zm115.51 378.9H508.81v122.28H133.86V501.31H8.82V140.82h125.04V18.41h374.95v122.41h124.33V501.3Z"></path><path d="M392.26 119.02H250.41v122.41H125.37v159.28h125.04v122.28h141.85V400.71h124.33V241.42H392.26v-122.4Zm115.51 140.82v122.45H383.44v122.28H259.23V382.29H134.19V259.84h125.04V137.43h124.21v122.41h124.33Z"></path><path d="M417.33 95.21h-192v122.41H100.3v206.89h125.04v122.28h192V424.51h124.33V217.62H417.34V95.21Zm115.51 140.82v170.06H408.51v122.28H234.15V406.09H109.12V236.03h125.04v-122.4h174.36v122.41h124.33Z"></path><path d="M442.41 71.41H200.26v122.41H75.22v254.49h125.04v122.28h242.15V448.31h124.33V193.82H442.41V71.41Zm115.51 140.82v217.66H433.59v122.28H209.08V429.89H84.04V212.23h125.04V89.82h224.51v122.41h124.33Z"></path><path d="M467.48 47.61H175.19v122.41H50.15v302.09h125.04v122.28h292.29V472.11h124.33v-302.1H467.48V47.61Zm115.51 140.82V453.7H458.66v122.28H184.01V453.7H58.97V188.43h125.04V66.02h274.65v122.41h124.33Z"></path><path d="M492.56 23.8H150.11v122.41H25.07v349.7h125.04v122.28h342.45V495.91h124.33v-349.7H492.56V23.8Zm115.51 140.82V477.5H483.74v122.28H158.93V477.5H33.89V164.62h125.04V42.22h324.81v122.41h124.33Z"></path></svg>