<svg id="Layer_1" data-name="Layer 1" xmlns="http://www.w3.org/2000/svg" viewBox="0 0 628.32 403.92">   <path d="M493.68,89.76V44.88h44.88v44.88h44.88V44.88h44.88V0H0V403.92H359.04v-44.88h-44.88v-44.88h44.88v-44.88h-44.88v-44.88h44.88v44.88h44.88v-44.88h44.88v-44.88h-44.88v-44.88h44.88v44.88h44.88v-44.88h44.88v-44.88h-44.88Zm-134.64-44.88v44.88h-44.88V44.88h44.88Zm-89.76,0v44.88h-44.88V44.88h44.88Zm-89.76,0v44.88h-44.88V44.88h44.88Zm-134.64,0h44.88v44.88H44.88V44.88Zm0,314.16v-44.88h44.88v44.88H44.88Zm89.76,0v-44.88h44.88v44.88h-44.88Zm134.64,0h-44.88v-44.88h44.88v44.88ZM403.92,89.76V44.88h44.88v44.88h-44.88Z"></path>   <rect x="538.56" y="134.64" width="44.88" viewBox="0 0 44.88 44.88" height="44.88"></rect>   <rect x="493.68" y="179.52" width="44.88" height="44.88"></rect>   <rect x="583.44" y="179.52" width="44.88" height="44.88"></rect>   <rect x="448.8" y="224.4" width="44.88" height="44.88"></rect>   <rect x="403.92" y="269.28" width="44.88" height="44.88"></rect>   <rect x="538.56" y="269.28" width="44.88" height="44.88"></rect>   <rect x="359.04" y="314.16" width="44.88" height="44.88"></rect>   <rect x="448.8" y="314.16" width="44.88" height="44.88"></rect>   <rect x="493.68" y="359.04" width="44.88" height="44.88"></rect>   <rect x="583.44" y="359.04" width="44.88" height="44.88"></rect> </svg>