<svg id="Layer_1" data-name="Layer 1" xmlns="http://www.w3.org/2000/svg" viewBox="0 0 607.46 402.38">   <path d="M513.53,.09v-.09h-156.08c-25.43,0-46.24,20.81-46.24,46.24h0V206.9h-11.47v-56.71h0c0-25.43-20.81-46.24-46.24-46.24h-58.66s-.04-9.84-.13-11.47h58.79c25.43,0,46.24-20.81,46.24-46.24h0c0-25.43-20.81-46.24-46.24-46.24H97.42C43.84,0,0,43.84,0,97.42v207.55c0,53.58,43.84,97.42,97.42,97.42h0c53.58,0,97.42-43.84,97.42-97.42v-108.54h11.47v108.54c0,53.58,43.84,97.42,97.42,97.42s97.42-43.84,97.42-97.42v-106.02h11.47v106.02c0,53.58,43.84,97.42,97.42,97.42h0c53.58,0,97.42-43.84,97.42-97.42V97.42c0-52.41-41.95-95.47-93.93-97.33Z"></path> </svg>