<svg xmlns="http://www.w3.org/2000/svg" width="612.1" viewBox="0 0 612.1 585.1" height="585.1" xml:space="preserve" style="enable-background:new 0 0 612.1 585.1"><path d="M540.1 170.5c40.8-6.6 72-42 72-84.6 0-47.4-38.4-85.8-85.8-85.8H257.6L127.9 119.2h260c46.5 0 84.3 37.7 84.3 84.3 0 2.9-.1 5.7-.4 8.5-4.3 42.6-40.2 75.8-83.8 75.8H125.6V121.4L0 236.9v348.2h284.6l297.5-263.9c18.4-15.8 30-39.1 30-65.2 0-42.7-31.2-78-72-84.7-1-.1-1-.7 0-.8zM388 461.1H125.6V292.6H388c34 0 63.3 20.2 76.6 49.3 4.9 10.7 7.7 22.5 7.7 35-.1 46.5-37.8 84.2-84.3 84.2z"></path></svg>