<svg data-name="Layer 1" xmlns="http://www.w3.org/2000/svg" viewBox="0 0 617.84 617.84"><path d="M544.24 108.88c-36.46 164.53-177.99 289.96-350.35 301.97 44.72 47.4 72.22 111.21 72.22 181.37 0 7.51-.43 15-1.05 22.47 14.33 2.04 28.97 3.15 43.86 3.15 13.84 0 27.45-1 40.81-2.77-.65-7.54-1.05-15.15-1.05-22.86 0-82.59 37.54-158.95 102.98-209.49 46.64-36.02 102.5-55.06 161.57-55.06 1.34 0 2.66.08 3.99.1.38-6.24.63-12.51.63-18.85 0-76.32-27.74-146.13-73.6-200.04Z"></path><path d="M281.6 369.78C173.28 322.65 95.22 226.63 69.98 113.14 26.26 166.43 0 234.6 0 308.92c0 6.31.25 12.55.62 18.77.31 0 .63-.02.94-.02 63.96 0 122.68 22.82 168.47 60.74 38.96-.34 76.44-6.88 111.58-18.62Z"></path><path d="M2.95 351.18c17.58 128.4 114.01 231.62 238.92 259.27.45-6.06.77-12.14.77-18.24 0-132.46-107.4-240.28-239.69-241.03ZM168.06 242.43c87.86 0 163.03-55.22 192.75-132.75-15.24 12.13-34.49 19.43-55.44 19.43-49.22 0-89.27-40.05-89.27-89.27 0-9.36 1.46-18.37 4.14-26.85-50.07 14.98-94.8 42.28-130.66 78.44 9.5 55.44 32.33 106.96 65.65 150.57 4.27.26 8.55.44 12.82.44Z"></path><path d="M175.06 265.67c37.23 40.58 84.45 72.44 138.77 91.61 108.87-48.4 189.69-148.77 210.76-269.45-35.44-34.58-79.15-60.68-127.9-75.11.78 7.67 1.17 15.45 1.17 23.32 0 124.37-99.32 225.9-222.81 229.62ZM466 401.31c-59.64 46.06-93.85 115.65-93.85 190.91 0 6.38.32 12.68.81 18.93 126.37-26.65 224.2-130.53 241.92-259.96-.56 0-1.1-.04-1.66-.04-53.83 0-104.73 17.34-147.22 50.16Z"></path><path d="M305.37 106.1c36.53 0 66.26-29.72 66.26-66.26 0-12.99-3.81-25.09-10.3-35.32C344.29 1.61 326.8.01 308.93.01c-20.67 0-40.85 2.07-60.38 5.94-5.95 9.93-9.43 21.5-9.43 33.9 0 36.54 29.72 66.26 66.26 66.26Z"></path></svg>