<svg data-name="Layer 1" xmlns="http://www.w3.org/2000/svg" viewBox="0 0 480.88 623.89"><path d="M273.24 381.08c0-57.3-46.62-103.92-103.92-103.92H0v207.85h169.32c57.3 0 103.92-46.62 103.92-103.93Z"></path><path d="M168.94 0H0v50.71h170.13c153.59 0 278.55 124.95 278.55 278.55S323.73 607.81 170.13 607.81H0v16.08h168.94c172.28 0 311.94-139.66 311.94-311.94S341.22 0 168.94 0Z"></path><path d="M325.36 364.19c0-86.13-70.08-156.21-156.21-156.21H0v50.23h169.32c67.75 0 122.86 55.12 122.86 122.86s-55.12 122.87-122.86 122.87H0v16.45h169.15c86.13 0 156.21-70.08 156.21-156.21Z"></path><path d="M377.7 346.71c0-114.52-93.17-207.68-207.68-207.68H0v50.01h169.15c96.57 0 175.15 78.57 175.15 175.15s-78.57 175.15-175.15 175.15H0v15.06h170.02c114.52 0 207.68-93.17 207.68-207.68Z"></path><path d="M429.74 329.26c0-143.15-116.46-259.61-259.61-259.61H0v50.44h170.02c124.96 0 226.62 101.66 226.62 226.62S294.98 573.33 170.02 573.33H0v15.53h170.13c143.15 0 259.61-116.46 259.61-259.61Z"></path></svg>