<svg xmlns="http://www.w3.org/2000/svg" width="546.1" viewBox="0 0 546.1 624.5" height="624.5" xml:space="preserve"><path d="M435.4 161.7c-26.2-26.2-79.3 25.5-52.4 52.4l24.3 24.2H306.1v-99.5l27.4 27.9c26.9 26.9 78.6-28 52.4-54.2L273.2 0S161.1 112 160.5 112.5c-26.2 26.2 25.5 79.3 52.4 52.4l26-26.1v99.5h-96.5l24.3-22.4c26.9-26.9-28-80.4-54.2-54.2C112 162.3 0 272.6 0 272.6s113.8 114 114.4 114.5c26.2 26.2 79.3-27.3 52.4-54.2l-27.9-26H239v35.5c-62.5 15.3-109 71.7-109 139 0 79 64.1 143.1 143.1 143.1s143.1-64.1 143.1-143.1c0-67.6-46.9-124.2-109.9-139.2l-.1-35.3H409l-27.9 26c-26.9 26.9 26.2 78.6 52.4 52.4L546 272.6S435.9 162.3 435.4 161.7zM194.2 481.4c0-31.4 18.4-58.6 45-71.3v142.6c-26.6-12.7-45-39.9-45-71.3zm158 0c0 31.5-18.4 58.7-45.1 71.4v-143c27 12.6 45.1 39.9 45.1 71.6z"></path></svg>