<svg xmlns="http://www.w3.org/2000/svg" width="616" viewBox="0 0 616 460.3" height="460.3" xml:space="preserve" style="enable-background:new 0 0 616 460.3"><path d="m280.8 271.9 13.9-21.4-23.7 9.2-16-19.8 1.4 25.4-23.8 9.1 24.6 6.6 1.3 25.4 13.8-21.4 24.6 6.6zM338.4 286.2l-11.1-22.9-4.4 25.1-25.3 3.4 22.5 12-4.5 25 18.3-17.7 22.5 12.1-11.2-22.9 18.4-17.6zM390 276.5l13 21.9 2.2-25.3 24.8-5.7-23.4-9.9 2.3-25.4-16.7 19.2-23.4-10 13.1 21.8-16.8 19.2zM421.4 182.8l-16.2-19.7 1.6 25.4-23.7 9.3 24.6 6.3 1.5 25.5 13.7-21.5 24.6 6.5-16.2-19.7 13.8-21.4zM395 96.4 383.1 119l-25.1-4.4 17.8 18.2-11.9 22.5 22.8-11.3 17.7 18.3-3.6-25.2 22.8-11.2-25.1-4.2zM316.1 105.5l2.5 25.4 12.8-22.1 24.9 5.5-17-19 12.8-22-23.3 10.4-16.9-19.1 2.6 25.4-23.3 10.2zM250 113.4l14.9 20.7v-25.5l24.3-7.8-24.3-7.9.2-25.4-15 20.6-24.2-8.1 14.9 20.7-15 20.5zM198.4 126.3l-11.7-22.6-3.7 25.2-25.1 4.2 22.8 11.3-3.8 25.2 17.8-18.3 22.8 11.5-11.8-22.6 17.9-18.1zM142.6 206.5l4.6 25.1 10.9-23 25.3 3.4-18.5-17.5 11.1-23-22.4 12.2-18.4-17.6 4.6 25-22.4 12.1zM133.3 280.1l15.4 20.3-.6-25.5 24-8.4-24.4-7.2-.5-25.5-14.5 21-24.3-7.4 15.4 20.2-14.5 20.9zM168.3 339.5l18.2-17.9-25.2 4-11.4-22.8-4.1 25.1-25.1 3.8 22.6 11.7-4.2 25.1 18.1-18 22.6 11.8zM223.6 365.2l-20.9 14.5-20.3-15.4 7.5 24.4-21 14.5 25.5.4 7.3 24.5L210 404l25.5.6-20.3-15.4zM279.3 415.9l-1.9-25.4-13.3 21.8-24.7-6.1 16.5 19.4-13.4 21.7 23.6-9.8 16.4 19.4-2-25.4 23.6-9.6zM348.2 418.4l-10.4-23.3-5.1 25-25.4 2.7 22.2 12.6-5.3 24.9 18.8-17.2 22.1 12.7-10.5-23.2 18.9-17zM434.6 381.3l-21.9 13-19-16.9 5.5 24.8-21.9 12.9 25.3 2.4 5.5 24.9 10.1-23.4 25.4 2.5-19.2-16.9zM490.7 338.2l-20.1 15.7-21.1-14.4 8.8 24-20.2 15.6 25.5-.9 8.6 24 7-24.5 25.5-.8-21.2-14.2zM546.4 294.5l-20.1 15.7-21.1-14.3 8.7 23.9-20.1 15.6 25.4-.9 8.7 24 7-24.5 25.4-.8-21.1-14.2zM594.9 275.3l7.1-24.4-20 15.7-21.1-14.4 8.7 24-20.1 15.5 25.4-.8 8.6 23.9 7.1-24.4 25.4-.8zM301.2 369.4c1.1 13.5 12.4 23.7 25.7 23.7.7 0 1.4 0 2.2-.1 14.2-1.2 24.7-13.6 23.6-27.8-1.2-14.2-13.6-24.7-27.8-23.6-14.3 1.2-24.8 13.6-23.7 27.8zM259.9 383.9c3.2 1.3 6.6 2 9.8 2 10.1 0 19.7-6 23.8-16 5.4-13.2-.8-28.2-14-33.7-13.2-5.4-28.2.8-33.7 14-5.3 13.2 1 28.3 14.1 33.7zM383.1 378.6c3.5 0 7.1-.7 10.6-2.3 13-5.9 18.8-21.1 12.9-34.1-5.8-13-21.1-18.8-34.1-12.9s-18.8 21.1-12.9 34.1c4.3 9.5 13.7 15.2 23.5 15.2zM224.9 350.1c5.2 0 10.4-1.5 14.9-4.8 11.6-8.2 14.4-24.3 6.1-35.9-8.2-11.6-24.3-14.4-36-6.1-11.6 8.2-14.4 24.3-6.1 36 5 7 13 10.8 21.1 10.8zM431.1 346.1c6.4 0 12.8-2.4 17.8-7.2 10.3-9.9 10.6-26.2.8-36.5-9.9-10.3-26.2-10.6-36.5-.8-10.3 9.9-10.6 26.2-.8 36.5 5.1 5.4 11.9 8 18.7 8zM488.6 285.3c6.4-12.7 1.3-28.2-11.4-34.6-12.7-6.4-28.2-1.3-34.6 11.4-6.4 12.7-1.3 28.2 11.4 34.6 3.7 1.9 7.7 2.7 11.6 2.7 9.4.1 18.5-5.1 23-14.1zM206 295.8h1.3c14.2-.7 25.2-12.8 24.4-27.1-.7-14.2-12.8-25.2-27.1-24.4-14.2.7-25.2 12.8-24.4 27.1.8 13.7 12.2 24.4 25.8 24.4zM508 221.5c1.8-14.1-8.2-27-22.4-28.8-14.1-1.8-27 8.2-28.8 22.4-1.8 14.1 8.2 27 22.4 28.8 1.1.1 2.2.2 3.2.2 12.9 0 24-9.6 25.6-22.6zM8.8 194.9c-10.7 9.4-11.8 25.7-2.5 36.4 5.2 6 12.6 9 19.9 8.8 5.8-.1 11.7-2.2 16.4-6.3 10.7-9.4 11.8-25.7 2.5-36.4-9.2-10.7-25.5-11.8-36.3-2.5zM196.7 201.4c-7 12.4-2.6 28.1 9.8 35.1 4 2.3 8.3 3.3 12.6 3.3 9 0 17.7-4.7 22.5-13.1 7-12.4 2.6-28.1-9.8-35.1s-28.1-2.6-35.1 9.8zM326.9 206.3c0 14.2 11.5 25.8 25.8 25.8 14.2 0 25.8-11.5 25.8-25.8 0-14.2-11.5-25.8-25.8-25.8-14.2 0-25.8 11.6-25.8 25.8zM52.7 156.6C42 166 40.9 182.3 50.3 193c5.2 6 12.6 9 20 8.8 5.8-.1 11.7-2.2 16.4-6.3 10.7-9.4 11.8-25.6 2.5-36.4-9.4-10.7-25.7-11.8-36.5-2.5zM247.9 151.1c-12.5 6.8-17.2 22.4-10.4 34.9 4.7 8.6 13.5 13.6 22.7 13.6 4.1 0 8.3-1 12.2-3.1 12.5-6.8 17.2-22.4 10.4-34.9-6.7-12.6-22.4-17.3-34.9-10.5zM311.9 187.5c1.5.3 3 .4 4.5.4 12.3 0 23.2-8.8 25.4-21.4 2.4-14-7-27.4-21-29.8-14-2.4-27.4 6.9-29.8 21-2.5 14 6.9 27.3 20.9 29.8zM474.4 135.2c-13.9 3-22.7 16.8-19.7 30.7 2.6 12.1 13.3 20.3 25.2 20.3 1.8 0 3.6-.2 5.5-.6 13.9-3 22.7-16.7 19.7-30.7-3-13.9-16.8-22.8-30.7-19.7zM130.5 157.2c10.7-9.4 11.8-25.6 2.5-36.4-9.4-10.7-25.7-11.8-36.4-2.5-10.7 9.4-11.8 25.7-2.5 36.4 5.2 6 12.6 9 20 8.8 5.9 0 11.7-2.1 16.4-6.3zM436.2 120.2c4.9 7.9 13.3 12.2 21.9 12.2 4.6 0 9.4-1.3 13.6-3.9 12.1-7.5 15.8-23.4 8.3-35.5-7.5-12.1-23.4-15.8-35.5-8.3-12.1 7.5-15.8 23.4-8.3 35.5z"></path><path d="M158 125.3c5.8-.1 11.7-2.2 16.4-6.3 10.7-9.4 11.8-25.7 2.5-36.4-9.4-10.7-25.7-11.8-36.4-2.5-10.7 9.4-11.8 25.7-2.5 36.4 5.3 5.9 12.7 8.9 20 8.8zM201.5 86.5c5.8-.1 11.5-2.1 16.3-6.2 10.8-9.3 12.1-25.5 2.8-36.4-9.3-10.8-25.5-12.1-36.4-2.8-10.8 9.3-12.1 25.5-2.8 36.4 5.2 6.1 12.6 9.1 20.1 9zM403.5 83.4c4.8 3.8 10.5 5.7 16.1 5.7 7.6 0 15-3.3 20.1-9.7 8.9-11.1 7.1-27.3-4-36.2-11.1-8.9-27.3-7.1-36.3 4s-7 27.3 4.1 36.2zM253.1 62c2.9 0 5.9-.5 8.7-1.5 13.4-4.8 20.3-19.6 15.5-33-4.8-13.4-19.6-20.3-33-15.5-13.4 4.8-20.3 19.6-15.5 33 3.8 10.5 13.8 17 24.3 17zM360.5 59.6c2.8 1 5.7 1.4 8.5 1.4 10.7 0 20.7-6.7 24.4-17.4 4.7-13.5-2.5-28.1-15.9-32.8-13.5-4.7-28.1 2.5-32.8 15.9-4.8 13.5 2.3 28.2 15.8 32.9zM311.7 51.6h.2c14.2-.1 25.7-11.7 25.6-25.9-.1-14.3-11.7-25.8-25.9-25.7-14.2.1-25.7 11.7-25.6 25.9 0 14.2 11.5 25.7 25.7 25.7z"></path></svg>