<svg data-name="Layer 1" xmlns="http://www.w3.org/2000/svg" viewBox="0 0 605.81 401.97"><path d="M604.58 178.16c-10.2-92.32-84.6-166.73-176.93-176.92-43.77-4.84-87.48 4.68-124.76 26.65-37.3-21.97-81.07-31.5-124.74-26.65C85.83 11.43 11.42 85.84 1.23 178.15c-6.31 57.19 11.9 114.36 49.96 156.87 38.11 42.55 92.7 66.95 149.77 66.95h16.69V218.6H158.8L302.9 74.54 447 218.6h-58.85v183.38h16.69c57.07 0 111.67-24.4 149.77-66.95 38.07-42.51 56.27-99.69 49.96-156.87Zm-485.9 33.33c-6.81 6.81-8.84 16.95-5.15 25.84 3.68 8.9 12.29 14.65 21.92 14.65h48.83v115.77c-41.42-4.17-80.16-23.69-108.21-55-32.21-35.96-47.01-82.46-41.64-130.93 8.48-76.91 70.47-138.9 147.38-147.4 6.28-.69 12.56-1.04 18.81-1.04 27.07 0 53.66 6.44 77.46 18.75l-159.4 159.36Zm411.06 101.26c-28.04 31.31-66.78 50.84-108.21 55V251.98h48.83c9.62 0 18.22-5.74 21.91-14.63 3.68-8.89 1.67-19.03-5.14-25.85L327.72 52.13c29.32-15.15 62.84-21.41 96.28-17.71 76.91 8.5 138.9 70.49 147.39 147.4 5.36 48.46-9.44 94.96-41.64 130.93Z"></path></svg>