<svg xmlns="http://www.w3.org/2000/svg" width="618.2" viewBox="0 0 618.2 618.2" height="618.2" style="enable-background:new 0 0 618.2 618.2" xml:space="preserve"><path d="M497.4 497.4c16.7-16.7 43.9-16.7 60.6 0l-134-134c-16.7-16.7-43.9-16.7-60.6 0-16.7 16.7-16.7 43.9 0 60.6l134 134c-16.8-16.7-16.8-43.9 0-60.6zM120.9 120.9c-16.7 16.7-43.9 16.7-60.6 0l134 134c16.7 16.7 43.9 16.7 60.6 0 16.7-16.7 16.7-43.9 0-60.6l-134-134c16.7 16.7 16.7 43.8 0 60.6zM497.4 120.9c-16.7-16.7-16.7-43.9 0-60.6l-134 134c-16.7 16.7-16.7 43.9 0 60.6 16.7 16.7 43.9 16.7 60.6 0l134-134c-16.7 16.7-43.9 16.7-60.6 0zM120.9 497.4c16.7 16.7 16.7 43.9 0 60.6l134-134c16.7-16.7 16.7-43.9 0-60.6-16.7-16.7-43.9-16.7-60.6 0l-134 134c16.7-16.8 43.8-16.8 60.6 0zM575.3 309.1c0-23.7 19.2-42.9 42.9-42.9H428.7c-23.7 0-42.9 19.2-42.9 42.9S405 352 428.7 352h189.5c-23.7 0-42.9-19.2-42.9-42.9zM42.9 309.1C42.9 332.8 23.7 352 0 352h189.5c23.7 0 42.9-19.2 42.9-42.9s-19.2-42.9-42.9-42.9H0c23.7 0 42.9 19.2 42.9 42.9zM309.1 42.9c-23.7 0-42.9-19.2-42.9-42.9v189.5c0 23.7 19.2 42.9 42.9 42.9s42.9-19.2 42.9-42.9V0c0 23.7-19.2 42.9-42.9 42.9zM309.1 575.3c23.7 0 42.9 19.2 42.9 42.9V428.7c0-23.7-19.2-42.9-42.9-42.9s-42.9 19.2-42.9 42.9v189.5c0-23.7 19.2-42.9 42.9-42.9z"></path></svg>