<svg xmlns="http://www.w3.org/2000/svg" width="622" viewBox="0 0 622 616.5" height="616.5" xml:space="preserve" style="enable-background:new 0 0 622 616.5"><path d="M433.4 0C332.2 0 249.4 79.8 245 179.5c-.2 4.6.2 9.3 0 13.9-1.3 32-26.9 57.1-58.3 57.1-31.6 0-57.7-26.2-58.4-58.4l-.1-2.9H0l.1 3c.7 102.6 84.5 186.1 186.7 186.1 99.9 0 181.8-79.2 186.5-178.3.2-4.1.6-8.1.6-12.1 0-32.7 26.7-59.3 59.6-59.3 32.9 0 59.6 26.6 59.6 59.3 0 32.7-26.7 59.3-59.6 59.3-19.8 0-38.2-9.8-49.4-26.1l-7.2-10.5V367l.4.1c18.4 5.7 37.3 8.7 56.1 8.7 104 0 188.6-84.3 188.6-187.8S537.4 0 433.4 0zM245.6 378.5h129.9v238.1H245.6z"></path></svg>