<svg xmlns="http://www.w3.org/2000/svg" width="642" viewBox="0 0 642 536.1" height="536.1" style="overflow:visible;enable-background:new 0 0 642 536.1" xml:space="preserve"><path class="st0" d="m311 116.1-38.2 56.6-62.6-77.2c-15-18.5-37.8-30.3-63.3-30.3-45 0-81.6 36.6-81.6 81.5l.1 389.2H0V146.8C0 65.7 65.7 0 146.9 0c45.6 0 86.3 20.8 113.3 53.4l50.8 62.7zM331 116.1l38.2 56.6 62.6-77.2c15-18.5 37.8-30.3 63.3-30.3 45 0 81.6 36.6 81.6 81.5l-.1 389.2H642V146.8C642 65.7 576.3 0 495.1 0c-45.6 0-86.3 20.8-113.3 53.4L331 116.1z"></path><path d="m321 124.4 122.4 181.5c15.9 23.6 25.2 52 25.2 82.6 0 81.6-66.1 147.7-147.7 147.7S173.3 470 173.3 388.4c0-30.6 9.3-59 25.2-82.6L321 124.4zm-68.3 218c-8.9 13.1-14.1 29-14.1 46 0 45.4 36.9 82.3 82.3 82.3s82.3-36.9 82.3-82.3c0-17-5.2-32.9-14.1-46L321 240.7l-68.3 101.7z"></path></svg>