<svg xmlns="http://www.w3.org/2000/svg" width="618.5" viewBox="0 0 618.5 535.6" height="535.6" xml:space="preserve" style="enable-background:new 0 0 618.5 535.6"><path d="M223.1 368.5 357.9 135l182.7 316.3h77.9L357.9 0 145.2 368.5z"></path><path d="M386.6 383.8H116.9L299.5 67.5 260.6 0 0 451.3h425.5z"></path><path d="m318.1 234.6 134.8 233.6H87.6l-38.9 67.4h521.1L357 167.1z"></path><path d="M309.2 268.7c-13.5 0-24.4 11-24.4 24.4 0 13.5 10.9 24.4 24.4 24.4 13.5 0 24.4-11 24.4-24.4.1-13.4-10.9-24.4-24.4-24.4zM266 325.7c-11.7 6.8-15.7 21.7-8.9 33.4 6.8 11.7 21.7 15.7 33.4 9 11.7-6.8 15.7-21.7 8.9-33.4-6.8-11.7-21.7-15.7-33.4-9zM319.1 334.7c-6.8 11.7-2.7 26.6 9 33.4 11.7 6.7 26.6 2.7 33.4-9 6.8-11.7 2.7-26.6-8.9-33.4-11.8-6.7-26.7-2.7-33.5 9z"></path></svg>