<svg data-name="Layer 1" xmlns="http://www.w3.org/2000/svg" viewBox="0 0 602.87 602.87"><path d="M301.43 0C135.22 0 0 135.23 0 301.44s135.22 301.43 301.43 301.43 301.44-135.22 301.44-301.43S467.65 0 301.43 0Zm0 534.39c-100.95 0-187.07-64.56-219.33-154.54 24.85 35.6 66.08 58.96 112.69 58.96 43 0 81.44-19.88 106.64-50.91 25.21 31.03 63.64 50.91 106.64 50.91 46.61 0 87.85-23.36 112.69-58.96-32.27 89.98-118.39 154.54-219.34 154.54Zm0-465.9c100.95 0 187.07 64.56 219.34 154.54-24.85-35.6-66.08-58.96-112.69-58.96-43 0-81.44 19.88-106.64 50.91-25.21-31.03-63.64-50.91-106.64-50.91-46.61 0-87.85 23.36-112.69 58.96C114.38 133.05 200.5 68.49 301.44 68.49Zm106.65 301.84c-37.98 0-68.88-30.9-68.88-68.88s30.9-68.89 68.88-68.89 68.88 30.9 68.88 68.89-30.9 68.88-68.88 68.88ZM194.79 232.55c37.98 0 68.88 30.9 68.88 68.89s-30.9 68.88-68.88 68.88-68.88-30.9-68.88-68.88 30.9-68.89 68.88-68.89Z"></path></svg>