<svg data-name="Layer 1" xmlns="http://www.w3.org/2000/svg" viewBox="0 0 611.68 611.77"><path d="m550.76 259.1 51.44-29.7-2.28-7.96c-20.54-71.73-66.65-133.43-129.85-173.72l-4.2-2.68-78.03 25.2V10.89l-8.04-2C307.78-8.99 229.72.35 164.27 34.58l-4.41 2.31-17.11 80.05-51.2-29.56-5.75 5.96C33.96 147 3.57 217.5.22 291.83L0 296.81l61.17 55.55-51.7 29.85 2.28 7.95c20.49 71.53 66.42 133.11 129.36 173.41l4.2 2.69 78.52-25.2v59.64l8.04 2c24.2 6.01 49.09 9.06 73.97 9.06 49.66 0 97.12-11.6 141.05-34.48l4.41-2.29 17.36-80.48 51.47 29.71 5.75-5.96c51.98-53.81 82.37-124.52 85.58-199.1l.22-4.97-60.91-55.11ZM462.84 68.29c54.39 36.01 94.66 89.28 114.32 151.1l-189.32 109.3V92.51l74.99-24.22Zm-217.83 202.4 60.82-35.12 60.82 35.12v70.23l-60.82 35.11-60.82-35.11v-70.23ZM178.49 51.1c39.78-19.96 82.59-30.07 127.34-30.07 20.41 0 40.83 2.21 60.82 6.56v218.62L162.04 128.07l16.45-76.97Zm-83.11 62.97 189.25 109.26-204.2 117.89-58.78-53.38c4.03-64.62 30.04-125.86 73.73-173.78Zm52.99 428.95C94.21 507.01 54.1 453.86 34.5 392.23l189.31-109.3v235.89l-75.44 24.21Zm284.31 17.72c-39.65 19.8-82.3 29.83-126.86 29.83-20.42 0-40.84-2.21-60.82-6.56V365.39l204.37 117.99-16.69 77.35Zm83.59-63.2L327.01 388.27l204.45-118.04 58.55 52.98c-3.92 64.84-29.93 126.27-73.74 174.33Z"></path></svg>