<svg xmlns="http://www.w3.org/2000/svg" width="617.7" viewBox="0 0 617.7 619.5" height="619.5" xml:space="preserve" style="enable-background:new 0 0 617.7 619.5"><path d="m374.3 388-32.8 101.1h43.2l-17.1 53.2h78.1l17.1-53.2h43.6l-17.1 53.2h78.2L617.7 388zM170.8 388.1l13.3 41-55.9.3 24.2 74.3 55.9-.3 13.4 41.5-55.9.2 24.2 74.3 162.3.1L277 388zM214.1 194.5l-34.9 25.4-17.5-53.1-63.2 45.9 17.5 53.1-35.3 25.6-17.5-53.1-63.2 46 50 154.3 197-143.1zM411.6 175.9l-35-25.4 45.1-33.1-63.2-45.9-45.1 33.1L278.2 79l45-33.1L260 0 128.7 95.3l197 143.1zM490.3 357.9l13.4-41 45.3 32.6 24.2-74.3-45.4-32.6 13.5-41.5 45.3 32.6 24.2-74.2L479.5 64l-75.2 231.5z"></path></svg>