<svg data-name="Layer 1" xmlns="http://www.w3.org/2000/svg" viewBox="0 0 621.6 538.32"><path d="m609.67 424.4 11.93-20.66-77.7-134.58H388.5l5.97-10.33-77.7-134.59 11.97-20.74 77.68 134.62 11.96-20.71-77.7-134.58 11.98-20.76 77.7 134.58L442.28 176l-77.7-134.58 11.99-20.76 77.7 134.58 11.93-20.66L388.5 0H233.1l-77.7 134.58 7.28 12.62 70.42 121.96H77.7L0 403.74l7.28 12.62L77.7 538.32h23.88l-77.7-134.58h23.97l77.7 134.58h23.84l-77.7-134.58h23.98l77.7 134.58h23.84l-77.7-134.58h23.96l77.66 134.58h11.97l5.97-10.33-77.7-134.58 11.97-20.75 77.68 134.62 11.96-20.71-77.7-134.58 11.98-20.76 77.7 134.58 11.93-20.65-77.71-134.58 11.99-20.76 77.7 134.58 11.93-20.66-77.7-134.58h23.88l-77.7-134.58h23.97l77.7 134.58h23.84l-77.7-134.58h23.98l77.7 134.58h23.84l-77.7-134.58h23.96l77.66 134.58h11.97l-77.7 134.58 7.28 12.62 70.42 121.96h23.88l-77.71-134.58h23.98l77.7 134.58h23.84l-77.7-134.58h23.98l77.7 134.58h23.84l-77.7-134.58h23.96l77.66 134.58h11.97l5.97-10.33-77.7-134.58 11.97-20.75 77.68 134.62 11.96-20.71-77.71-134.58 11.99-20.76 77.7 134.58 11.92-20.65-77.7-134.58 11.99-20.76 77.7 134.58z"></path></svg>