<svg xmlns="http://www.w3.org/2000/svg" viewBox="0 0 642 642"><path d="M66.64 224.31 290.95 0H0v224.31h66.64zM308.55 17.59 84.23 241.91v66.65h224.33l-.01-290.97zM400.08 224.31 624.39 0H333.44v224.31h66.64zM641.98 17.59 417.67 241.91v66.65H642l-.02-290.97z"></path><g><path d="m66.64 557.75 224.31-224.31H0v224.31h66.64zM308.55 351.03 84.23 575.34V642h224.33l-.01-290.97z"></path></g><g><path d="m400.08 557.75 224.31-224.31H333.44v224.31h66.64zM641.98 351.03 417.67 575.34V642H642l-.02-290.97z"></path></g></svg>