<svg data-name="Layer 1" xmlns="http://www.w3.org/2000/svg" viewBox="0 0 609.96 609.96"><path d="M304.98 0C136.81 0 0 136.81 0 304.98s136.81 304.98 304.98 304.98 304.98-136.81 304.98-304.98S473.15 0 304.98 0ZM3.09 304.98c0-109.8 58.95-206.07 146.84-258.91v517.82C62.04 511.05 3.09 414.78 3.09 304.98Zm301.89 301.89c-55.38 0-107.29-15.06-151.96-41.2V44.29c44.67-26.14 96.58-41.2 151.96-41.2 166.46 0 301.89 135.42 301.89 301.89S471.45 606.87 304.98 606.87Z"></path><path d="M379.94 101.91c-111.97 0-203.06 91.1-203.06 203.07s91.09 203.06 203.06 203.06 203.07-91.09 203.07-203.06-91.1-203.07-203.07-203.07Zm0 3.09c72.41 0 135.95 38.69 171.05 96.48H208.9C244 143.69 307.54 105 379.95 105Zm0 399.95c-110.26 0-199.97-89.71-199.97-199.97 0-36.58 9.92-70.87 27.14-100.41h345.66c17.22 29.53 27.14 63.82 27.14 100.41 0 110.26-89.71 199.97-199.98 199.97Z"></path><path d="M378.63 221.3c-73.59 0-133.46 59.87-133.46 133.46s59.87 133.46 133.46 133.46 133.46-59.87 133.46-133.46S452.22 221.3 378.63 221.3ZM248.26 354.76c0-71.88 58.48-130.37 130.37-130.37 23.76 0 45.99 6.49 65.19 17.65v225.44c-19.2 11.15-41.43 17.65-65.19 17.65-71.88 0-130.37-58.48-130.37-130.37ZM446.91 465.6V243.92c37.18 22.99 62.08 64.01 62.08 110.84s-24.9 87.85-62.08 110.84Z"></path><path d="M346.04 268.78c-47.41 0-85.99 38.58-85.99 85.99s38.58 86 85.99 86 86-38.58 86-86-38.58-85.99-86-85.99Zm0 3.09c45.72 0 82.9 37.19 82.9 82.9 0 14.99-4.06 29.03-11.05 41.18h-143.7c-6.99-12.15-11.05-26.18-11.05-41.18 0-45.71 37.19-82.9 82.9-82.9Zm0 165.8c-29.43 0-55.25-15.46-69.97-38.63h139.94c-14.72 23.18-40.54 38.63-69.97 38.63Z"></path><path d="M346.04 389.47c30.64 0 55.57-24.93 55.57-55.57s-24.93-55.57-55.57-55.57-55.57 24.93-55.57 55.57 24.93 55.57 55.57 55.57Zm52.47-55.57c0 28.93-23.54 52.47-52.47 52.47-9.37 0-18.16-2.5-25.78-6.82v-91.3c7.62-4.32 16.41-6.82 25.78-6.82 28.93 0 52.47 23.54 52.47 52.47Zm-81.35-43.77v87.54c-14.2-9.4-23.6-25.5-23.6-43.77s9.4-34.37 23.6-43.77Z"></path></svg>