<svg data-name="Layer 1" xmlns="http://www.w3.org/2000/svg" viewBox="0 0 602.77 602.77"><path d="M169.92 0 0 169.92v432.86h432.86l169.92-169.92V0H169.92ZM298.7 386.34h-82.27v-82.27h82.27v82.27Zm0-128.78h-82.27v-82.27h82.27v82.27Zm0-128.78h-82.27V46.51h82.27v82.27Zm128.78 257.56h-82.27v-82.27h82.27v82.27Zm0-128.78h-82.27v-82.27h82.27v82.27Zm0-128.78h-82.27V46.51h82.27v82.27Zm128.78 257.56h-82.27v-82.27h82.27v82.27Zm0-128.78h-82.27v-82.27h82.27v82.27Zm0-128.78h-82.27V46.51h82.27v82.27Z"></path></svg>