<svg data-name="Layer 1" xmlns="http://www.w3.org/2000/svg" viewBox="0 0 508.14 603.56"><path d="M254.07 0C77.06 0 0 104.52 0 232.26v139.05c0 127.2 76.45 231.34 251.87 232.22v.04h4.4v-.04c175.43-.88 251.87-105.01 251.87-232.22V232.26C508.14 104.52 431.09 0 254.07 0Zm243.09 261.86H334.89c.5-17.53 14.88-31.64 32.52-31.64h129.71l.04 31.64Zm-201.77 36.03v-31.63h35.06v31.63h-35.06Zm35.06 4.4v282.57c-11.19 2.45-22.87 4.34-35.08 5.62l.03-288.19h35.06Zm-152.75-4.4v-31.63h35.05v31.63H177.7Zm35.06 4.4.03 288.19c-12.21-1.28-23.89-3.17-35.09-5.62V302.29h35.06ZM13.52 194.19h166.65c17.65 0 32.02 14.11 32.52 31.64H11.11c.23-10.85 1.03-21.41 2.41-31.64Zm480.46-4.4H256.31c.5-17.53 14.88-31.64 32.52-31.64h198.15c2.99 10.14 5.32 20.69 7 31.64Zm-198.59 72.07v-31.64h54.56c-11.34 6.1-19.12 17.96-19.46 31.64h-35.1Zm-117.75 0c-.34-13.68-8.12-25.53-19.46-31.64h54.56v31.64h-35.1Zm39.45-36.03c-.34-13.68-8.12-25.53-19.46-31.64h54.24v31.64h-34.78Zm.05 4.4h34.73v31.64h-34.73v-31.64Zm39.13 0H291v31.64h-34.73v-31.64Zm0-4.4v-31.64h54.24c-11.34 6.1-19.12 17.96-19.46 31.64h-34.78Zm-76.1-36.03H14.16c1.67-10.95 4.01-21.5 7-31.64H219.3c17.65 0 32.02 14.11 32.53 31.64h-71.65Zm-39.45 40.43c17.65 0 32.02 14.11 32.52 31.64H10.98l.04-31.64h129.71ZM10.98 266.26H173.3v31.63H10.98v-31.63Zm206.16 0h34.73v31.63h-34.72v-31.63Zm39.12 0h34.72v31.63h-34.72v-31.63Zm78.57 0h162.32v31.63H334.83v-31.63Zm32.57-40.43h-71.97c.5-17.53 14.88-31.64 32.52-31.64H494.6c1.38 10.23 2.18 20.78 2.41 31.64H367.39ZM68.49 75.93c42.37-43.1 104.81-64.95 185.58-64.95s143.21 21.85 185.58 64.94c21 21.36 36.46 47.65 46.03 77.84H288.83c-16.02 0-29.65 10.26-34.77 24.54-5.12-14.28-18.76-24.54-34.77-24.54H22.45c9.57-30.19 25.03-56.48 46.03-77.84ZM10.98 371.3v-69.01H173.3v281.6c-42.75-10.06-77.86-28.84-104.81-56.26-37.62-38.26-57.5-92.32-57.5-156.33Zm206.2 219.57-.03-288.59h34.72v290.25c-11.98-.06-23.53-.64-34.69-1.66Zm39.09-288.59h34.72l-.03 288.59c-11.16 1.03-22.71 1.6-34.69 1.66V302.29Zm183.38 225.35c-26.95 27.41-62.06 46.19-104.81 56.26v-281.6h162.32v69.01c0 64.01-19.88 118.07-57.5 156.33Z"></path></svg>