<svg xmlns="http://www.w3.org/2000/svg" width="597.7" viewBox="0 0 597.7 400.5" height="400.5" xml:space="preserve"><path d="M455.1 0c-74.7 0-136 57.5-142.1 130.7h-.1c-8.2 80.7-76.4 143.8-159.3 143.8-22.5 0-43.9-4.6-63.3-13 46.4 83 135 139.1 236.8 139.1 137.6 0 251.2-102.6 268.7-235.5 1.2-7.3 1.8-14.8 1.8-22.5C597.7 63.8 533.8 0 455.1 0M59.9 183.3c.6.1 1.2.2 1.8.2 2.6.3 5.2.5 7.9.5h.2c.3 0 .7.1 1 .1 35.8 0 65.4-26.7 69.9-61.3.3-1.9.5-3.9.5-5.9 0-20.5-15-36.9-35.5-36.9-19.5 0-35.4 15-37 34-.1.9-.2 1.7-.4 2.5-.3 2-.8 3.9-1.4 5.8 0 .1-.1.2-.1.3-5.2 14.4-18.8 24.7-34.9 24.7-13.7 0-25.6-7.4-31.9-18.5 1.6 6.8 4.2 13.2 7.6 19.1-.1 0-.2-.1-.3-.1 10.2 18.5 26.8 30 46.1 34.3 2.2.5 4.3.9 6.5 1.2"></path><path d="M298.2 135.5c.6-3.9.9-7.9.9-11.9 0-34.2-28.1-71.3-69.7-71.3-39.6 0-72 30.4-75.2 69.2-4.3 42.7-40.4 76.1-84.3 76.1-11.9 0-32.6-6.6-42.9-11 26.8 48.6 75.1 73.6 129 73.6 72.8-.1 132.9-54.4 142.2-124.7"></path></svg>