<svg data-name="Layer 1" xmlns="http://www.w3.org/2000/svg" viewBox="0 0 630.12 526.48"><path d="M599.73 196.72c-34.09-29.27-84.74-27.5-116.81 2.59l47.19-54.97c31.34-36.5 27.11-92.01-9.39-123.34-36.5-31.34-92.01-27.12-123.34 9.38l-82.32 95.88-82.33-95.87C201.4-6.11 145.89-10.34 109.39 21c-36.5 31.34-40.72 86.84-9.39 123.34l47.19 54.97c-32.07-30.09-82.72-31.86-116.81-2.59-36.5 31.34-40.72 86.84-9.39 123.34l178.76 206.42 115.3-133.61-114.74-132.96 46.95-54.68c17.83-20.76 42.81-31.15 67.79-31.15s49.96 10.38 67.79 31.15l46.95 54.68-114.74 132.96 115.3 133.61 178.76-206.42c31.34-36.5 27.11-92-9.39-123.34Z"></path></svg>