<svg xmlns="http://www.w3.org/2000/svg" width="610.8" viewBox="0 0 610.8 437.2" height="437.2" xml:space="preserve" style="enable-background:new 0 0 610.8 437.2"><path d="M53.224.013c-56.7 0-53.1 193.1-53.1 204 0 169.8 28.5 231.4 56.1 231.4 48.9 0 97.7-154.3 110.8-187.4 14.9 37.8 68.7 188 137.5 188 65.6 0 119.6-142.5 138.6-187.3 34.2 91.6 65.3 188.6 108.4 188.6 34 0 59.4-98.3 59.4-248.5 0-85.1-9.2-187.3-52.3-187.3-44.1 0-97.5 153.5-115.1 195.2-11.4-31.3-66.3-193.3-138.4-193.3-71.1 0-125.6 161-138.1 191.2-18.9-43.9-69.7-194.6-113.8-194.6zm0 17.1c16.6 0 26.4 28.6 48 74.1l53.7 132.2c-60.7 148.8-76.7 193.1-96.2 193.1-21.4 0-36.4-86.1-36.4-212.6 0-109.4 12.7-186.8 30.9-186.8zm504.8 2.7c21.8 0 30.3 89.5 30.3 168.6 0 143-21 229-40.7 229-20.7 0-41.8-60.6-93.3-193.9 53.4-126 81.8-203.7 103.7-203.7zm-251.6 2c45.8 0 77.2 86.6 126.4 201.5-51.6 111.3-81.2 193.2-128.6 193.2-47.2 0-77.5-85.1-126.7-193.6 36.1-83.1 77.7-201.1 128.9-201.1z"></path></svg>