<svg xmlns="http://www.w3.org/2000/svg" width="621.7" viewBox="0 0 621.7 621.7" height="621.7" xml:space="preserve" style="enable-background:new 0 0 621.7 621.7"><path d="M0 310.9c0 171.7 139.2 310.9 310.9 310.9V0C139.2 0 0 139.2 0 310.9zM329 .5v620.6c35.5-2 69.3-10 100.6-23V23.5C398.3 10.6 364.4 2.6 329 .5zM544.3 105.6v410.6c14.6-16.6 27.4-34.7 38.2-54.1V159.6c-10.8-19.4-23.7-37.5-38.2-54zM447.7 31.7v558.4c29-14.2 55.4-32.8 78.5-55V86.6c-23.1-22.1-49.5-40.7-78.5-54.9zM621.7 310.9c0-39.8-7.5-77.9-21.1-112.8v225.7c13.6-35.1 21.1-73.1 21.1-112.9z"></path></svg>