<svg data-name="Layer 1" xmlns="http://www.w3.org/2000/svg" viewBox="0 0 597.62 597.62"><path d="M0 0v597.62h597.62V0H0Zm580.72 415.66L431.2 384.52l141.13 187.81-187.97-141.21 31 149.6-87.75-134.02-29.06 144.1-28.76-143.96-87.82 133.88 31.14-149.52L25.3 572.32l141.21-187.97-149.6 31 134.02-87.75-144.1-29.06 143.96-28.76L16.9 181.96l149.52 31.14L25.3 25.3l187.97 141.21-31-149.61 87.65 133.87L298.81 6.83l28.93 144.11L415.66 16.9l-31.14 149.52L572.32 25.3 431.11 213.27l149.6-31-134.02 87.75 144.1 29.06-143.96 28.76 133.88 87.82Z"></path></svg>