<svg data-name="Layer 1" xmlns="http://www.w3.org/2000/svg" viewBox="0 0 610.53 610.52"><path d="M460.07 154.81c-1.55 0-3.05.19-4.59.23.05-1.54.23-3.04.23-4.59C455.72 67.36 388.36 0 305.26 0S154.81 67.36 154.81 150.45c0 1.55.19 3.05.23 4.59-1.54-.05-3.04-.23-4.59-.23C67.36 154.81 0 222.17 0 305.26s67.36 150.45 150.45 150.45c1.55 0 3.05-.19 4.59-.23-.05 1.54-.23 3.04-.23 4.59 0 83.09 67.36 150.45 150.45 150.45s150.45-67.36 150.45-150.45c0-1.55-.19-3.05-.23-4.59 1.54.05 3.04.23 4.59.23 83.09 0 150.45-67.36 150.45-150.45s-67.36-150.45-150.45-150.45Zm-154.81 0c41.55 0 75.23 33.68 75.23 75.23s-33.68 75.23-75.23 75.23-75.23-33.68-75.23-75.23 33.68-75.23 75.23-75.23Zm191.51 193.08.03.03-191.54 167.92-191.54-167.91.03-.03c-11.99-10.34-19.62-25.6-19.62-42.63 0-31.06 25.27-56.33 56.33-56.33 13.82 0 26.48 5.03 36.3 13.32l.02-.02 118.5 99.35 118.5-99.35.02.02c9.81-8.29 22.47-13.32 36.3-13.32 31.06 0 56.33 25.27 56.33 56.33 0 17.03-7.63 32.29-19.62 42.63Z"></path></svg>