<svg data-name="Layer 1" xmlns="http://www.w3.org/2000/svg" viewBox="0 0 616.34 616.35"><path d="M616.34 18.3H341.57L189.08 170.79 18.29 0v274.78l152.49 152.49L0 598.05h274.77l152.49-152.49 170.79 170.79V341.57L445.56 189.08 616.34 18.3ZM289.87 308.17 189.08 408.96 62.47 282.35h201.59l25.82 25.82Zm69.99-69.99V44.17h194.01L359.86 238.18ZM333.99 62.46v201.59l-25.82 25.82-100.79-100.79L334 62.46Zm-95.81 194.02H44.17V62.47l194.01 194.01Zm-49.1 189.08 67.4-67.4v194.01H62.46l126.62-126.62Zm93.27 108.32V359.86h59.22l67.4 67.4-126.62 126.62Zm95.81-194.02h194.02v194.01L378.16 359.86Zm49.11-152.49 126.61 126.61H300.65l7.52-7.52 64.12-64.12 54.97-54.97Z"></path></svg>