<svg data-name="Layer 1" xmlns="http://www.w3.org/2000/svg" viewBox="0 0 620.23 458.32"><path d="M594.43 48.22c-77.87-75-209.66-59.02-268.59 28.21C293.4 30.26 239.77 0 179.18 0H0v179.18c17.02 374.21 549.85 371.32 562.35-3.47 0-61.63 33.97-87.22 57.88-97.6-7.47-10.9-16.16-20.9-25.79-29.89ZM65.07 179.84c-.4-3.35.22-111.97-.03-114.81h114.14c151.4 6.26 151.4 222.03 0 228.28-62.71 0-113.74-50.85-114.11-113.47Zm432.24-1.33c1 172.35-196.78 276.11-337.43 178.79 104.89 12 199.14-72.49 198.48-178.13-1.06-83.93 91.66-140.69 165.81-101.79-16.42 24.89-27.49 59.66-26.86 101.12Z"></path><circle cx="439.07" cy="131.82" r="33.94"></circle></svg>