<svg id="Layer_1" data-name="Layer 1" xmlns="http://www.w3.org/2000/svg" viewBox="0 0 622.35 622.35">   <path d="M621.23,285.85h-168.94v-111.7l-141.12-72.7-141.13,72.7v111.7h-50.25c-1.09,8.3-1.71,16.74-1.71,25.33,0,23.36,4.15,45.76,11.75,66.48h40.21v87.25h90.02v-87.25h102.21v87.25h90.02v-87.25h70.22c-28.24,89.85-112.17,155.02-211.34,155.02-122.33,0-221.5-99.17-221.5-221.5S188.84,89.67,311.18,89.67c104.97,0,192.82,73.04,215.66,171.05h91.36C594.01,113.06,465.58,0,311.17,0,139.59,0,0,139.59,0,311.18s139.59,311.17,311.17,311.17,311.18-139.59,311.18-311.17c0-8.54-.44-16.97-1.12-25.33Zm-361.16,0v-59.15l51.11-26.33,51.11,26.33v59.15h-102.21Z"></path> </svg>