<svg xmlns="http://www.w3.org/2000/svg" width="610.2" viewBox="0 0 610.2 519.9" height="519.9" xml:space="preserve"><path d="M153.8 232.4c-15.4 0-27.9 12.5-27.9 27.9 0 15.4 12.5 27.9 27.9 27.9 15.4 0 27.9-12.5 27.9-27.9 0-15.5-12.5-27.9-27.9-27.9z"></path><path d="M456.3 106.3c-75.2 0-137.9 54.2-151.2 125.5-13.1-71.6-76-126-151.3-126-28.9 0-55.9 8-79 21.9V0H0v259.7c0 84.8 69 153.8 153.8 153.8 71.1 0 131.1-48.5 148.6-114.1v220.5h74.8V392.1c23.1 13.9 50.2 21.9 79 21.9C541 414 610 345 610 260.2c.2-84.8-68.9-153.9-153.7-153.9zM153.8 338.7c-43.6 0-79-35.4-79-79s35.5-79 79-79c43.6 0 79 35.5 79 79 .1 43.6-35.4 79-79 79zm302.5.5c-43.6 0-79-35.5-79-79 0-43.6 35.5-79 79-79s79 35.5 79 79c0 43.6-35.4 79-79 79z"></path><path d="M456.3 231.8c-15.4 0-27.9 12.5-27.9 27.9 0 15.4 12.5 27.9 27.9 27.9 15.4 0 27.9-12.5 27.9-27.9 0-15.4-12.5-27.9-27.9-27.9z"></path></svg>