<svg xmlns="http://www.w3.org/2000/svg" width="612.3" viewBox="0 0 612.3 367.4" height="367.4" xml:space="preserve" style="enable-background:new 0 0 612.3 367.4"><path d="M434.4 142.6h177.9V76.4c0-42.2-34.2-76.4-76.4-76.4H76.4C34.2 0 0 34.2 0 76.4v157h434.4v37.5c0 12.7-10.3 23-23.1 23H201c-12.7 0-23.1-10.3-23.1-23v-17.3H0V291c0 42.2 34.2 76.4 76.4 76.4H536c42.2 0 76.4-34.2 76.4-76.4V168.6H178.6v-25.9h255.8zm-256.5-25.9V87.9c0-12.7 10.3-23.1 23.1-23.1h210.3c12.7 0 23.1 10.3 23.1 23.1v28.8H177.9z"></path></svg>