<svg data-name="Layer 1" xmlns="http://www.w3.org/2000/svg" viewBox="0 0 618.15 618.15"><path d="M0 0v618.15h618.15V0H0Zm525.38 35.81-96.94 163.95h-36.01l96.94-163.95h36.01Zm-73.46 0-96.94 163.95h-36.01l96.94-163.95h36.01Zm-109.47 0h36.01l-96.94 163.95h-36.01l96.95-163.95ZM19.31 582.35l204.91-346.56h36.01L55.33 582.35H19.31Zm73.46 0 204.9-346.56h36.01l-204.9 346.56H92.77Zm73.46 0 204.9-346.56h36.01l-204.9 346.56h-36.01Zm109.47 0h-36.01l204.89-346.56h36.01l-204.9 346.56Zm226.2-382.59h-36.01l96.94-163.95h36.01L501.9 199.76Z"></path></svg>