<svg xmlns="http://www.w3.org/2000/svg" width="642" viewBox="0 0 642 439.77" height="439.77" data-name="Layer 1"><path d="M642 158.9v266.43c-67.8 0-122.81-54.96-122.81-122.75l.06-94.69c0-40.38-32.74-73.06-73.06-73.06s-73 32.68-73 73.06v128.4c0 57.14-46.35 103.49-103.55 103.49-48.79 0-96.75-3.27-143.81-9.69 22.6-12.39 38.33-35.63 40.32-62.66h.06c0-47.39 43.02-95.98 102.66-93.6v-66c0-40.32-32.74-73-73.06-73s-73.06 32.68-73.06 73l.06 94.76c0 67.8-55.02 122.75-122.81 122.75V158.9C0 71.13 71.13 0 158.89 0s158.9 71.13 158.9 158.9v15.54c0 1.8 1.41 3.21 3.21 3.21 1.8.06 3.21-1.41 3.21-3.21V158.9C324.21 71.13 395.34 0 483.11 0S642 71.13 642 158.9ZM251.5 329.03c-17.73 0-32.1 14.37-32.1 32.1s14.37 32.1 32.1 32.1 32.1-14.37 32.1-32.1-14.37-32.1-32.1-32.1Z"></path></svg>