<svg data-name="Layer 1" xmlns="http://www.w3.org/2000/svg" viewBox="0 0 622.05 622.05"><path d="m324.24114188 311.02666281 16.4119484-16.41194839L489.55563625 443.5172604l-16.4119484 16.4119484zM343.26407081 291.98710765l16.4119484-16.41194839 148.90254598 148.90254598-16.4119484 16.4119484zM362.30472994 272.94489658l16.41194839-16.4119484 39.18785781 39.18785782-16.4119484 16.41194839zM473.77356234 384.39170899l16.4119484-16.4119484 37.42716192 37.42716193-16.41194839 16.4119484zM418.22684166 328.88874434l16.4119484-16.4119484 38.82016228 38.8201623-16.41194839 16.41194839zM437.26684166 309.85626025l16.4119484-16.4119484 38.82016228 38.8201623-16.41194839 16.41194839zM492.81356234 365.3592249l16.4119484-16.4119484 37.42716192 37.42716193-16.41194839 16.4119484zM381.33472994 253.90241248l16.41194839-16.41194839 39.18785781 39.18785782-16.4119484 16.41194839zM456.29684166 290.81963402l16.4119484-16.4119484 38.82016228 38.8201623-16.41194839 16.41194839zM511.83649127 346.32966973l16.4119484-16.41194839 37.42716192 37.42716193-16.41194839 16.4119484zM400.36472994 234.85578626l16.41194839-16.4119484 39.18785781 39.18785782-16.4119484 16.4119484zM475.33684166 271.78714993l16.4119484-16.4119484 38.82016228 38.8201623-16.41194839 16.41194839zM530.87356234 327.29011457l16.4119484-16.41194839 37.42716192 37.42716193-16.41194839 16.4119484zM419.39472994 215.82330217l16.41194839-16.4119484 39.18785781 39.18785782-16.4119484 16.41194839zM549.90356234 308.25763048l16.4119484-16.41194839 37.42716192 37.42716193-16.41194839 16.41194839zM494.36684166 252.7205237l16.4119484-16.4119484 38.82016228 38.8201623-16.41194839 16.41194839zM438.451801 196.823747l16.4119484-16.41194839 39.1878578 39.18785782-16.41194838 16.41194839zM513.3945372 233.7236031l15.6624152-15.6624152 38.82016228 38.82016228-15.6624152 15.6624152zM568.95125787 289.27656775l15.6624152-15.6624152 37.42716193 37.42716192-15.6624152 15.6624152zM457.48949653 177.80268427l15.6624152-15.6624152 39.18785782 39.18785781-15.6624152 15.6624152z"></path><path d="m436.92928794 276.67366394 2.62336616-2.62336616 16.73721751 16.73721751-2.62336616 2.62336616zM494.02928794 219.58206953l2.62336616-2.62336616 16.73721751 16.73721751-2.62336616 2.62336616zM455.96928794 257.63703771l2.62336616-2.62336616 16.73721751 16.73721751-2.62336616 2.62336616zM417.90591388 295.7445974l2.62382398-2.62290825 16.73429606 16.74013846-2.62382398 2.62290825zM474.99928794 238.61455362l2.62336616-2.62336616 16.73721751 16.73721751-2.62336616 2.62336616zM473.4559224 351.2532191l2.62336616-2.62336616 16.7372175 16.73721751-2.62336615 2.62336616zM492.48885133 332.27366394l2.62336616-2.62336616 16.7372175 16.73721751-2.62336615 2.62336616zM511.5359224 313.23410878l2.62336616-2.62336616 16.7372175 16.73721751-2.62336615 2.62336616zM549.5859224 275.10499846l2.62336616-2.62336616 16.73014644 16.73014645-2.62336616 2.62336615zM530.5659224 294.21162469l2.62336616-2.62336616 16.73014644 16.73014644-2.62336616 2.62336616zM294.61048766 281.40268296l148.90254598-148.90254598 16.4119484 16.4119484-148.902546 148.90254597zM275.57386143 262.36268296l148.90254598-148.90254598 16.4119484 16.4119484-148.90254599 148.90254597zM256.54872142 243.33909491l39.18785782-39.18785781 16.41194839 16.41194839-39.18785782 39.18785781zM368.02553383 131.8802625l37.42716193-37.42716192 16.4119484 16.41194839-37.42716194 37.42716192zM312.46256919 187.41698318l38.82016228-38.82016229 16.4119484 16.4119484-38.8201623 38.82016228zM293.4400851 168.37698318l38.82016228-38.82016229 16.4119484 16.4119484-38.8201623 38.82016228zM349.00304974 112.8402625l37.42716193-37.42716192 16.41194839 16.41194839-37.42716193 37.42716192zM237.50916626 224.31202384l39.18785782-39.18785781 16.41194839 16.4119484-39.18785782 39.1878578zM274.39345887 149.34698318l38.82016228-38.82016229 16.4119484 16.4119484-38.8201623 38.82016228zM329.93642351 93.7702625l37.42716193-37.42716192 16.4119484 16.41194839-37.42716194 37.42716192zM218.4696111 205.27909491l39.18785782-39.18785781 16.41194839 16.41194839-39.18785782 39.18785781zM255.37097477 130.30698318l38.8201623-38.82016229 16.41194838 16.4119484-38.82016228 38.82016228zM310.91393942 74.7402625l37.42716193-37.42716192 16.41194839 16.41194839-37.42716193 37.42716192zM199.44005594 186.24202384l39.18785782-39.18785781 16.41194839 16.4119484-39.18785782 39.1878578zM291.8673132 55.7102625l37.42716192-37.42716192 16.4119484 16.41194839-37.42716194 37.42716192zM236.32434855 111.26698318l38.82016228-38.82016229 16.4119484 16.4119484-38.8201623 38.82016228zM180.40050078 167.18909491l39.18785782-39.18785781 16.41194839 16.41194839-39.18785782 39.18785781zM218.03989007 92.99174977l38.82016228-38.82016228 15.6624152 15.6624152-38.82016228 38.82016229zM273.59285471 37.4350291 311.02001664.00786717l15.6624152 15.6624152-37.42716192 37.42716193zM162.1160423 148.9038615l39.18785782-39.1878578 15.6624152 15.6624152-39.18785781 39.1878578zM274.06899995 182.49604807l16.73721751-16.73721751 2.62336616 2.62336616-16.73721751 16.7372175z"></path><path d="m216.96166669 125.35782357 16.74305888-16.7313741 2.62245027 2.62428172-16.74305888 16.7313741zM255.0394448 163.46311914l16.7372175-16.73721751 2.62336616 2.62336616-16.73721751 16.7372175zM293.10280723 201.52247895l16.74305888-16.7313741 2.62245027 2.62428173-16.74305888 16.7313741zM236.0069607 144.43311914l16.73721751-16.73721751 2.62336616 2.62336616-16.73721751 16.7372175zM348.66855511 145.97941361l16.73721751-16.7372175 2.62336616 2.62336615-16.73721751 16.73721751zM329.62899995 126.94648468l16.73721751-16.73721751 2.62336616 2.62336616-16.73721751 16.7372175zM310.5994448 107.90941361l16.7372175-16.7372175 2.62336616 2.62336615-16.73721751 16.73721751zM272.50908915 69.80826496l16.74305888-16.7313741 2.62245027 2.62428173-16.74305888 16.7313741zM291.54988963 88.85648468l16.73721751-16.73721751 2.62336616 2.62336616-16.73721751 16.7372175zM132.48883915 178.52566853l16.4119484-16.4119484 148.90254597 148.90254599-16.41194839 16.4119484zM113.45883915 197.56229476l16.4119484-16.4119484 148.90254597 148.90254599-16.41194839 16.41194839zM204.13993927 326.30212293l16.41194839-16.41194839 39.18785781 39.18785782-16.41194839 16.41194839zM94.42180274 216.60600641l16.4119484-16.4119484 37.42716192 37.42716194-16.41194839 16.41194839zM148.59259413 270.76304176l16.4119484-16.41194839 38.82016228 38.82016229-16.4119484 16.4119484zM129.55552306 289.79259692l16.4119484-16.41194839 38.82016228 38.82016229-16.41194839 16.4119484zM75.38887381 235.64556157l16.4119484-16.4119484 37.42716192 37.42716194-16.41194839 16.41194839zM185.09993927 345.36874916l16.41194839-16.41194839 39.18785781 39.18785781-16.41194839 16.4119484zM110.51552306 308.82508102l16.4119484-16.4119484 38.82016228 38.8201623-16.41194839 16.41194838zM56.35180274 254.67511673l16.4119484-16.4119484 37.42716192 37.42716194-16.41194839 16.41194839zM166.07993927 364.36123325l16.41194839-16.41194839 39.18785781 39.18785781-16.41194839 16.4119484zM91.48259413 327.86463618l16.4119484-16.4119484 38.82016228 38.8201623-16.4119484 16.41194838zM37.33180274 273.68760082l16.4119484-16.41194839 37.42716192 37.42716193-16.41194839 16.41194839zM147.04993927 383.39785948l16.41194839-16.4119484 39.18785781 39.18785782-16.41194839 16.4119484zM18.29180274 292.72422705l16.4119484-16.4119484 37.42716192 37.42716194-16.41194839 16.41194839zM72.44552306 346.90419134l16.4119484-16.4119484 38.82016228 38.8201623-16.41194839 16.41194838zM128.00993927 402.43034357l16.41194839-16.41194839 39.18785781 39.18785781-16.41194839 16.4119484zM54.16028966 365.17864982l15.6624152-15.6624152 38.82016229 38.82016228-15.6624152 15.6624152zM.00656934 311.01868553l15.6624152-15.6624152 37.42716193 37.42716192-15.6624152 15.6624152zM109.72470586 420.71480205l15.6624152-15.6624152 39.18785782 39.18785781-15.6624152 15.6624152z"></path><path d="m165.7446038 331.25955578 2.62336615-2.62336616 16.73721752 16.7372175-2.62336616 2.62336617zM108.6546038 388.31115019l2.62336615-2.62336616 16.73721752 16.73721751-2.62336616 2.62336616zM146.7146038 350.25203987l2.62336615-2.62336616 16.73721752 16.73721751-2.62336616 2.62336616zM184.78749915 312.19171102l2.62382398-2.62290825 16.73429606 16.74013845-2.62382398 2.62290825zM127.69167486 369.29159503l2.62336616-2.62336616 16.73721751 16.73721751-2.62336615 2.62336616zM129.22796934 256.64000062l2.62336616-2.62336616 16.7372175 16.7372175-2.62336615 2.62336617zM110.2050404 275.66955578l2.62336617-2.62336616 16.7372175 16.7372175-2.62336615 2.62336617zM91.1650404 294.70203987l2.62336617-2.62336616 16.7372175 16.73721751-2.62336615 2.62336616zM53.1050404 332.76115019l2.62336617-2.62336616 16.7372175 16.73721751-2.62336615 2.62336616zM72.1350404 313.7386661l2.62336617-2.62336616 16.7372175 16.7372175-2.62336615 2.62336617zM162.11949338 473.1449857 311.02203936 324.2424397l16.41194839 16.4119484-148.90254598 148.90254598zM181.14904853 492.16791463l148.90254599-148.90254598 16.41194839 16.41194839-148.90254598 148.90254598zM309.90594778 401.50388558l39.18785781-39.18785781 16.4119484 16.41194839-39.18785782 39.18785781zM200.18983126 511.2020221l37.42716192-37.42716193 16.4119484 16.4119484-37.42716193 37.42716192zM254.34979554 457.05830178l38.82016229-38.82016228 16.4119484 16.41194839-38.8201623 38.82016228zM273.3793507 476.09123071l38.82016229-38.82016228 16.41194839 16.41194839-38.82016229 38.82016229zM219.22231535 530.2320221l37.42716193-37.42716193 16.41194839 16.4119484-37.42716193 37.42716192zM328.942574 420.51388558l39.18785782-39.18785781 16.4119484 16.41194839-39.18785782 39.18785781zM292.41890586 495.12830178l38.82016229-38.82016228 16.41194839 16.41194839-38.82016229 38.82016228zM238.24894158 549.3120221l37.42716192-37.42716193 16.4119484 16.4119484-37.42716193 37.42716192zM347.9750581 439.54388558l39.18785781-39.18785781 16.4119484 16.41194839-39.18785782 39.18785781zM311.44846102 514.15123071l38.82016229-38.82016228 16.41194839 16.41194839-38.82016229 38.82016229zM257.28142567 568.3520221l37.42716193-37.42716193 16.41194839 16.4119484-37.42716193 37.42716192zM367.00461326 458.56681451l39.18785781-39.18785781 16.4119484 16.41194839-39.18785782 39.18785781zM276.31098083 587.38495103l37.42716193-37.42716192 16.41194839 16.41194839-37.42716193 37.42716192zM330.47801618 533.22830178l38.82016229-38.82016228 16.41194839 16.41194839-38.82016229 38.82016228zM386.04416842 477.61388558l39.18785781-39.18785781 16.4119484 16.41194839-39.18785782 39.18785781zM349.52200785 552.23306838l38.82016229-38.82016229 15.6624152 15.6624152-38.82016229 38.82016229zM295.3549725 606.38971763l37.42716192-37.42716193 15.6624152 15.6624152-37.42716192 37.42716193zM405.07816009 496.63865217l39.1878578-39.18785781 15.66241521 15.6624152-39.18785781 39.18785782z"></path><path d="m328.61489179 453.64073221 16.7372175-16.7372175 2.62336617 2.62336615-16.73721752 16.73721751zM385.71107647 510.75145823l16.73429606-16.74013845 2.62382398 2.62290826-16.73429606 16.74013845zM347.66151801 472.67073221l16.73721751-16.7372175 2.62336616 2.62336615-16.7372175 16.73721751zM309.5831765 434.60169067l16.74305888-16.7313741 2.62245027 2.62428173-16.74305888 16.7313741zM366.6840021 491.71073221l16.73721752-16.7372175 2.62336616 2.62336615-16.73721752 16.73721751zM254.02533663 490.17736667l16.73014644-16.73014644 2.62336616 2.62336616-16.73014644 16.73014644zM273.07196285 509.20736667l16.73014645-16.73014644 2.62336616 2.62336616-16.73014645 16.73014644zM292.08444695 528.29736667l16.7372175-16.7372175 2.62336617 2.62336615-16.73721752 16.73721751zM330.17186 566.30809026l16.73429606-16.74013845 2.62382398 2.62290826-16.73429606 16.74013845zM311.1240021 547.3202956l16.73721752-16.7372175 2.62336616 2.62336615-16.73721752 16.73721751z"></path></svg>