<svg xmlns="http://www.w3.org/2000/svg" width="625" viewBox="0 0 625 565.3" height="565.3" xml:space="preserve" style="enable-background:new 0 0 625 565.3"><path d="M419.7 199.4V0h-81.4v199.4h-51.6V0h-81.4v199.4H0c1.2 30.8.7 62 4.6 92.6 8.7 68.5 38.9 131.6 87.3 181 58.4 59.6 136.8 92.4 220.7 92.4 83.9 0 162.3-32.8 220.7-92.4 48.9-49.9 79.3-113.8 87.6-183.1 3.6-29.9 3.1-60.4 4.3-90.5H419.7zm128.1 72.4c-10.2 125.5-108.7 221-235.2 221-126.5 0-223.1-95.5-233.2-221v-4h126v172.9h81.4V267.8h51.6v172.9h81.4V267.8h128v4z"></path></svg>