<svg xmlns="http://www.w3.org/2000/svg" width="468.3" viewBox="0 0 468.3 616.5" height="616.5" xml:space="preserve"><path d="M430.6 291H77.7c-6.8 0-12.2-5.5-12.2-12.2 0-6.8 5.5-12.2 12.2-12.2h204.7c20.8 0 37.7-16.9 37.7-37.7V37.7c0-20.8-16.9-37.7-37.7-37.7H0v122h239.1c6.8 0 12.2 5.5 12.2 12.2 0 6.8-5.5 12.2-12.2 12.2l-201.4-.3c-20.8.1-37.7 17-37.7 37.8v190.5c0 20.8 16.9 37.7 37.7 37.7h340.6c7.7 0 13.9 6.2 13.9 13.9v57.5c0 7.7-6.2 13.9-13.9 13.9H0v119.1h430.6c20.8 0 37.7-16.9 37.7-37.7v-250c0-20.9-16.9-37.8-37.7-37.8z"></path></svg>