<svg data-name="Layer 1" xmlns="http://www.w3.org/2000/svg" viewBox="0 0 597.67 596.58"><path d="M86.45 195.07c0-59.81 48.65-108.46 108.46-108.46s108.46 48.66 108.46 108.46v206.59c0 54.79 44.57 99.36 99.36 99.36s99.37-44.57 99.37-99.36V0l-86.45 118.73v282.94c0 6.88-6.04 12.91-12.92 12.91s-12.91-6.03-12.91-12.91v-206.6C389.84 87.6 302.4.16 194.92.16S0 87.6 0 195.07v401.51l86.45-118.69V195.07Z"></path><path d="M511.22 0v401.67c0 59.81-48.66 108.46-108.47 108.46s-108.46-48.66-108.46-108.46v-206.6c0-54.79-44.57-99.36-99.36-99.36s-99.36 44.57-99.36 99.36V477.9l86.45 118.69V195.07c0-6.88 6.03-12.91 12.91-12.91s12.91 6.03 12.91 12.91v206.59c0 107.48 87.44 194.92 194.92 194.92s194.92-87.44 194.92-194.92V118.73L511.22 0Z"></path></svg>