<svg data-name="Layer 1" xmlns="http://www.w3.org/2000/svg" viewBox="0 0 621.33 621.32"><path d="M0 0v621.32h621.33V0H0Zm312.23 24.93c77.61.42 147.97 31.92 199.28 82.68L312.23 306.89V24.93Zm-3.13 281.95L109.82 107.61C161.13 56.85 231.5 25.35 309.1 24.93v281.95Zm-2.21 2.21H24.94c.42-77.6 31.92-147.97 82.67-199.27l199.28 199.27Zm0 3.13L107.61 511.5c-50.75-51.31-82.25-121.67-82.67-199.28h281.95Zm2.21 2.21v281.95c-77.6-.42-147.97-31.92-199.28-82.68L309.1 314.43Zm3.13 0 199.28 199.28c-51.31 50.76-121.67 82.26-199.28 82.68V314.44Zm2.21-2.21h281.95c-.42 77.6-31.92 147.97-82.67 199.28L314.44 312.22Zm0-3.13 199.28-199.27c50.75 51.31 82.25 121.67 82.67 199.27H314.44ZM526.98 92.13c-54.44-53.9-128.86-87.6-211.02-89h300.02l-89 89Zm-432.64 0-89-89h300.02c-82.16 1.4-156.57 35.1-211.02 89Zm-2.21 2.21c-53.95 54.5-87.66 129.01-89 211.26V5.34l89 89Zm-89 221.38c1.34 82.25 35.05 156.76 89.01 211.26l-89.01 89V315.72Zm91.22 213.47c54.45 53.9 128.86 87.6 211.02 89H5.34l89.01-89Zm432.64 0 89 89H315.96c82.16-1.4 156.57-35.1 211.02-89Zm2.21-2.21c53.95-54.5 87.67-129.01 89-211.26v300.26l-89-89Zm89-221.38c-1.34-82.25-35.05-156.76-89-211.26l89-89V305.6Z"></path></svg>