<svg xmlns="http://www.w3.org/2000/svg" width="642" viewBox="0 0 642 642" height="642" data-name="Layer 1"><path d="m337.73 210.21 64.91-199.74C377.04 3.76 350.19.13 322.52 0l10.99 209.65c.13 2.4 3.48 2.84 4.22.56ZM308.49 209.66 319.48 0c-27.68.13-54.52 3.76-80.12 10.47l64.9 199.74c.74 2.29 4.1 1.84 4.22-.56ZM280.09 216.69 236.44 11.3a318.962 318.962 0 0 0-74.63 30.95l114.34 176.07c1.31 2.02 4.44.72 3.94-1.63ZM254.49 230.83 159.18 43.76c-23.41 13.69-44.95 30.22-64.09 49.18l156.02 140.48c1.79 1.61 4.47-.45 3.38-2.59ZM233.42 251.12 92.94 95.09c-18.96 19.14-35.49 40.69-49.18 64.09l187.06 95.31c2.14 1.09 4.2-1.6 2.59-3.38ZM218.32 276.17 42.25 161.82a318.962 318.962 0 0 0-30.95 74.63l205.39 43.66c2.35.5 3.65-2.63 1.63-3.94ZM210.21 304.27 10.47 239.36C3.76 264.96.13 291.81 0 319.48l209.65-10.99c2.4-.13 2.84-3.48.56-4.22ZM209.66 333.51 0 322.52c.13 27.68 3.76 54.52 10.47 80.12l199.74-64.9c2.29-.74 1.84-4.1-.56-4.22ZM216.69 361.91 11.3 405.56a318.962 318.962 0 0 0 30.95 74.63l176.07-114.34c2.02-1.31.72-4.44-1.63-3.94ZM230.83 387.51 43.76 482.82c13.69 23.41 30.22 44.95 49.18 64.09l140.48-156.02c1.61-1.79-.45-4.47-2.59-3.38ZM251.12 408.58 95.1 549.06c19.14 18.96 40.69 35.49 64.09 49.18l95.31-187.06c1.09-2.14-1.6-4.2-3.38-2.59ZM276.17 423.68 161.82 599.75a318.962 318.962 0 0 0 74.63 30.95l43.66-205.39c.5-2.35-2.63-3.65-3.94-1.63ZM304.27 431.79l-64.91 199.74c25.6 6.71 52.44 10.34 80.12 10.47l-10.99-209.65c-.13-2.4-3.48-2.84-4.22-.56ZM333.51 432.34 322.52 642c27.68-.13 54.52-3.76 80.12-10.47l-64.9-199.74c-.74-2.29-4.1-1.84-4.22.56ZM361.91 425.31l43.65 205.39a318.962 318.962 0 0 0 74.63-30.95L365.85 423.68c-1.31-2.02-4.44-.72-3.94 1.63ZM387.51 411.17l95.31 187.07c23.41-13.69 44.95-30.22 64.09-49.18L390.89 408.58c-1.79-1.61-4.47.45-3.38 2.59ZM408.58 390.88 549.06 546.9c18.96-19.14 35.49-40.69 49.18-64.09L411.18 387.5c-2.14-1.09-4.2 1.6-2.59 3.38ZM423.68 365.83l176.07 114.35a318.962 318.962 0 0 0 30.95-74.63l-205.39-43.66c-2.35-.5-3.65 2.63-1.63 3.94ZM431.79 337.73l199.74 64.91c6.71-25.6 10.34-52.44 10.47-80.12l-209.65 10.99c-2.4.13-2.84 3.48-.56 4.22ZM432.34 308.49 642 319.48c-.13-27.68-3.76-54.52-10.47-80.12l-199.74 64.9c-2.29.74-1.84 4.1.56 4.22ZM425.31 280.09l205.39-43.65a318.962 318.962 0 0 0-30.95-74.63L423.68 276.15c-2.02 1.31-.72 4.44 1.63 3.94ZM411.17 254.49l187.07-95.31c-13.69-23.41-30.22-44.95-49.18-64.09L408.58 251.11c-1.61 1.79.45 4.47 2.59 3.38ZM390.88 233.42 546.9 92.94c-19.14-18.96-40.69-35.49-64.09-49.18L387.5 230.82c-1.09 2.14 1.6 4.2 3.38 2.59ZM365.83 218.32 480.18 42.25a318.962 318.962 0 0 0-74.63-30.95l-43.66 205.39c-.5 2.35 2.63 3.65 3.94 1.63Z"></path><circle cx="321" cy="321" r="32.91"></circle></svg>