<svg xmlns="http://www.w3.org/2000/svg" width="598.2" viewBox="0 0 598.2 598.2" height="598.2" style="enable-background:new 0 0 598.2 598.2" xml:space="preserve"><path d="M143.6 151.5h8v-16h-16v-16h-16v32h24zm0 39.9h8v-16h-16v-16h-16v32h24zm0 39.9h8v-16h-16v-16h-16v32h24zm0 39.9h8v-16h-16v-16h-16v32h24zm-119.7 0h8v-16h-16v-16H0v32h23.9zm119.7 39.9h8v-16h-16v-16h-16v32h24zm-119.7 0h8v-16h-16v-16H0v32h23.9zm119.7 39.8h8v-16h-16v-16h-16v32h24zm-119.7 0h8v-16h-16v-16H0v32h23.9zm159.5-199.4h8v-16h-16v-16h-16v32h24zm0 39.9h8v-16h-16v-16h-16v32h24zm0 39.9h8v-16h-16v-16h-16v32h24zm0 39.9h8v-16h-16v-16h-16v32h24zm-119.6 0h8v-16h-16v-16h-16v32h24zm119.6 39.9h8v-16h-16v-16h-16v32h24zm-119.6 0h8v-16h-16v-16h-16v32h24zm119.6 39.8h8v-16h-16v-16h-16v32h24zm-119.6 0h8v-16h-16v-16h-16v32h24zm159.5-199.4h8v-16h-16v-16h-16v32h24zm0 39.9h8v-16h-16v-16h-16v32h24zm0 39.9h8v-16h-16v-16h-16v32h24zm0 39.9h8v-16h-16v-16h-16v32h24zm-119.6 0h8v-16h-16v-16h-16v32h24zm119.6 39.9h8v-16h-16v-16h-16v32h24zm-119.6 0h8v-16h-16v-16h-16v32h24zm119.6 39.8h8v-16h-16v-16h-16v32h24zm-119.6 0h8v-16h-16v-16h-16v32h24zm406.7-71.8h8v-16h-16v-16h-16v32h24zm0 39.9h8v-16h-16v-16h-16v32h24zm0 39.9h8v-16h-16v-16h-16v32h24zm-119.6-79.8h8v-16h-16v-16h-16v32h24zm0 119.7h8v-16h-16v-16h-16v32h24zm0-79.8h8v-16h-16v-16h-16v32h24zm0 119.7h8v-16h-16v-16h-16v32h24zm0-79.8h8v-16h-16v-16h-16v32h24zm0 119.6h8v-16h-16v-16h-16v32h24zm159.5-199.4h8v-16h-16v-16h-16v32h24zm0 39.9h8v-16h-16v-16h-16v32h24zm0 39.9h8v-16h-16v-16h-16v32h24zm-119.6-79.8h8v-16h-16v-16h-16v32h24zm0 119.7h8v-16h-16v-16h-16v32h24zm0-79.8h8v-16h-16v-16h-16v32h24zm0 119.7h8v-16h-16v-16h-16v32h24zm0-79.8h8v-16h-16v-16h-16v32h24zm0 119.6h8v-16h-16v-16h-16v32h24zm159.5-199.4h8v-16h-16v-16h-16v32h24zm0 39.9h8v-16h-16v-16h-16v32h24zm0 39.9h8v-16h-16v-16h-16v32h24zm-119.6-79.8h8v-16h-16v-16h-16v32h24zm0 119.7h8v-16h-16v-16h-16v32h24zm0-79.8h8v-16h-16v-16h-16v32h24zm0 119.7h8v-16h-16v-16h-16v32h24zm0-79.8h8v-16h-16v-16h-16v32h24zm0 119.6h8v-16h-16v-16h-16v32h24zM271.2 31.9h8v-16h-16V0h-16v32h24zM143.6 398.8h8v-16h-16v-16h-16v32h24zm127.6-327h8v-16h-16v-16h-16v32h24zM143.6 438.7h8v-16h-16v-16h-16v32h24zm127.6-327h8v-16h-16v-16h-16v32h24zM143.6 478.5h8v-16h-16v-16h-16v32h24zm247.2-327h8v-16h-16v-16h-16v32h24zM263.2 518.4h8v-16h-16v-16h-16v32h24zm8-366.9h8v-16h-16v-16h-16v32h24zm-8 247.3h8v-16h-16v-16h-16v32h24zm127.6-207.4h8v-16h-16v-16h-16v32h24zM263.2 558.3h8v-16h-16v-16h-16v32h24zm8-366.9h8v-16h-16v-16h-16v32h24zm-8 247.3h8v-16h-16v-16h-16v32h24zm127.6-207.4h8v-16h-16v-16h-16v32h24zM263.2 598.2h8v-16h-16v-16h-16v32h24zm8-366.9h8v-16h-16v-16h-16v32h24zm-8 247.2h8v-16h-16v-16h-16v32h24zM311 31.9h8v-16h-16V0h-16v32h24zM183.4 398.8h8v-16h-16v-16h-16v32h24zM311 71.8h8v-16h-16v-16h-16v32h24zM183.4 438.7h8v-16h-16v-16h-16v32h24zm127.6-327h8v-16h-16v-16h-16v32h24zM183.4 478.5h8v-16h-16v-16h-16v32h24zm247.3-327h8v-16h-16v-16h-16v32h24zM303.1 518.4h8v-16h-16v-16h-16v32h24zm7.9-366.9h8v-16h-16v-16h-16v32h24zm-7.9 247.3h8v-16h-16v-16h-16v32h24zm127.6-207.4h8v-16h-16v-16h-16v32h24zM303.1 558.3h8v-16h-16v-16h-16v32h24zm7.9-366.9h8v-16h-16v-16h-16v32h24zm-7.9 247.3h8v-16h-16v-16h-16v32h24zm127.6-207.4h8v-16h-16v-16h-16v32h24zM303.1 598.2h8v-16h-16v-16h-16v32h24zm7.9-366.9h8v-16h-16v-16h-16v32h24zm-7.9 247.2h8v-16h-16v-16h-16v32h24zm47.8-446.6h8v-16h-16V0h-16v32h24zM223.3 398.8h8v-16h-16v-16h-16v32h24zm127.6-327h8v-16h-16v-16h-16v32h24zM223.3 438.7h8v-16h-16v-16h-16v32h24zm127.6-327h8v-16h-16v-16h-16v32h24zM223.3 478.5h8v-16h-16v-16h-16v32h24zm247.3-327h8v-16h-16v-16h-16v32h24zM343 518.4h8v-16h-16v-16h-16v32h24zm7.9-366.9h8v-16h-16v-16h-16v32h24zM343 398.8h8v-16h-16v-16h-16v32h24zm127.6-207.4h8v-16h-16v-16h-16v32h24zM343 558.3h8v-16h-16v-16h-16v32h24zm7.9-366.9h8v-16h-16v-16h-16v32h24zM343 438.7h8v-16h-16v-16h-16v32h24zm127.6-207.4h8v-16h-16v-16h-16v32h24zM343 598.2h8v-16h-16v-16h-16v32h24zm7.9-366.9h8v-16h-16v-16h-16v32h24zM343 478.5h8v-16h-16v-16h-16v32h24zm-65.4-231.3h43l15.2 15.2 15.2 15.2v43l-15.2 15.2-15.2 15.2h-17.5v-16.2c15.7-2 27.9-15.4 27.9-31.7 0-6.8-2.2-13.2-5.8-18.4l-26.1-37.2-26.1 37.2c-3.7 5.2-5.8 11.5-5.8 18.4 0 16.3 12.2 29.7 27.9 31.7V351h-17.5l-15.2-15.2-15.2-15.2v-43l15.2-15.2 15.2-15.2z" style="fill-rule:evenodd;clip-rule:evenodd"></path></svg>