<svg xmlns="http://www.w3.org/2000/svg" id="a" width="642" viewBox="0 0 642 642" height="642" data-name="Layer 1"><defs></defs><path d="M0 321c0-17.46 1.39-34.59 4.08-51.3l51.3 51.39L.01 321ZM54.07 142.65a319.879 319.879 0 0 0-30.68 57.85L143.9 321.1h88.53L54.07 142.65ZM142.6 54.1a322.398 322.398 0 0 0-48.59 39.93L321 321.05v-88.53L142.6 54.1ZM269.63 4.09a319.237 319.237 0 0 0-69.2 19.32l120.56 120.58V55.47L269.62 4.09ZM642 321.09c0 17.46-1.39 34.59-4.08 51.3L586.62 321l55.37.09ZM587.93 499.45a319.879 319.879 0 0 0 30.68-57.85L498.1 321h-88.53l178.36 178.45ZM499.4 588a322.398 322.398 0 0 0 48.59-39.93L321 321.05v88.53L499.4 588ZM372.37 638a319.237 319.237 0 0 0 69.2-19.32L321.01 498.1v88.53l51.37 51.38ZM321 642c-17.46 0-34.59-1.39-51.29-4.08l51.29-51.3v55.37Z" class="b"></path><path d="M200.5 618.62a319.459 319.459 0 0 1-57.84-30.68L321 409.57v88.53L200.5 618.62ZM94.06 548.02a322.189 322.189 0 0 1-39.95-48.61L232.43 321h88.58L94.07 548.02ZM23.41 441.58a318.723 318.723 0 0 1-19.33-69.24l51.29-51.33h88.53L23.42 441.59ZM321 0c17.46 0 34.59 1.39 51.29 4.08L321 55.38V0ZM441.5 23.38a319.459 319.459 0 0 1 57.84 30.68L321 232.43V143.9L441.5 23.38Z" class="b"></path><path d="M547.94 93.98a322.189 322.189 0 0 1 39.95 48.61L409.57 321h-88.58L547.93 93.98ZM618.59 200.42a318.723 318.723 0 0 1 19.33 69.24l-51.29 51.33H498.1l120.48-120.58Z" class="b"></path></svg>