<svg data-name="Layer 1" xmlns="http://www.w3.org/2000/svg" viewBox="0 0 609.83 609.83"><path d="M609.83 301.83h-70.55C537.63 175.01 434.81 72.2 308 70.55V0h-6.17v70.55C175.01 72.2 72.2 175.01 70.55 301.83H0V308h70.55c1.65 126.81 104.46 229.63 231.28 231.28v70.55H308v-70.55C434.82 537.63 537.64 434.81 539.28 308h70.55v-6.17Zm-87.82 0h-7.4c-1.65-113.22-93.4-204.97-206.62-206.62v-7.4c117.3 1.65 212.36 96.72 214.01 214.02Zm-220.18 0H112.48c1.64-103.7 85.65-187.71 189.35-189.35v189.35Zm0 6.17v189.35C198.13 495.7 114.13 411.7 112.48 308h189.35Zm6.17 0h189.35C495.71 411.7 411.7 495.7 308 497.35V308Zm0-6.17V112.48c103.7 1.64 187.7 85.65 189.35 189.35H308Zm-6.17-214.02v7.4c-113.22 1.65-204.97 93.4-206.62 206.62h-7.4c1.65-117.3 96.71-212.37 214.01-214.02ZM87.82 308h7.4c1.65 113.22 93.4 204.97 206.62 206.62v7.4c-117.3-1.65-212.36-96.72-214.01-214.01ZM308 522.01v-7.4c113.22-1.64 204.97-93.4 206.62-206.62h7.4C520.37 425.29 425.3 520.35 308.01 522Z"></path></svg>