<svg xmlns="http://www.w3.org/2000/svg" width="594.3" viewBox="0 0 594.3 593.9" height="593.9"><path d="M519.3 277.3c-2.1-10.6-19.4-22.7-47.4-33.4-40.5-15.5-103.2-27.9-173.6-27.9h-2.4c-70.4 0-133.1 12.4-173.6 27.9-27.9 10.7-45.3 22.8-47.4 33.4-.1.9-.1 1.9-.2 2.8-.3 4.8-.5 9.5-.5 14.4 0 123.5 99.4 221.1 221.8 221.1h2.4c122.4 0 221.8-97.6 221.6-221.1 0-4.9-.2-9.7-.5-14.4-.1-1-.2-1.9-.2-2.8zM478.1 291c0 5.4-.3 10.7-.7 16-8 92.7-85.1 163.4-179.1 163.4h-2.4c-94 0-171-70.8-179.1-163.4-.5-5.3-.7-10.6-.7-16.2-2-5-1.3-11.7 2-16 16.4-21.4 89.6-46.2 177.8-46.2h2.4c88.2 0 160 25.4 177.3 46.2 3.2 3.9 5.1 10.9 2.5 16.2z"></path><path d="M444.9 277.6c-2.1-8.4-18.6-18.3-44.1-26.1-26.5-8.2-62.6-13.5-102.5-13.5h-2.4c-39.9 0-76.1 5.4-102.5 13.5-25.5 7.9-41.9 17.7-44.1 26.1-.2.6-.3 1.2-.3 1.8-.1 2.5-.1 5.6-.1 8.2 0 81.9 65.8 147 147 147h2.4c81.2 0 147-65.2 147-147 0-2.6 0-5.7-.1-8.2-.1-.5-.2-1.1-.3-1.8zM404.6 301c-7.9 52-52.5 90-106.3 90h-2.4c-53.8 0-98.4-37.9-106.3-90-.8-5.4-1.1-11-1.1-16.6.3-14.5 48.3-35.1 107.4-35.1h2.4c59.2 0 107.1 20.6 107.4 35.1 0 5.7-.3 11.2-1.1 16.6z"></path><path d="M298.3 0h-2.4C132.5 0 0 130.4 0 295.3s132.5 298.5 296 298.5h2.4c163.5 0 296-133.7 296-298.5S461.8 0 298.3 0zM296 37.8h2.4c120.1 0 220.7 83.9 247.5 196.8-11-5-23.8-9.8-38-14.4-30-87.6-112.4-150.6-209.5-150.6H296c-97.1 0-179.5 62.9-209.5 150.6-14.2 4.5-27 9.4-38 14.4C75.2 121.7 175.9 37.8 296 37.8zm2.3 100.3h-2.4c-49 0-92.4 24.2-119.1 61.4-14.3 2.2-28 4.8-41 7.6 29.8-58.6 90.2-101.3 160-101.3h2.4c69.8 0 130.2 42.7 160 101.3-13-2.8-26.7-5.4-41-7.6-26.5-37.1-69.9-61.4-118.9-61.4zm59.6 54.7c-19.2-1.4-39.1-2.2-59.6-2.2h-2.4c-20.4 0-40.3.8-59.6 2.2 17-11.5 37.5-18.2 59.6-18.2h2.3c22.1 0 42.6 6.7 59.7 18.2zm194.6 113.5c-6.2 136.2-117.6 244.8-254.2 244.8h-2.4c-136.6 0-248-108.5-254.2-244.8-.2-3.9-.3-7.9-.3-11.9 0-1.7 0-3.4.1-5.2-2.8-3.3-4.3-6.6-4.3-10.1 0-4 2-8.2 5.7-12.4 24.9-28.6 128.7-62.3 253-62.3h2.4c124.3 0 228 33.7 253 62.3 3.7 4.3 5.7 8.5 5.7 12.4 0 3.4-1.5 6.8-4.3 10.1 0 1.7.1 3.4.1 5.2-.1 4-.2 8-.3 11.9z"></path><path d="M325.4 260.5c-8.4-1.2-17.5-1.9-27.1-1.9h-2.4c-9.6 0-18.7.7-27.1 1.9-27.5 3.8-46.9 12.7-46.9 19.4v1.5c0 36.1 33.2 74.8 74.1 74.8h2.4c40.9 0 74.1-38.7 74.1-74.8v-1.3-.2c-.1-6.7-19.6-15.5-47.1-19.4zm3.6 34.6c-5.2 11.8-17 20.1-30.7 20.1h-2.4c-13.7 0-25.4-8.3-30.7-20.1-2.4-5.4-3.4-13.6-2.5-19.5 6.9-3.2 19.2-6 33.2-6h2.4c14.1 0 26.3 2.8 33.2 6 .9 5.9-.1 14-2.5 19.5z"></path></svg>