<svg id="Layer_1" data-name="Layer 1" xmlns="http://www.w3.org/2000/svg" viewBox="0 0 608.48 584.72">   <polygon points="264.91 108.58 346.83 155.88 346.83 250.51 345.82 251.1 345.86 251.12 427.82 203.8 427.82 109.17 345.86 61.85 264.91 108.58"></polygon>   <polygon points="214.74 478.22 214.78 478.24 296.74 430.92 296.74 336.29 214.78 288.97 133.84 335.71 215.75 383 215.75 477.64 214.74 478.22"></polygon>   <polygon points="478.26 383 478.26 477.64 477.26 478.22 477.3 478.24 559.25 430.92 559.25 336.29 477.3 288.97 396.35 335.71 478.26 383"></polygon>   <polygon points="477.42 533.74 346.35 458.08 346.17 458.18 345.96 458.06 214.9 533.74 83.83 458.08 83.83 458.08 83.83 307.94 214.9 232.27 214.9 232.16 214.91 232.15 214.91 80.81 345.97 5.14 345.97 0 131.08 124.07 131.08 275.51 0 351.19 0 507.68 1.04 507.08 135.53 584.72 266.77 508.94 398.04 584.72 608.48 463.21 608.48 458.06 477.42 533.74"></polygon> </svg>