<svg id="Layer_1" data-name="Layer 1" xmlns="http://www.w3.org/2000/svg" viewBox="0 0 622.84 587.04">   <polygon points="404.53 142.97 404.53 45.05 311.42 0 218.31 45.05 218.31 142.97 311.42 97.92 404.53 142.97"></polygon>   <polygon points="606.79 142.97 606.79 45.05 513.68 0 420.57 45.05 420.57 142.97 513.68 97.92 606.79 142.97"></polygon>   <polygon points="320.13 289.8 413.24 244.74 506.35 289.8 506.35 191.88 413.24 146.83 320.13 191.88 320.13 289.8"></polygon>   <polygon points="522.39 191.88 522.39 289.8 622.84 241.19 622.84 143.28 522.39 191.88"></polygon>   <polygon points="421.95 436.31 522.39 387.71 522.39 289.8 421.95 338.4 421.95 436.31"></polygon>   <polygon points="200.89 436.62 200.89 533.56 311.42 587.04 421.95 533.56 421.95 436.62 311.42 489.13 200.89 436.62"></polygon>   <polygon points="202.26 142.97 202.26 45.05 109.15 0 16.04 45.05 16.04 142.97 109.15 97.92 202.26 142.97"></polygon>   <polygon points="116.49 289.8 209.6 244.74 302.71 289.8 302.71 191.88 209.6 146.83 116.49 191.88 116.49 289.8"></polygon>   <polygon points="0 143.28 0 241.19 100.45 289.8 100.45 191.88 0 143.28"></polygon>   <polygon points="218.31 338.71 218.31 436.62 311.42 391.57 404.53 436.62 404.53 338.71 311.42 293.66 218.31 338.71"></polygon>   <polygon points="200.89 436.31 200.89 338.4 100.45 289.8 100.45 387.71 200.89 436.31"></polygon> </svg>