<svg xmlns="http://www.w3.org/2000/svg" id="a" width="619.05" viewBox="0 0 619.05 642" height="642" data-name="Layer 1"><defs></defs><path d="M379.18 277.54h-64.84l-31.65-97.33-31.59 97.33h-65.23l29.79-91.42H.02v-56.11h266.36l-28.12-86.67 52.39-16.06 88.53 250.26z" class="b"></path><path d="M0 221.41v56.1h91.15L2.97 548.91h57.66l106.41-327.5H0zM428.17 600.72 398.18 642 183.44 485.93h-.07l-20.41 62.98H97.73l81.08-249.61 52.78 38.33-31.66 97.32 228.24 165.77zM567.93 244.09 354.01 399.65l-20.15-62.02 82.75-60.09-92.13-260.59L379.95 0l79.99 246.01 71.59-52 36.4 50.08z" class="b"></path><path d="m409.36 466.8 76.01 55.21-36.47 50.14-218.92-159.02 52.71-38.33 82.82 60.15 223.16-162.29 30.38 41.82L409.36 466.8z" class="b"></path></svg>