<svg data-name="Layer 1" xmlns="http://www.w3.org/2000/svg" viewBox="0 0 611.47 560.23"><path d="M251.12 269.59c5.14 9.11 14.84 14.77 25.32 14.77 4.97 0 9.9-1.3 14.25-3.76 13.94-7.87 18.88-25.62 11.01-39.57L173.99 14.78c-3.81-6.76-10.03-11.62-17.5-13.7-7.47-2.08-15.31-1.13-22.06 2.69-13.95 7.87-18.89 25.62-11.02 39.57L251.12 269.6ZM87.35 282.84c16.01 0 29.04-13.03 29.04-29.04V53.96c0-16.01-13.03-29.04-29.04-29.04S58.31 37.95 58.31 53.96V253.8c0 16.01 13.03 29.04 29.04 29.04Z"></path><path d="M610.51 155.58c-2.59-8.04-9.73-13.24-18.18-13.24h-203.3c-11.57 0-22.31 6.27-28.05 16.37l-46.46 82.32c-3.82 6.76-4.77 14.6-2.69 22.07 2.08 7.47 6.95 13.69 13.7 17.5 4.35 2.46 9.28 3.76 14.25 3.76 10.47 0 20.17-5.66 25.32-14.77l39.03-69.16h110.01c-18.7 42.35-18.5 81.29-18.49 82.93 0 120.64-98.15 218.79-218.79 218.79S58.88 404.66 58.09 284.83c-.11-16.57-12.42-29.96-28.03-30.5-7.9-.29-15.49 2.62-21.2 8.14C3.15 267.99 0 275.41 0 283.35c0 152.67 124.2 276.87 276.87 276.87s276.87-124.27 276.87-277.03c0-.68.56-68.72 49.29-105.91l.47-.33c6.86-4.94 9.61-13.33 7.01-21.37Z"></path><circle cx="438.04" cy="255.32" r="29.04"></circle></svg>