<svg version="1.0" xmlns="http://www.w3.org/2000/svg" width="622.2" viewBox="0 0 622.2 622.2" height="622.2" xml:space="preserve" style="enable-background:new 0 0 622.2 622.2"><circle cx="270.5" cy="26.6" r="26.6"></circle><circle cx="351.8" cy="26.6" r="26.6"></circle><circle cx="311.1" cy="67.3" r="26.6"></circle><circle cx="392.4" cy="67.3" r="26.6"></circle><circle cx="351.8" cy="107.9" r="26.6"></circle><circle cx="433" cy="107.9" r="26.6"></circle><circle cx="392.4" cy="148.6" r="26.6"></circle><circle cx="473.7" cy="148.6" r="26.6"></circle><circle cx="433" cy="189.2" r="26.6"></circle><circle cx="514.3" cy="189.2" r="26.6"></circle><circle cx="473.7" cy="229.8" r="26.6"></circle><circle cx="555" cy="229.8" r="26.6"></circle><circle cx="514.3" cy="270.5" r="26.6"></circle><circle cx="595.6" cy="270.5" r="26.6"></circle><circle cx="555" cy="311.1" r="26.6"></circle><circle cx="595.6" cy="351.8" r="26.6"></circle><circle cx="229.8" cy="67.3" r="26.6"></circle><circle cx="270.5" cy="107.9" r="26.6"></circle><circle cx="392.4" cy="229.8" r="26.6"></circle><circle cx="514.3" cy="351.8" r="26.6"></circle><circle cx="555" cy="392.4" r="26.6"></circle><circle cx="189.2" cy="107.9" r="26.6"></circle><circle cx="229.8" cy="148.6" r="26.6"></circle><circle cx="311.1" cy="229.8" r="26.6"></circle><circle cx="351.8" cy="270.5" r="26.6"></circle><circle cx="392.4" cy="311.1" r="26.6"></circle><circle cx="473.7" cy="392.4" r="26.6"></circle><circle cx="514.3" cy="433" r="26.6"></circle><circle cx="148.6" cy="148.6" r="26.6"></circle><circle cx="189.2" cy="189.2" r="26.6"></circle><circle cx="229.8" cy="229.8" r="26.6"></circle><circle cx="270.5" cy="270.5" r="26.6"></circle><circle cx="311.1" cy="311.1" r="26.6"></circle><circle cx="351.8" cy="351.8" r="26.6"></circle><circle cx="392.4" cy="392.4" r="26.6"></circle><circle cx="433" cy="433" r="26.6"></circle><circle cx="473.7" cy="473.7" r="26.6"></circle><circle cx="107.9" cy="189.2" r="26.6"></circle><circle cx="148.6" cy="229.8" r="26.6"></circle><circle cx="229.8" cy="311.1" r="26.6"></circle><circle cx="270.5" cy="351.8" r="26.6"></circle><circle cx="311.1" cy="392.4" r="26.6"></circle><circle cx="392.4" cy="473.7" r="26.6"></circle><circle cx="433" cy="514.3" r="26.6"></circle><circle cx="67.3" cy="229.8" r="26.6"></circle><circle cx="107.9" cy="270.5" r="26.6"></circle><circle cx="229.8" cy="392.4" r="26.6"></circle><circle cx="351.8" cy="514.3" r="26.6"></circle><circle cx="392.4" cy="555" r="26.6"></circle><circle cx="26.6" cy="270.5" r="26.6"></circle><circle cx="67.3" cy="311.1" r="26.6"></circle><circle cx="107.9" cy="351.8" r="26.6"></circle><circle cx="148.6" cy="392.4" r="26.6"></circle><circle cx="189.2" cy="433" r="26.6"></circle><circle cx="229.8" cy="473.7" r="26.6"></circle><circle cx="270.5" cy="514.3" r="26.6"></circle><circle cx="311.1" cy="555" r="26.6"></circle><circle cx="351.8" cy="595.6" r="26.6"></circle><circle cx="26.6" cy="351.8" r="26.6"></circle><circle cx="67.3" cy="392.4" r="26.6"></circle><circle cx="107.9" cy="433" r="26.6"></circle><circle cx="148.6" cy="473.7" r="26.6"></circle><circle cx="189.2" cy="514.3" r="26.6"></circle><circle cx="229.8" cy="555" r="26.6"></circle><circle cx="270.5" cy="595.6" r="26.6"></circle></svg>