<svg data-name="Layer 1" xmlns="http://www.w3.org/2000/svg" viewBox="0 0 577.69 619.13"><path d="M443.63 154.78C443.63 69.3 374.33 0 288.85 0c-28.2 0-54.62 7.58-77.39 20.76 53.44.05 105.4 27.76 134.04 77.37 42.74 74.03 17.38 168.69-56.65 211.44 85.48 0 154.78-69.3 154.78-154.78Z"></path><path d="M232.19 98.13C158.16 55.39 63.5 80.76 20.76 154.79 6.66 179.21.01 205.88.04 232.19c26.76-46.25 76.74-77.4 134.02-77.4 85.48 0 154.78 69.29 154.79 154.78 42.74-74.03 17.37-168.69-56.66-211.43Z"></path><path d="M77.41 252.92C3.38 295.66-21.98 390.33 20.77 464.36c14.1 24.42 33.87 43.51 56.67 56.64-26.68-46.3-28.66-105.16-.02-154.77 42.74-74.03 137.4-99.4 211.43-56.67-42.75-74.03-137.41-99.39-211.44-56.64Z"></path><path d="M288.85 309.56c-85.48 0-154.78 69.31-154.77 154.79 0 85.48 69.31 154.78 154.79 154.77 57.29 0 107.27-31.16 134.03-77.42-26.3.02-52.96-6.62-77.38-20.71-74.03-42.73-99.41-137.4-56.67-211.43ZM443.65 464.33c0 28.2-7.57 54.61-20.74 77.38 53.45-.05 105.41-27.77 134.05-77.38 14.1-24.42 20.74-51.09 20.71-77.4-26.76 46.26-76.73 77.4-134.02 77.41Z"></path><path d="M443.64 464.33c0-28.21-7.59-54.63-20.78-77.41-53.43-.06-105.37-27.76-134.01-77.36 0 85.48 69.31 154.77 154.79 154.77Z"></path><path d="M556.92 154.75c-14.1-24.42-33.88-43.51-56.68-56.63 26.68 46.3 28.67 105.15.03 154.77-28.66 49.65-80.66 77.37-134.14 77.39 23.5 13.59 43.12 33.15 56.72 56.65 26.32.03 53-6.62 77.43-20.73 74.03-42.75 99.38-137.42 56.63-211.44Z"></path></svg>