<svg data-name="Layer 1" xmlns="http://www.w3.org/2000/svg" viewBox="0 0 572.65 623.19"><path d="M528.44 311.6c45.14-37.55 58.09-103.22 27.73-155.8-30.36-52.58-93.7-74.2-148.79-53.88C397.43 44.04 347.04 0 286.32 0S175.21 44.04 165.26 101.91c-55.09-20.32-118.43 1.3-148.79 53.88-30.35 52.58-17.4 118.25 27.74 155.8-45.15 37.56-58.09 103.22-27.74 155.8 30.36 52.58 93.7 74.2 148.79 53.88 9.95 57.87 60.35 101.92 121.06 101.92s111.11-44.04 121.06-101.92c55.09 20.32 118.44-1.3 148.79-53.88 30.36-52.58 17.41-118.24-27.73-155.8Zm-284.46 73.34c-2.4-13.85-7.24-27.53-14.68-40.41-7.44-12.89-16.86-23.91-27.66-32.92 10.8-9.01 20.22-20.04 27.66-32.92 7.44-12.89 12.28-26.56 14.68-40.41 13.2 4.85 27.46 7.49 42.34 7.49s29.14-2.65 42.34-7.49c2.4 13.85 7.24 27.53 14.68 40.41 7.44 12.89 16.86 23.91 27.66 32.92-10.8 9.01-20.22 20.04-27.66 32.92-7.44 12.89-12.28 26.56-14.68 40.41-13.2-4.85-27.46-7.49-42.34-7.49s-29.14 2.65-42.34 7.49Z"></path><circle cx="286.32" cy="311.6" r="31.84"></circle></svg>