<svg xmlns="http://www.w3.org/2000/svg" width="605.6" viewBox="0 0 605.6 612.9" height="612.9" xml:space="preserve"><path d="M486.6 304.2c0 16-2 31.5-5.9 46.2l117-117c-4.8-20.4-11.6-40-20.3-58.6L483.2 269c2.2 11.4 3.4 23.1 3.4 35.2zM572.3 164.6c-8.8-17-19.1-33.2-30.8-48.1L201 457.1l-84.5 84.5-31.9 31.9 39.5 39.5 40.6-40.6 90.7-90.7 316.9-317.1zM2.5 263.9 263.9 2.5C127.8 19.9 19.9 127.8 2.5 263.9zM302.8 487.9c-12 0-23.8-1.2-35.2-3.4l-92.8 92.8c18.6 8.7 38.2 15.5 58.6 20.3L349.1 482c-14.8 3.8-30.3 5.9-46.3 5.9zM603.8 336.6 336.6 603.8c140.3-15.6 251.6-126.9 267.2-267.2zM192.1 450.8l342.6-342.6c-12-14.3-25.3-27.4-39.7-39.3L153.2 410.8l-84.3 84.3-31.4 31.4L77 565.9l31.2-31.2 83.9-83.9zM600.3 246 473.2 373.1c-18.6 46-55.4 82.8-101.4 101.4L246 600.3c18.4 3.5 37.4 5.4 56.9 5.4 5.8 0 11.5-.2 17.2-.5l285-285.2c.3-5.7.5-11.4.5-17.2 0-19.4-1.8-38.4-5.3-56.8zM290.2 120.9 396.4 14.7c-9.1-3-18.4-5.5-27.8-7.6L246.4 129.3c14-4.5 28.7-7.4 43.8-8.4zM119.1 304.2c0-19.7 3.1-38.6 8.8-56.4L7.2 368.5c4.6 20.6 11.2 40.4 19.7 59.2l94.5-94.5c-1.5-9.4-2.3-19.1-2.3-29zM220.8 139.7 355.9 4.6c-17.2-3-34.9-4.6-53-4.6-7.4 0-14.8.3-22.1.8l-280 280c-.5 7.3-.8 14.6-.8 22 0 18.1 1.6 35.8 4.6 53L138.4 222c17.8-35.5 46.8-64.5 82.4-82.3zM147.1 401.7 486.6 62.1c-15.1-11.6-31.4-21.8-48.6-30.3L123.9 345.9 31.8 438l-1.4 1.4v78.9l31.7-31.7 85-84.9z"></path></svg>