<svg data-name="Layer 1" xmlns="http://www.w3.org/2000/svg" viewBox="0 0 620.91 621.15"><path d="m249.81 418.81-55.19 94.1h232.81l-55.19-94.1H249.81zM601.61 418.81H481.56l58.91 100.44c26.33-29.01 47.22-63.03 61.14-100.44ZM366.71 409.39l-55.68-94.96-55.69 94.96h111.37zM420.85 315.29l55.19 94.1h128.85c9.94-29.63 15.54-61.24 16.03-94.1H420.86ZM537.54 98.81C480.85 38.04 400.12 0 310.45 0S140.06 38.04 83.37 98.81h454.18ZM250.81 211.76l60.21 102.67 54.66-93.2 49.63 84.63H620.9c-.49-32.86-6.09-64.47-16.03-94.1H250.81ZM83.37 522.34c56.69 60.77 137.43 98.81 227.09 98.81s170.4-38.04 227.09-98.81H83.37ZM140.49 211.76H16.03C6.09 241.39.49 273 0 305.86h85.3l55.19-94.1ZM74.94 108.24c-23.73 27.59-42.72 59.35-55.64 94.1h126.72l49.63-84.63 49.63 84.63h356.33c-12.92-34.74-31.92-66.51-55.64-94.1H74.94ZM19.2 418.56l60.57-103.28H0c.54 36.27 7.24 71.04 19.2 103.28Z"></path></svg>