<svg data-name="Layer 1" xmlns="http://www.w3.org/2000/svg" viewBox="0 0 612.17 612.17"><path d="M306.09 0C137.04 0 0 137.04 0 306.09s137.04 306.09 306.09 306.09h.02l-34.96-112.09c-4.54-14.55-17.49-24.85-32.69-26l-33.77-2.55c-15.29-1.15-28.31-11.58-32.77-26.25L70.16 111.07h145.38l92.28 302.88c4.47 14.65 17.48 25.06 32.75 26.21l88.17 6.65c15.12 1.14 28.04 11.36 32.63 25.81L486.9 553c75.94-55.7 125.27-145.54 125.27-246.93C612.17 137.04 475.13 0 306.09 0Zm107.78 410.45c-54.57 0-98.8-44.23-98.8-98.8s44.23-98.8 98.8-98.8 98.8 44.23 98.8 98.8-44.23 98.8-98.8 98.8Z"></path></svg>