<svg xmlns="http://www.w3.org/2000/svg" width="619.8" viewBox="0 0 619.8 446.2" height="446.2" style="enable-background:new 0 0 619.8 446.2" xml:space="preserve"><path d="M471 49.6h148.7V0H371.8v49.6H173.5v49.6H0v247.9h173.5v49.6h198.3v49.6h247.9v-49.6H421.4v-49.6h198.3v-49.6H421.4v-49.6h198.3v-49.6H421.4v-49.6h198.3V99.2H421.4V49.6H471zM173.5 247.9v49.6h-124v-49.6h124zm0-49.6h-124v-49.6h124v49.6zm49.6-99.1h148.7v49.6H223.1V99.2zm0 99.1h148.7v49.6H223.1v-49.6zm148.8 148.8H223.2v-49.6h148.7v49.6z"></path></svg>