<svg xmlns="http://www.w3.org/2000/svg" width="617.4" viewBox="0 0 617.4 617.4" height="617.4" style="enable-background:new 0 0 617.4 617.4" xml:space="preserve"><path d="M308.7 0C138.5 0 0 138.5 0 308.7s138.5 308.7 308.7 308.7 308.7-138.5 308.7-308.7S479 0 308.7 0zm104.1 274.7h-70V70.6c24.7 3.5 48.3 10.8 70 21.2v182.9zM274.7 137.5H139.8c35.8-35.3 82.7-59.5 134.8-67v67zm0 68.1v69H70.6c3.5-24.4 10.6-47.6 20.8-69h183.3zm-69.4 137.2h69.3v204.1c-24.5-3.5-47.8-10.6-69.3-20.9V342.8zm137.5 137.6h134.3c-35.8 35.1-82.4 59.1-134.3 66.5v-66.5zm0-68.1v-69.5h204.1c-3.5 24.5-10.7 47.9-21 69.5H342.8zm204.1-137.6h-66V140.8c34.8 35.7 58.6 82.2 66 133.9zM70.6 342.8h66.7v134.5C102 441.5 78 394.8 70.6 342.8z"></path></svg>