<svg id="Layer_1" data-name="Layer 1" xmlns="http://www.w3.org/2000/svg" viewBox="0 0 553.01 626.67">   <path d="M551.73,441.97c-2.51-9.35-8.5-17.17-16.85-22.05l7.52-13.06c3.13-5.44,3.15-12.13,.05-17.59l-36.96-64.95c-3.15-5.53-9.02-8.95-15.39-8.95h-.03l-82.92,.14c-9.78,.02-17.69,7.96-17.68,17.74,.02,9.77,7.94,17.68,17.71,17.68h.03l67.8-.11c-8.63,45.86-32.78,86.19-66.81,115.4l-33.75-58.41c-4.89-8.46-15.71-11.36-24.19-6.47-8.47,4.89-11.37,15.72-6.47,24.19l41.49,71.79c3.16,5.47,9.01,8.85,15.33,8.85h.15l74.73-.62c6.28-.06,12.06-3.43,15.2-8.87l7.72-13.41c5.68,3.21,11.85,4.76,17.96,4.76,12.66,0,24.99-6.57,31.75-18.31,4.87-8.46,6.16-18.32,3.62-27.75Zm-12.5,22.64c-7.2,12.5-23.17,16.84-35.71,9.78-.08-.04-.16-.06-.23-.1-12.58-7.24-16.91-23.37-9.67-35.95,3.51-6.09,9.18-10.45,15.97-12.28,6.79-1.82,13.88-.9,19.98,2.61,.08,.04,.13,.11,.21,.15,5.97,3.52,10.27,9.12,12.07,15.82,1.83,6.79,.9,13.88-2.61,19.97Z"></path>   <path d="M17.55,206.77l-7.71,13.44c-3.13,5.45-3.13,12.14-.02,17.6l37.06,64.9c3.15,5.52,9.02,8.93,15.38,8.93h.06l82.92-.27c9.78-.03,17.68-7.99,17.65-17.76-.03-9.76-7.95-17.65-17.71-17.65h-.06l-66.13,.21c8.47-45.38,32.12-85.37,65.51-114.56l33.29,57.41c4.91,8.46,15.74,11.34,24.2,6.43,8.46-4.9,11.34-15.74,6.43-24.2l-41.6-71.73c-3.17-5.47-9.01-8.83-15.32-8.83h-.18l-74.73,.74c-6.28,.07-12.06,3.45-15.18,8.89l-7.52,13.1c-17.37-9.38-39.19-3.26-49.07,13.94-9.88,17.21-4.14,39.14,12.71,49.4Zm-3.82-44.3c4.86-8.47,13.75-13.21,22.88-13.21,4.14,0,8.31,1.02,12.2,3.07,.28,.15,.58,.26,.86,.42h0c6.1,3.5,10.46,9.16,12.3,15.95,1.84,6.78,.92,13.88-2.58,19.98-3.5,6.1-9.16,10.47-15.95,12.3-6.79,1.84-13.88,.93-19.98-2.58-.28-.16-.51-.39-.78-.56-11.94-7.45-16.01-23.07-8.95-35.37Z"></path>   <path d="M212.71,198.77c4.89,8.47,15.72,11.35,24.19,6.47,8.47-4.9,11.36-15.73,6.46-24.19l-33.38-57.73c20.98-7.42,43.51-11.54,67.03-11.54s45.07,3.93,65.65,11.04l-33.66,58.22c-4.9,8.47-2,19.29,6.46,24.19,2.79,1.61,5.84,2.38,8.85,2.38,6.12,0,12.07-3.17,15.35-8.85l41.51-71.79c3.19-5.52,3.17-12.33-.06-17.83l-37.84-64.45c-3.18-5.41-8.99-8.74-15.27-8.74h-14.88c-.33-19.88-16.58-35.96-36.54-35.96s-36.21,16.08-36.54,35.96h-15.69c-6.28,0-12.09,3.33-15.27,8.74l-37.84,64.45c-3.23,5.5-3.25,12.31-.06,17.83l41.51,71.79ZM276.6,10.25c14.3,0,25.93,11.49,26.26,25.72,0,.21,.06,.4,.06,.61,0,14.51-11.81,26.32-26.32,26.32s-26.32-11.81-26.32-26.32c0-.21,.06-.4,.06-.61,.33-14.23,11.95-25.72,26.26-25.72Z"></path>   <path d="M350.12,225.23c8.48,4.88,19.31,1.97,24.18-6.51l33.66-58.46c34.08,29.17,58.29,69.46,67,115.3h-67.81c-9.78,0-17.7,7.92-17.71,17.7,0,9.78,7.93,17.71,17.7,17.71h82.92s0,.01,0,.01c6.37,0,12.26-3.43,15.4-8.97l36.86-65.01c3.1-5.46,3.07-12.16-.07-17.6l-7.54-13.04c17.28-10.15,23.19-32.44,13.14-49.83-10.05-17.38-32.31-23.37-49.73-13.48l-7.74-13.39c-3.14-5.44-8.93-8.8-15.21-8.85l-74.74-.51c-6.35-.02-12.28,3.35-15.47,8.87l-41.38,71.86c-4.88,8.48-1.96,19.3,6.51,24.18Zm152.92-73.18c.08-.04,.16-.07,.23-.11,4.08-2.3,8.51-3.41,12.89-3.41,9.1,0,17.96,4.71,22.84,13.14,3.52,6.09,4.46,13.18,2.64,19.97-1.79,6.71-6.08,12.31-12.05,15.84-.07,.04-.13,.11-.21,.15-12.56,7.26-28.69,2.95-35.96-9.61-7.26-12.57-2.95-28.7,9.62-35.96Z"></path>   <path d="M339.85,427.8c-4.91-8.46-15.74-11.33-24.2-6.43-8.46,4.91-11.34,15.75-6.43,24.2l33.75,58.17c-20.67,7.18-42.83,11.15-65.94,11.15s-45.84-4.08-66.74-11.43l33.29-57.78c4.88-8.48,1.97-19.3-6.5-24.18-8.48-4.89-19.3-1.97-24.18,6.5l-41.4,71.85c-3.18,5.52-3.15,12.33,.09,17.83l37.94,64.39c3.18,5.4,8.99,8.72,15.26,8.72h.03l15.69-.02c.36,19.86,16.6,35.91,36.54,35.91h.06c19.96-.03,36.18-16.14,36.48-36.02l14.88-.02c6.28-.01,12.09-3.35,15.26-8.77l37.74-64.51c3.22-5.5,3.23-12.31,.03-17.83l-41.62-71.72Zm-62.78,188.62h-.04c-14.29,0-25.91-11.46-26.26-25.68,0-.21-.06-.4-.06-.61-.01-7.03,2.72-13.64,7.68-18.62,4.96-4.98,11.57-7.73,18.6-7.74h.04c14.5,0,26.3,11.78,26.33,26.28,0,.21-.06,.4-.06,.6-.31,14.23-11.91,25.73-26.22,25.76Z"></path>   <path d="M202.8,401.56c-8.48-4.87-19.3-1.94-24.17,6.54l-33.16,57.79c-33.68-29.06-57.63-69.04-66.34-114.47l66.55-.1c9.78-.02,17.69-7.96,17.68-17.73-.02-9.77-7.94-17.68-17.71-17.68h-.03l-82.92,.12c-6.38,.01-12.26,3.45-15.39,9L10.57,390.1c-3.09,5.47-3.05,12.16,.1,17.6l7.67,13.21c-17.03,10.26-22.79,32.39-12.77,49.65,6.78,11.68,19.07,18.21,31.7,18.21,6.03,0,12.13-1.53,17.74-4.66l7.67,13.23c3.15,5.43,8.94,8.79,15.22,8.82l74.73,.39h.09c6.34,0,12.2-3.39,15.36-8.9l41.27-71.92c4.87-8.48,1.94-19.3-6.55-24.17ZM50.4,474.98c-.18,.1-.37,.15-.56,.25-12.47,6.86-28.24,2.56-35.42-9.81-7.18-12.37-3.07-28.19,9.07-35.62,.18-.11,.31-.25,.49-.36,4.07-2.36,8.58-3.57,13.16-3.57,2.27,0,4.55,.3,6.8,.9,6.79,1.81,12.48,6.15,16.01,12.23,7.28,12.55,2.99,28.69-9.56,35.97Z"></path> </svg>