<svg id="Layer_1" data-name="Layer 1" xmlns="http://www.w3.org/2000/svg" viewBox="0 0 542.09 615.07">   <path d="M527.68,268.06c-28.38-54.86-93.7-82.82-171.63-81.41v349.26l-55.44-31.17V192.33c-13.06,2.38-26.29,5.52-39.6,9.42V482.48l-55.44-31.17V222.33c-7.19,3.24-14.37,6.65-21.52,10.35-6.17,3.19-12.17,6.54-18.08,9.95v186.41l-55.44-31.17v-117.22C17.88,355.9-24.46,458.44,14.41,533.59c48.04,92.86,201.88,108.7,343.62,35.38,141.74-73.32,217.69-208.04,169.65-300.91Z"></path>   <path d="M165.98,31.17L110.54,0V280.65c16.86-13.7,35.42-26.46,55.44-38.01V31.17Z"></path>   <path d="M261.02,84.6l-55.44-31.17V222.33c18.46-8.33,37.02-15.19,55.44-20.58V84.6Z"></path>   <path d="M356.05,138.04l-55.44-31.17v85.47c18.95-3.46,37.53-5.36,55.44-5.69v-48.61Z"></path> </svg>