<svg xmlns="http://www.w3.org/2000/svg" width="607.2" viewBox="0 0 607.2 607.2" height="607.2" xml:space="preserve"><path d="M303.6 510c55.8 0 108.3-22 147.8-61.8 78.4-79.2 81.5-206.6 7-290.1L303.6 0 150.1 156.5l-1.4 1.5c-74.4 83.5-71.3 210.9 7 290.1C195.3 488 247.8 510 303.6 510zM211 215.9l92.6-94.5 92.6 94.5c43.7 49.7 41.7 125.1-4.6 171.9-23.5 23.8-54.8 36.8-88 36.8s-64.5-13.1-88-36.8c-46.3-46.9-48.3-122.2-4.6-171.9z"></path><path d="M524.8 136.5v388.3H82.4V136.5H0v470.7h607.2V136.5z"></path></svg>