<svg xmlns="http://www.w3.org/2000/svg" width="642" viewBox="0 0 642 435.35" height="435.35" data-name="Layer 1"><path d="m510.65 381.37-30.42 53.98s-33.88-12.65-68.83-45.61c-21.41-20.19-43.22-48.01-57.88-85.22-38.61-97.95-53.59-161.69-77.66-209.38-24.07-47.69-68.38-58.07-68.38-58.07s69.04-32.78 118.34 36.95c36.33 51.4 40.42 98.94 76.91 197.34 39.97 107.79 107.94 110.01 107.94 110.01Z"></path><path d="m553.28 307.63-29.79 51.6c-22.13-.71-54.61-13.39-77.77-52.9-37.19-63.44-60.77-193.12-98.71-242.68-37.55-49.05-83.97-48.78-83.97-48.78s53.67-30.26 114.86 11.84c59.19 40.72 86.81 178.36 107.79 231.03 22.25 55.86 67.6 49.9 67.6 49.9ZM303.18 381.37l-30.42 53.98s-33.88-12.65-68.83-45.61c-21.41-20.19-43.22-48.01-57.88-85.22-38.61-97.95-53.59-161.69-77.66-209.38C44.3 47.45 0 37.08 0 37.08S69.04 4.3 118.34 74.03c36.33 51.4 40.42 98.94 76.91 197.34 39.97 107.79 107.94 110.01 107.94 110.01Z"></path><path d="m345.8 307.63-29.79 51.6c-22.13-.71-54.61-13.39-77.77-52.9-37.19-63.44-60.77-193.12-98.71-242.68-37.55-49.05-83.97-48.77-83.97-48.77s53.67-30.26 114.86 11.84c59.19 40.72 86.81 178.36 107.79 231.03 22.25 55.86 67.6 49.9 67.6 49.9ZM603.12 221.31s71.2-90.44 20.91-168.97c-64.77-87.4-151.97-38.95-151.97-38.95s67.52 0 102.64 67.22c32.55 62.3 28.42 140.7 28.42 140.7Z"></path><path d="M587.63 248.14c-.12-7.55-1.42-133.92-60.62-189.33-54.48-50.99-106.73-19.98-106.73-19.98s42.91 4.45 68.43 62.37c25.52 57.93 47.84 138.68 70.22 196.65l28.7-49.71Z"></path></svg>