<svg data-name="Layer 1" xmlns="http://www.w3.org/2000/svg" viewBox="0 0 618.84 511.69"><path d="M0 0h288.58v5.19H0zM0 38.96h288.58v5.19H0zM0 77.92h288.58v5.19H0zM0 116.89h288.58v5.19H0zM0 155.85h288.58v5.19H0zM0 194.81h288.58V200H0zM0 233.77h288.58v5.19H0zM0 272.73h288.58v5.19H0zM0 311.69h288.58v5.19H0zM0 350.65h288.58v5.19H0zM0 389.62h288.58v5.19H0zM0 428.58h288.58v5.19H0zM0 467.54h288.58v5.19H0zM0 506.5h288.58v5.19H0zM330.26 0h288.58v5.19H330.26zM330.26 38.96h288.58v5.19H330.26zM330.26 77.92h288.58v5.19H330.26zM330.26 116.89h288.58v5.19H330.26zM330.26 155.85h288.58v5.19H330.26zM330.26 194.81h288.58V200H330.26zM330.26 233.77h288.58v5.19H330.26zM330.26 272.73h288.58v5.19H330.26zM330.26 311.69h288.58v5.19H330.26zM330.26 350.65h288.58v5.19H330.26zM330.26 389.62h288.58v5.19H330.26zM330.26 428.58h288.58v5.19H330.26zM330.26 467.54h288.58v5.19H330.26zM330.26 506.5h288.58v5.19H330.26z"></path></svg>