<svg xmlns="http://www.w3.org/2000/svg" width="546.6" viewBox="0 0 546.6 579.8" height="579.8"><path d="M.1 315.2s-1.6 37.9 5.8 67.9c6.3 25.6 14.4 45 34.7 65.8l130.9 130.9h75.4L27.1 359.9C8.4 339.8.1 315.2.1 315.2zM.1 217.1S-1.5 255 5.9 285c6.3 25.6 14.4 45 34.7 65.8l229 229H345l-318-318C8.4 241.7.1 217.1.1 217.1zM.1 117.6s-1.6 37.9 5.8 67.9c6.3 25.6 14.4 45 34.7 65.8L369 579.7h75.4L27.1 162.3C8.4 142.2.1 117.6.1 117.6zM317.3 350.4l-74-74.1 13.5-13.5 79.3 79.3c58.9-29.8 99.3-90.9 99.3-161.4C435.5 80.9 354.6 0 254.7 0H0v20c-.2 10.9 0 39.7 5.9 63.5 6.3 25.6 14.4 45 34.7 65.8l430.6 430.6h75.4L317.3 350.4z"></path></svg>