<svg data-name="Layer 1" xmlns="http://www.w3.org/2000/svg" viewBox="0 0 614.95 614.88"><path d="m220.07 462.17 86.2 151.02V464.26c-31.87-.24-61.52-10.02-86.2-26.64v24.55ZM394.88 302.56V180.43c-24.3-16.78-53.63-26.75-85.23-27.19l85.23 149.32Z"></path><path d="M385.04 440.7c45.83-26.77 76.7-76.46 76.7-133.26 0-51.49-25.38-97.13-64.26-125.17v126.46h-87.76l75.32 131.96ZM217.48 435.79c-40.39-28.4-66.86-75.33-66.86-128.35 0-86.02 69.62-156.07 155.47-156.82V0C136.92.75 0 138.09 0 307.44s135.92 305.64 304.23 307.4l-86.75-151.98v-27.07Z"></path><path d="M306.73 308.74h-85.72l87.3 152.94c27.03-.14 52.42-7.29 74.48-19.68l-76.06-133.26ZM394.88 152.71 308.68 1.69v148.93c31.87.24 61.52 10.02 86.2 26.65v-24.55Z"></path><path d="m310.73.05 86.75 151.98v27.07c40.39 28.41 66.86 75.33 66.86 128.35 0 86.02-69.62 156.07-155.47 156.82v150.62c169.17-.75 306.09-138.09 306.09-307.44S479.04 1.8 310.73.05ZM220.07 312.33v122.13c24.3 16.78 53.63 26.75 85.23 27.19l-85.23-149.32Z"></path><path d="M229.92 174.18c-45.83 26.77-76.71 76.46-76.71 133.26 0 51.49 25.38 97.14 64.26 125.17V306.14h87.77l-75.33-131.96ZM308.23 306.14h85.72l-87.3-152.94c-27.03.14-52.41 7.29-74.48 19.68l76.06 133.26Z"></path></svg>