<svg data-name="Layer 1" xmlns="http://www.w3.org/2000/svg" viewBox="0 0 635.21 635.21"><path d="M317.6 59.24c16.33 0 29.62-13.29 29.62-29.62S333.94 0 317.6 0s-29.62 13.29-29.62 29.62 13.29 29.62 29.62 29.62ZM446.77 93.85c4.65 2.69 9.74 3.96 14.76 3.96 10.25 0 20.22-5.31 25.7-14.81 3.96-6.85 5.01-14.83 2.96-22.48-2.05-7.64-6.95-14.03-13.8-17.99-6.85-3.95-14.83-5.01-22.48-2.96-7.64 2.05-14.03 6.95-17.98 13.8-3.96 6.85-5.01 14.83-2.96 22.48 2.05 7.64 6.95 14.03 13.8 17.99ZM559.33 202.19c2.55.68 5.14 1.02 7.71 1.02 5.13 0 10.2-1.35 14.76-3.98 6.85-3.96 11.75-10.34 13.8-17.99 2.05-7.64 1-15.63-2.96-22.48s-10.34-11.75-17.99-13.8c-7.64-2.05-15.63-.99-22.48 2.96-6.85 3.96-11.75 10.35-13.8 17.99-2.05 7.64-1 15.63 2.96 22.48s10.35 11.75 17.99 13.8ZM626.53 296.6c-5.59-5.59-13.03-8.67-20.94-8.67-16.33 0-29.62 13.29-29.62 29.63 0 16.33 13.29 29.61 29.62 29.61 7.91 0 15.35-3.08 20.94-8.68 5.59-5.6 8.67-13.03 8.67-20.95 0-7.91-3.08-15.35-8.68-20.94ZM581.84 435.88c-14.15-8.16-32.3-3.3-40.46 10.85-8.16 14.15-3.29 32.3 10.85 40.46 4.56 2.63 9.63 3.98 14.75 3.98 2.58 0 5.17-.34 7.72-1.02 7.64-2.05 14.03-6.95 17.98-13.81 8.16-14.15 3.29-32.3-10.85-40.46ZM514.45 396.99c-11.88-6.85-26.57-4.49-35.81 4.82 3.43-12.66-1.87-26.56-13.75-33.41-6.72-3.88-14.51-4.95-22.02-3.05-2.12-7.46-6.94-13.66-13.66-17.54-.43-.25-.88-.45-1.31-.67.49.02.98.07 1.47.07 7.76 0 15.04-2.96 20.6-8.37 5.56 5.4 12.83 8.36 20.59 8.36 13.71 0 25.24-9.38 28.6-22.05 1.32 5.01 3.91 9.61 7.67 13.37 5.59 5.59 13.03 8.67 20.94 8.67 16.33 0 29.62-13.29 29.62-29.63 0-16.33-13.29-29.61-29.62-29.61-7.91 0-15.35 3.08-20.94 8.68-3.76 3.76-6.35 8.36-7.67 13.37-3.36-12.66-14.89-22.04-28.6-22.04-7.76 0-15.04 2.96-20.6 8.37-5.56-5.4-12.84-8.36-20.6-8.36-.47 0-.94.05-1.41.07.42-.22.84-.43 1.25-.67 6.72-3.88 11.54-10.08 13.65-17.54 7.51 1.89 15.29.82 22.02-3.06 6.85-3.96 11.75-10.34 13.8-17.99 1.37-5.13 1.32-10.4-.04-15.39 3.64 3.67 8.18 6.35 13.31 7.72 2.55.68 5.14 1.02 7.71 1.02 5.13 0 10.2-1.35 14.76-3.98 14.14-8.17 19.01-26.32 10.84-40.46-3.96-6.85-10.34-11.75-17.99-13.8-7.65-2.05-15.63-.99-22.48 2.96-11.88 6.86-17.17 20.76-13.74 33.42-9.24-9.3-23.93-11.66-35.81-4.8-6.72 3.88-11.54 10.09-13.65 17.54-7.52-1.9-15.29-.82-22.02 3.06-.42.24-.8.52-1.2.77.26-.4.52-.8.76-1.21 3.88-6.72 4.95-14.5 3.06-22.02 7.46-2.12 13.66-6.94 17.54-13.66 3.96-6.85 5.01-14.84 2.96-22.48-1.37-5.1-4.03-9.63-7.68-13.26 2.49.67 5.05 1.01 7.62 1.01s5.16-.34 7.72-1.02c7.64-2.05 14.03-6.95 17.98-13.8 3.96-6.85 5.01-14.83 2.96-22.48-2.05-7.64-6.95-14.03-13.8-17.99-14.15-8.17-32.3-3.3-40.46 10.84-6.86 11.88-4.5 26.57 4.81 35.81-12.66-3.44-26.56 1.86-33.41 13.74-3.88 6.72-4.95 14.5-3.06 22.02-7.46 2.12-13.66 6.93-17.54 13.66-.25.43-.45.88-.68 1.32.02-.49.08-.98.08-1.48 0-7.76-2.96-15.04-8.36-20.6 5.4-5.56 8.36-12.83 8.36-20.6 0-13.72-9.39-25.25-22.07-28.61 12.68-3.35 22.07-14.89 22.07-28.61 0-16.33-13.29-29.62-29.62-29.62s-29.62 13.29-29.62 29.62c0 13.72 9.39 25.25 22.07 28.61-12.68 3.35-22.07 14.89-22.07 28.61 0 7.76 2.96 15.04 8.36 20.6-5.4 5.56-8.36 12.83-8.36 20.6 0 .57.05 1.12.09 1.68-.25-.5-.48-1.01-.77-1.5-3.88-6.72-10.09-11.53-17.55-13.64 1.89-7.52.82-15.3-3.07-22.02-3.96-6.85-10.35-11.75-18-13.79-5.13-1.37-10.4-1.31-15.39.05 3.67-3.64 6.35-8.19 7.72-13.31 2.04-7.64.99-15.63-2.98-22.48-3.96-6.85-10.35-11.75-17.99-13.79-7.64-2.04-15.63-.99-22.47 2.98-6.85 3.96-11.75 10.35-13.79 17.99-2.04 7.64-.99 15.63 2.98 22.48 5.48 9.48 15.45 14.79 25.69 14.79 2.57 0 5.15-.34 7.69-1.02-9.26 9.25-11.59 23.91-4.74 35.77 3.89 6.72 10.09 11.53 17.55 13.64-1.89 7.52-.82 15.3 3.07 22.02.24.42.5.81.76 1.21-.4-.26-.78-.53-1.2-.77-6.73-3.88-14.51-4.95-22.02-3.04-2.12-7.46-6.94-13.66-13.67-17.53-11.89-6.85-26.57-4.48-35.81 4.83 3.43-12.66-1.88-26.55-13.76-33.41-14.15-8.16-32.3-3.28-40.46 10.87-8.16 14.15-3.28 32.3 10.87 40.46 4.56 2.63 9.62 3.97 14.74 3.97 2.58 0 5.17-.34 7.73-1.03 5.12-1.38 9.66-4.06 13.3-7.73-1.35 4.99-1.4 10.26-.03 15.39 2.05 7.64 6.96 14.03 13.81 17.98 6.73 3.88 14.51 4.95 22.02 3.04 2.12 7.46 6.94 13.66 13.67 17.53.41.24.83.45 1.25.67-.46-.02-.93-.07-1.39-.07h-.02c-7.77 0-15.04 2.97-20.59 8.37-5.56-5.39-12.83-8.35-20.58-8.35h-.02c-13.71 0-25.24 9.39-28.59 22.06-1.32-5.01-3.91-9.61-7.68-13.36-5.59-5.59-13.03-8.66-20.93-8.66h-.02c-16.33 0-29.61 13.3-29.61 29.64 0 16.33 13.3 29.6 29.62 29.6h.01c7.91 0 15.35-3.09 20.94-8.69 3.76-3.76 6.35-8.36 7.66-13.37 3.37 12.66 14.9 22.03 28.6 22.03h.02c7.76 0 15.04-2.97 20.59-8.37 5.56 5.39 12.83 8.35 20.58 8.35h.02c.5 0 .98-.05 1.47-.07-.44.22-.88.42-1.31.67-6.72 3.89-11.54 10.09-13.65 17.55-7.52-1.9-15.29-.82-22.02 3.07-11.87 6.86-17.16 20.75-13.73 33.4-3.65-3.68-8.19-6.36-13.33-7.74-7.64-2.04-15.63-.99-22.47 2.97-14.14 8.17-19 26.33-10.82 40.47 5.48 9.48 15.46 14.79 25.7 14.79 5.03 0 10.12-1.28 14.77-3.97 6.85-3.96 11.75-10.35 13.79-17.99 1.37-5.12 1.32-10.38-.04-15.36 5.62 5.62 13.23 8.69 21.01 8.69 5.03 0 10.12-1.28 14.77-3.97 6.72-3.89 11.54-10.09 13.65-17.55 7.52 1.9 15.29.82 22.02-3.07.43-.25.83-.54 1.24-.81-.27.42-.55.81-.8 1.24-3.88 6.73-4.95 14.51-3.05 22.02-7.46 2.12-13.66 6.94-17.53 13.66-6.85 11.88-4.48 26.57 4.82 35.81-12.66-3.43-26.55 1.87-33.41 13.76-3.95 6.85-5 14.84-2.95 22.48 2.05 7.64 6.96 14.03 13.81 17.98 4.56 2.63 9.62 3.97 14.75 3.97 2.58 0 5.17-.34 7.73-1.03 7.64-2.05 14.03-6.95 17.98-13.81 3.95-6.85 5-14.84 2.95-22.48-1.37-5.11-4.05-9.64-7.7-13.28 2.52.67 5.08 1.01 7.63 1.01 10.25 0 20.23-5.32 25.71-14.81 3.88-6.73 4.95-14.51 3.05-22.02 7.46-2.12 13.66-6.94 17.53-13.66.25-.43.45-.88.67-1.32-.02.49-.07.98-.07 1.48 0 7.76 2.97 15.04 8.37 20.59-5.4 5.56-8.36 12.84-8.35 20.6 0 7.91 3.09 15.35 8.68 20.94 3.76 3.76 8.36 6.35 13.37 7.66-12.67 3.37-22.04 14.9-22.03 28.61 0 16.33 13.29 29.61 29.62 29.61h.01c16.33 0 29.62-13.3 29.61-29.63 0-13.72-9.4-25.25-22.08-28.6 12.68-3.36 22.06-14.9 22.06-28.62 0-7.76-2.97-15.04-8.37-20.6 5.4-5.56 8.36-12.84 8.35-20.6 0-.5-.05-.98-.08-1.48.23.44.43.89.68 1.31 3.88 6.72 10.09 11.54 17.54 13.65-1.9 7.52-.82 15.3 3.06 22.02 3.96 6.85 10.35 11.75 17.99 13.8 2.55.68 5.14 1.02 7.7 1.02s5.14-.34 7.63-1.01c-3.64 3.64-6.31 8.16-7.67 13.26-2.05 7.64-.99 15.62 2.97 22.48 3.96 6.85 10.35 11.75 17.99 13.8 2.55.68 5.14 1.02 7.71 1.02 5.14 0 10.2-1.35 14.77-3.99 14.14-8.17 19-26.32 10.83-40.47-6.86-11.87-20.75-17.16-33.4-13.74 3.68-3.65 6.37-8.19 7.74-13.33 2.05-7.64.99-15.62-2.97-22.48-3.88-6.72-10.09-11.54-17.54-13.65 1.9-7.52.82-15.3-3.07-22.02-.25-.43-.53-.83-.8-1.24.41.27.81.55 1.24.8 6.72 3.88 14.51 4.95 22.02 3.05 2.12 7.46 6.94 13.66 13.66 17.54 4.65 2.68 9.73 3.96 14.75 3.96 7.79 0 15.42-3.08 21.04-8.72-3.4 12.64 1.9 26.51 13.76 33.36 4.65 2.68 9.73 3.96 14.75 3.96 10.25 0 20.23-5.32 25.71-14.81 8.16-14.15 3.29-32.3-10.85-40.46ZM469.33 538.35c-7.64-2.04-15.62-.99-22.47 2.97s-11.75 10.35-13.8 17.99c-2.05 7.64-.99 15.62 2.97 22.48 3.96 6.85 10.35 11.75 17.99 13.8 2.55.68 5.14 1.02 7.71 1.02 5.14 0 10.21-1.35 14.77-3.99 6.85-3.96 11.75-10.35 13.79-17.99 2.05-7.64.99-15.62-2.97-22.48-3.96-6.85-10.35-11.75-17.99-13.8ZM317.71 575.97h-.01c-16.33 0-29.62 13.3-29.61 29.63 0 16.33 13.29 29.61 29.62 29.61h.01c7.91 0 15.35-3.09 20.94-8.68 5.59-5.6 8.67-13.04 8.67-20.95 0-16.33-13.29-29.61-29.62-29.61ZM188.52 541.41c-14.15-8.16-32.3-3.29-40.46 10.86-3.95 6.85-5 14.84-2.95 22.48 2.05 7.64 6.96 14.03 13.81 17.98 4.65 2.68 9.73 3.96 14.75 3.96 10.25 0 20.23-5.32 25.71-14.82 3.95-6.85 5-14.84 2.95-22.48-2.05-7.64-6.96-14.03-13.81-17.98ZM53.45 436.07c-14.14 8.17-19 26.33-10.82 40.47 5.48 9.49 15.46 14.79 25.7 14.79 5.03 0 10.12-1.28 14.77-3.97 14.14-8.17 19-26.33 10.82-40.47-8.17-14.14-26.33-18.99-40.47-10.82ZM59.24 317.75c0-16.33-13.3-29.6-29.62-29.6h-.02c-16.33 0-29.6 13.3-29.6 29.63 0 7.91 3.09 15.35 8.69 20.94 5.59 5.59 13.03 8.66 20.93 8.66h.02c16.33 0 29.61-13.3 29.6-29.64ZM53.32 199.43c4.65 2.68 9.73 3.95 14.75 3.95 10.25 0 20.23-5.32 25.71-14.82 8.15-14.15 3.28-32.3-10.87-40.46-14.15-8.16-32.3-3.28-40.46 10.87-8.15 14.15-3.28 32.3 10.87 40.46ZM173.49 97.92c5.03 0 10.12-1.28 14.78-3.97 6.85-3.96 11.75-10.35 13.79-17.99 2.04-7.64.99-15.63-2.98-22.48-3.96-6.85-10.35-11.75-17.99-13.79-7.64-2.04-15.63-.99-22.47 2.98-6.85 3.96-11.75 10.35-13.79 17.99-2.04 7.64-.99 15.63 2.98 22.48 5.48 9.48 15.45 14.79 25.69 14.79Z"></path></svg>