<svg xmlns="http://www.w3.org/2000/svg" width="591.5" viewBox="0 0 591.5 560.1" height="560.1"><path d="M291.3 355.1l-.1-205.2H145.4v68.5h79.3s.1 72.5-.1 107.9c-19.8 20.1-73.1 74.7-78 80.3C111.2 371.1 44.2 304 44.2 304L0 347.7C33.3 381 106.3 453.8 106.3 453.8l-.1 106.3H191l-.1-107.8 100.4-97.2zM445.6 405c-24.7-24.7-78.5-78.8-78.5-78.8l-.1-107.8h79.4V150H300.9l.1 204.9 99.8 97.7.1 107.3h84.7l-.1-105.8 106-105.8-44.1-44.9c0-.1-67.9 67.7-101.8 101.6zM226.2 68.8c1.1-39.7 32.8-69.9 72-68.8 39.2 1.2 68.6 33.4 67.4 73.9-1.1 37.3-33.9 67-72.9 65.9-37.1-1.1-67.5-33.6-66.5-71z"></path><path d="M145.8 224.1c38.7-.1 69.8 30.8 69.8 69.5 0 39-31 70.3-69.9 70.3-38.4 0-69.6-31.4-69.6-70s30.9-69.6 69.7-69.8zM446.4 224.1c38.2 0 69.2 31 69.3 69.4.1 39-31.2 70.5-69.9 70.4-38.8-.1-69.9-31.6-69.7-70.6.3-38.5 31.4-69.2 70.3-69.2z"></path></svg>