<svg xmlns="http://www.w3.org/2000/svg" width="637.4" viewBox="0 0 637.4 642" height="642" style="overflow:visible;enable-background:new 0 0 637.4 642" xml:space="preserve"><path class="st0" d="M466.9 35C421.8 191.8 277.3 306.6 106 306.6H.4v-.4L0 0h321c52.5 0 102.1 12.6 145.9 35zM466.9 607C421.8 450.2 277.3 335.4 106 335.4H.4v.4L0 642h321c52.5 0 102.1-12.6 145.9-35z"></path><path d="M582 134.3C484.5 233.4 351.6 298 202.6 308.4c-1.6.1-3.3-1.5-3.3-3.3 0-1.7 1.2-3 2.8-3.2 124.8-20.6 234.8-85.1 313.6-177.2 9.7-11.3 18.9-23.1 27.7-35.2 14.2 13.7 27.2 28.7 38.6 44.8z"></path><path class="st0" d="M637.4 266.5c-106.3 33.3-219.3 51.3-336.6 51.3-16.4 0-55-1-56.5-1.4-1.9-.4-3.3-2.1-3.3-4.1 0-2.3 1.9-4.2 4.2-4.2 134.6-7.9 261.9-43.5 376-101.1 7.2 19 12.6 39 16.2 59.5z"></path><path d="M582 507.7c-11.4 16.1-24.5 31.1-38.7 44.8-8.7-12.1-18-23.9-27.7-35.2-78.8-92.1-188.8-156.6-313.6-177.2-1.5-.2-2.8-1.5-2.8-3.2 0-1.7 1.7-3.4 3.3-3.3 149.1 10.4 282 75 379.5 174.1z"></path><path class="st0" d="M637.4 375.5c-3.5 20.5-9 40.4-16.2 59.5-114.1-57.7-241.4-93.2-376-101.1-2.3 0-4.2-1.9-4.2-4.2 0-2.1 1.4-3.7 3.3-4.1 1.5-.4 40.1-1.4 56.5-1.4 117.3 0 230.3 18 336.6 51.3z"></path></svg>