<svg id="Layer_1" data-name="Layer 1" xmlns="http://www.w3.org/2000/svg" viewBox="0 0 613.18 613.83">   <path d="M337.61,370.12h-62.03l-31.91,122.21v121.5h125.85v-121.5h0l-31.91-122.21Zm23.2,234.73h-108.11v-112.51h108.11v112.51Z"></path>   <path d="M337.61,243.71l31.91-122.21V0h-125.85V121.5l31.91,122.21h62.03ZM252.37,8.98h108.11V121.5h-108.11V8.98Z"></path>   <path d="M491.68,243.99h0l-122.21,31.91v62.03l122.21,31.91h121.5v-125.85h-121.5Zm112.52,116.82h-112.52v-108.11h112.52v108.11Z"></path>   <path d="M369.47,370.12v64.34l39.16,103.07h128.81v-127.93l-107.33-39.48h-60.64Zm158.98,158.43h-115.03v-115.03h115.03v115.03Z"></path>   <path d="M369.47,243.71h60.64l107.33-39.48V76.3h-128.81l-39.16,103.07v64.34Zm43.95-158.43h115.03v115.03h-115.03V85.28Z"></path>   <path d="M243.71,337.93v-62.03l-122.21-31.91H0v125.85H121.5l122.21-31.91Zm-122.21,22.88H8.98v-108.11H121.5v108.11Z"></path>   <path d="M243.71,370.12h-60.64l-107.33,39.48v127.93H204.56l39.16-103.07v-64.34Zm-43.95,158.43H84.73v-115.03h115.03v115.03Z"></path>   <path d="M243.71,243.71v-64.34l-39.16-103.07H75.75v127.93l107.33,39.48h60.64ZM84.73,85.28h115.03v115.03H84.73V85.28Z"></path> </svg>