<svg data-name="Layer 1" xmlns="http://www.w3.org/2000/svg" viewBox="0 0 613.48 425.13"><path d="M210.88 0C94.26.92 0 95.71 0 212.54s95.18 212.59 212.59 212.59c27.05 0 52.88-5.15 76.67-14.37V246.78h-39.19v-120.3h-39.19V0Z"></path><path d="M306.74 21.94c-17.65-8.73-36.68-15.1-56.67-18.67v123.21h39.19v120.31h39.19V126.48h39.19V2.63c-21.54 3.4-42.02 9.96-60.9 19.31Zm2.12 104.17c-11.75 0-21.27-9.52-21.27-21.27s9.52-21.27 21.27-21.27 21.27 9.52 21.27 21.27-9.52 21.27-21.27 21.27Z"></path><path d="M406.84.11v126.37h-39.19v120.31h-39.19v165.64c22.61 8.21 46.99 12.71 72.44 12.71 117.41 0 212.59-95.18 212.59-212.59S521.49 3.26 406.84.11Z"></path></svg>