<svg data-name="Layer 1" xmlns="http://www.w3.org/2000/svg" viewBox="0 0 613.66 504.56"><path d="M499.49 229.53h.93c62.53-.51 113.25-51.53 113.25-114.17v-1.18C613.67 51.22 562.45.01 499.5.01H300.93c-2.09 0-4.17.06-6.23.18H23.16C10.39.18 0 10.56 0 23.33v457.9c0 12.77 10.39 23.16 23.16 23.16h271.52c2.06.11 4.14.18 6.23.18h198.57c62.96 0 114.17-51.22 114.17-114.17v-1.18c0-62.64-50.72-113.66-113.25-114.17h-.93c-12.55 0-22.75-10.21-22.75-22.76s10.21-22.76 22.75-22.76ZM397.28 91.42c12.55 0 22.75 10.21 22.75 22.76s-10.21 22.75-22.75 22.75-22.76-10.21-22.76-22.75 10.21-22.76 22.76-22.76Zm-102.21 0c12.55 0 22.75 10.21 22.75 22.76s-10.21 22.75-22.75 22.75-22.76-10.21-22.76-22.75 10.21-22.76 22.76-22.76Zm-102.21 0c12.55 0 22.75 10.21 22.75 22.76s-10.21 22.75-22.75 22.75-22.76-10.21-22.76-22.75 10.21-22.76 22.76-22.76Zm-102.21 0c12.55 0 22.76 10.21 22.76 22.76s-10.21 22.75-22.76 22.75-22.75-10.21-22.75-22.75 10.21-22.76 22.75-22.76Zm0 321.73c-12.55 0-22.75-10.21-22.75-22.76s10.21-22.75 22.75-22.75 22.76 10.21 22.76 22.75-10.21 22.76-22.76 22.76Zm0-138.11c-12.55 0-22.75-10.21-22.75-22.76s10.21-22.76 22.75-22.76 22.76 10.21 22.76 22.76-10.21 22.76-22.76 22.76Zm102.21 138.11c-12.55 0-22.76-10.21-22.76-22.76s10.21-22.75 22.76-22.75 22.75 10.21 22.75 22.75-10.21 22.76-22.75 22.76Zm0-138.11c-12.55 0-22.76-10.21-22.76-22.76s10.21-22.76 22.76-22.76 22.75 10.21 22.75 22.76-10.21 22.76-22.75 22.76Zm102.21 138.11c-12.55 0-22.76-10.21-22.76-22.76s10.21-22.75 22.76-22.75 22.75 10.21 22.75 22.75-10.21 22.76-22.75 22.76Zm0-138.11c-12.55 0-22.76-10.21-22.76-22.76s10.21-22.76 22.76-22.76 22.75 10.21 22.75 22.76-10.21 22.76-22.75 22.76Zm102.21 138.11c-12.55 0-22.76-10.21-22.76-22.76s10.21-22.75 22.76-22.75 22.75 10.21 22.75 22.75-10.21 22.76-22.75 22.76Zm102.21-45.51c12.55 0 22.76 10.21 22.76 22.75s-10.21 22.76-22.76 22.76-22.75-10.21-22.75-22.76 10.21-22.75 22.75-22.75Zm-102.21-92.6c-12.55 0-22.76-10.21-22.76-22.76s10.21-22.76 22.76-22.76 22.75 10.21 22.75 22.76-10.21 22.76-22.75 22.76ZM499.49 91.42c12.55 0 22.76 10.21 22.76 22.76s-10.21 22.75-22.76 22.75-22.75-10.21-22.75-22.75 10.21-22.76 22.75-22.76Z"></path></svg>