<svg data-name="Layer 1" xmlns="http://www.w3.org/2000/svg" viewBox="0 0 628.28 610.43"><path d="m625.22 400.45-28.3-11.31c-5.12-2.05-7.85-7.65-6.3-12.95l14.8-50.51-185.88 145.83c-24.26 19.04-37.12 49.15-34.09 79.84l4.76 48.43 79.46 10.6c4.16.55 7.19-3.85 5.18-7.54l-25.31-48.69c-3.05-5.87-1.34-13.09 4.03-16.97l172.74-128.32c3.05-2.27 2.44-7.01-1.09-8.42ZM208.74 471.51 22.86 325.68l14.8 50.51c1.55 5.29-1.18 10.9-6.3 12.95l-28.3 11.31c-3.53 1.41-4.15 6.15-1.09 8.42l172.74 128.32c5.37 3.87 7.08 11.09 4.03 16.97l-25.31 48.69c-2.01 3.69 1.01 8.09 5.18 7.54l79.46-10.6 4.76-48.43c3.03-30.69-9.82-60.81-34.09-79.84ZM544.42 293.96c-6.63.81-12.91-3.14-15.06-9.46l-14.81-43.57c-1.39-4.09-6.55-5.36-9.68-2.38l-73.8 71.98c-12.47 12.16-33.13.75-29.49-16.28l41.87-195.54-57.69 28.28c-4.45 2.18-9.83.31-11.96-4.17L314.14 0l-59.65 122.82c-2.13 4.48-7.51 6.35-11.96 4.17l-57.69-28.28 41.87 195.54c3.65 17.03-17.02 28.44-29.49 16.28l-73.8-71.98c-3.13-2.97-8.29-1.7-9.68 2.38L98.93 284.5c-2.15 6.32-8.44 10.27-15.06 9.46l-26.46-3.23 206.02 161.74s4.77 4.24 11.01 5.84c4.41 1.13 8.93-.65 9.7-5.56.91-5.81-4.9-9.58-8.99-12.39-10.69-7.35-19.39-15.49-25.54-27.11-5.59-10.57-8.69-22.53-8.69-34.5 0-40.44 32.78-73.23 73.23-73.23s73.23 32.79 73.23 73.23c0 11.97-3.1 23.93-8.69 34.5-6.14 11.62-14.85 19.75-25.54 27.11-4.1 2.82-9.9 6.58-8.99 12.39.77 4.91 5.28 6.69 9.69 5.56 6.24-1.6 11.01-5.84 11.01-5.84l206.02-161.74-26.46 3.23Z"></path></svg>