<svg xmlns="http://www.w3.org/2000/svg" width="642" viewBox="0 0 642 500.2" height="500.2" style="overflow:visible;enable-background:new 0 0 642 500.2" xml:space="preserve"><path d="M413.3 353.9c0 28.2 20.2 50.6 28.9 50.6H239.1c-8.6 0-28.9 22.4-28.9 50.5 0 18.2 8.5 34 16.8 42.9.3.3.4.6.4 1 0 .8-.6 1.4-1.4 1.4-.4 0-.8-.1-1-.4l-.1-.1c-22.4-22.3-101.9-101.9-102-101.9-8.6-8.7-17.8-25-17.8-44 0-22.7 13.2-41.7 22.8-48.2l-110.1-110C9.2 187 0 170.6 0 151.7c0-28.2 20.3-50.6 28.9-50.6h198.6c-4.2-4.2-6.6-6.5-6.6-6.5-8.6-8.7-17.8-25-17.8-44C203 22.4 223.3 0 231.9 0h207.9l101.1 101.1H337c-8.6 0-28.9 22.4-28.9 50.6 0 28.1 20.3 50.5 28.9 50.5H134c-8.7 0-28.9 22.4-28.9 50.5 0 28.2 20.2 50.6 28.9 50.6h198.5c-4.1-4.2-6.5-6.5-6.5-6.5-8.7-8.7-17.8-25-17.8-44 0-28.1 20.3-50.5 28.9-50.5h203.8l101.1 101H442.2c-8.7 0-28.9 22.5-28.9 50.6z"></path></svg>