<svg xmlns="http://www.w3.org/2000/svg" width="642" viewBox="0 0 642 415.7" height="415.7" style="overflow:visible;enable-background:new 0 0 642 415.7" xml:space="preserve"><path class="st0" d="M162.1 0h141.7v144.9H162.1c-9.5 0-17.1 7.7-17.1 17.1 0 9.5 7.6 17.2 17.1 17.2h141.8v144.9H162.1C72.5 324.2 0 251.6 0 162.1S72.5 0 162.1 0zM642 162.1c0 89.6-72.5 162.1-162.1 162.1v91.5H338.2V179.3h141.7c9.5 0 17.2-7.7 17.2-17.2 0-9.4-7.7-17.1-17.2-17.1H338.2V.1h141.7C569.5 0 642 72.6 642 162.1z"></path></svg>