<svg id="Layer_1" data-name="Layer 1" xmlns="http://www.w3.org/2000/svg" viewBox="0 0 480.83 621.15">   <path d="M240.42,621.15c-16.82,0-32.35-9.03-40.68-23.65L6.14,257.47c-12.79-22.46-4.95-51.04,17.52-63.84,22.47-12.79,51.04-4.95,63.84,17.52L240.42,479.74l113.09-198.62h-113.09c-25.85,0-46.81-20.95-46.81-46.81V46.81c0-25.85,20.96-46.81,46.81-46.81s46.81,20.95,46.81,46.81V187.51h146.8c16.67,0,32.09,8.87,40.47,23.28,8.37,14.41,8.46,32.2,.21,46.69l-193.6,340.03c-8.33,14.62-23.85,23.65-40.68,23.65Z"></path> </svg>