<svg xmlns="http://www.w3.org/2000/svg" width="621.6" viewBox="0 0 621.6 624.7" height="624.7" xml:space="preserve" style="enable-background:new 0 0 621.6 624.7"><path d="M621.6 258.4c0-46.3-30.1-85.5-71.8-99.1h71.7c0-1 .1-2.1.1-3.1 0-50.6-36-92.8-83.8-102.3h70.7C590.6 21.7 556.5 0 517.2 0s-73.5 21.7-91.3 53.7h70.7c-42.8 8.6-76.2 43.3-82.7 86.9-6.5-43.5-39.8-78.3-82.7-86.9h70.7C384.2 21.7 350 0 310.8 0s-73.5 21.7-91.3 53.7h70.7c-42.8 8.6-76.2 43.3-82.7 86.9-6.5-43.5-39.8-78.3-82.7-86.9h70.7C177.8 21.7 143.6 0 104.4 0 65.1 0 30.9 21.7 13.1 53.7h70.7C36 63.3 0 105.5 0 156.1c0 1 0 2.1.1 3.1h71.7C30.1 172.9 0 212.1 0 258.4c0 20.5 5.9 39.6 16.2 55.8h61C32.7 326.1 0 366.7 0 414.9c0 44.8 28.2 83 67.8 97.8v112h73.1v-112c35-13.1 61-44.3 66.7-82.3 5.7 37.9 31.7 69.2 66.7 82.3v112h73.1v-112c35-13.1 61-44.3 66.7-82.3 5.7 37.9 31.7 69.2 66.7 82.3v112h73.1v-112c39.6-14.8 67.8-53 67.8-97.8 0-48.2-32.7-88.8-77.2-100.8h61c10.1-16.1 16.1-35.2 16.1-55.7zm-415.1-99.2h71.7c-36.9 12.1-64.8 44.3-70.6 83.7-5.9-39.4-33.7-71.5-70.6-83.7h69.5zm1.1 240.3c-6.1-41.3-36.4-74.6-76-85.3h61c7.6-12 12.8-25.6 15-40.2 2.2 14.6 7.4 28.3 15 40.2h61c-39.6 10.6-69.9 44-76 85.3zm205.3-240.3h71.7c-36.9 12.1-64.8 44.3-70.6 83.7-5.9-39.4-33.7-71.5-70.6-83.7h69.5zm1.1 240.3c-6.1-41.3-36.4-74.6-76-85.3h61c7.6-12 12.8-25.6 15-40.2 2.2 14.6 7.4 28.3 15 40.2h61c-39.6 10.6-69.9 44-76 85.3z"></path></svg>