<svg data-name="Layer 1" xmlns="http://www.w3.org/2000/svg" viewBox="0 0 615.95 615.94"><path d="M0 0v615.94h615.95V0H0Zm69.62 3.22h16.44v73.03H69.62V3.22Zm32.88 0h16.44v147.67H102.5V3.22Zm32.88 0h16.44v73.03h-16.44V3.22Zm32.88 0h16.44v222.31h-16.44V3.22Zm32.88 0h16.44v73.03h-16.44V3.22Zm131.5 0h16.44v73.03h-16.44V3.22Zm-32.88 0h16.44v296.95h-16.44V3.22Zm-32.88 0h16.44v73.03h-16.44V3.22Zm-32.88 0h16.44v147.67H234V3.22Zm147.94 147.67H365.5V3.22h16.44v147.67ZM398.38 3.22h16.44v73.03h-16.44V3.22Zm32.88 0h16.44v222.31h-16.44V3.22Zm32.88 0h16.44v73.03h-16.44V3.22Zm32.88 0h16.44v147.67h-16.44V3.22Zm32.88 0h16.44v73.03H529.9V3.22Zm-526.67 0h49.95v356.3h65.75v88.91h98.63v164.28H3.23V3.22Zm609.49 609.49H398.39V448.43h98.63v-88.91h65.75V3.22h49.95v609.49Z"></path></svg>