<svg id="a" data-name="Layer_1" xmlns="http://www.w3.org/2000/svg" width="642" viewBox="0 0 642 631.41" height="631.41">
  <g>
    <path d="M134.03,156.97c.77-38.34,32.09-69.18,70.61-69.18s70.62,31.62,70.62,70.62-31.62,70.62-70.62,70.62h-86.35c20.46,24.98,51.54,40.93,86.35,40.93,61.61,0,111.55-49.94,111.55-111.55s-49.94-111.55-111.55-111.55-110.77,49.16-111.54,110.11"></path>
    <path d="M314,.03l-21.64,66.51c-10.27-9.82-22.15-17.98-35.25-23.88L270.99.03h43.01Z"></path>
    <path d="M257.21,174.78c1.61-5.17,2.47-10.67,2.47-16.37,0-19.39-10.03-36.44-25.18-46.25,0,0-19.64,60.37-19.64,60.37H30.88l-13.29,40.96h187.08c24.07.02,45.4-15.69,52.54-38.71Z"></path>
  </g>
  <g>
    <path d="M106.01,448.21c-36.22-12.58-55.88-51.89-43.97-88.53,12.05-37.09,51.89-57.39,88.99-45.34,37.09,12.05,57.39,51.89,45.34,88.99l-26.28,81.97c29.9-11.8,54.5-36.36,65.2-69.32,19.04-58.59-13.03-121.52-71.62-140.56-58.59-19.04-121.52,13.03-140.56,71.62-18.89,58.13,12.53,120.54,70.25,140.1"></path>
    <path d="M70.3,268.77c-12.65,6.61-24.14,15.28-33.9,25.74L0,267.55l13.42-41.22,56.88,42.44Z"></path>
    <path d="M181.56,398.52l-55.6,171.22-34.86-25.29,54.7-168.33-50.72-37.81c14-10.98,33-15.02,51.1-9.18,28.95,9.44,44.75,40.51,35.37,69.4Z"></path>
  </g>
  <g>
    <path d="M378.73,560.52c-22.64,32.19-67.42,39.63-99.24,16.46-31.55-22.93-38.55-67.09-15.62-98.64,22.93-31.55,67.09-38.55,98.64-15.62l69.57,46.88c-2.86-30.84-18.48-60.35-45.51-79.99-49.84-36.21-119.6-25.16-155.81,24.68-36.21,49.84-25.16,119.6,24.68,155.81,49.84,36.21,119.6,25.16,155.81-24.68.49-.67.96-1.34,1.43-2.01l-33.94-22.88Z"></path>
    <path d="M208.46,578.73l-36.4,24.52-35.25-25.62,58.55-39.48c1.99,14.06,6.36,27.8,13.1,40.57Z"></path>
    <path d="M269,537.87c-5.67-16.43-3.51-35.29,7.46-50.38,10.33-14.21,27-22.7,44.6-22.7,11.02,0,21.6,3.25,30.72,9.41l153.41,103.43-35.24,25.6-148.95-100.42s-52,35.06-52,35.06Z"></path>
  </g>
  <g>
    <path d="M368.81,175.43c7.62,30.78,35.42,53.6,68.56,53.6,39,0,70.62-31.62,70.62-70.62s-31.62-70.62-70.62-70.62c-7.11,0-13.98,1.05-20.45,3.01l-12.72-38.92c10.48-3.26,21.62-5.01,33.17-5.01,61.61,0,111.55,49.94,111.55,111.55,0,61.61-49.94,111.55-111.55,111.55-61.61,0-111.55-49.94-111.55-111.55,0-22.22,6.5-42.92,17.7-60.31l25.3,77.33Z"></path>
    <path d="M437.36,213.46c-24.47,0-45.19-15.96-52.36-38.04L328.01,0h43.03s56.06,172.54,56.06,172.54h63.48c-6.24,23.56-27.7,40.93-53.22,40.93Z"></path>
    <path d="M624.41,213.5h-72.48c6.03-12.65,10.14-26.45,11.75-40.96h47.44l13.29,40.96Z"></path>
  </g>
  <g>
    <path d="M471.98,323.85c-24.58,17.39-36.14,49.34-26.35,79.48,12.05,37.09,51.89,57.39,88.99,45.34,37.09-12.05,57.39-51.89,45.34-88.99-2.26-6.96-5.5-13.32-9.51-18.99l32.57-24.84c6.73,9.25,12.14,19.71,15.87,31.18,19.04,58.59-13.03,121.52-71.62,140.56-58.59,19.04-121.52-13.03-140.56-71.62-19.04-58.59,13.03-121.52,71.62-140.56,20.64-6.71,41.82-7.07,61.42-2.17l-67.77,50.6Z"></path>
    <path d="M496.19,376.11l145.81-108.56-13.39-41.22-148.75,111.06c-18.38,13.72-26.9,38.1-19.42,61.12,7.89,24.27,31.04,39.32,55.37,37.97l-19.62-60.38Z"></path>
    <path d="M550.9,544.45l-34.86,25.29-20.22-62.21c5.59.71,11.23,1.09,16.95,1.09,8.6,0,17.21-.83,25.62-2.63l12.52,38.46Z"></path>
  </g>
</svg>