<svg data-name="Layer 1" xmlns="http://www.w3.org/2000/svg" viewBox="0 0 577.29 474.27"><path d="M576.26 211.85H146.64c-2.25 8.06-3.54 16.51-3.54 25.28 0 51.93 42.1 94.03 94.03 94.03 42.42 0 78.25-28.1 89.96-66.68h249c.72-9.03 1.19-18.13 1.19-27.35 0-8.51-.42-16.93-1.03-25.28Z"></path><circle cx="186.52" cy="166.57" r="33.76" transform="rotate(-13.28 186.56160373 166.59622537)"></circle><circle cx="287.74" cy="166.57" r="33.76" transform="rotate(-13.28 287.82083756 166.58648015)"></circle><path d="M237.13 381.45c-79.7 0-144.32-64.61-144.32-144.32S157.43 92.81 237.13 92.81c62.33 0 115.43 39.52 135.62 94.87h96.31C446.32 80.46 351.14 0 237.13 0 106.17 0 0 106.17 0 237.13s106.17 237.13 237.13 237.13c117.72 0 215.36-85.8 233.91-198.27h-94.93c-16.98 60.82-72.75 105.45-138.98 105.45Z"></path></svg>