<svg data-name="Layer 1" xmlns="http://www.w3.org/2000/svg" viewBox="0 0 491.49 606.41"><path d="M153.46 303.11c-59.4-59.4-59.4-155.71 0-215.11 59.4-59.4 155.71-59.4 215.11 0l30.73 30.73L430.03 88 399.3 57.27c-76.37-76.37-200.19-76.37-276.56 0s-76.37 200.19 0 276.56l30.73 30.73 30.73-30.73-30.73-30.73Z"></path><path d="M214.92 241.66c-25.46-25.46-25.46-66.73 0-92.19 25.46-25.46 66.73-25.46 92.19 0l30.73 30.73 30.73-30.73-30.73-30.73c-42.43-42.43-111.22-42.43-153.65 0-42.43 42.43-42.43 111.22 0 153.65l30.73 30.73 30.73-30.73-30.73-30.73Z"></path><path d="m307.108 210.931 30.731-30.73 30.73 30.73-30.73 30.73zM245.648 272.389l30.731-30.731 30.73 30.73-30.73 30.732zM184.191 333.84l30.73-30.732 30.732 30.731-30.731 30.731zM368.568 149.464l30.731-30.731 30.73 30.73-30.73 30.731z"></path><path d="m430.027 149.465 30.73-30.731 30.732 30.73-30.731 30.732zM368.567 210.922l30.73-30.73 30.732 30.73-30.731 30.731zM245.65 180.2c-8.49 8.49-8.49 22.24 0 30.73l30.73 30.73 30.73-30.73-30.73-30.73c-8.49-8.49-22.24-8.49-30.73 0ZM368.75 272.57l-30.73-30.73-30.73 30.73 30.73 30.73c59.4 59.4 59.4 155.71 0 215.11-59.4 59.4-155.71 59.4-215.11 0l-30.73-30.73-30.73 30.73 30.73 30.73c76.37 76.37 200.19 76.37 276.56 0s76.37-200.19 0-276.56Z"></path><path d="M153.65 487.68c42.43 42.43 111.22 42.43 153.65 0s42.43-111.22 0-153.65l-30.73-30.73-30.73 30.73 30.73 30.73c25.46 25.46 25.46 66.73 0 92.19-25.46 25.46-66.73 25.46-92.19 0l-30.73-30.73-30.73 30.73 30.73 30.73ZM122.92 395.487l30.73-30.731 30.731 30.73-30.73 30.732zM61.46 456.944l30.73-30.73 30.731 30.73-30.73 30.731zM.001 456.953l30.73-30.73 30.732 30.73-30.731 30.73z"></path><path d="m61.461 395.485 30.73-30.73 30.732 30.73-30.731 30.731zM245.84 426.22c8.49-8.49 8.49-22.24 0-30.73l-30.73-30.73-30.73 30.73 30.73 30.73c8.49 8.49 22.24 8.49 30.73 0Z"></path></svg>