<svg xmlns="http://www.w3.org/2000/svg" id="a" width="642" viewBox="0 0 642 642" height="642" data-name="Layer 1"><defs></defs><path d="M642 321c0 177.28-143.72 321-321 321S0 498.28 0 321 143.72 0 321 0s321 143.72 321 321ZM321 48.15C170.31 48.15 48.15 170.31 48.15 321S170.31 593.85 321 593.85 593.85 471.69 593.85 321 471.69 48.15 321 48.15Z" class="b"></path><path d="M506.99 226.24c-3.86-22.3-9.13-44.12-15.68-65.39a32.457 32.457 0 0 0-22.23-21.72c-20.57-5.78-41.62-10.42-63.14-13.74-27.67-4.37-56.05-6.61-84.94-6.61s-56.69 2.18-84.1 6.48a534.856 534.856 0 0 0-62.69 13.49c-11.33 3.16-20.12 12.22-22.77 23.68-6.78 29.29-10.33 59.81-10.33 91.17s3.71 62.75 10.72 92.45c3.38 14.32 16.43 24.27 31.14 24.27h31.26l214.3-.06c-1.6 19.74-4.03 39.27-7.23 58.5-1.17 7.04-6.95 12.49-14.05 13.26a719.094 719.094 0 0 1-77.4 4.19c-32.24 0-64.01-2.18-95.11-6.36-6.95-.93-12.53-6.35-13.63-13.28-1.52-9.61-2.81-19.28-4-29.02h-84.94c1.03 7.25 2.18 14.51 3.47 21.64 3.77 21.12 8.84 41.84 15.06 62.05 3.25 10.57 11.67 18.72 22.32 21.71a538.67 538.67 0 0 0 69.19 14.6c25.68 3.79 52 5.71 78.77 5.71s53.61-1.99 79.61-5.78c23.34-3.43 46.15-8.29 68.4-14.54 10.7-3.01 19.08-11.23 22.34-21.85 5.7-18.53 10.39-37.49 14.03-56.83 6.48-33.45 9.82-67.92 9.82-103.23 0-32.29-2.82-63.94-8.22-94.76Zm-268.27 67.02c-8.27 0-15.23-6.27-16.02-14.51-.8-8.26-1.2-16.65-1.2-25.17 0-9.89.56-19.66 1.61-29.29.8-7.38 6.43-13.38 13.79-14.36 30.42-4.06 61.47-6.11 92.98-6.11 27.53 0 54.67 1.59 81.35 4.64 7.26.83 13.07 6.56 14 13.81a694.62 694.62 0 0 1 5.44 70.98H238.73Z" class="b"></path></svg>