<svg xmlns="http://www.w3.org/2000/svg" width="506.8" viewBox="0 0 506.8 615.9" height="615.9" style="enable-background:new 0 0 506.8 615.9" xml:space="preserve"><path d="m272.3 402.2-20.9-20.9v41.9l20.9-21zm0-96.3L251.4 285v41.9l20.9-21zM465 16.8l16.8 16.8V0L465 16.8zm0 96.3 16.8 16.8V96.4L465 113.1zm0 96.4 16.8 16.8v-33.5L465 209.5zm-48.2-48.2 23.1 23.1v-46.1l-23.1 23zm-48.1-48.2 33.5 33.5v-67l-33.5 33.5zm0 96.4 33.5 33.5v-67l-33.5 33.5zm0 96.4 33.5 33.5v-67l-33.5 33.5zm-48.2-144.6 44 44v-88l-44 44-41.9-41.9c-13.8-13.8-36.5-13.8-50.3 0L10.4 337.3c-13.8 13.8-13.8 36.5 0 50.3l217.9 217.9c13.8 13.8 36.5 13.8 50.3 0l217.9-217.9c13.8-13.8 13.8-36.5 0-50.3L465 305.8 320.5 450.4 286.9 484v-67.1l4.2 4.2 29.3 29.3V161.3zm0 96.4 44 44v-88l-44 44-33.5 33.5v-67l4.2 4.2 29.3 29.3zm0 96.4 44 44v-88l-44 44-33.5 33.5v-67.1l4.2 4.2 29.3 29.4zm96.3-289.2L439.9 88V41.9l-23.1 23zm0 192.8 23.1 23.1v-46.1l-23.1 23zM272.3 498.6l-20.9-20.9v41.9l20.9-21z" style="fill-rule:evenodd;clip-rule:evenodd"></path></svg>