<svg data-name="Layer 1" xmlns="http://www.w3.org/2000/svg" viewBox="0 0 619.11 619.11"><path d="M619.11 265.33v-59.2C619.11 92.47 526.64 0 412.98 0H206.13C92.47 0 0 92.47 0 206.12v59.2h619.11ZM206.13 61.79h206.86c78.72 0 142.88 63.35 144.27 141.74H61.86c1.39-78.39 65.55-141.74 144.27-141.74ZM296.36 291.72H0v121.26c0 113.66 92.47 206.13 206.13 206.13h90.23V291.72Zm-90.23 265.6c-79.58 0-144.33-64.75-144.33-144.33v-59.47h172.77v203.8h-28.44ZM322.75 291.72v327.39h90.23c113.66 0 206.13-92.47 206.13-206.13V291.72H322.75Zm234.57 121.26c0 79.58-64.75 144.33-144.33 144.33h-28.44v-203.8h172.77v59.47Z"></path></svg>