<svg data-name="Layer 1" xmlns="http://www.w3.org/2000/svg" viewBox="0 0 615.87 623.73"><path d="m522.51 90.88-152.4 160.21a153 153 0 0 0-42.03 106.8l2.57 265.84c41.63-10.26 72.74-48.01 72.74-92.69V410.12c100.43 0 181.85-81.42 181.85-181.85 0-54.87-24.3-104.06-62.72-137.4Z"></path><path d="M609.88 252.08c-10.87 94.89-85.89 170.57-180.49 182.43v96.54c0 30.48-11.29 58.72-30.34 80.3 125.81-40.67 216.81-158.75 216.81-298.1a314.4 314.4 0 0 0-5.99-61.17ZM93.36 90.88l152.4 160.21a153 153 0 0 1 42.03 106.8l-2.57 265.84c-41.63-10.26-72.74-48.01-72.74-92.69V410.12c-100.43 0-181.85-81.42-181.85-181.85 0-54.87 24.3-104.06 62.72-137.4Z"></path><path d="M5.99 252.08c10.87 94.89 85.89 170.57 180.49 182.43v96.54c0 30.48 11.29 58.72 30.34 80.3C91 570.68 0 452.6 0 313.25a314.4 314.4 0 0 1 5.99-61.17Z"></path><circle cx="307.94" cy="121.07" r="121.07"></circle></svg>