<svg xmlns="http://www.w3.org/2000/svg" width="642" viewBox="0 0 642 583.4" height="583.4" style="overflow:visible;enable-background:new 0 0 642 583.4" xml:space="preserve"><path d="M374.7 199.6c31.9-18.5 53.3-53 53.3-92.6C428 47.9 380.1 0 321 0S214 47.9 214 107c0 39.5 21.5 74 53.4 92.6-32.4 18.8-54 54-53.4 94.3l107 289.6 107-289.6c.7-40.3-21-75.5-53.3-94.3zM242.9 107c0-43.1 35-78.1 78.1-78.1 43.1 0 78.1 35 78.1 78.1 0 43.1-35 78.1-78.1 78.1-43.1 0-78.1-35-78.1-78.1zM321 214c43.6 0 79 35.9 78 79.8H243c-1-43.9 34.4-79.8 78-79.8zm0 286.1-65.5-177.3h131.1L321 500.1z"></path><path d="M180.1 137.6h29.4C230 69.6 179 0 107.1 0 34.9 0-15.9 69.8 4.5 137.6h29.3C13 157.2 0 184.9 0 215.7c0 30.8 13 58.6 33.9 78.1H0l107 289.6 107-289.6h-34c20.9-19.5 34-47.3 34-78.1 0-30.8-13-58.5-33.9-78.1zM29 108.8c-3.9-35.5 29.3-79.9 78.1-79.9 49.2 0 81.9 45.1 78 79.9H29zm78 391.3L41.5 322.7h131.1L107 500.1zm0-206.3c-43.1 0-78.1-35-78.1-78.1 0-43.1 35-78.1 78.1-78.1 43.1 0 78.1 35 78.1 78.1 0 43.1-35 78.1-78.1 78.1zM642 200.2c0-30.9-13.1-58.6-34-78.1h33c.7-4.9 1.1-10 1.1-15.1C642 47.9 594.1 0 535 0c-59.1 0-107 47.9-107 107 0 5.1.4 10.1 1.1 15.1h33c-20.9 19.5-34 47.3-34 78.1 0 4.7.3 9.3.9 13.8h33c-21.3 19.9-34.5 48.3-34 79.9l107 289.6 107-289.6c.5-31.5-12.7-59.9-34-79.9h33.1c.6-4.5.9-9.1.9-13.8zm-183.8-107c6.5-36.5 38.4-64.3 76.8-64.3s70.4 27.8 76.9 64.3H458.2zM535 500.1l-65.5-177.3h131.1L535 500.1zm78-206.3H456.9c-.9-43.8 34.4-79.8 78-79.8s79.1 35.9 78.1 79.8zM458.4 185.1c7-35.9 38.7-63 76.6-63 37.9 0 69.6 27.2 76.7 63H458.4z"></path></svg>