<svg data-name="Layer 1" xmlns="http://www.w3.org/2000/svg" viewBox="0 0 620.66 620.66"><path d="M248.78 293.45v118.33c23.68-9.25 40.53-32.24 40.53-59.17s-16.84-49.91-40.53-59.16ZM83.63 352.61c0 26.94 16.83 49.97 40.53 59.22V293.39c-23.69 9.25-40.53 32.29-40.53 59.22ZM331.34 352.61c0 26.94 16.83 49.97 40.53 59.22V293.39c-23.69 9.25-40.53 32.29-40.53 59.22ZM371.87 454.21c-25.17-5.71-46.86-20.53-61.52-40.76-14.66 20.3-36.37 35.18-61.57 40.9v160.18c19.89 4 40.47 6.13 61.54 6.13s41.65-2.12 61.54-6.13V454.21Z"></path><path d="M310.33 0C138.94 0 0 138.94 0 310.33 0 411.87 48.77 502 124.16 558.62V454.21c-46.46-10.54-81.31-51.99-81.31-101.6 0-55.41 43.44-100.7 98.03-104.02 11.18-11.88 26.98-19.36 44.48-19.36h2.23c17.47 0 33.26 7.46 44.43 19.31 32.24 1.95 60.5 18.61 78.32 43.28 17.81-24.63 46.05-41.27 78.25-43.23 11.18-11.88 26.98-19.36 44.48-19.36h2.23c17.47 0 33.26 7.46 44.43 19.31 54.61 3.3 98.07 48.65 98.07 104.08 0 49.62-34.83 91.19-81.31 101.74v104.27c75.38-56.62 124.16-146.75 124.16-248.29C620.66 138.94 481.72 0 310.33 0ZM186.47 211.7c-36.87 0-66.77-29.89-66.77-66.77s29.89-66.76 66.77-66.76 66.76 29.89 66.76 66.76-29.89 66.77-66.76 66.77Zm247.72 0c-36.87 0-66.76-29.89-66.76-66.77s29.89-66.76 66.76-66.76 66.76 29.89 66.76 66.76-29.89 66.77-66.76 66.77Z"></path><path d="M496.5 293.45v118.33c23.68-9.25 40.53-32.24 40.53-59.17s-16.84-49.91-40.53-59.16Z"></path></svg>