<svg data-name="Layer 1" xmlns="http://www.w3.org/2000/svg" viewBox="0 0 594.56 591.08"><path d="M297.28 0C133.1 0 0 133.1 0 297.28c0 26.8 3.57 52.77 10.22 77.47L229.68 55.01c76.83 94.02 81.86 207.56-1.04 328.95l-25.93 38.42c-19.09-12.19-33.41-28.77-53.93-55.78-13.07-17.19-34.02-27.26-55.52-21.76-15.08 3.86-28.12 14.57-34.14 28.72-1.82 4.29-5.84 7.25-10.46 7.9l-32.74 4.81c-.8.11-1.5.37-2.12.72-3.59 2.03-4.2 7.47-.36 10.05 0 0 1.45.11 3.94.55 6.51 1.16 20.13 4.6 33.39 14.31.05.04.11.08.16.12 8.51 6.26 14.55 15.35 17.32 25.54 11.79 43.41 43.18 77.48 60.81 93.9l10.61 9.29 14.55-21.58L463.68 60.1c74.95 79.42 57.81 261.5-1.08 350.35L342.86 591.09c142.55-21.93 251.7-145.12 251.7-293.8C594.56 133.1 461.46 0 297.28 0ZM102.91 392.07c-4.63 0-8.39-3.76-8.39-8.39s3.76-8.39 8.39-8.39 8.39 3.76 8.39 8.39-3.76 8.39-8.39 8.39Z"></path></svg>