<svg xmlns="http://www.w3.org/2000/svg" width="353.1" viewBox="0 0 353.1 642" height="642" style="overflow:visible;enable-background:new 0 0 353.1 642" xml:space="preserve"><path d="M353.1 90.7h-78.6V39.3c0-21.7 17.6-39.3 39.3-39.3s39.3 17.6 39.3 39.3v51.4zm-69-17.7h59.4V39.3c0-16.4-13.3-29.7-29.7-29.7s-29.7 13.3-29.7 29.7V73zM274.5 96.3h78.6v26.5h-78.6z"></path><path d="M274.5 128.4v286.5c0 32.4-26.3 58.6-58.6 58.6-32.4 0-58.6-26.3-58.6-58.6 0-16.1 6.5-30.8 17.1-41.4l59.8-68.6c24.8-24.8 40.2-59.1 40.2-97 0-75.8-61.4-137.3-137.2-137.3C61.4 70.6 0 132.1 0 207.9V534l39.3 108 39.4-108V207.9c0-32.4 26.3-58.6 58.6-58.6s58.6 26.3 58.6 58.6c0 16.1-6.5 30.8-17.1 41.4L119 317.9c-24.8 24.8-40.2 59.1-40.2 97 0 75.8 61.4 137.3 137.3 137.3 75.8 0 137.2-61.4 137.2-137.3V128.4h-78.8zm-228 465.4H32L10.3 534h58.1l-21.9 59.8z"></path></svg>