<svg xmlns="http://www.w3.org/2000/svg" width="606.6" viewBox="0 0 606.6 245.5" height="245.5" xml:space="preserve"><path d="M303.3 0C174.1 0 55.1 75.5 0 192.4l2.4 1.1C56.7 78.4 173.5 3.7 300.7 2.7v23.7c-59.9.6-108.3 49.5-108.3 109.5 0 60.4 49.2 109.6 109.6 109.6s109.6-49.2 109.6-109.6c0-60-48.5-108.8-108.3-109.6V2.6c128.1 0 246.3 74.9 300.9 190.9l2.4-1.1C551.5 75.5 432.5 0 303.3 0zm75.2 61.2c18.5 19 30.1 44.8 30.4 73.3H305.1l73.4-73.3zm-79.7 73.4H195c.3-28.5 11.9-54.3 30.4-73.3l73.4 73.3zm0 2.6-73.3 73.3c-18.5-19-30.1-44.8-30.4-73.3h103.7zm1.9 1.9v103.8c-28.5-.3-54.3-11.9-73.3-30.4l73.3-73.4zm2.6 0 73.3 73.3c-19 18.5-44.8 30.1-73.3 30.4V139.1zm1.8-1.9h103.8c-.3 28.5-11.9 54.3-30.4 73.3l-73.4-73.3zm-4.4-4.5-73.3-73.3c19-18.5 44.8-30.1 73.3-30.4v103.7zm75.9-73.3-73.3 73.3V29c28.5.3 54.3 11.8 73.3 30.4z"></path></svg>