<svg id="Layer_1" data-name="Layer 1" xmlns="http://www.w3.org/2000/svg" viewBox="0 0 616.6 532.52">   <path d="M605.23,395.67h-86.87l-11.37-15.2h86.87l-11.37-15.2h-86.87l-11.37-15.21h86.87l-11.37-15.2h-86.87l-11.37-15.2h86.87l-11.37-15.2h-86.87l-11.37-15.2h86.87l-11.37-15.2h-86.87l-5.81-7.77,5.81-7.77h86.87l11.37-15.2h-86.87l11.37-15.2h86.87l11.37-15.2h-86.87l11.37-15.2h86.87l11.37-15.2h-86.87l11.37-15.21h86.87l11.37-15.2h-86.87l11.37-15.2h86.87l11.37-15.2h-86.87s-181.98,0-181.98,0l11.37-15.2h86.87l11.37-15.2h-86.87l11.37-15.2h86.87l11.37-15.2h-86.87l11.37-15.21h86.87l11.37-15.2h-86.87l11.37-15.2h86.87L525.61,0h-86.87s-260.87,0-260.87,0h0S91,0,91,0l11.37,15.2h86.87l11.37,15.2H113.74l11.37,15.2h86.87l11.37,15.21h-86.87l11.37,15.2h86.87l11.37,15.2h-86.87l11.37,15.2h86.87l11.37,15.2H86.87s-86.87,0-86.87,0l11.37,15.2H98.24l11.37,15.2H22.75l11.37,15.2H120.99l11.37,15.21H45.49l11.37,15.2h86.87l11.37,15.2H68.24l11.37,15.2h86.87l11.37,15.2H90.98l11.37,15.2h86.87l5.81,7.77-5.81,7.77H102.36l-11.37,15.2h86.87l-11.37,15.2H79.61l-11.37,15.2h86.87l-11.37,15.2H56.87l-11.37,15.2h86.87l-11.37,15.21H34.12l-11.37,15.2H109.61l-11.37,15.2H11.37l-11.37,15.2H86.87s181.98,0,181.98,0l-11.37,15.2h-86.87l-11.37,15.2h86.87l-11.37,15.2h-86.87l-11.37,15.2h86.87l-11.37,15.21H125.12l-11.37,15.2h86.87l-11.37,15.2H102.37l-11.37,15.2h86.87s260.87,0,260.87,0h0s86.87,0,86.87,0l-11.37-15.2h-86.87l-11.37-15.2h86.87l-11.37-15.2h-86.87l-11.37-15.21h86.87l-11.37-15.2h-86.87l-11.37-15.2h86.87l-11.37-15.2h-86.87l-11.37-15.2h181.98s86.87,0,86.87,0l-11.37-15.2Zm-296.92-37.53h0s0,0,0,0l-68.73-91.88,68.73-91.88h0s0,0,0,0l68.73,91.88-68.73,91.88Z"></path> </svg>