<svg xmlns="http://www.w3.org/2000/svg" width="510.7" viewBox="0 0 510.7 590.3" height="590.3"><path d="M251.8 440.8c-79.7-1.9-142.3-66.2-142.1-146 0-21.1 4.6-41.2 12.8-59.3.2-.4-.4-.7-.6-.3L0 443.2c51.1 87.9 146.3 147.1 255.4 147.1 108.1 0 202.7-58.2 254.1-144.9l-129-75.5c-26.1 43.4-74.1 72.2-128.7 70.9zM258.9 149.5c79.7 1.9 142.3 66.2 142.1 146 0 21.1-4.6 41.2-12.8 59.3-.2.4.4.7.6.3L510.6 147C459.6 59.1 364.4 0 255.4 0 147.2 0 52.7 58.2 1.3 144.9l129 75.5c26-43.4 74-72.2 128.6-70.9z"></path></svg>