<svg xmlns="http://www.w3.org/2000/svg" width="598.4" viewBox="0 0 598.4 496" height="496"><path d="M354.4 411.7l135.3-135.3h108.8v-56.9H489.6l-202.1-202c-23.3-23.3-61-23.3-84.3 0L77.8 142.9H0v56.9h101.4l144-144L437.7 248 314.2 371.5"></path><path d="M520.5 141.9L396.1 17.5c-22.6-22.6-58.9-23.3-82.3-1.9L354 55.8l143.7 143.1h100.8V142h-78z"></path><g><path d="M311.6 478.6c23.3 23.3 61 23.3 84.3 0l125.4-125.4h77.1v-56.9H497.8l-144 144L161.5 248l123.3-123.5-40.2-40.2-135.1 135.3H0v56.9h109.5l202.1 202.1z"></path><path d="M77.8 354.1l125.1 124.5c22.6 22.6 58.9 23.3 82.3 1.9L245 440.3l-143.6-143H0v56.9h77.8z"></path></g></svg>