<svg xmlns="http://www.w3.org/2000/svg" width="611.9" viewBox="0 0 611.9 574.8" height="574.8" xml:space="preserve"><path d="M100.3 252.3 0 152h189.1l100.4 100.3zM189.1 366.5l100.4-100.4H100.3L0 366.5zM301 574.8H200.7V374.1L301 273.7zM415.2 374.1 314.9 273.7v301.1h100.3z"></path><g><path d="m511.6 262.1 100.3 100.4H422.8L322.5 262.1zM422.8 148 322.5 248.3h189.1L611.9 148z"></path></g><path d="M306.4 0c-53.9 0-97.7 43.8-97.7 97.7s43.8 97.7 97.7 97.7 97.7-43.8 97.7-97.7S360.3 0 306.4 0zm84.1 91h-23.8c-1.8-29.4-15.8-56.3-38-74.6 33.7 9.2 58.9 38.8 61.8 74.6zm-90.7-69.5V91h-40.2c2-28.3 17-53.8 40.2-69.5zm0 82.9v69.5c-23.2-15.7-38.1-41.2-40.2-69.5h40.2zm13.3 69.3v-69.4h40.2c-2.1 28.3-17 53.8-40.2 69.4zm0-82.7V21.4c23.2 15.7 38.2 41.3 40.2 69.6h-40.2zm-28.8-74.7C262.1 34.6 248 61.5 246.2 91h-23.8c2.8-35.9 28.2-65.5 61.9-74.7zm-61.9 88.1h23.8c1.9 29.5 15.9 56.4 38.2 74.7-33.8-9.2-59.2-38.9-62-74.7zm106 74.7c22.3-18.3 36.5-45.2 38.3-74.7h23.8c-2.9 35.9-28.3 65.6-62.1 74.7z"></path></svg>