<svg data-name="Layer 1" xmlns="http://www.w3.org/2000/svg" viewBox="0 0 582.65 574.73"><path d="M566.5 252.33 330.32 16.15c-21.54-21.54-56.45-21.54-77.99 0L114.96 153.53h85.59c22.82 0 44.33 10.63 58.19 28.76l32.59 42.62 32.59-42.62c13.86-18.13 35.37-28.76 58.19-28.76h56.59c1.17 0 1.49 1.56.43 2.05-23.65 10.98-44.58 27.61-60.66 48.87l-67.73 89.52c-9.88 13.06-29.52 13.06-39.4 0l-55.48-73.33c-25.74-34.02-63.91-56.15-105.78-62.22l-93.93 93.91c-21.54 21.54-21.54 56.45 0 77.99L252.33 566.5c3.26 3.26 6.85 5.96 10.62 8.23V445.1l-77.14-101.95c-29.04-36.46-60.11-52.49-76.99-59.01-2.16-.83-1.58-4.02.74-4.02h68.23c19.62 0 38.12 9.14 50.03 24.73l63.79 83.42 63.79-83.42c11.92-15.58 30.42-24.73 50.03-24.73h68.23c2.31 0 2.9 3.19.74 4.02-16.88 6.52-47.96 22.55-76.99 59.01L320.27 445.1v129.28c3.56-2.2 6.95-4.8 10.04-7.89l236.18-236.18c21.54-21.54 21.54-56.45 0-77.99Z"></path><path d="M211.78 182.21c3.73 0 6.75-3.02 6.75-6.75s-3.02-6.75-6.75-6.75-6.75 3.02-6.75 6.75 3.02 6.75 6.75 6.75Z"></path></svg>