<svg xmlns="http://www.w3.org/2000/svg" width="609.3" viewBox="0 0 609.3 528.1" height="528.1"><path d="M206.8 125C225 93.4 278.2 1 278.7 0h-127C135.4 28.5 83 119.7 80.1 124.8l144.1 249.3 63.2-109.9c-.2-.5-72.1-124.5-80.6-139.2z"></path><path d="M537.5 139.7l-287.6.2 63.2 109.4h161.3l72.1 124.3 62.8-109.3z"></path><path d="M313.1 278.9l-80.4 139.5-143.4.4 62.6 109.3h143.8c.7-1.1 143.8-249.2 143.8-249.2H313.1z"></path><path d="M250.4 109.5c.1 0 .1 0 0 0 .1 0 .1 0 0 0 .1 0 .1 0 0 0z" fill="none"></path><path d="M313.4.4l-62.9 109.1h269.6L457 .3zM330.5 527.9H457l71.7-124.4-63.2-109.6z"></path><g><path d="M198.1 388.4L63.2 154.7 0 263.8l71.8 124.6z"></path></g></svg>