<svg data-name="Layer 1" xmlns="http://www.w3.org/2000/svg" viewBox="0 0 601.83 598.47"><path d="M581.19 598.47h20.64v-445L500.19 0H101.64L0 153.47v445h20.64l76.23-115.1v115.1h20.64v-115.1l76.23 115.1h20.64l76.23-115.1v115.1h20.64v-115.1l76.23 115.1h20.64l76.23-115.1v115.1h20.64v-115.1l76.23 115.1Zm0-37.37-67.34-101.67h67.34V561.1Zm-76.23-122.31V337.11l67.34 101.68h-67.34Zm76.23-23.95-67.34-101.68h67.34v101.68Zm-76.23-122.32V190.85l67.34 101.67h-67.34ZM20.64 313.16h67.33L20.64 414.84V313.16Zm0 247.94V459.43h67.33L20.63 561.1Zm76.23-122.31H29.53l67.34-101.68v101.68Zm0-146.27H29.53l67.34-101.67v101.67Zm96.86 268.58-67.34-101.67h67.34V561.1ZM117.5 438.79V337.11l67.34 101.68H117.5Zm76.23-23.95-67.34-101.68h67.34v101.68ZM117.5 292.52V190.85l67.34 101.67H117.5Zm76.23-23.95-86.55-130.68-86.54 130.68V159.69l86.54-130.68 86.55 130.68v108.88Zm20.64 292.53V459.43h67.34L214.37 561.1Zm76.23-122.31h-67.34l67.34-101.68v101.68Zm-76.23-23.95V313.16h67.34l-67.34 101.68Zm76.23-122.32h-67.34l67.34-101.67v101.67Zm96.86 268.58-67.34-101.67h67.34V561.1Zm-76.23-122.31V337.11l67.34 101.68h-67.34Zm76.23-23.95-67.34-101.68h67.34v101.68Zm-76.23-122.32V190.85l67.34 101.67h-67.34Zm96.86 268.58V459.43h67.33L408.09 561.1Zm76.23-122.31h-67.34l67.34-101.68v101.68Zm-76.23-23.95V313.16h67.34l-67.34 101.68Zm76.23-122.32h-67.34l67.34-101.67v101.67Zm-86.55-8.37-96.86-146.26-86.55 130.68v-115.1L126.39 20.64H489.1l92.09 139.05v108.88l-86.55-130.68-96.86 146.26Z"></path></svg>