<svg data-name="Layer 1" xmlns="http://www.w3.org/2000/svg" viewBox="0 0 625.03 617.92"><path d="M525.89 346.28c-20.61 20.61-54.02 20.61-74.63 0-20.61-20.61-20.61-54.02 0-74.63 20.61-20.61 54.02-20.61 74.63 0 9.41 9.41 14.47 21.48 15.29 33.79l83.85-83.85-83.75-83.75c-.34 13.04-5.44 25.99-15.39 35.94-20.61 20.61-54.02 20.61-74.63 0-20.61-20.61-20.61-54.02 0-74.63 9.96-9.96 22.9-15.05 35.94-15.39L403.45 0 319.6 83.85c12.31.82 24.38 5.88 33.79 15.29 20.61 20.61 20.61 54.02 0 74.63-20.61 20.61-54.02 20.61-74.63 0s-20.61-54.02 0-74.63c9.41-9.41 21.48-14.47 33.79-15.29L228.69 0l-83.75 83.75c13.04.34 25.99 5.44 35.94 15.39 20.61 20.61 20.61 54.02 0 74.63-20.61 20.61-54.02 20.61-74.63 0-5.4-5.4-9.31-11.68-11.87-18.37H0c0 33.53 22.09 61.9 52.51 71.34C22.57 236.04.74 263.68.06 296.52h92.27c2.19-9.11 6.81-17.75 13.92-24.87 20.61-20.61 54.02-20.61 74.63 0 20.61 20.61 20.61 54.02 0 74.63-20.61 20.61-54.02 20.61-74.63 0-7.11-7.11-11.73-15.76-13.92-24.87H0c0 33.54 22.09 61.91 52.51 71.36C22.57 402.06.74 429.7.06 462.54c0 0 89.73 0 89.73-.01h4.58c2.56-6.69 6.48-12.98 11.87-18.38 20.61-20.61 54.02-20.61 74.63 0 20.61 20.61 20.61 54.02 0 74.63-9.96 9.96-22.9 15.05-35.94 15.39l83.75 83.75 83.85-83.85c-12.31-.82-24.38-5.88-33.79-15.29-20.61-20.61-20.61-54.02 0-74.63 20.61-20.61 54.02-20.61 74.63 0 20.61 20.61 20.61 54.02 0 74.63-9.41 9.41-21.48 14.47-33.79 15.29l83.85 83.85 83.75-83.75c-13.04-.34-25.99-5.44-35.94-15.39-20.61-20.61-20.61-54.02 0-74.63 20.61-20.61 54.02-20.61 74.63 0 9.96 9.96 15.05 22.9 15.39 35.94l83.75-83.75-83.85-83.85c-.82 12.31-5.88 24.38-15.29 33.79Zm-172.51 0c-20.61 20.61-54.02 20.61-74.63 0-20.61-20.61-20.61-54.02 0-74.63 20.61-20.61 54.02-20.61 74.63 0 20.61 20.61 20.61 54.02 0 74.63Z"></path></svg>