<svg xmlns="http://www.w3.org/2000/svg" width="498" viewBox="0 0 498 627.5" height="627.5" xml:space="preserve" style="enable-background:new 0 0 498 627.5"><path d="M257.6 0v124.7H124.7v122.4H0V0zM128.8 251.3h128.8V376H128.8z"></path><path d="M257.6 502.8H124.7V251.3H0v376.2h257.6zM498 188C498 84.3 415.5 0 314.1 0h-52.3v124.7h52.3c32.7 0 59.3 28.4 59.3 63.3s-26.6 63.3-59.3 63.3h-52.3V376h51.9c32.6 0 59.1 28.5 59.1 63.5s-26.5 63.4-59.1 63.4h-52.2v124.7h52.2c101.3 0 183.7-84.4 183.7-188.1 0-48.1-17.8-92.1-46.9-125.4C480 280.6 498 236.4 498 188z"></path></svg>