<svg xmlns="http://www.w3.org/2000/svg" width="622.7" viewBox="0 0 622.7 281.1" height="281.1" xml:space="preserve" style="enable-background:new 0 0 622.7 281.1"><path d="M265.9 80.4c-22.6-46.8-70.5-79.1-126-79.1C62.6 1.3 0 63.9 0 141.2c0 77.3 62.6 139.9 139.9 139.9 12.3 0 24.2-1.6 35.6-4.6l-.1-135.3c-.7 19-16.3 34.2-35.5 34.2-19.6 0-35.5-15.9-35.5-35.5s15.9-35.5 35.5-35.5c14 0 26.1 8.1 31.9 19.9.5 1 70.9 146.7 70.9 146.7h117.4L265.9 80.4zM356.8 200.7c22.6 46.8 70.5 79.1 126 79.1 77.3 0 139.9-62.6 139.9-139.9C622.7 62.6 560.1 0 482.9 0c-12.3 0-24.2 1.6-35.6 4.6l.1 135.3c.7-19 16.3-34.2 35.5-34.2 19.6 0 35.5 15.9 35.5 35.5s-15.9 35.5-35.5 35.5c-14 0-26-8.1-31.8-19.8-.5-1-71-146.7-71-146.7H262.6l94.2 190.5z"></path></svg>