<svg xmlns="http://www.w3.org/2000/svg" width="587.2" viewBox="0 0 587.2 617.4" height="617.4" style="enable-background:new 0 0 587.2 617.4" xml:space="preserve"><circle cx="14.8" cy="14.8" r="14.8"></circle><circle cx="51.9" cy="14.8" r="14.8"></circle><circle cx="89.1" cy="14.8" r="14.8"></circle><circle cx="126.3" cy="14.8" r="14.8"></circle><circle cx="163.5" cy="14.8" r="14.8"></circle><circle cx="200.6" cy="14.8" r="14.8"></circle><circle cx="237.8" cy="14.8" r="14.8"></circle><circle cx="275" cy="14.8" r="14.8"></circle><circle cx="312.2" cy="14.8" r="14.8"></circle><circle cx="349.4" cy="14.8" r="14.8"></circle><circle cx="386.5" cy="14.8" r="14.8"></circle><circle cx="423.7" cy="14.8" r="14.8"></circle><circle cx="460.9" cy="14.8" r="14.8"></circle><circle cx="498.1" cy="14.8" r="14.8"></circle><circle cx="535.2" cy="14.8" r="14.8"></circle><circle cx="572.4" cy="14.8" r="14.8"></circle><circle cx="89.1" cy="51.5" r="14.8"></circle><circle cx="126.3" cy="51.5" r="14.8"></circle><circle cx="163.5" cy="51.5" r="14.8"></circle><circle cx="200.6" cy="51.5" r="14.8"></circle><circle cx="237.8" cy="51.5" r="14.8"></circle><circle cx="275" cy="51.5" r="14.8"></circle><circle cx="312.2" cy="51.5" r="14.8"></circle><circle cx="349.4" cy="51.5" r="14.8"></circle><circle cx="386.5" cy="51.5" r="14.8"></circle><circle cx="423.7" cy="51.5" r="14.8"></circle><circle cx="460.9" cy="51.5" r="14.8"></circle><circle cx="498.1" cy="51.5" r="14.8"></circle><circle cx="535.2" cy="51.5" r="14.8"></circle><circle cx="572.4" cy="51.5" r="14.8"></circle><circle cx="14.8" cy="88.2" r="14.8"></circle><circle cx="89.1" cy="88.2" r="14.8"></circle><circle cx="126.3" cy="88.2" r="14.8"></circle><circle cx="163.5" cy="88.2" r="14.8"></circle><circle cx="200.6" cy="88.2" r="14.8"></circle><circle cx="237.8" cy="88.2" r="14.8"></circle><circle cx="275" cy="88.2" r="14.8"></circle><circle cx="312.2" cy="88.2" r="14.8"></circle><circle cx="349.4" cy="88.2" r="14.8"></circle><circle cx="386.5" cy="88.2" r="14.8"></circle><circle cx="423.7" cy="88.2" r="14.8"></circle><circle cx="460.9" cy="88.2" r="14.8"></circle><circle cx="498.1" cy="88.2" r="14.8"></circle><circle cx="535.2" cy="88.2" r="14.8"></circle><circle cx="572.4" cy="88.2" r="14.8"></circle><circle cx="14.8" cy="125" r="14.8"></circle><circle cx="126.3" cy="125" r="14.8"></circle><circle cx="163.5" cy="125" r="14.8"></circle><circle cx="200.6" cy="125" r="14.8"></circle><circle cx="237.8" cy="125" r="14.8"></circle><circle cx="275" cy="125" r="14.8"></circle><circle cx="312.2" cy="125" r="14.8"></circle><circle cx="349.4" cy="125" r="14.8"></circle><circle cx="386.5" cy="125" r="14.8"></circle><circle cx="423.7" cy="125" r="14.8"></circle><circle cx="460.9" cy="125" r="14.8"></circle><circle cx="498.1" cy="125" r="14.8"></circle><circle cx="535.2" cy="125" r="14.8"></circle><circle cx="572.4" cy="125" r="14.8"></circle><circle cx="14.8" cy="161.7" r="14.8"></circle><circle cx="51.9" cy="161.7" r="14.8"></circle><circle cx="312.2" cy="161.7" r="14.8"></circle><circle cx="349.4" cy="161.7" r="14.8"></circle><circle cx="386.5" cy="161.7" r="14.8"></circle><circle cx="423.7" cy="161.7" r="14.8"></circle><circle cx="460.9" cy="161.7" r="14.8"></circle><circle cx="498.1" cy="161.7" r="14.8"></circle><circle cx="535.2" cy="161.7" r="14.8"></circle><circle cx="572.4" cy="161.7" r="14.8"></circle><circle cx="14.8" cy="198.5" r="14.8"></circle><circle cx="51.9" cy="198.5" r="14.8"></circle><circle cx="126.3" cy="198.5" r="14.8"></circle><circle cx="163.5" cy="198.5" r="14.8"></circle><circle cx="200.6" cy="198.5" r="14.8"></circle><circle cx="237.8" cy="198.5" r="14.8"></circle><circle cx="386.5" cy="198.5" r="14.8"></circle><circle cx="423.7" cy="198.5" r="14.8"></circle><circle cx="460.9" cy="198.5" r="14.8"></circle><circle cx="498.1" cy="198.5" r="14.8"></circle><circle cx="535.2" cy="198.5" r="14.8"></circle><circle cx="14.8" cy="235.2" r="14.8"></circle><circle cx="51.9" cy="235.2" r="14.8"></circle><circle cx="126.3" cy="235.2" r="14.8"></circle><circle cx="163.5" cy="235.2" r="14.8"></circle><circle cx="200.6" cy="235.2" r="14.8"></circle><circle cx="275" cy="235.2" r="14.8"></circle><circle cx="312.2" cy="235.2" r="14.8"></circle><circle cx="14.8" cy="271.9" r="14.8"></circle><circle cx="51.9" cy="271.9" r="14.8"></circle><circle cx="163.5" cy="271.9" r="14.8"></circle><circle cx="237.8" cy="271.9" r="14.8"></circle><circle cx="275" cy="271.9" r="14.8"></circle><circle cx="312.2" cy="271.9" r="14.8"></circle><circle cx="349.4" cy="271.9" r="14.8"></circle><circle cx="386.5" cy="271.9" r="14.8"></circle><circle cx="423.7" cy="271.9" r="14.8"></circle><circle cx="460.9" cy="271.9" r="14.8"></circle><circle cx="498.1" cy="271.9" r="14.8"></circle><circle cx="535.2" cy="271.9" r="14.8"></circle><circle cx="572.4" cy="271.9" r="14.8"></circle><circle cx="14.8" cy="308.7" r="14.8"></circle><circle cx="51.9" cy="308.7" r="14.8"></circle><circle cx="89.1" cy="308.7" r="14.8"></circle><circle cx="275" cy="308.7" r="14.8"></circle><circle cx="312.2" cy="308.7" r="14.8"></circle><circle cx="349.4" cy="308.7" r="14.8"></circle><circle cx="386.5" cy="308.7" r="14.8"></circle><circle cx="423.7" cy="308.7" r="14.8"></circle><circle cx="460.9" cy="308.7" r="14.8"></circle><circle cx="498.1" cy="308.7" r="14.8"></circle><circle cx="535.2" cy="308.7" r="14.8"></circle><circle cx="572.4" cy="308.7" r="14.8"></circle><circle cx="14.8" cy="345.4" r="14.8"></circle><circle cx="51.9" cy="345.4" r="14.8"></circle><circle cx="89.1" cy="345.4" r="14.8"></circle><circle cx="126.3" cy="345.4" r="14.8"></circle><circle cx="163.5" cy="345.4" r="14.8"></circle><circle cx="200.6" cy="345.4" r="14.8"></circle><circle cx="275" cy="345.4" r="14.8"></circle><circle cx="312.2" cy="345.4" r="14.8"></circle><circle cx="349.4" cy="345.4" r="14.8"></circle><circle cx="386.5" cy="345.4" r="14.8"></circle><circle cx="423.7" cy="345.4" r="14.8"></circle><circle cx="460.9" cy="345.4" r="14.8"></circle><circle cx="498.1" cy="345.4" r="14.8"></circle><circle cx="535.2" cy="345.4" r="14.8"></circle><circle cx="572.4" cy="345.4" r="14.8"></circle><circle cx="14.8" cy="382.2" r="14.8"></circle><circle cx="51.9" cy="382.2" r="14.8"></circle><circle cx="89.1" cy="382.2" r="14.8"></circle><circle cx="126.3" cy="382.2" r="14.8"></circle><circle cx="163.5" cy="382.2" r="14.8"></circle><circle cx="200.6" cy="382.2" r="14.8"></circle><circle cx="275" cy="382.2" r="14.8"></circle><circle cx="312.2" cy="382.2" r="14.8"></circle><circle cx="349.4" cy="382.2" r="14.8"></circle><circle cx="386.5" cy="382.2" r="14.8"></circle><circle cx="423.7" cy="382.2" r="14.8"></circle><circle cx="460.9" cy="382.2" r="14.8"></circle><circle cx="498.1" cy="382.2" r="14.8"></circle><circle cx="535.2" cy="382.2" r="14.8"></circle><circle cx="572.4" cy="382.2" r="14.8"></circle><circle cx="14.8" cy="418.9" r="14.8"></circle><circle cx="51.9" cy="418.9" r="14.8"></circle><circle cx="89.1" cy="418.9" r="14.8"></circle><circle cx="126.3" cy="418.9" r="14.8"></circle><circle cx="163.5" cy="418.9" r="14.8"></circle><circle cx="200.6" cy="418.9" r="14.8"></circle><circle cx="275" cy="418.9" r="14.8"></circle><circle cx="312.2" cy="418.9" r="14.8"></circle><circle cx="349.4" cy="418.9" r="14.8"></circle><circle cx="386.5" cy="418.9" r="14.8"></circle><circle cx="423.7" cy="418.9" r="14.8"></circle><circle cx="460.9" cy="418.9" r="14.8"></circle><circle cx="498.1" cy="418.9" r="14.8"></circle><circle cx="535.2" cy="418.9" r="14.8"></circle><circle cx="572.4" cy="418.9" r="14.8"></circle><circle cx="14.8" cy="455.6" r="14.8"></circle><circle cx="51.9" cy="455.6" r="14.8"></circle><circle cx="89.1" cy="455.6" r="14.8"></circle><circle cx="126.3" cy="455.6" r="14.8"></circle><circle cx="163.5" cy="455.6" r="14.8"></circle><circle cx="275" cy="455.6" r="14.8"></circle><circle cx="312.2" cy="455.6" r="14.8"></circle><circle cx="349.4" cy="455.6" r="14.8"></circle><circle cx="386.5" cy="455.6" r="14.8"></circle><circle cx="423.7" cy="455.6" r="14.8"></circle><circle cx="460.9" cy="455.6" r="14.8"></circle><circle cx="498.1" cy="455.6" r="14.8"></circle><circle cx="535.2" cy="455.6" r="14.8"></circle><circle cx="572.4" cy="455.6" r="14.8"></circle><circle cx="237.8" cy="492.4" r="14.8"></circle><circle cx="275" cy="492.4" r="14.8"></circle><circle cx="312.2" cy="492.4" r="14.8"></circle><circle cx="349.4" cy="492.4" r="14.8"></circle><circle cx="386.5" cy="492.4" r="14.8"></circle><circle cx="423.7" cy="492.4" r="14.8"></circle><circle cx="460.9" cy="492.4" r="14.8"></circle><circle cx="498.1" cy="492.4" r="14.8"></circle><circle cx="535.2" cy="492.4" r="14.8"></circle><circle cx="572.4" cy="492.4" r="14.8"></circle><circle cx="14.8" cy="529.1" r="14.8"></circle><circle cx="51.9" cy="529.1" r="14.8"></circle><circle cx="126.3" cy="529.1" r="14.8"></circle><circle cx="163.5" cy="529.1" r="14.8"></circle><circle cx="200.6" cy="529.1" r="14.8"></circle><circle cx="237.8" cy="529.1" r="14.8"></circle><circle cx="275" cy="529.1" r="14.8"></circle><circle cx="312.2" cy="529.1" r="14.8"></circle><circle cx="349.4" cy="529.1" r="14.8"></circle><circle cx="386.5" cy="529.1" r="14.8"></circle><circle cx="423.7" cy="529.1" r="14.8"></circle><circle cx="460.9" cy="529.1" r="14.8"></circle><circle cx="498.1" cy="529.1" r="14.8"></circle><circle cx="535.2" cy="529.1" r="14.8"></circle><circle cx="572.4" cy="529.1" r="14.8"></circle><circle cx="89.1" cy="565.9" r="14.8"></circle><circle cx="126.3" cy="565.9" r="14.8"></circle><circle cx="163.5" cy="565.9" r="14.8"></circle><circle cx="200.6" cy="565.9" r="14.8"></circle><circle cx="237.8" cy="565.9" r="14.8"></circle><circle cx="275" cy="565.9" r="14.8"></circle><circle cx="312.2" cy="565.9" r="14.8"></circle><circle cx="349.4" cy="565.9" r="14.8"></circle><circle cx="386.5" cy="565.9" r="14.8"></circle><circle cx="423.7" cy="565.9" r="14.8"></circle><circle cx="460.9" cy="565.9" r="14.8"></circle><circle cx="498.1" cy="565.9" r="14.8"></circle><circle cx="535.2" cy="565.9" r="14.8"></circle><circle cx="572.4" cy="565.9" r="14.8"></circle><circle cx="14.8" cy="602.6" r="14.8"></circle><circle cx="51.9" cy="602.6" r="14.8"></circle><circle cx="89.1" cy="602.6" r="14.8"></circle><circle cx="126.3" cy="602.6" r="14.8"></circle><circle cx="163.5" cy="602.6" r="14.8"></circle><circle cx="200.6" cy="602.6" r="14.8"></circle><circle cx="237.8" cy="602.6" r="14.8"></circle><circle cx="275" cy="602.6" r="14.8"></circle><circle cx="312.2" cy="602.6" r="14.8"></circle><circle cx="349.4" cy="602.6" r="14.8"></circle><circle cx="386.5" cy="602.6" r="14.8"></circle><circle cx="423.7" cy="602.6" r="14.8"></circle><circle cx="460.9" cy="602.6" r="14.8"></circle><circle cx="498.1" cy="602.6" r="14.8"></circle><circle cx="535.2" cy="602.6" r="14.8"></circle><circle cx="572.4" cy="602.6" r="14.8"></circle></svg>