<svg xmlns="http://www.w3.org/2000/svg" width="627.3" viewBox="0 0 627.3 627.3" height="627.3" xml:space="preserve" style="enable-background:new 0 0 627.3 627.3"><path d="M131.8 58.1c-28.5 20.3-53.4 45.2-73.8 73.7h73.8V58.1zM313.7 0c-67 0-129.1 21-180 56.8h360C442.7 21 380.6 0 313.7 0zM57.3 131.8v1c.2-.3.5-.7.7-1h-.7zM569.1 131.8c-20.3-28.5-45.1-53.4-73.6-73.7v73.7H569.1zM627.3 313.7c0-67-21-129.1-56.8-180v360c35.8-51 56.8-113.1 56.8-180z"></path><path d="M495.5 308.9c-2.5-96.7-80.4-174.6-177.1-177.1H495c-46.4-46.4-110.5-75-181.3-75-70.8 0-134.9 28.7-181.3 75h176.5c-96.7 2.5-174.6 80.4-177.1 177.1V132.4c-46.4 46.4-75 110.5-75 181.3 0 70.8 28.7 134.9 75 181.3V318.4c2.5 96.7 80.4 174.6 177.1 177.1H132.4c46.4 46.4 110.5 75 181.3 75 70.8 0 134.9-28.7 181.3-75H318.4c96.7-2.5 174.6-80.4 177.1-177.1V495c46.4-46.4 75-110.5 75-181.3 0-70.8-28.7-134.9-75-181.3v176.5zM495.5 568.2v.9c28.5-20.3 53.4-45.1 73.7-73.6h-73.7v72.7zM313.6 627.3c67 0 129.1-21 180-56.8h-360c51 35.8 113.1 56.8 180 56.8zM58.2 495.5c20.3 28.5 45.1 53.4 73.6 73.7v-73.7H58.2z"></path><path d="M0 313.6c0 67 21 129.1 56.8 180v-360C21 184.6 0 246.7 0 313.6z"></path></svg>