<svg data-name="Layer 1" xmlns="http://www.w3.org/2000/svg" viewBox="0 0 588.62 588.62"><path d="M0 0v588.62h588.62V0H0Zm321.5 359.87c0 23.39-8.65 44.76-22.9 61.11-.17.19.1.45.29.28 18.66-16.36 43.9-25.39 71.25-22.54 43.36 4.51 78.33 39.65 82.63 83.03 5.84 58.87-43.23 107.94-102.1 102.1-43.34-4.3-78.47-39.21-83.02-82.52-2.87-27.32 6.11-52.53 22.4-71.2.17-.19-.09-.45-.28-.28-18.73 16.43-44.1 25.48-71.58 22.54-42.89-4.59-77.5-39.06-82.23-81.94-6.19-56.13 37.6-103.63 92.48-103.63 23.09 0 44.21 8.41 60.47 22.33.2.17.42-.05.25-.25-13.75-16.22-22.04-37.2-22.04-60.13s8.65-44.76 22.9-61.11c.17-.19-.1-.45-.29-.28-18.66 16.36-43.9 25.39-71.25 22.54-43.36-4.51-78.32-39.65-82.63-83.03C130.01 48 179.09-1.08 237.97 4.77c43.34 4.31 78.45 39.21 83 82.52 2.87 27.32-6.11 52.53-22.4 71.2-.17.19.09.45.28.28 18.73-16.43 44.09-25.48 71.56-22.54 42.9 4.58 77.52 39.06 82.24 81.94 6.19 56.13-37.6 103.63-92.48 103.63-23.09 0-44.21-8.41-60.47-22.33-.2-.17-.42.05-.25.25 13.75 16.22 22.04 37.2 22.04 60.13Z"></path></svg>