<svg xmlns="http://www.w3.org/2000/svg" width="595.9" viewBox="0 0 595.9 366.7" height="366.7" xml:space="preserve"><path d="M299.5 96.5c-47.4 0-85.8 39.4-85.8 87.9 0 48.5 38.4 87.9 85.8 87.9s85.8-39.4 85.8-87.9c-.1-48.5-38.5-87.9-85.8-87.9zm0 128.7c-22.5 0-40.7-18.3-40.7-40.7s18.3-40.7 40.7-40.7c22.5 0 40.7 18.3 40.7 40.7s-18.3 40.7-40.7 40.7z"></path><circle transform="rotate(-45.001 299.452 184.437)" cx="299.5" cy="184.4" r="35.1"></circle><path d="M561.5 85.4c0 17.7 0 36-2.9 53.6-15.8 95.1-90.3 169.7-185.4 185.5C322.9 333 271 323.2 227 297c-43.4-25.8-77.5-66.4-96.1-114.4v-.1h-37l4.9 12.5c21.4 55.1 60.7 101.8 110.6 131.5 25.1 14.9 52.1 25.3 80.4 30.8 29.3 5.7 59.2 6.1 89 1.2 109.7-18.2 195.6-104.2 213.7-213.8 1.9-11.5 2.7-23.1 3.1-34.3.3-7.8.3-15.5.3-22.8l-34.4-35.1v32.9z"></path><path d="M229.9 292.2c42.8 25.5 93.4 35 142.3 26.9C465 303.6 537.7 230.9 553 138.2c2.8-17.2 2.8-35.3 2.8-52.7V52.6l-34.4 34.8v11.2c-.1 11.8-.6 23.4-2.3 33.9-13 78.2-74.2 139.5-152.5 152.5-41.5 6.9-82.7-.9-119.1-22.5-31.3-18.6-56.8-46.7-73-80h-37.6c18.3 46 51.3 84.9 93 109.7z"></path><path d="M595.9 37 558.7 0l-37.3 37.2v42.2l37.3-37 37.2 37.3v-.3z"></path><g><path d="M34.4 281.2c0-17.7 0-36 2.9-53.6 15.8-95.1 90.3-169.7 185.4-185.5 50.3-8.4 102.2 1.4 146.2 27.6 43.4 25.8 77.5 66.4 96.1 114.4v.1h37l-4.9-12.5c-21.4-55.1-60.7-101.8-110.6-131.5-25.1-14.9-52.1-25.3-80.4-30.8-29.3-5.7-59.2-6.1-89-1.2C107.4 26.4 21.5 112.3 3.4 222 1.5 233.5.7 245.1.3 256.3 0 264.1 0 271.7 0 279l34.4 35.1v-32.9z"></path><path d="M366 74.5c-42.8-25.5-93.4-35-142.3-26.9-92.8 15.5-165.4 88.2-180.8 180.9-2.8 17.2-2.8 35.3-2.8 52.7v32.9l34.4-34.8v-11.2c.1-11.8.6-23.4 2.3-33.9C89.8 156 151 94.7 229.3 81.7c41.5-6.9 82.7.9 119.1 22.5 31.3 18.6 56.8 46.7 73 80H459c-18.3-46-51.3-84.9-93-109.7z"></path></g><path d="m0 329.7 37.2 37 37.3-37.3v-42.1l-37.3 36.9L0 287v.3z"></path></svg>