<svg data-name="Layer 1" xmlns="http://www.w3.org/2000/svg" viewBox="0 0 623.35 623.35"><path d="M594.45 282.77h-80.48V28.9c0-15.96-12.94-28.9-28.9-28.9s-28.9 12.94-28.9 28.9v253.87h-57.8V28.9c0-15.96-12.94-28.9-28.9-28.9s-28.9 12.94-28.9 28.9v253.87h-57.8V28.9c0-15.96-12.94-28.9-28.9-28.9s-28.9 12.94-28.9 28.9v253.87h-57.8V28.9c0-15.96-12.94-28.9-28.9-28.9s-28.9 12.94-28.9 28.9v253.87H28.9c-15.96 0-28.9 12.94-28.9 28.9s12.94 28.9 28.9 28.9h80.47v253.87c0 15.96 12.94 28.9 28.9 28.9s28.9-12.94 28.9-28.9V340.57h57.8v253.87c0 15.96 12.94 28.9 28.9 28.9s28.9-12.94 28.9-28.9V340.57h57.8v253.87c0 15.96 12.94 28.9 28.9 28.9s28.9-12.94 28.9-28.9V340.57h57.8v253.87c0 15.96 12.94 28.9 28.9 28.9s28.9-12.94 28.9-28.9V340.57h80.48c15.96 0 28.9-12.94 28.9-28.9s-12.94-28.9-28.9-28.9Z"></path></svg>