<svg xmlns="http://www.w3.org/2000/svg" width="617.7" viewBox="0 0 617.7 356.2" height="356.2" xml:space="preserve" style="enable-background:new 0 0 617.7 356.2"><path d="m611.4 165.9-83-144.1C521.1 8.8 507.2 0 491.3 0c-15.4 0-28.9 8.2-36.4 20.5l-80.4 136.1h74.2l42-70.5 48.7 79.9H262.1l38.2 64.8h274.9c23.5 0 42.5-19.1 42.5-42.5 0-8.3-2.3-15.9-6.3-22.4z"></path><path d="m330.3 240.1-18.9 31L164.8 21.8C157.5 8.8 143.6 0 127.6 0 111.3 0 97 9.3 89.9 22.9l-83.6 143C2.3 172.4 0 180 0 188.2c0 23.5 19.1 42.5 42.5 42.5h158.8l-38.6-64.8H78.8c-.1-.1-.2-.3-.3-.4l49.1-80.4L273.1 333l.2-.3.9 1.6c7.3 13.1 21.2 21.9 37.2 21.9 16 0 29.9-8.8 37.1-21.8l55.9-94.3h-74.1z"></path></svg>