<svg xmlns="http://www.w3.org/2000/svg" width="545.8" viewBox="0 0 545.8 449.2" height="449.2"><path d="M154.8 226.2c0 68.6 55.6 124.2 124.2 124.2s124.2-55.6 124.2-124.2S347.6 102 279 102s-124.2 55.6-124.2 124.2"></path><path d="M103.5 224.6c0-96.4 78.4-174.8 174.8-174.8 25.2 0 49.2 5.4 70.8 15.1l126.4 52.5C437.5 47.6 363.4 0 278.4 0 158.8 0 60.8 93.9 54.2 211.9l-19.8-8.2c-12.7-5.2-27.3.8-32.5 13.5-5.2 12.7.8 27.3 13.5 32.5l101.5 41.8c-8.6-20.6-13.4-43.2-13.4-66.9M530.4 199.1l-88.7-36.9c7.4 19.4 11.5 40.4 11.5 62.4 0 96.4-78.4 174.9-174.8 174.9-26.1 0-50.8-5.8-73.1-16.1L81 331.7c38.1 70 112.2 117.5 197.4 117.5 118.2 0 215.3-91.8 223.9-207.9 0 0 15.4 5.6 18.6 5.6 9.8 0 19.1-5.8 23-15.4 5.2-12.6-.8-27.2-13.5-32.4"></path></svg>