<svg data-name="Layer 1" xmlns="http://www.w3.org/2000/svg" viewBox="0 0 629.88 628.55"><path d="M626.18 267.48c-1.36-9.14-3.11-18.15-5.24-27.02-105.14.73-204.92 47.32-276.57 125.51 9.15 13.52 19.78 29.06 27.69 43.22H257.8c7.91-14.16 18.54-29.7 27.69-43.22-71.64-78.19-171.42-124.78-276.56-125.51-2.13 8.87-3.88 17.88-5.24 27.02-29.44 187.58 121.14 362.7 311.24 361.06 190.1 1.64 340.69-173.47 311.24-361.06ZM314.94 579.27c-154.31.77-278.3-134.39-264.43-288.01 64.58 9.14 124.65 37.12 173.72 81.28-15.91 25.11-30 57.05-42.33 84.22h266.07c-12.33-27.17-26.42-59.11-42.33-84.22 49.07-44.16 109.14-72.15 173.72-81.28 13.87 153.62-110.12 288.78-264.43 288.01Z"></path><path d="M314.94 264.47c10.85 9.42 23.85 22.47 34.19 32.64 72.94-61.29 162.67-98.28 257.2-101.98C552.41 65.02 433.67 0 314.94 0 196.2 0 77.46 65.02 23.55 195.13c94.53 3.7 184.26 40.69 257.2 101.98 10.34-10.17 23.34-23.22 34.19-32.64ZM100.96 157.06c48.35-65.8 126.25-108.59 213.98-108.59 87.73 0 165.63 42.79 213.98 108.59-63.21 13.17-122.82 39.27-176.18 77.42-11.42-10.55-25.67-21.97-37.8-31.79-12.14 9.82-26.38 21.24-37.8 31.79-53.36-38.15-112.96-64.25-176.18-77.42Z"></path></svg>