<svg xmlns="http://www.w3.org/2000/svg" width="621" viewBox="0 0 621 466.3" height="466.3" xml:space="preserve" style="enable-background:new 0 0 621 466.3"><path d="M160.3 349.7c.9-30.2 59.9-35.6 59.9-35.6v-81h20.3c.9-30.2 59.9-35.6 59.9-35.6v-81h20.3v81s59 5.4 59.9 35.6c0 0-59 5.4-59.9 35.6h-20.3c-.9-30.2-59.9-35.6-59.9-35.6v81s59 5.4 59.9 35.6c-.1 0-59 5.4-59.9 35.6h-20.3c-.9-30.2-59.9-35.6-59.9-35.6m460.7 81v-81s-59 5.4-59.9 35.6h-20.3c-.9-30.2-59.9-35.6-59.9-35.6v81s59 5.4 59.9 35.6h20.3c1-30.2 59.9-35.6 59.9-35.6m-621 0v-81s59 5.4 59.9 35.6h20.3c.9-30.2 59.9-35.6 59.9-35.6v81s-59 5.4-59.9 35.6H59.9C59 436.1 0 430.7 0 430.7M380.5 81V0s-59 5.4-59.9 35.6h-20.3C299.5 5.4 240.5 0 240.5 0v81s59 5.4 59.9 35.6c-.1 0-59 5.4-59.9 35.6h-20.3c-.9-30.2-59.9-35.6-59.9-35.6v81s59 5.4 59.9 35.6c0 0-59 5.4-59.9 35.6H140c-.9-30.2-59.9-35.6-59.9-35.6v81s59 5.4 59.9 35.6h20.3v81s59 5.4 59.9 35.6h20.3c.9-30.2 59.9-35.6 59.9-35.6v-81h20.3v81s59 5.4 59.9 35.6h20.3c.9-30.2 59.9-35.6 59.9-35.6v-81s-59 5.4-59.9 35.6h-20.3c-.9-30.2-59.9-35.6-59.9-35.6.9-30.2 59.9-35.6 59.9-35.6v-81h20.3v81s59 5.4 59.9 35.6H481c.9-30.2 59.9-35.6 59.9-35.6v-81s-59 5.4-59.9 35.6h-20.3c-.9-30.1-59.8-35.6-59.9-35.6.9-30.2 59.9-35.6 59.9-35.6v-81s-59 5.4-59.9 35.6h-20.3c-.9-30.2-59.9-35.6-59.9-35.6 1-30.2 59.9-35.6 59.9-35.6"></path></svg>