<svg data-name="Layer 1" xmlns="http://www.w3.org/2000/svg" viewBox="0 0 621.19 567.92"><circle cx="278.79" cy="465.02" r="102.01"></circle><path d="M170.02 465.03c0-39.68 21.37-74.45 53.19-93.45-12.51-5.48-26.31-8.56-40.84-8.56-56.34 0-102.01 45.67-102.01 102.01s45.67 102.01 102.01 102.01c14.53 0 28.33-3.08 40.84-8.56-31.82-19-53.19-53.77-53.19-93.44Z"></path><path d="M73.61 465.03c0-42.35 24.34-79.09 59.75-97.05-9.88-3.19-20.41-4.96-31.35-4.96C45.67 363.02 0 408.69 0 465.02s45.67 102.01 102.01 102.01c10.95 0 21.47-1.77 31.35-4.96-35.41-17.96-59.75-54.7-59.75-97.05Z"></path><circle cx="224.33" cy="255.25" r="102.01" transform="rotate(-21.02 224.37464529 255.2900181)"></circle><path d="M278.58 160.98c34.39 19.79 53.87 55.65 54.47 92.71 10.99-8.11 20.54-18.53 27.79-31.13 28.1-48.83 11.29-111.19-37.54-139.29-48.83-28.1-111.19-11.29-139.29 37.54-7.25 12.6-11.45 26.09-12.95 39.67 32.34-18.11 73.13-19.29 107.52.5Z"></path><path d="M326.66 77.41c36.71 21.12 56.42 60.54 54.32 100.19 7.7-6.98 14.47-15.21 19.93-24.7 28.1-48.83 11.29-111.19-37.54-139.29-48.83-28.1-111.19-11.29-139.29 37.54-5.46 9.49-9.17 19.49-11.34 29.65 33.22-21.74 77.21-24.51 113.91-3.39Z"></path><circle cx="430.7" cy="312.84" r="102.01" transform="rotate(-45 430.70156457 312.83757062)"></circle><path d="M529.99 484.63c48.78-28.19 65.47-90.58 37.28-139.36-7.27-12.58-16.84-22.98-27.85-31.07-.53 37.06-19.94 72.95-54.29 92.81-34.36 19.86-75.15 18.75-107.52.71 1.52 13.57 5.75 27.06 13.02 39.64 28.19 48.78 90.58 65.47 139.36 37.28Z"></path><path d="M607.48 414.86c-5.48-9.48-12.27-17.7-19.98-24.66 2.17 39.64-17.46 79.1-54.12 100.29-36.67 21.19-80.66 18.5-113.92-3.17 2.18 10.15 5.92 20.15 11.39 29.63 28.19 48.78 90.58 65.47 139.36 37.28 48.78-28.19 65.47-90.58 37.28-139.36Z"></path></svg>