<svg data-name="Layer 1" xmlns="http://www.w3.org/2000/svg" viewBox="0 0 630.14 630.14"><path d="M315.07 0C141.34 0 0 141.34 0 315.07s141.34 315.07 315.07 315.07S630.14 488.8 630.14 315.07 488.8 0 315.07 0Zm0 614.52c-165.12 0-299.45-134.33-299.45-299.45S149.95 15.62 315.07 15.62s299.45 134.33 299.45 299.45-134.33 299.45-299.45 299.45Z"></path><path d="M69.33 316.28c0 121.62 87.07 223.68 207.03 242.67l9.03 1.43V72.18l-9.03 1.43C156.4 92.6 69.33 194.66 69.33 316.28ZM353.78 73.61l-9.03-1.43v488.21l9.03-1.43c119.96-18.99 207.03-121.05 207.03-242.67S473.74 92.61 353.78 73.62Zm6.59 468.31V90.65C468.01 112 545.19 205.47 545.19 316.29s-77.18 204.29-184.82 225.64Z"></path></svg>