<svg data-name="Layer 1" xmlns="http://www.w3.org/2000/svg" viewBox="0 0 603.47 454.03"><path d="M532.16 233.72h-95.28L302.54 301.4l-.8.41-.81-.41-134.34-67.67H71.3l230.44 108.53 230.42-108.54zM446.3 147.64h-87.76l-55.95 30.32-.85.47-.86-.47-55.95-30.32h-87.76l144.57 72.83 144.56-72.83zM450.27 147.64l-148.53 74.83 148.53-74.83z"></path><path d="M300.84 0 186.76 114.09l61.92 33.55 52.16 28.27V0zM302.63 0v175.91l52.16-28.27 61.92-33.56L302.63 0zM300.84 222.02 153.2 147.64l-51.43 51.43 68.79 34.66 130.28 65.63v-77.34zM450.27 147.64l-147.64 74.38v77.34l130.29-65.64 68.78-34.65-51.43-51.43zM302.63 454.03l300.84-153.19-67.11-67.12-233.73 110.1v110.21zM300.84 343.81 67.11 233.73 0 300.84l300.84 153.19V343.81z"></path></svg>