<svg data-name="Layer 1" xmlns="http://www.w3.org/2000/svg" viewBox="0 0 620.73 377.21"><path d="M0 215.55c2.72 19.03 8.27 37.14 16.23 53.89h247.41c-7.96-16.75-13.5-34.86-16.23-53.89H0ZM16.23 107.78C8.27 124.53 2.72 142.64 0 161.66h247.41c2.72-19.03 8.27-37.14 16.23-53.89H16.23ZM620.73 161.66c-2.72-19.03-8.27-37.14-16.23-53.89H357.09c7.96 16.75 13.5 34.86 16.23 53.89h247.41ZM357.09 269.44H604.5c7.96-16.75 13.5-34.86 16.23-53.89H373.32c-2.72 19.03-8.27 37.14-16.23 53.89ZM302.13 323.33H54.71c34.02 33.32 80.57 53.89 131.95 53.89 47.35 0 90.58-17.49 123.7-46.3 33.12 28.82 76.36 46.3 123.71 46.3 51.38 0 97.93-20.57 131.95-53.89H318.61c15.79-15.47 28.89-33.68 38.49-53.89h-93.45c9.6 20.2 22.69 38.42 38.49 53.89Z"></path><path d="M318.6 53.89h247.41C532 20.57 485.45 0 434.07 0c-47.35 0-90.58 17.49-123.71 46.3C277.25 17.49 234.01 0 186.66 0 135.28 0 88.73 20.57 54.71 53.89h247.41c-15.79 15.47-28.89 33.68-38.49 53.89h93.45c-9.6-20.2-22.69-38.42-38.49-53.89ZM375.27 188.61c0-9.15-.69-18.14-1.95-26.94H247.41c-1.26 8.8-1.95 17.79-1.95 26.94s.69 18.14 1.95 26.94h125.91c1.26-8.8 1.95-17.79 1.95-26.94Z"></path></svg>