<svg xmlns="http://www.w3.org/2000/svg" width="616.7" viewBox="0 0 616.7 617.2" height="617.2" xml:space="preserve"><path class="st0" d="m331.9 260 111.4-64-111.4-62.1zM330.9 478.3l111.2-66.7-111.2-63.1z"></path><path d="M308.3 0C138.1 0 0 138.2 0 308.6 0 479 138.1 617.2 308.3 617.2c170.3 0 308.3-138.2 308.3-308.6C616.7 138.2 478.6 0 308.3 0zM505 385.5c7.9 4.5 12.8 16 12.9 25.2.1 9.2-4.6 17.7-12.4 22.4L323.1 542.2c-17.4 10.5-42.6-4.8-42.6-25.2V350.8l-155.9 86.4c-3.9 2.2-8.1 3.2-12.3 3.2-8.8 0-17.4-4.7-22-13.2-6.8-12.4-2.4-28 9.8-34.8l153.5-86.8-153.5-86.8c-12.2-6.9-16.5-22.5-9.8-34.8 6.8-12.4 22.1-16.8 34.3-9.9l157.6 87.4V94.3c0-8.9 4.6-17.2 12.2-21.7s23-4.7 30.7-.4l178.1 98.3c10.1 5.9 14.6 15.9 14.7 25.1.1 9.2-5.3 20.3-14.4 25.2l-144.3 83.4L505 385.5z" class="st0"></path></svg>