<svg xmlns="http://www.w3.org/2000/svg" width="642" viewBox="0 0 642 642" height="642" data-name="Layer_1"><path d="M642 321c0 177.28-143.72 321-321 321S0 498.28 0 321 143.72 0 321 0s321 143.72 321 321ZM321 119.17c-111.47 0-201.83 90.36-201.83 201.83S209.53 522.83 321 522.83 522.83 432.47 522.83 321 432.47 119.17 321 119.17Z"></path><path d="M454.11 321C398.58 351.37 352.4 396.71 321 451.58 289.6 396.7 243.42 351.37 187.89 321 243.42 290.63 289.6 245.29 321 190.42 352.4 245.3 398.58 290.63 454.11 321Z"></path></svg>