<svg xmlns="http://www.w3.org/2000/svg" width="522.8" viewBox="0 0 522.8 616.9" height="616.9" xml:space="preserve" style="enable-background:new 0 0 522.8 616.9"><path d="M513.3 397.3c-33.1-88.6-123-90.6-123-90.6H283.7v241.4h-74.1v-164h-43V165.8h156.1v113.8H390s82.2 0 112.4-81c23.7-63.5-3.2-135.3-57.8-173.7C426.4 12.1 395.6 1 363.5 0H0v616.9h367.8c35.2-1.1 62.4-13.2 82.2-27.2 59.8-42.1 89.2-122.9 63.3-192.4zm-305.2-319c6.4-17.1 22.2-24.3 40.6-24.3 18.1 0 33.6 7.7 40.2 24.3 2.2 5.5 3.4 17.6 3.4 24 0 25.6-19.5 46.3-43.7 46.3-24.1 0-43.7-20.7-43.7-46.3.1-6.1 1.2-18.7 3.2-24z"></path></svg>