<svg xmlns="http://www.w3.org/2000/svg" width="591.5" viewBox="0 0 591.5 588.1" height="588.1"><circle cx="69.5" cy="69.5" r="69.5"></circle><circle cx="220.3" cy="69.5" r="69.5"></circle><circle cx="371.2" cy="69.5" r="69.5"></circle><circle cx="69.5" cy="219.2" r="69.5"></circle><circle cx="220.3" cy="219.2" r="69.5"></circle><circle cx="371.2" cy="219.2" r="69.5"></circle><path d="M522 288.7c38.4 0 69.5-31.1 69.5-69.5s-31.1-69.5-69.5-69.5-69.5 31.1-69.5 69.5 31.1 69.5 69.5 69.5z"></path><circle cx="69.5" cy="368.9" r="69.5"></circle><circle cx="220.3" cy="368.9" r="69.5"></circle><circle cx="371.2" cy="368.9" r="69.5"></circle><path d="M522 299.4c-38.4 0-69.5 31.1-69.5 69.5s31.1 69.5 69.5 69.5 69.5-31.1 69.5-69.5-31.1-69.5-69.5-69.5z"></path><circle cx="69.5" cy="518.6" r="69.5"></circle><circle cx="220.3" cy="518.6" r="69.5"></circle><circle cx="371.2" cy="518.6" r="69.5"></circle></svg>