<svg xmlns="http://www.w3.org/2000/svg" width="588.2" viewBox="0 0 588.2 326.9" height="326.9"><circle cx="304.2" cy="23.3" r="23.3"></circle><circle cx="404.2" cy="23.3" r="23.3"></circle><path d="M582.8 48.8c-7.2-7.2-18.9-7.2-26.1 0l-38.4 38.4-38.4-38.4c-7.2-7.2-18.9-7.2-26.1 0l-37.5 37.5-37.5-37.5c-7.2-7.2-18.9-7.2-26.1 0l-37.5 37.5-37.5-37.5c-3.5-3.5-8.1-5.4-13-5.4H166c-4.9 0-9.6 1.9-13 5.4l-45.3 45.3c-7.2 7.2-7.2 18.9 0 26.1 7.2 7.2 18.9 7.2 26.1 0l39.9-39.9h46.5L111.5 189.1H18.4C8.3 189.1 0 197.3 0 207.5s8.3 18.4 18.4 18.4h100.7c4.9 0 9.6-1.9 13-5.4l36.6-36.6 24.5 24.5-36 36c-7.2 7.2-7.2 18.9 0 26.1 3.6 3.6 8.3 5.4 13 5.4s9.4-1.8 13-5.4l17-17v55.1c0 10.2 8.3 18.4 18.4 18.4 10.2 0 18.4-8.3 18.4-18.4v-91.9l32.6-32.6 24.5 24.5-36 36c-7.2 7.2-7.2 18.9 0 26.1 3.6 3.6 8.3 5.4 13 5.4s9.4-1.8 13-5.4l17-17v55.1c0 10.2 8.3 18.4 18.4 18.4s18.4-8.3 18.4-18.4v-91.9l32.6-32.6 31.6 31.6v93c0 10.2 8.3 18.4 18.4 18.4s18.4-8.3 18.4-18.4V207.8c0-4.9-1.9-9.6-5.4-13l-36.9-36.9 70-70 38.4 38.4c7.2 7.2 18.9 7.2 26.1 0l51.4-51.4c7.5-7.3 7.5-18.9.3-26.1zM219.3 182.3l-24.5-24.5 70-70 24.5 24.5-70 70zm101 0l-24.5-24.5 70-70 24.5 24.5-70 70z"></path><circle cx="504.2" cy="23.3" r="23.3"></circle></svg>