<svg data-name="Layer 1" xmlns="http://www.w3.org/2000/svg" viewBox="0 0 518.52 598.74"><path d="M207.69 50.15h103.15v93.67H207.69zM426.75 431.21V156.6H323.6v260.25H194.91V156.6H91.77v274.61c0 31.84 25.81 57.66 57.66 57.66h219.66c31.84 0 57.66-25.81 57.66-57.66Z"></path><path d="M207.69 156.6h103.15v247.48H207.69z"></path><path d="m259.41.08-.15-.08L.15 149.6l-.15.09v299.36l259.11 149.6.15.08 259.11-149.6.15-.09V149.68L259.41.08ZM12.51 156.91 259.26 14.45 506.01 156.9v284.93L259.26 584.29 12.51 441.83V156.91Z"></path></svg>