<svg id="Layer_1" data-name="Layer 1" xmlns="http://www.w3.org/2000/svg" viewBox="0 0 606.19 606.19">   <path d="M303.1,0C135.7,0,0,135.7,0,303.1s135.7,303.1,303.1,303.1,303.1-135.7,303.1-303.1S470.49,0,303.1,0Zm0,26.53c137.84,0,252.1,100.85,273.09,232.79-12.39,7.82-27.03,12.39-42.77,12.39-17.14,0-33-5.39-46.06-14.5-13.06,9.12-28.92,14.5-46.06,14.5s-33-5.39-46.06-14.5c-13.06,9.12-28.92,14.5-46.06,14.5s-33-5.39-46.06-14.5c-13.06,9.12-28.92,14.5-46.06,14.5s-33-5.39-46.06-14.5c-13.06,9.12-28.92,14.5-46.06,14.5s-33-5.39-46.06-14.5c-13.06,9.12-28.92,14.5-46.06,14.5-15.75,0-30.38-4.57-42.77-12.39C51,127.38,165.25,26.53,303.1,26.53Zm-92.13,537.36c-40.31-14.24-76.31-37.54-105.58-67.48,4.74-2.1,9.25-4.64,13.46-7.58,13.06,9.12,28.92,14.5,46.06,14.5s33-5.39,46.06-14.5v75.06Zm184.25,0v-75.06c13.06,9.12,28.92,14.5,46.06,14.5s33-5.39,46.06-14.5c4.21,2.94,8.71,5.48,13.46,7.58-29.28,29.94-65.28,53.24-105.58,67.48Zm124.35-88.77c-11.82-2.06-22.76-6.67-32.23-13.27-13.06,9.12-28.92,14.5-46.06,14.5s-33-5.39-46.06-14.5c-13.06,9.12-28.92,14.5-46.06,14.5s-33-5.39-46.06-14.5c-13.06,9.12-28.92,14.5-46.06,14.5s-33-5.39-46.06-14.5c-13.06,9.12-28.92,14.5-46.06,14.5s-33-5.39-46.06-14.5c-9.46,6.6-20.41,11.21-32.23,13.27-19.39-24.37-34.73-52.07-45.06-82.12,9.6,4.07,20.14,6.36,31.23,6.36,17.14,0,33-5.39,46.06-14.5,13.06,9.12,28.92,14.5,46.06,14.5s33-5.39,46.06-14.5v57.14c13.06,9.12,28.92,14.5,46.06,14.5s33-5.39,46.06-14.5c13.06,9.12,28.92,14.5,46.06,14.5s33-5.39,46.06-14.5v-57.14c13.06,9.12,28.92,14.5,46.06,14.5s33-5.39,46.06-14.5c13.06,9.12,28.92,14.5,46.06,14.5,11.09,0,21.63-2.29,31.23-6.36-10.33,30.05-25.68,57.75-45.06,82.12Zm13.84-102.74c-17.14,0-33-5.39-46.06-14.5-13.06,9.12-28.92,14.5-46.06,14.5s-33-5.39-46.06-14.5c-13.06,9.12-28.92,14.5-46.06,14.5s-33-5.39-46.06-14.5c-13.06,9.12-28.92,14.5-46.06,14.5s-33-5.39-46.06-14.5c-13.06,9.12-28.92,14.5-46.06,14.5s-33-5.39-46.06-14.5c-13.06,9.12-28.92,14.5-46.06,14.5-14.6,0-28.22-3.98-40-10.79-4.06-18.86-6.26-38.42-6.26-58.5,0-6.24,.28-12.41,.69-18.55,12.96,8.91,28.65,14.14,45.57,14.14s33-5.39,46.06-14.5c13.06,9.12,28.92,14.5,46.06,14.5s33-5.39,46.06-14.5v53.96c13.06,9.12,28.92,14.5,46.06,14.5s33-5.39,46.06-14.5c13.06,9.12,28.92,14.5,46.06,14.5s33-5.39,46.06-14.5v-53.96c13.06,9.12,28.92,14.5,46.06,14.5s33-5.39,46.06-14.5c13.06,9.12,28.92,14.5,46.06,14.5s32.6-5.23,45.57-14.14c.41,6.14,.69,12.31,.69,18.55,0,20.08-2.19,39.64-6.26,58.5-11.78,6.81-25.4,10.79-40,10.79Z"></path>   <circle cx="303.1" cy="146.65" r="96.2"></circle> </svg>