<svg data-name="Layer 1" xmlns="http://www.w3.org/2000/svg" viewBox="0 0 560.59 584.41"><path d="m560.46 317.36-45.98-46.3c-.3-.31-.45-.72-.5-1.15C489.84 77.33 307.56 47.28 269.38 54.4l35.78-35.43c.3-.3.46-.7.46-1.12L305.44.81a.8.8 0 0 0-1.37-.57C295.57 8.93 247 56.47 247 56.47s-67.92 2.41-133.37 64.29c-22.98 21.73-28.25 39.08-28.25 45.65 0 2.37.3 4.02.57 5.21.23.99-.51 1.93-1.53 1.94l-28.26.31c-.9 0-1.63.74-1.63 1.64v10.21c0 .83.68 1.5 1.51 1.49l38.43-.42c31.53-.34 45.62-8.68 49.7-11.7.56-.41 1.33 0 1.34.69l.11 10.08c0 .56-.26 1.09-.72 1.41-13.38 9.19-35.22 11.52-52.22 11.52l-37 .66c-.65 0-1.16.54-1.16 1.19v11.12c0 .72.57 1.31 1.3 1.3 4.79-.08 21.74-.36 31.33-.33 11.26.04 111.62-.33 111.62-.33l50.71 49.81c.75.74 2.02.2 2.02-.85-.03-4.14-.14-11.89-.17-14.67 0-.66-.28-1.28-.76-1.74l-33.39-32.53 184.35-.01c97.07 0 97.95 52.83 98.13 58.44 0 .3-.1.58-.31.79l-45.63 45.29c-.44.43-.13 1.17.48 1.17h18.21c.38 0 .74-.15 1.01-.42 3.5-3.58 28.59-29.21 33-33.65a.92.92 0 0 1 1.31.01l32.38 33.44c.39.4.92.63 1.48.63h18.56c.39 0 .58-.47.31-.74ZM165.91 179.1c-4.66 0-8.43-3.78-8.43-8.43s3.78-8.43 8.43-8.43 8.43 3.78 8.43 8.43-3.78 8.43-8.43 8.43ZM504.76 371.34c-4.79.08-21.74.36-31.33.33-11.26-.04-111.62.33-111.62.33l-50.71-49.81c-.75-.74-2.02-.2-2.02.85.03 4.14.13 11.89.17 14.67 0 .66.28 1.28.76 1.74l33.39 32.53-184.35.01c-97.07 0-97.95-52.83-98.13-58.44 0-.3.1-.58.31-.79l45.63-45.29c.44-.43.13-1.17-.48-1.17H88.17c-.38 0-.74.15-1.01.42-3.5 3.58-28.59 29.21-33 33.65a.92.92 0 0 1-1.31-.01l-32.38-33.44c-.39-.4-.92-.63-1.48-.63H.44c-.39 0-.58.47-.31.74l45.98 46.3c.3.31.45.72.5 1.15 24.14 192.58 206.42 222.63 244.6 215.51l-35.78 35.43c-.3.3-.46.7-.46 1.12l.18 17.04a.8.8 0 0 0 1.37.57c8.5-8.69 57.07-56.23 57.07-56.23s67.92-2.41 133.37-64.29c22.98-21.73 28.25-39.08 28.25-45.65 0-2.28-.3-4.02-.57-5.21-.23-.99.51-1.93 1.53-1.94l28.26-.31c.9-.01 1.63-.74 1.63-1.64v-10.21c0-.83-.68-1.5-1.51-1.49l-38.43.42c-31.53.34-45.62 8.68-49.7 11.7-.56.41-1.33 0-1.34-.69l-.11-10.08c0-.56.26-1.09.72-1.41 13.38-9.19 35.22-11.52 52.22-11.52l37-.66c.65 0 1.16-.54 1.16-1.19v-11.12c0-.72-.57-1.31-1.3-1.3Zm-110.09 50.83c-4.66 0-8.43-3.78-8.43-8.43s3.78-8.43 8.43-8.43 8.43 3.78 8.43 8.43-3.78 8.43-8.43 8.43Z"></path></svg>