<svg xmlns="http://www.w3.org/2000/svg" width="577.1" viewBox="0 0 577.1 618.4" height="618.4"><path d="M511.8 471.5c40.9-49.8 65.4-113.5 65.4-182.9C577.1 129.2 447.9 0 288.6 0 129.2 0 0 129.2 0 288.6s129.2 288.6 288.6 288.6c41.9 0 81.6-9 117.5-25l29.2 39c13 17.8 33.3 27.3 53.8 27.3 13.6 0 27.3-4.1 39.1-12.8 14.3-10.4 23.7-25.9 26.4-43.5 2.7-17.6-1.5-35.2-11.9-49.4l-30.9-41.3zM269.5 347.3c-8.5-11.7-12-26-9.7-40.4 2.2-14.4 9.9-27 21.6-35.5 9.6-7 20.9-10.4 32-10.4 16.8 0 33.3 7.7 44 22.3L433 386.5l-84.9 66.1-78.6-105.3zm-124.7-58.7c0-79.4 64.3-143.7 143.7-143.7 79.4 0 143.7 64.3 143.7 143.7 0 21.2-4.7 41.2-12.9 59.3L365.6 276c-10.4-14.3-25.9-23.6-43.4-26.4-17.6-2.7-35.2 1.5-49.4 11.9-14.3 10.4-23.7 25.9-26.4 43.5-2.7 17.6 1.5 35.2 12 49.5l56.3 75.4c-8.5 1.6-17.1 2.5-26.1 2.5-79.4-.1-143.8-64.5-143.8-143.8z"></path></svg>