<svg xmlns="http://www.w3.org/2000/svg" width="611.4" viewBox="0 0 611.4 331.8" height="331.8" xml:space="preserve" style="enable-background:new 0 0 611.4 331.8"><path d="M610.6 112.4H322.9C300.7 47 238.8 0 165.9 0 74.3 0 0 74.3 0 165.9c0 91.6 74.3 165.9 165.9 165.9 71.6 0 132.6-45.3 155.8-108.9h120.9c.4 0 .8-.3.8-.8V188c0-.8 1-1.1 1.4-.4l21.1 36.4c.4.7 1.4.4 1.4-.4v-35.5c0-.8 1.1-1.1 1.4-.4l20 36.2c.4.7 1.4.4 1.4-.4l1-35.8c0-.8 1-1 1.4-.4l21.2 36.5c.4.7 1.4.4 1.4-.4v-35.6c0-.8 1-1.1 1.4-.4l21.1 36.4c.4.7 1.4.4 1.4-.4v-35.6c0-.8 1-1.1 1.4-.4l21.1 36.4c.4.7 1.4.4 1.4-.4v-35.6c0-.8 1-1.1 1.4-.4l21.1 36.4c.4.7 1.4.4 1.4-.4v-35.6c0-.8 1-1.1 1.4-.4l21.1 36.4c.4.7 1.4.4 1.4-.4V113.1c.7-.4.3-.7-.1-.7zM165.9 234.6c-38 0-68.8-30.8-68.8-68.8S127.9 97 165.9 97s68.8 30.8 68.8 68.8c-.1 38.1-30.8 68.8-68.8 68.8z"></path></svg>