<svg xmlns="http://www.w3.org/2000/svg" width="622.5" viewBox="0 0 622.5 604.5" height="604.5"><path d="M449.7 159.1c15 34.5 56.1 49.9 91.8 34.4 18.5-7.9 32.8-23.4 39.3-42.5-20.2-33.8-46.8-63.5-78.3-87.2-5.3 1-10.5 2.6-15.4 4.7-35.7 15.5-52.4 56.1-37.4 90.6zM172.5 67.5c22.9-9.9 37.9-30.2 41.8-52.5-35.9 11.4-69.5 29.2-99.1 52.5 18.3 8 39 8 57.3 0zm-46 412.9c-18.6.2-36.4 7.7-49.6 20.9 31.2 34.5 69.7 61.6 112.7 79.3 5.6-10.1 8.5-21.5 8.3-33.1-.5-37.6-32.4-67.7-71.4-67.1zm485.7-255.5c-12.7 12.6-27.6 22.7-44 29.9-70.6 30.8-152 .3-181.8-68.1-25.4-58.4-4.9-125.6 45.7-163.1C393.7 8 352.7-.1 311.2 0 302 0 293 .4 284 1.2c.2 53.1-31.7 104.4-84.9 127.6-45.9 20-96.4 14.1-134.2-11.3C24.2 168.6 0 232.7 0 302.3c0 50.2 12.8 99.7 37.3 143.5 23.8-19.7 54.5-31.7 88.3-32.2 77-1.1 140.4 58.4 141.5 132.9.3 18.3-3.3 36.5-10.5 53.4 44.7 7.7 90.6 5.8 134.6-5.4-40.9-23.2-67.1-64.9-70.1-110l70.3 7.1c5.4 23.8 23.7 44.2 49.4 51.8 37.3 10.9 76.2-9.4 86.8-45.6 10.6-36.1-11.1-74.3-48.4-85.3-32.4-9.5-66 4.7-81.2 32.2l-69.9-12c23.4-67.8 98.1-105.4 169.9-84.3 45 13.2 78.5 46.4 93.1 86.5 32.6-65 40.1-139.8 21.1-210zM235.5 412.5c-77 0-139.5-60.4-139.5-135s62.5-135 139.5-135c60.6 0 112.1 37.4 131.4 89.6L297.5 245c-11.9-21.3-35.2-35.7-62-35.7-38.9 0-70.4 30.5-70.4 68.2s31.5 68.2 70.4 68.2c33.8 0 62-23 68.8-53.8l70.5-8.1c-3.4 71.6-64.4 128.7-139.3 128.7z"></path></svg>