<svg data-name="Layer 1" xmlns="http://www.w3.org/2000/svg" viewBox="0 0 609.92 609.92"><path d="M304.96 0c-57.55 0-111.38 15.94-157.32 43.66h314.62C416.34 15.94 362.51 0 304.96 0ZM411.02 102.28h-63.85c5.9 6.02 11.23 12.62 15.88 19.69h185.88a302.23 302.23 0 0 0-16.11-19.69 299.892 299.892 0 0 0-27.78-27.45H386.76c9.31 7.95 17.49 17.18 24.25 27.45ZM161.02 102.28h32.36c6.76-10.27 14.94-19.5 24.25-27.45H104.87c-9.83 8.54-19.1 17.72-27.76 27.45A298.993 298.993 0 0 0 61 121.97h84.14c4.66-7.07 9.98-13.68 15.88-19.69ZM127.15 163.93h45.13c.77-10.23 2.72-20.11 5.73-29.52H52.13c-6.4 9.46-12.3 19.33-17.61 29.52-3.03 5.77-5.86 11.63-8.51 17.61h98.34c.54-6 1.48-11.88 2.8-17.61ZM432.11 163.93h-51.07c1.32 5.73 2.26 11.61 2.8 17.61h200.08a288.23 288.23 0 0 0-8.51-17.61 300.874 300.874 0 0 0-17.61-29.52H426.38c3.01 9.41 4.96 19.29 5.73 29.52ZM422.66 223.7h-41.8c-1.42 5.98-3.26 11.78-5.46 17.41h227.84c-1.26-5.88-2.68-11.69-4.25-17.41-2.72-9.85-5.92-19.5-9.58-28.91H430.83a129.597 129.597 0 0 1-8.16 28.91ZM127.32 223.7h54.41c-3.77-9.16-6.55-18.83-8.16-28.91H20.52c-3.66 9.41-6.86 19.06-9.58 28.91-1.57 5.73-2.99 11.53-4.25 17.41h126.09a131.33 131.33 0 0 1-5.46-17.41ZM161.07 284.69h72.45a130.56 130.56 0 0 1-33.98-30.5H4.21a305.578 305.578 0 0 0-3.56 30.5c-.42 6.46-.63 12.99-.65 19.56h185.52a129.34 129.34 0 0 1-24.44-19.56ZM370.88 284.69h-23.77a130.812 130.812 0 0 1-21 17.38h-.02c-1.11.75-2.26 1.48-3.41 2.18h287.24c-.02-6.57-.23-13.1-.65-19.56-.69-10.33-1.88-20.48-3.56-30.5H404.85a130.535 130.535 0 0 1-33.97 30.5ZM26.61 429.72c47.68 106.23 154.37 180.21 278.36 180.21 164.44 0 298.51-130.17 304.73-293.12H100.08c-58.11 0-97.27 59.9-73.47 112.91Z"></path></svg>