<svg data-name="Layer 1" xmlns="http://www.w3.org/2000/svg" viewBox="0 0 599 599"><path d="M237.38 158.24h-5.62c-39.29 0-71.49 30.98-73.43 69.8h69.71l71.47 71.46v-79.13l-62.12-62.13Z"></path><path d="m220.76 79.5 78.74 78.74V79.11L220.63.24C99.01 5.98 1.93 105.46 0 228.04h79.15c1.89-78.78 63.77-142.97 141.61-148.53ZM598.76 220.38C592.89 98.88 493.46 1.93 370.97 0v228.04l-71.46 71.47h220.4l78.86-79.12Z"></path><path d="M361.62 440.76h5.62c39.29 0 71.49-30.98 73.43-69.8h-69.71L299.5 299.5v79.13l62.12 62.13Z"></path><path d="M519.85 370.97c-1.89 78.78-63.77 142.97-141.61 148.53l-78.74-78.74v79.13l78.87 78.87c121.62-5.75 218.7-105.22 220.63-227.8h-79.15ZM79.1 299.5.24 378.62C6.11 500.12 105.54 597.07 228.03 599V370.96l71.47-71.46H79.1Z"></path></svg>