<svg data-name="Layer 1" xmlns="http://www.w3.org/2000/svg" viewBox="0 0 512.09 588.4"><path d="M296.37 517.63c3.63.3 7.26.59 10.87.96V351.62c1.84.14 3.67.33 5.5.49V174.47c1.77.12 3.52.29 5.28.42V3.49c-10.72-1.22-21.54-2.13-32.44-2.7v172.4c1.76.06 3.53.06 5.28.13v176.42h5.5v167.88ZM194.05 3.85V175.1c1.77-.13 3.52-.31 5.28-.44v177.72c1.84-.16 3.66-.37 5.5-.51v166.72c3.61-.38 7.24-.66 10.87-.96V349.75h5.5V173.44c1.76-.08 3.53-.09 5.28-.15V.95c-10.91.63-21.72 1.61-32.44 2.9ZM331.35 5.18v170.77c1.76.15 3.53.25 5.28.42v178.17c1.83.22 3.68.4 5.5.64V523.5c3.65.65 7.25 1.4 10.87 2.13V356.7c1.84.27 3.67.59 5.5.88V178.72c1.77.21 3.52.49 5.28.71V10.75c-10.7-2.19-21.52-4.04-32.44-5.57ZM169.95 523.5V355.6c1.83-.24 3.67-.43 5.5-.66v-178.3c1.75-.17 3.53-.28 5.28-.44V5.62c-10.93 1.6-21.74 3.52-32.44 5.77V179.8c1.77-.23 3.51-.51 5.28-.74v178.97c1.84-.29 3.66-.63 5.5-.91v168.51c3.62-.73 7.23-1.48 10.87-2.13ZM377.12 13.62v167.6c1.76.25 3.53.45 5.28.71v179.78c1.83.35 3.68.66 5.5 1.03V534c44.24 12.4 85.96 30.82 124.18 54.4V65.2c-41.86-23.02-87.18-40.52-134.97-51.58ZM261.48 349.8v-.05h5.5V172.73c1.77.02 3.52.1 5.28.13V.24C267.37.11 262.47 0 257.55 0c-5.93 0-11.84.1-17.73.3v172.61c1.76-.04 3.52-.12 5.28-.15v176.99h5.5v166.26c1.81-.02 3.62-.1 5.44-.1s3.62.08 5.44.1V349.8ZM124.18 363.37c1.83-.38 3.67-.7 5.5-1.06V182.39c1.75-.27 3.53-.48 5.28-.74V14.37C87.15 25.74 41.83 43.58 0 66.93V588.4c38.22-23.58 79.94-42 124.18-54.4V363.36Z"></path></svg>