<svg data-name="Layer 1" xmlns="http://www.w3.org/2000/svg" viewBox="0 0 617.45 617.45"><path d="M389.72 0v434.4c0 5.52-8.17 5.86-8.62.35L345.79 0H0v617.45h227.73V156.57c0-4.15 6.14-4.4 6.47-.26l37.46 461.14h345.79V0H389.72ZM85 559.15c-.1 3.73-.4 8.24-2.54 11.4-2.03 3-5.47 4.99-9.35 4.99H49.22c-3.88 0-7.32-1.98-9.35-4.99-2.2-3.25-2.64-7.44-2.54-11.27.1-3.73.4-8.24 2.54-11.4 2.03-3 5.47-4.99 9.35-4.99h23.89c3.88 0 7.32 1.98 9.35 4.99 2.2 3.25 2.64 7.44 2.54 11.27Zm0-83.3c-.1 3.73-.4 8.24-2.54 11.4-2.03 3-5.47 4.99-9.35 4.99H49.22c-3.88 0-7.32-1.98-9.35-4.99-2.2-3.25-2.64-7.44-2.54-11.27.1-3.73.4-8.24 2.54-11.4 2.03-3 5.47-4.99 9.35-4.99h23.89c3.88 0 7.32 1.98 9.35 4.99 2.2 3.25 2.64 7.44 2.54 11.27Zm0-83.3c-.1 3.73-.4 8.24-2.54 11.4-2.03 3-5.47 4.99-9.35 4.99H49.22c-3.88 0-7.32-1.98-9.35-4.99-2.2-3.25-2.64-7.44-2.54-11.27.1-3.73.4-8.24 2.54-11.4 2.03-3 5.47-4.99 9.35-4.99h23.89c3.88 0 7.32 1.98 9.35 4.99 2.2 3.25 2.64 7.44 2.54 11.27Zm0-83.3c-.1 3.73-.4 8.24-2.54 11.4-2.03 3-5.47 4.99-9.35 4.99H49.22c-3.88 0-7.32-1.98-9.35-4.99-2.2-3.25-2.64-7.44-2.54-11.27.1-3.73.4-8.24 2.54-11.4 2.03-3 5.47-4.99 9.35-4.99h23.89c3.88 0 7.32 1.98 9.35 4.99 2.2 3.25 2.64 7.44 2.54 11.27Zm0-83.3c-.1 3.73-.4 8.24-2.54 11.4-2.03 3-5.47 4.99-9.35 4.99H49.22c-3.88 0-7.32-1.98-9.35-4.99-2.2-3.25-2.64-7.44-2.54-11.27.1-3.73.4-8.24 2.54-11.4 2.03-3 5.47-4.99 9.35-4.99h23.89c3.88 0 7.32 1.98 9.35 4.99 2.2 3.25 2.64 7.44 2.54 11.27Zm0-83.3c-.1 3.73-.4 8.24-2.54 11.4-2.03 3-5.47 4.99-9.35 4.99H49.22c-3.88 0-7.32-1.98-9.35-4.99-2.2-3.25-2.64-7.44-2.54-11.27.1-3.73.4-8.24 2.54-11.4 2.03-3 5.47-4.99 9.35-4.99h23.89c3.88 0 7.32 1.98 9.35 4.99 2.2 3.25 2.64 7.44 2.54 11.27Zm0-83.3c-.1 3.73-.4 8.24-2.54 11.4-2.03 3-5.47 4.99-9.35 4.99H49.22c-3.88 0-7.32-1.98-9.35-4.99-2.2-3.25-2.64-7.44-2.54-11.27.1-3.73.4-8.24 2.54-11.4 2.03-3 5.47-4.99 9.35-4.99h23.89c3.88 0 7.32 1.98 9.35 4.99 2.2 3.25 2.64 7.44 2.54 11.27Zm495.12 499.78c-.1 3.73-.4 8.24-2.54 11.4-2.03 3-5.47 4.99-9.35 4.99h-23.89c-3.88 0-7.32-1.98-9.35-4.99-2.2-3.25-2.64-7.44-2.54-11.27.1-3.73.4-8.24 2.54-11.4 2.03-3 5.47-4.99 9.35-4.99h23.89c3.88 0 7.32 1.98 9.35 4.99 2.2 3.25 2.64 7.44 2.54 11.27Zm0-83.3c-.1 3.73-.4 8.24-2.54 11.4-2.03 3-5.47 4.99-9.35 4.99h-23.89c-3.88 0-7.32-1.98-9.35-4.99-2.2-3.25-2.64-7.44-2.54-11.27.1-3.73.4-8.24 2.54-11.4 2.03-3 5.47-4.99 9.35-4.99h23.89c3.88 0 7.32 1.98 9.35 4.99 2.2 3.25 2.64 7.44 2.54 11.27Zm0-83.3c-.1 3.73-.4 8.24-2.54 11.4-2.03 3-5.47 4.99-9.35 4.99h-23.89c-3.88 0-7.32-1.98-9.35-4.99-2.2-3.25-2.64-7.44-2.54-11.27.1-3.73.4-8.24 2.54-11.4 2.03-3 5.47-4.99 9.35-4.99h23.89c3.88 0 7.32 1.98 9.35 4.99 2.2 3.25 2.64 7.44 2.54 11.27Zm0-83.3c-.1 3.73-.4 8.24-2.54 11.4-2.03 3-5.47 4.99-9.35 4.99h-23.89c-3.88 0-7.32-1.98-9.35-4.99-2.2-3.25-2.64-7.44-2.54-11.27.1-3.73.4-8.24 2.54-11.4 2.03-3 5.47-4.99 9.35-4.99h23.89c3.88 0 7.32 1.98 9.35 4.99 2.2 3.25 2.64 7.44 2.54 11.27Zm0-83.3c-.1 3.73-.4 8.24-2.54 11.4-2.03 3-5.47 4.99-9.35 4.99h-23.89c-3.88 0-7.32-1.98-9.35-4.99-2.2-3.25-2.64-7.44-2.54-11.27.1-3.73.4-8.24 2.54-11.4 2.03-3 5.47-4.99 9.35-4.99h23.89c3.88 0 7.32 1.98 9.35 4.99 2.2 3.25 2.64 7.44 2.54 11.27Zm0-83.3c-.1 3.73-.4 8.24-2.54 11.4-2.03 3-5.47 4.99-9.35 4.99h-23.89c-3.88 0-7.32-1.98-9.35-4.99-2.2-3.25-2.64-7.44-2.54-11.27.1-3.73.4-8.24 2.54-11.4 2.03-3 5.47-4.99 9.35-4.99h23.89c3.88 0 7.32 1.98 9.35 4.99 2.2 3.25 2.64 7.44 2.54 11.27Zm0-83.3c-.1 3.73-.4 8.24-2.54 11.4-2.03 3-5.47 4.99-9.35 4.99h-23.89c-3.88 0-7.32-1.98-9.35-4.99-2.2-3.25-2.64-7.44-2.54-11.27.1-3.73.4-8.24 2.54-11.4 2.03-3 5.47-4.99 9.35-4.99h23.89c3.88 0 7.32 1.98 9.35 4.99 2.2 3.25 2.64 7.44 2.54 11.27Z"></path></svg>