<svg xmlns="http://www.w3.org/2000/svg" width="616.3" viewBox="0 0 616.3 619" height="619" xml:space="preserve" style="enable-background:new 0 0 616.3 619"><path d="M438.7 31.7c11.9 21.4 18.7 46 18.7 72.2 0 82.4-67 149.4-149.4 149.4s-149.4-67-149.4-149.4c0-26.1 6.7-50.6 18.5-71.9C72.4 81.2 0 187.6 0 310.8c0 9.7.5 19.4 1.4 28.9 25.7-45.2 74.3-75.8 129.9-75.8 82.4 0 149.4 67 149.4 149.4s-67 149.4-149.4 149.4h-.7C180.8 598.2 242 619 308.2 619c66.1 0 127.4-20.8 177.5-56.3h-.7c-82.4 0-149.4-67-149.4-149.4s67-149.4 149.4-149.4c55.6 0 104.2 30.6 129.9 75.8.9-9.5 1.3-19.2 1.3-28.9.1-123.5-72.6-230-177.5-279.1z"></path><circle cx="308.2" cy="103.8" r="103.8"></circle><circle cx="485" cy="413.3" r="103.8"></circle><circle cx="131.3" cy="413.3" r="103.8"></circle></svg>