<svg xmlns="http://www.w3.org/2000/svg" width="593" viewBox="0 0 593 594.2" height="594.2"><path d="M273.1 241.3c4.4-1.8 9.1-3.1 14-3.9l42.3-119.6L235.9 0h-79.5l137.7 115.7-21 125.6z"></path><path d="M295.2 236.8h.7c4.8 0 9.5.6 14.1 1.7l83.9-93.4-40-139.4C335.2 2 315.8 0 295.9 0h-1.4L362 129.7l-66.8 107.1zM295.2 236.8c-3.5 0 .2 0 0 0z"></path><path d="M318.1 241c4.7 1.9 9.2 4.4 13.2 7.4l111.6-53.5 16.6-145.8c-16.6-11-34.4-20.3-53.1-27.8l13 147.3L318.1 241z"></path><path d="M338.1 254.2c3.6 3.6 6.8 7.7 9.4 12.2l121.9-6.7 71.9-130.1c-11.4-16.6-24.4-32-38.9-46l-44.7 142.8-119.6 27.8z"></path><path d="M351.5 274.8c1.9 4.8 3.1 9.8 3.7 15L469 329.6l117.7-94c-4.2-20.1-10.5-39.4-18.5-57.7L471 294.4l-119.5-19.6z"></path><path d="M592.9 291l-135.7 71.3-101.7-63c-.3 5.3-1.2 10.4-2.7 15.3l89.2 79.6 146-42.4c3.3-17.7 5-36 5-54.7 0-2 0-4-.1-6.1z"></path><path d="M349.1 323.5c-2.3 4.6-5.3 8.9-8.7 12.7l51.9 107.3 152 16.7c11.2-17 20.7-35.3 28.3-54.5l-154 14.2-69.5-96.4z"></path><path d="M333.5 342.8c-3.9 3.2-8.3 5.9-12.9 8l7 119.3 134.2 73.6c17.1-11.5 32.9-24.8 47.2-39.5l-148.1-45.8-27.4-115.6z"></path><path d="M311.8 354c-4.7 1.3-9.7 2-14.8 2.1L257.6 470l95.5 118.8c20.5-4 40.2-10.1 59-18.1l-119.3-98.8 19-117.9z"></path><path d="M288 355.6c-4.9-.7-9.7-1.9-14.2-3.7L193 443.1l44.4 151.1h59.5l-72-135.9L288 355.6z"></path><path d="M266 348.1c-4.2-2.4-8-5.3-11.5-8.6l-111 54.2-21.4 200.6h61.7l-16.7-174.4 98.9-71.8z"></path><path d="M249 333.3c-2.9-3.7-5.4-7.7-7.4-12.1L116.7 329 0 543.7v50.6h49.4l79.1-231.9L249 333.3z"></path><path d="M238.8 313.8c-1.3-4.4-2.2-9-2.5-13.8l-119.7-41L0 353.5v80.4l114.8-139.6 124 19.5z"></path><path d="M236.4 292.3c.3-4.7 1.2-9.3 2.6-13.7l-95.7-84.2L0 235.9v58.8l128.1-68.4 108.3 66z"></path><path d="M241.7 271.5c2-4.3 4.4-8.3 7.3-11.9l-56.5-114.8L0 124.9V185l166.3-16.5 75.4 103z"></path><path d="M254.1 253.8c3.4-3.3 7.2-6.2 11.3-8.7L257 117.7 49.4 0H0v62.1l223.8 67.5 30.3 124.2z"></path></svg>