<svg xmlns="http://www.w3.org/2000/svg" width="630.9" viewBox="0 0 630.9 627.9" height="627.9" xml:space="preserve" style="enable-background:new 0 0 630.9 627.9"><path d="M357.8 0v104c.4.1.7.2 1.1.3v3c40.2 16.6 68.5 56.2 68.5 102.4 0 61.2-49.6 110.8-110.8 110.8-38 0-71.6-19.2-91.5-48.3v233c-72.3-34-122.4-107.4-122.4-192.6 0-103 73.2-188.9 170.4-208.5V0C118.9 20.7 0 152.7 0 312.5c0 174.2 141.2 315.4 315.4 315.4s315.4-141.2 315.4-315.4c.1-159.8-118.9-291.8-273-312.5zm-27.9 524.7V418.1c93.7-5.9 170.6-73.6 190.5-162.8 5.1 18.2 7.8 37.4 7.8 57.2 0 112.7-87.6 204.8-198.3 212.2z"></path></svg>