<svg xmlns="http://www.w3.org/2000/svg" width="616.8" viewBox="0 0 616.8 616.8" height="616.8" xml:space="preserve"><path d="M376.6 68.2c0 37.7-30.5 68.2-68.2 68.2-37.6 0-68.2-30.5-68.2-68.2 0-37.6 30.5-68.2 68.2-68.2s68.2 30.5 68.2 68.2z"></path><path d="M308.4 425.5c63.9 0 115.7-51.8 115.7-115.7V22.5c-11.9-4.8-22.8-8.8-35.3-12.1v326.7c0 43.9-35.6 79.5-79.5 79.5h-1.6c-43.9 0-79.5-35.6-79.5-79.5V10.4c-12.6 3.3-23.5 7.2-35.3 12v287.4c-.1 63.9 51.6 115.7 115.5 115.7z"></path><path d="M306 474.3h4.8c89.2 0 161.4-72.3 161.4-161.4V47.1c-11.8-7.4-24.1-14.1-36.9-19.9v311.3c0 70.1-56.8 126.9-126.9 126.9s-126.9-56.8-126.9-126.9V27.2c-12.8 5.8-25.1 12.5-36.9 19.9v265.8c0 89.1 72.2 161.4 161.4 161.4z"></path><path d="M308.4 516.7c117.1 0 212-94.9 212-212V84.4c-11.5-10.9-23.9-20.9-36.9-29.9v278.3c0 96.7-78.4 175.1-175.1 175.1s-175.1-78.4-175.1-175.1V54.5c-13.1 9-25.4 19.1-36.9 30v220.2c0 117.1 94.9 212 212 212z"></path><path d="M306.6 567.6h3.5c139 0 252.3-110 257.6-247.6V141.5c-10.6-16.4-22.7-31.8-36.1-45.9v242.5c0 121.6-101.5 220.2-223.1 220.2h-.4C186.5 558.3 85 459.7 85 338.1V95.7c-13.4 14.1-25.5 29.4-36.1 45.9V320c5.5 137.7 118.8 247.6 257.7 247.6z"></path><path d="M579.8 335.6c0 149.9-121.5 271.4-271.4 271.4C158.5 607 37 485.5 37 335.6V161.9C13.4 205.5 0 255.4 0 308.4c0 170.3 138.1 308.4 308.4 308.4s308.4-138.1 308.4-308.4c0-53-13.4-102.9-36.9-146.5l-.1 173.7z"></path></svg>