<svg xmlns="http://www.w3.org/2000/svg" width="642" viewBox="0 0 642 642" height="642" data-name="Layer 1"><path d="M0 321 321 0l321 321-27.24 27.24L321 54.47 27.24 348.24 0 321z"></path><path d="M40.86 361.86 321 81.71l280.14 280.15-27.23 27.23L321 136.19 68.09 389.09l-27.23-27.23z"></path><path d="M81.71 402.71 321 163.43l239.29 239.28-27.24 27.24L321 217.9 108.95 429.95l-27.24-27.24z"></path><path d="M122.57 443.57 321 245.14l198.43 198.43-27.24 27.24L321 299.61l-171.19 171.2-27.24-27.24z"></path><path d="M163.43 484.43 321 326.86l157.57 157.57L321 642 163.43 484.43ZM321 587.53l103.1-103.1L321 381.33l-103.1 103.1L321 587.53Z"></path></svg>