<svg xmlns="http://www.w3.org/2000/svg" width="634.2" viewBox="0 0 634.2 609.6" height="609.6" xml:space="preserve" style="enable-background:new 0 0 634.2 609.6"><path d="M540.1 361.8c8.7 4.4 18.6 6.8 29 6.8 35.9 0 65.1-29.1 65.1-65.1 0-35.9-29.1-65.1-65.1-65.1-10.7 0-20.7 2.6-29.6 7.1 5 18.9 7.7 38.7 7.7 59.2.1 19.8-2.4 38.9-7.1 57.1zM465.4 480.8c4.6 8.6 11.2 16.4 19.7 22.5 29.2 20.9 69.9 14.1 90.8-15.1 20.9-29.2 14.1-69.9-15.1-90.8-8.7-6.2-18.3-9.9-28.2-11.4-14.1 37.1-37.4 69.7-67.2 94.8zM335.9 564.1c11.3 34.1 48.2 52.6 82.3 41.2 34.1-11.3 52.6-48.2 41.2-82.3-3.4-10.1-9-18.9-16.1-25.9-32 21-69.6 34.3-110.1 37.1-1.3 9.9-.5 20 2.7 29.9zM177.3 524c-11.3 34.1 7.2 70.9 41.3 82.2 34.1 11.3 70.9-7.2 82.2-41.3 3.4-10.1 4.1-20.5 2.5-30.4-40.5-2.4-78.2-15.2-110.5-35.9-6.8 7-12.2 15.5-15.5 25.4zM102.6 388.5c-9.6 1.6-19.1 5.3-27.6 11.4-29.2 20.9-35.9 61.6-14.9 90.8 20.9 29.2 61.6 35.9 90.8 14.9 8.7-6.2 15.3-14.2 19.9-23.1-30-24.8-53.7-57.1-68.2-94zM94.3 247.1c-8.7-4.4-18.6-6.9-29-6.9C29.3 240.1.1 269.1 0 305c-.1 35.9 28.9 65.2 64.9 65.3 10.7 0 20.7-2.5 29.6-7-4.9-18.7-7.5-38.3-7.5-58.5 0-19.9 2.5-39.3 7.3-57.7zM170.7 127.2c-4.5-8.7-11-16.5-19.4-22.7-29-21.2-69.7-14.9-90.9 14.2-21.2 29-14.9 69.7 14.2 90.9 8.6 6.3 18.2 10.1 28.1 11.7 14.2-36.9 37.9-69.2 68-94.1zM301.2 45.3c-10.9-34.2-47.5-53.1-81.8-42.2-34.2 10.9-53.1 47.5-42.2 81.8 3.2 10.2 8.8 18.9 15.8 26 32.2-20.7 69.9-33.5 110.5-35.8 1.6-9.7.9-19.9-2.3-29.8zM457.6 86c11.4-34.1-7-70.9-41.1-82.3-34.1-11.4-70.9 7-82.3 41.1-3.4 10.1-4.1 20.5-2.6 30.4 40.5 2.5 78.2 15.5 110.3 36.3 6.9-7 12.4-15.6 15.7-25.5zM531.6 221.3c9.6-1.5 19.1-5.3 27.6-11.3 29.2-20.9 35.9-61.6 15-90.8-20.9-29.2-61.6-35.9-90.8-15-8.7 6.2-15.4 14.2-19.9 23 30.1 24.8 53.7 57.1 68.1 94.1z"></path></svg>