<svg xmlns="http://www.w3.org/2000/svg" width="615.5" viewBox="0 0 615.5 615.5" height="615.5" xml:space="preserve"><path d="M191.4 424.1v92l99.4 99.4h203.6V441.6h-52.8v121.1H310.5l-66.4-66.3.1-.1V371H123.5V264.8l-53.2 52.8v106.5z"></path><path d="M424.1 424.1h92l99.4-99.4V121.1H441.6v52.8h121.1v131.2l-66.3 66.3-.1-.1H371V492H264.8l52.8 53.2h106.5z"></path><path d="M424.1 191.4V99.5L324.7 0H121.1v173.9h52.8V52.8h131.2l66.3 66.4h-.1v125.3H492v106.2l53.2-52.8V191.4z"></path><path d="M191.4 191.4H99.5L0 290.8v203.6h173.9v-52.8H52.8V310.5l66.4-66.4v.1h125.3V123.5h106.2l-52.8-53.2H191.4z"></path></svg>