<svg data-name="Layer 1" xmlns="http://www.w3.org/2000/svg" viewBox="0 0 580.69 508.77"><path d="M546.62 0c-18.81 0-34.07 15.25-34.07 34.07v76.09H360.41V34.07C360.41 15.26 345.16 0 326.34 0h-71.97c-8.72 0-17.44 3.33-24.09 9.98L68.13 172.14V34.16C68.13 15.34 52.88.09 34.07.09S0 15.34 0 34.16v220.27c.01 8.7 3.33 17.4 9.97 24.05l86.07 86.07-86.06 86.06c-13.3 13.31-13.3 34.87 0 48.18 6.65 6.65 15.37 9.98 24.09 9.98s17.44-3.33 24.09-9.98l86.07-86.07 86.07 86.07c6.65 6.65 15.37 9.98 24.09 9.98h71.97c18.81 0 34.07-15.25 34.07-34.07v-76.07h152.14v76.07c0 18.81 15.25 34.07 34.07 34.07s34.07-15.25 34.07-34.07V34.07C580.71 15.26 565.46 0 546.64 0ZM268.5 68.13h23.79v152.19H268.5l-76.09-76.09 76.09-76.09ZM82.25 254.38l61.98-61.98 61.98 61.98-61.98 61.98-61.98-61.98Zm110.16 110.16 76.09-76.09h23.79v152.19H268.5l-76.1-76.1Zm168.01-34.04V178.29h152.14V330.5H360.42Z"></path></svg>