<svg id="Layer_1" data-name="Layer 1" xmlns="http://www.w3.org/2000/svg" viewBox="0 0 558.41 594.32">   <path d="M487.05,15.92c-18.29-10.56-39.27-15.92-62.35-15.92-38.99,0-84.04,15.64-130.29,45.23-74.51,47.67-146.14,126.91-201.68,223.12C28.8,379.08-4.8,497.02,.55,591.93l.13,2.39H540.41l-185.86-321.91-184.4,319.39-6.08-2.37c-1.64-.64-2.94-1.28-4.09-2-17.81-11.29-22.78-48.02-13.28-98.26,10.01-52.94,34.56-112.99,67.36-164.75,71.95-113.55,157.46-184.03,194.69-160.45,17.72,11.23,21.04,42.85,9.35,89.03-1.27,5.03-2.8,10.47-4.54,16.14l-1,3.28h135.67l.41-2.03c24.76-122.77,1.74-217.89-61.6-254.46Z"></path> </svg>