<svg xmlns="http://www.w3.org/2000/svg" width="589.8" viewBox="0 0 589.8 590.1" height="590.1"><path d="M315.8 501.1v89h-41.6v-90c-28.1 30.2-66.6 48.4-107.7 51-31.7 2.1-63-5.7-90-22.4-55.2-33.3-84.8-96.8-74.4-160.8 5.7-36.9 24.5-70.8 53.1-94.7 28.1-24.5 64.5-38 102-38-40.1-71.8-18.7-162.4 50-208.1 55.2-37.5 128-35.9 181.6 4.2C420 53.7 441.4 87 449.7 125c8.3 37.5 2.6 77-16.7 110.3 42.1 0 82.2 17.2 111.4 47.4 23.9 23.4 39 54.1 43.7 86.9 9.9 63.5-20.3 127-75.5 159.8-30.7 18.7-67.1 26-103 20.8-36-5.9-69.3-23.1-93.8-49.1zm.6-264.4h-.5v151.4c0 4.2 0 8.8.5 13 .5 12.5 3.6 24.5 8.3 35.9 5.7 13.5 13.5 26 23.9 36.4 9.9 10.4 21.9 18.7 34.9 24.5 20.3 9.4 43.2 12.5 65 9.4 14-2.1 27.6-6.8 40.1-13.5 15.1-8.3 28.6-20.3 38.5-34.3 15.1-21.3 22.9-47.4 21.3-73.9-.5-7.8-2.1-16.1-4.2-23.9-13-47.4-54.6-81.7-104.1-85.3-13-1-26.5.5-39 3.6-3.1 1-5.7 2.1-8.8 2.6 19.3 33.8 38.5 67.1 58.3 100.4l-35.9 20.8c-33.3-54.7-66.1-110.9-98.3-167.1zm-118.7 47.4l-1-.5c-15.6-5.7-32.8-7.3-49.4-5.7-64 5.7-111.4 61.9-105.6 125.9 0 1 0 1.6.5 2.6 1.6 16.7 7.3 32.8 16.1 47.4 20.8 33.8 57.2 54.6 96.8 55.7 9.4 0 18.7-.5 28.1-3.1 19.8-4.7 38-14 52.6-27.6 15.1-13.5 26-30.2 32.3-49.4 3.6-10.9 5.7-22.4 5.7-33.8V239.5v-2.6h-.5c-10.9 18.7-21.3 37.5-32.3 56.2-10.9 18.7-21.9 37.5-32.8 56.2-10.9 18.7-21.3 37.5-32.8 56.2l-35.9-20.8 58.2-100.6zm172.8-38.5c48.4-42.1 53.6-115 12-163.4s-115-53.6-163.4-12c-19.3 16.7-32.3 39-37.5 64-8.3 41.1 6.2 84.3 38.5 111.4l.5-.5L230 230l22.4-38.5 26-44.8 16.1-27.6c.5-.5 1-1.6 1.6-2.6l74.4 129.1z"></path></svg>