<svg xmlns="http://www.w3.org/2000/svg" width="601" viewBox="0 0 601 444.3" height="444.3" style="enable-background:new 0 0 601 444.3" xml:space="preserve"><path d="M436.8 0C380.1 0 330 28.9 300.5 72.8 271 28.9 220.9 0 164.2 0 73.7 0 0 73.7 0 164.2v152.9c0 70.1 57.1 127.2 127.2 127.2s127.2-57.1 127.2-127.2-57.1-127.2-127.2-127.2c-26.5 0-51.1 8.2-71.5 22.1v-47.8c0-59.8 48.7-108.5 108.5-108.5s108.5 48.7 108.5 108.5v280.1h55.7V164.2c0-59.8 48.7-108.5 108.5-108.5s108.5 48.7 108.5 108.5V212c-20.4-13.9-45-22.1-71.5-22.1-70.1 0-127.2 57.1-127.2 127.2s57.1 127.2 127.2 127.2S601 387.2 601 317.1V164.2C601 73.7 527.4 0 436.8 0zM127.2 245.6c39.4 0 71.5 32.1 71.5 71.5s-32.1 71.5-71.5 71.5-71.5-32.1-71.5-71.5 32.1-71.5 71.5-71.5zm346.6 143c-39.4 0-71.5-32.1-71.5-71.5s32.1-71.5 71.5-71.5 71.5 32.1 71.5 71.5-32.1 71.5-71.5 71.5z"></path></svg>