<svg data-name="Layer 1" xmlns="http://www.w3.org/2000/svg" viewBox="0 0 476.8 633.26"><path d="M301.3 164.9v-59.59h158.16V0H17.34v105.32H175.5v59.59C74.37 192.51 0 284.97 0 394.86c0 131.67 106.74 238.4 238.4 238.4s238.4-106.74 238.4-238.4c0-109.89-74.37-202.35-175.5-229.95Zm-62.9 366.08c-75.18 0-136.12-60.94-136.12-136.12 0-52.47 29.73-97.93 73.22-120.65v120.65c0 34.74 28.16 62.9 62.9 62.9s62.9-28.16 62.9-62.9V274.21c43.49 22.72 73.22 68.18 73.22 120.65 0 75.18-60.94 136.12-136.12 136.12Z"></path></svg>