<svg data-name="Layer 1" xmlns="http://www.w3.org/2000/svg" viewBox="0 0 599.16 618.24"><path d="m115.14 555.71 19.82-59.72 145.14-60.81-164.97 120.57v-.05Zm114.39-344.62h-28.97l90.52 189.59-61.3-190.28-.2.69h-.05Zm46.82 213.27-115.83-5.39-10.88 32.78 126.7-27.44v.05ZM167 211.09h-47.11l165.96 192.5-118.84-192.5Zm-97.19 0H0l12.31 9 268.88 188L69.8 211.14v-.05Zm207.73 203.73-100.4-45.83-6.67 20.07 107.08 25.76Zm40.04-360.64L299.58 0l-17.99 54.18 17.99 344.91 17.99-344.91Zm-56.16 60.81-18.14 54.58 52.3 229.88L261.42 115Zm202.84 381.05-145.14-60.81L484.09 555.8l-19.82-59.72v-.05Zm-141.39-71.63 126.7 27.44-10.88-32.78-115.83 5.39v-.05Zm-9.44-20.76 165.96-192.5h-47.11l-118.84 192.5Zm24.37-288.66-34.16 284.45 52.3-229.88-18.14-54.58Zm90.96 274.12-6.67-20.07-100.4 45.83 107.08-25.76Zm-59.08-177.97-.2-.69-61.3 190.28 90.52-189.59h-29.02Zm217.17 9 12.31-9h-69.8L317.97 408.09l268.88-187.96ZM311.94 438.1h-24.77v180.14h24.77V438.1Z"></path></svg>