<svg data-name="Layer 1" xmlns="http://www.w3.org/2000/svg" viewBox="0 0 612.81 612.86"><path d="M612.81 95.2c0-52.57-42.62-95.2-95.19-95.2H285.65L152.31 133.33h.05L0 285.69v231.97c0 52.57 42.62 95.2 95.2 95.2h231.97l152.45-152.45h-.05l133.24-133.24V95.2Zm-286.5 285.4v134.52h-42.64V380.6c0-2.01-1.63-3.65-3.65-3.65h-20.09c-2.01 0-3.65-1.63-3.65-3.65v-92.93c0-2.01 1.63-3.65 3.65-3.65h92.93c2.01 0 3.65 1.63 3.65 3.65v92.93c0 2.01-1.63 3.65-3.65 3.65h-22.92c-2.01 0-3.65 1.63-3.65 3.65Zm23.44 79.8v-60.01h9.24c11.56 0 20.98-9.41 20.98-20.98V274.25c0-11.56-9.41-20.98-20.98-20.98H253.83c-11.56 0-20.98 9.41-20.98 20.98v105.16c0 11.56 9.41 20.98 20.98 20.98h6.4v60.01h-77.81c-16.55 0-29.97-13.42-29.97-29.97v-297.1h297.06c16.55 0 29.97 13.42 29.97 29.97v297.1H349.75Z"></path><path d="M306.41 159.69c-22.03 0-39.89 17.86-39.89 39.89s17.86 39.89 39.89 39.89 39.89-17.86 39.89-39.89-17.86-39.89-39.89-39.89Z"></path></svg>