<svg data-name="Layer 1" xmlns="http://www.w3.org/2000/svg" viewBox="0 0 604.65 604.65"><path d="M549.66 211.92c32.69-19.92 54.65-55.78 54.98-96.7C605.16 51.85 550.94.01 487.57.01H266.8L211.91 55C192 22.29 156.14.34 115.21 0 51.84-.51 0 53.7 0 117.08v220.77l54.99 54.89C22.29 412.65.34 448.51 0 489.44c-.52 63.37 53.7 115.21 117.07 115.21h220.77l54.89-54.99c19.92 32.69 55.78 54.65 96.7 54.98 63.37.52 115.21-53.7 115.21-117.07V266.8l-54.99-54.89ZM346.6 88.57h143.78c13.93 0 25.7 11.77 25.7 25.7s-11.77 25.7-25.7 25.7H348.46l118.29 118.08H346.61V88.56Zm-258.04 25.7c0-13.93 11.77-25.7 25.7-25.7s25.7 11.77 25.7 25.7v141.92L258.04 137.9v120.14H88.56V114.27Zm169.48 401.82H114.27c-13.93 0-25.7-11.77-25.7-25.7s11.77-25.7 25.7-25.7h141.92L137.9 346.61h120.14v169.48Zm258.04-25.7c0 15.99-15.51 29.14-31.99 24.9-11.67-3-19.41-14.17-19.41-26.22v-140.6L346.6 466.76V346.62h169.48V490.4Z"></path></svg>