<svg data-name="Layer 1" xmlns="http://www.w3.org/2000/svg" viewBox="0 0 551.99 637.38"><path d="M276 0 0 159.35v318.69l276 159.34 273.53-157.92 2.46-1.42V159.35L276 0Zm-9.85 318.69-110.77 63.95-113.02-65.25 110.77-63.95 113.02 65.25Zm-103.17-70.94 108.09-62.41v124.81l-108.09-62.41Zm108.09 79.46v122.22l-105.85-61.11 105.85-61.11Zm9.85 0 113.02 65.25v127.91l-113.02-65.25V327.21Zm4.92-8.53 108.09-62.41v124.81l-108.09-62.41Zm-4.92-8.53V179.67l113.02-65.25v130.49l-113.02 65.25Zm0-151.35V14.22l125.23 72.3-125.23 72.3Zm131.07-68.93 125.23 72.3-125.23 72.3V89.89Zm-140.92 74.61-126.15 72.83-130.15-75.12 256.3-147.97V164.5ZM135.08 243 9.85 315.32v-144.6l125.23 72.3ZM9.85 319.48l127.47 73.6L9.85 466.67V319.48Zm137.32 79.28 123.9 71.54v152.88L14.77 475.2l132.4-76.44Zm133.75 77.22 127.47 73.6-127.47 73.6V475.99Zm131.07-73.08 125.23 72.3-125.23 72.3V402.9Zm0-11.37V245.86l130.15-75.14v295.95l-130.15-75.14Z"></path></svg>