<svg data-name="Layer 1" xmlns="http://www.w3.org/2000/svg" viewBox="0 0 628.45 628.45"><path d="M527.98 304.75a.87.87 0 0 0-.48-.48c-13.88-5.63-28.46-8.48-43.32-8.48-43.96 0-82.24 24.7-101.76 60.93 1.7-9.81 2.63-19.89 2.63-30.19 0-57.67-27.85-108.83-70.83-140.78-42.98 31.96-70.83 83.11-70.83 140.78 0 10.3.93 20.38 2.63 30.19-19.51-36.24-57.8-60.93-101.76-60.93-14.87 0-29.44 2.85-43.32 8.48a.87.87 0 0 0-.48.48c-5.63 13.89-8.48 28.46-8.48 43.32 0 63.69 51.82 115.51 115.51 115.51 10.15 0 20.43-1.42 30.58-4.23l46.07 46.07c7.19 7.19 11.11 16.56 11.02 26.37-.09 9.67-4 18.87-11.03 25.89-4.25 4.25-9.57 7.33-15.79 9.12-.42.12-.68.53-.62.96.06.43.43.75.87.75h91.27c.44 0 .81-.32.87-.75.06-.43-.2-.84-.62-.96-6.22-1.8-11.54-4.87-15.79-9.12-14.65-14.66-14.65-37.61 0-52.26l46.07-46.07c10.14 2.8 20.43 4.23 30.58 4.23 63.69 0 115.51-51.82 115.51-115.51 0-14.86-2.85-29.44-8.48-43.32Zm-213.76 195.8-58.68-58.68c2.8-10.14 4.23-20.43 4.23-30.58 0-4.13-.24-8.2-.66-12.22a175.978 175.978 0 0 0 55.11 68.24c23.69-17.61 42.74-41.09 55.11-68.24-.42 4.02-.66 8.09-.66 12.22 0 10.15 1.42 20.44 4.23 30.58l-58.68 58.68Z"></path><path d="M314.22 0C140.68 0 0 140.68 0 314.22s140.68 314.22 314.22 314.22 314.22-140.68 314.22-314.22S487.76 0 314.22 0Zm0 606.71c-161.54 0-292.49-130.95-292.49-292.49S152.69 21.74 314.22 21.74s292.49 130.95 292.49 292.49-130.95 292.49-292.49 292.49Z"></path></svg>