<svg id="Layer_1" data-name="Layer 1" xmlns="http://www.w3.org/2000/svg" viewBox="0 0 610.44 309.04">   <path d="M404.07,56.42c1.73-1.29,8.11-4.52,4.96-7.49-1.34-1.26-12.02-.92-14.85-.01,2.37,.42,5.13,1.44,7.27,2.84,1.24,.81,2.3,1.84,2.3,3.32v1.18c0,.16,.18,.25,.31,.16Z"></path>   <path d="M610.44,0h-215.8c-8.22,0-15.84,4.3-20.1,11.33l-16.9,27.91h47.7c2.42,0,4.7,1.15,6.14,3.11l1.83,2.48c1.21,1.65,3.15,2.63,5.2,2.63l14.61,1.69c6.44,.74,9.01,5.53,9.01,10.49v7.4l-.72-1.03c-1.96-2.79-6.35-5.08-9.76-5.08h-15.68c-4.01,0-7.67,2.11-7.67,6.11h20.18c.48,0,.68,.61,.3,.9l-117.7,88.6h-30.69l30.37-23.38h-30.37l30.37-23.38h-30.37l30.37-23.38h-30.37l30.37-23.38h-30.37l30.37-23.38h-61.16c-6.35,0-8.89-5.93-9.73-9.26l-3.65-14.5c-2.35-9.33-10.75-15.88-20.37-15.88H0L90.33,142.28h108.98v166.76L610.44,0Z"></path> </svg>