<svg xmlns="http://www.w3.org/2000/svg" width="606.4" viewBox="0 0 606.4 618.7" height="618.7" xml:space="preserve" style="enable-background:new 0 0 606.4 618.7"><path d="M159.4 414.2H67.2L456.8 24.6C470.4 11.1 489.5 0 506.1 0h96.4L212.8 389.6c-13.5 13.5-35.1 24.6-53.4 24.6M92.3 305.7H0l165.8-165.8c13.5-13.5 32.7-24.6 49.2-24.6h96.4L145.6 281.1c-13.5 13.5-35.1 24.6-53.3 24.6M133.5 618.7H41.2L387 272.9c13.5-13.5 32.7-24.6 49.2-24.6h96.4L186.9 594c-13.6 13.6-35.2 24.7-53.4 24.7M386 546h-92.3l167-167c13.6-13.6 32.7-24.6 49.3-24.6h96.4l-167 166.9C425.9 534.9 404.3 546 386 546"></path></svg>