<svg xmlns="http://www.w3.org/2000/svg" width="613.9" viewBox="0 0 613.9 613.9" height="613.9" xml:space="preserve"><path d="M208.1 0H86.4C38.7 0 0 38.7 0 86.4v121.7c0 47.7 38.7 86.4 86.4 86.4h121.7c.9 0 1.8 0 2.7-.1 2.3-17.9 9.5-34.2 20.1-47.7l-23.6-23.6c-16.5 13.1-37.4 21-60.1 21-53.5 0-96.9-43.4-96.9-96.9s43.4-96.9 96.9-96.9c53.5 0 96.9 43.4 96.9 96.9 0 22.7-7.8 43.6-21 60.1l23.6 23.6c13.5-10.7 29.8-17.8 47.7-20.1 0-.9.1-1.8.1-2.7V86.4C294.6 38.7 255.9 0 208.1 0zM527.5 0H405.8c-47.7 0-86.4 38.7-86.4 86.4v121.7c0 .9 0 1.8.1 2.7 17.9 2.3 34.2 9.5 47.7 20.1l23.6-23.6c-13.1-16.5-21-37.4-21-60.1 0-53.5 43.4-96.9 96.9-96.9 53.5 0 96.9 43.4 96.9 96.9s-43.4 96.9-96.9 96.9c-22.7 0-43.6-7.9-60.1-21L383 246.7c10.7 13.5 17.8 29.8 20.1 47.7.9 0 1.8.1 2.7.1h121.7c47.7 0 86.4-38.7 86.4-86.4V86.4c0-47.7-38.7-86.4-86.4-86.4zM527.5 319.3H405.8c-.9 0-1.8 0-2.7.1-2.3 17.9-9.5 34.2-20.1 47.7l23.6 23.6c16.5-13.1 37.4-21 60.1-21 53.5 0 96.9 43.4 96.9 96.9s-43.4 96.9-96.9 96.9c-53.5 0-96.9-43.4-96.9-96.9 0-22.7 7.9-43.6 21-60.1l-23.6-23.6c-13.5 10.7-29.8 17.8-47.7 20.1 0 .9-.1 1.8-.1 2.7v121.7c0 47.7 38.7 86.4 86.4 86.4h121.7c47.7 0 86.4-38.7 86.4-86.4V405.8c0-47.8-38.7-86.5-86.4-86.5zM246.8 382.9l-23.6 23.6c13.1 16.5 21 37.4 21 60.1 0 53.5-43.4 96.9-96.9 96.9-53.5 0-96.9-43.4-96.9-96.9s43.4-96.9 96.9-96.9c22.7 0 43.6 7.8 60.1 21l23.6-23.6c-10.7-13.5-17.8-29.8-20.1-47.7-.9 0-1.8-.1-2.7-.1H86.4C38.7 319.3 0 358 0 405.8v121.7c0 47.7 38.7 86.4 86.4 86.4h121.7c47.7 0 86.4-38.7 86.4-86.4V405.8c0-.9 0-1.8-.1-2.7-17.8-2.4-34.1-9.5-47.6-20.2z"></path></svg>