<svg version="1.0" xmlns="http://www.w3.org/2000/svg" width="617.7" viewBox="0 0 617.7 571.9" height="571.9" xml:space="preserve" style="enable-background:new 0 0 617.7 571.9"><path d="M617.7 335.7H515.8c-2.3-17.3-6.7-34-13-49.8 9.5-23.9 14.8-49.9 14.8-77.2C517.6 93.7 424 0 308.9 0c-55.8 0-108.2 21.7-147.6 61.1-32.9 32.9-53.5 74.9-59.4 120.3H0v54.8h101.9c2.2 17.2 6.6 33.9 12.9 49.8-9.6 24.2-14.7 50.3-14.7 77.2 0 115.1 93.7 208.8 208.8 208.8 105.8 0 193.5-79.1 207-181.4h101.9v-54.9zM154.9 208.8c0-84.9 69.1-153.9 153.9-153.9 84.9 0 153.9 69.1 153.9 153.9 0 4.3-.2 8.6-.5 12.9-38.2-41.4-92.8-67.3-153.4-67.3-55.8 0-108.2 21.7-147.6 61.1-2 2-3.9 4-5.8 6-.3-4.2-.5-8.4-.5-12.7zM442 285.9c-26.7 45.9-76.4 76.8-133.2 76.8-56.8 0-106.5-30.9-133.2-76.8 26.7-45.9 76.4-76.8 133.2-76.8 56.9.1 106.5 31 133.2 76.8zM308.9 517.1C224 517.1 155 448 155 363.2c0-4.3.2-8.6.5-12.8 1.9 2 3.8 4.1 5.8 6 39.4 39.4 91.9 61.1 147.6 61.1 60.6 0 115.2-26 153.4-67.3.4 4.3.5 8.6.5 12.9 0 84.9-69 154-153.9 154z"></path></svg>