<svg xmlns="http://www.w3.org/2000/svg" width="597.7" viewBox="0 0 597.7 518.6" height="518.6"><path d="M554.9 270.4h-72.1l2.8-1.9c18.3-11.8 29.2-31.8 29.2-53.6 0-35.2-28.6-63.8-63.8-63.8-4.4 0-8.7.5-12.9 1.3.9-4.3 1.3-8.7 1.3-13.2 0-35.2-28.6-63.8-63.8-63.8-4.1 0-8.1.4-12 1.1.9-4.2 1.3-8.5 1.3-12.9 0-35.2-28.6-63.8-63.8-63.8s-63.8 28.6-63.8 63.8c0 4.4.4 8.7 1.3 12.9-3.9-.7-7.9-1.1-12-1.1-35.2 0-63.8 28.6-63.8 63.8 0 4.4.5 8.9 1.3 13.2-4.2-.9-8.5-1.3-12.9-1.3-35.2 0-63.8 28.6-63.8 63.8 0 21.7 10.9 41.8 29.2 53.6l2.8 1.9H42.8C19.2 270.4 0 289.6 0 313.1V400c0 23.6 19.2 42.8 42.8 42.8h32.6v33c0 23.6 19.2 42.8 42.8 42.8h53.1v-54.2c0-11.8 9.6-21.4 21.4-21.4h76.7c9.5 0 17.7-6.1 20.5-15.2 2.7-9.1-.7-18.7-8.6-24l-2.8-1.9-.2-.1c-12.2-7.9-19.5-21.2-19.5-35.7 0-23.4 19-42.4 42.4-42.4s42.4 19 42.4 42.4c0 14.5-7.3 27.8-19.5 35.7l-3 2c-7.9 5.3-11.4 14.9-8.6 24 2.7 9.1 11 15.2 20.5 15.2h72.1c11.8 0 21.4 9.6 21.4 21.4v54.2h53.1c23.6 0 42.8-19.2 42.8-42.8v-33H555c23.6 0 42.8-19.2 42.8-42.8v-86.9c-.1-23.5-19.3-42.7-42.9-42.7zM418.1 139.3c0 11.7-4.7 23.3-12.7 31.1-11.2 11.5-18.1 27.2-18.1 44.5 0 4.4.5 8.9 1.4 13.2-4.2-.9-8.5-1.3-13-1.3-4.1 0-8.2.4-12.1 1.2.9-4.3 1.4-8.6 1.4-13 0-17.9-7.4-34-19.3-45.6-8-8-12.4-18.7-12.4-30 0-23.4 19-42.4 42.4-42.4s42.4 18.9 42.4 42.3zM258.8 63.8c0-23.4 19-42.4 42.4-42.4s42.4 19 42.4 42.4c0 10.8-4.1 21.1-11.5 29-12.4 11.6-20.2 28.2-20.2 46.5 0 4.4.5 8.8 1.3 13-3.9-.7-7.9-1.1-12-1.1s-8.1.4-12 1.1c.9-4.2 1.3-8.6 1.3-13 0-18.3-7.8-34.9-20.2-46.5-7.5-7.9-11.5-18.2-11.5-29zm-74.5 75.5c0-23.4 19-42.4 42.4-42.4s42.4 19 42.4 42.4c0 11.7-4.7 22.6-13.1 30.7-11.5 11.5-18.6 27.4-18.6 44.9 0 4.4.4 8.8 1.3 13-3.9-.7-7.9-1.1-12-1.1-4.4 0-8.8.5-12.9 1.3.9-4.3 1.3-8.7 1.3-13.2 0-17.7-7.2-33.7-18.9-45.3-7.5-7.7-11.9-19-11.9-30.3zM75.4 388.8v32.7H42.8c-11.8 0-21.4-9.6-21.4-21.4v-86.9c0-11.8 9.6-21.4 21.4-21.4h76.7c9.5 0 17.7-6.1 20.5-15.2 2.7-9.1-.7-18.7-8.6-23.9l-2.8-1.9-.2-.1c-12.2-7.9-19.5-21.2-19.5-35.7 0-23.4 19-42.4 42.4-42.4s42.4 19 42.4 42.4c0 11.6-4.6 23.1-12.4 30.9-11.4 11.5-18.4 27.3-18.4 44.7 0 21.7 10.9 41.7 29.2 53.6l2.8 1.8h-76.7c-23.6 0-42.8 19.2-42.8 42.8zM257 320.2c-12.1 11.6-19.6 28-19.6 46 0 21.7 10.9 41.7 29.2 53.6l2.8 1.9h-76.7c-23.6 0-42.8 19.2-42.8 42.8v32.8h-31.7c-11.8 0-21.4-9.6-21.4-21.4v-87.1c0-11.8 9.6-21.4 21.4-21.4h76.7c9.5 0 17.7-6.1 20.5-15.2 2.7-9.1-.7-18.7-8.6-24l-2.8-1.9-.2-.1c-12.2-7.9-19.5-21.2-19.5-35.7 0-23.4 19-42.4 42.4-42.4s42.4 19 42.4 42.4c0 11.2-4.3 21.8-12.1 29.7zm44.2-17.7c-4.1 0-8.1.4-12 1.1.9-4.2 1.3-8.6 1.3-13 0-17.6-7.1-33.5-18.7-45.1-8.4-8.1-13-18.9-13-30.6 0-23.4 19-42.4 42.4-42.4s42.4 19 42.4 42.4c0 11.9-4.8 22.9-13.5 31-11.3 11.5-18.2 27.2-18.2 44.6 0 4.4.4 8.8 1.3 13-3.9-.7-7.9-1-12-1zM501 475.9c0 11.8-9.6 21.4-21.4 21.4h-31.7v-32.8c0-23.6-19.2-42.8-42.8-42.8H333l2.8-1.9C354.1 408 365 388 365 366.2c0-17.9-7.4-34.1-19.3-45.7-8-8-12.4-18.6-12.4-29.9 0-23.4 19-42.4 42.4-42.4 11.5 0 22 4.6 29.6 12.1l1.1 1.1c7.2 7.6 11.7 17.9 11.7 29.2 0 14.5-7.3 27.8-19.5 35.7l-3 2c-7.9 5.2-11.4 14.9-8.6 24 2.7 9.1 11 15.2 20.5 15.2h72.1c11.8 0 21.4 9.6 21.4 21.4v87zm75.3-75.9c0 11.8-9.6 21.4-21.4 21.4h-32.6v-32.7c0-23.6-19.2-42.8-42.8-42.8h-72.1l2.8-1.9c18.3-11.8 29.2-31.8 29.2-53.6 0-17.1-6.8-32.7-17.8-44.2l-.5-.5-.5-.5c-7.5-7.8-12-19.1-12-30.5 0-23.4 19-42.4 42.4-42.4s42.4 19 42.4 42.4c0 14.5-7.3 27.8-19.5 35.7l-3 2c-7.9 5.3-11.4 14.9-8.6 24 2.7 9.1 11 15.2 20.5 15.2h72.1c11.8 0 21.4 9.6 21.4 21.4v87z"></path></svg>