<svg data-name="Layer 1" xmlns="http://www.w3.org/2000/svg" viewBox="0 0 609.96 609.96"><path d="M304.98 0C136.54 0 0 136.54 0 304.98c0 55.57 14.94 107.62 40.9 152.49 52.74-91.13 151.21-152.49 264.08-152.49s211.34 61.36 264.08 152.49c25.97-44.87 40.9-96.92 40.9-152.49C609.96 136.54 473.42 0 304.98 0ZM157.27 260c-45.16-26.41-80.58-63.06-105.19-105.24 48.83.77 98.14 13.68 143.29 40.1 45.16 26.41 80.58 63.06 105.19 105.24-48.83-.77-98.14-13.68-143.29-40.1Zm109.98-107.24c0-52.32 13.75-101.4 37.73-143.93 23.99 42.54 37.73 91.62 37.73 143.93s-13.75 101.4-37.73 143.93c-23.99-42.54-37.73-91.62-37.73-143.93ZM452.69 260c-45.16 26.41-94.47 39.32-143.29 40.1 24.61-42.18 60.03-78.83 105.19-105.24 45.16-26.41 94.47-39.32 143.3-40.1-24.61 42.18-60.03 78.83-105.19 105.24Z"></path><circle cx="304.98" cy="472.02" r="137.94"></circle></svg>