<svg data-name="Layer 1" xmlns="http://www.w3.org/2000/svg" viewBox="0 0 546.1 620.3"><path d="m264.11 0-42.47 24.52 42.47 200.27V0zM203.83 259.78 51.67 122.65 9.09 147.24l194.74 112.54zM230.3 235.99 153.71 63.74l-34.13 19.7L230.3 235.99zM215.82 246.5 104 92.44l-36.04 20.81L215.82 246.5zM187.44 310.09 0 290.31v39.41l187.44-19.63zM189.32 292.29 0 230.69v41.62l189.32 19.98zM0 162.65v49.22l194.87 63.4L0 162.65zM315.85 236.01l110.8-152.49-34.13-19.71-76.67 172.2zM546.1 230.85l-189.32 61.49 189.32-19.88v-41.61zM342.3 259.82l194.88-112.49-42.6-24.59L342.3 259.82zM282 225.01 324.6 24.6 282 0v225.01zM351.25 275.32l194.85-63.29v-49.18L351.25 275.32zM299.5 228.73l77.44-173.91-36.04-20.81-41.4 194.72zM189.32 327.89 0 347.72v41.61l189.32-61.44zM330.33 246.52l147.95-133.19-36.05-20.81-111.9 154zM246.65 228.72l-41.3-194.8-36.06 20.82 77.36 173.98zM356.79 327.94l189.31 61.54v-41.62l-189.31-19.92zM194.86 344.91 0 408.14v49.18l194.86-112.41zM351.23 344.95 546.1 457.5v-49.2l-194.87-63.35zM330.32 373.75l111.85 154.02 36.04-20.8-147.89-133.22zM358.67 310.14l187.43 19.72v-39.4l-187.43 19.68zM315.83 384.27l76.63 172.21 34.13-19.71-110.76-152.5zM0 467.77v.01-.01zM0 152.48v.01-.01zM342.28 360.44 494.5 497.56l42.6-24.59-194.82-112.53zM230.24 384.23 119.39 536.7l34.13 19.71 76.72-172.18zM215.76 373.72 67.75 506.89l36.06 20.81 111.95-153.98zM299.48 391.53l41.35 194.76 36.05-20.82-77.4-173.94zM51.46 497.48l152.33-137.07L8.84 472.87l42.62 24.61zM246.58 391.52 169.1 565.4l36.04 20.81 41.44-194.69zM281.98 395.25l-.06 225.05 42.61-24.61-42.55-200.44zM264.08 395.25l-42.65 200.37 42.6 24.59.05-224.96z"></path></svg>