<svg xmlns="http://www.w3.org/2000/svg" width="545.2" viewBox="0 0 545.2 624.9" height="624.9" xml:space="preserve"><path d="M272.6 421.1C232.5 363.9 153.3 328 80.7 328H25.3v151h45.2c71.6-3.8 120 49 120 127.4v18.5h164.2v-18.5c0-78.4 48.4-131.2 120-127.4H520V328h-55.4c-72.7.1-151.9 35.9-192 93.1zM329 147.3c14.6 7.5 27.4 17.8 38 30.2 2.1 2.4 4 4.9 5.9 7.5 14.8 20.4 23.6 45.5 23.6 72.6 0 16.4-3.2 32.1-9.1 46.5 13.4 5.5 28.1 8.6 43.6 8.6 63.1 0 114.3-51 114.3-114s-51.2-114-114.3-114c-13.2 0-25.8 2.3-37.6 6.4-3 1-5.9 2.2-8.7 3.5-24.2 10.6-43.9 29.4-55.7 52.7zM114.3 312.8c15 0 29.3-2.9 42.5-8.2-5.9-14.5-9.3-30.3-9.3-46.9 0-27.1 8.8-52.2 23.6-72.6 1.9-2.6 3.8-5.1 5.9-7.5 10.8-12.7 24-23.1 39-30.7-12.1-23.5-32.1-42.3-56.5-52.8-2.9-1.2-5.8-2.3-8.8-3.3-11.4-3.8-23.7-6-36.4-6C51.2 84.7 0 135.8 0 198.7c0 63 51.2 114.1 114.3 114.1z"></path><path d="M361.3 185.1c-9.9-12.1-22.2-22.1-36.2-29.4-2.7-1.4-5.5-2.8-8.3-3.9-13.8-5.8-28.9-9-44.8-9-15.5 0-30.2 3.1-43.7 8.6-2.9 1.2-5.6 2.5-8.4 3.8-14.4 7.3-27.1 17.5-37.3 30-2 2.4-3.9 5-5.7 7.6-12.7 18.5-20.2 40.9-20.2 65 0 15.3 3 29.8 8.4 43.2 1.2 2.8 2.4 5.6 3.8 8.4 18.9 37.6 57.9 63.4 103 63.4 45.3 0 84.4-26.1 103.3-64 1.4-2.7 2.6-5.5 3.7-8.4 5.3-13.2 8.2-27.6 8.2-42.6 0-24.1-7.5-46.5-20.2-65-1.7-2.8-3.6-5.3-5.6-7.7z"></path><path d="M224.4 142.9c14.7-6.1 30.8-9.5 47.6-9.5 17.3 0 33.7 3.5 48.7 9.9 13.1-25.9 35.1-46.6 62-58C369.9 36.3 325.2 0 272 0c-53 0-97.6 36-110.5 84.9 27.2 11.3 49.5 32 62.9 58z"></path></svg>