<svg data-name="Layer 1" xmlns="http://www.w3.org/2000/svg" viewBox="0 0 605.88 605.88"><path d="M302.94 0C135.63 0 0 135.63 0 302.94s135.63 302.94 302.94 302.94 302.94-135.63 302.94-302.94S470.25 0 302.94 0Zm0 582.14c-154.2 0-279.2-125-279.2-279.2s125-279.2 279.2-279.2 279.2 125 279.2 279.2-125 279.2-279.2 279.2Z"></path><path d="M302.94 105.9c-108.82 0-197.04 88.22-197.04 197.04s88.22 197.04 197.04 197.04 197.04-88.22 197.04-197.04S411.76 105.9 302.94 105.9Zm0 319.99c-67.9 0-122.94-55.04-122.94-122.94s55.04-122.94 122.94-122.94 122.94 55.04 122.94 122.94-55.05 122.94-122.94 122.94Z"></path><circle cx="302.94" cy="302.94" r="74.47" transform="rotate(-22.5 302.94 302.94)"></circle></svg>