<svg id="Layer_1" data-name="Layer 1" xmlns="http://www.w3.org/2000/svg" viewBox="0 0 609.88 310.32"><defs></defs><path class="cls-1" d="M304.94 310.32h304.94v-20.81H325.39l-20.45 20.81zM0 289.51v20.81h304.94l-20.45-20.81H0zM345.84 268.71h264.04V247.9h-243.6l-20.44 20.81zM243.6 247.9H0v20.81h264.04L243.6 247.9zM386.73 227.09h223.15v-20.81h-202.7l-20.45 20.81zM202.7 206.28H0v20.81h223.15l-20.45-20.81zM161.8 164.66H0v20.81h182.25l-20.45-20.81zM427.63 185.47h182.25v-20.81h-161.8l-20.45 20.81zM120.91 123.04H0v20.81h141.36l-20.45-20.81zM468.52 143.85h141.36v-20.81H488.97l-20.45 20.81zM80.01 81.42H0v20.81h100.46L80.01 81.42zM509.42 102.23h100.46V81.42h-80.01l-20.45 20.81zM550.32 60.62h59.56V39.81h-39.12l-20.44 20.81zM39.12 39.81H0v20.81h59.56L39.12 39.81zM591.21 19h18.67V0l-18.67 19zM0 0v19h18.67L0 0z"></path></svg>