<svg xmlns="http://www.w3.org/2000/svg" width="613.5" viewBox="0 0 613.5 613.5" height="613.5" xml:space="preserve" style="enable-background:new 0 0 613.5 613.5"><path d="M306.7 0C137.3 0 0 137.3 0 306.7c0 169.4 137.3 306.7 306.7 306.7 169.4 0 306.7-137.3 306.7-306.7C613.5 137.3 476.1 0 306.7 0zm-207 512.7V101.6c61.5 48.2 98.4 120.9 98.4 205.6 0 84.7-36.9 157.4-98.4 205.5zm104.8 0c56.8-41.6 95.2-107.9 101.4-183.4 6.2 75.5 44.6 141.9 101.4 183.4H204.5zm101.4-229.2c-6.2-75.5-44.6-141.9-101.4-182.7h202.7c-56.8 40.8-95.1 107.2-101.3 182.7zm207.8 229.2c-61.5-48.2-98.4-120.8-98.4-205.5s36.9-157.4 98.4-205.6v411.1z"></path></svg>