<svg xmlns="http://www.w3.org/2000/svg" width="612.1" viewBox="0 0 612.1 559.9" height="559.9"><path d="M354.5 405.3H215.7v149.8h138.8c41.2 0 74.9-33.7 74.9-74.9s-33.7-74.9-74.9-74.9zM0 480.2c0 43.8 35.8 79.7 79.7 79.7h129.9V400.5H79.7C35.8 400.6 0 436.4 0 480.2zM127.9 383.8c35.9 20.3 81.8 7.6 102.2-28.2l68.5-120.7-65.2-37-65.2-37-68.5 120.8c-20.4 35.8-7.7 81.8 28.2 102.1zM305.7 231.9L369.8 119c21.6-38.1 8.1-87-30-108.6-38.1-21.6-87-8.1-108.6 30l-64.1 112.9 69.3 39.3 69.3 39.3zM358.8 172.3c-34.9 20.6-46.5 66-25.9 100.9l69.4 117.4 63.4-37.5 63.4-37.5-69.4-117.4c-20.6-34.8-66-46.5-100.9-25.9zM601.3 428.4l-65-109.9-67.4 39.9-67.4 39.9 65 109.9c21.9 37.1 70.2 49.5 107.3 27.5 37-21.9 49.4-70.2 27.5-107.3z"></path></svg>