<svg xmlns="http://www.w3.org/2000/svg" width="598.66" viewBox="0 0 598.66 642" height="642" data-name="Layer_1"><path d="M0 309.76h119.57v332.23H0zM520.57 285.69h-43.78c-13.87-85.45-88.15-150.87-177.45-150.87s-163.58 65.42-177.45 150.87H78.11c14.19-109.4 107.98-194.2 221.23-194.2s207.04 84.81 221.23 194.2Z"></path><path d="M455.02 309.76h-24.07c-2.5-70.36-60.67-126.79-131.61-126.79S170.23 239.4 167.73 309.76h-24.07c2.5-83.59 71.45-150.87 155.68-150.87s153.18 67.28 155.68 150.87Z"></path><path d="M418.1 314.58v19.26h-19.26v-19.26c0-54.89-44.62-99.51-99.51-99.51s-99.51 44.62-99.51 99.51v19.26h-19.26v-19.26c0-65.48 53.29-118.77 118.77-118.77S418.1 249.1 418.1 314.58ZM143.65 333.84h24.07v284.08h-24.07zM180.56 353.1h19.26v245.56h-19.26zM598.67 642H479.1V309.77h119.57z"></path><path d="M598.66 0v285.69h-53.83c-14.31-122.9-118.76-218.28-245.5-218.28S68.14 162.79 53.83 285.69H0V0h598.66ZM455.02 617.93h-24.07V333.85h24.07zM418.1 598.67h-19.26V353.11h19.26z"></path></svg>