<svg data-name="Layer 1" xmlns="http://www.w3.org/2000/svg" viewBox="0 0 598.49 602.16"><path d="M455.91 383.39v65.58h57.08v-65.58c0-10.99 8.94-19.93 19.93-19.93h65.58v-57.08h-65.58c-42.46 0-77.01 34.55-77.01 77.01ZM303.94 383.39v65.58h57.08v-65.58c0-10.99 8.94-19.93 19.93-19.93h65.58v-57.08h-65.58c-42.46 0-77.01 34.55-77.01 77.01ZM151.97 383.39v65.58h57.08v-65.58c0-10.99 8.94-19.93 19.93-19.93h65.58v-57.08h-65.58c-42.46 0-77.01 34.55-77.01 77.01ZM0 383.39v65.58h57.08v-65.58c0-10.99 8.94-19.93 19.93-19.93h65.58v-57.08H77.01C34.55 306.38 0 340.93 0 383.39ZM303.94 536.58v65.58h57.08v-65.58c0-10.99 8.94-19.93 19.93-19.93h65.58v-57.08h-65.58c-42.46 0-77.01 34.55-77.01 77.01ZM151.97 536.58v65.58h57.08v-65.58c0-10.99 8.94-19.93 19.93-19.93h65.58v-57.08h-65.58c-42.46 0-77.01 34.55-77.01 77.01ZM532.91 153.19c-42.46 0-77.01 34.55-77.01 77.01v65.58h57.08V230.2c0-10.99 8.94-19.93 19.93-19.93h65.58v-57.08h-65.58ZM303.94 230.2v65.58h57.08V230.2c0-10.99 8.94-19.93 19.93-19.93h65.58v-57.08h-65.58c-42.46 0-77.01 34.55-77.01 77.01ZM151.97 230.2v65.58h57.08V230.2c0-10.99 8.94-19.93 19.93-19.93h65.58v-57.08h-65.58c-42.46 0-77.01 34.55-77.01 77.01ZM0 230.2v65.58h57.08V230.2c0-10.99 8.94-19.93 19.93-19.93h65.58v-57.08H77.01C34.55 153.19 0 187.74 0 230.2ZM303.94 77.01v65.58h57.08V77.01c0-10.99 8.94-19.93 19.93-19.93h65.58V0h-65.58c-42.46 0-77.01 34.55-77.01 77.01ZM151.97 77.01v65.58h57.08V77.01c0-10.99 8.94-19.93 19.93-19.93h65.58V0h-65.58c-42.46 0-77.01 34.55-77.01 77.01Z"></path></svg>