<svg xmlns="http://www.w3.org/2000/svg" width="642" viewBox="0 0 642 642" height="642" data-name="Layer 1"><path d="M642 188.04v265.93L453.96 642.01H188.04L0 453.96V188.04L188.04 0h265.93l188.04 188.04Zm-453.96 0V27.23L27.24 188.04h160.8Zm0 77.89V207.3H46.5l100.08 100.08 41.46-41.46Zm119.34-119.35L207.29 46.49v141.55h58.63l41.46-41.46Zm-52.99 107.81V207.3h-47.1v47.09h47.1Zm52.99-13.96-33.31-33.3-.42.42v46.85h19.76l13.97-13.97Zm-52.99 33.22h-46.85l-.25.25v.36l33.12 33.12 13.97-13.97v-19.76ZM207.3 19.26 321 132.96l113.7-113.7H207.29Zm80.39 174.24c-.23.14 33.31 33.3 33.31 33.3s33.53-33.16 33.31-33.3S321 160.19 321 160.19s-33.08 33.16-33.31 33.31Zm327.07-5.46L453.96 27.23v160.8h160.8ZM495.42 307.38 595.5 207.3H453.96v58.63l41.46 41.46ZM376.07 188.04h58.63V46.49L334.61 146.58l41.46 41.46Zm58.63 66.35V207.3h-47.1v47.09h47.1Zm-86.11 0h19.76v-46.85l-.42-.42-33.31 33.3 13.97 13.97Zm39.02 39.02 13.97 13.97 33.12-33.12v-.36l-.25-.25H387.6v19.76ZM19.26 434.7 132.96 321 19.26 207.3v227.4Zm174.24-147L160.2 321l33.3 33.3 33.3-33.3-33.3-33.3ZM27.24 453.96l160.8 160.8v-160.8H27.24Zm119.34-119.34L46.5 434.7h141.54v-58.63l-41.46-41.46Zm119.35 119.34H207.3v141.55l100.09-100.09-41.46-41.46Zm-58.63-66.35v47.09h47.1v-47.09h-47.1Zm86.11 0h-19.76v46.85l.42.42 33.31-33.3-13.97-13.97Zm-39.02-39.02-13.97-13.97-33.12 33.12v.36l.25.25h46.85v-19.76ZM622.74 207.3 509.04 321l113.7 113.7V207.3ZM434.7 622.74 321 509.04l-113.7 113.7h227.41ZM321 481.8s33.08-33.16 33.31-33.31-33.31-33.3-33.31-33.3-33.53 33.16-33.31 33.3S321 481.8 321 481.8ZM415.2 321l33.3 33.3 33.3-33.3-33.3-33.3-33.3 33.3Zm38.76 132.96v160.8l160.8-160.8h-160.8Zm0-77.89v58.63H595.5L495.42 334.62l-41.46 41.46ZM334.62 495.42l100.09 100.09V453.96h-58.63l-41.46 41.46Zm52.99-107.81v47.09h47.1v-47.09h-47.1Zm-52.99 13.96 33.31 33.3.42-.42V387.6h-19.76l-13.97 13.97Zm52.99-33.22h46.85l.25-.25v-.36l-33.12-33.12-13.97 13.97v19.76Zm-86.22-94.7-27.74 27.74v39.22l27.74 27.73h39.22l27.74-27.73v-39.22l-27.74-27.74h-39.22Z"></path></svg>