<svg xmlns="http://www.w3.org/2000/svg" width="621.3" viewBox="0 0 621.3 620.4" height="620.4" style="enable-background:new 0 0 621.3 620.4" xml:space="preserve"><path d="M310.6 0C139.1 0 0 139.1 0 310.6 0 442.3 81.9 554.8 197.5 600V179.2c0-2.7 2.2-4.8 4.8-4.8h6.6c22.2 0 40.2 18 40.2 40.2v400.6c10.8 2.2 21.9 3.8 33.1 4.8V88.7c0-22.2 18-40.2 40.2-40.2h6.6c2.7 0 4.8 2.2 4.8 4.8v567.2c11.2-.8 22.2-2.3 33.1-4.2V287.7c0-22.2 18-40.2 40.2-40.2h6.6c2.7 0 4.8 2.2 4.8 4.8V602c118.3-43.9 202.6-157.8 202.6-291.3C621.3 139.1 482.2 0 310.6 0zM188.1 313c-10 3-20.6 4.2-31 5.3-10.9 1.1-21.8 1.8-32.8 2.2-6 .2-12.1.7-18.1.4-1.8-.1-3.9-.4-4.9-2-1.7-2.9.7-5.4 1.1-8.2-.4-2.8-2.8-5.3-1.1-8.2 1-1.7 3.1-1.9 4.9-2 6-.3 12.1.2 18.1.4 10.9.4 21.9 1.1 32.8 2.2 10.4 1.1 21 2.4 31 5.3 1.2.4 1.8 1.3 1.9 2.4-.1.9-.7 1.8-1.9 2.2zm0-24.9c-10 3-20.6 4.2-31 5.3-10.9 1.1-21.8 1.8-32.8 2.2-6 .2-12.1.7-18.1.4-1.8-.1-3.9-.4-4.9-2-1.7-2.9.7-5.4 1.1-8.2-.4-2.8-2.8-5.3-1.1-8.2 1-1.7 3.1-1.9 4.9-2 6-.3 12.1.2 18.1.4 10.9.4 21.9 1.1 32.8 2.2 10.4 1.1 21 2.4 31 5.3 1.2.4 1.8 1.3 1.9 2.4-.1.9-.7 1.9-1.9 2.2zm0-24.8c-10 3-20.6 4.2-31 5.3-10.9 1.1-21.8 1.8-32.8 2.2-6 .2-12.1.7-18.1.4-1.8-.1-3.9-.4-4.9-2-1.7-2.9.7-5.4 1.1-8.2-.4-2.8-2.8-5.3-1.1-8.2 1-1.7 3.1-1.9 4.9-2 6-.3 12.1.2 18.1.4 10.9.4 21.9 1.1 32.8 2.2 10.4 1.1 21 2.4 31 5.3 1.2.4 1.8 1.3 1.9 2.4-.1.8-.7 1.8-1.9 2.2zm0-24.9c-10 3-20.6 4.2-31 5.3-10.9 1.1-21.8 1.8-32.8 2.2-6 .2-12.1.7-18.1.4-1.8-.1-3.9-.4-4.9-2-1.7-2.9.7-5.4 1.1-8.2-.4-2.8-2.8-5.3-1.1-8.2 1-1.7 3.1-1.9 4.9-2 6-.3 12.1.2 18.1.4 10.9.4 21.9 1.1 32.8 2.2 10.4 1.1 21 2.4 31 5.3 1.2.4 1.8 1.3 1.9 2.4-.1.8-.7 1.8-1.9 2.2zm0-24.9c-10 3-20.6 4.2-31 5.3-10.9 1.1-21.8 1.8-32.8 2.2-6 .2-12.1.7-18.1.4-1.8-.1-3.9-.4-4.9-2-1.7-2.9.7-5.4 1.1-8.2-.4-2.8-2.8-5.3-1.1-8.2 1-1.7 3.1-1.9 4.9-2 6-.3 12.1.2 18.1.4 10.9.4 21.9 1.1 32.8 2.2 10.4 1.1 21 2.4 31 5.3 1.2.4 1.8 1.3 1.9 2.4-.1.9-.7 1.9-1.9 2.2zm0-24.9c-10 3-20.6 4.2-31 5.3-10.9 1.1-21.8 1.8-32.8 2.2-6 .2-12.1.7-18.1.4-1.8-.1-3.9-.4-4.9-2-1.7-2.9.7-5.4 1.1-8.2-.4-2.8-2.8-5.3-1.1-8.2 1-1.7 3.1-1.9 4.9-2 6-.3 12.1.2 18.1.4 10.9.4 21.9 1.1 32.8 2.2 10.4 1.1 21 2.4 31 5.3 1.2.4 1.8 1.3 1.9 2.4-.1.9-.7 1.9-1.9 2.2zM343.3 58c10-3 20.6-4.2 31-5.3 10.9-1.1 21.8-1.8 32.8-2.2 6-.2 12.1-.7 18.1-.4 1.8.1 3.9.4 4.9 2 1.7 2.9-.7 5.4-1.1 8.2.4 2.8 2.8 5.3 1.1 8.2-1 1.7-3.1 1.9-4.9 2-6 .3-12.1-.2-18.1-.4-10.9-.4-21.9-1.1-32.8-2.2-10.4-1.1-21-2.4-31-5.3-1.2-.4-1.8-1.3-1.9-2.4 0-.9.6-1.9 1.9-2.2zm0 24.8c10-3 20.6-4.2 31-5.3 10.9-1.1 21.8-1.8 32.8-2.2 6-.2 12.1-.7 18.1-.4 1.8.1 3.9.4 4.9 2 1.7 2.9-.7 5.4-1.1 8.2.4 2.8 2.8 5.3 1.1 8.2-1 1.7-3.1 1.9-4.9 2-6 .3-12.1-.2-18.1-.4-10.9-.4-21.9-1.1-32.8-2.2-10.4-1.1-21-2.4-31-5.3-1.2-.4-1.8-1.3-1.9-2.4 0-.8.6-1.8 1.9-2.2zm0 24.9c10-3 20.6-4.2 31-5.3 10.9-1.1 21.8-1.8 32.8-2.2 6-.2 12.1-.7 18.1-.4 1.8.1 3.9.4 4.9 2 1.7 2.9-.7 5.4-1.1 8.2.4 2.8 2.8 5.3 1.1 8.2-1 1.7-3.1 1.9-4.9 2-6 .3-12.1-.2-18.1-.4-10.9-.4-21.9-1.1-32.8-2.2-10.4-1.1-21-2.4-31-5.3-1.2-.4-1.8-1.3-1.9-2.4 0-.9.6-1.8 1.9-2.2zm0 24.9c10-3 20.6-4.2 31-5.3 10.9-1.1 21.8-1.8 32.8-2.2 6-.2 12.1-.7 18.1-.4 1.8.1 3.9.4 4.9 2 1.7 2.9-.7 5.4-1.1 8.2.4 2.8 2.8 5.3 1.1 8.2-1 1.7-3.1 1.9-4.9 2-6 .3-12.1-.2-18.1-.4-10.9-.4-21.9-1.1-32.8-2.2-10.4-1.1-21-2.4-31-5.3-1.2-.4-1.8-1.3-1.9-2.4 0-.9.6-1.9 1.9-2.2zm0 24.8c10-3 20.6-4.2 31-5.3 10.9-1.1 21.8-1.8 32.8-2.2 6-.2 12.1-.7 18.1-.4 1.8.1 3.9.4 4.9 2 1.7 2.9-.7 5.4-1.1 8.2.4 2.8 2.8 5.3 1.1 8.2-1 1.7-3.1 1.9-4.9 2-6 .3-12.1-.2-18.1-.4-10.9-.4-21.9-1.1-32.8-2.2-10.4-1.1-21-2.4-31-5.3-1.2-.4-1.8-1.3-1.9-2.4 0-.8.6-1.8 1.9-2.2zm63.7 37.1c-10.9-.4-21.9-1.1-32.8-2.2-10.4-1.1-21-2.4-31-5.3-1.2-.4-1.8-1.3-1.9-2.4.1-1 .7-2 1.9-2.4 10-3 20.6-4.2 31-5.3 10.9-1.1 21.8-1.8 32.8-2.2 6-.2 12.1-.7 18.1-.4 1.8.1 3.9.4 4.9 2 1.7 2.9-.7 5.4-1.1 8.2.4 2.8 2.8 5.3 1.1 8.2-1 1.7-3.1 1.9-4.9 2-5.9.5-12.1.1-18.1-.2zM514.8 392c-1 1.7-3.1 1.9-4.9 2-6 .3-12.1-.2-18.1-.4-10.9-.4-21.9-1.1-32.8-2.2-10.4-1.1-21-2.4-31-5.3-1.2-.4-1.8-1.3-1.9-2.4.1-1 .7-2 1.9-2.4 10-3 20.6-4.2 31-5.3 10.9-1.1 21.8-1.8 32.8-2.2 6-.2 12.1-.7 18.1-.4 1.8.1 3.9.4 4.9 2 1.7 2.9-.7 5.4-1.1 8.2.4 2.9 2.8 5.5 1.1 8.4zm0-24.9c-1 1.7-3.1 1.9-4.9 2-6 .3-12.1-.2-18.1-.4-10.9-.4-21.9-1.1-32.8-2.2-10.4-1.1-21-2.4-31-5.3-1.2-.4-1.8-1.3-1.9-2.4.1-1 .7-2 1.9-2.4 10-3 20.6-4.2 31-5.3 10.9-1.1 21.8-1.8 32.8-2.2 6-.2 12.1-.7 18.1-.4 1.8.1 3.9.4 4.9 2 1.7 2.9-.7 5.4-1.1 8.2.4 3 2.8 5.5 1.1 8.4zm0-24.9c-1 1.7-3.1 1.9-4.9 2-6 .3-12.1-.2-18.1-.4-10.9-.4-21.9-1.1-32.8-2.2-10.4-1.1-21-2.4-31-5.3-1.2-.4-1.8-1.3-1.9-2.4.1-1 .7-2 1.9-2.4 10-3 20.6-4.2 31-5.3 10.9-1.1 21.8-1.8 32.8-2.2 6-.2 12.1-.7 18.1-.4 1.8.1 3.9.4 4.9 2 1.7 2.9-.7 5.4-1.1 8.2.4 3 2.8 5.5 1.1 8.4zm0-24.9c-1 1.7-3.1 1.9-4.9 2-6 .3-12.1-.2-18.1-.4-10.9-.4-21.9-1.1-32.8-2.2-10.4-1.1-21-2.4-31-5.3-1.2-.4-1.8-1.3-1.9-2.4.1-1 .7-2 1.9-2.4 10-3 20.6-4.2 31-5.3 10.9-1.1 21.8-1.8 32.8-2.2 6-.2 12.1-.7 18.1-.4 1.8.1 3.9.4 4.9 2 1.7 2.9-.7 5.4-1.1 8.2.4 3 2.8 5.5 1.1 8.4zm0-24.8c-1 1.7-3.1 1.9-4.9 2-6 .3-12.1-.2-18.1-.4-10.9-.4-21.9-1.1-32.8-2.2-10.4-1.1-21-2.4-31-5.3-1.2-.4-1.8-1.3-1.9-2.4.1-1 .7-2 1.9-2.4 10-3 20.6-4.2 31-5.3 10.9-1.1 21.8-1.8 32.8-2.2 6-.2 12.1-.7 18.1-.4 1.8.1 3.9.4 4.9 2 1.7 2.9-.7 5.4-1.1 8.2.4 2.9 2.8 5.5 1.1 8.4zm0-24.9c-1 1.7-3.1 1.9-4.9 2-6 .3-12.1-.2-18.1-.4-10.9-.4-21.9-1.1-32.8-2.2-10.4-1.1-21-2.4-31-5.3-1.2-.4-1.8-1.3-1.9-2.4.1-1 .7-2 1.9-2.4 10-3 20.6-4.2 31-5.3 10.9-1.1 21.8-1.8 32.8-2.2 6-.2 12.1-.7 18.1-.4 1.8.1 3.9.4 4.9 2 1.7 2.9-.7 5.4-1.1 8.2.4 3 2.8 5.5 1.1 8.4z"></path></svg>