<svg data-name="Layer 1" xmlns="http://www.w3.org/2000/svg" viewBox="0 0 555.3 568.24"><path d="M555.3 299.15c0 148.39-124.55 269.1-277.63 269.1S0 447.54 0 299.15C0 198.07 57.81 109.84 143.05 63.86c-14.84 23.47-23.41 51.25-23.41 81 0 59.05 33.81 110.36 83.08 135.57 5.87 3.01 11.92 5.62 18.19 7.85 15.93 5.68 33.09 8.79 50.98 8.79h283.38c.03.68.03 1.4.03 2.08Z"></path><path d="m377.88 48.18-1.15-1.24c1.74-2.58 3.1-5.4 3.97-8.44.81-2.67 1.21-5.53 1.21-8.44 0-16.58-13.47-30.05-30.05-30.05-6.67 0-12.85 2.17-17.85 5.87a32.006 32.006 0 0 0-6.58 6.67c-17.07-7.17-35.86-11.14-55.54-11.14s-38.5 3.97-55.57 11.18a31.335 31.335 0 0 0-6.55-6.71c-5-3.69-11.18-5.87-17.85-5.87-16.61 0-30.05 13.47-30.05 30.05 0 2.92.4 5.77 1.21 8.44.87 3.04 2.24 5.87 3.97 8.44-2.61 2.79-5.09 5.68-7.48 8.69-19.46 24.49-31.11 55.51-31.11 89.22 0 54.11 29.99 101.24 74.26 125.67V97.36h62.87v190.77c2.08.12 4.19.16 6.3.16s4.19-.03 6.27-.16V97.36h62.9v173.17c44.27-24.43 74.26-71.56 74.26-125.67 0-37.25-14.19-71.15-37.44-96.67ZM207.57 67.8c-6.02 0-11.33-3.07-14.44-7.73a17.206 17.206 0 0 1-2.89-9.59c0-2.61.56-5.06 1.61-7.26 2.73-5.93 8.72-10.06 15.71-10.06 3.76 0 7.2 1.18 10.03 3.23 1.09.78 2.11 1.68 2.98 2.7 2.67 3.01 4.28 7.02 4.28 11.39 0 9.56-7.73 17.32-17.29 17.32Zm13.23 10.59 49.92-30.49L323 78.39H220.8Zm129.86-18.32a17.31 17.31 0 0 1-14.44 7.73c-9.56 0-17.32-7.76-17.32-17.32 0-4.35 1.58-8.35 4.28-11.36 1.61-1.89 3.63-3.38 5.93-4.41 2.17-1.02 4.56-1.55 7.11-1.55 5.22 0 9.87 2.3 13.04 5.96 2.7 3.01 4.28 7.02 4.28 11.36 0 3.54-1.06 6.86-2.89 9.59Z"></path></svg>