<svg xmlns="http://www.w3.org/2000/svg" width="632.9" viewBox="0 0 632.9 529.6" height="529.6" xml:space="preserve" style="enable-background:new 0 0 632.9 529.6"><path d="M352.5 335.8c0 46-37.3 83.3-83.3 83.3s-83.3-37.3-83.3-83.3 37.3-83.3 83.3-83.3 83.3 37.3 83.3 83.3z"></path><path d="M168.6 335.8c0-52.1 39.5-94.9 90.2-100.1v-15.8H113.5C48.8 219.9 0 270.5 0 335.2v194.4h258.8v-93.7c-50.6-5.3-90.2-48.1-90.2-100.1zM632.9 335.8c0 46-37.3 83.3-83.3 83.3s-83.3-37.3-83.3-83.3 37.3-83.3 83.3-83.3c46.1 0 83.3 37.3 83.3 83.3z"></path><circle transform="rotate(-76.714 549.705 119.217)" cx="549.7" cy="119.2" r="83.3"></circle><path d="M449 335.8c0-55.6 45.1-100.6 100.6-100.6v-15.3c-55.6 0-100.6-45-100.6-100.6S494.1 18.6 549.7 18.6V0H399c-67.5 0-122.2 54.7-122.2 122.2v113.4c51 4.9 91.4 47.9 91.4 100.2S328.3 431 277.3 436v93.6h272.4v-93.2c-55.6 0-100.7-45-100.7-100.6z"></path></svg>