<svg data-name="Layer 1" xmlns="http://www.w3.org/2000/svg" viewBox="0 0 627.97 626.33"><path d="M297.57 237.35c2.76-32.87 13.24-53.94 15.83-58.71.26-.48.9-.48 1.16 0 2.59 4.77 13.07 25.84 15.83 58.71 101.21-3.65 248.9-39.02 264.41-64.78-5.01-10.07-10.48-19.93-16.56-29.4C518.82 48.59 416.46.2 313.99 0 211.51.2 109.15 48.59 49.72 143.17c-6.08 9.48-11.54 19.33-16.56 29.4 15.51 25.76 163.21 61.13 264.41 64.78Zm16.41-173.6c68.33 0 136.66 26.94 184.01 80.82-59.42 18.79-121.71 28.07-184.01 28.03-62.3.04-124.59-9.24-184.01-28.03 47.35-53.88 115.68-80.82 184.01-80.82Z"></path><path d="M626.28 280.85c-.26-2.61-.61-5.21-.9-7.81 0 0-4.51-37.91-16.22-64.59-.11 1.03-.33 2.05-.53 3.07-.53 2.69-1.25 5.33-2.13 7.93-5.33 15.7-15.61 29.97-30.42 37.86-26.44 14.09-59.7 22.97-88.47 30.9-45.37 12.52-92.06 19.98-138.96 23.56v134.41h-69.31V311.77c-46.9-3.58-93.59-11.04-138.96-23.56-28.77-7.94-62.04-16.81-88.47-30.9-14.81-7.89-25.09-22.16-30.42-37.86-.88-2.59-1.6-5.24-2.13-7.93-.2-1.01-.42-2.04-.53-3.07-11.74 26.69-16.25 64.6-16.25 64.6-.29 2.59-.63 5.19-.9 7.81-19.2 183.75 127.85 346.25 312.3 345.47 184.45.78 331.5-161.73 312.3-345.47Zm-312.3 278.84c-115.54 0-231.07-75.63-247.79-227.01 47.76 17.79 97.38 30.38 147.85 37.61v133.75h199.87V370.29c50.47-7.22 100.09-19.82 147.85-37.61-16.71 151.38-132.25 227.02-247.79 227.01Z"></path></svg>