<svg data-name="Layer 1" xmlns="http://www.w3.org/2000/svg" viewBox="0 0 622.25 622.24"><path d="M519.58 0H374.63v54.49h144.95c26.57 0 48.18 21.6 48.18 48.17v254.11H366.73c-2.14 0-3.88-1.74-3.88-3.88V0h-54.49v243.08c-9.28-19.97-29.4-33.93-52.83-33.93H54.49V102.66c0-26.57 21.61-48.17 48.18-48.17h193.9V0h-193.9C46.06 0 0 46.06 0 102.66v416.92c0 56.61 46.06 102.66 102.67 102.66h145.02v-54.49H102.67c-26.57 0-48.18-21.6-48.18-48.17V263.63h201.03c2.14 0 3.88 1.74 3.88 3.88l.08 354.72h54.41V377.32c9.28 19.97 29.4 33.93 52.83 33.93h201.03v108.32c0 26.57-21.61 48.17-48.18 48.17h-193.9v54.49h193.9c56.61 0 102.67-46.06 102.67-102.66V102.66C622.24 46.05 576.18 0 519.57 0Z"></path><path d="M265.54 127.25c-21.64 0-39.19 17.55-39.19 39.19s17.55 39.19 39.19 39.19 39.19-17.55 39.19-39.19-17.55-39.19-39.19-39.19Z"></path></svg>