<svg xmlns="http://www.w3.org/2000/svg" width="614.1" viewBox="0 0 614.1 262.1" height="262.1" xml:space="preserve"><path d="M224.7 39.4c-1.5-1.5-3.5-2.4-5.7-2.4s-4.2.9-5.7 2.4c-24 24.7-37.3 57.3-37.3 91.7 0 34.4 13.3 66.9 37.4 91.6 1.5 1.5 3.5 2.4 5.7 2.4s4.2-.9 5.7-2.4c24.1-24.6 37.4-57.2 37.4-91.6-.1-34.5-13.4-67-37.5-91.7z"></path><path d="M158.6 131.1c0-36.7 13.5-72 38.1-99.3 2.1-2.3 3-5.4 2.4-8.4-.5-3.1-2.4-5.7-5.1-7.2C174.9 5.6 153.1 0 131.1 0c-21.8 0-43.4 5.5-62.4 15.8-2.7 1.5-4.6 4.1-5.1 7.2-.6 3 .3 6.1 2.4 8.4 24.8 27.4 38.4 62.8 38.4 99.6S90.8 203.3 66 230.7c-2.1 2.3-3 5.4-2.5 8.5.5 3.1 2.4 5.7 5.1 7.2 19 10.3 40.6 15.8 62.4 15.8 22 0 43.9-5.6 63.1-16.2 2.7-1.5 4.6-4.1 5.1-7.2.5-3.1-.4-6.1-2.4-8.4-24.6-27.4-38.2-62.7-38.2-99.3z"></path><path d="M49.2 38.9c-1.5-1.5-3.5-2.4-5.7-2.4-2.1 0-4.1.8-5.7 2.4C13.4 63.6 0 96.3 0 131.1s13.4 67.4 37.9 92.1c1.5 1.5 3.5 2.4 5.7 2.4 2.1 0 4.2-.8 5.7-2.4C73.6 198.4 87 165.7 87 131.1c0-34.7-13.4-67.4-37.8-92.2zM400.8 39.4c-1.5-1.5-3.5-2.4-5.7-2.4s-4.2.9-5.7 2.4C365.3 64.1 352 96.7 352 131.1s13.3 66.9 37.4 91.6c1.5 1.5 3.5 2.4 5.7 2.4s4.2-.9 5.7-2.4c24.1-24.6 37.4-57.2 37.4-91.6-.1-34.5-13.4-67-37.4-91.7z"></path><path d="M334.6 131.1c0-36.7 13.5-72 38.1-99.3 2.1-2.3 3-5.4 2.4-8.4-.5-3.1-2.4-5.7-5.1-7.2C350.9 5.6 329.1 0 307.1 0c-21.8 0-43.4 5.5-62.4 15.8-2.7 1.5-4.6 4.1-5.1 7.2-.5 3.1.4 6.2 2.5 8.5 24.8 27.4 38.4 62.8 38.4 99.6 0 36.9-13.6 72.2-38.4 99.6-2.1 2.3-3 5.4-2.5 8.5.5 3.1 2.4 5.7 5.1 7.2 19 10.3 40.6 15.8 62.4 15.8 22 0 43.9-5.6 63.1-16.2 2.7-1.5 4.6-4.1 5.1-7.2.5-3.1-.4-6.1-2.4-8.4-24.7-27.4-38.3-62.7-38.3-99.3zM576.8 39.4c-1.5-1.5-3.5-2.4-5.7-2.4s-4.2.9-5.7 2.4C541.3 64.1 528 96.7 528 131.1c0 34.4 13.3 66.9 37.4 91.6 1.5 1.5 3.5 2.4 5.7 2.4s4.2-.9 5.7-2.4c24.1-24.6 37.4-57.2 37.4-91.6-.1-34.5-13.3-67-37.4-91.7z"></path><path d="M510.6 131.1c0-36.7 13.5-72 38.1-99.3 2.1-2.3 3-5.4 2.4-8.4-.5-3.1-2.4-5.7-5.1-7.2C526.9 5.6 505.1 0 483.1 0c-21.8 0-43.4 5.5-62.4 15.8-2.7 1.5-4.6 4.1-5.1 7.2-.5 3.1.4 6.2 2.5 8.5 24.8 27.4 38.4 62.8 38.4 99.6s-13.6 72.2-38.4 99.6c-2.1 2.3-3 5.4-2.5 8.5.5 3.1 2.4 5.7 5.1 7.2 19 10.3 40.6 15.8 62.4 15.8 22 0 43.9-5.6 63.1-16.2 2.7-1.5 4.6-4.1 5.1-7.2.5-3.1-.4-6.1-2.4-8.4-24.7-27.4-38.3-62.7-38.3-99.3z"></path></svg>