<svg xmlns="http://www.w3.org/2000/svg" width="600" viewBox="0 0 600 466.66" height="466.66" style="overflow:visible;enable-background:new 0 0 600 466.66" xml:space="preserve"><path d="M348.66 0h236C593.14 0 600 6.87 600 15.33v36c0 8.47-6.86 15.33-15.33 15.33h-69.34C506.87 66.67 500 73.53 500 82v302.67c0 8.47 6.86 15.33 15.33 15.33h69.34c8.47 0 15.33 6.86 15.33 15.33v36c0 8.47-6.86 15.33-15.33 15.33h-236c-8.47 0-15.33-6.86-15.33-15.33v-36c0-8.47 6.86-15.33 15.33-15.33H418c8.47 0 15.33-6.86 15.33-15.33V215.33c0-8.47-6.86-15.33-15.33-15.33H315.33c-8.46 0-15.33 6.86-15.33 15.33v36c0 8.47 6.87 15.33 15.33 15.33h36c8.47 0 15.33 6.87 15.33 15.33v36c0 8.47-6.86 15.33-15.33 15.33H248.67c-8.47 0-15.33-6.86-15.33-15.33V148.67c0-8.47 6.86-15.33 15.33-15.33H418c8.47 0 15.33-6.86 15.33-15.33V82c0-8.46-6.86-15.33-15.33-15.33h-69.34c-8.47 0-15.33-6.86-15.33-15.33v-36c0-8.47 6.86-15.34 15.33-15.34m-97.32 0h-236C6.86 0 0 6.87 0 15.33v36c0 8.47 6.86 15.33 15.33 15.33h69.34C93.14 66.67 100 73.53 100 82v302.67c0 8.47-6.86 15.33-15.33 15.33H15.33C6.86 400 0 406.86 0 415.33v36c0 8.47 6.86 15.33 15.33 15.33h236c8.47 0 15.33-6.86 15.33-15.33v-36c0-8.47-6.86-15.33-15.33-15.33H182c-8.47 0-15.33-6.86-15.33-15.33V82c0-8.46 6.86-15.33 15.33-15.33h69.34c8.47 0 15.33-6.86 15.33-15.33v-36c0-8.47-6.86-15.34-15.33-15.34"></path></svg>