<svg data-name="Layer 1" xmlns="http://www.w3.org/2000/svg" viewBox="0 0 609.66 593.94"><path d="M191.62 21.76C143.45 41 101.29 72.08 68.85 111.5l83.75 63.52c64.89 50.89 101.97 127.09 101.97 209.25v209.67h8.51V371.6c0-99.02-16.84-196.51-50.07-289.77l-21.4-60.08ZM456.78 175.21l84.01-63.72c-32.44-39.42-74.61-70.5-122.78-89.73L396.6 81.85c-33.22 93.26-50.07 190.75-50.07 289.77v222.34h8.51V384.29c0-82.16 37.08-158.36 101.74-209.07Z"></path><path d="M382.43 9.97C357.65 3.48 331.65 0 304.83 0s-52.84 3.49-77.63 9.98l21.12 59.28c34.66 97.31 52.24 199.03 52.24 302.34v222.34h8.51V371.6c0-103.31 17.58-205.04 52.24-302.34l21.12-59.29ZM129.72 204.69l-82.8-62.8C20 184.23 3.21 233.63 0 286.72h97.16c61.47 0 111.48 50.01 111.48 111.48v195.74h8.47V384.27c0-70.57-31.85-136.03-87.39-179.59ZM562.73 141.87l-83.07 63c-55.3 43.37-87.15 108.83-87.15 179.4v209.67h8.51V398.2c0-61.47 50.01-111.48 111.48-111.48h97.16c-3.22-53.09-20.01-102.5-46.93-144.85Z"></path></svg>