<svg id="Layer_1" data-name="Layer 1" xmlns="http://www.w3.org/2000/svg" viewBox="0 0 553.44 603.75">   <rect y="452.81" width="50.31" viewBox="0 0 50.31 50.31" height="50.31"></rect>   <polygon points="100.62 503.13 150.94 503.13 150.94 352.19 0 352.19 0 402.5 100.62 402.5 100.62 503.13"></polygon>   <rect x="201.25" y="251.56" width="50.31" height="251.56"></rect>   <rect x="301.87" y="452.81" width="50.31" height="50.31"></rect>   <polygon points="452.81 503.13 452.81 352.19 301.87 352.19 301.87 402.5 402.5 402.5 402.5 503.13 452.81 503.13"></polygon>   <rect y="553.44" width="553.44" height="50.31"></rect>   <polygon points="0 0 0 301.88 150.94 301.88 150.94 201.25 301.87 201.25 301.87 301.88 503.12 301.88 503.12 352.19 553.44 352.19 553.44 0 0 0"></polygon>   <rect x="503.12" y="402.5" width="50.31" height="100.62"></rect> </svg>