<svg xmlns="http://www.w3.org/2000/svg" width="601.5" viewBox="0 0 601.5 536.2" height="536.2" xml:space="preserve"><path d="M395.2 139.4c-22.2 9.9-36.9 10.5-40 10.5l-126.2-.1H0v69.9l355.5.1c24.7 0 100.5-9.5 189.1-112.5-14.5-18-31.4-34.4-50.1-49-40.8 48.4-76.3 70.8-99.3 81.1z"></path><path d="M339 55.7c-12.2 8.6-26 11.5-36.6 12.3v70c20.9-.8 49.2-6 75.9-24.5 28.9-20 48.7-50.4 59.1-90.4-20.8-10-43-17.8-66.3-23.1-5.8 26-16.6 44.7-32.1 55.7zM206.3 396.8c22.2-9.9 36.9-10.5 40-10.5l355.3.1v-69.9l-355.5-.1c-24.7 0-100.5 9.5-189.1 112.5 14.5 18 31.4 34.4 50.1 49 40.8-48.5 76.2-70.9 99.2-81.1z"></path><path d="M579.2 161.7C493 233.7 425 233.3 422 233.2c0 0-241.6-.6-242.1-.6-15.1 0-89.6 3.7-179.9 70 3.7 24.8 11.3 49 22.3 71.8 86.2-72 154.2-71.6 157.2-71.5h242.1c15.1 0 89.6-3.1 179.9-69.4-3.7-24.8-11.2-49-22.3-71.8zM262.5 480.5c12.2-8.6 26-11.5 36.6-12.3v-70c-20.9.8-49.2 6-75.9 24.5-28.9 20-48.7 50.4-59.1 90.4 20.8 10 43 17.8 66.3 23.1 5.8-26 16.6-44.8 32.1-55.7z"></path></svg>