<svg xmlns="http://www.w3.org/2000/svg" width="622.2" viewBox="0 0 622.2 622.2" height="622.2" xml:space="preserve"><path d="M311.1 0C139.5 0 0 139.6 0 311.1c0 171.5 139.5 311.1 311.1 311.1 171.5 0 311.1-139.6 311.1-311.1C622.2 139.6 482.6 0 311.1 0zm258.1 285.3h-89.3c-32.4-49.4-84.5-81.8-143-89.2v-15.3c56.2-4.5 109.5-22.9 156.6-53.9 41.8 41.2 69.6 96.6 75.7 158.4zm-283.9 284c-41.4-4.1-80-18-113.4-39.3 34.8-20 73.2-32.2 113.4-36v75.3zm51.6-75.7c40.6 3.4 79.5 15.5 114.7 35.4-33.7 21.8-72.8 36-114.7 40.2v-75.6zm-26.1-115.5c-50.3 0-96.3-24.7-124.1-65.6 27.7-41.4 73.9-66.4 124.6-66.4 50.3 0 96.3 24.7 124.1 65.6-27.7 41.3-73.9 66.4-124.6 66.4zm26.1-325.2C378.5 57 417.3 71 450.8 92.5c-34.9 20.2-73.5 32.5-113.9 36.3V52.9zm-51.6 76.2c-40.8-3.4-79.9-15.5-115.2-35.7 33.8-22 73.1-36.3 115.2-40.5v76.2zm-157.8-1.2c47.4 30.9 101.2 49 157.7 53v15.2c-58.3 7.5-110.1 39.9-142.5 89.2H52.9c6.1-61.2 33.5-116.2 74.6-157.4zm-74.6 209H141c32.3 50.5 85 83.7 144.3 91.2V442c-56.1 4.5-109.3 22.8-156.2 53.7-42.1-41.4-70-96.9-76.2-158.8zm441.4 157.7c-47.3-30.7-101-48.7-157.4-52.8V428c59.1-7.6 111.5-40.7 143.8-91.1h88.6c-6.1 61.3-33.7 116.4-75 157.7z"></path><circle transform="rotate(-45.001 311.078 311.096)" cx="311.1" cy="311.1" r="56.4"></circle></svg>