<svg xmlns="http://www.w3.org/2000/svg" width="465.4" viewBox="0 0 465.4 621" height="621" xml:space="preserve" style="enable-background:new 0 0 465.4 621"><path d="M449.6 282.5h-52.3v-65.6c0-90.8-73.8-164.6-164.6-164.6S68.1 126.1 68.1 216.9v65.6H15.9v-65.6C15.9 97.3 113.1 0 232.7 0c119.6 0 216.9 97.3 216.9 216.9v65.6zM0 297.4h108.3V621H0zM465.4 517 334.8 297.4h130.6zM230.2 401.5 360.9 621H230.2zM314.4 297.4h-84.2v69.2L381.7 621h83.7v-69.9zM129.4 297.4v161.8c44.7 0 80.9-36.2 80.9-80.9s-36.2-80.9-80.9-80.9zM129.4 459.2V621c44.7 0 80.9-36.2 80.9-80.9s-36.2-80.9-80.9-80.9z"></path></svg>