<svg data-name="Layer 1" xmlns="http://www.w3.org/2000/svg" viewBox="0 0 602.44 596.28"><path d="M390.31 0v183.54C351.32 144.75 234.68 28.64 212.85 6.13 209.02 2.18 203.87 0 198.36 0H0v16.08h198.37c1.12 0 2.17.44 2.95 1.24 25.84 26.64 183.45 183.38 190.13 190.02 1.68 1.68 3.9 2.57 6.17 2.57 1.12 0 2.26-.22 3.35-.67 3.3-1.37 5.43-4.56 5.43-8.14V16.08h196.05V0H390.33ZM390.31 569.92c-38.99-38.79-155.63-154.91-177.46-177.42-3.83-3.95-8.98-6.13-14.49-6.13H0v16.08h198.37c1.12 0 2.17.44 2.95 1.24 25.84 26.64 183.45 183.38 190.13 190.02 1.68 1.68 3.9 2.57 6.17 2.57 1.12 0 2.26-.22 3.35-.67 3.3-1.37 5.43-4.56 5.43-8.14V402.45h196.05v-16.08H390.33v183.54Z"></path></svg>