<svg xmlns="http://www.w3.org/2000/svg" width="608.6" viewBox="0 0 608.6 608.6" height="608.6" xml:space="preserve"><path d="M194.3 0h-15.8c0 98.5-80.1 178.6-178.6 178.6v15.8c107.2-.1 194.4-87.3 194.4-194.4z"></path><path d="M260.8 0h-29.9c0 127.3-103.5 230.8-230.8 230.8v29.9c143.7.1 260.7-116.9 260.7-260.7z"></path><path d="M352.7 0h-55.2C297.5 164.1 164 297.6-.1 297.6v55.2c94.2 0 182.8-36.7 249.4-103.3S352.7 94.2 352.7 0z"></path><path d="M447.8 0H380c0 101.5-39.5 197-111.3 268.7S101.5 380.1 0 380.1v67.8c119.6 0 232.1-46.6 316.7-131.2C401.2 232.1 447.8 119.6 447.8 0z"></path><path d="M430.4 430.4c55.9-55.9 99.7-121 130.4-193.4 31.7-75.2 47.8-154.9 47.8-237H470c0 125.5-48.9 243.5-137.6 332.3C243.6 421.1 125.5 470 0 470v138.7c11.6 0 23.1-.3 34.6-1h573.7V476.9h-230c18.1-14.5 35.5-30 52.1-46.5zM61.5 122.9c33.9 0 61.5-27.5 61.5-61.5S95.4 0 61.5 0C27.5 0 0 27.5 0 61.5s27.5 61.4 61.5 61.4z"></path></svg>