<svg id="Layer_1" data-name="Layer 1" xmlns="http://www.w3.org/2000/svg" viewBox="0 0 608.25 619.82">   <defs>        </defs>   <ellipse class="cls-1" cx="136.22" cy="302.84" rx="136.22" ry="22.7"></ellipse>   <path class="cls-1" d="M608.25,305.41c0-33.82-60.95-61.23-136.14-61.25,1.62-1.53,3.23-3.09,4.82-4.69,53.2-53.2,72.52-120.12,43.15-149.49-29.36-29.36-96.29-10.04-149.49,43.15-4.18,4.18-8.12,8.45-11.88,12.77,.09-3.21,.15-6.43,.15-9.7C358.87,60.99,334.94,0,305.41,0s-53.46,60.99-53.46,136.22c0,38.94,6.42,74.04,16.71,98.87-13.53-21.05-34.61-46.77-60.4-72.55-53.2-53.2-106.15-86.49-118.27-74.37-12.12,12.13,21.17,65.08,74.37,118.27,53.2,53.2,106.15,86.49,118.27,74.37,3.98-3.98,3.04-12.39-1.88-23.75,7.38,9.8,15.77,15.37,24.67,15.37,4.38,0,8.62-1.37,12.7-3.9,2.23,5.31,5.31,10.06,9.34,14.09,3.53,3.53,7.62,6.34,12.14,8.49-2.44,4.59-3.77,9.37-3.77,14.3,0,6.87,2.55,13.47,7.2,19.64-7.87-1.78-13.88-1.11-17.39,2.4-14.1,14.1,17.59,68.66,70.78,121.86,53.2,53.2,107.75,84.89,121.86,70.78,14.1-14.1-17.59-68.66-70.78-121.86-15.47-15.47-31.05-29.1-45.72-40.34,20.52,5.57,44.56,8.77,70.27,8.77,75.23,0,136.22-27.42,136.22-61.25Z"></path>   <path class="cls-1" d="M302.84,324.25c-9.17,0-16.6,66.17-16.6,147.78s7.43,147.78,16.6,147.78,16.6-66.17,16.6-147.78-7.43-147.78-16.6-147.78Z"></path> </svg>