<svg data-name="Layer 1" xmlns="http://www.w3.org/2000/svg" viewBox="0 0 614.85 572.68"><path d="M307.29 110.03s.09-.1.14-.14c.05.05.09.1.14.14-.02-.06-.05-.12-.08-.19h-.01l.09-.09c-.05.02-.09.05-.14.07-.05-.02-.09-.05-.14-.07l.09.09h-.01c-.02.06-.05.12-.08.19Z"></path><path d="M307.42 110.86c-.44-.55-.88-1.1-1.3-1.66.33.68.67 1.36 1.01 2.03-.34.43-.67.86-1.01 1.29.41-.17.81-.35 1.22-.53.03-.06.06-.11.08-.17.03.06.06.11.08.17.41.18.81.36 1.22.53-.34-.42-.67-.86-1.01-1.29.34-.68.68-1.35 1.01-2.03-.43.56-.87 1.11-1.3 1.66ZM265.89 297.29l-97.41-85.18c17.96 41.14 53.65 72.73 97.41 85.18ZM446.37 212.11l-97.41 85.18c43.77-12.45 79.45-44.04 97.41-85.18ZM292.15 302.33 184.2 63.3a150.794 150.794 0 0 0-26.06 62.03L289.9 302.07c.75.09 1.49.2 2.24.27ZM324.94 302.06 456.7 125.32c-3.98-22.84-13.07-43.92-26.06-62.03L322.7 302.33c.75-.08 1.49-.19 2.24-.27ZM339.08 299.76l111.05-97.1c5.73-15.98 8.87-33.19 8.87-51.14 0-6.7-.48-13.28-1.32-19.75L331.37 301.2c2.6-.41 5.17-.89 7.72-1.44ZM275.76 299.76c2.55.54 5.12 1.02 7.72 1.44L157.17 131.77c-.84 6.47-1.32 13.05-1.32 19.75 0 17.95 3.14 35.16 8.87 51.14l111.05 97.1ZM309.74 0v303.04c.28 0 .55-.02.82-.02l60.33-289.15C352.24 5.26 331.56.33 309.74 0ZM299.51 302.89 239.64 15.95c-20.52 10.28-38.37 25.07-52.27 43.09l110.05 243.7c.7.05 1.39.12 2.1.16ZM304.28 303.02c.27 0 .55.02.82.02V0c-21.81.33-42.5 5.26-61.15 13.87l60.33 289.14ZM317.43 302.73l110.05-243.7c-13.9-18.02-31.75-32.81-52.27-43.09l-59.87 286.95c.7-.04 1.4-.11 2.1-.16ZM480.33 270.5c-44.61-5.03-89.81 10.07-122.49 41.73l122.49-41.73ZM341.3 511.11l-25.01-126.96c-11.12 44.12-1.62 90.82 25.01 126.96ZM340.34 332.44l260.97 26.12c-9.18-20.3-22.88-38.71-40.67-53.59l-218.95 25.67c-.45.6-.92 1.19-1.36 1.8ZM324.17 360.97l87.11 202.51a150.678 150.678 0 0 0 66.74 8.47L325.05 358.9c-.31.69-.58 1.38-.88 2.08ZM319.09 374.37l28.52 144.73a151.32 151.32 0 0 0 39.84 33.26c5.8 3.35 11.74 6.23 17.76 8.74L321.7 366.97c-.94 2.45-1.81 4.92-2.62 7.4ZM345.66 325.51l209.89-24.6c-5.18-3.97-10.64-7.68-16.44-11.03a151.396 151.396 0 0 0-48.72-17.91l-139.63 47.58a153.78 153.78 0 0 0-5.1 5.96ZM330.53 348.05 550.7 544.94c16.79-11.84 31.41-27.28 42.61-46.01L330.92 347.32l-.39.72ZM603.42 363.44l-266.06-26.63c-.39.58-.8 1.14-1.19 1.74l278.41 91.72c1.37-22.91-2.51-45.77-11.15-66.82ZM333.25 343.31l262.39 151.61c10.63-19.05 16.71-39.43 18.58-59.89l-280.54-92.42c-.14.24-.29.47-.43.7ZM327.35 354.13 483.3 571.34a152.106 152.106 0 0 0 63.46-23.71l-218.5-195.4c-.32.63-.6 1.27-.91 1.9ZM134.51 270.5 257 312.23c-32.67-31.67-77.88-46.76-122.49-41.73ZM273.54 511.11c26.63-36.14 36.13-82.84 25.01-126.96l-25.01 126.96ZM273.15 330.64 54.2 304.97c-17.79 14.88-31.49 33.29-40.67 53.59l260.97-26.12c-.44-.61-.91-1.2-1.36-1.8ZM289.79 358.9 136.82 571.95c22.18 2.19 44.97-.49 66.74-8.47l87.11-202.51c-.3-.69-.57-1.39-.88-2.08ZM293.14 366.97 209.63 561.1c6.02-2.51 11.96-5.38 17.76-8.74a151.32 151.32 0 0 0 39.84-33.26l28.52-144.73c-.81-2.48-1.68-4.95-2.62-7.4ZM264.08 319.54l-139.63-47.58c-16.7 3.04-33.18 8.93-48.72 17.91-5.8 3.35-11.26 7.06-16.44 11.03l209.89 24.6c-1.66-2.04-3.36-4.03-5.1-5.96ZM283.92 347.32 21.53 498.93c11.2 18.72 25.82 34.17 42.61 46.01l220.17-196.89-.39-.72ZM277.49 336.81 11.42 363.44C2.78 384.49-1.1 407.35.27 430.26l278.41-91.72c-.38-.59-.8-1.15-1.19-1.74ZM281.17 342.61.63 435.02c1.87 20.46 7.95 40.84 18.58 59.89L281.6 343.3c-.14-.24-.29-.47-.43-.7ZM286.59 352.24l-218.5 195.4c19.17 12.63 40.91 20.68 63.46 23.71L287.5 354.14c-.31-.63-.59-1.27-.91-1.9Z"></path></svg>