<svg data-name="Layer 1" xmlns="http://www.w3.org/2000/svg" viewBox="0 0 594.92 515.22"><path d="M256.91 0 54.09 351.29l27.04 46.85L311 0h-54.09zM189.49 304.14l-81.31 140.84 27.04 46.84 81.32-140.84-27.05-46.84zM337.86 140.84 419.18 0h-54.09l-81.32 140.84h54.09zM148.73 0 0 257.61l27.04 46.84L202.82 0h-54.09zM567.91 210.82l-175.75 304.4h54.03l148.73-257.61-27.01-46.79zM513.82 117.13 283.98 515.22h54.09l202.79-351.24-27.04-46.85zM405.46 211.13l81.31-140.84-27.04-46.84-81.32 140.84 27.05 46.84zM257.12 374.37l-81.31 140.85h54.09l81.31-140.85h-54.09zM257.18 187.83l-40.29 69.78 40.29 69.77h80.57l40.28-69.77-40.28-69.78h-80.57z"></path></svg>