<svg data-name="Layer 1" xmlns="http://www.w3.org/2000/svg" viewBox="0 0 545.19 604.86"><path d="M499.37 292.5v-34.93c0-54.81-20.91-109.63-62.73-151.44-22.67-22.68-49.16-39.19-77.41-49.56h.01c-30.96-11.56-59.98-29.8-84.87-54.69-.61-.61-1.18-1.26-1.79-1.88-.6.62-1.17 1.27-1.78 1.88-24.89 24.89-53.91 43.12-84.86 54.7-28.24 10.36-54.73 26.87-77.41 49.55-41.82 41.82-62.73 96.63-62.73 151.44v34.93L0 254.06v110.21c0 39.34 14.19 77.35 39.95 107.04 25.43 29.3 60.46 48.64 98.65 54.45l.51.09.25.04.25.04c41.11 6.17 78.56 25 108.29 54.46l24.71 24.47 24.7-24.47c29.73-29.46 67.18-48.29 108.29-54.46l.25-.04.24-.04.52-.09c38.19-5.82 73.21-25.15 98.64-54.45 25.77-29.69 39.95-67.7 39.95-107.04V254.06l-45.81 38.45Zm-226.78-88.59c78.97 0 144.67 56.66 158.76 131.54-16.62 6.33-34.13 10.37-52.16 11.95-41.33 3.37-79.24 22.54-106.6 52.13-27.37-29.59-65.27-48.76-106.6-52.13a194.122 194.122 0 0 1-52.16-11.95c14.09-74.88 79.79-131.54 158.76-131.54Zm237.49 160.35c0 64.28-47.28 117.52-108.98 126.82l-.74.12c-49.49 7.43-93.83 30.59-127.78 64.22-33.95-33.63-78.29-56.8-127.78-64.22l-.74-.12c-61.69-9.3-108.97-62.55-108.97-126.82v-34.93c35.24 29.57 79.44 48.83 127.96 53.05 50.33 4.08 92.42 37.23 109.53 82.63 17.11-45.4 59.21-78.56 109.54-82.63 48.51-4.22 92.71-23.47 127.96-53.05v34.93Z"></path></svg>