<svg data-name="Layer 1" xmlns="http://www.w3.org/2000/svg" viewBox="0 0 621.78 621.78"><path d="M177.47 381.39c0-41.32 33.62-74.94 74.94-74.94h54.02v-63.64h-54.02c-76.54 0-138.59 62.05-138.59 138.59v79.7c-31.85-41.68-50.85-93.69-50.85-150.2 0-136.92 110.99-247.91 247.91-247.91 20.34 0 40.05 2.57 58.96 7.21v150.53c0 12.14-9.93 22.07-22.07 22.07h-32.46v63.64h52.11c36.42 0 66.06-29.64 66.06-66.06V25.15C395.87 8.99 354.43 0 310.89 0 139.19 0 0 139.19 0 310.89 0 434.83 72.54 541.8 177.47 591.74V381.39Z"></path><path d="M442.37 29.17v211.22c0 41.32-33.62 74.94-74.94 74.94h-52.11v63.64h52.11c76.54 0 138.58-62.05 138.58-138.59V158.2c33.01 42.09 52.78 95.04 52.78 152.69 0 136.92-110.99 247.91-247.91 247.91-21.03 0-41.4-2.74-60.89-7.68V401.04c0-12.14 9.93-22.07 22.07-22.07h34.37v-63.64h-54.02c-36.42 0-66.06 29.64-66.06 66.06v214.36c38.14 16.7 80.24 26.02 124.53 26.02 171.7 0 310.89-139.19 310.89-310.89 0-124.69-73.44-232.18-179.4-281.72Z"></path></svg>