<svg data-name="Layer 1" xmlns="http://www.w3.org/2000/svg" viewBox="0 0 604.83 604.94"><path d="m230.64 449.59-68.44 68.68c35.43 35.38 79.34 61.1 127.53 74.7 104.94 30.44 218.14 1.85 296.05-74.76l-68.56-68.62c-79.9 77.27-206.68 77.27-286.58 0ZM155.09 231.34l-68.32-68.5c-115.69 117.75-115.69 306.49 0 424.25l68.62-69.05h-.3c-77.54-79.84-77.54-206.86 0-286.7ZM517.76 443.34c115.95-117.66 116.11-306.57.36-424.43L449.5 87.59c37.17 40.51 57.81 87.81 57.75 143.5-.06 55.69-20.83 102.87-58.12 143.56l68.62 68.68ZM373.47 155.49l69.35-68.38c-117.76-116.15-306.97-116.15-424.73 0l68.5 68.87c79.79-77.64 206.83-77.85 286.88-.49ZM298.89 374.78c-22.83-23.2-45.36-46.15-68.14-69.23-36.74 38.39-36.9 98.85-.36 137.43 22.96-22.65 45.91-45.36 68.5-68.2ZM374.38 162.84l-68.62 68.5 68.14 68.14c36.61-38.11 36.83-98.27.49-136.64ZM162.2 230.97l68.44 68.14 67.95-67.77c-37.99-36.73-98.21-36.89-136.4-.36ZM442.03 374.84l-68.5-68.5c-22.59 22.67-45.3 45.38-68.14 68.14 38.23 36.36 98.21 36.52 136.64.36Z"></path></svg>