<svg xmlns="http://www.w3.org/2000/svg" width="618.4" viewBox="0 0 618.4 572.5" height="572.5" xml:space="preserve" style="enable-background:new 0 0 618.4 572.5"><path d="M618.4 300.3 510.2 572.5H287.9c-59.7 0-78.7-30.2-78.7-30.2-6.6-7.1-9.8-16.9-11.4-25.9-2.6-15.2 1.3-30 6.5-44.1 4.8-13 13.1-26.9 11.6-41.2-.5-5-2.6-9.7-7.3-13.5-4.3-3.5-9.7-3.2-15.8-3.2h-55.1l68.9 158h-97.1L0 301.7h219.7c41.3.7 43.9 39.3 43.9 39.3 2.6 17.7-7.9 36.7-7.9 36.7l-12.5 25.6c-1.5 3.8-2.6 7.2-3.2 10.1-2.7 12.3 4.3 26.2 17 30.9 7.3 2.7 14.4 2.3 14.4 2.3h205.3l16.4-40H307.5c-16.5 0-30.7-11.7-34.9-27.3-9.1-33.9 39.2-64.7 25.2-95.4-5.3-11.6-20.3-11.8-32.2-11.8H0L108.2 0h238c22.6 0 43.7 5.1 60.5 20.7 21.9 20.5 19.6 51.3 10.2 77.4l-6.4 18c-4 8.9-9.7 22.6-3.9 31.8 6.7 10.5 22.5 10.1 33.4 10.1h40.7L415.8 0h93.1l109.5 270.8H410.5c-52.5-3.3-53.8-39.3-53.8-39.3-2.6-17.7 7.9-36.7 7.9-36.7l12.5-25.6c1.5-3.8 2.6-7.2 3.2-10.1 2.8-13.1-4.3-26.2-17-30.9-7.3-2.7-14.4-2.3-14.4-2.3H151.5l-16.4 40h177.7s14.6-.6 25.2 10.2c9.6 9.8 13.1 24.2 10.1 37.4-1.3 5.7-3.9 13.5-8.4 23.9-6.7 15.3-19 34.2-11.2 51.2 5.3 11.6 20.3 11.8 32.2 11.8h257.7z"></path></svg>