<svg xmlns="http://www.w3.org/2000/svg" width="496.9" viewBox="0 0 496.9 619.8" height="619.8" xml:space="preserve"><path d="M491.8 329.6c7-32.9 6.8-67.6 0-100.5h-.2c-1.5-7.1-3.1-14.2-5.2-21H186.3v-19.3h293.4C456.6 130.1 411 81.4 353.9 54.5c-58.4-27.5-126.8-31-187.7-9.6C84.9 73.6 22.6 144.7 5.1 229.2c-1.8 8.5-3 17.1-3.9 25.7v.2c-1.6 16.2-1.6 32.4 0 48.5v.2c1 8.6 2.2 17.3 3.9 25.8h.1c1.3 6.3 2.8 12.5 4.5 18.6h301.7v19.3H16.2C38.7 426.7 84 475.9 141 503.4c58.2 28.1 126.7 32.1 187.9 11.1 82.1-28.2 145.2-99.8 162.9-184.9"></path><path d="M496.5 178.4V0h-238v11.8c104 3.9 198.8 70.1 238 166.6 0 0-13.3-32.7 0 0zM239.2 11.8V0H1.2v176.2c39.9-95.7 134.5-160.9 238-164.4 0 0-68.1 2.3 0 0zM258.5 546.9v11.5h238v-178c-39.2 96.5-134 162.7-238 166.5 0 0 67.7-2.5 0 0zM258.5 619.8h238v-42h-238v42zM1.2 382.6v237.2h238V547c-103.6-3.5-198.1-68.7-238-164.4 0 0 13.3 31.8 0 0z"></path></svg>