<svg xmlns="http://www.w3.org/2000/svg" width="622.4" viewBox="0 0 622.4 622.4" height="622.4" xml:space="preserve" style="enable-background:new 0 0 622.4 622.4"><path d="M0 0h195v195H0zM213.7 0h195v195h-195zM427.5 0h195v195h-195zM0 213.7h195v195H0zM213.7 213.7h195v195h-195zM0 427.5h195v195H0zM427.5 408.7h195v-195h-195v195zM439.6 225h170.6v170.6H439.6V225zM213.7 622.4h195v-195h-195v195zm12.2-182.8h170.6v170.6H225.9V439.6zM427.5 622.4h195v-195h-195v195zm12.1-182.8h170.6v170.6H439.6V439.6z"></path></svg>