<svg xmlns="http://www.w3.org/2000/svg" width="620.6" viewBox="0 0 620.6 620.6" height="620.6" xml:space="preserve" style="enable-background:new 0 0 620.6 620.6"><path d="M499.5 0H121.1C54.3 0 0 54.3 0 121.1v378.4c0 66.8 54.3 121.1 121.1 121.1h378.4c66.8 0 121.1-54.3 121.1-121.1V121.1C620.6 54.3 566.3 0 499.5 0zM597 499.5c0 53.8-43.7 97.5-97.5 97.5H121.1c-53.8 0-97.5-43.7-97.5-97.5V121.1c0-53.8 43.7-97.5 97.5-97.5h378.4c53.8 0 97.5 43.7 97.5 97.5v378.4z"></path><path d="m388 63.3-71.4 71.4H89.8v171.7h54.3l-81.2 81.2 169.7 169.7 71.4-71.4h226.8V314.2h-54.3l81.2-81.2L388 63.3zM113.4 282.8V158.4H293l-59.4 59.4 42 42h-15.8v23H113.4zm119.2 241.1L96.3 387.6l81.2-81.2h82.3v54.4h51.8l42 42-121 121.1zm50.8-186.7v-53.8h53.8v53.8h-53.8zm223.8.6v124.4H327.6l59.4-59.4-42-42h15.8v-23h146.4zm-64.1-23.6h-82.3v-54.4H309l-42-42L388 96.7 524.3 233l-81.2 81.2z"></path></svg>