<svg width="640" viewBox="0 0 640 573" height="573" xmlns="http://www.w3.org/2000/svg"><path d="M263.783 326.804a68.751 68.751 0 0 0 21.49 19.448l231.743 133.867-53.467 92.61-199.766-115.333V326.804Zm-6.847-68.536a68.775 68.775 0 0 0-6.096 28.339l-.065 267.63H143.84V323.57l113.096-65.302Zm329.014-45.78 53.468 92.61-199.766 115.334-113.096-65.29a68.85 68.85 0 0 0 27.587-8.89L585.95 212.489Zm-386.184-59.706 113.096 65.289a68.85 68.85 0 0 0-27.587 8.89L53.468 360.726 0 268.115l199.766-115.333ZM495.578 18.977v230.666l-113.096 65.303a68.775 68.775 0 0 0 6.096-28.34l.065-267.629h106.935ZM175.869.485l199.766 115.333v130.598a68.692 68.692 0 0 0-21.49-19.454L122.401 93.095 175.869.485Z"></path></svg>