<svg data-name="Layer 1" xmlns="http://www.w3.org/2000/svg" viewBox="0 0 619.11 614.59"><ellipse cx="295.16" cy="105.03" rx="119.63" ry="86" transform="rotate(-45 295.1558609 105.0324394)"></ellipse><ellipse cx="513.24" cy="105.87" rx="119.63" ry="86" transform="rotate(-45 513.24557431 105.8767223)"></ellipse><ellipse cx="296" cy="323.11" rx="119.63" ry="86" transform="rotate(-45 295.99803507 323.11359944)"></ellipse><ellipse cx="514.08" cy="323.95" rx="119.63" ry="86" transform="rotate(-45 514.0877485 323.95788232)"></ellipse><path d="M137.88 165c46.72-46.72 57.36-111.81 23.78-145.4S62.98-3.34 16.26 43.38C10.22 49.42 4.81 55.77 0 62.32v132.8c35.11 25.53 94.43 13.33 137.88-30.12ZM138.73 383.08c46.72-46.72 57.36-111.81 23.78-145.4-33.58-33.58-98.68-22.94-145.4 23.78C10.7 267.87 5.04 274.65 0 281.62v131.03c35 26.31 94.94 14.22 138.73-29.57ZM17.95 479.54C11.17 486.32 5.24 493.52 0 500.93v113.66h124.26c5.25-4.1 10.4-8.52 15.31-13.42 46.72-46.72 57.36-111.82 23.78-145.4-33.58-33.58-98.68-22.94-145.4 23.78ZM236.03 480.39c-41.98 41.98-54.72 98.74-32.51 134.2H343.4c4.88-3.88 9.68-8 14.26-12.58 46.72-46.72 57.36-111.82 23.78-145.4-33.58-33.58-98.68-22.94-145.4 23.78ZM599.51 457.45c-33.58-33.58-98.68-22.94-145.4 23.78-41.65 41.65-54.53 97.85-33.06 133.36h141.47c4.52-3.65 8.96-7.49 13.21-11.74 46.72-46.72 57.36-111.82 23.78-145.4Z"></path></svg>