<svg xmlns="http://www.w3.org/2000/svg" width="619.6" viewBox="0 0 619.6 619.6" height="619.6" xml:space="preserve" style="enable-background:new 0 0 619.6 619.6"><path d="M619.6 232.3H387.3V0l-77.5 224.2L232.3 0v232.3H0l224.2 77.5L0 387.3h232.3v232.3l77.5-224.2 77.5 224.2V387.3h232.3l-224.2-77.5 224.2-77.5zM385.4 385.4H234.2V234.2h151.2v151.2z"></path><circle transform="rotate(-67.5 309.781 309.778)" cx="309.8" cy="309.8" r="22.1"></circle><path d="M309.8 359.1c27.2 0 49.3-22.1 49.3-49.3 0-27.2-22.1-49.3-49.3-49.3s-49.3 22.1-49.3 49.3c0 27.2 22.1 49.3 49.3 49.3zm0-85.2c19.8 0 35.9 16.1 35.9 35.9 0 19.8-16.1 35.9-35.9 35.9s-35.9-16.1-35.9-35.9c0-19.8 16.1-35.9 35.9-35.9z"></path></svg>