<svg xmlns="http://www.w3.org/2000/svg" width="614.1" viewBox="0 0 614.1 613.6" height="613.6" xml:space="preserve" style="enable-background:new 0 0 614.1 613.6"><path d="M268.6 409.5c0 34.7-28.1 62.7-62.7 62.7s-62.7-28.1-62.7-62.7v-.1H1.9c0 112.7 91.4 204.1 204.1 204.1 112.7 0 204.1-91.4 204.1-204.1H268.6z"></path><path d="M204.1 268.3c-34.6 0-62.7-28.1-62.7-62.7s28.1-62.7 62.7-62.7V1.5C91.4 1.6 0 92.9 0 205.6c0 112.7 91.4 204.1 204.1 204.1V268.3zM410 345.5c34.7 0 62.7 28.1 62.7 62.7s-28.1 62.7-62.7 62.7v141.4c112.7 0 204.1-91.4 204.1-204.1S522.8 204 410 204v141.5z"></path><path d="M345.7 204.1c0-34.7 28.1-62.7 62.7-62.7s62.7 28.1 62.7 62.7v.1h141.4C612.5 91.4 521.1 0 408.4 0 295.7 0 204.3 91.4 204.3 204.1h141.4z"></path></svg>