<svg data-name="Layer 1" xmlns="http://www.w3.org/2000/svg" viewBox="0 0 582.88 582.88"><path d="M0 283.09h68.18c1.87-50.74 20.59-97.17 50.82-133.8 6.83-8.28 14.25-16.05 22.18-23.27a225.25 225.25 0 0 1 25.31-19.88 222.292 222.292 0 0 1 48.11-24.6c21.47-7.86 44.5-12.47 68.48-13.35V0C128.94 4.36 4.36 128.94 0 283.09ZM283.09 582.88V514.7c-23.98-.88-47.01-5.49-68.48-13.35a223.42 223.42 0 0 1-48.11-24.6c-5.94-4.02-11.69-8.31-17.2-12.86-2.76-2.28-5.46-4.62-8.11-7.02a223.728 223.728 0 0 1-22.18-23.27c-30.23-36.62-48.95-83.06-50.82-133.8H0c4.36 154.15 128.94 278.73 283.09 283.09ZM582.88 299.79H514.7c-2.01 54.56-23.52 104.14-57.84 141.9a225.74 225.74 0 0 1-31.71 28.82 222.957 222.957 0 0 1-56.87 30.84c-21.47 7.86-44.5 12.47-68.48 13.35v68.18c154.15-4.36 278.73-128.94 283.09-283.09Z"></path><path d="M509.09 299.79h-68.15c-.13 2.33-.3 4.66-.53 6.96a148.85 148.85 0 0 1-3.94 22.11c-6.77 26.32-20.52 49.83-39.15 68.46-3.39 3.39-6.94 6.61-10.63 9.66-7.4 6.1-15.39 11.51-23.87 16.12a148.73 148.73 0 0 1-13.09 6.31c-15.49 6.55-32.31 10.55-49.94 11.52v68.15c113.49-4.31 204.99-95.8 209.3-209.3ZM73.79 283.09h68.15c1.95-35.48 16.24-67.66 38.66-92.33 1.61-1.77 3.26-3.51 4.96-5.2 15.24-15.24 33.76-27.21 54.4-34.77 4.59-1.68 9.28-3.14 14.06-4.37a149.67 149.67 0 0 1 29.07-4.47V73.79C169.6 78.1 78.1 169.6 73.79 283.09ZM283.09 509.09v-68.15c-9.98-.55-19.71-2.06-29.07-4.47-4.78-1.23-9.48-2.69-14.06-4.37-54.85-20.08-94.66-71.34-98.01-132.31H73.79c4.31 113.49 95.81 204.99 209.3 209.3Z"></path><path d="M147.54 283.09h68.34c.68-6.18 2.08-12.14 4.15-17.79.43-1.16.88-2.32 1.36-3.45a75.3 75.3 0 0 1 7.01-12.92c1.37-2.02 2.83-3.98 4.38-5.85.77-.94 1.57-1.86 2.39-2.76 1.64-1.8 3.36-3.52 5.16-5.16 5.4-4.91 11.51-9.05 18.16-12.25a75.348 75.348 0 0 1 24.61-7.03v-68.34c-72.85 4.18-131.36 62.7-135.54 135.54ZM435.34 299.79H367c-3.86 35.31-31.89 63.34-67.2 67.2v68.34c72.85-4.18 131.36-62.7 135.54-135.54ZM283.09 435.34V367c-24.03-2.63-44.7-16.44-56.66-36.13a75.484 75.484 0 0 1-10.54-31.06h-68.34c4.18 72.85 62.7 131.36 135.54 135.54Z"></path><path d="M283.09 361.38V316.5c0-9.23-7.48-16.71-16.71-16.71H221.5c3.82 32.18 29.41 57.77 61.59 61.59ZM221.5 283.09h44.88c9.23 0 16.71-7.48 16.71-16.71V221.5c-32.18 3.82-57.77 29.41-61.59 61.59ZM361.38 299.79H316.5c-9.23 0-16.71 7.48-16.71 16.71v44.88c32.18-3.82 57.77-29.41 61.59-61.59Z"></path></svg>