<svg xmlns="http://www.w3.org/2000/svg" width="642" viewBox="0 0 642 401.25" height="401.25" data-name="Layer 1"><path d="M475.48 0 321 89.19C300.28 77.23 166.52 0 166.52 0L0 96.14v208.97l166.52 96.14S300.28 324.02 321 312.06l154.48 89.19L642 305.11V96.14L475.48 0ZM24.08 291.21V110.04L166.52 27.8l142.44 82.24v181.17l-142.44 82.24-142.44-82.24Zm593.85 0-142.44 82.24-142.44-82.24V110.04L475.48 27.8l142.44 82.24v181.17Z"></path><path d="M64.2 118.77h22.47V287.3H64.2zM181.75 287.3l.01-137.23h-.82L166.53 287.3h-23.3l-14.41-137.23H128l1.17 137.23H106.7l.03-168.53h34.84l12.9 122.78h.82l12.91-122.78h34.56l1.46 168.53h-22.47zM258.41 180.59v-38.01c0-3.85-3.15-6.93-7-6.93s-6.93 3.08-6.93 6.93v120.89c0 3.85 3.08 7 6.93 7s7-3.15 7-7v-37.94h22.47v40.06c0 13.8-11.11 24.91-24.85 24.91h-9.18c-13.74 0-24.85-11.11-24.85-24.91V140.4c0-13.74 11.11-24.85 24.85-24.85h9.18c13.74 0 24.85 11.11 24.85 24.85v40.13l-22.47.06Z"></path><path d="M582.73 162.8s-50.22-5.95-73.23 17.05c-14.24 14.24-17.25 35.4-9.17 52.64l-15.86 15.86v-67.74c17.91-6.48 30.73-23.6 30.74-43.75 0-32.53-39.72-63.84-39.72-63.84s-39.72 31.31-39.72 63.84c0 20.15 12.82 37.27 30.74 43.75v67.74l-15.86-15.86c8.08-17.24 5.07-38.4-9.17-52.64-23.01-23-73.23-17.05-73.23-17.05s-5.95 50.22 17.05 73.23c14.24 14.24 35.4 17.25 52.64 9.17l28.57 28.57v58.47h17.98v-58.47l28.57-28.57c17.24 8.08 38.4 5.07 52.64-9.17 23-23.01 17.05-73.23 17.05-73.23Z" style="fill-rule:evenodd"></path></svg>