<svg data-name="Layer 1" xmlns="http://www.w3.org/2000/svg" viewBox="0 0 604.22 596.75"><path d="m318.96 524.5 15.34 8.34V101.23l-15.34-8.35V524.5zM352.32 542.64l15.34 8.35V119.37l-15.34-8.34v431.61zM385.67 560.78l15.34 8.35V137.51l-15.34-8.34v431.61zM419.02 578.93l15.34 8.34V155.66l-15.34-8.35v431.62zM451.8 165.14v431.61l29-15.77V149.36l-29 15.78zM492.94 574.38l29-15.78V126.98l-29 15.78v431.62zM534.07 552l29.01-15.78V104.61l-29.01 15.77V552zM575.21 98v431.62l29.01-15.78V82.23L575.21 98z"></path><path d="M0 0v520.87h300.81V82.91L453.23 0H0z"></path></svg>