<svg id="Layer_1" data-name="Layer 1" xmlns="http://www.w3.org/2000/svg" viewBox="0 0 610.32 610.31">   <path d="M173.95,599.76V129.87c-7.62,6.92-15.15,14.07-22.57,21.5C5.84,296.9-43.29,483.74,41.64,568.67c68.84,68.84,204.63,49.6,331.11-37.65v-197.31l-198.8,266.04h0Z"></path>   <path d="M568.68,41.64C498.77-28.28,359.81-7.34,231.67,83.42V424.42L432.19,157.38l-1.51,328.18c9.57-8.48,19-17.35,28.27-26.62,145.54-145.54,194.67-332.37,109.73-417.31Zm-162.95,57.8c-22.43,0-40.62-18.19-40.62-40.62s18.19-40.62,40.62-40.62,40.62,18.19,40.62,40.62-18.19,40.62-40.62,40.62Z"></path> </svg>