<svg xmlns="http://www.w3.org/2000/svg" width="595.8" viewBox="0 0 595.8 595.8" height="595.8" xml:space="preserve" style="enable-background:new 0 0 595.8 595.8"><path d="M341.4 555.9C317.2 531.7 162.6 377 162.6 377c-14.1-14-29.6-17-43.6-17H62.1v12.2c7.7 0 17.1 4.8 24.8 12.5l186.2 186.2c11.2 11.2 24.9 24.8 49.6 24.8h74.5c24.8 0 38.1-13.3 49.6-24.8L580 437.7c10.2-10.2 15.7-24.5 15.7-43V335h-12.3c0 7.7-4.8 20.6-12.5 28.3L378.1 556.1c-16.2 16.5-19.8 16.7-36.7-.2z"></path><path d="M555.9 254.4C531.7 278.7 377 433.3 377 433.3c-14.1 14.1-17 29.6-17 43.6v56.9h12.2c0-7.7 4.8-17.1 12.5-24.8l186.2-186.2c11.2-11.2 24.8-24.9 24.8-49.7v-74.5c0-24.8-13.3-38.1-24.8-49.6-11.4-11.6-133.1-133.3-133.1-133.3C427.7 5.5 413.3 0 394.8 0h-59.7v12.3c7.7 0 20.6 4.8 28.3 12.5l192.8 192.8c16.4 16.3 16.6 19.9-.3 36.8z"></path><path d="m254.4 39.9 178.9 178.9c14.1 14.1 29.6 17 43.6 17h56.9v-12.3c-7.7 0-17.1-4.8-24.8-12.5L322.8 24.8C311.5 13.6 297.9 0 273.1 0h-74.5c-24.8 0-38.1 13.3-49.7 24.8C137.4 36.4 15.7 158 15.7 158 5.5 168.2 0 182.6 0 201v59.7h12.2c0-7.7 4.8-20.6 12.5-28.3 0 0 168-168.1 192.8-192.8 16.4-16.3 20-16.6 36.9.3z"></path><path d="m39.9 341.5 178.9-178.9c14.1-14.1 17-29.6 17-43.6V62.1h-12.3c0 7.7-4.8 17.1-12.5 24.8L24.8 273.1C13.6 284.3 0 298 0 322.7v74.5c0 24.8 13.3 38.1 24.8 49.6C36.4 458.4 158 580.1 158 580.1c10.2 10.2 24.5 15.7 43 15.7h59.7v-12.3c-7.7 0-20.6-4.8-28.3-12.5L39.6 378.2c-16.3-16.3-16.6-19.9.3-36.7z"></path></svg>