<svg data-name="Layer 1" xmlns="http://www.w3.org/2000/svg" viewBox="0 0 623.92 623.92"><path d="M593.04 281.08h-31.35C547.66 166.97 456.95 76.25 342.83 62.22V30.88C342.83 13.83 329 0 311.95 0s-30.88 13.83-30.88 30.88v31.35C166.96 76.26 76.24 166.97 62.21 281.09H30.88C13.83 281.09 0 294.92 0 311.97s13.83 30.88 30.88 30.88h31.35c14.03 114.11 104.74 204.83 218.86 218.86v31.34c0 17.05 13.83 30.88 30.88 30.88s30.88-13.83 30.88-30.88v-31.34c114.11-14.03 204.83-104.74 218.86-218.86h31.35c17.05 0 30.88-13.83 30.88-30.88s-13.83-30.88-30.88-30.88Zm-93.76 0H342.84V124.64c80 13.14 143.3 76.44 156.44 156.44Zm-218.2-156.44v156.44H124.64c13.14-80 76.44-143.3 156.44-156.44Zm-156.44 218.2h156.44v156.44c-80-13.14-143.3-76.44-156.44-156.44Zm218.2 156.44V342.84h156.44c-13.14 80-76.44 143.3-156.44 156.44Z"></path><circle cx="222.71" cy="401.21" r="39.17"></circle><circle cx="402.11" cy="221.81" r="39.17"></circle></svg>