<svg data-name="Layer 1" xmlns="http://www.w3.org/2000/svg" viewBox="0 0 617.7 617.65"><path d="M607.05 307.07v74.95c0 1.1 1.59 1.31 1.85.24 5.78-23.7 8.84-48.47 8.8-73.97C617.4 139.94 480.26 1.65 311.92.01 139.94-1.66 0 137.26 0 308.85c0 25.3 3.06 49.87 8.8 73.4.26 1.07 1.85.87 1.85-.24v-74.95c0-.52.42-.94.94-.94h5.66c.52 0 .94.42.94.94v106.23c0 .11.02.23.06.33 3.43 9.5 7.31 18.79 11.62 27.83.43.9 1.81.58 1.81-.42V307.06c0-.52.42-.94.94-.94h5.66c.52 0 .94.42.94.94v152.2c0 .16.04.33.12.47 3.65 6.51 7.52 12.88 11.62 19.09.51.78 1.75.4 1.75-.53V307.06c0-.52.42-.94.94-.94h5.66c.52 0 .94.42.94.94v184.71c0 .2.07.4.19.57 3.73 5.04 7.61 9.96 11.63 14.75.56.67 1.67.26 1.67-.61V307.07c0-.52.42-.94.94-.94h5.66c.52 0 .94.42.94.94v210.16c0 .24.09.47.25.64 3.77 4.1 7.65 8.09 11.63 11.98.6.58 1.61.15 1.61-.68V307.06c0-.52.42-.94.94-.94h5.66c.52 0 .94.42.94.94v230.93c0 .27.11.53.31.71 3.79 3.41 7.67 6.71 11.63 9.93.61.5 1.54.06 1.54-.74V307.06c0-.52.42-.94.94-.94h5.66c.52 0 .94.42.94.94v248.21c0 .3.14.58.38.76 3.81 2.86 7.68 5.63 11.62 8.31.63.43 1.48-.03 1.48-.79V307.07c0-.52.42-.94.94-.94h5.66c.52 0 .94.42.94.94v262.65c0 .33.17.63.44.81 3.82 2.4 7.7 4.72 11.63 6.95.63.36 1.42-.1 1.42-.83V307.07c0-.52.42-.94.94-.94h5.66c.52 0 .94.42.94.94V581.8c0 .35.2.68.51.84 3.83 2 7.71 3.93 11.63 5.78a.952.952 0 0 0 1.35-.86V307.07c0-.52.42-.94.94-.94h5.66c.52 0 .94.42.94.94v284.74c0 .38.23.72.57.87 3.84 1.65 7.71 3.22 11.63 4.72a.954.954 0 0 0 1.29-.89V307.07c0-.52.42-.94.94-.94h5.66c.52 0 .94.42.94.94v292.88c0 .4.26.76.64.9 3.84 1.33 7.72 2.58 11.63 3.76a.952.952 0 0 0 1.22-.91V307.07c0-.52.42-.94.94-.94h5.66c.52 0 .94.42.94.94v299.29c0 .43.29.81.7.92 3.85 1.03 7.72 1.98 11.63 2.86a.954.954 0 0 0 1.16-.92V307.07c0-.52.42-.94.94-.94h5.66c.52 0 .94.42.94.94v304.11c0 .45.32.84.77.93 3.85.74 7.73 1.42 11.63 2.02a.95.95 0 0 0 1.09-.94V307.07c0-.52.42-.94.94-.94h5.66c.52 0 .94.42.94.94v307.42c0 .48.36.88.83.94 3.86.47 7.73.86 11.63 1.19a.949.949 0 0 0 1.03-.94V307.07c0-.52.42-.94.94-.94h5.66c.52 0 .94.42.94.94v309.24c0 .5.39.92.9.95 3.86.2 7.74.33 11.63.39.53 0 .96-.42.96-.95V307.07c0-.52.42-.94.94-.94h5.66c.52 0 .94.42.94.94V616.7c0 .53.43.95.96.95 3.89-.06 7.77-.18 11.63-.37.5-.03.9-.44.9-.95V307.07c0-.52.42-.94.94-.94h5.66c.52 0 .94.42.94.94V615.7c0 .55.48.99 1.03.94 3.9-.32 7.77-.72 11.63-1.18a.95.95 0 0 0 .83-.94V307.07c0-.52.42-.94.94-.94h5.66c.52 0 .94.42.94.94v306.16c0 .58.52 1.02 1.09.94 3.9-.59 7.78-1.27 11.63-2 .45-.09.77-.48.77-.93V307.07c0-.52.42-.94.94-.94h5.66c.52 0 .94.42.94.94v302.21c0 .6.57 1.06 1.15.92 3.91-.88 7.78-1.82 11.63-2.85.41-.11.7-.49.7-.92V307.07c0-.52.42-.94.94-.94h5.66c.52 0 .94.42.94.94v296.71c0 .63.61 1.09 1.22.91 3.91-1.17 7.79-2.42 11.63-3.74a.95.95 0 0 0 .64-.9V307.07c0-.52.42-.94.94-.94h5.66c.52 0 .94.42.94.94v289.56c0 .66.67 1.12 1.29.89 3.91-1.49 7.79-3.06 11.63-4.71a.94.94 0 0 0 .57-.87V307.07c0-.52.42-.94.94-.94h5.66c.52 0 .94.42.94.94V587.7c0 .69.73 1.15 1.35.86 3.92-1.84 7.8-3.76 11.63-5.76.31-.16.51-.49.51-.84V307.07c0-.52.42-.94.94-.94h5.66c.52 0 .94.42.94.94v269.75c0 .72.79 1.18 1.42.83 3.93-2.23 7.81-4.54 11.63-6.94.28-.17.45-.48.45-.81V307.07c0-.52.42-.94.94-.94h5.66c.52 0 .94.42.94.94v256.69c0 .76.86 1.21 1.48.79 3.94-2.67 7.82-5.44 11.62-8.28.24-.18.38-.46.38-.76V307.08c0-.52.42-.94.94-.94h5.66c.52 0 .94.42.94.94v241.06c0 .79.93 1.24 1.55.74 3.96-3.21 7.83-6.51 11.62-9.9.2-.18.32-.44.32-.71V307.08c0-.52.42-.94.94-.94h5.66c.52 0 .94.42.94.94v222.39c0 .83 1.01 1.26 1.61.68 3.98-3.88 7.86-7.87 11.63-11.96.16-.18.25-.41.25-.64V307.08c0-.52.42-.94.94-.94h5.66c.52 0 .94.42.94.94v199.76c0 .88 1.11 1.29 1.67.61 4.02-4.78 7.9-9.68 11.63-14.71.12-.16.19-.36.19-.57v-185.1c0-.52.42-.94.94-.94H564c.52 0 .94.42.94.94v171.67c0 .93 1.23 1.31 1.75.53a316.27 316.27 0 0 0 11.62-19.01c.08-.14.12-.31.12-.47V307.07c0-.52.42-.94.94-.94h5.66c.52 0 .94.42.94.94v134.6c0 1 1.37 1.32 1.8.42 4.43-9.24 8.41-18.74 11.92-28.46a.96.96 0 0 0 .06-.33V307.07c0-.52.42-.94.94-.94h5.66c.52 0 .94.42.94.94Z"></path></svg>