<svg xmlns="http://www.w3.org/2000/svg" width="631.6" viewBox="0 0 631.6 527.4" height="527.4" xml:space="preserve" style="enable-background:new 0 0 631.6 527.4"><path d="M471.7 182.3h-98.5L500 324.2l-193.8.3c22-20.1 31.8-56.3 31.8-96.8h.2V172c0-51.4 41.8-93.2 93.2-93.2 51.4 0 93.2 41.8 93.2 93.2 0 1.9-.1 3.9-.2 5.8h78.9c.1-2 .1-3.9.1-5.8 0-94.8-77.2-172-172-172-94.9 0-172 77.2-172 172v55.8h-.2c0 47.9-37.6 87.2-84.8 90.1H169v.2c-49.8 0-90.2-40.5-90.2-90.2 0-12.1 2.4-24 7-35H2.1c-1.7 13-2.1 23.2-2.1 35 0 93.2 75.8 169 169 169 2.6 0 327.4-.2 327.4-.2L363.8 527.4H463l168.6-167-159.9-178.1z"></path></svg>