<svg data-name="Layer 1" xmlns="http://www.w3.org/2000/svg" viewBox="0 0 404.48 594.51"><path d="M297.25 0C133.35 0 0 133.35 0 297.26s133.35 297.26 297.25 297.26h107.22v-50.78H297.25c-135.91 0-246.47-110.57-246.47-246.47S161.35 50.78 297.25 50.78h107.22V0H297.25Z"></path><path d="M95.97 297.26c0 110.99 90.3 201.28 201.28 201.28h107.22v-50.78H297.25c-82.98 0-150.5-67.51-150.5-150.5s67.51-150.5 150.5-150.5h107.22V95.98H297.25c-110.99 0-201.28 90.3-201.28 201.28Z"></path><path d="M191.94 297.26c0 58.07 47.24 105.31 105.31 105.31h107.22v-50.78H297.25c-30.07 0-54.53-24.46-54.53-54.53s24.46-54.53 54.53-54.53h107.22v-50.78H297.25c-58.07 0-105.31 47.24-105.31 105.31Z"></path></svg>