<svg data-name="Layer 1" xmlns="http://www.w3.org/2000/svg" viewBox="0 0 548.16 484.01"><path d="M547.97 477.28 510.56 322.4c-3.82-15.54-17.75-26.46-33.75-26.46h-6.76c3.67-17.34 5.6-35.4 5.6-53.94.01-133.65-110.22-242-233.64-242v.39c-48.02 0-93.89 13.94-133.03 39.86-2.87 1.9-5.7 3.89-8.49 5.92l101.62 200.05c18.79 36.99 56.23 59.96 97.72 59.96h177c11.31 0 21.09 7.67 23.78 18.61l18.79 77.81H235.56c-3.94 0-7.54-2.31-9.19-5.89l-5.35-11.65-.08-.18-.09-.18L64.91 77.72c-2.51 2.7-4.94 5.45-7.31 8.25C20.61 129.55.39 184.21.39 242.01H0c0 133.66 108.35 242.01 242.01 242.01l300.94-.13c3.44 0 5.93-3.28 5.02-6.6Z"></path></svg>