<svg xmlns="http://www.w3.org/2000/svg" width="616.9" viewBox="0 0 616.9 620.4" height="620.4" xml:space="preserve" style="enable-background:new 0 0 616.9 620.4"><path d="M573 0H43.9C19.7 0 0 19.7 0 43.9v532.6c0 24.3 19.7 43.9 43.9 43.9H573c24.3 0 43.9-19.7 43.9-43.9V43.9C616.9 19.7 597.3 0 573 0zM308.5 559.1c-69.6 0-126-56.4-126-126s56.4-126 126-126 126 56.4 126 126c-.1 69.6-56.5 126-126 126zm132.2-121.8c0-1.4.1-2.8.1-4.2 0-73.1-59.3-132.4-132.4-132.4S176.1 360 176.1 433.1c0 1.3 0 2.6.1 4-.6 0-.8.1-.8.1-63.8-5.6-113.9-59.1-113.9-124.4 0-69 55.9-124.9 124.9-124.9 60 0 110.2 42.4 122.2 98.8 12-56.5 62.1-98.8 122.2-98.8 69 0 124.9 55.9 124.9 124.9-.2 65.6-50.7 119.3-115 124.5zm101.7-193.7c-23.2-37.4-64.6-62.3-111.8-62.3-54.2 0-102.5 33.7-122.2 82.7-19.7-49-68-82.7-122.2-82.7-47.2 0-88.6 25-111.8 62.3-8.4-16.8-13.1-35.7-13.1-55.7 0-69 55.9-124.9 124.9-124.9 60 0 110.2 42.4 122.2 98.8 12-56.5 62.1-98.8 122.2-98.8 69 0 124.9 55.9 124.9 124.9 0 20-4.7 38.9-13.1 55.7z"></path></svg>