<svg xmlns="http://www.w3.org/2000/svg" width="642" viewBox="0 0 642 552.12" height="552.12" data-name="Layer 1"><path d="m321 324.21 99.51 99.51h-52.16v128.4h88.28v-128.4c0-74.9-60.72-135.62-135.62-135.62s-135.62 60.72-135.62 135.62v128.4h88.28v-128.4h-52.16l99.51-99.51Z"></path><path d="m376.81 231.41 36.42-135.93 26.08 45.17 111.2-64.2L506.38 0l-111.2 64.2c-64.87 37.45-87.09 120.4-49.64 185.26 37.45 64.87 120.4 87.09 185.26 49.64L642 234.9l-44.14-76.45-111.2 64.2 26.08 45.17-135.93-36.42Z"></path><path d="M265.19 231.41 228.77 95.48l-26.08 45.17-111.2-64.2L135.62 0l111.2 64.2c64.87 37.45 87.09 120.4 49.64 185.26-37.45 64.87-120.4 87.09-185.26 49.64L0 234.91l44.14-76.45 111.2 64.2-26.08 45.17 135.93-36.42Z"></path></svg>