<svg id="Layer_1" data-name="Layer 1" xmlns="http://www.w3.org/2000/svg" viewBox="0 0 602.36 589.09">   <path d="M21.59,10.8C21.59,4.83,16.76,0,10.8,0S0,4.83,0,10.8c0,5.07,3.5,9.28,8.21,10.45V126.5C3.54,127.66,.07,131.85,.07,136.88v63.45c0,5.03,3.47,9.21,8.14,10.38v356.89H.05v21.49H21.54v-21.49H13.38V210.7c4.67-1.16,8.14-5.35,8.14-10.38v-63.45c0-5.03-3.47-9.21-8.14-10.38V21.24c4.71-1.16,8.21-5.38,8.21-10.45Z"></path>   <path d="M53.86,10.8c0-5.96-4.83-10.8-10.8-10.8s-10.79,4.83-10.79,10.8c0,5.07,3.5,9.28,8.21,10.45V126.5c-4.67,1.16-8.14,5.35-8.14,10.38v127.64c0,5.03,3.47,9.21,8.14,10.38v292.7h-8.16v21.49h21.49v-21.49h-8.16V274.89c4.67-1.16,8.14-5.35,8.14-10.38v-127.64c0-5.03-3.47-9.21-8.14-10.38V21.24c4.71-1.16,8.21-5.38,8.21-10.45Z"></path>   <path d="M86.12,10.8c0-5.96-4.83-10.8-10.8-10.8s-10.8,4.83-10.8,10.8c0,5.07,3.5,9.28,8.21,10.45V126.5c-4.67,1.16-8.14,5.35-8.14,10.38v191.94c0,5.03,3.47,9.21,8.14,10.38v228.4h-8.16v21.49h21.49v-21.49h-8.16v-228.4c4.67-1.16,8.14-5.35,8.14-10.38V136.88c0-5.03-3.47-9.21-8.14-10.38V21.24c4.71-1.16,8.21-5.38,8.21-10.45Z"></path>   <path d="M118.39,10.8c0-5.96-4.83-10.8-10.79-10.8s-10.8,4.83-10.8,10.8c0,5.07,3.5,9.29,8.21,10.45V126.5c-4.67,1.16-8.14,5.35-8.14,10.38V393.25c0,5.03,3.47,9.21,8.14,10.38v163.98h-8.16v21.49h21.49v-21.49h-8.16v-163.98c4.67-1.16,8.14-5.35,8.14-10.38V136.88c0-5.03-3.47-9.21-8.14-10.38V21.24c4.71-1.16,8.21-5.38,8.21-10.45Z"></path>   <path d="M150.65,10.8c0-5.96-4.83-10.8-10.8-10.8s-10.8,4.83-10.8,10.8c0,5.07,3.5,9.29,8.21,10.45V189.95c-4.67,1.16-8.14,5.35-8.14,10.38V457.52c0,5.03,3.47,9.21,8.14,10.38v99.71h-8.16v21.49h21.49v-21.49h-8.16v-99.71c4.67-1.16,8.14-5.35,8.14-10.38V200.33c0-5.03-3.47-9.21-8.14-10.38V21.24c4.71-1.16,8.21-5.38,8.21-10.45Z"></path>   <path d="M182.92,10.8c0-5.96-4.83-10.8-10.79-10.8s-10.8,4.83-10.8,10.8c0,5.07,3.5,9.29,8.21,10.45V252.9c-4.67,1.16-8.14,5.35-8.14,10.38v258.71c0,5.03,3.47,9.21,8.14,10.38v35.23h-8.16v21.49h21.49v-21.49h-8.16v-35.23c4.67-1.16,8.14-5.35,8.14-10.38V263.28c0-5.03-3.47-9.21-8.14-10.38V21.24c4.71-1.16,8.21-5.38,8.21-10.45Z"></path>   <path d="M215.18,10.8c0-5.96-4.83-10.8-10.8-10.8s-10.8,4.83-10.8,10.8c0,5.07,3.5,9.29,8.21,10.45V316.17c-4.67,1.16-8.14,5.35-8.14,10.38l-.02,251.77h0c0,5.94,4.81,10.75,10.75,10.75s10.75-4.81,10.75-10.75h0s-.02-251.77-.02-251.77c0-5.03-3.47-9.21-8.14-10.38V21.24c4.71-1.16,8.21-5.38,8.21-10.45Z"></path>   <path d="M247.45,10.8c0-5.96-4.83-10.8-10.8-10.8s-10.8,4.83-10.8,10.8c0,5.07,3.5,9.29,8.21,10.45V379.3c-4.67,1.16-8.14,5.35-8.14,10.38l-.02,188.65h0c0,5.94,4.81,10.75,10.75,10.75s10.75-4.81,10.75-10.75h0s-.02-188.65-.02-188.65c0-5.03-3.47-9.21-8.14-10.38V21.24c4.71-1.16,8.21-5.38,8.21-10.45Z"></path>   <path d="M279.71,10.8c0-5.96-4.83-10.8-10.8-10.8s-10.8,4.83-10.8,10.8c0,5.07,3.5,9.29,8.21,10.45V442.62c-4.67,1.16-8.14,5.35-8.14,10.38l-.02,125.33h0c0,5.94,4.81,10.75,10.75,10.75s10.75-4.81,10.75-10.75h0s-.02-125.33-.02-125.33c0-5.03-3.47-9.21-8.14-10.38V21.24c4.71-1.16,8.21-5.38,8.21-10.45Z"></path>   <path d="M594.15,210.7c4.67-1.16,8.14-5.35,8.14-10.38v-63.45c0-5.03-3.47-9.21-8.14-10.38V21.24c4.71-1.16,8.21-5.38,8.21-10.45,0-5.96-4.83-10.8-10.8-10.8s-10.8,4.83-10.8,10.8c0,5.07,3.5,9.28,8.21,10.45V126.5c-4.67,1.16-8.14,5.35-8.14,10.38v63.45c0,5.03,3.47,9.21,8.14,10.38v356.89h-8.16v21.49h21.49v-21.49h-8.16V210.7Z"></path>   <path d="M570.1,10.8c0-5.96-4.83-10.8-10.79-10.8s-10.8,4.83-10.8,10.8c0,5.07,3.5,9.29,8.21,10.45V126.5c-4.67,1.16-8.14,5.35-8.14,10.38v127.64c0,5.03,3.47,9.21,8.14,10.38v292.7h-8.16v21.49h21.49v-21.49h-8.16V274.89c4.67-1.16,8.14-5.35,8.14-10.38v-127.64c0-5.03-3.47-9.21-8.14-10.38V21.24c4.71-1.16,8.21-5.38,8.21-10.45Z"></path>   <path d="M537.83,10.8c0-5.96-4.83-10.8-10.8-10.8s-10.8,4.83-10.8,10.8c0,5.07,3.5,9.28,8.21,10.45V126.5c-4.67,1.16-8.14,5.35-8.14,10.38v191.94c0,5.03,3.47,9.21,8.14,10.38v228.4h-8.16v21.49h21.49v-21.49h-8.16v-228.4c4.67-1.16,8.14-5.35,8.14-10.38V136.88c0-5.03-3.47-9.21-8.14-10.38V21.24c4.71-1.16,8.21-5.38,8.21-10.45Z"></path>   <path d="M505.57,10.8c0-5.96-4.83-10.8-10.8-10.8s-10.79,4.83-10.79,10.8c0,5.07,3.5,9.28,8.21,10.45V126.5c-4.67,1.16-8.14,5.35-8.14,10.38V393.25c0,5.03,3.47,9.21,8.14,10.38v163.98h-8.16v21.49h21.49v-21.49h-8.16v-163.98c4.67-1.16,8.14-5.35,8.14-10.38V136.88c0-5.03-3.47-9.21-8.14-10.38V21.24c4.71-1.16,8.21-5.38,8.21-10.45Z"></path>   <path d="M473.3,10.8c0-5.96-4.83-10.8-10.8-10.8s-10.8,4.83-10.8,10.8c0,5.07,3.5,9.28,8.21,10.45V189.95c-4.67,1.16-8.14,5.35-8.14,10.38V457.52c0,5.03,3.47,9.21,8.14,10.38v99.71h-8.16v21.49h21.49v-21.49h-8.16v-99.71c4.67-1.16,8.14-5.35,8.14-10.38V200.33c0-5.03-3.47-9.21-8.14-10.38V21.24c4.71-1.16,8.21-5.38,8.21-10.45Z"></path>   <path d="M441.04,10.8c0-5.96-4.83-10.8-10.8-10.8s-10.79,4.83-10.79,10.8c0,5.07,3.5,9.28,8.21,10.45V252.9c-4.67,1.16-8.14,5.35-8.14,10.38v258.71c0,5.03,3.47,9.21,8.14,10.38v35.23h-8.16v21.49h21.49v-21.49h-8.16v-35.23c4.67-1.16,8.14-5.35,8.14-10.38V263.28c0-5.03-3.47-9.21-8.14-10.38V21.24c4.71-1.16,8.21-5.38,8.21-10.45Z"></path>   <path d="M408.77,10.8c0-5.96-4.83-10.8-10.8-10.8s-10.8,4.83-10.8,10.8c0,5.07,3.5,9.28,8.21,10.45V316.17c-4.67,1.16-8.14,5.35-8.14,10.38l-.02,251.77h0c0,5.94,4.81,10.75,10.75,10.75s10.75-4.81,10.75-10.75h0s-.02-251.77-.02-251.77c0-5.03-3.47-9.21-8.14-10.38V21.24c4.71-1.16,8.21-5.38,8.21-10.45Z"></path>   <path d="M376.51,10.8c0-5.96-4.83-10.8-10.8-10.8s-10.8,4.83-10.8,10.8c0,5.07,3.5,9.28,8.21,10.45V379.3c-4.67,1.16-8.14,5.35-8.14,10.38l-.02,188.65c0,5.93,4.81,10.75,10.75,10.75s10.75-4.81,10.75-10.75l-.02-188.65c0-5.03-3.47-9.21-8.14-10.38V21.24c4.71-1.16,8.21-5.38,8.21-10.45Z"></path>   <path d="M344.24,10.8c0-5.96-4.83-10.8-10.8-10.8s-10.8,4.83-10.8,10.8c0,5.06,3.5,9.28,8.21,10.45V442.62c-4.67,1.16-8.14,5.35-8.14,10.38l-.02,125.33h0c0,5.94,4.81,10.75,10.75,10.75s10.75-4.81,10.75-10.75h0s-.02-125.33-.02-125.33c0-5.03-3.47-9.21-8.14-10.38V21.24c4.71-1.16,8.21-5.38,8.21-10.45Z"></path>   <path d="M311.98,10.8c0-5.96-4.83-10.8-10.8-10.8s-10.8,4.83-10.8,10.8c0,5.07,3.5,9.28,8.21,10.45V505.84c-4.67,1.16-8.14,5.35-8.14,10.38l-.02,62.11h0c0,5.94,4.81,10.75,10.75,10.75s10.75-4.81,10.75-10.75h0s-.02-62.11-.02-62.11c0-5.03-3.47-9.21-8.14-10.38V21.24c4.71-1.16,8.21-5.38,8.21-10.45Z"></path> </svg>