<svg xmlns="http://www.w3.org/2000/svg" width="555.97" viewBox="0 0 555.97 642" height="642" data-name="Layer 1"><path d="m555.97 160.5-96.3-55.6-85.39 49.31V55.6L277.99 0l-96.3 55.6v98.61L96.3 104.9 0 160.5v111.19L85.39 321 0 370.31V481.5l96.3 55.6 85.39-49.31v98.61l96.3 55.6 96.3-55.6v-98.61l85.39 49.31 96.3-55.6V370.31L470.59 321l85.39-49.31V160.5ZM368.83 268.55l181.69 104.9v104.9l-181.69-104.9v209.81l-90.84 52.45V425.9L96.3 530.8 5.46 478.35l181.69-104.9L5.46 268.55v-104.9l181.69 104.9V58.74l90.84-52.45V216.1l181.69-104.9 90.84 52.45-181.69 104.9Z"></path></svg>