<svg xmlns="http://www.w3.org/2000/svg" width="625.5" viewBox="0 0 625.5 625.5" height="625.5" xml:space="preserve"><path d="M325.1 123c-3.7 0-6.8 3-6.8 6.8 0 3.7 3 6.8 6.8 6.8 3.7 0 6.8-3 6.8-6.8s-3-6.8-6.8-6.8z"></path><path d="M0 0v625.5h625.5V0H0zm602.7 253.7c-4.7 72.9-67.5 130.7-144.4 130.7-30.2 0-55.6-7.6-78.8-22.9-2.1-1.2-4.8-.5-6 1.6-1.1 2-.6 4.4 1.2 5.7 24.5 16.1 50.5 23.7 80 24.2 1.2 0 5.5-.9 5.4 4.1-.3 80.6-65.4 146-146 146-79.3 0-143.7-63.3-145.9-142.1-.2-5.4 5.2-7.5 7.8-7.7 27.4-1.4 52.2-9.3 75.2-24.4.2-.1.4-.3.7-.4 1.7-1.5 2.1-4.1.7-6-1.5-2-4.3-2.4-6.2-.9-23.2 15.2-49.1 23.2-79.3 23.2-76.9 0-139.8-57.8-144.4-130.7v-.3c-.2-2.8 0-161.4 0-161.4H177c38.8 0 66.3 31.2 66.3 69.7v22.3c0 2.4 2 4.4 4.4 4.4 2.4 0 4.4-2 4.4-4.4v-22.3c0-38.5 31.4-71.4 70.2-71.4h72.2c8.7 0 12.4 7.5 6.6 12.7-16 14.4-26 35.1-26 58.2V184.4c0 2.4 2 4.4 4.4 4.4 2.4 0 4.4-1.9 4.4-4.3v-22.9c0-38.5 31.4-69.7 70.2-69.7h148.8v161.8z"></path></svg>