<svg xmlns="http://www.w3.org/2000/svg" width="618.7" viewBox="0 0 618.7 618.7" height="618.7" style="enable-background:new 0 0 618.7 618.7" xml:space="preserve"><path d="M309.3 0C138.8 0 0 138.8 0 309.3s138.8 309.3 309.3 309.3c170.6 0 309.3-138.8 309.3-309.3S479.9 0 309.3 0zm0 77.4c98.1 0 182.1 61.2 216 147.4h-432c33.9-86.2 118-147.4 216-147.4zm0 463.9c-127.9 0-231.9-104-231.9-231.9 0-28.5 5.2-55.8 14.6-81l109.8 173 107.3-169.1 107.3 169.1 110.1-173.5c9.6 25.4 14.8 52.9 14.8 81.5 0 127.8-104.1 231.9-232 231.9z"></path></svg>