<svg xmlns="http://www.w3.org/2000/svg" width="642" viewBox="0 0 642 642" height="642" data-name="Layer 1"><path d="M449.4 391.3H192.6v-16.31c22.28-6.61 36.49-23.91 38.52-51.55l6.36-86.67c.71-7.9 3.98-15.09 9.05-20.67 5.71-6.29 13.74-10.53 22.73-11.36 8.73-.93 94.76-.93 103.49 0 8.99.83 17.01 5.07 22.73 11.36a35.375 35.375 0 0 1 9.05 20.67l6.36 86.67c2.03 27.64 16.24 44.94 38.52 51.55v16.31Zm62.21-31.27c-25.17-4.49-42.37-24.33-44.3-52.96l-4.43-65.61-2.95-43.59c-2.05-24.01-19.97-43.59-43.27-48.09-15.66-3.02-41.09-4.75-60.54-3.4v-39.35h-70.23v39.35c-19.45-1.35-44.88.39-60.54 3.4-23.3 4.49-41.22 24.07-43.27 48.09l-2.95 43.59-4.43 65.61c-1.93 28.63-19.13 48.47-44.3 52.96-3.08.58-6.23.83-9.44.83v93.86h164.93v39.61h70.23v-39.61h164.93v-93.86c-3.21 0-6.36-.26-9.44-.83Z"></path><path d="M642 321c0 177.28-143.72 321-321 321S0 498.28 0 321 143.72 0 321 0s321 143.72 321 321ZM321 56.18C174.74 56.18 56.18 174.75 56.18 321S174.75 585.82 321 585.82 585.82 467.25 585.82 321 467.26 56.18 321 56.18Z"></path></svg>