<svg xmlns="http://www.w3.org/2000/svg" width="609.9" viewBox="0 0 609.9 618.3" height="618.3" style="enable-background:new 0 0 609.9 618.3" xml:space="preserve"><path d="M454.3 360.2v41.5L359.6 307l94.7-94.7v41.5h154.9c-2.4-13.2-5.6-26.1-9.6-38.6C559.7 90.4 442.9 0 304.9 0S50.2 90.4 10.4 215.1c-4 12.6-7.2 25.5-9.6 38.6h154.9v-41.5l94.7 94.7-94.7 94.7v-41.5H0c2.2 13.2 5.2 26.1 9 38.6 38.4 127 156.4 219.4 295.9 219.4s257.5-92.5 295.9-219.4c3.8-12.6 6.8-25.5 9-38.6H454.3zm41.9 140.2c-51.1 51.1-119 79.2-191.3 79.2s-140.2-28.1-191.3-79.2c-29.2-29.1-50.8-63.8-64.1-101.6h67.4V495l188-188-188-188v96.1H51.2c13.4-36.1 34.5-69.2 62.5-97.2 51.1-51.1 119-79.2 191.3-79.2s140.2 28.1 191.3 79.2c28 28 49.1 61.1 62.5 97.2H493V119L305 307l188 188v-96.1h67.4c-13.4 37.7-35 72.4-64.2 101.5z"></path></svg>