<svg data-name="Layer 1" xmlns="http://www.w3.org/2000/svg" viewBox="0 0 611.85 411.48"><path d="M406.11 0c-37.88 0-73.35 10.27-103.84 28.13-.37-.21-.74-.42-1.11-.62l.06-.11c-15.61-8.58-32.33-15.01-49.63-19.21-.99-.24-1.98-.49-2.98-.71-.77-.17-1.53-.34-2.3-.5a239.079 239.079 0 0 0-5.63-1.14c-1.46-.27-2.93-.53-4.4-.77-.45-.07-.89-.15-1.34-.22-1.97-.31-3.95-.59-5.94-.85l-.25-.03c-1.84-.23-3.68-.43-5.53-.61-.61-.06-1.23-.11-1.84-.16a178.5 178.5 0 0 0-3.99-.31c-.73-.05-1.46-.1-2.2-.14-1.27-.07-2.55-.13-3.83-.18-.7-.03-1.41-.06-2.11-.08-1.78-.05-3.56-.08-5.34-.08h-.54C91.22 2.39 0 93.61 0 205.74S91.22 409.1 203.35 409.1h.54c1.79 0 3.57-.03 5.34-.08.7-.02 1.41-.05 2.11-.08 1.28-.05 2.55-.11 3.83-.18.73-.04 1.46-.09 2.2-.14 1.33-.09 2.66-.2 3.99-.31.61-.05 1.23-.1 1.84-.16 1.86-.18 3.71-.38 5.55-.61.08 0 .15-.02.23-.03 1.99-.25 3.97-.54 5.95-.85.45-.07.89-.15 1.34-.22 1.47-.24 2.94-.49 4.4-.77.66-.12 1.31-.25 1.97-.38 1.23-.24 2.45-.49 3.66-.76.77-.17 1.54-.33 2.31-.51.99-.23 1.97-.47 2.96-.71 17.3-4.2 34.03-10.64 49.64-19.22l-.06-.11c.37-.2.74-.41 1.11-.62 30.48 17.86 65.95 28.13 103.84 28.13 113.63 0 205.74-92.11 205.74-205.74S519.74 0 406.11 0Zm-69.06 352.83h-71.78c1.55 1.52 3.13 3.01 4.73 4.48h61.95c-5.49 4.66-11.23 9.03-17.2 13.09h-29.01c2.05 1.53 4.13 3.02 6.23 4.48h15.87c-17.58 10.9-36.97 19.14-57.61 24.14-.84.2-1.69.41-2.53.61-.81.19-1.63.36-2.44.53-1.13.24-2.26.48-3.39.7-.69.14-1.38.27-2.07.4-1.37.25-2.75.49-4.12.72-.49.08-.97.17-1.46.24-1.91.3-3.83.57-5.75.82-.13.02-.27.03-.4.05-1.75.22-3.5.41-5.25.58-.62.06-1.24.11-1.86.17-1.28.11-2.57.22-3.85.3-.72.05-1.45.1-2.17.14-1.24.07-2.48.13-3.71.18-.7.03-1.39.06-2.09.08-1.73.05-3.47.08-5.21.08h-.5C93.79 404.59 4.61 315.39 4.61 205.75S93.77 6.9 203.41 6.87h.5c1.74 0 3.47.03 5.21.08.7.02 1.39.05 2.09.08 1.24.05 2.48.1 3.71.18.73.04 1.45.09 2.17.14 1.29.09 2.57.19 3.86.3.62.05 1.24.1 1.85.16 1.75.17 3.5.36 5.24.58.14.02.28.03.42.05 1.92.24 3.84.52 5.75.82.49.08.97.16 1.45.24 1.38.23 2.76.46 4.13.72.69.13 1.38.26 2.07.4 1.13.22 2.26.46 3.39.7.81.18 1.63.35 2.44.53.85.19 1.7.4 2.54.61a197.938 197.938 0 0 1 57.6 24.14h-15.87c-2.1 1.46-4.19 2.94-6.23 4.48h29.01a200.8 200.8 0 0 1 17.2 13.09h-61.95c-1.6 1.47-3.17 2.96-4.73 4.48h71.78c4.57 4.16 8.95 8.53 13.11 13.09h-97.17c-1.27 1.47-2.51 2.97-3.73 4.48h104.88c3.63 4.21 7.07 8.58 10.34 13.09h-125a194.09 194.09 0 0 0-3 4.48h131.15c2.9 4.25 5.65 8.61 8.22 13.09H228.65c-.81 1.48-1.61 2.97-2.39 4.48h152.09c2.31 4.27 4.48 8.64 6.48 13.09H220.07c-.64 1.48-1.27 2.98-1.87 4.48h168.58c1.8 4.29 3.46 8.65 4.97 13.09H213.44c-.48 1.49-.97 2.98-1.42 4.48h181.19a191.4 191.4 0 0 1 3.6 13.09H208.57c-.34 1.49-.67 2.98-.97 4.48h190.23c.92 4.31 1.7 8.68 2.34 13.09H205.34c-.21 1.49-.39 2.98-.56 4.48h195.98c.52 4.32.91 8.69 1.15 13.09H203.67c-.08 1.49-.16 2.98-.21 4.48h198.65c.07 2.17.12 4.35.12 6.54s-.05 4.37-.12 6.55H203.46c.05 1.5.13 2.99.21 4.48h198.24c-.24 4.4-.63 8.77-1.15 13.09H204.78c.17 1.5.35 2.99.56 4.48h194.83c-.64 4.41-1.42 8.78-2.34 13.09H207.59c.31 1.5.63 2.99.97 4.48h188.25c-1.05 4.42-2.26 8.79-3.6 13.09H212.03c.45 1.5.93 2.99 1.42 4.48h178.3c-1.5 4.44-3.16 8.8-4.97 13.09H218.2c.61 1.5 1.23 2.99 1.87 4.48h164.77c-2 4.45-4.17 8.82-6.48 13.09h-152.1c.78 1.5 1.58 3 2.39 4.48h147.2c-2.58 4.48-5.32 8.84-8.22 13.09H236.48c.98 1.51 1.99 3 3 4.48h125a201.46 201.46 0 0 1-10.34 13.09H249.26c1.22 1.51 2.46 3.01 3.73 4.48h97.17a202.35 202.35 0 0 1-13.11 13.09Z"></path></svg>