<svg data-name="Layer 1" xmlns="http://www.w3.org/2000/svg" viewBox="0 0 620.43 466.87"><path d="m603.86 53.15-.57-.81c-14.05-20.16-35.2-33.64-59.54-37.98-24.34-4.34-48.84 1.01-69.01 15.08L301.47 150.77 200.43 57.58 20.63.75C14.67-1.13 8.38.56 4.17 5.16-.04 9.78-1.16 16.21 1.26 21.97l71.88 171.49L145.51 260l-51.98 36.4c-1 .66-1.97 1.37-2.95 2.06l-1.28.9.03.04c-22.72 16.83-37.54 43.75-37.54 74.14v1.01c0 50.9 41.41 92.31 92.32 92.31h262.92c50.9 0 92.32-41.41 92.32-92.31v-1.01c0-14.78-3.62-29.5-10.47-42.58l-.17.09c-4.97-9.62-11.57-18.4-19.79-25.84l-28.05-25.87 140.09-97.64c41.75-29.12 52.02-86.78 22.89-128.55ZM588 63.03l.57.81a73.276 73.276 0 0 1 11.65 26.93l-207.2 144.44-44.04-40.62L566.72 42.8a73.075 73.075 0 0 1 21.29 20.23ZM485.43 44.74c16.07-11.21 35.61-15.47 55.05-12 2.06.37 4.07.86 6.07 1.39L334.93 181.65l-19.42-17.91L485.43 44.73ZM62.37 119.53C71.45 89 94.24 64.38 123.65 52.88l65.7 20.76c-6.77 9.59-10.24 21.04-9.77 32.99.09 2.28.37 4.53.73 6.74-3-.58-6.07-.88-9.18-.88-26.46 0-47.98 21.53-47.98 47.98 0 4.09.58 8.09 1.57 11.96-12.61-1.16-25.51 1.98-36.23 9.41l-26.12-62.31Zm38.35 194.61 3.38-2.37c11.53-7.49 25.25-11.89 40-11.89h44.77l28.57 26.27H87.79c3.8-4.51 8.16-8.52 12.93-12.01Zm46.99-32.91 11.85-8.3 9.03 8.3h-20.88ZM76.28 403.3a73.25 73.25 0 0 1-5.85-28.74v-1.01c0-10.2 2.09-19.91 5.85-28.75h161.43l63.63 58.51H76.28Zm67.82 44.92c-22.58 0-42.79-10.23-56.31-26.27h233.84l22.56 20.74c2.16 1.96 4.4 3.8 6.71 5.53H144.09Zm265.68-.46c-19.73.98-38.57-5.74-53.03-18.85L102.59 195.2c13.05-7.02 29.68-5.61 41.18 4.85l272.24 247.11c-2.06.27-4.13.5-6.23.61Zm51.65-24.75-.68.75a72.975 72.975 0 0 1-23.67 17.34L151.15 181.56c-6.42-5.59-9.39-12.58-9.39-21.1 0-16.19 13.18-29.37 29.37-29.37 7.54 0 14.71 2.85 20.18 8.03l285.07 258.64a72.957 72.957 0 0 1-14.95 25.26Zm-5.1-104.05c14.51 13.15 23.03 31.25 24 50.97.1 2.09.07 4.16 0 6.22L209.66 130.47c-7.01-6.38-11.07-15.11-11.45-24.58-.28-7.18 1.6-14.11 5.35-20.05l252.77 233.13ZM570.3 166.39l-143.47 99.99-19.77-18.24 194.39-135.51c-1.92 20.89-12.64 40.84-31.15 53.76Z"></path></svg>