<svg xmlns="http://www.w3.org/2000/svg" width="617.6" viewBox="0 0 617.6 617.6" height="617.6" xml:space="preserve" style="enable-background:new 0 0 617.6 617.6"><path d="M276.3 254.6h43.3V363h-43.3V254.6zm130 43.4h10.8v-43.3h-10.8c-29.9 0-54.2 24.3-54.2 54.2 0 6-4.9 10.8-10.8 10.8h-10.8V363h10.8c29.9 0 54.2-24.3 54.2-54.2 0-6 4.8-10.8 10.8-10.8m-260-43.4h43.3V363h-43.3V254.6zm325 108.4H428V254.6h43.3V363zm108.2-178.8C576.6 103.3 509.5 38 428 38H38v205.8c0 83.4 68.2 151.6 151.6 151.6v38H38.1c2.9 80.9 70 146.2 151.5 146.2h390V373.8c0-83.4-68.2-151.6-151.6-151.6v-38h151.5zm-38 38c47.4 35.6 76.1 91.5 76.1 151.6v243.8h-428C85.3 617.6 0 532.3 0 428v-32.5h76.1C28.7 359.9 0 304 0 243.8V0h428c104.3 0 189.7 85.3 189.6 189.6v32.5h-76.1zm-319.4 32.4h43.3v54.2c0 29.9-24.3 54.2-54.2 54.2h-10.8v-43.3h10.8c6 0 10.8-4.8 10.8-10.8v-54.3z" style="fill-rule:evenodd;clip-rule:evenodd"></path></svg>