<svg xmlns="http://www.w3.org/2000/svg" width="612.7" viewBox="0 0 612.7 483.8" height="483.8" xml:space="preserve"><path d="m599.6 185.2-.4.7c-10.7 16.9-25.4 31.2-42.6 41.5l-.3.2.1.3c.8 4.1 1.2 8.2 1.2 12.3 0 36.7-29.9 66.6-66.6 66.6h-3v-6.3h2.9c33.3 0 60.3-27.1 60.3-60.3 0-2.8-.2-5.7-.7-8.7l-.1-.6-.6.3c-18.1 9.4-38.5 14.4-59 14.4H488v-6.3h2.9c67.2 0 121.8-54.6 121.8-121.8 0-18.8-4.4-37.5-12.7-54.3l-.4-.7-.4.7c-10.7 16.9-25.4 31.2-42.6 41.5l-.3.2.1.3c.8 4.1 1.2 8.2 1.2 12.3 0 36.7-29.9 66.6-66.6 66.6h-3v-6.3h2.9c33.3 0 60.3-27.1 60.3-60.3 0-2.8-.2-5.7-.7-8.7l-.1-.6-.6.3c-18.1 9.4-38.5 14.4-59 14.4l-3.3-.4.8-6.3 2.8.3c31.4-.1 61.2-12.1 83.9-33.8 22.7-21.7 36-50.8 37.5-82V.2h-55.3v.4c-1.4 16.5-9 31.8-21.3 43.1-12.3 11.4-28.3 17.6-45.1 17.6H488V55h2.9c15 0 29.5-5.6 40.6-15.8 11.1-10.1 18-23.8 19.4-38.6V.1h-58.3c-22.7 0-44.9 6.3-64.2 18.3-35.9 22.4-57.4 60.8-57.6 103h-6.3c.1-23.8 6.8-47.1 19.4-67.3 9.7-15.4 22.8-28.9 38-39l.6-.4-.7-.4C405.5 5.5 387 .7 368.4.3h-2.1c-64.6 0-117.2 52.6-117.2 117.2 0 1.2 0 2.4.1 3.8h-5.7C243.3 54.4 188.8 0 121.8 0 54.6 0 0 54.6 0 121.8c0 18.8 4.4 37.5 12.7 54.3l.4.7.4-.7c10.7-16.9 25.4-31.2 42.6-41.5l.3-.2-.1-.3c-.8-4.1-1.2-8.2-1.2-12.3 0-36.7 29.9-66.6 66.6-66.6h2.9v6.3h-2.9c-33.3 0-60.3 27.1-60.3 60.3 0 2.8.2 5.7.7 8.7l.1.6.6-.3c18.1-9.4 38.5-14.4 59-14.4h2.9v6.3h-2.9C54.6 122.7 0 177.4 0 244.5c0 18.8 4.4 37.5 12.7 54.3l.4.7.4-.7c10.7-16.9 25.4-31.2 42.6-41.5l.3-.2-.1-.3c-.8-4.1-1.2-8.2-1.2-12.3 0-36.7 29.9-66.6 66.6-66.6h2.9v6.3h-2.9c-33.3 0-60.3 27.1-60.3 60.3 0 2.8.2 5.7.7 8.7l.1.6.6-.3c18.1-9.4 38.5-14.4 59-14.4l3.3.4-.8 6.3-2.8-.3c-31.4.1-61.2 12.1-83.9 33.8-22.7 21.7-36 50.8-37.5 82v.5h55.3v-.4c1.5-16.5 9-31.8 21.3-43.1 12.3-11.4 28.3-17.6 45.1-17.6h2.9v6.3h-2.9c-15 0-29.5 5.6-40.6 15.8-11.1 10.1-18 23.8-19.4 38.6v.5H120c66.9 0 121.4-54.3 121.8-121.1h6.7v1.5c0 29.3-10.3 57.9-28.9 80.4-18.4 22.3-44 36.8-72.1 42.6l-2.5.5 2.5.4c27 4 50.4 17.7 67.6 38 17.2 20.3 28 47.7 31.2 79.3v.4h.4s1 .1 2.8.1c5 0 16.3-.5 30.1-4.5 17.2-5 41.9-16.5 62-43.3 15.7-20.9 23-47.2 23-82.7l.1-112.6h6.3c.1 32.4 12.5 62.8 34.8 85.6 22.6 23 52.8 35.7 85.2 35.7 67.2 0 121.8-54.6 121.8-121.8 0-18.8-4.4-37.5-12.7-54.3l-.5-.9zM360.8 27.1c0-4.3 3.5-7.8 7.8-7.8s7.8 3.5 7.8 7.8-3.5 7.8-7.8 7.8-7.8-3.5-7.8-7.8z"></path></svg>