<svg xmlns="http://www.w3.org/2000/svg" width="400.2" viewBox="0 0 400.2 618.5" height="618.5" xml:space="preserve" style="enable-background:new 0 0 400.2 618.5"><path d="M0 162.7C0 72.9 72.8 0 162.7 0h30.9v32.4c0 89.9-72.8 162.7-162.7 162.7H0v-32.4zM400.2 162.7C400.2 72.9 327.4 0 237.5 0h-30.9v32.4c0 89.9 72.9 162.7 162.7 162.7h30.9v-32.4zM400.2 239.8c0 89.9-72.9 162.7-162.7 162.7h-30.9v-32.4c0-89.9 72.9-162.7 162.7-162.7h30.9v32.4zM0 239.8c0 89.9 72.8 162.7 162.7 162.7h30.9v-32.4c0-89.9-72.8-162.7-162.7-162.7H0v32.4zM400.2 455.8c0 89.9-72.9 162.7-162.7 162.7h-30.9v-32.4c0-89.9 72.9-162.7 162.7-162.7h30.9v32.4zM0 455.8c0 89.9 72.8 162.7 162.7 162.7h30.9v-32.4c0-89.9-72.8-162.7-162.7-162.7H0v32.4z"></path></svg>