<svg xmlns="http://www.w3.org/2000/svg" width="614.5" viewBox="0 0 614.5 627.7" height="627.7" xml:space="preserve" style="enable-background:new 0 0 614.5 627.7"><path d="M614.5 182.2C614.5 81.6 532.9 0 432.3 0H0v627.7h432.3c100.6 0 182.2-81.6 182.2-182.2 0-51.8-21.6-98.5-56.3-131.6 34.7-33.2 56.3-79.9 56.3-131.7zM314.9 518.7l67-69.3-91.8-85h142.2c44.8 0 81.1 36.3 81.1 81.1s-36.3 81-81.1 81H101.2V101.2h331.1c44.8 0 81.1 36.3 81.1 81.1s-36.3 81.1-81.1 81.1H290l91.8-85-67-69.3-204.7 204.8 204.8 204.8z"></path></svg>