<svg id="Layer_1" data-name="Layer 1" xmlns="http://www.w3.org/2000/svg" viewBox="0 0 640.7 639.74">   <path d="M7.21,0C4.79,0,2.39,.07,0,.18V87.03c2.37-.26,4.77-.42,7.21-.42,36.05,0,65.28,29.23,65.28,65.28S43.26,217.18,7.21,217.18c-2.44,0-4.84-.16-7.21-.42v86.85c2.39,.11,4.79,.18,7.21,.18,83.89,0,151.9-68.01,151.9-151.9S91.1,0,7.21,0Z"></path>   <path d="M7.21,335.94c-2.42,0-4.82,.07-7.21,.18v86.85c2.37-.26,4.77-.42,7.21-.42,36.05,0,65.28,29.23,65.28,65.28s-29.23,65.28-65.28,65.28c-2.44,0-4.84-.16-7.21-.42v86.85c2.39,.11,4.79,.18,7.21,.18,83.89,0,151.9-68.01,151.9-151.9S91.1,335.94,7.21,335.94Z"></path>   <path d="M640.7,151.9C640.7,68.01,572.69,0,488.8,0c-2.42,0-4.82,.07-7.21,.18V87.03c2.37-.26,4.77-.42,7.21-.42,36.05,0,65.28,29.23,65.28,65.28s-29.23,65.28-65.28,65.28c-2.44,0-4.84-.16-7.21-.42v86.85c2.39,.11,4.79,.18,7.21,.18,83.89,0,151.9-68.01,151.9-151.9Z"></path>   <path d="M488.8,335.94c-2.42,0-4.82,.07-7.21,.18v86.85c2.37-.26,4.77-.42,7.21-.42,36.05,0,65.28,29.23,65.28,65.28s-29.23,65.28-65.28,65.28c-2.44,0-4.84-.16-7.21-.42v86.85c2.39,.11,4.79,.18,7.21,.18,83.89,0,151.9-68.01,151.9-151.9s-68.01-151.9-151.9-151.9Z"></path>   <path d="M243.3,487.84c0,83.89,68.01,151.9,151.9,151.9,2.42,0,4.82-.07,7.21-.18v-86.85c-2.37,.26-4.77,.42-7.21,.42-36.05,0-65.28-29.23-65.28-65.28s29.23-65.28,65.28-65.28c2.44,0,4.84,.16,7.21,.42v-86.85c-2.39-.11-4.79-.18-7.21-.18-83.89,0-151.9,68.01-151.9,151.9Z"></path>   <path d="M243.3,151.9c0,83.89,68.01,151.9,151.9,151.9,2.42,0,4.82-.07,7.21-.18v-86.85c-2.37,.26-4.77,.42-7.21,.42-36.05,0-65.28-29.23-65.28-65.28s29.23-65.28,65.28-65.28c2.44,0,4.84,.16,7.21,.42V.18c-2.39-.11-4.79-.18-7.21-.18-83.89,0-151.9,68.01-151.9,151.9Z"></path> </svg>