<svg data-name="Layer 1" xmlns="http://www.w3.org/2000/svg" viewBox="0 0 566.22 587.2"><path d="M566.22 435.79c-.26-75.08-60.59-136.13-135.66-137.27-.93-.02-1.85-.04-2.76-.04-40.21 0-75.73 16.42-98.68 41.09-22.96 24.63-35.73 58.58-35.73 95.79-.06 31.97 12.66 62.63 35.32 85.18 21.82 21.79 54.34 35.23 87.63 35.23 31.65.15 61.99-12.63 84-35.38 20.9-21.57 33.64-51.29 33.94-84.08v-1.18c-.56-57.15-45.17-103.19-102.58-103.46-.22-.02-.46-.02-.65-.02-30.03 0-56.06 10.82-74.54 29.39-17.93 18-31.05 43.22-31.79 72.49l-.05 2.77c0 48.72 41.86 87.36 90.44 88.16h1.72c25.06.03 46.47-9.3 61.65-25.05 15.05-15.6 23.98-37.39 24.81-62.29l.07-.18v-.75c0-40.08-32.36-72.85-72.41-72.88h-.47c-21.53.14-39.84 7.13-52.69 19.85-12.88 12.71-20.11 30.99-20.14 53.01.66 31.65 26.39 58.06 58.32 58.07 32.2.01 58.31-26.08 58.32-58.28v-.02l-.07-.03c-.13-24.06-19.63-43.52-43.69-43.6h-.14c-13.06 0-24.1 3.57-31.83 11.1-7.74 7.53-12.18 20.51-11.95 32.68.23 12.18 11.51 30.35 30.27 30.3 16.7-.03 30.23-13.57 30.25-30.27h-.09c-.09-4.64-1.83-9.1-4.9-12.57-3.1-3.75-7.71-5.91-12.57-5.9-5.45-.03-9.87 1.34-12.98 4.6-2.98 3.13-4.41 7.85-4.25 12.31.03 2.62.94 5.14 2.6 7.17 1.6 2 3.99 3.36 5.99 1.52 4.78-4.39-6.63-7.17.78-16.12 1.96-2.38 6.54-2.34 7.99-2.41h.07s4.42.22 7.04 3.49c1.92 2.29 3.03 5.15 3.14 8.14l.09.03c-.15 12.69-10.47 22.91-23.17 22.93-12.79-.03-22.21-11.82-23.17-24.15-.79-10.07 3.88-20.92 9.8-26.67 6.07-5.89 15.02-9.05 26.86-9.07 20.3 0 36.76 16.44 36.79 36.74h.07c-.12 28.23-23.02 51.04-51.24 51.04-13.57 0-26.55-5.55-35.93-15.37-9.16-9.46-15.31-22.59-15.31-36.78.32-19.98 6.9-35.81 18.04-46.86 11.37-11.23 27.69-17.63 47.76-17.76l.43-.02c17.36 0 34 6.96 46.2 19.32 12.09 12.17 18.95 28.58 19.13 45.74l-.06.76c-.64 23.67-8.98 43.92-22.83 58.29-13.88 14.34-33.26 22.89-56.57 22.9h-1.62c-44.49-.78-82.91-35.8-83.46-80.04v-1.03c.12-28.8 12.67-53.11 29.77-70.3 17.1-17.17 41.18-27.29 69.53-27.3h.56c53.74.29 95.28 43.28 95.61 97.01-.37 62.56-48.41 112.93-110.88 112.95-31.36 0-62.08-12.66-82.63-33.14-21.33-21.23-33.29-50.1-33.24-80.2 0-35.61 12.18-67.76 33.81-90.97 21.65-23.2 55.09-38.8 93.51-38.82.88 0 1.76 0 2.63.03 71.41 1.05 128.74 59.26 128.72 130.68.11 37.02-13.59 72.76-38.42 100.22-23.92 26.72-59.5 43.61-102.26 43.63-1.56 0-3.13-.02-4.69-.06-80.56-2.36-144.37-62.95-144.35-143.09l-1.18-99.4c-.13-23.73-6.21-56.5-24.93-83.74-18.7-27.25-48.1-48.66-97.94-48.62h-.12C91 205.14 55.87 230.24 34.27 264.8c-13.1 20.89-21.5 45.16-26.85 69.64V0H.33v381.94c-.25 2.75-.33 5.41-.33 8.02 0 4.02.18 7.86.25 11.59h.08v116.22H7.4v-135.5c3.37-38.02 12.14-80.8 32.83-113.69 20.82-32.94 52.99-56.17 105.01-56.27h.03c47.81.12 74.5 20.01 92.2 45.56 17.65 25.59 23.59 57.17 23.68 79.73l1.18 99.39c.03 84.38 67.3 147.8 151.23 150.15 1.64.03 3.26.07 4.89.07h.07c44.61 0 82.32-17.83 107.47-45.99 25-27.98 40.02-63.69 40.23-104.58v-.85Z" data-name="Helbros 1943"></path></svg>