<svg data-name="Layer 1" xmlns="http://www.w3.org/2000/svg" viewBox="0 0 613.79 611.13"><path d="M223.87 145.31 151.71 0 79.56 145.31h144.31zM72.16 160.26 0 305.57l72.16 145.3 72.15-145.3-72.15-145.31zM308.2 0l-72.15 145.31h144.31L308.2 0zM228.65 160.26l-72.16 145.31 72.16 145.3 72.15-145.3-72.15-145.31zM464.7 0l-72.16 145.31h144.31L464.7 0zM385.14 160.26l-72.16 145.31 72.16 145.3 72.15-145.3-72.15-145.31zM541.63 160.26l-72.15 145.31 72.15 145.3 72.16-145.3-72.16-145.31zM462.07 611.13l72.16-145.31H389.92l72.15 145.31zM305.58 611.13l72.16-145.31H233.43l72.15 145.31zM149.09 611.13l72.16-145.31H76.94l72.15 145.31z"></path></svg>