<svg data-name="Layer 1" xmlns="http://www.w3.org/2000/svg" viewBox="0 0 607.19 607.19"><path d="M303.59 246.07c42.6 0 77.13-34.53 77.13-77.13s-34.53-77.13-77.13-77.13-77.13 34.54-77.13 77.13 34.53 77.13 77.13 77.13Z"></path><path d="M303.59 0C135.92 0 0 135.92 0 303.59s135.92 303.6 303.59 303.6 303.59-135.92 303.59-303.6S471.26 0 303.59 0Zm219.84 387.74c-24.16 24.3-57.61 39.37-94.59 39.37s-70.43-15.06-94.59-39.37c-12.41-12.48-22.1-27.53-28.8-44.12 47.84-.45 91.19-19.4 123.43-49.98 32.21 30.54 75.49 49.47 123.27 49.97-.02.09-.03.19-.04.29-6.7 16.48-16.34 31.43-28.68 43.84ZM55.07 343.89c-.01-.09-.03-.18-.04-.27 47.88-.43 91.25-19.38 123.52-49.98 32.23 30.56 75.54 49.5 123.35 49.97-6.7 16.59-16.39 31.64-28.8 44.12-24.16 24.3-57.61 39.37-94.59 39.37-55.89 0-103.59-34.45-123.44-83.21ZM303.59 51.56c136.27 0 247 108.23 251.6 243.38-.39 0-.76.06-1.15.06-36.98 0-70.43-15.06-94.59-39.37-13.45-13.53-23.89-29.99-30.57-48.27-6.68 18.28-17.12 34.73-30.57 48.27C374.15 279.94 340.7 295 303.72 295s-70.43-15.06-94.59-39.37c-13.45-13.53-23.89-29.99-30.57-48.27-6.68 18.27-17.12 34.73-30.57 48.27C123.83 279.94 90.38 295 53.4 295c-.47 0-.93-.06-1.4-.07C56.61 159.79 167.33 51.57 303.6 51.57Zm0 504.08c-79.5 0-150.3-36.9-196.5-94.41 21.92 9.38 46.05 14.59 71.41 14.59 48.54 0 92.52-19.11 125.17-50.06 32.64 30.95 76.63 50.06 125.16 50.06 25.37 0 49.44-5.33 71.36-14.73-46.19 57.59-117.04 94.55-196.6 94.55Z"></path></svg>