<svg data-name="Layer 1" xmlns="http://www.w3.org/2000/svg" viewBox="0 0 624.97 624.97"><path d="M350.46 2c-7.65-.93-15.37-1.64-23.18-2l-14.79 14.79L297.7 0c-7.81.36-15.53 1.08-23.18 2l37.97 37.97L350.46 2Z"></path><path d="M393.8 10.36c-6.72-1.8-13.52-3.41-20.42-4.77l-60.9 60.9-60.9-60.89c-6.89 1.36-13.69 2.96-20.42 4.77l81.32 81.32 81.32-81.33Z"></path><path d="M432.4 23.48c-6-2.49-12.12-4.76-18.3-6.88L312.49 118.21 210.87 16.59c-6.18 2.12-12.3 4.39-18.3 6.88l119.91 119.91L432.4 23.48Z"></path><path d="M467.06 40.52c-5.38-3.07-10.85-6.01-16.43-8.76L312.48 169.91 174.33 31.76c-5.58 2.75-11.04 5.69-16.43 8.76l154.58 154.57L467.06 40.52Z"></path><path d="M498.41 60.88c-4.85-3.59-9.82-7-14.87-10.31L312.49 221.62 141.44 50.57c-5.05 3.31-10.03 6.72-14.87 10.31L312.49 246.8 498.41 60.88Z"></path><path d="M526.55 84.44c-4.33-4.07-8.76-8.04-13.32-11.86L312.48 273.33 111.73 72.58c-4.56 3.82-8.99 7.79-13.32 11.86l214.07 214.07L526.55 84.44ZM551.73 110.97c-3.83-4.55-7.81-8.97-11.9-13.29l-214.8 214.8 214.8 214.8c4.08-4.32 8.06-8.74 11.9-13.29L350.22 312.48l201.51-201.51Z"></path><path d="M573.84 140.57c-3.32-5.04-6.74-10.01-10.34-14.84L376.74 312.48 563.5 499.23c3.6-4.83 7.02-9.8 10.34-14.84L401.92 312.48l171.92-171.91Z"></path><path d="M592.72 173.39c-2.77-5.56-5.71-11.02-8.79-16.39L428.45 312.48l155.48 155.48c3.08-5.37 6.03-10.83 8.79-16.39L453.63 312.48l139.09-139.09Z"></path><path d="M608.01 209.81c-2.14-6.17-4.41-12.27-6.92-18.26L480.16 312.48l120.93 120.93c2.51-5.98 4.78-12.09 6.92-18.26L505.33 312.47l102.68-102.68Z"></path><path d="M619.15 250.37c-1.38-6.86-3.04-13.62-4.86-20.32l-82.43 82.43 82.43 82.43c1.82-6.69 3.48-13.45 4.86-20.32l-62.11-62.11 62.11-62.11Z"></path><path d="M624.97 297.69c-.36-7.81-1.08-15.53-2-23.18L585 312.48l37.97 37.97c.93-7.65 1.64-15.37 2-23.18l-14.79-14.79 14.79-14.79ZM85.13 97.69c-4.08 4.32-8.06 8.74-11.9 13.29l201.51 201.51L73.23 514c3.83 4.55 7.81 8.97 11.9 13.29l214.8-214.8-214.8-214.8Z"></path><path d="M61.47 125.73c-3.6 4.83-7.02 9.8-10.34 14.84l171.92 171.91L51.13 484.4c3.32 5.04 6.74 10.01 10.34 14.84l186.76-186.75L61.47 125.73Z"></path><path d="M41.04 157c-3.08 5.37-6.03 10.83-8.79 16.39l139.09 139.09L32.25 451.57c2.77 5.56 5.71 11.02 8.79 16.39l155.48-155.48L41.04 157Z"></path><path d="M23.88 191.55c-2.51 5.98-4.78 12.09-6.92 18.26l102.68 102.68L16.95 415.16c2.14 6.17 4.41 12.27 6.92 18.26L144.8 312.49 23.88 191.55Z"></path><path d="M10.68 230.06c-1.82 6.69-3.48 13.45-4.86 20.32l62.11 62.11-62.12 62.1c1.38 6.86 3.04 13.62 4.86 20.32l82.43-82.43-82.42-82.42Z"></path><path d="M2 274.51c-.93 7.65-1.64 15.37-2 23.18l14.79 14.79L0 327.27c.36 7.81 1.08 15.53 2 23.18l37.97-37.97L2 274.51ZM274.51 622.97c7.65.93 15.37 1.64 23.18 2l14.79-14.79 14.79 14.79c7.81-.36 15.53-1.08 23.18-2L312.48 585l-37.97 37.97Z"></path><path d="M231.17 614.6c6.72 1.8 13.52 3.41 20.42 4.77l60.9-60.9 60.9 60.9c6.89-1.36 13.69-2.96 20.42-4.77l-81.32-81.32-81.32 81.32Z"></path><path d="M192.57 601.49c6 2.49 12.12 4.76 18.3 6.88l101.61-101.61 101.61 101.61c6.18-2.12 12.3-4.39 18.3-6.88L312.48 481.58 192.57 601.49Z"></path><path d="M157.91 584.45c5.38 3.07 10.85 6.01 16.43 8.76l138.15-138.15 138.15 138.15c5.58-2.75 11.04-5.69 16.43-8.76L312.49 429.88 157.91 584.45Z"></path><path d="M126.56 564.09c4.85 3.59 9.82 7 14.87 10.31l171.05-171.05L483.53 574.4c5.05-3.31 10.03-6.72 14.87-10.31L312.48 378.17 126.56 564.09Z"></path><path d="M98.41 540.53c4.33 4.07 8.76 8.04 13.32 11.86l200.75-200.75 200.75 200.75c4.56-3.82 8.99-7.79 13.32-11.86L312.48 326.46 98.41 540.53Z"></path></svg>