<svg data-name="Layer 1" xmlns="http://www.w3.org/2000/svg" viewBox="0 0 611.1 574.67"><path d="M477.48 285.94c21.23-29.63 33.77-65.92 33.77-105.15C511.25 80.94 430.3 0 330.45 0H198.73c-8.12 0-16.1.59-23.94 1.63 88.53 11.72 156.85 87.44 156.85 179.17 0 41.83-14.24 80.31-38.09 110.94l130.94 282.94H611.1L477.48 285.95ZM127.45 360.14c-51.01-6.49-95.38-34.25-123.95-74.09-1.1-1.54-3.49-.8-3.49 1.09v287.54h239.81l-92.65-200.21c-3.64-7.87-11.11-13.23-19.71-14.33Z"></path><path d="m82.83 72.61-55.98 96.98 55.98 96.97h111.98l55.99-96.97-55.99-96.98H82.83z"></path></svg>