<svg data-name="Layer 1" xmlns="http://www.w3.org/2000/svg" viewBox="0 0 592.52 513.14"><path d="M389.76 439.42c0-41.3 33.48-74.78 74.78-74.78 23.91 0 45.15 11.27 58.84 28.73L296.26 0 0 513.14h452.44c-35.53-5.79-62.69-36.54-62.69-73.71Zm-265.48-44.41c-7.16 0-12.96-5.8-12.96-12.96s5.8-12.96 12.96-12.96 12.96 5.8 12.96 12.96-5.8 12.96-12.96 12.96Zm39.49-14.37c-14.32 0-25.92-11.61-25.92-25.92s11.6-25.92 25.92-25.92c4.29 0 8.28 1.14 11.84 2.99-.01.42-.12.81-.12 1.23 0 12.16 4.71 23.15 12.23 31.58-3.89 9.41-13.14 16.05-23.95 16.05Zm59.38-10.44c-20.53 0-37.18-16.65-37.18-37.18s16.65-37.18 37.18-37.18c9.44 0 17.96 3.63 24.51 9.42-3.87 7.93-6.11 16.81-6.11 26.21 0 10.28 2.6 19.96 7.17 28.43-6.67 6.35-15.64 10.3-25.58 10.3Zm78.48 10.86c-27.38 0-49.58-22.2-49.58-49.58s22.2-49.58 49.58-49.58c17.97 0 33.56 9.66 42.26 23.97-16.34 13.34-26.81 33.62-26.81 56.31 0 5.37.63 10.59 1.74 15.64-5.37 2-11.12 3.24-17.19 3.24Zm25.94-18.88c0-34.35 27.84-62.19 62.19-62.19 32.01 0 58.34 24.18 61.79 55.27-35.68 5.49-64.11 33.1-70.75 68.39-30.09-4.36-53.23-30.18-53.23-61.47ZM476.63 513.14h115.89l-58.59-101.48c3.44 8.59 5.39 17.95 5.39 27.77 0 37.17-27.15 67.92-62.69 73.71Z"></path></svg>