<svg xmlns="http://www.w3.org/2000/svg" width="621.4" viewBox="0 0 621.4 621.4" height="621.4" xml:space="preserve"><path d="m621.4 384.7-80.9-81h-74.9V80.9L384.7 0l-80.9 80.9v74.9H80.9L0 236.8l80.9 81h74.9v222.8l81 81 80.9-81v-74.9h222.8l80.9-81zm-231.9-81c-.7-19.1-4.2-37.6-10.6-55.3H437c8.3 16.8 13.4 35.5 14.4 55.3h-61.9zm-16.2-69.3c-1.3-2.8-2.6-5.6-4-8.4-10.8-21-25.6-39.9-43.5-55.5 43.3 4.6 80.8 29 103.3 63.8h-55.8zm-55.6-52.3c17 14.9 30.5 32.7 40.3 52.4h-40.3v-52.4zm0 66.3h46.4c6.7 17.4 10.6 36.1 11.4 55.3h-57.8v-55.3zm57.8 69.3c-.8 19.9-4.9 39.1-12 57h-45.8v-57h57.8zm-57.8 121.7v-50.7h39.4c-9.6 19-22.9 36.2-39.4 50.7zm51.6-44c1.1-2.2 2.2-4.4 3.2-6.7H428c-22.6 34-59.6 57.6-102.2 62.2 17.9-15.6 32.7-34.6 43.5-55.5zm67-20.7h-57.9c6.7-18.2 10.4-37.3 11.2-57h61.9c-1 20.4-6.4 39.7-15.2 57zm-118.6-288 67-67 67 67v159.7c-23.6-51.4-74.4-87.8-133.9-90.4V86.7zm-230.9 217-67-67 67-67h159.7c-51.4 23.5-87.8 74.4-90.4 133.9H86.8zm216.9 231-67 67-67-67v-224c0-75.4 59.5-137.1 133.9-140.7v364.7zm71.3-83.1c51.4-23.6 87.8-74.4 90.4-133.9h69.3l67 67-67 67H375z"></path></svg>