<svg xmlns="http://www.w3.org/2000/svg" width="606" viewBox="0 0 606 289.9" height="289.9" xml:space="preserve" style="enable-background:new 0 0 606 289.9"><path d="M361.8 0H245.6c-2.2 0-4.1 1.4-4.9 3.4L135.5 287c-.5 1.4.5 2.9 2 2.9h116.9c1.7 0 3.3-1.1 3.9-2.7L363.8 2.8c.5-1.3-.5-2.8-2-2.8zM225.9 0h-44.2C136.6 0 96.2 28.1 80.5 70.4L.1 287c-.5 1.4.5 2.8 2 2.8h117c1.7 0 3.2-1.1 3.8-2.7L227.8 2.8c.6-1.3-.5-2.8-1.9-2.8zM589.7 116.3c-7-11.7-16.3-21.8-25.4-31.9-8.4-9.3-69.7-69.8-82.4-82.2-1.5-1.4-3.4-2.2-5.5-2.2h-96c-1.7 0-3.2 1.1-3.8 2.6L271.4 286.1c-.7 1.8.7 3.8 2.6 3.8h116c1.7 0 3.2-1.1 3.8-2.7L435 175.5h49.1c19.3 0 36.3 13.9 38.8 33.1 3.1 24.2-16.5 44.6-40.3 43.1-20.2-1.3-35.6-18.9-35.6-39.2 0-.6-.5-1.2-1.2-1.2H437c-1.3 0-2.5.8-2.9 2l-13.9 37.3c-.4 1.1-.3 2.4.3 3.4 1 1.6 2 3.1 3.1 4.6 16.5 22.9 45 32.2 72.3 31.1 29.4-1.2 57.7-13.9 78.1-35.2 20.4-21.2 31.9-49.9 31.9-79.4.1-21.4-5.9-41.5-16.2-58.8zM480.3 85.6c-.9 5.8-5.6 10.5-11.4 11.4-9.3 1.4-17.1-6.4-15.7-15.7.9-5.8 5.6-10.5 11.4-11.4 9.2-1.4 17.1 6.4 15.7 15.7z"></path></svg>