<svg data-name="Layer 1" xmlns="http://www.w3.org/2000/svg" viewBox="0 0 487.65 613.5"><path d="M400.63 421.93c-35.94 40.41-76.55 74.17-120.3 101.25-1.36.84-3.06-.66-2.38-2.11 21.79-46.6 50.59-90.88 86.53-131.28 35.26-39.65 79.25-76.88 122.5-104.12-3.27-58.93-19.68-113.26-45.6-158.39-15.19 45.59-36.79 89.82-65.24 131.37-30.05 43.89-65.59 81.8-105.1 113.52-1.23.99-3.1-.29-2.62-1.8 15.27-48.31 37.77-95.16 67.81-139.05 29.1-42.5 63.4-79.32 101.41-110.41C393.51 48.08 324.17.88 246.04 0c14.24 48.6 21.98 99.98 21.98 153.19s-7.91 106.3-22.6 155.6c-.46 1.54-2.72 1.54-3.18 0-14.69-49.3-22.6-101.53-22.6-155.6S227.38 48.6 241.62 0C163.48.88 94.15 48.08 50.01 120.91c38.02 31.09 72.32 67.91 101.42 110.41 30.05 43.89 52.54 90.74 67.81 139.05.48 1.51-1.39 2.79-2.62 1.8-39.51-31.71-75.06-69.63-105.1-113.52-28.45-41.55-50.05-85.78-65.24-131.37C20.35 172.39 3.94 226.73.67 285.66c43.25 27.25 87.24 64.48 122.5 104.12 35.94 40.41 64.74 84.68 86.53 131.28.68 1.45-1.01 2.96-2.38 2.11-43.74-27.08-84.36-60.84-120.3-101.25-33.65-37.83-64.8-82.79-86.77-126.86-.13 4.09-.25 8.19-.25 12.32C0 467.7 97.33 599.3 221.54 613.5c5.11-90.4 16.11-266.68 16.11-266.68h12.37s11 176.28 16.11 266.68c124.21-14.2 221.54-145.8 221.54-306.12 0-4.13-.12-8.23-.25-12.32-21.98 44.07-53.13 89.03-86.78 126.87Z"></path></svg>