<svg data-name="Layer 1" xmlns="http://www.w3.org/2000/svg" viewBox="0 0 593.71 431.34"><circle cx="215.35" cy="134.64" r="31.51" transform="rotate(-45 215.35 134.64)"></circle><circle cx="378.36" cy="134.64" r="31.51" transform="rotate(-13.28 378.431 134.646)"></circle><path d="M504.71 88.75C485.25 36.9 435.25 0 376.61 0H217.1C158.46 0 108.46 36.9 89 88.75 37.07 106.85-.26 156.39 0 214.46c.13 28.55 23.58 51.53 52.13 51.53h28.15v28.54c0 75.56 61.25 136.81 136.81 136.81H376.6c75.56 0 136.81-61.25 136.81-136.81v-28.54h28.15c28.55 0 52-22.98 52.13-51.53.26-58.08-37.06-107.61-88.99-125.72Zm8.7 125.12c-28.83 0-52.2 23.37-52.2 52.2v1.55l-.25.04c-26.19.09-49.84-15.2-60.8-38.43-5.05-10.7-16.83-16.98-28.46-14.84-16.61 3.06-26.16 21.03-18.98 36.46 18.86 40.5 59.45 67.61 104.72 68.88-10.75 34.42-42.93 59.47-80.85 59.47H217.1c-45.76 0-83.13-36.49-84.6-81.9v-31.36l.19-.15v.21c26.19-.09 49.84 15.2 60.8 38.43 5.05 10.7 16.83 16.98 28.46 14.84 16.61-3.06 26.16-21.03 18.98-36.46-19.38-41.62-61.71-69.11-108.49-68.93H52.16c0-43.95 35.28-79.65 79.06-80.35a1.43 1.43 0 0 0 1.42-1.27c1.14-10.28 11.57-80.12 84.48-80.12h159.51c75.49 0 83.71 69.61 84.52 80.07.06.75.68 1.31 1.43 1.32 43.76.72 79.01 36.42 79.01 80.35h-28.15Z"></path></svg>