<svg xmlns="http://www.w3.org/2000/svg" width="610.4" viewBox="0 0 610.4 588.9" height="588.9"><path d="M463.1 261l70.3-121.7c-8.4-12.8-17.4-25-26.9-36.3l-51.6 89.3v-139c-14.9-11.4-30.5-21.1-46.8-29l-82.2 142.4V.9c-13.7-1.3-27.8-1.3-41.5 0v165.7L202.2 24.2c-16.3 7.9-31.9 17.7-46.8 29v139l-51.6-89.3c-9.5 11.3-18.5 23.5-26.9 36.3L147.3 261 43.5 201.1C36.6 216.7 30.4 233 25 249.8l51 88.4L11.5 301c-3 14.3-5.4 28.8-7.3 43.7l79.4 45.9H.5c-.6 13.7-.7 27.8-.2 41.6l71.5 41.3H3c1.5 14.1 3.5 27.9 5.9 41.5h64.8l-57.6 33.3c3.5 14 7.5 27.6 12.1 40.9l128.4-74.1h112.1l-25.3 43.8h123.5l-25.3-43.8H456l126.5 73c4.5-13.3 8.5-26.9 12-40.9l-55.6-32.1h62.5c2.5-13.6 4.5-27.4 5.9-41.5h-66.5l69.2-39.9c.5-14.2.4-28.8-.2-42.9h-83.2l79.4-45.9c-1.9-14.8-4.3-29.4-7.3-43.7l-64.5 37.3 51.1-88.4c-5.4-16.8-11.6-33.1-18.5-48.7L463.1 261zM154.5 473.3l-76.9-41.5h77.8l71.8 41.5h-72.7zM93.6 283.2l99.8 57.6 56.4 97.6-94.6-54.6-61.6-100.6zM201.5 272V115.1l82.9 143.6v156.9L201.5 272zm124.4 143.7V258.8l82.9-143.6v156.9l-82.9 143.6zm129.4-31.9l-94.6 54.6 56.4-97.6 99-57.1-60.8 100.1zm2.9 89.5h-75.1l71.8-41.5H535l-76.8 41.5z"></path></svg>