<svg xmlns="http://www.w3.org/2000/svg" width="469.8" viewBox="0 0 469.8 603.8" height="603.8" xml:space="preserve" style="enable-background:new 0 0 469.8 603.8"><path d="M289.5 312c-.3.6.2 1.3.9 1.1 9.9-2.3 21.2-2.9 33.5-.1l.4-.2-.1-.5c-8.1-7.6-13.7-16-17.4-24.4-.3-.6-1-.6-1.4-.1L289.5 312"></path><path d="M290.7 283.5c-1.9 3.6-6.3 4.9-9.9 3-3.6-1.9-4.9-6.3-3-9.9 1.9-3.6 6.3-4.9 9.9-3 3.5 1.9 4.8 6.4 3 9.9M110 130.7c-2 3.7-3.8 7.8-5.4 12.2-10.8 33.5 7.8 54.9 14.3 61.2-8.8-1.9-37-5.2-58.7 22.5-2.7 3.8-5 7.6-7 11.3-18.2 34.4-7.4 64.9-9.1 93.2-.8 9.4-3.2 22.6-9.5 34.5-6.6 12.2-17.2 23-34.6 26.7l143.6 211.5s34.5-3.5 54.6-41.6c8-15.1 13.7-35.6 14.2-63.4.1-9.2-.5-18.5-1.5-27.7-1.9-17.7-4.6-66.8 16.7-107 4.9-9.3 11.1-18 18.8-25.9 0 0 12.5-14 33.2-21.8.9-.3 1.6-.9 2.1-1.7l21.2-32.1c.1-.1.1-.2.2-.4.6-1 .7-2.3.3-3.4-7.2-23.6-1.9-44.7-1.9-44.7 2.1-10.8 5.9-20.9 10.8-30.1 21.3-40.2 63.5-65.5 79.2-73.9 8.2-4.4 16.1-9 23.7-14.3 22.8-16 36.5-32.2 44.5-47.3 20.1-38 3.7-68.5 3.7-68.5H207.8c6.7 16.4 3.7 31.3-2.7 43.6-6.3 11.9-15.9 21.3-23.2 27.2-22.4 17.3-53.7 25.5-71.9 59.9"></path></svg>