<svg data-name="Layer 1" xmlns="http://www.w3.org/2000/svg" viewBox="0 0 477.63 608.29"><ellipse cx="241.71" cy="79.97" rx="102.28" ry="79.97"></ellipse><path d="M395.39 130.62c-86.48 0-156.6 82.52-156.6 184.28 0-101.76-70.12-184.28-156.6-184.28H0v390.2c0 48.33 46.35 87.47 103.5 87.47S207 569.1 207 520.82s-46.35-87.47-103.5-87.47c-30.98 0-58.71 11.55-77.71 29.8V286.18h56.4c73.75 0 109.87 41.07 127.41 78.04 11.13 23.44 16.32 49.28 16.32 75.21v159.29h25.79V439.43c0-25.93 5.19-51.78 16.32-75.21 17.54-36.97 53.66-78.04 127.41-78.04h56.4v176.97c-18.96-18.25-46.68-29.8-77.71-29.8-57.15 0-103.5 39.19-103.5 87.47s46.35 87.47 103.5 87.47 103.5-39.19 103.5-87.47v-390.2h-82.24Z"></path></svg>