<svg data-name="Layer 1" xmlns="http://www.w3.org/2000/svg" viewBox="0 0 598.49 598.49"><circle cx="41.29" cy="369.02" r="41.29" transform="rotate(-67.5 41.28615129 369.02714392)"></circle><circle cx="135.38" cy="369.02" r="41.29" transform="rotate(-67.5 135.38112076 369.02322954)"></circle><circle cx="229.47" cy="463.11" r="41.29" transform="rotate(-13.28 229.52454277 463.18262185)"></circle><circle cx="229.47" cy="557.2" r="41.29" transform="rotate(-13.28 229.5382173 557.30287703)"></circle><circle cx="229.47" cy="369.02" r="41.29" transform="rotate(-67.5 229.47109024 369.0267982)"></circle><circle cx="557.2" cy="369.02" r="41.29" transform="rotate(-9.22 557.04646037 368.9595365)"></circle><circle cx="463.11" cy="369.02" r="41.29" transform="rotate(-9.22 462.9942432 368.92759774)"></circle><circle cx="369.02" cy="463.11" r="41.29" transform="rotate(-13.28 369.09073524 463.19186552)"></circle><circle cx="369.02" cy="557.2" r="41.29" transform="rotate(-13.28 369.10440976 557.3121207)"></circle><circle cx="369.02" cy="369.02" r="41.29" transform="rotate(-67.5 369.02478073 369.02550497)"></circle><circle cx="369.02" cy="41.29" r="41.29" transform="rotate(-45 369.02136447 41.28634603)"></circle><circle cx="369.02" cy="135.38" r="41.29" transform="rotate(-67.5 369.02705615 135.381845)"></circle><circle cx="463.11" cy="229.47" r="41.29" transform="rotate(-9.22 463.00766451 229.43799564)"></circle><circle cx="557.2" cy="229.47" r="41.29" transform="rotate(-67.5 557.20094342 229.46646875)"></circle><circle cx="369.02" cy="229.47" r="41.29" transform="rotate(-67.5 369.0234875 229.47181447)"></circle></svg>