<svg id="a" data-name="Layer 1" xmlns="http://www.w3.org/2000/svg" width="641.74" viewBox="0 0 641.74 642" height="642">
  <path d="m320.87,0c-41.28,0-80.7,7.77-116.97,22.02h233.94C401.57,7.77,362.15,0,320.87,0Z"></path>
  <path d="m469.49,36.47H172.25c-12.52,6.55-24.59,13.93-36.08,22.02h369.41c-11.49-8.09-23.56-15.47-36.08-22.02Z"></path>
  <path d="m246.64,85.07l.56,9.89h301.52c-7.64-7.77-15.73-15.15-24.2-22.02H117.23c-8.47,6.87-16.56,14.25-24.2,22.02h144.51l-.43-9.89h9.53Z"></path>
  <path d="m79.54,109.4c-6.23,7.06-12.07,14.45-17.66,22.02h150.55c-.14-7.59-1.18-14.95-2.95-22.02H79.54Z"></path>
  <path d="m368.55,131.42l-.93-11.04h10.46l1.06,11.04h200.71c-5.59-7.58-11.43-14.96-17.66-22.02h-271.71c5.61,6.57,10.17,14.01,13.68,22.02h64.38Z"></path>
  <path d="m147.02,158.25l.46,9.63h58.66c2.65-6.99,4.51-14.37,5.49-22.02H51.87c-4.69,7.13-9.05,14.51-13.16,22.02h99.9l-.29-9.63h8.7Z"></path>
  <path d="m311.72,166.92c0,.32-.03.64-.03.96h38.57c.4-3.48.63-7.01.63-10.59,0-3.87-.28-7.68-.75-11.43h-40.95c1.65,6.75,2.54,13.8,2.54,21.06Z"></path>
  <path d="m603.03,167.88c-4.11-7.51-8.47-14.89-13.16-22.02h-173.82c4.62,6.61,8.12,14.02,10.27,22.02h176.71Z"></path>
  <path d="m308.28,191.48h-5.18s2.85-13.24-19.04-16.12c-9.81-1.29-21-.37-32.2,1.71l1.16,20.34h55.79c1.76,2.24,3.4,4.57,5,6.93h60.8l-1.29-15.52c-12.96,3.88-24.26,9.14-30.23,12.15-1.38.69-2.76-.78-2.06-2.16,2.63-5.22,4.66-10.77,6.27-16.5h-36.97c-.54,3.1-1.2,6.17-2.06,9.15Z"></path>
  <path d="m178.06,204.35h18.03c-1.52-2.38-3.12-4.7-4.84-6.93h50.76l-.79-18.04c-19.72,4.83-38.08,12.25-47.34,16.28-1.51.66-2.91-1.12-1.9-2.42,2.68-3.45,5.07-7.12,7.28-10.91h-26.45c2.35,7.1,4.11,14.46,5.25,22.02Z"></path>
  <path d="m31.33,182.33c-3.47,7.19-6.68,14.57-9.57,22.02h89.87c2.48-7.01,4.19-14.37,4.99-22.02H31.33Z"></path>
  <path d="m427.33,200.61h-4.93s2.85-16.65-19.82-16.65c-5.98,0-12.14.79-18.18,2.04l1.77,18.34h233.81c-2.89-7.45-6.1-14.83-9.57-22.02h-181.83c.07,1.29.22,2.55.22,3.85,0,4.94-.51,9.77-1.47,14.43Z"></path>
  <path d="m472,240.81l-7.26-10.34,7.83-4.49,10.4,14.83h148.75c-1.86-7.45-4.04-14.83-6.48-22.02h-181.69c4.21,6.9,7.71,14.27,10.43,22.02h18.02Z"></path>
  <path d="m330.11,240.81h29.25c-1.03-7.69-3.04-15.06-5.87-22.02h-31.45c3.38,6.99,6.13,14.34,8.07,22.02Z"></path>
  <path d="m96.97,237.54l-2.82-2.82c4.18-4.9,7.81-10.26,10.96-15.93H16.5c-2.44,7.19-4.62,14.57-6.48,22.02h130.83l-.55-17.9c-25.72,2.2-43.32,14.62-43.32,14.62Z"></path>
  <path d="m179.63,224.7c0,5.04-.28,10.02-.82,14.93,0,0-4,0-4,0,0,0,.24-14.25-15.23-16.29-3.24-.43-6.4-.66-9.48-.73l.87,18.21h58.81c-1.17-7.69-3.27-15.06-6.18-22.02h-24.15c.08,1.96.16,3.92.16,5.91Z"></path>
  <path d="m333.71,269.64c0,2.57-.16,5.11-.33,7.64h23.44c1.96-7.04,3.08-14.41,3.28-22.02h-27.37c.58,4.72.98,9.5.98,14.38Z"></path>
  <path d="m460.47,277.28h34.42c-3.06-6.62-6.61-12.98-10.64-19l-2.12-3.02h-24.16c1.5,7.13,2.36,14.48,2.49,22.02Z"></path>
  <path d="m638.92,277.28c-1.03-7.45-2.31-14.77-3.85-22.02h-139.38l13.74,22.02h129.49Z"></path>
  <path d="m187.34,277.28h21c1.69-7.07,2.59-14.44,2.59-22.02h-29.75c2.73,7.04,4.8,14.41,6.16,22.02Z"></path>
  <path d="m6.68,255.26c-1.54,7.25-2.82,14.57-3.85,22.02h97.76c-.66-7.63-2.19-15-4.51-22.02H6.68Z"></path>
  <path d="m327.06,308.64h-5.27s3.52-17.49-16.59-20.13c-13.12-1.73-29.98.41-46.78,4.09l1.2,21.18h58.05s.02.02.03.03h28.49s-.02-.02-.03-.03h37.55l-1.39-16.71c-15.85,4.33-30.59,9.47-38.11,12.21-1.5.55-2.69-1.19-1.74-2.47,3.47-4.69,6.44-9.77,8.96-15.09h-19.87c-1.11,5.79-2.57,11.46-4.5,16.92Z"></path>
  <path d="m189.26,298.53c0,5.17-.33,10.25-.96,15.25h58.79l-.8-18.27c-20.99,5.44-40.42,12.47-50.59,16.36-1.5.57-2.75-1.13-1.83-2.45,3.84-5.49,7.09-11.43,9.71-17.69h-14.55c.13,2.25.22,4.52.22,6.81Z"></path>
  <path d="m456.53,309.76h-4.6s5.99-16.54-21.92-19.74c-9.12-1.04-22.01.86-35.22,3.9l1.9,19.77,59.74.08s.02.02.03.03h24.01l-6.87-12.9,6.1-4.3,12.9,17.21h13.46c-1.23-7.57-3.05-14.95-5.43-22.08h-40.8c-.66,6.16-1.73,12.2-3.31,18.04Z"></path>
  <path d="m1.22,291.72c-.71,7.32-1.09,14.64-1.22,22.08h96.84c2.14-7.05,3.45-14.45,3.92-22.08H1.22Z"></path>
  <path d="m641.74,313.81c-.13-7.45-.51-14.77-1.22-22.08h-119.22l13.74,22.08h106.7Z"></path>
  <path d="m339.08,350.28h29.4c-2.57-7.88-6.15-15.3-10.63-22.08h-29.51c4.34,6.9,7.94,14.29,10.73,22.08Z"></path>
  <path d="m479.47,350.28h18.61c-1.63-5.11-3.57-10.09-6.05-14.77l-3.9-7.32h-20.42c4.64,6.9,8.64,14.26,11.76,22.08Z"></path>
  <path d="m512.38,337.05c0-3.66-.26-7.32-.77-10.85h-13.67l1.56,1.99h0l12.56,15.99c.19-2.38.32-4.75.32-7.13Z"></path>
  <path d="m184.64,327.66s-14.02-.67-29.49-.07l1.09,22.68h37.01c-2.06-7.92-4.94-15.5-8.61-22.61Z"></path>
  <path d="m560.85,350.28h79.67c.71-7.32,1.09-14.64,1.22-22.08h-92.64l11.75,22.08Z"></path>
  <path d="m80.85,350.25c-.45-5.42-2.97-10.26-6.77-13.71l2.11-2.84,8.92,5.15c2.24-3.4,4.23-6.97,6.03-10.65H0c.13,7.45.51,14.77,1.22,22.08h77.96s0-.02,0-.03h1.68Z"></path>
  <path d="m92.63,345.18l8.78,5.07h42.78l-.66-21.94c-4.34.38-8.54.9-12.33,1.61-20.59,3.82-38.57,15.26-38.57,15.26Z"></path>
  <polygon points="144.63 364.69 116.93 364.69 145.12 380.89 144.63 364.69"></polygon>
  <path d="m345.67,386.74h26.9c.23-2.63.47-5.27.47-7.96,0-4.79-.48-9.46-1.18-14.06h-28.68c1.52,7.12,2.39,14.47,2.5,22.02Z"></path>
  <path d="m196.8,377.98c0-4.49-.27-8.91-.8-13.26h-39.07l1.06,22.02h38.39c.23-2.9.43-5.81.43-8.76Z"></path>
  <path d="m635.07,386.74c1.54-7.25,2.82-14.57,3.85-22.02h-65.87l13.74,22.02h48.28Z"></path>
  <path d="m80.62,364.72H2.82c1.03,7.45,2.31,14.77,3.85,22.02h73.42c.49-4.74.83-9.52.83-14.38,0-2.57-.16-5.1-.3-7.64Z"></path>
  <path d="m487.45,386.74h14.44c.34-3.15.54-6.33.54-9.57,0-4.23-.37-8.37-.95-12.45h-17.44c1.81,7.11,2.96,14.46,3.42,22.02Z"></path>
  <path d="m484.08,423.21h74.37l4.65-1.93c-8.15-10.27-20.74-16.82-34.86-16.82-12.01,0-22.86,4.75-30.88,12.45l-3.4-1.99c2.06-4.37,3.66-9,5.01-13.74h-11.4c-.46,7.56-1.66,14.91-3.48,22.02Z"></path>
  <path d="m340.29,423.21h21.18c3.8-6.87,6.81-14.22,8.77-22.02h-25.28c-.85,7.59-2.39,14.96-4.66,22.02Z"></path>
  <path d="m553.03,395.21h0s16.41,23.44,16.41,23.44l25.35-10.5c-9.43-8.29-21.79-13.32-35.34-13.32-2.17,0-4.32.13-6.42.38Z"></path>
  <path d="m194.27,401.19h-35.59l1.06,22.02h27.23c3.16-6.99,5.65-14.34,7.3-22.02Z"></path>
  <path d="m585.08,423.21h40.16c2.44-7.19,4.62-14.57,6.48-22.02h-31.07l7.77,10.66-23.34,11.36Z"></path>
  <path d="m10.02,401.19c1.86,7.45,4.04,14.83,6.48,22.02h54.82c2.78-7.07,4.94-14.44,6.54-22.02H10.02Z"></path>
  <path d="m147.53,459.65l-.56-18.28-88.83,12.48-1.6-2.77c2.95-4.29,5.58-8.81,8.05-13.44H21.76c2.89,7.45,6.1,14.83,9.57,22.02h41.04s0-.01,0-.02c0,0,75.17,0,75.17,0Z"></path>
  <path d="m253.46,459.65l-1.15-26.27c-39.55,7.21-83.12,22.43-83.12,22.43l-2.38-2.38c4.59-4.86,8.73-10.15,12.38-15.79h-18.76l1.06,22h91.97Z"></path>
  <path d="m517.15,459.67h93.26c3.47-7.19,6.68-14.57,9.57-22.02h-64.57l-15.03,7.32c-8.3,4.05-16.03,9.05-23.22,14.7Z"></path>
  <path d="m324.68,454.22h-3.8s6.75-18.52-22.05-23.6c-8.67-1.53-20.07-1.07-32.53.56l1.62,28.48h127.92l-1.83-22h-.45c-28.42,7.9-53.41,17.37-53.41,17.37l-2.55-3.64c5.19-4.05,9.9-8.67,14.11-13.73h-17.25c-2.81,5.8-6.05,11.36-9.77,16.56Z"></path>
  <path d="m475.02,447.31h-3.28s7.71-20.18-19.78-20.18c-12.16,0-27.89,2.82-43.7,6.66l2.49,25.87c39.89,0,77.84-7.87,112.7-22.02h-44.1c-1.32,3.29-2.73,6.53-4.33,9.66Z"></path>
  <path d="m589.87,496.14c4.69-7.13,9.05-14.51,13.16-22.02h-101.49c-6.15,6.73-11.57,14.11-16.21,22.02h104.53Z"></path>
  <path d="m81.43,474.12h-42.72c4.11,7.51,8.47,14.89,13.16,22.02h55.92c-10.27-5.42-19.26-12.94-26.37-22.02Z"></path>
  <path d="m79.54,532.6h482.66c6.23-7.06,12.07-14.44,17.66-22.02H61.89c5.59,7.58,11.43,14.96,17.66,22.02Z"></path>
  <path d="m117.23,569.07h407.28c8.47-6.87,16.56-14.25,24.2-22.02H93.03c7.64,7.77,15.73,15.15,24.2,22.02Z"></path>
  <path d="m172.25,605.53h297.25c12.52-6.55,24.59-13.93,36.08-22.02H136.17c11.49,8.09,23.56,15.47,36.08,22.02Z"></path>
  <path d="m320.87,642c41.28,0,80.7-7.77,116.97-22.02h-233.94c36.27,14.25,75.69,22.02,116.97,22.02Z"></path>
</svg>