<svg xmlns="http://www.w3.org/2000/svg" width="587.2" viewBox="0 0 587.2 587.2" height="587.2" xml:space="preserve"><path d="M448.3 414.5c-5.2-5.2-6-13.4-1.9-19.5 15-22.5 25.1-48.5 28.9-76.5.9-7 6.8-12.4 13.9-12.6 1.3-.1 2.6-.1 4-.1 51.8 0 93.8 42.1 93.8 93.8 0 49.4-38.3 90-86.8 93.6-.6 0 0 0-.9.1-2.9.2-6 3.2-6.4 6.2 0 .4 0 .3-.1.7-3.4 48.7-44.1 87.2-93.6 87.2-51.8 0-93.8-42-93.8-93.8 0-1.4 0-2.8.1-4.2.3-7.1 5.6-12.9 12.6-13.8 26.2-3.5 50.6-12.6 72.1-25.9 6.1-3.8 14-2.9 19.1 2.2l25.5 25.5c10.5 10.5 27.5 10.5 38 0s10.5-27.5 0-38l-24.5-24.9zM87.2 492.9C38.5 489.5 0 448.9 0 399.3c0-51.8 42.1-93.8 93.8-93.8 1.4 0 2.8 0 4.2.1 7.1.3 12.9 5.6 13.8 12.6 10.9 81.5 75.5 146.1 156.9 157.1 7 .9 12.4 6.8 12.6 13.9.1 1.3.1 2.6.1 4 0 51.8-42.1 93.8-93.8 93.8-49.4 0-90-38.3-93.6-86.8 0-.6 0-.3-.1-.9-.5-2.9-3.2-6.1-6.1-6.4h-.6zM351.8 394c3.2 3.2 4.6 7.7 3.8 12.2-.8 4.4-3.8 8.2-7.9 10-16.5 7.3-34.8 11.4-54 11.4-73.9 0-133.9-60-133.9-133.9s60-133.9 133.9-133.9 133.9 60 133.9 133.9c0 21.7-5.2 42.2-14.3 60.3-2 3.9-5.7 6.6-10 7.3-4.3.7-8.7-.7-11.8-3.8-3.2-3.1-5.7-5.6-5.7-5.6-10.5-10.5-27.5-10.5-38 0s-10.5 27.4-.1 37.9l.1.1c-.1 0 1.6 1.7 4 4.1zM500 94.3c48.7 3.4 87.2 44.1 87.2 93.6 0 51.8-42 93.8-93.8 93.8-1.4 0-2.8 0-4.2-.1-7.1-.3-12.9-5.6-13.8-12.6-10.9-81.5-75.5-146.1-156.9-157.1-7-.9-12.4-6.8-12.6-13.9-.1-1.3-.1-2.6-.1-4 0-51.8 42.1-93.8 93.8-93.8 49.4 0 90 38.3 93.6 86.8 0 .6 0 .3.1.9.5 2.9 3.2 6 6.2 6.4h.5zM94.3 87.2C97.7 38.5 138.4 0 187.9 0c51.8 0 93.8 42.1 93.8 93.8 0 1.4 0 2.8-.1 4.2-.3 7.1-5.6 12.9-12.6 13.8-81.5 10.9-146.1 75.5-157.1 156.9-.9 7-6.8 12.4-13.9 12.6-1.3.1-2.6.1-4 .1-51.8 0-93.8-42.1-93.8-93.8 0-49.4 38.3-90 86.8-93.6.6 0 .3 0 .9-.1 2.9-.5 6-3.2 6.4-6.1v-.6z" fill-rule="evenodd" clip-rule="evenodd"></path></svg>