<svg version="1.0" xmlns="http://www.w3.org/2000/svg" width="603.4" viewBox="0 0 603.4 603.4" height="603.4" xml:space="preserve" style="enable-background:new 0 0 603.4 603.4"><path d="M602.6 297c-9.8-62.1-44-123.3-94.4-165.4-47.4-39.5-106.7-58.2-162.6-58.2-54.3 0-104 19.2-140 54.1C169.8 162.3 150 210.1 150 262c0 13.4 2.2 28.8 6.5 39.7h65.3c-13.5-36.8-3.1-71.4-3.1-71.4 5.4-22 16.5-41.5 32.6-56.8 23.7-22.6 57.1-35.1 94.1-35.1 41 0 85.2 13.1 121 43.1 41.7 34.9 62.4 75.7 70.8 120.1h66l-.6-4.6z"></path><path d="M341.3 150.1c-13.4 0-28.8 2.2-39.7 6.5v65.3c36.8-13.5 71.4-3.1 71.4-3.1 22 5.4 41.5 16.5 56.8 32.6 22.6 23.7 35.1 57.1 35.1 94.1 0 41-13.1 85.2-43.1 121-34.9 41.7-75.7 62.4-120.1 70.8v66l4.7-.7c62.1-9.8 123.3-44 165.4-94.4 39.5-47.4 58.2-106.7 58.2-162.6 0-54.3-19.2-104-54.1-139.9-34.8-35.9-82.6-55.6-134.6-55.6z"></path><path d="M453.3 341.3c0-13.4-2.2-28.8-6.5-39.7h-65.3c13.5 36.8 3.1 71.4 3.1 71.4-5.4 22-16.5 41.5-32.6 56.8-23.7 22.6-57.1 35.1-94.1 35.1-41 0-85.2-13.1-121-43.1-41.8-34.9-62.5-75.7-70.9-120.1H0l.7 4.7c9.8 62.1 44 123.3 94.4 165.4 47.4 39.5 106.7 58.2 162.6 58.2 54.3 0 104-19.2 140-54.1 35.9-34.8 55.6-82.6 55.6-134.6z"></path><path d="M262 453.3c13.4 0 28.8-2.2 39.7-6.5v-65.3c-36.8 13.5-71.4 3.1-71.4 3.1-22-5.4-41.5-16.5-56.8-32.6-22.6-23.7-35.1-57.1-35.1-94.1 0-41 13.1-85.2 43.1-121 34.9-41.7 75.7-62.4 120.1-70.8V0l-4.6.7c-62.1 9.8-123.3 44-165.4 94.4-39.5 47.4-58.2 106.7-58.2 162.6 0 54.3 19.2 104 54.1 139.9 34.8 36 82.6 55.7 134.5 55.7z"></path></svg>