<svg data-name="Layer 1" xmlns="http://www.w3.org/2000/svg" viewBox="0 0 618.07 445.62"><path d="M376.53 139.67H272v166.28h104.53c45.84 0 83.14-37.29 83.14-83.14s-37.29-83.14-83.14-83.14Z"></path><path d="M523.05 0H95.01C36.49 56.23 0 135.24 0 222.81s36.49 166.58 95.01 222.81h428.04c58.53-56.23 95.02-135.23 95.02-222.81S581.58 56.23 523.05 0ZM376.52 368.31H209.64v-60.75H96.04v-60.33h113.59v-48.84H96.04v-60.33h113.59V77.31h166.89c80.23 0 145.5 65.27 145.5 145.5s-65.27 145.5-145.5 145.5Z"></path></svg>