<svg data-name="Layer 1" xmlns="http://www.w3.org/2000/svg" viewBox="0 0 619.82 419.75"><path d="M73.67 212.7c-16.85-16.85-44.18-16.85-61.03 0s-16.85 44.18 0 61.03 44.18 16.85 61.03 0 16.85-44.18 0-61.03ZM140.36 207.05c16.85-16.85 16.85-44.18 0-61.03s-44.18-16.85-61.03 0-16.85 44.18 0 61.03 44.18 16.85 61.03 0ZM140.36 279.39c-16.85-16.85-44.18-16.85-61.03 0s-16.85 44.18 0 61.03 44.18 16.85 61.03 0 16.85-44.18 0-61.03ZM146.02 273.74c16.85 16.85 44.18 16.85 61.03 0s16.85-44.18 0-61.03-44.18-16.85-61.03 0-16.85 44.18 0 61.03ZM146.02 346.08c-16.85 16.85-16.85 44.18 0 61.03s44.18 16.85 61.03 0 16.85-44.18 0-61.03-44.18-16.85-61.03 0ZM212.71 279.39c-16.85 16.85-16.85 44.18 0 61.03s44.18 16.85 61.03 0 16.85-44.18 0-61.03-44.18-16.85-61.03 0ZM353.07 243.22v-23.53h23.53c11.04 0 22.09-4.21 30.52-12.64 16.85-16.85 16.85-44.18 0-61.03-8.43-8.43-19.47-12.64-30.52-12.64h-23.53v-23.53c0-11.05-4.21-22.09-12.64-30.52-16.85-16.85-44.18-16.85-61.03 0-8.43 8.43-12.64 19.47-12.64 30.52v23.53h-23.53c-11.04 0-22.09 4.21-30.52 12.64-16.85 16.85-16.85 44.18 0 61.03 8.43 8.43 19.47 12.64 30.52 12.64h23.53v23.53c0 11.04 4.21 22.09 12.64 30.52 16.85 16.85 44.18 16.85 61.03 0 8.43-8.43 12.64-19.47 12.64-30.52ZM207.05 140.36c16.85-16.85 16.85-44.18 0-61.03s-44.18-16.85-61.03 0-16.85 44.18 0 61.03 44.18 16.85 61.03 0ZM412.77 140.36c16.85 16.85 44.18 16.85 61.03 0s16.85-44.18 0-61.03-44.18-16.85-61.03 0-16.85 44.18 0 61.03ZM407.12 73.67c16.85-16.85 16.85-44.18 0-61.03s-44.18-16.85-61.03 0-16.85 44.18 0 61.03 44.18 16.85 61.03 0ZM412.77 346.08c-16.85 16.85-16.85 44.18 0 61.03s44.18 16.85 61.03 0 16.85-44.18 0-61.03-44.18-16.85-61.03 0ZM407.12 279.39c-16.85-16.85-44.18-16.85-61.03 0s-16.85 44.18 0 61.03 44.18 16.85 61.03 0 16.85-44.18 0-61.03ZM479.46 279.39c-16.85 16.85-16.85 44.18 0 61.03s44.18 16.85 61.03 0 16.85-44.18 0-61.03-44.18-16.85-61.03 0ZM412.77 212.7c-16.85 16.85-16.85 44.18 0 61.03s44.18 16.85 61.03 0 16.85-44.18 0-61.03-44.18-16.85-61.03 0ZM607.18 212.7c-16.85-16.85-44.18-16.85-61.03 0s-16.85 44.18 0 61.03 44.18 16.85 61.03 0 16.85-44.18 0-61.03ZM479.46 207.05c16.85 16.85 44.18 16.85 61.03 0s16.85-44.18 0-61.03-44.18-16.85-61.03 0-16.85 44.18 0 61.03Z"></path></svg>