<svg data-name="Layer 1" xmlns="http://www.w3.org/2000/svg" viewBox="0 0 616.68 616.68"><path d="M240.46 346.01c-31.24 20.06-55.99 45.35-72.75 72.2 42.97 45.6 131.89 45.02 208.5-4.17 31.24-20.06 55.99-45.35 72.75-72.21-42.97-45.59-131.89-45.01-208.5 4.18ZM240.46 202.63c-31.24 20.06-55.99 45.35-72.75 72.21 42.97 45.6 131.89 45.02 208.5-4.17 31.24-20.06 55.99-45.35 72.75-72.21-42.97-45.6-131.89-45.01-208.5 4.17Z"></path><path d="M308.34 0C138.05 0 0 138.05 0 308.34s138.05 308.34 308.34 308.34 308.34-138.05 308.34-308.34S478.63 0 308.34 0ZM459.2 211.47c23.43 36.49 17.7 85.6-10.24 130.37 3.77 3.99 7.22 8.31 10.24 13.01 37.49 58.38.33 149.08-82.99 202.57-83.32 53.5-181.25 49.54-218.74-8.83-23.43-36.49-17.7-85.61 10.24-130.37-3.77-3.99-7.22-8.31-10.24-13.01-23.43-36.49-17.7-85.61 10.24-130.37-3.77-3.99-7.22-8.31-10.24-13.01-37.49-58.38-.33-149.07 82.99-202.57S421.71 9.72 459.2 68.1c23.43 36.49 17.7 85.6-10.24 130.37 3.77 3.99 7.22 8.31 10.24 13.01Z"></path></svg>