<svg xmlns="http://www.w3.org/2000/svg" width="623.6" viewBox="0 0 623.6 463.8" height="463.8" xml:space="preserve"><path d="M390 463.8H231.9C104 463.8 0 359.8 0 231.9S104 0 231.9 0h161.5c61.9 0 119.8 24.1 163.2 67.9 43.2 43.7 67.1 101.9 67.1 164-.1 127.9-104.9 231.9-233.7 231.9zM231.9 15C112.3 15 15 112.3 15 231.9c0 119.6 97.3 216.9 216.9 216.9H390c120.5 0 218.5-97.3 218.5-216.9C608.6 112.3 512 15 393.4 15H231.9z"></path><path d="M393.8 366.9h-36.2V143.7h-89.1V367h-37.1C157.3 366.9 97 306.6 97 232.5S157.3 98 231.5 98h162.3c74.2 0 134.5 60.3 134.5 134.5S468 366.9 393.8 366.9zm-21.1-15h21.2c65.9 0 119.4-53.6 119.4-119.4 0-65.9-53.6-119.4-119.4-119.4H231.5C165.6 113 112 166.6 112 232.5s53.6 119.4 119.4 119.4h22V128.6h119.2v223.3z"></path></svg>