<svg xmlns="http://www.w3.org/2000/svg" width="631" viewBox="0 0 631 631" height="631" style="enable-background:new 0 0 631 631" xml:space="preserve"><path d="M315.5 0C141.3 0 0 141.3 0 315.5S141.3 631 315.5 631 631 489.8 631 315.5 489.8 0 315.5 0zM29 377.3c-4.3-19.9-6.5-40.6-6.5-61.8 0-20.8 2.2-41.1 6.3-60.7l78.9 61.3L29 377.3zm286.5 142.4c-112.4 0-203.5-91.1-203.5-203.5s91.1-203.5 203.5-203.5c78.6 0 146.8 44.6 180.7 109.8l-107.9 93.4 108.1 93.6c-33.8 65.4-102.1 110.2-180.9 110.2zM519.4 356c-22.4 0-40.5-18.1-40.5-40.5S497 275 519.4 275s40.5 18.1 40.5 40.5-18.1 40.5-40.5 40.5z"></path></svg>