<svg xmlns="http://www.w3.org/2000/svg" width="624.7" viewBox="0 0 624.7 602.6" height="602.6" style="enable-background:new 0 0 624.7 602.6" xml:space="preserve"><path d="M413.4 0H211.3C94.8 0 0 94.8 0 211.3 0 304.2 60.4 385.6 148.2 413v189.6h328.3V413c87.8-27.4 148.2-108.8 148.2-201.7C624.7 94.8 529.9 0 413.4 0zM165.8 388.6C84.8 367.9 28.3 295 28.3 211.3c0-100.9 82.1-183 183-183h86.9v143l-150-88.7v220.1l150 88.7v183H176.5v-183l-10.7-2.8zm160.7-183.9 121.7-70.8v153.3L326.5 358V204.7zm-28.3 153.2L176.5 287V133.8l121.8 70.9v153.2zm160.7 30.7-10.6 2.7v183H326.5v-183l150-88.7V82.5l-150 88.7v-143h86.9c100.9 0 183 82.1 183 183 0 83.8-56.6 156.7-137.5 177.4z"></path></svg>