<svg xmlns="http://www.w3.org/2000/svg" width="605.3" viewBox="0 0 605.3 605.3" height="605.3" xml:space="preserve"><circle cx="158" cy="360.3" r="20"></circle><circle cx="360.5" cy="361.6" r="20"></circle><circle transform="rotate(-67.5 507.725 365.815)" cx="507.7" cy="365.8" r="20"></circle><circle transform="rotate(-80.781 359.267 498.32)" cx="359.3" cy="498.3" r="20"></circle><circle cx="170.1" cy="497.6" r="20"></circle><path d="M0 0v605.3h95.2c-9.1-17.6-64.9-125.4-65.6-127.7-.8-2.5 80.9-86 80.9-86-7.1-10-11.2-22.2-11.2-35.4 0-33.9 27.5-61.3 61.3-61.3 33.9 0 61.3 27.5 61.3 61.3 0 33.9-27.5 61.3-61.3 61.3-10.3 0-19.9-2.5-28.4-7L66.9 485l69.8 120.3h13.6l3-49.9c-25.7-7.3-44.5-30.9-44.5-59 0-33.9 27.5-61.3 61.3-61.3 33.9 0 61.3 27.5 61.3 61.3 0 27.9-18.6 51.4-44.1 58.9l1 50.1h45.1L258.3 338l25.5-16.4-5.2 99.9 30.7-26c-6.5-9.7-10.2-21.4-10.2-33.9 0-33.9 27.5-61.3 61.3-61.3s61.3 27.5 61.3 61.3-27.5 61.3-61.3 61.3c-11.7 0-22.6-3.3-31.9-9l-52.1 49.5-7.3 141.9H329l6-49.6c-23.2-8.8-39.6-31.1-39.6-57.4 0-33.9 27.5-61.3 61.3-61.3s61.3 27.5 61.3 61.3c0 27.8-18.5 51.3-43.9 58.8l-1 48.2h122.4l-81.8-152.8 48.2-52.8c-8.4-10.5-13.4-23.8-13.4-38.2 0-33.9 27.5-61.3 61.3-61.3 33.9 0 61.3 27.5 61.3 61.3s-27.5 61.3-61.3 61.3c-9.2 0-18-2.1-25.9-5.7l-35.5 43.5 87.8 144.6H605V0H0z"></path></svg>