<svg data-name="Layer 1" xmlns="http://www.w3.org/2000/svg" viewBox="0 0 614.94 565.56"><path d="M245.45 83.67 34.4 0l24.82 56.64L0 43.71l23.74 38.77c6.95 11.38 10.66 24.46 10.66 37.79v258.08c0 42.43 25.9 80.53 65.34 96.18l211.06 90.98V179.85c0-42.43-25.9-80.53-65.34-96.18ZM119.3 116.11c-20.85 3.96-38.82-14.01-34.86-34.86 2.21-11.64 11.59-21.06 23.27-23.27 20.85-3.96 38.82 14.01 34.86 34.86-2.21 11.64-11.59 21.06-23.27 23.27ZM338.6 510.16l276.34-116.88v-27.81L338.6 482.35v27.81zM338.6 454.6l276.34-116.88v-27.8L338.6 426.8v27.8zM338.6 537.86v27.7l276.34-116.88v-27.65L338.6 537.86zM614.94 282.21V0L403.88 83.67c-39.44 15.65-65.34 53.76-65.34 96.18v219.19l276.34-116.88.05.05Z"></path></svg>