<svg data-name="Layer 1" xmlns="http://www.w3.org/2000/svg" viewBox="0 0 548.46 617.98"><path d="m441.2 219.86-6.3-10.92-154.33 89.11V119.84h-12.61v178.21l-154.32-89.08-6.31 10.92 154.32 89.08-154.32 89.1 6.31 10.92 154.32-89.1v178.2h12.61v-178.2l252.14 145.54 6.31-10.92-252.14-145.54 154.32-89.11zM49.73 229.1c27.47 0 49.74-22.27 49.74-49.74s-22.27-49.74-49.74-49.74S0 151.89 0 179.36s22.27 49.74 49.73 49.74ZM49.73 388.88C22.26 388.88 0 411.15 0 438.61s22.27 49.74 49.73 49.74 49.74-22.27 49.74-49.74-22.27-49.73-49.74-49.73Z"></path><path d="M199.4 229.1c27.47 0 49.73-22.27 49.73-49.74s-22.27-49.74-49.73-49.74-49.74 22.27-49.74 49.74 22.27 49.74 49.74 49.74ZM249.21 438.61c0-27.47-22.27-49.73-49.73-49.73s-49.74 22.27-49.74 49.73 22.27 49.74 49.74 49.74 49.73-22.27 49.73-49.74ZM124.57 358.72c27.47 0 49.74-22.27 49.74-49.73s-22.27-49.74-49.74-49.74-49.74 22.27-49.74 49.74 22.27 49.73 49.74 49.73Z"></path><circle cx="349.06" cy="179.36" r="49.74"></circle><circle cx="274.23" cy="49.74" r="49.74"></circle><circle cx="498.73" cy="179.36" r="49.74"></circle><path d="M423.89 259.25c-27.47 0-49.73 22.27-49.73 49.74s22.27 49.73 49.73 49.73 49.74-22.27 49.74-49.73-22.27-49.74-49.74-49.74ZM349.22 388.88c-27.47 0-49.74 22.27-49.74 49.73s22.27 49.74 49.74 49.74 49.74-22.27 49.74-49.74-22.27-49.73-49.74-49.73ZM274.27 518.5c-27.47 0-49.74 22.27-49.74 49.74s22.27 49.74 49.74 49.74S324 595.71 324 568.24s-22.27-49.74-49.73-49.74Z"></path></svg>