<svg xmlns="http://www.w3.org/2000/svg" width="616.4" viewBox="0 0 616.4 569.8" height="569.8" xml:space="preserve"><path d="M335.1 251.9c5-8.2 10.2-16.2 15.5-24.2l3.6-5.3c.8-.9 1.4-2 1.9-3.1.6-1.4.8-2.8.8-4.2V214.8c-.1-3.9-2.1-7.3-5.2-9.4-1.8-1.2-3.9-2-6.4-1.9-.5 0-.9 0-1.4.1l-6.9.4c-9.6.6-19.1 1-28.7 1.2-9.6-.2-19.1-.6-28.7-1.2l-6.9-.4c-.5-.1-.9-.1-1.4-.1h-.1c-2.6 0-4.8.8-6.7 2.1-2.9 2-4.7 5.3-4.9 9.1v.4c0 1.1.2 2.2.5 3.3v.1c.1.2.1.3.2.5.5 1.3 1.1 2.4 2 3.4l3.5 5.2c5.3 8 10.5 16 15.5 24.2 4.6 8.4 9.1 16.8 13.4 25.4l3.8 7.5c1.1 2 2.7 3.4 4.5 4.3.1 0 .1.1.2.1.1.1.3.1.4.2 1.4.7 2.9 1 4.6 1 1.6 0 3.1-.3 4.4-1 2.1-.9 4-2.4 5.3-4.7l3.8-7.5c4.2-8.4 8.7-16.8 13.4-25.2z"></path><path d="M471.3 94.8c-12.1-7.1-26.2-10.2-40.1-10.4-12.1-.2-23.4 3.3-34.8 6.9a415.8 415.8 0 0 1-38 9.9c-11 2.3-22.2 3.7-33.5 4.8-5.6.5-11.2.7-16.8.7-5.6 0-11.2-.1-16.8-.7-11.2-1.1-22.4-2.5-33.5-4.8-12.8-2.7-25.6-6-38-9.9-11.4-3.6-22.7-7.1-34.8-6.9-49.7.8-88.3 45.3-79.7 95 1.6 9.4 4.9 18.6 9.6 27 5.9 10.5 14.6 18.5 23.5 26.5 9.7 8.8 19 18.1 27.8 27.9 7.5 8.3 14.4 17.3 21 26.5 3.3 4.5 6.2 9.3 9 14.1 2.8 4.9 5.5 9.8 7.9 14.8 4.7 10.2 9.1 20.7 12.7 31.3 4.1 12.4 7.7 25.1 10.6 37.9 2.7 11.6 5.3 23.1 11.6 33.5 17.3 28.6 50.6 45 83.9 38.7 22.8-4.3 42.3-19 54.2-38.7 6.2-10.3 8.9-21.8 11.6-33.5 2.9-12.8 6.5-25.4 10.6-37.9 3.6-10.7 8-21.1 12.7-31.3 2.3-5.1 5.1-10 7.9-14.8 2.8-4.8 5.8-9.6 9-14.1 6.6-9.1 13.5-18.1 21-26.5 8.8-9.7 18.1-19 27.8-27.9 8.8-8 17.5-16 23.5-26.5 22.1-39 9-88.7-29.9-111.6zm1.6 119.4c-5.1 9.8-12.7 17.5-20.2 25.5-9.3 9.8-18.1 20.2-26.5 30.8-6 7.5-11.5 15.4-16.3 23.7-.2.4-.4.7-.6 1.1-.2.4-.4.7-.6 1.1-4.8 8.3-9 17-12.6 25.8-5.1 12.5-9.8 25.3-13.8 38.2-3.2 10.4-6.2 20.9-12.3 30.1-8.2 12.5-19.2 21.9-33.1 27.4-5.8 2.3-11.7 3.9-17.7 4.8-13.1 1.6-23.9-.3-27.5-1-4.1-.9-8.2-2.2-12.2-3.8-13.8-5.5-24.9-14.9-33.1-27.4-6.1-9.2-9-19.7-12.3-30.1-4-12.9-8.7-25.7-13.8-38.2-3.6-8.9-7.8-17.6-12.6-25.8-.2-.4-.4-.7-.6-1.1-.2-.4-.4-.7-.6-1.1-4.8-8.3-10.3-16.2-16.3-23.7-8.4-10.6-17.2-20.9-26.5-30.8-7.5-7.9-15.1-15.7-20.2-25.5-6.9-13.3-9.6-27.5-7.6-42.3 2.7-20.4 13.7-39.4 29.9-52.1 11.8-9.2 25.4-14 40.3-14.8 11-.6 21.5 2.1 32.2 4.6 13.2 3.1 26.6 5.4 39.9 7.4 9.5 1.4 19.1 2.1 28.7 2.1h2.4c9.6 0 19.2-.7 28.7-2.1 13.4-1.9 26.8-4.3 39.9-7.4 10.6-2.5 21.1-5.2 32.2-4.6 15 .8 28.6 5.6 40.3 14.8 28.1 21.8 39 62.4 22.5 94.4z"></path><path d="M441.8 139.3c-11.7-10.9-26.3-15.3-43.9-12.5-12.1 1.9-24 5.1-36 7.3-8.5 1.6-17 3-25.6 3.7-9.4.8-18.7 1.4-28.1 1.6-9.4-.3-18.8-.8-28.1-1.6-8.6-.7-17.1-2.1-25.6-3.7-12-2.2-23.9-5.4-36-7.3-16.7-2.6-30.7 1.2-42.1 10.9-.7.4-1.4 1-2.1 1.6-14.2 13.2-16.8 27.7-16.8 27.7l.2.2c-4.5 16.5-1.1 32.1 10.7 46.6 7.7 9.5 16.5 18.1 24.5 27.4 5.6 6.5 11.2 13.2 16.1 20.2 5.4 7.7 10.6 15.5 15.6 23.5 4.5 8.2 8.7 16.6 12.8 25.1 3.7 7.8 6.8 15.9 9.7 24 4.1 11.5 7.4 23.4 11.8 34.8 6.6 17 18.2 27.5 34 31.9h.1c16.5 5.2 30.5 0 30.5 0 15.9-4.4 27.4-14.9 34-31.9 4.4-11.4 7.7-23.3 11.8-34.8 2.9-8.1 6-16.2 9.7-24a455 455 0 0 1 12.8-25.1c5-8 10.2-15.8 15.6-23.5 4.9-7 10.5-13.7 16.1-20.2 8-9.3 16.7-17.9 24.5-27.4 11.9-14.6 15.2-30.3 10.7-46.9-.1.1-2.6-14.4-16.9-27.6zm-17.3 82.5c-4.1 7.1-10.4 12.9-15.5 19.5-6 7.8-12.3 15.5-17.6 23.7-3.1 4.8-6.1 9.6-9.1 14.4-2.8 5-5.4 10-8.1 15-4.6 8.7-8.2 17.9-12 27-3.2 7.7-5.2 16-9.4 23.1-6.5 11.1-15.4 18.7-26.3 22.5-15.6 4.6-28.2 2.4-33.8.9-12.2-3.4-22.1-11.3-29.1-23.3-4.2-7.1-6.2-15.4-9.4-23.1-3.8-9.1-7.4-18.3-12-27-2.6-5-5.3-10.1-8.1-15-3-4.8-6-9.6-9.1-14.4-5.3-8.3-11.6-15.9-17.6-23.7-5.1-6.6-11.4-12.4-15.5-19.5-19.3-33.4 1.8-78.5 45.2-78.7 8.2 0 16.4 2.4 24.7 3.5 9.8 1.3 19.6 2.8 29.4 3.2 5.7.3 11.4.5 17 .6 5.7-.1 11.4-.4 17-.6 9.8-.4 19.6-2 29.4-3.2 8.2-1.1 16.4-3.5 24.7-3.5 39.4 0 64.8 44.6 45.2 78.6z"></path><path d="M411.1 194c-.1-1.8-.4-3.5-.9-5.4-1.3-5.3-4.4-12.9-11.8-18.6-1.8-1.4-3.7-2.6-5.7-3.5-.1 0-.1-.1-.2-.1-.9-.4-1.7-.8-2.5-1-5.2-1.8-11-2.2-17.1-1.5-19.6 2.1-39.2 5.2-58.9 6.4-1.9.1-3.9.2-5.8.3-1.9-.1-3.9-.2-5.8-.3-19.7-1.2-39.3-4.2-58.9-6.4-6.1-.7-11.8-.3-17.1 1.5-.8.2-1.7.6-2.6 1-.1 0-.2.1-.2.1-1.5.7-3 1.6-4.5 2.6h-.1c-.4.3-.7.5-1.1.8-7.6 5.9-10.7 13.8-11.9 19.1-.3 1.1-.5 2.1-.6 3.2-.2 1.7-.2 2.7-.2 2.7-.2 7.8 2.8 15 7.8 21.8 11.7 15.9 24.3 31.3 35.2 47.7 1.1 1.6 2.1 3.2 3.1 4.9l2.7 5.1c8.9 17.6 16.1 36 24.2 54.1 4 8.8 9.7 15.8 18.4 19 .2.1.4.2.7.3.1 0 .2.1.3.1 1.6.5 3.3 1 5.1 1.2l2.4.3c7.6.8 12.2-1.1 12.2-1.1 10-2.8 16.4-10.1 20.7-19.7 8.1-18 15.3-36.5 24.2-54.1l2.7-5.1c1-1.6 2.1-3.3 3.1-4.9 10.9-16.4 23.5-31.8 35.2-47.7 5-6.8 8.1-14 7.8-21.8s.1-.4.1-1zm-38.2 39.4c-6.3 9.8-12.6 19.7-18.7 29.7-5.7 10.2-11.2 20.5-16.7 30.9-4.3 8.2-10.4 14.1-18.8 16.9-10 3-18.6.8-20.9.1-8.5-2.7-14.7-8.6-19.1-17-5.4-10.3-11-20.6-16.7-30.9-6.1-10-12.3-19.9-18.7-29.7-5-7.7-7.1-15.8-5.5-24.2 1.9-8.6 6.2-14.5 9-17.6v-.1l.4-.4c6.9-7 15.6-9.8 25.8-9.4 11.7.5 23.4.9 35.1 1.2 11.7-.3 23.4-.6 35.1-1.2 10.1-.4 18.8 2.3 25.7 9.2 2.8 2.9 7.7 9.1 9.6 18.6 1.4 8.4-.7 16.3-5.6 23.9z"></path><path d="m533.2 75.6-1.2-1.2c-6.3-6.3-13.4-11.7-21.2-16.4-14.5-8.7-30.3-13.2-46.9-14.8-12.2-1.1-24.3.3-36 4.1-17.7 5.8-35.4 11.9-53 17.9-13.2 4.5-26.8 6.5-40.6 8.2-8.7 1-17.4 1.5-26.1 1.6-8.7-.1-17.4-.5-26.1-1.6-13.7-1.6-27.4-3.7-40.6-8.2-17.7-6-35.3-12.1-53-17.9-11.7-3.8-23.8-5.2-36-4.1-16.6 1.5-32.4 6.1-46.9 14.8-6.8 4.1-13 8.7-18.7 14-1.3 1-2.6 2.2-3.9 3.6-10.2 10.8-16.8 21.6-20.8 30.1-4.3 9-7 18.8-8.5 28.6-.9 5.5-1.4 11.1-1.4 16.8-.2 16.9 3.8 32.8 10.9 48 5.2 11.1 12.5 20.9 21.6 29 13.9 12.4 28.1 24.6 42.2 36.8 10.5 9.1 19.2 19.9 27.5 30.9 5.3 7 10.1 14.2 14.5 21.7 4.3 7.5 8.3 15.3 11.8 23.3 5.5 12.7 10.6 25.5 13.4 39.2 3.7 18.3 7.3 36.6 11.3 54.8 2.6 12 7.5 23.2 14.6 33.1 9.7 13.6 21.6 24.9 36.4 33.1 30.7 16.9 67.8 17.9 99.2 2.4 1.5-.7 3-1.5 4.5-2.3 14.8-8.1 26.7-19.5 36.4-33.1 7.1-10 12-21.1 14.6-33.1 3.9-18.2 7.6-36.5 11.3-54.8 2.8-13.6 7.9-26.5 13.4-39.2 3.5-8 7.4-15.8 11.8-23.3s9.2-14.7 14.5-21.7c8.3-11 17-21.8 27.5-30.9 14.1-12.2 28.3-24.4 42.2-36.8 9.2-8.2 16.5-17.9 21.6-29 7.1-15.1 11.1-31.1 10.9-48-.1-9.8-1.5-19.4-4.1-28.6 0 0-2.9-13.8-14.2-30.8-.4-.6-.8-1.3-1.2-1.9-3.5-5.1-7.3-9.8-11.5-14.1-.2-.1-.2-.1-.2-.2zm-8 129.4c-5.2 13.2-13.5 24.3-24.1 33.9-11.9 10.7-23.8 21.4-34.6 33.1-11.1 12.1-20.5 25.7-29 39.8-8.1 14.4-15.4 29.2-20.4 44.8-4.9 15.2-8.4 30.8-11.8 46.4-3.1 13.9-8.7 26.6-17.6 37.6-9.7 12-21.6 22.5-35.4 29.7-28.7 14.8-67.2 13.3-94.6-3.6-11.1-6.9-20.8-15.9-29-26.1-8.9-11-14.5-23.7-17.6-37.6-3.5-15.6-6.9-31.2-11.8-46.4-5-15.6-12.3-30.4-20.4-44.8-8.5-14.2-17.8-27.7-29-39.8-10.8-11.7-22.7-22.4-34.6-33.1-10.6-9.6-18.9-20.7-24.1-33.9-16.5-41.8-5.5-88 28.3-117.5 14.6-12.7 33.3-20 52.3-22.9 14-2.2 27.8-.6 41.4 3.7 15.2 4.9 30.5 9.8 46 13.2 16 3.5 32.5 4.7 49 4.9 16.5-.2 32.9-1.4 49-4.9 15.6-3.4 30.8-8.3 46-13.2 13.6-4.3 27.4-6.2 41.4-3.7 49.4 8.9 77.6 38.7 86.4 80.1 3.9 18.2 2.5 39.2-5.8 60.3z"></path><path d="M610.8 100C605.3 81.1 596 63.2 583 48.7c-1.5-1.8-3-3.5-4.5-5.2-9.7-10.8-21.5-19.2-34.2-26.2-15.1-8.4-31.2-13.9-48.4-16-14.2-1.8-28.3-1.5-42.6.6-14.1 2.2-26.7 8.1-39.5 13.6-19.5 8.4-38.9 16.9-59.8 21.6-15.2 3.4-30.5 5.2-45.9 5.4-15.3-.2-30.6-2-45.9-5.4-20.8-4.7-40.3-13.2-59.8-21.6C189.8 9.9 177.2 4 163.1 1.8c-14.3-2.2-28.4-2.4-42.6-.6-17.2 2.1-33.3 7.7-48.4 16-12.7 7-24.5 15.5-34.2 26.2-1 1.1-2 2.2-2.9 3.3l-1.9 1.9c-4.2 4.7-7.8 9.7-11 14.8C7 87.5-.6 114.3 0 142.7c.4 17.3 3.7 34 10.6 49.9 5.6 13.2 12.9 25.2 22 36.5 9 11.1 20.4 19 31.7 27.3 17.1 12.6 34.2 25.1 48.8 40.7 10.7 11.4 19.9 23.7 27.8 36.9 7.6 13.3 13.7 27.4 18.4 42.3 6.4 20.4 8.9 41.4 11.5 62.5 1.7 13.9 2.9 27.7 8.2 41 5.3 13.4 12.2 25.7 20.9 37.1 10.5 13.7 23.4 24.9 38.2 33.7 12.5 7.4 25.7 13.3 39.9 16.3 34.3 7.1 70.3 1.7 100.4-16.3 14.8-8.8 27.7-20 38.2-33.7 8.7-11.4 15.6-23.7 20.9-37.1 5.3-13.3 6.5-27.1 8.2-41 2.5-21.1 5.1-42.1 11.5-62.5 4.7-14.9 10.9-29 18.4-42.3 7.9-13.1 17.1-25.4 27.8-36.9 14.6-15.6 31.7-28.2 48.8-40.7 11.2-8.3 22.7-16.2 31.7-27.3 9.1-11.2 16.4-23.3 22-36.5 6.8-15.9 10.2-32.6 10.6-49.9.2-14.1-1.7-28.7-5.7-42.7zm-47.9 122.7c-9.4 14.6-21.9 25.8-35.8 35.7-18 12.8-33.7 28.1-47.3 45.3-5.9 7.5-11.2 15.3-16 23.3-4.6 8.2-8.8 16.6-12.4 25.4-8.4 20.3-14 41.5-16.2 63.4-1.7 17-5.4 33.4-13.5 48.7-14.9 28.3-38.9 51.2-69.4 61.8-34.2 11.9-73.6 9.9-105.5-7.7-23-12.6-39.8-31.1-52-54.2-8.1-15.3-11.7-31.8-13.5-48.7-2.2-22-7.8-43.2-16.2-63.4-3.6-8.8-7.8-17.2-12.4-25.4-4.8-8.1-10.2-15.9-16-23.3-13.5-17.3-29.2-32.5-47.3-45.3-13.9-9.8-26.4-21.1-35.8-35.7-14.1-22-21.9-45.7-21.6-71.9.4-32.9 10.4-57.2 31.7-83C72.5 57 83 48.1 95.2 40.7c22.5-13.5 46.9-18.7 73-17.6 17.3.7 33.3 5.9 48.8 12.9 20.1 9.1 41.2 15 63 18 9.4 1.3 18.8 2 28.2 2.1 9.4-.1 18.8-.8 28.2-2.1 21.7-3 42.8-8.8 63-18 15.5-7.1 31.5-12.2 48.9-12.9 26.1-1.1 50.5 4.1 73 17.6 37.6 22.6 62.7 66.1 63.2 110 .2 26.3-7.5 50-21.6 72z"></path></svg>