<svg data-name="Layer 1" xmlns="http://www.w3.org/2000/svg" viewBox="0 0 607.57 556.29"><circle cx="154.79" cy="56.14" r="56.14"></circle><path d="M602.87 504.17 333.88 38.26c-13.37-23.16-46.81-23.16-60.18 0l-73.39 127.12c10.2-10.45 24.41-16.96 40.17-16.96 31.01 0 56.14 25.14 56.14 56.14s-25.13 56.14-56.14 56.14-56.14-25.14-56.14-56.14c0-5.29.78-10.39 2.15-15.24L4.71 504.17c-13.37 23.16 3.34 52.12 30.09 52.12h537.98c26.75 0 43.46-28.96 30.09-52.12Zm-200.42 37.08c-31.01 0-56.14-25.14-56.14-56.14 0-4.26.52-8.39 1.41-12.37-22.89-7.08-39.52-28.42-39.52-53.64 0-14.57 5.6-27.81 14.71-37.79-3.88.85-7.9 1.32-12.03 1.32-31.01 0-56.14-25.14-56.14-56.14s25.14-56.14 56.14-56.14 56.14 25.14 56.14 56.14c0 14.57-5.6 27.81-14.71 37.79 3.88-.85 7.9-1.32 12.03-1.32 31.01 0 56.14 25.14 56.14 56.14 0 4.26-.52 8.39-1.41 12.37 22.89 7.08 39.52 28.42 39.52 53.64 0 31.01-25.14 56.14-56.14 56.14Z"></path></svg>