<svg data-name="Layer 1" xmlns="http://www.w3.org/2000/svg" viewBox="0 0 622.1 622.1"><path d="M349.12 311.05c0-85.06 68.95-154.01 154.01-154.01 25.64 0 49.8 6.3 71.07 17.39C524.77 79.45 425.52 14.54 311.05 14.54S94.08 81.57 45.52 179.09c23.19-13.99 50.37-22.05 79.43-22.05 85.06 0 154.01 68.95 154.01 154.01s-68.95 154.01-154.01 154.01c-29.06 0-56.23-8.06-79.43-22.05 48.56 97.52 149.19 164.55 265.53 164.55s213.72-64.91 263.14-159.89c-21.27 11.08-45.42 17.39-71.07 17.39-85.06 0-154.01-68.95-154.01-154.01Z"></path><path d="M311.05 0C139.53 0 0 139.54 0 311.05S139.53 622.1 311.05 622.1 622.1 482.56 622.1 311.05 482.56 0 311.05 0Zm0 619C141.25 619 3.11 480.85 3.11 311.05S141.25 3.11 311.05 3.11s307.94 138.14 307.94 307.94S480.85 619 311.05 619Z"></path></svg>