<svg data-name="Layer 1" xmlns="http://www.w3.org/2000/svg" viewBox="0 0 617.7 617.67"><path d="M308.85 0C138.28 0 0 138.28 0 308.82s138.28 308.85 308.85 308.85c4.06 0 8.4-.07 12.42-.28V417c0-1.21 1.31-1.96 2.34-1.32l90.68 53.86c.82.5 1.46.11 1.42-.85l-1.21-25.79c-.04-.96.78-1.71 1.74-1.6l58.87 7.19c.89.11 1.25-.43.78-1.21l-25.76-43.9c-.53-.89-.07-2.06.96-2.35l31.2-8.79c1.14-.32 1.24-1.07.21-1.67l-50.76-29.95c-8.57-5.05-8.5-17.54.18-22.48l81-46.28c1.03-.57 1.03-1.49-.04-2.03l-24.44-12.38c-.85-.46-1.14-1.6-.53-2.38l36.75-49.13c.57-.78.25-1.35-.68-1.32l-54.5 1.6c-.71.04-1.1-.5-.92-1.17l9.18-33.47c.28-1-.21-1.39-1.1-.89l-98.43 57.34c-8.47 4.94-19.1-1.21-19.03-11.03l.85-112.91c0-.89-.57-1.17-1.28-.6l-22.63 18.5c-.6.53-1.57.28-1.85-.5L309.7 78.87c-.31-.78-1.41-.78-1.72 0l-24.57 62.62c-.28.78-1.25 1.03-1.89.5l-22.59-18.5c-.71-.57-1.28-.28-1.28.6L258.5 237c.07 9.82-10.57 15.97-19.03 11.03l-98.43-57.34c-.89-.5-1.39-.11-1.14.89l9.21 33.47c.18.68-.21 1.21-.92 1.17l-54.5-1.6c-.96-.04-1.25.53-.68 1.32l36.75 49.13c.6.78.32 1.92-.57 2.38l-24.4 12.38c-1.07.53-1.07 1.46-.07 2.03l81.04 46.28c8.68 4.94 8.75 17.43.14 22.48l-50.73 29.95c-1.03.6-.92 1.35.21 1.67l31.2 8.79c1 .28 1.49 1.46.96 2.35l-25.78 43.88c-.46.79-.1 1.34.81 1.23l58.87-7.19c.96-.11 1.78.64 1.74 1.6l-1.21 25.79c-.04.96.6 1.35 1.42.85l90.68-53.86c1.03-.64 2.35.11 2.35 1.32l.32 125.68v23.34c-139.72-6.44-250.39-124.29-245.21-266.8C56.44 164.07 167.11 54.8 302.3 51.45c145.17-3.6 264.02 113.01 264.02 257.37 0 120.52-82.78 221.7-194.59 249.73v52.72c140.41-29.06 245.96-153.43 245.96-302.45C617.7 138.28 479.43 0 308.85 0Z"></path></svg>