<svg id="Layer_1" data-name="Layer 1" xmlns="http://www.w3.org/2000/svg" viewBox="0 0 618.83 609.66">   <polygon points="0 298.97 239.1 279.65 127.89 150.45 257.09 261.66 277.6 0 0 0 0 298.97"></polygon>   <path d="M431.41,150.45l-111.21,129.2,298.54,21.87C616.95,134.7,481.24,0,313.99,0h-32.28l20.51,261.66,129.2-111.21Z"></path>   <path d="M618.78,302.9l-298.57,21.88,111.21,129.2-129.2-111.21-20.51,266.89h32.28c168.35,0,304.83-136.48,304.83-304.83,0-.64-.04-1.27-.05-1.93Z"></path>   <polygon points="127.89 453.97 239.1 324.77 0 305.45 0 609.66 277.6 609.66 257.09 342.76 127.89 453.97"></polygon> </svg>