<svg xmlns="http://www.w3.org/2000/svg" width="590.9" viewBox="0 0 590.9 589.7" height="589.7" xml:space="preserve"><path d="M135.3 382.9h11V281.6c0-74.4 60.9-135.3 135.3-135.3h101.3v-11C382.9 60.9 322 0 247.6 0H135.3C60.9 0 0 60.9 0 135.3v112.3C0 322 60.9 382.9 135.3 382.9M530.5 134.6 396 .2c30.1 33 48.5 76.8 48.5 124.6v15.1l146.3 146.3v-15.1c.1-53.9-23.3-102.6-60.3-136.5"></path><path d="M444.5 258.1c0 101.9-83.4 185.3-185.3 185.3H126c-48.6 0-92.9-19-126-49.8l136.9 136.9c3 3.3 6.2 6.4 9.4 9.4l1.8 1.8.1-.1c32.9 29.8 76.5 48.1 124.2 48.1h133.3c101.9 0 185.2-83.4 185.2-185.3v-21.3L444.5 236.8v21.3z"></path></svg>