<svg xmlns="http://www.w3.org/2000/svg" width="624.99" viewBox="0 0 624.99 642" height="642" data-name="Layer 1"><path d="M51.68 355.83c-2.33-14.1-3.53-28.58-3.53-43.34 0-145.99 118.35-264.34 264.34-264.34S576.83 166.5 576.83 312.49c0 14.76-1.21 29.23-3.53 43.34H622c1.96-14.16 2.98-28.63 2.98-43.34C624.99 139.91 485.08 0 312.49 0S0 139.91 0 312.49c0 14.7 1.02 29.17 2.98 43.34h48.7Z"></path><path d="M115.41 355.83a202.223 202.223 0 0 1-4.67-43.34c0-111.42 90.33-201.75 201.75-201.75s201.75 90.33 201.75 201.75c0 14.88-1.61 29.38-4.67 43.34h49.07c2.46-14.08 3.74-28.56 3.74-43.34 0-138.02-111.88-249.9-249.9-249.9S62.59 174.48 62.59 312.49c0 14.78 1.28 29.26 3.74 43.34h49.07Z"></path><path d="M181.91 355.83c-4.52-13.62-6.97-28.19-6.97-43.34 0-75.97 61.58-137.55 137.55-137.55s137.55 61.58 137.55 137.55c0 15.14-2.45 29.71-6.97 43.34h51.68c3.29-13.91 5.04-28.42 5.04-43.34 0-103.44-83.86-187.3-187.3-187.3s-187.3 83.86-187.3 187.3c0 14.92 1.74 29.43 5.04 43.33h51.68Z"></path><path d="M435.56 312.46c0 60.09-42.95 110.1-99.83 120.89V642h-46.48V433.35c-56.88-10.79-99.83-60.8-99.83-120.89 0-67.99 55.08-123.07 123.07-123.07s123.07 55.08 123.07 123.07Z"></path></svg>