<svg xmlns="http://www.w3.org/2000/svg" width="621.7" viewBox="0 0 621.7 621.7" height="621.7" xml:space="preserve"><path d="M461.8 151 310.8 0 0 310.8l310.8 310.9 310.9-310.9-151.1-151-10 10.1 141 140.9-290.8 290.8L20.1 310.8 310.8 20.1l141 141z"></path><path d="M443 169.9 310.8 37.7 37.7 310.8 310.8 584 584 310.8 451.8 178.7l-23 23L538 310.8 310.8 538 83.7 310.8 310.8 83.7 420 192.9z"></path><path d="M411.2 201.7 310.8 101.3 101.3 310.8l209.5 209.6 209.6-209.6L420 210.5l-39.6 39.6 60.7 60.7-130.3 130.4-130.3-130.4 130.3-130.3 60.8 60.8z"></path><path d="m362.8 250.1-52-52-112.7 112.7 112.7 112.8 112.8-112.8-52-51.9-52 51.9 20.6 20.6-8.8 8.8-47-47 8.8-8.8 17.6 17.6z"></path></svg>