<svg id="Layer_1" data-name="Layer 1" xmlns="http://www.w3.org/2000/svg" viewBox="0 0 514.35 618.92">   <polygon points="241.05 64.2 148.06 64.2 148.06 251.77 241.05 184.51 241.05 64.2"></polygon>   <path d="M366.29,146v-.39l148.06-107.1V0l-148.06,107.1v-42.9h-92.99v110.13L0,372.05v38.51L273.3,213.26v13.15L0,424.14v38.51l273.3-197.3v13.15L0,476.22v38.51l273.3-197.3v13.15L0,528.3v38.51l273.3-197.3v13.15L0,580.39v38.51l273.3-197.3v108.09c0,8.87-7.26,16.13-16.13,16.13s-16.13-7.26-16.13-16.13v-71.61l-91.95,66.52c7.28,53.08,53.08,94.33,108.08,94.33,60.01,0,109.12-49.1,109.12-109.12v-155.86l148.06-107.1v-38.51l-148.06,107.1v-13.57l148.06-107.1v-38.51l-148.06,107.1v-13.57l148.06-107.1v-38.51l-148.06,107.1v-13.57l148.06-107.1V52.08l-148.06,107.1v-13.18Z"></path> </svg>