<svg data-name="Layer 1" xmlns="http://www.w3.org/2000/svg" viewBox="0 0 595.63 598.01"><path d="M297.82 0 155.51 82.17v11.47l142.31-82.17L585.7 177.7v332.41l-142.3 82.17 9.93 5.73 142.3-82.17V171.97L297.82 0zM9.93 345.8 0 351.54v164.3l142.3 82.17 9.93-5.73-142.3-82.17V345.8z"></path><path d="m55.7 319.38-13.24 7.64v164.31l142.3 82.17 13.24-7.65-142.3-82.16V319.38zM553.17 196.48 297.82 49.03 155.51 131.2v15.29l142.31-82.17 242.11 139.8v279.57l-142.3 82.16 13.24 7.65 142.3-82.17V196.48z"></path><path d="M512.37 220.03 297.82 96.14l-142.31 82.17v22.94l142.31-82.16L492.51 231.5v224.81l-142.3 82.16 19.86 11.47 142.3-82.16V220.03zM103.12 292l-19.86 11.47v164.31l142.3 82.16 19.86-11.47-142.3-82.16V292z"></path><path d="M155.51 268.37v-6.62l-36.42 21.03v164.31l142.3 82.16 36.43-21.03-142.31-82.16V268.37z"></path><path d="M476.54 240.72 297.82 137.53l-142.31 82.16v42.06l142.31-82.16 142.3 82.16v164.31l-142.3 82.16 36.42 21.03 142.3-82.16V240.72z"></path></svg>