<svg width="642" viewBox="0 0 642 299" height="299" xmlns="http://www.w3.org/2000/svg"><path d="m110.745 157.74 105.031 125.19c-19.086 9.636-42.192 15.6-66.511 15.6-13.354 0-26.258-1.733-38.52-5.008V157.74Zm343.47 0 105.031 125.19c-31.439 15.87-69.593 20.055-105.031 10.592V157.74Zm-350.275-4.816v138.608c-36.215-11.569-67.61-37.082-86.028-71.39l86.028-67.218Zm343.47 0v138.608c-36.286-11.594-67.648-37.146-86.028-71.39l86.028-67.218Zm-315.286 19.71 157.354 27.863c-12.044 33.274-36.164 61.677-67.603 79.158l-89.751-107.021Zm343.47 0 157.354 27.863c-11.678 32.273-35.362 61.234-67.603 79.158l-89.751-107.021ZM6.805 104.518s92.41 16.32 120.76 21.25l-112.863 88.21c-16.923-35.117-18.785-74.76-7.897-109.46Zm343.47 0 120.76 21.25-112.863 88.21c-16.923-35.104-18.792-74.747-7.897-109.46ZM283.828 84.55c16.923 35.105 18.792 74.748 7.897 109.461l-120.76-21.25 112.863-88.21Zm343.47 0c16.923 35.118 18.785 74.761 7.897 109.461 0 0-92.41-16.32-120.76-21.25l112.863-88.21Zm-478.033 54.281c5.759 0 10.433 4.674 10.433 10.433 0 5.759-4.674 10.433-10.433 10.433-5.759 0-10.432-4.674-10.432-10.433 0-5.759 4.673-10.433 10.432-10.433Zm343.47 0c5.759 0 10.433 4.674 10.433 10.433 0 5.759-4.674 10.433-10.433 10.433-5.759 0-10.433-4.674-10.433-10.433 0-5.759 4.674-10.433 10.433-10.433ZM194.59 6.998c36.286 11.594 67.648 37.146 86.028 71.39l-86.028 67.218V6.998Zm343.47 0c36.215 11.569 67.61 37.082 86.028 71.39l-86.028 67.218V6.998Zm-350.275-1.99V140.79L82.754 15.6C114.193-.27 152.347-4.455 187.785 5.008ZM492.735 0c13.354 0 26.258 1.733 38.52 5.008V140.79L426.224 15.6C445.31 5.964 468.416 0 492.735 0ZM76.655 18.875l89.751 107.021L9.052 98.033C20.73 65.76 44.414 36.8 76.655 18.875Zm343.47 0 89.751 107.021-157.354-27.863c12.044-33.274 36.164-61.677 67.603-79.158Z"></path></svg>