<svg data-name="Layer 1" xmlns="http://www.w3.org/2000/svg" viewBox="0 0 615.99 616.36"><path d="M188.96 342.72c-22.77-2.85-41.23-21.45-43.93-44.23-3.59-30.28 19.46-55.99 48.78-56.96l-54.97-54.97c-40.21-40.21-108.7-23.06-125.37 31.3C2.81 252.65-1.86 290.05.68 328.88c10.12 154.56 136.17 278.9 290.84 287.04 172.31 9.06 315.77-123.48 324.42-291.65H235.02c-10.58 13.06-27.48 20.78-46.06 18.46Z"></path><path d="M285.3 293.6h330.69c-1.03-22.1-4.46-43.56-9.9-64.2H303.32v-14.6h298.53c-6.77-21.33-15.75-41.67-26.76-60.7H303.32v-14.6h262.76a309.834 309.834 0 0 0-54.64-62.93H303.32v-14.6h190.09C441.84 23.1 377.73 0 308.18 0S178.55 21.64 127.85 58.32c-23.68 17.14-26.43 51.4-5.76 72.07L285.3 293.6Z"></path></svg>