<svg xmlns="http://www.w3.org/2000/svg" width="510.2" viewBox="0 0 510.2 619.5" height="619.5" xml:space="preserve" style="enable-background:new 0 0 510.2 619.5"><path d="M466.7 215.8c-13.8-19.5-29.9-26.6-42.1-29-1.2-29.1-24.7-52.6-53.8-53.9-2.1-28.4-22.8-51.7-49.9-57.6-.5-7.6-3.1-15.3-9-21.1L257 0l-59.8 61.5c-7.8 8.5-10 15.3-6.9 28.2h-20.5c-1.5 0-15.2.2-29 8.2-13.3 7.6-29.1 23.5-29.1 56.3v23.6c-24.1 5.1-43.5 17.7-55 28.3-19.9 18.3-29.8 38.2-36.9 54.9C6.6 291.9 0 325.9 0 362.1c0 68.8 26.5 133.5 74.6 182 48.2 48.7 112.6 75.5 181.3 75.5 68.6 0 132.8-26.8 180.6-75.5 47.6-48.4 73.8-113.1 73.8-182-.1-56.8-14.7-106-43.6-146.3zm-241.1-145 31.5-33 30.6 33.5c2.1 2.4 2.9 5.2 2.9 7.6 0 8-7.8 10.8-14.1 10.8h-48.1c-9.1-2.4-8.3-13.5-2.8-18.9zM169.8 118h109.8c13.6 0 25.4-6 32.9-15.3 17.1 2.5 30.3 17.2 30.3 35 0 18.9-15.5 33.8-35.4 33.8H139.9v-17.3c0-33.9 25-36.1 29.9-36.2zM28.3 362.1c0-32.4 5.9-62.7 17.5-90.1 9.7-23 19.5-38.3 31.8-49.5 10.8-9.9 28.7-21.5 54.2-22.7h175.7c27.1 0 49.7-15.7 59.1-38.5h1.9c15.5 0 28.1 12.6 28.1 28.1 0 7.8-3.1 15-8.8 20.4l-86.1 84.6c-32.9 32.4-63.4 69-63.4 117.7v125c0 13.6 3.9 38.8 24.5 54.2H256c-125.6-.1-227.7-102.9-227.7-229.2zM289 584.5c-25.7-12.4-22.5-46.1-22.5-47.5v-46c65.1-5.2 116.4-59.7 116.4-126.1 0-31-11.2-59.5-29.7-81.5l54.1-53.2c4.8-4.5 8.7-9.9 11.6-15.7 6.3 1.1 15.9 5.1 24.8 17.8l.1.1c25.3 35.3 38.2 79 38.2 129.8 0 104.6-66 189.9-158.5 219.1-16.9 5.2-25.3 7.6-34.5 3.2z"></path></svg>