<svg data-name="Layer 1" xmlns="http://www.w3.org/2000/svg" viewBox="0 0 623.36 623.36"><path d="M0 0h16.49v623.36H0zM35.34 0h16.49v623.36H35.34zM376 460.91H247.35v162.45h16.49V477.4h95.67v145.96h16.5L376 460.91z"></path><path d="M176.68 390.24v233.12h16.49V406.73h237.02v216.63h16.49V390.24h-270zM446.68 0h-16.49v213.56H193.17V0h-16.49v230.05h270V0z"></path><path d="M411.34 0h-16.49v178.22H228.51V0h-16.49v194.71h199.32V0z"></path><path d="M247.35 159.37H376L376.01 0h-16.5v142.88h-95.67V0h-16.49v159.37zM70.67 0h16.49v623.36H70.67zM106.01 623.36h16.49v-287.3h378.36v287.3h16.49v-303.8H106.01v303.8z"></path><path d="M141.34 623.36h16.49V371.39h307.69v251.97h16.49V354.9H141.34v268.46z"></path><path d="M212.02 623.36h16.49v-181.3h166.34v181.3h16.49V425.57H212.02v197.79zM482.01 0h-16.49v248.89H157.83V0h-16.49v265.38h340.67V0z"></path><path d="M500.86 284.23H122.5V0h-16.49v300.72h411.34V0h-16.49v284.23zM536.2 0h16.49v623.36H536.2zM571.53 0h16.49v623.36h-16.49zM606.87 0h16.49v623.36h-16.49z"></path></svg>