<svg data-name="Layer 1" xmlns="http://www.w3.org/2000/svg" viewBox="0 0 635.29 635.29"><path d="M317.65 0C142.5 0 0 142.5 0 317.65S142.5 635.3 317.65 635.3 635.3 492.8 635.3 317.65 492.8 0 317.65 0Zm280.68 242.36-81.39-.02c-1.45-67.83-56.22-122.74-124-124.42V36.97c99.83 26.81 178.58 105.56 205.39 205.39Zm-355.9 247.92c-52.93-1.63-95.6-44.43-97-97.42 32.39-1.06 62.69-14.14 85.72-37.16 23.3-23.3 36.45-54.03 37.24-86.85 67.79-1.42 122.69-56.14 124.46-123.85 52.94 1.63 95.6 44.43 97 97.43-32.39 1.06-62.69 14.13-85.72 37.16-23.3 23.3-36.45 54.03-37.24 86.85-67.79 1.42-122.68 56.14-124.46 123.85ZM365.93 31.1v110.53c0 55.27-44.97 100.23-100.24 100.23h-9.84l-14.44.47v23.38c0 26.78-10.43 51.95-29.37 70.88-18.93 18.93-44.1 29.36-70.88 29.36h-.02l-110.06-.03C28.44 350.21 27 334.1 27 317.65s1.45-32.58 4.09-48.3h100.24l13.51-.47v-23.34c0-55.27 44.97-100.24 100.24-100.24h24.28V31.1c15.71-2.64 31.83-4.09 48.28-4.09s32.57 1.45 48.28 4.09Zm-123.58 5.86v81.35c-67.84 1.44-122.79 56.24-124.47 124.02H36.97C63.78 142.51 142.52 63.77 242.35 36.97ZM36.96 392.93l81.39.02c1.45 67.83 56.22 122.74 124 124.42v80.95C142.52 571.51 63.77 492.76 36.96 392.93Zm232.4 211.26V493.67c0-55.27 44.97-100.24 100.24-100.24h9.84l14.44-.46v-23.38c0-26.78 10.43-51.95 29.37-70.89 18.93-18.93 44.09-29.35 70.86-29.35h.03l110.06.03c2.64 15.71 4.08 31.82 4.08 48.27s-1.45 32.58-4.09 48.3H503.95l-13.51.46v23.34c0 55.27-44.97 100.24-100.24 100.24h-24.28v114.2c-15.71 2.64-31.83 4.09-48.28 4.09s-32.57-1.45-48.28-4.09Zm123.58-5.86v-81.34c67.84-1.44 122.78-56.24 124.47-124.02h80.91c-26.81 99.82-105.55 178.56-205.38 205.36Z"></path></svg>