<svg xmlns="http://www.w3.org/2000/svg" width="500.3" viewBox="0 0 500.3 597.6" height="597.6" style="enable-background:new 0 0 500.3 597.6" xml:space="preserve"><path d="M500 105.6 285 299.4v-24.9L496.3 84c-3.5-12.8-9.2-25.1-17.3-36.4l-194 175v-24.9L467.1 33.5c-9.6-9.7-20.6-17.2-32.4-22.7L285 145.8v-24.9L415 3.7c-36.3-9.4-76.5-.9-106.1 26.1L285 51.6l-23.9-21.8C214.7-12.6 141.9-9.3 99.5 37.1 84 54.1 74.7 74.5 71.2 95.7H0v20.5h69.8c.5 30.4 13 60.6 37.1 82.6l168.4 150.9v247.9h20.5V349.7l167.4-150.9c26.9-24.6 39.3-59.3 36.8-93.2zm-342.1 13.3c-12.9 0-23.4-10.5-23.4-23.4 0-12.9 10.5-23.4 23.4-23.4 12.9 0 23.4 10.5 23.4 23.4 0 12.9-10.5 23.4-23.4 23.4z"></path></svg>