<svg data-name="Layer 1" xmlns="http://www.w3.org/2000/svg" viewBox="0 0 612.79 469.1"><path d="M307.99 181.31c-13.35 0-24.18 10.83-24.18 24.18s10.82 24.18 24.18 24.18 24.18-10.83 24.18-24.18-10.82-24.18-24.18-24.18ZM475.53 194.57c-75.81 0-137.26 61.45-137.26 137.26s61.45 137.26 137.26 137.26 137.26-61.46 137.26-137.26-61.45-137.26-137.26-137.26Z"></path><path d="M317.22 136.63c35.15 4.65 60.46 36.39 60.46 71.85v13.54c15.97-14.27 34.99-25.18 56.06-31.43 6.92-16.4 10.75-34.41 10.75-53.33C444.5 61.46 383.04 0 307.23 0S169.97 61.46 169.97 137.26c0 24.31 6.38 47.1 17.46 66.9-15.56-6.12-32.44-9.59-50.17-9.59C61.45 194.57 0 256.03 0 331.84S61.45 469.1 137.26 469.1c30.8 0 59.13-10.27 82.03-27.4-20.82-18.42-34.92-44.32-37.67-73.12-3.77-39.47 12.94-75.18 40.7-97.91 10.31-8.44 15.64-21.56 15.64-34.89v-17.51H190.5v-11.32h47.46v-1.1c0-41.51 36.69-74.87 79.25-69.23Z"></path></svg>