<svg xmlns="http://www.w3.org/2000/svg" width="575.9" viewBox="0 0 575.9 407" height="407"><path d="M167.3 106c25.1 6.1 44.7 10.8 67.8 10.8 12.6 0 26.2-1.4 42.4-4.7L576 44.9V0L268.2 69.3c-35.9 7.4-53.1 3.3-90.7-5.8l-7.5-1.8L0 13.1v45.5l158.5 45.2 8.8 2.2zM408.7 301c-38.7-9.4-64.3-15.6-110.2-6.1L0 362.2V407l307.7-69.3c35.9-7.4 53.1-3.3 90.7 5.8l7.5 1.8L576 393.8v-45.5l-158.5-45.2-8.8-2.1zM0 349l575.9-130.1V174L0 304.2zM0 291.1l575.9-130.2v-44.8L0 246.3zM575.9 58.1L0 188.3v44.8L575.9 103z"></path></svg>