<svg xmlns="http://www.w3.org/2000/svg" width="585.3" viewBox="0 0 585.3 621.1" height="621.1" xml:space="preserve"><path d="M446.8 211c-76.3 0-138.5 46.7-138.5 104.2v286.4c0 10.8 8.8 19.6 19.6 19.6s19.6-8.8 19.6-19.6v-214c25.2 19.5 60.3 31.7 99.3 31.7 76.3 0 138.5-46.7 138.5-104.2S523.2 211 446.8 211zm-99.2 104.1c0-35.2 45.5-65 99.3-65 42.4 0 79.6 18.5 93.4 43.6-8.4-5-18.2-7.9-28.8-7.9-31.3 0-56.7 25.4-56.7 56.7 0 13.7 4.8 26.2 12.9 36-6.8 1-13.7 1.5-20.9 1.5-53.8.1-99.2-29.6-99.2-64.9zM257.3 0c-10.8 0-19.6 8.8-19.6 19.6v223.1c-25.2-19.5-60.3-31.7-99.3-31.7C62.1 211 0 257.7 0 315.1s62.1 104.2 138.5 104.2S277 372.6 277 315.1c0-1.9-.2-3.7-.4-5.5.2-1.2.4-2.4.4-3.7V19.6C276.9 8.8 268.2 0 257.3 0zM39.2 315.1c0-35.2 45.5-65 99.3-65 42.4 0 79.6 18.5 93.4 43.6-8.4-5-18.2-7.9-28.7-7.9-31.3 0-56.7 25.4-56.7 56.7 0 13.7 4.8 26.2 12.9 36-6.8 1-13.7 1.5-20.9 1.5-53.8.1-99.3-29.6-99.3-64.9z"></path></svg>