<svg xmlns="http://www.w3.org/2000/svg" id="a" width="642" viewBox="0 0 642 420.51" height="420.51" data-name="Layer 1"><defs></defs><path d="M580.55 0H61.45c-18.48 0-35 8.19-46.27 21.09h611.63C615.55 8.19 599.02 0 580.54 0ZM235.93 47.76a71.84 71.84 0 0 1 6.24 4.05h157.66a71.84 71.84 0 0 1 6.24-4.05c20.11-11.6 50.77-10.1 75.43 4.05h159.67c-1.2-7.58-3.76-14.7-7.46-21.09H8.29A61.088 61.088 0 0 0 .83 51.81H160.5c24.67-14.15 55.33-15.65 75.43-4.05ZM510.97 80.76c.34.59.62 1.19.95 1.78H642V61.45H495.04c6.18 5.43 11.63 11.85 15.93 19.31ZM146.96 61.45H0v21.09h130.08c.33-.59.61-1.19.95-1.78 4.3-7.46 9.75-13.89 15.93-19.31ZM265.75 82.54h110.51c2.94-7.69 7.19-14.84 12.84-21.09H252.92c5.65 6.26 9.9 13.4 12.84 21.09ZM642 113.27V92.18H516.68c3.08 7.01 5.32 14.09 6.69 21.09H642ZM0 92.17v21.09h118.63c1.37-7.01 3.61-14.08 6.69-21.09H0ZM270.41 113.27h101.18c-.38-7.21.18-14.3 1.72-21.09H268.68c1.54 6.79 2.1 13.88 1.72 21.09ZM117.28 122.9H0v21.09h118.52c-1.43-6.73-1.83-13.82-1.24-21.09ZM263.02 143.99h16.29c13.06-4.14 27.07-6.41 41.69-6.41s28.63 2.28 41.69 6.41h16.29c-3.02-6.95-5.16-14.03-6.37-21.09H269.39c-1.2 7.06-3.34 14.15-6.37 21.09ZM523.48 143.99H642V122.9H524.72c.59 7.28.19 14.36-1.24 21.09ZM0 153.62v21.09h135.41c-6.36-6.08-11-13.24-14.04-21.09H0ZM642 174.72v-21.09H520.64c-3.04 7.86-7.68 15.01-14.04 21.09h135.41ZM148.62 184.35H0v21.09h205.25c2.89-5.78 6.22-11.34 10.08-16.56-22 7.84-46.83 6.54-66.71-4.53ZM426.67 188.88c3.85 5.22 7.19 10.78 10.08 16.56H642v-21.09H493.38c-19.88 11.07-44.71 12.37-66.71 4.53ZM0 215.07v21.09h195.27c1.18-7.28 3.16-14.32 5.76-21.09H0ZM642 236.16v-21.09H440.97c2.6 6.78 4.58 13.81 5.76 21.09H642ZM194.19 245.79H0v21.09h194.86c-.59-4.52-.98-9.09-.98-13.75 0-2.47.14-4.91.3-7.35ZM447.14 266.89H642V245.8H447.81c.17 2.43.3 4.88.3 7.35 0 4.66-.39 9.23-.98 13.75ZM642 297.61v-21.09H445.51c-1.65 7.31-4.08 14.36-7.17 21.09h203.67ZM0 276.52v21.09h203.67c-3.09-6.74-5.52-13.78-7.17-21.09H0ZM642 328.34v-21.09H433.3c-4.43 7.58-9.79 14.63-15.89 21.09H642ZM0 307.24v21.09h224.59c-6.1-6.46-11.46-13.51-15.89-21.09H0ZM642 359.06v-21.09H407.12a128.807 128.807 0 0 1-35.36 21.09H642ZM0 337.97v21.09h270.24c-13.11-5.2-25-12.4-35.36-21.09H0ZM320.8 368.69H.83c1.2 7.58 3.76 14.7 7.46 21.09h625.42c3.7-6.39 6.26-13.51 7.46-21.09H320.79ZM61.45 420.51h519.1c18.47 0 35-8.19 46.27-21.09H15.18c11.26 12.9 27.79 21.09 46.27 21.09Z" class="b"></path></svg>