<svg data-name="Layer 1" xmlns="http://www.w3.org/2000/svg" viewBox="0 0 618.1 616.26"><path d="M618.1 0h-72.84v541.22l-275.08.24c-33.79 0-61.21-27.18-61.21-60.97 0-16.53 6.61-31.46 17.26-42.48l209.71-210.32c12-12.36 21.55-27.05 28.03-43.34 6.24-15.55 9.79-32.44 9.79-50.19C473.77 61.58 416.11 2.57 344 .24L0 .12v616.14h72.72V72.84h267.85c33.3.61 60.11 27.67 60.11 61.09 0 16.89-6.86 32.32-18 43.46l-84.23 84.23-122.91 123.64C151.18 409.5 136 443.16 136 480.38c0 74.06 60.11 133.81 134.17 133.81l347.92-.12V0Z"></path></svg>