<svg xmlns="http://www.w3.org/2000/svg" width="595.3" viewBox="0 0 595.3 611.5" height="611.5" style="enable-background:new 0 0 595.3 611.5" xml:space="preserve"><path d="M537.9 0H57.5C25.7 0 0 25.7 0 57.5S25.7 115 57.5 115h190.2L123.8 330.6c-15.8 27.5-6.3 62.6 21.2 78.4 9 5.2 18.9 7.6 28.6 7.6 1.7 0 3.4-.1 5.1-.3-2.7 11.5-4.1 23.6-4.1 35.9 0 87.7 71.4 159.1 159.1 159.1s159.1-71.4 159.1-159.1-71.4-159.1-159.1-159.1c-22.6 0-44 4.7-63.5 13.2l69.3-120.7c12.9 37.1 48.1 63.7 89.6 63.7 52.4 0 94.9-42.5 94.9-94.9H357.3l22.8-39.7h157.7c31.7 0 57.5-25.7 57.5-57.5S569.6 0 537.9 0zM333.7 386.9c36.1 0 65.5 29.4 65.5 65.5s-29.4 65.5-65.5 65.5-65.5-29.4-65.5-65.5 29.4-65.5 65.5-65.5z"></path><path d="M192.9 154.6H10.4c0 50.4 40.9 91.3 91.3 91.3s91.2-40.9 91.2-91.3z"></path></svg>