<svg xmlns="http://www.w3.org/2000/svg" width="596.7" viewBox="0 0 596.7 435.1" height="435.1" xml:space="preserve"><path d="M594.5 211C550.9 84.8 431.9 0 298.4 0 164.8 0 45.8 84.8 2.2 211L0 217.6l2.2 6.5c43.5 126.2 162.5 211 296.1 211s252.6-84.8 296.1-211l2.2-6.5-2.1-6.6zM298.4 395c-114.2 0-216.1-71-255.9-177.5C82.2 111.1 184.2 40.1 298.4 40.1c114.2 0 216.1 71 255.9 177.5C514.5 324 412.5 395 298.4 395z"></path><path d="M401.2 221.9c0 56.7-46.1 102.9-102.9 102.9s-102.9-46.1-102.9-102.9v-104c-25 25.8-40.4 60.9-40.4 99.7 0 79.1 64.1 143.3 143.3 143.3s143.3-64.1 143.3-143.3c0-38.7-15.4-73.9-40.4-99.7v104z"></path><path d="M298.4 242c11.4 0 20.6-9.3 20.6-20.6V78.6c0-1-.2-1.9-.3-2.8-6.7-.9-13.4-1.5-20.4-1.5-6.9 0-13.7.5-20.4 1.5-.1.9-.3 1.9-.3 2.8v142.7c.1 11.4 9.4 20.7 20.8 20.7z"></path><path d="M298.4 303.5c45 0 81.6-36.6 81.6-81.6V99.8c-12-8.4-25.4-14.9-39.7-19.3v140.8c0 23.1-18.8 41.9-41.9 41.9-23.1 0-41.9-18.8-41.9-41.9V80.5c-14.3 4.4-27.7 10.9-39.7 19.3v122.1c0 45 36.6 81.6 81.6 81.6z"></path></svg>