<svg xmlns="http://www.w3.org/2000/svg" width="594.5" viewBox="0 0 594.5 440.7" height="440.7"><path d="M378.6 0h-11.1L165.1 220.3l202.4 220.4h11.1L176.3 220.3z"></path><path d="M360.3 0h-11.2L146.8 220.3l202.3 220.4h11.2L157.9 220.3z"></path><path d="M341.9 0h-11.1L128.4 220.3l202.4 220.4h11.1L139.6 220.3z"></path><path d="M323.6 0h-11.2L110.1 220.3l202.3 220.4h11.2L121.2 220.3z"></path><path d="M305.2 0h-11.1L91.7 220.3l202.4 220.4h11.1L102.9 220.3z"></path><path d="M286.9 0h-11.2L73.4 220.3l202.3 220.4h11.2L84.5 220.3z"></path><path d="M268.5 0h-11.1L55 220.3l202.4 220.4h11.1L66.2 220.3z"></path><path d="M250.2 0H239L36.7 220.3 239 440.7h11.2L47.8 220.3z"></path><path d="M231.8 0h-11.1L18.3 220.3l202.4 220.4h11.1L29.5 220.3z"></path><path d="M213.5 0h-11.1L0 220.3l202.4 220.4h11.1L11.1 220.3z"></path><path d="M594.5 142.8H451.2l62.6-68.2L582.3 0H385.8L183.5 220.3l202.3 220.4h196.5L513.8 366l-62.6-68.1h143.3z"></path></svg>