<svg xmlns="http://www.w3.org/2000/svg" width="615.2" viewBox="0 0 615.2 514.2" height="514.2" xml:space="preserve" style="enable-background:new 0 0 615.2 514.2"><path d="M0 0v88.6h164.2l97.3 99.2v326h31.4V103.5L189.7 0H0zm0 99.2v88.1l124.6-.1 81.5 78.7V514h31.7V189.2l-89.8-90H0zm0 98.5V277h80.2l70.5 66.2v171l31.7-.1V261.9l-67.6-64.2H0zm0 89v86.7h49.2l45.1 44.7V514h31.9l.1-173.6-59.7-53.8H0zM615.2 0v88.6H451l-97.3 99.2v326h-31.4V103.5L425.5 0h189.7zm0 99.2v88.1l-124.6-.1-81.5 78.7V514h-31.6V189.2l89.8-90h147.9zm0 98.5v79.1H535L464.5 343v171h-31.7V261.9l67.6-64.2h114.8zm0 89v86.7H566l-45.1 44.7V514H489l-.1-173.6 59.7-53.8h66.6z"></path></svg>