<svg data-name="Layer 1" xmlns="http://www.w3.org/2000/svg" viewBox="0 0 620.79 620.82"><path d="m383.72 612.66 21.18-6.23V421.75c0-5.61-.37-11.22 0-17.07h201.31c2.33-6.98 4.31-14.07 5.92-21.25h-228.6l.19 229.23ZM8.2 383.43l6.23 21.25h201.68l-.25 201.56c6.92 2.35 13.98 4.3 21.12 5.86.81-4.74.56-226.73 0-228.66H8.2ZM236.92 8.6l-20.81 5.86v201.62H14.68l-6.23 21.31h228.47c.87-4.49.62-226.67 0-228.79ZM612.57 237.45l-6.23-21.31H404.97V14.7c-6.84-2.54-13.92-4.42-21.12-5.61-.87 4.98-.56 226.42 0 228.35h228.73ZM320.6 320.38V0h-20.75l-.5 320.38c7.07.69 14.18.69 21.25 0Z"></path><path d="m21.34 425.37 9.53 21.31h143v141.31c-.14 1.18.6 2.29 1.74 2.62l18.26 7.91c.41.07.83.07 1.25 0 .75-4.11.56-171.22 0-173.15H21.34ZM425.59 598.52l2.68-1c4.92-1.93 10.22-4.24 14.77-6.23 4.55-1.99 3.8-.87 3.8-5.73V446.62h142.81c3.3-7.04 6.29-13.96 9.53-21.31H425.59v173.21ZM589.58 174.15H446.65V33.33c.25-1.62-.56-2.43-1.99-2.99l-17.45-7.6-1.81-.5v173.28h173.71l-9.53-21.37ZM195.61 22.49h-1.18l-18.69 8.04c-1.08.28-1.76 1.34-1.56 2.43v141.31H31.37c-3.68 6.79-6.75 13.9-9.16 21.25h173.4V22.49ZM362.84 4.42c-6.93-1.47-13.98-2.36-21.06-2.68v209.98l21.06 9.41V4.42ZM278.98 1.31 257.79 4.3v216.89l21.19-9.47V1.31zM258.11 399.76v216.83l21.06 2.99V408.86c-3.55-1.37-7.23-2.74-10.72-4.17-3.49-1.43-6.73-3.49-10.34-4.92ZM342.16 619.57l20.69-2.99V399.94l-21 9.1c-.37 4.3-.37 208.41.31 210.53ZM221.1 258.26l-216.83.25c-1.06 6.98-2.18 13.77-2.87 20.75h210.29l9.41-21ZM211.75 341.88H1.28l2.93 20.93H221.1l-9.35-20.93zM399.92 362.81h216.7l2.93-20.93H409.01l-9.09 20.93zM409.07 279.26h210.48l-2.93-20.69H399.98l9.09 20.69zM299.85 413.47h21.12v207.36h-21.12zM207.45 320.69v-20.62c-3.05-.56-205.24-.44-207.04-.31-.54 6.97-.54 13.97 0 20.93h207.04ZM415.49 300.13h-2.12v20.94h207.42v-21.31l-205.3.37ZM353.12 258.1h-1.62c-5.79 0-10.53 4.74-10.53 10.53s4.74 10.53 10.53 10.53h1.62c5.79 0 10.53-4.74 10.53-10.53s-4.74-10.53-10.53-10.53ZM267.83 279.16h1.62c5.79 0 10.53-4.74 10.53-10.53s-4.74-10.53-10.53-10.53h-1.62c-5.79 0-10.53 4.74-10.53 10.53s4.74 10.53 10.53 10.53ZM268.01 340.7v29.69c12.06 8.31 26.65 13.19 42.4 13.19s29.94-4.73 41.9-12.82v-29.4c-9.51 12.81-24.71 21.16-41.9 21.16s-32.93-8.63-42.4-21.82Z"></path></svg>