<svg data-name="Layer 1" xmlns="http://www.w3.org/2000/svg" viewBox="0 0 590.8 559.88"><path d="M495.71 88.23C490.91 38.71 449.19 0 398.41 0c-34.21 0-64.31 17.59-81.78 44.2-6.91-.27-13.85-.45-20.84-.45-74.49 0-145.14 15.6-198.94 43.94C34.9 120.31.78 166.61.78 218.06s34.12 97.76 96.07 130.38c53.8 28.33 124.46 43.94 198.94 43.94s145.14-15.6 198.95-43.94c61.95-32.62 96.07-78.93 96.07-130.38s-33.78-97.24-95.09-129.84ZM295.79 312.26c-122.99 0-206.45-49.73-206.45-94.19s83.46-94.19 206.45-94.19c2.84 0 5.63.05 8.43.11 11.46 41.27 49.27 71.56 94.19 71.56 26.82 0 51.12-10.81 68.78-28.3 22.49 15.61 35.05 33.6 35.05 50.82 0 44.46-83.47 94.19-206.46 94.19Z"></path><circle cx="97.77" cy="462.11" r="97.77"></circle></svg>