<svg data-name="Layer 1" xmlns="http://www.w3.org/2000/svg" viewBox="0 0 611.71 594.12"><path d="M611.71 254.44c0-70.26-56.96-127.22-127.22-127.22s-127.22 56.96-127.22 127.22c0 34.07 13.42 64.98 35.23 87.82-37.56 7.66-69.08 31.88-86.64 64.69-21.43-40.03-63.64-67.27-112.22-67.27-70.26 0-127.22 56.96-127.22 127.22s56.96 127.22 127.22 127.22c48.58 0 90.79-27.24 112.22-67.27 21.43 40.03 63.64 67.27 112.22 67.27 70.26 0 127.22-56.96 127.22-127.22 0-34.07-13.42-64.98-35.22-87.82 58-11.84 101.65-63.14 101.65-124.64Z"></path><path d="M83.48 373.96c26.48-31.33 66.02-51.28 110.16-51.28 39 0 75.54 15.67 102.21 42.49v-51.75c-11.73-4.13-20.15-15.28-20.15-28.42 0-16.66 13.5-30.16 30.16-30.16s30.16 13.5 30.16 30.16c0 13.14-8.43 24.3-20.16 28.42v51.77c13.63-13.73 29.86-24.64 47.87-31.94-15.25-23.28-23.45-50.51-23.45-78.82 0-61.34 38.5-113.81 92.59-134.63v-.02h-.02C428.99 52.99 373.62 0 305.86 0S178.64 56.96 178.64 127.22c0 3.74.2 7.43.51 11.09a126.783 126.783 0 0 0-51.93-11.09C56.96 127.22 0 184.18 0 254.44c0 54.89 34.76 101.66 83.48 119.5v.03Z"></path></svg>