<svg data-name="Layer 1" xmlns="http://www.w3.org/2000/svg" viewBox="0 0 577.17 611.31"><path d="M0 611.31h83.01V329.7l-41.5-41.51L0 329.7v281.61zm535.66-364.62-41.5 41.5v323.12h83.01V288.19l-41.51-41.5z"></path><path d="m205.96 205.96-82.23-82.23-82.22 82.23v82.23l41.5-41.5 41.51 41.5-.79 323.12h41.11V371.2l41.51-41.5-.39-.2V205.96zM453.43 82.23l-82.23 82.23V82.23L288.98 0l-82.23 82.23v82.23l41.5-41.51 41.51 41.51h-.78v165.25-.01l-41.51 41.5v240.11h82.24v-323.1l41.5-41.51 41.51 41.51v323.1h39.94V246.68l41.5-41.5 41.5 41.51v-82.23l-82.23-82.23z"></path></svg>