<svg data-name="Layer 1" xmlns="http://www.w3.org/2000/svg" viewBox="0 0 610.44 610.44"><path d="M440.44 91.22c-19.52 0-36.51 10.71-45.49 26.56h-195.6c-45.01 0-81.64 36.62-81.64 81.64v259.67c0 14.21 11.52 25.73 25.73 25.73s25.73-11.52 25.73-25.73V199.42c0-16.64 13.54-30.18 30.17-30.18h195.6c8.98 15.85 25.97 26.56 45.49 26.56 28.88 0 52.29-23.41 52.29-52.29s-23.41-52.29-52.29-52.29Z"></path><path d="M259.56 299.47h135.39c8.98 15.85 25.97 26.56 45.49 26.56 28.88 0 52.29-23.41 52.29-52.29s-23.41-52.29-52.29-52.29c-19.52 0-36.51 10.71-45.49 26.56H259.56c-45.01 0-81.64 36.62-81.64 81.64v73.53c0 45.02 36.62 81.64 81.64 81.64h135.39c8.98 15.85 25.97 26.56 45.49 26.56 28.88 0 52.29-23.41 52.29-52.29s-23.41-52.29-52.29-52.29c-19.52 0-36.51 10.71-45.49 26.56H259.56c-16.64 0-30.17-13.54-30.17-30.18v-73.53c0-16.64 13.54-30.18 30.17-30.18Z"></path><path d="M305.22 0C136.92 0 0 136.92 0 305.22s136.92 305.22 305.22 305.22 305.22-136.92 305.22-305.22S473.52 0 305.22 0Zm0 596.15c-160.42 0-290.93-130.51-290.93-290.93S144.81 14.3 305.22 14.3s290.93 130.51 290.93 290.92-130.51 290.93-290.93 290.93Z"></path></svg>