<svg xmlns="http://www.w3.org/2000/svg" width="618.76" viewBox="0 0 618.76 642" height="642" data-name="Layer 1"><path d="M618.76 462.24C618.76 561.49 538.25 642 439 642H124.23c-59.06 0-106.96-47.89-106.96-106.96s47.89-106.89 106.96-106.89h124.23c47.32 0 87.44 30.75 101.5 73.32 12.9 36.72 47.89 63.11 89.05 63.11 56.5 0 102.33-45.84 102.33-102.33S495.5 359.53 439.01 359.53H179.76C80.51 359.52 0 279.01 0 179.76S80.51 0 179.76 0h314.77c59.06 0 106.96 47.89 106.96 106.96S553.6 213.85 494.53 213.85H370.3c-47.32 0-87.44-30.75-101.5-73.32-12.9-36.72-47.89-63.11-89.05-63.11-56.5 0-102.27 45.84-102.27 102.33s45.77 102.72 102.27 102.72h259.24c99.25 0 179.76 80.51 179.76 179.76Z" style="fill-rule:evenodd;stroke-width:0"></path></svg>