<svg data-name="Layer 1" xmlns="http://www.w3.org/2000/svg" viewBox="0 0 614.94 402.42"><path d="m139.53 307.47 167.94-167.94 167.94 167.94-94.96 94.95h60.11l94.96-94.95L307.47 79.42 79.42 307.47l94.95 94.95h60.12l-94.96-94.95z"></path><path d="m225.38728886 307.47 82.08095516-82.08095516L389.54919918 307.47l-82.08095516 82.08095516z"></path><path d="m212.51 307.47 94.96-94.96 94.95 94.96-94.95 94.95h60.11l94.96-94.95L307.47 152.4 152.4 307.47l94.96 94.95h60.11l-94.96-94.95z"></path><path d="M66.55 307.47 307.47 66.55l240.92 240.92-94.95 94.95h66.55l94.95-94.95L307.47 0 0 307.47l94.95 94.95h66.55l-94.95-94.95z"></path></svg>