<svg xmlns="http://www.w3.org/2000/svg" width="642" viewBox="0 0 642 642" height="642" data-name="Layer 1"><path d="M642 321c0 177.28-143.72 321-321 321S0 498.28 0 321 143.72 0 321 0s321 143.72 321 321Zm-116.28-97.87c-8.87 0-17.22 2.11-24.68 5.77L426 131.58c-25.1-30.08-62.86-49.24-105.01-49.24-75.4 0-136.75 61.34-136.75 136.75 0 31.71 10.85 60.94 29.03 84.16l65 83.24c-8.38 9.81-13.47 22.52-13.47 36.44 0 31.02 25.15 56.17 56.17 56.17s56.17-25.15 56.17-56.17-25.15-56.17-56.17-56.17c-9 0-17.47 2.17-25.01 5.93l-65.04-83.23c-15.18-19.4-24.22-43.82-24.22-70.36 0-63.11 51.16-114.28 114.28-114.28 34.97 0 66.28 15.71 87.24 40.46l75.01 97.34c-8.52 9.85-13.71 22.66-13.71 36.7 0 31.02 25.15 56.18 56.18 56.18s56.17-25.15 56.17-56.18-25.15-56.18-56.17-56.18ZM116.28 418.87c8.87 0 17.22-2.11 24.68-5.77L216 510.42c25.1 30.08 62.86 49.24 105.01 49.24 75.4 0 136.75-61.34 136.75-136.75 0-31.71-10.85-60.94-29.03-84.16l-65-83.24c8.38-9.81 13.47-22.52 13.47-36.44 0-31.02-25.15-56.17-56.18-56.17-31.02 0-56.17 25.15-56.17 56.18 0 31.02 25.15 56.17 56.18 56.17 9 0 17.47-2.17 25.01-5.93l65.04 83.23c15.18 19.4 24.22 43.82 24.22 70.36 0 63.11-51.16 114.28-114.28 114.28-34.97 0-66.28-15.71-87.24-40.46l-75.01-97.34c8.52-9.85 13.71-22.66 13.71-36.7 0-31.02-25.15-56.17-56.18-56.17-31.02 0-56.17 25.15-56.17 56.18 0 31.02 25.15 56.17 56.18 56.17Z" stroke-width:0"=""></path></svg>