<svg xmlns="http://www.w3.org/2000/svg" width="592.83" viewBox="0 0 592.83 599.19" height="599.19" style="overflow:visible;enable-background:new 0 0 592.83 599.19" xml:space="preserve"><path d="M380.68 560.65C181.77 575.28 55.92 346.66 173.59 186.47c-.01 0-.01.01-.02.01-101.95 72.14-124.63 222.56-48.41 321.49C202.76 615 365.08 630.51 461.63 540.3c-25.32 11.49-52.65 18.4-80.95 20.35m-268.13-57.63c-62.62-89.96-50.57-219.3 26.48-296.46 49.5-51.24 123.72-78.21 194.01-69.97-113.48-52.26-255.13 3.36-302.67 118.89-53.82 120.7 13.91 268.99 140.28 307.47-22.62-16.18-42.27-36.4-58.1-59.93m479.98-185.94c-.49-13.48-2.14-26.94-5.02-40.11-14.08 164.9-201.55 265.23-346.36 184.68-1.7-.93-3.42-1.87-5.12-2.84h.01c-44.42-25.22-78.74-63.44-98.98-109.3 10.21 113.58 113.18 206.18 227.18 204.32 126.57 2.05 235.01-110.36 228.29-236.75M480.5 96.22c75.19 106.57 40.75 266.19-71.35 332.36-44.94 27.9-97.46 39.73-149.15 34.07 113.49 52.26 255.13-3.36 302.68-118.88 53.82-120.7-13.9-268.99-140.28-307.48 22.61 16.19 42.27 36.4 58.1 59.93M212.37 38.6c199.02-14.58 324.72 214.03 207.08 374.17.01 0 .01-.01.02-.01 101.97-72.15 124.62-222.54 48.42-321.49C389.82-15.88 228.45-31.31 131.41 58.94c25.33-11.49 52.66-18.4 80.96-20.34M28.39 241.99c55.65-120.51 215.02-169.5 328.62-101.56H357c44.42 25.23 78.75 63.43 98.98 109.3-11.5-124.4-130.45-219.24-254.27-202.69C70.26 60.78-24.32 193.56 5.53 322.27c2.71-27.68 10.39-54.8 22.86-80.28"></path></svg>