<svg data-name="Layer 1" xmlns="http://www.w3.org/2000/svg" viewBox="0 0 600.85 514.11"><path d="M338.81 130.18h224.4c-.34-4.17-.78-8.33-1.34-12.46-2.91-21.57-9.04-42.43-21.17-60.87-12.87-19.55-31.14-35.31-52.38-45.15C470.47 3.45 451.26-.47 432.21.04H242.63c-49.35 0-94.57 28.8-115.18 73.31L0 346.59h237.86l100.95-216.41Zm93.69-89.32h3.37v-.04c11.85.09 23.87 2.64 35.3 7.93 18.2 8.43 32.6 22.88 41.12 40.61H357.85c14.3-29.69 43.66-47.5 74.65-48.5ZM64.08 305.77 164.47 90.55c13.98-30.19 44.65-49.69 78.16-49.69h99.32c-8.77 9.52-16.1 20.44-21.68 32.49L211.86 305.77H64.08Z"></path><path d="M362.99 167.52 262.04 383.93H37.64c.34 4.17.78 8.33 1.34 12.46 2.91 21.57 9.04 42.43 21.17 60.87 12.87 19.55 31.14 35.31 52.38 45.15 17.85 8.26 37.05 12.18 56.11 11.67h189.58c49.35 0 94.57-28.8 115.18-73.31l127.45-273.24H362.99ZM168.35 473.25h-3.37v.04c-11.85-.09-23.87-2.64-35.3-7.93-18.2-8.43-32.6-22.88-41.12-40.61H243c-14.3 29.69-43.66 47.5-74.65 48.5Zm268.03-49.69c-13.98 30.19-44.65 49.69-78.16 49.69H258.9c8.77-9.52 16.1-20.44 21.68-32.49l108.41-232.42h147.79L436.39 423.56Z"></path></svg>