<svg xmlns="http://www.w3.org/2000/svg" width="613.6" viewBox="0 0 613.6 402.3" height="402.3" xml:space="preserve" style="enable-background:new 0 0 613.6 402.3"><path d="M613.6 201.1c0-49.6-56.9-76.2-127.2-90.1C453.2 45.3 385.3 0 306.8 0S160.4 45.3 127.2 111C56.9 125 0 151.6 0 201.1c0 49.6 56.9 76.2 127.2 90.1 33.1 65.7 101.1 111 179.6 111s146.4-45.3 179.6-111c70.3-13.9 127.2-40.5 127.2-90.1zm-306.8 53.3c-51.2 0-99.4-3.6-139.3-9.7-4.3-13.8-6.7-28.4-6.7-43.6 0-15.2 2.3-29.8 6.7-43.6 39.9-6.1 88.1-9.7 139.3-9.7 51.2 0 99.4 3.6 139.3 9.7 4.3 13.8 6.7 28.4 6.7 43.6 0 15.2-2.3 29.8-6.7 43.6-39.9 6.1-88.1 9.7-139.3 9.7zm0-158c-31.3 0-68.3 1-105.7 4.4 26.6-28 64.1-45.6 105.7-45.6 41.6 0 79.1 17.6 105.7 45.6-37.4-3.3-74.4-4.4-105.7-4.4zM105.7 201.1c0 10.6 1.1 20.9 2.6 31-29.7-8.8-47.4-19.5-47.4-31 0-11.4 17.8-22.2 47.4-31-1.6 10.2-2.6 20.5-2.6 31zm201.1 104.7c31.3 0 68.4-1 105.7-4.4-26.6 28-64.1 45.6-105.7 45.6-41.6 0-79.1-17.6-105.7-45.6 37.3 3.4 74.4 4.4 105.7 4.4zm201.1-104.7c0-10.6-1.1-20.9-2.6-31 29.7 8.8 47.4 19.5 47.4 31 0 11.4-17.8 22.2-47.4 31 1.6-10.1 2.6-20.4 2.6-31z"></path></svg>