<svg data-name="Layer 1" xmlns="http://www.w3.org/2000/svg" viewBox="0 0 613.06 539.95"><path d="m610.99 218.21-186.27 90.45h-.03l176.9-113.8c1.59-1.03.2-3.46-1.49-2.61l-188.27 94.4 176.8-115.54c1.59-1.04.2-3.46-1.5-2.61l-189 94.76 177.01-115.64c1.59-1.04.2-3.46-1.5-2.61l-189.21 94.87 177.21-115.75c1.59-1.04.2-3.46-1.5-2.61l-189.41 94.97 177.8-117.41c1.58-1.04.19-3.45-1.5-2.6l-190.61 95.57L534.06 76.09c1.59-1.04.2-3.46-1.5-2.61L342.69 168.6 520.57 52.59c1.59-1.04.2-3.46-1.5-2.61l-190.06 95.26L506.59 29.46c1.59-1.04.2-3.46-1.5-2.6L315.5 122.21 489.48 2.73h-.26l.15-.11c1.16-.8.6-2.62-.81-2.62H124.5c-1.41 0-1.98 1.82-.81 2.62l.15.11h-.26l173.98 119.48-189.59-95.36c-1.69-.86-3.09 1.57-1.5 2.6L284.03 145.3 93.98 50.02c-1.69-.85-3.08 1.57-1.5 2.61L270.33 168.7 80.5 73.5c-1.69-.85-3.08 1.57-1.5 2.61l177.64 115.96L66.02 96.5c-1.69-.85-3.08 1.56-1.5 2.6l177.81 117.42-189.42-94.98c-1.69-.85-3.08 1.57-1.5 2.61l177.23 115.76-189.22-94.88c-1.69-.85-3.08 1.57-1.5 2.61l177.03 115.65-189.02-94.78c-1.69-.85-3.08 1.57-1.5 2.61l176.82 115.55-188.28-94.41c-1.7-.85-3.09 1.57-1.49 2.61l176.9 113.81h-.03L2.07 218.21c-1.27-.62-2.58.78-1.87 2.01l183.26 319.01c.71 1.24 2.59.8 2.68-.63l13.07-213.41 11.09 212.63c.11 1.89 2.9 1.89 3 0l12.04-212.7 12.04 212.61c.11 1.89 2.9 1.89 3 0l12.04-212.61 12.04 212.61c.11 1.89 2.9 1.89 3 0l12.04-212.61 12.04 212.61c.11 1.89 2.9 1.89 3 0l11.97-212.61 11.97 212.61c.11 1.89 2.9 1.89 3 0l12.04-212.61 12.04 212.61c.11 1.89 2.9 1.89 3 0l12.04-212.61 12.04 212.61c.11 1.89 2.9 1.89 3 0l12.04-212.61 12.04 212.7c.11 1.89 2.9 1.89 3 0l11.09-212.63 13.07 213.41c.09 1.42 1.97 1.86 2.68.63l183.26-319.01c.7-1.23-.6-2.63-1.87-2.01ZM306.53 314.3H199.87v-.04l106.66-185.71 106.66 185.71v.04H306.53Z"></path></svg>