<svg data-name="Layer 1" xmlns="http://www.w3.org/2000/svg" viewBox="0 0 615.56 607.51"><path d="M328.99 7.24v272.11c0 3.99 3.23 7.23 7.23 7.23h272.11c6.44 0 9.66-7.78 5.11-12.33L341.32 2.13c-4.55-4.55-12.33-1.33-12.33 5.11ZM286.57 7.24v272.11c0 3.99-3.23 7.23-7.23 7.23H7.24c-6.44 0-9.66-7.78-5.11-12.33L274.24 2.13c4.55-4.55 12.33-1.33 12.33 5.11ZM0 334.47v263.1c0 5.49 4.45 9.94 9.94 9.94h132.07c5.2 0 9.58-4 9.88-9.19 4.76-81.96 72.73-146.96 155.89-146.96s151.13 65 155.89 146.96c.3 5.19 4.69 9.19 9.88 9.19h132.07c5.49 0 9.94-4.45 9.94-9.94v-263.1c0-5.49-4.45-9.94-9.94-9.94H9.94c-5.49 0-9.94 4.45-9.94 9.94Z"></path></svg>