<svg data-name="Layer 1" xmlns="http://www.w3.org/2000/svg" viewBox="0 0 321.59 611.05"><path d="m39.69 90.72-14.88 55.03h29.75L39.69 90.72zM160.8 45.36l-14.88 55.02h29.75L160.8 45.36zM261.04 471.39V159.93c0-10.68-5.38-20.46-14.4-26.18l-.57-.36-3.85 13.44v311.63l-102.29 39.37v-35.38l60.55-23.31V192.26l-3.85-13.51-.57.36c-9.02 5.71-14.4 15.5-14.4 26.18v220.92l-41.73 16.06V205.29c0-10.68-5.38-20.46-14.4-26.18l-.57-.36-3.83 13.37-.02 333.12 139.6-53.73.32-.12Z"></path><path d="m317.74 133.39-.57.36c-9.02 5.71-14.4 15.5-14.4 26.18v340.11l-223.4 85.98V237.63l-3.85-13.51-.57.36c-9.02 5.71-14.4 15.5-14.4 26.18V586.2l-41.73-22.92V250.65c0-10.68-5.38-20.46-14.4-26.18l-.57-.36-3.83 13.38L0 574.42l66.52 36.53.21.11 254.55-97.97.32-.12V146.9l-3.85-13.51ZM281.9 0l-14.87 55.02h29.75L281.9 0z"></path></svg>