<svg data-name="Layer 1" xmlns="http://www.w3.org/2000/svg" viewBox="0 0 587.92 607.75"><path d="M573.97 328.5 447.86 185.97h-307.8L13.95 328.5c-18.93 21.39-18.55 53.64.87 74.59l174.14 187.83c19.58 19.59 51.38 22.95 72.83 5.43 24.63-20.1 25.97-56.84 4.05-78.76l-28.81-33.86c-7.94-9.33-11.89-21.42-11-33.64l11.78-163.29H350.1l11.78 163.29c.89 12.22-3.06 24.31-11 33.64l-28.81 33.86c-21.93 21.93-20.58 58.66 4.05 78.76 21.46 17.51 53.25 14.15 72.83-5.43l174.14-187.83c19.42-20.94 19.79-53.2.87-74.59Z"></path><circle cx="293.96" cy="84.35" r="84.35"></circle></svg>