<svg data-name="Layer 1" xmlns="http://www.w3.org/2000/svg" viewBox="0 0 553.23 589.36"><path d="M0 0v200.18h12.63v189H0v200.18h25.25V0H0zM63.13 0v200.18h12.63v189H63.13v200.18H94.7V0H63.13zM119.95 0v200.18h12.63v189h-12.63v200.18h37.88V0h-37.88zM161.64 0l27.75 31.17v527.02l-27.75 31.17h59.32V0h-59.32zM233.59 0v80.8l18.94 21.27v385.22l-18.94 21.27v80.8h56.81V0h-56.81zM303.03 0v158.79l12.63 14.18v243.42l-12.63 14.18v158.79h56.82V0h-56.82zM405.34 0h-33.2v236.4L424 294.52c72.6-9.26 129.22-71.63 129.22-146.64C553.23 66.55 486.68 0 405.34 0ZM424.01 294.83l-51.86 58.12v236.4h33.2c81.34 0 147.88-66.55 147.88-147.88 0-75.01-56.62-137.38-129.22-146.64Z"></path></svg>