<svg data-name="Layer 1" xmlns="http://www.w3.org/2000/svg" viewBox="0 0 394.67 616.74"><path d="M394.67 20.6V0H0v20.6h187.03v175.04L30.76 39.37H1.63l183.44 183.45C82.04 229.17.16 314.97.16 419.57s88.45 197.17 197.17 197.17S394.5 528.29 394.5 419.57s-81.89-190.4-184.92-196.75l183.1-183.09-.36-.36h-28.41L207.63 195.64V20.6h187.04ZM20.76 419.57c0-93.9 73.69-170.89 166.27-176.25v352.5c-92.59-5.36-166.27-82.35-166.27-176.25Zm353.15 0c0 93.9-73.69 170.89-166.27 176.25v-352.5c92.59 5.35 166.27 82.34 166.27 176.25Z"></path></svg>