<svg xmlns="http://www.w3.org/2000/svg" width="600" viewBox="0 0 600 519.76" height="519.76" style="overflow:visible;enable-background:new 0 0 600 519.76" xml:space="preserve"><path d="m545.45 283.43-27.28 47.24-27.28-47.24h54.56zm-54.55 0-27.26 47.24h54.54L490.9 377.9l-27.26-47.24-27.28 47.24h54.54l-27.26 47.24-27.28-47.24-27.28 47.24h54.55l-27.28 47.24h54.54l-27.26-47.24h54.54L490.9 377.9h54.55l-27.28-47.24h54.55l-27.23-47.16H600l-27.28-47.25-27.25 47.2-.02-.03-27.28-47.25-27.27 47.26zm-136.36-47.24h54.54l-27.28-47.24-27.26 47.24zm54.54 0-27.28 47.25h54.55l-27.27-47.25h54.55l-27.28-47.24-27.27 47.24zm54.55 0-27.28 47.25-27.28 47.24h54.55l-27.28-47.24h54.54l-27.25-47.25h54.54l-27.28-47.24-27.26 47.24zm27.27-47.24h54.55l-27.28 47.24h54.55l-54.55-94.47-27.27 47.23zm-27.27-47.23-27.28 47.24h54.54l-27.26-47.24h54.54L490.9 94.48l-27.27 47.24zm-272.6 330.65h22.66L202.36 492l-11.33-19.63zm47.41 0h29.85l-14.92 25.85-14.93-25.85zm50.48 0h36.87l-18.43 31.94-18.44-31.94zm51.58 0h41.31l-20.65 35.78-20.66-35.78zm-176.87-47.23h22.66l-11.33 19.63-11.33-19.63zm47.41 0h29.97l-14.92 25.84-.03-.04-.06.1-14.96-25.9zm67.56 29.37-16.96-29.38h36.73L280 456.95l-1.4-2.44zm34.67-29.37h41.28l-20.64 35.75-20.64-35.75zm-176.9-47.24h22.66l-11.33 19.63-11.33-19.63zm47.41 0h29.91l-14.95 25.91-14.96-25.91zm50.54 0h36.84l-18.39 31.85-1.43-2.48-.03.04-16.99-29.41zm51.72 0h41.23l-20.61 35.7-20.62-35.7zm-176.81-47.23h22.52l-11.27 19.5-11.25-19.5zm62.16 25.79-14.89-25.79h29.96l-14.99 25.95-.08-.16zm35.7-25.79h36.78l-18.39 31.85-18.39-31.85zm51.68 0H300l-20.61 35.7-20.62-35.7zM81.81 283.43h22.66l-11.33 19.62-11.33-19.62zm62.31 25.79-14.89-25.79h29.96l-14.98 25.95-.09-.16zm35.71-25.79h36.72l-18.36 31.8-18.36-31.8zm51.62 0h41.27l-20.61 35.7-.78-1.37-.03.05-19.85-34.38zM54.54 236.19h22.6l-11.3 19.58-11.3-19.58zm47.36 0h30.14l-15.05 26.05-.14-.25-.03.04-14.92-25.84zm50.77 0h36.67L171 267.94l-18.33-31.75zm51.56 0h41.23l-20.62 35.7-20.61-35.7zM79.19 188.95h25.7l-12.84 22.26-12.86-22.26zm46.33 0h36.54l-18.27 31.64-18.27-31.64zm71.26 34.34-19.82-34.34h41.23l-20.61 35.7-.8-1.36zm-94.34-81.57h32.34l-16.17 28.01-16.17-28.01zm67.07 34.34-19.83-34.34h41.23l-20.61 35.7-.79-1.36zm30.84-34.34h45.1l-22.55 39.06-22.55-39.06zm-76.39-47.24h39.67l-19.83 34.35-19.84-34.35zm203.31 0-27.28 47.24-27.28-47.24h54.56zm54.54 0-27.26 47.24-27.28-47.24h54.54zm54.55 0-27.28 47.24-27.28-47.24h54.56zM218.18 0 190.9 47.24 163.63 0l-27.26 47.24-19.84 34.36-.01-.02-34.73 60.14h.02L66.87 167.6l-.05-.08-39.65 68.67h.1L0 283.43h54.54l-27.26 47.24h54.68L54.68 377.9h54.41l-27.28 47.24h54.55l-27.28 47.24h54.67l-27.26 47.25h162.02l-.08.15h69.43l-.08-.15h95.86l-27.28-47.25-22.55 39.06-22.55-39.06h45.1l-27.28-47.24-22.55 39.06-22.55-39.06h45.1L381.8 377.9l-22.55 39.06-22.55-39.06h45.1l-27.26-47.24-22.55 39.06-22.55-39.06h45.1l-27.28-47.24-22.55 39.05-22.55-39.05h45.1l-27.28-47.25-22.55 39.06-22.55-39.06h45.1l-27.28-47.24-22.55 39.06-22.55-39.06h45.1l-27.26-47.24h54.54l-27.28 47.24h54.55l-27.28 47.24h54.55l-27.28 47.25h54.54l-27.26 47.24h54.54l-27.28 47.24h54.55l-54.55-94.47-27.26-47.25-54.55-94.47h54.55l-27.28 47.24h54.54l-27.26-47.24h54.54l-27.28 47.24h54.55l-27.28-47.24h54.55l-27.28-47.24h54.54L463.6 47.22l-27.28 47.25-27.28-47.25-27.28 47.25-27.26-47.25-27.28 47.25-27.28-47.25-27.28 47.25-27.26 47.24-27.28-47.24-22.55 39.05-22.55-39.05h45.1L190.9 47.24 168.35 86.3 145.8 47.24h99.65l-27.28 47.25h54.54l-27.26-47.25L218.18 0zm54.54 0-27.26 47.24H300L272.72 0zm54.55 0-27.28 47.24h54.55L327.27 0zm54.54 0-27.26 47.24h54.54L381.81 0zm54.55 0-27.28 47.24h54.55L436.36 0z"></path></svg>