<svg xmlns="http://www.w3.org/2000/svg" width="624.8" viewBox="0 0 624.8 551.4" height="551.4" xml:space="preserve" style="enable-background:new 0 0 624.8 551.4"><path d="M624.2 228.2c0-14.9-5.9-29.1-16.4-39.6L445.2 25.3C430.4 10.3 414.4-.1 391.8 0H94.9C42.5 0 0 42.5 0 94.9l.2 224c-.1 16.8 6.5 33 18.4 44.9 0 0 178.3 178.1 187.9 187.5.3-3.9.3-101.6.2-190.1L386 540.7c6.7 6.8 15.9 10.7 25.5 10.7h118.2c52.5 0 95.1-42.6 95.1-95.1l-.6-228.1zM414.9 343.9c0 9.4-7.6 17-17 17H206.7V212.1c0-9.4 7.6-17 17-17h174.2c9.4 0 17 7.6 17 17v131.8z"></path></svg>