<svg xmlns="http://www.w3.org/2000/svg" width="577.4" viewBox="0 0 577.4 617.6" height="617.6" xml:space="preserve" style="enable-background:new 0 0 577.4 617.6"><path class="st0" d="M395.9 0h181.5v109H395.9zM0 305.6c-1.9 100.3 78 183.2 178.3 185v-109c-40.2 0-72.7-32.6-72.7-72.7 0-40.2 32.6-72.7 72.7-72.7V127.3C80.6 129.1 1.8 207.9 0 305.6zM374.6 305.6c-1.8-97.7-80.6-176.5-178.3-178.3v108.9c40.2 0 72.7 32.6 72.7 72.7 0 40.2-32.6 72.7-72.7 72.7v109c100.3-1.8 180.1-84.6 178.3-185zM395.9 127.3v108.9c40.2 0 72.7 32.6 72.7 72.7 0 40.2-32.6 72.7-72.7 72.7v109c100.3-1.9 180.2-84.7 178.3-185-1.8-97.7-80.6-176.5-178.3-178.3zM196.2 508.7h181.5v109H196.2z"></path></svg>