<svg xmlns="http://www.w3.org/2000/svg" width="606.8" viewBox="0 0 606.8 298.3" height="298.3"><path d="M486.9 165.3h119.8c-2.3 20.7-9 40.7-19.6 58.6-10.4 17.9-24.4 33.4-41.1 45.7l-59-103.8-.1-.5zm0-32.2h119.6c-2.3-20.6-9-40.6-19.6-58.4-10.5-17.7-24.5-33.1-41.1-45.2l-59 103.8.1-.2zm-55.7 32.2H311.5c2.3 20.7 9 40.7 19.6 58.6 10.4 17.9 24.4 33.4 41 45.7l59.1-103.8v-.5zm0-32.2H311.5c2.3-20.6 9-40.6 19.6-58.4 10.5-17.7 24.4-33.1 41-45.2l59.1 103.8v-.2zm28.1 48l-60.5 103.8c38.3 17.2 82.1 17.2 120.4 0l-60.1-103.8h.2zm0-63.9L398.9 13.5c38.3-17.2 82.1-17.2 120.4 0l-60.1 103.8v-.1zm-163.9 48c-8.6 81.5-81.6 140.7-163.1 132.1C62.6 290 7.5 234.9.2 165.2h295.2zm0-32.1C286.8 51.6 213.8-7.6 132.3 1 62.6 8.3 7.5 63.4.2 133.1h295.2z" fill-rule="evenodd" clip-rule="evenodd" stroke="#1d1d1b" stroke-width=".332" stroke-miterlimit="2.61"></path></svg>