<svg version="1.0" xmlns="http://www.w3.org/2000/svg" width="618.8" viewBox="0 0 618.8 618.8" height="618.8" xml:space="preserve" style="enable-background:new 0 0 618.8 618.8"><path d="M0 0v618.8h618.8V0H0zm518.6 309.7c0 22.8-18.5 41.3-41.3 41.3S436 332.5 436 309.7s18.5-41.3 41.3-41.3 41.3 18.5 41.3 41.3zM408.9 200.1c22.8 0 41.3 18.5 41.3 41.3s-18.5 41.3-41.3 41.3c-22.8 0-41.3-18.5-41.3-41.3s18.5-41.3 41.3-41.3zM73.2 419.3c-22.8 0-41.3-18.5-41.3-41.3 0-22.8 18.5-41.3 41.3-41.3s41.3 18.5 41.3 41.3c-.1 22.9-18.5 41.3-41.3 41.3zm96.3 0c-22.8 0-41.3-18.5-41.3-41.3 0-22.8 18.5-41.3 41.3-41.3s41.3 18.5 41.3 41.3c0 22.9-18.5 41.3-41.3 41.3zm96.4 0c-22.8 0-41.3-18.5-41.3-41.3 0-22.8 18.5-41.3 41.3-41.3s41.3 18.5 41.3 41.3c-.1 22.9-18.5 41.3-41.3 41.3zm55-41.2c0-22.8 18.5-41.3 41.3-41.3s41.3 18.5 41.3 41.3c0 22.8-18.5 41.3-41.3 41.3s-41.3-18.5-41.3-41.3zm88 177.9c-22.8 0-41.3-18.5-41.3-41.3s18.5-41.3 41.3-41.3c22.8 0 41.3 18.5 41.3 41.3S431.7 556 408.9 556zm68.4-68.3c-22.8 0-41.3-18.5-41.3-41.3s18.5-41.3 41.3-41.3 41.3 18.5 41.3 41.3-18.5 41.3-41.3 41.3zm68.3-68.4c-22.8 0-41.3-18.5-41.3-41.3 0-22.8 18.5-41.3 41.3-41.3s41.3 18.5 41.3 41.3c0 22.9-18.5 41.3-41.3 41.3z"></path></svg>