<svg width="642" viewBox="0 0 642 642" height="642" xmlns="http://www.w3.org/2000/svg"><path d="m531.056 324.403-50.975 50.974c-3.017 3.018-8.217.9-8.217-3.402v-33.32h-60.99v19.575l-13.83 13.848 43.13 43.123 23.555-23.562c3.044-3.036 8.218-.86 8.218 3.41v72.09c0 2.632-2.176 4.808-4.809 4.808h-72.09c-4.269 0-6.445-5.174-3.402-8.218l23.555-23.561-43.123-43.123-13.848 13.829h-19.575v60.99h33.32c4.301 0 6.42 5.2 3.402 8.217l-50.974 50.975c-1.862 1.862-4.944 1.862-6.806 0l-50.974-50.975c-3.018-3.017-.9-8.217 3.402-8.217h33.32v-60.99h-19.568l-13.842-13.842-43.123 43.13 23.555 23.561c3.043 3.037.867 8.211-3.402 8.211h-72.09c-2.633 0-4.81-2.176-4.81-4.808v-72.09c0-4.27 5.175-6.446 8.218-3.403l23.555 23.561 43.13-43.13-13.842-13.84-.012-19.569h-60.99v33.32c0 4.301-5.2 6.42-8.218 3.402l-50.975-50.974c-1.862-1.862-1.862-4.944 0-6.806l50.975-50.974c3.017-3.018 8.218-.9 8.218 3.402v33.32h60.99l.012-19.568 13.842-13.842-43.13-43.13-23.555 23.562c-3.043 3.043-8.217.867-8.217-3.402v-72.09c0-2.633 2.176-4.81 4.808-4.81h72.09c4.27 0 6.446 5.175 3.403 8.212l-23.555 23.561 43.123 43.13 13.842-13.842 19.568-.012v-60.99h-33.32c-4.301 0-6.42-5.2-3.402-8.218l50.974-50.975c1.862-1.862 4.944-1.862 6.806 0l50.974 50.975c3.018 3.017.9 8.218-3.402 8.218h-33.32v60.99h19.581l13.842 13.841 43.123-43.123-23.555-23.561c-3.043-3.044-.867-8.218 3.402-8.218h72.09c2.633 0 4.809 2.176 4.809 4.809v72.09c0 4.269-5.174 6.445-8.218 3.409l-23.555-23.562-43.13 43.123 13.83 13.848v19.575h60.99v-33.32c0-4.301 5.2-6.42 8.217-3.402l50.975 50.974c1.862 1.862 1.862 4.944 0 6.806ZM642 321l-62.595-62.595H472.12l75.866-75.865V94.02H459.46l-75.865 75.86V62.595L321 0l-62.595 62.595V169.88L182.54 94.02H94.02v88.52l75.866 75.865H62.595L0 321l62.595 62.595h107.291L94.021 459.46v88.52h88.519l75.865-75.86v107.285L321 642l62.595-62.595V472.12l75.865 75.86h88.526v-88.52l-75.866-75.865h107.285L642 321Z"></path></svg>