<svg xmlns="http://www.w3.org/2000/svg" width="429.1" viewBox="0 0 429.1 595.2" height="595.2" xml:space="preserve" style="enable-background:new 0 0 429.1 595.2"><path d="M346 0v90h-89.9V0H173v90H83V0H0v127.4h94.1v90H162v-90h105.1v90H335v-90h94.1V0zM346 366.8h-90v-90h-83v90H83v-90H0v103.8c0 118.5 96 214.5 214.5 214.5S429 499.1 429 380.6V276.8h-83v90zm-263 0h90-90zm263 0h-90 90z"></path><path d="M346 138.4v90h-89.9v-90H173v90H83v-90H0v127.4h94.1v90H162v-90h105.1v90H335v-90h94.1V138.4H346z"></path></svg>