<svg data-name="Layer 1" xmlns="http://www.w3.org/2000/svg" viewBox="0 0 619.19 597.94"><path d="M309.6 564.71c-76.33 0-147.2-29.94-199.56-84.32-48.94-50.82-77-118.46-77-185.58s25.22-129.68 69.21-178.36c48.5-53.67 116.27-83.22 190.83-83.22 158.18 0 243.54 132.64 243.54 257.44 0 115.25-110.33 224.21-227.02 224.21-125.18 0-227.03-98.72-227.03-220.06 0-54.16 20.52-107.51 56.3-146.36 38.84-42.17 93.6-65.39 154.21-65.39 96.4 0 194 71.31 194 207.6h-8.17c0-99.1-63.83-199.43-185.83-199.43-41.24 0-100.43 10.89-148.2 62.76-34.41 37.36-54.14 88.69-54.14 140.82 0 116.83 98.18 211.89 218.86 211.89s218.85-116.13 218.85-216.04c0-120.84-82.49-249.27-235.37-249.27-72.22 0-137.84 28.6-184.77 80.53-42.65 47.2-67.12 110.22-67.12 172.89s27.24 130.6 74.72 179.91c50.8 52.76 119.59 81.81 193.68 81.81s140.11-30.34 192.1-85.42c48.49-51.37 76.3-117.15 76.3-180.46h8.17c0 65.37-28.62 133.2-78.52 186.07-53.55 56.74-123.88 87.98-198.04 87.98Z"></path><path d="M309.6 581.33c-79.43 0-153.78-30.92-209.33-87.06-53.23-53.79-83.75-126.49-83.75-199.45s28.67-145.4 80.74-197.57c51.9-52 121.45-80.64 195.82-80.64s142.61 29.9 190.49 84.2c44.86 50.87 69.56 118.3 69.56 189.85 0 57.88-26.22 117.96-71.94 164.83-47.1 48.29-109.65 75.99-171.6 75.99s-124.84-24.76-171.28-69.71c-46.6-45.11-72.26-104.41-72.26-166.96s23.88-120.27 67.25-163.07c42.66-42.1 99.4-65.29 159.78-65.29 51.25 0 102.63 19.92 140.94 54.66 31.74 28.77 69.57 81.54 69.57 169.55h-8.17c0-85.02-36.37-135.84-66.88-163.5-36.83-33.39-86.2-52.54-135.45-52.54-58.21 0-112.92 22.35-154.04 62.94-41.8 41.25-64.82 97.1-64.82 157.26s24.78 117.53 69.78 161.09c44.9 43.47 103.71 67.41 165.59 67.41s120.17-26.8 165.75-73.53c44.24-45.36 69.62-103.36 69.62-159.13 0-68.55-24.61-135.78-67.52-184.45-46.98-53.27-110.73-81.43-184.36-81.43S153.4 52.57 103.05 103.02c-50.53 50.63-78.36 118.74-78.36 191.8s29.67 141.43 81.39 193.7c54.01 54.58 126.29 84.64 203.52 84.64 72.59 0 145.64-31.91 200.42-87.56 53.7-54.55 84.49-125.6 84.49-194.93h8.17c0 71.46-31.65 144.6-86.84 200.67-56.3 57.19-131.47 90-206.24 90Z"></path><path d="M309.6 597.94c-82.99 0-160.8-31.39-219.09-88.38C32.14 452.49 0 376.22 0 294.82S29.18 144.45 82.16 89C136.99 31.61 211.9 0 293.08 0s150.29 31.05 201.2 87.43c48.6 53.82 75.37 126 75.37 203.24 0 61.67-27.08 125.53-74.29 175.2-50.41 53.03-116.38 82.24-185.76 82.24s-139.73-28.48-188.84-80.19c-45.26-47.67-71.22-110.76-71.22-173.1s24.29-123.46 66.63-169.01c45.55-48.99 108.37-75.97 176.91-75.97 63.66 0 121.63 24.57 163.22 69.19 41.15 44.14 63.81 105.1 63.81 171.63h-8.17c0-64.46-21.88-123.44-61.61-166.06-40.02-42.94-95.87-66.59-157.24-66.59-66.24 0-126.94 26.05-170.92 73.36C81.21 175.42 57.72 235 57.72 294.82s25.14 121.3 68.98 167.47c47.54 50.07 112.5 77.64 182.91 77.64s130.99-28.3 179.84-79.69c45.78-48.17 72.04-109.97 72.04-169.57 0-75.21-26.02-145.44-73.26-197.76C438.88 38.26 369.58 8.17 293.08 8.17S141.34 38.88 88.06 94.65C36.55 148.57 8.17 219.66 8.17 294.82c0 79.19 31.27 153.38 88.05 208.9 56.75 55.49 132.53 86.06 213.37 86.06 142.29 0 301.42-127.92 301.42-299.11h8.17c0 74.34-32.96 151.07-90.43 210.5-60.34 62.41-138.17 96.77-219.17 96.77Z"></path></svg>