<svg id="Layer_1" data-name="Layer 1" xmlns="http://www.w3.org/2000/svg" viewBox="0 0 616.19 371.56">   <path d="M214.98,128.02c.33,.18,.65,.36,.97,.54l59.88-104.23c-1.86-1.06-3.73-2.09-5.63-3.1l-56.21,106.25c.33,.17,.66,.35,.98,.53Z"></path>   <path d="M225.92,135.66l78.64-90.89c-.81-.7-1.63-1.39-2.45-2.07l-77.04,92.25c.28,.24,.57,.48,.85,.72Z"></path>   <path d="M188.46,120.23c.74,.05,1.48,.11,2.22,.18L203.04,.85c-4.26-.41-8.53-.73-12.81-.85l-4,120.12c.74,.02,1.49,.06,2.23,.11Z"></path>   <path d="M200.53,122.22c.72,.19,1.43,.39,2.14,.61L237.61,7.8c-3.07-.95-6.17-1.78-9.29-2.55l-28.87,116.69c.36,.09,.72,.18,1.08,.28Z"></path>   <path d="M128.18,153.03c1.44-2.6,3.07-5.1,4.85-7.47L37,73.29c-5.79,7.7-11,15.83-15.51,24.34l106.16,56.38c.17-.33,.35-.65,.53-.98Z"></path>   <path d="M136.58,141.26c1.74-1.93,3.6-3.76,5.55-5.47L63.2,45.15c-6.45,5.63-12.51,11.7-18.13,18.16l90.77,78.79c.24-.28,.49-.56,.74-.83Z"></path>   <path d="M120.23,181.76c.13-4.09,.67-8.15,1.58-12.14L4.67,142.61C1.82,155.13,.24,167.94,.04,180.78l120.17,2.1c0-.37,.02-.74,.03-1.11Z"></path>   <path d="M122.65,166.39c.93-3.21,2.09-6.36,3.51-9.39L17.19,106.25c-4.53,9.69-8.21,19.79-10.96,30.13l116.13,31.08c.1-.36,.19-.72,.29-1.08Z"></path>   <path d="M160.09,124.75c1.72-.7,3.47-1.32,5.25-1.87L130.04,7.96c-6.14,1.89-12.18,4.1-18.09,6.61l47.1,110.61c.34-.15,.69-.29,1.03-.43Z"></path>   <path d="M172.92,121.06c1.46-.25,2.94-.46,4.41-.62L164.59,.92c-5.32,.57-10.62,1.34-15.87,2.38l23.1,117.96c.36-.07,.73-.14,1.1-.21Z"></path>   <path d="M147.39,131.67c1.82-1.28,3.71-2.47,5.66-3.55L94.67,23.05c-6.55,3.64-12.87,7.68-18.92,12.1l70.74,97.17c.3-.22,.6-.44,.91-.65Z"></path>   <path d="M401.21,243.54c-.33-.18-.65-.36-.97-.54l-59.88,104.23c1.86,1.06,3.73,2.09,5.63,3.1l56.21-106.25c-.33-.17-.66-.35-.98-.53Z"></path>   <path d="M390.27,235.9l-78.64,90.89c.81,.7,1.63,1.39,2.45,2.07l77.04-92.25c-.28-.24-.57-.48-.85-.72Z"></path>   <path d="M427.73,251.33c-.74-.05-1.48-.11-2.22-.18l-12.36,119.56c4.26,.41,8.53,.73,12.81,.85l4-120.12c-.74-.02-1.49-.06-2.23-.11Z"></path>   <path d="M415.66,249.34c-.72-.19-1.43-.39-2.14-.61l-34.93,115.03c3.07,.95,6.17,1.78,9.29,2.55l28.87-116.69c-.36-.09-.72-.18-1.08-.28Z"></path>   <path d="M488.01,218.53c-1.44,2.6-3.07,5.1-4.85,7.47l96.04,72.27c5.79-7.7,11-15.83,15.51-24.34l-106.16-56.38c-.17,.33-.35,.65-.53,.98Z"></path>   <path d="M479.61,230.3c-1.74,1.93-3.6,3.76-5.55,5.47l78.93,90.64c6.45-5.63,12.51-11.7,18.13-18.16l-90.77-78.79c-.24,.28-.49,.56-.74,.83Z"></path>   <path d="M495.96,189.8c-.13,4.09-.67,8.15-1.58,12.14l117.14,27.02c2.85-12.52,4.43-25.33,4.63-38.17l-120.17-2.1c0,.37-.02,.74-.03,1.11Z"></path>   <path d="M496,187.57h120.19c-3.69-207.21-285.85-253.49-357.4-62.23l-24.42,19.18c.23,.29,.45,.59,.68,.88l22.76-17.24c-2.33,6.83-4.27,13.83-5.79,20.99l-11.04,5.66c.17,.33,.33,.66,.5,1l10.2-5.01c-1.04,5.11-1.87,10.29-2.48,15.54l-3.41,.92c.1,.36,.19,.72,.28,1.08l3-.76c-.62,5.7-.98,11.47-1.06,17.31h-.01c-4.46,84.14-124.55,83.29-127.81-.91H0c3.69,207.21,285.85,253.49,357.4,62.23l24.42-19.18c-.23-.29-.45-.59-.68-.88l-22.76,17.24c2.33-6.83,4.27-13.83,5.79-20.99l11.04-5.66c-.17-.33-.33-.66-.5-1l-10.2,5.01c1.04-5.11,1.87-10.29,2.48-15.54l3.41-.92c-.1-.36-.19-.72-.28-1.08l-3,.76c.62-5.7,.98-11.47,1.06-17.31h.01c4.46-84.14,124.55-83.29,127.81,.91Z"></path>   <path d="M493.54,205.17c-.93,3.21-2.09,6.36-3.51,9.39l108.97,50.76c4.53-9.69,8.21-19.79,10.96-30.13l-116.13-31.08c-.1,.36-.19,.72-.29,1.08Z"></path>   <path d="M456.1,246.81c-1.72,.7-3.47,1.32-5.25,1.87l35.3,114.92c6.14-1.89,12.18-4.1,18.09-6.61l-47.1-110.61c-.34,.15-.69,.29-1.03,.43Z"></path>   <path d="M443.27,250.5c-1.46,.25-2.94,.46-4.41,.62l12.74,119.52c5.32-.57,10.62-1.34,15.87-2.38l-23.1-117.96c-.36,.07-.73,.14-1.1,.21Z"></path>   <path d="M468.8,239.89c-1.82,1.28-3.71,2.47-5.66,3.55l58.39,105.07c6.55-3.64,12.87-7.68,18.92-12.1l-70.74-97.17c-.3,.22-.6,.44-.91,.65Z"></path> </svg>