<svg data-name="Layer 1" xmlns="http://www.w3.org/2000/svg" viewBox="0 0 499.9 622.07"><path d="M240.2.19C111.62 5.07 6.43 109.15.29 237.69c-6.04 126.36 81.8 233.33 199.78 257.22v127.16h32.76V499.25c5.66.38 11.35.65 17.11.65 138.04 0 249.95-111.91 249.95-249.95S382.69-5.23 240.2.19Zm38.31 481.01c27.36-14.64 45.18-44.8 41.62-78.73-4.27-40.78-40.2-70.93-81.2-70.93h-38.86v142.07c-40.36-18.99-68.21-60.15-67.56-107.85.84-61.06 49.88-112.3 110.85-115.62 67.85-3.7 124.02 50.22 124.02 117.26 0 54.99-37.85 101.02-88.88 113.8Zm112.35-68.18c14.92-26.58 22.58-57.8 20.16-90.97-5.81-79.74-70.86-144.12-150.66-149.13-93.92-5.89-171.93 68.54-171.93 161.19 0 28.68 7.51 55.6 20.62 78.94.13.23-.2.45-.36.24-26.06-34.74-41.75-77.99-41.75-122.17 0-101.07 81.93-183 183-183s183 81.93 183 183c0 44.16-15.68 87.41-41.72 122.14-.17.22-.5 0-.36-.24Z"></path></svg>