<svg id="Layer_1" data-name="Layer 1" xmlns="http://www.w3.org/2000/svg" viewBox="0 0 585.67 586.98"><defs></defs><path class="cls-1" d="M22.62 127.28c-1.64-6.11-7.94-9.73-14.07-8.09-6.15 1.66-9.8 7.94-8.15 14.05s7.94 9.73 14.07 8.08c6.14-1.64 9.8-7.93 8.16-14.04ZM88.37 121.52c6.14-1.64 9.78-7.93 8.16-14.03-1.65-6.11-7.95-9.74-14.09-8.09-6.14 1.65-9.8 7.93-8.16 14.05 1.64 6.12 7.95 9.74 14.09 8.08ZM162.25 101.72c6.14-1.64 9.78-7.92 8.16-14.03-1.64-6.12-7.95-9.74-14.09-8.09-6.14 1.65-9.78 7.93-8.16 14.05 1.64 6.11 7.95 9.74 14.09 8.08ZM236.14 81.93c6.14-1.65 9.8-7.93 8.16-14.05-1.64-6.11-7.94-9.74-14.09-8.09-6.14 1.65-9.78 7.93-8.14 14.05 1.64 6.11 7.94 9.74 14.07 8.09ZM310.03 62.14c6.14-1.65 9.8-7.93 8.16-14.05-1.64-6.11-7.94-9.74-14.09-8.09-6.14 1.65-9.78 7.93-8.14 14.05 1.64 6.11 7.95 9.74 14.07 8.09ZM383.93 42.34c6.13-1.65 9.78-7.93 8.14-14.05-1.64-6.11-7.95-9.73-14.07-8.09-6.14 1.66-9.8 7.94-8.15 14.05 1.64 6.11 7.94 9.73 14.09 8.09ZM457.82 22.53c6.14-1.64 9.78-7.93 8.16-14.04-1.64-6.11-7.95-9.73-14.09-8.09-6.14 1.66-9.8 7.94-8.16 14.05 1.64 6.11 7.95 9.73 14.09 8.08ZM42.5 201.49c-1.63-6.11-7.94-9.74-14.07-8.09-6.15 1.66-9.8 7.93-8.15 14.05 1.64 6.12 7.94 9.74 14.09 8.08 6.14-1.64 9.78-7.92 8.14-14.03ZM94.16 187.65c1.64 6.11 7.95 9.74 14.09 8.09 6.14-1.65 9.78-7.93 8.16-14.05-1.64-6.12-7.95-9.74-14.09-8.09-6.14 1.65-9.8 7.93-8.16 14.05ZM168.06 167.85c1.64 6.11 7.94 9.73 14.09 8.09 6.14-1.66 9.78-7.94 8.14-14.05-1.64-6.11-7.94-9.73-14.07-8.09-6.15 1.66-9.8 7.94-8.15 14.05ZM241.95 148.05c1.64 6.11 7.94 9.73 14.09 8.09 6.14-1.66 9.78-7.94 8.14-14.05-1.64-6.11-7.94-9.73-14.07-8.09-6.15 1.65-9.8 7.93-8.16 14.05ZM315.84 128.25c1.64 6.11 7.95 9.73 14.07 8.09 6.14-1.66 9.8-7.94 8.16-14.05-1.64-6.11-7.94-9.73-14.09-8.08-6.14 1.64-9.78 7.93-8.14 14.04ZM389.73 108.45c1.64 6.11 7.95 9.73 14.09 8.08 6.13-1.64 9.78-7.92 8.14-14.04-1.64-6.11-7.95-9.73-14.07-8.09-6.14 1.66-9.8 7.94-8.16 14.05ZM463.62 88.65c1.64 6.12 7.95 9.74 14.09 8.09 6.14-1.65 9.78-7.93 8.16-14.05-1.64-6.11-7.95-9.74-14.09-8.09-6.14 1.66-9.8 7.93-8.16 14.05ZM62.39 275.7c-1.63-6.11-7.94-9.74-14.07-8.09-6.15 1.65-9.8 7.94-8.16 14.05 1.64 6.11 7.94 9.74 14.09 8.09 6.14-1.65 9.78-7.93 8.14-14.05ZM114.05 261.86c1.64 6.12 7.95 9.74 14.09 8.08 6.14-1.64 9.78-7.94 8.15-14.04-1.64-6.11-7.95-9.74-14.09-8.09-6.14 1.65-9.78 7.94-8.15 14.05ZM187.94 242.06c1.64 6.11 7.95 9.73 14.09 8.08 6.14-1.64 9.78-7.92 8.14-14.04-1.63-6.11-7.94-9.73-14.07-8.09-6.15 1.66-9.8 7.94-8.16 14.05ZM261.83 222.26c1.64 6.11 7.94 9.73 14.09 8.08 6.14-1.64 9.78-7.92 8.14-14.03-1.64-6.11-7.94-9.73-14.07-8.09-6.15 1.66-9.8 7.93-8.15 14.05ZM335.73 202.46c1.63 6.11 7.94 9.73 14.07 8.09 6.14-1.65 9.78-7.93 8.16-14.05-1.64-6.11-7.95-9.73-14.09-8.09-6.14 1.66-9.78 7.94-8.14 14.05ZM409.61 182.66c1.64 6.11 7.95 9.73 14.09 8.09 6.13-1.66 9.78-7.94 8.14-14.05-1.64-6.11-7.95-9.73-14.07-8.09-6.15 1.66-9.8 7.94-8.16 14.05ZM483.5 162.87c1.64 6.11 7.95 9.73 14.09 8.08 6.14-1.64 9.8-7.93 8.15-14.04-1.64-6.11-7.95-9.73-14.09-8.09-6.14 1.66-9.78 7.94-8.15 14.05ZM82.27 349.91c-1.64-6.11-7.94-9.74-14.07-8.09-6.15 1.65-9.8 7.94-8.16 14.05 1.64 6.11 7.95 9.74 14.09 8.08 6.14-1.64 9.78-7.94 8.14-14.04ZM156.16 330.11c-1.64-6.11-7.94-9.74-14.07-8.09-6.15 1.65-9.8 7.94-8.15 14.05 1.64 6.11 7.94 9.74 14.09 8.09 6.14-1.65 9.78-7.94 8.14-14.05ZM230.06 310.31c-1.64-6.12-7.95-9.74-14.09-8.08-6.15 1.64-9.8 7.92-8.16 14.03 1.64 6.12 7.95 9.74 14.09 8.09 6.14-1.65 9.78-7.93 8.16-14.05ZM303.94 290.51c-1.64-6.12-7.94-9.74-14.07-8.09-6.15 1.65-9.8 7.93-8.15 14.05 1.64 6.12 7.95 9.74 14.09 8.08 6.14-1.64 9.78-7.92 8.14-14.03ZM377.84 270.71c-1.64-6.11-7.95-9.74-14.09-8.08-6.13 1.64-9.78 7.93-8.14 14.04 1.64 6.11 7.95 9.74 14.07 8.09 6.14-1.65 9.8-7.94 8.16-14.05ZM451.73 250.91c-1.64-6.11-7.95-9.73-14.07-8.09-6.14 1.65-9.8 7.94-8.16 14.05 1.64 6.12 7.95 9.74 14.09 8.08 6.13-1.64 9.78-7.93 8.14-14.04ZM525.63 231.12c-1.64-6.11-7.95-9.74-14.09-8.09-6.15 1.66-9.8 7.93-8.15 14.05 1.64 6.12 7.94 9.74 14.09 8.09 6.14-1.64 9.78-7.93 8.15-14.04ZM102.17 424.12c-1.64-6.12-7.95-9.74-14.09-8.09-6.14 1.65-9.8 7.94-8.15 14.05s7.95 9.74 14.09 8.09c6.14-1.65 9.78-7.94 8.15-14.05ZM176.05 404.32c-1.63-6.11-7.94-9.74-14.07-8.09-6.14 1.65-9.8 7.93-8.15 14.05 1.64 6.11 7.95 9.74 14.09 8.08 6.14-1.64 9.78-7.92 8.14-14.03ZM249.94 384.52c-1.64-6.11-7.94-9.74-14.07-8.09-6.15 1.64-9.8 7.94-8.16 14.05 1.63 6.11 7.94 9.74 14.09 8.08 6.14-1.64 9.78-7.93 8.14-14.04ZM323.84 364.72c-1.65-6.11-7.95-9.74-14.09-8.09-6.15 1.65-9.8 7.94-8.15 14.05s7.95 9.74 14.09 8.09c6.14-1.65 9.78-7.94 8.15-14.05ZM397.72 344.92c-1.64-6.11-7.95-9.73-14.09-8.09-6.14 1.66-9.78 7.94-8.14 14.05 1.64 6.11 7.95 9.73 14.07 8.09 6.14-1.66 9.8-7.94 8.16-14.05ZM471.61 325.13c-1.64-6.11-7.94-9.74-14.07-8.09-6.14 1.65-9.8 7.94-8.16 14.05s7.95 9.74 14.09 8.08c6.13-1.64 9.78-7.93 8.14-14.04ZM545.51 305.33c-1.64-6.13-7.95-9.75-14.09-8.09-6.15 1.64-9.8 7.94-8.15 14.05s7.95 9.74 14.09 8.08c6.14-1.64 9.78-7.94 8.15-14.04ZM122.04 498.32c-1.63-6.1-7.94-9.74-14.07-8.08-6.14 1.64-9.8 7.93-8.15 14.04 1.64 6.12 7.94 9.74 14.07 8.09 6.14-1.65 9.8-7.94 8.16-14.05ZM195.94 478.53c-1.64-6.12-7.95-9.74-14.09-8.08-6.14 1.64-9.8 7.94-8.16 14.04 1.64 6.11 7.95 9.74 14.09 8.08 6.14-1.64 9.78-7.93 8.16-14.04ZM269.82 458.73c-1.63-6.12-7.94-9.74-14.07-8.09-6.14 1.65-9.8 7.94-8.15 14.05 1.64 6.11 7.94 9.74 14.09 8.08 6.14-1.64 9.78-7.93 8.14-14.04ZM343.71 438.93c-1.63-6.11-7.94-9.74-14.07-8.09-6.14 1.65-9.8 7.94-8.16 14.05 1.64 6.11 7.94 9.74 14.07 8.09 6.14-1.65 9.8-7.94 8.16-14.05ZM417.61 419.13c-1.64-6.11-7.95-9.74-14.09-8.08-6.13 1.64-9.78 7.93-8.14 14.04 1.64 6.11 7.95 9.74 14.07 8.09 6.14-1.65 9.8-7.94 8.16-14.05ZM491.5 399.33c-1.64-6.1-7.95-9.74-14.07-8.09-6.15 1.65-9.8 7.95-8.15 14.05 1.64 6.11 7.94 9.74 14.09 8.08 6.13-1.64 9.78-7.93 8.14-14.04ZM565.4 379.54c-1.64-6.11-7.95-9.74-14.09-8.09-6.15 1.64-9.8 7.94-8.16 14.05s7.95 9.74 14.09 8.08c6.14-1.64 9.78-7.93 8.16-14.04ZM127.85 564.44c-6.14 1.64-9.8 7.94-8.15 14.05 1.64 6.11 7.94 9.73 14.09 8.08 6.14-1.64 9.78-7.93 8.14-14.04-1.63-6.11-7.94-9.74-14.07-8.09ZM201.74 544.64c-6.15 1.64-9.8 7.94-8.16 14.05 1.63 6.11 7.94 9.74 14.09 8.09 6.14-1.65 9.78-7.94 8.14-14.05-1.63-6.12-7.94-9.74-14.07-8.09ZM275.63 524.84c-6.14 1.65-9.8 7.93-8.15 14.05 1.64 6.12 7.95 9.74 14.09 8.09 6.14-1.65 9.78-7.93 8.15-14.05-1.64-6.12-7.95-9.74-14.09-8.09ZM349.52 505.05c-6.14 1.64-9.8 7.94-8.16 14.05 1.64 6.11 7.94 9.74 14.09 8.08 6.14-1.64 9.78-7.93 8.14-14.04-1.63-6.11-7.94-9.74-14.07-8.09ZM423.4 485.24c-6.13 1.66-9.78 7.94-8.14 14.05 1.64 6.11 7.95 9.73 14.07 8.09 6.14-1.66 9.8-7.94 8.16-14.05-1.64-6.11-7.95-9.73-14.09-8.09ZM497.31 465.45c-6.14 1.64-9.8 7.94-8.15 14.05 1.64 6.11 7.95 9.73 14.09 8.08 6.13-1.64 9.78-7.92 8.14-14.04-1.64-6.11-7.95-9.73-14.07-8.09ZM585.28 453.74c-1.65-6.12-7.95-9.74-14.09-8.09-6.15 1.64-9.8 7.94-8.16 14.05 1.63 6.11 7.94 9.74 14.09 8.09 6.14-1.65 9.78-7.94 8.16-14.05ZM410.98 289.74c-6.13 1.64-9.78 7.94-8.14 14.04 1.64 6.11 7.95 9.74 14.07 8.09 6.14-1.65 9.8-7.94 8.16-14.05-1.64-6.1-7.94-9.72-14.09-8.08ZM484.89 269.93c-6.15 1.65-9.8 7.94-8.16 14.05 1.64 6.11 7.95 9.74 14.09 8.08 6.14-1.64 9.78-7.92 8.14-14.04-1.64-6.11-7.94-9.74-14.07-8.09ZM430.87 363.95c-6.13 1.64-9.78 7.92-8.14 14.03 1.63 6.12 7.94 9.74 14.07 8.09 6.14-1.65 9.78-7.93 8.16-14.05-1.64-6.12-7.95-9.74-14.09-8.08ZM504.77 344.14c-6.14 1.65-9.8 7.94-8.15 14.05 1.64 6.11 7.95 9.74 14.09 8.08 6.14-1.64 9.78-7.93 8.14-14.04-1.64-6.11-7.94-9.74-14.07-8.09Z"></path></svg>