<svg data-name="Layer 1" xmlns="http://www.w3.org/2000/svg" viewBox="0 0 608.12 548.25"><path d="M603.56 181.66 426.46 4.56C423.54 1.64 419.58 0 415.45 0H173.08c-4.13 0-8.09 1.64-11.01 4.56L4.56 162.07C1.64 164.99 0 168.95 0 173.08v359.6c0 8.6 6.97 15.57 15.57 15.57h157.51c8.6 0 15.57-6.97 15.57-15.57V188.3h211.24v4.87h-29.33c-4.13 0-8.09 1.64-11.01 4.56L198.09 359.19c-2.83 2.82-4.58 6.72-4.58 11.02v162.46c0 8.6 6.97 15.57 15.57 15.57h162.46c8.6 0 15.57-6.97 15.57-15.57V385.78H415c4.13 0 8.09-1.64 11.01-4.56l177.54-177.55c6.08-6.08 6.08-15.94 0-22.02ZM157.51 517.11H31.14V179.53L157.51 53.16v463.95Zm31.14-359.94V31.14h211.24v126.02H188.65Zm167.33 359.94H224.65V385.79h131.32v131.32Zm-109.3-162.46 130.33-130.33h22.88v130.33H246.67Zm184.36-22.47V53.16l139.51 139.51-139.51 139.51Z"></path></svg>