<svg xmlns="http://www.w3.org/2000/svg" width="523.23" viewBox="0 0 523.23 642" height="642" data-name="Layer 1"><path d="M276.06 119.16V0H0v380.39C0 524.9 117.1 642 261.61 642s261.61-117.1 261.61-261.61-109.4-253.72-247.17-261.23Zm49.76 278.88c0 6.81-6.03 12.2-13.1 11.11-5.52-.9-9.37-6.03-9.37-11.62v-1.09c0-16.82-13.67-30.49-30.49-30.49v59.06c-3.27 26.45-30.75 40.96-50.97 40.32-21.12-1.54-26.96-21.19-18.68-36.66 7.38-14.64 24.85-22.73 41.41-24.14 3.27-.32 5.78-3.08 5.78-6.42v-94.76c0-6.93 6.23-12.33 13.42-11.04 5.39 1.03 8.99 6.1 9.05 11.56.19 11.81 6.81 21.96 16.5 27.28.06 0 .06.06.06.06 21.57 10.34 36.4 32.36 36.4 57.84v8.99Z"></path></svg>