<svg id="Layer_1" data-name="Layer 1" xmlns="http://www.w3.org/2000/svg" viewBox="0 0 420.07 618.09"><defs></defs><path class="cls-1" d="M200.01 374.23h21.35v54.06h-21.35v-54.06ZM209.1.06l-.04-.06 33.95 25.01c1.44 4.29 2.76 8.61 3.85 13.03.53 2.18 1.02 4.35 1.46 6.53 2.49-3.54 5.29-6.88 8.4-10l16.44 11.97c-19.58 17.58-24.85 46.76-11.51 69.25 14.97 25.24 47.28 32.79 73.13 16.57 9.63-6.05 17.3-14.89 21.9-25.19l16.44 11.9c-1.72 3.37-3.69 6.6-5.89 9.67 3.58-.31 7.17-.5 10.77-.56 2.37-.04 4.71 0 7.09.07l34.98 25.67h.01-.01c-49.25-14.47-104.21-1.05-139.05 38.72-1.68 1.92-3.3 3.87-4.84 5.86 21.55 7 45 8.18 67.97 2.96 1.7-.49 3.42-.91 5.15-1.28 12.86-3.47 25.5-8.98 37.53-16.61 12.66-8.04 23.86-18.13 33.26-29.63l-12.68 39.72c-3.26 2.44-6.61 4.78-10.06 6.98-1.54.98-3.09 1.93-4.65 2.84 3.42 1.29 6.77 2.84 10.03 4.64l-6.38 19.53c-12.72-8.19-27.81-10.81-41.8-8.13-1.94.52-3.88 1-5.83 1.44-9.3 2.84-17.86 8.12-24.58 15.77-15.92 18.11-16.89 43.62-3.88 63.08 2.49 2.8 4.88 5.69 7.15 8.66 1.17 1.16 2.4 2.28 3.7 3.37a57.662 57.662 0 0 0 33.54 13.28l-6.31 19.53c-3.78-.47-7.51-1.22-11.17-2.24 2.41 5.68 4.5 11.5 6.24 17.43l-13.48 40.98c-.85-28.75-10.56-56.47-27.44-78.98a74.056 74.056 0 0 1-7.76-9.42c-12.18-13.47-27.23-24.54-44.69-32.08-3.41-1.48-6.86-2.79-10.31-3.94.24 36.87 16.54 73.76 48.04 100.17a139.76 139.76 0 0 0 42.16 24.25h-43.28c-4-2.77-7.92-5.72-11.68-8.87-.94-.79-1.87-1.59-2.78-2.39-.13 3.75-.54 7.51-1.24 11.26H260.5c6.67-25.79-5.99-53.19-30.12-63.59-26.28-11.33-56.11 1.31-67.21 28.93-4.42 11-5.2 23.19-2.3 34.59h-20.39c-.68-3.67-1.09-7.38-1.23-11.09a157.58 157.58 0 0 1-14.35 11.09H80.98c48.69-17.13 85.48-60.43 90.29-113.24.35-3.85.53-7.68.53-11.48-35.24 11.43-65.54 38.44-80.96 76.91-6.13 15.3-9.43 31.53-9.91 47.81v.02l-13.45-41.12c1.41-4.75 3-9.44 4.86-14.07.41-1.03.83-2.05 1.27-3.07-3.7 1.21-7.53 2.16-11.43 2.8l-6.25-19.33c25.99-2.89 47.24-23.36 49.65-49.25 2.72-29.22-19.01-54.29-49.45-56.36-11.22-.76-22.46 1.87-32.16 7.36l-6.25-19.33c3.11-1.56 6.32-2.9 9.61-4.02-4.9-2.99-9.64-6.26-14.2-9.78L.02 153.69H0l34.98-25.6a158.24 158.24 0 0 1 18.64.59 76.707 76.707 0 0 1-6.01-9.8l16.44-11.97c10.72 23.95 36.82 37.95 62.27 32.22 28.63-6.44 45.72-34.85 38.27-64.44-2.77-11.01-8.82-20.99-17.16-28.54l16.44-11.97c2.7 2.72 5.19 5.62 7.45 8.7 1.26-6.27 2.88-12.46 4.87-18.54L209.1.07Zm20.94 271.45c-12.91-2.1-25.85-2.11-38.42-.21.2 5.98.03 12.03-.53 18.14-.9 9.81-2.74 19.34-5.44 28.48 7.85-3.04 16.21-4.68 24.7-4.74 8.6-.07 17.36 1.46 25.83 4.78a149.659 149.659 0 0 1-6.14-46.46Zm-72.92-54.54c-6.16 2.36-12.55 4.32-19.16 5.84-9.64 2.22-19.3 3.43-28.87 3.68 11.58 13.78 17.97 31.78 16.47 51.01 13.64-9.71 28.74-17.02 44.63-21.65a124.637 124.637 0 0 0-13.07-38.89Zm107.79-1.3a124.511 124.511 0 0 0-13.67 40.24c5.62 1.66 11.2 3.67 16.72 6.06a148.2 148.2 0 0 1 23.68 12.89c-1.09-17.77 4.32-35.85 16.66-50.39a147.76 147.76 0 0 1-43.4-8.78Zm-54.1-35c-10.31 11.06-22.33 20.55-35.8 27.98 7.01 13.32 12 27.78 14.61 42.96 6.62-.98 13.33-1.51 20.07-1.55 7.38-.05 14.81.46 22.22 1.57 2.48-15.2 7.39-30.09 14.76-44.08a144.457 144.457 0 0 1-35.87-26.88Zm-64.75 19.05c-22.01-28.89-56.5-48.56-96.94-51.39-16.7-1.17-33.27.68-49.1 5.34 31.16 40.61 82.78 61.31 133.7 49.56 4.21-.97 8.33-2.15 12.34-3.51Zm30.46-75.03c-9.39 16.36-25.05 28.92-44.66 33.69a150.621 150.621 0 0 1 32.7 33.32c12.71-6.79 23.95-15.66 33.43-26.11-3.13-4.23-6.06-8.67-8.79-13.32-5.21-8.89-9.43-18.13-12.67-27.58Zm67.2.08c-4.75 14.44-11.58 28.02-20.21 40.26 9.89 10.55 21.3 19.1 33.69 25.53 2.74-3.81 5.69-7.53 8.85-11.13 6.87-7.84 14.41-14.79 22.47-20.85-17.88-4.4-33.98-15.56-44.09-32.6l-.7-1.2ZM209.1.07c-26.4 42.55-28.97 97.28-2.79 141.91 1.41 2.4 2.88 4.74 4.41 7.01 19.12-29.66 26.32-67.58 16.91-105.92A141.486 141.486 0 0 0 209.1.06ZM155.64 500.57c2.93-7.78 7.44-14.96 13.39-20.84 10.86-10.73 25.88-17.04 41.2-17.18h.76c23.76.23 46.13 16.28 54.9 38.23 3.01-.51 6.06-.79 9.13-.82h.76c2.84.03 5.67.28 8.45.75 2.72-7.28 6.83-14.04 12.23-19.7 11.1-11.64 26.95-18.5 43.2-18.45 27.44.27 53.04 21.64 57.95 48.82 4.73 26.19-10.78 54.58-35.33 65.03-10.03 4.27-21.11 5.23-31.8 3.4-5.83 15.02-17.47 27.89-32.42 34.15-27.61 11.56-63.1-1.98-76.2-29.41a52.46 52.46 0 0 1-1.86-4.39c-5.73.79-11.59.68-17.33-.23-5.84 14.97-17.47 27.8-32.37 34.04-27.61 11.56-63.1-1.98-76.2-29.41a55.49 55.49 0 0 1-1.82-4.28c-24.69 3.01-51.41-10.45-62.22-33.45-10.29-21.89-5.18-49.98 12.11-67.07 10.86-10.73 25.88-17.04 41.2-17.18h.76c23.68.23 46.03 16.14 54.84 38.09 2.73-.42 5.5-.65 8.28-.68h.76c2.57.03 5.11.23 7.63.62Zm-2.88 10.22c-1.79-.21-3.61-.31-5.44-.31-1.79.02-3.58.15-5.34.39l.16.87c4.57 26.23-11.11 54.5-35.73 64.81-1.19.5-2.39.95-3.61 1.35 7.7 17.36 25.89 30.21 45.14 30.08 19-.12 36.54-13.26 44.24-30.67-15.11-5.13-28.39-15.9-35.26-30.51-5.24-11.15-6.49-23.92-4.16-36.02Zm128.63.1c-1.66-.22-3.35-.36-5.06-.4h-1.25c-2.09.01-4.17.19-6.21.51l.07.38c4.74 26.25-10.87 54.79-35.66 65.18-.93.39-1.87.75-2.82 1.08 7.55 17.32 25.51 30.23 44.62 30.36 19.33.12 37.29-13.17 45.01-30.88-14.46-5.09-27.16-15.36-34.04-29.32-5.59-11.36-7.02-24.47-4.67-36.89Zm-152.71-7.7c-7.52-17.36-25.45-30.17-45.24-30.11-27.36.26-51.81 27-47.99 55.23 3.13 23.17 25.09 42.42 48.62 42.27 1.84-.01 3.68-.15 5.49-.4-3.29-18.85 2.72-39.42 16.5-53.04 6.36-6.29 14.16-11.06 22.62-13.96Zm204.67 66.98c2.06.28 4.15.42 6.25.41 23.36-.15 45.2-19.35 48.07-42.88 3.31-27.07-19.79-54.72-48.7-54.63-18.97.18-36.55 13.1-44.27 30.41 19.56 7.19 35.44 24.67 39.09 45.66 1.22 6.99 1 14.12-.44 21.02Zm-77.69-66.71c-7.45-17.52-25.47-30.45-45.36-30.38-18.87.18-36.36 12.96-44.14 30.13 19.92 7.01 36.17 24.67 39.87 45.94 1.22 7.03.99 14.2-.47 21.13 1.77.21 3.56.31 5.36.3 2.15-.01 4.27-.19 6.37-.53-3.23-18.81 2.78-39.32 16.53-52.91 6.17-6.1 13.68-10.77 21.83-13.69Zm-92.76 9.67c-1.04 4.91-1.29 10.02-.59 15.18 2.42 17.89 16.05 33.44 32.97 39.53 1.23-5.75 1.39-11.76.23-17.78-3.27-16.9-16.24-31.23-32.61-36.93Zm-31.12.38c-20.33 7.81-35.5 29.63-32.44 52.21l.29 1.84c20.77-8.03 36.16-30.91 32.15-54.06Zm159.73-.1c-.99 4.82-1.21 9.84-.53 14.9 2.38 17.6 15.63 32.94 32.17 39.23 1.09-5.27 1.26-10.77.34-16.29-2.86-17.06-15.61-31.8-31.98-37.84Zm-32.81.42c-19.8 8.02-34.5 29.32-31.63 51.58l.27 1.81c20.24-8.28 35.11-30.68 31.36-53.39Z"></path></svg>