<svg xmlns="http://www.w3.org/2000/svg" width="602.5" viewBox="0 0 602.5 602.4" height="602.4" xml:space="preserve"><path d="M577.7 180.9H370L36.2 444.6c16.8 31.1 39 58.8 65.2 82.1l225.8-178.4v253.2c37-3.1 72.2-12.9 104.2-28.2V288.2h171.2c-1.8-38-10.5-74.2-24.9-107.3z"></path><path d="M286.6 602.4V432L134.4 552.3c43.9 29.3 96.1 47.4 152.2 50.1zM356 140.4h200.2C502.7 56.1 408.6 0 301.4 0 134.9 0 0 134.9 0 301.4c0 37 6.7 72.5 18.9 105.2L356 140.4zM471.8 328.7V550c72.1-49.5 121.5-129.5 129.7-221.4H471.8z"></path></svg>