<svg id="Layer_1" data-name="Layer 1" xmlns="http://www.w3.org/2000/svg" viewBox="0 0 600.63 600.63">   <path d="M583.45,84.94l-67.76-67.76c-11.08-11.08-25.8-17.18-41.46-17.18H46.38C20.8,0,0,20.8,0,46.38V474.23c0,15.66,6.1,30.39,17.17,41.46l67.76,67.76c11.07,11.08,25.8,17.17,41.46,17.17h427.85c25.57,0,46.38-20.8,46.38-46.38V126.4c0-15.66-6.1-30.39-17.17-41.46ZM38.24,494.63c-5.45-5.45-8.45-12.7-8.45-20.4V46.38c0-9.15,7.44-16.59,16.59-16.59H462.56V445.97c0,9.15-7.44,16.59-16.59,16.59h-185.13c-9.15,0-16.59-7.44-16.59-16.59v-60.85h94.49c25.57,0,46.38-20.81,46.38-46.38V154.66c0-25.57-20.81-46.38-46.38-46.38H154.66c-25.57,0-46.38,20.8-46.38,46.38v409.78c-.79-.64-1.55-1.32-2.28-2.04l-67.76-67.76Zm206.01-139.3v-94.49c0-9.15,7.44-16.59,16.59-16.59h94.49v94.49c0,9.15-7.44,16.59-16.59,16.59h-94.49Zm326.6,198.92c0,9.15-7.44,16.59-16.59,16.59H138.07V154.66c0-9.15,7.44-16.59,16.59-16.59h184.08c9.15,0,16.59,7.44,16.59,16.59v59.8h-94.49c-25.57,0-46.38,20.81-46.38,46.38v185.13c0,25.57,20.81,46.38,46.38,46.38h185.13c25.57,0,46.38-20.8,46.38-46.38V36.19c.79,.64,1.55,1.32,2.28,2.04l67.76,67.76c5.45,5.45,8.45,12.7,8.45,20.4v427.85Z"></path> </svg>