<svg xmlns="http://www.w3.org/2000/svg" width="642" viewBox="0 0 642 527.6" height="527.6" style="overflow:visible;enable-background:new 0 0 642 527.6" xml:space="preserve"><path d="M642 274.2c0 23.4-7.3 45.2-19.9 63L560.8 425h-76.6l86.6-123.8c5.5-7.6 8.6-17 8.6-27.1 0-28.6-25.3-49.9-51-47.2 2.4 10 3.7 20.4 3.7 31.1-.1 28.4-8.9 54.8-24.1 76.4L444.6 425h-76.4l88.4-126.3c8.1-11.4 12.8-25.4 12.8-40.4 0-39-31.7-70.6-70.6-70.6-17.8 0-34.1 6.6-46.5 17.5v219.9h-62.7v-220c-12.5-11-28.7-17.6-46.5-17.6-39 0-70.6 31.7-70.6 70.6-.1 15.1 4.7 29.1 12.8 40.5L273.7 425h-76.4L134 334.6c-15.2-21.6-24.1-48-24.1-76.5 0-10.7 1.3-21.1 3.7-31.1-25.9-2.7-51 18.8-51 47.1 0 10.1 3.1 19.5 8.6 27.2L157.8 425H81.2l-61.3-87.8C7.3 319.4 0 297.7 0 274.2c0-60.7 49.2-109.9 109.9-109.9 11.8 0 23.2 1.9 33.8 5.3 24.4-27.3 59.9-44.6 99.4-44.6 29.1.1 56 9.4 77.9 25.2 21.9-15.9 48.8-25.2 77.9-25.2 39.5 0 75 17.2 99.4 44.6 10.7-3.4 22-5.3 33.8-5.3 60.7 0 109.9 49.2 109.9 109.9z"></path><circle cx="321" cy="52.6" r="52.6"></circle><path d="M106.3 527.6c-17.3 0-31.3-14-31.3-31.3S89 465 106.3 465h429.5c17.3 0 31.3 14 31.3 31.3s-14 31.3-31.3 31.3H106.3z"></path></svg>