<svg data-name="Layer 1" xmlns="http://www.w3.org/2000/svg" viewBox="0 0 609.49 608.94"><path d="M609.25 551.15c-2.54-26.67-26.26-47.55-53.98-47.55H285.59c-11.01 0-20.38-7.85-21.34-17.88-.54-5.71 1.26-11.17 5.07-15.37 3.82-4.2 9.05-6.51 14.39-6.52l30.21.61h242.9c28.74 0 52.13-23.38 52.13-52.12V52.12C608.95 23.38 585.57 0 556.83 0H52.13C23.39 0 0 23.38 0 52.12v504.7c0 28.73 23.38 52.11 52.12 52.11h504.7c14.81 0 29.02-6.28 38.98-17.25 9.96-10.95 14.86-25.73 13.44-40.54Zm-37.71 18.48c-3.82 4.2-9.05 6.51-14.72 6.51H52.12c-10.66 0-19.32-8.67-19.32-19.32V52.12c0-10.66 8.67-19.33 19.33-19.33h504.7c10.66 0 19.32 8.67 19.32 19.32v360.22c0 10.66-8.67 19.32-19.33 19.32H314.26l-30.21-.61c-14.81 0-29.02 6.29-38.98 17.25-9.96 10.95-14.86 25.73-13.44 40.54 2.54 26.67 26.26 47.56 53.98 47.56h269.67c11.01 0 20.38 7.85 21.34 17.87.54 5.72-1.26 11.18-5.07 15.37Z"></path></svg>