<svg id="Layer_1" data-name="Layer 1" xmlns="http://www.w3.org/2000/svg" viewBox="0 0 602.22 580.1">   <path d="M565.01,358.25v.13l-.07-.13h-182.53c-46.43,.04-84.23,37.85-84.28,84.3v.96c.05,46.44,37.85,84.25,84.28,84.29h.01c46.42-.03,84.24-37.85,84.29-84.29v-10.82h30.15v10.82c0,31.56-12.81,60.11-33.55,80.88-20.76,20.75-49.31,33.56-80.89,33.56h-.01c-31.56,0-60.11-12.81-80.86-33.56-20.75-20.76-33.56-49.31-33.56-80.88v-.96c0-31.57,12.81-60.13,33.56-80.89,20.75-20.75,49.3-33.56,80.86-33.58h203.84c6.12,0,11.07-4.95,11.07-11.07s-4.95-11.06-11.07-11.06h-67.24v-16.26c-.02-75.34-61.22-136.54-136.57-136.57-.12,0-52.75-.06-109.28-.12v-16.41C273.15,61.27,211.92,.02,136.57,.01H58.2C37.63,.01,21,16.67,20.99,37.22c.01,20.55,16.67,37.2,37.21,37.2v-.25l.08,.27h78.29c17.08,0,32.56,6.96,43.88,18.27,11.3,11.32,18.26,26.81,18.27,43.89v16.33c-11.13-.01-21.33-.02-30.15-.04v-16.29c-.16-17.68-14.38-31.82-32-31.97H39.04c-6.12,0-11.08,4.95-11.08,11.06s4.97,11.07,11.08,11.07h97.53c2.52,0,5,1.08,6.9,2.96,1.88,1.89,2.97,4.35,2.95,6.87v16.27c-6.2-.01-9.77-.01-9.79-.01C61.23,152.87,.02,214.08,0,289.43v.97c.02,75.36,61.23,136.57,136.57,136.59,75.35-.02,136.57-61.23,136.59-136.59v-10.67l109.19,.12c2.58,0,5.07,1.09,6.97,2.98,1.89,1.91,2.98,4.36,2.96,6.88v16.26h-9.87c-75.34,.02-136.54,61.25-136.57,136.59v.96c.02,75.33,61.23,136.56,136.57,136.58h.01c75.36-.02,136.56-61.25,136.58-136.58v-10.82h46.27c.08,0,.17-.01,.25-.01,20.32-.28,36.69-16.82,36.7-37.21-.01-20.56-16.66-37.21-37.21-37.22M136.57,52.3H58.2v-.02c-8.32-.01-15.06-6.74-15.07-15.06,.01-8.31,6.75-15.05,15.05-15.08,.04,0,.07,.01,.11,.01h78.29c31.57,0,60.13,12.81,80.89,33.56,20.75,20.77,33.56,49.31,33.56,80.89v16.39c-10.22-.01-20.38-.02-30.16-.04v-16.35c-.05-46.42-37.84-84.25-84.29-84.3m114.45,238.09c0,31.57-12.81,60.12-33.56,80.89-20.76,20.75-49.31,33.56-80.89,33.56s-60.11-12.81-80.88-33.56c-20.74-20.77-33.54-49.3-33.55-80.89v-.97c.01-31.57,12.81-60.11,33.56-80.88,20.77-20.74,49.33-33.55,80.93-33.56-.01,0,216.83,.25,243.17,.28h2.62c31.57,0,60.13,12.81,80.89,33.55,20.74,20.76,33.55,49.3,33.55,80.88v16.26h-30.15v-16.26c-.05-46.44-37.87-84.25-84.29-84.29l-245.84-.3c-46.45,.06-84.27,37.88-84.3,84.31v.97c.04,46.44,37.87,84.25,84.29,84.29,46.43-.04,84.24-37.86,84.29-84.29v-10.73l30.18,.02v10.71Zm131.33-32.69s-233.61-.26-245.33-.27h-.08c-.25,0-.38-.01-.38-.01h-.01c-.12,0-.25,.01-.36,.01-17.51,.36-31.46,14.47-31.62,32v.97c.16,17.66,14.32,31.84,31.99,32.02,17.67-.18,31.83-14.36,32-32.02v-10.8l30.15,.04v10.77c-.01,17.08-6.96,32.57-18.27,43.88-11.3,11.31-26.8,18.27-43.88,18.27s-32.56-6.96-43.88-18.27c-11.3-11.3-18.27-26.8-18.27-43.88v-.97c0-17.08,6.97-32.57,18.27-43.89,11.32-11.3,26.81-18.27,43.88-18.27l245.84,.28c17.09,0,32.58,6.96,43.89,18.26,11.3,11.32,18.27,26.8,18.27,43.89v16.26h-30.15v-16.26c-.15-17.68-14.38-31.85-32.06-32m-235.94,21.87v10.82c.01,2.5-1.07,5-2.98,6.9-1.9,1.89-4.37,2.98-6.88,2.98s-4.98-1.08-6.88-2.98c-1.89-1.91-2.98-4.4-2.96-6.9v-.97c-.01-2.5,1.07-4.99,2.96-6.89,1.91-1.89,4.36-2.98,6.87-2.98h9.87Zm418.59,130.99h-182.6c-17.66,.16-31.82,14.34-32,32v.96c.18,17.67,14.35,31.83,32,31.99h.01c17.65-.15,31.83-14.32,32-31.99v-10.82h30.15v10.82c0,17.08-6.97,32.58-18.27,43.89-11.32,11.29-26.8,18.26-43.88,18.27h-.01c-17.08-.01-32.56-6.98-43.87-18.27-11.3-11.32-18.26-26.8-18.27-43.89v-.96c.01-17.09,6.96-32.58,18.27-43.9,11.3-11.29,26.79-18.26,43.87-18.26h182.6c8.31,.01,15.06,6.75,15.07,15.08-.01,8.33-6.75,15.07-15.07,15.08m-172.73,22.14v10.82c.01,2.52-1.07,4.99-2.96,6.88-1.89,1.89-4.38,2.98-6.89,2.97h-.01c-2.52,.01-4.99-1.07-6.89-2.95-1.88-1.91-2.97-4.38-2.95-6.89v-.96c-.01-2.52,1.07-5,2.97-6.89,1.89-1.89,4.37-2.98,6.88-2.96h9.87Z"></path> </svg>