<svg xmlns="http://www.w3.org/2000/svg" width="611.3" viewBox="0 0 611.3 611.3" height="611.3" style="enable-background:new 0 0 611.3 611.3" xml:space="preserve"><path d="M0 0v611.3h611.3V0H0zm598.8 154.9H456.4V12.5h142.4v142.4zM228.5 382.8v-93.3h93.3v93.3h-93.3zm93.2 12.5v76.9h-93.3v-76.9h93.3zM216 382.8h-76.9v-93.3H216v93.3zm0 12.5v76.9h-76.9v-76.9H216zm0 89.4v62h-76.9v-62H216zm12.5 0h93.3v62h-93.3v-62zm105.7 0h109.6v62H334.2v-62zm0-12.5v-76.9h109.6v76.9H334.2zm0-89.4v-93.3h109.6v93.3H334.2zm0-105.7V167.4h109.6V277H334.2zm-12.5 0h-93.3V167.4h93.3v109.7zm-105.7 0h-76.9V167.4H216v109.7zm-89.4 0h-62V167.4h62v109.7zm0 12.5v93.3h-62v-93.3h62zm0 105.7v76.9h-62v-76.9h62zm0 89.4v62h-62v-62h62zm0 74.5v39.6h-62v-39.6h62zm12.5 0H216v39.6h-76.9v-39.6zm89.4 0h93.3v39.6h-93.3v-39.6zm105.7 0h109.6v39.6H334.2v-39.6zm122.2 0h142.4v39.6H456.4v-39.6zm0-12.5v-62h142.4v62H456.4zm0-74.5v-76.9h142.4v76.9H456.4zm0-89.4v-93.3h142.4v93.3H456.4zm0-105.7V167.4h142.4V277H456.4zm-12.5-122.2H334.2V12.5h109.6v142.4zm-122.2 0h-93.3V12.5h93.3v142.4zm-105.7 0h-76.9V12.5H216v142.4zm-89.4 0h-62V12.5h62v142.4zm-74.5 0H12.5V12.5h39.6v142.4zm0 12.5V277H12.5V167.4h39.6zm0 122.2v93.3H12.5v-93.3h39.6zm0 105.7v76.9H12.5v-76.9h39.6zm0 89.4v62H12.5v-62h39.6zm0 74.5v39.6H12.5v-39.6h39.6z"></path></svg>