<svg data-name="Layer 1" xmlns="http://www.w3.org/2000/svg" viewBox="0 0 600.48 407.3"><path d="M10.48 0C4.69 0 0 4.69 0 10.47s4.69 10.47 10.48 10.47 10.47-4.69 10.47-10.47S16.26 0 10.48 0ZM49.11 0c-5.78 0-10.47 4.69-10.47 10.47s4.69 10.47 10.47 10.47 10.48-4.69 10.48-10.47S54.9 0 49.11 0ZM87.74 0c-5.78 0-10.47 4.69-10.47 10.47s4.69 10.47 10.47 10.47 10.48-4.69 10.48-10.47S93.53 0 87.74 0ZM126.38 0c-5.78 0-10.47 4.69-10.47 10.47s4.69 10.47 10.47 10.47 10.48-4.69 10.48-10.47S132.17 0 126.38 0ZM165.02 0c-5.78 0-10.47 4.69-10.47 10.47s4.69 10.47 10.47 10.47 10.48-4.69 10.48-10.47S170.81 0 165.02 0Z"></path><circle cx="203.65" cy="10.47" r="10.47"></circle><path d="M10.48 38.63C4.69 38.63 0 43.32 0 49.1s4.69 10.47 10.48 10.47 10.47-4.69 10.47-10.47-4.69-10.47-10.47-10.47Z"></path><circle cx="203.65" cy="49.11" r="10.47"></circle><path d="M10.48 77.27C4.69 77.27 0 81.96 0 87.75s4.69 10.47 10.48 10.47 10.47-4.69 10.47-10.47-4.69-10.48-10.47-10.48ZM203.65 77.27c-5.78 0-10.47 4.69-10.47 10.48s4.69 10.47 10.47 10.47 10.47-4.69 10.47-10.47-4.69-10.48-10.47-10.48ZM10.48 115.9C4.69 115.9 0 120.59 0 126.37s4.69 10.47 10.48 10.47 10.47-4.69 10.47-10.47-4.69-10.47-10.47-10.47Z"></path><circle cx="203.65" cy="126.38" r="10.47"></circle><path d="M10.48 154.54C4.69 154.54 0 159.23 0 165.01s4.69 10.48 10.48 10.48 10.47-4.69 10.47-10.48-4.69-10.47-10.47-10.47ZM203.65 154.54c-5.78 0-10.47 4.69-10.47 10.47s4.69 10.48 10.47 10.48 10.47-4.69 10.47-10.48-4.69-10.47-10.47-10.47ZM10.48 193.17C4.69 193.17 0 197.86 0 203.64s4.69 10.47 10.48 10.47 10.47-4.69 10.47-10.47-4.69-10.47-10.47-10.47ZM49.11 193.17c-5.78 0-10.47 4.69-10.47 10.47s4.69 10.47 10.47 10.47 10.48-4.69 10.48-10.47-4.69-10.47-10.48-10.47ZM87.74 193.17c-5.78 0-10.47 4.69-10.47 10.47s4.69 10.47 10.47 10.47 10.48-4.69 10.48-10.47-4.69-10.47-10.48-10.47ZM126.38 193.17c-5.78 0-10.47 4.69-10.47 10.47s4.69 10.47 10.47 10.47 10.48-4.69 10.48-10.47-4.69-10.47-10.48-10.47ZM165.02 193.17c-5.78 0-10.47 4.69-10.47 10.47s4.69 10.47 10.47 10.47 10.48-4.69 10.48-10.47-4.69-10.47-10.48-10.47Z"></path><circle cx="203.65" cy="203.65" r="10.47"></circle><path d="M10.48 231.81C4.69 231.81 0 236.5 0 242.29s4.69 10.47 10.48 10.47 10.47-4.69 10.47-10.47-4.69-10.48-10.47-10.48ZM203.65 231.81c-5.78 0-10.47 4.69-10.47 10.48s4.69 10.47 10.47 10.47 10.47-4.69 10.47-10.47-4.69-10.48-10.47-10.48ZM10.48 270.44C4.69 270.44 0 275.13 0 280.91s4.69 10.47 10.48 10.47 10.47-4.69 10.47-10.47-4.69-10.47-10.47-10.47Z"></path><circle cx="203.65" cy="280.92" r="10.47"></circle><path d="M10.48 309.08C4.69 309.08 0 313.77 0 319.55s4.69 10.48 10.48 10.48 10.47-4.69 10.47-10.48-4.69-10.47-10.47-10.47ZM203.65 309.08c-5.78 0-10.47 4.69-10.47 10.47s4.69 10.48 10.47 10.48 10.47-4.69 10.47-10.48-4.69-10.47-10.47-10.47ZM10.48 347.72C4.69 347.72 0 352.41 0 358.19s4.69 10.47 10.48 10.47 10.47-4.69 10.47-10.47-4.69-10.47-10.47-10.47Z"></path><circle cx="203.65" cy="358.19" r="10.47"></circle><path d="M10.48 386.35C4.69 386.35 0 391.04 0 396.82s4.69 10.47 10.48 10.47 10.47-4.69 10.47-10.47-4.69-10.47-10.47-10.47Z"></path><circle cx="203.65" cy="396.82" r="10.47"></circle><path d="M242.29 193.17c-5.78 0-10.47 4.69-10.47 10.47s4.69 10.47 10.47 10.47 10.48-4.69 10.48-10.47-4.69-10.47-10.48-10.47Z"></path><circle cx="280.92" cy="203.65" r="10.47"></circle><path d="M319.56 193.17c-5.79 0-10.48 4.69-10.48 10.47s4.69 10.47 10.48 10.47 10.47-4.69 10.47-10.47-4.69-10.47-10.47-10.47Z"></path><circle cx="358.19" cy="203.65" r="10.47"></circle><path d="M242.29 386.35c-5.78 0-10.47 4.69-10.47 10.47s4.69 10.47 10.47 10.47 10.48-4.69 10.48-10.47-4.69-10.47-10.48-10.47Z"></path><circle cx="280.92" cy="396.82" r="10.47"></circle><path d="M319.56 386.35c-5.79 0-10.48 4.69-10.48 10.47s4.69 10.47 10.48 10.47 10.47-4.69 10.47-10.47-4.69-10.47-10.47-10.47Z"></path><circle cx="358.19" cy="396.82" r="10.47"></circle><path d="M396.83 0c-5.79 0-10.48 4.69-10.48 10.47s4.69 10.47 10.48 10.47 10.47-4.69 10.47-10.47S402.61 0 396.83 0ZM590 20.95c5.79 0 10.48-4.69 10.48-10.47S595.79.01 590 .01s-10.47 4.69-10.47 10.47 4.69 10.47 10.47 10.47ZM396.83 38.63c-5.79 0-10.48 4.69-10.48 10.47s4.69 10.47 10.48 10.47 10.47-4.69 10.47-10.47-4.69-10.47-10.47-10.47ZM590 38.63c-5.78 0-10.47 4.69-10.47 10.47s4.69 10.47 10.47 10.47 10.48-4.69 10.48-10.47-4.69-10.47-10.48-10.47ZM396.83 77.27c-5.79 0-10.48 4.69-10.48 10.48s4.69 10.47 10.48 10.47 10.47-4.69 10.47-10.47-4.69-10.48-10.47-10.48ZM590 77.27c-5.78 0-10.47 4.69-10.47 10.48s4.69 10.47 10.47 10.47 10.48-4.69 10.48-10.47-4.69-10.48-10.48-10.48ZM396.83 115.9c-5.79 0-10.48 4.69-10.48 10.47s4.69 10.47 10.48 10.47 10.47-4.69 10.47-10.47-4.69-10.47-10.47-10.47ZM590 115.9c-5.78 0-10.47 4.69-10.47 10.47s4.69 10.47 10.47 10.47 10.48-4.69 10.48-10.47-4.69-10.47-10.48-10.47ZM396.83 154.54c-5.79 0-10.48 4.69-10.48 10.47s4.69 10.48 10.48 10.48 10.47-4.69 10.47-10.48-4.69-10.47-10.47-10.47ZM590 154.54c-5.78 0-10.47 4.69-10.47 10.47s4.69 10.48 10.47 10.48 10.48-4.69 10.48-10.48-4.69-10.47-10.48-10.47ZM396.83 193.17c-5.79 0-10.48 4.69-10.48 10.47s4.69 10.47 10.48 10.47 10.47-4.69 10.47-10.47-4.69-10.47-10.47-10.47ZM435.46 193.17c-5.79 0-10.48 4.69-10.48 10.47s4.69 10.47 10.48 10.47 10.47-4.69 10.47-10.47-4.69-10.47-10.47-10.47ZM474.1 193.17c-5.78 0-10.47 4.69-10.47 10.47s4.69 10.47 10.47 10.47 10.48-4.69 10.48-10.47-4.69-10.47-10.48-10.47ZM512.73 193.17c-5.79 0-10.48 4.69-10.48 10.47s4.69 10.47 10.48 10.47 10.47-4.69 10.47-10.47-4.69-10.47-10.47-10.47ZM551.37 193.17c-5.78 0-10.47 4.69-10.47 10.47s4.69 10.47 10.47 10.47 10.48-4.69 10.48-10.47-4.69-10.47-10.48-10.47ZM590 193.17c-5.78 0-10.47 4.69-10.47 10.47s4.69 10.47 10.47 10.47 10.48-4.69 10.48-10.47-4.69-10.47-10.48-10.47ZM396.83 231.81c-5.79 0-10.48 4.69-10.48 10.48s4.69 10.47 10.48 10.47 10.47-4.69 10.47-10.47-4.69-10.48-10.47-10.48ZM590 231.81c-5.78 0-10.47 4.69-10.47 10.48s4.69 10.47 10.47 10.47 10.48-4.69 10.48-10.47-4.69-10.48-10.48-10.48ZM396.83 270.44c-5.79 0-10.48 4.69-10.48 10.47s4.69 10.47 10.48 10.47 10.47-4.69 10.47-10.47-4.69-10.47-10.47-10.47ZM590 270.44c-5.78 0-10.47 4.69-10.47 10.47s4.69 10.47 10.47 10.47 10.48-4.69 10.48-10.47-4.69-10.47-10.48-10.47ZM396.83 309.08c-5.79 0-10.48 4.69-10.48 10.47s4.69 10.48 10.48 10.48 10.47-4.69 10.47-10.48-4.69-10.47-10.47-10.47ZM590 309.08c-5.78 0-10.47 4.69-10.47 10.47s4.69 10.48 10.47 10.48 10.48-4.69 10.48-10.48-4.69-10.47-10.48-10.47ZM396.83 347.72c-5.79 0-10.48 4.69-10.48 10.47s4.69 10.47 10.48 10.47 10.47-4.69 10.47-10.47-4.69-10.47-10.47-10.47ZM590 347.72c-5.78 0-10.47 4.69-10.47 10.47s4.69 10.47 10.47 10.47 10.48-4.69 10.48-10.47-4.69-10.47-10.48-10.47ZM396.83 386.35c-5.79 0-10.48 4.69-10.48 10.47s4.69 10.47 10.48 10.47 10.47-4.69 10.47-10.47-4.69-10.47-10.47-10.47ZM435.46 386.35c-5.79 0-10.48 4.69-10.48 10.47s4.69 10.47 10.48 10.47 10.47-4.69 10.47-10.47-4.69-10.47-10.47-10.47ZM474.1 386.35c-5.78 0-10.47 4.69-10.47 10.47s4.69 10.47 10.47 10.47 10.48-4.69 10.48-10.47-4.69-10.47-10.48-10.47ZM512.73 386.35c-5.79 0-10.48 4.69-10.48 10.47s4.69 10.47 10.48 10.47 10.47-4.69 10.47-10.47-4.69-10.47-10.47-10.47ZM551.37 386.35c-5.78 0-10.47 4.69-10.47 10.47s4.69 10.47 10.47 10.47 10.48-4.69 10.48-10.47-4.69-10.47-10.48-10.47ZM590 386.35c-5.78 0-10.47 4.69-10.47 10.47s4.69 10.47 10.47 10.47 10.48-4.69 10.48-10.47-4.69-10.47-10.48-10.47Z"></path></svg>