<svg version="1.0" xmlns="http://www.w3.org/2000/svg" width="617.1" viewBox="0 0 617.1 617.1" height="617.1" xml:space="preserve" style="enable-background:new 0 0 617.1 617.1"><path d="M446.3 170.9c9.8-45.3-2.9-94.5-38-129.7-55-55-144.4-55-199.3 0-35.1 35.1-47.8 84.4-38 129.7-45.3-9.8-94.5 2.9-129.7 38-55 55-55 144.4 0 199.3 35.1 35.1 84.4 47.8 129.7 38-9.8 45.3 2.9 94.5 38 129.7 55 55 144.4 55 199.3 0 35.1-35.1 47.8-84.4 38-129.7 45.3 9.8 94.5-2.9 129.7-38 55-55 55-144.4 0-199.3-35.2-35.1-84.4-47.8-129.7-38zM338.6 338.6c-19.7-4.3-40.2-4.3-60 0 4.3-19.7 4.3-40.2 0-60 19.7 4.3 40.2 4.3 60 0-4.3 19.7-4.3 40.2 0 60z"></path></svg>