<svg xmlns="http://www.w3.org/2000/svg" width="607.5" viewBox="0 0 607.5 465.6" height="465.6" xml:space="preserve"><path d="M423.2 240.1c29.7 29.7 78 29.7 107.7 0l76.6-76.6-77.1-77.1C516 72 496.9 64.1 476.6 64.1c-20.3 0-39.5 7.9-53.9 22.3l-49.9 49.9-5.9-5.9L470.5 26.8 443.7 0 340.1 103.6l-49.8-49.8c-29.7-29.7-78-29.7-107.7 0l-77.1 77.1 76.6 76.6c29.7 29.7 78 29.7 107.7 0l50.3-50.3 5.9 5.9-111.4 111.4-49.8-49.8c-14.4-14.4-33.5-22.3-53.9-22.3s-39.5 7.9-53.9 22.3L0 301.8l76.6 76.6c29.7 29.7 78 29.7 107.7 0l50.3-50.3 6.5 6.5-104.2 104.2 26.8 26.8L268 361.4l50.3 50.2c14.4 14.4 33.5 22.3 53.9 22.3s39.5-7.9 53.9-22.3l76.6-76.6-77.1-77.1c-14.4-14.4-33.5-22.3-53.9-22.3-20.3 0-39.5 7.9-53.9 22.3L268 307.8l-6.5-6.5 111.4-111.4 50.3 50.2zm26.3-126.9c7.2-7.2 16.8-11.2 27-11.2s19.8 4 27 11.2l50.3 50.3-49.8 49.8c-14.9 14.9-39.2 14.9-54.1 0L399.7 163l49.8-49.8zM263 180.7c-14.9 14.9-39.2 14.9-54.1 0l-49.8-49.8 50.3-50.3c14.9-14.9 39.2-14.9 54.1 0l49.8 49.7-50.3 50.4zM157.5 351.6c-14.9 14.9-39.2 14.9-54.1 0l-49.8-49.8 50.3-50.3c7.2-7.2 16.8-11.2 27-11.2s19.8 4 27.1 11.2l49.8 49.7-50.3 50.4zm187.1-66.9c7.2-7.2 16.8-11.2 27-11.2s19.8 4 27 11.2L449 335l-49.8 49.8c-7.2 7.2-16.8 11.2-27 11.2s-19.8-4-27.1-11.2l-50.3-50.2 49.8-49.9z"></path><circle transform="rotate(-9.213 198.849 130.888)" cx="198.9" cy="130.9" r="24.7"></circle><circle cx="93.3" cy="301.8" r="24.7"></circle><circle cx="514.2" cy="163.4" r="24.7"></circle><circle cx="409.3" cy="335" r="24.7"></circle></svg>