<svg data-name="Layer 1" xmlns="http://www.w3.org/2000/svg" viewBox="0 0 599.33 606.26"><path d="M559.31 26.54C528.89 0 488.81 0 459.54 0h-158.8c-.37 0-.71.09-1.08.11-.36-.02-.71-.11-1.08-.11H139.79c-29.27 0-69.35 0-99.77 26.54C9.11 53.52-5.5 95.24 1.89 135.42c7.15 38.88 33.61 70.3 70.79 84.02 13.7 5.06 27.52 7.47 40.81 7.47 6.06 0 11.99-.56 17.77-1.54v235.7l168.42 145.19 168.41-145.19V225.38c5.78.98 11.71 1.54 17.77 1.54 13.29 0 27.11-2.41 40.81-7.47 37.17-13.73 63.63-45.14 70.79-84.02 7.39-40.18-7.22-81.9-38.13-108.87ZM334.94 524.05c-9.19-8.74-21.59-14.13-35.27-14.13s-26.08 5.39-35.27 14.13l-73.61-63.46c2.01.17 4.01.38 6.05.38 20.47 0 38.96-8.52 52.21-22.16 12.65 13.59 30.63 22.16 50.61 22.16s37.97-8.56 50.61-22.16c13.25 13.64 31.74 22.16 52.21 22.16 2.04 0 4.05-.21 6.06-.38l-73.61 63.46Zm223.91-395.73c-4.69 25.5-21.38 45.3-45.78 54.31-27.78 10.26-64.12 5.25-76.72-24.23-5.95-13.94-.21-38.37 11.37-48.42 8.19-7.1 9.07-19.49 1.97-27.68-7.12-8.19-19.5-9.06-27.68-1.97-24.4 21.16-34.35 63.97-21.74 93.49 6.29 14.7 16.23 26.7 28.58 35.55V408.8c-6.39 8.13-16 12.94-26.36 12.94-18.53 0-33.6-15.07-33.6-33.6V95.16c0-10.83-8.79-19.62-19.62-19.62s-19.62 8.79-19.62 19.62v296.6c0 16.53-13.45 29.98-29.98 29.98s-29.98-13.45-29.98-29.98V95.16c0-10.83-8.79-19.62-19.62-19.62s-19.62 8.79-19.62 19.62v292.97c0 18.53-15.07 33.6-33.6 33.6-10.35 0-19.97-4.8-26.36-12.93V209.37c12.35-8.85 22.29-20.85 28.58-35.55 12.61-29.52 2.66-72.33-21.74-93.49-8.19-7.1-20.58-6.22-27.68 1.97-7.1 8.19-6.22 20.58 1.97 27.68 11.59 10.05 17.32 34.48 11.37 48.42-12.6 29.48-48.94 34.49-76.72 24.23-24.4-9.01-41.09-28.81-45.78-54.31-4.97-27.03 4.5-54.03 25.34-72.22 17.91-15.62 43.01-16.87 73.97-16.87h158.8c.37 0 .71-.09 1.08-.11.36.02.71.11 1.08.11h158.8c30.95 0 56.06 1.24 73.97 16.87 20.84 18.19 30.31 45.18 25.34 72.21Z"></path></svg>