<svg xmlns="http://www.w3.org/2000/svg" width="598.2" viewBox="0 0 598.2 598.2" height="598.2" xml:space="preserve"><path d="M551.4 252.3H412.2l98.5-98.5c8.8-8.8 13.7-20.6 13.7-33.1s-4.9-24.3-13.7-33.1c-18.3-18.3-48-18.3-66.2 0L346 186.1V46.8C346 21 325 0 299.2 0c-25.8 0-46.8 21-46.8 46.8v139.3l-98.5-98.5c-18.3-18.3-48-18.3-66.2 0-18.3 18.3-18.3 48 0 66.2l98.5 98.5H46.8C21 252.3 0 273.3 0 299.1c0 25.8 21 46.8 46.8 46.8h139.3l-98.5 98.5c-18.3 18.2-18.3 48 0 66.2 9.1 9.1 21.1 13.7 33.1 13.7s24-4.6 33.1-13.7l98.5-98.5v139.3c0 25.8 21 46.8 46.8 46.8 25.8 0 46.8-21 46.8-46.8V412.2l98.5 98.5c9.1 9.1 21.1 13.7 33.1 13.7s24-4.6 33.1-13.7c18.3-18.2 18.3-48 0-66.2L412.1 346h139.3c25.8 0 46.8-21 46.8-46.8 0-25.9-21-46.9-46.8-46.9m-38.8-145.8c.2-.2.8-.8 1.4-1.7 6.3 14.5 3.6 32.1-8.3 44L402.2 252.3h-2.4l-16.5-16.5 129.3-129.3zm-63.2-13.9c12.2-12.2 30.3-14.8 45.1-7.9-1.1.6-1.8 1.1-1.9 1.2l-.1.1L363 215.5l-17.1-17.1V196L449.4 92.6zM338.9 46.8v146.3l-1.7 1.7h-23.3V12c0-.3 0-1.1-.2-2.2 14.7 5.8 25.2 20.2 25.2 37m-79.5 0c0-17.2 11-31.9 26.3-37.4-.4 1.2-.5 2.1-.5 2.3v183.2H261l-1.7-1.7V46.8zM148.8 92.6l103.5 103.5v2.4L235.8 215 106.5 85.7c-.2-.2-.8-.8-1.7-1.4 14.5-6.4 32.1-3.6 44 8.3m-56.2 56.2c-12.2-12.2-14.8-30.3-7.9-45.1.6 1.1 1.1 1.8 1.2 1.9l.1.1 129.4 129.4-17.1 17.1h-2.4L92.6 148.8zM46.8 259.4h146.3l1.7 1.7v23.3H12c-.3 0-1.1 0-2.2.2 5.8-14.8 20.2-25.2 37-25.2m0 79.5c-17.2 0-31.9-11-37.4-26.3 1.2.4 2.1.5 2.2.5h183.2v24.1l-1.7 1.7H46.8zm38.9 152.8c-.2.2-.8.8-1.4 1.7-6.3-14.6-3.6-32.2 8.3-44l103.5-103.5h2.4l16.5 16.5L85.7 491.7zm63.1 13.9c-12.2 12.2-30.3 14.8-45.1 7.9 1.1-.6 1.8-1.1 1.9-1.2l.1-.1 129.4-129.4 17.1 17.1v2.4L148.8 505.6zm110.6 45.8V405.1l1.7-1.7h23.3v182.8c0 .3 0 1.1.2 2.2-14.8-5.8-25.2-20.2-25.2-37m79.5 0c0 17.2-11 31.9-26.3 37.4.4-1.2.5-2.1.5-2.3V403.3h24.1l1.7 1.7v146.4zm110.5-45.8L345.9 402.2v-2.4l16.5-16.5 129.3 129.3c.2.2.8.8 1.7 1.4-14.5 6.3-32.1 3.5-44-8.4m56.2 0c-5.1 5-8.1 2.8-8.8 2.1L362.4 373.3l-23 23H306V586c-.2 1.3-1.3 5-6.9 5v.1c-7.1 0-7.7-3.7-7.7-4.8v-190h-32.6l-23.6-23.6-134.1 134.2c-1.1.8-4.4 2.6-8.4-1.4l-.1.1c-5-5-2.8-8-2.1-8.8l134.4-134.4-23-23V306H12.2c-1.3-.2-5-1.3-5-6.9h-.1c0-7.1 3.7-7.7 4.8-7.7h190v-32.6l23.6-23.6L91.4 101.1c-.8-1.1-2.6-4.4 1.3-8.4l-.1-.1c5-5 8-2.8 8.8-2.1l134.4 134.4 23-23h33.4V12.2c.2-1.3 1.3-5 6.9-5v-.1c7.1 0 7.7 3.7 7.7 4.8v190h32.6l23.6 23.6L497.1 91.4c1.1-.8 4.4-2.6 8.4 1.4l.1-.1c5 5 2.8 8.1 2.1 8.8L373.3 235.8l23 23v33.4H586c1.3.2 5 1.3 5 6.9h.1c0 7.1-3.7 7.7-4.8 7.7h-190v32.6L372.8 363l134.1 134.1c.8 1.1 2.6 4.4-1.4 8.4l.1.1zm0-56.2c7.5 7.5 11.6 17.5 11.6 28.1 0 6-1.3 11.7-3.7 16.9-.6-1.1-1.1-1.8-1.2-1.9l-.1-.1L382.7 363l17.1-17.1h2.4l103.4 103.5z"></path><path d="M299.1 262.2c-20.4 0-36.9 16.5-36.9 36.9s16.5 36.9 36.9 36.9 36.9-16.5 36.9-36.9c.1-20.4-16.5-36.9-36.9-36.9"></path></svg>