<svg xmlns="http://www.w3.org/2000/svg" width="615.8" viewBox="0 0 615.8 244.2" height="244.2"><path d="M444 9.8v224.6c43.6-18.6 74.2-61.9 74.2-112.3S487.6 28.4 444 9.8zM530.9 25.1V219c29.1-22.3 47.9-57.4 47.9-97S560 47.4 530.9 25.1zM593.1 51.1V193c14.3-20 22.7-44.5 22.7-70.9s-8.4-51-22.7-71z"></path><circle cx="307.9" cy="122.1" r="122.1"></circle><path d="M97.6 122.1c0 50.4 30.6 93.7 74.2 112.3V9.8c-43.6 18.6-74.2 61.9-74.2 112.3zM37 122.1c0 39.5 18.8 74.7 47.9 97v-194C55.8 47.4 37 82.5 37 122.1zM22.7 193V51.1C8.4 71.1 0 95.6 0 122.1S8.4 173 22.7 193z"></path></svg>