<svg data-name="Layer 1" xmlns="http://www.w3.org/2000/svg" viewBox="0 0 616.16 620.05"><path d="M419.67 239.81 195.49 134.42v55.96H67v30.25h158.75v-38.54l44.1 34.49v-13.76l78.7 36.99-78.7 37v-13.75l-44.1 34.49V259H67v30.25h128.49v55.97l224.18-105.41zM420.66 274.71 196.49 380.12l224.17 105.39v-55.96h128.5V399.3H390.41v38.54l-44.11-34.49v13.76l-78.69-36.99 78.69-37.01v13.76l44.11-34.49v38.55h158.75v-30.25h-128.5v-55.97z"></path><path d="M616.16 0H67v67H0v553.05h549.16v-67h67V0Zm-30.25 522.8h-36.74v-73.62h-30.25v73.62H97.25V308.75H67v244.31h451.91v36.74H30.25V97.25h36.74v73.62h30.25V97.25H518.9v213.88h30.25V67H97.25V30.25H585.9V522.8Z"></path></svg>