<svg id="Layer_1" data-name="Layer 1" xmlns="http://www.w3.org/2000/svg" viewBox="0 0 628 628">   <path d="M537.12,171.56c-35.62-16.57-64.12-45.06-80.69-80.69C431.48,37.21,377.09,0,314,0s-117.48,37.21-142.44,90.88c-16.57,35.62-45.06,64.12-80.69,80.69C37.21,196.52,0,250.91,0,314s37.21,117.48,90.88,142.44c35.62,16.57,64.12,45.06,80.69,80.69,24.96,53.67,79.35,90.88,142.44,90.88s117.48-37.21,142.44-90.88c16.57-35.62,45.06-64.12,80.69-80.69,53.67-24.96,90.88-79.35,90.88-142.44s-37.21-117.48-90.88-142.44Zm-223.12,375.03c-128.46,0-232.59-104.14-232.59-232.59S185.54,81.41,314,81.41s232.59,104.14,232.59,232.59-104.14,232.59-232.59,232.59Z"></path>   <path d="M421.69,169.84c-13.74-46.48-56.75-80.4-107.69-80.4s-93.95,33.92-107.69,80.4c-5.23,17.68-18.78,31.24-36.47,36.47-46.48,13.74-80.4,56.75-80.4,107.69s33.92,93.95,80.4,107.69c17.68,5.23,31.24,18.78,36.47,36.47,13.74,46.48,56.75,80.4,107.69,80.4s93.95-33.92,107.69-80.4c5.23-17.68,18.78-31.24,36.47-36.47,46.48-13.74,80.4-56.75,80.4-107.69s-33.92-93.95-80.4-107.69c-17.68-5.23-31.24-18.78-36.47-36.47Zm-107.69,295.26c-83.45,0-151.1-67.65-151.1-151.1s67.65-151.1,151.1-151.1,151.1,67.65,151.1,151.1-67.65,151.1-151.1,151.1Z"></path>   <path d="M385.84,254.39c-6.89,1.2-12.72-4.65-11.44-11.54,.71-3.86,1.06-7.84,1.01-11.92-.43-32.24-27.21-59.34-59.44-60.12-34.36-.83-62.47,26.77-62.47,60.94,0,3.51,.3,6.94,.88,10.28,1.19,6.94-4.61,12.83-11.54,11.55-3.85-.71-7.82-1.06-11.89-1-32.24,.43-59.34,27.21-60.12,59.44-.84,34.36,26.77,62.48,60.94,62.48,3.51,0,6.94-.3,10.28-.88,6.94-1.19,12.83,4.61,11.55,11.54-.71,3.85-1.06,7.83-1.01,11.9,.43,32.24,27.21,59.34,59.44,60.12,34.36,.83,62.48-26.77,62.48-60.94,0-3.5-.3-6.93-.87-10.27-1.2-6.97,4.65-12.83,11.61-11.55,3.57,.65,7.25,1,11.01,1,34.1,0,61.66-27.99,60.95-62.25-.66-32.15-27.52-58.99-59.66-59.66-3.99-.08-7.9,.22-11.68,.88Zm-71.84,131.58c-39.75,0-71.97-32.22-71.97-71.97s32.22-71.97,71.97-71.97,71.97,32.22,71.97,71.97-32.22,71.97-71.97,71.97Z"></path> </svg>