<svg xmlns="http://www.w3.org/2000/svg" width="584.9" viewBox="0 0 584.9 619" height="619" style="enable-background:new 0 0 584.9 619" xml:space="preserve"><path d="m193.9 192.7 41.6 41.3 75.9-75.5H159.5z"></path><path d="M471.1 150.9H433v-37.8L319 0h-91.2v75.5h-76V151H75.9v75.5H0v166.1h75.9v75.5h75.9v75.5h76V619h83.5L433 497.6v-37.1h38.7L585 347.3v-83.1L471.1 150.9zm-387.6 234 75.8-75.4H7.5V234h151.9l-75.9-75.5h75.9V83.2h151.9L235.5 7.5h75.9l113.9 113.3L311.4 234h-75.9l37.8 37.6-80.3 79.9-33.6 33.4H83.5zM311.4 536h-75.9l75.8-75.4H159.5v-75.5h151.9l-75.9-75.6h75.9l113.9 113.1L311.4 536zm151.9-151h-75.9l75.8-75.4H311.4v-75.5h151.9l-75.9-75.6h75.9l113.9 113.2L463.3 385z"></path></svg>