<svg xmlns="http://www.w3.org/2000/svg" width="642" viewBox="0 0 642 642" height="642" style="overflow:visible;enable-background:new 0 0 642 642" xml:space="preserve"><path d="M603.6 166.4c-9.4-17.1-20.3-33.3-32.5-48.3h-83.6l42.3-42.3c-12.4-10.6-25.6-20.2-39.5-28.8l-195 195v-22.8L475.9 38.5c-15-8.3-30.8-15.3-47.2-21.1L295.2 150.9v-22.8L411.5 11.9C393.1 6.5 374 2.6 354.4.6l-59.2 59.2V0c-16.5 1.3-32.6 3.8-48.3 7.5v275.8l-16.1-16.1V11.8c-16.7 4.9-32.9 11-48.3 18.4V219l-16.1-16.1V38.4c-17.1 9.4-33.3 20.3-48.3 32.5v83.6l-42.3-42.3c-10.6 12.4-20.2 25.6-28.8 39.5l195 195h-22.8L38.5 166.1c-8.3 15-15.3 30.8-21.1 47.2l133.5 133.5h-22.8L11.9 230.5C6.5 248.9 2.6 268 .6 287.6l59.2 59.2H0c1.3 16.5 3.8 32.6 7.5 48.3h275.8l-16.1 16.1H11.8c4.9 16.7 11 32.9 18.4 48.3H219l-16.1 16.1H38.4c9.4 17.1 20.3 33.3 32.5 48.3h83.6l-42.3 42.2c12.4 10.6 25.6 20.2 39.5 28.8l195.1-195v22.8L166.1 603.4c15 8.3 30.8 15.4 47.2 21.2l133.5-133.5v22.8L230.5 630.1c18.4 5.4 37.5 9.2 57.1 11.3l59.2-59.2V642c16.5-1.3 32.6-3.8 48.3-7.5V358.6l16.1 16.1v255.5c16.7-4.9 32.9-11 48.3-18.4V423.1l16.1 16.1v164.4c17.1-9.4 33.3-20.3 48.3-32.5v-83.6l42.3 42.3c10.6-12.4 20.2-25.6 28.8-39.5l-195-195h22.8L603.5 476c8.3-15 15.3-30.8 21.1-47.2L491.1 295.2h22.8l116.3 116.3c5.4-18.4 9.2-37.5 11.3-57.1l-59.2-59.2H642c-1.3-16.5-3.8-32.6-7.5-48.3H358.6l16.1-16.1h255.5c-4.9-16.7-11-32.9-18.4-48.3H423.1l16.1-16.1h164.4zM343.5 343.5h-45.1v-45.1h45.1v45.1z"></path></svg>