<svg data-name="Layer 1" xmlns="http://www.w3.org/2000/svg" viewBox="0 0 599.5 585.62"><path d="M501.68 49.1C477.01 19.13 439.68 0 397.81 0H201.69c-41.83 0-79.2 19.13-103.87 49.1-7.36 8.96-39.58 40.61-48.72 48.07C19.13 121.5 0 158.55 0 200.15v185.37c0 41.6 19.13 78.74 49.1 103.07 9.19 7.46 41.5 39.06 48.82 47.93 24.62 29.97 61.95 49.1 103.78 49.1h196.11c41.83 0 79.2-19.13 103.87-49.1 7.55-9.14 39.67-41.45 48.72-48.91 29.97-24.62 49.1-61.95 49.1-103.78V200.15c0-41.6-19.13-78.74-49.1-103.07-9.19-7.46-41.41-39.02-48.72-47.97ZM117.8 50.55c22.42-22.42 52.19-34.75 83.89-34.75H397.8c42.11 0 79.11 22.09 100.21 55.29-10.04-2.44-20.54-3.75-31.33-3.75H360.14v368.22l-52.47 49.8V67.34H205.91s-.05.09-.09.19c-39.63 1.83-71.28 34.42-71.28 74.52v293.04C105.56 431.43 83 406.67 83 376.71V134.45c0-31.7 12.33-61.48 34.75-83.89h.05Zm272.46 451.92H312.6l53.83-51.07h82.16c-3.85 28.79-28.51 51.07-58.29 51.07h-.05Zm-239.92-352.5h73.16V435.6h-73.16V149.97Zm82.67-15.8H150.9c3.89-28.75 28.51-50.97 58.29-50.97h77.56l-53.79 50.97h.05ZM449.1 435.65h-73.16V150.44h73.16v285.21ZM15.8 385.52V200.15c0-42.02 22.32-78.88 55.71-99.51-2.81 10.83-4.31 22.18-4.31 33.86v242.26c0 41.27 33.44 74.7 74.7 74.7h81.6v51.07h-90.69c-64.53 0-117-52.47-117-117Zm382 184.29H201.69c-42.11 0-79.16-22.09-100.21-55.29 10.04 2.44 20.54 3.75 31.33 3.75h106.54v-368.3l52.52-49.8v402.3h-.09v15.8h98.48c41.27 0 74.7-33.44 74.7-74.7V150.91c28.98 3.66 51.54 28.42 51.54 58.38v241.88c0 65.42-53.23 118.64-118.64 118.64h-.05Zm185.89-185.98c0 42.2-22.18 79.3-55.48 100.35 2.67-10.55 4.08-21.62 4.08-33.01V209.29c0-41.27-33.44-74.7-74.7-74.7h-81.6V83.15h90.74c64.53 0 117 52.47 117 117v183.69h-.05Z"></path></svg>