<svg xmlns="http://www.w3.org/2000/svg" width="576" viewBox="0 0 576 540.2" height="540.2"><path d="M537.6 237.3l-.1-.7C512.9 37.6 284.9-66.2 118.7 46.2c-158.3 106.4-158.3 341.4 0 447.7C286 607 515.4 501.1 537.9 300.5H576v-63.3h-38.4zm-60.7 63.9C451.3 470 243.1 537.8 121.5 419.1c-28-27.6-47-65.8-44.7-106 1.9-34.1 19.5-68.3 52.3-81.4 21.5-8.6 48.1-5.9 65.8 9.4 19.1 15.3 24.9 46.7 6.5 64.8-8 7.9-20.7 11.7-30.9 6.9-10.2-4.7-15.4-19.1-8.7-28.1-15.8 8.3-20.9 30.7-13 46.7 7.9 16 26 25.5 43.8 26.5 71.7 2.7 96-90.5 60.2-142.1-38.6-60-124.3-67.1-178.2-23.3C156.8-4.9 440.1 26.9 476.8 237.1c-.4.1-.8.1-1.2.1 0 0-67.5-.1-70.8 0-23.1.4-48.6.9-69.4 12.7-35.6 20.2-50.8 63.6-81.2 91-14.2 12.9-32.2 22.2-51.4 23.6-41 4.2-77.9-36.6-53.9-74.5 7-9.7 19.7-16.1 31.2-12.8 11.5 3.4 18.7 18.6 11.8 28.4 22.1-10 21.3-41.2 5.1-56.5-17-18-46.5-21-68.6-10-37.1 18.4-49.1 63.1-41 101.1 10.3 51.1 60.7 88.6 112.4 87.5 37-.3 75.6-17.5 101.1-43.4 19.7-20.6 35.4-44.7 52.5-67.4 9-12 22.5-16.5 37.5-16.5H477l-.1.8z"></path></svg>