<svg xmlns="http://www.w3.org/2000/svg" width="586.7" viewBox="0 0 586.7 586.7" height="586.7"><path class="st0" d="M294.5 177.7c-63.2-.7-115 50.6-116.3 115.2-1.3 62.1 50.9 115.6 113.1 116.1 65.2.6 117.1-50.8 117.2-116 .1-62.6-51.3-114.6-114-115.3z"></path><path class="st0" d="M293.3 0C131.3 0 0 131.3 0 293.3s131.3 293.3 293.3 293.3 293.3-131.3 293.3-293.3S455.3 0 293.3 0zm218 275.4c-33.1 29.8-60.2 63.1-81.5 99.7 0 0-.1.1-.1.2s-.1.1-.1.2c-21.2 36.7-36.7 76.8-46.1 120.3-2.7 12.7-3.5 20.3-8.3 31.8-12.3 33.6-43.9 57.2-81.8 57.7-37.9-.5-69.5-24.1-81.8-57.7-4.8-11.4-5.5-19.1-8.3-31.8-9.4-43.5-24.9-83.6-46.1-120.3 0-.1-.1-.1-.1-.2s-.1-.1-.1-.2c-21.4-36.6-48.4-70-81.5-99.7-9.7-8.7-18.4-18-25.9-27.9-22.4-27-27.6-66.9-9.6-98.8 18.2-32.2 52.7-48.6 86.9-44.6h.3c12.6 1.7 24.7 5.6 36.7 9.5 42.3 13.7 84.8 20.4 127.2 20.5h5c42.4-.1 84.8-6.8 127.2-20.5 12-3.9 24.1-7.8 36.7-9.5h.3c34.2-4 68.7 12.3 86.9 44.6 18 31.9 12.8 71.8-9.6 98.8-7.9 9.9-16.7 19.2-26.3 27.9z"></path></svg>