<svg id="Layer_1" data-name="Layer 1" xmlns="http://www.w3.org/2000/svg" viewBox="0 0 543.4 624.95">   <polygon points="309.73 133.88 156.52 221.91 156.24 312.34 208.13 342.62 208.56 250.62 309.47 193 416.3 255.78 415.01 460.09 228.87 565.48 0 431.01 0 489.93 228.87 624.95 464.45 491.07 465.79 223.91 309.73 133.88"></polygon>   <polygon points="309.73 43.91 78.99 175.54 78.99 357.12 228.87 445.15 309.46 400.42 309.79 342.32 228.87 387.22 130.76 327.45 131.41 203.32 309.73 102.88 493.07 210.16 491.87 475.49 543.4 446.2 543.4 181.76 309.73 43.91"></polygon>   <polygon points="309.73 222.97 256.89 253.27 336.75 301.06 336.33 416.79 228.87 477.12 52.9 372 53.85 158.63 283.21 28.3 235.29 0 1.54 132.22 0 400.03 228.87 535.51 387.59 445.24 388.6 269.41 309.73 222.97"></polygon> </svg>