<svg xmlns="http://www.w3.org/2000/svg" width="616.9" viewBox="0 0 616.9 531" height="531" xml:space="preserve" style="enable-background:new 0 0 616.9 531"><path d="M385.9 327.9c-.1-43.4-35.4-78.5-78.8-78.4-43.4.1-78.5 35.4-78.4 78.8.1 43.4 35.4 78.5 78.8 78.4 43.4-.1 78.6-35.4 78.4-78.8z"></path><path d="M616.9 0H0v46c.1 39.9 15.4 76.2 40.3 103.5 28.3 31.1 88.6 48.2 133.9 48.1h132.4c72.1-.2 130.6 58.1 130.8 130.2.2 72.1-58.1 130.6-130.2 130.8-72.1.2-130.6-58.1-130.8-130.2-.1-29.9 9.9-57.4 26.7-79.5H0v282h616.9V0z"></path></svg>