<svg data-name="Layer 1" xmlns="http://www.w3.org/2000/svg" viewBox="0 0 600.78 600.78"><path d="m451.11 150.72-8.1 8.1.53-15.66-11.2-11.2 1.22 36.31-6.39 6.39 1.56-46.31-12.23-12.23 2.25 66.96-7.42 7.42 2.59-76.95-13.26-13.26 3.28 97.6-8.45 8.45 3.62-107.6L300.39 0l-98.73 98.73 3.62 107.6 2.45 2.45-10.9-10.9 3.28-97.6-13.26 13.26 2.59 76.95-7.42-7.42 2.25-66.96-12.23 12.23 1.56 46.31-6.39-6.39 1.22-36.31-11.2 11.2.53 15.66-8.1-8.1L0 300.39l108.29 108.29.13-3.99c.03-.85 1.29-.85 1.32 0l.19 5.63 13.17 13.17.63-18.79c.03-.85 1.29-.85 1.32 0l.72 21.46 12.14 12.14 1.13-33.6c.03-.85 1.29-.85 1.32 0l1.25 37.3 11.11 11.11 1.63-48.41c.03-.85 1.29-.85 1.32 0l1.79 53.14 10.07 10.07 2.13-63.21c.03-.85 1.29-.85 1.32 0l2.32 68.98 9.04 9.04 2.62-78.02c.03-.85 1.29-.85 1.32 0l2.85 84.81 8.01 8.01 3.12-92.83c.03-.85 1.29-.85 1.32 0l3.39 100.65 6.98 6.98 3.62-107.63c.03-.85 1.29-.85 1.32 0l3.92 116.49 5.95 5.95 4.12-122.44c.03-.85 1.29-.85 1.32 0l4.45 132.33 4.92 4.92 4.62-137.25c.03-.85 1.29-.85 1.32 0l4.98 148.16 3.89 3.89 5.11-152.05c.03-.85 1.29-.85 1.32 0l5.52 164 2.86 2.86 5.61-166.86c.03-.85 1.29-.85 1.32 0l6.05 179.84 1.83 1.83 6.11-181.67c.03-.85 1.29-.85 1.32 0l6.58 195.68.41.41.41-.41 6.58-195.68c.03-.85 1.29-.85 1.32 0l6.11 181.67 1.83-1.83 6.05-179.84c.03-.85 1.29-.85 1.32 0l5.61 166.86 2.86-2.86 5.52-164c.03-.85 1.29-.85 1.32 0l5.11 152.05 3.89-3.89 4.98-148.16c.03-.85 1.29-.85 1.32 0l4.62 137.25 4.92-4.92 4.45-132.33c.03-.85 1.29-.85 1.32 0l4.12 122.44 5.95-5.95 3.92-116.49c.03-.85 1.29-.85 1.32 0l3.62 107.63 6.98-6.98 3.39-100.65c.03-.85 1.29-.85 1.32 0l3.12 92.83 8.01-8.01 2.85-84.81c.03-.85 1.29-.85 1.32 0l2.62 78.02 9.04-9.04 2.32-68.98c.03-.85 1.29-.85 1.32 0l2.13 63.21 10.07-10.07 1.79-53.14c.03-.85 1.29-.85 1.32 0l1.63 48.41L459.23 442l1.25-37.3c.03-.85 1.29-.85 1.32 0l1.13 33.6 12.14-12.14.72-21.46c.03-.85 1.29-.85 1.32 0l.63 18.79 13.17-13.17.19-5.63c.03-.85 1.29-.85 1.32 0l.13 3.99 108.29-108.29-149.67-149.67Zm-239.48 61.97 3.92-116.61c.03-.85 1.29-.85 1.32 0l4.24 126.09-9.48-9.48Zm14.81 14.81 4.42-131.41c.03-.85 1.29-.85 1.32 0l4.77 141.92-10.51-10.51Zm14.81 14.81 4.92-146.22c.03-.85 1.29-.85 1.32 0l5.31 157.76 2.28 2.28-13.82-13.82Zm14.81 14.81 5.42-161.03c.03-.85 1.29-.85 1.32 0l5.84 173.6-12.57-12.57Zm14.81 14.81 5.91-175.83c.03-.85 1.29-.85 1.32 0l6.37 189.44-13.6-13.6Zm29.53 29.53-15.8-15.8 1.08 1.08 6.41-190.64c.03-.85 1.29-.85 1.32 0l6.9 205.27.09.09.09-.09 6.9-205.27c.03-.85 1.29-.85 1.32 0l6.41 190.64 1.08-1.08-15.8 15.8Zm15.93-15.93 6.37-189.44c.03-.85 1.29-.85 1.32 0l5.91 175.83 1.77-1.77-15.37 15.37Zm15.84-15.84 5.84-173.6c.03-.85 1.29-.85 1.32 0l5.42 161.03-12.57 12.57Zm13.55-13.55 2.28-2.28 5.31-157.76c.03-.85 1.29-.85 1.32 0l4.92 146.22-13.82 13.82Zm18.12-18.12 4.77-141.92c.03-.85 1.29-.85 1.32 0l4.42 131.41-10.51 10.51Zm15.84-15.84 4.24-126.09c.03-.85 1.29-.85 1.32 0l3.92 116.61-9.48 9.48Z"></path></svg>