<svg xmlns="http://www.w3.org/2000/svg" width="590.2" viewBox="0 0 590.2 553.1" height="553.1" xml:space="preserve" style="enable-background:new 0 0 590.2 553.1"><path d="M467.2 125.2v281.6c0 13.3-9.9 24.5-23.1 26.1-36 4.4-85.9 8.4-149 8.6-63-.2-113-4.2-149-8.6-13.2-1.6-23.1-12.8-23.1-26.1V172.2c.6-35.5 25.5-56.2 25.5-56.2 36.8-32.7 95.9-64.9 95.9-64.9 11.6-6.2 16.2-3.6 18 .6 1.7 3.1.3 10.8-1.3 14.9-35.4 96.7-53 206.6-54.3 221.3-1.4 15.4 9 20.9 9 20.9 6 4.2 15.5 7.6 22.1 9.6h-.1s-61.2 27.1-91.1 70.4c0 0-10.9 14.2-.5 21.8.8.5 2.8 1.8 5.2 2.6 4 1.4 10.4 3 20.8 3.9 86.3 7.2 158.9 7.3 245.6 0 10.3-.9 16.8-2.5 20.8-3.9 2.5-.8 4.5-2.1 5.2-2.6 10.3-7.6-.5-21.8-.5-21.8-29.9-43.3-91.1-70.4-91.1-70.4h-.1c6.7-2.1 16.2-5.5 22.1-9.6 0 0 10.4-5.4 9-20.9-1.4-15-19.5-128.5-56.2-226.4v-.1c0-.1-.1-.1-.1-.2-.3-.8-.6-1.6-.9-2.3h-.1c-11.8-30.6-23.6-44-23.6-44-21.2-26.9-61-8.8-61-8.8-120.2 51.8-218.2 132-218.2 132C-1.2 154.1 0 196.2 0 196.2v250.3c0 42.7 30.4 79.4 72.4 87.3C121.1 543 194 552.4 289.6 553v.1h11v-.1c95.6-.7 168.5-10.1 217.2-19.2 42-7.9 72.4-44.6 72.4-87.3V125.2h-123z"></path></svg>