<svg data-name="Layer 1" xmlns="http://www.w3.org/2000/svg" viewBox="0 0 623.79 623.79"><path d="M623.79 56.45V0H310.48l-56.45 56.45v28.23H225.8l-56.45 56.45v28.23h-28.23l-56.45 56.45v28.23H56.44L0 310.48v313.31h56.45V310.48h28.23v313.31h56.45V310.48h28.23v313.31h56.45V310.48h28.23v313.31h56.45V310.48H623.8v-56.45H310.48V225.8h313.31v-56.45H310.48v-28.23h313.31V84.67H310.48V56.44h313.31ZM141.13 254.03V225.8h28.23v28.23h-28.23Zm112.9 0H225.8V225.8h28.23v28.23Zm0-84.68H225.8v-28.23h28.23v28.23Z"></path><rect x="340.12" y="340.12" width="283.67" viewBox="0 0 283.67 283.67" height="283.67" rx="141.83" ry="141.83"></rect></svg>