<svg xmlns="http://www.w3.org/2000/svg" width="613.6" viewBox="0 0 613.6 405.9" height="405.9"><path d="M377.3 268l-138-138H196l138 138-138 137.9h43.3z"></path><path d="M280.6 268l-138-138H99.3l137.9 138L99.3 405.9h43.3z"></path><path d="M50.9 130l138 138-138 137.9h43.3l138-137.9-138-138z"></path><path d="M328.9 268l-138-138h-43.3l138 138-138 137.9h43.3z"></path><path d="M429.1 0c28.2 7.5 49.1 33.3 49.1 63.9 0 36.5-29.6 66.1-66.1 66.1H292.7l138 138-138 138h117.4c112.3 0 203.4-91.1 203.4-203.4.1-106-80.9-193.1-184.4-202.6zm83.5 114.9c-8.8 0-16-7.2-16-16s7.2-16 16-16 16 7.2 16 16-7.1 16-16 16zM45.8 405.9l138-137.9-138-138H0l138 138L0 405.9z"></path><path d="M425.7 268l-138-138h-43.3l137.9 138-137.9 137.9h43.3z"></path></svg>