<svg data-name="Layer 1" xmlns="http://www.w3.org/2000/svg" viewBox="0 0 629.98 511.21"><path d="M315.03 377.95c-45.35-22.04-76.61-68.54-76.61-122.35s31.26-100.31 76.61-122.35H149.91c-14.91 27.29-24.98 57.59-29.08 89.76v-89.76H0v244.69h120.83v-89.76c4.1 32.17 14.17 62.47 29.08 89.76h165.12Z"></path><path d="M374.37 0C283.18 0 203.2 47.79 157.96 119.65h216.41c75.09 0 135.96 60.87 135.96 135.96s-60.87 135.96-135.96 135.96H157.96c45.24 71.86 125.22 119.65 216.41 119.65 141.17 0 255.61-114.44 255.61-255.61S515.54 0 374.37 0Z"></path></svg>