<svg data-name="Layer 1" xmlns="http://www.w3.org/2000/svg" viewBox="0 0 553.14 610.58"><path d="m250.61 106.11-.11-.18.11.18zM302.54 504.47l.11.17-.11-.17zM462.31 321.53l-27.48-.08h-26.96l-9.37-16.2 9.36-16.21h26.96v-.08h28.41l.23-.01c31.81-.52 61.47-18 77.4-45.62 12.12-21.03 15.34-45.52 9.04-68.96-6.29-23.44-21.34-43.03-42.37-55.16-43.13-24.87-98.78-9.95-124.14 33.36l-27.11 47.14h-18.76l-9.38-16.24 27.99-48.08c15.5-27.79 15.24-62.22-.67-89.84-12.11-21.04-31.69-36.09-55.13-42.4-23.43-6.29-47.93-3.1-68.97 9.01-43.12 24.84-58.12 80.47-33.43 124.03L225 183.47l-9.38 16.24h-18.76l-27.69-47.96-.11-.19c-16.34-27.31-46.3-44.27-78.19-44.27-50.1 0-90.87 40.77-90.87 90.88s40.49 90.28 90.34 90.85v.02h54.95l9.38 16.24-9.38 16.24-55.59.09c-31.82.52-61.48 18-77.41 45.62-25.03 43.4-10.08 99.09 33.32 124.12 43.12 24.85 98.77 9.95 124.15-33.37l27.11-47.14h18.76l9.38 16.25-27.98 48.07c-15.5 27.78-15.25 62.21.66 89.83 12.11 21.04 31.7 36.1 55.13 42.41 7.86 2.11 15.84 3.16 23.76 3.16h.44c15.78 0 31.35-4.15 45.36-12.26 43.08-24.92 57.96-80.59 33.18-124.09l-.33.19s-.01-.02-.02-.03l-27.07-47.28 9.38-16.25h18.76l27.8 48.16c16.35 27.3 46.31 44.26 78.19 44.26 50.1 0 90.87-40.77 90.87-90.87s-40.72-90.53-90.83-90.88Zm-54.32-154.71c17.43-29.76 55.72-40.07 85.35-22.99 14.45 8.34 24.79 21.8 29.12 37.91 4.33 16.11 2.12 32.94-6.22 47.39-10.96 19-31.34 31.03-53.21 31.39l-38.71.02 18.69-32.37h19.04c16.51-.11 29.89-13.38 29.89-29.89s-13.38-29.89-29.89-29.89c-10.91 0-20.51 5.84-25.73 14.56l-9.68 16.76h-37.59l18.93-32.89Zm-35.29 61.32h37.51l-18.72 32.43h-.06l-.04.06h-18.7l-9.38-16.25 9.38-16.24Zm-42.2 16.24-9.38 16.25h-18.76l-9.38-16.25 9.38-16.24h18.76l9.38 16.24Zm-53.92 215.21-18.76-32.49 9.38-16.25h18.76l9.38 16.25-18.75 32.49Zm-9.38-138.06-9.38-16.24 9.38-16.24h18.76l9.38 16.24-9.38 16.24H267.2Zm9.38-170.54 18.75 32.49-9.38 16.24h-18.76l-9.38-16.24 18.76-32.49Zm-53.93-28.82c-17-30-6.73-68.3 22.9-85.37 14.45-8.32 31.3-10.52 47.4-6.19 16.11 4.34 29.57 14.68 37.89 29.14 10.95 19.01 11.14 42.7.63 61.54l-19.67 33.86-18.82-32.61 9.67-16.75c4.94-8.88 5.2-20.12-.25-29.57-8.26-14.3-26.54-19.19-40.83-10.94-14.3 8.26-19.09 26.48-10.94 40.83l9.53 16.5-18.68 32.35-18.81-32.79Zm9.38 105.97h18.76l9.38 16.24-9.38 16.25h-18.76l-9.38-16.25 9.38-16.24ZM90.98 260.63c-34.49-.24-62.55-28.26-62.55-62.46s28.02-62.45 62.45-62.45c21.95 0 42.56 11.66 53.79 30.44l19.38 33.56h-37.53l-9.68-16.76c-5.22-8.72-14.83-14.56-25.73-14.56-16.51 0-29.89 13.38-29.89 29.89s13.38 29.78 29.89 29.89h19.04l18.73 32.45H90.97Zm51.97-32.49h37.51l9.38 16.24-9.38 16.25h-18.75l-18.76-32.49Zm2.22 215.62c-17.44 29.76-55.73 40.08-85.35 22.99-29.83-17.2-40.1-55.47-22.9-85.3 10.96-19.01 31.36-31.05 53.06-31.4l38.88-.05-18.71 32.41H91.11c-16.51.11-29.89 13.38-29.89 29.89s13.38 29.89 29.89 29.89c10.91 0 20.51-5.84 25.73-14.56l9.68-16.76h37.58l-18.93 32.9Zm35.29-61.32h-37.51l18.76-32.49h18.75l9.38 16.24-9.38 16.24Zm16.41-60.91-9.38-16.24 9.38-16.24h18.76l9.38 16.24-9.38 16.24h-18.76Zm25.79 44.66 9.38-16.24h18.76l9.38 16.24-9.38 16.24h-18.76l-9.38-16.24ZM330.51 488.4c17.01 30.01 6.73 68.31-22.9 85.38-8.97 5.16-18.86 7.96-28.92 8.31-5.96.16-11.98-.52-17.9-2.09-16.11-4.3-29.59-14.62-37.95-29.06-11-19-11.22-42.68-.61-61.81l-.33-.18 19.48-33.52 18.83 32.61-9.67 16.75c-4.94 8.88-5.2 20.12.25 29.57 8.26 14.3 26.54 19.19 40.83 10.94 14.3-8.26 19.09-26.48 10.94-40.83l-9.53-16.5 18.67-32.34 18.81 32.79Zm-9.38-105.97h-18.76l-9.38-16.24 9.38-16.24h18.76l9.38 16.24-9.38 16.24Zm16.41-60.91-9.38-16.24 9.38-16.24h18.76l9.38 16.24-9.38 16.24h-18.76Zm35.17 60.91-9.38-16.24 9.38-16.24h18.76l18.76 32.49h-37.51Zm89.58 92.42c-21.94 0-42.56-11.66-53.69-30.25l-19.49-33.75h37.54l9.68 16.76c5.22 8.72 14.83 14.56 25.73 14.56 16.51 0 29.89-13.38 29.89-29.89s-13.38-29.78-29.89-29.89h-19.04l-18.73-32.45h10.55v-.08l27.35.08c34.49.24 62.55 28.26 62.55 62.46s-28.02 62.45-62.45 62.45Z"></path></svg>