<svg xmlns="http://www.w3.org/2000/svg" id="a" width="642" viewBox="0 0 642 642" height="642" data-name="Layer 1"><defs></defs><path d="M308.16 141.24c0 21.44-13.1 39.8-31.71 47.44v90.97h-94.18a51.218 51.218 0 0 1-47.44 31.71c-28.38 0-51.36-22.98-51.36-51.36s22.98-51.36 51.36-51.36c21.44 0 39.8 13.1 47.44 31.71h54.89v-51.68a51.218 51.218 0 0 1-31.71-47.44c0-28.38 22.98-51.36 51.36-51.36s51.36 22.98 51.36 51.36ZM308.16 500.76c0-21.44-13.1-39.8-31.71-47.44v-90.97h-94.18a51.218 51.218 0 0 0-47.44-31.71c-28.38 0-51.36 22.98-51.36 51.36s22.98 51.36 51.36 51.36c21.44 0 39.8-13.1 47.44-31.71h54.89v51.68a51.218 51.218 0 0 0-31.71 47.44c0 28.38 22.98 51.36 51.36 51.36s51.36-22.98 51.36-51.36ZM333.84 141.24c0 21.44 13.1 39.8 31.71 47.44v90.97h94.18c7.64 18.62 26 31.71 47.44 31.71 28.38 0 51.36-22.98 51.36-51.36s-22.98-51.36-51.36-51.36c-21.44 0-39.8 13.1-47.44 31.71h-54.89v-51.68c18.62-7.64 31.71-26 31.71-47.44 0-28.38-22.98-51.36-51.36-51.36s-51.36 22.98-51.36 51.36ZM333.84 500.76c0-21.44 13.1-39.8 31.71-47.44v-90.97h94.18c7.64-18.62 26-31.71 47.44-31.71 28.38 0 51.36 22.98 51.36 51.36s-22.98 51.36-51.36 51.36c-21.44 0-39.8-13.1-47.44-31.71h-54.89v51.68c18.62 7.64 31.71 26 31.71 47.44 0 28.38-22.98 51.36-51.36 51.36s-51.36-22.98-51.36-51.36Z" class="b"></path><path d="M642 321c0 177.28-143.72 321-321 321S0 498.28 0 321 143.72 0 321 0s321 143.72 321 321ZM321 32.1C161.44 32.1 32.1 161.44 32.1 321S161.44 609.9 321 609.9 609.9 480.56 609.9 321 480.56 32.1 321 32.1Z" class="b"></path></svg>