<svg xmlns="http://www.w3.org/2000/svg" width="642" viewBox="0 0 642 472.29" height="472.29" data-name="Layer 1"><path d="M609.9 236.14 406.75 472.28 642 236.14 406.75 0 173.34 236.14l111.73 142.3c-.38.33-.22.19-.6.53L146.55 236.15 350.91 0 117.16 236.14l144.2 165.79-.58.55L91.49 236.14 293.09 0 61.03 236.14 239.08 428.6c-.37.36-.2.2-.57.57L32.1 236.14 235.25 0 0 236.14l235.25 236.14 233.41-236.14-111.73-142.3c.38-.33.22-.19.6-.53l137.92 142.82-204.37 236.14 233.75-236.14-144.2-165.79.58-.55L550.5 236.13 348.89 472.27l232.06-236.14L402.92 43.68c.37-.36.2-.2.57-.57l206.42 193.03Zm-169.37 0L321 373.64l-119.53-137.5L321 98.64l119.53 137.5Z"></path></svg>