<svg data-name="Layer 1" xmlns="http://www.w3.org/2000/svg" viewBox="0 0 607.14 468.21"><path d="M509.99 145.25 243.23 16.86c-40.81-19.64-86.84-22.21-129.6-7.25-42.75 14.97-77.12 45.7-96.76 86.52-19.65 40.82-22.22 86.84-7.25 129.6 14.97 42.76 45.7 77.12 86.52 96.77l68.24 32.84v112.87h273.13c93.54 0 169.63-76.1 169.63-169.63 0-67.62-39.78-126.1-97.15-153.33ZM103.35 307.5c-36.81-17.71-64.52-48.71-78.03-87.27-13.5-38.56-11.18-80.07 6.54-116.88 17.72-36.82 48.71-64.53 87.27-78.03 38.56-13.51 80.07-11.18 116.89 6.54l201.74 97.09H164.38v207.93l-61.03-29.37Zm260.93-161.92c-56.98 27.38-96.41 85.67-96.41 153 0 40.14 14.04 77.04 37.43 106.12l-124.29-59.82v-199.3h183.27ZM181.02 451.57v-88.23l182.08 87.63c.4.19.79.4 1.19.59H181.02Zm256.49 0c-23.76 0-46.26-5.44-66.34-15.15v-.03l-.97-.47c-50.7-24.95-85.67-77.13-85.67-137.35 0-84.36 68.63-153 152.99-153 23.28 0 45.35 5.25 65.13 14.59l1.21.58v-.02c51.24 24.76 86.66 77.24 86.66 137.85 0 84.36-68.63 153-153 153Z"></path></svg>