<svg id="Layer_1" data-name="Layer 1" xmlns="http://www.w3.org/2000/svg" viewBox="0 0 492.16 614.88">   <path d="M423.97,126.71c-18.73,0-36.21,7.51-49.25,21.16h-81.6v-30.43c13.64-13.03,21.16-30.51,21.16-49.24C314.27,30.59,283.68,0,246.08,0s-68.19,30.59-68.19,68.19c0,18.74,7.51,36.21,21.16,49.25v30.42H117.43c-13.03-13.64-30.51-21.16-49.24-21.16C30.59,126.71,0,157.3,0,194.9s30.59,68.19,68.19,68.19c18.73,0,36.21-7.51,49.24-21.16h81.61v35.08l-98.36,98.35-.22,.22v120.54c-14.37,12.96-22.6,31.38-22.6,50.57,0,37.6,30.59,68.19,68.19,68.19s68.19-30.59,68.19-68.19c0-19.19-8.23-37.61-22.6-50.57v-82.78l54.43-54.43,54.43,54.43v82.78c-14.37,12.96-22.6,31.38-22.6,50.57,0,37.6,30.59,68.19,68.19,68.19s68.19-30.59,68.19-68.19c0-19.19-8.23-37.61-22.6-50.57v-120.54l-98.58-98.58v-35.08h81.6c13.04,13.64,30.52,21.16,49.25,21.16,37.6,0,68.19-30.59,68.19-68.19s-30.59-68.19-68.19-68.19Zm33.47,68.19c0,18.45-15.01,33.46-33.47,33.46s-33.47-15.01-33.47-33.46,15.01-33.47,33.47-33.47,33.47,15.01,33.47,33.47Zm-101.66,0c0,4.06,.38,8.19,1.13,12.3h-98.52v84.19l98.58,98.58v89.47c-7.69-1.26-14.05-1.26-21.73,0v-80.47l-88.62-88.62-.54-.53-88.94,88.93-.22,.22v80.47c-3.85-.63-7.41-.94-10.86-.94s-7.02,.31-10.86,.94v-89.47l98.36-98.35,.22-.22v-84.19h-98.53c.75-4.1,1.14-8.23,1.14-12.3s-.38-8.21-1.14-12.31h98.53v-47.34c8.2,1.5,16.37,1.5,24.61,0v47.34h98.52c-.75,4.11-1.13,8.25-1.13,12.31ZM212.62,68.19c0-18.45,15.01-33.47,33.46-33.47s33.47,15.01,33.47,33.47-15.01,33.47-33.47,33.47-33.46-15.01-33.46-33.47Zm-66.56,445.04c18.45,0,33.47,15.01,33.47,33.47s-15.01,33.46-33.47,33.46-33.47-15.01-33.47-33.46,15.01-33.47,33.47-33.47Zm200.04,0c18.45,0,33.47,15.01,33.47,33.47s-15.01,33.46-33.47,33.46-33.47-15.01-33.47-33.46,15.01-33.47,33.47-33.47ZM101.66,194.9c0,18.45-15.01,33.46-33.47,33.46s-33.47-15.01-33.47-33.46,15.01-33.47,33.47-33.47,33.47,15.01,33.47,33.47Z"></path> </svg>