<svg xmlns="http://www.w3.org/2000/svg" width="607.9" viewBox="0 0 607.9 579.3" height="579.3" xml:space="preserve" style="enable-background:new 0 0 607.9 579.3"><path d="M591.1 49.4C572.7 34 543 36.6 512.8 53.2v180.5c18.6-10.2 37.4-25.6 53.9-45.4 43.2-52 54.2-114.1 24.4-138.9zM41.2 381.2c-43.3 52-54.2 114.1-24.5 138.9 18.4 15.3 48.1 12.7 78.3-3.8V335.8c-18.6 10.2-37.3 25.7-53.8 45.4zM95 335.8c30.2-16.5 59.9-19.1 78.3-3.8 29.7 24.8 18.8 86.9-24.4 138.9-16.5 19.8-35.3 35.2-53.9 45.4v62.9h190.5V383.4c-23.5 8.5-45.2 7.6-59.9-4.6-29.7-24.8-18.8-86.9 24.4-138.9 11-13.3 23.1-24.5 35.5-33.6V0H95v335.8zM434.5 237.4c-29.7-24.8-18.8-86.9 24.4-138.9 16.5-19.8 35.3-35.2 53.9-45.4V0H322.3v186.1c23.5-8.5 45.2-7.6 59.9 4.6 29.7 24.8 18.8 86.9-24.4 138.9-11 13.3-23.1 24.5-35.5 33.6v216.1h190.5V233.7c-30.2 16.5-59.8 19.1-78.3 3.7z"></path></svg>