<svg data-name="Layer 1" xmlns="http://www.w3.org/2000/svg" viewBox="0 0 597.67 597.67"><path d="M298.83 0C133.79 0 0 133.79 0 298.83s133.79 298.83 298.83 298.83 298.83-133.79 298.83-298.83S463.88 0 298.83 0ZM162.06 44.43c17.55-17.55 46.28-17.55 63.83 0l69.59 69.59 69.59-69.59c17.56-17.55 46.28-17.55 63.84 0 17.55 17.55 17.55 46.28 0 63.83l-69.59 69.59-63.84 63.83-63.83-63.83-69.59-69.59c-17.55-17.55-17.55-46.28 0-63.83Zm-81.93 62.79c17.55-17.55 46.28-17.55 63.83 0l151.52 151.52L447 107.22c17.55-17.55 46.28-17.55 63.83 0 17.55 17.55 17.55 46.28 0 63.83L295.48 386.4 80.13 171.06c-17.55-17.55-17.55-46.28 0-63.83Zm285.51 417.95c-.32 35.6-29.52 64.64-65.19 64.64h-.79c-35.87 0-65.22-29.35-65.22-65.22v-54.51L27.85 263.49c-17.55-17.55-17.55-46.28 0-63.83 17.55-17.55 46.28-17.55 63.83 0l228.98 228.98 45.01 45.11c0 15.67-.02 51.27-.03 51.43Zm2.2-66.4L304 394.94l195.28-195.28c17.55-17.55 46.28-17.55 63.83 0 17.55 17.55 17.55 46.28 0 63.83L367.84 458.77Z"></path></svg>