<svg data-name="Layer 1" xmlns="http://www.w3.org/2000/svg" viewBox="0 0 622.89 622.89"><path d="M311.44 239.63c-39.66 0-71.81 32.15-71.81 71.81s32.15 71.81 71.81 71.81 71.81-32.15 71.81-71.81-32.15-71.81-71.81-71.81Z"></path><circle cx="115.18" cy="507.7" r="74.87"></circle><circle cx="311.95" cy="507.7" r="74.87"></circle><circle cx="508.21" cy="507.19" r="74.87"></circle><path d="M587.35 197.28c21.55-20.78 35.03-49.87 35.03-82.1V0H197.79v35.03C177.02 13.48 147.92 0 115.7 0H.51L0 425.61h36.05C14.5 446.38 1.02 475.47 1.02 507.7v115.19h425.09V587.4c20.74 21.23 49.63 34.47 81.59 34.47h115.19V197.28h-35.54ZM426.12 32.06h164.19v83.13c0 45.27-36.83 82.1-82.1 82.1s-82.1-36.83-82.1-82.1V32.06Zm-196.26 0h164.19v83.13c0 45.27-36.83 82.1-82.1 82.1s-82.1-36.83-82.1-82.1V32.06Zm-197.28 0h83.12c45.27 0 82.1 36.83 82.1 82.1s-36.83 82.1-82.1 82.1H32.58V32.06Zm-.51 361.48V229.35h83.12c45.27 0 82.1 36.82 82.1 82.09s-36.83 82.1-82.1 82.1H32.06Zm165.22 197.28H33.09V507.7c0-45.27 36.83-82.1 82.1-82.1s82.1 36.83 82.1 82.1v83.12Zm196.77 0h-164.2V507.7c0-45.27 36.83-82.1 82.1-82.1s79.22 34.14 81.84 77.06c-.07 1.68-.26 3.34-.26 5.04 0 3.4.22 6.75.51 10.07v73.05Zm-82.1-197.28c-41.92 0-78.53 22.78-98.38 56.54-9.81-16.68-23.71-30.63-40.34-40.51 33.53-19.91 56.12-56.39 56.12-98.13s-22.85-78.65-56.7-98.48c16.81-9.73 30.87-23.61 40.87-40.24 19.84 33.81 56.48 56.63 98.44 56.63s78.22-22.59 98.13-56.12c9.74 16.41 23.45 30.15 39.83 39.93-33.67 19.87-56.38 56.43-56.38 98.28s22.59 78.22 56.12 98.13c-16.35 9.71-30.05 23.36-39.83 39.67-19.96-33.29-56.31-55.7-97.87-55.7ZM590.83 589.8h-83.12c-42.24 0-77.11-32.08-81.59-73.15v-8.94c0-1.7-.18-3.35-.26-5.04 2.62-42.91 38.27-77.05 81.83-77.06h83.14V589.8Zm0-196.26H507.7c-45.26 0-82.08-36.83-82.08-82.1s36.83-82.09 82.1-82.09h83.12v164.19Z"></path><circle cx="508.21" cy="310.93" r="74.87"></circle><circle cx="507.7" cy="114.67" r="74.87"></circle><circle cx="311.44" cy="114.67" r="74.87"></circle><circle cx="115.18" cy="114.68" r="74.87" transform="rotate(-67.5 115.1867536 114.67587239)"></circle><circle cx="114.67" cy="311.96" r="74.87" transform="rotate(-9.22 114.65464595 311.88052822)"></circle></svg>