<svg xmlns="http://www.w3.org/2000/svg" width="511.9" viewBox="0 0 511.9 608.3" height="608.3" xml:space="preserve"><path d="M426.5 367.6V240.7c49.5-15.7 85.4-62.4 85.4-117.6C511.9 55.1 457.4 0 390.1 0 323 0 268.6 54.9 268.4 122.7h82.2c.7-21.9 18.7-39.4 40.8-39.4 22.6 0 40.8 18.3 40.8 40.8 0 22.5-18.3 40.8-40.8 40.8h-40.7v280.4l39.5.1c.4 0 .8-.1 1.2-.1 22.6 0 40.8 18.3 40.8 40.8 0 22.5-18.3 40.8-40.8 40.8-19.5 0-35.8-13.7-39.9-32L239.1 90.3C224.9 38.3 177.8 0 121.8 0 54.5 0 0 55.1 0 123.2c0 55.2 35.9 101.9 85.4 117.6v126.8C35.9 383.2 0 429.9 0 485.1c0 68 54.5 123.2 121.8 123.2s121.8-55.1 121.8-123.2v-.9h-82.2c0 22.5-18.3 40.8-40.8 40.8-22.6 0-40.8-18.3-40.8-40.8s18.3-40.8 40.8-40.8h40.7V163l-39.5-.1c-.4 0-.8.1-1.2.1-22.6 0-40.8-18.3-40.8-40.8 0-22.5 18.3-40.8 40.8-40.8 19.5 0 35.8 13.7 39.9 32L272.8 518c14.2 52.1 61.4 90.3 117.4 90.3 67.3 0 121.8-55.1 121.8-123.2-.1-55.2-36-101.9-85.5-117.5z"></path></svg>