<svg data-name="Layer 1" xmlns="http://www.w3.org/2000/svg" viewBox="0 0 604.66 604.66"><path d="M490.93 266.4c28.56 0 51.79-23.24 51.79-51.81V122.6h30.87c17.13 0 31.06-13.94 31.06-31.07V31.06C604.65 13.93 590.72 0 573.59 0h-60.47c-17.13 0-31.06 13.93-31.06 31.06v30.87h-91.99c-28.56 0-51.79 23.24-51.79 51.81v57.5h-71.89v-57.5c0-28.56-23.24-51.81-51.79-51.81h-92V31.06C122.6 13.93 108.67 0 91.54 0H31.07C13.95 0 0 13.93 0 31.06v60.47c0 17.13 13.95 31.07 31.07 31.07h30.87v91.99c0 28.56 23.24 51.81 51.79 51.81h57.5v71.86h-57.5c-28.56 0-51.79 23.24-51.79 51.81v91.99H31.07C13.94 482.06 0 495.99 0 513.12v60.48c0 17.13 13.95 31.06 31.07 31.06h60.47c17.13 0 31.06-13.93 31.06-31.06v-30.87h91.99c28.56 0 51.79-23.24 51.79-51.81v-57.5h71.89v57.5c0 28.56 23.24 51.81 51.79 51.81h91.99v30.87c0 17.13 13.93 31.06 31.06 31.06h60.47c17.13 0 31.06-13.93 31.06-31.06v-60.48c0-17.13-13.93-31.06-31.06-31.06h-30.87v-91.99c0-28.56-23.24-51.81-51.79-51.81h-57.5V266.4h57.5Zm6.54-177.86c9.14 2.37 16.29 9.53 18.67 18.67h-3c-8.64 0-15.66-7.03-15.66-15.67v-3Zm15.66-73.13h60.47c8.64 0 15.66 7.02 15.66 15.66v60.47c0 8.64-7.02 15.67-15.66 15.67h-31.53c-2.98-23.29-21.31-41.63-44.6-44.61V31.06c0-8.64 7.02-15.66 15.66-15.66Zm-149.18 98.34c0-14.41 11.72-26.13 26.13-26.13h91.99v3.92c0 17.13 13.93 31.07 31.06 31.07h3.93v91.99c0 14.41-11.72 26.13-26.13 26.13h-57.5v-3.05c0-36.63-29.8-66.43-66.43-66.43h-3.05v-57.5Zm0 90.43H367c18.48 0 33.5 15.03 33.5 33.5v3.05h-10.43c-14.41 0-26.13-11.72-26.13-26.13v-10.43ZM15.4 91.53V31.06c0-8.64 7.04-15.66 15.67-15.66h60.47c8.64 0 15.66 7.02 15.66 15.66v31.53c-23.29 2.98-41.62 21.32-44.6 44.61H31.07c-8.64 0-15.67-7.03-15.67-15.67Zm91.81-3v3c0 8.64-7.02 15.67-15.66 15.67h-3c2.37-9.14 9.53-16.29 18.67-18.67Zm6.54 152.19c-14.41 0-26.13-11.72-26.13-26.13V122.6h3.93c17.13 0 31.06-13.94 31.06-31.07v-3.92h91.99c14.41 0 26.13 11.72 26.13 26.13v57.5h-3.05c-36.63 0-66.43 29.8-66.43 66.43v3.05h-57.5Zm126.99-36.56v10.43c0 14.41-11.72 26.13-26.13 26.13h-10.43v-3.05c0-18.47 15.02-33.5 33.5-33.5h3.05ZM107.21 516.12c-9.14-2.37-16.29-9.53-18.67-18.67h3c8.64 0 15.66 7.02 15.66 15.66v3Zm-15.66 73.13H31.07c-8.64 0-15.67-7.02-15.67-15.66v-60.48c0-8.64 7.04-15.66 15.67-15.66H62.6c2.98 23.29 21.31 41.63 44.6 44.61v31.53c0 8.64-7.02 15.66-15.66 15.66Zm149.18-98.34c0 14.41-11.72 26.13-26.13 26.13h-92v-3.93c0-17.13-13.93-31.06-31.06-31.06h-3.93v-91.99c0-14.41 11.72-26.13 26.13-26.13h57.5v3.05c0 36.63 29.8 66.43 66.43 66.43h3.05v57.5Zm0-90.43h-3.05c-18.48 0-33.5-15.03-33.5-33.5v-3.05h10.43c14.41 0 26.13 11.72 26.13 26.13v10.43Zm348.53 112.63v60.48c0 8.64-7.02 15.66-15.66 15.66h-60.47c-8.64 0-15.66-7.02-15.66-15.66v-31.53c23.29-2.98 41.62-21.32 44.6-44.61h31.53c8.64 0 15.66 7.02 15.66 15.66Zm-91.79 3v-3c0-8.64 7.02-15.66 15.66-15.66h3c-2.37 9.14-9.53 16.29-18.67 18.67Zm-6.54-152.19c14.41 0 26.13 11.72 26.13 26.13v91.99h-3.93c-17.13 0-31.06 13.93-31.06 31.06v3.93h-91.99c-14.41 0-26.13-11.72-26.13-26.13v-57.5H367c36.63 0 66.43-29.8 66.43-66.43v-3.05h57.5Zm-126.99 36.56v-10.43c0-14.41 11.72-26.13 26.13-26.13h10.43v3.05c0 18.47-15.02 33.5-33.5 33.5h-3.05Zm36.56-62.23h-10.43c-28.56 0-51.79 23.24-51.79 51.81v10.43h-71.89v-10.43c0-28.56-23.24-51.81-51.79-51.81h-10.43v-71.86h10.43c28.56 0 51.79-23.24 51.79-51.81v-10.43h71.89v10.43c0 28.56 23.24 51.81 51.79 51.81h10.43v71.86Z"></path></svg>