<svg xmlns="http://www.w3.org/2000/svg" width="641.43" viewBox="0 0 641.43 638.29" height="638.29" data-name="Isolation Mode"><path d="M36.77 169.43C14.8 211.03 1.72 258.02 0 307.91h117.07a384.056 384.056 0 0 1 29.92-138.48H36.77ZM36.8 468.92h110.25a383.44 383.44 0 0 1-29.98-138.54H0c1.72 49.92 14.81 96.93 36.8 138.54ZM484.04 146.96h107.53C540.4 66.64 454.56 10.59 355.08 0c54.63 36.94 99.24 87.58 128.96 146.96ZM483.98 491.39c-29.72 59.38-74.27 109.97-128.9 146.9 99.45-10.59 185.27-66.61 236.45-146.9H483.98ZM157.39 146.96C187.11 87.58 231.72 36.94 286.35 0 186.87 10.59 101.03 66.64 49.86 146.96h107.53ZM157.46 491.39H49.91c51.17 80.28 136.99 136.31 236.45 146.9a386.153 386.153 0 0 1-128.9-146.9ZM641.43 330.38H524.36a383.44 383.44 0 0 1-29.98 138.54h110.25c22-41.61 35.08-88.62 36.8-138.54ZM604.66 169.43H494.44a384.01 384.01 0 0 1 29.92 138.48h117.07c-1.72-49.9-14.8-96.89-36.77-138.48ZM320.72 633.15c-107.99-62.55-181.37-179.67-181.37-314S211.72 68.27 320.72 5.14c110.49 63.99 181.36 182.38 181.36 314s-73.38 251.46-181.36 314Zm41.73-463.72v-22.47h-83.46v22.47h30.49v23.69h-30.49v22.47h30.49v23.69h-30.49v22.47h30.49v23.69h-30.49v22.47h30.49v22.47h-30.49v22.47h30.49v23.69h-30.49v22.47h30.49v23.69h-30.49v22.47h30.49v23.75h-30.49v22.47h83.46v-22.47h-30.5v-23.75h30.5V422.7h-30.5v-23.69h30.5v-22.47h-30.5v-23.69h30.5v-22.47h-30.5v-22.47h30.5v-22.47h-30.5v-23.69h30.5v-22.47h-30.5v-23.69h30.5v-22.47h-30.5v-23.69h30.5Z"></path></svg>