<svg data-name="Layer 1" xmlns="http://www.w3.org/2000/svg" viewBox="0 0 626.12 626.12"><path d="M313.06 0C140.16 0 0 140.16 0 313.06s140.16 313.06 313.06 313.06 313.06-140.16 313.06-313.06S485.96 0 313.06 0Zm169.56 73.16c36.97-.37 67.24 29.29 67.61 66.26.37 36.97-29.29 67.24-66.26 67.61-36.97.37-67.24-29.29-67.61-66.26-.37-36.97 29.29-67.24 66.26-67.61ZM185.49 483.39c-21.58.22-39.25-17.1-39.46-38.68-.22-21.58 17.1-39.25 38.68-39.46 21.58-.22 39.25 17.1 39.46 38.68.22 21.58-17.1 39.25-38.68 39.46Zm346.77 48.87c-50.63 50.63-189.81-6.47-310.86-127.53C100.33 283.67 43.24 144.49 93.86 93.86c50.63-50.63 189.81 6.47 310.86 127.53 121.06 121.06 178.16 260.24 127.53 310.86Z"></path><path d="M391.54 289.23c.31 30.34-24.04 55.19-54.39 55.49-30.34.31-55.19-24.04-55.49-54.39-.31-30.34 24.04-55.19 54.39-55.49 4.53-.05 8.9.52 13.12 1.51-91.41-84.94-183.93-129.43-213.09-100.27-31.37 31.37 22.44 136.03 120.19 233.77 97.74 97.74 202.41 151.55 233.77 120.19 29.13-29.13-15.22-121.46-99.97-212.76.9 3.85 1.42 7.84 1.47 11.95Z"></path></svg>