<svg xmlns="http://www.w3.org/2000/svg" width="642" viewBox="0 0 642 642" height="642" style="overflow:visible;enable-background:new 0 0 642 642" xml:space="preserve"><path d="M118.8 317.8C118.8 91 321 0 321 0 143.7 0 0 143.7 0 321s143.7 321 321 321c0 0-202.2-97.5-202.2-324.2zM321 0s202.2 91 202.2 317.8S321 642 321 642c177.3 0 321-143.7 321-321S498.3 0 321 0z"></path><g><path d="M154.6 203.4 313 373.2v-73.9L177.6 154.2c-8.7 15.1-16.5 31.5-23 49.2zM313 168.9V22.2C295.3 32 264.2 51.8 232.8 83l80.2 85.9zM186.3 140.1 313 275.9v-83.5l-91.2-97.8c-12.4 13.3-24.4 28.4-35.5 45.5zM136.7 281.5 313 470.6v-73.9l-164.2-176c-5.7 18.8-9.9 39.1-12.1 60.8zM134.8 317.8c0 178 132.8 273.8 178.2 301.3v-125L135.2 303.4c-.2 4.8-.4 9.5-.4 14.4zM329 22.2v146.7L409.1 83c-31.3-31.2-62.4-51-80.1-60.8zM493.2 220.7 329 396.7v73.9l176.3-189.1c-2.2-21.7-6.4-42-12.1-60.8zM506.8 303.4 329 494.1v125c45.4-27.6 178.2-123.4 178.2-301.3 0-4.9-.2-9.6-.4-14.4zM420.3 94.5 329 192.3v83.5L455.6 140c-11-17-23-32.1-35.3-45.5zM464.4 154.2 329 299.3v73.9l158.4-169.8c-6.5-17.7-14.3-34.1-23-49.2z"></path></g></svg>