<svg xmlns="http://www.w3.org/2000/svg" width="606" viewBox="0 0 606 504.1" height="504.1" xml:space="preserve"><path d="M503.3 246.6v-45.4H402.7V100.6h100.6V0H402.7C347.1 0 302 45 302 100.6c0 0-.1 195.7 0 197.8 1.7 39.4-20.4 77-55.7 94.7-35.4 17.8-79.2 12.8-109.8-12.4-30.5-25.2-43.6-66.9-33.1-105.1 10.4-37.4 42.4-66.3 80.7-72.7 5.6-.9 17.1-1.4 17.1-1.4h75.9V101.4h-75.9c-39 0-77.7 11.5-110.3 32.9-31.7 20.8-57.3 50.6-73 85.1C1.6 255.4-3.7 296 2.6 335c6.1 37.9 23.3 73.7 49 102.3 25.5 28.4 58.9 49.2 95.7 59.4 39.5 11 82.1 9.6 120.8-4 38.1-13.4 71.8-38.4 95.7-71 25.2-34.3 38.9-76.4 38.9-119V504h100.6v-96.7c0-8.8 1.2-18.8 4.1-28C533 300.1 606 304 606 304v-98.4c-78-1.4-102.7 41-102.7 41z"></path></svg>