<svg data-name="Layer 1" xmlns="http://www.w3.org/2000/svg" viewBox="0 0 613.47 613.47"><circle cx="360.99" cy="318.86" r="78.09" transform="rotate(-45 360.988 318.864)"></circle><path d="M360.99 106.87C244.1 106.87 149 201.97 149 318.86c0 46.13 14.86 88.84 39.98 123.68h157.36c-61.81-7.28-109.92-59.95-109.92-123.68 0-68.69 55.88-124.57 124.57-124.57s124.57 55.88 124.57 124.57c0 63.73-48.12 116.4-109.92 123.68H533c25.12-34.84 39.98-77.54 39.98-123.68 0-116.89-95.1-211.99-211.99-211.99ZM87.65 281.55c-24.13.55-43.25 20.57-42.69 44.7.93 40.59 9.55 79.9 25.01 116.28h98.64c-22.62-35.05-35.28-75.7-36.26-118.3-.55-24.13-20.51-43.24-44.7-42.69Z"></path><circle cx="66.35" cy="229.11" r="25.64" transform="rotate(-9.22 66.35 229.034)"></circle><circle cx="122.71" cy="240.6" r="25.64"></circle><path d="M306.73 0C137.6 0 0 137.6 0 306.73s137.6 306.73 306.73 306.73 306.73-137.6 306.73-306.73S475.87 0 306.73 0Zm0 600.11c-161.77 0-293.38-131.61-293.38-293.38S144.97 13.36 306.73 13.36s293.38 131.61 293.38 293.38S468.5 600.12 306.73 600.12Z"></path></svg>