<svg xmlns="http://www.w3.org/2000/svg" width="642" viewBox="0 0 642 286.46" height="286.46" data-name="Layer 1"><path d="M642 282.09c0 2.38-1.99 4.37-4.43 4.37H390.01c-29.85 0-56.56-13.48-74.41-34.67l-60.35-72.8c-8.47-10.08-21.19-16.5-35.37-16.5v123.97H0V0h219.89v123.97c14.19 0 26.9-6.42 35.37-16.5l60.35-72.8C333.45 13.48 360.16 0 390.01 0h247.56c2.44 0 4.43 1.99 4.43 4.37s-1.99 4.43-4.43 4.43h-2.89c-40.77 0-77.17 18.62-101.24 47.76l-42.89 51.3c-14.7 17.46-36.72 28.57-61.31 28.57H226.69c-3.72 0-6.81 3.02-6.81 6.81s3.08 6.81 6.81 6.81h202.55c24.59 0 46.61 11.11 61.31 28.57l42.89 51.3c24.07 29.15 60.48 47.76 101.24 47.76h2.89c2.44 0 4.43 1.99 4.43 4.43Z"></path></svg>