<svg data-name="Layer 1" xmlns="http://www.w3.org/2000/svg" viewBox="0 0 613.61 301.02"><path d="M284.62 1.34h43.55v297.79h-43.55z"></path><path d="M284.62 1.34h43.55v297.79h-43.55zM242.89 299.91c-6.37.77-12.88 1.11-19.46 1.11-76.71 0-140.38-54.23-152.68-125.4H0v-45.94h70.08C80.51 56.41 145.2 0 223.43 0c6.58 0 13.08.34 19.44 1.11l-.02 44.85c-6.32-.58-12.79-.81-19.42-.81-52.51 0-96.31 36.31-106.25 84.52h125.34l.33.02v124.49l.05 45.73ZM118.15 175.62c9.5 37.79 39.96 67.58 78.72 77.07v-77.07h-78.72Z"></path><path d="M242.11 299.14c-6.32.77-12.8 1.1-19.33 1.1-76.22 0-139.49-53.95-151.7-124.76H.78v-45.7h69.63C80.78 56.9 145.05.78 222.78.78c6.53 0 12.99.34 19.32 1.1l-.02 44.63c-6.28-.58-12.71-.81-19.3-.81-52.19 0-95.69 36.13-105.58 84.09h124.88v123.86l.04 45.5ZM118.17 175.48c9.44 37.59 39.7 67.23 78.21 76.67v-76.67h-78.21ZM370.71 299.91c6.37.77 12.88 1.11 19.46 1.11 76.71 0 140.38-54.23 152.68-125.4h70.76v-45.94h-70.09C533.09 56.41 468.4 0 390.17 0c-6.58 0-13.08.34-19.44 1.11l.02 44.85c6.32-.58 12.79-.81 19.42-.81 52.51 0 96.31 36.31 106.26 84.52H371.08l-.33.02v124.49l-.05 45.73Zm124.74-124.29c-9.5 37.79-39.96 67.58-78.72 77.07v-77.07h78.72Z"></path><path d="M371.48 299.14c6.32.77 12.8 1.1 19.33 1.1 76.22 0 139.49-53.95 151.7-124.76h70.3v-45.7h-69.64C532.82 56.9 468.55.78 390.82.78c-6.53 0-12.99.34-19.32 1.1l.02 44.63c6.28-.58 12.71-.81 19.3-.81 52.19 0 95.69 36.13 105.58 84.09H371.53v123.86l-.04 45.5Zm123.94-123.66c-9.44 37.59-39.7 67.23-78.21 76.67v-76.67h78.21Z"></path></svg>