<svg data-name="Layer 1" xmlns="http://www.w3.org/2000/svg" viewBox="0 0 626.45 626.45"><path d="M313.23 0C140.52 0 0 140.52 0 313.23s140.52 313.23 313.23 313.23 313.23-140.52 313.23-313.23S485.94 0 313.23 0Zm268.44 228.57-177-102.19-112.03 64.68-160.8-92.83c49.03-41.43 112.32-66.48 181.39-66.48 125.71 0 232.42 82.86 268.44 196.82Zm-30.29 19.18-122.06 70.47V177.28l122.06 70.47Zm-406.83 65.47 253.01-146.08V459.3L144.55 313.23Zm228.34 168.52-122.06 70.47V411.27l122.06 70.47ZM138.81 279.85V138.92l122.06 70.47-122.06 70.47ZM31.76 313.22c0-73.84 28.62-141.09 75.3-191.35v206.37l112.02 64.67v185.53C110.04 539.62 31.75 435.42 31.75 313.23Zm281.47 281.47c-20.9 0-41.24-2.36-60.85-6.7l176.94-102.16V354.88l160.65-92.75c3.05 16.58 4.73 33.63 4.73 51.08 0 155.2-126.27 281.47-281.47 281.47Z"></path></svg>