<svg id="Layer_1" data-name="Layer 1" xmlns="http://www.w3.org/2000/svg" viewBox="0 0 612.95 530.83">   <path d="M459.72,0H153.24l-38.99,67.53h111.06l-11.12,17.97c-2.66,4.3-7.36,6.91-12.41,6.91H99.88l-17.79,30.81h224.38c78.53,0,142.19,63.66,142.19,142.19s-63.66,142.19-142.19,142.19-142.19-63.66-142.19-142.19c0-48.71,24.51-91.68,61.85-117.31H67.73L0,265.42l153.24,265.42H459.72l153.24-265.42L459.72,0Zm-194.15,77.67c-16.71,0-30.25-13.54-30.25-30.25s13.54-30.25,30.25-30.25,30.25,13.54,30.25,30.25-13.54,30.25-30.25,30.25Z"></path> </svg>