<svg id="Layer_1" data-name="Layer 1" xmlns="http://www.w3.org/2000/svg" viewBox="0 0 538.41 607.16">   <path d="M513.92,249.17c-57.84-.03-106.72,39.35-120.98,92.53-55.17-26.12-124.79,3.35-144.9,60.41-58.48-22.94-126.2,20.09-130.83,82.01-51.61-73.43,26.86-166.92,108.18-129,14.76-75.2,110.52-100.63,160.52-43.79C477.35,182.62,382.87-.97,223.59,.01,100.24-1.42,4.18,116.23,29.42,236.69H125.74c-23.73-65.25,28.13-138.35,97.85-137.03,58.22-.13,105.74,48.67,103.33,106.95-50.92-30.17-121.4-6.17-144.36,46.71-47-1.88-94.25,16.6-127.52,48.54-116.84,110.57-35.19,310.35,127.65,305.19-26.29-52.01,12.35-116.24,71.01-117.02,13.99-.61,27.92,3.03,39.62,9.11,.96-6.65,2.66-13.19,5.06-19.47,1.19-3.13,2.56-6.18,4.09-9.16,21.94-42.6,78.94-62.56,121.93-40.14,6.72-53.41,59.98-92.95,114-82.19v-96.6c-7.92-1.57-16.1-2.43-24.49-2.43Z"></path> </svg>