<svg data-name="Layer 1" xmlns="http://www.w3.org/2000/svg" viewBox="0 0 612.77 612.77"><path d="M0 0v612.77h612.77V0H0Zm593.49 28.13L422.72 198.89v15.67l101.01-73.38v15.39l-101.01 73.38v10.7l170.13-86.67v13.97l-170.13 86.67v8.05l101.01-32.81v13.09l-101.01 32.81v6.62l170.13-26.93v12.6l-170.13 26.93v5.99h101.01v12.46H422.72v5.99l170.13 26.96v12.6l-170.13-26.96v6.63l101.01 32.83v13.09l-101.01-32.83v8.06l170.13 86.71v13.97l-170.13-86.71v10.7l101.01 73.41v15.39l-101.01-73.41v14l170.77 170.81v8.82h-8.78L413.97 422.72H397.4l74.37 102.4h-15.39l-74.37-102.4h-10.39l86.65 170.13H444.3l-86.65-170.13h-7.79l33.25 102.4h-13.09l-33.25-102.4h-6.39l26.92 170.13h-12.6l-26.92-170.13h-5.77l-.02 102.4h-12.45l.02-102.4h-5.77l-26.98 170.13h-12.6l26.98-170.13h-6.39l-33.29 102.4h-13.09l33.29-102.4h-7.8l-86.73 170.13h-13.97l86.73-170.13h-10.4l-74.43 102.4h-15.39l74.43-102.4h-15.29L28 593.49h-8.73v-8.88L190.04 413.9v-14.96L86.25 474.31v-15.39l103.79-75.37v-10.43L19.92 459.75v-13.97l170.13-86.63v-7.83L86.26 385.01v-13.09l103.79-33.69v-6.43L19.92 358.7v-12.6l170.13-26.9v-5.81l-103.79-.03v-12.45l103.79.03v-5.81l-170.13-27v-12.6l170.13 27v-6.43L86.26 242.34v-13.09l103.79 33.76v-7.84L19.92 168.4v-13.98l170.13 86.75v-10.45L86.26 155.26v-15.39l103.79 75.46v-16.79L19.28 27.46v-8.18h9.42l170.45 170.77h13.91l-74.34-102.4h15.38l74.34 102.4h10.73l-86.6-170.13h13.97l86.61 170.13h8.09l-33.23-102.4h13.09l33.23 102.4h6.66L254.11 19.92h12.6l26.88 170.13h5.98V87.65h12.45v102.4h6.03L345 19.92h12.6l-26.95 170.13h6.66l33.27-102.4h13.09l-33.27 102.4h8.09l86.7-170.13h13.98l-86.69 170.13h10.74l74.4-102.4h15.39l-74.4 102.4h15.34L584.73 19.28h8.76v8.85Z"></path></svg>