<svg xmlns="http://www.w3.org/2000/svg" width="615.9" viewBox="0 0 615.9 595.3" height="595.3" xml:space="preserve"><path d="M305.4 230.4c64.2 1.5 117.5-49.2 119-113.4 1.3-55.8-36.8-103.3-89-115.8 6.8 6.7 11 16.1 10.7 26.4-.5 19.8-16.9 35.5-36.7 35-19.8-.5-35.5-16.9-35-36.7.2-10.3 4.9-19.5 12-25.9-52.7 10-93.1 55.6-94.5 111.4-1.4 64.2 49.3 117.5 113.5 119z"></path><path d="M615.6 243.9c-4.3 8.6-11.9 15.4-21.8 18.4-19 5.7-39-5.1-44.7-24.1-5.7-19 5.1-39 24.1-44.7 9.9-3 20-1.4 28.3 3.4-25.9-47-81.8-71.2-135.2-55.2-61.5 18.5-96.4 83.3-77.9 144.8s83.3 96.4 144.8 77.9c53.3-16 86.7-67 82.4-120.5z"></path><path d="M360.7 382.8c-52.7 36.6-65.8 109.1-29.1 161.8 31.8 45.8 90.7 61.7 140.2 41-9.5-1.4-18.4-6.5-24.3-15-11.3-16.3-7.3-38.6 9-49.9 16.3-11.3 38.6-7.3 49.9 9 5.9 8.5 7.6 18.6 5.6 28 36.6-39.2 42.3-99.9 10.5-145.7-36.6-52.8-109.1-65.8-161.8-29.2z"></path><path d="M260.7 386.4c-51.2-38.8-124.1-28.7-162.9 22.5-33.7 44.5-30.5 105.4 4.6 146-1.6-9.4.5-19.5 6.7-27.7 12-15.8 34.5-18.9 50.3-7s18.9 34.5 7 50.3c-6.2 8.2-15.3 13-24.8 14 48.6 22.7 108.1 9.3 141.7-35.2 38.6-51.2 28.6-124.1-22.6-162.9z"></path><path d="M226.2 292.4c20.9-60.7-11.3-126.9-72-147.8-52.7-18.2-109.6 3.8-137.4 49.6 8.5-4.5 18.7-5.6 28.4-2.2 18.7 6.5 28.7 26.9 22.2 45.6-6.5 18.7-26.9 28.7-45.6 22.2-9.8-3.4-17.1-10.5-21-19.3-6.5 53.2 24.8 105.6 77.5 123.8 60.7 21 126.9-11.2 147.9-71.9z"></path><circle transform="rotate(-13.286 310.048 315.142)" cx="310.1" cy="315.2" r="45.9"></circle></svg>