<svg data-name="Layer 1" xmlns="http://www.w3.org/2000/svg" viewBox="0 0 611.09 508.3"><path d="M305.55 0C136.6 1.13 0 134.15 0 331.78c0 63.53 16.61 122.86 45.33 173.31L244.02 306.4 92.42 154.8c-16.99-16.99-16.99-44.54 0-61.53 16.99-16.99 44.53-16.99 61.53 0l151.6 151.6 151.6-151.6c16.99-16.99 44.54-16.99 61.53 0 16.99 16.99 16.99 44.54 0 61.53L165.17 508.3h398.79c29.85-51.13 47.14-111.65 47.14-176.53C611.09 134.15 474.49 1.13 305.55 0Zm0 220.47c-24.07 0-43.58-19.51-43.58-43.58s19.51-43.58 43.58-43.58 43.58 19.51 43.58 43.58-19.51 43.58-43.58 43.58Z"></path></svg>