<svg xmlns="http://www.w3.org/2000/svg" width="626" viewBox="0 0 626 318.7" height="318.7" xml:space="preserve" style="enable-background:new 0 0 626 318.7"><path d="M176.2 80.1v.8L153 104.1v110.5l23.2 23.2v.7h120l12.9-12.9v-32.1l-12.9-12.9h-82.9v-42.5h82.9l12.9-12.9V93l-12.9-12.9z"></path><path d="m626 23.2-23-23 .2-.2H325.4L313 12.4 300.6 0H22.7l.3.2-23 23v272.3l23 23-.2.2h277.9l12.4-12.4 12.4 12.4h277.9l-.2-.2 23-23V23.2zM562.4 255H326.7L313 268.7 299.3 255H63.6V63.6h235.7L313 49.9l13.7 13.7h235.7V255z"></path><path d="m316.9 125.2 12.9 12.9h82.9v42.5h-82.9l-12.9 12.9v32.1l12.9 12.9h120v-.7l23.2-23.2V104.1l-23.2-23.2v-.8h-120L316.9 93z"></path></svg>