<svg data-name="Layer 1" xmlns="http://www.w3.org/2000/svg" viewBox="0 0 628.37 634.37"><g data-name="Consolidated Cigar Corporation 1959"><path d="M536.62 93.2C480.03 35.82 401.04 0 314.18 0 227.34 0 148.35 35.82 91.75 93.2 32.83 152.84-.14 233.34 0 317.17c0 87.2 35.02 166.67 91.75 224 56.6 57.4 135.6 93.22 222.44 93.2h.12c86.79 0 165.74-35.84 222.32-93.2 122.33-124.27 122.33-323.7 0-447.97Zm-69.95 379.53c-39.35 39.73-92.91 63.96-152.49 63.99-59.57-.03-113.13-24.27-152.49-63.99-39.26-39.8-63.56-94.52-63.57-155.56.02-60.98 24.31-115.72 63.57-155.52 39.35-39.71 92.91-63.96 152.49-63.98 59.57.02 113.13 24.27 152.49 63.98 39.23 39.81 63.54 94.54 63.57 155.52-.03 61.04-24.34 115.76-63.57 155.56Z"></path><path d="M381.92 240.71c-8.57 29.99-35.77 50.9-68.57 50.9-2.92-.02-5.84-.22-8.74-.59V149.13c2.9-.36 5.82-.54 8.74-.56 16.14-.08 31.83 5.35 44.47 15.38l1.1 3.31c-.59-.04-1.16-.08-1.75-.08-14.2.06-25.66 11.63-25.6 25.83.06 14.11 11.49 25.54 25.6 25.6 14.21 0 24.7-9.87 24.7-24.09 0-7.38-2.63-12.82-7.58-20.6-13.16-18.15-35.79-30.22-60.95-30.25-18.16 0-33.37 6.39-44.7 17.03-32.79 24.8-39.26 71.48-14.46 104.27 3.79 5.01 8.2 9.52 13.13 13.43 11.43 11.3 27.09 18.11 45.97 18.11h.06c38.41 0 64.56-23.71 73.73-55.79h-5.16Zm-92.5 149.5c-8.59 30.01-35.78 50.9-68.57 50.9-2.93 0-5.86-.19-8.77-.57V298.66c2.91-.37 5.84-.56 8.77-.56 16.14-.1 31.83 5.32 44.46 15.36l1.09 3.3c-.57 0-1.16-.08-1.74-.08-14.21 0-25.72 11.52-25.72 25.72s11.52 25.72 25.72 25.72 24.72-9.87 24.72-24.09c0-7.37-2.65-12.83-7.59-20.61-13.18-18.15-35.78-30.21-60.94-30.24-18.16-.02-33.37 6.39-44.68 17.02-32.8 24.82-39.26 71.52-14.45 104.32 3.78 4.99 8.17 9.49 13.08 13.39 11.42 11.29 27.1 18.12 45.98 18.12h.07c38.39 0 64.55-23.71 73.73-55.81h-5.16Zm184.19 0c-8.6 30.01-35.78 50.9-68.58 50.9-2.94 0-5.87-.19-8.78-.57V298.66c2.91-.37 5.84-.56 8.78-.56 16.14-.1 31.84 5.32 44.48 15.36l1.09 3.3c-.58 0-1.16-.08-1.74-.08-14.21 0-25.72 11.52-25.72 25.72s11.52 25.72 25.72 25.72 24.71-9.87 24.71-24.09c0-7.37-2.66-12.83-7.6-20.61-13.18-18.15-35.75-30.21-60.93-30.24-18.17-.02-33.38 6.39-44.7 17.02-32.79 24.82-39.25 71.53-14.42 104.32 3.78 4.99 8.18 9.49 13.09 13.39 11.45 11.29 27.12 18.12 45.98 18.12h.06c38.39 0 64.56-23.71 73.74-55.81h-5.16Z"></path></g></svg>