<svg data-name="Layer 1" xmlns="http://www.w3.org/2000/svg" viewBox="0 0 603.94 626.8"><path d="M415.99 117.11V0L340.4 73.13c-16.74 16.19-26.19 38.49-26.19 61.78v117.11l75.59-73.13c16.74-16.2 26.19-38.49 26.19-61.78ZM509.96 213.58V96.47L340.39 260.52c-16.74 16.19-26.19 38.49-26.19 61.78v117.11l169.57-164.05c16.74-16.19 26.19-38.49 26.19-61.78ZM340.4 447.92c-16.74 16.19-26.19 38.49-26.19 61.78v117.11l263.54-254.97c16.74-16.19 26.19-38.49 26.19-61.78V192.95L340.4 447.92ZM187.96 0v117.11c0 23.29 9.45 45.58 26.19 61.78l75.59 73.13V134.91c0-23.29-9.45-45.58-26.19-61.78L187.96 0ZM93.98 96.47v117.11c0 23.29 9.45 45.58 26.19 61.78l169.57 164.05V322.3c0-23.29-9.45-45.58-26.19-61.78L93.98 96.47ZM0 192.95v117.11c0 23.29 9.45 45.58 26.19 61.78l263.54 254.97V509.7c0-23.29-9.45-45.58-26.19-61.78L0 192.95Z"></path></svg>