<svg xmlns="http://www.w3.org/2000/svg" width="602.7" viewBox="0 0 602.7 471.4" height="471.4" xml:space="preserve" style="enable-background:new 0 0 602.7 471.4"><path d="M388.1 34.4h52.2l-2 6h26.8l-5.7-17.3h-75zM366.8 28.6l1.9-5.5H309l1.9 5.5zM395.8 57.6h36.8l-2 5.9h42.2l-5.7-17.2h-75zM403.5 80.7h21.4l-2 6h57.5l-5.7-17.3h-75zM411.2 103.9h6l-2 5.9h72.9l-5.7-17.2h-75zM526.8 115.7l-24.2 17.2h75.9l24.2-17.2zM470 156.1h76l24.2-17.2h-76zM461.7 162l-24.2 17.2H513.4l24.2-17.2h-75.1zM417.3 254.6H66.5l-1.8 5.5h75.2l-1.9 5.8h75.2l-2 5.9h26l16.5-11.7h15.9l8.2 5.8h79.4l8.3 5.9h26l-3.9-11.7H425l-7.7-5.5zm-127.4 5.7.1-.2h.2l-.3.2zM384.8 231.5H74.2l-1.8 5.4h75.2l-2 5.8h75.2l-2 6h50.9l8.3-6h46.7l8.3 6h50.9l-3.9-11.8h12.5zM468.9 277.7l3.7 11.3h67.5l9.9 7-6.1-18.3zM507.5 265.9l8.4 5.9h26l-5.7-17.2h-75l3.8 11.3zM475 242.7l8.3 6h50.9l-5.7-17.2h-75l3.8 11.2zM526.5 225.5l-5.7-17.2h-75l5.8 17.2zM438.2 185.2l5.7 17.2h75l-5.8-17.2zM374.5 5.5l1.8-5.5h-74.9l1.8 5.5zM447.9 11.3l-1.9 5.9h11.4L451.7 0h-75l3.7 11.3zM183.7 98.3v-.2h9.9l-1.9 5.8h75.2l-2 5.9h72.9L334 98.3v-.2h9.8l1.8-5.5H120.3l-1.8 5.5h65.1zM214.8 34.4h75.1l-1.9 6h26.8L309 23.1H143.3l-1.8 5.5h75.2zM207.1 57.6h75.1l-1.9 5.9h42.1l-3.9-11.7h40.7l1.8-5.5H135.7l-1.9 5.5H209zM199.4 80.7h75.2l-2 6h57.5l-3.9-11.8h25.3l1.8-5.5H128l-1.8 5.5h75.1zM80.1 213.8h75.1l-1.9 5.8h75.2l-2 5.9h149.7l-5.7-17.2H81.9zM368.5 202.4l-5.7-17.2H89.6l-1.9 5.4h75.2l-1.9 5.9h75.2l-2 5.9z"></path><path d="M222.4 11.3h75.2l-2 5.9h11.5L301.4 0H151l-1.8 5.5h75.2zM119.3 150.2h75.2l8.3 5.9h197.1l24.2-17.2H32.5l7.7 5.4h71zM130.3 288.8h75.1l-2.3 7 18-12.8h81.1l8.1 5.8h79.5l9.8 7-4.2-12.8 62.1.2-7.7-5.5-56.2-.2H58.8L57 283h75.2zM86.8 127H162l8.3 5.9h262.1l24.2-17.2H0l7.7 5.5h70.9zM72.8 167.5h70.9l8.2 5.8H227l8.4 5.9h131.9l24.2-17.2H65.1zM420.7 319.1c-26.2 0-48.1 18.5-53.5 43.1-2.1-.2-4.1-.4-6.3-.4-2.1 0-4.2.1-6.3.4-5.3-24.6-27.3-43.1-53.5-43.1s-48.1 18.5-53.5 43.1c-2.1-.2-4.1-.4-6.3-.4-2.1 0-4.2.1-6.3.4-5.3-24.6-27.3-43.1-53.5-43.1-30.2 0-54.7 24.6-54.7 54.7 0 30.2 24.6 54.7 54.7 54.7 2.1 0 4.2-.1 6.3-.4 5.3 24.6 27.3 43.1 53.5 43.1s48.1-18.5 53.5-43.1c2.1.2 4.1.4 6.3.4 2.1 0 4.2-.1 6.3-.4 5.3 24.6 27.3 43.1 53.5 43.1s48.1-18.5 53.5-43.1c2.1.2 4.1.4 6.3.4 30.2 0 54.7-24.6 54.7-54.7.1-30.1-24.5-54.7-54.7-54.7zm-238.9 98.1c-23.9 0-43.3-19.4-43.3-43.3s19.4-43.3 43.3-43.3c20.8 0 38.2 14.7 42.4 34.2-21.7 7.3-37.4 27.8-37.4 51.9v.3c-1.6.1-3.3.2-5 .2zm43.2-40.6c-1 16.9-11.8 31.2-26.7 37.3 1.1-16.9 11.8-31.2 26.7-37.3zm16.5 83.3c-20.8 0-38.2-14.7-42.4-34.2 21.7-7.3 37.4-27.8 37.4-51.9v-.3c1.6-.2 3.3-.3 5-.3 1.7 0 3.4.1 5 .3v.3c0 24.1 15.7 44.6 37.4 51.9-4.2 19.6-21.6 34.2-42.4 34.2zm16.5-83.3c14.9 6.2 25.7 20.5 26.7 37.3-14.9-6.2-25.6-20.5-26.7-37.3zm43.3 40.6c-1.7 0-3.4-.1-5-.3v-.3c0-24.1-15.7-44.6-37.4-51.9 4.2-19.5 21.6-34.2 42.4-34.2s38.2 14.7 42.4 34.2c-21.7 7.3-37.4 27.8-37.4 51.9v.3c-1.7.2-3.3.3-5 .3zm43.2-40.6c-1 16.9-11.8 31.2-26.7 37.3 1-16.9 11.8-31.2 26.7-37.3zm16.5 83.3c-20.8 0-38.2-14.7-42.4-34.2 21.7-7.3 37.4-27.8 37.4-51.9v-.3c1.6-.2 3.3-.3 5-.3 1.7 0 3.4.1 5 .3v.3c0 24.1 15.7 44.6 37.4 51.9-4.2 19.6-21.6 34.2-42.4 34.2zm16.5-83.3c14.9 6.2 25.7 20.5 26.7 37.3-14.9-6.2-25.6-20.5-26.7-37.3zm43.2 40.6c-1.7 0-3.4-.1-5-.3v-.3c0-24.1-15.7-44.6-37.4-51.9 4.2-19.5 21.6-34.2 42.4-34.2 23.9 0 43.3 19.4 43.3 43.3.1 23.9-19.4 43.4-43.3 43.4z"></path></svg>