<svg data-name="Layer 1" xmlns="http://www.w3.org/2000/svg" viewBox="0 0 624.67 624.67"><path d="M321.92 127c0-23.59 19.3-42.9 42.9-42.9h160.63C469.63 31.96 394.73 0 312.33 0S155.03 31.96 99.22 84.1h160.63c23.59 0 42.9 19.3 42.9 42.9s-19.3 42.9-42.9 42.9H34.4a311.815 311.815 0 0 0-16.52 38.21h241.97c23.59 0 42.9 19.3 42.9 42.9s-19.3 42.9-42.9 42.9H.59c-.36 6.1-.59 12.24-.59 18.43 0 6.65.28 13.23.69 19.78h259.16c23.59 0 42.9 19.3 42.9 42.9s-19.3 42.9-42.9 42.9H18.34c4.46 12.41 9.72 24.42 15.64 36.05h225.87c23.59 0 42.9 19.3 42.9 42.9 0 23.59-19.3 42.9-42.9 42.9H98.37c55.9 52.61 131.14 84.91 213.97 84.91 172.5 0 312.33-139.84 312.33-312.33 0-51.33-12.46-99.72-34.4-142.44H364.82c-23.59 0-42.9-19.3-42.9-42.9Z"></path></svg>