<svg xmlns="http://www.w3.org/2000/svg" width="594.2" viewBox="0 0 594.2 594.2" height="594.2"><path d="M0 0v594.2h594.2V0H0zm579.3 579.3H14.9V14.9h564.4v564.4z"></path><path d="M570.2 153.6L154 24.1 24.5 440.3l416.2 129.4 129.5-416.1zm-527 276.9L163.8 42.8l387.8 120.6-120.7 387.7L43.2 430.5z"></path><path d="M259.1 80L80 335.1l255 179.1 179.1-255L259.1 80zm72.4 413.4l-230.7-162 161.9-230.7 230.7 162-161.9 230.7z"></path><path d="M318 147.5L147.5 276.2l128.6 170.5L446.7 318 318 147.5zM168.4 279.1l146.7-110.7 110.7 146.7-146.7 110.7-110.7-146.7z"></path><path d="M337.6 210.3l-127.3 46.3 46.3 127.3 127.3-46.3-46.3-127.3zm-108.3 55.2l99.4-36.2 36.2 99.4-99.4 36.2-36.2-99.4z"></path><path d="M260.6 260.6v73h73v-73h-73zm58.1 58.1h-43.3v-43.3h43.3v43.3z"></path></svg>