<svg data-name="Layer 1" xmlns="http://www.w3.org/2000/svg" viewBox="0 0 610.41 610.41"><path d="m376.83 224.54-.06-.04c.02.27.04.21.06.04ZM384.07 115.59c.34-22.97-18.18-41.7-41.07-41.7-15.7 0-29.33 8.81-36.24 21.75-.67 1.26-2.37 1.26-3.04 0-6.91-12.94-20.55-21.75-36.24-21.75-22.89 0-41.41 18.73-41.07 41.7.32 21.67 18.45 39.95 40.12 40.44 16.46.37 30.78-8.94 37.66-22.64.45-.9 1.65-.9 2.11 0 6.89 13.7 21.2 23.01 37.66 22.64 21.66-.49 39.8-18.77 40.12-40.44ZM233.64 224.51l-.26.16c.02.2.24.15.26-.16ZM522.72 315.9l-.66-.41-139.78-87.55c-2.28-1.43-5.24.21-5.24 2.9v99.51c0 2.56.41 5.11 1.2 7.55l23.56 71.98c13.87 33.45 48.43 53.57 85.45 48.09 26.99-3.99 50.37-22.23 60.96-47.38 14.77-35.08 2.72-73.55-25.49-94.7Z"></path><path d="M305.21 0C136.65 0 0 136.65 0 305.21s136.65 305.21 305.21 305.21 305.21-136.65 305.21-305.21S473.77 0 305.21 0Zm169.95 488.18c-39.82 0-75.65-21.4-94.72-55.46-1.35-2.41-4.87-1.89-5.53.8-7.71 31.34-36.01 54.66-69.7 54.66s-61.99-23.32-69.7-54.66c-.66-2.69-4.18-3.21-5.53-.8-19.07 34.06-54.91 55.46-94.72 55.46-59.93 0-108.7-48.76-108.7-108.7 0-34.96 16.98-68 45.43-88.4l165.7-103.69c3.31-2.07 3.16-7.06-.37-8.74-26.74-12.72-44.26-41.8-39.5-74.23 3.8-25.91 22.21-48.04 47.09-56.19 21.03-6.89 42.85-3.76 60.3 7.37 17.5-11.16 39.41-14.28 60.48-7.3 24.87 8.24 43.22 30.44 46.94 56.37 4.64 32.33-12.86 61.29-39.54 73.98-3.52 1.68-3.68 6.67-.37 8.74l165.7 103.7c28.44 20.39 45.43 53.44 45.43 88.4 0 59.93-48.76 108.7-108.7 108.7Z"></path><path d="m228.14 227.95-140.51 88c-28.17 21.16-40.18 59.61-25.41 94.67 10.59 25.14 33.96 43.36 60.95 47.36 37.01 5.48 71.58-14.64 85.45-48.09l23.56-71.99c.8-2.44 1.2-4.98 1.2-7.54v-99.5c0-2.69-2.96-4.33-5.24-2.9ZM262.68 416.35c0 23.45 19.08 42.52 42.52 42.52s42.52-19.08 42.52-42.52v-2.44h-85.05v2.44ZM262.68 261.63h85.05v46.55h-85.05zM305.21 187.08c-23.45 0-42.52 19.08-42.52 42.52v2.44h85.05v-2.44c0-23.45-19.08-42.52-42.52-42.52ZM262.68 337.77h85.05v46.55h-85.05z"></path></svg>