<svg width="634" viewBox="0 0 634 642" height="642" xml:space="preserve" style="enable-background:new 0 0 582.8 582.8"><path d="m632.884 454.343-1.67 11.492-18.36-11.042C562.134 565.28 450.555 642 321 642 143.744 642 0 498.256 0 321S143.744 0 321 0c134.756 0 250.123 83.075 297.695 200.753l-23.882 9.63C550.964 102.206 444.713 25.68 321 25.68 158.189 25.68 25.68 158.189 25.68 321S158.189 616.32 321 616.32c119.926 0 223.48-71.968 269.64-174.88l-12.519-7.512C534.593 532.732 435.725 601.875 321 601.875 166.15 601.875 40.125 475.85 40.125 321S166.15 40.125 321 40.125c117.679 0 218.665 72.739 260.395 175.651l-23.818 9.63C519.699 131.931 427.957 65.805 321 65.805 180.274 65.805 65.805 180.274 65.805 321S180.274 576.195 321 576.195c105.416 0 196.131-64.2 234.908-155.62l-12.52-7.512C507.245 500.246 421.153 561.75 321 561.75 188.234 561.75 80.25 453.766 80.25 321 80.25 188.234 188.234 80.25 321 80.25c100.858 0 187.464 62.338 223.223 150.549l-23.818 9.63C488.434 161.656 411.073 105.93 321 105.93c-118.577 0-215.07 96.493-215.07 215.07S202.423 536.07 321 536.07c89.43 0 166.342-54.891 198.699-132.83l-14.124-3.53C474.887 471.355 403.69 521.624 321 521.624c-110.617 0-200.625-90.008-200.625-200.625S210.383 120.375 321 120.375c84.038 0 156.199 52.002 186.052 125.447l-23.819 9.63c-26-64.072-88.917-109.397-162.233-109.397-96.493 0-174.945 78.452-174.945 174.945S224.507 495.945 321 495.945c70.684 0 131.674-42.051 159.216-102.527l-14.252-3.596C440.155 444.007 384.944 481.5 321 481.5c-88.532 0-160.5-71.968-160.5-160.5S232.468 160.5 321 160.5c67.282 0 124.997 41.602 148.751 100.409l-23.818 9.63C426.031 221.105 377.496 186.18 321 186.18c-74.344 0-134.82 60.476-134.82 134.82S246.656 455.82 321 455.82c51.81 0 96.878-29.404 119.412-72.353l-21.956-5.457 5.65-6.741c1.476-1.734 3.723-2.89 6.162-2.89h19.389c4.43-8.217 11.106-12.968 15.921-11.042 3.339 1.348 5.008 5.586 4.944 11.043h20.993c3.98-6.613 9.694-10.337 14.381-8.796 3.274 1.027 5.393 4.366 6.227 8.796h16.5c.128-1.028.32-2.055.578-3.146 3.017-14.317 12.07-24.46 20.223-22.727 8.153 1.733 12.262 14.702 9.244 29.018-.577 2.633-1.284 5.072-2.247 7.383l13.482 11.3c3.788-4.687 8.41-7.127 12.327-5.843 5.778 1.862 8.089 10.914 5.585 20.801l17.527 14.766c3.081-2.504 6.356-3.53 9.052-2.44 3.916 1.541 5.585 7.127 4.75 13.996l7.191 6.035c4.944 4.045 7.447 10.4 6.549 16.82"></path></svg>