<svg data-name="Layer 1" xmlns="http://www.w3.org/2000/svg" viewBox="0 0 553.9 618.88"><path d="M1.56 167.56 0 170.25l185.97 139.21L.02 448.66l1.53 2.65 245.73-141.85L1.56 167.56zM553.9 170.25l-1.53-2.65-245.75 141.86 245.7 141.89 1.56-2.69-185.96-139.2L553.9 170.25zM262.09 0h-3.11l-27.53 230.68-213.56-91.42-1.53 2.66 245.75 141.85L262.09 0zM291.81 618.88h3.11l27.53-230.64 213.54 91.41 1.53-2.66-245.73-141.84.02 283.73zM535.93 139.13l-213.52 91.53L294.76 0h-3.07l.09 283.76 245.71-141.94-1.56-2.69zM16.43 477.09l1.56 2.69 213.5-91.52 27.64 230.62h3.08l-.09-283.72L16.43 477.09z"></path></svg>