<svg xmlns="http://www.w3.org/2000/svg" width="642" viewBox="0 0 642 313.78" height="313.78" data-name="Layer 1"><path d="M581.59 239.04c-20.44-13.4-40.61-19.99-59.41-19.66l-1.35.02-1.35-.02c-18.88-.33-38.97 6.26-59.41 19.66-23.97 15.72-47.67 23.65-71.22 22.98h-2c-.77.01-1.74.04-2.9.04-8.13 0-25.44-1.02-48.1-11.67-5.22-2.45-7.45-8.66-5-13.88 2.45-5.22 8.65-7.45 13.88-5 21.44 10.08 36.66 9.77 41.68 9.65l1.45-.02 1.41.02c19.1.44 38.98-6.21 59.35-19.57 24.02-15.75 47.96-23.55 71.25-23.08h1.92c23.5-.52 47.24 7.32 71.25 23.08 16.71 10.95 33.1 17.32 48.97 19.04V118c-19.87-1.74-40.13-9.31-60.41-22.61-20.44-13.4-40.61-20.13-59.41-19.66l-1.35.02-1.35-.02c-19.02-.46-38.98 6.26-59.42 19.66-23.97 15.72-47.93 23.44-71.22 22.99l-.99-.02-.99.02c-23.4.44-47.25-7.27-71.22-22.99-20.43-13.4-40.45-20.06-59.41-19.66l-1.35.02-1.35-.02c-18.95-.35-38.98 6.26-59.42 19.66-23.97 15.72-47.89 23.5-71.22 22.99l-.99-.02c-5.76 0-10.43-4.67-10.43-10.43s4.67-10.43 10.43-10.43l1.41.02c19.1.5 38.97-6.2 59.36-19.57 24.01-15.75 47.91-23.49 71.25-23.08h1.92c23.24-.4 47.24 7.33 71.25 23.08 20.38 13.37 40.31 20.08 59.35 19.57l1.41-.02 1.41.02c19.1.5 38.98-6.2 59.35-19.57 24.02-15.75 47.96-23.49 71.25-23.08h1.92c23.5-.46 47.24 7.33 71.25 23.08 16.71 10.96 33.1 17.37 48.97 19.07V0H0v127.07c20.04 1.65 40.6 9.23 61.13 22.7 20.39 13.37 40.23 20 59.35 19.57l1.41-.02 1.41.02c19.22.53 38.97-6.2 59.36-19.57 24.01-15.75 47.91-23.51 71.25-23.08h1.92c23.24-.44 47.24 7.33 71.25 23.08 20.38 13.37 40.31 20.11 59.35 19.57l1.41-.02 1.41.02c19.1.53 38.98-6.2 59.35-19.57 24.02-15.75 47.96-23.51 71.25-23.08h.96c5.76.01 10.43 4.68 10.43 10.45s-4.67 10.43-10.43 10.43l-1.35-.02c-19.02-.39-38.98 6.26-59.42 19.66-23.29 15.27-46.56 23.01-69.22 23.01-.66 0-1.33 0-2-.03h-1.98c-23.4.56-47.25-7.27-71.22-22.98-20.43-13.4-40.45-20.02-59.41-19.66l-1.35.02-1.35-.02c-18.95-.3-38.98 6.26-59.42 19.66-23.97 15.72-47.89 23.73-71.22 22.98h-1.98c-23.34.71-47.25-7.26-71.22-22.98-16.98-11.13-33.66-17.51-49.69-19.17v165.73h642v-52.13c-19.88-1.66-40.13-9.31-60.41-22.61Z" style="stroke-width:0"></path></svg>