<svg xmlns="http://www.w3.org/2000/svg" width="642" viewBox="0 0 642 531.3" height="531.3" style="overflow:visible;enable-background:new 0 0 642 531.3" xml:space="preserve"><path d="M257.7 50.6c1.7 3.8 5.5 6.4 9.9 6.4s8.2-2.6 9.9-6.4h-19.8z"></path><path d="M259.6 264.4H154.5c-60.7 0-109.9-49.2-109.9-109.9s49.2-110 109.9-110h148.4c2.6 0 4.7 2.1 4.8 4.7V0H154.5C69.2 0 0 69.2 0 154.5S69.2 309 154.5 309h108.7v222.3h44.5V311.9c-.4-26.3-21.8-47.5-48.1-47.5z"></path><path d="M271.4 73.6c-4.2.6-8.5.3-12.5-1-3.3-1-5-2.1-7.3-3.2-10.4-4.8-22.3-7.3-34.7-6.4-26.9 2-53.3 5.8-79.1 11.3-37.2 7.7-65.2 40.6-65.2 80.2 0 45.2 36.7 81.9 81.9 81.9h115.2c16.7 0 31.1 9.6 38 23.6V49.5c0 1.2-.5 2.3-1.3 3.2-10.8 11.9-25.7 19.4-35 20.9zm-14.6 112.6c0 3.1-2.5 5.6-5.6 5.6h-96.7c-20.6 0-37.3-16.7-37.3-37.3s16.7-37.3 37.3-37.3h96.7c3.1 0 5.6 2.5 5.6 5.6v63.4z"></path><g><path d="M384.3 50.6c-1.7 3.8-5.5 6.4-9.9 6.4s-8.2-2.6-9.9-6.4h19.8z"></path><path d="M382.4 264.4h105.1c60.7 0 109.9-49.2 109.9-109.9s-49.2-110-109.9-110H339.1c-2.6 0-4.7 2.1-4.8 4.7V0h153.2C572.8 0 642 69.2 642 154.5S572.8 309 487.5 309H378.9v222.3h-44.5V311.9c.3-26.3 21.7-47.5 48-47.5z"></path><path d="M335.6 52.7c-.8-.9-1.3-2-1.3-3.2V260c6.9-14 21.4-23.6 38-23.6h115.2c45.2 0 81.9-36.7 81.9-81.9 0-39.5-28-72.5-65.2-80.2C478.4 68.8 452 65 425.1 63c-12.5-.8-24.3 1.6-34.7 6.4-2.3 1.1-4 2.2-7.3 3.2-4 1.3-8.3 1.5-12.5 1-9.3-1.5-24.2-9-35-20.9zm49.6 70.1c0-3.1 2.5-5.6 5.6-5.6h96.7c20.6 0 37.3 16.7 37.3 37.3s-16.7 37.3-37.3 37.3h-96.7c-3.1 0-5.6-2.5-5.6-5.6v-63.4z"></path></g></svg>