<svg xmlns="http://www.w3.org/2000/svg" width="642" viewBox="0 0 642 642" height="642" data-name="Layer_1"><circle cx="215.87" cy="320.2" r="17.65"></circle><circle cx="426.13" cy="320.2" r="17.65"></circle><path d="M321 0C143.72 0 0 143.72 0 321s143.72 321 321 321 321-143.72 321-321S498.28 0 321 0Zm0 43.74c114.4 0 212.59 69.29 254.95 168.18l-.17.07c-14.38-30.32-50.11-44.39-81.45-31.41a63.43 63.43 0 0 0-11.8 6.41c-41.53-23.6-88.73-38.38-139.05-41.79v337h-44.94V145.21c-50.32 3.41-97.52 18.19-139.05 41.79a63.75 63.75 0 0 0-11.8-6.41c-31.37-12.99-67.12 1.11-81.48 31.46l-.17-.07C108.37 113.05 206.58 43.74 321 43.74Zm184.64 288.92L390.81 424V322.13c0-31.91 25.87-57.78 57.78-57.78h50.08v-24.4c0-10.19 8.26-18.46 18.46-18.46s18.46 8.26 18.46 18.46c0 5.79-2.67 10.96-6.84 14.34l-41.74 33.8a159.615 159.615 0 0 1 18.64 44.57Zm-392.39-78.37a18.42 18.42 0 0 1-6.84-14.34c0-10.19 8.26-18.46 18.46-18.46s18.46 8.26 18.46 18.46v24.4h50.08c31.91 0 57.78 25.87 57.78 57.78V424l-114.83-91.34A159.615 159.615 0 0 1 155 288.09l-41.74-33.8ZM321 598.26C167.87 598.26 43.74 474.12 43.74 321c0-36.44 7.1-71.2 19.88-103.07l.13.05c-11.06 31.12 3.63 65.73 34.03 79.16a138.22 138.22 0 0 0-16.3 52.36l169.93 135.17c2.53 25.28 23.73 44.98 49.57 44.98h40.06c25.83 0 47.03-19.71 49.56-44.98L560.53 349.5a138.276 138.276 0 0 0-16.3-52.36c30.42-13.44 45.11-48.08 34.01-79.22l.13-.05c12.79 31.89 19.9 66.67 19.9 103.13 0 153.13-124.14 277.26-277.26 277.26Z"></path></svg>