<svg data-name="Layer 1" xmlns="http://www.w3.org/2000/svg" viewBox="0 0 611.87 405.11"><path d="M409.31 0c-30.7 0-59.8 6.85-85.87 19.09 19.64 25.14 31.39 56.75 31.39 91.12 0 43.64-18.87 82.88-48.9 109.99-30.02-27.12-48.9-66.35-48.9-109.99 0-34.38 11.75-65.98 31.39-91.12C262.35 6.85 233.26 0 202.55 0 90.69 0 0 90.69 0 202.55S90.69 405.1 202.55 405.1c26.47 0 51.73-5.11 74.9-14.35V228.28h56.96v162.48c23.17 9.24 48.43 14.35 74.9 14.35 111.87 0 202.55-90.69 202.55-202.55S521.18 0 409.31 0ZM242.79 224.46c-65.96 0-122.41-40.57-145.85-98.11 18.28-4.68 31.8-21.22 31.8-40.95 0-.43-.05-.85-.06-1.27 73.17 7.59 131.42 65.3 139.91 138.19-8.4 1.39-17.01 2.14-25.81 2.14Zm126.28 0c-8.79 0-17.41-.76-25.81-2.14 8.49-72.9 66.74-130.6 139.91-138.19-.01.43-.06.84-.06 1.27 0 19.74 13.53 36.27 31.8 40.95-23.44 57.54-79.89 98.11-145.85 98.11Z"></path></svg>