<svg xmlns="http://www.w3.org/2000/svg" width="625.5" viewBox="0 0 625.5 616.4" height="616.4" style="enable-background:new 0 0 625.5 616.4" xml:space="preserve"><path d="M48.6 0c26.5 0 48 21.5 48 48s-21.5 48-48 48S.6 74.5.6 48 22 0 48.6 0M154.6 104.1c26.5 0 48 21.5 48 48s-21.5 48-48 48-48-21.5-48-48 21.5-48 48-48M48.6 207.3c26.5 0 48 21.5 48 48s-21.5 48-48 48-48-21.5-48-48 21.4-48 48-48"></path><path d="M48.6 0c26.5 0 48 21.5 48 48s-21.5 48-48 48S.6 74.5.6 48 22 0 48.6 0M154.6 312.3c26.5 0 48 21.5 48 48s-21.5 48-48 48-48-21.5-48-48 21.5-48 48-48M154.6 520.3c26.5 0 48 21.5 48 48s-21.5 48-48 48-48-21.5-48-48 21.5-48 48-48M48 415.7c26.5 0 48 21.5 48 48s-21.5 48-48 48-48-21.5-48-48 21.5-48 48-48M48.6 207.3c26.5 0 48 21.5 48 48s-21.5 48-48 48-48-21.5-48-48 21.4-48 48-48M260 0c26.5 0 48 21.5 48 48s-21.5 48-48 48-48-21.5-48-48 21.4-48 48-48M366 104.1c26.5 0 48 21.5 48 48s-21.5 48-48 48-48-21.5-48-48 21.5-48 48-48M260 207.3c26.5 0 48 21.5 48 48s-21.5 48-48 48-48-21.5-48-48 21.4-48 48-48"></path><path d="M260 0c26.5 0 48 21.5 48 48s-21.5 48-48 48-48-21.5-48-48 21.4-48 48-48M366 312.3c26.5 0 48 21.5 48 48s-21.5 48-48 48-48-21.5-48-48 21.5-48 48-48M366 520.3c26.5 0 48 21.5 48 48s-21.5 48-48 48-48-21.5-48-48 21.5-48 48-48M259.4 415.7c26.5 0 48 21.5 48 48s-21.5 48-48 48-48-21.5-48-48 21.5-48 48-48M260 207.3c26.5 0 48 21.5 48 48s-21.5 48-48 48-48-21.5-48-48 21.4-48 48-48M471.4 0c26.5 0 48 21.5 48 48s-21.5 48-48 48-48-21.5-48-48 21.4-48 48-48M577.4 104.1c26.5 0 48 21.5 48 48s-21.5 48-48 48-48-21.5-48-48 21.5-48 48-48M471.4 207.3c26.5 0 48 21.5 48 48s-21.5 48-48 48-48-21.5-48-48 21.4-48 48-48"></path><path d="M471.4 0c26.5 0 48 21.5 48 48s-21.5 48-48 48-48-21.5-48-48 21.4-48 48-48M577.4 312.3c26.5 0 48 21.5 48 48s-21.5 48-48 48-48-21.5-48-48 21.5-48 48-48M577.4 520.3c26.5 0 48 21.5 48 48s-21.5 48-48 48-48-21.5-48-48 21.5-48 48-48M470.8 415.7c26.5 0 48 21.5 48 48s-21.5 48-48 48-48-21.5-48-48 21.5-48 48-48M471.4 207.3c26.5 0 48 21.5 48 48s-21.5 48-48 48-48-21.5-48-48 21.4-48 48-48M8.2 319.4h80.7v80.7H8.2zM8.2 527.4h80.7v80.7H8.2zM219.6 319.4h80.7v80.7h-80.7zM219.6 527.4h80.7v80.7h-80.7zM113 422.8h80.7v80.7H113zM324.4 422.8h80.7v80.7h-80.7zM535.8 422.8h80.7v80.7h-80.7zM431 319.4h80.7v80.7H431zM431 527.4h80.7v80.7H431z"></path></svg>