<svg data-name="Layer 1" xmlns="http://www.w3.org/2000/svg" viewBox="0 0 459.01 619.89"><path d="M99.12 550.14c0-22.89 5.97-44.39 16.37-63.1l.03.02.14-.3c22.32-39.91 64.95-66.99 113.84-66.99 71.89 0 130.38 58.49 130.38 130.38 0 25.43-8.14 49.43-21.97 69.75h109.44c7.52-22.1 11.65-45.55 11.65-69.75 0-31.91-6.64-62.27-18.48-89.9l.08.03-.6-1.31c-.68-1.56-1.42-3.1-2.13-4.64L229.47 0 22.07 452.19c-.75 1.59-1.48 3.19-2.2 4.8l-1.51 3.29h.11C6.65 487.9 0 518.24 0 550.14c0 24.42 3.55 47.83 10.12 69.75h107.25c-11.57-19.94-18.25-43.68-18.25-69.75Zm130.42-312.15 39.49 86.12c-12.85-2.24-26.04-3.48-39.52-3.48s-26.57 1.23-39.38 3.45l39.41-86.1Z"></path></svg>