<svg data-name="Layer 1" xmlns="http://www.w3.org/2000/svg" viewBox="0 0 607.1 627.07"><path d="M590.83 1.21c-9.73-2.43-19.45 1.85-24.2 10.7L402.57 317.84c-1.6 2.97-4.36 2.94-5.47 2.79-1.11-.15-3.78-.85-4.53-4.14l-68.08-298.5c-2.17-9.5-9.81-16.48-19.46-17.78-9.65-1.3-18.87 3.4-23.48 11.99l-163.9 305.64c-1.6 2.97-4.35 2.94-5.47 2.79-1.12-.15-3.79-.85-4.54-4.14L39.25 16.6C36.96 6.57 27.91.08 17.65 1.27 7.42 2.42 0 10.73 0 21.02V605c0 10.03 6.54 18.42 16.27 20.86 9.74 2.45 19.46-1.86 24.2-10.69l164.06-305.94c1.59-2.97 4.35-2.95 5.46-2.79 1.12.15 3.79.85 4.54 4.14l68.08 298.5c2.17 9.5 9.81 16.48 19.46 17.78 1.07.14 2.13.21 3.18.21 8.46 0 16.2-4.57 20.3-12.21l163.9-305.64c1.59-2.96 4.35-2.95 5.47-2.79 1.11.15 3.79.85 4.53 4.14l68.4 299.89c2.29 10.03 11.36 16.49 21.6 15.33 10.23-1.15 17.65-9.45 17.65-19.75V22.07c0-10.03-6.54-18.42-16.27-20.86Zm-1.42 604.84c0 .63 0 1.95-1.94 2.17-1.93.17-2.23-1.07-2.37-1.68l-68.4-299.89c-2.16-9.48-9.78-16.44-19.42-17.74-9.61-1.3-18.82 3.4-23.42 11.96l-163.9 305.64c-1.61 3.01-4.39 2.98-5.52 2.82-1.12-.15-3.82-.86-4.58-4.18l-68.08-298.5c-2.16-9.48-9.78-16.44-19.42-17.74-1.06-.14-2.12-.21-3.17-.21-8.44 0-16.16 4.56-20.25 12.18L24.87 606.8c-1.22 2.28-3.22 2.16-4.29 1.9-1.08-.27-2.89-1.11-2.89-3.7V21.02c0-.63 0-1.95 1.94-2.17 1.98-.18 2.23 1.07 2.37 1.69l68.4 299.89c2.16 9.47 9.78 16.44 19.42 17.73 9.63 1.33 18.82-3.39 23.42-11.96l163.9-305.64c1.61-3 4.4-2.97 5.53-2.82 1.12.15 3.82.86 4.58 4.18l68.08 298.5c2.16 9.48 9.78 16.44 19.42 17.74 9.63 1.33 18.83-3.39 23.43-11.96L582.23 20.27c1.23-2.28 3.21-2.16 4.29-1.9 1.08.27 2.89 1.11 2.89 3.7v583.98Z"></path></svg>