<svg data-name="Layer 1" xmlns="http://www.w3.org/2000/svg" viewBox="0 0 602.3 510.39"><path d="M291.88 0 0 510.39h121.5l11.38-20.14 12.07 20.14h14.54l-19.56-32.62 6.37-11.28 26.33 43.9h14.54L153.36 454l6.37-11.27 40.57 67.66h14.54l-48.06-80.15 6.38-11.28 54.82 91.43h14.54l-62.31-103.91 6.37-11.28 69.07 115.19h14.54l-76.55-127.68 6.37-11.28 83.32 138.96h14.54l-90.8-151.44 6.37-11.28L311 510.39h14.54L220.49 335.18l6.38-11.28 111.81 186.49h14.54l-119.3-198.97 6.37-11.28 126.06 210.25h14.54L247.35 287.66l6.37-11.28 140.31 234.01h14.54l-147.79-246.5 6.37-11.28L421.7 510.39h14.54L274.2 240.13l6.38-11.28 168.8 281.54h14.54L287.63 216.36l6.37-11.28 183.05 305.31h14.54L301.06 192.6l6.37-11.28 197.3 329.07h14.54L314.48 168.83l6.38-11.27L532.4 510.39h14.54L327.91 145.07l6.37-11.28 225.8 376.6h14.54L341.34 121.31l6.37-11.28 240.05 400.36h14.54"></path></svg>