<svg id="Layer_1" data-name="Layer 1" xmlns="http://www.w3.org/2000/svg" viewBox="0 0 620.43 609.44">   <polygon points="533.37 261.19 533.37 174.12 446.3 174.12 446.3 87.06 359.24 87.06 359.24 0 272.18 0 272.18 174.12 359.24 174.12 359.24 261.19 446.3 261.19 446.3 348.25 359.24 348.25 359.24 522.37 446.3 522.37 446.3 435.31 533.37 435.31 533.37 348.25 620.43 348.25 620.43 261.19 533.37 261.19"></polygon>   <polygon points="261.19 348.25 174.12 348.25 174.12 261.19 261.19 261.19 261.19 87.06 174.12 87.06 174.12 174.12 87.06 174.12 87.06 261.19 0 261.19 0 348.25 87.06 348.25 87.06 435.31 174.12 435.31 174.12 522.37 261.19 522.37 261.19 609.44 348.25 609.44 348.25 435.31 261.19 435.31 261.19 348.25"></polygon>   <circle cx="310.21" cy="304.72" r="60.83" transform="translate(-44.8 53.63) rotate(-9.22)"></circle> </svg>