<svg xmlns="http://www.w3.org/2000/svg" width="642" viewBox="0 0 642 642" height="642" data-name="Layer 1"><path d="M314.58 57.78v49.18c-14.51-22.79-40.06-37.94-69.02-37.94H69.01v176.55c0 28.95 15.15 54.51 37.94 69.02H57.77c-31.91 0-57.78-25.87-57.78-57.78V0h256.8c31.91 0 57.78 25.87 57.78 57.78Z"></path><path d="M314.58 150.87v36.08c-14.19-21.7-38.65-36.08-66.45-36.08h-97.26v97.26c0 27.8 14.38 52.26 36.08 66.45h-36.08c-38.13 0-69.02-30.88-69.02-69.02V81.85h163.71c38.13 0 69.02 30.88 69.02 69.02Z"></path><path d="M314.58 230.16v14.32c-7.45-7.32-17.66-11.75-28.89-11.75h-52.97v52.96c0 11.23 4.43 21.44 11.75 28.89h-14.32c-36.72 0-66.45-29.72-66.45-66.45v-84.42h84.42c36.72 0 66.45 29.72 66.45 66.45Z"></path><path d="M245.56 245.56h40.12c15.96 0 28.89 12.93 28.89 28.89v40.12h-40.12c-15.96 0-28.89-12.93-28.89-28.89v-40.12ZM327.42 57.78v49.18c14.51-22.79 40.06-37.94 69.01-37.94h176.55v176.55c0 28.95-15.15 54.51-37.94 69.01h49.18c31.91 0 57.78-25.87 57.78-57.78V0H385.2c-31.91 0-57.78 25.87-57.78 57.78Z"></path><path d="M327.42 150.87v36.08c14.19-21.7 38.65-36.08 66.45-36.08h97.26v97.26c0 27.8-14.38 52.26-36.08 66.45h36.08c38.13 0 69.02-30.88 69.02-69.01V81.86H396.44c-38.13 0-69.02 30.88-69.02 69.01Z"></path><path d="M327.42 230.16v14.32c7.45-7.32 17.65-11.75 28.89-11.75h52.97v52.97c0 11.24-4.43 21.44-11.75 28.89h14.32c36.72 0 66.45-29.72 66.45-66.45v-84.42h-84.42c-36.72 0-66.45 29.72-66.45 66.45Z"></path><path d="M396.44 245.57h-40.12c-15.96 0-28.89 12.93-28.89 28.89v40.12h40.12c15.96 0 28.89-12.93 28.89-28.89v-40.12ZM314.58 584.22v-49.18c-14.51 22.79-40.06 37.94-69.02 37.94H69.01V396.43c0-28.95 15.15-54.51 37.94-69.01H57.77c-31.91 0-57.78 25.87-57.78 57.78V642h256.8c31.91 0 57.78-25.87 57.78-57.78Z"></path><path d="M314.58 491.13v-36.08c-14.19 21.7-38.65 36.08-66.45 36.08h-97.26v-97.26c0-27.8 14.38-52.26 36.08-66.45h-36.08c-38.13 0-69.02 30.88-69.02 69.01v163.71h163.71c38.13 0 69.02-30.88 69.02-69.02Z"></path><path d="M314.58 411.84v-14.32c-7.45 7.32-17.66 11.75-28.89 11.75h-52.97V356.3c0-11.24 4.43-21.44 11.75-28.89h-14.32c-36.72 0-66.45 29.72-66.45 66.45v84.42h84.42c36.72 0 66.45-29.72 66.45-66.45Z"></path><path d="M245.56 396.44h40.12c15.96 0 28.89-12.93 28.89-28.89v-40.12h-40.12c-15.96 0-28.89 12.93-28.89 28.89v40.12ZM327.42 584.22v-49.18c14.51 22.79 40.06 37.94 69.01 37.94h176.55V396.43c0-28.95-15.15-54.51-37.94-69.01h49.18c31.91 0 57.78 25.87 57.78 57.78V642H385.2c-31.91 0-57.78-25.87-57.78-57.78Z"></path><path d="M327.42 491.13v-36.08c14.19 21.7 38.65 36.08 66.45 36.08h97.26v-97.26c0-27.8-14.38-52.26-36.08-66.45h36.08c38.13 0 69.02 30.88 69.02 69.01v163.71H396.44c-38.13 0-69.02-30.88-69.02-69.01Z"></path><path d="M327.42 411.84v-14.32c7.45 7.32 17.65 11.75 28.89 11.75h52.97V356.3c0-11.23-4.43-21.44-11.75-28.89h14.32c36.72 0 66.45 29.72 66.45 66.45v84.42h-84.42c-36.72 0-66.45-29.72-66.45-66.45Z"></path><path d="M396.44 396.43h-40.12c-15.96 0-28.89-12.93-28.89-28.89v-40.12h40.12c15.96 0 28.89 12.93 28.89 28.89v40.12Z"></path></svg>