<svg xmlns="http://www.w3.org/2000/svg" width="621.1" viewBox="0 0 621.1 621.1" height="621.1" style="enable-background:new 0 0 621.1 621.1" xml:space="preserve"><path d="M621.1 223c0-13.6-7.4-25.4-18.3-31.8 4.3-5.8 6.9-13.1 6.9-20.9 0-12.2-6.2-22.9-15.7-29.3 3.7-5.2 5.9-11.6 5.9-18.5 0-11.4-6-21.4-15-27 2.9-4.7 4.6-10.2 4.6-16.1 0-13.3-8.5-24.9-21-29-29.6-9.6-119.2-32-313.5-32.3C248.6 7.3 236.8 0 223.3 0s-25.4 7.4-31.8 18.3c-5.8-4.3-13.1-6.9-20.9-6.9-12.2 0-22.9 6.2-29.3 15.7-5.2-3.7-11.6-5.9-18.5-5.9-11.4 0-21.4 6-27 15-4.7-2.9-10.2-4.6-16.1-4.6-13.3 0-24.9 8.5-29 21-9.6 29.6-32 119.2-32.3 313.6C7.5 372.6 0 384.5 0 398.1c0 13.6 7.4 25.4 18.3 31.8-4.3 5.8-6.9 13.1-6.9 20.9 0 12.2 6.2 22.9 15.7 29.3-3.7 5.2-5.9 11.6-5.9 18.5 0 11.4 6 21.4 15 27-2.9 4.7-4.6 10.2-4.6 16.1 0 13.3 8.5 24.9 21 29 29.6 9.7 119.2 32 313.5 32.3 6.4 10.9 18.2 18.2 31.7 18.2s25.4-7.4 31.8-18.3c5.8 4.3 13.1 6.9 20.9 6.9 12.2 0 22.9-6.2 29.3-15.7 5.2 3.7 11.6 5.9 18.5 5.9 11.4 0 21.4-6 27-15 4.7 2.9 10.2 4.6 16.1 4.6 13.3 0 24.9-8.5 29-21 9.6-29.6 32-119.2 32.3-313.6 10.9-6.5 18.4-18.4 18.4-32zM570.2 79.5c0 6.2-5.1 11.3-11.3 11.3h-88.4v19.3H568c6.9 0 12.6 5.6 12.6 12.5s-5.6 12.5-12.6 12.5h-95.8v19.3h102.2c8.8 0 15.9 7.1 15.9 15.9s-7.1 15.9-15.9 15.9H474.3v19.3h110c9.6 0 17.5 7.8 17.5 17.5 0 9.6-7.8 17.5-17.5 17.5H410c-19 0-34.5-15.5-34.5-34.5V104h-19.3v55.4h-96.1V37.5c188 .7 274 22.1 302.4 31.4 4.6 1.4 7.7 5.7 7.7 10.6zM69.1 58.6c1.5-4.6 5.8-7.7 10.7-7.7 6.2 0 11.3 5 11.3 11.3v88.4h19.3V53c0-6.9 5.6-12.5 12.5-12.5s12.5 5.6 12.5 12.5v95.8h19.3V46.6c0-8.8 7.1-15.9 15.9-15.9s15.9 7.1 15.9 15.9v100.2h19.3v-110c0-9.6 7.8-17.5 17.5-17.5 9.6 0 17.5 7.8 17.5 17.5v174.4c0 19-15.5 34.5-34.5 34.5h-102V265h55.4v96.4H37.8c.7-188.3 22.1-274.3 31.3-302.8zm-18.2 483c0-6.2 5.1-11.3 11.3-11.3h88.4V511H53c-6.9 0-12.5-5.6-12.5-12.5S46.1 486 53 486h95.8v-19.3H46.6c-8.8 0-15.9-7.1-15.9-15.9s7.1-15.9 15.9-15.9h100.2v-19.3h-110c-9.6 0-17.5-7.8-17.5-17.5 0-9.6 7.8-17.5 17.5-17.5h174.4c19 0 34.5 15.5 34.5 34.5v102H265v-55.4h96v121.9c-188-.7-274-22.1-302.4-31.4-4.6-1.4-7.7-5.7-7.7-10.6zM361 410v32.5h-96.1v-27.4c0-29.6-24.1-53.8-53.8-53.8h-32.2v-96.4h27.4c29.6 0 53.8-24.1 53.8-53.8v-32.5h96.1V206c0 29.6 24.1 53.8 53.8 53.8h32.2v96.4h-27.4c-29.7 0-53.8 24.1-53.8 53.8zm191 152.5c-1.5 4.6-5.8 7.7-10.7 7.7-6.2 0-11.3-5-11.3-11.3v-88.4h-19.3V568c0 6.9-5.6 12.5-12.6 12.5-6.9 0-12.5-5.6-12.5-12.5v-95.8h-19.3v102.2c0 8.8-7.1 15.9-15.9 15.9s-15.9-7.1-15.9-15.9V474.3h-19.3v110c0 9.6-7.8 17.5-17.5 17.5-9.6 0-17.5-7.8-17.5-17.5V410c0-19 15.5-34.5 34.5-34.5h102v-19.3h-55.4v-96.4h121.9c-.6 188.2-22 274.2-31.2 302.7z"></path></svg>