<svg data-name="Layer 1" xmlns="http://www.w3.org/2000/svg" viewBox="0 0 613.01 613.01"><circle cx="35.43" cy="35.43" r="35.43" transform="rotate(-9.22 35.40137632 35.4335782)"></circle><circle cx="125.79" cy="35.43" r="35.43"></circle><circle cx="216.15" cy="35.43" r="35.43"></circle><circle cx="306.51" cy="35.43" r="35.43" transform="rotate(-67.5 306.50979395 35.43056513)"></circle><circle cx="396.86" cy="35.43" r="35.43"></circle><circle cx="487.22" cy="35.43" r="35.43" transform="rotate(-67.5 487.22644302 35.42989569)"></circle><circle cx="577.58" cy="35.43" r="35.43"></circle><circle cx="35.43" cy="125.79" r="35.43" transform="rotate(-45 35.43490976 125.7923798)"></circle><circle cx="125.79" cy="125.79" r="35.43"></circle><circle cx="216.15" cy="125.79" r="35.43"></circle><circle cx="306.51" cy="125.79" r="35.43" transform="rotate(-13.28 306.58608833 125.80375496)"></circle><circle cx="396.86" cy="125.79" r="35.43"></circle><circle cx="487.22" cy="125.79" r="35.43" transform="rotate(-13.28 487.33401132 125.8183788)"></circle><circle cx="577.58" cy="125.79" r="35.43"></circle><circle cx="35.43" cy="216.15" r="35.43" transform="rotate(-9.22 35.43642862 216.11896884)"></circle><circle cx="125.79" cy="216.15" r="35.43"></circle><circle cx="216.15" cy="216.15" r="35.43"></circle><circle cx="306.51" cy="216.15" r="35.43" transform="rotate(-67.5 306.5104634 216.1472142)"></circle><circle cx="396.86" cy="216.15" r="35.43"></circle><circle cx="487.22" cy="216.15" r="35.43" transform="rotate(-67.5 487.22711246 216.14654475)"></circle><circle cx="577.58" cy="216.15" r="35.43"></circle><circle cx="35.43" cy="306.51" r="35.43" transform="rotate(-13.28 35.44708 306.55121773)"></circle><circle cx="125.79" cy="306.51" r="35.43"></circle><circle cx="216.15" cy="306.51" r="35.43"></circle><circle cx="306.51" cy="306.51" r="35.43" transform="rotate(-45 306.5102995 306.50927694)"></circle><circle cx="396.86" cy="306.51" r="35.43"></circle><circle cx="487.22" cy="306.51" r="35.43" transform="rotate(-45 487.219404 306.50711501)"></circle><circle cx="577.58" cy="306.51" r="35.43"></circle><circle cx="35.43" cy="396.86" r="35.43" transform="rotate(-9.22 35.41447215 396.7373507)"></circle><circle cx="125.79" cy="396.86" r="35.43"></circle><circle cx="216.15" cy="396.86" r="35.43"></circle><circle cx="306.51" cy="396.86" r="35.43" transform="rotate(-67.5 306.5036498 396.85886326)"></circle><circle cx="396.86" cy="396.86" r="35.43"></circle><circle cx="487.22" cy="396.86" r="35.43" transform="rotate(-67.5 487.22029887 396.85819382)"></circle><circle cx="577.58" cy="396.86" r="35.43"></circle><circle cx="35.43" cy="487.22" r="35.43" transform="rotate(-9.22 35.4294983 487.11105041)"></circle><circle cx="125.79" cy="487.22" r="35.43"></circle><circle cx="216.15" cy="487.22" r="35.43"></circle><circle cx="306.51" cy="487.22" r="35.43" transform="rotate(-67.5 306.50398453 487.2171878)"></circle><circle cx="396.86" cy="487.22" r="35.43"></circle><circle cx="487.22" cy="487.22" r="35.43" transform="rotate(-67.5 487.2206336 487.21651836)"></circle><circle cx="577.58" cy="487.22" r="35.43"></circle><circle cx="35.43" cy="577.58" r="35.43" transform="rotate(-45 35.42927904 577.57471212)"></circle><circle cx="125.79" cy="577.58" r="35.43"></circle><circle cx="216.15" cy="577.58" r="35.43"></circle><circle cx="306.51" cy="577.58" r="35.43" transform="rotate(-13.28 306.57100427 577.67606244)"></circle><circle cx="396.86" cy="577.58" r="35.43"></circle><circle cx="487.22" cy="577.58" r="35.43" transform="rotate(-13.28 487.31892726 577.69068628)"></circle><circle cx="577.58" cy="577.58" r="35.43"></circle></svg>