<svg xmlns="http://www.w3.org/2000/svg" width="604.79" viewBox="0 0 604.79 559.94" height="559.94" style="enable-background:new 0 0 604.79 559.94" xml:space="preserve"><path d="M302.49 0C220.75 0 154.5 66.26 154.5 147.99s66.26 147.99 147.99 147.99 147.99-66.26 147.99-147.99S384.22 0 302.49 0zm51.62 147.99-.02.05c-.68 2.48-51.61 145.54-51.61 145.54s-50.9-143-51.56-145.39l-.07-.21h.01a53.733 53.733 0 0 1-1.92-14.21c0-29.57 23.97-53.54 53.54-53.54s53.54 23.97 53.54 53.54c.01 4.94-.67 9.7-1.91 14.22z"></path><path d="M584.88 486.02c40.92-70.75 16.73-161.28-54.02-202.2s-161.28-16.73-202.2 54.02c-40.92 70.75-16.73 161.28 54.02 202.2s161.28 16.73 202.2-54.02zm-153.96-29.4-.04-.04c-1.8-1.83-100.16-117.54-100.16-117.54S480 366.57 482.4 367.19l.22.04-.01.01c4.54 1.19 9 2.99 13.26 5.45 25.6 14.8 34.35 47.56 19.54 73.15-14.8 25.6-47.56 34.35-73.15 19.54a53.898 53.898 0 0 1-11.34-8.76z"></path><path d="M19.74 485.41c40.76 70.84 131.24 95.23 202.08 54.46s95.23-131.24 54.46-202.08-131.24-95.23-202.08-54.46-95.22 131.23-54.46 202.08zm102.53-118.56.06-.01c2.49-.64 151.89-27.86 151.89-27.86s-98.57 115.44-100.3 117.2l-.14.17-.01-.01c-3.3 3.34-7.09 6.3-11.36 8.75-25.63 14.75-58.36 5.93-73.11-19.7s-5.93-58.36 19.7-73.11c4.27-2.46 8.73-4.24 13.27-5.43z"></path></svg>