<svg xmlns="http://www.w3.org/2000/svg" width="388.5" viewBox="0 0 388.5 616.4" height="616.4" xml:space="preserve"><path d="M269.5 0v246.5c0 11.2 1.5 22.4 4.5 33.2l16.2 58.6c3.3 11.7 4.5 20.4 4.5 30.7v221.2h-32.5V0h-1.9v590.3h-32V369.1c0-10.4 1.3-19 4.5-30.7l16.2-58.6c3-10.8 4.5-22 4.5-33.2V0h-119v246.5c0 11.2 1.5 22.4 4.5 33.2l16.2 58.6c3.3 11.7 4.5 20.4 4.5 30.7v221.2h-32.5V0h-1.9v590.3h-32V369.1c0-10.4 1.3-19 4.5-30.7l16.2-58.6c3-10.8 4.5-22 4.5-33.2V0H0v246.5c0 11.2 1.5 22.4 4.5 33.2l16.2 58.6c3.3 11.7 4.5 20.4 4.5 30.7v247.3h26.1V369.1c0-12.8-1.6-23.7-5.5-37.7l-16.2-58.6c-2.4-8.5-3.6-17.4-3.6-26.2V26.1h32.2v590.3h1.9V26.1h32.8v220.5c0 8.9-1.2 17.7-3.6 26.2l-16.2 58.6c-3.9 14-5.5 24.9-5.5 37.7v247.3h118.5V369.1c0-12.8-1.6-23.7-5.5-37.7l-16.2-58.6c-2.4-8.5-3.6-17.4-3.6-26.2V26.1H193v590.3h1.9V26.1h32.8v220.5c0 8.9-1.2 17.7-3.6 26.2l-16.2 58.6c-3.9 14-5.5 24.9-5.5 37.7v247.3h118.5V369.1c0-12.8-1.6-23.7-5.5-37.7l-16.2-58.6c-2.4-8.5-3.6-17.4-3.6-26.2V26.1h32.2v590.3h1.9V26.1h32.7v220.5c0 8.9-1.2 17.7-3.6 26.2l-16.2 58.6c-3.9 14-5.5 24.9-5.5 37.7v247.3h26.1V369.1c0-10.4 1.3-19 4.5-30.7l16.2-58.6c3-10.8 4.5-22 4.5-33.2V0H269.5z"></path></svg>