<svg data-name="Layer 1" xmlns="http://www.w3.org/2000/svg" viewBox="0 0 625.7 581.92"><path d="M605.81 359.24 441.25 74.22C414.73 28.29 365.72 0 312.69 0S210.65 28.29 184.13 74.22L20.76 357.18c-25.77 44.64-28.04 99.64-4.08 145.27 25.74 49.01 76.42 79.46 131.45 79.46h143.9c2.34 0 4.24-1.9 4.24-4.24V437.7c0-2.34-1.9-4.24-4.24-4.24H155.48c-3.27 0-5.31-3.53-3.67-6.36l157.21-272.29c1.63-2.83 5.71-2.83 7.35 0l157.21 272.3c1.63 2.83-.41 6.36-3.67 6.36H333.36c-2.34 0-4.24 1.9-4.24 4.24v139.97c0 2.34 1.9 4.24 4.24 4.24h141.52c51.54 0 100.31-25.54 127.84-69.1 29.58-46.79 30.61-105.92 3.09-153.57Z"></path></svg>