<svg xmlns="http://www.w3.org/2000/svg" width="606.4" viewBox="0 0 606.4 532.4" height="532.4"><path d="M604.8 449.8L348.5 5.9c-2.1-3.6-6-5.9-10.2-5.9H268c-4.2 0-8.1 2.2-10.1 5.9L1.6 449.8c-2.1 3.6-2.1 8.1 0 11.7l37.5 65c2.1 3.6 6 5.9 10.2 5.9h507.9c4.2 0 8.1-2.2 10.1-5.9l37.5-64.9c2.1-3.7 2.1-8.2 0-11.8zM260 7.1c1.6-2.9 4.7-4.6 8-4.6h70.3c3.3 0 6.4 1.8 8 4.6L561 378.9l-20.7 36.4L326.5 44.9c-2.1-3.6-6-5.9-10.2-5.9H290c-4.2 0-8.1 2.2-10.2 5.9l-19.5 33.8-41.3-.5 41-71.1zm168.6 374l-41.6.1-104.7-181.1 20.9-36.1 125.4 217.1zm-125.4-140l80.7 139.8H222.5l80.7-139.8zm-1.4-2.4L198.1 418.2h-41.7l124.5-215.7 20.9 36.2zm-80.7 144.7l209 .2 20 34.6H201l20.1-34.8zm83.5-221.9l20.2-34.9 148 254.4-41.3.1-126.9-219.6zm-23.7 36.1L260 161.5l42.4-73.4 20.9 36-42.4 73.5zm-1.4 2.5L153.6 418.2h-41.7l146.8-254.3 20.8 36.2zm-82.8 220.6l-20.1 34.8H91.2c.2-1.2.5-2.3 1.1-3.4l18.1-31.4h86.3zm2.9 0h251.9l20.1 34.8h-292l20-34.8zm233.3-37.1l41.3-.1 41.4 71.2c-1.1.5-2.3.8-3.5.8h-37.8l-41.4-71.9zM303.4 84.9c-2.1-3.5-5.9-5.8-10-5.8l-30.2-.4L282 46.2c1.6-2.9 4.7-4.6 8-4.6h26.3c3.3 0 6.4 1.8 8 4.6l214.5 371.6-18.7 33c-.6 1.1-1.5 1.9-2.4 2.7L303.4 84.9zm-10-3.3c3 0 5.8 1.6 7.5 4.1l-43.2 74.8-.8.5.3.5L90.1 450.9c-2.1 3.6-2.1 8.1 0 11.6l17.2 30.2H73.7c-3.3 0-6.4-1.8-8-4.6L49 459.2c-1.6-2.9-1.6-6.4 0-9.2L261.8 81.2l31.6.4zM92.2 461.3c-.6-1.1-.9-2.2-1-3.4h421c4.2 0 8.1-2.3 10.2-5.9l18-31.7 15.6 27c2.6 4.5 2.6 10.1 0 14.6l-15.1 26.2c-1.6 2.9-4.7 4.6-8 4.6H110.1l-17.9-31.4zm-43 68.6c-3.3 0-6.4-1.8-8-4.6l-37.5-65c-1.6-2.9-1.6-6.4 0-9.2L217.6 80.6l41.4.5L46.8 448.7c-2.1 3.6-2.1 8.1 0 11.7l16.7 28.9c2.1 3.6 6 5.9 10.1 5.9h35l19.8 34.8H49.2zm553.5-69.5l-37.5 64.9c-1.6 2.9-4.7 4.6-8 4.6h-426l-19.8-34.8h421.3c4.2 0 8.1-2.2 10.2-5.9L558 463c3-5.3 3-11.8 0-17.1l-16.3-28.2 20.7-36.4 40.2 69.7c1.8 2.9 1.8 6.5.1 9.4z"></path></svg>