<svg xmlns="http://www.w3.org/2000/svg" width="607.9" viewBox="0 0 607.9 606.2" height="606.2" xml:space="preserve"><path d="M303.9 606.2C136.3 606.2 0 470.2 0 303.1 0 136 136.3 0 303.9 0c167.6 0 303.9 136 303.9 303.1.1 167.1-136.3 303.1-303.9 303.1zm0-594.7c-161.1 0-292.2 130.8-292.2 291.6s131.1 291.6 292.2 291.6 292.2-130.8 292.2-291.6c.1-160.8-131-291.6-292.2-291.6z"></path><path d="M490.3 297.4h111.9v11.4H490.3zM385.5 362.1V247.3c17-4.4 29.7-19.9 29.7-38.4 0-21.9-17.6-39.7-39.4-39.7-21.7 0-39.3 17.8-39.3 39.7 0 18.6 12.6 34.1 29.7 38.4V295H229.4v-47.7c17-4.4 29.7-19.9 29.7-38.4 0-21.9-17.6-39.7-39.4-39.7-21.7 0-39.4 17.8-39.4 39.7 0 18.6 12.6 34.1 29.7 38.4v114.8c-17 4.4-29.7 19.9-29.7 38.4 0 21.9 17.6 39.7 39.4 39.7 21.7 0 39.4-17.8 39.4-39.7 0-18.6-12.6-34.1-29.7-38.4v-47.7h136.8v47.7c-17 4.4-29.7 19.9-29.7 38.4 0 21.9 17.6 39.7 39.3 39.7 21.7 0 39.4-17.8 39.4-39.7 0-18.5-12.6-34-29.7-38.4z"></path></svg>