<svg id="Layer_1" data-name="Layer 1" xmlns="http://www.w3.org/2000/svg" viewBox="0 0 335.07 577.57">   <path d="M258.39,192.12c-42.28,0-76.68,34.4-76.68,76.67s34.4,76.68,76.68,76.68,76.68-34.4,76.68-76.68-34.4-76.67-76.68-76.67Z"></path>   <path d="M155.35,268.79c0-56.82,46.23-103.04,103.04-103.04,30.46,0,57.79,13.36,76.68,34.45V82.46C302.32,32.89,246.14,0,182.62,0h0C82.18,0,0,82.18,0,182.62v394.95H155.35V268.79Z"></path>   <path d="M258.39,371.84c-30.46,0-57.79-13.37-76.68-34.45v240.18h153.35v-240.18c-18.88,21.08-46.21,34.45-76.68,34.45Z"></path> </svg>