<svg data-name="Layer 1" xmlns="http://www.w3.org/2000/svg" viewBox="0 0 573.7 473.53"><path d="M573.69 98.18c-45.87 51.05-110.12 88.58-181.24 103.8-.41.09-.76-.3-.65-.7 7.11-24.96 13.07-46.05 16.91-59.95 18.9-68.47 32.24-91.62 59.82-105.59.83-.41.52-1.65-.39-1.65-48.72-.18-38.01-34.1-95.15-34.1-87.74 0-92.39 99.22-134.93 198.51-.11.25-.38.38-.64.31C133.87 172.03 55.39 97 17.36 2.77 6.13 33.49 0 66.66 0 101.27 0 215.36 66.61 313.9 163.06 360.11c.27.13.38.45.25.72-25.25 51.55-48.74 95.88-61.42 112.7h211.52s11.15-38.48 26.01-89.91c.06-.2.22-.34.42-.38 133.11-24.86 233.87-141.64 233.87-281.97 0-1.03 0-2.06-.02-3.09Zm-200.7-37.07c0-7.61 6.17-13.78 13.78-13.78s13.79 6.17 13.79 13.78-6.18 13.79-13.79 13.79-13.78-6.17-13.78-13.79Z"></path></svg>