<svg data-name="Layer 1" xmlns="http://www.w3.org/2000/svg" viewBox="0 0 602.65 602.65"><path d="M301.32 0C135.17 0 0 135.17 0 301.32s135.17 301.33 301.32 301.33 301.33-135.17 301.33-301.33S467.48 0 301.32 0Zm-66.11 46.85c103.86 0 188.36 84.5 188.36 188.36s-84.5 188.36-188.36 188.36-188.36-84.5-188.36-188.36 84.5-188.36 188.36-188.36Zm66.11 539.18c-156.99 0-284.7-127.72-284.7-284.71 0-32.13 5.43-63 15.29-91.84-1.06 8.44-1.67 17.01-1.67 25.73 0 113.03 91.95 204.98 204.98 204.98S440.2 348.24 440.2 235.21 348.24 30.23 235.21 30.23c-8.72 0-17.29.61-25.73 1.67 28.84-9.86 59.71-15.29 91.84-15.29 156.99 0 284.71 127.72 284.71 284.7S458.31 586.02 301.32 586.02Z"></path></svg>