<svg data-name="Layer 1" xmlns="http://www.w3.org/2000/svg" viewBox="0 0 616.79 451.08"><path d="M16.51 225.54c0-37.07 33.43-70.63 87.23-94.78 3.66-7.89 7.73-15.55 12.24-22.91C44.93 135.02 0 177.25 0 225.54s44.93 90.52 115.99 117.69c-4.51-7.36-8.58-15.02-12.24-22.91-53.8-24.16-87.23-57.72-87.23-94.78ZM500.8 107.84c4.51 7.36 8.58 15.02 12.24 22.91 53.8 24.16 87.23 57.72 87.23 94.78s-33.43 70.63-87.23 94.78c-3.66 7.89-7.73 15.55-12.24 22.91 71.06-27.18 115.98-69.41 115.98-117.69s-44.93-90.51-115.99-117.69Z"></path><path d="M114.05 285.98c1.4 4.51 15.95 12.14 60.97 8.74 40.33-3.03 91.97-13.86 145.41-30.48 127.59-39.68 186.5-85.63 182.31-99.14-1.74-5.59-15.53-9.63-40.13-9.63-34.87 0-91.45 8.1-166.26 31.37-53.44 16.62-102.11 36.99-137.05 57.37-39.01 22.75-46.66 37.27-45.26 41.77Z"></path><path d="M103.74 130.75c-13.37 28.82-20.89 60.92-20.89 94.79s7.51 65.96 20.89 94.78c52.72 23.67 124.99 38.31 204.65 38.31s151.93-14.64 204.65-38.31c13.37-28.82 20.89-60.92 20.89-94.78s-7.51-65.96-20.89-94.78c-52.72-23.67-124.99-38.31-204.65-38.31s-151.93 14.64-204.65 38.31Zm414.77 29.43c12.42 39.97-108.72 93.55-193.18 119.82-54.6 16.98-107.54 28.05-149.08 31.18-7.88.59-15.18.89-21.9.89-32.87 0-51.71-7.1-56.09-21.19-5.28-16.97 12.46-37.47 52.71-60.95 35.99-20.98 85.87-41.89 140.47-58.87 84.46-26.28 214.62-50.85 227.06-10.88Z"></path><path d="M500.8 107.84C461.15 43.16 389.82 0 308.4 0S155.64 43.16 115.99 107.84c52.41-20.04 119-31.92 192.41-31.92s140 11.87 192.41 31.92ZM115.99 343.23c39.65 64.68 110.98 107.84 192.41 107.84s152.76-43.16 192.41-107.84c-52.41 20.05-119 31.92-192.41 31.92s-140-11.87-192.41-31.92Z"></path></svg>