<svg data-name="Layer 1" xmlns="http://www.w3.org/2000/svg" viewBox="0 0 613.31 613.31"><circle cx="306.65" cy="306.65" r="68.15"></circle><ellipse cx="306.65" cy="114" rx="39.11" ry="114"></ellipse><circle cx="306.65" cy="306.65" r="68.15"></circle><ellipse cx="402.98" cy="139.81" rx="114" ry="39.11" transform="rotate(-60 402.983 139.813)"></ellipse><circle cx="306.65" cy="306.65" r="68.15"></circle><ellipse cx="473.5" cy="210.33" rx="114" ry="39.11" transform="rotate(-30 473.501 210.334)"></ellipse><circle cx="306.65" cy="306.65" r="68.15"></circle><ellipse cx="499.31" cy="306.65" rx="114" ry="39.11"></ellipse><circle cx="306.65" cy="306.65" r="68.15"></circle><ellipse cx="473.5" cy="402.98" rx="39.11" ry="114" transform="rotate(-60 473.498 402.978)"></ellipse><circle cx="306.65" cy="306.65" r="68.15"></circle><ellipse cx="402.98" cy="473.5" rx="39.11" ry="114" transform="rotate(-30 402.986 473.5)"></ellipse><circle cx="306.65" cy="306.65" r="68.15"></circle><ellipse cx="306.65" cy="499.31" rx="39.11" ry="114"></ellipse><circle cx="306.65" cy="306.65" r="68.15"></circle><ellipse cx="210.33" cy="473.5" rx="114" ry="39.11" transform="rotate(-60 210.328 473.501)"></ellipse><circle cx="306.65" cy="306.65" r="68.15"></circle><ellipse cx="139.81" cy="402.98" rx="114" ry="39.11" transform="rotate(-30 139.82 402.985)"></ellipse><circle cx="306.65" cy="306.65" r="68.15"></circle><ellipse cx="114" cy="306.65" rx="114" ry="39.11"></ellipse><circle cx="306.65" cy="306.65" r="68.15"></circle><ellipse cx="139.81" cy="210.33" rx="39.11" ry="114" transform="rotate(-60 139.818 210.328)"></ellipse><circle cx="306.65" cy="306.65" r="68.15"></circle><ellipse cx="210.33" cy="139.81" rx="39.11" ry="114" transform="rotate(-30 210.336 139.82)"></ellipse></svg>