<svg xmlns="http://www.w3.org/2000/svg" width="517.5" viewBox="0 0 517.5 623.7" height="623.7" xml:space="preserve" style="enable-background:new 0 0 517.5 623.7"><path d="M435 310.4c34.5-15.3 83.6-58.2 82.5-138.7C516.2 77 440.5 0 345.8 0H0v69.8h345.8c56.2 0 101.9 45.7 101.9 101.9S402 275.1 345.8 275.1h-5.9v69.1l6.4.3c56.4 2.5 98.5 48.9 98.5 104.1 0 58-47.2 105.2-105.2 105.2H0v69.8h339.6c96.5 0 178.2-78.5 176.5-175-1.5-80.8-45.1-120.1-81.1-138.2z"></path><path d="M135.9 137.4H0v69.8h66.1v208.9H0v69.8h135.9zM339.9 207.2v-69.8H203.7v348.5h136.2v-69.8h-66.4V207.2z"></path></svg>