<svg xmlns="http://www.w3.org/2000/svg" width="621.3" viewBox="0 0 621.3 621.3" height="621.3" style="enable-background:new 0 0 621.3 621.3" xml:space="preserve"><path d="M0 0h621.3v49.2H0zM0 71.5h621.3v49.2H0zM0 143h621.3v49.2H0zM0 429.1h621.3v49.2H0zM0 500.6h621.3v49.2H0zM0 572.1h621.3v49.2H0zM429.1 214.5h192.2v49.2H429.1zM0 214.5h192.2v49.2H0zM429.1 286h192.2v49.2H429.1zM0 286h192.2v49.2H0zM429.1 357.6h192.2v49.2H429.1zM0 357.6h192.2v49.2H0zM357.6 214.5h49.2v192.2h-49.2zM286 214.5h49.2v192.2H286zM214.5 214.5h49.2v192.2h-49.2z"></path></svg>