<svg xmlns="http://www.w3.org/2000/svg" width="605.6" viewBox="0 0 605.6 611.6" height="611.6" xml:space="preserve"><path d="M280.2 2.8V0h-58.8v2.8c0 239.4 163.2 441.3 384.2 500.3V442C417.4 384.6 280.2 209.4 280.2 2.8z"></path><path d="M380.9 0h-56.2c2.2 180.3 119.1 333.4 280.9 389.7v-60.1C475.4 276.1 383 148.8 380.9 0z"></path><path d="M436.3 0v3.9c0 119.7 69 223.5 169.3 273.9V0H436.3zM169.2 0v3.9c0 119.7-69 223.5-169.3 273.9V0h169.3zM0 442v61.1c107.1-28.6 200.6-90.8 268.6-174.5-11.9-17.2-22.8-35.1-32.7-53.7C177.9 353.4 95.5 412.8 0 442zM212.1 224.3c-9.4-23.2-17.4-47.2-23.6-71.9C149.8 232.2 82.5 298 0 331.9V392c87.6-30.5 162-91.6 212.1-167.7zM223.7 611.6h51.4v-217c-16.1 16.7-33.3 34.8-51.4 49.4v167.6zM329.4 611.6h51.4V443.4c-18.1-14.2-35.2-29.6-51.4-46v214.2zM169.3 480.4c-51.4 32-108.4 57.9-169.3 71.5v59.8h169.3V480.4zM435.2 483.4v128.2h170.4v-60.8c-61.2-12.8-118.7-35.9-170.4-67.4z"></path></svg>