<svg width="642" viewBox="0 0 642 642" height="642" xmlns="http://www.w3.org/2000/svg"><path d="M321 250.38c29.34 0 54.056 19.645 61.696 46.545h143.102L642 413.127V642H503.97V332.235H382.696c-7.64 26.9-32.357 46.545-61.696 46.545-35.438 0-64.2-28.762-64.2-64.2s28.762-64.2 64.2-64.2Zm39.468 247.17L216.024 642H-.003V497.55h360.47Zm117.822-81.502V642H252.338L478.29 416.048ZM0 252.338l219.532 219.533H0V252.339Zm642-95.048v219.532L422.47 157.29H642ZM138.03.001v354.05L0 216.021V.001h138.03ZM376.822 0 163.71 213.111V0h213.112ZM641.999 0v131.61h-360.47L413.139 0h228.86Z"></path></svg>