<svg xmlns="http://www.w3.org/2000/svg" width="618.2" viewBox="0 0 618.2 618.7" height="618.7" style="enable-background:new 0 0 618.2 618.7" xml:space="preserve"><path d="M224.8 147.5h83.8L183 0 57.4 147.5h82.9c-5.6 29.6-20.4 56.7-42.7 77.6-26.5 25-61.2 38.7-97.6 38.7V295c44.4 0 86.6-16.7 119-47.1 32.2-30.2 51.6-71 54.6-114.9l1.1-16.7h-49.8L183 48.1l58.1 68.2h-45.5l-.8 14.8c-5.2 103.7-90.8 185-194.8 185v31.2c115.6 0 211.6-86.6 224.8-199.8z"></path><path d="M147.6 393.9v-83.8L.1 435.7l147.5 125.6v-82.9c29.6 5.6 56.7 20.4 77.6 42.7 24.9 26.6 38.6 61.2 38.6 97.7H295c0-44.4-16.7-86.6-47.1-119-30.2-32.2-71-51.6-114.9-54.6l-16.7-1.1v49.8l-68.2-58.1 68.2-58.1v45.5l14.8.8C234.8 429.3 316 514.8 316 618.8h31.2c.1-115.8-86.4-211.8-199.6-224.9z"></path><path d="M423.4 487.5c5.3-103.7 90.8-184.9 194.8-184.9v-31.2c-115.6 0-211.6 86.6-224.8 199.7h-83.8l125.6 147.5 125.6-147.5h-82.9c5.6-29.6 20.4-56.7 42.7-77.6 26.6-24.9 61.2-38.6 97.7-38.6v-31.2c-44.4 0-86.6 16.7-119 47.1-32.2 30.2-51.6 71-54.6 114.9l-1.1 16.7h49.8l-58.1 68.2-58.1-68.2h45.5l.7-14.9z"></path><path d="M470.6 225.2V309l147.5-125.6L470.6 57.9v82.9c-29.6-5.6-56.7-20.4-77.6-42.7-25-26.5-38.7-61.2-38.7-97.7h-31.2c0 44.4 16.7 86.6 47.1 119 30.2 32.2 71 51.6 114.9 54.6l16.7 1.1v-49.8l68.2 58.1-68.2 58.1V196l-14.8-.8C383.3 190 302.1 104.4 302.1.4h-31.2c0 115.7 86.6 211.7 199.7 224.8z"></path></svg>