<svg data-name="Layer 1" xmlns="http://www.w3.org/2000/svg" viewBox="0 0 607.07 603.69"><circle cx="37.16" cy="33.79" r="22.56"></circle><circle cx="126.52" cy="33.79" r="22.56"></circle><circle cx="215.87" cy="33.79" r="33.78"></circle><circle cx="305.22" cy="33.79" r="33.79"></circle><circle cx="394.58" cy="33.79" r="33.79"></circle><circle cx="483.93" cy="33.79" r="22.56"></circle><circle cx="573.29" cy="33.79" r="22.56"></circle><circle cx="37.16" cy="123.14" r="22.56"></circle><circle cx="125.24" cy="123.14" r="33.79"></circle><circle cx="215.23" cy="123.14" r="33.79"></circle><circle cx="305.22" cy="123.14" r="33.79"></circle><circle cx="395.22" cy="123.14" r="33.79"></circle><circle cx="485.21" cy="123.14" r="33.79"></circle><circle cx="573.29" cy="123.14" r="22.56"></circle><circle cx="37.16" cy="212.49" r="37.16"></circle><circle cx="126.52" cy="212.49" r="33.79"></circle><circle cx="215.87" cy="212.49" r="22.56"></circle><circle cx="305.22" cy="212.49" r="22.56"></circle><circle cx="394.58" cy="212.49" r="22.56"></circle><circle cx="483.93" cy="212.49" r="33.79"></circle><circle cx="573.29" cy="212.49" r="33.79"></circle><circle cx="36.86" cy="301.85" r="33.79"></circle><circle cx="126.52" cy="301.85" r="33.79"></circle><path d="M215.87 279.28c-12.46 0-22.56 10.1-22.56 22.56s10.1 22.56 22.56 22.56 22.56-10.1 22.56-22.56-10.1-22.56-22.56-22.56ZM305.22 324.41c12.46 0 22.56-10.1 22.56-22.56s-10.1-22.56-22.56-22.56-22.56 10.1-22.56 22.56 10.1 22.56 22.56 22.56ZM394.58 324.41c12.46 0 22.56-10.1 22.56-22.56s-10.1-22.56-22.56-22.56-22.56 10.1-22.56 22.56 10.1 22.56 22.56 22.56ZM506.49 301.85c0-12.46-10.1-22.56-22.56-22.56s-22.56 10.1-22.56 22.56 10.1 22.56 22.56 22.56 22.56-10.1 22.56-22.56ZM550.72 301.85c0 12.46 10.1 22.56 22.56 22.56s22.56-10.1 22.56-22.56-10.1-22.56-22.56-22.56-22.56 10.1-22.56 22.56Z"></path><circle cx="37.16" cy="391.2" r="33.79"></circle><circle cx="126.52" cy="391.2" r="33.79"></circle><circle cx="215.87" cy="391.2" r="22.56"></circle><circle cx="305.22" cy="391.2" r="22.56"></circle><circle cx="394.58" cy="391.2" r="22.56"></circle><circle cx="483.93" cy="391.2" r="33.79"></circle><circle cx="573.29" cy="391.2" r="33.79"></circle><circle cx="37.16" cy="480.55" r="22.56"></circle><circle cx="126.52" cy="480.55" r="33.79"></circle><circle cx="215.87" cy="480.55" r="33.79"></circle><circle cx="305.22" cy="480.55" r="33.79"></circle><circle cx="394.58" cy="480.55" r="33.79"></circle><circle cx="483.93" cy="480.55" r="33.79"></circle><circle cx="573.29" cy="480.55" r="22.56"></circle><circle cx="37.16" cy="569.91" r="22.56"></circle><circle cx="126.52" cy="569.91" r="22.56"></circle><circle cx="215.87" cy="569.91" r="33.79"></circle><circle cx="305.22" cy="569.91" r="33.79"></circle><circle cx="394.58" cy="569.91" r="33.79"></circle><circle cx="483.93" cy="569.91" r="22.56"></circle><circle cx="573.29" cy="569.91" r="22.56"></circle></svg>