<svg data-name="Layer 1" xmlns="http://www.w3.org/2000/svg" viewBox="0 0 614.45 614.45"><path d="M307.22 0C137.82 0 0 137.82 0 307.22s137.82 307.22 307.22 307.22c20.58 0 40.69-2.05 60.15-5.93 85.97-17.13 159.11-70.24 203.02-142.93 27.95-46.28 44.06-100.47 44.06-158.37C614.45 137.82 476.63 0 307.22 0Zm164.61 550.13c-22.27 14.53-48.91 22.88-77.42 22.88-78.16 0-141.75-63.59-141.75-141.75 0-64.08 42.75-118.34 101.22-135.82l-11.22-35.85c-73.71 22.26-127.54 90.79-127.54 171.67s49.1 143.23 117.73 168.4c-8.45.73-16.99 1.13-25.62 1.13-161.88 0-293.57-131.7-293.57-293.57 0-27.42 3.79-53.97 10.85-79.17h265.57v-37.54h-42.29c12.38-19.62 34.23-32.69 59.1-32.69 38.52 0 69.87 31.34 69.87 69.87h37.54c0-59.23-48.18-107.41-107.41-107.41-46.16 0-85.57 29.28-100.73 70.23H37.88C83.1 86.54 186.8 13.65 307.22 13.65c161.88 0 293.57 131.7 293.57 293.57 0 43.95-9.72 85.66-27.11 123.12-22.53 48.56-57.97 89.94-101.86 119.78Z"></path></svg>