<svg xmlns="http://www.w3.org/2000/svg" width="617.7" viewBox="0 0 617.7 349.4" height="349.4" style="enable-background:new 0 0 617.7 349.4" xml:space="preserve"><circle cx="174.7" cy="40.5" r="40.5"></circle><circle cx="40.5" cy="174.7" r="40.5"></circle><circle cx="308.9" cy="174.7" r="40.5"></circle><path d="M483.5 174.7c0-20-14.5-36.6-33.6-39.9V80.4c16.9-2.9 30.2-16.2 33.1-33.1h54.4c3.3 19.1 19.9 33.6 39.9 33.6 22.4 0 40.5-18.1 40.5-40.5S599.7-.1 577.3-.1c-20 0-36.6 14.5-39.9 33.6H483C479.7 14.5 463.1 0 443.1 0s-36.6 14.5-39.9 33.6h-54.4C345.5 14.5 328.9 0 308.9 0c-22.4 0-40.5 18.1-40.5 40.5 0 8.7 2.8 16.8 7.4 23.4L198 141.6c-6.6-4.7-14.7-7.4-23.4-7.4s-16.8 2.8-23.4 7.4L73.6 63.9c4.7-6.6 7.4-14.7 7.4-23.4C81 18.1 62.9 0 40.5 0S0 18.1 0 40.5 18.1 81 40.5 81c8.7 0 16.8-2.8 23.4-7.4l77.8 77.8c-4.7 6.6-7.4 14.7-7.4 23.4 0 20 14.5 36.6 33.6 39.9V269c-19.1 3.3-33.6 19.9-33.6 39.9 0 22.4 18.1 40.5 40.5 40.5s40.5-18.1 40.5-40.5c0-20-14.5-36.6-33.6-39.9v-54.4c19.1-3.3 33.6-19.9 33.6-39.9 0-8.7-2.8-16.8-7.4-23.4l77.8-77.8c6.6 4.7 14.7 7.4 23.4 7.4 20 0 36.6-14.5 39.9-33.6h54.4c2.9 16.9 16.2 30.2 33.1 33.1v54.4c-19.1 3.3-33.6 19.9-33.6 39.9s14.5 36.6 33.6 39.9V269c-19.1 3.3-33.6 19.9-33.6 39.9 0 22.4 18.1 40.5 40.5 40.5s40.5-18.1 40.5-40.5c0-20-14.5-36.6-33.6-39.9v-54.4c18.7-3.3 33.2-19.9 33.2-39.9z"></path><circle cx="577.2" cy="174.7" r="40.5"></circle><circle cx="40.5" cy="308.9" r="40.5"></circle><circle cx="308.9" cy="308.9" r="40.5"></circle><circle cx="577.2" cy="308.9" r="40.5"></circle></svg>