<svg data-name="Layer 1" xmlns="http://www.w3.org/2000/svg" viewBox="0 0 596.35 539.23"><path d="m228.21 57.49 70.12 61.49 41.73-28.27c11.51-7.8 26.87-6.85 37.32 2.33l218.49 191.6c.3-4.98.48-9.98.48-15.03C596.35 120.71 462.86 0 298.18 0 172.33 0 64.77 70.53 21.01 170.23L190.9 55.16c11.51-7.79 26.85-6.84 37.31 2.33ZM301.27 287.15a.555.555 0 0 0-.67-.04L137.11 397.84c-11.51 7.79-26.85 6.84-37.31-2.33l-38.69-33.93a.555.555 0 0 0-.67-.04l-32.51 22.02c15.94 30.85 38.14 58.49 65.13 81.64l232.03-157.16-23.83-20.89ZM118.13 484.5c50.03 34.33 112.4 54.73 180.05 54.73 79.75 0 152.12-28.36 205.62-74.47L348.43 328.51 118.13 484.5ZM433.79 271.19a.556.556 0 0 0-.67-.04l-58.99 39.96 151.45 132.81c16.06-17.12 29.84-36.04 40.82-56.44L433.79 271.19Z"></path><path d="m80.91 339.01 38.69 33.93c.19.18.46.19.67.04l163.49-110.73c11.51-7.8 26.86-6.84 37.31 2.33l29.72 26.07 65.49-44.35c11.51-7.79 26.85-6.84 37.31 2.33l125.9 110.41c4.86-12.5 8.72-25.43 11.52-38.7L357.57 115.62a.528.528 0 0 0-.67-.04L65.39 313.01.46 254.87c-.29 4.88-.46 9.8-.46 14.74 0 30.09 5.54 59 15.6 86.03l28.01-18.97c11.51-7.79 26.85-6.84 37.31 2.33Z"></path><path d="m67.96 275.01 204.67-138.63-64.22-56.32a.555.555 0 0 0-.67-.04L5.75 216.83c-.15.7-.27 1.4-.41 2.1l62.62 56.08Z"></path></svg>