<svg data-name="Layer 1" xmlns="http://www.w3.org/2000/svg" viewBox="0 0 616.97 395.48"><path d="M414.98 153.63c11.86-17.83 9.56-41.45-5.68-56.7-15.26-15.25-38.88-17.54-56.7-5.69-4.22-20.99-22.55-36.07-44.12-36.07s-39.89 15.08-44.11 36.07c-17.83-11.86-41.45-9.56-56.7 5.69s-17.54 38.87-5.68 56.7c-20.99 4.22-36.07 22.55-36.07 44.11s15.08 39.89 36.07 44.11c-11.85 17.83-9.56 41.46 5.68 56.7 15.24 15.25 38.87 17.54 56.7 5.68 4.22 20.99 22.55 36.07 44.11 36.07s39.89-15.08 44.12-36.07c17.82 11.86 41.45 9.56 56.7-5.68s17.54-38.87 5.68-56.7c20.99-4.22 36.07-22.55 36.07-44.11s-15.08-39.89-36.07-44.11Zm-3.31-14.29c-2.41 7.79-8.45 14.19-16.58 17.56l-45.1 18.68c-4.39-8.21-11.14-14.96-19.35-19.35l18.68-45.1c3.37-8.13 9.77-14.18 17.56-16.58 3.51-1.08 7.1-1.61 10.65-1.61 9.35 0 18.46 3.66 25.27 10.48 9.41 9.41 12.8 23.17 8.86 35.93Zm-61.68 80.56 45.1 18.68c8.13 3.37 14.18 9.77 16.58 17.56 3.94 12.75.54 26.52-8.86 35.93-9.4 9.4-23.17 12.8-35.92 8.86-7.79-2.41-14.19-8.45-17.56-16.58l-18.68-45.1c8.21-4.39 14.95-11.14 19.34-19.35Zm72.75 9.51c-7.21 3.8-16 4.06-24.14.69l-45.1-18.68c1.31-4.33 2.04-8.92 2.04-13.68s-.72-9.35-2.04-13.68l45.1-18.68c8.13-3.37 16.93-3.12 24.14.69 11.8 6.23 19.14 18.37 19.14 31.67s-7.33 25.44-19.14 31.67ZM308.48 64.34c13.3 0 25.44 7.33 31.67 19.14 3.81 7.21 4.06 16.01.69 24.14l-18.68 45.1c-4.33-1.31-8.92-2.04-13.68-2.04s-9.35.72-13.68 2.04l-18.68-45.1c-3.37-8.13-3.12-16.93.69-24.14 6.24-11.8 18.37-19.14 31.67-19.14Zm-41.51 111.24-45.1-18.68c-8.13-3.37-14.18-9.77-16.58-17.56-3.94-12.75-.54-26.52 8.86-35.93 9.41-9.41 23.18-12.79 35.93-8.86 7.79 2.41 14.19 8.45 17.56 16.58l18.68 45.1c-8.21 4.39-14.96 11.14-19.35 19.35Zm-72.75-9.51c3.84-2.03 8.13-3.05 12.53-3.05 3.86 0 7.81.78 11.61 2.36l45.1 18.68c-1.31 4.33-2.04 8.92-2.04 13.68s.72 9.35 2.04 13.68l-45.1 18.68c-8.13 3.37-16.93 3.12-24.14-.69-11.8-6.24-19.14-18.37-19.14-31.67s7.33-25.44 19.14-31.67Zm11.07 90.07c2.41-7.79 8.45-14.19 16.58-17.56l45.1-18.68c4.39 8.21 11.14 14.96 19.35 19.35l-18.68 45.1c-3.37 8.13-9.77 14.18-17.56 16.58-12.74 3.94-26.51.54-35.93-8.86-9.41-9.41-12.8-23.17-8.86-35.93Zm103.19 74.99c-13.3 0-25.43-7.33-31.67-19.14-3.81-7.21-4.06-16.01-.69-24.14l18.68-45.1c4.33 1.31 8.92 2.04 13.68 2.04s9.35-.72 13.68-2.04l18.68 45.1c3.37 8.13 3.12 16.93-.69 24.14-6.24 11.8-18.37 19.14-31.67 19.14Z"></path><path d="M616.06 195.8C560.44 76.85 439.71 0 308.49 0S56.53 76.85.91 195.8L0 197.74l.91 1.94c55.62 118.94 176.35 195.8 307.58 195.8s251.95-76.85 307.58-195.8l.91-1.94-.91-1.94ZM308.48 386.31c-126.96 0-243.82-73.94-298.35-188.56C64.66 83.12 181.53 9.18 308.49 9.18s243.82 73.94 298.35 188.56C552.32 312.36 435.45 386.3 308.49 386.3Z"></path></svg>