<svg xmlns="http://www.w3.org/2000/svg" width="641.87" viewBox="0 0 641.87 642" height="642" data-name="Layer 1"><path d="M312.07 0v312.07H0C4.62 141.85 141.85 4.62 312.07 0ZM90.21 141.59c0 28.37 23 51.37 51.37 51.37s51.37-23 51.37-51.37c0-28.37-23-51.37-51.37-51.37s-51.37 23-51.37 51.37Zm103.1-62.63c0 28.37 23 51.37 51.37 51.37s51.37-23 51.37-51.37c0-28.37-23-51.37-51.37-51.37-28.37 0-51.37 23-51.37 51.37ZM27.58 244.68c0 28.37 23 51.37 51.37 51.37 28.37 0 51.37-23 51.37-51.37s-23-51.37-51.37-51.37c-28.37 0-51.37 23-51.37 51.37ZM641.87 312.07H329.8V0c170.23 4.62 307.45 141.85 312.07 312.07ZM500.29 90.21c-28.37 0-51.37 23-51.37 51.37s23 51.37 51.37 51.37c28.37 0 51.37-23 51.37-51.37s-23-51.37-51.37-51.37Zm-103.1-62.63c-28.37 0-51.37 23-51.37 51.37 0 28.37 23 51.37 51.37 51.37s51.37-23 51.37-51.37c0-28.37-23-51.37-51.37-51.37Zm165.73 165.73c-28.37 0-51.37 23-51.37 51.37 0 28.37 23 51.37 51.37 51.37 28.37 0 51.37-23 51.37-51.37 0-28.37-23-51.37-51.37-51.37ZM0 329.8h312.07v312.07C141.85 637.25 4.62 500.03 0 329.8Zm141.58 221.86c28.37 0 51.37-23 51.37-51.37 0-28.37-23-51.37-51.37-51.37-28.37 0-51.37 23-51.37 51.37s23 51.37 51.37 51.37Zm103.1 62.63c28.37 0 51.37-23 51.37-51.37 0-28.37-23-51.37-51.37-51.37-28.37 0-51.37 23-51.37 51.37 0 28.37 23 51.37 51.37 51.37ZM78.95 448.56c28.37 0 51.37-23 51.37-51.37s-23-51.37-51.37-51.37c-28.37 0-51.37 23-51.37 51.37s23 51.37 51.37 51.37ZM641.84 329.93V642H329.77c4.62-170.23 141.85-307.45 312.07-312.07ZM357.35 574.61c0 28.37 23 51.37 51.37 51.37s51.37-23 51.37-51.37-23-51.37-51.37-51.37-51.37 23-51.37 51.37Z"></path></svg>