<svg id="Layer_1" data-name="Layer 1" xmlns="http://www.w3.org/2000/svg" viewBox="0 0 626.08 542.2">   <polygon points="459.73 0 363.23 0 363.23 139.23 320.29 164.02 320.29 264.5 459.73 183.99 459.73 0"></polygon>   <polygon points="305.79 164.02 262.85 139.23 262.85 0 166.35 0 166.35 183.99 305.79 264.5 305.79 164.02"></polygon>   <polygon points="407.06 339.43 320.04 289.19 320.04 450.2 479.38 542.2 527.63 458.63 407.05 389.01 407.06 339.43"></polygon>   <polygon points="466.74 196.12 327.29 276.63 414.31 326.87 457.25 302.08 577.83 371.69 626.08 288.12 466.74 196.12"></polygon>   <polygon points="211.77 326.86 298.78 276.63 159.35 196.12 0 288.11 48.25 371.68 168.83 302.07 211.77 326.86"></polygon>   <polygon points="219.02 389.01 98.44 458.62 146.69 542.2 306.03 450.2 306.04 289.19 219.02 339.43 219.02 389.01"></polygon> </svg>