<svg xmlns="http://www.w3.org/2000/svg" width="617.3" viewBox="0 0 617.3 510.5" height="510.5" xml:space="preserve" style="enable-background:new 0 0 617.3 510.5"><path d="M98.6 0C87.9 0 77.2 4.1 69 12.3L59.3 22c-6.2 6.2-14.6 9.7-23.4 9.7H22.5C10.1 31.7 0 41.8 0 54.2v24.3C0 90.9 10.1 101 22.5 101h60.1c9.2 0 18-3.7 24.5-10.2l10.1-10.1c8.6-8.6 19.8-12.9 31-12.9s22.5 4.3 31 12.9l10.1 10.1c6.5 6.5 15.3 10.2 24.5 10.2h380.9c12.4 0 22.5-10.1 22.5-22.5V54.2c0-12.4-10.1-22.5-22.5-22.5H161.4c-8.8 0-17.2-3.5-23.4-9.7l-9.7-9.7C120.1 4.1 109.4 0 98.6 0M203.8 136.5c-10.7 0-21.5 4.1-29.7 12.3l-9.7 9.7c-6.2 6.2-14.6 9.7-23.4 9.7H22.5c-12.4-.1-22.5 10-22.5 22.5V215c0 12.4 10.1 22.5 22.5 22.5h165.3c9.2 0 18-3.7 24.5-10.2l10.1-10.1c8.6-8.6 19.8-12.9 31-12.9s22.5 4.3 31 12.9l10.1 10.1c6.5 6.5 15.3 10.2 24.5 10.2h275.7c12.4 0 22.5-10.1 22.5-22.5v-24.3c0-12.4-10.1-22.5-22.5-22.5H266.6c-8.8 0-17.2-3.5-23.4-9.7l-9.7-9.7c-8.2-8.2-18.9-12.3-29.7-12.3M309.3 272.9c-10.7 0-21.5 4.1-29.7 12.3l-9.7 9.7c-6.2 6.2-14.6 9.7-23.4 9.7h-224C10.1 304.6 0 314.7 0 327.1v24.3C0 363.9 10.1 374 22.5 374h270.8c9.2 0 18-3.7 24.5-10.2l10.1-10.1c8.6-8.6 19.8-12.9 31-12.9s22.5 4.3 31 12.9l10.1 10.1c6.5 6.5 15.3 10.2 24.5 10.2h170.2c12.4 0 22.5-10.1 22.5-22.5v-24.3c0-12.4-10.1-22.5-22.5-22.5H372.1c-8.8 0-17.2-3.5-23.4-9.7l-9.7-9.7c-8.2-8.3-19-12.4-29.7-12.4M415.1 409.4c-10.7 0-21.5 4.1-29.7 12.3l-9.7 9.7c-6.2 6.2-14.6 9.7-23.4 9.7H22.5C10.1 441.1 0 451.2 0 463.6V488c0 12.4 10.1 22.5 22.5 22.5H399c9.2 0 18-3.7 24.5-10.2l10.1-10.1c8.6-8.6 19.8-12.9 31-12.9s22.5 4.3 31 12.9l10.1 10.1c6.5 6.5 15.3 10.2 24.5 10.2h64.5c12.4 0 22.5-10.1 22.5-22.5v-24.3c0-12.4-10.1-22.5-22.5-22.5h-117c-8.8 0-17.2-3.5-23.4-9.7l-9.7-9.7c-8.1-8.3-18.8-12.4-29.5-12.4"></path></svg>