<svg data-name="Layer 1" xmlns="http://www.w3.org/2000/svg" viewBox="0 0 626.52 542.42"><path d="M250.86 542.42V393.69h4.73c14.23 0 25.78 11.54 25.78 25.78v122.95h63.75V419.47c0-14.23 11.54-25.78 25.78-25.78h4.73v148.73h65.93V328.84h-89.89c-10.76 0-21.05 4.5-28.37 12.38l-10.04 10.82-10.04-10.82c-7.32-7.88-17.62-12.38-28.37-12.38h-89.89v213.58h65.92Z"></path><path d="m396.62 251.09 44.97 77.75 184.93-106.82L593.56 165l-128.79 74.36-2.36-4.08c-7.14-12.33-2.92-28.09 9.41-35.23l106.44-61.47-31.9-55.17-106.44 61.47c-12.33 7.14-28.09 2.92-35.23-9.41l-2.36-4.08 128.79-74.36L498.15 0 313.26 106.79 128.37 0 95.41 57.02l128.79 74.36-2.36 4.08c-7.14 12.33-22.9 16.55-35.23 9.41L80.17 83.4l-31.9 55.17 106.44 61.47c12.33 7.14 16.55 22.9 9.41 35.23l-2.36 4.08L32.96 165 0 222.02l184.93 106.82 44.97-77.75c5.38-9.32 6.63-20.45 3.48-30.74l-4.36-14.14 14.42-3.29c10.48-2.41 19.52-9.04 24.9-18.36l44.92-77.67 44.92 77.67c5.38 9.32 14.42 15.95 24.9 18.36l14.42 3.29-4.36 14.14c-3.15 10.29-1.9 21.42 3.48 30.74Z"></path></svg>