<svg xmlns="http://www.w3.org/2000/svg" width="594.9" viewBox="0 0 594.9 555.3" height="555.3" xml:space="preserve"><path d="M195 392.4c-63.4 0-114.8-51.4-114.8-114.8S131.6 162.8 195 162.8h325.9v-14.5H200.3c-71.5 0-129.5 58-129.5 129.5s58 129.5 129.5 129.5h320.6c40.9 0 74 33.1 74 74s-33.1 74-74 74H277.6C124.3 555.3 0 431 0 277.6S124.3 0 277.6 0h316.9c-3.7 37.5-35.2 66.8-73.7 66.8H239.5C123 66.8 28.6 161.2 28.6 277.6S123 488.5 239.5 488.5h281.4V474H234.2C125.8 474 38 386.1 38 277.8S125.8 81.5 234.2 81.5h286.7c40.9 0 74 33.1 74 74s-33.1 74-74 74H159.3c-26.6 0-48.1 21.5-48.1 48.1s21.5 48.1 48.1 48.1l361.6-.1v-14.5h-367c-18.4 0-33.4-14.9-33.4-33.4s14.9-33.4 33.4-33.4h366.9c40.9 0 74 33.1 74 74s-33.1 74-74 74H195z"></path></svg>