<svg xmlns="http://www.w3.org/2000/svg" width="568.9" viewBox="0 0 568.9 626.3" height="626.3" xml:space="preserve" style="enable-background:new 0 0 568.9 626.3"><path d="M268.5 297.2H86.9c-23.3 0-47.1-8.8-63.4-24.8C7 256.3 0 234.6 0 211.3v-8.1c0-46.4 31.5-82.7 86.9-82.7h116v47h-116C67.5 167.5 47 180 47 203.3v8.1c0 21.8 17.5 38.9 39.9 38.9h134.6V0h46.9v297.2zM568.9 250.2H347.4V0h-46.9v297.2h268.4zM0 376.1h221.5v250.2h47V329.1H0zM300.5 329.1H482c23.3 0 47.1 8.8 63.4 24.8 16.5 16.1 23.5 37.8 23.5 61.1v8.1c0 46.4-31.5 82.7-86.9 82.7H366v-46.9h116c19.4 0 39.9-12.5 39.9-35.8V415c0-21.8-17.5-38.9-39.9-38.9H347.4v250.2h-47V329.1z"></path></svg>