<svg data-name="Layer 1" xmlns="http://www.w3.org/2000/svg" viewBox="0 0 301.43 597.7"><path d="M0 0h30.77v597.7H0zM38.67 0h30.77v597.7H38.67zM270.66 0h30.77v597.7h-30.77zM77.33 495.52l30.77-18.6V0H77.33v495.52zM77.33 547.96h30.77v25.32H77.33zM116 472.14l30.77-18.6V0H116v472.14zM116 547.96h30.77v25.32H116zM154.66 547.96h30.77v25.32h-30.77zM154.66 448.77l15.39-9.3 15.38 9.3V0h-30.77v448.77zM193.33 453.54l30.77 18.6V0h-30.77v453.54zM193.33 547.96h30.77v25.32h-30.77zM231.99 476.92l30.77 18.6V0h-30.77v476.92zM231.99 547.96h30.77v25.32h-30.77zM77.33 514.75h30.77v25.32H77.33zM116 514.75h30.77v25.32H116zM154.66 514.75h30.77v25.32h-30.77zM193.33 514.75h30.77v25.32h-30.77zM231.99 514.75h30.77v25.32h-30.77z"></path></svg>