<svg data-name="Layer 1" xmlns="http://www.w3.org/2000/svg" viewBox="0 0 617.7 462.59"><path d="M569.8 115.65c-30.89-30.89-71.96-47.9-115.64-47.9-32.85 0-64.23 9.63-90.9 27.54l-2.19-2.19L267.97 0l-93.09 93.09-19.32-19.32c-35.53-35.52-93.33-35.53-128.87 0C9.48 90.98 0 113.86 0 138.2s9.48 47.22 26.69 64.44c17.76 17.76 41.1 26.65 64.43 26.65s46.67-8.88 64.44-26.65l19.32-19.32 47.98 47.98-47.98 47.98-19.32-19.32c-35.53-35.52-93.33-35.53-128.87 0C9.48 277.16 0 300.05 0 324.39s9.48 47.22 26.69 64.44c17.76 17.76 41.1 26.65 64.43 26.65s46.67-8.88 64.44-26.65l19.32-19.32 93.09 93.09 93.09-93.09 2.19-2.19c26.68 17.91 58.05 27.54 90.9 27.54 43.69 0 84.76-17.01 115.64-47.9 30.89-30.89 47.91-71.96 47.91-115.65s-17.01-84.76-47.91-115.65ZM361.06 279.28l-47.98-47.98 47.98-47.98 47.98 47.98-47.98 47.98ZM267.97 90.23l47.98 47.98-47.98 47.98-47.98-47.98 47.98-47.98Zm-157.52 67.3c-5.16 5.16-12.02 8-19.32 8s-14.16-2.84-19.32-8-8-12.02-8-19.32 2.84-14.16 8-19.32 12.02-8 19.32-8 14.16 2.84 19.32 8l19.32 19.32-19.32 19.32Zm0 186.18c-5.16 5.16-12.02 8-19.32 8s-14.16-2.84-19.32-8-8-12.02-8-19.32 2.84-14.16 8-19.32 12.02-8 19.32-8 14.16 2.84 19.32 8l19.32 19.32-19.32 19.32ZM220 324.39l47.98-47.98 47.98 47.98-47.98 47.98L220 324.39Zm304.69-22.56c-18.84 18.84-43.89 29.22-70.53 29.22-15.62 0-30.64-3.66-44.24-10.4l89.35-89.35-89.35-89.35c13.59-6.74 28.62-10.4 44.24-10.4 26.64 0 51.69 10.37 70.53 29.22 18.84 18.84 29.22 43.89 29.22 70.53s-10.38 51.69-29.22 70.54Z"></path></svg>