<svg xmlns="http://www.w3.org/2000/svg" width="642" viewBox="0 0 642 642" height="642" style="overflow:visible;enable-background:new 0 0 642 642" xml:space="preserve"><path class="st0" d="M7.1 253.6h225.6v376c5.3 1.5 10.6 2.9 16 4.1V242.5L60.3 133.8c-25.4 35.3-43.8 75.8-53.2 119.8z"></path><path class="st0" d="M168.5 317.8H.1c0 1.1-.1 2.1-.1 3.2 0 122.1 68.2 228.3 168.5 282.5V317.8zM581.7 133.8 393.2 242.5v391.2c5.4-1.2 10.8-2.6 16-4.1v-376h225.6c-9.3-44-27.7-84.5-53.1-119.8z"></path><path class="st0" d="M473.5 317.8v285.7C573.8 549.3 642 443.1 642 321c0-1.1-.1-2.1-.1-3.2H473.5zM329 205.4 538.2 84.7C481.1 32.1 404.8 0 321 0S160.9 32.1 103.8 84.7L313 205.4v436.4c2.7.1 5.3.2 8 .2s5.3-.1 8-.2V205.4zm-86.6-104.3c0-43.4 35.2-78.6 78.6-78.6s78.6 35.2 78.6 78.6-35.2 78.6-78.6 78.6-78.6-35.2-78.6-78.6z"></path></svg>