<svg xmlns="http://www.w3.org/2000/svg" width="617.6" viewBox="0 0 617.6 518" height="518" xml:space="preserve" style="enable-background:new 0 0 617.6 518"><path d="M213.8 437.8h1V330.9h-53.5v-53.4h161.4v53.4h-52.5v106.9h52.5v53.5H161.3V454h-26.7v64h214.8V411.1h-52.5v-53.5h52.5V250.7H134.6v106.9h53.5v53.5H26.7v-53.5h52.5V80.2H26.7V26.7h160.4v53.5h-52.5v106.9h213.8V80.2h-52.5V26.7h160.4v53.5h-52.5v277.4h52.5v53.5h-52.5V518h213.8V411.1h-52.5v-53.5h52.5V250.7H446.4v26.8h144.5v53.4h-52.5v106.9h52.5v53.5H430.5v-53.5H483V330.9h-52.5v-224H483V0H269.2v106.9h52.5v53.4H161.3v-53.4h52.5V0H0v106.9h52.5v224H0v106.9z"></path></svg>