<svg data-name="Layer 1" xmlns="http://www.w3.org/2000/svg" viewBox="0 0 627.82 627.82"><path d="M313.91 373.74c32.99 0 59.83-26.84 59.83-59.83V51.63h-43.76v262.28c0 8.86-7.21 16.07-16.07 16.07s-16.07-7.21-16.07-16.07V51.63h-43.76v262.28c0 32.99 26.84 59.83 59.83 59.83ZM118.34 460.69c0 32.99 26.84 59.83 59.83 59.83H487.6v-43.76H178.17c-8.86 0-16.07-7.2-16.07-16.07s7.21-16.07 16.07-16.07H487.6v-43.76H178.17c-32.99 0-59.83 26.84-59.83 59.83Z"></path><path d="M313.91 0C140.82 0 0 140.82 0 313.91s140.82 313.91 313.91 313.91S627.82 487 627.82 313.91 487 0 313.91 0Zm0 618.36c-167.87 0-304.45-136.58-304.45-304.45S146.04 9.46 313.91 9.46s304.45 136.58 304.45 304.45-136.58 304.45-304.45 304.45Z"></path></svg>