<svg xmlns="http://www.w3.org/2000/svg" width="606.1" viewBox="0 0 606.1 607.4" height="607.4" xml:space="preserve"><path d="m435.4 229.3 109.4-109.4a304.24 304.24 0 0 0-109.4-89.6v199zM170.8 229.3v-199C127.6 51.2 90.2 82 61.4 119.8l109.4 109.5zM209.6 284.3h186.9V14.7C367.1 5.2 335.7 0 303.1 0s-64 5.2-93.4 14.7v269.6zM435.4 284.2h170.8c-3-47.6-17-92.2-39.4-131.4L435.4 284.2zM606.1 323.1H435.4l131.4 131.4c22.4-39.1 36.3-83.7 39.3-131.4zM435.4 378.2v199c43.2-20.9 80.6-51.8 109.4-89.6L435.4 378.2zM396.5 323.1H209.6v269.6c29.4 9.5 60.8 14.7 93.4 14.7s64-5.2 93.4-14.7V323.1zM170.8 323.2 0 323.1c3 47.6 17 92.2 39.4 131.4l131.4-131.3zM170.8 378.2 61.4 487.6c28.8 37.8 66.3 68.7 109.4 89.6v-199zM170.8 284.2 39.4 152.9C17 192 3 236.7 0 284.3l170.8-.1z"></path></svg>