<svg xmlns="http://www.w3.org/2000/svg" width="260" viewBox="0 0 260 642" height="642" style="overflow:visible;enable-background:new 0 0 260 642" xml:space="preserve"><path d="m189.4 0-70.6 70.7v460.8l-36.9-37V11.2L70.6 0 0 70.7v500.6L70.6 642l70.6-70.7V110.4l36.9 37v483.4l11.2 11.2 70.6-70.7V70.7L189.4 0zM22.5 79.3l36.9-36.9v452.2l-36.9 37V79.3zm215 483.3-36.9 37V147.4l36.9-37v452.2zm-215 .1 48.2-48.2 48.2 48.2-48.2 48.2-48.2-48.2zm215-483.4-48.2 48.2-48.2-48.2 48.2-48.2 48.2 48.2z"></path></svg>