<svg xmlns="http://www.w3.org/2000/svg" id="a" width="454.55" viewBox="0 0 454.55 642" height="642" data-name="Layer 1"><defs></defs><path d="M225.3 103.6C220.6 45.6 172.04 0 112.84 0 50.52 0 0 50.52 0 112.84c0 31.16 12.63 59.37 33.05 79.79l194.23 194.23 194.23-194.23c20.42-20.42 33.05-48.63 33.05-79.79C454.55 50.52 404.03 0 341.72 0c-59.21 0-107.76 45.6-112.46 103.6h-3.96ZM212.82 642C100.69 634.56 12.05 541.26 12.05 427.25V212.51l200.77 200.77V642ZM241.73 642c112.13-7.44 200.77-100.74 200.77-214.75V212.51L241.73 413.28V642Z" class="b"></path></svg>