<svg xmlns="http://www.w3.org/2000/svg" width="604.4" viewBox="0 0 604.4 604.4" height="604.4"><circle transform="rotate(-45.001 302.21 302.217)" cx="302.2" cy="302.2" r="197.5"></circle><path d="M554.2 352.2c5.3-22.8 25.7-39.8 50.1-39.9.1-3.4.2-6.7.2-10.1 0-2.3 0-4.6-.1-7-20-.3-38.8-12.2-47-31.9-1.5-3.6-2.5-7.3-3.2-11.1 0-.1 0-.3-.1-.4-3.8-23.1 8.6-46.6 31.1-56-2-5.3-4.2-10.6-6.5-15.8-18.6 7.4-40.6 3.6-55.7-11.4-2.8-2.8-5.2-5.8-7.2-9-.1-.1-.1-.2-.2-.3-12.3-19.9-9.9-46.2 7.2-63.5-3.9-4.2-7.9-8.2-12-12.2-14.3 13.9-36.1 18.8-55.8 10.7-3.6-1.5-7-3.4-10.1-5.6-.1-.1-.2-.1-.3-.2-19-13.7-26.9-39-17.6-61.6-5.2-2.4-10.4-4.6-15.7-6.6-7.9 18.4-26.2 31.3-47.5 31.3-3.9 0-7.8-.5-11.5-1.3-.1 0-.3-.1-.4-.1-22.7-5.3-39.7-25.7-39.8-50.1-3.1 0-6.5-.1-9.9-.1-2.4 0-4.7 0-7.1.1-.3 20-12.2 38.9-31.9 47-3.6 1.5-7.2 2.5-10.9 3.2.2 1.3.4 2.6.5 3.9 6.6 21 26.1 36.2 49.3 36.2 23.4 0 43.1-15.6 49.5-36.9-2.3 22.1 10 44.1 31.6 53 21.7 9 45.9 2.1 59.9-15.2-10.7 19.6-7.7 44.6 8.8 61.2 16.6 16.6 41.6 19.5 61.2 8.8-17.3 14-24.2 38.3-15.2 59.9s30.9 33.9 53 31.6c-21.3 6.3-36.9 26.1-36.9 49.5s15.6 43.1 36.9 49.5c-22.1-2.3-44.1 10-53 31.6-9 21.7-2.1 45.9 15.2 59.9-19.6-10.7-44.6-7.7-61.2 8.8-16.6 16.6-19.5 41.6-8.8 61.2-14-17.4-38.3-24.2-59.9-15.3-21.6 8.9-33.9 30.9-31.6 53-6.3-21.3-26.1-36.9-49.5-36.9S259 529.7 252.6 551c2.3-22.1-10-44.1-31.6-53-21.6-9-45.9-2.1-59.9 15.2 10.7-19.6 7.8-44.6-8.8-61.2s-41.6-19.5-61.2-8.9c17.4-14 24.2-38.3 15.3-59.9-8.9-21.6-30.9-33.9-53-31.6 21.3-6.3 36.9-26.1 36.9-49.5S74.8 259 53.4 252.6c22.1 2.3 44.1-10 53-31.6 9-21.6 2.1-45.9-15.2-59.9 19.6 10.7 44.6 7.8 61.2-8.8s19.5-41.6 8.9-61.2c14 17.4 38.3 24.2 59.9 15.3 21.4-8.8 33.7-30.4 31.7-52.3-.4-1.2-.7-2.5-1-3.8-23.1 3.8-46.7-8.5-56.1-31.1-5.3 2-10.6 4.2-15.8 6.5 7.4 18.6 3.6 40.6-11.4 55.7-2.7 2.7-5.7 5.1-8.9 7.1-.1.1-.2.1-.3.2-19.9 12.4-46.4 10.1-63.7-7.1-4.2 3.9-8.2 7.9-12.1 12 13.9 14.3 18.8 36.1 10.7 55.8-1.5 3.6-3.3 6.9-5.5 9.9-.1.1-.1.2-.2.3-13.6 19.1-39.1 27.1-61.7 17.8-2.3 5.2-4.5 10.4-6.6 15.7 18.4 7.9 31.3 26.2 31.3 47.4 0 3.9-.4 7.6-1.2 11.3 0 .1-.1.3-.1.4C45 275 24.6 292.1.2 292.2c-.1 3.3-.2 6.7-.2 10 0 2.4 0 4.7.1 7 20 .3 38.9 12.2 47 31.9 1.5 3.6 2.5 7.2 3.2 10.9 0 .1 0 .3.1.4 3.9 23.1-8.5 46.7-31.1 56.1 2 5.3 4.2 10.6 6.5 15.8 18.6-7.4 40.6-3.6 55.7 11.4 2.8 2.8 5.1 5.8 7.1 8.9.1.1.1.2.2.3 12.4 19.9 10.1 46.3-7.1 63.7 3.9 4.2 7.9 8.2 12 12.1 14.3-13.9 36.1-18.8 55.8-10.7 3.6 1.5 6.9 3.3 10 5.5.1.1.2.1.3.2 19.1 13.6 27 39 17.7 61.7 5.2 2.3 10.4 4.5 15.7 6.6 7.9-18.4 26.2-31.3 47.5-31.3 3.9 0 7.7.4 11.3 1.3.1 0 .3.1.4.1 22.8 5.3 39.8 25.7 39.9 50.1 3.3.1 6.7.2 10.1.2 2.3 0 4.7 0 7-.1.3-20 12.2-38.8 31.9-47 3.6-1.5 7.3-2.5 11-3.2.1 0 .3 0 .4-.1 23.1-3.8 46.7 8.5 56.1 31.1 5.3-2 10.6-4.2 15.8-6.5-7.4-18.6-3.6-40.6 11.4-55.7 2.8-2.8 5.8-5.1 9-7.1.1-.1.2-.1.3-.2 19.9-12.4 46.3-10 63.6 7.2 4.2-3.9 8.2-7.9 12.1-12-13.9-14.3-18.8-36.1-10.7-55.8 1.5-3.6 3.4-7 5.5-10 .1-.1.1-.2.2-.3 13.6-19.1 39-27 61.6-17.7 2.3-5.2 4.5-10.4 6.6-15.7-18.4-7.9-31.3-26.2-31.3-47.5 0-3.9.5-7.7 1.3-11.4-.1 0-.1-.1 0-.2z"></path></svg>