<svg xmlns="http://www.w3.org/2000/svg" width="600" viewBox="0 0 600 390.02" height="390.02" style="overflow:visible;enable-background:new 0 0 600 390.02" xml:space="preserve"><path d="M2.79 0h278.85c1.55 0 2.79 1.25 2.79 2.79v66.77c0 1.55-1.25 2.79-2.79 2.79h-75.98c-14.37 0-26.02 11.65-26.02 26.02v77.36c0 1.55 1.25 2.79 2.78 2.79h142.91c13.78 0 26.49 7.4 33.31 19.37l40.39 69.13c.56.98 2.06.59 2.06-.55V98.37c0-14.37-11.64-26.01-26.01-26.01h-75.99c-1.55 0-2.79-1.25-2.79-2.79V2.79c0-1.55 1.25-2.79 2.79-2.79h278.85c1.55 0 2.79 1.25 2.79 2.79v66.77c0 1.55-1.25 2.79-2.79 2.79H499.7c-14.15 0-25.63 11.47-25.63 25.63v168.54c0 1.12 1.49 1.51 2.04.54l50.34-87.11c.5-.88 1.43-1.42 2.43-1.42h68.33c2.16 0 3.5 2.35 2.41 4.2L474.87 388.65c-.51.85-1.42 1.38-2.41 1.38h-69.78c-.98 0-1.9-.52-2.4-1.38l-74.65-123.16a25.876 25.876 0 0 0-22.28-12.73H198.71c-10.53 0-19.07 8.54-19.07 19.08v115.39c0 1.55-1.25 2.79-2.79 2.79h-67.39c-1.53 0-2.78-1.25-2.78-2.79V271.85c0-10.54-8.55-19.09-19.09-19.09H2.79c-1.55 0-2.79-1.25-2.79-2.79v-68.63c0-1.55 1.25-2.79 2.79-2.79h101.08c1.55 0 2.79-1.25 2.79-2.79V98.67c0-14.53-11.78-26.31-26.32-26.31H2.79c-1.54 0-2.79-1.25-2.79-2.8V2.79C0 1.25 1.25 0 2.79 0"></path></svg>