<svg xmlns="http://www.w3.org/2000/svg" width="618.5" viewBox="0 0 618.5 324.4" height="324.4" style="enable-background:new 0 0 618.5 324.4" xml:space="preserve"><path d="M507.8 260.4v22.9c0 5.2 4.2 9.4 9.4 9.4h101.3v31.6H501.8c-14.2 0-25.7-11.5-25.7-25.7v-53.7c0-14.2 11.5-25.7 25.7-25.7h75.6c5.2 0 9.4-4.2 9.4-9.4V41.1c0-5.2-4.2-9.4-9.4-9.4h-23.7c-5.2 0-9.4 4.2-9.4 9.4v111.7c0 14.2-11.5 25.7-25.7 25.7h-74.4c-5.2 0-9.4 4.2-9.4 9.4v110.9c0 14.2-11.5 25.7-25.7 25.7h-53.3c-14.2 0-25.7-11.5-25.7-25.7V99.9c0-14.2 11.5-25.7 25.7-25.7h73.6c5.2 0 9.4-4.2 9.4-9.4V41.1c0-5.2-4.2-9.4-9.4-9.4H189.1c-5.2 0-9.4 4.2-9.4 9.4v23.7c0 5.2 4.2 9.4 9.4 9.4h73.6c14.2 0 25.7 11.5 25.7 25.7v198.8c0 14.2-11.5 25.7-25.7 25.7h-53.3c-14.2 0-25.7-11.5-25.7-25.7V187.8c0-5.2-4.2-9.4-9.4-9.4H99.9c-14.2 0-25.7-11.5-25.7-25.7V41.1c0-5.2-4.2-9.4-9.4-9.4H41.1c-5.2 0-9.4 4.2-9.4 9.4V210c0 5.2 4.2 9.4 9.4 9.4h75.6c14.2 0 25.7 11.5 25.7 25.7v53.7c0 14.2-11.5 25.7-25.7 25.7H0v-31.6h101.3c5.2 0 9.4-4.2 9.4-9.4v-22.9c0-5.2-4.2-9.4-9.4-9.4H25.7C11.5 251 0 239.5 0 225.3V25.7C0 11.5 11.5 0 25.7 0h54.5c14.2 0 25.7 11.5 25.7 25.7v111.7c0 5.2 4.2 9.4 9.4 9.4h74.4c14.2 0 25.7 11.5 25.7 25.7v110.9c0 5.2 4.2 9.4 9.4 9.4h22.5c5.2 0 9.4-4.2 9.4-9.4V115.3c0-5.2-4.2-9.4-9.4-9.4h-73.6c-14.2 0-25.7-11.5-25.7-25.7V25.7C148 11.5 159.5 0 173.7 0h271.1c14.2 0 25.7 11.5 25.7 25.7v54.5c0 14.2-11.5 25.7-25.7 25.7h-73.6c-5.2 0-9.4 4.2-9.4 9.4v168.1c0 5.2 4.2 9.4 9.4 9.4h22.5c5.2 0 9.4-4.2 9.4-9.4V172.5c0-14.2 11.5-25.7 25.7-25.7h74.4c5.2 0 9.4-4.2 9.4-9.4V25.7c0-14.2 11.5-25.7 25.7-25.7h54.5c14.2 0 25.7 11.5 25.7 25.7v199.7c0 14.2-11.5 25.7-25.7 25.7h-75.6c-5.2-.1-9.4 4.1-9.4 9.3"></path></svg>