<svg data-name="Layer 1" xmlns="http://www.w3.org/2000/svg" viewBox="0 0 627.02 626.89"><path d="M295.91.43C20.08 16.62-102.19 356.7 101.52 544.6c198.39 182.33 525.28 42.42 525.5-231.1-3.1-124.12-120.41-215.91-241.26-181.08-103.84 28.57-163.87 142.57-127.39 243.62l177.21 2.72c-37.69-5.83-54.83-27.43-58.81-51.9-12.18-105.73 163.44-102.52 119.13 45.12-47.96 161.6-273.64 174.88-349.75 29.15-47.09-86-15.54-199.9 69.36-249.11 45.34-27.86 106.88-35.12 160.3-16.11V6.22C346.44.76 321.35-.89 295.91.43Z"></path></svg>