<svg data-name="Layer 1" xmlns="http://www.w3.org/2000/svg" viewBox="0 0 604.09 298.62"><path d="m357.38 0-43.31 43.31a13.933 13.933 0 0 0-4.11 9.92v223.39c0 12.14 9.87 22.01 22.01 22.01h220.38c3.69 0 7.3-1.5 9.92-4.11l41.81-41.82L357.38 0Zm202.04 291.66a10.076 10.076 0 0 1-7.07 2.93H417.34L313.99 188.73V53.23c0-2.67 1.04-5.18 2.93-7.07l40.43-40.43 241.07 246.93-39 38.99ZM246.71 0 0 252.7l41.81 41.82c2.62 2.61 6.23 4.11 9.92 4.11h220.38c12.13 0 22.01-9.87 22.01-22.01V53.23c0-3.75-1.46-7.27-4.11-9.92L246.71 0Zm43.38 188.73L186.74 294.59H51.73c-2.63 0-5.21-1.07-7.07-2.93L5.67 252.67 246.74 5.73l40.42 40.42a9.915 9.915 0 0 1 2.93 7.07v135.51Z"></path></svg>