<svg data-name="Layer 1" xmlns="http://www.w3.org/2000/svg" viewBox="0 0 620.61 620.61"><path d="M0 0v620.61h620.61V0H0Zm602.27 602.27H18.34V18.34h583.93v583.93Z"></path><path d="M257.18 539.17h40.1v-40.1h40.1v-40.1h40.1v-40.1h40.1V203.04H201.73v40.1h-40.09v40.1h-40.1v40.1h-40.1v40.1h-40.1v215.84h215.83v-40.1Zm21.76-18.34h-21.76v-21.76h21.76v21.76ZM99.78 381.77h21.76v117.3h117.3v21.76H99.78V381.77Zm259.35 18.76h-21.76v-117.3h-117.3v-21.76h139.06v139.06Zm-40.1-98.96v98.96h-21.76v-77.2h-77.2v-21.76h98.96Zm-61.85 139.06v-21.76h21.76v21.76h-21.76Zm21.76 18.34v21.76h-21.76v-21.76h21.76Zm-98.96-77.2h21.75v37.11h37.11v21.76h-58.86v-58.86Zm98.96 18.76h-21.76v-37.11h-37.11v-21.76h58.86v58.86Zm-40.09-18.76v18.76h-18.77v-18.76h18.77Zm58.44 37.11h21.76v21.76h-21.76v-21.76Zm-95.54-95.54H180v-21.76h21.75v21.76Zm0 18.34v21.76H180v-21.76h21.75Zm-40.09 21.76H139.9v-21.76h21.76v21.76Zm0 18.34v77.2h77.2v21.76H139.9v-98.96h21.76Zm157.39 98.96h-21.76v-21.76h21.76v21.76Zm40.1-40.1h-21.76v-21.76h21.76v21.76ZM220.07 221.38h179.15v179.15h-21.76V243.14H220.07v-21.76Zm-40.09 40.1h21.75v21.76h-21.75v-21.76Zm-40.1 40.1h21.76v21.76h-21.76v-21.76Zm-40.1 40.1h21.76v21.76H99.78v-21.76Zm-40.1 219.25V381.78h21.76v157.4h157.4v21.76H59.68Z"></path></svg>