<svg data-name="Layer 1" xmlns="http://www.w3.org/2000/svg" viewBox="0 0 629.59 629.6"><path d="M314.8 219.05c58.64-62.69 135.68-107.92 222.43-127.01C480.27 35.17 401.64 0 314.8 0S149.32 35.17 92.37 92.04c86.74 19.09 163.79 64.32 222.43 127.01ZM371.11 294.03c9.14 15.4 17.35 31.4 24.55 47.94 50.38-68.56 130.07-114.24 220.43-118.51-5.01-16.56-11.36-32.53-18.9-47.81-90.3 8.7-170.38 52.83-226.08 118.38ZM0 315.07c.11 132.55 82.18 245.85 198.24 292.15v-93.58c0-109.38-88.9-198.39-198.24-198.57ZM431.35 513.64v93.58c116.06-46.3 198.13-159.6 198.24-292.15-109.34.19-198.24 89.19-198.24 198.57ZM314.8 387.12c-15.77 39.13-24.54 81.82-24.54 126.53v114.92c8.11.63 16.27 1.04 24.54 1.04s16.43-.42 24.54-1.04V513.65c0-44.71-8.77-87.39-24.54-126.53ZM233.94 341.97c7.2-16.55 15.41-32.55 24.55-47.94-55.7-65.55-135.78-109.68-226.08-118.38-7.55 15.28-13.89 31.25-18.9 47.81 90.37 4.27 170.06 49.95 220.44 118.51Z"></path></svg>