<svg data-name="Layer 1" xmlns="http://www.w3.org/2000/svg" viewBox="0 0 614.86 614.86"><path d="M0 0v614.86h614.86V0H0Zm602.12 602.12H12.69V12.69h589.43v589.43ZM140.94 458.37h15.51v28.3c0 50.29 40.94 91.22 91.22 91.22 22.19 0 43.18-7.99 59.79-22.45 16.03 13.94 36.87 22.45 59.74 22.45 50.29 0 91.22-40.94 91.22-91.22v-28.3h15.51c50.29 0 91.22-40.94 91.22-91.22 0-22.19-7.99-43.18-22.45-59.79 13.94-16.03 22.45-36.87 22.45-59.74 0-50.29-40.94-91.22-91.22-91.22h-15.51v-28.3c0-50.29-40.94-91.22-91.22-91.22-22.19 0-43.18 7.99-59.79 22.45-16.03-13.94-36.87-22.45-59.74-22.45-50.29 0-91.22 40.94-91.22 91.22v28.3h-15.51c-50.29 0-91.22 40.94-91.22 91.22 0 22.19 7.99 43.18 22.45 59.79-13.94 16.03-22.45 36.87-22.45 59.74 0 50.29 40.94 91.22 91.22 91.22Zm28.2 28.3v-40.99h-28.2c-43.29 0-78.54-35.19-78.54-78.54s35.19-78.54 78.54-78.54H241.3v37.54H140.94c-22.61 0-40.99 18.38-40.99 40.99s18.38 40.99 40.99 40.99h65.74v78.54c0 22.61 18.38 40.99 40.99 40.99 13 0 24.44-6.16 31.96-15.61 3.76 12.9 10.23 24.54 18.85 34.41-14.15 12.06-31.96 18.69-50.76 18.69-43.29 0-78.54-35.19-78.54-78.54l-.05.05Zm-56.5-239c0-15.61 12.69-28.3 28.3-28.3h78.43v-91.22c0-15.61 12.69-28.3 28.3-28.3s28.3 12.69 28.3 28.3v147.78H140.99c-15.61 0-28.3-12.69-28.3-28.3l-.05.05Zm175.97 40.99v-34.62h37.54v34.62h34.62v37.54h-34.62v34.62h-37.54V326.2h-34.62v-37.54h34.62Zm185.22-69.29c15.61 0 28.3 12.69 28.3 28.3s-12.69 28.3-28.3 28.3H338.85V128.19c0-15.61 12.69-28.3 28.3-28.3s28.3 12.69 28.3 28.3v91.22h78.43l-.05-.05Zm28.3 147.78c0 15.61-12.69 28.3-28.3 28.3H395.4v91.22c0 15.61-12.69 28.3-28.3 28.3s-28.3-12.69-28.3-28.3V338.89h134.98c15.61 0 28.3 12.69 28.3 28.3l.05-.05Zm-361.19 28.3c-15.61 0-28.3-12.69-28.3-28.3s12.69-28.3 28.3-28.3h134.98v147.78c0 15.61-12.69 28.3-28.3 28.3s-28.3-12.69-28.3-28.3v-91.22h-78.43l.05.05Zm332.94 50.23h-28.2v40.99c0 43.29-35.19 78.54-78.54 78.54s-78.54-35.19-78.54-78.54V373.51h37.54v113.16c0 22.61 18.38 40.99 40.99 40.99s40.99-18.38 40.99-40.99v-78.54h65.74c22.61 0 40.99-18.38 40.99-40.99 0-13-6.16-24.44-15.61-31.96 12.9-3.76 24.59-10.23 34.41-18.85 12.06 14.2 18.69 31.96 18.69 50.81 0 43.29-35.19 78.54-78.48 78.54Zm-28.2-317.54v40.99h28.2c43.29 0 78.48 35.19 78.48 78.54s-35.19 78.54-78.48 78.54H373.52v-37.54h100.36c22.61 0 40.99-18.38 40.99-40.99s-18.38-40.99-40.99-40.99h-65.74v-78.54c0-22.61-18.38-40.99-40.99-40.99-13 0-24.44 6.16-31.96 15.61-3.76-12.9-10.23-24.54-18.85-34.41 14.15-12.06 31.96-18.69 50.76-18.69 43.29 0 78.54 35.19 78.54 78.54l.05-.05Zm-304.74 40.99h28.2v-40.99c0-43.29 35.19-78.54 78.54-78.54s78.48 35.19 78.48 78.54V241.3h-37.54V128.14c0-22.61-18.38-40.99-40.99-40.99s-40.99 18.38-40.99 40.99v78.54H140.9c-22.61 0-40.99 18.38-40.99 40.99 0 13 6.16 24.44 15.61 31.96-12.9 3.76-24.59 10.23-34.41 18.85-12.06-14.2-18.69-31.96-18.69-50.76 0-43.29 35.19-78.54 78.54-78.54v-.05Z"></path></svg>