<svg xmlns="http://www.w3.org/2000/svg" width="599" viewBox="0 0 599 552.5" height="552.5"><path d="M57.3 55.9c-17.1 42.4-.8 92.1 40 115.6l85.6 49.4c46.6 27.8 77.8 78.8 77.8 137v101.2c0 25.7 10.4 49 27.2 65.9-4.2 4.2-8.7 8-13.6 11.3-24.7-16.8-40.8-45.1-40.8-77.2V357.9c0-48.2-25.6-90.4-64-113.7l-85.7-49.1c-41.2-23.8-52.7-74-34.7-116.7-2.3 3.1-4.5 6.3-6.5 9.7C16.7 132.8 27.3 189.5 72 215.3l85.3 49.8c31.2 19.2 52 53.6 52 92.9l.8 101.2c0 36.9 21.4 68.8 52.5 84-4.4 2.1-8.9 3.9-13.6 5.4-38.3-11.7-66.1-47.2-66.1-89.3V358.1c0-29.5-15.6-55.3-39-69.6l-85.5-49.4C17.2 215.3 1 164.8 19 122.1c-2.3 3.1-4.5 6.3-6.5 9.7C-13.3 176.2 2 233.3 46.7 259.1l85.5 49.4c16.4 10.3 27.3 28.6 27.3 49.4v101.2c0 46.3 33.6 84.6 77.8 92 0 0 4.7 1.1 11.7 1.2 6.9.1 11.7-1.2 11.7-1.2 44.1-7.4 77.8-45.8 77.8-92V357.9c0-58.2 31.2-109.2 77.8-137l85.5-49.4c23.3-13.4 38.6-35.4 44.2-59.6 5.5 1.7 10.9 3.8 16 6.5-1.4 30.8-17.9 60.2-46.6 76.7l-85.7 49.1c-38.4 23.3-64 65.6-64 113.8v101.2c0 47.6-35.6 86.9-81.7 92.6 3.8.5 7.7.7 11.7.7 51.6 0 93.3-41.8 93.3-93.3l.8-101.2c0-39.3 20.8-73.7 52-92.9l85.3-49.8c32.7-18.9 49.7-54.7 46.2-90 3.9 2.8 7.6 5.9 11.1 9.3 10.3 39.6-6.5 82.8-43.7 104.2l-85.5 49.4c-23.4 14.4-39 40.2-39 69.6V459c0 47.6-35.6 86.9-81.7 92.6 3.8.5 7.7.7 11.7.7 51.6 0 93.3-41.8 93.3-93.3V357.9c0-20.8 10.8-39 27.2-49.3l85.6-49.5c40.7-23.5 57-73.1 40-115.5 0 0-2.4-5.8-4.8-10.1-2.3-4.3-6.9-10.1-6.9-10.1-28.2-36-79.3-46.8-120.1-23.2L375.3 150c-22.4 12.1-48.1 18.9-75.4 18.9-27.5 0-53.4-7-76-19.2l-85.1-50.2C115.3 86 88.5 83.8 64.5 91.2c-1.2-5.5-2-11.1-2.2-16.8 27.4-14.3 61.2-14.7 90 1.9l84.9 50.6c18.7 10 40.1 15.7 62.7 15.7 22.4 0 43.6-5.6 62.1-15.4l85-50.7C488.2 52.7 540 64 568 101c-1.5-3.5-3.2-7-5.2-10.5-25.8-44.6-82.9-59.9-127.5-34.2L350 106.2c-15 7.8-32 12.2-50.1 12.2-18.3 0-35.5-4.5-50.7-12.5L164 56c-32.8-19-72.4-15.7-101.3 5.1.5-4.7 1.3-9.4 2.5-14.1 29.2-28.7 75-35.8 112.2-14.3l85.5 49.5c11.1 5.7 23.7 8.9 37 8.9 13.1 0 25.5-3.1 36.4-8.6l85.3-49.8C462.9 9 514.7 20.2 542.7 57.2c-1.5-3.5-3.2-7-5.2-10.5C511.7 2.1 454.7-13.2 410 12.5l-85.4 49.7c-7.5 3.5-15.9 5.5-24.7 5.5-9.1 0-17.8-2.1-25.5-5.8L189 12.5C148.3-11 97.2-.3 69 35.7c0 0-3.4 4.1-6.6 9.6s-5.1 10.6-5.1 10.6zm432.8 95.4l-85.6 49.4c-53.6 31.9-89.5 90.4-89.5 157.2v101.2c0 19.1-5.7 36.8-15.6 51.6-9.8-14.8-15.6-32.5-15.6-51.6V357.9c0-66.9-35.9-125.3-89.4-157.2l-85.6-49.4c-18-10.4-31.2-25.9-38.9-43.6 19.2-2.2 39.2 1.5 57.2 11.9l84.8 50.1c26.1 14.3 56.1 22.5 88 22.5 31.5 0 61.2-8 87.1-22l85.3-49.9c17.8-10.3 37.5-14 56.5-12-7.8 17.5-20.9 32.7-38.7 43z"></path></svg>