<svg xmlns="http://www.w3.org/2000/svg" width="561.75" viewBox="0 0 561.75 642" height="642" data-name="Layer 1"><path d="m348.67 272.08 15.28-15.28h196.77c-.51-5.97-1.16-11.81-2.05-17.66h-67.99l62.79-26c-1.35-5.78-3.02-11.49-4.81-17.14l-104.07 43.14h-39.87l138.93-57.52.13-.06-1.54-3.66-4.37-10.46-.9-2.25-.06.06-138.99 57.59 28.18-28.18 104.13-43.14c-2.76-5.26-5.65-10.46-8.67-15.54l-62.85 26.07 48.09-48.09c-3.53-4.75-7.19-9.44-11.04-13.93L100.09 495.75c4.49 3.85 9.18 7.58 13.93 10.98l109.12-109.12c.23-.23.47-.43.72-.61a5.48 5.48 0 0 1 4.33-.93c1.01.2 1.97.68 2.74 1.38 1.09.99 1.8 2.41 1.8 4.14V642h24.07V363.95l15.22-15.22V642h17.72l-.06-310.92 15.28-15.28V642h24.08V401.58c0-.35.03-.68.09-1a5.512 5.512 0 0 1 2.3-3.59 5.77 5.77 0 0 1 3.53-1.02c1.29.06 2.6.58 3.67 1.65l109.11 109.12c4.82-3.47 9.44-7.13 14-10.98L322.62 356.64v-21.57l150.55 150.55 12.58-12.39L322.62 310.1v-11.94l4.82-4.81 168.33 168.4c3.85-4.49 7.51-9.18 11.04-13.93l-48.09-48.09 62.85 26c3.02-5.07 5.97-10.21 8.67-15.47l-104.13-43.14-28.18-28.18 138.99 57.59 6.74-16.31-138.99-57.59h39.8l104.2 43.14c1.8-5.65 3.47-11.36 4.81-17.14l-62.79-26h67.99c.9-5.84 1.54-11.68 2.05-17.66H363.96l-15.22-15.22h213.02v-17.66H348.68ZM461.73 66 66 461.73c-3.85-4.49-7.51-9.18-11.04-13.93v-.06l47.96-47.96-62.72 25.94a245.96 245.96 0 0 1-8.67-15.54l104.2-43.14 27.99-28.06L24.79 396.5l-6.68-16.37 138.93-57.52h-39.87L13.1 365.75c-1.8-5.65-3.47-11.36-4.81-17.14l62.72-26H3.08c-.9-5.84-1.54-11.68-2.05-17.66H197.8l15.15-15.22H0v-17.66h213.02l-15.22-15.28H1.03c.51-5.97 1.16-11.81 2.05-17.66h67.99l-62.79-26c1.35-5.78 2.95-11.49 4.81-17.08l104.07 43.08h39.87L17.98 181.56l6.81-16.31 138.99 57.59-28.06-28.12-.13-.06-104.07-43.14c2.76-5.26 5.65-10.46 8.67-15.54l62.72 26-47.96-48.02c3.53-4.75 7.19-9.44 11.04-13.93l168.33 168.4 4.82-4.81v-11.94l-163-163.02 12.39-12.58 150.61 150.61v-21.64L100.09 66c4.49-3.85 9.18-7.58 13.93-10.98l48.02 48.02-26-62.85c5.07-3.08 10.21-5.97 15.47-8.67l43.14 104.13 28.18 28.18-57.64-139.05 16.37-6.81 57.59 139.06v-39.8L196 13.1c5.65-1.8 11.36-3.4 17.14-4.81l26 62.79v-68c5.84-.9 11.68-1.54 17.65-2.05v244.92l15.22-15.22V0h17.66v213.08l15.28-15.28V1.03c5.97.51 11.81 1.16 17.66 2.05v67.99l26-62.79c5.78 1.41 11.49 3.02 17.14 4.81l-43.14 104.13v39.87L380.2 17.97l16.31 6.81-57.52 138.93 28.06-27.99 43.21-104.2c5.26 2.7 10.4 5.59 15.47 8.67l-26 62.85 48.02-48.02c4.82 3.47 9.44 7.13 14 10.98ZM485.74 88.53l-12.59-12.39L76.08 473.28l12.58 12.33L485.74 88.53z"></path></svg>