<svg data-name="Layer 1" xmlns="http://www.w3.org/2000/svg" viewBox="0 0 626.6 626.6"><path d="M365.93 133.35c77.92 22.75 134.86 94.68 134.86 179.94h90.85c0-135.72-97.16-248.69-225.7-273.3V0l-52.63 80.59 52.63 96.44v-43.68ZM133.35 260.67c22.75-77.92 94.68-134.86 179.94-134.86V34.97c-135.72 0-248.69 97.16-273.3 225.7H0l80.59 52.63 96.44-52.63h-43.67ZM260.67 453.09v40.15c-77.92-22.75-134.86-94.68-134.86-179.94H34.97c0 135.72 97.16 248.69 225.7 273.3v40l52.63-80.59-52.63-96.44v3.52ZM546.01 313.3l-96.44 52.63h43.67c-22.75 77.92-94.68 134.86-179.94 134.86v90.85c135.72 0 248.68-97.16 273.3-225.7h40l-80.59-52.63Z"></path><path d="M368.98 313.3h47.93c0-38-20.48-71.16-50.98-89.18v-47.09l-52.63 80.59v-47.93c-38 0-71.16 20.48-89.18 50.98h-47.09l80.59 52.63h-47.93c0 38 20.48 71.16 50.98 89.18v47.09l52.63-80.59v47.93c38 0 71.16-20.48 89.18-50.98h47.09l-80.59-52.63Z"></path></svg>