<svg xmlns="http://www.w3.org/2000/svg" width="582.4" viewBox="0 0 582.4 582.4" height="582.4"><path class="st0" d="M353.5 206.2L559.7 0h-35.2l-144 144v-21.6L503 0h-35.2l-87.3 87.3V65.8L446.3 0h-35.2l-30.6 30.6V0h-31.2c-10.7 19.2-30.6 32.7-53.7 34.4.6-12.7 4.8-24.5 11.5-34.4h-34.8c6.7 9.9 10.9 21.7 11.5 34.3C261.3 32.1 242 18.8 231.5 0h-33.3v28.5L169.7 0h-35.2l63.7 63.7v21.6L113 0H77.8l120.4 120.4V142L56.3 0H21.1l206.2 206.2c34.9 34.9 91.3 34.9 126.2 0zm4.2-179.6c-1.7 33.9-28.5 61.3-62.1 63.8 1.6-33.9 28.4-61.2 62.1-63.8zm0 59.6c-1.7 33.9-28.5 61.3-62.1 63.8 1.6-33.9 28.4-61.3 62.1-63.8zm0 57c-1.7 33.9-28.5 61.3-62.1 63.8 1.6-33.9 28.4-61.3 62.1-63.8zm-73.9-52.9c-32.9-3.2-59-30.2-60.7-63.6 33 3.2 59.1 30.3 60.7 63.6zm0 59.6c-32.9-3.2-59-30.2-60.7-63.6 33 3.2 59.1 30.2 60.7 63.6zm0 57c-32.9-3.2-59-30.2-60.7-63.6 33 3.2 59.1 30.2 60.7 63.6zM582.4 21.1L376.2 227.4c-34.8 34.8-34.8 91.3 0 126.1l206.2 206.2v-35.2l-144-144H460L582.4 503v-35.2l-87.3-87.3h21.6l65.8 65.8v-35.2l-30.6-30.6h30.6v-31.2c-19.2-10.7-32.7-30.6-34.4-53.7 12.7.6 24.5 4.8 34.4 11.5v-34.8c-9.9 6.7-21.7 10.9-34.3 11.5 2.2-22.5 15.5-41.8 34.3-52.3v-33.3H554l28.5-28.5v-35.2l-63.7 63.7h-21.6l85.2-85.2V77.8L462 198.3h-21.6l142-142V21.1zm-143.3 202c-3.2 32.9-30.2 59-63.6 60.7 3.2-32.9 30.3-59 63.6-60.7zm-63.7 72.5c33.9 1.7 61.3 28.5 63.8 62.1-33.8-1.7-61.2-28.5-63.8-62.1zm57 0c33.9 1.7 61.3 28.5 63.8 62.1-33.9-1.7-61.2-28.5-63.8-62.1zm123.4 62.1c-33.9-1.7-61.3-28.5-63.8-62.1 33.9 1.6 61.2 28.4 63.8 62.1zm-.1-134.6c-3.2 32.9-30.2 59-63.6 60.7 3.2-32.9 30.2-59 63.6-60.7zm-59.6 0c-3.2 32.9-30.2 59-63.6 60.7 3.2-32.9 30.3-59 63.6-60.7zM228.9 376.2L22.7 582.4h35.2l144-144V460L79.4 582.4h35.2l87.3-87.3v21.6l-65.8 65.8h35.2l30.6-30.6v30.6h31.2c10.7-19.2 30.6-32.7 53.7-34.4-.6 12.7-4.8 24.5-11.5 34.4h34.8c-6.7-9.9-10.9-21.7-11.5-34.3 22.5 2.2 41.8 15.5 52.3 34.3h33.3V554l28.5 28.5h35.2l-63.7-63.7v-21.6l85.2 85.2h35.2L384.2 462v-21.6l142 142h35.2L355.1 376.2c-34.9-34.8-91.3-34.8-126.2 0zm-4.2 179.6c1.7-33.9 28.5-61.3 62.1-63.8-1.6 33.9-28.4 61.2-62.1 63.8zm0-59.6c1.7-33.9 28.5-61.3 62.1-63.8-1.6 33.9-28.4 61.3-62.1 63.8zm0-57c1.7-33.9 28.5-61.3 62.1-63.8-1.6 33.9-28.4 61.3-62.1 63.8zm73.9 52.9c32.9 3.2 59 30.2 60.7 63.6-33-3.2-59.1-30.2-60.7-63.6zm0-59.6c32.9 3.2 59 30.2 60.7 63.6-33-3.2-59.1-30.2-60.7-63.6zm0-57c32.9 3.2 59 30.2 60.7 63.6-33-3.2-59.1-30.2-60.7-63.6zM206.2 228.9L0 22.7v35.2l144 144h-21.6L0 79.4v35.2l87.3 87.3H65.8L0 136.2v35.2L30.6 202H0v31.2c19.2 10.7 32.7 30.6 34.4 53.7-12.7-.6-24.5-4.8-34.4-11.5v34.8c9.9-6.7 21.7-10.9 34.3-11.5C32.1 321.2 18.8 340.5 0 351v33.3h28.5L0 412.7v35.2l63.7-63.7h21.6L0 469.4v35.2l120.4-120.4H142L0 526.1v35.2l206.2-206.2c34.9-34.9 34.9-91.3 0-126.2zm.8 58c-33.9-1.7-61.3-28.5-63.8-62.1 33.9 1.6 61.2 28.4 63.8 62.1zm-57 0c-33.9-1.7-61.3-28.5-63.8-62.1 33.9 1.6 61.2 28.4 63.8 62.1zM26.6 224.7c33.9 1.7 61.3 28.5 63.8 62.1-33.9-1.6-61.2-28.4-63.8-62.1zm.1 134.6c3.2-32.9 30.2-59 63.6-60.7-3.2 32.9-30.2 59-63.6 60.7zm59.6 0c3.2-32.9 30.2-59 63.6-60.7-3.2 32.9-30.2 59-63.6 60.7zm57 0c3.2-32.9 30.2-59 63.6-60.7-3.2 32.9-30.3 59-63.6 60.7z"></path></svg>