<svg data-name="Layer 1" xmlns="http://www.w3.org/2000/svg" viewBox="0 0 626.82 626.82"><path d="M0 0v498.62h216.1l137.87-100.17 117.9 85.66-45.03-138.6 117.9-85.66H399l-45.03-138.6-45.04 138.6H163.2l117.9 85.66-27.48 84.57L99.2 317.89a14.16 14.16 0 0 1-5.83-11.45V202.92c0-10.62 8.61-19.22 19.22-19.22h151.09c9.59 0 18.08-6.17 21.05-15.29l46.12-141.94c7.28-22.41 38.98-22.41 46.26 0l46.11 141.92a22.125 22.125 0 0 0 21.05 15.29h151.09c10.62 0 19.22 8.61 19.22 19.22v103.52c0 4.53-2.17 8.79-5.83 11.45l-103.39 75.12 34.6 106.62v92.56c0 19.12-21.69 30.17-37.16 18.93L353.98 502.97 205.65 610.74H0v16.07h626.82V0H0Zm253.63 430.08Z"></path></svg>