<svg data-name="Layer 1" xmlns="http://www.w3.org/2000/svg" viewBox="0 0 508.43 627.02"><path d="M489.76 158.83c-21.16-27.34-60.49-32.35-87.82-11.2L254.22 261.94 106.49 147.63c-27.33-21.16-66.66-16.15-87.82 11.2-21.16 27.34-16.14 66.65 11.2 87.81l224.35 173.6 224.35-173.6c27.34-21.16 32.36-60.48 11.2-87.82ZM0 397.68a83.66 83.66 0 0 0 32.46 66.16l80.41 62.22v100.96h130.47V439.07L0 250.77v146.91ZM265.09 439.07v187.95h130.47V526.06l80.41-62.22a83.66 83.66 0 0 0 32.46-66.16V250.77l-243.34 188.3Z"></path><circle cx="254.22" cy="102.36" r="102.36"></circle></svg>