<svg data-name="Layer 1" xmlns="http://www.w3.org/2000/svg" viewBox="0 0 618.08 618.08"><path d="M505.55 0H112.54C50.48 0 0 50.48 0 112.54v393.01c0 62.05 50.48 112.54 112.54 112.54h393.01c62.05 0 112.53-50.48 112.53-112.54V112.54C618.08 50.49 567.6 0 505.55 0Zm88.02 505.55c0 48.54-39.49 88.03-88.02 88.03H112.54c-48.54 0-88.03-39.49-88.03-88.03V112.54C24.51 64 64 24.51 112.54 24.51h393.01c48.54 0 88.02 39.49 88.02 88.03v393.01Z"></path><path d="M505.6 63.2H107.32c-26.92 0-48.74 21.82-48.74 48.73v398.28c0 16.48 19.93 24.74 31.59 13.08l428.51-428.5c11.66-11.66 3.4-31.59-13.08-31.59Z"></path><circle cx="432.06" cy="432.06" r="89.96" transform="rotate(-9.22 431.949 431.957)"></circle></svg>