<svg data-name="Layer 1" xmlns="http://www.w3.org/2000/svg" viewBox="0 0 612.13 611.76"><path d="M335.86 272.04 563.5 140.61C509.03 56.05 414.13 0 306.07 0S103.16 56.01 48.69 140.53l227.78 131.51c18.37 10.61 41.01 10.61 59.38 0ZM261.75 297.31 34.04 165.84C12.33 207.86 0 255.51 0 306.07c0 164.13 129.2 298.06 291.44 305.7V348.74c0-21.22-11.32-40.82-29.69-51.43ZM578.14 165.93 350.39 297.42c-18.37 10.61-29.69 30.21-29.69 51.43v262.91c162.24-7.64 291.44-141.57 291.44-305.7 0-50.52-12.32-98.14-33.99-140.14Z"></path></svg>