<svg xmlns="http://www.w3.org/2000/svg" id="a" width="642" viewBox="0 0 642 642" height="642" data-name="Layer 1"><defs></defs><circle cx="425.3" cy="38.92" r="38.92" class="b"></circle><circle cx="425.3" cy="135.52" r="38.92" class="b"></circle><circle cx="328.7" cy="135.52" r="38.92" class="b"></circle><circle cx="425.3" cy="232.11" r="38.92" class="b"></circle><circle cx="328.7" cy="232.11" r="38.92" class="b"></circle><circle cx="232.11" cy="232.11" r="38.92" class="b"></circle><circle cx="425.3" cy="328.7" r="38.92" class="b"></circle><circle cx="328.7" cy="328.7" r="38.92" class="b"></circle><circle cx="232.11" cy="328.7" r="38.92" class="b"></circle><circle cx="135.52" cy="328.7" r="38.92" class="b"></circle><circle cx="425.3" cy="425.3" r="38.92" class="b"></circle><circle cx="328.7" cy="425.3" r="38.92" class="b"></circle><circle cx="232.11" cy="425.3" r="38.92" class="b"></circle><circle cx="135.52" cy="425.3" r="38.92" class="b"></circle><circle cx="38.92" cy="425.3" r="38.92" class="b"></circle><circle cx="328.7" cy="618.49" r="23.51" class="b"></circle><circle cx="328.7" cy="521.89" r="23.51" class="b"></circle><circle cx="425.3" cy="521.89" r="23.51" class="b"></circle><circle cx="425.3" cy="618.49" r="23.51" class="b"></circle><circle cx="232.11" cy="521.89" r="23.51" class="b"></circle><circle cx="232.11" cy="618.49" r="23.51" class="b"></circle><circle cx="618.49" cy="232.11" r="23.51" class="b"></circle><circle cx="618.49" cy="425.3" r="23.51" class="b"></circle><circle cx="521.89" cy="425.3" r="23.51" class="b"></circle><circle cx="521.89" cy="232.11" r="23.51" class="b"></circle><circle cx="618.49" cy="328.7" r="23.51" class="b"></circle><circle cx="521.89" cy="328.7" r="23.51" class="b"></circle><circle cx="135.52" cy="232.11" r="23.51" class="b"></circle><circle cx="38.92" cy="232.11" r="23.51" class="b"></circle><circle cx="38.92" cy="328.7" r="23.51" class="b"></circle><circle cx="328.7" cy="38.92" r="23.51" class="b"></circle><circle cx="232.11" cy="38.92" r="23.51" class="b"></circle><circle cx="232.11" cy="135.52" r="23.51" class="b"></circle></svg>