<svg data-name="Layer 1" xmlns="http://www.w3.org/2000/svg" viewBox="0 0 563.09 563.08"><path d="m416.3 269.52-26.99 26.99L509.1 416.3 389.31 536.09l26.99 26.99 146.79-146.79L416.3 269.52zM146.79 179.68 0 326.47l26.95 26.94 119.79-119.79L329.42 416.3 209.63 536.09l26.99 26.99L383.41 416.3 146.79 179.68z"></path><path d="M146.78 119.78.02 266.55 27 293.54l119.77-119.78L389.31 416.3 269.54 536.08l26.99 26.98L443.3 416.29 146.78 119.78z"></path><path d="M503.2 416.3 356.41 269.51l-26.99 27L449.21 416.3 329.42 536.09l26.99 26.99 119.78-119.79.01.01 27-27zM293.56 146.79 146.77 0 0 146.78l26.99 26.99L146.78 53.98l119.79 119.79 26.99-26.98z"></path><path d="M293.57 206.67 146.78 59.89 0 206.68l26.99 26.98 119.79-119.79 119.79 119.8 27-27zM296.52 389.3l-.01.01-149.73-149.74L0 386.35l26.98 26.98 119.79-119.79L269.52 416.3 149.73 536.09l27 26.99 146.78-146.79-26.99-26.99z"></path></svg>