<svg data-name="Layer 1" xmlns="http://www.w3.org/2000/svg" viewBox="0 0 622.15 599.78"><path d="m622.15 248.78-113.98-93.35-50.7 125.82 41.03-8.09c3.12 33-1.62 66.98-15.05 99.03l-116.31-67.11c.69-4.12 1.14-8.32 1.14-12.63 0-32.58-20.59-60.28-49.44-71.01V87.14c57.91 7.38 108.33 38.67 141.08 83.68l69.13-50.2C475.88 47.54 389.74 0 292.46 0c-66.14 0-127.12 22-176.1 59.03L89.87 28.71 65.98 174.09l134.32-18.97-27.51-31.49c27.02-19.2 58.82-32.07 93.3-36.46v134.27c-28.85 10.73-49.44 38.43-49.44 71.01 0 4.32.45 8.54 1.14 12.66l-116.3 67.17c-22.57-53.83-20.69-113.15 1.91-164.02L25.34 173.5c-36.69 82.58-34.78 180.95 13.87 265.19 33.08 57.28 82.62 99.08 139.19 122.98l-13.01 38.1 137.84-52.02-83.6-106.83-13.51 39.57c-30.13-13.8-57.18-34.89-78.22-62.54l116.21-67.13c13.12 10.88 29.97 17.42 48.35 17.42s35.25-6.55 48.37-17.45l116.26 67.09c-35.33 46.47-87.64 74.5-142.99 80.37l8.94 84.96c89.86-9.53 174.09-60.37 222.71-144.63 33.06-57.29 44.48-121.1 36.89-182.03l39.5-7.79Z"></path></svg>