<svg data-name="Layer 1" xmlns="http://www.w3.org/2000/svg" viewBox="0 0 625.64 391.63"><circle cx="312.82" cy="135.5" r="48.95"></circle><path d="M281.87 391.63c-11.76 0-21.25-9.53-21.25-21.25V261.62l-26.63 26.63c-8.29 8.29-21.76 8.29-30.05 0s-8.29-21.76 0-30.05l62.93-62.93c6.07-6.07 15.22-7.91 23.17-4.62 7.95 3.29 13.13 11.03 13.13 19.62v160.11c0 11.76-9.53 21.25-21.25 21.25h-.04ZM343.77 391.63c-11.76 0-21.25-9.53-21.25-21.25v-160.1c0-8.59 5.17-16.33 13.13-19.62 7.95-3.29 17.1-1.45 23.17 4.62l62.93 62.93c8.29 8.29 8.29 21.76 0 30.05s-21.76 8.29-30.05 0l-26.63-26.63v108.76c0 11.76-9.53 21.25-21.25 21.25h-.04ZM469.59 271.03c-5.43 0-10.86-2.09-15.05-6.24l-83.32-83.32c-6.07-6.07-7.91-15.22-4.62-23.17s11.03-13.13 19.62-13.13h218.12c11.76 0 21.25 9.53 21.25 21.25s-9.53 21.25-21.25 21.25H437.56l47.03 47.03c8.29 8.29 8.29 21.76 0 30.05-4.15 4.15-9.58 6.24-15.05 6.24l.04.04ZM604.39 125.84H386.27c-8.59 0-16.33-5.17-19.62-13.13-3.29-7.95-1.45-17.1 4.62-23.17l83.32-83.32c8.29-8.29 21.76-8.29 30.05 0s8.29 21.76 0 30.05L437.61 83.3h166.78c11.76 0 21.25 9.53 21.25 21.25s-9.53 21.25-21.25 21.25v.04ZM239.33 125.84H21.25C9.49 125.84 0 116.31 0 104.59s9.53-21.25 21.25-21.25h166.78L141 36.31c-8.29-8.29-8.29-21.76 0-30.05s21.76-8.29 30.05 0l83.32 83.32c6.07 6.07 7.91 15.22 4.62 23.17-3.29 7.95-11.03 13.13-19.62 13.13l-.04-.04ZM156.05 271.03c-5.43 0-10.86-2.09-15.05-6.24-8.29-8.29-8.29-21.76 0-30.05l47.03-47.03H21.25C9.49 187.71 0 178.18 0 166.46s9.53-21.25 21.25-21.25h218.12c8.59 0 16.33 5.17 19.62 13.13 3.29 7.95 1.45 17.1-4.62 23.17l-83.32 83.32c-4.15 4.15-9.58 6.24-15.05 6.24l.04-.04Z"></path></svg>