<svg xmlns="http://www.w3.org/2000/svg" width="642" viewBox="0 0 642 595.1" height="595.1" style="overflow:visible;enable-background:new 0 0 642 595.1" xml:space="preserve"><circle cx="181.7" cy="471.7" r="15.2"></circle><path d="m321 0-24.5 9.9c-8.2 3.3-12.2 12.7-8.9 20.9l4.6 11.4c4 9.9-.8 21.1-10.6 25.1l-50 20.2c-13.6 5.5-18.8 22-10.8 34.3l19.5 30c6.3 9.7 2.2 22.8-8.6 27.2l-60.6 24.4c-13.6 5.5-18.8 22-10.8 34.3l20.9 32.2c6.9 10.6 2.4 24.8-9.3 29.5l-63.1 25.5c-13.6 5.5-18.8 22-10.8 34.3l20.9 32.2c6.9 10.6 2.4 24.8-9.3 29.5L47.1 446c-13.6 5.5-18.8 22-10.8 34.3l20.9 32.1c6.9 10.6 2.4 24.8-9.3 29.5-15 6-31.9 12.9-31.9 12.9-9.4 4-16 13.4-16 24.3 0 6 1.9 11.4 5.3 15.9h213l29.4-53.2h153.8L431 595h211L321 0zm-21.6 412.5c-19.7 34-43.1 57.3-83.3 80.4-16.9 9.7-42.4 14.9-68.2 8.2-4.8-1.2-7.7-4.8-7.7-9.4.3-2.5.5-33.5 31.3-55.5 32.5-23.2 71.1-36.4 112-37.7l41.2-68c38 70.6 43.3 80.3 43.6 81 0 0 0 .1 0 0s-.1-.2-.2-.3c.1.2.3.6.8 1.4h-69.5z"></path></svg>