<svg xmlns="http://www.w3.org/2000/svg" width="598" viewBox="0 0 598 344.4" height="344.4"><path d="M0 0l198.8 344.4 100.1-173.3L200.2 0zM395 5l-6.9 12 100 173.3 7-12zM369.6 49.1l-7 12 100.1 173.3 6.9-12zM382.3 27l-7 12.1 100.1 173.3 7-12.1zM344.1 93.2l-7 12 100.1 173.4 7-12.1zM356.8 71.1l-6.9 12.1 100 173.3 7-12zM590 13.9L598 0h-16zM411.7 322.7l7-12.1-100.1-173.3-6.9 12zM399 344.4l7-12L305.9 159l-7 12.1zM331.3 115.2l-6.9 12.1 100.1 173.3 6.9-12zM417.6 0h-13.9l97.2 168.3 6.9-12.1zM519.5 0h-13.9l46.2 80 7-12zM570.5 0h-13.9l20.7 35.9 6.9-12zM545 0h-13.9l33.5 58 6.9-12.1zM494 0h-13.9l59 102.1 6.9-12zM443.1 0h-13.9l84.4 146.2 7-12zM468.6 0h-13.9l71.6 124.2 7-12.1z"></path></svg>