<svg xmlns="http://www.w3.org/2000/svg" width="617.9" viewBox="0 0 617.9 436.9" height="436.9" xml:space="preserve" style="enable-background:new 0 0 617.9 436.9"><path d="M311.5 218.5h49l-69.8-69.8c5.9-1.5 12-2.4 18.2-2.4 39.8 0 72.1 32.4 72.1 72.1h34.7c0-58.9-47.9-106.8-106.8-106.8-15.8 0-31.2 3.4-45.2 10l-56.4-56.4C236.5 46 271.4 34.7 309 34.7c101.4 0 183.8 82.5 183.8 183.8h34.7C527.4 98 429.4 0 309 0c-60.3 0-115 24.6-154.6 64.3l-.1-.1L0 218.5h49L180.3 87.3l131.2 131.2zM568.9 218.5 437.7 349.7v-.2l-.1.1-131.2-131.1h-49l69.8 69.8c-5.9 1.5-12 2.4-18.2 2.4-39.8 0-72.1-32.4-72.1-72.1h-34.7c0 58.9 47.9 106.8 106.8 106.8 15.8 0 31.2-3.4 45.2-10l56.4 56.4c-29.1 19.4-64.1 30.7-101.6 30.7-101.4 0-183.8-82.5-183.8-183.8H90.5c0 120.5 98 218.5 218.5 218.5 59.8 0 114.1-24.2 153.6-63.2l.1.1L618 218.8h-49.1z"></path></svg>