<svg xmlns="http://www.w3.org/2000/svg" width="604.9" viewBox="0 0 604.9 496.3" height="496.3" xml:space="preserve"><path d="M245.3 302.8c-7.3-15.7-11.6-32.9-12.2-50.7h-81.6c-55.5 0-100.7-45.2-100.7-100.7S95.9 50.7 151.4 50.7h290.4L384.5 0H151.4C67.9 0 0 67.9 0 151.4s67.9 151.4 151.4 151.4h93.9z"></path><path d="M297.9 302.8v-50.7H241c.7 17.9 5.3 35.1 13.1 50.7h43.8zM305.9 193.4v50.7h56.9c-.5-17.9-4.9-35.1-12.5-50.7h-44.4zM297.9 193.4h-44.4c-7.6 15.6-12 32.9-12.5 50.7h56.9v-50.7zM397 109.4h56.4l61.4-54.8L453 0h-56.4l61.8 54.6z"></path><path d="M151.4 109.4H385l56.8-50.7H151.4c-51.1 0-92.7 41.6-92.7 92.7s41.6 92.7 92.7 92.7H233c.5-17.8 4.5-35 11.7-50.7h-93.2c-23.2 0-42-18.8-42-42-.1-23.1 18.8-42 41.9-42zM362.8 252.1h-56.9v50.7h43.8c7.9-15.5 12.4-32.8 13.1-50.7z"></path><path d="M453.5 193.4h-94.3c7.1 15.7 11.2 32.9 11.7 50.7h82.6c55.5 0 100.7 45.2 100.7 100.7S509 445.5 453.5 445.5H163.1l57.3 50.7h233.1c83.5 0 151.4-67.9 151.4-151.4S537 193.4 453.5 193.4z"></path><path d="M453.5 437.5c51.1 0 92.7-41.6 92.7-92.7s-41.6-92.7-92.7-92.7h-82.7c-.6 17.8-4.9 35-12.2 50.7h94.9c23.2 0 42 18.8 42 42s-18.8 42-42 42H220l-56.8 50.7h290.3z"></path><path d="M208 386.8h-56.8l-61.4 54.8 61.8 54.7h56.7l-61.7-54.7zM301.7 370.5c46 0 86.5-22.7 109.8-56.9H353c-11.6 19.9-28.4 36.7-49.1 48.3l-.9.5h-2.1l-1-.5c-20.7-11.6-37.5-28.5-49.1-48.3h-59c23.4 34.2 63.9 56.9 109.9 56.9z"></path><path d="M305.9 351.3c15.4-9.8 28.2-22.8 37.7-37.8h-37.7v37.8zM297.9 351.3v-37.8h-37.7c9.6 15 22.4 28 37.7 37.8zM297.9 143.6c-15.8 10.1-28.9 23.6-38.5 39.1h38.5v-39.1z"></path><path d="M301.7 120.5c-48.4 0-90.6 25-113.3 62.3h61.7c11.6-20.4 28.7-37.8 49.8-49.7l.9-.5h2.1l1 .5c21.2 11.9 38.2 29.2 49.8 49.7H415c-22.7-37.3-64.9-62.3-113.3-62.3z"></path><path d="M305.9 143.6v39.1h38.5c-9.5-15.5-22.6-29-38.5-39.1z"></path></svg>