<svg xmlns="http://www.w3.org/2000/svg" width="492.8" viewBox="0 0 492.8 621.2" height="621.2" xml:space="preserve" style="enable-background:new 0 0 492.8 621.2"><path d="m237.8 435.1-67.5-50.3v85.4l67.5 50.3zM170.3 281.3v83.9l67.4 51.1.8-84.7zM237.5 209.4v-85.9l-67.2-48.3v85.4z"></path><path d="M116 35.2 0 125.8v495.4h237.8v-84.8l-67.5-49.6v64.7H69V161l51.3-38.2 34.3 26.1V63.6z"></path><path d="M170.3 176.7v85l68.2 52V227zM253.5 433.7l70.4-54v85.7l-70.4 55.8zM323.9 278.4v83.2l-69 54.7v-86.5zM254.2 212.7v-85.9l69.7-51.6v84.2z"></path><path d="m369.2 41.4 123.6 91v488.8H254v-83.3l69.9-54v67.6h96.7l1-387.6-51.4-38.1-33.5 24.7V66.2z"></path><path d="M323.2 177.1V261l-68.3 52.7v-85.6zM203.3 0v79.7l18.9 13.9V0zM170.3 0v55.2l19.6 14.5V0zM305.8 0v69l18.6-13.8V0zM236.3 0v104.1l11.1 8.2 10.5-7.8V0zM273 0v93.3l17.7-13.1V0z"></path></svg>