<svg xmlns="http://www.w3.org/2000/svg" width="619.1" viewBox="0 0 619.1 619.1" height="619.1" xml:space="preserve" style="enable-background:new 0 0 619.1 619.1"><path d="m615.7 264-.1-1.2h-364v93.4h269.8C500 453.6 413.3 526.5 309.5 526.5c-119.8 0-216.9-97.1-216.9-216.9 0-119.8 97.1-216.9 216.9-216.9 92.9 0 172.1 58.4 203 140.4h97C575.5 99.1 454.1 0 309.5 0 138.6 0 0 138.6 0 309.5 0 480.5 138.6 619 309.5 619S619 480.4 619 309.5c.1-15.4-1.1-30.6-3.3-45.5z"></path><path d="M309.5 217.7c19.1 0 36.9 5.8 51.5 15.8h116.6c-29-64-93.3-108.4-168.1-108.4C207.6 125 125 207.6 125 309.5S207.6 494 309.5 494c73 0 136.1-42.4 166-103.9H353.7c-13.1 7.2-28.2 11.3-44.2 11.3-50.8 0-91.9-41.1-91.9-91.9.1-50.7 41.2-91.8 91.9-91.8z"></path></svg>