<svg data-name="Layer 1" xmlns="http://www.w3.org/2000/svg" viewBox="0 0 386.36 614.49"><path d="M264.68 424.33h-8.3c-30.98 0-56.77 24.88-57.22 55.86v62.73c0 1.45 1.18 2.63 2.63 2.63h8.89c1.45 0 2.63-1.18 2.63-2.63V511.5c0-1.42.45-2.79 1.28-3.94l54.26-75.1c2.45-3.39.03-8.13-4.16-8.13Z"></path><path d="m290.21 395.36-7.3 7.3a7.108 7.108 0 0 0-2.08 5.02v22.19c0 1.57-.49 3.1-1.41 4.37l-54.62 75.6c-2.45 3.39-.03 8.13 4.16 8.13h8.8c30.98 0 56.77-24.88 57.22-55.86v-64.78c0-2.48-3-3.73-4.76-1.97ZM290.21 286.83l-7.3 7.3a7.108 7.108 0 0 0-2.08 5.02v22.19c0 1.57-.49 3.1-1.41 4.37l-54.62 75.6c-2.45 3.39-.03 8.13 4.16 8.13h8.8c30.98 0 56.77-24.88 57.22-55.86V288.8c0-2.48-3-3.73-4.76-1.97Z"></path><path d="m202.8 439.52 8.61-8.61a6.449 6.449 0 0 0 1.89-4.56v-22.69c0-1.42.45-2.79 1.28-3.94l55.51-76.82c2.14-2.96.02-7.1-3.63-7.1h-10.07c-30.98 0-56.77 24.88-57.22 55.86v66.35c0 1.9 2.3 2.86 3.65 1.51ZM290.21 178.3l-7.3 7.3a7.108 7.108 0 0 0-2.08 5.02v22.19c0 1.57-.49 3.1-1.41 4.37l-54.62 75.6c-2.45 3.39-.03 8.13 4.16 8.13h8.8c30.98 0 56.77-24.88 57.22-55.86v-64.78c0-2.48-3-3.73-4.76-1.97Z"></path><path d="m203.91 329.88 7.3-7.3a7.108 7.108 0 0 0 2.08-5.02v-22.19c0-1.57.49-3.1 1.41-4.37l54.62-75.6c2.45-3.39.03-8.13-4.16-8.13h-8.8c-30.98 0-56.77 24.88-57.22 55.86v64.78c0 2.48 3 3.73 4.76 1.97ZM290.21 69.76l-7.3 7.3a7.108 7.108 0 0 0-2.08 5.02v22.19c0 1.57-.49 3.1-1.41 4.37l-54.62 75.6c-2.45 3.39-.03 8.13 4.16 8.13h8.8c30.98 0 56.77-24.88 57.22-55.86V71.74c0-2.48-3-3.73-4.76-1.97Z"></path><path d="m203.91 221.35 7.3-7.3a7.108 7.108 0 0 0 2.08-5.02v-22.19c0-1.57.49-3.1 1.41-4.37l54.62-75.6c2.45-3.39.03-8.13-4.16-8.13h-8.8c-30.98 0-56.77 24.88-57.22 55.86v64.78c0 2.48 3 3.73 4.76 1.97ZM129.99 424.33h-8.3c-4.18 0-6.61 4.74-4.16 8.13l54.26 75.1a6.74 6.74 0 0 1 1.28 3.94v31.42c0 1.45 1.18 2.63 2.63 2.63h8.89c1.45 0 2.63-1.18 2.63-2.63v-62.73c-.45-30.98-26.24-55.86-57.22-55.86Z"></path><path d="M106.94 434.24a7.445 7.445 0 0 1-1.41-4.37v-22.19c0-1.88-.75-3.69-2.08-5.02l-7.3-7.3c-1.76-1.76-4.76-.51-4.76 1.97v64.78c.45 30.98 26.24 55.86 57.22 55.86h8.8c4.18 0 6.61-4.74 4.16-8.13l-54.62-75.6ZM148.61 409.44h8.8c4.18 0 6.61-4.74 4.16-8.13l-54.62-75.6a7.445 7.445 0 0 1-1.41-4.37v-22.19c0-1.88-.75-3.69-2.08-5.02l-7.3-7.3c-1.76-1.76-4.76-.51-4.76 1.97v64.78c.45 30.98 26.24 55.86 57.22 55.86Z"></path><path d="M129.99 315.8h-10.07c-3.65 0-5.77 4.14-3.63 7.1l55.51 76.82a6.74 6.74 0 0 1 1.28 3.94v22.69c0 1.71.68 3.35 1.89 4.56l8.61 8.61c1.35 1.35 3.65.39 3.65-1.51v-66.35c-.45-30.98-26.24-55.86-57.22-55.86ZM148.61 300.9h8.8c4.18 0 6.61-4.74 4.16-8.13l-54.62-75.6a7.445 7.445 0 0 1-1.41-4.37v-22.19c0-1.88-.75-3.69-2.08-5.02l-7.3-7.3c-1.76-1.76-4.76-.51-4.76 1.97v64.78c.45 30.98 26.24 55.86 57.22 55.86Z"></path><path d="M129.99 207.27h-8.8c-4.18 0-6.61 4.74-4.16 8.13l54.62 75.6c.92 1.27 1.41 2.8 1.41 4.37v22.19c0 1.88.75 3.69 2.08 5.02l7.3 7.3c1.76 1.76 4.76.51 4.76-1.97v-64.78c-.45-30.98-26.24-55.86-57.22-55.86ZM148.61 192.37h8.8c4.18 0 6.61-4.74 4.16-8.13l-54.62-75.6a7.445 7.445 0 0 1-1.41-4.37V82.08c0-1.88-.75-3.69-2.08-5.02l-7.3-7.3c-1.76-1.76-4.76-.51-4.76 1.97v64.78c.45 30.98 26.24 55.86 57.22 55.86Z"></path><path d="M129.99 98.74h-8.8c-4.18 0-6.61 4.74-4.16 8.13l54.62 75.6c.92 1.27 1.41 2.8 1.41 4.37v22.19c0 1.88.75 3.69 2.08 5.02l7.3 7.3c1.76 1.76 4.76.51 4.76-1.97V154.6c-.45-30.98-26.24-55.86-57.22-55.86Z"></path><path d="M284.02 0H102.34C45.91 0 0 45.91 0 102.34v409.81c0 56.43 45.91 102.34 102.34 102.34h181.69c56.43 0 102.34-45.91 102.34-102.34V102.34C386.36 45.91 340.46 0 284.02 0Zm77.58 512.15c0 42.78-34.8 77.58-77.58 77.58H102.34c-42.78 0-77.57-34.8-77.57-77.58V102.34c0-42.78 34.8-77.58 77.57-77.58h181.69c42.78 0 77.58 34.8 77.58 77.58v409.81Z"></path></svg>