<svg xmlns="http://www.w3.org/2000/svg" width="599.6" viewBox="0 0 599.6 393.1" height="393.1" xml:space="preserve"><path d="M292.8 195.4h299.6v-27.5H292.8c-18.7 0-35.6-7.8-47.6-20.4h328c-1.2-1.7-2.3-3.5-3.3-5.2H240.7c-3.8-4.9-7-10.4-9.3-16.3h331.4c-.5-1.7-1-3.5-1.4-5.2H229.6c-1.6-5.2-2.5-10.6-2.7-16.3h332.3c0-.9-.1-1.7-.1-2.6 0-.9 0-1.8.1-2.6H226.9c.2-5.6 1.1-11.1 2.7-16.3h331.8c.4-1.8.9-3.5 1.4-5.2H231.4c2.3-5.9 5.5-11.3 9.3-16.3H570c1-1.8 2.1-3.5 3.3-5.2h-328c12-12.5 28.9-20.4 47.6-20.4h299.6V8.3H292.8c-51.6 0-93.5 42-93.5 93.5s41.9 93.6 93.5 93.6zM506.1 206H206.5v27.5h299.6c18.7 0 35.6 7.8 47.6 20.4h-328c1.2 1.7 2.3 3.5 3.3 5.2h329.3c3.8 4.9 7 10.4 9.3 16.3H236.1c.5 1.7 1 3.5 1.4 5.2h331.8c1.6 5.2 2.5 10.6 2.7 16.3H239.7c0 .9.1 1.7.1 2.6 0 .9 0 1.8-.1 2.6H572c-.2 5.6-1.1 11.1-2.7 16.3H237.5c-.4 1.8-.9 3.5-1.4 5.2h331.4c-2.3 5.9-5.5 11.3-9.3 16.3H228.9c-1 1.8-2.1 3.5-3.3 5.2h328c-12 12.5-28.9 20.4-47.6 20.4H206.5V393h299.6c51.6 0 93.5-42 93.5-93.5s-42-93.5-93.5-93.5zM93.5 0C42 0 0 42 0 93.5v299.6h27.5V93.5c0-18.7 7.8-35.6 20.4-47.6v328c1.7-1.2 3.5-2.3 5.2-3.3V41.4c4.9-3.8 10.4-7 16.3-9.3v331.4c1.7-.5 3.5-1 5.2-1.4V30.3c5.2-1.6 10.6-2.5 16.3-2.7v332.3c.9 0 1.7-.1 2.6-.1.9 0 1.8 0 2.6.1V27.6c5.6.2 11.1 1.1 16.3 2.7v331.8c1.8.4 3.5.9 5.2 1.4V32.1c5.9 2.3 11.3 5.5 16.3 9.3v329.3c1.8 1 3.5 2.1 5.2 3.3V46c12.5 12 20.4 28.9 20.4 47.6v299.6H187V93.5C187.1 42 145.1 0 93.5 0z"></path></svg>