<svg xmlns="http://www.w3.org/2000/svg" id="a" width="642" viewBox="0 0 642 429.34" height="429.34" data-name="Layer 1"><defs></defs><path d="M255.2 10.83V138.4H127.63v127.63H0V10.83h255.2z" class="b"></path><path d="M145.52 156.09c75.46 0 136.63 61.17 136.63 136.63s-61.17 136.63-136.63 136.63V156.09ZM463.84 0C562.23 0 642 79.76 642 178.16s-79.76 178.16-178.16 178.16-178.15-79.76-178.15-178.16S365.45 0 463.84 0ZM325.92 178.04c0 76.23 61.8 138.03 138.03 138.03s138.03-61.8 138.03-138.03-61.8-138.03-138.03-138.03-138.03 61.8-138.03 138.03Z" class="b"></path></svg>