<svg xmlns="http://www.w3.org/2000/svg" width="513.6" viewBox="0 0 513.6 642" height="642" data-name="Layer 1"><path d="m0 198.06 256.8 256.8 256.8-256.8v88.75l-256.8 256.8L0 286.81v-88.75z"></path><path d="M513.6 385.2 256.8 642 0 385.2v-88.76l256.8 256.8 256.8-256.8v88.76z"></path><path d="M406.07 92.26 258.41 239.92c-2.38-.32-4.82-.45-7.32-.45-33.06 0-59.9 26.84-59.9 59.96s26.84 59.96 59.9 59.96 59.96-26.9 59.96-59.96c0-2.44-.13-4.88-.45-7.25l95.47-95.53V92.26Zm-154.98 222c-8.15 0-14.83-6.68-14.83-14.83s6.68-14.83 14.83-14.83 14.89 6.61 14.89 14.83-6.68 14.83-14.89 14.83ZM304.18 0h-7.77L157.42 138.99c-2.38-.32-4.81-.45-7.25-.45-33.13 0-59.96 26.84-59.96 59.9s26.84 59.96 59.96 59.96 59.96-26.84 59.96-59.96c0-2.5-.13-4.94-.45-7.32l94.44-94.44.06-96.69ZM150.16 213.27c-8.22 0-14.83-6.61-14.83-14.83s6.61-14.83 14.83-14.83 14.83 6.68 14.83 14.83-6.61 14.83-14.83 14.83Z"></path></svg>