<svg data-name="Layer 1" xmlns="http://www.w3.org/2000/svg" viewBox="0 0 582.53 626.72"><path d="M572.01 214.52 406.83 49.33l-.11.11C377.59 19.01 336.62 0 291.27 0s-86.32 19.01-115.45 49.45l-.11-.11L10.52 214.52C3.78 221.25 0 230.39 0 239.91v350.9c0 14.52 8.75 27.61 22.17 33.17 4.44 1.84 9.1 2.73 13.73 2.73 9.34 0 18.52-3.65 25.39-10.52l229.98-229.98 229.98 229.98c6.87 6.87 16.05 10.52 25.39 10.52 4.63 0 9.29-.89 13.73-2.73 13.42-5.56 22.17-18.65 22.17-33.17v-350.9c0-9.52-3.78-18.65-10.52-25.39Zm-61.29 172.31H393.65l-70.3-70.3c62.47-12.78 111.79-62.09 124.56-124.56l62.81 62.81v132.05ZM291.27 71.81c48.57 0 88.08 39.51 88.08 88.08s-39.51 88.08-88.08 88.08-88.08-39.51-88.08-88.08 39.51-88.08 88.08-88.08ZM71.81 458.64h45.49l-45.49 45.49v-45.49Zm117.3-71.81H71.81V254.78l62.81-62.81c6.39 31.23 21.91 59.18 43.65 80.92l-.16.16 62.39 62.39-51.39 51.39Zm276.13 71.81h45.49v45.49l-45.49-45.49Z"></path></svg>