<svg data-name="Layer 1" xmlns="http://www.w3.org/2000/svg" viewBox="0 0 597.51 597.51"><path d="M252.1 0h93.31v93.31H252.1zM232.7724293 172.70919023l65.98013376-65.98013375 65.98013375 65.98013375-65.98013375 65.98013375zM126.05 126.05h93.31v93.31h-93.31zM378.15 126.05h93.31v93.31h-93.31zM252.1 252.1h93.31v93.31H252.1zM106.7224293 298.76080977l65.98013376-65.98013375 65.98013375 65.98013375-65.98013375 65.98013375zM0 252.1h93.31v93.31H0zM358.82404884 298.75919023l65.98013376-65.98013375 65.98013375 65.98013375-65.98013375 65.98013375zM504.2 252.1h93.31v93.31H504.2zM232.77404884 424.81080977l65.98013376-65.98013375 65.98013375 65.98013375-65.98013375 65.98013375zM126.05 378.15h93.31v93.31h-93.31zM378.15 378.15h93.31v93.31h-93.31zM252.1 504.2h93.31v93.31H252.1z"></path></svg>