<svg data-name="Layer 1" xmlns="http://www.w3.org/2000/svg" viewBox="0 0 616.46 424.85"><path d="M425.75 2.52h47.01v47.01h-47.01zM331.73 121.02h47.01v89.38h-47.01z"></path><path d="M284.73 49.52h47.01v71.5h-47.01zM331.73 210.4h-47v115.14h47V210.4zM378.74 49.52h47.01v71.5h-47.01zM143.71 2.52h47.01v47.01h-47.01z"></path><path d="M529.45 1.38c-3.84-3.21-9.69-.45-9.69 4.55v43.59h-47.01v71.5h-47.01v89.38h-47.01v115.14h-47.01v99.31c159.25-9.74 284.73-117.66 284.73-249.35 0-67.69-33.16-129.09-87.01-174.12ZM237.72 281.9v-71.5h-47.01v-89.38H143.7v-71.5H96.69V5.92c0-5-5.86-7.75-9.69-4.55C33.16 46.4 0 107.8 0 175.5c0 131.7 125.48 239.61 284.73 249.35v-99.31h-47.01v-43.63ZM237.72 2.52h47.01v47.01h-47.01zM237.72 121.02h47.01v89.38h-47.01z"></path><path d="M190.72 49.52h47.01v71.5h-47.01zM331.73 2.52h47.01v47.01h-47.01z"></path></svg>