<svg data-name="Layer 1" xmlns="http://www.w3.org/2000/svg" viewBox="0 0 619.36 506.2"><path d="M0 447.16h619.36v59.04H0zM377.4 376.8c0-28.02-17.56-52.13-42.3-62.16 10.14-10.25 24.23-16.64 39.77-16.64 31.13 0 53.36 24.92 55.91 56.67.5 6.18 5.93 10.81 12.14 10.81h176.43V306.5H452.28c-5.39 0-9.77-4.37-9.77-9.77h-.06c-1.1-27.53-19.08-50.88-43.94-60.15 10.09-9.87 23.92-16 39.13-16 30.69 0 53.19 22.58 55.79 55.31 0 0 .2 19.54 17.82 19.54h108.09v-58.98H515.13c-5.39 0-9.77-4.37-9.77-9.77v-4.71c0-35.23-27.76-64.28-62.65-66.88v-10.54c0-36.12-29.18-65.74-65.32-67.01v-10.4C377.4 30.21 346.93 0 309.68 0s-67.72 30.21-67.72 67.13v10.4c-36.14 1.28-65.32 30.89-65.32 67.01v10.54c-34.89 2.6-62.65 31.65-62.65 66.88v4.71c0 5.39-4.37 9.77-9.77 9.77h-3.76L0 236.45v58.98h108.09c17.63 0 17.82-19.54 17.82-19.54 2.6-32.72 25.11-55.31 55.79-55.31 15.21 0 29.04 6.13 39.13 16-24.86 9.27-42.84 32.63-43.94 60.15h-.06c0 5.39-4.37 9.77-9.77 9.77H0v58.98h176.43c6.2 0 11.64-4.63 12.14-10.81 2.55-31.75 24.78-56.67 55.91-56.67 15.54 0 29.63 6.4 39.77 16.64-24.74 10.02-42.3 34.14-42.3 62.16H0v59.04h243.75c10.43 0 10.41-10.75 10.41-10.75l.02.02c2.86-27.81 26.73-49.69 55.5-49.69s52.64 21.88 55.5 49.69l.02-.02s-.02 10.75 10.41 10.75h243.75V376.8H377.41ZM375 143.17c15.2 0 29.02 6.12 39.11 15.98-18.88 7.04-33.8 22.2-40.42 41.15-6.36-18.33-20.5-33.13-38.49-40.45 10.14-10.27 24.25-16.68 39.8-16.68Zm-65.32-77.42c15.56 0 29.67 6.42 39.82 16.7-19.2 7.84-34.01 24.22-39.67 44.28-.04-.15-.11-.29-.15-.43-.04.15-.11.29-.15.43-5.66-20.06-20.47-36.44-39.67-44.28 10.15-10.28 24.25-16.7 39.82-16.7ZM245.67 200.3c-6.62-18.95-21.54-34.12-40.42-41.15 10.09-9.86 23.91-15.98 39.11-15.98 15.55 0 29.66 6.41 39.8 16.68-18 7.32-32.13 22.13-38.49 40.45Zm64.03 81.27s-.01-.04-.02-.06c0 .02-.01.04-.02.06-5.67-20.09-20.52-36.49-39.77-44.32 10.14-10.26 24.24-16.66 39.79-16.66s29.64 6.4 39.79 16.66c-19.25 7.83-34.1 24.23-39.77 44.32Z"></path></svg>