<svg xmlns="http://www.w3.org/2000/svg" width="642" viewBox="0 0 642 490.6" height="490.6" style="overflow:visible;enable-background:new 0 0 642 490.6" xml:space="preserve"><path d="M191.9 10.3c-13.8-13.8-36.1-13.8-49.9 0s-13.8 36.1 0 49.9l173.5 173.5v-99.9L191.9 10.3zM94 30.5c-13.8-13.8-36.1-13.8-49.9 0s-13.8 36.1 0 49.9L215.6 252h99.9L94 30.5zM60.3 114.8c-13.8-13.8-36.1-13.8-49.9 0s-13.8 36.1 0 49.9l187.9 187.9v-99.9l-138-137.9z"></path><path d="M10.3 282.8c-13.8-13.8-13.8-36.1 0-49.9s36.1-13.8 49.9 0l137.9 137.9h118v119.8h-98L10.3 282.8zM447.4 252h106.4L469 167.1c-15.4-15.4-40.2-15.4-55.6 0L322 258.4l20.9 20.9c21.3 21.3 55.9 21.3 77.2 0l27.3-27.3z"></path><path d="M432.5 370.8v119.8H642V384.1c0-28.1-11.2-55-31-74.9L553.7 252v118.8H432.5z"></path></svg>