<svg data-name="Layer 1" xmlns="http://www.w3.org/2000/svg" viewBox="0 0 604.84 625.08"><path d="M568.47 173.06a178.085 178.085 0 0 0-21.99-24.16c-31.99-29.34-74.58-47.19-121.37-47.19s-89.2 17.76-121.15 46.98c-.09.03-.15.12-.24.21l-25.38-51h.33l-15.14-30.46L230.18.42a.76.76 0 0 0-1.36 0L.08 460.11c-.25.51.12 1.1.68 1.1h212.11c.42 0 .76.34.76.76v163.1h31.71v-163.1c0-.42.34-.76.76-.76h162.37c.42 0 .76.34.76.76v163.1h31.71V461.19c0-.39.3-.71.69-.75 5.52-.49 10.96-1.26 16.31-2.26 83.59-15.41 146.89-88.68 146.89-176.72 0-40.7-13.53-78.29-36.37-108.42ZM213.63 429.99c0 .42-.34.76-.76.76H49.96a.76.76 0 0 1-.68-1.1l162.91-327.41c.36-.72 1.44-.47 1.44.34v327.41ZM318 177.57c23.69-24.4 55.61-40.78 91.23-44.57v224.69c0 .8-1.09 1.06-1.44.34L318 177.6v-.03Zm4.52 253.18H246.1a.76.76 0 0 1-.76-.76V102.52c0-.8 1.08-1.06 1.44-.34l35.14 70.61c-.09.09-.15.18-.21.27-22.82 30.13-36.37 67.72-36.37 108.42 0 61.31 30.71 115.48 77.6 147.91.61.42.32 1.36-.42 1.36Zm86.72 0v-.82c-74.88-7.98-133.43-71.53-133.43-148.45 0-28.32 7.92-54.81 21.68-77.38h.02l111.74 224.58.64 1.31h.03l.37.76h-1.04ZM440.95 133c35.64 3.81 67.6 20.17 91.24 44.6L442.4 358.09c-.36.72-1.44.47-1.44-.34V133Zm2.77 296.59c-.91.12-1.83.21-2.77.33-.09 0-.18 0-.28.03l.28-.58 1.31-2.68L552.87 204.4c13.65 22.51 21.51 48.89 21.51 77.07 0 75.98-57.09 138.91-130.66 148.11Z"></path></svg>