<svg xmlns="http://www.w3.org/2000/svg" width="583.83" viewBox="0 0 583.83 642" height="642" data-name="Layer 1"><path d="m538.89 319.78 38.97 6.87-4.43 25.29-38.97-6.87c-.26.39-.39.71-.58 1.16 19.84 8.09 32.81 29.72 28.83 52.52-24.52-1.93-43.98-23.11-43.78-48.28 0-5.01-3.92-8.86-7.96-9.5l-38.2-6.74c-.26.32-.39.71-.58 1.16 19.45 7.77 32.81 29.34 28.89 52.52-24.59-1.93-44.04-23.11-43.85-48.28 0-5.01-3.6-8.86-7.83-9.5l-.13-.06-118.95-20.93c-1.99-.35-3.34 1.98-2.04 3.53L366.31 358c3.27 3.02 7.83 3.53 11.62 1.35 21.7-12.71 49.75-6.48 63.69 13.8-18.04 15.02-43.33 14.25-59.9 1.28-.26.39-.51.71-.71 1.09l25.55 30.43c3.4 3.15 7.96 3.47 11.56 1.35 21.7-12.71 49.76-6.48 63.75 13.8-17.72 14.77-42.95 14.51-59.96 1.28-.26.39-.51.71-.64 1.09l25.55 30.43c3.34 3.08 7.9 3.53 11.62 1.35 21.64-12.71 49.69-6.48 63.69 13.87-17.78 14.7-42.89 14.45-59.96 1.22-.26.39-.51.71-.64 1.09l25.42 30.3-19.71 16.5-25.42-30.3c-.39.13-.71.32-1.16.51 9.89 18.49 6.23 43.72-11.68 58.81-17.53-17.27-18.81-46.03-2.5-65.16 3.34-4.04 2.7-9.37 0-12.45l-24.91-29.66c-.39.13-.71.32-1.16.51 9.89 18.55 6.23 43.72-11.68 58.81-17.53-17.33-18.81-46.03-2.5-65.16 3.27-3.98 2.82-9.24 0-12.45l-24.85-29.66c-.45.13-.77.32-1.22.51 9.89 18.55 6.23 43.66-11.62 58.81-17.59-17.33-18.87-46.03-2.57-65.16 3.27-3.98 2.82-9.24 0-12.45l-31.74-37.87c-1.3-1.55-3.83-.63-3.83 1.39v304.77h-36.98V337.32c0-2.02-2.53-2.94-3.83-1.39l-31.74 37.81c-2.76 3.21-3.27 8.47 0 12.45 16.31 19.13 15.02 47.83-2.57 65.16-17.91-15.15-21.51-40.32-11.62-58.81-.45-.19-.77-.39-1.22-.51l-24.85 29.66c-2.76 3.21-3.27 8.47 0 12.45 16.31 19.13 15.02 47.83-2.5 65.16-17.78-15.02-21.64-40.19-11.68-58.81-.45-.19-.77-.39-1.16-.51l-24.91 29.66c-2.76 3.15-3.27 8.47 0 12.45 16.31 19.13 15.02 47.89-2.5 65.16-17.85-15.02-21.64-40.19-11.68-58.81-.45-.19-.77-.39-1.16-.51l-25.42 30.3-19.71-16.5 25.42-30.3c-.13-.39-.39-.71-.64-1.09-17.08 13.23-42.18 13.55-59.96-1.22 14-20.35 42.05-26.58 63.69-13.87 3.72 2.12 8.22 1.73 11.62-1.35l25.55-30.43c-.13-.39-.39-.71-.64-1.09-17.01 13.23-42.24 13.48-59.96-1.28 14-20.29 42.05-26.51 63.75-13.8 3.6 2.12 8.15 1.8 11.56-1.35l78.29-93.28c1.3-1.55-.04-3.88-2.03-3.53l-57.31 10.08-.13.06c-4.24.64-7.83 4.49-7.83 9.5.19 25.17-19.26 46.29-43.85 48.28-3.92-22.98 9.18-44.49 28.89-52.58-.19-.39-.32-.77-.58-1.09l-38.13 6.68-.13.06c-4.24.64-7.83 4.49-7.83 9.5.19 25.17-19.26 46.35-43.85 48.28-3.92-23.18 9.44-44.81 28.89-52.52-.19-.45-.32-.83-.58-1.16l-38.2 6.74c-4.04.58-7.96 4.49-7.96 9.5.19 25.17-19.26 46.35-43.78 48.28-3.98-22.73 8.92-44.36 28.83-52.52-.19-.45-.32-.77-.58-1.16l-38.97 6.87-4.43-25.29 38.97-6.87c.06-.39.06-.77.13-1.22-21.25-.83-41.02-16.69-45.07-39.55 23.75-6.55 49.24 6.68 57.65 30.37a9.608 9.608 0 0 0 10.46 6.29c.64 0-2.63.51 38.46-6.74.13-.45.13-.83.19-1.28-22.02-.9-41.09-17.14-45.13-39.48 23.82-6.55 49.31 6.68 57.72 30.37 1.67 4.62 6.36 7.06 10.79 6.23l118.94-20.93c1.99-.35 2.46-3 .71-4.01l-50.38-29.12c-4.04-2.31-9.18-1.54-12.26 2.18-16.05 19.39-44.55 23.11-64.65 8.8 11.81-20.16 35.82-28.25 55.92-21.7.13-.45.26-.83.26-1.22l-33.51-19.39c-4.3-2.38-9.18-1.35-12.26 2.18-15.99 19.39-44.49 23.11-64.59 8.86 11.62-19.97 35.5-28.31 55.92-21.7.06-.45.26-.83.26-1.28l-33.64-19.45c-4.62-2.31-9.31-1.09-12.13 2.31-16.05 19.39-44.55 23.11-64.65 8.8 12.01-20.48 36.08-28.18 55.92-21.7.13-.45.26-.83.26-1.28l-34.22-19.77 12.84-22.21 34.22 19.77c.39-.26.64-.51.96-.83-16.5-15.15-20.29-39.8-9.18-59.26 22.47 10.21 33.45 36.79 24.72 60.35-1.73 4.56.39 9.5 4.04 11.62l33.71 19.45c.39-.26.58-.58.96-.9-15.6-13.93-20.87-38.84-9.18-59.26 22.41 10.27 33.45 36.79 24.65 60.41-1.61 4.49.13 9.05 4.11 11.62l104.75 60.45c1.75 1.01 3.81-.72 3.12-2.62l-19.92-54.69c-1.48-4.17-5.78-7-10.79-6.23-24.72 4.56-48.92-10.91-55.15-34.73 22.02-7.96 45.58 1.35 56.75 19.26.39-.26.71-.45 1.03-.77l-13.29-36.47c-1.48-3.92-5.78-7-10.72-6.1-24.78 4.56-48.98-10.91-55.15-34.8 22.15-7.9 45.71 1.6 56.75 19.32.39-.26.64-.45.96-.77l-13.23-36.47c-1.35-3.92-5.71-7-10.79-6.1-24.72 4.49-48.98-10.98-55.15-34.8 21.64-7.77 45.33.96 56.75 19.32.39-.32.71-.51 1.03-.83l-13.55-37.11 24.14-8.8L219 51.34c.39 0 .77-.06 1.28-.06-3.02-21.31 9.37-43.27 31.07-51.3 10.59 22.28 1.99 49.69-19.9 62.08-4.11 2.38-5.84 7.19-4.3 11.68l13.23 36.4c.45.06.83 0 1.28-.06-2.82-21.44 9.5-43.33 31.07-51.23 10.59 22.21 1.99 49.63-19.84 62.08-4.49 2.57-5.91 7.7-4.3 11.68l41.3 113.49c.69 1.9 3.38 1.9 4.07 0l19.92-54.75c1.54-4.37-.06-9.18-4.3-11.62-21.89-12.39-30.5-39.8-19.9-62.08 21.96 8.09 34.03 30.37 31.07 51.3.45 0 .83.06 1.28 0l13.23-36.34c1.61-3.98.19-9.05-4.3-11.68-21.83-12.45-30.43-39.87-19.84-62.08 21.57 7.9 33.9 29.79 31.07 51.23.45.06.83.13 1.28.06l13.23-36.4c1.54-4.49-.19-9.31-4.3-11.68-21.89-12.39-30.49-39.8-19.9-62.08 21.7 8.03 34.03 29.98 31.07 51.3.51 0 .9.06 1.28.06l13.55-37.17 24.14 8.8-13.55 37.11c.32.32.64.51 1.03.83 11.43-18.3 35.12-27.09 56.75-19.32-6.16 23.82-30.43 39.29-55.15 34.8-5.39-.96-9.69 2.57-10.72 6.1l-13.29 36.47c.32.32.58.51.96.77 11.11-17.78 34.6-27.22 56.75-19.32-6.16 23.88-30.37 39.35-55.15 34.8-4.94-.9-9.31 2.25-10.72 6.03l-41.36 113.69c-.69 1.9 1.37 3.63 3.12 2.62l50.38-29.12c3.72-1.93 6.03-6.87 4.24-11.68-8.73-23.56 2.25-50.14 24.72-60.35 11.49 20.22 6.61 44.94-9.18 59.26.32.32.58.64.96.83l33.51-19.32c4.04-2.5 5.84-7.19 4.24-11.68-8.8-23.63 2.25-50.14 24.65-60.41 11.75 20.48 6.42 45.33-9.18 59.26.39.32.58.64.96.9l33.58-19.39c3.72-2.05 5.91-7 4.17-11.68-8.73-23.56 2.25-50.14 24.72-60.35 11.11 19.45 7.32 44.11-9.18 59.26.32.32.58.58.96.83l34.22-19.77 12.84 22.21-34.22 19.77c0 .45.13.83.26 1.28 19.84-6.48 43.91 1.22 55.92 21.7-20.09 14.32-48.6 10.59-64.65-8.8-3.08-3.72-8.15-4.49-12.2-2.25l-33.58 19.39c0 .45.19.83.26 1.28 20.48-6.61 44.3 1.73 55.92 21.7-20.09 14.25-48.6 10.53-64.59-8.86-3.08-3.53-7.96-4.56-12.26-2.18l-104.69 60.45c-1.75 1.01-1.28 3.66.71 4.01l57.37 10.08c4.37.83 9.05-1.54 10.79-6.23 8.41-23.75 33.9-36.98 57.65-30.37-4.04 22.79-23.69 38.65-45.07 39.48.06.45.06.83.19 1.28l38.07 6.68c4.43.83 9.12-1.61 10.79-6.23 8.41-23.69 33.9-36.92 57.72-30.37-4.04 22.34-23.11 38.58-45.13 39.48.06.45.06.83.19 1.28l38.13 6.74c4.75.71 9.12-1.73 10.79-6.29 8.41-23.69 33.9-36.92 57.65-30.37-4.04 22.86-23.75 38.71-45.07 39.55.06.45.06.83.13 1.22Z"></path></svg>