<svg xmlns="http://www.w3.org/2000/svg" width="625.2" viewBox="0 0 625.2 541.7" height="541.7" xml:space="preserve" style="enable-background:new 0 0 625.2 541.7"><path d="m527.3 239.6-2.8-4.8s1 4.7 1.1 5.5c2.9 18 1.7 35.7-4.8 52.7-15.9 42.3-46.7 66.4-91.4 73-2.4.3-3.6-.5-4.9-2.4-24.8-36.5-59.3-56.8-103.3-60.5-2.5-.2-3.5-1.3-4.3-3.4-8.1-19.7-10.5-40-6.9-61C324 157 421.2 120 485.8 171.8c1 .8 2.1 1.6 4 3-.9-1.7-1.2-2.3-1.6-3C457.5 118.7 420.7 54.5 389.4 0c-42.9 0-107.7.1-153.2 0-19.2 33.3-43.3 75-61.6 106.7-12.6 21.9-26.3 45.6-38.9 67.5l1.1-1c.2-.2.5-.4.8-.7.4-.4.9-.7 1.3-1.1 48.8-39.8 119.9-31.2 157.4 19 1.7 2.3 1.9 4 .6 6.7-18.8 39.3-19 78.8-.9 118.4 1.3 2.9 1.1 4.7-.9 7-27.6 33.5-62.9 47.6-105.8 40.7-53.8-8.7-92.5-58.6-89.8-113 .5-9.7 1.9-17.1 1.9-17.1s-1.7 3.6-2.1 4.3C69.4 289 31.3 355.2 0 409.3c23.5 40.8 57.1 99.1 76.2 132.4 61.8-.1 137.1-.1 196.6-.1h3.7c-5.6-2.5-4-1.9-5.6-2.5-56.9-22.9-83.8-88.3-59.6-144.6 1.2-2.8 2.7-3.9 5.8-4.1 6.8-.5 13.6-1.2 20.3-2.7 34.9-7.8 62.5-26.7 82.9-56 1.1-1.6 2-2.8 4.5-2.5 54.3 6.9 94.6 51.3 96.4 106 1.4 45.2-26.6 87.5-69.2 104.4-1.4.5-2.7 1.1-4 1.7l-1.3.5h202.1c22.9-39.7 54.4-94.3 76.6-132.6-31-53.5-70-121.1-98.1-169.6z"></path></svg>