<svg data-name="Layer 1" xmlns="http://www.w3.org/2000/svg" viewBox="0 0 555 623.93"><path d="M415.64 0 275.3 34.33v134.73L140.34 68.09 0 102.42v417.23L138.53 623.3l.83.63L279.7 589.6V454.87l134.12 100.35.83.63 140.34-34.33V104.27L415.64 0Zm132.77 104.85-132.09 32.31L282.57 37.09 414.66 4.78 548.4 104.85Zm-135.46 35.3v131l-133.23-99.46V40.47l133.23 99.69ZM279.72 177.2l131.05 97.82-131.05 32.05V177.2Zm-7.95-5.27-131.42 32.15-132.4-99.06 131.42-32.15 132.4 99.06ZM4.41 107.89l133.23 99.68v409.56L4.41 517.45V107.89Zm408.53 441.16-130.67-97.76 130.67-31.96v129.73Zm4.41 1.6V413.71l-142.06 34.75v137.69l-133.23 32.59V208.2l133.23-32.59V312.7l142.06-34.74V141.45l133.23-32.59v409.19l-133.23 32.59Z"></path></svg>