<svg xmlns="http://www.w3.org/2000/svg" width="613.2" viewBox="0 0 613.2 537.8" height="537.8" xml:space="preserve"><path d="m409.9 260.7 141.2-144c20.3-20.3 29.2-47.2 18.3-73.7-11-26.5-35.6-43-64.3-43H286.9v491c0 6.6-5.3 11.9-11.9 11.9H69.7c-12.7 0-24.4-7.3-29.5-18.9-5.4-12.3-1.8-25.4 7.6-34.9l182.3-183.4c4.5-4.5 7-10.5 7-16.8V0h-70.9L199 42.3V243L23 421.1C2.7 441.4-6.2 468.4 4.7 494.9c11 26.5 35.6 43 64.3 43h215c22.6 0 41-18.3 41-41v-462h179.4c12.7 0 24.4 7.3 29.5 18.9 5.4 12.3 1.8 25.4-7.6 34.9L382.5 234.2c-13.1 13.1-14.7 33.9-3.7 48.9l187.1 254.8h47.4L409.9 260.7z"></path></svg>