<svg xmlns="http://www.w3.org/2000/svg" width="619.4" viewBox="0 0 619.4 618.7" height="618.7" style="enable-background:new 0 0 619.4 618.7" xml:space="preserve"><path d="M600.8 0h-533C30.3 0 0 30.3 0 67.8v482.8h39.8c32.6 0 62.5-18 77.8-46.8l209.8-395.2c23.3-44 69.1-71.5 118.8-71.5h154.6c10.3 0 18.6-8.3 18.6-18.6 0-10.2-8.3-18.5-18.6-18.5z"></path><path d="M495.1 114.9 290.5 500.2c-26.6 50-78.6 81.3-135.3 81.3H18.6C8.3 581.5 0 589.9 0 600.1c0 10.3 8.3 18.6 18.6 18.6h533.1c37.4 0 67.8-30.3 67.8-67.8V68.1h-46.6c-32.7 0-62.6 18-77.8 46.8z"></path></svg>