<svg xmlns="http://www.w3.org/2000/svg" width="615.6" viewBox="0 0 615.6 497.9" height="497.9" xml:space="preserve" style="enable-background:new 0 0 615.6 497.9"><path d="M392.7 171.9c0-25.3 20.9-26.4 20.9-26.4h31.7s9.5-.1 14.8 5.8l12.3 12.8s4.9 6.4 10.5 6.4c5.4 0 9.8-4.7 13.1-8.5 3.2-3.5 6.7-7.1 9.7-10.8 4.7-5.8 12.4-5.8 14.6-.1l29.9 101.2s7.2 19.4-9.4 19.4h-11.5s-8.4-.7-8.4 9.4v71.7s.2 21-23.8 21H392.7V171.9z"></path><path d="M614.9 116.1c-1-6.7-2.3-13.7-4.2-20.4-1.4-5.3-3.1-10.5-5.2-15.5-3.2-7.8-7.7-16-15.6-20-4.5-2.2-10.4-3.6-15.5-3.6h-54.2s-9.5-1.5-15.2 6.1l-12.7 14s-5.1 7-10.8 7c-5.7 0-10.8-7-10.8-7l-12.7-14c-5.7-7.6-15.2-6.1-15.2-6.1h-63.4c-3.5 0-6.4-2.9-6.4-6.4 0-3.5 2.9-6.4 6.4-6.4h136.9c0-15.2-7.5-43.9-27.3-43.9H232.4c-9.5 0-14.6 5.1-14.6 5.1L3.9 221.9S0 225.8 0 231.3v95.2c0 4.2 1.3 6 5.5 6h72c4.2 0 5.5 2 5.5 6.2v70.5c0 4.2 1.3 6 5.5 6h72.7c4.2 0 5.5 1.8 5.5 6V492c0 4.2 1.3 6 5.5 6H273l100.2-102.1V171.2s-1.9-45 45-45h197.4c-.1-4.9-.3-6.8-.7-10.1zM207.4 236.7c0-4.2 1.7-6.1 5.9-6.1h47.8c4.2 0 6.2 1.9 6.2 6.1v47.1c0 4.2-2 5.7-6.2 5.7h-48.2c-4.2 0-5.5-1.8-5.5-6v-46.8zM124.9 153c0-4.2 1.7-6.1 5.9-6.1h47.8c4.2 0 6.2 1.9 6.2 6.1v47.1c0 4.2-2 5.7-6.2 5.7h-48.2c-4.2 0-5.5-1.8-5.5-6V153zM36.6 300.9c-4.2 0-5.5-1.8-5.5-6v-53l53.6-55.2c5.7-3.5 6.3 3.5 6.3 3.5V235c0 4.2-.1 4.8 4.1 4.8h48s6.2 0 1.7 5.7L90.6 301h-54zm83.7 83.1c-4.2 0-5.5-1.8-5.5-6v-53l53.6-55.2c5.7-3.5 6.3 3.5 6.3 3.5V318c0 4.2-.1 4.8 4.1 4.8h48s6.2 0 1.7 5.7L174.4 384h-54.1zm190.8 27-54.2 55.5h-54.1c-4.2 0-5.5-1.8-5.5-6v-53l53.6-55.2c5.7-3.5 6.3 3.5 6.3 3.5v44.7c0 4.2-.1 4.8 4.1 4.8h48s6.2 0 1.8 5.7zm38-44.7c0 4.2-2 5.7-6.2 5.7h-48.2c-4.2 0-5.5-1.8-5.5-6v-46.9c0-4.2 1.7-6.1 5.9-6.1h47.8c4.2 0 6.2 1.9 6.2 6.1v47.2z"></path></svg>