<svg id="Layer_1" data-name="Layer 1" xmlns="http://www.w3.org/2000/svg" viewBox="0 0 629.76 505.51">   <path d="M485,112.37l-170.12,114.1L144.76,112.37,0,209.36v167.99H94.09v64.07h94.1v64.07h253.37v-64.07h94.1v-64.07h94.1V209.36l-144.76-96.99ZM94.09,312.18h-28.92v-68.04l79.58-53.32,25.24,16.93-75.9,50.86v53.57Zm94.1,64.07h-28.93v-82.86l69.24-46.39,25.25,16.93-65.56,43.93v68.39Zm188.19,64.08h-123.02v-97.68l61.51-41.22,61.51,41.22v97.68Zm94.1-64.08h-28.93v-68.39l-65.56-43.93,25.25-16.93,69.24,46.39v82.86Zm94.1-64.07h-28.93v-53.57l-75.9-50.86,25.24-16.93,79.58,53.32v68.04Z"></path>   <polygon points="485 78.47 485 0 317.21 112.54 144.76 .36 144.76 78.11 317.76 190.65 485 78.47"></polygon> </svg>