<svg data-name="Layer 1" xmlns="http://www.w3.org/2000/svg" viewBox="0 0 604.92 597.07"><path d="M604.92 302.46C604.92 135.42 469.51 0 302.46 0S0 135.42 0 302.46c0 22.52 2.54 44.43 7.2 65.55l284.72-210.47L23.85 420.37c9.17 21.63 20.82 41.95 34.53 60.66l240.57-323.49-173.91 389.81c32.17 23.35 69.1 40.48 109.08 49.72l68.34-439.53 68.34 439.53c39.98-9.24 76.91-26.37 109.08-49.72l-173.9-389.81 240.57 323.48c13.71-18.71 25.36-39.02 34.53-60.66L313.01 157.54l284.71 210.47c4.67-21.11 7.2-43.03 7.2-65.55ZM358.94 175.01l-56.48-41.04-56.48 41.04 21.57-66.4-56.48-41.04h69.82l21.57-66.39 21.57 66.4h69.82l-56.48 41.04 21.57 66.4Z"></path></svg>