<svg xmlns="http://www.w3.org/2000/svg" width="611.9" viewBox="0 0 611.9 611.9" height="611.9" xml:space="preserve"><path d="M458.5 443.1c-74.6 0-135.5-59.9-137.1-134.2h290.5v-3c0-41.3-8.1-81.4-24-119.1-15.4-36.4-37.5-69.2-65.6-97.2C494.2 61.5 461.5 39.5 425 24 387.3 8 347.2 0 305.9 0s-81.4 8.1-119.1 24c-36.4 15.4-69.2 37.5-97.2 65.6-28.1 28.1-50.2 60.8-65.6 97.2C8 224.5 0 264.6 0 305.9S8.1 387.3 24 425c15.4 36.4 37.5 69.2 65.6 97.2 28.1 28.1 60.8 50.2 97.2 65.6 37.7 16 77.8 24 119.1 24s81.4-8.1 119.1-24c36.4-15.4 69.2-37.5 97.2-65.6 28.1-28.1 50.2-60.8 65.6-97.2 12.6-29.7 20.2-60.9 22.9-93H593c-12.1 63.2-67.8 111.1-134.5 111.1zM595 292.7H321.9c6.7-69.4 65.4-123.9 136.5-123.9S588.3 223.2 595 292.7zm-84.2 218.1c-54.7 54.7-127.5 84.8-204.8 84.8s-150.1-30.1-204.8-84.8C46.5 456.1 16.4 383.3 16.4 306c0-77.4 30.1-150.1 84.8-204.8C155.9 46.5 228.7 16.4 306 16.4s150.1 30.1 204.8 84.8c32 32 55.6 70.2 69.7 111.9-28.1-36.7-72.3-60.5-122-60.5-84.6 0-153.4 68.8-153.4 153.4s68.8 153.4 153.4 153.4c49.7 0 93.9-23.8 122-60.5-14.1 41.7-37.7 79.9-69.7 111.9z"></path></svg>