<svg data-name="Layer 1" xmlns="http://www.w3.org/2000/svg" viewBox="0 0 612.12 606.07"><path d="m306.09 341.46-77.52 77.52c-20.71 20.71-32.11 48.24-32.11 77.52s11.4 56.81 32.11 77.52c21.37 21.37 49.44 32.05 77.52 32.05s56.15-10.68 77.52-32.05c42.74-42.74 42.74-112.3 0-155.05l-77.52-77.52Zm45.7 200.74c-25.21 25.2-66.21 25.2-91.41 0-12.21-12.2-18.93-28.43-18.93-45.7s6.72-33.5 18.93-45.7l45.7-45.71 45.7 45.71c25.2 25.2 25.2 66.2 0 91.4Z"></path><path d="M412.17 0h-63.86l-42.26 42.25L263.8 0h-63.86L0 537.41h43.96l262.1-262.1 262.1 262.1h43.96L412.17 0Zm-45.22 44.99h13.95l42.72 114.82-85.75-85.75 29.07-29.08Zm-135.74 0h13.95l29.07 29.08-85.75 85.75L231.2 45ZM88.11 429.62l99.8-268.23 84.22 84.22L88.11 429.62Zm217.95-213.73-55-55 55.01-55 55.01 55-55 55Zm33.93 29.71 84.22-84.22 99.8 268.24L339.99 245.6Z"></path></svg>