<svg xmlns="http://www.w3.org/2000/svg" width="642" viewBox="0 0 642 642" height="642" style="overflow:visible;enable-background:new 0 0 642 642" xml:space="preserve"><path d="M642 351v77H473.7c-17.7 0-32.1 14.4-32.1 32.1V597c0 24.8-20.1 44.9-44.9 44.9H223.6v-77h165.1c24.8 0 44.9-20.1 44.9-44.9V395.9c0-24.8 20.1-44.9 44.9-44.9H642z"></path><path d="M642 214v77H473c-24.8 0-44.9 20.1-44.9 44.9v124.2c0 24.8-20.1 44.9-44.9 44.9H223.6v-77h162.7c17.7 0 32.1-14.4 32.1-32.1v-137c0-24.8 20.1-44.9 44.9-44.9H642zM418.4 136.9v77H255.7c-17.7 0-32.1 14.4-32.1 32.1v137c0 24.8-20.1 44.9-44.9 44.9H0v-77h169c24.8 0 44.9-20.1 44.9-44.9V181.9c0-24.8 20.1-44.9 44.9-44.9h159.6z"></path><path d="M418.4 0v77H253.3c-24.8 0-44.9 20.1-44.9 44.9V246c0 24.8-20.1 44.9-44.9 44.9H0v-77h168.3c17.7 0 32.1-14.4 32.1-32.1V44.9c0-24.8 20.1-44.9 44.9-44.9h173.1z"></path></svg>