<svg id="Layer_1" data-name="Layer 1" xmlns="http://www.w3.org/2000/svg" viewBox="0 0 612.26 612.26">   <path d="M306.13,0C137.33,0,0,137.33,0,306.13s137.33,306.13,306.13,306.13,306.13-137.33,306.13-306.13S474.93,0,306.13,0Zm139.03,200.63c0,76.66-62.37,139.03-139.03,139.03s-139.03-62.37-139.03-139.03S225.63,65.51,298.98,61.78c2.38-.07,4.75-.18,7.15-.18s4.77,.11,7.15,.18c73.35,3.73,131.88,64.59,131.88,138.85ZM61.6,306.13c0-54.29,17.8-104.48,47.85-145.1-2.57,12.81-3.94,26.04-3.94,39.6,0,87.71,56.58,162.45,135.15,189.65,20.52,7.1,34.67,25.89,34.67,47.6v110.77c-120.34-15.2-213.73-118.12-213.73-242.52Zm275.33,242.52v-110.77c0-21.71,14.16-40.5,34.67-47.6,78.58-27.2,135.16-101.94,135.16-189.65,0-13.55-1.37-26.78-3.94-39.59,30.04,40.62,47.84,90.81,47.84,145.09,0,124.4-93.39,227.32-213.73,242.52Z"></path> </svg>