<svg data-name="Layer 1" xmlns="http://www.w3.org/2000/svg" viewBox="0 0 612.14 385.53"><path d="M207.21 71.38c-9.22-4.85-17.42-1.05-21.71 7.13L73 292.69c-4.53 8.62-2.77 17.07 6.46 21.92 8.74 4.6 17.2 1.51 21.72-7.11l112.5-214.19c4.29-8.16 2.28-17.33-6.47-21.93"></path><path d="m571.17 114.66-47.52 90.49-34.02-17.87L539.3 92.7c4.29-8.16 2.28-17.33-6.47-21.93-9.22-4.85-17.42-1.05-21.71 7.12l-112.5 214.19c-4.53 8.62-2.77 17.08 6.45 21.93 8.75 4.59 17.21 1.5 21.73-7.12l49.67-94.58 34.02 17.86-47.53 90.49c-16.21 30.87-49.04 40.26-75.29 26.47-26.23-13.78-37.13-46.14-20.92-77l40.5-77.13-64.57-33.91.03-.07-.48-.25 34.48-65.65c4.29-8.16 2.28-17.34-6.47-21.93-9.23-4.85-17.42-1.05-21.71 7.12l-47.77 90.94 28.19 14.8.13-.25 34.02 17.86-62.72 119.42c-16.21 30.86-49.05 40.25-75.29 26.46-26.23-13.77-37.13-46.14-20.93-77l13.65-25.98-31.47-16.53-48.99 93.25c-16.2 30.86-49.04 40.25-75.28 26.46-26.24-13.78-37.14-46.14-20.93-77L149.33 64.72c15.98-30.4 49.04-40.25 75.27-26.46 26.25 13.78 36.92 46.59 20.95 77l-41.31 78.62 64.58 33.92.91.48L236 292.5c-4.53 8.62-2.76 17.07 6.46 21.92 8.75 4.6 17.2 1.51 21.72-7.12L311 218.18l-62.42-32.79 17.92-34.14.22.12 45.62-86.85c15.97-30.4 49.03-40.25 75.27-26.46 26.24 13.78 36.91 46.6 20.94 77.01l-14.45 27.49 31.05 16.31 49.77-94.75c15.97-30.4 49.04-40.25 75.27-26.47 26.25 13.79 36.92 46.6 20.94 77.02m-6.71-104.11c-42.45-22.29-94.64-8.89-118.6 36.72l-3.47 6.59C434.5 36 420.46 20.76 401.81 10.98c-42.44-22.3-94.64-8.89-118.59 36.7l-3.66 6.96c-7.81-18.12-21.94-33.58-40.77-43.47-42.39-22.31-94.59-8.91-118.55 36.69L10.73 256.34c-24.31 46.29-5.36 96.2 37.08 118.49 42.47 22.3 94.31 9.59 118.63-36.7l3.52-6.72c7.87 18.02 22.04 33.34 40.88 43.23 42.46 22.31 94.3 9.59 118.62-36.7l3.34-6.37c7.91 17.77 22 32.88 40.63 42.66 42.47 22.3 94.31 9.58 118.62-36.72l109.51-208.48c23.95-45.61 5.36-96.19-37.11-118.49"></path></svg>