<svg xmlns="http://www.w3.org/2000/svg" width="617.1" viewBox="0 0 617.1 431.8" height="431.8" xml:space="preserve" style="enable-background:new 0 0 617.1 431.8"><path d="M535.4 112.1c0-16.7-13.6-30.3-30.3-30.3H81.7v60.7H505c16.8-.1 30.4-13.7 30.4-30.4zm-30.3 9.7H102.4v-19.4h402.7c5.4 0 9.7 4.4 9.7 9.7 0 5.3-4.4 9.7-9.7 9.7z"></path><path d="M577.1 112.7c0-39.6-32.2-71.9-71.9-71.9H40v143.7h465.3c39.6.1 71.8-32.1 71.8-71.8zM60.6 61.5h444.6c28.3 0 51.3 23 51.3 51.3 0 28.3-23 51.3-51.3 51.3H60.6V61.5zM505.1 287.8H81.7v60.7H505c16.7 0 30.3-13.6 30.3-30.3.1-16.8-13.5-30.4-30.2-30.4zm0 40.1H102.4v-19.4h402.7c5.4 0 9.7 4.4 9.7 9.7 0 5.3-4.4 9.7-9.7 9.7z"></path><path d="M505.3 246.9H40v143.7h465.3c39.6 0 71.9-32.2 71.9-71.9-.1-39.5-32.3-71.8-71.9-71.8zm0 123.2H60.6V267.6h444.6c28.3 0 51.3 23 51.3 51.3 0 28.2-23 51.2-51.2 51.2z"></path><path d="M550.1 215.9c39.4-17.6 66.9-57.2 66.9-103C617.1 50.6 566.4 0 504.2 0H0v431.8h504.2c62.2 0 112.9-50.6 112.9-112.8 0-46-27.6-85.5-67-103.1zM20.6 20.6h483.6c50.9 0 92.2 41.4 92.2 92.2 0 50.9-41.4 92.2-92.2 92.2H20.6V20.6zm483.6 390.5H20.6V226.7h483.6c50.9 0 92.2 41.4 92.2 92.2 0 50.9-41.3 92.2-92.2 92.2z"></path></svg>