<svg xmlns="http://www.w3.org/2000/svg" width="619.7" viewBox="0 0 619.7 619.7" height="619.7" xml:space="preserve" style="enable-background:new 0 0 619.7 619.7"><path d="M0 344.3h89.4L0 433.8v185.9h186.3l89.6-89.8v89.8h185.5l90.1-90.2v90.2h68.2V413.3H482.8v-90.5l68.7-68.7v90.5h68.2V137.4H482.8V0H275.9v68.2h89.3l-68.8 69.3H207V0H0v68.2h89.4L0 158.1v186.2zm137.9-226.6v88.6h89.6l-69.2 69H69v-88.6l68.9-69zm275.9 274.2v90.3h87.4l-69 69.3h-87.4V461l69-68.8v-.3zm-275.9 1.5v88.7h87.7l-69 69.3H69v-89.1l68.9-68.9zm138-137.9v88.8h87.7l-69 69h-87.7v-88.7l69-69.1zm137.9-137.8v88.7h87.7l-69 69h-87.7v-88.8l69-68.9z" style="fill-rule:evenodd;clip-rule:evenodd"></path></svg>