<svg data-name="Layer 1" xmlns="http://www.w3.org/2000/svg" viewBox="0 0 614.01 620.15"><path d="M345.28 510.25c-9.39 9.39-21.89 14.57-35.21 14.57s-25.82-5.18-35.21-14.58L109.89 345.28c-9.39-9.39-14.57-21.89-14.57-35.2s5.18-25.82 14.58-35.22l164.97-164.97c9.39-9.39 21.89-14.57 35.2-14.57s25.82 5.18 35.22 14.58L483.9 248.51h130.12C585.46 106.76 460.24 0 310.07 0 138.83 0 0 138.82 0 310.07s138.83 310.07 310.07 310.07c150.17 0 275.38-106.76 303.94-248.51H483.89L345.27 510.25Z"></path><path d="m189.67319872 310.08 120.39907163-120.39907163L430.471342 310.08 310.07227035 430.47907163z"></path></svg>