<svg data-name="Layer 1" xmlns="http://www.w3.org/2000/svg" viewBox="0 0 626.16 590.82"><path d="M553.63 156.25C546.28 40.9 417.82-34.76 313.21 16.15 208.61-34.72 80.27 40.82 72.8 156.06c-96.93 65.55-97.23 212.95.14 278.78 7.55 115.22 135.84 190.65 240.4 139.82 104.67 50.93 233.15-24.82 240.43-140.2 96.82-66 96.28-212.78-.14-278.22Zm-92.13-30.17c-59.79-2.14-117.55 29.97-148.41 80.25-.36-.57-.73-1.14-1.1-1.71v3.46c-1.19 1.97-2.33 3.96-3.44 5.98-34.46-57.48 8.6-133.14 76.23-132.72 32.66.14 61.55 17.98 76.72 44.73ZM240.2 81.42c-32.95 52.34-32.95 124.28 0 176.5-47.2 0-87.4-41.14-86.89-88.25-.1-47.39 38.46-87.55 86.89-88.25ZM80.7 295.41c0-16.28 4.51-31.5 12.22-44.61 29.6 54.8 89.94 90.27 152.82 88.21-45.59 78.3-163.82 46.71-165.05-43.6Zm84.35 169.34c62.91 2.17 123.2-33.69 152.75-88.32 18.26 29.52 15.56 71.45-5.82 98.07-37.47 50.4-116.44 44.9-146.94-9.75Zm221.29 44.65c32.95-52.34 32.93-124.27 0-176.5 47.2 0 87.4 41.14 86.89 88.25.1 47.39-38.46 87.55-86.89 88.25Zm147.09-169.69c-29.67-54.6-90-90.1-153.02-87.88 16.58-29.38 49.46-47.52 84.08-44.37 63.97 4.75 101.75 77.71 68.94 132.24Z"></path></svg>