<svg data-name="Layer 1" xmlns="http://www.w3.org/2000/svg" viewBox="0 0 614.03 614.03"><path d="M209.42 417.52c36.7-21.19 77.29-55.01 114.89-97.97 36.38-41.57 63.93-84.79 80.3-123.04-36.7 21.19-77.29 55.01-114.89 97.97-36.38 41.57-63.93 84.78-80.3 123.04ZM508.8 181.73c-11.29-9.88-28.03-12.21-48.15-8.14-13.98 55.13-48.48 118.88-100.01 177.76-53.11 60.68-113.74 104.11-167.77 124.57-2.27 22.38 2.1 40.15 14.12 50.67 37.66 32.95 135.74-17.53 219.09-112.76 83.34-95.23 120.38-199.14 82.72-232.1Z"></path><path d="M307.02 0C137.46 0 0 137.46 0 307.02s137.46 307.02 307.02 307.02 307.02-137.46 307.02-307.02S476.58 0 307.02 0Zm155.4 445.63C360.85 561.68 231.72 614.81 174 564.29c-19.54-17.1-28.35-43.89-27.58-76.34-29.88 3.74-55.71-1.76-74.19-17.94-57.72-50.52-22.18-185.55 79.39-301.6C253.18 52.35 382.31-.77 440.04 49.74c19.54 17.1 28.35 43.9 27.58 76.34 29.88-3.74 55.71 1.76 74.19 17.94 57.72 50.52 22.18 185.55-79.39 301.6Z"></path><path d="M421.16 138.12c2.27-22.38-2.1-40.15-14.12-50.67-37.66-32.95-135.74 17.53-219.09 112.76-83.34 95.23-120.38 199.14-82.72 232.1 11.29 9.88 28.03 12.21 48.15 8.14 13.98-55.13 48.48-118.88 100.01-177.76 53.11-60.68 113.74-104.11 167.77-124.57Z"></path></svg>