<svg data-name="Layer 1" xmlns="http://www.w3.org/2000/svg" viewBox="0 0 620.17 614.66"><path d="M310.09 151.87c71.33 0 129.49-56.9 131.8-127.69C418.05 13.02 392.55 4.83 365.88 0c2.23 6.24 3.67 12.86 3.67 19.86 0 32.78-26.67 59.44-59.45 59.44s-59.44-26.66-59.44-59.44c0-7 1.43-13.62 3.66-19.86-26.67 4.83-52.16 13.02-76.01 24.18 2.3 70.78 60.45 127.69 131.78 127.69Z"></path><path d="M556.23 115.73c-15.37-19.83-33.07-37.74-52.71-53.33-37.05 68.94-109.84 115.95-193.43 115.95S153.71 131.34 116.66 62.4C97.02 78 79.32 95.91 63.95 115.74c51.92 81.19 142.81 135.17 246.13 135.17s194.21-53.98 246.14-135.17ZM443.77 383.45c-35.67 61.74-15.51 140.53 44.59 177.94 21.88-15.31 41.68-33.35 58.94-53.65-6.57-1.22-13-3.35-18.97-6.8-28.38-16.4-38.13-52.82-21.74-81.2 11.01-19.05 31.02-29.71 51.58-29.71 10.08 0 20.3 2.57 29.64 7.96 6 3.47 11.09 8 15.44 13.12 8.83-24.69 14.6-50.82 16.92-77.94-62.44-33.35-140.74-11.45-176.4 50.29Z"></path><path d="M420.82 370.2c40.62-70.3 114.53-109.65 190.43-109.65 2.27 0 4.54.15 6.81.22-3.7-25.25-10.44-49.49-19.81-72.39-96.31 4.33-188.56 56.05-240.25 145.53-51.69 89.47-50.41 195.18-6.07 280.75 25.28-3.4 49.59-9.83 72.57-18.92-41.2-66.57-45.51-153.14-3.69-225.54ZM96.25 321.81c-32.62-8.76-66.61-4.72-96.25 11.13 2.31 27.13 8.06 53.27 16.88 77.97 4.36-5.12 9.45-9.65 15.45-13.11 9.16-5.28 19.32-7.97 29.6-7.97 5.17 0 10.38.68 15.51 2.05 15.35 4.12 28.16 13.96 36.1 27.72 16.36 28.39 6.58 64.82-21.8 81.2-5.96 3.44-12.4 5.57-18.98 6.78 17.25 20.31 37.04 38.35 58.91 53.68 60.11-37.37 80.34-116.14 44.71-177.91-17.62-30.54-46.07-52.4-80.12-61.54Z"></path><path d="M84.91 197.72c-20.79-5.58-41.83-8.75-62.83-9.71-9.41 22.9-16.19 47.15-19.92 72.41 2.22-.07 4.44-.22 6.67-.22 19.1 0 38.32 2.51 57.26 7.6 56.62 15.2 103.93 51.53 133.22 102.32 41.77 72.44 37.4 159-3.85 225.55 22.98 9.1 47.28 15.56 72.56 18.97 44.4-85.55 45.76-191.26-5.87-280.76-38.96-67.57-101.91-115.92-177.25-136.15Z"></path></svg>