<svg xmlns="http://www.w3.org/2000/svg" width="605.3" viewBox="0 0 605.3 605.3" height="605.3"><path d="M151.8 458.7l25.9 25.9 42.7-42.7-.2 85.4 33.2 33.2.4.4v-.6c.1-22.2-.3-203.4-.3-203.4L151.8 458.7zM298.3 402.7L262 439.1l-.1 129.8 36.5 36.4-.1-202.6zM86 450.3c15.8-15.6 143.6-144 143.6-144h-144v36.6H146l-60.5 60.3v47.5c.3-.2.4-.3.5-.4zM228.8 370.4h-51.4l-91.8 91.7v51.5l143.2-143.2zM248.4 253.6L146.6 151.8l-25.9 25.9 42.7 42.7-85.4-.2-33.2 33.2-.4.4h.6c22.3.2 203.4-.2 203.4-.2zM202.5 298.3L166.2 262l-129.8-.1L0 298.4l202.5-.1zM262.4 146.1l-60.3-60.5h-47.5l.4.4c15.6 15.8 144 143.6 144 143.6v-144h-36.6v60.5zM234.9 228.8v-51.4l-91.7-91.8H91.7l143.2 143.2zM453.5 146.6l-25.9-25.9-42.7 42.7.2-85.4-33.2-33.2-.4-.4v.6c-.1 22.2.3 203.4.3 203.4l101.7-101.8zM307 202.5l36.3-36.3V36.4L306.9 0v202.5zM519.2 155c-15.8 15.6-143.6 144-143.6 144h144v-36.6h-60.4l60.5-60.3v-46.9-.6c-.2.2-.4.3-.5.4zM376.5 234.9h51.3l91.9-91.7V91.7L376.5 234.9zM356.9 351.7l101.8 101.8 25.9-25.9-42.7-42.7 85.4.2 33.2-33.2.4-.4h-.6c-22.3-.2-203.4.2-203.4.2zM402.7 306.9v.1l36.4 36.3h129.8l36.4-36.4zM306.3 375.6v144h36.6v-60.4l60.3 60.5h47.5l-.4-.4c-15.6-15.8-144-143.7-144-143.7zM370.4 376.5v51.3l91.7 91.9h51.5L370.4 376.5z"></path></svg>