<svg xmlns="http://www.w3.org/2000/svg" width="589.4" viewBox="0 0 589.4 589.5" height="589.5" xml:space="preserve"><path d="M503.1 86.3C447.5 30.7 373.4 0 294.7 0S142 30.7 86.3 86.3C30.7 142 0 216 0 294.7s30.7 152.7 86.3 208.4c55.7 55.7 129.7 86.3 208.4 86.3s152.7-30.7 208.4-86.3 86.3-129.7 86.3-208.4S558.8 142 503.1 86.3zm-26 390.8c-19.6 19.6-41.8 35.6-65.8 47.8-47.3 23.1-100.7 20.8-147.8 5.6-31.3-10.1-59.1-26.1-83.7-47.6-27.2-23.7-48.3-52.1-62.6-85.4-13.6-31.6-19-64.6-13.8-98.6 7.1-45.7 28.1-84 65.8-111.8 15.5-11.4 33.3-18.9 52.1-23.9 15.6-4.1 31.4-6.4 47.4-6.4 6.7 0 13.4.3 20 1.1 62.7 7 113.7 49.1 118.7 111.9 0 30.5-11.3 42-11.3 42H262v-24.5h-38.8v63h191.3s10.7-6.8 22.6-33.8c.7-1.6 1.2-3 1.5-4.2 5.5-14.4 8.1-29.7 7.3-45.7-1.3-24.9-9.6-47.9-23.1-68.8-14.5-22.7-34-40.2-57.3-53.7-34.7-20-72-26.8-111.7-23.4-22.7 2-44.9 6.3-66 14.9-23.5 9.6-44.3 23.3-62.9 40.8-18.8 17.7-32.9 38.7-43 62.1-15.8 36.6-21.3 74.7-15.8 114.5 7.1 51.4 30.2 94.6 65.1 132.2 17.4 18.8 37.6 33.7 60.2 45.5l-.1.3c-29.1-12.7-55.9-30.9-79.1-54.1-48.7-48.7-75.6-113.5-75.6-182.4s27-133.5 75.7-182.2c22.9-22.9 49.4-41 78.2-53.7 43.9-16.9 92-13.7 134.8 0 31.3 10.1 59.1 26.1 83.7 47.6 27.2 23.7 48.3 52.1 62.6 85.4 13.6 31.6 19 64.6 13.8 98.6-7.1 45.7-28.1 84-65.8 111.8-15.5 11.4-33.3 18.9-52.1 23.9-15.6 4.1-31.4 6.4-47.4 6.4-6.7 0-13.4-.3-20-1.1-62.7-7-113.7-49.1-118.7-111.9 0-30.5 11.3-42 11.3-42h134.1v24.5h38.6v-63.2H174.2s-10.7 7-22.6 34c-.7 1.6-1.2 3-1.5 4.2-5.5 14.4-8.1 29.7-7.3 45.7 1.3 24.9 9.6 47.9 23.1 68.8 14.5 22.7 34 40.2 57.3 53.7 34.7 20 72 26.8 111.7 23.4 22.7-2 44.9-6.3 66-14.9 23.5-9.6 44.3-23.3 62.9-40.8 18.8-17.7 32.9-38.7 43-62.1 15.8-36.6 21.3-74.7 15.8-114.5-7.1-51.4-30.2-94.6-65.1-132.2C440.1 85 420 70.1 397.3 58.3l.1-.4c29.4 12.7 56.4 31 79.7 54.4 48.7 48.7 75.6 113.5 75.6 182.4s-26.8 133.7-75.6 182.4z"></path></svg>