<svg xmlns="http://www.w3.org/2000/svg" width="600" viewBox="0 0 600 600.11" height="600.11" style="overflow:visible;enable-background:new 0 0 600 600.11" xml:space="preserve"><path d="M268.38 268.54h-73.24c8.42-46.42 35.53-86.36 73.24-111.75v111.75zm-136.94 0h-5.97v-33c0-85.26 61.73-156.22 142.9-170.58v20.1c-72.89 32.64-126.16 101.42-136.93 183.48zm199.85-142.79h33.17c85.26 0 156.22 61.73 170.58 142.91h-20.1c-32.66-72.95-101.5-126.24-183.64-136.96v-5.95zm0 69.64c46.49 8.38 86.5 35.51 111.91 73.27H331.29v-73.27zm-62.58 136.07v73.27c-46.49-8.38-86.5-35.51-111.91-73.27h111.91zm136.15.11c-8.42 46.42-35.53 86.36-73.24 111.75V331.57h73.24zM268.71 468.41v5.95h-33.17c-85.26 0-156.22-61.73-170.58-142.91h20.1c32.66 72.96 101.51 126.24 183.65 136.96zm205.82-136.84v33c0 85.26-61.73 156.22-142.91 170.58v-20.1c72.9-32.63 126.17-101.41 136.94-183.48h5.97zm-408.7-63.03a235.73 235.73 0 0 1-2.59-34.86C63.24 104.71 167.95 0 296.92 0c11.67 0 23.15.86 34.37 2.51v64.73l.16-1.14a235.73 235.73 0 0 1 34.86-2.59C495.29 63.52 600 168.23 600 297.2c0 11.68-.86 23.15-2.51 34.37h-63.31a235.73 235.73 0 0 1 2.59 34.86c0 128.97-104.71 233.68-233.68 233.68-11.68 0-23.15-.86-34.37-2.51v-64.73l-.16 1.14a235.73 235.73 0 0 1-34.86 2.59C104.71 536.59 0 431.89 0 302.91c0-11.68.86-23.15 2.51-34.37h63.32z" style="fill-rule:evenodd;clip-rule:evenodd"></path></svg>