<svg id="Layer_1" data-name="Layer 1" xmlns="http://www.w3.org/2000/svg" viewBox="0 0 620.12 620.23">   <path d="M503.72,193.65c-50.72,0-93.86,32.67-109.77,78.02H226.17c-1.45-4.14-3.14-8.16-5.03-12.08l38.46-38.46c15.29,7.4,32.36,11.67,50.46,11.67,64.18,0,116.4-52.22,116.4-116.4S374.25,0,310.07,0s-116.4,52.22-116.4,116.4c0,18.09,4.27,35.16,11.67,50.45l-38.46,38.46c-15.29-7.4-32.36-11.67-50.46-11.67C52.22,193.65,0,245.87,0,310.06s52.22,116.4,116.4,116.4c50.72,0,93.86-32.67,109.77-78.02h167.78c1.45,4.14,3.14,8.16,5.03,12.07l-38.45,38.52c-15.26-7.37-32.3-11.62-50.35-11.62-64.19,0-116.4,52.22-116.4,116.4s52.22,116.4,116.4,116.4,116.4-52.22,116.4-116.4c0-18.13-4.29-35.24-11.71-50.55l38.4-38.47c15.29,7.4,32.36,11.67,50.46,11.67,64.19,0,116.4-52.22,116.4-116.4s-52.22-116.4-116.4-116.4ZM214.33,116.4c0-52.79,42.95-95.74,95.74-95.74s95.73,42.95,95.73,95.74-42.94,95.73-95.73,95.73c-12.29,0-24-2.41-34.81-6.65l21.22-21.22c4.39,.88,8.93,1.35,13.59,1.35,38.23,0,69.22-30.99,69.22-69.22s-30.99-69.22-69.22-69.22-69.22,30.99-69.22,69.22c0,4.65,.48,9.19,1.35,13.59l-21.22,21.22c-4.24-10.8-6.65-22.52-6.65-34.8ZM116.4,405.8c-52.79,0-95.74-42.95-95.74-95.74s42.95-95.74,95.74-95.74c39.14,0,72.82,23.63,87.65,57.35h-30.05c-12.41-18.59-33.56-30.84-57.59-30.84-38.23,0-69.22,30.99-69.22,69.22s30.99,69.22,69.22,69.22c24.03,0,45.18-12.25,57.59-30.84h30.05c-14.83,33.72-48.51,57.35-87.65,57.35Zm289.5,98.03c0,52.79-42.94,95.74-95.73,95.74s-95.74-42.95-95.74-95.74,42.95-95.73,95.74-95.73c12.26,0,23.94,2.4,34.72,6.61l-21.2,21.24c-4.37-.87-8.89-1.34-13.52-1.34-38.23,0-69.22,30.99-69.22,69.22s30.99,69.22,69.22,69.22,69.22-30.99,69.22-69.22c0-4.68-.48-9.24-1.36-13.65l21.2-21.24c4.26,10.83,6.68,22.57,6.68,34.89Zm97.81-98.03c-39.14,0-72.82-23.63-87.64-57.35h30.05c12.41,18.59,33.56,30.84,57.59,30.84,38.23,0,69.22-30.99,69.22-69.22s-30.99-69.22-69.22-69.22c-24.03,0-45.18,12.25-57.59,30.84h-30.05c14.83-33.72,48.51-57.35,87.65-57.35,52.79,0,95.74,42.95,95.74,95.74s-42.95,95.74-95.74,95.74Z"></path> </svg>