<svg id="Layer_1" data-name="Layer 1" xmlns="http://www.w3.org/2000/svg" viewBox="0 0 607.74 617.36">   <path d="M463.67,135.93c-49.38,0-96.06-21.71-124.37-57.21h124.37v-20.93h-138.04c-8.98-17.22-14.09-36.69-14.09-57.8h131.2V35.42h20.93V0c79.57,0,144.08,64.51,144.08,144.08s-64.67,144.08-144.08,144.08l-175.03-.5v20.93h1.98v.1h306.99v308.68h-133.94v-176.43h-20.93v176.43h-131.2v-176.43h-20.93v176.43H157v-175.17h-12.92C64.51,442.19,0,377.68,0,298.11S60.23,158.42,136.07,154.26v154.42h20.93V135.93H2.52v-57.21H161.24v-20.93H2.52V0H136.07V35.42h20.93V0h133.61V162.48h173.05v-26.55Z"></path> </svg>