<svg width="642" viewBox="0 0 642 319" height="319" xml:space="preserve" style="enable-background:new 0 0 582.8 582.8"><path d="M313 123.5a157.076 157.076 0 0 0-1.904-7.37c-80.55-3.115-150.761-46.484-191.232-110.63C89.483 13.133 62.594 29.542 42 51.888 122.524 96.45 214.804 122.26 313 123.5"></path><path d="M304 96.5C279.538 40.015 223.474.5 158.187.5 152.03.5 145.973.887 140 1.57c36.432 53.475 95.868 89.864 164 94.93M304 222.5c-68.132 5.067-127.568 41.464-164 94.95 71.015 8.13 136.597-31.658 164-94.95"></path><path d="M119.864 314.5c40.471-64.146 110.682-107.515 191.232-110.63.693-2.436 1.327-4.89 1.904-7.37-98.196 1.24-190.476 27.049-271 71.612 20.594 22.346 47.483 38.755 77.864 46.388M317 150.5a168.625 168.625 0 0 0-.584-7.261c-104.03-.705-201.81-28.135-286.815-75.739C12.551 91.13 1.848 119.616 0 150.5h317Z"></path><path d="M317 169.5H0c1.848 30.884 12.551 59.37 29.601 83 85.004-47.604 182.785-75.034 286.815-75.739.25-2.403.436-4.826.584-7.261M328 123.5c.577-2.48 1.211-4.934 1.904-7.37 80.55-3.115 150.761-46.484 191.232-110.63 30.381 7.633 57.27 24.042 77.864 46.388C518.476 96.45 426.196 122.26 328 123.5"></path><path d="M337 96.5c24.462-56.485 80.526-96 145.813-96C488.97.5 495.027.887 501 1.57c-36.432 53.475-95.868 89.864-164 94.93M337 222.5c68.132 5.067 127.568 41.464 164 94.95-71.015 8.13-136.597-31.658-164-94.95"></path><path d="M521.136 314.5c-40.471-64.146-110.682-107.515-191.232-110.63A157.076 157.076 0 0 1 328 196.5c98.196 1.24 190.476 27.049 271 71.612-20.594 22.346-47.483 38.755-77.864 46.388M324.21 149.915c.148-2.443.334-4.873.584-7.284 104.081-.707 201.91-28.221 286.955-75.973 17.058 23.702 27.766 52.277 29.615 83.257H324.21Z"></path><path d="M324.21 169.343h317.154c-1.849 30.98-12.557 59.555-29.615 83.257-85.046-47.752-182.874-75.266-286.955-75.973-.25-2.41-.436-4.84-.584-7.284"></path></svg>