<svg xmlns="http://www.w3.org/2000/svg" width="571.7" viewBox="0 0 571.7 472.5" height="472.5"><path d="M571.7 0l-80.5.6-156.3 189.6-9.5-11.5L472.7 0l-80.5.6-106.9 129.5L178.5.6 98 0l147.3 178.7-9 10.9L80.5.6 0 0l196.3 238.1L3.1 472.5l80.5-.6 152.8-185.3 9.5 11.5-143.8 174.4 80.5-.6 103.3-125.2 103.3 125.2 80.5.6-143.8-174.3 9-10.9L487.2 472l80.5.6-192.8-233.9L571.7 0zM398 12.7l48.7-.3-129.2 156.7-24.2-29.4L398 12.7zm-225.3 0L327 199.8l-24.2 29.4L124 12.4l48.7.3zm103.7 225.4l9-10.9 9.5 11.5-9 10.9-9.5-11.5zM26 12.4l48.7.3 153.7 186.4-24.2 29.4L26 12.4zm51.8 447.4l-48.7.3 224.2-271.9 24.2 29.4L77.8 459.8zm99 0l-48.7.3 125.6-152.4 24.2 29.4-101.1 122.7zm218.1 0L244.2 277l24.2-29.4L443.6 460l-48.7-.2zM293.8 259.2L497 12.7l48.7-.3L318 288.6l-24.2-29.4zm247.8 200.9l-48.7-.3-150.1-182.1 24.2-29.4 174.6 211.8z"></path></svg>