<svg data-name="Layer 1" xmlns="http://www.w3.org/2000/svg" viewBox="0 0 608.67 608.67"><circle cx="339.98" cy="211.96" r="10.68"></circle><path d="m192.94 253.05 20.07-45.72c12.43-24.87 36.61-36.66 62.21-24.81 11.71 5.42 19 17.94 19.36 30.7l9.75 3.34 9.75-3.34c.36-12.76 7.65-25.28 19.36-30.7 25.6-11.85 49.78-.06 62.21 24.81l20.07 45.72 165.9-74.29C533.81 73.33 427.64 0 304.34 0S74.86 73.33 27.04 178.76l165.9 74.29Zm111.4-180.8c25.19 0 45.6 20.42 45.6 45.6s-20.42 45.6-45.6 45.6-45.6-20.42-45.6-45.6 20.42-45.6 45.6-45.6ZM557.77 255.01c-4.55 14.19-14.93 25.76-28.53 31.83-25.38 11.32-66.27 29.68-82.22 37.46l25.59 58.28 57.47-23.89 54.51 64.47c15.5-36.51 24.08-76.67 24.08-118.83 0-44.47-9.54-86.7-26.68-124.78l-24.22 75.46Z"></path><path d="M490.5 439.07c-53.17 7.2-103.71-25.22-119.34-76.55l-35.94-118.05c-4.64-15.26-17.77-22.89-30.89-22.89s-26.25 7.63-30.89 22.89L237.5 362.52c-15.63 51.33-66.17 83.75-119.34 76.55l-92.62-12.54c47.07 107.24 154.17 182.14 278.79 182.14s231.72-74.91 278.79-182.14l-92.62 12.54Z"></path><circle cx="268.69" cy="211.96" r="10.68"></circle><path d="m78.59 358.69 57.47 23.89 25.59-58.28c-15.95-7.78-56.84-26.14-82.22-37.46-13.61-6.07-23.98-17.65-28.53-31.83l-24.22-75.46C9.54 217.63 0 259.87 0 304.34c0 42.16 8.58 82.32 24.08 118.83l54.51-64.47Z"></path></svg>