<svg xmlns="http://www.w3.org/2000/svg" width="616.1" viewBox="0 0 616.1 616.1" height="616.1" xml:space="preserve"><path d="m401.1 57.2-93 314.7L215.9 59 96.4 468.6h8.2c1.1 0 15.3-48.2 17.4-53.2 14-34.2 47.9-98.2 93-97.5 10.4.2 19.2 2.9 19.2 2.9 44.3 15.5 73.9 87.6 73.9 87.6s31.5-73.9 75.7-89.4c23.8-8.3 41.2-1.6 60.2 14 19.5 16 49.5 52.9 71.2 135.6h8.2L401.1 57.2z"></path><path d="M308 616.1c-169.9 0-308-138.2-308-308S138.2 0 308 0c169.9 0 308.1 138.2 308.1 308.1s-138.2 308-308.1 308zM308 11C144.2 11 10.9 144.2 10.9 308.1c0 163.8 133.3 297.1 297.1 297.1s297.1-133.3 297.1-297.1C605.1 144.2 471.9 11 308 11z"></path></svg>