<svg xmlns="http://www.w3.org/2000/svg" width="591.1" viewBox="0 0 591.1 490.6" height="490.6"><path d="M199.6 194.2c-2.2 0-4.1-1.6-4.5-3.7-.2-1-.2-2.1-.3-3.2-3.6-48-43.4-85.9-92-86.9v19.1l.2.9c14.3 8.6 27.7 19 39.8 31.2 26.4 26.5 44.7 59 53.5 94.4.9 3.6 2.8 4.1 3.7 0 7.3-30.3 21.9-58.4 42.4-82.5v-.4C228.2 98.8 171.1 50.4 102.7 49.5v41.6c53.9 1 98 43 101.4 96.3 0 .6.1 1.2.1 1.8 0 .5 0 .9-.1 1.4-.4 2.1-2.3 3.6-4.5 3.6z"></path><path d="M249.4 153.8l.4 1.6c1.4-1.5 2.9-3 4.3-4.4 9.2-9.2 18.5-16.7 29-23.8l.7-.4C256.3 53.1 185.7.8 102.7 0v40.5c70 .9 129 48.7 146.7 113.3zM400 132c-7.5 0-13.6 6.1-13.6 13.6s6.1 13.6 13.6 13.6 13.6-6.1 13.6-13.6S407.5 132 400 132z"></path><path d="M587.2 100.3H398.1c-107.6 0-194.8 86.9-195.5 194.3 0 2.5-2 4.5-4.5 4.5s-4.5-2-4.5-4.5C193 187.8 106.7 101.3 0 100.3v40.5c84.1 1 152.2 69.7 152.2 154 0 2.5-2 4.5-4.5 4.5s-4.5-2-4.5-4.5c0-79.3-64-144-143.1-145v41.6c56.2 1 101.6 46.6 101.6 103v.4c0 2.6-2.1 4.6-4.6 4.6-2.6 0-4.6-2.1-4.6-4.6v-.1c0-51.3-41.3-92.9-92.3-94v39.8c29.1 1 52.5 24.8 52.5 54.2v.1c0 2.7-2.2 5-5 5-2.7 0-5-2.2-5-4.9 0-23.9-18.9-43.4-42.6-44.5v44.3c0 109.2 88.5 195.9 197.7 195.9 104.2 0 189.6-79 197.2-181.1.6-8.3.4-16.7 1-25 5.5-67.8 45.6-125.8 102.6-156.4 6.1-3.3 12.3-6.2 18.8-8.8 22.7-9.2 43.9-11.3 69.9-11.3 2.2 0 3.9-1.7 3.9-3.9-.1-2.1-1.8-3.8-4-3.8zM400 167.7c-12.2 0-22.1-9.9-22.1-22.1 0-12.2 9.9-22.1 22.1-22.1 12.2 0 22.1 9.9 22.1 22.1 0 12.2-9.9 22.1-22.1 22.1z"></path></svg>