<svg data-name="Layer 1" xmlns="http://www.w3.org/2000/svg" viewBox="0 0 621.75 621.74"><path d="M518.35 461.97 403.79 347.42c-20.18-20.18-20.18-52.9 0-73.08l113.25-113.25c15.5-15.5 17.14-41.02 2.04-56.92-15.5-16.32-41.29-16.58-57.12-.76L347.4 217.96c-20.18 20.18-52.9 20.18-73.08 0L159.76 103.41c-15.82-15.81-41.61-15.56-57.11.75-15.1 15.89-13.47 41.42 2.03 56.92l113.26 113.26c20.18 20.18 20.18 52.9 0 73.08L103.38 461.97c-15.57 15.57-15.57 40.81 0 56.38 7.79 7.78 17.99 11.67 28.19 11.67s20.4-3.89 28.19-11.67l114.56-114.56c20.18-20.18 52.9-20.18 73.08 0l114.56 114.56c7.79 7.78 17.99 11.67 28.19 11.67s20.4-3.89 28.19-11.67c15.57-15.57 15.57-40.81 0-56.38Z"></path><circle cx="310.87" cy="183.24" r="39.66" transform="rotate(-13.28 310.95566503 183.25377983)"></circle><path d="M310.87 0C139.46 0 0 139.46 0 310.87s139.46 310.87 310.87 310.87 310.87-139.46 310.87-310.87S482.29 0 310.87 0Zm0 614.62c-167.49 0-303.75-136.26-303.75-303.75S143.38 7.12 310.87 7.12s303.75 136.26 303.75 303.75-136.26 303.75-303.75 303.75Z"></path></svg>