<svg xmlns="http://www.w3.org/2000/svg" width="512" viewBox="0 0 512 642" height="642" data-name="Isolation Mode"><path d="M512 282.48v234.66C512 586.48 455.79 642 386.39 642s-125.58-56.24-125.58-125.58c0-141.31 158.12-213.37 158.12-292.11 0-33.9-27.54-61.38-61.44-61.38s-61.38 27.48-61.38 61.38v13.23h44.94v35.31H260.8v-48.54c0-55.21 44.75-99.9 99.9-99.9s99.96 44.68 99.96 99.9c0 105.67-156.65 163.69-156.65 292.82 0 45.9 37.24 83.14 83.14 83.14s83.11-37.24 83.11-83.14V282.48h41.73Z"></path><path d="M341.06 282.48v35.31h-44.94v44.94h-35.31v-80.25h80.25zM386.4 0c-69.36 0-125.59 56.23-125.59 125.59v53.95c9.13-20.35 24.28-37.34 43.2-48.83v-5.85c0-45.91 37.22-83.13 83.13-83.13s83.13 37.22 83.13 83.13v147.99H512V125.59C512 56.23 455.77 0 386.4 0ZM0 282.48v234.66C0 586.48 56.21 642 125.61 642c69.34 0 125.58-56.24 125.58-125.58 0-141.31-158.12-213.37-158.12-292.11 0-33.9 27.54-61.38 61.44-61.38 33.83 0 61.38 27.48 61.38 61.38v13.23h-44.94v35.31h80.25v-48.54c0-55.21-44.75-99.9-99.9-99.9-55.21 0-99.96 44.68-99.96 99.9 0 105.67 156.65 163.69 156.65 292.82 0 45.9-37.24 83.14-83.14 83.14s-83.11-37.24-83.11-83.14V282.48H.01Z"></path><path d="M251.18 282.48v80.25h-35.31v-44.94h-44.94v-35.31h80.25zM125.59 0c69.36 0 125.59 56.23 125.59 125.59v53.95c-9.13-20.35-24.28-37.34-43.2-48.83v-5.85c0-45.91-37.22-83.13-83.13-83.13s-83.12 37.22-83.12 83.13v147.99H0V125.59C0 56.23 56.23 0 125.59 0Z"></path></svg>