<svg xmlns="http://www.w3.org/2000/svg" width="610.1" viewBox="0 0 610.1 627.3" height="627.3" xml:space="preserve" style="enable-background:new 0 0 610.1 627.3"><path d="M415.7 0H194.4c-53.7 0-93 42-93 95.7v113.8c0 49.7 33.7 88.8 81.2 95 13.2 1.7 11.9-4.8 11.9-4.8V99.4c.1-1.6.7-6.9 6.5-6.9h208.4c5.8 0 6.4 5.2 6.5 6.9v200.3s-1.4 6.5 11.9 4.8c47.5-6.2 81.2-45.3 81.2-95V95.7C508.8 42 469.4 0 415.7 0zM427.6 322.8c-13.2-1.7-11.9 4.8-11.9 4.8v200.3c-.1 1.6-.7 6.9-6.5 6.9H199c-5.8 0-4.5-5.2-4.5-6.9V327.6s1.4-6.5-11.9-4.8c-47.5 6.2-81.2 45.3-81.2 95v113.8c0 53.7 39.3 95.7 93 95.7h221.3c53.7 0 93-42 93-95.7V417.8c.1-49.7-33.6-88.8-81.1-95z"></path><g><path d="M299.7 202.8c0-53.1-39.2-93.6-85.2-96.7-8.8-.6-7.8 6.8-7.8 6.8v401.7s-1 7.4 7.8 6.8c46-3.1 85.2-43.6 85.2-96.7V202.8zM0 199.3c0-53.1 35-88.9 81-92 8.8-.6 8.9 4.2 8.9 4.2v405.9s-.1 3.6-8.9 2.6c-44.5-5.5-81-39.4-81-92.5V199.3zM311.2 202.8c0-53.1 39.2-93.6 85.2-96.7 8.8-.6 7.8 6.8 7.8 6.8v401.7s1 7.4-7.8 6.8c-46-3.1-85.2-43.6-85.2-96.7V202.8zM610.1 199.3c0-53.1-35-88.9-81-92-8.8-.6-8.9 4.2-8.9 4.2v405.9s.1 3.6 8.9 2.6c44.4-5.5 81-39.4 81-92.5V199.3z"></path></g></svg>