<svg xmlns="http://www.w3.org/2000/svg" width="480.8" viewBox="0 0 480.8 622.3" height="622.3" xml:space="preserve" style="enable-background:new 0 0 480.8 622.3"><path d="M441.5 112.8V360H195.4v39.3h245.3C431.8 502.1 345.4 583 240.4 583c-110.9 0-201.1-90.2-201.1-201.1 0-110.9 90.2-201.1 201.1-201.1h143.9v-39.3H240.4c-84 0-158.1 43.3-201.1 108.8v-9.9c0-110.9 90.2-201.1 201.1-201.1h143.9V0H240.4C107.8 0 0 107.8 0 240.4v145.9h.1c2.3 130.6 109.2 236 240.4 236 132.6 0 240.4-107.8 240.4-240.4V112.8h-39.4z"></path></svg>