<svg xmlns="http://www.w3.org/2000/svg" width="611.7" viewBox="0 0 611.7 523.1" height="523.1" xml:space="preserve"><path d="M301.1 523.1s-7.4-14.4-15.6-25.6c-8.2-11.3-27.3-33.2-60.9-33.2-33.5 0-54.5 18.6-59.8 22.3-5.3 3.7-28.1 21.8-62.6 21.8-36 0-75.5-18.7-102.2-42.9V359.8s18.2 27.2 38.8 42c19 13.7 35.3 20.2 56.8 20.2s49.9-13.9 60.2-20.2c8.1-4.9 35.4-26.4 72.3-26.4 43.6 0 64.2 28.4 73 45.5v102.2zm10.6-106.5s11.2-20.8 26.5-31.1 28-13.5 46.6-13.5 42.9 8.1 57.1 17.1c14.1 9 45 27.5 74.9 27.5 29.9 0 66.1-19.2 95-66.5v108.4s-45.3 45.5-105.1 44.8c-19.1-.2-38.7-7-55.7-18.9-25.6-17.9-43.2-24-64-23.7-20.8.3-53.5 11.5-75.2 61.6V416.6h-.1zM49.8 344.4c4.4 0 7.9 3.6 7.9 8s-3.6 7.9-7.9 7.9c-4.4 0-7.9-3.6-7.9-7.9-.1-4.5 3.5-8 7.9-8zm518.6-7.7c4.4 0 7.9 3.6 7.9 8s-3.6 7.9-7.9 7.9c-4.4 0-7.9-3.6-7.9-7.9-.1-4.4 3.5-8 7.9-8zm-267.3-51.4s-11.2 18.9-26.5 29.2-29.3 14.2-47.9 14.2c-18.6 0-44.6-9.2-58.7-18.2-14.1-9-43.9-28-73.8-28S29 300.2.1 347.5V240.4s45.1-45 104.9-44.4c19.1.2 38.6 6 54.8 18 25.1 18.7 44.2 25.9 65 25.6 20.8-.3 56.3-11.2 76.4-58.6v104.3h-.1zm310.6 55.5s-5.2-12.1-13.4-23.4c-8.2-11.3-28.3-34-61.8-34s-54.7 19.8-60 23.5c-5.3 3.7-28.1 21.8-62.6 21.8-36 0-75.5-18.8-102.2-42.9V180.1s18.2 27.2 38.8 42c19 13.7 35.3 20.2 56.8 20.2s49.6-14.7 60-20.9c8.1-4.9 36.2-26.5 73.1-26.5 43.6 0 62.6 27 71.4 44.1v101.8h-.1zM362.3 163.3c4.4 0 7.9 3.6 7.9 7.9 0 4.4-3.6 7.9-7.9 7.9-4.4 0-7.9-3.6-7.9-7.9-.1-4.3 3.5-7.9 7.9-7.9zm-109.8-.4c4.4 0 7.9 3.6 7.9 7.9 0 4.4-3.6 7.9-7.9 7.9-4.4 0-7.9-3.6-7.9-7.9-.1-4.4 3.5-7.9 7.9-7.9zm59.2-97.2s11.1-20.4 26.4-30.8c15.3-10.3 28.5-14.4 47-14.4s43.8 8.4 58 17.4c14.1 9 44.6 27.8 74.5 27.8S582.8 47.3 611.7 0v108.4s-45.1 44.2-105 43.6c-19.1-.2-38.8-6-54.9-18.1-25.1-18.7-44-25.1-64.8-24.8-20.8.3-53.7 11.6-75.3 61.7V65.7zM0 5.8s6 12 14.1 23.3c8.2 11.3 29.3 33.6 62.8 33.6s55.8-19.9 61.1-23.6c5.3-3.7 26.4-21.7 60.9-21.7 36 0 75.4 19.4 102.1 43.5V167s-17.7-28.2-38.3-43c-19-13.7-35.6-20.1-57.1-20.1s-49.1 14.1-59.3 20.7c-6.9 4.5-36.3 26.7-73.2 26.7-43.6 0-63.1-27.4-73.2-45.6V5.8H0z" fill-rule="evenodd" clip-rule="evenodd"></path></svg>