<svg xmlns="http://www.w3.org/2000/svg" width="622.5" viewBox="0 0 622.5 488.1" height="488.1" style="enable-background:new 0 0 622.5 488.1" xml:space="preserve"><path d="m338.4 318.8 190.5-110c30-17.3 44.7-51.2 39.4-83.6-.1-.4-.3-.6-.6-.8-.3-.2-.7-.1-1 0L311.3 272c-.5.3-.7 1-.4 1.5l26 45c.3.5 1 .6 1.5.3m40.5 70.3 96.8-55.9c30-17.3 44.7-51.2 39.5-83.6-.1-.4-.3-.6-.6-.8-.3-.2-.7-.1-1 0l-161.7 93.4c-.5.3-.7 1-.4 1.5l26 45c.3.5.9.7 1.4.4m13.2 24.9 42.4 73.5c.2.3.5.5.9.5h85c.4 0 .7-.2.9-.5.2-.3.2-.7 0-1.1l-63.7-110.3c-.3-.5-1-.7-1.5-.4l-63.7 36.8c-.4.3-.6 1-.3 1.5m-74.5-20.7-81.2-140.6c-36.8-63.7-91.9-112.2-165-105.6-27 2.4-52.9 12.8-71.2 31.7-.3.3-.3.7-.1 1 .2.3.7.4 1 .3 15.6-7.6 33.5-9.9 51-9.7 52.6.8 95.7 37 123.9 85.8l94.7 164.1c24.8 43 67.5 67.6 117.1 67.6h13.8c.4 0 .7-.2.9-.5.2-.3.2-.7 0-1.1l-35.8-61.9c-.2-.4-.6-.6-1.1-.5-16.7 2-33.9-5.8-42.8-21.3l-5.2-9.3zm-70.2 40.6-47.3-82-47.3-82c-15.5-26.9-31-46.9-48.8-61.1C76.6 187 37 176.3 2.6 185.1c-.5.1-.8.6-.8 1.1 0 .5.4.9.9 1 7.6 1.6 15 4.4 21.7 8.3 21.9 12.6 40.9 31 54.4 54.5l81.1 140.6c30.3 52.4 78.9 85.9 136.5 94.9.4.1.8-.2.9-.5.1-.4 0-.8-.4-1-20-11.5-37.1-28.4-49.5-50.1zm50.4-185.3L582 84.5c30-17.3 44.7-51.2 39.5-83.6-.1-.4-.3-.6-.6-.8-.3-.2-.7-.1-1 0L270.7 201.7c-.5.3-.7 1-.4 1.5l26 45c.3.5 1 .7 1.5.4" style="fill-rule:evenodd;clip-rule:evenodd"></path></svg>