<svg xmlns="http://www.w3.org/2000/svg" width="616.6" viewBox="0 0 616.6 585" height="585" xml:space="preserve"><path d="m616.6 240-112-191L419 99.2V0H197.6v99.2L112 49 0 240l89.5 52.5L0 344.9l112 191 85.6-50.2V585H419v-99.2l85.6 50.2 112-191-89.5-52.5 89.5-52.5zM484.1 127.8l53.8 91.7-67.6 39.6-51.3-30V166l65.1-38.2zM361.5 385.3l-53.2-31.2-53.2 31.2V323l-52-30.5 52-30.5v-62.4l53.2 31.2 53.2-31.2V262l52 30.5-52 30.5v62.3zM255.1 57.5h106.4V133l-53.2 31.2-53.2-31.2V57.5zm-176.4 162 53.8-91.7 65.1 38.2v63.1l-51.3 30.1-67.6-39.7zm53.8 237.7-53.8-91.7 67.6-39.6 51.3 30.1v63l-65.1 38.2zm229 70.3H255.1V452l53.2-31.2 53.2 31.2v75.5zm176.4-162-53.8 91.7L419 419v-63.1l51.3-30.1 67.6 39.7z"></path></svg>