<svg data-name="Layer 1" xmlns="http://www.w3.org/2000/svg" viewBox="0 0 628.78 628.78"><path d="M273.35 372.16 350 245.87c24.44-40.24 68.85-65.23 115.92-65.23h133.01c-17.79-37.77-42.83-71.45-73.39-99.17h-59.7c-43.18 0-83.93 22.93-106.34 59.84l-80.04 131.95c-24.62 40.55-69.37 65.73-116.81 65.73H1.05c2.57 33.15 10.24 64.85 22.29 94.31H164.7c44.12 0 85.76-23.43 108.66-61.14Z"></path><path d="M627.9 291.96H468.64c-44.48 0-86.45 23.62-109.54 61.64l-80.04 131.95c-23.94 39.44-67.48 63.94-113.61 63.94h-59.69c36.45 32.38 80.45 56.43 129.07 69.11 14.78-9.92 27.51-22.96 36.95-38.52l77.95-128.65c23.94-39.44 67.48-63.94 113.61-63.94h156.8c5.59-23.47 8.64-47.92 8.64-73.1 0-7.55-.36-15.01-.88-22.43Z"></path><path d="m357 455.84-77.95 128.65c-8.73 14.39-20.1 26.76-33.22 36.71 18.25 4.06 37.09 6.54 56.39 7.28l44.47-73.26c24.76-40.78 69.78-66.12 117.49-66.12h111.59c18.85-28.15 33.24-59.52 42.25-93.1H463.34c-43.18 0-83.93 22.93-106.34 59.84ZM272.18 268.84l80.04-131.95c23.94-39.44 67.48-63.94 113.61-63.94h49.88C479.55 42.76 436.5 20.59 389.28 9.04c-11.73 9.13-21.91 20.34-29.79 33.32l-77.95 128.65c-23.94 39.44-67.48 63.94-113.61 63.94H10.14C3.54 260.33 0 286.95 0 314.39c0 5.4.14 10.76.41 16.09h162.23c44.48 0 86.45-23.62 109.54-61.64Z"></path><path d="m271.78 481.14 80.04-131.95c24.62-40.55 69.38-65.73 116.81-65.73h158.62c-3.25-33.23-11.69-64.93-24.47-94.31H465.93c-44.12 0-85.75 23.43-108.65 61.14l-76.65 126.29c-24.44 40.24-68.85 65.23-115.93 65.23H26.99c16.65 37.5 40.41 71.12 69.59 99.17h68.86c43.18 0 83.93-22.93 106.34-59.84ZM277.31 62.81 315.43.03c-.35 0-.69-.03-1.04-.03-102.43 0-193.4 49.01-250.8 124.84h103.49c44.76 0 86.99-23.77 110.22-62.03ZM353.96 559.63l-41.94 69.09c.79 0 1.58.06 2.37.06 105.25 0 198.35-51.77 255.41-131.18H464.18c-44.76 0-86.99 23.77-110.22 62.03Z"></path><path d="m274.27 166.6 77.95-128.64c7.22-11.9 16.26-22.41 26.58-31.33C361.43 3.01 343.52.9 325.23.27l-40.65 66.95c-24.76 40.78-69.78 66.12-117.49 66.12H57.44c-19.77 28.01-35.07 59.38-44.88 93.1h155.37c43.18 0 83.93-22.93 106.34-59.84Z"></path></svg>