<svg xmlns="http://www.w3.org/2000/svg" id="a" width="642" viewBox="0 0 642 642" height="642" data-name="Layer 1"><defs></defs><path d="M126.48 642 0 320.91V642h126.48zM0 238.73v12.12L154.08 642h124.48L29.26 292.33A251.57 251.57 0 0 1 0 238.73M306.86 642 23.73 245.08A226.253 226.253 0 0 1 0 203.85v-5.24c9.51 19.73 22.07 37.6 37.39 52.91L390.5 604.61c15.31 15.28 33.16 27.91 52.88 37.4H306.87ZM515.52 0 642 321.09V0H515.52zM642 403.27v-12.12L487.92 0H363.44l249.31 349.67c11.8 16.5 21.67 34.48 29.26 53.61M335.14 0l283.13 396.92c9.28 12.8 17.26 26.61 23.73 41.23v5.24c-9.51-19.73-22.07-37.6-37.39-52.91L251.5 37.4C236.19 22.12 218.34 9.49 198.62 0h136.51ZM605.8 431.03c48.26 48.26 48.26 126.51 0 174.78-48.26 48.26-126.51 48.26-174.78 0L36.2 210.97c-48.26-48.26-48.26-126.51 0-174.78s126.51-48.26 174.78 0l394.83 394.83Z" class="b"></path></svg>