<svg xmlns="http://www.w3.org/2000/svg" width="607.7" viewBox="0 0 607.7 626" height="626" xml:space="preserve"><path d="M596.7 395.1h-70.6c-.5 0-1-.4-1-1v-66.3c0-9.2-10.8-14.1-17.8-8.1L310 490.9c-.4.3-.9.3-1.3 0L19.6 228.4C12 221.6 0 226.9 0 237.1v140.6c0 8.4 3.6 16.5 9.8 22.2l210.7 191.3c50.6 46 127.7 46.7 179.2 1.7l204.2-178.3c7.7-6.9 3-19.5-7.2-19.5z"></path><circle cx="310.8" cy="311.9" r="122.7"></circle><path d="M31.7 228.6h73.6v66.7c0 8.3 9.9 12.7 16.1 7.2L312.2 131l188.9 174.1c5 4.6 11.6 7.2 18.5 7.2h74.1c7.8 0 14.1-6.3 14.1-14.1v-67.7c0-5.5-2.3-10.7-6.4-14.4L400.8 34.9C350.3-11 273.5-11.7 222.1 33.2l-197.5 177c-7.2 6.4-2.6 18.4 7.1 18.4z"></path></svg>