<svg id="Layer_1" data-name="Layer 1" xmlns="http://www.w3.org/2000/svg" viewBox="0 0 591.1 589.23">   <path d="M541.75,459.04c31.16-46.83,49.35-103.03,49.35-163.49H0c0,60.39,18.15,116.53,49.24,163.32l193.35-118.95L91.65,509.38c45.56,43.46,104.95,72.51,170.93,79.84l32.98-224.58,32.98,224.58c65.91-7.32,125.24-36.32,170.78-79.7l-150.83-169.57,193.27,119.09Z"></path>   <path d="M340.22,3.36c-14.57-2.21-29.48-3.36-44.67-3.36s-30.1,1.15-44.67,3.36l44.67,234.82L340.22,3.36Z"></path>   <path d="M100.51,73.59c-22.42,19.72-41.87,42.72-57.49,68.35l208.59,116.74L100.51,73.59Z"></path>   <path d="M548.37,142.4c-15.57-25.65-34.99-48.7-57.37-68.45l-151.44,184.81,208.81-116.35Z"></path> </svg>