<svg id="Layer_1" data-name="Layer 1" xmlns="http://www.w3.org/2000/svg" viewBox="0 0 602.71 631.56">   <circle cx="301.35" cy="315.78" r="107.44"></circle>   <path d="M478.6,315.78c0-23.79,12.31-45.11,32.91-57l91.2-52.65-18.57-32.16-91.2,52.65c-32.23,18.61-51.47,51.94-51.47,89.16s19.24,70.55,51.47,89.16l91.2,52.66,18.56-32.15-91.19-52.66c-20.61-11.9-32.91-33.21-32.91-57.01Z"></path>   <path d="M371.45,437.08c-32.23,18.61-51.47,51.95-51.47,89.17v105.31h37.15v-105.31c-.02-23.79,12.28-45.11,32.89-57.01,20.61-11.9,45.21-11.9,65.83,0l91.2,52.63,18.57-32.16-91.21-52.64c-32.23-18.61-70.73-18.61-102.95,.02Z"></path>   <path d="M231.39,437.11c-32.24-18.6-70.73-18.59-102.96,.03l-91.18,52.68,18.57,32.16,91.19-52.69c20.62-11.91,45.22-11.9,65.83-.02,20.61,11.89,32.92,33.2,32.92,57l.03,105.29h37.14l-.03-105.3c-.01-37.22-19.26-70.55-51.5-89.15Z"></path>   <path d="M161.31,315.85c-.02-37.22-19.28-70.55-51.52-89.14L18.57,174.08,0,206.24l91.23,52.63c20.62,11.89,32.93,33.2,32.95,56.99,.01,23.8-12.28,45.11-32.89,57.02L.14,425.56l18.57,32.16,91.17-52.69c32.23-18.63,51.46-51.97,51.44-89.19Z"></path>   <path d="M179.75,208.49c17.7,0,35.4-4.66,51.53-13.99,32.22-18.63,51.44-51.97,51.42-89.19l-.06-105.31h-37.14l.06,105.34c.02,23.8-12.27,45.11-32.87,57.02-20.61,11.91-45.21,11.93-65.83,.04L55.67,109.82l-18.57,32.16,91.22,52.59c16.1,9.28,33.76,13.93,51.43,13.93Z"></path>   <path d="M371.34,194.42c16.1,9.28,33.76,13.92,51.42,13.92s35.41-4.67,51.54-14l91.17-52.73-18.57-32.16-91.19,52.74c-20.6,11.91-45.21,11.93-65.82,.05-20.62-11.88-32.93-33.18-32.95-56.98l-.08-105.26h-37.14l.08,105.29c.03,37.22,19.3,70.54,51.54,89.12Z"></path> </svg>