<svg xmlns="http://www.w3.org/2000/svg" width="448" viewBox="0 0 448 598.2" height="598.2" xml:space="preserve" style="enable-background:new 0 0 448 598.2"><path d="m57.7 193.4 58.8-77.3h215.4l58.4 77.3H57.7m71-101.9V24.6h190.5v66.9H128.7M364.6 0H83.4L64.5 24.6h39.6v67l-55.3 72.7-25.5-54.9c-2.1-4.5-6.5-7.1-11.1-7.1-1.7 0-3.5.4-5.2 1.1-6.1 2.9-8.8 10.2-6 16.3l32 68.8v409.6h84.6c65.4 0 118.6-53.2 118.6-118.6v-67.2L224 400.2l-12.3 12.3v67.2c0 51.8-42.2 94-94 94h-60V217.9h332.7v355.8h-154v24.6h178.4V188.6l32-68.8c2.9-6.1.2-13.4-6-16.3-1.7-.8-3.4-1.1-5.2-1.1-4.6 0-9.1 2.6-11.1 7.1L399 164.3l-55.3-73.2V24.6h39.6L364.6 0"></path><path d="M118.9 310.9c-9.8 0-19.6 3.7-27 11.2-14.9 14.9-14.9 39.2 0 54.1l8 8-8 8c-14.9 14.9-14.9 39.2 0 54.1 7.5 7.5 17.3 11.2 27 11.2 9.8 0 19.6-3.7 27-11.2l62.1-62.1-62.1-62.1c-7.4-7.4-17.2-11.2-27-11.2M329.1 310.9c-9.8 0-19.6 3.7-27 11.2L240 384.2l62.1 62.1c7.5 7.5 17.3 11.2 27 11.2 9.8 0 19.6-3.7 27-11.2 14.9-14.9 14.9-39.2 0-54.1l-8-8 8-8c14.9-14.9 14.9-39.2 0-54.1-7.4-7.4-17.2-11.2-27-11.2M259 240.9c-9.8 0-19.6 3.7-27 11.2l-8 8-8-8c-7.5-7.5-17.3-11.2-27-11.2-9.8 0-19.6 3.7-27 11.2-14.9 14.9-14.9 39.2 0 54.1l62.1 62.1 62.1-62.1c14.9-14.9 14.9-39.2 0-54.1-7.6-7.5-17.4-11.2-27.2-11.2"></path></svg>