<svg data-name="Layer 1" xmlns="http://www.w3.org/2000/svg" viewBox="0 0 602.63 370.66"><path d="M602.63 177.98c0-37.72-30.57-68.29-68.29-68.29s-68.29 30.57-68.29 68.29c0 9.58 1.99 18.69 5.55 26.97-39.53-40.54-93.41-66.46-153.2-70.64 13.43-3.48 25.94-11.01 35.45-22.52 24.02-29.07 19.93-72.12-9.14-96.14-29.07-24.02-72.12-19.93-96.14 9.15-24.02 29.07-19.93 72.12 9.15 96.14 7.95 6.57 16.96 10.96 26.33 13.39-59.73 4.22-113.53 30.12-153.02 70.63 3.56-8.28 5.55-17.39 5.55-26.97 0-37.72-30.57-68.29-68.29-68.29S0 140.27 0 177.98s30.57 68.29 68.29 68.29c14.21 0 27.4-4.35 38.33-11.78-20.26 29.01-34.29 62.97-40.04 100.23-2.62 17.02 9.04 32.94 26.06 35.56 17.03 2.63 32.94-9.05 35.56-26.06 2.02-13.1 5.52-25.7 10.31-37.64l51.97 51.98c8.06 8.06 18.63 12.09 29.19 12.09s21.13-4.03 29.19-12.09c6.56-6.56 10.4-14.78 11.63-23.31 2.86 20 20.02 35.4 40.82 35.4s37.95-15.39 40.82-35.4c1.22 8.53 5.07 16.75 11.63 23.31 8.06 8.06 18.62 12.09 29.19 12.09s21.13-4.03 29.19-12.09l51.98-51.98c4.78 11.94 8.29 24.54 10.31 37.64 2.37 15.41 15.65 26.43 30.77 26.43 1.58 0 3.18-.12 4.79-.37 17.02-2.62 28.69-18.55 26.06-35.56-5.75-37.26-19.78-71.23-40.04-100.23 10.93 7.43 24.12 11.77 38.33 11.77 37.72 0 68.29-30.57 68.29-68.29Zm-415.32 60.64c20.76-17.84 45.64-30.88 72.72-37.55v119.69c-1.6-7.54-5.3-14.72-11.16-20.57l-61.56-61.57Zm166.44 61.57c-5.85 5.85-9.55 13.03-11.16 20.57V201.07c27.07 6.68 51.95 19.72 72.72 37.55l-61.56 61.57Z"></path></svg>