<svg xmlns="http://www.w3.org/2000/svg" width="612.2" viewBox="0 0 612.2 605.5" height="605.5" xml:space="preserve"><path d="M469.1 389.1h61.8v207.8h-61.8zM550.4 389.1h61.8v207.8h-61.8zM461.7 164.1l-83.3 48.5c2.2-.1 4.5-.2 6.7-.2 87.3 0 159 69.3 164.9 156.8h61.9c-4.6-94.7-65.9-174.5-150.2-205.1z"></path><path d="M385.1 231.9c-22.7 0-44.2 5.3-63.4 14.8l30.8 53.8c10-4.4 21-6.8 32.6-6.8 42.5 0 77.7 32.9 83.1 75.4h62.2c-5.8-76.6-68.7-137.2-145.3-137.2zM278.668 175.403 457.833 70.132l31.308 53.284-179.165 105.271zM237.475 105.305 416.64.034l31.308 53.283L268.783 158.59zM203.8 396.3l-3.6-5.7C156 315.3 179.4 218.4 251.9 169l-31.4-53.4c-79.3 52-117 145.2-100.8 233.4l84.1 47.3z"></path><path d="m293.3 239.5-31.5-53.6c-63.2 43.8-83.5 128.8-44.7 194.8 11.5 19.6 27 35.4 44.9 47.2l30.8-53.9c-8.9-6.4-16.5-14.7-22.4-24.6-21.6-36.7-11-83.7 22.9-109.9zM40.191 397.38l30.585-53.698 180.558 102.84-30.585 53.698zM.01 468.044l30.59-53.698 180.558 102.861-30.591 53.698zM446.5 461c-43.2 75.9-139 103.8-217.8 65.6L198 580.5c84.5 42.8 184.2 29 252.6-29l-.9-96.4c-1 1.9-2.1 3.9-3.2 5.9z"></path><path d="M429.5 451.3c11.2-19.7 17.3-41.1 18.5-62.4l-62 .2c-1.2 10.9-4.5 21.6-10.2 31.7-21 36.9-67 51.2-106.7 34.9l-30.8 54c69.5 32.9 153.3 8.2 191.2-58.4z"></path></svg>