<svg xmlns="http://www.w3.org/2000/svg" width="642" viewBox="0 0 642 642" height="642" style="overflow:visible;enable-background:new 0 0 642 642" xml:space="preserve"><path d="m570.4 372 68.4-6c2.1-14.7 3.2-29.8 3.2-45.1 0-6.7-.3-13.3-.7-19.9l-70.9 71z"></path><path d="M615.4 446.2c-23.9 0-43.7 17.7-46.8 40.8l-116.8-38v85.5h-17.7V449l-116.7 38c-3.1-23-22.9-40.8-46.8-40.8-.6 0-1.2 0-1.8.1 3.1-8.3 4.8-17.3 4.8-26.7 0-20.5-8-39.2-21.1-53l63 5.5-71.3-71.3c18.1-11 30.2-30.9 30.2-53.5v-.6c7.7 5.5 17.1 8.7 27.3 8.7 9.7 0 18.7-2.9 26.2-7.9l34.8 41.5v-90.6c34.4-8.9 63.2-31.7 80.2-61.9 17 30.2 45.8 53 80.2 61.9V289l34.8-41.5c7.5 5 16.5 7.9 26.2 7.9 10.1 0 19.6-3.2 27.3-8.7v.6c0 22.5 11.9 42.2 29.8 53.2C630.6 132.7 491.4 0 321 0 143.7 0 0 143.7 0 321s143.7 321 321 321c132.8 0 246.8-80.7 295.6-195.7-.4-.1-.8-.1-1.2-.1z"></path></svg>