<svg id="Layer_1" data-name="Layer 1" xmlns="http://www.w3.org/2000/svg" viewBox="0 0 594.68 594.68"><defs></defs><path class="cls-1" d="M0 0v96.89C38.74 61.84 83.11 29.05 131.31 0H0ZM314.71 0c-40.15 14.43-80.88 33.23-120.34 55.95C113.87 102.31 45.4 160.45 0 220.73v264.86c27.83 19.8 70.27 36.11 134.38 34.8 83.81-1.68 186.48-34.09 281.69-88.91 71.7-41.29 133.8-91.93 178.62-145.1V0H314.71Zm54.93 346.88C220.32 429.94 68.37 441.73 30.25 373.2-7.86 304.68 82.29 181.8 231.61 98.73 380.94 15.67 532.89 3.89 571 72.41c38.12 68.52-52.03 191.41-201.36 274.47Z"></path><path class="cls-1" d="M186.72 42.67c28.2-16.24 57.07-30.48 85.95-42.67H161.71C101.19 34.14 46.11 74.31 0 117.66v78.33C46.26 139.7 111.38 86.06 186.72 42.67ZM369.84 594.68h224.84v-130.9c-37.86 30.36-79.88 58.53-124.74 83.38-32.79 18.16-66.4 34.02-100.1 47.52ZM423.72 444.76c-97.38 56.07-202.72 89.22-289.03 90.95-2.48.05-4.94.07-7.37.07-57.7 0-98.57-13.89-127.32-31.77v90.67h326.06c45.71-15.77 91.84-36.21 136.46-60.93 47.96-26.57 92.54-57 132.16-89.79V309.68c-44.8 49.58-103.81 96.4-170.97 135.08Z"></path></svg>