<svg xmlns="http://www.w3.org/2000/svg" id="a" width="631.6" viewBox="0 0 631.6 642" height="642" data-name="Layer 1"><defs></defs><path d="m212.95 13.67 21.83 67.09-142.2 401H0v-44.62h62.85l150.1-423.47z" class="b"></path><path d="m239.02 93.67 21.76 67.09-97.97 276.38h-24.2l19.32 13.74-29.85 84.29H0v-44.62h98.29L239.02 93.67z" class="b"></path><path d="m164.99 455.88 36.41 25.94-37.88 106.77H0v-44.62h133.73l31.26-88.09zM265.02 173.73l21.83 67.08-69.6 196.33h-45.64l93.41-263.41z" class="b"></path><path d="m208.39 486.83 38.27 27.22L205.05 642H0v-44.62h169.23l39.16-110.55zM291.08 253.72l20.1 61.76-39.55 121.66h-45.58l65.03-183.42zM315.8 563.23 426.48 642H205.05l110.75-78.77zM631.6 437.14V642H426.48l-41.54-127.95 108.05-76.91H359.97L217.83 0h208.78l142.14 437.14h62.85z" class="b"></path></svg>