<svg xmlns="http://www.w3.org/2000/svg" width="469.4" viewBox="0 0 469.4 627" height="627" xml:space="preserve" style="enable-background:new 0 0 469.4 627"><path d="M469.4 432.2V308.7c0-85-68.9-153.8-153.8-153.8H158.8v162.6c0 73.7 59.7 133.4 133.4 133.4h118.5v99.4c-.6 10.1-8.9 18-19.2 18-10.6 0-19.2-8.6-19.2-19.2 0-9.8 7.3-17.8 16.7-19v-58.8c-41.9 1.3-75.4 35.7-75.4 77.8 0 43 34.9 77.9 77.9 77.9s77.9-34.9 77.9-77.9V439.7H314.1v-68.8c0-.1 110.5 44.2 155.3 61.3zM392 289.9c11.2 0 20.2 9.1 20.2 20.2 0 11.2-9 20.2-20.2 20.2s-20.2-9-20.2-20.2c0-11.1 9-20.2 20.2-20.2z"></path><path d="M292.2 471.8c-85.1 0-154.4-69.2-154.4-154.4l-.7-161.7C60 164.1 0 229.4 0 308.7v317.6h137.8V473.9c0-1.6 1.3-3 3-3h15c1.6 0 3 1.3 3 3v152.3h138.1V471.8h-4.7zM335.3 0l-33.5 62.6h-44.4V0h-54.1v62.6h-44.4L125.4 0H69.2l70 131.2h185.2L391.5 0z"></path></svg>