<svg xmlns="http://www.w3.org/2000/svg" width="567.4" viewBox="0 0 567.4 469.9" height="469.9"><path d="M526.2 169.8h0zM14.6 425.1h315.7c1.3-3.8 2.7-7.6 4-11.2H18.6c-1.3 3.6-2.7 7.4-4 11.2zM.6 468l-.6 1.8h315.7l.6-1.8c.6-2.1 1.3-4.1 1.9-6.1H2.5c-.7 2-1.3 4.1-1.9 6.1zM30.5 382.4h315.7c2.4-6 4.8-11.9 7.2-17.5H37.7c-2.4 5.6-4.8 11.5-7.2 17.5zM477.6 305.4h-95.8c-1.9 3.6-3.9 7.2-5.8 11H60.3c-3.8 7.4-7.7 15.3-11.5 23.5h490.9c-25.5-1.9-47.9-15-62.1-34.5zM462.9 271.7h-61.2c.9-1.5 1.9-3 2.8-4.4H88.7c-5.9 9-11.9 18.8-17.9 29.6h401.4c-4.4-7.7-7.6-16.2-9.3-25.2zM546 233.7c-11.8 0-21.4 9.6-21.4 21.4 0 11.8 9.6 21.4 21.4 21.4 11.8 0 21.4-9.6 21.4-21.4 0-11.8-9.6-21.4-21.4-21.4zM546 0H229.1c-27.6 0-52.2 13.3-67.5 33.9h316.9C493.8 13.3 518.4 0 546 0zM473.6 41.2H156.7c-4.8 8-8.2 16.8-10.1 26.2h316.9c1.9-9.4 5.4-18.2 10.1-26.2zM463.6 101.2c-1.1-5.5-1.7-11.2-1.7-17h-317c0 5.8.6 11.5 1.7 17h317zM156.7 127.1c1.8 3 3.7 5.8 5.8 8.5h316.9c-2.1-2.7-4-5.6-5.8-8.5H156.7zM524.6 84.1c0 11.8 9.6 21.4 21.4 21.4 11.8 0 21.4-9.6 21.4-21.4 0-11.8-9.6-21.4-21.4-21.4-11.8 0-21.4 9.6-21.4 21.4zM463.3 237h-36.9c5.2-6.5 10.4-12.3 15.4-17.6H126.1c-9.3 9.8-19.1 21.6-29.1 35.8h364.3c0-6.3.7-12.3 2-18.2zM479.1 203.6h-20.8c35.6-31.1 62.2-33.6 67.9-33.8H211.6h-1.2c-6.3.2-37.1 3.1-77.4 42.6h340.1c1.8-3.1 3.8-6 6-8.8z"></path></svg>