<svg xmlns="http://www.w3.org/2000/svg" width="616.4" viewBox="0 0 616.4 616.4" height="616.4" style="enable-background:new 0 0 616.4 616.4" xml:space="preserve"><path d="M0 0v616.4h616.4V0H0zm319.3 14.7c72.8 2.7 138.7 31.8 188.6 78.1L319.3 281.5V14.7zm-22.2 266.8L108.5 92.8c49.9-46.3 115.9-75.4 188.6-78.1v266.8zm-15.6 37.8L92.8 507.9C46.5 458 17.4 392 14.7 319.3h266.8zM14.7 297.1c2.7-72.8 31.8-138.7 78.1-188.6l188.6 188.6H14.7zM297.1 335v266.8c-72.8-2.7-138.7-31.8-188.6-78.1L297.1 335zm37.9-37.9 188.6-188.6c46.3 49.9 75.4 115.9 78.1 188.6H335zm266.7 22.2c-2.7 72.8-31.8 138.7-78.1 188.6L335 319.3h266.7zM308.2 602c.1 0 0 0 0 0zm11.1-267 188.6 188.6C458 569.9 392.1 599 319.3 601.7V335zm196.6 181c.1 0 .1 0 0 0z"></path></svg>