<svg data-name="Layer 1" xmlns="http://www.w3.org/2000/svg" viewBox="0 0 599.5 613.94"><path d="M314.09 43.12 285.41 0C127.8 0 0 127.8 0 285.41s127.8 285.41 285.41 285.41l28.68 43.12c157.61 0 285.41-127.8 285.41-285.41S471.71 43.12 314.09 43.12Zm0 529.42-28.68-43.12c-134.55 0-244.06-109.46-244.06-244.06S150.81 41.3 285.41 41.3l28.68 43.12c134.55 0 244.06 109.46 244.06 244.06S448.69 572.54 314.09 572.54Z"></path><path d="m314.09 126.07-28.68-43.12C173.63 82.95 83 173.59 83 285.36s90.64 202.41 202.41 202.41l28.68 43.12c111.78 0 202.41-90.64 202.41-202.41s-90.64-202.41-202.41-202.41Zm0 363.48-28.68-43.12c-88.81 0-161.06-72.25-161.06-161.06S196.6 124.3 285.41 124.3l28.68 43.12c88.81 0 161.06 72.25 161.06 161.06S402.9 489.54 314.09 489.54Z"></path><path d="m314.09 209.17-28.68-43.12c-65.89 0-119.37 53.42-119.37 119.37s53.43 119.37 119.37 119.37l28.68 43.12c65.89 0 119.37-53.43 119.37-119.37s-53.43-119.37-119.37-119.37Zm-29.67 154.21c-42.53-.54-76.98-35.29-76.98-77.92v-.05c0-42.68 34.45-77.38 76.98-77.92v155.89Zm30.7 43.03V250.57c42.53.54 76.98 35.29 76.98 77.92s-34.45 77.38-76.98 77.92Z"></path></svg>