<svg data-name="Layer 1" xmlns="http://www.w3.org/2000/svg" viewBox="0 0 624.39 354.91"><path d="M446.93 0c-53.92 0-102.21 24.07-134.75 62.03C279.63 24.08 231.37 0 177.45 0 79.45 0 0 79.45 0 177.45S79.45 354.9 177.45 354.9c53.92 0 102.19-24.08 134.73-62.04 32.55 37.96 80.82 62.04 134.75 62.04 98.01 0 177.45-79.45 177.45-177.45S544.94 0 446.93 0Zm0 284.05c-58.78 0-106.6-47.82-106.6-106.6 0-11.4 1.82-22.38 5.15-32.69H158.55l-1.06 65.39h121.44c-13.81 42.87-54.01 73.9-101.47 73.9-58.87 0-106.6-47.73-106.6-106.6s47.73-106.6 106.6-106.6c42.37 0 78.96 24.72 96.15 60.52h77.22c17.22-35.77 53.83-60.52 96.11-60.52 58.78 0 106.6 47.82 106.6 106.6s-47.82 106.6-106.6 106.6Z"></path><circle cx="446.93" cy="177.45" r="93.21"></circle></svg>