<svg data-name="Layer 1" xmlns="http://www.w3.org/2000/svg" viewBox="0 0 418.51 618.43"><path d="M418.42 53.39c-32.28-18.16-67.23-32.14-104.07-41.24-.52 3-.84 6.05-.84 9.24v197.49l-80.37-76.29 71.92-118.05c2.58-4.22 4.41-8.68 5.63-13.28C279.68 3.89 247.31 0 214.04 0c-3.85 0-7.65.05-11.45.14l-97.12 159.38L186.03 236l-73.66 118.7c-4.88 7.88-7.27 16.61-7.46 25.24V21.39c0-2.3-.19-4.6-.47-6.8C67.33 24.68 32.23 39.74 0 59.02v322.1c0 14.08 5.58 26.84 14.64 36.27l164.12 187.25c8.07 9.2 19.28 13.79 30.5 13.79s22.43-4.6 30.5-13.79l164.12-187.21c9.06-9.48 14.64-22.24 14.64-36.31V53.39h-.09Zm-130.2 466.98c-21.54-17.31-48.89-27.73-78.73-27.73s-57.48 10.51-79.06 28.01l-76.38-87.13c28.15-.84 50.72-23.79 50.86-52.13.09 16.66 8.45 32.89 23.65 42.27 8.21 5.11 17.36 7.55 26.37 7.55 16.75 0 33.12-8.4 42.6-23.69L313.51 220.6v160.51c0 28.43 22.66 51.52 50.86 52.41l-76.15 86.85Z"></path></svg>