<svg xmlns="http://www.w3.org/2000/svg" width="610.8" viewBox="0 0 610.8 610.6" height="610.6" xml:space="preserve" style="enable-background:new 0 0 610.8 610.6"><path d="M610.8 610.2C610.8 274.3 336.3 0 0 0v46.9c309.8 0 562.9 253.1 562.9 563.7l47.9-.4z" class="st0"></path><path d="M540.8 610.6C540.4 312.3 298.8 70.6.5 70v93.6c246.7.2 446.7 200 447.2 446.7l93.1.3z" class="st0"></path><path d="M423 609.8C422.9 376.4 233.9 187.2.5 186.9v39.4c211.4.6 382.5 172 382.7 383.5H423z" class="st0"></path><path d="M360.4 609.8c0-198.8-161.1-359.9-359.9-360V344c146.6-.2 265.7 118.6 265.8 265.2v.5h94.1z" class="st0"></path><path d="M242.4 609.8C242.6 476 134.3 367.4.6 367.2H.5v47.2c108 0 195.7 87.4 195.9 195.5h46z" class="st0"></path></svg>