<svg data-name="Layer 1" xmlns="http://www.w3.org/2000/svg" viewBox="0 0 514.56 618.88"><path d="M486.53 191.8h-83.25c-16.51 0-29.99 13.43-30.03 29.92l-.8 209.74c-.04 10.74-4.62 21.05-12.57 28.28L257.29 553.1 154.7 459.74c-7.95-7.23-12.53-17.54-12.57-28.28l-.8-209.7c-.05-16.51-13.52-29.95-30.03-29.95H28.04C12.56 191.81 0 204.36 0 219.85s12.55 28.04 28.04 28.04h57.31l.7 183.79c.1 26.41 11.36 51.76 30.9 69.54L238.02 611.4c5.46 5 12.33 7.51 19.22 7.51s13.72-2.48 19.24-7.46l121.13-110.23c19.54-17.78 30.8-43.12 30.9-69.53l.7-183.79h57.31c15.48 0 28.04-12.55 28.04-28.04s-12.55-28.04-28.04-28.04ZM173.42 187.2h164.33c19.23 0 34.88-15.65 34.88-34.88V28.04C372.63 12.56 360.08 0 344.59 0s-28.04 12.55-28.04 28.04v103.09H194.6V28.04C194.6 12.56 182.05 0 166.56 0s-28.04 12.55-28.04 28.04v124.28c0 19.23 15.65 34.88 34.88 34.88Z"></path><circle cx="200.06" cy="247.87" r="28.04"></circle><circle cx="314.5" cy="247.87" r="28.04"></circle></svg>