<svg data-name="Layer 1" xmlns="http://www.w3.org/2000/svg" viewBox="0 0 615.99 600.42"><circle cx="242.33" cy="153.1" r="52.01" transform="rotate(-9.22 242.23877492 153.03176013)"></circle><path d="M175.09 0 6.57 299.04c-8.9 15.81-8.74 35.36.41 51.02s26.1 25.39 44.24 25.39h38.13c3.34 124.21 106.7 224.97 231.18 224.97h295.46V0h-440.9Zm145.43 525.26c-86.08 0-156.1-70.03-156.1-156.1v-68.87H92.14L219.01 75.16h134.91L227.75 299.04c-8.9 15.81-8.74 35.36.41 51.02s26.1 25.39 44.24 25.39h38.13c1.49 55.68 22.98 108.67 60.69 149.81h-50.7Zm220.3 0c-85.67-.48-155.22-70.32-155.22-156.1v-68.87h-72.28L440.19 75.16h100.63v450.1Z"></path><circle cx="463.52" cy="153.1" r="52.01" transform="rotate(-45 463.52298667 153.09249245)"></circle></svg>