<svg data-name="Layer 1" xmlns="http://www.w3.org/2000/svg" viewBox="0 0 483.39 620.6"><path d="M175.35 73.19c4.01 16.91 21.28 27.31 38.58 23.21 17.3-4.1 28.08-21.13 24.07-38.05-.42-1.75-1.66-5.03-1.66-5.03S228.06 27.83 191.1 0c-20.55 41.45-16.52 67.95-16.52 67.95s.36 3.49.77 5.24ZM268.93 96.3c17.28 4.17 34.6-6.14 38.68-23.04.42-1.75.8-5.24.8-5.24S312.56 41.54 292.19 0c-37.08 27.67-45.48 53.12-45.48 53.12s-1.26 3.27-1.68 5.02c-4.08 16.9 6.62 33.98 23.9 38.15ZM415.44 174.57s-3.49.36-5.24.77c-16.91 4.01-27.31 21.28-23.21 38.58 4.1 17.3 21.13 28.08 38.05 24.07 1.75-.42 5.03-1.66 5.03-1.66s25.49-8.28 53.32-45.24c-41.45-20.55-67.95-16.52-67.95-16.52ZM430.27 246.71s-3.27-1.26-5.02-1.68c-16.9-4.08-33.98 6.62-38.15 23.9-4.17 17.28 6.14 34.6 23.04 38.68 1.75.42 5.24.8 5.24.8s26.48 4.15 68.02-16.22c-27.67-37.08-53.12-45.48-53.12-45.48ZM67.95 308.82s3.49-.36 5.24-.77c16.91-4.01 27.31-21.28 23.21-38.58s-21.13-28.08-38.05-24.07c-1.75.42-5.03 1.66-5.03 1.66S27.83 255.34 0 292.3c41.45 20.55 67.95 16.52 67.95 16.52ZM53.12 236.68s3.27 1.26 5.02 1.68c16.9 4.08 33.98-6.62 38.15-23.9 4.17-17.28-6.14-34.6-23.04-38.68-1.75-.42-5.24-.8-5.24-.8S41.53 170.83-.01 191.2c27.67 37.08 53.12 45.48 53.12 45.48ZM71.38 166.3s2.72 2.21 4.25 3.16c14.79 9.13 34.35 4.26 43.69-10.87 9.34-15.13 4.91-34.79-9.88-43.92-1.53-.95-4.73-2.39-4.73-2.39s-23.88-12.17-69.69-5.71c14.78 43.84 36.36 59.73 36.36 59.73ZM114.27 109.55c9.06 14.83 28.71 19.34 43.88 10.08 15.17-9.27 20.12-28.81 11.06-43.64-.94-1.54-3.14-4.27-3.14-4.27s-15.79-21.66-59.57-36.63c-6.66 45.79 5.4 69.72 5.4 69.72s1.42 3.2 2.36 4.74ZM324.8 119.32c15.13 9.34 34.79 4.91 43.92-9.88.95-1.53 2.38-4.73 2.38-4.73s12.17-23.88 5.71-69.69c-43.84 14.78-59.73 36.36-59.73 36.36s-2.21 2.72-3.16 4.25c-9.13 14.79-4.26 34.35 10.87 43.69ZM373.84 114.27c-14.83 9.06-19.34 28.71-10.08 43.88s28.81 20.12 43.64 11.06c1.54-.94 4.27-3.14 4.27-3.14s21.66-15.79 36.63-59.57c-45.79-6.66-69.72 5.4-69.72 5.4s-3.2 1.42-4.74 2.36ZM412.01 317.09s-2.72-2.21-4.25-3.16c-14.79-9.13-34.35-4.26-43.69 10.87-9.34 15.13-4.91 34.79 9.88 43.92 1.53.95 4.73 2.38 4.73 2.38s23.88 12.17 69.69 5.71c-14.78-43.84-36.36-59.73-36.36-59.73ZM314.18 407.41c.94 1.54 3.14 4.27 3.14 4.27s15.79 21.66 59.57 36.63c6.66-45.79-5.4-69.72-5.4-69.72s-1.42-3.2-2.36-4.74c-9.06-14.83-28.71-19.34-43.88-10.08-15.17 9.27-20.12 28.81-11.06 43.64ZM114.67 373.95c-.95 1.53-2.39 4.73-2.39 4.73s-12.17 23.88-5.71 69.69c43.84-14.78 59.73-36.36 59.73-36.36s2.21-2.72 3.16-4.25c9.13-14.79 4.26-34.35-10.87-43.69-15.13-9.34-34.79-4.91-43.92 9.88ZM109.55 369.12c14.83-9.06 19.34-28.71 10.08-43.88-9.27-15.17-28.81-20.12-43.64-11.06-1.54.94-4.27 3.14-4.27 3.14s-21.66 15.79-36.63 59.57c45.79 6.66 69.72-5.4 69.72-5.4s3.2-1.42 4.74-2.36Z"></path><circle cx="241.69" cy="241.69" r="146.03"></circle><path d="M249.2 569.37V435.03c4.28 8.73 15.92 27.89 43.09 48.35 20.55-41.45 16.52-67.95 16.52-67.95s-.36-3.49-.77-5.24c-4.01-16.91-21.28-27.31-38.58-23.21-14.41 3.41-26.47 15.8-27.78 29.62-1.23-13.75-12.89-26.05-27.22-29.51-17.28-4.17-34.6 6.14-38.68 23.04-.42 1.75-.8 5.24-.8 5.24s-4.15 26.48 16.22 68.02c26.65-19.88 38.44-38.56 42.99-47.53v133.52c-20.86-56.71-75.35-97.16-139.3-97.16V620.6H388.5V472.22c-63.94 0-118.44 40.45-139.3 97.16Z"></path></svg>