<svg data-name="Layer 1" xmlns="http://www.w3.org/2000/svg" viewBox="0 0 618.45 618.45"><path d="M284.19 456.95h-67.58c-30.41 0-55.15-24.74-55.15-55.15V216.58c0-30.41 24.74-55.16 55.15-55.16h67.58V0H104.36C46.73 0 0 46.73 0 104.36v409.72c0 57.64 46.73 104.36 104.36 104.36h179.82v-161.5ZM514.08 0H334.25v161.43h67.58c30.41 0 55.16 24.74 55.16 55.16v185.22c0 30.41-24.74 55.15-55.16 55.15h-67.58v161.5h179.83c57.64 0 104.36-46.73 104.36-104.36V104.36C618.44 46.72 571.71 0 514.08 0Z"></path><path d="M211.53 242.76v132.82c0 17.29 14.01 31.3 31.3 31.3h132.83c17.26 0 31.26-14 31.26-31.26V242.8c0-17.29-14.02-31.3-31.3-31.3H242.8c-17.27 0-31.26 14-31.26 31.26Z"></path></svg>