<svg xmlns="http://www.w3.org/2000/svg" width="622.5" viewBox="0 0 622.5 622.5" height="622.5" xml:space="preserve"><path d="m158.1 415.5 21.6-21.3h431.7c2.9-10.7 5.3-21.6 7.1-32.7H212.9l21.6-21.3h386.7c.9-9.6 1.4-19.2 1.4-29v-3.7H261.3l-21.6-21.3h381.8c-.9-11.1-2.3-22-4.3-32.7H207.7l-21.6-21.3h426.3C577.5 98.7 455.9 0 311.3 0 176.5 0 61.8 85.6 18.5 205.4h339.9l21.6 21.3H11.6c-3 10.7-5.4 21.6-7.3 32.7h407.1l21.6 21.3H1.5C.5 290.8 0 301 0 311.3v2h459.3l-20.7 21.3H.9c.8 11.1 2.2 22 4.2 32.7H407l-20.7 21.3H9.7c34.4 134.5 156.4 234 301.6 234 135.3 0 250.5-86.4 293.4-207H158.1z"></path></svg>