<svg data-name="Layer 1" xmlns="http://www.w3.org/2000/svg" viewBox="0 0 608.17 608.16"><path d="M592.02 224.25c8.92 0 16.15-7.23 16.15-16.15s-7.23-16.15-16.15-16.15-16.15 7.23-16.15 16.15 7.23 16.15 16.15 16.15ZM496.04 224.25c8.92 0 16.15-7.23 16.15-16.15s-7.23-16.15-16.15-16.15-16.15 7.23-16.15 16.15 7.23 16.15 16.15 16.15Z"></path><circle cx="400.06" cy="208.1" r="16.15"></circle><circle cx="304.08" cy="208.1" r="16.15"></circle><path d="M191.96 208.1c0 8.92 7.23 16.15 16.15 16.15s16.15-7.23 16.15-16.15-7.23-16.15-16.15-16.15-16.15 7.23-16.15 16.15ZM112.13 224.25c8.92 0 16.15-7.23 16.15-16.15s-7.23-16.15-16.15-16.15-16.15 7.23-16.15 16.15 7.23 16.15 16.15 16.15ZM16.15 191.96C7.23 191.96 0 199.19 0 208.11s7.23 16.15 16.15 16.15 16.15-7.23 16.15-16.15-7.23-16.15-16.15-16.15ZM496.04 128.27c8.92 0 16.15-7.23 16.15-16.15s-7.23-16.15-16.15-16.15-16.15 7.23-16.15 16.15 7.23 16.15 16.15 16.15ZM400.06 32.29c8.92 0 16.15-7.23 16.15-16.15S408.98 0 400.06 0s-16.15 7.23-16.15 16.15 7.23 16.15 16.15 16.15Z"></path><circle cx="400.06" cy="112.13" r="16.15"></circle><path d="M304.08 32.29c8.92 0 16.15-7.23 16.15-16.15S313 0 304.08 0s-16.15 7.23-16.15 16.15 7.23 16.15 16.15 16.15Z"></path><circle cx="304.08" cy="112.13" r="16.15"></circle><path d="M208.11 32.29c8.92 0 16.15-7.23 16.15-16.15S217.02 0 208.11 0s-16.15 7.23-16.15 16.15 7.23 16.15 16.15 16.15ZM208.11 128.27c8.92 0 16.15-7.23 16.15-16.15s-7.23-16.15-16.15-16.15-16.15 7.23-16.15 16.15 7.23 16.15 16.15 16.15ZM112.13 128.27c8.92 0 16.15-7.23 16.15-16.15s-7.23-16.15-16.15-16.15-16.15 7.23-16.15 16.15 7.23 16.15 16.15 16.15ZM592.02 287.93c-8.92 0-16.15 7.23-16.15 16.15s7.23 16.15 16.15 16.15 16.15-7.23 16.15-16.15-7.23-16.15-16.15-16.15ZM479.89 304.08c0 8.92 7.23 16.15 16.15 16.15s16.15-7.23 16.15-16.15-7.23-16.15-16.15-16.15-16.15 7.23-16.15 16.15ZM383.91 304.08c0 8.92 7.23 16.15 16.15 16.15s16.15-7.23 16.15-16.15-7.23-16.15-16.15-16.15-16.15 7.23-16.15 16.15ZM287.94 304.08c0 8.92 7.23 16.15 16.15 16.15s16.15-7.23 16.15-16.15-7.23-16.15-16.15-16.15-16.15 7.23-16.15 16.15ZM191.96 304.08c0 8.92 7.23 16.15 16.15 16.15s16.15-7.23 16.15-16.15-7.23-16.15-16.15-16.15-16.15 7.23-16.15 16.15ZM95.98 304.08c0 8.92 7.23 16.15 16.15 16.15s16.15-7.23 16.15-16.15-7.23-16.15-16.15-16.15-16.15 7.23-16.15 16.15ZM16.15 287.93C7.23 287.93 0 295.16 0 304.08s7.23 16.15 16.15 16.15S32.3 313 32.3 304.08s-7.23-16.15-16.15-16.15ZM592.02 383.91c-8.92 0-16.15 7.23-16.15 16.15s7.23 16.15 16.15 16.15 16.15-7.23 16.15-16.15-7.23-16.15-16.15-16.15ZM496.04 383.91c-8.92 0-16.15 7.23-16.15 16.15s7.23 16.15 16.15 16.15 16.15-7.23 16.15-16.15-7.23-16.15-16.15-16.15ZM416.21 400.06c0-8.92-7.23-16.15-16.15-16.15s-16.15 7.23-16.15 16.15 7.23 16.15 16.15 16.15 16.15-7.23 16.15-16.15ZM320.23 400.06c0-8.92-7.23-16.15-16.15-16.15s-16.15 7.23-16.15 16.15 7.23 16.15 16.15 16.15 16.15-7.23 16.15-16.15ZM224.25 400.06c0-8.92-7.23-16.15-16.15-16.15s-16.15 7.23-16.15 16.15 7.23 16.15 16.15 16.15 16.15-7.23 16.15-16.15ZM112.13 383.91c-8.92 0-16.15 7.23-16.15 16.15s7.23 16.15 16.15 16.15 16.15-7.23 16.15-16.15-7.23-16.15-16.15-16.15ZM16.15 383.91C7.23 383.91 0 391.14 0 400.06s7.23 16.15 16.15 16.15 16.15-7.23 16.15-16.15-7.23-16.15-16.15-16.15ZM496.04 479.89c-8.92 0-16.15 7.23-16.15 16.15s7.23 16.15 16.15 16.15 16.15-7.23 16.15-16.15-7.23-16.15-16.15-16.15Z"></path><circle cx="400.06" cy="496.04" r="16.15"></circle><circle cx="400.06" cy="592.02" r="16.15"></circle><circle cx="304.08" cy="496.04" r="16.15"></circle><circle cx="304.08" cy="592.02" r="16.15"></circle><path d="M208.11 512.19c8.92 0 16.15-7.23 16.15-16.15s-7.23-16.15-16.15-16.15-16.15 7.23-16.15 16.15 7.23 16.15 16.15 16.15ZM208.11 575.87c-8.92 0-16.15 7.23-16.15 16.15s7.23 16.15 16.15 16.15 16.15-7.23 16.15-16.15-7.23-16.15-16.15-16.15ZM112.13 479.89c-8.92 0-16.15 7.23-16.15 16.15s7.23 16.15 16.15 16.15 16.15-7.23 16.15-16.15-7.23-16.15-16.15-16.15ZM401.95 84.44c-7.23-3.23-14.64-6.1-22.22-8.61H228.44c-7.58 2.51-14.99 5.39-22.22 8.61h195.73ZM504.87 171.81H103.29c-1.87 2.83-3.7 5.7-5.45 8.61h412.49c-1.75-2.92-3.58-5.78-5.45-8.61ZM534.65 235.79H73.52c-.85 2.86-1.68 5.72-2.42 8.61h465.98c-.74-2.9-1.58-5.76-2.42-8.61ZM541.82 267.78H66.35c-.43 2.85-.76 5.73-1.09 8.61h477.66c-.33-2.88-.66-5.76-1.09-8.61ZM73.52 372.37h461.13c.84-2.86 1.68-5.72 2.42-8.61H71.09c.74 2.9 1.58 5.76 2.42 8.61ZM66.35 340.38h475.47c.43-2.85.76-5.73 1.09-8.61H65.25c.33 2.88.66 5.76 1.1 8.61ZM103.3 436.36h401.57c1.87-2.83 3.7-5.7 5.45-8.61H97.84c1.75 2.92 3.58 5.78 5.45 8.61ZM120.87 459.74c2.49 2.93 5.06 5.8 7.69 8.61h351.05c2.63-2.81 5.19-5.68 7.69-8.61H120.87ZM206.23 523.73c7.23 3.23 14.64 6.1 22.22 8.61h151.27c7.58-2.51 15-5.39 22.22-8.61H206.23ZM487.3 148.43c-2.49-2.93-5.06-5.8-7.69-8.61H128.55c-2.63 2.81-5.19 5.68-7.69 8.61H487.3Z"></path></svg>