<svg data-name="Layer 1" xmlns="http://www.w3.org/2000/svg" viewBox="0 0 613.42 491.09"><path d="M114.93 331.23v12.19c0 5.06 4.11 9.17 9.17 9.17h167.31v-30.53H124.09c-5.06 0-9.17 4.11-9.17 9.17ZM498.49 343.42v-12.19c0-5.06-4.11-9.17-9.17-9.17H322.01v30.53h167.31c5.06 0 9.17-4.11 9.17-9.17Z"></path><path d="M582.85 42.76S516.51 0 304.9 0 30.57 42.76 30.57 42.76 0 110.23 0 245.57s30.57 202.8 30.57 202.8 62.81 40.46 260.87 42.67V383.16H114.93c-16.89 0-30.53-13.68-30.53-30.53V322.1c0-16.89 13.68-30.57 30.57-30.57h176.47v-30.66H84.4V230.3h444.62v30.57H321.97v30.66h176.47c16.89 0 30.57 13.68 30.57 30.57v30.53c0 16.89-13.68 30.53-30.57 30.53H321.97v107.93c200.72-1.76 260.87-42.72 260.87-42.72s30.57-67.47 30.57-202.8-30.57-202.8-30.57-202.8Zm-53.83 95.78H124.09c-5.06 0-9.17 4.11-9.17 9.17v12.19c0 5.06 4.11 9.17 9.17 9.17h404.93v30.57H114.93c-16.89 0-30.53-13.68-30.53-30.53v-30.53c0-16.89 13.68-30.57 30.57-30.57h414.09v30.57l-.05-.05Z"></path></svg>