<svg id="Layer_1" data-name="Layer 1" xmlns="http://www.w3.org/2000/svg" viewBox="0 0 592.63 580.27">   <path d="M592.63,0H0V580.27H592.63m-42.68-165.67l-101.33,101.33-16.99,16.99-16.99-16.99-101.33-101.33V245.77l-16.99-16.99-16.99,16.99v168.82l-101.33,101.33-16.99,16.99-16.99-16.99-101.33-101.33V204.97l50.66-50.66,50.66,50.66v169.34l16.99,16.99,16.99-16.99V204.97h0s118.32-118.32,118.32-118.32l118.32,118.32h0v169.34l16.99,16.99,16.99-16.99V204.97l50.66-50.66,50.66,50.66v209.62Zm-50.66-261.31l-60.47-60.47,60.47-60.47,60.47,60.47-60.47,60.47Z"></path> </svg>