<svg xmlns="http://www.w3.org/2000/svg" width="618.3" viewBox="0 0 618.3 618.3" height="618.3" xml:space="preserve"><path d="M309.2 0C138.4 0 0 138.4 0 309.2c0 170.7 138.4 309.2 309.2 309.2 170.8 0 309.2-138.4 309.2-309.2C618.3 138.4 479.9 0 309.2 0zm0 615.6c-35.5 0-64.3-28.8-64.3-64.3s28.8-64.3 64.3-64.3 64.3 28.8 64.3 64.3c-.1 35.5-28.8 64.3-64.3 64.3zm0-160.3c-35.5 0-64.3-28.8-64.3-64.3s28.8-64.3 64.3-64.3 64.3 28.8 64.3 64.3c-.1 35.5-28.8 64.3-64.3 64.3zm64.2-354.9c0 11.7-3.2 22.7-8.7 32.1 5.5 9.5 8.7 20.4 8.7 32.1 0 19.2-8.4 36.3-21.7 48.1 13.3 11.8 21.7 28.9 21.7 48.1 0 35.5-28.8 64.3-64.3 64.3s-64.3-28.8-64.3-64.3c0-19.2 8.4-36.3 21.7-48.1-13.3-11.8-21.7-28.9-21.7-48.1 0-11.7 3.2-22.7 8.7-32.1-5.5-9.5-8.7-20.4-8.7-32.1 0-5.6.8-11.1 2.2-16.3-1.4-5.2-2.2-10.7-2.2-16.3 0-35.5 28.8-64.3 64.3-64.3s64.3 28.8 64.3 64.3c0 5.6-.8 11.1-2.2 16.3 1.4 5.2 2.2 10.7 2.2 16.3z"></path></svg>