<svg xmlns="http://www.w3.org/2000/svg" width="642" viewBox="0 0 642 593.9" height="593.9" style="overflow:visible;enable-background:new 0 0 642 593.9" xml:space="preserve"><path d="M548.1 0H359.5c-41.7 0-75.4 33.8-75.4 75.4v202.2L82 108c-4-3.4-6.6-8.5-6.6-14.2 0-10.1 8.3-18.4 18.5-18.4h146.8c20.8 0 37.7-16.9 37.7-37.7 0-20.8-16.9-37.7-37.7-37.7H96.4C44.9 0 1.1 40.3 0 91.8c-.6 29.7 12.5 56.4 33.5 74.1l250.6 210.3v180.9c0 20.4 16.5 36.9 36.9 36.9s36.9-16.5 36.9-36.9v-181l250.6-210.3c20.5-17.2 33.5-43 33.5-71.9C642 42.1 599.9 0 548.1 0zM560 108 358 277.6V91.5c0-8.9 7.2-16 16-16h173.2c9.1 0 17.5 6.2 19.1 15.2 1.2 6.9-1.5 13.3-6.3 17.3zM219.1 26.5c0 8.4-6.8 15.2-15.2 15.2-8.4 0-15.2-6.8-15.2-15.2s6.8-15.2 15.2-15.2c8.4-.1 15.2 6.8 15.2 15.2z"></path></svg>