<svg data-name="Layer 1" xmlns="http://www.w3.org/2000/svg" viewBox="0 0 602.27 604.09"><path d="M302.04 604.09C135.49 604.09 0 468.59 0 302.04S135.49 0 302.04 0c122.43 0 231.93 73.04 278.98 186.08 0 0 5.05 11.74 9.89 27.09h-462.9c-49.01 0-88.87 39.87-88.87 88.88s39.87 88.88 88.87 88.88h373.36c34.06 0 61.77-27.71 61.77-61.77s-27.71-61.77-61.77-61.77H128.01c-19.1 0-34.65 15.54-34.65 34.66s15.55 34.65 34.65 34.65h373.36c4.16 0 7.54-3.38 7.54-7.54s-3.39-7.54-7.54-7.54H128.01v-39.14h373.36c25.74 0 46.68 20.94 46.68 46.68s-20.94 46.68-46.68 46.68H128.01c-40.69 0-73.79-33.1-73.79-73.79s33.1-73.79 73.79-73.79h373.36c55.64 0 100.91 45.27 100.91 100.91 0 5.27-.41 10.44-1.19 15.49h.01C580.2 492.57 451.64 604.1 302.04 604.1ZM63.53 412.6c41.83 89.88 133.02 152.35 238.51 152.35 99.38 0 188.09-56.54 232.62-140.53-10.43 3.66-21.63 5.65-33.29 5.65H128.01c-23.5 0-45.54-6.36-64.48-17.46ZM302.04 39.14c-105.49 0-196.68 62.47-238.51 152.35 18.95-11.1 40.99-17.46 64.48-17.46h403.75C485.71 91.21 398.48 39.14 302.04 39.14Z"></path></svg>