<svg xmlns="http://www.w3.org/2000/svg" width="616.9" viewBox="0 0 616.9 621.6" height="621.6" xml:space="preserve"><path d="M306.5 0H114.1L0 113.4V508l105.3 113.6 201.3-.8c171.2 0 310.4-139.2 310.4-310.4S477.7 0 306.5 0zm246.2 227.4c-45.5-77-129.2-128.7-224.9-128.7H202.1v273.1h-52.3V50.5h156.8c114.2 0 211.4 74.2 246.1 176.9zm-179.4 83c0 33.8-27.5 61.4-61.4 61.4h-59.3V249.6H320c30 4 53.3 29.7 53.3 60.8zM99.3 86v336.3h212.6c61.7 0 111.9-50.2 111.9-111.9 0-4.6-.4-9.1-.9-13.5 12.8 18.1 20.5 40.2 20.5 64.1 0 61.4-49.9 111.3-111.3 111.3H50.5V134.4L99.3 86zm27.6 484.6-44.4-48H332c89.1 0 161.7-72.5 161.7-161.7 0-89.1-72.5-161.7-161.7-161.7l-79.4-.8v-49.3h75.2c116.1 0 210.5 94.4 210.5 210.5 0 49.3-17.4 97.3-49 135.1-.1.1-.1.2-.2.3-47 46.4-111.5 75.2-182.6 75.2l-179.6.4z"></path></svg>