<svg xmlns="http://www.w3.org/2000/svg" width="619.3" viewBox="0 0 619.3 619.3" height="619.3" xml:space="preserve"><path d="M0 0v619.3h619.3V0H0zm552.3 552.3H67V67h485.3v485.3z"></path><path d="M504.8 114.5H114.5v390.2h390.2V114.5zm-67 183.3c-5.6-61.5-54.7-110.6-116.2-116.3h116.2v116.3zm-66.5 11.8c0 34-27.7 61.7-61.7 61.7S248 343.6 248 309.6s27.7-61.7 61.7-61.7 61.6 27.7 61.6 61.7zm-73.5-128.1c-61.5 5.7-110.6 54.8-116.2 116.3V181.5h116.2zm-116.3 140c5.6 61.5 54.8 110.6 116.3 116.3H181.5V321.5zm140 116.3c61.5-5.6 110.6-54.8 116.3-116.3v116.3H321.5z"></path></svg>