<svg data-name="Layer 1" xmlns="http://www.w3.org/2000/svg" viewBox="0 0 612.51 496.91"><path d="M421.31 0c-41.1 0-74.53 33.43-74.53 74.53v191.19h115.59v81.06H346.78v115.59h-81.06V346.78H150.13v-81.06h115.59V74.53c0-41.1-33.43-74.53-74.53-74.53H0v191.19c0 41.1 33.44 74.53 74.53 74.53h41.06v115.59h115.59V496.9h150.13V381.31H496.9V265.72h41.06c41.1 0 74.53-33.44 74.53-74.53V0h-191.2ZM74.53 231.19c-22.05 0-40-17.94-40-40V34.54h156.66c22.05 0 40 17.94 40 40v156.65H74.53Zm503.44-40c0 22.05-17.94 40-40 40H381.31V74.53c0-22.05 17.94-40 40-40h156.66v156.66Z"></path></svg>