<svg xmlns="http://www.w3.org/2000/svg" width="617.2" viewBox="0 0 617.2 642" height="642" style="overflow:visible;enable-background:new 0 0 617.2 642" xml:space="preserve"><path d="M325.7 297.7c49.1.6 84.6-60.1 45.9-107.1-28.3-28-51.5-14-87.9-43.5C243.1 114.3 249 41.6 319.3 0c-81.8 17-122.4 36.5-143 49.3-85 53.1-17.4 158.1 55.4 127.5 97-44.5 154.7 64.5 94 120.9z"></path><path d="M308.7 292.2c40.1-28.4 33.1-98.3-25.9-113.6-39.3-6-49.9 18.9-96.7 16.5-52.1-2.7-90-65-57.6-140C72.4 116.8 51 156.5 41.9 179c-37.6 92.9 78.9 138.1 119.8 70.5 52.3-93 163-38.8 147 42.7z"></path><path d="M291.7 297.6c15.7-46.5-31-99-87.7-76.7-35.3 18.3-29.3 44.6-68.6 70.2-43.7 28.4-111 .3-128.8-79.4-9.1 83-3.1 127.7 2.7 151.2 24.2 97.3 145 65.4 138.4-13.3-12.3-106 109.1-127.3 144-52z"></path><path d="M281.2 312c-14.6-46.9-83.3-61.9-116.1-10.5-17.9 35.5 2.6 53.3-14.2 97.1C132.2 447.2 61.2 464 0 410c41.4 72.5 72.5 105.1 91.1 120.8 76.8 64.5 155.7-32.3 104.1-92.1-72.3-78.5 13.5-167.1 86-126.7z"></path><path d="M281.1 329.8c-39.4-29.3-103.8-1.1-100.1 59.7 6.4 39.2 33.4 41.6 45.5 86.9 13.5 50.4-34 105.7-115.3 98 76.1 34.3 120.4 42.4 144.7 44.2 100 7 107-117.7 30.1-135.7-104.6-21.1-87.3-143.2-4.9-153.1z"></path><path d="M291.5 344.3c-49.1-.6-84.6 60.1-45.9 107.1 28.3 28 51.5 14 87.9 43.5 40.5 32.8 34.6 105.5-35.7 147.1 81.8-17 122.4-36.5 143-49.3 85-53.1 17.4-158.1-55.4-127.5-96.9 44.5-154.7-64.5-93.9-120.9z"></path><path d="M308.5 349.8c-40.1 28.4-33.1 98.3 25.9 113.6 39.3 6 49.9-18.9 96.7-16.5 52.1 2.7 90 65 57.6 140 56.2-61.8 77.6-101.4 86.7-124 37.6-92.9-78.9-138.1-119.8-70.5-52.4 93.1-163.1 38.9-147.1-42.6z"></path><path d="M325.4 344.4c-15.7 46.5 31 99 87.7 76.7 35.3-18.3 29.3-44.6 68.6-70.2 43.7-28.4 111-.3 128.8 79.4 9.1-83 3.1-127.7-2.7-151.2-24.2-97.3-145-65.4-138.4 13.3 12.4 106-109 127.3-144 52z"></path><path d="M336 330c14.6 46.9 83.3 61.9 116.1 10.5 17.9-35.5-2.6-53.3 14.2-97.1C485 194.8 555.9 178 617.2 232c-41.4-72.5-72.5-105.1-91.1-120.8-76.8-64.5-155.7 32.3-104.1 92.1 72.3 78.5-13.5 167.1-86 126.7z"></path><path d="M336.1 312.2c39.4 29.3 103.8 1.1 100.1-59.7-6.4-39.2-33.4-41.6-45.5-86.9-13.5-50.4 34-105.7 115.3-98-76.1-34.3-120.4-42.4-144.7-44.2-100-7-107 117.7-30.1 135.7 104.6 21.1 87.2 143.2 4.9 153.1z"></path></svg>