<svg xmlns="http://www.w3.org/2000/svg" width="626.8" viewBox="0 0 626.8 465.3" height="465.3" xml:space="preserve" style="enable-background:new 0 0 626.8 465.3"><path d="M473.3 159.9c-1.7 0-3.4 0-5 .1.1-1.5.1-4.5.1-6.1 0-85-68.9-153.9-154-153.9-81.9 0-148.9 64-153.7 144.6 89.9 3.8 161.6 77.9 161.6 168.7h-15.4c0-82.4-64.9-149.6-146.4-153.3-1.1-.1-2.3-.1-3.5-.1h-3.6C68.9 159.9.4 228.2-.1 312.6c.5 84.4 69 152.7 153.6 152.7h319.9c84.8 0 153.5-68.7 153.5-153.5-.1-84.7-68.8-151.9-153.6-151.9z"></path></svg>