<svg xmlns="http://www.w3.org/2000/svg" viewBox="0 0 642 631.71"><path d="M564.99 209.53c22.18-26.49 24.98-64.34 7.04-93.81l-9.86 8.57c15.6 27.56 10.18 63.24-14.6 84.78-26.46 23-66.17 22.15-91.49-2.11l111.91-97.28c-24.28-33.65-71.94-43.06-107.87-20.54-1.96 1.23-4.38-.42-4.22-2.72 2.38-34.47-17.61-66.74-49.44-80.03l-2.94 12.74c28.82 13.13 45.41 45.17 38.02 77.17-7.89 34.16-40.52 56.81-75.26 52.07L399.63 3.88c-39.44-12.96-83.53 7.5-99.35 46.79-.83 2.07-3.73 2.32-4.91.43-18.31-29.39-53.51-43.81-87.14-35.84l5.11 12.03c31.03-6.32 63.29 9.86 76.12 40.08 13.7 32.28.61 69.78-30.28 86.36L201.24 17.24c-39.52 12.7-63.17 55.16-52.87 96.24.56 2.24-1.75 4.03-3.89 3.17-32.05-12.91-68.92-3.88-91.4 22.29l11.2 6.73c21.39-23.35 56.99-29.22 85.14-12.31 30.06 18.06 41.51 56.09 26.27 87.67l-127.1-76.37c-24.51 33.51-18.68 81.76 13.8 108.95 1.71 1.43 1.05 4.26-1.11 4.8-33.6 8.33-58.2 37.36-61.01 71.8l13.02-1.14c3.58-31.46 28.93-57.14 61.64-60.01 34.93-3.06 66.55 20.98 72.78 55.48L0 337.47c-.14 41.49 32.89 77.12 75.19 80.03 2.3.16 3.3 2.91 1.81 4.68-22.18 26.49-24.98 64.34-7.04 93.81l9.86-8.57c-15.6-27.56-10.18-63.24 14.6-84.78 26.46-23 66.17-22.15 91.49 2.11L74 522.03c24.29 33.67 71.98 43.03 107.87 20.54 1.96-1.23 4.38.42 4.22 2.72-2.38 34.47 17.61 66.74 49.44 80.03l2.94-12.74c-28.82-13.13-45.41-45.17-38.02-77.17 7.89-34.16 40.52-56.81 75.26-52.07l-33.35 144.48c39.49 12.98 83.55-7.54 99.35-46.79.83-2.07 3.73-2.32 4.91-.43 18.31 29.39 53.51 43.81 87.14 35.84l-5.11-12.03c-31.03 6.32-63.29-9.86-76.12-40.08-13.7-32.28-.61-69.78 30.28-86.36l57.94 136.49c39.58-12.71 63.15-55.2 52.87-96.24-.56-2.24 1.75-4.03 3.89-3.17 32.05 12.91 68.92 3.88 91.4-22.29l-11.2-6.73c-21.39 23.35-56.99 29.22-85.14 12.31-30.06-18.06-41.51-56.09-26.27-87.67l127.1 76.37c24.51-33.51 18.68-81.76-13.8-108.95-1.71-1.43-1.05-4.26 1.11-4.8 33.61-8.33 58.21-37.35 61.02-71.8l-13.02 1.14c-3.58 31.46-28.93 57.14-61.64 60.01-34.93 3.06-66.55-20.98-72.78-55.48L642 294.24c.14-41.49-32.89-77.12-75.19-80.03-2.3-.16-3.3-2.91-1.81-4.68Zm-15.12-101.16-102.24 88.87c-20.5-28.45-15.82-67.89 10.65-90.9 26.68-23.19 66.43-21.92 91.59 2.02ZM357.32 306.21c.17 5.67.31 7.21 1.12 12.83 3.67 19.78 15.7 36.18 32.01 46 36.22 21.78 35.27 75.12-1.1 95.3L341.4 347.43c-5.39 1.89-6.76 2.53-11.84 5.04-17.71 9.56-29.58 26.11-33.9 44.65-9.51 41.29-60.7 56.69-90.97 28.38l92.55-80.48c-3.43-4.48-4.44-5.69-8.41-9.73-14.59-13.85-34-20.03-52.92-18.38-42.4 3.71-72.62-40.37-55.08-77.78l105.12 63.19c3.21-4.68 4-6.04 6.6-11.05 8.69-18.15 8.59-38.5 1.18-56.01-16.67-39.13 15.81-81.52 56.91-76.46l-27.55 119.52c5.44 1.59 6.89 1.98 12.53 2.91 19.88 2.66 39.29-3.76 53.64-16.26 32.14-27.82 82.36-10.05 90.25 30.56l-122.18 10.69Zm123.31 2.14c-1.1 42.04-47.5 67.3-83.58 45.7-13.22-7.83-22.64-20.96-25.72-36.14l109.29-9.56Zm-172.48 91.74c3.28-14.18 12.31-27.7 26.47-35.73l42.83 101.02c-40.58 11.95-78.74-24.59-69.31-65.29Zm-102.53-57.15c21.21-18.34 52.98-17.88 73.43.81l-82.76 72c-15.7-22.8-12.05-54.2 9.34-72.81Zm-18.19-114.87c25.83-33.48 78.16-26.36 94.52 12.15 5.78 13.65 6.11 29.97-.45 44.38l-94.07-56.53Zm210.98-1.91c-6.05 26.19-31.04 45.57-59.88 42.47l24.71-106.93c26.02 9.29 41.55 36.82 35.18 64.46ZM308.93 65.67c7.95-34.44 40.86-56.78 75.29-52.2l-30.47 131.99c-33.3-10.97-52.7-45.63-44.81-79.79Zm-2.25 58.07a81.039 81.039 0 0 0 17.91 20.23c1.71 1.37 1.17 4.16-.91 4.85-25.09 8.22-43.62 30.94-46.71 57.13-.25 2.09-2.76 3.17-4.43 1.88-21.75-16.69-50.72-18.16-73.59-5.98-1.92 1.02-4.28-.57-4.08-2.73.83-9.11.1-18.25-2.1-27.03-.54-2.16 1.65-4.08 3.71-3.24 19.2 7.79 41.36 8.29 61.94-.45 20.58-8.73 35.61-25.02 43.35-44.24.83-2.07 3.73-2.31 4.91-.42ZM194.41 34.07l52.93 124.7c-33.39 10.7-69.46-5.94-83.16-38.21-13.81-32.54-.32-69.95 30.23-86.48ZM52.95 162.3l116.12 69.77c-20.72 28.28-59.68 36.02-89.74 17.96-30.3-18.2-41.37-56.41-26.38-87.73Zm80.91 107.81c8.76-2.17 17.15-5.8 24.78-10.79 1.83-1.2 4.32.17 4.33 2.36.05 26.46 15.99 51.13 39.99 62.14 1.95.89 2.01 3.57.25 4.79-22.8 15.78-32.85 42.77-28.33 68.1.38 2.14-1.85 3.9-3.85 3.04a80.755 80.755 0 0 0-26.38-6.37c-2.22-.15-3.37-2.83-1.93-4.53 13.34-15.86 20.66-36.77 18.71-59.05-1.95-22.27-12.79-41.6-28.68-54.9-1.71-1.43-1.04-4.26 1.12-4.8ZM13.89 349.18l134.95-11.81c-.14 35.06-27.11 64.22-62.04 67.28-35.21 3.08-66.62-21.32-72.91-55.47Zm78.25 174.15 102.24-88.87c20.5 28.45 15.82 67.89-10.65 90.9-26.68 23.19-66.43 21.92-91.59-2.02Zm240.95 42.7c-7.95 34.44-40.86 56.78-75.29 52.2l30.47-131.99c33.3 10.97 52.7 45.63 44.81 79.79Zm7.16-58.5c-.83 2.06-3.73 2.33-4.91.44-10.96-17.59-28.59-31.01-50.37-36.04-21.78-5.03-43.52-.69-61.08 10.31-1.89 1.18-4.38-.33-4.22-2.55.64-9-.22-18.1-2.6-26.9-.6-2.2 1.41-4.08 3.58-3.38 25.13 8.12 53.47.61 71.36-18.76 1.43-1.54 4.08-.94 4.68 1.08 7.72 26.29 30.33 44.48 56 48.09 2.18.31 3.2 2.96 1.75 4.61a80.938 80.938 0 0 0-14.19 23.1Zm107.36 90.09-52.93-124.69c33.39-10.7 69.46 5.94 83.16 38.21 13.81 32.54.32 69.95-30.23 86.48Zm141.45-128.23-116.11-69.77c20.72-28.28 59.68-36.02 89.74-17.96 30.3 18.21 41.37 56.41 26.38 87.73Zm-79.8-112.62c1.71 1.43 1.06 4.27-1.1 4.8-20.11 4.98-38.33 17.6-49.85 36.77-11.51 19.16-14.11 41.17-9.06 61.27.54 2.16-1.66 4.06-3.72 3.22a80.868 80.868 0 0 0-26.4-5.84c-2.19-.11-3.4-2.68-2.11-4.46 15.45-21.37 17.1-50.59 4.27-73.58-1.1-1.98.29-4.3 2.55-4.26 27.96.58 51.73-15.4 62.89-38.37.96-1.98 3.8-2.14 4.93-.25a81.04 81.04 0 0 0 17.61 20.68Zm-28.56-90c-15.56-21.34-42.89-31.94-68.77-26.81-2.06.41-3.84-1.65-3.13-3.63 9.07-25.26 1.8-53.57-17.01-71.78-1.58-1.53-.84-4.27 1.3-4.76a81 81 0 0 0 25.02-10.34c1.89-1.18 4.39.31 4.23 2.53-1.48 20.67 4.9 41.89 19.57 58.77 14.67 16.87 34.8 26.14 55.47 27.56 2.22.15 3.35 2.83 1.92 4.54a81.024 81.024 0 0 0-13.71 23.3c-.78 2.05-3.6 2.4-4.89.63Zm12.47 27.54c.14-35.06 27.11-64.22 62.04-67.28 35.21-3.08 66.62 21.32 72.91 55.47l-134.95 11.81Z"></path></svg>