<svg xmlns="http://www.w3.org/2000/svg" width="618.4" viewBox="0 0 618.4 618.4" height="618.4" style="enable-background:new 0 0 618.4 618.4" xml:space="preserve"><circle transform="rotate(-45.001 309.209 309.217)" cx="309.2" cy="309.2" r="188.9"></circle><path d="M309.2 114.5c63.1 0 114.5-51.4 114.5-114.5H379c0 38.5-31.3 69.8-69.8 69.8S239.4 38.5 239.4 0h-44.7c0 63.1 51.4 114.5 114.5 114.5zM446.9 171.5c44.6 44.6 117.3 44.6 161.9 0l-31.6-31.6c-27.2 27.2-71.5 27.2-98.7 0-27.2-27.2-27.2-71.5 0-98.7L446.9 9.6c-44.6 44.7-44.6 117.3 0 161.9zM618.4 239.4v-44.7c-63.1 0-114.5 51.4-114.5 114.5s51.4 114.5 114.5 114.5V379c-38.5 0-69.8-31.3-69.8-69.8s31.3-69.8 69.8-69.8zM446.9 446.9c-44.6 44.6-44.6 117.3 0 161.9l31.6-31.6c-27.2-27.2-27.2-71.5 0-98.7 27.2-27.2 71.5-27.2 98.7 0l31.6-31.6c-44.6-44.6-117.3-44.6-161.9 0zM309.2 503.9c-63.1 0-114.5 51.4-114.5 114.5h44.7c0-38.5 31.3-69.8 69.8-69.8s69.8 31.3 69.8 69.8h44.7c0-63.1-51.4-114.5-114.5-114.5zM171.5 446.9c-44.6-44.6-117.3-44.6-161.9 0l31.6 31.6c27.2-27.2 71.5-27.2 98.7 0 27.2 27.2 27.2 71.5 0 98.7l31.6 31.6c44.7-44.6 44.7-117.3 0-161.9zM114.5 309.2c0-63.1-51.4-114.5-114.5-114.5v44.7c38.5 0 69.8 31.3 69.8 69.8S38.5 379 0 379v44.7c63.1 0 114.5-51.4 114.5-114.5zM171.5 171.5c44.6-44.6 44.6-117.3 0-161.9l-31.6 31.6c27.2 27.2 27.2 71.5 0 98.7-27.2 27.2-71.5 27.2-98.7 0L9.6 171.5c44.7 44.7 117.3 44.7 161.9 0z"></path></svg>