<svg xmlns="http://www.w3.org/2000/svg" width="528.1" viewBox="0 0 528.1 609.4" height="609.4" style="enable-background:new 0 0 528.1 609.4" xml:space="preserve"><path d="m355 122.6 30.2-17.4 142.9 82.5v-35.2L385.1 70 151.9 204.7v-35.6l202.6-117L324 34.5l-172.1 99.4v-33.8l142.8-82.5L264.2 0 121.4 82.5v269.4l-30.1-17.4V99.6l-30.5 17.6v199.6l-30.1-17.4V134.6L.3 152.2v164.9l233.3 134.7-28.8 16.7L0 350.2v35.2L174.2 486l-31.3 18.1L0 421.6v35.2l142.9 82.5 233.3-134.7V440L173.5 557l30.4 17.7 172.3-99.5v34l-143.1 82.6 30.5 17.6 143-82.6V257.5l29.9 17.2v235.2l30.5-17.6v-200l30.2 17.5V475l30.5-17.6V292.2L294.5 157.5l29.9-17.3L528 257.7v-35.2l-173-99.9zm21.2 117.3v129.5L264 434.2l-112.2-64.8V239.9L264 175.1l112.2 64.8z"></path></svg>