<svg width="642" viewBox="0 0 642 463" height="463" xmlns="http://www.w3.org/2000/svg"><path d="M307.523 206.149c73.444-19.683 149.21 24.066 168.886 97.511 5 18.658 5.891 37.461 3.254 55.46L92.44 462.875l-7.113-26.539 284.536-76.24-7.106-26.54L110.65 401.11l-7.106-26.539 222.611-59.647-7.106-26.539-187.232 50.172-7.113-26.539 153.325-41.081-7.113-26.54-112.041 30.026-7.113-26.54ZM426.76 3.831c10.507 103.561 112.445 171.756 212.142 141.834 17.15 90.894-38.432 181.085-129.24 205.414l-1.526.409a164.938 164.938 0 0 0-5.19-54.94C479.308 208.328 388.63 155.97 300.41 179.61l-197.037 52.797-7.112-26.539 187.232-50.166-7.106-26.539-222.618 59.653-7.113-26.539 252.106-67.553-7.112-26.533L7.112 144.432 0 117.893 426.761 3.831ZM454.037.254c77.993-4.182 151.206 43.53 177.74 118.88C548.312 144.726 462.26 87.246 454.036.254Z"></path></svg>