<svg id="Layer_1" data-name="Layer 1" xmlns="http://www.w3.org/2000/svg" viewBox="0 0 611.77 509.82">   <path d="M549.52,385.31c-11.08,0-21.46,2.93-30.47,8L314.76,131.66V0h-17.74V131.66L92.72,393.31c-9.01-5.07-19.39-8-30.47-8-34.38,0-62.25,27.87-62.25,62.25s27.87,62.25,62.25,62.25c29.97,0,54.98-21.18,60.91-49.39,5.93,28.21,30.94,49.39,60.91,49.39s54.98-21.18,60.91-49.39c5.93,28.21,30.94,49.39,60.91,49.39s54.98-21.18,60.91-49.39c5.93,28.21,30.94,49.39,60.91,49.39s54.98-21.18,60.91-49.39c5.93,28.21,30.94,49.39,60.91,49.39,34.38,0,62.25-27.87,62.25-62.25s-27.87-62.25-62.25-62.25Zm-234.76-224.82l65.97,84.5c-4.51-.92-9.17-1.4-13.94-1.4-20.69,0-39.25,9.1-52.03,23.45v-106.55Zm-17.74,0v106.55c-12.79-14.35-31.35-23.45-52.04-23.45-4.77,0-9.43,.49-13.94,1.4l65.98-84.5ZM123.16,434.71c-2.47-11.77-8.28-22.29-16.37-30.59l68.4-87.61v69.5c-25.92,3.71-46.71,23.32-52.03,48.69Zm121.82,0c-5.33-25.37-26.11-44.98-52.04-48.69v-72.65c0-28.69,23.34-52.03,52.03-52.03s52.04,23.34,52.04,52.03v72.65c-25.93,3.71-46.71,23.32-52.04,48.69Zm121.82,0c-5.33-25.37-26.11-44.98-52.03-48.69v-72.65c0-28.69,23.34-52.03,52.03-52.03s52.03,23.34,52.03,52.03v72.65c-25.92,3.71-46.71,23.32-52.04,48.69Zm69.78-48.69v-69.51l68.4,87.61c-8.09,8.29-13.89,18.82-16.37,30.59-5.33-25.37-26.11-44.98-52.04-48.69Z"></path> </svg>