<svg data-name="Layer 1" xmlns="http://www.w3.org/2000/svg" viewBox="0 0 626.94 626.94"><path d="M572.71 306.5c-28-39.03-73.34-62.34-121.27-62.34-6.05 0-12.1.38-18.09 1.11 32.79-42.97 40.73-102.04 16.81-153.44l-3.54-7.59-8.35.73c-56.04 4.91-103 40.88-124.08 90.24-.13.31-.29.61-.42.93-2.35-5.51-5.06-10.92-8.1-16.19-23.95-41.52-66.78-69.16-114.58-73.92l-8.54-.85-3.54 7.82c-19.82 43.76-17.36 94.68 6.59 136.19 3.07 5.32 6.42 10.41 10.05 15.24-53.63-6.85-108.81 15.78-141.31 62.06l-4.82 6.87 4.82 6.87c32.45 46.31 87.64 69.02 141.25 62.18-3.63 4.84-6.99 9.92-10.06 15.24-23.98 41.5-26.48 92.41-6.69 136.19l3.53 7.82 8.54-.85c47.8-4.73 90.66-32.33 114.63-73.83 3.08-5.32 5.8-10.76 8.17-16.32.15.36.33.7.48 1.05 21.06 49.32 67.97 85.29 123.94 90.25l8.36.74 3.54-7.61c23.91-51.37 15.97-110.43-16.8-153.41 6 .73 12.07 1.09 18.21 1.09 47.93 0 93.27-23.3 121.27-62.33l5-6.97-5-6.97Zm-121.27 52.36c-20.24 0-39.59-4.71-57.53-14l-5.08-2.63a80.602 80.602 0 0 1-11.99 21.14l4.74 2.98c50.72 31.97 71.35 95.52 50.13 150.73-58.24-9.22-102.92-58.69-105.42-118.38l-.23-5.6c-3.88.61-7.82 1-11.86 1.04-.23 0-.46.03-.69.03-4.01 0-7.91-.39-11.76-.95l-.27 5.42c-.99 20.02-6.58 38.99-16.63 56.39-18.66 32.3-50.95 54.57-87.55 60.82-12.88-34.83-9.72-73.93 8.94-106.23 9.99-17.29 23.54-31.56 40.26-42.39l4.4-2.85a80.532 80.532 0 0 1-12.31-20.99l-4.59 2.38c-52.86 27.41-117.91 13.33-154.89-32.37 37.02-45.67 102.07-59.7 154.91-32.25l4.58 2.38c3.06-7.64 7.21-14.71 12.32-20.99l-4.39-2.85c-16.72-10.85-30.25-25.13-40.22-42.43-18.64-32.32-21.77-71.42-8.87-106.24 36.6 6.27 68.87 28.57 87.51 60.89 10.03 17.4 15.61 36.37 16.59 56.4l.26 5.4c3.83-.56 7.71-.94 11.69-.94.23 0 .46.03.69.04 4.04.03 7.98.43 11.86 1.04l.23-5.59c2.51-59.74 47.25-109.22 105.55-118.4 21.25 55.26.58 118.84-50.21 150.8l-4.73 2.98a80.63 80.63 0 0 1 11.95 21.09l5.08-2.63c17.93-9.29 37.28-14 57.52-14 37.31 0 72.75 16.82 96.46 45.39-23.71 28.57-59.15 45.39-96.46 45.39Z"></path><path d="M313.5 240.09c-40.53 0-73.38 32.86-73.38 73.38s32.85 73.38 73.38 73.38 73.38-32.86 73.38-73.38-32.86-73.38-73.38-73.38Zm0 121.59c-26.62 0-48.2-21.58-48.2-48.2s21.58-48.2 48.2-48.2 48.2 21.58 48.2 48.2-21.58 48.2-48.2 48.2Z"></path><path d="M313.5 303.88c-5.29 0-9.59 4.29-9.59 9.59s4.29 9.59 9.59 9.59 9.59-4.29 9.59-9.59-4.29-9.59-9.59-9.59Zm0-31.15c-5.29 0-9.59 4.29-9.59 9.59s4.29 9.59 9.59 9.59 9.59-4.29 9.59-9.59-4.29-9.59-9.59-9.59Zm28.81 25.5c3.74-3.74 3.75-9.81 0-13.56-3.74-3.74-9.82-3.75-13.56 0-3.75 3.75-3.75 9.82 0 13.56 3.74 3.74 9.82 3.75 13.56 0Zm-7.25 15.25c0 5.3 4.29 9.59 9.59 9.59a9.585 9.585 0 1 0 0-19.17c-5.29 0-9.59 4.29-9.59 9.58Zm-6.32 15.25c-3.75 3.74-3.75 9.81 0 13.56 3.74 3.75 9.81 3.75 13.56 0 3.75-3.74 3.75-9.81 0-13.56-3.74-3.75-9.81-3.75-13.56 0Zm-15.26 6.31c-5.3 0-9.59 4.29-9.6 9.58 0 5.3 4.28 9.59 9.58 9.6 5.3 0 9.59-4.29 9.6-9.58 0-5.29-4.28-9.59-9.58-9.6Zm-28.81-6.35c-3.75 3.74-3.75 9.81-.01 13.56s9.81 3.76 13.56.02a9.578 9.578 0 0 0 .01-13.56c-3.74-3.75-9.81-3.76-13.56-.02Zm7.26-15.24c0-5.3-4.28-9.59-9.58-9.6-5.3 0-9.59 4.28-9.6 9.57 0 5.3 4.28 9.6 9.58 9.6s9.59-4.28 9.6-9.58Zm-7.2-28.83c-3.75 3.74-3.76 9.81-.02 13.56 3.74 3.75 9.81 3.76 13.56.02 3.75-3.74 3.76-9.81.02-13.56-3.74-3.75-9.81-3.76-13.56-.02Z"></path><path d="M313.47 0C140.35 0 0 140.35 0 313.47s140.35 313.47 313.47 313.47 313.47-140.35 313.47-313.47S486.6 0 313.47 0Zm.02 595.05c-155.51 0-281.57-126.06-281.57-281.57S157.99 31.9 313.5 31.9s281.57 126.06 281.57 281.57S469.01 595.04 313.5 595.04Z"></path></svg>