<svg data-name="Layer 1" xmlns="http://www.w3.org/2000/svg" viewBox="0 0 490 610.53"><path d="M245 610.53c-135.1 0-245-109.91-245-245V23.36L29.2 0v365.53c0 118.99 96.81 215.8 215.81 215.8s215.81-96.81 215.81-215.8V0l29.2 23.36v342.17c0 135.09-109.9 245-245 245Z"></path><path d="M245 549.28c-101.32 0-183.76-82.43-183.76-183.76V23.36L90.44 0v365.53c0 85.23 69.34 154.56 154.56 154.56s154.56-69.34 154.56-154.56V0l29.2 23.36v342.17c0 101.33-82.44 183.76-183.76 183.76Z"></path><path d="M245 488.05c-67.55 0-122.52-54.96-122.52-122.52S177.44 243.01 245 243.01s122.52 54.96 122.52 122.52S312.56 488.05 245 488.05Zm0-215.84c-51.46 0-93.32 41.87-93.32 93.32s41.87 93.32 93.32 93.32 93.32-41.87 93.32-93.32-41.87-93.32-93.32-93.32Z"></path><path d="M245 426.8c-33.79 0-61.28-27.49-61.28-61.28s27.49-61.28 61.28-61.28 61.28 27.49 61.28 61.28S278.79 426.8 245 426.8Zm0-93.36c-17.69 0-32.08 14.39-32.08 32.08S227.31 397.6 245 397.6s32.08-14.39 32.08-32.08-14.39-32.08-32.08-32.08ZM151.68 244.63V0l-29.2 23.36v250.92c8.34-11.16 18.18-21.13 29.2-29.65ZM367.52 274.28V23.36L338.33 0v244.63c11.01 8.52 20.86 18.49 29.2 29.65ZM306.28 23.36 277.08 0v216.12c10.14 2.18 19.91 5.37 29.2 9.45V23.36ZM212.92 0l-29.2 23.36v202.2c9.29-4.08 19.05-7.27 29.2-9.45V0Z"></path></svg>