<svg data-name="Layer 1" xmlns="http://www.w3.org/2000/svg" viewBox="0 0 607.54 570.09"><path d="M474.42 67.07H2.79V0h471.63c73.52 0 133.12 59.6 133.12 133.12s-60.51 135.16-135.16 135.16H82.72C37.03 268.28 0 231.24 0 185.56v-3.35c0-45.07 36.53-81.6 81.6-81.6h391.8c18.52 0 33.53 15.01 33.53 33.53s-15.01 33.53-33.53 33.53H81.6c-8.03 0-14.53 6.51-14.53 14.53v3.35c0 8.64 7.01 15.65 15.65 15.65h389.66c37.6 0 68.09-30.48 68.09-68.09s-29.57-66.05-66.05-66.05ZM0 384.53c0-45.68 37.03-82.72 82.72-82.72h389.66c74.64 0 135.16 60.51 135.16 135.16s-59.6 133.12-133.12 133.12H2.79v-67.07h471.63c36.48 0 66.05-29.57 66.05-66.05s-30.48-68.09-68.09-68.09H82.72c-8.64 0-15.65 7.01-15.65 15.65v3.35c0 8.03 6.51 14.53 14.53 14.53h391.8c18.52 0 33.53 15.01 33.53 33.53s-15.01 33.53-33.53 33.53H81.6C36.53 469.49 0 432.95 0 387.89v-3.35Z" style="fill-rule:evenodd"></path></svg>