<svg data-name="Layer 1" xmlns="http://www.w3.org/2000/svg" viewBox="0 0 612.77 577.74"><path d="m523.09 0-102.6.44H89.68C40.15.44 0 40.59 0 90.12v199.83c0 52.88 43.26 96.14 96.14 96.14s96.14-43.26 96.14-96.14V178.06h228.21v111.89c0 52.88 43.26 96.14 96.14 96.14s96.14-43.26 96.14-96.14V89.68C612.77 40.15 572.62 0 523.09 0Z"></path><path d="M522.32 399.59H394.77v-112.8c0-48.99-40.08-89.08-89.08-89.08s-89.08 40.08-89.08 89.08v112.8H89.08c-49 0-89.08 40.08-89.08 89.07s40.08 89.08 89.08 89.08h433.24c48.99 0 89.08-40.08 89.08-89.08s-40.08-89.08-89.08-89.08Z"></path></svg>