<svg xmlns="http://www.w3.org/2000/svg" width="590.2" viewBox="0 0 590.2 589.5" height="589.5"><path d="M147.4 147.4C147.4 65.8 213.2 0 294.7 0s147.4 65.8 147.4 147.4H147.4zm0 294.7c0 81.6 65.8 147.4 147.4 147.4s147.4-65.8 147.4-147.4H147.4zm148-147.4c-81.6 0-147.4-65.8-147.4-147.4-81.5.1-148 65.9-148 147.4s65.8 147.4 147.4 147.4c0-81.6 66.5-147.4 148-147.4zm147.4-147.3c0 81.6-65.8 147.4-147.4 147.4 81.6 0 147.4 65.8 147.4 147.4 81.6 0 147.4-65.8 147.4-147.4s-65.8-147.4-147.4-147.4z"></path></svg>