<svg id="Layer_1" data-name="Layer 1" xmlns="http://www.w3.org/2000/svg" viewBox="0 0 613.52 568.92"><defs></defs><path class="cls-1" d="M215.48 121.85c7.5 0 13.58-6.08 13.58-13.58s-6.08-13.58-13.58-13.58-13.58 6.08-13.58 13.58 6.08 13.58 13.58 13.58Z"></path><path class="cls-1" d="M465.48 0H148.05C66.28 0 0 66.28 0 148.05v272.83c0 81.76 66.28 148.04 148.05 148.04h317.43c81.76 0 148.05-66.28 148.05-148.05V148.05C613.52 66.28 547.24 0 465.48 0Zm-20.9 18.67-32.14 54.52h16.57v46.8c0 4.71-3.82 8.54-8.54 8.54h-41.83V73.19h21.97l-31-54.52h74.96Zm93.43 474.75c0 22.6-18.32 40.92-40.92 40.92s-40.92-18.32-40.92-40.92c0-2.41.25-4.76.65-7.06 16.74-3.34 31.06-14.48 39.81-29.99 8.89 15.74 23.5 27.01 40.57 30.15 0 .11.09.14.19.15.37 2.2.6 4.44.6 6.75Zm-141.33 40.92c-22.6 0-40.92-18.32-40.92-40.92 0-2.42.25-4.78.65-7.08 16.7-3.36 30.98-14.49 39.72-29.97 8.89 15.74 23.5 27.01 40.57 30.15.12 1.56.24 5.02.23 5.34-.02.64.72 42.47-40.26 42.47Zm-100.97 0c-42.85 0-40.72-45.32-40.28-47.92 16.89-3.28 31.34-14.52 40.13-30.17 8.85 15.74 23.41 27.02 40.43 30.23.07.01.14.03.21.05.07.93 3.11 47.81-40.5 47.81Zm-100.97 0c-22.6 0-40.92-18.32-40.92-40.92 0-2.36.24-4.65.63-6.9 17.06-3.15 31.66-14.41 40.54-30.14 8.79 15.57 23.19 26.75 40.02 30.03.41 2.35 2.86 47.93-40.27 47.93Zm-50-65.52c-6.01 0-40.76-6.92-40.76-47.74h81.52c0 23.94-16.77 47.74-40.76 47.74ZM166.21 215l2.62-11.41.1-.16 4.46-19.74 49.89 218.72H208.9L166.22 215Zm11.17 137.6H96.81v-30.16c10.49 9.39 24.29 15.16 39.44 15.16h37.71l3.42 15Zm115.37 49.81h-14.7L228.4 184.38h-13.9l23.65-23.65 23.65 23.65h-18.79l49.73 218.03Zm66.33 0H312.9l-40.94-179.79c6.26 2.66 11.36 7.45 15.76 14.73l71.36 120.04v45.02Zm27.57 18.67c0 19.33-12.88 47.74-40.76 47.74-20.53 0-40.76-18.9-40.76-47.74h81.52Zm-100.64 0c0 18.45-12.1 47.74-40.76 47.74-37.63 0-40.76-43.14-40.76-47.74h81.52Zm160.38 47.74c-35.86 0-40.76-41.1-40.76-47.74h81.49c-.08 6.89-4.38 47.74-40.73 47.74Zm-68.11-67.29V249.44h-26.57v-45.86h40.42l31.26 139.4c3.4 15.17-.58 30.52-10.94 42.12-8.9 9.97-21.04 15.67-34.18 16.43ZM367.94 18.68l-31 54.52h21.97v55.34h-41.83c-4.71 0-8.54-3.82-8.54-8.54V73.2h16.57l-32.14-54.52h74.96Zm-130.64 0-26.65 46.56-28.39-46.56h55.04Zm-89.25 0h29.91l-28.39 46.56-25.37-44.32c7.74-1.45 15.7-2.24 23.85-2.24ZM18.67 148.05c0-61.61 43.3-113.26 101.06-126.21L108.14 73.2h143.94l-12.23-54.17-.05-.35h50.35v106.43c0 12.39 10.04 22.43 22.43 22.43h45.92v36.83h-25.99v84.27h26.57v52.19l-55.34-93.09c-9.04-14.96-21.03-23.41-36.46-25.69l-3.6-15.82 11.73 11.73c1.5-4.18 2.36-8.67 2.36-13.37 0-19.89-14.67-36.3-33.77-39.13h24.58L255.5 87.5h-17.45l9.26 41.03h-22.15l-3.82 16.93h10.98c-19.1 2.83-33.77 19.25-33.77 39.13 0 4.7.86 9.19 2.36 13.37l8.44-8.44L257.9 402.4h-14.48l-59.97-263.33 11.64-51.57h-20.93l-25.71 113.89h-13.7L160.46 87.5h-20.93l-25.71 113.89h-13.7L125.83 87.5H104.9L79.17 201.46c-24.66.8-46.23 12.26-60.5 30.15v-83.57Zm0 136.29c0-36.04 27.55-64.27 62.71-64.27h65.77l22.55 98.85h-33.45c-40.85 0-39.44-36.15-39.44-40.57H76.96v93.01h104.7l7.08 31.04-170.06.09V284.34Zm0 136.74h62.64c-.48 5.71-.37 13.42-.37 13.42 0 29.35 18.05 82.06 50.64 114.63-2.77-.35-112.74-17.77-112.91-128.05Zm156.26 129.17c-34.84-1.12-63.04-55.79-69.67-79.65 8.19 8.16 18.39 13.78 29.67 15.88-.26 2.28-.43 4.6-.43 6.95 0 26.27 16.93 48.61 40.43 56.82Zm39.6 0a60.454 60.454 0 0 0 30.68-24.07 60.495 60.495 0 0 0 30.68 24.07h-61.37Zm100.97 0a60.454 60.454 0 0 0 30.68-24.07 60.495 60.495 0 0 0 30.68 24.07h-61.37Zm100.97 0a60.474 60.474 0 0 0 30.41-23.62 60.431 60.431 0 0 0 29.14 23.15c-29.57 2.4-59.54.47-59.54.47Zm136.34-34.03c-.66.61-1.35 1.19-2.02 1.79a72.393 72.393 0 0 0 5.28-27.18c0-1.41-.11-2.79-.19-4.17.41-.07 17.31-4.21 27.98-13.69a129.79 129.79 0 0 1-31.04 43.25Zm-.99-47.79c-1.62.23-3.26.39-4.94.39-38.06 0-40.76-43.1-40.76-47.74h81.52c0 30.72-21.12 45.26-35.82 47.35Zm43.02-66.02h-64.9c.72-1.1 14.85-21.67 1.12-45.05l-90.47-154.04h36.81c28.23 0 51.2 22.97 51.2 51.2v32.29h18.68v-32.29c0-27.01 21.03-49.14 47.57-51.01v198.91Zm0-217.67c-24.33 1.25-45.39 15.01-56.91 34.95-12.09-20.92-34.68-35.31-60.53-35.31h-70.55l108.11 182.44c9.98 16.98-1.84 35.59-15.45 35.59h-77.97c1.74-1.59 28.67-25.13 20.07-63.51l-34.76-154.51h-27.8v-36.83h45.92c12.39 0 22.43-10.04 22.43-22.43V18.67h18.07c71.34 0 129.37 58.04 129.37 129.37v36.69Z"></path></svg>