<svg xmlns="http://www.w3.org/2000/svg" width="599.7" viewBox="0 0 599.7 418.7" height="418.7" xml:space="preserve"><path d="M181.8 263.4c21.5 7.2 35.9 27.2 35.9 49.9 0 29-23.6 52.6-52.6 52.6s-52.6-23.6-52.6-52.6v-67.1l-20 3.9v63.1c0 40 32.6 72.6 72.6 72.6 40 0 72.6-32.6 72.6-72.6 0-31.4-20-59.1-49.8-68.9l-12.1-3.8L0 189v20.9l170.1 49.9 11.7 3.6z"></path><path d="m199 216.4-16.1-4.8L0 157.6v20.9l177.2 52.4 15.5 4.6c33.8 11.7 56.4 43.5 56.4 79.3 0 46.3-37.6 83.9-83.9 83.9-46.3 0-83.9-37.6-83.9-83.9v-62.2l-20 4.1v58.1c0 57.3 46.6 103.9 103.9 103.9 57.3 0 103.9-46.6 103.9-103.9 0-44.5-28.1-84-70.1-98.4z"></path><path d="m186.4 202.3.2.1 206.8 61.1c21.5 7.2 35.9 27.2 35.9 49.9 0 29-23.6 52.6-52.6 52.6s-52.6-23.6-52.6-52.6v-66.8l-20 4.1v62.7c0 40 32.6 72.6 72.6 72.6 40 0 72.6-32.6 72.6-72.6 0-31.4-20-59.1-49.8-68.9l-.2-.1-206.7-61.1c-33.8-11.7-56.4-43.5-56.4-79.3 0-46.3 37.6-83.9 83.9-83.9 46.3 0 83.9 37.6 83.9 83.9v58.6l20-3.8V104c.1-57.4-46.5-104-103.8-104S116.3 46.6 116.3 103.9c-.1 44.4 28.1 83.9 70.1 98.4z"></path><path d="m410.5 216.4-.2-.1-206.8-61.1c-21.5-7.2-35.9-27.2-35.9-49.9 0-29 23.6-52.6 52.6-52.6s52.6 23.6 52.6 52.6V169l20-3.8v-59.9c0-40-32.6-72.6-72.6-72.6-40 0-72.6 32.6-72.6 72.6 0 31.4 20 59.1 49.8 68.9l.2.1 206.7 61.1c33.8 11.7 56.4 43.5 56.4 79.3 0 46.3-37.6 83.9-83.9 83.9-46.3 0-83.9-37.6-83.9-83.9v-61.8l-20 4.1v57.7c0 57.3 46.6 103.9 103.9 103.9 57.3 0 103.9-46.6 103.9-103.9 0-44.4-28.2-83.9-70.2-98.3z"></path><path d="m427.3 158.9-11.7-3.6c-21.5-7.2-35.9-27.2-35.9-49.9 0-29 23.6-52.6 52.6-52.6s52.6 23.6 52.6 52.6V169l20-3.8v-59.9c0-40-32.6-72.6-72.6-72.6-40 0-72.6 32.6-72.6 72.6 0 31.4 20 59.1 49.8 68.9l12.1 3.8 178.2 51.1v-20.8l-172.5-49.4z"></path><path d="M404.7 183.2c-33.8-11.7-56.4-43.5-56.4-79.3 0-46.3 37.6-83.9 83.9-83.9 46.3 0 83.9 37.6 83.9 83.9v58.6l20-3.8v-54.8C536.1 46.6 489.5 0 432.1 0c-57.3 0-103.9 46.6-103.9 103.9 0 44.4 28.2 83.9 70.1 98.3l16.2 4.8 185.1 53.5v-20.8l-179.5-51.9-15.4-4.6z"></path></svg>