<svg xmlns="http://www.w3.org/2000/svg" width="600.8" viewBox="0 0 600.8 433.7" height="433.7" xml:space="preserve"><path d="M587.5 92.4c-18.6-3.3-37.7-5.1-57.3-5.1-39.4 0-83.9 7-121.3 19.4-37.4 12.4-68.5 28.4-108.6 28.8-40.1-.4-71.2-16.4-108.6-28.8-37.3-12.4-81.9-19.4-121.3-19.4-19.5 0-38.7 1.7-57.3 5.1-4.3.8-8.7 1.7-13.1 2.7v140c22.7-5.1 46.3-9.4 70.6-9.4 23.1 0 47 3.6 69.5 9.1 20.8 5.2 40.2 14.7 60.5 21.4 11.8 3.9 23.4 7.3 35.1 10.1 3 .6 5.9 1.2 8.9 1.8 38.2 6.9 73.4 6.9 111.7 0 3-.5 5.9-1.1 8.9-1.8 11.6-2.8 23.3-6.2 35.1-10.1 20.3-6.7 39.7-16.3 60.5-21.4 22.5-5.6 46.4-9.1 69.5-9.1 24.2 0 47.9 4.3 70.6 9.4v-140c-4.5-1-8.9-1.9-13.4-2.7z"></path><path d="M460.7 254.4c-20.8 5.2-40.2 14.7-60.5 21.4-11.4 3.8-23.1 6.9-35.1 9.4-21.7 5.2-43.2 8.3-64.7 8.3s-43-3.1-64.7-8.3c-11.9-2.5-23.7-5.6-35.1-9.4-20.3-6.7-39.7-16.3-60.5-21.4-22.5-5.6-46.4-9.1-69.5-9.1-24.2 0-47.9 4.3-70.6 9.4v147.2c43.7-18.3 92-16.3 135.9 0 32.2 12 64.4 20.8 91.8 25.1 37.7 6 66.2 6.9 72.8 6.7 6.5.3 35-.7 72.8-6.7 27.4-4.3 59.6-13.1 91.8-25.1 43.9-16.3 92.1-18.3 135.9 0V254.6c-22.7-5.1-46.3-9.4-70.6-9.4-23.3.1-47.2 3.6-69.7 9.2zM301.2 114.1C368.9 114.1 425 64.7 435.5 0H166.9c10.5 64.7 66.6 114.1 134.3 114.1z"></path></svg>