<svg data-name="Layer 1" xmlns="http://www.w3.org/2000/svg" viewBox="0 0 614.57 614.57"><path d="M425.64 289.8c0-9.96-8.1-18.06-18.06-18.06s-18.06 8.1-18.06 18.06v161.51c0 45.35-36.9 82.24-82.24 82.24s-82.24-36.89-82.24-82.24V289.8c0-9.96-8.1-18.06-18.06-18.06s-18.06 8.1-18.06 18.06v240.01H95.5c55.13 52.48 129.66 84.76 211.78 84.76s153.14-30.73 207.86-81.01h-89.5V289.81Z"></path><path d="M307.28 0C137.58 0 0 137.58 0 307.28c0 57.93 16.05 112.1 43.91 158.34h80.83V289.8c0-45.35 36.9-82.24 82.24-82.24s82.24 36.89 82.24 82.24v161.51c0 9.96 8.1 18.06 18.06 18.06s18.06-8.1 18.06-18.06V289.8c0-45.35 36.9-82.24 82.24-82.24s82.24 36.89 82.24 82.24v179.57h78.5c29.28-47.06 46.25-102.58 46.25-162.09C614.57 137.58 476.99 0 307.28 0Zm-100.3 177.85c-34.32 0-62.15-27.83-62.15-62.15s27.83-62.15 62.15-62.15 62.15 27.83 62.15 62.15-27.83 62.15-62.15 62.15Zm200.6 0c-34.32 0-62.15-27.83-62.15-62.15s27.83-62.15 62.15-62.15 62.15 27.83 62.15 62.15-27.83 62.15-62.15 62.15Z"></path></svg>