<svg xmlns="http://www.w3.org/2000/svg" width="585.2" viewBox="0 0 585.2 583.3" height="583.3" xml:space="preserve"><path d="M399.3 448.1c-6.2 0-12.2.9-18 2.4 1-4.6 1.6-9.4 1.6-14.3 0-37-30-67-67-67s-67 30-67 67c0 4.8.5 9.6 1.5 14.1-5.5-1.4-11.2-2.2-17.2-2.2-6.5 0-12.8 1-18.8 2.7 1-4.7 1.6-9.5 1.6-14.6 0-37-30-67-67-67-6.3 0-12.3.9-18.1 2.5 2.1-6.4 3.2-13.3 3.2-20.4 0-4.8-.5-9.4-1.4-13.9 5.2 1.3 10.7 2 16.3 2 37 0 67-30 67-67s-30-67-67-67c-6.3 0-12.3.9-18.1 2.5 2.1-6.4 3.2-13.3 3.2-20.4 0-37-30-67-67-67s-67 30-67 67 30 67 67 67c6.3 0 12.3-.9 18.1-2.5-2.1 6.4-3.2 13.3-3.2 20.4 0 4.8.5 9.4 1.4 13.9-5.2-1.3-10.7-2-16.3-2-37 0-67 30-67 67s30 67 67 67c6.3 0 12.3-.9 18.1-2.5-2.1 6.4-3.2 13.3-3.2 20.4 0 4.8.5 9.4 1.4 13.9-5.2-1.3-10.7-2-16.3-2-37 0-67 30-67 67s30 67 67 67 67-30 67-67c0-4.8-.5-9.4-1.4-13.9 5.2 1.3 10.7 2 16.3 2 6.5 0 12.8-1 18.8-2.7-1 4.7-1.6 9.6-1.6 14.6 0 37 30 67 67 67s67-30 67-67c0-4.8-.5-9.5-1.5-14.1 5.5 1.4 11.2 2.2 17.1 2.2 5.7 0 11.3-.7 16.6-2.1-1.1 4.9-1.7 9.9-1.7 15.1 0 37 30 67 67 67 15.4 0 29.6-5.2 40.9-13.9 16.8-12.2 27.7-31.9 27.7-54.2 0-37-30-67-67-67z"></path><path d="M150.5 146.5c22.3 0 40.4-18.1 40.4-40.4 0-22.3-18.1-40.3-40.4-40.3-22.3 0-40.4 18.1-40.4 40.3 0 22.4 18.1 40.4 40.4 40.4zM68.2 48.6c13.4 0 24.3-10.9 24.3-24.3S81.6 0 68.2 0C54.7 0 43.9 10.9 43.9 24.3s10.8 24.3 24.3 24.3zM479 392.5c-22.3 0-40.4 18.1-40.4 40.3s18.1 40.4 40.4 40.4 40.4-18.1 40.4-40.4-18.1-40.3-40.4-40.3zM560.9 490.8c-13.4 0-24.3 10.9-24.3 24.3s10.9 24.3 24.3 24.3 24.3-10.9 24.3-24.3-10.9-24.3-24.3-24.3z"></path></svg>