<svg xmlns="http://www.w3.org/2000/svg" width="460.6" viewBox="0 0 460.6 642" height="642" data-name="Layer 1"><path d="M342.63 86.67c1.93-3.75 3.69-7.47 5.27-11.16C382.38 0 328.4 0 328.4 0H0l.57 86.67h342.06ZM263.93 188.86c26.17-28.21 49.12-54.84 65.76-80.2H.08v80.2h263.85Z"></path><path d="M411.92 167.37C351.25 290.18 105.17 417.24 105.17 642H21.71c-.5-288.8 395.23-490.98 352.33-616.77 0 0 65.93 65.61 37.88 142.14Z"></path><path d="M212.71 642h-89.88c0-232.76 308.76-376.18 309.38-500.31C560.46 342.03 212.71 378.4 212.71 642Z"></path></svg>