<svg xmlns="http://www.w3.org/2000/svg" width="613.3" viewBox="0 0 613.3 574" height="574" xml:space="preserve" style="enable-background:new 0 0 613.3 574"><path d="M608.9 257.9c-85.7-75.5-215.8-73.4-298.9 6.4 40.7 40.8 64.2 94.9 65.9 152.5 1.4 46.9-11.6 92.3-37 130.9l268.9-268.9c7.1-7.1 7.1-15.5 1.1-20.9z"></path><path d="M4.4 257.9c86.8-76.5 219.3-73.3 302.2 9.6 82.8 82.8 86.1 215 9.9 301.8-5.4 6.4-14 6.5-21.2-.7L5.5 278.7c-7.1-7-7.2-15.4-1.1-20.8zM409.8 103.1c0 57-46.2 103.1-103.1 103.1S203.6 160 203.6 103.1C203.5 46.2 249.7 0 306.6 0s103.2 46.2 103.2 103.1z"></path></svg>