<svg data-name="Layer 1" xmlns="http://www.w3.org/2000/svg" viewBox="0 0 570.98 540.85"><path d="M450.05 360.7v180.15h119.51v-366.4L459.24 331.61a50.634 50.634 0 0 0-9.19 29.08ZM296.67 443.65l-68.22 97.19h72.49v-95.85c0-2.29-2.95-3.22-4.26-1.35Z"></path><path d="M379.65 0 0 540.85h142.69l152.58-217.64c20.97-29.91 67.97-15.07 67.97 21.45v196.19h24.46V326.31c0-9.09 2.8-17.95 8.02-25.39L570.98 51.26V0H379.65Zm-24.22 290.83c-33.35 0-60.39-27.04-60.39-60.39s27.04-60.39 60.39-60.39 60.39 27.04 60.39 60.39-27.04 60.39-60.39 60.39Z"></path></svg>