<svg xmlns="http://www.w3.org/2000/svg" width="504.1" viewBox="0 0 504.1 584" height="584"><path d="M422.7 477.9c.8-.4 1.7-.3 2.4.1.7.5 1.2 1.3 1.2 2.1v68c0 1.9-1.1 3.6-2.7 4.4-10.8 5.4-50.5 25.1-62.7 31.2-.8.4-1.7.3-2.4-.1-.7-.5-1.2-1.3-1.2-2.1v-68c0-1.9 1.1-3.6 2.7-4.4 10.7-5.4 50.4-25.1 62.7-31.2zm-341.3 0c-.8-.4-1.7-.3-2.4.1-.7.5-1.2 1.3-1.2 2.1v68c0 1.9 1.1 3.6 2.7 4.4 10.8 5.4 50.5 25.1 62.7 31.2.8.4 1.7.3 2.4-.1.7-.5 1.2-1.3 1.2-2.1v-68c0-1.9-1.1-3.6-2.7-4.4-10.7-5.4-50.4-25.1-62.7-31.2zm225.7-38c1.8 0 3.5 1 4.4 2.7 5.5 10.6 25.8 49.8 30.8 59.5.3.6.3 1.2.1 1.8-.2.6-.6 1.1-1.2 1.4-13.9 6.8-89.1 43.9-89.1 43.9s-75.2-37.1-89.1-43.9c-.6-.3-1-.8-1.2-1.4-.2-.6-.1-1.3.1-1.8 5-9.7 25.3-48.9 30.8-59.5.8-1.6 2.5-2.7 4.4-2.7h110zM80.2 381.8c-.6 0-1.2.3-1.7.7-.4.4-.7 1.1-.7 1.7V460c0 1.9 1.1 3.6 2.7 4.4 11.6 5.8 57 28.4 67.4 33.5 1.2.6 2.6.1 3.2-1 5-9.6 25.5-49.2 30.8-59.4.8-1.5.7-3.3-.2-4.8-5.3-8.8-23.9-39.6-29.2-48.4-.9-1.5-2.5-2.4-4.2-2.4-11.7-.1-57.1-.1-68.1-.1zm343.7 0c.6 0 1.2.3 1.7.7s.7 1.1.7 1.7V460c0 1.9-1.1 3.6-2.7 4.4-11.6 5.8-57 28.4-67.4 33.5-1.2.6-2.6.1-3.2-1-5-9.6-25.5-49.2-30.8-59.4-.8-1.5-.7-3.3.2-4.8 5.3-8.8 23.9-39.6 29.2-48.4.9-1.5 2.5-2.4 4.2-2.4 11.7-.1 57.1-.1 68.1-.1zm-227.2 47.7c-1.7 0-3.3-.9-4.2-2.4-5.2-8.7-23.2-38.4-28.5-47.3-.9-1.5-.9-3.4 0-5 5.2-9 23-39.8 28.1-48.7.9-1.5 2.5-2.5 4.2-2.5h111.3c1.8 0 3.4.9 4.3 2.5 5.2 8.9 22.9 39.7 28.1 48.7.9 1.5.9 3.5 0 5-5.3 8.8-23.3 38.6-28.5 47.3-.9 1.5-2.5 2.4-4.2 2.4H196.7zM77.8 267.9c0-.6.3-1.2.7-1.7.4-.4 1.1-.7 1.7-.7h68.5c1.8 0 3.4.9 4.3 2.5 5.1 8.9 22.8 39.4 27.9 48.3.9 1.5.9 3.4 0 4.9-5.1 8.8-22.4 38.8-27.5 47.6-.9 1.5-2.5 2.5-4.3 2.5H80.2c-1.3 0-2.4-1.1-2.4-2.4v-101zm348.5 0c0-.6-.3-1.2-.7-1.7s-1.1-.7-1.7-.7h-68.4c-1.8 0-3.4.9-4.3 2.5-5.1 8.9-22.8 39.4-27.9 48.3-.9 1.5-.9 3.4 0 4.9 5.1 8.8 22.4 38.8 27.5 47.6.9 1.5 2.5 2.5 4.3 2.5H424c1.3 0 2.4-1.1 2.4-2.4-.1-14.2-.1-86.8-.1-101zm-234.4-58.2c.9-1.5 2.5-2.5 4.3-2.5h111.9c1.8 0 3.4.9 4.3 2.5 5.1 8.9 22.7 39.3 27.8 48.2.9 1.5.9 3.4 0 4.9-5.1 8.8-22.4 38.9-27.5 47.7-.9 1.5-2.5 2.5-4.3 2.5H196c-1.8 0-3.4-.9-4.2-2.5-5.1-8.8-22.4-38.9-27.5-47.7-.9-1.5-.9-3.4 0-4.9 4.9-8.9 22.4-39.3 27.6-48.2zm309.5 1.4c1.7.8 2.7 2.5 2.7 4.4v68c0 .9-.4 1.7-1.2 2.1-.7.5-1.7.5-2.4.1-11.8-5.9-48.8-24.3-59.2-29.5-1.7-.8-2.7-2.5-2.7-4.4v-68c0-.9.4-1.7 1.2-2.1.7-.5 1.7-.5 2.4-.1 11.7 5.9 48.8 24.3 59.2 29.5zm-498.7 0c-1.7.8-2.7 2.5-2.7 4.4v68c0 .9.4 1.7 1.2 2.1.7.5 1.7.5 2.4.1 11.8-5.9 48.8-24.3 59.2-29.5 1.7-.8 2.7-2.5 2.7-4.4v-68c0-.9-.4-1.7-1.2-2.1-.7-.5-1.7-.5-2.4-.1-11.7 5.9-48.8 24.3-59.2 29.5zm420.9-38.7c1.7.8 2.7 2.5 2.7 4.4v75.8c0 1.3-1.1 2.4-2.4 2.4h-68.5c-1.8 0-3.4-.9-4.3-2.5-5.2-9-23-39.9-28.1-48.6-.8-1.4-.9-3.2-.1-4.7 5.2-10.1 25.6-49.5 30.6-59.1.6-1.2 2-1.6 3.2-1 10.3 5.2 55.3 27.5 66.9 33.3zm-343.1 0c-1.7.8-2.7 2.5-2.7 4.4v75.8c0 1.3 1.1 2.4 2.4 2.4h68.5c1.8 0 3.4-.9 4.2-2.5 5.2-9 23-39.9 28.1-48.6.8-1.4.9-3.2.1-4.7-5.2-10.1-25.6-49.5-30.6-59.1-.6-1.2-2-1.6-3.2-1-10.2 5.2-55.2 27.5-66.8 33.3zM312 194.1c-.8 1.6-2.5 2.7-4.4 2.7H196.3c-1.8 0-3.5-1-4.4-2.7-5.5-10.6-25.7-49.6-30.7-59.2-.3-.6-.3-1.2-.1-1.8.2-.6.6-1.1 1.2-1.4 13.9-6.9 89.6-44.6 89.6-44.6s75.7 37.6 89.6 44.6c.6.3 1 .8 1.2 1.4.2.6.1 1.3-.1 1.8-4.9 9.6-25.1 48.7-30.6 59.2zM252 0s44.3 22.1 55.9 27.8c1.7.8 2.7 2.5 2.7 4.4v68.2c0 .9-.4 1.7-1.2 2.1-.7.5-1.7.5-2.4.1-12.8-6.4-55-27.3-55-27.3s-42.2 21-55 27.3c-.8.4-1.7.3-2.4-.1-.7-.5-1.2-1.3-1.2-2.1V32.2c0-1.9 1.1-3.6 2.7-4.4L252 0z" fill-rule="evenodd" clip-rule="evenodd"></path></svg>