<svg data-name="Layer 1" xmlns="http://www.w3.org/2000/svg" viewBox="0 0 611.38 611.38"><path d="M602.64 0h8.73v611.38h-8.73zM585.18 0h8.73v611.38h-8.73zM567.71 0h8.73v611.38h-8.73zM550.24 0h8.74v611.38h-8.74zM532.77 0h8.74v611.38h-8.74zM515.3 0h8.74v611.38h-8.74zM497.84 0h8.73v611.38h-8.73zM480.37 0h8.73v611.38h-8.73zM462.9 0h8.74v611.38h-8.74zM445.43 0h8.74v611.38h-8.74zM427.96 0h8.74v611.38h-8.74zM410.5 0h8.73v611.38h-8.73zM393.03 0h8.73v611.38h-8.73zM375.56 0h8.73v611.38h-8.73zM358.09 0h8.74v611.38h-8.74zM340.62 0h8.74v611.38h-8.74zM323.16 0h8.73v611.38h-8.73zM1.34 0H0v611.38h314.42V0H1.34Zm304.35 602.64H8.74V8.73h296.95v593.91Z"></path></svg>