<svg xmlns="http://www.w3.org/2000/svg" width="629" viewBox="0 0 629 483.8" height="483.8" style="enable-background:new 0 0 629 483.8" xml:space="preserve"><path d="M629 360.2H490.3l68.3-118.3L419 0H139.7L0 241.9l139.7 241.9h417.9L629 360.2zm-72.4 118.2-66.2-114.7h132.5l-66.3 114.7zm-277.3 0-66.2-114.7h132.5l-66.3 114.7zM74.5 123.6H207l-66.2 114.7-66.3-114.7zM279.3 5.3 345.5 120H213.1L279.3 5.3zm138.6 233-66.2-114.7h132.5l-66.3 114.7zm-69.3 120.1-66.2-114.7h132.5l-66.3 114.7zm66.3-118.3H282.4l66.2-114.7 66.3 114.7zm-135.6-1.8-66.2-114.7h132.5l-66.3 114.7zM210 125.4l66.2 114.7H143.8L210 125.4zm-66.2 118.3h132.5L210 358.4l-66.2-114.7zm135.5 1.7 66.2 114.7H213.1l66.2-114.7zm138.6 0 66.2 114.7H351.7l66.2-114.7zm-277.2 0 66.2 114.7H74.5l66.2-114.7zm207.9 120.1 66.2 114.7H282.4l66.2-114.7zm69.3 112.9-66.2-114.7h132.5l-66.3 114.7zm69.3-120L421 243.7h132.5l-66.3 114.7zM421 240.1l66.2-114.7 66.2 114.7H421zM417.9 5.3 484.1 120H351.7L417.9 5.3zm-69.3 113L282.4 3.6h132.5l-66.3 114.7zM276.2 3.6 210 118.3 143.8 3.6h132.4zM140.7 5.3 206.9 120H74.5L140.7 5.3zM71.4 125.4l66.2 114.7H5.1l66.3-114.7zm66.2 118.3L71.4 358.4 5.1 243.7h132.5zm3.1 234.7L74.5 363.7H207l-66.3 114.7zM210 365.5l66.2 114.7H143.8L210 365.5zm211 114.7 66.2-114.7 66.2 114.7H421z"></path></svg>