<svg data-name="Layer 1" xmlns="http://www.w3.org/2000/svg" viewBox="0 0 620.04 620.04"><path d="M310.02 0C139.07 0 0 139.07 0 310.02s139.07 310.02 310.02 310.02 310.02-139.07 310.02-310.02S480.97 0 310.02 0Zm0 572.35c-144.65 0-262.33-117.68-262.33-262.33S165.37 47.7 310.02 47.7s262.33 117.68 262.33 262.33-117.68 262.33-262.33 262.33Z"></path><path d="M476.96 175.33v269.39c29.8-36.86 47.7-83.72 47.7-134.7s-17.9-97.84-47.7-134.7ZM310.02 95.39c-50.98 0-97.84 17.9-134.69 47.69h269.39c-36.86-29.8-83.72-47.69-134.69-47.69ZM190.78 343.99v85.27h85.26c-41.1-11.73-73.54-44.16-85.26-85.27ZM276.05 190.78h-85.27v85.27c11.73-41.11 44.16-73.54 85.27-85.27ZM344 429.26h85.26V344c-11.73 41.1-44.16 73.53-85.26 85.26ZM95.39 310.02c0 50.98 17.9 97.84 47.7 134.69V175.33c-29.8 36.86-47.7 83.72-47.7 134.69ZM429.26 276.05v-85.27h-85.27c41.11 11.73 73.54 44.16 85.27 85.27ZM310.02 524.65c50.98 0 97.84-17.9 134.7-47.7H175.33c36.86 29.8 83.72 47.7 134.7 47.7ZM391.11 310.02c0-44.71-36.37-81.08-81.08-81.08s-81.08 36.37-81.08 81.08 36.37 81.08 81.08 81.08 81.08-36.37 81.08-81.08Zm-81.08 38.16c-21.04 0-38.16-17.12-38.16-38.16s17.12-38.16 38.16-38.16 38.16 17.12 38.16 38.16-17.12 38.16-38.16 38.16Z"></path></svg>