<svg xmlns="http://www.w3.org/2000/svg" width="642" viewBox="0 0 642 642" height="642" data-name="Layer 1"><path d="M321 0C143.74 0 0 143.74 0 321s143.74 321 321 321 321-143.74 321-321S498.26 0 321 0Zm273.49 391.62h-80.64c7.58-42.96 8.43-88.82 1.09-134.82h81.15c10.48 44.87 9.68 91.63-1.6 134.82ZM45.9 256.8h81.15c-6.87 43.08-7 88.94 1.09 134.82H47.51c-11.29-43.18-12.09-89.94-1.61-134.82Zm242.36-16.76c4.24 4.37 8.73 8.54 13.48 12.39v11.17c-26.13-27.86-63.24-45.33-104.32-45.33h-22.34c14.19-48.98 38.26-93.86 69.98-132.19-12.73 54.37 2.86 112.63 43.21 153.95ZM396.95 86.09c31.71 38.33 55.79 83.2 69.98 132.19h-22.34c-41.09 0-78.2 17.46-104.32 45.33v-11.17c4.75-3.85 9.24-8.03 13.48-12.39 40.32-41.29 55.94-99.54 43.21-153.95ZM160.56 327.61c34.92 40.51 84.94 67.67 141.18 72.74v36.59c-26.13-27.86-63.24-45.33-104.32-45.33h-30.11c-4.04-20.8-6.36-42.18-6.74-64.01Zm179.7 72.74c56.24-5.07 106.19-32.23 141.18-72.67-.39 21.83-2.7 43.21-6.74 63.94h-30.11c-41.09 0-78.2 17.46-104.32 45.33v-36.59Zm243.9-182.07h-77.23c-15.66-59.96-44.62-114.6-83.59-160.56 73.44 28.63 132.06 87.18 160.82 160.56ZM218.67 57.72c-38.97 45.97-67.92 100.6-83.59 160.56H57.84C86.6 144.9 145.22 86.35 218.66 57.72ZM60.48 430.14h76.33c15.99 57.46 44.23 109.85 81.85 154.14-71.26-27.8-128.59-83.78-158.19-154.14Zm362.85 154.14c37.62-44.3 65.87-96.69 81.85-154.14h76.33c-29.6 70.36-86.93 126.35-158.19 154.14Zm57.4-327.48c-1.09 2.63-2.25 5.2-3.53 7.77-25.29 52.58-76.4 90.39-136.94 97.07v-.51c0-57.59 46.74-104.32 104.32-104.32h36.14c.06-.13.13-.32.19-.45l.26.45h-.45Zm-36.15 173.34H465c-21.78 71.27-66.59 135.49-124.74 181.04v-76.72c0-57.59 46.74-104.32 104.33-104.32ZM160.82 256.8l.26-.45c.06.13.13.32.19.45h36.14c57.59 0 104.32 46.74 104.32 104.33v.51c-60.54-6.68-111.64-44.49-136.94-97.07-1.28-2.57-2.44-5.14-3.53-7.77h-.45Zm140.92 277.67v76.72C243.59 565.64 198.78 501.41 177 430.15h20.42c57.59 0 104.32 46.74 104.32 104.32Zm60.99-410.95c0 37.56-16.05 71.26-41.73 94.7-25.68-23.43-41.73-57.14-41.73-94.7S295.32 52.26 321 28.83c25.68 23.43 41.73 57.2 41.73 94.69Z"></path></svg>