<svg xmlns="http://www.w3.org/2000/svg" width="624" viewBox="0 0 624 333.1" height="333.1" xml:space="preserve" style="enable-background:new 0 0 624 333.1"><path d="M21.1 145.5C9.5 145.5 0 154.9 0 166.6c0 11.6 9.5 21.1 21.1 21.1 11.6 0 21.1-9.5 21.1-21.1 0-11.7-9.5-21.1-21.1-21.1zM21.1 97C9.5 97 0 106.4 0 118.1s9.5 21.1 21.1 21.1c11.6 0 21.1-9.5 21.1-21.1S32.7 97 21.1 97zM69.6 145.5c-11.6 0-21.1 9.5-21.1 21.1 0 11.6 9.5 21.1 21.1 21.1 11.6 0 21.1-9.5 21.1-21.1 0-11.7-9.5-21.1-21.1-21.1zM69.6 97c-11.6 0-21.1 9.5-21.1 21.1s9.5 21.1 21.1 21.1c11.6 0 21.1-9.5 21.1-21.1S81.2 97 69.6 97zM118.1 145.5c-11.6 0-21.1 9.5-21.1 21.1 0 11.6 9.5 21.1 21.1 21.1 11.6 0 21.1-9.5 21.1-21.1 0-11.7-9.5-21.1-21.1-21.1zM118.1 97c-11.6 0-21.1 9.5-21.1 21.1s9.5 21.1 21.1 21.1c11.6 0 21.1-9.5 21.1-21.1S129.7 97 118.1 97zM166.6 145.5c-11.6 0-21.1 9.5-21.1 21.1 0 11.6 9.5 21.1 21.1 21.1 11.6 0 21.1-9.5 21.1-21.1 0-11.7-9.5-21.1-21.1-21.1zM166.6 97c-11.6 0-21.1 9.5-21.1 21.1s9.5 21.1 21.1 21.1c11.6 0 21.1-9.5 21.1-21.1S178.2 97 166.6 97zM215 145.5c-11.6 0-21.1 9.5-21.1 21.1 0 11.6 9.5 21.1 21.1 21.1 11.6 0 21.1-9.5 21.1-21.1 0-11.7-9.4-21.1-21.1-21.1zM215 97c-11.6 0-21.1 9.5-21.1 21.1s9.5 21.1 21.1 21.1c11.6 0 21.1-9.5 21.1-21.1S226.7 97 215 97zM263.5 145.5c-11.6 0-21.1 9.5-21.1 21.1 0 11.6 9.5 21.1 21.1 21.1 11.6 0 21.1-9.5 21.1-21.1 0-11.7-9.4-21.1-21.1-21.1zM263.5 97c-11.6 0-21.1 9.5-21.1 21.1s9.5 21.1 21.1 21.1c11.6 0 21.1-9.5 21.1-21.1S275.2 97 263.5 97zM312 145.5c-11.6 0-21.1 9.5-21.1 21.1 0 11.6 9.5 21.1 21.1 21.1 11.6 0 21.1-9.5 21.1-21.1 0-11.7-9.5-21.1-21.1-21.1z"></path><circle cx="312" cy="118.1" r="21.1"></circle><path d="M360.5 145.5c-11.6 0-21.1 9.5-21.1 21.1 0 11.6 9.5 21.1 21.1 21.1s21.1-9.5 21.1-21.1c0-11.7-9.5-21.1-21.1-21.1z"></path><circle cx="360.5" cy="118.1" r="21.1"></circle><path d="M409 145.5c-11.6 0-21.1 9.5-21.1 21.1 0 11.6 9.5 21.1 21.1 21.1 11.6 0 21.1-9.5 21.1-21.1 0-11.7-9.5-21.1-21.1-21.1zM409 97c-11.6 0-21.1 9.5-21.1 21.1s9.5 21.1 21.1 21.1c11.6 0 21.1-9.5 21.1-21.1S420.6 97 409 97zM457.5 145.5c-11.6 0-21.1 9.5-21.1 21.1 0 11.6 9.5 21.1 21.1 21.1s21.1-9.5 21.1-21.1c0-11.7-9.5-21.1-21.1-21.1zM457.5 97c-11.6 0-21.1 9.5-21.1 21.1s9.5 21.1 21.1 21.1 21.1-9.5 21.1-21.1S469.1 97 457.5 97zM505.9 145.5c-11.6 0-21.1 9.5-21.1 21.1 0 11.6 9.5 21.1 21.1 21.1 11.6 0 21.1-9.5 21.1-21.1 0-11.7-9.4-21.1-21.1-21.1zM505.9 97c-11.6 0-21.1 9.5-21.1 21.1s9.5 21.1 21.1 21.1c11.6 0 21.1-9.5 21.1-21.1S517.6 97 505.9 97zM554.4 145.5c-11.6 0-21.1 9.5-21.1 21.1 0 11.6 9.5 21.1 21.1 21.1s21.1-9.5 21.1-21.1c0-11.7-9.4-21.1-21.1-21.1zM554.4 97c-11.6 0-21.1 9.5-21.1 21.1s9.5 21.1 21.1 21.1 21.1-9.5 21.1-21.1S566.1 97 554.4 97zM118.1 0C106.4 0 97 9.5 97 21.1c0 11.6 9.5 21.1 21.1 21.1 11.6 0 21.1-9.5 21.1-21.1 0-11.6-9.5-21.1-21.1-21.1zM166.6 0c-11.6 0-21.1 9.5-21.1 21.1 0 11.6 9.5 21.1 21.1 21.1 11.6 0 21.1-9.5 21.1-21.1 0-11.6-9.5-21.1-21.1-21.1zM263.5 0c-11.6 0-21.1 9.5-21.1 21.1 0 11.6 9.5 21.1 21.1 21.1 11.6 0 21.1-9.5 21.1-21.1 0-11.6-9.4-21.1-21.1-21.1zM312 0c-11.6 0-21.1 9.5-21.1 21.1 0 11.6 9.5 21.1 21.1 21.1 11.6 0 21.1-9.5 21.1-21.1C333.1 9.5 323.6 0 312 0zM409 0c-11.6 0-21.1 9.5-21.1 21.1 0 11.6 9.5 21.1 21.1 21.1 11.6 0 21.1-9.5 21.1-21.1C430.1 9.5 420.6 0 409 0zM457.5 0c-11.6 0-21.1 9.5-21.1 21.1 0 11.6 9.5 21.1 21.1 21.1s21.1-9.5 21.1-21.1c0-11.6-9.5-21.1-21.1-21.1zM602.9 145.5c-11.6 0-21.1 9.5-21.1 21.1 0 11.6 9.5 21.1 21.1 21.1 11.6 0 21.1-9.5 21.1-21.1 0-11.7-9.4-21.1-21.1-21.1zM21.1 193.9C9.5 193.9 0 203.4 0 215s9.5 21.1 21.1 21.1c11.6 0 21.1-9.5 21.1-21.1s-9.5-21.1-21.1-21.1zM69.6 193.9c-11.6 0-21.1 9.5-21.1 21.1s9.5 21.1 21.1 21.1c11.6 0 21.1-9.5 21.1-21.1s-9.5-21.1-21.1-21.1zM118.1 193.9c-11.6 0-21.1 9.5-21.1 21.1s9.5 21.1 21.1 21.1c11.6 0 21.1-9.5 21.1-21.1s-9.5-21.1-21.1-21.1zM166.6 193.9c-11.6 0-21.1 9.5-21.1 21.1s9.5 21.1 21.1 21.1c11.6 0 21.1-9.5 21.1-21.1s-9.5-21.1-21.1-21.1zM215 193.9c-11.6 0-21.1 9.5-21.1 21.1s9.5 21.1 21.1 21.1c11.6 0 21.1-9.5 21.1-21.1s-9.4-21.1-21.1-21.1zM263.5 193.9c-11.6 0-21.1 9.5-21.1 21.1s9.5 21.1 21.1 21.1c11.6 0 21.1-9.5 21.1-21.1s-9.4-21.1-21.1-21.1z"></path><circle cx="312" cy="215" r="21.1"></circle><circle cx="360.5" cy="215" r="21.1"></circle><path d="M409 193.9c-11.6 0-21.1 9.5-21.1 21.1s9.5 21.1 21.1 21.1c11.6 0 21.1-9.5 21.1-21.1s-9.5-21.1-21.1-21.1zM457.5 193.9c-11.6 0-21.1 9.5-21.1 21.1s9.5 21.1 21.1 21.1 21.1-9.5 21.1-21.1-9.5-21.1-21.1-21.1zM505.9 193.9c-11.6 0-21.1 9.5-21.1 21.1s9.5 21.1 21.1 21.1c11.6 0 21.1-9.5 21.1-21.1s-9.4-21.1-21.1-21.1zM554.4 193.9c-11.6 0-21.1 9.5-21.1 21.1s9.5 21.1 21.1 21.1 21.1-9.5 21.1-21.1-9.4-21.1-21.1-21.1zM166.6 242.4c-11.6 0-21.1 9.5-21.1 21.1 0 11.6 9.5 21.1 21.1 21.1 11.6 0 21.1-9.5 21.1-21.1 0-11.6-9.5-21.1-21.1-21.1zM215 242.4c-11.6 0-21.1 9.5-21.1 21.1 0 11.6 9.5 21.1 21.1 21.1 11.6 0 21.1-9.5 21.1-21.1 0-11.6-9.4-21.1-21.1-21.1z"></path><circle cx="312" cy="263.5" r="21.1"></circle><circle cx="360.5" cy="263.5" r="21.1"></circle><path d="M457.5 242.4c-11.6 0-21.1 9.5-21.1 21.1 0 11.6 9.5 21.1 21.1 21.1s21.1-9.5 21.1-21.1c0-11.6-9.5-21.1-21.1-21.1zM505.9 242.4c-11.6 0-21.1 9.5-21.1 21.1 0 11.6 9.5 21.1 21.1 21.1 11.6 0 21.1-9.5 21.1-21.1 0-11.6-9.4-21.1-21.1-21.1zM118.1 290.9c-11.6 0-21.1 9.5-21.1 21.1s9.5 21.1 21.1 21.1c11.6 0 21.1-9.5 21.1-21.1s-9.5-21.1-21.1-21.1zM166.6 290.9c-11.6 0-21.1 9.5-21.1 21.1s9.5 21.1 21.1 21.1c11.6 0 21.1-9.5 21.1-21.1s-9.5-21.1-21.1-21.1zM263.5 290.9c-11.6 0-21.1 9.5-21.1 21.1s9.5 21.1 21.1 21.1c11.6 0 21.1-9.5 21.1-21.1s-9.4-21.1-21.1-21.1zM312 290.9c-11.6 0-21.1 9.5-21.1 21.1s9.5 21.1 21.1 21.1c11.6 0 21.1-9.5 21.1-21.1s-9.5-21.1-21.1-21.1zM409 290.9c-11.6 0-21.1 9.5-21.1 21.1s9.5 21.1 21.1 21.1c11.6 0 21.1-9.5 21.1-21.1s-9.5-21.1-21.1-21.1zM457.5 290.9c-11.6 0-21.1 9.5-21.1 21.1s9.5 21.1 21.1 21.1 21.1-9.5 21.1-21.1-9.5-21.1-21.1-21.1zM166.6 48.5c-11.6 0-21.1 9.5-21.1 21.1 0 11.6 9.5 21.1 21.1 21.1 11.6 0 21.1-9.5 21.1-21.1 0-11.6-9.5-21.1-21.1-21.1zM215 48.5c-11.6 0-21.1 9.5-21.1 21.1 0 11.6 9.5 21.1 21.1 21.1 11.6 0 21.1-9.5 21.1-21.1 0-11.6-9.4-21.1-21.1-21.1zM312 48.5c-11.6 0-21.1 9.5-21.1 21.1 0 11.6 9.5 21.1 21.1 21.1 11.6 0 21.1-9.5 21.1-21.1 0-11.6-9.5-21.1-21.1-21.1zM360.5 48.5c-11.6 0-21.1 9.5-21.1 21.1 0 11.6 9.5 21.1 21.1 21.1s21.1-9.5 21.1-21.1c0-11.6-9.5-21.1-21.1-21.1zM457.5 48.5c-11.6 0-21.1 9.5-21.1 21.1 0 11.6 9.5 21.1 21.1 21.1s21.1-9.5 21.1-21.1c0-11.6-9.5-21.1-21.1-21.1zM505.9 48.5c-11.6 0-21.1 9.5-21.1 21.1 0 11.6 9.5 21.1 21.1 21.1 11.6 0 21.1-9.5 21.1-21.1 0-11.6-9.4-21.1-21.1-21.1z"></path></svg>