<svg data-name="Layer 1" xmlns="http://www.w3.org/2000/svg" viewBox="0 0 617.29 617.29"><path d="m464.09 178.38 48.72-48.72L383.14 0h-1.78l-47.83 47.83 130.56 130.55zM459.26 183.21l.33-.34L327.72 51H188.45l132.21 132.21h138.6zM372.37 0H236.9l-45.07 44.65h135.89L372.37 0zM314.82 186.36l-132.4-132.4-46.82 46.38 132.36 132.37 46.86-46.35zM452.9 189.57H320.66l-43.14 43.14h132.24l43.14-43.14zM438.91 464.09l48.71 48.72 129.67-129.67v-1.78l-47.83-47.83-130.55 130.56zM434.08 459.26l.33.33 131.87-131.87V188.45l-132.2 132.21v138.6zM572.64 191.83v135.89l44.65 44.65V236.9l-44.65-45.07zM430.92 314.82l132.4-132.4-46.38-46.82-132.36 132.36 46.34 46.86zM427.72 320.66l-43.14-43.14v132.24l43.14 43.14V320.66zM153.2 438.91l-48.72 48.71 129.66 129.67h1.78l47.83-47.83L153.2 438.91zM158.03 434.08l-.34.33 131.88 131.87h139.26l-132.2-132.2h-138.6zM244.91 617.29h135.47l45.08-44.65h-135.9l-44.65 44.65zM302.46 430.92l132.4 132.4 46.83-46.38-132.37-132.36-46.86 46.34zM164.38 427.72h132.25l43.14-43.14H207.53l-43.15 43.14zM129.66 104.48 0 234.14v1.78l47.83 47.83L178.38 153.2l-48.72-48.72zM183.21 158.03l-.34-.34L51 289.57v139.26l132.21-132.2v-138.6zM0 380.38l44.65 45.08v-135.9L0 244.91v135.47zM186.36 302.46l-132.4 132.4 46.38 46.83 132.37-132.37-46.35-46.86zM189.57 296.63l43.14 43.14V207.53l-43.14-43.15v132.25z"></path></svg>