<svg xmlns="http://www.w3.org/2000/svg" width="609.2" viewBox="0 0 609.2 358.9" height="358.9" xml:space="preserve"><path d="M438.6 312.1c31.5-33.1 50.8-78 50.8-127.3C489.4 82.8 406.7 0 304.6 0S119.7 82.8 119.7 184.8c0 49.3 19.3 94.1 50.8 127.3H0v15.2h214.5c-3.9-4.8-7.3-9.9-10.4-15.2-9.7-16.9-15.2-36.5-15.2-57.4 0-63.9 51.8-115.7 115.7-115.7s115.7 51.8 115.7 115.7c0 20.9-5.5 40.5-15.2 57.4-3.1 5.4-6.5 10.5-10.4 15.2h214.5v-15.2H438.6z"></path><path d="M357.8 343.6c.9-.6 1.9-1.2 2.8-1.8 6.2-4.2 11.8-9 16.9-14.4 4.4-4.7 8.3-9.8 11.8-15.2 9.7-15.4 15.3-33.6 15.3-53.1 0-55.2-44.8-100-100-100s-100 44.8-100 100c0 19.5 5.6 37.7 15.3 53.1 3.4 5.5 7.4 10.6 11.8 15.2 5.1 5.4 10.7 10.3 16.9 14.4.9.6 1.9 1.2 2.8 1.8H0v15.2h300.2V344c-3.7-.3-7.3-1.1-10.7-2.2-8.5-2.8-16-7.8-21.7-14.4-3.9-4.4-7-9.6-9-15.2-1.9-5.2-3-10.9-3-16.8 0-27 21.9-48.9 48.9-48.9s48.9 21.9 48.9 48.9c0 5.9-1.1 11.6-3 16.8-2.1 5.6-5.2 10.8-9 15.2-5.7 6.6-13.2 11.7-21.7 14.4-3.4 1.1-7 1.9-10.7 2.2v14.9h300.2v-15.2H357.8z"></path></svg>