<svg data-name="Layer 1" xmlns="http://www.w3.org/2000/svg" viewBox="0 0 618.67 618.67"><rect width="101.36" viewBox="0 0 101.36 101.36" height="101.36" rx="11.22" ry="11.22"></rect><rect x="129.33" width="101.36" height="101.36" rx="11.22" ry="11.22"></rect><rect x="258.65" width="101.36" height="101.36" rx="11.22" ry="11.22"></rect><rect x="387.98" width="101.36" height="101.36" rx="11.22" ry="11.22"></rect><rect x="517.31" width="101.36" height="101.36" rx="11.22" ry="11.22"></rect><rect y="129.33" width="101.36" height="101.36" rx="11.22" ry="11.22"></rect><rect x="129.33" y="129.33" width="101.36" height="101.36" rx="11.22" ry="11.22"></rect><rect x="258.65" y="129.33" width="101.36" height="101.36" rx="11.22" ry="11.22"></rect><rect x="387.98" y="129.33" width="101.36" height="101.36" rx="11.22" ry="11.22"></rect><rect x="517.31" y="129.33" width="101.36" height="101.36" rx="11.22" ry="11.22"></rect><rect y="258.65" width="101.36" height="101.36" rx="11.22" ry="11.22"></rect><rect x="129.33" y="258.65" width="101.36" height="101.36" rx="11.22" ry="11.22"></rect><rect x="258.65" y="258.65" width="101.36" height="101.36" rx="11.22" ry="11.22"></rect><rect x="387.98" y="258.65" width="101.36" height="101.36" rx="11.22" ry="11.22"></rect><rect x="517.31" y="258.65" width="101.36" height="101.36" rx="11.22" ry="11.22"></rect><rect y="387.98" width="101.36" height="101.36" rx="11.22" ry="11.22"></rect><rect x="129.33" y="387.98" width="101.36" height="101.36" rx="11.22" ry="11.22"></rect><rect x="258.65" y="387.98" width="101.36" height="101.36" rx="11.22" ry="11.22"></rect><rect x="387.98" y="387.98" width="101.36" height="101.36" rx="11.22" ry="11.22"></rect><rect x="517.31" y="387.98" width="101.36" height="101.36" rx="11.22" ry="11.22"></rect><rect y="517.31" width="101.36" height="101.36" rx="11.22" ry="11.22"></rect><rect x="129.33" y="517.31" width="101.36" height="101.36" rx="11.22" ry="11.22"></rect><rect x="258.65" y="517.31" width="101.36" height="101.36" rx="11.22" ry="11.22"></rect><rect x="387.98" y="517.31" width="101.36" height="101.36" rx="11.22" ry="11.22"></rect><rect x="517.31" y="517.31" width="101.36" height="101.36" rx="11.22" ry="11.22"></rect></svg>