<svg xmlns="http://www.w3.org/2000/svg" width="627.6" viewBox="0 0 627.6 627.1" height="627.1" xml:space="preserve" style="enable-background:new 0 0 627.6 627.1"><path d="M444 0c-44.7 0-85.6 15.9-117.4 42.5 26.6 26.9 45.6 61.2 53.7 99.5 13.6-20.8 37-34.5 63.7-34.5 42 0 76.1 34.1 76.1 76.1 0 42-34.1 76.1-76.1 76.1-26.6 0-50.1-13.7-63.7-34.4-8.1 38.4-27.1 72.7-53.6 99.6 31.8 26.5 72.7 42.4 117.3 42.4 101.4 0 183.7-82.2 183.7-183.6C627.6 82.2 545.4 0 444 0z"></path><path d="M141.4 246.9c-20.4-13.7-33.8-36.9-33.8-63.3 0-42 34.1-76.1 76.1-76.1 42 0 76.1 34.1 76.1 76.1 0 26.4-13.4 49.6-33.8 63.3 38.2 8.2 72.4 27.2 99.2 53.8 26.3-31.8 42.2-72.6 42.2-117.1C367.3 82.2 285.1 0 183.6 0 82.2 0 0 82.2 0 183.6c0 44.5 15.8 85.3 42.2 117.1 26.7-26.5 60.9-45.6 99.2-53.8z"></path><path d="M246.5 486.4c-13.7 20-36.7 33.1-62.8 33.1-42 0-76.1-34.1-76.1-76.1s34.1-76.1 76.1-76.1c26.2 0 49.3 13.2 63 33.4 8.4-38.1 27.5-72.1 54.1-98.7-31.8-26.3-72.6-42.2-117.1-42.2C82.2 259.8 0 342 0 443.4 0 544.8 82.2 627 183.6 627c44.2 0 84.8-15.6 116.5-41.7-26.4-26.6-45.4-60.7-53.6-98.9z"></path><path d="M485.6 380.4c20.2 13.7 33.4 36.8 33.4 63 0 42-34.1 76.1-76.1 76.1-42 0-76.1-34.1-76.1-76.1 0-26.5 13.5-49.7 34-63.4-38.1-8.4-72.2-27.6-98.9-54.2-26.6 31.9-42.6 72.9-42.6 117.6 0 101.4 82.2 183.6 183.6 183.6 101.4 0 183.6-82.2 183.6-183.6 0-44.2-15.6-84.7-41.6-116.4-26.8 26.4-61 45.4-99.3 53.4z"></path></svg>