<svg xmlns="http://www.w3.org/2000/svg" width="600.9" viewBox="0 0 600.9 411.7" height="411.7" xml:space="preserve"><path d="M315.6 154.8c28 0 50.8 22.8 50.8 50.8 0 28-22.8 50.8-50.8 50.8-28 0-50.8-22.8-50.8-50.8 0-28 22.8-50.8 50.8-50.8M448 52.3C412.6 20.6 359.8.1 313.5 0h-.4C266.8.1 214 20.6 178.6 52.3c-8.1 7.2-15.9 14.9-23.4 22.2-20.4 20-39.7 38.9-63.2 48.9-15.1 6.4-45 6.7-60.8 6.9H0V184h31.5c28.6-.3 58.4-1.4 81.4-11.2 32.8-13.9 56.7-37.3 79.8-60 7.4-7.3 14.4-14.1 21.6-20.6 25.8-23.1 65.5-38.6 98.9-38.6 33.4 0 73.1 15.6 98.9 38.6 6.8 6.1 67 66.8 113.3 113.7-64.3 65-108 108.8-113.3 113.4-25.8 23.1-65.5 38.6-98.9 38.6-33.4 0-73.1-15.6-98.9-38.6-7.2-6.4-14.2-13.3-21.6-20.6-12.1-11.9-24.5-24-38.3-34.8 19-7.3 39.4-17.7 60-32.4 11.6 45 52.5 78.5 101.1 78.5 57.6 0 104.5-46.9 104.5-104.5S373.1 101 315.5 101c-33.9 0-64 16.3-83.2 41.4-66.8 78.5-138.3 83.8-172.4 85.3.1.1-59.9 0-59.9 0v53.7h31c19.5 0 42.8-.8 61 6.9 23.5 9.9 42.8 28.9 63.2 48.9 7.5 7.4 15.3 15 23.4 22.2 35.4 31.7 88.2 52.2 134.5 52.3h.4c46.3-.1 99.1-20.6 134.5-52.3 9.6-8.6 152.9-153.4 152.9-153.4S459.7 62.7 448 52.3"></path></svg>