<svg xmlns="http://www.w3.org/2000/svg" width="642" viewBox="0 0 642 642" height="642" style="overflow:visible;enable-background:new 0 0 642 642" xml:space="preserve"><path d="M642 321c0 177.3-143.7 321-321 321S0 498.3 0 321 143.7 0 321 0s321 143.7 321 321zm-56 108c24.8-57.2 33.2-143.5.8-210.7-29.3-60.8-128.1-128-284.6-45.6-70.1 36.9-130.3 110.1-201 128.1 0 0-29.3 7.5-41.9-6.7-19.2-21.5 6.6-78.5 90.8-81.1 141.3-4.3 151.5-129.1 128.8-96.8-16.4 23.2-74.4 9.7-84.4 3.9-11.8-6.9-18.2-3.4-21.9-2.5-4.5 1.1-4.2-2.1-2.3-3.5 4.9-3.4-2.2-22.8 7.1-31.9 8.6-8.4 4-11.5 0-9.3-172.6 92.4-187.7 357-55 437 174.6 105.3 315.2 8.7 358.7-19.7 24.5-15.8 67.5 25.1 104.9-61.2z"></path><circle cx="460.6" cy="466.3" r="14.4"></circle></svg>