<svg data-name="Layer 1" xmlns="http://www.w3.org/2000/svg" viewBox="0 0 601.64 601.64"><path d="M173.58 75.82c-2.17 3.65-4.21 7.4-6.08 11.24v128.87c1.87 3.84 3.91 7.58 6.08 11.24V75.82ZM192.19 50.64c-2.1 2.31-4.12 4.71-6.08 7.15V245.2c1.96 2.44 3.97 4.84 6.08 7.15V50.64ZM210.8 33.33c-2.07 1.64-4.1 3.32-6.08 5.06v226.2c1.98 1.74 4.01 3.42 6.08 5.06V33.33ZM229.41 20.7a156.26 156.26 0 0 0-6.08 3.7v254.19c2 1.28 4.02 2.51 6.08 3.7V20.7ZM248.02 11.54c-2.05.84-4.07 1.73-6.08 2.66v274.59c2.01.93 4.03 1.82 6.08 2.66V11.54ZM266.64 5.26c-2.04.55-4.07 1.11-6.08 1.73v289c2.01.63 4.04 1.19 6.08 1.73V5.26Z"></path><path d="M601.64 6.08V0H297.78v297.78h-12.53V2.28c-2.04.28-4.07.61-6.08.98v294.52h-124.2V0h-6.08v297.78h-12.53V0h-6.08v297.78h-12.53V0h-6.08v297.78H99.14V0h-6.08v297.78H80.53V0h-6.08v297.78H61.92V0h-6.08v297.78H43.31V0h-6.08v297.78H24.7V0h-6.08v297.78H6.08V0H0v303.86h297.78v12.53H2.28c.28 2.04.61 4.07.98 6.08h294.52v124.2H0v6.08h297.78v12.53H0v6.08h297.78v12.53H0v6.08h297.78v12.53H0v6.08h297.78v12.53H0v6.08h297.78v12.53H0v6.08h297.78v12.53H0v6.08h297.78v12.53H0v6.08h297.78v12.53H0v6.08h303.86V303.86h12.53v295.5c2.04-.28 4.07-.61 6.08-.98V303.86h124.2v297.78h6.08V303.86h12.53v297.78h6.08V303.86h12.53v297.78h6.08V303.86h12.53v297.78h6.08V303.86h12.53v297.78h6.08V303.86h12.53v297.78h6.08V303.86h12.53v297.78h6.08V303.86h12.53v297.78h6.08V303.86h12.53v297.78h6.08V297.78H303.86v-12.53h295.5c-.28-2.04-.62-4.07-.98-6.08H303.86v-124.2h297.78v-6.08H303.86v-12.53h297.78v-6.08H303.86v-12.53h297.78v-6.08H303.86V99.14h297.78v-6.08H303.86V80.53h297.78v-6.08H303.86V61.92h297.78v-6.08H303.86V43.31h297.78v-6.08H303.86V24.7h297.78v-6.08H303.86V6.08h297.78Z"></path><path d="M385.71 167.5c-3.84 1.87-7.58 3.91-11.24 6.08h151.34c-3.65-2.17-7.4-4.21-11.24-6.08H385.7ZM349.29 192.19h201.7c-2.31-2.11-4.71-4.12-7.15-6.08h-187.4c-2.44 1.96-4.84 3.97-7.15 6.08ZM331.98 210.8H568.3c-1.64-2.07-3.32-4.1-5.06-6.08h-226.2c-1.74 1.98-3.42 4.01-5.06 6.08ZM319.34 229.41h261.6a156.26 156.26 0 0 0-3.7-6.08H323.05c-1.28 2-2.51 4.02-3.7 6.08ZM310.19 248.02H590.1c-.84-2.05-1.73-4.07-2.66-6.08H312.85c-.93 2.01-1.82 4.03-2.66 6.08ZM303.91 266.64h292.46c-.55-2.04-1.11-4.07-1.73-6.08h-289c-.63 2.01-1.19 4.04-1.73 6.08ZM428.06 525.81c2.17-3.65 4.21-7.4 6.08-11.24V385.7c-1.87-3.84-3.91-7.58-6.08-11.24V525.8ZM409.44 550.99c2.11-2.31 4.12-4.71 6.08-7.15v-187.4c-1.96-2.44-3.97-4.84-6.08-7.15v201.7ZM390.83 568.3c2.07-1.64 4.1-3.32 6.08-5.06v-226.2c-1.98-1.74-4.01-3.42-6.08-5.06V568.3ZM372.22 580.94c2.06-1.19 4.08-2.42 6.08-3.7V323.05c-2-1.28-4.02-2.51-6.08-3.7v261.59ZM353.61 590.09c2.05-.84 4.07-1.73 6.08-2.66V312.85c-2.01-.93-4.03-1.82-6.08-2.66V590.1ZM335 596.37c2.04-.55 4.07-1.11 6.08-1.73v-289c-2.01-.63-4.04-1.19-6.08-1.73v292.46ZM215.93 434.14c3.84-1.87 7.58-3.91 11.24-6.08H75.82c3.65 2.17 7.4 4.21 11.24 6.08h128.87ZM252.35 409.44H50.64c2.31 2.11 4.71 4.12 7.15 6.08H245.2c2.44-1.96 4.84-3.97 7.15-6.08ZM269.66 390.83H33.33c1.64 2.07 3.32 4.1 5.06 6.08h226.2c1.74-1.98 3.42-4.01 5.06-6.08ZM282.29 372.22H20.7c1.19 2.06 2.42 4.08 3.7 6.08h254.19c1.28-2 2.51-4.02 3.7-6.08ZM291.45 353.61H11.54c.84 2.05 1.73 4.07 2.66 6.08h274.59c.93-2.01 1.82-4.03 2.66-6.08ZM297.72 335H5.26c.55 2.04 1.11 4.07 1.73 6.08h289c.63-2.01 1.19-4.04 1.73-6.08Z"></path></svg>