<svg xmlns="http://www.w3.org/2000/svg" width="616.4" viewBox="0 0 616.4 616.4" height="616.4" style="enable-background:new 0 0 616.4 616.4" xml:space="preserve"><path d="M238.4 333 31.6 406.2c-4.1 1.5-7 4.7-7.9 8.9L21 427.2l10.4 6.6c3.7 2.3 8 2.6 11.9.7L241.4 340c6-2.9 11.3 6.3 5.8 10.1L66.4 474.4c-3.6 2.5-5.5 6.3-5.3 10.7l.5 12.4 11.8 3.7c4.2 1.3 8.4.5 11.7-2.4l166.8-142.5c11-9.4.2-28.2-13.5-23.3m83.3-97.6 40-215.7c.8-4.3-.6-8.4-3.8-11.3L348.8 0l-11 5.7c-3.9 2-6.2 5.6-6.6 10L314 234.4c-.5 6.6-11.1 6.6-11.6 0L285.2 15.7c-.3-4.4-2.7-7.9-6.6-10l-11-5.7-9.1 8.4c-3.2 3-4.6 7-3.8 11.3l40 215.7c2.7 14.2 24.4 14.2 27 0zm-46.6 3.4L181.9 43.3c-1.9-3.9-1.6-8.2.7-11.9l6.6-10.4 12.1 2.7c4.3.9 7.5 3.8 8.9 7.9l72 203.2c8.5 24 43.5 24 52 0l72-203.2c1.5-4.1 4.7-7 8.9-7.9l12.1-2.7 6.6 10.4c2.3 3.7 2.6 8 .7 11.9l-93.2 195.4c-13.1 27.6-53.1 27.6-66.2.1zM485.1 61l12.4.5 3.7 11.8c1.3 4.2.5 8.4-2.4 11.7L357.9 250c-25.9 30.3-73.5 30.3-99.4 0L117.6 85c-2.8-3.3-3.7-7.5-2.4-11.7l3.7-11.8 12.4-.5c4.4-.2 8.2 1.7 10.7 5.3l121.2 176.3c21.5 31.2 68.6 31.2 90.1 0L474.4 66.4c2.5-3.6 6.4-5.5 10.7-5.4zM264.6 371.6 142 550.1c-2.5 3.6-6.3 5.5-10.7 5.3l-12.4-.5-3.7-11.8c-1.3-4.2-.5-8.4 2.4-11.7l140-163.9c16.5-19.3-1-49.7-26-45L19.7 361.7c-4.3.8-8.4-.6-11.3-3.8L0 348.8l5.7-11c2-3.9 5.6-6.2 10-6.6l215.9-17c30.3-2.3 50.3 32.3 33 57.4zm-258.9-93-5.7-11 8.4-9.1c3-3.2 7-4.6 11.3-3.8L233 294.3c39.2 7.3 63 48.5 49.7 86.1l-72.4 204.5c-1.5 4.1-4.7 7-8.9 7.9l-12.1 2.7-6.6-10.4c-2.3-3.7-2.6-8-.7-11.9L274 380c16.3-34.2-7.3-75-45-78L15.7 285.2c-4.4-.3-8-2.7-10-6.6zm296.9 100.6-17.4 221.6c-.3 4.4-2.7 7.9-6.6 10l-11 5.7-9.1-8.4c-3.2-3-4.6-7-3.8-11.3L294 384.9c8.2-44-17.1-87.7-59.3-102.6l-203.1-72c-4.1-1.5-7-4.7-7.9-8.9L21 189.3l10.4-6.6c3.7-2.3 8-2.6 11.9-.7l200.6 95.7c38.7 18.3 62.1 58.8 58.7 101.5zm62-22.8 166.8 142.5c3.3 2.8 7.5 3.7 11.7 2.4l11.8-3.7.5-12.4c.2-4.4-1.7-8.2-5.3-10.7L369.2 350.2c-5.5-3.8-.2-12.9 5.8-10.1l198.1 94.5c3.9 1.9 8.2 1.6 11.9-.7l10.4-6.6-2.7-12.1c-.9-4.3-3.8-7.5-7.9-8.9L378.1 333c-13.7-4.9-24.6 13.9-13.5 23.4zm20.3-42.1 215.9 17c4.4.3 7.9 2.7 10 6.6l5.7 11-8.4 9.1c-3 3.2-7 4.6-11.3 3.8l-211.9-39.3c-25-4.6-42.5 25.7-26 45.1l140 163.9c2.8 3.3 3.7 7.5 2.4 11.7l-3.7 11.8-12.4.5c-4.4.2-8.2-1.7-10.7-5.3L351.8 371.6c-17.3-25.1 2.7-59.7 33.1-57.3zM433.8 585l-6.6 10.4-12.1-2.7c-4.3-.9-7.5-3.8-8.9-7.9l-72.4-204.5c-13.3-37.5 10.5-78.8 49.7-86.1l213.3-39.5c4.3-.8 8.4.6 11.3 3.8l8.4 9.1-5.7 11c-2 3.9-5.6 6.2-10 6.6L387.5 302c-37.8 3-61.3 43.8-45 78l92.1 193.1c1.8 3.9 1.6 8.2-.8 11.9zm-61.3-307.4 200.6-95.7c3.9-1.9 8.2-1.6 11.9.7l10.4 6.6-2.7 12.1c-.9 4.3-3.8 7.5-7.9 8.9l-203.2 71.9c-42.2 14.9-67.4 58.6-59.3 102.6l39.3 211.9c.8 4.3-.6 8.4-3.8 11.3l-9.1 8.4-11-5.7c-3.9-2-6.2-5.6-6.6-10L313.7 379c-3.2-42.5 20.2-83 58.8-101.4zm-123-9.7L66.4 142c-3.6-2.5-5.5-6.3-5.3-10.7l.5-12.4 11.8-3.7c4.2-1.3 8.4-.5 11.7 2.4l163.9 140c34 29.1 84.5 29.1 118.5 0l163.9-140c3.3-2.8 7.5-3.7 11.7-2.4l11.8 3.7.5 12.4c.2 4.4-1.7 8.2-5.3 10.7L366.9 267.9c-35.3 24.2-82.1 24.2-117.4 0z" style="fill-rule:evenodd;clip-rule:evenodd"></path></svg>