<svg data-name="Layer 1" xmlns="http://www.w3.org/2000/svg" viewBox="0 0 586.79 392.62"><path d="M149.68 277.96h107.16c10.54 0 20.76-3.69 28.87-10.42L511.29 80.19c13.9-11.54 5.74-34.14-12.33-34.14h-73.17c-10.02 0-19.72 3.5-27.43 9.9l-252.99 210.1c-4.84 4.02-2 11.9 4.3 11.9ZM517.06 288.25H146.57c-11.51 0-20.93 9.42-20.93 20.93s9.42 20.93 20.93 20.93h370.5c11.51 0 20.93-9.42 20.93-20.93s-9.42-20.93-20.93-20.93Z"></path><circle cx="79.67" cy="301.28" r="32.59" transform="rotate(-67.5 79.674 301.289)"></circle><circle cx="79.67" cy="225.13" r="32.59" transform="rotate(-13.28 79.705 225.16)"></circle><path d="M542.15 0H44.64C20.02 0 0 20.02 0 44.64v303.34c0 24.62 20.02 44.64 44.64 44.64h497.52c24.61 0 44.63-20.02 44.63-44.64V44.64C586.79 20.03 566.77 0 542.16 0Zm28 347.98c0 15.44-12.56 28.01-28 28.01H44.64c-15.44 0-28-12.56-28-28.01V44.64c0-15.44 12.56-28 28-28h497.52c15.44 0 28 12.56 28 28v303.34Z"></path></svg>