<svg data-name="Layer 1" xmlns="http://www.w3.org/2000/svg" viewBox="0 0 624.44 624.44"><path d="M0 0h51.31v624.44H0zM68.41 0h42.76v624.44H68.41zM128.27 0h34.21v624.44h-34.21zM179.58 0h29.93v624.44h-29.93zM226.61 0h25.65v157.46h-25.65zM271.5 0h19.24v157.46H271.5zM307.85 0h17.1v157.46h-17.1zM342.05 0h12.83v157.46h-12.83zM371.98 0h8.55v157.46h-8.55zM397.83 0h34.21v624.44h-34.21zM449.14 0h29.93v624.44h-29.93zM496.17 0h25.65v624.44h-25.65zM541.06 0h19.24v624.44h-19.24zM577.4 0h17.1v624.44h-17.1zM611.61 0h12.83v624.44h-12.83zM226.61 233.49h25.65v157.46h-25.65zM271.5 233.49h19.24v157.46H271.5zM307.85 233.49h17.1v157.46h-17.1zM342.05 233.49h12.83v157.46h-12.83zM371.98 233.49h8.55v157.46h-8.55zM226.61 466.98h25.65v157.46h-25.65zM271.5 466.98h19.24v157.46H271.5zM307.85 466.98h17.1v157.46h-17.1zM342.05 466.98h12.83v157.46h-12.83zM371.98 466.98h8.55v157.46h-8.55z"></path></svg>