<svg data-name="Layer 1" xmlns="http://www.w3.org/2000/svg" viewBox="0 0 612.92 618.3"><path d="M522.53 251.87c-25.3-94.15-111.35-163.68-213.38-163.68-121.84 0-220.96 99.12-220.96 220.95S187.31 530.1 309.15 530.1c102.03 0 188.09-69.53 213.39-163.68h-78.85c-22.17 53-74.12 90.29-134.54 90.29-80.5 0-145.99-66.2-145.99-147.56s65.49-147.56 145.99-147.56c60.41 0 112.37 37.28 134.54 90.28h78.85Z"></path><path d="M539.11 366.42c-25.69 103.09-119.03 179.72-229.96 179.72-130.68 0-237-106.32-237-237s106.32-236.99 237-236.99c110.93 0 204.27 76.63 229.96 179.72h73.81C586.05 108.51 460.31 0 309.15 0 138.41 0 0 138.41 0 309.15S138.41 618.3 309.15 618.3c151.16 0 276.9-108.51 303.77-251.87h-73.81Z"></path><path d="M309.15 251.87h116.8c-21.09-43.86-65.44-74.24-116.8-74.24-71.65 0-129.95 59-129.95 131.52s58.29 131.52 129.95 131.52c51.35 0 95.71-30.38 116.8-74.24h-116.8c-31.63 0-57.28-25.64-57.28-57.28s25.64-57.28 57.28-57.28Z"></path></svg>