<svg xmlns="http://www.w3.org/2000/svg" width="634.1" viewBox="0 0 634.1 587.4" height="587.4" xml:space="preserve" style="enable-background:new 0 0 634.1 587.4"><path d="M451.9 77.8C425.3 31.3 374.5 0 317.1 0c-57.4 0-108.2 31.3-134.9 77.8l-3.9 6.7L318.6 168l138-82.2-4.7-8zm-133.3 46.4c-23.7 0-43-19.2-43-43 0-23.7 19.2-43 43-43 23.7 0 43 19.2 43 43s-19.3 43-43 43"></path><path d="M617.3 362.7 476 119.2l-90.3 54.7v118.7c-19.7-9.1-43.9-14.2-67-14.2s-47.3 5.1-67 14.2V173.8l-92.6-56L16.8 362.7C6.1 383.7 0 407.6 0 432.8c0 85.4 69.2 154.5 154.5 154.5h325c85.3 0 154.5-69.2 154.5-154.5.1-25.2-6-49.1-16.7-70.1M479.6 554.8c-31.4 0-60-11.9-81.6-31.4-21.6 19.5-50.3 31.4-81.6 31.4-31 0-59.3-11.6-80.9-30.8-21.6 19.1-49.9 30.8-80.9 30.8-67.3 0-122-54.7-122-122s54.7-122 122-122c31 0 59.3 11.7 80.9 30.8 21.6-19.1 49.9-30.8 80.9-30.8 31.4 0 60 11.9 81.6 31.4 21.6-19.5 50.3-31.4 81.6-31.4 67.3 0 122 54.7 122 122s-54.8 122-122 122"></path><path d="M154.5 336.4c-53.2 0-96.5 43.3-96.5 96.5s43.3 96.5 96.5 96.5c24.4 0 46.7-9.1 63.7-24.1-15-20.3-23.9-45.3-23.9-72.4 0-27.1 8.9-52.1 23.9-72.4-17-15-39.3-24.1-63.7-24.1M316.3 336.4c-24.4 0-46.7 9.1-63.7 24.1 15 20.3 23.9 45.3 23.9 72.4 0 27.1-8.9 52.1-23.9 72.4 17 15 39.3 24.1 63.7 24.1 24.8 0 47.4-9.4 64.5-24.9-14.7-20.1-23.3-44.9-23.3-71.6 0-26.7 8.7-51.5 23.3-71.6-17-15.5-39.7-24.9-64.5-24.9M219.9 432.8c0 19.3 5.7 37.3 15.6 52.5 9.8-15.1 15.6-33.1 15.6-52.5s-5.7-37.3-15.6-52.4c-9.9 15.1-15.6 33.1-15.6 52.4M383.1 432.8c0 18.9 5.5 36.4 14.8 51.3 9.4-14.9 14.8-32.5 14.8-51.3 0-18.9-5.5-36.4-14.8-51.3-9.3 14.9-14.8 32.5-14.8 51.3M479.6 336.4c-24.8 0-47.4 9.4-64.5 24.8 14.6 20.1 23.3 44.9 23.3 71.6 0 26.7-8.7 51.5-23.3 71.6 17.1 15.4 39.7 24.9 64.5 24.9 53.2 0 96.5-43.3 96.5-96.5-.1-53.1-43.3-96.4-96.5-96.4"></path></svg>