<svg data-name="Layer 1" xmlns="http://www.w3.org/2000/svg" viewBox="0 0 607.41 577.94"><path d="M213.17 0 0 279.59v19.38L213.17 19.38V0zM213.17 46.49 0 326.09v19.38l213.17-279.6V46.49zM213.17 92.99 0 372.58v19.38l213.17-279.59V92.99zM213.17 139.48 0 419.08v19.37l213.17-279.59v-19.38zM213.17 185.98 0 465.57v19.38l213.17-279.59v-19.38zM213.17 232.47 0 512.06v19.38l213.17-279.59v-19.38zM0 558.56v19.38L426.34 19.38v27.11l-213.17 279.6v19.38l213.17-279.6v27.12L213.17 372.58v19.38l213.17-279.59v27.11l-213.17 279.6v19.37l213.17-279.59v27.12L213.17 465.57v19.38l213.17-279.59v27.11L213.17 512.06v19.38l213.17-279.59v27.12L213.17 558.56v19.38l213.17-279.59v279.59h11.81V0h-11.81L0 558.56zM595.6 0h11.81v577.94H595.6zM567.39 0h11.81v577.94h-11.81zM539.18 0h11.81v577.94h-11.81zM510.97 0h11.81v577.94h-11.81zM482.76 0h11.81v577.94h-11.81zM454.55 0h11.81v577.94h-11.81z"></path></svg>