<svg data-name="Layer 1" xmlns="http://www.w3.org/2000/svg" viewBox="0 0 622.25 508.04"><circle cx="311.13" cy="277.67" r="58.98"></circle><path d="M311.13 363c-47.13 0-85.33-38.2-85.33-85.33h-32.03c0 41.08 21.15 77.18 53.11 98.15v69.12c0 34.71 28.4 63.1 63.1 63.1s63.1-28.4 63.1-63.1v-67.72c33.23-20.73 55.42-57.5 55.42-99.55h-32.03c0 47.13-38.2 85.33-85.33 85.33Z"></path><path d="M91.6 214.23c-2.21-.04-24.5.14-42.32.29-12.44.1-22.47 10.22-22.47 22.66v196.43c0 37.06 26.91 70.33 63.79 74.06 42.33 4.28 78.37-29.21 78.37-70.71V242.62c82.5-33.89 140.86-114.49 142.15-208.94h-45.06c-1.65 97.03-78.27 175.59-174.46 180.56Z"></path><circle cx="91.94" cy="91.94" r="91.94" transform="rotate(-13.28 91.9486687 91.93673273)"></circle><path d="M572.96 214.52c-17.82-.15-40.1-.32-42.32-.29-96.19-4.96-172.8-83.52-174.46-180.56h-45.06c1.29 94.45 59.65 175.05 142.15 208.94v194.35c0 41.5 36.04 74.99 78.37 70.71 36.88-3.73 63.79-36.99 63.79-74.06V237.19c0-12.44-10.02-22.56-22.47-22.66Z"></path><circle cx="530.31" cy="91.94" r="91.94" transform="rotate(-45 530.30328643 91.9411866)"></circle></svg>