<svg data-name="Layer 1" xmlns="http://www.w3.org/2000/svg" viewBox="0 0 612.2 372.16"><path d="M0 124.38v117.45l47.46 47.94v82.39h102.98v-82.39l47.46-47.94V124.38l-98.95 99.93L0 124.38z"></path><circle cx="98.95" cy="126.68" r="58.75" transform="rotate(-13.28 98.95824539 126.70858243)"></circle><path d="M55.76 1.29 0 57.61l38.16 38.54C49.36 73.9 72.34 58.6 98.95 58.6s49.59 15.3 60.79 37.55l38.16-38.54-55.76-56.32H55.76ZM207.15 124.38v117.45l47.47 47.94v82.39h102.97v-82.39l47.46-47.94V124.38l-98.95 99.93-98.95-99.93z"></path><circle cx="306.1" cy="126.68" r="58.75" transform="rotate(-13.28 306.1754307 126.71367893)"></circle><path d="M262.91 1.29 207.15 57.6l38.16 38.54c11.2-22.25 34.18-37.55 60.79-37.55s49.59 15.3 60.79 37.55l38.16-38.54-55.76-56.31h-86.38ZM414.3 123.08v117.46l47.47 47.93v82.39h102.97v-82.39l47.46-47.93V123.08l-98.95 99.94-98.95-99.94z"></path><circle cx="513.25" cy="125.39" r="58.75" transform="rotate(-45 513.2552251 125.3827248)"></circle><path d="M513.25 57.3c26.61 0 49.59 15.3 60.79 37.55l38.16-38.54L556.45 0h-86.38l-55.76 56.31 38.16 38.54c11.2-22.25 34.18-37.55 60.79-37.55Z"></path></svg>