<svg id="Layer_1" data-name="Layer 1" xmlns="http://www.w3.org/2000/svg" viewBox="0 0 449.98 601.95">   <path d="M176.4,158.33h8.89v-27.19h-12.05c-7.96,0-14.42,6.46-14.42,14.42v30.35c0-9.67,7.91-17.58,17.58-17.58Z"></path>   <path d="M26.47,61.13l-12.29,7.1C5.4,73.29,0,82.65,0,92.78v195.73H26.47V61.13Z"></path>   <path d="M0,405.04c0,10.13,5.4,19.49,14.18,24.55l12.29,7.1v-68.37H0v36.72Z"></path>   <polygon points="79.41 30.56 52.94 45.85 52.94 288.51 79.41 288.51 79.41 30.56"></polygon>   <polygon points="52.94 451.97 79.41 467.25 79.41 368.32 52.94 368.32 52.94 451.97"></polygon>   <path d="M105.88,516.82c0,10.13,5.4,19.49,14.18,24.55l12.29,7.1v-180.15h-26.47v148.5Z"></path>   <polygon points="132.35 0 105.88 15.28 105.88 288.51 132.35 288.51 132.35 0"></polygon>   <polygon points="344.1 15.28 317.63 0 317.63 288.51 344.1 288.51 344.1 15.28"></polygon>   <path d="M317.63,548.47l12.29-7.1c8.77-5.06,14.18-14.42,14.18-24.55v-148.5h-26.47v180.15Z"></path>   <polygon points="397.04 45.85 370.57 30.56 370.57 288.51 397.04 288.51 397.04 45.85"></polygon>   <polygon points="370.57 467.25 397.04 451.97 397.04 368.32 370.57 368.32 370.57 467.25"></polygon>   <path d="M435.81,68.23l-12.29-7.1v227.39h26.47V92.78c0-10.13-5.4-19.49-14.18-24.55Z"></path>   <path d="M423.51,436.69l12.29-7.1c8.77-5.06,14.18-14.42,14.18-24.55v-36.72h-26.47v68.37Z"></path>   <rect x="158.82" y="226.3" width="26.47" viewBox="0 0 26.47 62.22" height="62.22"></rect>   <polygon points="158.82 563.75 185.29 579.03 185.29 368.32 158.82 368.32 158.82 563.75"></polygon>   <polygon points="264.7 579.03 291.17 563.75 291.17 368.32 264.7 368.32 264.7 579.03"></polygon>   <path d="M291.17,157.61c0-14.62-11.85-26.47-26.47-26.47v157.38h26.47V157.61Z"></path>   <path d="M238.23,162.38c-2.38,4.93-7.39,8.37-13.23,8.37s-10.85-3.43-13.23-8.37v152.61H0v26.87H211.76v252.46l13.23,7.64,13.23-7.64v-252.46h211.76v-26.87H238.23V162.38Z"></path>   <rect x="211.76" y="131.14" width="26.47" height="26.15"></rect> </svg>