<svg data-name="Layer 1" xmlns="http://www.w3.org/2000/svg" viewBox="0 0 606.49 588.4"><path d="M540.45 0v343.99c-22.93-30.2-59.12-49.79-99.96-49.79s-77.03 19.59-99.96 49.79V0H0v588.4h606.49V0h-66.04Zm40.42 562.79H25.62V25.62h289.29v394.16c0 69.36 56.22 125.58 125.58 125.58s125.58-56.22 125.58-125.58V25.62h14.81v537.17Z"></path><path d="M291.59 168.62c0-69.36-56.22-125.58-125.58-125.58S41.97 97.87 40.56 166.01h-.13v253.77c0 69.36 56.22 125.58 125.58 125.58s125.58-56.22 125.58-125.58S235.37 294.2 166.01 294.2c-40.85 0-77.03 19.59-99.96 49.79v-99.58c22.93 30.2 59.12 49.79 99.96 49.79 69.36 0 125.58-56.22 125.58-125.58Z"></path></svg>