<svg xmlns="http://www.w3.org/2000/svg" width="597.6" viewBox="0 0 597.6 578.4" height="578.4"><path d="M579.7 280.8c-15-20.6-36.8-33.3-60.1-37.2l-27.3-84.1c23.8-24.1 33.7-60.3 22.5-94.7-16-49.2-68.8-76.1-118-60.1-24.4 7.9-43.4 25-54.3 46.1h-86.9C240 20.7 208.7.1 172.5.1 120.8.1 78.9 42 78.9 93.7c0 25.6 10.3 48.8 26.9 65.7l-27.3 84c-33.4 5.5-62.7 29-73.9 63.4-16 49.2 10.9 102 60.1 118 24.5 8 49.9 5.3 71.3-5.5l70.6 51.3c-5.1 33.5 8.2 68.6 37.5 89.8 41.8 30.4 100.4 21.1 130.8-20.7 15.1-20.8 20.4-45.7 16.8-69.2l70.3-51.1c30.3 15.2 67.7 13.4 97-7.9 41.8-30.3 51.1-88.9 20.7-130.7zm-117-28.9l-21.4-66-8.9-27.3-20.2-62.1c-2.4-7.4 1.6-15.3 9-17.7 7.4-2.4 15.3 1.6 17.7 9l20.1 61.9 8.9 27.3 21.5 66.2c-9.1 1.6-18.1 4.4-26.7 8.7zM405.5 31.5c34.3-11.1 71.2 7.6 82.3 41.9 6 18.6 3.2 38-6.1 53.6l-15.1-46.4C459.3 58 435 45.7 412.4 53c-22.6 7.3-34.9 31.6-27.6 54.2l15.1 46.4c-16.7-7.2-30.4-21.2-36.4-39.8-11.1-34.3 7.7-71.1 42-82.3zm-62.9 105.2c13.8 26.7 39.3 44.6 67.9 49.3l27.2 83.7c-21.4 21.4-30.6 51.4-26.3 80.2L341.1 401c-26.8-13.5-58-12.9-83.9.1l-70.9-51.5c4.4-29.6-5.7-59-26-79.5l27.3-83.9c29.7-4.8 54.7-23.6 68.1-49.4h86.9zm-77.7-57.3h68.3c-1.4 9.2-1.5 18.6-.1 28.1H171c-7.8 0-14-6.3-14-14.1s6.3-14 14-14H264.9zm-92.4-51c19.6 0 37.1 8.7 49.1 22.3h-48.8c-23.7 0-43 19.2-43 43 0 23.7 19.2 43 43 43h48.8c-12 13.7-29.5 22.3-49.1 22.3-36.1 0-65.3-29.2-65.3-65.3 0-36 29.2-65.3 65.3-65.3zm-93 304.3l20.1-61.9 8.9-27.3 21.5-66.3c8.3 4.2 17.2 7.2 26.7 8.8l-21.4 66-8.9 27.3-20.2 62.1c-2.4 7.4-10.3 11.4-17.7 9-7.3-2.4-11.4-10.3-9-17.7zm-6 65.2c-34.3-11.1-53.1-48-41.9-82.3C37.7 297 51.3 283 68 275.8l-15.1 46.4c-7.3 22.6 5 46.8 27.6 54.2 22.6 7.3 46.8-5 54.2-27.6l15.1-46.4c9.3 15.6 12.1 35 6.1 53.6-11.3 34.3-48.1 53.1-82.4 41.9zM215.9 442l-55.7-40.5c6.5-6.6 12.1-14.2 16.5-22.7l55.6 40.4 23.2 16.9 52.8 38.4c6.3 4.6 7.7 13.4 3.1 19.6-4.6 6.3-13.3 7.7-19.6 3.1l-52.7-38.3-23.2-16.9zM352 523.1c-21.2 29.2-62 35.6-91.2 14.4-15.8-11.5-24.9-28.8-26.6-46.9l39.5 28.7c19.2 13.9 46.1 9.7 60-9.5 14-19.2 9.7-46.1-9.5-60.1L284.7 421c17.7-4 37-.7 52.8 10.8 29.2 21.3 35.7 62.1 14.5 91.3zm108.9-138.2l-23.3 16.9-55.3 40.2c-4.2-8.3-9.7-15.9-16.5-22.8l55.1-40.1 23.2-16.8 52.8-38.4c6.3-4.6 15.1-3.2 19.6 3.1 4.6 6.3 3.2 15.1-3.1 19.6l-52.5 38.3zm81.4 3.8c-15.9 11.5-35.1 14.8-52.8 10.8l39.5-28.7c19.2-14 23.5-40.8 9.5-60.1-14-19.2-40.8-23.5-60-9.5L439 329.9c1.6-18.1 10.7-35.4 26.6-46.9 29.2-21.2 70-14.7 91.2 14.5 21.2 29.1 14.7 70-14.5 91.2z"></path></svg>