<svg xmlns="http://www.w3.org/2000/svg" width="606.1" viewBox="0 0 606.1 616.5" height="616.5" xml:space="preserve"><path d="m404.4.5-.5-.5H200.3L.5 204.8l-.5.5v210.8l201.2 199v1.4h204.6l199.8-204.8.5-.5V200.4L404.4.5zm153.2 276v114.9l-146.3 150c-2.8 2.8-7.5.9-7.5-3.1v-88.1l146-176.5c2.6-3.1 7.8-1.3 7.8 2.8zM270.3 412.2c-3.5 0-5.6-4-3.6-6.9l138-199.6.3-.4V75.7c0-2.3 2.7-3.4 4.4-1.8L543 206.1 377.5 405.9c-3.3 4-8.1 6.2-13.3 6.2h-93.9zm-19.6-260.7V52.9c0-2.4 2-4.4 4.4-4.4H352c2.4 0 4.4 2 4.4 4.4v98.6c0 2.4-2 4.4-4.4 4.4h-96.9c-2.4-.1-4.4-2-4.4-4.4zm91.1 59.7L201.2 413.3v127.5c0 2.3-2.7 3.4-4.4 1.8L63.2 410.4l165.6-200.1c3.1-3.8 7.8-6 12.7-6h96.8c3.5 0 5.5 4 3.5 6.9zM355.3 465v98.6c0 2.4-2 4.4-4.4 4.4h-94.5c-2.4 0-4.4-2-4.4-4.4V465c0-2.4 2-4.4 4.4-4.4h94.5c2.4 0 4.4 2 4.4 4.4zm-153-386.6v87.9L53 346.7c-1.5 1.9-4.5.8-4.5-1.6V225L194.6 75.2c2.8-2.8 7.7-.8 7.7 3.2z"></path></svg>