<svg xmlns="http://www.w3.org/2000/svg" width="355.8" viewBox="0 0 355.8 607" height="607" xml:space="preserve" style="enable-background:new 0 0 355.8 607"><path d="m97.2 48.1 62.2 170.7h37.1l62.2-170.7 62.2 170.7h34.9L276.1 0h-34.8l-63.4 173.8L114.6 0H79.8L0 218.8h34.9z"></path><path d="m241.3 129.4-63.4 173.8-63.3-173.8H79.8L0 348.2h34.9l62.3-170.7 62.2 170.7h37.1l62.2-170.7 62.2 170.7h34.9l-79.7-218.8z"></path><path d="m241.3 258.8-63.4 173.8-63.3-173.8H79.8L0 477.6h34.9l62.3-170.7 62.2 170.7h37.1l62.2-170.7 62.2 170.7h34.9l-79.7-218.8z"></path><path d="M241.3 388.2 177.9 562l-63.3-173.8H79.8L0 607h34.9l62.3-170.7L159.4 607h37.1l62.2-170.7L320.9 607h34.9l-79.7-218.8z"></path></svg>