<svg data-name="Layer 1" xmlns="http://www.w3.org/2000/svg" viewBox="0 0 550.52 613.41"><path d="M281.69 158.92v136.64l118.34-68.32-118.34-68.32zM406.46 79.46l-118.34 68.32 118.34 68.32V79.46zM406.46 238.38 288.12 306.7l118.34 68.32V238.38zM281.69 317.84v136.64l118.34-68.32-118.34-68.32zM281.69 0v136.64l118.34-68.32L281.69 0zM12.86 465.63l118.34 68.32V397.3L12.86 465.63zM281.69 613.41l118.34-68.33-118.34-68.32v136.65zM537.66 147.78 419.32 79.46v136.65l118.34-68.33zM537.66 306.7l-118.34-68.32v136.64l118.34-68.32zM406.46 397.3l-118.34 68.32 118.34 68.33V397.3zM12.86 306.7l118.34 68.32V238.38L12.86 306.7zM537.66 465.63 419.32 397.3v136.65l118.34-68.32zM124.77 386.16 0 314.13V458.2l124.77-72.04zM268.83 136.64V0L150.49 68.32l118.34 68.32zM124.77 227.24 0 155.21v144.07l124.77-72.04zM425.75 386.16l124.77 72.04V314.13l-124.77 72.03zM425.75 227.24l124.77 72.04V155.21l-124.77 72.03zM12.86 147.78l118.34 68.33V79.46L12.86 147.78zM268.83 613.41V476.76l-118.34 68.32 118.34 68.33zM268.83 158.92l-118.34 68.32 118.34 68.32V158.92zM144.06 216.1l118.34-68.32-118.34-68.32V216.1zM144.06 375.02 262.4 306.7l-118.34-68.32v136.64zM144.06 533.95l118.34-68.33-118.34-68.32v136.65zM268.83 454.48V317.84l-118.34 68.32 118.34 68.32z"></path></svg>