<svg data-name="Layer 1" xmlns="http://www.w3.org/2000/svg" viewBox="0 0 633.43 629.48"><path d="M421.42 40.45v36.18L337.9 124.2l.2 67.8 83.31-47.45v93.46l58.28-33.76v-92.9l31.44-17.91v92.59l72.07-41.75C530.38 62.45 440.66 6.71 337.53.61l.26 87.47 83.63-47.63ZM598.93 171.52l-72.59 42.05 85.34 49.91-31.44 18.04-85.19-49.82-58.45 33.86 85.73 49.19-85.73 49.19 58.45 33.86 85.19-49.82 31.44 18.04-85.34 49.91 72.59 42.05c22.01-42.97 34.5-91.62 34.5-143.22s-12.5-100.25-34.5-143.22ZM511.14 536.03l-31.44-17.91v-92.9l-58.28-33.76v93.46l-83.31-47.45-.2 67.8 83.52 47.57v36.18l-83.63-47.63-.26 87.47c103.13-6.09 192.84-61.84 245.68-143.68l-72.07-41.75v92.59Z"></path><path d="M389.99 256.22v-57.58l-51.77 29.48.18 57.99 51.59-29.89zM459.16 314.74l-53.99-30.98-53.32 30.89.16.09-.16.09 53.32 30.88 53.99-30.97zM389.99 430.84v-57.59l-51.59-29.88-.18 57.99 51.77 29.48zM296.13 448.22c0-1.03-.36-1.84-.92-2.43-.56-.59-1.32-.95-2.12-1.05-.4-.05-.8-.04-1.2.03-1.18.23-2.25 1.04-2.66 2.53l-45.95 169.54c-9.12-2.19-18.07-4.77-26.86-7.74l45.9-169.36c.13-.5.17-.96.12-1.4-.1-.87-.53-1.6-1.13-2.13-.6-.53-1.38-.85-2.18-.91-.8-.06-1.62.15-2.31.69-.34.27-.65.62-.91 1.07l-87.75 151.05c-8.21-4.45-16.21-9.25-23.96-14.39l87.39-150.42c.5-.87.6-1.74.42-2.51-.14-.61-.47-1.13-.89-1.58-.69-.74-1.64-1.23-2.66-1.22-.41 0-.82.09-1.22.26s-.79.43-1.16.79L103.31 541.19a314.845 314.845 0 0 1-19.49-20.03l122.3-121.68c.11-.11.15-.24.24-.35.51-.63.74-1.33.77-2.01.07-1.7-1.19-3.31-2.87-3.62-.34-.06-.69-.07-1.05-.02-.43.06-.88.21-1.32.47l-149.25 85.7a313.53 313.53 0 0 1-13.79-24.31l148.85-85.47c.44-.26.8-.56 1.07-.91.54-.68.76-1.5.7-2.31 0-.09-.05-.18-.06-.27-.1-.7-.37-1.38-.84-1.91-.77-.89-1.98-1.38-3.42-1.04h-.1L19.38 407.44c-2.76-8.85-5.13-17.88-7.1-27.05l169.19-45 .34-.09c3.92-1.04 3.16-6.81-.89-6.81h-.35l-174.98.09c-.2-4.59-.34-9.2-.34-13.84s.13-9.2.33-13.76l171.03-.26c4.1 0 4.86-5.85.9-6.9L12.1 249.88c1.95-9.17 4.28-18.2 7.02-27.05l165.93 44.07c.5.13.96.16 1.4.11 1.3-.16 2.29-1.05 2.75-2.17.15-.37.25-.77.27-1.17.04-.6-.07-1.21-.35-1.77-.29-.56-.75-1.06-1.42-1.44L38.52 174.81c4.21-8.34 8.8-16.46 13.72-24.34l149.64 85.93c.45.26.89.41 1.32.47.36.05.71.04 1.05-.02 1.68-.31 2.93-1.92 2.87-3.62-.03-.68-.26-1.37-.77-2.01-.09-.12-.13-.24-.24-.35L83.41 108.78a312.16 312.16 0 0 1 19.45-20.07l123.21 122.6c.36.36.75.62 1.16.79.4.17.82.25 1.22.26 1.02.02 1.98-.48 2.66-1.22.42-.45.75-.97.89-1.58.18-.78.08-1.65-.42-2.51L143.84 56.02c7.74-5.16 15.73-9.97 23.94-14.43l88.13 151.69c.26.44.57.8.91 1.07 1.37 1.08 3.28.83 4.49-.22.91-.79 1.42-2.04 1.02-3.52L216.22 20.46c8.78-2.98 17.74-5.57 26.85-7.76l46.17 170.35c.4 1.49 1.47 2.3 2.66 2.53.39.08.8.08 1.2.03.8-.11 1.56-.47 2.12-1.05.56-.59.92-1.41.92-2.43L295.61.01H0v629.47h295.57"></path><path d="M220.18 314.74c0 45.91 32.29 84.24 75.38 93.64V221.09c-43.1 9.4-75.38 47.73-75.38 93.64Z"></path></svg>