<svg data-name="Layer 1" xmlns="http://www.w3.org/2000/svg" viewBox="0 0 401.25 608.02"><circle cx="45.54" cy="355.7" r="45.54"></circle><circle cx="148.93" cy="355.7" r="45.54"></circle><circle cx="355.7" cy="355.7" r="45.54" transform="rotate(-67.5 355.702 355.707)"></circle><circle cx="45.54" cy="252.32" r="45.54"></circle><circle cx="148.93" cy="252.32" r="45.54"></circle><circle cx="252.32" cy="252.32" r="45.54"></circle><circle cx="355.7" cy="252.32" r="45.54" transform="rotate(-9.22 355.63 252.235)"></circle><circle cx="252.32" cy="45.54" r="45.54"></circle><circle cx="45.54" cy="459.09" r="45.54"></circle><circle cx="148.93" cy="459.09" r="45.54"></circle><circle cx="252.32" cy="459.09" r="45.54"></circle><circle cx="355.7" cy="459.09" r="45.54" transform="rotate(-67.5 355.704 459.088)"></circle><circle cx="45.54" cy="562.47" r="45.54"></circle><circle cx="148.93" cy="562.47" r="45.54"></circle><circle cx="252.32" cy="562.47" r="45.54"></circle><circle cx="355.7" cy="562.47" r="45.54" transform="rotate(-67.5 355.7 562.476)"></circle></svg>