<svg xmlns="http://www.w3.org/2000/svg" width="595.4" viewBox="0 0 595.4 605.4" height="605.4" xml:space="preserve"><path d="M529.4 263h-93.9c-21 0-38 17-38 37.9v142.3h56.9V327.6c0-5.2 4.2-9.5 9.5-9.5h65.5V263zM253.3 263h93.9c21 0 37.9 17 37.9 37.9v142.3h-56.9V327.6c0-5.2-4.3-9.5-9.5-9.5h-65.5V263zM448.8 200.9c0 31.7-25.7 57.4-57.4 57.4S334 232.6 334 200.9s25.7-57.4 57.4-57.4 57.4 25.7 57.4 57.4z"></path><path d="M594.1 335.1c-15.6 99.6-100.6 175.8-203.2 175.8-31.8 0-61.9-7.3-88.8-20.4-69.2-33.6-117-105.4-117-188.4s47.8-154.8 117-188.4c26.9-13 57-20.4 88.8-20.4 103 0 188.4 76.8 203.4 177.1h1.1V0H302.1C135.2 0 0 135.5 0 302.7s135.2 302.7 302.1 302.7h293.3V335.1h-1.3z"></path></svg>