<svg data-name="Layer 1" xmlns="http://www.w3.org/2000/svg" viewBox="0 0 608.85 541.5"><path d="M457.84 160.93h-.09L501.49 10.1S460.91 0 429.7 0c-79.17 0-125.32 33.71-125.32 33.71S258.23 0 179.06 0c-31.21 0-71.79 10.1-71.79 10.1L151 160.93 0 204.75s40.75 102.78 123.16 150.1c0 110.38 70.15 186.66 70.15 186.66l111.07-111.07s-36.69-29.53-36.69-98.21c0-24.04 4.49-46.49 10.36-65.49-19.21-4.66-40.58-12.17-61.08-24.26-59.14-34.92-65.92-81.5-65.92-81.5s10.45-3.93 28.02-3.93c18.48 0 44.85 4.36 75.2 22.28 20.16 11.91 36.82 26.72 50.08 41.1h.17c13.25-14.37 29.87-29.18 50.08-41.1 30.35-17.91 56.72-22.28 75.2-22.28s28.02 3.93 28.02 3.93-6.78 46.58-65.92 81.5c-20.5 12.09-41.87 19.6-61.08 24.26 5.83 19.04 10.36 41.44 10.36 65.49 0 68.68-36.69 98.21-36.69 98.21l111.07 111.07s70.15-76.28 70.15-186.66c82.41-47.31 123.16-150.1 123.16-150.1l-151-43.82Z"></path></svg>