<svg xmlns="http://www.w3.org/2000/svg" width="457.8" viewBox="0 0 457.8 607.2" height="607.2" style="enable-background:new 0 0 457.8 607.2" xml:space="preserve"><path d="M228.9 231.5 125.7 393.2c-1.5 2.4-29.2 36.9-26.1 84.4 4.9 76.7 63.2 129.6 129.1 129.6h.6c65.9 0 124.1-52.9 129.1-129.6 3-47.5-24.6-82-26.1-84.4L228.9 231.5z"></path><path d="M456.1 232.9c-1.7-14.1-7.2-79.1-59-134.6-15.3-16.4-49.1-38.7-91-37.2-.5 0-29.7 0-52.9 14.3V0h-48.5v75.4c-23.2-14.3-52.4-14.3-52.9-14.3-42-1.4-75.8 20.9-91.1 37.3-51.8 55.5-57.3 120.4-59 134.5C-11.7 347.3 59 418.2 59.5 418.7L229 153.9l169.5 264.8c.4-.5 71.1-71.4 57.6-185.8z"></path></svg>