<svg xmlns="http://www.w3.org/2000/svg" id="a" width="642" viewBox="0 0 642 642" height="642" data-name="Layer 1"><defs></defs><path d="M637.99 402.55c-29.2 7.03-59.67 10.74-91.03 10.74-55.42 0-108.67-10.25-216.11-49.35-107.44-39.1-160.69-49.37-216.1-49.36-39.95 0-78.49 6.04-114.76 17.27V315.8c36.26-11.22 74.81-17.27 114.76-17.27 55.41 0 108.66 10.26 216.1 49.36s160.69 49.35 216.11 49.35c31.35 0 61.83-3.71 91.03-10.74v16.05Z" class="b"></path><path d="M637.99 442.68c-29.2 7.03-59.67 10.74-91.03 10.74-55.42 0-108.67-10.25-216.11-49.35-107.44-39.1-160.69-49.37-216.1-49.36-39.95 0-78.49 6.04-114.76 17.27v-24.07c36.26-11.22 74.81-17.27 114.76-17.27 55.41 0 108.66 10.26 216.1 49.36s160.69 49.35 216.11 49.35c31.35 0 61.83-3.71 91.03-10.74v24.07Z" class="b"></path><path d="M637.99 489.22c-29.2 7.03-59.67 10.74-91.03 10.74-55.42 0-108.67-10.25-216.11-49.35-107.44-39.1-160.69-49.37-216.1-49.36-39.95 0-78.49 6.04-114.76 17.27v-35.31c36.26-11.22 74.81-17.27 114.76-17.27 55.41 0 108.66 10.26 216.1 49.36s160.69 49.35 216.11 49.35c31.35 0 61.83-3.71 91.03-10.74v35.31Z" class="b"></path><path d="M637.99 495.64c-29.2 7.03-59.67 10.74-91.03 10.74-55.42 0-108.67-10.25-216.11-49.35-107.44-39.1-160.69-49.37-216.1-49.36-39.95 0-78.49 6.04-114.76 17.27v141.63c0 41.66 33.77 75.43 75.43 75.43h487.12c41.66 0 75.43-33.77 75.43-75.43v-70.92ZM321 9.04c172.29 0 311.96 139.67 311.96 311.96 0 16.65-1.34 32.98-3.85 48.92 2.95-.64 5.96-1.15 8.91-1.86.17-.04.36-.09.53-.14C640.79 352.6 642 336.94 642 321 642 143.72 498.28 0 321 0S13.25 130.96.98 297.05c3.07-.96 6.14-1.79 9.27-2.69C23.78 134.55 157.69 9.04 321 9.04Z" class="b"></path><path d="M321 28.33c-150.96 0-275.19 114.31-290.95 261.08 5.19-1.15 10.45-2.24 15.77-3.14C62.92 149.46 179.55 43.58 321 43.58c153.22 0 277.42 124.21 277.42 277.42 0 18.86-1.9 37.28-5.49 55.08h.02c5.32-.64 10.58-1.47 15.89-2.37 3.11-17.11 4.83-34.7 4.83-52.71 0-161.64-131.03-292.67-292.67-292.67Z" class="b"></path><path d="M321 58.58c-132.3 0-241.69 97.93-259.75 225.24 8.47-1.22 17.01-2.12 25.61-2.76 19-112.17 116.56-197.61 234.13-197.61 131.19 0 237.54 106.35 237.54 237.54 0 19.89-2.48 39.19-7.08 57.65h.02c8.66-.13 17.25-.51 25.77-1.15 4-18.2 6.16-37.09 6.16-56.5 0-144.93-117.49-262.42-262.42-262.42Z" class="b"></path><path d="M321 92.69c-112.28 0-205.57 81.08-224.67 187.87h.03c6.1-.26 12.2-.51 18.43-.51s12.2.19 18.3.45h.03c18.6-86.69 95.64-151.69 187.88-151.69 106.15 0 192.2 86.05 192.2 192.2 0 19.34-2.89 37.99-8.2 55.6 12.71 1.35 24.78 1.99 36.91 2.12h.02c4.8-18.44 7.37-37.78 7.37-57.72 0-126.09-102.22-228.31-228.31-228.31Z" class="b"></path><path d="M321 134.26c-89.33 0-163.97 62.74-182.36 146.55h.03c47.89 2.82 100.15 15.15 192.21 48.6 77.23 28.18 126.47 41.28 168.64 46.48 5.33-17.36 8.21-35.78 8.21-54.89 0-103.13-83.61-186.74-186.74-186.74Z" class="b"></path></svg>