<svg xmlns="http://www.w3.org/2000/svg" width="577.9" viewBox="0 0 577.9 440.7" height="440.7"><path d="M513.1 70.1h-389c-29.7 0-53.8 24.1-53.8 53.7s24.1 53.7 53.8 53.7H513c-4.3-4.7-8-9.9-11.1-15.6H124.1c-21.1 0-38.2-17.1-38.2-38.1s17.1-38.1 38.2-38.1H502c3-5.7 6.8-10.9 11.1-15.6z"></path><path d="M124.1 116.8h368.4c.5-5.4 1.5-10.6 2.9-15.6H124.1c-12.5 0-22.6 10.1-22.6 22.5s10.1 22.5 22.6 22.5h371.4c-1.5-5-2.5-10.2-2.9-15.6H124.1c-3.8 0-7-3.1-7-6.9s3.2-6.9 7-6.9z"></path><path d="M453.7 193.1H124.1c-38.3 0-69.5-31.1-69.5-69.3s31.2-69.3 69.5-69.3h407.7V0H124.1C55.7 0 0 55.5 0 123.8s55.7 123.8 124.1 123.8h329.6c38.3 0 69.5 31.1 69.5 69.3s-31.2 69.3-69.5 69.3H47.1v54.5h406.6c68.4 0 124.1-55.5 124.1-123.8s-55.6-123.8-124.1-123.8z"></path><path d="M64.8 370.6h388.9c29.7 0 53.8-24.1 53.8-53.7s-24.1-53.7-53.8-53.7H64.8c4.3 4.7 8 9.9 11.1 15.6h377.8c21.1 0 38.2 17.1 38.2 38.1S474.8 355 453.7 355H75.9c-3 5.6-6.8 10.8-11.1 15.6z"></path><path d="M453.7 323.8H85.3c-.5 5.4-1.5 10.6-2.9 15.6h371.4c12.5 0 22.6-10.1 22.6-22.5s-10.1-22.5-22.6-22.5H82.4c1.5 5 2.5 10.2 2.9 15.6h368.4c3.8 0 7 3.1 7 6.9s-3.1 6.9-7 6.9z"></path></svg>