<svg data-name="Layer 1" xmlns="http://www.w3.org/2000/svg" viewBox="0 0 530 611.99"><path d="M181.66 306c0 46.03 37.31 83.34 83.34 83.34s83.34-37.31 83.34-83.34-37.31-83.34-83.34-83.34-83.34 37.31-83.34 83.34ZM353.33 375.65c-46.03 0-83.34 37.31-83.34 83.34s37.31 83.34 83.34 83.34 83.34-37.31 83.34-83.34-37.31-83.34-83.34-83.34ZM260.01 458.99c0-46.03-37.31-83.34-83.34-83.34s-83.34 37.31-83.34 83.34 37.31 83.34 83.34 83.34 83.34-37.31 83.34-83.34ZM4.99 306c0 46.03 37.31 83.34 83.34 83.34s83.34-37.31 83.34-83.34-37.31-83.34-83.34-83.34S4.99 259.97 4.99 306ZM358.32 306c0 46.03 37.31 83.34 83.34 83.34S525 352.03 525 306s-37.31-83.34-83.34-83.34-83.34 37.31-83.34 83.34ZM176.67 236.34c46.03 0 83.34-37.31 83.34-83.34s-37.31-83.34-83.34-83.34S93.33 106.97 93.33 153s37.31 83.34 83.34 83.34Z"></path><path d="M265 118.32c7.9-20.06 22.44-36.8 40.88-47.52L265 0l-40.88 70.8c18.44 10.72 32.97 27.46 40.88 47.52ZM441.67 211.02c17.28 0 33.46 4.72 47.43 12.82L530 153h-81.69c0 22.38-7.83 42.94-20.83 59.2 4.64-.7 9.35-1.18 14.18-1.18ZM88.34 211.02c4.83 0 9.54.48 14.18 1.18-13-16.25-20.83-36.81-20.83-59.2H0l40.9 70.84c13.98-8.1 30.15-12.82 47.44-12.82ZM88.34 400.98c-17.29 0-33.46-4.72-47.44-12.82L0 458.99h81.68c0-22.38 7.83-42.94 20.83-59.19-4.64.7-9.35 1.18-14.17 1.18ZM441.67 400.98c-4.83 0-9.54-.48-14.18-1.18 13 16.25 20.83 36.81 20.83 59.19h81.69l-40.9-70.83c-13.98 8.1-30.15 12.82-47.44 12.82ZM265 493.67c-7.91 20.06-22.44 36.8-40.88 47.52l40.88 70.8 40.88-70.8c-18.44-10.72-32.97-27.45-40.88-47.52Z"></path><path d="M269.99 153c0 46.03 37.31 83.34 83.34 83.34s83.34-37.31 83.34-83.34-37.31-83.34-83.34-83.34-83.34 37.31-83.34 83.34Z"></path></svg>