<svg xmlns="http://www.w3.org/2000/svg" width="583.8" viewBox="0 0 583.8 642" height="642" style="overflow:visible;enable-background:new 0 0 583.8 642" xml:space="preserve"><path d="m561.6 468.9 22.3 36.7-42.9-1c-2.4-.1-4.9-.7-7.3-2.1L314.4 376v266h-44.9V376L50.2 502.6c-2.3 1.3-4.8 2-7.3 2.1l-42.9 1L22.3 469c1.3-2.1 3.1-3.9 5.5-5.2L247 337 27.7 210.4c-2.3-1.3-4.1-3.1-5.5-5.2L0 168.5l42.9 1c2.4.1 4.9.7 7.3 2.1l219.2 126.6V44.9c0-2.6.6-5.1 1.8-7.3L291.9 0l20.7 37.6c1.2 2.2 1.8 4.7 1.8 7.3v253.2l219.2-126.6c2.3-1.3 4.8-2 7.3-2.1l42.9-1-22.3 36.7c-1.3 2.1-3.1 3.9-5.5 5.2L336.9 337l219.2 126.6c2.3 1.3 4.1 3.2 5.5 5.3z"></path><path d="M250.2 58.9v205.8L72 161.8c3.8-3.9 7.1-8.2 9.9-13 5.2-9 8-18.7 8.7-28.4l72.2 41.7c18.7 10.8 42.1-2.7 42.1-24.3V54.4c8.7 4.2 18.6 6.6 29 6.6 5.7 0 11.1-.7 16.3-2.1zM30.2 234.1 208.4 337 30.2 439.9c-1.4-5.2-3.6-10.2-6.3-15.1-5.2-9-12.2-16.3-20.3-21.8l72.2-41.7c18.7-10.8 18.7-37.8 0-48.6L3.6 271c8-5.4 15-12.8 20.2-21.8 2.9-4.9 5-9.9 6.4-15.1zM553.6 440 375.4 337.1l178.2-102.9c1.4 5.2 3.6 10.2 6.3 15.1 5.2 9 12.2 16.3 20.3 21.8L508 312.7c-18.7 10.8-18.7 37.8 0 48.6l72.2 41.7c-8 5.4-15 12.8-20.2 21.8-2.8 5-4.9 10-6.4 15.2zM511.9 161.9 333.7 264.8V59c5.2 1.4 10.6 2 16.2 2 10.4 0 20.2-2.4 29-6.7v83.4c0 21.6 23.4 35.1 42.1 24.3l72.2-41.7c.7 9.7 3.6 19.4 8.8 28.4 2.8 5 6.1 9.3 9.9 13.2zM86.3 504l163.9-94.7V504zM497.6 504l-164-94.7V504z"></path></svg>