<svg data-name="Layer 1" xmlns="http://www.w3.org/2000/svg" viewBox="0 0 607.26 376.92"><path d="M251.28 293.16h20.94v20.94h-20.94zM293.16 293.16h20.94v20.94h-20.94zM335.04 293.16h20.94v20.94h-20.94zM481.62 209.4h20.94v20.94h-20.94zM460.68 188.46h20.94v20.94h-20.94z"></path><path d="M481.62 251.28v-20.94h-20.94v20.94h-62.82v-20.94h-20.94v20.94H209.4v104.7h-41.88v-62.82h-20.94v62.82H104.7v-104.7H83.76v62.82H20.94V209.4H0v125.64h83.76v41.88h314.1v-104.7h62.82v62.82h20.94v-62.82h20.94v-20.94h-20.94Zm-104.7 104.7H230.34v-83.76h146.58v83.76ZM502.56 272.22h62.82v20.94h-62.82zM565.38 251.28h20.94v20.94h-20.94zM586.32 209.4h20.94v41.88h-20.94zM565.38 188.46h20.94v20.94h-20.94zM502.56 188.46h62.82v-20.94H523.5v-20.94h-20.94v41.88zM523.5 104.7h20.94v41.88H523.5zM502.56 83.76h20.94v20.94h-20.94zM439.74 62.82h62.82v20.94h-62.82zM418.8 83.76h20.94v20.94H418.8zM376.92 167.52h20.94v20.94h-20.94z"></path><path d="M355.98 209.4v20.94h20.94v-41.88h-41.88v20.94h20.94zM314.1 167.52h20.94v20.94H314.1zM293.16 146.58h20.94v20.94h-20.94zM460.68 146.58H418.8V104.7h-20.94v62.82h62.82v-20.94zM20.94 188.46h20.94v20.94H20.94zM83.76 188.46h20.94v20.94H83.76zM41.88 167.52h20.94v20.94H41.88zM62.82 146.58h20.94v20.94H62.82zM146.58 83.76h20.94v20.94h-20.94zM167.52 62.82h20.94v20.94h-20.94zM188.46 41.88h20.94v20.94h-20.94zM209.4 62.82h20.94v20.94H209.4zM230.34 41.88h41.88v20.94h-41.88zM251.28 0h20.94v20.94h-20.94zM272.22 20.94h20.94v20.94h-20.94zM104.7 167.52h20.94v-20.94h167.52v-20.94h-104.7V104.7h-20.94v20.94H83.76v20.94h20.94v20.94zM125.64 167.52h20.94v20.94h-20.94zM146.58 188.46h20.94v20.94h-20.94zM125.64 209.4h20.94v20.94h-20.94zM104.7 230.34h20.94v20.94H104.7zM167.52 209.4h20.94v20.94h-20.94zM188.46 230.34h20.94v20.94h-20.94z"></path></svg>