<svg data-name="Layer 1" xmlns="http://www.w3.org/2000/svg" viewBox="0 0 593.67 527.97"><path d="M460.96 149.43C453.15 65.74 382.54 0 296.84 0S140.52 65.74 132.72 149.43C57.15 164.44 0 231.22 0 311.13v133.93h65.8V311.13c0-43.08 27.69-79.72 66.17-93.33v164.76h65.8V217.8c38.48 13.61 66.17 50.25 66.17 93.33v216.84h65.8V311.13c0-43.08 27.69-79.72 66.16-93.33v164.76h65.8V217.8c38.48 13.61 66.17 50.25 66.17 93.33v133.93h65.8V311.13c0-79.9-57.15-146.69-132.72-161.7Zm-164.12 62.98c-23.56-31.42-58.07-54.17-97.81-62.57 7.28-47.5 48.3-84.05 97.81-84.05s90.53 36.54 97.8 84.05c-39.74 8.41-74.24 31.16-97.8 62.57Z"></path></svg>