<svg xmlns="http://www.w3.org/2000/svg" width="626.4" viewBox="0 0 626.4 628" height="628" style="enable-background:new 0 0 626.4 628" xml:space="preserve"><path class="st0" d="M152.2 0C68.2 0 0 68.2 0 152.2s68.2 152.2 152.2 152.2h152.2V152.2C304.5 68.2 236.3 0 152.2 0zM474.2 0C390.1 0 322 68.2 322 152.2s68.2 152.2 152.2 152.2h152.2V152.2C626.4 68.2 558.3 0 474.2 0zM474.2 323.5H321.9v152.2c0 84.1 68.2 152.2 152.2 152.2 84.1 0 152.2-68.2 152.2-152.2s-68-152.2-152.1-152.2zM152.2 323.5H0v152.2C0 559.8 68.2 628 152.2 628s152.2-68.2 152.2-152.2-68.1-152.3-152.2-152.3z"></path></svg>