<svg data-name="Layer 1" xmlns="http://www.w3.org/2000/svg" viewBox="0 0 576.36 569.39"><path d="M445.78.16c-127.51 0-230.87 103.36-230.87 230.86v5.79c0 8.19-6.7 14.9-14.9 14.9s-14.9-6.7-14.9-14.9V116.9c0-15.75 12.76-28.49 28.51-28.49h13.99V70.18h-45.36C171.56 27.62 131.32-3.53 84.79.32 36.1 4.36 0 47.77 0 96.63v178.03h345.5c127.5 0 230.86-103.36 230.86-230.86V.16H445.78ZM91.83 107.29c-10.25 0-18.56-8.31-18.56-18.56s8.31-18.56 18.56-18.56 18.56 8.31 18.56 18.56-8.31 18.56-18.56 18.56ZM345.5 294.72H0v274.66h185.12V332.57c0-8.19 6.7-14.9 14.9-14.9s14.9 6.7 14.9 14.9v5.79c0 127.5 103.36 230.86 230.86 230.86h130.58v-43.64c0-127.5-103.36-230.86-230.86-230.86Z"></path></svg>