<svg data-name="Layer 1" xmlns="http://www.w3.org/2000/svg" viewBox="0 0 309.68 575.88"><path d="M68.13 182.38v145.41h23.6V182.38c21.06-5.28 36.68-24.28 36.68-46.98 0-26.78-21.71-48.48-48.48-48.48s-48.48 21.71-48.48 48.48c0 22.7 15.62 41.7 36.68 46.98Z"></path><path d="M143.54 95.46v232.33h23.6V95.46c21.06-5.28 36.68-24.28 36.68-46.98C203.82 21.7 182.11 0 155.34 0s-48.48 21.71-48.48 48.48c0 22.7 15.62 41.7 36.68 46.98Z"></path><path d="M182.26 135.4c0 22.7 15.62 41.7 36.68 46.98v145.41h23.6V182.38c21.06-5.28 36.68-24.28 36.68-46.98 0-26.78-21.71-48.48-48.48-48.48s-48.48 21.71-48.48 48.48ZM242.55 331.24v33.48c21.06 5.28 36.68 24.28 36.68 46.98 0 26.78-21.71 48.48-48.48 48.48s-48.48-21.71-48.48-48.48c0-22.7 15.62-41.7 36.68-46.98v-33.48h-51.81v120.4c21.06 5.28 36.68 24.28 36.68 46.98 0 26.78-21.71 48.48-48.48 48.48s-48.48-21.71-48.48-48.48c0-22.7 15.62-41.7 36.68-46.98v-120.4H91.73v33.48c21.06 5.28 36.68 24.28 36.68 46.98 0 26.78-21.71 48.48-48.48 48.48s-48.48-21.71-48.48-48.48c0-22.7 15.62-41.7 36.68-46.98v-33.48H0v244.64h309.68V331.24h-67.14Z"></path></svg>