<svg xmlns="http://www.w3.org/2000/svg" width="625.7" viewBox="0 0 625.7 599.2" height="599.2" xml:space="preserve"><path d="M112.1 327c-4.6 8.3-25 52.7.2 105.1 0 0 24 61.2 98 68.2h48.4l101.8-101.7.5-74s-86.9 87-100 100.2h-43.4c-5-.1-9.9-.8-14.6-2.8-8.2-3.6-15.8-9.9-20.6-17.5-9.6-15.2-7.2-33.9 1.2-48.9l20.4-36.2-.1-.2L167 182.4l20.9-35.6c5.8-9.9 12.5-19.4 20.4-27.7C255.8 69.5 315.8 74.7 325.5 76c73.2 6.2 106.7 59.2 110.3 65.3 2 3.3 14.2 23.8 25.9 43.5l62-37c-13.6-22.8-24.1-40.5-25.4-42.6C489.3 90 440.8 10.5 334 .9c-23.8-2.7-125.7-4.4-195.8 88.4-2.3 3.1-17.2 27.8-19.2 31.2l-16.3 27.4 35.5 131.5c-11.4 20.7-24.3 44.4-26.1 47.6z"></path><path d="M412 501.8c9.5 0 58.2-3.5 91.9-50.9 0 0 42-50.6 12.5-118.7L493 289.7l-141.5-41-61.7 36.3s118.1 34.1 136 39.2l20.9 38c2.3 4.4 4.1 9.1 4.6 14.1.8 8.9-1 18.6-5.4 26.5-8.7 15.7-26.2 22.7-43.4 22.6L361 425v-.1l-99.6 101-41.3-.1c-11.5 0-23-1-34.2-3.7-66.8-16-92.6-70.5-96.4-79.4-31.6-66.3-2.7-122 .7-128.1 2-3.5 14.7-26.6 26.3-47.7l-61.9-37.2c-14.3 25.9-25.8 46.8-27.1 49.2-8.6 15.5-52.8 97.4-7.2 194.5 9.7 21.9 59.6 110.8 175.1 124.5 3.8.5 7.7.6 11.6.7l24.1.3h34l95.8-97.1c20.5-.1 46.9-.1 51.1 0z"></path><path d="M608.9 298.1c-1.5-3.6-3.2-7.1-5-10.5l-12.2-22.9-16.4-29.3-135.6-38.2c-10.5-17.5-23.6-39.7-25.8-43.4-4.9-8.2-32.9-48.2-90.9-52.8 0 0-65-10.1-108.3 50.2L190.3 193l36.5 139.2 63.7 37.8s-31.3-118.9-36.1-136.9l21.9-37.5c2.6-4.2 5.7-8.2 9.8-11.1 7.3-5.2 16.5-8.7 25.5-9 17.9-.6 32.9 10.9 41.7 25.7l19.6 34.2L514 275.1l19.8 36.2c5.5 10.1 10.2 20.6 13.3 31.7 18.2 66.2-17 115.1-23 122.8-42.8 59.7-105.5 61.2-112.6 61.2h-50.7v72.2h49.6c17.7.1 110.8-.8 173.8-87.6 14.6-19.1 68.4-105.7 24.7-213.5z"></path></svg>