<svg data-name="Layer 1" xmlns="http://www.w3.org/2000/svg" viewBox="0 0 605.07 420.12"><path d="M602.75 157.05c-6.19-19.04-23.12-31.34-43.14-31.34h-99.22l-30.66-94.37C423.54 12.3 406.61 0 386.59 0s-36.95 12.3-43.14 31.34l-30.66 94.37h-20.37l-30.41-94.06C255.77 12.42 238.67 0 218.46 0s-37.32 12.42-43.57 31.65l-30.45 93.71H45.9c-20.22 0-37.32 12.42-43.57 31.65-6.25 19.23.29 39.33 16.64 51.21l79.71 57.92-30.45 93.71c-6.25 19.23.29 39.34 16.64 51.22 8.18 5.94 17.55 8.91 26.92 8.91s18.74-2.97 26.92-8.91l79.72-57.92 16.78 12.19c-3.7 17.48 2.95 35.05 17.76 45.81 8.1 5.88 17.38 8.83 26.66 8.83 6.85 0 13.69-1.63 20.06-4.83 6.47 3.3 13.43 4.95 20.39 4.95 9.32 0 18.63-2.95 26.76-8.86 13.99-10.17 20.72-26.39 18.37-42.89l21.36-15.52 80.27 58.32c16.2 11.76 37.13 11.77 53.32 0 16.2-11.77 22.67-31.67 16.48-50.71l-30.67-94.37 80.28-58.32c16.2-11.77 22.66-31.67 16.47-50.71ZM236.74 359.78l-18.28-13.28-82.89 60.22c-14.43 10.48-33.09 10.48-47.51 0-14.43-10.48-20.2-28.22-14.69-45.19l31.66-97.43-82.89-60.23C7.71 193.38 1.95 175.65 7.46 158.68c5.51-16.97 20.6-27.93 38.44-27.93h102.45l31.66-97.44c5.51-16.96 20.61-27.93 38.44-27.93s32.93 10.96 38.44 27.92l29.87 92.4h-73.2c-20.02 0-36.95 12.3-43.14 31.34-6.19 19.04.28 38.95 16.47 50.71l80.28 58.32-30.45 93.7Zm106.98 47.14c-11.53 8.38-25.73 9.9-38.33 4.81.3-.21.63-.35.93-.57l53.82-39.1c.91 13.51-4.93 26.51-16.42 34.86Zm227.29-220.17-95.54 69.41 36.49 112.31c3.21 9.88-1.53 17.68-7.04 21.68-5.5 4-14.38 6.11-22.79 0l-95.54-69.41-95.54 69.41c-8.41 6.1-17.28 4-22.79 0-5.51-4-10.25-11.8-7.04-21.68l36.49-112.31-95.54-69.41c-8.4-6.1-9.15-15.2-7.05-21.68s8.05-13.4 18.44-13.4h118.09l36.49-112.31c3.21-9.88 11.63-13.4 18.44-13.4s15.23 3.52 18.44 13.4l36.49 112.31H559.6c10.39 0 16.34 6.92 18.44 13.4s1.36 15.57-7.05 21.68Z"></path></svg>