<svg xmlns="http://www.w3.org/2000/svg" width="606.9" viewBox="0 0 606.9 546.5" height="546.5" xml:space="preserve"><path d="m606.9 303.3-8.1-7.9s-188.3 193-281.7 211.9v-48.5c108.7-13 273.6-171.5 273.6-171.5l-8.2-8.2S425.3 424 317.1 435.9V408c108.3-10.4 257.1-137.2 257.1-137.2l-8.1-8.1s-141.2 114.6-248.9 124v-22C424.3 356.3 558 254.4 558 254.4l-8-8s-126.3 91.7-232.8 99.3v-19c105.8-6.8 224.5-88.6 224.5-88.6l-8.1-8s-111.2 75-216.4 81.3v-17.5c104.6-5.5 208.1-72.1 208.1-72.1l-8.1-8s-96.1 61.1-200 66.3v-15.8c103.3-4.6 191.6-58.9 191.6-58.9l-7.8-7.8s-81.2 50.3-183.8 54.6v-15.4c102-3.7 175.5-47.2 175.5-47.2l-8.2-8.1s-66.5 40.6-167.3 44.1v-13.1c100.8-3 160.3-38.4 160.3-38.4l-8.1-8.1s-52.1 32.2-152.1 34.9v-11.2c98-2.4 145.5-30.3 145.5-30.3l-8.7-8.7s-38.1 24.8-136.9 27v-10.8c98.3-1.8 130.7-22.4 130.7-22.4l-8.6-8.6s-24.5 18.9-122.1 20.5V146c77.9-1.8 115.3-16.9 115.3-16.9l-8.1-8.3s-30.1 13.8-107.2 15v-10.3c58.5-1.2 100.8-11.2 100.8-11.2l-8.1-8.3s-35.2 8.3-92.6 9.5v-10.7c46.5-1 84.5-6.8 84.5-6.8l-8.2-8.2s-30.3 5.3-76.3 6.3V85.7c44.5-.8 68.1-3.9 68.1-3.9l-8.2-8.3s-15.7 2.4-59.9 3.2v-9.2c41.4-.4 51.9-2.1 51.9-2.1l-8.2-8.2s-5.5 1.2-43.6 1.4v-8.3c18.1-.4 35.3-1.3 35.3-1.3l-8.1-8.1s-11.7.7-27.2 1v-8.2c9.5-.4 19-1 19-1l-8-8s-4.8.2-11 .4V13.4h-.2L303.5 0 290 13.4h-.2V25c-6.2-.2-11-.4-11-.4l-8 8s9.5.6 19 1v8.2c-15.5-.3-27.2-1-27.2-1l-8.1 8.1s17.3.9 35.3 1.3v8.3c-38.1-.2-43.6-1.4-43.6-1.4l-8.2 8.2s10.4 1.7 51.9 2.1v9.2c-44.1-.8-59.9-3.2-59.9-3.2l-8.2 8.3s23.6 3.1 68.1 3.9v10.5c-46-1-76.3-6.3-76.3-6.3l-8.2 8.2s38.1 5.8 84.5 6.8v10.7c-57.4-1.2-92.6-9.5-92.6-9.5l-8.1 8.3s42.3 10 100.8 11.2v10.3c-77.1-1.1-107.2-15-107.2-15l-8.1 8.3S212.1 144.2 290 146v10.1c-97.6-1.6-122.1-20.5-122.1-20.5l-8.6 8.6s32.3 20.6 130.7 22.4v10.8c-98.7-2.1-136.9-27-136.9-27l-8.7 8.7s47.5 27.9 145.5 30.3v11.2c-100.1-2.7-152.1-34.9-152.1-34.9l-8.1 8.1s59.5 35.4 160.3 38.4v13.1c-101-3.3-167.5-44-167.5-44l-8.2 8.1s73.5 43.5 175.5 47.2V252C187.2 247.8 106 197.5 106 197.5l-7.8 7.8s88.3 54.4 191.6 58.9V280c-103.9-5.1-200-66.3-200-66.3l-8.1 8s103.5 66.6 208.1 72.1v17.5C184.6 305.1 73.4 230 73.4 230l-8.1 8s118.6 81.8 224.5 88.6v19C183.3 338 57 246.3 57 246.3l-8 8s133.7 101.9 240.8 110.3v22c-107.7-9.4-248.9-124-248.9-124l-8.1 8.1s148.7 126.9 257.1 137.2v27.8C181.7 424 24.4 279.1 24.4 279.1l-8.2 8.2s164.9 158.5 273.6 171.5v48.5C196.4 488.4 8.1 295.4 8.1 295.4L0 303.3s216.2 243.1 303.4 243.2c87.3-.1 303.5-243.2 303.5-243.2z"></path></svg>