<svg xmlns="http://www.w3.org/2000/svg" width="613.4" viewBox="0 0 613.4 511" height="511" xml:space="preserve"><path d="M613.3 332.6c-2.8-73-51.6-134.4-117.8-156.4 10.1-17.3 15.9-37.4 15.9-58.9C511.3 52.5 458.8 0 394 0H219.4c-64.8 0-117.3 52.5-117.3 117.3 0 21.5 5.8 41.6 15.9 58.9C51.8 198.2 3 259.6.2 332.6-3.6 430.5 74.7 511 171.8 511H215c30.3 0 54.9-24.6 54.9-54.9v-124c0-20.3 16.6-36.8 36.8-36.8 20.3 0 36.8 16.6 36.8 36.8v124c0 30.3 24.6 54.9 54.9 54.9h43.2c97.1 0 175.4-80.5 171.7-178.4zM427.6 181c0 20.3-16.5 36.8-36.8 36.8-20.3 0-36.8-16.5-36.8-36.8s16.5-36.8 36.8-36.8c20.3 0 36.8 16.4 36.8 36.8zM348.7 69c20.3 0 36.8 16.5 36.8 36.8 0 20.3-16.5 36.8-36.8 36.8-20.3 0-36.8-16.5-36.8-36.8 0-20.4 16.5-36.8 36.8-36.8zm-84 0c20.3 0 36.8 16.5 36.8 36.8 0 20.3-16.5 36.8-36.8 36.8-20.3 0-36.8-16.5-36.8-36.8 0-20.4 16.5-36.8 36.8-36.8zm-42.1 75.2c20.3 0 36.8 16.5 36.8 36.8s-16.5 36.8-36.8 36.8c-20.3 0-36.8-16.5-36.8-36.8s16.5-36.8 36.8-36.8zm-78.9 112c0-20.3 16.5-36.8 36.8-36.8 20.3 0 36.8 16.5 36.8 36.8 0 20.3-16.5 36.8-36.8 36.8-20.4 0-36.8-16.5-36.8-36.8zm78.9 112c-20.3 0-36.8-16.5-36.8-36.8 0-20.3 16.5-36.8 36.8-36.8 20.3 0 36.8 16.5 36.8 36.8 0 20.3-16.4 36.8-36.8 36.8zm42-75.2c-20.3 0-36.8-16.5-36.8-36.8 0-20.3 16.5-36.8 36.8-36.8 20.3 0 36.8 16.5 36.8 36.8.1 20.3-16.4 36.8-36.8 36.8zm5.4-112c0-20.3 16.5-36.8 36.8-36.8s36.8 16.5 36.8 36.8-16.5 36.8-36.8 36.8S270 201.3 270 181zm41.8 75.2c0-20.3 16.5-36.8 36.8-36.8 20.3 0 36.8 16.5 36.8 36.8 0 20.3-16.5 36.8-36.8 36.8-20.3 0-36.8-16.5-36.8-36.8zm79 112c-20.3 0-36.8-16.5-36.8-36.8 0-20.3 16.5-36.8 36.8-36.8 20.3 0 36.8 16.5 36.8 36.8 0 20.3-16.5 36.8-36.8 36.8zM430 293c-20.3 0-36.8-16.5-36.8-36.8 0-20.3 16.5-36.8 36.8-36.8 20.3 0 36.8 16.5 36.8 36.8 0 20.3-16.5 36.8-36.8 36.8z"></path></svg>