<svg data-name="Layer 1" xmlns="http://www.w3.org/2000/svg" viewBox="0 0 581.61 217.26"><path d="M475.32 217.26H25.55C11.44 217.26 0 205.82 0 191.71V54.49c0-14.11 11.44-25.55 25.55-25.55h315.4c7.3 0 14.29 2.93 19.41 8.14l48.98 49.81c11.69 11.89 11.69 31.35 0 43.24l-48.97 49.8a27.234 27.234 0 0 1-19.43 8.14H213.77c-7.02 0-13.52-3.71-17.09-9.76l-28.93-49.05h-.02l-19.46 32.99a11.504 11.504 0 0 1-9.91 5.66c-4.05 0-7.85-2.18-9.9-5.67l-19.5-33.34h-.02l-28.9 48.99a19.844 19.844 0 0 1-17.09 9.76H33.36V168.3h27.7c1.19 0 2.27-.63 2.87-1.65l35.14-59.11c2.06-3.49 5.85-5.65 9.91-5.65h.02c4.07 0 7.83 2.16 9.88 5.67l18.9 32.3h1.23l18.83-31.93c2.07-3.5 5.83-5.65 9.89-5.65 4.07 0 7.84 2.15 9.91 5.66 0 0 29.06 49.27 34.76 58.91.6 1.02 1.68 1.63 2.87 1.64l28.1.22h97.57c2.11 0 4.14-.85 5.62-2.35l48.98-49.8c4.36-4.43 4.36-11.68 0-16.11l-48.97-49.8a7.885 7.885 0 0 0-5.61-2.35H25.55c-3.41 0-6.2 2.79-6.2 6.2v137.21c0 3.42 2.77 6.19 6.19 6.19h449.78c2.09 0 4.13-.85 5.6-2.33l78.06-79c4.39-4.44 4.39-11.7 0-16.14L481.17 21.7a7.875 7.875 0 0 0-5.61-2.34H33.35V0h442.2c7.23 0 14.29 2.95 19.37 8.08l77.82 78.75c11.81 11.96 11.81 31.39 0 43.34l-78.06 78.99c-5.12 5.18-12.1 8.1-19.39 8.1Zm-300.8-99.49v.02-.02Zm-72.34-.41v.02-.02Z"></path></svg>