<svg id="Layer_1" data-name="Layer 1" xmlns="http://www.w3.org/2000/svg" viewBox="0 0 626.75 628.63">   <path d="M622.35,300.74c-26.62-60.24-86.35-99.16-152.18-99.16-21.52,0-42.37,4.18-61.64,11.89l122.99-122.99-10.14-3.93c-61.41-23.78-131.17-9.06-177.72,37.49-15.41,15.41-27.31,33.37-35.5,52.72V0l-9.95,4.4c-49.02,21.66-83.92,65.25-95.22,116.2l-10.37-17.98c2.51-2.28,4.1-5.57,4.1-9.23,0-6.89-5.59-12.48-12.48-12.48s-12.48,5.59-12.48,12.48,5.59,12.49,12.48,12.49c.68,0,1.34-.07,1.99-.17l14.77,25.61c-1.27,8.28-1.94,16.71-1.94,25.26,0,16.56,1.98,32.11,5.86,46.49L103.09,101.23c1.38-2.01,2.19-4.44,2.19-7.06,0-6.9-5.59-12.49-12.49-12.49s-12.48,5.59-12.48,12.49,5.59,12.49,12.48,12.49c1.69,0,3.29-.34,4.76-.94l102.35,102.35c-14.04-3.92-28.37-5.86-43.33-5.86-9.39,0-18.65,.82-27.71,2.35l-25.19-14.53c.52-1.37,.82-2.86,.82-4.41,0-6.89-5.59-12.48-12.48-12.48s-12.48,5.59-12.48,12.48,5.59,12.49,12.48,12.49c2.74,0,5.27-.9,7.33-2.39l19.03,10.97c-49.99,11.82-92.63,46.39-113.97,94.69l-4.4,9.95H172.29c-18.49,8.15-35.66,19.72-50.46,34.53-46.55,46.55-61.26,116.31-37.49,177.72l3.93,10.14,122.27-122.27c-7.44,18.98-11.47,39.48-11.47,60.61,0,65.83,38.92,125.56,99.16,152.18l9.95,4.4V310.68h318.58l-4.4-9.95ZM353.68,134.06c29.06-29.06,68.01-44.56,107.67-44.56,14.88,0,29.86,2.18,44.46,6.65l-190.04,190.04c-16.37-53.51-2.05-112.17,37.91-152.13Zm-59.68-111.87V244.02l-23.9-119.99c3.97-2.09,6.67-6.25,6.67-11.04,0-6.89-5.59-12.49-12.48-12.49s-12.48,5.59-12.48,12.49c0,6.51,4.99,11.85,11.35,12.43l30.26,151.92-79.25-137.4c5.48-49.86,35.33-94.09,79.84-117.75Zm-80.7,130.44l80.15,138.96-63.93-63.92-3.69-8.07c-8.37-18.3-12.61-39.51-12.61-63.03,0-1.32,.03-2.63,.07-3.94Zm-56.72,63.75c20.97,0,40.58,4.14,59.97,12.65l7.71,3.39,64.19,64.19-138.78-80.05c2.3-.1,4.6-.18,6.91-.18ZM22.19,297.15c23.24-43.73,66.35-73.31,115.14-79.53l136.19,78.55-149.48-31.51c-.51-6.43-5.88-11.48-12.43-11.48-6.9,0-12.49,5.59-12.49,12.48s5.59,12.49,12.49,12.49c4.75,0,8.87-2.65,10.99-6.55l121.2,25.55h-3.19c-.1,0-.21,0-.31,0H22.19Zm71.74,210.85c-16.37-53.51-2.05-112.17,37.91-152.13,28.99-28.99,67.82-44.48,107.39-44.55h.66c14.75,.04,29.61,2.21,44.08,6.64L93.93,508Zm200.06,98.44c-49.41-26.26-80.77-77.86-80.77-134.38s31.36-108.12,80.77-134.38v268.76Zm41.8-309.92c26.26-49.41,77.87-80.77,134.38-80.77s108.12,31.36,134.38,80.77H335.79Z"></path> </svg>