<svg xmlns="http://www.w3.org/2000/svg" width="602.4" viewBox="0 0 602.4 602.4" height="602.4" style="enable-background:new 0 0 602.4 602.4" xml:space="preserve"><path d="m412.6 8.2-.2.2-8.2-8.2L62.1 0H0v403.7l182.1 182.5 16 16.1h6.5l341.2.1h56.6V198.7L412.6 8.2zM364 56.7l-.1 125.3H222.2L96.7 56.7H364zm-.1 182v125H238.8v-125h125.1zM62.1 385.8V102.1l120.1 120V392h-.2v114L62.1 385.8zm176.6 159.9-.1-125.3h141.6l125.5 125.4-267-.1zm181.8-165.2V210.4l.1-114 125.2 125.7v283.7L420.5 380.5z"></path></svg>