<svg data-name="Layer 1" xmlns="http://www.w3.org/2000/svg" viewBox="0 0 621.84 621.84"><path d="M492.25 437.49c0-68.51 55.73-124.24 124.24-124.24 1.78 0 3.52.19 5.28.27 0-.87.07-1.73.07-2.6s-.06-1.73-.07-2.6c-1.76.07-3.5.27-5.28.27-68.51 0-124.24-55.73-124.24-124.24 0-36.15 15.62-68.64 40.34-91.37-1.27-1.29-2.55-2.56-3.83-3.83-22.73 24.78-55.25 40.43-91.45 40.43-68.51 0-124.24-55.73-124.24-124.24 0-1.78.19-3.52.27-5.29-.81 0-1.61-.06-2.43-.06-.87 0-1.73.06-2.6.07.07 1.76.27 3.5.27 5.28 0 68.51-55.73 124.24-124.24 124.24-36.15 0-68.64-15.62-91.37-40.34-1.26 1.24-2.5 2.48-3.74 3.74 24.73 22.72 40.34 55.22 40.34 91.37 0 68.51-55.73 124.24-124.24 124.24-1.78 0-3.52-.19-5.28-.27 0 .87-.07 1.73-.07 2.6s.06 1.73.07 2.6c1.76-.07 3.5-.27 5.28-.27 68.51 0 124.24 55.73 124.24 124.24 0 36.15-15.62 68.64-40.34 91.37 1.24 1.26 2.48 2.5 3.74 3.74 22.72-24.73 55.22-40.34 91.37-40.34 68.51 0 124.24 55.73 124.24 124.24 0 1.78-.19 3.52-.27 5.28.87 0 1.73.07 2.6.07s1.73-.06 2.6-.07c-.07-1.76-.27-3.5-.27-5.28 0-68.51 55.73-124.24 124.24-124.24 36.15 0 68.64 15.62 91.37 40.34 1.26-1.24 2.5-2.48 3.74-3.74-24.73-22.72-40.34-55.22-40.34-91.37Z"></path></svg>