<svg xmlns="http://www.w3.org/2000/svg" width="586.8" viewBox="0 0 586.8 604" height="604"><path d="M154.1 60.2l5.5-38c.2-1.2.9-2.2 2-2.7s2.3-.4 3.3.2c6.9 4.3 19.8 12.3 24.2 15 .4.2.8.3 1.2.1.4-.1.7-.5.9-.9 2.1-5.4 8.7-22.5 12.1-31.4.4-1.1 1.4-2 2.6-2.2 1.2-.2 2.4.2 3.2 1.1 6.2 7.2 18.4 21.3 22.5 26 .3.4.8.5 1.3.5.5-.1.9-.3 1.1-.7 2.7-4.9 10.3-18.5 14.2-25.7.6-1 1.6-1.7 2.7-1.8 1.1-.1 2.3.4 3 1.3l20.4 25c6.3-.4 12.6-.6 19-.6h28.3c.8 0 1.4.4 1.8 1.1.3.7.2 1.5-.3 2.1-1.1 1.2-2 2.2-2 2.2-22 24.6-42.6 52.9-55.6 83.4-19.2 45-22 100.1 1.9 143.9 13.1 24.1 33.8 45.1 59.6 55.1 15.3 5.9 32.4 7.5 48.5 4.8 17.9-3 34.5-11.4 48.1-23.4 13.4-11.9 23.7-26.9 31.6-42.9 33.9-68.4 10-143.6-21.6-188.7-.5-.7-.5-1.7.1-2.3.6-.7 1.5-.8 2.3-.4 89.9 49.6 150.7 144.6 150.7 253.5 0 160.1-131.5 290.1-293.4 290.1C131.5 604 0 474.1 0 314 0 204.4 62.4 109 154.1 60.2zm73 3.7c6.7 0 12.2 5.5 12.2 12.2 0 6.7-5.5 12.2-12.2 12.2-6.7 0-12.2-5.5-12.2-12.2 0-6.7 5.5-12.2 12.2-12.2z" fill-rule="evenodd" clip-rule="evenodd"></path></svg>