<svg xmlns="http://www.w3.org/2000/svg" width="591.5" viewBox="0 0 591.5 593.1" height="593.1"><path d="M494.1 0H97.4C43.8 0 0 43.8 0 97.4c0 53.6 43.8 97.4 97.4 97.4h396.7c53.6 0 97.4-43.8 97.4-97.4 0-53.6-43.8-97.4-97.4-97.4zM97.4 207.7C43.8 207.7 0 251.6 0 305.1v190.6c0 53.6 43.8 97.4 97.4 97.4 53.6 0 97.4-43.8 97.4-97.4V305.1c0-53.5-43.9-97.4-97.4-97.4zM375.4 236.3c-37.9-37.9-99.8-37.9-137.7 0-37.9 37.9-37.9 99.8 0 137.7l170.2 170.2c37.9 37.9 99.8 37.9 137.7 0 37.9-37.9 37.9-99.8 0-137.7L375.4 236.3z"></path></svg>