<svg xmlns="http://www.w3.org/2000/svg" width="548.9" viewBox="0 0 548.9 642" height="642" style="overflow:visible;enable-background:new 0 0 548.9 642" xml:space="preserve"><path d="M548.9 274.5v214.3c0 84.6-68.6 153.2-153.2 153.2-49.3 0-93.2-23.3-121.2-59.4-28 36.1-71.9 59.4-121.2 59.4C68.6 642 0 573.4 0 488.8V274.5C0 122.9 122.9 0 274.5 0s274.4 122.9 274.4 274.5zM278.6 64.2C160.7 62 64.2 160.7 64.2 278.6v210.1c0 50.7 42.4 91.5 93.5 89 47.9-2.4 84.6-43.7 84.6-91.6v-67.2H165c-42.7 0-77.3-34.6-77.3-77.3v-59.9h121.5c29.1 0 53.8 19.1 62.2 45.4 1 3.1 5.1 3.1 6.1 0 8.4-26.3 33.1-45.4 62.2-45.4h121.5v59.9c0 42.7-34.6 77.3-77.3 77.3h-77.3v69.8c0 50.6 42.3 91.4 93.5 89 47.9-2.3 84.7-43.5 84.7-91.5V274.4c-.1-114.7-92-208-206.2-210.2z"></path><circle cx="274.5" cy="180.5" r="92.7"></circle></svg>