<svg xmlns="http://www.w3.org/2000/svg" id="a" width="642" viewBox="0 0 642 642" height="642" data-name="Layer 1"><defs></defs><path d="M417.3 321c0-67.7-61.56-122.78-137.23-122.78H0v48.55h295.32c44.32 0 80.25 33.23 80.25 74.23s-35.93 74.23-80.25 74.23H0v48.55h280.07c75.67 0 137.23-55.08 137.23-122.78Z" class="b"></path><path d="M359.52 321c0-32.08-28.8-58.18-64.2-58.18H0v28.49h300.78c17.73 0 32.1 13.29 32.1 29.69s-14.37 29.69-32.1 29.69H0v28.49h295.32c35.4 0 64.2-26.1 64.2-58.18Z" class="b"></path><path d="M316.83 321c0-7.52-7.2-13.64-16.05-13.64H0v27.29h300.78c8.85 0 16.05-6.12 16.05-13.64Z" class="b"></path><path d="M321 0H0v56.58h289.3c159.78 0 289.3 118.39 289.3 264.42S449.08 585.42 289.3 585.42H0V642h321c177.28 0 321-143.72 321-321S498.28 0 321 0Z" class="b"></path><path d="M487.92 321c0-103.99-93.96-188.59-209.45-188.59H0v49.75h280.07c84.65 0 153.28 62.16 153.28 138.83s-68.62 138.83-153.28 138.83H0v49.75h278.47c115.49 0 209.45-84.6 209.45-188.58Z" class="b"></path><path d="M562.55 321c0-136.95-122.58-248.37-273.25-248.37H0v43.74h278.47c124.54 0 225.5 91.62 225.5 204.64s-100.96 204.64-225.5 204.64H0v43.74h289.3c150.67 0 273.25-111.42 273.25-248.37Z" class="b"></path></svg>