<svg xmlns="http://www.w3.org/2000/svg" width="620.5" viewBox="0 0 620.5 620.8" height="620.8" style="enable-background:new 0 0 620.5 620.8" xml:space="preserve"><path d="M110.7 72.8C43 129.8 0 215.1 0 310.4c0 171.4 139 310.4 310.4 310.4 95.3 0 180.6-43 237.6-110.7H110.7V72.8zM310 0v.3c.1-.1.3-.2.4-.3h-.4z"></path><path d="M218.3 13.9v-.3c-.2.2-.4.3-.6.5-61.1 50.7-100 127.2-100 212.8 0 152.7 123.8 276.5 276.5 276.5 85.3 0 161.6-38.6 212.3-99.4.2-.5.3-1 .5-1.5H218.3V13.9z"></path><path d="M446.3 395.7c70.7 0 133.7-33.2 174.2-84.9H310V.3c-51.7 40.5-84.9 103.5-84.9 174.2 0 122.2 99 221.2 221.2 221.2z"></path><path d="M489.6 303.4c49.3 0 93.8-20.6 125.3-53.8-24.5-123-121.6-219.8-244.8-243.8-32.9 31.5-53.3 75.8-53.3 124.9 0 95.4 77.4 172.7 172.8 172.7z"></path></svg>