<svg xmlns="http://www.w3.org/2000/svg" width="642" viewBox="0 0 642 642" height="642" style="overflow:visible;enable-background:new 0 0 642 642" xml:space="preserve"><path d="M642 180.9C642 81 561.8 0 462.8 0c-57.7 0-109 27.6-141.8 70.4C288.2 27.6 236.9 0 179.2 0 80.2 0 0 81 0 180.9L.2 642h104.4c-16.7-16.1-27.2-38.9-27.2-64.4 0-44 31.3-80.4 72.1-86.9V224.5c0-27.3 22-49.5 49-49.5s49 22.2 49 49.5v353.1c0 25.5-10.5 48.3-27.2 64.4h129.4c-16.7-16.1-27.2-38.9-27.2-64.4 0-44 31.3-80.4 72.1-86.9V224.5c0-27.3 22-49.5 49-49.5s49 22.2 49 49.5v353.1c0 25.5-10.5 48.3-27.2 64.4H642V180.9z"></path></svg>