<svg id="Layer_1" data-name="Layer 1" xmlns="http://www.w3.org/2000/svg" viewBox="0 0 609.07 609.06">   <defs>        </defs>   <path class="cls-1" d="M453.96,.93l-.93-.93H156.03L0,156.02V453.04l155.09,155.1,.93,.92H453.03l155.11-155.09,.92-.93V156.02L453.96,.93Zm-5.41,153.24H160.5V6.33H448.56V154.17Zm0,6.33V448.56H160.5V160.5H448.56Zm-294.39-6.33H10.81L154.17,10.81V154.17Zm0,6.33V448.56H6.33V160.5H154.17Zm0,294.39v143.36L10.81,454.89H154.17Zm6.33,0H448.56v147.84H160.5v-147.84Zm294.39,0h143.37l-143.37,143.36v-143.36Zm0-6.33V160.5h147.84V448.56h-147.84Zm0-294.39V10.81l143.36,143.36h-143.36Z"></path> </svg>