<svg data-name="Layer 1" xmlns="http://www.w3.org/2000/svg" viewBox="0 0 608.98 608.57"><path d="M346.28 2.87c9.91 116.91 60.18 225.51 144.11 309.44 31.9 31.9 67.37 58.91 105.49 80.72 8.5-28.02 13.09-57.74 13.09-88.54 0-153.98-114.31-281.25-262.7-301.62ZM262.7 2.87C114.31 23.24 0 150.5 0 304.49c0 30.8 4.59 60.52 13.09 88.54 38.12-21.81 73.6-48.83 105.49-80.72 83.94-83.93 134.2-192.53 144.12-309.44ZM57.12 482.05c52.39 72.86 136.17 121.64 231.55 126.52V470.85c-39.75 19.87-83.67 30.28-128.54 30.28-36.28 0-71.01-6.76-103.01-19.08Z"></path><path d="M468.03 334.67C377.48 244.12 323.74 126.57 314.31.17c-3.26-.1-6.53-.17-9.82-.17s-6.56.07-9.82.17c-9.43 126.39-63.17 243.94-153.72 334.49-35.24 35.24-74.59 64.87-116.94 88.52-1.95 1.09-3.91 2.18-5.87 3.25 3.34 2.23 6.75 4.36 10.2 6.44 38.53 23.23 83.62 36.63 131.8 36.63s95.26-13.5 135.95-39.04l8.4-5.28 8.41 5.28c40.69 25.54 87.7 39.04 135.95 39.04s93.27-13.41 131.8-36.63c3.45-2.08 6.86-4.2 10.2-6.44-1.97-1.07-3.92-2.16-5.87-3.25-42.35-23.65-81.7-53.28-116.94-88.52ZM320.3 470.85v137.72c95.38-4.88 179.16-53.66 231.55-126.52-32 12.31-66.73 19.08-103.01 19.08-44.88 0-88.8-10.41-128.54-30.28Z"></path></svg>