<svg xmlns="http://www.w3.org/2000/svg" width="610.1" viewBox="0 0 610.1 585.4" height="585.4" xml:space="preserve" style="enable-background:new 0 0 610.1 585.4"><path d="M263.4 245.2H58.8L8.1 278.6l-2.3 1.5c-3.5 2.4-5.8 6.5-5.8 11.1 0 3.6 1.4 6.8 3.7 9.2l2.1 2.2 30.9 31.5 202.9.1 23.8-89z"></path><path d="m586.5 202.3 23.6-88.7H434l23.8-88.9v-.4c.3-1.3.4-2.7.4-4.1 0-11.2-9.1-20.4-20.4-20.4-4.2 0-8.1 1.3-11.4 3.5l-9.7 6.3-292.2 192.8h150.2l23.8-88.8h100.9l-94.2 352.1H204.6l23.7-89.2H77.8l190.5 193.9 8.5 8.7c3.7 3.8 8.9 6.2 14.6 6.2 9.4 0 17.3-6.4 19.6-15.1l2-6.9 26.8-97.7h176.1l23.7-89.1H428.9l11.5-42.4H551l23.7-88.9H463.9l11.8-42.9h110.8z"></path></svg>