<svg data-name="Layer 1" xmlns="http://www.w3.org/2000/svg" viewBox="0 0 606.77 407.62"><path d="m0 0 .19.34 12.33 21.35h581.73L606.57.34l.2-.34H0zM37.28 64.57h532.21l12.33-21.35H24.95l12.33 21.35zM62.04 107.45h482.69l12.33-21.35H49.71l12.33 21.35zM86.79 150.33h433.18l12.33-21.35H74.47l12.32 21.35zM111.55 193.21h383.67l12.32-21.35H99.23l12.32 21.35zM136.31 236.1h334.15l12.33-21.36H123.98l12.33 21.36zM161.07 278.98H445.7l12.33-21.35H148.74l12.33 21.35zM185.83 321.86h235.11l12.33-21.35H173.5l12.33 21.35zM210.58 364.74h185.6l12.33-21.35H198.26l12.32 21.35zM235.34 407.62h136.09l12.32-21.35H223.01l12.33 21.35z"></path></svg>