<svg data-name="Layer 1" xmlns="http://www.w3.org/2000/svg" viewBox="0 0 472.42 606.77"><path d="M161.13 163.13h145.25c.59 0 .9-.7.51-1.14L161.64.23c-.42-.47-1.19-.17-1.19.46v161.76c0 .38.31.68.68.68Z"></path><path d="M471.74 172.05H321.58a.68.68 0 0 0-.68.68v128.35c0 .38-.31.68-.68.68h-7.56a.68.68 0 0 1-.68-.68V172.05H160.45v129.03c0 .38-.31.68-.68.68h-7.56a.68.68 0 0 1-.68-.68V.78c0-.64-.8-.93-1.21-.44L.16 179.28c-.06.15-.1.29-.16.44v254.31c0 .38.31.68.68.68h150.16c.38 0 .68-.31.68-.68V315.31c0-.38.31-.68.68-.68h7.56c.38 0 .68.31.68.68v119.4h151.52v-119.4c0-.38.31-.68.68-.68h7.56c.38 0 .68.31.68.68v290.67c0 .64.8.93 1.21.44l150.16-178.94c.06-.15.1-.29.16-.44v-254.3a.68.68 0 0 0-.68-.68Z"></path><path d="M311.29 443.64H166.04c-.59 0-.9.7-.51 1.14l145.25 161.76c.42.47 1.19.17 1.19-.46V444.32a.68.68 0 0 0-.68-.68Z"></path></svg>