<svg data-name="Layer 1" xmlns="http://www.w3.org/2000/svg" viewBox="0 0 615.17 615.17"><path d="M238.49 173.53 104.44 307.58l52.98 52.99h55.93l-52.98-52.99 78.12-78.11v-55.94zM229.47 376.68h-55.94l134.34 134.34 52.7-52.69V402.4l-52.7 52.69-78.4-78.41zM376.68 442.21l134.63-134.63-52.98-52.98H402.4l52.98 52.98-78.7 78.7v55.93zM386.28 238.49h55.93L307.87 104.15l-53.27 53.27v55.93l53.27-53.27 78.41 78.41zM254.6 0v55.92L310.52 0H254.6zM238.49 72.03V16.1L53.69 200.9 0 147.21v55.94l53.69 53.68 184.8-184.8zM72.03 376.68H16.1l185.09 185.09-53.4 53.4h55.94l53.39-53.4L72.03 376.68zM0 304.65v55.92h55.92L0 304.65z"></path><path d="m481.12 254.6 52.98 52.98L376.68 465v55.93l185.38-185.38 53.11 53.11v-55.93l-78.13-78.13h-55.92zM465 238.49h55.93L335.84 53.4 389.24 0H333.3l-78.7 78.7v55.94l53.27-53.28L465 238.49zM134.64 360.57l-52.99-52.99 156.84-156.83V94.82l-184.8 184.8L0 225.93v55.93l78.7 78.71h55.94zM150.75 376.68H94.82l185.09 185.09-53.4 53.4h55.93l78.13-78.13v-55.93l-52.7 52.7-157.12-157.13z"></path><path d="M376.68 543.72v55.93l185.38-185.38 53.11 53.11v-55.94l-53.11-53.11-185.38 185.39zM360.57 615.17v-55.34l-55.34 55.34h55.34zM543.72 238.49h55.93L414.56 53.4 467.96 0h-55.94l-53.39 53.4 185.09 185.09zM559.83 254.6l55.34 55.34V254.6h-55.34z"></path><circle cx="307.58" cy="307.29" r="84.42"></circle></svg>