<svg xmlns="http://www.w3.org/2000/svg" width="615.4" viewBox="0 0 615.4 558.6" height="558.6" xml:space="preserve" style="enable-background:new 0 0 615.4 558.6"><path d="M498.5 443.5c-34 0-61.5-27.6-61.5-61.5h-67.7c0 34-27.6 61.5-61.5 61.5-34 0-61.6-27.6-61.6-61.5h-67.7c0 34-27.6 61.5-61.5 61.5-34 0-61.5-27.6-61.5-61.5h-34c-.1 53.2 43.8 96.4 97.1 95.4 6.8 46 46.5 81.3 94.4 81.3 45 0 82.7-31.2 92.8-73.1h5.3c10 41.9 47.7 73.1 92.8 73.1 47.9 0 87.5-35.3 94.4-81.3 52.8.3 95.8-42.6 95.8-95.4h-33.8c-.2 34-27.8 61.5-61.8 61.5zm-285.6 81.3c-31.4 0-57.4-23.6-61.1-54 28-11 49.5-34.9 57.3-64.4h6.3c7.9 29.9 29.9 54 58.5 64.9-3.9 30.1-29.7 53.5-61 53.5zm190.8 0c-31.4 0-57.4-23.6-61.1-54 28-11 49.5-34.9 57.3-64.4h6.3c7.9 29.9 29.9 54 58.5 64.9-3.9 30.1-29.7 53.5-61 53.5z"></path><path d="m611.4 249.5-93-164.8c-8.7-15.6-31.1-15.6-39.8 0L458 121.1C443 51.9 381.4 0 307.7 0 234 0 172.4 51.8 157.3 121l-20.5-36.3c-8.7-15.6-31.1-15.6-39.8 0L4.1 249.5c-13 27.1 6.8 58.4 36.8 58.4H77V382c0 22.1 17.9 40 40 40s40-17.9 40-40v-74.1h36c16.2 0 29.4-9.1 36.1-21.8 11.9 7.1 24.9 12.6 38.6 16.3V382c0 22.1 17.9 40 40 40s40-17.9 40-40v-79.6c13.7-3.7 26.7-9.2 38.7-16.4 6.7 12.7 19.9 21.8 36.1 21.8h36.1V382c0 22.1 17.9 40 40 40s40-17.9 40-40v-74.1h36.1c29.9 0 49.7-31.4 36.7-58.4zm-439.6 22.4H62.1c-12.6 0-20.6-13.6-14.4-24.6l60.2-108c4-7.1 14.1-7.1 18.1 0l60.2 108c6.2 11-1.8 24.6-14.4 24.6zm135.9-1.1c-64.6 0-116.9-52.4-116.9-116.9C190.8 89.3 243.2 37 307.7 37c64.6 0 116.9 52.4 116.9 116.9 0 64.6-52.3 116.9-116.9 116.9zm245.7 1.1H443.6c-12.6 0-20.6-13.6-14.4-24.6l60.2-108c4-7.1 14.1-7.1 18.1 0l60.2 108c6.3 11-1.7 24.6-14.3 24.6z"></path></svg>