<svg xmlns="http://www.w3.org/2000/svg" width="617.6" viewBox="0 0 617.6 588.8" height="588.8" xml:space="preserve" style="enable-background:new 0 0 617.6 588.8"><path d="m56 140.4 53.1 92c5-3.8 9.9-8 14.4-12.5 8.2-8.2 15.5-17.6 21.5-28 6-10.4 10.5-21.4 13.5-32.7 1.7-6.2 2.9-12.5 3.6-18.8H56zm452.5-16.1 53.1-92H455.4c2.2 18.1 8 35.7 17.2 51.6 8.9 15.4 21 29.2 35.9 40.4m-149.8 108 43.8 75.8L482 170.2v-.1l10.2-17.7c-19.9-14.2-35.9-32.2-47.6-52.4-12-20.8-19.4-43.9-21.7-67.8H243.2L287 108h143.5l-71.8 124.3zm-99.8 108.1-71.7-124.2h143.5l43.8-75.8H194.7c-.9 9.1-2.5 18.2-4.9 27.1-3.7 13.7-9.3 27.3-16.8 40.4-7.5 13.1-16.5 24.7-26.6 34.7-6.6 6.6-13.6 12.5-21.1 17.8l10.3 17.8v.1l79.6 137.9 43.7-75.8zm233.9-124.3h124.8L402.4 588.8 277.6 372.7l-62.4 108.1-107.6-186.4L0 108.1h249.6L187.2 0h430.4L510 186.4l-17.2 29.7zm-90.2 173c23.4 0 46.9 4.9 69.2 15l89.8-155.6h-87.5l-71.7 124.2-71.7-124.3h-87.5L333 404.1c21.8-9.9 45.6-15 69.6-15m52.9 43.2c-17.1-7.4-35.1-10.9-53-10.9-18.3 0-36.5 3.7-53.3 10.9l53.1 92 53.2-92z"></path></svg>