<svg xmlns="http://www.w3.org/2000/svg" width="616.5" viewBox="0 0 616.5 418.9" height="418.9" xml:space="preserve" style="enable-background:new 0 0 616.5 418.9"><path class="st0" d="M0 232.7h616.5v75.5H0zM0 0v214.3h616.5V0H0zm223.1 143.1H66.7V62.4H223v80.7zm340.7 0H291.6V62.4h272.3v80.7zM616.5 352.2v66.7c-44.1-18.9-85.1-28.5-124.4-28.1-32.7.3-63.2 8.1-103.3 18.2-44.7 11.3-81.9 9.2-123.5 2.9-50.5-7.6-95-27.6-158.1-22.8-40.6 3-78.2 18.4-107.2 29.8v-63.2c42.7-22.1 91.1-38.3 151.1-31.6 63.8 7.1 124.4 32.4 187.9 28.1 63.3-4.2 110.4-32.9 186.2-26.3 31.6 2.6 63.2 12.9 91.3 26.3z"></path></svg>