<svg id="Layer_1" data-name="Layer 1" xmlns="http://www.w3.org/2000/svg" viewBox="0 0 605.08 290.51">   <path d="M550.18,111.18c-3.53,0-6.97,.36-10.31,1C482.68,41.96,396.35,0,304.01,0S124.73,42.09,67.63,112.72c-4.09-.97-8.34-1.54-12.73-1.54C24.58,111.18,0,135.76,0,166.08s24.58,54.9,54.9,54.9,54.9-24.58,54.9-54.9c0-11.48-3.54-22.14-9.57-30.95,44.51-53.76,108.64-87.95,178.97-94.5-58.45,10.95-102.7,62.22-102.7,123.85,0,69.61,56.43,126.04,126.04,126.04s126.04-56.43,126.04-126.04c0-62.54-45.56-114.41-105.29-124.31,71.38,5.21,137.21,39.14,182.9,93.17-6.82,9.15-10.91,20.46-10.91,32.75,0,30.32,24.58,54.9,54.9,54.9s54.9-24.58,54.9-54.9-24.58-54.9-54.9-54.9Z"></path> </svg>