<svg xmlns="http://www.w3.org/2000/svg" width="561.1" viewBox="0 0 561.1 610.2" height="610.2" xml:space="preserve" style="enable-background:new 0 0 561.1 610.2"><path d="M305.1 488.7c-101.4 0-183.6-82.2-183.6-183.6 0-73.8 43.6-137.5 106.4-166.6v244h243.7c-29.2 62.7-92.7 106.2-166.5 106.2m79.8-349-77.7 77.7-79-79c23.4-10.8 49.4-16.8 76.9-16.8 28.6-.1 55.7 6.4 79.8 18.1m87.4 242.7-79.5-79.5 166.5-166.5C504.7 54.2 411.2 0 305.1 0 136.6 0 0 136.6 0 305.1s136.6 305.1 305.1 305.1c107.2 0 201.6-55.3 256-139l-88.8-88.8z"></path></svg>