<svg data-name="Layer 1" xmlns="http://www.w3.org/2000/svg" viewBox="0 0 623.89 623.89"><path d="M311.94 0C171.21 0 52.28 93.22 13.43 221.26h597.02C571.6 93.22 452.68 0 311.94 0ZM155.37 244.2c-37.54 0-68.26 30.72-68.26 68.26v215.6c37.05 38.53 83.87 67.55 136.52 83.07V312.46c0-37.54-30.72-68.26-68.26-68.26ZM7.32 244.8C2.57 266.44 0 288.88 0 311.94c0 72.95 25.11 139.99 67.06 193.11V312.46c0-34.65-26.18-63.42-59.73-67.66ZM311.94 244.2c-37.54 0-68.26 30.72-68.26 68.26V616.3c21.98 4.91 44.8 7.58 68.26 7.58s46.28-2.67 68.26-7.58V312.46c0-37.54-30.72-68.26-68.26-68.26ZM468.52 244.2c-37.54 0-68.26 30.72-68.26 68.26v298.66c52.65-15.52 99.47-44.54 136.52-83.07v-215.6c0-37.54-30.72-68.26-68.26-68.26ZM616.56 244.8c-33.55 4.24-59.73 33.01-59.73 67.66v192.59c41.95-53.12 67.06-120.17 67.06-193.11 0-23.06-2.58-45.51-7.32-67.14Z"></path></svg>