<svg data-name="Layer 1" xmlns="http://www.w3.org/2000/svg" viewBox="0 0 507.12 610.56"><path d="M426.19 120.99 477 0h-68.83l-50.82 120.99h-68.61L339.55 0h-68.84L219.9 120.99h-68.62L202.09 0h-68.83L82.44 120.99H0v65.31h507.12v-65.31h-80.93zM477 212.13h-68.83l-50.82 120.99h-68.61l50.81-120.99h-68.84L219.9 333.12h-68.62l50.81-120.99h-68.83L82.44 333.12H0v65.31h507.12v-65.31h-80.93L477 212.13zM339.55 424.27h-68.84L219.9 545.26h-68.62l50.81-120.99h-68.83L82.44 545.26H0v65.3h507.12v-65.3H288.74l50.81-120.99z"></path></svg>