<svg xmlns="http://www.w3.org/2000/svg" width="609.5" viewBox="0 0 609.5 588" height="588"><path d="M427.6 118.2s.1 94.2 0 101.1c-.2 7.8.2 15.8-.8 23.5-1.1 8.3-2.9 16.7-5.8 24.6-3.7 10.4-9.1 20-15.3 29.3-5.1 7.6-10.9 14.3-17.2 20.8-2.3 2.4-4.7 4.8-7.1 7.1-6.9 6.8-13.9 13.6-20.8 20.5-7.6 7.5-15.2 15-22.6 22.6-7.1 7.3-13.4 14.9-19 23.5-.5.8-1.5 2.3-2.7 2.2-.8 0-1.2-1-1.2-1.9.1-2.1-.3-88.4.1-111.3.1-8 .9-16.1 2.5-23.9 2-9.2 4.7-18.3 8.1-27 5.3-13.5 13.1-25.6 23.1-36.1 8.7-9.1 60.7-59.3 77.9-75.8-40.5-39-81.2-78.2-122-117.4-40.8 39.2-81.6 78.4-122.1 117.4 17.1 16.5 69.2 66.7 77.9 75.8 10 10.5 17.8 22.6 23.1 36.1 3.4 8.7 6.1 17.8 8.1 27 1.7 7.8 2.4 15.9 2.5 23.9.4 22.9 0 109.1.1 111.3 0 .9-.3 1.9-1.2 1.9-1.2.1-2.2-1.4-2.7-2.2-5.6-8.6-11.8-16.2-19-23.5-7.4-7.6-15-15.1-22.6-22.6-6.9-6.8-13.9-13.6-20.8-20.5-2.4-2.4-4.8-4.7-7.1-7.1-6.3-6.5-12.1-13.2-17.2-20.8-6.2-9.3-11.6-18.9-15.3-29.3-2.8-7.9-4.6-16.3-5.8-24.6-1.1-7.7-.6-15.7-.8-23.5-.2-6.9 0-101.1 0-101.1L0 293.2c75.7 74 226.9 221.7 226.9 221.7l.8-.6s-.6-.7-.9-1c-4.7-5.3-9.4-10.4-14-15.8-3.7-4.4-7.5-8.8-10.7-13.5-7.7-11.3-14.4-23.1-17.6-36.6-2.4-10.3-3.2-20.8-3-31.4.2-12.5.1-111.3.1-111.3s23.5 22.5 33.1 31.7c7.8 7.6 37.3 35.9 43.8 42.9 10.8 11.5 20.1 24.1 26.4 38.7 5 11.4 9.3 30.3 9.6 42.9.4 22.5 0 127 0 127h20.8s-.4-104.5 0-127c.2-12.6 4.6-31.4 9.6-42.9 6.3-14.6 15.6-27.2 26.4-38.7 6.5-6.9 35.9-35.3 43.8-42.9 9.5-9.2 33.1-31.7 33.1-31.7s-.1 98.8.1 111.3c.2 10.6-.6 21.1-3 31.4-3.1 13.5-9.9 25.3-17.6 36.6-3.2 4.7-7 9.1-10.7 13.5-4.6 5.3-9.3 10.5-14 15.8-.3.3-.9 1-.9 1l.8.6s151.2-147.7 226.9-221.7c-60.9-58.3-182.2-175-182.2-175z"></path></svg>