<svg data-name="Layer 1" xmlns="http://www.w3.org/2000/svg" viewBox="0 0 615.95 615.95"><path d="M468.31 365.96c-24.17 66.82-88.35 112.47-160.33 112.47-93.99 0-170.45-76.46-170.45-170.46s76.46-170.45 170.45-170.45c71.98 0 136.17 45.64 160.34 112.47h147.64v-69.58L435.54 0H180.41L0 180.41v255.13l180.41 180.41h255.13l180.41-180.41v-69.58H468.31Z"></path><path d="M439.89 271.26c-16.38-58.98-70.62-100.17-131.92-100.17-75.48 0-136.89 61.41-136.89 136.89s61.41 136.9 136.89 136.9c61.29 0 115.54-41.19 131.92-100.17l3.41-12.29h172.64v-48.85H443.3l-3.41-12.3Z"></path></svg>