<svg data-name="Layer 1" xmlns="http://www.w3.org/2000/svg" viewBox="0 0 585.13 617.77"><path d="m0 461.78 18.88-10.94V225.76L0 214.63v247.15zM18.88 506.44v-22.07L0 495.31l18.88 11.13zM37.75 517.58l18.88 11.13v-66.24l-18.88 10.95v44.16zM37.75 439.89l18.88-10.95V248.02l-18.88-11.13v203zM75.5 539.84l18.88 11.13V440.58L75.5 451.53v88.31zM75.5 418l18.88-10.95V270.29L75.5 259.16V418zM113.25 562.11l18.88 11.13V418.69l-18.88 10.94v132.48zM113.25 396.11l18.88-10.95v-92.61l-18.88-11.13v114.69zM151 584.37l18.88 11.13V396.79L151 407.74v176.63zM151 374.21l18.88-10.94v-48.45L151 303.69v70.52zM188.75 606.64l18.88 11.13V374.9l-18.88 10.95v220.79zM188.75 352.32l18.88-10.95V118.44l-18.88-11.13v245.01zM226.5 330.43l18.88-10.95V140.71l-18.88-11.13v200.85zM226.5 410.26l18.88 11.14v-68.39l-18.88 10.94v46.31zM264.25 308.53l18.88-10.94V162.98l-18.88-11.14v156.69zM264.25 432.53l18.88 11.13V331.11l-18.88 10.95v90.47zM302 286.64l18.88-10.95v-90.45L302 174.11v112.53zM302 454.79l18.88 11.14V309.22L302 320.17v134.62zM339.75 477.06l18.88 11.13V287.33l-18.88 10.95v178.78zM339.75 264.75l18.88-10.95v-46.29l-18.88-11.14v68.38zM377.5 499.32l18.88 11.14V265.44l-18.88 10.94v222.94zM377.5 242.85l18.88-10.94V11.13L377.5 0v242.85zM415.26 220.96l18.87-10.95V33.4l-18.87-11.14v198.7zM415.26 302.95l18.87 11.13v-70.54l-18.87 10.95v48.46zM453.01 325.22l18.87 11.13v-114.7l-18.87 10.95v92.62zM453.01 199.07l18.87-10.95V55.66l-18.87-11.13v154.54zM490.76 177.18l18.87-10.95v-88.3l-18.87-11.14v110.39zM490.76 347.48l18.87 11.13V199.76l-18.87 10.94v136.78zM528.51 369.75l18.87 11.13V177.87l-18.87 10.94v180.94zM528.51 155.28l18.87-10.94v-44.15l-18.87-11.13v66.22zM566.26 166.92v225.09l18.87 11.13V155.97l-18.87 10.95zM566.26 111.33v22.06l18.86-10.94-18.86-11.12z"></path></svg>