<svg xmlns="http://www.w3.org/2000/svg" width="546.5" viewBox="0 0 546.5 600.1" height="600.1"><circle cx="273.3" cy="300.3" r="98.6"></circle><circle transform="rotate(-45.001 273.267 98.557)" cx="273.3" cy="98.6" r="98.6"></circle><circle transform="rotate(-45.001 447.957 199.42)" cx="448" cy="199.4" r="98.6"></circle><circle transform="rotate(-45.001 447.949 401.137)" cx="448" cy="401.1" r="98.6"></circle><path d="M282.5 481.8c13.2-19.4 35.3-32.2 60.5-32.5 4.9 0 9.7.4 14.4 1.3-15.8-25.8-43.1-43.8-74.8-46.7v77.9zM189.2 450.6c4.7-.9 9.5-1.3 14.4-1.3 25.2.2 47.3 13.1 60.5 32.5v-77.9c-31.8 2.9-59.1 20.9-74.9 46.7zM291.4 502.8c-3 0-6-.1-8.9-.4v97.8c50.1-4.7 89.3-46.8 89.3-98.1 0-17.1-4.3-33.1-12-47.1-10.4 27.6-37 47.5-68.4 47.8zM186.7 454.9c-7.6 14-12 30-12 47.1 0 51.3 39.2 93.5 89.3 98.1v-97.8c-2.9.3-5.9.5-8.9.4-31.4-.2-58-20.1-68.4-47.8z"></path><circle transform="rotate(-45.001 98.566 401.112)" cx="98.6" cy="401.1" r="98.6"></circle><circle transform="rotate(-45.001 98.587 199.395)" cx="98.6" cy="199.4" r="98.6"></circle></svg>