<svg data-name="Layer 1" xmlns="http://www.w3.org/2000/svg" viewBox="0 0 615.99 615.99"><path d="M615.99 367.54 367.54 615.99c-57.99-57.99-66.97-146.46-26.88-213.93v-.1c3.5-5.77 5.52-12.58 5.52-19.78 0-21.11-17.11-38.17-38.17-38.17s-38.17 17.11-38.17 38.17c0 7.2 2.02 13.96 5.47 19.73v.1c40.14 67.46 31.22 155.93-26.83 213.98L.05 367.54c58.14-58.14 146.96-67.02 214.42-26.58 5.67 3.35 12.28 5.23 19.33 5.23 21.11 0 38.17-17.11 38.17-38.17s-17.11-38.17-38.17-38.17c-7.25 0-14.01 2.02-19.78 5.52h-.1C146.51 315.46 57.99 306.54-.01 248.49L248.45.05c58.09 58.09 66.97 146.66 26.73 214.12-3.45 5.72-5.42 12.48-5.42 19.63 0 21.11 17.11 38.17 38.17 38.17s38.17-17.11 38.17-38.17c0-6.85-1.78-13.27-4.93-18.84 0-.05 0-.15-.05-.2C300.44 147.25 309.21 58.24 367.45 0L615.9 248.45c-57.94 57.94-146.27 66.97-213.68 27.02-5.82-3.6-12.72-5.72-20.12-5.72-21.11 0-38.17 17.11-38.17 38.17s17.11 38.17 38.17 38.17c7.15 0 13.71-1.92 19.43-5.33.1-.05.25-.1.35-.15 67.46-40.19 155.98-31.27 214.07 26.78l.05.15Z"></path></svg>