<svg xmlns="http://www.w3.org/2000/svg" width="331.1" viewBox="0 0 331.1 610.5" height="610.5" xml:space="preserve"><path d="M253.7 1.3 252.5 0l-1.2 1.3A158.94 158.94 0 0 0 211.1 107c0 36.5 12 70.7 34.7 99.2v340.1c0 28-22.8 50.8-50.8 50.8h-58.5c-28 0-50.8-22.8-50.8-50.8V206.2c22.7-28.4 34.7-62.7 34.7-99.2 0-39-14.3-76.6-40.2-105.7L79 0l-1.2 1.3A158.94 158.94 0 0 0 37.6 107c0 36.5 12 70.7 34.7 99.2v340.1c0 35.4 28.8 64.2 64.2 64.2H195c35.4 0 64.2-28.8 64.2-64.2V206.2c22.7-28.4 34.7-62.7 34.7-99.2 0-39-14.3-76.6-40.2-105.7z"></path><path d="M1.5 179.4H0v123.9c0 34.8 28.3 63.1 63.1 63.1h1.5V242.6c.1-34.8-28.2-63.2-63.1-63.2zM92.4 242.6v123.9h1.5c34.8 0 63.1-28.3 63.1-63.1v-124h-1.5c-34.8 0-63.1 28.4-63.1 63.2zM1.5 363.4H0v123.9c0 34.8 28.3 63.1 63.1 63.1h1.5V426.5c.1-34.8-28.2-63.1-63.1-63.1zM92.4 426.5v123.9h1.5c34.8 0 63.1-28.3 63.1-63.1V363.4h-1.5c-34.8 0-63.1 28.3-63.1 63.1zM237.1 366.5h1.5V242.6c0-34.8-28.3-63.1-63.1-63.1H174v123.9c0 34.7 28.3 63.1 63.1 63.1zM329.5 179.4c-34.8 0-63.1 28.3-63.1 63.1v123.9h1.5c34.8 0 63.1-28.3 63.1-63.1V179.4h-1.5zM237.1 550.4h1.5V426.5c0-34.8-28.3-63.1-63.1-63.1H174v123.9c0 34.8 28.3 63.1 63.1 63.1zM266.4 426.5v123.9h1.5c34.8 0 63.1-28.3 63.1-63.1V363.4h-1.5c-34.8 0-63.1 28.3-63.1 63.1z"></path></svg>