<svg xmlns="http://www.w3.org/2000/svg" width="472.3" viewBox="0 0 472.3 628.5" height="628.5" xml:space="preserve" style="enable-background:new 0 0 472.3 628.5"><path d="M472.3 148.7V0H243c0 4.9.4 9.8.8 14.7 2.3 27.5 7.1 54.9 14 81.6 9.4 36.4 23.7 70.8 44 102.5 6.1 9.5 12.2 19.1 18.5 28.5 23 34.4 47.7 68 66.8 104.9 8.3 16 14.3 33.1 18 50.8 3.7 17.6 3.9 35.4 1.7 53.1-10.5 84.9-82.9 150.6-170.6 150.6C148.4 586.6 76 520.9 65.5 436c-2.2-17.7-2.1-35.1 1.6-52.7s9.8-35.2 18.1-51.2c19.1-36.9 43.8-70.4 66.8-104.9 6.3-9.4 12.4-19 18.5-28.5 20.3-31.7 34.6-66.1 44-102.5 6.9-26.7 11.8-54.1 14-81.6.4-4.9.7-9.8.8-14.7H0v148.7h132v23.7c0 9.8-4 17.9-9.4 25.8-26.1 38.4-53.2 76-74.6 117.1-10.3 19.7-18.9 40.6-23.5 62.3-4.6 21.6-3.6 43.8-.9 65.6 13.1 104.5 102.9 185.4 211.8 185.4h1.6c108.9 0 198.7-80.9 211.8-185.4 2.7-21.8 3.7-44-.9-65.6-4.6-21.7-13.3-42.7-23.5-62.3-21.4-41.1-48.5-78.7-74.6-116.9-5.4-7.9-9.4-16.1-9.4-25.8v-23.7h131.9z"></path></svg>