<svg xmlns="http://www.w3.org/2000/svg" width="614.8" viewBox="0 0 614.8 614.8" height="614.8" xml:space="preserve"><path d="M373.7 385.7c-17.6-17.6-41.2-27.3-66.4-27.3-25.2 0-48.7 9.7-66.3 27.3l-50.2 50.1c-15.7 15.6-25.9 35-29.7 56.1-3.5 19.7-1.3 39.9 6.4 58.6 7.7 18.6 20.3 34.4 36.5 45.7 17.4 12.2 38.2 18.6 60.2 18.6h167.9c16.4 0 29.8-13.4 29.8-29.8s-13.4-29.8-29.8-29.8H264.3c-19 0-34.5-10.3-41.6-27.5-7.2-17.5-3.4-36 10.3-49.7l50.2-50.1c13.1-13.1 35.3-13.1 48.5 0l128.2 127.3c5.6 5.6 13.1 8.7 21 8.7h.1c8 0 15.4-3.2 21.1-8.8 11.6-11.7 11.5-30.6-.2-42.2L373.7 385.7zM584.9 152.8c-16.4 0-29.8 13.4-29.8 29.8v167.9c0 19-10.3 34.5-27.5 41.7-17.5 7.2-36 3.4-49.7-10.3l-50.1-50.2c-13.1-13.1-13.1-35.3 0-48.5L555.2 155c5.6-5.7 8.7-13.2 8.7-21.1 0-8-3.2-15.4-8.8-21.1-11.7-11.6-30.6-11.5-42.2.2L385.7 241.1c-17.6 17.6-27.3 41.2-27.3 66.4 0 25.2 9.7 48.7 27.3 66.3l50.1 50.2c15.6 15.7 35 25.9 56.1 29.7 6.1 1.1 12.2 1.6 18.3 1.6 13.7 0 27.4-2.7 40.3-8.1 18.6-7.7 34.4-20.3 45.7-36.5 12.2-17.4 18.6-38.2 18.6-60.2V182.6c0-16.5-13.4-29.8-29.9-29.8zM241.1 229.1c17.6 17.6 41.2 27.3 66.4 27.3 25.2 0 48.7-9.7 66.3-27.3L424 179c15.7-15.6 25.9-35 29.7-56.1 3.5-19.7 1.3-39.9-6.4-58.6-7.7-18.6-20.3-34.4-36.5-45.7C393.3 6.4 372.5 0 350.5 0H182.6c-16.4 0-29.8 13.4-29.8 29.8s13.4 29.8 29.8 29.8h167.9c19 0 34.5 10.3 41.6 27.5 7.2 17.5 3.4 36-10.3 49.7l-50.2 50.1c-13.1 13.1-35.3 13.1-48.5 0L155 59.6c-5.6-5.6-13.1-8.7-21-8.7h-.1c-8 0-15.4 3.2-21.1 8.8-11.6 11.7-11.5 30.6.2 42.2l128.1 127.2zM256.4 307.3c0-25.2-9.7-48.7-27.3-66.3L179 190.8c-15.6-15.7-35-25.9-56.1-29.7-19.7-3.5-39.9-1.3-58.6 6.4-18.6 7.7-34.4 20.3-45.7 36.5C6.4 221.4 0 242.3 0 264.3v167.9C0 448.6 13.4 462 29.8 462s29.8-13.4 29.8-29.8V264.3c0-19 10.3-34.5 27.5-41.6 17.5-7.2 36-3.4 49.7 10.3l50.1 50.2c13.1 13.1 13.1 35.3 0 48.5L59.6 459.8c-5.6 5.7-8.7 13.2-8.7 21.1 0 8 3.2 15.4 8.8 21.1 5.8 5.8 13.4 8.6 21 8.6 7.7 0 15.3-2.9 21.2-8.8l127.2-128.1c17.6-17.6 27.3-41.2 27.3-66.4z"></path><circle cx="307.4" cy="307.4" r="43.1"></circle></svg>