<svg data-name="Layer 1" xmlns="http://www.w3.org/2000/svg" viewBox="0 0 441.21 615.27"><path d="m0 481.57 143.67-144.93v-18.65L0 462.92v18.65zM0 515l143.67-144.94v-18.65L0 496.35V515zM0 548.42l143.67-144.93v-18.65L0 529.77v18.65zM0 581.85l143.67-144.94v-18.65L0 563.2v18.65zM0 615.27l143.67-144.93v-18.65L0 596.62v18.65zM297.54 144.93v18.65L441.21 18.65V0L297.54 144.93zM297.54 197.01 441.21 52.07V33.43L297.54 178.36v18.65zM297.54 230.43 441.21 85.5V66.85L297.54 211.78v18.65zM297.54 263.85l143.67-144.93v-18.65L297.54 245.21v18.64zM297.54 297.28l143.67-144.94V133.7L297.54 278.63v18.65zM143.67 172.5l153.87 155.23v-18.65L143.67 153.85v18.65zM143.67 205.92l153.87 155.23V342.5L143.67 187.27v18.65zM143.67 239.34l153.87 155.23v-18.65L143.67 220.7v18.64zM143.67 272.77 297.54 428v-18.65L143.67 254.12v18.65zM143.67 306.19l153.87 155.23v-18.64L143.67 287.55v18.64z"></path></svg>