<svg data-name="Layer 1" xmlns="http://www.w3.org/2000/svg" viewBox="0 0 473.08 626.18"><path d="M0 313.09c0 172.64 140.45 313.09 313.09 313.09 16.53 0 32.77-1.31 48.62-3.79v-58.32c-15.75 3.05-31.99 4.69-48.62 4.69-140.98 0-255.68-114.7-255.68-255.68S172.11 57.41 313.09 57.41c16.63 0 32.87 1.65 48.62 4.69V3.79C345.86 1.31 329.63 0 313.09 0 140.45 0 0 140.45 0 313.09Z"></path><path d="M76.55 313.09c0 130.43 106.11 236.54 236.54 236.54 16.66 0 32.92-1.75 48.62-5.05v-59.13c-15.47 4.37-31.77 6.76-48.62 6.76-98.77 0-179.13-80.36-179.13-179.12s80.36-179.12 179.13-179.12c16.85 0 33.14 2.39 48.62 6.76V81.6c-15.7-3.29-31.95-5.05-48.62-5.05-130.43 0-236.54 106.11-236.54 236.54Z"></path><path d="M153.11 313.09c0 88.36 71.63 159.99 159.99 159.99 16.96 0 33.28-2.66 48.62-7.55V160.65c-15.33-4.89-31.66-7.55-48.62-7.55-88.36 0-159.99 71.63-159.99 159.99ZM383.12 169.23v287.73c53.26-25.97 89.96-80.63 89.96-143.87s-36.7-117.89-89.96-143.87Z"></path></svg>