<svg id="Layer_1" data-name="Layer 1" xmlns="http://www.w3.org/2000/svg" viewBox="0 0 624.55 624.55">   <path d="M238.94,334.97l-35.72-32.13c-9.87-8.87-22.66-13.78-35.93-13.78H.95c-.56,7.67-.95,15.39-.95,23.21,0,20.4,2.02,40.32,5.75,59.63H450.32c13.27,0,26.07,4.91,35.93,13.78l35.73,32.13c9.87,8.87,22.66,13.78,35.93,13.78h42.97c10.77-26.03,18.09-53.83,21.47-82.84H274.87c-13.27,0-26.07-4.91-35.93-13.78Z"></path>   <path d="M618.6,251.59H177.71c-13.27,0-26.07-4.91-35.93-13.78l-35.72-32.13c-9.87-8.87-22.66-13.78-35.93-13.78H24.08c-10.88,26.01-18.27,53.82-21.75,82.84H353.16c13.27,0,26.07,4.91,35.93,13.78l35.73,32.13c9.87,8.87,22.66,13.78,35.93,13.78h162.92c.51-7.33,.87-14.7,.87-22.16,0-20.77-2.07-41.05-5.94-60.69Z"></path>   <path d="M336.1,432.13l-35.72-32.13c-9.87-8.87-22.66-13.78-35.93-13.78H8.89c33.22,136.75,156.41,238.32,303.39,238.32,124.64,0,232.19-73.04,282.27-178.63h-222.51c-13.27,0-26.07-4.91-35.93-13.78Z"></path>   <path d="M291.93,191.36l35.73,32.13c9.87,8.87,22.66,13.78,35.93,13.78h251.83C581.82,101.04,458.87,0,312.27,0,188.05,0,80.78,72.55,30.48,177.58H256c13.27,0,26.07,4.91,35.93,13.78Z"></path> </svg>