<svg data-name="Layer 1" xmlns="http://www.w3.org/2000/svg" viewBox="0 0 620.26 620.26"><path d="M473.61 551.75c-57.41 0-109.43-22.96-147.47-60.15 38.04-37.19 90.07-60.15 147.47-60.15s108.68 22.65 146.65 59.38V0H0v490.83c37.97-36.73 89.65-59.38 146.65-59.38s109.43 22.96 147.47 60.15c-38.04 37.19-90.06 60.15-147.47 60.15S37.97 529.1 0 492.36v127.9h295.8V425.6C185 418.22 97.39 326.07 97.39 213.4S192.64.65 310.13.65 522.87 95.9 522.87 213.39s-87.61 204.83-198.41 212.2v194.66h295.8V492.36c-37.97 36.73-89.65 59.38-146.65 59.38Z"></path><circle cx="310.13" cy="213.39" r="122.34" transform="rotate(-45 310.13269094 213.39883328)"></circle></svg>