<svg xmlns="http://www.w3.org/2000/svg" width="605.5" viewBox="0 0 605.5 338.1" height="338.1" xml:space="preserve"><path d="M408.1 277.2c-7.9-23.7-7.5-41.7-7.4-43.5V117.3l-97.5 108v20.9c0 25.1 4.8 47.5 14.1 66.6 4.5 9.2 10.1 17.7 16.8 25.3h112.8c-21.8-20.8-33-43.7-38.8-60.9"></path><path d="M483.1 338.1h122.4s-98.9-21.2-98.9-140.4V0l-96.5 106.9V234c0 .2-.6 17.7 7 40.6 8.5 25.2 23.2 46.5 43.8 63.6h22.2zM294.8 261.2c-.4-4.9-.6-9.8-.6-14.9v-8.7l-92.8 100.6h121.1c-3.6-4.8-7-9.8-9.9-15-8.1-12.8-17.4-33.5-17.8-62M0 338.1 305.2 0h190.5L190.5 338.1z"></path></svg>