<svg data-name="Layer 1" xmlns="http://www.w3.org/2000/svg" viewBox="0 0 627.96 594.56"><path d="M458.96 256.57c-.15 0-.29.01-.44.01 15.51-25.54 24.44-55.52 24.44-87.58 0-93.34-75.66-169-168.99-169s-169 75.66-169 168.99c0 32.06 8.93 62.04 24.44 87.58-.14 0-.28-.01-.42-.01C75.66 256.57 0 332.23 0 425.56s75.66 168.99 168.99 168.99c61.58 0 115.44-32.94 144.98-82.16 29.54 49.21 83.41 82.16 144.98 82.16 93.33 0 168.99-75.66 168.99-168.99s-75.66-168.99-168.99-168.99Zm-144.98 82.16c-.15-.25-.28-.5-.43-.75.14 0 .28.01.42.01.15 0 .29-.01.44-.01-.15.24-.28.5-.43.75Zm-.01-87.79c-1.73 0-3.43-.15-5.14-.26 9.18 13.24 14.59 29.28 14.59 46.61 0 45.25-36.68 81.94-81.94 81.94-1.73 0-3.43-.15-5.14-.26 9.18 13.24 14.59 29.28 14.59 46.61 0 45.25-36.68 81.94-81.94 81.94s-81.94-36.68-81.94-81.94 36.68-81.94 81.94-81.94c1.73 0 3.43.15 5.14.26-9.18-13.24-14.59-29.28-14.59-46.61 0-45.25 36.68-81.94 81.94-81.94 1.73 0 3.43.15 5.14.26-9.18-13.24-14.59-29.28-14.59-46.61 0-45.25 36.68-81.94 81.94-81.94s81.94 36.68 81.94 81.94-36.68 81.94-81.94 81.94Z"></path></svg>