<svg data-name="Layer 1" xmlns="http://www.w3.org/2000/svg" viewBox="0 0 380.54 592.76"><path d="M190.27 197.59 0 0v66.53l168.63 175.11 21.64 351.12 21.96-351.45L380.54 66.53V0L190.27 197.59zM202.65 592.76l89.91-191.49 87.98-91.37v-52.98L275.05 366.47l-72.4 226.29z"></path><path d="m196.46 592.76 63.05-257.25 121.03-125.68v-77.58L233.92 284.52l-37.46 308.24zM0 256.92v52.98l87.98 91.37 89.91 191.49-72.4-226.29L0 256.92z"></path><path d="M0 132.25v77.58l121.03 125.68 63.05 257.25-37.46-308.24L0 132.25z"></path></svg>