<svg data-name="Layer 1" xmlns="http://www.w3.org/2000/svg" viewBox="0 0 617.08 559.01"><path d="M617.08 188.77v123.4h-123.4v246.84H123.4V312.17H0v-123.4l123.4-123.4v123.4h123.4v246.84h123.4V188.77h123.4V65.37L617 188.77h.09Zm-308.56-72.59c28.11 0 54.09 9.15 75.27 24.55 8.88-13.32 14.24-29.08 15.03-46.09h-180.6c.79 17.01 6.15 32.83 15.03 46.09 21.22-15.35 47.16-24.55 75.27-24.55Zm70.41 31.12c-19.83-14.33-44.11-22.89-70.41-22.89s-50.58 8.55-70.41 22.89c9.34 11.56 21.41 20.76 35.28 26.63 3.28-16.37 17.8-28.76 35.14-28.76s31.85 12.39 35.14 28.76c13.87-5.83 25.94-15.07 35.28-26.63Zm-70.41 6.06c-13.82 0-25.15 10.22-27.19 23.44 8.6 2.68 17.71 4.16 27.19 4.16s18.63-1.48 27.19-4.16c-2.03-13.22-13.41-23.44-27.19-23.44Zm75.27-113.09c-21.22 15.35-47.16 24.55-75.27 24.55s-54.09-9.15-75.27-24.55c-8.88 13.32-14.24 29.08-15.03 46.09h180.59c-.79-17.01-6.1-32.78-15.03-46.09Zm-4.9-6.61c-9.34-11.56-21.41-20.76-35.28-26.63-3.28 16.41-17.8 28.76-35.14 28.76S276.62 23.4 273.33 7.03c-13.87 5.87-25.94 15.07-35.28 26.63 19.83 14.33 44.11 22.93 70.41 22.93s50.58-8.55 70.41-22.93Zm-70.41-6.06c13.82 0 25.15-10.22 27.19-23.44C327.07 1.43 317.96 0 308.48 0s-18.63 1.48-27.19 4.16c2.03 13.22 13.41 23.44 27.19 23.44Z"></path></svg>