<svg xmlns="http://www.w3.org/2000/svg" width="597.8" viewBox="0 0 597.8 611" height="611" xml:space="preserve"><path d="M542.5 301.2h-155c.3-4.5.5-299 .5-299L194 52.8 0 0v339.8C0 489.3 121.7 611 271.3 611c147.3 0 267.5-118 271.1-264.4 4.4-42.6 55.4-41.2 55.4-41.2v-4.2h-55.3zm-334.4-223 151.7-39.6v249.1c0 4.6-.2 9.1-.6 13.5H208.1v-223zm146.4 251.2c-13.2 50.7-54.1 94.1-101.8 113.8 2.7-3.8 5.4-7.8 7.9-12.1 15.5-26.4 30.7-63.5 35.4-101.7h58.5zm-146.4 0h59.5c-8 59.1-30.6 100.6-59.5 118.6V329.4zM28.2 36.5l151.7 41.8v223H28.8c-.4-4.6-.6-264.8-.6-264.8zm151.7 292.9v119.7c-31.8-24.5-54-58.9-62.2-119.7h62.2zm-90.6 0c4.7 38.7 18 76.3 33.8 102.7 2 3.3 4.1 6.4 6.2 9.5-45.8-20.3-83-62.8-95.8-112.2h55.8zm425.1 10.4c0 134-109.1 243.1-243.1 243.1-113.4 0-208.9-78-235.6-183.2 35.2 49.6 93 82 158.3 82 92.6 0 170.3-65.3 189.4-152.3h131v10.4z"></path><path d="M475.9 383.4c9.3 0 16.8-7.5 16.8-16.8s-7.5-16.8-16.8-16.8-16.8 7.5-16.8 16.8 7.5 16.8 16.8 16.8z"></path></svg>