<svg xmlns="http://www.w3.org/2000/svg" width="618.8" viewBox="0 0 618.8 609.9" height="609.9" xml:space="preserve"><path d="M594.4 186.1c-15.6-36.3-37.9-68.9-66.4-96.9-28.4-28-61.5-49.9-98.3-65.3C391.6 8 351.1 0 309.4 0s-82.2 8-120.3 23.9c-36.8 15.3-69.9 37.3-98.3 65.3-28.4 28-50.8 60.6-66.4 96.9C8.2 223.8 0 263.7 0 304.9s8.2 81.2 24.4 118.8C40 460 62.3 492.6 90.8 520.6c28.4 28 61.5 49.9 98.3 65.3 38.1 15.9 78.6 23.9 120.3 23.9s82.2-8 120.3-23.9c36.8-15.3 69.9-37.3 98.3-65.3 28.4-28 50.8-60.6 66.4-96.9 16.2-37.6 24.4-77.6 24.4-118.8s-8.2-81.1-24.4-118.8zM492.6 484.8c-48.9 48.2-114 74.7-183.2 74.7S175.1 533 126.2 484.8C77.4 436.7 50.5 372.9 50.5 305s26.9-131.8 75.7-179.8c42.9-42.3 98.3-67.9 158-73.5V305h50.4V51.6c59.7 5.6 115.1 31.2 158 73.5 48.8 48.1 75.7 111.9 75.7 179.8s-26.9 131.8-75.7 179.9z"></path><circle cx="201.8" cy="244.6" r="62.2"></circle><circle cx="415.3" cy="244.6" r="62.2"></circle></svg>