<svg data-name="Layer 1" xmlns="http://www.w3.org/2000/svg" viewBox="0 0 455.11 610.97"><path d="M64.99 343.72c-7.34 0-13.29 5.95-13.29 13.29s5.95 13.29 13.29 13.29 13.29-5.95 13.29-13.29-5.95-13.29-13.29-13.29Z"></path><circle cx="64.99" cy="545.98" r="13.29"></circle><path d="M214.26 357.02c0 7.34 5.95 13.29 13.29 13.29s13.29-5.95 13.29-13.29-5.95-13.29-13.29-13.29-13.29 5.95-13.29 13.29Z"></path><circle cx="227.55" cy="545.98" r="13.29"></circle><path d="M376.82 357.02c0 7.34 5.95 13.29 13.29 13.29s13.29-5.95 13.29-13.29-5.95-13.29-13.29-13.29-13.29 5.95-13.29 13.29Z"></path><circle cx="390.12" cy="545.98" r="13.29"></circle><path d="M0 106.41v144.18c0 22 11.02 41.45 27.79 53.21C11.01 315.56 0 335.01 0 357.01v188.96c0 35.84 29.16 64.99 64.99 64.99s64.99-29.16 64.99-64.99V357.01c0-22-11.02-41.45-27.79-53.21 16.78-11.76 27.79-31.21 27.79-53.21V0h-23.57C47.73 0 0 47.73 0 106.41Zm106.43 250.61v188.96c0 22.85-18.59 41.44-41.43 41.44-22.85 0-41.43-18.59-41.43-41.44V357.02c0-22.85 18.59-41.44 41.44-41.44s41.43 18.59 41.43 41.44Zm-41.44-64.99c-22.85 0-41.43-18.59-41.43-41.44V106.41c0-45.69 37.17-82.85 82.85-82.85l.02 227.04c0 22.85-18.59 41.44-41.44 41.44ZM280.77 0c-6.5 0-11.78 5.27-11.78 11.78v92.8c0 18.75-12.53 34.62-29.66 39.71V11.78c0-6.5-5.27-11.78-11.78-11.78s-11.78 5.27-11.78 11.78v132.5c-17.12-5.09-29.66-20.95-29.66-39.71V11.78c0-6.5-5.27-11.78-11.78-11.78s-11.78 5.27-11.78 11.78v92.8c0 31.81 22.99 58.3 53.21 63.87v124.7c-30.22 5.56-53.21 32.06-53.21 63.87v188.96c0 35.84 29.16 64.99 64.99 64.99s64.99-29.16 64.99-64.99V357.02c0-31.81-22.99-58.3-53.21-63.87v-124.7c30.22-5.56 53.21-32.06 53.21-63.87v-92.8c0-6.5-5.27-11.78-11.78-11.78Zm-11.78 357.02v188.96c0 22.85-18.59 41.44-41.44 41.44s-41.44-18.59-41.44-41.44V357.02c0-22.85 18.59-41.44 41.44-41.44s41.44 18.59 41.44 41.44ZM455.11 106.26V64.99C455.11 29.15 425.95 0 390.12 0s-64.99 29.15-64.99 64.99v41.27c0 31.29 22.19 55.68 53.21 60.65v126.24c-30.22 5.56-53.21 32.06-53.21 63.87v188.96c0 35.84 29.16 64.99 64.99 64.99s64.99-29.16 64.99-64.99V357.02c0-31.81-22.99-58.3-53.21-63.87V166.91c31.03-4.97 53.21-29.36 53.21-60.65Zm-23.55 250.76v188.96c0 22.85-18.59 41.44-41.44 41.44s-41.44-18.59-41.44-41.44V357.02c0-22.85 18.59-41.44 41.44-41.44s41.44 18.59 41.44 41.44Zm-41.44-212.68c-23.62 0-41.44-16.37-41.44-38.08V64.99c0-22.85 18.59-41.43 41.44-41.43s41.44 18.59 41.44 41.43v41.27c0 21.71-17.81 38.08-41.44 38.08Z"></path></svg>