<svg data-name="Layer 1" xmlns="http://www.w3.org/2000/svg" viewBox="0 0 609.28 609.28"><path d="M383.67 48.82c-6.01 6.01-15.85 6.01-21.86 0l-12.9-12.9-24.37-24.37L312.99 0h-17.9l107.66 107.66c6.01 6.01 6.01 15.85 0 21.86l-37.27 37.27c-6.01 6.01-15.85 6.01-21.86 0l-68.53-68.53-68.53-68.53L177.64.82l-57.41 57.41 48 48c6.01 6.01 6.01 15.85 0 21.86l-37.27 37.27c-6.01 6.01-15.85 6.01-21.86 0l-48-48L.82 177.64l28.92 28.92L113 289.82l53.8 53.8c6.01 6.01 6.01 15.85 0 21.86l-37.27 37.27c-6.01 6.01-15.85 6.01-21.86 0L0 295.09v17.9l11.55 11.55 18.64 18.64 18.64 18.64c6.01 6.01 6.01 15.85 0 21.86l-48 47.98 176.8 176.8 47.99-47.99c6.01-6.01 15.85-6.01 21.86 0l11.62 11.62 25.65 25.65 11.55 11.55h17.9L206.54 501.63c-6.01-6.01-6.01-15.85 0-21.86l37.27-37.27c6.01-6.01 15.85-6.01 21.86 0l98.1 98.1 38.96 38.96 28.92 28.92 60.27-60.27-48-48c-6.01-6.01-6.01-15.85 0-21.86l37.27-37.27c6.01-6.01 15.85-6.01 21.86 0l48 48 57.41-57.41-28.92-28.92-38.96-38.96-98.1-98.1c-6.01-6.01-6.01-15.85 0-21.86l37.27-37.27c6.01-6.01 15.85-6.01 21.86 0l107.66 107.66v-17.9l-11.55-11.55-22.08-22.08-15.19-15.19c-6.01-6.01-6.01-15.85 0-21.86l47.99-47.99L431.66.83l-47.99 47.99ZM88.58 247.5c-6.01-6.01-6.01-15.85 0-21.86L225.64 88.58c6.01-6.01 15.85-6.01 21.86 0l37.27 37.27c6.01 6.01 6.01 15.85 0 21.86L147.71 284.77c-6.01 6.01-15.85 6.01-21.86 0L88.58 247.5Zm178.54-42.37 137.06 137.06c6.01 6.01 6.01 15.85 0 21.86l-37.27 37.27c-6.01 6.01-15.85 6.01-21.86 0L207.99 264.26c-6.01-6.01-6.01-15.85 0-21.86l37.27-37.27c6.01-6.01 15.85-6.01 21.86 0ZM149.14 519.3c-6.01 6.01-15.85 6.01-21.86 0l-37.27-37.27c-6.01-6.01-6.01-15.85 0-21.86l137.06-137.06c6.01-6.01 15.85-6.01 21.86 0l37.27 37.27c6.01 6.01 6.01 15.85 0 21.86L149.14 519.3ZM520.7 361.78c6.01 6.01 6.01 15.85 0 21.86L383.64 520.7c-6.01 6.01-15.85 6.01-21.86 0l-37.27-37.27c-6.01-6.01-6.01-15.85 0-21.86l137.06-137.06c6.01-6.01 15.85-6.01 21.86 0l37.27 37.27Zm1.45-237.36c6.01 6.01 6.01 15.85 0 21.86L385.09 283.34c-6.01 6.01-15.85 6.01-21.86 0l-37.27-37.27c-6.01-6.01-6.01-15.85 0-21.86L463.02 87.15c6.01-6.01 15.85-6.01 21.86 0l37.27 37.27Z"></path></svg>