<svg id="Layer_1" data-name="Layer 1" xmlns="http://www.w3.org/2000/svg" viewBox="0 0 604.57 604.56">   <path d="M604.57,216.33v-23.23H313.9v-22.77c0-27.31,22.22-49.52,49.52-49.52s49.52,22.22,49.52,49.52v11.16h23.23v-11.16c0-40.12-32.64-72.75-72.75-72.75s-72.75,32.64-72.75,72.75v242.62h-25.56V170.32c0-54.21,44.1-98.31,98.3-98.31s98.31,44.1,98.31,98.31v11.16h23.23v-11.16c0-67.02-54.52-121.54-121.54-121.54s-121.54,54.52-121.54,121.54v242.62h-25.56V170.32c0-81.11,65.98-147.09,147.09-147.09s147.1,65.99,147.1,147.09v11.16h23.23v-11.16C533.75,76.41,457.34,0,363.42,0S193.1,76.41,193.1,170.32v22.77h-22.78C76.41,193.1,0,269.51,0,363.43s76.41,170.32,170.32,170.32h22.78v70.81h23.23v-70.81h25.56v70.81h23.23v-70.81h25.56v70.81h23.23v-70.81h219.85v-208.23h-23.23v185H170.32c-81.11,0-147.09-65.98-147.09-147.09S89.21,216.33,170.32,216.33h22.78v25.56h-22.78c-67.01,0-121.54,54.52-121.54,121.54s54.52,121.54,121.54,121.54H484.96v-159.45h-23.23v136.22H170.32c-54.2,0-98.3-44.1-98.3-98.3s44.1-98.31,98.3-98.31h22.78v25.55h-22.78c-40.11,0-72.75,32.64-72.75,72.75s32.63,72.75,72.75,72.75H436.17v-110.66h-23.23v87.43h-99.04v-99.05h290.67v-23.23H313.9v-25.55h290.67v-23.23H313.9v-25.56h290.67ZM193.1,412.94h-22.78c-27.3,0-49.52-22.22-49.52-49.52s22.22-49.52,49.52-49.52h22.78v99.05Z"></path> </svg>