<svg xmlns="http://www.w3.org/2000/svg" width="604.7" viewBox="0 0 604.7 376.2" height="376.2" xml:space="preserve"><path d="M591.4 14.8C582.5 5.6 570.6.3 557.9 0h-.1L456.2.6c-12.5-.4-24.3 5.5-31.5 15.8l-114.1 162L311.8 49c.6-26.4-20.4-48.4-46.7-49h-.1L163.3.7C150.8.3 139 6.2 131.8 16.5L.6 205 0 375 215.8 63l-2 116-84.9 122c-15.1 21.7-9.7 51.6 11.9 66.6 21.7 15.1 51.6 9.7 66.6-11.9l85.9-123.4-.5 140.3L508.6 62.8l-2 116.3L421.8 301c-15.1 21.7-9.7 51.6 11.9 66.6 21.7 15.1 51.6 9.7 66.6-11.9L603.2 208l1.5-159c.2-12.8-4.5-24.9-13.3-34.2zM294.9 48.7l-.1 14.1-63.7 91.4L233 47.1c.2-8.2 3.6-15.9 9.6-21.7 6-5.7 13.8-8.8 22-8.6h.1c17 .5 30.6 14.7 30.2 31.9zM17.5 210.3 145.7 26.1c3.9-5.6 10.2-8.8 17.2-8.5l64.4-.4L17.1 320.9l.4-110.6zm176.1 135.8c-9.8 14-29.1 17.5-43.1 7.7s-17.5-29.1-7.7-43.1L294.5 95l-1 107.6-99.9 143.5zM310.3 208 438.6 26c3.9-5.6 10.2-8.8 17.2-8.5l64.4-.4-210.3 301.5.4-110.6zm276-5.4-99.9 143.5c-9.8 14-29.1 17.5-43.1 7.7s-17.5-29.1-7.7-43.1l151.7-218-1 109.9zm1.3-139.8L524 154.2l1.9-107.1c.4-17 14.5-30.6 31.6-30.2h.1c8.2.2 15.9 3.6 21.6 9.6 5.7 6 8.8 13.8 8.6 22.2l-.2 14.1z"></path></svg>