<svg xmlns="http://www.w3.org/2000/svg" width="571.5" viewBox="0 0 571.5 584.5" height="584.5"><path d="M104.7 248.9c-27.6 0-50 22.4-50 50 0 2.5.2 4.9.6 7.2-1.7-.2-3.5-.3-5.3-.3-27.6 0-50 22.4-50 50s22.4 50 50 50h104.7V301.4h-.1c0-.8.1-1.7.1-2.5 0-27.6-22.4-50-50-50zM281 305.9c-1.8 0-3.5.1-5.3.3.3-2.4.6-4.8.6-7.2 0-27.6-22.4-50-50-50s-50 22.4-50 50c0 .9.1 1.7.1 2.5h-.1V406H281c27.6 0 50-22.4 50-50s-22.3-50.1-50-50.1zM281 427.5H176.3V532h.1c0 .8-.1 1.7-.1 2.5 0 27.6 22.4 50 50 50s50-22.4 50-50c0-2.5-.2-4.9-.6-7.2 1.7.2 3.5.3 5.3.3 27.6 0 50-22.4 50-50s-22.3-50.1-50-50.1zM50.2 427.5H50c-27.6 0-50 22.4-50 50s22.4 50 50 50c1.8 0 3.5-.1 5.3-.3-.3 2.4-.6 4.8-.6 7.2 0 27.6 22.4 50 50 50s50-22.4 50-50c0-.9-.1-1.7-.1-2.5h.1V427.5H50.2zM356.5 0v578.7h67.8c81.3 0 147.2-65.9 147.2-147.2V0h-215z"></path></svg>