<svg xmlns="http://www.w3.org/2000/svg" width="642" viewBox="0 0 642 462.9" height="462.9" style="overflow:visible;enable-background:new 0 0 642 462.9" xml:space="preserve"><path d="M0 0h160.7v462.9H0zM464.5 255.7v1.6c45.3 19.5 75.5 54.6 75.5 94.7 0 61.3-70.5 110.9-157.5 110.9H188v-3.2h33.7c102.9 0 186.4-51.8 186.4-115.7 0-18.8-7.1-36.8-20.2-52.4-14.1-17-35.5-27.8-59.3-27.8h-71.5c-40.8 0-73.9-33.1-73.9-73.9V64.3h4.1c6 68.9 55.3 125.3 120.6 141.8 49.2 12.9 97.1-24 97.1-74.3 0-71-81.3-128.6-181.6-128.6H188V0h182c87 0 157.5 51.8 157.5 115.7 0 37.9-24.8 71.5-63 92.6v3.8c29.1-2.8 58.6-4.3 88.4-4.3 45.3 0 82.9 33.6 89.1 77.2-19.7-19.2-46.5-31.1-76.2-31.1-33.9 0-67.7.6-101.3 1.8zm118.9-32.3c-6.2 0-11.3 5-11.3 11.3s5 11.3 11.3 11.3 11.3-5 11.3-11.3-5.1-11.3-11.3-11.3z"></path></svg>