<svg data-name="Layer 1" xmlns="http://www.w3.org/2000/svg" viewBox="0 0 620.71 596.81"><path d="M577.14 404.29c21.36-41.37 6.59-92.81-34.15-116.33-41.93-24.22-95.77-9.8-119.99 32.14-4.88 8.46-8.06 16.65-9.87 25.57-28.95-12.35-48.06-40.97-48.06-72.73 0-4.82.44-9.63 1.3-14.35 8.9 2.95 18.18 4.45 27.65 4.45 48.43 0 87.84-39.4 87.84-87.84s-37.16-85.56-83.67-87.74c-.2-48.26-39.53-87.47-87.84-87.47s-87.64 39.21-87.84 87.47c-46.51 2.18-83.67 40.7-83.67 87.74s39.41 87.84 87.84 87.84c9.41 0 18.64-1.48 27.49-4.4.98 5.01 1.46 9.73 1.46 14.3 0 31.76-19.11 60.38-48.05 72.72-1.78-8.85-4.97-17.07-9.88-25.57-11.73-20.32-30.67-34.85-53.34-40.92-22.66-6.08-46.34-2.95-66.65 8.78-20.32 11.73-34.86 30.67-40.93 53.34-5.71 21.31-3.29 43.52 6.78 62.99-41.7 24.31-55.98 77.97-31.82 119.8C23.47 544.4 42.41 558.93 65.08 565c22.55 6.04 46.09 2.98 66.33-8.59 11.83 18.46 29.85 31.65 51.17 37.36 7.57 2.03 15.25 3.03 22.87 3.03 15.22 0 30.24-3.99 43.78-11.8 41.95-24.22 56.36-78.05 32.15-119.99-4.43-7.68-9.86-14.51-16.19-20.39 13.27-9.28 28.78-14.16 45.16-14.16s31.9 4.88 45.16 14.16c-6.33 5.88-11.76 12.71-16.19 20.39-24.22 41.93-9.8 95.76 32.14 119.99 40.72 23.52 92.67 10.59 117.82-28.59 41.89 23.96 95.51 9.51 119.68-32.33 24.15-41.83 9.87-95.49-31.82-119.8ZM394.02 254.71c-10 0-19.76-1.84-29.02-5.47l-4.77-1.19-.99 4.04c-1.67 6.8-2.51 13.82-2.51 20.86 0 36.96 23.42 70.08 58.29 82.4l4.97 1.76.65-6.11c1.44-9.5 4.38-17.75 9.57-26.73 21.22-36.74 67.5-50.05 104.89-30.99L455.69 430.8 314.5 349.28V179.37h158.79c-2.19 41.9-36.86 75.34-79.29 75.34Zm-4.17-166.87v7.87h4.17c42.43 0 77.1 33.44 79.29 75.34H314.52V8.54c41.9 2.19 75.34 36.86 75.34 79.29Zm-163.17 7.87h4.17v-7.87c0-42.43 33.44-77.11 75.34-79.29v162.49h-158.8c2.19-41.9 36.86-75.34 79.29-75.34Zm-84.47 191.52c20.51 5.5 37.66 18.65 48.27 37.04 5.19 8.98 8.14 17.22 9.55 26.54l.67 6.3 4.97-1.76c34.86-12.33 58.29-45.44 58.29-82.4 0-6.61-.88-13.42-2.7-20.82l-1.13-4.62-4.43 1.74c-9.25 3.63-19.01 5.47-29.02 5.47-42.43 0-77.11-33.44-79.29-75.34h158.8v169.9L165.01 430.8 85.6 293.27c17.54-8.95 37.45-11.17 56.62-6.04Zm-94.16 124.1 6.82-3.93-2.09-3.61c-10.62-18.39-13.44-39.82-7.95-60.33 5.13-19.17 17.02-35.31 33.53-46.02l79.41 137.53-140.7 81.25c-19.06-37.38-5.75-83.67 30.99-104.89Zm88.42 137.38-2.09-3.61-6.81 3.93c-18.4 10.62-39.81 13.45-60.33 7.94-19.16-5.13-35.31-17.01-46.02-33.53l140.73-81.26 79.41 137.52c-37.38 19.05-83.67 5.75-104.89-30.99Zm210.07-79.52c4.89-8.47 10.86-15.53 18.23-21.58l3.99-3.27-4.03-3.21c-15.6-12.41-34.4-18.98-54.38-18.98s-38.78 6.57-54.38 18.98l-4.04 3.21 3.99 3.27c7.37 6.04 13.34 13.09 18.24 21.57 21.22 36.75 9.59 83.5-25.59 106.35l-79.41-137.52 141.19-81.53 141.19 81.53-79.41 137.52c-35.19-22.85-46.81-69.6-25.59-106.35Zm146.6 79.85-6.82-3.94-2.09 3.61c-21.22 36.74-67.51 50.05-104.9 30.99l79.41-137.52 140.72 81.26c-22.85 35.19-69.59 46.81-106.33 25.6Zm110.5-32.81-140.72-81.26 79.41-137.52c35.19 22.85 46.81 69.59 25.59 106.34l-2.08 3.61 6.81 3.93c36.74 21.22 50.05 67.52 30.99 104.89Z"></path></svg>