<svg xmlns="http://www.w3.org/2000/svg" width="556.9" viewBox="0 0 556.9 603.7" height="603.7" xml:space="preserve" style="enable-background:new 0 0 556.9 603.7"><path d="m451.8 470.4-122.1 58.5h101.6c35.2 0 63.9-28.7 63.9-63.9s-28.7-63.9-63.9-63.9c-19 0-36.9 8.4-49.1 23l-64.9 79.8 122.4-58.7c7-3.3 15.3-.4 18.7 6.6 3.3 6.9.4 15.2-6.6 18.6z"></path><path d="M59.4 528.9c-16.1-16.6-26-39.1-26-63.9 0-50.7 41.2-91.9 91.9-91.9 27.4 0 53.2 12.1 70.7 33.2l82.3 101.1 82.3-101.1c17.5-21.1 43.3-33.2 70.7-33.2 50.7 0 91.9 41.2 91.9 91.9 0 24.8-9.9 47.4-26 63.9h59.6V0H0v528.9h59.4zM0 556.9h556.9v46.8H0z"></path><path d="m116.9 445.2 122.4 58.7-64.9-79.8c-12.2-14.6-30.1-23-49.1-23-35.2 0-63.9 28.7-63.9 63.9s28.7 63.9 63.9 63.9h101.6l-122.1-58.5c-7-3.3-9.9-11.7-6.6-18.7 3.4-6.9 11.7-9.9 18.7-6.5z"></path></svg>