<svg xmlns="http://www.w3.org/2000/svg" width="619.7" viewBox="0 0 619.7 622.8" height="622.8" xml:space="preserve" style="enable-background:new 0 0 619.7 622.8"><path d="M393.7 622.8H0V226.6L183.5 41.8c27-27 62.2-41.8 99.1-41.8 35.6 0 69.3 14 94.8 39.5 26.5 26.5 40.5 61.6 39.4 98.7-1 35.4-15.8 69.2-41.6 95L271.3 337.1c-.8 2.7.1 9.7 3.8 13.4 2.3 2.3 6.2 2.3 8.5 0l106.6-106.6c25.4-25.4 59.2-39.4 95.1-39.4 35.9 0 69.7 14 95.1 39.4 52.4 52.4 52.4 137.6.1 190L393.7 622.8zM126.4 496.4H341l150-151.6c3.2-3.2 3.2-8.3 0-11.5-3.1-3.1-8.3-3.1-11.5 0L373 439.9c-25 25-58.3 38.8-93.6 38.8-35.4 0-68.6-13.8-93.6-38.8-23.9-24-38.8-57.5-40.8-92.1-2.2-37.8 11.1-74.1 36.5-99.4L285.9 144c2.9-2.9 4.6-6.3 4.7-9.3.1-2.2-.7-3.8-2.5-5.6-1.7-1.7-3.4-2.5-5.4-2.5-3.1 0-6.6 1.7-9.6 4.7L126.4 278.7v217.7z"></path></svg>