<svg xmlns="http://www.w3.org/2000/svg" width="617.1" viewBox="0 0 617.1 608.5" height="608.5"><path d="M524.5 0v106.7c0 51.2-41.7 92.9-92.9 92.9h-111v92.6h111c102.3 0 185.5-83.2 185.5-185.5V0h-92.6zM92.6 106.7V0H0v106.7C0 209 83.2 292.2 185.5 292.2h111v-92.6h-111c-51.2 0-92.9-41.7-92.9-92.9z"></path><path d="M500.4 106.7V0h-92.6v71.2c0 6.5-5.2 11.7-11.7 11.7h-75.5v92.6h111c37.9 0 68.8-30.8 68.8-68.8zM209.3 71.2V0h-92.6v106.7c0 38 30.9 68.9 68.9 68.9h111V82.9H221c-6.4 0-11.7-5.2-11.7-11.7zM0 501.8v106.7h92.6V501.8c0-51.2 41.7-92.9 92.9-92.9h111v-92.6h-111C83.2 316.3 0 399.5 0 501.8zM431.5 316.3h-111v92.6h111c51.2 0 92.9 41.7 92.9 92.9v106.7H617V501.8c.1-102.3-83.2-185.5-185.5-185.5z"></path><path d="M116.7 501.8v106.7h92.6v-71.2c0-6.5 5.2-11.7 11.7-11.7h75.5V433h-111c-37.9 0-68.8 30.9-68.8 68.8zM431.5 433h-111v92.6H396c6.5 0 11.7 5.2 11.7 11.7v71.2h92.6V501.8c.1-37.9-30.8-68.8-68.8-68.8z"></path></svg>