<svg data-name="Layer 1" xmlns="http://www.w3.org/2000/svg" viewBox="0 0 623.63 627.02"><path d="M527.12 168.75c-32.8-13.67-58.58-39.45-72.25-72.25C431.27 39.84 375.34 0 310.12 0S188.98 39.84 165.36 96.51c-13.67 32.8-39.45 58.58-72.25 72.25C46.02 188.38 10.64 230.34 0 281.39h232.58L158 206.81c-12.49-12.49-12.49-32.93 0-45.42 12.49-12.49 32.93-12.49 45.42 0L278 235.97V130.5c0-17.66 14.45-32.12 32.12-32.12s32.12 14.45 32.12 32.12v105.47l74.58-74.58c12.49-12.49 32.93-12.49 45.42 0 12.49 12.49 12.49 32.93 0 45.42l-74.58 74.58h105.47c17.66 0 32.12 14.45 32.12 32.12s-14.45 32.12-32.12 32.12H387.66l74.58 74.58c12.49 12.49 12.49 32.93 0 45.42-12.49 12.49-32.93 12.49-45.42 0l-74.58-74.58v105.47c0 17.66-14.45 32.12-32.12 32.12S278 514.19 278 496.52V391.05l-74.58 74.58c-12.49 12.49-32.93 12.49-45.42 0-12.49-12.49-12.49-32.93 0-45.42l74.58-74.58H0c10.64 51.05 46.02 93.02 93.12 112.64 32.8 13.67 58.58 39.45 72.25 72.25 23.61 56.67 79.53 96.51 144.76 96.51s121.14-39.84 144.76-96.51c13.67-32.8 39.45-58.58 72.25-72.25 56.67-23.61 96.51-79.53 96.51-144.76s-39.84-121.14-96.51-144.76Z"></path></svg>