<svg xmlns="http://www.w3.org/2000/svg" width="577.8" viewBox="0 0 577.8 602.3" height="602.3"><path d="M510 387.8c43.8-18.5 67.8-55.4 67.8-100.4 0-62.6-42.7-113.3-138.5-113.3 0 0-98.2 2.3-121.3 0-23.1-2.3-48.2-2.8-68.7-21.3s-24.1-36.9-28.2-89.7C217 10.3 156 0 98.1 0 40.1 0 0 10.3 0 10.3v99.2s40.9-10.3 98.8-10.3c64.4 0 124.5 10.5 128.6 63.3 4.1 52.8 4.9 70.4 25.4 88.8 20.5 18.5 42.9 19.6 66 21.9 23.1 2.3 120.5-.8 120.5-.8v.1c1-.1 2-.1 2.9-.1 19.9 0 36 14.6 36 32.7 0 18-16.1 32.7-36 32.7-1 0-2 0-2.9-.1v.2s-98.2 1.5-121.3-.8c-23.1-2.3-48.2-3.6-68.7-22.1s-24.1-36.9-28.2-89.8C217 172.4 156 162.1 98 162.1c-57.9.2-98 10.5-98 10.5v99.2s40.9-10.3 98.8-10.3c64.4 0 124.5 10.5 128.6 63.4 4.1 52.8 4.9 70.4 25.4 88.8 20.5 18.5 42.9 19.6 66 21.9 23.1 2.3 120.5 1.5 120.5 1.5v.2c1-.1 2-.1 2.9-.1 19.9 0 36 14.4 36 32.2 0 17.8-16.1 32.3-36 32.3-1 0-2 0-2.9-.1v.1s-98.2.8-121.3-1.5c-23.1-2.3-48.2-4.4-68.7-22.8-20.5-18.5-24.1-36.9-28.2-89.7C217 334.9 156 324.6 98 324.6c-57.9 0-98 10.3-98 10.3v99.2s40.9-10.3 98.8-10.3c64.4 0 124.5 10.5 128.6 63.3 4.1 52.8 4.9 70.4 25.4 88.8 20.5 18.5 42.9 22.7 66 25 23.1 2.3 120.5.8 120.5.8v.5c88.1 0 138.5-48.1 138.5-113.3 0-44.2-21.4-82.5-67.8-101.1z"></path></svg>