<svg data-name="Layer 1" xmlns="http://www.w3.org/2000/svg" viewBox="0 0 610.85 610.85"><path d="M238.39 108.1c12.89-23.82 38.03-40.03 67.01-40.03s54.12 16.21 67.01 40.03c.48.88 1.76.89 2.18-.03 6.46-13.97 8.92-30.15 5.49-47.21-6.43-32.04-33.82-56.95-66.31-60.41-45.85-4.89-84.6 30.92-84.6 75.78 0 11.38 2.56 22.15 7.04 31.84.42.91 1.7.91 2.18.03ZM367.72 120.16c-13.8 19.55-36.55 32.32-62.3 32.32s-48.52-12.78-62.32-32.34c-.67-.95-2.11-.13-1.67.94l35.42 86.14c.61 1.48 2.7 1.3 3.07-.25 2.77-11.5 13.11-20.05 25.47-20.05s22.74 8.58 25.49 20.11c.37 1.56 2.46 1.74 3.07.26l35.43-86.18c.44-1.07-1-1.89-1.67-.95ZM397.53 118.5c25.96-7.74 55.22-1.43 75.72 19.07s26.81 49.75 19.07 75.71c-.29.96.6 1.85 1.54 1.51 14.45-5.31 27.64-15.02 37.29-29.51 18.11-27.19 16.36-64.17-4.16-89.59-28.96-35.89-81.69-37.98-113.42-6.25-8.06 8.06-13.86 17.49-17.55 27.52-.34.94.55 1.83 1.51 1.54ZM357.01 217.78c10.09-6.17 23.45-4.91 32.19 3.83 8.75 8.75 10.01 22.15 3.8 32.24-.84 1.37.51 2.97 1.99 2.35l85.99-35.88c1.07-.45.63-2.05-.51-1.85-23.58 4.06-48.7-2.99-66.9-21.2-18.22-18.21-25.27-43.35-21.2-66.94.2-1.14-1.4-1.58-1.85-.51l-35.86 85.96c-.62 1.48.98 2.83 2.35 1.99ZM534.62 229.17c-11.38 0-22.15 2.56-31.84 7.04-.91.42-.91 1.7-.03 2.18 23.82 12.89 40.03 38.03 40.03 67.01s-15.58 53.13-38.63 66.23c-1.45.82-1.44 2.94.08 3.61 13.63 5.96 29.29 8.14 45.75 4.84 32.03-6.42 56.95-33.81 60.41-66.3 4.89-45.86-30.92-84.61-75.78-84.61ZM490.71 243.1c.95-.67.13-2.11-.94-1.67l-86.14 35.42c-1.48.61-1.3 2.7.25 3.07 11.5 2.77 20.05 13.11 20.05 25.47s-8.58 22.74-20.11 25.49c-1.56.37-1.74 2.46-.26 3.07l86.18 35.43c1.07.44 1.89-1 .95-1.67-19.55-13.8-32.32-36.55-32.32-62.3s12.78-48.52 32.34-62.32ZM493.89 396.02c-.94-.34-1.83.55-1.54 1.51 7.74 25.96 1.43 55.22-19.07 75.72s-49.75 26.81-75.71 19.07c-.96-.29-1.85.6-1.51 1.54 5.31 14.45 15.02 27.65 29.51 37.3 27.2 18.11 64.19 16.35 89.61-4.18 35.87-28.97 37.95-81.68 6.23-113.4-8.06-8.06-17.48-13.86-27.52-17.55ZM413.57 413.57c18.22-18.21 43.35-25.27 66.94-21.2 1.14.2 1.58-1.4.51-1.85l-85.96-35.86c-1.48-.62-2.83.98-1.99 2.35 6.17 10.09 4.91 23.45-3.83 32.19-8.75 8.75-22.15 10.01-32.25 3.8-1.37-.84-2.97.51-2.35 1.99l35.88 85.99c.45 1.07 2.05.63 1.85-.51-4.06-23.58 2.99-48.7 21.2-66.9ZM372.46 502.75c-12.89 23.82-38.03 40.03-67.01 40.03-28.98 0-54.12-16.21-67.01-40.03-.48-.88-1.76-.89-2.18.03-6.46 13.97-8.92 30.15-5.5 47.21 6.42 32.03 33.81 56.94 66.3 60.41 45.86 4.9 84.62-30.91 84.62-75.78 0-11.38-2.56-22.15-7.04-31.84-.42-.91-1.7-.91-2.18-.03ZM330.92 403.88c-2.77 11.5-13.11 20.05-25.47 20.05-12.38 0-22.74-8.58-25.49-20.11-.37-1.56-2.46-1.74-3.07-.26l-35.43 86.18c-.44 1.07 1 1.89 1.67.95 13.8-19.55 36.55-32.32 62.3-32.32 25.76 0 48.52 12.78 62.32 32.34.67.95 2.11.13 1.67-.94L334 403.63c-.61-1.48-2.7-1.3-3.07.25ZM213.32 492.35c-25.96 7.74-55.21 1.43-75.71-19.07-20.5-20.5-26.81-49.75-19.07-75.71.29-.96-.6-1.85-1.54-1.51-14.45 5.31-27.65 15.02-37.29 29.51-18.11 27.19-16.35 64.18 4.17 89.61 28.97 35.88 81.69 37.96 113.41 6.24 8.06-8.06 13.86-17.48 17.55-27.52.34-.94-.55-1.83-1.51-1.54ZM253.83 393.07c-10.09 6.18-23.45 4.91-32.19-3.83-8.75-8.75-10.01-22.15-3.8-32.24.84-1.37-.51-2.97-1.99-2.35l-85.99 35.88c-1.07.45-.63 2.05.51 1.85 23.58-4.06 48.7 2.99 66.9 21.2 18.21 18.21 25.27 43.35 21.2 66.94-.2 1.14 1.4 1.58 1.84.51l35.86-85.96c.62-1.48-.99-2.83-2.35-1.99ZM108.07 374.64c.91-.42.91-1.7.03-2.18-23.82-12.89-40.03-38.03-40.03-67.01 0-28.98 16.21-54.12 40.03-67.01.88-.48.89-1.76-.03-2.18-13.97-6.46-30.15-8.92-47.21-5.5-32.03 6.43-56.95 33.82-60.41 66.31-4.89 45.85 30.92 84.6 75.78 84.61 11.38 0 22.15-2.56 31.84-7.04ZM207.03 279.96c1.56-.37 1.74-2.46.26-3.07l-86.18-35.43c-1.07-.44-1.89 1-.95 1.67 19.55 13.8 32.32 36.55 32.32 62.3 0 25.76-12.78 48.52-32.35 62.32-.95.67-.13 2.11.94 1.67L207.21 334c1.48-.61 1.3-2.7-.25-3.07-11.5-2.77-20.05-13.11-20.05-25.47 0-12.38 8.58-22.74 20.11-25.49ZM116.96 214.82c.94.34 1.83-.55 1.54-1.51-7.74-25.96-1.43-55.21 19.07-75.72 20.5-20.5 49.75-26.81 75.71-19.07.96.29 1.85-.6 1.51-1.54-5.31-14.45-15.02-27.65-29.51-37.29-27.19-18.11-64.19-16.35-89.61 4.17-35.88 28.97-37.96 81.69-6.24 113.41 8.06 8.06 17.49 13.86 27.52 17.55ZM197.28 197.27c-18.22 18.21-43.35 25.27-66.94 21.2-1.14-.2-1.58 1.4-.51 1.84l85.96 35.86c1.48.62 2.83-.98 1.99-2.35-6.17-10.09-4.91-23.45 3.83-32.19 8.75-8.75 22.15-10.01 32.25-3.8 1.37.84 2.97-.51 2.35-1.99l-35.88-85.99c-.45-1.07-2.05-.63-1.85.51 4.06 23.58-2.99 48.7-21.2 66.9Z"></path></svg>