<svg data-name="Layer 1" xmlns="http://www.w3.org/2000/svg" viewBox="0 0 611.39 625.67"><path d="M449.92 0 305.69 144.22 161.46 0 0 161.47v302.74l161.46 161.46 144.23-144.22 144.22 144.22 161.47-161.46V161.47L449.92 0ZM293.5 444.87 178.71 559.66V319.99L317.89 180.8 432.68 66.01v239.68L293.5 444.87ZM144.23 271.63l-102.63-103L144.22 66.01v205.62Zm-7.14 41.69L34.49 415.55V210.34l102.6 102.97Zm7.14 41.56v204.78L41.66 457.09l102.57-102.2ZM467.16 66.01l102.6 102.6-102.6 102.6V66.01Zm0 288.46 102.6 102.6-102.6 102.59V354.47Zm7.15-41.63 102.6-102.6v205.19l-102.6-102.6Zm-295.6-41.63V66.01l102.6 102.6-102.6 102.6Zm253.97 83.26v205.19l-102.6-102.6 102.6-102.6Z"></path></svg>