<svg xmlns="http://www.w3.org/2000/svg" width="620.5" viewBox="0 0 620.5 612.4" height="612.4" xml:space="preserve" style="enable-background:new 0 0 620.5 612.4"><path d="M419.3 497.9c18.5-33.7 28.6-71.9 28.6-112.1 0-131.5-110.6-238.5-246.5-238.5-17.2 0-33.6 1.8-49.1 5.2 40.7-39.9 97.1-64.7 159.3-64.7 109.6 0 201.1 76.9 220.6 178.1h88.3C600.4 116 469.5 0 311.6 0 139.8 0 0 137.4 0 306.2s139.8 306.2 311.6 306.2c157.9 0 288.7-116 308.9-265.9h-88.3c-12.5 65.3-55 120.4-112.9 151.4zM95.4 365c-5.4-18.7-8.3-38.4-8.3-58.7 0-42.9 12.9-83 34.9-116.8v74.7c19.6-19.3 46.1-29.1 79.3-29.1 39 0 74.8 13.4 102.5 35.5-16.2-5.1-33.5-7.8-51.4-7.8-70.3-.2-130.9 42.1-157 102.2zm157.1 146.7c-46.1 0-83.6-36.2-83.6-80.6 0-44.5 37.5-80.6 83.6-80.6 46.1 0 83.7 36.2 83.7 80.6 0 44.4-37.6 80.6-83.7 80.6z"></path></svg>