<svg data-name="Layer 1" xmlns="http://www.w3.org/2000/svg" viewBox="0 0 618.25 618.25"><path d="M321.04 0v200.35c0 29.39 35.53 44.09 56.3 23.31L518.98 81.89 321.04 0ZM296.87 0 98.98 82.07l141.6 141.49c20.78 20.76 56.28 6.04 56.28-23.33V0ZM200.23 321.29H.01l82.06 197.89 141.48-141.6c20.76-20.78 6.04-56.28-23.33-56.28ZM223.67 240.82 81.9 99.17 0 297.12h200.36c29.38 0 44.09-35.53 23.31-56.3ZM417.67 297.12h200.58L536.08 98.98 394.34 240.84c-20.76 20.78-6.04 56.28 23.33 56.28ZM394.75 377.59l141.51 141.39 81.79-197.69H418.06c-29.38 0-44.09 35.53-23.31 56.3ZM321.04 417.67v200.58l198.14-82.17-141.86-141.74c-20.78-20.76-56.28-6.04-56.28 23.33ZM240.56 394.75 99.17 536.26l197.69 81.79V418.06c0-29.39-35.53-44.09-56.3-23.31Z"></path></svg>