<svg xmlns="http://www.w3.org/2000/svg" width="629.6" viewBox="0 0 629.6 603.6" height="603.6" xml:space="preserve" style="enable-background:new 0 0 629.6 603.6"><path d="M185.4 406.3c0 27.2 22 49.2 49.2 49.2 27.2 0 49.2-22 49.2-49.2 0-27.2-22-49.2-49.2-49.2-6.1 0-11.9 1.1-17.2 3.1L56.7 244.1l85.3.3h.1c15 0 27.2-12.1 27.2-27.1.1-15-12.1-27.3-27.1-27.3l-88.4-.3h-.2c-23.6 0-43.5 14.5-50.8 36.9-7.3 22.5.3 46 19.5 59.9l163.2 118c-.1.5-.1 1.2-.1 1.8M626.8 226.3c-7.3-22.5-27.2-37-50.8-37h-.1l-201.4.4c-.4-.5-.7-1.1-1.1-1.6-16-22-46.7-26.8-68.7-10.9-22 16-26.8 46.7-10.9 68.7 16 22 46.7 26.8 68.7 10.9 4.9-3.6 9-7.9 12.1-12.6l198.2-.4-69.2 49.9c-12.2 8.8-14.9 25.8-6.2 38 5.3 7.4 13.7 11.3 22.1 11.3 5.5 0 11.1-1.7 15.9-5.1l71.7-51.7c19.4-13.9 27-37.4 19.7-59.9"></path><path d="m464.1 342 1.2-1.5c16-22 11.1-52.7-10.9-68.7s-52.7-11.1-68.7 10.9-11.1 52.7 10.9 68.7c4.9 3.6 10.3 6.1 15.8 7.6L474 547.3 405.2 497c-12.1-8.9-29.2-6.2-38.1 5.9-8.9 12.1-6.2 29.2 5.9 38l71.4 52.2c9.6 7 20.6 10.5 31.6 10.5 10.9 0 21.9-3.5 31.4-10.4 19.1-13.9 26.8-37.4 19.4-59.9L464.1 342z"></path><path d="M411.3 443.3c8.4-25.8-5.7-53.6-31.6-62-25.8-8.4-53.6 5.7-62 31.6-1.9 5.8-2.6 11.6-2.4 17.4L155.2 547.1l26.6-81.1c4.7-14.3-3.1-29.7-17.4-34.4-14.3-4.7-29.7 3.1-34.4 17.4l-27.6 84c-7.4 22.5.2 46 19.3 59.9 9.6 7 20.5 10.4 31.4 10.4 11 0 21.9-3.5 31.5-10.5l162.7-118.7 1.8.6c26 8.6 53.8-5.5 62.2-31.4M168.4 291.2c8.4 25.8 36.1 40 62 31.6 25.8-8.4 40-36.1 31.6-62-1.9-5.8-4.7-10.9-8.3-15.4l60.9-188.7 26.1 81.2c4.6 14.3 19.9 22.2 34.2 17.6 14.3-4.6 22.2-19.9 17.6-34.2l-27-84.2C358.2 14.6 338.2 0 314.6 0 291 0 271 14.5 263.7 37l-61.8 191.7c-.6.2-1.2.3-1.8.5-25.9 8.4-40.1 36.2-31.7 62"></path></svg>