<svg xmlns="http://www.w3.org/2000/svg" width="629.3" viewBox="0 0 629.3 602" height="602" xml:space="preserve" style="enable-background:new 0 0 629.3 602"><path d="M390.8 0c-26.1 0-51.9 4.9-76.2 14.4C290.4 4.9 264.5 0 238.4 0 113.1 0 0 119.9 0 284.3-1.7 458 137.8 600.3 311.6 602c173.8 1.7 316-137.8 317.7-311.5v-6.2C629.3 119.9 516.1 0 390.8 0m-76.2 97.6c34.1 23.9 54.8 62.5 56 104.1 0 34.8-22.7 62.2-56 62.2s-56-27.4-56-62.2c1.2-41.6 22-80.2 56-104.1m0 426.3c-131.7-.7-238-108-237.3-239.8v-1.4c0-123.7 88.3-208.2 157.6-205.1-33.4 34.3-52.3 80.2-52.8 128.1-1.9 73.1 55.8 134 129 135.9 73.1 1.9 134-55.8 135.9-129 .1-2.3.1-4.6 0-6.9-.5-47.9-19.4-93.7-52.8-128.1 69.4-3.1 157.6 81.4 157.6 205.1 1.5 131.7-104.2 239.7-235.9 241.2h-1.3"></path></svg>