<svg data-name="Layer 1" xmlns="http://www.w3.org/2000/svg" viewBox="0 0 606.91 456.71"><path d="M605.93.62 520.87 0c-.53 0-.95.42-.95.94-.51 47.25-38.97 85.4-86.35 85.4S347.74 48.2 347.23.94c0-.53-.42-.95-.95-.94l-83.8.62c-.53 0-.97.45-.97.98.43 77.63 52.09 143.1 122.88 164.4v126.45c0 40.52-49.61 60.09-77.28 30.49l-161.4-172.66C93.55 94.47 0 131.38 0 207.77v248.94h84.61V214.88c0-1.82 2.23-2.7 3.47-1.37L239.6 375.38c82.8 88.46 231.14 29.87 231.14-91.3V166c77.52-16.71 135.7-81.99 136.16-164.4 0-.54-.43-.98-.97-.98Z"></path><path d="M341.57 211.46c0-11.78-9.55-21.33-21.32-21.33s-21.33 9.55-21.33 21.33 9.55 21.33 21.33 21.33 21.32-9.55 21.32-21.33Z"></path></svg>