<svg xmlns="http://www.w3.org/2000/svg" width="550.5" viewBox="0 0 550.5 550.5" height="550.5"><path class="st0" d="M411.4 278.4h-112l108.5 27.8c2.1-8.9 3.3-18.2 3.5-27.8zM251.1 278.4H138.9c.2 9.6 1.4 18.9 3.5 27.9l108.7-27.9zM203.7 159.1c-8.1 5-15.7 10.9-22.6 17.4l79.3 79.4-56.7-96.8zM406.3 312.5l-108.7-27.9 96.8 56.7c5-9 9-18.7 11.9-28.8zM394.5 209.4l-96.9 56.7 108.8-27.9c-2.9-10.1-6.9-19.8-11.9-28.8zM144 238.2l109 27.9-97.1-56.8c-5 9-9.1 18.7-11.9 28.9zM408 244.5l-108.5 27.9h112c-.3-9.7-1.5-19-3.5-27.9zM138.9 272.3h112.2l-108.8-27.9c-2 9-3.2 18.3-3.4 27.9zM159.1 203.7l97.1 56.9-79.6-79.5c-6.6 6.9-12.5 14.5-17.5 22.6zM284.6 252.7l56.6-96.7c-9-5-18.7-9-28.8-11.9l-27.8 108.6zM278.4 139v111.9l27.8-108.4c-9-2.1-18.2-3.3-27.8-3.5zM306.1 408l-27.8-108.2v111.7c9.6-.2 18.9-1.4 27.8-3.5zM294.3 260.6l96.9-56.8c-5-8.1-10.9-15.7-17.4-22.6l-79.5 79.4zM369.2 373.9l-79.1-79.2 56.6 96.5c8.1-4.9 15.6-10.7 22.5-17.3zM312.4 406.4c10.1-2.9 19.7-6.9 28.7-11.9L284.6 298l27.8 108.4zM238.1 144.1C228 147 218.3 151 209.3 156l56.7 96.8-27.9-108.7zM391.2 346.8l-96.8-56.7 79.4 79.3c6.5-6.9 12.3-14.5 17.4-22.6zM244.3 142.4l27.8 108.4V138.9c-9.5.3-18.8 1.5-27.8 3.5zM260.5 294.8L181.3 374c6.9 6.5 14.4 12.4 22.6 17.4l56.6-96.6zM290.1 255.9l79.2-79.3c-6.9-6.6-14.4-12.4-22.5-17.4l-56.7 96.7zM252.9 284.6L144 312.5c2.9 10.2 6.9 19.8 11.9 28.9l97-56.8zM256.2 290.1l-97 56.8c5 8.1 10.9 15.7 17.5 22.6l79.5-79.4zM272.1 411.5V299.8L244.4 408c8.9 2.1 18.2 3.3 27.7 3.5zM265.9 298l-56.6 96.6c9 5 18.7 9 28.8 11.8L265.9 298zM138.9 313.9L0 349.5v83.2l138.9-81.3zM207.8 550.5h64.3v-139h-28.6zM313.7 411.5l35.6 139h83.2l-81.4-139zM278.4 411.5l.1 139h64.2l-35.6-139zM143.8 411.5L4.9 550.5h105.7l81.4-139zM199.4 411.5l-81.3 139h83.1l35.6-139z"></path><path class="st0" d="M411.4 272.3l139.1-.1v-64.3l-139.1 35.7zM411.4 307.1l139.1 35.7v-64.3l-139.1-.1zM138.9 358.8L0 440.2v105.9l138.9-138.8zM411.4 351.3l139.1 81.4v-83.3l-139.1-35.6zM358.5 411.5l81.4 139h105.7l-138.8-139zM411.4 407.1L550.5 546V440.2l-139.1-81.5zM236.8 138.9L201.1 0H118l81.3 138.9zM351.2 138.9L432.6 0h-83.2l-35.6 138.9zM342.8 0h-64.3l-.1 138.9h28.7zM272.1 138.9V0h-64.3l35.6 138.9zM407 138.9L545.8 0H440l-81.4 138.9zM411.4 143.6V192l139.1-81.5V4.7zM138.9 243.5L0 207.9v64.3l138.9.1zM138.9 278.4L0 278.5v64.3l138.9-35.6zM138.9 199.3L0 118v83.2l138.9 35.6zM191.9 138.9L110.5 0H4.7l138.9 138.9zM411.4 236.9l139.1-35.6V118l-139.1 81.4zM138.9 143.4L0 4.6v105.9l138.9 81.4z"></path></svg>