<svg data-name="Layer 1" xmlns="http://www.w3.org/2000/svg" viewBox="0 0 627.03 627"><path d="M190.38 75.27h-75.24l-39.9 39.91v75.24H0v116.81h142.64l47.74-47.74v-69.07h69.08l47.74-47.74V.03H190.38v75.24zM551.79 190.39v-75.24l-39.91-39.91h-75.24V0H319.83v142.49l47.9 47.9h68.91v68.91l47.9 47.9h142.49V190.39h-75.24zM436.64 367.54v69.07h-69.07l-47.74 47.74V627h116.81v-75.25h75.24l39.91-39.9v-75.24h75.24V319.8H484.38l-47.74 47.74zM190.38 436.6v-68.92l-47.89-47.9H0V436.6h75.24v75.24l39.9 39.9h75.24v75.24H307.2V484.49l-47.9-47.89h-68.92z"></path></svg>