<svg data-name="Layer 1" xmlns="http://www.w3.org/2000/svg" viewBox="0 0 616 616"><path d="M433.44 306.81c0-70.24-55.71-127.55-125.25-130.46l110.28 191.01c9.52-18.13 14.97-38.7 14.97-60.55ZM302.7 437.55c46.21 0 86.8-24.16 110.06-60.46H192.64c23.26 36.29 63.85 60.46 110.07 60.46ZM171.95 306.81c0 21.85 5.46 42.43 14.98 60.55l110.28-191.02c-69.54 2.91-125.26 60.23-125.26 130.46Z"></path><path d="M586.35 176.07h-50.3C558.77 215.65 571 260.8 571 306.81c0 144.92-117.9 262.82-262.81 262.82H145.5C192.68 598.99 248.34 616 307.99 616c170.1 0 308-137.89 308-308 0-47.22-10.66-91.94-29.65-131.93Z"></path><path d="M526.15 306.81c0-47.12-15.46-93.15-43.7-130.74h-57.2c35.89 32.18 58.53 78.86 58.53 130.74 0 96.3-77.93 174.72-174.04 175.56v.04H54.17a309.63 309.63 0 0 0 35.07 42.36h218.95c120.19 0 217.96-97.78 217.96-217.96Z"></path><path d="M90.22 306.81c0 47.13 15.46 93.15 43.71 130.74h57.19c-35.9-32.17-58.53-78.86-58.53-130.74 0-96.3 77.93-174.71 174.04-175.55v-.04h253.51c-10.66-15.17-22.62-29.37-35.78-42.36H308.19C188 88.86 90.22 186.63 90.22 306.82Z"></path><path d="M45.37 306.81C45.37 161.9 163.27 44 308.19 44h158.48C420.32 16.08 366.04 0 308 0 137.9 0 0 137.9 0 308c0 46.29 10.28 90.16 28.57 129.55h51.74c-22.72-39.58-34.95-84.73-34.95-130.74Z"></path></svg>