<svg id="Layer_1" data-name="Layer 1" xmlns="http://www.w3.org/2000/svg" viewBox="0 0 410.68 624.14">   <path d="M388.25,0H22.43C10.04,0,0,10.04,0,22.43V601.71c0,12.39,10.04,22.43,22.43,22.43H388.25c12.39,0,22.43-10.04,22.43-22.43V22.43c0-12.39-10.04-22.43-22.43-22.43ZM174.72,152.28c0-1.86,1.51-3.37,3.37-3.37h54.5c1.86,0,3.37,1.51,3.37,3.37v85.36c0,1.86-1.51,3.37-3.37,3.37h-54.5c-1.86,0-3.37-1.51-3.37-3.37v-85.36ZM41.68,288.01l16.7-51.88c.57-1.77,2.47-2.74,4.24-2.17l81.25,26.16c1.77,.57,2.74,2.47,2.17,4.24l-16.7,51.88c-.57,1.77-2.47,2.74-4.24,2.17l-81.25-26.16c-1.77-.57-2.74-2.47-2.17-4.24Zm144.84,102.31l-50.03,69.16c-1.09,1.51-3.19,1.84-4.7,.75l-44.16-31.94c-1.51-1.09-1.84-3.19-.75-4.7l50.03-69.16c1.09-1.51,3.19-1.84,4.7-.75l44.16,31.94c1.51,1.09,1.84,3.19,.75,4.7Zm136.93,37.57l-44.05,32.09c-1.5,1.1-3.61,.76-4.7-.74l-50.27-68.99c-1.09-1.5-.76-3.61,.74-4.7l44.05-32.09c1.5-1.1,3.61-.76,4.7,.74l50.27,68.99c1.09,1.5,.76,3.61-.74,4.7Zm43.31-136.19l-81.16,26.43c-1.77,.58-3.67-.39-4.24-2.16l-16.88-51.82c-.58-1.77,.39-3.67,2.16-4.24l81.16-26.43c1.77-.58,3.67,.39,4.24,2.16l16.88,51.82c.58,1.77-.39,3.67-2.16,4.24Z"></path> </svg>