<svg id="Layer_1" data-name="Layer 1" xmlns="http://www.w3.org/2000/svg" viewBox="0 0 527.49 617.65"><defs></defs><path class="cls-1" d="M225.33 463.4h76.82v154.25h-76.82zM441.46 269.3c13.77-16.81 22.06-38.25 22.06-61.54 0-53.57-43.83-97.39-97.39-97.39h-4.99V97.4c0-53.57-43.83-97.4-97.4-97.4-53.57 0-97.39 43.83-97.39 97.39v12.97h-4.99c-53.57 0-97.39 43.83-97.39 97.39 0 23.29 8.29 44.73 22.06 61.54C37.77 274.98 0 316.28 0 366c0 53.57 43.83 97.39 97.39 97.39h127.94v-76.82h76.82v76.82h127.94c53.57 0 97.39-43.83 97.39-97.39 0-49.72-37.77-91.02-86.03-96.7Zm-244.7 61.22c-21.18 0-38.35-17.17-38.35-38.35s17.17-38.35 38.35-38.35 38.35 17.17 38.35 38.35-17.17 38.35-38.35 38.35Zm113.15-132.59c-10.45 0-18.92-8.47-18.92-18.92s8.47-18.92 18.92-18.92 18.92 8.47 18.92 18.92-8.47 18.92-18.92 18.92Z"></path></svg>