<svg xmlns="http://www.w3.org/2000/svg" width="504.9" viewBox="0 0 504.9 599.8" height="599.8"><path d="M252.8 252.9l.2.2c0 .1-.1 0-.2-.2z" fill="none"></path><path d="M252.5 252.6l.1.1s0-.1-.1-.1zM252.6 252.7s.1.1.1.2c0-.1 0-.1-.1-.2z"></path><path d="M425.9 426.3L252.6 252.7c0 .1.1.1.1.2l.2.2-.2-.2c-.1-.1-.2-.2-.2-.3V347L0 347.6l157.8 157.8h94.5v94.4l173.6-173.5z"></path><g><path d="M347.2.2H173.5v158.1h331.4z"></path></g><g><path d="M0 158.1v173.7h157.9V0z"></path></g><path d="M504.6 174.5H347.1v157.2l157.5.3z"></path></svg>