<svg xmlns="http://www.w3.org/2000/svg" width="602.7" viewBox="0 0 602.7 630" height="630" xml:space="preserve" style="enable-background:new 0 0 602.7 630"><path d="M526.3 399.5c42.2 0 76.4-34.2 76.4-76.4s-34.2-76.4-76.4-76.4-76.4 34.2-76.4 76.4c0 42.1 34.2 76.4 76.4 76.4zM76.4 399.5c42.2 0 76.4-34.2 76.4-76.4s-34.2-76.4-76.4-76.4C34.2 246.6 0 280.9 0 323.1c0 42.1 34.2 76.4 76.4 76.4zM300.1 399.5c42.2 0 76.4-34.2 76.4-76.4s-34.2-76.4-76.4-76.4-76.4 34.2-76.4 76.4c0 42.1 34.2 76.4 76.4 76.4zM199.4 102.7 302.1 0l102.7 102.7-102.7 102.6-102.7-102.6z" class="st0"></path><path d="m102.2 197.7 65.2-65.2c9.7-9.6 25.5-9.6 35.1 0l65.2 65.2c9.7 9.6 9.7 25.4 0 35.1L202.4 298c-9.6 9.7-25.4 9.7-35.1 0l-65.2-65.2c-9.6-9.6-9.6-25.4.1-35.1zM333 197.7l65.2-65.2c9.6-9.6 25.4-9.6 35.1 0l65.2 65.2c9.7 9.6 9.7 25.4 0 35.1L433.3 298c-9.7 9.7-25.5 9.7-35.1 0L333 232.8c-9.7-9.6-9.7-25.4 0-35.1zM190 519.1c42.2 0 76.4-34.2 76.4-76.4 0-43.6-38.9-69.6-67-97.7-5.5-5.5-14.5-5.5-20.1 0-27.1 28.3-65.8 54.9-65.8 97.7.1 42.2 34.3 76.4 76.5 76.4zM414.4 519.1c42.2 0 76.4-34.2 76.4-76.4 0-43.6-38.9-69.6-67-97.7-5.5-5.5-14.5-5.5-20.1 0-27.1 28.3-65.8 54.9-65.8 97.7.1 42.2 34.3 76.4 76.5 76.4z" class="st0"></path><path d="M302.9 629.8c66.1 0 94.8-80.1 55.2-124.3l-56.5-63.2-54.7 63.5c-38.4 44.7-9.9 124 56 124z" style="fill-rule:evenodd;clip-rule:evenodd;stroke:#fff;stroke-width:.3781;stroke-miterlimit:2.6131"></path></svg>