<svg xmlns="http://www.w3.org/2000/svg" width="600" viewBox="0 0 600 592.26" height="592.26" style="overflow:visible;enable-background:new 0 0 600 592.26" xml:space="preserve"><path d="M600 343.42v122.56c0 69.74-56.54 126.28-126.28 126.28H126.28C56.54 592.26 0 535.72 0 465.98v-339.7C0 56.54 56.54 0 126.28 0h347.44C543.46 0 600 56.54 600 126.28v122.56H468.63V129.16h-98.91v201.53L265.18 133.35a7.898 7.898 0 0 0-6.97-4.2H131.37V463.1h97.75V261.56L333.66 458.9a7.898 7.898 0 0 0 6.97 4.2h128V343.42H600z" style="fill-rule:evenodd;clip-rule:evenodd"></path></svg>