<svg data-name="Layer 1" xmlns="http://www.w3.org/2000/svg" viewBox="0 0 623.89 624.45"><path d="M88.79 0c-11.67 0-22.22 5.76-27.8 19.05C55.42 5.76 44.87 0 33.2 0 20.86 0 9.67 7.1 4.02 18-2.3 30.2-.23 45.26 3.8 57.86c2.13 6.66 5.18 13.01 8.94 18.9 7.3 11.44 16.82 21.38 27.23 30.04 6.23 5.19 20.62 14.66 21.03 14.9.41-.23 14.8-9.71 21.03-14.9 10.4-8.66 19.92-18.6 27.23-30.04 3.76-5.89 6.81-12.24 8.94-18.9 4.03-12.6 6.09-27.67-.22-39.86-5.66-10.9-16.85-18-29.19-18ZM88.79 125.69c-11.67 0-22.22 5.76-27.8 19.05-5.57-13.29-16.12-19.05-27.8-19.05-12.34 0-23.53 7.1-29.18 18-6.32 12.2-4.25 27.26-.22 39.86 2.13 6.66 5.18 13.01 8.94 18.9 7.3 11.44 16.82 21.38 27.23 30.04 6.23 5.19 20.62 14.66 21.03 14.9.41-.23 14.8-9.71 21.03-14.9 10.4-8.66 19.92-18.6 27.23-30.04 3.76-5.89 6.81-12.24 8.94-18.9 4.03-12.6 6.09-27.67-.22-39.86-5.65-10.9-16.84-18-29.18-18ZM88.79 251.38c-11.67 0-22.22 5.76-27.8 19.05-5.57-13.29-16.12-19.05-27.8-19.05-12.34 0-23.53 7.1-29.18 18-6.32 12.2-4.25 27.26-.22 39.86 2.13 6.66 5.18 13.01 8.94 18.9 7.3 11.44 16.82 21.38 27.23 30.04 6.23 5.19 20.62 14.66 21.03 14.9.41-.23 14.8-9.71 21.03-14.9 10.4-8.66 19.92-18.6 27.23-30.04 3.76-5.89 6.81-12.24 8.94-18.9 4.03-12.6 6.09-27.67-.22-39.86-5.65-10.9-16.84-18-29.18-18ZM88.79 377.07c-11.67 0-22.22 5.76-27.8 19.05-5.57-13.29-16.12-19.05-27.8-19.05-12.34 0-23.53 7.1-29.18 18-6.32 12.2-4.25 27.26-.22 39.86 2.13 6.66 5.18 13.01 8.94 18.9 7.3 11.44 16.82 21.38 27.23 30.04 6.23 5.19 20.62 14.66 21.03 14.9.41-.23 14.8-9.71 21.03-14.9 10.4-8.66 19.92-18.6 27.23-30.04 3.76-5.89 6.81-12.24 8.94-18.9 4.03-12.6 6.09-27.67-.22-39.86-5.65-10.9-16.84-18-29.18-18ZM88.79 502.76c-11.67 0-22.22 5.76-27.8 19.05-5.57-13.29-16.12-19.05-27.8-19.05-12.34 0-23.53 7.1-29.18 18-6.32 12.2-4.25 27.26-.22 39.86 2.13 6.66 5.18 13.01 8.94 18.9 7.3 11.44 16.82 21.38 27.23 30.04 6.23 5.19 20.62 14.66 21.03 14.9.41-.23 14.8-9.71 21.03-14.9 10.4-8.66 19.92-18.6 27.23-30.04 3.76-5.89 6.81-12.23 8.94-18.9 4.03-12.6 6.09-27.67-.22-39.86-5.65-10.9-16.84-18-29.18-18ZM214.27 0c-11.67 0-22.22 5.76-27.8 19.05C180.9 5.76 170.35 0 158.68 0c-12.34 0-23.53 7.1-29.18 18-6.32 12.19-4.25 27.26-.22 39.86 2.13 6.66 5.18 13.01 8.94 18.9 7.3 11.44 16.82 21.38 27.23 30.04 6.23 5.19 20.62 14.66 21.03 14.9.41-.23 14.8-9.71 21.03-14.9 10.4-8.66 19.92-18.6 27.23-30.04 3.76-5.89 6.81-12.24 8.94-18.9 4.03-12.6 6.09-27.67-.22-39.86C237.8 7.1 226.6 0 214.27 0ZM214.27 125.69c-11.67 0-22.22 5.76-27.8 19.05-5.57-13.29-16.12-19.05-27.8-19.05-12.34 0-23.53 7.1-29.18 18-6.32 12.2-4.25 27.26-.22 39.86 2.13 6.66 5.18 13.01 8.94 18.9 7.3 11.44 16.82 21.38 27.23 30.04 6.23 5.19 20.62 14.66 21.03 14.9.41-.23 14.8-9.71 21.03-14.9 10.4-8.66 19.92-18.6 27.23-30.04 3.76-5.89 6.81-12.24 8.94-18.9 4.03-12.6 6.09-27.67-.22-39.86-5.65-10.9-16.84-18-29.18-18ZM214.27 251.38c-11.67 0-22.22 5.76-27.8 19.05-5.57-13.29-16.12-19.05-27.8-19.05-12.34 0-23.53 7.1-29.18 18-6.32 12.2-4.25 27.26-.22 39.86 2.13 6.66 5.18 13.01 8.94 18.9 7.3 11.44 16.82 21.38 27.23 30.04 6.23 5.19 20.62 14.66 21.03 14.9.41-.23 14.8-9.71 21.03-14.9 10.4-8.66 19.92-18.6 27.23-30.04 3.76-5.89 6.81-12.24 8.94-18.9 4.03-12.6 6.09-27.67-.22-39.86-5.65-10.9-16.84-18-29.18-18ZM214.27 377.07c-11.67 0-22.22 5.76-27.8 19.05-5.57-13.29-16.12-19.05-27.8-19.05-12.34 0-23.53 7.1-29.18 18-6.32 12.2-4.25 27.26-.22 39.86 2.13 6.66 5.18 13.01 8.94 18.9 7.3 11.44 16.82 21.38 27.23 30.04 6.23 5.19 20.62 14.66 21.03 14.9.41-.23 14.8-9.71 21.03-14.9 10.4-8.66 19.92-18.6 27.23-30.04 3.76-5.89 6.81-12.24 8.94-18.9 4.03-12.6 6.09-27.67-.22-39.86-5.65-10.9-16.84-18-29.18-18ZM214.27 502.76c-11.67 0-22.22 5.76-27.8 19.05-5.57-13.29-16.12-19.05-27.8-19.05-12.34 0-23.53 7.1-29.18 18-6.32 12.2-4.25 27.26-.22 39.86 2.13 6.66 5.18 13.01 8.94 18.9 7.3 11.44 16.82 21.38 27.23 30.04 6.23 5.19 20.62 14.66 21.03 14.9.41-.23 14.8-9.71 21.03-14.9 10.4-8.66 19.92-18.6 27.23-30.04 3.76-5.89 6.81-12.23 8.94-18.9 4.03-12.6 6.09-27.67-.22-39.86-5.65-10.9-16.84-18-29.18-18ZM339.74 0c-11.67 0-22.22 5.76-27.8 19.05C306.37 5.76 295.82 0 284.15 0c-12.34 0-23.53 7.1-29.18 18-6.32 12.19-4.25 27.26-.22 39.86 2.13 6.66 5.18 13.01 8.94 18.9 7.3 11.44 16.82 21.38 27.23 30.04 6.23 5.19 20.62 14.66 21.03 14.9.41-.23 14.8-9.71 21.03-14.9 10.4-8.66 19.92-18.6 27.23-30.04 3.76-5.89 6.81-12.24 8.94-18.9 4.03-12.6 6.09-27.67-.22-39.86-5.65-10.9-16.84-18-29.18-18ZM339.74 125.69c-11.67 0-22.22 5.76-27.8 19.05-5.57-13.29-16.12-19.05-27.79-19.05-12.34 0-23.53 7.1-29.18 18-6.32 12.2-4.25 27.26-.22 39.86 2.13 6.66 5.18 13.01 8.94 18.9 7.3 11.44 16.82 21.38 27.23 30.04 6.23 5.19 20.62 14.66 21.03 14.9.41-.23 14.8-9.71 21.03-14.9 10.4-8.66 19.92-18.6 27.23-30.04 3.76-5.89 6.81-12.24 8.94-18.9 4.03-12.6 6.09-27.67-.22-39.86-5.65-10.9-16.84-18-29.18-18ZM339.74 251.38c-11.67 0-22.22 5.76-27.8 19.05-5.57-13.29-16.12-19.05-27.79-19.05-12.34 0-23.53 7.1-29.18 18-6.32 12.2-4.25 27.26-.22 39.86 2.13 6.66 5.18 13.01 8.94 18.9 7.3 11.44 16.82 21.38 27.23 30.04 6.23 5.19 20.62 14.66 21.03 14.9.41-.23 14.8-9.71 21.03-14.9 10.4-8.66 19.92-18.6 27.23-30.04 3.76-5.89 6.81-12.24 8.94-18.9 4.03-12.6 6.09-27.67-.22-39.86-5.65-10.9-16.84-18-29.18-18ZM339.74 377.07c-11.67 0-22.22 5.76-27.8 19.05-5.57-13.29-16.12-19.05-27.79-19.05-12.34 0-23.53 7.1-29.18 18-6.32 12.2-4.25 27.26-.22 39.86 2.13 6.66 5.18 13.01 8.94 18.9 7.3 11.44 16.82 21.38 27.23 30.04 6.23 5.19 20.62 14.66 21.03 14.9.41-.23 14.8-9.71 21.03-14.9 10.4-8.66 19.92-18.6 27.23-30.04 3.76-5.89 6.81-12.24 8.94-18.9 4.03-12.6 6.09-27.67-.22-39.86-5.65-10.9-16.84-18-29.18-18ZM339.74 502.76c-11.67 0-22.22 5.76-27.8 19.05-5.57-13.29-16.12-19.05-27.79-19.05-12.34 0-23.53 7.1-29.18 18-6.32 12.2-4.25 27.26-.22 39.86 2.13 6.66 5.18 13.01 8.94 18.9 7.3 11.44 16.82 21.38 27.23 30.04 6.23 5.19 20.62 14.66 21.03 14.9.41-.23 14.8-9.71 21.03-14.9 10.4-8.66 19.92-18.6 27.23-30.04 3.76-5.89 6.81-12.23 8.94-18.9 4.03-12.6 6.09-27.67-.22-39.86-5.65-10.9-16.84-18-29.18-18ZM465.22 0c-11.67 0-22.22 5.76-27.8 19.05C431.85 5.76 421.3 0 409.62 0c-12.34 0-23.53 7.1-29.18 18-6.32 12.19-4.25 27.26-.22 39.86 2.13 6.66 5.18 13.01 8.94 18.9 7.3 11.44 16.83 21.38 27.23 30.04 6.23 5.19 20.62 14.66 21.03 14.9.41-.23 14.8-9.71 21.03-14.9 10.4-8.66 19.92-18.6 27.23-30.04 3.76-5.89 6.81-12.24 8.94-18.9 4.03-12.6 6.09-27.67-.22-39.86-5.65-10.9-16.84-18-29.18-18ZM465.22 125.69c-11.67 0-22.22 5.76-27.8 19.05-5.57-13.29-16.12-19.05-27.8-19.05-12.34 0-23.53 7.1-29.18 18-6.32 12.2-4.25 27.26-.22 39.86 2.13 6.66 5.18 13.01 8.94 18.9 7.3 11.44 16.83 21.38 27.23 30.04 6.23 5.19 20.62 14.66 21.03 14.9.41-.23 14.8-9.71 21.03-14.9 10.4-8.66 19.92-18.6 27.23-30.04 3.76-5.89 6.81-12.24 8.94-18.9 4.03-12.6 6.09-27.67-.22-39.86-5.65-10.9-16.84-18-29.18-18ZM465.22 251.38c-11.67 0-22.22 5.76-27.8 19.05-5.57-13.29-16.12-19.05-27.8-19.05-12.34 0-23.53 7.1-29.18 18-6.32 12.2-4.25 27.26-.22 39.86 2.13 6.66 5.18 13.01 8.94 18.9 7.3 11.44 16.83 21.38 27.23 30.04 6.23 5.19 20.62 14.66 21.03 14.9.41-.23 14.8-9.71 21.03-14.9 10.4-8.66 19.92-18.6 27.23-30.04 3.76-5.89 6.81-12.24 8.94-18.9 4.03-12.6 6.09-27.67-.22-39.86-5.65-10.9-16.84-18-29.18-18ZM465.22 377.07c-11.67 0-22.22 5.76-27.8 19.05-5.57-13.29-16.12-19.05-27.8-19.05-12.34 0-23.53 7.1-29.18 18-6.32 12.2-4.25 27.26-.22 39.86 2.13 6.66 5.18 13.01 8.94 18.9 7.3 11.44 16.83 21.38 27.23 30.04 6.23 5.19 20.62 14.66 21.03 14.9.41-.23 14.8-9.71 21.03-14.9 10.4-8.66 19.92-18.6 27.23-30.04 3.76-5.89 6.81-12.24 8.94-18.9 4.03-12.6 6.09-27.67-.22-39.86-5.65-10.9-16.84-18-29.18-18ZM465.22 502.76c-11.67 0-22.22 5.76-27.8 19.05-5.57-13.29-16.12-19.05-27.8-19.05-12.34 0-23.53 7.1-29.18 18-6.32 12.2-4.25 27.26-.22 39.86 2.13 6.66 5.18 13.01 8.94 18.9 7.3 11.44 16.83 21.38 27.23 30.04 6.23 5.19 20.62 14.66 21.03 14.9.41-.23 14.8-9.71 21.03-14.9 10.4-8.66 19.92-18.6 27.23-30.04 3.76-5.89 6.81-12.23 8.94-18.9 4.03-12.6 6.09-27.67-.22-39.86-5.65-10.9-16.84-18-29.18-18ZM514.64 76.76c7.3 11.44 16.83 21.38 27.23 30.04 6.23 5.19 20.62 14.66 21.03 14.9.41-.23 14.8-9.71 21.03-14.9 10.4-8.66 19.92-18.6 27.23-30.04 3.76-5.89 6.81-12.24 8.94-18.9 4.03-12.6 6.09-27.67-.22-39.86-5.65-10.9-16.84-18-29.18-18-11.67 0-22.22 5.76-27.8 19.05C557.33 5.76 546.78 0 535.1 0c-12.34 0-23.53 7.1-29.18 18-6.32 12.19-4.25 27.26-.22 39.86 2.13 6.66 5.18 13.01 8.94 18.9ZM590.69 125.69c-11.67 0-22.22 5.76-27.8 19.05-5.57-13.29-16.12-19.05-27.8-19.05-12.34 0-23.53 7.1-29.18 18-6.32 12.2-4.25 27.26-.22 39.86 2.13 6.66 5.18 13.01 8.94 18.9 7.3 11.44 16.83 21.38 27.23 30.04 6.23 5.19 20.62 14.66 21.03 14.9.41-.23 14.8-9.71 21.03-14.9 10.4-8.66 19.92-18.6 27.23-30.04 3.76-5.89 6.81-12.24 8.94-18.9 4.03-12.6 6.09-27.67-.22-39.86-5.65-10.9-16.84-18-29.18-18ZM590.69 251.38c-11.67 0-22.22 5.76-27.8 19.05-5.57-13.29-16.12-19.05-27.8-19.05-12.34 0-23.53 7.1-29.18 18-6.32 12.2-4.25 27.26-.22 39.86 2.13 6.66 5.18 13.01 8.94 18.9 7.3 11.44 16.83 21.38 27.23 30.04 6.23 5.19 20.62 14.66 21.03 14.9.41-.23 14.8-9.71 21.03-14.9 10.4-8.66 19.92-18.6 27.23-30.04 3.76-5.89 6.81-12.24 8.94-18.9 4.03-12.6 6.09-27.67-.22-39.86-5.65-10.9-16.84-18-29.18-18ZM590.69 377.07c-11.67 0-22.22 5.76-27.8 19.05-5.57-13.29-16.12-19.05-27.8-19.05-12.34 0-23.53 7.1-29.18 18-6.32 12.2-4.25 27.26-.22 39.86 2.13 6.66 5.18 13.01 8.94 18.9 7.3 11.44 16.83 21.38 27.23 30.04 6.23 5.19 20.62 14.66 21.03 14.9.41-.23 14.8-9.71 21.03-14.9 10.4-8.66 19.92-18.6 27.23-30.04 3.76-5.89 6.81-12.24 8.94-18.9 4.03-12.6 6.09-27.67-.22-39.86-5.65-10.9-16.84-18-29.18-18ZM590.69 502.76c-11.67 0-22.22 5.76-27.8 19.05-5.57-13.29-16.12-19.05-27.8-19.05-12.34 0-23.53 7.1-29.18 18-6.32 12.2-4.25 27.26-.22 39.86 2.13 6.66 5.18 13.01 8.94 18.9 7.3 11.44 16.83 21.38 27.23 30.04 6.23 5.19 20.62 14.66 21.03 14.9.41-.23 14.8-9.71 21.03-14.9 10.4-8.66 19.92-18.6 27.23-30.04 3.76-5.89 6.81-12.23 8.94-18.9 4.03-12.6 6.09-27.67-.22-39.86-5.65-10.9-16.84-18-29.18-18Z"></path></svg>