<svg xmlns="http://www.w3.org/2000/svg" width="600.6" viewBox="0 0 600.6 626.4" height="626.4" xml:space="preserve" style="enable-background:new 0 0 600.6 626.4"><path d="M298.6 0s.5.2.5.5c8.5 11.4 54.6 103.1 54.6 103.1l78.1-22-6.6 79.1 20.9-27.6 38.8 70.4 111.8-33.2-36.2 110.3 40.1 23.5v140.4H420.1v181.7H180.7V444.6H.5L0 301.2s26.9-12.9 38.8-20.9C36.5 267.6 6.5 184.1 4.1 171c36.1 10.3 72.9 21.6 110.3 33.2 14.2-22.6 25.3-46.6 38.8-71 9.2 8.8 14.7 21.4 23 31.1 1.2-2.7-7.7-83.7-7.7-83.7l76.6 23L298.6 0zM269 159.8c-2 .5-45.9-13.3-45.9-13.3L243 344.6l-84.2-120-20.4 35.2-60.7-17.4L97 304.2l-49.5 26v67.3h180.7v181.9h144.7V397.5h180.4v-66.7l-49.5-28.6c-.3-1.3 18.9-60.2 18.9-60.2l-60.2 17.9-20.4-35.2-81.7 122.5L378.3 146l-49 13.8-30.1-56.1-30.2 56.1z" style="fill-rule:evenodd;clip-rule:evenodd"></path></svg>