<svg data-name="Layer 1" xmlns="http://www.w3.org/2000/svg" viewBox="0 0 628.6 559.35"><path d="M91.77 559.35h43.85L314.3 249.88l178.67 309.47h43.86L314.3 173.92 91.77 559.35z"></path><path d="M159.26 559.35h310.08L314.3 290.81 159.26 559.35z"></path><path d="M28.52 552.03c8.05 4.59 17.44 7.33 27.79 7.33h11.82L314.3 132.99l246.17 426.37h11.82c10.35 0 19.74-2.74 27.79-7.33l-285.78-495-285.78 495Z"></path><path d="M621.01 474.98 363.02 28.13c-21.65-37.5-75.78-37.5-97.43 0l-258 446.85c-12.52 21.68-8.68 46.45 5.1 63.53L314.3 16.1l301.61 522.41c13.78-17.08 17.62-41.85 5.1-63.53Z"></path></svg>