<svg xmlns="http://www.w3.org/2000/svg" width="642" viewBox="0 0 642 642" height="642" data-name="Layer 1"><path d="M642 0h-6.9v7.04l-6.9 7.04V0h-6.9v21.13l-6.9 7.04V0h-6.9v35.22l-6.9 7.04V0h-6.9v49.31l-6.9 7.04V0h-6.9v63.4l-6.9 7.04V0h-6.9v77.49l-6.9 7.04V0h-6.9v91.57l-6.9 7.04V0h-6.9v105.66l-6.9 7.04V0h-6.9v119.75l-6.9 7.04V0h-6.9v381.07l-6.9-6.88V7.04l-6.9 7.04v353.24l-6.9-6.87V21.13l-6.9 7.04v325.4l-6.9-6.87V35.22l-6.9 7.04v297.57l-6.9-6.87V49.31l-6.9 7.04v269.73l-6.9-6.87V63.4l-6.9 7.04v241.9l-6.9-6.87V77.49l-6.9 7.04V298.6l-6.9-6.87V91.57l-6.9 7.04v186.24l-6.9-6.87V105.66l-6.9 7.04v158.4l-6.9-6.87V119.75l-6.9 7.04v130.57L255.42 126.8H124.26v388.41l-6.9 7.04V260.96l-6.93 6.93v261.43l-6.87 7.01V274.76l-6.93 6.93V543.4l-6.87 7.01V288.56l-6.93 6.93v262l-6.87 7.01V302.36l-6.93 6.93v262.28l-6.87 7.01V316.16l-6.93 6.93v262.56l-6.87 7.01v-262.7l-6.93 6.93v262.84l-6.87 7.01V343.76l-6.93 6.93v263.12l-6.87 7.01V357.56l-6.93 6.93V627.9l-6.87 7.01V371.36l-6.93 6.93v263.69h131.16l124.26-126.8V257.35l6.9 6.87v126.7l6.9 6.9V271.08l6.9 6.87v126.77l6.9 6.9v-126.8l6.9 6.87v126.83l6.9 6.9V298.56l6.9 6.87v126.89l6.9 6.9V312.3l6.9 6.87v126.95l6.9 6.9V326.04l6.9 6.87v127.01l6.9 6.9V339.78l6.9 6.87v127.08l6.9 6.9V353.52l6.9 6.87v127.14l6.9 6.9V367.26l6.9 6.87v127.2l6.9 6.9V381l6.9 6.87v127.26h6.9V387.87h6.9v127.26h6.9V387.87h6.9v127.26h6.9V387.87h6.9v127.26h6.9V387.87h6.9v127.26h6.9V387.87h6.9v127.26h6.9V387.87h6.9v127.26h6.9V387.87h6.9v127.26h6.9V387.87h6.9v127.26h6.9V387.87h6.9v127.26h6.9V387.87l124.26-124.22V0ZM138.06 267.79l-6.9-6.87V133.66l6.9 6.87v127.25Zm13.81 13.74-6.9-6.87V147.4l6.9 6.87v127.26Zm13.81 13.75-6.9-6.87V161.15l6.9 6.87v127.26Zm13.81 13.74-6.9-6.87V174.9l6.9 6.87v127.25Zm13.81 13.74-6.9-6.87V188.64l6.9 6.87v127.25Zm13.81 13.74-6.9-6.87V202.38l6.9 6.87V336.5Zm13.81 13.75-6.9-6.87V216.13l6.9 6.87v127.25Zm13.81 13.74-6.9-6.88V229.86l6.9 6.87v127.25Zm13.81 13.74-6.9-6.87V243.61l6.9 6.87v127.25Z"></path></svg>