<svg xmlns="http://www.w3.org/2000/svg" width="610.1" viewBox="0 0 610.1 619.9" height="619.9" xml:space="preserve" style="enable-background:new 0 0 610.1 619.9"><path d="M610.1 216.6V55.5S556.8 0 457.6 0 305 48.5 305 48.5V208s53.3-53.7 152.5-53.7c92.4 0 145 55.7 151.8 63.3-6.8 7.6-59.4 63.2-151.8 63.3-43.1 0-82.6-14.3-120.2-34.3-11-5.8-21.6-11.8-32.3-17.5-32.3-17.7-64.3-33.7-103.3-38.6C86.1 175.7 3.4 236.9 0 240.4v324.1S53.3 620 152.5 620 305 571.5 305 571.5V412s-53.3 53.7-152.5 53.7c-92.4 0-145-55.7-151.8-63.3 6.8-7.6 59.4-63.2 151.8-63.3 43.1 0 82.6 14.3 120.2 34.3 11 5.8 21.6 11.8 32.3 17.5 32.3 17.7 64.3 33.7 103.3 38.6 115.7 14.7 198.4-46.5 201.8-50V216.6z"></path></svg>