<svg xmlns="http://www.w3.org/2000/svg" width="616.9" viewBox="0 0 616.9 616.9" height="616.9" xml:space="preserve" style="enable-background:new 0 0 616.9 616.9"><path d="M328.7 0v183.2l10.4 1c117.3 11.5 205.8 108.1 205.8 220.1 0 78.3-43.3 147.3-109.5 185.7 107-48.6 181.5-156.3 181.5-281.6C616.9 144.7 489.7 10.8 328.7 0zM109.8 198.1c0 103 78.2 187.7 178.4 198.1V0C188 10.4 109.8 95.1 109.8 198.1z"></path><path d="M508.3 420.5c0-103-78.2-187.7-178.4-198.1v394.3c9.9-.7 19.7-1.9 29.3-3.5 85.7-22.1 149.1-100 149.1-192.7zM177.5 400.5C114.3 360.7 73.2 291.3 73.2 214.6 73.2 128.7 124.7 54 201 18.7 83.6 62.6 0 175.8 0 308.4c0 163.7 127.3 297.7 288.2 308.4V437.3c-71.2-9.1-110.9-36.8-110.9-36.8h.2z"></path></svg>