<svg xmlns="http://www.w3.org/2000/svg" width="482.8" viewBox="0 0 482.8 559.5" height="559.5"><path d="M351.8 77.8v86.3l-19.7 11.6v171.9c0 6.1-1.9 11.8-5.3 16.6l60.4-36.1c-1.7.2-3.5.4-5.4.4-19.3 0-36.6-12.4-36.6-29.8 0-17.3 14-31.4 33.3-31.4 9 0 17.2 3.1 23.4 8.1V130l11.5-6.8v175.6c0 6.2-1.6 11.8-4.6 16.4l62.1-37c7.3-4.3 11.8-12.2 11.8-20.7V0L351.8 77.8zM213.2 160.6L0 287.9v271.6l57.5-34.4c-2.4.5-4.8.7-7.4.7-19.3 0-35-14-35-31.4s15.6-31.4 35-31.4c9 0 17.2 3.1 23.4 8.1V323.6l11.5-6.8v177.7c0 6.7-2.3 12.8-6.3 17.9L138 477c-2 .3-4.1.5-6.2.5-19.3 0-35-14-35-31.4 0-17.3 15-30.7 34.3-30.7 9 0 17.2 3.1 23.4 8.1V275.9l11.5-6.8v177.7c0 6.2-1.9 11.8-5.2 16.5l62.4-37.3c-2.2.4-4.5.6-6.8.6-19.3 0-35-12.7-35-30s14-31.4 33.3-31.4c9 0 17.2 3.1 23.4 8.1V231.1L213.2 246v-85.4z"></path><path d="M347.7 80.2l-130.4 77.9v80.6l32.6-19.1v177c0 6.3-1.9 12-5.2 16.7l58.1-34.7c-1.8.3-3.7.4-5.6.4-19.3 0-35-14-35-31.4 0-17.3 15.6-31.4 35-31.4 9 0 17.2 3.1 23.4 8.1V177.7l27.1-16V80.2z"></path></svg>