<svg xmlns="http://www.w3.org/2000/svg" width="611.9" viewBox="0 0 611.9 391.7" height="391.7" xml:space="preserve"><path d="M587.1 292c-10.7.6-21.4-.6-31.7-3.5.1-.1.1-.3.2-.4 14.8-27.5 23.1-58.9 23.1-92.3 0-34.2-8.9-66.4-24.4-94.5C521 41 456.6 0 382.9 0h-187C87.9 0 0 87.9 0 195.8v195.8h382.9c62.2 0 117.7-29.2 153.6-74.6 24.5 9.1 50.8 10.2 75.4 4.2v-34.1c-8 2.8-16.3 4.4-24.8 4.9zm-202.8 66.6v-33.5c38 .8 74.8-15.3 100.1-43.7 6.7 7.5 14.2 14.2 22.4 20-29.7 34.7-73.6 56.8-122.5 57.2zm141.3-84.4s-.1 0 0 0c-23.6-16.6-38.8-42.8-41.3-71.4h-.8c-3.7 29.8-18.6 50-18.5 50.1-16.6 22.3-42.5 36.8-70.2 39-25.2 2-50.5-6-69.9-22.1-18.8-15.7-31.3-38.2-34.4-62.6-3.3-26 4.2-52.7 20.7-73.1 18.3-22.8 46.5-36.4 75.8-36.4v-33c-49.8 0-96.3 29.5-117.7 74.4-22.3 46.8-14 103.8 20.5 142.4 16.4 18.3 37.8 31.9 61.4 38.6v38.5H208.1v-66.9h-33v66.9H33V195.8C33 106.1 106.1 33 195.8 33h187c60.7 0 113.6 33.3 141.6 82.7 13.5 23.7 21.2 51 21.2 80.1.1 28.4-7.2 55.1-20 78.4z"></path><circle cx="528.9" cy="195.8" r="10.5"></circle></svg>