<svg data-name="Layer 1" xmlns="http://www.w3.org/2000/svg" viewBox="0 0 578.94 617.44"><path d="M578.76 528.45c-2.84-43.73-40.22-77.99-85.1-77.99H392.48c-12.23 0-22.18-9.95-22.18-22.18V186.46c0-5.79 2.33-11.17 6.56-15.14 4.23-3.96 9.77-5.92 15.61-5.55 10.64.69 19.29 10.77 19.29 22.48v137.77c0 22.99 9.62 45.2 26.4 60.92 16.77 15.72 39.6 23.85 62.58 22.39 43.74-2.83 78-40.21 78-85.1V84.93C578.74 38.1 540.64 0 493.81 0H85.1C38.28 0 .18 38.1.18 84.93v239.3c0 44.89 34.26 82.27 77.99 85.1 23.01 1.47 45.81-6.67 62.58-22.39 16.78-15.73 26.4-37.93 26.4-60.92V188.25c0-11.7 8.66-21.79 19.29-22.48 5.83-.4 11.39 1.59 15.62 5.55 4.23 3.97 6.56 9.34 6.56 15.14v241.82c0 12.23-9.95 22.18-22.18 22.18H85.27c-44.89 0-82.27 34.26-85.1 77.99-1.49 23.01 6.67 45.82 22.39 62.59 15.73 16.78 37.93 26.4 60.92 26.4h411.97c22.99 0 45.19-9.62 60.92-26.4 15.72-16.77 23.88-39.58 22.4-62.59Zm-68.18 19.67c-3.97 4.23-9.34 6.56-15.14 6.56H83.49c-5.79 0-11.17-2.33-15.14-6.56-3.96-4.22-5.93-9.77-5.55-15.62.69-10.64 10.77-19.29 22.48-19.29h101.18c46.83 0 84.93-38.1 84.93-84.93V186.46c0-22.99-9.62-45.19-26.4-60.92-16.77-15.72-39.57-23.84-62.59-22.39-43.73 2.84-77.99 40.22-77.99 85.1v137.77c0 5.79-2.33 11.17-6.56 15.14-4.23 3.96-9.81 5.89-15.62 5.55-10.64-.69-19.29-10.77-19.29-22.47V84.93c0-12.23 9.95-22.18 22.18-22.18h408.72c12.23 0 22.18 9.95 22.18 22.18v239.3c0 11.7-8.66 21.79-19.3 22.47-5.85.4-11.39-1.59-15.61-5.55-4.23-3.96-6.56-9.34-6.56-15.14V188.25c0-44.88-34.26-82.26-77.99-85.1-22.97-1.47-45.82 6.67-62.59 22.39-16.78 15.73-26.4 37.93-26.4 60.92v241.82c0 46.83 38.1 84.93 84.93 84.93h101.18c11.7 0 21.79 8.66 22.48 19.29.38 5.85-1.59 11.39-5.55 15.62Z"></path></svg>