<svg xmlns="http://www.w3.org/2000/svg" width="585.4" viewBox="0 0 585.4 585.4" height="585.4"><path d="M429 33.6l-20.5-10.8v401.7c0 9-7.3 16.3-16.3 16.3s-16.3-7.3-16.3-16.3V83.3c0-22.3-8.7-43.2-24.4-58.9C335.7 8.7 314.8 0 292.5 0H88.6l33.6 54.9C50.1 106.9 4.8 189.2.4 277.6c-4.1 82 24.9 159.5 81.7 218.4 55.8 57.8 130.4 89.4 210.5 89.4h4.6c154.6-2.3 281.1-125 287.9-279.4 5-112.8-56.3-219.7-156.1-272.4zm128.2 271.1C551 444.3 436.6 555.3 296.7 557.4c-74.1.9-143.2-27.6-194.6-80.9C50.8 423.3 24.5 353.2 28.3 279c4.2-84 49.2-162 120.4-208.4l11.4-7.4-21.6-35.3h154c14.8 0 28.7 5.8 39.1 16.2 10.5 10.5 16.2 24.4 16.2 39.2v341.2c0 24.4 19.9 44.3 44.3 44.3s44.3-19.9 44.3-44.3V70.4c78.2 50.7 125 140.2 120.8 234.3z"></path><circle cx="232.3" cy="57" r="21.1"></circle></svg>