<svg data-name="Layer 1" xmlns="http://www.w3.org/2000/svg" viewBox="0 0 623.08 622.28"><path d="M604.49 204.48h.05c-22.33-64.15-63.8-88.08-92.82-83.18-13.89 2.35-28.53 11.84-35.02 31.17-1.25-.2-2.55-.35-3.8-.35-5.99.1-12.49 2.85-17.49 8.64V0H344.8c16.14 7.54 30.37 18.28 42.06 31.42h37.12v163.32h-48.16c18.83-20.58 30.37-47.86 30.37-77.88 0-62-49.01-112.66-110.36-115.55v192.23c-71.84-3.4-137.63-29.92-190.34-72.19 45.06-48.96 107.31-81.83 177.1-89.08V.7C124.35 15.39 0 148.73 0 310.74c0 171.81 139.78 311.54 311.54 311.54S623.08 482.5 623.08 310.74c0-37.27-6.59-73.04-18.68-106.21l.1-.05Zm-87.53-52.16c13.09-2.2 37.32 12.84 53.9 52.16h-.15c13.49 32.77 20.98 68.64 20.98 106.26 0 61.7-20.08 118.8-54.05 165.11-58.15-46.76-130.94-75.99-210.32-79.43v-69.99h39.97c68.14 0 147.73-30.02 147.73-114.6 0-8.04-1.2-15.84-3.3-23.23-2-5.6-4.4-10.39-6.99-14.64.2-6.89 1.9-19.88 12.24-21.63ZM295.9 396.47c-79.43 3.45-152.22 32.62-210.32 79.43-31.02-42.36-50.51-93.72-53.61-149.42H295.9v69.99Zm15.74-171.11c5.3 0 10.49-.2 15.74-.4V41.12c28.08 13.69 47.46 42.46 47.46 75.74 0 27.73-13.49 52.31-34.22 67.69v41.67h114.9v-64.1c16.69 9.04 28.13 29.48 28.13 49.76 0 79.18-96.87 83.18-116.3 83.18h-39.97v-56.8c-5.2.2-10.44.4-15.74.4s-10.49-.15-15.74-.35v56.75H31.97c3.1-55.7 22.53-107.01 53.61-149.37 61.95 49.81 140.53 79.73 226.01 79.73l.05-.05ZM105.51 500.13c52.71-42.31 118.55-68.84 190.39-72.24v162.46c-75.14-4.2-142.48-38.12-190.39-90.22Zm221.86 90.22V427.89c71.84 3.4 137.68 29.92 190.39 72.24-47.91 52.11-115.25 86.03-190.39 90.22Z"></path></svg>