<svg data-name="Layer 1" xmlns="http://www.w3.org/2000/svg" viewBox="0 0 573.05 321.11"><path d="M527.7 231.6c-.62-30.63-19.93-56.75-46.96-67.42v-.35c0-41.46-33.73-75.2-75.2-75.2a75.05 75.05 0 0 0-32.83 7.56c-8.05-10.12-18.68-18.09-30.89-22.91-.43-40.48-33.5-73.29-74.09-73.29-21.43 0-41.43 9.38-55.24 24.82a74.09 74.09 0 0 0-14.05-1.35c-40.57 0-73.61 32.78-74.07 73.24H89.75v67.32H44.88v67.32H0v89.76h22.44v-67.32h44.88v-67.32h44.88v-67.31h112.2v201.96h22.44V96.71h-95.32c.46-25.55 21.27-46.12 46.93-46.12 9.29 0 17.92 2.73 25.21 7.38 6.58-17.99 23.8-30.86 44.08-30.86 25.94 0 46.97 21.03 46.97 46.97 0 7.75-1.91 15.04-5.23 21.49 1.72-.19 3.46-.31 5.23-.31 25.94 0 46.97 21.03 46.97 46.97 9.86-15.72 24.22-26.49 43.86-26.49 26.56 0 48.08 21.53 48.08 48.08 0 8.21-2.07 15.94-5.7 22.71 1.87-.23 3.77-.38 5.7-.38 25.94 0 46.97 21.03 46.97 46.97 0 7.13-1.64 13.87-4.48 19.92.94-.06 1.88-.14 2.83-.14 25.94 0 46.97 21.03 46.97 46.97 0 7.65-1.87 14.85-5.11 21.23h29.11a73.711 73.711 0 0 0 3.12-21.23c0-30.66-18.73-57.04-45.35-68.29Z"></path><path d="M134.64 141.59h22.44v44.88h-22.44zM179.52 141.59h22.44v44.88h-22.44zM89.76 208.91h22.44v44.88H89.76zM134.64 208.91h22.44v44.88h-22.44zM179.52 208.91h22.44v44.88h-22.44zM89.76 276.23h22.44v44.88H89.76zM134.64 276.23h22.44v44.88h-22.44zM179.52 276.23h22.44v44.88h-22.44zM44.88 276.23h22.44v44.88H44.88z"></path></svg>