<svg xmlns="http://www.w3.org/2000/svg" width="593" viewBox="0 0 593 587.9" height="587.9"><path class="st0" d="M286 587.9H0V183.3L249.9 0l2.9 3c24.3 25.1 37.7 58.1 37.7 93 0 42.1-19.3 80.9-52.9 106.4l-89.9 66v176.4c35.6 1.2 69.1 15.4 94.7 40.3 26.7 25.9 42.1 60.7 43.3 97.9l.3 4.9zM9.5 578.4H276c-2.3-32.9-16.4-63.4-40.2-86.5-25-24.3-58-37.6-92.9-37.6h-4.8V263.6l93.7-68.8C263.1 171.2 281 135.1 281 96c0-31.1-11.4-60.5-32.2-83.4L9.5 188.1v390.3zM593 587.9H307l.2-4.9c1.2-37.2 16.6-72 43.3-97.9 25.7-24.9 59.1-39.1 94.7-40.3V268.4l-89.8-66c-33.7-25.6-52.9-64.4-52.9-106.5 0-34.9 13.4-68 37.7-93l2.9-3L593 183.3v404.6zm-276.1-9.5h266.5V188.1L344.2 12.6C323.4 35.5 312 64.9 312 96c0 39.1 17.9 75.2 49.1 98.9l93.6 68.8v190.6H450c-34.9 0-67.9 13.4-92.9 37.6-23.7 23.1-37.9 53.6-40.2 86.5z"></path><circle class="st0" cx="296.5" cy="337.1" r="115.3"></circle></svg>