<svg data-name="Layer 1" xmlns="http://www.w3.org/2000/svg" viewBox="0 0 594.41 594.41"><path d="M297.21 0C133.33 0 0 133.32 0 297.2s133.33 297.21 297.21 297.21S594.42 461.08 594.42 297.2 461.08 0 297.21 0Zm78.15 62.38v241.17l-40.97-108.06h-74.36l-40.97 108.06V62.38c24.58-8.2 50.84-12.71 78.15-12.71s53.56 4.51 78.15 12.71ZM49.67 297.2c0-89.76 48.02-168.5 119.72-211.9v218.25l-40.97-108.06H75.31l82.21 216.85h73.42l41.44-109.31v240.46C147.5 530.99 49.68 425.31 49.68 297.2Zm272.37 246.29V303.03l41.44 109.31h73.42l82.21-216.85H466l-40.97 108.06V85.3c71.7 43.41 119.72 122.15 119.72 211.9 0 128.11-97.83 233.79-222.7 246.29Z"></path></svg>