<svg xmlns="http://www.w3.org/2000/svg" width="642" viewBox="0 0 642 642" height="642" data-name="Layer 1"><path d="M287.5 297.73h67.01v129.2H287.5z"></path><path d="m321 128.4 141.24 141.24v152.48l50.72 50.72h-78.8l-37.89-37.88V299.97L321 224.7l-75.27 75.27v134.98l-37.89 37.89h-78.8l50.72-50.73V269.64L321 128.4z"></path><path d="M642 321c0 177.28-143.72 321-321 321S0 498.28 0 321 143.72 0 321 0s321 143.72 321 321ZM321 76.24C185.82 76.24 76.24 185.82 76.24 321S185.82 565.76 321 565.76 565.76 456.18 565.76 321 456.18 76.24 321 76.24Z"></path></svg>