<svg xmlns="http://www.w3.org/2000/svg" width="571" viewBox="0 0 571 613.7" height="613.7" xml:space="preserve" style="enable-background:new 0 0 571 613.7"><path d="M439.5 30.1V388.8c0 21.6-8.8 41.2-23 55.4v-.3c-2.9 2.6-6 5.1-9.3 7.2-12 7.9-26.4 12.5-41.9 12.5-42.2 0-76.4-34.2-76.4-76.4s34.2-76.4 76.4-76.4c19.7 0 37.7 7.5 51.2 19.7v-146c-16.4-4.2-33.5-6.4-51.2-6.4-114.2 0-206.7 92.5-206.7 206.7 0 5.4.3 10.8.7 16.1-16.2-26.4-25.5-57.5-25.5-90.8 0-96.2 78-174.3 174.3-174.3 41 0 78.7 14.2 108.5 38V20.2C382.6 7.2 345.6 0 307 0 137.4 0 0 137.4 0 306.9c0 169.5 137.4 306.9 306.9 306.9 112.4 0 210.7-60.5 264.1-150.6V150.6c-30.9-52-76.7-94.2-131.5-120.5z"></path></svg>