<svg xmlns="http://www.w3.org/2000/svg" width="611.5" viewBox="0 0 611.5 537.7" height="537.7" xml:space="preserve"><path d="M398.4 537.7H151.8l-49.3-91.2h295.9c67.2 0 121.9-54.7 121.9-121.9s-54.7-121.9-121.9-121.9H213.2c-5.6 0-10.2 4.6-10.2 10.2s4.6 10.2 10.2 10.2h185.6c55.9 0 101.4 45.5 101.4 101.4s-45.5 101.4-101.4 101.4H214.1c-57.2 0-110.9-22.1-151.3-62.2C22.3 323.3 0 269.6 0 212.4c0-57.2 22.3-110.7 62.9-150.8C103.2 21.9 156.9 0 214.1 0h246.2l49.3 91.2H214.1c-33 0-64 12.6-87.1 35.4-23.1 22.8-35.8 53.3-35.8 85.9 0 32.7 12.7 63.4 35.9 86.4 23.2 23 54.1 35.7 87 35.7h184.7c5.6 0 10.2-4.6 10.2-10.2s-4.6-10.2-10.2-10.2H213.2c-55.9 0-101.4-45.5-101.4-101.4 0-55.9 45.5-101.4 101.4-101.4h185.3c56.9 0 110.4 22.2 150.7 62.4 40.2 40.2 62.4 93.8 62.4 150.7S589.4 435 549.1 475.3c-40.2 40.2-93.8 62.4-150.7 62.4z"></path></svg>