<svg xmlns="http://www.w3.org/2000/svg" width="611.6" viewBox="0 0 611.6 614.6" height="614.6" xml:space="preserve" style="enable-background:new 0 0 611.6 614.6"><path d="M206.7 0H405v19.8H206.7zM206.7 29.7H405v19.8H206.7zM206.7 59.5H405v19.8H206.7zM206.7 89.2H405V109H206.7zM206.7 118.9H405v19.8H206.7zM206.7 148.7H405v19.8H206.7zM206.7 178.4H405v19.8H206.7zM0 208.2h206.7V228H0zM0 267.6h206.7v19.8H0zM0 327.1h206.7v19.8H0zM0 386.6h206.7v19.8H0zM404.9 208.2h206.7V228H404.9zM404.9 267.6h206.7v19.8H404.9zM404.9 327.1h206.7v19.8H404.9zM404.9 386.6h206.7v19.8H404.9zM206.7 535.2H405V555H206.7zM206.7 565H405v19.8H206.7zM206.7 594.7H405v19.8H206.7zM0 237.9h611.6v19.8H0zM0 297.4h611.6v19.8H0zM0 356.8h611.6v19.8H0zM206.7 416.3H405v19.8H206.7zM206.7 446H405v19.8H206.7zM206.7 475.8H405v19.8H206.7zM206.7 505.5H405v19.8H206.7z"></path></svg>