<svg data-name="Layer 1" xmlns="http://www.w3.org/2000/svg" viewBox="0 0 620.66 620.66"><path d="m620.66 310.33-119.7 78.69-105.84-78.69 105.84-78.69 119.7 78.69c0-46.55-31.23-85.74-73.86-97.95 21.51-38.78 15.88-88.57-17.04-121.49l-29 140.28-130.49 19.2 19.2-130.49 140.28-29c-32.92-32.92-82.71-38.54-121.49-17.04C396.06 31.23 356.88 0 310.33 0l78.69 119.7-78.69 105.84-78.69-105.84L310.33 0c-46.55 0-85.74 31.23-97.95 73.86C173.6 52.35 123.81 57.98 90.89 90.9l140.28 29 19.2 130.49-130.49-19.2-29-140.28c-32.92 32.92-38.54 82.71-17.04 121.49C31.23 224.59 0 263.78 0 310.33l119.7-78.69 105.84 78.69-105.84 78.69L0 310.33c0 46.55 31.23 85.74 73.86 97.95-21.51 38.78-15.88 88.57 17.04 121.49l29-140.28 130.49-19.2-19.2 130.49-140.28 29c32.92 32.92 82.71 38.54 121.49 17.04 12.21 42.63 51.4 73.86 97.95 73.86l-78.69-119.7 78.69-105.84 78.69 105.84-78.69 119.7c46.55 0 85.74-31.23 97.95-73.86 38.78 21.51 88.57 15.88 121.49-17.04l-140.28-29-19.2-130.49 130.49 19.2 29 140.28c32.92-32.92 38.54-82.71 17.04-121.49 42.63-12.21 73.86-51.4 73.86-97.95Z"></path></svg>