<svg xmlns="http://www.w3.org/2000/svg" width="602" viewBox="0 0 602 594.1" height="594.1" xml:space="preserve"><path d="M303.8 406h-5.7c-27.5 0-53.1 10.9-72.1 30.6-.1.1-.1.2-.1.3 0 .1.1.2.2.3 8.4 4.2 16.6 9.2 24.2 14.7.1.1.3.1.4 0 13.1-11.4 29.9-17.7 47.4-17.7h5.8c17.4 0 34.2 6.3 47.4 17.7.1.1.1.1.2.1s.1 0 .2-.1c7.6-5.6 15.8-10.5 24.2-14.7.1 0 .2-.1.2-.3 0-.1 0-.2-.1-.3-19.1-19.7-44.7-30.6-72.2-30.6z"></path><path d="M302.9 357.5h-4.6c-26.5 0-52.6 7.1-75.4 20.4-18.2 10.7-34.3 25.5-46.6 42.8-.1.1-.1.2 0 .3 0 .1.1.2.3.2 9.7 1.5 19.3 3.9 28.6 7 .1 0 .3 0 .4-.1 9.4-11.1 20.4-20.3 32.9-27.4 18.2-10.4 38.9-15.8 59.9-15.8H304c21 0 41.7 5.5 59.9 15.8 12.5 7.1 23.6 16.3 32.9 27.4.1.1.2.1.3.1h.1c9.3-3.2 18.9-5.5 28.6-7 .1 0 .2-.1.3-.2v-.3c-12.3-17.3-28.4-32.1-46.6-42.8-22.8-13.4-48.9-20.4-75.4-20.4h-1.2zM451.9 538.8c-24.4 0-45.4 17.3-50.1 41.2 0 .1 0 .3.1.4 13.1 9.1 27.7 13.7 42.7 13.7 3.1 0 6.3-.2 9.5-.6 16.8-2.2 32.8-10.2 45-22.5.1-.1.1-.2.1-.4-7.9-19.3-26.5-31.8-47.3-31.8z"></path><path d="M520.8 517.1c-18.7-17.8-43.2-27.5-69-27.5-39.8 0-75.8 23.6-91.9 60.1-.1.2 0 .3.1.4l22.9 16.6c.1 0 .1.1.2.1h.1c.1 0 .2-.1.2-.2 10-29.2 37.5-48.8 68.3-48.8 24.8 0 47.5 12.5 60.9 33.5.1.1.2.2.3.2.1 0 .2-.1.3-.2 5.2-10.6 7.8-22 7.6-33.8.1-.2.1-.3 0-.4zM479.7 382.8c.1-.1.1-.2.1-.3 0-.1-.1-.2-.1-.3-8.8-6.5-19.3-9.9-30.3-9.9-10.5 0-20.7 3.2-29.3 9.3-.1.1-.1.2-.1.3 0 .1 0 .2.1.3 11.7 10.9 21.7 23.3 30 36.9.1.1.2.2.3.2h.7c.2 0 .3-.1.3-.3 0-.2 0-.3-.2-.4l-.2-.1c7.9-13 17.5-25 28.7-35.7zM396.2 261.1c.1.1.2.1.3.1h.1c9.5-3.1 19.3-5.3 29.1-6.7.1 0 .2-.1.3-.2v-.3c-12.5-18.2-29.1-33.7-48.1-44.9-22.8-13.4-48.9-20.4-75.4-20.4H299.7c-26.5 0-52.6 7.1-75.4 20.4-19 11.1-35.6 26.6-48.1 44.9-.1.1-.1.2 0 .3 0 .1.2.2.3.2 9.9 1.4 19.7 3.7 29.1 6.7.1 0 .3 0 .4-.1 9.5-11.6 20.9-21.2 33.8-28.5 18.2-10.4 38.9-15.8 59.9-15.8h2.8c21 0 41.7 5.5 59.9 15.8 12.9 7.4 24.2 17 33.8 28.5z"></path><path d="M597.7 219.9c-5-14.6-14-27.1-26-36.1-12.9-9.8-28.7-14.9-45.7-14.9H411.2L373.4 52.4C368 35.9 358 22.3 344.3 13c-12.6-8.5-27.5-13-43.1-13h-.5c-15.6 0-30.5 4.5-43.1 13-13.6 9.3-23.7 22.9-29 39.4l-37.8 116.5H76c-17 0-32.8 5.2-45.7 14.9-12 9-21 21.5-26 36.1-5 14.6-5.7 30-1.9 44.5 4.1 15.6 13.3 29.5 26.7 39.9l.6.5c.1.1.3.1.5 0 10.8-11.2 23-20.8 36.3-28.6 26-15.3 55.8-23.3 86.1-23.3h.2c.2 0 .3-.1.3-.3 0-.2 0-.3-.2-.4l-.6-.3c14.8-25.1 35.9-46.2 61.1-60.9 26-15.3 55.8-23.3 86.1-23.3h3c30.3 0 60.1 8.1 86.1 23.3 25.2 14.8 46.3 35.8 61.1 60.9l-.6.3c-.1.1-.2.2-.2.4s.2.3.3.3h.2c30.3 0 60.1 8.1 86.1 23.3 13.3 7.8 25.5 17.4 36.3 28.6.1.1.2.1.3.1.1 0 .2 0 .2-.1l.6-.5c13.3-10.5 22.6-24.3 26.7-39.9 3.8-14.5 3.1-29.9-1.9-44.5z"></path><path d="M524.8 294.4C502 281 475.9 274 449.4 274c-26.3 0-52.1 6.9-74.8 20.1-18.6 10.8-35 25.8-47.5 43.5-.1.1-.1.2 0 .3 0 .1.2.2.3.2 10 1.4 19.8 3.7 29.3 6.8h.1c.1 0 .2 0 .3-.1 23.1-27.1 56.8-42.6 92.3-42.6 21 0 41.7 5.5 59.9 15.8 8.5 4.8 16.4 10.7 23.6 17.5.1.1.3.1.5 0l21.7-17.1c.1-.1.1-.2.1-.3 0-.1 0-.2-.1-.3-9.1-9.1-19.3-17-30.3-23.4zM386.7 487.5c19.5-12.5 42-19 65.2-19 21.6 0 42.9 5.8 61.5 16.8.1.1.3.1.4 0 .1-.1.2-.2.1-.4l-11.6-35.6c0-.1-.1-.2-.2-.2-16.1-5.8-33-8.7-50.2-8.7-55.6 0-106.3 30.6-132.3 79.9-.1.2 0 .3.1.4l22.5 16.3c.1 0 .1.1.2.1h.1c.1 0 .2-.1.2-.2 9.8-20.2 25-37.3 44-49.4zM475.3 420.9c6.1.8 12.3 2.1 18.4 3.6h.1c.1 0 .2 0 .3-.1.1-.1.1-.2.1-.3l-6.1-18.8c0-.1-.1-.2-.3-.2-.1 0-.2 0-.3.1-4.5 4.8-8.6 10-12.4 15.3-.1.1-.1.2 0 .3 0 0 .1.1.2.1zM350.6 284.3c.1 0 .1 0 .2-.1 4.3-3.1 8.8-5.9 13.2-8.5 3.6-2.1 7.3-4.1 11.2-5.9.1 0 .2-.1.2-.3 0-.1 0-.2-.1-.3-19.1-20.2-44.9-31.4-72.9-31.4h-2.8c-27.9 0-53.8 11.1-72.9 31.4-.1.1-.1.2-.1.3 0 .1.1.2.2.3 3.8 1.9 7.6 3.8 11.2 5.9 4.5 2.6 8.9 5.4 13.2 8.5.1.1.3.1.4 0 13.2-11.8 30.3-18.2 48-18.2h2.9c17.7 0 34.7 6.5 48 18.2 0 .1 0 .1.1.1z"></path><path d="M516.1 348.8c0-.1 0-.2-.1-.3-18.3-16.3-42-25.3-66.6-25.3-27 0-52.3 10.6-71.3 29.8-.1.1-.1.2-.1.3 0 .1.1.2.2.3 4 1.9 7.9 4 11.7 6.3 4.3 2.5 8.6 5.3 12.8 8.3.1 0 .1.1.2.1s.2 0 .2-.1c13-10.8 29.4-16.7 46.2-16.7 15.9 0 31.6 5.4 44.2 15.1.1.1.3.1.4 0l22-17.3c.2-.3.2-.4.2-.5zM333.7 298c0-.1-.1-.2-.1-.3-8.9-6.8-19.9-10.6-31.1-10.6h-2.8c-11.2 0-22.2 3.8-31.1 10.6-.1.1-.1.2-.1.3 0 .1 0 .2.1.3 14.2 13.2 24.6 25.4 31.8 37.3.2.3.3.5.4 1 0 .1.2.2.3.2.1 0 .3-.1.3-.2.2-.4.2-.6.4-1 7.2-12 17.6-24.2 31.9-37.3v-.3zM335.6 466.5c.1-.1.1-.2.1-.3 0-.1-.1-.2-.1-.3-9.5-7.3-21.2-11.3-33.2-11.3H299.6c-11.9 0-23.7 4-33.2 11.3-.1.1-.1.2-.1.3 0 .1 0 .2.1.3 15 13.9 26.1 26.9 33.8 39.7.2.4.4.7.4 1 0 .1.2.2.3.3.1 0 .3-.1.3-.3.1-.3.2-.7.4-1 7.9-12.9 19-25.9 34-39.7zM150.1 538.8c-20.8 0-39.4 12.5-47.3 31.8-.1.1 0 .3.1.4 12.2 12.3 28.2 20.3 45 22.5 3.2.4 6.3.6 9.5.6 15 0 29.6-4.7 42.7-13.7.1-.1.2-.2.1-.4-4.6-23.9-25.7-41.2-50.1-41.2z"></path><path d="M150.1 489.6c-25.7 0-50.2 9.8-69 27.5-.1.1-.1.2-.1.2-.2 11.8 2.3 23.2 7.6 33.8.1.1.2.2.3.2.1 0 .2-.1.3-.2 13.4-21 36.1-33.5 60.9-33.5 30.9 0 58.3 19.6 68.3 48.8 0 .1.1.2.2.2h.1c.1 0 .1 0 .2-.1l22.9-16.6c.1-.1.2-.3.1-.4-15.9-36.3-52-59.9-91.8-59.9zM150.7 419c0 .2.2.3.3.3h.7c.1 0 .2-.1.3-.2 8.2-13.6 18.3-26 30-36.9.1-.1.1-.2.1-.3 0-.1-.1-.2-.1-.3-8.6-6.1-18.8-9.3-29.3-9.3-11 0-21.4 3.4-30.3 9.9-.1.1-.1.2-.1.3 0 .1 0 .2.1.3 11.2 10.6 20.8 22.6 28.7 35.7l-.2.1c-.2.1-.3.3-.2.4zM152.6 302.1c35.5 0 69.2 15.5 92.3 42.6.1.1.2.1.3.1h.1c9.5-3.1 19.4-5.4 29.3-6.8.1 0 .2-.1.3-.2v-.3c-12.5-17.7-28.9-32.7-47.5-43.5-22.6-13.1-48.5-20.1-74.8-20.1-26.5 0-52.6 7.1-75.4 20.4-11 6.4-21.2 14.3-30.3 23.4-.1.1-.1.2-.1.3 0 .1.1.2.1.3l21.7 17.1c.1.1.3.1.5 0 7.2-6.8 15.1-12.7 23.6-17.5 18.2-10.3 38.9-15.8 59.9-15.8z"></path><path d="M150.1 440.4c-17.2 0-34.1 2.9-50.2 8.7-.1 0-.2.1-.2.2l-11.6 35.6c0 .1 0 .3.1.4.1.1.3.1.4 0 18.6-11 39.9-16.8 61.5-16.8 23.2 0 45.7 6.6 65.2 19 19 12.1 34.2 29.2 44 49.4 0 .1.1.2.2.2h.1c.1 0 .1 0 .2-.1l22.5-16.3c.1-.1.2-.3.1-.4-26-49.3-76.7-79.9-132.3-79.9zM108.2 424.5s.1 0 0 0c6.2-1.5 12.4-2.8 18.5-3.6.1 0 .2-.1.3-.2v-.3c-3.7-5.3-7.9-10.4-12.4-15.3-.1-.1-.2-.1-.3-.1-.1 0-.2.1-.3.2l-6.1 18.8c0 .1 0 .3.1.3 0 .1.1.2.2.2zM108.4 366.4c12.6-9.7 28.3-15.1 44.2-15.1 16.9 0 33.3 5.9 46.2 16.7.1.1.1.1.2.1s.1 0 .2-.1c4.2-3 8.5-5.8 12.8-8.3 3.8-2.2 7.7-4.3 11.7-6.3.1 0 .2-.1.2-.3s0-.2-.1-.3c-19-19.2-44.3-29.8-71.3-29.8-24.7 0-48.4 9-66.6 25.3-.1.1-.1.2-.1.3 0 .1.1.2.1.3l22 17.3c.2.3.4.3.5.2z"></path></svg>