<svg data-name="Layer 1" xmlns="http://www.w3.org/2000/svg" viewBox="0 0 600.07 218.85"><path d="M0 0h23.53v218.85H0zM576.53 0h23.53v218.85h-23.53zM67.43 218.34h31.41l42.35-57.94v58.45h23.53V80.01L67.43 218.34zM529.79 218.34h-31.41l-42.36-57.94v58.45h-23.53V80.01l97.3 138.33zM164.72.51h-31.41L90.96 58.45V0H67.43v138.84L164.72.51zM307.95.51h-31.41l-42.36 57.94V0h-23.53v138.84L307.95.51zM432.49.51h31.41l42.36 57.94V0h23.53v138.84L432.49.51zM360.05 0l-149.4 218.34 32.74.51 123.39-179.3v179.3h23.53V0h-30.26z"></path></svg>