<svg data-name="Layer 1" xmlns="http://www.w3.org/2000/svg" viewBox="0 0 626.39 626.34"><path d="m626.35 351.92.04-77.22-169.11-.08 146.48-84.51-38.59-66.89-146.4 84.46c18.23 18.25 31.6 41.26 38.46 66.93v.03c3.29 12.31 5.21 25.18 5.21 38.52 0 12.43-1.72 24.42-4.6 35.96L354.45 170.05c24.58 7.07 46.69 19.99 64.29 37.6l84.52-146.36-66.87-38.62-83.53 144.63-1.04-1.81V0h-77.23v165.5l-.96 1.67-83.35-144.61-66.92 38.56 84.4 146.45c17.58-17.55 39.65-30.44 64.18-37.5L168.56 349.14c-2.88-11.54-4.6-23.53-4.6-35.96 0-13.39 1.93-26.3 5.24-38.65v-.02c6.88-25.67 20.27-48.68 38.53-66.91L61.41 123l-38.66 66.85 146.42 84.65-169.13-.08L0 351.64l167.06.08-1.03 1.78-143.39 82.73 38.59 66.89 143.29-82.67h2.13l-83.51 144.6 66.87 38.62 84.56-146.43v169.1h77.23V457.48l84.32 146.3 66.9-38.56-83.44-144.77h2.18l143.21 82.89 38.68-66.84-143.25-82.91-1.01-1.75 166.95.08Zm-313.16-98.87 52.07 90.18H261.13l52.06-90.18Zm38.62 204.13c-.05.01-.1.03-.15.04-12.29 3.28-25.14 5.19-38.46 5.19s-26.26-1.92-38.59-5.22h-.03c-24.78-6.63-46.98-19.44-64.9-36.73h207.05c-17.93 17.29-40.13 30.1-64.91 36.73Z"></path></svg>