<svg data-name="Layer 1" xmlns="http://www.w3.org/2000/svg" viewBox="0 0 596.64 586.78"><path d="M490.75 0H105.89C47.5 0 0 47.5 0 105.89c0 0 .03 376.42.04 376.96.3 23.22 8.29 45.46 22.45 63.53 17.11 22.11 42.35 36.12 69.75 39.88 11.43 1.57 23.06-.38 33.38-5.52 40.47-20.16 161.49-80.46 172.69-86.04 11.78 5.87 132.28 65.9 172.69 86.04 10.32 5.14 21.95 7.09 33.38 5.52 27.41-3.76 52.64-17.76 69.75-39.88 14.16-18.07 22.15-40.3 22.45-63.53l.04-376.96C596.62 47.5 549.12 0 490.73 0Zm26.5 571.93L298.33 462.86 79.41 571.93a94.497 94.497 0 0 1-12.66-4.72l231.59-115.38 231.59 115.38c-4.08 1.86-8.3 3.45-12.66 4.72Zm39.53-23.18L298.33 419.98 39.86 548.75c-2.45-2.4-4.78-4.91-6.96-7.56l265.42-132.23 265.41 132.23a93.998 93.998 0 0 1-6.96 7.56Zm21.57-32.13L298.33 377.11 18.3 516.62c-1.24-3.06-2.32-6.2-3.24-9.42l283.26-141.13L581.58 507.2c-.92 3.21-2 6.35-3.24 9.42Zm6.9-39.44L298.33 334.23 11.4 477.19v-11.03l286.92-142.95 286.92 142.95v11.03ZM305.93 295.15V153.92c23.06-8.22 19.64-41.74-4.75-45.03V59.42h-5.7v49.48c-24.41 3.29-27.8 36.82-4.75 45.03v141.23L11.4 434.31V105.89c0-52.1 42.39-94.49 94.49-94.49h384.86c52.1 0 94.49 42.39 94.49 94.49v328.42L305.92 295.15Z"></path></svg>