<svg xmlns="http://www.w3.org/2000/svg" width="629.9" viewBox="0 0 629.9 629.9" height="629.9" xml:space="preserve" style="enable-background:new 0 0 629.9 629.9"><path d="M472.4 314.9c87 0 157.5-70.5 157.5-157.5C629.9 70.5 559.4 0 472.4 0S314.9 70.5 314.9 157.5C314.9 70.5 244.4 0 157.5 0S0 70.5 0 157.5 70.5 315 157.5 315C70.5 314.9 0 385.4 0 472.4s70.5 157.5 157.5 157.5S315 559.4 315 472.4c0 87 70.5 157.5 157.5 157.5S630 559.4 630 472.4c-.1-87-70.6-157.5-157.6-157.5zm-3.8-153.6v153.6c-83.9-2-151.6-69.7-153.6-153.6h153.6zm-307.3 0h153.6c-2 83.9-69.7 151.6-153.6 153.6V161.3zm0 307.3V315c83.9 2 151.6 69.7 153.6 153.6H161.3zm307.3 0H315c2-83.9 69.7-151.6 153.6-153.6v153.6z"></path></svg>