<svg xmlns="http://www.w3.org/2000/svg" width="621" viewBox="0 0 621 488.3" height="488.3" style="enable-background:new 0 0 621 488.3" xml:space="preserve"><path d="M331 357.7c24.9-4.3 47.9-17 65.6-36.4 19.7-21.5 30.6-48.9 30.7-77.2-.1-28.2-11-55.6-30.7-77.2-17.7-19.4-40.7-32.1-65.6-36.4h115.2c27 31.7 42 72 42.3 113.6-.3 41.6-15.3 81.9-42.3 113.6H331zM120.4 488.3C43.9 428.8 0 339.8 0 244.1 0 148.5 43.9 59.5 120.4 0H274c-56.6 8.1-108.9 36.2-148 79.5-41.2 45.7-64 104.1-64 164.6.1 33.5 7.5 67.7 21.3 99 13.9 31.3 34.3 59.7 59.1 82.3 36.3 33.6 82.8 55.7 131.8 62.8H120.4z"></path><path d="M174.4 357.7c-27-31.7-42-72-42.3-113.6.3-41.6 15.3-81.9 42.3-113.6h115.2c-24.9 4.3-47.9 17-65.6 36.4-19.7 21.5-30.6 48.9-30.7 77.2.1 28.2 11 55.6 30.7 77.2 17.7 19.4 40.7 32.1 65.6 36.4H174.4zM346.7 488.3c56.6-8.1 108.9-36.2 148-79.5 41.2-45.7 64-104.1 64-164.6-.1-60.4-22.8-118.9-64-164.6-39.1-43.4-91.3-71.5-148-79.6h153.6c62.3 47.9 104.9 119.7 116.9 196.9 8.9 53.4 2.4 109.3-18.7 161.6-21 51.9-54.9 96.8-98.1 129.8H346.7z"></path><path d="M339.2 423c40.6-6.4 78.1-26.7 106.4-57.8 30.5-33.5 47.4-76.5 47.5-121-.9-48.1-18.4-91.2-50.5-124.5-27.9-28.9-64.7-48-104.5-54.3h136.2c24.6 22.2 44.9 50.2 58.6 81 13.8 30.9 21.2 64.7 21.3 97.9-.1 33.1-7.4 67-21.3 97.9-13.8 30.8-34.1 58.8-58.6 81H339.2zM146.3 423c-24.6-22.2-44.9-50.2-58.6-81-13.8-30.9-21.2-64.7-21.3-97.9.2-63.6 26.3-125.9 71.4-170.8 2.6-2.6 5.4-5.2 8.5-8.1H281c-37.3 6-71.7 23.6-100 51.3-33.8 33.5-53.3 80-53.5 127.5.2 44.5 17 87.5 47.5 121 28.3 31.1 65.8 51.4 106.4 57.8H146.3z"></path><path d="M262.7 244.1c0-23.2 16.6-42.6 38.6-46.8h-92.5c-7 14.7-10.7 30.5-11 46.8.2 16.3 3.9 32.1 11 46.8h92.5c-22-4.2-38.6-23.5-38.6-46.8zM411.9 197.3h-92.5c22 4.2 38.6 23.6 38.6 46.8 0 23.2-16.6 42.6-38.7 46.8h92.5c7-14.7 10.7-30.5 11-46.8-.2-16.3-3.9-32-10.9-46.8z"></path></svg>