<svg xmlns="http://www.w3.org/2000/svg" width="613.75" viewBox="0 0 613.75 531.54" height="531.54" xml:space="preserve" style="enable-background:new 0 0 613.75 531.54"><path d="M97.28 0h112.33v112.33H97.28zM404.15 0h112.33v112.33H404.15zM516.48 112.33l-56.17 97.27-56.16-97.27-97.27 56.16-97.28-56.16-56.16 97.27-56.16-97.27L0 168.49l56.17 97.28 97.27-56.17 97.27 56.17 56.17-97.27 56.16 97.27 97.27-56.17 97.28 56.17 56.16-97.28zM250.72 265.77h112.33V378.1H250.72z"></path><path d="m306.88 475.37-56.17-97.28-97.27 56.17 56.16 97.28 97.28-56.17 97.27 56.17 56.17-97.28-97.28-56.17z"></path></svg>