<svg data-name="Layer 1" xmlns="http://www.w3.org/2000/svg" viewBox="0 0 466.4 604"><path d="M466.4 134.64 233.2 0 0 134.64v23.68l12.36 7.14L0 172.6v23.68l12.36 7.14L0 210.56v23.68l12.36 7.14L0 248.52v23.68l12.36 7.14L0 286.48v23.68l12.36 7.14L0 324.44v23.68l12.36 7.13L0 362.38v23.68l147.65 85.25v132.7h9.28V455.23L18.56 375.34v-2.24l12.36-7.13 130.22 75.18v162.87h9.28V425.07L49.49 355.25l14.3-8.26 110.83 63.99v193.03h9.28V394.89L82.36 336.26l14.3-8.26 91.44 52.79V604h9.28V364.71l-82.15-47.43 14.3-8.26 72.05 41.6V604h9.28V334.54l-62.77-36.24 14.3-8.26 52.67 30.41V604h9.28V304.37l-43.38-25.05 14.3-8.25 33.28 19.21V604h9.28V290.29l33.28-19.21 14.3 8.25-43.38 25.04V604h9.28V320.46l52.67-30.41 14.3 8.26-62.76 36.23V604h9.28V350.62l72.05-41.6 14.3 8.26-82.15 47.43V604h9.28V380.79l91.44-52.8 14.31 8.26-101.54 58.63V604h9.28V410.97l110.83-63.99 14.3 8.26-120.93 69.82v178.95h9.28V441.14l130.22-75.18 12.36 7.13v2.24l-138.37 79.89V604h9.28V471.3l147.66-85.25v-23.68l-12.36-7.13 12.36-7.13v-23.68l-12.36-7.14 12.36-7.14v-23.68l-12.36-7.14 12.36-7.14v-23.68l-12.36-7.14 12.36-7.14v-23.68l-12.36-7.14 12.36-7.14v-23.68l-12.36-7.14 12.36-7.14v-23.68ZM18.56 221.28l12.36-7.14 14.3 8.25-14.3 8.25-12.36-7.14v-2.24Zm12.36 123.24-12.36-7.13v-2.24l12.36-7.14 14.3 8.25-14.3 8.26Zm0-37.95-12.36-7.14v-2.24l12.36-7.14 14.31 8.26-14.31 8.26Zm0-37.96-12.36-7.14v-2.24l12.36-7.14 14.31 8.26-14.31 8.26Zm0-75.91-12.36-7.14v-2.24l12.36-7.14 14.31 8.26-14.3 8.26Zm32.87 132.84-14.3-8.26 14.3-8.26 14.3 8.25-14.3 8.26Zm0-37.96-14.3-8.26 14.3-8.26 14.3 8.26-14.3 8.26Zm0-54.47 14.3 8.26-14.3 8.25-14.3-8.26 14.3-8.25Zm-14.3-29.7 14.3-8.26 14.3 8.25-14.3 8.26-14.3-8.25Zm47.17 10.72 14.3 8.26-14.3 8.26-14.3-8.26 14.3-8.26Zm-14.3-29.7L233.2 97.36l150.83 87.09-14.3 8.25-136.53-78.83L96.66 192.7l-14.3-8.25Zm14.3 122.12-14.3-8.26 14.3-8.26 14.3 8.26-14.3 8.26Zm0-37.96-14.3-8.26 14.3-8.25 14.3 8.26-14.3 8.25Zm32.87 18.98-14.3-8.26 14.3-8.26 14.3 8.26-14.3 8.26Zm-14.3-46.21 14.3-8.26 14.3 8.26-14.3 8.26-14.3-8.26Zm47.17 27.23-14.3-8.26 14.3-8.25 14.3 8.26-14.3 8.25Zm70.79 2.92-19.35-11.17 19.35-11.17 19.35 11.17-19.35 11.17Zm37.92-21.89-37.92-21.89-37.92 21.89-14.3-8.26 52.23-30.15 52.23 30.15-14.3 8.26Zm32.87 18.98-14.3-8.25 14.3-8.26 14.3 8.25-14.3 8.26Zm0-37.95-70.79-40.87-70.79 40.87-14.3-8.26 85.1-49.13 85.1 49.13-14.3 8.26Zm32.87 56.93-14.3-8.26 14.3-8.26 14.3 8.26-14.3 8.26Zm0-37.95-14.3-8.26 14.3-8.26 14.3 8.26-14.3 8.26Zm0-37.96-103.66-59.85-103.66 59.85-14.3-8.26L233.2 135.3l117.97 68.11-14.3 8.26Zm32.87 94.89-14.3-8.26 14.3-8.26 14.3 8.26-14.3 8.26Zm0-37.96-14.3-8.25 14.3-8.26 14.3 8.25-14.3 8.26Zm0-37.95-14.3-8.26 14.3-8.26 14.3 8.26-14.31 8.26Zm32.87 94.89-14.3-8.26 14.3-8.25 14.3 8.26-14.3 8.26Zm0-37.96-14.3-8.26 14.3-8.26 14.3 8.26-14.3 8.26Zm0-37.96-14.3-8.25 14.3-8.26 14.3 8.25-14.3 8.26Zm-14.3-46.21 14.3-8.25 14.3 8.26-14.3 8.25-14.3-8.26Zm14.3-29.7L233.2 75.91 63.8 173.72l-14.3-8.26L233.2 59.4l183.71 106.06-14.3 8.26Zm45.24 163.66-12.36 7.13-14.31-8.26 14.3-8.25 12.36 7.14v2.24Zm0-37.96-12.36 7.14-14.3-8.26 14.3-8.26 12.36 7.14v2.24Zm0-37.96-12.36 7.14-14.3-8.26 14.3-8.26 12.36 7.14v2.24Zm0-37.96-12.36 7.14-14.3-8.26 14.3-8.25 12.36 7.14v2.24Zm0-37.95-12.36 7.14-14.3-8.26 14.3-8.26 12.36 7.14v2.24Zm0-37.96-12.36 7.14L233.2 37.96 30.93 154.74l-12.36-7.14v-2.24L233.2 21.44l214.64 123.92v2.24Z"></path></svg>