<svg xmlns="http://www.w3.org/2000/svg" width="642" viewBox="0 0 642 642" height="642" style="overflow:visible;enable-background:new 0 0 642 642" xml:space="preserve"><path d="M640.4 321c0 176.4-143 319.4-319.4 319.4S1.6 497.4 1.6 321 144.6 1.6 321 1.6s319.4 143 319.4 319.4zM321 122.4c-109.7 0-198.6 88.9-198.6 198.6S211.3 519.6 321 519.6 519.6 430.7 519.6 321 430.7 122.4 321 122.4z"></path><path d="M642 642H0V0h642v642zm-1.6-1.6V1.6H1.6v638.8h638.8z"></path><path d="m464.8 373.3-142.9-52.5c-.7-.3-1.4.4-1.1 1.1l52.6 142.9L550.5 642H642v-91.5L464.8 373.3zm-122.6-2.5 28.6-28.6 85.2 31.3c-16 .3-26 16.6-21.2 30.2.3.7-.4 1.3-1.1 1.1-17.8-6.1-35 11.2-29 29 .2.7-.4 1.3-1.1 1.1-13.6-4.8-29.8 5.1-30.2 21.2l-31.2-85.3z"></path></svg>