<svg data-name="Layer 1" xmlns="http://www.w3.org/2000/svg" viewBox="0 0 618.77 617.17"><path d="M309.38 0C138.79 0 0 138.79 0 309.38c16.99 410.44 601.83 410.32 618.77 0C618.77 138.79 479.98 0 309.39 0ZM586.6 313.07c-10.84 2.63-21.72 5.1-32.63 7.44-158.95 34.13-330.24 34.13-489.2 0-15.87-3.4-31.68-7.09-47.4-11.12 189.34-48.96 394.65-48.96 583.99 0-4.92 1.26-9.84 2.48-14.77 3.68ZM309.38 64.52c108.4 0 200.56 70.82 232.69 168.62-151.69-29.25-313.69-29.24-465.38.02 32.12-97.81 124.28-168.63 232.69-168.63Zm0 489.72c-108.42 0-200.58-70.83-232.7-168.64 151.7 29.27 313.69 29.27 465.39 0-32.12 97.81-124.28 168.64-232.69 168.64Z"></path></svg>