<svg id="Layer_1" data-name="Layer 1" xmlns="http://www.w3.org/2000/svg" viewBox="0 0 595.47 595.47">   <polygon points="297.74 382.8 255.2 340.27 212.67 297.74 170.13 340.27 85.07 255.2 170.13 170.13 170.13 85.07 255.2 0 170.13 0 0 170.13 0 255.2 170.13 425.34 255.2 425.34 297.74 382.8"></polygon>   <polygon points="382.8 297.74 340.27 340.27 297.74 382.8 340.27 425.34 255.2 510.4 170.13 425.34 85.07 425.34 0 340.27 0 425.34 170.13 595.47 255.2 595.47 425.34 425.34 425.34 340.27 382.8 297.74"></polygon>   <polygon points="297.74 212.67 340.27 255.2 382.8 297.74 425.34 255.2 510.4 340.27 425.34 425.34 425.34 510.4 340.27 595.47 425.34 595.47 595.47 425.34 595.47 340.27 425.34 170.13 340.27 170.13 297.74 212.67"></polygon>   <polygon points="595.47 255.2 595.47 170.13 425.34 0 340.27 0 170.13 170.13 170.13 255.2 212.67 297.74 255.2 255.2 297.74 212.67 255.2 170.13 340.27 85.07 425.34 170.13 510.4 170.13 595.47 255.2"></polygon> </svg>