<svg data-name="Layer 1" xmlns="http://www.w3.org/2000/svg" viewBox="0 0 364.08 603.54"><path d="M364.08 135.99c0-.34-.33-.57-.65-.47-109.72 36.94-174.36 91.4-174.36 196.22v271.79c96.66 0 175.02-78.36 175.02-175.02V135.99ZM0 135.99c0-.34.33-.57.65-.47 109.72 36.94 174.36 91.4 174.36 196.22v271.79C78.35 603.53-.01 525.17-.01 428.51V135.99Z"></path><path d="M248.84 0c-28.9 0-54.48 15.46-66.41 32.83-.22.32-.57.32-.79 0C169.72 15.46 144.14 0 115.24 0 75.76 0 36.42 32.15 36.42 73.11c0 99.67 96.01 60.12 145.15 193.96.26.7.68.7.93 0 49.14-133.83 145.15-94.29 145.15-193.96C327.66 32.15 288.32 0 248.84 0Z"></path></svg>