<svg xmlns="http://www.w3.org/2000/svg" width="619" viewBox="0 0 619 619" height="619"><path d="M309.5 0C138.9 0 0 138.9 0 309.5 0 480.2 138.9 619 309.5 619 480.2 619 619 480.2 619 309.5 619 138.9 480.2 0 309.5 0zm293.6 301.6H317.4V166.5c70.2-1.8 137.6-27.3 191.3-72.5 56.3 52 92.2 125.7 94.4 207.6zM309.5 27.7c13 0 23.6 10.6 23.6 23.6 0 13-10.6 23.5-23.6 23.5-13 0-23.5-10.6-23.5-23.5 0-13 10.5-23.6 23.5-23.6zm7.9 62.2c17.9-3.7 31.5-19.6 31.5-38.6 0-15.1-8.5-28.2-20.9-34.8 63.9 4 122.3 28.5 168.7 66.9-50.5 41.8-113.5 65.5-179.2 67.3V89.9zm-47.3-38.7c0 19 13.5 34.9 31.5 38.6v60.8c-65.7-1.8-128.7-25.4-179.2-67.3 46.4-38.5 104.8-63 168.7-66.9-12.5 6.7-21 19.8-21 34.8zM15.9 309.5c0-85.1 36.4-161.9 94.4-215.5 53.7 45.2 121.1 70.7 191.3 72.5v436.6C143.3 598.9 15.9 468.8 15.9 309.5zm301.5 293.6V317.5H603c-4.1 155.6-129.9 281.4-285.6 285.6z"></path></svg>