<svg data-name="Layer 1" xmlns="http://www.w3.org/2000/svg" viewBox="0 0 577.9 465.74"><path d="M289 465.74c38.94 0 76.08-4.95 109.98-14.6h-220.9c34.61 9.77 72.23 14.6 110.92 14.6ZM253.24 402.72h243.71c6.77-5.32 13.19-10.95 19.23-16.91H270.75c-5.53 6.07-11.37 11.73-17.51 16.91ZM319.38 166.39h249.15c-4.51-14.91-10.55-28.88-17.98-41.89h-248.9c7.18 13.22 13.15 27.31 17.73 41.89ZM323.53 285.52h248.68c2.21-9.63 3.8-19.63 4.75-29.97H328.89c-1.07 9.98-2.88 20.02-5.36 29.97ZM300.12 344.69h248.41a199.6 199.6 0 0 0 12.01-23.44H311.56c-3.4 8.02-7.22 15.86-11.45 23.44ZM290.27 105.8h248.18c-11.97-16.45-26.38-31.07-42.83-43.81H249.77c15.35 11.91 29 26.85 40.5 43.81ZM329.87 225.95H577.9c-.33-12.34-1.58-24.21-3.64-35.61H325.54c2.38 11.76 3.85 23.69 4.32 35.61Z"></path><path d="M249.77 62a156.24 156.24 0 0 0-16.51-11.21H99.75c20.63-11.81 43.44-18.6 67.44-18.6s46.06 6.81 66.08 18.6h246.62C428.97 17.45 362.16 0 289 0S151.49 16.77 98.98 50.78c-2.52 1.63-4.99 3.31-7.43 5.02-2.99 1.96-5.92 4.03-8.8 6.19h167.02ZM290.27 105.8H40.81a222.42 222.42 0 0 0-11.79 18.7h249.46a222.42 222.42 0 0 1 11.79-18.7ZM260.12 166.39H10.66a226.38 226.38 0 0 0-6.37 23.95h249.45c1.69-8.11 3.82-16.11 6.37-23.95ZM249.12 234.36c0-2.8.07-5.61.18-8.41H.1c-.06 2.29-.1 4.59-.1 6.92 0 7.76.34 15.31.99 22.67h249.29c-.76-7.07-1.16-14.14-1.16-21.18ZM255.67 285.52H6.22c3.08 12.19 7.19 24.17 12.22 35.74H267.9a232.483 232.483 0 0 1-12.22-35.74ZM279.68 344.69H30.23c8.59 14.94 18.77 28.79 30.23 40.97.05.05.09.1.14.15h210.15c6.96-7.64 13.42-15.93 19.32-24.71-3.67-5.29-7.14-10.77-10.38-16.41ZM78.74 402.72c9.1 7.42 18.78 13.82 28.93 19 18.49 9.44 38.55 14.82 59.51 14.82 32 0 61.35-12.97 86.05-33.82H78.74Z"></path></svg>