<svg xmlns="http://www.w3.org/2000/svg" width="610.2" viewBox="0 0 610.2 541" height="541" xml:space="preserve"><path d="M215.1 228.6v99.6h32.2V95.6c0-52.8-42.8-95.6-95.6-95.6H0v195.8h182.3c18.1 0 32.8 14.7 32.8 32.8zM458.5 0c-52.8 0-95.6 42.8-95.6 95.6v232.6h32.2v-99.6c0-18.1 14.7-32.8 32.8-32.8h182.3V0H458.5z"></path><path d="M345.9 312.4V40.7c0-22.5-18.2-40.7-40.7-40.7-22.5 0-40.7 18.2-40.7 40.7v271.7c0 18.1-14.7 32.8-32.8 32.8H49.3V541h151.8c52.8 0 95.6-42.8 95.6-95.6V204.3c0-4.7 3.8-8.5 8.5-8.5s8.5 3.8 8.5 8.5v241.1c0 52.8 42.8 95.6 95.6 95.6H561V345.2H378.7c-18.1 0-32.8-14.7-32.8-32.8z"></path></svg>