<svg id="Layer_1" data-name="Layer 1" xmlns="http://www.w3.org/2000/svg" viewBox="0 0 614.53 614.53">   <rect width="150.2" viewBox="0 0 150.2 150.2" height="150.2"></rect>   <polygon points="464.33 0 464.33 98.14 330.3 232.16 232.16 232.16 232.16 330.3 98.14 464.33 0 464.33 0 614.53 150.2 614.53 150.2 516.39 284.22 382.37 382.36 382.37 382.36 284.22 516.39 150.2 614.53 150.2 614.53 0 464.33 0"></polygon>   <polygon points="150.2 284.23 284.23 150.2 382.36 150.2 382.36 0 232.16 0 232.16 98.13 98.14 232.16 0 232.16 0 382.37 150.2 382.37 150.2 284.23"></polygon>   <polygon points="464.33 330.3 330.3 464.33 232.16 464.33 232.16 614.53 382.36 614.53 382.36 516.39 516.39 382.37 614.53 382.37 614.53 232.16 464.33 232.16 464.33 330.3"></polygon>   <rect x="464.33" y="464.33" width="150.2" height="150.2"></rect> </svg>