<svg xmlns="http://www.w3.org/2000/svg" width="600" viewBox="0 0 600 600" height="600" style="overflow:visible;enable-background:new 0 0 600 600" xml:space="preserve"><path d="M403.96 300V0h-56.43v300c0 26.25-21.28 47.53-47.53 47.53s-47.52-21.28-47.52-47.53 21.27-47.52 47.52-47.52c15.93 0 30 7.86 38.62 19.88v-68.89a103.49 103.49 0 0 0-38.62-7.44c-57.41 0-103.96 46.54-103.96 103.96S242.59 403.96 300 403.96c57.42 0 103.96-46.54 103.96-103.96m65.35 0V0h-56.43v300c0 62.34-50.54 112.88-112.88 112.88S187.14 362.34 187.14 300 237.66 187.14 300 187.14c13.57 0 26.56 2.39 38.62 6.77v-58.74c-12.41-2.89-25.33-4.48-38.62-4.48-93.5 0-169.31 75.8-169.31 169.31S206.5 469.31 300 469.31c93.51 0 169.31-75.8 169.31-169.31m65.34 0V0h-56.43v300c0 98.42-79.8 178.22-178.22 178.22S121.79 398.42 121.79 300 201.58 121.79 300 121.79c13.26 0 26.18 1.49 38.62 4.23V68.53A236.328 236.328 0 0 0 300 65.34C170.4 65.35 65.35 170.4 65.35 300S170.4 534.65 300 534.65 534.65 429.6 534.65 300m65.35 0V0h-56.43v300c0 134.51-109.05 243.57-243.57 243.57S56.44 434.51 56.44 300 165.49 56.44 300 56.44c13.15 0 26.03 1.05 38.62 3.06V2.47A303.684 303.684 0 0 0 300 0C134.31 0 0 134.31 0 300s134.31 300 300 300 300-134.31 300-300"></path></svg>