<svg xmlns="http://www.w3.org/2000/svg" width="611.9" viewBox="0 0 611.9 555.7" height="555.7" xml:space="preserve"><path d="M596.5 219.5C577.4 187 543 166 505.4 163.4c3.3-6.6 5.9-13.7 7.9-21 7.8-29.3 3.7-59.8-11.6-85.9C481.2 21.6 443.3 0 402.7 0c-20.1 0-39.9 5.3-57.3 15.3-16.7 9.6-29.9 22.6-39.4 37.7-9.5-15.1-22.8-28.2-39.4-37.7C249.2 5.3 229.3 0 209.3 0c-40.7 0-78.6 21.6-99 56.4-19.9 34-19.9 74-3.7 106.9-37.7 2.6-72.1 23.6-91.2 56.2-31.7 54-13.1 123.5 41.5 154.9 15.7 9 33.4 14.2 51.4 15.2-8.7 16.4-13.3 34.7-13.2 53.7.5 62 51.8 112.5 114.4 112.5h.8c39.4-.3 74.1-20.4 94.4-50.7 20.6 30.1 55.4 49.9 94.7 49.9h.8c63.1-.5 114-51.6 113.5-114.1-.1-18.4-4.8-35.9-12.9-51.2 18.9-.6 37.6-5.8 54-15.3 54.7-31.4 73.3-100.9 41.7-154.9zM215.7 328.4 306 173.8l89.9 154.6H215.7zM364.9 48.8c11.5-6.6 24.5-10.1 37.7-10.1 26.8 0 51.8 14.2 65.2 37.2 10.1 17.2 12.8 37.3 7.7 56.6-5.2 19.3-17.6 35.4-35 45.4l-65.1 37.5-37.8-64.5c-20.8-35.7-8.6-81.4 27.3-102.1zM144.1 75.9c13.4-22.9 38.4-37.2 65.2-37.2 13.2 0 26.2 3.5 37.7 10.1 35.9 20.7 48.1 66.4 27.3 101.9l-37.8 64.5-65.1-37.5c-35.9-20.5-48.2-66.3-27.3-101.8zm-94.9 163c13.4-22.9 38.4-37.1 65.2-37.1 13.2 0 26.2 3.5 37.7 10.1l65.1 37.5-37.8 64.5C166 336.7 141 351 114.3 351c-13.2 0-26.2-3.5-37.7-10.1-36-20.7-48.2-66.4-27.4-102zM210.1 517h-.6c-41.2 0-75-33.2-75.3-74-.1-19.9 7.6-38.7 21.7-52.9 14.1-14.2 33-22.5 53.1-22.6h75.6v74.4c.2 41.1-33 74.8-74.5 75.1zm189.9-.7h-.6c-41.2 0-75.2-33.2-75.5-74v-74.8h75.6c41.2 0 75 32.8 75.3 73.7.3 41.1-33.3 74.8-74.8 75.1zm135.4-175.4c-11.5 6.6-24.5 10.1-37.7 10.1-26.8 0-51.8-14.2-65.2-37.2l-37.8-64.5 65.1-37.5c11.5-6.6 24.5-10.1 37.7-10.1 26.8 0 51.8 14.2 65.2 37.1 20.8 35.7 8.6 81.4-27.3 102.1z"></path></svg>