<svg xmlns="http://www.w3.org/2000/svg" width="599.7" viewBox="0 0 599.7 454.9" height="454.9" xml:space="preserve"><path d="M0 0v454.9h599.7V0H0zm219.1 113.5c0-44.4 36.3-80.7 80.7-80.7 44.4 0 80.7 36.3 80.7 80.7v18.2l-78.7 78.7-82.7-82.7v-14.2zM44.8 180.1c-27.9-27.9-27.9-73.6 0-101.6 27.9-27.9 73.6-27.9 101.6 0l67.8 67.8c-27.3-4.7-56.4 3.4-77.3 24.3-21 21-29 50.1-24.3 77.4l-67.8-67.9zm102 101.9c-27.9-27.9-27.9-73.6 0-101.6 26-26 67.5-27.8 95.7-5.3l46.2 46.2-101.4 101.4-40.5-40.7zm153.1 153.6-.1-.1-.1.1-101.2-101.4 101.3-101.3 101.3 101.3-101.2 101.4zm153-153.6-40.5 40.6-101.3-101.3 46.2-46.2c28.1-22.5 69.6-20.8 95.7 5.3 27.8 28 27.8 73.7-.1 101.6zm101.9-101.9L487 247.9c4.8-27.3-3.3-56.4-24.3-77.4-20.9-20.9-50-29-77.3-24.3l67.8-67.8c27.9-27.9 73.6-27.9 101.6 0 28 28 28 73.8 0 101.7z"></path></svg>