<svg data-name="Layer 1" xmlns="http://www.w3.org/2000/svg" viewBox="0 0 627.6 448.28"><path d="M179.31 0h89.66v89.66h-89.66zM358.63 0h89.66v89.66h-89.66zM89.66 89.66h89.66v89.66H89.66zM268.97 89.66h89.66v89.66h-89.66zM448.28 89.66h89.66v89.66h-89.66zM0 179.31h89.66v89.66H0z"></path><path d="M179.31 179.31h89.66v89.66h-89.66zM358.63 179.31h89.66v89.66h-89.66zM537.94 179.31h89.66v89.66h-89.66zM89.66 268.97h89.66v89.66H89.66zM268.97 268.97h89.66v89.66h-89.66zM448.28 268.97h89.66v89.66h-89.66zM179.31 358.63h89.66v89.66h-89.66zM358.63 358.63h89.66v89.66h-89.66z"></path></svg>