<svg data-name="Layer 1" xmlns="http://www.w3.org/2000/svg" viewBox="0 0 621.7 553.01"><path d="m432.13 0 43.57 43.57-41.47 41.47 41.47 41.48-41.47 41.47 41.47 41.47-41.47 41.47 41.47 41.48-39.62 39.62 41.35 41.34-40.32 40.32-41.34-41.34-41.26 41.26-43.06-43.06-43.06 43.06-41.26-41.26-41.34 41.34-40.32-40.32 41.35-41.34-39.62-39.62 41.47-41.48-41.47-41.47 41.47-41.47-41.47-41.47 41.47-41.48-41.47-41.47L190.76 0H0v413.25c0 37.18 14.58 72.23 41.05 98.7S102.58 553 139.75 553h216.42c41.86 0 76.78-30.32 83.95-70.15.08-.42.69-.36.69.06v70.08h180.88V0H432.12Z"></path></svg>