<svg xmlns="http://www.w3.org/2000/svg" width="609.8" viewBox="0 0 609.8 583.1" height="583.1" xml:space="preserve"><path d="m515.3 234.2 22.8-29.4L345.5 0 209.3 35.1 56.8 252.3l37.3 48.5L0 434.8l122.9 148.3 146-63.4 35.8 45.3 177.9-81.4 127.2-149.1-94.5-100.3zm82 99-56 24.6-64.3-74.4 33.1-42.7 87.2 92.5zm-291.5 220L189.1 405.4l48.6-70.6 120 148.1-51.9 70.3zm-133.9-50.7-53-70.1 63.7-22 51 64.6-61.7 27.5zM278 112.3l50.7-13-44.4 63.2-54.2 17.9 47.9-68.1zM417.4 347l-47.3 17.3 99.3-129.5 51.2-20.8-103.2 133zm-58.6 18.6-54-63 45.9-65.9-58.5-70.9L338.9 99l122.6 132.6-102.7 134zm-73.3-194.9 52.8 64L223 269.8 172.7 208l112.8-37.3zm-61.3 107.4 111.2-33.8-38.4 55.3-62.2 25.1-53.3 77.5-58.6 20.2 101.3-144.3zM364 477.7l-119.9-148 54.3-21.9 59.8 69.7 60.5-22.2 58.7 69.4-113.4 53zm120-57.8-58.8-69.5L472 290l62.8 72.7-50.8 57.2zm41.4-216.7-57.5 23.3L339.8 87.9l-63 16.2L219.4 41 342.9 9.2l182.5 194zM67 252.1 212.2 45.3l58.1 63.7-53.2 75.7-52.6 17.4-1.3.4-.8 1.1L99 293.8l-32-41.7zm32.4 55.6 10.4-14.8 56.3-80.1 50.4 62-109.4 155.6 58.4 77.3-41.8 63.6L10.3 434.4l89.1-126.7zM263.6 513l-128.5 55.9 38.2-58.1 65.5-29.2 24.8 31.4zm213.8-36-158.8 72.6 46.9-63.6 120.9-56.6 56.3-63.3 46.8-20.6L477.4 477z"></path></svg>