<svg id="Layer_1" data-name="Layer 1" xmlns="http://www.w3.org/2000/svg" viewBox="0 0 607.48 584.8">   <path d="M303.18,181.56c-32.19-21.74-71.08-34.66-112.84-34.66-30.77,0-61.48,7.04-87.57,19.36,5.67,73.2,50.51,135.63,113.51,166.08-.42,5.26-.58,10.36-.58,15.73,0,69.59,34.86,130.94,88.49,167.18,53.23-36.3,87.77-97.43,87.77-166.72,0-5.49-.33-10.68-.75-16.06,63.14-30.36,108.1-92.54,113.82-165.8-26.56-12.88-56.2-20.25-87.7-20.25-42.33,0-81.72,12.83-114.16,35.13Zm52.6,120.47c-4.35,1.44-9.16,2.36-13.99,2.36-16.09,0-29.96-8.8-37.58-21.72-3.58,6.36-6.23,13.84-6.23,21.67,0,24.19,19.62,43.8,43.81,43.8,2.8,0,5.16,0,7.8-.49,0,43.53-17.56,83.14-45.89,111.87-28.13-28.69-45.43-68.08-45.43-111.44,0-10.85,1.04-21.63,3.11-31.86,4.53-19.06,22.46-33.22,42.83-33.55-7.22-14.28-21.12-22.15-38.21-22.15-19.01,0-35.14,11.94-41.2,28.87-35.81-20.68-62.94-54.83-74.11-95.61,12.73-3.29,25.89-4.79,39.65-4.79,38.87,0,78.19,17.69,105.83,40.85,8.56,7.99,13.54,18.09,13.54,30.73,0,7.93-1.79,15.67-5.48,22.08,23.68-.59,43.61-20.38,43.61-44.19,0-10.85-4-20.49-10.52-28.14,23.53-13.73,50.84-21.33,80.04-21.33,14.24,0,27.65,1.42,40.78,4.93-13.92,50.8-52.89,91.14-102.34,108.1Zm212.45-194.53C514.76,35.94,456.36,0,303.84,0S91.57,36.25,39.44,107.5C-5.32,168.67,.22,241.19,.22,287.54c0,66.48,.95,115.39,28.8,172.89,50.65,90.05,114.97,127.88,274.82,124.1,159.85,3.78,224.17-34.05,274.82-124.1,27.85-57.5,28.8-106.41,28.8-172.89,0-46.35,2.51-116.77-39.23-180.04Zm-1.15,179.35c0,57.64-.82,100.05-24.97,149.9-43.92,78.08-99.68,110.88-238.27,107.59-138.59,3.29-194.36-29.52-238.27-107.59-24.15-49.85-24.97-92.26-24.97-149.9,0-40.18-2.17-101.23,34.01-156.1,46.36-62.04,96.99-93.21,229.23-93.21s182.88,31.17,229.23,93.21c36.19,54.87,34.01,115.91,34.01,156.1Z"></path> </svg>