<svg data-name="Layer 1" xmlns="http://www.w3.org/2000/svg" viewBox="0 0 487.66 604.39"><path d="M238.34 292.61h179.92c38.27 0 69.4-31.13 69.4-69.4V0H337.88v133.25c0 5.28-4.3 9.58-9.58 9.58s-9.58-4.3-9.58-9.58V69.4c0-38.27-31.13-69.4-69.4-69.4H69.4C31.13 0 0 31.13 0 69.4v465.58c0 38.27 31.13 69.41 69.4 69.41h179.92c38.27 0 69.4-31.14 69.4-69.41v-63.85c0-5.28 4.3-9.58 9.58-9.58s9.58 4.3 9.58 9.58v133.25h149.78V381.17c0-38.27-31.13-69.41-69.4-69.41H238.34c-38.27 0-69.41 31.14-69.41 69.41v63.85c0 5.28-4.3 9.58-9.58 9.58s-9.58-4.3-9.58-9.58V159.36c0-5.28 4.3-9.58 9.58-9.58s9.58 4.3 9.58 9.58v63.85c0 38.27 31.14 69.4 69.41 69.4Z"></path></svg>