<svg xmlns="http://www.w3.org/2000/svg" width="503.2" viewBox="0 0 503.2 576.1" height="576.1" style="enable-background:new 0 0 503.2 576.1" xml:space="preserve"><path d="M449.5 0H305.4c-11.2 0-21.9 5.4-28.5 14.5-6.6 9.1-8.5 20.9-5 31.6l22.6 69.2H364c15.2 0 20.3 11.9 21.4 15.6 1.2 3.7 4.1 16.3-8.2 25.2L321.1 197l21.5 66.1c4.7 14.5-5.1 22.9-8.2 25.2-3.1 2.3-14.2 8.9-26.5 0l-56.2-40.9-56.2 40.9c-12.3 8.9-23.4 2.3-26.5 0-3.1-2.3-12.9-10.7-8.2-25.2l21.5-66.1-56.2-40.9c-12.3-8.9-9.4-21.5-8.2-25.2 1.2-3.7 6.2-15.6 21.4-15.6h69.5L231.2 46c3.5-10.7 1.6-22.5-5-31.5C219.6 5.4 208.9 0 197.7 0h-144C24 0 0 24 0 53.7v268.6c0 67.3 26 132.3 73.5 179.9 47.5 47.6 110.8 73.9 178.1 73.9h.1c138.7-.1 251.5-113.9 251.5-253.8V53.7c0-29.7-24-53.7-53.7-53.7zm16.1 322.2c0 119.2-96 216.2-213.9 216.3h-.1c-56.7 0-110.1-21.9-150.4-61.8C60 436 37.6 380.1 37.6 322.3V53.7c0-8.9 7.2-16.1 16.1-16.1h140.7l-13 40.2H140c-26.2 0-49.9 16.5-58 41.4-8.3 25.3.3 51.7 21.8 67.4l34.2 24.8-12.8 39.3c-8.1 24.9.3 52.5 21.5 68 21.5 15.7 49.3 15.7 70.8.1l34.2-24.8 34.2 24.8c21.5 15.6 49.2 15.6 70.7 0s30-42 21.8-67.2l-13-40.2 34.2-24.8c21.5-15.6 30.1-42.1 21.8-67.4-8.1-24.9-31.8-41.4-58-41.4H322l-13.1-40.2h140.8c8.9 0 16.1 7.2 16.1 16.1v268.5z"></path></svg>