<svg xmlns="http://www.w3.org/2000/svg" width="623.8" viewBox="0 0 623.8 618.9" height="618.9" style="enable-background:new 0 0 623.8 618.9" xml:space="preserve"><path d="M366.9 0c-11.6 32.8-18 68.2-18 105 0 153.7 110.2 281.7 256 309.2 12.2-33.4 18.9-69.6 18.9-107.3C623.8 153.5 512.9 26 366.9 0zm120.9 280.5c-38.8 0-70.2-31.4-70.2-70.2 0-38.8 31.4-70.2 70.2-70.2s70.2 31.4 70.2 70.2c-.1 38.8-31.5 70.2-70.2 70.2zM274.9 105c0-36.8-6.4-72.1-18-105C110.9 26 0 153.5 0 307c0 37.7 6.7 73.8 18.9 107.3 145.8-27.6 256-155.6 256-309.3zm-209 105.4c0-38.8 31.4-70.2 70.2-70.2 38.8 0 70.2 31.4 70.2 70.2 0 38.8-31.4 70.2-70.2 70.2-38.8-.1-70.2-31.5-70.2-70.2zM311.9 397.2c-95.7 0-181.3 42.7-239 110.1 57.2 68.2 143 111.6 239 111.6s181.8-43.4 239-111.6c-57.7-67.4-143.3-110.1-239-110.1zm0 182.1c-38.8 0-70.2-31.4-70.2-70.2 0-38.8 31.4-70.2 70.2-70.2s70.2 31.4 70.2 70.2c0 38.8-31.4 70.2-70.2 70.2z"></path></svg>