<svg xmlns="http://www.w3.org/2000/svg" width="626.5" viewBox="0 0 626.5 470.5" height="470.5" xml:space="preserve" style="enable-background:new 0 0 626.5 470.5"><path d="M626.5 470.5h-60.3C436.6 470.5 331 364.9 331 235.2 331 105.5 436.6 0 566.3 0h60.3v49.5c0 78.8-41.3 147.9-103 185.8 61.6 37.9 103 107 103 185.8v49.4zM564.4 61.7c-94.8 1-171.6 78.5-171.6 173.5 0 95.1 76.8 172.5 171.6 173.5C558.3 329 493.5 266 414.8 266v-61.7c78.7.1 143.5-62.9 149.6-142.6zM314 204.4H134.4v-56.3L0 235.2l134.4 88.3v-58.9H314z"></path></svg>