<svg xmlns="http://www.w3.org/2000/svg" width="619.6" viewBox="0 0 619.6 619.2" height="619.2" xml:space="preserve" style="enable-background:new 0 0 619.6 619.2"><path d="M138.5 292.9c3.8 3.8 9 6 14.4 6h138.6c4.1 0 7.4-3.3 7.4-7.4V152.8c0-5.4-2.1-10.6-6-14.4L156.4 1.9c-4.1-4.1-11.1-1.2-11.1 4.6v130.8c0 4.4-3.6 7.9-7.9 7.9H6.5c-5.8 0-8.7 7-4.6 11.1l136.6 136.6zM291.8 320.4H153.2c-5.4 0-10.6 2.1-14.4 6L2.3 462.9C-1.9 467 1.1 474 6.9 474h130.8c4.4 0 7.9 3.6 7.9 7.9v130.8c0 5.8 7 8.7 11.1 4.6l136.5-136.5c3.8-3.8 6-9 6-14.4V327.8c0-4.1-3.3-7.4-7.4-7.4zM617.7 462.5 481.1 326c-3.8-3.8-9-6-14.4-6H328.1c-4.1 0-7.4 3.3-7.4 7.4V466c0 5.4 2.1 10.6 6 14.4L463.2 617c4.1 4.1 11.1 1.2 11.1-4.6V481.6c0-4.4 3.6-7.9 7.9-7.9H613c5.8 0 8.8-7.1 4.7-11.2zM326.9 153.3h130.8c4.4 0 7.9 3.6 7.9 7.9V292c0 5.8 7 8.7 11.1 4.6l116.2-116.2c3.8-3.8 6-9 6-14.4V27.5c0-4.1-3.3-7.4-7.4-7.4H452.9c-5.4 0-10.6 2.1-14.4 6L322.3 142.2c-4.1 4.1-1.2 11.1 4.6 11.1z"></path></svg>