<svg xmlns="http://www.w3.org/2000/svg" width="593.85" viewBox="0 0 593.85 642" height="642" data-name="Layer 1"><path d="M593.85 258.66v247.75c0 7.13-3.85 13.74-10.02 17.33L378.97 642l-17.91-10.34v-243.7l208.52-120.37c1.48-.83 2.7-2.05 3.6-3.66 1.41-2.5 1.73-5.33 1.03-7.9-5.07-16.95-39.61-31.52-48.98-31.01-6.23-.06-12.33 1.6-17.65 4.69L312.03 342.64v235.1c-.06 9.18-2.38 18.3-6.81 26.32-7.25 14.38-44.94 43.59-72.93 36.98-2.7-.71-5.33-1.67-7.7-3.02L10.02 514.11C3.86 510.51 0 503.9 0 496.78V260.2l17.91-10.34L229 371.71l-.06 240.81c0 1.67.45 3.34 1.41 4.94 1.48 2.44 3.72 4.17 6.29 4.81 17.21 4.11 47.12-18.55 51.36-26.9a33.794 33.794 0 0 0 4.75-17.65V349.04L90.71 232.39c-7.96-4.62-14.7-11.17-19.45-19-8.86-13.55-15.28-60.73 4.43-81.66 1.93-2.05 4.11-3.79 6.48-5.2L296.73 2.7c6.23-3.6 13.87-3.6 20.09 0l204.8 118.26v20.67L310.59 263.48 102.07 143.11c-1.48-.83-3.15-1.28-5.01-1.28-2.82 0-5.46 1.16-7.32 3.08-12.13 12.84-7.51 50.01-2.38 57.91 3.08 5.39 7.58 9.89 12.9 12.97l196.52 113.38L497.92 213.1c7.96-4.56 17.01-7.13 26.19-7.32 16.11-.9 60.22 17.14 68.5 44.68.77 2.7 1.22 5.46 1.22 8.22Z" style="stroke-width:0"></path></svg>