<svg xmlns="http://www.w3.org/2000/svg" width="618.2" viewBox="0 0 618.2 616.4" height="616.4" xml:space="preserve" style="enable-background:new 0 0 618.2 616.4"><path d="M309.1 0C138.7 0 0 138.3 0 308.2c0 169.9 138.7 308.2 309.1 308.2 170.4 0 309.1-138.3 309.1-308.2C618.2 138.3 479.5 0 309.1 0zm-96.2 548.7C122.8 512.8 59.3 428.1 50.4 332H138c4.4 77.9 30.3 152.7 74.9 216.7zM567.8 332c-8.7 95-71.4 179.3-160.1 215.7 44.3-63.8 69.9-138.3 74.2-215.7h85.9zm-258.7-1.6L284.4 356v203.3c-58.1-63.6-91.6-142.1-97-227.3h73l25.6-24.7-25.6-24.7h-72.8c5.8-84.4 39.2-162.4 96.9-225.5v201.5l24.7 25.6 24.7-25.6V55.2c58.8 63.5 92.8 142.1 98.6 227.4h-74.6l-25.6 24.7 25.6 24.7h74.7c-5.4 86.1-39.5 165.2-98.7 229.2V356l-24.8-25.6zM50.6 282.7c9.4-95.3 72.9-179.3 162.4-215-44.3 63.5-70.2 137.8-74.8 215H50.6zm431.2 0c-4.6-76.8-30.2-150.7-74.1-214 89.4 36.6 150.5 118.3 159.9 214h-85.8z"></path></svg>