<svg xmlns="http://www.w3.org/2000/svg" width="530.7" viewBox="0 0 530.7 599.1" height="599.1" xml:space="preserve"><path d="M356.2 216.1c36.6 0 68.5 23.5 79.4 58.5l2.8 9v-94c18.1 19.3 31.7 43.4 38.5 70.7l2.8 11.4v-121c23.4 28.7 40.3 63.1 48.1 101.2l2.9 14V111.3l-.3-.4C473.3 40.4 388.8 0 298.6 0 134 0 0 134.4 0 299.5 0 464.7 134 599 298.6 599c90.2 0 174.7-40.4 231.8-110.9l.3-.4V333.2l-2.9 14c-7.8 38.1-24.7 72.5-48.1 101.2V327.3l-2.8 11.4c-6.8 27.3-20.3 51.4-38.5 70.7v-94l-2.8 9c-10.9 35-42.8 58.5-79.4 58.5-45.9 0-83.2-37.4-83.2-83.4.1-46 37.4-83.4 83.2-83.4zm-147.5 83.4c0 81.2 65.6 147.3 146.2 147.3 14.9 0 29.5-2.3 43.5-6.7-22 11.8-46.9 18.4-73.1 18.4-86.3 0-156.5-71.4-156.5-159.1 0-87.7 70.2-159.1 156.5-159.1 26.2 0 51.1 6.6 73.1 18.4-14-4.4-28.6-6.7-43.5-6.7-80.7.2-146.2 66.3-146.2 147.5zm-104.4 0c0 122.9 99.1 222.9 220.9 222.9 32.4 0 63.8-7.1 92.5-20.4-35.2 21-76.1 33-119.1 33-129 0-234-105.6-234-235.5S169.6 64 298.6 64c43 0 83.9 12 119.1 33-28.7-13.4-60.1-20.4-92.5-20.4-121.8 0-220.9 100-220.9 222.9z"></path></svg>