<svg xmlns="http://www.w3.org/2000/svg" width="261" viewBox="0 0 261 620.6" height="620.6" style="enable-background:new 0 0 261 620.6" xml:space="preserve"><path d="M186.8 469.8c-9.9 0-18 8.1-18 18s8.1 18 18 18 18-8.1 18-18-8.1-18-18-18m-56.3-6.8c-8.7 0-15.8 7.1-15.8 15.8v54c0 8.7 7.1 15.8 15.8 15.8 8.7 0 15.8-7.1 15.8-15.8v-54c0-8.7-7.1-15.8-15.8-15.8zm-56.2 6.8c-9.9 0-18 8.1-18 18s8.1 18 18 18 18-8.1 18-18-8.1-18-18-18zm12.5-73.6C51.5 412.7 27 448.5 27 490c0 57.2 46.3 103.5 103.5 103.5S234 547.2 234 490c0-8.2-1-16.3-2.8-24-1.6-6.7 2-13.4 8.5-15.8 3.8-1.4 7.5-1.1 11 .8 3.5 1.9 5.8 4.9 6.7 8.8 2.3 9.7 3.5 19.8 3.5 30.2 0 72.1-58.4 130.5-130.5 130.5S0 562.1 0 490V294.8c0-71.6 39-132.9 103.9-163.2l45.2-21.1c50.7-23.6 88.7-62.4 110.2-110 .2-.4.6-.6 1-.5.4.1.7.5.7.9v185c0 80.6-43.9 149.5-116.9 183.6l-57.3 26.7" style="fill-rule:evenodd;clip-rule:evenodd"></path></svg>