<svg data-name="Layer 1" xmlns="http://www.w3.org/2000/svg" viewBox="0 0 570.76 618.66"><path d="M0 420.74c0 96.99 96.94 177.96 226.1 197.24V465.46c0-20.27-12.74-37.68-30.59-44.72 17.85-7.04 30.59-24.45 30.59-44.72V223.5C96.94 242.78 0 323.75 0 420.74ZM339.83 222.83v168.61l60.66-34.54v124.25l-60.66-32.95v170.46c131.55-17.97 230.92-99.72 230.92-197.91S471.38 240.8 339.83 222.84Z"></path><circle cx="282.97" cy="417.06" r="49.95"></circle><path d="M339.83 37.91v163.55c131.36-9.09 230.55-50.3 230.55-99.79C570.39 45.52 442.7 0 285.19 0S0 45.52 0 101.67c0 48.93 96.95 89.77 226.1 99.48v-49.5c0-62.82 50.92-113.74 113.74-113.74Z"></path></svg>