<svg data-name="Layer 1" xmlns="http://www.w3.org/2000/svg" viewBox="0 0 603.59 603.01"><path d="m441.9 347.96 127.52 93.01c21.79-41.72 34.18-89.14 34.18-139.47s-12.63-98.71-34.83-140.74l-126.85 92.48c-32.11 23.41-32.11 71.31-.01 94.72ZM331.61 446.05l-16.8 156.92c102.11-4.34 191.04-59.41 242.32-140.65l-143.48-63.61c-36.32-16.1-77.81 7.83-82.04 47.34ZM191.53 399.57 47.21 463.48c51.63 80.98 140.77 135.65 242.97 139.53l-16.63-156.05c-4.21-39.51-45.69-63.47-82.02-47.38ZM412.08 203.41l144.27-63.93C504.72 58.52 415.58 3.86 313.38 0l16.67 156.04c4.22 39.51 45.7 63.46 82.03 47.36ZM161.74 255.02 34.22 161.96C12.4 203.7 0 251.14 0 301.5s12.62 98.68 34.81 140.7l126.9-92.47c32.11-23.4 32.13-71.3.03-94.72ZM271.99 156.9 288.75.04C186.68 4.38 97.79 59.42 46.51 140.62l143.43 63.63c36.33 16.12 77.83-7.83 82.05-47.35Z"></path></svg>