<svg xmlns="http://www.w3.org/2000/svg" width="552.6" viewBox="0 0 552.6 642" height="642" style="overflow:visible;enable-background:new 0 0 552.6 642" xml:space="preserve"><circle cx="420.7" cy="71.4" r="71.4"></circle><path d="m172.6 147.1-72.5 199c-1.5 4.2 1.6 8.6 6 8.6h61.8c2.7 0 5.1-1.7 6-4.2L224 212.9c.9-2.5 3.3-4.2 6-4.2h61.3c4.5 0 7.6 4.4 6 8.6l-56.9 156.1c-16 44 16.5 90.5 63.3 90.5h147.7c4.5 0 7.6 4.4 6 8.6l-58.5 160.9c-1.5 4.2 1.6 8.6 6 8.6h61.8c2.7 0 5.1-1.7 6-4.2L549.1 428c13-35.6-13.4-73.2-51.3-73.2H390.5c-4.5 0-7.6-4.4-6-8.6L427.1 229c15.2-41.9-15.8-86.2-60.3-86.2H178.7c-2.7 0-5.1 1.7-6.1 4.3z"></path><path d="M245.3 642H6.4c-4.5 0-7.6-4.4-6-8.6l22.8-62.6c.9-2.5 3.3-4.2 6-4.2h165.7l40.7-111.8c1.6-4.4 7.3-5.8 10.6-2.4 14.6 15 35 24.4 57.6 24.4h24c4.5 0 7.6 4.4 6 8.6l-46.3 127.1c-6.4 17.7-23.3 29.5-42.2 29.5z"></path></svg>