<svg xmlns="http://www.w3.org/2000/svg" width="619.3" viewBox="0 0 619.3 619.3" height="619.3" xml:space="preserve"><path d="m328.9 82.9-.1 116.4 13.8 13.8V96.5l-3.6-3.6V29.2l-6.6-6.6v63.7zM357.1 111l-2.3-2.3-.1 116.5 13.8 13.8V122.4l-3.6-3.6V55.1l-6.6-6.6v63.7zM287.2 88.2V22.6l-6.6 6.6v63.7l-3.6 3.6v116.6l13.8-13.8V88.2zM262.5 111l-1.2 1.2V48.5l-6.6 6.6v63.7l-3.5 3.6V239l13.7-13.8V111zM306.5 3.3v63.9l-3.6 3.6v116.4l6.9-6.9 6.9 6.9V70.8l-3.6-3.6V3.3L309.8 0zM380.6 134.5v97.6l13.8-13.8v-70l-3.6-3.6V81l-6.6-6.6v63.7zM406.5 160.4v45.8l13.8-13.8v-18.2l-3.6-3.6v-63.7l-6.6-6.6V164zM235.4 138.1V74.4l-6.6 6.6v63.7l-3.5 3.6v69.5l13.7 13.7v-97zM209.5 164v-63.7l-6.6 6.6v63.7l-3.5 3.6v17.7l13.7 13.7v-45.2zM442.6 170.1v-37.3l-6.6-6.6v50.5zM177 132.8v36.7l6.6 6.6v-49.9z"></path><g><path d="m536.4 290.4-116.4.1-13.8-13.8h116.6l3.6 3.6h63.7l6.6 6.6H533zM508.3 262.2l2.3 2.3-116.5.1-13.8-13.8h116.6l3.6 3.6h63.7l6.6 6.6h-63.7zM531.1 332.1h65.6l-6.6 6.6h-63.7l-3.6 3.6H406.2l13.8-13.8h111.1zM508.3 356.8l-1.2 1.2h63.7l-6.6 6.6h-63.7l-3.6 3.5H380.3l13.8-13.7h114.2zM616 312.8h-63.9l-3.6 3.6H432.1l6.9-6.9-6.9-6.9h116.4l3.6 3.6H616l3.3 3.3zM484.8 238.7h-97.6l13.8-13.8h70l3.6 3.6h63.7l6.6 6.6h-63.7zM458.9 212.8h-45.8l13.8-13.8h18.2l3.6 3.6h63.7l6.6 6.6h-63.7zM481.2 383.9h63.7l-6.6 6.6h-63.7L471 394h-69.4l-13.8-13.7h97zM455.3 409.8H519l-6.6 6.6h-63.7l-3.6 3.5h-17.7l-13.7-13.7h45.2zM449.2 176.7h37.3l6.6 6.6h-50.5zM486.5 442.3h-36.7l-6.6-6.6h49.9z"></path></g><g><path d="m82.9 328.9 116.4-.1 13.8 13.8H96.5l-3.6-3.6H29.2l-6.6-6.6h63.8zM111 357.1l-2.3-2.3 116.5-.1 13.8 13.8H122.4l-3.6-3.6H55.1l-6.6-6.6h63.7zM88.2 287.2H22.6l6.6-6.6h63.7l3.6-3.6h116.6l-13.8 13.8H88.2zM111 262.5l1.2-1.2H48.5l6.6-6.6h63.7l3.6-3.6H239l-13.8 13.8H111zM3.3 306.5h63.9l3.6-3.6h116.4l-6.9 6.9 6.9 6.9H70.8l-3.6-3.6H3.3L0 309.8zM134.5 380.6h97.6l-13.7 13.8h-70.1l-3.6-3.6H81l-6.6-6.6h63.7zM160.4 406.5h45.8l-13.7 13.8h-18.3l-3.6-3.6h-63.7l-6.6-6.6H164zM138.1 235.4H74.4l6.6-6.6h63.7l3.6-3.5h69.5l13.7 13.7h-97zM164 209.5h-63.7l6.6-6.6h63.7l3.6-3.6h17.7l13.7 13.8h-45.2zM170.1 442.6h-37.3l-6.6-6.6h50.5zM132.8 177h36.7l6.6 6.6h-49.9z"></path></g><g><path d="m290.4 536.4.1-116.4-13.8-13.8v116.6l3.6 3.6v63.7l6.6 6.6V533zM262.2 508.3l2.3 2.3.1-116.5-13.8-13.8v116.6l3.6 3.6v63.7l6.6 6.6v-63.7zM332.1 531.1v65.6l6.6-6.6v-63.7l3.6-3.6V406.2l-13.8 13.7v111.2zM356.8 508.3l1.2-1.2v63.7l6.6-6.6v-63.7l3.6-3.6V380.3l-13.8 13.8v114.2zM312.8 616v-63.9l3.6-3.6V432.1l-6.9 6.9-6.9-6.9v116.4l3.6 3.6V616l3.3 3.3zM238.7 484.8v-97.6l-13.8 13.7V471l3.6 3.6v63.7l6.6 6.6v-63.7zM212.8 458.9v-45.8L199 426.9v18.2l3.6 3.6v63.7l6.6 6.6v-63.7zM383.9 481.2v63.7l6.6-6.6v-63.7l3.5-3.6v-69.5l-13.7-13.7v97zM409.8 455.3V519l6.6-6.6v-63.7l3.5-3.6v-17.7l-13.7-13.7v45.2zM176.7 449.2v37.3l6.6 6.6v-50.5zM442.3 486.5v-36.7l-6.6-6.6v49.9z"></path></g></svg>