<svg xmlns="http://www.w3.org/2000/svg" width="622.6" viewBox="0 0 622.6 552.4" height="552.4" xml:space="preserve" style="enable-background:new 0 0 622.6 552.4"><path d="M200.7 475.2c-3.8 3.8-9.9 3.8-13.7 0l-27.5-27.5c-3.8-3.8-3.8-9.9 0-13.7l137.3-137.3c11.3-11.3 11.3-29.8 0-41.2-9.9-9.9-76.9-76.8-96.1-96.1-3.8-3.8-9.9-3.8-13.7 0L159.5 187c-3.8 3.8-3.8 9.9 0 13.7l68.6 68.6c3.8 3.8 3.8 9.9 0 13.7l-34.3 34.3L77.1 200.6c-3.8-3.8-3.8-9.9 0-13.7L186.9 77.1c3.8-3.8 9.9-3.8 13.7 0l192.2 192.2c3.8 3.8 3.8 9.9 0 13.7L200.7 475.2zm356.9-205.9c3.8 3.8 3.8 9.9 0 13.7L365.4 475.2c-3.8 3.8-9.9 3.8-13.7 0-9.9-9.8-34.3-34.3-34.3-34.3l144.1-144.1c11.3-11.3 11.3-29.8 0-41.2L317.4 111.5l34.3-34.3c3.8-3.8 9.9-3.8 13.7 0 0-.1 192.2 192.1 192.2 192.1zM8.5 173.2c-11.3 11.3-11.3 29.8 0 41.2 9.8 9.9 144.1 144.1 144.1 144.1l-61.8 61.8c-11.3 11.3-11.3 29.8 0 41.2 4.3 4.5 77.9 78 82.4 82.4 11.3 11.3 29.8 11.3 41.2 0l61.8-61.8 61.8 61.8c11.3 11.3 29.8 11.3 41.2 0l226.5-226.5c22.7-22.7 22.7-59.7 0-82.4L592 221.3 468.5 97.8 379.3 8.6c-11.3-11.3-29.8-11.3-41.2 0l-61.8 61.8-61.8-61.8c-11.3-11.3-29.8-11.3-41.2 0-.1-.1-164.8 164.6-164.8 164.6z" style="fill-rule:evenodd;clip-rule:evenodd"></path></svg>