<svg xmlns="http://www.w3.org/2000/svg" width="248.3" viewBox="0 0 248.3 606.6" height="606.6" xml:space="preserve"><path d="m120.9 482.5-26.6-26.6L51 412.6l-26.5 26.6L49 463.7H0v37.6h49l-24.5 24.5L51 552.3 94.3 509zM105.4 358.2v49l-24.5-24.5-26.5 26.6 43.3 43.3 26.5 26.5 26.6-26.5 43.3-43.3-26.6-26.6-24.5 24.5v-49zM248.3 463.6h-48.9l24.5-24.5-26.6-26.6-43.3 43.3-26.6 26.5 26.6 26.6 43.3 43.3 26.6-26.6-24.5-24.5h48.9zM124.1 485.7l-26.6 26.6-43.2 43.2 26.5 26.6 24.5-24.5v49h37.6v-49l24.5 24.5 26.6-26.6-43.3-43.2zM98.5 338.4l-4.2-4.2L51 290.9l-26.5 26.6 20.7 20.8zM105.2 338.4l38 .1 7.6-7.6 43.3-43.3-26.6-26.6-24.5 24.5v-48.9h-37.6v48.9L80.9 261l-26.5 26.6 43.3 43.3zM105.4 68.8H143v49h-37.6zM105.4 26.6H143v22.3h-37.6zM105.4 0H143v6.8h-37.6zM149.6 338.5l53 .2 21.3-21.3-26.6-26.6-43.3 43.3zM166.1 216.7l28-28-26.6-26.6-24.5 24.5v-48.9h-37.6v48.9l-24.5-24.5-26.5 26.6 28 28z"></path></svg>