<svg xmlns="http://www.w3.org/2000/svg" width="614.5" viewBox="0 0 614.5 614.5" height="614.5" xml:space="preserve" style="enable-background:new 0 0 614.5 614.5"><path d="M140.9 403.9H15.5c28.1 84.7 92 153.1 173.7 187.1V452.2c.1-26.7-21.6-48.3-48.3-48.3zM425.2 452.2V591C507 557 570.9 488.6 599 403.9H473.6c-26.7 0-48.4 21.6-48.4 48.3z"></path><path d="M307.3 0C137.6 0 0 137.6 0 307.2c0 8.7.4 17.4 1.1 25.9h153.6c61 0 110.5 49.5 110.5 110.5v168c13.7 1.9 27.8 2.9 42 2.9 14.3 0 28.3-1 42-2.9v-168c0-61 49.5-110.5 110.5-110.5h153.6c.7-8.5 1.1-17.2 1.1-25.9C614.5 137.6 476.9 0 307.3 0z"></path></svg>