<svg xmlns="http://www.w3.org/2000/svg" width="594.5" viewBox="0 0 594.5 565.9" height="565.9" xml:space="preserve"><path d="M588 273c-5-8.4-15.1-19.7-34.3-26.3 4.1-5.1 34.9-46.1 34.9-103V.5c0-.3-.2-.5-.5-.5H463c-27.6 0-41.6 19.8-44.1 23.9-1.1-1.8-4.1-6.7-10.1-11.6C399 4.5 387.3 0 374.8 0H274.2C200.6 2.3 131.7 32.7 80.1 85.8 28.4 139 0 209 0 282.9c0 156 126.9 283 283 283 64.4 0 127.4-22.2 177.4-62.5 51-41.1 86.5-99.5 97.4-160.2 6.1-33.9 18.4-42.9 36.4-52.7.2-.1.3-.3.2-.5 0-.2-.8-7.8-6.4-17zm-83.1-94.9v-65.9h51.7c-.3 31.3-21.4 58.3-51.7 65.9zm-155.1 31.6c25.7 0 50.2-9.6 69.1-27l.1-.1c18.9 17.5 43.5 27.1 69.3 27.1 22 0 43-6.9 60.6-19.9-19.5 54.9-71.5 91.6-129.7 91.6-58.1 0-110-36.6-129.6-91.4 17.5 12.9 38.3 19.7 60.2 19.7zm-68.6-97.4h52.9v66.2c-30.5-7.1-52.7-34.8-52.9-66.2zm85.4 65.8v-65.9h51.7c-.3 31.3-21.4 58.3-51.7 65.9zm52.9-65.8h53v66.2c-30.6-7.1-52.8-34.8-53-66.2zM280.6 31.8h96.2c22.4 0 40.8 17.8 41.8 40h.5c1-22.2 19.4-40 41.8-40h95.7v48.7h-276V31.8zm267 257.3-.2.2c-12.2 11.9-14.6 24.4-17.3 38.9-.7 3.6-1.4 7.4-2.3 11.3-12.5 54.4-43.5 103.8-87.3 139.1-45 36.3-99.5 55.5-157.5 55.5-138.5 0-251.2-112.7-251.2-251.2 0-61.1 22.3-120 62.8-165.9 40-45.3 94.8-74.8 154.2-82.9l.8 109.6c0 93.5 76 169.5 169.5 169.5 25.5 0 52.3-6.8 77.6-19.7 3.8-1.9 7.5-4.1 11.1-6.1 7.2-4.2 14.7-8.4 22.8-11.1 9.4-3.1 16.3-2.7 20.5 1.4 1.1 1.1 1.7 2.2 1.7 3.5 0 2.8-3 5.8-5.2 7.9z"></path></svg>