<svg data-name="Layer 1" xmlns="http://www.w3.org/2000/svg" viewBox="0 0 617.64 617.64"><path d="M443.49 0H174.16C77.97 0 0 77.97 0 174.16v269.33c0 96.18 77.97 174.16 174.16 174.16h269.33c96.18 0 174.16-77.97 174.16-174.16V174.16C617.64 77.97 539.67 0 443.49 0ZM293.41 443.47c0 65.85-53.38 119.23-119.23 119.23S54.95 509.32 54.95 443.47V174.18c0-65.85 53.38-119.23 119.23-119.23s119.23 53.38 119.23 119.23v269.29ZM443.47 562.7c-65.85 0-119.23-53.38-119.23-119.23V324.24h119.23c65.85 0 119.23 53.38 119.23 119.23S509.32 562.7 443.47 562.7Zm0-269.29H324.24V174.18c0-65.85 53.38-119.23 119.23-119.23S562.7 108.33 562.7 174.18s-53.38 119.23-119.23 119.23Z"></path></svg>