<svg xmlns="http://www.w3.org/2000/svg" width="642" viewBox="0 0 642 640.1" height="640.1" style="overflow:visible;enable-background:new 0 0 642 640.1" xml:space="preserve"><path d="M345.1 0v69.2c48.6 11 85.1 54.5 85.1 106.4 0 60.2-49 109.1-109.1 109.1S212 235.7 212 175.6c0-51.9 36.5-95.4 85.1-106.4V0C130.9 12.3 0 150.9 0 320c0 169.2 130.9 307.7 296.9 320v-69.2c-48.6-11-85.1-54.5-85.1-106.4 0-60.2 49-109.1 109.1-109.1S430 404.3 430 464.4c0 51.9-36.5 95.4-85.1 106.4V640C511.1 627.7 642 489.2 642 320 642 150.9 511.1 12.3 345.1 0zM149.6 506.9C99.1 460.6 67.4 394 67.4 320s31.7-140.5 82.2-186.9c-17.4 71.1 10.3 145 69.9 186.9-59.7 42-87.3 115.9-69.9 186.9zm342.8 0c17.4-71.1-10.3-145-69.9-186.9 59.7-41.9 87.3-115.8 69.9-186.9 50.5 46.4 82.2 112.9 82.2 186.9s-31.7 140.6-82.2 186.9z"></path></svg>