<svg id="Layer_1" data-name="Layer 1" xmlns="http://www.w3.org/2000/svg" viewBox="0 0 612.43 612.43">   <path d="M573.34,256.58V100.76c22.39-5.44,39.09-25.6,39.09-49.64,0-28.19-22.94-51.13-51.13-51.13-24.04,0-44.2,16.7-49.64,39.09h-155.81c-5.44-22.39-25.6-39.09-49.64-39.09-28.19,0-51.13,22.94-51.13,51.13,0,9.74,2.79,18.81,7.53,26.57L77.7,262.62c-7.75-4.74-16.83-7.53-26.57-7.53-28.19,0-51.13,22.94-51.13,51.13,0,24.04,16.7,44.2,39.09,49.64v155.82c-22.39,5.44-39.09,25.6-39.09,49.64,0,28.19,22.94,51.13,51.13,51.13,24.04,0,44.2-16.7,49.64-39.09h155.81c5.44,22.39,25.6,39.09,49.64,39.09,28.19,0,51.13-22.93,51.13-51.13,0-9.74-2.78-18.81-7.53-26.57l184.92-184.92c7.75,4.74,16.83,7.53,26.57,7.53,28.19,0,51.13-22.94,51.13-51.13,0-24.04-16.7-44.2-39.09-49.64Zm-61.68,37.6h-155.81c-1.26-5.2-3.32-10.08-6.04-14.53l184.92-184.92c4.45,2.72,9.33,4.78,14.53,6.04v155.81c-18.52,4.5-33.1,19.07-37.6,37.6Zm6.04-216.48l-184.92,184.92c-4.45-2.72-9.33-4.78-14.53-6.04V100.76c18.52-4.5,33.1-19.07,37.6-37.6h155.81c1.26,5.2,3.32,10.08,6.04,14.53Zm-223.53,23.07v155.81c-18.52,4.5-33.1,19.07-37.6,37.6H100.76c-1.26-5.2-3.32-10.08-6.04-14.53L279.64,94.72c4.45,2.72,9.33,4.78,14.53,6.04ZM100.76,318.25h155.81c1.26,5.2,3.32,10.08,6.04,14.53l-184.92,184.92c-4.45-2.72-9.33-4.77-14.53-6.04v-155.82c18.52-4.5,33.1-19.07,37.6-37.6Zm-6.04,216.48l184.92-184.92c4.45,2.72,9.33,4.77,14.53,6.04v155.82c-18.52,4.5-33.1,19.07-37.6,37.6H100.76c-1.26-5.2-3.32-10.08-6.04-14.53Zm223.53-23.07v-155.82c18.52-4.5,33.1-19.07,37.6-37.6h155.81c1.26,5.2,3.32,10.08,6.04,14.53l-184.92,184.92c-4.45-2.72-9.33-4.77-14.53-6.04Z"></path> </svg>