<svg data-name="Layer 1" xmlns="http://www.w3.org/2000/svg" viewBox="0 0 621.61 325.49"><path d="M458.86 0c-63.23 0-117.97 36.06-144.92 88.73a153.5 153.5 0 0 0-3.1 6.47c-1-2.18-2.03-4.34-3.12-6.47C280.78 36.06 225.98 0 162.75 0 72.86 0 0 72.86 0 162.75S72.86 325.5 162.75 325.5c63.23 0 117.97-36.06 144.92-88.73a153.5 153.5 0 0 0 3.1-6.47c1 2.18 2.03 4.34 3.12 6.47 26.94 52.67 81.75 88.73 144.98 88.73 89.88 0 162.75-72.86 162.75-162.75S548.74 0 458.86 0ZM305.97 226.68a67.133 67.133 0 0 1-20.94 3.35c-37.16 0-67.28-30.12-67.28-67.28s30.12-67.28 67.28-67.28c7.32 0 14.35 1.19 20.94 3.35-33.16 2.48-59.29 30.14-59.29 63.93s26.14 61.46 59.29 63.93Zm9.68-127.86a67.133 67.133 0 0 1 20.94-3.35c37.16 0 67.28 30.12 67.28 67.28s-30.12 67.28-67.28 67.28c-7.32 0-14.35-1.19-20.94-3.35 33.16-2.48 59.29-30.14 59.29-63.93s-26.14-61.46-59.29-63.93ZM188.08 300.17c-75.89 0-137.42-61.52-137.42-137.42S112.18 25.33 188.07 25.33c35.53 0 67.9 13.49 92.29 35.62-20.57-14.8-45.8-23.53-73.08-23.53-69.22 0-125.33 56.11-125.33 125.33s56.11 125.33 125.33 125.33c27.28 0 52.51-8.73 73.08-23.53-24.39 22.13-56.77 35.62-92.29 35.62Zm45.33-38.21c-54.79 0-99.21-44.42-99.21-99.21s44.42-99.21 99.21-99.21c27.26 0 51.93 11.01 69.87 28.8-14.3-10.35-31.87-16.48-50.88-16.48-47.99 0-86.88 38.9-86.88 86.88s38.9 86.88 86.88 86.88c19.01 0 36.58-6.12 50.88-16.48-17.93 17.79-42.61 28.8-69.87 28.8Zm135.81-12.33c47.99 0 86.88-38.9 86.88-86.88s-38.9-86.88-86.88-86.88c-19.01 0-36.58 6.12-50.88 16.48 17.93-17.79 42.61-28.8 69.87-28.8 54.79 0 99.21 44.42 99.21 99.21s-44.42 99.21-99.21 99.21c-27.26 0-51.93-11.01-69.87-28.8 14.3 10.35 31.87 16.48 50.88 16.48Zm64.32 50.53c-35.53 0-67.9-13.49-92.29-35.62 20.57 14.8 45.8 23.53 73.08 23.53 69.22 0 125.33-56.11 125.33-125.33S483.55 37.41 414.33 37.41c-27.28 0-52.51 8.73-73.08 23.53 24.39-22.13 56.77-35.62 92.29-35.62 75.89 0 137.42 61.52 137.42 137.42s-61.52 137.42-137.42 137.42Z"></path></svg>