<svg data-name="Layer 1" xmlns="http://www.w3.org/2000/svg" viewBox="0 0 620.76 620.67"><path d="M620.76 210.1 620.72 0H410.47L310.36 99.99 210.25 0H0v210.06l100.1 100.19L0 410.47v210.21h210.25l100.11-100.17 100.11 100.17h210.25V410.47l-100.1-100.22 100.14-100.14ZM565.18 55.37v98.82H466.4V55.38h98.78ZM225.09 185.14l-14.64-14.63V78.65l60.57 60.57-45.93 45.93Zm39.54 39.54L410.67 78.65v91.86L310.56 270.62l-45.93-45.93ZM154.71 55.38v98.82H55.94V55.38h98.78Zm16.31 154.51 100.13 100.13-46 46L79.03 209.89h92Zm-31.34 139.42 46.09 46.09-14.75 14.75H78.85l60.83-60.84ZM55.93 564.66v-98.82h98.78v98.82H55.94Zm154.51-23.14v-91.99l100.11-100.11 46 46-146.1 146.1Zm139.49-60.72 46-46 14.72 14.72v91.99l-60.72-60.72Zm116.46 83.86v-98.82h98.78v98.82h-98.78Zm-16.31-154.51L349.95 310.02l46.09-46.09 146.22 146.22h-92.17Zm31.34-139.6-46-46 14.66-14.66h92l-60.65 60.65Z"></path></svg>