<svg xmlns="http://www.w3.org/2000/svg" width="599.7" viewBox="0 0 599.7 600.7" height="600.7"><path class="st0" d="M572.3 173.2H314.8v111.9h284.9c-1.7-38.7-11-76.7-27.4-111.9zM314.8 427.3h257.5c16.3-35.1 25.7-73.1 27.4-111.9H314.8v111.9zM0 285.1h284.9V173.2H27.5C11.1 208.4 1.8 246.4 0 285.1zM27.5 427.3H285V315.4H0c1.8 38.7 11.1 76.7 27.5 111.9zM314.8 0v142.7h241.7C495.1 48 403.8 4.7 314.8 0zM314.8 600.7c89-4.8 180.3-48 241.7-142.8H314.8v142.8zM43.3 142.8H285V0C195.9 4.7 104.6 48 43.3 142.8zM284.9 600.7V457.9H43.3c61.3 94.8 152.6 138 241.6 142.8z"></path></svg>