<svg data-name="Layer 1" xmlns="http://www.w3.org/2000/svg" viewBox="0 0 617.43 617.4"><path d="M368.9 123.22 374.97 0H242.48l6.07 123.22H368.9z"></path><path d="m617.43 242.5-168.85 8.28 125.28-113.5-93.68-93.69-113.52 125.26 1.58-32.18H249.21l1.57 32.01L137.47 43.46l-93.75 93.62 125.2 113.6L.08 242.27 0 374.76l168.85-8.22L43.53 479.99l93.64 93.73 113.57-125.21-1.6 32.22h119.04l-1.58-32.18 113.48 125.3 93.71-93.66-125.23-113.54 168.84 8.34.03-132.49z"></path><path d="m248.47 494.18-6.11 123.17 132.49.05-6.02-123.22H248.47z"></path></svg>