<svg data-name="Layer 1" xmlns="http://www.w3.org/2000/svg" viewBox="0 0 617.4 617.4"><path d="M446.83 196.08c-34.67 0-63.03-28.36-63.03-63.03V0h-64.5v170.14c0 70.38 57.58 127.96 127.96 127.96H617.4V196.08H446.83ZM319.3 447.26V617.4h64.5V484.35c0-34.67 28.36-63.03 63.03-63.03H617.4V319.3H447.26c-70.38 0-127.96 57.58-127.96 127.96ZM233.6 133.05c0 34.67-28.36 63.03-63.03 63.03H0V298.1h170.14c70.38 0 127.96-57.58 127.96-127.96V0h-64.5v133.05ZM170.14 319.3H0v102.02h170.57c34.67 0 63.03 28.36 63.03 63.03V617.4h64.5V447.26c0-70.38-57.58-127.96-127.96-127.96Z"></path></svg>