<svg data-name="Layer 1" xmlns="http://www.w3.org/2000/svg" viewBox="0 0 621.41 604.09"><path d="M598.85 271.95 473.8 146.9l-74.65 74.65c-16.31 16.3-26.31 37.19-28.97 59.74h-47.4v-2.32c0-9.1 3.61-17.83 10.05-24.26l124.35-124.34-74.65-74.65c-16.3-16.31-37.19-26.31-59.74-28.97V0h-24.16v26.75c-22.55 2.66-43.44 12.66-59.74 28.97l-74.65 74.65 124.35 124.34c6.43 6.43 10.05 15.16 10.05 24.26v2.32h-47.46c-2.6-21.85-12.17-43.01-28.9-59.74l-74.65-74.65L22.55 271.96C16.57 277.94 8.46 281.3 0 281.3v24.16c8.46 0 16.57 3.36 22.55 9.34l125.06 125.06 74.65-74.65c16.73-16.73 26.31-37.9 28.9-59.74h47.46v47.4c-22.55 2.66-43.44 12.66-59.74 28.97l-74.65 74.65 125.06 125.06c5.98 5.98 9.34 14.09 9.34 22.55s24.16 0 24.16 0c0-8.46 3.36-16.57 9.34-22.55l125.06-125.06-74.65-74.65c-16.3-16.31-37.19-26.31-59.74-28.97v-47.4h47.4c2.66 22.55 12.66 43.44 28.97 59.74l74.65 74.65 125.05-125.05c5.98-5.98 14.1-9.34 22.56-9.34v-24.16c-8.46 0-16.58-3.36-22.56-9.34Zm-393.68 76.17-57.57 57.57L35.29 293.38l112.31-112.3 57.57 57.56c12.01 12.01 19.16 27.03 21.61 42.66h-14.62l-68.89-68.89-17.08 17.08 51.8 51.8h-36.38L107 246.68l-17.08 17.08 17.53 17.53H73.4v24.16h34.05l-17.53 17.53L107 340.06l34.61-34.62h36.38l-51.8 51.81 17.08 17.08 68.89-68.89h14.62c-2.45 15.62-9.6 30.65-21.61 42.66Zm160.27 50.79 57.57 57.57L310.7 568.79 198.39 456.48l57.57-57.57c11.73-11.73 26.58-19.14 42.66-21.65v14.66l-68.89 68.89 17.08 17.08 51.8-51.81v36.38L264 497.07l17.08 17.08 17.53-17.53v34.04h24.16v-34.04l17.53 17.53 17.08-17.08-34.62-34.61v-36.38l51.81 51.81 17.08-17.08-68.89-68.89v-14.66c16.08 2.51 30.93 9.92 42.66 21.65ZM310.7 242.67l-112.31-112.3 57.57-57.57c11.73-11.73 26.58-19.14 42.66-21.65v14.66l-68.89 68.89 17.08 17.08 51.8-51.8v36.37L264 170.97l17.08 17.08 17.53-17.53v41.44h24.16v-41.44l17.53 17.53 17.08-17.08-34.62-34.62V99.98l51.81 51.8 17.08-17.08-68.89-68.89V51.16c16.08 2.51 30.93 9.92 42.66 21.65l57.57 57.57-112.31 112.3Zm163.1 163.02-57.56-57.57c-11.73-11.73-19.14-26.58-21.65-42.66h14.66l68.89 68.89 17.08-17.08-51.81-51.81h36.38l34.62 34.62L531.49 323l-17.53-17.53h34.05v-24.16h-34.04l17.53-17.52-17.08-17.09-34.62 34.62h-36.38l51.81-51.8-17.08-17.08-68.89 68.89H394.6c2.51-16.08 9.92-30.93 21.65-42.66l57.56-57.56 112.31 112.3-112.31 112.31Z"></path></svg>