<svg xmlns="http://www.w3.org/2000/svg" width="610.1" viewBox="0 0 610.1 528.4" height="528.4"><path d="M457.6 0H152.5L0 264.2l152.5 264.2h305.1l152.5-264.2L457.6 0zm42.1 254.9c5 0 9.1 4.1 9.1 9.1s-4.1 9.1-9.1 9.1-9.1-4.1-9.1-9.1 4.1-9.1 9.1-9.1zm-32.5 54.4c6 0 10.8 4.9 10.8 10.8 0 6-4.9 10.8-10.8 10.8-6 0-10.8-4.9-10.8-10.8s4.8-10.8 10.8-10.8zm-32.3-54.4c5 0 9.1 4.1 9.1 9.1s-4.1 9.1-9.1 9.1-9.1-4.1-9.1-9.1 4.1-9.1 9.1-9.1zm0 107.7c7.6 0 13.7 6.1 13.7 13.7s-6.1 13.7-13.7 13.7-13.7-6.1-13.7-13.7c.1-7.6 6.2-13.7 13.7-13.7zm-32.4-53.3c6 0 10.8 4.9 10.8 10.8 0 6-4.9 10.8-10.8 10.8-6 0-10.8-4.9-10.8-10.8-.1-5.9 4.8-10.8 10.8-10.8zm-32.3-54.4c5 0 9.1 4.1 9.1 9.1s-4.1 9.1-9.1 9.1-9.1-4.1-9.1-9.1c-.1-5 4-9.1 9.1-9.1zm0 107.7c7.6 0 13.7 6.1 13.7 13.7s-6.1 13.7-13.7 13.7-13.7-6.1-13.7-13.7 6.1-13.7 13.7-13.7zM303.1 39.7c30.9 0 56 25.1 56 56s-25.1 56-56 56-56-25.1-56-56 25-56 56-56zm45.4 280.4c0 6-4.9 10.8-10.8 10.8-6 0-10.8-4.9-10.8-10.8 0-6 4.9-10.8 10.8-10.8 6 0 10.8 4.9 10.8 10.8zm-43.1 42.5c7.6 0 13.7 6.1 13.7 13.7S313 390 305.4 390s-13.7-6.1-13.7-13.7 6.1-13.7 13.7-13.7zm-9.1-98.6c0-5 4.1-9.1 9.1-9.1s9.1 4.1 9.1 9.1-4.1 9.1-9.1 9.1-9.1-4.1-9.1-9.1zm-12.6 56.1c0 6-4.9 10.8-10.8 10.8s-10.8-4.9-10.8-10.8c0-6 4.9-10.8 10.8-10.8s10.8 4.9 10.8 10.8zm-43.1-65.2c5 0 9.1 4.1 9.1 9.1s-4.1 9.1-9.1 9.1-9.1-4.1-9.1-9.1 4.1-9.1 9.1-9.1zm0 107.7c7.6 0 13.7 6.1 13.7 13.7s-6.1 13.7-13.7 13.7-13.7-6.1-13.7-13.7 6.2-13.7 13.7-13.7zm-32.5-53.3c6 0 10.8 4.9 10.8 10.8 0 6-4.9 10.8-10.8 10.8s-10.8-4.9-10.8-10.8 4.8-10.8 10.8-10.8zm-32.3-54.4c5 0 9.1 4.1 9.1 9.1s-4.1 9.1-9.1 9.1-9.1-4.1-9.1-9.1 4.1-9.1 9.1-9.1zm-.2 107.7c7.6 0 13.7 6.1 13.7 13.7s-6.1 13.7-13.7 13.7-13.7-6.1-13.7-13.7 6.2-13.7 13.7-13.7zm-32.5-53.3c6 0 10.8 4.9 10.8 10.8 0 6-4.9 10.8-10.8 10.8s-10.8-4.9-10.8-10.8 4.8-10.8 10.8-10.8zm-32.5-54.4c5 0 9.1 4.1 9.1 9.1s-4.1 9.1-9.1 9.1-9.1-4.1-9.1-9.1 4.1-9.1 9.1-9.1zm-65 18.2c-5 0-9.1-4.1-9.1-9.1s4.1-9.1 9.1-9.1 9.1 4.1 9.1 9.1c.1 5-4 9.1-9.1 9.1zM78.1 331c-6 0-10.8-4.9-10.8-10.8 0-6 4.9-10.8 10.8-10.8 6 0 10.8 4.9 10.8 10.8.1 5.9-4.8 10.8-10.8 10.8zm33 59c-7.6 0-13.7-6.1-13.7-13.7s6.1-13.7 13.7-13.7 13.7 6.1 13.7 13.7-6.2 13.7-13.7 13.7zm32 57.3c-8.2 0-14.8-6.6-14.8-14.8s6.6-14.8 14.8-14.8 14.8 6.6 14.8 14.8-6.6 14.8-14.8 14.8zm32.4 57.1c-8.7 0-15.8-7.1-15.8-15.8s7.1-15.8 15.8-15.8c8.7 0 15.8 7.1 15.8 15.8s-7.1 15.8-15.8 15.8zm32.6-57.1c-8.2 0-14.8-6.6-14.8-14.8s6.6-14.8 14.8-14.8 14.8 6.6 14.8 14.8-6.6 14.8-14.8 14.8zm32.2 57.1c-8.7 0-15.8-7.1-15.8-15.8s7.1-15.8 15.8-15.8c8.7 0 15.8 7.1 15.8 15.8s-7.1 15.8-15.8 15.8zm32.6-57.1c-8.2 0-14.8-6.6-14.8-14.8s6.6-14.8 14.8-14.8 14.8 6.6 14.8 14.8-6.6 14.8-14.8 14.8zm32.2 57.1c-8.7 0-15.8-7.1-15.8-15.8s7.1-15.8 15.8-15.8c8.7 0 15.8 7.1 15.8 15.8s-7.1 15.8-15.8 15.8zm32.6-57.1c-8.2 0-14.8-6.6-14.8-14.8s6.6-14.8 14.8-14.8 14.8 6.6 14.8 14.8-6.6 14.8-14.8 14.8zm32.1 57.1c-8.7 0-15.8-7.1-15.8-15.8s7.1-15.8 15.8-15.8c8.7 0 15.8 7.1 15.8 15.8s-7 15.8-15.8 15.8zm32.7-57.1c-8.2 0-14.8-6.6-14.8-14.8s6.6-14.8 14.8-14.8c8.2 0 14.8 6.6 14.8 14.8s-6.7 14.8-14.8 14.8zm32.1 57.1c-8.7 0-15.8-7.1-15.8-15.8s7.1-15.8 15.8-15.8c8.7 0 15.8 7.1 15.8 15.8s-7 15.8-15.8 15.8zm32.6-57.1c-8.2 0-14.8-6.6-14.8-14.8 0-8.2 6.6-14.8 14.8-14.8 8.2 0 14.8 6.6 14.8 14.8 0 8.1-6.6 14.8-14.8 14.8zm32.5-57.3c-7.6 0-13.7-6.1-13.7-13.7s6.1-13.7 13.7-13.7 13.7 6.1 13.7 13.7-6.1 13.7-13.7 13.7zm32.3-59c-6 0-10.8-4.9-10.8-10.8 0-6 4.9-10.8 10.8-10.8 6 0 10.8 4.9 10.8 10.8S538 331 532 331zm32.5-57.9c-5 0-9.1-4.1-9.1-9.1s4.1-9.1 9.1-9.1 9.1 4.1 9.1 9.1-4.1 9.1-9.1 9.1z"></path></svg>