<svg id="Layer_1" data-name="Layer 1" xmlns="http://www.w3.org/2000/svg" viewBox="0 0 601.95 601.95">   <path d="M591.22,382.87V219.08c6.15-1.55,10.73-7.08,10.73-13.71,0-7.82-6.35-14.18-14.17-14.18-2.66,0-5.12,.78-7.25,2.06L408.69,21.43c1.28-2.13,2.06-4.59,2.06-7.25,0-7.82-6.36-14.18-14.18-14.18-6.62,0-12.16,4.59-13.7,10.74H219.08c-1.55-6.15-7.08-10.74-13.7-10.74-7.82,0-14.18,6.36-14.18,14.18,0,2.66,.78,5.12,2.06,7.25L21.42,193.26c-2.13-1.28-4.59-2.06-7.25-2.06-7.82,0-14.18,6.36-14.18,14.18,0,6.62,4.59,12.16,10.74,13.7v163.79c-6.15,1.55-10.74,7.08-10.74,13.7,0,7.82,6.36,14.18,14.18,14.18,2.66,0,5.12-.78,7.25-2.06l171.83,171.83c-1.28,2.13-2.06,4.59-2.06,7.25,0,7.82,6.36,14.18,14.18,14.18,6.62,0,12.16-4.59,13.7-10.74h163.79c1.55,6.15,7.08,10.74,13.7,10.74,7.82,0,14.18-6.36,14.18-14.18,0-2.66-.78-5.12-2.06-7.25l171.83-171.84c2.13,1.28,4.59,2.06,7.25,2.06,7.82,0,14.17-6.36,14.17-14.18,0-6.62-4.58-12.16-10.73-13.71Zm-191.2,191.2v-163.79c5.04-1.27,9-5.22,10.27-10.26h163.79c.34,1.36,.88,2.64,1.59,3.81l-171.83,171.84c-1.18-.71-2.45-1.25-3.82-1.59Zm-10.69,1.59l-171.83-171.84c.71-1.17,1.25-2.45,1.59-3.81h163.79c1.27,5.04,5.22,8.99,10.26,10.26v163.79c-1.36,.34-2.64,.88-3.81,1.59Zm-191.2,0L26.29,403.83c.71-1.17,1.25-2.45,1.59-3.81H191.67c1.27,5.04,5.22,8.99,10.26,10.26v163.79c-1.36,.34-2.64,.88-3.81,1.59ZM27.88,208.82H191.67c.34,1.36,.88,2.64,1.59,3.81L21.42,384.46c-1.17-.71-2.45-1.25-3.81-1.59V219.08c5.04-1.27,8.99-5.22,10.26-10.26ZM201.93,27.88V191.67c-5.04,1.27-8.99,5.22-10.26,10.26H27.88c-.34-1.36-.88-2.64-1.59-3.81L198.13,26.29c1.17,.71,2.45,1.25,3.81,1.59Zm10.69-1.59l171.84,171.84c-.71,1.17-1.25,2.45-1.59,3.81H219.08c-1.27-5.04-5.22-8.99-10.26-10.26V27.88c1.36-.34,2.64-.88,3.81-1.59Zm191.2,0l171.84,171.84c-.71,1.17-1.25,2.45-1.59,3.81h-163.79c-1.27-5.04-5.22-9-10.27-10.26V27.88c1.36-.34,2.64-.88,3.81-1.59Zm-7.25,377.58c-4.02,0-7.3-3.27-7.3-7.3s3.27-7.3,7.3-7.3,7.3,3.27,7.3,7.3-3.28,7.3-7.3,7.3Zm-13.7-10.74H219.08c-1.27-5.04-5.22-8.99-10.26-10.26V219.08c5.04-1.27,8.99-5.22,10.26-10.26h163.79c1.27,5.04,5.22,8.99,10.26,10.26v163.79c-5.04,1.27-8.99,5.22-10.26,10.26Zm-191.2,0H27.88c-.34-1.36-.88-2.64-1.59-3.81L198.13,217.49c1.17,.71,2.45,1.25,3.81,1.59v163.79c-5.04,1.27-8.99,5.22-10.26,10.26Zm13.7-195.06c4.02,0,7.3,3.27,7.3,7.3s-3.27,7.3-7.3,7.3-7.3-3.27-7.3-7.3,3.27-7.3,7.3-7.3Zm198.45,186.38c-1.18-.71-2.45-1.25-3.81-1.59V219.08c5.04-1.27,9-5.22,10.27-10.26h163.79c.34,1.36,.88,2.64,1.59,3.81l-171.84,171.84Zm-7.25-186.38c4.03,0,7.3,3.27,7.3,7.3s-3.28,7.3-7.3,7.3-7.3-3.27-7.3-7.3,3.27-7.3,7.3-7.3Zm-191.2,205.79c-4.02,0-7.3-3.27-7.3-7.3s3.27-7.3,7.3-7.3,7.3,3.27,7.3,7.3-3.27,7.3-7.3,7.3Zm368.7-10.74h-163.79c-.34-1.36-.88-2.64-1.59-3.81l171.84-171.84c1.18,.71,2.45,1.25,3.81,1.59v163.79c-5.04,1.27-9,5.22-10.27,10.26Zm13.7-195.06c4.02,0,7.3,3.27,7.3,7.3s-3.28,7.3-7.3,7.3-7.3-3.27-7.3-7.3,3.28-7.3,7.3-7.3ZM396.58,6.88c4.03,0,7.3,3.27,7.3,7.3s-3.28,7.3-7.3,7.3-7.3-3.27-7.3-7.3,3.27-7.3,7.3-7.3Zm-3.44,21V191.67c-1.36,.34-2.64,.88-3.81,1.59L217.49,21.43c.71-1.17,1.25-2.45,1.59-3.81h163.79c1.27,5.04,5.22,8.99,10.26,10.26ZM205.37,6.88c4.02,0,7.3,3.27,7.3,7.3s-3.27,7.3-7.3,7.3-7.3-3.27-7.3-7.3,3.27-7.3,7.3-7.3ZM6.88,205.38c0-4.02,3.27-7.3,7.3-7.3s7.3,3.27,7.3,7.3-3.27,7.3-7.3,7.3-7.3-3.27-7.3-7.3Zm7.3,198.5c-4.02,0-7.3-3.27-7.3-7.3s3.27-7.3,7.3-7.3,7.3,3.27,7.3,7.3-3.27,7.3-7.3,7.3Zm191.2,191.2c-4.02,0-7.3-3.27-7.3-7.3s3.27-7.3,7.3-7.3,7.3,3.27,7.3,7.3-3.27,7.3-7.3,7.3Zm3.44-21v-163.79c1.36-.34,2.64-.88,3.81-1.59l171.83,171.84c-.71,1.17-1.25,2.45-1.59,3.81H219.08c-1.27-5.04-5.22-8.99-10.26-10.26Zm187.76,21c-4.02,0-7.3-3.27-7.3-7.3s3.27-7.3,7.3-7.3,7.3,3.27,7.3,7.3-3.28,7.3-7.3,7.3Zm191.2-191.2c-4.03,0-7.3-3.27-7.3-7.3s3.28-7.3,7.3-7.3,7.3,3.27,7.3,7.3-3.28,7.3-7.3,7.3Z"></path> </svg>