<svg data-name="Layer 1" xmlns="http://www.w3.org/2000/svg" viewBox="0 0 596.89 442.61"><path d="M592.01 328.96a16.568 16.568 0 0 1-5.4 3.61 16.673 16.673 0 0 1-18.16-3.61l-65.36-65.36-174.14 174.14c-6.51 6.51-17.06 6.51-23.56 0L193.75 326.1c-6.51-6.51-6.51-17.06 0-23.56L367.89 128.4l-88.17-88.17-174.14 174.13c-6.51 6.51-17.06 6.51-23.56 0l-48.7-48.7v205.62h151.73c9.2 0 16.66 7.46 16.66 16.66s-7.46 16.66-16.66 16.66H16.66C7.46 404.6 0 397.14 0 387.94v-262.5c0-6.74 4.06-12.81 10.28-15.39a16.673 16.673 0 0 1 18.16 3.61l65.36 65.36L267.94 4.88c6.51-6.51 17.06-6.51 23.56 0l111.73 111.73c6.51 6.51 6.51 17.06 0 23.56L229.09 314.31l88.08 88.08 174.14-174.14c6.51-6.51 17.06-6.51 23.56 0l48.7 48.7V71.33H411.85c-9.2 0-16.66-7.46-16.66-16.66s7.46-16.66 16.66-16.66h168.39c4.42 0 8.66 1.75 11.78 4.88 3.12 3.12 4.88 7.36 4.88 11.78v262.5c0 4.51-1.82 8.72-4.88 11.78Z"></path></svg>