<svg xmlns="http://www.w3.org/2000/svg" width="573.4" viewBox="0 0 573.4 597.1" height="597.1"><path d="M472.7 159C417.3 159 372 204.3 372 259.7v117.9h39v219.5h123.4V377.6h39V259.7c0-55.4-45.3-100.7-100.7-100.7z"></path><circle cx="472.7" cy="71.8" r="71.8"></circle><path d="M313.2 159c-23.4 0-45 8.1-62.1 21.6-23.4 18.5-38.5 47.1-38.5 79v117.9h39V597h97.8V165.8c-11.4-4.4-23.5-6.8-36.2-6.8zM249.3 35.8c-6.1 10.6-9.7 22.9-9.7 36s3.5 25.4 9.7 36c12.4 21.4 35.6 35.8 62.1 35.8 13.2 0 25.5-3.6 36.1-9.7V9.7C336.9 3.6 324.6 0 311.4 0c-26.5 0-49.7 14.4-62.1 35.8zM0 259.7v117.9h39v219.5h27.2v-432C27.7 179.3 0 216.4 0 259.7zM89 259.7v117.9h39v219.5h61.7V159c-16 0-31.1 3.8-44.5 10.5C112 186 89 220.3 89 259.7zM26.3 71.8c0 27.2 15.1 50.8 37.3 63V8.8C41.4 21 26.3 44.6 26.3 71.8zM115.4 71.8c0 22.8 10.7 43.2 27.3 56.3 12.2 9.7 27.7 15.5 44.5 15.5V0c-16.8 0-32.3 5.8-44.5 15.5C126 28.6 115.4 49 115.4 71.8z"></path></svg>