<svg xmlns="http://www.w3.org/2000/svg" width="302.8" viewBox="0 0 302.8 619.2" height="619.2" xml:space="preserve" style="enable-background:new 0 0 302.8 619.2"><path d="m302.8 231.8-22.1-22.1v178.2l-28.8 28.8-18.1-18.1V0L210 23.8v367.4L185.2 416l-21.4-21.4V69.3L140 93.1v300.7l-20.8 20.8-23.8-23.8V137.6L72 161.4v230.1L48.6 415l-23.8-23.8V207.3L.7 231.4.3 399.9l34.5 34.5L.3 468.5 32.8 501 0 533.5l83.1 83.1 32.8-32.8 35.5 35.5 34.8-34.8 32.5 32.5 82.7-82.7-34.8-34.8 34.5-34.5-31.8-32 33.5-33.5V231.8zM222.4 416l17.7 17.8-17.7 17.7-17.4-17.8 17.4-17.7zm16.1 87L221 520.8 203.3 503l17.7-17.7 17.5 17.7zm-52.6-53.2 17.8 17.8-17.8 17.8-17.7-17.8 17.7-17.8zM168.5 503l-17.7 17.8L133 503l17.8-17.4 17.7 17.4zm-17.1-87.4 17.4 17.7-17.4 17.7-17.7-17.7 17.7-17.7zm-16.8 51.9-17.4 17.4-17.7-17.4 17.7-17.4 17.4 17.4zM101.1 503l-17.7 17.8L66 503l17.4-17.7 17.7 17.7zm-17.7-86 17.7 17.8-17.7 17.8L66 434.7 83.4 417zm-52.6 50.5 17.7-17.4L66 467.5l-17.4 17.8-17.8-17.8zm1 66 17.7-17.4 17.7 17.4-17.7 17.7-17.7-17.7zm51.3 53.6-17.4-17.7 17.4-17.8 17.7 18.1-17.7 17.4zm16.7-53.6 17.8-17.4 17.7 17.4-17.7 17.7-17.8-17.7zm50.9 54.3L133 570l17.8-17.8 17.7 17.8-17.8 17.8zm35.2-36.5-17.7-17.7 17.7-17.4 17.8 17.4-17.8 17.7zm35.5 35.8-17.7-17.7 17.7-17.8 17.7 17.8-17.7 17.7zm48.5-53.6-17.8 17.7-17.7-17.7 17.7-17.4 17.8 17.4zm0-66-17.8 17.8-17.4-17.8 17.4-17.4 17.8 17.4z"></path></svg>