<svg id="Layer_1" data-name="Layer 1" xmlns="http://www.w3.org/2000/svg" viewBox="0 0 599.63 446.51">   <polygon points="437.14 231.63 437.14 195.44 299.82 129.84 299.82 129.84 162.49 195.44 162.49 231.63 208.13 253.43 208.13 224.22 299.82 180.43 299.82 180.43 391.5 224.22 391.5 253.43 437.14 231.63"></polygon>   <polygon points="208.13 94.38 299.82 50.59 299.82 50.59 391.5 94.38 391.5 123.59 437.14 101.79 437.14 65.6 299.82 0 299.82 0 162.49 65.6 162.49 101.79 208.13 123.6 208.13 94.38"></polygon>   <polygon points="244.47 278.46 137.32 227.27 0 292.87 0 414.1 45.64 414.1 45.64 321.65 137.32 277.86 191.52 303.75 244.47 278.46"></polygon>   <polygon points="45.64 191.81 137.32 148.02 191.53 173.91 244.47 148.62 137.32 97.43 0 163.03 0 285.21 45.64 263.41 45.64 191.81"></polygon>   <polygon points="299.82 259.68 162.49 325.28 162.49 446.51 208.13 446.51 208.13 354.06 299.82 310.27 299.82 310.27 391.5 354.06 391.5 446.51 437.14 446.51 437.14 325.28 299.82 259.68 299.82 259.68"></polygon>   <polygon points="320.07 197.76 318.07 196.81 318.07 197.76 320.07 197.76"></polygon>   <polygon points="355.16 278.46 408.11 303.75 462.31 277.86 553.99 321.65 553.99 414.1 599.63 414.1 599.63 292.87 462.31 227.27 355.16 278.46"></polygon>   <polygon points="462.31 97.43 355.16 148.62 408.11 173.91 462.31 148.02 553.99 191.81 553.99 263.41 599.63 285.21 599.63 163.03 462.31 97.43"></polygon> </svg>