<svg xmlns="http://www.w3.org/2000/svg" width="610.1" viewBox="0 0 610.1 609.9" height="609.9" xml:space="preserve" style="enable-background:new 0 0 610.1 609.9"><circle cx="100.9" cy="100.9" r="100.9"></circle><circle cx="305.1" cy="100.9" r="100.9"></circle><path d="M305.1 204.7c-111.9 0-202.6 90.7-202.6 202.6 0 111.9 90.7 202.6 202.6 202.6s202.6-90.7 202.6-202.6c-.1-111.9-90.8-202.6-202.6-202.6zm0 401.3c-54.2 0-98.2-44-98.2-98.2s44-98.2 98.2-98.2 98.2 44 98.2 98.2-44 98.2-98.2 98.2zm0-201c-54.2 0-98.2-44-98.2-98.2s44-98.2 98.2-98.2 98.2 44 98.2 98.2c0 54.3-44 98.2-98.2 98.2z"></path><circle cx="509.3" cy="100.9" r="100.9"></circle></svg>