<svg xmlns="http://www.w3.org/2000/svg" width="566.2" viewBox="0 0 566.2 608.5" height="608.5" xml:space="preserve"><path d="M303.4 134.9c3.4 5.9 9.8 9.6 16.6 9.6h61.3c6.9 0 13.2-3.7 16.6-9.6l30.6-53.1c3.4-5.9 3.4-13.3 0-19.2l-30.6-53c-3.4-5.9-9.8-9.6-16.6-9.6H320c-6.9 0-13.2 3.7-16.6 9.6l-30.6 53.1c-3.4 6-3.4 13.3 0 19.2l30.6 53zM397.9 318.9c-3.4-5.9-9.8-9.6-16.6-9.6H320c-6.9 0-13.2 3.7-16.6 9.6L272.8 372c-3.4 5.9-3.4 13.3 0 19.2l30.6 53.1c3.4 5.9 9.8 9.6 16.6 9.6h61.3c6.9 0 13.2-3.7 16.6-9.6l30.6-53.1c3.4-5.9 3.4-13.3 0-19.2l-30.6-53.1zM397.9 473.5c-3.4-5.9-9.8-9.6-16.6-9.6H320c-6.9 0-13.2 3.7-16.6 9.6l-30.6 53.1c-3.4 5.9-3.4 13.3 0 19.2l30.6 53.1c3.4 5.9 9.8 9.6 16.6 9.6h61.3c6.9 0 13.2-3.7 16.6-9.6l30.6-53.1c3.4-5.9 3.4-13.3 0-19.2l-30.6-53.1zM168.3 212.3c3.4 5.9 9.8 9.6 16.6 9.6h61.3c6.9 0 13.2-3.7 16.6-9.6l30.6-53.1c3.4-5.9 3.4-13.3 0-19.2l-30.6-53.1c-3.4-5.9-9.8-9.6-16.6-9.6h-61.3c-6.9 0-13.2 3.7-16.6 9.6L137.6 140c-3.4 6-3.4 13.3 0 19.2l30.7 53.1zM293.5 294.6l-30.6-53.1c-3.4-5.9-9.8-9.6-16.6-9.6H185c-6.9 0-13.2 3.7-16.6 9.6l-30.6 53.1c-3.4 5.9-3.4 13.3 0 19.2l30.6 53.1c3.4 5.9 9.8 9.6 16.6 9.6h61.3c6.9 0 13.2-3.7 16.6-9.6l30.6-53.1c3.4-5.9 3.4-13.2 0-19.2M563.6 449.2l-30.6-53c-3.4-5.9-9.8-9.6-16.6-9.6h-61.3c-6.9 0-13.2 3.7-16.6 9.6l-30.6 53.1c-3.4 5.9-3.4 13.3 0 19.2l30.6 53.1c3.4 5.9 9.8 9.6 16.6 9.6h61.3c6.9 0 13.2-3.7 16.6-9.6l30.6-53.1c3.5-6 3.5-13.3 0-19.3M127.8 318.9c-3.4-5.9-9.8-9.6-16.6-9.6H49.9c-6.9 0-13.2 3.7-16.6 9.6l-30.7 53c-3.4 5.9-3.4 13.3 0 19.2l30.6 53.1c3.4 5.9 9.8 9.6 16.6 9.6h61.3c6.9 0 13.2-3.7 16.6-9.6l30.6-53.1c3.4-5.9 3.4-13.3 0-19.2l-30.5-53z"></path></svg>