<svg data-name="Layer 1" xmlns="http://www.w3.org/2000/svg" viewBox="0 0 621.7 621.7"><path d="M310.85 0C139.45 0 0 139.45 0 310.85S139.45 621.7 310.85 621.7 621.7 482.25 621.7 310.85 482.25 0 310.85 0Zm133.16 112.18L305.5 389.99 169.79 117.76c39.58-29 88.34-46.17 141.06-46.17 49.25 0 95.07 14.97 133.16 40.59ZM71.59 310.85c0-51.98 16.71-100.1 44.98-139.38l188.7 378.5C175.92 546.99 71.59 440.91 71.59 310.85Zm239.26 239.26c-1.71 0-3.41-.09-5.11-.13L498.7 162.94c32.15 40.74 51.4 92.1 51.4 147.91 0 131.92-107.33 239.26-239.26 239.26Z"></path></svg>