<svg id="Layer_1" data-name="Layer 1" xmlns="http://www.w3.org/2000/svg" viewBox="0 0 613.48 613.48">   <circle cx="524.14" cy="89.34" r="89.34"></circle>   <path d="M546.8,437.81v-153.72h-153.72c-10.04-38.35-44.83-66.69-86.33-66.69s-76.29,28.34-86.33,66.69H111.99v-108.42c38.35-10.04,66.69-44.83,66.69-86.33C178.68,40,138.68,0,89.34,0S0,40,0,89.34c0,41.5,28.34,76.29,66.69,86.33V437.81C28.34,447.85,0,482.64,0,524.14c0,49.34,40,89.34,89.34,89.34s89.34-40,89.34-89.34c0-41.5-28.34-76.29-66.69-86.33v-108.42h108.42c10.04,38.35,44.83,66.69,86.33,66.69s76.29-28.34,86.33-66.69h108.42v108.42c-38.35,10.04-66.69,44.83-66.69,86.33,0,49.34,40,89.34,89.34,89.34s89.34-40,89.34-89.34c0-41.5-28.34-76.29-66.69-86.33Z"></path> </svg>