<svg xmlns="http://www.w3.org/2000/svg" width="619.3" viewBox="0 0 619.3 484.2" height="484.2" style="enable-background:new 0 0 619.3 484.2" xml:space="preserve"><circle cx="194.9" cy="242.1" r="66.8"></circle><circle cx="424.4" cy="242.1" r="66.8"></circle><path d="M593.9 145.6c-16-28.9-38.7-54.7-67.5-76.7C468.2 24.5 391.3 0 309.6 0S151 24.5 92.9 68.9c-28.8 22-51.5 47.9-67.5 76.7C8.5 176.1 0 208.5 0 242.1c0 33.5 8.5 66 25.4 96.4 16 28.9 38.7 54.7 67.5 76.7 58.1 44.4 135.1 68.9 216.7 68.9s158.6-24.5 216.7-68.9c28.8-22 51.5-47.9 67.5-76.7 16.9-30.5 25.4-62.9 25.4-96.4.1-33.6-8.5-66-25.3-96.5zM309.6 409.3c-126.7 0-229.5-74.9-229.5-167.2 0-63.4 51.4-114.7 114.7-114.7 61.9 0 112.4 49 114.7 110.3 0 .1.1.1.1 0 2.3-61.3 52.8-110.3 114.7-110.3 63.4 0 114.7 51.4 114.7 114.7.1 92.3-102.6 167.2-229.4 167.2z"></path></svg>