<svg xmlns="http://www.w3.org/2000/svg" width="642" viewBox="0 0 642 642" height="642" style="overflow:visible;enable-background:new 0 0 642 642" xml:space="preserve"><path d="M642 321c0 177.3-143.7 321-321 321S0 498.3 0 321 143.7 0 321 0s321 143.7 321 321zM213.5 596.3c0 4.2 4 7.3 8.1 6.2l179.9-49.8c30.8-8.2 53.5-36.4 53.5-69.8s-22.7-61.5-53.5-69.8l-108.8-29.2c-3.8-1-6.5-4.4-6.5-8.5s2.8-7.5 6.5-8.5l108.8-30.2c30.8-8.2 53.5-36.4 53.5-69.8s-22.7-61.5-53.5-69.8l-108.8-29.2c-3.8-1-6.5-4.4-6.5-8.5s2.8-7.5 6.5-8.5l135.9-36.5c5.6-1.5 9.5-6.6 9.5-12.4V47.4c0-4.2-4-7.3-8.1-6.2l-179 48c-30.8 8.2-53.5 36.4-53.5 69.8s22.7 61.5 53.5 69.8L359.8 258c3.8 1 6.5 4.4 6.5 8.5s-2.8 7.5-6.5 8.5L251 305.2c-30.8 8.2-53.5 36.4-53.5 69.8s22.7 61.5 53.5 69.8L359.8 474c3.8 1 6.5 4.4 6.5 8.5s-2.8 7.5-6.5 8.5l-141.5 39.2c-2.8.8-4.7 3.3-4.7 6.2l-.1 59.9zM410.9 69.6c0 6.6-5.4 12-12 12s-12-5.4-12-12 5.4-12 12-12 12 5.3 12 12z"></path></svg>