<svg xmlns="http://www.w3.org/2000/svg" width="615.8" viewBox="0 0 615.8 568.4" height="568.4" xml:space="preserve" style="enable-background:new 0 0 615.8 568.4"><path d="M284.2 472.5c-104 0-188.3-84.3-188.3-188.3S180.2 95.9 284.2 95.9c42 0 80.8 13.7 112.1 37h128.5C474.5 53 385.5 0 284.2 0 127.2 0 0 127.2 0 284.2s127.2 284.2 284.2 284.2c102.8 0 192.9-54.6 242.8-136.3H400.8c-32 25.3-72.6 40.4-116.6 40.4z"></path><path d="M541.9 162.9H427.5l58.9 78.6h-54.5C413.4 177 354 129.9 283.6 129.9c-85.2 0-154.2 69.1-154.2 154.2 0 85.2 69.1 154.2 154.2 154.2 70.7 0 130.4-47.6 148.5-112.6h54.6l-59.3 79.1h114.4l73.9-121.3-73.8-120.6zM283.6 339.7c-30.7 0-55.5-24.9-55.5-55.5 0-30.7 24.8-55.5 55.5-55.5s55.5 24.8 55.5 55.5c0 30.6-24.8 55.5-55.5 55.5z"></path></svg>