<svg data-name="Layer 1" xmlns="http://www.w3.org/2000/svg" viewBox="0 0 609.17 608.18"><path d="M292.6.23C135.2 6.27 6.82 134.2.27 291.59c-6.9 165.81 118.84 303.72 279.82 316.54 10.93.87 20.27-7.88 20.27-18.84V445.63c0-14.31-8.04-27.18-20.53-34.16-16.05-8.97-26.73-26.39-25.99-46.26.95-25.34 24.52-48.41 49.88-48.84 28.45-.48 51.67 22.44 51.67 50.78 0 19.26-10.73 36-26.53 44.6-12.39 6.74-20.03 19.77-20.03 33.87v143.67c0 10.95 9.33 19.71 20.24 18.84 156.77-12.47 280.11-143.57 280.11-303.54C609.17 132.39 466.28-6.43 292.6.23Z"></path></svg>