<svg data-name="Layer 1" xmlns="http://www.w3.org/2000/svg" viewBox="0 0 437.59 620.87"><path d="m286.65 0-67.86 67.87L150.93 0 0 150.94v319l150.93 150.93 67.86-67.86 67.86 67.86 150.94-150.93v-319L286.65 0Zm120.51 426.92-105.3-105.3V58.24l105.3 105.3v263.38ZM271.44 58.24v62.27L240.3 89.37l31.14-31.14Zm-6.3 98.99L150.93 271.44 36.72 157.24 150.93 43.03l114.21 114.21Zm6.3 36.72v127.67L166.15 426.91V299.25l105.29-105.3Zm-241.02 0 105.3 105.3v263.39L30.42 457.35V193.96Zm135.73 368.68v-62.26l31.13 31.13-31.13 31.13Zm6.3-98.99 114.21-114.21 114.21 114.21-114.21 114.21-114.21-114.21Z"></path></svg>