<svg xmlns="http://www.w3.org/2000/svg" width="616.2" viewBox="0 0 616.2 617.2" height="617.2" style="enable-background:new 0 0 616.2 617.2" xml:space="preserve"><path d="M257.8 566.9c0 27.8 22.5 50.3 50.3 50.3 27.8 0 50.3-22.5 50.3-50.3 0-27.8-22.5-50.3-50.3-50.3-27.8.1-50.3 22.6-50.3 50.3m-54.5-77.3C140.7 453.4 98.6 385.7 98.6 308.1c0-115.7 93.8-209.5 209.5-209.5s209.5 93.8 209.5 209.5c0 77.5-42.1 145.2-104.8 181.5l-20.1 11.6v2.4h153.6c43.7-53.2 69.9-121.3 69.9-195.5C616.2 137.9 478.3 0 308.1 0 137.9 0 0 137.9 0 308.1c0 74.2 26.2 142.3 69.9 195.5h153.6v-2.4l-19.9-11.5-.3-.1z" style="fill-rule:evenodd;clip-rule:evenodd"></path></svg>