<svg xmlns="http://www.w3.org/2000/svg" width="642" viewBox="0 0 642 635.58" height="635.58" data-name="Layer 1"><path d="M352 307.76h266.33c13.07 0 23.67-10.6 23.67-23.67 0-13.07-10.6-23.67-23.67-23.67H423.28c-15.33 0-30.02 6.09-40.86 16.93L352 307.77ZM423.28 380.79h195.05c13.07 0 23.67-10.6 23.67-23.67 0-13.07-10.6-23.67-23.67-23.67H352l30.42 30.42a57.764 57.764 0 0 0 40.86 16.92ZM218.72 380.79H23.67C10.6 380.79 0 370.19 0 357.11c0-13.07 10.6-23.67 23.67-23.67H290l-30.42 30.42a57.764 57.764 0 0 1-40.86 16.92ZM308.16 351.6l-30.42 30.42a57.764 57.764 0 0 0-16.92 40.86v189.03c0 13.07 10.6 23.67 23.67 23.67 13.07 0 23.67-10.6 23.67-23.67V351.6ZM333.84 351.6l30.42 30.42a57.764 57.764 0 0 1 16.92 40.86v189.03c0 13.07-10.6 23.67-23.67 23.67-13.07 0-23.67-10.6-23.67-23.67V351.6ZM186.73 307.76H23.67C10.6 307.76 0 297.16 0 284.08c0-13.07 10.6-23.67 23.67-23.67h91.77c15.32 0 30.02 6.09 40.86 16.92l30.42 30.42ZM290 307.76h-43.03c-15.32 0-30.02-6.09-40.86-16.92L69.15 153.86c-9.06-9.06-10.4-23.98-1.82-33.5 9.15-10.16 24.81-10.47 34.36-.92l188.32 188.32ZM425.02 234.73h43.03c15.32 0 30.02-6.09 40.86-16.92l63.94-63.94c9.06-9.06 10.4-23.98 1.82-33.5-9.15-10.16-24.81-10.47-34.36-.92l-115.3 115.29ZM333.84 289.6v-43.03c0-15.32 6.09-30.02 16.92-40.86L487.73 68.74c9.06-9.06 23.98-10.4 33.5-1.82 10.16 9.15 10.47 24.81.92 34.36L333.83 289.6ZM235.13 216.57v-43.02c0-15.32-6.09-30.02-16.92-40.85l-63.95-63.95c-9.06-9.07-23.98-10.4-33.5-1.83-10.16 9.15-10.47 24.81-.92 34.36l115.29 115.29ZM308.16 289.6l-30.43-30.43a57.8 57.8 0 0 1-16.92-40.85V23.67C260.81 10.6 271.41 0 284.48 0c13.07 0 23.67 10.6 23.67 23.67V289.6ZM47.83 234.73c-15.07 0-27.28-12.22-27.28-27.28s12.22-27.28 27.28-27.28c7.53 0 14.36 3.05 19.29 7.99l46.58 46.58H47.83ZM357.51 0c-13.07 0-23.67 10.6-23.67 23.67v162.65l30.42-30.42a57.764 57.764 0 0 0 16.92-40.86V23.67C381.19 10.6 370.59 0 357.51 0ZM235.13 47.43c0-15.07-12.22-27.28-27.28-27.28s-27.28 12.22-27.28 27.28c0 7.53 3.05 14.36 7.99 19.29l46.58 46.57V47.43ZM453.45 66.72a27.192 27.192 0 0 0 7.99-19.29c0-15.07-12.22-27.28-27.28-27.28-15.07 0-27.28 12.22-27.28 27.28v65.87l46.58-46.58ZM594.17 234.73c15.07 0 27.28-12.22 27.28-27.28 0-15.07-12.22-27.28-27.28-27.28-7.53 0-14.36 3.05-19.29 7.99l-46.58 46.58h65.87Z"></path></svg>