<svg data-name="Layer 1" xmlns="http://www.w3.org/2000/svg" viewBox="0 0 608.14 481.52"><path d="M397.99 208.18c-21.59 81.83 27.38 165.96 109.21 187.51l17.87-67.77c-44.48-11.72-71.08-57.43-59.36-101.91 11.72-44.48 57.43-71.08 101.91-59.36l17.85-67.68c-81.82-21.58-165.94 27.4-187.48 109.22ZM585.49 98.97v-.09l-.02.09h.02Z"></path><path d="M488.27 232.03c-8.45 32.02 10.71 64.92 42.73 73.38l30.65-116.06v-.05c-32.02-8.45-64.92 10.71-73.38 42.73Z"></path><path d="M312.16 185.53c-34.14 129.34 43.05 261.85 172.39 295.99l16.68-63.22c-94.28-24.86-150.7-121.8-125.85-216.09 24.86-94.28 121.8-150.7 216.09-125.85l16.68-63.22C478.81-21 346.3 56.19 312.16 185.53Z"></path><path d="m0 13.14 16.68 63.22c94.28-24.86 191.23 31.57 216.09 125.85 24.86 94.28-31.57 191.23-125.85 216.09l16.68 63.22c129.34-34.14 206.53-166.65 172.39-295.99C261.85 56.19 129.34-21 0 13.14Z"></path><path d="M22.65 98.97h.02l-.02-.09v.09ZM210.16 208.18C188.61 126.36 104.5 77.38 22.67 98.96l17.85 67.68C85 154.92 130.71 181.53 142.43 226c11.72 44.48-14.89 90.19-59.36 101.91l17.87 67.77C182.77 374.13 231.75 290 210.15 208.17Z"></path><path d="M119.87 232.03c-8.45-32.02-41.35-51.18-73.38-42.73v.05l30.65 116.06c32.02-8.45 51.18-41.35 42.73-73.38ZM291.07 116.11c4.73 8.32 9.05 16.86 12.91 25.73 3.58-8.22 7.58-16.22 11.95-23.98 22.97-40.94 56.15-74.85 95.8-98.46l.09.05L398.26.37c-37.81 22.88-70.21 54.31-94.28 91.98-24.17-37.9-56.7-69.47-94.79-92.35l-13.51 19.11c39.33 23.29 72.37 56.65 95.38 96.99Z"></path></svg>