<svg data-name="Layer 1" xmlns="http://www.w3.org/2000/svg" viewBox="0 0 609.33 606.97"><path d="M312.21 472.75c15.17-2.88 27.4-15.11 30.27-30.27 5.15-27.15-18.21-50.5-45.36-45.36-15.17 2.87-27.4 15.11-30.27 30.27-5.15 27.15 18.21 50.5 45.36 45.36Z"></path><circle cx="456.66" cy="172.03" r="38.53"></circle><path d="M510.06 0v172.03c0 29.5-23.91 53.41-53.41 53.41s-53.41-23.91-53.41-53.41 23.91-53.41 53.41-53.41c15.16 0 28.81 6.34 38.53 16.49V24.27c-12.31-3.2-25.22-4.91-38.53-4.91-79.63 0-144.98 60.96-152.01 138.76-.76-8.41-2.14-16.65-4.21-24.62H189.59c10.14 9.72 16.49 23.37 16.49 38.53 0 29.5-23.91 53.41-53.41 53.41s-53.41-23.91-53.41-53.41 23.91-53.41 53.41-53.41h151.31V19.36H152.67C68.35 19.36 0 87.71 0 172.03S68.35 324.7 152.67 324.7c22.97 0 44.74-5.11 64.28-14.19-39.59 28.57-64.96 75.83-64.96 127.74v168.71h99.26V436.67c0-27.03 19.33-51.13 46.13-54.67 34.94-4.62 64.43 24.58 60.3 59.45-2.94 24.85-23.74 44.74-48.69 46.72-16.88 1.33-32.22-5.21-42.86-16.31V582.7c18.22 4.74 37.75 6.21 57.95 3.71 70.07-8.7 125.72-65.97 132.52-136.26 5.51-56.93-20.3-108.23-62.21-138.72 19.02 8.51 40.08 13.28 62.26 13.28 84.32 0 152.67-68.35 152.67-152.67V0h-99.26ZM292.04 282.77c-17.91 1.44-34.82 6.05-50.3 13.22 34.89-25.12 58.75-64.57 62.92-109.75 4.14 44.86 27.68 84.07 62.16 109.21-22.57-10.07-48.02-14.83-74.78-12.68Z"></path><circle cx="152.67" cy="172.03" r="38.53"></circle></svg>