<svg xmlns="http://www.w3.org/2000/svg" width="631.3" viewBox="0 0 631.3 595.5" height="595.5" style="enable-background:new 0 0 631.3 595.5" xml:space="preserve"><path d="M631.3 199.7 516 0H285.4l-56.6 98H115.3L0 297.7l115.3 199.7h113.4l56.6 98.1H516l115.3-199.7-56.6-98.1 56.6-98zM213.4 320.8l-43.3 75.1 32 55.5h-60.2L66.5 320.8h146.9zM462.7 46.1l-73.4 127L345.9 98H282l30-51.9h150.7zM66.5 274.7l75.4-130.6h177.4l69.9 121.1L502.6 69.1 578 199.7l-88.7 153.6H349.2l113.5 196.1H312l-88.7-153.6 68.7-119 1.2-2.2-226.7.1zM516 399.4l32.1-55.6 30 52-75.4 130.6-73.5-127H516z"></path></svg>