<svg xmlns="http://www.w3.org/2000/svg" width="616.8" viewBox="0 0 616.8 574.2" height="574.2" xml:space="preserve" style="enable-background:new 0 0 616.8 574.2"><path d="M427.5 149.9c0-65.7-53.4-119.1-119.1-119.1-65.7 0-119.1 53.4-119.1 119.1 0 44 24 82.5 59.6 103.1l6.8-11.8c-31.5-18.3-52.8-52.4-52.8-91.3 0-58.2 47.3-105.5 105.5-105.5s105.5 47.3 105.5 105.5c0 39-21.2 73.1-52.8 91.3l6.8 11.8c35.6-20.6 59.6-59.1 59.6-103.1zM255.4 424.3c0 58.2-47.3 105.5-105.5 105.5S44.4 482.5 44.4 424.3s47.3-105.5 105.5-105.5c19.2 0 37.2 5.2 52.7 14.2l6.8-11.8c-17.5-10.2-37.9-16-59.5-16-65.7 0-119.1 53.4-119.1 119.1 0 65.7 53.4 119.1 119.1 119.1 65.7 0 119.1-53.4 119.1-119.1h-13.6z"></path><path d="M234.6 149.9c0-40.7 33.1-73.8 73.8-73.8s73.8 33.1 73.8 73.8c0 27.3-14.9 51.1-36.9 63.9l6.8 11.8c26.1-15.1 43.7-43.4 43.7-75.7 0-48.2-39.2-87.4-87.4-87.4S221 101.7 221 149.9c0 32.3 17.6 60.5 43.7 75.7l6.8-11.8c-22.1-12.8-36.9-36.6-36.9-63.9zM223.7 424.3c0 40.7-33.1 73.8-73.8 73.8-40.7 0-73.8-33.1-73.8-73.8s33.1-73.8 73.8-73.8c13.4 0 26 3.6 36.9 9.9l6.8-11.8c-12.9-7.5-27.8-11.7-43.7-11.7-48.2 0-87.4 39.2-87.4 87.4s39.2 87.4 87.4 87.4 87.4-39.2 87.4-87.4h-13.6z"></path><path d="m233.5 279.6 6.8-11.8c-40.7-23.6-68.2-67.6-68.2-118 0-75.2 61.1-136.3 136.3-136.3s136.3 61.1 136.3 136.3c0 50.3-27.5 94.4-68.2 118l6.8 11.8c44.8-26 75-74.4 75-129.8C458.3 67.2 391 0 308.4 0c-82.7 0-149.9 67.2-149.9 149.9 0 55.4 30.2 103.8 75 129.7z"></path><path d="M298 149.9c0-5.7 4.7-10.4 10.4-10.4s10.4 4.7 10.4 10.4c0 3.8-2.1 7.2-5.2 9l6.8 11.8c7.2-4.2 12-11.9 12-20.8 0-13.2-10.8-24-24-24s-24 10.8-24 24c0 8.9 4.8 16.6 12 20.8l6.8-11.8c-3.1-1.8-5.2-5.2-5.2-9z"></path><path d="M364.1 149.9c0-30.7-25-55.7-55.7-55.7s-55.7 25-55.7 55.7c0 20.6 11.2 38.6 27.9 48.2l6.8-11.8c-12.6-7.3-21.1-20.9-21.1-36.4 0-23.2 18.9-42.1 42.1-42.1 23.2 0 42.1 18.9 42.1 42.1 0 15.6-8.5 29.2-21.1 36.5l6.8 11.8c16.7-9.7 27.9-27.7 27.9-48.3zM466.9 274.4c-27.3 0-52.9 7.4-74.9 20.1l6.8 11.8c20.1-11.6 43.3-18.3 68.1-18.3 75.2 0 136.3 61.1 136.3 136.3S542 560.6 466.9 560.6s-136.3-61.1-136.3-136.3H317c0 82.6 67.2 149.9 149.9 149.9S616.8 507 616.8 424.3c0-82.6-67.3-149.9-149.9-149.9z"></path><path d="M379.5 424.3c0 48.2 39.2 87.4 87.4 87.4s87.4-39.2 87.4-87.4-39.2-87.4-87.4-87.4c-15.9 0-30.8 4.3-43.7 11.7l6.8 11.8c10.9-6.3 23.5-9.9 36.9-9.9 40.7 0 73.8 33.1 73.8 73.8s-33.1 73.8-73.8 73.8c-40.7 0-73.8-33.1-73.8-73.8h-13.6z"></path><path d="M411.2 424.3c0 30.7 25 55.7 55.7 55.7s55.7-25 55.7-55.7-25-55.7-55.7-55.7c-10.1 0-19.6 2.7-27.8 7.5l6.8 11.8c6.2-3.6 13.4-5.7 21.1-5.7 23.2 0 42.1 18.9 42.1 42.1 0 23.2-18.9 42.1-42.1 42.1-23.2 0-42.1-18.9-42.1-42.1h-13.7zM286.2 424.3c0 75.2-61.1 136.3-136.3 136.3S13.6 499.5 13.6 424.3 74.7 288 149.9 288c24.8 0 48.1 6.7 68.1 18.3l6.8-11.8c-22.1-12.8-47.7-20.1-74.9-20.1C67.2 274.4 0 341.7 0 424.3 0 507 67.2 574.2 149.9 574.2c82.6 0 149.9-67.2 149.9-149.9h-13.6z"></path><path d="M466.9 448.3c13.2 0 24-10.8 24-24s-10.8-24-24-24c-4.4 0-8.5 1.2-12 3.2l6.8 11.8c1.5-.9 3.3-1.4 5.2-1.4 5.7 0 10.4 4.7 10.4 10.4s-4.7 10.4-10.4 10.4-10.4-4.7-10.4-10.4h-13.6c0 13.3 10.8 24 24 24zM160.3 424.3c0 5.7-4.7 10.4-10.4 10.4s-10.4-4.7-10.4-10.4 4.7-10.4 10.4-10.4c1.9 0 3.7.5 5.2 1.4l6.8-11.8c-3.5-2-7.6-3.2-12-3.2-13.2 0-24 10.8-24 24s10.8 24 24 24 24-10.8 24-24h-13.6z"></path><path d="M192 424.3c0 23.2-18.9 42.1-42.1 42.1-23.2 0-42.1-18.9-42.1-42.1 0-23.2 18.9-42.1 42.1-42.1 7.7 0 14.9 2.1 21.1 5.7l6.8-11.8c-8.2-4.8-17.7-7.5-27.9-7.5-30.7 0-55.7 25-55.7 55.7s25 55.7 55.7 55.7 55.7-25 55.7-55.7H192zM466.9 543.4c65.7 0 119.1-53.4 119.1-119.1 0-65.7-53.4-119.1-119.1-119.1-21.7 0-42 5.8-59.5 16l6.8 11.7c15.5-9 33.6-14.2 52.8-14.2 58.2 0 105.5 47.3 105.5 105.5S525.2 529.7 467 529.7s-105.5-47.3-105.5-105.5h-13.6c-.1 65.8 53.3 119.2 119 119.2z"></path></svg>