<svg xmlns="http://www.w3.org/2000/svg" viewBox="0 0 414.32 642"><path d="M166.07 227.57h83.25v83.25h-83.25z"></path><path d="M331.07 392.69h83.25v83.25h-83.25v-83.25ZM89.29 245.92v61.72l57.48 57.48h121.85l57.48-57.48v-61.72l-76.78 76.78h-83.25l-76.78-76.78Z"></path><path d="M165.01 558.75h83.25V642h-83.25v-83.25Zm154.3-166.07 76.78-76.78h-61.72l-57.48 57.48v121.85l57.48 57.48h61.72l-76.78-76.78v-83.25Z"></path><path d="M0 392.69h83.25v83.25H0v-83.25Zm145.81 111.77-57.48 57.48v61.72l76.78-76.67h83.25l76.67 76.78.11-61.82-57.58-57.48H145.82Z"></path><path d="M66.17 7.95c31.81 0 57.69 25.88 57.69 57.69 0 .95 0 1.91-.11 2.76-26.94 5.41-48.04 27.25-52.17 54.72-1.8.21-3.61.32-5.51.32-31.71 0-57.58-25.88-57.58-57.8S34.36 7.95 66.17 7.95Zm13.89 113.79c4.35-21.95 21.1-39.34 42.74-44.75-4.45 21.95-21.21 39.34-42.74 44.75Zm56.63-46.45c1.8 0 3.71.11 5.51.32 4.14 27.36 25.24 49.31 52.17 54.72 0 .95.11 1.8.11 2.76 0 31.81-25.87 57.69-57.69 57.69S79.1 164.9 79.1 133.09c0-.95 0-1.91.11-2.76 26.94-5.41 48.04-27.25 52.17-54.72 1.59-.21 3.39-.32 5.3-.32Zm56.63 46.45c-21.53-5.3-38.28-22.8-42.74-44.75 21.53 5.3 38.28 22.8 42.74 44.75ZM207.21 7.95c31.81 0 57.69 25.88 57.69 57.69 0 .95 0 1.91-.11 2.76-26.94 5.41-48.04 27.25-52.17 54.72-3.66.42-7.36.42-11.03 0-4.14-27.36-25.24-49.31-52.17-54.72 0-.95-.11-1.8-.11-2.76.21-31.81 26.09-57.69 57.9-57.69Zm13.89 113.79c4.35-21.95 21.1-39.34 42.74-44.75-4.45 21.95-21.21 39.34-42.74 44.75Zm56.63-46.45c1.8 0 3.71.11 5.51.32 4.14 27.36 25.24 49.31 52.17 54.72 0 .95.11 1.8.11 2.76 0 31.81-25.87 57.69-57.69 57.69s-57.69-25.88-57.69-57.69c0-.95 0-1.91.11-2.76 26.94-5.41 48.04-27.25 52.17-54.72 1.59-.21 3.5-.32 5.3-.32Zm56.63 46.45c-21.53-5.3-38.28-22.8-42.74-44.75 21.53 5.3 38.39 22.8 42.74 44.75ZM348.25 7.95c31.81 0 57.69 25.88 57.69 57.69s-25.88 57.69-57.69 57.69c-1.8 0-3.71-.11-5.51-.32-4.14-27.36-25.24-49.31-52.17-54.72 0-.95-.11-1.8-.11-2.76.11-31.71 25.98-57.58 57.8-57.58ZM66.17 131.5c1.59 0 3.18-.11 4.77-.21v1.7c0 36.27 29.48 65.75 65.75 65.75s65.75-29.48 65.75-65.75v-1.7c1.59.11 3.18.21 4.77.21s3.18-.11 4.77-.21v1.7c0 36.27 29.48 65.75 65.75 65.75s65.75-29.48 65.75-65.75v-1.7c1.59.11 3.18.21 4.77.21 36.27 0 65.75-29.48 65.75-65.75S384.52 0 348.25 0 282.5 29.48 282.5 65.75v1.7c-1.59-.11-3.18-.21-4.77-.21s-3.18.11-4.77.21v-1.7C272.96 29.48 243.48 0 207.21 0s-65.75 29.48-65.75 65.75v1.7c-1.59-.11-3.18-.21-4.77-.21s-3.18.11-4.77.21v-1.7C131.92 29.48 102.44 0 66.17 0S.42 29.48.42 65.75 29.9 131.5 66.17 131.5Zm71.37 241.89-57.48-57.48H18.35l76.67 76.78v83.25l-76.67 76.78h61.72l57.48-57.48V373.39Z"></path></svg>