<svg xmlns="http://www.w3.org/2000/svg" id="a" width="642" viewBox="0 0 642 544.58" height="544.58" data-name="Layer 1"><defs></defs><path d="M514.18 225.23 288.9 450.51H0v-27.29h271.25l197.99-197.99L271.25 27.3H0V.02h288.9l225.28 225.21z" class="b"></path><path d="M0 47.03h271.25v27.28H0zM0 94.05h271.25v27.28H0zM0 141.08h195.81v27.28H0zM0 188.11h195.81v27.28H0zM0 235.13h195.81v27.28H0zM0 282.16h195.81v27.28H0zM0 329.19h271.25v27.28H0zM0 376.21h271.25v27.28H0zM0 470.26h271.25v27.28H0zM0 517.29h271.25v27.28H0zM587.03 225.26 361.76 450.52h-44.94l225.27-225.26L316.82 0h44.94l225.27 225.26z" class="b"></path><path d="M642 243.15 439.45 445.7c-16.05 3.02-32.68 4.62-49.69 4.82l225.21-225.21L389.69.02c17.01.19 33.64 1.8 49.76 4.82L642 207.39v35.76ZM634.87 172.39 477.13 14.59c78.13 26.07 137.97 85.07 157.74 157.8ZM634.87 278.19c-19.84 72.74-79.61 131.67-157.74 157.74l157.74-157.74Z" class="b"></path></svg>