<svg data-name="Layer 1" xmlns="http://www.w3.org/2000/svg" viewBox="0 0 446.91 608.64"><path d="M308.12 331.07c-6.15 0-12.21.43-18.15 1.22v91.08a49.561 49.561 0 0 1 18.15-3.43c27.52 0 49.92 22.39 49.92 49.92s-22.39 49.91-49.92 49.91-49.91-22.39-49.91-49.91V298.01h172.66v-88.87H255.51c25.22-3.08 48.55-13.69 67.23-30.87 23.85-21.94 37.69-52.35 38.97-85.62l.03-.8-.8-.03c-33.26-1.49-64.71 9.76-88.56 31.7a118.731 118.731 0 0 0-22.5 28.05c4.5-14.59 6.77-29.74 6.77-45.19 0-39.55-15.01-77.11-42.28-105.75l-.59-.62-.59.62c-27.26 28.64-42.27 66.2-42.27 105.75 0 15.45 2.27 30.6 6.77 45.19a118.781 118.781 0 0 0-22.5-28.05c-23.85-21.94-55.3-33.2-88.57-31.7l-.8.03.03.8c1.28 33.27 15.12 63.67 38.97 85.62 18.7 17.2 42.07 27.79 67.33 30.87H0v88.87h169.34v171.85c0 76.53 62.26 138.78 138.78 138.78s138.79-62.26 138.79-138.78-62.26-138.79-138.79-138.79ZM233.4 209.13h-16.28c8.12-8.99 15.12-18.85 20.89-29.44-2.68 9.52-4.22 19.38-4.61 29.44Zm-39.25 0c-.39-10.06-1.93-19.92-4.61-29.44 5.77 10.6 12.77 20.45 20.89 29.44h-16.28Z"></path></svg>