<svg xmlns="http://www.w3.org/2000/svg" width="631.9" viewBox="0 0 631.9 627.5" height="627.5" xml:space="preserve" style="enable-background:new 0 0 631.9 627.5"><path d="M631.9 199.8h-67.2v-66.5h-67.6V66.5h-66.6V0H201.3v66.8h-66.6v66.5H67.2v68.1H0v226.3h67.2v66.5h67.6V561h66.6v66.5h229.3v-66.8h66.6v-66.5h67.6v-68.1h67.2V199.8zm-120.3-51v50.9h-14.5v-50.9h14.5zm-323.7 68.1h13.5v195.2h-13.5V216.9zm-53.1 195.3h-14.5V216.9h14.5v195.3zm120.4-1.6V216.9h121.5v193.6H255.2zm0-210.8v-50.9h121.5v50.9H255.2zm121.5 227.9v50.9H255.2v-50.9h121.5zm0-345.4v51H255.2v-51h121.5zM255.2 545.2v-51h121.5v51H255.2zm175.4-396.4H444v50.9h-13.5v-50.9zm-229.3 52.6h-13.5v-52.6h13.5v52.6zm0 226.3v50.9h-13.5v-50.9h13.5zm229.3-1.6H444v52.6h-13.5v-52.6zm0-15.5V215.3H444v195.2h-13.4zm66.5-195.3h14.5v195.2h-14.5V215.3zM444 82.1v51.2h-13.5V82.1H444zm-67.3-66.5v50.9H255.2V15.6h121.5zM187.9 82.3h13.5v51h-13.5v-51zm-67.6 66.5h14.5v52.6h-14.5v-52.6zM53.1 412.2V216.9h14.1v195.2H53.1zm67.2 66.5v-50.9h14.5v50.9h-14.5zm67.6 66.7v-51.2h13.5v51.2h-13.5zm67.3 66.5V561h121.5v50.9H255.2zM444 545.2h-13.5v-51H444v51zm67.6-66.5h-14.5v-52.6h14.5v52.6zm67.2-68.1h-14.1V215.3h14.1v195.3z"></path></svg>