<svg xmlns="http://www.w3.org/2000/svg" width="623.2" viewBox="0 0 623.2 624.3" height="624.3" xml:space="preserve" style="enable-background:new 0 0 623.2 624.3"><path d="M552.6 0H0v292.9h134.8v-18l-44-43.6c-8-8-8-21 0-29s21-8 29 0l15 14.6v-50.5l-44-43.7c-8-8-8-21 0-29s21-8 29 0l15 14.7V61.7c0-11.3 9.2-20.5 20.5-20.5s20.5 9.2 20.5 20.5v46.6l14.3-14.2c8-8 21-8 29 0s8 21 0 29l-43.3 43.2v50.5l14.3-14.1c8-8 21-8 29 0s8 21 0 29l-43.3 43.1v18h114.9v-18l-44.5-44.1c-8-8-8-21 0-29s21-8 29 0l15.4 15.1v-50.5L246.1 122c-8-8-8-21 0-29s21-8 29 0l15.4 15.2V60.5c0-11.3 9.2-20.5 20.5-20.5s20.5 9.2 20.5 20.5v47.9l15.9-15.2c8-8 21-8 29 0s8 21 0 29l-45 44.2v50.5l14.8-14.6c8-8 21-8 29 0s8 21 0 29l-43.8 43.6v18H446v-16.6l-47.8-48.5c-8-8-8-21 0-29s21-8 29 0l18.8 19.4v-50.4l-46.7-48.3c-8-8-8-21 0-29s21-8 29 0l17.7 19.3V60.9c0-11.3 9.2-20.5 20.5-20.5S487 49.6 487 60.9v48.8l19.6-19.5c8-8 21-8 29 0s8 21 0 29L487 167.7v50.4l20.1-19.7c8-8 21-8 29 0s8 21 0 29L487 276.2v16.6h65.1c39 0 70.5-31.6 70.5-70.5V70.5c.6-38.9-31-70.5-70-70.5zM546.2 332.4h-58.7v138.4h-41.1V332.4H331.9v138.4h-41V332.4h-115v138.4h-41.1V332.4H0v291.8h546.2c42.5 0 77-34.5 77-77V409.4c0-42.5-34.5-77-77-77z"></path></svg>