<svg xmlns="http://www.w3.org/2000/svg" width="618.5" viewBox="0 0 618.5 618.5" height="618.5" xml:space="preserve"><path d="M375.7 253.8c4.3 5.4 8.1 11.5 11.1 18.2.2.4.5.6.9.6.1 0 .3 0 .4-.1l89.9-39.8c.3-.1.5-.3.6-.6.1-.3.1-.6 0-.8-7.3-15.9-16.7-30.6-28.2-43.9-.2-.2-.4-.3-.7-.3-.3 0-.5.1-.7.3l-73.2 65c-.4.4-.4 1-.1 1.4zM348.1 231.2c7.1 3.7 13.7 8.5 19.6 14.1.2.2.5.3.7.3.3 0 .5-.1.7-.3l68.1-70.2c.2-.2.3-.5.3-.7 0-.3-.1-.5-.3-.7-14.2-13.4-30.2-24.5-47.5-32.8-.2-.1-.5-.1-.8 0-.2.1-.5.3-.6.5L347.6 230c-.2.3 0 .9.5 1.2zM485.2 248.6c-.2-.1-.5-.1-.8 0l-92.7 33.1c-.5.2-.8.7-.6 1.3 2 6.4 3.2 13.3 3.7 20.5 0 .5.5 1 1 1h.1l98.6-3.7c.3 0 .5-.1.7-.3.2-.2.3-.5.3-.7-.9-17.1-4.1-34-9.7-50.4-.2-.5-.4-.7-.6-.8zM315.1 221.9c7.6.5 15.1 2.1 22.2 4.6.1 0 .2.1.3.1.4 0 .8-.3 1-.7l34-91.2c.1-.3.1-.5 0-.8-.1-.2-.3-.4-.6-.5-17.2-6.2-35.1-9.7-53.3-10.7-.2 0-.5.1-.7.3-.2.2-.3.4-.3.7l-3.5 97.1c0 .6.4 1 .9 1.1zM365.8 376.1c-.4-.4-1-.5-1.4-.1-5.4 4.3-11.5 8.1-18.1 11.2-.5.2-.7.8-.5 1.4l39.6 90.4c.1.2.3.4.6.5.1 0 .2.1.4.1.1 0 .3 0 .4-.1 15.8-7.3 30.5-16.8 43.7-28.3.2-.2.3-.4.3-.7 0-.3-.1-.5-.3-.7l-64.7-73.7zM388.3 347.8c-.5-.2-1.1 0-1.3.5-3.7 7.2-8.4 13.8-14 19.7-.4.4-.4 1.1 0 1.5l69.8 68.4c.2.2.5.3.7.3.3 0 .5-.1.7-.3 13.4-14.3 24.4-30.3 32.7-47.8.1-.2.1-.5 0-.8-.1-.3-.3-.5-.5-.6l-88.1-40.9zM335.4 391.5c-6.3 2-13.2 3.2-20.4 3.7-.6 0-1 .5-1 1.1l3.7 99c0 .3.1.5.3.7.2.2.4.3.7.3 17-.9 33.9-4.1 50.2-9.7.3-.1.5-.3.6-.5.1-.2.1-.5 0-.8l-32.9-93.1c-.1-.6-.6-.9-1.2-.7zM493.9 317.8l-96.6-3.5c-.6-.1-1 .4-1.1.9-.5 7.7-2.1 15.2-4.6 22.3-.2.5.1 1.1.6 1.3L483 373c.1 0 .2.1.3.1.2 0 .3 0 .4-.1.3-.1.4-.3.5-.6 6.1-17.3 9.7-35.3 10.6-53.5 0-.3-.1-.5-.3-.8-.1-.2-.3-.3-.6-.3zM242.8 364.7c-4.3-5.4-8.1-11.5-11.1-18.2-.2-.5-.8-.8-1.3-.5l-89.9 39.8c-.3.1-.5.3-.6.6-.1.2-.1.5 0 .8 7.3 15.9 16.8 30.6 28.2 43.9.2.2.4.3.7.4h.1c.3 0 .5-.1.7-.3l73.2-65.1c.3-.4.3-1 0-1.4zM270.4 387.3c-7.1-3.7-13.8-8.5-19.6-14.1-.4-.4-1-.4-1.4 0l-68.1 70.2c-.2.2-.3.5-.3.7 0 .3.1.5.3.7 14.2 13.4 30.2 24.5 47.6 32.8.1.1.3.1.4.1.1 0 .2 0 .3-.1.3-.1.5-.3.6-.5l40.7-88.6c.1-.3-.1-.9-.5-1.2zM227.4 335.6c-2-6.4-3.2-13.3-3.7-20.5 0-.5-.5-1-1-1l-98.6 3.7c-.3 0-.5.1-.7.3-.2.2-.3.5-.3.8.9 17.1 4.1 34.1 9.6 50.4.1.3.3.5.5.6.1.1.3.1.4.1.1 0 .2 0 .3-.1l92.7-33.1c.7-.2.9-.7.8-1.2zM303.3 396.6c-7.6-.5-15.1-2.1-22.2-4.6-.5-.2-1.1.1-1.3.6l-34 91.2c-.1.3-.1.5 0 .8.1.3.3.4.6.5 17.2 6.2 35.1 9.8 53.3 10.7h.1c.3 0 .5-.1.7-.3.2-.2.3-.4.3-.7l3.5-97.1c0-.6-.4-1-1-1.1zM252.7 242.3c.2.2.5.3.8.3.2 0 .4-.1.6-.2 5.4-4.4 11.5-8.1 18.1-11.2.5-.2.7-.8.5-1.4l-39.6-90.3c-.1-.3-.3-.4-.6-.6-.2-.1-.5-.1-.8 0-15.8 7.3-30.5 16.8-43.7 28.3-.2.2-.3.4-.3.7 0 .3.1.6.3.8l64.7 73.6zM230.2 270.6c.2.1.3.1.4.1.4 0 .7-.2.9-.6 3.7-7.2 8.4-13.8 14-19.7.4-.4.4-1 0-1.5l-69.8-68.4c-.2-.2-.5-.3-.7-.3-.3 0-.5.1-.7.3-13.4 14.2-24.4 30.3-32.7 47.8-.1.3-.1.5-.1.8.1.3.3.5.5.6l88.2 40.9zM300.4 122.5c-.2-.2-.5-.3-.7-.3-17 .9-33.9 4.2-50.2 9.7-.3.1-.5.3-.6.5-.1.2-.1.5 0 .8l32.9 93.1c.2.4.6.7 1 .7h.3c6.4-2 13.2-3.2 20.4-3.7.5 0 1-.5 1-1.1l-3.7-99c-.1-.3-.2-.5-.4-.7zM124.6 300.7l96.6 3.5c.5 0 1-.4 1-1 .5-7.6 2.1-15.1 4.6-22.3.2-.5-.1-1.1-.6-1.3l-90.7-34.2c-.3-.1-.5-.1-.8 0-.3.1-.4.3-.5.6-6.1 17.3-9.7 35.3-10.6 53.5 0 .3.1.6.3.8.1.3.4.4.7.4z"></path><path d="M309.2 0C138.7 0 0 138.7 0 309.2s138.7 309.2 309.2 309.2 309.2-138.7 309.2-309.2C618.5 138.7 479.8 0 309.2 0zm0 23.5c137.8 0 253.1 97.8 280 227.6-49.5-93.2-158.2-157.2-280-157.2-122.8 0-230.5 63.4-279.9 156.5C56.6 121 171.7 23.5 309.2 23.5zm0 571.4c-136.7 0-251.2-96.3-279.3-224.5 50.9 92.3 160.3 156.4 281.3 156.4 121.5 0 227.2-63.1 277-154.7-28.8 127.4-142.9 222.8-279 222.8zm-.1-92.2c-133.1 0-249.2-84.1-279.8-191.1 28-100.8 147.1-195.7 280-195.7 130.4 0 251.1 94.9 279.5 193.6C556.3 418 444.3 502.7 309.1 502.7z"></path></svg>