<svg id="Layer_1" data-name="Layer 1" xmlns="http://www.w3.org/2000/svg" viewBox="0 0 570.63 609.88">   <path d="M533.9,207.25H36.73c-20.29,0-36.73,16.44-36.73,36.73v329.17c0,20.29,16.44,36.73,36.73,36.73H190.99c16.52,0,31.35-12,33.02-28.44,1.91-18.87-13.02-34.94-31.52-34.94h-60.04c-17.43,0-31.69-14.26-31.69-31.69s14.26-31.69,31.69-31.69h64.52c15.02,0,27.2-12.18,27.2-27.2v-156.63c0-14.18,11.5-25.68,25.68-25.68h70.92c14.18,0,25.68,11.5,25.68,25.68v156.63c0,15.02,12.18,27.2,27.2,27.2h64.52c17.43,0,31.69,14.26,31.69,31.69s-14.26,31.69-31.69,31.69h-60.04c-18.5,0-33.43,16.07-31.52,34.94,1.66,16.44,16.49,28.44,33.02,28.44h154.26c20.29,0,36.73-16.44,36.73-36.73V243.98c0-20.29-16.44-36.73-36.73-36.73Z"></path>   <circle cx="112.09" cy="95.03" r="95.03" transform="translate(-18.61 162.22) rotate(-67.5)"></circle>   <circle cx="458.54" cy="95.03" r="95.03" transform="translate(195.27 482.3) rotate(-67.5)"></circle> </svg>