<svg xmlns="http://www.w3.org/2000/svg" width="618.2" viewBox="0 0 618.2 527.3" height="527.3" xml:space="preserve"><path d="M436 354.6c0-45.2-36.6-81.8-81.8-81.8s-81.8 36.6-81.8 81.8c0 45.2 36.6 81.8 81.8 81.8s81.8-36.7 81.8-81.8zM354.6 82.5V0C159.1 0 0 159 0 354.6h82.5c0-150.1 122-272.1 272.1-272.1z"></path><path d="M354.6 90.9C209.2 90.9 91 209.2 91 354.5h82.5c0-99.9 81.3-181.2 181.1-181.2 99.9 0 181.1 81.3 181.1 181.2h82.5c0-145.3-118.3-263.6-263.6-263.6z"></path><path d="M354.6 181.9c-95.2 0-172.7 77.5-172.7 172.7h82.5c0-49.7 40.5-90.2 90.2-90.2s90.2 40.5 90.2 90.2-40.5 90.2-90.2 90.2v82.5c95.2 0 172.7-77.5 172.7-172.7 0-95.3-77.5-172.7-172.7-172.7z"></path></svg>