<svg xmlns="http://www.w3.org/2000/svg" width="609" viewBox="0 0 609 607.8" height="607.8" style="enable-background:new 0 0 609 607.8" xml:space="preserve"><path d="M570.7 156.1 322.2 410.7v197.1C482.1 598.7 609 466.1 609 303.9c0-53.6-14-104-38.3-147.8zM322.2 337.7 541.6 113C489.2 48.1 410.8 5.1 322.2 0v337.7zM271.2 1.3c-29.4 3.2-57.6 10.6-83.9 21.6v178.8l83.9 86V1.3zM271.2 360.6 51.1 135.1C18.8 183.4 0 241.5 0 303.9 0 460.8 118.7 590 271.2 606.6v-246zM136.3 149.4V50.1c-19.4 12.9-37.2 28-53.1 44.8l53.1 54.5z"></path></svg>