<svg xmlns="http://www.w3.org/2000/svg" width="426.9" viewBox="0 0 426.9 642" height="642" style="overflow:visible;enable-background:new 0 0 426.9 642" xml:space="preserve"><circle cx="213.5" cy="293.7" r="73.8"></circle><path d="M426.9 417.4s-53.4 24.1-118.5 96.4C243.3 586 225.5 642 225.5 642V443h65v-24.1h-65v-28.1c48.3-5.9 85.8-47.2 85.8-97.1 0-54.1-43.8-97.9-97.9-97.9s-97.9 43.8-97.9 97.9c0 50 37.5 91.2 85.9 97.1v28.1h-65V443h65v199s-17.8-56-82.9-128.3C53.4 441.4 0 417.4 0 417.4L120.6 10.2S162.1 0 213.4 0s92.8 10.2 92.8 10.2l120.7 407.2z"></path></svg>