<svg data-name="Layer 1" xmlns="http://www.w3.org/2000/svg" viewBox="0 0 594.29 607.51"><path d="M330.47 607.51h6.21V340.57h257.61v-3.5H330.47v270.44z"></path><path d="M356.69 607.51h6.22V366.8h231.38v-3.5h-237.6v244.21z"></path><path d="M382.92 607.51h6.22V393.02h205.15v-3.49H382.92v217.98z"></path><path d="M409.15 607.51h6.22V419.25h178.92v-3.5H409.15v191.76zM0 340.57h257.61v266.94h6.22V337.07H0v3.5z"></path><path d="M0 366.8h231.38v240.71h6.22V363.3H0v3.5z"></path><path d="M0 393.02h205.16v214.49h6.21V389.53H0v3.49z"></path><path d="M0 419.25h178.93v188.26h6.22V415.75H0v3.5zM257.61 266.94H0v3.49h263.83V0h-6.22v266.94z"></path><path d="M237.6 0h-6.22v240.71H0v3.5h237.6V0z"></path><path d="M211.37 0h-6.21v214.48H0v3.5h211.37V0z"></path><path d="M185.15 0h-6.22v188.25H0v3.5h185.15V0zM336.68 0h-6.21v270.43h263.82v-3.49H336.68V0z"></path><path d="M362.91 0h-6.22v244.21h237.6v-3.5H362.91V0z"></path><path d="M389.14 0h-6.22v217.98h211.37v-3.5H389.14V0z"></path><path d="M415.37 188.25V0h-6.22v191.75h185.14v-3.5H415.37z"></path></svg>