<svg xmlns="http://www.w3.org/2000/svg" id="a" width="642" viewBox="0 0 642 597.6" height="597.6" data-name="Layer 1"><defs></defs><path d="M90.2 458.34c-6.21-10.76-19.96-14.44-30.72-8.23-10.76 6.21-14.44 19.96-8.23 30.72l61.5 105.72c6.1 10.56 19.61 14.18 30.17 8.08 10.56-6.1 14.18-19.61 8.08-30.17L90.2 458.34ZM2.96 568.07C-3.14 557.51.48 544 11.04 537.9c10.56-6.1 24.07-2.48 30.17 8.08l10.67 18.47c6.1 10.56 2.48 24.07-8.08 30.17-10.56 6.1-24.07 2.48-30.17-8.08L2.96 568.07ZM246.43 592.32c-18.83 10.86-42.92 4.43-53.78-14.39-6.75-11.69-6.81-25.51-1.35-36.88.9-1.8 3.21-5.46 3.34-5.59 6.3-8.48 7.33-20.18 1.67-29.88l-80.9-140.21c-6.23-10.8-2.57-24.55 8.23-30.71 10.73-6.23 24.48-2.57 30.71 8.23l106.47 195.66c10.86 18.83 4.43 42.92-14.39 53.78ZM443.24 577.93c10.86 18.83 34.96 25.25 53.78 14.39 18.83-10.86 25.25-34.96 14.39-53.78L277.33 121.77c-6.17-10.73-19.92-14.39-30.71-8.23-10.73 6.23-14.46 19.98-8.22 30.71l79.49 137.89c6.75 11.63 4.43 26.09-4.75 35.09-7.67 6.82-9.76 18.3-4.43 27.54l134.55 233.15ZM371.73 592.32c-18.83 10.86-42.92 4.43-53.78-14.39l-69.78-120.87c-5.08-8.8-3.41-19.6 3.34-26.54 10.15-8.87 12.92-23.97 5.91-36.11l-80.58-139.44c-6.23-10.8-2.51-24.55 8.23-30.71 10.8-6.23 24.55-2.57 30.71 8.23l170.34 306.05c10.86 18.83 4.43 42.92-14.39 53.78ZM622.33 592.32c-18.83 10.86-42.92 4.43-53.78-14.39L368.97 232.49c-5.27-9.06-3.28-20.31 4.05-27.18 9.64-8.93 12.21-23.71 5.33-35.6L299.89 33.74c-6.23-10.73-2.51-24.48 8.22-30.71s24.55-2.51 30.71 8.23l297.89 527.29c10.86 18.83 4.43 42.92-14.39 53.78Z" class="b"></path></svg>