<svg data-name="Layer 1" xmlns="http://www.w3.org/2000/svg" viewBox="0 0 507.44 582.2"><path d="M507.44 0h-91.53L255.14 160.78V0h-91.53L0 163.61v165.53h87.52L0 416.66v165.53h91.53l160.78-160.78v160.78h91.53l163.61-163.62V253.05h-87.52l87.52-87.52V0ZM256.39 163.53 415.09 4.84v158.69H256.4Zm74 89.52 84.7-85.05v85.05h-84.7Zm-75.25 0v-86.69h157.59l-86.33 86.69h-71.26Zm0 160.78V255.88h157.95L255.14 413.83Zm159.95-155.94v159.15L255.14 577.35V417.83l159.95-159.95ZM257.14 579.37 417.1 419.05h85.89L342.67 579.37h-85.53Zm-4.83-321.48v158.32h-86.69v-71.63l86.69-86.69ZM4.83 579.37l159.96-160.32h85.89L90.36 579.37H4.83Zm157.95-321.48v159.15L2.83 577.36V417.84l159.95-159.95ZM2.83 324.31V164.79L162.78 4.84v159.15L2.83 324.31Zm249.48-155.94v84.68h-84.68l84.68-84.68Zm-1.63-2.38L90.35 326.31H4.83l159.96-160.32h85.89Zm-85.06 174.58v-84.69h84.69l-84.69 84.69Zm0-253.05V2.83h84.69l-84.69 84.69Zm86.69-82.68v158.32h-86.69V91.53l86.69-86.69Zm165.62 82.68V2.83h84.68l-84.68 84.69Zm0 75.64V91.53l86.68-86.69v158.32h-86.69Zm0 87.89v-85.06h85.06l-85.06 85.06Zm0 89.53v-84.69h84.68l-84.68 84.69Zm86.69-82.68v158.32h-86.69v-71.63l86.69-86.69Z"></path></svg>