<svg data-name="Layer 1" xmlns="http://www.w3.org/2000/svg" viewBox="0 0 520.21 614.63"><path d="M306.19 0C194.03 0 101.81 86.73 92.93 196.63H0v51.83h306.19c18.99 0 34.44-15.45 34.44-34.45s-15.45-34.45-34.44-34.45c-12.65 0-23.7 6.87-29.69 17.06h-40.52c7.82-31.54 36.28-55.01 70.2-55.01 39.92 0 72.4 32.48 72.4 72.4s-32.48 72.4-72.4 72.4H0v51.83h190.16v276.38h51.83V338.25h64.2c68.5 0 124.23-55.73 124.23-124.23S374.69 89.79 306.19 89.79c-62.59 0-114.37 46.57-122.87 106.84h-38.39c8.71-81.28 77.69-144.8 161.25-144.8 89.43 0 162.19 72.76 162.19 162.19s-72.76 162.19-162.19 162.19h-25.91v238.43h51.83V426.49c105.83-12.83 188.11-103.22 188.11-212.46C520.21 96.01 424.2 0 306.19 0Z"></path><path d="M0 428.04h100.7v186.59h51.83V376.21H0v51.83z"></path></svg>