<svg data-name="Layer 1" xmlns="http://www.w3.org/2000/svg" viewBox="0 0 611.15 428.79"><path d="M174.73 77.39c-19.77 0-35.81 16.03-35.81 35.81s16.03 35.8 35.81 35.8 35.81-16.03 35.81-35.8-16.03-35.81-35.81-35.81Z"></path><path d="M447.23 0c-46.25 0-87.04 23.75-110.93 59.69C312.46 23.79 271.66 0 225.37 0H50.36L0 .37S61.45 33.31 61.45 149v146.69c0 73.37 59.69 133.11 133.11 133.11h416.59V0H447.23ZM314.12 384.39H194.55c-48.93 0-88.71-39.83-88.71-88.71V149c0-48.09-8.27-81.96-17.28-104.6h136.85c48.93 0 88.71 39.83 88.71 88.71V384.4Zm252.63 0H358.48V133.11c0-48.93 39.83-88.71 88.71-88.71h119.57v339.99Z"></path></svg>