<svg xmlns="http://www.w3.org/2000/svg" width="617.92" viewBox="0 0 617.92 642" height="642" data-name="Layer_1"><path d="M397.24 374.54c-23.5 20.86-54.38 33.51-88.27 33.51s-64.78-12.65-88.27-33.51v41.67c25.55 16.05 55.85 25.29 88.27 25.29s62.72-9.24 88.27-25.29v-41.67ZM235.91 642h146.1l-73.05-104.32L235.91 642z"></path><path d="M0 0v642h186.93l89.93-128.43c-10.16-8.93-16.6-21.98-16.6-36.57H189v-28.61L71.5 546.98c.99 2.32 1.54 4.86 1.54 7.54 0 10.64-8.62 19.26-19.26 19.26s-19.26-8.62-19.26-19.26 8.62-19.26 19.26-19.26c3.87 0 7.46 1.17 10.48 3.13L189 433.72v-42.27H87.67l-20.24 24.08h-3.21v-70.62h3.21l20.24 24.08H189v-47.03h239.95v35.95h86.67l35.31-35.31h4.82v105.93h-4.82l-35.31-35.31h-86.67V477h-71.26c0 14.59-6.45 27.64-16.6 36.57C375.96 563.37 431.02 642 431.02 642h186.93V0H0Zm321 95.72c23.82-15.34 52.16-24.27 82.66-24.27s58.84 8.92 82.66 24.27v46.93c-21.06-21.31-50.36-34.54-82.66-34.54s-61.6 13.17-82.66 34.54V95.72Zm-189.39 0c23.82-15.34 52.23-24.27 82.66-24.27s58.84 8.92 82.66 24.27v46.93c-21.06-21.38-50.3-34.54-82.66-34.54s-61.6 13.23-82.66 34.54V95.72Zm82.66 212.52c-46.4 0-84.02-37.62-84.02-84.02s37.62-84.02 84.02-84.02 84.02 37.62 84.02 84.02-37.62 84.02-84.02 84.02Zm189.39 0c-46.4 0-84.02-37.62-84.02-84.02s37.62-84.02 84.02-84.02 84.02 37.62 84.02 84.02-37.62 84.02-84.02 84.02Z"></path><path d="M214.27 176.87c-26.15 0-47.35 21.2-47.35 47.35s21.2 47.35 47.35 47.35 47.35-21.2 47.35-47.35-21.2-47.35-47.35-47.35Zm0 63.4c-8.86 0-16.05-7.19-16.05-16.05s7.19-16.05 16.05-16.05 16.05 7.19 16.05 16.05-7.19 16.05-16.05 16.05ZM403.66 176.87c-26.15 0-47.35 21.2-47.35 47.35s21.2 47.35 47.35 47.35 47.35-21.2 47.35-47.35-21.2-47.35-47.35-47.35Zm0 63.4c-8.86 0-16.05-7.19-16.05-16.05s7.19-16.05 16.05-16.05 16.05 7.19 16.05 16.05-7.19 16.05-16.05 16.05Z"></path></svg>