<svg data-name="Layer 1" xmlns="http://www.w3.org/2000/svg" viewBox="0 0 618.15 619.35"><path d="m356.39 390.57 17.79 18.19h228.88c2.02-5.99 3.89-12.05 5.55-18.19H356.4ZM330.11 363.69l17.79 18.19h262.9c1.43-6 2.68-12.07 3.76-18.19H330.11ZM382.68 417.46l17.79 18.19h192.09c2.67-5.98 5.2-12.02 7.49-18.19H382.68ZM303.08 336.05 321.61 355h294.41c.92-6.25 1.6-12.58 2.14-18.95H303.08ZM435.25 471.22l17.79 18.19h108.73c4.23-5.93 8.31-11.97 12.13-18.19H435.25ZM540.29 516.3c5.26-5.86 10.27-11.94 15.07-18.19h-93.82l17.79 18.19h60.96ZM408.96 444.34l17.79 18.19h152.2c3.39-5.96 6.65-12 9.65-18.19H408.96ZM321.61 263.41l-17.92 18.32h314.34c-.55-6.16-1.23-12.28-2.14-18.32H321.61ZM330.11 254.72h284.28c-1.1-6.13-2.36-12.2-3.81-18.19H347.9l-17.79 18.19Z"></path><path d="m487.82 524.99 16.97 17.36h-79.2L225.05 337.3l1.39-1.25H5.11l53.12-54.32h167.52l-.7-.63L425.59 76.05h79.2l-16.97 17.36h43.42C475 35.81 396.54 0 309.68 0 138.65 0 0 138.65 0 309.68s138.65 309.68 309.68 309.68c87.33 0 166.16-36.21 222.46-94.36h-44.32Z"></path><path d="M356.39 227.83h251.94c-1.68-6.15-3.56-12.21-5.6-18.19H374.17l-17.79 18.19ZM435.25 147.18h138.04c-3.84-6.22-7.93-12.27-12.19-18.19H453.04l-17.79 18.19ZM382.68 200.95h216.99c-2.31-6.17-4.85-12.22-7.54-18.19H400.47l-17.79 18.19ZM461.54 120.3h93.08c-4.84-6.25-9.86-12.34-15.15-18.19h-60.14l-17.79 18.19ZM408.96 174.07h179.16c-3.02-6.19-6.29-12.24-9.71-18.19H426.75l-17.79 18.19Z"></path></svg>