<svg xmlns="http://www.w3.org/2000/svg" width="607.3" viewBox="0 0 607.3 607.9" height="607.9"><circle transform="rotate(-86.83 418.303 242.765) scale(1.00003)" cx="418.3" cy="242.8" r="92.5"></circle><path d="M303.7 0C136.2 0 0 136.2 0 303.7c0 167.4 136.2 303.7 303.7 303.7 7.5 0 15.2-.3 22.7-.8l1.4 1.4.4-.4.7-.7.4-.4c75.5-6.3 145.5-40.6 197.2-96.6 52.1-56.3 80.8-129.5 80.8-206C607.3 136.2 471.1 0 303.7 0zm199.5 141.6h-84.3c-11.9-30-27.1-58.7-45.2-85.4 51 14.4 95.8 43.9 129.5 85.4zM294.7 46.7c3.4-.1 6.3-.2 9-.2 2.1 0 4.2 0 6.4.1 24.5 28.7 44.8 60.6 60.2 95H234.5c15.4-34.4 35.7-66.3 60.2-94.9zm-64.2 10.4c-17.9 26.4-32.9 54.8-44.6 84.5h-81.8c33-40.6 76.7-69.7 126.4-84.5zM74.8 186.4h96.1c-8.8 32-14 65.1-15.5 98.3H47.2c2.5-34.5 11.8-67.6 27.6-98.3zm0 234.6c-14.7-28.7-23.8-59.4-27.1-91.5h108c1.8 31 6.9 61.8 15.1 91.5h-96zm29.3 44.8h81.6c11.7 29.6 26.7 58 44.7 84.5-49.7-14.8-93.3-44-126.3-84.5zm205.9 95c-4.8.1-9.3.1-15.4-.1-24.5-28.7-44.8-60.6-60.2-94.9h136c-15.4 34.3-35.7 66.2-60.4 95zm63.7-9.6c18.2-26.7 33.4-55.4 45.3-85.4h84.2c-33.7 41.4-78.4 70.9-129.5 85.4zM532.5 421H434c7.4-26.8 12.2-54.7 14.4-82.8-9.5 3-19.6 4.6-30 4.6-5.2 0-10.2-.4-15.2-1.1-2.6 27-7.9 53.7-15.8 79.4H217.5c-9.2-29.6-14.8-60.4-16.8-91.5h167.9c-17.9-10.3-32.3-25.9-41-44.8H200.2c1.6-33.3 7.4-66.4 17.3-98.3h118.2c18-26.3 48.3-43.6 82.6-43.6s64.6 17.3 82.6 43.6h31.6c15.8 30.7 25.1 63.8 27.6 98.3H509c-8.7 18.8-23.1 34.5-41 44.8h91.5c-3.1 32-12.2 62.7-27 91.4z"></path></svg>