<svg xmlns="http://www.w3.org/2000/svg" width="620.8" viewBox="0 0 620.8 620.8" height="620.8" xml:space="preserve"><path d="M364.6 551.2h141.5c11.4-9.2 22-19.3 32-30H395.4c-8.1 12-18.6 22.2-30.8 30zM219.8 521.2H82.7c9.9 10.7 20.6 20.8 32 30h135.9c-12.3-7.8-22.7-18-30.8-30zM310.4 0C139 0 0 139 0 310.4c0 14.6 1 28.9 3 42.9h614.9c1.9-14 3-28.3 3-42.9C620.8 139 481.8 0 310.4 0zM45.2 471.8c6.4 10.4 13.3 20.4 20.8 30h143.4c-3.8-9.4-6.3-19.5-7.3-30H45.2zM554.8 501.7c7.5-9.6 14.4-19.6 20.8-30H413c-1 10.5-3.5 20.6-7.3 30h149.1zM395.4 402.8h211.4c3-9.8 5.6-19.8 7.7-30H364.6c12.2 7.8 22.7 18 30.8 30zM250.5 372.8H6.3C8.4 383 11 393 14 402.8h205.8c8-12 18.5-22.2 30.7-30zM20.8 422.3c4 10.3 8.5 20.3 13.5 30h167.9c1-10.5 3.5-20.6 7.3-30H20.8zM586.5 452.3c5-9.7 9.5-19.7 13.5-30H405.8c3.8 9.4 6.3 19.5 7.3 30h173.4zM310.4 620.8c62.3 0 120.4-18.4 169-50h-338c48.6 31.6 106.6 50 169 50z"></path></svg>