<svg xmlns="http://www.w3.org/2000/svg" width="576.2" viewBox="0 0 576.2 642" height="642" data-name="Layer 1"><path d="M342.67 398.62c0 20.93 17.01 37.94 37.94 37.94h176.68c-3.4-9.95-5.2-20.54-5.2-31.59s1.8-21.64 5.2-31.52l18.91.03c-4.17 9.69-6.45 20.32-6.45 31.49s2.34 21.89 6.45 31.59v24.07H448.6v108.69l-19.13 13.87-95.14-130.97c-6.93-9.5-18.1-15.66-30.75-15.66-20.93 0-37.94 17.01-37.94 37.94 0 8.15 2.57 15.66 6.93 21.83l84.36 116.14c12.39-17.46 30.24-30.56 51.04-36.98l11.17 15.28c-21.64 4.88-39.93 18.49-51.04 36.91L348.58 642 238.73 490.74l-74.92 111.13-20.16-13.16c-11.94-17.85-30.88-30.69-52.9-34.48l10.66-15.73c21.25 5.46 39.68 17.85 52.71 34.6 0 0 99.06-146.89 99.12-146.89 4.04-6.03 6.48-13.35 6.48-21.19 0-20.99-17.01-38.01-38.01-38.01-13.1 0-24.65 6.68-31.46 16.76L80.02 547.22l-18.68-12.2V355.13L0 355.16v-19.74c4.69-10.27 7.42-21.63 7.42-33.7S4.76 278.29 0 268.02h19.04c3.92 10.46 6.03 21.89 6.03 33.7 0 10.21-1.54 20.09-4.49 29.34h183.03c20.93 0 37.94-16.95 37.94-37.94s-17.01-37.94-37.94-37.94H0V0h266.78v329.09c0 20.99 16.95 37.94 37.94 37.94s37.94-16.95 37.94-37.94V0h233.53v360.64l-195.59.03c-20.93 0-37.94 16.95-37.94 37.94Z" style="stroke-width:0"></path></svg>