<svg data-name="Layer 1" xmlns="http://www.w3.org/2000/svg" viewBox="0 0 610.77 610.77"><path d="M370.82 0v43.63h196.32v523.51H370.82v43.63h239.95V0H370.82z"></path><path d="M479.89 130.88v349.01H370.82v43.63h152.7V87.25h-152.7v43.63h109.07zM239.94 130.88h130.88v43.63H239.94zM239.94 218.13h130.88v43.63H239.94zM239.94 349.01h130.88v43.63H239.94zM239.94 436.26h130.88v43.63H239.94zM130.88 479.89V130.88h109.06V87.25H87.25v436.27h152.69v-43.63H130.88z"></path><path d="M43.63 567.14V43.63h196.31V0H0v610.77h239.94v-43.63H43.63z"></path></svg>