<svg id="Layer_1" data-name="Layer 1" xmlns="http://www.w3.org/2000/svg" viewBox="0 0 462.22 604.59">   <polygon points="231.11 489.07 57.76 315.72 0 373.48 231.11 604.59 462.22 373.48 404.46 315.72 231.11 489.07"></polygon>   <path d="M94.44,268.96c0-20.14,16.47-36.61,36.61-36.61s36.61,16.47,36.61,36.61v129.81l19.19,19.19V228.93c0-24.12,19.74-43.86,43.86-43.86s43.86,19.74,43.86,43.86v189.84l19.19-19.19v-86.69c0-20.14,16.47-36.61,36.61-36.61s36.61,16.47,36.61,36.61v13.47l95.25-95.25L231.11,0,0,231.11l94.44,94.44v-56.59Zm235.93-74.46c20.22,0,36.61,16.39,36.61,36.61s-16.39,36.61-36.61,36.61-36.61-16.39-36.61-36.61,16.39-36.61,36.61-36.61Zm-99.66-106.59c24.22,0,43.86,19.64,43.86,43.86s-19.64,43.86-43.86,43.86-43.86-19.64-43.86-43.86,19.64-43.86,43.86-43.86Zm-99.66,60.55c20.22,0,36.61,16.39,36.61,36.61s-16.39,36.61-36.61,36.61-36.61-16.39-36.61-36.61,16.39-36.61,36.61-36.61Z"></path> </svg>