<svg xmlns="http://www.w3.org/2000/svg" width="620.5" viewBox="0 0 620.5 497.7" height="497.7" xml:space="preserve"><path d="M183.7 337.5c20 0 36.3-16.3 36.3-36.3v-159l89.5-89.5 89.5 89.5v159c0 20 16.3 36.3 36.3 36.3h131.2l-37.3-37.3h-93.1V126.7L309.5 0 182.8 126.7v173.5H0l37.3 37.3h146.4z"></path><path d="M181.6 390.7c51 0 92.4-41.5 92.4-92.4v-132l35.4-35.4 35.4 35.4v132c0 51 41.5 92.4 92.4 92.4h182.3l-37.3-37.3H437.4c-30.4 0-55.2-24.8-55.2-55.2V150.8l-72.7-72.7-72.7 72.7v147.4c0 30.4-24.8 55.2-55.2 55.2H53.2l37.3 37.3h91.1z"></path><path d="M183.6 443.7c53.9 0 101-29.7 125.8-73.6 24.8 44 71.9 73.7 125.9 73.7h147.9l37.3-37.3H435.3c-59.1 0-107.2-48.1-107.2-107.2V173.8h-.1v-.1l-18.6-18.6-18.6 18.6v125.6c0 59.1-48.1 107.2-107.2 107.2H91.3L54 443.7h129.6z"></path><path d="M178.5 497.7c35.8 0 69.4-8.5 99.9-25.3 13-7.2 23.4-14.7 31-21.1 7.6 6.4 18 14 31 21.1 30.5 16.8 64.1 25.3 99.9 25.3h89l37.3-37.3H440.4c-69.6 0-110-39.4-117.3-47.3l-13.6-14.6-13.6 14.6c-7.4 7.9-47.7 47.3-117.3 47.3H37.3L0 497.7h178.5z"></path></svg>