<svg data-name="Layer 1" xmlns="http://www.w3.org/2000/svg" viewBox="0 0 636.58 633.66"><path d="m588.25 316.84 48.33-82.35-175.64-.01 87.83-152.11-95.49.67L406.12 0 318.3 152.12 230.47 0l-47.16 83.03-95.48-.68 87.82 152.12H0l48.33 82.36L0 399.19h175.63L87.8 551.27l95.49-.66 47.15 83.04 79.92-138.41v-98.69l-131.29.64 47.16-80.36-47.17-80.39 93.2.67 46.04-81.05 46.02 81.05 93.2-.66-47.18 80.38 47.17 80.39-130.72-.67v99.73l79.3 137.38 47.16-83.03 95.49.69-87.81-152.13 175.65.01-48.33-82.36z"></path></svg>