<svg xmlns="http://www.w3.org/2000/svg" width="628.7" viewBox="0 0 628.7 418.6" height="418.6" xml:space="preserve" style="enable-background:new 0 0 628.7 418.6"><path d="M252.3 5.5C231.9-6 205.9 1.1 194.4 21.6L5.5 355.2c-11.6 20.4-4.4 46.4 16 57.9 6.6 3.7 13.8 5.5 20.9 5.5 14.8 0 29.2-7.8 37-21.6L268.3 63.4c11.6-20.4 4.4-46.3-16-57.9zM303.2 207l80.5-143.7c11.5-20.5 4.2-46.4-16.3-57.8-20.6-11.5-46.5-4.2-57.9 16.2l-92.1 164.5c-7.5 13.3-6.9 29 0 41.4v.1l94.4 169.2c7.8 13.9 22.2 21.8 37.1 21.8 7 0 14.1-1.7 20.7-5.4 20.5-11.4 27.8-37.3 16.4-57.8L303.2 207z"></path><path d="M586.3 164.5h-143L500 63.3c11.5-20.5 4.2-46.4-16.3-57.8-20.6-11.5-46.5-4.2-58 16.2l-92.1 164.5c-7.5 13.3-6.9 29 0 41.4v.1L428 396.9c7.8 13.9 22.2 21.8 37.1 21.8 7 0 14.1-1.7 20.7-5.4 20.5-11.4 27.8-37.3 16.4-57.8l-59.2-106h143.2c23.5 0 42.5-19 42.5-42.5s-19-42.5-42.4-42.5z"></path></svg>