<svg xmlns="http://www.w3.org/2000/svg" width="609.2" viewBox="0 0 609.2 426.8" height="426.8" xml:space="preserve"><path d="M563.3 345.5c29.6-36.1 45.9-81.7 45.9-128.4 0-54.1-21.1-105-59.3-143.2-38.3-38.3-89.1-59.3-143.2-59.3-46.3 0-91.5 16-127.4 45.1-2.2 1.7-4.3 3.5-6.3 5.4V.4h-66.2v209.2h195.7v-66.2H283.9c8.6-14.2 19.6-27 32.7-37.6C342.3 85 373.5 74 406.6 74c79 0 143.2 64.2 143.2 143.2 0 33-11.5 65.3-32.4 90.7-11.5 14-25.4 25.6-41 34.3V217.3h-66.2v209.5h196.5v-66.2h-57.2c4.9-4.8 9.5-9.8 13.8-15.1z"></path><path d="M206.7 283.5h118.5c-8.6 14.2-19.6 27-32.7 37.6-25.7 20.8-56.9 31.8-90 31.8-79 0-143.2-64.2-143.2-143.2 0-33 11.5-65.3 32.4-90.7 11.4-13.9 25.4-25.5 40.9-34.2v124.8h66.2V0H2.5v66.2h57.2C54.9 71 50.3 76 45.9 81.3 16.3 117.4 0 163 0 209.7c0 54.1 21.1 105 59.3 143.2 38.3 38.3 89.1 59.3 143.2 59.3 46.3 0 91.5-16 127.4-45.1 2.2-1.7 4.3-3.5 6.3-5.4v65h66.2V217.3H206.7v66.2z"></path></svg>