<svg xmlns="http://www.w3.org/2000/svg" width="602.7" viewBox="0 0 602.7 602.7" height="602.7" xml:space="preserve" style="enable-background:new 0 0 602.7 602.7"><path d="m438.3 356.1-27.4-27.4 27.4-27.4-27.4-27.4 27.4-27.4-27.4-27.4 27.4-27.3-27.4-27.4-27.4 27.4-27.4-27.4-27.4 27.4-27.4-27.4-27.4 27.4-27.4-27.4-27.4 27.4-27.3-27.4-27.4 27.4 27.4 27.3-27.4 27.4 27.4 27.4-27.4 27.4 27.4 27.4-27.4 27.4 27.4 27.4-27.4 27.4 27.4 27.4 27.3-27.4 27.4 27.4 27.4-27.4 27.4 27.4 27.4-27.4 27.4 27.4 27.4-27.4 27.4 27.4 27.4-27.4-27.4-27.4z"></path><path d="m575.3 547.9 27.4-27.4-27.4-27.4 27.4-27.4-27.4-27.4 27.4-27.4-27.4-27.4 27.4-27.4-27.4-27.4 27.4-27.4-27.4-27.4 27.4-27.4-27.4-27.4 27.4-27.4-27.4-27.4 27.4-27.4-27.4-27.4 27.4-27.4-27.4-27.4 27.4-27.4L575.3 0l-27.4 27.4L520.5 0l-27.4 27.4L465.7 0l-27.4 27.4L410.9 0l-27.4 27.4L356.1 0l-27.4 27.4L301.3 0l-27.4 27.4L246.5 0l-27.4 27.4L191.8 0l-27.4 27.4L137 0l-27.4 27.4L82.2 0 54.8 27.4 27.4 0 0 27.4l27.4 27.4L0 82.2l27.4 27.4L0 137l27.4 27.4L0 191.8l27.4 27.4L0 246.5l27.4 27.4L0 301.3l27.4 27.4L0 356.1l27.4 27.4L0 410.9l27.4 27.4L0 465.7l27.4 27.4L0 520.5l27.4 27.4L0 575.3l27.4 27.4 27.4-27.4 27.4 27.4 27.4-27.4 27.4 27.4 27.4-27.4 27.4 27.4 27.4-27.4 27.4 27.4 27.4-27.4 27.4 27.4 27.4-27.4 27.4 27.4 27.4-27.4 27.4 27.4 27.4-27.4 27.4 27.4 27.4-27.4 27.4 27.4 27.4-27.4 27.4 27.4 27.4-27.4-27.5-27.4zm-137-82.2-27.4 27.4-27.4-27.4-27.4 27.4-27.4-27.4-27.4 27.4-27.4-27.4-27.4 27.4-27.4-27.4-27.4 27.4-27.4-27.4-27.3 27.4-27.4-27.4 27.4-27.4-27.4-27.4 27.4-27.4-27.4-27.4 27.4-27.4-27.4-27.4 27.4-27.4-27.4-27.4 27.4-27.4-27.4-27.4 27.4-27.4-27.4-27.3 27.4-27.4 27.4 27.4 27.4-27.4 27.4 27.4 27.4-27.4L274 137l27.4-27.4 27.4 27.4 27.4-27.4 27.4 27.4 27.4-27.4 27.4 27.4 27.4-27.4 27.4 27.4-27.4 27.4 27.4 27.4-27.4 27.4 27.4 27.4-27.4 27.4 27.4 27.4-27.4 27.4 27.4 27.4-27.4 27.4 27.4 27.4-27.4 27.4 27.4 27.4-27.4 27.4-27.5-27.5z"></path></svg>