<svg data-name="Layer 1" xmlns="http://www.w3.org/2000/svg" viewBox="0 0 604.52 604.52"><path d="M582.07 182.01 422.51 22.45C408.13 8.08 388.64 0 368.31 0H236.22c-20.33 0-39.83 8.07-54.21 22.45L22.45 182.01C8.08 196.38 0 215.88 0 236.22v83.38h49.29c20.38 0 40.16 2.59 59.04 7.44-1.03-8.2-1.57-16.47-1.57-24.78 0-108.48 88.25-196.73 196.73-196.73s196.73 88.26 196.73 196.73c0 8.11-.52 16.18-1.5 24.19 18.12-4.44 37.04-6.85 56.51-6.85h49.28v-83.38c0-20.33-8.08-39.83-22.45-54.21Z"></path><path d="M466.39 336.91c2.4-11.34 3.68-22.95 3.68-34.65 0-91.85-74.73-166.58-166.58-166.58s-166.58 74.73-166.58 166.58c0 12.07 1.37 24.04 3.91 35.71 85.58 35.9 145.86 120.55 145.86 219.02v47.53h31.16v-47.53c0-99.5 61.55-184.84 148.56-220.08Z"></path><path d="M49.29 349.75H0v18.56c0 20.33 8.08 39.83 22.45 54.2l159.56 159.56c14.38 14.37 33.87 22.45 54.21 22.45h20.31v-47.53c0-114.27-92.97-207.24-207.24-207.24ZM347.99 556.99v47.53h20.31c20.33 0 39.83-8.08 54.21-22.45l159.56-159.56c14.38-14.38 22.45-33.87 22.45-54.21v-18.56h-49.28C440.97 349.74 348 442.71 348 556.98Z"></path></svg>