<svg data-name="Layer 1" xmlns="http://www.w3.org/2000/svg" viewBox="0 0 632.81 606.3"><path d="M421.24 78.38h-63.93l-40.91 40.9-40.9-40.9h-63.93L316.4 183.21 421.24 78.38z"></path><circle cx="316.4" cy="41.73" r="41.73"></circle><path d="m422.19 225.12-40.91-40.91h-63.92l104.83 104.84 104.84-104.84H463.1l-40.91 40.91z"></path><circle cx="422.19" cy="147.56" r="41.73" transform="rotate(-13.28 422.28624701 147.58741303)"></circle><path d="M315.45 184.21h-63.93l-40.9 40.91-40.91-40.91h-63.93l104.84 104.84 104.83-104.84z"></path><circle cx="210.62" cy="147.56" r="41.73"></circle><path d="m568.88 289.97-40.91 40.91-40.9-40.91h-63.93L527.97 394.8l104.84-104.83h-63.93z"></path><circle cx="527.97" cy="253.32" r="41.73"></circle><path d="m357.31 289.97-40.91 40.91-40.91-40.91h-63.93L316.4 394.8l104.83-104.83h-63.92z"></path><circle cx="316.4" cy="253.32" r="41.73" transform="rotate(-67.5 316.39601983 253.31928757)"></circle><path d="m145.74 289.96-40.91 40.91-40.9-40.91H0l104.83 104.83 104.84-104.83h-63.93z"></path><circle cx="104.83" cy="253.31" r="41.73" transform="rotate(-9.22 104.77959365 253.22839795)"></circle><path d="m422.19 436.63-40.91-40.91h-63.93l104.84 104.84 104.83-104.84h-63.93l-40.9 40.91z"></path><circle cx="422.19" cy="359.07" r="41.73" transform="rotate(-13.28 422.2586125 359.11175619)"></circle><path d="m251.53 395.71-40.91 40.91-40.91-40.91h-63.92l104.83 104.84 104.84-104.84h-63.93z"></path><circle cx="210.62" cy="359.06" r="41.73" transform="rotate(-13.28 210.68631824 359.12207276)"></circle><path d="m316.4 542.38-40.9-40.91h-63.93L316.4 606.3l104.84-104.83h-63.93l-40.91 40.91z"></path><circle cx="316.4" cy="464.82" r="41.73" transform="rotate(-67.5 316.40692704 464.81518755)"></circle></svg>