<svg data-name="Layer 1" xmlns="http://www.w3.org/2000/svg" viewBox="0 0 522.82 621.01"><path d="M217.09 59.86h88.86c.74 0 1.3-.69 1.12-1.38L296.18 5.15h-.09c-.09-.39-.3-.69-.65-.82-2.38-.91-12.75-4.32-33.97-4.32s-31.59 3.41-33.97 4.32c-.39.13-.61.43-.65.82l-10.89 53.33c-.13.73.39 1.38 1.12 1.38ZM387.63 242.28v-.17c-14.52-.69-28.57.82-41.92 4.23-.17 0-.3-.04-.35-.21L309.75 72.09c-.13-.56-.61-.95-1.17-.95h-94.39c-.56 0-1.04.39-1.17.95l-35.61 174.04s-.17.26-.35.21c-13.31-3.41-27.4-4.93-41.88-4.23C58.78 245.7 0 311.57 0 388.06v97.98s0 .13.04.17c13.1 18.37 28.05 35.35 44.64 50.52.17.17.52 0 .52-.22V387.02c0-50.52 37.38-94.86 87.73-99.44 57.44-5.27 105.84 40.02 105.84 96.38v190.46s-.17.3-.35.3c-6.4-.52-12.75-1.29-19.02-2.25-.13 0-.26-.13-.26-.3V386.98c0-41.23-31.03-77.36-72.13-80-44.82-2.85-82.16 32.8-82.16 77.02v169.55s.04.17.13.26c14 10.85 28.91 20.62 44.64 29.09.22.13.43 0 .43-.26V385.69c0-16.81 12.27-31.98 29-33.5 18.93-1.69 34.88 13.23 34.88 31.81v224.65s.09.26.22.3c3.8 1.08 7.65 2.07 11.5 2.98.69.17 1.38.26 2.07.43 4.37 1.04 8.77 1.95 13.18 2.81 1.77.35 3.5.69 5.27.99 4.28.73 8.6 1.43 12.97 1.99 8.9 1.17 17.89 1.95 27.01 2.38 5.06.26 10.11.48 15.21.48 4.24 0 8.43-.13 12.62-.3 3.2-.13 6.4-.3 9.6-.56h.39c6.61-.47 13.14-1.12 19.62-1.99 0 0 .3 0 .48-.04 3.46-.47 6.87-.99 10.33-1.55.78-.13 1.51-.26 2.29-.39 2.72-.48 5.45-.91 8.17-1.43v-.09c8.04-1.6 15.95-3.5 23.77-5.7.13 0 .22-.17.22-.3V385.69c0-16.81 12.27-31.98 29-33.49 18.93-1.69 34.88 13.23 34.88 31.81v198.63c0 .22.26.39.43.26 15.73-8.47 30.64-18.24 44.64-29.09.09-.04.13-.13.13-.26V386.98c0-41.23-31.03-77.36-72.13-80-44.82-2.85-82.16 32.8-82.16 77.02v188.17s-.13.26-.26.3c-6.27.99-12.62 1.73-19.02 2.29-.17 0-.35-.13-.35-.3V387.15c0-50.52 37.38-94.86 87.73-99.45 57.44-5.27 105.84 40.02 105.84 96.38v152.61c0 .26.3.39.52.22 16.6-15.22 31.55-32.16 44.64-50.52 0-.04.04-.13.04-.17v-97.98c0-76.5-58.78-142.36-135.19-145.95Zm-85.57 23.6c-15.9 10.63-29.52 24.42-40.02 40.41-.3.48-.95.48-1.25 0-10.5-15.99-24.12-29.78-40.02-40.41-.52-.35-.78-.95-.65-1.56l29.39-144.83c.39-1.81 1.99-3.15 3.85-3.15h16.12c1.86 0 3.46 1.3 3.85 3.15l29.39 144.83c.13.61-.13 1.21-.65 1.56Z"></path></svg>