<svg xmlns="http://www.w3.org/2000/svg" width="592.3" viewBox="0 0 592.3 624.9" height="624.9" xml:space="preserve" style="enable-background:new 0 0 592.3 624.9"><path d="M0 0h129.5v624.9H0zM136 0v230.4c20.9-75 89.7-130.2 171.2-130.2 98 0 177.7 79.7 177.7 177.7 0 98-79.7 177.7-177.7 177.7-81.5 0-150.3-55.2-171.2-130.2v299.4h456.3V0H136z"></path><path d="M307.2 449.1c94.4 0 171.2-76.8 171.2-171.2 0-94.4-76.8-171.2-171.2-171.2-94.4 0-171.2 76.8-171.2 171.2 0 94.4 76.8 171.2 171.2 171.2zm0-233c34.9 0 63.1 28.3 63.1 63.1 0 34.9-28.3 63.1-63.1 63.1s-63.1-28.3-63.1-63.1 28.3-63.1 63.1-63.1z"></path></svg>