<svg xmlns="http://www.w3.org/2000/svg" width="628.5" viewBox="0 0 628.5 628.7" height="628.7" xml:space="preserve" style="enable-background:new 0 0 628.5 628.7"><path d="m583.1 173-29.6 98.9-221 42.5h296s-58.1-50-45.4-141.4zM330.2 305l256.4-148s-75.3-14.3-110-99.8l23.8 100.4L330.2 305zM471.5 42.1s-72.3 25.3-145.2-31.4l70.8 75.1-73.7 212.7L471.5 42.1zM314.3 296V0s-50 58.1-141.4 45.4L271.7 75l42.6 221zM305 298.3 157 41.9s-14.3 75.3-99.8 110l100.4-23.8L305 298.3zM85.7 231.3 298.4 305 42 157s25.3 72.3-31.4 145.2l75.1-70.9zM45.4 455.7 75 356.9l221-42.5H0c0-.1 58.1 49.9 45.4 141.3zM298.3 323.7l-256.4 148s75.3 14.3 110 99.8L128.1 471l170.2-147.3zM157 586.6s72.3-25.3 145.2 31.4l-70.8-75.1L305 330.2 157 586.6zM314.2 332.7v296s50-58.1 141.4-45.4l-98.9-29.6-42.5-221zM323.5 330.4l148 256.4s14.3-75.3 99.8-110l-100.4 23.8-147.4-170.2zM542.8 397.4l-212.7-73.7 256.4 148s-25.3-72.3 31.4-145.2l-75.1 70.9z"></path></svg>