<svg data-name="Layer 1" xmlns="http://www.w3.org/2000/svg" viewBox="0 0 628.58 596.3"><path d="M491.27 120.04c-75.83 0-137.3 61.47-137.3 137.3 0 9.38.95 18.54 2.75 27.39h-.01l50.71 229.44 175.02-154.35c28.25-25.15 46.15-61.68 46.15-102.48 0-75.83-61.47-137.3-137.3-137.3ZM271.86 284.73c1.79-8.85 2.75-18.01 2.75-27.39 0-75.83-61.47-137.3-137.3-137.3S0 181.51 0 257.34c0 40.8 17.9 77.33 46.15 102.48l175.02 154.35 50.71-229.45h-.01ZM312.58 292.85l-44.73 223.84h-43.82l90.26 79.61 90.26-79.61H360.5l-47.92-223.84z"></path><circle cx="312.58" cy="78.4" r="78.4" transform="rotate(-67.5 312.57276553 78.40453674)"></circle></svg>