<svg data-name="Layer 1" xmlns="http://www.w3.org/2000/svg" viewBox="0 0 598.53 598.53"><path d="M299.27 0C133.99 0 0 133.99 0 299.27s133.99 299.27 299.27 299.27 299.27-133.99 299.27-299.27S464.55 0 299.27 0Zm-29.95 45.31c16.54-16.54 43.36-16.54 59.9 0l106.26 106.26-106.26 106.26c-16.54 16.54-43.36 16.54-59.9 0L163.06 151.57 269.32 45.31ZM121.63 405.53 15.37 299.27l106.26-106.26c16.54-16.54 43.36-16.54 59.9 0l106.26 106.26-106.26 106.26c-16.54 16.54-43.36 16.54-59.9 0Zm207.58 147.69c-16.54 16.54-43.36 16.54-59.9 0L163.05 446.96 269.31 340.7c16.54-16.54 43.36-16.54 59.9 0l106.26 106.26-106.26 106.26ZM476.9 405.53c-16.54 16.54-43.36 16.54-59.9 0L310.74 299.27 417 193.01c16.54-16.54 43.36-16.54 59.9 0l106.26 106.26L476.9 405.53Z"></path></svg>