<svg data-name="Layer 1" xmlns="http://www.w3.org/2000/svg" viewBox="0 0 612.59 377.73"><path d="M509.13 0C401.02 0 313.07 87.96 313.07 196.07v98.55h67.54v-98.55c0-70.87 57.66-128.53 128.53-128.53H612.6V0H509.14Z"></path><path d="M394.11 196.07v98.55h67.54v-98.55c0-26.18 21.3-47.48 47.48-47.48h103.46V81.04H509.13c-63.42 0-115.02 51.6-115.02 115.02ZM346.96 305.16c-20.04 0-36.29 16.25-36.29 36.29s16.25 36.29 36.29 36.29 36.29-16.25 36.29-36.29-16.25-36.29-36.29-36.29ZM427.88 305.16c-20.04 0-36.29 16.25-36.29 36.29s16.25 36.29 36.29 36.29 36.29-16.25 36.29-36.29-16.25-36.29-36.29-36.29ZM231.99 196.07v98.55h67.54v-98.55C299.53 87.96 211.57 0 103.46 0H0v67.54h103.46c70.87 0 128.53 57.66 128.53 128.53Z"></path><path d="M150.94 294.61h67.54v-98.55c0-63.42-51.6-115.02-115.02-115.02H0v67.54h103.46c26.18 0 47.48 21.3 47.48 47.48v98.55ZM265.64 305.16c-20.04 0-36.29 16.25-36.29 36.29s16.25 36.29 36.29 36.29 36.29-16.25 36.29-36.29-16.25-36.29-36.29-36.29ZM184.71 305.16c-20.04 0-36.29 16.25-36.29 36.29s16.25 36.29 36.29 36.29S221 361.49 221 341.45s-16.25-36.29-36.29-36.29Z"></path></svg>