<svg data-name="Layer 1" xmlns="http://www.w3.org/2000/svg" viewBox="0 0 619.09 619.08"><path d="M90.66 90.66c-120.89 120.89-120.89 316.88 0 437.77 60.15 60.15 138.89 90.36 217.72 90.65l-199.69-199.7c-45.16-45.16-45.16-118.39 0-163.55l89.41-89.41 22.63 22.63c30.61 30.61 30.61 80.25 0 110.86l-43 43c-27.16 27.16-26.75 71.67-4.93 102.75 1.15 1.64 3.66.26 2.94-1.6-11.04-28.33-4.71-62.23 18.1-85.04l170.29-170.29 22.63 22.63c30.61 30.61 30.61 80.25 0 110.86L284.74 424.24l-9.99 9.99c-27.94 27.94-29.39 70.73-6.16 101.26 1.17 1.54 3.57.21 2.92-1.61-9.94-27.97-2.93-61.27 19.35-83.55l239.3-239.3 22.63 22.63c30.61 30.61 30.61 80.25 0 110.86L378.91 518.4l-9.99 9.99c-23.7 23.7-29.04 58.81-16.03 87.66 64.23-9.03 126.16-38.23 175.56-87.62 120.89-120.89 120.89-316.88 0-437.77-120.89-120.89-316.88-120.89-437.77 0Z"></path></svg>