<svg id="Layer_1" data-name="Layer 1" xmlns="http://www.w3.org/2000/svg" viewBox="0 0 598.57 597.96">   <path d="M598.57,299.29C598.57,133.99,464.58,0,299.29,0S0,133.99,0,299.29s124.18,289.16,280.9,298.67v-152.8c0-37.81-30.76-68.57-68.57-68.57s-68.57,30.76-68.57,68.57h-36.76c0-58.08,47.25-105.34,105.33-105.34,36.08,0,67.96,18.25,86.95,45.99,18.99-27.74,50.87-45.99,86.95-45.99,58.08,0,105.34,47.25,105.34,105.34h-36.76c0-37.81-30.76-68.57-68.57-68.57s-68.57,30.76-68.57,68.57v152.8c156.72-9.5,280.91-139.56,280.91-298.67Zm-143.76,59.35c0-37.81-30.76-68.57-68.57-68.57s-68.57,30.76-68.57,68.57h-36.76c0-37.81-30.76-68.57-68.57-68.57s-68.57,30.76-68.57,68.57h-36.76c0-58.08,47.25-105.34,105.33-105.34,36.08,0,67.96,18.25,86.95,45.99,18.99-27.74,50.87-45.99,86.95-45.99,58.08,0,105.34,47.25,105.34,105.34h-36.76Zm0-86.52c0-37.81-30.76-68.57-68.57-68.57s-68.57,30.76-68.57,68.57h-36.76c0-37.81-30.76-68.57-68.57-68.57s-68.57,30.76-68.57,68.57h-36.76c0-58.08,47.25-105.33,105.33-105.33,36.08,0,67.96,18.25,86.95,45.99,18.99-27.74,50.87-45.99,86.95-45.99,58.08,0,105.34,47.25,105.34,105.33h-36.76Zm36.76-86.52c0-.15-.02-.29-.02-.43h-36.74v.43c0-37.82-30.76-68.57-68.57-68.57s-68.57,30.76-68.57,68.57h-36.76c0-37.82-30.76-68.57-68.57-68.57s-68.57,30.76-68.57,68.57v-.43h-36.74c0,.15-.02,.29-.02,.43v-.43h.02c.24-57.88,47.38-104.91,105.31-104.91,36.08,0,67.96,18.25,86.95,45.99,18.99-27.74,50.87-45.99,86.95-45.99,57.94,0,105.08,47.02,105.31,104.91h.02v.43Z"></path> </svg>