<svg data-name="Layer 1" xmlns="http://www.w3.org/2000/svg" viewBox="0 0 618.93 618.5"><path d="M442.89 312.86h176.04V488.9H442.89zM491.02 183.27H318.2l122.36 122.36h173.23L491.02 183.27zM184.9920299 309.2344365l124.47907776-124.47907775L433.95018542 309.2344365 309.47110766 433.71351427zM312.86 0H488.9v176.04H312.86zM305.63 5.11 183.27 127.47v173.26l122.36-122.36V5.11zM0 129.59h176.04v176.04H0zM178.37 312.86H5.11l122.36 122.36h173.26L178.37 312.86zM129.59 442.46h176.04V618.5H129.59zM312.86 613.4l122.79-122.38V317.77L312.86 440.56V613.4z"></path></svg>