<svg xmlns="http://www.w3.org/2000/svg" width="620.4" viewBox="0 0 620.4 441.4" height="441.4" xml:space="preserve"><path d="M371.2 61.3c0-33.8-27.5-61.3-61.3-61.3s-61.3 27.5-61.3 61.3 27.5 61.3 61.3 61.3 61.3-27.5 61.3-61.3zm-61.3 33.8c-18.6 0-33.8-15.2-33.8-33.8s15.2-33.8 33.8-33.8 33.8 15.2 33.8 33.8-15.2 33.8-33.8 33.8zM491.3 122.6H129L0 282.8h246.9v156.3l63-84.3 63 86.6V282.8h247.5L491.3 122.6zM57.5 255.3l71.2-88.4 68.8 88.4h-140zm189.4 18.6-96.3-123.7h96.3v123.7zm98.4 81.4-35.5-46.9-35.5 49.2V150.2h70.9v205.1zm27.6-205.1h97l-97 124.6V150.2zm118.8 16.7 71.2 88.4h-140l68.8-88.4z" class="st0"></path></svg>