<svg data-name="Layer 1" xmlns="http://www.w3.org/2000/svg" viewBox="0 0 601.37 514.13"><path d="M452.9 269.88V0l-76.11 133.35L300.68 0v.07V0l-76.11 133.35L148.47 0v269.88L0 514.13h601.37L452.9 269.88ZM148.47 492.53H38.41l110.05-181.06v181.06Zm21.6-413.9 54.5 97.08 76.11-133.36 76.11 133.35 54.5-97.08v144.63H170.07V78.62Zm0 205.08h119.81v93.61H170.07v-93.61Zm18.8 208.82h-18.8v-61.36c5.53 5.8 11.83 10.82 18.8 14.81v46.55Zm40.41 0h-18.8v-38.01c6.06 1.47 12.35 2.3 18.8 2.36v35.65Zm-55.19-93.61h111.78c-9.61 21.7-31.29 36.39-55.89 36.39s-46.29-14.7-55.89-36.39Zm136 93.61h-18.8v-22.49h18.8v22.49Zm40.41 0h-18.8v-44.1h-62.01v44.1h-18.8v-38.32c20.85-5.44 38.71-18.83 49.81-37.05 11.1 18.22 28.96 31.6 49.81 37.05v38.32Zm-34.99-93.61H427.3c-9.61 21.7-31.29 36.39-55.89 36.39s-46.28-14.7-55.89-36.39Zm75.39 93.61h-18.8v-35.65c6.45-.06 12.74-.89 18.8-2.36v38.01Zm40.41-36.75v36.75h-18.8v-46.55c6.97-3.99 13.27-9.01 18.8-14.81v24.61Zm0-78.46H311.5v-93.61h119.81v93.61Zm0-115.21H170.07v-17.25H431.3v17.25Zm21.6 49.36 110.05 181.06H452.91V311.47Z"></path><circle cx="263.39" cy="317.74" r="20.23"></circle><circle cx="337.97" cy="317.74" r="20.23"></circle></svg>