<svg xmlns="http://www.w3.org/2000/svg" width="642" viewBox="0 0 642 474.01" height="474.01" data-name="Layer 1"><path d="M174.68 474.01v-80.59l32.67 32.67 22.7-22.7-73.83-73.83-73.83 73.83 22.7 22.7 32.67-32.67v80.59h36.92zM92.29 391.62v-80.59l32.67 32.67 22.7-22.7-73.83-73.83L0 321l22.7 22.7 32.67-32.67v80.59h36.92zM251.45 391.62v-102.1l46.24 46.23L312.44 321l-73.83-73.83L164.78 321l14.75 14.75 46.24-46.23v102.1h25.68zM169.01 309.23V207.07l46.29 46.29 14.75-14.75-73.83-73.83-73.83 73.83 14.75 14.75 46.29-46.29v102.16h25.58zM245.83 226.84v-116.8l56.4 56.39 10.21-10.21-73.83-73.83-73.83 73.83 10.21 10.21 56.4-56.39v116.8h14.44zM328.22 309.23v-116.8l56.4 56.39 10.21-10.21L321 164.78l-73.83 73.83 10.21 10.21 56.4-56.39v116.8h14.44zM410.61 391.62v-116.8l56.4 56.39L477.22 321l-73.83-73.83L329.56 321l10.21 10.21 56.4-56.39v116.8h14.44zM493 474.01v-116.8l56.4 56.39 10.21-10.21-73.83-73.83-73.83 73.83 10.21 10.21 56.4-56.39v116.8H493zM325.81 144.45V18.46l62.2 62.19 6.82-6.82L321 0l-73.83 73.83 6.82 6.82 62.2-62.19v125.99h9.62zM408.21 226.84V100.85l62.19 62.19 6.82-6.82-73.83-73.83-73.83 73.83 6.82 6.82 62.2-62.19v125.99h9.63zM490.6 309.23V183.24l62.19 62.19 6.82-6.82-73.83-73.83-73.83 73.83 6.82 6.82 62.2-62.19v125.99h9.63zM572.99 391.62V265.63l62.19 62.19L642 321l-73.83-73.83L494.34 321l6.82 6.82 62.2-62.19v125.99h9.63z"></path></svg>