<svg xmlns="http://www.w3.org/2000/svg" width="406.8" viewBox="0 0 406.8 606.2" height="606.2" xml:space="preserve"><path d="M406.8 288.5C406.8 129.2 315.7 0 203.4 0S0 129.2 0 288.5c0 119.4 51.1 221.7 124 265.6l3.9 2.3-79.3-.1v49.9h309.7v-49.9h-79.8c.4-.2 5.3-2.7 5.7-2.9 72.1-44.3 122.6-146.2 122.6-264.9zm-278.9 268 .1-.1 32.6-53.4 41.4 74.1c-26.5-.1-51-7.4-74.1-20.6zm31.8-153.2L113.8 481c-39.5-43.1-65.3-113.8-65.3-193.7C48.5 156 118 49.5 203.8 49.5S359.1 156 359.1 287.3c0 81-26.4 152.4-66.8 195.4l-47.5-79.3-42.6 68.5-42.5-68.6zm42.9 173.8L244 503l34.5 53.4-1.4.7c-23.1 12.9-48.2 20-74.5 20z"></path></svg>