<svg data-name="Layer 1" xmlns="http://www.w3.org/2000/svg" viewBox="0 0 623.44 612.37"><path d="M311.72 0C139.84 0 0 139.84 0 311.72h36.02c0-152.03 123.68-275.7 275.7-275.7s275.7 123.68 275.7 275.7h36.02C623.44 139.84 483.6 0 311.72 0Z"></path><path d="M311.72 61.26c-138.1 0-250.46 112.36-250.46 250.46h36.02c0-118.24 96.2-214.44 214.44-214.44s214.44 96.2 214.44 214.44h36.02c0-138.1-112.36-250.46-250.46-250.46Z"></path><path d="M311.72 122.52c-104.33 0-189.2 84.87-189.2 189.2h36.02c0-84.47 68.72-153.18 153.18-153.18S464.9 227.26 464.9 311.72h36.02c0-104.33-84.88-189.2-189.2-189.2Z"></path><path d="M161.39 311.72v300.65h100.22V512.15h100.22v100.22h100.22V311.72L311.72 161.39 161.39 311.72z"></path></svg>