<svg data-name="Layer 1" xmlns="http://www.w3.org/2000/svg" viewBox="0 0 605.28 402.54"><path d="M574.3 133.39c-23.74-2.02-43.22-18.89-49.22-41.26C514.77 39.59 469.4 0 414.97 0c-62.04 0-112.33 51.41-112.33 114.82C302.64 51.41 252.35 0 190.32 0c-54.43 0-99.8 39.59-110.11 92.13-6 22.37-25.48 39.25-49.22 41.26C13.69 134.51 0 148.86 0 166.44s13.69 31.93 30.99 33.05c23.77 2.02 48.05 17.69 60.62 52.61.52 1.51 1.01 3.02 1.56 4.51.05.15.1.28.15.42v-.02c31.58 84.97 113.37 145.52 209.33 145.52s177.75-60.55 209.31-145.52v.02c.06-.15.11-.28.16-.42.55-1.49 1.04-3.01 1.56-4.51 12.57-34.93 36.85-50.59 60.62-52.61 17.3-1.12 30.99-15.47 30.99-33.05s-13.69-31.93-30.99-33.05ZM302.65 383.38 157.88 132.65H447.4L302.64 383.38Z"></path></svg>