<svg data-name="Layer 1" xmlns="http://www.w3.org/2000/svg" viewBox="0 0 613.28 518.26"><path d="m161.94 463.23 50.28-50.28 105.31 105.31H451.8L326.73 393.2l-40.31 40.31V286.42H161.94v176.81z"></path><path d="M554.11 487.64c37.17-50.74 59.17-113.29 59.17-181.01C613.28 137.29 475.99 0 306.64 0S0 137.29 0 306.64c0 82.09 32.32 156.59 84.85 211.63h192.12C172.9 503.8 92.71 414.7 92.71 306.64c0-118.14 95.78-213.92 213.92-213.92s213.92 95.77 213.92 213.92c0 4.24-.39 8.38-.63 12.55L412.94 212.21l50.28-50.28H286.41v124.48h147.1l-40.32 40.32L554.1 487.64Z"></path></svg>