<svg xmlns="http://www.w3.org/2000/svg" width="642" viewBox="0 0 642 642" height="642" data-name="Layer 1"><path d="M472.58 0H642v169.42L472.58 0zM552.16 86.42l-40.92 40.92c-49.12 49.18-116.95 79.52-191.95 79.52s-142.83-30.33-191.95-79.52L86.42 86.42l83-83 40.92 40.92c27.88 27.88 66.41 45.11 108.95 45.11s81.06-17.23 108.95-45.11l40.92-40.92 83 83ZM83 89.84l40.92 40.92c49.18 49.12 79.52 116.95 79.52 191.95 0 75-30.33 142.83-79.52 191.95L83 555.58l-83-83 40.92-40.92c27.88-27.88 45.11-66.41 45.11-108.95 0-42.53-17.23-81.06-45.11-108.95L0 172.84l83-83ZM86.42 559l40.92-40.92c49.12-49.18 116.95-79.52 191.95-79.52 75 0 142.83 30.33 191.95 79.52L552.16 559l-83 83-40.92-40.92c-27.88-27.88-66.41-45.11-108.95-45.11-42.53 0-81.06 17.23-108.95 45.11L169.42 642l-83-83ZM555.58 555.58l-40.92-40.92c-49.18-49.12-79.52-116.95-79.52-191.95s30.33-142.83 79.52-191.95l40.92-40.92 83 83-40.92 40.92c-27.88 27.88-45.11 66.41-45.11 108.95 0 42.53 17.23 81.06 45.11 108.95l40.92 40.92-83 83Z"></path></svg>