<svg xmlns="http://www.w3.org/2000/svg" width="642" viewBox="0 0 642 622.74" height="622.74" data-name="Layer 1"><path d="M560.95 622.74H81.05C36.29 622.74 0 586.45 0 541.69V298.92C0 224.9 60 164.9 134.02 164.9h297.65c24.86 0 46.71-12.94 59.16-32.45l77.04-113.2C575.15 7.64 587.49 0 601.48 0c22.38 0 40.53 19.55 40.53 43.66v498.03c0 44.76-36.29 81.05-81.05 81.05Zm-119.57-158.9c28.37 0 51.36-22.99 51.36-51.36v-85.59c0-28.37-22.99-51.36-51.36-51.36H160.5c-28.37 0-51.36 22.99-51.36 51.36V522.4c0 8.22 5.81 15.72 13.96 16.75 4.73.6 9.13-.87 12.4-3.62l48.74-42.88c21.4-17.98 49-28.8 79.13-28.8h177.99Z"></path></svg>