<svg xmlns="http://www.w3.org/2000/svg" width="599.5" viewBox="0 0 599.5 437.3" height="437.3"><path d="M598.1 216.8c-22.9-2.2-42.8-17.5-50.8-39.1L496 38.8C487.4 15.6 465 0 440.3 0H339.7c-.5 0-1 .3-1.3.7-.3.4-.4 1-.2 1.4l59.4 157.6c1.8 5-.4 10.6-5.2 12.9H207c-4.7-2.3-7-7.9-5.2-12.9L261.3 2.1c.2-.5.1-1-.2-1.4-.3-.4-.8-.7-1.3-.7H159.2c-24.7 0-47.1 15.6-55.7 38.8l-51.3 139c-8 21.6-27.9 36.9-50.8 39.1-.8.1-1.4.8-1.4 1.6s.6 1.5 1.4 1.6c22.8 2.2 42.7 17.7 50.8 39.6l51.3 139c8.6 23.2 30.9 38.8 55.7 38.8h100.6c.5 0 1-.3 1.3-.7.3-.4.4-1 .2-1.4l-59.4-157.6c-1.8-5 .4-10.6 5.2-12.9h185.4c4.7 2.3 7 7.9 5.2 12.9l-59.4 157.6c-.2.5-.1 1 .2 1.4.3.4.8.7 1.3.7h100.6c24.7 0 47.1-15.6 55.7-38.8l51.3-139c8.1-21.9 28-37.5 50.8-39.6.8-.1 1.4-.8 1.4-1.6s-.7-1.6-1.5-1.7z"></path></svg>