<svg data-name="Layer 1" xmlns="http://www.w3.org/2000/svg" viewBox="0 0 603.86 562.57"><path d="M329.57 237.77h91.27l-45.75-79.24-45.64 79.04-45.63-79.04h91.27l-45.75-79.24-45.64 79.05-45.63-79.05h91.27L283.59.06 237.96 79.1 192.29 0H0l324.8 562.57 96.15-166.52-45.64-79.04h91.28l-45.74-79.24-45.64 79.05-45.64-79.05z"></path><path d="m466.59 158.53-45.74 79.24h91.49l-45.75-79.24zM466.61 158.53h91.5l-45.75-79.24-45.75 79.24zM558.11.06l-45.75 79.23h91.5L558.11.06zM512.33 79.29 466.58.06l-45.74 79.23L375.1.06l-45.75 79.23H512.33z"></path><path d="M466.58 158.53h.01l-45.74-79.24-.01.01v-.01l-45.75 79.24H466.58z"></path></svg>