<svg xmlns="http://www.w3.org/2000/svg" width="608.9" viewBox="0 0 608.9 607.8" height="607.8" xml:space="preserve" style="enable-background:new 0 0 608.9 607.8"><path d="M608.9 248.9H405.7L508.5 79.4C454.4 30.1 382.6 0 303.9 0 136.3 0 0 136.3 0 303.9s136.3 303.9 303.9 303.9c78.7 0 150.5-30.1 204.5-79.3L405.7 358.9h203.2v-110zM303.9 110c18.3 0 36.1 2.6 52.9 7.3L277 248.9H118C141.8 168.7 216.1 110 303.9 110zM118 358.9h159l79.8 131.5c-16.8 4.8-34.5 7.4-52.9 7.4-87.8 0-162.1-58.7-185.9-138.9z"></path></svg>