<svg data-name="Layer 1" xmlns="http://www.w3.org/2000/svg" viewBox="0 0 620.99 379.65"><path d="M512.57 135.94c-.88 0-1.76.05-2.64.07-16.23-40.28-54.88-67.02-98.72-67.74C394.89 27.14 355.33 0 310.49 0s-84.4 27.14-100.73 68.27c-43.83.72-82.47 27.47-98.7 67.74-.88-.02-1.75-.07-2.64-.07C48.64 135.94 0 184.58 0 244.36v17.59h77.83v117.7h61.18v-117.7h142.31v117.7h61.18v-117.7h139.48v117.7h61.18v-117.7h77.83v-17.59c0-59.78-48.64-108.42-108.42-108.42ZM310.49 19.01c34.93 0 65.93 19.99 80.62 50.78-35.46 6.03-65.78 29.33-80.61 62.44-14.83-33.11-45.16-56.41-80.62-62.44 14.69-30.79 45.69-50.78 80.61-50.78ZM120 242.94v117.7H96.84v-117.7H19.02c.76-48.65 40.57-87.99 89.4-87.99s88.63 39.34 89.4 87.99H120Zm10.85-104.65c14.64-30.92 45.77-51.05 80.73-51.05s65.73 19.92 80.49 50.55c-37.84 7.03-68.85 33.75-81.9 69.12-12.76-34.56-42.65-60.88-79.31-68.62Zm192.64 104.65v117.7h-23.16v-117.7h-77.82c.76-48.65 40.57-87.99 89.4-87.99s88.63 39.34 89.4 87.99h-77.82Zm5.65-105.61c14.84-30.36 45.73-50.08 80.27-50.08s66.08 20.12 80.73 51.05c-35.38 7.48-64.44 32.26-77.89 65.04-14.11-34.38-45.38-59.95-83.1-66Zm195.01 105.61v117.7h-23.16v-117.7h-77.82c.76-48.65 40.57-87.99 89.4-87.99s88.63 39.34 89.4 87.99h-77.82Z"></path></svg>