<svg data-name="Layer 1" xmlns="http://www.w3.org/2000/svg" viewBox="0 0 613.3 549.39"><path d="M396.76 412.04H198.38v-12.49h414.91c-.38-4.23-.99-8.38-1.75-12.49H396.75v-12.49H198.38v-12.49h406.04c-1.67-4.27-3.53-8.44-5.61-12.49H396.76V337.1H198.38v-12.49h384.15c-3.66-4.44-7.69-8.54-11.88-12.49H396.76v-12.49H198.38v-12.49h335.18c-17.37-7.94-36.62-12.49-56.98-12.49h-79.82v-12.49H198.38v-12.49h282.09c18.97 0 36.84-4.57 52.74-12.49H396.76v-12.49H198.38V212.2h368.44c3.69-3.93 7.12-8.09 10.26-12.49H396.77v-12.49H198.38v-12.49h392.29c1.61-4.05 2.97-8.23 4.13-12.49H396.76v-12.49H198.38v-12.49h400.4c.11-2.08.32-4.14.32-6.24s-.21-4.16-.32-6.24H396.77v-12.49H198.38V99.8H594.8c-1.16-4.26-2.52-8.43-4.13-12.49H396.76V74.82H198.38V62.33h378.69c-3.13-4.4-6.57-8.56-10.26-12.49H396.75V37.35H198.38V24.86h334.83c-15.9-7.92-33.77-12.49-52.74-12.49h-83.71V0H0v549.39h476.58c20.35 0 39.6-4.54 56.98-12.49H396.77v-12.49H198.38v-12.49h372.27c4.19-3.94 8.21-8.05 11.88-12.49H396.76v-12.49H198.38v-12.49h400.43c2.07-4.05 3.94-8.21 5.61-12.49H396.76v-12.49H198.38v-12.49h413.17c.76-4.11 1.37-8.26 1.75-12.49H396.77V412Z"></path></svg>