<svg data-name="Layer 1" xmlns="http://www.w3.org/2000/svg" viewBox="0 0 610.01 610.01"><path d="M341.19 48.71c0 147.91 120.34 268.24 268.25 268.24h.58V101.17C610.02 45.53 564.49 0 508.85 0H341.19v48.71ZM3.08 316.95c147.91 0 268.25-120.34 268.25-268.24V0H101.17C45.53 0 0 45.53 0 101.17v215.78h3.08Z"></path><path d="M609.43 386.81c-132.8 0-247.91-76.99-303.18-188.65C250.99 309.82 135.88 386.81 3.08 386.81H0v122.03c0 55.64 45.53 101.17 101.17 101.17h407.67c55.64 0 101.17-45.53 101.17-101.17V386.81h-.58ZM507.6 457.5c-6.22 18.26-26.09 28.02-44.33 21.79-57.69-19.66-111.37-51.22-157.02-92.11-45.66 40.9-99.36 72.47-157.06 92.13-3.73 1.27-7.53 1.88-11.26 1.88-14.54 0-28.12-9.15-33.06-23.68-6.22-18.26 3.54-38.11 21.8-44.33 58.15-19.81 111.52-53.94 154.35-98.72l25.24-26.38 25.24 26.38c42.82 44.76 96.18 78.89 154.3 98.71 18.26 6.22 28.02 26.07 21.8 44.33Z"></path></svg>