<svg id="Layer_1" data-name="Layer 1" xmlns="http://www.w3.org/2000/svg" viewBox="0 0 607.36 607.36"><defs></defs><path class="cls-1" d="M0 0h607.36v66.81H0zM467.74 121.47H139.98c21.19-17.84 45.33-32.3 71.58-42.52H0v48.59h607.36V78.95H396.15c26.26 10.22 50.39 24.67 71.58 42.52ZM520.3 182.21H87.41a255.981 255.981 0 0 1 22.1-30.37H0v36.44h607.36v-36.44H498.2c8.09 9.54 15.47 19.7 22.1 30.37ZM547.71 242.94H60.01c1.23-4.09 2.55-8.14 3.98-12.15H0v18.22h607.36v-18.22h-63.63c1.43 4 2.75 8.06 3.98 12.15ZM558.15 303.68H49.56c.1-2.03.23-4.05.37-6.07H0v12.15h607.36v-12.15h-49.58c.15 2.02.27 4.04.37 6.07ZM0 357.89h607.36v19.12H0zM0 419.08h607.36v36.44H0zM0 479.81h607.36v48.59H0zM0 540.55h607.36v66.81H0z"></path></svg>