<svg data-name="Layer 1" xmlns="http://www.w3.org/2000/svg" viewBox="0 0 608.85 324.84"><path d="M608.85 14.11V0H0v145.44h45.51c.32-7.77.69-20.1 1.26-27.3 1.06-13.45 2.06-26.89 6.65-39.81 4.12-11.59 12.08-19.46 22.65-24.91 12.41-6.4 29.54-6.02 43.12-6v207.3c-.61 10.5-4.43 19.55-14.95 24.23-7.31 3.25-15.12 3.66-22.9 4.14-6.53.4-14.19.91-25.35.91v40.84l552.86-.22v-14.11h-43.24V296.4h43.24v-14.11h-43.24v-14.11h43.24v-14.11h-43.24v-14.11h43.24v-14.11h-43.24v-14.11h43.24v-14.11h-43.24v-14.11h43.24v-14.11h-43.24V155.3h43.24v-14.11h-43.24v-14.11h43.24v-14.11h-43.24V98.86h43.24V84.75h-43.24V70.64h43.24V56.53h-43.24V42.42h43.24V28.31h-43.24v-14.2h43.24Z"></path></svg>