<svg xmlns="http://www.w3.org/2000/svg" width="642" viewBox="0 0 642 642" height="642" style="overflow:visible;enable-background:new 0 0 642 642" xml:space="preserve"><path d="M624.7 310.1c2.7 75.7-22.4 145.5-65.8 200l-.1.1c-40.1 32.1-90.8 51.4-146.2 51.4-65.7 0-125.1-27.2-167.6-70.9-9.4-9.2-21.9-13.9-36.1-12.6-8.4.8-16.8 0-25-2.3-1.6-.5-3.2-.7-4.9-.5l-15.2 1.6c13-12.1 29-21 46.7-25.4-1.8-22 1.6-44.1 10-64.5 18.9-45.4.9-95.9.9-114.4 0-8.4 3.8-15.9 9.7-20.9l1.2-1 22-18.4c14.6-.3 27.8 6.9 35.6 18.6-5.6 21.3.8 43.8 16.9 58.9l.3.2 13.9 11 11.7 9.1c.8.6 1.5 1.3 2.2 2.1l.3.2c16.1 15.2 22.5 37.7 16.9 58.9 7.8 11.7 21 18.9 35.6 18.6l22-18.4 1.2-1c5.9-5 9.7-12.5 9.7-20.9 0-18.6-18-69 .9-114.4 8.3-20.4 11.7-42.4 10-64.5 17.8-4.4 33.8-13.4 46.7-25.4l-15.2 1.6c-1.6.2-3.3 0-4.9-.5-8.1-2.4-16.6-3.2-25-2.3-14.3 1.2-26.7-3.4-36.1-12.6-42.5-43.7-101.8-70.9-167.6-70.9-55.3 0-106.1 19.3-146.2 51.4 58.3-73.5 150-119.3 252.1-114.6C492.2 24.6 619.2 153 624.7 310.1z"></path><path d="M642 321c0 177.3-143.7 321-321 321S0 498.3 0 321 143.7 0 321 0s321 143.7 321 321zM321 8C148.1 8 8 148.1 8 321s140.1 313 313 313 313-140.1 313-313S493.9 8 321 8z"></path></svg>