<svg id="Layer_1" data-name="Layer 1" xmlns="http://www.w3.org/2000/svg" viewBox="0 0 613.34 503.92">   <path d="M552.12,50.28V25.19h-65.36V0h-165.71V181.32l12.21,2.77c30.88,6.99,52.44,33.99,52.44,65.65s-21.56,58.66-52.44,65.65l-12.21,2.77,.03,185.75h292.25V50.28h-61.21Zm-199.71,394.68v-102.56c38.63-14.06,64.65-50.54,64.65-92.65s-26.02-78.59-64.65-92.65V31.36h102.99V356.31c-50.19,33.52-82.69,64.91-102.99,88.65Zm127.21-67.06l7.13-4.64V50.28h40.28V417.62c-25.01,3.61-87.14,15.03-148.46,45.15,19.63-22.45,51.49-52.66,101.05-84.88Zm114.9,107.2h-204.3c73.48-35.77,149.66-43.86,150.61-43.95l11.29-1.14V69.09h42.4V485.1Z"></path>   <path d="M126.58,25.19H61.21v25.09H0V503.92H292.25l.03-185.75-12.21-2.77c-30.88-6.99-52.44-33.99-52.44-65.65s21.56-58.66,52.44-65.65l12.21-2.77V0H126.58V25.19ZM18.81,485.1V69.09H61.21V440.01l11.29,1.14c.95,.09,77.13,8.18,150.61,43.95H18.81ZM157.93,31.36h102.99v125.74c-38.63,14.06-64.65,50.54-64.65,92.65s26.02,78.59,64.65,92.65v102.56c-20.3-23.73-52.8-55.12-102.99-88.65V31.36Zm76.83,431.42c-61.33-30.12-123.45-41.54-148.46-45.15V50.28h40.28V373.26l7.13,4.64c49.56,32.22,81.41,62.43,101.05,84.88Z"></path> </svg>