<svg xmlns="http://www.w3.org/2000/svg" width="613" viewBox="0 0 613 617.6" height="617.6" style="enable-background:new 0 0 613 617.6" xml:space="preserve"><path d="M48.2 550.6 17.8 533c-2.2-1.3-2.2-4.4 0-5.7l30.4-17.5c1.6-.9 2.2-3 1.2-4.6-.9-1.6-3-2.2-4.6-1.2L1 529.3c-.7.4-.7 1.5 0 1.9l43.8 25.3c.5.3 1.1.5 1.7.5 1.2 0 2.3-.6 2.9-1.7.9-1.8.4-3.8-1.2-4.7zM50.8 500.7c7.4 7.6 12 18 12 29.5s-4.6 21.9-12 29.5l100.6 58h309.7V442.8H151.4L50.8 500.7zM264.7 31.2l30.4-17.5c2.2-1.3 4.9.3 4.9 2.8v35.1c0 1.9 1.5 3.4 3.4 3.4s3.4-1.5 3.4-3.4V1.1c0-.8-.9-1.3-1.6-.9l-43.8 25.3c-.5.3-.9.7-1.2 1.2-.6 1-.6 2.3 0 3.4.9 1.5 2.9 2.1 4.5 1.1zM306.4 174.6l.2-116.1c-10.3 2.6-21.6 1.4-31.5-4.3-9.9-5.7-16.6-14.9-19.5-25.1L155 87.1 0 355.3l151.4 87.5 155-268.2zM613 478.5c0-.6-.2-1.2-.5-1.7-.6-1-1.7-1.7-2.9-1.7-1.9 0-3.4 1.5-3.4 3.4v35.1c0 2.5-2.7 4.1-4.9 2.8L571 498.9c-1.6-.9-3.7-.4-4.6 1.2-.9 1.6-.4 3.7 1.2 4.6l43.8 25.3c.7.4 1.6-.1 1.6-.9v-50.6zM581.3 476c9.9-5.7 21.2-7 31.5-4.3l-.1-116.1L457.8 87.3l-151.4 87.4L461.3 443l100.5 58.2c2.9-10.3 9.6-19.5 19.5-25.2z"></path></svg>