<svg data-name="Layer 1" xmlns="http://www.w3.org/2000/svg" viewBox="0 0 605.08 605.08"><path d="m229.8 513.33-23.01 76.2c30.1 10.04 62.27 15.56 95.74 15.56 31.64 0 62.14-4.88 90.81-13.89l-23.51-77.86c-20.93-69.33-119.1-69.33-140.04 0Z"></path><path d="M280.73.77C129.59 11.36 8.22 135.2.41 286.51-4.22 376.15 30.21 457.8 88.16 516l86.16-281.39c10.71-35.17 48.25-55.18 83.41-44.47 35.17 10.71 55.18 48.25 44.47 83.41l-16.46 54.52c-.14.45.46.68.67.26 11.09-22.11 30.78-39.86 56.16-47.59 49.18-14.97 101.67 13.01 116.64 62.19l54.06 176.59c56.59-54.98 91.81-131.84 91.81-216.97 0-174.31-147.4-314.19-324.35-301.78Zm-30.11 172.48c-38.07 0-68.93-30.86-68.93-68.93s30.86-68.93 68.93-68.93 68.93 30.86 68.93 68.93-30.86 68.93-68.93 68.93Zm124.91 89.12c-38.07 0-68.93-30.86-68.93-68.93s30.86-68.93 68.93-68.93 68.93 30.86 68.93 68.93-30.86 68.93-68.93 68.93Z"></path><circle cx="300.12" cy="394.45" r="57.43"></circle></svg>