<svg xmlns="http://www.w3.org/2000/svg" width="617.3" viewBox="0 0 617.3 617.3" height="617.3" xml:space="preserve"><path d="M561.4 308.6c32.3-10.4 55.8-40.7 55.8-76.5 0-44.3-36-80.4-80.4-80.4h-70.5V80.4c0-44.3-36-80.4-80.4-80.4-35.8 0-66.1 23.5-76.5 55.8C299.2 23.5 268.8 0 233.1 0c-44.3 0-80.4 36-80.4 80.4v71.4H80.4C36 151.8 0 187.8 0 232.1c0 35.8 23.5 66.1 55.8 76.5C23.5 319 0 349.4 0 385.2c0 44.3 36 80.4 80.4 80.4h72.3V537c0 44.3 36 80.3 80.4 80.3 35.8 0 66.1-23.5 76.5-55.8 10.4 32.3 40.8 55.8 76.5 55.8 44.3 0 80.4-36 80.4-80.3v-71.4H537c44.3 0 80.4-36.1 80.4-80.4-.1-35.8-23.6-66.2-56-76.6zM233.1 455c-39 0-70.6-31.6-70.6-70.6 0-39 31.6-70.6 70.6-70.6 39 0 70.6 31.6 70.6 70.6 0 39-31.6 70.6-70.6 70.6zm0-151.5c-39 0-70.6-31.6-70.6-70.6 0-39 31.6-70.6 70.6-70.6 39 0 70.6 31.6 70.6 70.6 0 39-31.6 70.6-70.6 70.6zM384.6 455c-39 0-70.6-31.6-70.6-70.6 0-39 31.6-70.6 70.6-70.6 39 0 70.6 31.6 70.6 70.6 0 39-31.6 70.6-70.6 70.6zm0-151.5c-39 0-70.6-31.6-70.6-70.6 0-39 31.6-70.6 70.6-70.6 39 0 70.6 31.6 70.6 70.6 0 39-31.6 70.6-70.6 70.6z"></path></svg>