<svg xmlns="http://www.w3.org/2000/svg" width="597.1" viewBox="0 0 597.1 528.3" height="528.3" xml:space="preserve"><path d="M597.1 389.9 375.7 0h-31L329 27.2 313.6 0h-31l-13.9 24.2L254.9 0h-31L0 389.9l17.2 30.2h26.5l-13.5 23.5 17.6 30.2h25.1l-13.4 23.4 17.7 31.1h441.1l16.8-30.2-13.8-24.3H551l16.8-30.2-13.3-23.5h25.9l16.7-30.2zM299.4 31 313 55.2l-13.4 23.4-13.7-24.1L299.4 31zM121.2 389.1H93.1L269.7 82.6l13.6 24.3-162.1 282.2zm179.1-252 141.6 252H155.1l145.2-252zm-161.5 283H459.4l12.7 22.6H125.8l13-22.6zm337-31L316.7 108.7 330 85.6l170.6 303.5h-24.8zM240.7 31l11.9 21.2L59.2 389.1H34.4L240.7 31zM77.6 420.1h27.3l-13 22.6H64.6l13-22.6zm15.5 77.2 13.5-23.5h380.8l13.2 23.5H93.1zM506 442.8l-12.9-22.6h27.4l12.7 22.6H506zm28.5-53.7L346.2 57.4 361.4 31l201.3 358.1h-28.2z"></path></svg>