<svg xmlns="http://www.w3.org/2000/svg" width="613.2" viewBox="0 0 613.2 619.5" height="619.5" xml:space="preserve" style="enable-background:new 0 0 613.2 619.5"><path d="M430 0H183.2C82.2 0 0 82.2 0 183.2v253.1c0 101 82.2 183.2 183.2 183.2h204.1c40.9 0 74.2-33.3 74.2-74.2v-80.7H539c40.9 0 74.2-33.3 74.2-74.2V183.2C613.2 82.2 531 0 430 0zm158.5 390.5c0 27.3-22.2 49.5-49.5 49.5H436.8v105.4c0 27.3-22.2 49.5-49.5 49.5H183.2c-87.4 0-158.5-71.1-158.5-158.5V183.2c0-87.4 71.1-158.5 158.5-158.5h107v104.2h-61.6c-57.2 0-103.8 46.6-103.8 103.8v154.8c0 57.2 46.6 103.8 103.8 103.8h102.1V383.1c0-27.8 22.7-51.2 49.5-51.2h105.2v-99.2c0-27.8-10.5-53.8-29.4-73.3-19.2-19.7-45-30.5-72.7-30.5h-68.5V24.7H430c87.4 0 158.5 71.1 158.5 158.5v207.3zm-205.1-237c43.4 0 77.4 34.8 77.4 79.1v74.5h-80.6c-40.2 0-74.2 34.8-74.2 75.9v83.4h-77.4c-43.6 0-79.1-35.5-79.1-79.1V232.7c0-43.6 35.5-79.1 79.1-79.1h154.8z"></path><path d="M381.7 287.3c30.5 0 55.2-24.7 55.2-55.2 0-30.5-24.7-55.2-55.2-55.2-30.5 0-55.2 24.7-55.2 55.2 0 30.5 24.7 55.2 55.2 55.2z"></path></svg>