<svg data-name="Layer 1" xmlns="http://www.w3.org/2000/svg" viewBox="0 0 616.03 443.65"><path d="M141.99 240.32c-25.99-25.99-25.99-68.12 0-94.11 25.99-25.99 68.12-25.99 94.11 0 1.36 1.36 2.61 2.79 3.83 4.24l86.72-86.72c-1.3-1.38-2.58-2.79-3.94-4.14-73.81-73.84-193.51-73.84-267.34-.01-73.83 73.83-73.83 193.53 0 267.36 1.35 1.35 2.76 2.63 4.14 3.94l86.72-86.72c-1.45-1.22-2.88-2.47-4.24-3.83ZM560.66 117.24c-1.35-1.35-2.76-2.63-4.14-3.94l-86.72 86.72c1.45 1.22 2.88 2.47 4.24 3.83 25.99 25.99 25.99 68.12 0 94.11-25.99 25.99-68.12 25.99-94.11 0-1.36-1.36-2.61-2.79-3.83-4.24l-86.72 86.72c1.3 1.38 2.58 2.79 3.94 4.14 73.83 73.83 193.53 73.83 267.36 0 73.83-73.83 73.83-193.53 0-267.36ZM86.17991755 357.40219182 443.5870401-.00493073l86.23874303 86.23874303-357.40712255 357.40712256z"></path></svg>