<svg data-name="Layer 1" xmlns="http://www.w3.org/2000/svg" viewBox="0 0 505.42 610.5"><path d="M505.42 36.59v258.99H321.07L505.42 36.59zM0 36.59v258.99h184.34L0 36.59zM503.95 0a.1.1 0 0 1 .08.16L291.47 295.54s-.05.04-.08.04h-77.24s-.06-.02-.08-.04L1.5.16A.1.1 0 0 1 1.58 0h99.2s.06.02.08.04l151.82 210.98c.04.06.12.06.16 0L404.67.04s.05-.04.08-.04h99.2Z"></path><g><path d="M505.42 573.91V314.92H321.07l184.35 258.99zM0 573.91V314.92h184.34L0 573.91zM503.95 610.5a.1.1 0 0 0 .08-.16L291.47 314.96s-.05-.04-.08-.04h-77.24s-.06.02-.08.04L1.5 610.34a.1.1 0 0 0 .08.16h99.2s.06-.02.08-.04l151.82-210.98c.04-.06.12-.06.16 0l151.82 210.98s.05.04.08.04h99.2Z"></path></g></svg>