<svg id="Layer_1" data-name="Layer 1" xmlns="http://www.w3.org/2000/svg" viewBox="0 0 620.31 620.31">   <path d="M448.03,152.14c-36.87-32.2-85.07-51.75-137.87-51.75s-101,19.55-137.87,51.75l73.89,73.89c5.57,5.57,5.57,14.59,0,20.15-2.78,2.78-6.43,4.18-10.08,4.18s-7.3-1.39-10.08-4.18l-73.89-73.89c-32.2,36.87-51.74,85.07-51.74,137.87s19.55,101,51.74,137.87l73.89-73.89c5.56-5.57,14.59-5.57,20.16,0,5.57,5.57,5.57,14.59,0,20.15l-73.89,73.89c36.87,32.2,85.07,51.75,137.87,51.75s101-19.55,137.87-51.75l-73.89-73.89c-5.57-5.56-5.57-14.58,0-20.15,5.56-5.57,14.58-5.57,20.15,0l73.89,73.89c32.19-36.87,51.74-85.07,51.74-137.87s-19.55-100.99-51.74-137.87l-73.89,73.89c-2.78,2.78-6.43,4.18-10.08,4.18s-7.3-1.39-10.08-4.18c-5.57-5.56-5.57-14.58,0-20.15l73.89-73.89Z"></path>   <path d="M310.15,0C138.86,0,0,138.86,0,310.15s138.86,310.16,310.15,310.16,310.16-138.86,310.16-310.16S481.45,0,310.15,0Zm0,593.84c-119.49,0-216.36-127.01-216.36-283.69S190.66,26.47,310.15,26.47s216.36,127.01,216.36,283.68-96.87,283.69-216.36,283.69Z"></path> </svg>