<svg xmlns="http://www.w3.org/2000/svg" width="615.4" viewBox="0 0 615.4 604.6" height="604.6" xml:space="preserve"><path d="M87.9 335.7c-.8-1.4-2.3-2.3-3.9-2.3s-3.1.8-3.9 2.1c-6.2 10.4-19.1 31.8-33.1 57-11 19.9-24.9 42.5-33.6 63.6C4.6 477.6 0 497.5 0 512.6c0 48.5 36.5 92 84.2 92s85.2-41.7 85.2-90.1c0-18.1-6.5-43.8-19.1-69.9-9.1-18.7-21.6-37.3-31.5-54.6-13.5-23.8-25.2-44.2-30.9-54.3zm69.1-103c0-5.2 3.5-9.8 8.5-11.1 5-1.3 10.3.9 12.9 5.5 44 78.4 144.2 256.7 187.4 333.6 12.6 22.5 36.4 36.4 62.3 36.4H598c3.5 0 6.3-2.8 6.3-6.3V296.3c0-3.5-2.8-6.3-6.3-6.3H462.9c-1.7 0-3.3.7-4.4 1.8-1.2 1.2-1.8 2.8-1.8 4.4v80.7c0 5.3-3.6 10-8.8 11.4-5.2 1.4-10.6-1-13.2-5.6C389.8 303 288.3 122.4 244.8 44.9c-12.6-22.5-36.4-36.4-62.3-36.4h-167c-1.7 0-3.3.7-4.4 1.8-1.2 1.2-1.8 2.8-1.8 4.4v298.6c0 1.7.7 3.3 1.8 4.4 1.2 1.2 2.8 1.8 4.4 1.8h135.1c1.7 0 3.3-.7 4.4-1.8 1.2-1.2 1.8-2.8 1.8-4.4.2-14.3.2-50.8.2-80.6zM534 2.3c-.8-1.4-2.3-2.3-3.9-2.3s-3.1.8-3.9 2.1c-6.3 10.3-19.1 31.7-33.1 56.9-11 19.9-24.9 42.5-33.6 63.6-8.9 21.5-13.4 41.4-13.4 56.4 0 48.5 36.5 92 84.2 92s85.2-41.7 85.2-90.1c0-18.1-6.5-43.8-19.1-69.9-9.1-18.7-21.6-37.3-31.5-54.6-13.6-23.6-25.2-44.1-30.9-54.1z" fill-rule="evenodd" clip-rule="evenodd"></path></svg>