<svg data-name="Layer 1" xmlns="http://www.w3.org/2000/svg" viewBox="0 0 620.13 619.61"><path d="m118.87 511.88 128.69 103.55L140.5 490.25l151.26 129.37-129.37-151.26 172.24 150.35-150.35-172.24 189.03 167.14-167.14-189.03 197.42 175.53-175.53-197.42 210.02 188.12-188.12-210.02 218.41 196.52L271.85 358.9l222.61 200.72-200.72-222.61 225.73 203.84-203.84-225.73 225.73 203.84-203.84-225.73 222.61 200.72-200.72-222.61 218.41 196.52L381.3 249.45l210.02 188.12L403.2 227.55l197.42 175.53-175.53-197.42L614.12 372.8 446.98 183.77l172.24 150.35-150.35-172.24 151.26 129.37-129.37-151.26L610.85 242.7l-99.34-123.46 75.6 53.76-52.67-74.83c-3.45-4.91-7.3-9.54-11.66-13.66C401.27-30.23 209.75-28.13 90.81 90.81-28.03 209.65-30.23 400.96 84.22 522.48c4.31 4.58 9.2 8.6 14.37 12.18l71.96 49.88-51.67-72.66Z"></path></svg>