<svg data-name="Layer 1" xmlns="http://www.w3.org/2000/svg" viewBox="0 0 497.16 616.23"><path d="m4.23 232.26.43 10.89 243.92 19.14 243.92-19.14.43-10.89H4.23zM5.49 266.17l.38 10.89 242.71 17.8 242.71-17.8.38-10.89H5.49zM6.61 300.09l.37 10.89 241.6 15.99 241.6-15.99.38-10.89H6.61zM7.82 334.01l.32 10.89 240.44 13.59 240.44-13.59.32-10.89H7.82zM8.93 367.92l.44 10.89 239.21 11.34 239.21-11.34.44-10.89H8.93zM10.14 401.84l.37 10.89 238.07 10.29 238.07-10.29.37-10.89H10.14zM11.25 435.76l.4 10.89 236.93 8.64 236.93-8.64.4-10.89H11.25zM12.35 469.67l.47 10.89 235.76 5.79 235.76-5.79.48-10.89H12.35zM13.71 503.59l.24 10.89 234.63 4.59 234.63-4.59.24-10.89H13.71zM14.74 537.51l.37 10.89 233.47 2.78 233.47-2.78.38-10.89H14.74zM15.95 571.42l.3 10.89 232.33 1.59 232.33-1.59.31-10.89H15.95zM17.12 605.34l.36 10.89h462.2l.37-10.89H17.12zM497.16 108.3s-.46-78.33-40.99-101.04L282.19 48.63 325.7 6.45 248.58 0l-77.11 6.45 43.5 42.18L40.99 7.26C.46 29.97 0 108.3 0 108.3l219.55 22.21H.8l.37 10.9 221.09 23.02H1.99l.35 10.89 240.48 23.03H3.13l.43 10.89 245.03 20.35 245.03-20.35.43-10.89H260.12l234.71-23.03.35-10.89H274.91L496 141.41l.37-10.9H277.62l219.55-22.21Z"></path></svg>