<svg xmlns="http://www.w3.org/2000/svg" width="601.6" viewBox="0 0 601.6 622.6" height="622.6" xml:space="preserve" style="enable-background:new 0 0 601.6 622.6"><path d="M257.7 218.3 111.9 71v72.8l79 79H50.8L0 273l210.8-.1c8.6-23.4 25.4-42.7 46.9-54.6zM307.1 205.6c9.1 0 17.9 1.2 26.3 3.4V0l-50.1 52.1v103.2l-91.8-92.9h-72.7l150.5 150.4c11.7-4.6 24.5-7.2 37.8-7.2zM397.2 256.9V50.8L345.7 0v213.1c21.3 8.7 40.1 24.2 51.5 43.8zM307.1 410.6c-7.8 0-15.4-.9-22.7-2.6v213.4l50.1-51.5V458.7l97.3 98.5h72.8L348.9 401.6c-12.8 5.8-26.9 9-41.8 9zM62.8 503l151.5-151.6c-6.2-13.2-9.6-27.9-9.6-43.4 0-8.3 1-16.4 2.9-24.2H0l52.1 51.4h106.8l-96.1 94.9V503zM220.3 362.5 71.4 509.9h72.8l77.8-77.8v139l50.2 51.5-.1-218.3c-21.6-7.8-39.8-22.7-51.8-41.8zM601.6 346.3H402.2c-8.5 21.1-23.8 38.7-43.3 50.2h1.9l150.6 152.1v-72.8L432 396.4h118.1l51.5-50.1zM548.9 283.9H283.3v51.4h317.1z"></path></svg>