<svg data-name="Layer 1" xmlns="http://www.w3.org/2000/svg" viewBox="0 0 621.43 622.59"><path d="M265.39 81.5h255.87C465.91 30.89 392.21 0 311.29 0 139.37 0 0 139.37 0 311.29s139.37 311.3 311.29 311.3c116.68 0 218.31-64.24 271.61-159.24H43.46L265.39 81.5Z"></path><path d="M370.43 434.24h226.9a308.939 308.939 0 0 0 21.88-77.16H415.28l-44.85 77.16ZM141.67 434.24h33.08L320.5 183.47h274.6c-4.7-10.42-9.93-20.54-15.71-30.31H305.05L141.67 434.24Z"></path><path d="M256.05 434.24h33.08l86.49-148.81h245.81c-.85-10.25-2.19-20.36-4-30.31H360.16L256.05 434.24Z"></path></svg>