<svg xmlns="http://www.w3.org/2000/svg" width="596.6" viewBox="0 0 596.6 384.9" height="384.9" xml:space="preserve"><path d="M298.3 0 0 171.6v39.1l182 106.4 82.1-47.1v97l34.2 17.9 298.3-174.3v-39.1L298.3 0zm-34.2 149.1-44.4-24.9 44.4-25.6v50.5zm0-61.5L82.8 191.9l70 39.3 98.5-57.4-59.8-33.5 18.4-10.6 54 30.3v30.9l-111.5 63-106-62.1L264.1 64.9v22.7zm-113.2 76.1 50.4 28.2-48.5 28.2-50.6-28.4 48.7-28zm59.9 22.7-50.3-28.2 21.5-12.4 50.2 28.1-21.4 12.5zm-33.6 116.9L157 291.5v-24l20.2 11.8v24zm86.9-44.2-77.3 44.3v-24l77.3-44.1v23.8zm-82.1 12-19.9-11.6 102-57.7v22.5L182 271.1zm91.6 90.2v-313L27.5 191.8l120 70.1v24l-138-80.7v-28.1l284-163.3v358l-19.9-10.5zm58.9-67 62.2-34.9-62.2-35.8v-21.9l102 57.7-102 59.6v-24.7zm0-195.7 44.4 25.6-44.4 24.9V98.6zm21.8 172.6-21.9-12.6v-23.9l42.9 24.7-21 11.8zm-21.8-1.6 12.2 7-12.2 6.8v-13.8zm111.4-15.7-111.5-63.1V160l54-30.3 18.4 10.6-59.8 33.5 98.5 57.4 2.4-1.3 67.7-37.9-60.9-35-120.2-69.4V64.9l217.7 126.9-106.3 62.1zm50.5-62.1-50.7 28.4-48.5-28.2 50.4-28.2 2.4 1.4 46.4 26.6zm-108.7-5.4L364.4 174l50.2-28.1 21.5 12.4-50.4 28.1zm-53.2 143.7 107-62.6v24.2l-107 62.7v-24.3zM587 205.2l-138 80.9V262l120-70.1L322.9 48.3v311.5L303 371.7v-358L587 177v28.2z"></path></svg>