<svg data-name="Layer 1" xmlns="http://www.w3.org/2000/svg" viewBox="0 0 620.24 495.18"><path d="M550.27 240.5c41.48-20.9 69.97-63.83 69.97-113.47 0-68.95-54.99-125.06-123.52-126.92V0h-180.9v130.02h82.65c14.49 0 26.27 11.78 26.27 26.27s-11.78 26.27-26.27 26.27h-82.65v130.02h82.65c14.49 0 26.27 11.78 26.27 26.27s-11.78 26.27-26.27 26.27h-82.65v130.02h180.9v-.59c69.22-6.23 123.51-64.42 123.51-135.24 0-51.13-28.22-95.61-69.97-118.8ZM0 495.18h305.75V365.16H196.83v-52.54h108.92V182.61H196.83v-52.54h108.92V.05H0v495.13z"></path></svg>