<svg data-name="Layer 1" xmlns="http://www.w3.org/2000/svg" viewBox="0 0 317.36 592.28"><path d="M211.32 249.62h106.05v-148.6H192.3V51.01L144.88 3.59 141.15 0 0 141.15v95.44l106.34 106.34H0v148.06h125.08v50.28l51.15 51.01 141.13-141.13v-95.48L211.31 249.62Zm-10.37-10.37-54.38-54.38h160.32l.1 54.38H200.94Zm-54.38-138.23 35.35-35.35v35.35h-35.35Zm-5.36-86.45 38.57 38.58-58.23 58.23h185.42v63.12H121.54l185.42 185.42v77.13L12.87 142.95 141.21 14.58Zm-25.04 338.18 54.64 54.64H10.42v-54.64h105.75Zm55.29 138.23-36.02 36.01v-36.01h36.02Zm4.7 86.7-38.76-38.76 57.78-57.77H10.42v-63.38h185.42L10.42 232.34v-77.12l294.1 294.11-128.35 128.36Z"></path></svg>