<svg xmlns="http://www.w3.org/2000/svg" width="459.8" viewBox="0 0 459.8 583.4" height="583.4"><path d="M436.4 583.4h-413C10.5 583.4 0 572.9 0 560V201.5c0-12.9 10.5-23.4 23.4-23.4h216c4.6 0 8.3-3.7 8.3-8.3V7.8c0-3.3 2-6.2 5.1-7.3 3.1-1.2 6.5-.3 8.6 2.1L312.2 60c2 2.3 4.8 3.6 7.8 3.6h67.5c3 0 5.8-1.3 7.7-3.6l50.9-57.5c2.2-2.5 5.6-3.3 8.7-2.1 3.1 1.2 5 4 5 7.3v159.1c0 12.9-10.5 23.4-23.4 23.4H264.2c-4.6 0-8.3 3.7-8.3 8.3v372.6h180.5c6.2 0 11.2-5 11.2-11.2v-234c0-3.4 2.7-6.1 6.1-6.1s6.1 2.7 6.1 6.1V560c0 12.9-10.5 23.4-23.4 23.4zm-413-393.1c-6.2 0-11.2 5-11.2 11.2V560c0 6.2 5 11.2 11.2 11.2h220.3V198.6c0-3.4.8-6.6 2.3-9.4-2 .7-4.2 1.1-6.5 1.1H23.4zM260 19.4v150.4c0 3.4-.8 6.6-2.3 9.4 2-.7 4.2-1.1 6.5-1.1h172.2c6.2 0 11.2-5 11.2-11.2V19.4l-43.1 48.8c-4.2 4.9-10.4 7.8-16.9 7.8H320c-6.6 0-12.8-2.9-17-7.8l-43-48.8z"></path></svg>