<svg id="Layer_1" data-name="Layer 1" xmlns="http://www.w3.org/2000/svg" viewBox="0 0 520.01 622.43">   <path d="M260.86,562.84c-16.46,0-29.8,13.34-29.8,29.8s13.34,29.8,29.8,29.8,29.8-13.34,29.8-29.8-13.34-29.8-29.8-29.8Z"></path>   <path d="M318.2,505.5c-16.46,0-29.8,13.34-29.8,29.8s13.34,29.8,29.8,29.8,29.8-13.34,29.8-29.8-13.34-29.8-29.8-29.8Z"></path>   <circle cx="375.54" cy="477.96" r="29.8"></circle>   <path d="M432.87,390.82c-16.46,0-29.8,13.34-29.8,29.8s13.34,29.8,29.8,29.8,29.8-13.34,29.8-29.8-13.34-29.8-29.8-29.8Z"></path>   <path d="M490.21,333.48c-16.46,0-29.8,13.34-29.8,29.8s13.34,29.8,29.8,29.8,29.8-13.34,29.8-29.8-13.34-29.8-29.8-29.8Z"></path>   <path d="M203.18,505.16c-16.46,0-29.8,13.34-29.8,29.8s13.34,29.8,29.8,29.8,29.8-13.34,29.8-29.8-13.34-29.8-29.8-29.8Z"></path>   <path d="M260.52,507.41c16.46,0,29.8-13.34,29.8-29.8s-13.34-29.8-29.8-29.8-29.8,13.34-29.8,29.8,13.34,29.8,29.8,29.8Z"></path>   <path d="M317.86,450.07c16.46,0,29.8-13.34,29.8-29.8s-13.34-29.8-29.8-29.8-29.8,13.34-29.8,29.8,13.34,29.8,29.8,29.8Z"></path>   <path d="M375.19,392.74c16.46,0,29.8-13.34,29.8-29.8s-13.34-29.8-29.8-29.8-29.8,13.34-29.8,29.8,13.34,29.8,29.8,29.8Z"></path>   <path d="M432.53,335.4c16.46,0,29.8-13.34,29.8-29.8s-13.34-29.8-29.8-29.8-29.8,13.34-29.8,29.8,13.34,29.8,29.8,29.8Z"></path>   <path d="M489.87,278.06c16.46,0,29.8-13.34,29.8-29.8s-13.34-29.8-29.8-29.8-29.8,13.34-29.8,29.8,13.34,29.8,29.8,29.8Z"></path>   <path d="M145.5,447.48c-16.46,0-29.8,13.34-29.8,29.8s13.34,29.8,29.8,29.8,29.8-13.34,29.8-29.8-13.34-29.8-29.8-29.8Z"></path>   <path d="M202.84,449.73c16.46,0,29.8-13.34,29.8-29.8s-13.34-29.8-29.8-29.8-29.8,13.34-29.8,29.8,13.34,29.8,29.8,29.8Z"></path>   <path d="M260.17,345.05c-9.69,0-17.54,7.86-17.54,17.54s7.85,17.54,17.54,17.54,17.54-7.85,17.54-17.54-7.86-17.54-17.54-17.54Z"></path>   <path d="M202.5,287.38c-9.69,0-17.54,7.85-17.54,17.54s7.85,17.54,17.54,17.54,17.54-7.86,17.54-17.54-7.85-17.54-17.54-17.54Z"></path>   <path d="M144.81,229.69c-9.69,0-17.54,7.86-17.54,17.54s7.85,17.54,17.54,17.54,17.54-7.85,17.54-17.54-7.85-17.54-17.54-17.54Z"></path>   <path d="M87.13,207.1c9.69,0,17.54-7.86,17.54-17.54s-7.85-17.54-17.54-17.54-17.54,7.85-17.54,17.54,7.85,17.54,17.54,17.54Z"></path>   <circle cx="317.51" cy="305.26" r="17.54"></circle>   <path d="M259.83,230.04c-9.69,0-17.54,7.86-17.54,17.54s7.85,17.54,17.54,17.54,17.54-7.85,17.54-17.54-7.85-17.54-17.54-17.54Z"></path>   <path d="M202.15,172.36c-9.69,0-17.54,7.86-17.54,17.54s7.85,17.54,17.54,17.54,17.54-7.86,17.54-17.54-7.85-17.54-17.54-17.54Z"></path>   <path d="M144.47,149.76c9.69,0,17.54-7.86,17.54-17.54s-7.86-17.54-17.54-17.54-17.54,7.85-17.54,17.54,7.85,17.54,17.54,17.54Z"></path>   <path d="M374.85,230.38c-9.69,0-17.54,7.85-17.54,17.54s7.86,17.54,17.54,17.54,17.54-7.85,17.54-17.54-7.85-17.54-17.54-17.54Z"></path>   <path d="M317.17,172.7c-9.69,0-17.54,7.86-17.54,17.54s7.85,17.54,17.54,17.54,17.54-7.85,17.54-17.54-7.86-17.54-17.54-17.54Z"></path>   <path d="M259.49,115.02c-9.69,0-17.54,7.85-17.54,17.54s7.85,17.54,17.54,17.54,17.54-7.86,17.54-17.54-7.85-17.54-17.54-17.54Z"></path>   <path d="M201.81,92.42c9.69,0,17.54-7.85,17.54-17.54s-7.85-17.54-17.54-17.54-17.54,7.86-17.54,17.54,7.85,17.54,17.54,17.54Z"></path>   <path d="M432.19,208.13c9.69,0,17.54-7.86,17.54-17.54s-7.85-17.54-17.54-17.54-17.54,7.85-17.54,17.54,7.85,17.54,17.54,17.54Z"></path>   <circle cx="374.51" cy="132.9" r="17.54"></circle>   <path d="M316.83,92.77c9.69,0,17.54-7.85,17.54-17.54s-7.85-17.54-17.54-17.54-17.54,7.85-17.54,17.54,7.85,17.54,17.54,17.54Z"></path>   <path d="M259.15,35.09c9.69,0,17.54-7.85,17.54-17.54S268.84,0,259.15,0s-17.54,7.86-17.54,17.54,7.86,17.54,17.54,17.54Z"></path>   <path d="M87.82,389.8c-16.46,0-29.8,13.34-29.8,29.8s13.34,29.8,29.8,29.8,29.8-13.34,29.8-29.8-13.34-29.8-29.8-29.8Z"></path>   <path d="M145.16,392.05c16.46,0,29.8-13.34,29.8-29.8s-13.34-29.8-29.8-29.8-29.8,13.34-29.8,29.8,13.34,29.8,29.8,29.8Z"></path>   <path d="M30.14,332.12c-16.46,0-29.8,13.34-29.8,29.8s13.34,29.8,29.8,29.8,29.8-13.34,29.8-29.8-13.34-29.8-29.8-29.8Z"></path>   <path d="M87.48,334.37c16.46,0,29.8-13.34,29.8-29.8s-13.34-29.8-29.8-29.8-29.8,13.34-29.8,29.8,13.34,29.8,29.8,29.8Z"></path>   <path d="M29.8,276.69c16.46,0,29.8-13.34,29.8-29.8s-13.34-29.8-29.8-29.8S0,230.44,0,246.9s13.34,29.8,29.8,29.8Z"></path> </svg>