<svg data-name="Layer 1" xmlns="http://www.w3.org/2000/svg" viewBox="0 0 615.26 615.27"><path d="M615.26 180.63C615.26 81.03 534.23 0 434.64 0c-49.47 0-94.35 20.01-127.01 52.34C274.98 20.01 230.1 0 180.63 0 81.03 0 0 81.03 0 180.63c0 49.47 20.01 94.35 52.34 127.01C20.01 340.29 0 385.16 0 434.64c0 99.6 81.03 180.63 180.63 180.63 49.47 0 94.35-20.01 127.01-52.34 32.65 32.33 77.53 52.34 127.01 52.34 99.59 0 180.63-81.03 180.63-180.63 0-49.47-20.01-94.35-52.34-127.01 32.33-32.65 52.34-77.53 52.34-127.01ZM507.21 434.65c0 40.08-32.49 72.58-72.58 72.58s-72.58-32.49-72.58-72.58c0-16.14 5.33-31 14.24-43.05L223.68 238.96c-9.3 6.88-20.29 11.56-32.25 13.35v110.65c34.94 5.23 61.77 35.28 61.77 71.68 0 40.08-32.49 72.58-72.58 72.58s-72.58-32.49-72.58-72.58c0-36.4 26.83-66.45 61.77-71.68V252.31c-34.94-5.23-61.77-35.28-61.77-71.68 0-40.08 32.49-72.58 72.58-72.58s72.58 32.49 72.58 72.58c0 16.14-5.33 31-14.24 43.05l152.63 152.63c9.3-6.88 20.28-11.56 32.24-13.35V252.31c-34.94-5.23-61.77-35.28-61.77-71.68 0-40.08 32.49-72.58 72.58-72.58s72.58 32.49 72.58 72.58c0 36.4-26.83 66.46-61.77 71.68v110.64c34.94 5.23 61.77 35.28 61.77 71.68Z"></path></svg>