<svg xmlns="http://www.w3.org/2000/svg" width="608.6" viewBox="0 0 608.6 608.6" height="608.6" xml:space="preserve"><path d="M519.5 89.1C462 31.7 385.6 0 304.3 0S146.6 31.7 89.1 89.1 0 223 0 304.3 31.7 462 89.1 519.5c57.5 57.5 133.9 89.1 215.2 89.1S462 577 519.5 519.5c57.5-57.5 89.1-133.9 89.1-215.2S577 146.6 519.5 89.1zm-381.3 49.1c44.4-44.4 103.4-68.8 166.1-68.8S426 93.8 470.4 138.2s68.8 103.4 68.8 166.1c0 13.8-1.2 27.4-3.5 40.7h-48.1v-92.2c0-48.5-39.4-87.9-87.9-87.9-48.5 0-87.9 39.4-87.9 87.9V345h-15.2v-92.2c0-48.5-39.4-87.9-87.9-87.9-48.5 0-87.9 39.4-87.9 87.9V345H72.9c-2.3-13.3-3.5-26.9-3.5-40.7 0-62.7 24.4-121.7 68.8-166.1zm166.1 401c-62.7 0-121.7-24.4-166.1-68.8-14.5-14.5-26.9-30.6-37-47.9h97.2V252.9c0-5.7 4.7-10.4 10.4-10.4s10.4 4.7 10.4 10.4v169.7h170.1V252.9c0-5.7 4.7-10.4 10.4-10.4s10.4 4.7 10.4 10.4v169.7h97.2c-10.1 17.3-22.5 33.4-37 47.9-44.2 44.3-103.2 68.7-166 68.7z"></path></svg>