<svg id="Layer_1" data-name="Layer 1" xmlns="http://www.w3.org/2000/svg" viewBox="0 0 621.93 423.48">   <path d="M396.44,256.7c0-33.62,27.25-60.88,60.88-60.88V0h-146.35V146.35L164.61,0V195.82c33.62,0,60.88,27.26,60.88,60.88s-27.26,60.88-60.88,60.88v105.91h146.35v-146.35l146.35,146.35v-105.91c-33.62,0-60.88-27.26-60.88-60.88Zm-85.47,15.92c-33.62,0-60.88-27.26-60.88-60.88s27.26-60.88,60.88-60.88,60.88,27.26,60.88,60.88-27.26,60.88-60.88,60.88Z"></path>   <path d="M60.88,301.73c-33.62,0-60.88,27.26-60.88,60.88s27.26,60.88,60.88,60.88,60.88-27.26,60.88-60.88-27.26-60.88-60.88-60.88Z"></path>   <path d="M561.05,301.73c-33.62,0-60.88,27.26-60.88,60.88s27.25,60.88,60.88,60.88,60.88-27.26,60.88-60.88-27.26-60.88-60.88-60.88Z"></path>   <path d="M103.74,256.7c0,33.62,27.25,60.88,60.88,60.88v-121.75c-33.62,0-60.88,27.26-60.88,60.88Z"></path>   <path d="M518.19,256.7c0-33.62-27.25-60.88-60.88-60.88v121.75c33.62,0,60.88-27.26,60.88-60.88Z"></path> </svg>