<svg data-name="Layer 1" xmlns="http://www.w3.org/2000/svg" viewBox="0 0 588.36 633.26"><path d="m370.7 317.72 115.28-66.59 9.65 85.13-37.92 1.85 66.14 36.91 64.51-43.29-37.39 1.83-1.26-207.6L333.4 250.93V117.8l78.54 34.23-17.36 33.76 65.04-38.8-5.22-77.52-17.12 33.29L256.9 0v249.95l-115.5-66.47 68.85-51 20.59 31.88-1.18-75.72-69.79-34.15 20.31 31.45L1.14 191.03l216.53 124.6-115.22 66.69-9.72-85.12 37.91-1.88-66.16-36.86L0 301.81l37.39-1.86 1.43 207.6 217.87-126.11.11 134.08-78.57-34.16 17.33-33.77-65.01 38.85 5.28 77.52 17.1-33.31L333.4 633.26l-.21-248.86 113.67 65.54-68.89 50.94-20.57-31.9 1.12 75.73 69.76 34.2L408 547.45l179.12-104.94L370.7 317.72z"></path></svg>