<svg xmlns="http://www.w3.org/2000/svg" width="625.1" viewBox="0 0 625.1 602.1" height="602.1" xml:space="preserve" style="enable-background:new 0 0 625.1 602.1"><path d="m141.5 581.5-4.3-3.1 6.3-20-17 12.8-4.3-3.1 65.6-208.7-176.9-133 1.7-5h20.3L16.3 209l1.7-5h218.7L300.8 0h5.3l6.4 20.6L319 0h5.3l63.4 203.9h219.4l1.7 5-16.5 12.4h20.3l1.7 5-178 133.7 64.1 206.2-4.3 3.1-16.5-12.4 6.3 20.3-4.3 3.1-169.2-127.2-170.9 128.4zm9.7-28.8-6 19.1 162.6-122.2-9.7-7.3-146.9 110.4zm165.9-103.1 160.9 121-6.1-19.4-145-108.9-9.8 7.3zM192.5 363l-62.4 198.5 16.3-12.2 56.2-178.8-10.1-7.5zm284.2 184.8 15.8 11.9-60.9-196-9.9 7.4 55 176.7zM207.3 374.1 154 543.5l139.4-104.7-86.1-64.7zm124.2 64.7L469 542.1l-52.1-167.4-85.4 64.1zm-28.8.1 9.7 7.3 9.8-7.4-9.7-7.3-9.8 7.4zm-93.6-70.5 89 66.9 9.8-7.4-95.1-71.4-3.7 11.9zM317.2 428l9.7 7.3 88.3-66.3-3.7-11.8-94.3 70.8zm-102.6-77.1 98 73.6 97.2-73L371 226.9H253.6l-39 124zm201.6 2.7 3.7 11.8 9.9-7.4-3.7-11.8-9.9 7.4zm-221.9 3.7 10 7.6L208 353l-10.1-7.5-3.6 11.8zm236.6-14.7 3.7 11.8 169.7-127.5H585L430.9 342.6zm-410-115.7 168.7 126.8 3.7-11.9-153.1-115H20.9zm355.9 0 37.7 121 9.9-7.4-35.3-113.6h-12.3zm-177 112.9 10 7.5 37.9-120.4h-12.4l-35.5 112.9zm195.1-112.9 34.2 110 146.5-110H394.9zm-345.4 0 145.6 109.3 34.4-109.3h-180zm343.7-5.6h189.9l15.8-11.8H389.5l3.7 11.8zm-18.2 0h12.3l-3.7-11.8h-12.3l3.7 11.8zm-119.7 0h113.9l-3.7-11.8H259l-3.7 11.8zm-18.3 0h12.4l3.7-11.8h-12.4l-3.7 11.8zm-194.9 0h189.1l3.7-11.8H26.3l15.8 11.8zm327.5-17.4h12.3L321.7 10.2 315.5 30l54.1 173.9zm-108.8 0h103L312.5 39.3l-51.7 164.6zm-18.3 0h12.4L309.6 30l-6.2-19.8-60.9 193.7z"></path><path d="m156.6 591.8-4.3-3.1 24.1-76.5-64.9 48.7-4.3-3.1 60.4-192-162.2-122 1.7-5h77.5l-63-47.2 1.7-5h200.5L282.6 0h5.3l24.6 78.9L337.3 0h5.3l57.9 186.5h201.3l1.7 5-62.9 47.2H618l1.7 5-163.3 122.8L515 555.3l-4.3 3.1-63.5-47.6 24.1 77.4-4.3 3.1-154.7-116.5-155.7 117zm27.4-85.4-23.8 75.7 147.4-110.8-38.4-28.9-85.2 64zm132.9-35.1 146.4 110.2-23.8-76.5-83.8-62.9-38.8 29.2zM172.2 369.4 115 551.2l64.2-48.2 32.6-103.9-39.6-29.7zm272.1 132.3 62.8 47.1-55.4-178.6-39.2 29.4 31.8 102.1zm-227.7-99-29.7 94.6 77.8-58.4-48.1-36.2zm143.8 36 76.3 57.3-28.9-92.8-47.4 35.5zm-86.5.2 38.4 28.9 38.8-29.1-38.4-28.8-38.8 29zm-55.6-41.8 50.9 38.3 38.7-29.1-74.9-56.2-14.7 47zm99 9.3 38.4 28.8 50.2-37.8-14.6-46.7-74 55.7zm-82.4-61.9 77.8 58.4 77-57.8-31.4-100.7h-91.9l-31.5 100.1zm161.2 2.7 14.6 46.7 39.2-29.4-14.5-46.7-39.3 29.4zM174 363.7l39.6 29.8 14.7-46.9-39.6-29.7-14.7 46.8zm266.1-49.5 14.5 46.7 155.1-116.5h-76.6l-93 69.8zM15.5 244.3l153.8 115.8 14.7-46.8-91.9-69H15.5zm348.6 0 30.3 97.2 39.2-29.5-21-67.7h-48.5zm-173.6 66.9 39.6 29.7 30.4-96.6h-48.9l-21.1 66.9zm227.9-66.9 19.9 64.1 85.4-64.1H418.4zm-317 0 84.4 63.3 19.9-63.3H101.4zm315.3-5.5h114.5l62.2-46.7H402.2l14.5 46.7zm-54.4 0h48.5l-14.5-46.7h-48.6l14.6 46.7zm-94.2 0h88.4l-14.6-46.7h-59.2l-14.6 46.7zm-54.8 0h48.9l14.7-46.7H228l-14.7 46.7zm-119.3 0h113.5l14.7-46.7H31.7L94 238.8zm252-52.3h48.6L339.9 10.2l-24.5 78.1 30.6 98.2zm-61.5 0h55.7l-27.7-88.9-28 88.9zm-54.8 0h48.9l30.9-98.3-24.3-78.1-55.5 176.4z"></path><path d="m171.7 602.1-4.3-3.1 41.8-133-112.8 84.6-4.3-3.1 55.2-175.4L0 261.2l1.7-5h134.9L27.1 174.1l1.7-5h182.3L264.3 0h5.3l42.8 137.1L355.5 0h5.3l52.4 169.1h183.1l1.7 5-109.4 82.1h134.8l1.7 5L476.4 373l53.1 171.4-4.3 3.1-110.4-82.8 42 134.3-4.3 3.1-140.3-105.6-140.5 105.6zm45.1-141.9-41.5 132.2L307.6 493l-67.1-50.5-23.7 17.7zm100 32.8 131.9 99.4L407 459l-22.4-17-67.8 51zM152 375.7l-52 165.2 112-84.1 9.1-29-69.1-52.1zm259.9 79.8 109.7 82.3-50-161.2-68.3 51.4 8.6 27.5zm-166.8-16.6 67 50.5 67.7-50.9-67.2-50.3-67.5 50.7zm-19.3-7.5-6.2 19.7 16.2-12.2-10-7.5zm163.4 7.2 15 11.3-5.7-18.3-9.3 7zm-161.6-12.9 12.9 9.7 67.6-50.7-54.7-41-25.8 82zm89.8-41 67.2 50.3 12.2-9.2-25.5-81.6-53.9 40.5zm58.6-44 25.5 81.6 68.4-51.4-25.3-81.7-68.6 51.5zm-222.3 29.4 69.2 52.1 25.8-82-69.2-51.9-25.8 81.8zm101.5-32 57.6 43.2 56.8-42.6-24-76.8h-66.4l-24 76.2zm194.2-52.4 25.3 81.7 140.4-105.6H481.2l-31.8 23.9zM10 261.8l139 104.7 25.7-81.7-30.7-23H10zm341.4 0 22.9 73.3 68.6-51.5-6.8-21.8h-84.7zm-170.2 20.9 69.2 51.9 22.9-72.8h-85.5l-6.6 20.9zM442 261.8l5.7 18.2 24.3-18.2h-30zm-288.6 0 23.1 17.3 5.5-17.3h-28.6zm286.8-5.6h39.1L588 174.7H415l25.2 81.5zm-90.6 0h84.7L409 174.7h-84.9l25.5 81.5zm-68.7 0h62.9l-25.5-81.5h-11.8l-25.6 81.5zm-91.3 0H275l25.6-81.5h-85.4l-25.6 81.5zm-43.7 0h37.8l25.6-81.5H37.2l108.7 81.5zm176.5-87.1h85L358.2 10.2l-42.8 136.2 7 22.7zm-14.1 0h8.3l-4.2-13.3-4.1 13.3zm-91.3 0h85.4l7.1-22.6L267 10.2l-50 158.9z"></path></svg>