<svg data-name="Layer 1" xmlns="http://www.w3.org/2000/svg" viewBox="0 0 601.84 601.84"><path d="M601.84 241.5V0H0v241.5h93.12v118.85H0v241.49h601.84V360.35h-87.05V241.5h87.05ZM421.67 61.32h118.86v118.85H421.67V61.32Zm-180.17 0h118.85v118.85H241.5V61.32ZM61.32 180.17V61.32h118.85v118.85H61.32Zm93.12 61.32h118.85v118.85H154.44V241.49Zm25.73 299.03H61.32V421.66h118.85v118.86Zm180.17 0H241.49V421.66h118.85v118.86Zm180.17-118.86v118.86H421.65V421.66h118.86Zm-87.05-61.32H334.6V241.49h118.86v118.85Z"></path></svg>