<svg xmlns="http://www.w3.org/2000/svg" width="629.4" viewBox="0 0 629.4 599.3" height="599.3" xml:space="preserve" style="enable-background:new 0 0 629.4 599.3"><path d="M220.4 310.4H35.6L0 367.2l95.8 162.9h64.4L256 367.2zM501.4 310.4h-92.3l-35.6 56.8 95.8 162.9h64.3l95.8-162.9-35.6-56.8zM129.4 279.7h93.4l36-56.7-114-196.5h339.8l-114 196.4 36 56.7h186.8l36-56.7L500 0H129.4L0 222.9l36 56.7h93.4zm473-57.3-21.8 34.4H419.4l-21.8-34.4L500 46l102.4 176.4zM129.4 46l102.4 176.4-21.8 34.4H48.8L27 222.4 129.4 46zM322.4 379.6v95.3c11.9 3.7 20.5 14.8 20.5 28 0 16.2-13.1 29.3-29.3 29.3-16.2 0-29.3-13.1-29.3-29.3 0-13.1 8.6-24.2 20.5-28v-95.3h-23.4l-95.8 162.9 35.6 56.8H406l35.6-56.8-95.8-162.9h-23.4z"></path></svg>