<svg data-name="Layer 1" xmlns="http://www.w3.org/2000/svg" viewBox="0 0 616 595.25"><path d="M0 0v139.82C83.38 70.04 190.76 27.98 308 27.98s224.62 42.06 308 111.84V0H0ZM308 511.64c-30.49 0-55.21 24.72-55.21 55.21 0 10.4 2.93 20.1 7.93 28.4h94.55c5-8.31 7.93-18 7.93-28.4 0-30.49-24.72-55.21-55.21-55.21Z"></path><path d="M308 45.07c-170.1 0-308 137.89-308 308v242.18h31.83c-.74-8.22-1.18-16.53-1.18-24.94 0-153.17 124.17-277.35 277.35-277.35s277.35 124.17 277.35 277.35c0 8.41-.44 16.72-1.18 24.94H616V353.07c0-170.1-137.9-308-308-308Z"></path><path d="M308 310.1c-120.91 0-218.92 98.02-218.92 218.92 0 23.09 3.64 45.33 10.27 66.23h98.18c5.17-56.53 52.59-100.85 110.48-100.85s105.31 44.31 110.48 100.85h98.17c6.63-20.9 10.27-43.13 10.27-66.23 0-120.91-98.02-218.92-218.92-218.92Z"></path></svg>