<svg xmlns="http://www.w3.org/2000/svg" width="619.9" viewBox="0 0 619.9 619.9" height="619.9" xml:space="preserve"><path d="M598.8 334.5c-21.9-14.8-51.6-9-66.3 12.9-12.5 18.6-33.4 29.7-55.8 29.7-37.1 0-67.2-30.1-67.2-67.2s30.1-67.2 67.2-67.2c22.4 0 43.2 11.1 55.8 29.7 14.8 21.9 44.5 27.7 66.3 12.9 21.9-14.8 27.7-44.5 12.9-66.3-30.3-45-80.8-71.8-135-71.8-1.3 0-2.7 0-4 .1 0-1.3.1-2.7.1-4 0-54.2-26.9-104.7-71.8-135-21.9-14.8-51.6-9-66.3 12.9-14.8 21.9-9 51.6 12.9 66.3 18.6 12.5 29.7 33.4 29.7 55.8 0 37.1-30.1 67.2-67.2 67.2s-67.2-30.1-67.2-67.2c0-22.4 11.1-43.2 29.7-55.8 21.9-14.8 27.7-44.5 12.9-66.3-14.9-22-44.6-27.8-66.5-13-45 30.3-71.8 80.8-71.8 135 0 1.3 0 2.7.1 4-1.3 0-2.7-.1-4-.1C89 147.2 38.5 174 8.2 219c-14.8 21.9-9 51.6 12.9 66.3 21.9 14.8 51.6 9 66.3-12.9 12.5-18.6 33.4-29.7 55.8-29.7 37.1 0 67.2 30.1 67.2 67.2s-30.1 67.2-67.2 67.2c-22.4 0-43.2-11.1-55.8-29.7-14.8-21.9-44.5-27.7-66.3-12.9C-.8 349.3-6.6 379 8.2 400.9c30.3 45 80.8 71.8 135 71.8 1.3 0 2.7 0 4-.1 0 1.3-.1 2.7-.1 4 0 54.2 26.9 104.7 71.8 135 8.2 5.5 17.5 8.2 26.7 8.2 15.4 0 30.4-7.4 39.7-21.1 14.8-21.9 9-51.6-12.9-66.3-18.6-12.5-29.7-33.4-29.7-55.8 0-37.1 30.1-67.2 67.2-67.2s67.2 30.1 67.2 67.2c0 22.4-11.1 43.2-29.7 55.8-21.9 14.8-27.7 44.5-12.9 66.3 14.8 21.9 44.5 27.7 66.3 12.9 45-30.3 71.8-80.8 71.8-135 0-1.3 0-2.7-.1-4 1.3 0 2.7.1 4 .1 54.2 0 104.7-26.9 135-71.8 15-21.9 9.2-51.6-12.7-66.4z"></path></svg>