<svg xmlns="http://www.w3.org/2000/svg" width="604.1" viewBox="0 0 604.1 404.6" height="404.6" xml:space="preserve"><path d="M253.2 198.6v7.3h343.6c-1.9 105.9-88.7 191.4-195 191.4-33.5 0-65.1-8.5-92.7-23.5 36.5-22.8 65.3-56.9 81.3-97.4h-7.8c-16.1 39.1-44.7 71.8-80.6 93.3-57-34.1-95.2-96.4-95.2-167.4 0-71.1 38.3-133.4 95.3-167.5 36.4 21.7 65.6 55.1 81.8 96.1h7.8c-16-42.5-45.4-77.2-82.4-100.2 27.6-14.9 59.1-23.4 92.6-23.4 80.4 0 152.3 49.4 181.5 123.6h7.8C561.5 52.4 486.2 0 401.8 0c-36.3 0-70.3 9.6-99.8 26.4C272.3 9.5 238.1 0 202.3 0 90.7 0 0 90.7 0 202.3s90.7 202.3 202.3 202.3c36.3 0 70.3-9.7 99.7-26.5 29.5 16.8 63.5 26.5 99.8 26.5 111.5 0 202.3-90.7 202.3-202.3v-3.6H253.2zm-50.9 198.7c-107.5 0-195-87.5-195-195s87.5-195 195-195c33.1 0 64.7 8.5 92.5 23.5-57.1 35.8-95.3 99.3-95.3 171.5s38.1 135.7 95.2 171.5c-27.5 14.9-59 23.5-92.4 23.5z"></path></svg>