<svg xmlns="http://www.w3.org/2000/svg" viewBox="0 0 454.22 642"><path d="M255.23 52.97c-112.16 0-203.06 90.91-203.06 203.06v334.61h54.57V453.12c0-15.6 14.19-27.86 30.37-24.59 11.75 2.44 19.9 13.29 19.9 32.55v71.26c0 31.97 23.5 60.03 55.28 63.3 21.57 2.18 41.22-6.74 53.8-21.76a11.18 11.18 0 0 1 17.21 0c12.71 15.02 32.42 24.01 53.99 21.7 31.78-3.34 55.15-31.52 55.15-63.43V453.7c0-23.95 3.34-47.06 9.63-69.01h-30.3c-16.69 0-30.24 13.55-30.24 30.24v112.61c0 11.24-9.31 20.29-20.74 19.77-10.72-.51-18.81-10.08-18.81-20.86V384.7h-54.57v142.84c0 12.2-11.04 21.83-23.69 19.39-9.37-1.8-15.86-10.59-15.86-20.16v-86.09c0-33.26-26.96-60.22-60.16-60.22-15.86 0-30.24 6.1-40.96 16.18v-45.13h92.32c112.09 0 203-90.91 203-203.06V52.97H255.23Zm-148.5 197.15c0-81.98 66.45-148.43 148.49-148.43h59.26L106.73 261.1v-10.98Zm240.75-96.88c0 82.05-66.45 148.49-148.43 148.49h-71.01l219.44-168.4v19.9Zm70.62 488.75H36.11C16.17 641.99 0 625.82 0 605.88V36.11C0 16.17 16.17 0 36.11 0H418.1c19.94 0 36.11 16.17 36.11 36.11v569.78c0 19.94-16.17 36.11-36.11 36.11Z"></path></svg>