<svg data-name="Layer 1" xmlns="http://www.w3.org/2000/svg" viewBox="0 0 620.24 604.8"><path d="M185.5 37.59c23.72 2.56 47.52 11.08 65.25 27.47 3.5 3.23 6.74 6.75 9.65 10.52 23.68 30.62 29.9 71.95 32.3 109.51.23 3.5 1.69 44.15 1.16 44.15h32.52c-.53 0 .94-40.65 1.16-44.15 2.4-37.56 8.62-78.88 32.3-109.51 2.92-3.77 6.15-7.29 9.65-10.52 17.74-16.39 41.53-24.9 65.25-27.47 22.74-2.46 54.25-1.45 73.32 12.81 0-.04-14.23-50.4-14.23-50.4H126.4s-14.21 50.36-14.22 50.4c19.07-14.26 50.57-15.27 73.32-12.81Z"></path><path d="M215.58 79.18c-27.74 0-50.23 22.49-50.23 50.23s22.49 50.23 50.23 50.23 50.24-22.49 50.24-50.23-22.49-50.23-50.24-50.23Z"></path><circle cx="404.66" cy="129.41" r="50.23"></circle><path d="M538.14 157.7h-78.85v235.34c0 53.65-66.78 91.38-149.17 91.38s-149.17-37.73-149.17-91.38V157.7H82.1L0 452.78h160.95v43.36c0 53.65 54.63 108.66 149.17 108.66s149.17-55.01 149.17-108.66v-43.36h160.95l-82.1-295.08Z"></path></svg>