<svg id="Layer_1" data-name="Layer 1" xmlns="http://www.w3.org/2000/svg" viewBox="0 0 515.5 595.25">   <path d="M331.73,268.39l66.77-88.76h-73.16l-69.93,92.7v55.51l77.68,87.77h78.07l-78.55-88.76h124.43v85.83l-199.29,115.06L0,378.93v67.51l257.75,148.81,257.75-148.81v-178.04h-183.78Zm179.87,175.79l-253.84,146.56L3.91,444.18v-58.48l253.84,146.55,203.2-117.32v-91.99h-137.03l78.55,88.76h-67.63l-75.52-85.34,.15-52.68,67.81-90.15h63.37l-66.77,88.76h187.7v171.88Z"></path>   <path d="M257.75,0L0,148.81v178.04H190.01v88.76h58.46V179.63h-58.46v88.76H58.46v-85.83l199.29-115.06,257.75,148.81v-67.51L257.75,0ZM54.55,180.31v91.99H193.92v-88.76h50.64v228.16h-50.64v-88.76H3.91V151.07L257.75,4.51l253.84,146.56v58.25L257.75,62.99,54.55,180.31Z"></path> </svg>