<svg data-name="Layer 1" xmlns="http://www.w3.org/2000/svg" viewBox="0 0 615.35 618.76"><path d="m3.42377742 357.1265442 101.14838597-20.11966491 5.0294285 25.28464453-101.14838597 20.1196649zM509.16218179 256.57632429l101.14838597-20.11966491 5.0294285 25.28464453-101.14838597 20.1196649zM126.7255984 559.51817306l57.29595814-85.74946112 21.4352866 14.3226006-57.29595813 85.74946112zM413.18552148 130.76189151l57.29595814-85.74946111 21.4352866 14.3226006-57.29595813 85.74946112zM18.67465674 415.85667979l95.27969619-39.46614238 9.86557889 23.81761435-95.2796962 39.46614238zM495.04670553 218.5709713l95.27969618-39.46614239 9.8655789 23.81761435-95.2796962 39.46614238zM81.52100454 518.9771699l72.92392234-72.92392234 18.22921282 18.22921282-72.92392234 72.92392234zM446.1407584 154.32236332l72.9111936-72.93664886 18.23239414 18.22603094-72.9111936 72.93664886zM44.94588758 470.57541467l85.75945984-57.28099115 14.31885922 21.43778604-85.75945984 57.28099116zM473.70557115 184.08019485l85.74946112-57.29595813 14.3226006 21.4352866-85.74946111 57.29595814zM0 296.58h103.13v25.78H0zM412.51 296.58h103.13v25.78H412.51zM179.10860636 590.33447514l39.46614238-95.27969619 23.81761435 9.86557889-39.46614238 95.27969619zM376.40579638 113.96259348l39.46614238-95.27969619 23.81761434 9.86557889-39.46614238 95.27969619zM236.31791547 610.35955763l20.10006169-101.14208778 25.28552194 5.02501542-20.10006168 101.14208778zM336.90651599 104.62849659l20.1196649-101.14838597 25.28464454 5.0294285-20.11966491 101.14838597zM296.46 515.63h25.78v103.13h-25.78zM296.46 0h25.78v103.13h-25.78zM336.82143017 514.32027162l25.28552194-5.02501542L382.208963 610.44715217l-25.28552194 5.02501543zM236.26489702 8.54533137l25.28464453-5.0294285 20.11966491 101.14838597-25.28464453 5.0294285zM376.38919423 504.93931627l23.81589212-9.8697357 39.47894278 95.26356847-23.81589212 9.8697357zM179.04368293 28.58014861l23.81589212-9.8697357 39.48277122 95.2728066-23.81589212 9.8697357zM413.1414725 488.11786817l21.4352866-14.3226006 57.29595813 85.74946111-21.4352866 14.3226006zM126.68074666 59.36610594l21.4352866-14.3226006 57.29595814 85.74946111-21.43528661 14.3226006zM446.00101815 464.3739336l18.23239414-18.22603095 72.9111936 72.93664886-18.23239413 18.22603094zM81.38987212 99.81053106l18.22921282-18.22921282 72.92392234 72.92392234-18.22921282 18.22921282zM473.72275604 434.78909862l14.3226006-21.4352866 85.74946112 57.29595813-14.3226006 21.4352866zM44.9820302 148.27086085l14.3226006-21.4352866 85.74946112 57.29595813-14.3226006 21.4352866zM495.03849348 400.28508735l9.86557888-23.81761435 95.27969619 39.46614238-9.86557889 23.81761435zM18.65661182 202.93789734l9.86557888-23.81761435 95.27969619 39.46614238-9.86557889 23.81761435zM514.19 337.08l-5.03 25.29 101.14 20.12 5.04-25.29-101.15-20.12zM3.43223852 261.79494178l5.0294285-25.28464453 101.14838597 20.1196649-5.0294285 25.28464454z"></path></svg>