<svg data-name="Layer 1" xmlns="http://www.w3.org/2000/svg" viewBox="0 0 612.11 612.11"><path d="M490.12 121.99V0H121.99v121.99H0v368.13h121.99v121.99h368.13V490.12h121.99V121.99H490.12ZM262.7 422.46c0 37.21-30.45 67.66-67.66 67.66-37.21 0-67.66-30.45-67.66-67.66V206.05l-18.44-10.65 18.97-10.95c2.72-34.76 31.7-62.46 67.13-62.46 37.21 0 67.66 30.45 67.66 67.66v232.81Zm222.02 62.26H333.55c-33.57 0-60.78-27.21-60.78-60.78V311.09h151.17c33.57 0 60.78 27.21 60.78 60.78v112.85Zm0-244.48c0 33.57-27.21 60.78-60.78 60.78H272.77V188.17c0-33.57 27.21-60.78 60.78-60.78h151.17v112.85Z"></path><path d="M174.42 165.71c-4.47 0-8.1 3.62-8.1 8.1s3.62 8.1 8.1 8.1 8.1-3.62 8.1-8.1-3.62-8.1-8.1-8.1Z"></path></svg>