<svg id="Layer_1" data-name="Layer 1" xmlns="http://www.w3.org/2000/svg" viewBox="0 0 623.09 519.77">   <path d="M151.85,108.04C67.98,108.04,0,176.02,0,259.88s67.98,151.85,151.85,151.85,151.85-67.98,151.85-151.85S235.71,108.04,151.85,108.04Zm-29.69,202.39c-11.52,0-20.86-9.34-20.86-20.86s9.34-20.86,20.86-20.86,20.86,9.34,20.86,20.86-9.34,20.86-20.86,20.86Zm0-59.37c-11.52,0-20.86-9.34-20.86-20.86s9.34-20.86,20.86-20.86,20.86,9.34,20.86,20.86-9.34,20.86-20.86,20.86Zm59.37,59.37c-11.52,0-20.86-9.34-20.86-20.86s9.34-20.86,20.86-20.86,20.86,9.34,20.86,20.86-9.34,20.86-20.86,20.86Zm0-59.37c-11.52,0-20.86-9.34-20.86-20.86s9.34-20.86,20.86-20.86,20.86,9.34,20.86,20.86-9.34,20.86-20.86,20.86Z"></path>   <polygon points="57.77 519.77 152.66 464.98 57.77 410.2 57.77 519.77"></polygon>   <polygon points="247.55 519.77 247.55 410.2 152.66 464.98 247.55 519.77"></polygon>   <path d="M471.25,108.04c-83.86,0-151.85,67.98-151.85,151.85s67.98,151.85,151.85,151.85,151.85-67.98,151.85-151.85-67.98-151.85-151.85-151.85Zm-29.69,202.39c-11.52,0-20.86-9.34-20.86-20.86s9.34-20.86,20.86-20.86,20.86,9.34,20.86,20.86-9.34,20.86-20.86,20.86Zm0-59.37c-11.52,0-20.86-9.34-20.86-20.86s9.34-20.86,20.86-20.86,20.86,9.34,20.86,20.86-9.34,20.86-20.86,20.86Zm59.37,59.37c-11.52,0-20.86-9.34-20.86-20.86s9.34-20.86,20.86-20.86,20.86,9.34,20.86,20.86-9.34,20.86-20.86,20.86Zm0-59.37c-11.52,0-20.86-9.34-20.86-20.86s9.34-20.86,20.86-20.86,20.86,9.34,20.86,20.86-9.34,20.86-20.86,20.86Z"></path>   <polygon points="565.33 0 470.44 54.78 565.33 109.57 565.33 0"></polygon>   <polygon points="375.55 0 375.55 109.57 470.44 54.78 375.55 0"></polygon> </svg>