<svg xmlns="http://www.w3.org/2000/svg" width="622.9" viewBox="0 0 622.9 210.8" height="210.8" style="enable-background:new 0 0 622.9 210.8" xml:space="preserve"><path d="M388.7 0c2.1 4.2 3.3 8.9 3.3 13.9 0 17.3-14 31.3-31.3 31.3s-31.3-14-31.3-31.3c0-5 1.2-9.7 3.3-13.9h-36.9c2.1 4.2 3.3 8.9 3.3 13.9 0 17.3-14 31.3-31.3 31.3s-31.3-14-31.3-31.3c0-5 1.2-9.7 3.3-13.9H0c16.7 77.9 85.9 136.4 168.8 136.4 46.2 0 88.2-18.2 119.2-47.8l-36.6 122.3h120.1L334.9 88.6c31 29.6 73 47.8 119.2 47.8C537 136.4 606.3 77.9 622.9 0H388.7z"></path></svg>