<svg data-name="Layer 1" xmlns="http://www.w3.org/2000/svg" viewBox="0 0 620.74 620.74"><path d="M603.49 212.68 327.66 5.76c-10.25-7.69-24.34-7.69-34.58 0L17.25 212.68A43.122 43.122 0 0 0 0 247.18v340.48c0 18.27 14.81 33.08 33.08 33.08h554.59c18.27 0 33.08-14.81 33.08-33.08V247.18a43.14 43.14 0 0 0-17.25-34.51ZM90.06 256.35 310.28 91.04 78.54 542.2V279.4a28.8 28.8 0 0 1 11.52-23.04Zm78.49 285.85 141.82-277.83L452.19 542.2H168.55Zm373.66 0L310.46 91.04l220.22 165.2a28.819 28.819 0 0 1 11.52 23.05v262.92Z"></path></svg>