<svg id="Layer_1" data-name="Layer 1" xmlns="http://www.w3.org/2000/svg" viewBox="0 0 621.72 621.72">   <path d="M621.72,0H204.9L0,205.6v416.12H416.82l204.9-205.6V0Zm-56.84,187.9h-131.64l-.73-130.86h132.37V187.9Zm-224.05-55.75l35.06-35.18,.6,106.64-35.66,35.78v-107.24Zm-187.26,18.83h128.3v130.86l-129.3,1,1-131.86Zm91.65,267.13l35.66-35.78v107.24l-35.06,35.18-.6-106.64Zm223.91,51.63l-129.3,1,1-131.87h128.3v130.87ZM135.75,339.88h107.06l-36.79,36.92H98.13l37.62-36.92Zm350.22-58.03h-107.06l36.79-36.91h107.89l-37.62,36.91ZM228.45,57.03h106.87l-34.67,34.79h-106.87l34.68-34.79ZM56.84,229.22l36.79-36.91v109.13l-36.79,36.1v-108.31Zm0,204.6H188.47l.74,130.86H56.84v-130.86Zm336.44,130.86h-106.87l34.67-34.79h106.87l-34.68,34.79Zm171.61-172.19l-36.79,36.91v-109.13l36.79-36.1v108.31Z"></path> </svg>