<svg xmlns="http://www.w3.org/2000/svg" width="624.8" viewBox="0 0 624.8 624.8" height="624.8" xml:space="preserve" style="enable-background:new 0 0 624.8 624.8"><path d="M257.6 0v178.3l54.8 54.7 54.7-54.7V0l-54.7 54.8zM367.1 624.8V446.5l-54.7-54.7-54.8 54.7v178.3l54.8-54.8zM0 367.1h178.3l54.7-54.7-54.7-54.8H0l54.8 54.8zM624.8 257.6H446.5l-54.7 54.8 54.7 54.7h178.3L570 312.4zM130.2 572l126.1-126.1v-77.4h-77.5l-126 126.1h77.4zM494.6 52.8l-126.1 126v77.5h77.4L572 130.2h-77.4z"></path><g><path d="M572 494.6 445.9 368.5h-77.4v77.4L494.6 572v-77.4zM52.8 130.2l126 126.1h77.5v-77.5l-126.1-126v77.4z"></path></g><path d="M368.5 312.4c0 31-25.1 56.1-56.1 56.1s-56.1-25.1-56.1-56.1 25.1-56.1 56.1-56.1 56.1 25.1 56.1 56.1z"></path></svg>