<svg xmlns="http://www.w3.org/2000/svg" width="618" viewBox="0 0 618 448" height="448" xml:space="preserve"><path d="M580.5 224.2c-4.8 50.4-26.7 96.6-62 130.7-37.2 35.9-86.8 55.7-139.8 55.7-52.7 0-100-23.9-129.3-61.1-25.4-32.3-33.6-71.3-23.8-111.3 9.4-38.7 44.2-65.5 78.9-62.2 27.3 2.7 44.3 22.7 44.3 52.3 0 24.3-19 39.1-38.8 43.9-2 .5-3.9.8-5.9 1-2 .2-4 .1-6.1.1v74.3h1.2c40 0 78.6-15.3 108.7-43 30.3-27.9 46.2-64.5 48.8-104.6 5.2-81.1-35.2-151-126-186.1C273.4-8.2 208.6-3.9 152.5 26.3 81.8 64.2 23.9 133.8 0 224.2h39.3c22.8-81 71.9-133.3 130.9-165 46.6-25.1 96.7-27.3 144.6-10.8 67 23 110 80.7 104.6 149.2-4.5 56.2-46.3 102.3-101.5 111.1 40-9.2 68.2-41.7 68.2-80.4 0-49-31.4-85-78-89.5-54-5.2-104.8 32.9-118.8 90.5-12.5 51.4-1.9 101.7 30.8 143.2 36.8 46.8 91.2 75.8 158.7 75.4 126.5-.7 228.9-96 239.3-223.8h-37.6z"></path></svg>