<svg data-name="Layer 1" xmlns="http://www.w3.org/2000/svg" viewBox="0 0 494.41 615.09"><path d="M277.96 460.33v154.76h-61.51V460.33c13.35-13.16 23.99-29.22 30.75-47.18a130.927 130.927 0 0 0 30.75 47.18Z"></path><path d="M479.46 307.24c9.47 17.53 14.95 37.58 14.95 58.92 0 68.27-55.36 123.57-123.63 123.57s-123.57-55.3-123.57-123.57c0 68.27-55.36 123.57-123.63 123.57S0 434.44 0 366.16c0-21.34 5.41-41.4 14.95-58.92C5.41 289.58 0 269.41 0 247.94c0-68.09 54.56-123.39 122.34-124.8C123.32 54.99 178.81 0 247.2 0s123.88 54.99 124.86 123.14c67.78 1.41 122.34 56.71 122.34 124.8 0 21.47-5.47 41.64-14.95 59.29ZM177.7 227.58h-40.47l-12.49-38.44-12.49 38.44H71.84l32.66 23.74-12.49 38.5 32.72-23.8 32.72 23.8-12.49-38.44 32.72-23.8Z"></path></svg>