<svg data-name="Layer 1" xmlns="http://www.w3.org/2000/svg" viewBox="0 0 373.77 603.42"><path d="m271.23 248.24-45.33-27.21-26.71 45.27-17.84-24.09-28.32 37.54-5-23.91-68.69-4.78 45.26-62.07L82.87 173l16.01-14.59-29.86-36.11 46.05 8.68 5.04-21.07 34.17 28.8 32.45-69.62 37.39 57.82 23.35-7.18-19.17 42.94 29.71 3.97-26.71 45.27 41.38 24.88a82.743 82.743 0 0 0 42.03 11.48h59.07v-61.35C373.77 84.1 289.67 0 186.89 0 84.1 0 0 84.1 0 186.89v1.02c0 73.67 42.64 134.13 104.18 168.11l43.51 25.9 26.71-45.27 17.84 24.09 28.32-37.54 5 23.91 68.69 4.78-45.26 62.07 41.73 15.99-16.01 14.59 29.86 36.11-46.05-8.68-5.04 21.07-34.17-28.8-32.45 69.62-37.39-57.82-23.35 7.18 19.17-42.94-29.71-3.97 26.71-45.27-43.77-24.62A82.724 82.724 0 0 0 58.34 356H0v60.51C0 519.3 84.1 603.4 186.89 603.4c102.79 0 186.89-84.1 186.89-186.89v-1.02c0-73.04-44.73-133.59-102.54-167.27Z"></path></svg>