<svg xmlns="http://www.w3.org/2000/svg" width="573.9" viewBox="0 0 573.9 573.8" height="573.8"><path d="M573.6 444.4L571 51.1v-1.3c0-15.5-2.9-30.7-8.6-45l-2-4.8H281v93.7h-93.7v93.7H93.7V281c-2 .8-93.7 0-93.7 0v292.6h548.9l.1.1h14.9l1.9-4.9c5.3-13.9 8.1-28.5 8.1-43.5v-82.1l-.3 1.2zM556.2 561l-545.6.2c5.2-13 8.1-27.3 8.1-42.1 0-14.4-2.7-28.1-7.5-40.8l544.5-.2c5.2 13 8.1 27.3 8.1 42.1 0 14.4-2.7 28.1-7.6 40.8zm0-95.4l-450.2.2c5.2-13 8.1-27.3 8.1-42.1 0-14.4-2.7-28.1-7.5-40.8l449.1-.2c5.2 13 8.1 27.3 8.1 42.1 0 14.4-2.7 28.2-7.6 40.8zm0-95.3l-354.9.2c5.2-13 8.1-27.3 8.1-42.1 0-14.4-2.7-28.1-7.5-40.8l353.8-.2c5.2 13 8.1 27.3 8.1 42.1 0 14.4-2.7 28.1-7.6 40.8zm0-95.4H296c5.2-13 8.3-27 8.3-41.9 0-14.4-2.7-28.1-7.5-40.8l259-.2c5.2 13 8.1 27.3 8.1 42.1-.1 14.4-2.8 28.2-7.7 40.8z"></path></svg>