<svg xmlns="http://www.w3.org/2000/svg" width="619.6" viewBox="0 0 619.6 614.7" height="614.7" xml:space="preserve" style="enable-background:new 0 0 619.6 614.7"><path d="M611.3 253.6c-14.2-36.9-44.9-64-84.3-74.3-47-12.2-90.9 10.3-113.5 38-13.5 16.5-21.3 33.9-24.5 54.6-8 52.1 18.6 90.8 46.3 109.6 17.8 12.1 39.7 18.3 61.5 17.5 41.6-1.7 78.1-28.8 90.8-67.6 15.3-46.7-6-91.8-34.9-112.1-18.2-12.8-40.8-18.7-61.9-16.1-20.4 2.5-37.7 11.2-52.7 26.6-14.9 15.2-22.4 32.8-23.5 55.3-1.1 22.3 5.4 41.7 20 59.3 13.2 15.9 30 24.9 51.4 27.4 26 3.1 45.6-9.7 57.4-20.9 16.2-15.4 23.3-33.7 21.7-56.1-2.3-33.8-23.5-59-53.9-64.4-36.1-6.3-63.3 19.1-68.6 47.3-5 26.5 8.4 58.6 39.5 66.4 13.4 3.4 28.1-.2 39.4-9.5 7.3-6.1 16.3-17 17.3-34.6.8-12.7-4.7-26.3-13.8-34.6-8.2-7.4-22-12.7-34.4-7.8-13.2 5.3-21.6 17-22 30.5-.3 13.8 8 29.4 22.2 30.5 10.8.8 17.7-7.4 19.5-12.7 2.3-6.8.1-17.1-4.6-21.1-2.3-2-4.8-2.2-7.5-.8-3.7 1.9-2.8 5.8-1.8 10 1 4 2 8.6-2.6 10.3-1.8.6-3.7.3-5.4-.9-3.9-2.8-6.5-9.6-6.5-14.3 0-9.8 7.2-17.6 13.7-19.2 6.7-1.6 13.2-.4 18.5 3.5 6.8 4.9 11.6 14 12.2 23.1.7 9.3-2.8 18.7-9.5 25.7s-15.8 11-25 10.7c-12.1-.3-23.5-7.6-30.6-19.6-8.3-13.9-8.9-31.3-1.7-45.2 6.4-12.3 18.6-21.6 32.8-24.7 13.6-3.1 27.3 0 38.6 8.7 12.6 9.7 25.8 30.3 21.4 56.5-3 17.7-13.7 33.7-28.6 42.8-14.6 8.9-32.4 10.6-50.1 4.8-25.5-8.3-44.1-32.4-46.2-60-2.3-29.9 9.8-53.6 35.9-70.5 25-16.2 62.1-10.5 82.1 4 22.3 16.1 35.5 42.6 35.5 70.9 0 18.7-7.1 37.9-19.5 52.8-12.6 15.1-25.8 24.1-43 29.2-19.7 5.9-40.7 4.7-60.7-3.5-33.7-13.9-55.7-47.3-57.6-87.2-.9-19.4 4.6-39 15.9-56.7 8-12.4 38.6-52.2 97.8-45.2 36.8 4.4 67 26.8 82.8 61.5 8.5 18.8 11.9 39.3 10.2 61-1.5 17.9-8.7 36.4-20.3 52.2-11.5 15.5-23.2 26-38 34.1-12.9 7-32.6 15.1-54.4 15.1-1 0-2 0-3.1-.1-44.4-1.5-69.5-23.1-95.4-49-11.6-11.6-23.3-23.7-34.5-35.4-11.7-12.1-23.7-24.6-36.2-37.1-11.6-11.6-23.5-23.4-35.5-35.3-12.1-12-24.4-24.1-36.6-36.4-26-26-47.5-51.3-45.9-97.7.8-24.7 8.8-41 17.2-54.9 13.7-22.4 40.6-49.9 91.1-53.5 21.3-1.5 41.3 2.5 59.7 11.9 35.8 18.4 56.1 48.1 58.8 85.9 3.3 46-24.3 77.9-51.4 92.5-17.9 9.7-38.3 14-58.8 12.4-19.8-1.5-39.1-8.6-53.1-19.5-14.8-11.2-22.9-21.2-29.6-36.8-7.4-16.9-9-39.1-4-56.7 9.5-33.6 36.2-56.9 71.3-62.5 43.3-6.8 76.4 15.8 90 41.2 9.1 16.9 11.3 36.8 6.2 54.6-9.8 34.2-39.4 55.3-75.4 53.7-20.7-.9-35.8-9.9-44.8-17.3-6.2-5.1-21-19.1-23.1-39.2-1.8-17 2.6-32.7 12.9-45.3C284.3 76.6 300 68.3 317 66.6c23.7-2.3 39.4 8.8 46.7 15.6 7.8 7.3 20.3 23 15.6 45.1-3.3 15.9-14.2 28.5-29 33.9-23.9 8.7-52.6-2.4-60.3-23.3-6.7-18.4 5.1-34.7 15.7-40.4 10.4-5.6 26.1-5.1 36.4 1.3 7.3 4.5 11.1 11.5 10.8 19.5-.4 11.5-9.1 17.3-16.4 18.7-6.7 1.3-14.7-1.1-18.2-5.5-1.8-2.3-2.2-4.9-1.1-7.4 1.7-3.8 6.1-2.9 10.3-2 5.3 1.1 8.9 1.5 10.3-2.3 1-2.5.7-4.8-.8-6.9-2.8-4-9.7-6.3-14.8-6.2-10.6.2-19.2 8.1-19.9 18.2-.6 7.8 2.9 14.8 9.9 19.6 9.7 6.7 24.5 8 35.2 3 10.5-4.9 20.8-16.8 18.5-35.3-2.2-17.7-20.3-31.9-41-32.3h-.9c-13.1 0-25.9 5.2-35.3 14.4-8.8 8.6-13.6 19.9-13.6 31.9 0 27.9 22.4 44.9 44.7 49.4 15.4 3.1 31.1-.2 39.9-4.8 11.7-6.1 38.2-24.4 32.6-63.4-3.6-24.9-25-41.8-42.2-48.7-25.6-10.2-52.6-2.9-67.9 6.5-18.1 11.1-30.4 29.8-33.5 51.3-2.5 17.3 2.2 31.6 4.4 37 12.1 30.2 42.5 49.9 77.6 50.1h.6c31.4 0 49.2-12.3 61.3-23.1 16.6-14.8 26.3-35.3 27.4-57.5 1.2-24.4-6-45-22.2-63.2-14.8-16.6-32-26.4-54.1-31-27.3-5.6-54.2 1.7-70.3 10.5-34.6 18.8-63.1 61.3-48.9 113.9 5.5 20.3 16.6 36.9 34 51 17.7 14.4 39.1 23.2 60.2 24.9 27.3 2.2 50.2-2.2 69.9-13.5 20.1-11.5 31.4-22.6 43.2-42.4 11.1-19.2 15.8-39.9 14.4-63.3-1.2-20.9-8.7-41.4-20.9-57.6-11.9-15.8-26-28.1-42-36.7C364.3 5.7 343 0 323.8 0c-1.4 0-2.7 0-4 .1-48.5 2.1-91.6 29.1-112.3 70.3-12.2 24.3-16.5 49.6-12.7 75.2 3.5 23.5 12.5 43.3 28.4 62.5 18.5 19.8 37.7 39 56.3 57.6l2.5 2.5c2.7 2.7 5.2 5.4 7.7 8.1 3.8 4.1 7.8 8.3 12 12.1 15.2 13.9 29.9 29 44 43.5 11.6 11.9 23.6 24.2 36 36 3.9 3.7 7.6 7.5 11.2 11.1 9.7 9.8 18.8 19 30.4 26.6 17 11.1 37.1 17.8 59.9 19.7 21.7 1.8 43-2.5 65.1-13.1 37.3-17.9 61.1-48.9 69-89.6 4.4-22 2.2-47.8-6-69zM386.5 393.2c-8-8-15.7-15.9-23.3-23.7-16.3-16.6-31.6-32.3-48.3-48.3-5.9-6-11.8-12-17.7-18.1-20.4-20.9-41.5-42.4-63.6-64.5-13.9-13.9-26.8-26.2-45.1-36.4-14.5-8.1-37.7-17.4-66-15.7-36.1 2.1-64.8 15.7-90.5 42.8-23.2 26.8-33 55-31.9 91.3.9 30.3 15.6 61.7 39.3 83.9 9.4 8.8 43.9 37.2 90.8 31.5 33.6-4.1 60.2-19.1 79.1-44.5 12.1-16.3 30.9-50.6 20.1-96.1-7.2-30.4-25.8-54.5-53.7-69.9-15.5-8.5-31.5-12.7-48.9-12.7-20.1 0-37.4 7.1-48.4 13.1-28.4 15.5-45.9 40.7-50.6 72.9-5.8 40.2 12.6 72.1 31.8 88.6 20 17.1 56.4 31.4 93.3 15.3 30.9-13.5 49-37.9 52.3-70.6 1.8-18-1.7-36-10-50.6-13-23-42.1-47.4-81-40.5-19.5 3.4-34.2 16.4-39.6 21.8-11.1 11.1-18 25.4-20 41.3-3.6 29.3 12.3 65.7 45.2 76.1 20.2 6.4 36.1 1.4 46-3.8 14.4-7.7 25.6-21.3 30-36.6 9.5-32.6-10.4-63.4-34.2-70.7-25.6-7.9-47.7 6.9-56.3 25.5-8.5 18.6-3.6 46.3 17.3 58 11.3 6.3 24.3 5.5 34.8-2.1 10.8-7.8 15.9-20.9 13.4-34-2.9-11.6-10.8-23.9-24.3-23.1-9.9.5-15.5 8.3-17.4 14.8-1.6 5.6-.1 14.8 4.4 18.9 2.2 2 4.8 2.5 7.8 1.3 4.1-1.6 3.6-4.8 2.2-9.9-1.1-4.1-2.3-8.7 2.6-10.3 1.8-.6 3.8-.2 5.7 1.1 3.7 2.7 6.3 8.6 6.3 14.1-.1 8.6-6.7 18.5-16.5 19.6-6.8.8-12.1-1.8-15.4-4.1-12.2-8.3-15.4-29.1-6.8-43.6 4-6.7 11.3-11.9 20.1-14.1 9-2.3 18.4-1.1 25.7 3.3 13.5 8.1 24.4 27.7 19.2 49.6-4.1 17.3-18.3 31.2-36.1 35.3-27.2 6.2-44-12.3-50-20.5-9.2-12.7-16-34.2-7.6-56.5 6.5-17.2 21-30.8 38.9-36.5 18.1-5.8 37.3-2.8 54.1 8.5 19.4 16.2 29 34.9 29.3 57.3.4 23.6-8.9 43.4-27.5 59-19.1 17.1-51.4 21.2-76.8 9.8-22.3-10-39.5-30.4-46.1-54.5-8.6-31.3 3.7-61.3 16.8-77.6 17.1-21.1 42-32.9 68.3-32.4 28.4.6 51.5 11.3 68.7 31.9 18.7 22.5 26.6 48.1 23.5 76.1-2.9 25.7-15.9 50.2-35 65.5-23.2 18.7-47.5 26.1-76.5 23.4-25.8-2.4-48.1-13.8-66.4-34.1-17.7-19.6-28.1-44.9-29.2-71.2-1.2-27.7 7.1-52.3 25.2-75.2 15.7-19.9 35.6-32.7 61-39.4 27.3-7.1 57.5-3.6 82.7 9.7 21.7 11.5 39.8 30.5 54.2 45.9 18 19 36.4 37.4 54.3 55.2 14.8 14.7 30.1 29.9 45 45.4 10 9 19.4 18.7 29.3 29.1 2.1 2.2 4.2 4.3 6.3 6.5 1.8 1.8 3.5 3.6 5.3 5.4 10.3 10.5 20.1 20.4 26.9 33.9 9.1 18.1 13.3 38 12.4 59.2-2.1 49-34.1 77.6-53.1 90.2-15.4 10.3-33.4 16.4-53.5 18.1-40 3.4-72-9.9-100.8-42v-.1c-11.3-15.3-17.4-28.5-20.3-44.2-3.5-18.7-1.7-39.7 4.9-56.2 11.9-29.9 36.9-52 68.6-60.6 41.4-11.3 77.9 4.5 98.2 23 21.4 19.5 38 57.4 23.9 94.8-12.1 32.1-37.4 52.7-71.3 58-22.4 3.5-41.8-2.9-54-8.9-27.3-13.3-51.5-44.2-43.9-83 6.5-33.5 34-58.1 68.3-61.2 18.6-1.7 36.4 3.1 51.5 13.8 16.3 11.6 26.5 29.7 27.1 48.5.9 27.3-12.8 43.1-24.5 51.6-13.1 9.5-36.4 17.7-59.1 9.8-14.4-5.1-32.6-18.5-36.5-39.7-1.7-9.1.2-22.1 3.1-28.6 7.5-16.7 23.1-27.2 41.9-28.1 21.5-1 38 8.3 45.1 25.5 4.2 10.2 3.4 21.4-2.3 30.6-5.9 9.6-16.1 15.8-27.3 16.5-10.1.7-19.9-2.6-26.3-8.8-4.9-4.7-7.5-10.7-7.4-17 .2-8.8 7-17.3 15.5-19.2 7.3-1.6 16.3.7 20.1 5.1 2 2.3 2.5 5 1.4 7.7-2 5.2-6.6 3.7-10.7 2.3-4.9-1.6-8.1-2.4-10 1.7-.9 3.2-.4 6 1.5 8.3 3.3 3.9 10.1 5.6 14.9 5.2 8.2-.8 17.6-8.1 18.2-18.7.5-8-3.1-15-10.2-19.7-9.6-6.5-23.8-7.5-34.5-2.4-6 2.9-13.9 10.1-16.8 17.2-8.6 21.5 6.1 37.9 15.1 43.5 23.6 14.8 52.9 4.8 65.4-13.9 10.5-15.7 10.3-39.3-.4-53.7-7.2-9.6-23.8-25.3-54.7-23-23.4 1.8-39.8 17.1-47.3 30.8-8.8 16.1-10.2 33.1-3.9 49.4 7 18.1 23.2 33.9 41.3 40.1 18.3 6.3 42.4 4.9 58.8-3.5 27.3-14 41.4-35.7 41.8-64.4.6-36.8-21-57-39.2-67.5-12.8-7.4-33.2-15.3-58-11.3-37.6 6.1-65.8 32.4-73.7 68.9-4.1 18.9-.8 41.5 8.7 58.8 18.2 33.3 52.2 52.3 90.7 50.6 38.6-1.6 67.9-20.1 87.3-55 6.8-12.3 14.3-32.5 11.3-58.9-2.5-21.9-12.2-37.6-21.4-50.2-26.1-28-54.6-41.5-88.9-41.5-3.6 0-7.3.2-11.1.5-36.9 3-68.4 22-88.7 53.7-10.6 16.6-16.5 35.3-17 54.1-.6 21 3.8 41.2 12.7 58.5 15.4 30.1 45.6 53.3 80.8 62 45.7 11.4 87.5-4.5 111.4-23.2 29.5-23.1 47.5-57 49.4-93.1 1.1-21.3-2.5-41-10.9-60.3-6.9-15.8-16.7-27.4-30.1-41z" class="st0"></path></svg>