<svg id="Layer_1" data-name="Layer 1" xmlns="http://www.w3.org/2000/svg" viewBox="0 0 564.9 555.16">   <path d="M506.3,284.29c11.69-30.04,15.74-60.7,9.96-92.79-9.55-52.97-37.31-93.72-84.21-120.25-89.24-50.49-195-14.12-225.05,81.46-19.79,62.95,8.88,127.98,68.84,153.4,52.92,22.44,108.67,3.41,133.11-45.45,17.11-34.19,11.91-70.48-13.45-93.99-22.03-20.42-53.1-24.34-75.3-8.94-12.31,8.54-19.51,20.31-18.32,35.94,1.32,17.35,17.69,25.3,32.03,15.66,1.53-1.03,2.95-2.21,4.48-3.22,6.57-4.35,13.61-6.19,20.77-2,7.29,4.26,10.17,11.26,9.7,19.51-.86,14.98-10.69,23.93-22.58,30.27-31.94,17.02-74.1-.71-87.5-36.22-13.35-35.38,5.75-82.92,41.23-102.62,58.18-32.3,138.22,2.26,159.25,67.13,17.99,55.48-6.75,131.52-73.26,165.21-61.13,30.96-134.28,11.56-177.99-29.26-39.67-37.05-58.19-83.12-54.22-138.02,3.17-43.96,20-82.23,48-115.22,24.8-29.22,57.08-48.01,94.25-57.94,3.3-.88,6.64-1.67,9.98-2.41,7.46-1.66,14.97-3.27,22.51-4.54H.49c-.13,115.87-.22,275.39-.49,390.61,54.64,.14,140.21,.54,187.28,.56l.08,53.74c0,27.72,19.81,52.1,45.41,61.01,32.38,11.28,68.18-7.05,96.24-21.82,83.27-43.84,143.18-112.15,177.29-199.81Z"></path>   <path d="M279.82,555.16h284.99V252.29c-39.17,151.19-134.57,253.82-284.99,302.87Z"></path>   <path d="M139.38,440.64H.77v114.19H236.38c-73.62-13.9-97-66.2-97-114.19Z"></path>   <path d="M564.8,0h-189.07c107.8,21.91,169.21,85.96,189.07,193.8,.23-51.84,0-193.8,0-193.8Z"></path> </svg>