<svg xmlns="http://www.w3.org/2000/svg" width="591.7" viewBox="0 0 591.7 609.9" height="609.9" xml:space="preserve" style="enable-background:new 0 0 591.7 609.9"><path d="M168.1 124.5c-6.6 0-12 5.4-12 12s5.4 12 12 12 12-5.4 12-12-5.3-12-12-12zM222.7 136.5c0-6.6-5.4-12-12-12s-12 5.4-12 12 5.4 12 12 12c6.6.1 12-5.3 12-12zM265.3 136.5c0-6.6-5.4-12-12-12s-12 5.4-12 12 5.4 12 12 12c6.6.1 12-5.3 12-12zM307.9 136.5c0-6.6-5.4-12-12-12s-12 5.4-12 12 5.4 12 12 12c6.6.1 12-5.3 12-12zM350.4 136.5c0-6.6-5.4-12-12-12s-12 5.4-12 12 5.4 12 12 12c6.6.1 12-5.3 12-12zM393.1 136.1c0-6.6-5.4-12-12-12s-12 5.4-12 12 5.4 12 12 12 12-5.3 12-12zM435.7 136.1c0-6.6-5.4-12-12-12s-12 5.4-12 12 5.4 12 12 12c6.6.1 12-5.3 12-12zM168.1 13c2.4 0 4.3-1.9 4.3-4.3s-1.9-4.3-4.3-4.3-4.3 1.9-4.3 4.3 1.9 4.3 4.3 4.3zM210.7 13c2.4 0 4.3-1.9 4.3-4.3s-1.9-4.3-4.3-4.3-4.3 1.9-4.3 4.3 1.9 4.3 4.3 4.3zM253.3 13c2.4 0 4.3-1.9 4.3-4.3s-1.9-4.3-4.3-4.3-4.3 1.9-4.3 4.3 1.9 4.3 4.3 4.3zM295.9 13c2.4 0 4.3-1.9 4.3-4.3s-1.9-4.3-4.3-4.3-4.3 1.9-4.3 4.3 1.9 4.3 4.3 4.3zM338.5 13c2.4 0 4.3-1.9 4.3-4.3s-1.9-4.3-4.3-4.3-4.3 1.9-4.3 4.3 1.9 4.3 4.3 4.3zM381 13c2.4 0 4.3-1.9 4.3-4.3s-1.9-4.3-4.3-4.3-4.3 1.9-4.3 4.3 2 4.3 4.3 4.3zM423.6 13c2.4 0 4.3-1.9 4.3-4.3s-1.9-4.3-4.3-4.3-4.3 1.9-4.3 4.3 1.9 4.3 4.3 4.3zM189.4 35.3c2.9 0 5.3-2.4 5.3-5.3s-2.4-5.3-5.3-5.3-5.3 2.4-5.3 5.3 2.4 5.3 5.3 5.3zM232 35.3c2.9 0 5.3-2.4 5.3-5.3s-2.4-5.3-5.3-5.3-5.3 2.4-5.3 5.3 2.4 5.3 5.3 5.3zM274.6 35.3c2.9 0 5.3-2.4 5.3-5.3s-2.4-5.3-5.3-5.3-5.3 2.4-5.3 5.3 2.4 5.3 5.3 5.3zM317.2 35.3c2.9 0 5.3-2.4 5.3-5.3s-2.4-5.3-5.3-5.3-5.3 2.4-5.3 5.3 2.3 5.3 5.3 5.3zM359.7 35.3c2.9 0 5.3-2.4 5.3-5.3s-2.4-5.3-5.3-5.3-5.3 2.4-5.3 5.3c.1 2.9 2.4 5.3 5.3 5.3zM402.3 35.3c2.9 0 5.3-2.4 5.3-5.3s-2.4-5.3-5.3-5.3-5.3 2.4-5.3 5.3 2.4 5.3 5.3 5.3zM189.4 80.7c4.5 0 8.2-3.7 8.2-8.2 0-4.5-3.7-8.2-8.2-8.2s-8.2 3.7-8.2 8.2c0 4.5 3.7 8.2 8.2 8.2zM232 80.7c4.5 0 8.2-3.7 8.2-8.2 0-4.5-3.7-8.2-8.2-8.2-4.5 0-8.2 3.7-8.2 8.2 0 4.5 3.7 8.2 8.2 8.2zM274.6 80.7c4.5 0 8.2-3.7 8.2-8.2 0-4.5-3.7-8.2-8.2-8.2-4.5 0-8.2 3.7-8.2 8.2 0 4.5 3.6 8.2 8.2 8.2zM317.2 80.7c4.5 0 8.2-3.7 8.2-8.2 0-4.5-3.7-8.2-8.2-8.2-4.5 0-8.2 3.7-8.2 8.2-.1 4.5 3.6 8.2 8.2 8.2zM359.7 80.7c4.5 0 8.2-3.7 8.2-8.2 0-4.5-3.7-8.2-8.2-8.2-4.5 0-8.2 3.7-8.2 8.2 0 4.5 3.7 8.2 8.2 8.2zM402.3 80.7c4.5 0 8.2-3.7 8.2-8.2 0-4.5-3.7-8.2-8.2-8.2-4.5 0-8.2 3.7-8.2 8.2 0 4.5 3.7 8.2 8.2 8.2zM168.1 103.1c5.2 0 9.4-4.2 9.4-9.4s-4.2-9.4-9.4-9.4-9.4 4.2-9.4 9.4 4.2 9.4 9.4 9.4zM168.1 57.9a6.7 6.7 0 1 0 0-13.4 6.7 6.7 0 0 0 0 13.4zM210.7 57.9a6.7 6.7 0 1 0 0-13.4 6.7 6.7 0 0 0 0 13.4zM253.3 57.9a6.7 6.7 0 1 0-6.7-6.7c-.1 3.7 3 6.7 6.7 6.7zM295.9 57.9a6.7 6.7 0 1 0-6.7-6.7c-.1 3.7 2.9 6.7 6.7 6.7zM338.5 57.9a6.7 6.7 0 1 0-6.7-6.7c-.1 3.7 2.9 6.7 6.7 6.7zM381 57.9a6.7 6.7 0 1 0 0-13.4 6.7 6.7 0 0 0 0 13.4zM423.6 57.9a6.7 6.7 0 1 0 0-13.4 6.7 6.7 0 0 0 0 13.4zM210.7 103.1c5.2 0 9.4-4.2 9.4-9.4s-4.2-9.4-9.4-9.4-9.4 4.2-9.4 9.4 4.2 9.4 9.4 9.4zM253.3 103.1c5.2 0 9.4-4.2 9.4-9.4s-4.2-9.4-9.4-9.4-9.4 4.2-9.4 9.4 4.2 9.4 9.4 9.4zM295.9 103.1c5.2 0 9.4-4.2 9.4-9.4s-4.2-9.4-9.4-9.4-9.4 4.2-9.4 9.4 4.2 9.4 9.4 9.4zM338.5 103.1c5.2 0 9.4-4.2 9.4-9.4s-4.2-9.4-9.4-9.4-9.4 4.2-9.4 9.4 4.2 9.4 9.4 9.4zM381 103.1c5.2 0 9.4-4.2 9.4-9.4s-4.2-9.4-9.4-9.4-9.4 4.2-9.4 9.4 4.2 9.4 9.4 9.4zM423.6 103.1c5.2 0 9.4-4.2 9.4-9.4s-4.2-9.4-9.4-9.4-9.4 4.2-9.4 9.4 4.2 9.4 9.4 9.4zM189.4 125.8c6 0 10.9-4.9 10.9-10.9s-4.9-10.9-10.9-10.9-10.9 4.9-10.9 10.9 4.9 10.9 10.9 10.9zM232 125.8c6 0 10.9-4.9 10.9-10.9S238 104 232 104s-10.9 4.9-10.9 10.9 4.9 10.9 10.9 10.9zM274.6 125.8c6 0 10.9-4.9 10.9-10.9s-4.9-10.9-10.9-10.9-10.9 4.9-10.9 10.9 4.9 10.9 10.9 10.9z"></path><circle cx="317.2" cy="114.9" r="10.9"></circle><circle cx="359.7" cy="114.9" r="10.9"></circle><path d="M402.3 125.8c6 0 10.9-4.9 10.9-10.9s-4.9-10.9-10.9-10.9-10.9 4.9-10.9 10.9 4.9 10.9 10.9 10.9z"></path><circle cx="189.4" cy="157.4" r="13.6"></circle><path d="M232 170.9c7.5 0 13.6-6.1 13.6-13.6s-6.1-13.6-13.6-13.6-13.6 6.1-13.6 13.6c0 7.6 6.1 13.6 13.6 13.6z"></path><circle cx="274.6" cy="157.4" r="13.6"></circle><path d="M316.8 171.1c7.5 0 13.6-6.1 13.6-13.6s-6.1-13.6-13.6-13.6-13.6 6.1-13.6 13.6c.1 7.5 6.1 13.6 13.6 13.6z"></path><circle cx="359.7" cy="157.4" r="13.6"></circle><path d="M402.3 171.5c7.5 0 13.6-6.1 13.6-13.6s-6.1-13.6-13.6-13.6-13.6 6.1-13.6 13.6 6.1 13.6 13.6 13.6zM423.6 485.4c6.6 0 12-5.4 12-12s-5.4-12-12-12-12 5.4-12 12 5.4 12 12 12zM369 473.4c0 6.6 5.4 12 12 12s12-5.4 12-12-5.4-12-12-12c-6.6-.1-12 5.3-12 12zM326.4 473.4c0 6.6 5.4 12 12 12s12-5.4 12-12-5.4-12-12-12c-6.6-.1-12 5.3-12 12zM283.8 473.4c0 6.6 5.4 12 12 12s12-5.4 12-12-5.4-12-12-12c-6.6-.1-12 5.3-12 12zM241.3 473.4c0 6.6 5.4 12 12 12s12-5.4 12-12-5.4-12-12-12-12 5.3-12 12zM198.7 473.8c0 6.6 5.4 12 12 12s12-5.4 12-12-5.4-12-12-12-12 5.3-12 12zM156.1 473.8c0 6.6 5.4 12 12 12s12-5.4 12-12-5.4-12-12-12c-6.6-.1-12 5.3-12 12zM423.6 596.9c-2.4 0-4.3 1.9-4.3 4.3s1.9 4.3 4.3 4.3 4.3-1.9 4.3-4.3-1.9-4.3-4.3-4.3zM381 596.9c-2.4 0-4.3 1.9-4.3 4.3s1.9 4.3 4.3 4.3 4.3-1.9 4.3-4.3-1.9-4.3-4.3-4.3zM338.5 596.9c-2.4 0-4.3 1.9-4.3 4.3s1.9 4.3 4.3 4.3 4.3-1.9 4.3-4.3-2-4.3-4.3-4.3zM295.9 596.9c-2.4 0-4.3 1.9-4.3 4.3s1.9 4.3 4.3 4.3 4.3-1.9 4.3-4.3-2-4.3-4.3-4.3zM253.3 596.9c-2.4 0-4.3 1.9-4.3 4.3s1.9 4.3 4.3 4.3 4.3-1.9 4.3-4.3-1.9-4.3-4.3-4.3zM210.7 596.9c-2.4 0-4.3 1.9-4.3 4.3s1.9 4.3 4.3 4.3 4.3-1.9 4.3-4.3-1.9-4.3-4.3-4.3zM168.1 596.9c-2.4 0-4.3 1.9-4.3 4.3s1.9 4.3 4.3 4.3 4.3-1.9 4.3-4.3-1.9-4.3-4.3-4.3zM402.3 574.7c-2.9 0-5.3 2.4-5.3 5.3s2.4 5.3 5.3 5.3 5.3-2.4 5.3-5.3c0-3-2.3-5.3-5.3-5.3zM359.7 574.7c-2.9 0-5.3 2.4-5.3 5.3s2.4 5.3 5.3 5.3 5.3-2.4 5.3-5.3c0-3-2.3-5.3-5.3-5.3zM317.2 574.7c-2.9 0-5.3 2.4-5.3 5.3s2.4 5.3 5.3 5.3 5.3-2.4 5.3-5.3c0-3-2.4-5.3-5.3-5.3zM274.6 574.7c-2.9 0-5.3 2.4-5.3 5.3s2.4 5.3 5.3 5.3 5.3-2.4 5.3-5.3c0-3-2.4-5.3-5.3-5.3zM232 574.7c-2.9 0-5.3 2.4-5.3 5.3s2.4 5.3 5.3 5.3 5.3-2.4 5.3-5.3c0-3-2.4-5.3-5.3-5.3zM189.4 574.7c-2.9 0-5.3 2.4-5.3 5.3s2.4 5.3 5.3 5.3 5.3-2.4 5.3-5.3c0-3-2.4-5.3-5.3-5.3zM402.3 529.3c-4.5 0-8.2 3.7-8.2 8.2 0 4.5 3.7 8.2 8.2 8.2 4.5 0 8.2-3.7 8.2-8.2 0-4.6-3.6-8.2-8.2-8.2zM359.7 529.3c-4.5 0-8.2 3.7-8.2 8.2 0 4.5 3.7 8.2 8.2 8.2 4.5 0 8.2-3.7 8.2-8.2.1-4.6-3.6-8.2-8.2-8.2zM317.2 529.3c-4.5 0-8.2 3.7-8.2 8.2 0 4.5 3.7 8.2 8.2 8.2 4.5 0 8.2-3.7 8.2-8.2 0-4.6-3.7-8.2-8.2-8.2zM274.6 529.3c-4.5 0-8.2 3.7-8.2 8.2 0 4.5 3.7 8.2 8.2 8.2 4.5 0 8.2-3.7 8.2-8.2 0-4.6-3.7-8.2-8.2-8.2zM232 529.3c-4.5 0-8.2 3.7-8.2 8.2 0 4.5 3.7 8.2 8.2 8.2s8.2-3.7 8.2-8.2c0-4.6-3.6-8.2-8.2-8.2zM189.4 529.3c-4.5 0-8.2 3.7-8.2 8.2 0 4.5 3.7 8.2 8.2 8.2 4.5 0 8.2-3.7 8.2-8.2 0-4.6-3.7-8.2-8.2-8.2zM423.6 506.8c-5.2 0-9.4 4.2-9.4 9.4s4.2 9.4 9.4 9.4 9.4-4.2 9.4-9.4-4.2-9.4-9.4-9.4zM423.6 552a6.7 6.7 0 1 0 6.7 6.7c.1-3.7-3-6.7-6.7-6.7zM381 552a6.7 6.7 0 1 0 6.7 6.7c.1-3.7-2.9-6.7-6.7-6.7zM338.5 552a6.7 6.7 0 1 0 0 13.4 6.7 6.7 0 0 0 0-13.4zM295.9 552a6.7 6.7 0 1 0 0 13.4 6.7 6.7 0 0 0 0-13.4zM253.3 552a6.7 6.7 0 1 0 0 13.4 6.7 6.7 0 0 0 0-13.4zM210.7 552a6.7 6.7 0 1 0 0 13.4 6.7 6.7 0 0 0 0-13.4zM168.1 552a6.7 6.7 0 1 0 6.7 6.7c.1-3.7-3-6.7-6.7-6.7zM381 506.8c-5.2 0-9.4 4.2-9.4 9.4s4.2 9.4 9.4 9.4 9.4-4.2 9.4-9.4c.1-5.2-4.2-9.4-9.4-9.4zM338.5 506.8c-5.2 0-9.4 4.2-9.4 9.4s4.2 9.4 9.4 9.4 9.4-4.2 9.4-9.4-4.2-9.4-9.4-9.4zM295.9 506.8c-5.2 0-9.4 4.2-9.4 9.4s4.2 9.4 9.4 9.4 9.4-4.2 9.4-9.4-4.2-9.4-9.4-9.4zM253.3 506.8c-5.2 0-9.4 4.2-9.4 9.4s4.2 9.4 9.4 9.4 9.4-4.2 9.4-9.4-4.2-9.4-9.4-9.4zM210.7 506.8c-5.2 0-9.4 4.2-9.4 9.4s4.2 9.4 9.4 9.4 9.4-4.2 9.4-9.4-4.2-9.4-9.4-9.4zM168.1 506.8c-5.2 0-9.4 4.2-9.4 9.4s4.2 9.4 9.4 9.4 9.4-4.2 9.4-9.4-4.2-9.4-9.4-9.4zM402.3 484.1c-6 0-10.9 4.9-10.9 10.9s4.9 10.9 10.9 10.9 10.9-4.9 10.9-10.9-4.9-10.9-10.9-10.9zM359.7 484.1c-6 0-10.9 4.9-10.9 10.9s4.9 10.9 10.9 10.9 10.9-4.9 10.9-10.9-4.8-10.9-10.9-10.9zM317.2 484.1c-6 0-10.9 4.9-10.9 10.9s4.9 10.9 10.9 10.9 10.9-4.9 10.9-10.9c-.1-6-4.9-10.9-10.9-10.9z"></path><circle cx="274.6" cy="495" r="10.9"></circle><circle cx="232" cy="495" r="10.9"></circle><path d="M189.5 484.1c-6 0-10.9 4.9-10.9 10.9s4.9 10.9 10.9 10.9 10.9-4.9 10.9-10.9-4.9-10.9-10.9-10.9z"></path><circle cx="402.3" cy="452.5" r="13.6"></circle><path d="M359.7 439c-7.5 0-13.6 6.1-13.6 13.6s6.1 13.6 13.6 13.6 13.6-6.1 13.6-13.6c0-7.6-6.1-13.6-13.6-13.6z"></path><circle cx="317.2" cy="452.5" r="13.6"></circle><path d="M274.9 438.9c-7.5 0-13.6 6.1-13.6 13.6s6.1 13.6 13.6 13.6 13.6-6.1 13.6-13.6c0-7.6-6.1-13.6-13.6-13.6z"></path><circle cx="232" cy="452.5" r="13.6"></circle><path d="M189.5 438.4c-7.5 0-13.6 6.1-13.6 13.6s6.1 13.6 13.6 13.6 13.6-6.1 13.6-13.6c-.1-7.5-6.1-13.6-13.6-13.6z"></path><path d="M449.2 0v27c-1-1.4-2.5-2.4-4.3-2.4-2.9 0-5.3 2.4-5.3 5.3s2.4 5.3 5.3 5.3c1.8 0 3.3-1 4.3-2.4v32.7c-1.3-.8-2.7-1.4-4.3-1.4-4.5 0-8.2 3.7-8.2 8.2 0 4.5 3.7 8.2 8.2 8.2 1.6 0 3-.6 4.3-1.4v25.7c-1.3-.6-2.8-.9-4.3-.9-6 0-10.9 4.9-10.9 10.9s4.9 10.9 10.9 10.9c1.5 0 3-.3 4.3-.9V145c-1.4-.5-2.8-.8-4.3-.8-7.5 0-13.6 6.1-13.6 13.6s6.1 13.6 13.6 13.6c1.5 0 2.9-.3 4.3-.8v14.1c-1.4-.4-2.8-.7-4.3-.7-3.3 0-6.4 1-8.9 2.8 1.6-2.4 2.5-5.2 2.5-8.3 0-8.2-6.7-14.9-14.9-14.9s-14.9 6.7-14.9 14.9c0 3.1.9 5.9 2.5 8.3-2.5-1.8-5.6-2.8-8.9-2.8-3.3 0-6.4 1-8.9 2.8 1.6-2.4 2.5-5.2 2.5-8.3 0-8.2-6.7-14.9-14.9-14.9s-14.9 6.7-14.9 14.9c0 3.1.9 5.9 2.5 8.3-2.5-1.8-5.6-2.8-8.9-2.8-3.3 0-6.4 1-8.9 2.8 1.6-2.4 2.5-5.2 2.5-8.3 0-8.2-6.7-14.9-14.9-14.9s-14.9 6.7-14.9 14.9c0 3.1.9 5.9 2.5 8.3-2.5-1.8-5.6-2.8-8.9-2.8-3.3 0-6.4 1-8.9 2.8 1.6-2.4 2.5-5.2 2.5-8.3 0-8.2-6.7-14.9-14.9-14.9s-14.9 6.7-14.9 14.9c0 3.1.9 5.9 2.5 8.3-2.5-1.8-5.6-2.8-8.9-2.8-3.3 0-6.4 1-8.9 2.8 1.6-2.4 2.5-5.2 2.5-8.3 0-8.2-6.7-14.9-14.9-14.9s-14.9 6.7-14.9 14.9c0 3.1.9 5.9 2.5 8.3-2.5-1.8-5.6-2.8-8.9-2.8-3.3 0-6.4 1-8.9 2.8 1.6-2.4 2.5-5.2 2.5-8.3 0-8.2-6.7-14.9-14.9-14.9s-14.9 6.7-14.9 14.9c0 3.1.9 5.9 2.5 8.3-2.5-1.8-5.6-2.8-8.9-2.8-3.3 0-6.4 1-8.9 2.8 1.6-2.4 2.5-5.2 2.5-8.3 0-8.2-6.7-14.9-14.9-14.9s-14.9 6.7-14.9 14.9c0 3.1.9 5.9 2.5 8.3-2.5-1.8-5.6-2.8-8.9-2.8-1.5 0-2.9.3-4.3.7v-14.6c1.4.5 2.8.8 4.3.8 7.5 0 13.6-6.1 13.6-13.6s-6.1-13.6-13.6-13.6c-1.5 0-2.9.3-4.3.8v-19.7c1.3.6 2.8.9 4.3.9 6 0 10.9-4.9 10.9-10.9s-4.9-10.9-10.9-10.9c-1.5 0-3 .3-4.3.9V79.3c1.3.8 2.7 1.4 4.3 1.4 4.5 0 8.2-3.7 8.2-8.2 0-4.5-3.7-8.2-8.2-8.2-1.6 0-3 .6-4.3 1.4V32.9c1 1.4 2.5 2.4 4.3 2.4 2.9 0 5.3-2.4 5.3-5.3s-2.4-5.3-5.3-5.3c-1.8 0-3.3 1-4.3 2.4V0H0v609.9h142.5v-27c1 1.4 2.5 2.4 4.3 2.4 2.9 0 5.3-2.4 5.3-5.3s-2.4-5.3-5.3-5.3c-1.8 0-3.3 1-4.3 2.4v-32.7c1.3.8 2.7 1.4 4.3 1.4 4.5 0 8.2-3.7 8.2-8.2 0-4.5-3.7-8.2-8.2-8.2-1.6 0-3 .6-4.3 1.4V505c1.3.6 2.8.9 4.3.9 6 0 10.9-4.9 10.9-10.9s-4.9-10.9-10.9-10.9c-1.5 0-3 .3-4.3.9v-20.2c1.4.5 2.8.8 4.3.8 7.5 0 13.6-6.1 13.6-13.6s-6.1-13.6-13.6-13.6c-1.5 0-2.9.3-4.3.8v-14.1c1.4.4 2.8.7 4.3.7 3.3 0 6.4-1 8.9-2.8-1.6 2.4-2.5 5.2-2.5 8.3 0 8.2 6.7 14.9 14.9 14.9s14.9-6.7 14.9-14.9c0-3.1-.9-5.9-2.5-8.3 2.5 1.8 5.6 2.8 8.9 2.8 3.3 0 6.4-1 8.9-2.8-1.6 2.4-2.5 5.2-2.5 8.3 0 8.2 6.7 14.9 14.9 14.9s14.9-6.7 14.9-14.9c0-3.1-.9-5.9-2.5-8.3 2.5 1.8 5.6 2.8 8.9 2.8s6.4-1 8.9-2.8c-1.6 2.4-2.5 5.2-2.5 8.3 0 8.2 6.7 14.9 14.9 14.9s14.9-6.7 14.9-14.9c0-3.1-.9-5.9-2.5-8.3 2.5 1.8 5.6 2.8 8.9 2.8 3.3 0 6.4-1 8.9-2.8-1.6 2.4-2.5 5.2-2.5 8.3 0 8.2 6.7 14.9 14.9 14.9s14.9-6.7 14.9-14.9c0-3.1-.9-5.9-2.5-8.3 2.5 1.8 5.6 2.8 8.9 2.8 3.3 0 6.4-1 8.9-2.8-1.6 2.4-2.5 5.2-2.5 8.3 0 8.2 6.7 14.9 14.9 14.9s14.9-6.7 14.9-14.9c0-3.1-.9-5.9-2.5-8.3 2.5 1.8 5.6 2.8 8.9 2.8 3.3 0 6.4-1 8.9-2.8-1.6 2.4-2.5 5.2-2.5 8.3 0 8.2 6.7 14.9 14.9 14.9s14.9-6.7 14.9-14.9c0-3.1-.9-5.9-2.5-8.3 2.5 1.8 5.6 2.8 8.9 2.8 3.3 0 6.4-1 8.9-2.8-1.6 2.4-2.5 5.2-2.5 8.3 0 8.2 6.7 14.9 14.9 14.9s14.9-6.7 14.9-14.9c0-3.1-.9-5.9-2.5-8.3 2.5 1.8 5.6 2.8 8.9 2.8 1.5 0 2.9-.3 4.3-.7v14.6c-1.4-.5-2.8-.8-4.3-.8-7.5 0-13.6 6.1-13.6 13.6s6.1 13.6 13.6 13.6c1.5 0 2.9-.3 4.3-.8V485c-1.3-.6-2.8-.9-4.3-.9-6 0-10.9 4.9-10.9 10.9s4.9 10.9 10.9 10.9c1.5 0 3-.3 4.3-.9v25.6c-1.3-.8-2.7-1.4-4.3-1.4-4.5 0-8.2 3.7-8.2 8.2 0 4.5 3.7 8.2 8.2 8.2 1.6 0 3-.6 4.3-1.4V577c-1-1.4-2.5-2.4-4.3-2.4-2.9 0-5.3 2.4-5.3 5.3s2.4 5.3 5.3 5.3c1.8 0 3.3-1 4.3-2.4v27h142.5V0H449.2zm-4.3 215.6c1.5 0 2.9-.3 4.3-.7v6.9h-7.8c0-.2.1-.5.1-.7 0-2.2-.5-4.3-1.2-6.3 1.4.5 3 .8 4.6.8zm-21.3-22.1c3.1 0 5.9-.9 8.3-2.5-1.7 2.5-2.8 5.6-2.8 8.9 0 1.6.3 3.2.8 4.6-2-.8-4.1-1.2-6.3-1.2s-4.4.5-6.3 1.2c.5-1.5.8-3 .8-4.6 0-3.3-1-6.4-2.8-8.9 2.4 1.6 5.2 2.5 8.3 2.5zm-21.3 22.1c1.6 0 3.2-.3 4.7-.8-.7 2-1.2 4.1-1.2 6.3 0 .2.1.5.1.7h-7.1c0-.2.1-.5.1-.7 0-2.2-.5-4.3-1.2-6.3 1.4.5 3 .8 4.6.8zM381 193.5c3.1 0 5.9-.9 8.3-2.5-1.7 2.5-2.8 5.6-2.8 8.9 0 1.6.3 3.2.8 4.6-2-.8-4.1-1.2-6.3-1.2s-4.4.5-6.3 1.2c.5-1.5.8-3 .8-4.6 0-3.3-1-6.4-2.8-8.9 2.4 1.6 5.3 2.5 8.3 2.5zm-21.3 22.1c1.6 0 3.2-.3 4.7-.8-.7 2-1.2 4.1-1.2 6.3 0 .2.1.5.1.7h-7.1c0-.2.1-.5.1-.7 0-2.2-.5-4.3-1.2-6.3 1.5.5 3 .8 4.6.8zm-21.2-22.1c3.1 0 5.9-.9 8.3-2.5-1.7 2.5-2.8 5.6-2.8 8.9 0 1.6.3 3.2.8 4.6-2-.8-4.1-1.2-6.3-1.2s-4.4.5-6.3 1.2c.5-1.5.8-3 .8-4.6 0-3.3-1-6.4-2.8-8.9 2.3 1.6 5.2 2.5 8.3 2.5zm-21.3 22.1c1.6 0 3.2-.3 4.7-.8-.7 2-1.2 4.1-1.2 6.3 0 .2.1.5.1.7h-7.1c0-.2.1-.5.1-.7 0-2.2-.5-4.3-1.2-6.3 1.4.5 2.9.8 4.6.8zm-21.3-22.1c3.1 0 5.9-.9 8.3-2.5-1.7 2.5-2.8 5.6-2.8 8.9 0 1.6.3 3.2.8 4.6-2-.8-4.1-1.2-6.3-1.2s-4.4.5-6.3 1.2c.5-1.5.8-3 .8-4.6 0-3.3-1-6.4-2.8-8.9 2.3 1.6 5.2 2.5 8.3 2.5zm-21.3 22.1c1.6 0 3.2-.3 4.7-.8-.7 2-1.2 4.1-1.2 6.3 0 .2.1.5.1.7H271c0-.2.1-.5.1-.7 0-2.2-.5-4.3-1.2-6.3 1.5.5 3 .8 4.7.8zm-21.3-22.1c3.1 0 5.9-.9 8.3-2.5-1.7 2.5-2.8 5.6-2.8 8.9 0 1.6.3 3.2.8 4.6-2-.8-4.1-1.2-6.3-1.2s-4.4.5-6.3 1.2c.5-1.5.8-3 .8-4.6 0-3.3-1-6.4-2.8-8.9 2.4 1.6 5.2 2.5 8.3 2.5zM232 215.6c1.6 0 3.2-.3 4.7-.8-.7 2-1.2 4.1-1.2 6.3 0 .2.1.5.1.7h-7.1c0-.2.1-.5.1-.7 0-2.2-.5-4.3-1.2-6.3 1.4.5 3 .8 4.6.8zm-21.3-22.1c3.1 0 5.9-.9 8.3-2.5-1.7 2.5-2.7 5.6-2.7 8.9 0 1.6.3 3.2.8 4.6-2-.8-4.1-1.2-6.3-1.2s-4.4.5-6.3 1.2c.5-1.5.8-3 .8-4.6 0-3.3-1-6.4-2.8-8.9 2.3 1.6 5.1 2.5 8.2 2.5zm-21.3 22.1c1.6 0 3.2-.3 4.7-.8-.7 2-1.2 4.1-1.2 6.3 0 .2.1.5.1.7h-7.1c0-.2.1-.5.1-.7 0-2.2-.5-4.3-1.2-6.3 1.4.5 3 .8 4.6.8zm-21.3-22.1c3.1 0 5.9-.9 8.3-2.5-1.7 2.5-2.8 5.6-2.8 8.9 0 1.6.3 3.2.8 4.6-2-.8-4.1-1.2-6.3-1.2s-4.4.5-6.3 1.2c.5-1.5.8-3 .8-4.6 0-3.3-1-6.4-2.8-8.9 2.4 1.6 5.2 2.5 8.3 2.5zm-21.3 22.1c1.6 0 3.2-.3 4.7-.8-.7 2-1.2 4.1-1.2 6.3 0 .2.1.5.1.7h-7.8v-6.9c1.3.4 2.7.7 4.2.7zm0 178.7c-1.5 0-2.9.3-4.3.7v-6.9h7.8c0 .2-.1.5-.1.7 0 2.2.5 4.3 1.2 6.3-1.4-.5-2.9-.8-4.6-.8zm21.3 22.1c-3.1 0-5.9.9-8.3 2.5 1.7-2.5 2.8-5.6 2.8-8.9 0-1.6-.3-3.2-.8-4.6 2 .8 4.1 1.2 6.3 1.2s4.4-.5 6.3-1.2c-.5 1.5-.8 3-.8 4.6 0 3.3 1 6.4 2.8 8.9-2.3-1.6-5.2-2.5-8.3-2.5zm21.3-22.1c-1.6 0-3.2.3-4.7.8.7-2 1.2-4.1 1.2-6.3 0-.2-.1-.5-.1-.7h7.1c0 .2-.1.5-.1.7 0 2.2.5 4.3 1.2 6.3-1.4-.5-3-.8-4.6-.8zm21.3 22.1c-3.1 0-5.9.9-8.3 2.5 1.7-2.5 2.8-5.6 2.8-8.9 0-1.6-.3-3.2-.8-4.6 2 .8 4.1 1.2 6.3 1.2s4.4-.5 6.3-1.2c-.5 1.5-.8 3-.8 4.6 0 3.3 1 6.4 2.8 8.9-2.4-1.6-5.2-2.5-8.3-2.5zm21.3-22.1c-1.6 0-3.2.3-4.7.8.7-2 1.2-4.1 1.2-6.3 0-.2-.1-.5-.1-.7h7.1c0 .2-.1.5-.1.7 0 2.2.5 4.3 1.2 6.3-1.4-.5-3-.8-4.6-.8zm21.3 22.1c-3.1 0-5.9.9-8.3 2.5 1.7-2.5 2.8-5.6 2.8-8.9 0-1.6-.3-3.2-.8-4.6 2 .8 4.1 1.2 6.3 1.2s4.4-.5 6.3-1.2c-.5 1.5-.8 3-.8 4.6 0 3.3 1 6.4 2.8 8.9-2.4-1.6-5.2-2.5-8.3-2.5zm21.3-22.1c-1.6 0-3.2.3-4.7.8.7-2 1.2-4.1 1.2-6.3 0-.2-.1-.5-.1-.7h7.1c0 .2-.1.5-.1.7 0 2.2.5 4.3 1.2 6.3-1.4-.5-3-.8-4.6-.8zm21.3 22.1c-3.1 0-5.9.9-8.3 2.5 1.7-2.5 2.8-5.6 2.8-8.9 0-1.6-.3-3.2-.8-4.6 2 .8 4.1 1.2 6.3 1.2s4.4-.5 6.3-1.2c-.5 1.5-.8 3-.8 4.6 0 3.3 1 6.4 2.8 8.9-2.4-1.6-5.3-2.5-8.3-2.5zm21.3-22.1c-1.6 0-3.2.3-4.7.8.7-2 1.2-4.1 1.2-6.3 0-.2-.1-.5-.1-.7h7.1c0 .2-.1.5-.1.7 0 2.2.5 4.3 1.2 6.3-1.5-.5-3-.8-4.6-.8zm21.3 22.1c-3.1 0-5.9.9-8.3 2.5 1.7-2.5 2.8-5.6 2.8-8.9 0-1.6-.3-3.2-.8-4.6 2 .8 4.1 1.2 6.3 1.2s4.4-.5 6.3-1.2c-.5 1.5-.8 3-.8 4.6 0 3.3 1 6.4 2.8 8.9-2.4-1.6-5.3-2.5-8.3-2.5zm21.2-22.1c-1.6 0-3.2.3-4.7.8.7-2 1.2-4.1 1.2-6.3 0-.2-.1-.5-.1-.7h7.1c0 .2-.1.5-.1.7 0 2.2.5 4.3 1.2 6.3-1.4-.5-2.9-.8-4.6-.8zm21.3 22.1c-3.1 0-5.9.9-8.3 2.5 1.7-2.5 2.7-5.6 2.7-8.9 0-1.6-.3-3.2-.8-4.6 2 .8 4.1 1.2 6.3 1.2s4.4-.5 6.3-1.2c-.5 1.5-.8 3-.8 4.6 0 3.3 1 6.4 2.8 8.9-2.2-1.6-5.1-2.5-8.2-2.5zm21.3-22.1c-1.6 0-3.2.3-4.7.8.7-2 1.2-4.1 1.2-6.3 0-.2-.1-.5-.1-.7h7.1c0 .2-.1.5-.1.7 0 2.2.5 4.3 1.2 6.3-1.4-.5-2.9-.8-4.6-.8zm21.3 22.1c-3.1 0-5.9.9-8.3 2.5 1.7-2.5 2.8-5.6 2.8-8.9 0-1.6-.3-3.2-.8-4.6 2 .8 4.1 1.2 6.3 1.2s4.4-.5 6.3-1.2c-.5 1.5-.8 3-.8 4.6 0 3.3 1 6.4 2.8 8.9-2.3-1.6-5.2-2.5-8.3-2.5zm21.3-22.1c-1.6 0-3.2.3-4.7.8.7-2 1.2-4.1 1.2-6.3 0-.2-.1-.5-.1-.7h7.8v6.9c-1.3-.4-2.7-.7-4.2-.7z"></path></svg>