<svg xmlns="http://www.w3.org/2000/svg" width="642" viewBox="0 0 642 642" height="642" data-name="Layer 1"><path d="M642 187.78H454.22V0L321 128.4 187.78 0v187.78H0L128.4 321 0 454.22h187.78V642L321 513.6 454.22 642V454.22H642L513.6 321 642 187.78ZM219.89 75.5 321 172.96 422.11 75.5v236.66l-85.06 82.03v-206.4H219.88V75.5Zm-32.11 346.61H75.49L172.95 321 75.49 219.89H288.5l-100.72 97.08v105.15ZM422.11 566.5 321 469.04 219.89 566.5V330.63l85.07-81.98v205.57h117.16v112.29Zm144.37-144.39H354.31l99.91-96.3V219.88h112.26l-97.43 101.11 97.43 101.11Z" style="stroke-width:0"></path></svg>