<svg xmlns="http://www.w3.org/2000/svg" width="497.5" viewBox="0 0 497.5 611.9" height="611.9" xml:space="preserve"><path d="M326.1 279.1c-1.2-.2-1.3-1.8-.1-2.1 68.6-18.9 118.2-72.8 118.2-136.3C444.1 67.8 371.4 0 250.7 0H0v19h77.4c3.8 0 6.8 3.1 6.8 6.8v560.3c0 3.8-3.1 6.8-6.8 6.8H0v19l289.4-.5c114.9 0 208.1-69.8 208.1-163.3 0-83.1-74-155.5-171.4-169zM248.6 592c-78.3-.3-143.3-63.5-145.7-141.8-1.9-64.2 37.5-119.4 93.7-141V26.5c0-2.3 1.9-4.2 4.2-4.2H294c2.3 0 4.2 1.9 4.2 4.2v281.4c56.6 20.2 97.2 74.2 97.2 137.8 0 81-65.8 146.6-146.8 146.3z"></path></svg>