<svg id="Layer_1" data-name="Layer 1" xmlns="http://www.w3.org/2000/svg" viewBox="0 0 618.49 591.44">   <path d="M438.96,390.82l88.46-153.1c-12.27-14.37-21.55-30.98-27.5-48.95l-177.25-.17,159.04,42.8-.46,1.69-42.29,157.73Z"></path>   <path d="M498.9,185.25c-2.27-7.49-4.11-15.15-5.2-23.03-.08-.61-.17-1.21-.26-1.82-1-6.74-2.47-13.33-4.18-19.81l-166.59,44.5,176.23,.17Z"></path>   <path d="M529.92,240.4l-87.91,152.15,121.35-121.23c-4.98-4.96-10.19-9.68-15.7-14.05-6.46-5.14-12.32-10.84-17.74-16.87Z"></path>   <path d="M594.71,312.59l-147.61,85.27,164.66-43.98c-4.03-14.56-9.82-28.38-17.05-41.28Z"></path>   <path d="M321.77,181.69l166.5-44.47c-4.15-14.64-9.94-28.58-17.33-41.52l-149.17,85.99Z"></path>   <path d="M323.98,164.99l.27,.16-5.86,10.14,120.82-120.71c-10.7-10.56-22.54-19.94-35.42-27.72l-79.81,138.13Z"></path>   <polygon points="432.06 259.71 319.65 194.68 402.17 277.43 402.28 277.89 432.06 389.79 432.06 259.71"></polygon>   <path d="M297.74,163.14l6.2,10.77L259.66,7.14c-14.58,4.21-28.43,10.29-41.44,17.78l79.51,138.22Z"></path>   <path d="M311.1,174.1L355.95,6.44C341.52,2.51,326.5,.27,311.1,.01V174.1Z"></path>   <polygon points="317.51 197.51 428.7 390.8 399.01 279.25 317.51 197.51"></polygon>   <path d="M443.86,395.67l149.12-86.14c-7.61-12.99-16.73-24.98-27.14-35.73l-121.99,121.87Z"></path>   <path d="M169.76,424.9l5.99-10.37-121.29,121.24c10.63,10.7,22.52,20.1,35.42,28.02l80.16-138.73-.27-.16Z"></path>   <path d="M309.01,530.39l-1.25-1.24-114.91-115.25,88.75,154.3c9.01-2.73,18.29-4.33,27.64-4.62,9.22,.29,18.39,1.86,27.28,4.51l89.1-154.21-116.62,116.51Z"></path>   <polygon points="477.4 233.88 322.23 192.12 435.58 257.68 435.58 389.88 477.4 233.88"></polygon>   <path d="M447.31,404.74l165.59,44.76c1.68-6.74,3.12-13.56,4.02-20.56,1.05-8.06,1.52-16.02,1.57-23.88l-171.18-.33Z"></path>   <polygon points="309.01 525.43 422.44 412.1 309.34 477.43 308.46 476.93 195.32 411.41 309.01 525.43"></polygon>   <path d="M441.4,412.89l86.91,151.09c12.94-7.91,24.87-17.31,35.54-28.02l-122.45-123.08Z"></path>   <path d="M298.37,178.31L177.08,56.68c-10.49,10.69-19.66,22.68-27.41,35.61l148.7,86.02Z"></path>   <polygon points="422.32 408.11 308.78 438.44 197.09 408.38 309.34 473.37 422.32 408.11"></polygon>   <path d="M469.09,92.71c-7.72-12.96-16.85-24.98-27.32-35.7l-121.75,121.63,149.07-85.93Z"></path>   <path d="M0,404.89c.03,7.92,.52,15.93,1.57,24.06,.9,6.93,2.32,13.69,3.97,20.36l165.46-44.09-171-.33Z"></path>   <path d="M307.58,0c-15.29,.25-30.19,2.46-44.52,6.32l44.52,167.69V0Z"></path>   <path d="M314.77,173.91L400.71,25.16c-12.97-7.52-26.81-13.63-41.37-17.88l-44.57,166.62Z"></path>   <path d="M432.06,591.42v-174.87l-45.46,169.58c14.55,3.57,29.78,5.38,45.46,5.29Z"></path>   <path d="M525.34,565.85l-79.92-138.94-6.49-11.27,44.76,168.2c14.67-4.32,28.64-10.37,41.65-17.99Z"></path>   <path d="M444.64,411.17l121.64,122.27c10.41-10.83,19.51-22.87,27.1-35.91l-148.75-86.35Z"></path>   <polygon points="182.92 257.68 183.8 257.18 296.9 191.97 141.34 233.52 182.92 389.77 182.92 257.68"></polygon>   <path d="M446.4,408.13l148.73,86.35c7.24-13.01,12.93-26.94,16.88-41.58l-165.61-44.76Z"></path>   <path d="M186.44,416.65v174.77c15.56,.09,30.67-1.7,45.12-5.21l-45.12-169.56Z"></path>   <path d="M448.07,401.23l170.42,.32c-.19-15.28-2.23-30.09-5.88-44.27l-164.54,43.95Z"></path>   <path d="M435.58,416.66v174.78c4.21-.1,8.44-.33,12.71-.72,10.97-.98,21.68-2.97,32.06-5.82l-44.77-168.24Z"></path>   <path d="M428.67,415.63l-88.67,153.47c3.74,1.26,7.44,2.7,11.04,4.41,10.24,4.86,21.01,8.77,32.17,11.73l45.47-169.61Z"></path>   <path d="M182.92,416.58l-45.1,168.21c10.49,2.9,21.32,4.93,32.4,5.93,4.26,.39,8.5,.62,12.71,.72v-174.86Z"></path>   <path d="M137.05,231.03l1.69-.46,157.27-42.01-177.32-.17c-5.9,17.99-15.14,34.61-27.37,49.01l88.24,153.4-42.52-159.78Z"></path>   <path d="M189.8,415.65l45.14,169.69c11.28-2.97,22.16-6.91,32.51-11.82,3.49-1.66,7.06-3.07,10.68-4.31l-88.33-153.56Z"></path>   <path d="M297.35,181.79L147.82,95.28c-7.44,12.95-13.29,26.9-17.48,41.55l167.01,44.95Z"></path>   <path d="M124.79,162.22c-1.07,7.76-2.87,15.29-5.1,22.67l176.32,.17-166.66-44.85c-1.75,6.61-3.27,13.32-4.3,20.2-.09,.61-.18,1.21-.26,1.82Z"></path>   <path d="M301.18,176.16L215.15,26.61c-12.91,7.76-24.79,17.11-35.53,27.65l121.55,121.9Z"></path>   <polygon points="219.89 278.68 190.15 389.61 301.14 197.5 219.89 278.68"></polygon>   <polygon points="298.66 195.02 186.44 259.71 186.44 389.88 216.74 276.86 217.07 276.53 298.66 195.02"></polygon>   <path d="M176.52,392.56L88.83,240.12c-5.49,6.14-11.43,11.93-18,17.15-5.41,4.3-10.54,8.94-15.45,13.81l121.13,121.48Z"></path>   <path d="M171.9,408.61L6.45,452.7c3.93,14.64,9.6,28.56,16.81,41.57l148.64-85.66Z"></path>   <path d="M173.64,411.66L25,497.33c7.56,13.04,16.64,25.07,27.02,35.91l121.63-121.58Z"></path>   <path d="M179.53,415.63l-86.68,150.03c12.99,7.65,26.95,13.73,41.61,18.08l45.07-168.1Z"></path>   <path d="M172.26,398.06L24,312.21c-7.28,12.91-13.09,26.75-17.16,41.33l165.42,44.52Z"></path>   <path d="M172.3,401.7L5.97,356.94C2.29,371.17,.22,386.04,.02,401.38l172.28,.33Z"></path>   <path d="M174,395.01l-121.12-121.47c-10.4,10.71-19.52,22.67-27.14,35.61l148.26,85.85Z"></path> </svg>