<svg xmlns="http://www.w3.org/2000/svg" id="a" width="642" viewBox="0 0 642 642" height="642" data-name="Layer 1"><defs></defs><path d="M102.72 629.16V242.92c0-77.43 62.77-140.2 140.2-140.2 38.71 0 73.76 15.69 99.13 41.06l43.15 43.15V46.01C345.21 17.06 296.06 0 242.92 0 108.76 0 0 108.76 0 242.92v386.24h102.72Z" class="b"></path><path d="M321 159.15c-20.46-19.08-47.91-30.75-78.08-30.75-63.25 0-114.52 51.27-114.52 114.52v386.24h102.72v-385.2c0-7.09 5.75-12.84 12.84-12.84 3.54 0 6.74 1.43 9.06 3.74L385.2 367.04v-143.8l-64.2-64.1Z" class="b"></path><path d="M539.28 12.84v386.24c0 77.43-62.77 140.2-140.2 140.2-38.71 0-73.76-15.69-99.13-41.06l-43.15-43.15v140.92C296.79 624.94 345.94 642 399.08 642 533.24 642 642 533.24 642 399.08V12.84H539.28Z" class="b"></path><path d="M321 482.85c20.46 19.08 47.91 30.75 78.08 30.75 63.25 0 114.52-51.27 114.52-114.52V12.84H410.88v385.2c0 7.09-5.75 12.84-12.84 12.84-3.54 0-6.74-1.43-9.06-3.74L256.8 274.96v143.8l64.2 64.1Z" class="b"></path></svg>