<svg xmlns="http://www.w3.org/2000/svg" width="602" viewBox="0 0 602 604.4" height="604.4"><path d="M424.5 139.8c-43.5-.1-82.9 17.8-111.1 46.6l176.3 151.5c27.6 23.8 67.8 13.4 83.1-15.1 8.1-15.1 7.1-33.3 4.8-49.7C567 198.2 502.3 140 424.5 139.8zM21.2 300.5c-.2 3.4-.3 6.9-.2 10.3.3 7.7 1.8 15.3 3 22.9 2.2 11.6 5.8 22.9 10.6 33.6 9.4 21.1 23.6 40 41.2 55.1 17.7 15.1 38.8 26.2 61.3 32.2 12.6 3.3 25.7 5 38.7 5 43.5.1 82.9-17.7 111.1-46.5 0 0-176.1-151.6-176.2-151.6-16.3-14-39.3-17.1-58.7-7.9-9.2 4.3-17.2 11.2-22.6 19.9-5.2 8.2-7.6 17.5-8.2 27z"></path><path d="M177.4 126.8c44.4 0 85.1 16.1 116.6 42.7 32.9-34.2 79.1-55.4 130.2-55.4 81.2 0 149.9 53.6 172.7 127.3C568.7 103.6 446.9 0 300.8 0 143.7 0 14.7 119.8 0 273.1c16.1-83.3 89.4-146.3 177.4-146.3zM424.2 475.5c-44.4 0-85.1-16.1-116.6-42.7-32.9 34.2-79.1 55.4-130.2 55.4-82.6 0-152.3-55.4-173.8-131.2 25.8 140.7 149.1 247.4 297.2 247.4 158.4 0 288.4-121.9 301.2-277-15.4 84.2-89.1 148.1-177.8 148.1z"></path></svg>