<svg data-name="Layer 1" xmlns="http://www.w3.org/2000/svg" viewBox="0 0 603.35 603.35"><path d="M222.91 222.91h157.52v157.52H222.91zM380.437 222.912 491.82 111.528l111.384 111.384L491.82 334.295z"></path><path d="m233.05 0 111.38 111.38 147.39.15L380.43.14 233.05 0zM491.96 344.43l-.14 147.39L603.2 380.43l.15-147.38-111.39 111.38zM370.3 603.35 258.91 491.96l-147.38-.14L222.91 603.2l147.39.15zM0 370.3l111.38-111.39.15-147.38L.14 222.91 0 370.3zM269.05 491.825 380.434 380.44l111.383 111.384-111.383 111.383zM.145 380.431l111.383-111.383L222.912 380.43 111.528 491.814zM111.531 111.532 222.915.15l111.383 111.383-111.383 111.384z"></path></svg>