<svg xmlns="http://www.w3.org/2000/svg" width="617.5" viewBox="0 0 617.5 617.5" height="617.5" xml:space="preserve"><path d="M617.5 116.7c-.3-58.4-47.8-105.9-106.2-106.2-59.5-.3-107.5 48.7-107.5 108.1v33.9h70V118c0-20.5 16.5-37.6 37.1-37.5 20.2.1 36.5 16.5 36.6 36.6.1 20.4-17.1 37.1-37.5 37.1H395.6c-38.7 0-70 31.3-70 70h183.8c59.5 0 108.5-48.1 108.1-107.5zM471.6 225.9H298v70h103.7c38.5 0 69.9-31.3 69.9-70zM498.9 403.8H465v70h34.5c20.5 0 37.6 16.5 37.5 37.1-.1 20.2-16.5 36.5-36.6 36.6-20.4.1-37.1-17.1-37.1-37.5V395.6c0-38.7-31.3-70-70-70v183.8c0 59.5 48 108.5 107.5 108.1 58.4-.3 105.9-47.8 106.2-106.2.4-59.5-48.6-107.5-108.1-107.5zM321.6 401.6c0 38.7 31.3 70 70 70V297.9h-70v103.7zM0 500.8C.3 559.2 47.8 606.7 106.2 607c59.5.3 107.5-48.7 107.5-108.1V465h-70v34.5c0 20.5-16.5 37.6-37.1 37.5-20.1 0-36.5-16.4-36.6-36.6-.1-20.4 17.1-37.1 37.5-37.1h114.4c38.7 0 70-31.3 70-70H108.1C48.7 393.4-.3 441.4 0 500.8zM146 391.6h173.6v-70H216c-38.7 0-70 31.3-70 70zM118.6 213.7h33.9v-70H118c-20.5 0-37.6-16.5-37.5-37.1.1-20.2 16.5-36.5 36.6-36.6 20.4-.1 37.1 17.1 37.1 37.5v114.4c0 38.7 31.3 70 70 70V108.1c0-59.5-48-108.5-107.5-108.1C58.3.3 10.8 47.8 10.5 106.2c-.4 59.5 48.6 107.5 108.1 107.5zM295.9 216c0-38.7-31.3-70-70-70v173.6h70V216z"></path></svg>