<svg data-name="Layer 1" xmlns="http://www.w3.org/2000/svg" viewBox="0 0 623.28 614.81"><path d="M584.24 303.78c6.35-8.22 63.83-87.24 18.93-189.33C555.96 7.09 448.65.06 447.57 0c-.28 0-.51.06-.74.23-.34.28-34.98 26.47-68.87 77.21-28.12 42.17-60.88 109.52-66.21 199.36-5.33-89.85-38.09-157.25-66.21-199.36C211.7 26.7 177.01.51 176.67.23c-.22-.17-.45-.23-.74-.23-1.08.06-108.44 7.09-155.6 114.45-44.9 102.09 12.64 181.11 18.93 189.33-6.41 8.79-67.63 96.93-23.24 193.07 53.91 116.83 160.53 117.96 161.95 117.96s.51-.11.68-.23c.34-.28 33.22-26.98 65.98-78 28.17-43.87 61.62-114.73 67-208.55 5.39 93.87 38.83 164.67 67 208.55 32.76 51.02 65.64 77.77 65.98 78 .23.17.45.23.68.23 1.47 0 108.04-1.19 161.95-117.96 44.39-96.08-16.84-184.23-23.24-193.07h.23ZM152.52 521.57s-.51.34-.79.34c-.11 0-.23 0-.34-.06-.74-.23-73.41-25.91-65.87-113.71 3.97-45.92 33.1-72.44 56.86-86.62 17.8-10.6 35.32-16.04 44.5-18.42-22.56-3.29-94.67-19.95-99.48-99.82-2.55-42.68 14.34-70.46 28.91-86.16 15.82-17.06 32.03-23.92 32.71-24.2.45-.17.91-.06 1.25.28.79.85 79.81 83.9 79.81 214.22s-76.81 213.42-77.55 214.22v-.06Zm319.71.28s-.23.06-.34.06c-.28 0-.62-.11-.79-.34-.79-.79-77.55-81.85-77.55-214.22s79.02-213.37 79.81-214.22c.34-.34.79-.45 1.25-.28.68.28 16.89 7.14 32.71 24.2 14.62 15.76 31.52 43.48 28.91 86.16-4.82 79.87-76.87 96.59-99.48 99.82 9.18 2.38 26.7 7.82 44.5 18.42 23.75 14.17 52.94 40.7 56.86 86.62 7.54 87.86-65.13 113.49-65.87 113.71v.06Z"></path></svg>