<svg xmlns="http://www.w3.org/2000/svg" width="457" viewBox="0 0 457 583.9" height="583.9"><path d="M187.8 204.6V39.7C207.9 18.1 222.3 2.5 225 0c2.6 2.4 41 38.3 86 86 54.3 57.5 123 136.4 138 202.2 2.9 12.8 6 25.9 7.1 39.3 2.1 24.4.3 49.5-4.5 72.7-13 63.7-52.7 119.5-106.8 151.6V188.4c0-20.7-16.8-39.3-37.5-39.3s-37.5 16.8-37.5 37.5v74.8c0 21.6-19.6 39.2-41.3 39.2-21.6 0-40.7-17.5-40.7-39.2v-56.8z"></path><path d="M269.8 405.7c0-21.6-19.3-41-41-41-21.6 0-39.2 19.3-39.2 41v78.1c0 20.7-18.6 37.5-39.3 37.5-20.7 0-37.5-18.6-37.5-39.3V120.1C74 162.4 36.5 208.4 15.3 261.2-2 304-4 355.6 6.1 400.3 25 483.2 99.2 571.1 198.4 582.4c16.8 1.9 34.3 1.8 51.1.3 6.8-.6 13.6-1.5 20.2-2.7V405.7z"></path></svg>