<svg width="1292" height="163" viewBox="0 0 1292 163" fill="none" xmlns="http://www.w3.org/2000/svg">
<path d="M1243.45 48.5555V0C1242.48 12.0649 1241.42 31.4028 1233.55 39.2787C1225.67 47.1545 1206.79 47.84 1194.89 48.5555H1243.45Z" fill="#FF4F00"/>
<path d="M1243.45 48.5558L1243.45 97.1113C1244.41 85.0465 1245.47 65.7085 1253.34 57.8327C1261.22 49.9569 1280.1 49.2713 1292 48.5558L1243.45 48.5558Z" fill="#FF4F00"/>
<path d="M1243.45 48.5555V0C1244.41 12.0649 1245.47 31.4028 1253.34 39.2787C1261.22 47.1545 1280.1 47.84 1292 48.5555H1243.45Z" fill="#FF4F00"/>
<path d="M1243.45 48.5558L1243.45 97.1113C1242.48 85.0465 1241.42 65.7085 1233.55 57.8327C1225.67 49.9569 1206.79 49.2713 1194.89 48.5558L1243.45 48.5558Z" fill="#FF4F00"/>
<path fill-rule="evenodd" clip-rule="evenodd" d="M698.681 128.395C698.681 134.56 693.429 139.812 687.264 139.812H645.937C639.772 139.812 634.749 134.56 634.749 128.395V57.2666C635.417 55.7937 636.264 54.4626 637.248 53.3964C639.524 50.9306 643.737 48.5525 647.186 48.3009H647.252L647.218 48.2986L647.252 48.2963H647.186C643.737 48.0448 639.524 45.6666 637.248 43.2008C636.264 42.1346 635.417 40.8036 634.749 39.3306V37.2921C634.749 30.8989 639.772 25.6474 645.937 25.6474H687.264C693.429 25.6474 698.681 30.8989 698.681 37.2921H721.514C721.514 27.9306 718.089 19.7108 711.467 13.0893C704.846 6.23938 696.626 2.81445 687.264 2.81445H645.937C636.575 2.81445 628.355 6.23938 621.734 13.0893C615.112 19.7108 611.916 27.9306 611.916 37.2921V42.0606C612.347 42.8236 612.933 43.5164 613.729 44.1793C617.25 47.1134 620.255 48.0678 623.704 48.2967H623.733L623.718 48.2977L623.733 48.2986H623.704C620.249 48.5353 616.013 50.9219 613.729 53.3968C613.056 54.1257 612.447 54.9784 611.916 55.9156V128.395C611.916 137.757 615.112 145.977 621.734 152.598C628.355 159.22 636.575 162.645 645.937 162.645H687.264C696.626 162.645 704.846 159.22 711.467 152.598C718.089 145.977 721.514 137.757 721.514 128.395H698.681ZM776.33 2.81445C769.709 2.81445 767.197 4.86941 764.457 11.0343L750.286 41.0953C750.373 41.7881 750.554 42.4211 750.836 42.9863C752.007 45.3283 755.578 48.0297 759.022 48.279H759.073L759.023 48.2791L759.075 48.2826H758.604C753.554 48.3611 749.927 49.721 746.715 52.3983C745.676 53.2641 744.593 54.2818 743.543 55.3981L734.318 74.9664C733.404 77.0214 732.948 81.5879 732.948 88.8945V162.645H755.781V128.395H819.713V162.645H842.546V88.8945C842.546 81.5879 842.089 77.0214 841.176 74.9664L831.575 54.7541C831.577 53.8675 831.722 53.0791 832.049 52.4263C833.226 50.0724 837.415 48.5325 840.876 48.307H828.513L828.512 48.3061H840.879C835.583 48.3061 831.833 46.9462 828.521 44.1868C827.333 43.1967 826.089 42.0078 824.899 40.7001L810.808 11.0343C807.84 4.64109 805.785 2.81445 799.163 2.81445H776.33ZM819.713 105.562H755.781V82.5013L768.964 54.6826C769.794 53.8451 770.633 53.0749 771.445 52.3977C774.658 49.7203 778.284 48.3604 783.335 48.282H783.806L783.754 48.2784L783.803 48.2784H783.753C780.309 48.0291 776.738 45.3277 775.567 42.9857C775.368 42.588 775.22 42.1567 775.119 41.6947L782.724 25.6474H793.455L801.02 42.028C801.711 42.8168 802.443 43.5437 803.214 44.1868C806.37 46.8162 809.924 48.1749 814.834 48.2971H815.574C815.532 48.2998 815.489 48.3028 815.447 48.3059L815.572 48.3061H815.444C812.009 48.5611 807.909 50.0919 806.746 52.4164C806.558 52.7927 806.46 53.2441 806.436 53.7539L819.713 82.5013V105.562ZM953.531 12.8609C960.153 19.4825 963.578 27.474 963.578 36.8355V128.395C963.578 137.757 960.153 145.977 953.531 152.598C946.91 159.22 938.69 162.645 929.328 162.645H853.98V54.6728C854.303 54.2153 854.646 53.7875 855.008 53.3955C857.283 50.9304 861.494 48.5529 864.942 48.3002H865.013L864.976 48.2977L865.012 48.2953H864.943C861.495 48.0426 857.284 45.6651 855.009 43.2C854.646 42.8078 854.303 42.3796 853.98 41.9218V2.81445H929.328C938.69 2.81445 946.91 6.23938 953.531 12.8609ZM929.328 139.812C935.722 139.812 940.745 134.56 940.745 128.395V37.0638C940.745 30.6706 935.722 25.6474 929.328 25.6474H876.813V40.8379C877.323 41.7135 877.901 42.5119 878.536 43.2C880.811 45.6651 885.022 48.0426 888.47 48.2953H888.543L888.506 48.2979L888.54 48.3002H888.473C885.025 48.5529 880.814 50.9304 878.539 53.3955C877.902 54.0849 877.323 54.885 876.813 55.7627V139.812H929.328ZM1084.61 71.3131H997.845V56.1145C998.402 55.0983 999.049 54.1759 999.77 53.3955C1002.05 50.9304 1006.26 48.5529 1009.7 48.3002H1009.77L1009.74 48.2979L1009.77 48.2953H1009.7C1006.25 48.0426 1002.04 45.6651 999.767 43.2C999.047 42.421 998.401 41.5006 997.845 40.4868V25.6474H1084.61V2.81445H975.012V41.6824C975.382 42.2313 975.782 42.7408 976.206 43.201C978.483 45.6669 982.695 48.045 986.144 48.2965H986.211L986.176 48.2988L986.211 48.3011H986.144C982.695 48.5527 978.483 50.9308 976.206 53.3967C975.782 53.8568 975.382 54.3663 975.012 54.9153V162.645H1084.61V139.812H997.845V94.146H1084.61V71.3131ZM1096.04 2.81445H1205.64V25.6474H1162.26V39.7907C1162.89 41.0808 1163.66 42.2468 1164.54 43.2008C1166.82 45.6666 1171.03 48.0448 1174.48 48.2963H1174.55L1174.51 48.2986L1174.55 48.3009H1174.48C1171.03 48.5525 1166.82 50.9306 1164.54 53.3964C1163.66 54.3504 1162.89 55.5165 1162.26 56.8065V162.645H1139.43V55.4919C1139.9 54.7205 1140.42 54.014 1140.99 53.3964C1143.27 50.9281 1147.49 48.5477 1150.94 48.3002H1151L1150.97 48.2982L1150.99 48.2963H1150.94C1147.49 48.0488 1143.27 45.6684 1140.99 43.2C1140.42 42.5822 1139.9 41.8754 1139.43 41.1035V25.6474H1096.04V2.81445ZM109.489 122.341C109.489 114.357 107.437 107.286 103.103 101.127C95.1721 89.1242 82.6093 83.1634 68.8208 76.6209C67.9352 76.2008 67.0446 75.7782 66.1499 75.3515C63.684 74.2613 61.2181 73.2006 58.7841 72.1537L58.7835 72.1534L58.7828 72.1531C44.8941 66.1793 32.0453 60.6527 26.1692 52.6382C28.5438 50.368 32.4185 48.307 35.6165 48.0987H23.7253L23.7232 48.0929H35.6165C32.1591 47.8677 27.9109 45.4771 25.6223 42.9978C24.6641 41.9598 23.8359 40.6704 23.1763 39.2434C24.8156 31.5275 31.7592 25.625 39.918 25.625H69.5714C78.9237 25.625 86.6791 33.1524 86.6791 42.5046H109.261C109.261 31.5557 105.384 22.2035 97.6281 14.448C89.8726 6.69246 80.5204 2.81471 69.3433 2.81471H39.918C28.741 2.81471 19.3888 6.69246 11.6333 14.448C5.74287 20.3383 2.08939 27.1498 0.672815 34.9823C0.474496 39.4656 0.890253 42.0089 2.70423 43.9741C4.97617 46.4353 9.75872 47.8435 13.2107 48.0842H13.2863L13.2477 48.0868L13.2863 48.0893H13.2097C9.79215 48.3218 7.32744 49.1507 5.05581 51.6116C3.31102 53.5018 2.85983 55.5852 3.52544 58.8132C7.42725 67.348 14.2476 74.3688 22.3541 79.0011C35.356 86.3004 51.3232 93.5997 64.097 99.0742C77.0988 104.321 86.6791 112.532 86.6791 122.341C86.6791 132.149 78.9237 139.677 69.5714 139.677H40.1461C30.7939 139.677 22.8103 131.921 22.8103 122.569H0C0 133.518 3.87775 142.87 11.6333 150.854C19.6169 158.609 28.9691 162.487 40.1461 162.487H69.3433C80.5204 162.487 89.8726 158.609 97.6281 150.854C105.612 142.87 109.489 133.518 109.489 122.341ZM229.629 34.4486C228.145 26.84 224.525 20.2042 218.769 14.448C211.013 6.69246 201.661 2.81471 190.484 2.81471H120.912V39.5221C121.549 40.8375 122.331 42.0263 123.226 42.9959C125.514 45.4752 129.762 47.8657 133.22 48.0909H120.912V48.0965H133.214C129.756 48.3217 125.508 50.7122 123.219 53.1915C122.327 54.158 121.548 55.3423 120.912 56.6526V162.487H143.723V94.0559H190.484C201.661 94.0559 211.013 90.1782 218.769 82.4227C225.324 75.8675 229.109 68.1717 230.123 59.1974C230.752 56.8663 231.904 54.9611 233.405 53.1877C235.492 50.721 239.358 48.3421 242.518 48.0962H242.562L242.54 48.0946L242.566 48.0926H242.514C239.354 47.8467 235.488 45.4679 233.401 43.0011C231.735 41.0323 230.498 38.9008 229.931 36.2046C229.866 35.7721 229.795 35.3425 229.717 34.916C229.68 34.6134 229.65 34.3037 229.629 33.9867V34.4486ZM211.398 52.3876C214.337 49.9248 217.932 48.3134 221.389 48.0766H221.392L221.391 48.0764L221.392 48.0763H221.389C217.932 47.8502 214.337 46.312 211.398 43.9613C209.22 42.219 208.01 40.7994 207.052 38.5069C206.828 37.6458 206.537 36.8097 206.186 36.0046C206.16 35.9145 206.133 35.8232 206.107 35.7308L206.118 35.8511C203.438 29.863 197.397 25.625 190.484 25.625H143.723V37.8834C144.445 39.8488 145.477 41.6386 146.731 42.9976C149.02 45.4769 153.268 47.8675 156.725 48.0927H143.723V48.0984H156.723C153.266 48.3237 149.018 50.7142 146.729 53.1935C145.476 54.5513 144.445 56.339 143.723 58.3024V71.2456H190.484C198.603 71.2456 205.519 65.3999 207.201 57.7387C208.137 55.5464 209.332 54.1191 211.398 52.3876ZM273.303 11.0264C276.04 4.86763 278.549 2.81471 285.164 2.81471H307.975C314.59 2.81471 316.643 4.63953 319.608 11.0264L331.829 36.7558L330.164 32.8186C331.927 36.9339 335.086 41.232 338.394 43.9886C341.702 46.7453 345.449 48.1039 350.74 48.1039H337.22L337.221 48.1065H350.731C347.274 48.3318 343.089 49.8702 341.913 52.2218C340.737 54.5734 342.501 58.6886 344.264 62.8039L343.546 61.4228L349.946 74.8953C350.858 76.9482 351.314 81.5102 351.314 88.8095V162.487H328.504V128.271H264.635V162.487H241.825V88.8095C241.825 81.5102 242.281 76.9482 243.193 74.8953L250.017 60.4219C251.975 57.3007 254.744 54.3126 257.26 52.216C260.462 49.5481 264.074 48.1897 269.1 48.105H269.611L269.551 48.1008L269.606 48.1007H269.55C266.112 47.8478 262.55 45.1517 261.381 42.8139C260.59 41.2317 260.597 39.1172 261.224 36.6495L273.303 11.0264ZM264.635 105.461H328.504V82.4227L318.752 61.3069L319.59 62.8039C319.279 62.078 318.949 61.3522 318.624 60.636L318.622 60.6317L318.621 60.6292L318.621 60.6279L318.62 60.6273L318.62 60.6266L318.619 60.6242C317.103 57.2844 315.683 54.1563 316.651 52.2218C317.826 49.8702 322.012 48.3318 325.469 48.1065H312.655L312.654 48.1039H325.46C320.169 48.1039 316.422 46.7453 313.114 43.9886C310.888 42.1336 308.996 39.5806 307.459 36.855L302.272 25.625H291.551L285.594 38.1949C285.319 40.0044 285.448 41.5729 286.069 42.8139C287.238 45.1516 290.8 47.8478 294.238 48.1007H294.294L294.239 48.1008L294.299 48.1049H293.788C288.762 48.1896 285.15 49.5481 281.948 52.216C279.904 53.9199 277.691 56.2126 275.883 58.6871L264.635 82.4227V105.461ZM449.416 128.271C449.416 134.43 444.17 139.677 438.011 139.677H396.725C390.566 139.677 385.548 134.43 385.548 128.271V59.4924C386.262 57.0666 387.445 54.8205 388.948 53.1926C391.236 50.7132 395.484 48.3227 398.942 48.0975H385.548V48.0919H398.942C395.484 47.8667 391.236 45.4762 388.947 42.9969C387.453 41.3775 386.274 39.1466 385.559 36.7356C385.824 30.5876 390.735 25.625 396.725 25.625H438.011C444.17 25.625 449.416 30.8714 449.416 37.2583H472.227C472.227 27.906 468.805 19.6943 462.19 13.0793C455.575 6.23625 447.364 2.81471 438.011 2.81471H396.725C387.372 2.81471 379.161 6.23625 372.546 13.0793C365.931 19.6943 362.737 27.906 362.737 37.2583V38.6899C363.432 40.3365 364.347 41.8264 365.427 42.9969C367.716 45.4762 371.964 47.8667 375.421 48.0919H362.737V48.0975H375.421C371.964 48.3227 367.715 50.7132 365.427 53.1926C364.347 54.3627 363.432 55.8522 362.737 57.4983V128.271C362.737 137.624 365.931 145.835 372.546 152.45C379.161 159.065 387.372 162.487 396.725 162.487H438.011C447.364 162.487 455.575 159.065 462.19 152.45C468.805 145.835 472.227 137.624 472.227 128.271H449.416ZM506.46 71.2456H593.139V94.0559H506.46V139.677H593.139V162.487H483.65V57.9964C484.364 56.1537 485.352 54.4806 486.54 53.1937C488.829 50.7144 493.077 48.3239 496.535 48.0987H483.65V48.0929H496.539C493.081 47.8677 488.833 45.4771 486.544 42.9978C485.354 41.7086 484.365 40.0316 483.65 38.1848V2.81471H593.139V25.625H506.46V36.018C507.144 38.701 508.404 41.2179 510.047 42.9968C512.335 45.4761 516.583 47.8667 520.041 48.0919H506.46V48.0977H520.041C516.583 48.3229 512.335 50.7134 510.047 53.1927C508.404 54.9717 507.144 57.4886 506.46 60.1716V71.2456Z" fill="white"/>
</svg>
